<?xml version="1.0" standalone="no"?>
<!DOCTYPE svg PUBLIC "-//W3C//DTD SVG 20010904//EN"
 "http://www.w3.org/TR/2001/REC-SVG-20010904/DTD/svg10.dtd">
<svg version="1.0" xmlns="http://www.w3.org/2000/svg"
 width="7500.000000pt" height="7500.000000pt" viewBox="0 0 7500.000000 7500.000000"
 preserveAspectRatio="xMidYMid meet">
<metadata>
Created by potrace 1.16, written by Peter Selinger 2001-2019
</metadata>
<g transform="translate(0.000000,7500.000000) scale(0.075000,-0.075000)"
fill="#000000" stroke="none">
<path d="M18347 94593 l-5 -8 185 -135 c102 -74 189 -136 194 -138 l9 -4 0 14
0 13 -180 130 c-190 137 -195 141 -203 128z"/>
<path d="M87306 93291 c-58 -71 -126 -147 -152 -170 l-46 -40 4 -10 3 -11 47
41 47 40 104 127 c57 70 107 133 111 140 l7 12 -10 0 c-5 0 -57 -58 -115 -129z"/>
<path d="M26784 91479 c-3 -5 -4 -9 -2 -9 2 -1 101 -29 221 -64 l218 -63 -4
11 -4 11 -179 52 c-98 29 -194 57 -211 62 l-33 9 -6 -9z"/>
<path d="M29270 90716 l0 -12 221 -63 221 -63 6 6 6 6 -10 9 c-8 7 -106 36
-361 107 l-83 23 0 -13z"/>
<path d="M30698 90483 l-58 -4 0 -9 0 -10 110 0 110 0 0 15 0 15 -52 -2 c-29
-1 -79 -3 -110 -5z"/>
<path d="M36330 89957 l0 -15 211 -51 c209 -51 327 -73 549 -107 63 -9 121
-19 128 -22 l12 -4 0 15 0 15 -87 15 c-49 9 -117 18 -153 22 -101 10 -492 96
-642 141 l-18 5 0 -14z"/>
<path d="M78970 88441 c0 -5 8 -11 18 -14 9 -3 108 -37 219 -75 l203 -71 5 8
5 8 -218 77 c-119 42 -220 76 -225 76 -4 0 -7 -4 -7 -9z"/>
<path d="M79835 88140 c-4 -6 -4 -10 -2 -10 2 0 94 -31 203 -70 109 -38 202
-70 206 -70 21 0 5 18 -24 27 -18 6 -110 38 -205 71 l-172 61 -6 -9z"/>
<path d="M56010 87104 c0 -8 170 -425 177 -433 2 -3 8 0 15 7 l11 11 -86 208
-85 208 -16 3 -16 3 0 -7z"/>
<path d="M80500 84333 l0 -9 211 -73 211 -72 5 5 6 5 -28 11 c-15 6 -104 37
-198 69 -95 33 -180 62 -189 66 l-18 7 0 -9z"/>
<path d="M42550 80837 c0 -7 15 -59 34 -115 l35 -102 7 -105 7 -105 13 0 c8 0
14 3 14 8 0 4 -5 52 -10 106 l-10 100 -37 113 -37 113 -8 0 c-4 0 -8 -6 -8
-13z"/>
<path d="M73300 79244 c0 -3 66 -95 147 -204 l147 -199 8 5 8 5 -12 18 c-7 10
-73 99 -147 199 -119 161 -151 198 -151 176z"/>
<path d="M98429 78667 c-71 -110 -133 -226 -125 -234 2 -3 24 33 47 78 23 46
65 118 93 159 29 41 56 81 60 88 l7 12 -8 0 c-4 0 -38 -46 -74 -103z"/>
<path d="M81420 78154 c0 -3 39 -101 87 -219 l86 -214 8 5 8 4 -87 215 c-48
118 -90 215 -94 215 -5 0 -8 -2 -8 -6z"/>
<path d="M89366 64018 c-63 -72 -58 -82 7 -13 l52 55 85 -100 c47 -55 89 -100
93 -100 10 0 -12 28 -103 133 l-65 76 -12 0 -11 1 -46 -52z"/>
<path d="M41270 63575 c0 -12 209 -250 252 -287 l32 -28 -17 -35 c-21 -43 -21
-45 -3 -45 l14 0 16 40 c9 22 16 45 16 51 l0 11 -12 -4 -11 -4 -22 20 c-16 16
-184 199 -257 281 l-8 9 0 -9z"/>
<path d="M41545 63140 c3 -5 11 -10 16 -10 l10 0 -6 10 c-3 6 -11 10 -16 10
l-10 0 6 -10z"/>
<path d="M42453 62667 l-52 -42 0 -12 c-1 -7 3 -13 8 -13 5 0 64 -63 131 -140
112 -129 130 -148 130 -136 0 3 -56 69 -124 148 l-125 143 47 48 c25 26 44 47
42 47 -3 0 -28 -20 -57 -43z"/>
<path d="M58005 62409 c-115 -94 -212 -176 -214 -182 l-4 -11 49 39 c27 22
127 102 222 179 94 76 172 140 172 142 0 13 -35 -13 -225 -167z"/>
<path d="M57533 62082 c-123 -96 -221 -177 -218 -180 2 -2 97 69 211 159 114
90 215 169 223 176 9 6 14 14 11 16 -3 3 -105 -74 -227 -171z"/>
<path d="M60275 61202 l-170 -168 -150 -124 c-82 -68 -152 -125 -154 -126 -1
-2 0 -7 4 -13 l6 -11 132 111 c143 121 517 475 517 490 0 5 -3 9 -7 9 -5 0
-84 -76 -178 -168z"/>
<path d="M36983 60463 l6 -10 130 -7 c71 -4 169 -13 217 -21 99 -16 110 -17
102 -10 -9 9 -160 33 -253 39 -49 4 -116 9 -149 12 l-59 6 6 -9z"/>
<path d="M83355 59900 c14 -28 62 -108 107 -178 167 -263 671 -1185 724 -1327
l23 -60 0 16 c2 35 -37 117 -201 429 -211 401 -413 760 -531 945 -49 77 -99
159 -110 183 -12 23 -25 42 -29 42 l-8 0 25 -50z"/>
<path d="M34798 58042 c-108 -59 -195 -109 -193 -111 2 -1 77 37 167 85 207
112 245 134 233 134 -5 0 -98 -49 -207 -108z"/>
<path d="M64034 58015 c3 -11 24 -111 47 -223 23 -111 44 -200 47 -198 6 6
-78 408 -90 426 l-9 15 5 -20z"/>
<path d="M64174 57120 c2 -8 23 -103 46 -210 22 -107 45 -204 51 -215 l9 -20
-4 25 c-3 14 -24 113 -47 220 l-41 195 -10 10 -9 10 5 -15z"/>
<path d="M90060 56074 c-85 -74 -166 -147 -180 -161 l-25 -26 18 6 c22 8 357
297 357 309 0 17 -20 3 -170 -128z"/>
<path d="M90035 55979 c-121 -104 -239 -210 -263 -237 l-43 -47 -94 -190 c-51
-104 -125 -249 -164 -321 l-70 -132 6 -6 7 -6 34 62 c19 35 93 178 164 318 71
140 141 270 155 288 13 18 127 121 251 229 125 107 233 201 240 208 l14 13 -9
5 -8 5 -220 -189z"/>
<path d="M46944 55712 l-11 -7 31 -105 c31 -102 50 -150 105 -265 l26 -55 14
9 15 10 -51 118 c-28 65 -60 152 -72 193 -12 41 -24 83 -27 93 -6 18 -13 21
-30 9z"/>
<path d="M85400 55661 c-19 -10 -104 -40 -187 -67 l-153 -47 0 -8 0 -8 28 9
c15 5 92 29 172 54 l145 46 30 20 30 20 -15 -1 c-8 0 -31 -8 -50 -18z"/>
<path d="M25955 55616 l-8 -19 17 -31 17 -31 241 -165 c132 -91 242 -170 245
-177 l5 -12 -116 -169 c-64 -94 -116 -176 -116 -184 l0 -13 126 189 126 188
-14 13 c-7 7 -118 86 -247 174 -129 89 -240 170 -247 179 -7 10 -14 31 -16 47
l-4 30 -9 -19z"/>
<path d="M49440 55411 c0 -5 149 -121 332 -257 183 -137 363 -275 401 -307
l70 -58 6 7 6 6 -45 40 c-47 43 -756 578 -765 578 -3 0 -5 -4 -5 -9z"/>
<path d="M52222 54698 c-73 -110 -132 -202 -129 -204 2 -2 64 86 137 196 73
110 131 202 129 204 -2 2 -64 -86 -137 -196z"/>
<path d="M50121 54533 c-1 -7 4 -44 11 -83 l12 -70 26 -24 25 -23 48 -16 47
-16 0 8 0 8 -45 13 -46 13 -23 28 -24 28 -7 53 c-4 29 -11 62 -16 73 l-8 20 0
-12z"/>
<path d="M80962 54445 c-117 -29 -216 -56 -220 -60 l-7 -8 24 6 c13 3 112 27
220 53 108 26 198 49 200 51 18 13 -32 4 -217 -42z"/>
<path d="M88035 54386 l-20 -15 10 -2 c6 0 25 0 43 1 l33 2 25 -17 26 -17 6 6
6 7 -20 19 -19 19 -35 6 -35 6 -20 -15z"/>
<path d="M54720 53724 c0 -11 83 -85 88 -79 3 3 -3 14 -14 26 -24 27 -74 63
-74 53z"/>
<path d="M79710 53431 c-102 -26 -198 -51 -214 -55 l-28 -7 5 -6 6 -5 216 53
215 54 0 7 c0 11 10 13 -200 -41z"/>
<path d="M14190 53291 c0 -4 78 -68 173 -141 94 -73 178 -138 186 -144 l13
-10 -3 16 -4 17 -174 135 c-168 131 -191 146 -191 127z"/>
<path d="M52880 52761 l-354 -179 -12 5 -11 4 -7 -16 -6 -16 8 5 8 5 127 -255
127 -254 9 0 9 0 -124 255 c-68 141 -124 258 -124 260 0 3 6 5 14 5 14 0 523
255 651 327 142 78 15 19 -315 -146z"/>
<path d="M35497 52588 c18 -117 33 -220 34 -228 l1 -15 5 13 5 13 -33 215
c-18 118 -35 214 -39 214 l-6 0 33 -212z"/>
<path d="M54385 52540 c8 -16 15 -35 15 -42 0 -8 -27 -83 -60 -168 l-60 -155
0 -37 0 -37 11 -6 10 -7 -6 34 -6 33 60 158 c34 87 61 166 61 175 0 24 -23 82
-32 82 l-9 0 16 -30z"/>
<path d="M27045 52113 l0 -233 8 0 7 0 -1 173 c-1 94 -4 199 -8 232 l-7 60 1
-232z"/>
<path d="M52930 52307 c0 -17 49 -103 70 -122 l22 -20 59 -117 c33 -65 61
-118 64 -118 3 0 -22 55 -56 123 l-61 122 -34 38 c-19 20 -34 43 -34 50 0 14
-29 57 -30 44z"/>
<path d="M54742 52271 c-13 -9 -95 -51 -183 -92 l-158 -74 -1 -12 c0 -7 2 -13
4 -13 13 0 342 161 354 174 l14 14 -3 11 -4 10 -23 -18z"/>
<path d="M33610 50384 c0 -22 61 -388 65 -393 3 -2 5 2 5 10 0 29 -58 381 -64
386 l-6 6 0 -9z"/>
<path d="M34410 49910 c0 -5 5 -10 10 -10 6 0 10 5 10 10 0 6 -4 10 -10 10 -5
0 -10 -4 -10 -10z"/>
<path d="M40113 49548 c67 -170 161 -404 164 -407 1 -2 6 -2 9 2 l6 6 -82 206
-82 205 -10 0 -10 0 5 -12z"/>
<path d="M22326 48953 c-4 -164 -11 -395 -16 -513 -4 -118 -6 -217 -4 -219 2
-2 7 -2 10 2 7 7 20 316 29 730 l7 297 -9 0 -10 0 -7 -297z"/>
<path d="M33900 48605 c-228 -13 -428 -25 -445 -28 l-30 -4 45 -1 c72 -2 941
46 947 52 l6 6 -54 -1 c-30 -1 -241 -12 -469 -24z"/>
<path d="M36868 47403 l-158 -4 0 -11 0 -11 38 7 c20 3 99 6 175 6 l137 0 0
10 0 10 -17 -2 c-10 -1 -89 -4 -175 -5z"/>
<path d="M20667 47133 l-17 -48 -29 -162 -28 -163 7 0 7 0 27 160 28 161 19
49 19 50 -8 0 c-4 0 -16 -21 -25 -47z"/>
<path d="M20631 46738 c0 -10 -12 -46 -26 -81 l-26 -63 -47 -47 -47 -47 -88
-38 -87 -39 6 -6 6 -5 91 40 92 40 42 41 43 41 26 66 26 67 -5 24 -4 24 -2
-17z"/>
<path d="M52333 44444 l-12 -5 86 -177 c47 -97 137 -285 200 -417 63 -132 116
-242 118 -243 2 -2 10 0 19 5 l15 8 -140 295 c-77 162 -167 350 -199 418 l-59
122 -8 -1 c-4 0 -13 -3 -20 -5z"/>
<path d="M51336 43213 c53 -355 96 -628 100 -632 11 -12 11 10 -1 69 -7 36
-34 212 -61 393 l-48 327 -6 0 -7 0 23 -157z"/>
<path d="M2768 39377 l-147 -122 0 -12 c-1 -7 2 -13 7 -13 4 0 72 55 152 121
l145 121 3 14 3 14 -8 0 c-4 -1 -74 -56 -155 -123z"/>
<path d="M47025 39060 l-66 -79 -127 -120 -127 -120 10 -10 10 -10 127 117
126 117 71 86 70 87 -6 6 c-13 13 -23 4 -88 -74z"/>
<path d="M2536 38994 c-137 -119 -161 -144 -136 -144 13 0 300 250 300 261 0
21 -26 2 -164 -117z"/>
<path d="M54175 38578 c-4 -16 -75 -391 -75 -401 0 -4 4 -7 9 -7 l9 0 26 138
c14 75 32 170 40 210 l14 72 -9 0 c-6 0 -11 -6 -14 -12z"/>
<path d="M85662 36679 c11 -29 105 -178 168 -266 l65 -92 3 9 3 9 -69 98 c-38
54 -88 131 -112 171 -23 40 -47 75 -53 79 l-10 6 5 -14z"/>
<path d="M53657 36003 c-4 -3 -7 -28 -7 -55 l0 -48 9 0 9 0 4 55 3 55 -6 0
c-3 0 -9 -3 -12 -7z"/>
<path d="M57287 34515 l-99 -44 -56 -7 c-31 -4 -66 -10 -77 -15 l-20 -8 20 0
c11 0 54 6 95 13 l75 14 79 36 c43 20 84 36 91 36 l13 0 6 -16 6 -17 6 6 6 5
-12 21 -11 21 -12 -1 c-7 0 -56 -20 -110 -44z"/>
<path d="M35095 33058 c-55 -38 -153 -101 -217 -141 l-118 -72 0 -12 c0 -7 4
-13 8 -13 11 0 179 104 321 199 l120 81 -5 15 c-4 8 -7 15 -8 14 0 -1 -46 -32
-101 -71z"/>
<path d="M98893 31719 c11 -33 395 -579 541 -769 162 -212 162 -212 154 -189
-4 9 -71 101 -150 205 -80 104 -232 315 -338 469 -106 154 -198 285 -203 290
l-10 10 6 -16z"/>
<path d="M79866 30480 c10 -16 20 -27 23 -25 6 7 -21 55 -31 55 l-9 0 17 -30z"/>
<path d="M90495 24839 c100 -11 338 -46 373 -55 l22 -6 0 9 0 9 -147 23 -148
23 -95 3 -95 4 90 -10z"/>
<path d="M87167 20324 c149 -158 193 -201 193 -190 0 10 -298 320 -313 325 -7
2 47 -58 120 -135z"/>
</g>
</svg>
