<?xml version="1.0" standalone="no"?>
<!DOCTYPE svg PUBLIC "-//W3C//DTD SVG 20010904//EN"
 "http://www.w3.org/TR/2001/REC-SVG-20010904/DTD/svg10.dtd">
<svg version="1.0" xmlns="http://www.w3.org/2000/svg"
 width="7500.000000pt" height="7500.000000pt" viewBox="0 0 7500.000000 7500.000000"
 preserveAspectRatio="xMidYMid meet">
<metadata>
Created by potrace 1.16, written by Peter Selinger 2001-2019
</metadata>
<g transform="translate(0.000000,7500.000000) scale(0.075000,-0.075000)"
fill="#000000" stroke="none">
<path d="M89016 99941 c5 -5 97 -44 204 -86 107 -42 201 -79 208 -82 l12 -5 0
10 0 9 -206 82 c-113 44 -210 81 -217 81 l-11 0 10 -9z"/>
<path d="M83713 98873 l7 -11 77 -11 c43 -6 167 -15 275 -21 l196 -9 141 6
141 6 0 6 0 6 -247 -3 -248 -3 -155 15 c-85 8 -164 18 -174 22 l-19 7 6 -10z"/>
<path d="M10860 98323 c0 -11 322 -291 345 -299 l15 -6 0 9 c0 11 -322 291
-345 299 l-15 6 0 -9z"/>
<path d="M58646 98022 c-4 -7 45 -352 59 -419 l5 -23 16 0 16 0 -6 28 c-5 25
-66 411 -66 419 0 6 -19 3 -24 -5z"/>
<path d="M28280 97330 l0 -15 103 -101 102 -101 247 -192 c136 -105 250 -191
253 -191 22 0 -26 41 -237 205 l-243 188 -112 111 -113 111 0 -15z"/>
<path d="M88470 96241 c124 -48 302 -120 395 -160 94 -40 177 -75 185 -78 l15
-6 -10 10 c-23 24 -761 323 -795 323 -8 -1 86 -40 210 -89z"/>
<path d="M86914 96274 l-31 -34 -119 -1 -119 0 -17 -7 -17 -7 132 0 132 0 15
10 c22 15 64 64 59 69 -3 3 -18 -11 -35 -30z"/>
<path d="M89416 96272 c-10 -20 -42 -73 -71 -117 l-53 -80 -42 -34 c-23 -18
-39 -35 -36 -38 2 -3 24 10 47 28 l41 34 38 55 c41 60 104 180 97 186 -2 2
-11 -13 -21 -34z"/>
<path d="M18352 94589 l5 -14 179 -132 c98 -73 182 -132 187 -133 4 0 7 6 7
13 l0 12 -180 130 c-99 72 -185 132 -191 134 l-11 4 4 -14z"/>
<path d="M98901 94237 c3 -4 98 -45 212 -91 l207 -85 0 9 0 8 -192 76 c-106
41 -202 78 -213 82 l-20 7 6 -6z"/>
<path d="M33097 93693 c-65 -86 -116 -158 -113 -160 2 -3 57 65 122 151 64 86
115 158 113 161 -3 2 -57 -66 -122 -152z"/>
<path d="M87451 93000 l-393 -400 -11 0 c-6 0 -60 32 -119 71 -60 40 -111 70
-114 67 -2 -3 50 -41 117 -84 l123 -78 403 409 403 410 79 -81 80 -80 14 8 c8
4 27 8 43 10 l29 2 38 -13 c21 -7 41 -11 44 -8 2 3 -20 13 -50 23 l-54 17 -30
-11 -30 -10 -74 74 -73 74 -16 0 -16 0 -393 -400z"/>
<path d="M20280 93249 l0 -10 193 -94 c105 -51 202 -96 215 -100 l22 -6 0 11
0 11 -62 26 c-35 15 -130 60 -211 100 -81 40 -150 73 -152 73 -3 0 -5 -5 -5
-11z"/>
<path d="M89530 92711 c8 -5 308 -102 665 -216 358 -114 657 -210 665 -213
l15 -5 -10 10 c-9 10 -1324 433 -1342 433 -4 0 -1 -4 7 -9z"/>
<path d="M22123 92583 l7 -6 7 6 6 7 -13 0 -13 0 6 -7z"/>
<path d="M22161 92571 c18 -12 340 -103 345 -98 3 3 -188 61 -346 104 l-15 5
16 -11z"/>
<path d="M22295 92493 c13 -13 385 -116 392 -110 3 3 -15 11 -38 17 -24 6
-107 29 -184 51 -77 22 -149 43 -160 46 l-20 5 10 -9z"/>
<path d="M22523 92463 l7 -6 7 6 6 7 -13 0 -13 0 6 -7z"/>
<path d="M22563 92453 l7 -6 7 6 6 7 -13 0 -13 0 6 -7z"/>
<path d="M22598 92443 l13 -5 6 6 6 6 -19 -1 -19 -1 13 -5z"/>
<path d="M22633 92433 l7 -6 7 6 6 7 -13 0 -13 0 6 -7z"/>
<path d="M22668 92423 l13 -5 6 6 6 6 -19 -1 -19 -1 13 -5z"/>
<path d="M92211 92358 c-42 -101 -93 -239 -89 -244 3 -2 29 57 58 132 l53 136
12 5 13 4 52 -26 c60 -30 100 -46 100 -40 0 3 -31 21 -70 40 l-70 35 -20 0
-21 0 -18 -42z"/>
<path d="M92406 92281 c5 -6 70 -38 144 -71 74 -34 151 -71 170 -82 19 -12 50
-30 68 -40 l32 -20 0 9 c0 12 -114 73 -279 150 -136 64 -152 70 -135 54z"/>
<path d="M92115 92013 l-31 -78 -23 -11 -23 -12 -125 44 c-69 25 -128 42 -131
40 -3 -3 1 -8 9 -10 8 -3 67 -24 133 -47 l118 -41 25 11 24 11 15 36 c8 19 23
57 34 84 l20 50 -8 0 c-4 0 -21 -35 -37 -77z"/>
<path d="M25906 91721 l-5 -8 147 -43 c148 -44 252 -69 285 -70 l17 0 0 9 0 8
-62 12 c-35 7 -131 32 -214 57 -167 49 -161 47 -168 35z"/>
<path d="M94585 91188 l-20 -9 -22 -34 -22 -33 12 -5 12 -4 36 38 35 39 -5 8
-6 9 -20 -9z"/>
<path d="M94793 90952 c-24 -24 -43 -48 -43 -53 0 -20 25 -7 66 35 24 24 44
48 44 55 l0 11 -12 -1 c-7 -1 -32 -22 -55 -47z"/>
<path d="M95400 90491 c0 -10 419 -186 426 -179 3 3 -46 27 -108 53 -62 26
-159 67 -215 91 l-103 43 0 -8z"/>
<path d="M30745 90230 c3 -5 8 -10 11 -10 3 0 2 5 -1 10 -3 6 -8 10 -11 10 -3
0 -2 -4 1 -10z"/>
<path d="M30755 90141 l30 -30 205 -82 c205 -82 358 -131 438 -142 l42 -5 -6
9 -5 9 -22 0 c-12 0 -65 12 -117 26 l-95 26 -215 85 -215 86 -26 23 c-14 13
-29 24 -34 24 l-10 0 30 -29z"/>
<path d="M30841 90137 c3 -4 34 -17 70 -31 35 -13 88 -33 117 -45 l52 -21 0 8
c0 5 -156 67 -230 90 l-15 5 6 -6z"/>
<path d="M93895 89710 c82 -82 154 -150 160 -150 5 0 -58 68 -140 150 -82 83
-154 150 -160 150 -5 0 58 -67 140 -150z"/>
<path d="M86795 88970 c11 -5 72 -16 135 -25 63 -9 162 -28 219 -41 57 -14
106 -23 108 -20 5 5 -14 10 -132 40 -55 13 -322 57 -342 55 -4 0 1 -4 12 -9z"/>
<path d="M85006 88378 c-159 -315 -367 -721 -462 -903 l-173 -330 -67 -155
c-37 -85 -70 -159 -74 -163 l-7 -8 -257 71 c-241 66 -286 76 -275 66 3 -3 122
-37 264 -76 143 -39 265 -72 271 -74 l11 -4 73 166 c88 201 112 249 325 652
189 359 666 1311 663 1322 -2 5 -133 -250 -292 -564z"/>
<path d="M55625 88930 l-6 -10 9 -17 c14 -26 40 -210 47 -335 l7 -107 14 6 15
6 -6 106 c-7 121 -31 293 -47 334 -11 28 -22 34 -33 17z"/>
<path d="M84820 88835 c-30 -7 -124 -28 -209 -46 l-155 -33 12 -4 c16 -5 404
78 417 89 l9 9 -9 -1 c-6 0 -35 -7 -65 -14z"/>
<path d="M84325 88773 c-38 -7 -110 -20 -160 -28 l-90 -14 75 5 75 5 115 23
115 24 -30 0 c-16 0 -61 -7 -100 -15z"/>
<path d="M88692 88575 c25 -25 670 -245 719 -245 l19 0 48 -42 c26 -23 60 -54
76 -68 l29 -25 -4 12 c-2 7 -35 39 -74 72 l-70 60 -30 6 c-63 13 -475 146
-585 190 -107 42 -141 52 -128 40z"/>
<path d="M78970 88441 c0 -5 8 -11 18 -14 9 -3 108 -37 219 -75 l203 -71 5 8
5 8 -218 77 c-119 42 -220 76 -225 76 -4 0 -7 -4 -7 -9z"/>
<path d="M79855 88190 l-5 -8 33 -12 c143 -52 372 -130 378 -130 5 0 9 4 9 8
l0 8 -62 21 c-35 11 -127 43 -205 71 l-143 51 -5 -9z"/>
<path d="M89554 88155 c3 -11 24 -103 46 -204 36 -166 50 -217 50 -183 0 7
-19 96 -41 199 l-41 188 -10 10 -10 10 6 -20z"/>
<path d="M83820 87703 c-17 -92 -180 -820 -295 -1316 l-13 -58 11 4 11 3 123
535 c106 463 203 910 203 940 0 5 -4 9 -9 9 l-9 0 -22 -117z"/>
<path d="M84541 87385 c-1 -5 -33 -71 -72 -145 -39 -74 -103 -207 -143 -295
l-72 -160 -19 -3 -20 -2 -267 73 c-148 41 -268 71 -268 67 0 -3 129 -41 286
-84 l287 -78 8 14 c5 7 39 81 75 163 37 83 100 214 141 292 l75 143 -5 12 -5
13 -1 -10z"/>
<path d="M82792 87158 l4 -12 195 -69 c107 -38 292 -104 412 -147 l217 -77 0
11 0 11 -188 67 c-103 36 -288 103 -411 147 -123 45 -226 81 -228 81 -3 0 -3
-5 -1 -12z"/>
<path d="M36725 87000 c3 -5 8 -10 11 -10 3 0 2 5 -1 10 -3 6 -8 10 -11 10 -3
0 -2 -4 1 -10z"/>
<path d="M36765 86970 c3 -5 8 -10 11 -10 3 0 2 5 -1 10 -3 6 -8 10 -11 10 -3
0 -2 -4 1 -10z"/>
<path d="M83192 86960 l4 -13 50 -18 c27 -9 106 -37 176 -62 l127 -46 6 8 5 9
-168 60 c-92 33 -175 64 -186 68 l-19 7 5 -13z"/>
<path d="M36790 86956 c0 -2 8 -10 18 -17 l17 -14 -14 18 c-13 16 -21 21 -21
13z"/>
<path d="M36832 86924 c4 -5 28 -25 54 -44 26 -18 45 -29 42 -24 -4 5 -28 25
-54 44 -26 18 -45 29 -42 24z"/>
<path d="M36965 86826 c37 -33 261 -190 278 -195 14 -4 -84 69 -158 118 -27
18 -72 49 -100 68 l-50 35 30 -26z"/>
<path d="M83570 86844 c0 -37 -197 -865 -221 -929 -21 -56 -23 -65 -11 -65 l8
0 22 63 c38 110 222 874 222 922 l0 15 -10 0 c-5 0 -10 -3 -10 -6z"/>
<path d="M79077 86164 l-38 -216 6 -6 c3 -3 7 -3 9 -1 4 4 76 407 76 427 0 6
-3 12 -8 12 l-8 0 -37 -216z"/>
<path d="M71256 85882 c10 -40 143 -358 144 -345 0 15 -116 307 -136 343 l-15
25 7 -23z"/>
<path d="M71614 85115 c27 -75 160 -385 163 -381 6 6 -146 377 -160 391 l-10
10 7 -20z"/>
<path d="M80135 84878 c-3 -7 -29 -86 -59 -176 l-55 -163 17 -6 c9 -3 22 -8
27 -10 6 -3 1 3 -10 11 l-19 16 56 170 c31 94 54 170 52 170 -3 0 -7 -6 -9
-12z"/>
<path d="M82699 84637 l-33 -22 -10 -33 -9 -33 11 -11 11 -11 6 25 7 26 29 27
28 28 46 -1 45 0 0 8 c0 12 -27 20 -64 20 l-33 0 -34 -23z"/>
<path d="M89725 84513 l10 -11 222 -62 222 -62 12 4 12 4 -229 64 c-126 35
-236 65 -244 68 l-15 5 10 -10z"/>
<path d="M80090 84474 c53 -25 406 -146 395 -136 -9 8 -374 139 -415 149 -8 2
1 -4 20 -13z"/>
<path d="M64360 84437 c0 -13 123 -342 131 -351 l9 -10 0 12 c0 17 -120 336
-131 347 -5 5 -9 6 -9 2z"/>
<path d="M24350 84007 l0 -12 213 -93 c116 -51 215 -92 220 -92 4 0 7 4 7 9
l0 9 -167 72 c-93 41 -192 84 -220 97 l-53 23 0 -13z"/>
<path d="M13300 83682 l0 -9 188 -41 c103 -22 204 -43 225 -47 l37 -6 0 10 0
9 -42 7 c-24 4 -121 25 -217 46 -190 43 -191 43 -191 31z"/>
<path d="M77490 83622 c0 -12 788 -282 825 -282 l9 0 -9 9 c-6 5 -86 32 -180
61 -148 46 -538 177 -617 209 l-28 11 0 -8z"/>
<path d="M77045 83347 c-60 -94 -116 -183 -124 -197 l-16 -24 12 7 c15 9 247
377 241 382 -3 3 -53 -73 -113 -168z"/>
<path d="M47172 83369 l4 -13 205 -33 c112 -18 214 -32 227 -33 l22 0 0 8 0 8
-212 33 c-117 18 -221 35 -232 38 l-18 5 4 -13z"/>
<path d="M93006 83139 c-70 -100 -125 -184 -122 -186 2 -2 61 77 131 177 70
100 125 184 122 186 -3 3 -62 -77 -131 -177z"/>
<path d="M92542 82405 c-85 -119 -134 -198 -110 -175 5 4 141 194 207 288 l22
32 -8 0 c-4 0 -54 -65 -111 -145z"/>
<path d="M97530 80918 c0 -2 6 -21 13 -43 l12 -40 54 -88 54 -88 36 -28 c38
-29 120 -65 129 -57 3 3 -17 15 -44 26 l-49 21 -33 32 -33 32 -55 86 -54 86
-6 32 -6 31 -9 0 c-5 0 -9 -1 -9 -2z"/>
<path d="M95507 80503 c-130 -184 -233 -333 -228 -331 14 4 473 649 469 657
-2 4 -110 -143 -241 -326z"/>
<path d="M95538 80478 c-130 -183 -234 -335 -232 -337 5 -6 -19 -39 247 337
130 182 232 332 228 332 -4 0 -114 -150 -243 -332z"/>
<path d="M98906 79561 c-13 -20 -358 -777 -363 -796 l-6 -20 6 5 c3 3 87 185
187 404 100 220 183 403 186 408 3 4 3 8 0 8 -3 0 -7 -4 -10 -9z"/>
<path d="M42355 79550 l-30 -8 33 -1 32 -1 0 10 c0 6 -1 9 -2 9 -2 -1 -16 -5
-33 -9z"/>
<path d="M65915 79169 l-4 -6 192 -12 c106 -6 212 -14 237 -16 l45 -5 -20 9
-20 10 -213 13 -214 13 -3 -6z"/>
<path d="M32525 79058 c-16 -6 -86 -34 -155 -63 -69 -29 -143 -58 -165 -65
-22 -7 -43 -15 -48 -17 l-7 -4 5 -9 6 -9 92 33 c151 56 327 130 327 138 0 10
-18 9 -55 -4z"/>
<path d="M99201 78225 c-29 -86 -51 -158 -49 -161 7 -6 111 293 106 306 -2 6
-27 -60 -57 -145z"/>
<path d="M25536 76081 l-6 -10 52 -10 c29 -6 128 -26 221 -45 l167 -33 5 8 5
8 -17 5 c-10 2 -101 21 -203 41 -102 20 -192 38 -202 41 l-16 5 -6 -10z"/>
<path d="M26420 75901 c0 -6 1 -11 3 -11 2 0 93 -18 202 -40 204 -41 235 -45
235 -32 l0 7 -203 39 c-111 22 -210 41 -219 44 l-18 4 0 -11z"/>
<path d="M60676 75568 c2 -18 13 -123 24 -232 11 -110 21 -200 23 -202 1 -2 8
0 15 5 l12 7 -20 205 c-12 112 -23 214 -26 227 l-4 22 -15 0 -14 0 5 -32z"/>
<path d="M6640 74941 l0 -9 48 -6 c26 -3 117 -13 202 -21 85 -8 167 -17 183
-20 l27 -4 0 14 0 15 -17 0 c-10 0 -99 9 -198 20 -99 11 -195 20 -212 20 l-33
0 0 -9z"/>
<path d="M64450 74903 l0 -10 158 -7 c86 -3 190 -9 230 -13 l72 -6 0 10 0 10
-72 6 c-40 4 -144 9 -230 13 l-158 7 0 -10z"/>
<path d="M31050 74840 l0 -9 68 -20 c37 -11 134 -41 217 -65 l150 -45 8 8 9 9
-83 25 c-388 118 -369 112 -369 97z"/>
<path d="M34128 73924 c-3 -3 53 -66 126 -141 l131 -135 38 -19 38 -20 10 7
11 6 -49 28 -49 28 -103 108 c-109 114 -145 147 -153 138z"/>
<path d="M36530 73303 c0 -3 6 -14 13 -22 8 -9 23 -43 34 -76 l21 -60 18 -147
17 -148 9 0 8 0 0 23 c-1 12 -9 85 -19 162 l-19 140 -22 55 c-12 30 -26 61
-32 67 -11 14 -28 17 -28 6z"/>
<path d="M25580 71921 l0 -9 33 -6 c49 -9 262 -34 350 -41 l77 -7 0 15 0 14
-102 7 c-57 4 -150 14 -207 21 -58 8 -115 15 -128 15 l-23 0 0 -9z"/>
<path d="M73000 70832 l0 -8 113 -27 112 -27 120 -9 c66 -5 122 -7 124 -5 13
12 -21 18 -132 26 l-122 9 -98 25 c-107 26 -117 28 -117 16z"/>
<path d="M74398 70675 l-6 -80 19 -110 c24 -138 29 -158 34 -153 3 2 -2 42
-11 89 l-16 84 -7 125 -6 125 -7 -80z"/>
<path d="M20440 69130 c-109 -17 -720 -147 -729 -156 -2 -2 -2 -7 1 -10 l6 -5
324 70 323 71 123 16 122 17 0 8 0 9 -27 -1 c-16 -1 -80 -9 -143 -19z"/>
<path d="M72120 68755 c-151 -40 -304 -83 -340 -96 l-65 -22 -75 -56 c-41 -30
-77 -57 -79 -58 -2 -2 -2 -5 1 -8 2 -3 37 20 77 49 l73 55 86 31 c48 18 209
63 357 102 149 38 272 72 274 74 13 12 -62 -5 -309 -71z"/>
<path d="M71295 68510 c-208 -48 -218 -50 -213 -56 3 -2 84 14 181 36 190 43
217 46 250 28 l22 -11 -13 15 -13 16 -27 4 -27 4 -160 -36z"/>
<path d="M85544 68309 c-14 -15 -284 -246 -323 -276 -2 -2 -2 -5 1 -8 5 -5
331 266 343 285 13 21 -2 20 -21 -1z"/>
<path d="M18865 68208 c-9 -29 -33 -84 -52 -123 l-35 -70 -76 -72 -77 -71 7
-7 7 -7 75 67 75 68 40 76 c21 42 44 95 51 119 6 24 14 50 17 58 l5 14 -10 0
-10 0 -17 -52z"/>
<path d="M94165 67961 l40 -6 29 -212 29 -213 7 0 6 0 -28 208 c-16 114 -31
213 -33 220 l-4 12 -43 -1 -43 -2 40 -6z"/>
<path d="M41305 67728 c-38 -105 -71 -209 -75 -229 l-7 -37 14 5 13 5 0 22 c0
11 31 109 69 216 l70 195 -8 8 -8 8 -68 -193z"/>
<path d="M41356 67708 c-37 -105 -70 -206 -73 -224 l-6 -34 12 0 11 0 0 20 c0
11 32 109 70 217 l70 197 -7 7 -8 8 -69 -191z"/>
<path d="M91893 67576 c-146 -19 -185 -28 -172 -40 2 -2 96 7 207 21 l204 26
39 -12 39 -12 16 -31 16 -32 30 -205 c16 -113 32 -208 34 -210 2 -2 7 -2 10 1
l5 6 -30 211 -31 211 -15 30 -15 30 -36 15 -36 15 -52 -1 c-28 -1 -124 -11
-213 -23z"/>
<path d="M86312 67048 c-89 -78 -160 -143 -158 -145 4 -5 336 275 336 283 0
13 -30 -11 -178 -138z"/>
<path d="M92250 67058 c1 -36 67 -459 73 -464 15 -15 14 7 -8 151 -12 83 -28
189 -35 238 l-12 87 -9 0 c-5 0 -9 -6 -9 -12z"/>
<path d="M33783 66452 c-50 -86 -117 -206 -148 -265 l-57 -108 5 -46 5 -45 33
-33 34 -32 195 -83 195 -84 108 -32 107 -32 0 7 0 8 -82 22 -83 23 -219 93
-219 94 -31 31 -31 30 1 48 1 47 81 149 c45 82 82 151 82 152 0 2 27 49 61
104 34 56 59 103 57 105 -2 3 -45 -66 -95 -153z"/>
<path d="M74670 66484 c0 -16 179 -437 191 -449 6 -5 -4 24 -22 65 -17 41 -63
147 -100 235 -37 88 -68 155 -69 149z"/>
<path d="M45280 66452 c13 -9 814 -348 880 -374 l25 -9 -10 10 c-11 11 -858
371 -890 378 l-20 4 15 -9z"/>
<path d="M41274 66363 c4 -5 63 -44 131 -88 68 -44 198 -129 289 -188 l166
-109 11 4 11 4 -164 105 c-231 149 -438 279 -445 279 l-6 0 7 -7z"/>
<path d="M41596 66261 c5 -4 135 -92 289 -195 154 -102 309 -207 344 -233 l64
-47 -5 15 -4 14 -340 227 c-186 125 -343 228 -348 228 l-10 0 10 -9z"/>
<path d="M48705 66214 c73 -55 427 -296 430 -292 5 5 -429 308 -442 308 -4 0
1 -7 12 -16z"/>
<path d="M97266 66136 l-209 -51 -5 -14 -5 -14 24 6 c13 3 113 27 222 53 l197
48 0 13 c0 16 23 20 -224 -41z"/>
<path d="M97516 66143 c2 -10 22 -103 44 -208 l41 -190 65 -220 65 -220 11
-10 11 -10 -6 25 c-2 14 -33 120 -67 235 l-63 210 -42 199 -42 200 -11 4 -10
3 4 -18z"/>
<path d="M97466 66142 l-6 -10 40 -193 41 -194 59 -200 c32 -110 67 -218 76
-240 l18 -40 3 17 4 17 -10 18 c-5 10 -39 118 -74 238 l-66 220 -36 185 c-20
102 -38 186 -40 188 -2 2 -6 -1 -9 -6z"/>
<path d="M96510 66030 c-250 -48 -463 -89 -472 -91 l-17 -4 7 -10 7 -11 478
91 478 91 0 9 c0 6 -6 11 -13 12 -7 1 -218 -38 -468 -87z"/>
<path d="M94464 66075 c31 -202 59 -364 67 -380 l9 -20 -4 25 c-3 14 -16 102
-31 195 -14 94 -30 179 -35 190 l-10 20 4 -30z"/>
<path d="M41905 66010 l-18 -20 15 0 16 0 6 16 c10 25 1 27 -19 4z"/>
<path d="M49130 65906 c0 -9 340 -249 345 -244 3 3 -68 57 -157 120 -177 124
-188 132 -188 124z"/>
<path d="M46630 65842 c0 -6 367 -164 435 -188 l20 -7 -10 10 c-5 5 -73 36
-150 68 -77 32 -175 73 -217 91 -43 18 -78 30 -78 26z"/>
<path d="M47007 65518 c-112 -172 -110 -168 -103 -168 6 0 174 249 195 288 6
12 9 22 6 22 -3 0 -47 -64 -98 -142z"/>
<path d="M49860 65441 c0 -4 39 -35 88 -68 48 -34 127 -89 176 -123 48 -34 87
-57 85 -51 -5 13 -349 252 -349 242z"/>
<path d="M83880 65325 c0 -8 9 -38 20 -67 11 -28 40 -124 66 -212 26 -89 50
-168 55 -176 l8 -15 1 13 c0 28 -136 472 -146 472 -2 0 -4 -7 -4 -15z"/>
<path d="M33288 65055 l-5 -25 8 0 9 0 0 25 c0 14 -2 25 -4 25 -2 0 -6 -11 -8
-25z"/>
<path d="M74789 65024 c0 -5 -15 -222 -32 -481 l-33 -473 8 0 8 0 0 25 c0 14
14 229 30 477 l31 450 -6 6 -5 5 -1 -9z"/>
<path d="M31400 64896 c-53 -20 -203 -97 -198 -102 3 -2 54 19 114 47 l109 52
70 5 70 4 215 -26 c118 -15 227 -28 243 -31 l27 -4 0 7 0 8 -232 27 -233 28
-75 -1 -75 -1 -35 -13z"/>
<path d="M35032 64894 c4 -3 75 -16 160 -29 84 -13 195 -33 246 -43 l92 -19 0
6 c0 11 -440 91 -497 91 l-6 0 5 -6z"/>
<path d="M32513 64794 c3 -4 78 -19 166 -34 l161 -29 33 10 33 9 25 26 24 27
-24 -14 c-13 -8 -33 -20 -45 -26 l-21 -13 -30 0 c-16 0 -95 11 -175 25 -165
28 -155 27 -147 19z"/>
<path d="M51980 64787 c0 -3 44 -36 98 -73 53 -37 132 -92 175 -121 42 -30 77
-51 77 -46 0 7 -319 233 -341 241 -5 2 -9 1 -9 -1z"/>
<path d="M37180 64720 l0 -20 11 0 c14 0 383 -48 422 -55 l27 -4 0 19 0 20
-22 4 c-26 6 -410 56 -427 56 l-11 0 0 -20z"/>
<path d="M70768 64453 c65 -131 150 -311 188 -400 38 -89 71 -160 73 -158 12
13 -356 795 -374 795 -3 0 48 -107 113 -237z"/>
<path d="M47783 64543 c11 -10 422 -181 426 -177 2 2 2 5 0 7 -8 6 -419 177
-425 177 l-7 0 6 -7z"/>
<path d="M1441 64511 l-13 -8 16 -6 15 -6 40 -78 c22 -43 52 -91 66 -107 l26
-28 6 5 5 6 -30 38 c-16 21 -46 70 -65 110 -20 39 -40 74 -45 77 l-8 5 -13 -8z"/>
<path d="M76974 64381 c3 -68 6 -175 6 -238 l0 -113 8 0 7 0 -3 228 -4 227
-10 10 -11 10 7 -124z"/>
<path d="M77173 64306 c4 -95 10 -187 13 -205 l7 -31 9 0 10 0 -6 28 c-3 15
-9 107 -12 205 l-7 177 -10 0 -10 0 6 -174z"/>
<path d="M34946 64349 c-15 -47 -76 -456 -76 -508 0 -41 10 8 25 115 8 67 26
183 40 260 13 76 22 140 20 143 -3 2 -7 -2 -9 -10z"/>
<path d="M40606 64148 c-14 -18 -23 -34 -20 -37 4 -5 27 21 45 52 16 28 2 20
-25 -15z"/>
<path d="M40597 64064 l-18 -24 11 -20 c15 -28 209 -244 223 -249 l12 -4 -31
34 c-109 120 -194 220 -194 230 0 5 5 19 11 31 15 29 7 30 -14 2z"/>
<path d="M78490 64033 c-102 -13 -187 -26 -189 -29 -2 -2 -2 -7 1 -10 l6 -5
216 27 216 28 0 8 0 8 -32 -1 c-18 -1 -116 -12 -218 -26z"/>
<path d="M78050 63928 c-102 -11 -187 -21 -189 -24 -2 -2 -2 -7 1 -10 l6 -6
204 21 c112 12 212 21 221 21 l18 0 -6 10 -6 10 -32 -1 c-18 -1 -115 -10 -217
-21z"/>
<path d="M36880 63885 c0 -2 -18 -127 -40 -276 -22 -150 -38 -274 -35 -277 8
-9 14 19 50 263 19 132 38 252 41 268 l6 27 -11 0 c-6 0 -11 -2 -11 -5z"/>
<path d="M51515 63760 c11 -4 104 -44 208 -88 103 -44 187 -77 187 -73 0 9
-381 171 -400 170 l-15 0 20 -9z"/>
<path d="M76700 63758 l-75 -9 -168 3 -167 3 0 -6 c0 -4 7 -10 16 -13 l16 -6
176 0 177 1 72 8 72 9 43 -8 c24 -5 51 -12 62 -16 l19 -7 -5 13 -4 14 -50 13
c-55 14 -77 14 -184 1z"/>
<path d="M2260 63691 c0 -10 303 -283 322 -290 l11 -3 -4 10 c-4 11 -316 292
-325 292 -2 0 -4 -4 -4 -9z"/>
<path d="M89698 63343 l-180 -178 -203 -235 c-210 -244 -299 -357 -522 -670
l-132 -184 5 -8 c3 -4 9 -8 13 -8 5 0 73 91 152 203 219 309 300 413 516 662
l200 230 181 177 180 177 -6 5 c-13 14 -35 -4 -204 -171z"/>
<path d="M16357 63315 l-17 -36 0 -39 0 -40 29 -32 29 -33 7 7 7 7 -26 31 -26
32 0 31 1 32 14 25 c8 14 14 31 15 38 0 23 -16 12 -33 -23z"/>
<path d="M41987 63280 c46 -61 225 -261 231 -256 2 3 -37 52 -88 108 -51 57
-107 122 -124 145 -17 23 -35 42 -39 43 -5 0 4 -18 20 -40z"/>
<path d="M16703 63219 c5 -57 11 -78 21 -68 3 2 2 32 -1 67 l-6 62 -10 0 -10
0 6 -61z"/>
<path d="M32543 63234 c6 -6 370 -54 411 -54 11 0 17 2 15 5 -4 3 -401 55
-426 55 l-6 0 6 -6z"/>
<path d="M45537 63019 c-59 -99 -103 -179 -98 -177 6 1 55 78 109 170 55 92
103 171 107 177 l6 11 -8 0 c-4 0 -56 -82 -116 -181z"/>
<path d="M40797 63145 l-19 -13 133 -149 c72 -81 142 -158 154 -171 l21 -23
17 7 c9 3 17 9 17 13 0 4 -68 83 -151 176 -83 94 -152 171 -153 172 0 1 -9 -5
-19 -12z"/>
<path d="M16710 63055 l0 -45 10 0 10 0 0 45 0 45 -10 0 -10 0 0 -45z"/>
<path d="M42250 63044 c0 -10 262 -305 267 -300 5 4 -255 306 -263 306 -2 0
-4 -3 -4 -6z"/>
<path d="M89270 62929 c-50 -50 -89 -93 -86 -96 2 -3 38 29 78 70 90 91 113
117 105 117 -4 0 -47 -41 -97 -91z"/>
<path d="M16720 62919 l0 -30 10 6 10 6 0 25 0 24 -10 0 -10 0 0 -31z"/>
<path d="M17980 62943 c-25 -1 -207 -7 -404 -13 l-360 -10 -10 -11 -11 -12 30
7 c17 3 210 10 430 16 l399 10 10 10 10 10 -24 -2 c-14 -1 -45 -3 -70 -5z"/>
<path d="M59041 62936 c3 -3 85 -12 184 -20 99 -9 200 -19 225 -22 l45 -6 -10
10 -10 9 -205 17 c-220 18 -236 18 -229 12z"/>
<path d="M16312 62895 l7 -8 163 -6 c90 -4 165 -6 167 -4 14 10 -25 14 -175
20 l-169 5 7 -7z"/>
<path d="M16670 62800 l0 -90 10 0 10 0 0 90 0 90 -10 0 -10 0 0 -90z"/>
<path d="M90830 62875 c0 -6 68 -78 150 -160 83 -82 150 -145 150 -140 0 6
-67 78 -150 160 -82 82 -150 145 -150 140z"/>
<path d="M94170 62861 l0 -8 220 -80 220 -80 0 12 0 12 -210 77 c-217 78 -230
82 -230 67z"/>
<path d="M58430 62725 l-165 -114 -17 5 -18 5 5 -13 4 -13 -224 -180 c-124
-99 -225 -184 -225 -188 0 -5 21 9 48 30 26 21 125 100 220 177 l172 138 172
-72 c95 -40 188 -79 206 -87 l34 -14 -6 9 c-3 5 -90 44 -193 87 -103 43 -190
80 -192 82 -3 2 0 7 5 12 l9 9 190 -79 c105 -43 194 -78 199 -76 5 2 -76 38
-180 81 -104 43 -190 79 -192 81 -1 1 68 51 155 110 87 59 162 112 168 116 l9
9 -9 0 c-6 0 -84 -52 -175 -115z"/>
<path d="M12630 62810 c-245 -11 -535 -31 -540 -37 l-5 -6 120 6 c66 4 239 12
385 18 l265 11 10 9 9 9 -44 -2 c-25 -1 -115 -4 -200 -8z"/>
<path d="M94156 62813 l-7 -7 211 -78 c116 -43 219 -78 228 -78 l16 0 -9 9
c-8 6 -419 161 -429 161 -1 0 -6 -3 -10 -7z"/>
<path d="M94600 62617 c-24 -54 -100 -275 -100 -289 0 -4 4 -8 8 -8 l8 0 33
103 c18 56 46 132 62 169 l28 68 -8 5 -9 5 -22 -53z"/>
<path d="M89022 62421 c2 -5 81 -75 176 -156 l174 -146 11 4 11 3 -180 152
c-98 84 -183 152 -187 152 l-9 0 4 -9z"/>
<path d="M88992 62380 l4 -15 374 -317 375 -316 8 5 9 5 -14 13 c-16 15 -715
604 -742 625 l-19 15 5 -15z"/>
<path d="M56760 62146 c0 -12 557 -252 566 -244 2 3 -119 57 -269 122 -149 64
-278 119 -284 122 l-13 6 0 -6z"/>
<path d="M94260 61868 l-85 -103 -343 -348 -342 -349 5 -8 5 -8 329 332 329
331 101 120 c55 66 101 123 101 128 0 20 -23 -2 -100 -95z"/>
<path d="M17660 61941 c0 -5 48 -37 108 -72 59 -35 132 -82 163 -106 30 -24
58 -43 62 -43 35 0 -62 76 -211 163 -118 70 -122 72 -122 58z"/>
<path d="M37870 61871 l0 -8 63 -7 c63 -8 316 -52 352 -62 l20 -6 -10 9 c-12
12 -131 37 -275 58 -58 9 -115 18 -127 21 l-23 4 0 -9z"/>
<path d="M57320 61862 c0 -10 470 -214 482 -210 l10 4 -64 26 c-34 15 -145 62
-245 107 -101 44 -183 77 -183 73z"/>
<path d="M58451 61848 c-5 -13 -43 -101 -85 -197 -43 -95 -76 -177 -74 -182 2
-5 41 78 87 184 46 105 89 195 95 199 l11 8 102 0 101 0 83 -35 c45 -20 87
-34 92 -32 l10 3 -89 37 -89 37 -118 0 -117 0 -9 -22z"/>
<path d="M93736 61401 l-297 -297 7 -7 7 -7 131 128 c72 71 207 205 299 299
l168 171 -8 5 -9 6 -298 -298z"/>
<path d="M16393 61343 c-28 -60 -74 -150 -102 -200 l-51 -93 8 0 c9 0 148 256
186 343 l25 57 -7 0 c-4 0 -31 -48 -59 -107z"/>
<path d="M54550 61374 c0 -17 210 -928 215 -933 11 -10 1 35 -100 475 -92 404
-115 494 -115 458z"/>
<path d="M54511 61365 c0 -5 49 -221 108 -480 60 -258 110 -461 110 -450 1 11
-44 218 -99 460 -90 393 -118 502 -119 470z"/>
<path d="M57870 61335 c0 -9 252 -410 267 -425 l16 -15 -8 15 c-19 37 -267
430 -271 430 -2 0 -4 -2 -4 -5z"/>
<path d="M54243 61303 l7 -6 7 6 6 7 -13 0 -13 0 6 -7z"/>
<path d="M92452 61292 c2 -5 77 -80 168 -169 l166 -160 63 -37 64 -37 119 -46
c65 -25 121 -43 123 -41 3 2 -55 29 -128 58 l-132 54 -65 44 -65 44 -150 149
c-134 133 -174 168 -163 141z"/>
<path d="M54113 61273 l7 -6 7 6 6 7 -13 0 -13 0 6 -7z"/>
<path d="M54023 61253 l7 -6 7 6 6 7 -13 0 -13 0 6 -7z"/>
<path d="M58710 61251 c0 -3 64 -34 143 -68 78 -34 168 -73 200 -87 l57 -26 0
8 c0 4 -90 46 -200 94 -110 47 -200 83 -200 79z"/>
<path d="M53983 61243 l7 -6 7 6 6 7 -13 0 -13 0 6 -7z"/>
<path d="M53938 61233 l13 -5 6 6 6 6 -19 -1 -19 -1 13 -5z"/>
<path d="M53893 61223 l7 -6 7 6 6 7 -13 0 -13 0 6 -7z"/>
<path d="M53853 61213 l7 -6 7 6 6 7 -13 0 -13 0 6 -7z"/>
<path d="M53808 61203 l13 -5 6 6 6 6 -19 -1 -19 -1 13 -5z"/>
<path d="M53763 61193 l7 -6 7 6 6 7 -13 0 -13 0 6 -7z"/>
<path d="M61204 61123 c2 -10 28 -127 57 -260 29 -134 55 -241 57 -238 3 3
-19 120 -49 260 l-54 255 -8 0 -8 0 5 -17z"/>
<path d="M31200 60983 c0 -6 7 -77 16 -159 l16 -149 -6 -70 -5 -70 9 25 c4 14
8 54 9 90 1 72 -25 329 -33 338 l-6 5 0 -10z"/>
<path d="M60695 60796 l-80 -21 -103 -59 c-57 -32 -101 -60 -99 -62 2 -3 52
22 111 55 l107 59 89 22 c50 12 90 24 90 26 0 8 -37 2 -115 -20z"/>
<path d="M78261 60626 l-35 -12 10 -7 10 -6 65 11 64 11 155 -21 154 -22 10
10 c6 6 7 10 4 10 -3 0 -72 9 -153 20 -81 11 -171 20 -199 19 l-51 -1 -34 -12z"/>
<path d="M83215 60550 c-82 -48 -153 -94 -158 -102 l-9 -14 29 -47 29 -47 7 6
6 6 -24 37 c-14 19 -25 41 -25 47 l0 12 155 91 c141 83 170 103 148 100 -5 -1
-75 -41 -158 -89z"/>
<path d="M52402 60608 c4 -9 9 -36 13 -60 l7 -45 -25 -20 -25 -19 -129 -23
c-70 -13 -132 -28 -137 -32 l-10 -9 10 0 c5 1 71 14 148 29 l138 29 20 20 21
20 -7 56 -7 56 -11 6 -11 7 5 -15z"/>
<path d="M86255 60431 c77 -84 150 -165 162 -180 11 -14 24 -24 27 -21 6 7
-297 343 -315 349 -7 2 49 -65 126 -148z"/>
<path d="M86100 60551 c0 -5 57 -71 126 -147 70 -77 154 -173 188 -214 70 -86
293 -323 310 -329 6 -2 -36 46 -94 107 -58 62 -131 144 -163 183 -79 97 -367
411 -367 400z"/>
<path d="M62621 60365 c-63 -14 -253 -52 -423 -86 l-308 -62 0 -7 0 -6 413 83
c226 46 421 87 432 92 30 15 10 12 -114 -14z"/>
<path d="M43281 60366 l-13 -16 69 -77 c38 -43 197 -222 353 -398 156 -176
336 -375 399 -443 l115 -123 14 15 15 15 -93 98 c-52 54 -254 278 -448 498
-195 220 -365 410 -377 423 l-22 23 -12 -15z"/>
<path d="M59888 60217 l-167 -141 5 -8 5 -8 169 143 c154 130 184 158 163 156
-5 0 -83 -64 -175 -142z"/>
<path d="M62542 60310 c-100 -20 -185 -40 -189 -44 l-6 -6 20 0 c30 0 354 68
378 79 l20 10 -20 -1 c-11 0 -102 -17 -203 -38z"/>
<path d="M58642 60190 c-18 -4 -36 -10 -39 -14 l-6 -6 38 3 38 2 43 -80 c36
-66 147 -302 236 -503 11 -24 22 -42 24 -39 8 8 -289 650 -299 646 -1 -1 -17
-5 -35 -9z"/>
<path d="M61911 60188 c-1 -3 10 -57 23 -120 14 -62 45 -216 71 -343 39 -198
137 -633 151 -674 2 -8 6 -12 9 -10 2 2 -14 81 -36 174 -22 94 -57 258 -79
365 -87 431 -136 645 -139 608z"/>
<path d="M61215 60079 c-225 -48 -228 -49 -223 -55 5 -4 418 80 443 90 35 15
-66 -1 -220 -35z"/>
<path d="M59530 59979 c-85 -66 -162 -124 -170 -129 -8 -5 -13 -11 -10 -14 3
-2 86 56 184 130 l179 134 -14 -1 -14 0 -155 -120z"/>
<path d="M61428 60094 l-6 -9 34 -170 c43 -215 43 -215 53 -215 l9 0 -40 193
c-21 105 -40 196 -41 202 l-3 9 -6 -10z"/>
<path d="M61464 60083 c3 -10 21 -97 41 -193 20 -96 38 -177 42 -180 l6 -5 -6
30 c-3 17 -20 105 -38 198 l-33 167 -9 0 -8 0 5 -17z"/>
<path d="M61203 60036 l-191 -41 -9 -9 -8 -9 15 5 c8 3 102 22 208 44 l192 39
0 7 c0 10 22 14 -207 -36z"/>
<path d="M83370 59965 c0 -14 50 -101 128 -225 47 -74 140 -229 205 -345 147
-259 510 -946 527 -998 l12 -38 5 5 6 6 -18 47 c-53 142 -545 1046 -722 1326
-51 81 -102 165 -113 187 -18 36 -30 49 -30 35z"/>
<path d="M48971 59954 c0 -11 309 -247 315 -241 4 3 -65 58 -303 240 l-13 9 1
-8z"/>
<path d="M59225 59699 c-71 -55 -149 -111 -173 -126 -44 -26 -52 -44 -10 -22
39 20 339 249 326 248 -7 0 -71 -45 -143 -100z"/>
<path d="M48635 59487 c-144 -188 -158 -207 -148 -207 4 1 60 69 123 152 120
158 134 177 128 183 -1 2 -48 -56 -103 -128z"/>
<path d="M49429 59275 c-89 -119 -159 -218 -157 -221 6 -5 76 82 228 286 51
69 97 131 103 138 l9 12 -11 0 -11 0 -161 -215z"/>
<path d="M63755 59378 c4 -12 233 -1129 457 -2233 50 -247 93 -452 95 -454 1
-2 5 -2 9 1 l5 6 -92 443 c-50 244 -131 635 -180 869 -48 234 -132 640 -186
903 l-98 477 -7 0 -7 0 4 -12z"/>
<path d="M59875 59325 c-115 -23 -435 -86 -710 -140 -525 -102 -531 -103 -523
-110 3 -3 403 70 484 90 l21 5 37 -128 c69 -235 78 -263 83 -259 2 3 -21 90
-51 195 -31 104 -56 191 -56 194 0 2 9 4 19 5 31 3 945 184 950 189 10 10 -58
-1 -254 -41z"/>
<path d="M59390 59272 c-222 -44 -237 -48 -229 -56 6 -5 456 88 465 97 l7 7
-9 -1 c-5 -1 -110 -22 -234 -47z"/>
<path d="M61584 59280 c4 -14 37 -179 75 -368 l68 -342 -36 -9 c-286 -75 -353
-92 -355 -89 -2 3 -16 63 -67 306 -6 29 -13 51 -16 48 -4 -4 61 -338 73 -376
l5 -14 7 11 7 11 175 46 c96 25 186 47 200 50 l25 4 -4 13 c-2 8 -36 172 -75
366 -39 193 -75 355 -79 360 l-9 8 6 -25z"/>
<path d="M92164 59179 l-109 -122 -37 -61 -36 -61 5 -8 5 -9 48 74 47 73 102
112 c55 61 101 114 101 117 0 20 -30 -8 -126 -115z"/>
<path d="M45625 59149 l70 -70 124 -90 123 -90 6 6 6 6 -10 7 c-6 4 -62 44
-125 89 l-114 82 -65 65 c-35 36 -69 66 -74 66 l-10 0 69 -71z"/>
<path d="M50060 59106 c0 -17 626 -513 636 -503 3 2 -59 53 -138 113 -79 59
-220 172 -315 251 -158 131 -183 150 -183 139z"/>
<path d="M84010 58748 c0 -3 35 -71 77 -150 42 -78 87 -170 99 -203 l23 -60 0
16 c1 31 -26 94 -104 239 -72 135 -95 173 -95 158z"/>
<path d="M61535 58480 c-104 -27 -197 -53 -206 -58 -8 -5 -204 -49 -435 -96
-434 -90 -449 -94 -443 -100 2 -2 196 35 430 84 l426 88 19 11 c11 6 111 34
224 62 113 28 207 52 209 55 11 11 -48 -2 -224 -46z"/>
<path d="M63900 58475 c0 -10 24 -127 211 -1030 168 -812 158 -769 165 -763 5
6 -363 1788 -371 1796 -3 3 -5 2 -5 -3z"/>
<path d="M60393 58272 l-13 -8 35 0 35 0 -13 8 c-6 4 -16 8 -22 8 -5 0 -16 -4
-22 -8z"/>
<path d="M56287 58223 c-2 -4 -21 -78 -42 -165 l-37 -156 -17 -16 -18 -16
-448 -55 c-395 -49 -507 -65 -439 -65 10 0 217 25 458 55 l439 54 18 18 18 18
40 165 c36 150 42 187 28 163z"/>
<path d="M91790 58114 c1 -11 340 -247 346 -241 3 3 -68 55 -158 117 -90 62
-169 117 -175 123 l-13 9 0 -8z"/>
<path d="M63000 57966 c-107 -23 -287 -62 -400 -86 l-205 -44 -10 -9 -10 -9
20 5 c11 4 121 27 245 52 509 105 603 125 608 130 13 13 -69 0 -248 -39z"/>
<path d="M63363 57928 c4 -13 47 -219 97 -458 50 -239 93 -437 96 -439 2 -2 6
-2 9 1 l6 6 -91 433 c-50 239 -93 444 -97 457 l-5 22 -10 0 -10 0 5 -22z"/>
<path d="M91208 57610 l-187 -169 9 -6 9 -5 185 166 c168 150 202 185 179 183
-5 0 -92 -76 -195 -169z"/>
<path d="M46480 57713 c0 -5 9 -18 20 -28 l20 -18 0 10 c0 5 -9 18 -20 28
l-20 18 0 -10z"/>
<path d="M21842 57460 c-1 -30 -7 -112 -14 -182 l-12 -127 13 -15 13 -16 47 0
46 0 15 10 15 10 -50 -6 -50 -5 -19 14 -20 14 13 99 13 99 -4 80 -4 80 -2 -55z"/>
<path d="M38095 57220 l4 -65 -45 -150 c-24 -82 -47 -159 -50 -170 l-6 -20 10
10 c5 6 31 84 57 174 l47 164 -10 61 -11 61 4 -65z"/>
<path d="M61590 57225 c0 -5 18 -101 42 -212 l43 -203 7 0 7 0 -4 13 c-2 6
-22 98 -45 202 -22 105 -42 195 -44 200 l-4 10 -2 -10z"/>
<path d="M43259 57008 c-24 -17 -68 -51 -97 -76 l-52 -45 -35 -71 -35 -71 -7
-52 -6 -53 10 0 10 0 5 44 5 43 34 73 33 72 82 67 c46 36 93 74 106 83 l23 17
-16 1 -16 0 -44 -32z"/>
<path d="M25560 56937 c22 -22 781 -499 786 -494 4 4 -724 468 -786 502 l-15
8 15 -16z"/>
<path d="M25526 56911 c21 -20 419 -269 423 -265 2 2 2 5 0 7 -21 17 -420 267
-425 267 l-8 0 10 -9z"/>
<path d="M53915 56810 l-6 -9 221 -111 220 -110 0 13 0 12 -215 107 -214 108
-6 -10z"/>
<path d="M37337 56453 c-51 -153 -62 -191 -81 -276 l-7 -29 9 6 9 6 7 42 c4
24 34 125 67 226 34 101 59 186 56 188 -3 3 -30 -70 -60 -163z"/>
<path d="M82756 56413 c12 -54 35 -151 50 -215 15 -65 30 -118 34 -118 l7 0
-51 215 c-28 118 -53 215 -57 215 l-7 0 24 -97z"/>
<path d="M82744 56285 c28 -118 54 -215 58 -215 l6 0 -12 53 c-7 28 -30 125
-51 215 -21 89 -41 162 -45 162 -4 0 16 -97 44 -215z"/>
<path d="M56021 56458 c-5 -13 -28 -84 -51 -158 l-42 -135 -35 -60 c-19 -33
-55 -84 -80 -113 l-45 -52 4 -12 4 -11 56 66 57 67 35 72 35 73 45 143 44 142
-9 0 c-5 0 -13 -10 -18 -22z"/>
<path d="M26450 56403 c0 -8 331 -183 346 -183 12 0 -40 30 -208 118 -76 40
-138 69 -138 65z"/>
<path d="M64430 56242 l35 -17 3 -33 3 -34 -17 -19 -17 -19 -33 0 -33 0 -6 10
c-3 6 -12 10 -18 10 l-12 -1 24 -20 24 -20 31 7 31 6 23 21 23 22 -6 35 -6 35
-21 18 -20 17 -22 0 -21 0 35 -18z"/>
<path d="M64346 56231 l-18 -20 4 -11 3 -11 23 30 23 31 -9 0 c-5 0 -17 -9
-26 -19z"/>
<path d="M63695 56140 c-23 -10 -21 -11 23 -15 l33 -3 23 -21 c12 -11 25 -21
29 -21 l7 0 -11 24 -12 24 -22 6 c-13 3 -29 8 -37 10 -7 3 -22 1 -33 -4z"/>
<path d="M10202 55959 l-134 -89 -26 -6 c-15 -3 -36 -10 -47 -15 l-20 -9 40 7
c51 7 55 9 207 107 113 71 146 98 121 95 -5 0 -68 -41 -141 -90z"/>
<path d="M63635 56037 l-8 -18 12 -12 c15 -15 19 -7 11 23 l-7 25 -8 -18z"/>
<path d="M63772 55999 l-24 -29 15 0 c16 0 47 31 47 48 0 19 -14 13 -38 -19z"/>
<path d="M8572 55934 c3 -3 93 -12 199 -20 200 -14 275 -17 268 -10 -3 4 -417
36 -458 36 l-14 0 5 -6z"/>
<path d="M63062 55910 l0 -25 5 13 c2 6 2 18 0 25 l-5 12 0 -25z"/>
<path d="M63017 55900 c4 -17 23 -29 23 -16 0 12 -13 36 -20 36 l-8 0 5 -20z"/>
<path d="M8572 55894 c3 -3 93 -12 199 -20 201 -14 275 -17 268 -10 -3 4 -422
36 -463 36 l-9 0 5 -6z"/>
<path d="M9520 55832 l15 -10 211 -12 c116 -7 217 -11 224 -8 l14 4 -189 12
c-105 7 -212 15 -240 18 l-50 5 15 -9z"/>
<path d="M35992 55835 c3 -3 40 -16 82 -29 l76 -24 5 7 4 7 -74 22 c-74 22
-103 27 -93 17z"/>
<path d="M61840 55730 l0 -10 25 0 25 0 0 10 0 10 -25 0 -25 0 0 -10z"/>
<path d="M25991 55656 c2 -2 94 -69 205 -149 214 -154 324 -227 343 -227 6 0
39 -27 73 -60 34 -33 64 -57 67 -54 3 2 -22 32 -56 64 l-61 60 -15 0 c-20 0
-128 72 -351 233 -104 75 -193 137 -199 137 -6 0 -8 -2 -6 -4z"/>
<path d="M37186 55430 c-3 -22 -9 -57 -12 -78 l-5 -39 -19 -31 -19 -31 -95
-78 -94 -78 5 -8 4 -7 87 74 c142 120 145 125 157 244 7 76 1 100 -9 32z"/>
<path d="M12999 55290 l-185 -48 -40 -20 -39 -21 13 -1 c7 0 29 8 50 19 l37
18 175 43 c96 23 179 47 185 51 l9 9 -9 -1 c-6 0 -94 -22 -196 -49z"/>
<path d="M51107 55276 l-117 -13 -8 -8 -7 -8 55 8 c30 4 134 11 230 15 l175 7
-61 1 c-34 1 -81 4 -105 6 l-44 4 -118 -12z"/>
<path d="M26480 55190 l0 -13 7 6 6 7 -6 7 -7 6 0 -13z"/>
<path d="M55204 55148 l-7 -11 11 7 c12 7 16 16 8 16 -3 0 -8 -5 -12 -12z"/>
<path d="M55195 55103 c-3 -16 -38 -130 -77 -256 -39 -125 -69 -229 -67 -232
5 -5 143 427 154 483 l7 32 -6 0 c-3 0 -8 -12 -11 -27z"/>
<path d="M73785 55023 l-40 -56 -82 -75 c-46 -41 -83 -79 -83 -84 l0 -10 72
63 c99 88 141 133 167 179 l22 40 -8 0 c-4 -1 -26 -26 -48 -57z"/>
<path d="M52300 54963 c1 -11 50 -46 56 -40 3 3 -9 15 -25 27 l-31 21 0 -8z"/>
<path d="M52125 54742 l-140 -216 -123 -158 c-68 -87 -127 -160 -132 -163
l-10 -6 -62 53 c-143 120 -468 371 -474 366 -2 -3 62 -57 143 -121 82 -64 202
-160 268 -213 l120 -98 -2 -8 -3 -8 14 0 c7 0 25 -9 39 -20 39 -31 46 -23 8 9
l-35 28 35 44 c18 24 75 96 124 159 l91 115 134 205 c73 113 140 215 148 228
l14 22 -8 0 c-5 -1 -72 -98 -149 -218z"/>
<path d="M53202 54904 c-28 -48 -249 -383 -262 -397 l-7 -8 -279 190 c-153
105 -284 195 -291 201 l-12 10 -12 -22 c-7 -13 -57 -93 -112 -178 l-100 -155
-165 -218 c-91 -120 -162 -220 -160 -223 3 -2 84 100 179 228 l174 233 99 153
99 153 11 -3 c20 -5 555 -372 556 -381 0 -4 -27 -47 -59 -95 -32 -49 -127
-196 -211 -328 l-153 -239 -78 -102 -78 -103 9 0 c18 0 166 207 323 454 88
138 184 286 214 329 l55 77 7 -4 7 -5 0 17 0 17 114 171 c63 94 129 194 147
223 l32 51 -10 0 c-5 0 -22 -21 -37 -46z"/>
<path d="M53286 54930 c3 -14 7 -34 7 -45 l1 -20 -145 -220 c-632 -954 -640
-967 -680 -1084 -23 -65 -23 -67 -5 -52 l14 12 6 34 7 35 41 78 c22 42 140
229 262 414 l221 338 15 -3 c8 -2 120 -72 249 -156 128 -84 235 -150 237 -148
3 3 -362 246 -484 323 -2 1 63 101 143 222 l146 221 -21 38 -21 38 7 -25z"/>
<path d="M18248 54621 l-187 -27 -8 -8 -8 -8 35 6 c19 3 118 17 220 31 101 14
186 28 189 30 8 9 -54 3 -241 -24z"/>
<path d="M55018 54297 c-59 -182 -128 -402 -154 -487 -26 -85 -49 -156 -49
-158 -1 -1 -19 14 -39 33 -21 19 -42 35 -48 35 l-10 0 46 -42 46 -43 -60 -194
c-34 -106 -59 -195 -56 -198 5 -5 13 20 201 627 64 206 145 462 180 568 34
105 60 192 57 192 -4 0 -55 -150 -114 -333z"/>
<path d="M50121 54531 c-1 -7 4 -43 11 -80 l11 -66 24 -26 25 -27 46 -13 45
-13 134 -114 134 -115 -8 -7 c-4 -4 -132 -62 -283 -129 l-275 -122 -140 -74
c-77 -41 -134 -75 -126 -75 7 0 86 38 175 84 129 68 442 213 654 303 l32 13
-57 49 c-32 26 -98 82 -146 123 l-88 76 -45 12 -45 13 -23 28 -24 28 -7 53
c-4 29 -11 62 -16 73 l-8 20 0 -14z"/>
<path d="M88034 54391 c-12 -5 -31 -22 -43 -37 l-21 -27 0 -38 c0 -20 3 -44 6
-53 l6 -16 8 5 8 5 -5 44 -5 45 27 25 28 26 31 0 32 0 22 -16 22 -15 10 6 11
7 -24 18 -23 18 -35 6 -34 5 -21 -8z"/>
<path d="M51356 54269 c-54 -60 -96 -112 -94 -115 3 -2 49 45 103 106 54 61
96 113 93 115 -2 3 -48 -45 -102 -106z"/>
<path d="M5720 54199 l0 -14 216 -74 216 -73 9 9 10 10 -213 73 c-117 40 -219
75 -225 77 l-13 5 0 -13z"/>
<path d="M45696 54168 l-7 -43 11 -155 11 -155 15 -65 15 -65 34 -55 34 -55
78 -76 c43 -42 119 -107 168 -145 50 -37 127 -100 172 -138 l83 -69 51 -94
c29 -51 56 -93 60 -93 4 0 -17 44 -47 98 l-55 97 -42 38 c-23 21 -107 89 -187
152 l-145 114 -66 68 -66 68 -31 52 -31 51 -15 74 c-17 84 -31 272 -28 371 3
76 -2 87 -12 25z"/>
<path d="M51196 54111 l-17 -19 9 -6 9 -6 17 19 17 19 -9 6 -9 6 -17 -19z"/>
<path d="M50580 54112 c0 -9 111 -82 124 -82 15 0 4 18 -16 28 -13 6 -42 23
-65 37 l-43 26 0 -9z"/>
<path d="M31246 53918 l-7 -43 -84 -199 c-47 -110 -83 -202 -80 -204 2 -3 8 4
12 14 3 10 42 102 85 204 l79 185 6 43 c3 23 3 42 1 42 -3 0 -8 -19 -12 -42z"/>
<path d="M52000 53879 l85 -80 98 -71 c54 -39 100 -69 102 -66 3 2 -30 29 -72
59 -43 29 -124 96 -180 147 -57 50 -107 92 -111 92 -4 -1 31 -37 78 -81z"/>
<path d="M51410 53915 l-12 -15 10 0 c5 0 15 7 22 15 l12 15 -10 0 c-5 0 -15
-7 -22 -15z"/>
<path d="M23220 53801 c47 -51 113 -123 146 -159 34 -37 64 -65 67 -62 6 6
-269 303 -286 309 -6 2 26 -37 73 -88z"/>
<path d="M51410 53861 c0 -5 96 -88 213 -184 116 -96 228 -192 248 -213 56
-60 179 -214 207 -259 l25 -40 5 13 4 13 -27 40 c-39 59 -187 238 -232 280
-44 42 -432 359 -438 359 -3 0 -5 -4 -5 -9z"/>
<path d="M20714 53825 l-62 -24 -53 -3 c-30 -1 -101 1 -159 4 l-105 7 50 -10
50 -10 110 -2 110 -2 60 24 c33 13 64 28 70 33 l9 8 -9 -1 c-6 0 -38 -11 -71
-24z"/>
<path d="M13440 53831 c0 -10 323 -279 346 -288 l14 -5 0 8 c-1 8 -315 269
-346 287 l-14 8 0 -10z"/>
<path d="M54090 53783 c0 -12 298 -218 306 -211 2 3 -19 21 -48 40 -29 20 -99
68 -155 107 -57 40 -103 68 -103 64z"/>
<path d="M61246 53723 c-7 -24 -86 -457 -86 -474 0 -7 2 -10 5 -7 7 7 96 490
91 495 -2 3 -7 -4 -10 -14z"/>
<path d="M80901 53682 c-1 -19 101 -426 110 -436 6 -7 -93 407 -106 439 l-3
10 -1 -13z"/>
<path d="M67558 53517 c-120 -22 -218 -43 -218 -47 l0 -6 225 42 c124 23 229
44 232 48 l6 6 -14 -1 c-8 0 -112 -19 -231 -42z"/>
<path d="M48740 53478 c0 -25 195 -464 216 -487 2 -2 7 -2 10 1 l5 6 -54 108
c-30 60 -80 170 -112 244 -61 144 -65 152 -65 128z"/>
<path d="M51350 53460 l-15 -10 12 0 c6 0 15 5 18 10 8 12 4 12 -15 0z"/>
<path d="M51525 53278 c-44 -22 -91 -50 -103 -62 -24 -21 -56 -85 -48 -94 3
-2 11 11 19 29 20 47 48 70 152 122 l90 46 -15 0 c-8 0 -51 -18 -95 -41z"/>
<path d="M52448 53266 l-17 -24 -108 -7 -108 -8 20 -7 20 -7 90 9 90 10 13 11
c7 6 18 19 23 29 l10 18 -8 0 c-4 0 -16 -11 -25 -24z"/>
<path d="M12843 53036 c-62 -88 -132 -188 -156 -221 -23 -33 -71 -102 -106
-153 l-64 -93 9 -9 9 -9 80 117 c44 64 139 202 211 307 71 104 133 195 137
202 l7 12 -7 4 -8 5 -112 -162z"/>
<path d="M34798 53133 c-6 -42 -4 -48 11 -38 l11 6 0 35 0 34 -9 0 -9 0 -4
-37z"/>
<path d="M12845 52942 c-82 -119 -181 -261 -218 -314 l-68 -98 13 0 13 0 147
213 c81 116 179 258 218 315 l71 102 -13 0 -13 -1 -150 -217z"/>
<path d="M34675 53130 l-6 -10 10 0 c6 0 11 5 11 10 0 6 -2 10 -4 10 -3 0 -8
-4 -11 -10z"/>
<path d="M53211 52930 c-211 -109 -389 -204 -395 -211 l-11 -11 55 27 c30 15
211 108 402 206 l346 179 44 -5 43 -5 -20 9 c-11 5 -33 10 -50 10 l-30 0 -384
-199z"/>
<path d="M66453 53031 c-123 -25 -223 -49 -223 -52 0 -9 442 81 455 92 l9 9
-9 -1 c-6 -1 -110 -22 -232 -48z"/>
<path d="M50332 52952 c-117 -57 -211 -106 -209 -108 3 -4 416 192 426 202 20
20 -35 -4 -217 -94z"/>
<path d="M14560 53003 c1 -15 90 -74 239 -157 l151 -85 5 9 5 8 -148 83 c-81
45 -167 97 -191 116 -43 32 -61 40 -61 26z"/>
<path d="M14530 52961 c0 -5 17 -23 38 -39 42 -34 336 -202 353 -202 l10 0 -5
9 c-3 5 -71 45 -150 90 -79 44 -165 96 -190 116 -49 37 -56 40 -56 26z"/>
<path d="M51456 52889 l-6 -31 -90 -41 c-49 -23 -90 -45 -90 -50 l0 -7 92 46
93 47 12 16 c7 9 13 24 13 34 l0 17 -9 0 -8 0 -7 -31z"/>
<path d="M77735 52775 l-190 -73 5 -9 c6 -10 -5 -14 213 68 l187 72 0 8 c0 16
-21 9 -215 -66z"/>
<path d="M50047 52785 c20 -42 27 -40 12 3 l-11 32 -9 0 -9 0 17 -35z"/>
<path d="M52461 52815 c0 -5 16 -41 37 -80 l37 -70 18 -3 18 -4 99 58 c55 32
100 61 100 65 0 4 -48 -20 -106 -54 l-107 -61 -14 19 c-8 11 -30 47 -49 80
-18 33 -33 56 -33 50z"/>
<path d="M71105 52739 c-72 -38 -134 -70 -140 -72 l-10 -4 6 -7 7 -7 131 65
c72 36 134 66 139 66 4 0 16 -16 26 -35 l19 -35 13 0 14 0 -28 45 c-14 24 -31
46 -37 49 l-10 4 -130 -69z"/>
<path d="M65060 52747 c-204 -40 -217 -44 -209 -51 5 -5 451 82 458 89 10 11
-52 1 -249 -38z"/>
<path d="M51290 52758 c0 -3 61 -117 136 -253 74 -136 165 -307 202 -381 37
-74 70 -134 74 -134 11 0 -97 214 -256 505 -124 227 -156 280 -156 263z"/>
<path d="M51260 52726 l0 -16 10 0 c6 0 10 4 10 9 0 6 -4 13 -10 16 l-10 6 0
-15z"/>
<path d="M27716 52573 c-4 -87 -9 -187 -12 -223 l-5 -65 9 15 10 15 7 190 c3
105 9 198 11 208 l5 17 -9 0 -9 0 -7 -157z"/>
<path d="M73670 52549 c-198 -108 -195 -107 -189 -113 4 -3 373 195 386 207
l6 7 -9 0 c-5 0 -92 -46 -194 -101z"/>
<path d="M34075 52403 l-50 -197 -31 -31 -31 -32 -209 -28 -209 -28 -15 -9
-15 -8 35 5 c19 3 121 17 225 31 l190 26 32 24 32 25 10 37 c6 20 30 115 55
210 l45 172 -7 0 c-4 0 -29 -89 -57 -197z"/>
<path d="M46691 52425 c-41 -80 -72 -147 -70 -149 2 -2 39 63 82 145 43 82 74
149 70 149 -4 0 -41 -66 -82 -145z"/>
<path d="M52930 52307 c0 -17 49 -103 70 -122 l22 -20 59 -117 c33 -65 61
-118 64 -118 3 0 -22 55 -56 123 l-61 122 -34 38 c-19 20 -34 43 -34 50 0 14
-29 57 -30 44z"/>
<path d="M78271 51918 c12 -29 50 -127 86 -218 68 -172 70 -177 78 -168 3 3
-32 101 -79 219 l-84 213 -11 4 -11 4 21 -54z"/>
<path d="M53293 51780 c45 -93 85 -170 89 -170 3 0 -30 77 -75 170 -45 94 -85
170 -89 170 -3 0 30 -76 75 -170z"/>
<path d="M89103 51939 c3 -8 16 -51 30 -95 22 -69 59 -173 96 -268 7 -16 14
-27 16 -24 3 2 -9 39 -25 81 -16 43 -46 128 -66 190 -20 61 -41 117 -47 122
l-10 10 6 -16z"/>
<path d="M91280 51632 c0 -4 61 -38 135 -75 l135 -67 0 -10 c0 -6 -13 -34 -30
-63 -31 -56 -35 -67 -22 -67 4 0 22 29 41 65 l34 64 -13 16 -14 17 -128 64
c-134 67 -138 69 -138 56z"/>
<path d="M35700 51460 l0 -13 7 6 6 7 -6 7 -7 6 0 -13z"/>
<path d="M45852 51369 c2 -7 10 -15 17 -17 l14 -4 -5 13 c-2 7 -10 15 -17 17
l-13 5 4 -14z"/>
<path d="M1875 51331 c-48 -12 -101 -43 -240 -140 l-130 -91 0 -10 c0 -6 3
-11 6 -12 3 -2 66 39 140 91 125 88 218 141 247 141 l12 0 0 15 c0 8 -1 15 -2
14 -2 -1 -16 -4 -33 -8z"/>
<path d="M33440 51283 c0 -46 72 -558 120 -853 65 -404 70 -433 76 -428 2 3
-25 186 -60 409 -35 222 -76 511 -91 642 l-28 237 -9 0 c-4 0 -8 -3 -8 -7z"/>
<path d="M33473 51276 l-6 -8 10 -7 9 -6 33 -255 c18 -140 45 -336 61 -435 16
-99 41 -263 56 -365 l27 -185 9 -10 8 -9 0 16 c0 20 -39 270 -79 508 -17 96
-46 300 -66 453 l-37 279 7 6 7 7 181 5 182 6 -198 4 -199 5 -5 -9z"/>
<path d="M45091 51217 c9 -7 21 -25 27 -42 l12 -30 -5 35 -5 34 -13 8 c-6 4
-16 8 -22 8 l-10 -1 16 -12z"/>
<path d="M12414 51036 c-62 -42 -76 -60 -97 -116 l-17 -46 0 -74 c0 -77 7
-120 19 -120 l7 0 -4 93 -4 92 19 50 19 50 62 47 62 47 -8 5 -9 5 -49 -33z"/>
<path d="M61325 51029 c39 -10 143 -34 233 -53 l162 -34 4 7 4 7 -101 18 c-56
10 -155 31 -220 47 -131 32 -192 38 -82 8z"/>
<path d="M5720 50881 c0 -6 3 -11 8 -11 4 0 95 -11 202 -25 107 -14 205 -25
218 -25 l22 0 0 8 0 8 -192 23 c-106 13 -208 26 -225 28 l-33 6 0 -12z"/>
<path d="M5710 50822 l0 -8 227 -27 c209 -24 245 -26 231 -12 -5 6 -397 55
-435 55 l-23 0 0 -8z"/>
<path d="M69455 50477 l-1 -212 7 55 c4 30 7 120 8 200 l1 145 -8 12 -7 11 0
-211z"/>
<path d="M17984 50443 c-110 -143 -174 -246 -173 -280 l0 -18 22 45 c27 54 92
150 164 244 45 58 62 86 50 86 -1 0 -29 -35 -63 -77z"/>
<path d="M27764 50305 l0 -210 3 108 c2 59 2 154 0 210 l-3 102 0 -210z"/>
<path d="M44566 50235 c-110 -57 -204 -110 -210 -116 -12 -12 402 197 419 212
l9 9 -9 0 c-6 -1 -100 -48 -209 -105z"/>
<path d="M44575 50193 c-213 -113 -211 -111 -204 -117 2 -2 92 43 199 100 107
57 200 105 205 107 6 2 8 7 5 10 l-5 5 -200 -105z"/>
<path d="M30485 50106 c3 -93 5 -195 5 -228 l0 -58 11 0 10 0 -7 208 -7 207
-9 20 -9 20 6 -169z"/>
<path d="M59507 50244 l-5 -6 20 -34 c20 -33 29 -40 41 -28 l5 6 -20 34 c-20
33 -29 40 -41 28z"/>
<path d="M73315 49993 l-60 -24 -153 -33 c-84 -19 -156 -37 -160 -41 l-7 -7
25 6 c14 4 80 17 147 31 l121 24 81 31 c45 17 81 33 81 36 0 7 -13 3 -75 -23z"/>
<path d="M38294 49944 c-11 -47 -183 -727 -190 -751 l-6 -23 10 0 10 0 5 23
c3 12 46 190 96 396 51 205 89 376 87 379 -3 2 -8 -9 -12 -24z"/>
<path d="M22405 49790 l30 -8 165 -5 165 -5 -20 7 -20 8 -175 5 -175 6 30 -8z"/>
<path d="M91308 49324 l-7 -6 21 -41 c18 -36 199 -330 233 -380 l13 -18 5 8 6
9 -116 184 c-63 102 -123 200 -132 218 l-17 33 -6 -7z"/>
<path d="M43680 49256 c0 -12 168 -356 174 -356 8 0 -15 52 -94 211 -70 141
-80 159 -80 145z"/>
<path d="M84926 49134 c161 -208 184 -236 184 -220 0 9 -232 301 -242 305 -6
2 20 -36 58 -85z"/>
<path d="M38083 49123 l7 -6 7 6 6 7 -13 0 -13 0 6 -7z"/>
<path d="M74560 48910 c0 -15 200 -413 205 -408 2 2 -43 97 -100 211 -58 113
-105 202 -105 197z"/>
<path d="M30555 48580 c3 -63 8 -186 11 -272 l7 -158 9 0 9 0 -5 18 c-2 9 -8
108 -11 220 -4 112 -11 227 -16 255 l-8 52 4 -115z"/>
<path d="M35040 48664 c-223 -12 -418 -23 -435 -24 l-30 -2 17 -5 c19 -5 1001
46 1007 53 8 8 -151 2 -559 -22z"/>
<path d="M14462 48536 l-43 -74 -32 -25 c-40 -30 -109 -66 -162 -84 l-40 -13
37 5 c50 8 125 42 170 78 l37 29 41 71 c22 39 39 74 38 78 -2 5 -22 -25 -46
-65z"/>
<path d="M42505 48530 l-50 -7 135 0 c74 -1 162 3 195 7 l60 7 -145 0 c-80 0
-167 -3 -195 -7z"/>
<path d="M91235 48463 c-16 -21 -83 -94 -150 -163 -66 -69 -161 -168 -210
-220 l-88 -95 -43 -65 c-64 -98 -116 -161 -478 -570 l-332 -376 -59 -102 -58
-103 -28 -15 -28 -14 -108 -11 c-60 -7 -109 -13 -111 -14 -2 -1 14 -44 34 -94
l36 -91 10 0 10 0 -9 13 c-11 14 -63 143 -63 156 l0 8 93 8 92 7 41 18 42 18
58 103 59 104 305 345 c383 432 428 486 496 587 l54 82 87 93 c48 51 139 147
203 213 120 124 186 202 178 211 -3 2 -18 -12 -33 -33z"/>
<path d="M69201 48299 c-17 -99 -34 -195 -38 -212 l-6 -32 7 6 c4 4 24 99 45
213 l38 206 -7 0 -7 0 -32 -181z"/>
<path d="M55785 48243 c-206 -103 -201 -100 -193 -109 l6 -5 196 98 c169 84
220 115 189 112 -5 0 -93 -43 -198 -96z"/>
<path d="M72789 48239 c-54 -245 -95 -445 -92 -448 1 -2 5 -2 7 0 8 8 97 442
91 447 -3 3 -5 3 -6 1z"/>
<path d="M31797 48030 c3 -96 9 -195 14 -220 l8 -45 -6 140 c-3 77 -9 176 -13
220 l-9 80 6 -175z"/>
<path d="M37613 48136 l-422 -21 -8 -9 -8 -8 90 6 c91 7 640 33 773 38 l72 2
0 8 0 8 -37 -1 c-21 -1 -228 -11 -460 -23z"/>
<path d="M90808 48068 c-36 -40 -76 -91 -89 -114 -45 -76 -154 -206 -487 -583
l-333 -376 -55 -96 -54 -96 -28 -12 -27 -13 -113 -12 -112 -12 -12 -12 -11
-11 46 -113 c25 -62 46 -106 47 -97 0 8 -16 54 -35 102 -19 48 -35 93 -35 101
l0 14 33 5 c17 3 68 9 112 13 l80 6 31 13 32 13 55 97 55 98 327 369 c344 389
420 479 496 593 26 39 58 81 72 95 13 15 39 43 57 63 l32 37 -10 0 c-6 0 -39
-33 -74 -72z"/>
<path d="M37617 48095 l-428 -23 -7 -7 -7 -8 95 6 c52 3 253 13 445 22 l350
17 20 8 20 9 -30 -1 c-16 0 -223 -11 -458 -23z"/>
<path d="M75000 47916 c88 -186 100 -209 107 -203 6 7 -158 347 -168 347 l-8
0 69 -144z"/>
<path d="M36478 48032 l-227 -15 3 -6 4 -6 179 12 c98 6 202 12 231 12 l52 1
0 10 c0 6 -3 9 -7 9 -5 -1 -110 -9 -235 -17z"/>
<path d="M46627 47673 c-103 -47 -186 -88 -184 -90 5 -4 358 156 372 168 17
16 2 10 -188 -78z"/>
<path d="M18602 47328 c-123 -50 -221 -93 -218 -96 6 -5 434 166 451 180 l9 8
-9 -1 c-6 0 -110 -41 -233 -91z"/>
<path d="M35105 47324 c-121 -6 -247 -13 -280 -15 l-60 -2 39 -4 c44 -5 678
26 685 33 7 7 -145 2 -384 -12z"/>
<path d="M47243 47312 l29 -30 80 -258 c44 -143 81 -260 83 -262 2 -2 5 0 8 5
l4 8 -84 260 c-47 143 -90 266 -96 273 -6 7 -20 18 -31 24 l-21 11 28 -31z"/>
<path d="M35862 47285 c-1 -27 5 -165 13 -305 8 -140 15 -276 15 -302 l0 -48
8 0 7 0 -17 327 c-9 180 -19 339 -21 353 l-4 25 -1 -50z"/>
<path d="M34710 47300 l0 -13 7 6 6 7 -6 7 -7 6 0 -13z"/>
<path d="M34308 47286 l-206 -11 -9 -8 -8 -8 85 6 c47 3 175 10 285 16 109 5
201 12 204 14 6 7 -110 4 -351 -9z"/>
<path d="M30660 47259 c0 -13 5 -109 11 -214 l12 -190 9 -10 10 -10 -6 55 c-3
30 -11 129 -17 220 -6 91 -12 167 -15 169 -2 2 -4 -7 -4 -20z"/>
<path d="M21655 46766 c-77 -29 -175 -69 -217 -89 l-78 -36 0 -11 c0 -16 13
-12 121 36 56 26 156 66 223 89 l120 43 4 11 4 11 -19 -1 c-10 0 -81 -24 -158
-53z"/>
<path d="M20631 46738 c0 -10 -12 -46 -26 -81 l-26 -63 -47 -47 -47 -47 -88
-38 -87 -39 6 -6 6 -5 91 40 92 40 42 41 43 41 26 66 26 67 -5 24 -4 24 -2
-17z"/>
<path d="M18750 46436 c0 -10 349 -716 354 -716 6 0 -55 129 -233 493 -96 197
-121 243 -121 223z"/>
<path d="M50823 46318 c19 -35 58 -107 87 -160 l52 -98 9 0 10 0 -4 8 c-2 4
-41 76 -86 160 l-82 152 -11 0 -10 0 35 -62z"/>
<path d="M51781 46113 c11 -35 354 -742 357 -734 3 9 -335 721 -350 736 l-10
10 3 -12z"/>
<path d="M93091 46095 l15 -15 75 -13 76 -14 24 -16 23 -17 51 0 50 0 63 32
c34 18 62 35 62 39 0 4 -26 -6 -58 -22 l-58 -30 -40 -6 -41 -5 -43 22 -43 22
-66 9 -66 10 -9 9 c-6 6 -15 10 -20 10 l-10 0 15 -15z"/>
<path d="M93042 46050 l-22 -28 -83 -32 -82 -31 -29 5 -29 6 -94 -6 -93 -7 0
-10 0 -9 17 6 c9 4 70 7 137 7 l120 1 65 25 66 26 28 25 27 26 33 -12 c19 -7
47 -12 63 -12 l29 0 53 -25 54 -25 54 0 54 0 71 36 c39 19 69 38 66 40 -3 3
-33 -9 -67 -26 l-62 -31 -47 -6 -47 -5 -52 26 -51 26 -39 0 -38 0 -39 20 c-22
11 -39 20 -40 19 0 0 -10 -13 -23 -29z"/>
<path d="M81344 45948 l-7 -11 11 7 c7 4 12 9 12 12 0 8 -9 4 -16 -8z"/>
<path d="M91895 45904 c-110 -7 -218 -13 -239 -13 l-39 -1 6 -6 6 -7 246 13
245 13 0 9 0 8 -12 -1 c-7 -1 -103 -8 -213 -15z"/>
<path d="M81300 45792 c-12 -38 -25 -74 -30 -81 l-7 -13 -34 -8 -34 -8 32 -1
32 -1 14 14 14 14 22 72 c13 39 21 74 18 76 -3 3 -15 -26 -27 -64z"/>
<path d="M81251 45625 c0 -22 -3 -53 -6 -70 l-6 -30 16 35 16 34 -10 36 -9 35
-1 -40z"/>
<path d="M49630 45459 c0 -4 11 -31 24 -62 l25 -55 -6 -23 c-3 -13 -13 -32
-21 -42 l-15 -17 -109 -52 -108 -51 0 -9 0 -8 119 59 c65 33 126 67 135 76
l16 16 0 32 -1 32 -29 55 c-16 30 -29 52 -30 49z"/>
<path d="M47016 44569 l-100 -39 -69 0 -68 0 -20 10 -19 11 0 -10 c0 -15 29
-21 111 -21 l79 0 102 41 c57 22 105 43 107 45 13 13 -36 -2 -123 -37z"/>
<path d="M26165 44470 l-60 -7 76 -1 76 -2 55 -19 c47 -16 260 -115 541 -251
l88 -43 6 7 6 6 -64 29 c-35 16 -170 79 -299 141 -227 108 -331 152 -354 148
-6 -1 -38 -4 -71 -8z"/>
<path d="M94133 44303 c-90 -64 -161 -118 -159 -121 3 -2 76 47 163 109 187
133 167 118 162 123 -2 2 -77 -48 -166 -111z"/>
<path d="M88127 44192 c-32 -70 -65 -136 -73 -147 l-15 -20 -9 16 c-11 20 -54
68 -46 52 l6 -12 -11 -7 -12 -7 -11 16 -12 15 -47 -84 c-26 -46 -47 -90 -47
-97 0 -6 21 26 46 71 l46 84 10 -10 11 -11 -42 -76 c-24 -42 -40 -79 -38 -82
3 -2 22 28 43 66 21 39 41 71 45 71 3 0 14 -16 25 -35 10 -19 25 -37 33 -40
l14 -5 20 17 20 18 74 154 c41 84 72 155 70 157 -3 3 -34 -56 -70 -131 -37
-75 -76 -149 -87 -166 l-21 -29 -12 0 -12 0 -22 35 c-23 35 -30 65 -15 65 4 0
16 -14 26 -31 l18 -30 11 3 12 4 52 104 c64 128 94 200 85 200 -4 0 -33 -58
-65 -128z"/>
<path d="M49430 44044 c0 -14 98 -106 152 -143 62 -42 123 -66 181 -74 l47 -7
0 10 0 10 -39 0 -38 0 -49 21 c-70 31 -130 73 -196 138 l-58 55 0 -10z"/>
<path d="M87957 43703 c136 -219 122 -197 127 -192 6 6 -222 373 -234 377 -5
2 43 -81 107 -185z"/>
<path d="M40895 43510 l-80 -8 -57 -19 -56 -20 -51 -33 c-71 -45 -58 -49 20
-6 l64 35 79 21 79 22 73 -4 73 -3 -7 7 c-13 13 -57 15 -137 8z"/>
<path d="M51503 43417 l-203 -30 0 -7 0 -6 193 28 c105 15 206 32 222 37 l30
9 -20 0 c-11 0 -111 -14 -222 -31z"/>
<path d="M50770 43266 c-52 -13 -232 -63 -400 -111 l-305 -88 -10 -10 -10 -10
17 6 c55 19 685 192 746 205 l72 15 0 8 c0 11 2 12 -110 -15z"/>
<path d="M51888 43046 c-81 -11 -150 -24 -154 -29 l-8 -7 30 5 c16 3 96 14
178 25 83 11 152 23 155 25 8 9 -50 3 -201 -19z"/>
<path d="M40168 42888 c-69 -95 -128 -180 -133 -188 l-8 -15 20 20 c33 33 255
346 250 351 -3 3 -61 -73 -129 -168z"/>
<path d="M8554 42983 c2 -10 8 -96 11 -192 4 -96 11 -195 16 -220 l8 -46 -4
100 c-3 55 -8 162 -11 238 l-7 137 -9 0 -9 0 5 -17z"/>
<path d="M69915 42903 c-225 -30 -412 -56 -414 -59 -3 -3 -4 -33 -3 -67 l3
-62 9 -8 8 -9 -5 65 -6 64 11 7 c5 3 189 29 408 57 220 28 401 53 403 55 2 2
2 5 0 7 -2 2 -188 -21 -414 -50z"/>
<path d="M50363 42791 c-173 -24 -215 -33 -202 -45 2 -1 109 11 237 28 l232
31 0 7 0 8 -37 -1 c-21 -1 -124 -13 -230 -28z"/>
<path d="M31880 42689 l0 -12 -157 -153 -157 -153 6 -7 7 -6 128 121 c159 151
217 221 183 221 -5 0 -10 -5 -10 -11z"/>
<path d="M31771 42498 l-164 -168 7 -7 7 -7 120 119 c134 133 202 211 197 223
l-3 8 -164 -168z"/>
<path d="M39578 42380 l-67 -91 -6 -52 -7 -53 11 -69 10 -70 -4 80 -5 80 13
51 13 50 62 82 c35 45 59 82 54 82 -4 0 -38 -41 -74 -90z"/>
<path d="M45957 42237 l-147 -82 -6 -23 -6 -22 8 -38 8 -37 6 54 5 53 147 82
c129 70 169 98 141 95 -5 0 -74 -37 -156 -82z"/>
<path d="M30157 42042 l-8 -12 7 -73 c4 -39 10 -80 13 -89 8 -23 153 -198 164
-198 4 0 -20 34 -55 75 -35 42 -72 90 -83 108 l-20 32 -5 85 -5 85 -8 -13z"/>
<path d="M31042 41812 l-170 -237 -49 -46 c-26 -26 -217 -174 -423 -329 l-375
-283 -45 -18 c-25 -9 -78 -22 -119 -29 l-74 -12 -49 6 -50 7 -69 39 -69 39
-82 68 c-92 76 -148 111 -229 144 l-54 21 -90 14 -90 14 -185 9 -185 10 -72
15 c-91 20 -189 59 -277 110 l-69 41 -90 85 -90 85 -47 71 c-26 40 -60 101
-76 138 -15 36 -32 66 -37 66 l-8 0 6 -22 c14 -48 65 -149 103 -205 l40 -58
79 -76 78 -77 65 -44 66 -44 89 -38 90 -37 94 -20 93 -19 82 0 c115 0 304 -17
389 -35 l72 -15 70 -34 70 -35 92 -75 92 -75 73 -42 73 -42 57 -5 57 -4 68 11
c37 7 88 19 113 28 l45 16 380 285 c209 157 402 306 428 331 l49 46 173 242
174 242 -8 6 -9 5 -170 -238z"/>
<path d="M31081 41772 l-170 -237 -43 -42 c-24 -22 -169 -136 -323 -253 l-280
-212 -3 -15 -4 -16 229 174 c369 280 377 286 410 321 29 31 373 504 373 514 0
23 -44 -31 -189 -234z"/>
<path d="M92770 41920 l-15 -9 37 5 37 6 25 -25 26 -26 0 -27 0 -27 -17 -19
-16 -18 11 0 11 0 147 -200 c81 -110 149 -198 152 -196 3 4 -85 128 -280 392
l-7 10 10 38 10 37 -26 35 -26 34 -32 0 c-18 0 -39 -5 -47 -10z"/>
<path d="M30336 41598 c22 -24 82 -89 134 -146 51 -56 95 -100 98 -98 6 7
-250 286 -262 286 l-10 0 40 -42z"/>
<path d="M41169 41488 c0 -131 -12 -270 -24 -303 l-8 -20 12 11 13 12 9 68 c4
38 12 133 15 212 l7 142 -11 0 -12 0 -1 -122z"/>
<path d="M28485 41193 c13 -13 84 -31 170 -43 l70 -10 118 0 117 0 0 10 0 10
-107 0 -108 1 -100 14 c-55 8 -116 18 -135 21 l-35 6 10 -9z"/>
<path d="M29386 40992 l-5 -9 97 -70 c53 -39 120 -82 147 -95 l50 -25 48 -7
48 -7 29 6 c17 4 30 10 30 13 l0 7 -75 2 -76 2 -57 32 c-31 18 -73 44 -92 59
-19 14 -58 43 -87 63 l-51 38 -6 -9z"/>
<path d="M57068 40923 c184 -2 481 -2 660 0 l327 2 -660 0 -660 0 333 -2z"/>
<path d="M96377 40348 c-108 -50 -195 -93 -193 -95 3 -4 208 86 371 162 l50
23 -15 1 c-8 0 -104 -41 -213 -91z"/>
<path d="M95690 40037 c-36 -18 -125 -60 -199 -95 -74 -34 -131 -65 -128 -68
6 -7 406 178 407 189 0 11 -10 8 -80 -26z"/>
<path d="M84815 39969 c5 -8 41 -61 81 -119 40 -58 119 -184 176 -280 146
-247 540 -871 545 -866 3 3 -89 155 -204 338 -115 183 -255 410 -310 503 -100
170 -264 418 -285 431 l-11 7 8 -14z"/>
<path d="M84780 39956 c0 -4 39 -65 87 -134 47 -70 165 -257 261 -417 191
-317 180 -300 186 -294 11 10 -472 784 -525 844 l-9 9 0 -8z"/>
<path d="M43455 39643 c-213 -76 -222 -80 -214 -87 5 -5 436 148 446 158 l6 6
-14 -1 c-8 0 -108 -34 -224 -76z"/>
<path d="M45410 39655 c0 -11 5 -27 10 -35 l10 -15 0 20 c0 11 -5 27 -10 35
l-10 15 0 -20z"/>
<path d="M51071 39634 c0 -6 -10 -60 -21 -120 -23 -126 -24 -145 -9 -196 l10
-38 36 -35 c20 -19 41 -35 47 -35 l11 1 -31 27 c-41 36 -59 68 -67 117 l-7 40
21 108 20 109 -4 16 -5 17 -1 -11z"/>
<path d="M52012 38985 c8 -8 871 -175 877 -169 2 2 2 5 0 7 -3 3 -575 112
-854 164 l-30 6 7 -8z"/>
<path d="M52465 38934 c20 -8 430 -82 434 -78 2 2 -2 6 -10 8 -27 9 -397 76
-416 75 l-18 -1 10 -4z"/>
<path d="M88112 38473 c-101 -63 -181 -117 -178 -120 5 -6 363 213 372 228 l5
9 -8 -1 c-4 0 -90 -53 -191 -116z"/>
<path d="M88620 38360 c10 -20 146 -253 156 -269 2 -2 19 7 39 19 20 12 34 25
31 27 -3 3 -17 -2 -30 -11 -14 -9 -27 -16 -30 -16 -3 0 -38 55 -77 123 -40 67
-79 129 -87 137 l-14 15 12 -25z"/>
<path d="M85850 38244 c0 -13 262 -425 267 -420 5 5 -255 426 -263 426 -2 0
-4 -3 -4 -6z"/>
<path d="M60055 38081 c167 -158 607 -561 612 -561 12 0 -66 75 -352 339 -143
133 -264 241 -270 241 l-9 0 19 -19z"/>
<path d="M60031 38047 c15 -12 109 -98 210 -192 351 -326 394 -365 403 -365 5
0 -31 37 -80 82 -49 46 -132 123 -184 173 -52 50 -152 143 -221 208 l-126 117
-14 0 -14 -1 26 -22z"/>
<path d="M86645 37561 c-72 -50 -285 -194 -475 -322 -386 -260 -355 -238 -349
-243 7 -7 653 422 728 483 35 28 104 77 153 108 48 30 88 57 88 59 0 12 -29
-5 -145 -85z"/>
<path d="M59320 37586 c0 -3 40 -86 89 -186 50 -100 92 -187 94 -193 l4 -12 7
6 7 7 -95 191 c-83 166 -106 206 -106 187z"/>
<path d="M86157 37278 c-125 -83 -226 -153 -223 -155 3 -4 439 278 461 298 l9
9 -9 0 c-6 -1 -113 -69 -238 -152z"/>
<path d="M85212 37398 c9 -13 61 -94 118 -181 56 -87 105 -156 107 -153 6 6
-220 355 -231 356 l-8 0 14 -22z"/>
<path d="M53850 36900 c0 -3 -18 -97 -39 -210 l-39 -205 9 -9 c5 -6 9 -8 9 -5
0 2 18 96 39 209 l39 205 -9 10 c-5 5 -9 7 -9 5z"/>
<path d="M85660 36685 c0 -23 227 -361 237 -352 2 3 -24 45 -59 94 -35 48 -88
127 -117 176 -47 78 -61 97 -61 82z"/>
<path d="M40520 36597 c-206 -44 -377 -82 -379 -84 -17 -13 51 -1 398 74 l394
84 8 -8 8 -8 46 -305 c40 -268 55 -348 55 -299 0 8 -20 150 -45 314 -25 165
-45 303 -45 308 l0 7 -32 -1 c-18 -1 -202 -38 -408 -82z"/>
<path d="M39857 36140 c3 -80 9 -188 13 -240 l8 -95 -5 220 -6 220 -8 20 -8
20 6 -145z"/>
<path d="M86487 35769 l-17 -10 5 -8 4 -8 36 11 c19 6 35 14 35 18 l0 8 -22 0
c-13 0 -31 -5 -41 -11z"/>
<path d="M86645 35712 c22 -45 157 -232 167 -232 4 0 8 3 8 6 0 7 -132 190
-166 229 l-26 30 17 -33z"/>
<path d="M86440 35690 l0 -13 7 6 6 7 -6 7 -7 6 0 -13z"/>
<path d="M35161 35683 c5 -15 319 -283 331 -283 8 0 -52 53 -276 244 -33 28
-57 45 -55 39z"/>
<path d="M62526 35420 l-147 -271 3 -14 3 -15 153 279 c83 153 152 281 152
285 0 28 -36 -30 -164 -264z"/>
<path d="M84916 35603 c-21 -6 -464 -288 -486 -311 l-15 -15 15 8 c8 4 119 75
246 156 l231 149 27 0 26 0 20 -20 c11 -11 33 -46 49 -78 16 -32 56 -94 88
-137 32 -44 142 -215 242 -380 101 -165 198 -318 214 -340 17 -22 32 -42 34
-44 2 -2 5 -2 8 1 l6 5 -24 29 c-14 16 -110 170 -216 341 -105 172 -217 348
-248 390 -32 43 -75 111 -96 150 l-38 72 -22 16 c-22 15 -28 16 -61 8z"/>
<path d="M79795 35470 l-130 -70 -122 -41 -123 -41 0 -8 0 -8 118 38 119 37
146 77 c81 42 147 79 147 82 0 12 -37 -4 -155 -66z"/>
<path d="M33793 35157 c-63 -67 -155 -222 -204 -345 -37 -92 -119 -367 -118
-396 l0 -21 50 165 c81 271 154 427 262 562 53 65 59 87 10 35z"/>
<path d="M32120 35085 l0 -15 10 0 9 0 -5 15 c-4 8 -8 15 -10 15 -2 0 -4 -7
-4 -15z"/>
<path d="M85418 34974 l-6 -5 100 -162 c97 -158 127 -201 135 -193 3 2 -209
351 -221 364 -2 1 -5 -1 -8 -4z"/>
<path d="M60776 34680 c-43 -116 -76 -215 -74 -220 2 -5 38 88 82 206 43 118
76 217 74 220 -3 2 -40 -90 -82 -206z"/>
<path d="M85500 34439 c-212 -131 -387 -244 -389 -250 l-3 -11 15 4 c8 1 186
109 396 238 l381 235 0 13 c0 6 -3 12 -7 11 -5 0 -181 -108 -393 -240z"/>
<path d="M62265 34555 c-5 -2 -49 -9 -97 -15 l-88 -12 0 -14 0 -14 10 0 c5 0
57 7 116 16 l107 16 24 -5 c31 -6 29 -1 -7 18 -28 15 -44 17 -65 10z"/>
<path d="M85644 34548 l-7 -11 11 7 c12 7 16 16 8 16 -3 0 -8 -5 -12 -12z"/>
<path d="M62540 34540 c19 -13 30 -13 30 0 l0 10 -22 0 -23 0 15 -10z"/>
<path d="M80540 34466 c0 -7 106 -213 117 -226 2 -2 41 15 86 39 88 47 110 62
103 68 -2 2 -41 -16 -86 -41 -45 -26 -86 -46 -90 -46 -4 0 -29 41 -55 90 -49
92 -74 131 -75 116z"/>
<path d="M82211 34283 c99 -101 207 -221 236 -262 2 -2 6 -2 9 2 l7 6 -44 53
c-60 74 -311 328 -323 328 l-11 0 126 -127z"/>
<path d="M72473 34343 c65 -2 168 -2 230 0 l112 3 -230 0 -230 0 118 -3z"/>
<path d="M77315 34253 l-151 -74 -67 -1 -67 -1 0 -10 0 -10 73 6 74 5 144 72
c152 76 155 78 148 84 -2 2 -72 -30 -154 -71z"/>
<path d="M30081 34314 c13 -39 195 -404 202 -404 4 0 -38 91 -94 203 -91 181
-120 235 -108 201z"/>
<path d="M35730 34152 c0 -5 -65 -66 -144 -136 -80 -70 -151 -135 -158 -144
l-13 -17 22 15 c35 24 278 243 297 268 l17 22 -11 0 c-5 0 -10 -4 -10 -8z"/>
<path d="M87329 34001 c-219 -138 -254 -160 -243 -161 8 0 338 201 353 216 2
2 2 5 0 7 -2 2 -52 -26 -110 -62z"/>
<path d="M53112 33946 l-212 -33 -8 -8 -7 -8 30 6 c17 3 113 17 215 32 l185
26 10 10 c5 5 7 9 5 8 -3 -1 -101 -16 -218 -33z"/>
<path d="M34913 33908 c19 -35 65 -118 102 -186 37 -68 69 -121 71 -119 7 6
-190 366 -199 367 l-9 0 35 -62z"/>
<path d="M57840 33698 c0 -4 18 -48 40 -98 l39 -92 22 -111 c12 -62 26 -119
30 -127 l8 -15 1 11 c0 6 -11 65 -24 130 l-25 119 -36 85 c-32 76 -55 116 -55
98z"/>
<path d="M1621 33055 c3 -2 77 -9 164 -15 88 -5 177 -12 198 -14 l37 -4 0 7 0
8 -177 11 c-195 13 -229 14 -222 7z"/>
<path d="M98940 32244 c0 -5 5 -25 11 -44 l11 -35 -1 -70 -1 -70 -22 -60 -22
-60 -23 -28 c-34 -42 -28 -53 7 -13 l30 34 19 54 18 53 7 65 6 65 -14 54 c-8
29 -17 56 -20 59 l-6 5 0 -9z"/>
<path d="M98818 31737 l-27 -11 -10 -29 -11 -29 29 31 29 31 29 0 28 0 -15 10
c-17 11 -16 11 -52 -3z"/>
<path d="M98890 31723 c0 -13 288 -433 297 -433 l5 0 -6 15 c-5 15 -271 402
-287 420 l-9 9 0 -11z"/>
<path d="M80560 30855 c-14 -8 -45 -17 -70 -20 -25 -4 -53 -9 -63 -12 l-17 -4
4 -8 5 -8 57 8 58 8 33 18 c18 9 33 21 33 25 0 11 -11 9 -40 -7z"/>
<path d="M79867 30480 c9 -16 21 -30 26 -30 l8 0 -18 30 c-9 17 -21 30 -26 30
l-8 0 18 -30z"/>
<path d="M93937 29068 c-223 -161 -406 -296 -406 -300 -1 -5 2 -8 7 -8 8 0
788 563 812 586 l14 14 -10 0 c-6 0 -193 -132 -417 -292z"/>
<path d="M96514 27662 c-50 -37 -382 -280 -737 -541 -356 -261 -647 -478 -647
-482 0 -5 179 123 398 283 218 160 546 399 727 531 182 132 339 248 350 258
l19 19 -9 0 c-6 -1 -51 -31 -101 -68z"/>
<path d="M15158 27060 c-31 -121 -53 -220 -49 -220 8 0 115 429 109 436 -3 2
-30 -94 -60 -216z"/>
<path d="M92612 27172 c10 -24 261 -382 265 -378 5 5 -255 386 -263 386 -3 0
-4 -4 -2 -8z"/>
<path d="M24715 25988 c-3 -7 -27 -80 -55 -163 l-50 -149 -35 -53 c-39 -59
-41 -63 -21 -63 l14 0 31 49 32 49 54 163 c30 90 55 167 55 171 0 13 -20 9
-25 -4z"/>
<path d="M87314 25977 l-5 -14 163 -161 163 -161 15 15 15 14 -160 160 -160
160 -13 0 -13 0 -5 -13z"/>
<path d="M90495 24839 c50 -5 150 -19 223 -30 74 -11 136 -18 139 -16 11 12
-230 47 -352 52 l-100 4 90 -10z"/>
<path d="M89491 21945 c-1 -11 22 -125 51 -252 l52 -233 9 0 9 0 -7 38 c-13
75 -113 466 -114 447z"/>
<path d="M89400 20690 c-162 -149 -297 -276 -299 -283 -2 -6 43 31 100 83 111
103 478 437 493 451 5 5 8 11 5 13 -3 3 -137 -116 -299 -264z"/>
<path d="M86760 20814 c0 -9 94 -108 522 -551 59 -61 108 -108 108 -103 0 7
-334 363 -532 565 l-98 100 0 -11z"/>
<path d="M22506 20688 l5 -73 31 -145 c28 -136 40 -171 53 -158 3 2 -11 76
-30 164 l-35 158 0 63 0 63 -15 0 -15 0 6 -72z"/>
<path d="M87075 20418 c96 -104 280 -288 288 -288 5 0 -62 74 -148 165 -87 91
-163 165 -168 165 l-11 0 39 -42z"/>
<path d="M22695 19838 c2 -7 27 -109 56 -225 l51 -213 14 0 15 0 -4 8 c-3 4
-28 105 -57 225 l-52 217 -14 0 -13 0 4 -12z"/>
<path d="M96051 17463 c5 -17 720 -653 733 -653 l10 0 -9 8 c-6 5 -158 141
-340 302 -181 161 -345 307 -364 324 l-34 31 4 -12z"/>
<path d="M96020 17426 c0 -6 352 -311 363 -314 l12 -3 -25 23 c-82 75 -339
298 -344 298 -3 0 -6 -2 -6 -4z"/>
<path d="M92562 16699 c-194 -144 -351 -263 -349 -266 4 -3 690 498 716 523 2
2 0 4 -5 4 -6 0 -169 -118 -362 -261z"/>
<path d="M93264 16692 c3 -6 125 -113 269 -238 144 -126 295 -257 335 -292
l72 -64 0 9 c0 9 -613 546 -663 582 l-20 14 7 -11z"/>
<path d="M92492 16091 c5 -13 338 -301 349 -301 5 0 9 2 9 5 0 8 -342 305
-352 305 l-10 0 4 -9z"/>
<path d="M7325 15433 c-110 -14 -202 -27 -204 -29 -2 -2 -2 -7 2 -10 l5 -6
215 26 c118 14 219 26 226 26 6 0 11 5 11 10 l0 10 -27 -1 c-16 -1 -118 -13
-228 -26z"/>
<path d="M96525 12955 c-71 -84 -131 -159 -133 -166 l-4 -14 9 10 c12 12 233
273 252 298 8 9 12 19 10 21 -2 2 -62 -65 -134 -149z"/>
<path d="M2607 12833 l-5 -8 155 -140 c85 -77 166 -148 179 -158 l24 -19 0 10
c0 8 -166 163 -326 305 l-22 19 -5 -9z"/>
<path d="M25509 12776 c-2 -2 -85 -14 -184 -25 -98 -12 -181 -24 -184 -26 -8
-9 41 -5 207 15 l162 19 18 10 17 10 -16 1 c-9 0 -18 -2 -20 -4z"/>
<path d="M97710 11122 c0 -5 77 -73 171 -151 l171 -143 5 6 c4 3 4 7 2 9 -2 1
-40 34 -84 73 -118 104 -252 214 -259 214 -3 0 -6 -4 -6 -8z"/>
<path d="M25855 3999 c-99 -3 -188 -7 -197 -8 l-18 -1 0 -9 0 -9 158 4 c86 3
190 7 230 10 l72 6 0 9 0 9 -32 -2 c-18 -1 -114 -5 -213 -9z"/>
<path d="M22610 2535 c0 -3 156 -129 346 -281 l346 -276 6 6 6 6 -15 14 c-46
43 -670 536 -679 536 -5 0 -10 -2 -10 -5z"/>
<path d="M23015 2289 l-7 -10 24 -18 c12 -11 88 -71 168 -134 l145 -115 8 5 9
5 -23 23 c-13 12 -90 75 -171 139 l-147 116 -6 -11z"/>
<path d="M12696 1988 c-14 -82 -35 -260 -40 -328 l-5 -75 9 20 c5 11 9 41 9
67 1 46 37 311 46 336 l4 12 -9 0 -9 0 -5 -32z"/>
<path d="M12741 1994 l1 -19 5 13 5 13 -6 6 -6 6 1 -19z"/>
</g>
</svg>
