<?xml version="1.0" standalone="no"?>
<!DOCTYPE svg PUBLIC "-//W3C//DTD SVG 20010904//EN"
 "http://www.w3.org/TR/2001/REC-SVG-20010904/DTD/svg10.dtd">
<svg version="1.0" xmlns="http://www.w3.org/2000/svg"
 width="7500.000000pt" height="7500.000000pt" viewBox="0 0 7500.000000 7500.000000"
 preserveAspectRatio="xMidYMid meet">
<metadata>
Created by potrace 1.16, written by Peter Selinger 2001-2019
</metadata>
<g transform="translate(0.000000,7500.000000) scale(0.075000,-0.075000)"
fill="#000000" stroke="none">
<path d="M90226 99948 c-13 -29 -32 -82 -44 -118 l-20 -65 -5 -57 -6 -58 13 0
13 0 6 65 6 64 41 107 c46 122 43 114 29 114 l-10 0 -23 -52z"/>
<path d="M89016 99941 c5 -5 197 -84 426 -174 l416 -164 32 -27 33 -27 5 6 6
6 -30 29 -29 29 -422 165 c-232 91 -428 166 -435 166 l-12 0 10 -9z"/>
<path d="M89465 99830 l-5 -8 168 -67 c92 -37 189 -76 215 -86 l49 -19 -4 11
-4 12 -207 83 -207 82 -5 -8z"/>
<path d="M82900 99312 l0 -8 158 -86 c179 -98 238 -128 249 -128 4 0 -19 15
-52 34 -33 18 -98 54 -145 80 -47 26 -113 63 -147 82 l-63 35 0 -9z"/>
<path d="M83713 98873 l7 -11 77 -11 c43 -6 166 -15 274 -20 l196 -10 141 6
142 6 0 6 0 6 -313 0 -312 1 -90 11 c-49 6 -99 15 -109 19 l-19 7 6 -10z"/>
<path d="M84350 98799 c-80 -4 -155 -5 -167 -2 l-23 5 0 -11 0 -12 188 7 187
7 20 8 20 8 -40 -1 c-22 -1 -105 -5 -185 -9z"/>
<path d="M85537 97939 l-108 -17 -37 -15 c-90 -37 -134 -58 -130 -62 2 -3 41
11 85 30 l81 35 108 17 c60 9 111 18 113 20 14 10 -16 8 -112 -8z"/>
<path d="M13150 96780 l0 -9 113 -35 c90 -28 314 -86 333 -86 2 0 4 6 4 13 l0
14 -102 23 c-57 13 -150 38 -208 56 -58 19 -113 34 -122 34 l-18 0 0 -10z"/>
<path d="M87880 96350 l-65 -7 135 0 135 -1 30 -10 c35 -12 126 -46 358 -135
l167 -65 4 7 5 7 -277 104 -277 104 -75 2 c-41 1 -104 -2 -140 -6z"/>
<path d="M98125 94592 l-5 -6 182 -73 c100 -40 184 -70 186 -68 8 7 9 7 -180
82 l-177 71 -6 -6z"/>
<path d="M99510 94309 c-85 -89 -159 -170 -165 -180 l-10 -17 -209 84 c-114
47 -210 83 -213 80 -3 -3 5 -10 18 -15 13 -5 108 -43 212 -84 l187 -75 103
106 c225 235 250 262 241 262 -5 0 -79 -73 -164 -161z"/>
<path d="M99351 94096 c9 -8 401 -157 405 -153 2 2 -85 38 -194 80 -180 70
-223 85 -211 73z"/>
<path d="M87275 92760 l-210 -210 -12 0 c-11 0 -139 76 -221 132 -24 17 -46
28 -48 25 -6 -5 159 -117 233 -158 l43 -24 205 205 c177 176 236 240 223 240
-2 0 -98 -94 -213 -210z"/>
<path d="M22060 92630 l0 -9 68 -20 c37 -11 132 -38 212 -61 80 -22 151 -43
158 -45 l12 -4 0 13 0 13 -215 62 c-227 65 -235 66 -235 51z"/>
<path d="M52790 92515 l85 -56 63 -62 63 -62 34 -60 33 -60 17 -60 18 -60 6
-152 6 -152 7 -7 8 -7 -6 149 -5 149 -20 79 -21 78 -30 52 -31 51 -56 59 -56
58 -89 59 c-48 33 -93 59 -100 59 -6 0 27 -25 74 -55z"/>
<path d="M92220 92381 c-5 -11 -32 -76 -59 -145 l-49 -126 8 0 8 0 53 136 53
136 12 5 12 4 72 -36 72 -36 11 4 10 3 -77 37 c-43 20 -86 37 -97 37 l-18 0
-11 -19z"/>
<path d="M25910 91722 l0 -9 158 -46 c142 -41 247 -67 272 -67 6 0 10 4 10 9
l0 9 -47 7 c-38 5 -264 66 -375 101 l-18 5 0 -9z"/>
<path d="M93570 91504 c0 -12 161 -153 208 -181 21 -13 93 -44 162 -69 l125
-47 139 2 c77 1 142 4 146 6 6 4 65 -3 183 -20 l38 -5 -5 9 -6 9 -77 8 -78 8
-180 1 -180 0 -115 46 c-129 51 -180 80 -254 147 -28 26 -63 57 -78 71 l-28
25 0 -10z"/>
<path d="M93595 91419 c33 -33 86 -79 118 -100 l57 -40 107 -45 107 -45 66
-15 65 -15 21 5 c12 3 79 7 148 7 l126 2 -6 6 -6 6 -181 0 -182 0 -120 49
-120 50 -65 42 -65 42 -55 56 c-30 31 -59 56 -64 56 l-10 0 59 -61z"/>
<path d="M95055 91330 l-29 -30 7 -7 7 -7 30 29 c17 16 30 32 30 37 0 16 -17
8 -45 -22z"/>
<path d="M94520 91030 l0 -20 10 0 10 0 0 20 0 20 -10 0 -10 0 0 -20z"/>
<path d="M94564 90958 l-7 -11 18 -13 18 -13 8 5 c14 8 11 18 -11 31 l-19 13
-7 -12z"/>
<path d="M94656 90901 l-6 -9 34 -6 33 -6 17 6 c9 3 16 10 16 15 l0 9 -44 0
-45 0 -5 -9z"/>
<path d="M94780 90882 c0 -4 15 -16 33 -27 17 -10 53 -37 80 -58 26 -22 49
-38 52 -36 6 7 -68 68 -122 102 l-43 27 0 -8z"/>
<path d="M30745 90230 c3 -5 8 -10 11 -10 3 0 2 5 -1 10 -3 6 -8 10 -11 10 -3
0 -2 -4 1 -10z"/>
<path d="M93727 89890 l-337 -349 12 -7 12 -8 126 131 c69 72 219 229 334 348
l209 216 -9 8 -9 9 -338 -348z"/>
<path d="M30755 90141 l30 -30 130 -51 c72 -29 137 -55 145 -58 l15 -5 -10 11
c-5 6 -68 34 -140 62 l-130 52 -26 24 c-14 13 -29 24 -34 24 l-10 0 30 -29z"/>
<path d="M30810 90147 c3 -3 34 -17 70 -30 36 -14 95 -37 133 -51 l67 -26 0 9
c0 5 -8 11 -17 14 -10 3 -61 21 -113 40 -110 40 -147 52 -140 44z"/>
<path d="M31472 89885 c2 -3 87 -17 187 -31 l182 -27 12 13 12 13 -16 -6 -17
-6 -163 24 c-167 25 -206 29 -197 20z"/>
<path d="M36782 89848 l5 -13 194 -32 c107 -17 206 -34 222 -37 l27 -5 0 14
c0 8 -3 15 -7 15 -5 0 -104 16 -221 35 -248 41 -225 38 -220 23z"/>
<path d="M38470 89306 l0 -15 26 -20 27 -21 38 0 39 0 0 16 0 16 -26 -6 -26
-7 -33 26 c-39 29 -45 30 -45 11z"/>
<path d="M97540 89236 c-52 -19 -267 -136 -251 -136 7 0 68 29 135 64 l121 65
85 9 85 9 -70 1 -70 1 -35 -13z"/>
<path d="M84080 89156 c0 -5 -61 -279 -84 -374 l-14 -63 10 3 11 4 48 205 c27
112 48 210 49 217 l0 12 -10 0 c-5 0 -10 -2 -10 -4z"/>
<path d="M86360 88980 c41 -4 125 -11 185 -14 l110 -7 65 10 65 9 -135 -1
c-74 0 -187 2 -250 5 l-115 6 75 -8z"/>
<path d="M85145 88940 c-88 -15 -308 -60 -490 -99 -181 -39 -386 -80 -455 -90
l-125 -19 39 -1 c62 -2 220 26 559 100 175 37 384 80 464 94 l145 26 6 -6 6
-5 -11 -11 -10 -10 -149 -25 c-179 -30 -672 -136 -656 -142 6 -2 107 18 224
43 206 46 524 105 560 105 l18 0 -194 -387 c-196 -393 -451 -890 -527 -1028
l-41 -75 9 0 c11 0 92 155 453 870 l316 625 60 13 59 13 198 6 197 6 0 8 0 9
-127 0 -128 -1 -105 -14 c-58 -8 -113 -15 -123 -15 l-18 0 6 20 c3 11 5 20 3
19 -2 -1 -75 -14 -163 -29z"/>
<path d="M86330 88940 c25 -4 99 -11 165 -14 l120 -6 80 9 80 9 -140 -1 c-77
-1 -187 1 -245 5 l-105 7 45 -9z"/>
<path d="M89630 87996 c25 -113 49 -208 53 -212 10 -10 11 -17 -38 204 -25
111 -45 204 -45 207 0 3 -4 5 -8 5 l-8 0 46 -204z"/>
<path d="M80270 88040 c0 -5 1 -10 3 -10 2 0 92 -31 201 -70 204 -73 216 -76
216 -61 l0 9 -202 71 c-112 39 -206 71 -210 71 -5 0 -8 -4 -8 -10z"/>
<path d="M98022 87962 c109 -179 482 -761 486 -758 6 7 -491 795 -501 795 l-8
1 23 -38z"/>
<path d="M84459 87219 c-46 -89 -111 -223 -144 -298 l-60 -136 -20 -3 -20 -2
-267 73 c-148 41 -268 71 -268 67 0 -3 129 -41 286 -84 l287 -78 8 14 c5 7 39
81 75 163 37 83 101 214 142 293 41 79 72 145 70 148 -3 2 -43 -68 -89 -157z"/>
<path d="M83206 87012 l-5 -8 190 -68 c104 -38 189 -69 189 -70 0 -33 -214
-903 -235 -959 -17 -43 -19 -57 -6 -57 l8 0 16 43 c21 54 123 466 177 707 22
102 45 202 51 223 l10 38 9 -6 10 -6 0 15 0 16 -9 0 -10 0 10 32 c11 41 11 48
-1 48 l-9 0 -7 -35 c-3 -19 -9 -35 -13 -35 -3 0 -87 29 -186 65 -202 73 -182
67 -189 57z"/>
<path d="M84277 86933 c-20 -48 -41 -94 -45 -101 l-9 -13 -257 71 c-241 66
-286 76 -275 66 6 -7 516 -146 533 -146 l13 0 42 96 c23 52 41 100 39 105 l-3
10 -38 -88z"/>
<path d="M36540 86933 c0 -5 16 -18 35 -31 l35 -22 0 9 c0 9 -52 51 -64 51 -3
0 -6 -3 -6 -7z"/>
<path d="M62410 86911 c8 -5 78 -36 155 -69 77 -33 285 -124 463 -201 l323
-141 57 -39 c31 -21 67 -49 78 -62 l22 -24 97 -240 c53 -132 101 -245 107
-252 5 -6 22 -16 39 -22 l29 -10 0 7 c0 4 -15 14 -32 22 l-31 15 -98 244 -98
244 -28 29 c-15 17 -57 47 -93 68 l-65 39 -285 124 c-157 69 -314 138 -350
155 -143 65 -279 122 -291 122 l-14 -1 15 -8z"/>
<path d="M17940 86689 c0 -5 6 -11 13 -13 44 -13 776 -273 850 -301 l17 -7 0
13 0 14 -98 34 c-53 18 -234 82 -402 141 -168 59 -322 112 -342 118 l-38 10 0
-9z"/>
<path d="M4520 86112 l0 -8 68 -22 c37 -12 132 -48 212 -81 l144 -59 9 5 9 5
-93 40 c-115 48 -327 128 -340 128 -5 0 -9 -4 -9 -8z"/>
<path d="M26350 85925 c0 -3 46 -28 102 -56 l102 -51 175 -121 174 -121 95
-83 95 -83 6 5 5 6 -10 7 c-6 4 -55 46 -110 93 l-99 86 -160 110 -160 111 -70
35 c-83 41 -145 68 -145 62z"/>
<path d="M96896 85848 c15 -24 40 -62 55 -85 16 -23 29 -45 29 -50 -1 -4 -37
-30 -80 -58 -44 -27 -80 -54 -80 -58 l0 -8 13 7 c53 32 167 107 167 111 0 13
-113 183 -121 183 l-9 0 26 -42z"/>
<path d="M64251 85789 c-179 -18 -201 -22 -188 -36 l7 -6 192 17 c106 10 210
20 231 23 l37 6 0 8 0 9 -47 -1 c-27 -1 -131 -10 -232 -20z"/>
<path d="M56852 85593 l-93 -4 4 -12 4 -12 124 3 c68 1 150 5 181 8 l58 6 -6
9 -5 9 -87 -2 c-48 -1 -129 -4 -180 -5z"/>
<path d="M48460 85501 c0 -14 15 -17 233 -46 l197 -27 17 6 c9 4 14 9 11 11
-4 5 -419 65 -445 65 -7 0 -13 -4 -13 -9z"/>
<path d="M88256 84809 c-81 -314 -146 -572 -143 -575 5 -6 7 0 167 614 72 277
130 509 128 517 l-3 14 -149 -570z"/>
<path d="M80135 84878 c-3 -7 -29 -86 -59 -176 l-55 -163 12 -4 c258 -93 470
-166 473 -162 3 2 -101 41 -231 87 l-235 83 0 11 c0 7 24 85 54 174 30 89 52
162 50 162 -3 0 -7 -6 -9 -12z"/>
<path d="M71740 84707 c0 -13 161 -391 171 -401 l9 -10 0 7 c0 13 -161 392
-171 402 l-9 9 0 -7z"/>
<path d="M86190 84671 c0 -6 2 -11 6 -11 3 0 107 -27 231 -60 l227 -60 8 8 8
8 -218 57 c-119 32 -227 60 -239 64 l-23 5 0 -11z"/>
<path d="M89241 84646 c2 -2 103 -32 224 -66 121 -33 227 -63 235 -66 l15 -5
-10 9 c-5 6 -108 38 -227 71 -201 56 -248 68 -237 57z"/>
<path d="M86617 84332 l-29 -203 6 -6 6 -6 0 10 c0 6 12 90 26 187 14 98 24
187 22 199 l-3 22 -28 -203z"/>
<path d="M80066 84481 c5 -5 200 -75 434 -155 234 -81 521 -181 638 -223 117
-41 215 -73 218 -71 2 3 -94 40 -213 83 -413 147 -1068 375 -1077 375 l-10 0
10 -9z"/>
<path d="M82550 84381 l10 -19 -41 -79 -40 -78 -55 -53 c-70 -69 -74 -92 -10
-52 43 26 85 81 130 167 l38 73 -7 30 -7 30 -14 0 -15 0 11 -19z"/>
<path d="M23537 84364 l-7 -7 408 -179 c390 -172 656 -288 1085 -475 l198 -86
6 7 c3 3 4 8 2 10 -2 2 -191 85 -419 184 -228 99 -602 262 -830 362 -228 100
-420 184 -426 186 -5 3 -13 2 -17 -2z"/>
<path d="M83245 84014 c-88 -80 -168 -153 -179 -163 l-18 -19 7 -12 7 -12 57
55 c86 84 293 267 303 267 4 0 8 7 8 15 l0 15 -12 0 -13 -1 -160 -145z"/>
<path d="M83358 84053 c-25 -27 -54 -64 -64 -83 l-18 -35 -4 -242 -4 -243 10
0 10 0 4 238 3 237 22 40 21 40 41 40 c39 38 50 55 33 55 -4 0 -28 -21 -54
-47z"/>
<path d="M81381 84065 c9 -8 421 -156 425 -152 4 4 -408 157 -422 157 -4 0 -5
-2 -3 -5z"/>
<path d="M84280 83807 l-194 -151 12 -4 11 -3 178 137 c98 76 184 143 191 150
l14 12 -9 5 -9 6 -194 -152z"/>
<path d="M27470 83860 c-19 -11 -117 -47 -217 -80 l-183 -62 0 -9 c0 -5 5 -9
11 -9 19 0 356 118 398 140 l41 20 0 10 c0 14 -10 12 -50 -10z"/>
<path d="M81800 83871 c0 -6 140 -58 368 -138 l17 -6 -10 10 c-13 14 -375 142
-375 134z"/>
<path d="M24771 83761 l4 -12 215 -94 c197 -85 240 -101 214 -76 -7 7 -339
155 -423 189 l-14 5 4 -12z"/>
<path d="M76997 83349 c-65 -105 -116 -193 -114 -196 4 -3 175 264 241 375 l7
12 -8 0 c-4 -1 -61 -87 -126 -191z"/>
<path d="M82834 83507 c-61 -23 -124 -58 -156 -85 l-18 -15 0 -15 0 -15 23 20
c34 32 117 78 176 98 l53 17 72 -7 72 -6 59 -25 c33 -14 68 -28 78 -31 l17 -5
0 9 0 9 -76 32 -76 33 -81 5 -82 4 -61 -23z"/>
<path d="M82131 83479 c-11 -12 -23 -31 -27 -41 l-5 -18 11 -35 11 -34 35 -11
35 -12 30 13 31 12 9 25 10 25 -10 10 -10 10 -10 -25 -9 -25 -17 -7 c-9 -3
-25 -6 -35 -6 l-19 0 -15 16 -16 15 0 22 1 22 14 19 15 20 36 -1 35 -1 -4 11
-4 12 -35 3 -36 3 -21 -22z"/>
<path d="M82375 83468 l-50 -20 -42 6 -43 6 0 -14 0 -14 41 -4 42 -4 50 18
c56 20 61 23 56 36 l-4 10 -50 -20z"/>
<path d="M93006 83139 c-70 -100 -125 -184 -122 -186 2 -2 61 77 131 177 70
100 125 184 122 186 -3 3 -62 -77 -131 -177z"/>
<path d="M51131 82632 c2 -6 90 -66 194 -132 l190 -120 4 11 c1 6 1 11 0 13
-21 16 -364 229 -376 233 l-16 6 4 -11z"/>
<path d="M96661 82505 c2 -5 42 -84 89 -175 47 -91 86 -172 88 -180 l2 -15
-117 -64 -118 -64 -47 -51 c-26 -28 -47 -55 -47 -61 0 -5 23 15 52 46 l52 56
119 66 118 67 9 -6 9 -5 0 15 c0 8 -4 16 -8 18 -5 2 -48 80 -96 173 -48 94
-92 175 -98 180 l-10 10 3 -10z"/>
<path d="M86485 82069 c-4 -121 -5 -222 -2 -225 3 -3 8 70 11 163 3 92 8 194
10 226 l4 57 -8 0 -7 0 -8 -221z"/>
<path d="M18926 81932 l-5 -8 66 -18 65 -17 150 -75 150 -75 6 5 c8 9 10 7
-153 89 l-151 75 -54 16 c-62 18 -67 19 -74 8z"/>
<path d="M96460 81763 c-41 -59 -97 -138 -123 -175 -27 -37 -45 -68 -40 -68 7
1 219 291 246 336 l8 14 -8 0 c-4 -1 -42 -49 -83 -107z"/>
<path d="M96133 81378 c-66 -90 -123 -169 -128 -177 l-8 -14 10 6 c16 10 255
338 250 343 -3 3 -58 -68 -124 -158z"/>
<path d="M75095 81094 c-12 -70 -24 -106 -41 -125 l-16 -18 -109 -36 c-60 -20
-111 -40 -114 -45 l-5 -8 124 41 124 41 15 25 15 26 12 63 13 63 -6 5 -6 6 -6
-38z"/>
<path d="M42550 80837 c0 -7 15 -59 34 -115 l35 -102 7 -105 7 -105 13 0 14 0
0 13 c0 6 -5 53 -9 104 l-9 92 -38 116 -38 115 -8 0 c-4 0 -8 -6 -8 -13z"/>
<path d="M94610 80616 c0 -13 512 -386 1676 -1221 l307 -220 49 -23 48 -24 13
5 12 4 -60 31 -60 30 -302 219 c-167 120 -533 384 -815 587 -282 203 -588 425
-680 493 -148 109 -188 134 -188 119z"/>
<path d="M79322 80437 l-193 -142 3 -10 c2 -5 6 -9 10 -8 4 2 92 64 195 139
l188 135 3 15 3 14 -8 -1 c-4 0 -95 -64 -201 -142z"/>
<path d="M95463 80437 c-17 -24 -67 -94 -112 -155 -45 -62 -78 -112 -73 -112
4 0 59 70 120 155 62 85 108 155 104 155 -5 0 -22 -20 -39 -43z"/>
<path d="M43045 79885 l-70 -33 -33 -34 -33 -35 -110 -269 c-61 -148 -121
-295 -134 -326 l-24 -58 7 0 c4 0 65 142 136 315 l128 315 39 44 39 44 65 27
65 28 0 9 c0 4 -1 8 -2 7 -2 0 -34 -16 -73 -34z"/>
<path d="M42355 79550 l-30 -8 33 -1 32 -1 0 10 c0 6 -1 9 -2 9 -2 -1 -16 -5
-33 -9z"/>
<path d="M42770 79339 c-47 -116 -87 -216 -89 -222 l-3 -12 9 10 c14 14 175
413 171 424 -2 5 -41 -85 -88 -200z"/>
<path d="M77760 78725 c0 -3 33 -49 73 -103 40 -54 99 -139 131 -190 32 -51
63 -92 68 -92 l8 0 -71 108 c-76 113 -198 282 -205 282 -2 0 -4 -2 -4 -5z"/>
<path d="M99406 78722 c-14 -23 -146 -336 -143 -339 4 -3 21 35 123 270 18 42
31 77 29 77 -2 0 -6 -3 -9 -8z"/>
<path d="M44007 77938 c-33 -54 -247 -439 -247 -445 0 -4 4 -3 9 3 8 9 210
365 245 432 19 36 14 44 -7 10z"/>
<path d="M74838 76960 l-86 -80 -16 -47 -16 -47 0 -48 0 -48 15 0 15 0 0 50 0
51 14 32 14 32 85 84 86 85 -5 8 c-9 15 -18 9 -106 -72z"/>
<path d="M69196 76461 c-125 -149 -231 -273 -237 -277 l-10 -6 -35 29 c-20 15
-52 38 -72 50 l-37 23 -30 -1 -30 -1 30 -7 c45 -11 74 -29 128 -79 l48 -46 26
32 c14 18 122 148 240 288 118 141 213 258 210 260 -2 3 -107 -117 -231 -265z"/>
<path d="M74550 76631 c0 -6 5 -13 10 -16 l10 -6 0 15 0 16 -10 0 c-5 0 -10
-4 -10 -9z"/>
<path d="M74560 76543 c0 -9 14 -53 35 -112 l5 -14 6 6 6 6 -17 53 c-10 29
-21 57 -26 63 l-9 9 0 -11z"/>
<path d="M82482 74153 l-22 -118 0 -112 0 -113 10 0 10 0 0 113 1 112 23 118
23 117 -12 0 -11 0 -22 -117z"/>
<path d="M34160 73964 c0 -3 53 -62 117 -130 l117 -124 42 -25 c45 -27 64 -31
64 -15 l0 10 -37 19 -38 20 -125 125 c-113 115 -140 137 -140 120z"/>
<path d="M34128 73924 c-3 -3 53 -66 126 -141 l131 -135 38 -19 38 -20 10 7
11 6 -49 28 -49 28 -103 108 c-109 114 -145 147 -153 138z"/>
<path d="M74399 70675 l-7 -80 68 -377 68 -377 20 -28 c11 -15 38 -64 60 -109
l41 -81 21 -94 c12 -52 27 -98 32 -104 l10 -10 -6 20 c-3 11 -15 59 -26 107
l-21 88 -29 65 c-16 36 -43 85 -59 109 l-31 44 -61 338 -62 339 -6 115 -6 115
-6 -80z"/>
<path d="M13135 70078 c521 -292 787 -439 791 -435 6 5 -783 447 -799 447
l-12 -1 20 -11z"/>
<path d="M37982 68605 c11 -12 1330 -536 1336 -531 2 3 -6 10 -19 15 -13 5
-307 122 -654 261 -346 139 -639 255 -650 258 l-20 5 7 -8z"/>
<path d="M41301 67718 l-71 -203 0 -28 0 -28 10 6 10 6 0 22 c0 12 31 110 69
217 l70 195 -8 8 -8 8 -72 -203z"/>
<path d="M41417 67878 c-43 -114 -130 -368 -134 -394 l-6 -34 12 0 11 0 0 20
c0 11 32 109 70 216 39 108 70 198 70 200 0 10 -18 3 -23 -8z"/>
<path d="M2900 67793 l0 -10 190 -126 c104 -70 195 -127 201 -127 l10 0 -6 10
c-7 11 -357 248 -380 256 l-15 6 0 -9z"/>
<path d="M49325 67723 c13 -13 413 -135 427 -131 6 2 -83 32 -198 67 -115 35
-216 66 -224 69 l-15 5 10 -10z"/>
<path d="M41321 67375 c12 -19 26 -38 31 -42 l11 -6 -23 41 c-13 23 -27 42
-32 42 l-7 0 20 -35z"/>
<path d="M6464 67316 l-89 -75 -105 -3 -105 -3 107 -5 108 -5 82 68 c46 38 87
73 92 78 l10 9 -6 5 -5 6 -89 -75z"/>
<path d="M76678 67077 c-93 -50 -168 -95 -168 -99 0 -3 62 28 138 69 75 42
162 87 192 99 l55 24 -25 -1 -25 0 -167 -92z"/>
<path d="M39300 67084 c-13 -33 -13 -34 4 -34 l14 0 6 23 c8 31 7 37 -4 37
l-10 0 -10 -26z"/>
<path d="M4085 67091 c3 -5 88 -57 190 -116 l185 -107 12 4 12 4 -193 112
c-105 62 -196 112 -202 112 l-10 0 6 -9z"/>
<path d="M76112 66714 c-221 -125 -401 -229 -398 -231 3 -3 175 90 383 207
411 231 443 250 428 250 -6 0 -191 -102 -413 -226z"/>
<path d="M45490 66834 c-75 -103 -240 -363 -240 -378 l0 -10 14 19 c7 11 44
70 81 130 37 61 101 156 142 213 41 57 73 105 70 108 -2 2 -33 -34 -67 -82z"/>
<path d="M45505 66788 c-88 -124 -229 -348 -222 -355 3 -2 37 49 77 114 40 65
107 165 149 223 42 58 80 111 85 118 l7 12 -8 0 c-4 -1 -44 -51 -88 -112z"/>
<path d="M75935 66659 c-244 -139 -247 -140 -242 -145 4 -4 385 210 401 226
19 19 0 9 -159 -81z"/>
<path d="M43390 66670 l0 -11 10 6 10 6 21 -12 21 -11 -4 14 -5 13 -26 3 -27
3 0 -11z"/>
<path d="M45261 66416 c10 -10 435 -186 443 -183 4 1 -90 44 -210 95 -195 82
-247 102 -233 88z"/>
<path d="M41590 66266 c0 -3 153 -105 308 -204 12 -8 22 -11 22 -8 0 7 -315
216 -325 216 -3 0 -5 -2 -5 -4z"/>
<path d="M48716 66262 l-5 -9 122 -84 c67 -46 166 -115 221 -152 l98 -68 6 6
c7 7 20 -4 -158 120 -85 59 -183 127 -217 151 l-62 44 -5 -8z"/>
<path d="M97230 66180 l-235 -57 -340 -66 c-187 -37 -406 -78 -487 -93 l-146
-27 4 -12 5 -12 237 44 c497 90 675 127 940 191 l272 66 0 13 c0 16 26 21
-250 -47z"/>
<path d="M48705 66214 c73 -55 427 -296 430 -292 5 5 -429 308 -442 308 -4 0
1 -7 12 -16z"/>
<path d="M41550 66192 c0 -11 311 -215 317 -208 3 3 -21 22 -53 42 -33 21
-105 68 -161 106 l-103 68 0 -8z"/>
<path d="M97467 66143 l-5 -8 41 -203 42 -202 7 0 c5 0 8 6 8 14 0 19 -79 399
-84 404 -2 2 -6 0 -9 -5z"/>
<path d="M92395 66083 c3 -15 12 -80 20 -143 9 -63 25 -159 37 -212 l22 -98 8
0 c12 0 10 12 -13 103 l-20 82 -17 144 -17 144 -12 4 -13 5 5 -29z"/>
<path d="M94504 66085 c7 -42 43 -270 52 -330 3 -27 11 -57 16 -65 l9 -15 -5
30 c-2 17 -17 111 -32 210 l-27 180 -9 10 -10 10 6 -30z"/>
<path d="M94460 66096 c0 -11 59 -366 66 -395 3 -13 7 -22 9 -19 6 5 -60 407
-68 415 l-7 6 0 -7z"/>
<path d="M50331 65976 c32 -26 403 -276 406 -273 6 6 -385 277 -399 277 -6 0
-9 -2 -7 -4z"/>
<path d="M46640 65882 c0 -4 73 -39 163 -76 164 -69 448 -192 676 -292 68 -30
127 -54 132 -52 12 4 -792 358 -948 419 l-23 9 0 -8z"/>
<path d="M83514 65614 c-93 -69 -170 -129 -172 -135 l-4 -9 9 0 c4 0 86 58
181 129 l174 129 -10 5 -9 6 -169 -125z"/>
<path d="M83701 65663 c3 -27 12 -64 19 -83 l13 -35 48 -60 c26 -33 57 -82 70
-108 13 -26 27 -47 31 -47 l8 0 -26 53 c-15 28 -47 78 -72 110 l-45 59 -18 49
-19 49 0 30 0 30 -8 0 -8 0 7 -47z"/>
<path d="M83650 65672 c0 -5 7 -33 16 -63 l16 -54 74 -107 c41 -58 74 -111 74
-117 0 -6 5 -11 10 -11 l11 0 -17 33 c-9 17 -44 71 -77 120 -60 88 -86 143
-87 185 l0 22 -10 0 c-5 0 -10 -4 -10 -8z"/>
<path d="M94285 65618 c-115 -22 -212 -41 -214 -43 -1 -2 -1 -8 0 -13 l4 -9
125 23 c69 13 178 33 242 45 l118 22 -6 8 -5 9 -27 -1 c-15 -1 -121 -19 -237
-41z"/>
<path d="M3430 65464 c-12 -27 -28 -75 -35 -108 l-13 -58 7 -52 7 -52 23 -37
c12 -20 45 -56 72 -81 l50 -45 35 -11 c53 -18 51 -6 -6 30 l-50 32 -44 49 -45
50 -12 36 -12 36 7 60 6 59 27 60 26 59 -11 11 -10 10 -22 -48z"/>
<path d="M48866 65438 c-51 -81 -243 -428 -237 -428 6 0 121 196 238 405 25
46 25 63 -1 23z"/>
<path d="M92847 65271 l-237 -75 9 -9 9 -9 229 72 c125 40 230 73 232 75 1 2
1 8 0 13 l-4 8 -238 -75z"/>
<path d="M3650 64977 l0 -13 207 -27 207 -27 7 12 c5 7 7 14 5 15 -4 4 -380
53 -406 53 l-20 0 0 -13z"/>
<path d="M40572 64860 c55 -165 115 -330 120 -330 l7 0 -56 163 c-31 89 -61
167 -66 172 l-10 10 5 -15z"/>
<path d="M84006 64763 c13 -49 40 -149 60 -223 20 -74 41 -139 47 -145 l10
-10 -5 15 c-3 8 -31 113 -64 233 -32 119 -62 217 -65 217 l-7 0 24 -87z"/>
<path d="M47805 64582 c6 -5 64 -32 130 -60 66 -28 157 -66 203 -86 l82 -35 0
7 c0 6 -363 165 -413 181 l-12 4 10 -11z"/>
<path d="M37525 64511 l-7 -13 8 -8 9 -8 200 -11 c110 -6 212 -11 228 -11 l27
0 0 19 0 18 -115 7 c-63 3 -166 9 -229 12 l-113 7 -8 -12z"/>
<path d="M77173 64312 c4 -98 10 -193 13 -210 l7 -32 9 0 10 0 -6 28 c-3 15
-9 109 -12 210 l-7 182 -10 0 -10 0 6 -178z"/>
<path d="M50226 64352 c16 -14 386 -163 392 -158 2 3 -6 10 -20 15 -14 5 -102
41 -197 80 -169 70 -194 79 -175 63z"/>
<path d="M40720 64190 l0 -10 51 0 c28 0 150 -11 271 -25 121 -14 222 -24 225
-21 2 2 -13 7 -34 10 -47 8 -478 56 -498 56 l-15 0 0 -10z"/>
<path d="M40257 64162 l-17 -19 1 -29 1 -29 12 33 12 34 16 9 16 9 144 -16
c79 -9 144 -18 146 -19 2 -2 -9 -21 -23 -44 l-27 -40 6 -28 7 -27 115 -128
c106 -118 138 -149 117 -115 -4 7 -55 66 -113 131 l-105 117 -6 23 -7 24 30
46 30 46 19 0 19 0 0 10 c0 6 -5 10 -11 10 l-10 0 7 11 6 11 -24 -16 -25 -17
-129 16 c-71 8 -143 15 -160 15 l-31 0 -16 -18z"/>
<path d="M40668 64122 l-47 -27 -21 -27 -21 -27 11 -20 c15 -29 208 -245 223
-250 l12 -4 -31 34 c-17 19 -67 76 -112 126 l-82 93 0 12 c0 22 13 34 73 72
31 20 57 39 57 41 0 10 -16 4 -62 -23z"/>
<path d="M76958 64000 c-19 -30 -40 -65 -47 -77 l-11 -22 0 -53 c0 -60 8 -98
21 -98 l8 0 -6 68 -5 67 41 74 41 75 -3 10 -4 11 -35 -55z"/>
<path d="M96015 64022 c23 -23 328 -233 335 -230 8 3 -311 230 -333 237 l-12
4 10 -11z"/>
<path d="M78053 63987 l-203 -21 0 -14 0 -15 38 6 c20 3 121 14 225 23 l187
18 0 13 0 13 -22 -1 c-13 -1 -114 -11 -225 -22z"/>
<path d="M43481 63719 c-72 -111 -130 -206 -129 -210 2 -5 63 84 137 196 74
113 132 208 129 210 -3 3 -64 -85 -137 -196z"/>
<path d="M89635 63879 c5 -8 48 -59 96 -114 47 -55 105 -127 128 -159 46 -66
57 -65 13 1 -31 46 -218 269 -235 280 l-10 6 8 -14z"/>
<path d="M89621 63833 c102 -114 165 -190 204 -249 l45 -69 0 13 c0 7 -15 35
-34 63 -46 69 -217 269 -229 269 l-11 0 25 -27z"/>
<path d="M23922 63834 c-29 -20 -335 -134 -360 -134 -23 0 -32 -8 -26 -25 l5
-13 58 13 c68 16 278 96 333 127 l38 22 -3 10 c-6 17 -21 17 -45 0z"/>
<path d="M49672 63544 c-57 -97 -102 -178 -99 -180 2 -3 46 66 97 153 51 87
100 168 108 181 l14 22 -8 0 c-5 0 -55 -79 -112 -176z"/>
<path d="M41770 63626 c0 -5 29 -41 64 -81 35 -40 83 -101 106 -134 24 -34 47
-61 53 -61 l9 0 -9 13 c-5 6 -37 48 -71 92 -73 95 -152 184 -152 171z"/>
<path d="M93010 63612 c0 -4 74 -81 165 -172 l164 -164 8 7 7 8 -164 164
c-154 154 -180 177 -180 157z"/>
<path d="M13128 63574 c-37 -7 -77 -18 -87 -24 l-20 -10 -6 -21 -7 -21 6 -33
7 -33 37 -34 c20 -18 90 -66 154 -106 l117 -74 127 -34 c70 -19 131 -37 136
-40 4 -3 8 -3 8 0 0 11 -45 28 -150 56 l-110 29 -129 80 -128 81 -25 28 -26
27 -6 30 -7 30 13 18 13 17 70 16 c39 9 79 20 90 24 l20 9 -15 -1 c-8 0 -45
-6 -82 -14z"/>
<path d="M41271 63573 c2 -7 60 -75 128 -153 l124 -140 16 0 16 0 -21 18 c-12
9 -72 73 -134 142 -62 69 -117 130 -123 135 l-9 10 3 -12z"/>
<path d="M31830 63535 c0 -4 32 -43 70 -86 71 -78 80 -94 58 -102 l-13 -4 7
-8 7 -8 263 -28 c270 -29 315 -33 306 -24 -2 3 -117 16 -254 30 -137 15 -259
28 -271 31 l-22 4 5 14 5 14 -59 68 c-65 76 -102 111 -102 99z"/>
<path d="M16707 63488 l-8 -16 3 -155 3 -155 8 -8 c4 -4 8 -5 10 -3 1 2 0 83
-3 179 l-5 175 -8 -17z"/>
<path d="M16337 63322 l-27 -28 6 -7 6 -6 34 27 c36 29 43 42 21 42 l-13 0
-27 -28z"/>
<path d="M36839 63319 c0 -8 -19 -149 -43 -314 -39 -275 -43 -316 -32 -304 2
2 22 143 46 312 l42 308 -6 6 -6 6 -1 -14z"/>
<path d="M16357 63292 l-17 -19 0 -36 0 -37 29 -32 29 -33 7 7 7 7 -26 31 -26
32 0 29 c0 17 5 39 10 50 13 24 8 24 -13 1z"/>
<path d="M32082 63285 c7 -8 440 -57 446 -51 2 3 -11 7 -29 10 -38 6 -393 46
-411 46 l-11 0 5 -5z"/>
<path d="M60494 63142 c-40 -59 -78 -120 -87 -137 l-15 -30 -7 -68 c-4 -37
-10 -69 -14 -70 -3 -2 -99 4 -213 12 l-208 16 0 -7 0 -8 33 0 c30 0 352 -27
390 -32 l18 -3 4 69 5 68 18 42 c11 22 46 80 79 127 52 75 82 129 71 129 -2 0
-35 -49 -74 -108z"/>
<path d="M2920 63111 c0 -10 303 -283 321 -289 l9 -4 0 10 c0 9 -287 267 -317
285 l-13 8 0 -10z"/>
<path d="M15863 63103 l-103 -4 0 -14 0 -15 58 0 c33 0 114 3 180 7 l122 6 0
14 0 13 -77 -2 c-43 -1 -124 -4 -180 -5z"/>
<path d="M16710 63055 l0 -45 10 0 10 0 0 45 0 45 -10 0 -10 0 0 -45z"/>
<path d="M42795 62969 c-83 -73 -205 -181 -272 -242 l-123 -110 0 -11 0 -10
58 56 c31 30 154 140 272 243 192 168 231 205 218 205 -2 0 -71 -59 -153 -131z"/>
<path d="M38475 63059 c-3 -19 -28 -163 -54 -321 l-48 -288 7 0 7 0 51 317
c29 174 50 318 48 321 -3 2 -7 -11 -11 -29z"/>
<path d="M84673 63037 c6 -15 178 -311 224 -385 8 -13 17 -21 20 -19 5 6 -220
394 -239 412 l-11 10 6 -18z"/>
<path d="M15077 63023 c-4 -3 -7 -19 -7 -34 l0 -28 10 -6 11 -7 -2 41 c-2 23
-4 41 -4 41 -1 0 -5 -3 -8 -7z"/>
<path d="M15030 62993 l0 -32 10 -6 10 -6 0 23 c0 13 -5 30 -10 38 l-10 15 0
-32z"/>
<path d="M43843 62987 l-83 -22 -80 -64 c-44 -36 -78 -67 -75 -69 3 -3 39 23
82 58 l76 63 96 24 c53 14 98 27 100 29 9 9 -38 1 -116 -19z"/>
<path d="M58658 62922 c-37 -20 -68 -41 -68 -45 l0 -8 77 42 77 42 340 -27
c188 -15 357 -30 376 -33 l35 -5 -10 9 -10 10 -335 27 c-184 14 -353 26 -375
26 l-40 -1 -67 -37z"/>
<path d="M16720 62920 l0 -30 10 0 10 0 0 30 0 30 -10 0 -10 0 0 -30z"/>
<path d="M58705 62905 c-57 -31 -96 -57 -92 -62 3 -2 29 11 58 29 l54 33 50 0
c28 0 97 -3 155 -7 l105 -6 -45 8 c-25 4 -92 11 -150 14 l-105 7 -30 -16z"/>
<path d="M16920 62895 c-85 -7 -159 -14 -164 -14 l-9 -1 5 -5 6 -6 218 16
c121 9 221 19 223 21 7 7 -116 2 -279 -11z"/>
<path d="M57680 62895 c0 -6 6 -19 14 -30 l14 -20 246 -110 c135 -60 246 -112
246 -115 0 -3 -200 -164 -445 -359 -245 -195 -443 -356 -441 -359 4 -3 818
640 893 705 l22 19 -255 114 -255 113 -19 26 -19 26 -1 -10z"/>
<path d="M12535 62800 l-40 -8 160 6 c88 2 162 6 164 8 8 7 -244 1 -284 -6z"/>
<path d="M10873 62743 l-193 -3 0 -11 0 -11 193 7 192 7 10 9 9 9 -9 -2 c-6
-2 -97 -4 -202 -5z"/>
<path d="M57774 62227 l-441 -352 -61 -130 c-79 -169 -132 -295 -132 -315 0
-8 22 35 48 95 26 61 72 162 101 225 l54 115 439 350 c242 193 442 353 444
358 l5 7 -8 -1 c-4 0 -207 -159 -449 -352z"/>
<path d="M43270 62544 c26 -34 282 -314 287 -314 2 0 1 6 -3 13 -12 19 -273
306 -287 314 l-12 7 15 -20z"/>
<path d="M58660 62441 c0 -4 95 -48 210 -98 116 -49 210 -87 210 -84 0 4 -94
48 -210 98 -115 50 -210 88 -210 84z"/>
<path d="M58650 62402 c0 -6 94 -49 363 -167 l57 -25 0 8 c0 4 -44 26 -98 49
-53 23 -148 64 -209 92 -62 27 -113 47 -113 43z"/>
<path d="M48340 62143 c-74 -124 -145 -243 -158 -264 l-23 -39 8 0 c4 1 73
109 153 241 79 133 149 248 156 257 l11 15 72 -41 c40 -23 78 -42 84 -42 7 0
-26 22 -73 50 -47 27 -87 49 -90 49 -3 0 -66 -102 -140 -226z"/>
<path d="M48315 62174 c-53 -82 -185 -307 -182 -311 3 -2 50 71 106 163 56 92
100 169 98 171 -3 2 -12 -8 -22 -23z"/>
<path d="M77344 62170 c4 -14 47 -203 97 -420 50 -217 92 -397 95 -399 2 -2 7
-2 10 2 l6 5 -31 124 c-16 68 -46 197 -66 288 -49 228 -94 403 -106 415 l-10
10 5 -25z"/>
<path d="M98755 62154 c-19 -46 -19 -53 1 -122 l17 -57 64 -117 64 -118 11 0
10 0 -25 43 c-14 23 -45 83 -70 132 l-45 90 -13 51 -12 52 16 41 17 41 -10 0
-10 0 -15 -36z"/>
<path d="M59848 61808 c-35 -41 -103 -131 -152 -201 l-87 -128 4 -17 4 -17 8
20 c15 33 196 287 248 348 l50 57 -5 6 -6 5 -64 -73z"/>
<path d="M59867 61765 l-77 -92 -76 -119 -77 -119 -19 -65 c-10 -36 -32 -130
-48 -209 l-30 -144 1 -51 2 -51 9 65 c16 110 57 309 78 380 l20 67 90 139 89
139 58 62 58 63 150 -65 c82 -36 154 -64 158 -62 5 1 -57 31 -139 66 l-149 63
-10 13 -11 13 -77 -93z"/>
<path d="M94750 61761 c0 -7 419 -165 425 -160 2 2 -93 41 -211 85 -118 45
-214 79 -214 75z"/>
<path d="M55570 61601 c0 -16 79 -438 86 -464 3 -10 8 -17 10 -15 4 5 -84 479
-91 486 -3 3 -5 0 -5 -7z"/>
<path d="M60580 61570 c0 -5 5 -10 10 -10 6 0 10 5 10 10 0 6 -4 10 -10 10 -5
0 -10 -4 -10 -10z"/>
<path d="M58340 61456 c58 -32 783 -346 787 -342 3 3 -10 11 -28 19 -19 8
-199 87 -401 176 -328 144 -433 187 -358 147z"/>
<path d="M43525 61369 c100 -101 294 -273 301 -266 3 2 -37 41 -88 85 -51 44
-133 121 -183 171 -49 50 -94 91 -100 91 -5 0 26 -36 70 -81z"/>
<path d="M54550 61372 c0 -17 210 -925 215 -931 3 -2 5 1 5 7 0 20 -208 924
-214 930 l-6 5 0 -11z"/>
<path d="M60292 61219 l-153 -151 3 -9 3 -9 158 151 c143 137 172 170 150 169
-5 0 -77 -68 -161 -151z"/>
<path d="M61241 61146 c-1 -5 46 -233 104 -508 l105 -499 -6 -11 -7 -10 10 -7
10 -6 83 -390 c45 -214 84 -392 86 -394 10 -10 -1 47 -77 407 -44 211 -79 386
-76 388 2 2 87 21 188 41 101 20 186 38 188 40 17 13 -28 7 -193 -28 -104 -22
-190 -38 -191 -37 -1 2 -48 224 -104 493 -90 432 -118 553 -120 521z"/>
<path d="M19300 61023 l0 -8 178 -33 177 -33 60 10 60 9 -75 0 -75 -1 -145 27
c-80 15 -153 29 -162 32 l-18 5 0 -8z"/>
<path d="M85846 60923 c10 -16 56 -89 102 -163 47 -74 104 -160 128 -191 42
-54 321 -359 330 -359 12 0 -7 23 -129 153 -160 170 -234 267 -346 450 l-84
137 -10 0 -9 0 18 -27z"/>
<path d="M52421 60906 l-54 -11 -4 -11 c-4 -13 34 -255 42 -262 8 -9 6 18 -14
133 l-19 110 9 12 10 11 47 7 c27 3 54 10 62 16 l15 9 -20 -1 c-11 -1 -44 -6
-74 -13z"/>
<path d="M59710 60845 c14 -8 30 -14 35 -14 l10 0 -19 14 c-11 8 -27 15 -35
15 l-16 -1 25 -14z"/>
<path d="M50000 60820 l0 -9 15 5 c8 4 15 8 15 10 0 2 -7 4 -15 4 l-15 0 0
-10z"/>
<path d="M60720 60761 l-95 -26 -97 -55 c-54 -30 -98 -58 -98 -62 0 -4 46 19
103 51 l103 57 92 24 92 24 0 8 c0 4 -1 8 -2 7 -2 -1 -46 -13 -98 -28z"/>
<path d="M61760 60702 c0 -15 179 -883 187 -902 l5 -15 5 12 4 12 -92 443
c-50 244 -96 447 -100 453 l-9 9 0 -12z"/>
<path d="M62810 60703 c0 -5 19 -108 42 -230 l42 -223 8 0 c12 0 11 9 -32 233
-22 115 -40 213 -40 218 0 5 -4 9 -10 9 -5 0 -10 -3 -10 -7z"/>
<path d="M53444 60595 c8 -29 10 -337 3 -420 l-7 -70 11 30 11 30 1 213 0 213
-12 12 -13 12 6 -20z"/>
<path d="M86257 60429 c76 -83 148 -163 161 -178 l23 -26 -3 13 c-5 18 -299
342 -310 342 -5 0 53 -68 129 -151z"/>
<path d="M57310 60460 c0 -5 12 -40 26 -77 14 -38 31 -95 37 -127 l13 -60 11
-3 11 -4 -13 63 c-8 35 -18 76 -24 91 -6 16 -11 33 -11 38 l0 10 62 -51 c59
-50 131 -100 144 -100 16 0 -8 23 -83 79 l-83 62 -36 45 c-35 43 -54 55 -54
34z"/>
<path d="M38420 60383 c30 -2 224 -22 431 -43 206 -22 389 -39 405 -39 l29 1
-15 4 c-8 2 -186 22 -396 44 l-381 40 -64 -2 -64 -2 55 -3z"/>
<path d="M62540 60350 c-102 -21 -290 -60 -417 -86 -128 -26 -233 -50 -233
-53 0 -3 190 31 422 77 l423 84 10 9 9 9 -14 -1 c-8 0 -98 -18 -200 -39z"/>
<path d="M57201 60279 l-23 -47 -44 -32 c-24 -17 -46 -36 -50 -42 l-7 -11 14
8 c8 5 32 22 53 37 l40 29 24 39 23 40 -3 14 -3 13 -24 -48z"/>
<path d="M62185 60239 c-77 -16 -173 -36 -212 -45 l-73 -15 0 -8 0 -8 225 45
225 45 0 8 c0 12 -4 11 -165 -22z"/>
<path d="M58636 60229 c-59 -14 -57 -20 5 -13 l54 6 116 -238 c102 -210 163
-344 183 -408 l7 -19 12 15 c6 8 28 26 47 39 74 51 294 222 278 216 -10 -3
-80 -53 -155 -110 -76 -57 -147 -109 -159 -115 l-20 -11 -68 162 c-38 89 -107
235 -153 325 l-84 162 -12 -1 c-7 -1 -30 -5 -51 -10z"/>
<path d="M58642 60190 c-18 -4 -36 -10 -39 -14 l-6 -6 38 3 37 2 34 -60 c53
-95 264 -558 374 -823 23 -56 44 -101 47 -99 5 6 -128 327 -229 552 -78 173
-215 456 -221 454 -1 -1 -17 -5 -35 -9z"/>
<path d="M57425 60175 l-60 -12 17 -7 17 -8 55 12 56 11 0 10 0 9 -12 -1 c-7
-1 -40 -7 -73 -14z"/>
<path d="M46095 59958 l-220 -222 160 151 c198 187 303 293 290 293 -6 0 -109
-100 -230 -222z"/>
<path d="M57280 60123 c0 -27 -7 -84 -15 -127 -14 -71 -14 -98 0 -85 9 10 35
165 35 212 l0 47 -10 0 -10 0 0 -47z"/>
<path d="M61921 60151 c-1 -8 30 -165 68 -350 38 -185 72 -352 75 -371 l6 -36
-230 -47 -230 -48 -11 7 -11 7 -7 -10 -6 -10 -205 -42 c-113 -23 -207 -44
-209 -47 -14 -14 26 -8 211 30 l207 43 4 -11 c2 -6 35 -163 72 -348 l68 -338
-5 -6 c-3 -3 -95 -28 -205 -56 -109 -29 -200 -53 -202 -55 -2 -2 -2 -6 1 -9
l6 -5 194 50 c107 28 205 51 218 51 l22 0 -7 23 c-4 12 -36 164 -71 337 -35
173 -66 327 -69 342 l-6 26 33 10 c56 18 438 95 443 90 9 -9 74 -301 114 -512
37 -195 45 -226 55 -215 6 6 -65 356 -113 558 -23 96 -40 175 -39 176 2 2 95
22 208 45 l205 43 10 9 10 9 -25 -5 c-68 -16 -403 -86 -411 -86 -5 0 -9 6 -9
14 l0 13 415 83 415 83 0 7 0 7 -412 -84 -412 -83 -6 7 c-4 5 -37 157 -74 338
-37 182 -71 341 -76 355 l-8 25 -1 -14z"/>
<path d="M61228 60041 c-119 -26 -220 -50 -225 -55 l-8 -8 20 5 c11 3 112 25
225 48 113 23 207 43 209 45 13 12 -25 6 -221 -35z"/>
<path d="M93010 60003 c0 -4 48 -33 107 -63 l106 -55 126 -100 126 -100 95
-56 95 -56 228 -67 c125 -37 232 -66 238 -64 5 2 -94 34 -222 72 l-231 68
-102 61 -101 61 -122 97 -122 97 -110 56 -111 57 0 -8z"/>
<path d="M44901 59978 c-1 -9 328 -362 342 -367 7 -2 -20 31 -60 75 -116 128
-282 300 -282 292z"/>
<path d="M48765 59659 c-293 -386 -288 -379 -278 -379 4 1 108 132 230 293
277 364 287 377 276 376 -4 0 -107 -130 -228 -290z"/>
<path d="M43560 59830 l-35 -7 45 -1 45 -1 20 9 20 9 -30 -1 c-16 0 -46 -4
-65 -8z"/>
<path d="M63661 59825 c-1 -11 19 -110 44 -220 46 -200 177 -836 385 -1870
118 -582 309 -1487 316 -1494 11 -11 -2 54 -77 401 -44 205 -174 837 -289
1403 -266 1314 -356 1744 -375 1790 l-3 10 -1 -20z"/>
<path d="M59255 59724 c-60 -46 -140 -105 -177 -131 -38 -26 -68 -51 -68 -56
l0 -9 38 23 c36 22 186 133 285 210 l47 38 -7 4 -8 4 -110 -83z"/>
<path d="M93320 59766 c0 -3 33 -31 73 -64 80 -65 231 -159 277 -172 l30 -9 0
8 c0 5 -12 11 -27 14 l-28 6 -103 65 c-56 36 -126 85 -156 110 -49 42 -66 53
-66 42z"/>
<path d="M60357 59465 c-389 -78 -711 -146 -715 -150 l-7 -8 25 6 c14 3 336
67 715 143 380 75 692 139 694 141 2 1 2 5 0 6 -2 2 -322 -60 -712 -138z"/>
<path d="M59088 59365 c37 -85 70 -155 74 -155 4 0 -8 35 -26 78 -18 42 -48
112 -67 155 -18 42 -36 77 -40 77 -4 0 23 -70 59 -155z"/>
<path d="M47130 59496 c0 -3 -11 -55 -25 -118 l-24 -113 -36 -89 c-41 -104
-39 -96 -21 -96 l14 0 36 90 36 90 25 116 c30 137 29 124 10 124 -8 0 -15 -2
-15 -4z"/>
<path d="M49323 59133 c-146 -197 -293 -393 -326 -437 -33 -43 -55 -77 -49
-75 6 2 89 108 184 234 95 127 232 307 303 400 71 94 140 185 153 203 l24 32
-11 0 -12 0 -266 -357z"/>
<path d="M63721 59370 c-1 -8 38 -208 85 -445 l86 -430 10 -10 9 -10 -5 25
c-4 14 -45 214 -91 445 -47 231 -87 425 -89 430 l-4 10 -1 -15z"/>
<path d="M59621 59275 l-464 -92 9 -5 9 -5 468 93 c257 51 473 95 480 97 l12
5 -25 0 c-14 0 -234 -42 -489 -93z"/>
<path d="M61373 59292 l-212 -47 -8 -9 -8 -9 15 5 c8 3 107 24 220 48 113 23
209 47 215 51 l9 9 -9 -1 c-6 0 -105 -22 -222 -47z"/>
<path d="M63082 59313 c2 -10 44 -217 94 -460 l89 -443 8 0 c12 0 9 17 -83
471 -49 243 -90 443 -90 445 0 2 -5 4 -11 4 l-11 0 4 -17z"/>
<path d="M94655 59144 c77 -41 154 -86 172 -100 29 -22 83 -48 83 -40 0 14
-355 216 -381 216 l-14 0 140 -76z"/>
<path d="M63134 58618 c66 -321 121 -585 123 -587 2 -2 6 -1 10 2 l6 7 -119
580 -119 580 -11 0 -10 0 120 -582z"/>
<path d="M83830 59179 c0 -3 86 -169 191 -369 105 -200 198 -383 206 -407 9
-24 18 -42 21 -39 11 11 -37 112 -215 451 -165 313 -203 381 -203 364z"/>
<path d="M83804 59145 c4 -11 88 -175 188 -364 99 -189 188 -367 198 -395 l19
-51 0 16 c2 34 -31 103 -214 449 -177 336 -208 392 -191 345z"/>
<path d="M39560 58811 c0 -4 15 -13 33 -18 108 -37 346 -127 365 -139 l22 -14
0 10 c0 15 -41 33 -210 93 -85 31 -167 60 -182 66 l-28 11 0 -9z"/>
<path d="M49585 58528 c-82 -106 -152 -199 -158 -206 -5 -7 -8 -14 -5 -17 2
-2 75 88 162 201 86 113 155 208 153 211 -3 2 -71 -83 -152 -189z"/>
<path d="M51193 58570 l37 -55 0 -31 0 -32 -26 -17 -25 -16 -31 6 -31 7 7 -11
7 -11 30 0 30 0 23 15 24 16 6 35 7 34 -30 43 c-16 24 -37 50 -47 58 l-18 14
37 -55z"/>
<path d="M55071 58585 c18 -18 1236 -352 1246 -341 6 6 16 3 -322 91 -159 42
-429 116 -599 166 -291 84 -336 95 -325 84z"/>
<path d="M12372 58525 c-95 -12 -176 -25 -179 -29 l-6 -6 14 0 c8 1 111 14
229 29 l215 29 -50 0 c-27 0 -128 -11 -223 -23z"/>
<path d="M61540 58483 c-118 -30 -217 -58 -220 -62 -5 -6 -190 -47 -662 -145
-108 -23 -200 -45 -205 -50 l-8 -8 20 5 c11 3 202 43 425 87 222 45 414 87
425 93 11 6 114 34 228 63 195 49 227 59 216 67 -2 2 -101 -20 -219 -50z"/>
<path d="M62311 58239 c-1 -3 15 -84 34 -180 l35 -174 -4 -12 -5 -12 11 -7 10
-7 7 10 6 10 395 82 c458 95 442 92 436 98 -3 3 -192 -34 -421 -82 -228 -49
-417 -86 -420 -83 -3 2 -19 76 -35 164 -26 134 -47 216 -49 193z"/>
<path d="M34800 58044 c-107 -59 -197 -108 -199 -110 -30 -28 151 66 389 201
14 8 21 14 15 15 -5 0 -98 -48 -205 -106z"/>
<path d="M63994 58013 c3 -10 44 -214 91 -453 111 -561 175 -863 186 -875 l9
-9 0 13 c0 7 -29 144 -64 304 -36 161 -97 460 -137 665 l-73 372 -9 0 -8 0 5
-17z"/>
<path d="M63075 57980 c-71 -15 -156 -33 -188 -40 -32 -6 -56 -14 -53 -17 5
-5 407 75 415 83 10 10 -54 0 -174 -26z"/>
<path d="M46276 57971 l-6 -9 46 -57 47 -57 74 -131 c41 -73 79 -136 84 -141
l9 -10 0 13 c0 7 -32 70 -71 141 l-72 128 -53 66 -52 67 -6 -10z"/>
<path d="M35758 57840 c-56 -10 -179 -49 -192 -61 -14 -13 -7 -11 70 15 l70
23 88 13 88 12 72 -6 71 -7 120 -41 c66 -22 291 -110 499 -195 208 -84 381
-151 384 -149 3 3 -6 10 -19 15 -13 5 -202 81 -419 169 -217 88 -439 174 -493
191 l-97 31 -98 -1 c-53 -1 -118 -5 -144 -9z"/>
<path d="M35305 57694 c-233 -123 -231 -122 -224 -128 2 -2 96 46 209 106 256
136 257 137 245 138 -5 0 -109 -52 -230 -116z"/>
<path d="M55050 57734 c-107 -12 -201 -23 -209 -23 l-14 -1 6 -6 5 -6 209 23
208 22 10 9 9 8 -14 -1 c-8 -1 -103 -12 -210 -25z"/>
<path d="M46535 57610 l6 -10 32 1 32 1 -25 8 c-14 4 -31 8 -38 9 l-13 1 6
-10z"/>
<path d="M46768 57302 c120 -159 247 -324 284 -368 67 -79 135 -140 144 -131
3 3 -10 17 -29 31 -52 40 -152 163 -382 469 -115 155 -215 282 -222 285 l-12
3 217 -289z"/>
<path d="M38050 57553 c4 -16 20 -57 35 -93 l27 -65 -8 -50 c-4 -27 -8 -86 -9
-130 l-1 -80 -43 -145 c-24 -80 -46 -152 -49 -160 l-5 -15 10 10 c6 6 32 83
58 173 l47 163 -7 58 -7 58 15 36 15 35 -5 44 -6 43 -28 57 c-16 32 -29 64
-29 73 l0 15 -9 0 -10 0 9 -27z"/>
<path d="M76165 57419 l-140 -9 -65 -14 -65 -14 20 -1 c11 0 61 6 110 14 l90
15 98 0 97 0 0 10 c0 6 -1 9 -2 8 -2 0 -66 -5 -143 -9z"/>
<path d="M38055 57225 l3 -60 -29 -111 c-16 -61 -72 -235 -124 -385 -89 -258
-102 -300 -90 -287 12 11 213 610 234 696 l23 92 -10 58 -11 57 4 -60z"/>
<path d="M35451 57243 c5 -16 719 -616 725 -610 2 2 -145 130 -328 284 -183
154 -348 293 -367 309 l-34 28 4 -11z"/>
<path d="M53031 57246 c2 -2 100 -52 218 -111 l213 -106 6 6 c3 3 3 7 1 9 -13
13 -413 206 -427 206 -8 0 -13 -2 -11 -4z"/>
<path d="M25553 56943 c10 -15 407 -266 413 -261 2 3 -80 58 -183 123 -104 65
-199 126 -213 134 l-24 16 7 -12z"/>
<path d="M47230 56822 c0 -9 334 -303 360 -316 22 -11 -57 62 -218 202 -78 68
-142 119 -142 114z"/>
<path d="M35884 56331 l-282 -268 -41 -24 c-22 -12 -41 -25 -41 -28 0 -9 199
-85 205 -79 3 3 -35 20 -85 39 -49 18 -90 36 -90 39 0 3 12 13 28 22 46 27
615 568 597 567 -6 0 -137 -121 -291 -268z"/>
<path d="M90646 56521 c5 -5 52 -28 104 -51 52 -23 130 -59 173 -81 44 -22 81
-38 83 -36 8 7 -115 72 -241 127 -118 51 -136 57 -119 41z"/>
<path d="M82744 56285 c28 -118 54 -215 58 -215 l6 0 -12 53 c-7 28 -30 125
-51 215 -21 89 -41 162 -45 162 -4 0 16 -97 44 -215z"/>
<path d="M26470 56437 c0 -8 327 -177 342 -177 7 0 -61 39 -151 86 -174 91
-191 99 -191 91z"/>
<path d="M26450 56403 c0 -8 331 -183 346 -183 12 0 -40 30 -208 118 -76 40
-138 69 -138 65z"/>
<path d="M61770 56370 c0 -30 73 -406 81 -414 l8 -9 -4 19 c-3 10 -21 107 -41
214 -32 177 -44 227 -44 190z"/>
<path d="M64346 56231 l-18 -20 4 -11 3 -11 23 30 23 31 -9 0 c-5 0 -17 -9
-26 -19z"/>
<path d="M63730 56130 l0 -10 13 0 c8 0 22 -9 32 -20 10 -11 22 -20 26 -20 l9
0 -11 24 -11 24 -22 6 c-30 8 -36 7 -36 -4z"/>
<path d="M63342 56025 c-276 -59 -312 -69 -301 -79 4 -4 547 106 592 120 16 5
25 25 10 23 -5 -1 -140 -30 -301 -64z"/>
<path d="M63772 55999 l-24 -29 15 0 c16 0 47 31 47 48 0 19 -14 13 -38 -19z"/>
<path d="M50510 55993 c0 -6 20 -29 45 -52 l45 -41 52 -23 c73 -32 248 -90
254 -84 3 3 -39 20 -93 37 -54 18 -125 46 -158 62 l-60 30 -42 41 -43 41 0
-11z"/>
<path d="M8110 55961 l15 -8 218 -13 218 -13 5 6 6 6 -33 5 c-39 6 -360 26
-410 26 l-34 -1 15 -8z"/>
<path d="M8092 55924 c5 -4 387 -33 452 -34 l19 0 -5 6 c-5 4 -384 33 -447 34
l-24 0 5 -6z"/>
<path d="M63062 55910 l0 -25 5 13 c2 6 2 18 0 25 l-5 12 0 -25z"/>
<path d="M63017 55900 c3 -11 9 -20 13 -20 l8 0 -5 20 c-3 11 -9 20 -13 20
l-8 0 5 -20z"/>
<path d="M37740 55712 l-23 -199 -22 -25 c-12 -14 -28 -28 -36 -31 l-14 -5 20
-1 20 0 21 27 21 27 25 203 24 202 -6 0 -7 0 -23 -198z"/>
<path d="M62210 55693 c-146 -30 -267 -57 -269 -59 -2 -2 -2 -7 2 -10 l6 -6
253 51 c287 59 288 59 288 72 0 11 27 16 -280 -48z"/>
<path d="M61910 55726 l0 -16 10 0 c6 0 10 4 10 9 0 6 -4 13 -10 16 l-10 6 0
-15z"/>
<path d="M25950 55599 c0 -6 7 -23 16 -37 l16 -27 245 -168 c134 -93 246 -167
249 -165 2 3 -103 78 -233 168 -241 165 -272 191 -273 223 l0 17 -10 0 c-5 0
-10 -5 -10 -11z"/>
<path d="M37195 55492 l10 -9 189 -16 189 -16 30 15 c16 9 27 18 24 21 -3 2
-17 -2 -31 -9 l-26 -14 -143 13 c-78 6 -167 14 -197 18 l-55 6 10 -9z"/>
<path d="M89555 55470 c-9 -19 -60 -117 -112 -217 l-95 -183 10 0 10 0 107
205 106 206 -4 12 -4 12 -18 -35z"/>
<path d="M13000 55290 c-179 -46 -260 -75 -260 -92 l0 -8 48 23 47 24 175 43
c96 23 179 47 185 51 l9 9 -9 -1 c-6 0 -93 -22 -195 -49z"/>
<path d="M36110 55337 c0 -3 78 -75 174 -161 l175 -156 5 8 5 8 -170 149
c-159 140 -189 164 -189 152z"/>
<path d="M48685 55075 c-126 -63 -234 -116 -240 -118 -5 -2 -8 -6 -5 -9 3 -3
118 50 255 118 138 67 243 123 235 122 -8 0 -118 -51 -245 -113z"/>
<path d="M26510 55170 l0 -10 15 0 c8 0 15 2 15 4 0 2 -7 6 -15 10 l-15 5 0
-9z"/>
<path d="M53218 54933 c-8 -10 -28 -40 -43 -68 -16 -27 -75 -118 -132 -202
l-103 -152 9 -5 9 -6 129 198 c71 108 137 209 147 225 l16 27 -8 0 c-5 0 -16
-8 -24 -17z"/>
<path d="M53285 54930 c4 -14 9 -32 11 -41 l5 -16 -121 -184 c-67 -101 -126
-188 -131 -194 l-9 -9 -30 17 -30 18 0 -8 c0 -4 11 -16 24 -28 l25 -20 -230
-345 -230 -345 -43 -85 c-24 -47 -49 -103 -56 -125 -7 -22 -17 -45 -22 -52
l-9 -11 9 -6 10 -6 15 33 c8 17 18 43 22 57 4 14 23 56 42 93 l34 69 236 356
c129 197 236 358 238 360 4 4 478 -307 490 -322 6 -7 19 -15 29 -19 42 -16
754 -493 795 -533 l15 -14 -168 -80 c-93 -45 -166 -83 -164 -86 7 -7 643 303
705 344 l52 34 30 97 c60 195 73 242 69 246 -4 5 -20 -44 -77 -231 l-31 -102
-63 -40 c-34 -23 -124 -70 -199 -106 l-137 -64 -138 95 c-76 53 -257 175 -403
271 -146 96 -269 178 -274 183 l-10 9 84 122 c46 68 92 133 103 146 l20 22
-14 -1 -14 -1 -92 -136 -91 -137 -15 1 c-9 1 -123 72 -255 159 l-240 158 36
56 c19 31 80 122 134 204 l98 147 -20 38 -21 37 6 -25z"/>
<path d="M48544 54758 c111 -230 155 -318 161 -318 3 0 0 12 -8 28 -7 15 -60
125 -118 244 -57 120 -107 218 -111 218 -4 0 31 -78 76 -172z"/>
<path d="M52255 54742 l-100 -157 -169 -225 c-93 -124 -170 -227 -172 -229 -1
-2 -16 6 -32 18 -45 32 -48 25 -6 -14 20 -19 39 -35 42 -35 3 0 32 -23 64 -51
33 -28 61 -49 64 -46 3 3 -23 29 -58 58 l-63 53 3 8 c1 5 70 99 153 210 153
203 382 543 377 558 -2 5 -48 -62 -103 -148z"/>
<path d="M52670 54722 c0 -10 260 -186 266 -180 2 3 -57 46 -131 97 l-135 92
0 -9z"/>
<path d="M32056 54692 c27 -25 364 -240 364 -233 0 9 -352 241 -366 241 l-8 0
10 -8z"/>
<path d="M50173 54592 c-95 -48 -173 -90 -173 -94 l0 -8 91 45 90 46 20 -26
c11 -14 25 -25 32 -25 l11 0 -27 28 -27 28 80 39 c44 21 80 43 80 47 0 10 19
19 -177 -80z"/>
<path d="M18067 54613 l-5 -8 87 -217 86 -218 12 0 11 0 -89 221 c-48 122 -90
224 -93 226 -2 2 -6 1 -9 -4z"/>
<path d="M51120 54572 c0 -10 103 -96 210 -177 36 -26 69 -52 74 -56 l9 -8
-78 -86 c-43 -47 -76 -88 -73 -90 3 -3 38 32 78 77 40 46 78 85 84 88 6 3 12
11 14 18 l2 12 -16 0 -16 0 -87 67 c-47 37 -112 89 -143 116 l-58 49 0 -10z"/>
<path d="M51885 54403 c-165 -215 -178 -233 -168 -232 4 0 24 21 43 47 20 26
85 111 144 190 60 78 107 144 105 147 -3 2 -59 -66 -124 -152z"/>
<path d="M52960 54472 c0 -4 9 -13 20 -20 l20 -12 0 8 c0 4 -9 13 -20 20 l-20
12 0 -8z"/>
<path d="M49838 54427 c-27 -11 -48 -24 -48 -29 l0 -8 53 26 c81 41 78 48 -5
11z"/>
<path d="M53042 54421 c4 -12 469 -314 474 -308 3 2 -8 13 -23 23 -248 162
-454 293 -451 285z"/>
<path d="M49330 54390 c-8 -5 -12 -11 -9 -14 2 -3 11 -1 19 4 8 5 12 11 9 14
-2 3 -11 1 -19 -4z"/>
<path d="M88034 54391 c-12 -5 -31 -22 -43 -37 l-21 -27 0 -38 c0 -20 3 -44 6
-53 l6 -16 8 5 8 5 -5 44 -5 45 27 25 28 26 31 0 32 0 22 -16 22 -15 10 6 11
7 -24 18 -23 18 -35 6 -34 5 -21 -8z"/>
<path d="M49082 54218 c-128 -66 -231 -122 -229 -125 3 -2 114 52 248 121 134
69 237 126 229 125 -8 0 -120 -54 -248 -121z"/>
<path d="M50290 54306 c0 -2 51 -48 113 -101 61 -54 123 -107 137 -119 14 -12
51 -37 82 -56 l57 -35 25 -45 26 -45 -1 15 c0 8 -10 32 -23 53 l-24 39 -62 38
-63 39 -120 103 c-118 101 -147 124 -147 114z"/>
<path d="M5736 54242 l-4 -8 211 -74 c117 -40 218 -76 226 -78 l14 -5 -5 13
-4 13 -208 73 c-220 78 -222 79 -230 66z"/>
<path d="M49172 54088 c-139 -72 -250 -133 -248 -136 4 -3 510 251 525 264 2
2 -2 4 -10 3 -8 0 -128 -59 -267 -131z"/>
<path d="M32790 54204 c1 -5 35 -35 76 -67 l75 -58 -3 -33 -3 -34 -243 -207
c-134 -114 -241 -209 -238 -212 2 -3 115 89 249 204 l245 208 1 42 1 41 -67
53 c-38 28 -74 56 -80 62 l-13 9 0 -8z"/>
<path d="M22636 54023 c-86 -91 -155 -168 -153 -170 3 -2 38 31 78 74 41 43
114 119 163 170 l90 93 -11 0 -12 0 -155 -167z"/>
<path d="M51683 54164 l-6 -15 -13 5 -14 5 0 -8 c0 -14 189 -163 234 -184 l41
-20 95 -86 c93 -84 257 -207 265 -199 3 2 -30 29 -72 59 -43 29 -129 100 -192
157 l-115 102 -12 0 c-7 0 -58 36 -114 80 l-100 80 10 20 c6 11 8 20 5 20 -3
0 -8 -7 -12 -16z"/>
<path d="M51195 54110 l-18 -20 7 -7 7 -7 20 21 21 21 -10 6 -9 6 -18 -20z"/>
<path d="M51575 54044 c-38 -46 -72 -90 -74 -97 -5 -15 -6 -17 78 81 59 69 83
104 69 102 -2 -1 -34 -39 -73 -86z"/>
<path d="M48862 54015 c23 -47 46 -85 50 -85 l8 0 -42 85 c-23 47 -46 85 -50
85 l-8 0 42 -85z"/>
<path d="M21210 53980 c0 -3 57 -17 128 -30 l127 -24 88 -37 87 -38 0 8 c0 4
-35 22 -77 40 l-78 33 -137 27 -138 28 0 -7z"/>
<path d="M51471 53938 l4 -17 130 -110 130 -110 4 10 c1 6 1 11 0 13 -5 3
-218 185 -248 210 l-23 21 3 -17z"/>
<path d="M6164 53445 l0 -210 9 66 9 66 -10 144 -9 144 1 -210z"/>
<path d="M65948 53551 c-120 -26 -221 -51 -225 -56 l-8 -8 20 5 c11 3 116 25
232 49 l213 44 0 8 c0 9 24 13 -232 -42z"/>
<path d="M30203 53485 c0 -60 3 -175 7 -255 l6 -145 1 205 1 205 -8 50 -7 50
0 -110z"/>
<path d="M52330 53586 c0 -11 49 -109 49 -99 1 15 -37 103 -44 103 -3 0 -5 -2
-5 -4z"/>
<path d="M29563 53492 c-112 -36 -203 -69 -203 -73 0 -8 401 120 415 132 l9 9
-9 -1 c-6 -1 -101 -31 -212 -67z"/>
<path d="M8703 53437 c-117 -44 -213 -83 -213 -87 0 -6 417 146 429 156 19 16
-33 0 -216 -69z"/>
<path d="M48625 53454 c-44 -26 -169 -92 -278 -149 l-197 -102 6 -6 7 -6 156
81 c86 44 209 110 274 145 l117 65 0 9 c0 12 6 14 -85 -37z"/>
<path d="M51140 53355 c-102 -52 -182 -94 -177 -94 10 -1 367 178 367 184 0 7
14 13 -190 -90z"/>
<path d="M51970 53430 l-15 -10 18 0 17 0 0 10 c0 12 -1 12 -20 0z"/>
<path d="M51927 53414 l-6 -7 63 -76 c35 -42 76 -97 91 -121 l28 -45 5 13 4
13 -27 41 c-24 37 -145 188 -150 188 -1 0 -5 -3 -8 -6z"/>
<path d="M54705 53305 c-9 -32 -14 -59 -11 -62 3 -3 12 20 21 52 9 31 15 59
12 61 -3 3 -13 -20 -22 -51z"/>
<path d="M64578 53271 l-196 -36 -9 -9 -8 -9 25 6 c14 3 106 20 205 38 99 17
182 33 184 35 14 12 -24 7 -201 -25z"/>
<path d="M50465 53280 l-6 -10 10 0 c6 0 11 5 11 10 0 6 -2 10 -4 10 -3 0 -8
-4 -11 -10z"/>
<path d="M52448 53266 l-17 -24 -91 -7 -90 -7 0 -7 c0 -4 4 -11 9 -16 4 -6 37
-73 72 -150 68 -149 115 -235 130 -235 l9 0 -30 48 c-16 26 -59 113 -95 192
-37 80 -71 148 -77 151 l-9 6 87 7 87 6 14 12 c8 6 19 20 24 30 l10 18 -8 0
c-4 0 -16 -11 -25 -24z"/>
<path d="M53670 53170 l0 -53 102 -196 102 -196 20 -17 21 -16 9 6 10 6 -22 9
-22 10 -106 206 -105 206 3 37 2 37 -7 7 -7 7 0 -53z"/>
<path d="M48116 53181 l-6 -9 198 -410 197 -411 12 -1 c6 0 15 5 18 10 l7 11
-198 409 -198 410 -12 0 c-7 0 -15 -4 -18 -9z"/>
<path d="M52065 53124 c-11 -8 -123 -69 -248 -136 -125 -66 -226 -123 -223
-125 6 -6 474 243 496 263 l14 14 -9 0 c-6 0 -19 -7 -30 -16z"/>
<path d="M66453 53031 c-123 -25 -223 -49 -223 -52 0 -9 442 81 455 92 l9 9
-9 -1 c-6 -1 -110 -22 -232 -48z"/>
<path d="M66080 52995 c-58 -12 -154 -33 -215 -46 l-110 -23 15 -3 c16 -4 440
84 448 92 10 9 -33 3 -138 -20z"/>
<path d="M52990 52893 c-124 -63 -214 -112 -200 -108 28 8 392 188 424 211 47
33 -11 6 -224 -103z"/>
<path d="M77910 52849 c0 -26 62 -264 93 -353 l33 -100 7 11 7 10 -34 99 c-18
55 -45 154 -61 222 l-28 122 -9 0 c-4 0 -8 -5 -8 -11z"/>
<path d="M65062 52785 c-117 -24 -216 -46 -220 -50 l-7 -7 40 7 c166 30 416
82 421 88 l7 7 -14 -1 c-8 -1 -110 -21 -227 -44z"/>
<path d="M48380 52740 c0 -5 18 -21 39 -36 l40 -26 10 -30 c6 -17 11 -42 11
-54 l0 -24 15 0 15 0 0 26 c0 15 -5 43 -11 63 l-11 36 -36 28 -35 27 -19 0
-18 0 0 -10z"/>
<path d="M48278 52729 l-17 -10 5 -14 6 -14 19 12 19 12 0 12 c0 15 -9 16 -32
2z"/>
<path d="M52764 52648 c24 -51 80 -169 125 -263 l82 -170 28 -30 28 -30 144
-293 143 -294 4 10 3 10 -146 294 -147 293 -27 30 -27 30 -120 252 c-65 139
-122 252 -126 253 -4 0 13 -42 36 -92z"/>
<path d="M52825 52725 c3 -11 43 -89 88 -175 45 -85 168 -332 272 -547 105
-216 193 -393 197 -393 13 0 -485 1015 -537 1095 l-27 40 7 -20z"/>
<path d="M30091 52521 l-12 -109 12 -141 12 -141 7 0 6 0 -13 143 -12 142 13
108 13 107 -7 0 -7 0 -12 -109z"/>
<path d="M54491 52603 c-1 -7 -4 -12 -8 -11 -13 3 -83 -25 -83 -34 0 -12 22
-9 54 7 37 19 36 20 36 -12 l0 -28 -50 -164 -50 -163 2 -42 1 -41 4 35 c2 19
26 107 52 195 27 88 51 174 53 190 l5 30 -7 25 -8 25 -1 -12z"/>
<path d="M54385 52540 c8 -16 15 -35 15 -42 0 -8 -27 -83 -60 -168 l-60 -155
0 -37 0 -37 11 -6 10 -7 -6 34 -6 33 60 158 c34 87 61 166 61 175 0 24 -23 82
-32 82 l-9 0 16 -30z"/>
<path d="M22522 52331 l-41 -99 -36 -142 c-20 -78 -34 -147 -32 -154 2 -6 18
50 36 124 l33 135 45 108 45 107 16 10 17 9 -20 1 -21 0 -42 -99z"/>
<path d="M27696 52170 c-3 -60 -8 -161 -11 -222 l-4 -113 8 45 c10 52 26 400
18 400 -2 0 -7 -49 -11 -110z"/>
<path d="M18560 52248 c0 -13 -9 -115 -20 -228 l-20 -205 -29 -135 c-16 -74
-45 -186 -64 -248 l-35 -112 9 -6 9 -5 5 13 c32 99 73 250 96 358 l29 135 20
205 c11 113 20 215 20 228 l0 22 -10 0 -10 0 0 -22z"/>
<path d="M12906 52201 l-6 -9 184 -131 c102 -72 192 -134 200 -137 l16 -6 0
10 0 10 -182 130 c-101 70 -188 132 -195 135 l-12 7 -5 -9z"/>
<path d="M30355 52139 c-137 -15 -254 -28 -259 -28 -5 -1 -7 -3 -4 -6 5 -6
510 45 517 51 12 10 -23 8 -254 -17z"/>
<path d="M32955 51970 c-27 -5 -126 -19 -220 -31 l-170 -22 13 -5 c17 -5 421
47 447 58 l20 9 -20 -1 c-11 0 -42 -4 -70 -8z"/>
<path d="M90880 51810 l0 -10 14 0 c8 0 96 -39 196 -86 l182 -85 6 6 6 5 -10
9 c-5 5 -87 45 -183 90 l-174 81 -18 0 -19 0 0 -10z"/>
<path d="M18455 51778 c-2 -7 -11 -50 -20 -95 -9 -46 -34 -142 -55 -215 -35
-119 -41 -153 -24 -136 10 11 76 243 99 351 l23 107 -9 0 c-5 0 -11 -6 -14
-12z"/>
<path d="M13686 51712 l-5 -9 173 -118 174 -117 11 7 12 7 -175 119 c-96 65
-177 119 -180 119 -3 0 -7 -4 -10 -8z"/>
<path d="M53022 51487 l-23 -10 4 -11 c5 -16 21 -16 41 -1 l20 15 -10 9 -9 9
-23 -11z"/>
<path d="M53080 51490 l0 -10 23 -9 c12 -5 32 -11 45 -15 l22 -7 0 14 0 15
-27 6 c-16 4 -36 9 -45 12 l-18 5 0 -11z"/>
<path d="M88037 51322 l-179 -136 12 -4 11 -4 175 133 c96 73 177 136 180 141
l5 8 -13 -1 c-7 0 -93 -62 -191 -137z"/>
<path d="M52929 51342 l-34 -39 -55 -35 c-30 -19 -278 -148 -550 -287 -272
-139 -499 -257 -504 -262 l-10 -9 6 -5 6 -6 502 251 c277 138 530 269 564 290
l62 39 33 42 33 41 -10 10 -9 9 -34 -39z"/>
<path d="M34049 51309 l-11 -21 9 -9 9 -9 11 30 11 30 -9 0 c-4 0 -13 -9 -20
-21z"/>
<path d="M12930 51316 c0 -16 667 -482 676 -473 3 3 -92 71 -210 151 -119 81
-270 187 -336 236 -113 84 -130 96 -130 86z"/>
<path d="M12934 51257 c62 -51 647 -449 652 -444 3 2 -129 96 -293 208 -164
111 -316 218 -339 236 -23 18 -45 33 -50 33 -5 -1 9 -15 30 -33z"/>
<path d="M6021 51271 c-1 -7 17 -81 39 -165 60 -222 71 -259 75 -254 4 3 -97
392 -109 423 l-4 10 -1 -14z"/>
<path d="M6055 51262 c3 -12 31 -108 60 -213 30 -105 57 -194 61 -198 l6 -6
-5 20 c-3 11 -29 106 -58 210 -29 105 -56 195 -62 200 l-9 10 7 -23z"/>
<path d="M33884 51268 l11 -8 62 0 62 0 5 9 5 8 -78 -1 -79 -1 12 -7z"/>
<path d="M60482 51122 l-183 -77 11 -3 12 -4 176 72 c98 40 181 77 187 82 l9
8 -14 -1 c-8 0 -97 -35 -198 -77z"/>
<path d="M26356 50972 l-6 -10 58 -6 c31 -3 135 -8 230 -12 l172 -6 0 10 0 10
-177 6 c-98 4 -199 9 -224 12 l-47 6 -6 -10z"/>
<path d="M5250 50880 l0 -10 13 0 c6 0 183 -22 392 -49 209 -27 461 -57 560
-66 l180 -17 97 -24 c53 -13 107 -24 119 -24 l22 0 -7 7 c-3 4 -58 19 -122 35
l-116 28 -211 20 c-117 11 -369 40 -562 65 -399 51 -365 48 -365 35z"/>
<path d="M74874 50836 l-171 -51 -462 -249 c-254 -136 -460 -250 -457 -253 2
-3 214 108 470 246 l465 250 163 47 c90 26 165 49 167 51 19 14 -28 3 -175
-41z"/>
<path d="M27764 50750 l0 -135 3 68 c2 37 2 97 0 135 l-3 67 0 -135z"/>
<path d="M33504 50790 c16 -109 29 -171 33 -166 6 6 -26 198 -34 206 l-6 5 7
-45z"/>
<path d="M32443 50764 c3 -11 9 -45 13 -77 l6 -57 11 -7 10 -6 -6 16 c-3 8 -9
43 -13 77 l-7 60 -9 6 -10 7 5 -19z"/>
<path d="M69455 50482 l-1 -217 7 55 c4 30 7 120 7 200 l1 145 -7 17 -7 17 0
-217z"/>
<path d="M8490 50672 l0 -10 23 -5 c12 -3 60 -9 107 -13 l85 -7 110 -38 c115
-41 135 -45 135 -30 l0 10 -127 40 -128 40 -80 6 c-44 4 -90 9 -102 12 l-23 5
0 -10z"/>
<path d="M8936 50512 l-6 -10 112 -38 113 -37 98 -47 98 -46 5 7 4 8 -12 8
c-43 26 -168 80 -263 113 -60 21 -117 41 -126 45 l-17 6 -6 -9z"/>
<path d="M69454 49847 c-17 -232 -29 -424 -27 -426 2 -2 5 -2 7 0 2 2 16 192
32 422 l29 419 -5 3 -6 4 -30 -422z"/>
<path d="M15111 49996 c2 -2 56 -22 119 -46 63 -24 141 -56 172 -71 32 -16 63
-29 70 -29 39 2 -306 150 -349 150 -9 0 -14 -2 -12 -4z"/>
<path d="M30537 49913 c3 -49 7 -90 9 -92 2 -2 4 37 4 87 l0 92 -10 0 -9 0 6
-87z"/>
<path d="M31741 49955 l-1 -50 10 -15 10 -15 -1 25 c0 14 -4 43 -8 65 l-9 40
-1 -50z"/>
<path d="M32567 49968 c8 -44 13 -48 13 -10 l0 31 -10 6 -10 6 7 -33z"/>
<path d="M33670 49879 c0 -17 38 -321 46 -368 3 -18 7 -31 10 -28 6 5 -43 398
-51 405 -3 3 -5 -1 -5 -9z"/>
<path d="M33710 49884 c0 -26 51 -388 55 -392 3 -3 5 1 5 9 0 31 -50 382 -55
387 -3 3 -5 1 -5 -4z"/>
<path d="M49708 49824 c-29 -15 -35 -28 -19 -39 l10 -5 34 16 35 17 -5 13 c-7
18 -21 17 -55 -2z"/>
<path d="M22895 49729 c72 -3 171 -7 220 -6 l90 0 -75 7 c-41 4 -140 7 -220 7
l-145 0 130 -8z"/>
<path d="M86190 49712 c-47 -24 -340 -251 -340 -263 0 -5 2 -9 5 -9 3 0 76 55
161 121 86 67 170 128 185 136 16 8 29 19 29 24 0 12 0 12 -40 -9z"/>
<path d="M28353 49683 l7 -6 7 6 6 7 -13 0 -13 0 6 -7z"/>
<path d="M64620 49620 l0 -10 15 0 15 0 0 10 0 10 -15 0 -15 0 0 -10z"/>
<path d="M84590 49585 c0 -11 480 -640 507 -665 l16 -15 -8 15 c-8 14 -488
644 -506 665 l-9 9 0 -9z"/>
<path d="M38151 49524 c-6 -22 -28 -108 -50 -191 l-39 -153 6 0 c9 0 105 371
98 377 -3 3 -9 -12 -15 -33z"/>
<path d="M36030 49444 c0 -5 12 -85 26 -179 l27 -170 9 -10 9 -10 -5 25 c-3
14 -17 97 -31 184 -22 137 -35 195 -35 160z"/>
<path d="M12180 49112 l0 -118 11 -59 11 -59 30 -61 c17 -33 46 -80 66 -104
l36 -44 58 -38 59 -38 77 -25 c42 -14 101 -28 130 -32 l52 -7 0 11 0 10 -60 7
-61 7 -73 28 c-40 15 -94 42 -122 59 l-49 32 -34 42 c-18 23 -45 67 -61 97
l-27 55 -12 55 -12 55 1 123 1 122 -11 0 -10 0 0 -118z"/>
<path d="M83240 49086 l8 -35 101 -140 c56 -77 107 -144 113 -147 l11 -7 -8
14 c-5 8 -55 78 -112 156 l-103 143 0 25 0 25 -9 0 -9 0 8 -34z"/>
<path d="M64320 49051 c-14 -27 -13 -54 4 -77 l15 -19 -6 42 -6 43 13 15 12
15 -10 0 c-6 0 -16 -9 -22 -19z"/>
<path d="M91439 48708 c-68 -78 -153 -178 -188 -223 -35 -44 -114 -132 -176
-195 -61 -63 -151 -158 -200 -210 l-88 -95 -43 -65 c-64 -98 -116 -161 -478
-570 l-332 -376 -59 -102 -58 -103 -28 -15 -28 -14 -108 -11 c-60 -7 -109 -13
-111 -14 -2 -1 14 -44 34 -94 l36 -91 10 0 10 0 -9 13 c-11 14 -63 143 -63
156 l0 8 93 8 92 7 41 18 42 18 58 103 59 104 305 345 c383 432 428 486 496
587 l54 82 87 93 c48 51 137 145 198 208 62 63 141 151 175 195 58 72 224 267
288 337 14 15 23 30 20 33 -2 3 -61 -59 -129 -137z"/>
<path d="M76000 48800 l-14 -9 5 -6 6 -5 17 6 c9 3 16 10 16 15 0 11 -11 11
-30 -1z"/>
<path d="M35833 48671 l-221 -16 -9 -8 -8 -9 70 7 c39 3 160 12 269 20 109 8
201 17 204 20 7 7 -51 5 -305 -14z"/>
<path d="M32875 48510 l-80 -5 3 -30 c5 -51 33 -210 38 -214 7 -8 4 22 -11
109 -8 47 -15 95 -15 107 l0 22 83 3 82 3 -10 5 c-5 3 -46 3 -90 0z"/>
<path d="M74863 48290 c56 -115 103 -207 106 -205 6 6 -192 415 -201 415 -3 0
39 -94 95 -210z"/>
<path d="M83747 48388 c6 -7 63 -84 126 -170 64 -87 119 -158 122 -158 9 0 -3
18 -125 183 -63 86 -119 157 -124 157 l-8 0 9 -12z"/>
<path d="M37845 48147 c-175 -8 -206 -11 -194 -20 2 -2 65 0 139 4 74 4 177 9
228 10 l92 3 0 8 0 8 -37 -2 c-21 0 -123 -5 -228 -11z"/>
<path d="M29427 47920 c3 -96 9 -197 14 -225 l7 -50 -5 175 c-3 96 -9 198 -14
225 l-7 50 5 -175z"/>
<path d="M51120 47911 c0 -4 16 -42 35 -82 20 -41 34 -67 31 -59 -2 8 -12 45
-22 83 l-18 67 -13 0 c-7 0 -13 -4 -13 -9z"/>
<path d="M90245 47389 l-350 -400 -52 -92 -52 -91 -27 -14 -26 -14 -114 -12
-114 -12 -12 -12 -11 -11 43 -106 c23 -58 45 -104 47 -101 3 3 -11 46 -31 96
-20 49 -36 96 -36 104 l0 14 33 5 c17 3 68 9 112 13 l80 6 31 13 32 13 57 100
56 101 337 383 c185 211 343 392 351 401 l13 17 -8 0 c-5 -1 -166 -181 -359
-401z"/>
<path d="M72721 47725 c-7 -33 -26 -120 -42 -194 -16 -74 -27 -137 -24 -139 7
-7 11 9 50 196 l37 172 -5 13 -4 12 -12 -60z"/>
<path d="M51194 47735 c4 -11 14 -47 23 -80 l15 -60 30 -55 c16 -30 26 -46 23
-35 -22 67 -87 240 -92 245 -3 3 -3 -4 1 -15z"/>
<path d="M34020 47674 c0 -66 65 -392 82 -409 l9 -10 -6 30 c-4 17 -13 55 -21
85 -8 30 -23 113 -34 185 -20 121 -30 164 -30 119z"/>
<path d="M22320 47576 c0 -2 9 -6 20 -9 l20 -5 0 9 0 9 -20 0 c-11 0 -20 -2
-20 -4z"/>
<path d="M51290 47470 l0 -13 7 6 6 7 -6 7 -7 6 0 -13z"/>
<path d="M39382 47390 c3 -8 25 -98 48 -200 l43 -185 10 -10 9 -10 -5 20 c-3
11 -25 101 -48 200 l-41 180 -11 10 -10 10 5 -15z"/>
<path d="M51320 47390 l0 -13 7 6 6 7 -6 7 -7 6 0 -13z"/>
<path d="M51330 47360 l0 -13 7 6 6 7 -6 7 -7 6 0 -13z"/>
<path d="M72637 47326 c-4 -10 -7 -25 -6 -34 l0 -17 10 24 c5 13 8 29 6 35
l-3 10 -7 -18z"/>
<path d="M51360 47280 l0 -13 7 6 6 7 -6 7 -7 6 0 -13z"/>
<path d="M51370 47250 l0 -13 7 6 6 7 -6 7 -7 6 0 -13z"/>
<path d="M18370 47196 c0 -9 165 -343 176 -356 7 -8 132 -260 278 -560 147
-299 271 -549 277 -555 20 -19 -524 1099 -547 1126 -7 8 -50 90 -94 182 -70
144 -90 181 -90 163z"/>
<path d="M51400 47170 l0 -13 7 6 6 7 -6 7 -7 6 0 -13z"/>
<path d="M20701 47103 l-21 -68 -29 -172 -30 -171 -21 -50 -21 -49 -52 -50
-52 -50 -77 -33 c-43 -19 -78 -37 -78 -41 l0 -8 96 44 96 43 38 37 37 37 26
66 26 67 32 185 31 185 18 48 18 47 -8 0 -7 0 -22 -67z"/>
<path d="M51410 47140 l0 -13 7 6 6 7 -6 7 -7 6 0 -13z"/>
<path d="M21685 46776 c-121 -44 -302 -121 -319 -137 l-10 -9 7 -6 7 -7 112
51 c62 28 158 66 213 85 131 46 135 48 135 58 0 15 -19 10 -145 -35z"/>
<path d="M29486 46650 c4 -69 10 -165 14 -215 l8 -90 -5 200 -5 200 -9 15 -8
15 5 -125z"/>
<path d="M22065 46720 c-60 -10 -129 -23 -152 -29 l-43 -12 0 -14 0 -15 28 11
c15 6 83 19 152 30 69 10 135 21 148 24 l23 6 -6 9 c-8 12 -15 12 -150 -10z"/>
<path d="M34720 46535 c0 -17 2 -18 24 -9 l16 6 -6 9 c-3 5 -12 9 -20 9 l-14
0 0 -15z"/>
<path d="M36847 46345 l5 -170 19 -70 19 -70 0 -113 0 -112 -25 -10 c-14 -5
-60 -14 -103 -19 l-77 -10 86 3 87 2 26 17 26 17 0 105 0 104 -25 93 -25 93
-1 95 c-1 52 -5 122 -9 155 l-8 60 5 -170z"/>
<path d="M80978 46433 l13 -5 6 6 6 6 -19 -1 -19 -1 13 -5z"/>
<path d="M80870 46420 l-25 -8 27 -1 27 -1 6 10 6 10 -8 -1 c-4 -1 -19 -5 -33
-9z"/>
<path d="M34693 46378 c3 -24 11 -105 18 -180 l13 -138 8 0 8 0 0 33 c0 17 -7
95 -15 172 -8 77 -15 143 -15 148 0 4 -5 7 -11 7 l-12 0 6 -42z"/>
<path d="M30403 46383 l-103 -4 0 -15 0 -16 108 6 c59 4 151 9 205 12 l97 6 0
9 0 9 -102 -2 c-57 -1 -149 -4 -205 -5z"/>
<path d="M49141 46310 c0 -8 38 -89 84 -180 46 -91 84 -160 84 -155 0 6 -37
87 -83 180 l-84 170 -1 -15z"/>
<path d="M81542 46150 c-100 -82 -182 -152 -182 -155 1 -16 29 4 196 139 164
132 202 167 177 165 -5 0 -90 -67 -191 -149z"/>
<path d="M19840 46246 c0 -13 91 -198 95 -194 6 5 -82 198 -90 198 -3 0 -5 -2
-5 -4z"/>
<path d="M92930 46185 l-15 -14 -95 -11 c-52 -5 -111 -12 -130 -13 l-35 -4 70
-1 70 -2 65 11 65 10 17 16 17 15 13 -8 c7 -4 41 -30 75 -56 l62 -49 74 -13
74 -13 24 -16 23 -17 51 0 50 0 63 32 c34 18 62 35 62 39 0 4 -30 -8 -67 -27
l-68 -34 -37 0 -37 0 -35 21 -35 20 -66 10 -67 9 -70 55 -70 55 -17 0 c-9 0
-23 -7 -31 -15z"/>
<path d="M89721 46059 l-1 -26 -67 -18 c-38 -10 -90 -27 -118 -38 -58 -24
-185 -106 -185 -119 l0 -9 63 43 c78 54 120 73 227 104 47 14 89 29 94 34 l9
9 -11 23 -11 23 0 -26z"/>
<path d="M90388 46065 c-65 -14 -338 -116 -338 -126 0 -4 64 17 142 48 l142
54 64 14 c35 7 66 16 69 19 l6 6 -14 -1 c-8 -1 -40 -7 -71 -14z"/>
<path d="M93060 46071 c0 -4 16 -15 35 -24 l36 -17 32 0 32 0 53 -25 54 -25
54 0 54 0 71 36 c93 47 83 55 -12 9 l-73 -35 -41 0 -40 0 -47 25 -47 25 -38 0
-38 0 -42 20 -43 19 0 -8z"/>
<path d="M81340 45950 c0 -5 5 -10 10 -10 6 0 10 5 10 10 0 6 -4 10 -10 10 -5
0 -10 -4 -10 -10z"/>
<path d="M81372 45893 c-5 -10 -17 -47 -27 -83 -9 -36 -25 -81 -35 -101 l-18
-35 -27 -12 -28 -13 6 -6 6 -6 31 13 31 13 15 36 c18 41 65 211 59 211 -3 0
-8 -8 -13 -17z"/>
<path d="M81316 45849 c-2 -8 -12 -38 -22 -68 l-17 -55 -23 -23 c-29 -29 -30
-33 -4 -26 l21 6 18 36 c21 41 44 131 37 139 -3 3 -8 -1 -10 -9z"/>
<path d="M89610 45764 c0 -19 24 -84 31 -84 l8 0 -16 45 c-13 40 -23 56 -23
39z"/>
<path d="M52380 45651 c0 -16 188 -413 202 -426 l11 -10 -6 20 c-7 28 -187
408 -198 420 l-9 9 0 -13z"/>
<path d="M81251 45608 c0 -13 -3 -36 -6 -53 l-6 -30 16 34 c17 39 19 57 5 66
l-10 6 1 -23z"/>
<path d="M54790 45386 c0 -3 14 -18 31 -35 34 -35 39 -37 39 -18 0 16 -42 57
-58 57 -7 0 -12 -2 -12 -4z"/>
<path d="M89060 45239 c-102 -77 -192 -147 -200 -156 l-15 -16 15 9 c19 10
370 272 390 290 l14 14 -9 -1 c-6 0 -93 -63 -195 -140z"/>
<path d="M81024 45353 c4 -12 29 -106 56 -208 27 -102 54 -203 60 -225 l11
-40 10 0 9 0 -6 28 c-4 15 -33 122 -66 237 l-59 210 -11 10 -10 10 6 -22z"/>
<path d="M44380 45340 l-15 -10 12 0 c6 0 15 5 18 10 8 12 4 12 -15 0z"/>
<path d="M44295 45298 c-11 -7 -45 -18 -75 -25 l-55 -13 -85 0 c-47 -1 -103
-5 -125 -9 l-40 -9 75 -1 c41 0 115 4 164 9 l90 11 43 19 c24 10 43 21 43 24
0 9 -13 7 -35 -6z"/>
<path d="M16960 44875 l0 -20 20 -25 c28 -37 32 -20 4 25 l-24 40 0 -20z"/>
<path d="M16872 44813 l22 -36 4 12 4 12 -16 24 c-9 14 -21 25 -26 25 l-9 0
21 -37z"/>
<path d="M48899 44757 c28 -54 88 -169 131 -257 l80 -160 35 17 c19 9 35 20
35 25 l0 9 -31 -16 c-17 -9 -32 -15 -34 -13 -2 2 -30 57 -62 123 -84 171 -183
354 -196 362 l-11 6 53 -96z"/>
<path d="M28496 44325 c-53 -130 -95 -240 -92 -243 3 -2 9 4 13 14 3 10 46
115 95 233 49 118 87 219 85 224 -2 6 -47 -97 -101 -228z"/>
<path d="M93654 44462 c2 -4 28 -19 56 -32 l51 -24 195 -269 195 -269 19 -42
c10 -22 22 -50 25 -61 l7 -20 5 12 5 13 -26 55 -25 55 -194 267 -195 268 -56
28 c-60 29 -70 32 -62 19z"/>
<path d="M87768 44285 c-4 -11 -22 -58 -42 -105 l-36 -85 18 -15 c19 -16 176
-255 292 -445 87 -141 79 -129 84 -124 3 2 -49 91 -115 197 l-120 194 52 94
c28 53 49 97 47 99 -2 2 -26 -36 -53 -85 -28 -50 -52 -90 -55 -90 -3 0 -25 32
-50 72 -24 39 -52 79 -62 87 -24 21 -23 25 18 120 l35 82 -4 12 -3 11 -6 -19z"/>
<path d="M41602 44248 c-7 -7 -12 -16 -12 -22 l0 -10 12 12 c7 7 20 12 31 12
l18 0 -6 10 c-8 14 -28 13 -43 -2z"/>
<path d="M26950 44150 c0 -4 30 -21 68 -38 37 -17 129 -60 205 -96 75 -36 137
-62 137 -58 0 4 -92 50 -205 104 -113 53 -205 93 -205 88z"/>
<path d="M50795 43270 c-67 -15 -267 -70 -314 -86 -8 -2 -12 -7 -9 -9 3 -3 66
13 140 34 74 22 165 45 201 52 l67 12 0 9 c0 4 -1 8 -2 7 -2 0 -39 -9 -83 -19z"/>
<path d="M48313 43192 l-13 -8 148 -2 c81 -1 185 -4 232 -7 l85 -5 -20 8 -20
9 -200 7 -200 6 -12 -8z"/>
<path d="M32154 43022 c-22 -20 -113 -127 -201 -237 l-162 -200 -110 -103
c-61 -57 -111 -108 -111 -114 l0 -10 9 4 c5 2 67 59 138 128 l128 125 152 185
c83 102 165 198 182 214 30 29 39 46 24 46 -5 -1 -26 -18 -49 -38z"/>
<path d="M50010 43050 l-15 -10 15 0 c8 0 22 5 30 10 l15 10 -15 0 c-8 0 -22
-5 -30 -10z"/>
<path d="M52111 43053 c13 -38 394 -803 397 -795 3 9 -381 789 -394 801 l-7 6
4 -12z"/>
<path d="M49853 43005 l-31 -13 -36 -53 c-19 -29 -33 -55 -31 -58 6 -5 4 -7
43 50 l31 46 36 17 c55 26 45 36 -12 11z"/>
<path d="M8554 42973 c3 -16 8 -102 12 -193 3 -91 10 -185 15 -210 l8 -45 -4
100 c-3 55 -8 162 -11 238 l-7 137 -9 0 -10 0 6 -27z"/>
<path d="M51555 42959 c-66 -11 -132 -18 -146 -16 l-25 3 -12 -12 -11 -13 10
-3 9 -3 20 -130 c11 -72 29 -170 40 -220 11 -49 29 -162 40 -250 11 -88 23
-164 25 -170 19 -50 -27 310 -56 443 -12 52 -29 148 -38 214 l-18 120 11 3 c6
2 81 13 166 25 148 21 197 31 134 29 -16 -1 -83 -10 -149 -20z"/>
<path d="M29886 42843 c62 -84 74 -101 123 -185 28 -48 51 -89 51 -91 0 -12
32 -79 35 -75 8 8 -36 112 -73 173 -52 88 -144 215 -155 215 l-9 0 28 -37z"/>
<path d="M35591 42860 c-13 -11 -30 -20 -38 -20 l-14 0 5 -9 6 -9 23 5 c24 6
57 31 57 45 0 13 -13 9 -39 -12z"/>
<path d="M50650 42660 l0 -180 10 0 10 0 0 180 0 180 -10 0 -10 0 0 -180z"/>
<path d="M88579 42705 l20 -35 -22 -14 c-12 -7 -46 -28 -76 -46 -74 -44 -164
-111 -157 -117 2 -3 33 15 68 40 35 24 96 63 136 86 l72 42 -22 39 c-13 22
-27 40 -31 40 l-9 0 21 -35z"/>
<path d="M27390 42690 l-45 -6 -41 -22 -41 -21 -65 -70 -66 -71 -5 -20 -5 -20
9 0 c4 0 14 10 20 23 7 12 40 51 73 86 l61 63 40 20 39 21 83 -6 83 -5 0 8 0
8 -32 7 c-18 4 -40 8 -48 9 -8 2 -35 0 -60 -4z"/>
<path d="M31771 42498 l-164 -168 7 -7 7 -7 120 119 c134 133 202 211 197 223
l-3 8 -164 -168z"/>
<path d="M27510 42611 l0 -9 48 -20 47 -21 32 -33 32 -33 25 -55 24 -55 7 -52
7 -53 10 0 9 0 -7 58 -7 57 -24 55 -24 55 -32 34 -32 34 -53 23 c-59 27 -62
28 -62 15z"/>
<path d="M51195 42537 c-159 -19 -173 -22 -163 -32 l5 -6 179 21 c99 12 188
25 199 30 l20 9 -40 -1 c-22 0 -112 -10 -200 -21z"/>
<path d="M92086 42531 c5 -5 94 -64 198 -131 l188 -121 6 5 c3 4 3 8 1 10 -23
19 -383 246 -392 246 l-11 0 10 -9z"/>
<path d="M51410 42514 c0 -10 11 -84 25 -164 14 -80 39 -260 55 -400 17 -139
33 -256 35 -259 9 -8 5 30 -24 279 -37 311 -91 635 -91 544z"/>
<path d="M92065 42503 c15 -17 387 -254 391 -250 3 3 -255 172 -376 245 l-25
16 10 -11z"/>
<path d="M30050 42476 c0 -2 7 -23 16 -47 24 -67 34 -147 43 -354 l9 -190 13
-30 c19 -43 210 -271 334 -400 59 -60 103 -103 99 -95 -4 8 -56 67 -115 130
-132 142 -274 313 -299 361 l-19 36 -6 149 c-3 82 -11 190 -16 239 l-11 90
-20 58 c-18 48 -28 68 -28 53z"/>
<path d="M66610 42268 c1 -18 9 -115 18 -215 16 -162 24 -206 35 -192 2 2 -5
102 -16 222 l-21 217 -8 0 -8 0 0 -32z"/>
<path d="M30157 42042 l-8 -12 7 -73 c4 -39 10 -81 14 -92 17 -45 402 -484
433 -494 12 -4 -5 16 -133 154 -90 96 -261 301 -281 335 l-14 25 -5 85 -5 85
-8 -13z"/>
<path d="M31081 41772 l-170 -237 -43 -42 c-24 -23 -220 -174 -436 -337 l-393
-295 -81 -26 -82 -26 -97 -1 -97 0 -59 32 c-32 19 -74 45 -93 60 -19 14 -58
43 -87 63 l-51 38 -6 -9 -5 -9 97 -70 c53 -39 122 -83 152 -99 l55 -28 100 1
100 2 85 28 85 28 390 294 c215 161 409 312 433 335 l43 41 172 239 c95 132
174 243 175 248 l4 8 -11 0 -10 0 -170 -238z"/>
<path d="M50596 41823 c-3 -60 -9 -180 -12 -269 l-7 -161 10 -6 10 -6 7 172
c3 94 9 218 13 275 l6 102 -10 0 -10 0 -7 -107z"/>
<path d="M82726 41652 l-5 -9 105 -169 c58 -93 112 -180 121 -193 l15 -23 9 9
10 10 -116 186 c-64 103 -120 189 -125 192 l-9 5 -5 -8z"/>
<path d="M30633 41333 l7 -6 7 6 6 7 -13 0 -13 0 6 -7z"/>
<path d="M56862 41303 c70 -2 187 -2 260 0 l133 3 -260 0 -260 0 127 -3z"/>
<path d="M28503 41247 l3 -11 80 -17 79 -16 151 -5 151 -6 0 12 0 11 -146 3
-146 4 -88 18 -88 18 4 -11z"/>
<path d="M55110 41080 l0 -10 215 0 215 0 0 10 0 10 -215 0 -215 0 0 -10z"/>
<path d="M30120 40988 c-111 -82 -137 -95 -239 -115 l-76 -14 -59 5 -59 6 -63
35 c-35 20 -91 58 -125 85 -60 48 -80 59 -78 43 1 -14 113 -99 189 -144 l75
-44 95 0 95 1 73 22 74 23 96 71 c54 39 101 74 105 78 l9 8 -9 5 -8 5 -95 -70z"/>
<path d="M58845 41040 l240 -5 15 -8 15 -8 -19 15 -20 16 -235 -2 -236 -2 240
-6z"/>
<path d="M58645 41003 c22 -1 133 -4 247 -5 l207 -3 -17 7 -17 7 -230 -1
c-126 -1 -212 -3 -190 -5z"/>
<path d="M49625 40873 c-206 -103 -201 -100 -193 -109 l6 -5 196 98 c169 84
220 115 189 112 -5 0 -93 -43 -198 -96z"/>
<path d="M57313 40923 c65 -2 168 -2 230 0 l112 3 -230 0 -230 0 118 -3z"/>
<path d="M57068 40883 c184 -2 481 -2 660 0 l327 2 -660 0 -660 0 333 -2z"/>
<path d="M97193 40677 c-101 -34 -183 -65 -183 -69 0 -6 378 117 388 127 13
13 -36 -1 -205 -58z"/>
<path d="M60468 40483 c7 -3 110 -19 228 -37 l214 -32 0 6 c0 6 -422 71 -445
69 l-10 -1 13 -5z"/>
<path d="M58120 40225 l0 -225 10 0 10 0 0 225 0 225 -10 0 -10 0 0 -225z"/>
<path d="M96410 40364 c-91 -41 -181 -82 -200 -91 l-35 -15 11 -4 10 -4 192
88 c106 49 195 92 199 95 l6 7 -9 -1 c-5 0 -83 -34 -174 -75z"/>
<path d="M47813 40365 l4 -10 56 -3 57 -3 0 10 0 9 -60 4 -60 3 3 -10z"/>
<path d="M46518 40094 l-6 -9 14 -25 13 -25 0 15 c0 8 -4 24 -8 34 l-8 20 -5
-10z"/>
<path d="M84815 39969 c5 -8 50 -75 100 -149 51 -74 167 -260 260 -412 93
-153 170 -276 173 -273 12 12 -497 821 -530 841 l-11 7 8 -14z"/>
<path d="M84780 39956 c0 -4 34 -58 77 -119 42 -62 220 -346 395 -632 175
-286 323 -521 328 -523 23 -8 -736 1213 -791 1273 l-9 9 0 -8z"/>
<path d="M48260 39803 c-107 -139 -146 -196 -90 -133 52 59 203 260 199 265
-3 2 -52 -57 -109 -132z"/>
<path d="M48348 39853 c-24 -32 -75 -97 -112 -145 -37 -49 -64 -88 -59 -88 11
0 227 280 221 286 -3 2 -25 -22 -50 -53z"/>
<path d="M52020 39022 l0 -9 43 -6 c23 -4 122 -22 220 -40 l177 -34 0 7 c0 3
-93 23 -207 45 -115 21 -214 40 -220 42 l-13 5 0 -10z"/>
<path d="M52455 38903 l10 -10 410 -77 c226 -43 419 -80 430 -83 l20 -5 -10
10 -10 9 -410 77 c-225 43 -419 80 -430 83 l-20 5 10 -9z"/>
<path d="M88629 38345 c88 -151 144 -246 150 -250 l8 -4 216 139 216 140 17
-7 17 -6 -7 11 c-4 7 -13 12 -20 12 -7 0 -105 -59 -217 -131 -112 -73 -210
-132 -218 -133 l-15 -1 -75 127 c-42 70 -80 131 -85 135 -5 4 1 -10 13 -32z"/>
<path d="M86007 38068 c69 -112 132 -210 140 -218 l15 -15 -13 26 c-35 66
-253 409 -260 409 -4 0 49 -91 118 -202z"/>
<path d="M60040 38097 c0 -2 73 -71 162 -153 89 -82 229 -211 310 -286 135
-126 158 -146 158 -134 0 4 -258 247 -518 489 -81 75 -112 98 -112 84z"/>
<path d="M34600 38043 c0 -5 31 -21 68 -38 37 -16 120 -63 185 -103 l119 -73
10 3 10 4 -133 81 c-110 66 -238 133 -255 133 -2 0 -4 -3 -4 -7z"/>
<path d="M61285 37752 c-115 -26 -203 -48 -195 -50 17 -3 429 83 438 92 l5 6
-19 -1 c-10 -1 -113 -22 -229 -47z"/>
<path d="M86659 37623 c-57 -36 -128 -86 -156 -109 -29 -23 -170 -120 -313
-215 -143 -94 -259 -174 -256 -176 4 -4 489 308 551 356 22 17 92 65 155 107
131 89 136 92 129 99 -3 3 -53 -25 -110 -62z"/>
<path d="M60245 37239 c-27 -11 -75 -25 -105 -30 -70 -13 -254 -69 -247 -76 3
-2 54 9 114 25 59 17 124 33 143 37 40 7 140 44 155 57 l9 8 -9 -1 c-6 0 -32
-9 -60 -20z"/>
<path d="M62540 37166 c0 -4 21 -36 46 -71 l45 -64 127 -84 c70 -46 133 -87
140 -91 l12 -7 0 8 c0 4 -59 46 -131 93 l-132 85 -45 60 c-25 33 -49 64 -54
70 l-8 9 0 -8z"/>
<path d="M40840 36664 c-30 -7 -199 -43 -375 -80 -176 -36 -322 -68 -324 -70
-22 -21 145 11 567 107 l224 51 9 -9 9 -9 70 -484 c39 -267 73 -501 77 -520
l6 -35 4 11 c2 6 -30 242 -72 525 -41 283 -75 517 -75 522 l0 7 -32 -1 c-18
-1 -58 -7 -88 -15z"/>
<path d="M53756 35968 c-3 -13 -6 -35 -6 -50 l0 -28 10 0 10 0 0 19 c0 10 3
33 6 50 l7 31 -11 0 -10 0 -6 -22z"/>
<path d="M86241 35923 c36 -38 75 -81 87 -98 l23 -30 -17 35 -17 35 -60 62
c-33 35 -65 63 -70 63 l-10 0 64 -67z"/>
<path d="M80675 35878 c-99 -55 -301 -163 -450 -239 -148 -76 -265 -139 -260
-139 18 0 865 439 889 461 33 30 -22 5 -179 -83z"/>
<path d="M84840 35610 c-54 -36 -42 -40 15 -5 l40 24 40 0 40 0 26 -22 26 -22
53 -95 c29 -52 80 -133 115 -180 34 -47 142 -215 240 -375 98 -159 185 -298
193 -308 24 -27 26 -12 4 20 -12 15 -98 154 -192 308 -95 154 -200 318 -235
365 -34 47 -86 128 -115 180 l-52 95 -27 22 -26 22 -50 1 -50 0 -45 -30z"/>
<path d="M84916 35603 c-21 -6 -1624 -1038 -1646 -1061 l-15 -15 15 8 c8 5
380 244 826 532 l812 523 26 0 26 0 20 -20 c11 -11 33 -45 49 -77 17 -32 44
-78 60 -103 l31 -45 0 17 c0 9 -4 20 -10 23 -5 3 -33 49 -61 101 l-51 94 -21
15 c-22 15 -28 16 -61 8z"/>
<path d="M33977 35366 c-81 -91 -147 -168 -147 -171 0 -16 25 9 158 159 122
135 154 176 139 176 -1 0 -69 -74 -150 -164z"/>
<path d="M86665 35259 l-7 -10 6 -6 6 -7 11 11 11 11 -10 6 -11 6 -6 -11z"/>
<path d="M81432 35153 c14 -16 102 -116 195 -223 94 -107 197 -220 228 -250
31 -30 90 -98 129 -150 40 -52 80 -101 89 -109 l17 -13 0 10 c0 6 -4 14 -10
17 -5 3 -38 43 -72 88 l-61 82 -121 125 c-67 69 -184 199 -261 288 -77 89
-144 162 -149 162 l-10 0 26 -27z"/>
<path d="M54550 34929 c0 -13 11 -105 24 -204 14 -99 35 -274 47 -389 13 -115
25 -204 27 -197 6 17 -13 192 -54 526 -33 259 -44 326 -44 264z"/>
<path d="M51426 34909 c-11 -52 -56 -413 -52 -417 3 -2 7 6 10 19 11 52 56
413 52 417 -3 2 -7 -6 -10 -19z"/>
<path d="M51466 34919 c-3 -8 -14 -97 -26 -199 -11 -102 -23 -198 -27 -215
l-5 -30 8 8 9 9 26 216 c24 196 28 251 15 211z"/>
<path d="M56035 34718 c6 -26 53 -352 51 -355 -3 -4 -1107 -174 -1221 -188
-164 -20 -198 -25 -192 -31 8 -8 331 36 847 117 283 44 531 82 550 84 l35 3
-3 13 c-2 7 -15 95 -30 196 l-27 183 -8 0 -7 0 5 -22z"/>
<path d="M59693 34589 c9 -13 48 -111 88 -218 40 -107 74 -190 76 -185 2 5
-32 101 -75 213 l-77 205 -13 4 -14 4 15 -23z"/>
<path d="M81285 34591 c-15 -13 -605 -331 -615 -331 l-10 0 -31 63 c-45 89
-81 149 -86 143 -5 -4 85 -175 109 -209 l13 -18 315 171 c173 93 316 174 318
180 4 12 -1 13 -13 1z"/>
<path d="M85450 34474 c-206 -129 -196 -122 -187 -130 l6 -6 191 118 c167 104
210 135 183 134 -5 -1 -91 -53 -193 -116z"/>
<path d="M80993 34385 c-178 -96 -329 -175 -337 -175 l-13 0 -63 120 -63 120
-9 0 -9 0 47 -87 c76 -143 94 -173 104 -173 5 0 154 79 331 175 282 153 356
195 339 195 -3 0 -150 -79 -327 -175z"/>
<path d="M85690 34445 c-101 -63 -188 -119 -194 -125 l-10 -10 7 -6 6 -6 193
118 c227 138 204 122 192 134 l-10 10 -184 -115z"/>
<path d="M62570 34532 c0 -6 4 -13 9 -16 11 -7 155 -35 159 -31 2 1 -12 12
-30 23 l-33 20 -52 7 -53 7 0 -10z"/>
<path d="M77628 34454 l-168 -84 0 -9 0 -9 168 86 167 86 50 7 50 6 -50 1 -50
1 -167 -85z"/>
<path d="M82670 34149 c-107 -72 -187 -129 -178 -126 20 7 378 245 378 252 0
8 0 9 -200 -126z"/>
<path d="M57643 34043 c12 -27 26 -54 30 -60 l8 -13 18 0 18 0 58 -131 c32
-71 63 -133 68 -136 l10 -6 -5 9 c-2 5 -31 68 -64 141 l-59 132 -20 3 -20 3
-24 53 c-14 28 -28 52 -32 52 l-8 0 22 -47z"/>
<path d="M1642 33808 c-38 -233 -42 -271 -26 -256 4 5 84 475 84 499 0 5 -4 9
-9 9 l-8 0 -41 -252z"/>
<path d="M53978 34021 c-102 -14 -190 -29 -194 -34 l-8 -7 30 5 c16 3 114 16
218 30 104 14 192 27 194 30 9 9 -50 3 -240 -24z"/>
<path d="M77867 33923 c-11 -196 -16 -369 -11 -347 3 12 11 118 18 235 l13
214 -7 8 -7 8 -6 -118z"/>
<path d="M53523 34002 c-106 -14 -193 -28 -193 -32 l0 -6 211 28 c116 15 216
29 222 32 l12 4 -30 0 c-16 0 -117 -12 -222 -26z"/>
<path d="M84805 33835 c-170 -105 -225 -145 -202 -145 10 0 403 245 406 253 1
5 1 10 -1 12 -1 2 -93 -52 -203 -120z"/>
<path d="M73104 32580 l23 -50 26 -20 25 -20 39 1 c21 0 58 4 83 9 l45 9 -62
-5 -63 -5 -35 17 -36 17 -25 48 -24 49 -10 0 -9 0 23 -50z"/>
<path d="M34300 32508 c0 -7 9 -26 20 -43 l20 -30 0 13 c0 15 -28 72 -35 72
-3 0 -5 -6 -5 -12z"/>
<path d="M98877 31796 l6 -59 -16 6 -16 6 -30 -12 -31 -11 -10 -31 -10 -30 22
28 23 28 37 8 36 9 5 -17 c2 -9 66 -107 142 -216 155 -225 144 -210 149 -204
2 2 -61 98 -140 213 l-144 208 -6 37 c-3 20 -10 50 -15 66 l-8 30 6 -59z"/>
<path d="M98330 31706 l15 -14 66 -16 65 -16 43 0 43 0 59 15 59 15 51 -25 51
-26 -7 10 c-3 6 -25 21 -48 32 l-41 22 -73 -17 -73 -18 -71 11 c-39 6 -87 18
-106 26 -44 19 -51 19 -33 1z"/>
<path d="M1655 30345 l-30 -25 21 0 21 0 23 25 23 25 -14 0 c-8 -1 -27 -12
-44 -25z"/>
<path d="M94663 30093 l-73 -55 0 -12 c0 -14 171 -228 177 -222 3 2 -34 53
-81 111 l-86 107 5 8 c3 5 35 30 70 56 36 26 65 51 65 56 0 11 3 13 -77 -49z"/>
<path d="M95310 26779 c-96 -71 -177 -134 -179 -140 -3 -9 325 226 359 257
l14 14 -9 -1 c-6 0 -89 -58 -185 -130z"/>
<path d="M94820 26724 c-102 -74 -187 -139 -189 -145 -2 -6 48 26 110 72 63
45 148 107 189 137 41 30 79 59 85 63 l9 9 -9 0 c-6 -1 -93 -61 -195 -136z"/>
<path d="M23940 26452 c0 -16 35 -40 75 -51 22 -6 146 -24 275 -40 129 -16
243 -33 253 -37 l18 -6 14 -29 15 -28 0 -28 0 -29 -58 -174 c-33 -96 -69 -194
-80 -217 -24 -46 -26 -53 -14 -53 15 0 54 94 113 270 l59 174 0 27 c0 15 -6
42 -14 61 l-15 34 -38 17 -38 16 -220 26 c-121 14 -239 30 -262 36 l-43 11
-11 14 c-13 16 -29 19 -29 6z"/>
<path d="M87395 25991 l-5 -10 202 -160 203 -161 4 11 c1 6 1 11 0 13 -2 1
-93 72 -201 159 l-197 157 -6 -9z"/>
<path d="M4500 25015 l0 -36 -14 -27 c-18 -34 -66 -79 -188 -177 -87 -68 -112
-95 -92 -95 9 0 185 139 238 188 25 23 52 55 61 71 l15 30 0 41 0 40 -10 0
-10 0 0 -35z"/>
<path d="M90500 24839 c52 -6 161 -21 241 -34 l146 -24 94 -26 c52 -15 154
-52 227 -82 l132 -55 12 4 11 4 -134 57 c-74 31 -174 68 -224 82 l-90 26 -155
25 -155 25 -100 4 -100 4 95 -10z"/>
<path d="M87075 20418 c96 -104 280 -288 288 -288 5 0 -62 74 -148 165 -87 91
-163 165 -168 165 l-11 0 39 -42z"/>
<path d="M10720 19659 c0 -2 -7 -105 -15 -229 l-14 -225 7 -7 7 -7 3 57 c1 31
7 135 13 230 l10 174 -5 6 c-3 3 -6 3 -6 1z"/>
<path d="M92901 16963 c6 -18 301 -277 1004 -883 552 -476 893 -772 994 -864
l34 -31 -4 12 c-7 22 -426 388 -1484 1298 -184 158 -323 279 -519 454 l-29 26
4 -12z"/>
<path d="M93604 16392 c11 -18 336 -293 336 -284 0 8 -299 268 -328 286 l-15
9 7 -11z"/>
<path d="M13251 16086 l-174 -21 -4 -11 -3 -10 147 17 c82 10 181 21 221 25
l72 7 0 8 0 9 -42 -1 c-24 -1 -121 -11 -217 -23z"/>
<path d="M10117 15715 c-176 -22 -207 -28 -196 -39 2 -3 107 7 232 22 l227 26
0 8 0 8 -37 -1 c-21 -1 -123 -12 -226 -24z"/>
<path d="M94620 15523 c0 -5 26 -31 57 -59 32 -27 109 -93 170 -147 62 -54
113 -94 113 -89 0 5 -62 62 -137 128 -76 65 -153 132 -170 148 l-33 28 0 -9z"/>
<path d="M98394 15135 c-61 -71 -537 -627 -1058 -1235 -520 -608 -946 -1109
-946 -1114 l0 -10 9 10 c94 103 2111 2468 2109 2473 -2 4 -53 -52 -114 -124z"/>
<path d="M98540 15264 c1 -12 339 -288 358 -293 12 -2 -206 181 -345 292 l-13
9 0 -8z"/>
<path d="M0 14927 l0 -14 25 -11 24 -11 6 9 6 9 -31 16 -30 16 0 -14z"/>
<path d="M97329 13833 c-492 -575 -898 -1052 -902 -1059 -4 -8 -6 -14 -3 -14
3 0 388 449 857 998 469 548 875 1023 902 1055 28 31 48 59 45 62 -2 2 -407
-466 -899 -1042z"/>
<path d="M98206 11132 l-6 -10 93 -84 c50 -46 153 -138 227 -203 74 -66 195
-175 268 -243 l134 -122 8 5 9 6 -186 172 c-103 95 -254 232 -337 306 -83 73
-163 144 -177 158 l-27 25 -6 -10z"/>
<path d="M99900 9405 l-14 -16 57 -57 57 -57 0 31 0 30 -43 42 -44 43 -13 -16z"/>
<path d="M28076 3902 l-6 -10 97 -7 c54 -4 154 -15 223 -26 143 -21 150 -22
150 -11 l0 8 -147 22 c-82 12 -185 24 -229 28 l-82 6 -6 -10z"/>
<path d="M31927 3523 c-4 -3 -7 -10 -7 -15 l0 -9 19 6 18 5 12 -14 13 -15 0
-43 0 -44 -58 -99 c-31 -55 -70 -119 -86 -142 -28 -41 -35 -63 -20 -63 10 1
50 60 123 185 l64 110 -1 50 0 50 -12 23 -13 22 -23 0 c-12 0 -26 -3 -29 -7z"/>
<path d="M24110 3057 c-124 -203 -224 -372 -223 -376 1 -3 5 -7 10 -8 l8 -2
125 207 c69 113 169 279 224 367 54 88 100 163 102 166 2 4 -2 9 -9 12 l-13 5
-224 -371z"/>
<path d="M23015 2281 c3 -5 79 -68 170 -140 l164 -130 6 8 5 9 -165 131 c-91
72 -170 131 -176 131 l-10 0 6 -9z"/>
<path d="M22984 2232 c7 -11 313 -252 320 -252 21 0 -12 31 -149 138 -85 67
-160 122 -166 122 l-10 0 5 -8z"/>
<path d="M12696 1988 c-14 -82 -35 -260 -40 -328 l-5 -75 9 20 c5 11 9 41 9
67 1 46 37 311 46 336 l4 12 -9 0 -9 0 -5 -32z"/>
<path d="M12200 1602 l0 -11 33 -5 c17 -3 100 -10 182 -16 83 -6 174 -13 203
-17 l52 -5 0 14 0 14 -167 12 c-93 7 -198 16 -235 19 l-68 6 0 -11z"/>
<path d="M17220 1228 l0 -15 113 -11 c61 -6 163 -13 226 -14 l114 -3 4 13 5
12 -84 0 c-85 0 -287 15 -345 26 l-33 6 0 -14z"/>
<path d="M18136 1164 l-5 -14 12 0 c7 0 108 -7 224 -17 l213 -16 7 6 c3 4 4 9
1 12 -3 3 -88 12 -189 20 -101 8 -201 16 -221 19 l-37 4 -5 -14z"/>
<path d="M19495 1010 c-4 -6 -5 -13 -4 -14 2 -2 94 -8 204 -15 110 -7 212 -14
228 -17 l27 -6 0 16 0 16 -22 0 c-29 0 -284 18 -364 26 l-62 5 -7 -11z"/>
<path d="M21230 970 l-64 -18 -118 -13 -119 -12 -152 6 c-84 4 -200 10 -259
13 l-108 7 0 -10 0 -10 48 -7 c26 -3 155 -9 287 -12 l240 -7 100 12 c55 7 129
20 164 30 l65 18 4 11 4 12 -14 -1 c-7 0 -42 -9 -78 -19z"/>
</g>
</svg>
