<?xml version="1.0" standalone="no"?>
<!DOCTYPE svg PUBLIC "-//W3C//DTD SVG 20010904//EN"
 "http://www.w3.org/TR/2001/REC-SVG-20010904/DTD/svg10.dtd">
<svg version="1.0" xmlns="http://www.w3.org/2000/svg"
 width="7500.000000pt" height="7500.000000pt" viewBox="0 0 7500.000000 7500.000000"
 preserveAspectRatio="xMidYMid meet">
<metadata>
Created by potrace 1.16, written by Peter Selinger 2001-2019
</metadata>
<g transform="translate(0.000000,7500.000000) scale(0.075000,-0.075000)"
fill="#000000" stroke="none">
<path d="M25232 91675 c5 -5 355 -101 408 -112 l25 -6 -10 10 c-9 8 -398 113
-420 113 -5 0 -6 -2 -3 -5z"/>
<path d="M94599 91198 l-36 -22 -21 -32 -21 -32 13 -5 13 -5 22 29 21 29 40
20 c21 11 41 24 45 30 l6 10 -23 0 -23 -1 -36 -21z"/>
<path d="M78970 88442 l0 -8 368 -129 c202 -70 395 -139 430 -151 l64 -24 -4
13 -5 12 -419 147 c-230 81 -422 148 -426 148 -5 0 -8 -4 -8 -8z"/>
<path d="M83585 86658 c-21 -95 -40 -179 -43 -187 l-5 -14 14 5 13 4 42 182
41 182 -12 0 -11 0 -39 -172z"/>
<path d="M56250 85570 l0 -10 196 0 195 0 -6 10 -6 10 -190 0 -189 0 0 -10z"/>
<path d="M79600 82403 c-1 -5 23 -99 52 -210 l53 -203 14 0 13 0 -5 13 c-2 7
-28 101 -57 210 l-53 197 -9 0 c-4 0 -8 -3 -8 -7z"/>
<path d="M57993 81744 l-12 -5 33 -47 c18 -26 70 -111 116 -190 45 -78 87
-145 92 -148 l10 -6 8 8 7 9 -73 125 c-100 169 -158 260 -164 259 -3 0 -10 -3
-17 -5z"/>
<path d="M34507 80846 c-9 -21 -17 -40 -17 -42 0 -2 -45 -80 -101 -174 l-101
-172 6 -5 c3 -4 8 -4 10 -2 10 12 177 302 200 347 l27 54 -4 16 -3 17 -17 -39z"/>
<path d="M76374 78530 c-93 -71 -170 -134 -172 -140 l-4 -10 11 0 c15 0 351
259 351 271 0 5 -4 9 -8 9 -5 0 -85 -58 -178 -130z"/>
<path d="M74150 78004 c0 -4 38 -58 83 -118 l84 -111 48 -85 c55 -98 53 -95
61 -87 l7 6 -56 98 -55 98 -77 100 c-72 93 -95 118 -95 99z"/>
<path d="M74393 76596 c-50 -23 -177 -131 -287 -244 l-100 -102 8 -7 7 -7 102
101 c56 55 141 132 190 170 l87 70 41 6 40 5 35 -10 36 -9 6 5 6 6 -11 11 -11
11 -58 4 -59 4 -32 -14z"/>
<path d="M51061 63956 c4 -3 394 -170 429 -183 l15 -6 -10 10 c-5 5 -102 49
-215 96 -181 77 -234 97 -219 83z"/>
<path d="M41710 63630 l0 -13 7 6 6 7 -6 7 -7 6 0 -13z"/>
<path d="M41760 63576 c0 -5 22 -35 48 -65 27 -31 73 -87 102 -126 64 -85 59
-60 -7 32 -52 73 -142 173 -143 159z"/>
<path d="M41990 63346 c0 -9 119 -152 189 -229 39 -42 71 -73 71 -68 0 5 -32
44 -71 87 -40 44 -96 109 -126 147 -49 61 -63 75 -63 63z"/>
<path d="M41542 63235 c-26 -53 -26 -55 -9 -55 l14 0 16 42 17 42 -8 8 -8 8
-22 -45z"/>
<path d="M41579 63118 c-7 -13 -61 -74 -122 -135 l-111 -113 7 -7 7 -7 113
110 c101 98 137 142 137 166 0 16 -20 7 -31 -14z"/>
<path d="M42950 63116 c0 -5 23 -35 50 -67 l50 -58 46 -124 46 -124 74 -79
c40 -43 73 -75 74 -70 0 4 -29 39 -64 78 l-65 69 -37 97 c-20 53 -45 115 -55
137 l-20 40 -49 55 c-27 30 -50 51 -50 46z"/>
<path d="M12550 62800 l-65 -7 165 5 c91 2 167 6 169 8 7 6 -198 1 -269 -6z"/>
<path d="M57981 62440 c-122 -99 -218 -180 -213 -180 8 0 308 236 441 347 2 1
2 5 0 8 -3 2 -105 -77 -228 -175z"/>
<path d="M57780 62229 c-239 -192 -440 -352 -446 -355 l-10 -5 -289 126 c-158
69 -293 125 -299 125 l-10 0 9 -9 c6 -5 143 -66 305 -136 162 -70 507 -220
765 -332 259 -113 477 -208 485 -211 l15 -5 -10 10 c-8 8 -547 247 -914 405
l-44 18 434 346 c239 190 441 352 449 360 l14 14 -9 -1 c-6 0 -206 -158 -445
-350z"/>
<path d="M58810 59914 c0 -6 35 -86 78 -180 43 -93 113 -253 157 -357 43 -103
80 -186 82 -184 7 8 -292 702 -313 726 -2 2 -4 0 -4 -5z"/>
<path d="M63624 59800 c3 -14 64 -313 137 -665 l132 -640 10 -10 9 -10 -6 20
c-3 11 -64 306 -136 655 -72 349 -135 644 -141 655 l-9 20 4 -25z"/>
<path d="M84010 58748 c0 -3 35 -71 77 -150 42 -78 87 -170 99 -203 l23 -60 0
16 c1 31 -26 94 -104 239 -72 135 -95 173 -95 158z"/>
<path d="M64131 57571 c-2 -23 168 -844 179 -866 l9 -20 -4 25 c-20 104 -176
857 -179 865 l-4 10 -1 -14z"/>
<path d="M64174 57120 c2 -8 23 -103 46 -210 22 -107 45 -204 51 -215 l9 -20
-4 25 c-3 14 -24 113 -47 220 l-41 195 -10 10 -9 10 5 -15z"/>
<path d="M63655 56548 c3 -13 23 -112 43 -220 36 -183 45 -218 56 -207 4 3
-21 134 -75 397 l-10 52 -10 0 -9 0 5 -22z"/>
<path d="M25991 55656 c2 -2 94 -68 204 -148 170 -122 255 -181 323 -222 l12
-7 0 8 c0 4 -24 22 -53 40 -29 17 -146 99 -261 182 -115 83 -214 151 -219 151
-6 0 -8 -2 -6 -4z"/>
<path d="M53011 54443 c4 -12 471 -321 499 -331 l15 -5 -15 15 c-8 9 -114 80
-235 158 -121 79 -231 150 -244 159 l-24 15 4 -11z"/>
<path d="M80811 54035 c-1 -23 74 -324 83 -332 l6 -6 0 9 c-1 22 -88 347 -89
329z"/>
<path d="M52628 53858 c-91 -140 -153 -260 -164 -317 l-7 -34 11 7 12 7 0 18
c0 10 22 63 49 119 l50 101 71 106 71 106 -3 11 -4 10 -86 -134z"/>
<path d="M79440 53333 c0 -17 99 -415 104 -421 3 -3 8 -3 10 -1 3 3 -50 249
-89 407 l-5 22 -10 0 c-6 0 -10 -3 -10 -7z"/>
<path d="M34415 52985 c-38 -7 -89 -18 -112 -24 l-42 -11 -5 -18 c-32 -111
-86 -325 -82 -329 2 -3 10 15 16 38 6 24 22 82 35 129 13 47 28 104 34 126
l11 42 63 16 c34 9 96 22 137 30 l75 14 -30 0 c-16 0 -61 -6 -100 -13z"/>
<path d="M27002 52263 l9 -68 -5 -160 -5 -160 8 30 9 30 1 136 c0 75 -2 164
-5 198 l-7 61 -7 0 -6 0 8 -67z"/>
<path d="M28395 51009 c-4 -6 -5 -12 -3 -14 7 -7 48 7 48 16 l0 9 -19 0 -20 0
-6 -11z"/>
<path d="M26776 50783 c-4 -82 -8 -163 -11 -180 l-4 -33 9 0 8 0 6 73 c3 39 8
120 11 180 l6 107 -10 0 -9 0 -6 -147z"/>
<path d="M33575 50355 c2 -16 16 -109 31 -205 15 -96 29 -169 32 -162 5 16
-47 352 -59 377 l-9 20 5 -30z"/>
<path d="M32806 49874 c-126 -8 -231 -16 -234 -19 -15 -14 25 -14 264 0 142 8
265 15 272 15 l13 0 -6 10 -6 10 -37 -1 c-20 -1 -140 -8 -266 -15z"/>
<path d="M33670 49879 c0 -17 38 -321 46 -368 3 -18 7 -31 10 -28 6 5 -43 398
-51 405 -3 3 -5 -1 -5 -9z"/>
<path d="M33713 49855 c3 -22 29 -211 57 -420 51 -373 57 -412 64 -404 6 6
-112 850 -120 857 l-7 7 6 -40z"/>
<path d="M40093 49508 c7 -18 44 -111 82 -205 38 -95 70 -171 73 -169 6 7
-152 406 -161 406 l-7 0 13 -32z"/>
<path d="M33853 48555 c3 -11 18 -111 33 -222 16 -112 31 -203 34 -203 l6 0
-30 214 -31 214 -9 9 -8 8 5 -20z"/>
<path d="M53800 47371 c0 -5 14 -14 31 -21 l31 -13 19 -31 19 -31 0 12 c0 6
-4 23 -10 37 l-9 25 -37 16 c-43 18 -44 18 -44 6z"/>
<path d="M33730 47217 c-171 -8 -200 -12 -189 -20 5 -4 496 21 524 26 35 7
-145 4 -335 -6z"/>
<path d="M53105 46890 c-82 -43 -176 -89 -207 -102 l-58 -23 0 -8 0 -8 23 6
c36 10 407 199 407 207 0 14 -13 9 -165 -72z"/>
<path d="M32742 46395 c-111 -7 -205 -15 -209 -18 l-6 -7 16 -6 17 -6 182 11
c101 6 198 11 216 11 l32 0 0 15 0 15 -22 -1 c-13 -1 -114 -7 -226 -14z"/>
<path d="M44430 45334 c0 -3 14 -35 31 -71 l31 -65 63 -64 63 -64 75 -35 c82
-38 87 -39 87 -26 l0 8 -62 28 c-35 16 -83 43 -108 62 l-45 34 -41 54 -41 55
-17 45 -18 45 -9 0 c-5 0 -9 -3 -9 -6z"/>
<path d="M51160 42904 c-278 -40 -512 -74 -520 -74 l-15 -2 11 -4 c12 -5 1085
143 1092 151 12 11 -89 -1 -568 -71z"/>
<path d="M41780 42850 l-174 -78 -4 -10 -3 -11 178 81 c185 83 189 85 182 92
-2 2 -83 -31 -179 -74z"/>
<path d="M49690 42821 c0 -4 32 -29 71 -55 l71 -48 34 -5 35 -6 129 18 130 18
0 8 0 9 -15 0 c-8 0 -63 -7 -122 -16 l-107 -16 -33 5 -33 6 -74 45 c-75 47
-86 52 -86 37z"/>
<path d="M55948 41740 l-3 -410 13 0 12 0 0 410 0 410 -10 0 -10 0 -2 -410z"/>
<path d="M90235 37205 c-11 -7 -92 -56 -180 -110 -88 -54 -166 -104 -173 -110
l-14 -13 9 -5 8 -5 175 109 c170 106 209 134 199 143 -2 2 -13 -2 -24 -9z"/>
<path d="M85452 37022 c13 -20 63 -104 112 -185 l89 -147 9 0 9 0 -4 8 c-2 4
-53 87 -112 185 l-107 177 -9 0 -10 0 23 -38z"/>
<path d="M86800 35482 c0 -5 24 -21 53 -35 l52 -27 53 0 52 0 0 13 0 12 -58 1
-58 0 -36 22 c-37 23 -58 28 -58 14z"/>
<path d="M86380 34804 c-163 -101 -208 -134 -185 -134 4 0 92 53 196 117 166
103 209 134 182 133 -5 -1 -91 -53 -193 -116z"/>
<path d="M34300 32510 c0 -6 7 -25 17 -43 l16 -32 4 12 4 12 -16 30 c-16 32
-25 39 -25 21z"/>
<path d="M98814 31738 l-22 -10 -11 -24 c-14 -30 -14 -34 -1 -34 l10 0 0 14 0
15 22 15 22 16 26 0 25 0 -15 10 c-18 12 -29 12 -56 -2z"/>
<path d="M87028 24893 l-47 -46 -26 17 -26 17 -17 -5 c-21 -7 -191 -176 -177
-176 6 0 46 36 90 80 l80 80 17 0 c9 0 20 -4 23 -10 l6 -10 23 0 22 0 44 45
c24 24 42 47 39 49 -3 3 -26 -16 -51 -41z"/>
<path d="M87081 20482 c5 -16 302 -330 308 -326 5 5 -46 62 -187 209 -69 72
-123 124 -121 117z"/>
<path d="M87075 20418 c96 -104 280 -288 288 -288 5 0 -62 74 -148 165 -87 91
-163 165 -168 165 l-11 0 39 -42z"/>
<path d="M90450 19498 c0 -7 23 -104 52 -215 l52 -203 12 0 12 0 -39 148 c-22
81 -47 177 -56 215 l-17 67 -8 0 c-4 0 -8 -6 -8 -12z"/>
<path d="M22864 18738 c4 -106 9 -212 12 -235 l6 -43 10 6 11 7 -7 136 c-4 75
-9 178 -13 229 l-6 92 -10 0 -10 0 7 -192z"/>
<path d="M96667 12034 l-6 -6 157 -131 c86 -72 231 -198 322 -281 91 -82 178
-161 194 -175 l28 -26 -3 16 -4 16 -180 164 c-158 144 -460 403 -491 422 l-11
6 -6 -5z"/>
<path d="M23797 2558 c-46 -68 -144 -213 -217 -323 -73 -110 -152 -222 -174
-248 l-41 -48 -115 -78 -115 -77 -67 -28 -68 -29 0 -13 0 -14 23 9 c12 5 53
23 90 40 l69 31 106 74 107 75 31 38 c25 31 445 650 468 690 l6 12 -9 5 -9 6
-85 -122z"/>
</g>
</svg>
