<?xml version="1.0" standalone="no"?>
<!DOCTYPE svg PUBLIC "-//W3C//DTD SVG 20010904//EN"
 "http://www.w3.org/TR/2001/REC-SVG-20010904/DTD/svg10.dtd">
<svg version="1.0" xmlns="http://www.w3.org/2000/svg"
 width="7500.000000pt" height="7500.000000pt" viewBox="0 0 7500.000000 7500.000000"
 preserveAspectRatio="xMidYMid meet">
<metadata>
Created by potrace 1.16, written by Peter Selinger 2001-2019
</metadata>
<g transform="translate(0.000000,7500.000000) scale(0.075000,-0.075000)"
fill="#000000" stroke="none">
<path d="M58570 98460 c0 -11 58 -376 65 -407 l5 -23 16 0 16 0 -6 28 c-6 28
-66 399 -66 407 0 3 -7 5 -15 5 l-15 0 0 -10z"/>
<path d="M27160 98182 c0 -8 374 -262 385 -262 3 0 5 5 5 10 l0 11 -189 124
c-104 69 -192 125 -195 125 -3 0 -6 -4 -6 -8z"/>
<path d="M97895 94410 l-169 -170 10 -10 11 -11 164 171 c90 94 166 176 167
181 l4 9 -9 0 c-4 0 -85 -76 -178 -170z"/>
<path d="M57504 92531 c9 -14 387 -224 393 -218 2 3 -15 16 -39 30 -144 83
-349 197 -354 197 l-5 0 5 -9z"/>
<path d="M28070 91111 c8 -5 91 -32 184 -61 92 -28 176 -54 185 -57 l16 -6
-10 10 c-9 10 -363 123 -382 123 -4 0 -1 -5 7 -9z"/>
<path d="M28843 90683 l7 -6 7 6 6 7 -13 0 -13 0 6 -7z"/>
<path d="M28871 90675 c9 -8 242 -66 253 -62 6 2 -47 18 -117 35 -129 33 -144
36 -136 27z"/>
<path d="M29148 90603 l13 -5 6 6 6 6 -19 -1 -19 -1 13 -5z"/>
<path d="M29193 90593 l7 -6 7 6 6 7 -13 0 -13 0 6 -7z"/>
<path d="M29233 90583 l7 -6 7 6 6 7 -13 0 -13 0 6 -7z"/>
<path d="M30170 90510 c0 -5 1 -10 3 -10 1 0 72 -9 157 -20 l155 -20 73 0 72
0 0 10 0 10 -52 0 c-29 0 -123 9 -208 20 -85 11 -165 20 -177 20 l-23 0 0 -10z"/>
<path d="M32280 89861 l0 -9 28 -6 c15 -3 109 -10 210 -17 l182 -12 7 6 c3 4
4 9 2 12 -5 4 -360 35 -406 35 l-23 0 0 -9z"/>
<path d="M33150 89787 l0 -13 133 -29 132 -28 78 -28 77 -28 0 13 0 13 -72 26
c-40 14 -127 38 -193 52 -66 15 -128 29 -137 32 l-18 4 0 -14z"/>
<path d="M99550 88933 c0 -5 35 -21 78 -37 42 -15 139 -57 216 -93 76 -35 141
-62 144 -59 6 7 -199 104 -331 157 -105 42 -107 43 -107 32z"/>
<path d="M84590 88784 l-285 -63 -115 -12 c-140 -14 -161 -24 -30 -15 l95 7
310 66 c171 36 314 70 320 75 l9 8 -9 -1 c-6 -1 -138 -30 -295 -65z"/>
<path d="M79835 88140 c-4 -6 -4 -10 -2 -10 2 0 94 -31 203 -70 109 -38 202
-70 206 -70 21 0 5 18 -24 27 -18 6 -110 38 -205 71 l-172 61 -6 -9z"/>
<path d="M36220 87403 c1 -12 412 -334 418 -328 3 3 3 7 1 8 -133 109 -410
327 -414 327 -3 0 -5 -3 -5 -7z"/>
<path d="M84412 87218 c-51 -101 -92 -187 -92 -193 0 -5 43 75 95 179 53 104
94 190 92 192 -2 2 -45 -78 -95 -178z"/>
<path d="M36655 87050 c3 -5 8 -10 11 -10 3 0 2 5 -1 10 -3 6 -8 10 -11 10 -3
0 -2 -4 1 -10z"/>
<path d="M78797 84853 c-19 -120 -33 -220 -31 -222 11 -12 20 25 50 211 37
226 37 228 25 228 l-8 0 -36 -217z"/>
<path d="M88152 84406 c-23 -85 -42 -163 -41 -173 l1 -18 14 45 c8 25 30 102
48 173 l34 127 -7 0 -7 0 -42 -154z"/>
<path d="M80510 84371 c0 -4 15 -12 33 -18 17 -6 114 -40 215 -75 l182 -65 0
7 c0 4 -69 31 -152 60 -84 29 -181 63 -215 76 l-63 23 0 -8z"/>
<path d="M81810 83911 l0 -8 195 -70 195 -70 0 7 c0 9 -10 13 -100 45 -36 13
-116 41 -177 64 l-113 40 0 -8z"/>
<path d="M92498 82414 l-118 -164 10 0 c5 0 59 70 120 155 l111 156 -3 8 -3 9
-117 -164z"/>
<path d="M96752 82040 l-133 -77 -29 -29 c-36 -35 -300 -407 -294 -413 5 -5
-13 -29 146 194 75 105 149 202 164 217 16 14 85 59 154 98 133 76 136 78 129
83 -2 2 -64 -31 -137 -73z"/>
<path d="M95998 81123 c-18 -27 -74 -106 -126 -177 -51 -70 -89 -126 -83 -125
10 4 240 314 248 336 11 27 -7 11 -39 -34z"/>
<path d="M95478 80388 c-134 -183 -176 -243 -172 -247 5 -6 -3 -16 107 136
112 155 131 183 123 183 -3 0 -29 -32 -58 -72z"/>
<path d="M72570 77120 l0 -10 240 0 240 0 0 10 0 10 -240 0 -240 0 0 -10z"/>
<path d="M41417 67878 c-43 -114 -130 -368 -134 -394 l-6 -34 12 0 11 0 0 20
c0 11 32 109 70 216 39 108 70 198 70 200 0 10 -18 3 -23 -8z"/>
<path d="M55377 66926 l-16 -24 -16 -125 c-16 -130 -18 -174 -10 -166 2 3 12
68 20 145 l16 139 20 28 20 27 -10 0 c-5 0 -16 -11 -24 -24z"/>
<path d="M43460 66540 c0 -4 10 -11 23 -14 12 -3 97 -30 190 -60 92 -30 167
-51 167 -47 0 3 -86 34 -190 67 l-190 61 0 -7z"/>
<path d="M41590 66266 c0 -4 72 -54 161 -112 l161 -106 6 6 c3 3 3 8 1 10 -11
10 -302 198 -315 203 l-14 5 0 -6z"/>
<path d="M94460 66096 c0 -11 59 -366 66 -395 3 -13 7 -22 9 -19 6 5 -60 407
-68 415 l-7 6 0 -7z"/>
<path d="M41220 65708 l1 -193 -21 -59 c-24 -70 -23 -66 -7 -66 l13 0 19 58
18 57 5 198 5 197 -17 0 -16 0 0 -192z"/>
<path d="M32917 65170 l-5 -20 21 -5 c89 -19 839 -115 903 -115 2 0 4 9 4 20
0 11 -1 20 -2 20 -66 1 -809 96 -894 115 l-22 5 -5 -20z"/>
<path d="M38490 65157 l25 -24 179 -32 c98 -17 181 -30 183 -27 7 7 -14 11
-200 45 l-158 28 -18 17 c-28 25 -38 19 -11 -7z"/>
<path d="M41960 63324 c1 -22 244 -304 263 -304 l9 0 -84 93 c-46 50 -106 119
-133 152 -26 33 -49 62 -51 64 -2 2 -4 0 -4 -5z"/>
<path d="M44466 63321 l-5 -8 67 -31 c37 -16 139 -75 227 -130 l160 -100 7 11
6 10 -172 106 c-144 90 -258 151 -280 151 -3 0 -7 -4 -10 -9z"/>
<path d="M41545 63140 c3 -5 11 -10 16 -10 l10 0 -6 10 c-3 6 -11 10 -16 10
l-10 0 6 -10z"/>
<path d="M42765 62999 c-82 -71 -172 -153 -200 -181 l-50 -52 41 35 c138 114
364 313 364 320 0 5 -1 9 -2 8 -2 0 -70 -59 -153 -130z"/>
<path d="M42251 63045 c-1 -9 98 -125 226 -268 l35 -39 5 6 6 5 -89 103 c-49
56 -110 124 -136 152 l-47 51 0 -10z"/>
<path d="M58652 62919 c-40 -22 -71 -43 -68 -46 3 -3 40 14 82 37 l77 42 106
-6 c58 -4 126 -9 151 -12 l45 -5 -15 10 -16 10 -144 6 -145 6 -73 -42z"/>
<path d="M89022 62421 c2 -5 81 -75 176 -156 l174 -146 11 4 11 3 -180 152
c-98 84 -183 152 -187 152 l-9 0 4 -9z"/>
<path d="M42876 62083 c265 -291 324 -353 324 -343 0 12 -511 570 -522 570 -5
0 84 -102 198 -227z"/>
<path d="M56735 62113 c6 -5 87 -42 180 -83 94 -40 318 -138 499 -217 181 -79
334 -142 339 -140 8 2 -943 421 -1008 443 l-20 7 10 -10z"/>
<path d="M44690 61895 c0 -10 351 -390 363 -394 l12 -4 -36 39 c-19 22 -102
112 -184 202 -141 155 -155 169 -155 157z"/>
<path d="M57330 61897 c3 -3 95 -44 205 -92 110 -48 208 -91 218 -96 l17 -10
0 9 0 9 -202 88 c-112 48 -212 90 -223 93 l-20 5 5 -6z"/>
<path d="M59854 61812 c-54 -61 -100 -123 -208 -281 l-36 -53 1 -22 0 -21 10
23 c14 37 187 281 247 350 30 34 53 65 50 67 -2 3 -31 -26 -64 -63z"/>
<path d="M45700 61318 c-102 -88 -303 -262 -447 -386 -145 -124 -263 -230
-263 -235 l0 -10 18 15 c30 25 177 153 182 158 3 3 154 133 335 289 182 156
341 295 355 307 l25 24 -10 0 c-6 -1 -93 -73 -195 -162z"/>
<path d="M34700 60761 c8 -5 51 -19 95 -31 l80 -22 129 -14 c71 -8 131 -12
133 -10 6 6 -35 12 -164 26 l-103 11 -82 24 c-46 14 -87 25 -93 24 l-10 0 15
-8z"/>
<path d="M43101 60736 l-13 -15 298 -333 c163 -183 302 -339 308 -346 l12 -12
17 12 16 13 -300 335 c-165 184 -306 341 -313 348 l-13 13 -12 -15z"/>
<path d="M57016 60722 l-6 -10 58 -73 c73 -92 125 -174 143 -222 l13 -37 9 9
9 9 -36 74 -37 73 -74 93 -73 93 -6 -9z"/>
<path d="M61764 60680 c4 -14 65 -306 137 -650 72 -344 132 -627 135 -629 10
-10 -3 53 -127 653 l-132 631 -9 10 -9 10 5 -25z"/>
<path d="M61320 60599 c0 -23 99 -491 105 -497 9 -10 5 14 -45 259 -46 222
-60 278 -60 238z"/>
<path d="M60891 60388 c-1 -17 65 -348 75 -377 2 -8 6 -12 9 -10 3 4 -70 371
-79 394 l-4 10 -1 -17z"/>
<path d="M62565 60314 c-88 -19 -274 -57 -414 -86 -140 -28 -249 -54 -243 -56
13 -4 807 155 837 168 l20 9 -20 -1 c-11 0 -92 -16 -180 -34z"/>
<path d="M44410 60199 c-74 -67 -137 -126 -139 -133 l-4 -11 29 25 c70 62 231
205 249 222 l19 18 -9 0 c-6 0 -71 -55 -145 -121z"/>
<path d="M58642 60190 c-18 -4 -36 -10 -39 -14 l-6 -6 38 3 38 2 38 -70 c52
-95 235 -497 335 -735 l81 -195 19 -3 19 -4 -16 14 -16 13 -68 165 c-111 271
-376 844 -388 839 -1 -1 -17 -5 -35 -9z"/>
<path d="M59205 59684 l-150 -114 -22 -6 -23 -6 0 -13 c0 -7 4 -15 8 -17 6 -2
40 -79 127 -291 l15 -37 18 10 c9 5 436 93 947 195 512 103 936 188 944 191
68 22 -121 -13 -934 -177 -517 -104 -948 -188 -958 -187 l-18 3 -65 155 -65
155 12 4 c12 4 292 213 319 237 l14 14 -9 -1 c-6 0 -77 -52 -160 -115z"/>
<path d="M59900 59330 c-102 -20 -203 -41 -225 -45 l-40 -8 12 -4 12 -4 233
46 c128 26 235 49 237 51 10 10 -56 -1 -229 -36z"/>
<path d="M61584 59280 c4 -14 37 -179 75 -368 l68 -342 -36 -9 c-20 -6 -108
-28 -196 -51 -184 -47 -189 -49 -183 -55 2 -2 89 18 194 45 104 27 200 51 214
54 14 3 231 48 484 101 408 84 504 106 455 105 -8 -1 -216 -43 -464 -94 l-450
-93 -7 16 c-4 9 -37 169 -74 356 l-67 340 -9 10 -9 10 5 -25z"/>
<path d="M83854 59128 c13 -24 100 -189 194 -368 l170 -325 13 -42 c7 -24 16
-43 20 -43 l8 0 -16 48 c-19 56 -394 772 -404 772 -4 0 3 -19 15 -42z"/>
<path d="M83800 59156 c0 -15 204 -406 213 -406 4 0 -28 66 -70 148 -101 193
-143 269 -143 258z"/>
<path d="M62438 58676 c-108 -22 -200 -45 -205 -49 l-8 -9 25 6 c14 4 115 24
224 46 187 37 242 52 185 49 -13 -1 -113 -20 -221 -43z"/>
<path d="M59595 58552 c13 -13 387 -154 393 -147 3 2 -1 7 -9 10 -8 2 -90 33
-184 69 -93 35 -179 68 -190 72 l-20 7 10 -11z"/>
<path d="M49942 58054 c3 -3 70 -37 148 -75 l142 -69 86 -26 c48 -14 93 -27
100 -29 l12 -4 0 8 0 8 -97 28 -98 27 -137 69 c-76 38 -143 69 -150 69 l-11 0
5 -6z"/>
<path d="M64030 58036 c0 -16 182 -891 186 -895 2 -2 4 2 4 10 0 24 -178 880
-184 886 l-6 6 0 -7z"/>
<path d="M63995 58008 c3 -13 43 -214 90 -448 46 -234 127 -625 180 -869 l96
-444 -16 -17 c-8 -9 -15 -23 -15 -31 l0 -14 24 30 c13 16 22 33 20 36 -4 7
-179 822 -188 874 -2 17 -44 227 -93 467 l-88 438 -8 0 -7 0 5 -22z"/>
<path d="M9290 57845 c0 -7 28 -57 79 -143 l43 -72 75 -70 75 -70 14 0 14 0 0
9 c0 5 -15 20 -34 35 -19 14 -57 49 -85 78 l-50 53 -53 92 -53 92 -12 1 c-7 0
-13 -2 -13 -5z"/>
<path d="M79739 56898 l-63 -103 -76 -79 c-41 -43 -97 -95 -125 -115 l-50 -37
-65 -26 c-70 -27 -130 -43 -225 -57 l-60 -8 71 -2 71 -1 101 34 102 34 47 35
c27 20 87 75 134 124 l86 88 52 84 c28 45 59 94 68 107 l15 24 -9 0 -10 0 -64
-102z"/>
<path d="M47597 56504 l-6 -6 70 -62 70 -61 134 -76 134 -77 5 6 6 5 -132 75
-133 75 -71 63 -71 64 -6 -6z"/>
<path d="M82756 56413 c12 -54 35 -151 50 -215 15 -65 30 -118 34 -118 l7 0
-51 215 c-28 118 -53 215 -57 215 l-7 0 24 -97z"/>
<path d="M54413 56413 l-33 -4 0 -10 0 -9 29 0 c35 0 61 9 61 21 l0 9 -12 -2
c-7 0 -28 -3 -45 -5z"/>
<path d="M64430 56242 l35 -17 3 -33 3 -34 -17 -19 -17 -19 -32 0 -31 0 -10
10 -10 10 -262 -52 c-144 -29 -262 -55 -262 -59 0 -3 116 17 259 46 l258 52
19 -14 19 -14 30 7 30 6 23 21 23 22 -6 35 -6 35 -21 18 -20 17 -22 0 -21 0
35 -18z"/>
<path d="M63678 56134 c-15 -8 -32 -23 -38 -34 l-11 -20 7 -11 6 -11 19 31 19
31 15 0 15 0 0 15 c0 18 2 18 -32 -1z"/>
<path d="M17520 56002 c0 -13 171 -437 181 -446 26 -27 10 21 -72 227 l-91
227 -9 0 c-5 0 -9 -3 -9 -8z"/>
<path d="M10235 55933 c-104 -70 -185 -113 -213 -113 -10 0 -24 -5 -32 -11
l-15 -10 37 6 c58 9 125 43 228 113 52 36 99 69 105 74 l9 8 -10 0 c-5 0 -54
-30 -109 -67z"/>
<path d="M63796 55863 c19 -76 61 -284 95 -463 34 -179 63 -327 65 -329 2 -2
7 -2 10 2 l6 6 -57 303 c-31 167 -73 372 -94 457 l-37 155 -11 3 -11 4 34
-138z"/>
<path d="M46944 55712 l-11 -7 31 -105 c31 -102 50 -150 105 -265 l26 -55 14
9 15 10 -51 118 c-28 65 -60 152 -72 193 -12 41 -24 83 -27 93 -6 18 -13 21
-30 9z"/>
<path d="M60788 55693 c28 -2 76 -2 105 0 l52 3 -105 0 -105 0 53 -3z"/>
<path d="M61910 55549 c0 -8 14 -102 31 -209 l32 -195 9 -10 9 -10 -5 25 c-3
14 -19 110 -36 214 -27 170 -40 227 -40 185z"/>
<path d="M26540 55277 c14 -8 48 -35 75 -60 72 -68 80 -58 10 13 l-60 60 -25
0 -25 0 25 -13z"/>
<path d="M53218 54933 c-8 -10 -28 -40 -43 -68 -16 -27 -75 -118 -132 -202
l-103 -152 9 -5 9 -6 129 198 c71 108 137 209 147 225 l16 27 -8 0 c-5 0 -16
-8 -24 -17z"/>
<path d="M53280 54941 c0 -6 5 -21 12 -35 l11 -26 -143 -215 c-79 -118 -145
-215 -147 -215 -2 0 -15 7 -28 16 l-25 16 0 -8 c0 -11 550 -368 556 -361 5 5
-26 26 -328 221 l-168 108 19 17 c10 9 78 107 151 219 l132 202 -12 30 c-7 17
-17 33 -21 36 l-9 5 0 -10z"/>
<path d="M50298 54578 l-67 -73 -6 -23 -6 -24 45 -60 45 -61 132 -113 c73 -63
134 -112 137 -110 4 5 -8 17 -158 144 l-95 81 -46 63 -47 62 13 26 c8 14 43
55 78 93 l65 67 -11 0 c-6 0 -42 -33 -79 -72z"/>
<path d="M51940 54300 c-78 -105 -140 -193 -138 -196 3 -2 69 82 147 187 78
105 140 193 138 195 -2 3 -69 -81 -147 -186z"/>
<path d="M87986 54348 l-16 -22 0 -37 c0 -21 3 -44 6 -53 l6 -16 8 5 8 5 -5
44 -5 44 20 20 20 20 -5 6 c-11 11 -22 6 -37 -16z"/>
<path d="M49085 54222 l-229 -117 -3 -11 -4 -11 242 123 c133 68 245 126 247
129 23 22 -57 -13 -253 -113z"/>
<path d="M62131 54170 c-1 -8 40 -221 91 -472 l93 -458 8 0 8 0 -5 18 c-3 9
-46 217 -96 462 -50 245 -92 450 -94 455 l-4 10 -1 -15z"/>
<path d="M22670 54000 c-89 -94 -161 -173 -158 -175 2 -2 77 72 167 166 90 93
161 172 159 175 -3 2 -78 -73 -168 -166z"/>
<path d="M52628 53857 c-93 -143 -130 -211 -159 -296 -23 -65 -23 -67 -4 -51
l15 12 0 18 c0 9 22 61 48 116 l49 99 71 108 c62 94 81 128 70 127 -2 0 -42
-60 -90 -133z"/>
<path d="M52345 53630 l-6 -10 10 0 c5 0 13 5 16 10 l6 10 -10 0 c-5 0 -13 -4
-16 -10z"/>
<path d="M50120 53380 c-112 -54 -208 -101 -214 -103 -6 -2 -9 -7 -6 -10 3 -3
104 44 225 103 121 60 215 109 209 109 -6 1 -102 -44 -214 -99z"/>
<path d="M52448 53266 l-17 -24 -108 -8 -108 -7 25 -9 25 -9 60 -135 c33 -74
94 -196 137 -272 l76 -137 15 -3 16 -3 100 58 c56 31 101 60 101 64 0 4 -40
-16 -88 -46 -49 -29 -98 -56 -110 -59 l-21 -7 -24 38 c-50 81 -125 224 -189
363 l-66 145 81 8 82 9 13 10 c7 6 18 20 23 30 l10 18 -8 0 c-4 0 -16 -11 -25
-24z"/>
<path d="M84083 53278 c2 -7 30 -115 62 -241 32 -125 60 -225 63 -223 2 3 -22
111 -54 241 l-59 235 -9 0 -8 0 5 -12z"/>
<path d="M53639 53222 c-51 -19 -410 -204 -405 -210 2 -2 86 39 187 91 101 52
203 101 227 108 l42 12 0 9 c0 4 -1 8 -2 7 -2 0 -24 -8 -49 -17z"/>
<path d="M49765 52919 c-248 -136 -238 -130 -232 -135 2 -2 96 46 208 108 112
61 210 111 217 111 l12 0 0 14 c0 7 -1 13 -2 12 -2 0 -93 -50 -203 -110z"/>
<path d="M65480 52869 c-151 -32 -449 -91 -662 -131 l-388 -72 0 -7 0 -7 18 4
c9 2 175 34 367 70 334 62 935 184 944 191 16 12 -36 3 -279 -48z"/>
<path d="M64355 52650 l-20 -9 28 0 27 -1 0 10 c0 12 -8 12 -35 0z"/>
<path d="M27045 52113 l0 -233 8 0 7 0 -1 173 c-1 94 -4 199 -8 232 l-7 60 1
-232z"/>
<path d="M84100 52250 c-102 -26 -178 -48 -170 -49 8 0 101 22 205 48 105 27
181 49 170 49 -11 0 -103 -22 -205 -48z"/>
<path d="M27717 51773 c-10 -109 -20 -388 -14 -383 7 6 30 440 24 446 -2 3 -7
-26 -10 -63z"/>
<path d="M75137 51763 l-6 -9 90 -164 c96 -176 96 -176 105 -168 l5 6 -91 169
c-103 188 -96 177 -103 166z"/>
<path d="M82542 51595 c3 -11 29 -120 59 -242 30 -123 57 -223 60 -223 7 0
-109 472 -118 480 l-6 5 5 -20z"/>
<path d="M27027 51391 l-7 -33 2 -172 1 -171 8 195 c9 198 8 241 -4 181z"/>
<path d="M22287 51332 c-29 -27 -79 -64 -110 -83 l-56 -34 -1 -13 0 -13 21 12
c75 40 219 152 219 171 0 18 -22 6 -73 -40z"/>
<path d="M27790 50960 l0 -8 63 -6 c34 -3 122 -8 195 -11 l132 -6 0 9 0 10
-117 6 c-65 3 -153 8 -195 11 l-78 4 0 -9z"/>
<path d="M26775 50749 c-4 -99 -5 -183 -2 -185 3 -3 8 57 11 133 3 76 8 159
11 186 l4 47 -8 0 -8 0 -8 -181z"/>
<path d="M27804 50700 l0 -185 3 93 c2 50 2 134 0 185 l-3 92 0 -185z"/>
<path d="M31685 50265 c10 -134 25 -350 25 -369 l0 -19 6 6 6 5 -12 209 -13
208 -9 15 -8 15 5 -70z"/>
<path d="M26260 50260 c52 -4 154 -10 225 -13 l130 -6 -20 8 -20 8 -205 6
-205 5 95 -8z"/>
<path d="M37570 50079 c-107 -10 -208 -18 -224 -18 l-29 -1 6 -6 6 -6 218 17
c202 16 233 20 222 28 -2 2 -92 -5 -199 -14z"/>
<path d="M33848 49980 l-148 -7 -7 -6 c-3 -4 -4 -9 -2 -11 2 -2 83 0 179 4 96
5 203 9 238 9 l63 1 -6 10 -6 10 -82 -2 c-45 -1 -148 -4 -229 -8z"/>
<path d="M39204 49772 l6 -10 37 -7 c21 -4 175 -40 343 -82 168 -41 351 -83
408 -92 l102 -18 0 7 0 7 -77 12 c-65 11 -747 168 -807 187 l-19 6 7 -10z"/>
<path d="M30506 49585 c14 -436 38 -883 49 -893 7 -7 7 4 -9 258 -8 124 -18
331 -22 460 l-6 235 -9 40 -8 40 5 -140z"/>
<path d="M35973 49509 c4 -13 7 -32 7 -41 l0 -18 8 0 8 0 -4 35 -4 35 -11 7
-10 6 6 -24z"/>
<path d="M37040 49381 l0 -9 78 -17 c42 -9 142 -32 222 -50 132 -31 163 -35
148 -20 -5 5 -424 105 -440 105 -5 0 -8 -4 -8 -9z"/>
<path d="M33770 48599 c-58 -4 -159 -10 -225 -14 l-120 -8 14 -5 c15 -5 434
17 440 24 9 9 -8 9 -109 3z"/>
<path d="M33854 48550 c3 -14 17 -114 32 -222 l27 -198 7 0 6 0 -30 214 -31
214 -8 9 -9 8 6 -25z"/>
<path d="M91057 48329 c-98 -104 -174 -189 -170 -189 11 0 329 334 343 360 6
11 9 20 8 19 -2 0 -83 -85 -181 -190z"/>
<path d="M91234 48463 c-15 -21 -92 -104 -171 -185 -79 -80 -143 -150 -143
-155 0 -4 57 48 126 117 125 124 231 247 222 256 -3 2 -18 -12 -34 -33z"/>
<path d="M33960 48119 c0 -22 51 -402 56 -418 2 -8 6 -12 8 -10 6 5 -52 430
-59 437 -3 3 -5 -1 -5 -9z"/>
<path d="M32963 47164 c3 -17 9 -65 13 -106 l7 -76 -84 -6 c-46 -3 -293 -15
-549 -26 -255 -12 -467 -23 -469 -26 -2 -2 -2 -6 0 -8 8 -9 1105 47 1114 56 2
2 -1 49 -7 103 l-11 100 -10 10 -10 10 6 -31z"/>
<path d="M17620 47153 c0 -5 14 -42 31 -84 l30 -77 25 -23 24 -22 64 11 64 12
56 25 c31 14 56 27 56 30 0 2 -21 -5 -47 -16 -26 -11 -78 -27 -116 -35 l-68
-14 -23 15 -23 16 -33 84 c-30 78 -40 97 -40 78z"/>
<path d="M45673 46911 c-122 -36 -225 -69 -229 -73 -4 -4 22 1 57 11 234 68
395 115 398 118 18 14 -34 1 -226 -56z"/>
<path d="M46166 46040 l-59 -325 -39 -97 -40 -97 -83 -86 -82 -86 7 -4 c8 -5
129 118 157 160 11 17 35 64 52 105 l32 75 60 324 c33 178 59 331 57 340 -2 9
-30 -130 -62 -309z"/>
<path d="M81344 45948 l-7 -11 11 7 c7 4 12 9 12 12 0 8 -9 4 -16 -8z"/>
<path d="M81372 45893 c-5 -10 -17 -47 -27 -83 -9 -36 -25 -81 -35 -101 l-18
-35 -27 -12 -28 -13 6 -6 6 -6 31 13 31 13 15 36 c18 41 65 211 59 211 -3 0
-8 -8 -13 -17z"/>
<path d="M44411 45653 c1 -137 4 -261 8 -277 l6 -29 12 -4 11 -4 -9 38 -9 38
0 243 0 242 -10 0 -10 0 1 -247z"/>
<path d="M81300 45792 c-12 -38 -25 -74 -30 -81 l-7 -13 -34 -8 -34 -8 32 -1
32 -1 14 14 14 14 22 72 c13 39 21 74 18 76 -3 3 -15 -26 -27 -64z"/>
<path d="M44305 45583 c11 -175 31 -283 53 -283 l9 0 -18 78 -19 77 -6 118 -6
117 -10 0 -10 0 7 -107z"/>
<path d="M81251 45608 c0 -13 -3 -36 -6 -53 l-6 -30 16 34 c17 39 19 57 5 66
l-10 6 1 -23z"/>
<path d="M15432 44598 l-2 -128 16 -40 c9 -23 18 -39 21 -37 2 2 -1 17 -8 33
l-11 29 -7 135 -8 135 -1 -127z"/>
<path d="M26556 44381 c15 -16 396 -192 407 -188 9 3 -394 197 -409 197 l-8 0
10 -9z"/>
<path d="M52700 44159 c0 -6 11 -25 24 -42 14 -18 27 -44 31 -59 l7 -27 14 6
15 6 -7 31 -6 31 -25 33 -24 32 -15 0 -14 0 0 -11z"/>
<path d="M52674 43901 l-30 -17 4 -12 4 -12 18 0 18 0 22 18 23 19 -7 11 c-9
15 -13 14 -52 -7z"/>
<path d="M87885 43900 c13 -25 207 -333 223 -355 l14 -20 -6 19 c-8 25 -205
337 -224 356 l-15 15 8 -15z"/>
<path d="M52540 43880 l0 -20 20 0 20 0 0 8 c0 4 -5 13 -12 20 -7 7 -16 12
-20 12 l-8 0 0 -20z"/>
<path d="M87957 43703 c136 -219 122 -197 127 -192 6 6 -222 373 -234 377 -5
2 43 -81 107 -185z"/>
<path d="M51525 42955 c-82 -13 -154 -24 -159 -24 -5 -1 -7 -3 -4 -6 5 -5 360
44 367 51 8 8 -57 1 -204 -21z"/>
<path d="M51015 42925 c-404 -58 -388 -56 -382 -62 7 -7 676 86 702 97 l20 9
-20 -1 c-11 0 -155 -20 -320 -43z"/>
<path d="M49506 42911 c5 -5 24 -12 42 -16 l32 -7 0 10 c0 13 -25 22 -58 22
l-26 0 10 -9z"/>
<path d="M50818 42857 l-138 -20 0 -7 0 -6 150 21 c82 12 153 25 157 28 l6 7
-19 -1 c-10 -1 -81 -11 -156 -22z"/>
<path d="M93140 41352 c0 -16 91 -142 103 -142 l9 0 -48 68 c-26 37 -51 71
-56 77 l-8 9 0 -12z"/>
<path d="M57748 40923 c56 -2 148 -2 205 0 l102 3 -205 0 -205 0 103 -3z"/>
<path d="M57313 40883 c65 -2 168 -2 230 0 l112 3 -230 0 -230 0 118 -3z"/>
<path d="M93787 40464 l-6 -6 32 -43 c18 -23 140 -189 271 -369 132 -179 241
-324 244 -322 2 3 -98 145 -224 317 -125 172 -243 335 -262 363 -19 28 -38 54
-41 59 l-7 7 -7 -6z"/>
<path d="M84780 39956 c0 -4 42 -69 93 -144 51 -75 110 -167 132 -204 21 -38
43 -68 47 -68 14 0 -217 364 -263 415 l-9 9 0 -8z"/>
<path d="M54443 39757 l-43 -10 0 -13 0 -13 13 4 c6 2 31 9 55 15 l43 11 -6 9
c-7 11 -5 11 -62 -3z"/>
<path d="M92803 37611 l6 -24 -10 -20 -11 -19 14 4 13 5 3 27 4 28 -13 12 -12
11 6 -24z"/>
<path d="M58711 36844 l-12 -27 6 -6 6 -5 9 14 c9 14 14 50 7 50 -2 0 -9 -12
-16 -26z"/>
<path d="M40775 36652 c-167 -37 -172 -38 -162 -48 l5 -6 158 36 c87 19 161
33 165 31 4 -3 10 -30 14 -61 4 -32 11 -67 16 -78 l10 -21 -6 63 c-2 34 -7 73
-11 87 l-6 24 -11 4 c-7 2 -84 -12 -172 -31z"/>
<path d="M88243 36026 l-392 -241 -1 -14 0 -13 13 5 c13 5 734 447 769 471
l17 12 -7 11 -7 11 -392 -242z"/>
<path d="M86487 35769 l-17 -10 5 -8 4 -8 36 11 c19 6 35 14 35 18 l0 8 -22 0
c-13 0 -31 -5 -41 -11z"/>
<path d="M86644 35712 c24 -48 156 -232 167 -232 5 0 9 3 9 6 0 8 -131 189
-166 229 l-26 30 16 -33z"/>
<path d="M86440 35690 l0 -13 7 6 6 7 -6 7 -7 6 0 -13z"/>
<path d="M84840 35610 c-54 -36 -42 -40 15 -5 l40 24 40 0 40 0 26 -22 27 -22
58 -102 c32 -57 62 -103 66 -103 4 0 -21 48 -54 108 l-61 107 -26 22 -26 22
-50 1 -50 0 -45 -30z"/>
<path d="M84915 35602 c-30 -10 -85 -45 -85 -55 l0 -8 13 7 c6 4 24 16 39 26
l26 18 26 0 26 0 20 -20 c11 -11 33 -46 49 -78 16 -32 56 -94 89 -138 32 -44
103 -153 158 -242 54 -89 102 -162 107 -162 l9 0 -14 23 c-8 12 -54 87 -103
167 -49 80 -114 179 -144 220 -31 41 -73 108 -94 147 l-38 72 -22 16 c-23 16
-30 17 -62 7z"/>
<path d="M81807 34795 c23 -27 62 -70 88 -95 26 -25 77 -85 114 -135 38 -49
79 -99 92 -110 l24 -20 -21 25 c-11 14 -48 63 -82 110 l-61 85 -97 95 -97 95
40 -50z"/>
<path d="M5480 29146 l0 -16 9 0 c5 0 102 -13 216 -30 114 -16 209 -30 211
-30 2 0 4 6 4 13 l0 13 -202 28 c-112 15 -211 30 -220 32 l-18 5 0 -15z"/>
<path d="M95310 26779 c-96 -71 -177 -134 -179 -140 -3 -9 325 226 359 257
l14 14 -9 -1 c-6 0 -89 -58 -185 -130z"/>
<path d="M23526 17272 l-5 -9 155 -172 155 -171 10 6 11 6 -19 22 c-87 98
-295 326 -298 326 -2 0 -6 -4 -9 -8z"/>
<path d="M92175 16350 c27 -27 51 -47 54 -45 6 7 -80 95 -93 95 l-10 0 49 -50z"/>
<path d="M24002 2968 c-33 -57 -139 -221 -236 -365 l-175 -263 14 0 13 0 180
263 c165 242 272 410 288 450 l6 17 -15 0 -15 0 -60 -102z"/>
<path d="M10320 1735 l0 -15 18 0 c9 0 219 -14 465 -31 l448 -31 6 6 6 6 -6 6
-7 7 -402 28 c-222 15 -431 30 -465 33 l-63 5 0 -14z"/>
<path d="M21680 1129 c-69 -32 -328 -129 -345 -129 l-15 0 0 -16 0 -16 32 8
c34 7 245 86 336 125 l52 23 0 13 c0 17 -7 16 -60 -8z"/>
</g>
</svg>
