<?xml version="1.0" standalone="no"?>
<!DOCTYPE svg PUBLIC "-//W3C//DTD SVG 20010904//EN"
 "http://www.w3.org/TR/2001/REC-SVG-20010904/DTD/svg10.dtd">
<svg version="1.0" xmlns="http://www.w3.org/2000/svg"
 width="7500.000000pt" height="7500.000000pt" viewBox="0 0 7500.000000 7500.000000"
 preserveAspectRatio="xMidYMid meet">
<metadata>
Created by potrace 1.16, written by Peter Selinger 2001-2019
</metadata>
<g transform="translate(0.000000,7500.000000) scale(0.075000,-0.075000)"
fill="#000000" stroke="none">
<path d="M14097 96973 c-4 -65 -6 -169 -6 -230 l0 -113 9 0 10 0 0 133 c0 72
3 176 7 230 l6 97 -10 0 -10 0 -6 -117z"/>
<path d="M87657 96390 l-259 -9 -6 -6 -7 -7 220 6 c121 4 279 7 350 8 l130 1
80 -26 c43 -14 81 -24 83 -22 5 5 -10 11 -93 40 l-50 17 -95 3 c-52 2 -211 -1
-353 -5z"/>
<path d="M86540 96171 c0 -15 123 -233 179 -316 65 -96 60 -90 67 -82 l7 6
-64 98 c-35 54 -89 145 -119 201 -49 91 -70 119 -70 93z"/>
<path d="M98617 95162 l-77 -77 0 -20 0 -20 89 89 90 90 -5 8 c-10 15 -19 8
-97 -70z"/>
<path d="M88235 95104 c-77 -53 -161 -108 -187 -123 l-47 -27 8 -12 7 -12 188
123 188 122 0 10 c-1 21 -22 10 -157 -81z"/>
<path d="M97596 94469 l-156 -160 6 -11 6 -10 90 88 c49 49 121 124 159 166
l70 76 -10 6 -9 6 -156 -161z"/>
<path d="M98915 94272 c8 -9 98 -46 368 -153 l47 -19 0 8 0 8 -192 77 c-106
42 -202 79 -213 83 l-20 7 10 -11z"/>
<path d="M87715 93208 c-77 -79 -160 -165 -185 -193 -25 -27 40 33 143 135
l187 185 74 -74 74 -73 36 13 36 13 43 -11 c49 -14 62 -9 21 8 l-29 12 -37 0
-38 0 -13 -11 -13 -11 -74 74 c-41 41 -77 75 -80 75 -3 0 -68 -64 -145 -142z"/>
<path d="M21866 92763 c-3 -3 -6 -15 -6 -25 l0 -18 9 0 c5 0 11 9 14 20 l5 20
-8 5 c-4 2 -10 2 -14 -2z"/>
<path d="M5443 92263 c-13 -32 -27 -61 -30 -65 -2 -5 -2 -8 1 -8 3 0 20 25 38
55 l33 55 12 0 12 0 166 -177 c92 -98 171 -179 176 -181 l9 -4 0 9 c0 5 -77
91 -171 191 l-170 182 -25 0 -25 0 -26 -57z"/>
<path d="M95266 91550 l-140 -170 -18 -6 -18 -5 0 -14 0 -14 28 10 27 11 139
166 c132 159 148 183 129 189 l-8 3 -139 -170z"/>
<path d="M94916 91493 c-37 -48 -105 -126 -150 -173 l-83 -85 -59 -28 -59 -28
-22 -34 -22 -33 13 -5 13 -5 22 29 22 29 49 25 50 25 70 67 71 66 85 110 86
109 -10 10 -9 9 -67 -88z"/>
<path d="M25670 91562 c0 -9 418 -127 425 -121 3 3 -62 24 -143 47 -81 23
-177 51 -214 61 l-68 20 0 -7z"/>
<path d="M55772 91408 c-10 -18 -59 -106 -107 -196 l-88 -163 11 -11 c7 -7 13
-10 15 -7 11 13 207 382 207 389 0 5 -4 11 -9 14 l-9 6 -20 -32z"/>
<path d="M93953 91207 l19 -15 74 -17 74 -16 18 5 c9 3 76 7 147 7 l130 2 -20
8 -20 8 -140 -6 -140 -5 -60 15 c-33 8 -69 18 -80 22 l-20 7 18 -15z"/>
<path d="M94450 91211 c19 -5 55 -12 80 -15 l45 -7 -10 9 -10 10 -70 5 -70 6
35 -8z"/>
<path d="M94510 91083 l-15 -4 -47 -66 -47 -67 -160 -167 -160 -166 12 -12 11
-11 -29 -30 -29 -30 6 -5 5 -6 162 167 162 168 16 30 c22 45 122 176 133 176
l10 0 0 15 c0 15 -3 16 -30 8z m-380 -457 c0 -3 -5 -8 -12 -12 l-11 -7 7 11
c7 12 16 16 16 8z"/>
<path d="M27401 91066 c6 -6 608 -186 623 -186 7 0 61 -14 120 -31 60 -17 110
-28 112 -26 6 6 -109 41 -240 73 -56 14 -212 59 -348 100 -225 67 -279 82
-267 70z"/>
<path d="M94357 90555 l-49 -66 -186 -192 c-103 -106 -310 -319 -460 -474
l-272 -282 12 -7 12 -8 126 131 c69 72 282 292 474 489 l349 358 29 45 c27 44
35 71 21 71 -5 0 -30 -29 -56 -65z"/>
<path d="M93601 90129 l-154 -160 10 -10 9 -9 157 164 156 163 -6 7 c-4 3 -9
6 -12 6 -3 0 -75 -73 -160 -161z"/>
<path d="M30755 90141 l30 -30 138 -54 137 -55 0 7 c0 4 -61 32 -135 61 l-134
53 -22 24 c-13 12 -27 23 -33 23 l-11 0 30 -29z"/>
<path d="M31500 89920 c14 -4 36 -8 50 -8 l25 0 -25 8 c-14 4 -36 8 -50 8
l-25 0 25 -8z"/>
<path d="M31598 89903 l13 -5 6 6 6 6 -19 -1 -19 -1 13 -5z"/>
<path d="M85130 88894 c-96 -18 -190 -36 -209 -39 -18 -4 -31 -9 -28 -11 3 -3
97 11 208 31 l204 37 10 9 9 9 -9 -1 c-6 -1 -89 -16 -185 -35z"/>
<path d="M84380 88739 l-75 -18 -115 -12 c-140 -14 -161 -24 -30 -15 l95 7
103 21 102 21 0 9 c0 4 -1 8 -2 7 -2 -1 -37 -9 -78 -20z"/>
<path d="M89428 87678 l-208 -70 0 -13 0 -13 225 75 225 75 0 9 0 9 -17 -1
c-10 0 -111 -32 -225 -71z"/>
<path d="M17136 87111 l-6 -9 143 -115 c79 -63 162 -126 185 -140 l41 -27 6 9
5 9 -37 23 c-21 13 -104 76 -185 141 l-147 118 -5 -9z"/>
<path d="M84277 86933 c-20 -48 -41 -94 -46 -101 l-8 -13 -74 21 c-75 20 -96
24 -87 15 7 -7 144 -45 161 -45 l14 0 42 96 c23 52 41 100 39 105 l-3 10 -38
-88z"/>
<path d="M36735 86990 c3 -5 8 -10 11 -10 3 0 2 5 -1 10 -3 6 -8 10 -11 10 -3
0 -2 -4 1 -10z"/>
<path d="M84307 86898 l-46 -103 -15 -9 -14 -10 -276 76 c-152 41 -276 72
-276 68 0 -5 553 -160 572 -160 8 0 111 230 105 236 -2 2 -25 -42 -50 -98z"/>
<path d="M36760 86976 c0 -2 8 -10 18 -17 l17 -14 -14 18 c-13 16 -21 21 -21
13z"/>
<path d="M36805 86940 c3 -5 8 -10 11 -10 3 0 2 5 -1 10 -3 6 -8 10 -11 10 -3
0 -2 -4 1 -10z"/>
<path d="M36830 86926 c0 -2 8 -10 18 -17 l17 -14 -14 18 c-13 16 -21 21 -21
13z"/>
<path d="M36870 86896 c0 -2 14 -14 30 -26 17 -12 30 -19 30 -16 0 2 -13 14
-30 26 -16 12 -30 19 -30 16z"/>
<path d="M36965 86826 c37 -32 205 -149 205 -142 0 2 -37 30 -82 62 -46 32
-99 68 -118 82 l-35 24 30 -26z"/>
<path d="M37185 86670 c3 -5 8 -10 11 -10 3 0 2 5 -1 10 -3 6 -8 10 -11 10 -3
0 -2 -4 1 -10z"/>
<path d="M37215 86650 c3 -5 8 -10 11 -10 3 0 2 5 -1 10 -3 6 -8 10 -11 10 -3
0 -2 -4 1 -10z"/>
<path d="M71290 85905 c0 -6 32 -88 71 -182 l71 -173 8 0 8 0 -55 133 c-30 72
-62 150 -70 172 -9 22 -20 44 -25 50 l-8 9 0 -9z"/>
<path d="M56287 85820 c-176 -26 -207 -33 -196 -44 2 -3 102 9 221 26 l217 31
-5 9 -5 8 -22 -1 c-12 -1 -107 -14 -210 -29z"/>
<path d="M56250 85570 l0 -10 195 0 195 0 0 10 0 10 -195 0 -195 0 0 -10z"/>
<path d="M81250 85456 c0 -3 330 -116 390 -133 l15 -5 -15 10 c-16 11 -367
132 -381 132 -5 0 -9 -2 -9 -4z"/>
<path d="M83036 85133 c-63 -126 -113 -230 -111 -231 14 -14 74 95 196 356
l48 102 -9 0 -10 0 -114 -227z"/>
<path d="M68225 85245 c-5 -2 -32 -6 -59 -10 l-48 -7 8 -8 9 -9 59 8 58 8 166
-23 c152 -22 185 -23 170 -9 -4 5 -352 58 -353 54 0 0 -4 -2 -10 -4z"/>
<path d="M29220 85109 l0 -6 122 -7 121 -7 80 -25 c93 -30 114 -26 30 6 l-58
22 -80 9 c-44 4 -110 9 -147 11 l-68 4 0 -7z"/>
<path d="M78880 85050 c0 -8 -15 -108 -34 -222 l-33 -208 9 0 c10 0 13 14 48
235 l30 189 -10 10 -10 10 0 -14z"/>
<path d="M85740 84772 l0 -10 63 -7 62 -7 146 -39 c149 -40 179 -45 179 -31
l0 7 -166 44 -165 43 -60 5 -59 6 0 -11z"/>
<path d="M64372 84518 c5 -15 28 -18 29 -3 l0 10 -17 3 -16 4 4 -14z"/>
<path d="M80070 84481 c14 -8 332 -121 1030 -366 134 -47 248 -84 254 -82 5 2
-137 54 -315 116 -178 63 -470 165 -648 227 -178 63 -327 114 -330 114 -3 0 1
-5 9 -9z"/>
<path d="M90200 84379 l0 -8 38 -10 c20 -6 125 -35 232 -65 166 -47 219 -59
199 -43 -2 2 -109 33 -236 69 l-233 65 0 -8z"/>
<path d="M85 83960 l-8 -12 85 -82 c46 -44 119 -120 163 -169 l79 -87 9 9 10
10 -111 118 c-61 65 -135 142 -165 171 l-55 54 -7 -12z"/>
<path d="M84127 83558 c5 -7 56 -79 112 -160 56 -81 108 -151 114 -155 l11 -7
-19 30 c-69 106 -211 303 -219 304 l-8 0 9 -12z"/>
<path d="M1616 82941 l-6 -9 18 -7 c9 -4 104 -38 210 -76 105 -38 199 -72 207
-75 l15 -6 0 15 0 14 -210 77 c-116 42 -215 76 -220 76 -5 0 -11 -4 -14 -9z"/>
<path d="M84663 82878 c78 -178 165 -377 170 -392 l7 -19 6 6 6 5 -67 159
c-73 171 -112 253 -121 253 l-6 0 5 -12z"/>
<path d="M86506 82628 c-3 -62 -7 -164 -9 -225 l-3 -113 6 0 7 0 7 221 c7 233
2 310 -8 117z"/>
<path d="M15845 82711 l-5 -9 57 -27 58 -27 39 -5 39 -6 118 18 119 18 0 9 0
8 -17 0 c-10 0 -58 -7 -108 -16 l-90 -16 -53 6 -53 6 -49 25 -49 25 -6 -9z"/>
<path d="M92498 82414 l-118 -164 10 0 c5 0 59 70 120 155 l111 156 -3 8 -3 9
-117 -164z"/>
<path d="M70619 82208 c43 -112 165 -405 172 -412 l9 -10 0 11 c0 10 -55 151
-142 361 l-30 72 -9 0 -9 0 9 -22z"/>
<path d="M18020 82127 l0 -12 213 -48 c223 -50 237 -52 237 -39 l0 9 -167 37
c-93 20 -194 43 -225 51 l-58 13 0 -11z"/>
<path d="M75390 82127 l-35 -12 -19 -38 -18 -38 6 -6 6 -6 11 31 10 31 24 15
24 16 51 0 c49 0 217 -15 273 -25 l27 -4 0 8 0 8 -117 12 c-65 7 -138 14 -163
16 l-45 5 -35 -13z"/>
<path d="M84988 81945 c88 -236 124 -330 132 -344 l9 -16 1 9 c0 16 -151 410
-161 421 -6 6 3 -26 19 -70z"/>
<path d="M33970 81129 c0 -13 95 -17 261 -11 l169 5 0 9 0 9 -215 -3 -215 -3
0 -6z"/>
<path d="M46110 81101 c0 -10 426 -321 469 -343 l36 -17 50 -2 c28 -2 85 -2
128 -1 l77 2 0 8 0 7 -116 -3 -117 -4 -41 18 -41 18 -222 163 c-123 89 -223
159 -223 154z"/>
<path d="M42550 80837 c0 -7 15 -59 34 -115 l35 -102 7 -105 7 -105 13 0 c8 0
14 3 14 8 0 4 -5 52 -10 106 l-10 100 -37 113 -37 113 -8 0 c-4 0 -8 -6 -8
-13z"/>
<path d="M71117 80452 l-17 -19 0 -21 0 -22 10 0 10 0 0 14 0 15 25 19 c30 24
31 32 7 32 l-19 0 -16 -18z"/>
<path d="M95492 80408 c-109 -149 -174 -241 -179 -256 l-6 -17 20 25 c24 30
197 270 207 288 18 31 -7 7 -42 -40z"/>
<path d="M42851 79543 c-1 -7 -39 -106 -86 -219 -47 -114 -83 -209 -80 -212 2
-3 9 7 15 22 5 14 44 110 85 212 l76 186 -5 11 -4 12 -1 -12z"/>
<path d="M44916 79403 c20 -27 61 -91 92 -143 l57 -95 -1 -85 -1 -85 -78 -185
c-42 -102 -81 -195 -86 -207 l-9 -23 8 0 8 0 85 208 84 207 0 90 0 90 -44 75
c-53 91 -132 200 -143 200 -5 0 7 -21 28 -47z"/>
<path d="M96340 79363 c0 -13 242 -184 307 -217 58 -29 63 -30 63 -16 l0 10
-51 25 c-28 14 -104 64 -169 111 -66 46 -126 87 -135 90 l-15 6 0 -9z"/>
<path d="M77530 79083 c0 -18 175 -287 281 -431 54 -72 123 -173 155 -222 31
-50 61 -90 65 -90 l9 0 -77 118 c-43 64 -110 160 -148 213 -39 52 -115 165
-169 250 -55 85 -103 158 -107 164 l-9 9 0 -11z"/>
<path d="M30054 78669 l-5 -9 13 -5 c7 -2 74 -21 148 -41 l135 -37 88 -5 87
-5 0 12 0 11 -52 0 c-69 1 -178 21 -306 58 l-103 29 -5 -8z"/>
<path d="M42255 78173 c-15 -37 -31 -86 -35 -107 l-8 -40 13 -85 c16 -104 40
-201 66 -261 l19 -45 48 -42 48 -41 107 -50 c59 -28 107 -49 107 -46 0 2 -46
27 -102 55 l-102 51 -47 41 -48 41 -15 35 c-24 57 -54 170 -67 251 l-11 75 5
50 6 50 26 64 c14 35 24 65 22 68 -3 2 -17 -27 -32 -64z"/>
<path d="M41830 78220 c0 -9 39 -25 46 -18 2 3 -7 10 -21 16 l-25 12 0 -10z"/>
<path d="M44007 77938 c-33 -54 -247 -439 -247 -445 0 -4 4 -3 9 3 8 9 210
365 245 432 19 36 14 44 -7 10z"/>
<path d="M71580 77070 l0 -10 245 0 245 0 0 10 0 10 -245 0 -245 0 0 -10z"/>
<path d="M41380 77051 l0 -9 198 -105 c206 -109 259 -133 268 -124 3 3 -44 30
-104 60 -60 30 -163 85 -230 121 -128 69 -132 71 -132 57z"/>
<path d="M41840 76975 c0 -11 -5 -37 -11 -57 l-10 -38 -17 0 c-9 0 -32 9 -51
21 l-34 20 -9 -9 -8 -8 48 -23 49 -23 19 4 18 3 14 47 13 48 -10 17 -10 18 -1
-20z"/>
<path d="M75130 76172 l0 -9 113 -66 113 -66 50 -12 49 -11 50 10 50 10 -66 0
-65 -1 -39 13 c-35 11 -111 53 -222 122 l-33 20 0 -10z"/>
<path d="M82382 75093 c-7 -60 -12 -126 -12 -148 l0 -40 31 -77 31 -78 9 0
c12 0 13 -2 -21 80 l-30 73 1 56 c0 31 6 98 13 149 l12 92 -12 0 -11 0 -11
-107z"/>
<path d="M14480 74308 l0 -14 221 -38 221 -38 10 10 10 10 -29 6 c-15 3 -109
19 -208 36 -99 17 -190 34 -202 37 l-23 5 0 -14z"/>
<path d="M74245 72780 c32 -15 837 -221 842 -216 6 6 20 2 -438 121 -391 101
-448 114 -404 95z"/>
<path d="M79290 72412 l0 -8 233 -15 c127 -9 234 -14 236 -12 2 1 1 6 -3 10
l-6 7 -178 12 c-97 7 -201 13 -229 13 l-53 1 0 -8z"/>
<path d="M71680 72058 c-69 -78 -131 -149 -138 -159 l-12 -18 9 -5 9 -6 137
156 138 155 -10 10 -9 9 -124 -142z"/>
<path d="M47340 71719 l0 -24 104 -275 c58 -151 123 -325 145 -386 23 -62 48
-129 57 -149 l15 -38 10 10 10 10 -40 104 c-22 57 -96 252 -165 433 -69 181
-128 331 -131 334 -3 3 -5 -5 -5 -19z"/>
<path d="M76005 70651 l-5 -10 47 -32 c27 -18 98 -72 158 -118 l110 -86 104
-100 103 -100 95 -125 95 -125 63 -130 c35 -71 91 -204 126 -295 68 -180 67
-176 75 -168 l5 6 -72 188 c-39 104 -90 230 -114 279 l-43 90 -71 105 -72 105
-134 141 -134 142 -108 84 c-95 74 -173 130 -210 151 l-12 7 -6 -9z"/>
<path d="M76624 69916 l-29 -25 16 -1 16 0 18 20 18 20 -5 6 -6 5 -28 -25z"/>
<path d="M76530 69890 c0 -5 5 -10 11 -10 l10 0 -6 10 c-3 6 -8 10 -11 10 -2
0 -4 -4 -4 -10z"/>
<path d="M76637 69643 l-8 -12 42 -98 c23 -54 63 -165 89 -248 l47 -150 17
-110 16 -110 10 -310 c5 -170 10 -341 10 -379 l0 -70 11 11 12 12 -12 377 -12
377 -24 141 -23 141 -50 145 c-28 80 -65 179 -84 220 l-34 74 -7 -11z"/>
<path d="M74490 69379 c-225 -50 -223 -49 -218 -55 6 -5 419 83 427 91 10 10
-41 2 -209 -36z"/>
<path d="M33454 69029 l-7 -11 14 -9 14 -9 40 2 40 3 -5 10 -5 10 -27 -3 -26
-3 -7 10 c-8 14 -22 14 -31 0z"/>
<path d="M37000 68785 c-40 -102 -71 -187 -69 -190 3 -2 38 79 78 181 40 102
71 187 69 190 -3 2 -38 -79 -78 -181z"/>
<path d="M35026 68693 c-25 -43 -81 -139 -125 -213 -43 -74 -77 -137 -75 -139
2 -2 6 -2 8 0 15 18 246 423 242 426 -2 3 -25 -31 -50 -74z"/>
<path d="M36949 68548 c-36 -81 -276 -684 -273 -687 2 -2 5 -2 7 0 3 4 215
528 266 658 20 50 20 72 0 29z"/>
<path d="M77758 68511 l-216 -6 -9 -9 -8 -9 115 7 c63 3 175 6 248 6 l132 0 0
10 0 10 -22 -2 c-13 -1 -121 -4 -240 -7z"/>
<path d="M41587 68318 c-75 -185 -217 -561 -257 -679 l-53 -156 8 -19 8 -19 8
38 c14 61 130 385 223 620 47 120 86 221 86 223 0 10 -18 3 -23 -8z"/>
<path d="M38900 68281 c30 -18 423 -172 427 -168 2 3 -93 43 -212 91 -199 80
-253 99 -215 77z"/>
<path d="M41301 67718 l-71 -203 0 -22 0 -23 10 0 10 0 0 23 0 22 69 195 70
195 -8 8 -8 8 -72 -203z"/>
<path d="M46920 67463 c0 -4 35 -31 78 -60 42 -28 114 -77 160 -108 45 -32 85
-56 87 -53 4 4 -178 133 -297 211 l-28 19 0 -9z"/>
<path d="M46425 67394 c-60 -13 -113 -28 -117 -32 -4 -4 -19 -38 -33 -75 l-25
-68 9 5 c5 4 17 29 26 56 l17 50 22 18 23 17 96 19 97 19 0 9 c0 4 -1 8 -2 7
-2 0 -52 -12 -113 -25z"/>
<path d="M45819 67343 c-74 -130 -260 -416 -332 -511 -42 -55 -77 -103 -77
-106 0 -2 -36 -62 -80 -132 -44 -70 -80 -133 -80 -138 l0 -10 14 19 c7 11 46
74 87 140 40 66 112 172 159 235 111 148 358 545 347 556 -3 3 -20 -21 -38
-53z"/>
<path d="M94344 67035 c2 -16 19 -122 36 -235 l33 -205 9 -10 9 -10 -5 25 c-3
14 -20 113 -36 220 -17 107 -35 206 -41 220 l-9 25 4 -30z"/>
<path d="M55377 66926 l-16 -24 -16 -125 c-16 -130 -18 -174 -10 -166 2 3 12
68 20 145 l16 139 20 28 20 27 -10 0 c-5 0 -16 -11 -24 -24z"/>
<path d="M55411 66906 l-12 -14 -14 -123 c-16 -132 -18 -165 -10 -158 2 3 11
65 20 139 l16 134 16 18 16 18 -10 0 c-6 0 -16 -6 -22 -14z"/>
<path d="M17626 66773 c-23 -119 -116 -787 -110 -792 2 -2 7 -2 10 2 3 3 30
176 59 384 30 208 58 398 64 423 13 56 13 70 2 70 l-9 0 -16 -87z"/>
<path d="M33783 66452 c-50 -86 -117 -206 -148 -265 l-57 -108 5 -46 5 -45 33
-33 34 -32 195 -83 195 -84 108 -32 107 -32 0 7 0 8 -82 22 -83 23 -219 93
-219 94 -31 31 -31 30 1 48 1 47 81 149 c45 82 82 151 82 152 0 2 27 49 61
104 34 56 59 103 57 105 -2 3 -45 -66 -95 -153z"/>
<path d="M77235 66560 l-80 -6 110 -1 c61 0 162 3 225 7 l115 7 -145 -1 c-80
0 -181 -3 -225 -6z"/>
<path d="M36011 66523 c5 -15 309 -266 315 -261 3 4 -192 171 -294 252 l-25
20 4 -11z"/>
<path d="M97461 66236 l-455 -112 -4 -12 c-2 -7 -2 -12 1 -12 5 0 842 205 900
221 l37 10 0 9 0 10 -12 -1 c-7 0 -217 -51 -467 -113z"/>
<path d="M44265 66331 c13 -12 377 -123 383 -116 6 6 15 3 -193 65 -93 28
-177 53 -185 56 l-15 5 10 -10z"/>
<path d="M44245 66293 l10 -11 193 -55 192 -54 0 6 c0 4 -84 31 -187 60 -103
30 -194 56 -203 59 l-15 5 10 -10z"/>
<path d="M41590 66266 c0 -3 153 -105 308 -204 12 -8 22 -11 22 -8 0 7 -315
216 -325 216 -3 0 -5 -2 -5 -4z"/>
<path d="M97265 66135 l-209 -53 -4 -12 -5 -13 24 6 c13 4 113 28 222 54 l197
48 0 12 c0 16 21 20 -225 -42z"/>
<path d="M36840 66150 c-47 -4 -93 -10 -103 -15 l-18 -7 -14 -29 -15 -28 1
-28 0 -28 15 47 14 48 20 10 19 10 138 11 c76 6 140 13 142 15 6 5 -95 2 -199
-6z"/>
<path d="M60260 66120 l0 -10 15 0 15 0 0 10 0 10 -15 0 -15 0 0 -10z"/>
<path d="M65610 66122 c0 -4 17 -24 38 -44 53 -52 275 -228 281 -223 2 3 -9
15 -25 27 -105 83 -262 219 -267 232 -7 16 -27 22 -27 8z"/>
<path d="M60790 66012 l0 -9 73 -12 72 -11 200 -67 200 -67 26 -27 25 -27 29
-68 c16 -38 41 -98 57 -133 l28 -64 6 6 5 5 -57 134 c-32 73 -65 142 -73 152
l-16 19 -55 25 c-30 13 -120 46 -199 73 l-145 49 -60 10 c-34 6 -73 13 -88 16
l-28 6 0 -10z"/>
<path d="M37896 65898 c5 -7 128 -152 274 -322 146 -170 277 -323 292 -340
l26 -31 7 6 6 7 -183 208 c-101 115 -236 271 -302 347 -107 124 -141 160 -120
125z"/>
<path d="M42940 65831 c0 -5 77 -59 170 -120 94 -60 170 -107 170 -103 0 4
-77 58 -170 120 l-170 112 0 -9z"/>
<path d="M95475 65785 c-33 -7 -137 -27 -232 -45 l-171 -32 4 -12 5 -12 246
46 247 46 4 12 4 12 -24 -1 c-12 -1 -50 -7 -83 -14z"/>
<path d="M34335 65718 c33 -10 125 -32 205 -48 80 -17 156 -32 170 -36 l25 -5
-10 9 -10 9 -140 27 c-77 15 -170 36 -206 47 -86 25 -112 23 -34 -3z"/>
<path d="M83701 65663 c3 -27 12 -64 19 -83 l13 -35 48 -60 c26 -33 57 -82 70
-108 13 -26 27 -47 31 -47 l8 0 -26 53 c-15 28 -47 78 -72 110 l-45 59 -18 49
-19 49 0 30 0 30 -8 0 -8 0 7 -47z"/>
<path d="M48745 65312 c-54 -97 -112 -202 -129 -232 l-29 -55 12 11 c18 16
252 436 249 445 -2 5 -48 -71 -103 -169z"/>
<path d="M48866 65438 c-51 -81 -243 -428 -237 -428 6 0 121 196 238 405 25
46 25 63 -1 23z"/>
<path d="M38450 65180 c0 -16 -58 -485 -65 -522 l-4 -28 7 0 8 0 33 275 34
275 -6 7 -7 6 0 -13z"/>
<path d="M50546 64911 c25 -22 354 -238 354 -231 0 7 -345 240 -357 240 l-7 0
10 -9z"/>
<path d="M31615 64902 l10 -9 190 -22 c105 -12 200 -24 213 -26 l22 -5 0 8 0
8 -192 22 c-106 13 -206 26 -223 29 l-30 5 10 -10z"/>
<path d="M37180 64720 l0 -20 11 0 c14 0 383 -48 422 -55 l27 -4 0 19 0 20
-22 4 c-26 6 -410 56 -427 56 l-11 0 0 -20z"/>
<path d="M36605 64672 c-3 -8 -3 -17 -1 -20 3 -2 58 -15 123 -28 65 -13 183
-40 263 -59 l145 -36 190 -23 190 -23 10 9 10 9 -17 13 -17 12 -158 18 -158
18 -145 34 c-80 19 -209 47 -287 63 l-142 28 -6 -15z"/>
<path d="M44671 64566 c9 -8 961 -338 964 -334 5 4 -943 338 -959 338 -5 0 -7
-2 -5 -4z"/>
<path d="M40690 64525 c0 -6 20 -68 44 -140 24 -71 49 -150 55 -175 l10 -45
-4 50 -5 50 -41 125 c-23 69 -45 129 -50 135 l-9 9 0 -9z"/>
<path d="M1441 64511 l-13 -8 16 -6 15 -6 40 -78 c22 -43 52 -91 66 -107 l26
-28 6 5 5 6 -30 38 c-16 21 -46 70 -65 110 -20 39 -40 74 -45 77 l-8 5 -13 -8z"/>
<path d="M77170 64358 c1 -73 5 -165 9 -205 l9 -72 46 -47 c53 -52 65 -54 35
-5 l-20 33 -18 5 -19 5 -6 41 c-3 23 -9 117 -12 210 l-7 167 -9 0 -8 0 0 -132z"/>
<path d="M80285 64302 c-110 -25 -202 -47 -204 -49 -2 -2 -2 -6 2 -9 l6 -6
215 48 216 48 0 8 0 8 -17 -1 c-10 -1 -108 -22 -218 -47z"/>
<path d="M50390 64240 c107 -44 199 -79 204 -77 11 4 -367 157 -387 157 -6 0
76 -36 183 -80z"/>
<path d="M59817 64298 c-8 -12 -29 -50 -47 -83 l-32 -60 -44 -130 c-25 -71
-47 -139 -50 -150 l-5 -20 20 35 c11 19 36 84 56 144 l35 109 45 85 c25 47 43
87 41 89 -2 3 -11 -6 -19 -19z"/>
<path d="M70896 64190 c20 -47 57 -134 82 -193 26 -59 48 -104 49 -100 4 10
-145 354 -158 368 -6 6 6 -28 27 -75z"/>
<path d="M38986 64030 c-115 -103 -220 -200 -235 -215 l-26 -27 12 3 c7 2 105
87 218 189 114 102 221 197 238 212 l32 27 -15 0 -15 0 -209 -189z"/>
<path d="M50620 64192 c0 -9 880 -384 892 -380 5 2 -170 79 -389 172 -219 93
-422 180 -450 193 l-53 23 0 -8z"/>
<path d="M78925 64084 l-660 -83 -429 -40 c-236 -23 -431 -43 -434 -46 -3 -3
-3 -7 -1 -10 3 -2 176 11 385 31 l379 35 726 89 c399 50 731 90 737 90 l12 0
0 10 0 10 -27 -1 c-16 -1 -325 -39 -688 -85z"/>
<path d="M40072 64085 l-12 -25 9 0 c4 0 13 11 19 25 l12 25 -9 0 c-4 0 -13
-11 -19 -25z"/>
<path d="M77063 64093 c-7 -2 -13 -11 -13 -18 l0 -13 30 11 c17 6 30 15 30 19
l0 8 -17 -1 c-10 0 -24 -3 -30 -6z"/>
<path d="M78965 64035 c-99 -12 -289 -35 -422 -51 l-243 -28 0 -13 c0 -7 1
-13 3 -13 4 0 466 59 679 86 l217 27 -5 9 -5 8 -22 -1 c-12 -1 -103 -12 -202
-24z"/>
<path d="M76973 64024 c-11 -16 -30 -47 -41 -69 l-20 -40 -34 -31 c-18 -17
-46 -38 -61 -48 l-29 -18 -166 -8 -167 -8 -125 9 c-69 5 -213 20 -320 34 -107
14 -203 25 -212 25 l-18 0 0 -8 0 -8 258 -32 257 -32 125 -6 125 -6 128 11
128 11 42 29 c55 38 77 63 121 140 l37 63 -4 11 -3 10 -21 -29z"/>
<path d="M41737 63936 l-6 -14 36 -7 35 -6 6 6 6 5 -10 9 c-5 5 -21 11 -35 15
l-27 6 -5 -14z"/>
<path d="M70805 63809 c-110 -32 -207 -62 -215 -65 l-15 -6 12 -5 11 -4 144
41 c78 23 173 50 211 61 l67 20 0 9 c0 13 11 16 -215 -51z"/>
<path d="M89621 63833 c102 -114 165 -190 204 -249 l45 -69 0 13 c0 7 -15 35
-34 63 -46 69 -217 269 -229 269 l-11 0 25 -27z"/>
<path d="M90150 63760 c-39 -32 -114 -98 -166 -146 l-94 -88 9 -9 10 -10 88
83 c48 46 123 112 166 148 71 59 90 82 68 82 -5 0 -41 -27 -81 -60z"/>
<path d="M51512 63765 c11 -11 398 -173 398 -166 0 3 -87 43 -193 89 -176 75
-220 92 -205 77z"/>
<path d="M76810 63762 l0 -9 48 -11 c26 -6 55 -14 65 -17 l17 -7 0 10 0 10
-47 16 c-26 9 -55 16 -65 16 l-18 0 0 -8z"/>
<path d="M38795 63738 l60 -19 150 -25 c83 -13 166 -26 185 -29 l35 -5 -15 8
c-8 5 -81 19 -163 31 -81 12 -179 31 -217 42 -89 24 -113 23 -35 -3z"/>
<path d="M40790 63734 c0 -10 285 -324 294 -324 l10 0 -30 33 c-17 17 -84 92
-149 165 -113 127 -125 139 -125 126z"/>
<path d="M77210 63724 l0 -15 10 6 c6 3 10 10 10 16 0 5 -4 9 -10 9 l-10 0 0
-16z"/>
<path d="M76995 63680 c-4 -6 -4 -10 -1 -10 2 0 11 -3 20 -6 l16 -6 0 10 c0 5
-7 12 -15 15 l-14 6 -6 -9z"/>
<path d="M77108 63683 l-18 -4 0 -14 0 -13 35 10 34 11 -5 9 c-5 8 -17 9 -46
1z"/>
<path d="M41270 63571 c0 -5 57 -72 127 -150 l126 -141 16 0 15 0 -33 33 c-19
17 -81 85 -139 150 -58 64 -107 117 -109 117 -1 0 -3 -4 -3 -9z"/>
<path d="M40378 63549 l22 -25 -1 -15 0 -14 -134 -115 c-74 -63 -149 -127
-167 -142 l-32 -28 10 0 c14 0 344 287 344 298 0 5 -15 21 -32 38 l-33 29 23
-26z"/>
<path d="M41185 63484 c-74 -65 -91 -84 -57 -65 24 14 149 130 140 131 -4 0
-41 -30 -83 -66z"/>
<path d="M40490 63495 l-12 -14 94 -108 c76 -89 457 -521 505 -573 l13 -14 14
14 15 15 -156 175 c-86 96 -220 250 -299 342 -78 91 -147 169 -152 172 l-10 6
-12 -15z"/>
<path d="M16247 63320 c-47 -39 -114 -86 -148 -106 l-63 -35 -95 -27 -96 -27
24 -3 24 -4 81 23 81 23 60 36 c33 20 99 68 147 107 l88 72 -9 5 -9 6 -85 -70z"/>
<path d="M16357 63315 l-17 -36 0 -39 0 -40 29 -32 29 -33 7 7 7 7 -26 31 -26
32 0 28 c0 15 7 44 15 63 17 42 18 47 7 47 -5 0 -16 -16 -25 -35z"/>
<path d="M31925 63343 l10 -10 293 -32 293 -33 6 6 6 6 -7 0 c-13 0 -530 60
-571 66 l-40 6 10 -9z"/>
<path d="M43090 63228 c-74 -65 -137 -124 -139 -130 -2 -7 45 30 104 82 59 52
124 109 144 127 20 17 34 33 31 36 -3 2 -66 -49 -140 -115z"/>
<path d="M41960 63325 c0 -20 248 -310 258 -301 3 3 -29 43 -70 88 -41 46 -96
110 -122 143 -27 33 -52 64 -57 70 l-9 9 0 -9z"/>
<path d="M93380 63321 c0 -4 37 -44 83 -87 l82 -79 97 -58 c101 -60 108 -63
108 -48 l0 10 -92 53 -92 53 -87 82 c-85 81 -99 92 -99 74z"/>
<path d="M16653 63219 c3 -33 8 -63 11 -66 13 -13 16 6 10 65 l-7 62 -10 0
-10 0 6 -61z"/>
<path d="M48045 63272 c16 -17 356 -194 361 -189 3 3 -59 38 -138 80 -192 100
-235 121 -223 109z"/>
<path d="M32985 63223 l10 -10 405 -47 c223 -26 415 -49 428 -52 l22 -4 0 7 0
8 -413 48 c-226 27 -423 51 -437 54 l-25 6 10 -10z"/>
<path d="M44950 63102 c0 -8 413 -266 446 -279 l17 -6 -5 13 -4 14 -215 132
c-203 126 -239 145 -239 126z"/>
<path d="M16660 63049 l0 -50 10 6 10 6 0 45 0 44 -10 0 -10 0 0 -51z"/>
<path d="M13385 63069 l-69 -9 -11 -11 -10 -12 30 7 c17 4 76 10 133 15 57 5
106 11 109 15 l6 6 -59 -1 c-32 -1 -90 -6 -129 -10z"/>
<path d="M15070 62993 l0 -32 10 -6 10 -6 0 23 c0 13 -5 30 -10 38 l-10 15 0
-32z"/>
<path d="M18145 63010 l-6 -10 10 0 c6 0 11 5 11 10 0 6 -2 10 -4 10 -3 0 -8
-4 -11 -10z"/>
<path d="M58665 62928 c-54 -30 -258 -167 -405 -272 l-55 -39 19 7 c10 3 103
64 205 135 103 71 216 143 251 161 l64 32 106 -6 c58 -4 125 -9 150 -12 l45
-5 -15 10 -16 10 -144 6 -145 6 -60 -33z"/>
<path d="M16660 62920 l0 -30 10 0 10 0 0 30 0 30 -10 0 -10 0 0 -30z"/>
<path d="M51550 62773 l-73 -158 -135 -203 -136 -202 11 -11 11 -11 110 163
c124 187 168 264 246 436 56 123 63 143 48 143 l-9 0 -73 -157z"/>
<path d="M58692 62899 c-29 -16 -62 -35 -74 -44 l-22 -15 11 0 c7 0 43 16 80
35 l68 35 138 -13 137 -13 0 8 c0 4 -1 8 -2 8 -2 1 -66 7 -143 14 l-140 12
-53 -27z"/>
<path d="M16720 62794 l0 -95 10 6 10 6 0 90 0 89 -10 0 -10 0 0 -96z"/>
<path d="M48775 62862 c18 -18 337 -203 345 -200 7 3 -317 198 -344 207 l-11
4 10 -11z"/>
<path d="M59945 62820 l-4 -7 167 -12 c92 -6 194 -14 227 -18 l60 -6 -7 8 -7
8 -216 16 -216 17 -4 -6z"/>
<path d="M11667 62596 c3 -104 9 -212 13 -240 l8 -51 -5 160 c-3 88 -9 196
-13 240 l-8 80 5 -189z"/>
<path d="M60504 62380 c28 -142 79 -376 82 -379 9 -9 2 31 -32 199 -20 96 -41
182 -46 190 l-9 15 5 -25z"/>
<path d="M88992 62380 l4 -15 174 -147 173 -147 9 5 10 6 -9 7 c-41 36 -332
280 -347 291 l-19 15 5 -15z"/>
<path d="M64090 62230 l0 -10 459 0 460 0 6 10 6 10 -465 0 -466 0 0 -10z"/>
<path d="M64248 62183 l-158 -4 0 -9 0 -10 118 0 c64 0 168 3 230 7 l112 6 0
9 0 8 -72 -2 c-40 -1 -144 -4 -230 -5z"/>
<path d="M50631 62026 c11 -11 339 -152 339 -146 0 4 -73 39 -162 79 -145 63
-191 81 -177 67z"/>
<path d="M16420 62006 c0 -7 232 -127 237 -122 4 4 -219 126 -231 126 -3 0 -6
-2 -6 -4z"/>
<path d="M94260 61952 c-25 -31 -85 -101 -134 -155 -49 -54 -86 -100 -83 -103
9 -10 185 181 269 293 l9 11 -8 5 -8 5 -45 -56z"/>
<path d="M94260 61868 l-85 -103 -198 -201 -199 -202 11 -6 10 -6 179 182
c165 168 382 412 382 431 0 20 -23 -2 -100 -95z"/>
<path d="M62495 61903 c4 -27 9 -56 12 -66 l4 -17 8 4 8 5 -8 48 c-4 26 -8 54
-8 61 l-1 12 -11 0 -10 0 6 -47z"/>
<path d="M57330 61901 l0 -9 133 -57 c72 -32 251 -109 397 -172 146 -63 284
-123 308 -134 l42 -18 0 7 c0 4 -87 45 -193 91 -393 172 -623 273 -654 286
l-33 14 0 -8z"/>
<path d="M57207 61693 c-48 -108 -86 -200 -85 -204 3 -7 52 97 164 349 l24 52
-8 0 c-4 -1 -47 -89 -95 -197z"/>
<path d="M59940 61883 c0 -10 340 -153 340 -144 0 6 -72 38 -307 138 l-33 13
0 -7z"/>
<path d="M43700 61703 c-107 -96 -213 -190 -234 -209 l-39 -34 6 -6 6 -6 223
197 c123 109 229 204 236 210 l14 13 -9 4 -8 5 -195 -174z"/>
<path d="M50880 61757 l-95 -101 -160 -104 c-88 -58 -169 -107 -180 -110 -15
-4 -233 -140 -254 -158 -1 -1 -1 -8 1 -14 l3 -11 105 67 c58 37 125 76 150 87
25 11 117 68 205 128 l160 107 50 53 c28 30 68 73 90 96 l39 43 -9 9 -10 9
-95 -101z"/>
<path d="M50910 61718 l-95 -101 -157 -105 c-145 -96 -176 -122 -148 -122 6 0
84 49 174 109 l163 109 86 94 c48 51 87 97 87 103 3 25 -22 5 -110 -87z"/>
<path d="M63240 61627 c0 -5 79 -399 85 -424 3 -13 9 -23 14 -23 l8 0 -45 225
-45 225 -8 0 c-5 0 -9 -1 -9 -3z"/>
<path d="M57874 61327 c3 -11 89 -150 189 -310 101 -161 215 -345 253 -409 38
-65 73 -118 78 -118 l8 0 -14 23 c-8 12 -65 108 -128 212 -154 258 -359 587
-378 605 l-15 15 7 -18z"/>
<path d="M89508 61217 c-27 -68 -48 -133 -48 -144 l0 -20 76 -27 c41 -15 83
-30 92 -33 l17 -6 -10 10 c-5 6 -45 23 -87 38 l-78 28 0 11 c0 10 20 64 81
219 l19 47 -8 0 c-4 0 -28 -56 -54 -123z"/>
<path d="M59092 61125 c10 -11 438 -193 438 -187 0 4 -96 49 -213 100 -193 83
-240 102 -225 87z"/>
<path d="M18790 61097 c0 -2 7 -50 15 -108 7 -57 15 -131 16 -164 l1 -60 -16
-42 -15 -43 12 0 13 0 12 33 12 33 0 66 c0 59 -10 163 -26 256 l-5 32 -9 0
c-6 0 -10 -1 -10 -3z"/>
<path d="M59521 60896 c3 -3 43 -24 88 -46 l81 -39 0 8 c0 7 -101 56 -160 79
l-15 5 6 -7z"/>
<path d="M46324 60748 c-118 -134 -126 -142 -198 -206 -26 -24 -45 -46 -43
-48 8 -9 127 107 249 243 66 73 115 133 110 133 -5 0 -59 -55 -118 -122z"/>
<path d="M55495 60726 l-30 -24 6 -6 5 -6 29 30 c35 36 31 38 -10 6z"/>
<path d="M57143 60737 c3 -8 37 -62 76 -121 39 -60 74 -119 77 -132 l6 -24 10
0 10 0 -7 30 -6 29 -77 115 c-42 63 -81 115 -86 116 l-8 0 5 -13z"/>
<path d="M28776 60643 l9 -88 -3 -140 -4 -140 -34 -224 c-31 -204 -34 -245
-19 -229 3 2 20 106 39 229 l34 224 3 140 3 140 -8 88 -8 87 -10 0 -10 0 8
-87z"/>
<path d="M78030 60689 c0 -6 9 -22 20 -36 l20 -26 0 -28 0 -29 -20 -20 -19
-19 11 -7 11 -7 19 23 18 22 0 35 0 34 -15 28 -14 29 -16 5 -15 6 0 -10z"/>
<path d="M55498 60587 c6 -6 20 -37 32 -67 l22 -55 -1 -40 -1 -39 -70 -266
c-38 -146 -109 -425 -159 -620 -49 -195 -123 -479 -165 -631 -42 -152 -76
-284 -76 -295 l1 -19 8 15 c15 27 227 837 388 1484 l97 389 -23 66 c-25 70
-37 91 -53 91 l-10 0 10 -13z"/>
<path d="M87370 60368 l-164 -168 9 -8 10 -9 164 169 164 169 -9 7 -9 7 -165
-167z"/>
<path d="M78010 60520 c0 -5 5 -10 11 -10 l10 0 -6 10 c-3 6 -8 10 -11 10 -2
0 -4 -4 -4 -10z"/>
<path d="M44561 60343 c6 -18 331 -365 337 -359 2 3 -60 74 -138 158 -178 190
-203 216 -199 201z"/>
<path d="M62470 60294 c-146 -30 -334 -69 -419 -86 -85 -18 -150 -33 -143 -36
14 -4 821 156 841 168 l16 9 -15 0 c-8 0 -134 -25 -280 -55z"/>
<path d="M58642 60190 c-18 -4 -36 -10 -39 -14 l-6 -6 38 3 38 2 38 -70 c73
-132 409 -891 409 -922 l0 -8 -233 -44 -232 -44 -10 -10 -10 -10 25 6 c14 3
122 24 240 47 118 23 222 43 231 46 l16 4 53 -182 c29 -101 57 -187 63 -193
l9 -10 -6 20 c-3 11 -29 99 -57 195 l-51 174 -12 11 c-7 5 -43 84 -81 175
-111 271 -376 844 -388 839 -1 -1 -17 -5 -35 -9z"/>
<path d="M46330 60157 c0 -4 96 -124 213 -265 118 -141 219 -268 227 -282 19
-37 174 -240 179 -235 2 3 -27 46 -65 97 -39 51 -83 113 -99 138 -16 25 -116
151 -223 280 -207 250 -232 279 -232 267z"/>
<path d="M93014 60002 c4 -6 52 -35 106 -63 l100 -51 57 -44 c73 -57 91 -57
21 0 l-54 44 -119 63 -118 63 7 -12z"/>
<path d="M93000 59959 c8 -5 53 -29 100 -53 47 -24 114 -65 148 -91 77 -56 94
-54 20 3 -51 39 -255 152 -274 152 l-9 0 15 -11z"/>
<path d="M43576 59942 l-4 -7 55 -63 55 -63 15 12 14 12 -58 59 c-57 58 -68
65 -77 50z"/>
<path d="M58850 59931 c0 -7 36 -94 80 -192 44 -97 109 -251 146 -341 36 -90
71 -168 77 -174 l12 -12 227 47 226 46 9 9 8 8 -20 -5 c-11 -3 -114 -24 -228
-47 l-209 -41 -12 4 -12 5 -64 158 c-79 196 -240 554 -240 535z"/>
<path d="M43542 59888 l-24 -28 10 0 c13 0 45 37 41 48 l-4 9 -23 -29z"/>
<path d="M91071 59891 c8 -10 85 -104 172 -207 l159 -189 110 -152 c60 -84
113 -153 118 -153 12 0 -183 271 -289 400 -109 133 -271 320 -278 320 -3 0 1
-8 8 -19z"/>
<path d="M24406 59802 c5 -5 95 -43 199 -85 l190 -76 91 -20 91 -21 84 0 c84
0 200 -13 234 -26 l18 -7 -6 10 -7 11 -62 10 c-35 6 -117 14 -184 17 l-120 6
-85 23 -84 23 -174 72 c-96 39 -179 71 -185 71 l-10 0 10 -8z"/>
<path d="M61992 59790 c3 -8 20 -85 38 -170 l33 -155 10 -10 9 -10 -5 20 c-3
11 -20 88 -37 170 l-32 150 -11 10 -10 10 5 -15z"/>
<path d="M62700 59568 c-113 -21 -311 -62 -440 -89 -590 -126 -1083 -229
-1085 -227 -1 2 -17 79 -35 173 -19 93 -35 164 -37 158 -3 -7 10 -82 27 -168
l32 -157 -6 -13 -5 -13 14 -6 14 -5 3 9 3 9 435 90 c239 50 584 122 765 160
182 39 374 77 428 87 l97 17 0 9 c0 4 -1 8 -2 7 -2 -1 -95 -19 -208 -41z"/>
<path d="M62940 59568 c0 -7 34 -178 77 -381 l77 -367 8 8 8 8 -77 372 -78
372 -7 0 c-5 0 -8 -6 -8 -12z"/>
<path d="M47126 59484 c-4 -14 -15 -68 -26 -119 l-19 -93 -36 -88 c-40 -100
-40 -100 -21 -107 l14 -6 37 91 36 90 25 116 25 115 -5 14 c-3 7 -10 13 -15
13 l-9 0 -6 -26z"/>
<path d="M40960 59489 l0 -10 10 6 c6 3 10 8 10 11 0 2 -4 4 -10 4 -5 0 -10
-5 -10 -11z"/>
<path d="M49430 59274 c-89 -119 -159 -218 -157 -220 3 -3 80 94 171 216 92
121 163 220 158 220 -5 0 -82 -97 -172 -216z"/>
<path d="M41010 59463 c0 -5 55 -42 123 -84 l122 -76 55 -21 c30 -11 154 -54
275 -95 l220 -75 65 -6 65 -6 45 14 c40 12 116 42 254 101 21 9 36 18 34 21
-3 2 -54 -17 -114 -42 -60 -25 -136 -54 -169 -64 l-60 -17 -65 8 -65 8 -190
64 c-104 36 -230 81 -278 101 l-88 37 -109 69 c-111 71 -120 76 -120 63z"/>
<path d="M46982 59410 l-12 -20 0 -27 0 -27 9 10 c8 9 25 84 19 84 -2 0 -9 -9
-16 -20z"/>
<path d="M62080 59403 c0 -12 69 -331 76 -352 2 -8 6 -12 9 -10 5 5 -72 359
-80 367 -3 3 -5 1 -5 -5z"/>
<path d="M63755 59368 c19 -85 131 -627 281 -1363 97 -473 177 -862 180 -864
10 -10 0 45 -72 394 -87 429 -374 1846 -374 1852 0 1 -5 3 -10 3 l-10 0 5 -22z"/>
<path d="M63083 59308 c3 -13 25 -115 48 -228 23 -113 43 -207 45 -209 2 -2 7
-2 10 2 l6 6 -32 158 c-17 87 -38 188 -47 226 l-15 67 -10 0 -10 0 5 -22z"/>
<path d="M41390 59301 c0 -3 99 -39 221 -78 121 -39 217 -67 212 -63 -13 12
-433 149 -433 141z"/>
<path d="M61378 59251 c-120 -25 -218 -49 -218 -52 0 -4 101 14 225 40 l225
46 0 8 c0 4 -3 6 -7 6 -5 -1 -106 -22 -225 -48z"/>
<path d="M59398 59232 c-126 -26 -228 -49 -228 -53 0 -3 106 15 235 40 l235
46 0 8 c0 9 25 13 -242 -41z"/>
<path d="M83854 59128 c114 -211 366 -701 376 -733 l13 -40 4 11 c2 6 -4 32
-14 56 -26 66 -386 748 -394 748 -4 0 3 -19 15 -42z"/>
<path d="M55091 58779 c-127 -475 -170 -643 -166 -648 6 -5 7 -2 54 174 139
520 192 727 189 737 -2 5 -37 -113 -77 -263z"/>
<path d="M44980 58970 l0 -9 143 -84 c78 -47 170 -98 204 -116 l62 -31 5 9 5
8 -42 19 c-23 10 -116 63 -205 117 -90 53 -166 97 -168 97 -2 0 -4 -4 -4 -10z"/>
<path d="M47834 58926 c-10 -8 -17 -17 -14 -19 3 -3 16 3 30 13 l25 20 -11 0
c-5 0 -19 -6 -30 -14z"/>
<path d="M63811 58923 c-1 -6 6 -45 15 -85 8 -40 69 -338 135 -662 65 -324
121 -592 124 -594 10 -10 4 25 -65 366 -143 706 -191 938 -200 962 l-8 25 -1
-12z"/>
<path d="M47740 58870 l-15 -10 15 0 c8 0 22 5 30 10 l15 10 -15 0 c-8 0 -22
-5 -30 -10z"/>
<path d="M62853 58802 c-94 -21 -175 -41 -180 -45 l-8 -9 25 6 c14 3 104 22
200 42 195 39 208 42 165 42 -16 0 -107 -16 -202 -36z"/>
<path d="M39560 58811 l0 -8 138 -48 c75 -27 168 -61 206 -76 39 -16 72 -27
74 -25 6 7 -33 25 -145 65 -59 22 -145 53 -190 70 l-83 31 0 -9z"/>
<path d="M40707 58732 c-3 -4 -28 -70 -57 -147 l-51 -140 -24 -37 c-27 -41
-30 -48 -16 -48 16 0 57 74 89 160 17 47 42 115 56 153 l25 67 -9 0 c-5 0 -11
-3 -13 -8z"/>
<path d="M61965 58620 c-257 -54 -645 -151 -645 -162 l0 -6 188 49 c103 27
297 72 432 99 135 28 254 55 265 60 l20 9 -15 -1 c-8 0 -118 -22 -245 -48z"/>
<path d="M55112 58575 c9 -9 781 -226 786 -221 2 3 -27 14 -65 25 -149 44
-710 201 -718 201 l-8 0 5 -5z"/>
<path d="M85872 58560 c2 -5 50 -97 108 -204 l105 -196 13 0 14 0 -20 33 c-11
17 -61 110 -112 205 l-92 172 -10 0 -10 0 4 -10z"/>
<path d="M55250 58489 c196 -56 229 -65 219 -54 -9 8 -387 115 -405 114 -11 0
73 -27 186 -60z"/>
<path d="M61525 58477 c-110 -28 -195 -52 -189 -54 11 -4 415 94 423 103 11
11 -49 -2 -234 -49z"/>
<path d="M84530 58406 c-102 -46 -207 -92 -234 -105 l-50 -21 11 -11 10 -10
54 25 c30 14 135 61 234 105 l180 80 -2 8 c-3 16 -23 9 -203 -71z"/>
<path d="M63210 58248 c21 -101 62 -299 91 -440 l52 -258 9 0 c12 0 13 -4 -80
449 l-88 425 -11 3 -11 4 38 -183z"/>
<path d="M61320 58288 c16 -73 33 -159 40 -191 6 -32 14 -56 17 -54 6 7 -70
377 -78 377 l-7 0 28 -132z"/>
<path d="M59995 58401 c6 -5 90 -39 188 -75 l178 -65 72 4 72 3 175 37 c96 20
181 38 189 41 l14 4 -6 6 -5 6 -204 -41 c-111 -23 -225 -43 -252 -46 l-49 -5
-151 56 c-83 31 -169 63 -191 71 l-40 14 10 -10z"/>
<path d="M56325 58242 c6 -5 63 -26 128 -45 l117 -35 0 7 c0 4 -49 21 -109 39
-60 18 -117 35 -128 38 l-18 7 10 -11z"/>
<path d="M62270 58232 c0 -17 72 -386 76 -391 2 -2 6 -2 9 1 7 7 -66 381 -76
393 l-9 9 0 -12z"/>
<path d="M40170 58213 l0 -13 65 0 65 0 0 9 0 9 -65 4 -65 3 0 -12z"/>
<path d="M56315 58203 c13 -12 233 -78 240 -71 3 3 -46 20 -107 38 -62 18
-120 35 -128 38 l-15 5 10 -10z"/>
<path d="M53610 58124 c0 -13 180 -417 191 -428 l9 -10 0 10 c0 13 -180 417
-191 429 l-9 9 0 -10z"/>
<path d="M49130 57923 c-52 -64 -97 -121 -99 -126 l-3 -9 10 3 c11 4 202 234
202 243 0 18 -25 -7 -110 -111z"/>
<path d="M63075 57980 c-71 -15 -156 -33 -188 -40 -32 -6 -56 -14 -53 -17 5
-5 407 75 415 83 10 10 -54 0 -174 -26z"/>
<path d="M46276 57971 l-6 -9 46 -57 46 -57 78 -136 77 -136 13 -4 14 -5 -31
54 c-16 30 -51 93 -78 140 l-48 87 -53 66 -52 67 -6 -10z"/>
<path d="M62600 57924 c-113 -24 -211 -47 -219 -49 l-14 -5 6 -6 5 -6 226 48
225 47 -5 9 c-6 10 16 14 -224 -38z"/>
<path d="M35762 57880 l-64 -9 -79 -26 -79 -27 0 -7 0 -8 78 27 77 28 108 12
109 12 66 -7 c36 -4 73 -9 81 -12 l16 -6 -13 14 -13 14 -112 2 -112 1 -63 -8z"/>
<path d="M76370 57660 l0 -220 10 0 10 0 0 220 0 220 -10 0 -10 0 0 -220z"/>
<path d="M55710 57814 c-228 -29 -421 -53 -429 -54 l-14 0 6 -6 6 -6 428 52
428 53 10 9 9 8 -14 -1 c-8 -1 -202 -25 -430 -55z"/>
<path d="M62111 57817 c-107 -22 -190 -42 -184 -44 12 -4 393 74 401 82 9 9
-20 4 -217 -38z"/>
<path d="M62135 57782 c-121 -26 -213 -48 -205 -50 17 -3 439 84 448 93 9 9
-17 4 -243 -43z"/>
<path d="M51178 57785 c-21 -20 -38 -38 -38 -41 0 -3 -13 -24 -29 -48 l-29
-42 -10 -55 c-14 -75 -54 -177 -109 -279 l-46 -85 -53 -59 -53 -59 -98 -70
c-54 -39 -130 -90 -170 -114 l-71 -43 -21 -36 c-12 -20 -26 -56 -32 -82 l-10
-46 12 -71 12 -70 22 -25 c33 -37 71 -117 85 -181 l13 -57 -5 -53 -5 -54 -27
-68 -28 -68 7 -7 7 -7 19 23 19 24 20 68 20 67 0 48 0 47 -16 61 c-20 77 -48
133 -86 174 l-30 31 -1 89 -2 88 25 42 25 42 63 36 c35 21 109 70 165 110
l102 72 56 59 55 59 51 95 52 95 29 85 c17 47 33 105 36 129 l7 43 31 46 c17
25 46 59 65 75 l33 29 -6 9 c-9 14 -17 11 -56 -26z"/>
<path d="M55250 57719 c-217 -26 -402 -49 -410 -49 l-15 -2 12 -4 11 -5 428
51 c390 46 497 62 403 59 -19 -1 -212 -23 -429 -50z"/>
<path d="M50968 57753 c12 -2 30 -2 40 0 l17 5 -40 -1 -40 0 23 -4z"/>
<path d="M86310 57734 c0 -4 48 -98 106 -210 l105 -204 10 0 c13 0 23 -22
-100 218 -91 174 -121 224 -121 196z"/>
<path d="M51046 57565 c-9 -26 -7 -32 5 -12 6 10 9 21 6 23 -2 3 -7 -2 -11
-11z"/>
<path d="M50985 57428 c-27 -57 -63 -125 -80 -153 l-33 -50 -63 -60 -64 -61
-195 -122 -196 -121 -28 -30 -28 -29 10 -6 10 -6 15 23 15 22 203 130 203 130
64 60 c35 33 76 78 91 100 33 48 135 264 129 271 -3 2 -27 -42 -53 -98z"/>
<path d="M21877 57390 c-4 -66 -10 -145 -13 -175 l-7 -55 39 0 39 0 15 11 15
10 -45 -3 -45 -3 3 20 c6 43 15 315 10 315 -3 0 -8 -54 -11 -120z"/>
<path d="M50364 57391 c3 -5 26 -14 51 -20 25 -6 71 -23 103 -37 l57 -25 48
-47 47 -46 0 10 c0 5 -21 30 -47 55 l-48 45 -30 13 c-25 11 -174 60 -183 61
-2 0 -1 -4 2 -9z"/>
<path d="M54084 57238 c124 -271 161 -348 167 -348 10 0 -184 419 -193 420 -4
0 7 -33 26 -72z"/>
<path d="M38053 57220 l0 -75 -26 -95 c-15 -52 -35 -121 -46 -152 l-20 -58 9
0 9 0 35 111 c20 61 41 137 47 168 l11 56 -10 60 -10 60 1 -75z"/>
<path d="M64174 57115 c3 -11 46 -211 96 -444 l91 -424 -16 -17 c-8 -9 -15
-23 -15 -31 l0 -14 24 30 23 29 -8 26 c-4 14 -47 210 -95 435 l-86 410 -10 10
-10 10 6 -20z"/>
<path d="M33680 57039 l0 -8 33 -6 c17 -3 99 -16 182 -29 l150 -23 70 30 c76
32 81 35 73 42 -3 3 -37 -8 -75 -24 l-70 -30 -159 24 c-87 14 -169 26 -181 28
l-23 4 0 -8z"/>
<path d="M46548 56905 c-2 -3 10 -105 28 -228 19 -122 34 -225 34 -229 0 -5 7
-8 15 -8 l15 0 0 19 c0 37 -40 296 -56 366 -16 69 -26 90 -36 80z"/>
<path d="M48500 56821 c0 -5 160 -83 805 -389 l10 -5 -10 11 c-14 15 -805 392
-805 383z"/>
<path d="M56676 56771 l-57 -57 8 -9 8 -8 -12 7 -12 7 -26 -17 c-36 -24 -253
-267 -358 -401 -48 -61 -110 -137 -138 -167 l-51 -55 7 -11 7 -11 55 61 c31
34 102 119 158 189 56 70 147 180 204 243 l102 114 27 16 c15 9 56 46 91 81
l63 65 -9 5 -10 6 -57 -58z"/>
<path d="M47200 56788 c8 -8 93 -83 188 -167 l172 -153 10 4 9 3 -181 160
-180 160 -17 3 -16 4 15 -14z"/>
<path d="M50260 56746 l-12 -15 4 -13 5 -13 12 23 c15 28 9 39 -9 18z"/>
<path d="M64310 56679 c0 -22 89 -431 95 -437 3 -3 7 -3 9 -1 5 6 -88 436 -96
445 l-8 7 0 -14z"/>
<path d="M54351 56654 l1 -19 5 13 5 13 -6 6 -6 6 1 -19z"/>
<path d="M54434 56632 c4 -7 13 -12 20 -12 7 0 25 -9 39 -20 14 -11 31 -20 38
-20 l14 0 -25 25 -25 25 -34 6 -34 7 7 -11z"/>
<path d="M90645 56522 c6 -5 57 -30 115 -56 58 -25 136 -62 173 -82 38 -20 70
-34 73 -31 10 10 -235 130 -356 174 l-15 6 10 -11z"/>
<path d="M54575 56513 c26 -25 354 -91 401 -81 l19 4 -95 13 c-78 10 -218 40
-315 68 l-20 5 10 -9z"/>
<path d="M90590 56510 c0 -5 -53 -65 -117 -132 l-118 -121 -225 -195 c-124
-107 -226 -199 -228 -203 l-4 -9 10 0 c5 0 114 92 243 204 l234 203 101 104
c56 58 106 114 113 126 l11 22 -10 6 -10 6 0 -11z"/>
<path d="M86718 56387 c-87 -45 -158 -86 -158 -90 0 -8 305 147 325 164 l9 9
-9 0 c-6 -1 -81 -38 -167 -83z"/>
<path d="M86742 56353 c-90 -47 -161 -87 -159 -90 3 -2 76 33 164 78 174 91
168 87 162 93 -2 3 -78 -34 -167 -81z"/>
<path d="M26306 56230 c-111 -192 -125 -221 -108 -220 6 1 230 383 240 411 l4
9 -10 0 -10 0 -116 -200z"/>
<path d="M54362 56388 c6 -18 20 -45 31 -60 l20 -27 9 5 8 5 -20 28 c-11 16
-24 40 -30 55 l-10 26 -9 0 -10 0 11 -32z"/>
<path d="M54973 56344 c3 -4 58 -15 122 -25 64 -11 130 -25 148 -33 l32 -13
53 -48 c29 -26 55 -45 58 -43 6 6 -101 100 -132 116 -16 8 -251 52 -281 52
l-6 0 6 -6z"/>
<path d="M50189 56219 c0 -13 -4 -94 -8 -179 l-8 -155 7 -19 7 -20 7 194 c4
106 4 195 1 198 -3 3 -5 -6 -6 -19z"/>
<path d="M55441 56234 c0 -5 51 -51 112 -102 62 -51 133 -111 160 -134 26 -23
49 -39 51 -37 5 6 -188 174 -307 268 l-17 13 1 -8z"/>
<path d="M48005 56177 c40 -27 417 -219 421 -214 5 5 -418 227 -432 227 -5 0
0 -6 11 -13z"/>
<path d="M57456 55989 l165 -151 6 6 6 6 -49 42 c-26 24 -100 89 -162 146 -63
56 -118 102 -123 102 -5 0 66 -68 157 -151z"/>
<path d="M63342 56025 c-276 -59 -312 -69 -301 -79 4 -4 547 106 592 120 16 5
25 25 10 23 -5 -1 -140 -30 -301 -64z"/>
<path d="M63794 56050 l-1 -30 -17 -19 -17 -19 10 -6 10 -7 16 25 16 24 2 27
2 28 -10 3 -10 4 -1 -30z"/>
<path d="M10203 55960 l-132 -88 -56 -12 -56 -12 -167 11 c-92 6 -194 14 -227
17 l-60 5 15 -9 15 -9 213 -13 213 -12 47 7 c57 9 57 8 214 109 113 71 146 98
121 95 -5 0 -67 -40 -140 -89z"/>
<path d="M50501 56023 l-1 -23 37 -41 37 -41 60 -30 61 -31 157 -53 158 -53
152 -6 c84 -3 163 -8 176 -11 l22 -4 0 9 0 8 -162 7 -163 7 -160 51 -160 50
-65 33 -65 33 -30 31 c-16 17 -35 44 -41 59 l-12 27 -1 -22z"/>
<path d="M46683 55983 l7 -6 7 6 6 7 -13 0 -13 0 6 -7z"/>
<path d="M63710 55965 l0 -16 23 3 22 3 0 10 0 10 -22 3 -23 3 0 -16z"/>
<path d="M1856 55861 l-6 -9 104 -124 104 -123 84 -71 84 -72 64 -32 c52 -27
150 -70 288 -127 l12 -5 0 14 0 13 -117 49 c-65 27 -145 64 -178 82 l-60 33
-95 84 -95 84 -75 92 c-41 51 -80 99 -86 107 -13 16 -21 18 -28 5z"/>
<path d="M44660 55823 c0 -9 95 -83 106 -83 4 0 12 -6 18 -14 19 -23 207 -168
212 -163 4 4 -289 241 -323 261 l-13 7 0 -8z"/>
<path d="M50195 55750 l6 -55 39 -82 39 -83 54 -68 54 -68 69 -60 c85 -75 148
-118 195 -133 l36 -12 16 6 15 7 64 -31 c81 -38 113 -58 156 -98 l35 -31 59
-17 59 -16 77 11 77 12 482 -7 483 -8 45 -28 c57 -36 59 -24 3 16 l-42 29
-525 1 c-290 0 -548 -2 -576 -4 l-50 -3 -43 12 -43 13 -56 49 -55 49 -51 25
-51 24 -58 9 c-64 11 -82 19 -153 69 -75 53 -154 129 -211 202 l-51 65 -35 70
-36 70 -7 45 c-4 25 -12 52 -17 60 l-9 15 6 -55z"/>
<path d="M55840 55796 c0 -3 91 -83 203 -179 112 -96 263 -229 337 -296 73
-66 138 -121 144 -121 l11 1 -26 22 c-15 12 -91 81 -170 152 -142 128 -462
404 -486 419 -7 4 -13 5 -13 2z"/>
<path d="M59723 55773 l7 -6 7 6 6 7 -13 0 -13 0 6 -7z"/>
<path d="M50905 55751 c6 -5 33 -16 60 -24 l50 -16 150 -6 c83 -3 160 -8 173
-11 l22 -4 0 8 0 9 -182 10 -183 11 -50 16 -49 16 9 -9z"/>
<path d="M59773 55753 l7 -6 7 6 6 7 -13 0 -13 0 6 -7z"/>
<path d="M85398 55701 l-28 -18 -160 -49 c-88 -27 -160 -52 -160 -56 l0 -6 43
13 c241 73 347 113 347 131 0 8 -15 2 -42 -15z"/>
<path d="M19397 55409 c-71 -105 -126 -193 -124 -196 4 -4 103 138 250 359
l19 28 -9 0 c-4 -1 -66 -87 -136 -191z"/>
<path d="M63870 55523 c0 -47 174 -907 187 -922 2 -2 6 -2 9 2 l6 6 -46 213
c-25 117 -48 229 -51 248 -3 19 -24 131 -45 249 -22 117 -40 215 -40 217 0 2
-4 4 -10 4 l-10 0 0 -17z"/>
<path d="M92207 55490 l81 -39 134 -35 c74 -20 138 -36 144 -35 19 1 -42 20
-155 49 l-117 29 -77 36 c-43 19 -81 35 -85 34 -4 0 30 -18 75 -39z"/>
<path d="M55243 55488 l-43 -9 0 -10 0 -10 38 8 c20 4 56 6 80 6 l42 -1 0 8 0
8 -31 6 c-17 3 -34 6 -38 5 -3 -1 -25 -5 -48 -11z"/>
<path d="M50360 55484 c0 -26 218 -212 298 -253 l24 -13 6 6 5 6 -10 0 c-18 0
-186 131 -255 199 l-68 65 0 -10z"/>
<path d="M37189 55468 c-1 -2 -3 -25 -5 -53 -3 -27 -9 -67 -15 -87 l-10 -37
-25 -30 c-13 -16 -60 -60 -103 -96 l-79 -66 -61 -29 -61 -29 -57 -10 c-32 -6
-105 -11 -163 -13 l-105 -3 -17 9 -18 8 0 -10 0 -11 34 -6 34 -7 134 10 133 9
75 32 76 31 91 79 c50 44 100 93 111 109 l21 29 11 69 c6 37 13 70 16 73 2 2
90 -3 195 -12 l191 -17 36 20 37 19 -13 1 c-7 0 -25 -6 -40 -13 l-27 -14 -185
16 -185 16 -12 8 c-7 5 -13 7 -14 5z"/>
<path d="M49402 55388 c-7 -7 -112 -63 -235 -125 -122 -61 -218 -112 -214
-113 15 0 431 208 457 229 l25 21 -10 0 c-6 0 -16 -5 -23 -12z"/>
<path d="M25505 55192 c-55 -48 -216 -176 -357 -286 l-258 -198 6 -10 6 -9 41
34 c23 18 148 115 277 215 214 165 390 312 398 334 9 22 -22 0 -113 -80z"/>
<path d="M53188 55241 l-7 -23 24 -124 c13 -68 26 -128 29 -133 l6 -9 -15 -12
c-8 -7 -29 -38 -47 -69 -18 -31 -95 -151 -173 -268 -77 -116 -219 -332 -315
-479 -96 -148 -214 -321 -262 -386 -49 -65 -88 -121 -88 -125 0 -30 153 172
261 345 35 57 178 275 318 485 140 210 271 409 292 443 l37 61 -20 94 c-10 52
-23 123 -26 159 l-8 65 -6 -24z"/>
<path d="M50848 55217 l-48 -10 0 -9 0 -8 28 6 c31 8 92 33 77 32 -5 -1 -31
-5 -57 -11z"/>
<path d="M55216 55151 l-6 -9 13 -9 c6 -6 17 -13 24 -17 l12 -6 5 9 6 9 -25
16 -24 16 -5 -9z"/>
<path d="M77117 55033 l-6 -9 32 -49 c17 -28 63 -110 103 -182 l71 -133 6 6 6
6 -59 117 c-32 64 -79 147 -103 185 l-44 69 -6 -10z"/>
<path d="M51138 54990 c-60 -10 -161 -40 -156 -46 3 -2 40 5 84 17 l79 21 180
7 180 8 -160 0 -160 1 -47 -8z"/>
<path d="M47305 54959 c4 -13 13 -27 20 -31 13 -8 30 -45 39 -90 l6 -28 10 0
10 0 0 35 0 36 -14 27 -14 27 -32 24 -32 23 7 -23z"/>
<path d="M52141 54769 l-124 -190 -154 -201 -154 -200 6 -7 7 -6 11 16 c7 8
69 89 138 180 l127 165 134 204 c74 113 137 211 142 218 l7 12 -8 -1 c-4 0
-64 -86 -132 -190z"/>
<path d="M50675 54940 c-11 -5 -42 -9 -70 -9 l-50 -1 -15 -10 -15 -10 20 0
c11 0 51 5 88 10 l69 10 46 -38 c74 -61 83 -59 17 2 -33 30 -62 55 -65 55 -3
0 -14 -4 -25 -9z"/>
<path d="M53280 54941 c0 -6 5 -21 12 -35 l11 -26 -133 -200 -133 -199 -28 20
-29 20 0 -9 c0 -5 11 -15 25 -22 l25 -13 0 -16 0 -15 14 14 c7 8 73 106 146
218 l132 202 -12 30 c-7 17 -17 33 -21 36 l-9 5 0 -10z"/>
<path d="M52299 54910 c13 -11 28 -20 35 -20 l11 0 -25 20 c-14 11 -29 20 -35
19 l-10 0 24 -19z"/>
<path d="M47111 54887 c-6 -16 -11 -37 -11 -48 l0 -21 12 4 12 4 8 29 7 28 -9
16 -9 16 -10 -28z"/>
<path d="M52255 54742 l-100 -157 -179 -238 c-98 -131 -176 -240 -174 -243 16
-15 565 762 556 786 -2 5 -48 -62 -103 -148z"/>
<path d="M50926 54850 l6 -35 21 -21 c41 -40 759 -605 755 -594 -2 6 -172 145
-377 308 -206 163 -377 304 -382 312 -4 8 -12 26 -18 40 l-11 25 6 -35z"/>
<path d="M50867 54856 l-38 -12 6 -6 6 -6 35 11 c19 6 34 14 34 19 0 4 -1 8
-2 7 -2 -1 -20 -6 -41 -13z"/>
<path d="M54150 54796 c0 -2 30 -21 68 -41 37 -21 82 -49 100 -62 36 -27 54
-27 25 0 -17 15 -178 107 -188 107 -3 0 -5 -2 -5 -4z"/>
<path d="M54107 54745 c-5 -22 -12 -54 -18 -71 l-10 -32 -32 -6 c-50 -10 -134
-52 -235 -118 l-93 -61 -105 -155 c-58 -85 -103 -156 -101 -159 3 -2 51 63
106 145 l102 149 90 62 c96 67 194 117 247 127 l32 6 16 54 15 54 -3 22 -4 23
-7 -40z"/>
<path d="M52675 54713 c20 -21 257 -174 261 -170 6 5 -226 164 -253 174 l-18
6 10 -10z"/>
<path d="M46883 54675 l-28 -24 11 -1 c6 0 21 11 34 25 30 32 19 32 -17 0z"/>
<path d="M77106 54605 c-99 -40 -187 -78 -195 -84 l-16 -12 15 4 c18 6 373
149 379 154 2 2 2 5 0 6 -2 2 -85 -29 -183 -68z"/>
<path d="M48945 54545 c-126 -69 -234 -126 -240 -128 -5 -3 -8 -7 -5 -10 3 -3
118 55 255 129 138 74 243 134 235 133 -8 0 -118 -56 -245 -124z"/>
<path d="M50360 54640 l-15 -10 17 0 c9 0 20 5 23 10 l6 10 -8 0 c-4 0 -15 -5
-23 -10z"/>
<path d="M81393 54597 c-111 -29 -205 -55 -209 -59 l-7 -8 17 0 c9 0 109 23
221 51 l205 51 0 9 c0 13 -7 12 -227 -44z"/>
<path d="M54217 54625 c-54 -7 -101 -16 -105 -20 l-7 -8 40 6 c22 4 73 9 113
13 l73 7 5 8 5 9 -13 -1 c-7 -1 -57 -7 -111 -14z"/>
<path d="M77108 54563 c-103 -42 -186 -79 -183 -81 5 -5 365 137 380 149 l9 9
-9 0 c-6 -1 -94 -35 -197 -77z"/>
<path d="M55032 54575 c-7 -22 -12 -47 -11 -55 l0 -15 15 40 15 40 -4 15 -3
15 -12 -40z"/>
<path d="M47731 54573 c-1 -7 17 -61 40 -121 l41 -109 47 -55 47 -55 44 -97
c24 -53 47 -96 51 -96 4 0 -15 48 -42 107 l-50 106 -44 51 -44 52 -45 114
c-24 63 -45 110 -45 103z"/>
<path d="M50190 54573 c0 -12 38 -48 45 -41 3 2 -6 15 -20 28 l-25 23 0 -10z"/>
<path d="M63973 54558 c3 -13 24 -115 48 -228 23 -113 44 -207 46 -209 2 -2 6
-1 9 2 l7 7 -48 225 -48 225 -10 0 -9 0 5 -22z"/>
<path d="M49958 54486 c-92 -45 -168 -84 -168 -88 0 -6 328 147 339 158 20 19
-28 -1 -171 -70z"/>
<path d="M50121 54531 c-1 -7 4 -43 11 -80 l11 -66 24 -26 25 -27 46 -13 45
-13 134 -114 134 -115 -8 -7 c-4 -4 -118 -55 -253 -114 -135 -60 -314 -144
-398 -188 -85 -44 -155 -78 -157 -76 -2 1 -62 120 -133 263 -72 143 -131 255
-131 250 -1 -6 55 -125 124 -264 l125 -253 -6 -9 -5 -9 10 0 11 0 41 -82 c23
-45 52 -99 65 -120 l24 -38 -45 -22 c-38 -19 -58 -38 -40 -38 9 0 211 103 337
173 l118 64 -8 8 -7 8 11 -6 11 -6 74 28 c75 29 508 227 517 236 25 25 -42 -1
-254 -98 -137 -63 -274 -122 -304 -132 l-55 -18 -173 -94 c-95 -52 -174 -93
-176 -91 -17 24 -127 231 -124 233 25 26 524 261 806 382 l32 13 -57 49 c-32
26 -98 82 -146 123 l-88 76 -45 12 -45 13 -23 28 -24 28 -7 53 c-4 29 -11 62
-16 73 l-8 20 0 -14z"/>
<path d="M50225 54480 l-6 -20 46 -64 47 -64 127 -108 126 -109 119 -72 c65
-39 129 -82 142 -94 13 -12 26 -20 29 -17 10 9 -52 56 -169 127 l-118 72 -123
106 -124 106 -43 60 -43 59 3 19 c4 25 -5 24 -13 -1z"/>
<path d="M52960 54473 c1 -4 18 -19 38 -32 20 -13 140 -91 266 -173 125 -82
235 -152 244 -155 l15 -6 -6 10 c-6 10 -424 285 -519 342 l-38 23 0 -9z"/>
<path d="M4812 54458 l5 -13 119 -38 c134 -43 293 -87 312 -87 l12 0 0 10 0 9
-42 11 c-24 6 -123 35 -220 65 -98 30 -180 55 -184 55 -3 0 -4 -6 -2 -12z"/>
<path d="M85145 54405 l-160 -43 -62 -27 -63 -28 0 -8 0 -9 58 29 57 29 165
42 c91 24 172 46 180 51 l15 8 -15 0 c-8 -1 -87 -20 -175 -44z"/>
<path d="M52775 54079 l-226 -342 -33 -66 c-18 -36 -41 -90 -50 -119 l-18 -52
-28 -15 -27 -14 -7 6 -6 6 0 -6 c0 -3 18 -47 40 -97 22 -50 40 -99 40 -108 l0
-17 9 14 9 14 -39 84 c-21 47 -39 89 -39 93 0 4 11 11 24 14 l24 6 14 22 c8
13 20 43 27 68 22 73 83 177 308 519 118 178 212 326 209 328 -2 2 -106 -150
-231 -338z"/>
<path d="M48670 54405 c0 -13 146 -295 152 -295 5 0 -26 68 -67 150 -66 131
-85 164 -85 145z"/>
<path d="M80792 54093 c44 -170 80 -323 81 -342 l2 -34 -230 -55 c-126 -29
-232 -56 -234 -58 -14 -14 28 -6 239 46 129 32 237 58 240 58 3 0 9 0 14 1 l8
1 -9 13 c-6 6 -48 162 -94 344 -46 183 -87 333 -90 333 -4 0 29 -138 73 -307z"/>
<path d="M88035 54386 l-20 -15 10 -2 c6 0 25 0 43 1 l33 2 25 -17 25 -16 10
6 10 7 -24 18 -23 18 -35 7 -34 6 -20 -15z"/>
<path d="M51341 54254 c-46 -52 -81 -97 -79 -99 3 -3 35 30 73 73 38 42 78 87
89 100 l19 22 -9 0 c-5 -1 -47 -44 -93 -96z"/>
<path d="M49082 54218 c-128 -66 -231 -122 -229 -125 3 -2 114 52 248 121 134
69 237 126 229 125 -8 0 -120 -54 -248 -121z"/>
<path d="M51450 54306 c32 -32 195 -155 199 -150 2 2 2 6 0 7 -126 104 -248
192 -199 143z"/>
<path d="M45220 54256 c0 -3 24 -18 53 -34 l52 -29 64 -12 63 -12 134 7 134 7
0 8 0 8 -32 -4 c-18 -2 -77 -7 -131 -9 l-98 -6 -72 16 -71 15 -44 24 c-46 26
-52 28 -52 21z"/>
<path d="M49172 54088 c-139 -72 -250 -133 -248 -136 4 -3 510 251 525 264 2
2 -2 4 -10 3 -8 0 -128 -59 -267 -131z"/>
<path d="M48320 54206 c0 -13 185 -366 192 -366 7 0 -168 347 -183 365 l-9 9
0 -8z"/>
<path d="M32770 54172 c0 -5 29 -32 65 -61 l65 -53 0 -13 0 -13 -71 -61 c-88
-76 -77 -81 14 -5 l67 56 0 22 0 22 -70 58 c-38 31 -70 53 -70 48z"/>
<path d="M51684 54168 l-7 -11 11 7 c12 7 16 16 8 16 -3 0 -8 -5 -12 -12z"/>
<path d="M49469 53993 c218 -499 265 -602 269 -598 6 6 -331 775 -340 775 -4
0 28 -80 71 -177z"/>
<path d="M53540 54146 c0 -3 107 -77 238 -164 392 -263 585 -397 584 -405 -1
-11 -627 -319 -717 -353 l-70 -27 -380 -198 c-210 -110 -385 -199 -391 -199
l-10 0 -69 148 c-142 304 -166 354 -171 349 -2 -2 48 -116 112 -252 l116 -248
-23 -18 c-26 -20 -19 -25 11 -9 l19 10 11 -19 c15 -29 13 -37 -17 -50 l-26
-12 -8 13 c-5 7 -9 16 -9 21 0 4 -5 7 -10 7 l-11 0 11 -19 c5 -11 10 -22 10
-25 0 -3 -45 -29 -101 -57 -56 -27 -99 -52 -96 -55 3 -3 50 17 105 45 l100 50
52 -107 c28 -59 68 -142 87 -184 20 -43 39 -78 44 -78 l8 0 -90 186 c-49 102
-89 187 -89 189 0 6 61 27 65 23 14 -14 176 -325 264 -509 57 -118 144 -298
194 -401 50 -104 94 -188 98 -188 l9 0 -9 23 c-5 13 -46 98 -92 188 -45 90
-130 263 -188 384 -59 121 -142 287 -185 368 -43 82 -76 150 -74 152 1 1 55
28 118 60 63 31 235 120 382 196 l267 139 43 -5 43 -5 -20 9 c-11 5 -33 10
-49 10 l-29 1 -196 -101 c-108 -56 -270 -141 -361 -190 -91 -48 -177 -90 -191
-94 l-25 -6 -11 24 -12 25 62 27 c34 14 208 103 387 197 178 93 352 180 385
193 108 40 1064 506 1065 518 l0 7 -51 -25 c-28 -14 -97 -48 -154 -75 l-104
-48 -148 100 c-81 55 -265 181 -409 279 -144 98 -268 181 -277 185 l-17 6 0
-6z"/>
<path d="M51189 54104 l-25 -24 -148 -84 -148 -84 10 -6 10 -6 149 85 c81 47
159 96 172 109 l23 24 -9 5 -9 6 -25 -25z"/>
<path d="M54952 54098 c-6 -18 -32 -103 -57 -188 -25 -85 -50 -166 -55 -180
-5 -14 -14 -37 -19 -52 l-10 -26 -36 34 c-20 19 -41 34 -47 34 l-11 0 45 -40
45 -39 -19 -58 c-10 -32 -39 -128 -64 -213 -111 -377 -217 -727 -227 -745
l-11 -20 3 -35 2 -35 -51 -165 -50 -165 0 -32 0 -32 10 -6 10 -6 0 39 0 39 46
149 47 149 2 55 c1 30 7 66 12 80 6 14 47 150 93 302 l83 277 29 6 29 7 197
-131 c109 -72 204 -131 211 -131 l13 0 -203 135 -204 136 -32 -4 c-18 -1 -33
-1 -33 2 0 5 32 110 135 436 85 268 136 447 132 452 -3 2 -10 -11 -15 -29z"/>
<path d="M85451 54036 c-1 -7 171 -663 206 -784 8 -30 17 -51 19 -49 5 5 -201
790 -216 822 -5 11 -9 16 -9 11z"/>
<path d="M53259 53747 c-476 -242 -763 -396 -755 -405 3 -2 74 34 158 81 84
46 356 186 603 310 248 124 459 232 470 241 l20 15 -10 0 c-5 -1 -224 -110
-486 -242z"/>
<path d="M31206 53926 c-4 -19 -45 -126 -92 -237 -47 -110 -83 -203 -80 -206
6 -7 14 10 104 222 44 105 82 205 86 223 l6 32 -9 0 -9 0 -6 -34z"/>
<path d="M31246 53919 l-6 -40 -85 -201 c-47 -111 -83 -203 -80 -206 2 -3 9 6
14 19 5 13 44 105 86 204 l76 180 6 43 c7 54 -2 55 -11 1z"/>
<path d="M20709 53865 l-56 -24 -54 -2 c-30 -1 -101 0 -159 4 l-105 6 50 -10
50 -9 105 -2 105 -2 63 24 c34 14 62 28 62 32 0 5 -1 8 -2 7 -2 0 -28 -11 -59
-24z"/>
<path d="M59615 53870 l-60 -8 -135 -42 c-138 -43 -279 -99 -280 -112 0 -4 24
4 54 18 30 14 133 49 229 79 l175 55 65 0 c36 0 119 -7 184 -16 l118 -17 50
-22 c49 -22 119 -65 343 -213 l113 -74 140 -65 140 -64 11 3 10 4 -133 63
c-149 69 -204 101 -429 245 -85 55 -174 108 -196 118 l-42 18 -148 20 c-82 11
-149 19 -149 19 0 -1 -27 -5 -60 -9z"/>
<path d="M21654 53795 l26 -24 -1 -58 c0 -32 -6 -111 -12 -175 l-12 -118 7 0
c5 0 8 6 8 13 0 6 5 62 11 122 5 61 10 137 11 169 l1 59 -23 19 c-12 10 -27
18 -33 18 l-10 0 27 -25z"/>
<path d="M19230 53759 c-219 -56 -225 -57 -218 -65 7 -6 409 96 423 108 l9 8
-9 -1 c-6 0 -98 -23 -205 -50z"/>
<path d="M59980 53787 c0 -5 38 -29 288 -186 45 -28 82 -48 82 -44 0 7 -337
223 -361 231 -5 2 -9 1 -9 -1z"/>
<path d="M52995 53561 c-192 -98 -379 -194 -414 -214 l-63 -34 8 -5 9 -5 195
104 c107 57 293 153 413 214 196 99 233 120 210 119 -5 0 -165 -81 -358 -179z"/>
<path d="M51741 53703 c2 -6 45 -43 94 -83 50 -40 106 -91 126 -114 l37 -41 7
7 8 7 -34 38 c-36 41 -209 185 -229 191 l-12 5 3 -10z"/>
<path d="M62265 53688 c3 -13 25 -119 49 -235 23 -117 45 -211 48 -208 3 3
-16 109 -41 235 l-46 230 -7 0 -8 0 5 -22z"/>
<path d="M80941 53699 c-1 -15 202 -854 214 -888 3 -8 7 -12 9 -10 2 2 -47
209 -109 459 -63 250 -114 448 -114 439z"/>
<path d="M66450 53655 c-85 -18 -181 -38 -213 -45 -32 -6 -56 -14 -53 -17 5
-5 457 85 465 93 11 10 -57 0 -199 -31z"/>
<path d="M50034 53431 l-221 -116 -211 -130 c-191 -117 -230 -145 -204 -145 5
0 99 56 210 125 l202 125 223 117 c122 63 226 119 230 123 l9 8 -9 4 -8 4
-221 -115z"/>
<path d="M50310 53483 c1 -5 28 -55 60 -113 l60 -105 -188 -92 c-103 -51 -190
-92 -194 -93 -4 0 -15 15 -24 33 -31 62 -109 187 -117 187 l-8 0 7 -12 c4 -7
24 -38 44 -68 21 -30 45 -70 54 -88 l17 -33 -6 -9 c-3 -6 -14 -10 -25 -10
l-18 0 -6 -16 c-9 -24 -7 -27 10 -10 18 18 32 20 54 6 l14 -9 6 9 c7 11 380
193 385 188 4 -4 63 -133 76 -167 5 -13 12 -21 15 -19 2 3 -13 47 -36 97 -22
51 -40 94 -40 97 0 3 83 46 185 96 102 50 184 92 182 94 -2 3 -88 -36 -190
-85 l-186 -90 -19 32 c-11 18 -38 67 -61 110 -39 71 -52 88 -51 70z"/>
<path d="M51160 53365 c-113 -57 -202 -104 -197 -104 10 -1 407 198 407 204 0
7 15 14 -210 -100z"/>
<path d="M51940 53460 l-15 -10 10 1 c6 0 19 4 30 9 l20 9 -15 0 c-8 0 -22 -4
-30 -9z"/>
<path d="M48695 53446 c-11 -7 -134 -73 -273 -146 -139 -73 -251 -134 -249
-137 5 -5 535 272 552 288 l9 9 -9 -1 c-6 0 -19 -6 -30 -13z"/>
<path d="M51775 53401 l-100 -38 -115 -63 c-63 -34 -126 -72 -138 -84 -24 -21
-56 -85 -48 -94 3 -2 11 11 19 29 21 49 46 68 192 146 l130 69 78 29 c43 15
80 32 83 36 7 12 14 14 -101 -30z"/>
<path d="M31953 53351 l-112 -16 -42 -30 c-23 -17 -58 -49 -77 -72 l-35 -43
11 0 c6 0 23 18 39 39 l28 39 50 30 50 30 108 13 107 13 0 8 c0 4 -3 8 -7 7
-5 0 -58 -8 -120 -18z"/>
<path d="M54754 53331 c9 -10 86 -64 169 -120 l152 -101 71 -18 71 -18 -13
-12 -13 -12 -7 -37 -7 -38 -128 -255 -128 -255 -41 -50 c-23 -27 -62 -72 -88
-98 l-46 -48 -164 -80 -164 -79 -18 10 c-10 6 -32 10 -47 10 l-29 0 -19 -13
-18 -14 7 -11 6 -10 30 15 30 15 36 -21 c41 -25 44 -25 44 -8 l0 12 148 70
c81 38 156 76 167 86 11 9 30 21 42 28 l21 11 60 74 60 75 133 258 133 258 7
50 c4 28 9 56 10 63 l4 14 -75 22 -75 22 -152 102 c-83 55 -154 106 -158 112
-3 5 -11 10 -17 10 l-11 0 17 -19z"/>
<path d="M49810 53235 c0 -2 29 -50 65 -107 36 -56 65 -104 65 -108 0 -3 -86
-53 -191 -110 l-192 -104 -12 18 c-7 9 -37 62 -65 117 -29 55 -55 97 -58 95
-2 -3 19 -48 47 -101 28 -52 51 -100 51 -105 l0 -10 -25 0 -24 0 -12 -22 -12
-23 19 17 19 16 25 4 25 3 0 -15 c0 -15 13 -30 27 -30 l7 0 -4 13 -4 12 189
103 c105 56 197 102 205 102 l15 0 0 15 0 15 -9 0 c-5 0 -39 47 -76 105 -60
95 -75 115 -75 100z"/>
<path d="M61191 53224 c-1 -11 -147 -771 -156 -808 l-4 -19 8 9 c5 5 43 188
85 407 l77 399 -5 11 -4 12 -1 -11z"/>
<path d="M64298 53213 l13 -5 6 6 6 6 -19 -1 -19 -1 13 -5z"/>
<path d="M52270 53203 c0 -16 113 -263 152 -331 52 -91 40 -51 -20 68 -32 63
-74 151 -95 195 -20 44 -36 75 -37 68z"/>
<path d="M56690 53185 c-85 -7 -170 -14 -189 -14 l-34 -1 6 -6 6 -7 188 12
c104 7 316 16 473 20 l285 8 -290 0 -290 0 -155 -12z"/>
<path d="M34690 53179 l0 -10 10 6 c6 3 10 8 10 11 0 2 -4 4 -10 4 -5 0 -10
-5 -10 -11z"/>
<path d="M52143 53173 l7 -6 7 6 6 7 -13 0 -13 0 6 -7z"/>
<path d="M56960 53150 l-45 -7 110 0 c61 0 175 3 255 7 l145 6 -210 1 -210 0
-45 -7z"/>
<path d="M34675 53130 l-6 -10 10 0 c6 0 11 5 11 10 0 6 -2 10 -4 10 -3 0 -8
-4 -11 -10z"/>
<path d="M51170 53055 c-69 -35 -122 -64 -118 -64 4 -1 62 26 130 59 l123 61
25 -6 25 -6 35 -35 36 -34 19 -55 18 -55 10 0 9 0 -7 18 c-4 9 -14 35 -21 58
l-15 41 -38 37 -38 37 -34 4 -34 5 -125 -65z"/>
<path d="M55412 53091 l-12 -7 20 -19 20 -18 0 -37 0 -37 -20 -26 -21 -26 -34
-7 -35 -6 0 -15 0 -14 20 5 c11 3 28 8 39 11 l18 5 129 -21 c193 -31 253 -47
580 -159 l299 -102 220 -90 c121 -50 333 -136 470 -193 l250 -102 160 -81 c88
-45 351 -189 585 -320 l425 -239 9 8 10 9 -10 9 c-5 6 -200 117 -434 247
l-425 237 -195 95 -195 95 -405 164 -405 165 -224 77 -224 78 29 19 c31 20 83
74 84 87 0 4 -6 7 -13 7 l-13 0 -22 -30 -22 -30 -41 -20 -40 -21 -87 30 c-90
32 -217 62 -337 81 -38 6 -82 13 -96 16 l-27 5 15 38 15 38 -11 40 c-6 22 -17
45 -24 51 l-13 11 -12 -8z"/>
<path d="M50601 53086 c-1 -10 89 -206 101 -220 l8 -10 0 10 c-1 13 -108 231
-109 220z"/>
<path d="M34447 53048 c-49 -16 -86 -32 -84 -35 3 -2 47 9 99 25 51 17 102 32
113 35 l20 5 -30 0 -30 0 -88 -30z"/>
<path d="M50356 52965 l-209 -104 -8 4 -7 5 -5 -14 -6 -15 8 -3 c4 -2 28 -47
54 -100 25 -54 47 -98 50 -98 2 0 41 21 88 46 46 25 139 72 207 104 67 32 122
61 122 64 0 9 -43 -10 -231 -104 -100 -50 -183 -89 -185 -88 -6 7 -73 146 -79
166 l-7 23 216 104 c190 92 236 117 209 114 -5 0 -102 -47 -217 -104z"/>
<path d="M34556 52948 c-9 -46 -16 -100 -16 -120 l0 -38 10 0 10 0 0 38 c1 20
7 66 15 102 8 36 14 73 15 83 l0 17 -9 0 -8 0 -17 -82z"/>
<path d="M11895 52981 l-5 -10 197 -142 c109 -78 251 -180 316 -227 l118 -85
9 9 9 9 -306 220 c-168 121 -312 223 -319 228 l-13 7 -6 -9z"/>
<path d="M49308 52973 c6 -2 18 -2 25 0 l12 5 -25 0 -25 0 13 -5z"/>
<path d="M77718 52827 l-187 -72 2 -10 2 -10 10 3 c6 2 94 35 198 74 l187 71
0 9 c0 15 -23 8 -212 -65z"/>
<path d="M51437 52784 c-76 -42 -136 -78 -134 -81 5 -4 287 146 287 153 0 10
-24 -1 -153 -72z"/>
<path d="M77741 52776 l-185 -72 -4 -12 -4 -12 49 18 c26 11 117 46 201 78
l152 58 0 8 c0 14 -21 7 -209 -66z"/>
<path d="M61031 52614 c-117 -561 -225 -1140 -219 -1172 l3 -17 52 285 c29
157 89 465 133 685 44 220 79 406 78 414 -2 8 -23 -80 -47 -195z"/>
<path d="M48710 52716 l-145 -74 -16 -18 c-9 -11 -19 -28 -23 -39 l-7 -20 33
31 33 31 142 74 c124 64 164 90 136 88 -5 0 -73 -33 -153 -73z"/>
<path d="M48328 52767 l-16 -12 96 -202 97 -202 12 -1 c6 0 15 5 18 10 l6 10
-97 203 c-53 111 -97 203 -98 204 -2 2 -10 -3 -18 -10z"/>
<path d="M85795 52750 c16 -16 31 -28 33 -25 7 7 -39 55 -52 55 l-10 0 29 -30z"/>
<path d="M48375 52750 c3 -5 8 -10 11 -10 3 0 2 5 -1 10 -3 6 -8 10 -11 10 -3
0 -2 -4 1 -10z"/>
<path d="M48865 52729 l-7 -30 17 -72 18 -72 58 -123 c47 -99 99 -189 99 -171
0 2 -31 68 -70 146 l-69 142 -17 63 -16 63 1 43 c1 49 -5 55 -14 11z"/>
<path d="M48448 52705 c-3 -3 3 -22 13 -43 l19 -36 0 -28 0 -28 15 0 15 0 0
29 c0 63 -38 129 -62 106z"/>
<path d="M64623 52662 c-101 -20 -183 -39 -183 -42 l0 -7 196 38 c109 21 202
40 208 43 l11 4 -25 0 c-14 0 -107 -16 -207 -36z"/>
<path d="M39816 52625 l21 -14 124 -30 c68 -16 157 -41 198 -55 41 -14 82 -26
90 -25 26 1 -177 68 -269 89 -47 10 -105 26 -129 35 -54 19 -61 19 -35 0z"/>
<path d="M48160 52585 l-25 -27 -137 -69 -138 -69 0 -10 c0 -18 18 -11 158 59
l137 69 18 20 19 21 -4 16 -3 17 -25 -27z"/>
<path d="M48856 52543 c8 -32 120 -260 139 -283 l13 -15 6 -47 7 -46 -108 -57
c-59 -31 -126 -63 -148 -70 l-40 -13 27 -1 26 -1 112 56 c62 31 120 64 130 74
l18 18 -5 44 -6 43 -18 20 c-19 21 -139 267 -139 284 0 6 -5 13 -10 16 l-11 7
7 -29z"/>
<path d="M39780 52532 l0 -9 53 -7 c28 -4 121 -27 205 -52 l154 -45 11 4 12 5
-30 12 c-65 25 -295 89 -348 95 l-57 7 0 -10z"/>
<path d="M54983 52407 l-91 -132 -45 -42 -45 -42 12 -4 11 -4 46 41 46 41 86
127 c48 70 87 131 87 137 0 27 -23 2 -107 -122z"/>
<path d="M40273 52493 l7 -6 7 6 6 7 -13 0 -13 0 6 -7z"/>
<path d="M48398 52483 c-19 -5 -24 -18 -9 -27 l9 -6 16 6 16 6 0 14 c0 14 -3
15 -32 7z"/>
<path d="M48231 52420 c26 -4 56 -13 68 -19 l21 -12 0 9 c0 5 -11 14 -25 20
l-26 12 -42 -1 -42 -1 46 -8z"/>
<path d="M48163 52413 l7 -6 7 6 6 7 -13 0 -13 0 6 -7z"/>
<path d="M52490 52395 c0 -11 75 -155 137 -262 l65 -113 9 0 c15 0 12 6 -60
128 -38 64 -84 147 -102 185 -18 37 -37 67 -41 67 -4 0 -8 -2 -8 -5z"/>
<path d="M49176 52304 c-70 -36 -126 -67 -123 -70 5 -6 267 123 267 131 0 10
-18 3 -144 -61z"/>
<path d="M30352 52180 l-253 -27 -7 -8 -7 -8 50 6 c28 4 145 16 260 28 198 20
224 24 214 32 -2 2 -118 -9 -257 -23z"/>
<path d="M49070 52185 c0 -3 5 -14 12 -24 l12 -19 -18 -26 -17 -26 -144 -73
-145 -72 0 -11 0 -11 157 81 158 81 13 29 14 28 -11 24 -11 24 -10 0 c-5 0
-10 -2 -10 -5z"/>
<path d="M52720 52060 l-15 -10 12 0 c6 0 15 5 18 10 8 12 4 12 -15 0z"/>
<path d="M52770 52052 c0 -17 221 -440 263 -504 29 -43 47 -59 47 -42 0 4 -15
30 -33 58 -19 28 -82 143 -140 256 -58 113 -113 214 -121 225 l-15 20 -1 -13z"/>
<path d="M52747 52033 c-4 -3 -7 -11 -7 -17 l0 -10 12 12 c6 6 9 14 7 17 -3 3
-9 2 -12 -2z"/>
<path d="M52472 51934 c-101 -53 -181 -98 -179 -101 5 -4 377 186 377 193 0
10 -25 -2 -198 -92z"/>
<path d="M60637 51982 l-159 -27 6 -6 6 -5 127 22 c71 13 153 24 183 24 30 1
64 5 75 10 l20 9 -50 -1 -50 0 -158 -26z"/>
<path d="M54265 51991 l-5 -9 26 -21 c45 -35 65 -17 22 20 -26 21 -34 23 -43
10z"/>
<path d="M53151 51916 c-1 -5 36 -86 81 -179 l82 -169 4 10 3 10 -85 169 c-47
92 -85 164 -85 159z"/>
<path d="M49447 51862 c-15 -15 -27 -31 -27 -36 l0 -7 10 6 c10 6 53 65 48 65
-3 0 -16 -13 -31 -28z"/>
<path d="M53485 51644 c-176 -90 -324 -165 -329 -167 l-10 -3 8 -12 7 -12 332
170 332 169 3 11 4 10 -14 -1 c-7 0 -157 -74 -333 -165z"/>
<path d="M52085 51689 c-115 -60 -203 -109 -195 -107 20 4 420 207 420 213 0
11 -24 0 -225 -106z"/>
<path d="M22451 51724 l1 -19 5 13 5 13 -6 6 -6 6 1 -19z"/>
<path d="M90752 51593 c-102 -190 -104 -193 -98 -193 5 0 46 74 131 233 31 59
54 107 52 107 -3 0 -41 -66 -85 -147z"/>
<path d="M13680 51712 c0 -5 81 -63 179 -130 l179 -122 4 12 5 13 -173 117
c-164 112 -194 129 -194 110z"/>
<path d="M22442 51670 l0 -25 5 13 c2 6 2 18 0 25 l-5 12 0 -25z"/>
<path d="M22432 51610 l0 -25 5 13 c2 6 2 18 0 25 l-5 12 0 -25z"/>
<path d="M51462 51417 c-216 -110 -390 -202 -388 -205 4 -3 773 382 785 394
21 21 -58 -17 -397 -189z"/>
<path d="M4167 51587 c4 -8 61 -95 127 -195 l118 -182 9 6 8 5 -76 117 c-42
64 -97 150 -122 189 l-46 73 -13 0 -13 0 8 -13z"/>
<path d="M4120 51565 c0 -3 15 -26 34 -52 18 -27 62 -95 96 -153 35 -58 90
-139 121 -180 l58 -75 101 -58 c55 -32 134 -71 175 -87 l75 -28 0 12 0 12 -56
19 -55 19 -111 62 -110 61 -55 69 c-30 38 -84 118 -120 179 -77 128 -131 205
-144 205 -5 0 -9 -2 -9 -5z"/>
<path d="M22421 51554 l1 -19 5 13 5 13 -6 6 -6 6 1 -19z"/>
<path d="M22412 51490 l0 -25 5 13 c2 6 2 18 0 25 l-5 12 0 -25z"/>
<path d="M53015 51480 c-32 -21 -54 -55 -55 -85 l-1 -20 -32 -36 -32 -36 -65
-40 c-65 -40 -739 -386 -1212 -622 l-248 -123 0 -14 c0 -8 2 -14 5 -14 12 0
1410 709 1470 746 l71 43 32 40 32 40 0 18 c0 10 9 32 19 50 l20 31 20 7 c22
7 27 20 13 29 l-8 5 -29 -19z"/>
<path d="M22402 51420 l0 -35 5 18 c2 9 2 25 0 35 l-5 17 0 -35z"/>
<path d="M34265 51390 l-6 -10 10 0 c6 0 11 5 11 10 0 6 -2 10 -4 10 -3 0 -8
-4 -11 -10z"/>
<path d="M22390 51370 l0 -13 7 6 6 7 -6 7 -7 6 0 -13z"/>
<path d="M34157 51343 c7 -22 32 -43 50 -43 l13 0 0 10 0 10 -15 0 -14 0 -11
20 c-6 11 -15 20 -20 20 l-9 0 6 -17z"/>
<path d="M45844 51317 l-61 -32 4 -12 5 -13 61 31 c74 37 73 37 61 48 l-9 9
-61 -31z"/>
<path d="M33883 51333 c-7 -2 -13 -9 -13 -14 l0 -10 13 8 12 8 100 6 100 5
-100 1 c-55 1 -106 -1 -112 -4z"/>
<path d="M33877 51266 l6 -8 84 4 84 4 5 -8 c3 -4 10 -8 17 -8 l11 0 -13 13
-12 12 -94 0 -93 0 5 -9z"/>
<path d="M18366 51250 c-3 -14 -13 -54 -21 -90 -8 -36 -30 -105 -50 -155 -19
-49 -35 -94 -35 -99 l0 -10 9 10 c5 5 23 44 40 87 l31 78 20 91 c12 50 19 96
17 102 l-5 11 -6 -25z"/>
<path d="M34086 51231 l-6 -9 18 -4 c21 -6 42 1 42 13 l0 9 -24 0 -25 0 -5 -9z"/>
<path d="M44295 51214 c11 -3 112 -10 223 -17 l204 -12 4 6 3 6 -117 7 c-184
10 -339 15 -317 10z"/>
<path d="M42350 51115 c0 -3 15 -11 33 -19 l32 -13 35 -35 c20 -19 56 -59 82
-89 l45 -54 51 -100 51 -100 25 -80 25 -80 -14 -96 c-8 -54 -33 -166 -55 -250
l-40 -154 11 -64 c14 -90 22 -91 14 -1 l-7 75 41 160 40 160 12 87 12 87 -28
88 -27 88 -51 95 -51 95 -63 76 -64 76 -48 27 c-49 26 -61 30 -61 21z"/>
<path d="M27790 50903 l0 -10 191 -7 191 -7 6 5 c3 3 3 8 1 10 -2 3 -91 8
-197 12 l-192 7 0 -10z"/>
<path d="M5710 50822 l0 -8 173 -22 c94 -13 246 -30 337 -38 l165 -16 118 -27
117 -28 6 8 5 9 -13 5 c-7 2 -61 16 -121 30 l-107 25 -213 20 c-116 11 -261
27 -320 35 -59 8 -117 15 -127 15 l-20 0 0 -8z"/>
<path d="M33500 50822 c0 -22 131 -837 136 -841 9 -9 2 35 -61 434 -55 350
-75 457 -75 407z"/>
<path d="M59521 50693 c-5 -27 -22 -101 -36 -166 l-25 -118 10 -63 c6 -34 15
-68 20 -76 l9 -14 7 7 7 7 -11 39 -12 38 0 46 0 46 15 68 c21 93 45 194 51
216 l5 17 -14 0 -15 0 -11 -47z"/>
<path d="M34200 50638 c0 -7 13 -92 29 -188 l29 -175 20 -50 19 -50 18 -100
c10 -55 21 -104 26 -109 l9 -10 0 21 c0 12 -9 69 -20 127 l-20 104 -19 44 -19
43 -27 178 -27 177 -9 0 c-5 0 -9 -6 -9 -12z"/>
<path d="M50193 50556 c21 -54 183 -386 189 -386 4 0 -27 71 -69 158 -41 86
-84 176 -95 200 -10 23 -21 42 -25 42 l-5 0 5 -14z"/>
<path d="M31070 50495 c-258 -12 -554 -32 -576 -40 l-11 -3 -6 -51 -6 -50 7
-38 7 -38 5 85 5 85 230 16 c127 9 319 20 428 24 l197 7 0 9 c0 5 -3 8 -7 8
-5 -1 -127 -7 -273 -14z"/>
<path d="M49672 50434 l-102 -56 -11 -20 -11 -20 6 -6 6 -6 15 21 15 21 87 48
c49 26 97 53 108 61 l19 13 -14 0 c-8 0 -61 -26 -118 -56z"/>
<path d="M42677 50453 c-4 -3 -7 -16 -7 -27 0 -11 -20 -101 -45 -199 l-46
-178 13 -82 13 -82 3 25 c1 14 -1 50 -6 80 l-8 55 42 170 c39 158 57 245 50
245 -1 0 -6 -3 -9 -7z"/>
<path d="M60650 50443 l0 -8 219 -49 218 -49 13 5 13 4 -214 48 c-118 26 -222
50 -231 52 l-18 5 0 -8z"/>
<path d="M83135 50334 c-60 -48 -141 -110 -178 -139 l-68 -53 9 -6 9 -6 177
136 c157 121 194 154 169 154 -5 0 -57 -39 -118 -86z"/>
<path d="M33610 50384 c0 -22 61 -388 65 -393 3 -2 5 2 5 10 0 29 -58 381 -64
386 l-6 6 0 -9z"/>
<path d="M31685 50265 c10 -134 25 -350 25 -369 l0 -19 6 6 6 5 -12 209 -13
208 -9 15 -8 15 5 -70z"/>
<path d="M14315 50295 c11 -9 56 -43 100 -75 l80 -58 75 -21 c41 -12 83 -25
94 -28 l19 -5 -7 10 -6 10 -37 7 c-21 4 -62 15 -92 25 l-53 19 -82 59 c-44 32
-88 62 -96 66 l-15 7 20 -16z"/>
<path d="M49552 50258 l-12 -12 62 -115 c78 -147 109 -198 281 -459 l140 -213
15 15 16 15 -118 176 c-133 201 -212 331 -298 493 -33 61 -63 112 -67 112 -4
0 -12 -5 -19 -12z"/>
<path d="M50690 50066 c-418 -214 -721 -373 -734 -386 l-10 -10 6 -6 6 -5 374
193 c205 106 453 233 550 283 l178 90 0 13 c0 6 -3 12 -7 11 -5 -1 -168 -83
-363 -183z"/>
<path d="M59550 50173 c1 -10 86 -68 120 -82 14 -6 86 -24 160 -41 74 -17 143
-33 153 -36 l17 -5 0 15 0 16 -12 0 c-7 0 -82 16 -166 36 l-153 36 -49 34
c-48 33 -70 42 -70 27z"/>
<path d="M50426 50155 c4 -8 11 -15 16 -15 l10 0 -12 15 c-7 8 -14 15 -16 15
-2 0 -1 -7 2 -15z"/>
<path d="M50392 50130 c14 -22 24 -19 15 5 -4 8 -11 15 -17 15 l-10 0 12 -20z"/>
<path d="M37565 50119 c-110 -10 -211 -18 -224 -18 l-24 -1 6 -6 6 -6 218 17
c202 16 233 20 222 28 -2 2 -94 -5 -204 -14z"/>
<path d="M50470 50122 c0 -12 19 -26 26 -19 2 2 -2 10 -11 17 l-15 12 0 -10z"/>
<path d="M43220 50104 c0 -15 234 -494 242 -494 6 0 -227 488 -238 499 -2 2
-4 0 -4 -5z"/>
<path d="M25137 50001 c-98 -54 -184 -104 -190 -111 l-12 -12 25 12 c67 35
346 192 355 201 18 18 -1 8 -178 -90z"/>
<path d="M34188 50030 l-37 -38 -168 -6 c-92 -4 -196 -9 -230 -12 l-63 -6 0
-10 0 -10 58 6 c31 3 137 8 234 12 l177 6 40 38 c23 20 41 42 41 48 0 19 -12
12 -52 -28z"/>
<path d="M34280 49980 l0 -10 20 0 20 0 0 10 0 10 -20 0 -20 0 0 -10z"/>
<path d="M33333 49955 l-202 -11 -7 -7 c-4 -4 -5 -9 -3 -11 2 -2 105 3 229 10
124 7 244 13 268 13 l42 1 0 10 0 10 -62 -1 c-35 -1 -154 -7 -265 -14z"/>
<path d="M59268 49935 l-7 -7 6 -84 6 -83 -23 -141 -23 -141 10 -10 10 -10 21
133 c11 73 23 158 26 188 l6 55 -13 53 -12 54 -7 -7z"/>
<path d="M33710 49883 c0 -27 50 -387 55 -391 3 -3 5 2 5 10 0 31 -50 381 -55
386 -3 3 -5 1 -5 -5z"/>
<path d="M23235 49761 l30 -10 193 -3 192 -3 0 8 0 7 -122 0 c-68 0 -168 2
-223 5 l-100 5 30 -9z"/>
<path d="M49560 49735 l-46 -23 -89 -22 c-189 -45 -448 -101 -731 -157 l-294
-58 0 -14 0 -13 23 5 c26 6 320 63 522 102 77 14 241 51 365 81 l224 56 48 24
48 24 0 10 0 10 -12 0 c-7 -1 -33 -12 -58 -25z"/>
<path d="M43500 49627 c0 -4 39 -88 87 -188 l87 -181 4 10 c1 5 -36 88 -83
183 -84 169 -95 189 -95 176z"/>
<path d="M49788 49570 c43 -117 297 -558 482 -835 58 -88 122 -188 141 -222
l34 -63 12 0 c6 0 14 3 16 8 l5 7 -57 100 c-32 55 -102 168 -157 250 -54 83
-175 278 -267 435 -93 157 -180 299 -193 315 l-25 30 9 -25z"/>
<path d="M81704 49302 c-140 -108 -162 -128 -150 -134 7 -4 316 234 316 244 0
17 -18 5 -166 -110z"/>
<path d="M42911 49294 c12 -35 213 -443 217 -439 6 5 -195 426 -210 440 l-10
10 3 -11z"/>
<path d="M37945 49180 l-5 -9 17 -5 c10 -3 133 -32 273 -66 140 -33 263 -63
274 -66 l18 -6 -4 13 -4 12 -185 44 c-101 24 -228 55 -282 67 l-97 24 -5 -8z"/>
<path d="M63890 49160 l0 -9 43 -11 c23 -6 48 -13 56 -16 8 -2 73 -13 145 -23
l131 -19 53 5 52 6 0 8 0 9 -72 0 -73 0 -90 14 c-49 8 -119 21 -155 30 -36 9
-71 16 -77 16 l-13 0 0 -10z"/>
<path d="M37936 49121 c12 -11 995 -253 1002 -246 3 3 3 7 1 10 -8 7 -971 245
-993 245 l-20 0 10 -9z"/>
<path d="M64320 49051 c-13 -26 -13 -53 3 -74 l12 -17 0 55 c0 30 -1 55 -2 55
-1 0 -7 -9 -13 -19z"/>
<path d="M56260 48839 c59 -110 113 -206 119 -212 7 -7 -11 31 -38 83 -28 52
-79 148 -113 213 -35 64 -66 117 -69 117 -4 0 42 -90 101 -201z"/>
<path d="M56167 48930 c141 -265 165 -310 174 -316 6 -3 -3 18 -19 48 -16 29
-65 118 -107 198 -42 80 -82 150 -88 155 -5 6 13 -33 40 -85z"/>
<path d="M43170 48866 c0 -5 11 -23 24 -40 25 -33 80 -136 74 -141 -2 -1 -12
-8 -23 -14 l-20 -13 19 6 19 6 13 -11 14 -11 0 11 c0 30 -119 235 -120 207z"/>
<path d="M91439 48708 c-68 -78 -153 -178 -188 -223 -35 -44 -124 -141 -198
-216 -73 -75 -133 -141 -133 -145 0 -5 54 45 121 111 l121 120 81 100 c73 91
242 288 305 357 14 15 23 30 20 33 -2 3 -61 -59 -129 -137z"/>
<path d="M15705 48750 c-49 -9 -115 -24 -145 -33 -30 -8 -75 -21 -99 -27 -23
-6 -41 -13 -38 -16 2 -3 45 6 93 20 119 33 245 56 307 56 57 0 59 5 7 12 l-35
5 -90 -17z"/>
<path d="M80831 48630 c-106 -60 -198 -113 -204 -119 l-11 -11 7 -6 6 -6 210
117 211 117 0 9 0 9 -12 -1 c-7 0 -100 -49 -207 -109z"/>
<path d="M34470 48630 l0 -10 13 0 c6 0 19 5 27 10 l15 10 -27 0 -28 0 0 -10z"/>
<path d="M43197 48633 c-4 -3 -7 -14 -7 -23 l0 -18 15 -12 15 -12 0 10 c0 6
-5 14 -10 17 l-11 7 6 19 c7 20 3 24 -8 12z"/>
<path d="M33885 48604 c-214 -12 -406 -24 -425 -25 l-35 -2 26 -4 c32 -5 961
45 968 52 8 8 -131 3 -534 -21z"/>
<path d="M34822 48615 l-223 -13 -7 -7 -7 -8 90 6 c50 4 156 9 238 13 l147 7
0 8 c0 5 -3 8 -7 8 -5 -1 -108 -7 -231 -14z"/>
<path d="M43286 48584 c-11 -8 -29 -14 -40 -14 l-20 0 10 -10 11 -11 25 10
c25 9 44 28 36 36 -1 2 -12 -3 -22 -11z"/>
<path d="M33901 48559 c0 -15 33 -267 74 -560 l75 -534 21 -95 c12 -52 26 -99
31 -105 l10 -10 -5 20 c-26 90 -50 235 -122 735 -45 316 -83 563 -84 549z"/>
<path d="M41290 48535 l0 -25 10 0 10 0 0 25 0 25 -10 0 -10 0 0 -25z"/>
<path d="M41465 48490 l-6 -10 6 -10 7 -11 14 12 14 11 -6 9 c-7 12 -21 11
-29 -1z"/>
<path d="M41326 48461 l-6 -8 26 -77 26 -76 14 0 c19 0 18 2 -12 92 l-26 78
-8 0 c-5 0 -11 -4 -14 -9z"/>
<path d="M50853 48332 l-12 -7 47 -75 46 -75 97 -210 97 -210 22 -75 c12 -41
35 -104 52 -139 l29 -64 15 15 15 15 -24 54 c-14 30 -35 88 -47 129 -48 161
-288 651 -318 650 -4 0 -12 -4 -19 -8z"/>
<path d="M32833 48245 c3 -11 22 -131 44 -267 l38 -248 8 0 8 0 -5 18 c-3 9
-21 125 -42 257 l-37 240 -10 10 -9 10 5 -20z"/>
<path d="M37843 48107 l-193 -9 0 -10 0 -9 18 5 c9 2 105 8 213 11 l197 7 13
9 14 9 -35 -2 c-19 -1 -122 -6 -227 -11z"/>
<path d="M44145 48075 l-50 -43 -218 -123 -218 -122 10 -10 9 -9 219 124 220
124 49 42 49 41 -10 10 -10 9 -50 -43z"/>
<path d="M36893 48096 l-161 -11 -9 -8 -8 -9 60 6 c33 3 137 11 230 17 94 6
172 13 174 15 7 6 -107 2 -286 -10z"/>
<path d="M29385 47975 c3 -49 8 -143 11 -207 l6 -118 7 0 6 0 -8 167 c-4 93
-12 186 -17 208 l-9 40 4 -90z"/>
<path d="M33951 47880 l26 -180 8 -8 8 -7 -6 35 c-3 19 -16 104 -28 188 -13
83 -25 152 -29 152 -3 0 6 -81 21 -180z"/>
<path d="M74981 48054 c13 -38 165 -344 170 -344 9 0 -148 330 -163 345 l-10
10 3 -11z"/>
<path d="M47068 47886 c-136 -66 -247 -124 -248 -128 0 -3 110 47 244 113
l244 119 24 0 23 0 120 -45 c65 -24 121 -42 124 -40 2 3 2 7 0 9 -9 8 -226 83
-254 88 l-30 5 -247 -121z"/>
<path d="M53848 47864 c-115 -57 -208 -106 -208 -109 0 -3 95 42 210 100 116
58 210 107 210 110 0 7 16 14 -212 -101z"/>
<path d="M75802 47790 c-112 -16 -206 -31 -209 -34 l-6 -6 7 -7 6 -7 173 23
c94 12 189 25 210 28 l37 6 0 13 c0 8 -3 13 -7 13 -5 -1 -99 -14 -211 -29z"/>
<path d="M53578 47776 l-38 -21 0 -17 c0 -10 31 -80 69 -155 80 -163 103 -203
114 -203 l9 0 -22 36 c-27 42 -144 280 -154 309 l-6 20 35 19 c19 11 35 23 35
28 0 4 -1 8 -2 7 -2 -1 -20 -11 -40 -23z"/>
<path d="M90609 47741 c-8 -11 -141 -164 -297 -340 -155 -177 -279 -321 -274
-321 7 0 459 508 576 648 l28 32 -10 0 c-5 0 -16 -9 -23 -19z"/>
<path d="M41543 47588 c10 -35 25 -81 33 -103 l14 -40 31 -38 31 -37 8 5 8 5
-34 51 -34 51 -15 57 c-9 31 -19 67 -23 81 l-7 25 -16 3 -16 3 20 -63z"/>
<path d="M74831 47608 c0 -7 4 -22 9 -33 l9 -20 0 27 1 27 -10 6 -10 6 1 -13z"/>
<path d="M56472 47257 c-222 -109 -401 -201 -399 -203 3 -4 796 382 806 392
22 21 -60 -17 -407 -189z"/>
<path d="M41707 47353 l-7 -6 14 -16 c18 -21 36 -77 36 -112 0 -16 3 -29 6
-29 3 0 26 17 52 39 l47 38 63 13 62 13 0 8 0 9 -20 0 c-10 0 -43 -5 -72 -11
l-53 -12 -31 -24 -31 -23 -7 38 -6 38 -23 22 -23 22 -7 -7z"/>
<path d="M35881 46919 c0 -25 2 -101 6 -167 l6 -122 6 0 6 0 -3 83 c-2 45 -7
120 -11 167 l-8 85 -2 -46z"/>
<path d="M21665 46770 c-71 -26 -169 -66 -217 -89 l-88 -41 0 -10 c0 -16 17
-12 98 26 42 20 142 60 222 89 l144 53 4 11 4 11 -19 -1 c-10 0 -76 -22 -148
-49z"/>
<path d="M89630 46726 l-85 -11 3 -15 c1 -8 17 -50 33 -92 l31 -78 10 0 10 0
-9 13 c-11 14 -63 143 -63 156 l0 9 88 8 c48 4 90 7 95 6 4 -1 7 3 7 8 l0 10
-17 -1 c-10 -1 -56 -7 -103 -13z"/>
<path d="M54976 46554 c-114 -58 -206 -107 -203 -110 5 -6 427 203 427 211 0
10 -21 1 -224 -101z"/>
<path d="M49870 46625 c0 -8 1 -15 3 -15 1 0 17 -4 35 -9 l32 -10 0 9 c0 7
-55 40 -67 40 -1 0 -3 -7 -3 -15z"/>
<path d="M57460 46622 c0 -4 13 -13 29 -20 16 -7 41 -22 55 -33 l26 -20 11
-40 12 -40 11 4 11 4 -4 29 -3 29 -20 28 -20 27 -38 20 c-40 21 -70 26 -70 12z"/>
<path d="M54796 46419 c-219 -110 -396 -202 -393 -205 3 -3 189 87 413 200
225 113 402 205 394 205 -8 0 -194 -90 -414 -200z"/>
<path d="M80704 46573 c2 -10 14 -54 26 -98 12 -44 23 -86 26 -93 l4 -13 9 5
8 6 -18 67 c-11 38 -24 85 -30 106 l-10 37 -10 0 -10 0 5 -17z"/>
<path d="M34578 46543 l-38 -4 0 -10 0 -9 73 0 c39 0 89 3 110 6 l37 7 0 8 0
9 -72 -2 c-40 -1 -90 -3 -110 -5z"/>
<path d="M36558 46543 l-38 -4 0 -16 0 -16 53 7 c28 3 105 6 170 6 l117 0 0
15 0 15 -132 -2 c-73 -1 -150 -3 -170 -5z"/>
<path d="M51639 46444 l18 -57 16 -3 15 -2 -15 43 -14 43 -19 17 -18 17 17
-58z"/>
<path d="M51993 46468 c18 -50 382 -809 384 -801 3 9 -370 800 -383 811 l-7 7
6 -17z"/>
<path d="M34693 46378 c3 -24 11 -105 18 -180 l13 -138 8 0 8 0 0 33 c0 17 -7
95 -15 172 -8 77 -15 143 -15 148 0 4 -5 7 -11 7 l-12 0 6 -42z"/>
<path d="M51776 46403 c-3 -10 -12 -56 -21 -102 l-15 -84 5 -21 c11 -37 189
-408 192 -399 2 5 -37 93 -87 196 l-90 188 0 38 c0 22 7 73 16 116 9 42 14 79
11 82 -3 2 -8 -4 -11 -14z"/>
<path d="M50828 46308 c125 -229 237 -438 291 -543 l61 -120 17 -69 17 -70
-17 -80 c-9 -45 -20 -92 -23 -106 l-5 -25 9 15 c5 8 17 47 26 87 l16 72 0 49
0 48 -16 47 c-14 42 -230 464 -350 684 l-46 83 -10 0 -9 0 39 -72z"/>
<path d="M34442 46265 l-1 -110 12 -152 12 -152 9 -8 8 -8 -6 50 c-6 56 -25
324 -29 425 l-3 65 -2 -110z"/>
<path d="M46186 46343 c-11 -34 -75 -348 -85 -418 -6 -38 -14 -81 -17 -95 l-5
-25 9 10 9 10 13 80 c6 44 29 163 51 264 21 102 37 187 35 189 -2 2 -7 -5 -10
-15z"/>
<path d="M30768 46283 l-58 -4 0 -11 0 -11 173 6 c94 4 198 7 230 7 l57 0 0
10 0 10 -172 -2 c-95 -1 -199 -3 -230 -5z"/>
<path d="M30697 46095 c3 -82 9 -170 14 -195 l7 -45 -5 150 c-3 83 -9 170 -14
195 l-7 45 5 -150z"/>
<path d="M93091 46095 l15 -15 75 -13 76 -14 24 -16 23 -17 51 0 50 0 63 32
c34 18 62 35 62 39 0 4 -26 -6 -58 -22 l-58 -30 -40 -6 -41 -5 -43 22 -43 22
-66 9 -66 10 -9 9 c-6 6 -15 10 -20 10 l-10 0 15 -15z"/>
<path d="M93042 46050 l-22 -28 -83 -32 -82 -31 -29 5 -29 6 -94 -6 -93 -7 0
-10 0 -9 17 6 c9 4 70 7 137 7 l120 1 65 25 66 26 28 25 27 26 33 -12 c19 -7
47 -12 63 -12 l29 0 53 -25 54 -25 54 0 54 0 71 36 c39 19 69 38 66 40 -3 3
-33 -9 -67 -26 l-62 -31 -47 -6 -47 -5 -52 26 -51 26 -39 0 -38 0 -39 20 c-22
11 -39 20 -40 19 0 0 -10 -13 -23 -29z"/>
<path d="M42596 45918 c-3 -68 -7 -174 -9 -235 l-2 -113 6 0 6 0 7 231 c7 245
2 324 -8 117z"/>
<path d="M81370 45886 c-4 -13 -14 -43 -20 -67 -6 -24 -20 -66 -32 -94 l-21
-50 -16 -12 -16 -12 10 -1 c31 0 54 45 90 178 21 80 24 107 5 58z"/>
<path d="M46125 45820 c11 -5 87 -21 170 -35 l150 -27 72 7 c65 6 144 22 118
24 -5 0 -51 -4 -101 -9 l-92 -10 -163 30 c-175 32 -185 33 -154 20z"/>
<path d="M46102 45784 c10 -9 240 -52 315 -59 l68 -6 80 15 80 15 -70 -7 c-38
-4 -101 -6 -139 -4 l-68 2 -127 25 c-69 14 -130 25 -135 25 l-9 0 5 -6z"/>
<path d="M36367 45769 l-169 -7 -6 -7 -7 -7 195 7 c107 4 222 11 255 15 l60 7
-80 0 c-44 0 -156 -4 -248 -8z"/>
<path d="M81248 45621 l4 -39 -11 -20 -11 -21 9 -5 9 -6 11 32 11 32 -6 33
c-3 18 -9 33 -13 33 l-7 0 4 -39z"/>
<path d="M45715 45283 c7 -29 21 -43 43 -43 l12 0 0 10 c0 6 -5 10 -10 10
l-10 0 -12 25 c-6 14 -15 25 -21 25 l-9 0 7 -27z"/>
<path d="M44290 45254 c-19 -8 -55 -20 -80 -26 l-45 -11 -125 -7 -125 -7 115
-1 115 -2 63 15 c35 8 80 24 100 35 44 23 32 26 -18 4z"/>
<path d="M54757 45243 c-4 -3 -7 -22 -7 -42 l0 -36 13 -24 12 -25 32 -19 33
-19 37 7 c21 3 47 13 57 21 l20 14 -10 10 -11 11 -13 -16 -12 -15 -40 0 -40 0
-30 30 -30 31 6 39 6 40 -8 0 c-5 0 -12 -3 -15 -7z"/>
<path d="M35158 45069 c-101 -89 -185 -163 -187 -165 -2 -2 0 -4 6 -4 6 0 94
74 197 165 103 91 182 165 177 165 -5 0 -92 -73 -193 -161z"/>
<path d="M79415 44794 c-132 -213 -242 -394 -243 -403 l-4 -16 15 15 c15 15
475 753 484 777 l5 13 -9 0 c-4 0 -116 -174 -248 -386z"/>
<path d="M15418 44939 l4 -172 9 -21 10 -21 -6 85 c-3 47 -5 133 -5 193 l0
107 -7 0 -8 0 3 -171z"/>
<path d="M54850 45061 c0 -14 50 -51 68 -51 l16 0 -34 30 c-37 31 -50 36 -50
21z"/>
<path d="M55658 44507 c-164 -83 -298 -155 -298 -159 0 -4 137 63 305 148
l304 155 61 -121 c34 -67 63 -120 66 -117 3 3 -22 59 -55 126 l-61 121 -13 0
c-6 0 -146 -69 -309 -153z"/>
<path d="M25285 44560 l39 -40 65 -21 66 -22 325 12 c178 7 327 14 329 17 7 6
-537 -5 -593 -12 l-39 -5 -66 22 -66 21 -35 34 -36 34 -14 0 -14 0 39 -40z"/>
<path d="M53841 44565 c-2 -17 140 -320 161 -346 25 -30 25 -30 -50 126 -99
208 -111 231 -111 220z"/>
<path d="M55562 44414 c-101 -53 -181 -98 -179 -100 2 -3 91 40 198 96 107 55
187 100 179 99 -8 0 -97 -43 -198 -95z"/>
<path d="M58441 44453 c-12 -8 -21 -19 -21 -24 l0 -10 19 11 c11 5 29 10 40
10 l21 0 0 9 c0 5 -9 11 -19 14 l-20 5 -20 -15z"/>
<path d="M58397 44403 c-10 -9 -9 -23 2 -23 5 0 11 7 15 15 l5 15 -8 0 c-4 0
-11 -3 -14 -7z"/>
<path d="M26556 44380 c16 -16 395 -191 406 -188 l10 4 -203 97 c-112 53 -208
97 -214 97 l-9 0 10 -10z"/>
<path d="M26546 44341 c17 -15 396 -192 401 -187 3 3 -10 11 -28 19 -19 8
-109 51 -202 96 -162 78 -192 91 -171 72z"/>
<path d="M87775 44195 l-38 -85 18 -20 c10 -11 42 -58 72 -103 l52 -82 1 13
c0 7 -27 53 -60 104 -33 50 -60 94 -60 99 0 4 15 42 34 83 l35 76 -8 0 c-5 0
-25 -38 -46 -85z"/>
<path d="M41602 44248 c-7 -7 -12 -16 -12 -22 l0 -10 12 12 12 12 21 0 20 0
-15 10 c-19 13 -24 12 -38 -2z"/>
<path d="M40566 44234 c-3 -8 -22 -149 -41 -312 l-35 -297 5 -30 c4 -16 11
-43 18 -60 12 -34 76 -115 90 -115 l9 0 -32 36 -32 37 -19 44 -19 45 0 48 c0
65 58 558 70 593 l9 27 -8 0 c-5 0 -12 -7 -15 -16z"/>
<path d="M57930 44114 c-102 -53 -189 -101 -195 -106 l-10 -10 10 3 c18 7 370
188 385 199 l15 10 -10 0 c-5 0 -93 -43 -195 -96z"/>
<path d="M28440 44078 c8 -8 80 -54 160 -103 80 -48 168 -104 195 -123 l50
-35 -24 26 -23 26 -176 108 c-97 59 -181 110 -186 112 l-11 3 15 -14z"/>
<path d="M49505 44052 c28 -16 84 -51 125 -78 l75 -49 93 1 94 2 11 12 12 11
-45 -6 c-25 -3 -59 -8 -77 -11 l-31 -5 -39 14 c-21 8 -81 41 -133 75 l-94 62
-21 0 -20 0 50 -28z"/>
<path d="M8540 43924 c1 -69 29 -437 34 -441 l6 -6 0 19 c-1 61 -30 437 -34
442 l-6 5 0 -19z"/>
<path d="M34612 43850 l-1 -65 -25 -129 c-14 -71 -24 -131 -22 -133 6 -7 13
21 42 174 l26 142 -10 38 -10 38 0 -65z"/>
<path d="M52668 43893 c-22 -5 -23 -22 -2 -30 l15 -6 12 12 11 11 -9 8 -10 9
-17 -4z"/>
<path d="M87942 43728 c56 -90 108 -175 117 -190 9 -16 20 -28 24 -28 l8 0 -7
13 c-57 98 -229 367 -235 367 -4 0 37 -73 93 -162z"/>
<path d="M52247 43520 c-32 -4 -61 -11 -65 -15 l-7 -7 56 7 c31 4 73 7 94 8
l38 1 24 -29 c27 -33 81 -143 93 -190 l8 -30 1 28 1 28 -34 72 c-19 40 -45 85
-58 100 l-23 28 -35 3 c-19 3 -61 1 -93 -4z"/>
<path d="M74315 43509 c-71 -10 -150 -21 -173 -24 -24 -4 -42 -9 -39 -12 3 -2
82 6 177 18 l171 23 10 -15 c5 -7 9 -30 10 -49 0 -19 4 -44 9 -55 l9 -20 -6
65 -6 65 -10 13 c-5 6 -12 11 -16 11 -3 -1 -64 -10 -136 -20z"/>
<path d="M50768 43265 c-31 -8 -202 -55 -380 -106 l-323 -91 -10 -10 -10 -11
15 5 c63 22 682 195 745 209 l80 17 -30 0 c-16 0 -55 -6 -87 -13z"/>
<path d="M52433 43257 l-8 -15 -174 -86 -173 -87 6 -6 6 -6 175 86 175 86 6
16 c8 21 -2 30 -13 12z"/>
<path d="M76123 43171 c-184 -25 -225 -33 -212 -45 2 -2 101 9 219 25 118 16
223 28 233 29 l18 0 -6 10 -6 10 -22 -1 c-12 -1 -113 -14 -224 -28z"/>
<path d="M11180 43156 c-12 -33 -13 -46 -1 -46 l9 0 6 32 c8 40 0 49 -14 14z"/>
<path d="M11227 43173 c-2 -4 -7 -20 -11 -35 l-6 -28 9 0 9 0 7 31 c7 29 2 49
-8 32z"/>
<path d="M71960 43146 l-215 -31 25 -3 c29 -3 439 54 448 62 l5 6 -24 -1 c-13
-1 -121 -15 -239 -33z"/>
<path d="M20326 42919 c-153 -18 -175 -23 -164 -34 6 -6 449 43 456 50 11 10
-139 2 -292 -16z"/>
<path d="M20351 42866 l-184 -21 -5 -12 -4 -13 9 0 c4 0 105 11 223 25 118 14
221 25 228 25 l13 0 -6 10 -6 10 -42 -1 c-23 -1 -125 -11 -226 -23z"/>
<path d="M60170 42865 c0 -9 5 -25 10 -36 l11 -19 29 -15 30 -15 25 6 25 6 -6
9 -6 10 -16 -5 -17 -6 -33 20 -32 20 0 14 c0 8 -4 18 -10 21 l-10 6 0 -16z"/>
<path d="M27390 42690 l-45 -6 -41 -22 -41 -21 -65 -70 -66 -71 -5 -20 -5 -20
9 0 c4 0 14 10 20 23 7 12 40 51 73 86 l61 63 40 20 39 21 83 -6 83 -5 0 8 0
8 -32 7 c-18 4 -40 8 -48 9 -8 2 -35 0 -60 -4z"/>
<path d="M31730 42459 l-205 -206 -80 -56 -80 -55 -46 -49 -46 -48 -186 -261
-186 -261 -49 -44 c-27 -24 -86 -71 -130 -104 -45 -33 -81 -64 -82 -69 l0 -8
15 6 c26 10 209 153 246 193 20 21 120 155 222 298 l185 260 44 41 c23 22 70
60 103 84 92 66 170 134 278 239 101 98 211 226 205 239 -2 4 -95 -86 -208
-199z"/>
<path d="M51208 42536 l-166 -21 -8 -8 -8 -8 39 6 c22 3 111 14 199 25 87 11
161 22 164 25 8 8 -40 4 -220 -19z"/>
<path d="M30050 42476 c0 -2 7 -23 16 -47 24 -67 34 -147 43 -354 l9 -190 13
-30 c19 -43 210 -271 334 -400 59 -60 103 -103 99 -95 -4 8 -56 67 -115 130
-132 142 -274 313 -299 361 l-19 36 -6 149 c-3 82 -11 190 -16 239 l-11 90
-20 58 c-18 48 -28 68 -28 53z"/>
<path d="M39633 42397 c-11 -12 -34 -46 -52 -76 l-33 -54 -4 -51 -5 -51 9 -60
10 -60 -2 100 -1 100 34 60 c18 33 43 70 54 82 11 13 18 25 15 28 -2 3 -14 -5
-25 -18z"/>
<path d="M45928 42262 c-87 -48 -159 -92 -162 -98 -2 -6 -1 -35 4 -65 l8 -54
1 60 1 60 160 88 c88 49 160 90 160 93 0 10 -23 -1 -172 -84z"/>
<path d="M61075 42260 l-5 -9 191 -130 c105 -72 195 -131 201 -131 l9 0 -6 10
c-3 5 -91 68 -195 139 l-190 129 -5 -8z"/>
<path d="M69565 42203 c-225 -35 -412 -66 -414 -69 -15 -15 51 -7 442 54 l437
67 0 8 0 7 -27 -1 c-16 0 -212 -30 -438 -66z"/>
<path d="M69120 42195 c-234 -34 -531 -77 -660 -94 -129 -17 -518 -69 -864
-116 -345 -46 -631 -87 -634 -90 -3 -3 -3 -7 -1 -9 2 -3 187 19 409 49 223 30
511 68 640 85 517 68 692 92 1085 149 226 34 425 63 443 66 l32 6 0 9 0 10
-12 -1 c-7 -1 -204 -30 -438 -64z"/>
<path d="M47155 42120 c-22 -16 -43 -29 -46 -30 -4 0 -170 -69 -370 -153
l-364 -154 -207 -73 c-115 -41 -208 -77 -208 -81 0 -3 100 29 223 73 l222 79
335 141 c184 77 363 155 398 174 l62 35 0 9 c0 13 1 14 -45 -20z"/>
<path d="M51470 42124 c0 -29 51 -429 55 -433 3 -2 5 4 5 15 -1 41 -48 416
-54 421 l-6 6 0 -9z"/>
<path d="M51515 42048 c7 -46 20 -145 30 -220 l18 -138 7 0 6 0 -28 203 c-15
111 -28 210 -28 220 l0 17 -8 0 -9 0 12 -82z"/>
<path d="M31042 41812 l-169 -237 -54 -50 c-30 -28 -89 -77 -131 -109 -69 -52
-92 -76 -72 -76 11 0 210 159 245 197 20 21 111 142 202 270 l166 232 -8 6 -9
5 -170 -238z"/>
<path d="M66803 41834 l0 -47 14 19 13 18 -5 14 c-3 8 -5 20 -5 28 l0 14 -9 0
-9 0 1 -46z"/>
<path d="M66650 41830 l0 -20 10 0 10 0 0 20 0 20 -10 0 -10 0 0 -20z"/>
<path d="M30340 41664 c0 -12 249 -287 264 -293 l11 -4 -20 24 c-12 13 -70 78
-130 144 -60 66 -113 124 -117 130 l-8 9 0 -10z"/>
<path d="M93332 41531 c-105 -76 -188 -141 -185 -144 4 -5 350 237 383 269
l14 14 -10 0 c-6 0 -97 -63 -202 -139z"/>
<path d="M82726 41652 l-4 -7 66 -105 c36 -58 142 -231 236 -385 93 -154 222
-366 286 -472 l116 -191 11 6 12 7 -193 320 c-106 176 -210 348 -232 382 -21
34 -94 150 -162 257 -68 108 -125 196 -127 196 -2 0 -6 -3 -9 -8z"/>
<path d="M57597 41397 l-49 -42 -151 -5 -152 -5 111 -8 112 -9 43 7 44 7 55
49 c30 27 51 49 45 48 -5 0 -32 -19 -58 -42z"/>
<path d="M56040 41351 l0 -11 162 0 c89 0 159 2 157 4 -2 2 -75 7 -161 11
l-158 7 0 -11z"/>
<path d="M56744 41311 c-2 -2 1 -9 6 -16 l10 -12 3 -189 2 -189 3 198 2 197
243 2 c133 1 213 3 177 5 -118 5 -442 8 -446 4z"/>
<path d="M28446 41177 l-7 -43 10 -69 10 -69 44 -90 44 -91 85 -115 86 -115
52 -97 52 -98 9 0 c14 0 13 1 -51 119 l-59 111 -74 98 -74 97 -36 70 c-20 39
-46 97 -58 129 l-22 59 7 74 6 73 -9 0 -9 0 -6 -43z"/>
<path d="M28485 41193 c13 -13 84 -31 170 -43 l70 -10 118 0 117 0 0 10 0 10
-107 0 -108 1 -100 14 c-55 8 -116 18 -135 21 l-35 6 10 -9z"/>
<path d="M63150 41070 c0 -14 35 -30 64 -30 l26 0 0 10 0 10 -29 0 -30 0 -6
10 c-8 13 -25 13 -25 0z"/>
<path d="M30108 40980 l-108 -78 -62 -15 c-35 -9 -75 -19 -90 -22 l-28 -5 0
-9 0 -8 53 9 c28 5 74 16 102 25 l49 16 96 70 c52 38 99 73 103 77 l9 8 -9 5
-8 5 -107 -78z"/>
<path d="M58845 41040 l240 -5 15 -8 15 -8 -19 15 -20 16 -235 -2 -236 -2 240
-6z"/>
<path d="M30139 40935 l-95 -73 -84 -27 -84 -26 -97 -1 -97 0 -59 32 c-32 19
-74 45 -93 60 -19 14 -58 43 -87 63 l-51 38 -6 -9 -5 -9 97 -70 c53 -39 122
-83 152 -99 l55 -28 100 1 100 2 87 29 87 30 100 77 c56 41 101 78 101 80 0
16 -37 -5 -121 -70z"/>
<path d="M63660 40872 l0 -8 210 -73 209 -73 13 5 13 5 -15 6 c-44 17 -415
146 -422 146 -4 0 -8 -4 -8 -8z"/>
<path d="M83430 40816 c0 -10 223 -381 238 -396 20 -20 22 -25 -108 198 -99
169 -130 217 -130 198z"/>
<path d="M53373 40548 c-17 -24 -38 -61 -48 -83 l-17 -40 -33 -183 -32 -183
11 4 10 3 28 160 27 159 22 55 c12 30 35 73 51 94 15 22 28 44 28 48 0 19 -19
5 -47 -34z"/>
<path d="M47795 40490 l-29 -30 12 -12 12 -12 31 31 31 31 -6 11 c-11 17 -20
14 -51 -19z"/>
<path d="M66008 40090 c-21 -51 -22 -54 -9 -58 l10 -3 14 28 c8 15 18 38 21
51 l7 22 -13 0 -13 0 -17 -40z"/>
<path d="M65810 40080 c13 -23 20 -26 20 -6 l0 14 -15 6 -15 6 10 -20z"/>
<path d="M65960 40030 c0 -5 5 -10 11 -10 l10 0 -6 10 c-3 6 -8 10 -11 10 -2
0 -4 -4 -4 -10z"/>
<path d="M84780 39956 c0 -4 39 -65 87 -134 47 -70 165 -257 261 -417 191
-317 180 -300 186 -294 11 10 -472 784 -525 844 l-9 9 0 -8z"/>
<path d="M43455 39643 c-213 -76 -222 -80 -214 -87 5 -5 436 148 446 158 l6 6
-14 -1 c-8 0 -108 -34 -224 -76z"/>
<path d="M65676 39504 l-28 -137 -28 -331 c-15 -182 -26 -333 -24 -335 2 -2 7
-1 11 2 l6 7 28 338 28 337 26 114 c27 123 29 141 17 141 l-7 0 -29 -136z"/>
<path d="M68384 39396 c-32 -14 -50 -33 -41 -42 3 -3 20 4 38 15 l33 20 26 -6
c33 -8 51 -22 64 -53 6 -14 22 -41 35 -61 l24 -35 114 -74 113 -74 128 -113
c174 -155 296 -292 323 -360 l9 -23 10 0 c5 0 10 3 10 8 0 18 -55 100 -113
169 l-62 74 -144 130 -144 130 -116 76 c-125 82 -130 87 -161 150 l-20 42 -22
15 c-13 8 -34 17 -48 20 l-25 6 -31 -14z"/>
<path d="M51571 39116 c5 -5 423 -96 440 -96 34 0 -16 13 -205 55 -193 42
-246 51 -235 41z"/>
<path d="M51576 39089 c-3 -8 -26 -94 -51 -193 -26 -98 -49 -186 -52 -195 l-6
-16 10 10 11 10 51 194 c28 107 49 197 46 199 -2 3 -7 -1 -9 -9z"/>
<path d="M52460 38941 l0 -9 23 -5 c12 -3 110 -21 217 -41 107 -20 283 -52
390 -72 107 -19 206 -37 220 -40 l25 -4 -20 10 c-11 5 -105 26 -210 46 -396
74 -601 114 -622 119 l-23 5 0 -9z"/>
<path d="M68910 38912 c0 -5 37 -42 82 -82 l81 -74 59 -79 c32 -43 62 -86 67
-95 l9 -17 7 7 7 6 -12 23 c-7 12 -32 49 -56 82 l-44 59 -94 89 c-91 87 -106
98 -106 81z"/>
<path d="M55672 38835 l3 -15 184 -120 185 -120 8 13 7 12 -187 122 c-103 68
-191 123 -195 123 l-8 0 3 -15z"/>
<path d="M53775 38652 l10 -10 170 -31 c94 -18 179 -35 190 -38 l20 -5 -10 10
-10 10 -170 31 c-93 18 -179 35 -190 38 l-20 5 10 -10z"/>
<path d="M60290 38450 c0 -5 5 -10 10 -10 l10 0 0 -16 0 -15 -47 -67 c-26 -37
-87 -110 -135 -162 -48 -52 -84 -97 -81 -100 8 -8 158 157 223 248 l60 82 0
15 0 14 -20 11 -20 11 0 -11z"/>
<path d="M60361 37803 c1 -10 262 -253 292 -272 25 -15 -200 205 -255 250 -21
17 -38 27 -37 22z"/>
<path d="M85129 37753 c0 -16 -4 -66 -8 -112 l-8 -84 43 -70 c24 -39 44 -65
44 -59 0 7 -16 38 -36 69 l-36 57 7 113 7 113 -6 0 c-3 0 -6 -12 -7 -27z"/>
<path d="M91187 37658 c6 -35 20 -58 34 -58 l8 0 -15 28 c-7 15 -14 35 -14 45
l0 17 -10 0 -9 0 6 -32z"/>
<path d="M89762 37528 c25 -35 75 -107 112 -160 l67 -98 11 0 10 0 -24 33
c-13 17 -64 89 -112 160 l-87 127 -11 0 -10 0 44 -62z"/>
<path d="M580 37384 l0 -20 20 -22 c12 -12 26 -22 32 -22 l11 0 -20 23 c-11
12 -25 31 -31 42 l-11 20 -1 -21z"/>
<path d="M33730 37291 c0 -12 68 -71 82 -71 l12 0 -42 40 c-42 41 -52 47 -52
31z"/>
<path d="M40545 36603 c-214 -46 -397 -86 -405 -89 l-15 -6 10 -4 c6 -2 187
34 404 81 217 46 398 82 402 80 3 -3 10 -30 14 -61 4 -32 11 -67 16 -78 l10
-21 -6 63 c-2 34 -7 73 -11 87 l-6 24 -11 4 -12 4 -390 -84z"/>
<path d="M29931 36140 l-73 -211 6 -6 c3 -4 8 -4 10 -2 6 6 146 410 146 420 0
5 -3 9 -7 9 l-8 0 -74 -210z"/>
<path d="M39857 36140 c3 -80 9 -190 13 -245 l8 -100 -5 225 -6 225 -8 20 -8
20 6 -145z"/>
<path d="M72586 36042 l-6 -10 88 -83 87 -84 65 -92 65 -92 13 -1 14 0 -35 48
c-19 26 -54 74 -78 107 l-44 60 -81 78 -82 78 -6 -9z"/>
<path d="M84840 35610 c-54 -36 -42 -40 15 -5 l40 24 40 0 40 0 26 -22 26 -22
53 -95 c29 -52 82 -136 119 -185 36 -50 100 -146 140 -213 41 -67 76 -120 79
-118 7 7 -141 247 -213 346 -34 47 -86 128 -115 180 l-52 95 -27 22 -26 22
-50 1 -50 0 -45 -30z"/>
<path d="M84915 35602 c-30 -10 -85 -45 -85 -55 l0 -8 13 7 c6 4 24 16 39 26
l26 18 26 0 26 0 20 -20 c11 -11 33 -45 49 -77 16 -32 60 -101 98 -153 38 -52
110 -161 159 -242 49 -82 92 -148 96 -148 11 0 -187 322 -252 410 -30 41 -72
108 -93 147 l-38 72 -22 16 c-23 16 -30 17 -62 7z"/>
<path d="M86660 35250 c0 -5 4 -10 9 -10 6 0 13 5 16 10 l6 10 -15 0 -16 0 0
-10z"/>
<path d="M75610 34561 c-117 -52 -277 -137 -285 -152 l-6 -9 6 0 c4 0 49 24
100 54 52 29 107 58 122 64 15 5 65 26 109 45 l82 35 28 -30 c52 -54 344 -310
344 -300 0 5 -62 63 -137 130 -76 66 -158 141 -183 166 l-44 46 -16 -1 c-8 0
-62 -22 -120 -48z"/>
<path d="M85441 34468 l-195 -122 12 -4 12 -4 190 118 c167 104 210 135 183
134 -5 -1 -96 -55 -202 -122z"/>
<path d="M82858 34275 c-211 -140 -377 -255 -370 -255 6 0 184 115 395 255
210 140 377 255 370 255 -6 0 -184 -115 -395 -255z"/>
<path d="M69273 34363 c64 -2 170 -2 235 0 l117 3 -235 0 -235 0 118 -3z"/>
<path d="M53978 34061 c-103 -14 -190 -29 -194 -34 l-8 -7 30 5 c16 3 114 16
218 30 104 14 192 27 194 30 9 9 -51 3 -240 -24z"/>
<path d="M65591 34036 c18 -16 335 -208 363 -220 l36 -15 0 9 c0 4 -13 12 -28
18 -16 5 -101 55 -190 111 -89 55 -167 101 -174 101 -6 0 -9 -2 -7 -4z"/>
<path d="M34894 33943 c56 -109 179 -330 188 -338 l11 -10 -4 12 c-9 29 -195
363 -202 363 l-8 0 15 -27z"/>
<path d="M64595 33220 l-6 -9 23 -14 c13 -8 160 -93 328 -190 168 -96 332
-190 365 -210 l60 -36 9 10 c5 5 8 10 5 12 -2 2 -164 95 -359 207 -195 111
-367 211 -382 221 -30 22 -35 23 -43 9z"/>
<path d="M2020 33032 l0 -9 183 -12 c100 -7 202 -14 227 -17 l45 -5 -15 9 -15
9 -190 12 c-104 7 -200 14 -212 17 l-23 4 0 -8z"/>
<path d="M76345 32659 c-110 -15 -203 -28 -207 -28 -5 -1 -8 -8 -8 -16 l0 -16
33 5 c49 9 412 56 425 56 l12 0 0 15 0 15 -27 -1 c-16 -1 -118 -14 -228 -30z"/>
<path d="M79411 32686 c7 -7 362 -146 373 -146 l9 0 -6 7 c-11 11 -185 83
-276 114 -80 27 -110 35 -100 25z"/>
<path d="M31720 32350 c-96 -49 -170 -89 -165 -90 15 -1 354 164 355 173 0 13
-12 7 -190 -83z"/>
<path d="M72991 32338 c1 -7 5 -24 9 -38 l8 -25 1 32 1 32 -10 6 -10 6 1 -13z"/>
<path d="M73560 32290 c-137 -16 -395 -50 -487 -66 l-33 -5 0 -15 0 -14 23 5
c69 15 226 36 407 54 113 12 220 23 238 26 l32 6 0 14 0 15 -12 -1 c-7 -1 -83
-9 -168 -19z"/>
<path d="M70904 31882 c-6 -4 -16 -17 -22 -28 l-11 -21 6 -7 c13 -12 21 -5 32
26 12 34 11 41 -5 30z"/>
<path d="M10760 31722 c0 -16 -70 -412 -76 -434 l-5 -18 8 0 8 0 39 225 39
225 -6 7 -7 6 0 -11z"/>
<path d="M31690 31139 c0 -6 5 -19 11 -30 l10 -20 9 6 9 6 -11 24 c-11 25 -28
34 -28 14z"/>
<path d="M99820 30753 c-14 -2 -47 -11 -75 -20 l-50 -16 -53 -35 c-29 -19 -50
-37 -48 -39 3 -3 25 9 50 27 l46 31 57 20 56 19 51 1 c28 0 60 4 71 9 l20 9
-50 -1 c-27 0 -61 -3 -75 -5z"/>
<path d="M79790 30363 c-148 -112 -136 -101 -117 -109 l16 -6 120 91 c114 86
131 104 114 114 l-8 4 -125 -94z"/>
<path d="M99370 30253 c-7 -21 -27 -65 -46 -99 l-33 -61 -63 -54 c-52 -46
-402 -304 -765 -564 -46 -33 -83 -63 -83 -68 l0 -8 13 7 c6 4 86 62 177 129
91 67 266 195 390 285 124 90 249 184 279 209 l54 46 32 50 c32 50 71 152 62
161 -3 3 -10 -12 -17 -33z"/>
<path d="M75424 30043 l-9 -138 -33 -54 -33 -53 5 -6 6 -5 18 16 c10 9 29 38
42 64 l24 48 4 133 4 132 -9 0 -9 0 -10 -137z"/>
<path d="M94987 29859 c-53 -40 -97 -76 -97 -82 l0 -9 33 24 c17 14 65 49 105
78 39 29 72 54 72 56 0 12 -25 -3 -113 -67z"/>
<path d="M74470 28871 c0 -5 68 -84 151 -175 l151 -166 9 6 9 5 -7 12 c-15 26
-296 327 -304 327 -5 0 -9 -4 -9 -9z"/>
<path d="M84560 28772 c0 -5 75 -83 167 -172 l167 -163 3 10 4 10 -161 159
c-89 87 -165 161 -171 162 l-9 4 0 -10z"/>
<path d="M95310 26779 c-96 -71 -177 -134 -179 -140 -3 -9 325 226 359 257
l14 14 -9 -1 c-6 0 -89 -58 -185 -130z"/>
<path d="M21857 26817 c-4 -10 -7 -26 -7 -35 l1 -17 10 18 10 18 -3 17 -4 17
-7 -18z"/>
<path d="M87395 25990 l-5 -9 202 -160 202 -160 9 6 c4 3 7 6 5 8 -2 1 -94 75
-205 163 l-202 161 -6 -9z"/>
<path d="M10345 25131 c29 -15 403 -93 423 -89 l17 3 -205 43 c-113 24 -216
46 -230 48 l-25 4 20 -9z"/>
<path d="M90505 24839 c55 -6 165 -21 244 -35 79 -13 146 -22 149 -19 7 7 -12
11 -158 34 l-135 21 -100 5 -100 4 100 -10z"/>
<path d="M20446 21759 c-206 -27 -236 -32 -225 -44 6 -6 447 49 454 57 l6 6
-8 4 c-4 3 -106 -8 -227 -23z"/>
<path d="M2440 20821 l0 -11 13 0 c6 0 102 -11 212 -25 110 -14 210 -25 223
-25 l22 0 0 8 0 8 -192 23 c-106 12 -212 25 -235 28 l-43 6 0 -12z"/>
<path d="M87167 20324 c149 -158 193 -201 193 -190 0 10 -298 320 -313 325 -7
2 47 -58 120 -135z"/>
<path d="M95650 17753 c0 -5 82 -81 182 -169 377 -330 558 -484 558 -477 0 7
-105 100 -509 453 -47 41 -119 103 -158 138 l-73 64 0 -9z"/>
<path d="M93115 17159 c-99 -72 -189 -137 -199 -145 -11 -7 -18 -15 -15 -18 5
-5 393 272 397 285 2 5 2 9 0 9 -1 -1 -84 -60 -183 -131z"/>
<path d="M92930 16992 c0 -5 74 -75 165 -156 91 -80 165 -143 165 -138 0 5
-74 75 -165 156 -91 80 -165 143 -165 138z"/>
<path d="M92900 16964 c0 -5 84 -83 187 -174 322 -285 1157 -1000 1167 -1000
l10 0 -9 9 c-6 4 -221 190 -480 411 -399 342 -736 637 -847 739 l-28 25 0 -10z"/>
<path d="M92348 16592 c-92 -69 -165 -128 -163 -130 6 -6 335 240 335 250 0
11 13 20 -172 -120z"/>
<path d="M92371 16559 c-89 -67 -160 -124 -157 -126 2 -2 78 50 168 118 188
140 174 129 161 129 -5 0 -82 -55 -172 -121z"/>
<path d="M92070 16457 c35 -37 66 -67 67 -67 14 0 -8 24 -65 74 l-67 59 65
-66z"/>
<path d="M92177 16433 l-6 -10 96 -104 c53 -57 123 -132 156 -166 l59 -63 9 6
9 5 -147 157 c-80 86 -152 163 -159 170 l-12 14 -5 -9z"/>
<path d="M98540 15264 c1 -12 339 -288 358 -293 12 -2 -206 181 -345 292 l-13
9 0 -8z"/>
<path d="M98060 14752 c-69 -81 -273 -320 -453 -530 -180 -211 -331 -391 -334
-400 l-6 -17 20 20 c11 11 156 180 323 375 166 195 361 424 433 509 73 85 138
163 145 173 l13 18 -8 -1 c-4 0 -64 -66 -133 -147z"/>
<path d="M97917 14523 c-169 -196 -307 -361 -307 -366 0 -6 2 -8 4 -6 2 2 133
155 291 339 158 184 297 345 308 357 11 13 18 25 16 28 -3 2 -143 -156 -312
-352z"/>
<path d="M14153 13760 c4 -36 11 -132 17 -215 11 -150 17 -201 25 -193 2 2 -5
106 -15 232 l-19 228 -7 7 -7 6 6 -65z"/>
<path d="M96660 13754 c0 -5 61 -66 136 -134 163 -147 198 -178 193 -164 -2 5
-58 59 -124 119 -66 60 -139 127 -162 149 l-43 40 0 -10z"/>
<path d="M96859 13347 c-47 -56 -112 -132 -144 -170 -32 -37 -56 -70 -53 -72
4 -4 252 279 286 327 l13 18 -8 -1 c-4 0 -47 -46 -94 -102z"/>
<path d="M96030 13052 c0 -5 77 -73 171 -151 l170 -142 11 3 12 4 -176 147
c-97 81 -178 147 -182 147 -3 0 -6 -4 -6 -8z"/>
<path d="M24966 4341 c-76 -93 -138 -173 -138 -177 0 -5 4 -10 9 -11 l8 -2
140 171 c77 94 142 174 143 179 l4 9 -14 0 -14 0 -138 -169z"/>
<path d="M24905 4130 c-9 -15 -12 -13 87 -59 l87 -40 101 -12 100 -12 232 12
c128 6 234 14 237 16 2 3 2 7 -1 10 l-6 6 -222 -12 -223 -11 -96 12 -96 12
-85 36 c-47 19 -90 39 -97 44 l-11 9 -7 -11z"/>
<path d="M24872 4079 l5 -14 85 -37 85 -38 83 -16 83 -15 9 9 9 9 -84 16 -85
15 -83 37 c-46 20 -90 39 -98 42 l-14 6 5 -14z"/>
<path d="M22256 2892 l-5 -8 117 -91 c64 -50 149 -116 189 -147 l72 -56 5 9 6
9 -172 133 c-94 74 -180 140 -189 147 l-18 12 -5 -8z"/>
<path d="M23015 2281 c3 -5 79 -68 170 -140 l164 -130 6 8 5 9 -165 131 c-91
72 -170 131 -176 131 l-10 0 6 -9z"/>
<path d="M22984 2232 c7 -11 313 -252 320 -252 21 0 -12 31 -149 138 -85 67
-160 122 -166 122 l-10 0 5 -8z"/>
<path d="M16310 1285 l0 -15 13 0 c6 0 209 -12 449 -27 l437 -27 7 7 c4 4 5 9
2 12 -2 3 -182 16 -399 30 -217 13 -420 27 -451 29 l-58 6 0 -15z"/>
<path d="M15850 1267 l0 -14 225 -13 226 -13 6 7 c3 3 4 8 1 11 -3 4 -404 35
-450 35 -5 0 -8 -6 -8 -13z"/>
<path d="M17680 1196 l0 -13 68 -6 c37 -3 239 -18 449 -33 l382 -28 7 7 c4 4
5 9 2 12 -3 3 -187 18 -409 35 -222 16 -425 31 -451 34 l-48 5 0 -13z"/>
</g>
</svg>
