<?xml version="1.0" standalone="no"?>
<!DOCTYPE svg PUBLIC "-//W3C//DTD SVG 20010904//EN"
 "http://www.w3.org/TR/2001/REC-SVG-20010904/DTD/svg10.dtd">
<svg version="1.0" xmlns="http://www.w3.org/2000/svg"
 width="7500.000000pt" height="7500.000000pt" viewBox="0 0 7500.000000 7500.000000"
 preserveAspectRatio="xMidYMid meet">
<metadata>
Created by potrace 1.16, written by Peter Selinger 2001-2019
</metadata>
<g transform="translate(0.000000,7500.000000) scale(0.075000,-0.075000)"
fill="#000000" stroke="none">
<path d="M82090 99717 c0 -3 51 -33 113 -67 l112 -62 20 -23 20 -23 53 -27
c30 -14 56 -25 58 -22 2 2 -23 16 -55 32 l-59 28 -5 16 -4 16 -119 65 c-131
72 -134 74 -134 67z"/>
<path d="M82900 99312 c0 -4 22 -19 48 -33 26 -14 114 -63 195 -108 81 -45
152 -81 158 -79 l9 3 -102 57 c-196 108 -308 166 -308 160z"/>
<path d="M98700 94663 c0 -4 19 -19 43 -32 23 -13 97 -71 165 -129 68 -57 125
-102 128 -100 7 8 -236 210 -288 241 l-48 28 0 -8z"/>
<path d="M87255 92800 c-110 -110 -203 -200 -208 -200 -4 0 -55 32 -113 71
l-105 70 -12 -4 -12 -4 119 -77 118 -77 12 3 c16 5 411 406 405 412 -3 3 -95
-85 -204 -194z"/>
<path d="M55944 91624 c-53 -102 -97 -193 -98 -202 l-1 -15 10 -3 10 -4 103
199 c56 109 102 201 102 205 0 3 -6 6 -14 6 l-15 0 -97 -186z"/>
<path d="M29566 90442 c5 -5 56 -28 114 -50 l105 -42 89 -20 c50 -11 97 -19
105 -18 l16 3 -101 23 -101 23 -114 44 c-120 47 -129 50 -113 37z"/>
<path d="M98650 89236 c0 -2 44 -19 98 -37 53 -17 149 -54 212 -80 63 -27 119
-49 124 -49 l10 0 -9 9 c-15 14 -272 117 -351 140 -74 22 -84 24 -84 17z"/>
<path d="M78502 88609 l4 -14 450 -156 449 -157 8 5 c5 3 6 7 4 9 -2 2 -201
73 -443 158 -241 84 -447 157 -458 161 l-19 8 5 -14z"/>
<path d="M80270 88042 l0 -9 408 -142 c224 -78 414 -141 422 -141 l14 0 -9 9
c-9 8 -814 291 -829 291 -3 0 -6 -4 -6 -8z"/>
<path d="M97970 87986 c0 -6 222 -376 237 -395 2 -2 5 -2 7 0 4 4 -221 380
-237 396 l-7 6 0 -7z"/>
<path d="M36220 87403 c1 -12 412 -334 418 -328 3 3 3 7 1 8 -133 109 -410
327 -414 327 -3 0 -5 -3 -5 -7z"/>
<path d="M84433 87263 c-39 -76 -99 -203 -133 -283 -35 -80 -66 -149 -70 -153
l-7 -8 -257 71 c-241 66 -286 76 -275 66 3 -3 122 -37 264 -76 143 -39 265
-72 271 -74 l11 -4 73 166 c73 168 184 396 202 420 l10 12 -9 0 -10 0 -70
-137z"/>
<path d="M96896 85848 c15 -24 40 -62 55 -85 16 -23 29 -45 29 -50 -1 -4 -37
-30 -80 -58 -44 -27 -80 -54 -80 -58 l0 -8 13 7 c53 32 167 107 167 111 0 13
-113 183 -121 183 l-9 0 26 -42z"/>
<path d="M64251 85789 c-101 -10 -186 -21 -189 -24 -3 -3 -2 -8 1 -12 l7 -7
193 18 c105 9 209 20 230 23 l37 6 0 8 0 9 -47 -1 c-27 -1 -131 -10 -232 -20z"/>
<path d="M80426 85751 c22 -22 768 -291 807 -291 l11 0 -9 9 c-6 5 -129 48
-275 96 -146 49 -324 112 -397 141 -72 30 -135 54 -139 54 l-8 0 10 -9z"/>
<path d="M80500 84333 l0 -9 203 -68 c111 -38 209 -71 217 -74 l15 -5 -8 9
c-4 4 -94 38 -200 75 -106 37 -200 70 -209 74 l-18 7 0 -9z"/>
<path d="M13750 83593 l0 -11 93 -11 c50 -6 207 -18 347 -26 l255 -15 50 -17
c28 -9 75 -28 106 -44 l57 -28 6 6 6 6 -53 30 c-28 17 -79 39 -112 49 l-60 19
-305 20 c-168 10 -324 22 -347 25 l-43 7 0 -10z"/>
<path d="M93006 83139 c-70 -100 -125 -184 -122 -186 2 -2 61 77 131 177 70
100 125 184 122 186 -3 3 -62 -77 -131 -177z"/>
<path d="M95425 80319 c-55 -76 -106 -148 -114 -159 l-13 -20 9 0 c8 0 222
288 231 312 2 4 0 8 -5 8 -4 -1 -53 -64 -108 -141z"/>
<path d="M99950 80059 c-25 -46 -64 -129 -88 -183 l-43 -100 3 -14 3 -15 34
84 c19 46 58 131 88 188 l54 104 -4 10 -3 10 -44 -84z"/>
<path d="M98470 78659 c-63 -94 -135 -228 -127 -235 2 -3 21 28 42 68 21 40
64 113 97 161 33 49 58 91 55 93 -3 3 -33 -36 -67 -87z"/>
<path d="M74613 76770 l-23 -9 0 -10 0 -10 33 5 c17 3 38 8 45 10 l13 4 -6 10
c-7 12 -32 12 -62 0z"/>
<path d="M74285 76520 c-28 -23 -100 -91 -162 -152 l-112 -112 6 -9 6 -9 106
104 c58 58 134 127 168 155 l62 51 -6 6 c-11 10 -17 7 -68 -34z"/>
<path d="M41417 67878 c-43 -114 -130 -368 -134 -394 l-6 -34 12 0 11 0 0 20
c0 11 32 109 70 216 39 108 70 198 70 200 0 10 -18 3 -23 -8z"/>
<path d="M50925 67153 c21 -21 356 -245 361 -241 4 5 -332 237 -356 246 l-15
5 10 -10z"/>
<path d="M45261 66416 c9 -9 441 -187 444 -184 3 2 -94 45 -213 96 -193 82
-246 102 -231 88z"/>
<path d="M44265 66331 c13 -12 377 -123 383 -116 6 6 15 3 -193 65 -93 28
-177 53 -185 56 l-15 5 10 -10z"/>
<path d="M44245 66292 c12 -12 784 -236 791 -230 2 3 -60 24 -138 46 -164 48
-601 175 -638 187 l-25 7 10 -10z"/>
<path d="M94504 66085 c7 -42 43 -270 52 -330 3 -27 11 -57 16 -65 l9 -15 -5
30 c-2 17 -17 111 -32 210 l-27 180 -9 10 -10 10 6 -30z"/>
<path d="M50900 66024 c-93 -203 -150 -338 -147 -347 l3 -10 44 99 c121 274
139 318 135 322 -2 2 -18 -27 -35 -64z"/>
<path d="M41920 66048 c3 -3 66 -47 140 -98 74 -52 156 -109 183 -128 l47 -34
0 10 0 11 -171 116 c-144 98 -221 146 -199 123z"/>
<path d="M83958 65917 l-188 -61 0 -9 0 -9 30 7 c17 4 115 35 218 70 l187 63
-30 0 -30 0 -187 -61z"/>
<path d="M83845 65295 c25 -68 57 -169 95 -299 24 -82 46 -144 47 -139 4 11
-86 325 -113 395 -10 24 -21 48 -27 53 l-10 10 8 -20z"/>
<path d="M40660 64115 c-30 -19 -49 -35 -42 -35 12 0 112 59 112 66 0 10 -18
1 -70 -31z"/>
<path d="M89635 63879 c5 -8 48 -59 96 -114 47 -55 105 -127 128 -159 46 -66
57 -65 13 1 -31 46 -218 269 -235 280 l-10 6 8 -14z"/>
<path d="M41450 63743 l-24 -5 -78 -65 c-43 -36 -78 -67 -78 -69 0 -9 22 7 96
68 l71 58 39 0 39 0 49 -15 c27 -8 56 -15 65 -14 l16 1 -60 19 c-75 23 -103
28 -135 22z"/>
<path d="M2257 63694 l-6 -6 160 -141 c88 -78 165 -144 171 -146 l11 -3 -4 10
c-4 10 -316 292 -323 292 -1 0 -5 -3 -9 -6z"/>
<path d="M41770 63626 c0 -5 24 -36 53 -70 30 -34 97 -119 150 -189 94 -126
277 -336 277 -318 0 5 -34 46 -76 92 -42 46 -128 152 -190 234 -114 150 -214
268 -214 251z"/>
<path d="M41160 63463 c-175 -148 -193 -164 -188 -168 2 -3 73 54 157 126 85
71 155 128 156 127 12 -17 221 -246 233 -255 9 -7 20 -13 25 -13 l9 0 -20 18
c-15 13 -155 166 -241 264 l-6 7 -125 -106z"/>
<path d="M16357 63315 l-17 -36 0 -39 0 -38 26 -31 26 -31 9 6 10 5 -26 31
-25 30 0 28 c0 15 7 44 15 63 17 42 18 47 7 47 -5 0 -16 -16 -25 -35z"/>
<path d="M41566 63181 l-6 -9 15 -6 15 -5 0 9 c0 5 -4 11 -9 15 l-10 5 -5 -9z"/>
<path d="M41579 63118 c-7 -13 -61 -74 -122 -135 l-111 -113 7 -7 7 -7 113
110 c101 98 137 142 137 166 0 16 -20 7 -31 -14z"/>
<path d="M42774 63007 c-170 -147 -284 -252 -284 -262 0 -4 26 17 58 45 31 28
128 113 215 187 86 75 157 139 157 144 0 5 -1 9 -2 8 -2 0 -66 -55 -144 -122z"/>
<path d="M81157 63104 l-6 -7 14 -28 15 -28 0 -54 0 -53 -31 -43 -32 -42 -88
-45 -89 -44 0 -10 c0 -15 3 -14 93 31 l82 41 28 27 c16 14 35 38 43 53 l14 27
0 61 0 61 -15 29 c-17 32 -18 33 -28 24z"/>
<path d="M15070 62993 l0 -32 10 -6 10 -6 0 23 c0 13 -5 30 -10 38 l-10 15 0
-32z"/>
<path d="M18009 62946 c-2 -2 -148 -7 -324 -10 l-320 -7 -175 -14 c-96 -8
-215 -17 -265 -20 -114 -7 -178 -15 -172 -21 2 -3 96 2 208 10 233 17 575 34
892 42 l217 6 0 9 0 9 -28 0 c-16 0 -31 -2 -33 -4z"/>
<path d="M58705 62905 c-57 -31 -96 -57 -92 -62 3 -2 29 11 58 29 l54 33 50 0
c28 0 97 -3 155 -7 l105 -6 -45 8 c-25 4 -92 11 -150 14 l-105 7 -30 -16z"/>
<path d="M57680 62894 c0 -7 8 -21 18 -32 l17 -21 253 -112 252 -113 158 108
c144 98 239 168 202 150 -8 -4 -93 -61 -187 -126 l-173 -118 -247 110 -248
110 -22 28 -23 27 0 -11z"/>
<path d="M59508 62893 c12 -2 115 -12 228 -22 l205 -17 4 6 4 6 -207 17 c-114
10 -218 17 -232 16 l-25 -2 23 -4z"/>
<path d="M10227 62745 c-9 -22 -9 -25 3 -25 l10 0 0 15 0 15 23 0 c12 0 112
-7 222 -16 l200 -15 193 7 193 7 3 6 4 6 -281 0 -282 0 -141 9 -141 8 -6 -17z"/>
<path d="M89015 62351 c17 -16 97 -86 179 -155 l149 -125 9 5 c5 3 8 7 6 9
-120 105 -352 295 -361 295 l-12 0 30 -29z"/>
<path d="M41936 62266 l-36 -33 0 -19 1 -19 11 20 c6 11 24 35 41 53 40 42 28
41 -17 -2z"/>
<path d="M49846 62292 c5 -5 89 -41 186 -79 l177 -71 6 6 5 6 -182 73 c-100
40 -187 73 -192 73 l-10 0 10 -8z"/>
<path d="M56760 62146 c0 -9 97 -53 600 -268 245 -105 448 -192 453 -195 l7
-4 0 8 0 8 -328 139 c-180 77 -412 177 -517 223 -104 46 -196 87 -202 90 l-13
5 0 -6z"/>
<path d="M15701 61937 c-123 -33 -220 -62 -214 -64 14 -5 435 107 448 119 l9
8 -9 -1 c-6 0 -111 -28 -234 -62z"/>
<path d="M44721 61923 c6 -18 349 -393 360 -393 9 0 -248 288 -339 380 l-24
25 3 -12z"/>
<path d="M57321 61849 c-5 -13 -33 -73 -61 -134 -71 -150 -120 -266 -120 -285
l1 -15 38 90 c21 50 66 150 100 223 l62 134 -5 5 -5 6 -10 -24z"/>
<path d="M59875 61773 l-67 -76 -73 -113 c-41 -62 -79 -122 -85 -135 l-12 -21
10 5 c5 4 42 59 83 123 l74 116 72 85 c40 46 73 86 73 89 0 11 -14 -2 -75 -73z"/>
<path d="M39625 61654 l-80 -13 -95 -1 c-52 -1 -117 -5 -145 -10 l-50 -8 160
5 160 5 84 14 c46 7 86 16 89 19 8 7 -32 4 -123 -11z"/>
<path d="M57840 61312 c0 -14 271 -434 277 -429 3 3 -256 416 -273 436 -2 2
-4 -1 -4 -7z"/>
<path d="M59130 61112 c0 -6 354 -164 404 -181 l11 -3 -10 10 c-5 5 -73 37
-150 70 -77 34 -166 72 -197 86 l-58 26 0 -8z"/>
<path d="M60840 60794 c0 -18 80 -377 85 -382 3 -3 5 -1 5 4 0 20 -79 376 -84
382 l-6 5 0 -9z"/>
<path d="M35151 60726 c5 -6 406 -46 441 -45 l23 1 -10 4 c-12 4 -399 44 -434
44 -13 0 -22 -2 -20 -4z"/>
<path d="M61354 60603 c3 -10 28 -126 56 -257 28 -132 53 -242 57 -245 l6 -6
-6 30 c-3 16 -27 134 -54 262 l-48 233 -8 0 -8 0 5 -17z"/>
<path d="M86100 60551 c0 -9 297 -341 306 -341 11 0 -6 21 -151 180 -85 94
-155 166 -155 161z"/>
<path d="M55552 60438 l-2 -53 -50 -190 c-27 -104 -47 -191 -45 -193 6 -7 9 1
65 221 51 201 56 232 42 255 l-8 12 -2 -52z"/>
<path d="M55513 60459 l5 -15 -49 -205 c-46 -190 -55 -239 -45 -228 2 2 28
102 56 222 l52 219 -12 11 -13 12 6 -16z"/>
<path d="M62621 60365 c-63 -14 -253 -52 -423 -86 l-308 -62 0 -7 0 -6 413 83
c226 46 421 87 432 92 30 15 10 12 -114 -14z"/>
<path d="M61877 60183 l-7 -11 40 -193 c22 -107 57 -274 78 -371 l38 -178 -15
-5 c-9 -2 -95 -20 -191 -40 -186 -38 -214 -45 -208 -51 3 -2 92 15 199 37
l194 40 17 -4 17 -5 4 12 c2 6 0 20 -5 31 -5 11 -41 184 -82 384 l-73 364 -6
-10z"/>
<path d="M61911 60190 c-1 -3 35 -178 79 -389 44 -212 80 -386 80 -388 0 -1 5
-3 11 -3 l10 0 -6 9 c-3 5 -39 173 -80 373 -64 309 -91 423 -94 398z"/>
<path d="M61655 60130 c-104 -22 -295 -61 -422 -87 l-233 -48 0 -7 c0 -11 -5
-12 225 37 116 25 302 64 415 87 113 22 209 45 215 49 l9 9 -9 -1 c-6 -1 -95
-18 -200 -39z"/>
<path d="M44916 59958 c69 -81 668 -708 671 -704 6 5 -674 726 -684 726 -3 0
2 -10 13 -22z"/>
<path d="M49123 59831 c87 -68 161 -121 163 -118 6 5 -279 225 -303 234 -10 3
53 -49 140 -116z"/>
<path d="M58850 59931 c0 -18 153 -361 162 -361 6 0 -17 55 -121 285 -22 50
-41 84 -41 76z"/>
<path d="M58810 59913 c0 -6 30 -75 66 -154 36 -79 73 -159 81 -178 8 -18 16
-31 19 -28 4 4 -151 355 -162 366 -2 2 -4 0 -4 -6z"/>
<path d="M59255 59724 c-60 -46 -142 -106 -182 -133 l-72 -49 6 -6 6 -6 36 22
c61 38 321 239 321 249 0 12 8 18 -115 -77z"/>
<path d="M61505 59678 c3 -13 55 -270 115 -572 60 -302 113 -552 116 -555 l7
-6 -5 25 c-2 14 -54 274 -114 577 l-109 553 -8 0 -7 0 5 -22z"/>
<path d="M62495 59482 l-420 -84 -10 -10 -10 -11 15 5 c8 3 202 42 430 88 228
46 417 85 419 87 16 12 -51 0 -424 -75z"/>
<path d="M83629 59448 c32 -57 82 -145 111 -196 28 -51 54 -91 57 -89 6 7
-210 387 -219 387 -4 0 19 -46 51 -102z"/>
<path d="M55282 59498 c-27 -83 -113 -431 -110 -440 2 -6 32 96 66 227 34 131
60 240 58 242 -2 3 -9 -11 -14 -29z"/>
<path d="M55326 59509 c-18 -54 -116 -453 -113 -462 2 -6 31 97 65 228 34 132
59 241 57 243 -3 3 -7 -1 -9 -9z"/>
<path d="M59613 59316 c-248 -50 -455 -94 -459 -98 l-7 -8 9 0 c29 2 964 198
939 198 -16 0 -233 -41 -482 -92z"/>
<path d="M63721 59370 c-1 -8 38 -208 85 -445 l87 -430 10 -10 9 -10 -6 20
c-3 11 -44 211 -91 445 -47 234 -87 430 -89 435 l-4 10 -1 -15z"/>
<path d="M45560 59224 c0 -5 35 -44 78 -85 l77 -76 105 -75 c58 -40 111 -78
119 -83 l14 -8 -6 11 c-4 5 -53 43 -110 83 l-102 73 -87 85 c-49 46 -88 80
-88 75z"/>
<path d="M83830 59179 c0 -3 86 -169 191 -369 105 -200 198 -383 206 -407 9
-24 18 -42 21 -39 11 11 -37 112 -215 451 -165 313 -203 381 -203 364z"/>
<path d="M63854 58915 c2 -16 21 -119 42 -227 l38 -198 6 0 7 0 -43 218 c-40
198 -61 284 -50 207z"/>
<path d="M62625 58714 c-27 -7 -234 -50 -460 -95 -225 -46 -403 -85 -395 -87
16 -3 900 175 909 183 11 11 -7 11 -54 -1z"/>
<path d="M59590 58553 c0 -5 87 -40 193 -79 105 -40 284 -106 396 -148 l203
-76 16 9 15 8 16 -4 16 -4 410 86 c484 100 459 95 453 101 -3 2 -191 -34 -417
-81 l-412 -85 -57 -4 -57 -3 -90 33 c-121 43 -242 88 -479 178 -215 82 -206
79 -206 69z"/>
<path d="M49471 58296 c2 -3 85 -36 184 -74 99 -38 208 -83 243 -101 34 -17
62 -29 62 -26 0 11 -164 86 -314 144 -142 55 -188 70 -175 57z"/>
<path d="M63994 58013 c3 -10 37 -180 76 -378 89 -454 294 -1414 298 -1393 2
8 -46 244 -106 524 -60 280 -143 679 -183 886 l-74 378 -8 0 -8 0 5 -17z"/>
<path d="M64033 58010 c3 -14 45 -214 92 -445 154 -756 278 -1332 283 -1317 3
11 -32 188 -135 672 -25 118 -87 414 -137 657 l-91 442 -9 8 -9 8 6 -25z"/>
<path d="M55476 57784 c-104 -13 -194 -25 -200 -28 l-11 -4 20 -1 c34 -1 416
47 422 53 l6 6 -24 -1 c-13 -1 -109 -12 -213 -25z"/>
<path d="M50968 57753 c12 -2 30 -2 40 0 l17 5 -40 -1 -40 0 23 -4z"/>
<path d="M51015 57718 c-11 -18 -50 -100 -86 -183 -74 -167 -101 -218 -136
-256 l-25 -27 10 -6 10 -6 31 36 c35 40 74 115 151 289 29 66 61 132 71 147
22 31 23 38 6 38 l-13 0 -19 -32z"/>
<path d="M80080 57321 c-121 -107 -272 -297 -355 -446 l-38 -70 -101 -103
-101 -104 -43 -25 c-24 -14 -82 -39 -130 -55 l-87 -29 -87 -6 -88 -6 0 -7 0
-7 73 4 c125 8 263 50 342 104 22 15 85 73 140 130 l100 104 34 65 c62 117
233 338 321 415 82 71 105 94 100 98 -3 2 -39 -25 -80 -62z"/>
<path d="M54375 56636 c-17 -7 -36 -20 -44 -30 l-14 -16 6 -6 6 -6 27 21 c15
11 33 21 40 21 l14 0 0 15 c0 8 -1 15 -2 15 -2 -1 -17 -7 -33 -14z"/>
<path d="M90620 56491 c0 -5 51 -30 113 -57 61 -26 145 -66 185 -87 l72 -39 0
9 0 9 -92 47 c-51 26 -135 64 -185 86 l-93 40 0 -8z"/>
<path d="M74270 56372 c-69 -37 -151 -86 -183 -109 l-58 -41 9 -6 8 -5 75 51
c41 28 125 76 187 107 102 51 133 72 100 70 -7 0 -69 -31 -138 -67z"/>
<path d="M63635 56037 l-8 -18 12 -12 c15 -15 19 -7 11 23 l-7 25 -8 -18z"/>
<path d="M36420 55854 c-47 -19 -114 -42 -150 -50 l-65 -16 -27 6 -28 6 0 -10
0 -10 48 0 47 0 50 14 c61 17 206 74 220 87 l9 9 -9 0 c-6 -1 -48 -17 -95 -36z"/>
<path d="M46936 55712 l-5 -9 33 -109 c19 -60 46 -136 61 -169 15 -33 36 -79
46 -102 l18 -43 16 6 15 6 0 13 c0 7 -18 52 -40 100 -22 47 -56 138 -75 201
l-36 114 -14 0 c-8 0 -16 -4 -19 -8z"/>
<path d="M25990 55663 c0 -4 96 -77 213 -160 182 -131 246 -175 315 -217 l12
-7 0 8 c0 4 -18 18 -39 30 -32 19 -137 92 -448 317 -29 21 -53 34 -53 29z"/>
<path d="M87580 55181 c0 -7 48 -103 106 -212 l106 -199 9 0 c5 0 9 2 9 6 0 8
-210 398 -221 409 l-9 9 0 -13z"/>
<path d="M63960 55053 c0 -13 93 -448 97 -452 1 -2 6 -2 9 2 l6 6 -48 225 -49
226 -7 0 c-5 0 -8 -3 -8 -7z"/>
<path d="M52125 54742 l-140 -216 -137 -175 c-75 -97 -135 -178 -132 -180 2
-2 6 -2 7 0 2 2 62 78 133 169 l130 165 133 205 c74 113 141 215 149 228 l14
22 -8 0 c-5 -1 -72 -98 -149 -218z"/>
<path d="M53280 54941 c0 -6 5 -22 12 -36 l11 -25 -125 -187 c-68 -104 -133
-200 -142 -215 l-18 -28 9 0 10 0 143 215 143 214 -13 31 c-7 17 -17 33 -21
36 l-9 5 0 -10z"/>
<path d="M52255 54742 l-100 -157 -179 -238 c-98 -131 -176 -240 -174 -243 16
-15 565 762 556 786 -2 5 -48 -62 -103 -148z"/>
<path d="M54033 54589 l-62 -19 -68 -40 c-37 -22 -84 -54 -103 -71 -38 -33
-24 -30 25 6 50 36 176 102 233 120 28 9 52 18 52 21 0 6 -11 4 -77 -17z"/>
<path d="M80975 54490 c-104 -26 -203 -50 -219 -54 -15 -4 -26 -9 -24 -12 5
-4 429 95 437 102 14 13 -24 6 -194 -36z"/>
<path d="M52815 54313 c-71 -109 -136 -209 -144 -223 l-16 -24 11 7 c16 9 288
427 282 433 -3 2 -63 -85 -133 -193z"/>
<path d="M33495 54190 l-30 -20 -7 -25 -6 -25 14 0 14 0 0 14 0 15 29 20 29
21 21 0 21 0 0 10 0 10 -27 0 -28 0 -30 -20z"/>
<path d="M77586 54133 c14 -37 56 -149 93 -248 l67 -180 55 -202 54 -203 8 0
c12 0 9 14 -48 223 l-55 202 -88 234 -87 234 -12 4 -13 5 26 -69z"/>
<path d="M22636 54023 c-86 -91 -155 -168 -153 -170 3 -2 38 31 78 74 41 43
114 119 163 170 l90 93 -11 0 -12 0 -155 -167z"/>
<path d="M51586 54058 c-47 -56 -86 -107 -86 -112 l0 -10 8 10 c74 82 173 206
170 210 -3 2 -44 -41 -92 -98z"/>
<path d="M33665 54100 c-4 -6 -5 -12 -3 -13 2 -1 33 -31 70 -66 l66 -63 5 9 6
10 -68 67 -69 68 -7 -12z"/>
<path d="M50710 54033 c0 -5 17 -17 37 -28 21 -11 52 -33 71 -49 18 -16 35
-27 37 -24 8 7 -46 53 -97 82 l-48 27 0 -8z"/>
<path d="M49090 53645 c0 -10 140 -286 185 -365 56 -98 54 -95 59 -89 3 2 -23
52 -56 109 -33 58 -87 160 -119 228 -49 105 -69 138 -69 117z"/>
<path d="M52345 53630 l-6 -10 10 0 c5 0 13 5 16 10 l6 10 -10 0 c-5 0 -13 -4
-16 -10z"/>
<path d="M29868 53592 c-43 -14 -78 -29 -78 -33 l0 -8 73 26 72 27 145 6 145
6 -140 1 -140 1 -77 -26z"/>
<path d="M29870 53549 c-106 -35 -81 -38 30 -3 l81 25 124 -3 125 -3 0 8 0 7
-137 -1 -138 -1 -85 -29z"/>
<path d="M65958 53512 c-119 -26 -220 -51 -225 -56 l-8 -8 20 5 c11 3 112 25
225 48 113 23 209 46 215 50 l9 9 -9 -1 c-6 0 -108 -22 -227 -47z"/>
<path d="M52641 53098 c61 -128 120 -255 132 -282 l21 -49 3 10 c4 12 -248
553 -258 553 -4 0 42 -105 102 -232z"/>
<path d="M51557 53294 c-27 -14 -47 -28 -44 -30 3 -3 31 8 63 25 l59 30 -15 0
c-8 0 -37 -11 -63 -25z"/>
<path d="M28696 53214 c-109 -36 -196 -68 -193 -70 5 -6 391 112 417 127 l15
8 -20 0 c-11 0 -109 -30 -219 -65z"/>
<path d="M64578 53231 c-109 -21 -201 -41 -205 -46 l-8 -8 25 6 c14 3 106 20
205 38 l180 32 10 8 9 9 -9 -1 c-6 -1 -99 -18 -207 -38z"/>
<path d="M52270 53203 c0 -30 177 -389 187 -380 2 3 -9 26 -24 53 -16 27 -57
112 -93 189 -67 149 -70 154 -70 138z"/>
<path d="M88706 52943 c14 -37 49 -129 76 -203 54 -144 55 -146 64 -138 l5 6
-74 198 -75 198 -11 4 -11 4 26 -69z"/>
<path d="M65060 52784 c-113 -23 -209 -43 -214 -43 -5 -1 -7 -3 -4 -6 3 -3 97
12 210 35 112 22 214 40 226 40 l22 0 0 10 0 10 -17 -2 c-10 0 -110 -20 -223
-44z"/>
<path d="M84211 52778 c5 -18 41 -157 80 -308 40 -151 73 -276 74 -278 1 -1
122 27 269 63 147 36 276 65 286 65 l19 0 10 -37 c5 -21 20 -81 32 -133 11
-52 26 -99 31 -105 l10 -10 -6 20 c-3 11 -19 76 -35 143 l-29 124 -10 10 -10
10 -276 -67 c-152 -38 -278 -66 -281 -64 -2 3 -39 139 -82 302 l-77 297 -7 0
-8 0 10 -32z"/>
<path d="M84171 52785 c-1 -22 114 -453 123 -463 l6 -5 0 9 c-1 22 -129 477
-129 459z"/>
<path d="M52820 52740 c1 -19 199 -400 200 -382 0 7 -34 79 -77 160 -42 81
-87 167 -100 192 l-23 45 0 -15z"/>
<path d="M85940 52610 l0 -40 10 0 10 0 0 40 0 40 -10 0 -10 0 0 -40z"/>
<path d="M34110 52384 l-54 -206 -19 -24 c-10 -13 -31 -30 -45 -38 l-27 -13
-210 -28 -210 -28 -10 -9 -10 -10 30 6 c17 3 116 17 220 31 l190 26 28 11 27
11 24 27 23 28 21 84 c12 45 37 140 55 211 l34 127 -6 0 c-4 0 -31 -93 -61
-206z"/>
<path d="M73280 52334 c-102 -57 -189 -105 -195 -107 -5 -2 -8 -7 -5 -9 4 -4
374 194 389 208 2 2 2 6 0 8 -2 2 -87 -43 -189 -100z"/>
<path d="M37120 52379 c0 -3 64 -122 141 -265 78 -142 171 -319 207 -392 35
-73 66 -131 68 -129 8 8 -107 238 -250 502 -132 242 -166 301 -166 284z"/>
<path d="M27045 52113 l0 -233 8 0 7 0 -1 173 c-1 94 -4 199 -8 232 l-7 60 1
-232z"/>
<path d="M26995 52303 l8 -28 -2 -197 -2 -198 11 0 10 0 0 188 c0 103 -3 204
-6 225 l-7 37 -9 0 -10 0 7 -27z"/>
<path d="M46610 52296 c0 -2 60 -29 133 -61 72 -32 162 -76 200 -98 l67 -39
26 -30 25 -31 6 7 7 6 -35 36 -34 36 -60 33 c-64 36 -309 145 -325 145 -6 0
-10 -2 -10 -4z"/>
<path d="M27696 52173 c-3 -65 -8 -167 -11 -228 l-4 -110 8 45 c10 52 26 410
19 410 -3 0 -8 -53 -12 -117z"/>
<path d="M36170 51464 c-223 -18 -416 -33 -429 -33 l-24 -1 6 -6 6 -7 438 33
438 33 10 9 9 8 -24 -1 c-14 -1 -207 -16 -430 -35z"/>
<path d="M22355 51391 l-5 -10 8 -5 9 -5 7 6 c9 9 7 23 -3 23 -6 0 -12 -4 -16
-9z"/>
<path d="M22415 51390 l-6 -10 10 0 c5 0 28 -24 51 -52 l42 -53 71 -47 c74
-49 87 -54 87 -39 0 5 -33 30 -72 55 l-73 45 -30 41 c-16 22 -39 47 -52 55
l-22 15 -6 -10z"/>
<path d="M68637 51278 l-208 -91 9 -9 8 -8 200 86 c226 99 207 90 203 103 l-4
10 -208 -91z"/>
<path d="M33444 51260 c3 -19 15 -111 26 -205 11 -93 23 -192 26 -220 13 -110
132 -847 138 -852 3 -4 8 -4 9 -2 2 2 -29 209 -69 459 -40 250 -83 541 -95
645 l-22 190 -9 10 -10 10 6 -35z"/>
<path d="M34055 51260 c3 -5 11 -10 16 -10 l10 0 -6 10 c-3 6 -11 10 -16 10
l-10 0 6 -10z"/>
<path d="M28397 51013 c-4 -3 -7 -10 -7 -15 l0 -8 18 2 c9 1 27 0 39 0 l23 -2
6 -26 7 -25 9 9 9 9 -10 25 -9 25 -24 6 c-30 9 -53 9 -61 0z"/>
<path d="M28400 50880 l0 -13 7 6 6 7 -6 7 -7 6 0 -13z"/>
<path d="M33541 50837 c-2 -16 129 -841 134 -845 9 -9 6 14 -56 411 -52 338
-75 466 -78 434z"/>
<path d="M8960 50561 l0 -8 123 -43 122 -42 93 -48 93 -47 4 7 c7 11 -4 19
-95 61 -66 31 -321 129 -337 129 -2 0 -3 -4 -3 -9z"/>
<path d="M8940 50510 c0 -9 -7 -6 146 -60 66 -24 150 -58 187 -77 l69 -34 11
4 12 4 -85 43 -85 43 -127 43 -128 43 0 -9z"/>
<path d="M33670 49879 c0 -17 38 -321 46 -368 3 -18 7 -31 10 -28 6 5 -43 398
-51 405 -3 3 -5 -1 -5 -9z"/>
<path d="M22405 49790 l30 -8 170 -5 170 -5 -30 8 -30 8 -170 5 -170 5 30 -8z"/>
<path d="M22380 49751 l0 -11 73 0 c41 0 130 -3 198 -6 l124 -7 -10 11 -10 10
-187 7 -188 7 0 -11z"/>
<path d="M23280 49720 c41 -4 141 -10 223 -12 l147 -3 0 7 0 8 -83 0 c-46 0
-146 2 -223 5 l-139 4 75 -9z"/>
<path d="M27800 49701 l26 -8 264 -6 265 -5 -115 8 c-63 4 -194 10 -290 13
l-175 5 25 -7z"/>
<path d="M49852 49649 c2 -7 10 -15 17 -17 l14 -4 -5 13 c-2 7 -10 15 -17 17
l-13 5 4 -14z"/>
<path d="M43501 49629 c-1 -3 39 -89 88 -190 49 -101 90 -179 90 -174 1 11
-177 374 -178 364z"/>
<path d="M38196 49539 c-17 -46 -95 -364 -91 -368 3 -2 6 -2 8 0 9 11 97 372
93 377 -3 2 -8 -1 -10 -9z"/>
<path d="M40101 49488 c11 -29 48 -122 81 -206 l60 -153 6 5 5 6 -79 200 c-43
110 -82 200 -86 200 l-8 0 21 -52z"/>
<path d="M91444 48772 c-50 -59 -119 -140 -153 -179 -35 -40 -59 -73 -54 -73
8 0 228 252 296 337 l18 23 -8 -1 c-4 0 -49 -48 -99 -107z"/>
<path d="M91439 48708 c-68 -78 -153 -178 -188 -223 -35 -44 -124 -141 -198
-216 -73 -75 -133 -141 -133 -145 0 -5 54 45 121 111 l121 120 81 100 c73 91
242 288 305 357 14 15 23 30 20 33 -2 3 -61 -59 -129 -137z"/>
<path d="M34817 48655 l-228 -13 -7 -7 -7 -8 100 7 c55 3 164 9 243 12 l142 7
0 8 c0 5 -3 8 -7 8 -5 -1 -111 -7 -236 -14z"/>
<path d="M34098 48616 l-206 -11 -8 -8 -8 -8 89 6 c50 3 170 10 269 15 98 5
181 12 184 15 7 6 -61 5 -320 -9z"/>
<path d="M34185 48579 c-71 -4 -182 -10 -245 -13 -274 -13 -505 -28 -510 -33
-5 -6 252 4 360 13 l65 6 29 -211 29 -211 7 0 6 0 -29 206 c-16 113 -27 207
-25 209 2 2 127 11 277 19 150 8 276 17 279 20 l5 6 -59 -1 c-32 -1 -117 -5
-189 -10z"/>
<path d="M41334 48463 l-12 -4 26 -79 26 -80 14 0 13 0 -6 21 c-4 11 -17 49
-28 83 l-22 63 -11 -4z"/>
<path d="M38190 47784 c0 -5 12 -85 27 -179 l28 -170 3 21 c3 21 -46 325 -54
333 -2 2 -4 0 -4 -5z"/>
<path d="M90609 47741 c-8 -11 -141 -164 -297 -340 -155 -177 -279 -321 -274
-321 7 0 459 508 576 648 l28 32 -10 0 c-5 0 -16 -9 -23 -19z"/>
<path d="M29466 47085 c4 -71 10 -170 14 -220 l8 -90 -5 205 -5 205 -9 15 -8
15 5 -130z"/>
<path d="M20661 47113 l-21 -68 -30 -179 -31 -178 -19 -37 -18 -36 -44 -42
-43 -42 -95 -44 c-52 -24 -160 -68 -240 -97 -136 -49 -260 -104 -260 -115 0
-3 26 7 58 21 31 14 125 50 207 80 83 30 192 74 243 99 51 25 96 45 100 45 5
0 26 19 49 43 l41 42 17 40 16 40 39 210 38 210 16 38 16 37 -9 0 -8 0 -22
-67z"/>
<path d="M34563 46453 l-53 -4 0 -14 0 -14 73 5 c39 3 87 7 105 10 l32 5 0 9
0 10 -52 -2 c-29 -1 -77 -3 -105 -5z"/>
<path d="M93060 46071 c0 -4 16 -15 35 -24 l36 -17 32 0 32 0 53 -25 54 -25
57 0 56 0 73 38 72 38 -6 7 -7 6 -75 -39 -75 -40 -41 0 -41 0 -47 25 -47 25
-38 0 -38 0 -42 20 -43 19 0 -8z"/>
<path d="M81344 45948 l-7 -11 11 7 c7 4 12 9 12 12 0 8 -9 4 -16 -8z"/>
<path d="M81370 45886 c-4 -13 -14 -43 -20 -67 -6 -24 -20 -68 -32 -97 l-21
-53 -29 -6 -29 -6 8 -21 c8 -24 8 -41 -2 -76 l-6 -25 15 25 15 25 -5 32 -6 32
25 6 26 7 15 38 c19 48 65 210 60 210 -3 0 -9 -11 -14 -24z"/>
<path d="M81316 45838 c-2 -7 -14 -41 -26 -75 l-22 -62 -20 -7 c-11 -3 -17 -8
-15 -11 3 -3 14 -2 25 1 l19 7 16 42 c20 54 37 117 31 117 -3 0 -6 -6 -8 -12z"/>
<path d="M46115 45775 c-3 -14 -7 -37 -10 -52 -3 -16 -23 -68 -43 -116 l-37
-89 -81 -84 -81 -85 7 -4 8 -5 79 84 80 84 40 98 40 99 7 48 c6 49 0 65 -9 22z"/>
<path d="M26170 44470 l-55 -7 71 -1 71 -2 54 -19 c30 -10 90 -35 133 -55 44
-20 84 -36 90 -35 15 1 -166 87 -233 110 -30 10 -59 18 -65 17 -6 -1 -36 -4
-66 -8z"/>
<path d="M52658 44041 l-17 -6 240 -510 c132 -280 265 -565 296 -632 l56 -122
18 10 19 10 -14 32 c-24 55 -562 1191 -572 1208 l-9 16 -17 -6z"/>
<path d="M52476 43242 l-7 -20 -37 -25 c-20 -13 -103 -55 -185 -93 -81 -38
-143 -70 -138 -72 7 -2 274 120 339 156 l23 13 10 26 c5 14 8 28 5 30 -2 3 -7
-4 -10 -15z"/>
<path d="M51380 42935 c0 -27 51 -349 56 -354 11 -11 12 8 3 47 -5 24 -18 104
-29 179 -19 126 -30 174 -30 128z"/>
<path d="M51340 42932 c0 -6 9 -73 20 -149 21 -143 37 -213 47 -213 l5 0 -6
23 c-3 12 -18 94 -31 181 -22 138 -35 198 -35 158z"/>
<path d="M42036 42921 l-20 -8 10 -5 9 -6 25 14 25 13 -15 0 c-8 0 -24 -4 -34
-8z"/>
<path d="M30450 41169 l-185 -141 -3 -15 -4 -15 19 13 c49 36 349 263 357 270
4 4 7 12 5 18 l-4 10 -185 -140z"/>
<path d="M28485 41200 l-6 -10 28 -11 c15 -6 71 -17 123 -25 l95 -14 123 0
122 0 0 10 0 10 -107 0 -108 0 -105 14 c-58 8 -117 19 -132 25 l-27 10 -6 -9z"/>
<path d="M58120 40970 l0 -70 10 0 10 0 0 70 0 70 -10 0 -10 0 0 -70z"/>
<path d="M29386 40991 l-6 -9 97 -69 c54 -39 119 -82 145 -97 l46 -27 81 -4
81 -3 0 12 0 12 -68 1 -69 1 -64 32 c-35 18 -97 58 -139 89 -41 32 -80 61 -87
64 l-12 7 -5 -9z"/>
<path d="M56853 40923 c65 -2 168 -2 230 0 l112 3 -230 0 -230 0 118 -3z"/>
<path d="M53610 40836 l0 -14 20 5 c11 3 20 9 20 14 l0 9 -20 0 -20 0 0 -14z"/>
<path d="M66020 40172 l0 -9 40 -7 c22 -3 128 -38 236 -76 174 -62 222 -75
202 -54 -12 11 -394 142 -435 149 l-43 7 0 -10z"/>
<path d="M51145 39850 c-37 -111 -65 -203 -63 -205 2 -2 35 86 72 196 38 110
66 202 63 205 -3 3 -35 -85 -72 -196z"/>
<path d="M84815 39969 c5 -8 50 -75 100 -149 51 -74 167 -260 260 -412 93
-153 172 -278 176 -278 20 0 -501 826 -533 846 l-11 7 8 -14z"/>
<path d="M54655 39840 l-6 -9 129 -193 129 -193 110 -125 c61 -69 131 -145
156 -169 l46 -44 16 13 16 13 -64 66 c-35 36 -108 118 -164 181 l-100 115
-118 178 -118 177 -13 0 c-7 0 -16 -4 -19 -10z"/>
<path d="M84346 39665 c-70 -46 -133 -89 -140 -95 l-11 -12 22 11 c19 10 271
169 282 178 2 1 -2 3 -10 2 -8 0 -72 -38 -143 -84z"/>
<path d="M52065 39399 c-18 -75 -74 -384 -70 -387 3 -3 7 1 9 9 11 33 75 393
71 397 -2 2 -7 -6 -10 -19z"/>
<path d="M60290 38450 c0 -5 5 -10 10 -10 l10 0 0 -15 0 -16 -50 -70 -49 -71
-108 -115 c-59 -63 -109 -118 -111 -123 -5 -13 -183 -164 -230 -195 -23 -15
-40 -30 -38 -32 3 -3 39 18 80 47 l76 52 89 89 90 88 301 -279 c165 -154 303
-280 305 -280 3 0 5 2 5 4 0 3 -134 129 -297 281 -164 152 -299 280 -301 284
-1 3 33 45 76 91 43 47 101 118 130 157 l52 73 0 14 0 15 -20 11 -20 11 0 -11z"/>
<path d="M60223 38358 c-65 -94 -206 -250 -325 -359 l-94 -86 -150 -100 c-83
-55 -187 -119 -232 -143 -45 -24 -82 -47 -82 -51 0 -13 221 114 361 208 l137
92 148 148 149 148 73 98 74 97 -4 11 -3 10 -52 -73z"/>
<path d="M87005 37796 c-251 -154 -522 -340 -580 -398 l-10 -10 22 11 c12 6
50 33 85 59 94 72 408 280 531 352 59 34 110 66 113 71 l5 9 -8 -1 c-4 0 -75
-42 -158 -93z"/>
<path d="M90861 37774 l1 -19 5 13 5 13 -6 6 -6 6 1 -19z"/>
<path d="M85129 37753 c0 -16 -4 -66 -8 -112 l-8 -84 40 -64 c22 -35 42 -62
44 -59 3 2 -12 30 -32 62 l-37 58 7 113 7 113 -6 0 c-3 0 -6 -12 -7 -27z"/>
<path d="M92790 37634 c0 -3 5 -15 11 -26 l11 -20 -11 -11 c-14 -14 -14 -27
-1 -27 5 0 14 9 20 19 l10 20 -10 25 -10 26 -10 0 c-5 0 -10 -3 -10 -6z"/>
<path d="M62190 37446 c0 -2 24 -9 53 -16 28 -7 71 -21 95 -32 l42 -20 76
-104 c42 -58 78 -103 81 -100 2 2 -29 51 -71 108 l-75 103 -28 17 c-39 23
-173 57 -173 44z"/>
<path d="M59550 37215 c0 -13 34 -72 53 -92 l20 -23 20 0 c27 0 237 63 237 71
l0 7 -116 -35 -115 -34 -25 15 -24 16 -20 40 c-18 36 -30 49 -30 35z"/>
<path d="M85440 37056 c0 -13 214 -366 222 -366 7 0 -194 343 -213 365 l-9 9
0 -8z"/>
<path d="M40763 36607 l-143 -30 0 -8 0 -8 13 4 c31 10 248 55 267 55 l20 0 1
-32 c1 -18 5 -44 10 -58 l8 -25 -5 60 c-6 62 -10 76 -22 74 -4 0 -71 -15 -149
-32z"/>
<path d="M63485 35977 c11 -8 90 -51 175 -97 85 -45 170 -92 188 -102 l32 -20
0 9 c0 8 -391 223 -406 223 -5 0 0 -6 11 -13z"/>
<path d="M84840 35610 c-54 -36 -42 -40 15 -5 l40 24 40 0 40 0 26 -22 27 -22
58 -102 c32 -57 62 -103 66 -103 4 0 -21 48 -54 108 l-61 107 -26 22 -26 22
-50 1 -50 0 -45 -30z"/>
<path d="M84916 35603 c-21 -6 -464 -288 -486 -311 l-15 -15 15 8 c8 4 119 75
246 156 l231 149 27 0 26 0 20 -20 c11 -11 33 -46 49 -78 16 -32 56 -94 88
-137 33 -44 104 -153 158 -242 54 -90 102 -163 107 -163 l9 0 -4 8 c-86 145
-210 339 -254 399 -32 43 -75 111 -96 150 l-38 72 -22 16 c-22 15 -28 16 -61
8z"/>
<path d="M52750 35253 c-53 -49 -129 -118 -170 -155 -41 -37 -72 -69 -70 -71
4 -4 263 223 330 288 l25 25 -10 0 c-6 0 -53 -39 -105 -87z"/>
<path d="M61446 35144 c-4 -9 -5 -18 -4 -19 2 -1 180 -107 397 -234 l395 -232
14 15 14 14 -23 15 c-52 32 -779 457 -783 457 -2 0 -7 -7 -10 -16z"/>
<path d="M52363 34839 c-87 -83 -160 -156 -162 -162 -4 -13 199 175 284 262
99 102 32 47 -122 -100z"/>
<path d="M38516 33632 l-5 -9 185 -134 c102 -74 188 -133 192 -132 4 1 8 6 10
11 l3 10 -181 131 c-100 72 -185 131 -190 131 -5 0 -11 -4 -14 -8z"/>
<path d="M42000 33544 c0 -27 310 -887 325 -902 18 -18 5 24 -57 183 -38 99
-112 301 -164 450 -90 254 -104 292 -104 269z"/>
<path d="M77485 32859 c-99 -9 -186 -18 -192 -18 l-13 -1 0 -20 c0 -11 1 -20
3 -20 1 0 97 9 212 20 116 11 218 20 228 20 l17 0 0 20 0 20 -37 -1 c-21 -1
-119 -10 -218 -20z"/>
<path d="M34300 32510 c0 -6 7 -25 17 -43 l16 -32 4 12 4 12 -16 30 c-16 32
-25 39 -25 21z"/>
<path d="M98907 31692 c78 -120 270 -392 276 -392 4 0 -33 60 -83 133 -51 72
-115 167 -144 209 -28 43 -55 78 -59 78 l-9 0 19 -28z"/>
<path d="M99590 30755 c0 -4 25 -41 56 -82 l55 -74 45 -91 44 -92 0 -25 c0
-14 5 -33 10 -41 l10 -15 0 12 c0 7 -5 36 -11 65 l-12 53 -29 60 -30 60 -61
80 c-33 44 -64 84 -69 90 l-8 9 0 -9z"/>
<path d="M4175 29043 c4 -115 9 -210 11 -212 2 -2 7 -2 10 2 l6 6 -7 205 -8
206 -10 0 -10 0 8 -207z"/>
<path d="M95310 26779 c-96 -71 -177 -134 -179 -140 -3 -9 325 226 359 257
l14 14 -9 -1 c-6 0 -89 -58 -185 -130z"/>
<path d="M23785 26630 c66 -10 129 -19 139 -19 l19 -1 -6 6 c-8 8 -195 34
-237 33 l-35 -1 120 -18z"/>
<path d="M90495 24839 c100 -11 338 -46 373 -55 l22 -6 0 9 0 9 -147 23 -148
23 -95 3 -95 4 90 -10z"/>
<path d="M22722 22085 c-181 -19 -225 -27 -211 -38 2 -2 95 5 206 17 l202 20
5 13 c3 7 4 12 3 12 -1 -1 -93 -12 -205 -24z"/>
<path d="M89600 21443 c0 -19 98 -414 104 -420 16 -17 11 17 -37 215 l-51 212
-8 0 c-4 0 -8 -3 -8 -7z"/>
<path d="M89897 21143 c-3 -5 20 -106 51 -225 l55 -218 19 0 c10 0 18 3 18 7
0 6 -66 272 -101 406 l-10 37 -14 0 c-8 0 -16 -3 -18 -7z"/>
<path d="M89545 20878 c-77 -71 -142 -135 -144 -141 -4 -11 65 49 224 196 39
36 68 67 65 70 -3 2 -68 -54 -145 -125z"/>
<path d="M29800 947 l-135 -101 -34 -38 -34 -39 8 -7 7 -7 37 41 36 41 138
101 c75 56 137 104 137 107 0 17 -40 -8 -160 -98z"/>
</g>
</svg>
