<?xml version="1.0" standalone="no"?>
<!DOCTYPE svg PUBLIC "-//W3C//DTD SVG 20010904//EN"
 "http://www.w3.org/TR/2001/REC-SVG-20010904/DTD/svg10.dtd">
<svg version="1.0" xmlns="http://www.w3.org/2000/svg"
 width="7500.000000pt" height="7500.000000pt" viewBox="0 0 7500.000000 7500.000000"
 preserveAspectRatio="xMidYMid meet">
<metadata>
Created by potrace 1.16, written by Peter Selinger 2001-2019
</metadata>
<g transform="translate(0.000000,7500.000000) scale(0.075000,-0.075000)"
fill="#000000" stroke="none">
<path d="M84467 99834 l-39 -166 9 -9 10 -10 27 118 c15 65 33 144 41 176 l13
57 -11 0 -12 0 -38 -166z"/>
<path d="M89040 99989 c22 -16 414 -167 419 -163 3 3 0 8 -5 13 -13 13 -397
161 -415 160 l-14 0 15 -10z"/>
<path d="M90187 99594 l6 -15 -13 -40 -13 -39 -30 -19 -29 -18 11 -7 11 -7 28
17 29 16 11 32 c7 18 12 47 12 64 l0 32 -15 0 -14 0 6 -16z"/>
<path d="M89950 99538 c0 -2 7 -25 15 -52 8 -27 15 -62 15 -78 l0 -28 15 0 15
0 -7 48 c-3 26 -12 62 -19 80 l-13 32 -10 0 c-6 0 -11 -1 -11 -2z"/>
<path d="M84386 99212 l-5 -8 48 -109 47 -110 57 -87 57 -88 11 0 10 0 -7 13
c-4 6 -33 53 -65 102 l-57 91 -42 102 c-23 56 -44 102 -46 102 -1 0 -5 -4 -8
-8z"/>
<path d="M83713 98873 l7 -11 77 -11 c43 -6 167 -15 275 -21 l196 -9 141 6
141 6 0 6 0 6 -247 -3 -248 -3 -155 15 c-85 8 -164 18 -174 22 l-19 7 6 -10z"/>
<path d="M84489 98806 c-2 -3 -77 -6 -167 -8 l-162 -3 0 -8 0 -9 187 8 188 7
25 8 25 7 -46 1 c-25 1 -48 -1 -50 -3z"/>
<path d="M85526 97980 l-108 -18 -62 -23 c-69 -25 -116 -50 -116 -61 l0 -8 38
20 c20 10 62 28 92 39 l55 21 112 17 113 18 0 7 c0 5 -3 7 -7 7 -5 -1 -57 -9
-117 -19z"/>
<path d="M88240 96294 l0 -9 148 -54 c81 -29 259 -100 395 -158 137 -58 250
-103 253 -101 5 5 -459 201 -631 266 -71 27 -138 53 -147 57 l-18 7 0 -8z"/>
<path d="M98700 94663 c0 -4 19 -19 43 -32 23 -13 97 -71 165 -129 68 -57 125
-102 128 -100 7 8 -236 210 -288 241 l-48 28 0 -8z"/>
<path d="M98145 94579 c68 -32 761 -307 764 -303 2 2 2 6 0 7 -10 9 -765 307
-774 306 -5 0 -1 -5 10 -10z"/>
<path d="M98100 94558 c9 -11 354 -148 363 -145 5 1 -67 33 -160 69 -190 76
-210 83 -203 76z"/>
<path d="M99760 93942 l0 -9 93 -36 c50 -20 106 -39 122 -43 l30 -7 -7 8 c-4
4 -35 17 -70 30 -35 12 -87 32 -115 44 l-53 21 0 -8z"/>
<path d="M57110 92793 c0 -9 399 -228 405 -221 2 2 -69 44 -158 93 -89 48
-181 99 -204 113 l-43 24 0 -9z"/>
<path d="M22390 92723 l0 -8 213 -56 212 -56 9 5 9 5 -14 7 c-16 9 -401 110
-418 110 -6 0 -11 -3 -11 -7z"/>
<path d="M86776 92712 l-4 -7 91 -61 c51 -34 115 -74 144 -90 l52 -29 45 45
c26 24 46 49 46 54 l0 10 -45 -44 -46 -45 -45 24 c-24 13 -87 52 -139 87 l-95
63 -4 -7z"/>
<path d="M22306 92530 c11 -10 195 -62 200 -57 2 2 -44 18 -102 35 -58 16
-102 27 -98 22z"/>
<path d="M22523 92463 l7 -6 7 6 6 7 -13 0 -13 0 6 -7z"/>
<path d="M22563 92453 l7 -6 7 6 6 7 -13 0 -13 0 6 -7z"/>
<path d="M22598 92443 l13 -5 6 6 6 6 -19 -1 -19 -1 13 -5z"/>
<path d="M22633 92433 l7 -6 7 6 6 7 -13 0 -13 0 6 -7z"/>
<path d="M22668 92423 l13 -5 6 6 6 6 -19 -1 -19 -1 13 -5z"/>
<path d="M82240 92175 c0 -3 45 -67 101 -142 55 -74 105 -146 111 -159 6 -13
15 -24 20 -24 l9 0 -12 23 c-15 27 -219 307 -225 307 -2 0 -4 -2 -4 -5z"/>
<path d="M23930 92032 c0 -9 406 -125 421 -120 l11 4 -148 42 c-82 23 -179 51
-216 61 l-68 20 0 -7z"/>
<path d="M53081 91740 c0 -25 6 -84 14 -132 l15 -86 25 -56 c30 -67 74 -136
87 -136 l10 0 -22 33 c-12 17 -36 64 -54 102 l-33 70 -17 110 c-24 147 -24
146 -25 95z"/>
<path d="M95266 91550 l-140 -170 -18 -6 -18 -5 0 -14 0 -14 28 10 27 11 139
166 c132 159 148 183 129 189 l-8 3 -139 -170z"/>
<path d="M81228 91152 l-397 -217 8 -8 8 -8 402 218 c220 120 401 221 401 226
0 4 -6 7 -12 7 -7 -1 -192 -98 -410 -218z"/>
<path d="M94992 91262 c-17 -21 -50 -74 -73 -118 -23 -43 -49 -86 -56 -96
l-14 -16 9 -6 9 -5 20 22 c12 12 37 54 57 94 l36 72 31 36 32 36 -10 10 -10
10 -31 -39z"/>
<path d="M60245 91102 c31 -32 349 -271 354 -266 2 2 2 6 0 7 -27 23 -348 265
-359 271 l-15 9 20 -21z"/>
<path d="M94508 91080 c-9 -6 -39 -41 -67 -79 l-50 -69 6 -6 c13 -12 21 -4 68
64 l48 70 14 0 13 0 0 15 c0 17 -8 18 -32 5z"/>
<path d="M94379 90898 c-7 -13 -84 -99 -171 -192 -87 -93 -158 -174 -158 -179
l0 -9 9 4 c17 6 323 333 337 360 l14 27 -10 6 -9 6 -12 -23z"/>
<path d="M33750 90853 l0 -11 23 -6 c12 -3 44 -6 72 -6 l49 0 144 -31 144 -30
6 5 5 6 -6 6 c-3 3 -64 19 -136 34 l-130 29 -85 7 -86 7 0 -10z"/>
<path d="M95010 90724 c0 -6 24 -34 53 -62 l54 -50 59 -30 c84 -42 214 -95
220 -89 3 2 -33 19 -78 38 -46 18 -110 49 -143 68 l-60 34 -52 51 -53 50 0
-10z"/>
<path d="M95030 90644 c62 -69 61 -68 228 -140 l122 -52 0 7 c0 4 -37 22 -82
41 -46 18 -110 47 -142 63 l-60 29 -60 57 -61 56 55 -61z"/>
<path d="M84513 90365 l-62 -83 -56 -112 -56 -112 5 -6 c8 -8 8 -8 66 108 l52
105 41 55 c22 30 51 69 64 87 l24 31 -8 5 -8 5 -62 -83z"/>
<path d="M29965 90283 c-11 -85 -56 -304 -71 -345 -16 -47 -17 -56 -5 -42 21
23 71 237 87 377 l6 57 -5 0 c-3 0 -9 -21 -12 -47z"/>
<path d="M55130 90139 l-23 -90 6 -132 7 -132 19 -65 c30 -105 73 -188 219
-433 76 -128 154 -265 172 -304 32 -70 40 -80 52 -67 l6 5 -41 91 -40 92 -130
215 -129 216 -39 87 -38 86 -15 76 -16 75 0 108 0 108 20 63 c11 35 20 70 20
78 l0 14 -13 0 -13 0 -24 -91z"/>
<path d="M30750 90145 l33 -34 140 -56 139 -56 6 6 c8 8 9 7 -138 65 l-135 53
-30 28 c-44 41 -56 36 -15 -6z"/>
<path d="M31472 89885 c2 -3 84 -16 182 -31 l178 -25 14 5 c8 3 14 11 14 17
l0 11 -13 -10 -13 -11 -164 24 c-168 25 -207 29 -198 20z"/>
<path d="M32280 89861 l0 -9 28 -6 c15 -2 109 -10 210 -17 l182 -12 7 6 c3 4
4 9 2 12 -5 4 -366 35 -411 35 l-18 0 0 -9z"/>
<path d="M33140 89741 c0 -12 6 -14 140 -45 l105 -24 150 -55 150 -55 8 5 9 5
-9 8 c-4 4 -78 33 -164 64 l-155 56 -112 25 c-127 29 -122 28 -122 16z"/>
<path d="M94061 89555 c7 -18 329 -328 334 -323 3 3 -72 79 -166 169 -95 90
-170 159 -168 154z"/>
<path d="M97580 89281 l-65 -7 -117 -63 c-65 -34 -121 -67 -124 -73 -4 -5 55
22 130 61 l136 71 63 1 c34 1 73 5 87 9 l25 8 -35 -1 c-19 0 -64 -3 -100 -6z"/>
<path d="M12460 88980 l0 -10 213 0 212 0 90 -15 90 -14 110 -34 c61 -18 131
-43 158 -55 l47 -21 0 12 0 13 -32 13 c-18 7 -87 31 -153 52 l-120 39 -90 15
-90 15 -217 0 -218 0 0 -10z"/>
<path d="M84630 88834 c-135 -30 -315 -65 -400 -78 l-155 -24 40 -1 c22 0 83
6 135 14 93 15 621 125 629 132 17 13 -34 4 -249 -43z"/>
<path d="M15976 87890 c6 -6 95 -62 199 -125 l188 -114 9 5 c5 3 8 7 6 9 -19
17 -390 235 -399 235 l-13 0 10 -10z"/>
<path d="M80620 87861 c0 -5 9 -13 21 -16 l21 -7 6 7 6 6 -14 9 c-19 12 -40
13 -40 1z"/>
<path d="M84703 87778 c-5 -7 -39 -69 -75 -138 -174 -333 -271 -528 -328 -660
-35 -80 -66 -149 -70 -153 l-7 -8 -257 71 c-241 66 -286 76 -275 66 3 -3 122
-37 264 -76 143 -39 265 -72 271 -74 l11 -4 73 166 c80 182 162 351 220 452
67 118 192 361 187 366 -2 2 -9 -1 -14 -8z"/>
<path d="M84458 87218 c-47 -90 -111 -223 -143 -296 l-58 -134 -14 -5 -14 -6
-85 23 c-47 12 -87 20 -90 17 -4 -4 84 -30 177 -52 l26 -6 64 143 c35 79 101
216 147 306 46 90 82 165 79 168 -2 2 -42 -69 -89 -158z"/>
<path d="M74007 87241 l-199 -109 11 -6 11 -7 199 108 199 107 -4 8 c-3 5 -8
8 -12 7 -4 0 -96 -49 -205 -108z"/>
<path d="M56072 87131 l-13 -8 81 -194 c45 -107 90 -212 100 -234 10 -22 53
-125 95 -230 42 -104 80 -194 85 -198 l8 -9 7 12 7 11 -87 212 c-101 247 -255
617 -264 634 l-6 12 -13 -8z"/>
<path d="M83555 86763 c-9 -43 -34 -154 -55 -248 -36 -157 -40 -189 -23 -172
5 6 112 468 113 490 0 4 -4 7 -9 7 l-9 0 -17 -77z"/>
<path d="M83586 86657 c-21 -94 -47 -207 -56 -250 l-18 -78 11 4 11 3 52 230
c54 235 60 264 47 264 l-8 0 -39 -173z"/>
<path d="M56203 86672 l-11 -7 85 -205 c47 -113 89 -209 93 -214 l8 -8 10 6
10 6 -84 198 c-46 108 -88 205 -92 214 l-7 17 -12 -7z"/>
<path d="M80002 85980 c9 -6 110 -52 225 -103 l208 -94 198 -73 c109 -40 200
-70 203 -68 2 3 -86 38 -197 78 l-201 72 -220 99 c-198 90 -263 116 -216 89z"/>
<path d="M70978 85921 l-207 -16 7 -12 8 -12 232 16 232 17 0 13 0 13 -32 -2
c-18 0 -126 -8 -240 -17z"/>
<path d="M80425 85753 c18 -18 392 -159 400 -151 3 2 -26 15 -63 28 -37 13
-123 45 -192 73 -69 27 -132 52 -140 55 l-15 5 10 -10z"/>
<path d="M56664 85582 l-11 -7 54 -125 54 -125 64 -190 63 -190 22 -155 22
-155 -7 -145 c-10 -221 -14 -249 -80 -528 -46 -199 -79 -391 -90 -526 l-7 -79
13 -78 13 -79 14 0 14 0 -9 53 -8 52 2 105 2 105 21 129 c11 72 46 234 76 360
l56 231 12 185 13 185 -28 185 -27 185 -47 144 c-42 128 -138 370 -176 443
l-14 27 -11 -7z"/>
<path d="M56250 85570 l0 -10 195 0 195 0 0 10 0 10 -195 0 -195 0 0 -10z"/>
<path d="M61310 85242 l0 -10 58 -6 c31 -4 136 -8 234 -9 l176 -2 8 8 c4 4 5
9 3 11 -2 2 -111 6 -241 10 l-238 7 0 -9z"/>
<path d="M82825 84630 l-6 -10 11 0 10 0 20 -32 19 -31 -6 -31 -5 -31 -29 -27
-29 -28 -25 0 -25 0 0 -14 0 -15 38 6 37 5 27 31 28 31 6 33 6 33 -12 31 c-21
50 -51 72 -65 49z"/>
<path d="M23166 84521 c15 -14 718 -321 734 -321 l15 1 -25 14 c-48 25 -711
315 -722 315 l-12 0 10 -9z"/>
<path d="M80080 84522 c0 -8 849 -306 855 -300 3 2 -161 62 -363 133 -202 70
-395 138 -429 151 l-63 23 0 -7z"/>
<path d="M83400 84398 c-74 -66 -154 -138 -178 -160 l-43 -39 3 -9 3 -9 182
164 183 164 -8 4 -7 5 -135 -120z"/>
<path d="M64336 84481 l-6 -9 16 -6 c20 -8 29 -1 19 13 -8 13 -22 14 -29 2z"/>
<path d="M74378 84182 c-14 -9 -49 -39 -77 -65 l-52 -49 -36 -55 -37 -55 -4
-89 -4 -89 11 0 11 0 0 72 0 72 21 44 22 44 56 60 c31 34 73 74 94 89 l38 27
-9 6 -8 5 -26 -17z"/>
<path d="M88072 84158 l4 -12 116 -36 115 -37 64 -51 c35 -29 67 -52 71 -52
20 0 3 21 -57 70 l-66 53 -122 38 c-140 45 -130 43 -125 27z"/>
<path d="M56945 84148 c-2 -7 -26 -113 -53 -235 l-49 -222 13 -5 13 -5 5 17
c3 9 26 109 51 222 25 113 48 213 51 223 l5 17 -16 0 -16 0 -4 -12z"/>
<path d="M82566 83644 c-80 -86 -146 -161 -146 -165 0 -27 23 -5 283 277 l29
32 -10 6 -11 6 -145 -156z"/>
<path d="M83088 83708 c15 -27 43 -69 63 -92 20 -22 48 -64 62 -91 l25 -51 79
-62 78 -62 53 -20 53 -20 63 0 63 0 32 11 31 11 0 13 0 13 -42 -15 -43 -15
-70 6 -70 7 -39 20 c-21 11 -68 44 -103 72 l-64 52 -29 55 -28 55 -27 25 c-14
13 -39 48 -56 76 l-29 52 -14 5 -14 6 26 -51z"/>
<path d="M77490 83622 c0 -9 419 -157 425 -150 3 3 -63 29 -147 58 -84 29
-181 63 -215 76 l-63 23 0 -7z"/>
<path d="M14060 83560 l0 -10 75 0 75 0 0 10 0 10 -75 0 -75 0 0 -10z"/>
<path d="M82107 83413 c-12 -11 -8 -23 8 -23 l15 0 0 15 c0 16 -12 20 -23 8z"/>
<path d="M47172 83369 l4 -13 205 -33 c112 -18 214 -32 227 -33 l22 0 0 8 0 8
-212 33 c-117 18 -221 35 -232 38 l-18 5 4 -13z"/>
<path d="M92666 82584 c-130 -185 -236 -340 -234 -344 2 -4 110 145 241 332
131 187 237 342 234 344 -2 3 -111 -147 -241 -332z"/>
<path d="M30791 82802 l4 -12 399 -240 399 -240 6 6 5 5 -14 10 c-14 9 -775
466 -794 477 l-9 5 4 -11z"/>
<path d="M92502 82418 c-63 -88 -112 -162 -109 -164 6 -6 229 306 225 316 -2
4 -54 -65 -116 -152z"/>
<path d="M18020 82127 l0 -13 223 -51 222 -50 4 9 c1 5 1 11 -1 13 -2 2 -95
24 -208 50 -113 25 -213 48 -222 51 l-18 5 0 -14z"/>
<path d="M94550 81969 l-121 -171 6 -6 c6 -7 -5 -21 100 128 48 69 103 146
122 173 l35 47 -10 0 -10 0 -122 -171z"/>
<path d="M23930 82087 c276 -167 750 -431 750 -419 0 4 -60 39 -132 77 -72 39
-248 139 -391 223 -143 83 -265 152 -271 152 -6 0 14 -15 44 -33z"/>
<path d="M18920 81940 l0 -13 7 6 6 7 -6 7 -7 6 0 -13z"/>
<path d="M96038 81248 c-118 -161 -263 -365 -323 -453 -94 -138 -276 -394
-407 -572 -21 -29 -35 -53 -30 -53 9 0 325 435 492 680 62 91 198 281 302 423
105 142 188 261 185 263 -2 3 -101 -127 -219 -288z"/>
<path d="M95935 81028 c-192 -269 -363 -508 -379 -531 l-30 -40 11 4 c10 3
238 319 717 992 26 37 44 67 39 66 -4 0 -165 -221 -358 -491z"/>
<path d="M62540 80975 c0 -6 46 -107 102 -226 l103 -217 7 4 6 4 -100 213
c-56 116 -105 216 -109 222 l-9 9 0 -9z"/>
<path d="M42550 80837 c0 -7 15 -59 34 -115 l35 -102 7 -105 7 -105 13 0 c8 0
14 3 14 8 0 4 -5 52 -10 106 l-10 100 -37 113 -37 113 -8 0 c-4 0 -8 -6 -8
-13z"/>
<path d="M34290 80420 l0 -40 -105 -155 c-58 -85 -105 -157 -105 -160 0 -23
32 16 120 147 l103 151 5 49 5 48 -12 0 -11 0 0 -40z"/>
<path d="M98670 80186 c0 -7 118 -75 253 -146 l138 -72 6 5 5 6 -110 55 c-60
30 -148 78 -195 106 -81 47 -97 55 -97 46z"/>
<path d="M95280 80132 l0 -10 342 -247 c187 -136 347 -249 355 -252 l13 -5 0
8 c-1 8 -679 503 -702 512 l-8 4 0 -10z"/>
<path d="M95250 80091 c0 -5 77 -66 172 -135 l171 -125 9 5 c5 3 8 7 6 9 -25
20 -349 255 -353 255 -3 0 -5 -4 -5 -9z"/>
<path d="M72670 80015 c0 -2 64 -92 141 -200 123 -169 159 -213 159 -190 0 3
-64 93 -141 200 -122 168 -159 212 -159 190z"/>
<path d="M42343 79543 c9 -2 25 -2 35 0 l17 5 -35 0 -35 0 18 -5z"/>
<path d="M96342 79361 c2 -5 62 -51 133 -102 l130 -92 53 -23 52 -24 0 10 0
10 -52 26 c-29 15 -110 67 -179 115 -122 86 -144 99 -137 80z"/>
<path d="M13151 78248 c-31 -99 -111 -404 -109 -416 l3 -14 62 228 c35 125 61
229 59 231 -2 3 -9 -11 -15 -29z"/>
<path d="M81327 78053 l-5 -9 62 -159 c34 -88 73 -184 85 -212 l23 -53 10 0 9
0 -7 23 c-3 12 -14 38 -24 57 -10 19 -46 107 -80 195 -34 88 -63 161 -65 163
-2 2 -5 0 -8 -5z"/>
<path d="M44007 77938 c-33 -54 -247 -439 -247 -445 0 -4 4 -3 9 3 8 9 210
365 245 432 19 36 14 44 -7 10z"/>
<path d="M12986 77813 c-36 -120 -106 -387 -102 -390 5 -6 14 24 71 230 26 93
44 171 42 174 -3 2 -8 -4 -11 -14z"/>
<path d="M28920 77561 c0 -5 14 -102 30 -216 l30 -207 0 -69 0 -69 10 0 10 0
0 69 0 69 -30 207 c-16 114 -30 211 -30 216 0 5 -4 9 -10 9 -5 0 -10 -4 -10
-9z"/>
<path d="M28860 77557 c0 -3 14 -89 30 -190 l30 -185 0 -97 0 -96 10 6 10 6
-1 112 0 112 -27 164 -27 164 -12 5 c-7 2 -13 1 -13 -1z"/>
<path d="M81790 77221 c0 -5 40 -56 88 -113 49 -57 108 -131 133 -166 24 -35
53 -76 64 -91 11 -16 25 -37 31 -47 l12 -19 6 6 6 6 -20 41 c-11 22 -24 44
-30 47 -6 3 -29 34 -52 68 -40 59 -208 260 -228 272 l-10 6 0 -10z"/>
<path d="M41380 77051 l0 -9 198 -105 c206 -109 259 -133 268 -124 3 3 -44 30
-104 60 -60 30 -163 85 -230 121 -128 69 -132 71 -132 57z"/>
<path d="M73208 75338 c-31 -73 -72 -170 -91 -215 l-36 -81 14 -6 13 -5 91
212 c50 117 91 215 91 220 0 4 -6 7 -13 7 l-13 0 -56 -132z"/>
<path d="M6174 74928 c-3 -5 -4 -11 -3 -13 2 -1 107 -11 232 -20 l228 -17 6 6
6 6 -6 7 c-4 3 -82 12 -174 19 -93 7 -194 15 -225 17 l-58 5 -6 -10z"/>
<path d="M7106 74894 l-5 -14 17 0 c9 0 113 -7 230 -16 l213 -16 6 6 6 6 -6 7
c-4 3 -87 12 -184 19 -98 7 -199 15 -225 18 l-46 5 -6 -15z"/>
<path d="M72822 74533 c-22 -37 -67 -117 -101 -178 -34 -60 -67 -112 -73 -116
l-10 -6 12 -8 12 -7 13 13 c37 39 203 355 191 366 -2 3 -22 -26 -44 -64z"/>
<path d="M34167 73964 l-7 -8 122 -125 123 -126 40 -22 c43 -24 55 -27 55 -15
0 4 -17 16 -37 27 l-38 20 -125 128 -125 129 -8 -8z"/>
<path d="M25310 72745 c0 -3 20 -45 43 -93 l44 -87 23 -110 c13 -60 27 -114
31 -119 l9 -10 6 6 6 6 -26 117 -26 116 -45 90 -45 89 -10 0 c-6 0 -10 -2 -10
-5z"/>
<path d="M71365 72180 c3 -5 8 -10 11 -10 3 0 2 5 -1 10 -3 6 -8 10 -11 10 -3
0 -2 -4 1 -10z"/>
<path d="M71364 72148 l-7 -11 11 7 c7 4 12 9 12 12 0 8 -9 4 -16 -8z"/>
<path d="M71990 71751 l0 -70 10 -6 10 -6 0 70 0 70 -10 6 -10 6 0 -70z"/>
<path d="M71242 68500 c-90 -21 -166 -41 -170 -44 l-5 -6 15 0 c8 0 92 18 187
40 94 22 184 40 199 40 l28 0 12 -12 12 -12 7 8 7 7 -14 9 -15 10 -50 -1 -50
-1 -163 -38z"/>
<path d="M27570 67910 l0 -10 158 0 c88 0 195 -2 238 -5 l79 -4 -40 8 -40 8
-197 7 -198 6 0 -10z"/>
<path d="M41305 67728 l-69 -193 -17 -90 c-9 -49 -15 -92 -13 -94 10 -11 21
20 33 90 l12 76 69 194 69 194 -8 8 -8 8 -68 -193z"/>
<path d="M41417 67878 c-35 -93 -129 -363 -133 -386 l-6 -30 11 -6 11 -7 0 21
c0 11 32 109 70 216 39 108 70 198 70 200 0 10 -18 3 -23 -8z"/>
<path d="M67755 67700 c82 -82 154 -150 160 -150 5 0 -58 68 -140 150 -82 83
-154 150 -160 150 -5 0 58 -67 140 -150z"/>
<path d="M67963 67550 c36 -49 43 -72 83 -255 33 -151 44 -188 44 -153 0 27
-70 330 -84 362 l-13 31 -28 25 -28 25 26 -35z"/>
<path d="M46405 67431 c-44 -9 -90 -22 -103 -29 l-24 -14 -29 -65 c-16 -36
-29 -72 -29 -81 l1 -17 31 73 31 74 28 17 28 17 95 18 c53 10 96 20 96 22 0 7
-43 2 -125 -15z"/>
<path d="M41145 67424 l-50 -13 50 5 c48 6 63 10 54 17 -2 2 -26 -2 -54 -9z"/>
<path d="M41314 67388 c9 -12 16 -26 16 -30 l0 -8 -22 -1 -23 0 20 -9 c11 -5
28 -9 38 -9 l18 -1 -22 40 c-13 22 -27 40 -31 40 l-9 0 15 -22z"/>
<path d="M44111 67365 l24 -24 3 10 c5 14 -18 39 -35 39 l-15 0 23 -25z"/>
<path d="M30355 67372 c6 -5 105 -35 220 -67 116 -32 217 -60 225 -63 l15 -5
-10 10 -10 11 -205 56 c-113 31 -214 59 -225 62 l-20 6 10 -10z"/>
<path d="M46250 67243 c1 -10 440 -246 446 -240 3 3 -68 44 -158 92 -90 48
-191 103 -225 122 l-63 35 0 -9z"/>
<path d="M39176 66991 l-6 -9 13 -10 c6 -5 22 -13 35 -16 l22 -7 0 14 0 14
-25 11 c-31 14 -32 14 -39 3z"/>
<path d="M60177 66924 l-7 -7 2 -106 2 -106 3 95 4 95 8 8 9 9 73 -21 c41 -12
95 -28 122 -36 l47 -14 0 7 0 8 -112 33 c-62 19 -120 35 -128 38 l-16 4 -7 -7z"/>
<path d="M45494 66772 c-50 -70 -115 -169 -145 -219 l-54 -93 -13 0 -13 0 6
-10 6 -10 -111 -181 c-61 -100 -109 -184 -106 -186 4 -4 22 24 161 252 37 61
69 111 70 113 2 2 90 -34 196 -78 107 -45 205 -86 219 -92 l25 -9 -10 10 c-6
6 -98 47 -205 92 -107 45 -199 85 -204 90 l-9 8 59 98 c32 53 95 147 139 208
45 60 84 116 89 123 l7 12 -8 -1 c-4 0 -49 -57 -99 -127z"/>
<path d="M37045 66799 c-187 -14 -178 -17 40 -11 l210 5 20 8 20 8 -90 -1
c-49 0 -139 -5 -200 -9z"/>
<path d="M77410 66610 c-91 -4 -187 -8 -214 -9 l-49 -1 6 -6 6 -6 220 7 221 8
0 8 0 9 -12 -2 c-7 -1 -87 -5 -178 -8z"/>
<path d="M98180 66372 c-124 -35 -227 -66 -229 -68 -1 -1 0 -7 3 -12 l6 -10
222 65 c123 35 224 66 226 68 2 2 2 8 1 13 l-4 9 -225 -65z"/>
<path d="M41276 66361 c20 -21 587 -382 591 -377 3 2 -12 15 -34 29 -21 13
-154 99 -296 191 -237 152 -288 183 -261 157z"/>
<path d="M97275 66189 c-104 -27 -318 -74 -475 -105 -157 -31 -287 -58 -289
-60 -1 -1 0 -7 3 -12 l5 -9 248 48 c213 42 699 154 712 166 3 2 0 7 -5 12 l-9
8 -190 -48z"/>
<path d="M33651 66134 l-31 -58 0 -31 0 -31 33 -31 32 -31 74 -31 c41 -17 77
-28 80 -26 6 7 5 7 -82 45 l-78 33 -24 29 c-14 16 -25 35 -25 41 0 7 14 41 30
76 38 81 32 91 -9 15z"/>
<path d="M84400 66063 c-107 -36 -197 -67 -199 -69 -2 -2 -2 -7 2 -10 l6 -6
205 68 206 69 0 7 c0 14 -20 8 -220 -59z"/>
<path d="M94464 66075 c16 -112 58 -372 62 -384 2 -8 6 -12 9 -9 6 6 -54 380
-66 403 l-9 20 4 -30z"/>
<path d="M41912 66018 c-14 -14 -16 -28 -3 -28 9 0 24 30 18 36 -2 2 -9 -2
-15 -8z"/>
<path d="M42940 65830 l0 -10 158 -103 c86 -57 163 -106 170 -111 l12 -7 0 9
c0 8 -136 102 -287 199 l-53 34 0 -11z"/>
<path d="M83701 65658 c9 -69 23 -98 89 -189 31 -41 62 -90 69 -107 8 -18 17
-32 22 -32 l9 0 -26 53 c-15 28 -46 77 -70 108 l-43 57 -21 51 -20 52 0 29 0
30 -8 0 -9 0 8 -52z"/>
<path d="M94430 65645 c-63 -12 -170 -32 -237 -45 l-123 -22 0 -15 0 -14 18 5
c18 5 455 86 465 86 4 0 7 7 7 15 0 8 -3 15 -7 14 -5 -1 -60 -11 -123 -24z"/>
<path d="M38421 64932 c-17 -141 -34 -267 -37 -279 l-4 -23 8 0 8 0 33 275
c19 151 32 277 29 280 -2 3 -19 -111 -37 -253z"/>
<path d="M38461 64927 c-18 -144 -34 -270 -37 -279 l-5 -18 8 0 9 0 33 275
c19 151 32 277 29 280 -2 3 -19 -113 -37 -258z"/>
<path d="M70430 65106 c0 -12 214 -406 218 -402 3 4 -202 392 -214 405 -2 2
-4 1 -4 -3z"/>
<path d="M70497 64893 c58 -109 110 -202 116 -208 5 -5 -23 53 -64 130 -41 77
-90 170 -109 207 -19 38 -38 68 -42 68 -3 0 41 -89 99 -197z"/>
<path d="M33288 65055 l-5 -25 8 0 9 0 0 25 c0 14 -2 25 -4 25 -2 0 -6 -11 -8
-25z"/>
<path d="M46714 64532 l-221 -397 -42 -103 c-23 -57 -40 -106 -38 -108 2 -3
27 48 54 113 l50 118 212 379 c116 209 210 383 209 388 -2 4 -102 -171 -224
-390z"/>
<path d="M40534 64845 c4 -11 30 -85 58 -165 46 -134 67 -185 68 -168 0 15
-113 334 -123 343 l-10 10 7 -20z"/>
<path d="M84006 64763 c13 -49 40 -149 60 -223 20 -74 41 -139 47 -145 l10
-10 -5 15 c-2 8 -31 113 -63 233 l-59 217 -7 0 -7 0 24 -87z"/>
<path d="M3350 64796 c0 -2 39 -26 88 -52 48 -26 129 -74 181 -107 l94 -61 18
-30 19 -31 0 13 c0 7 -5 22 -10 33 l-11 19 -72 48 c-71 48 -288 172 -300 172
-4 0 -7 -2 -7 -4z"/>
<path d="M37180 64720 l0 -20 10 0 c17 0 404 -50 428 -55 l22 -5 0 20 0 20
-22 4 c-23 5 -416 56 -430 56 l-8 0 0 -20z"/>
<path d="M50906 64654 c-9 -20 -76 -136 -147 -256 -72 -121 -129 -222 -126
-224 6 -6 287 468 294 496 8 31 -2 24 -21 -16z"/>
<path d="M37058 64572 l-5 -19 36 -12 c31 -10 423 -63 427 -58 1 1 4 11 8 23
l6 21 -117 12 c-125 14 -286 36 -326 46 l-24 6 -5 -19z"/>
<path d="M40695 64505 c30 -79 78 -230 90 -280 l15 -60 -6 53 -5 53 -41 117
c-22 64 -45 122 -51 127 l-10 10 8 -20z"/>
<path d="M36960 64442 c0 -16 -149 -1052 -155 -1079 l-5 -23 7 0 8 0 79 551
78 550 -6 6 -6 6 0 -11z"/>
<path d="M34906 64349 c-24 -106 -76 -456 -76 -508 0 -42 11 9 25 119 9 69 27
188 40 264 14 77 23 141 20 144 -2 2 -6 -6 -9 -19z"/>
<path d="M40650 64150 l0 -10 65 0 65 0 0 10 0 10 -65 0 -65 0 0 -10z"/>
<path d="M40072 64085 l-12 -25 9 0 c4 0 13 11 19 25 l12 25 -9 0 c-4 0 -13
-11 -19 -25z"/>
<path d="M40556 64083 l-18 -25 6 -30 6 -30 237 -265 c131 -146 251 -280 266
-297 l28 -31 -3 12 c-2 7 -118 141 -258 298 l-255 286 -6 24 -7 24 15 21 c8
11 13 24 11 29 l-3 9 -19 -25z"/>
<path d="M78733 64006 l-412 -51 -13 -13 -13 -13 25 5 c14 3 217 29 453 57
l427 52 0 9 0 8 -27 -1 c-16 -1 -213 -24 -440 -53z"/>
<path d="M14420 64013 c0 -5 7 -17 15 -27 8 -11 15 -25 15 -32 l0 -13 -170
-87 c-94 -48 -168 -89 -166 -91 6 -6 343 164 351 177 l6 10 -21 35 c-21 34
-30 43 -30 28z"/>
<path d="M98250 63955 c0 -2 19 -46 42 -97 22 -51 60 -147 83 -213 l42 -119
11 -4 11 -3 -38 113 c-21 62 -60 161 -86 221 l-48 107 -8 0 c-5 0 -9 -2 -9 -5z"/>
<path d="M59586 63777 l-45 -84 -38 -15 c-21 -9 -76 -32 -123 -52 l-85 -36 20
0 20 0 108 47 107 47 45 84 c25 47 44 87 41 89 -2 2 -24 -34 -50 -80z"/>
<path d="M76600 63809 l-145 -7 -82 5 -83 6 0 -11 0 -10 107 -7 106 -8 101 7
c56 4 125 10 154 13 l52 6 0 8 0 9 -32 -2 c-18 -1 -98 -5 -178 -9z"/>
<path d="M76810 63756 l0 -13 43 -6 c23 -4 54 -9 70 -13 l27 -6 0 10 0 10 -47
16 c-26 9 -57 16 -70 16 l-23 0 0 -14z"/>
<path d="M76996 63682 l-6 -11 11 -6 10 -7 6 6 7 6 -11 11 -11 11 -6 -10z"/>
<path d="M41270 63574 c0 -9 233 -273 254 -286 26 -17 24 -6 -3 20 -16 15 -75
79 -131 142 -57 63 -107 119 -111 125 l-9 9 0 -10z"/>
<path d="M13130 63532 l-75 -17 -3 -23 -3 -22 20 -26 21 -27 56 -35 c30 -19
57 -32 60 -30 2 3 -20 20 -50 38 l-55 34 -21 28 -22 29 6 14 5 13 75 13 76 13
0 8 c0 10 3 10 -90 -10z"/>
<path d="M89663 63303 l-213 -217 9 -9 8 -8 220 221 c121 121 217 222 215 225
-3 3 -10 5 -16 5 l-11 0 -212 -217z"/>
<path d="M16585 63445 c-44 -19 -84 -36 -90 -38 l-10 -4 7 -8 7 -7 95 37 96
37 0 9 0 9 -12 -1 c-7 0 -49 -16 -93 -34z"/>
<path d="M23608 63328 c-76 -156 -94 -198 -84 -198 8 0 167 333 163 343 l-3
10 -76 -155z"/>
<path d="M40647 63424 l-6 -7 63 -71 c34 -39 93 -111 131 -159 l68 -88 10 10
11 11 -15 17 c-8 10 -66 77 -129 148 -63 72 -117 133 -120 138 l-6 7 -7 -6z"/>
<path d="M2505 63389 l36 -32 6 7 6 6 -23 25 -23 25 -19 0 -19 0 36 -31z"/>
<path d="M41580 63363 c-6 -32 -13 -63 -15 -70 l-4 -11 13 -5 13 -5 11 63 c14
75 15 85 3 85 l-10 0 -11 -57z"/>
<path d="M16357 63315 l-17 -36 0 -39 0 -40 29 -32 29 -33 7 7 7 7 -26 31 -26
32 0 28 c0 15 7 44 15 63 17 42 18 47 7 47 -5 0 -16 -16 -25 -35z"/>
<path d="M41999 63333 c24 -46 510 -597 518 -589 3 3 -85 105 -194 228 -110
123 -227 258 -262 301 -61 75 -81 95 -62 60z"/>
<path d="M41960 63323 c0 -16 78 -113 192 -237 51 -56 147 -163 212 -238 66
-76 122 -135 124 -133 3 3 -20 33 -50 67 -314 359 -427 490 -450 519 l-27 34
-1 -12z"/>
<path d="M13190 63314 c0 -5 35 -30 78 -56 l77 -46 104 -27 c58 -15 115 -31
128 -36 13 -5 23 -7 23 -4 0 10 -48 28 -152 55 l-112 29 -45 29 c-26 15 -58
36 -73 46 l-28 18 0 -8z"/>
<path d="M43956 63264 c-3 -9 -6 -33 -6 -53 0 -52 47 -397 61 -446 12 -44 56
-115 71 -115 l10 0 -30 38 -29 37 -12 55 c-7 30 -23 136 -37 235 l-24 180 6
43 c6 42 1 56 -10 26z"/>
<path d="M43845 63030 c-38 -9 -82 -22 -96 -28 l-27 -11 -228 -196 c-126 -108
-231 -202 -233 -208 l-4 -12 24 21 c13 11 119 102 234 200 l210 180 40 17 c22
9 73 24 113 33 39 8 72 17 72 20 0 7 -33 2 -105 -16z"/>
<path d="M15070 62993 l0 -32 10 -6 10 -6 0 23 c0 13 -5 30 -10 38 l-10 15 0
-32z"/>
<path d="M43926 63011 c-3 -4 -41 -16 -84 -26 l-79 -18 -94 -75 c-52 -41 -160
-133 -241 -203 l-148 -128 8 -4 7 -5 150 130 c83 72 188 162 233 200 l84 70
71 19 c40 10 79 19 87 19 l16 0 18 -127 19 -128 18 -35 c9 -19 30 -46 45 -60
l27 -25 -25 35 c-15 19 -33 53 -42 75 l-15 40 -16 108 -17 108 5 14 6 13 -14
6 -14 5 -5 -8z"/>
<path d="M16086 62970 l-149 -5 -5 -12 -4 -13 114 0 c62 0 164 3 226 7 l112 6
0 14 0 13 -72 -2 c-40 -1 -140 -5 -222 -8z"/>
<path d="M58658 62922 c-37 -20 -68 -41 -68 -45 l0 -8 78 42 78 43 598 -50
597 -50 4 6 4 6 -572 47 c-315 26 -590 47 -612 47 l-40 -1 -67 -37z"/>
<path d="M17055 62904 c-159 -12 -294 -23 -299 -23 -5 -1 -7 -3 -4 -6 3 -3
128 4 279 16 151 11 362 24 469 28 l195 8 -175 0 -175 0 -290 -23z"/>
<path d="M58703 62906 c-18 -8 -125 -78 -237 -155 l-204 -141 -16 6 -16 6 4
-13 5 -14 -232 -185 c-127 -102 -329 -263 -450 -359 -120 -95 -216 -175 -214
-178 5 -4 261 195 680 531 l239 191 11 -3 c7 -2 94 -37 195 -79 101 -41 185
-73 188 -70 3 2 -80 39 -183 82 -103 42 -189 78 -191 80 -5 4 364 254 416 281
l50 26 120 -11 c66 -6 131 -10 144 -10 l23 2 -45 7 c-25 4 -92 11 -150 14
l-105 6 -32 -14z"/>
<path d="M16670 62800 l0 -90 10 0 10 0 0 90 0 90 -10 0 -10 0 0 -90z"/>
<path d="M12540 62800 l-45 -8 160 6 c88 2 162 6 164 8 8 7 -233 1 -279 -6z"/>
<path d="M89139 62721 c-68 -81 -199 -255 -199 -264 0 -4 6 -7 13 -7 l12 1 75
102 c41 56 99 129 127 163 l53 62 -13 5 -13 5 -55 -67z"/>
<path d="M49130 62656 c0 -6 97 -69 120 -78 8 -3 63 -26 123 -51 l107 -46 0 8
c0 4 -48 27 -107 50 -60 24 -135 60 -168 79 -77 45 -75 44 -75 38z"/>
<path d="M45634 62614 c3 -9 6 -17 6 -20 0 -2 14 -11 30 -19 l31 -16 9 6 c6 3
10 10 10 16 l0 9 -15 0 -15 0 -20 20 c-11 11 -25 20 -31 20 l-11 0 6 -16z"/>
<path d="M16706 62569 c-2 -8 -10 -32 -17 -54 -6 -22 -68 -149 -136 -283 -69
-134 -123 -245 -121 -248 3 -2 64 110 136 249 l130 254 12 43 11 42 -5 5 -6 6
-4 -14z"/>
<path d="M58251 62566 c4 -5 308 -134 369 -158 l25 -9 -10 10 c-5 5 -91 44
-189 85 -159 68 -209 86 -195 72z"/>
<path d="M27430 62460 c-96 -49 -171 -89 -167 -89 5 -1 85 36 178 81 l169 81
0 9 c0 11 19 19 -180 -82z"/>
<path d="M89022 62421 c2 -5 81 -75 176 -156 l174 -146 11 4 11 3 -180 152
c-98 84 -183 152 -187 152 l-9 0 4 -9z"/>
<path d="M88992 62380 l4 -15 174 -147 173 -147 9 5 10 6 -9 7 c-41 36 -332
280 -347 291 l-19 15 5 -15z"/>
<path d="M42418 62122 c-125 -109 -233 -204 -240 -211 l-13 -13 12 3 c30 10
496 423 471 419 -2 -1 -105 -90 -230 -198z"/>
<path d="M64090 62230 l0 -10 230 0 230 0 0 10 0 10 -230 0 -230 0 0 -10z"/>
<path d="M17330 62202 c0 -6 313 -199 341 -210 l9 -4 0 10 0 9 -169 102 c-93
55 -172 101 -175 101 -3 0 -6 -3 -6 -8z"/>
<path d="M48315 62174 c-53 -82 -185 -307 -182 -311 3 -2 50 71 106 163 56 92
100 169 98 171 -3 2 -12 -8 -22 -23z"/>
<path d="M65950 62190 l0 -10 224 0 225 0 6 10 6 10 -230 0 -231 0 0 -10z"/>
<path d="M56483 62121 c-54 -49 -218 -233 -235 -264 l-10 -19 20 11 c22 12
287 310 281 315 -2 2 -27 -17 -56 -43z"/>
<path d="M49050 62063 c1 -4 26 -26 58 -48 31 -22 112 -84 180 -138 68 -55
125 -97 128 -95 6 6 -302 251 -353 282 l-13 7 0 -8z"/>
<path d="M63164 62005 c4 -16 23 -106 42 -199 31 -153 45 -205 44 -165 -1 29
-78 380 -85 387 l-8 7 7 -30z"/>
<path d="M15701 61937 c-123 -33 -220 -62 -214 -64 14 -5 435 107 448 119 l9
8 -9 -1 c-6 0 -111 -28 -234 -62z"/>
<path d="M94391 61973 c0 -5 68 -52 152 -105 l152 -96 29 -8 29 -7 -7 12 c-4
6 -13 11 -20 11 -7 0 -83 45 -169 100 -157 101 -167 106 -166 93z"/>
<path d="M62680 61960 c0 -5 5 -10 10 -10 6 0 10 5 10 10 0 6 -4 10 -10 10 -5
0 -10 -4 -10 -10z"/>
<path d="M59856 61814 c-32 -36 -101 -126 -152 -201 l-94 -136 0 -15 0 -16 31
50 c61 95 173 250 227 312 30 34 53 65 50 67 -2 3 -31 -25 -62 -61z"/>
<path d="M44056 61728 c184 -206 224 -248 224 -238 0 12 -332 380 -342 380 -6
0 48 -64 118 -142z"/>
<path d="M59872 61772 c-62 -74 -185 -253 -223 -323 l-11 -21 10 5 c5 4 42 59
83 123 l74 116 72 85 c61 70 85 106 71 102 -2 0 -36 -39 -76 -87z"/>
<path d="M48110 61781 l0 -9 201 -112 201 -112 10 10 9 9 -201 112 c-111 61
-205 111 -210 111 -6 0 -10 -4 -10 -9z"/>
<path d="M56200 61763 c-19 -7 -30 -24 -24 -35 9 -14 21 -8 32 17 6 14 11 25
9 24 -1 0 -9 -3 -17 -6z"/>
<path d="M60290 61734 c0 -3 34 -21 76 -40 136 -62 214 -93 214 -86 0 4 -57
32 -127 62 -157 68 -163 71 -163 64z"/>
<path d="M61340 61692 c-118 -24 -217 -46 -219 -48 -2 -2 -2 -7 2 -10 l6 -6
208 42 c187 38 236 52 222 63 -2 2 -101 -16 -219 -41z"/>
<path d="M38785 61703 c6 -5 66 -25 135 -44 l125 -34 260 1 260 1 89 16 c49 9
91 19 94 22 8 8 -5 6 -119 -11 l-104 -16 -240 0 -240 0 -115 31 c-63 18 -124
34 -135 38 l-20 5 10 -9z"/>
<path d="M57826 61681 c7 -7 832 -369 884 -388 l15 -6 -10 11 c-9 10 -879 392
-893 392 -3 0 -2 -4 4 -9z"/>
<path d="M63371 61193 c49 -241 89 -442 89 -447 l0 -9 6 6 6 6 -89 440 c-48
243 -91 441 -94 441 -4 0 33 -197 82 -437z"/>
<path d="M55570 61601 c0 -16 79 -438 86 -464 3 -10 8 -17 10 -15 4 5 -84 479
-91 486 -3 3 -5 0 -5 -7z"/>
<path d="M77726 61462 l-5 -9 50 -189 c27 -104 52 -195 55 -203 l5 -14 9 9 8
9 -53 199 c-30 109 -56 200 -59 203 -2 2 -7 0 -10 -5z"/>
<path d="M56970 61354 c-69 -52 -132 -99 -140 -104 l-15 -8 6 -6 6 -6 134 101
c74 55 138 104 144 110 l9 9 -9 -1 c-6 0 -66 -43 -135 -95z"/>
<path d="M60252 61259 l-153 -151 6 -6 5 -6 43 39 c98 91 267 260 267 267 0
19 -24 -2 -168 -143z"/>
<path d="M54550 61373 c0 -11 82 -364 101 -437 6 -21 12 -36 15 -33 5 5 -102
466 -110 475 l-6 5 0 -10z"/>
<path d="M28826 61264 c-92 -47 -166 -87 -163 -90 3 -3 85 35 183 85 99 49
172 90 164 90 -8 0 -91 -38 -184 -85z"/>
<path d="M57690 61318 l-125 -31 -37 10 -38 10 0 -7 c0 -10 37 -20 72 -20 28
0 278 57 287 65 10 10 -39 2 -159 -27z"/>
<path d="M57870 61335 c0 -6 245 -400 268 -430 l14 -20 -6 19 c-8 23 -265 436
-272 436 -2 0 -4 -2 -4 -5z"/>
<path d="M57714 61283 l-139 -33 -37 5 c-20 3 -45 8 -55 11 l-18 7 10 -11 11
-12 44 -6 45 -5 130 29 c71 17 133 28 136 26 14 -9 274 -422 384 -611 99 -170
135 -223 135 -199 0 10 -235 399 -340 561 -68 105 -133 208 -145 230 l-21 41
-140 -33z"/>
<path d="M58710 61251 c0 -3 64 -34 143 -68 78 -34 168 -73 200 -87 l57 -26 0
8 c0 4 -90 46 -200 94 -110 47 -200 83 -200 79z"/>
<path d="M63334 61165 c3 -11 44 -207 91 -435 47 -228 90 -424 95 -435 l10
-20 -4 25 c-2 14 -44 214 -92 445 l-87 420 -10 10 -9 10 6 -20z"/>
<path d="M56690 61145 c0 -5 291 -398 311 -419 l9 -10 6 7 7 6 -158 211 c-137
183 -175 227 -175 205z"/>
<path d="M53351 61092 c-2 -24 92 -487 96 -475 4 12 -73 423 -87 463 l-8 25
-1 -13z"/>
<path d="M18831 61085 c3 -2 70 -12 150 -20 79 -9 175 -23 212 -31 70 -14 115
-18 105 -9 -8 8 -159 34 -298 50 -130 15 -177 18 -169 10z"/>
<path d="M57144 60735 c3 -8 32 -54 64 -102 33 -49 71 -111 85 -140 15 -28 31
-54 37 -58 5 -3 10 -11 10 -16 l0 -10 -10 6 -10 6 24 -65 c22 -58 43 -150 38
-168 l-2 -7 14 5 13 5 -13 64 c-12 55 -24 90 -52 149 -3 5 12 -7 32 -27 45
-45 174 -137 193 -137 17 0 17 16 0 23 -7 3 -49 32 -93 66 l-81 60 -40 54
c-23 29 -42 60 -44 68 -6 22 -153 238 -163 239 l-8 0 6 -15z"/>
<path d="M78004 60698 l-8 -12 14 -4 c8 -3 24 -16 37 -30 l23 -25 0 -22 0 -21
-22 -30 -23 -31 -12 4 -13 5 0 -17 0 -17 14 5 14 5 10 -10 11 -11 81 13 81 13
25 19 c14 11 23 23 20 26 -3 2 -13 -1 -21 -8 l-16 -13 -72 -13 c-40 -7 -78
-13 -86 -13 l-14 -1 20 23 21 22 7 32 6 32 -16 30 -15 31 -30 15 -29 15 -7
-12z"/>
<path d="M59071 60644 c-117 -29 -216 -56 -219 -59 -18 -17 28 -9 236 42 l232
57 0 8 0 8 -17 -1 c-10 -1 -114 -25 -232 -55z"/>
<path d="M60315 60605 l-79 -44 -268 -227 c-148 -125 -266 -229 -263 -232 3
-3 18 6 33 20 15 13 131 113 259 222 l232 196 88 51 c94 55 101 59 87 59 -5 0
-45 -20 -89 -45z"/>
<path d="M55409 60600 c30 -17 56 -28 58 -26 6 5 -83 56 -99 56 l-13 0 54 -30z"/>
<path d="M61354 60603 c5 -16 79 -375 225 -1086 36 -174 45 -207 55 -196 2 2
-16 94 -40 204 -23 110 -85 401 -136 647 l-93 448 -8 0 -8 0 5 -17z"/>
<path d="M61320 60599 c0 -8 23 -122 50 -254 28 -132 50 -245 50 -251 l0 -11
-207 -43 c-115 -24 -210 -45 -212 -47 -2 -1 -2 -6 1 -9 l6 -5 191 40 c106 23
200 41 210 41 l18 0 73 -360 c40 -198 71 -362 69 -365 -6 -5 -391 -87 -394
-83 -1 2 -17 79 -35 173 -19 93 -35 164 -37 158 -3 -7 10 -82 27 -168 l32
-157 -6 -13 -5 -13 14 -6 14 -5 3 9 3 8 193 41 c106 23 195 41 197 41 3 0 5
-6 5 -13 l0 -13 -207 -43 c-114 -23 -210 -44 -212 -47 -14 -14 26 -8 212 30
l207 43 5 -21 c3 -12 19 -88 35 -170 17 -82 32 -152 35 -154 14 -15 10 18 -21
172 l-34 168 6 10 7 10 -14 8 -13 8 13 16 13 16 -14 0 -14 0 -28 148 c-15 81
-46 239 -69 352 -22 113 -41 214 -42 225 -1 11 -5 27 -8 35 -4 8 -30 125 -57
260 -46 222 -60 279 -60 239z"/>
<path d="M83248 60521 c-82 -47 -148 -88 -148 -91 0 -3 32 -57 71 -120 40 -63
109 -185 153 -270 45 -85 122 -218 171 -295 128 -202 299 -507 525 -936 l198
-375 11 -42 12 -42 10 0 10 0 -6 10 -6 10 28 11 c67 27 423 204 415 207 -5 1
-101 -42 -212 -98 -112 -55 -211 -100 -221 -100 l-17 0 -7 28 c-9 39 -332 652
-493 937 -74 132 -178 307 -229 388 -51 82 -126 210 -165 285 -40 75 -107 195
-150 265 l-79 128 6 8 c3 5 65 44 137 86 147 86 143 83 137 89 -2 2 -70 -35
-151 -83z"/>
<path d="M55516 60580 l11 -11 39 -5 39 -4 -45 15 c-54 18 -57 18 -44 5z"/>
<path d="M55570 60534 c-14 -7 -29 -15 -35 -17 l-10 -4 7 -7 6 -8 23 13 c13 7
38 15 57 20 l33 7 207 -57 c114 -32 218 -61 232 -66 l25 -7 -10 10 -10 10
-222 61 -221 61 -29 -1 -28 -1 -25 -14z"/>
<path d="M96221 60493 c-7 -16 -31 -73 -53 -128 -22 -55 -60 -137 -85 -183
-25 -46 -43 -85 -41 -87 7 -8 97 170 147 294 28 68 50 126 48 128 -2 2 -9 -9
-16 -24z"/>
<path d="M55635 60500 l-6 -10 15 0 c9 0 311 -81 672 -180 360 -99 661 -180
668 -180 6 0 30 -13 52 -29 21 -16 60 -37 84 -47 58 -22 92 -48 108 -82 l13
-27 -6 30 -6 30 -26 20 c-14 11 -53 31 -86 45 l-61 26 -4 13 -5 14 22 -6 21
-5 0 8 0 7 -55 7 -55 6 -658 180 c-361 99 -662 182 -669 185 l-12 4 -6 -9z"/>
<path d="M55514 60463 l4 -23 -25 -112 c-14 -62 -70 -284 -125 -493 -55 -209
-124 -471 -153 -582 l-53 -203 8 0 9 0 10 38 c5 20 32 125 60 232 28 107 95
368 150 580 54 212 107 420 116 463 l17 79 -11 21 -12 22 5 -22z"/>
<path d="M77980 60450 c0 -6 37 -156 81 -335 l81 -325 10 0 10 0 -4 13 c-3 6
-40 157 -83 335 l-79 322 -8 0 c-4 0 -8 -5 -8 -10z"/>
<path d="M62308 60302 c-230 -47 -418 -88 -418 -92 l0 -6 413 83 c226 46 421
87 432 92 l20 10 -15 -1 c-8 0 -203 -39 -432 -86z"/>
<path d="M58365 60288 l35 -73 29 -32 28 -33 31 0 c17 0 64 7 104 15 l73 16
13 -18 c36 -48 247 -502 368 -791 35 -84 68 -160 73 -170 73 -125 -230 578
-370 860 l-68 136 -88 -19 c-48 -10 -95 -19 -106 -19 l-18 0 -34 37 -34 37
-26 63 -27 63 -9 0 -8 0 34 -72z"/>
<path d="M57201 60279 l-24 -48 -36 -25 c-41 -29 -34 -35 10 -9 l30 18 25 43
25 43 -3 13 -3 13 -24 -48z"/>
<path d="M56790 60225 c124 -35 243 -67 265 -70 l40 -6 84 10 c46 6 86 13 89
16 12 11 -6 12 -63 4 -33 -5 -85 -9 -115 -10 l-55 -1 -217 61 c-119 34 -225
61 -235 60 -10 0 83 -29 207 -64z"/>
<path d="M57835 60264 c-44 -14 -120 -33 -168 -43 -84 -18 -106 -26 -96 -35
11 -11 365 77 384 95 l9 9 -24 -1 c-14 -1 -61 -12 -105 -25z"/>
<path d="M62185 60239 c-77 -16 -173 -36 -212 -45 l-73 -15 0 -8 0 -8 225 45
225 45 0 8 c0 12 -4 11 -165 -22z"/>
<path d="M58636 60229 c-60 -14 -57 -20 5 -13 l54 6 128 -259 c70 -142 127
-261 127 -265 0 -12 62 -140 66 -136 7 8 -163 383 -243 536 l-75 142 -11 -1
c-7 -1 -30 -5 -51 -10z"/>
<path d="M57310 60190 l0 -13 7 6 6 7 -6 7 -7 6 0 -13z"/>
<path d="M87075 60077 c-72 -67 -150 -139 -174 -160 l-45 -37 10 -10 9 -9 90
81 c50 44 127 117 173 161 l83 80 -8 8 -8 8 -130 -122z"/>
<path d="M57425 60175 l-60 -12 17 -7 17 -8 55 12 56 11 0 10 0 9 -12 -1 c-7
-1 -40 -7 -73 -14z"/>
<path d="M61873 60165 c3 -11 20 -92 37 -180 34 -177 40 -199 46 -192 3 2 -12
87 -32 188 l-37 184 -10 10 -9 10 5 -20z"/>
<path d="M61920 60150 c0 -10 93 -465 142 -692 l10 -48 9 0 10 0 -6 9 c-3 5
-39 173 -81 372 -68 330 -84 398 -84 359z"/>
<path d="M91060 59906 c0 -9 283 -341 294 -345 l11 -4 -16 19 c-267 318 -289
344 -289 330z"/>
<path d="M86559 59764 c-90 -69 -166 -131 -168 -137 l-4 -12 14 11 c8 6 85 66
172 133 141 110 166 131 153 131 -2 0 -77 -57 -167 -126z"/>
<path d="M63620 59822 c0 -6 30 -149 66 -319 68 -318 185 -893 374 -1828 60
-297 152 -740 205 -984 l96 -444 -16 -17 c-8 -9 -15 -23 -15 -31 l0 -14 24 30
c13 16 22 33 20 36 -4 7 -182 837 -190 888 -8 48 -69 348 -144 706 -33 160
-96 468 -140 685 -94 470 -268 1291 -275 1298 -3 3 -5 0 -5 -6z"/>
<path d="M77964 59628 c3 -13 11 -47 17 -75 l12 -53 9 0 c11 0 10 12 -8 85
l-16 65 -10 0 -10 0 6 -22z"/>
<path d="M24852 59635 c4 -4 33 -14 65 -21 l58 -14 85 0 c84 0 199 -13 236
-26 l19 -7 -10 11 -10 11 -70 10 c-39 6 -128 15 -200 20 -71 5 -141 13 -155
17 l-25 7 7 -8z"/>
<path d="M53258 59578 c-29 -56 -48 -98 -43 -98 7 0 77 132 72 137 -3 3 -16
-15 -29 -39z"/>
<path d="M62712 59569 c-106 -20 -196 -40 -199 -43 l-6 -6 7 0 c14 0 391 73
395 77 14 11 -25 6 -197 -28z"/>
<path d="M50381 59503 c-103 -129 -291 -380 -291 -387 l0 -10 9 10 c14 16 307
398 315 412 15 25 -4 11 -33 -25z"/>
<path d="M55326 59509 c-3 -8 -57 -212 -121 -454 -64 -242 -119 -447 -122
-455 -3 -8 -7 -22 -8 -30 -1 -8 -28 -111 -59 -229 -31 -117 -55 -216 -52 -218
5 -5 20 47 77 264 23 88 45 167 50 174 l7 13 319 -92 c175 -50 440 -123 588
-162 149 -39 337 -91 419 -116 l148 -45 6 5 c3 3 3 7 1 9 -9 8 -268 80 -489
137 -129 33 -405 109 -612 168 l-378 107 0 15 c0 8 54 217 120 465 65 247 117
451 115 454 -3 2 -7 -2 -9 -10z"/>
<path d="M22488 59403 l-94 -98 -32 -68 -32 -67 1 -28 0 -27 13 40 c7 22 24
62 36 89 l24 50 99 103 c55 57 95 103 90 103 -6 0 -53 -44 -105 -97z"/>
<path d="M57081 59448 c-5 -13 -32 -84 -61 -158 -29 -74 -63 -164 -76 -198
l-25 -64 12 4 12 4 82 212 83 212 -9 6 -9 5 -9 -23z"/>
<path d="M44369 59422 c31 -44 112 -123 161 -157 l40 -28 8 7 7 8 -30 21 c-16
12 -70 58 -120 102 l-89 80 23 -33z"/>
<path d="M46981 59412 c-6 -12 -11 -32 -11 -46 l0 -26 9 0 8 0 7 41 c8 48 2
60 -13 31z"/>
<path d="M61826 59387 c-104 -23 -184 -43 -178 -45 14 -4 357 65 387 78 l20 9
-20 -1 c-11 0 -105 -19 -209 -41z"/>
<path d="M59615 59317 c-247 -49 -452 -92 -454 -94 -18 -14 61 0 484 87 264
54 467 98 450 98 -16 0 -232 -41 -480 -91z"/>
<path d="M63755 59378 c4 -14 150 -727 335 -1643 61 -302 156 -760 211 -1016
54 -256 99 -469 99 -474 l0 -7 14 5 14 5 21 -14 21 -15 0 -33 0 -33 -18 -16
-19 -17 -29 0 -30 0 -12 12 -12 12 -6 -6 -6 -6 24 -16 25 -16 31 6 31 6 21 23
22 24 -9 38 -9 38 -29 15 c-17 8 -31 15 -32 16 -7 1 -185 851 -354 1684 -105
514 -213 1049 -241 1188 l-52 252 -7 0 -8 0 4 -12z"/>
<path d="M85852 59169 l-222 -150 0 -11 0 -10 16 6 c19 7 412 272 432 291 l14
13 -9 5 -10 6 -221 -150z"/>
<path d="M76330 59000 l0 -220 10 0 10 0 0 220 0 220 -10 0 -10 0 0 -220z"/>
<path d="M50034 59175 c22 -19 44 -35 50 -35 l11 1 -30 25 c-16 14 -39 29 -50
35 l-20 10 39 -36z"/>
<path d="M61131 59206 c-1 -15 239 -1159 244 -1165 10 -9 4 19 -110 574 -102
494 -132 624 -134 591z"/>
<path d="M91641 59173 c22 -26 310 -255 315 -250 3 2 -57 54 -133 115 -76 60
-147 119 -157 131 -11 12 -23 21 -29 21 l-9 0 13 -17z"/>
<path d="M17613 58902 c-132 -84 -151 -99 -195 -155 -47 -58 -26 -55 31 6 l50
53 126 79 c109 68 145 97 118 94 -5 0 -63 -35 -130 -77z"/>
<path d="M50400 58873 c1 -7 144 -118 293 -227 l40 -30 -5 14 -5 15 -154 117
c-147 113 -170 127 -169 111z"/>
<path d="M63133 58628 c22 -106 41 -195 43 -197 2 -2 7 -2 10 1 l5 6 -38 191
-37 191 -11 0 -11 0 39 -192z"/>
<path d="M84010 58748 c0 -3 35 -71 77 -150 42 -78 87 -170 99 -203 l23 -60 0
16 c1 31 -26 94 -104 239 -72 135 -95 173 -95 158z"/>
<path d="M51193 58570 l37 -55 0 -31 0 -32 -26 -17 -25 -16 -31 6 -31 7 7 -11
7 -11 30 0 30 0 23 15 24 16 6 35 7 34 -30 43 c-16 24 -37 50 -47 58 l-18 14
37 -55z"/>
<path d="M56735 58548 c-7 -18 -120 -311 -250 -651 l-237 -618 6 -6 c3 -4 8
-4 10 -2 2 2 115 294 251 649 136 355 249 648 252 653 l4 7 -11 0 -11 0 -14
-32z"/>
<path d="M61518 58517 c-109 -29 -198 -55 -198 -59 l0 -6 213 55 c116 30 214
57 216 59 12 11 -52 -2 -231 -49z"/>
<path d="M61540 58483 c-211 -53 -228 -59 -219 -67 5 -6 428 99 436 108 16 15
-17 9 -217 -41z"/>
<path d="M61341 58394 c-1 -20 68 -337 75 -343 l7 -6 -6 25 c-3 14 -17 85 -32
159 -15 74 -31 144 -35 155 l-9 21 0 -11z"/>
<path d="M84048 58262 l-178 -65 0 -15 0 -14 13 4 c6 3 90 33 185 68 l172 63
0 14 c0 17 10 20 -192 -55z"/>
<path d="M63290 58292 c0 -8 51 -258 65 -319 l5 -23 11 0 10 0 -5 18 c-2 9
-19 88 -37 175 l-32 157 -8 0 c-5 0 -9 -4 -9 -8z"/>
<path d="M56315 58203 c13 -12 233 -78 240 -71 3 3 -46 20 -107 38 -62 18
-120 35 -128 38 l-15 5 10 -10z"/>
<path d="M63021 58010 c-161 -35 -219 -50 -184 -50 18 0 397 81 402 85 10 10
-41 2 -218 -35z"/>
<path d="M62505 57859 c-385 -81 -774 -164 -864 -182 l-164 -34 9 -5 9 -5 865
183 c476 100 872 185 880 187 l15 5 -25 0 c-14 0 -340 -67 -725 -149z"/>
<path d="M75443 58003 l7 -6 7 6 6 7 -13 0 -13 0 6 -7z"/>
<path d="M46276 57971 l-6 -9 46 -57 47 -57 74 -131 c41 -73 79 -136 84 -141
l9 -10 0 13 c0 7 -32 70 -71 141 l-72 128 -53 66 -52 67 -6 -10z"/>
<path d="M55257 57760 c-224 -27 -413 -51 -420 -54 l-12 -4 20 -1 c36 -1 856
97 862 103 l6 6 -24 -1 c-13 -1 -208 -23 -432 -49z"/>
<path d="M55490 57749 c-118 -16 -216 -28 -217 -29 -2 0 -3 -4 -3 -8 l0 -8
216 27 c194 24 236 32 223 42 -2 2 -101 -9 -219 -24z"/>
<path d="M51085 57650 l-6 -10 6 -10 6 -10 10 5 c5 4 9 13 9 21 l0 14 -9 0
c-6 0 -13 -4 -16 -10z"/>
<path d="M51168 57652 l-48 -3 0 -10 0 -9 58 0 57 0 158 -36 158 -37 6 7 c3 3
4 8 2 10 -2 2 -80 21 -174 42 l-170 39 -47 -3z"/>
<path d="M46547 57590 l17 -30 15 0 15 0 -29 30 c-16 17 -30 30 -32 30 -2 0 4
-13 14 -30z"/>
<path d="M80820 57575 l-85 -23 -90 -41 c-148 -69 -226 -111 -315 -172 l-85
-58 -111 -103 -112 -103 -127 -145 c-178 -202 -267 -292 -358 -362 l-78 -59
-62 -30 -62 -29 -100 -1 -100 -1 -75 20 c-41 11 -83 23 -93 27 l-17 7 5 -14 6
-14 47 -13 c26 -7 73 -19 104 -26 l57 -12 97 5 98 5 56 24 55 25 65 48 65 49
121 123 c66 68 168 177 226 243 l106 120 103 95 104 96 100 69 100 69 150 72
150 72 78 18 77 18 0 13 c0 16 4 16 -100 -12z"/>
<path d="M33702 57498 l-12 -12 0 -27 0 -27 16 -6 c23 -9 28 -2 10 13 l-14 12
5 19 5 20 23 0 24 0 6 -21 7 -21 -13 -9 -13 -8 7 -7 7 -8 16 16 16 16 -14 28
-13 29 -25 3 -25 3 -13 -13z"/>
<path d="M27950 57326 c-61 -23 -312 -148 -307 -153 3 -2 69 28 148 68 l144
73 60 12 60 12 -35 1 -35 0 -35 -13z"/>
<path d="M63626 56668 c41 -200 81 -396 90 -435 l15 -73 10 0 11 0 -8 33 c-4
17 -44 212 -88 431 l-82 400 -11 3 -11 4 74 -363z"/>
<path d="M78740 56913 c0 -10 8 -70 18 -134 l18 -116 23 -36 c12 -21 32 -44
44 -53 l22 -16 -20 7 c-11 4 -44 11 -73 16 l-52 7 -38 -10 c-20 -5 -52 -19
-70 -30 l-34 -21 -29 -40 -29 -39 6 -9 c10 -16 23 -9 41 21 l18 30 35 24 c19
12 51 28 70 35 l36 11 44 -9 c25 -5 55 -12 67 -16 l21 -7 4 19 4 18 -29 48
c-16 26 -37 69 -47 95 l-18 47 -12 88 c-11 80 -20 112 -20 70z"/>
<path d="M90621 56486 c3 -3 52 -25 111 -50 58 -25 140 -64 182 -87 l76 -41 0
9 c0 11 -134 79 -259 133 -85 36 -123 48 -110 36z"/>
<path d="M56021 56458 c-5 -13 -28 -84 -51 -158 l-42 -135 -35 -60 c-19 -33
-66 -97 -104 -142 l-69 -82 9 -5 9 -6 76 91 76 90 34 72 35 72 45 143 44 142
-9 0 c-5 0 -13 -10 -18 -22z"/>
<path d="M54540 56431 c44 -26 338 -89 419 -91 l14 0 -6 6 c-3 3 -52 12 -109
20 l-103 15 -107 29 c-112 31 -133 35 -108 21z"/>
<path d="M81625 56226 c-93 -24 -181 -49 -195 -55 l-25 -11 25 4 c49 9 383 96
388 101 11 11 -29 3 -193 -39z"/>
<path d="M89985 56010 c-126 -110 -245 -216 -264 -237 l-33 -38 -140 -279
c-77 -154 -151 -299 -165 -323 l-25 -43 4 -12 4 -12 39 70 c22 38 94 181 162
317 l123 248 32 40 33 41 238 205 c213 185 254 224 230 222 -5 0 -111 -90
-238 -199z"/>
<path d="M63730 56136 l0 -13 25 -11 25 -12 0 -10 0 -10 15 0 c18 0 18 5 5 30
l-10 18 -30 10 -30 11 0 -13z"/>
<path d="M37246 56123 c-10 -36 -17 -85 -51 -351 -37 -285 -38 -298 -30 -290
3 2 23 141 45 308 22 167 43 315 46 327 7 27 -2 32 -10 6z"/>
<path d="M74615 56084 l-17 -45 6 -6 5 -6 11 27 c5 15 15 36 20 46 l10 19 -9
5 -8 6 -18 -46z"/>
<path d="M63342 56025 c-276 -59 -312 -69 -301 -79 4 -4 547 106 592 120 16 5
25 25 10 23 -5 -1 -140 -30 -301 -64z"/>
<path d="M35558 56037 c-21 -12 -38 -24 -38 -27 0 -7 199 -84 204 -79 3 2 -34
20 -82 38 -48 19 -89 36 -92 38 -2 2 9 15 25 28 37 30 31 31 -17 2z"/>
<path d="M10227 55971 c-119 -79 -167 -104 -221 -116 -15 -3 -26 -8 -23 -11 2
-3 26 1 52 7 l48 12 134 88 c113 76 144 99 131 99 -2 0 -56 -36 -121 -79z"/>
<path d="M63777 56008 l-19 -20 11 -26 c12 -31 76 -305 86 -372 8 -51 13 -62
24 -55 l8 4 -13 68 c-7 37 -29 136 -49 218 l-37 150 11 17 c24 38 8 50 -22 16z"/>
<path d="M54770 55915 c0 -3 46 -67 103 -143 57 -75 123 -168 147 -206 l43
-68 33 -14 c18 -8 44 -14 56 -14 l23 0 -22 -18 -22 -17 -12 -33 -11 -33 5 -6
6 -5 14 35 15 34 21 15 c11 8 19 17 16 20 -3 3 7 6 22 6 16 0 56 2 91 3 l62 2
0 7 c0 4 -12 10 -27 13 l-28 5 -45 -8 -45 -8 -53 9 c-30 4 -61 11 -70 14 l-17
5 -29 52 c-36 65 -255 358 -267 358 -5 0 -9 -2 -9 -5z"/>
<path d="M63017 55900 c3 -11 9 -20 13 -20 l8 0 -5 20 c-3 11 -9 20 -13 20
l-8 0 5 -20z"/>
<path d="M37700 55718 l-22 -193 -21 -22 -20 -23 11 0 c6 0 18 10 26 23 l15
22 23 193 24 192 -7 0 -6 0 -23 -192z"/>
<path d="M62757 55805 c-229 -49 -267 -59 -256 -69 2 -2 127 22 277 52 l272
56 0 8 0 8 -22 -1 c-13 -1 -135 -25 -271 -54z"/>
<path d="M50294 55832 c-6 -4 -19 -22 -28 -41 l-18 -33 0 -44 0 -44 26 -55
c32 -70 64 -113 145 -198 l66 -69 83 -59 c81 -60 103 -81 60 -58 -48 25 -125
85 -185 143 l-62 60 -8 -8 -7 -7 69 -65 c85 -78 168 -137 216 -153 l36 -12 15
6 14 6 65 -30 c78 -36 112 -57 153 -93 17 -16 35 -28 41 -28 l10 0 -33 27 -34
26 7 36 c4 20 13 46 21 58 12 19 333 388 412 475 14 15 23 30 20 33 -2 3 -103
-108 -224 -245 l-219 -250 -15 -44 -16 -44 -26 19 c-14 11 -65 35 -112 54
l-87 35 -108 80 -108 80 -66 69 -66 70 -35 74 -36 74 0 35 0 35 24 46 c13 26
23 47 22 47 0 0 -6 -4 -12 -8z"/>
<path d="M44660 55823 c0 -5 33 -33 73 -63 39 -30 114 -88 165 -128 51 -41 95
-72 98 -69 4 4 -289 241 -323 261 l-13 7 0 -8z"/>
<path d="M50910 55791 c0 -4 26 -15 58 -25 l57 -16 165 -8 165 -8 8 6 8 7
-171 8 -171 7 -59 18 -60 18 0 -7z"/>
<path d="M61810 55771 c0 -6 -12 -23 -26 -36 l-27 -25 16 0 16 0 16 31 16 31
-5 6 -6 5 0 -12z"/>
<path d="M61840 55730 l0 -10 25 0 25 0 0 10 0 10 -25 0 -25 0 0 -10z"/>
<path d="M61910 55726 l0 -16 10 0 c6 0 10 4 10 9 0 6 -4 13 -10 16 l-10 6 0
-15z"/>
<path d="M61801 55701 c-6 -11 -11 -33 -11 -50 l0 -31 14 0 13 0 -4 24 -5 24
11 20 11 21 -9 6 -10 6 -10 -20z"/>
<path d="M61543 55703 c32 -2 81 -2 110 0 l52 3 -110 0 -110 0 58 -3z"/>
<path d="M37195 55450 l20 -9 188 -15 189 -16 29 15 c39 21 37 29 -3 12 l-33
-14 -145 13 c-80 7 -172 15 -205 18 l-60 5 20 -9z"/>
<path d="M36140 55363 c0 -4 79 -77 175 -161 96 -84 175 -148 175 -144 0 5
-64 65 -142 133 -79 68 -157 137 -175 153 l-33 28 0 -9z"/>
<path d="M36130 55317 c60 -60 322 -287 331 -287 11 0 -327 303 -345 309 -6 2
0 -8 14 -22z"/>
<path d="M26592 55242 c2 -5 22 -25 46 -46 l42 -38 0 10 c0 5 -18 26 -40 46
-39 35 -55 44 -48 28z"/>
<path d="M55373 55188 l-32 -42 6 -10 6 -9 38 44 37 44 -4 7 c-9 14 -19 8 -51
-34z"/>
<path d="M52306 55119 c-33 -54 -63 -99 -68 -99 -4 0 -8 -6 -8 -12 l1 -13 34
-16 c38 -18 48 -12 15 9 -11 7 -20 16 -20 22 0 5 25 50 55 101 31 50 55 95 53
99 -2 4 -30 -37 -62 -91z"/>
<path d="M35069 55114 c-18 -19 -91 -78 -161 -131 l-128 -95 6 -9 5 -9 122 91
c121 91 207 166 207 181 0 16 -17 7 -51 -28z"/>
<path d="M55195 55103 c-3 -16 -38 -130 -77 -256 -39 -125 -69 -229 -67 -232
5 -5 143 427 154 483 l7 32 -6 0 c-3 0 -8 -12 -11 -27z"/>
<path d="M50631 55032 l-11 -20 -126 -61 c-70 -34 -125 -64 -122 -67 3 -2 52
18 108 46 57 27 109 50 116 50 l13 0 21 31 c12 16 20 33 17 35 -3 3 -10 -3
-16 -14z"/>
<path d="M51150 54993 c-19 -2 -39 -9 -45 -15 l-10 -10 25 8 25 9 525 -3 524
-4 16 -8 c8 -5 21 -14 29 -19 l14 -9 -122 -186 -123 -185 4 -12 4 -11 129 198
c72 108 132 202 134 207 l4 10 -14 -5 -14 -5 -23 21 -24 21 -511 1 c-282 1
-528 -1 -547 -3z"/>
<path d="M53202 54904 c-60 -102 -235 -364 -243 -364 -4 0 -139 88 -298 195
-160 107 -295 195 -301 195 l-11 0 6 -10 c3 -5 11 -10 16 -10 8 0 548 -359
574 -382 l9 -8 -10 -10 -11 -11 -279 190 c-153 105 -284 195 -291 201 l-12 10
-12 -22 c-7 -13 -57 -93 -112 -178 l-100 -155 -165 -218 c-91 -120 -162 -220
-160 -223 3 -2 84 100 179 228 l174 233 99 153 c54 83 102 152 106 152 7 0
541 -360 563 -380 l7 -6 -221 -335 c-122 -184 -255 -378 -296 -431 -40 -53
-73 -100 -73 -104 0 -30 149 166 256 336 106 169 337 515 345 518 5 2 9 10 9
18 l0 15 14 5 c8 3 16 13 18 22 3 9 49 85 104 168 54 84 113 175 131 203 l32
51 -10 0 c-5 0 -22 -21 -37 -46z"/>
<path d="M50458 54888 l-68 -31 0 -8 0 -9 73 36 c39 20 74 38 76 40 12 11 -21
0 -81 -28z"/>
<path d="M50924 54849 c4 -24 10 -47 14 -50 4 -3 123 -97 265 -209 l258 -203
-29 -31 c-94 -102 -174 -197 -170 -201 4 -5 178 186 199 218 l6 9 109 -86 c59
-47 113 -86 118 -86 l10 0 -19 19 c-11 11 -175 141 -365 291 -190 149 -353
281 -362 292 l-18 20 0 24 0 23 -12 7 -11 7 7 -44z"/>
<path d="M43650 54749 l0 -122 -16 -94 -16 -94 6 -6 c11 -11 14 0 30 92 l16
90 0 128 0 127 -10 0 -10 0 0 -121z"/>
<path d="M33810 54806 c0 -11 213 -317 217 -313 5 5 -205 317 -213 317 -2 0
-4 -2 -4 -4z"/>
<path d="M50250 54791 c0 -9 133 -121 144 -121 18 0 -1 22 -63 73 -71 58 -81
64 -81 48z"/>
<path d="M87874 54727 c44 -79 128 -247 149 -299 l15 -37 -30 -23 -30 -23 -4
-45 -5 -45 13 -25 13 -25 36 -19 35 -19 27 7 27 6 0 10 0 10 -29 -6 -28 -6
-30 15 -29 16 -11 34 -10 34 12 30 c16 39 30 47 82 50 l42 3 6 -10 c3 -5 13
-10 22 -10 l15 0 -12 15 -13 15 -42 11 -42 10 -39 87 c-21 48 -64 134 -95 192
l-57 104 -13 5 -12 4 37 -66z"/>
<path d="M18273 54662 c-101 -14 -183 -29 -183 -32 l0 -6 196 27 c108 15 198
30 201 33 l6 6 -19 -1 c-10 -1 -101 -13 -201 -27z"/>
<path d="M32030 54664 c0 -10 360 -247 366 -241 3 3 -178 127 -338 231 l-28
18 0 -8z"/>
<path d="M18468 54655 c-3 -3 -85 -16 -183 -30 -98 -14 -181 -27 -183 -30 -9
-8 15 -6 193 19 93 14 171 23 172 22 2 -2 19 -92 39 -202 l37 -199 9 -10 9
-10 -6 25 c-18 78 -73 395 -69 401 5 9 -11 21 -18 14z"/>
<path d="M50190 54573 c0 -12 38 -48 45 -41 3 2 -6 15 -20 28 l-25 23 0 -10z"/>
<path d="M60977 54517 c-4 -10 -72 -119 -152 -243 -80 -125 -144 -228 -141
-231 2 -2 24 26 48 64 24 37 93 143 152 235 l108 168 -4 12 -4 12 -7 -17z"/>
<path d="M16895 54444 c-99 -12 -187 -23 -195 -24 l-15 -2 11 -4 c12 -5 425
44 433 51 8 8 -48 3 -234 -21z"/>
<path d="M52779 54087 c-239 -366 -282 -439 -313 -535 l-18 -52 -28 -15 -28
-14 -22 52 c-26 61 -72 137 -83 137 -4 0 4 -17 17 -37 14 -21 55 -108 92 -193
71 -166 71 -166 79 -158 3 3 -12 47 -35 97 -22 51 -40 93 -40 95 0 2 11 7 24
10 l24 6 14 22 c8 13 20 43 27 68 22 76 86 182 323 538 l228 342 -12 0 -13 0
-236 -363z"/>
<path d="M31382 54373 l-33 -68 -40 -130 c-22 -71 -44 -149 -48 -173 l-8 -42
8 -6 9 -5 0 19 c0 11 24 98 53 193 l54 174 27 53 26 52 -8 0 c-4 0 -23 -30
-40 -67z"/>
<path d="M53040 54423 c1 -4 121 -86 268 -181 147 -95 376 -246 510 -337 134
-91 242 -161 240 -155 -5 15 -825 564 -1005 674 l-13 7 0 -8z"/>
<path d="M16040 54338 c-102 -15 -243 -34 -315 -41 l-130 -14 -130 33 c-71 18
-131 31 -134 29 -6 -6 8 -10 146 -45 l122 -30 98 10 c117 13 526 71 532 76 12
11 -20 8 -189 -18z"/>
<path d="M50797 54363 l-5 -8 189 -155 c104 -85 194 -156 199 -158 l10 -4 0 9
c0 7 -309 265 -371 311 l-18 12 -4 -7z"/>
<path d="M51440 54316 c0 -2 96 -81 213 -174 l213 -171 29 -6 30 -6 -36 19
c-19 10 -126 91 -237 180 -187 150 -212 169 -212 158z"/>
<path d="M84622 54197 c-122 -56 -218 -103 -213 -105 10 -3 421 184 435 198 6
6 8 10 6 10 -3 -1 -105 -47 -228 -103z"/>
<path d="M32790 54204 c1 -5 34 -35 75 -67 l75 -57 0 -30 0 -29 -42 -39 c-24
-22 -59 -53 -78 -70 -19 -17 -33 -33 -30 -35 3 -3 40 26 83 65 l77 70 0 38 0
38 -67 53 c-38 28 -74 56 -80 62 l-13 9 0 -8z"/>
<path d="M45736 54181 l-8 -33 6 -112 c4 -61 12 -151 18 -201 l11 -90 29 -60
29 -60 72 -74 c76 -78 212 -191 228 -191 6 0 -23 26 -63 58 -40 32 -112 100
-160 150 l-86 91 -15 48 c-24 72 -39 191 -46 358 l-6 150 -9 -34z"/>
<path d="M51684 54168 l-7 -11 11 7 c12 7 16 16 8 16 -3 0 -8 -5 -12 -12z"/>
<path d="M62131 54168 c-1 -22 87 -449 94 -456 3 -3 5 -1 5 5 0 13 -89 444
-94 458 l-4 10 -1 -17z"/>
<path d="M50370 53991 c-108 -48 -204 -90 -214 -94 -11 -4 -16 -10 -14 -13 6
-5 415 172 433 188 l9 8 -9 0 c-6 -1 -98 -40 -205 -89z"/>
<path d="M53780 53986 c0 -2 131 -93 290 -202 160 -108 293 -201 296 -206 l6
-9 -167 -80 c-92 -44 -165 -82 -162 -85 2 -2 84 34 182 82 l177 86 -8 7 c-18
16 -603 411 -609 411 -3 0 -5 -2 -5 -4z"/>
<path d="M51466 53942 l-6 -10 113 -99 c61 -54 169 -144 238 -200 l126 -101
79 -87 c43 -48 98 -115 122 -151 37 -55 62 -79 62 -58 0 14 -93 138 -171 228
l-84 97 -110 87 c-91 72 -183 149 -347 289 l-16 14 -6 -9z"/>
<path d="M51445 53889 c-11 -17 1 -21 15 -4 l12 15 -10 0 c-6 0 -14 -5 -17
-11z"/>
<path d="M19695 53865 c-91 -15 -639 -150 -670 -165 l-20 -10 20 5 c11 2 160
38 330 79 l310 75 90 10 c50 6 101 13 115 15 l25 3 -60 0 c-33 1 -96 -5 -140
-12z"/>
<path d="M51410 53861 c0 -5 96 -88 213 -184 116 -96 228 -192 248 -213 56
-60 179 -214 207 -259 l25 -40 5 13 4 13 -27 40 c-39 59 -187 238 -232 280
-44 42 -432 359 -438 359 -3 0 -5 -4 -5 -9z"/>
<path d="M13440 53831 c0 -10 323 -279 346 -288 l14 -5 0 8 c-1 8 -315 269
-346 287 l-14 8 0 -10z"/>
<path d="M50902 53823 l-12 -5 5 -8 6 -9 14 6 c8 3 15 9 15 14 0 10 -8 10 -28
2z"/>
<path d="M67193 53812 c-40 -9 -73 -19 -73 -23 l0 -6 76 15 75 15 8 -9 c5 -5
31 -124 59 -264 l50 -255 -9 -22 -8 -22 -28 -14 c-15 -8 -65 -23 -110 -32 -46
-10 -83 -21 -83 -25 l0 -7 93 21 93 21 26 17 26 17 6 26 7 25 -51 257 -51 257
-10 13 c-7 7 -14 12 -18 12 -3 -1 -39 -9 -78 -17z"/>
<path d="M53025 53627 c-307 -156 -528 -277 -520 -285 2 -2 73 34 157 81 84
46 271 144 416 216 236 118 279 142 255 141 -5 -1 -143 -69 -308 -153z"/>
<path d="M61246 53730 c-5 -14 -77 -399 -92 -495 -3 -22 -41 -215 -84 -430
-43 -214 -76 -392 -74 -394 6 -7 11 13 103 474 114 572 163 835 158 849 l-5
11 -6 -15z"/>
<path d="M52310 53694 c0 -8 32 -33 43 -34 l8 0 -6 10 c-3 5 -15 15 -26 20
l-19 11 0 -7z"/>
<path d="M80901 53682 c-1 -19 101 -426 110 -436 6 -7 -93 407 -106 439 l-3
10 -1 -13z"/>
<path d="M54792 53588 c-40 -125 -63 -210 -60 -219 2 -5 20 47 41 116 21 70
36 129 34 132 -3 2 -10 -11 -15 -29z"/>
<path d="M9205 53594 c-96 -11 -265 -60 -265 -76 l0 -8 48 19 c58 22 175 47
260 55 l63 6 36 -15 c20 -8 38 -13 41 -10 3 2 -11 12 -31 20 l-36 15 -43 -1
c-24 -1 -56 -4 -73 -5z"/>
<path d="M52750 53437 c-96 -52 -188 -101 -204 -109 l-29 -15 9 -5 9 -5 193
102 c107 57 199 108 205 114 l11 11 -9 0 c-6 0 -89 -42 -185 -93z"/>
<path d="M51160 53365 c-113 -57 -202 -104 -197 -104 10 -1 407 198 407 204 0
7 15 14 -210 -100z"/>
<path d="M51967 53433 c-4 -3 -7 -10 -7 -14 l0 -7 20 5 20 5 -6 9 c-6 11 -18
12 -27 2z"/>
<path d="M52551 53293 c12 -36 244 -522 247 -515 3 10 -225 502 -240 517 l-10
10 3 -12z"/>
<path d="M52134 53219 l-19 -22 23 12 c12 6 22 16 22 21 0 15 -5 12 -26 -11z"/>
<path d="M52228 53223 l13 -5 6 6 6 6 -19 -1 -19 -1 13 -5z"/>
<path d="M52270 53203 c0 -16 113 -263 152 -331 52 -91 40 -51 -20 68 -32 63
-74 151 -95 195 -20 44 -36 75 -37 68z"/>
<path d="M52152 53188 c-7 -7 -12 -16 -12 -20 l0 -9 20 11 c11 6 20 15 20 20
0 14 -14 12 -28 -2z"/>
<path d="M34693 53183 l7 -6 7 6 6 7 -13 0 -13 0 6 -7z"/>
<path d="M52065 53124 c-11 -8 -123 -69 -248 -136 -125 -66 -226 -123 -223
-125 6 -7 506 260 506 270 0 11 -13 8 -35 -9z"/>
<path d="M53270 52960 c-179 -93 -352 -181 -385 -197 -33 -15 -63 -32 -67 -37
l-7 -10 14 -10 c21 -17 157 -282 360 -703 105 -216 193 -393 197 -393 9 0
-135 300 -359 749 -100 201 -181 366 -180 366 1 1 174 90 384 199 l382 196 43
-5 43 -5 -20 9 c-11 5 -33 10 -50 10 l-30 0 -325 -169z"/>
<path d="M51370 53098 c0 -4 13 -22 28 -40 l29 -33 18 -52 19 -53 9 0 9 0 -6
13 c-2 6 -10 29 -17 50 l-13 39 -37 41 c-21 23 -38 39 -39 35z"/>
<path d="M55202 52951 l-12 -7 13 -15 12 -16 48 -17 48 -18 44 7 45 6 6 10 6
10 -6 6 -5 6 -38 -10 -38 -9 -41 15 c-23 9 -48 21 -55 28 l-15 12 -12 -8z"/>
<path d="M51505 52875 l30 -24 25 1 25 0 -20 5 c-11 3 -32 14 -47 24 -38 28
-48 23 -13 -6z"/>
<path d="M31232 52608 c-106 -94 -190 -173 -188 -176 3 -2 85 67 183 154 97
88 184 164 192 171 l16 11 -5 6 -6 5 -192 -171z"/>
<path d="M85945 52699 l-7 -40 6 -6 c10 -10 15 0 22 45 l7 42 -11 0 -10 0 -7
-41z"/>
<path d="M85850 52710 l0 -13 7 6 6 7 -6 7 -7 6 0 -13z"/>
<path d="M52651 52645 l-114 -55 5 -6 6 -5 111 55 c61 31 111 58 111 61 0 7 6
10 -119 -50z"/>
<path d="M53935 52693 c9 -10 364 -123 428 -137 l27 -6 0 10 0 10 -24 0 c-19
0 -295 83 -426 128 l-15 5 10 -10z"/>
<path d="M64623 52662 c-101 -20 -183 -39 -183 -42 l0 -7 196 38 c109 21 202
40 208 43 l11 4 -25 0 c-14 0 -107 -16 -207 -36z"/>
<path d="M85806 52678 c-9 -12 -16 -30 -16 -40 l0 -18 8 0 c4 0 15 16 24 35
l16 35 -8 5 -9 5 -15 -22z"/>
<path d="M30091 52521 l-12 -109 12 -141 12 -141 7 0 6 0 -13 143 -12 142 13
108 13 107 -7 0 -7 0 -12 -109z"/>
<path d="M34075 52402 l-49 -197 -32 -31 -32 -31 -209 -28 -208 -28 -10 -9
-10 -9 25 5 c14 3 113 17 220 32 l195 26 26 19 26 18 12 28 c18 45 110 403
102 403 -3 0 -28 -89 -56 -198z"/>
<path d="M50910 52558 c0 -9 5 -20 10 -23 l10 -6 0 8 c0 4 -5 15 -10 23 l-10
15 0 -17z"/>
<path d="M22550 52405 c-5 -13 -23 -57 -40 -97 l-31 -72 -39 -157 c-44 -174
-46 -192 -25 -229 l14 -25 1 12 c0 7 -5 22 -10 35 l-11 23 45 170 45 170 39
90 40 90 11 -2 11 -3 0 10 0 10 -20 0 -20 0 -10 -25z"/>
<path d="M78046 52402 l-8 -13 77 -212 c43 -117 81 -216 86 -221 l9 -10 0 15
c0 8 -32 102 -71 209 -39 107 -75 206 -78 220 l-7 24 -8 -12z"/>
<path d="M40340 52340 c12 -16 26 -30 31 -30 l10 0 -21 30 c-12 17 -26 30 -31
30 l-10 0 21 -30z"/>
<path d="M51511 52353 c9 -30 185 -363 192 -363 8 0 -169 348 -186 365 l-9 10
3 -12z"/>
<path d="M52930 52307 c0 -16 49 -103 69 -121 l22 -20 147 -299 146 -299 4 10
3 10 -147 294 -146 293 -34 38 c-19 20 -34 43 -34 50 0 14 -29 57 -30 44z"/>
<path d="M70648 52294 c-4 -5 -21 -45 -38 -89 -41 -104 -115 -243 -148 -277
-14 -15 -23 -30 -20 -33 3 -3 21 12 41 35 l37 40 40 80 c50 100 102 229 97
243 l-3 11 -6 -10z"/>
<path d="M54750 52164 c-25 -15 -112 -60 -193 -100 l-148 -75 6 -9 5 -9 69 31
c37 16 124 60 191 96 l124 67 4 13 4 12 -9 0 c-4 0 -28 -12 -53 -26z"/>
<path d="M52770 52052 c0 -17 221 -440 263 -504 29 -43 47 -59 47 -42 0 4 -15
30 -33 58 -19 28 -82 143 -140 256 -58 113 -113 214 -121 225 l-15 20 -1 -13z"/>
<path d="M54265 51991 l-5 -9 26 -21 c29 -23 40 -26 48 -13 l5 9 -29 21 c-33
25 -37 26 -45 13z"/>
<path d="M22410 51800 l0 -13 7 6 6 7 -6 7 -7 6 0 -13z"/>
<path d="M22451 51724 l1 -19 5 13 5 13 -6 6 -6 6 1 -19z"/>
<path d="M90797 51678 c-74 -133 -150 -283 -138 -272 15 13 182 326 177 331
-2 2 -19 -24 -39 -59z"/>
<path d="M32250 51705 c0 -6 27 -167 59 -360 32 -192 71 -434 87 -537 15 -104
31 -188 34 -188 l6 0 -47 313 c-27 171 -64 413 -84 537 l-37 225 -9 10 -9 9 0
-9z"/>
<path d="M22442 51670 l0 -25 5 13 c2 6 2 18 0 25 l-5 12 0 -25z"/>
<path d="M22380 51640 l0 -13 7 6 6 7 -6 7 -7 6 0 -13z"/>
<path d="M22431 51614 l1 -19 5 13 5 13 -6 6 -6 6 1 -19z"/>
<path d="M22421 51554 l1 -19 5 13 5 13 -6 6 -6 6 1 -19z"/>
<path d="M22411 51484 l1 -19 5 13 5 13 -6 6 -6 6 1 -19z"/>
<path d="M22402 51415 l0 -30 5 18 c2 9 2 23 0 30 l-5 12 0 -30z"/>
<path d="M22390 51370 l0 -13 7 6 6 7 -6 7 -7 6 0 -13z"/>
<path d="M42010 51320 c0 -5 5 -10 10 -10 6 0 10 5 10 10 0 6 -4 10 -10 10 -5
0 -10 -4 -10 -10z"/>
<path d="M22399 51108 c0 -35 -4 -137 -8 -228 l-9 -165 8 -8 8 -9 6 59 c3 32
8 138 12 236 l6 177 -11 0 -11 0 -1 -62z"/>
<path d="M83870 50897 c-58 -45 -139 -107 -178 -139 l-73 -56 9 -6 9 -5 174
134 c96 75 176 140 177 145 l4 10 -9 0 c-4 -1 -55 -38 -113 -83z"/>
<path d="M28523 50945 l-33 -14 0 -11 c0 -13 1 -13 46 6 l39 17 212 -7 211 -7
6 9 5 9 -142 6 c-78 4 -180 7 -227 7 l-85 -1 -32 -14z"/>
<path d="M26780 50862 c0 -33 -2 -101 -5 -153 l-4 -94 9 50 c5 28 10 96 12
153 l3 102 -7 0 -8 0 0 -58z"/>
<path d="M5710 50822 l0 -8 173 -22 c221 -29 488 -54 495 -47 13 12 -17 17
-210 36 -111 11 -252 26 -311 34 -59 8 -117 15 -127 15 l-20 0 0 -8z"/>
<path d="M80000 50463 c1 -24 96 -403 104 -410 l6 -6 6 6 7 6 -53 211 -52 210
-9 0 -9 0 0 -17z"/>
<path d="M61121 50376 c8 -8 430 -97 441 -94 10 4 -414 99 -436 98 -5 0 -7 -2
-5 -4z"/>
<path d="M59309 50317 c-39 -18 -58 -37 -80 -78 -21 -43 -24 -59 -9 -59 l10 0
14 33 14 32 28 27 29 27 50 6 50 7 41 -30 41 -30 27 -47 26 -48 0 -41 0 -41
-24 -57 c-13 -32 -21 -60 -18 -63 13 -13 22 -2 41 50 l21 56 0 39 c0 22 3 40
6 40 3 0 25 -12 50 -26 l44 -26 191 -44 190 -44 44 0 43 0 4 -10 3 -11 130
-30 c72 -17 254 -57 405 -89 l275 -58 7 11 7 12 -17 3 c-180 32 -1176 256
-1262 284 -19 6 -56 25 -81 42 l-47 31 -23 41 -23 42 -14 -6 -15 -5 8 12 8 13
-29 24 -29 23 -55 0 -55 -1 -26 -11z"/>
<path d="M9720 49985 c7 -8 49 -46 94 -84 l82 -70 97 -45 97 -45 0 12 0 12
-78 34 -77 34 -70 53 c-38 29 -83 66 -99 83 l-30 31 -14 0 -14 0 12 -15z"/>
<path d="M9848 49946 l57 -53 72 -42 72 -41 31 -6 30 -6 0 10 0 10 -27 7 c-15
3 -57 23 -93 43 l-65 36 -51 48 -51 48 -16 0 -16 0 57 -54z"/>
<path d="M17710 49989 c-1 -8 -7 -56 -14 -106 l-13 -93 7 0 7 0 13 100 12 101
-6 6 -6 6 0 -14z"/>
<path d="M32566 49963 c7 -40 11 -49 19 -42 2 3 2 22 -2 42 l-6 37 -9 0 -9 0
7 -37z"/>
<path d="M33630 49990 l0 -13 7 6 6 7 -6 7 -7 6 0 -13z"/>
<path d="M34330 49986 c0 -8 5 -18 10 -21 l10 -6 0 20 0 21 -10 0 -10 0 0 -14z"/>
<path d="M49680 49994 c0 -10 82 -144 89 -144 3 0 12 4 20 9 l14 9 -39 66 -38
66 -23 0 c-13 0 -23 -3 -23 -6z"/>
<path d="M33848 49980 l-148 -7 -7 -6 c-3 -4 -4 -9 -2 -11 2 -2 81 0 174 5 94
4 198 8 233 8 l62 1 0 10 0 10 -82 -2 c-46 -1 -149 -4 -230 -8z"/>
<path d="M36178 49966 l-216 -21 -9 -9 -8 -9 35 6 c19 3 124 14 233 23 l197
18 0 8 c0 4 -3 7 -7 7 -5 -1 -106 -11 -225 -23z"/>
<path d="M84219 49946 c-34 -15 -311 -227 -305 -233 2 -3 60 38 128 90 68 52
139 104 158 116 l35 21 28 0 29 0 26 -16 27 -16 370 -490 c204 -269 376 -494
384 -501 l15 -12 -9 15 c-21 36 -731 968 -759 996 l-31 32 -35 5 -35 5 -26
-12z"/>
<path d="M49708 49824 c-27 -14 -34 -25 -22 -36 l5 -6 40 16 40 15 -4 11 c-6
17 -29 17 -59 0z"/>
<path d="M50092 49758 l-154 -80 11 -11 11 -11 122 63 c153 79 188 100 188
112 0 18 -28 7 -178 -73z"/>
<path d="M22870 49770 c58 -4 157 -7 220 -7 l115 0 -105 7 c-58 4 -157 7 -220
7 l-115 0 105 -7z"/>
<path d="M22405 49750 l30 -8 165 -5 165 -5 -20 7 -20 8 -175 5 -175 6 30 -8z"/>
<path d="M49560 49736 l-45 -24 -115 -27 -115 -27 -15 -14 -14 -14 11 0 c7 0
68 13 137 30 l126 30 50 25 50 25 0 10 0 10 -12 0 c-7 -1 -33 -12 -58 -24z"/>
<path d="M24100 49738 l0 -6 213 -4 c116 -2 214 -2 216 -1 13 9 -25 11 -217
15 l-212 3 0 -7z"/>
<path d="M64205 49691 c11 -6 90 -24 175 -41 85 -17 164 -33 175 -37 l20 -5
-10 10 -10 10 -160 32 c-88 17 -171 34 -185 36 l-25 4 20 -9z"/>
<path d="M61942 49589 l5 -14 359 -77 c197 -43 568 -122 824 -177 256 -55 560
-123 675 -151 l210 -52 121 -18 122 -18 103 9 c57 4 105 8 107 9 1 0 2 5 2 11
l0 11 -117 -7 -118 -7 -100 16 c-55 8 -201 40 -325 70 -124 30 -585 132 -1025
226 -440 94 -811 174 -824 177 l-24 6 5 -14z"/>
<path d="M49825 49495 c43 -94 146 -275 156 -275 4 0 10 4 13 9 l5 8 -90 154
c-50 85 -97 161 -105 169 l-15 15 36 -80z"/>
<path d="M38195 49528 c-14 -37 -93 -360 -86 -352 9 11 102 364 95 364 -3 0
-7 -6 -9 -12z"/>
<path d="M71540 49532 l0 -9 158 -7 c86 -4 184 -9 217 -12 l60 -5 -15 9 -15
10 -175 6 c-96 4 -187 9 -202 12 l-28 6 0 -10z"/>
<path d="M33763 49465 c3 -11 18 -110 33 -220 l27 -200 10 -10 9 -10 -5 20
c-3 11 -18 110 -33 220 l-27 200 -10 10 -9 10 5 -20z"/>
<path d="M83376 49300 c-88 -71 -164 -136 -169 -145 l-9 -17 6 -5 6 -6 6 16 6
17 164 131 c90 72 164 133 164 135 0 12 -30 -9 -174 -126z"/>
<path d="M57667 49231 l5 -20 -188 -95 c-174 -87 -241 -125 -221 -126 4 0 99
48 212 106 l205 106 0 18 c0 10 -4 21 -9 24 l-9 6 5 -19z"/>
<path d="M11142 49135 c12 -12 393 -213 397 -209 6 6 13 2 -195 112 -169 90
-220 114 -202 97z"/>
<path d="M73980 49077 l-295 -42 30 -3 30 -2 275 38 275 39 47 -16 48 -16 55
-44 55 -44 31 -46 c29 -42 447 -879 560 -1120 27 -57 52 -102 55 -99 2 3 -129
279 -293 614 l-298 608 -62 62 -62 62 -45 21 c-24 12 -59 24 -78 26 l-33 4
-295 -42z"/>
<path d="M34406 48819 l33 -202 11 -11 11 -11 -7 45 c-4 25 -19 119 -33 209
l-27 165 -10 3 -10 3 32 -201z"/>
<path d="M80595 48985 c-16 -8 -44 -31 -61 -50 l-32 -36 -10 -39 -10 -39 6 -6
c12 -12 20 -3 26 30 l7 36 43 44 43 45 47 0 47 0 22 -11 c28 -15 54 -45 72
-88 l15 -33 0 -34 0 -34 13 0 12 0 29 52 c16 29 41 63 54 75 l25 23 43 0 44 0
0 10 0 10 -51 0 -50 0 -19 -10 -18 -10 -27 -47 -28 -47 -12 40 c-7 22 -22 55
-35 72 l-23 31 -26 10 c-14 6 -46 13 -71 16 l-45 6 -30 -16z"/>
<path d="M50476 48781 l-6 -9 223 -356 222 -355 18 -1 18 0 -8 14 c-69 116
-450 716 -455 716 -4 0 -9 -4 -12 -9z"/>
<path d="M36079 48726 c-4 -4 -242 -20 -474 -31 -315 -14 -540 -28 -544 -31
-2 -2 -2 -6 0 -9 5 -4 315 11 780 40 l246 15 24 9 24 10 -26 0 c-14 1 -28 -1
-30 -3z"/>
<path d="M80113 48695 l-32 -14 -30 -42 -31 -42 0 -46 0 -46 18 -35 17 -35 49
-23 49 -24 70 10 c38 6 72 13 75 16 l5 6 -6 6 -6 6 -66 -9 -66 -10 -37 17
c-20 10 -45 26 -54 37 l-18 19 -6 45 -6 44 24 34 c12 19 36 43 51 55 l28 21
38 -1 38 -1 29 -19 c16 -11 40 -31 52 -47 l24 -27 9 5 9 6 -17 26 c-10 14 -35
39 -57 54 l-39 29 -41 0 -41 -1 -32 -14z"/>
<path d="M35020 48624 c-228 -12 -419 -23 -424 -23 -5 -1 -7 -3 -4 -6 6 -6
996 43 1013 50 23 8 -196 1 -585 -21z"/>
<path d="M50195 48630 c3 -5 8 -10 11 -10 3 0 2 5 -1 10 -3 6 -8 10 -11 10 -3
0 -2 -4 1 -10z"/>
<path d="M33905 48605 c-225 -13 -426 -25 -445 -27 l-35 -5 45 -1 c69 -2 941
46 948 52 l5 6 -54 -1 c-30 -1 -238 -12 -464 -24z"/>
<path d="M43190 48611 l0 -19 15 -12 15 -12 0 10 c0 6 -5 14 -11 17 l-10 7 5
14 5 14 -9 0 -10 0 0 -19z"/>
<path d="M50221 48590 c9 -14 39 -65 69 -115 39 -65 282 -418 327 -474 2 -2 6
-2 9 2 l6 6 -66 85 c-36 46 -127 178 -202 293 -75 114 -141 213 -147 218 l-11
10 15 -25z"/>
<path d="M14504 48526 l-28 -56 -50 -49 -51 -49 -60 -25 c-33 -13 -71 -30 -85
-36 l-25 -11 30 5 c17 4 57 18 90 32 l60 26 41 39 40 39 35 59 34 60 20 0 c11
0 63 -12 115 -25 l95 -25 75 -6 75 -6 33 8 33 9 -98 1 -98 1 -110 27 c-60 15
-117 29 -127 32 l-16 5 -28 -55z"/>
<path d="M33901 48560 c-1 -26 47 -384 55 -409 14 -43 8 18 -21 214 -18 121
-33 209 -34 195z"/>
<path d="M33595 48549 c-71 -5 -139 -10 -150 -13 -29 -6 264 5 360 14 l80 7
-80 0 c-44 0 -138 -4 -210 -8z"/>
<path d="M83747 48388 c6 -7 63 -84 126 -170 64 -87 119 -158 122 -158 9 0 -3
18 -125 183 -63 86 -119 157 -124 157 l-8 0 9 -12z"/>
<path d="M80640 48298 c1 -7 20 -103 44 -213 l44 -200 6 16 7 16 -41 190 c-22
104 -40 193 -40 196 0 4 -4 7 -10 7 l-10 0 0 -12z"/>
<path d="M37408 48126 l-216 -11 -9 -9 -8 -8 65 6 c36 3 140 8 233 12 l167 7
0 8 c0 5 -3 8 -7 8 -5 -1 -106 -7 -225 -13z"/>
<path d="M80405 48093 c-9 -50 -29 -87 -61 -112 l-27 -21 -53 0 -54 0 0 -9 0
-10 33 -3 c17 -2 47 0 65 4 l34 6 25 24 c33 30 49 63 58 116 l7 42 -10 0 -10
0 -7 -37z"/>
<path d="M37623 48095 c-232 -13 -428 -26 -435 -29 l-13 -6 95 5 c52 2 253 12
445 21 l350 16 20 8 20 9 -30 -1 c-16 0 -220 -11 -452 -23z"/>
<path d="M90798 48058 c-30 -35 -65 -81 -79 -104 -44 -74 -151 -203 -431 -521
-153 -173 -278 -319 -278 -324 0 -10 505 557 607 683 35 42 85 109 112 149 27
41 68 94 90 118 36 39 49 61 37 61 -2 0 -28 -28 -58 -62z"/>
<path d="M77785 48050 c-104 -16 -217 -32 -249 -35 -82 -9 -1226 -158 -1881
-245 -477 -63 -1763 -239 -2350 -320 -115 -17 -216 -30 -222 -30 l-13 0 0 -16
0 -15 18 5 c9 2 112 17 227 31 116 15 584 79 1040 141 981 135 1549 211 2505
334 388 51 803 106 923 123 l218 32 0 10 c0 16 -15 15 -216 -15z"/>
<path d="M78620 48064 c-25 -2 -89 -9 -142 -15 l-98 -11 0 -15 0 -15 23 5 c12
3 59 11 105 17 l82 11 125 2 125 2 0 6 c0 18 -74 22 -220 13z"/>
<path d="M74981 47958 c29 -57 67 -136 86 -177 18 -41 35 -72 38 -69 7 7 -157
348 -167 348 l-8 0 51 -102z"/>
<path d="M76056 47895 c15 -20 35 -40 45 -46 l18 -9 6 10 6 10 -10 0 c-5 0
-24 16 -42 35 -19 19 -37 35 -42 35 l-8 0 27 -35z"/>
<path d="M80085 47822 c-61 -53 -130 -113 -154 -134 l-42 -36 9 -5 8 -6 152
131 c137 117 168 149 145 147 -5 0 -58 -44 -118 -97z"/>
<path d="M21810 47741 c353 -95 428 -113 409 -98 -10 8 -777 207 -795 206 -10
0 163 -49 386 -108z"/>
<path d="M19572 47718 c-150 -61 -271 -113 -268 -116 6 -5 534 205 551 220 l9
8 -9 -1 c-6 0 -133 -50 -283 -111z"/>
<path d="M53572 47770 l-34 -21 6 -25 c8 -29 128 -274 151 -307 8 -12 15 -30
15 -41 l0 -20 11 11 11 11 -34 59 c-38 65 -148 291 -148 304 0 5 17 17 38 28
20 11 33 20 27 21 -5 0 -25 -9 -43 -20z"/>
<path d="M53600 47742 l-21 -17 81 -162 81 -161 13 -5 12 -5 -83 167 -83 166
20 9 c20 9 27 26 11 26 -5 0 -19 -8 -31 -18z"/>
<path d="M74830 47606 c0 -21 11 -46 20 -46 l7 0 -5 25 c-2 14 -8 28 -13 31
l-9 5 0 -15z"/>
<path d="M22320 47576 c0 -2 9 -6 20 -9 l20 -5 0 9 0 9 -20 0 c-11 0 -20 -2
-20 -4z"/>
<path d="M41631 47460 l15 -25 45 -22 44 -22 60 1 60 0 -50 8 -50 8 -45 21
c-25 11 -56 29 -70 38 l-25 18 16 -25z"/>
<path d="M22279 47313 c-1 -71 -4 -190 -8 -266 l-6 -137 6 0 c13 0 18 61 25
293 l7 237 -11 0 -12 0 -1 -127z"/>
<path d="M42598 47414 l-8 -7 1 -206 2 -206 9 175 c4 96 7 192 6 213 l-3 39
-7 -8z"/>
<path d="M37060 47400 l0 -13 7 6 6 7 -6 7 -7 6 0 -13z"/>
<path d="M18370 47195 c0 -13 376 -755 382 -755 5 0 -77 171 -182 380 -167
335 -200 396 -200 375z"/>
<path d="M53740 47182 l0 -10 31 -7 30 -7 6 6 c9 9 2 13 -34 21 l-33 7 0 -10z"/>
<path d="M17620 47153 c0 -5 14 -42 31 -84 l30 -77 25 -23 24 -22 65 12 66 12
54 24 c30 13 55 26 55 30 0 3 -17 -2 -37 -11 -40 -17 -105 -37 -161 -47 l-32
-7 -29 28 -29 27 -28 73 c-25 67 -34 83 -34 65z"/>
<path d="M21562 47078 l4 -12 40 -8 c21 -5 56 -16 77 -25 l38 -16 43 -61 c24
-34 53 -83 64 -109 l22 -48 9 6 10 6 -8 22 c-24 58 -39 87 -79 143 l-43 61
-37 17 c-33 14 -112 35 -135 36 l-9 0 4 -12z"/>
<path d="M38271 47044 c-2 -40 47 -299 54 -292 5 4 -41 282 -49 303 l-4 10 -1
-21z"/>
<path d="M45810 46955 c-105 -33 -412 -123 -695 -204 l-239 -68 -3 -10 -4 -10
238 69 c643 187 760 221 781 225 l22 5 0 9 c0 13 -15 10 -100 -16z"/>
<path d="M46278 46815 c-50 -228 -90 -446 -84 -452 6 -6 9 5 41 182 14 77 40
200 56 273 17 73 29 140 27 149 l-3 17 -37 -169z"/>
<path d="M35924 46795 l9 -165 8 0 7 0 -4 38 c-2 20 -6 94 -10 165 l-6 127 -7
0 -6 0 9 -165z"/>
<path d="M34703 46923 l7 -6 7 6 6 7 -13 0 -13 0 6 -7z"/>
<path d="M34750 46750 l0 -180 10 0 10 0 0 180 0 180 -10 0 -10 0 0 -180z"/>
<path d="M39262 46869 l3 -22 12 -4 11 -4 -5 21 c-3 11 -10 23 -15 26 l-10 6
4 -23z"/>
<path d="M39662 46795 c-1 -38 3 -123 8 -187 l9 -117 11 -18 11 -18 -6 30 c-3
17 -10 100 -15 185 -12 185 -17 219 -18 125z"/>
<path d="M30690 46814 c0 -54 30 -397 35 -402 8 -8 6 28 -11 233 -14 175 -24
242 -24 169z"/>
<path d="M80514 46829 c-6 -8 -43 -70 -82 -139 l-70 -125 -57 -195 -56 -195
-33 -70 c-19 -38 -95 -168 -170 -289 l-136 -219 6 -9 6 -9 145 233 c80 128
156 256 169 284 13 28 51 144 85 258 l61 207 75 130 74 130 -3 11 -4 10 -10
-13z"/>
<path d="M20590 46738 l0 -23 -23 -47 -22 -47 -43 -45 -42 -46 -81 -37 -82
-37 10 -3 c6 -2 48 14 94 37 l83 40 34 33 34 32 19 44 c11 24 23 61 28 82 l9
39 -9 0 -9 0 0 -22z"/>
<path d="M89630 46726 l-85 -11 3 -15 c1 -8 17 -50 33 -92 l31 -78 10 0 10 0
-9 13 c-11 14 -63 143 -63 156 l0 9 88 8 c48 4 90 7 95 6 4 -1 7 3 7 8 l0 10
-17 -1 c-10 -1 -56 -7 -103 -13z"/>
<path d="M34535 46539 c-71 -3 -160 -7 -197 -8 l-68 -1 0 -16 0 -16 58 6 c31
3 132 8 225 12 l167 6 0 14 0 14 -27 -2 c-16 -1 -86 -5 -158 -9z"/>
<path d="M36240 46539 l-315 -9 -551 -30 c-303 -16 -563 -30 -577 -30 l-27 0
0 -15 0 -16 63 6 c34 3 314 19 622 35 l560 29 325 6 c179 3 369 8 423 11 l97
6 0 9 0 9 -152 -2 c-84 0 -295 -5 -468 -9z"/>
<path d="M80978 46433 l13 -5 6 6 6 6 -19 -1 -19 -1 13 -5z"/>
<path d="M80870 46420 l-25 -8 27 -1 27 -1 6 10 6 10 -8 -1 c-4 -1 -19 -5 -33
-9z"/>
<path d="M81020 46406 c0 -8 14 -88 30 -178 l30 -163 27 -58 28 -59 27 -14 27
-14 31 0 31 0 52 26 52 26 193 155 c169 137 208 173 186 173 -3 0 -89 -68
-191 -151 l-186 -150 -58 -30 -58 -29 -28 0 -28 0 -22 18 -22 17 -21 49 -21
50 -32 173 -31 173 -8 0 c-4 0 -8 -6 -8 -14z"/>
<path d="M30403 46383 l-103 -4 0 -15 0 -16 108 6 c59 4 151 9 205 12 l97 6 0
9 0 9 -102 -2 c-57 -1 -149 -4 -205 -5z"/>
<path d="M50800 46375 c0 -5 44 -92 99 -194 54 -102 133 -253 176 -336 88
-169 83 -160 91 -152 l6 6 -95 178 c-156 292 -266 496 -272 501 -3 3 -5 2 -5
-3z"/>
<path d="M80764 46353 c3 -10 30 -117 62 -238 31 -121 60 -227 65 -235 l8 -15
1 20 c0 16 -60 259 -111 448 l-10 37 -10 0 -10 0 5 -17z"/>
<path d="M30768 46283 l-58 -4 0 -11 0 -11 173 6 c94 4 198 7 230 7 l57 0 0
10 0 10 -172 -2 c-95 -1 -199 -3 -230 -5z"/>
<path d="M28035 46264 c-110 -7 -212 -13 -227 -13 l-28 -1 0 -12 0 -11 148 7
c81 3 193 9 250 13 l102 6 0 13 0 14 -22 -1 c-13 -1 -113 -8 -223 -15z"/>
<path d="M30697 46095 c3 -82 9 -170 14 -195 l7 -45 -5 150 c-3 83 -9 170 -14
195 l-7 45 5 -150z"/>
<path d="M24554 46120 l6 -80 50 -107 c28 -58 53 -104 55 -101 3 3 -17 53 -44
112 l-50 106 -3 75 -3 75 -9 0 -9 0 7 -80z"/>
<path d="M92930 46185 l-15 -14 -95 -11 c-52 -5 -111 -12 -130 -13 l-35 -4 70
-1 70 -2 65 11 65 10 17 16 17 15 13 -8 c7 -4 41 -30 75 -56 l62 -49 74 -13
74 -13 24 -16 23 -17 51 0 50 0 63 32 c34 18 62 35 62 39 0 4 -30 -8 -67 -27
l-68 -34 -37 0 -37 0 -35 21 -35 20 -66 10 -67 9 -70 55 -70 55 -17 0 c-9 0
-23 -7 -31 -15z"/>
<path d="M92934 46146 l-20 -14 -122 -13 -122 -12 0 -6 0 -7 123 13 122 13 24
10 23 11 42 -34 c22 -19 60 -44 83 -56 l42 -21 33 0 33 0 53 -25 54 -25 54 0
54 0 71 36 c93 47 83 55 -12 9 l-73 -35 -41 0 -40 0 -47 25 -47 25 -38 0 -38
0 -43 20 c-23 11 -64 37 -90 60 -27 22 -50 40 -53 40 -2 0 -14 -6 -25 -14z"/>
<path d="M91730 46093 c-217 -14 -397 -27 -399 -29 -2 -2 -2 -5 0 -7 7 -6 870
51 876 57 l6 6 -44 -1 c-24 -1 -222 -13 -439 -26z"/>
<path d="M47652 46070 c21 -62 85 -273 123 -410 54 -193 54 -194 60 -188 10
10 -160 585 -178 603 l-10 10 5 -15z"/>
<path d="M81344 45948 l-7 -11 11 7 c7 4 12 9 12 12 0 8 -9 4 -16 -8z"/>
<path d="M81322 45858 c-5 -7 -17 -38 -25 -68 -9 -30 -23 -65 -32 -77 l-16
-23 -25 0 -24 0 0 -8 0 -9 23 3 c12 1 28 3 34 3 l12 1 17 32 c16 31 56 158 50
158 -2 0 -8 -6 -14 -12z"/>
<path d="M90385 45860 l-140 -7 -245 -72 -245 -73 -42 1 -43 0 0 -11 0 -11 63
6 62 5 236 70 236 70 181 7 182 7 0 9 0 9 -52 -2 c-29 -1 -116 -5 -193 -8z"/>
<path d="M46116 45821 c5 -4 75 -20 156 -35 l147 -26 60 0 c33 0 83 5 111 11
l50 11 0 10 0 9 -21 -6 c-12 -4 -58 -10 -102 -14 l-81 -7 -150 28 c-83 15
-158 28 -165 28 l-15 0 10 -9z"/>
<path d="M52418 45674 l-6 -9 99 -205 c54 -113 100 -209 102 -215 2 -5 7 -8 9
-5 3 3 -36 93 -86 200 -50 107 -96 206 -102 219 l-10 25 -6 -10z"/>
<path d="M81246 45630 l6 -29 -10 -30 -11 -31 8 -5 9 -5 12 30 12 30 -6 35 -7
35 -9 0 -9 0 5 -30z"/>
<path d="M15393 45430 c4 -41 9 -130 13 -197 l7 -122 6 4 7 3 -12 187 -13 187
-7 6 -7 7 6 -75z"/>
<path d="M4590 45293 c0 -6 46 -55 103 -110 l103 -100 42 -27 43 -27 387 -88
387 -89 103 -12 c57 -6 106 -9 109 -7 6 7 -39 15 -127 23 l-75 6 -370 85 -370
84 -50 26 -50 26 -117 109 c-65 61 -118 106 -118 101z"/>
<path d="M79530 44981 c-69 -110 -184 -295 -257 -412 -72 -116 -177 -280 -232
-363 -54 -83 -136 -214 -182 -291 -45 -77 -109 -178 -141 -224 l-58 -84 6 -9
6 -9 69 100 c38 55 112 172 164 260 52 89 152 248 223 354 71 105 169 257 217
337 49 80 140 228 202 329 63 100 117 189 120 197 l5 14 -9 0 c-5 0 -65 -90
-133 -199z"/>
<path d="M81240 45135 c0 -21 200 -651 238 -748 l45 -118 10 10 10 10 -38 96
c-21 52 -84 242 -140 422 l-101 327 -12 4 c-7 2 -12 1 -12 -3z"/>
<path d="M5415 44870 c33 -15 305 -68 378 -74 l68 -5 -5 8 -5 8 -83 6 -83 6
-138 30 c-143 32 -166 36 -132 21z"/>
<path d="M81156 44858 c4 -13 49 -156 101 -318 l95 -295 86 -215 85 -215 42
-65 c23 -36 52 -74 64 -85 l23 -20 -13 30 c-7 17 -30 55 -50 85 l-37 55 -94
235 -95 235 -94 297 -94 298 -13 0 -13 0 7 -22z"/>
<path d="M49395 44453 c-200 -100 -201 -101 -194 -107 2 -2 96 43 209 100 113
56 198 103 190 103 -8 0 -100 -43 -205 -96z"/>
<path d="M52515 44479 c-10 -30 0 -33 13 -4 l12 25 -10 0 c-5 0 -12 -9 -15
-21z"/>
<path d="M52611 44225 c7 -16 16 -34 21 -39 l8 -10 10 10 10 10 -31 30 -31 29
13 -30z"/>
<path d="M54020 44194 c0 -3 13 -25 30 -48 16 -24 57 -106 90 -182 70 -157 80
-177 86 -172 6 7 -130 301 -165 356 -31 49 -41 60 -41 46z"/>
<path d="M87949 44023 c-17 -32 -41 -74 -52 -93 l-20 -35 15 15 c17 17 102
170 94 170 -2 0 -19 -26 -37 -57z"/>
<path d="M81630 43970 l0 -13 7 6 6 7 -6 7 -7 6 0 -13z"/>
<path d="M87850 43886 c0 -11 211 -349 228 -366 l16 -15 -16 25 c-65 105 -221
356 -224 359 -2 2 -4 1 -4 -3z"/>
<path d="M81715 43851 l-6 -11 162 -368 c209 -472 202 -458 353 -730 l130
-232 14 0 14 0 -30 53 c-16 28 -81 147 -145 262 l-116 210 -181 409 c-99 226
-182 412 -184 414 -2 2 -7 -2 -11 -7z"/>
<path d="M74315 43509 c-71 -10 -150 -21 -173 -24 -24 -4 -42 -9 -39 -12 3 -2
82 6 177 18 l171 23 10 -15 c5 -7 9 -30 10 -49 0 -19 4 -44 9 -55 l9 -20 -6
65 -6 65 -10 13 c-5 6 -12 11 -16 11 -3 -1 -64 -10 -136 -20z"/>
<path d="M52268 43480 c-42 -3 -80 -8 -83 -12 l-8 -7 85 6 85 6 20 -29 c28
-41 59 -103 72 -144 l11 -35 -5 42 -5 42 -35 59 c-19 32 -40 63 -47 68 l-13 9
-77 -5z"/>
<path d="M59500 43462 c0 -9 325 -237 354 -248 l16 -6 0 8 c-1 8 -339 244
-361 252 l-9 4 0 -10z"/>
<path d="M51503 43417 l-203 -30 0 -7 0 -6 193 28 c105 15 206 32 222 37 l30
9 -20 0 c-11 0 -111 -14 -222 -31z"/>
<path d="M55626 43423 c4 -16 29 -93 56 -173 28 -80 55 -160 61 -177 9 -30 27
-45 27 -24 0 5 -24 78 -54 162 -30 85 -59 173 -66 197 l-11 42 -10 0 -9 0 6
-27z"/>
<path d="M78007 43374 c-205 -30 -237 -37 -226 -48 4 -5 389 48 437 59 l22 5
0 10 c0 6 -3 9 -7 9 -5 -1 -106 -16 -226 -35z"/>
<path d="M54410 43364 c0 -5 41 -101 90 -213 50 -112 90 -211 90 -220 -1 -39
-64 -84 -234 -164 l-99 -47 6 -6 5 -6 143 73 143 73 23 24 23 25 0 26 0 26
-90 205 c-89 200 -100 223 -100 204z"/>
<path d="M50805 43314 c-11 -3 -188 -51 -392 -107 l-373 -102 0 -7 0 -7 13 4
c29 10 736 204 777 213 l45 10 -25 0 c-14 0 -34 -2 -45 -4z"/>
<path d="M50795 43270 c-94 -21 -326 -87 -333 -95 -11 -11 19 -4 150 34 74 22
165 45 201 52 l67 12 0 9 c0 4 -1 8 -2 7 -2 0 -39 -9 -83 -19z"/>
<path d="M11221 43149 c-13 -39 -13 -39 -2 -39 l9 0 7 31 c9 42 0 47 -14 8z"/>
<path d="M29450 43125 c0 -2 24 -17 53 -31 70 -36 125 -74 230 -161 117 -96
132 -94 20 3 -105 90 -186 148 -249 174 -49 21 -54 23 -54 15z"/>
<path d="M88323 43116 c3 -8 67 -112 142 -231 75 -119 135 -218 133 -219 -2
-2 -28 -17 -58 -34 -74 -41 -203 -132 -197 -139 3 -3 29 13 59 34 29 22 90 61
135 87 l82 47 -43 72 c-23 40 -80 133 -126 207 -46 74 -90 147 -99 162 -9 16
-20 28 -25 28 l-8 0 5 -14z"/>
<path d="M82110 43043 c0 -15 122 -235 127 -229 3 2 -23 55 -58 118 -68 124
-69 126 -69 111z"/>
<path d="M52070 43035 c0 -6 190 -388 196 -394 2 -2 6 -2 10 1 l5 6 -98 196
c-83 167 -113 217 -113 191z"/>
<path d="M32199 42987 c-20 -18 -94 -104 -164 -192 l-129 -160 -150 -152 -150
-153 7 -7 8 -7 130 129 131 130 148 180 c81 99 164 196 184 214 59 56 45 72
-15 18z"/>
<path d="M51523 42996 c-84 -12 -155 -25 -159 -29 -4 -4 -5 -7 -2 -7 22 0 353
51 356 55 9 8 -37 4 -195 -19z"/>
<path d="M42024 42955 l-19 -14 11 -1 c5 0 19 7 30 15 l19 14 -11 1 c-5 0 -19
-7 -30 -15z"/>
<path d="M20368 42866 c-168 -19 -210 -28 -197 -40 2 -2 94 7 204 20 110 13
210 23 223 23 l22 1 0 10 0 10 -32 -1 c-18 -1 -117 -11 -220 -23z"/>
<path d="M31880 42689 l0 -12 -157 -153 -157 -153 6 -7 7 -6 128 121 c159 151
217 221 183 221 -5 0 -10 -5 -10 -11z"/>
<path d="M55942 42608 l5 -13 207 -28 208 -28 6 5 c3 4 3 8 1 10 -2 3 -90 16
-194 30 -105 15 -201 29 -213 32 l-24 5 4 -13z"/>
<path d="M51380 42558 c-14 -4 -160 -24 -325 -43 -323 -39 -368 -45 -362 -52
3 -2 155 14 338 37 184 22 343 42 353 43 l20 2 27 -175 c35 -220 39 -243 45
-237 2 2 -9 89 -26 193 l-31 189 4 22 4 22 -11 4 c-6 2 -22 0 -36 -5z"/>
<path d="M45928 42262 c-87 -48 -159 -92 -162 -98 -2 -6 -1 -35 4 -65 l8 -54
1 60 1 60 160 88 c88 49 160 90 160 93 0 10 -23 -1 -172 -84z"/>
<path d="M45971 42240 c-79 -44 -149 -84 -155 -89 l-11 -10 5 -48 4 -48 6 50
5 50 138 76 c121 67 172 99 157 99 -3 0 -70 -36 -149 -80z"/>
<path d="M47155 42121 l-40 -27 -157 -64 c-87 -35 -156 -66 -153 -68 6 -7 284
106 343 140 28 16 52 34 52 39 0 12 1 12 -45 -20z"/>
<path d="M82597 42103 l-5 -8 238 -385 237 -384 13 -4 13 -5 -6 17 c-12 30
-472 775 -479 776 -4 0 -9 -3 -11 -7z"/>
<path d="M82670 42054 c0 -15 474 -782 497 -804 l16 -15 -23 40 c-13 22 -101
164 -195 315 -94 151 -198 319 -229 373 -55 90 -66 106 -66 91z"/>
<path d="M66802 41850 l2 -29 -22 -24 c-26 -27 -28 -37 -8 -37 l15 0 21 30 22
30 -7 30 -7 30 -9 0 -9 0 2 -30z"/>
<path d="M52681 41830 l-1 -15 -156 -80 c-86 -44 -158 -84 -161 -88 -4 -7 315
149 325 158 2 2 2 12 -1 22 l-5 18 -1 -15z"/>
<path d="M46181 41675 c-112 -41 -206 -77 -210 -80 l-6 -7 20 4 c39 6 415 143
415 151 0 11 -4 10 -219 -68z"/>
<path d="M51569 41668 l8 -23 29 -17 29 -16 143 -21 c152 -22 168 -24 160 -16
-2 3 -69 14 -148 26 l-144 21 -29 15 -29 15 -5 19 c-3 10 -9 19 -14 19 l-8 0
8 -22z"/>
<path d="M82726 41638 c4 -7 51 -83 104 -168 53 -85 152 -247 220 -360 67
-113 128 -211 135 -219 l13 -13 10 6 10 6 -116 190 c-64 104 -170 275 -236
380 l-118 190 -15 0 -14 0 7 -12z"/>
<path d="M30336 41598 c22 -24 82 -89 134 -146 51 -56 95 -100 98 -98 6 7
-250 286 -262 286 l-10 0 40 -42z"/>
<path d="M30941 41579 c-51 -75 -104 -119 -517 -430 l-380 -287 -84 -26 -84
-27 -97 -1 -97 0 -59 33 c-32 18 -119 79 -194 135 l-137 103 -38 16 c-56 24
-170 52 -236 58 l-58 6 0 -9 c0 -10 36 -20 75 -20 36 0 155 -31 207 -53 l37
-15 139 -105 139 -105 64 -33 64 -33 100 1 100 2 85 28 85 29 218 162 c362
270 559 422 610 471 43 41 107 128 107 144 0 18 -18 2 -49 -44z"/>
<path d="M23891 41544 c-118 -19 -217 -37 -220 -39 -15 -15 27 -12 205 15 110
16 209 32 222 35 l22 5 0 10 c0 6 -3 9 -7 9 -5 -1 -105 -17 -222 -35z"/>
<path d="M93140 41352 c0 -16 91 -142 103 -142 l9 0 -48 68 c-26 37 -51 71
-56 77 l-8 9 0 -12z"/>
<path d="M30402 41200 l-183 -138 9 -6 9 -6 187 140 c102 77 186 142 186 145
0 18 -46 -12 -208 -135z"/>
<path d="M56764 41115 l0 -210 3 108 c2 59 2 154 0 210 l-3 102 0 -210z"/>
<path d="M99850 41208 l-145 -38 -125 -19 -125 -20 -375 -86 -374 -86 -112
-35 -112 -35 -123 -55 c-67 -31 -139 -67 -160 -81 l-39 -25 6 -10 6 -9 43 26
c24 14 98 50 163 79 l119 54 114 35 114 36 395 89 395 90 90 12 90 12 150 39
c82 22 151 42 153 44 2 2 2 8 1 13 l-4 9 -145 -39z"/>
<path d="M28446 41179 l-6 -41 6 -51 c3 -29 10 -68 16 -87 12 -39 104 -206
119 -216 23 -14 16 6 -29 81 l-48 80 -23 65 -24 64 7 73 6 73 -9 0 -8 0 -7
-41z"/>
<path d="M41115 41072 l-60 -74 -40 -28 -40 -27 -55 -16 c-30 -9 -68 -19 -85
-23 l-30 -7 19 -5 18 -4 62 17 61 17 46 29 47 30 62 75 c34 41 60 78 58 83
l-3 8 -60 -75z"/>
<path d="M29421 41033 c1 -14 112 -99 188 -144 l75 -44 68 -3 68 -4 0 9 0 10
-66 6 -66 6 -64 36 c-35 20 -91 58 -125 85 -60 48 -80 59 -78 43z"/>
<path d="M58120 40680 l0 -220 10 0 10 0 0 220 0 220 -10 0 -10 0 0 -220z"/>
<path d="M97173 40713 c-95 -32 -173 -60 -173 -64 l0 -8 173 58 c94 32 179 60
187 64 l15 5 -15 1 c-8 0 -93 -25 -187 -56z"/>
<path d="M97606 40562 l-5 -9 44 -36 c24 -20 46 -37 49 -37 17 0 1 22 -38 54
l-45 36 -5 -8z"/>
<path d="M60462 40485 c2 -3 123 -23 267 -45 145 -22 283 -45 308 -51 l44 -12
114 -73 c63 -40 115 -70 115 -66 0 4 -46 37 -103 74 l-102 68 -45 14 -45 15
-267 41 c-275 41 -295 44 -286 35z"/>
<path d="M83675 40111 l-6 -11 238 -375 238 -375 13 0 c6 0 12 2 12 5 0 5
-469 745 -480 758 l-8 9 -7 -11z"/>
<path d="M46518 40094 l-6 -9 14 -25 13 -25 0 15 c0 8 -4 24 -8 34 l-8 20 -5
-10z"/>
<path d="M51142 39844 l-71 -209 -20 -97 -21 -98 0 -42 c0 -24 5 -60 11 -80
l10 -38 36 -35 c20 -19 41 -35 47 -35 l11 1 -31 27 c-17 15 -38 38 -46 52
l-15 25 -7 47 -7 46 26 128 27 128 64 185 c35 102 63 190 61 195 -2 5 -35 -85
-75 -200z"/>
<path d="M54674 40015 c3 -8 60 -94 127 -190 l121 -176 10 3 c5 2 10 7 10 12
1 4 -54 89 -122 187 l-123 179 -14 0 -15 0 6 -15z"/>
<path d="M84625 39889 c-77 -49 -142 -94 -143 -100 -2 -5 60 31 137 81 78 49
143 90 146 90 7 0 186 -266 240 -357 135 -226 1108 -1783 1112 -1779 2 2 -222
368 -498 813 -276 444 -537 868 -580 940 -43 73 -116 189 -164 258 l-86 125
-10 0 -10 0 6 10 6 10 -8 0 c-4 0 -71 -41 -148 -91z"/>
<path d="M84645 39854 c-66 -42 -127 -83 -135 -91 l-15 -16 40 24 c88 51 249
159 240 159 -5 0 -64 -34 -130 -76z"/>
<path d="M48348 39853 c-24 -32 -75 -97 -112 -145 -37 -49 -64 -88 -59 -88 11
0 227 280 221 286 -3 2 -25 -22 -50 -53z"/>
<path d="M97295 39723 c-60 -97 -111 -183 -113 -190 l-3 -13 9 0 10 0 113 181
c63 100 113 184 112 187 -1 4 -5 8 -10 9 l-8 3 -110 -177z"/>
<path d="M52186 39819 c-11 -33 -76 -392 -72 -397 6 -6 9 7 50 223 19 99 33
181 31 184 -3 2 -7 -2 -9 -10z"/>
<path d="M62656 39626 l89 -44 31 -33 31 -34 16 -45 17 -46 0 -34 0 -35 11
-15 10 -15 -7 60 c-4 33 -13 78 -22 100 l-15 40 -31 34 -31 34 -81 38 c-45 22
-88 39 -95 39 -7 0 28 -20 77 -44z"/>
<path d="M65700 39625 c0 -3 -13 -71 -29 -152 -16 -82 -32 -183 -35 -225 l-6
-78 9 0 8 0 7 38 c3 20 6 55 6 77 0 22 14 105 30 185 34 167 33 160 20 160 -5
0 -10 -2 -10 -5z"/>
<path d="M62807 39112 l6 -219 -13 -99 -13 -99 -30 -80 c-16 -44 -41 -99 -54
-122 l-25 -43 9 0 9 0 31 63 c51 101 64 137 79 227 l14 85 0 253 0 252 -9 0
-10 0 6 -218z"/>
<path d="M55305 39110 l-7 -12 28 -29 c16 -16 97 -76 179 -133 l150 -104 9 8
8 8 -5 10 c-4 5 -71 53 -149 107 -79 54 -157 111 -174 127 l-32 30 -7 -12z"/>
<path d="M53345 38730 c19 -9 390 -80 416 -80 40 0 -22 15 -207 50 -216 41
-243 45 -209 30z"/>
<path d="M60218 38357 l-47 -72 -98 -107 c-117 -129 -260 -262 -325 -303 -27
-17 -48 -34 -48 -38 l0 -8 13 7 c6 4 37 24 67 45 l55 37 155 153 155 154 68
90 c61 83 79 116 60 114 -5 0 -29 -33 -55 -72z"/>
<path d="M60055 38081 c167 -158 607 -561 612 -561 12 0 -66 75 -352 339 -143
133 -264 241 -270 241 l-9 0 19 -19z"/>
<path d="M60065 38022 c88 -89 570 -532 580 -532 l9 0 -14 14 c-535 496 -688
634 -575 518z"/>
<path d="M86645 37561 c-72 -50 -285 -194 -475 -322 -386 -260 -355 -238 -349
-243 7 -7 653 422 728 483 35 28 104 77 153 108 48 30 88 57 88 59 0 12 -29
-5 -145 -85z"/>
<path d="M92803 37611 l6 -24 -10 -20 -11 -19 14 4 13 5 3 27 4 28 -13 12 -12
11 6 -24z"/>
<path d="M86157 37278 c-125 -83 -226 -153 -223 -155 3 -4 439 278 461 298 l9
9 -9 0 c-6 -1 -113 -69 -238 -152z"/>
<path d="M580 37384 l0 -21 23 -21 c13 -12 27 -22 32 -22 l8 0 -20 23 c-11 12
-25 31 -31 42 l-11 20 -1 -21z"/>
<path d="M597 37275 c-51 -40 -70 -65 -50 -65 5 0 92 61 122 87 3 2 0 8 -5 13
l-10 10 -57 -45z"/>
<path d="M40365 36562 c-219 -45 -232 -49 -224 -56 6 -5 446 88 455 97 l7 7
-9 -1 c-5 0 -108 -22 -229 -47z"/>
<path d="M85900 36322 c0 -34 255 -332 284 -332 l10 0 -55 58 c-75 78 -159
177 -198 235 -31 46 -41 55 -41 39z"/>
<path d="M60512 35898 l4 -12 240 -131 239 -131 130 -85 c109 -72 179 -109
203 -109 2 0 -1 7 -8 15 -7 8 -18 15 -25 15 -7 0 -91 51 -187 113 l-173 113
-206 112 c-113 62 -209 112 -213 112 l-8 0 4 -12z"/>
<path d="M52155 35844 c-44 -30 -128 -82 -187 -116 -60 -34 -108 -66 -108 -70
0 -4 55 25 123 64 103 60 149 90 251 160 6 4 8 9 6 11 -3 3 -41 -20 -85 -49z"/>
<path d="M80030 35585 l-355 -184 -127 -43 c-70 -23 -126 -44 -124 -46 2 -2
50 11 107 28 l104 32 370 190 c322 165 404 209 385 208 -3 -1 -165 -84 -360
-185z"/>
<path d="M84150 35696 c0 -2 49 -89 110 -193 l109 -188 -12 -11 c-7 -7 -327
-216 -712 -466 -385 -250 -805 -525 -934 -610 l-233 -156 -58 66 c-32 37 -113
121 -181 187 l-122 120 171 -183 172 -184 0 -14 0 -14 14 0 c8 0 16 4 18 8 6
15 371 258 1073 714 855 555 812 528 818 522 2 -3 7 2 10 11 l6 15 -8 0 -9 0
-107 185 c-93 162 -125 210 -125 191z"/>
<path d="M41769 35677 l13 -17 -4 -25 -5 -25 9 0 9 0 -3 37 -3 36 -15 5 -15 5
14 -16z"/>
<path d="M85150 35375 c0 -3 24 -38 54 -78 29 -40 133 -202 231 -362 98 -159
185 -298 193 -308 24 -27 26 -12 4 20 -12 15 -98 154 -192 308 -183 297 -290
453 -290 420z"/>
<path d="M84300 35213 c-63 -41 -150 -97 -194 -124 -43 -28 -76 -52 -73 -55 2
-3 83 46 180 108 97 62 184 118 194 124 10 7 16 14 13 17 -3 2 -57 -29 -120
-70z"/>
<path d="M86665 35260 l-6 -10 7 0 c20 0 -76 -70 -201 -147 -77 -48 -155 -96
-173 -109 l-34 -22 9 -5 8 -5 166 101 c184 114 207 130 231 169 l18 27 -9 6
-10 5 -6 -10z"/>
<path d="M33793 35157 c-62 -65 -193 -289 -193 -327 l1 -15 35 70 c52 101 102
181 152 243 49 60 52 79 5 29z"/>
<path d="M61355 35054 l47 -69 -7 -67 -6 -68 14 0 14 0 7 38 c3 20 6 54 6 75
l0 38 -15 29 -15 29 -32 24 c-18 13 -39 28 -47 32 l-13 8 47 -69z"/>
<path d="M29890 34740 c0 -7 41 -105 92 -218 l92 -205 3 10 4 11 -92 203 c-95
212 -99 221 -99 199z"/>
<path d="M85441 34468 l-195 -122 12 -4 12 -4 190 118 c167 104 210 135 183
134 -5 -1 -96 -55 -202 -122z"/>
<path d="M77627 34453 c-92 -47 -165 -88 -163 -90 2 -2 77 33 167 78 l164 83
50 7 50 6 -50 1 -50 1 -168 -86z"/>
<path d="M32965 34523 c8 -8 205 -70 458 -144 l27 -8 0 7 c0 4 -105 38 -233
76 -127 38 -239 71 -247 74 l-15 5 10 -10z"/>
<path d="M80540 34465 c0 -3 25 -51 55 -107 30 -55 55 -105 55 -109 0 -5 4 -9
8 -9 12 0 175 89 187 102 5 6 -30 -10 -79 -35 -48 -26 -92 -47 -96 -47 -5 0
-34 47 -65 105 -50 94 -65 117 -65 100z"/>
<path d="M80564 34328 l65 -123 14 -9 14 -9 107 57 106 57 0 10 0 9 -103 -55
c-57 -30 -108 -55 -113 -55 l-9 0 -63 120 -63 120 -10 0 -10 0 65 -122z"/>
<path d="M71900 34348 l0 -8 458 2 c251 1 421 3 377 5 -44 2 -250 4 -458 5
l-377 3 0 -7z"/>
<path d="M85287 34194 l-187 -116 0 -9 c0 -19 25 -6 205 107 l185 115 0 10 c0
5 -3 9 -8 9 -4 0 -92 -52 -195 -116z"/>
<path d="M37393 34132 l-53 -3 0 -15 0 -14 69 0 68 0 43 -15 43 -15 68 -51 69
-51 17 6 16 7 -9 8 c-27 24 -162 118 -179 125 -36 14 -99 21 -152 18z"/>
<path d="M53302 33970 c-227 -32 -416 -61 -419 -64 l-6 -6 9 0 c27 0 878 121
882 125 10 10 -59 2 -466 -55z"/>
<path d="M34695 33979 l-80 -30 -31 -30 c-17 -16 -41 -49 -53 -72 l-22 -42 18
24 c10 12 35 43 56 66 l38 44 77 25 77 26 36 0 36 0 24 -19 24 -19 90 -171
c50 -94 93 -171 97 -171 4 0 -17 46 -48 103 -30 56 -73 138 -96 183 l-41 81
-17 11 c-9 6 -37 13 -61 16 l-44 6 -80 -31z"/>
<path d="M63839 33936 l54 -54 101 -60 c56 -33 136 -80 178 -105 l76 -46 5 13
5 12 -180 108 -180 109 -11 19 -12 20 -37 19 c-57 29 -57 24 1 -35z"/>
<path d="M84805 33835 c-170 -105 -225 -145 -202 -145 10 0 403 245 406 253 1
5 1 10 -1 12 -1 2 -93 -52 -203 -120z"/>
<path d="M84431 33779 c-531 -329 -1256 -807 -1556 -1026 -60 -44 -282 -204
-492 -356 l-382 -276 -71 -40 c-39 -23 -108 -57 -153 -76 l-82 -36 -43 -6 -43
-6 -5 -9 c-11 -18 5 -20 58 -9 71 15 182 63 298 130 l95 54 359 260 c198 143
407 297 466 341 222 167 1062 722 1565 1033 138 86 256 161 263 168 l14 13 -9
5 -9 5 -273 -169z"/>
<path d="M1600 33548 c0 -2 -15 -113 -34 -248 -19 -135 -33 -247 -30 -249 2
-2 7 -2 10 2 4 4 74 468 74 495 0 1 -4 2 -10 2 -5 0 -10 -1 -10 -2z"/>
<path d="M83047 33399 c13 -24 237 -269 246 -269 5 0 -24 37 -64 82 -103 114
-192 206 -182 187z"/>
<path d="M83031 33354 c121 -137 229 -252 229 -245 0 11 -229 265 -244 270
l-11 4 26 -29z"/>
<path d="M83495 33244 c-93 -63 -177 -119 -185 -124 l-15 -8 7 -8 8 -7 185
123 c103 68 188 127 191 132 l5 8 -13 -1 c-7 0 -89 -52 -183 -115z"/>
<path d="M79135 33009 c-4 -6 -5 -12 -4 -13 2 -2 117 -21 256 -42 l252 -40 5
13 5 13 -22 5 c-30 7 -461 75 -475 75 -6 0 -14 -5 -17 -11z"/>
<path d="M78100 32910 l0 -13 7 6 6 7 -6 7 -7 6 0 -13z"/>
<path d="M83168 32772 c-109 -76 -198 -141 -198 -146 l0 -8 13 5 c21 8 388
265 388 272 1 4 -1 8 -3 10 -1 2 -92 -58 -200 -133z"/>
<path d="M82854 32811 c-26 -24 -745 -554 -897 -661 l-122 -86 -54 -22 c-29
-12 -63 -22 -75 -22 -11 0 -28 -5 -36 -10 l-15 -10 10 -1 c32 -4 75 6 131 30
l64 27 115 80 c164 113 909 663 913 673 2 5 -1 12 -6 15 l-9 5 -19 -18z"/>
<path d="M34300 32508 c0 -7 9 -26 20 -43 l20 -30 0 13 c0 15 -28 72 -35 72
-3 0 -5 -6 -5 -12z"/>
<path d="M73595 32294 c-138 -15 -487 -62 -527 -70 l-28 -6 0 -14 0 -14 23 5
c69 15 226 36 407 54 113 12 220 23 238 26 l32 6 0 14 0 15 -12 -1 c-7 -1 -67
-8 -133 -15z"/>
<path d="M72825 32054 c-49 -7 -150 -20 -222 -29 l-133 -18 0 -12 0 -12 222
29 c122 16 224 31 226 33 2 2 2 8 1 12 l-4 9 -90 -12z"/>
<path d="M81847 31994 c-51 -26 -402 -283 -405 -296 -1 -5 0 -9 2 -10 4 -3
138 92 346 245 133 98 139 103 57 61z"/>
<path d="M72605 31975 c-293 -38 -575 -82 -583 -90 l-5 -5 6 -6 6 -6 208 31
c114 17 300 42 413 56 113 14 222 28 243 31 l37 6 0 9 0 9 -37 -1 c-21 -1
-150 -16 -288 -34z"/>
<path d="M80587 31826 c-27 -13 -62 -36 -78 -52 l-28 -27 -22 -46 -21 -45 -8
-59 -9 -58 14 -47 15 -48 30 -45 30 -46 50 -31 c86 -54 159 -64 260 -37 30 8
55 13 57 11 2 -1 -67 -54 -152 -116 -136 -99 -172 -130 -149 -130 3 0 90 62
194 138 103 75 247 180 319 231 l131 95 -9 9 -9 9 -106 -78 c-128 -95 -168
-116 -267 -143 l-75 -21 -40 0 -39 0 -51 24 c-28 13 -66 37 -86 55 l-36 31
-26 55 -26 56 0 49 0 49 20 53 c23 60 40 82 90 120 l35 27 48 12 47 13 0 8 0
8 -27 0 -28 -1 -48 -23z"/>
<path d="M98818 31737 l-27 -11 -10 -29 -11 -29 29 31 29 31 29 0 28 0 -15 10
c-17 11 -16 11 -52 -3z"/>
<path d="M98907 31692 c78 -120 270 -392 276 -392 4 0 -33 60 -83 133 -51 72
-115 167 -144 209 -28 43 -55 78 -59 78 l-9 0 19 -28z"/>
<path d="M81302 31608 c-7 -7 -12 -16 -12 -20 0 -15 27 -8 45 12 l18 20 -19 0
c-11 0 -25 -5 -32 -12z"/>
<path d="M99820 30753 c-14 -2 -47 -11 -75 -20 l-50 -16 -53 -35 c-29 -19 -50
-37 -48 -39 3 -3 25 9 50 27 l46 31 57 20 56 19 51 1 c28 0 60 4 71 9 l20 9
-50 -1 c-27 0 -61 -3 -75 -5z"/>
<path d="M79867 30480 c9 -16 21 -30 26 -30 l8 0 -18 30 c-9 17 -21 30 -26 30
l-8 0 18 -30z"/>
<path d="M74943 29419 c-48 -46 -118 -111 -156 -147 l-67 -64 6 -9 6 -10 76
70 c42 39 115 105 162 149 l84 78 -11 7 -12 8 -88 -82z"/>
<path d="M83702 29318 l-11 -11 77 -71 c42 -39 165 -159 274 -267 108 -108
212 -209 232 -224 l37 -28 6 7 7 7 -189 190 c-105 105 -242 239 -306 299
l-116 109 -11 -11z"/>
<path d="M4175 29043 c4 -115 9 -210 11 -212 2 -2 7 -2 10 2 l6 6 -7 205 -8
206 -10 0 -10 0 8 -207z"/>
<path d="M73236 29058 c32 -53 499 -736 512 -748 l15 -15 -19 31 c-54 90 -500
743 -507 744 l-8 0 7 -12z"/>
<path d="M74396 28801 l-7 -11 156 -170 157 -170 10 6 9 6 -13 16 c-11 15
-224 248 -283 311 l-23 23 -6 -11z"/>
<path d="M17215 27388 c-14 -37 -85 -371 -80 -376 10 -10 15 6 58 196 l44 192
-9 0 c-5 0 -11 -6 -13 -12z"/>
<path d="M95125 26644 c-198 -145 -362 -269 -364 -275 -1 -5 98 64 220 154
123 89 290 212 372 271 81 59 147 110 147 112 0 12 -45 -20 -375 -262z"/>
<path d="M24638 26403 c6 -2 18 -2 25 0 l12 5 -25 0 -25 0 13 -5z"/>
<path d="M24553 26393 c9 -2 25 -2 35 0 l17 5 -35 0 -35 0 18 -5z"/>
<path d="M24715 25988 c-3 -7 -27 -80 -55 -163 l-50 -149 -35 -53 c-39 -59
-41 -63 -21 -63 l14 0 31 49 32 49 54 163 c30 90 55 167 55 171 0 13 -20 9
-25 -4z"/>
<path d="M79215 25658 l-150 -60 -62 -1 -63 -2 0 -14 0 -14 69 5 68 5 161 63
161 63 -5 8 c-8 14 -21 10 -179 -53z"/>
<path d="M4496 25025 l6 -25 -6 -25 -6 -25 -31 -35 c-17 -19 -82 -76 -145
-126 -101 -80 -129 -109 -108 -109 9 0 185 139 238 188 25 23 52 55 61 71 l15
30 0 41 0 40 -15 0 -15 0 6 -25z"/>
<path d="M87028 24893 l-47 -46 -26 17 -26 17 -17 -5 c-21 -7 -191 -176 -177
-176 6 0 46 36 90 80 l80 80 17 0 c9 0 20 -4 23 -10 l6 -10 23 0 22 0 44 45
c24 24 42 47 39 49 -3 3 -26 -16 -51 -41z"/>
<path d="M90404 24849 l-4 -7 77 -6 c43 -3 157 -18 253 -32 l175 -26 101 -29
101 -29 118 -50 c65 -27 120 -48 122 -46 2 2 -51 27 -119 56 l-122 52 -116 34
-115 33 -125 21 -125 21 -108 7 -109 7 -4 -6z"/>
<path d="M89105 23318 l-6 -15 75 -213 c75 -212 82 -228 91 -218 5 4 -140 446
-149 456 -3 3 -8 -2 -11 -10z"/>
<path d="M2887 21448 c-6 -215 -5 -250 8 -236 3 3 8 109 12 236 l6 232 -10 0
-10 0 -6 -232z"/>
<path d="M87167 20324 c149 -158 193 -201 193 -190 0 10 -298 320 -313 325 -7
2 47 -58 120 -135z"/>
<path d="M92373 16563 l-172 -128 10 -3 9 -4 165 123 c139 103 181 139 162
139 -2 0 -80 -57 -174 -127z"/>
<path d="M92177 16433 l-6 -10 96 -104 c53 -57 123 -132 156 -166 l59 -63 9 6
9 5 -147 157 c-80 86 -152 163 -159 170 l-12 14 -5 -9z"/>
<path d="M92165 16400 c3 -5 8 -10 11 -10 3 0 2 5 -1 10 -3 6 -8 10 -11 10 -3
0 -2 -4 1 -10z"/>
<path d="M98540 15264 c1 -12 339 -288 358 -293 12 -2 -206 181 -345 292 l-13
9 0 -8z"/>
<path d="M98174 14823 c-27 -31 -165 -192 -306 -357 -142 -164 -258 -304 -258
-309 l0 -11 8 10 c40 45 572 664 591 686 45 55 13 39 -35 -19z"/>
<path d="M97135 13668 c-410 -480 -745 -877 -745 -882 l0 -10 9 10 c45 49
1491 1746 1491 1749 0 3 -2 5 -5 5 -2 0 -339 -392 -750 -872z"/>
<path d="M96701 13099 c-156 -182 -280 -333 -278 -335 3 -3 132 144 287 326
155 183 280 334 277 336 -2 2 -131 -145 -286 -327z"/>
<path d="M25509 12776 c-2 -3 -85 -14 -184 -26 -98 -11 -181 -23 -184 -25 -8
-8 29 -6 202 15 l169 20 16 10 17 9 -16 1 c-9 0 -18 -2 -20 -4z"/>
<path d="M25810 12367 c0 -3 25 -66 55 -141 30 -74 80 -213 110 -308 l55 -173
36 -180 35 -180 89 -628 c48 -346 91 -631 94 -635 l6 -5 7 6 6 7 -87 622 -88
623 -39 195 -39 194 -52 166 -52 165 -55 134 -56 134 -12 5 c-7 2 -13 1 -13
-1z"/>
<path d="M26100 11015 c0 -17 322 -2252 326 -2264 l5 -14 9 9 9 9 -163 1129
-162 1130 -12 4 -12 4 0 -7z"/>
<path d="M26416 9202 l-7 -11 97 -668 97 -668 9 -9 8 -10 5 6 6 6 -96 663
c-53 365 -100 673 -104 683 l-7 20 -8 -12z"/>
<path d="M26670 7364 c0 -28 80 -655 116 -909 l36 -250 -6 -85 c-3 -47 -13
-113 -21 -146 l-14 -62 -47 -85 -47 -86 -87 -108 -88 -108 -283 -281 -284
-281 -45 -25 c-25 -14 -137 -68 -250 -119 l-205 -93 -65 -42 c-36 -23 -97 -70
-137 -106 l-71 -64 -287 -354 c-158 -194 -289 -359 -292 -366 l-5 -14 10 0 11
0 281 348 282 347 81 74 c45 40 107 89 137 109 l55 36 232 107 c128 59 247
118 265 130 18 12 160 149 316 303 l284 281 87 110 88 110 45 85 46 85 16 79
16 78 0 94 0 93 -30 238 c-17 131 -42 315 -55 408 -13 94 -31 226 -40 295 -9
69 -18 140 -21 158 l-6 32 -9 0 -9 0 0 -16z"/>
<path d="M13390 5838 c0 -3 -34 -212 -75 -464 -42 -252 -74 -465 -73 -473 2
-9 39 197 81 457 l78 474 -5 6 c-3 3 -6 3 -6 0z"/>
<path d="M13156 4664 c-22 -126 -41 -236 -44 -244 l-5 -15 10 10 10 10 38 222
c20 122 35 227 33 234 -2 7 -21 -91 -42 -217z"/>
<path d="M13150 4398 c0 -3 -7 -43 -16 -89 -9 -46 -24 -149 -34 -229 l-19
-145 7 -7 8 -8 2 33 c4 67 24 216 43 326 l20 113 -5 6 -6 5 0 -5z"/>
<path d="M24663 3966 c-83 -105 -187 -240 -231 -301 l-79 -110 -136 -231 c-75
-128 -137 -237 -137 -243 0 -29 23 2 115 157 131 220 191 312 294 457 69 97
274 361 338 436 l14 17 -13 4 -13 5 -152 -191z"/>
<path d="M24912 4118 l4 -11 85 -37 84 -37 94 -12 c84 -11 113 -10 100 3 -2 3
-45 10 -94 16 l-90 12 -89 39 c-99 43 -99 44 -94 27z"/>
<path d="M24872 4078 l5 -13 86 -38 86 -38 83 -14 82 -15 9 9 9 9 -74 11 -73
12 -55 21 c-30 12 -77 32 -104 45 -58 27 -59 27 -54 11z"/>
<path d="M13041 3925 c-5 -51 -54 -289 -75 -360 l-27 -90 -14 -135 c-13 -121
-36 -271 -51 -340 l-5 -25 9 10 9 10 22 135 c11 74 26 180 31 235 l11 100 24
85 c14 47 36 147 50 224 l26 138 -5 12 -4 11 -1 -10z"/>
<path d="M12970 3435 c0 -8 -9 -93 -20 -188 l-20 -172 -94 -525 -94 -525 9
-10 9 -9 0 9 c0 5 43 249 95 542 l95 533 20 175 c23 206 22 185 10 185 l-10 0
0 -15z"/>
<path d="M23671 2368 c-116 -172 -232 -339 -258 -371 l-48 -58 -103 -71 -103
-70 -85 -39 -85 -39 6 -10 6 -9 22 8 c12 5 53 23 90 40 l69 31 106 74 107 75
31 38 c24 30 441 645 467 690 l7 12 -9 6 -10 5 -210 -312z"/>
<path d="M22984 2232 c7 -11 313 -252 320 -252 21 0 -12 31 -149 138 -85 67
-160 122 -166 122 l-10 0 5 -8z"/>
<path d="M8440 1865 l0 -15 73 0 c66 0 700 -42 820 -54 l47 -5 0 14 0 15 -18
0 c-10 0 -204 14 -432 30 -228 17 -431 30 -452 30 l-38 0 0 -15z"/>
<path d="M7408 1637 l-218 -50 0 -12 0 -13 43 10 c163 36 392 90 395 93 2 2 2
8 1 13 l-4 8 -217 -49z"/>
<path d="M12200 1601 l0 -9 28 -6 c15 -2 219 -19 454 -37 l428 -33 6 7 c4 4 5
9 2 12 -5 5 -840 74 -895 75 l-23 0 0 -9z"/>
<path d="M12210 1550 l0 -9 33 -5 c17 -3 220 -20 450 -37 l418 -31 6 6 6 6 -6
7 -7 6 -423 33 c-232 18 -434 33 -449 34 l-28 0 0 -10z"/>
<path d="M15860 1317 l0 -14 78 -6 c42 -3 346 -22 674 -43 l598 -38 6 7 c4 4
5 9 2 12 -2 3 -285 23 -629 45 -343 21 -648 42 -676 45 l-53 5 0 -13z"/>
<path d="M16770 1207 l0 -14 216 -13 215 -13 12 12 11 11 -14 0 c-8 0 -107 7
-220 15 -113 8 -208 15 -212 15 -5 0 -8 -6 -8 -13z"/>
<path d="M17680 1195 l0 -15 24 0 c32 0 318 -18 379 -24 l47 -5 0 14 0 15 -24
0 c-32 0 -318 18 -378 24 l-48 5 0 -14z"/>
<path d="M17680 1141 l0 -9 78 -6 c42 -3 127 -8 187 -11 113 -6 545 -41 603
-49 l32 -5 0 15 0 14 -16 0 c-9 0 -116 9 -238 20 -234 21 -519 40 -598 40
l-48 0 0 -9z"/>
<path d="M19950 976 l0 -16 28 0 c15 0 114 -7 221 -15 l194 -15 8 6 c5 3 9 9
9 13 l0 7 -197 13 c-109 7 -213 15 -230 18 l-33 5 0 -16z"/>
</g>
</svg>
