<?xml version="1.0" standalone="no"?>
<!DOCTYPE svg PUBLIC "-//W3C//DTD SVG 20010904//EN"
 "http://www.w3.org/TR/2001/REC-SVG-20010904/DTD/svg10.dtd">
<svg version="1.0" xmlns="http://www.w3.org/2000/svg"
 width="7500.000000pt" height="7500.000000pt" viewBox="0 0 7500.000000 7500.000000"
 preserveAspectRatio="xMidYMid meet">
<metadata>
Created by potrace 1.16, written by Peter Selinger 2001-2019
</metadata>
<g transform="translate(0.000000,7500.000000) scale(0.075000,-0.075000)"
fill="#000000" stroke="none">
<path d="M89911 99104 l-33 -156 7 -6 6 -6 8 12 c4 8 21 75 36 150 15 75 30
143 33 150 l4 12 -14 0 -15 0 -32 -156z"/>
<path d="M88255 96332 c-3 -3 86 -40 197 -83 111 -43 203 -77 205 -75 2 2 -86
39 -197 83 -110 44 -202 77 -205 75z"/>
<path d="M15430 96298 l0 -14 198 -53 197 -53 120 -48 c66 -27 156 -65 200
-85 44 -21 99 -46 123 -56 l42 -18 0 13 0 13 -157 71 c-236 105 -270 118 -493
179 -113 30 -211 58 -217 60 l-13 5 0 -14z"/>
<path d="M88240 96293 l0 -10 48 -15 c26 -9 114 -41 195 -73 82 -31 150 -55
153 -53 2 3 -78 36 -178 75 -101 39 -191 74 -200 78 l-18 7 0 -9z"/>
<path d="M15804 96146 c-3 -8 -4 -22 -2 -31 l3 -17 210 -84 c116 -46 217 -87
225 -92 63 -36 353 -183 345 -174 -5 6 -90 53 -188 106 l-179 95 -205 82 -204
82 5 23 6 24 -5 0 c-3 0 -8 -6 -11 -14z"/>
<path d="M98090 94562 l0 -8 190 -76 190 -76 0 8 0 8 -142 57 c-79 31 -164 66
-190 76 l-48 19 0 -8z"/>
<path d="M21853 92521 l6 -118 21 -83 c12 -46 31 -102 42 -124 l21 -41 4 12 4
12 -17 32 c-34 66 -65 235 -66 354 l0 75 -11 0 -10 0 6 -119z"/>
<path d="M21880 92621 c0 -4 35 -15 78 -25 42 -10 111 -32 152 -49 41 -16 96
-35 123 -42 l47 -13 -5 8 c-3 5 -19 12 -36 15 -17 4 -63 20 -103 36 -39 17
-112 40 -163 53 l-93 24 0 -7z"/>
<path d="M57510 92527 c23 -21 382 -219 387 -214 2 3 -42 31 -99 62 -57 32
-144 82 -195 111 -91 53 -121 66 -93 41z"/>
<path d="M29270 90717 l0 -14 221 -62 221 -62 6 5 6 6 -10 9 c-5 4 -101 34
-214 66 -113 32 -211 60 -217 63 l-13 4 0 -15z"/>
<path d="M95010 90722 l0 -13 47 -45 46 -45 61 -32 c68 -35 215 -97 230 -97
l10 0 -9 8 c-6 5 -37 19 -70 32 -33 13 -94 41 -135 63 l-75 40 -52 51 -53 50
0 -12z"/>
<path d="M29770 90488 l0 -14 118 -18 117 -18 103 -33 102 -33 5 9 6 8 -18 9
c-10 5 -54 21 -98 35 l-80 26 -100 15 c-55 9 -112 19 -127 22 l-28 6 0 -14z"/>
<path d="M86330 88940 c25 -4 97 -11 160 -14 l115 -7 85 10 85 9 -140 -1 c-77
-1 -187 1 -245 5 l-105 7 45 -9z"/>
<path d="M78970 88441 c0 -5 8 -11 18 -14 9 -3 108 -37 219 -75 l203 -71 5 8
5 8 -218 77 c-119 42 -220 76 -225 76 -4 0 -7 -4 -7 -9z"/>
<path d="M80257 87993 l-6 -9 197 -69 c108 -38 203 -70 210 -73 l12 -4 0 9 0
10 -192 68 c-106 38 -198 70 -204 72 l-12 4 -5 -8z"/>
<path d="M80690 87893 l0 -8 199 -69 200 -68 13 5 13 5 -15 6 c-45 17 -393
136 -401 136 -5 0 -9 -3 -9 -7z"/>
<path d="M84307 86898 l-46 -103 -15 -9 -14 -10 -276 76 c-152 41 -276 72
-276 68 0 -5 553 -160 572 -160 8 0 111 230 105 236 -2 2 -25 -42 -50 -98z"/>
<path d="M81266 85491 c10 -9 373 -131 389 -130 9 0 -384 139 -394 139 -3 0
-1 -4 5 -9z"/>
<path d="M82825 84630 l-6 -10 11 0 10 0 20 -32 19 -31 -6 -31 -5 -31 -29 -27
-29 -28 -25 0 -25 0 0 -14 0 -15 38 6 37 5 27 31 28 31 6 33 6 33 -12 31 c-21
50 -51 72 -65 49z"/>
<path d="M30064 83954 c4 -11 39 -111 77 -223 38 -112 71 -207 74 -209 19 -19
6 31 -58 223 l-73 219 -14 4 -13 5 7 -19z"/>
<path d="M1175 83110 l-6 -10 38 -16 c21 -9 79 -33 128 -54 50 -20 176 -66
280 -100 105 -35 241 -82 303 -106 114 -44 142 -51 142 -36 l0 9 -125 47 c-69
26 -216 78 -327 115 -112 37 -251 89 -310 114 -119 52 -114 51 -123 37z"/>
<path d="M92502 82419 c-62 -87 -115 -166 -119 -176 l-6 -18 35 45 c82 108
209 291 206 299 l-3 8 -113 -158z"/>
<path d="M92537 82399 c-59 -83 -107 -155 -105 -160 l3 -8 65 92 c36 50 87
122 113 159 27 37 45 68 40 68 -5 0 -57 -68 -116 -151z"/>
<path d="M96740 82080 l-125 -69 -33 -33 c-18 -18 -42 -46 -54 -63 l-20 -30
53 57 54 58 120 66 c107 59 148 85 135 84 -3 0 -61 -32 -130 -70z"/>
<path d="M4680 81747 l0 -14 213 -82 c116 -45 215 -81 220 -81 4 0 7 6 7 13
l0 12 -211 80 c-116 44 -215 82 -220 83 l-9 4 0 -15z"/>
<path d="M96228 81436 c-29 -40 -188 -262 -352 -492 -165 -231 -310 -434 -324
-451 l-24 -33 9 0 10 0 318 448 c410 575 410 575 419 590 4 6 5 12 2 12 -2 0
-28 -33 -58 -74z"/>
<path d="M76263 78425 l-53 -24 0 -10 0 -11 13 0 c13 0 97 57 97 66 0 5 2 6
-57 -21z"/>
<path d="M41830 78220 c0 -9 39 -25 46 -18 2 3 -7 10 -21 16 l-25 12 0 -10z"/>
<path d="M12900 77391 l0 -11 23 -5 c36 -9 407 -85 412 -85 3 0 5 6 5 13 l0
13 -197 39 c-109 21 -208 41 -220 43 l-23 4 0 -11z"/>
<path d="M74140 77260 l0 -31 24 -47 24 -47 31 -29 31 -30 7 7 7 7 -26 28
c-14 15 -35 43 -47 62 l-21 35 0 38 0 37 -15 0 -15 0 0 -30z"/>
<path d="M71295 72130 l-39 -40 10 -10 10 -10 39 40 39 40 -10 10 -10 10 -39
-40z"/>
<path d="M71365 72150 c-4 -6 -5 -12 -4 -13 2 -1 14 -10 26 -20 l21 -18 6 9 5
9 -23 22 -24 23 -7 -12z"/>
<path d="M71456 72061 l-6 -8 19 -17 19 -17 7 11 7 11 -12 14 c-14 17 -26 19
-34 6z"/>
<path d="M71536 71992 l-5 -9 42 -40 42 -41 30 -6 30 -7 40 14 39 14 4 13 5
13 -24 -8 c-13 -4 -43 -10 -66 -12 l-41 -5 -45 42 -45 41 -6 -9z"/>
<path d="M72994 70838 c-8 -13 -11 -12 109 -42 l107 -26 118 -10 c64 -5 123
-10 130 -10 l12 0 0 14 0 13 -122 7 -123 7 -113 28 -112 29 -6 -10z"/>
<path d="M35860 68276 l0 -14 108 -69 c59 -39 144 -90 189 -115 l82 -46 5 6
c14 13 0 24 -96 78 -57 32 -142 84 -190 116 -48 32 -90 58 -93 58 -3 0 -5 -6
-5 -14z"/>
<path d="M49449 66418 c-61 -111 -144 -250 -419 -703 -76 -126 -139 -237 -140
-245 l0 -15 134 224 c74 122 138 227 143 231 l8 8 159 -114 c87 -63 164 -114
169 -114 l11 0 -9 9 c-6 4 -79 57 -163 116 -84 59 -155 111 -157 115 l-4 7
122 209 c136 231 221 384 214 384 -3 0 -33 -51 -68 -112z"/>
<path d="M98179 66371 l-227 -65 5 -12 4 -12 222 65 c122 35 223 66 225 68 2
2 2 8 1 13 l-4 9 -226 -66z"/>
<path d="M41550 66192 l0 -10 156 -101 c86 -56 159 -100 161 -97 3 3 -48 40
-113 82 -66 42 -138 90 -161 106 l-43 29 0 -9z"/>
<path d="M49120 65940 l0 -13 7 6 6 7 -6 7 -7 6 0 -13z"/>
<path d="M31180 65522 l0 -20 108 -7 c59 -4 159 -13 222 -21 63 -8 118 -14
123 -14 l7 0 0 20 c0 11 -1 20 -3 20 -1 0 -56 6 -122 14 -66 8 -168 18 -227
22 l-108 6 0 -20z"/>
<path d="M30250 65454 c-91 -7 -256 -25 -367 -40 l-203 -28 0 -13 0 -14 15 -5
15 -6 187 25 188 26 160 10 160 11 191 0 192 0 103 -10 c57 -5 121 -12 142
-15 l37 -5 0 25 0 25 -22 0 c-13 0 -86 7 -163 15 l-140 14 -165 -1 -165 -1
-165 -13z"/>
<path d="M70752 64485 c56 -112 104 -202 106 -201 4 5 -196 406 -203 406 -3 0
41 -92 97 -205z"/>
<path d="M40695 64505 c30 -79 78 -230 90 -280 l15 -60 -6 53 -5 53 -41 117
c-22 64 -45 122 -51 127 l-10 10 8 -20z"/>
<path d="M1225 64449 c-16 -5 -95 -13 -175 -19 -79 -6 -146 -13 -149 -16 -2
-2 55 -4 128 -4 l132 0 45 11 c39 10 63 25 53 33 -2 2 -17 -1 -34 -5z"/>
<path d="M77236 63779 l-18 -30 7 -7 7 -7 24 30 c27 34 30 45 11 45 l-13 0
-18 -31z"/>
<path d="M41160 63463 c-175 -148 -193 -164 -188 -168 2 -3 73 54 157 126 85
71 155 128 156 127 12 -17 221 -246 233 -255 9 -7 20 -13 25 -13 l9 0 -20 18
c-15 13 -155 166 -241 264 l-6 7 -125 -106z"/>
<path d="M43164 63349 c-21 -23 -147 -134 -279 -247 -132 -113 -270 -234 -307
-269 -36 -34 -68 -63 -71 -63 -7 0 -373 412 -446 503 -61 75 -81 95 -62 60 17
-33 131 -165 475 -551 l20 -22 -40 -41 c-21 -22 -137 -124 -256 -227 -120
-102 -218 -190 -218 -194 0 -11 442 365 489 416 l24 26 14 0 13 0 0 9 c0 15
110 116 370 338 243 209 328 288 319 298 -3 2 -23 -14 -45 -36z"/>
<path d="M6995 63298 l-18 -11 -156 5 -156 4 -35 -5 -35 -6 11 -7 11 -7 189
-3 189 -3 23 16 23 17 -14 5 -13 5 -19 -10z"/>
<path d="M42732 62914 c-116 -103 -212 -191 -212 -195 0 -10 423 359 428 373
2 4 2 8 0 8 -2 0 -99 -84 -216 -186z"/>
<path d="M42932 62515 c-123 -106 -233 -203 -245 -216 l-22 -23 20 15 c22 15
428 361 459 390 11 10 18 20 15 22 -2 2 -105 -82 -227 -188z"/>
<path d="M58008 62461 c-107 -87 -208 -167 -223 -179 -16 -12 -26 -24 -23 -27
2 -2 94 68 204 156 109 89 210 170 223 180 13 11 22 21 20 24 -3 2 -93 -67
-201 -154z"/>
<path d="M43270 62544 c26 -34 282 -314 287 -314 2 0 1 6 -3 13 -12 19 -273
306 -287 314 l-12 7 15 -20z"/>
<path d="M88987 62383 l-6 -9 171 -144 c94 -80 177 -148 184 -153 l13 -7 5 8
5 9 -176 149 c-97 82 -180 150 -184 152 -4 2 -10 -1 -12 -5z"/>
<path d="M57330 61901 l0 -8 118 -51 c64 -28 173 -75 242 -105 69 -30 127 -53
129 -51 6 6 9 5 -189 92 -102 44 -211 92 -242 106 l-58 26 0 -9z"/>
<path d="M57320 61861 l0 -8 240 -103 c132 -57 242 -101 244 -99 4 3 -94 48
-431 196 l-53 23 0 -9z"/>
<path d="M60275 61692 c12 -12 277 -124 282 -119 3 3 -108 53 -257 114 l-35
15 10 -10z"/>
<path d="M63564 60265 c3 -11 24 -111 47 -223 23 -111 44 -200 47 -198 6 6
-78 408 -90 426 l-9 15 5 -20z"/>
<path d="M63522 60260 c3 -8 25 -105 48 -215 l42 -200 10 -10 9 -10 -5 15 c-2
8 -24 105 -47 215 l-42 200 -10 10 -10 10 5 -15z"/>
<path d="M61914 60170 c20 -102 77 -365 81 -369 3 -2 5 0 5 6 0 23 -71 349
-81 368 l-9 20 4 -25z"/>
<path d="M91090 59935 c0 -6 28 -41 62 -80 80 -90 299 -367 411 -517 48 -65
91 -118 96 -118 l10 0 -92 123 c-156 210 -379 486 -473 587 l-14 14 0 -9z"/>
<path d="M58810 59914 c0 -13 162 -365 167 -361 3 4 -154 355 -163 366 -2 2
-4 0 -4 -5z"/>
<path d="M62057 59436 c-240 -51 -440 -96 -445 -100 l-7 -8 25 6 c14 3 210 44
435 91 352 73 482 104 440 104 -5 -1 -207 -42 -448 -93z"/>
<path d="M83804 59145 c4 -11 88 -175 188 -364 99 -189 188 -367 198 -395 l19
-51 0 16 c2 34 -31 103 -214 449 -177 336 -208 392 -191 345z"/>
<path d="M63854 58915 c2 -16 21 -119 42 -227 l38 -198 6 0 7 0 -43 218 c-40
198 -61 284 -50 207z"/>
<path d="M63900 58475 c0 -5 30 -149 66 -320 36 -170 97 -469 135 -664 61
-314 79 -393 79 -353 0 24 -145 751 -206 1037 -57 263 -74 332 -74 300z"/>
<path d="M75488 58250 c-3 -129 -4 -237 -2 -239 12 -13 14 27 12 240 l-3 234
-7 -235z"/>
<path d="M61087 58406 c-109 -24 -201 -47 -205 -51 l-7 -7 20 5 c11 3 101 22
200 42 99 20 189 40 200 45 l20 9 -15 -1 c-8 0 -104 -19 -213 -42z"/>
<path d="M59985 58362 c14 -13 367 -142 385 -142 8 1 -28 17 -80 36 -211 79
-314 115 -305 106z"/>
<path d="M60658 58276 c-108 -22 -200 -45 -205 -50 l-8 -8 20 5 c11 3 103 22
205 43 102 20 192 40 200 45 l15 8 -15 0 c-8 -1 -104 -20 -212 -43z"/>
<path d="M62313 58222 c3 -12 20 -101 38 -197 l33 -175 8 0 7 0 -4 13 c-2 6
-18 89 -36 182 -17 94 -36 177 -41 185 l-9 15 4 -23z"/>
<path d="M64030 58030 c0 -8 20 -109 45 -225 25 -115 66 -313 92 -439 26 -127
48 -225 50 -219 7 21 -165 872 -179 888 l-8 9 0 -14z"/>
<path d="M62050 57764 c-162 -35 -358 -76 -434 -92 l-140 -29 10 -5 9 -5 438
93 c241 50 441 95 444 98 l6 6 -19 -1 c-10 -1 -152 -30 -314 -65z"/>
<path d="M81562 57645 c-95 -12 -176 -25 -179 -29 l-6 -6 6 -6 6 -7 178 22
c98 12 193 25 211 28 l32 5 0 9 0 9 -37 -1 c-21 -1 -116 -12 -211 -24z"/>
<path d="M80371 57474 c-116 -67 -201 -124 -185 -124 5 0 25 11 44 23 19 13
83 52 143 86 l107 62 25 -28 c31 -36 32 -27 2 15 l-24 31 -112 -65z"/>
<path d="M84021 56765 c3 -2 83 -33 179 -69 96 -35 189 -69 205 -76 l30 -11
-10 10 c-9 9 -387 151 -402 151 -3 0 -4 -2 -2 -5z"/>
<path d="M64274 56659 c3 -14 24 -113 46 -219 l40 -193 -15 -17 c-8 -9 -15
-23 -15 -31 l0 -14 24 30 c13 16 23 32 21 35 -2 3 -22 95 -45 205 -23 110 -47
207 -52 215 l-9 15 5 -26z"/>
<path d="M61770 56374 c0 -5 16 -102 37 -216 l38 -208 8 0 8 0 -5 18 c-3 9
-21 105 -41 212 -32 171 -44 226 -45 194z"/>
<path d="M1490 56143 c1 -5 29 -25 63 -47 l62 -38 94 -114 c52 -63 98 -114
102 -114 21 0 3 28 -86 134 l-95 114 -53 36 -52 36 -18 0 c-9 0 -17 -3 -17 -7z"/>
<path d="M63797 56060 c3 -11 10 -23 15 -26 l10 -6 -4 23 -3 22 -12 4 -11 4 5
-21z"/>
<path d="M84971 55778 c54 -223 57 -233 65 -225 6 6 -96 408 -106 420 -4 5 15
-83 41 -195z"/>
<path d="M25510 55923 c1 -8 339 -225 363 -232 l12 -3 -10 10 c-8 8 -229 150
-352 226 l-13 7 0 -8z"/>
<path d="M25490 55891 c0 -4 73 -54 163 -111 89 -57 172 -110 185 -118 l22
-14 0 9 c0 4 -39 33 -87 63 -49 30 -132 82 -185 117 -54 34 -98 59 -98 54z"/>
<path d="M62758 55806 c-228 -48 -269 -59 -257 -70 2 -2 127 21 277 52 l272
56 0 8 0 8 -22 -1 c-13 -1 -134 -25 -270 -53z"/>
<path d="M51160 55528 c-179 -205 -207 -238 -197 -238 5 0 277 307 375 423
l15 17 -9 -1 c-5 0 -88 -90 -184 -201z"/>
<path d="M25960 55630 l0 -13 7 6 6 7 -6 7 -7 6 0 -13z"/>
<path d="M26475 55201 l-5 -10 10 -6 10 -6 0 15 c0 18 -6 21 -15 7z"/>
<path d="M61940 55109 c0 -45 175 -916 186 -928 13 -14 4 34 -57 324 -37 176
-79 385 -93 464 -23 129 -36 180 -36 140z"/>
<path d="M53202 54903 c-15 -25 -78 -123 -140 -216 -62 -93 -111 -171 -108
-174 5 -5 192 270 240 352 16 28 35 58 44 68 l15 17 -12 0 -11 0 -28 -47z"/>
<path d="M52299 54909 c13 -11 26 -17 29 -14 7 6 -29 34 -43 34 l-10 0 24 -20z"/>
<path d="M52960 54471 c0 -10 30 -24 37 -17 3 2 -5 9 -16 16 l-21 11 0 -10z"/>
<path d="M50797 54363 l-5 -8 189 -155 c104 -85 194 -156 199 -158 l10 -4 0 9
c0 7 -309 265 -371 311 l-18 12 -4 -7z"/>
<path d="M50905 53880 c3 -5 11 -10 16 -10 l10 0 -6 10 c-3 6 -11 10 -16 10
l-10 0 6 -10z"/>
<path d="M50356 53494 l-20 -14 10 0 c13 0 39 18 34 24 -3 2 -14 -2 -24 -10z"/>
<path d="M51950 53460 l0 -9 15 5 c8 4 15 8 15 10 0 2 -7 4 -15 4 l-15 0 0
-10z"/>
<path d="M52990 52893 c-124 -63 -214 -112 -200 -108 28 8 392 188 424 211 47
33 -11 6 -224 -103z"/>
<path d="M34312 52966 l-43 -11 -8 -15 c-13 -24 -93 -332 -88 -337 6 -5 35 96
87 294 l11 43 44 11 45 11 0 9 c0 5 -1 9 -2 8 -2 -1 -22 -6 -46 -13z"/>
<path d="M77718 52827 l-187 -72 2 -10 2 -10 10 3 c6 2 94 35 198 74 l187 71
0 9 c0 15 -23 8 -212 -65z"/>
<path d="M27720 52689 c0 -22 -9 -220 -21 -441 -11 -220 -18 -402 -16 -405 8
-7 16 113 32 472 8 182 17 349 19 373 l4 42 -9 0 -9 0 0 -41z"/>
<path d="M52651 52645 l-114 -55 5 -6 6 -5 111 55 c61 31 111 58 111 61 0 7 6
10 -119 -50z"/>
<path d="M22522 52333 l-41 -98 -36 -142 c-19 -78 -35 -150 -34 -160 0 -10 20
54 43 142 l43 160 37 85 37 85 16 13 17 12 -20 0 -21 0 -41 -97z"/>
<path d="M16670 52043 c0 -8 398 -175 413 -174 25 3 -14 23 -194 97 -204 85
-219 90 -219 77z"/>
<path d="M53293 51780 c45 -93 85 -170 89 -170 3 0 -30 77 -75 170 -45 94 -85
170 -89 170 -3 0 30 -76 75 -170z"/>
<path d="M17074 51813 c12 -12 420 -182 425 -177 3 2 0 8 -5 13 -13 13 -394
171 -412 171 l-15 0 7 -7z"/>
<path d="M28398 51014 c-5 -4 -8 -11 -8 -16 l0 -8 18 2 c9 1 27 0 39 0 l23 -2
6 -25 6 -25 10 0 10 0 -7 28 c-9 36 -15 42 -56 48 l-34 6 -7 -8z"/>
<path d="M26775 50744 c-4 -96 -5 -177 -2 -180 3 -3 8 57 11 133 4 76 8 157
10 181 l4 42 -8 0 -8 0 -7 -176z"/>
<path d="M26814 50740 l-9 -180 6 0 7 0 6 138 c4 75 8 156 10 180 l4 42 -8 0
-7 0 -9 -180z"/>
<path d="M33540 50837 c0 -10 120 -778 126 -810 3 -16 8 -27 10 -24 6 5 -122
826 -130 834 l-6 6 0 -6z"/>
<path d="M33574 50350 c4 -19 17 -104 31 -189 13 -84 26 -156 29 -159 l6 -5 0
9 c-1 33 -59 366 -65 372 l-7 7 6 -35z"/>
<path d="M49553 50259 l-12 -12 27 -53 26 -54 27 0 27 0 -35 65 c-36 67 -41
73 -60 54z"/>
<path d="M15722 50158 c-21 -29 -64 -89 -95 -133 -31 -44 -76 -104 -101 -134
l-45 -55 6 -9 5 -9 7 9 c4 4 27 33 52 63 38 46 197 266 222 308 l8 12 -10 0
c-6 0 -28 -24 -49 -52z"/>
<path d="M49680 49994 c0 -12 104 -179 217 -349 l112 -170 111 -131 c61 -71
129 -156 151 -187 43 -60 50 -65 68 -44 l11 14 -62 84 c-34 46 -103 132 -154
191 l-93 108 -124 187 c-68 104 -139 214 -158 246 l-34 57 -22 0 c-13 0 -23
-3 -23 -6z"/>
<path d="M78710 49992 c0 -5 -55 -114 -123 -243 l-122 -235 -38 -51 c-21 -28
-53 -65 -72 -81 l-34 -30 6 -6 5 -5 36 27 36 27 41 56 41 56 122 235 c67 129
122 240 122 247 0 6 -4 11 -10 11 -5 0 -10 -4 -10 -8z"/>
<path d="M22870 49770 c58 -4 159 -7 225 -7 l120 0 -110 7 c-60 4 -162 7 -225
7 l-115 0 105 -7z"/>
<path d="M22405 49750 l30 -8 165 -5 165 -5 -20 7 -20 8 -175 5 -175 6 30 -8z"/>
<path d="M77656 49154 c-120 -24 -221 -46 -224 -49 -16 -16 25 -11 234 30 126
25 230 45 232 45 2 0 0 5 -3 10 -3 6 -9 9 -13 9 -4 -1 -105 -21 -226 -45z"/>
<path d="M76415 48855 c-33 -7 -130 -21 -215 -30 -153 -16 -169 -19 -157 -31
l5 -6 179 21 c98 12 199 26 226 32 l47 11 0 9 0 9 -12 -1 c-7 -1 -40 -7 -73
-14z"/>
<path d="M91417 48678 c-81 -94 -147 -176 -147 -182 l0 -10 8 10 c5 5 64 74
132 154 68 80 132 155 143 167 11 13 18 25 15 28 -2 3 -70 -73 -151 -167z"/>
<path d="M50602 48728 l-11 -13 35 -45 c19 -25 71 -106 116 -180 44 -74 86
-140 92 -147 l11 -12 14 8 14 9 -79 134 c-77 130 -158 250 -173 256 -5 1 -13
-3 -19 -10z"/>
<path d="M38302 47099 c31 -188 60 -345 64 -348 l7 -6 -6 30 c-3 17 -29 173
-58 348 l-52 317 -7 0 -6 0 58 -341z"/>
<path d="M29090 46787 c-181 -8 -210 -11 -199 -20 7 -6 521 21 527 27 l5 6
-69 -2 c-38 0 -157 -5 -264 -11z"/>
<path d="M39696 46420 l7 -45 58 -153 c64 -166 86 -214 132 -282 33 -50 226
-250 241 -250 6 0 -40 51 -100 113 l-110 112 -42 70 -41 70 -57 145 c-31 80
-62 169 -70 198 -7 30 -15 57 -19 60 l-6 6 7 -44z"/>
<path d="M93046 46051 l-28 -29 -81 -30 -82 -31 -28 6 -27 5 -95 -7 -95 -7 0
-6 0 -7 132 2 133 2 76 28 76 28 32 38 33 37 -9 0 c-5 0 -22 -13 -37 -29z"/>
<path d="M93471 46029 l-74 -39 -41 0 -41 0 -40 22 -40 22 -55 7 c-30 4 -64
10 -75 14 l-20 7 19 -16 20 -16 35 0 36 0 53 -25 54 -25 57 0 56 0 74 39 73
38 -8 6 -9 5 -74 -39z"/>
<path d="M15434 45425 c3 -44 9 -131 12 -192 l7 -113 6 0 7 0 -12 186 -13 186
-7 6 -7 7 7 -80z"/>
<path d="M45830 45269 l-12 -21 7 -6 7 -7 14 19 c8 11 14 23 14 28 0 16 -19 8
-30 -13z"/>
<path d="M26560 44381 c1 -9 399 -195 405 -189 3 2 -87 47 -200 100 -113 53
-205 93 -205 89z"/>
<path d="M26555 44338 c19 -11 474 -230 693 -333 61 -30 112 -51 112 -47 0 4
-71 41 -157 82 -87 41 -270 127 -407 192 -225 107 -297 138 -241 106z"/>
<path d="M51340 42932 c0 -6 9 -73 20 -149 21 -143 37 -213 47 -213 l5 0 -6
23 c-3 12 -18 94 -31 181 -22 138 -35 198 -35 158z"/>
<path d="M50593 42664 c6 -165 10 -195 22 -183 2 3 2 85 -2 182 l-6 177 -10 0
-10 0 6 -176z"/>
<path d="M31771 42498 l-164 -168 7 -7 7 -7 120 119 c134 133 202 211 197 223
l-3 8 -164 -168z"/>
<path d="M56968 40923 c128 -2 335 -2 460 0 l227 2 -460 0 -460 0 233 -2z"/>
<path d="M56968 40883 c128 -2 335 -2 460 0 l227 2 -460 0 -460 0 233 -2z"/>
<path d="M53576 40821 l-6 -10 9 -5 10 -6 5 9 6 10 -9 5 -10 6 -5 -9z"/>
<path d="M53327 40578 l-34 -43 -21 -53 -22 -54 -30 -175 -31 -175 5 -6 c12
-11 17 9 46 176 l31 171 25 57 c14 32 39 75 55 95 16 20 29 40 29 43 0 17 -22
1 -53 -36z"/>
<path d="M97720 40460 l0 -10 35 0 35 0 0 10 0 10 -35 0 -35 0 0 -10z"/>
<path d="M60290 38450 c0 -5 5 -10 10 -10 l10 0 0 -16 0 -15 -47 -67 c-26 -37
-87 -110 -135 -162 -48 -52 -84 -97 -81 -100 8 -8 158 157 223 248 l60 82 0
15 0 14 -20 11 -20 11 0 -11z"/>
<path d="M85314 37318 c89 -139 200 -315 246 -391 46 -75 85 -135 88 -133 10
10 -473 776 -489 776 -4 0 66 -114 155 -252z"/>
<path d="M60250 37241 c-25 -10 -72 -24 -105 -31 -80 -16 -258 -70 -252 -77 3
-2 54 9 114 25 59 17 124 33 143 37 40 7 140 44 155 57 l9 8 -9 -1 c-6 0 -30
-8 -55 -18z"/>
<path d="M85884 37048 c-73 -51 -68 -47 -63 -53 7 -6 129 76 129 86 0 13 -2
12 -66 -33z"/>
<path d="M40755 36606 l-149 -32 9 -6 10 -5 125 28 c69 16 135 29 148 29 l22
0 1 -32 c1 -18 5 -44 10 -58 l8 -25 -5 60 c-6 62 -10 76 -22 74 -4 -1 -74 -15
-157 -33z"/>
<path d="M60244 35856 c-4 -9 -5 -18 -3 -20 2 -2 91 -56 197 -121 l194 -118 9
14 c5 8 9 16 9 19 0 6 -358 226 -383 236 l-17 6 -6 -16z"/>
<path d="M41390 35665 c-151 -28 -283 -54 -292 -56 l-17 -4 8 -14 9 -15 264
48 c145 27 284 53 311 58 l47 10 0 14 0 14 -27 -1 c-16 -1 -152 -25 -303 -54z"/>
<path d="M84915 35602 c-30 -10 -85 -45 -85 -55 l0 -8 13 7 c6 4 24 16 39 26
l26 18 26 0 26 0 20 -20 c11 -11 33 -45 49 -77 16 -32 62 -103 102 -159 41
-55 112 -164 159 -242 47 -78 88 -142 92 -142 10 0 -183 315 -245 400 -30 41
-74 110 -97 153 l-42 77 -21 15 c-23 16 -30 17 -62 7z"/>
<path d="M85420 34968 c0 -11 201 -332 218 -348 l16 -15 -19 30 c-10 17 -59
95 -108 175 -88 142 -107 170 -107 158z"/>
<path d="M78458 34836 c-104 -55 -188 -105 -188 -109 0 -4 60 24 133 63 72 39
160 85 195 103 34 17 62 35 62 39 0 13 -9 9 -202 -96z"/>
<path d="M59860 34173 c0 -6 51 -134 114 -285 l115 -273 16 -3 c17 -4 247 25
274 34 41 13 -11 11 -134 -6 l-139 -20 -7 8 c-3 4 -57 129 -119 277 -114 273
-120 287 -120 268z"/>
<path d="M58715 34059 l-140 -88 -22 -28 -22 -28 -5 -45 -6 -45 12 40 c6 22
19 52 30 67 l19 27 137 87 c151 95 147 92 141 98 -2 2 -67 -36 -144 -85z"/>
<path d="M57660 34105 c0 -2 10 -24 21 -48 l21 -43 27 -11 26 -10 39 -94 c63
-150 77 -181 82 -176 5 5 -104 266 -118 285 l-10 12 -20 0 -19 0 -19 45 c-17
39 -30 57 -30 40z"/>
<path d="M35295 33783 c-225 -156 -249 -173 -239 -173 10 0 335 219 359 241
l9 9 -9 0 c-6 -1 -59 -35 -120 -77z"/>
<path d="M77806 33518 c-3 -23 -7 -121 -9 -215 l-4 -173 7 0 7 0 6 212 c5 210
4 261 -7 176z"/>
<path d="M77846 33518 c-3 -24 -7 -121 -9 -216 l-4 -173 7 8 7 8 6 208 c6 201
4 251 -7 165z"/>
<path d="M98907 31692 c78 -120 270 -392 276 -392 4 0 -33 60 -83 133 -51 72
-115 167 -144 209 -28 43 -55 78 -59 78 l-9 0 19 -28z"/>
<path d="M90891 24786 c2 -2 52 -18 110 -35 l106 -31 118 -50 c65 -27 120 -48
122 -46 2 2 -52 27 -119 56 l-123 53 -100 28 c-96 28 -123 34 -114 25z"/>
<path d="M4010 24548 c-96 -77 -177 -144 -179 -150 l-3 -10 11 3 c6 2 90 66
186 142 155 122 194 159 168 156 -5 0 -87 -64 -183 -141z"/>
<path d="M93115 17159 c-99 -72 -189 -137 -199 -145 -11 -7 -18 -15 -15 -18 5
-5 393 272 397 285 2 5 2 9 0 9 -1 -1 -84 -60 -183 -131z"/>
<path d="M92177 16433 l-6 -10 96 -104 c53 -57 123 -132 156 -166 l59 -63 9 6
9 5 -147 157 c-80 86 -152 163 -159 170 l-12 14 -5 -9z"/>
<path d="M92140 16394 c0 -6 16 -26 36 -45 l37 -34 -11 20 c-6 11 -22 31 -36
44 l-26 24 0 -9z"/>
<path d="M25576 12759 l-7 -15 99 -205 100 -204 6 16 7 16 -99 204 -99 204 -7
-16z"/>
<path d="M25828 4053 l-78 -4 0 -11 0 -11 113 6 c61 4 165 7 230 7 l117 0 0
10 0 10 -152 -2 c-84 -1 -188 -4 -230 -5z"/>
<path d="M23499 2203 c-51 -76 -105 -155 -121 -175 l-29 -37 9 -5 9 -5 25 27
c27 28 205 292 215 317 l5 15 -11 0 -11 0 -91 -137z"/>
<path d="M11260 1670 l0 -9 33 -5 c17 -3 227 -19 465 -37 l433 -31 6 6 6 6 -6
7 -7 6 -437 33 c-241 19 -450 34 -465 34 l-28 0 0 -10z"/>
<path d="M16770 1257 l0 -14 93 -6 c50 -4 151 -10 223 -13 l131 -7 7 12 7 11
-13 0 c-28 0 -346 20 -395 25 l-53 5 0 -13z"/>
<path d="M17675 1201 l-5 -10 7 -4 c5 -3 89 -10 188 -16 99 -6 199 -14 223
-17 l42 -5 0 15 0 16 -26 0 c-32 0 -301 18 -371 25 l-52 5 -6 -9z"/>
</g>
</svg>
