<?xml version="1.0" standalone="no"?>
<!DOCTYPE svg PUBLIC "-//W3C//DTD SVG 20010904//EN"
 "http://www.w3.org/TR/2001/REC-SVG-20010904/DTD/svg10.dtd">
<svg version="1.0" xmlns="http://www.w3.org/2000/svg"
 width="7500.000000pt" height="7500.000000pt" viewBox="0 0 7500.000000 7500.000000"
 preserveAspectRatio="xMidYMid meet">
<metadata>
Created by potrace 1.16, written by Peter Selinger 2001-2019
</metadata>
<g transform="translate(0.000000,7500.000000) scale(0.075000,-0.075000)"
fill="#000000" stroke="none">
<path d="M12715 96919 c-4 -5 -5 -12 -4 -13 7 -6 394 -174 408 -178 l14 -3 3
11 4 10 -202 89 c-112 48 -206 90 -210 92 -4 2 -10 -2 -13 -8z"/>
<path d="M15804 96146 c-3 -8 -4 -22 -2 -31 l3 -17 160 -65 c88 -35 170 -68
183 -73 l22 -10 0 9 0 9 -181 72 -180 73 5 23 6 24 -5 0 c-3 0 -8 -6 -11 -14z"/>
<path d="M98552 95459 c-84 -89 -152 -165 -152 -170 0 -23 29 2 174 153 l155
161 -5 9 c-3 4 -9 8 -13 8 -4 0 -76 -72 -159 -161z"/>
<path d="M97896 94414 l-168 -172 7 -12 7 -12 30 29 c16 15 93 95 171 176
l140 148 -9 7 -9 7 -169 -171z"/>
<path d="M98270 94485 c102 -42 188 -74 193 -72 11 3 -344 147 -363 147 -8 -1
68 -34 170 -75z"/>
<path d="M87684 93177 c-71 -73 -145 -150 -164 -172 -19 -22 42 35 135 127 93
92 167 169 164 172 -3 3 -63 -54 -135 -127z"/>
<path d="M88180 93191 c0 -4 95 -42 211 -84 l211 -78 11 4 11 3 -100 37 c-260
95 -344 124 -344 118z"/>
<path d="M21547 92886 l-5 -13 206 -58 c234 -65 226 -63 230 -50 l4 10 -129
37 c-70 21 -167 49 -215 62 l-87 24 -4 -12z"/>
<path d="M22390 92723 l0 -8 213 -56 212 -56 9 5 9 5 -14 7 c-16 9 -401 110
-418 110 -6 0 -11 -3 -11 -7z"/>
<path d="M26342 91610 l4 -14 180 -52 c98 -28 295 -85 437 -127 l258 -75 -4
11 -4 12 -199 58 c-525 153 -650 190 -663 195 l-14 5 5 -13z"/>
<path d="M28822 90838 l4 -12 420 -117 c230 -65 432 -121 448 -125 l28 -6 -4
13 -4 12 -440 124 c-241 67 -443 123 -447 123 l-9 0 4 -12z"/>
<path d="M28603 90753 l7 -6 7 6 6 7 -13 0 -13 0 6 -7z"/>
<path d="M28673 90733 l7 -6 7 6 6 7 -13 0 -13 0 6 -7z"/>
<path d="M28703 90723 l7 -6 7 6 6 7 -13 0 -13 0 6 -7z"/>
<path d="M28743 90713 l7 -6 7 6 6 7 -13 0 -13 0 6 -7z"/>
<path d="M28773 90703 l7 -6 7 6 6 7 -13 0 -13 0 6 -7z"/>
<path d="M28808 90693 l13 -5 6 6 6 6 -19 -1 -19 -1 13 -5z"/>
<path d="M35905 90120 l-6 -10 23 -9 c13 -5 99 -41 192 -80 l169 -71 24 0 23
0 0 10 0 10 -27 6 c-16 4 -107 40 -203 81 -96 40 -178 73 -182 73 -4 0 -10 -5
-13 -10z"/>
<path d="M85928 88983 c67 -2 177 -2 245 0 l122 3 -245 0 -245 0 123 -3z"/>
<path d="M86330 88939 l45 -10 225 -3 225 -4 100 -15 c55 -9 206 -41 335 -72
129 -31 286 -67 348 -79 l112 -23 5 7 5 7 -48 7 c-26 3 -186 40 -357 80 l-310
74 -120 17 -120 17 -140 -4 c-77 -2 -187 0 -245 4 l-105 7 45 -10z"/>
<path d="M78970 88442 l0 -8 425 -148 425 -149 7 6 6 6 -29 12 c-46 17 -825
289 -830 289 -2 0 -4 -4 -4 -8z"/>
<path d="M89140 88371 c0 -6 184 -64 245 -77 l30 -7 68 -60 c37 -32 70 -57 73
-55 2 3 -26 33 -64 66 l-68 61 -65 15 c-35 8 -99 26 -141 40 -43 13 -78 21
-78 17z"/>
<path d="M80670 87843 c0 -10 411 -155 418 -148 11 11 -18 24 -203 89 -189 66
-215 73 -215 59z"/>
<path d="M84334 86964 c-9 -21 -31 -72 -49 -111 l-34 -73 -15 0 c-9 0 -49 9
-88 20 -40 11 -79 20 -88 20 l-15 -1 15 -8 c8 -4 55 -18 103 -31 l88 -23 8 9
c5 5 30 57 56 117 l48 108 -6 6 -7 6 -16 -39z"/>
<path d="M79156 86625 l-40 -235 7 -7 c4 -3 8 -4 10 -2 3 4 77 457 77 472 0 4
-3 7 -8 7 l-7 0 -39 -235z"/>
<path d="M61310 85291 l0 -9 63 -6 c34 -3 125 -7 202 -10 l140 -5 40 8 40 8
-15 6 c-8 3 -117 8 -242 12 l-228 6 0 -10z"/>
<path d="M61310 85242 l0 -10 58 -6 c31 -4 136 -8 234 -9 l176 -2 8 8 c4 4 5
9 3 11 -2 2 -111 6 -241 10 l-238 7 0 -9z"/>
<path d="M96402 82947 l-22 -13 -37 -54 c-46 -70 -73 -100 -98 -110 l-20 -8
-28 15 c-16 8 -31 12 -34 9 -3 -3 10 -13 30 -22 l34 -17 29 10 29 10 55 79 56
79 27 9 28 10 20 -13 c23 -14 32 -11 21 6 -4 6 -20 13 -37 17 l-30 6 -23 -13z"/>
<path d="M93152 81631 c2 -5 86 -71 187 -146 l183 -137 9 9 9 9 -55 40 c-30
21 -115 83 -189 137 -129 94 -151 107 -144 88z"/>
<path d="M33970 81129 c0 -13 95 -17 261 -11 l169 5 0 9 0 9 -215 -3 -215 -3
0 -6z"/>
<path d="M95463 80436 c-17 -23 -67 -93 -112 -154 -45 -62 -78 -112 -73 -112
11 0 226 299 220 305 -2 3 -18 -15 -35 -39z"/>
<path d="M34155 80269 c-71 -105 -132 -195 -134 -201 l-3 -10 10 3 c6 2 70 89
142 193 l131 189 -8 7 -8 8 -130 -189z"/>
<path d="M11090 77887 l0 -15 213 -71 c116 -39 215 -71 220 -71 4 0 7 6 7 13
l-1 12 -207 68 c-114 38 -213 71 -219 74 l-13 5 0 -15z"/>
<path d="M74550 76631 c0 -6 5 -13 10 -16 l10 -6 0 15 0 16 -10 0 c-5 0 -10
-4 -10 -9z"/>
<path d="M74380 76543 c0 -11 160 -105 295 -172 55 -27 138 -72 185 -100 47
-27 118 -68 158 -91 l72 -42 12 4 12 4 -175 96 c-95 52 -212 115 -259 140
l-85 45 3 13 c3 14 -28 113 -34 107 -2 -2 3 -26 11 -52 8 -27 12 -51 10 -53
-2 -2 -46 20 -97 49 -109 64 -108 63 -108 52z"/>
<path d="M36676 65969 c-3 -8 -28 -138 -56 -289 -28 -151 -53 -283 -56 -292
l-5 -18 8 0 8 0 56 303 c50 263 62 348 45 296z"/>
<path d="M83993 65871 l-203 -66 0 -11 0 -11 207 66 207 67 4 12 4 12 -9 -1
c-4 -1 -99 -31 -210 -68z"/>
<path d="M51210 65313 c92 -72 412 -284 380 -251 -15 15 -372 259 -387 265
l-18 6 25 -20z"/>
<path d="M3659 64900 c-4 -30 -5 -57 -3 -59 10 -11 15 12 12 60 l-3 54 -6 -55z"/>
<path d="M40572 64860 c55 -165 115 -330 120 -330 l7 0 -56 163 c-31 89 -61
167 -66 172 l-10 10 5 -15z"/>
<path d="M74759 64519 c-1 -2 -9 -104 -18 -227 l-16 -222 8 0 7 0 0 38 c0 20
7 120 15 222 7 101 12 186 9 189 -2 2 -5 2 -5 0z"/>
<path d="M41825 63918 c-23 -62 -85 -255 -85 -265 l0 -13 10 0 9 0 46 141 c25
77 45 143 45 145 0 10 -21 3 -25 -8z"/>
<path d="M80748 63915 c-5 -6 185 -382 201 -398 l11 -11 0 8 c0 9 -163 334
-189 377 -10 16 -20 27 -23 24z"/>
<path d="M80700 63885 c0 -6 190 -388 196 -394 2 -2 6 -2 10 1 l5 6 -98 196
c-83 167 -113 217 -113 191z"/>
<path d="M41450 63743 l-24 -5 -78 -65 c-43 -36 -78 -67 -78 -69 0 -9 22 7 96
68 l71 58 37 0 38 0 55 -16 c30 -9 57 -14 59 -11 5 5 -79 32 -126 40 -14 3
-36 2 -50 0z"/>
<path d="M41197 63495 c-80 -70 -95 -85 -83 -85 4 0 150 122 181 151 l9 9 -10
0 c-5 0 -49 -34 -97 -75z"/>
<path d="M41011 63389 c-34 -28 -61 -55 -61 -61 l0 -10 65 57 c36 32 65 59 65
61 0 9 -12 1 -69 -47z"/>
<path d="M2587 63402 l-5 -7 325 -285 c179 -157 329 -286 334 -288 l9 -4 0 10
c0 8 -555 500 -636 565 l-23 17 -4 -8z"/>
<path d="M43129 63312 c-35 -32 -158 -138 -274 -237 -215 -183 -357 -311 -364
-329 -2 -6 20 11 50 38 30 26 162 141 294 254 241 206 380 332 365 332 -4 0
-36 -26 -71 -58z"/>
<path d="M81157 63104 l-6 -7 14 -28 15 -28 0 -54 0 -53 -31 -43 -32 -42 -89
-45 -89 -45 6 -9 6 -10 82 41 82 41 28 27 c16 14 35 38 43 53 l14 27 0 61 0
61 -15 29 c-17 32 -18 33 -28 24z"/>
<path d="M42220 63015 c0 -11 263 -306 268 -300 6 6 12 -2 -138 170 -106 122
-130 146 -130 130z"/>
<path d="M58740 62961 c-53 -17 -180 -90 -157 -91 5 0 46 18 91 41 l82 40 119
-10 c66 -6 130 -11 143 -11 l22 0 0 9 0 8 -112 7 c-62 4 -124 9 -138 11 -14 2
-36 0 -50 -4z"/>
<path d="M42220 62459 c-91 -77 -176 -152 -190 -166 l-25 -26 15 9 c13 7 327
271 370 310 l14 14 -9 0 c-6 0 -84 -63 -175 -141z"/>
<path d="M57791 62239 l-424 -339 -18 0 -18 0 5 -14 5 -13 22 -1 22 0 185 -82
c102 -45 200 -88 218 -95 l32 -14 0 7 c0 4 -99 50 -220 102 l-220 95 3 7 c1 4
187 154 412 333 226 180 417 333 425 341 l14 14 -9 -1 c-6 0 -201 -153 -434
-340z"/>
<path d="M58650 62402 c0 -6 94 -49 363 -167 l57 -25 0 8 c0 4 -44 26 -98 49
-53 23 -148 64 -209 92 -62 27 -113 47 -113 43z"/>
<path d="M89015 62351 c17 -16 97 -86 179 -155 l149 -125 9 5 c5 3 8 7 6 9
-120 105 -352 295 -361 295 l-12 0 30 -29z"/>
<path d="M45794 61965 c2 -16 32 -243 67 -502 l63 -473 7 0 7 0 -4 18 c-2 9
-31 226 -65 482 l-61 465 -9 20 -9 20 4 -30z"/>
<path d="M56277 61627 l-19 -32 26 24 25 24 -5 8 c-7 12 -7 13 -27 -24z"/>
<path d="M46095 59958 l-220 -222 160 151 c198 187 303 293 290 293 -6 0 -109
-100 -230 -222z"/>
<path d="M45358 59483 c66 -71 180 -187 254 -260 l133 -132 114 -81 c62 -45
115 -79 118 -77 2 3 -44 40 -104 82 l-108 78 -124 120 c-68 66 -183 183 -255
259 -72 76 -135 138 -140 138 -4 0 46 -57 112 -127z"/>
<path d="M44338 59454 c16 -30 143 -156 190 -188 l42 -29 8 7 7 8 -30 21 c-17
12 -74 62 -129 111 l-99 90 11 -20z"/>
<path d="M45560 59225 c0 -6 35 -45 78 -87 l77 -76 114 -81 c63 -45 116 -79
119 -76 3 3 3 6 1 8 -2 2 -53 39 -114 81 l-110 78 -82 81 c-46 45 -83 77 -83
72z"/>
<path d="M83804 59145 c4 -11 88 -175 188 -364 99 -189 188 -367 198 -395 l19
-51 0 16 c2 34 -31 103 -214 449 -177 336 -208 392 -191 345z"/>
<path d="M84073 58708 c19 -35 62 -116 96 -180 l61 -118 0 -18 c0 -10 3 -21 6
-24 l6 -6 26 13 c15 7 118 57 230 111 112 54 199 100 194 102 -5 1 -101 -42
-212 -98 -112 -55 -211 -100 -220 -100 l-16 0 -14 38 c-19 54 -174 342 -183
342 l-9 0 35 -62z"/>
<path d="M91790 58113 c0 -4 91 -71 202 -148 l202 -140 185 -109 186 -109 204
-68 c113 -38 206 -67 208 -65 2 2 -86 34 -194 71 l-198 68 -205 120 -204 120
-166 115 c-91 63 -177 124 -192 134 l-28 19 0 -8z"/>
<path d="M64030 58037 c0 -14 92 -442 96 -446 2 -2 4 2 4 10 0 24 -88 430 -94
436 l-6 6 0 -6z"/>
<path d="M64084 57563 c3 -10 44 -205 91 -433 47 -228 90 -424 96 -435 l10
-20 -4 20 c-2 11 -44 215 -93 452 l-89 433 -8 0 -8 0 5 -17z"/>
<path d="M80960 57515 c0 -20 48 -183 61 -206 16 -31 159 -179 173 -179 l10 0
-70 73 c-39 39 -80 86 -91 102 l-21 30 -22 85 c-13 47 -27 89 -31 95 l-9 9 0
-9z"/>
<path d="M64221 57124 c-1 -11 40 -211 89 -444 50 -233 90 -428 90 -433 l0 -9
14 5 14 5 21 -14 21 -15 0 -33 0 -33 -18 -16 -19 -17 -29 0 -30 0 -12 12 -12
12 -6 -6 -6 -6 24 -16 25 -16 31 6 31 6 21 23 22 24 -9 38 -9 38 -29 15 c-17
8 -31 15 -33 16 -1 0 -43 194 -93 430 -49 236 -92 434 -94 439 l-3 10 -1 -21z"/>
<path d="M79460 56590 c-31 -25 -74 -45 -166 -75 l-70 -23 -86 -7 -87 -7 -4
-12 -5 -13 46 8 c26 4 65 8 88 8 l41 1 94 31 94 31 47 31 c27 18 48 35 48 40
0 12 -14 8 -40 -13z"/>
<path d="M79484 56556 l-30 -25 -89 -36 -89 -37 -110 -13 c-61 -8 -112 -14
-113 -14 -2 -1 -3 -5 -3 -11 l0 -10 26 10 25 10 49 0 c27 0 73 5 102 11 l53
11 90 43 c50 24 101 53 115 64 l25 21 -10 0 c-5 0 -24 -11 -41 -24z"/>
<path d="M25080 56161 c0 -4 53 -33 118 -63 l117 -55 278 -177 c153 -98 281
-176 283 -173 6 5 -13 18 -346 229 l-215 137 -117 55 -118 55 0 -8z"/>
<path d="M25490 55890 c0 -10 362 -241 369 -235 6 7 13 3 -186 128 -101 64
-183 112 -183 107z"/>
<path d="M36430 55814 c-47 -19 -114 -42 -150 -50 l-65 -16 -32 6 -33 5 0 -10
0 -9 48 0 c26 0 67 5 92 11 48 10 218 77 235 91 l9 8 -9 0 c-6 -1 -48 -17 -95
-36z"/>
<path d="M87409 55635 c-4 -4 194 -410 207 -424 2 -2 7 -1 11 3 l7 7 -103 202
c-108 210 -114 221 -122 212z"/>
<path d="M48270 55224 c0 -6 18 -44 41 -85 22 -41 56 -107 75 -148 l34 -74 6
5 5 6 -54 108 c-67 133 -107 203 -107 188z"/>
<path d="M51598 54993 c56 -2 148 -2 205 0 l102 3 -205 0 -205 0 103 -3z"/>
<path d="M52340 54888 c17 -18 293 -199 299 -196 10 3 -254 184 -284 194 -11
4 -18 5 -15 2z"/>
<path d="M53030 54476 c0 -8 501 -329 506 -324 5 5 -487 328 -500 328 -3 0 -6
-2 -6 -4z"/>
<path d="M88006 54212 l-5 -9 33 -18 33 -18 26 7 27 6 0 10 0 10 -29 -6 -29
-6 -25 17 -25 16 -6 -9z"/>
<path d="M22636 54023 c-86 -91 -155 -168 -153 -170 3 -2 38 31 78 74 41 43
114 119 163 170 l90 93 -11 0 -12 0 -155 -167z"/>
<path d="M50580 54113 l0 -9 118 -72 c65 -39 126 -80 136 -91 l19 -21 8 6 9 5
-33 28 c-17 16 -70 51 -117 78 -47 27 -97 57 -112 67 l-28 18 0 -9z"/>
<path d="M6152 53860 l0 -165 8 -25 8 -25 0 140 0 140 -8 50 -7 50 -1 -165z"/>
<path d="M80901 53682 c-1 -19 101 -426 110 -436 6 -7 -93 407 -106 439 l-3
10 -1 -13z"/>
<path d="M65716 53462 c-252 -53 -453 -98 -447 -100 14 -5 904 179 916 190 l9
8 -9 -1 c-6 -1 -216 -44 -469 -97z"/>
<path d="M52444 53265 l-21 -23 -87 -7 -86 -7 0 -7 0 -7 92 9 93 9 13 10 c7 6
18 20 23 30 l10 18 -8 -1 c-4 -1 -18 -11 -29 -24z"/>
<path d="M50510 53276 c0 -12 82 -177 86 -173 6 5 -72 177 -80 177 -3 0 -6 -2
-6 -4z"/>
<path d="M52065 53124 c-11 -8 -123 -69 -248 -136 -125 -66 -226 -123 -223
-125 6 -6 474 243 496 263 l14 14 -9 0 c-6 0 -19 -7 -30 -16z"/>
<path d="M49421 53025 c2 -6 36 -71 75 -145 39 -74 88 -179 109 -232 21 -54
40 -96 43 -94 2 3 -15 53 -38 113 l-41 108 -66 120 c-35 66 -69 125 -75 130
l-10 10 3 -10z"/>
<path d="M51505 52875 l30 -24 25 1 25 0 -20 5 c-11 3 -32 14 -47 24 -38 28
-48 23 -13 -6z"/>
<path d="M27716 52626 c-3 -64 -9 -169 -12 -233 l-6 -118 10 10 9 10 11 215
11 215 -8 8 -8 8 -7 -115z"/>
<path d="M27756 52573 c-4 -87 -11 -216 -16 -288 -5 -71 -12 -202 -15 -290
l-6 -160 9 15 10 15 7 185 c3 102 8 210 10 240 2 30 7 134 10 230 4 96 9 183
11 193 l5 17 -9 0 -9 0 -7 -157z"/>
<path d="M26802 52679 c13 -17 60 -89 104 -160 l82 -130 12 -109 12 -110 -6
-147 -5 -148 8 30 9 30 1 145 1 146 -10 84 -11 85 -62 103 c-70 116 -138 212
-150 212 l-8 0 23 -31z"/>
<path d="M50870 52586 c0 -2 7 -6 15 -10 l15 -5 0 9 0 10 -15 0 c-8 0 -15 -2
-15 -4z"/>
<path d="M50780 52549 l0 -10 10 6 c6 3 10 8 10 11 0 2 -4 4 -10 4 -5 0 -10
-5 -10 -11z"/>
<path d="M50228 52169 l-578 -289 0 -11 0 -11 16 13 c9 8 276 143 593 301 317
157 569 286 561 287 -8 0 -275 -130 -592 -290z"/>
<path d="M89010 52110 l0 -10 20 0 20 0 0 10 0 10 -20 0 -20 0 0 -10z"/>
<path d="M53295 51780 c47 -93 87 -170 90 -170 7 0 -160 339 -168 340 -4 0 31
-76 78 -170z"/>
<path d="M44920 51200 c-25 -16 -49 -32 -55 -34 l-10 -3 10 -11 10 -11 58 35
57 36 -6 9 c-8 14 -15 11 -64 -21z"/>
<path d="M75583 50908 c46 -90 89 -178 96 -197 l11 -34 6 6 6 6 -16 46 c-8 26
-49 111 -91 191 l-76 144 -10 0 -9 0 83 -162z"/>
<path d="M26816 50758 c-4 -90 -9 -171 -12 -180 l-5 -18 9 0 10 0 6 138 c4 75
8 156 10 180 l4 42 -8 0 -7 0 -7 -162z"/>
<path d="M33610 50387 c0 -20 61 -392 65 -396 3 -2 5 2 5 10 -1 30 -59 381
-64 387 l-6 5 0 -6z"/>
<path d="M33570 50368 c1 -30 59 -380 64 -386 13 -13 11 12 -18 201 l-31 197
-7 0 c-5 0 -8 -6 -8 -12z"/>
<path d="M33670 49879 c0 -17 38 -321 46 -368 3 -18 7 -31 10 -28 6 5 -43 398
-51 405 -3 3 -5 -1 -5 -9z"/>
<path d="M36030 49442 c0 -14 108 -679 115 -711 3 -13 8 -21 11 -19 5 5 -114
729 -121 737 -3 2 -5 -1 -5 -7z"/>
<path d="M37924 49080 c2 -14 19 -115 37 -225 l32 -200 10 -10 9 -10 -5 20
c-3 11 -20 108 -37 215 -17 107 -35 204 -41 215 l-9 20 4 -25z"/>
<path d="M38041 48628 c43 -255 79 -470 80 -478 l1 -15 4 12 5 12 -76 458
c-43 252 -81 462 -85 466 l-8 9 79 -464z"/>
<path d="M33790 49019 c1 -8 14 -104 29 -214 16 -110 28 -201 27 -202 -1 -1
-93 -7 -206 -13 -113 -7 -207 -14 -209 -16 -7 -6 93 -4 259 6 l154 10 7 -11 7
-11 3 10 4 11 274 15 c150 8 276 17 279 20 l5 6 -24 0 c-13 0 -139 -7 -279
-15 -140 -8 -256 -12 -258 -10 -2 2 -17 97 -32 210 -16 114 -31 210 -34 213
l-6 5 0 -14z"/>
<path d="M91439 48708 c-68 -78 -153 -178 -188 -223 -35 -44 -124 -141 -198
-216 -73 -75 -133 -141 -133 -145 0 -5 54 45 121 111 l121 120 81 100 c73 91
242 288 305 357 14 15 23 30 20 33 -2 3 -61 -59 -129 -137z"/>
<path d="M33905 48565 c-225 -13 -428 -25 -450 -27 l-40 -5 50 -1 c71 -2 957
46 963 53 8 8 -74 5 -523 -20z"/>
<path d="M32863 48553 l-91 -4 -12 -14 -12 -14 23 -138 23 -138 4 16 c1 9 -6
71 -18 139 l-21 122 6 7 c4 3 49 8 101 9 l94 4 0 9 c0 5 -1 8 -2 7 -2 -1 -44
-4 -95 -5z"/>
<path d="M32834 48240 c6 -25 47 -291 68 -432 l11 -78 9 0 9 0 -5 18 c-2 9
-21 125 -42 257 l-37 240 -9 10 -9 10 5 -25z"/>
<path d="M38090 48119 c0 -8 13 -89 30 -180 16 -92 39 -229 50 -305 26 -183
30 -207 36 -201 7 7 -29 253 -72 497 -31 175 -44 230 -44 189z"/>
<path d="M33980 47682 c0 -33 33 -239 51 -317 25 -109 28 -119 34 -113 3 3 -4
45 -16 94 -12 49 -29 145 -39 212 -10 68 -21 127 -24 130 l-6 5 0 -11z"/>
<path d="M74830 47606 c0 -20 11 -46 19 -46 l8 0 -5 30 -4 30 -9 0 -9 0 0 -14z"/>
<path d="M37320 47424 c-102 -7 -203 -13 -224 -13 l-40 -1 10 -9 9 -10 282 18
282 17 7 7 7 7 -74 -1 c-41 -1 -157 -8 -259 -15z"/>
<path d="M48760 47126 c0 -5 30 -74 66 -155 37 -80 78 -170 91 -200 13 -29 26
-51 29 -48 3 2 -34 89 -81 193 -90 196 -104 225 -105 210z"/>
<path d="M28827 46774 c-252 -12 -461 -25 -465 -28 l-5 -6 29 0 c91 1 1027 50
1032 54 l5 6 -69 -1 c-38 -1 -275 -12 -527 -25z"/>
<path d="M36496 46587 l-8 -28 6 -6 6 -6 6 5 c3 4 4 19 2 35 l-4 28 -8 -28z"/>
<path d="M52004 46538 l-7 -11 11 7 c7 4 12 9 12 12 0 8 -9 4 -16 -8z"/>
<path d="M52110 46303 l88 -187 11 -4 11 -4 -56 119 c-31 65 -71 151 -90 191
l-33 72 -10 0 -9 0 88 -187z"/>
<path d="M51990 46476 c0 -12 170 -370 181 -381 l10 -10 -9 25 c-15 39 -170
361 -176 368 l-6 5 0 -7z"/>
<path d="M46186 46343 c-11 -34 -75 -348 -85 -418 -6 -38 -14 -81 -17 -95 l-5
-25 9 10 9 10 13 80 c6 44 29 163 51 264 21 102 37 187 35 189 -2 2 -7 -5 -10
-15z"/>
<path d="M81344 45948 l-7 -11 11 7 c7 4 12 9 12 12 0 8 -9 4 -16 -8z"/>
<path d="M81370 45886 c-4 -13 -14 -43 -20 -67 -6 -24 -21 -67 -32 -96 l-21
-52 -30 -11 c-17 -5 -28 -12 -25 -15 3 -3 19 0 36 6 l30 10 17 42 c19 46 64
207 58 207 -2 0 -8 -11 -13 -24z"/>
<path d="M81300 45792 c-12 -38 -25 -74 -30 -81 l-7 -13 -34 -8 -34 -8 32 -1
32 -1 14 14 14 14 22 72 c13 39 21 74 18 76 -3 3 -15 -26 -27 -64z"/>
<path d="M40167 45713 l-4 -8 77 -71 78 -70 57 -22 57 -22 56 1 57 2 -55 7
-55 8 -59 22 -58 22 -73 70 -73 69 -5 -8z"/>
<path d="M30773 45320 c0 -63 3 -162 7 -220 l7 -105 0 115 c0 63 -3 162 -7
220 l-7 105 0 -115z"/>
<path d="M29305 44480 c-66 -4 -153 -8 -193 -9 l-73 -1 7 -11 7 -11 161 6 c88
4 182 9 209 12 l47 6 0 9 0 9 -22 -2 c-13 -1 -77 -5 -143 -8z"/>
<path d="M51337 43218 c12 -84 26 -177 29 -205 l7 -53 9 0 10 0 -5 13 c-2 6
-17 99 -32 205 l-29 192 -6 0 -7 0 24 -152z"/>
<path d="M51163 42906 c-84 -12 -156 -25 -159 -29 -4 -4 -5 -7 -3 -7 25 0 352
50 357 54 l5 6 -24 -1 c-13 -1 -92 -11 -176 -23z"/>
<path d="M45960 42232 l-155 -87 4 -105 3 -105 82 -157 c44 -87 84 -158 87
-158 4 0 -31 72 -77 160 l-84 160 0 102 0 103 133 72 c120 65 180 102 167 102
-3 0 -75 -39 -160 -87z"/>
<path d="M42897 41645 l-37 -75 1 -43 c1 -23 5 -53 10 -67 l9 -25 -6 62 -5 62
36 71 c20 40 35 76 33 81 l-3 10 -38 -76z"/>
<path d="M97677 40142 l-39 -37 -88 -140 -89 -139 5 -8 c9 -14 19 -2 114 147
l93 146 33 26 34 25 -6 9 c-9 15 -17 11 -57 -29z"/>
<path d="M84780 39956 c0 -4 39 -65 87 -134 47 -70 165 -257 261 -417 191
-317 180 -300 186 -294 11 10 -472 784 -525 844 l-9 9 0 -8z"/>
<path d="M85580 38677 c0 -10 518 -839 532 -852 l11 -10 -5 15 c-6 18 -515
830 -529 845 l-9 9 0 -7z"/>
<path d="M60290 38450 c0 -5 5 -10 10 -10 l10 0 0 -16 0 -15 -47 -67 c-26 -37
-87 -110 -135 -162 -48 -52 -84 -97 -81 -100 8 -8 158 157 223 248 l60 82 0
15 0 14 -20 11 -20 11 0 -11z"/>
<path d="M86660 37573 c-63 -42 -129 -88 -146 -103 -17 -15 -149 -105 -293
-200 -144 -95 -260 -175 -257 -177 6 -6 525 337 592 391 29 25 94 70 144 102
49 31 90 58 90 60 0 11 -26 -3 -130 -73z"/>
<path d="M62210 37441 c14 -5 51 -17 82 -26 l58 -16 32 -32 c18 -18 81 -102
140 -186 l107 -153 138 -88 c76 -49 140 -87 143 -84 2 3 0 8 -6 12 -6 4 -67
44 -135 89 l-124 83 -115 157 c-63 87 -128 170 -143 185 l-29 28 -50 15 c-27
8 -66 17 -86 20 l-37 5 25 -9z"/>
<path d="M40758 36646 c-75 -17 -140 -35 -145 -40 l-8 -9 25 6 c14 3 87 20
163 38 l139 31 9 -9 8 -8 46 -305 c40 -268 55 -348 55 -299 0 8 -20 150 -45
314 -25 165 -45 303 -45 308 l0 7 -32 -1 c-18 -1 -95 -15 -170 -33z"/>
<path d="M71800 36582 c0 -10 340 -269 366 -279 l14 -5 0 8 c-1 8 -351 274
-371 282 l-9 4 0 -10z"/>
<path d="M55010 35895 l-335 -53 -96 -7 -96 -7 -14 -8 c-7 -5 -11 -11 -9 -13
10 -9 267 23 598 75 l342 52 0 8 0 8 -27 -1 c-16 -1 -179 -25 -363 -54z"/>
<path d="M84846 35617 l-49 -31 11 -4 11 -3 40 25 41 26 38 0 38 0 31 -32 30
-33 54 -95 c29 -52 74 -122 100 -155 26 -33 131 -197 234 -365 104 -168 195
-313 203 -323 24 -27 26 -12 4 20 -12 15 -98 154 -192 308 -95 154 -195 312
-224 350 -29 39 -79 117 -111 175 l-59 105 -34 33 -33 32 -42 -1 -42 0 -49
-32z"/>
<path d="M84910 35603 c-15 -6 -408 -257 -463 -295 -16 -11 -26 -22 -24 -24 2
-3 113 65 246 151 l241 155 19 0 c11 0 27 -3 35 -6 l16 -6 37 -67 c48 -88 96
-160 107 -161 l8 0 -15 23 c-9 12 -39 63 -67 114 l-50 92 -22 15 c-23 16 -42
19 -68 9z"/>
<path d="M41396 35468 l-16 -22 0 -37 0 -36 150 -439 c177 -518 159 -468 165
-462 3 2 -65 208 -150 457 -85 249 -155 463 -155 475 0 11 7 34 15 50 19 36
13 45 -9 14z"/>
<path d="M86806 35482 l-5 -8 53 -27 53 -27 52 0 52 0 -5 9 -5 8 -56 6 -56 6
-35 20 c-40 24 -41 24 -48 13z"/>
<path d="M39731 35189 c-129 -27 -235 -50 -237 -52 -2 -1 1 -8 5 -15 l8 -13
236 47 237 47 0 13 c0 7 -3 15 -7 17 -5 2 -113 -18 -242 -44z"/>
<path d="M29650 35137 c0 -15 193 -407 198 -402 5 5 -174 380 -190 400 l-8 9
0 -7z"/>
<path d="M78065 34669 l-180 -99 -7 -20 c-9 -26 -1 -26 20 0 l17 20 173 94
174 94 -9 4 -8 5 -180 -98z"/>
<path d="M85693 34624 c-37 -21 -56 -44 -38 -44 13 0 85 51 85 60 0 13 1 14
-47 -16z"/>
<path d="M30251 33958 c99 -199 192 -386 205 -416 13 -30 26 -53 29 -50 4 4
-244 527 -354 746 l-41 82 -10 0 -10 0 181 -362z"/>
<path d="M34850 33947 c0 -5 8 -21 19 -35 10 -15 53 -96 95 -181 43 -84 79
-151 82 -148 7 7 -149 316 -175 347 -11 14 -20 21 -21 17z"/>
<path d="M79867 30480 c9 -16 21 -30 26 -30 l8 0 -18 30 c-9 17 -21 30 -26 30
l-8 0 18 -30z"/>
<path d="M30340 30165 l-195 -104 0 -13 0 -13 15 3 c8 2 99 48 202 103 l187
100 -6 14 c-3 8 -6 15 -7 15 0 0 -89 -47 -196 -105z"/>
<path d="M87395 25991 l-5 -9 188 -148 c103 -82 280 -226 394 -321 114 -95
209 -173 212 -173 4 0 6 4 6 8 0 11 -341 296 -592 495 l-197 156 -6 -8z"/>
<path d="M90490 24839 c47 -5 150 -18 230 -30 l145 -20 120 -34 120 -34 119
-50 c66 -28 121 -49 123 -47 2 2 -52 27 -119 56 l-123 53 -113 34 -114 34
-126 19 -127 20 -110 4 -110 5 85 -10z"/>
<path d="M89603 21428 c3 -13 26 -112 52 -221 l47 -199 8 9 8 8 -51 213 -51
212 -9 0 -9 0 5 -22z"/>
<path d="M97020 11731 c0 -11 377 -355 543 -495 l127 -108 12 4 11 4 -124 104
c-68 57 -222 193 -341 302 -119 109 -219 198 -222 198 -3 0 -6 -4 -6 -9z"/>
<path d="M98057 10834 l-6 -6 167 -154 c91 -85 170 -154 175 -154 l9 0 -4 9
c-3 9 -136 133 -269 252 l-66 59 -6 -6z"/>
<path d="M10790 1701 l0 -10 43 -5 c23 -3 161 -12 307 -21 146 -8 442 -29 658
-46 l393 -31 6 6 6 6 -6 7 c-12 11 -1238 103 -1379 103 l-28 0 0 -9z"/>
</g>
</svg>
