<?xml version="1.0" standalone="no"?>
<!DOCTYPE svg PUBLIC "-//W3C//DTD SVG 20010904//EN"
 "http://www.w3.org/TR/2001/REC-SVG-20010904/DTD/svg10.dtd">
<svg version="1.0" xmlns="http://www.w3.org/2000/svg"
 width="7500.000000pt" height="7500.000000pt" viewBox="0 0 7500.000000 7500.000000"
 preserveAspectRatio="xMidYMid meet">
<metadata>
Created by potrace 1.16, written by Peter Selinger 2001-2019
</metadata>
<g transform="translate(0.000000,7500.000000) scale(0.075000,-0.075000)"
fill="#000000" stroke="none">
<path d="M89842 98768 l-31 -163 -26 -270 c-14 -148 -27 -282 -30 -297 l-4
-28 14 0 15 0 0 12 c0 6 14 149 30 317 l31 306 25 125 c14 69 28 133 30 143
l5 17 -14 0 -15 0 -30 -162z"/>
<path d="M84489 98806 c-2 -3 -77 -6 -167 -8 l-162 -3 0 -8 0 -9 187 8 188 7
25 8 25 7 -46 1 c-25 1 -48 -1 -50 -3z"/>
<path d="M99335 94100 c3 -5 8 -10 11 -10 2 0 4 5 4 10 0 6 -5 10 -11 10 l-10
0 6 -10z"/>
<path d="M99760 93942 l0 -9 93 -36 c50 -20 106 -39 122 -43 l30 -7 -7 8 c-4
4 -35 17 -70 30 -35 12 -87 32 -115 44 l-53 21 0 -8z"/>
<path d="M87651 93201 c-105 -109 -191 -201 -191 -205 0 -3 90 85 200 196
l199 203 80 -81 80 -80 14 8 c8 4 27 8 43 10 l29 2 38 -13 c21 -7 41 -11 44
-8 2 3 -20 13 -50 23 l-54 17 -30 -11 -30 -10 -74 74 -73 74 -17 0 -17 0 -191
-199z"/>
<path d="M86810 92736 c0 -2 54 -39 121 -81 l120 -78 35 34 c19 18 34 37 34
43 l0 10 -33 -32 c-18 -18 -37 -32 -42 -32 -6 0 -57 32 -115 70 -96 64 -120
77 -120 66z"/>
<path d="M22060 92630 l0 -9 83 -25 c45 -14 141 -42 212 -62 72 -20 136 -39
143 -41 l12 -5 0 16 c0 9 -1 16 -3 16 -1 0 -97 27 -212 60 -115 33 -216 60
-222 60 l-13 0 0 -10z"/>
<path d="M33720 89617 l0 -14 103 -62 102 -62 190 -155 c105 -85 220 -185 256
-221 l67 -65 12 7 12 7 -59 60 c-32 32 -146 131 -254 219 l-196 160 -84 51
c-46 27 -99 59 -116 70 l-33 20 0 -15z"/>
<path d="M85810 88950 l0 -10 243 2 242 1 -135 8 c-74 3 -183 7 -242 8 l-108
1 0 -10z"/>
<path d="M12498 88933 c-21 -2 -38 -7 -38 -11 l0 -7 230 0 230 0 0 6 c0 16
-301 24 -422 12z"/>
<path d="M84663 88842 c-117 -25 -213 -49 -213 -52 l0 -7 213 46 c116 24 214
46 216 48 16 12 -29 5 -216 -35z"/>
<path d="M84590 88785 l-285 -64 -115 -12 c-141 -14 -161 -24 -30 -15 l95 7
310 66 c171 36 314 69 320 74 l9 9 -9 -1 c-6 0 -138 -29 -295 -64z"/>
<path d="M83987 88498 c-50 -217 -137 -633 -137 -655 0 -7 4 -13 8 -13 l8 0
43 213 c23 116 65 308 92 425 53 229 53 232 41 232 l-8 0 -47 -202z"/>
<path d="M89878 87828 l-208 -70 0 -13 0 -13 213 70 c116 39 214 72 216 75 3
2 0 7 -5 12 l-9 9 -207 -70z"/>
<path d="M84409 87215 l-92 -185 6 -6 6 -7 11 29 c15 39 159 326 172 342 l10
12 -10 0 -10 0 -93 -185z"/>
<path d="M83691 86956 c3 -3 80 -26 173 -51 92 -25 175 -49 184 -52 l17 -6
-10 10 -10 11 -168 46 c-157 43 -196 52 -186 42z"/>
<path d="M88366 85379 c-11 -32 -106 -412 -106 -423 l1 -11 8 15 c14 23 113
421 107 428 -3 2 -8 -1 -10 -9z"/>
<path d="M61310 85242 l0 -10 58 -6 c31 -4 136 -8 234 -9 l176 -2 8 8 c4 4 5
9 3 11 -2 2 -111 6 -241 10 l-238 7 0 -9z"/>
<path d="M80135 84878 c-3 -7 -29 -86 -59 -176 l-55 -163 17 -6 c9 -3 22 -8
27 -10 6 -3 1 3 -10 11 l-19 16 56 170 c31 94 54 170 52 170 -3 0 -7 -6 -9
-12z"/>
<path d="M80090 84474 c53 -25 406 -146 395 -136 -9 8 -374 139 -415 149 -8 2
1 -4 20 -13z"/>
<path d="M77204 83668 c-27 -40 -57 -85 -67 -100 l-19 -28 9 0 c4 0 35 41 67
91 32 49 63 92 68 95 l8 5 111 -36 c61 -21 113 -35 115 -32 6 6 -204 77 -227
77 l-16 0 -49 -72z"/>
<path d="M76917 83141 c-130 -208 -240 -387 -243 -397 l-6 -19 14 20 c44 61
480 766 476 770 -2 3 -111 -166 -241 -374z"/>
<path d="M76640 82773 c-129 -206 -239 -382 -243 -389 l-8 -14 8 0 c4 0 26 31
49 68 23 37 130 210 239 385 109 175 196 320 193 322 -2 2 -109 -165 -238
-372z"/>
<path d="M79654 82403 c3 -10 26 -99 52 -198 26 -99 50 -186 54 -194 l7 -14 5
9 5 9 -48 180 c-26 99 -50 190 -54 203 l-5 22 -11 0 -10 0 5 -17z"/>
<path d="M79600 82398 c1 -7 24 -100 53 -207 l53 -195 11 -3 11 -4 -34 128
c-19 70 -44 165 -56 211 l-22 82 -8 0 c-4 0 -8 -6 -8 -12z"/>
<path d="M96140 81318 c-80 -110 -194 -268 -253 -351 -59 -82 -106 -151 -104
-154 4 -3 486 652 511 695 l7 12 -8 0 c-4 0 -73 -91 -153 -202z"/>
<path d="M95765 80864 c-127 -180 -239 -341 -249 -358 l-19 -31 15 15 c9 8
109 148 224 310 114 162 222 316 241 343 l35 47 -9 0 c-4 0 -112 -147 -238
-326z"/>
<path d="M95478 80388 c-134 -183 -176 -243 -172 -247 5 -6 -3 -16 107 136
112 155 131 183 123 183 -3 0 -29 -32 -58 -72z"/>
<path d="M73090 80163 c-8 -3 -89 -32 -179 -64 l-163 -59 -13 10 -13 11 -7
-11 -6 -10 8 0 c4 0 1 -5 -7 -10 l-15 -10 22 -6 23 -6 93 -132 c51 -72 108
-152 126 -178 l32 -48 11 0 10 0 -5 13 c-3 8 -60 89 -126 182 -67 92 -121 170
-121 174 0 3 44 21 98 39 53 19 136 47 185 64 l87 31 0 8 c0 10 -17 11 -40 2z"/>
<path d="M98967 79798 c-48 -110 -86 -202 -84 -204 2 -2 43 86 91 197 48 110
86 202 84 205 -3 2 -44 -87 -91 -198z"/>
<path d="M43932 77803 c-117 -207 -178 -320 -165 -308 8 8 87 147 260 458 2 4
2 7 -1 7 -3 0 -45 -71 -94 -157z"/>
<path d="M11970 77550 l0 -9 73 -22 c39 -12 236 -57 437 -100 201 -43 373 -81
383 -83 l17 -4 0 12 0 12 -362 78 c-200 43 -401 89 -448 102 -95 27 -100 28
-100 14z"/>
<path d="M74103 77268 c-27 -30 -93 -134 -93 -148 0 -5 3 -10 8 -10 10 1 113
162 109 173 l-2 8 -22 -23z"/>
<path d="M74720 76660 l0 -30 15 0 15 0 0 30 0 30 -15 0 -15 0 0 -30z"/>
<path d="M73708 70772 l-238 -2 0 -10 0 -10 234 0 235 0 6 11 c4 6 5 11 4 12
-2 1 -111 1 -241 -1z"/>
<path d="M74398 70685 l-6 -70 66 -370 65 -370 9 -10 10 -10 -5 20 c-4 11 -32
162 -63 335 l-58 315 -6 115 -6 115 -6 -70z"/>
<path d="M74439 70680 l-6 -75 19 -115 c22 -140 28 -164 34 -157 3 3 -2 42
-12 88 l-16 84 -7 125 -7 125 -5 -75z"/>
<path d="M76680 70017 c0 -4 25 -52 55 -107 30 -56 62 -118 71 -138 l16 -37 5
11 4 12 -44 89 c-39 78 -107 187 -107 170z"/>
<path d="M73215 69075 c-49 -13 -145 -36 -212 -51 l-123 -28 0 -9 0 -9 23 6
c12 4 114 29 226 56 113 28 207 52 209 55 11 10 -36 2 -123 -20z"/>
<path d="M76853 68483 c4 -104 7 -219 7 -257 l0 -70 11 11 11 11 -7 246 -7
246 -11 0 -10 0 6 -187z"/>
<path d="M55409 66904 l-14 -17 -15 -138 -16 -139 7 0 c10 0 16 34 30 165 l11
110 16 18 15 17 -10 0 c-6 0 -17 -7 -24 -16z"/>
<path d="M37016 66839 c-76 -4 -141 -11 -145 -14 l-6 -7 150 7 c83 4 188 11
235 15 l85 7 -90 0 c-49 0 -152 -4 -229 -8z"/>
<path d="M77798 66581 l-176 -6 -7 -7 -7 -7 218 6 219 5 30 8 30 8 -65 -1
c-36 0 -145 -3 -242 -6z"/>
<path d="M41136 66509 c-47 -55 -25 -70 24 -16 33 36 37 47 16 47 l-14 0 -26
-31z"/>
<path d="M52527 66523 l-5 -8 141 -242 c78 -133 152 -255 163 -270 l22 -28 7
7 7 7 -20 28 c-11 16 -82 134 -157 263 -75 129 -140 239 -145 243 l-8 9 -5 -9z"/>
<path d="M41550 66192 c0 -11 311 -215 317 -208 3 3 -21 22 -53 42 -33 21
-105 68 -161 106 l-103 68 0 -8z"/>
<path d="M97280 66141 c-102 -26 -198 -51 -214 -55 l-29 -7 11 -11 11 -11 215
54 216 54 0 12 0 13 -12 -1 c-7 0 -96 -22 -198 -48z"/>
<path d="M97514 66144 c3 -11 22 -98 41 -194 20 -96 39 -183 42 -194 l5 -18 8
8 8 9 -42 199 -42 200 -13 4 -13 4 6 -18z"/>
<path d="M41956 66022 c132 -94 266 -183 263 -174 -5 13 -279 202 -293 202 -5
0 9 -13 30 -28z"/>
<path d="M41910 66008 l-12 -23 18 17 18 18 -6 6 -6 6 -12 -24z"/>
<path d="M36681 66006 c-1 -14 -90 -497 -97 -526 l-5 -25 9 10 9 10 47 258 47
258 -5 12 -4 12 -1 -9z"/>
<path d="M50317 65939 c21 -21 388 -278 398 -279 l9 0 -11 11 c-21 21 -388
278 -397 279 l-10 0 11 -11z"/>
<path d="M70190 65508 c0 -3 18 -37 39 -75 22 -37 63 -121 92 -186 29 -64 54
-115 56 -113 7 6 -119 274 -155 331 -17 28 -32 47 -32 43z"/>
<path d="M33280 65020 l0 -10 -47 0 -48 0 -41 -33 c-75 -60 -195 -170 -189
-175 2 -3 42 29 87 70 46 41 101 87 122 102 l39 26 38 0 39 0 0 -16 c0 -9 -5
-82 -12 -163 l-11 -146 -16 -12 c-9 -6 -14 -14 -11 -16 3 -3 13 0 22 7 l17 13
12 166 12 167 8 0 8 0 -5 15 c-7 17 -24 20 -24 5z"/>
<path d="M74786 64968 c-17 -184 -30 -446 -22 -437 7 7 38 490 33 496 -3 2 -8
-24 -11 -59z"/>
<path d="M31420 64903 c-56 -22 -222 -104 -218 -108 3 -3 53 18 112 47 l107
52 97 6 97 7 -90 1 c-49 0 -97 -2 -105 -5z"/>
<path d="M33075 64510 c-93 -60 -171 -114 -173 -120 -2 -6 74 39 170 101 191
123 183 117 177 123 -2 3 -81 -44 -174 -104z"/>
<path d="M37056 64574 c-3 -9 -6 -17 -6 -19 0 -10 90 -28 230 -46 l155 -20
235 -14 c129 -8 254 -14 278 -15 l42 0 0 20 0 20 -35 0 c-165 0 -722 53 -838
80 -55 12 -54 13 -61 -6z"/>
<path d="M98117 64413 l-6 -9 91 -210 c103 -235 94 -217 106 -213 l10 4 -94
214 c-51 118 -96 216 -98 218 -2 2 -6 0 -9 -4z"/>
<path d="M59756 64324 c-9 -8 -16 -20 -16 -26 l0 -10 22 14 c12 8 24 20 26 26
l4 12 -10 0 c-6 0 -18 -7 -26 -16z"/>
<path d="M59552 64150 l-92 -96 7 -7 c3 -4 10 -7 14 -7 10 0 179 189 179 200
0 20 -16 6 -108 -90z"/>
<path d="M88720 64049 c89 -169 235 -397 247 -385 2 2 -16 32 -41 66 -26 34
-80 123 -122 196 -42 74 -81 137 -86 140 l-10 6 12 -23z"/>
<path d="M78490 64033 c-102 -13 -187 -26 -189 -29 -2 -2 -2 -7 1 -10 l6 -5
216 27 216 28 0 8 0 8 -32 -1 c-18 -1 -116 -12 -218 -26z"/>
<path d="M89635 63879 c5 -8 48 -59 96 -114 47 -55 105 -127 128 -159 46 -66
57 -65 13 1 -31 46 -218 269 -235 280 l-10 6 8 -14z"/>
<path d="M41450 63743 l-24 -5 -78 -65 c-43 -36 -78 -67 -78 -69 0 -9 22 7 96
68 l71 58 37 0 38 0 55 -16 c30 -9 57 -14 59 -11 5 5 -79 32 -126 40 -14 3
-36 2 -50 0z"/>
<path d="M41710 63630 l0 -13 7 6 6 7 -6 7 -7 6 0 -13z"/>
<path d="M41760 63575 c0 -5 15 -25 34 -45 19 -19 77 -93 129 -163 99 -133
286 -351 295 -342 3 2 -34 47 -81 99 -47 52 -131 155 -185 228 -103 138 -191
240 -192 223z"/>
<path d="M41197 63495 c-80 -70 -95 -85 -83 -85 4 0 150 122 181 151 l9 9 -10
0 c-5 0 -49 -34 -97 -75z"/>
<path d="M16389 63422 c-36 -20 -106 -69 -155 -108 -49 -40 -113 -86 -142
-103 l-54 -31 -96 -28 -97 -27 27 -3 27 -3 78 22 78 21 45 26 c25 15 91 63
148 109 l103 82 59 28 59 28 0 13 c1 18 -7 15 -80 -26z"/>
<path d="M41011 63389 c-34 -28 -61 -55 -61 -61 l0 -10 65 57 c36 32 65 59 65
61 0 9 -12 1 -69 -47z"/>
<path d="M16357 63315 l-17 -36 0 -39 0 -40 29 -32 29 -33 7 7 7 7 -26 31 -26
32 0 31 1 32 14 25 c8 14 14 31 15 38 0 23 -16 12 -33 -23z"/>
<path d="M41990 63346 c0 -7 113 -146 173 -214 32 -34 57 -59 57 -54 0 5 -24
37 -54 70 -29 33 -79 92 -110 131 -52 65 -66 79 -66 67z"/>
<path d="M13393 63069 l-63 -8 -17 -11 -18 -11 30 6 c17 3 76 9 133 14 57 5
106 11 109 15 l6 6 -59 -1 c-32 -1 -87 -5 -121 -10z"/>
<path d="M15077 63023 c-4 -3 -7 -19 -7 -34 l0 -28 10 -6 11 -7 -2 41 c-2 23
-4 41 -4 41 -1 0 -5 -3 -8 -7z"/>
<path d="M58658 62923 c-37 -21 -68 -42 -68 -46 l0 -8 76 42 76 42 107 -7 c58
-4 126 -9 151 -12 l45 -5 -15 10 -16 10 -144 6 -145 6 -67 -38z"/>
<path d="M59950 62859 l0 -6 163 -12 c89 -6 191 -14 227 -18 l65 -6 -7 7 -6 8
-221 17 -221 17 0 -7z"/>
<path d="M58420 62724 c-91 -63 -172 -120 -180 -127 -8 -7 -206 -165 -440
-351 l-424 -339 -19 -5 -20 -5 4 11 c2 6 96 83 209 172 113 89 207 166 209
172 4 12 -17 -4 -291 -221 l-156 -123 17 -17 16 -16 20 -2 c11 -1 191 -77 400
-168 209 -92 395 -173 413 -180 l32 -14 0 7 c0 4 -187 88 -415 187 l-415 180
3 7 c1 4 196 161 434 350 l432 343 176 119 c97 66 178 123 181 128 l5 8 -13
-1 c-7 0 -87 -52 -178 -115z"/>
<path d="M12255 62789 c-71 -5 -139 -10 -150 -13 -33 -7 296 6 345 14 l45 8
-55 -1 c-30 0 -113 -4 -185 -8z"/>
<path d="M80746 62659 c-186 -97 -215 -114 -205 -124 4 -4 384 188 398 200 1
2 1 8 0 13 l-4 9 -189 -98z"/>
<path d="M42121 62375 c-46 -40 -93 -84 -105 -96 l-21 -23 20 15 c33 24 205
170 205 175 0 12 -23 -4 -99 -71z"/>
<path d="M41936 62266 l-36 -33 0 -19 1 -19 11 20 c6 11 24 35 41 53 40 42 28
41 -17 -2z"/>
<path d="M50630 62030 c0 -8 332 -159 339 -153 8 6 -8 14 -173 88 l-166 73 0
-8z"/>
<path d="M59491 62026 c4 -3 308 -135 399 -173 l35 -15 -10 11 c-13 13 -399
181 -416 181 -7 0 -10 -2 -8 -4z"/>
<path d="M94255 61863 c-49 -60 -110 -129 -134 -156 l-44 -47 6 -7 7 -6 16 14
c25 20 254 293 254 302 0 20 -22 -2 -105 -100z"/>
<path d="M42205 61880 l-6 -10 10 0 c6 0 11 5 11 10 0 6 -2 10 -4 10 -3 0 -8
-4 -11 -10z"/>
<path d="M89671 61020 c8 -5 165 -63 348 -130 183 -66 347 -128 364 -136 18
-9 53 -37 80 -62 l47 -46 0 10 c0 5 -21 31 -47 56 l-48 47 -38 16 c-76 32
-699 255 -710 255 l-12 -1 16 -9z"/>
<path d="M25816 60768 c-7 -13 -48 -84 -91 -158 -42 -74 -86 -150 -97 -167
l-20 -33 9 0 c7 0 101 158 198 333 27 47 28 67 1 25z"/>
<path d="M36527 60519 l9 -9 225 -4 224 -5 -155 9 c-85 4 -190 11 -234 13
l-78 5 9 -9z"/>
<path d="M59918 60237 l-143 -123 -360 -271 c-198 -148 -373 -277 -390 -286
l-30 -16 15 -1 c25 0 66 29 426 301 l345 261 144 124 c133 114 153 134 141
134 -3 0 -69 -55 -148 -123z"/>
<path d="M58636 60229 c-59 -14 -57 -20 5 -13 l54 6 122 -248 c144 -296 173
-360 173 -385 l0 -19 14 0 c8 0 16 4 18 8 2 4 19 19 38 32 89 63 291 220 283
220 -5 0 -79 -52 -163 -115 -84 -63 -158 -115 -164 -115 l-11 0 -69 158 c-38
86 -107 230 -153 320 l-84 162 -12 -1 c-7 -1 -30 -5 -51 -10z"/>
<path d="M58642 60190 c-18 -4 -36 -10 -39 -14 l-6 -6 38 3 38 2 38 -70 c47
-85 275 -589 349 -770 30 -71 59 -137 66 -145 6 -8 38 -98 69 -200 31 -102 61
-189 66 -195 l9 -9 0 9 c-1 21 -120 389 -128 394 -4 3 -39 80 -76 171 -114
277 -377 844 -389 839 -1 -1 -17 -5 -35 -9z"/>
<path d="M61215 60079 c-225 -48 -228 -49 -223 -55 5 -4 418 80 443 90 35 15
-66 -1 -220 -35z"/>
<path d="M61464 60083 c3 -10 21 -97 41 -193 20 -96 38 -177 42 -180 l6 -5 -6
30 c-3 17 -20 105 -38 198 l-33 167 -9 0 -8 0 5 -17z"/>
<path d="M83370 59965 c0 -13 46 -93 136 -236 105 -168 104 -167 104 -152 0 5
-41 74 -91 153 -49 79 -101 165 -115 192 -22 43 -34 58 -34 43z"/>
<path d="M61993 59785 c3 -11 22 -99 42 -195 32 -154 45 -204 45 -174 0 5 -16
90 -36 189 l-36 180 -10 10 -10 10 5 -20z"/>
<path d="M91406 59543 c142 -191 224 -296 263 -337 52 -55 303 -258 310 -251
2 3 2 7 0 8 -2 2 -56 44 -119 94 l-115 91 -65 68 c-36 38 -114 135 -175 216
-60 81 -114 148 -119 148 l-8 0 28 -37z"/>
<path d="M59872 59325 c-117 -24 -216 -46 -219 -49 l-6 -6 9 0 c14 0 456 89
469 94 33 14 -67 -2 -253 -39z"/>
<path d="M50070 59103 c0 -7 179 -161 288 -247 l25 -20 -4 11 c-2 6 -49 48
-104 94 -55 45 -124 103 -152 127 -29 25 -53 40 -53 35z"/>
<path d="M63810 58922 c0 -4 36 -180 79 -392 44 -212 145 -707 226 -1100 153
-749 154 -754 161 -747 3 3 -385 1910 -446 2195 -10 45 -20 68 -20 44z"/>
<path d="M84073 58708 c74 -134 157 -299 157 -312 0 -8 -5 -18 -11 -21 l-10
-7 -6 23 c-10 39 -182 363 -189 356 -3 -2 34 -76 81 -164 l85 -161 6 -29 6
-30 -164 -57 c-89 -32 -167 -62 -172 -67 l-10 -9 9 0 c5 0 82 27 172 61 l163
60 9 -5 9 -6 4 10 c2 6 10 12 18 14 37 7 475 219 462 224 -5 1 -101 -42 -212
-98 -112 -55 -211 -100 -220 -100 l-16 0 -14 38 c-19 54 -174 342 -183 342
l-9 0 35 -62z"/>
<path d="M61535 58480 c-104 -27 -197 -53 -206 -58 -8 -5 -204 -49 -435 -96
-434 -90 -449 -94 -443 -100 2 -2 196 35 430 84 l426 88 19 11 c11 6 111 34
224 62 113 28 207 52 209 55 11 11 -48 -2 -224 -46z"/>
<path d="M59580 58512 c0 -4 78 -36 173 -71 94 -35 272 -100 395 -146 l222
-82 5 7 4 7 -72 25 c-86 32 -528 194 -644 237 l-83 30 0 -7z"/>
<path d="M60865 58360 l-420 -89 -17 5 -18 5 -16 -9 -17 -9 34 0 c39 0 854
163 884 177 l20 9 -15 0 c-8 0 -204 -40 -435 -89z"/>
<path d="M62313 58230 c8 -65 73 -380 78 -380 7 0 -55 330 -70 375 l-11 30 3
-25z"/>
<path d="M64034 58010 c15 -62 79 -376 121 -590 55 -281 55 -280 65 -280 l8 0
-53 258 c-111 538 -128 617 -137 627 l-9 10 5 -25z"/>
<path d="M63363 57929 c3 -11 25 -111 48 -222 23 -111 46 -206 51 -211 l8 -10
0 21 c0 12 -20 115 -45 230 -25 114 -45 209 -45 210 0 2 -5 3 -11 3 l-11 0 5
-21z"/>
<path d="M35305 57694 c-233 -123 -231 -122 -224 -128 2 -2 96 46 209 106 256
136 257 137 245 138 -5 0 -109 -52 -230 -116z"/>
<path d="M37900 57725 l-13 -15 6 -7 7 -6 15 13 c17 14 20 30 6 30 -5 0 -14
-7 -21 -15z"/>
<path d="M37011 57406 c-18 -24 -82 -89 -141 -144 l-108 -100 5 -6 6 -5 116
111 c112 106 170 173 159 183 -2 3 -19 -15 -37 -39z"/>
<path d="M38054 57230 l3 -65 -24 -95 c-14 -52 -35 -125 -49 -162 l-24 -68 9
0 8 0 31 93 c16 50 37 122 47 159 l18 66 -11 69 -11 68 3 -65z"/>
<path d="M54430 56641 l0 -11 28 -11 c15 -6 37 -19 48 -30 l22 -21 6 10 6 10
-31 26 c-17 14 -34 26 -39 26 -5 0 -15 3 -24 6 l-16 6 0 -11z"/>
<path d="M90646 56521 c5 -5 52 -28 104 -51 52 -23 130 -59 173 -81 44 -22 81
-38 83 -36 8 7 -115 72 -241 127 -118 51 -136 57 -119 41z"/>
<path d="M82744 56285 c28 -118 54 -215 58 -215 l6 0 -12 53 c-7 28 -30 125
-51 215 -21 89 -41 162 -45 162 -4 0 16 -97 44 -215z"/>
<path d="M79042 56459 l4 -13 65 -14 64 -13 83 6 82 7 0 8 0 8 -122 5 c-68 3
-136 9 -152 13 l-29 7 5 -14z"/>
<path d="M64430 56242 l35 -17 3 -33 3 -34 -17 -19 -17 -19 -32 0 -31 0 -10
10 -10 10 -262 -52 c-144 -29 -262 -55 -262 -59 0 -3 116 17 259 46 l258 52
19 -14 19 -14 30 7 30 6 23 21 23 22 -6 35 -6 35 -21 18 -20 17 -22 0 -21 0
35 -18z"/>
<path d="M64346 56231 l-18 -20 4 -11 3 -11 23 30 23 31 -9 0 c-5 0 -17 -9
-26 -19z"/>
<path d="M52125 54742 l-140 -216 -137 -175 c-75 -97 -135 -178 -132 -180 2
-2 6 -2 7 0 2 2 62 78 133 169 l130 165 133 205 c74 113 141 215 149 228 l14
22 -8 0 c-5 -1 -72 -98 -149 -218z"/>
<path d="M52222 54698 c-73 -110 -132 -202 -129 -204 2 -2 64 86 137 196 73
110 131 202 129 204 -2 2 -64 -86 -137 -196z"/>
<path d="M52675 54713 c19 -19 347 -235 351 -230 5 4 -317 224 -343 233 l-18
7 10 -10z"/>
<path d="M50304 54583 c-35 -38 -64 -72 -64 -78 0 -5 17 8 37 30 21 22 55 57
76 78 l40 37 -13 0 -13 0 -63 -67z"/>
<path d="M50140 54569 l0 -10 10 6 c6 3 10 8 10 11 0 2 -4 4 -10 4 -5 0 -10
-5 -10 -11z"/>
<path d="M50121 54533 c-1 -7 4 -44 11 -83 l12 -70 26 -24 25 -23 48 -16 47
-16 0 8 0 8 -45 13 -46 13 -23 28 -24 28 -7 53 c-4 29 -11 62 -16 73 l-8 20 0
-12z"/>
<path d="M51450 54306 c32 -32 195 -155 199 -150 2 2 2 6 0 7 -126 104 -248
192 -199 143z"/>
<path d="M51022 54000 l-154 -88 10 -6 10 -6 151 87 c130 75 173 105 144 102
-5 0 -77 -40 -161 -89z"/>
<path d="M53786 53981 c8 -8 263 -178 292 -195 6 -4 12 -5 12 -2 0 7 -297 206
-307 206 l-7 0 10 -9z"/>
<path d="M51410 53915 l-12 -15 10 0 c5 0 15 7 22 15 l12 15 -10 0 c-5 0 -15
-7 -22 -15z"/>
<path d="M50655 53644 c-137 -68 -254 -126 -260 -128 -5 -2 -8 -5 -5 -8 3 -3
127 55 275 128 149 73 263 132 255 132 -8 0 -127 -55 -265 -124z"/>
<path d="M77690 53692 c0 -5 9 -35 20 -66 10 -31 31 -105 45 -164 14 -59 30
-124 36 -146 l10 -39 9 9 8 9 -29 125 c-16 69 -41 160 -55 203 l-26 77 -9 0
c-5 0 -9 -4 -9 -8z"/>
<path d="M53851 53318 c-89 -43 -161 -81 -159 -84 3 -2 83 34 179 80 96 47
167 85 159 84 -8 0 -89 -36 -179 -80z"/>
<path d="M52448 53266 l-17 -24 -91 -7 -90 -7 0 -7 0 -7 92 9 93 9 13 10 c7 6
18 20 23 30 l10 18 -8 0 c-4 0 -16 -11 -25 -24z"/>
<path d="M52270 53202 c0 -30 178 -389 257 -519 l13 -23 18 0 17 0 85 50 c47
27 80 50 74 50 -6 0 -48 -21 -92 -46 l-81 -46 -10 6 c-15 10 -156 272 -217
406 -61 133 -64 139 -64 122z"/>
<path d="M74535 52890 c-71 -16 -156 -33 -188 -40 -32 -6 -56 -14 -54 -16 3
-3 91 12 196 33 l191 37 0 8 c0 10 11 11 -145 -22z"/>
<path d="M51437 52784 c-76 -42 -136 -78 -134 -81 5 -4 287 146 287 153 0 10
-24 -1 -153 -72z"/>
<path d="M84171 52786 c-1 -11 27 -123 61 -250 l63 -231 2 15 c2 8 -26 121
-61 250 -36 129 -65 226 -65 216z"/>
<path d="M78046 52402 l-8 -13 77 -212 c43 -117 81 -216 86 -221 l9 -10 0 15
c0 8 -32 102 -71 209 -39 107 -75 206 -78 220 l-7 24 -8 -12z"/>
<path d="M53021 52344 c13 -36 185 -384 191 -384 8 0 -169 371 -184 385 l-10
10 3 -11z"/>
<path d="M64445 52163 c3 -16 14 -111 25 -212 20 -177 24 -200 35 -189 5 5
-31 358 -41 406 l-4 22 -10 0 -9 0 4 -27z"/>
<path d="M54305 52117 l-18 -14 7 -11 6 -10 30 15 30 15 36 -21 c42 -25 44
-25 44 -6 l0 14 -30 16 -29 15 -29 0 -28 0 -19 -13z"/>
<path d="M50010 52060 c-8 -5 -12 -11 -9 -14 2 -3 11 -1 19 4 8 5 12 11 9 14
-2 3 -11 1 -19 -4z"/>
<path d="M74878 50838 l-166 -49 -149 -80 c-81 -44 -291 -157 -466 -251 -174
-94 -315 -173 -313 -175 2 -2 86 41 187 95 101 55 311 167 466 250 l282 151
163 47 c90 26 165 49 167 51 19 14 -27 4 -171 -39z"/>
<path d="M61531 50002 c-30 -136 -57 -254 -59 -262 l-5 -15 10 10 10 10 42
195 c24 107 49 221 56 253 l13 57 -6 0 c-4 0 -31 -111 -61 -248z"/>
<path d="M22296 49963 c-3 -21 -6 -73 -6 -115 l0 -78 10 0 10 0 0 78 c0 42 3
94 6 115 l7 37 -10 0 -10 0 -7 -37z"/>
<path d="M30492 49940 c0 -36 4 -78 8 -95 l8 -30 0 50 c0 28 -3 70 -7 95 l-8
45 -1 -65z"/>
<path d="M33630 49990 l0 -13 7 6 6 7 -6 7 -7 6 0 -13z"/>
<path d="M33990 49988 c-91 -5 -198 -11 -239 -14 l-73 -6 8 -8 9 -8 230 10
230 10 15 14 14 14 -14 -2 c-8 -1 -89 -5 -180 -10z"/>
<path d="M35920 49982 c0 -31 30 -225 35 -231 8 -8 6 24 -11 136 -16 105 -24
139 -24 95z"/>
<path d="M34290 49980 l0 -10 21 0 20 0 -6 10 c-3 6 -13 10 -21 10 l-14 0 0
-10z"/>
<path d="M34420 49971 c0 -5 7 -11 14 -14 l15 -6 -6 15 c-6 15 -23 19 -23 5z"/>
<path d="M33663 49933 l7 -6 7 6 6 7 -13 0 -13 0 6 -7z"/>
<path d="M33671 49871 c-1 -27 39 -359 45 -380 l4 -14 6 6 6 6 -21 183 c-12
101 -26 192 -31 203 l-9 20 0 -24z"/>
<path d="M31928 49827 l-188 -10 0 -10 0 -10 168 7 c92 4 186 9 209 13 l43 5
-6 9 c-3 5 -13 8 -22 7 -9 -1 -101 -6 -204 -11z"/>
<path d="M22320 49790 l0 -13 7 6 6 7 -6 7 -7 6 0 -13z"/>
<path d="M22380 49793 l0 -10 203 -7 c111 -3 364 -10 562 -16 198 -5 393 -12
433 -14 l72 -4 0 7 0 8 -247 7 c-275 8 -675 22 -885 32 l-138 7 0 -10z"/>
<path d="M22383 49753 l7 -7 353 -12 c407 -15 472 -16 465 -9 -4 4 -688 33
-817 35 l-14 0 6 -7z"/>
<path d="M43506 49608 c11 -35 173 -354 173 -342 1 14 -167 364 -175 364 -3 0
-2 -10 2 -22z"/>
<path d="M38156 49549 c-3 -8 -23 -86 -46 -174 -22 -88 -43 -168 -46 -177 l-5
-18 9 0 9 0 47 186 48 185 -6 6 -6 6 -4 -14z"/>
<path d="M40120 49553 c0 -7 32 -93 71 -190 39 -98 75 -189 80 -202 5 -13 12
-22 14 -19 3 2 -33 99 -80 214 -46 115 -84 203 -85 197z"/>
<path d="M35973 49510 c4 -14 7 -33 7 -42 l0 -18 9 0 9 0 -8 36 c-5 19 -12 39
-16 42 l-7 7 6 -25z"/>
<path d="M33763 49465 c3 -11 18 -110 33 -220 l27 -200 10 -10 9 -10 -5 20
c-3 11 -18 110 -33 220 l-27 200 -10 10 -9 10 5 -20z"/>
<path d="M48040 49464 c0 -5 7 -19 15 -30 l14 -19 1 11 c0 5 -7 19 -15 30
l-14 19 -1 -11z"/>
<path d="M37965 49080 c3 -14 39 -227 80 -475 42 -247 77 -454 79 -460 l4 -10
1 16 c2 29 -149 913 -159 934 l-9 20 4 -25z"/>
<path d="M39810 48649 l0 -10 77 -36 c43 -20 107 -44 143 -55 l65 -19 160 -19
c148 -18 177 -19 163 -5 -3 3 -75 14 -159 25 -85 11 -180 26 -211 35 -61 17
-197 72 -212 86 -13 12 -26 11 -26 -2z"/>
<path d="M33900 48605 c-228 -13 -431 -25 -450 -28 l-35 -4 50 -1 c76 -2 946
45 952 52 l6 6 -54 -1 c-30 -1 -241 -12 -469 -24z"/>
<path d="M34480 48590 c0 -13 11 -13 30 0 l15 10 -22 0 -23 0 0 -10z"/>
<path d="M34279 48586 c-2 -3 -88 -7 -191 -11 -103 -3 -193 -7 -200 -9 -7 -2
-112 -9 -233 -16 -121 -6 -221 -13 -224 -16 -7 -7 71 -5 272 7 103 6 190 10
192 7 2 -2 17 -95 32 -206 l27 -202 8 0 8 0 -6 28 c-16 90 -53 376 -49 380 2
3 114 11 247 18 263 15 316 21 197 23 -42 0 -78 -1 -80 -3z"/>
<path d="M14523 48574 c3 -3 61 -19 129 -36 l123 -29 70 -6 70 -5 33 9 33 8
-98 1 -98 1 -127 32 c-70 17 -130 31 -134 31 l-7 0 6 -6z"/>
<path d="M32870 48511 l-75 -6 3 -30 c5 -49 33 -209 38 -214 7 -7 4 20 -11
114 -8 50 -15 98 -15 108 l0 17 80 0 80 0 0 10 0 10 -12 -2 c-7 -1 -47 -4 -88
-7z"/>
<path d="M91057 48329 c-98 -104 -174 -189 -170 -189 11 0 329 334 343 360 6
11 9 20 8 19 -2 0 -83 -85 -181 -190z"/>
<path d="M38090 48124 c0 -5 12 -82 27 -171 l28 -163 8 0 8 0 -5 18 c-3 9 -17
84 -31 166 -22 130 -35 183 -35 150z"/>
<path d="M90844 48048 c-32 -35 -77 -93 -100 -129 -52 -79 -162 -215 -303
-373 -57 -64 -101 -119 -99 -121 5 -5 235 252 322 359 27 34 69 93 93 131 l45
70 61 63 61 62 -11 0 c-6 0 -37 -28 -69 -62z"/>
<path d="M90245 47389 l-350 -400 -52 -92 -52 -91 -26 -14 c-34 -17 -26 -27 9
-11 l27 13 55 97 55 98 337 383 c185 211 343 392 351 401 l13 17 -8 0 c-5 -1
-166 -181 -359 -401z"/>
<path d="M38435 47505 c-115 -24 -199 -44 -185 -44 29 -1 430 76 438 84 11 11
-51 1 -253 -40z"/>
<path d="M20666 47138 l-17 -43 -34 -203 -35 -203 -19 -37 -19 -37 -44 -42
-43 -42 -96 -45 c-53 -24 -155 -65 -225 -91 -130 -46 -287 -115 -280 -122 2
-2 39 12 82 31 44 18 140 56 214 82 74 26 175 67 223 91 48 24 91 43 95 43 4
0 26 19 49 43 l41 42 17 40 c18 44 43 162 70 325 l17 105 19 50 c22 58 21 55
11 55 -5 0 -17 -19 -26 -42z"/>
<path d="M20701 47103 l-21 -68 -29 -172 -30 -171 -21 -50 -21 -49 -49 -48
-50 -49 -85 -36 -85 -37 6 -5 5 -6 96 43 95 43 38 37 37 37 26 66 26 67 32
185 31 185 18 48 18 47 -8 0 -7 0 -22 -67z"/>
<path d="M89983 47028 l-49 -53 -59 -104 -59 -103 -34 -15 c-19 -8 -32 -16
-30 -19 3 -2 21 2 41 11 l36 15 57 102 57 103 37 40 c78 86 81 105 3 23z"/>
<path d="M51990 46476 c0 -12 170 -370 181 -381 l10 -10 -9 25 c-15 39 -170
361 -176 368 l-6 5 0 -7z"/>
<path d="M93060 46071 c0 -4 16 -15 35 -24 l36 -17 32 0 32 0 53 -25 54 -25
54 0 54 0 74 37 75 37 -4 6 -4 7 -77 -39 -76 -38 -42 0 -41 0 -47 25 -47 25
-38 0 -38 0 -42 20 -43 19 0 -8z"/>
<path d="M81344 45948 l-7 -11 11 7 c7 4 12 9 12 12 0 8 -9 4 -16 -8z"/>
<path d="M49330 45913 c0 -4 5 -15 10 -23 l10 -15 0 17 c0 9 -4 20 -10 23
l-10 6 0 -8z"/>
<path d="M81316 45849 c-3 -8 -10 -32 -15 -54 -6 -22 -20 -54 -30 -72 l-20
-32 -28 -4 -28 -4 37 -2 37 -1 15 28 c8 15 22 53 31 85 l17 58 -6 6 -6 6 -4
-14z"/>
<path d="M46125 45820 c11 -5 88 -21 170 -35 l150 -27 65 6 c36 4 80 9 98 12
l32 6 0 10 0 9 -10 -6 c-6 -3 -50 -10 -99 -15 l-89 -10 -163 30 c-175 32 -185
33 -154 20z"/>
<path d="M47738 45327 c-207 -70 -237 -82 -227 -91 2 -2 106 30 232 71 l227
76 0 8 c0 13 2 14 -232 -64z"/>
<path d="M28201 45288 c5 -18 23 -82 40 -143 17 -60 47 -150 67 -200 l35 -90
49 -70 48 -70 82 -72 82 -72 9 6 9 5 -58 52 c-31 28 -63 54 -70 59 -7 4 -39
44 -72 90 l-59 82 -34 85 c-18 47 -52 148 -74 224 l-41 140 -11 3 -12 4 10
-33z"/>
<path d="M16960 44879 l0 -24 20 -25 c28 -37 30 -21 4 29 l-24 44 0 -24z"/>
<path d="M88165 44184 c-32 -70 -72 -146 -87 -170 l-28 -44 -13 0 -13 0 -33
55 c-19 31 -36 53 -38 51 -8 -7 60 -114 76 -121 l14 -5 20 17 c21 19 50 74
127 239 27 57 46 104 42 104 -4 0 -34 -57 -67 -126z"/>
<path d="M26976 44181 c16 -15 397 -191 402 -186 3 3 3 6 1 8 -14 10 -396 187
-404 187 l-9 0 10 -9z"/>
<path d="M52110 43050 c0 -5 44 -97 97 -204 l97 -195 8 5 8 5 -100 199 c-55
110 -102 200 -105 200 -3 0 -5 -4 -5 -10z"/>
<path d="M51935 43014 c-88 -12 -243 -34 -344 -49 -101 -14 -188 -24 -195 -22
l-11 4 -12 -13 -12 -13 9 -3 10 -3 26 -165 c14 -91 28 -167 30 -169 11 -11 12
8 3 48 -5 24 -18 99 -28 168 l-18 125 11 3 c6 2 163 24 349 48 308 41 359 50
346 60 -2 2 -76 -6 -164 -19z"/>
<path d="M52090 43005 c0 -13 182 -367 186 -362 3 3 -36 86 -85 186 -80 159
-101 196 -101 176z"/>
<path d="M51157 42945 c-87 -12 -161 -25 -164 -29 l-6 -6 9 0 c28 0 357 49
362 54 l5 6 -24 -1 c-13 -1 -95 -11 -182 -24z"/>
<path d="M46240 42431 c-152 -80 -319 -170 -372 -200 l-97 -54 -5 -12 c-2 -7
-1 -36 4 -66 l8 -54 1 60 1 60 123 69 c67 38 232 127 367 198 135 72 247 132
249 134 21 21 -43 -10 -279 -135z"/>
<path d="M50535 41333 c-33 -14 -64 -28 -70 -33 -5 -4 -151 -78 -322 -164
l-313 -157 0 -10 c0 -5 3 -9 6 -9 3 0 160 78 348 174 187 95 363 182 389 191
26 10 50 22 53 26 l5 9 -18 -1 c-10 0 -45 -12 -78 -26z"/>
<path d="M57403 40883 c119 -2 315 -2 435 0 l217 2 -435 0 -435 0 218 -2z"/>
<path d="M51357 40403 c-3 -4 -23 -77 -46 -161 -23 -84 -46 -164 -51 -177
l-10 -25 9 0 9 0 41 153 c23 83 46 165 52 181 9 28 6 46 -4 29z"/>
<path d="M84780 39956 c0 -4 39 -65 87 -134 47 -70 165 -257 261 -417 191
-317 180 -300 186 -294 11 10 -472 784 -525 844 l-9 9 0 -8z"/>
<path d="M54443 39757 l-43 -10 0 -13 0 -13 13 4 c6 2 31 9 55 15 l43 11 -6 9
c-7 11 -5 11 -62 -3z"/>
<path d="M67430 39643 l0 -8 222 -75 c123 -41 229 -77 237 -78 l13 -4 -4 12
-4 12 -224 74 c-237 77 -240 78 -240 67z"/>
<path d="M51071 39634 c0 -6 -10 -60 -21 -120 -23 -126 -24 -145 -9 -196 l10
-38 36 -35 36 -35 6 5 5 6 -25 22 c-36 30 -55 65 -62 112 l-7 40 21 108 20
109 -4 16 -5 17 -1 -11z"/>
<path d="M48137 39578 c-105 -132 -217 -281 -217 -290 0 -6 59 65 130 157 72
92 130 169 130 171 0 11 -12 0 -43 -38z"/>
<path d="M52106 39403 c-12 -43 -76 -397 -72 -401 6 -6 10 9 51 227 19 102 33
186 31 189 -2 2 -7 -5 -10 -15z"/>
<path d="M85350 39125 c0 -11 263 -425 268 -421 4 5 -256 426 -264 426 -2 0
-4 -2 -4 -5z"/>
<path d="M84605 38923 c104 -181 209 -354 218 -360 l10 -6 -5 9 c-72 126 -241
404 -245 404 -3 0 7 -21 22 -47z"/>
<path d="M51466 38673 c-30 -103 -96 -369 -94 -380 l3 -15 53 202 c29 111 51
204 48 207 -2 2 -7 -4 -10 -14z"/>
<path d="M60290 38450 c0 -5 5 -10 10 -10 l10 0 0 -16 0 -15 -47 -67 c-26 -37
-87 -111 -136 -164 -49 -54 -85 -98 -79 -98 14 0 171 176 230 257 l52 73 0 14
0 15 -20 11 -20 11 0 -11z"/>
<path d="M60135 37955 c66 -63 138 -129 160 -146 l40 -31 -130 127 c-71 69
-143 135 -160 146 l-30 21 120 -117z"/>
<path d="M60361 37803 c1 -10 260 -251 297 -276 31 -22 -205 209 -260 254 -21
17 -38 27 -37 22z"/>
<path d="M85129 37753 c0 -16 -4 -66 -8 -112 l-8 -84 43 -70 c24 -39 44 -65
44 -59 0 7 -16 38 -36 69 l-36 57 7 113 7 113 -6 0 c-3 0 -6 -12 -7 -27z"/>
<path d="M89763 37607 c4 -10 53 -84 109 -165 119 -172 107 -156 112 -151 4 4
-205 314 -222 329 -3 3 -2 -3 1 -13z"/>
<path d="M90530 37550 l0 -10 38 0 37 0 15 10 15 10 -52 0 -53 0 0 -10z"/>
<path d="M490 37310 c0 -5 5 -10 10 -10 l10 0 12 -25 c6 -14 15 -25 19 -25 l8
0 -6 18 c-13 36 -53 68 -53 42z"/>
<path d="M53980 37306 c0 -5 -69 -375 -74 -399 l-4 -18 11 4 11 3 31 170 c18
93 35 186 39 207 l7 37 -11 0 c-5 0 -10 -2 -10 -4z"/>
<path d="M40520 36597 c-206 -44 -377 -82 -379 -84 -17 -13 51 -1 398 74 l394
84 8 -8 8 -8 46 -305 c40 -268 55 -348 55 -299 0 8 -20 150 -45 314 -25 165
-45 303 -45 308 l0 7 -32 -1 c-18 -1 -202 -38 -408 -82z"/>
<path d="M34615 36031 l-50 -7 -26 -14 c-15 -8 -52 -39 -84 -68 l-58 -53 6 -6
6 -6 65 61 65 60 37 12 37 12 66 -4 67 -5 44 -29 c25 -16 117 -91 204 -166 88
-76 162 -136 164 -133 4 4 -25 30 -206 187 l-133 115 -42 21 c-52 25 -97 32
-162 23z"/>
<path d="M41769 35677 l13 -17 -5 -26 -5 -26 10 10 10 10 -4 28 -3 27 -15 5
-15 5 14 -16z"/>
<path d="M84840 35610 c-54 -36 -42 -40 15 -5 l40 24 40 0 40 0 26 -22 26 -22
53 -95 c29 -52 82 -136 119 -185 36 -50 100 -146 140 -213 41 -67 76 -120 79
-118 7 7 -141 247 -213 346 -34 47 -86 128 -115 180 l-52 95 -27 22 -26 22
-50 1 -50 0 -45 -30z"/>
<path d="M84917 35603 c-22 -6 -855 -538 -877 -561 l-15 -15 15 8 c8 4 207
131 441 281 l426 274 27 0 26 0 20 -20 c11 -11 33 -45 49 -77 16 -32 60 -101
98 -153 38 -52 110 -161 159 -242 49 -82 92 -148 96 -148 11 0 -187 322 -252
410 -30 41 -72 108 -93 147 l-38 72 -22 16 c-22 15 -28 16 -60 8z"/>
<path d="M41400 35476 c-6 -9 -16 -31 -20 -51 l-8 -35 9 0 9 0 0 23 0 23 16
22 c18 26 13 40 -6 18z"/>
<path d="M57645 34038 l24 -53 24 -13 25 -12 100 -228 100 -227 26 -130 c15
-71 30 -133 35 -138 l8 -8 179 26 179 25 34 17 33 17 16 24 15 23 -6 5 -5 6
-11 -21 -12 -21 -32 -17 -32 -17 -178 -26 -179 -27 -4 11 c-2 6 -15 67 -29
136 l-25 125 -102 232 -103 232 -20 3 -20 3 -24 53 c-14 28 -28 52 -32 52 l-8
0 24 -52z"/>
<path d="M35136 33493 c31 -60 75 -143 98 -185 22 -43 45 -78 49 -78 l9 0 -58
108 c-31 59 -75 142 -98 184 -22 43 -45 78 -49 78 l-9 0 58 -107z"/>
<path d="M65691 33219 c-52 -90 -107 -181 -123 -201 l-29 -38 9 0 c5 0 16 8
25 18 25 28 218 365 214 375 l-3 9 -93 -163z"/>
<path d="M79406 32691 l-6 -8 93 -36 c50 -19 138 -53 195 -75 l103 -41 -3 11
-4 11 -90 39 c-49 22 -133 54 -186 73 l-97 34 -5 -8z"/>
<path d="M98818 31737 l-27 -11 -10 -29 -11 -29 29 31 29 31 29 0 28 0 -15 10
c-17 11 -16 11 -52 -3z"/>
<path d="M98907 31692 c78 -120 270 -392 276 -392 4 0 -33 60 -83 133 -51 72
-115 167 -144 209 -28 43 -55 78 -59 78 l-9 0 19 -28z"/>
<path d="M17270 27395 c0 -6 -20 -95 -44 -200 -24 -104 -42 -192 -40 -194 12
-12 25 29 63 198 l41 185 -10 10 -10 10 0 -9z"/>
<path d="M24530 26396 c0 -2 18 -15 40 -30 l41 -27 19 -32 20 -32 0 17 0 16
-26 32 c-29 34 -94 73 -94 56z"/>
<path d="M386 25128 c-2 -7 -16 -96 -30 -198 -14 -102 -29 -202 -32 -222 l-7
-38 10 0 10 0 22 143 c12 78 29 177 37 221 7 43 14 84 14 92 l0 14 -10 0 c-6
0 -12 -6 -14 -12z"/>
<path d="M18845 21565 c-231 -30 -431 -54 -445 -54 l-24 -1 10 -10 11 -11 414
51 c228 27 431 53 452 56 l37 6 0 9 0 9 -17 -1 c-10 -1 -207 -25 -438 -54z"/>
<path d="M89606 21452 l-7 -12 46 -198 c25 -108 49 -205 52 -216 l5 -18 9 9 9
9 -50 209 c-28 116 -52 214 -53 220 l-3 9 -8 -12z"/>
<path d="M15690 21362 c0 -4 19 -27 43 -49 l42 -42 40 -17 39 -16 113 7 113 7
0 10 0 10 -109 -7 -109 -7 -43 20 -44 19 -34 37 c-34 35 -51 44 -51 28z"/>
<path d="M92177 16433 l-6 -10 96 -104 c53 -57 123 -132 156 -166 l59 -63 9 6
9 5 -147 157 c-80 86 -152 163 -159 170 l-12 14 -5 -9z"/>
<path d="M24872 4078 l5 -13 86 -38 86 -38 83 -14 82 -15 9 9 9 9 -74 11 -73
12 -55 21 c-30 12 -77 32 -104 45 -58 27 -59 27 -54 11z"/>
<path d="M16770 1257 l0 -14 93 -6 c50 -4 152 -10 225 -13 l132 -7 0 10 0 11
-72 6 c-40 3 -122 8 -183 11 -60 3 -129 8 -152 11 l-43 5 0 -14z"/>
</g>
</svg>
