<?xml version="1.0" standalone="no"?>
<!DOCTYPE svg PUBLIC "-//W3C//DTD SVG 20010904//EN"
 "http://www.w3.org/TR/2001/REC-SVG-20010904/DTD/svg10.dtd">
<svg version="1.0" xmlns="http://www.w3.org/2000/svg"
 width="7500.000000pt" height="7500.000000pt" viewBox="0 0 7500.000000 7500.000000"
 preserveAspectRatio="xMidYMid meet">
<metadata>
Created by potrace 1.16, written by Peter Selinger 2001-2019
</metadata>
<g transform="translate(0.000000,7500.000000) scale(0.075000,-0.075000)"
fill="#000000" stroke="none">
<path d="M89952 99630 l-12 -20 0 -25 0 -25 9 0 9 0 5 23 c3 12 9 32 12 45 l7
22 -8 0 c-5 0 -15 -9 -22 -20z"/>
<path d="M90185 99599 l7 -10 -7 -36 -6 -35 -32 -29 -31 -29 -43 0 -42 0 -6
10 c-7 12 -35 14 -35 2 0 -4 13 -15 28 -24 l29 -17 39 6 39 6 28 19 27 20 15
28 15 29 0 36 0 35 -16 0 -15 0 6 -11z"/>
<path d="M90007 99286 c-14 -50 -39 -149 -53 -219 l-27 -128 7 -6 6 -6 6 6 c3
3 21 74 39 159 18 84 42 181 53 215 l20 62 -12 4 -11 5 -28 -92z"/>
<path d="M82900 99312 l0 -10 228 -123 c125 -67 278 -154 341 -192 l115 -69
73 -29 74 -29 67 -9 c37 -5 114 -12 172 -16 58 -3 124 -8 148 -11 l42 -5 0 10
0 11 -56 0 c-80 0 -291 19 -344 31 -63 14 -166 57 -227 95 -43 27 -533 302
-610 343 l-23 12 0 -9z"/>
<path d="M82885 99271 c3 -6 99 -60 213 -122 114 -62 266 -147 337 -189 l131
-76 99 -36 100 -36 198 -14 197 -13 0 5 c0 4 -91 14 -202 22 l-203 16 -98 37
-97 36 -193 113 c-210 122 -470 266 -481 266 l-7 0 6 -9z"/>
<path d="M58300 97793 c0 -10 236 -158 285 -179 20 -8 42 -13 48 -11 l11 3
-65 30 c-35 17 -103 56 -150 86 -48 31 -96 61 -108 67 l-21 12 0 -8z"/>
<path d="M87880 96390 l-65 -7 135 0 135 0 80 -26 c43 -15 81 -24 83 -22 5 5
-12 12 -93 40 l-50 17 -80 3 c-44 1 -109 -1 -145 -5z"/>
<path d="M87128 96355 c-80 -12 -153 -25 -162 -28 l-16 -6 0 -12 0 -11 13 10
12 10 175 26 c96 14 191 27 210 29 l35 4 -60 0 -60 1 -147 -23z"/>
<path d="M98411 94884 c2 -6 40 -45 85 -85 l81 -75 61 -32 c77 -41 82 -35 7 7
l-55 31 -91 82 c-51 46 -90 78 -88 72z"/>
<path d="M98471 94406 c8 -9 410 -166 422 -166 6 1 -82 39 -198 85 -187 76
-238 94 -224 81z"/>
<path d="M99865 93895 c61 -24 117 -44 125 -44 l15 0 -20 9 c-74 31 -207 80
-218 79 -6 0 38 -20 98 -44z"/>
<path d="M87837 93332 c-10 -10 -17 -22 -17 -27 l0 -8 21 19 21 18 70 -72 70
-72 19 0 c10 0 21 5 24 10 l6 10 29 0 c16 0 41 -5 56 -10 42 -16 42 -2 -1 16
l-38 16 -45 -12 -45 -11 -71 70 c-40 39 -74 71 -77 71 -3 0 -13 -8 -22 -18z"/>
<path d="M20680 93242 l0 -9 73 -13 c39 -7 84 -19 99 -26 22 -11 237 -74 253
-74 3 0 5 4 5 8 l0 8 -77 18 c-43 10 -105 29 -138 41 -33 13 -87 29 -120 35
-33 6 -68 14 -77 16 l-18 5 0 -9z"/>
<path d="M92115 92018 c-15 -40 -32 -79 -38 -85 l-9 -13 -24 0 c-12 0 -75 18
-139 41 l-117 41 -5 -6 -6 -6 14 -5 c8 -3 65 -23 128 -45 l114 -41 28 6 27 6
17 42 c9 23 26 63 36 90 l19 47 -9 0 -8 0 -28 -72z"/>
<path d="M24360 91910 c0 -6 2 -10 5 -10 3 0 94 -25 203 -55 109 -30 204 -55
212 -55 l13 0 -5 6 c-3 3 -95 30 -204 60 -110 30 -205 56 -211 59 l-13 4 0 -9z"/>
<path d="M95280 91608 c-74 -94 -174 -215 -222 -268 l-87 -98 -47 -88 c-26
-49 -54 -96 -61 -106 l-14 -16 9 -6 9 -5 20 22 c12 12 37 55 57 95 l37 73 52
57 c47 52 124 145 334 405 l73 89 -6 9 c-3 5 -8 9 -12 9 -4 -1 -68 -78 -142
-172z"/>
<path d="M85278 91365 l-117 -195 8 -4 7 -5 97 162 c54 89 106 176 118 194
l20 31 -8 5 -9 6 -116 -194z"/>
<path d="M94978 91174 l-23 -49 0 -80 c1 -44 3 -115 5 -157 l5 -78 8 0 c4 0
10 6 13 14 l5 14 -11 82 c-6 45 -11 103 -12 128 l0 47 21 59 c26 74 19 86 -11
20z"/>
<path d="M26975 91193 l10 -11 199 -56 c109 -31 203 -55 209 -53 6 2 -81 29
-194 61 -112 32 -211 61 -219 64 l-15 5 10 -10z"/>
<path d="M94520 91030 l0 -20 10 0 10 0 0 20 0 20 -10 0 -10 0 0 -20z"/>
<path d="M6887 91003 l-5 -8 56 -51 57 -51 155 -100 c85 -55 233 -145 328
-201 l174 -102 10 6 9 6 -183 107 c-214 126 -483 302 -550 361 l-46 41 -5 -8z"/>
<path d="M94565 90960 l-6 -10 6 -10 c7 -12 32 -13 39 -2 l5 8 -19 12 -19 12
-6 -10z"/>
<path d="M94656 90901 l-6 -9 31 -6 c18 -3 35 -6 40 -6 l9 0 0 15 0 15 -34 0
-35 0 -5 -9z"/>
<path d="M79802 90373 l-193 -106 9 -9 9 -9 197 106 196 107 0 9 c0 19 -30 5
-218 -98z"/>
<path d="M8880 89900 l0 -10 59 0 59 0 173 -25 c156 -23 192 -25 177 -10 -2 3
-82 16 -177 30 l-173 25 -59 0 -59 0 0 -10z"/>
<path d="M97872 89259 l-144 -8 -6 -6 -7 -7 155 7 c85 4 193 11 240 15 l85 7
-90 0 c-49 0 -155 -4 -233 -8z"/>
<path d="M44186 88218 c29 -53 228 -359 235 -364 5 -3 -26 50 -70 119 -43 69
-98 155 -121 191 -23 36 -44 66 -46 66 -3 0 -2 -6 2 -12z"/>
<path d="M75379 88013 c-62 -36 -118 -70 -124 -76 l-10 -10 10 5 c28 14 241
131 244 134 2 2 2 6 0 9 -3 2 -57 -25 -120 -62z"/>
<path d="M15976 87890 c6 -6 95 -62 199 -125 l188 -114 9 5 c5 3 8 7 6 9 -19
17 -390 235 -399 235 l-13 0 10 -10z"/>
<path d="M75068 87714 l-6 -5 90 -187 c96 -201 95 -198 104 -189 l7 6 -89 183
c-48 101 -90 186 -94 191 l-6 7 -6 -6z"/>
<path d="M47940 87590 l15 -10 50 0 50 0 14 -9 14 -9 -7 -108 c-4 -60 -9 -129
-13 -154 l-6 -45 9 8 9 8 11 147 12 147 -12 11 -11 12 -75 5 -75 6 15 -9z"/>
<path d="M84409 87215 l-92 -185 6 -6 6 -7 11 29 c15 39 159 326 172 342 l10
12 -10 0 -10 0 -93 -185z"/>
<path d="M83745 87353 c-3 -15 -31 -135 -61 -267 l-54 -240 8 -8 8 -8 57 252
c32 139 60 263 63 276 l6 22 -10 0 -10 0 -7 -27z"/>
<path d="M83681 86916 c2 -2 65 -21 139 -41 74 -20 156 -43 183 -50 l47 -14 0
7 0 7 -177 48 c-167 45 -202 53 -192 43z"/>
<path d="M47947 86763 c-20 -32 -76 -112 -126 -178 -49 -66 -88 -122 -85 -124
2 -2 5 -2 7 0 147 190 254 346 244 356 -3 2 -21 -22 -40 -54z"/>
<path d="M69056 85102 l-5 -8 217 -135 c119 -73 230 -147 248 -162 l32 -28 73
-170 72 -170 8 8 9 9 -70 164 -71 165 -32 31 -32 31 -210 130 c-115 72 -215
133 -222 137 l-12 6 -5 -8z"/>
<path d="M82500 85072 c0 -9 350 -126 356 -119 3 3 -76 32 -175 65 -100 33
-181 57 -181 54z"/>
<path d="M78880 85050 c0 -8 -18 -125 -39 -260 l-39 -245 -61 -174 c-53 -150
-66 -199 -47 -180 3 3 32 83 66 179 l61 175 39 250 40 249 -10 10 -10 10 0
-14z"/>
<path d="M88207 84764 c-27 -102 -47 -188 -44 -191 3 -3 10 12 16 33 6 22 26
100 46 174 20 74 38 143 41 153 l5 17 -8 0 -8 0 -48 -186z"/>
<path d="M22230 84933 l0 -9 215 -93 216 -94 5 6 6 5 -21 12 c-17 8 -350 153
-408 177 l-13 5 0 -9z"/>
<path d="M89726 84553 l-7 -7 238 -68 c207 -58 260 -70 242 -54 -2 2 -105 32
-229 66 -124 34 -228 64 -231 66 -3 2 -9 0 -13 -3z"/>
<path d="M82662 84485 l11 -26 9 9 9 9 -7 16 -6 17 -14 0 -14 0 12 -25z"/>
<path d="M23537 84364 l-6 -7 177 -79 177 -78 15 2 15 3 -175 79 c-96 43 -180
80 -186 82 -5 3 -13 2 -17 -2z"/>
<path d="M80520 84363 c104 -41 406 -143 414 -140 l10 3 -208 72 c-114 40
-213 72 -219 71 l-12 -1 15 -5z"/>
<path d="M83130 84171 c0 -5 6 -11 14 -14 l14 -6 6 15 5 14 -19 0 -20 0 0 -9z"/>
<path d="M86586 84109 c-2 -8 -9 -84 -15 -169 -6 -85 -14 -182 -18 -215 l-6
-60 8 7 7 7 19 217 c16 197 18 253 5 213z"/>
<path d="M81380 84020 c29 -16 411 -152 416 -148 4 5 -409 158 -424 158 -4 0
0 -5 8 -10z"/>
<path d="M24356 84001 c9 -10 375 -174 414 -186 l20 -6 0 9 0 9 -213 91 c-117
51 -217 92 -222 92 l-9 0 10 -9z"/>
<path d="M24330 83953 l0 -10 273 -118 c149 -66 346 -152 437 -191 151 -67
190 -79 164 -55 -7 7 -782 347 -861 378 l-13 5 0 -9z"/>
<path d="M77179 83558 c-78 -116 -226 -350 -264 -417 l-8 -14 10 6 c6 4 43 60
83 124 60 96 262 405 277 422 3 4 92 -23 193 -57 l15 -5 -10 10 c-5 6 -48 23
-95 38 -47 15 -90 30 -95 32 l-11 4 -95 -143z"/>
<path d="M77920 83470 c0 -3 88 -35 196 -69 l195 -63 6 6 6 6 -14 5 c-8 3 -98
31 -201 64 l-188 58 0 -7z"/>
<path d="M82105 83411 l-5 -10 11 -25 12 -25 34 -12 34 -11 30 13 31 12 9 25
10 25 -10 10 -10 10 -10 -26 -10 -25 -21 -7 -21 -7 -24 6 -23 6 -6 25 -6 25
-10 0 c-5 0 -11 -4 -15 -9z"/>
<path d="M47172 83369 l4 -13 205 -33 c112 -18 214 -32 227 -33 l22 0 0 8 0 8
-212 33 c-117 18 -221 35 -232 38 l-18 5 4 -13z"/>
<path d="M18020 82127 l0 -12 213 -48 c223 -50 237 -52 237 -39 l0 9 -167 37
c-93 20 -194 43 -225 51 l-58 13 0 -11z"/>
<path d="M96150 81398 c-195 -271 -365 -508 -378 -525 l-24 -33 8 0 c11 1 758
1039 752 1046 -3 2 -164 -218 -358 -488z"/>
<path d="M85120 81596 c0 -2 18 -42 40 -89 l40 -85 33 -28 c45 -40 196 -138
202 -132 3 3 -40 36 -95 74 l-101 69 -28 42 c-16 23 -39 67 -52 97 -13 31 -27
56 -31 56 -5 0 -8 -2 -8 -4z"/>
<path d="M95492 80408 c-109 -149 -174 -241 -179 -256 l-6 -17 20 25 c24 30
197 270 207 288 18 31 -7 7 -42 -40z"/>
<path d="M94942 80371 c3 -10 322 -241 332 -241 23 0 -15 31 -158 133 -158
113 -181 128 -174 108z"/>
<path d="M99943 80043 c-55 -105 -123 -263 -123 -285 1 -7 22 37 48 97 26 61
66 146 90 190 23 44 41 84 39 88 -1 4 -25 -36 -54 -90z"/>
<path d="M96342 79361 c5 -15 260 -193 306 -213 l43 -19 12 4 12 4 -55 28
c-30 15 -112 68 -181 116 -122 86 -144 99 -137 80z"/>
<path d="M13287 78997 l-77 -212 -10 -100 c-16 -153 -35 -236 -121 -543 -44
-156 -79 -288 -77 -294 2 -6 43 129 91 298 l87 309 14 85 c8 47 18 123 22 170
l7 84 77 208 c43 114 75 208 71 208 -3 0 -41 -96 -84 -213z"/>
<path d="M98450 78698 c-53 -76 -155 -256 -148 -263 2 -2 23 33 48 78 24 45
70 121 102 170 32 48 56 87 54 87 -3 0 -28 -33 -56 -72z"/>
<path d="M60425 78571 c-43 -25 -124 -90 -254 -203 -18 -16 -31 -31 -29 -33 2
-2 60 43 128 101 69 58 142 114 162 125 20 10 39 23 43 29 9 14 6 13 -50 -19z"/>
<path d="M97910 78584 l0 -9 186 -85 c102 -47 190 -86 195 -88 l9 -4 0 9 0 9
-177 81 c-98 45 -186 85 -195 88 l-18 7 0 -8z"/>
<path d="M99201 78225 c-29 -86 -51 -158 -48 -161 3 -3 13 19 22 48 10 29 35
101 56 161 l38 107 -7 0 c-4 0 -31 -70 -61 -155z"/>
<path d="M13151 78248 c-31 -99 -111 -404 -109 -416 l3 -14 62 228 c35 125 61
229 59 231 -2 3 -9 -11 -15 -29z"/>
<path d="M99106 77981 c7 -7 565 -266 791 -367 l52 -23 5 8 5 8 -417 191
c-229 106 -424 192 -431 192 l-15 0 10 -9z"/>
<path d="M99550 77841 l0 -8 221 -103 221 -102 6 6 6 6 -10 10 c-11 11 -421
200 -434 200 -6 0 -10 -4 -10 -9z"/>
<path d="M74470 77623 c1 -14 38 -53 49 -53 l12 0 -23 30 c-21 28 -38 39 -38
23z"/>
<path d="M12900 77390 l0 -10 23 -5 c12 -3 209 -43 437 -90 l415 -84 9 9 c5 6
8 11 5 13 -4 4 -868 177 -881 177 -5 0 -8 -4 -8 -10z"/>
<path d="M75078 77160 c-106 -88 -223 -187 -260 -221 l-68 -60 -15 -51 -15
-52 0 -38 0 -38 14 0 14 0 4 65 4 64 64 68 65 68 198 165 c109 91 201 168 203
172 2 4 0 9 -5 12 l-9 6 -194 -160z"/>
<path d="M74113 77278 c-33 -36 -103 -143 -103 -158 0 -23 18 -5 53 55 21 35
45 69 53 76 8 6 14 18 14 25 l0 14 14 0 c8 0 18 5 21 10 l6 10 -13 0 -14 0
-31 -32z"/>
<path d="M74555 76630 c3 -5 8 -10 11 -10 2 0 4 5 4 10 0 6 -5 10 -11 10 l-10
0 6 -10z"/>
<path d="M16810 76247 l0 -13 78 -22 c95 -28 239 -52 310 -52 l52 0 0 15 0 15
-52 0 c-70 0 -227 26 -307 50 -75 24 -81 24 -81 7z"/>
<path d="M82431 74188 l-23 -103 -5 -137 -6 -138 10 0 10 0 6 143 6 142 20 83
c23 91 25 112 13 112 l-9 0 -22 -102z"/>
<path d="M72030 72263 l-35 -26 -110 -138 c-60 -76 -110 -143 -110 -149 l0
-10 10 2 c6 1 58 63 118 137 l107 136 34 26 34 26 -6 10 -7 11 -35 -25z"/>
<path d="M26040 71871 l0 -9 63 -6 c34 -4 130 -13 212 -20 83 -8 158 -17 168
-21 l17 -7 0 15 0 15 -32 6 c-40 8 -339 36 -390 36 l-38 0 0 -9z"/>
<path d="M71994 71764 l-6 -45 9 -22 9 -21 1 67 c1 37 0 67 -2 67 -2 0 -7 -21
-11 -46z"/>
<path d="M74399 70675 l-6 -80 68 -377 67 -377 30 -43 c16 -24 43 -73 60 -109
l32 -66 21 -94 c12 -52 26 -98 31 -104 l9 -10 -5 15 c-2 8 -14 58 -27 110
l-22 95 -35 69 c-19 39 -45 87 -59 108 l-24 39 -61 332 -60 332 -7 120 -6 120
-6 -80z"/>
<path d="M1080 69831 l0 -9 78 -16 c42 -9 95 -25 117 -35 l40 -19 71 -66 71
-65 6 6 6 6 -76 71 c-92 86 -106 94 -208 117 -92 21 -105 22 -105 10z"/>
<path d="M20812 69175 c-176 -20 -213 -28 -201 -39 2 -2 99 7 214 20 116 13
218 24 228 24 l17 0 0 10 0 10 -32 -1 c-18 -1 -120 -11 -226 -24z"/>
<path d="M19925 69023 c-115 -24 -212 -46 -214 -49 -2 -2 -2 -7 1 -10 l6 -6
216 46 c118 25 218 46 221 46 3 0 5 5 5 10 l0 10 -12 -1 c-7 0 -107 -21 -223
-46z"/>
<path d="M71233 68538 l-163 -40 0 -8 0 -8 173 44 172 44 45 0 46 0 22 -16
c26 -18 30 -7 5 12 l-18 13 -60 0 -60 -1 -162 -40z"/>
<path d="M77758 68511 l-216 -6 -9 -9 -8 -9 115 7 c63 3 175 6 248 6 l132 0 0
10 0 10 -22 -2 c-13 -1 -121 -4 -240 -7z"/>
<path d="M58240 67589 l-35 -7 -22 -28 c-30 -38 -21 -44 11 -8 l24 29 90 3 90
4 56 -16 c31 -9 72 -26 91 -37 20 -12 38 -19 41 -16 8 8 -78 52 -126 65 -25 6
-76 13 -115 15 l-70 4 -35 -8z"/>
<path d="M94282 67397 c9 -73 33 -219 52 -323 19 -104 78 -454 131 -779 97
-593 102 -621 110 -614 4 5 -207 1292 -249 1514 -13 72 -30 176 -37 233 -7 56
-15 102 -19 102 l-6 0 18 -133z"/>
<path d="M30343 67334 c11 -12 447 -133 447 -124 0 4 -96 33 -212 65 -117 32
-220 60 -228 63 l-15 5 8 -9z"/>
<path d="M3670 67282 l0 -11 73 -42 c39 -24 209 -123 377 -222 168 -99 308
-182 313 -184 l7 -4 0 9 0 9 -302 180 c-167 99 -334 199 -371 222 -38 23 -75
45 -83 48 l-14 5 0 -10z"/>
<path d="M94305 67025 c31 -196 148 -886 152 -903 3 -13 7 -21 10 -19 6 7
-146 908 -158 932 l-9 20 5 -30z"/>
<path d="M55376 66931 l-17 -19 -18 -151 -18 -151 8 0 c10 0 16 34 30 170 l12
115 12 15 c6 8 15 21 19 28 l7 12 -9 0 c-5 0 -17 -9 -26 -19z"/>
<path d="M37777 66880 c-489 -26 -891 -51 -894 -54 l-6 -6 14 0 c8 0 399 20
868 45 469 25 868 45 887 45 l34 0 0 10 c0 6 -3 9 -7 9 -5 -1 -408 -23 -896
-49z"/>
<path d="M60177 66924 l-7 -7 2 -106 2 -106 3 95 4 95 8 8 9 9 73 -21 c41 -12
95 -28 122 -36 l47 -14 0 7 0 8 -112 33 c-62 19 -120 35 -128 38 l-16 4 -7 -7z"/>
<path d="M55409 66904 l-13 -16 -3 -41 c-2 -23 -8 -78 -13 -122 -11 -88 -12
-121 -5 -114 2 3 11 65 20 139 l16 134 16 18 16 18 -10 0 c-6 0 -16 -7 -24
-16z"/>
<path d="M4922 66787 c-45 -67 -82 -127 -82 -132 0 -6 39 48 86 118 47 71 84
131 81 133 -2 2 -41 -51 -85 -119z"/>
<path d="M45494 66772 c-96 -135 -218 -331 -210 -339 5 -5 12 5 90 134 30 51
90 141 134 200 43 59 82 114 86 121 l7 12 -8 0 c-4 0 -49 -58 -99 -128z"/>
<path d="M37357 66815 l-768 -43 -69 -28 c-39 -15 -70 -31 -70 -35 l0 -8 70
29 70 29 763 41 c419 22 789 44 822 49 l60 8 -55 0 c-30 1 -401 -19 -823 -42z"/>
<path d="M47157 66730 c17 -18 427 -269 432 -264 2 2 2 6 0 8 -11 11 -412 258
-427 263 l-17 6 12 -13z"/>
<path d="M59880 66723 c0 -5 48 -43 108 -85 l107 -76 53 -18 53 -19 9 15 10
15 -2 75 -1 75 -10 -77 -10 -78 -13 0 c-8 0 -33 8 -56 17 l-43 17 -90 64 c-49
36 -96 69 -102 75 l-13 9 0 -9z"/>
<path d="M33890 66583 c0 -17 59 -42 245 -102 105 -34 202 -66 218 -71 l27 -9
0 8 0 7 -212 68 -213 68 -32 20 -33 20 0 -9z"/>
<path d="M77235 66560 l-80 -6 110 -1 c61 0 162 3 225 7 l115 7 -145 -1 c-80
0 -181 -3 -225 -6z"/>
<path d="M41065 66541 l-7 -12 29 -44 c28 -45 37 -52 47 -37 l5 9 -26 39 c-14
21 -29 43 -33 47 l-8 9 -7 -11z"/>
<path d="M41210 66526 l0 -14 15 -5 14 -6 7 11 7 10 -14 9 c-20 13 -29 11 -29
-5z"/>
<path d="M74703 66500 c3 -8 44 -107 92 -219 l86 -205 -5 -12 -5 -12 14 -6 13
-5 5 13 5 13 186 104 c101 57 183 105 181 107 -2 2 -79 -39 -172 -90 -92 -52
-177 -100 -189 -106 l-20 -11 -89 212 c-48 117 -93 217 -98 222 l-10 10 6 -15z"/>
<path d="M17520 66413 c-1 -5 -16 -102 -34 -218 -19 -115 -32 -212 -30 -214
11 -12 20 25 45 187 15 97 30 194 33 215 l6 37 -10 0 c-5 0 -10 -3 -10 -7z"/>
<path d="M97513 66144 c3 -11 22 -98 42 -194 20 -96 39 -183 42 -194 l5 -18 8
8 8 9 -42 199 -41 199 -14 5 -13 4 5 -18z"/>
<path d="M97462 66128 c2 -13 22 -107 44 -210 l39 -188 7 0 c5 0 8 6 8 13 0
13 -43 231 -70 355 l-12 52 -10 0 -10 0 4 -22z"/>
<path d="M41920 66052 c0 -5 51 -43 113 -84 61 -42 145 -99 185 -127 l72 -52
0 10 c0 5 -42 37 -92 72 -51 34 -129 88 -173 119 -44 31 -86 60 -92 64 l-13 7
0 -9z"/>
<path d="M47350 66042 c0 -4 -50 -93 -110 -196 -61 -104 -108 -191 -106 -193
2 -3 37 51 76 119 40 68 92 156 116 196 48 79 49 82 34 82 -5 0 -10 -4 -10 -8z"/>
<path d="M74856 66019 c-2 -8 -9 -90 -15 -184 -7 -93 -15 -201 -18 -240 l-6
-70 7 7 7 6 19 244 c17 222 18 275 6 237z"/>
<path d="M33821 65856 c2 -2 56 -26 121 -54 l116 -51 101 -29 101 -30 0 7 c0
4 -44 20 -97 35 l-96 27 -114 50 c-98 42 -147 59 -132 45z"/>
<path d="M76934 65783 c3 -42 6 -136 6 -210 l0 -133 10 0 10 0 0 133 c0 74 -3
168 -6 210 l-7 77 -10 0 -10 0 7 -77z"/>
<path d="M83701 65658 c9 -69 23 -98 89 -189 31 -41 62 -90 69 -107 8 -18 17
-32 22 -32 l9 0 -26 53 c-15 28 -46 77 -70 108 l-43 57 -21 51 -20 52 0 29 0
30 -8 0 -9 0 8 -52z"/>
<path d="M46952 65513 c-60 -93 -147 -230 -192 -305 l-82 -137 -47 19 c-25 10
-122 50 -215 89 -93 39 -172 71 -175 71 -21 0 41 -29 214 -100 110 -46 204
-87 210 -91 12 -12 25 -11 25 1 0 15 216 365 307 498 l84 122 -9 0 -10 0 -110
-167z"/>
<path d="M83650 65673 c0 -5 6 -31 14 -59 l13 -51 77 -113 c42 -62 76 -117 76
-121 0 -5 4 -9 10 -9 l9 0 -6 18 c-4 9 -40 67 -80 127 l-73 110 -12 53 -13 52
-7 0 c-5 0 -8 -3 -8 -7z"/>
<path d="M49860 65441 c0 -5 28 -28 63 -52 34 -23 192 -132 350 -242 159 -109
290 -197 293 -195 2 3 -123 93 -279 200 -155 108 -315 219 -354 247 l-73 52 0
-10z"/>
<path d="M37553 65390 c-23 -10 -117 -42 -209 -69 l-166 -51 -34 0 -33 0 -6
-10 -7 -11 54 6 c64 8 263 65 371 107 l77 31 0 8 c0 11 2 12 -47 -11z"/>
<path d="M42242 64903 c-72 -108 -129 -199 -127 -202 6 -6 -5 -22 144 202 72
108 127 197 123 197 -5 0 -68 -89 -140 -197z"/>
<path d="M91595 64741 c-93 -48 -184 -96 -202 -107 l-32 -20 8 -12 7 -11 59
35 c33 20 123 68 200 106 77 39 142 72 144 74 3 3 0 8 -5 14 l-9 9 -170 -88z"/>
<path d="M47806 64581 c14 -14 416 -183 421 -177 3 2 -4 9 -14 14 -30 16 -402
172 -410 172 l-7 0 10 -9z"/>
<path d="M40695 64505 c34 -91 85 -254 91 -290 l6 -45 9 6 9 5 312 -36 313
-36 120 -25 c66 -13 129 -27 140 -30 l20 -6 -10 10 -10 10 -120 25 -120 26
-327 37 -327 38 -7 40 c-8 52 -83 268 -97 281 l-10 10 8 -20z"/>
<path d="M74799 64519 c-1 -2 -9 -105 -18 -227 l-16 -224 8 -5 7 -4 0 38 c0
21 7 123 15 228 7 104 12 192 9 194 -2 2 -5 2 -5 0z"/>
<path d="M46647 64408 c-8 -13 -44 -75 -79 -138 l-66 -116 -47 -113 c-25 -62
-44 -115 -42 -118 3 -2 26 47 52 109 l47 113 63 110 c75 133 97 175 90 175 -2
0 -11 -10 -18 -22z"/>
<path d="M1597 64284 l-6 -6 162 -144 c145 -130 185 -161 175 -136 -3 9 -316
292 -322 292 -1 0 -5 -3 -9 -6z"/>
<path d="M70860 64275 c0 -6 37 -94 82 -197 l82 -188 8 0 8 0 -25 55 c-13 31
-50 115 -81 188 -31 72 -61 136 -65 142 l-9 9 0 -9z"/>
<path d="M77063 64093 c-7 -2 -13 -11 -13 -18 l0 -13 30 11 c17 6 30 15 30 19
l0 8 -17 -1 c-10 0 -24 -3 -30 -6z"/>
<path d="M74750 64042 l0 -8 488 -87 487 -88 280 -34 280 -35 130 -6 130 -6
128 11 128 11 42 29 c23 16 51 38 61 50 l19 21 -7 7 -6 7 -33 -30 c-17 -17
-45 -38 -60 -48 l-29 -18 -167 -8 -167 -8 -115 8 c-63 5 -242 25 -399 44
l-285 36 -440 80 c-242 44 -446 80 -453 80 -6 0 -12 -4 -12 -8z"/>
<path d="M33474 64032 l5 -9 138 -12 c76 -6 163 -14 193 -16 30 -2 71 -7 90
-10 l35 -6 -15 9 c-8 5 -52 14 -98 21 l-82 12 -10 -6 -9 -6 -93 11 c-51 6
-108 13 -126 16 l-34 5 6 -9z"/>
<path d="M46016 63824 c-65 -113 -116 -207 -114 -210 6 -6 239 397 236 408 -2
4 -56 -85 -122 -198z"/>
<path d="M78053 63987 l-203 -21 0 -14 0 -15 38 6 c20 3 121 14 225 23 l187
18 0 13 0 13 -22 -1 c-13 -1 -114 -11 -225 -22z"/>
<path d="M78523 63981 c-190 -24 -236 -33 -222 -45 3 -2 433 49 447 53 6 2 1
21 -5 20 -5 -1 -103 -13 -220 -28z"/>
<path d="M77277 63994 l-6 -6 32 -27 c18 -14 49 -34 69 -43 l37 -17 5 8 5 8
-39 18 c-22 10 -45 24 -52 32 -6 8 -19 18 -28 23 l-17 9 -6 -5z"/>
<path d="M40126 63874 l-6 -16 12 4 c6 2 14 10 16 16 l4 12 -10 0 c-5 0 -13
-7 -16 -16z"/>
<path d="M43513 63693 l-130 -199 -5 -27 -5 -27 8 -6 9 -5 0 25 0 26 131 200
c73 111 129 203 127 206 -3 2 -64 -84 -135 -193z"/>
<path d="M59588 63783 l-46 -87 -124 -53 -123 -53 22 0 22 0 106 46 105 47 46
84 c25 46 44 88 42 93 l-3 10 -47 -87z"/>
<path d="M51515 63760 c11 -4 104 -44 208 -88 103 -44 187 -77 187 -73 0 9
-381 171 -400 170 l-15 0 20 -9z"/>
<path d="M76725 63759 l-70 -8 -183 1 c-101 0 -185 -2 -188 -5 l-6 -6 37 -7
38 -7 206 6 c204 6 251 11 251 28 0 5 -3 8 -7 8 -5 -1 -39 -5 -78 -10z"/>
<path d="M41450 63743 l-24 -5 -78 -65 c-43 -36 -78 -67 -78 -69 0 -9 22 7 96
68 l71 58 39 0 39 0 49 -15 c27 -8 56 -15 65 -14 l16 1 -60 19 c-75 23 -103
28 -135 22z"/>
<path d="M2257 63694 l-6 -6 329 -289 c181 -159 332 -289 335 -289 3 0 5 4 5
9 0 7 -618 557 -645 573 l-12 7 -6 -5z"/>
<path d="M41710 63630 l0 -13 7 6 6 7 -6 7 -7 6 0 -13z"/>
<path d="M93010 63612 c0 -4 74 -81 165 -172 l164 -164 8 7 7 8 -164 164
c-154 154 -180 177 -180 157z"/>
<path d="M41760 63575 c0 -5 15 -25 34 -45 19 -19 77 -93 130 -164 l95 -128
233 -264 c127 -145 234 -261 237 -259 2 3 -7 18 -21 33 -14 15 -114 128 -222
251 l-198 224 -98 131 c-102 136 -189 238 -190 221z"/>
<path d="M41197 63494 c-80 -69 -95 -84 -83 -84 3 0 42 32 87 70 45 39 82 70
84 68 13 -18 221 -246 233 -255 9 -7 20 -13 25 -13 l9 0 -20 18 c-15 13 -142
153 -241 264 l-7 8 -87 -76z"/>
<path d="M40490 63495 l-13 -16 40 -42 c22 -23 105 -118 185 -212 80 -93 213
-245 296 -337 83 -92 206 -231 273 -308 67 -77 125 -140 129 -140 3 0 11 5 17
11 l12 12 -167 190 c-92 105 -244 276 -337 381 -94 105 -226 255 -293 334 -68
78 -125 142 -126 142 -2 0 -9 -7 -16 -15z"/>
<path d="M23556 63314 c-42 -87 -74 -159 -72 -162 3 -2 41 68 85 157 l81 161
-9 0 -9 0 -76 -156z"/>
<path d="M42650 63394 c0 -5 14 -23 31 -40 17 -16 74 -80 127 -141 52 -62 99
-113 104 -113 10 0 -94 124 -201 240 l-60 65 -1 -11z"/>
<path d="M16357 63315 l-17 -36 0 -39 0 -38 26 -31 26 -31 9 6 10 5 -26 31
-25 30 0 28 c0 15 7 44 15 63 17 42 18 47 7 47 -5 0 -16 -16 -25 -35z"/>
<path d="M49451 63174 c-57 -96 -102 -176 -99 -179 2 -2 42 59 88 137 47 78
95 159 108 180 l23 38 -8 0 c-4 0 -55 -79 -112 -176z"/>
<path d="M36839 63319 c0 -8 -19 -149 -43 -314 -39 -275 -43 -316 -32 -304 2
2 22 143 46 312 l42 308 -6 6 -6 6 -1 -14z"/>
<path d="M7040 63312 l0 -11 -17 -2 c-10 -1 -94 -3 -188 -4 -93 -1 -185 -3
-203 -3 l-33 -2 5 -9 5 -8 158 -5 c87 -2 176 -3 198 0 l41 4 24 18 25 19 -8 7
-7 7 0 -11z"/>
<path d="M41566 63181 l-6 -9 15 -6 15 -5 0 9 c0 5 -4 11 -9 15 l-10 5 -5 -9z"/>
<path d="M40907 63104 l-6 -6 17 -27 c21 -33 82 -108 82 -100 0 14 -44 105
-58 122 -16 18 -25 21 -35 11z"/>
<path d="M15077 63023 c-10 -10 -8 -56 3 -73 l10 -15 -2 48 c-1 26 -2 47 -3
47 -1 0 -5 -3 -8 -7z"/>
<path d="M17700 62939 l-285 -8 -325 -22 -325 -22 -10 -8 -9 -9 29 0 c17 0
147 9 290 20 l260 20 380 10 c209 5 383 10 388 10 4 0 7 5 7 10 l0 10 -57 -2
c-32 0 -186 -5 -343 -9z"/>
<path d="M58702 62905 c-19 -8 -134 -84 -257 -169 l-224 -154 -5 6 c-3 3 -6 9
-6 13 0 4 83 65 185 134 102 70 188 132 192 138 l6 10 -14 -8 c-8 -5 -99 -67
-202 -138 l-188 -129 -24 6 c-24 6 -164 69 -386 174 l-106 50 -6 23 -6 23 -7
-6 -6 -6 7 -22 7 -22 156 -75 c87 -41 200 -92 252 -114 52 -22 96 -41 97 -43
2 -2 -90 -79 -204 -172 -114 -92 -200 -165 -190 -161 10 4 108 79 218 168
l200 162 10 -10 10 -10 -211 -169 c-115 -93 -210 -173 -210 -178 l0 -9 18 15
c9 9 112 91 228 184 l212 169 203 139 c111 76 224 150 250 163 l47 25 367 -31
c202 -18 370 -30 372 -27 2 2 -17 7 -44 10 -73 9 -643 56 -678 56 l-30 -1 -33
-14z"/>
<path d="M16355 62891 c28 -5 118 -11 200 -14 l150 -4 -30 8 -29 8 -171 5
-170 5 50 -8z"/>
<path d="M3433 62848 c-28 -17 -44 -38 -28 -38 12 0 75 35 75 41 0 17 -16 15
-47 -3z"/>
<path d="M41312 62858 l-10 -13 14 -19 c8 -11 14 -28 14 -38 l0 -18 16 0 16 0
-7 38 -6 37 -13 13 -13 13 -11 -13z"/>
<path d="M41013 62839 c3 -10 11 -35 18 -58 7 -23 18 -46 26 -53 l13 -11 6 6
5 5 -12 41 -12 40 -25 23 -25 23 6 -16z"/>
<path d="M12530 62800 l-45 -8 165 6 c91 2 167 6 169 8 8 7 -243 1 -289 -6z"/>
<path d="M21801 62796 c9 -9 443 -156 447 -151 6 6 17 2 -233 85 -209 70 -222
74 -214 66z"/>
<path d="M89139 62721 c-68 -81 -199 -255 -199 -264 0 -4 6 -7 13 -7 l12 1 75
102 c41 56 99 129 127 163 l53 62 -13 5 -13 5 -55 -67z"/>
<path d="M10227 62745 c-11 -27 -8 -32 8 -11 l14 18 223 -17 223 -16 188 7
188 7 3 6 4 6 -281 0 -282 0 -141 9 -141 8 -6 -17z"/>
<path d="M11095 62720 l-18 -20 -246 0 -246 0 -157 12 c-87 6 -160 9 -162 7
-9 -8 -127 -441 -122 -446 5 -5 3 -14 71 231 30 110 57 201 59 203 2 2 93 -3
202 -12 l199 -16 204 7 203 7 27 23 26 23 -11 1 c-6 0 -19 -9 -29 -20z"/>
<path d="M42449 62661 l-54 -49 6 -6 5 -6 54 55 c67 68 62 71 -11 6z"/>
<path d="M44081 62642 c2 -5 66 -78 141 -161 l137 -150 5 7 4 7 -136 150 c-74
83 -140 152 -145 154 l-9 4 3 -11z"/>
<path d="M42145 62449 c-229 -196 -245 -213 -245 -238 l1 -16 14 26 14 26 221
188 c121 103 220 191 220 196 0 5 -1 9 -2 8 -2 0 -102 -86 -223 -190z"/>
<path d="M44060 62617 c0 -5 140 -168 311 -363 l311 -354 11 0 12 0 -11 8 c-5
4 -138 153 -293 332 -304 348 -341 389 -341 377z"/>
<path d="M3320 62580 l0 -20 30 -47 29 -48 46 -28 45 -29 62 -5 61 -6 -6 10
-7 10 -49 7 -49 6 -41 28 -41 28 -25 37 -25 36 0 20 0 21 -15 0 -15 0 0 -20z"/>
<path d="M58660 62441 c0 -6 363 -168 425 -190 l10 -3 -10 10 c-14 15 -425
191 -425 183z"/>
<path d="M89022 62421 c2 -5 81 -75 176 -156 l174 -146 11 4 11 3 -180 152
c-98 84 -183 152 -187 152 l-9 0 4 -9z"/>
<path d="M58650 62402 c0 -6 94 -49 363 -167 l57 -25 0 8 c0 4 -44 26 -98 49
-53 23 -148 64 -209 92 -62 27 -113 47 -113 43z"/>
<path d="M89015 62351 c17 -16 97 -86 179 -155 l149 -125 9 5 c5 3 8 7 6 9
-120 105 -352 295 -361 295 l-12 0 30 -29z"/>
<path d="M23007 62150 c-59 -116 -104 -210 -100 -210 4 0 57 95 116 210 59
116 104 210 100 210 -4 0 -57 -95 -116 -210z"/>
<path d="M56535 62229 c-71 -66 -165 -148 -208 -183 l-79 -64 -74 -31 -75 -32
-582 -144 c-320 -79 -635 -159 -700 -176 l-118 -32 4 -16 3 -16 10 2 c5 1 77
19 159 41 83 22 393 100 690 172 l540 132 75 31 c101 42 127 62 332 254 l178
166 -6 8 c-3 5 -8 9 -12 9 -4 0 -65 -54 -137 -121z"/>
<path d="M94411 62248 c-19 -51 -49 -123 -67 -160 -35 -69 -40 -88 -26 -88 17
0 142 288 142 326 0 8 -4 14 -8 14 l-8 0 -33 -92z"/>
<path d="M39351 62315 c3 -2 109 -20 236 -39 l232 -36 41 -16 41 -17 99 -112
c54 -63 117 -130 139 -150 l41 -37 0 10 c0 6 -12 20 -27 31 -16 11 -75 76
-133 144 l-105 125 -40 16 -40 16 -229 35 c-227 35 -264 39 -255 30z"/>
<path d="M91500 62204 l35 -40 123 -63 124 -63 34 -30 34 -30 0 9 c0 5 -12 21
-27 35 l-28 26 -124 63 -125 63 -40 35 -41 36 35 -41z"/>
<path d="M48315 62174 c-53 -82 -185 -307 -182 -311 3 -2 50 71 106 163 56 92
100 169 98 171 -3 2 -12 -8 -22 -23z"/>
<path d="M98754 62155 c-18 -44 -18 -64 1 -130 l16 -53 62 -113 62 -112 14 -5
14 -5 -66 124 -65 124 -17 58 -17 58 10 27 c6 15 13 35 17 45 l7 17 -11 0 -12
0 -15 -35z"/>
<path d="M63163 62010 c3 -14 20 -97 37 -184 18 -88 36 -169 40 -180 l9 -21 0
15 c1 8 -15 96 -36 195 l-36 180 -10 10 -10 10 6 -25z"/>
<path d="M16519 61905 c68 -36 126 -64 128 -61 6 6 -221 126 -238 126 -8 0 42
-30 110 -65z"/>
<path d="M40097 61872 c-23 -22 -70 -55 -105 -76 l-64 -36 -76 -20 c-42 -11
-130 -29 -196 -40 l-119 -20 -91 -1 c-50 0 -113 -4 -141 -9 l-50 -8 160 5 160
5 135 24 c157 28 215 46 288 87 l54 30 51 48 c29 27 49 48 44 49 -4 0 -26 -17
-50 -38z"/>
<path d="M57331 61896 c4 -4 716 -316 1244 -546 149 -65 332 -145 409 -179 76
-34 141 -60 143 -57 3 3 -10 11 -28 19 -62 26 -303 134 -384 172 -44 20 -219
97 -390 170 -170 73 -460 199 -644 279 -292 128 -367 158 -350 142z"/>
<path d="M59851 61809 c-33 -39 -100 -128 -148 -197 -47 -70 -88 -129 -89
-131 -2 -2 -209 85 -461 193 l-458 196 -117 0 -117 0 -4 -7 -5 -8 116 3 117 4
460 -197 c253 -109 461 -199 463 -200 2 -2 -4 -20 -13 -41 -9 -22 -31 -106
-50 -189 l-33 -150 -6 -85 -5 -85 8 15 c5 8 11 51 14 95 l6 80 26 115 c14 63
35 143 46 178 l21 62 9 0 10 0 -6 10 -6 10 92 133 c51 72 117 160 147 195 30
34 53 65 50 67 -3 3 -33 -27 -67 -66z"/>
<path d="M14521 61866 c16 -17 292 -69 422 -80 l57 -5 0 10 0 9 -53 0 -53 0
-139 25 c-77 14 -156 29 -175 35 -36 10 -67 13 -59 6z"/>
<path d="M43661 61664 c-210 -187 -255 -230 -218 -208 18 12 457 404 457 409
0 12 -21 -6 -239 -201z"/>
<path d="M59868 61767 l-77 -92 -77 -120 -77 -120 -19 -65 c-10 -36 -32 -130
-48 -209 l-30 -144 1 -51 2 -51 9 65 c16 111 57 309 78 380 l20 67 85 132 85
132 65 75 c54 61 77 97 63 93 -2 0 -38 -41 -80 -92z"/>
<path d="M16588 61693 c-69 -144 -106 -239 -95 -249 2 -2 12 22 21 54 10 31
52 123 92 205 l74 147 -8 0 c-4 0 -42 -71 -84 -157z"/>
<path d="M10016 61809 c-3 -13 -8 -91 -11 -174 -3 -82 -8 -175 -10 -205 l-5
-55 9 20 9 20 11 205 c9 193 8 243 -3 189z"/>
<path d="M61761 61779 c-101 -21 -187 -41 -189 -44 -16 -16 25 -10 211 28
l207 42 0 8 0 7 -22 -1 c-13 0 -106 -18 -207 -40z"/>
<path d="M21473 61791 c-45 -3 -84 -9 -87 -12 l-6 -6 102 5 103 4 123 -37 c68
-20 126 -34 129 -32 2 3 -35 17 -84 32 -48 15 -108 33 -133 41 -25 8 -49 13
-55 12 -5 -1 -47 -4 -92 -7z"/>
<path d="M60290 61734 c0 -3 34 -21 76 -40 136 -62 214 -93 214 -86 0 4 -57
32 -127 62 -157 68 -163 71 -163 64z"/>
<path d="M89645 61539 c-44 -99 -82 -186 -84 -192 l-3 -12 9 10 c9 9 44 83
149 323 l24 52 -8 0 c-4 0 -43 -82 -87 -181z"/>
<path d="M38780 61703 l0 -8 128 -34 127 -35 115 -3 115 -3 -20 9 -20 10 -87
0 -87 1 -130 35 c-141 38 -141 38 -141 28z"/>
<path d="M61550 61695 c0 -10 89 -423 96 -448 3 -10 8 -17 10 -14 5 5 -93 457
-101 465 -3 3 -5 2 -5 -3z"/>
<path d="M60670 61610 c0 -5 5 -10 10 -10 6 0 10 5 10 10 0 6 -4 10 -10 10 -5
0 -10 -4 -10 -10z"/>
<path d="M60563 61557 c-4 -7 -33 -33 -63 -58 -30 -25 -133 -125 -229 -222
l-175 -177 15 0 14 0 185 184 c102 101 207 204 234 228 l49 45 -11 7 -11 6 -8
-13z"/>
<path d="M60522 61410 l-83 -48 9 -6 9 -5 49 26 c63 33 124 72 124 78 0 13
-32 0 -108 -45z"/>
<path d="M60691 61370 c-1 -9 23 -136 53 -283 29 -147 50 -267 47 -267 -3 0
-44 -11 -91 -23 l-85 -22 -103 -59 c-57 -32 -101 -60 -99 -62 3 -3 51 21 107
52 l102 58 86 22 85 23 9 -5 8 -5 0 11 c0 15 -109 551 -114 565 l-4 10 -1 -15z"/>
<path d="M49020 61360 c8 -5 20 -10 25 -10 l10 0 -15 10 c-8 5 -19 10 -25 10
l-10 0 15 -10z"/>
<path d="M54511 61365 c0 -5 49 -221 108 -480 60 -258 110 -461 110 -450 1 11
-44 218 -99 460 -90 393 -118 502 -119 470z"/>
<path d="M49070 61341 c8 -5 168 -75 355 -156 l340 -147 18 -22 c10 -11 22
-30 27 -41 l9 -20 0 20 0 20 -22 27 -22 26 -280 122 c-154 67 -313 135 -353
151 -71 28 -102 37 -72 20z"/>
<path d="M61240 61147 c0 -4 25 -123 55 -264 50 -233 66 -293 65 -252 -1 24
-108 510 -114 517 l-6 5 0 -6z"/>
<path d="M53270 61084 c-52 -13 -239 -53 -415 -89 -335 -69 -350 -73 -344 -80
12 -11 834 168 854 186 5 5 7 9 5 8 -3 0 -48 -12 -100 -25z"/>
<path d="M44217 60717 c16 -27 676 -737 680 -733 5 5 -674 746 -683 746 -3 0
-1 -6 3 -13z"/>
<path d="M78233 60549 l-12 -12 -76 -13 -76 -13 -24 9 -24 9 -35 -6 -36 -6 6
-8 c3 -5 14 -9 24 -9 l20 0 -12 -24 -11 -25 83 -330 82 -331 10 0 9 0 -5 18
c-3 9 -39 156 -81 327 l-75 310 11 28 12 28 18 -6 19 -6 76 12 77 12 26 23 26
23 -10 1 c-6 0 -16 -5 -22 -11z"/>
<path d="M55634 60499 l-5 -9 17 0 c9 0 111 -25 226 -56 115 -30 215 -53 221
-51 l11 3 -64 17 c-36 9 -140 37 -232 61 l-168 44 -6 -9z"/>
<path d="M57310 60456 c0 -3 13 -40 29 -84 26 -70 48 -165 43 -184 l-2 -7 14
5 13 5 -13 62 c-7 34 -25 95 -40 135 l-26 72 -9 0 c-5 0 -9 -2 -9 -4z"/>
<path d="M59867 60247 c-92 -77 -165 -142 -162 -145 2 -2 73 53 157 123 182
153 183 153 177 159 -2 2 -79 -59 -172 -137z"/>
<path d="M59895 60220 c-147 -125 -192 -168 -152 -144 19 13 327 275 327 280
0 10 -19 -4 -175 -136z"/>
<path d="M62570 60314 c-91 -19 -279 -57 -419 -86 -140 -28 -249 -54 -243 -56
13 -4 807 155 837 168 l20 9 -15 -1 c-8 0 -89 -15 -180 -34z"/>
<path d="M48574 60262 c3 -6 86 -72 184 -148 97 -75 180 -140 184 -143 l7 -6
-120 -159 c-65 -88 -117 -162 -114 -164 3 -3 7 -3 8 -1 2 2 52 69 112 149 59
80 115 151 123 158 l16 12 -10 8 c-19 17 -370 288 -383 296 l-14 9 7 -11z"/>
<path d="M61440 60125 c-460 -96 -454 -94 -448 -101 4 -4 868 171 893 180 43
18 -99 -8 -445 -79z"/>
<path d="M57455 60180 l-90 -17 16 -7 17 -7 82 15 c45 9 84 16 87 16 2 0 1 5
-2 10 -3 6 -9 10 -13 9 -4 -1 -47 -9 -97 -19z"/>
<path d="M46095 59958 l-220 -222 160 151 c198 187 303 293 290 293 -6 0 -109
-100 -230 -222z"/>
<path d="M57280 60123 c0 -27 -7 -84 -15 -127 -14 -71 -14 -98 0 -85 9 10 35
165 35 212 l0 47 -10 0 -10 0 0 -47z"/>
<path d="M46125 59936 l-220 -214 5 -5 6 -6 219 219 c121 121 217 220 215 220
-3 0 -105 -96 -225 -214z"/>
<path d="M61427 60093 l-5 -9 75 -372 c42 -204 74 -374 72 -377 -3 -2 -95 -23
-205 -46 l-199 -41 -10 -10 -10 -10 20 5 c11 3 107 24 213 47 l193 40 9 -5 8
-5 4 8 3 8 210 43 c116 24 219 48 230 52 l20 8 -12 0 c-7 1 -107 -19 -223 -44
-116 -25 -216 -45 -223 -45 l-13 0 -28 148 c-50 263 -118 607 -121 610 -2 2
-5 0 -8 -5z"/>
<path d="M61203 60036 l-191 -41 -9 -9 -8 -9 15 5 c8 3 102 22 208 44 l192 39
0 7 c0 10 22 14 -207 -36z"/>
<path d="M62852 59958 c3 -13 22 -103 43 -201 l39 -177 8 8 9 9 -42 191 -42
192 -10 0 -9 0 4 -22z"/>
<path d="M91090 59935 c0 -6 30 -44 67 -85 52 -60 120 -143 220 -269 2 -2 5
-2 7 0 8 7 -171 230 -276 344 l-18 19 0 -9z"/>
<path d="M58810 59913 c0 -6 32 -80 71 -164 39 -85 106 -239 150 -343 78 -185
98 -229 99 -213 0 19 -299 710 -316 726 -2 2 -4 0 -4 -6z"/>
<path d="M63661 59825 c-1 -11 19 -110 44 -220 46 -200 177 -836 385 -1870 61
-302 156 -760 211 -1016 54 -256 99 -469 99 -474 l0 -7 14 5 14 5 21 -14 21
-15 0 -33 0 -33 -18 -16 -19 -17 -29 0 -30 0 -10 10 -10 10 -262 -52 c-144
-29 -262 -55 -262 -59 0 -3 116 17 258 46 l259 51 20 -13 20 -13 31 6 31 6 21
23 22 24 -9 38 -9 38 -29 15 c-17 8 -31 15 -32 16 -7 1 -189 871 -373 1779
-266 1314 -356 1744 -375 1790 l-3 10 -1 -20z"/>
<path d="M59225 59699 c-71 -55 -149 -111 -173 -126 -44 -26 -52 -44 -10 -22
25 13 328 240 328 246 0 11 -28 -8 -145 -98z"/>
<path d="M61990 59795 c0 -24 150 -699 166 -744 2 -8 6 -12 9 -10 2 2 -14 81
-36 174 -22 94 -58 263 -81 378 l-41 207 -8 0 c-5 0 -9 -2 -9 -5z"/>
<path d="M49290 59706 c0 -3 65 -55 145 -117 80 -61 144 -115 143 -118 -2 -3
-72 -98 -156 -209 -85 -112 -152 -206 -149 -208 2 -2 73 88 158 200 l154 205
13 1 12 0 -2 12 c-2 7 -14 18 -26 25 -13 7 -82 58 -152 113 -120 93 -140 107
-140 96z"/>
<path d="M62960 59610 l0 -13 7 6 6 7 -6 7 -7 6 0 -13z"/>
<path d="M15395 59488 c-208 -132 -200 -126 -194 -132 2 -2 87 50 189 115 102
65 190 120 195 122 6 2 8 7 5 10 l-5 6 -190 -121z"/>
<path d="M62700 59570 c-238 -48 -581 -120 -599 -126 -8 -2 -12 -7 -9 -9 2 -3
99 15 214 39 115 24 300 61 412 82 l202 38 0 8 0 8 -17 -1 c-10 -1 -101 -18
-203 -39z"/>
<path d="M62765 59539 c-77 -16 -164 -34 -193 -40 -30 -6 -52 -13 -49 -15 2
-3 93 12 201 33 l196 37 0 8 c0 10 12 12 -155 -23z"/>
<path d="M83629 59448 c32 -57 82 -145 111 -196 28 -51 54 -91 57 -89 6 7
-210 387 -219 387 -4 0 19 -46 51 -102z"/>
<path d="M22488 59403 l-94 -98 -32 -68 -32 -67 1 -28 0 -27 13 40 c7 22 24
62 36 89 l24 50 99 103 c55 57 95 103 90 103 -6 0 -53 -44 -105 -97z"/>
<path d="M47130 59496 c0 -3 -11 -55 -25 -118 l-24 -113 -36 -89 c-41 -104
-39 -96 -21 -96 l14 0 36 90 36 90 25 116 c30 137 29 124 10 124 -8 0 -15 -2
-15 -4z"/>
<path d="M49297 59028 c-179 -238 -324 -434 -321 -437 5 -6 -36 -59 334 432
177 236 320 431 317 433 -2 3 -151 -190 -330 -428z"/>
<path d="M63721 59368 c-1 -16 75 -397 85 -427 2 -8 6 -12 9 -10 3 4 -80 422
-89 444 l-4 10 -1 -17z"/>
<path d="M59925 59336 c-88 -18 -296 -59 -462 -91 l-303 -59 8 -8 7 -7 470 94
c259 52 475 97 480 99 l10 4 -25 0 c-14 0 -97 -15 -185 -32z"/>
<path d="M59388 59271 l-227 -46 -8 -9 -8 -9 23 6 c12 3 118 24 235 48 117 23
216 46 222 51 l9 8 -9 -1 c-6 -1 -112 -22 -237 -48z"/>
<path d="M61627 59313 c-5 -10 137 -751 147 -760 l6 -6 0 18 c0 21 -140 748
-145 753 -2 2 -5 0 -8 -5z"/>
<path d="M61395 59254 l-200 -43 -12 4 -12 4 -7 -11 -7 -10 10 -7 9 -6 74
-358 73 -358 -11 -11 -11 -11 -5 14 c-3 8 -19 84 -36 169 -17 85 -35 164 -41
175 l-9 20 3 -25 c2 -14 19 -98 38 -187 18 -89 31 -164 29 -166 -3 -2 -187
-41 -410 -87 l-404 -83 -50 -2 -51 -3 -150 55 c-82 30 -168 62 -190 69 l-40
15 10 -10 c6 -5 96 -41 200 -80 l190 -69 11 9 12 10 23 -11 24 -11 2 -27 1
-27 -15 -17 -15 -17 -16 6 c-10 3 -25 13 -34 21 l-18 15 10 12 10 12 -7 6 c-3
4 -14 7 -23 7 -9 0 -95 29 -190 65 -96 35 -176 62 -178 60 -5 -5 31 -20 211
-86 l149 -54 13 -31 13 -32 32 -7 32 -7 24 23 24 22 0 17 0 17 188 38 c103 20
194 41 202 46 23 13 13 11 -190 -31 -105 -22 -195 -40 -201 -40 l-9 0 0 13 0
13 405 84 c223 46 407 81 410 78 3 -3 24 -90 46 -194 36 -169 49 -219 49 -186
0 6 -18 95 -40 198 l-39 187 5 8 c3 5 9 9 15 9 l9 0 0 -15 0 -15 10 0 c23 0
423 104 413 107 -8 3 -319 -70 -395 -93 l-18 -5 0 14 0 14 207 53 c113 30 201
56 195 58 -6 2 -99 -20 -207 -48 -108 -28 -198 -50 -199 -48 -7 9 -148 719
-144 723 3 3 98 24 211 47 l207 43 0 8 c0 9 22 13 -215 -39z"/>
<path d="M91670 59214 c0 -5 17 -26 38 -46 51 -51 265 -218 271 -212 2 2 2 5
0 7 -2 2 -49 39 -104 82 -55 43 -124 101 -152 128 l-53 51 0 -10z"/>
<path d="M63020 59188 c0 -7 16 -93 37 -191 l37 -177 8 8 8 8 -37 182 -38 182
-7 0 c-5 0 -8 -6 -8 -12z"/>
<path d="M59140 59184 c0 -5 16 -61 35 -124 20 -63 47 -152 61 -198 14 -46 28
-81 31 -79 4 5 -113 397 -122 406 -3 2 -5 0 -5 -5z"/>
<path d="M49775 58713 c-170 -223 -314 -413 -319 -422 l-9 -16 21 20 c27 26
612 794 619 811 3 8 4 14 2 14 -2 0 -143 -183 -314 -407z"/>
<path d="M51140 58666 l0 -15 103 -74 c56 -40 119 -84 139 -96 l36 -22 7 11
c4 6 5 12 4 14 -2 1 -29 17 -59 36 -30 18 -89 58 -130 90 -41 31 -81 60 -87
64 l-13 7 0 -15z"/>
<path d="M63900 58473 c0 -5 27 -137 61 -294 33 -156 87 -426 120 -599 33
-173 110 -544 170 -824 l110 -509 -16 -17 c-8 -9 -15 -23 -15 -31 l0 -14 24
30 c13 16 22 33 20 36 -8 14 -209 967 -269 1279 -37 189 -95 479 -131 644 -57
265 -74 334 -74 299z"/>
<path d="M63270 58396 c0 -24 88 -437 94 -443 16 -16 11 18 -32 230 l-47 227
-7 0 c-5 0 -8 -6 -8 -14z"/>
<path d="M55900 58352 l0 -8 68 -17 c148 -37 412 -108 505 -136 l97 -29 0 7
c0 8 -258 85 -486 146 -187 49 -184 49 -184 37z"/>
<path d="M49370 58150 c-52 -65 -96 -124 -99 -132 l-3 -13 9 10 c9 10 177 217
196 243 l9 12 -8 -1 c-5 0 -52 -54 -104 -119z"/>
<path d="M51270 57996 l-105 -83 -48 -52 -47 -53 0 -15 0 -15 8 4 c5 2 32 30
62 62 l53 60 96 75 c53 41 98 76 100 78 3 2 0 8 -5 13 l-9 9 -105 -83z"/>
<path d="M16830 57983 l-13 -28 -5 -71 -4 -71 27 -69 c15 -38 52 -112 83 -164
l56 -94 94 -121 c52 -66 98 -124 103 -129 l9 -10 6 7 6 6 -99 128 -100 128
-55 95 c-31 52 -68 124 -82 159 l-26 64 0 54 0 54 15 36 c8 19 15 39 15 44 0
19 -17 8 -30 -18z"/>
<path d="M55710 57774 c-228 -29 -421 -53 -429 -54 l-14 0 6 -6 6 -6 428 52
428 53 10 9 9 8 -14 -1 c-8 -1 -202 -25 -430 -55z"/>
<path d="M61675 57727 c-190 -40 -202 -44 -194 -51 4 -4 403 79 424 88 l10 4
-25 0 c-14 0 -110 -19 -215 -41z"/>
<path d="M46539 57603 c12 -23 29 -38 37 -31 2 3 -8 15 -22 29 l-27 24 12 -22z"/>
<path d="M80820 57575 c-140 -37 -326 -127 -485 -234 l-80 -54 -104 -96 -104
-96 -172 -190 c-255 -282 -339 -357 -472 -424 l-63 -31 0 -10 c0 -16 17 -12
83 21 132 67 226 151 467 420 l158 176 109 101 108 101 85 58 c103 72 209 130
329 182 l90 39 75 18 76 18 0 13 c0 16 4 16 -100 -12z"/>
<path d="M50370 57431 c0 -4 48 -22 108 -40 l107 -33 55 -59 c72 -77 87 -77
20 1 l-52 59 -42 15 c-22 9 -76 27 -118 40 l-78 24 0 -7z"/>
<path d="M76165 57419 l-140 -9 -65 -14 -65 -14 20 -1 c11 0 61 6 110 14 l90
15 98 0 97 0 0 10 c0 6 -1 9 -2 8 -2 0 -66 -5 -143 -9z"/>
<path d="M35426 57201 c43 -42 350 -291 358 -291 l11 0 -35 29 c-19 15 -100
83 -180 150 -80 66 -149 121 -154 121 l-10 0 10 -9z"/>
<path d="M36290 56769 c-80 -77 -133 -132 -119 -122 42 30 284 263 273 263 -5
0 -75 -63 -154 -141z"/>
<path d="M82935 56554 c-115 -29 -212 -53 -215 -54 -3 0 0 -4 7 -8 l11 -7 48
-203 c26 -111 51 -202 54 -202 4 0 -15 93 -42 206 -27 114 -47 208 -46 209 2
1 91 24 198 50 107 26 197 50 199 51 15 13 -28 5 -214 -42z"/>
<path d="M47600 56502 c0 -5 30 -36 68 -69 l67 -60 128 -72 c71 -40 131 -71
133 -68 3 2 -53 37 -123 76 l-128 72 -72 65 c-40 36 -73 61 -73 56z"/>
<path d="M82699 56505 c-5 -4 90 -424 98 -434 13 -17 4 31 -41 222 -29 120
-54 215 -57 212z"/>
<path d="M56021 56458 c-5 -13 -28 -84 -51 -158 l-42 -135 -35 -60 c-19 -33
-66 -97 -104 -142 l-69 -82 9 -5 9 -6 76 91 76 90 34 72 35 72 45 143 44 142
-9 0 c-5 0 -13 -10 -18 -22z"/>
<path d="M47620 56418 c66 -61 187 -142 288 -192 l74 -37 -7 11 c-3 6 -34 24
-67 41 -89 45 -215 129 -274 182 -29 26 -56 47 -60 47 -5 -1 16 -24 46 -52z"/>
<path d="M17060 56379 l-175 -59 -240 -61 c-236 -60 -252 -65 -244 -73 13 -14
814 220 844 246 l9 8 -9 -1 c-6 0 -89 -27 -185 -60z"/>
<path d="M26461 56436 c17 -15 341 -177 349 -174 l9 3 -168 88 c-93 48 -174
87 -181 87 -7 0 -11 -2 -9 -4z"/>
<path d="M55441 56234 c0 -5 51 -51 112 -102 62 -51 133 -111 160 -134 26 -23
49 -39 51 -37 5 6 -188 174 -307 268 l-17 13 1 -8z"/>
<path d="M63794 56048 l-1 -32 -27 -23 c-15 -13 -34 -23 -42 -23 l-14 0 0 -11
0 -11 28 7 c37 9 59 31 72 71 l11 34 -6 10 c-3 5 -9 10 -13 10 l-7 0 -1 -32z"/>
<path d="M4015 56059 c-77 -5 -147 -11 -155 -13 -21 -7 288 4 385 14 l80 7
-85 0 c-47 0 -148 -4 -225 -8z"/>
<path d="M86013 55971 c-100 -53 -180 -97 -178 -99 3 -3 351 173 364 185 2 1
2 5 0 6 -2 2 -86 -39 -186 -92z"/>
<path d="M62756 55901 l-270 -57 -3 -11 -4 -10 183 38 c101 21 221 46 268 55
78 15 111 28 99 37 -2 2 -125 -21 -273 -52z"/>
<path d="M63062 55910 l0 -25 5 13 c2 6 2 18 0 25 l-5 12 0 -25z"/>
<path d="M63020 55900 l0 -20 9 0 9 0 -5 20 c-3 11 -7 20 -9 20 -2 0 -4 -9 -4
-20z"/>
<path d="M37740 55712 l-23 -199 -22 -25 c-12 -14 -28 -28 -36 -31 l-14 -5 20
-1 20 0 21 27 21 27 22 185 c12 102 24 193 26 203 l3 17 -8 0 -7 0 -23 -198z"/>
<path d="M62758 55806 c-228 -48 -269 -59 -257 -70 2 -2 127 21 277 52 l272
56 0 8 0 8 -22 -1 c-13 -1 -134 -25 -270 -53z"/>
<path d="M61858 55743 l-18 -4 0 -11 0 -10 26 6 26 7 14 -12 14 -12 8 7 7 8
-19 14 c-20 14 -28 15 -58 7z"/>
<path d="M51160 55528 c-179 -205 -207 -238 -197 -238 5 0 277 307 375 423
l15 17 -9 -1 c-5 0 -88 -90 -184 -201z"/>
<path d="M25990 55663 c0 -4 96 -77 213 -160 182 -131 246 -175 315 -217 l12
-7 0 8 c0 4 -18 18 -39 30 -32 19 -137 92 -448 317 -29 21 -53 34 -53 29z"/>
<path d="M60610 55550 l-45 -6 155 4 c85 3 157 6 159 8 7 7 -221 1 -269 -6z"/>
<path d="M61871 55534 c-1 -23 56 -381 64 -403 3 -8 8 -12 11 -9 6 7 -54 387
-66 413 l-9 20 0 -21z"/>
<path d="M52780 55492 c0 -4 51 -31 113 -59 61 -29 157 -74 212 -100 55 -26
105 -49 110 -52 l10 -3 -15 14 c-8 8 -60 35 -115 61 -55 25 -148 68 -207 96
-60 27 -108 47 -108 43z"/>
<path d="M49402 55388 c-7 -7 -112 -63 -235 -125 -122 -61 -218 -112 -214
-113 15 0 431 208 457 229 l25 21 -10 0 c-6 0 -16 -5 -23 -12z"/>
<path d="M48690 55079 c-255 -125 -256 -126 -248 -134 4 -4 485 229 497 241
23 23 -42 -5 -249 -107z"/>
<path d="M36882 55065 l-52 -24 -58 -10 c-31 -6 -104 -11 -162 -13 l-105 -3
-17 9 -18 8 0 -10 0 -11 34 -6 34 -7 134 10 133 10 68 28 c37 15 67 31 67 36
0 11 3 11 -58 -17z"/>
<path d="M31355 55070 l-130 -6 -25 -13 c-34 -18 -70 -52 -82 -76 l-9 -20 30
32 c16 17 44 39 61 48 l31 16 140 6 139 6 0 9 0 8 -12 -2 c-7 -1 -71 -4 -143
-8z"/>
<path d="M45700 55033 c0 -4 25 -28 55 -52 l55 -44 7 -25 6 -24 -13 -120 -12
-119 6 -6 6 -6 0 19 c1 10 7 69 14 129 l13 110 -5 20 -4 20 -27 23 c-60 53
-101 83 -101 75z"/>
<path d="M52125 54742 l-140 -216 -123 -158 c-68 -87 -128 -160 -133 -163 l-9
-6 -103 83 c-104 86 -127 103 -127 94 0 -2 50 -45 110 -96 61 -50 110 -95 110
-100 l0 -10 13 0 13 0 103 -86 c57 -47 105 -83 108 -81 2 3 -43 45 -101 93
l-107 87 3 8 c2 4 57 77 123 161 l121 153 133 205 c74 113 141 215 149 228
l14 22 -8 0 c-5 -1 -72 -98 -149 -218z"/>
<path d="M53202 54904 c-15 -26 -140 -218 -277 -428 -287 -436 -268 -406 -261
-406 6 0 484 717 553 829 l32 51 -10 0 c-5 0 -22 -21 -37 -46z"/>
<path d="M53285 54930 c4 -14 9 -32 11 -41 l5 -16 -140 -211 -141 -212 -10 0
-10 0 0 -14 c0 -7 -99 -163 -221 -346 l-220 -333 -38 -76 c-21 -42 -44 -94
-51 -116 -7 -22 -17 -46 -23 -52 l-9 -13 10 0 c15 0 28 20 42 65 7 22 28 71
47 108 l34 68 224 340 c123 186 226 339 229 339 3 0 110 -68 237 -151 127 -83
239 -153 248 -156 l16 -6 -15 16 c-8 8 -116 81 -240 162 l-225 146 -3 13 -3
12 141 212 140 213 -21 37 -20 37 6 -25z"/>
<path d="M52345 54880 c3 -5 10 -10 15 -10 5 0 68 -41 140 -91 72 -50 133 -89
136 -86 3 3 -14 18 -38 35 -198 135 -240 162 -249 162 l-10 0 6 -10z"/>
<path d="M88670 54643 c-168 -90 -353 -189 -413 -220 l-108 -55 -12 10 c-6 5
-26 13 -44 17 l-32 6 -21 -11 -22 -12 7 -6 c3 -3 23 -5 44 -3 l38 2 16 -15 c9
-9 18 -16 22 -16 3 0 65 33 138 74 73 40 256 140 407 221 151 81 279 151 284
156 34 31 -35 -2 -304 -148z"/>
<path d="M54115 54778 c-13 -39 -35 -142 -31 -145 6 -6 24 52 35 110 8 43 6
64 -4 35z"/>
<path d="M47898 54689 c-87 -44 -158 -81 -158 -83 0 -6 116 47 230 104 92 46
95 48 89 54 -2 2 -75 -32 -161 -75z"/>
<path d="M62070 54651 c0 -20 190 -934 195 -940 10 -9 3 26 -90 480 -86 416
-105 500 -105 460z"/>
<path d="M18271 54624 c-90 -13 -166 -26 -169 -29 -3 -3 1 -5 9 -5 27 0 373
51 378 55 8 9 -53 3 -218 -21z"/>
<path d="M49968 54492 c-98 -48 -178 -90 -178 -94 0 -7 348 158 365 174 l9 8
-9 -1 c-6 0 -90 -40 -187 -87z"/>
<path d="M50190 54573 c0 -12 38 -48 45 -41 3 2 -6 15 -20 28 l-25 23 0 -10z"/>
<path d="M50121 54533 c-1 -7 4 -44 11 -83 l12 -70 26 -24 25 -23 48 -16 47
-16 0 8 0 8 -45 13 -46 13 -23 28 -24 28 -7 53 c-4 29 -11 62 -16 73 l-8 20 0
-12z"/>
<path d="M52996 54495 c10 -8 24 -14 29 -14 l10 0 -19 14 c-11 8 -24 15 -30
15 l-10 0 20 -15z"/>
<path d="M50225 54480 l-6 -20 46 -64 47 -64 127 -108 126 -109 119 -72 c65
-39 129 -82 142 -94 13 -12 26 -20 29 -17 10 9 -52 56 -169 127 l-118 72 -123
106 -124 106 -43 60 -43 59 3 19 c4 25 -5 24 -13 -1z"/>
<path d="M53615 54304 c-58 -86 -104 -158 -101 -161 2 -3 33 37 67 89 35 51
84 123 111 161 l48 67 -9 0 c-5 0 -57 -70 -116 -156z"/>
<path d="M48711 54425 c-1 -5 31 -76 71 -158 l72 -149 4 10 3 10 -75 149 c-41
81 -75 144 -75 138z"/>
<path d="M51440 54365 l-12 -15 10 0 c12 0 26 19 19 26 -2 2 -10 -2 -17 -11z"/>
<path d="M49340 54350 l-15 -10 15 0 c8 0 22 5 30 10 l15 10 -15 0 c-8 0 -22
-5 -30 -10z"/>
<path d="M51684 54168 l-7 -11 11 7 c12 7 16 16 8 16 -3 0 -8 -5 -12 -12z"/>
<path d="M80804 54033 c2 -10 21 -81 41 -158 20 -77 39 -148 41 -158 l6 -19 5
6 6 6 -44 170 -44 170 -8 0 -8 0 5 -17z"/>
<path d="M6153 53905 c0 -66 3 -151 7 -190 l7 -70 0 95 c1 52 -3 138 -7 190
l-7 95 0 -120z"/>
<path d="M6193 53900 c0 -63 3 -146 7 -185 l7 -70 0 95 c1 52 -2 136 -6 185
l-8 90 0 -115z"/>
<path d="M52000 53879 l85 -80 98 -71 c54 -39 100 -69 102 -66 3 2 -30 29 -72
59 -43 29 -124 96 -180 147 -57 50 -107 92 -111 92 -4 -1 31 -37 78 -81z"/>
<path d="M21212 53935 c3 -3 58 -15 123 -26 l118 -20 86 -34 c47 -19 87 -33
88 -31 2 2 -29 18 -69 36 l-73 32 -125 24 c-130 24 -157 28 -148 19z"/>
<path d="M50905 53880 c3 -5 11 -10 16 -10 l10 0 -6 10 c-3 6 -11 10 -16 10
l-10 0 6 -10z"/>
<path d="M51410 53861 c0 -5 96 -88 213 -184 l213 -175 41 -46 40 -46 6 7 6 6
-37 45 -37 45 -210 172 c-115 94 -216 175 -222 179 l-13 7 0 -10z"/>
<path d="M48510 53836 c0 -15 185 -366 193 -366 7 0 -168 346 -185 365 l-8 9
0 -8z"/>
<path d="M76580 53808 c0 -13 103 -256 122 -288 28 -46 56 -77 93 -103 l30
-20 -46 49 -46 49 -27 50 c-15 28 -46 95 -68 150 -36 88 -58 131 -58 113z"/>
<path d="M54090 53783 c0 -8 25 -25 223 -162 l78 -54 154 74 c85 41 155 77
155 82 l0 7 -51 -25 c-28 -14 -97 -48 -154 -75 l-104 -48 -53 37 c-212 148
-248 171 -248 164z"/>
<path d="M77750 53707 c0 -9 21 -90 46 -179 25 -90 72 -271 103 -402 l58 -240
11 -4 10 -3 -13 58 c-93 393 -190 758 -207 778 l-8 9 0 -17z"/>
<path d="M52310 53693 c0 -9 65 -53 77 -53 9 0 -32 35 -59 51 l-18 10 0 -8z"/>
<path d="M77696 53692 l-6 -11 19 -53 c11 -29 37 -120 57 -201 l37 -148 8 8 8
8 -39 155 c-22 85 -48 177 -58 204 l-19 49 -7 -11z"/>
<path d="M77483 53596 c-162 -64 -210 -86 -191 -86 13 0 374 142 383 151 l9 9
-9 -1 c-6 0 -92 -33 -192 -73z"/>
<path d="M48895 53544 c-93 -46 -165 -84 -159 -84 14 0 344 157 344 165 0 10
-15 3 -185 -81z"/>
<path d="M50283 53603 c9 -2 25 -2 35 0 l17 5 -35 0 -35 0 18 -5z"/>
<path d="M30203 53485 c0 -60 3 -175 7 -255 l6 -145 1 205 1 205 -8 50 -7 50
0 -110z"/>
<path d="M32365 53528 c-84 -72 -211 -170 -243 -187 -13 -7 -21 -15 -19 -18 9
-9 109 62 230 161 64 53 117 99 117 102 0 12 -21 -3 -85 -58z"/>
<path d="M52330 53588 c0 -3 29 -71 65 -152 36 -80 65 -150 65 -155 0 -4 -8
-15 -17 -24 l-18 -15 -105 -8 -104 -7 19 -7 20 -7 90 9 90 9 22 24 22 24 -66
148 c-58 131 -83 180 -83 161z"/>
<path d="M67310 53474 c1 -10 7 -48 15 -84 8 -36 14 -77 15 -92 l0 -28 -34
-14 c-19 -8 -60 -20 -92 -27 -33 -7 -63 -16 -69 -22 l-10 -9 20 5 c11 3 36 8
55 12 19 4 56 13 83 22 l47 15 10 18 10 18 -20 98 c-20 95 -30 127 -30 88z"/>
<path d="M52007 53473 l-6 -9 55 -63 c30 -35 70 -87 89 -117 l35 -54 10 0 c5
0 10 3 10 6 0 11 -101 149 -144 197 l-44 49 -5 -9z"/>
<path d="M51320 53442 c0 -4 20 -19 44 -35 24 -15 62 -48 85 -72 l41 -45 0
-25 0 -25 9 0 9 0 -8 36 -8 37 -38 38 c-37 38 -134 104 -134 91z"/>
<path d="M51970 53430 l-15 -10 18 0 17 0 0 10 c0 12 -1 12 -20 0z"/>
<path d="M51557 53294 c-27 -14 -47 -28 -44 -30 3 -3 31 8 63 25 l59 30 -15 0
c-8 0 -37 -11 -63 -25z"/>
<path d="M52471 53236 l-34 -35 -99 -7 -99 -7 8 -7 8 -7 95 9 95 8 35 35 c18
19 32 37 29 40 -3 2 -20 -11 -38 -29z"/>
<path d="M7117 53200 l11 -12 224 -3 223 -3 -190 7 c-104 5 -210 11 -235 16
l-45 7 12 -12z"/>
<path d="M35440 53199 c0 -8 14 -98 32 -201 l32 -188 9 0 8 0 -5 18 c-3 9 -19
98 -36 197 -29 165 -40 211 -40 174z"/>
<path d="M56700 53184 c-91 -7 -180 -13 -199 -13 l-34 -1 6 -6 6 -6 208 12
208 13 15 8 15 8 -30 -1 c-16 0 -104 -6 -195 -14z"/>
<path d="M77830 53168 c0 -7 18 -80 38 -163 l38 -149 7 11 7 11 -37 151 -37
151 -8 0 c-5 0 -8 -6 -8 -12z"/>
<path d="M66675 53078 c-236 -50 -434 -94 -439 -98 l-8 -8 38 8 c22 5 226 47
454 95 228 47 420 88 425 90 51 18 -110 -11 -470 -87z"/>
<path d="M34681 53133 l-1 -13 -15 0 -15 0 0 -9 c0 -5 7 -12 15 -15 l16 -6 17
-37 16 -38 4 28 3 29 -14 16 c-8 10 -17 26 -20 37 l-5 20 -1 -12z"/>
<path d="M51013 52977 l-283 -142 -27 -23 -28 -23 150 77 c83 42 224 115 314
161 l163 85 23 -6 c13 -3 31 -8 42 -12 l18 -5 -25 15 c-14 8 -34 15 -45 15
l-20 0 -282 -142z"/>
<path d="M55414 53088 l-7 -11 11 7 c12 7 16 16 8 16 -3 0 -8 -5 -12 -12z"/>
<path d="M52990 52893 c-124 -63 -214 -112 -200 -108 28 8 392 188 424 211 47
33 -11 6 -224 -103z"/>
<path d="M65302 52834 c-249 -50 -456 -95 -460 -99 l-7 -8 25 6 c14 3 221 45
460 93 239 48 437 89 439 91 16 12 -55 -1 -457 -83z"/>
<path d="M12622 52717 c-56 -81 -102 -149 -102 -152 0 -22 31 15 114 135 l98
140 -4 12 -4 11 -102 -146z"/>
<path d="M51296 52747 l6 -18 6 6 6 5 -13 13 -12 12 7 -18z"/>
<path d="M52825 52725 c3 -11 43 -89 88 -175 45 -85 168 -332 272 -547 105
-216 193 -393 197 -393 13 0 -485 1015 -537 1095 l-27 40 7 -20z"/>
<path d="M52651 52645 l-114 -55 5 -6 6 -5 111 55 c61 31 111 58 111 61 0 7 6
10 -119 -50z"/>
<path d="M64365 52610 l-20 -9 23 0 22 -1 0 10 c0 6 -1 10 -2 9 -2 0 -12 -4
-23 -9z"/>
<path d="M30928 52341 c-57 -48 -117 -95 -134 -104 l-31 -16 -304 -31 c-326
-32 -374 -39 -366 -46 2 -3 159 11 348 31 l343 36 26 16 c29 19 230 192 230
199 0 10 -14 -1 -112 -85z"/>
<path d="M89857 52423 c-4 -3 -7 -10 -7 -15 l0 -8 23 5 23 6 28 -11 28 -10
118 -116 118 -115 6 9 6 10 -123 119 -123 120 -33 6 c-42 9 -56 9 -64 0z"/>
<path d="M84301 52302 c-1 -7 6 -42 15 -78 l17 -66 13 -5 14 -5 176 43 c96 24
171 45 166 47 -5 1 -82 -15 -170 -38 -89 -22 -168 -40 -175 -40 l-15 0 -20 78
c-11 42 -20 71 -21 64z"/>
<path d="M33970 52151 c-8 -5 -107 -21 -220 -36 l-205 -28 -10 -9 -9 -8 29 5
c17 3 116 17 220 31 l190 26 15 14 c16 16 12 18 -10 5z"/>
<path d="M89015 52110 c3 -5 13 -10 21 -10 l14 0 0 10 0 10 -21 0 -20 0 6 -10z"/>
<path d="M89090 52087 c0 -9 5 -19 11 -23 l11 -7 -5 -39 -5 -39 11 4 12 4 3
39 3 40 -21 19 -20 18 0 -16z"/>
<path d="M52724 52058 l-7 -11 11 7 c12 7 16 16 8 16 -3 0 -8 -5 -12 -12z"/>
<path d="M52285 51794 l-400 -203 -4 -12 -4 -12 194 100 c107 55 289 149 404
208 225 116 220 113 214 118 -2 2 -184 -87 -404 -199z"/>
<path d="M82903 51952 c-101 -26 -183 -49 -183 -53 l0 -7 197 50 c109 27 200
51 202 54 11 10 -47 -1 -216 -44z"/>
<path d="M78200 51950 c0 -5 38 -105 85 -222 l84 -213 11 -3 10 -4 0 9 c0 4
-39 106 -87 225 l-87 218 -8 0 c-4 0 -8 -4 -8 -10z"/>
<path d="M89103 51939 c3 -8 16 -51 30 -95 22 -69 59 -173 96 -268 7 -16 14
-27 16 -24 3 2 -9 39 -25 81 -16 43 -46 128 -66 190 -20 61 -41 117 -47 122
l-10 10 6 -16z"/>
<path d="M90872 51733 c-11 -21 -58 -109 -105 -195 -47 -87 -82 -158 -78 -158
9 0 214 381 208 387 -3 2 -14 -13 -25 -34z"/>
<path d="M91280 51632 c0 -4 61 -38 135 -75 l135 -67 0 -8 c0 -5 -59 -118
-131 -251 l-131 -242 6 -6 c3 -4 8 -4 10 -2 13 12 256 471 261 492 l7 25 -138
71 c-139 71 -154 77 -154 63z"/>
<path d="M91260 51582 c0 -4 39 -27 88 -51 48 -23 97 -49 110 -57 l23 -15 -22
-35 -22 -35 10 -10 9 -9 24 50 c13 27 22 52 19 54 -6 6 -228 116 -234 116 -3
0 -5 -3 -5 -8z"/>
<path d="M37540 51570 c0 -22 161 -954 166 -959 9 -10 1 45 -76 495 -72 416
-90 511 -90 464z"/>
<path d="M4120 51561 c0 -5 7 -14 15 -21 8 -6 55 -78 104 -158 50 -81 101
-160 115 -177 l25 -30 1 12 c0 7 -15 34 -34 60 -18 27 -62 95 -97 153 -85 141
-129 196 -129 161z"/>
<path d="M46231 51469 c-112 -55 -202 -102 -199 -104 5 -5 303 136 378 179 88
50 22 23 -179 -75z"/>
<path d="M13240 51088 c18 -18 363 -249 366 -245 6 5 -326 234 -353 244 -10 3
-16 4 -13 1z"/>
<path d="M61325 51029 c39 -10 143 -34 233 -53 l162 -34 4 7 4 7 -101 18 c-56
10 -155 31 -220 47 -131 32 -192 38 -82 8z"/>
<path d="M26775 50754 c-4 -96 -5 -178 -2 -180 3 -3 8 52 11 123 3 70 8 152
10 181 l5 52 -8 0 -8 0 -8 -176z"/>
<path d="M27790 50903 l0 -10 191 -7 191 -7 6 5 c3 3 3 8 1 10 -2 3 -91 8
-197 12 l-192 7 0 -10z"/>
<path d="M33500 50822 c0 -22 131 -837 136 -841 9 -9 2 35 -61 434 -55 350
-75 457 -75 407z"/>
<path d="M7560 50781 c0 -6 3 -11 8 -12 4 0 108 -13 232 -28 124 -16 227 -27
229 -25 13 12 -28 20 -197 40 -103 13 -206 26 -229 29 l-43 6 0 -10z"/>
<path d="M7300 50744 c-19 -2 -72 -9 -117 -15 l-83 -11 0 -10 0 -11 38 7 c20
4 93 11 162 17 l125 9 63 -6 62 -6 0 9 0 10 -52 7 c-52 6 -130 6 -198 0z"/>
<path d="M90986 50429 l-98 -181 6 -5 c3 -4 8 -4 10 -2 4 4 152 273 180 326
l16 32 -8 5 -8 5 -98 -180z"/>
<path d="M30620 50468 c-63 -5 -120 -10 -126 -12 l-11 -4 -6 -51 -6 -50 7 -38
7 -38 5 85 5 85 150 12 c83 6 164 13 180 16 l30 4 -60 0 c-33 0 -112 -4 -175
-9z"/>
<path d="M31238 50461 l-376 -16 -9 -9 -8 -9 80 7 c44 3 227 11 407 18 l328
12 7 -7 7 -7 18 -273 c9 -149 19 -279 22 -287 l4 -15 0 45 c0 25 -7 160 -16
300 l-17 255 -35 1 c-19 1 -205 -6 -412 -15z"/>
<path d="M48638 50345 l-77 -55 -93 -41 c-51 -22 -97 -45 -102 -50 l-10 -9 6
-5 6 -6 103 46 104 46 82 56 82 56 -5 9 c-8 13 -15 10 -96 -47z"/>
<path d="M33610 50384 c0 -22 61 -388 65 -393 3 -2 5 2 5 10 0 29 -58 381 -64
386 l-6 6 0 -9z"/>
<path d="M32513 50310 c3 -14 18 -104 32 -200 15 -96 29 -177 31 -179 8 -9 3
40 -22 209 l-27 175 -10 10 -10 10 6 -25z"/>
<path d="M26170 50312 l0 -9 158 -7 c86 -4 186 -9 222 -12 l65 -5 -15 9 -15
10 -190 7 c-104 3 -198 9 -207 11 l-18 5 0 -9z"/>
<path d="M12326 50003 c-3 -104 -9 -214 -12 -245 l-6 -58 9 0 10 0 7 63 c3 34
9 144 13 245 l6 182 -10 0 -10 0 -7 -187z"/>
<path d="M34310 50093 c1 -5 6 -35 13 -67 l13 -60 10 -3 10 -3 -4 36 -4 36 35
-38 35 -39 8 7 7 7 -36 40 c-19 22 -43 51 -52 65 -16 25 -36 35 -35 19z"/>
<path d="M86905 49979 c-71 -55 -149 -111 -172 -125 l-42 -25 -92 -25 -93 -25
-98 -10 c-55 -5 -115 -15 -135 -22 l-36 -12 -4 -12 -4 -11 48 14 48 15 75 5
75 6 99 25 c55 13 114 30 132 38 31 13 354 250 354 260 0 17 -40 -8 -155 -96z"/>
<path d="M33848 49980 l-148 -7 -7 -6 c-3 -4 -4 -9 -2 -11 2 -2 83 0 179 4 96
5 203 9 238 9 l63 1 -6 10 -6 10 -82 -2 c-45 -1 -148 -4 -229 -8z"/>
<path d="M34190 49980 l0 -10 50 0 50 0 0 10 0 10 -50 0 -50 0 0 -10z"/>
<path d="M33663 49933 l7 -6 7 6 6 7 -13 0 -13 0 6 -7z"/>
<path d="M34170 49930 l0 -10 55 0 55 0 0 10 0 10 -55 0 -55 0 0 -10z"/>
<path d="M34320 49926 l0 -16 29 0 c16 0 36 -3 45 -6 l16 -6 0 16 0 16 -14 0
c-7 0 -28 3 -45 6 l-31 7 0 -17z"/>
<path d="M33671 49871 c-1 -27 39 -359 45 -380 l4 -14 6 6 6 6 -21 183 c-12
101 -26 192 -31 203 l-9 20 0 -24z"/>
<path d="M22405 49790 l30 -8 165 -5 165 -5 -20 7 -20 8 -175 5 -175 6 30 -8z"/>
<path d="M22405 49750 l30 -8 165 -5 165 -5 -20 7 -20 8 -175 5 -175 6 30 -8z"/>
<path d="M39205 49730 c59 -29 803 -200 869 -200 40 0 7 9 -85 24 -52 9 -243
51 -425 95 -181 45 -340 83 -354 85 l-25 5 20 -9z"/>
<path d="M35973 49510 c4 -14 7 -33 7 -42 l0 -18 9 0 9 0 -8 36 c-5 19 -12 39
-16 42 l-7 7 6 -25z"/>
<path d="M75830 49343 c1 -63 48 -524 54 -530 3 -3 8 -4 10 -2 2 2 -7 119 -20
259 -13 140 -23 265 -24 278 l0 22 -10 0 -10 0 0 -27z"/>
<path d="M12236 49198 c-3 -13 -6 -58 -6 -100 l0 -77 15 -70 15 -71 26 -52
c15 -29 40 -70 57 -91 l31 -38 51 -29 c60 -34 182 -75 248 -84 l47 -6 0 10 0
9 -37 6 c-21 3 -76 17 -122 31 l-85 26 -45 29 -46 28 -26 34 c-15 18 -40 60
-57 93 l-30 59 -12 71 -13 71 5 86 4 87 -7 0 c-3 0 -9 -10 -13 -22z"/>
<path d="M84926 49134 c161 -208 184 -236 184 -220 0 9 -232 301 -242 305 -6
2 20 -36 58 -85z"/>
<path d="M38520 49041 c0 -6 2 -11 4 -11 1 0 98 -24 214 -54 l212 -54 6 9 5 9
-5 0 c-6 0 -379 95 -418 106 l-18 5 0 -10z"/>
<path d="M81175 48950 l-60 -19 -25 6 -25 6 14 -16 13 -17 16 0 c8 0 46 9 83
20 l69 21 0 9 0 10 -12 -1 c-7 0 -40 -9 -73 -19z"/>
<path d="M91573 48876 c6 -15 243 -374 258 -390 l9 -10 6 7 6 6 -133 200 c-74
110 -138 200 -143 201 l-8 0 5 -14z"/>
<path d="M91417 48678 c-81 -94 -147 -176 -147 -182 l0 -10 8 10 c5 5 64 74
132 154 68 80 132 155 143 167 11 13 18 25 15 28 -2 3 -70 -73 -151 -167z"/>
<path d="M76000 48800 l-14 -9 5 -6 6 -5 17 6 c9 3 16 10 16 15 0 11 -11 11
-30 -1z"/>
<path d="M36078 48725 c-5 -5 -736 -45 -1203 -66 l-270 -12 -15 -8 -15 -8 55
-1 c30 0 129 5 220 10 91 6 406 24 700 40 l535 29 25 10 25 10 -26 0 c-14 1
-28 -1 -31 -4z"/>
<path d="M35833 48671 l-221 -16 -9 -8 -8 -9 70 7 c39 3 160 12 269 20 109 8
201 17 204 20 7 7 -51 5 -305 -14z"/>
<path d="M39910 48650 c0 -11 2 -20 4 -20 2 0 6 9 9 20 l5 20 -9 0 -9 0 0 -20z"/>
<path d="M40409 48639 l-24 -21 25 7 c14 4 35 9 47 12 l23 5 25 -16 25 -16 0
-15 0 -15 14 0 14 0 -5 20 -5 20 -26 20 -25 20 -32 0 -33 0 -23 -21z"/>
<path d="M34822 48614 l-224 -12 -6 -7 -7 -8 100 6 c55 4 162 10 238 13 l137
7 0 8 c0 5 -3 8 -7 8 -5 -1 -108 -7 -231 -15z"/>
<path d="M34480 48590 l0 -10 18 0 c9 0 24 5 32 10 l15 10 -32 0 -33 0 0 -10z"/>
<path d="M33630 48552 c-360 -19 -657 -36 -659 -38 -2 -2 -2 -5 0 -7 5 -4
1392 69 1434 75 l30 5 -75 0 c-41 0 -370 -15 -730 -35z"/>
<path d="M14497 48518 l-36 -63 -38 -36 -38 -37 -45 -22 c-25 -13 -67 -31 -95
-41 l-50 -19 40 6 c22 3 66 17 98 31 l58 26 52 57 52 58 27 51 28 51 -9 0 c-5
0 -25 -28 -44 -62z"/>
<path d="M74863 48290 c56 -115 103 -207 106 -205 6 6 -192 415 -201 415 -3 0
39 -94 95 -210z"/>
<path d="M37385 48082 c-363 -19 -662 -36 -664 -38 -2 -2 -2 -5 0 -7 2 -2 311
13 686 32 l681 36 8 8 7 7 -29 -1 c-16 -1 -326 -17 -689 -37z"/>
<path d="M90844 48048 c-32 -35 -77 -93 -101 -130 -24 -37 -76 -107 -115 -155
-70 -86 -495 -570 -567 -645 l-35 -38 10 0 11 0 283 321 c322 364 365 416 427
514 l45 70 61 63 61 62 -11 0 c-6 0 -37 -28 -69 -62z"/>
<path d="M76034 47898 c3 -13 6 -34 6 -47 l0 -25 11 11 12 12 -7 35 -7 36 -11
0 -10 0 6 -22z"/>
<path d="M47600 47860 c8 -5 48 -21 90 -36 l75 -28 83 -69 c45 -38 85 -68 87
-65 2 2 -33 35 -78 73 l-82 70 -85 32 c-47 18 -89 33 -95 33 l-10 0 15 -10z"/>
<path d="M75583 47761 c-233 -32 -426 -60 -430 -64 l-6 -7 6 -6 6 -6 393 52
c216 28 410 54 431 57 l37 6 0 13 c0 8 -3 13 -7 13 -5 -1 -198 -27 -430 -58z"/>
<path d="M72730 47786 c0 -3 -18 -91 -40 -197 -35 -167 -41 -215 -26 -198 2 2
22 91 44 197 l40 192 -9 6 c-5 3 -9 3 -9 0z"/>
<path d="M90245 47389 l-350 -400 -52 -92 -52 -91 -27 -14 -26 -14 -114 -12
-114 -12 -12 -12 -11 -11 43 -106 c23 -58 45 -104 47 -101 3 3 -11 46 -31 96
-20 49 -36 96 -36 104 l0 14 33 5 c17 3 68 9 112 13 l80 6 31 13 32 13 57 100
56 101 337 383 c185 211 343 392 351 401 l13 17 -8 0 c-5 -1 -166 -181 -359
-401z"/>
<path d="M38150 47771 c0 -16 39 -278 46 -310 3 -13 7 -21 10 -19 5 6 -44 329
-51 336 -3 3 -5 0 -5 -7z"/>
<path d="M37043 47305 c4 -38 13 -173 22 -300 16 -243 24 -320 31 -313 2 3 -7
154 -20 337 l-24 333 -7 6 -8 7 6 -70z"/>
<path d="M72110 47327 l0 -14 88 -18 c135 -27 270 -44 345 -45 l67 0 0 10 0
10 -47 0 c-74 0 -355 43 -435 66 l-18 5 0 -14z"/>
<path d="M72637 47327 c-4 -10 -7 -26 -7 -35 l1 -17 10 18 10 18 -3 17 -4 17
-7 -18z"/>
<path d="M35075 47282 c-277 -13 -316 -16 -304 -25 7 -6 710 31 716 37 l6 6
-59 -1 c-32 -1 -194 -9 -359 -17z"/>
<path d="M33730 47217 c-171 -8 -200 -12 -189 -20 5 -4 496 21 524 26 35 7
-145 4 -335 -6z"/>
<path d="M29426 47085 c4 -71 10 -170 14 -220 l8 -90 -5 205 -5 205 -9 15 -8
15 5 -130z"/>
<path d="M20668 47133 l-17 -48 -31 -173 -30 -173 -20 -57 -20 -56 -42 -44
-43 -45 -85 -40 -85 -40 11 -4 12 -4 83 39 84 39 41 44 41 45 16 45 16 44 31
187 30 187 19 51 c10 27 16 50 12 50 -3 0 -14 -21 -23 -47z"/>
<path d="M21550 47080 l0 -13 7 6 6 7 -6 7 -7 6 0 -13z"/>
<path d="M57096 47082 l-5 -9 94 -191 94 -192 10 0 10 0 -95 197 c-52 108 -96
199 -98 201 -2 2 -6 -1 -10 -6z"/>
<path d="M27412 46919 c-90 -4 -167 -10 -170 -14 l-7 -6 190 7 c105 3 217 10
250 14 l60 7 -80 0 c-44 0 -154 -4 -243 -8z"/>
<path d="M34750 46745 l0 -175 10 0 10 0 0 175 0 175 -10 0 -10 0 0 -175z"/>
<path d="M46276 46799 c-37 -159 -86 -422 -81 -428 7 -6 12 15 30 119 9 52 32
166 51 253 20 87 34 163 32 168 -2 6 -17 -44 -32 -112z"/>
<path d="M26388 46843 l-148 -4 0 -7 0 -7 162 3 c90 2 201 7 248 11 l85 8
-100 -1 c-55 0 -166 -2 -247 -3z"/>
<path d="M36497 46586 l-8 -28 6 -6 5 -5 6 5 c3 4 4 19 2 35 l-3 28 -8 -29z"/>
<path d="M34982 46565 l-212 -12 -7 -6 -6 -7 6 -6 6 -6 233 11 c128 6 257 14
286 17 l52 5 -5 10 -6 9 -67 -1 c-37 -1 -163 -7 -280 -14z"/>
<path d="M51473 46522 l-12 -8 7 -10 7 -11 37 5 37 4 -6 14 -5 14 -27 0 c-14
0 -31 -4 -38 -8z"/>
<path d="M36847 46350 l5 -165 15 -55 c8 -30 19 -59 24 -64 12 -13 12 -10 -11
64 l-20 65 -1 100 c-1 55 -5 127 -9 160 l-8 60 5 -165z"/>
<path d="M35035 46479 c-71 -3 -158 -7 -192 -8 l-63 -1 0 -16 0 -16 48 6 c26
3 122 8 215 12 l167 6 0 14 0 14 -22 -2 c-13 -1 -81 -5 -153 -9z"/>
<path d="M51776 46403 c-3 -10 -12 -56 -21 -103 l-15 -85 9 -30 c13 -45 181
-389 186 -383 3 3 -35 89 -85 192 l-90 187 0 38 c0 22 7 73 16 116 9 42 14 79
11 82 -3 2 -8 -4 -11 -14z"/>
<path d="M30823 46403 l-113 -4 0 -15 0 -16 110 6 c61 3 160 9 220 12 l110 6
0 9 0 9 -107 -2 c-60 -1 -159 -4 -220 -5z"/>
<path d="M34380 46401 c0 -5 7 -15 17 -22 l16 -14 -12 23 c-12 23 -21 28 -21
13z"/>
<path d="M50823 46318 c19 -35 58 -107 87 -160 l52 -98 9 0 10 0 -4 8 c-2 4
-41 76 -86 160 l-82 152 -11 0 -10 0 35 -62z"/>
<path d="M50850 46364 c0 -12 152 -285 157 -281 4 5 -146 287 -153 287 -2 0
-4 -3 -4 -6z"/>
<path d="M19840 46246 c0 -9 91 -196 95 -196 6 0 -9 36 -55 133 -27 58 -40 78
-40 63z"/>
<path d="M47750 46048 c10 -35 30 -106 45 -158 15 -52 32 -102 37 -110 l9 -15
-4 20 c-14 64 -93 325 -99 325 l-7 0 19 -62z"/>
<path d="M93091 46095 l15 -15 75 -13 76 -14 24 -16 23 -17 51 0 50 0 63 32
c34 18 62 35 62 39 0 4 -26 -6 -58 -22 l-58 -30 -40 -6 -41 -5 -43 22 -43 22
-66 9 -66 10 -9 9 c-6 6 -15 10 -20 10 l-10 0 15 -15z"/>
<path d="M93025 46080 l-17 -19 -68 -26 -68 -26 -74 -3 c-40 -2 -99 -4 -130
-5 l-58 -1 0 -11 0 -10 18 5 c9 3 67 6 127 7 l110 0 71 26 72 25 21 29 c25 33
23 38 -4 9z"/>
<path d="M93060 46071 c0 -4 16 -15 35 -24 l36 -17 32 0 32 0 53 -25 54 -25
54 0 54 0 71 36 c39 19 69 38 66 40 -3 3 -33 -9 -67 -26 l-62 -31 -47 -6 -47
-5 -52 26 -51 26 -38 0 -38 0 -42 20 -43 19 0 -8z"/>
<path d="M81344 45948 l-7 -11 11 7 c7 4 12 9 12 12 0 8 -9 4 -16 -8z"/>
<path d="M81370 45888 c-5 -13 -21 -63 -36 -111 l-27 -88 -20 -14 -21 -15 6
-5 5 -5 17 6 17 6 14 35 c18 44 65 213 59 213 -2 0 -9 -10 -14 -22z"/>
<path d="M81322 45858 c-5 -7 -17 -38 -25 -68 -9 -30 -23 -65 -32 -77 l-16
-23 -25 0 -24 0 0 -11 0 -11 23 6 c12 3 28 6 34 6 l12 0 17 32 c16 31 56 158
50 158 -2 0 -8 -6 -14 -12z"/>
<path d="M81246 45630 l6 -29 -10 -30 -11 -31 8 -5 9 -5 12 30 12 30 -6 35 -7
35 -9 0 -9 0 5 -30z"/>
<path d="M15459 45115 l-5 -10 12 -330 c7 -181 16 -340 19 -352 l7 -23 10 0
10 0 -7 18 c-11 26 -24 218 -33 477 l-7 230 -6 -10z"/>
<path d="M29883 44350 c-1 -69 3 -152 7 -185 l7 -60 0 75 c0 41 -3 125 -7 185
l-7 110 0 -125z"/>
<path d="M52335 44438 l-6 -14 155 -322 c85 -176 174 -361 197 -411 43 -93 45
-96 66 -83 l12 7 -198 414 -197 415 -12 4 -12 4 -5 -14z"/>
<path d="M49214 44354 c8 -16 37 -61 63 -100 l48 -71 68 -57 67 -57 0 9 c0 6
-29 34 -65 63 l-66 53 -55 88 c-31 48 -60 91 -66 94 l-10 6 16 -28z"/>
<path d="M88165 44183 c-32 -69 -72 -145 -87 -169 l-28 -44 -12 0 -13 0 -22
35 c-13 19 -23 41 -23 49 l0 14 -16 6 -16 6 6 -16 6 -17 -39 -72 -40 -72 116
-184 c63 -101 118 -186 121 -189 18 -17 -21 52 -115 202 l-107 170 34 64 c19
35 37 64 40 64 4 0 15 -16 26 -35 10 -19 25 -37 33 -40 l14 -5 20 17 20 18 74
153 c41 85 73 158 71 162 -2 5 -30 -48 -63 -117z"/>
<path d="M29932 43940 l-1 -165 8 -45 8 -45 0 95 c0 52 -3 147 -7 210 l-7 115
-1 -165z"/>
<path d="M34690 44064 c0 -3 14 -17 31 -31 16 -14 49 -53 71 -87 23 -33 66
-87 96 -118 l55 -58 9 6 10 6 -50 52 c-27 28 -72 86 -101 128 l-51 77 -22 15
c-22 16 -48 21 -48 10z"/>
<path d="M40870 43548 l-84 -9 -103 -51 c-57 -27 -103 -53 -103 -57 l0 -8 101
49 101 50 66 10 67 10 75 -5 75 -5 -35 13 c-40 15 -46 16 -160 3z"/>
<path d="M40900 43510 l-75 -7 -62 -21 -63 -20 -50 -32 c-28 -18 -49 -35 -46
-37 3 -3 22 5 43 18 58 37 105 56 181 74 l71 17 70 -4 71 -4 -8 7 c-13 14 -56
16 -132 9z"/>
<path d="M95445 43439 c5 -8 67 -94 137 -191 l129 -178 10 0 10 0 -10 18 c-5
9 -65 93 -133 186 l-123 169 -14 5 -14 5 8 -14z"/>
<path d="M51278 43351 l-3 -9 -266 -41 -266 -40 -427 -121 c-235 -66 -442
-126 -460 -134 l-34 -14 -29 -44 c-16 -23 -33 -49 -37 -55 l-7 -13 8 0 c4 0
21 20 36 44 l28 44 24 16 23 15 445 126 445 125 258 40 c142 22 259 38 261 37
4 -5 61 -392 58 -396 -2 -1 -68 -12 -147 -22 -158 -22 -192 -28 -186 -34 2 -3
79 6 171 18 l166 23 11 -70 c27 -173 41 -252 46 -268 l5 -16 -28 -6 c-15 -3
-93 -13 -173 -22 -146 -16 -176 -21 -169 -28 2 -2 86 6 187 18 l183 22 4 -20
c15 -65 58 -364 80 -552 29 -255 33 -284 44 -284 l7 0 -27 223 c-15 122 -41
310 -59 417 l-31 195 4 17 5 18 -8 0 -7 0 -16 83 c-16 81 -33 190 -41 257 -3
19 -18 122 -35 229 l-29 194 5 12 4 13 -9 6 -10 6 -4 -9z"/>
<path d="M50243 43161 c-112 -31 -203 -59 -203 -63 l0 -7 83 23 c45 13 136 38
202 56 66 18 122 35 124 36 16 14 -29 4 -206 -45z"/>
<path d="M11221 43149 c-13 -39 -13 -39 -2 -39 l9 0 7 31 c9 42 0 47 -14 8z"/>
<path d="M34235 43085 l-80 -53 -85 -26 c-47 -14 -100 -28 -118 -31 -18 -4
-31 -9 -28 -12 6 -6 140 22 196 42 l45 16 78 51 c42 28 77 54 77 59 0 12 7 15
-85 -46z"/>
<path d="M88383 43018 c35 -57 88 -142 118 -190 30 -48 58 -88 62 -88 l8 0 -7
13 c-59 102 -229 367 -235 367 l-9 0 63 -102z"/>
<path d="M82105 43050 c4 -14 31 -68 60 -120 29 -52 96 -175 150 -273 53 -98
99 -176 102 -173 3 3 -41 90 -97 193 -57 103 -128 233 -157 288 -59 108 -70
124 -58 85z"/>
<path d="M40151 42864 l-142 -198 -47 -32 -48 -32 -65 -18 c-35 -9 -89 -30
-120 -45 l-57 -28 -33 -39 c-19 -22 -56 -71 -82 -110 l-48 -70 -5 -69 -5 -68
9 -60 10 -60 -2 110 -1 110 23 45 c12 25 48 79 80 120 l57 75 65 32 c36 17 88
37 115 43 l50 12 53 33 53 33 145 202 c80 111 143 204 141 207 -3 2 -68 -85
-146 -193z"/>
<path d="M52111 43053 c13 -38 394 -803 397 -795 3 9 -381 789 -394 801 l-7 6
4 -12z"/>
<path d="M21226 43019 c-76 -10 -141 -21 -144 -24 -14 -14 17 -13 159 5 85 11
169 20 186 20 l33 0 6 -40 7 -40 9 0 10 0 -7 43 c-4 23 -9 45 -12 50 l-4 7
-52 -1 c-29 -1 -114 -10 -191 -20z"/>
<path d="M51915 43012 c-178 -24 -193 -27 -183 -37 6 -6 358 41 366 49 12 13
-11 12 -183 -12z"/>
<path d="M52090 43005 c0 -13 182 -367 186 -362 3 3 -36 86 -85 186 -80 159
-101 196 -101 176z"/>
<path d="M49730 42925 c-7 -9 -11 -18 -8 -20 3 -3 11 1 18 10 7 9 11 18 8 20
-3 3 -11 -1 -18 -10z"/>
<path d="M41467 42666 l-138 -62 -45 -39 -45 -40 -14 -55 -15 -55 2 -175 1
-175 7 165 c4 91 10 190 15 220 l7 55 48 45 47 45 137 60 c75 33 136 63 136
67 0 5 -1 8 -2 7 -2 0 -65 -29 -141 -63z"/>
<path d="M31771 42498 l-164 -168 7 -7 7 -7 120 119 c134 133 202 211 197 223
l-3 8 -164 -168z"/>
<path d="M40048 42652 c-7 -10 -38 -35 -68 -55 l-55 -35 -79 -22 -79 -22 -38
-25 c-45 -30 -107 -102 -150 -174 l-31 -54 -5 -55 -4 -55 9 -55 10 -55 -1 100
-2 100 35 60 c44 77 102 147 149 177 l36 24 80 23 80 23 57 36 57 37 10 22
c13 28 7 30 -11 5z"/>
<path d="M33746 42491 l-56 -89 -43 -38 -42 -38 -22 -53 c-12 -29 -20 -53 -17
-53 3 0 14 21 25 47 l20 48 34 27 33 28 54 82 c58 88 81 128 75 128 -3 0 -30
-40 -61 -89z"/>
<path d="M45970 42239 c-80 -44 -149 -84 -154 -89 l-9 -9 2 -106 2 -106 70
-135 c39 -74 72 -141 73 -149 1 -8 5 -18 9 -21 l7 -7 23 11 c12 7 101 41 197
75 185 67 613 247 605 255 -2 3 -89 -32 -192 -76 -167 -71 -597 -232 -619
-232 l-9 0 -74 143 -74 142 -1 105 -1 104 138 77 c121 67 172 99 157 99 -3 0
-70 -36 -150 -81z"/>
<path d="M31042 41812 l-169 -237 -54 -50 c-30 -28 -89 -77 -131 -109 l-78
-59 0 -13 0 -14 108 84 c59 46 123 102 143 123 20 21 111 142 202 270 l166
232 -8 6 -9 5 -170 -238z"/>
<path d="M31088 41783 c-189 -266 -213 -293 -347 -393 -55 -41 -100 -79 -101
-84 l0 -8 15 6 c24 9 207 151 242 188 29 31 373 504 373 514 0 2 -4 4 -10 4
l-9 0 -163 -227z"/>
<path d="M46625 41849 c-203 -87 -228 -99 -223 -104 4 -4 397 161 407 171 15
15 -44 -7 -184 -67z"/>
<path d="M82832 41702 c3 -8 477 -772 485 -781 2 -3 8 0 13 5 l10 10 -173 275
c-95 151 -204 325 -243 386 l-69 113 -13 0 -14 0 4 -8z"/>
<path d="M39780 41677 c0 -2 35 -31 78 -65 42 -33 93 -78 113 -99 l36 -38 111
-180 111 -180 66 -58 65 -58 0 9 c0 6 -27 33 -59 61 l-59 51 -115 188 -116
187 -43 41 c-81 78 -188 158 -188 141z"/>
<path d="M82742 41612 c13 -21 66 -107 118 -190 l95 -152 13 0 13 0 -7 13 c-4
6 -57 92 -117 190 l-110 177 -14 0 -14 0 23 -38z"/>
<path d="M56885 41340 c83 -4 198 -8 258 -9 l107 -1 0 10 0 10 -257 -2 -258
-2 150 -6z"/>
<path d="M56453 41303 c53 -2 141 -2 195 0 l97 3 -195 0 -195 0 98 -3z"/>
<path d="M28501 41137 l-2 -84 20 -52 c27 -71 88 -174 180 -301 41 -58 98
-147 127 -198 l52 -94 6 11 7 10 -42 78 c-23 43 -79 130 -124 193 -95 133
-155 234 -185 310 l-21 54 2 75 2 75 -10 3 -10 4 -2 -84z"/>
<path d="M28960 41150 l0 -9 33 -5 c17 -3 51 -7 74 -11 23 -3 80 -18 125 -33
l83 -28 141 -106 141 -106 59 -30 59 -29 48 -7 48 -7 29 6 c17 4 30 10 30 13
l0 7 -75 2 -76 2 -57 32 c-31 18 -119 79 -195 136 l-138 104 -42 18 c-51 22
-163 48 -234 55 l-53 5 0 -9z"/>
<path d="M29421 41033 c1 -14 112 -99 188 -144 l75 -44 68 -3 68 -4 0 9 0 10
-66 6 -66 6 -64 36 c-35 20 -91 58 -125 85 -60 48 -80 59 -78 43z"/>
<path d="M58120 40975 l0 -65 10 0 10 0 0 65 0 65 -10 0 -10 0 0 -65z"/>
<path d="M58645 41003 c22 -1 133 -4 247 -5 l207 -3 -17 7 -17 7 -230 -1
c-126 -1 -212 -3 -190 -5z"/>
<path d="M57748 40883 c56 -2 148 -2 205 0 l102 3 -205 0 -205 0 103 -3z"/>
<path d="M96410 40364 c-91 -41 -180 -82 -199 -90 l-34 -14 6 -7 6 -6 193 88
c106 48 197 91 203 96 l9 9 -9 0 c-6 0 -84 -34 -175 -76z"/>
<path d="M80781 40343 c8 -24 484 -792 487 -784 3 8 -461 767 -480 786 l-10
10 3 -12z"/>
<path d="M95690 40037 c-36 -18 -125 -60 -199 -95 -74 -34 -131 -65 -128 -68
6 -7 406 178 407 189 0 11 -10 8 -80 -26z"/>
<path d="M84816 39970 c4 -8 49 -76 99 -150 51 -74 106 -161 124 -192 18 -32
37 -61 43 -64 l11 -7 -33 59 c-44 79 -207 324 -233 349 l-20 20 9 -15z"/>
<path d="M29000 39953 c0 -10 6 -57 14 -106 l13 -87 -15 -23 c-9 -12 -38 -48
-65 -80 -27 -32 -47 -60 -44 -63 6 -6 105 97 127 134 l17 27 -15 108 -15 107
-9 0 -8 0 0 -17z"/>
<path d="M84777 39946 c-3 -7 -64 -49 -136 -95 -72 -45 -134 -87 -137 -93 l-7
-11 14 8 c8 5 74 46 147 93 73 46 134 83 136 81 54 -72 198 -299 334 -524 96
-159 176 -292 178 -294 54 -61 -302 532 -429 716 -42 61 -74 113 -71 116 3 2
-2 7 -10 10 l-14 6 -5 -13z"/>
<path d="M54543 39812 l-13 -8 53 -96 52 -96 74 -96 c40 -53 76 -96 80 -96 3
0 12 4 19 8 l13 9 -84 110 -85 111 -43 81 c-46 85 -47 85 -66 73z"/>
<path d="M45410 39655 c0 -11 5 -27 10 -35 l10 -15 0 20 c0 11 -5 27 -10 35
l-10 15 0 -20z"/>
<path d="M40454 39442 l-21 -7 -86 -80 c-48 -43 -87 -84 -87 -89 0 -5 40 29
89 77 l88 87 34 0 34 0 59 -25 c64 -26 81 -27 43 -2 -18 12 -128 51 -131 46
-1 -1 -10 -4 -22 -7z"/>
<path d="M42640 39305 l-145 -52 -330 -73 -330 -73 -69 -40 -68 -41 -144 -10
c-79 -5 -144 -12 -144 -15 0 -4 46 -5 102 -3 l103 2 52 11 53 10 67 39 68 38
300 66 300 66 165 57 c169 58 176 60 169 67 -2 1 -69 -20 -149 -49z"/>
<path d="M47180 39340 l0 -13 7 6 6 7 -6 7 -7 6 0 -13z"/>
<path d="M52891 38816 c7 -7 432 -87 437 -82 6 6 -9 10 -228 51 -179 34 -218
40 -209 31z"/>
<path d="M60035 38744 c21 -38 53 -90 72 -116 l34 -47 82 -72 c45 -40 83 -78
85 -85 l3 -13 -55 -78 c-30 -43 -91 -116 -135 -163 l-80 -84 22 -15 c12 -9
151 -136 309 -283 266 -247 298 -276 298 -264 0 3 -125 120 -277 262 -153 141
-289 267 -302 280 l-24 23 69 76 c38 42 97 113 131 158 l62 82 0 15 1 15 -82
70 c-92 80 -142 139 -194 231 -20 35 -41 67 -47 71 l-11 6 39 -69z"/>
<path d="M60021 38688 l61 -103 90 -86 91 -86 -49 -68 c-26 -38 -73 -96 -103
-129 -30 -34 -66 -74 -80 -90 l-26 -29 12 4 c29 10 263 293 263 318 0 5 -10
17 -22 25 -13 9 -54 46 -91 84 l-68 67 -60 98 c-33 53 -64 97 -69 97 l-9 0 60
-102z"/>
<path d="M88120 38479 c-96 -60 -179 -115 -185 -121 l-10 -11 16 5 c8 3 93 54
187 113 l172 106 0 10 c0 12 21 23 -180 -102z"/>
<path d="M60017 38073 l-4 -8 154 -144 154 -143 6 6 7 6 -15 14 c-8 7 -78 72
-156 145 l-141 132 -5 -8z"/>
<path d="M61810 37874 c-85 -24 -181 -49 -212 -55 l-58 -12 0 -7 0 -8 23 5
c103 23 404 107 412 114 l9 9 -9 -1 c-6 -1 -80 -21 -165 -45z"/>
<path d="M59640 37754 c-36 -25 -116 -73 -177 -107 -62 -34 -113 -65 -113 -69
0 -10 171 85 278 154 50 34 92 62 92 64 0 10 -20 -1 -80 -42z"/>
<path d="M59321 37583 c1 -14 188 -378 188 -367 1 13 -176 374 -184 374 -3 0
-5 -3 -4 -7z"/>
<path d="M86157 37278 c-125 -83 -226 -153 -223 -155 3 -4 439 278 461 298 l9
9 -9 0 c-6 -1 -113 -69 -238 -152z"/>
<path d="M86187 37247 c-125 -82 -226 -152 -223 -154 3 -3 105 61 228 142 243
161 233 153 227 159 -2 2 -107 -64 -232 -147z"/>
<path d="M83172 37213 c-8 -3 -68 -39 -135 -80 l-121 -74 -27 -6 -27 -5 -42
62 c-23 34 -44 59 -47 57 -5 -6 71 -122 86 -131 l9 -6 33 12 c19 6 92 47 163
90 70 43 132 78 136 78 13 0 36 -33 120 -173 45 -76 85 -135 87 -133 3 3 -37
74 -89 158 l-93 153 -20 2 c-11 1 -26 -1 -33 -4z"/>
<path d="M53850 36898 c0 -2 -18 -95 -39 -208 l-39 -205 8 -9 8 -8 11 53 c11
54 71 372 71 377 0 1 -4 2 -10 2 -5 0 -10 -1 -10 -2z"/>
<path d="M30157 36768 c-2 -7 -37 -102 -76 -211 l-73 -199 6 -5 c3 -4 8 -4 10
-2 4 4 156 418 156 425 0 10 -18 3 -23 -8z"/>
<path d="M40520 36597 c-206 -44 -377 -82 -379 -84 -17 -13 51 -1 398 74 l394
84 8 -8 8 -8 41 -285 c45 -318 47 -330 58 -330 l8 0 -37 248 c-20 136 -43 280
-50 320 l-12 72 -31 -1 c-17 -1 -200 -38 -406 -82z"/>
<path d="M40020 36458 c-47 -5 -104 -11 -127 -14 l-43 -5 0 -80 0 -79 8 0 7 0
-3 75 -4 75 14 0 c46 0 231 22 250 30 l23 9 -20 -1 c-11 0 -58 -5 -105 -10z"/>
<path d="M52155 35844 c-44 -30 -128 -82 -187 -116 -60 -34 -108 -66 -108 -70
0 -4 55 25 123 64 103 60 149 90 251 160 6 4 8 9 6 11 -3 3 -41 -20 -85 -49z"/>
<path d="M39837 35703 c6 -173 15 -324 20 -320 2 3 1 98 -3 211 l-7 206 -6 0
-7 0 3 -97z"/>
<path d="M84642 35483 c-134 -85 -241 -157 -239 -160 3 -2 115 66 249 151
l245 156 39 0 39 -1 26 -22 26 -22 53 -95 c29 -52 80 -133 115 -180 34 -47
142 -215 240 -375 98 -159 185 -298 193 -308 24 -27 26 -12 4 20 -12 15 -98
154 -192 308 -95 154 -200 318 -235 365 -34 47 -86 128 -115 180 l-52 95 -27
22 -26 22 -50 0 -50 0 -243 -156z"/>
<path d="M84917 35603 c-22 -6 -855 -538 -877 -561 l-15 -15 15 8 c8 4 207
131 441 281 l426 274 27 0 26 0 20 -20 c11 -11 33 -45 49 -77 16 -32 60 -101
98 -153 38 -52 110 -161 159 -242 49 -82 92 -148 96 -148 11 0 -187 322 -252
410 -30 41 -72 108 -93 147 l-38 72 -22 16 c-22 15 -28 16 -60 8z"/>
<path d="M81120 35575 c0 -2 13 -25 29 -50 l28 -45 160 -168 c88 -93 220 -237
293 -321 73 -83 135 -149 137 -147 7 6 -263 312 -442 502 -83 87 -161 176
-174 197 -21 34 -31 45 -31 32z"/>
<path d="M81090 35552 c0 -17 27 -59 69 -107 67 -77 251 -266 251 -258 0 5
-59 71 -130 146 l-131 137 -29 47 -30 47 0 -12z"/>
<path d="M41300 35469 c0 -4 7 -24 16 -45 9 -22 50 -138 91 -259 41 -121 79
-227 84 -235 l8 -15 1 13 c1 38 -197 574 -200 541z"/>
<path d="M83425 34697 c-714 -467 -968 -637 -962 -644 3 -3 95 56 204 130 109
74 452 300 763 502 311 202 569 371 575 376 l9 9 -9 0 c-6 -1 -266 -169 -580
-373z"/>
<path d="M78470 34840 c-102 -55 -189 -101 -195 -103 -5 -3 -8 -7 -5 -10 5 -6
365 184 383 202 6 6 9 11 7 11 -3 0 -88 -45 -190 -100z"/>
<path d="M33572 34762 c-32 -83 -102 -322 -102 -346 l1 -21 35 120 c19 66 49
160 65 208 34 100 35 126 1 39z"/>
<path d="M59447 34514 c-103 -64 -186 -119 -183 -121 3 -3 87 46 188 108 l182
113 21 -2 20 -1 15 -19 c9 -10 48 -107 89 -216 40 -108 76 -195 78 -192 5 4
-140 399 -155 423 l-8 13 -29 5 -30 5 -188 -116z"/>
<path d="M81285 34591 c-15 -13 -605 -331 -615 -331 -5 0 -34 48 -65 106 -31
58 -59 103 -62 101 -2 -3 21 -51 51 -108 31 -56 56 -106 56 -111 l0 -9 13 3
c7 2 154 79 325 172 l312 168 0 9 c0 11 -4 11 -15 0z"/>
<path d="M59650 34583 c0 -7 4 -14 8 -17 5 -3 42 -96 83 -206 40 -111 75 -197
77 -192 1 5 -29 97 -69 203 l-71 194 -14 15 -14 14 0 -11z"/>
<path d="M57460 34526 c0 -4 54 -121 120 -259 l119 -251 28 -11 28 -12 39 -94
c64 -152 77 -181 82 -176 5 4 -104 266 -118 284 -5 6 -19 13 -30 15 l-20 3
-115 245 c-63 135 -119 249 -124 255 l-9 9 0 -8z"/>
<path d="M83059 34409 c-202 -133 -194 -127 -188 -133 2 -2 92 54 199 125 107
71 190 129 184 129 -5 0 -93 -54 -195 -121z"/>
<path d="M59085 34243 c-99 -62 -187 -118 -195 -124 l-15 -11 19 6 c15 5 361
219 375 232 2 2 2 6 0 7 -2 2 -85 -47 -184 -110z"/>
<path d="M72473 34343 c65 -2 168 -2 230 0 l112 3 -230 0 -230 0 118 -3z"/>
<path d="M62795 34291 l-6 -10 23 -14 c43 -27 328 -187 333 -187 3 0 5 6 5 13
l0 13 -167 94 c-93 51 -171 95 -175 97 -4 2 -9 -1 -13 -6z"/>
<path d="M77846 33518 c-3 -24 -7 -121 -9 -216 l-4 -173 7 8 7 8 6 208 c6 201
4 251 -7 165z"/>
<path d="M35280 33231 c8 -5 26 -12 40 -15 l25 -7 -19 15 -20 16 -20 0 -21 -1
15 -8z"/>
<path d="M1620 33014 c8 -3 100 -10 203 -17 l189 -13 3 7 4 6 -177 11 c-97 7
-190 12 -207 11 l-30 -1 15 -4z"/>
<path d="M98940 32244 c0 -5 5 -25 11 -44 l11 -35 -1 -70 -1 -70 -22 -60 -22
-60 -23 -28 c-34 -42 -28 -53 7 -13 l30 34 19 54 18 53 7 65 6 65 -14 54 c-8
29 -17 56 -20 59 l-6 5 0 -9z"/>
<path d="M98818 31737 l-27 -11 -10 -29 -11 -29 29 31 29 31 29 0 28 0 -15 10
c-17 11 -16 11 -52 -3z"/>
<path d="M98330 31706 l15 -14 66 -16 65 -16 43 0 42 0 65 16 c36 9 63 19 60
21 -3 3 -36 -2 -75 -12 l-69 -17 -72 11 c-39 6 -88 18 -107 26 -44 19 -51 19
-33 1z"/>
<path d="M98907 31692 c78 -120 270 -392 276 -392 4 0 -33 60 -83 133 -51 72
-115 167 -144 209 -28 43 -55 78 -59 78 l-9 0 19 -28z"/>
<path d="M95310 26779 c-96 -71 -177 -134 -179 -140 -3 -9 325 226 359 257
l14 14 -9 -1 c-6 0 -89 -58 -185 -130z"/>
<path d="M94820 26724 c-102 -74 -187 -139 -189 -145 -2 -6 48 26 110 72 63
45 148 107 189 137 41 30 79 59 85 63 l9 9 -9 0 c-6 -1 -93 -61 -195 -136z"/>
<path d="M23638 26493 c6 -2 18 -2 25 0 l12 5 -25 0 -25 0 13 -5z"/>
<path d="M23703 26483 c9 -2 25 -2 35 0 l17 5 -35 0 -35 0 18 -5z"/>
<path d="M23793 26473 c9 -2 23 -2 30 0 l12 5 -30 0 -30 0 18 -5z"/>
<path d="M23873 26463 c9 -2 23 -2 30 0 l12 5 -30 0 -30 0 18 -5z"/>
<path d="M77650 26177 l0 -13 206 -96 205 -97 -3 17 -3 16 -195 92 c-107 51
-198 93 -202 93 -5 1 -8 -5 -8 -12z"/>
<path d="M87006 24931 l-28 -29 -30 9 -30 8 -27 -14 c-14 -7 -62 -51 -106 -97
l-80 -83 55 51 c30 27 75 67 99 88 l44 38 42 -5 42 -6 33 34 34 35 -10 0 c-6
0 -23 -13 -38 -29z"/>
<path d="M87023 24888 l-42 -41 -25 16 -25 17 -23 -9 -23 -9 -80 -81 c-44 -45
-75 -81 -70 -81 5 0 47 37 92 82 l82 82 41 -14 41 -14 47 47 47 47 -10 0 c-6
0 -29 -19 -52 -42z"/>
<path d="M90500 24839 c92 -9 321 -44 368 -56 l22 -5 0 8 0 9 -143 23 -142 22
-100 5 -100 4 95 -10z"/>
<path d="M86760 20814 c0 -9 94 -108 522 -551 59 -61 108 -108 108 -103 0 7
-334 363 -532 565 l-98 100 0 -11z"/>
<path d="M87075 20418 c96 -104 280 -288 288 -288 5 0 -62 74 -148 165 -87 91
-163 165 -168 165 l-11 0 39 -42z"/>
<path d="M96050 17462 c0 -6 66 -68 148 -140 81 -71 243 -215 361 -321 118
-105 219 -191 225 -191 l10 0 -9 8 c-300 269 -667 595 -696 620 l-39 34 0 -10z"/>
<path d="M92930 16991 c0 -11 320 -295 326 -289 2 3 -70 71 -161 152 -91 80
-165 142 -165 137z"/>
<path d="M92348 16592 c-92 -69 -165 -128 -163 -130 6 -6 335 240 335 250 0
11 13 20 -172 -120z"/>
<path d="M7325 15433 c-110 -14 -202 -27 -204 -29 -2 -2 -2 -7 2 -10 l5 -6
215 26 c118 14 219 26 226 26 6 0 11 5 11 10 l0 10 -27 -1 c-16 -1 -118 -13
-228 -26z"/>
<path d="M96565 12938 c-124 -144 -151 -178 -142 -178 4 0 91 99 255 293 8 9
13 19 11 21 -2 2 -58 -59 -124 -136z"/>
<path d="M21860 3121 c0 -5 60 -53 133 -107 72 -54 397 -309 720 -567 l588
-469 6 6 7 6 -15 14 c-8 8 -261 211 -564 452 -485 387 -855 674 -870 674 -3 0
-5 -4 -5 -9z"/>
<path d="M31474 2842 c-17 -15 -74 -81 -126 -147 l-95 -120 -61 -105 -60 -105
-67 -160 -67 -160 -39 -65 -39 -65 -47 -50 c-27 -28 -68 -67 -93 -87 l-45 -36
7 -7 7 -8 53 43 c70 57 111 102 163 180 l43 65 76 180 76 180 65 108 65 108
82 102 c45 56 97 117 115 135 18 18 33 35 33 37 0 11 -17 3 -46 -23z"/>
<path d="M12696 1988 c-14 -82 -35 -260 -40 -328 l-5 -75 9 20 c5 11 9 41 9
67 1 46 37 311 46 336 l4 12 -9 0 -9 0 -5 -32z"/>
<path d="M21263 1030 c-13 -5 -62 -16 -110 -25 l-88 -15 -102 0 -103 0 0 -15
0 -15 93 0 92 0 90 15 c50 8 109 20 133 26 l42 12 0 13 0 14 -12 -1 c-7 0 -23
-4 -35 -9z"/>
</g>
</svg>
