<?xml version="1.0" standalone="no"?>
<!DOCTYPE svg PUBLIC "-//W3C//DTD SVG 20010904//EN"
 "http://www.w3.org/TR/2001/REC-SVG-20010904/DTD/svg10.dtd">
<svg version="1.0" xmlns="http://www.w3.org/2000/svg"
 width="7500.000000pt" height="7500.000000pt" viewBox="0 0 7500.000000 7500.000000"
 preserveAspectRatio="xMidYMid meet">
<metadata>
Created by potrace 1.16, written by Peter Selinger 2001-2019
</metadata>
<g transform="translate(0.000000,7500.000000) scale(0.075000,-0.075000)"
fill="#000000" stroke="none">
<path d="M83425 99015 c134 -80 274 -150 283 -141 2 3 -6 10 -19 15 -70 26
-109 46 -228 115 -71 42 -138 79 -148 82 -10 4 41 -29 112 -71z"/>
<path d="M84343 98843 l-173 -3 0 -12 0 -11 137 6 c75 4 160 7 190 7 l53 0 0
10 0 10 -17 -2 c-10 -1 -96 -4 -190 -5z"/>
<path d="M83725 98825 l31 -13 139 -13 140 -12 245 1 245 1 25 10 25 11 -75
-6 c-41 -3 -151 -5 -245 -5 l-170 -1 -150 12 c-82 6 -166 15 -185 20 -49 14
-61 11 -25 -5z"/>
<path d="M85537 97939 l-108 -17 -37 -15 c-90 -37 -134 -58 -130 -62 2 -3 41
11 85 30 l81 35 108 17 c60 9 111 18 113 20 14 10 -16 8 -112 -8z"/>
<path d="M36190 97425 c0 -6 16 -70 34 -143 l34 -133 -26 -11 -27 -10 -50 6
c-27 3 -61 9 -75 12 l-25 7 10 -10 c6 -6 37 -15 70 -22 l60 -11 38 11 37 10 0
15 c0 25 -62 268 -71 279 l-9 9 0 -9z"/>
<path d="M97916 94799 l-156 -160 6 -11 6 -10 90 88 c49 49 121 124 159 166
l70 76 -10 6 -9 6 -156 -161z"/>
<path d="M98411 94883 c2 -5 40 -43 84 -84 l80 -75 58 -33 c80 -45 83 -33 4
16 -35 22 -101 73 -147 113 -45 41 -81 69 -79 63z"/>
<path d="M31640 94761 c0 -5 69 -60 153 -122 83 -62 166 -123 184 -136 l31
-24 6 10 6 9 -182 136 c-101 75 -186 136 -190 136 -5 0 -8 -4 -8 -9z"/>
<path d="M87651 93201 c-105 -109 -191 -201 -191 -205 0 -3 90 85 200 196
l199 203 80 -81 80 -80 14 8 c8 4 27 8 43 10 l29 2 38 -13 c21 -7 41 -11 44
-8 2 3 -20 13 -50 23 l-54 17 -30 -11 -30 -10 -74 74 -73 74 -17 0 -17 0 -191
-199z"/>
<path d="M21880 92620 l0 -13 7 6 6 7 -6 7 -7 6 0 -13z"/>
<path d="M21975 92594 c28 -8 91 -30 140 -48 121 -46 157 -57 163 -51 3 2 -1
7 -9 9 -8 3 -41 15 -74 27 -147 53 -193 68 -230 73 l-40 5 50 -15z"/>
<path d="M23520 92142 l0 -8 183 -48 c100 -27 191 -51 202 -53 l20 -4 -15 9
c-8 6 -78 26 -155 47 -77 20 -161 43 -187 50 l-48 14 0 -7z"/>
<path d="M95197 91813 c-63 -76 -134 -156 -156 -178 l-41 -39 0 -14 0 -13 -9
5 -9 6 -67 -88 c-69 -90 -180 -211 -230 -250 l-28 -23 10 -10 10 -10 76 71 77
72 101 129 c55 72 107 133 114 135 7 3 55 56 106 117 51 62 112 135 136 164
l44 51 -10 6 -9 6 -115 -137z"/>
<path d="M85588 91871 l-54 -58 -67 -121 c-37 -67 -67 -126 -67 -132 0 -27 21
1 84 116 l70 125 53 59 c29 32 53 61 53 64 0 17 -23 0 -72 -53z"/>
<path d="M94970 90806 l0 -19 31 -48 c16 -26 50 -66 74 -88 l43 -40 59 -29
c83 -42 213 -95 219 -89 3 2 -32 19 -78 38 -45 18 -113 51 -151 73 l-68 39
-43 48 c-24 27 -53 68 -65 91 l-21 43 0 -19z"/>
<path d="M94956 90728 c9 -18 39 -57 68 -86 l51 -54 40 -20 c70 -37 265 -116
265 -109 0 4 -37 22 -82 41 -46 18 -110 47 -142 63 l-60 29 -57 55 -57 54 -12
30 c-7 16 -16 29 -21 29 l-10 0 17 -32z"/>
<path d="M54025 90612 c83 -43 176 -94 208 -115 l57 -37 0 9 c0 16 -372 221
-401 221 -8 0 54 -35 136 -78z"/>
<path d="M30745 90230 c3 -5 8 -10 11 -10 3 0 2 5 -1 10 -3 6 -8 10 -11 10 -3
0 -2 -4 1 -10z"/>
<path d="M30811 90146 c9 -10 263 -105 268 -101 6 7 3 9 -74 40 -91 36 -206
72 -194 61z"/>
<path d="M97872 89259 l-144 -8 -6 -6 -7 -7 155 7 c85 4 193 11 240 15 l85 7
-90 0 c-49 0 -155 -4 -233 -8z"/>
<path d="M86360 88980 c41 -5 125 -11 185 -15 l110 -6 65 10 65 9 -135 -1
c-74 0 -187 2 -250 5 l-115 6 75 -8z"/>
<path d="M86780 88933 l0 -9 108 -13 107 -12 124 -30 c68 -16 126 -27 129 -24
7 6 -7 10 -133 39 -60 14 -148 30 -195 36 -47 6 -97 13 -112 16 l-28 6 0 -9z"/>
<path d="M84590 88785 l-285 -64 -115 -12 c-141 -14 -161 -24 -30 -15 l95 7
310 66 c171 36 314 69 320 74 l9 9 -9 -1 c-6 0 -138 -29 -295 -64z"/>
<path d="M13360 88791 l0 -9 143 -62 c78 -34 171 -75 206 -91 l63 -29 10 6 10
6 -199 87 c-109 48 -206 90 -215 94 l-18 6 0 -8z"/>
<path d="M15156 88342 l-5 -9 200 -102 199 -103 13 5 12 4 -184 92 c-102 51
-195 99 -207 108 l-22 14 -6 -9z"/>
<path d="M84807 87985 c-53 -107 -93 -195 -89 -195 10 0 198 378 191 384 -2 3
-48 -82 -102 -189z"/>
<path d="M90306 87971 l-200 -67 -4 -12 -4 -12 8 0 c5 0 100 30 211 67 l203
68 0 12 c0 7 -3 13 -7 12 -5 0 -98 -31 -207 -68z"/>
<path d="M84277 86933 c-20 -48 -41 -94 -46 -101 l-8 -13 -74 21 c-75 20 -96
24 -87 15 7 -7 144 -45 161 -45 l14 0 42 96 c23 52 41 100 39 105 l-3 10 -38
-88z"/>
<path d="M83681 86916 c2 -2 65 -21 139 -41 74 -20 156 -43 183 -50 l47 -14 0
7 0 7 -177 48 c-167 45 -202 53 -192 43z"/>
<path d="M88636 86233 c-31 -103 -106 -397 -103 -406 2 -6 29 85 61 202 31
117 55 215 52 218 -2 2 -7 -4 -10 -14z"/>
<path d="M56558 85804 l-6 -6 45 -101 c25 -56 47 -105 49 -109 l5 -7 13 5 14
5 -47 107 -47 106 -10 3 c-6 2 -13 1 -16 -3z"/>
<path d="M80426 85752 c25 -22 379 -155 396 -150 l12 4 -130 47 c-71 25 -163
60 -203 77 -77 31 -91 36 -75 22z"/>
<path d="M56250 85570 l0 -10 195 0 195 0 0 10 0 10 -195 0 -195 0 0 -10z"/>
<path d="M21820 85146 c0 -3 85 -50 189 -105 l188 -101 228 -100 c126 -55 233
-100 239 -100 l10 0 -9 9 c-6 6 -113 55 -239 110 l-229 101 -178 95 c-163 87
-199 103 -199 91z"/>
<path d="M88206 84765 c-27 -102 -46 -188 -43 -191 6 -7 7 -5 57 186 23 85 43
163 46 173 l5 17 -8 0 -8 0 -49 -185z"/>
<path d="M83338 84342 l-197 -175 5 -9 5 -8 172 156 c214 195 222 202 216 208
-2 2 -93 -75 -201 -172z"/>
<path d="M80090 84474 c53 -25 406 -146 395 -136 -9 8 -374 139 -415 149 -8 2
1 -4 20 -13z"/>
<path d="M76997 83349 c-65 -105 -116 -193 -114 -196 4 -3 175 264 241 375 l7
12 -8 0 c-4 -1 -61 -87 -126 -191z"/>
<path d="M77930 83511 c0 -4 82 -33 182 -65 99 -32 188 -60 197 -63 l16 -6
-10 10 c-5 6 -75 32 -155 57 -80 26 -164 53 -187 61 l-43 14 0 -8z"/>
<path d="M77920 83472 l0 -8 196 -63 196 -62 5 5 6 6 -14 4 c-8 3 -95 31 -194
62 -99 31 -183 58 -187 61 l-8 4 0 -9z"/>
<path d="M62638 83307 l-177 -132 8 -8 8 -8 181 133 c100 73 182 136 182 141
1 20 -39 -5 -202 -126z"/>
<path d="M30390 83061 c0 -16 83 -76 226 -164 78 -48 149 -90 158 -93 l16 -6
0 8 c0 5 -70 52 -156 104 -86 52 -173 110 -194 128 -40 33 -50 38 -50 23z"/>
<path d="M84660 82895 c0 -5 38 -98 85 -205 47 -107 85 -201 85 -207 l0 -13
11 0 10 0 -6 23 c-26 83 -185 430 -185 402z"/>
<path d="M92540 82403 c-58 -80 -109 -153 -114 -161 l-8 -14 10 3 c9 3 194
256 226 307 l7 12 -8 0 c-5 0 -56 -66 -113 -147z"/>
<path d="M46905 82413 c-17 -90 -46 -345 -39 -352 11 -12 18 20 30 141 7 73
20 166 29 206 17 85 18 92 6 92 l-8 0 -18 -87z"/>
<path d="M18020 82127 l0 -12 213 -48 c223 -50 237 -52 237 -39 l0 9 -167 37
c-93 20 -194 43 -225 51 l-58 13 0 -11z"/>
<path d="M75133 81493 l-32 -98 -21 -121 c-23 -140 -23 -134 -12 -134 l9 0 18
123 18 122 34 99 c37 113 36 106 25 106 l-8 0 -31 -97z"/>
<path d="M70930 81320 c0 -11 167 -421 175 -428 3 -3 8 -2 11 1 l7 6 -88 216
-89 215 -8 0 c-4 0 -8 -4 -8 -10z"/>
<path d="M95662 80722 c-171 -240 -329 -463 -353 -496 l-42 -59 11 4 c10 4
115 150 574 797 72 101 128 185 126 187 -3 3 -144 -192 -316 -433z"/>
<path d="M42355 79550 l-30 -8 33 -1 32 -1 0 10 c0 6 -1 9 -2 9 -2 -1 -16 -5
-33 -9z"/>
<path d="M76374 78530 c-93 -71 -170 -134 -172 -140 l-4 -10 11 0 c15 0 351
259 351 271 0 5 -4 9 -8 9 -5 0 -85 -58 -178 -130z"/>
<path d="M99198 78223 c-49 -142 -59 -177 -43 -161 3 3 30 75 60 161 l55 157
-8 0 -8 0 -56 -157z"/>
<path d="M74838 76960 l-86 -80 -16 -47 -16 -47 0 -48 0 -48 15 0 15 0 0 50 0
51 14 32 14 32 85 84 86 85 -5 8 c-9 15 -18 9 -106 -72z"/>
<path d="M4800 75150 l0 -10 23 -5 c12 -2 112 -20 222 -39 l200 -35 9 9 9 9
-14 5 c-19 7 -415 76 -434 76 l-15 0 0 -10z"/>
<path d="M5720 75016 l0 -16 18 0 c9 0 109 -9 222 -20 243 -24 220 -23 220 -7
l0 13 -207 18 c-115 10 -218 20 -230 23 l-23 5 0 -16z"/>
<path d="M31040 74791 c0 -10 4 -12 100 -46 61 -22 316 -95 332 -95 5 0 8 4 8
8 l0 9 -127 33 c-71 18 -170 48 -220 66 l-93 34 0 -9z"/>
<path d="M12200 74471 l0 -9 63 -6 c34 -3 136 -11 226 -17 l163 -11 10 10 10
10 -43 6 c-63 8 -329 26 -383 26 l-46 0 0 -9z"/>
<path d="M72165 73194 l-58 -134 -48 -79 -47 -79 6 -6 c12 -13 22 -2 70 82 44
77 67 125 142 299 l19 41 -13 5 -13 5 -58 -134z"/>
<path d="M74398 70685 l-6 -70 66 -370 65 -370 9 -10 10 -10 -5 20 c-4 11 -32
162 -63 335 l-58 315 -6 115 -6 115 -6 -70z"/>
<path d="M70835 68399 l-230 -58 -20 5 -20 6 12 -12 12 -13 233 58 c128 32
237 62 243 66 5 5 7 9 5 8 -3 0 -108 -27 -235 -60z"/>
<path d="M85590 68300 c0 -5 -79 -75 -175 -156 -97 -81 -174 -149 -171 -151 6
-7 338 272 354 297 l12 20 -10 0 c-5 0 -10 -4 -10 -10z"/>
<path d="M36701 68044 c-34 -85 -61 -160 -59 -166 l4 -10 51 128 c28 71 58
146 67 167 l16 37 -8 0 -8 0 -63 -156z"/>
<path d="M38888 66902 l-198 -15 0 -6 0 -6 219 15 219 15 8 8 7 7 -29 -1 c-16
-1 -118 -9 -226 -17z"/>
<path d="M37016 66839 c-76 -4 -141 -11 -145 -14 l-6 -7 150 7 c83 4 188 11
235 15 l85 7 -90 0 c-49 0 -152 -4 -229 -8z"/>
<path d="M36040 66551 c0 -4 62 -59 138 -121 75 -63 145 -120 155 -128 9 -9
19 -13 22 -11 2 3 -67 64 -155 137 -88 73 -160 128 -160 123z"/>
<path d="M74670 66484 c0 -7 42 -111 94 -232 l93 -221 -5 -27 -5 -27 12 7 11
7 0 18 c0 20 -199 493 -200 475z"/>
<path d="M97236 66182 l-229 -57 -5 -14 -5 -14 24 6 c13 3 122 29 242 58 l217
53 0 13 c0 16 24 21 -244 -45z"/>
<path d="M97514 66144 c3 -11 22 -98 41 -194 20 -96 39 -183 42 -194 l5 -18 8
8 8 9 -42 199 -42 200 -13 4 -13 4 6 -18z"/>
<path d="M97462 66128 c3 -13 22 -107 44 -210 l38 -188 8 0 c13 0 10 20 -32
221 -22 106 -40 193 -40 195 0 2 -5 4 -11 4 l-11 0 4 -22z"/>
<path d="M65580 66103 c0 -6 35 -44 78 -84 84 -80 242 -205 242 -192 0 5 -35
35 -77 68 -43 33 -115 96 -160 139 l-83 80 0 -11z"/>
<path d="M94504 66085 c7 -42 43 -270 52 -330 3 -27 11 -57 16 -65 l9 -15 -5
30 c-2 17 -17 111 -32 210 l-27 180 -9 10 -10 10 6 -30z"/>
<path d="M49130 65906 c0 -9 340 -249 345 -244 3 3 -68 57 -157 120 -177 124
-188 132 -188 124z"/>
<path d="M95058 65707 l-488 -91 0 -13 0 -13 23 5 c12 3 231 43 487 90 507 94
500 92 500 106 l0 9 -17 -1 c-10 0 -237 -42 -505 -92z"/>
<path d="M94530 65663 c-250 -47 -457 -86 -459 -88 -1 -2 -1 -8 0 -13 l4 -9
370 68 c204 38 423 78 487 90 l118 22 -6 8 -5 9 -27 -1 c-15 -1 -232 -39 -482
-86z"/>
<path d="M83701 65663 c3 -27 12 -64 19 -83 l13 -35 47 -60 c86 -111 107 -162
195 -465 44 -154 44 -154 50 -149 5 6 -94 354 -124 434 -26 70 -49 109 -109
188 l-45 59 -18 49 -19 49 0 30 0 30 -8 0 -8 0 7 -47z"/>
<path d="M46962 65528 c-56 -84 -99 -154 -97 -157 6 -6 -2 -18 114 157 56 83
97 152 93 152 -5 0 -54 -68 -110 -152z"/>
<path d="M92418 65067 l-208 -80 0 -13 c0 -8 2 -14 4 -14 4 0 420 161 423 164
1 1 -1 7 -5 13 l-7 11 -207 -81z"/>
<path d="M3617 64898 l-5 -53 9 -9 9 -10 0 62 c0 34 -2 62 -4 62 -2 0 -6 -24
-9 -52z"/>
<path d="M47371 64766 c10 -11 405 -176 419 -176 8 1 -79 41 -195 90 -188 80
-238 100 -224 86z"/>
<path d="M96427 64732 l-47 -36 -95 -132 c-52 -73 -95 -135 -95 -138 0 -23 30
11 115 129 53 74 100 135 103 135 4 1 24 16 46 34 l39 33 -9 6 -10 5 -47 -36z"/>
<path d="M4 64682 l6 -10 82 -6 83 -6 50 9 50 8 -105 0 c-58 0 -120 4 -139 8
l-34 7 7 -10z"/>
<path d="M70704 64493 c52 -104 97 -198 101 -210 l6 -23 10 0 10 0 -4 8 c-2 4
-48 98 -102 210 -54 111 -102 202 -107 202 l-8 0 94 -187z"/>
<path d="M37060 64570 l0 -19 38 -11 c20 -5 111 -19 202 -30 91 -11 178 -22
193 -25 l28 -5 6 16 5 15 -6 6 c-3 3 -89 16 -190 29 -101 12 -201 27 -222 33
-22 6 -42 11 -46 11 l-8 0 0 -20z"/>
<path d="M77173 64306 c4 -95 10 -187 13 -205 l7 -31 9 0 10 0 -6 28 c-3 15
-9 107 -12 205 l-7 177 -10 0 -10 0 6 -174z"/>
<path d="M45160 64403 l0 -9 238 -85 c214 -78 257 -91 240 -74 -3 3 -104 41
-224 85 -121 43 -227 82 -236 85 l-18 7 0 -9z"/>
<path d="M79418 64091 c-187 -24 -230 -33 -217 -45 3 -2 421 48 437 53 6 2 1
21 -5 20 -5 -1 -101 -13 -215 -28z"/>
<path d="M40072 64085 l-12 -25 9 0 c4 0 13 11 19 25 l12 25 -9 0 c-4 0 -13
-11 -19 -25z"/>
<path d="M77270 63995 c0 -11 55 -56 94 -76 l38 -21 10 10 9 9 -31 13 c-17 7
-47 26 -67 41 -34 27 -53 36 -53 24z"/>
<path d="M77350 63851 c-14 -3 -40 -14 -58 -24 l-33 -18 6 -9 6 -9 32 19 c18
10 49 22 70 25 l37 7 0 9 0 9 -17 -1 c-10 -1 -29 -4 -43 -8z"/>
<path d="M90097 63644 c-152 -133 -183 -164 -159 -164 5 0 84 65 176 146 l167
145 -6 10 c-4 5 -7 9 -8 9 -1 0 -77 -66 -170 -146z"/>
<path d="M89663 63303 l-213 -217 9 -9 9 -9 214 217 c117 119 215 221 216 226
l4 9 -13 0 -13 0 -213 -217z"/>
<path d="M7306 63461 c9 -9 386 -131 401 -130 11 0 -388 139 -401 139 l-10 0
10 -9z"/>
<path d="M41033 63357 c-34 -29 -62 -56 -62 -60 -1 -10 39 19 99 72 66 59 35
49 -37 -12z"/>
<path d="M97180 63361 c0 -3 53 -26 118 -50 64 -24 159 -63 210 -87 105 -48
123 -50 30 -3 -76 39 -358 149 -358 140z"/>
<path d="M16357 63315 l-17 -36 0 -39 0 -40 29 -32 29 -33 7 7 7 7 -26 31 -26
32 0 28 c0 15 7 44 15 63 17 42 18 47 7 47 -5 0 -16 -16 -25 -35z"/>
<path d="M36830 63313 l0 -9 183 -28 c100 -15 193 -30 207 -32 l25 -4 -20 9
c-11 6 -92 21 -180 36 -88 14 -172 28 -187 31 l-28 6 0 -9z"/>
<path d="M41987 63280 c46 -61 225 -261 231 -256 2 3 -37 52 -88 108 -51 57
-107 122 -124 145 -17 23 -35 42 -39 43 -5 0 4 -18 20 -40z"/>
<path d="M13735 63080 l-30 -8 160 1 160 2 35 -8 35 -7 -30 14 -30 15 -135 -1
-135 0 -30 -8z"/>
<path d="M38466 62772 c-27 -169 -47 -314 -45 -321 l4 -12 48 303 c27 167 51
311 53 321 l5 17 -8 0 -8 0 -49 -308z"/>
<path d="M15077 63023 c-4 -3 -7 -19 -7 -34 l0 -28 10 -6 11 -7 -3 41 c-2 23
-3 41 -4 41 0 0 -4 -3 -7 -7z"/>
<path d="M10000 63008 l0 -8 88 1 c91 2 81 6 -26 11 l-62 3 0 -7z"/>
<path d="M10293 62993 c9 -2 23 -2 30 0 l12 5 -30 0 -30 0 18 -5z"/>
<path d="M16620 62990 c-80 -4 -166 -8 -192 -9 l-48 -1 0 -16 0 -15 153 6 c83
3 185 8 225 11 l72 6 0 14 0 14 -32 -2 c-18 -1 -98 -5 -178 -8z"/>
<path d="M15948 62983 l13 -5 6 6 6 6 -19 -1 -19 -1 13 -5z"/>
<path d="M3540 62973 c0 -5 61 -92 87 -122 2 -3 8 0 14 6 l11 11 -41 56 -42
56 -14 0 c-8 0 -15 -3 -15 -7z"/>
<path d="M17315 62963 c-22 -2 -155 -12 -295 -23 -140 -11 -271 -22 -290 -23
l-35 -4 60 -2 c55 -1 483 29 670 48 l80 8 -75 0 c-41 0 -93 -2 -115 -4z"/>
<path d="M51550 62773 c-40 -87 -82 -170 -91 -184 l-18 -26 6 -7 c19 -19 31 0
127 207 l69 148 -10 10 -10 10 -73 -158z"/>
<path d="M90830 62875 c0 -6 68 -78 150 -160 83 -82 150 -145 150 -140 0 6
-67 78 -150 160 -82 82 -150 145 -150 140z"/>
<path d="M58412 62714 c-101 -70 -181 -128 -178 -131 4 -4 341 222 371 249 l9
8 -9 0 c-6 0 -92 -57 -193 -126z"/>
<path d="M94156 62812 l-4 -7 214 -79 214 -79 7 7 c3 3 4 8 2 9 -5 4 -418 157
-424 157 -2 0 -6 -3 -9 -8z"/>
<path d="M16665 62598 l-7 -63 -45 -89 c-24 -48 -42 -90 -39 -93 3 -3 25 35
50 85 l45 90 7 66 c4 36 4 66 1 66 -3 0 -8 -28 -12 -62z"/>
<path d="M89022 62421 c2 -5 81 -75 176 -156 l174 -146 11 4 11 3 -180 152
c-98 84 -183 152 -187 152 l-9 0 4 -9z"/>
<path d="M42545 62178 c-66 -60 -171 -153 -233 -205 -62 -53 -111 -98 -108
-100 10 -10 466 391 466 409 0 4 -1 8 -2 7 -2 0 -57 -50 -123 -111z"/>
<path d="M80131 61748 c-6 -29 -24 -127 -41 -217 l-31 -164 8 -8 9 -9 38 202
c21 112 40 213 43 226 l5 22 -10 0 -11 0 -10 -52z"/>
<path d="M61590 61701 c0 -14 88 -428 96 -450 2 -8 7 -12 9 -9 2 2 -18 107
-45 233 -45 206 -60 263 -60 226z"/>
<path d="M60771 61555 c-33 -38 -37 -50 -21 -60 l10 -6 0 10 c0 6 14 26 30 45
l31 34 -10 6 -9 6 -31 -35z"/>
<path d="M60605 61460 l-6 -9 20 -10 c11 -6 32 -11 48 -11 l28 1 18 13 18 14
-10 6 -10 7 -20 -13 -21 -13 -30 12 -30 11 -5 -8z"/>
<path d="M60015 61033 c-44 -41 -117 -104 -162 -140 -73 -59 -96 -83 -77 -83
11 0 171 131 253 208 l85 78 -10 6 -9 6 -80 -75z"/>
<path d="M92767 60943 l-6 -6 47 -30 47 -30 144 -59 c79 -33 145 -57 147 -55
3 2 -21 15 -53 27 -131 53 -238 102 -278 130 l-42 29 -6 -6z"/>
<path d="M49963 60764 c-35 -36 -63 -70 -63 -77 l0 -11 8 10 c5 5 37 39 72 77
35 37 59 67 54 67 -5 0 -37 -29 -71 -66z"/>
<path d="M60840 60794 c0 -18 80 -377 85 -382 3 -3 5 -1 5 4 0 20 -79 376 -84
382 l-6 5 0 -9z"/>
<path d="M86255 60431 c77 -84 150 -165 162 -180 11 -14 24 -24 27 -21 6 7
-297 343 -315 349 -7 2 49 -65 126 -148z"/>
<path d="M50403 60424 c8 -8 977 -63 1122 -64 l120 0 140 22 140 22 -18 4
c-10 2 -63 -3 -118 -12 l-100 -16 -202 0 -202 0 -425 25 c-234 14 -434 25
-444 25 l-19 0 6 -6z"/>
<path d="M62595 60359 c-77 -16 -164 -34 -193 -40 -30 -6 -51 -13 -49 -16 7
-6 367 66 387 78 l15 8 -10 0 c-5 0 -73 -13 -150 -30z"/>
<path d="M62715 60340 l-20 -9 20 0 c11 0 27 4 35 9 l15 10 -15 -1 c-8 0 -24
-4 -35 -9z"/>
<path d="M63525 60260 c38 -191 89 -417 96 -424 l8 -9 -5 19 c-2 10 -22 105
-44 209 -23 105 -45 199 -51 210 l-10 20 6 -25z"/>
<path d="M62155 60229 c-99 -21 -196 -40 -215 -42 l-35 -4 4 -9 c7 -18 11 -33
46 -198 31 -149 45 -201 45 -170 0 5 -16 87 -36 183 l-36 173 10 7 c6 4 101
24 212 46 l200 39 0 8 c0 10 16 13 -195 -33z"/>
<path d="M58642 60190 c-18 -4 -36 -10 -39 -14 l-6 -6 38 3 38 2 43 -80 c36
-66 147 -302 236 -503 11 -24 22 -42 24 -39 8 8 -289 650 -299 646 -1 -1 -17
-5 -35 -9z"/>
<path d="M57280 60123 c0 -27 -7 -84 -15 -127 -14 -71 -14 -98 0 -85 9 10 35
165 35 212 l0 47 -10 0 -10 0 0 -47z"/>
<path d="M83370 59965 c0 -14 50 -102 134 -235 51 -80 143 -235 206 -345 125
-221 118 -210 124 -204 6 6 -233 424 -330 576 -46 73 -93 151 -104 173 -18 36
-30 49 -30 35z"/>
<path d="M93030 59944 c25 -14 74 -41 110 -59 36 -18 90 -52 119 -75 29 -23
54 -40 56 -38 9 9 -108 88 -206 141 -108 58 -162 79 -79 31z"/>
<path d="M58850 59931 c0 -7 44 -113 99 -235 54 -121 122 -281 152 -353 30
-73 57 -133 61 -133 4 0 -11 44 -33 98 -130 313 -279 645 -279 623z"/>
<path d="M16481 59891 l-14 -9 24 -4 24 -3 23 -66 23 -65 32 -11 c18 -6 50
-14 72 -18 22 -4 68 -18 103 -32 35 -14 66 -23 69 -20 8 9 -96 50 -181 72
l-80 20 -20 60 c-30 88 -40 98 -75 76z"/>
<path d="M53258 59578 c-29 -56 -48 -98 -43 -98 7 0 77 132 72 137 -3 3 -16
-15 -29 -39z"/>
<path d="M83629 59448 c32 -57 82 -145 111 -196 28 -51 54 -91 57 -89 6 7
-210 387 -219 387 -4 0 19 -46 51 -102z"/>
<path d="M61373 59292 l-212 -47 -8 -9 -8 -9 15 5 c8 3 107 24 220 48 113 23
209 47 215 51 l9 9 -9 -1 c-6 0 -105 -22 -222 -47z"/>
<path d="M57195 59322 c13 -13 424 -166 431 -160 4 4 -121 52 -421 164 l-20 7
10 -11z"/>
<path d="M57180 59281 c29 -17 422 -162 427 -158 2 3 -29 17 -69 33 -40 15
-136 51 -213 81 -77 29 -144 53 -150 53 l-10 -1 15 -8z"/>
<path d="M63849 58918 c4 -13 25 -114 46 -225 l39 -203 6 0 7 0 -45 225 -45
225 -8 0 -9 0 9 -22z"/>
<path d="M62870 58807 c-196 -40 -208 -43 -198 -52 5 -5 398 72 405 79 15 15
-36 8 -207 -27z"/>
<path d="M53460 58584 c0 -12 286 -682 343 -804 20 -41 36 -70 36 -63 1 7 -23
65 -53 130 -30 65 -111 253 -181 418 -70 165 -131 307 -136 315 l-8 15 -1 -11z"/>
<path d="M61518 58517 c-109 -29 -198 -55 -198 -59 l0 -6 213 55 c116 30 214
57 216 59 12 11 -52 -2 -231 -49z"/>
<path d="M85820 58544 c0 -13 215 -414 223 -414 16 0 2 32 -100 221 -94 172
-123 219 -123 193z"/>
<path d="M59986 58361 c13 -12 364 -141 383 -141 13 1 -373 149 -388 150 -3 0
-1 -4 5 -9z"/>
<path d="M55900 58352 l0 -8 68 -17 c148 -37 412 -108 505 -136 l97 -29 0 7
c0 8 -258 85 -486 146 -187 49 -184 49 -184 37z"/>
<path d="M49480 58291 c8 -5 85 -36 170 -69 l155 -60 217 -105 217 -105 88
-27 c48 -14 94 -28 101 -30 l12 -4 0 7 0 7 -87 24 -88 24 -217 108 -216 108
-171 66 c-94 36 -176 65 -183 65 l-13 -1 15 -8z"/>
<path d="M63995 58008 c3 -13 43 -214 90 -447 75 -375 94 -459 95 -425 1 5
-39 208 -87 452 l-88 442 -8 0 -7 0 5 -22z"/>
<path d="M63075 57980 c-71 -15 -157 -33 -190 -40 l-60 -13 11 -4 c12 -4 405
75 413 83 10 10 -52 1 -174 -26z"/>
<path d="M62125 57820 c-121 -26 -211 -49 -199 -49 26 -1 402 77 429 89 l20 9
-15 -1 c-8 0 -114 -22 -235 -48z"/>
<path d="M82635 57804 l-40 -15 -170 -26 c-93 -14 -172 -28 -174 -30 -3 -2 0
-7 5 -12 l9 -9 175 28 c96 16 192 35 213 41 l37 12 0 14 c0 16 -4 16 -55 -3z"/>
<path d="M55476 57784 c-104 -13 -194 -25 -200 -28 l-11 -4 20 -1 c34 -1 416
47 422 53 l6 6 -24 -1 c-13 -1 -109 -12 -213 -25z"/>
<path d="M51245 57787 l-8 -19 25 -25 26 -25 138 -29 c77 -15 150 -28 164 -29
l24 0 -9 9 c-6 4 -73 20 -150 35 l-140 28 -23 14 -23 15 -9 22 -8 22 -7 -18z"/>
<path d="M55490 57749 c-118 -16 -216 -28 -217 -29 -2 0 -3 -4 -3 -8 l0 -8
216 27 c194 24 236 32 223 42 -2 2 -101 -9 -219 -24z"/>
<path d="M80820 57575 c-141 -38 -325 -127 -487 -236 l-83 -56 -65 -62 -65
-63 6 -9 6 -10 71 64 c132 116 294 217 476 296 l90 39 75 18 76 18 0 13 c0 16
4 16 -100 -12z"/>
<path d="M76165 57419 l-140 -9 -65 -14 -65 -14 20 -1 c11 0 61 6 110 14 l90
15 98 0 97 0 0 10 c0 6 -1 9 -2 8 -2 0 -66 -5 -143 -9z"/>
<path d="M54041 57274 c0 -5 40 -88 87 -184 l87 -175 30 -2 30 -2 -25 7 -25 7
-85 172 c-47 94 -88 175 -92 179 l-8 7 1 -9z"/>
<path d="M54007 57264 l-5 -5 84 -177 85 -177 21 -17 20 -18 32 1 31 1 -31 7
c-17 4 -36 11 -43 15 -13 9 -51 81 -131 253 l-57 123 -6 -6z"/>
<path d="M79450 56580 l-45 -30 -80 -27 c-44 -15 -114 -33 -155 -40 l-75 -12
70 3 70 3 96 33 96 33 39 33 c49 41 43 43 -16 4z"/>
<path d="M82733 56505 c4 -11 54 -220 112 -465 l106 -445 -4 -105 -4 -105 -28
-55 -27 -54 -47 -54 -46 -53 -50 -28 -50 -28 -142 -48 c-79 -27 -143 -52 -143
-56 l0 -7 113 39 c61 22 144 52 182 66 l70 26 58 61 59 60 26 51 27 50 11 53
11 52 -4 73 -4 72 -106 450 -106 450 -10 10 -9 10 5 -20z"/>
<path d="M82693 56497 c3 -7 27 -106 53 -220 27 -114 52 -207 56 -207 l6 0
-12 53 c-7 28 -30 127 -52 219 l-39 168 -9 0 -8 0 5 -13z"/>
<path d="M56945 56393 c11 -11 153 -139 315 -283 162 -145 322 -289 355 -319
143 -132 316 -283 321 -279 2 3 -35 40 -83 84 -49 43 -115 103 -148 134 -168
154 -757 675 -768 679 l-12 3 20 -19z"/>
<path d="M35715 56224 c-77 -74 -135 -134 -129 -132 16 4 290 268 279 268 -6
0 -73 -61 -150 -136z"/>
<path d="M44181 56255 l-1 -30 183 -162 c174 -155 297 -253 297 -236 0 4 -26
27 -58 50 -31 23 -133 110 -227 193 l-170 152 -12 32 -11 31 -1 -30z"/>
<path d="M64411 56247 c14 -7 33 -18 43 -26 l16 -13 0 -28 0 -27 -18 -16 -19
-17 -26 0 -26 0 -14 15 -15 14 -6 -6 -6 -6 17 -19 16 -18 38 0 38 0 20 26 21
27 0 32 0 32 -23 21 -23 22 -30 -1 -29 -1 26 -11z"/>
<path d="M64346 56231 l-18 -20 4 -11 3 -11 23 30 23 31 -9 0 c-5 0 -17 -9
-26 -19z"/>
<path d="M10235 55934 c-105 -71 -187 -114 -222 -114 l-22 0 -6 -10 -6 -10 21
0 c11 0 47 11 79 24 l60 24 105 72 c58 40 106 74 106 76 0 13 -29 -3 -115 -62z"/>
<path d="M61910 55549 c0 -8 14 -102 31 -209 l32 -195 9 -10 9 -10 -5 25 c-3
14 -19 110 -36 214 -27 170 -40 227 -40 185z"/>
<path d="M33101 55233 c2 -6 46 -54 97 -107 l93 -95 65 -21 c74 -22 82 -24 69
-11 -6 5 -35 16 -65 26 l-55 17 -104 102 c-57 55 -102 96 -100 89z"/>
<path d="M82750 55195 l-45 -34 -152 -53 c-84 -29 -153 -56 -153 -60 0 -4 69
18 154 47 l154 54 46 32 c25 18 46 36 46 41 0 11 0 11 -50 -27z"/>
<path d="M3030 55126 l0 -14 73 -26 c39 -14 137 -48 216 -76 l145 -50 10 10
c5 5 8 11 5 13 -2 2 -104 38 -226 80 l-223 76 0 -13z"/>
<path d="M51595 55030 c55 -4 215 -8 356 -9 l255 -1 47 -30 c57 -36 62 -26 7
13 l-40 28 -362 4 -363 3 100 -8z"/>
<path d="M53285 54930 c4 -14 9 -32 12 -42 l5 -16 -204 -304 c-282 -419 -550
-832 -583 -898 -24 -47 -65 -154 -65 -168 0 -2 6 1 14 7 l14 12 6 34 7 35 46
87 46 88 242 365 c133 201 299 452 369 558 l126 193 -20 37 -21 37 6 -25z"/>
<path d="M31653 54858 c-140 -222 -243 -408 -226 -408 5 0 21 30 37 66 24 53
82 152 223 377 2 4 2 7 -1 7 -3 0 -18 -19 -33 -42z"/>
<path d="M52245 54732 c-60 -92 -183 -265 -273 -385 -90 -121 -166 -225 -169
-233 l-5 -14 6 0 c22 0 568 781 555 794 -2 2 -53 -71 -114 -162z"/>
<path d="M50190 54573 c0 -12 38 -48 45 -41 3 2 -6 15 -20 28 l-25 23 0 -10z"/>
<path d="M51885 54403 c-165 -215 -178 -233 -168 -232 4 0 24 21 43 47 20 26
85 111 144 190 60 78 107 144 105 147 -3 2 -59 -66 -124 -152z"/>
<path d="M80975 54490 c-104 -26 -203 -50 -219 -54 -15 -4 -26 -9 -24 -12 5
-4 429 95 437 102 14 13 -24 6 -194 -36z"/>
<path d="M52824 54328 c-244 -376 -325 -496 -395 -591 l-72 -98 7 -6 c3 -4 7
-4 9 -2 53 66 140 190 197 279 40 63 143 222 228 353 85 131 152 240 150 243
-3 2 -58 -78 -124 -178z"/>
<path d="M49085 54222 l-229 -117 -3 -11 -4 -11 242 123 c133 68 245 126 247
129 23 22 -57 -13 -253 -113z"/>
<path d="M61341 54004 c-24 -132 -46 -246 -49 -254 l-5 -15 10 10 11 10 41
224 42 223 -3 20 -3 21 -44 -239z"/>
<path d="M80811 54035 c-1 -23 74 -324 83 -332 l6 -6 0 9 c-1 22 -88 347 -89
329z"/>
<path d="M52030 53909 l95 -90 90 -64 c49 -35 91 -62 94 -60 5 6 11 2 -79 64
l-75 52 -102 95 c-56 51 -105 94 -110 94 -4 -1 35 -41 87 -91z"/>
<path d="M31242 53903 c-6 -27 -47 -133 -91 -237 -45 -104 -79 -192 -76 -194
2 -3 8 4 12 14 3 10 42 102 85 204 l79 185 6 37 c8 54 -1 47 -15 -9z"/>
<path d="M13471 53873 c0 -10 348 -289 354 -285 13 7 -7 25 -166 153 -161 130
-190 150 -188 132z"/>
<path d="M13437 53834 l-5 -6 170 -140 c94 -77 177 -142 184 -145 l14 -5 0 8
c-1 8 -315 269 -345 286 l-12 7 -6 -5z"/>
<path d="M21654 53795 l26 -24 -1 -58 c0 -32 -6 -111 -12 -175 l-12 -118 7 0
c5 0 8 6 8 13 0 6 5 62 11 122 5 61 10 137 11 169 l1 59 -23 19 c-12 10 -27
18 -33 18 l-10 0 27 -25z"/>
<path d="M50655 53644 c-137 -68 -254 -126 -260 -128 -5 -2 -8 -5 -5 -8 3 -3
127 55 275 128 149 73 263 132 255 132 -8 0 -127 -55 -265 -124z"/>
<path d="M77710 53720 l0 -13 7 6 6 7 -6 7 -7 6 0 -13z"/>
<path d="M18400 53701 c0 -5 5 -22 11 -38 6 -15 31 -115 54 -221 41 -184 49
-211 59 -201 6 6 -59 308 -85 397 l-22 72 -8 0 c-5 0 -9 -4 -9 -9z"/>
<path d="M77468 53633 l-188 -74 0 -8 0 -8 195 76 c107 42 195 79 195 84 0 11
-3 10 -202 -70z"/>
<path d="M49090 53650 c0 -18 140 -299 196 -395 l47 -80 4 11 4 11 -52 89
c-28 49 -83 152 -121 229 -73 147 -78 156 -78 135z"/>
<path d="M52453 53276 c-4 -7 -17 -18 -28 -23 l-20 -11 -93 -7 -94 -7 10 -10
9 -9 99 11 98 11 23 21 c13 12 23 25 23 30 0 13 -18 9 -27 -6z"/>
<path d="M6790 53259 c-175 -13 -173 -18 5 -12 l160 5 160 -16 160 -16 150 2
150 1 -180 7 c-99 4 -232 13 -295 19 -63 6 -133 13 -155 15 -22 2 -92 0 -155
-5z"/>
<path d="M53615 53211 c-38 -15 -212 -102 -385 -193 -173 -91 -348 -180 -388
-198 -40 -18 -70 -35 -68 -37 9 -9 196 82 511 247 l320 168 43 13 42 12 0 9
c0 10 7 12 -75 -21z"/>
<path d="M54695 53229 l-20 -9 38 5 38 6 198 -130 197 -131 15 0 14 0 -205
135 -205 135 -25 -1 c-14 0 -34 -5 -45 -10z"/>
<path d="M56078 53162 c-10 -2 -18 -7 -18 -10 l0 -7 192 3 192 3 12 7 13 7
-187 0 c-103 0 -195 -1 -204 -3z"/>
<path d="M34556 52948 c-9 -46 -16 -100 -16 -120 l0 -38 10 0 10 0 0 38 c1 20
7 66 15 102 8 36 14 73 15 83 l0 17 -9 0 -8 0 -17 -82z"/>
<path d="M34293 52959 c-18 -5 -33 -11 -33 -14 0 -2 -20 -79 -45 -171 -25 -92
-44 -169 -41 -171 3 -3 10 15 16 38 53 199 79 292 85 297 3 4 25 12 48 19 l42
11 -20 0 c-11 0 -35 -4 -52 -9z"/>
<path d="M49450 52748 c0 -21 91 -240 98 -234 4 5 -84 235 -94 245 -2 2 -4 -3
-4 -11z"/>
<path d="M54491 52570 l-1 -45 -50 -164 -50 -163 1 -32 2 -31 4 25 c2 14 26
97 52 185 27 88 51 174 53 190 l5 30 -7 25 -8 25 -1 -45z"/>
<path d="M85592 52468 c-95 -72 -171 -132 -169 -135 3 -2 78 51 168 118 90 67
170 124 177 126 13 5 17 24 5 22 -5 0 -86 -59 -181 -131z"/>
<path d="M85793 52563 l7 -6 7 6 6 7 -13 0 -13 0 6 -7z"/>
<path d="M54983 52408 l-91 -133 -41 -39 -40 -39 5 -9 5 -8 45 39 46 40 89
130 c49 71 89 135 89 140 0 27 -23 1 -107 -121z"/>
<path d="M73280 52334 c-102 -57 -189 -105 -195 -107 -5 -2 -8 -7 -5 -9 4 -4
374 194 389 208 2 2 2 6 0 8 -2 2 -87 -43 -189 -100z"/>
<path d="M22522 52331 l-41 -99 -36 -142 c-20 -78 -34 -147 -32 -154 2 -6 18
50 36 124 l33 135 45 108 45 107 16 10 17 9 -20 1 -21 0 -42 -99z"/>
<path d="M46604 52261 c3 -5 44 -25 91 -45 47 -20 127 -60 178 -87 l92 -50 32
-31 33 -32 5 6 6 6 -48 42 -48 42 -79 40 c-73 37 -254 118 -263 118 -2 0 -2
-4 1 -9z"/>
<path d="M64445 52163 c3 -16 14 -111 25 -212 20 -177 24 -200 35 -189 5 5
-31 358 -41 406 l-4 22 -10 0 -9 0 4 -27z"/>
<path d="M47310 52000 c-107 -54 -190 -99 -185 -99 6 0 98 45 205 99 107 54
191 99 185 99 -5 0 -98 -45 -205 -99z"/>
<path d="M88975 51981 l-5 -10 22 -15 22 -16 26 0 26 0 22 16 22 15 -6 10 -6
10 -11 -9 c-7 -5 -24 -12 -38 -15 l-25 -6 -22 14 -21 15 -6 -9z"/>
<path d="M78200 51950 c0 -5 38 -105 85 -222 l84 -213 8 3 c13 4 11 11 -76
230 l-85 212 -8 0 c-4 0 -8 -4 -8 -10z"/>
<path d="M3341 51699 c-46 -10 -86 -21 -89 -24 -15 -15 15 -14 97 5 l91 20
140 0 140 0 0 10 0 10 -147 -1 -148 -1 -84 -19z"/>
<path d="M33443 51270 c3 -14 15 -113 27 -220 l23 -195 9 -10 9 -10 -5 25 c-3
14 -15 113 -27 220 l-22 195 -10 10 -10 10 6 -25z"/>
<path d="M33485 51260 c3 -19 16 -120 29 -223 13 -104 27 -191 31 -195 l8 -7
-6 35 c-3 19 -16 118 -28 220 l-22 185 -9 10 -10 10 7 -35z"/>
<path d="M28440 51002 c0 -4 9 -13 20 -20 l20 -12 0 -17 0 -17 12 12 11 11
-11 26 -12 25 -20 0 -20 0 0 -8z"/>
<path d="M7050 50770 l-185 -29 -75 0 -75 -1 -35 10 -34 10 -9 -9 -9 -9 38
-11 39 -11 81 0 81 0 214 31 214 31 133 -4 132 -5 0 7 c0 13 -73 20 -200 19
l-125 -1 -185 -28z"/>
<path d="M7260 50740 c-41 -4 -94 -11 -117 -15 l-43 -7 0 -10 0 -11 38 7 c20
4 93 11 162 16 l125 10 115 -11 c63 -5 195 -21 294 -35 l178 -25 6 5 c3 3 3 8
1 10 -6 6 -341 54 -458 66 -113 11 -187 11 -301 0z"/>
<path d="M8960 50561 l0 -8 123 -43 122 -42 93 -48 93 -47 4 7 c7 11 -4 19
-95 61 -66 31 -321 129 -337 129 -2 0 -3 -4 -3 -9z"/>
<path d="M42710 50420 l0 -31 -45 -172 -45 -172 11 -65 c14 -90 22 -90 14 0
l-7 75 40 160 c22 88 43 177 45 198 l6 37 -10 0 -9 0 0 -30z"/>
<path d="M14310 50302 c0 -8 142 -115 185 -139 11 -6 50 -19 85 -28 36 -9 73
-19 84 -22 l19 -5 -7 10 -6 10 -37 7 c-21 4 -62 15 -91 25 l-52 19 -90 66
c-50 36 -90 62 -90 57z"/>
<path d="M34446 49962 l-5 -8 122 -36 c117 -35 300 -78 332 -78 8 0 15 4 15 8
l0 9 -107 22 c-60 12 -160 38 -224 57 -128 38 -126 37 -133 26z"/>
<path d="M22287 49683 c-4 -54 -7 -171 -7 -260 l0 -163 9 0 8 0 6 253 5 252
-7 8 -8 8 -6 -98z"/>
<path d="M24100 49738 l0 -6 213 -4 c116 -2 214 -2 216 -1 13 9 -25 11 -217
15 l-212 3 0 -7z"/>
<path d="M42911 49294 c12 -35 213 -443 217 -439 6 5 -195 426 -210 440 l-10
10 3 -11z"/>
<path d="M74212 49110 c-29 -4 -56 -11 -59 -14 l-6 -6 19 1 c10 0 44 4 73 8
l55 8 48 -15 48 -16 52 -42 c28 -24 67 -62 85 -85 41 -52 44 -38 3 18 l-30 40
-53 42 -53 41 -43 15 c-47 16 -58 17 -139 5z"/>
<path d="M83240 49086 l8 -35 101 -140 c56 -77 107 -144 113 -147 l11 -7 -8
14 c-5 8 -55 78 -112 156 l-103 143 0 25 0 25 -9 0 -9 0 8 -34z"/>
<path d="M69281 48725 l-43 -224 5 -13 5 -13 1 15 c1 8 21 115 45 238 l43 222
-7 0 c-3 0 -25 -101 -49 -225z"/>
<path d="M91445 48772 c-55 -64 -126 -147 -158 -184 -33 -37 -55 -68 -50 -68
14 0 319 357 312 365 -2 2 -49 -49 -104 -113z"/>
<path d="M91439 48708 c-68 -78 -153 -178 -188 -223 -35 -44 -114 -132 -175
-195 -62 -63 -151 -156 -199 -207 l-87 -92 -47 -73 c-25 -40 -62 -92 -81 -115
l-34 -43 8 0 c12 0 59 60 121 154 l51 78 191 198 c105 108 221 235 258 281 60
76 227 271 291 341 14 15 23 30 20 33 -2 3 -61 -59 -129 -137z"/>
<path d="M15785 48723 c-16 -2 -100 -20 -185 -39 l-155 -36 -10 -10 -10 -10
20 6 c11 3 77 19 147 36 l128 30 75 7 c42 3 74 7 73 8 -8 6 -57 11 -83 8z"/>
<path d="M72911 48684 c0 -5 -19 -106 -41 -224 -22 -118 -38 -216 -35 -218 5
-6 9 12 51 232 l35 189 -4 16 -5 16 -1 -11z"/>
<path d="M40490 48648 l0 -13 20 -13 20 -12 0 -15 0 -15 15 0 14 0 -6 18 c-9
24 -23 41 -45 53 l-18 10 0 -13z"/>
<path d="M42347 48605 l-267 -11 -13 -13 -12 -13 20 6 c22 6 389 26 498 26
l67 0 0 10 0 10 -12 -2 c-7 0 -133 -6 -281 -13z"/>
<path d="M33770 48599 c-58 -4 -159 -10 -225 -14 l-120 -8 14 -5 c15 -5 434
17 440 24 9 9 -8 9 -109 3z"/>
<path d="M83762 48368 c23 -31 139 -188 378 -515 57 -78 106 -140 108 -138 2
2 0 10 -5 18 -25 44 -489 667 -497 667 l-8 0 24 -32z"/>
<path d="M13970 48284 c-207 -60 -215 -63 -209 -69 5 -4 421 113 428 121 12
12 -53 -3 -219 -52z"/>
<path d="M90808 48068 c-36 -40 -76 -91 -89 -114 -37 -62 -141 -192 -281 -351
-71 -79 -128 -148 -128 -154 0 -11 209 221 307 343 35 42 85 109 112 149 27
41 60 85 74 99 13 15 39 43 57 63 l32 37 -10 0 c-6 0 -39 -33 -74 -72z"/>
<path d="M33945 47915 c18 -118 35 -218 38 -222 l7 -6 0 9 c0 5 -14 99 -30
209 -16 110 -30 206 -30 213 0 6 -4 12 -8 12 l-9 0 32 -215z"/>
<path d="M44286 48001 l-6 -9 24 -15 23 -16 15 -33 16 -33 7 -157 7 -158 10 0
10 0 -7 163 -7 162 -15 33 -15 32 -29 20 -28 20 -5 -9z"/>
<path d="M69172 47919 l4 -13 210 -43 c115 -23 219 -42 232 -43 l22 0 0 9 0 8
-212 43 c-117 24 -224 45 -237 48 l-24 5 5 -14z"/>
<path d="M75980 47870 l0 -40 13 0 13 0 -4 40 -4 40 -9 0 -9 0 0 -40z"/>
<path d="M69661 47873 l0 -28 9 20 c12 27 12 35 0 35 l-10 0 1 -27z"/>
<path d="M75358 47731 c-109 -15 -201 -30 -205 -34 l-6 -7 5 -6 6 -6 216 28
216 28 0 13 0 13 -17 -1 c-10 -1 -107 -13 -215 -28z"/>
<path d="M41487 47473 c-4 -3 -7 -17 -7 -29 0 -13 -5 -34 -11 -48 l-12 -25
-55 -36 -54 -37 10 -10 10 -10 54 37 55 36 12 25 c6 13 14 43 17 64 l7 40 -10
0 c-5 0 -13 -3 -16 -7z"/>
<path d="M42632 47208 c2 -226 6 -205 10 55 l3 157 -7 0 -8 0 2 -212z"/>
<path d="M42590 47203 c0 -113 2 -204 4 -202 2 2 7 95 10 207 l7 202 -10 0
-11 0 0 -207z"/>
<path d="M34970 47320 c-63 -4 -135 -8 -159 -9 l-44 -1 6 -6 6 -6 160 7 161 7
0 9 c0 5 -3 8 -7 7 -5 -1 -60 -5 -123 -8z"/>
<path d="M21804 46777 l-5 -15 11 -41 11 -41 15 0 16 0 -5 14 c-3 8 -9 31 -13
50 -3 20 -10 39 -15 42 l-9 5 -6 -14z"/>
<path d="M82480 46750 c-30 -4 -93 -17 -140 -30 l-85 -22 -62 -46 c-59 -45
-74 -62 -54 -62 5 0 34 20 65 44 l56 44 103 25 c56 14 130 28 165 32 l62 7 0
9 0 9 -27 -1 c-16 -1 -53 -5 -83 -9z"/>
<path d="M36497 46586 l-8 -28 6 -6 5 -5 6 5 c3 4 4 19 2 35 l-3 28 -8 -29z"/>
<path d="M21199 46432 l-207 -77 2 -10 1 -10 10 3 c6 1 103 37 217 79 l207 76
-5 8 c-8 13 -2 15 -225 -69z"/>
<path d="M51718 46411 c-13 -15 -31 -31 -39 -34 l-14 -5 15 -1 15 -1 40 35 40
34 -17 1 -16 0 -24 -29z"/>
<path d="M80978 46393 l13 -5 6 6 6 6 -19 -1 -19 -1 13 -5z"/>
<path d="M80870 46380 l-25 -8 32 -1 32 -1 6 10 6 10 -13 -1 c-7 -1 -24 -5
-38 -9z"/>
<path d="M30001 46361 l-104 -6 -5 -14 -5 -14 109 7 c60 3 153 9 207 12 l97 6
0 9 0 9 -97 -2 c-54 -1 -145 -4 -202 -7z"/>
<path d="M30865 46289 c-71 -3 -136 -7 -142 -8 l-13 -1 0 -16 0 -16 53 5 c28
4 132 9 230 13 l177 6 0 14 0 14 -87 -2 c-49 -1 -146 -5 -218 -9z"/>
<path d="M28205 46180 l-6 -10 16 0 16 0 -6 10 c-3 6 -8 10 -10 10 -2 0 -7 -4
-10 -10z"/>
<path d="M28159 46103 l-14 -16 -3 -164 -3 -163 10 0 11 0 0 153 0 153 15 20
c26 34 11 50 -16 17z"/>
<path d="M81344 45948 l-7 -11 11 7 c7 4 12 9 12 12 0 8 -9 4 -16 -8z"/>
<path d="M81370 45886 c-4 -13 -14 -43 -20 -67 -6 -24 -21 -67 -32 -96 l-21
-52 -30 -11 c-17 -5 -28 -12 -25 -15 3 -3 19 0 36 6 l30 10 17 42 c19 46 64
207 58 207 -2 0 -8 -11 -13 -24z"/>
<path d="M81310 45823 c-6 -21 -19 -57 -27 -79 l-15 -42 -21 -10 -22 -11 17 0
17 -1 14 14 14 14 22 72 c13 39 21 74 18 76 -3 3 -10 -12 -17 -33z"/>
<path d="M52417 45673 l-5 -8 99 -205 c54 -113 100 -209 102 -215 2 -5 7 -8
10 -5 2 3 -41 103 -98 223 l-103 219 -5 -9z"/>
<path d="M49655 45396 l24 -54 -6 -23 c-3 -13 -13 -32 -21 -42 l-15 -17 -109
-52 -108 -51 0 -9 0 -8 119 59 c65 33 126 67 135 76 l16 16 0 30 0 30 -25 49
c-34 66 -40 64 -10 -4z"/>
<path d="M48898 44923 c12 -2 32 -2 45 0 l22 4 -45 0 -45 0 23 -4z"/>
<path d="M16960 44875 l0 -20 20 -25 c28 -37 32 -20 4 25 l-24 40 0 -20z"/>
<path d="M16872 44813 l22 -36 4 12 4 12 -16 24 c-9 14 -21 25 -26 25 l-9 0
21 -37z"/>
<path d="M94450 44534 c-63 -47 -124 -92 -134 -100 -11 -7 -17 -16 -15 -19 3
-3 32 15 65 39 32 24 97 71 143 105 l85 61 -15 -1 c-8 0 -66 -39 -129 -85z"/>
<path d="M53840 44563 c0 -5 33 -82 74 -169 l73 -159 45 -65 46 -65 162 -368
c90 -202 165 -365 168 -362 3 2 -69 170 -159 372 l-163 368 -50 75 -50 74 -68
150 c-70 152 -78 168 -78 149z"/>
<path d="M94160 44274 c-80 -58 -152 -109 -160 -114 l-15 -8 6 -6 5 -5 154
110 c85 61 159 114 165 120 l9 9 -9 0 c-6 -1 -75 -48 -155 -106z"/>
<path d="M26950 44150 c0 -4 30 -21 68 -38 37 -17 129 -60 205 -96 75 -36 137
-62 137 -58 0 4 -92 50 -205 104 -113 53 -205 93 -205 88z"/>
<path d="M11221 43149 c-13 -39 -13 -39 -2 -39 l9 0 7 31 c9 42 0 47 -14 8z"/>
<path d="M50015 43055 c-5 -2 -49 -15 -97 -29 l-87 -26 -24 -33 c-14 -17 -32
-44 -42 -59 l-17 -28 8 0 c5 0 22 20 37 44 l28 44 23 15 c13 9 61 26 107 38
46 12 88 26 94 31 l9 8 -14 -1 c-8 0 -19 -2 -25 -4z"/>
<path d="M32190 42977 c-25 -23 -93 -102 -152 -174 l-108 -132 9 -5 8 -6 114
137 c63 76 131 153 152 171 35 33 46 52 29 52 -4 0 -28 -19 -52 -43z"/>
<path d="M42031 42921 l-13 -8 9 -6 8 -5 25 14 25 13 -20 0 c-11 1 -26 -3 -34
-8z"/>
<path d="M35591 42860 c-13 -11 -30 -20 -38 -20 l-14 0 5 -9 6 -9 23 5 c24 6
57 31 57 45 0 13 -13 9 -39 -12z"/>
<path d="M31880 42689 l0 -12 -157 -153 -157 -153 6 -7 7 -6 128 121 c159 151
217 221 183 221 -5 0 -10 -5 -10 -11z"/>
<path d="M53702 42445 l-134 -65 -40 21 -40 20 -6 -5 c-3 -3 -3 -7 -1 -8 31
-19 74 -38 85 -38 16 0 274 127 274 135 0 7 6 10 -138 -60z"/>
<path d="M53715 42409 l-120 -59 -30 0 -31 0 -12 12 -12 12 -7 -8 -8 -8 19
-14 20 -14 26 0 27 0 137 65 c75 36 136 67 136 70 0 12 -32 0 -145 -56z"/>
<path d="M31075 41858 c-72 -100 -131 -185 -133 -190 l-4 -8 10 0 10 0 136
190 135 190 -12 0 -13 0 -129 -182z"/>
<path d="M31081 41772 l-170 -237 -43 -42 c-24 -23 -220 -174 -436 -337 l-393
-295 -81 -26 -82 -26 -97 -1 -97 0 -59 33 c-32 18 -92 58 -133 89 -41 31 -80
59 -87 63 l-12 7 -5 -9 -6 -9 98 -70 c54 -38 123 -82 152 -98 l55 -28 100 1
100 2 85 28 85 28 390 294 c215 161 409 312 433 335 l43 41 172 239 c95 132
174 243 175 248 l4 8 -11 0 -10 0 -170 -238z"/>
<path d="M82727 41638 c4 -7 110 -179 236 -383 125 -203 232 -371 237 -373
l10 -4 0 13 c0 6 -19 42 -43 78 -24 36 -128 204 -232 374 l-190 307 -13 0 -13
0 8 -12z"/>
<path d="M30294 41121 l-292 -218 -63 -16 c-35 -9 -76 -19 -91 -22 l-28 -5 0
-9 0 -8 53 9 c28 5 74 16 101 25 l49 15 293 219 c162 121 294 222 294 224 0
18 -58 -21 -316 -214z"/>
<path d="M28480 41200 l0 -10 28 -11 c15 -6 70 -17 122 -25 l95 -14 123 0 122
0 0 10 0 10 -107 0 -108 0 -105 14 c-58 8 -118 19 -133 25 -35 13 -37 14 -37
1z"/>
<path d="M58845 41040 l240 -5 15 -8 15 -8 -19 15 -20 16 -235 -2 -236 -2 240
-6z"/>
<path d="M58120 40680 l0 -220 10 0 10 0 0 220 0 220 -10 0 -10 0 0 -220z"/>
<path d="M53373 40548 c-16 -24 -39 -68 -51 -98 l-22 -55 -29 -168 -28 -168
10 4 11 3 31 175 32 174 21 48 c12 26 33 63 47 81 26 35 30 46 17 46 -5 0 -22
-19 -39 -42z"/>
<path d="M84780 39956 c0 -4 42 -69 93 -144 51 -75 110 -167 132 -204 21 -38
43 -68 47 -68 14 0 -217 364 -263 415 l-9 9 0 -8z"/>
<path d="M54451 39756 l-45 -12 -3 -11 -4 -11 43 10 c41 10 66 24 57 31 -2 2
-24 -1 -48 -7z"/>
<path d="M83932 39692 c13 -21 66 -107 118 -190 l95 -152 13 0 14 0 -4 8 c-1
5 -54 90 -117 190 l-113 182 -15 0 -14 0 23 -38z"/>
<path d="M51565 39083 l10 -10 214 -46 c118 -26 217 -45 219 -42 7 7 -5 10
-218 55 -107 23 -204 44 -215 47 l-20 5 10 -9z"/>
<path d="M40950 39022 c0 -5 23 -28 51 -52 l51 -43 47 -4 46 -4 130 40 130 40
-23 0 c-13 1 -78 -15 -144 -34 l-122 -35 -36 10 -36 10 -29 31 c-17 17 -38 35
-47 40 l-18 10 0 -9z"/>
<path d="M53780 38691 l0 -7 175 -33 c96 -18 185 -35 197 -38 l23 -6 -10 10
-10 9 -120 23 c-66 13 -150 29 -187 36 l-68 13 0 -7z"/>
<path d="M51466 38673 c-30 -103 -96 -369 -94 -380 l3 -15 53 202 c29 111 51
204 48 207 -2 2 -7 -4 -10 -14z"/>
<path d="M53775 38652 l10 -10 170 -31 c94 -18 179 -35 190 -38 l20 -5 -10 10
-10 10 -170 31 c-93 18 -179 35 -190 38 l-20 5 10 -10z"/>
<path d="M88098 38507 c-98 -61 -178 -115 -178 -119 0 -7 341 202 365 223 l9
9 -9 0 c-6 0 -90 -51 -187 -113z"/>
<path d="M35010 37862 l0 -10 78 -46 77 -45 93 -87 c51 -48 95 -84 98 -82 2 3
-37 43 -88 90 l-93 84 -70 45 c-38 25 -76 48 -82 53 l-13 7 0 -9z"/>
<path d="M30110 37680 c0 -6 7 -27 16 -48 l17 -37 0 -172 1 -173 7 0 6 0 7 81
7 81 -7 91 -6 92 -16 48 c-14 43 -32 63 -32 37z"/>
<path d="M85212 37398 c9 -13 61 -94 118 -181 56 -87 105 -156 107 -153 6 6
-220 355 -231 356 l-8 0 14 -22z"/>
<path d="M86236 35928 c34 -35 76 -84 94 -110 41 -59 48 -61 18 -7 l-23 42
-64 68 c-35 38 -68 69 -74 69 l-11 0 60 -62z"/>
<path d="M29782 35710 c-73 -212 -78 -230 -64 -230 l7 0 72 212 73 212 -8 8
-8 8 -72 -210z"/>
<path d="M41764 35677 l19 -14 -5 -26 -5 -27 9 0 9 0 -3 37 -3 38 -20 3 -20 4
19 -15z"/>
<path d="M84916 35603 c-21 -6 -464 -288 -486 -311 l-15 -15 15 8 c8 4 119 75
246 156 l231 149 27 0 26 0 20 -20 c11 -11 33 -46 49 -78 16 -32 56 -94 88
-137 32 -44 142 -215 242 -380 101 -165 198 -318 214 -340 17 -22 32 -42 34
-44 2 -2 5 -2 8 1 l6 5 -24 29 c-14 16 -110 170 -216 341 -105 172 -217 348
-248 390 -32 43 -75 111 -96 150 l-38 72 -22 16 c-22 15 -28 16 -61 8z"/>
<path d="M29650 35135 c0 -3 23 -51 51 -108 28 -56 118 -246 199 -422 180
-390 340 -719 346 -713 2 3 -39 95 -92 204 -53 109 -142 300 -199 424 -119
260 -293 620 -300 620 -3 0 -5 -2 -5 -5z"/>
<path d="M81735 34810 l-4 -6 90 -90 91 -89 72 -95 c40 -52 80 -101 89 -109
l17 -13 0 10 c0 6 -4 14 -10 17 -5 3 -38 43 -72 88 l-61 82 -104 106 -103 106
-5 -7z"/>
<path d="M32530 34782 l0 -8 222 -107 c121 -59 223 -105 226 -102 3 3 -42 27
-99 54 -57 26 -159 76 -226 110 l-123 61 0 -8z"/>
<path d="M52067 34213 c-3 -10 -11 -56 -17 -103 l-12 -85 -34 -119 c-19 -66
-32 -122 -29 -124 6 -6 6 -4 44 128 l31 105 15 104 c9 57 14 106 11 108 -2 3
-6 -4 -9 -14z"/>
<path d="M83031 33354 c121 -137 229 -252 229 -245 0 11 -229 265 -244 270
l-11 4 26 -29z"/>
<path d="M77580 33084 c-113 -18 -208 -33 -212 -33 -5 -1 -8 -8 -8 -16 l0 -16
33 6 c42 7 417 65 422 65 3 0 2 7 -1 15 l-6 15 -12 -1 c-6 -1 -103 -16 -216
-35z"/>
<path d="M64984 32999 c-3 -6 -4 -12 -2 -15 9 -8 372 -215 381 -217 5 -1 11 3
13 8 l4 10 -38 21 c-20 11 -108 61 -194 112 l-157 91 -7 -10z"/>
<path d="M79410 32690 l0 -9 180 -70 c99 -39 186 -71 192 -71 l12 0 -9 8 c-12
10 -178 79 -292 121 l-83 30 0 -9z"/>
<path d="M98818 31737 l-27 -11 -10 -29 -11 -29 29 31 29 31 29 0 28 0 -15 10
c-17 11 -16 11 -52 -3z"/>
<path d="M99191 31287 c-2 -17 282 -399 301 -406 8 -3 -88 129 -279 385 -12
16 -22 25 -22 21z"/>
<path d="M79867 30480 c9 -16 21 -30 26 -30 l8 0 -18 30 c-9 17 -21 30 -26 30
l-8 0 18 -30z"/>
<path d="M1595 30320 l-7 -11 78 -82 79 -82 38 -19 37 -20 11 11 11 11 -33 17
-34 17 -86 85 -87 85 -7 -12z"/>
<path d="M22036 27709 c-3 -13 -31 -195 -61 -404 -31 -209 -58 -390 -60 -402
l-5 -23 7 0 8 0 63 422 c34 231 60 423 58 426 -3 2 -7 -6 -10 -19z"/>
<path d="M95310 26779 c-96 -71 -177 -134 -179 -140 -3 -9 325 226 359 257
l14 14 -9 -1 c-6 0 -89 -58 -185 -130z"/>
<path d="M87395 25990 l-5 -9 202 -160 202 -160 9 6 c4 3 7 6 5 8 -2 1 -94 75
-205 163 l-202 161 -6 -9z"/>
<path d="M90490 24839 c47 -5 150 -18 230 -30 l145 -20 119 -35 118 -35 120
-50 c66 -27 125 -48 130 -47 l10 4 -136 58 -136 57 -102 29 -101 30 -133 20
-134 20 -107 5 -108 4 85 -10z"/>
<path d="M89400 20690 c-162 -149 -297 -276 -299 -283 -2 -6 43 31 100 83 111
103 478 437 493 451 5 5 8 11 5 13 -3 3 -137 -116 -299 -264z"/>
<path d="M97423 14004 c-252 -294 -460 -540 -462 -547 l-3 -12 19 20 c28 28
897 1047 907 1063 4 6 5 12 2 12 -3 0 -211 -241 -463 -536z"/>
<path d="M4017 11583 l-5 -9 169 -154 c93 -85 174 -157 180 -159 l12 -3 -4 9
c-3 8 -157 152 -320 301 l-27 24 -5 -9z"/>
<path d="M24720 3959 c-124 -152 -142 -179 -121 -179 10 0 271 320 271 332 0
25 -33 -9 -150 -153z"/>
<path d="M13040 3926 c0 -26 -55 -303 -71 -361 -11 -38 -23 -79 -26 -90 l-5
-20 10 10 c14 14 57 189 82 333 l22 123 -6 6 -6 6 0 -7z"/>
<path d="M23015 2281 c3 -5 79 -68 170 -140 l164 -130 6 8 5 9 -165 131 c-91
72 -170 131 -176 131 l-10 0 6 -9z"/>
<path d="M22984 2232 c7 -11 313 -252 320 -252 21 0 -12 31 -149 138 -85 67
-160 122 -166 122 l-10 0 5 -8z"/>
<path d="M17680 1196 l0 -13 68 -6 c37 -3 239 -18 449 -33 l382 -28 7 7 c4 4
5 9 2 12 -2 3 -187 18 -409 35 -222 16 -425 32 -451 34 l-48 5 0 -13z"/>
<path d="M18130 1117 l0 -14 203 -17 c111 -9 212 -19 225 -22 l22 -4 0 15 0
15 -12 0 c-7 0 -107 9 -223 20 -115 11 -211 20 -212 20 -2 0 -3 -6 -3 -13z"/>
</g>
</svg>
