<?xml version="1.0" standalone="no"?>
<!DOCTYPE svg PUBLIC "-//W3C//DTD SVG 20010904//EN"
 "http://www.w3.org/TR/2001/REC-SVG-20010904/DTD/svg10.dtd">
<svg version="1.0" xmlns="http://www.w3.org/2000/svg"
 width="7500.000000pt" height="7500.000000pt" viewBox="0 0 7500.000000 7500.000000"
 preserveAspectRatio="xMidYMid meet">
<metadata>
Created by potrace 1.16, written by Peter Selinger 2001-2019
</metadata>
<g transform="translate(0.000000,7500.000000) scale(0.075000,-0.075000)"
fill="#000000" stroke="none">
<path d="M98090 94562 l0 -9 386 -153 c212 -84 395 -154 407 -157 17 -3 -542
228 -750 310 l-43 17 0 -8z"/>
<path d="M99351 94096 c2 -2 87 -36 189 -75 102 -39 193 -75 203 -81 l17 -10
0 8 0 9 -198 76 c-179 70 -224 85 -211 73z"/>
<path d="M87837 93332 c-10 -10 -17 -22 -17 -27 l0 -8 20 18 21 19 73 -73 74
-73 36 13 36 13 43 -11 c49 -14 62 -9 21 8 l-29 12 -37 0 -38 0 -13 -11 -13
-11 -74 74 c-41 41 -77 75 -81 75 -3 0 -13 -8 -22 -18z"/>
<path d="M86780 92706 c0 -6 180 -125 237 -157 l42 -24 46 45 c25 24 45 49 45
54 l0 10 -43 -42 c-23 -23 -48 -42 -54 -42 -11 0 -140 77 -220 131 -40 28 -53
34 -53 25z"/>
<path d="M94845 91030 l-6 -10 6 -10 c3 -5 10 -10 16 -10 l9 0 0 14 c0 8 -4
17 -9 21 l-10 5 -6 -10z"/>
<path d="M98830 89211 c91 -31 187 -67 214 -79 27 -12 54 -22 60 -22 6 0 -14
12 -44 26 -60 28 -366 134 -384 133 -6 0 63 -26 154 -58z"/>
<path d="M84666 88802 c-115 -25 -204 -48 -198 -50 15 -5 405 79 417 89 l9 9
-9 -1 c-6 -1 -104 -22 -219 -47z"/>
<path d="M89863 87823 l-643 -215 0 -13 0 -13 650 216 650 217 0 12 c0 7 -3
13 -7 12 -5 0 -297 -97 -650 -216z"/>
<path d="M84305 86890 l-49 -110 -19 0 c-10 0 -55 9 -99 21 -44 11 -82 18 -84
16 -3 -2 40 -16 93 -30 l98 -27 12 13 c15 15 106 218 100 223 -2 3 -26 -45
-52 -106z"/>
<path d="M81390 84061 c8 -5 104 -41 213 -81 l199 -72 5 6 c4 3 4 6 1 6 -3 0
-97 34 -209 75 -112 41 -208 75 -214 75 l-10 -1 15 -8z"/>
<path d="M76555 82564 c-61 -98 -116 -188 -123 -201 l-13 -23 8 0 c4 0 61 86
126 191 l118 191 -3 10 -4 10 -109 -178z"/>
<path d="M16380 76388 l1 -13 196 -90 c108 -49 199 -91 203 -93 4 -2 10 3 13
11 l5 14 -201 92 c-111 50 -205 91 -209 91 -5 0 -8 -6 -8 -12z"/>
<path d="M48745 65312 c-54 -97 -112 -202 -129 -232 l-29 -55 12 11 c18 16
252 436 249 445 -2 5 -48 -71 -103 -169z"/>
<path d="M37180 64720 l0 -20 11 0 c14 0 383 -48 422 -55 l27 -4 0 19 0 20
-22 4 c-26 6 -410 56 -427 56 l-11 0 0 -20z"/>
<path d="M46000 63878 c-52 -90 -105 -183 -119 -207 l-25 -44 11 6 c6 4 24 31
41 60 16 28 68 118 115 200 47 81 83 147 79 147 -4 0 -50 -73 -102 -162z"/>
<path d="M41999 63333 c24 -46 510 -597 518 -589 3 3 -85 105 -194 228 -110
123 -227 258 -262 301 -61 75 -81 95 -62 60z"/>
<path d="M41545 63140 c3 -5 11 -10 16 -10 l10 0 -6 10 c-3 6 -11 10 -16 10
l-10 0 6 -10z"/>
<path d="M42429 62642 c-41 -37 -154 -137 -251 -220 -98 -84 -178 -155 -178
-159 0 -8 8 -1 230 189 180 153 293 258 278 258 -3 0 -39 -31 -79 -68z"/>
<path d="M42145 62449 c-229 -196 -245 -213 -245 -238 l1 -16 14 26 14 26 221
188 c121 103 220 191 220 196 0 5 -1 9 -2 8 -2 0 -102 -86 -223 -190z"/>
<path d="M94370 61943 c0 -11 254 -174 312 -200 l48 -22 0 9 c0 4 -14 13 -31
19 -31 11 -70 34 -241 145 -49 31 -88 53 -88 49z"/>
<path d="M43661 61664 c-127 -113 -231 -208 -231 -210 0 -11 25 10 245 206
130 116 232 210 226 210 -5 0 -113 -93 -240 -206z"/>
<path d="M60292 61219 l-153 -151 3 -9 3 -9 158 151 c143 137 172 170 150 169
-5 0 -77 -68 -161 -151z"/>
<path d="M92451 61293 c7 -16 330 -326 335 -321 5 6 -311 321 -328 327 l-10 4
3 -10z"/>
<path d="M48202 58935 c2 -3 56 -20 119 -39 207 -62 382 -146 559 -270 35 -25
66 -43 69 -41 6 6 13 1 -101 78 -180 122 -311 183 -520 243 -117 34 -136 38
-126 29z"/>
<path d="M84056 58738 c9 -18 47 -89 84 -158 37 -69 73 -143 80 -165 7 -22 16
-44 21 -49 l9 -10 0 11 c0 37 -184 403 -203 403 l-8 0 17 -32z"/>
<path d="M86100 58148 c0 -10 195 -395 206 -407 2 -2 6 -2 9 1 l6 5 -106 207
c-59 113 -109 206 -111 206 -2 0 -4 -5 -4 -12z"/>
<path d="M64131 57575 c-1 -11 33 -191 75 -400 42 -209 81 -404 87 -432 l10
-53 9 0 c11 0 12 -8 -33 204 -23 105 -65 306 -94 446 -29 140 -54 246 -54 235z"/>
<path d="M64274 56659 c3 -14 24 -113 46 -219 l40 -193 -15 -17 c-8 -9 -15
-23 -15 -31 l0 -14 24 30 c13 16 23 32 21 35 -2 3 -22 95 -45 205 -23 110 -47
207 -52 215 l-9 15 5 -26z"/>
<path d="M79455 56585 l-30 -25 -85 -31 -85 -30 -85 -15 -85 -14 76 4 76 3 95
32 94 33 40 34 c45 38 35 46 -11 9z"/>
<path d="M64413 56250 c16 -5 35 -14 43 -21 l14 -11 0 -33 0 -32 -18 -16 -19
-17 -31 0 -31 0 -6 10 c-3 6 -12 10 -18 10 l-12 -1 24 -20 24 -20 31 7 31 6
23 21 23 22 -6 35 -6 35 -21 18 -20 17 -27 -1 -26 -1 28 -8z"/>
<path d="M63730 56130 l0 -10 13 0 c8 0 22 -9 32 -20 10 -11 22 -20 26 -20 l9
0 -11 24 -11 24 -22 6 c-30 8 -36 7 -36 -4z"/>
<path d="M36430 55814 c-47 -19 -114 -42 -150 -50 l-65 -16 -41 7 c-23 3 -76
16 -118 29 l-76 24 0 -7 c0 -3 40 -19 90 -34 l89 -27 43 0 c24 0 63 5 88 11
48 10 218 77 235 91 l9 8 -9 0 c-6 -1 -48 -17 -95 -36z"/>
<path d="M25991 55656 c2 -2 94 -68 204 -148 170 -122 255 -181 323 -222 l12
-7 0 8 c0 4 -24 22 -53 40 -29 17 -146 99 -261 182 -115 83 -214 151 -219 151
-6 0 -8 -2 -6 -4z"/>
<path d="M51980 54990 c41 -4 106 -8 143 -9 l69 -1 29 -17 29 -18 -4 -12 c-3
-7 -57 -92 -121 -189 -63 -96 -115 -181 -115 -187 0 -7 57 74 125 178 69 105
130 192 135 193 6 2 10 10 10 18 l0 14 -17 0 -16 0 -20 17 -19 18 -152 1 -151
2 75 -8z"/>
<path d="M53218 54933 c-8 -10 -28 -40 -43 -68 -16 -27 -75 -118 -132 -202
l-103 -152 9 -5 9 -6 129 198 c71 108 137 209 147 225 l16 27 -8 0 c-5 0 -16
-8 -24 -17z"/>
<path d="M53285 54930 c4 -14 9 -32 11 -41 l5 -16 -137 -206 c-75 -114 -135
-209 -132 -212 2 -2 68 92 146 211 l142 215 -21 37 -20 37 6 -25z"/>
<path d="M52676 54711 c22 -20 256 -172 260 -169 5 6 -248 178 -260 178 l-10
0 10 -9z"/>
<path d="M32990 54508 l1 -13 200 -134 199 -134 7 7 7 6 -10 9 c-9 8 -369 251
-391 265 l-13 7 0 -13z"/>
<path d="M51940 54300 c-79 -105 -140 -193 -138 -196 3 -2 71 83 152 191 80
107 142 195 137 195 -5 0 -73 -86 -151 -190z"/>
<path d="M88035 54386 l-20 -15 10 -2 c6 0 27 0 48 1 l37 2 30 -30 30 -30 0
-24 0 -23 -21 -34 c-22 -36 -21 -45 4 -35 l17 6 11 38 12 38 -7 36 -7 35 -27
20 -28 19 -34 7 -35 6 -20 -15z"/>
<path d="M51195 54110 l-18 -20 7 -7 7 -7 20 21 21 21 -10 6 -9 6 -18 -20z"/>
<path d="M49091 53653 c-1 -16 113 -248 184 -372 l59 -104 4 11 3 11 200 102
c109 56 197 104 195 106 -2 2 -94 -41 -205 -96 l-200 -101 -43 73 c-24 39 -78
142 -120 227 -42 85 -77 150 -77 143z"/>
<path d="M54730 53375 c0 -6 7 -20 15 -32 l15 -22 154 -105 153 -105 57 -16
c31 -9 62 -15 69 -12 l12 4 -70 23 -70 23 -146 98 -146 97 -21 29 -21 28 -1
-10z"/>
<path d="M35860 53303 l0 -10 73 -6 c39 -4 141 -10 225 -13 l152 -7 0 10 0 10
-152 7 c-84 3 -186 9 -225 13 l-73 6 0 -10z"/>
<path d="M35441 53200 c-1 -8 13 -99 31 -202 l32 -188 9 0 8 0 -5 18 c-3 9
-19 96 -36 192 -17 96 -32 180 -34 185 l-4 10 -1 -15z"/>
<path d="M38046 53011 l-7 -10 43 -11 c107 -29 1174 -321 1186 -325 l14 -5 -4
12 -4 12 -590 161 c-324 89 -599 165 -611 169 l-21 7 -6 -10z"/>
<path d="M27696 52170 c-3 -60 -8 -161 -11 -222 l-4 -113 8 45 c10 52 26 400
18 400 -2 0 -7 -49 -11 -110z"/>
<path d="M54700 52140 c-58 -33 -147 -78 -197 -101 l-93 -43 0 -13 0 -13 10 0
c12 0 246 116 337 166 l62 35 -6 15 c-3 8 -6 14 -7 13 0 0 -48 -27 -106 -59z"/>
<path d="M78381 51483 c6 -15 42 -115 80 -222 38 -107 71 -196 73 -198 2 -2 6
-1 9 4 l5 8 -77 214 -76 214 -13 5 -12 4 11 -29z"/>
<path d="M18370 51290 l0 -10 15 0 15 0 0 10 0 10 -15 0 -15 0 0 -10z"/>
<path d="M33610 50384 c0 -22 61 -388 65 -393 3 -2 5 2 5 10 0 29 -58 381 -64
386 l-6 6 0 -9z"/>
<path d="M33575 50350 c37 -255 65 -411 65 -359 0 33 -52 356 -60 374 l-10 20
5 -35z"/>
<path d="M50035 49470 l-7 -11 14 -17 c7 -9 54 -64 103 -122 50 -58 108 -131
129 -162 l39 -57 18 10 18 9 -54 76 c-64 90 -232 284 -245 284 -5 0 -12 -5
-15 -10z"/>
<path d="M37920 49106 c0 -14 161 -951 166 -965 18 -53 2 53 -71 477 -46 266
-86 486 -89 489 l-6 6 0 -7z"/>
<path d="M37963 49080 c3 -14 20 -116 38 -227 l33 -203 9 0 8 0 -5 18 c-2 9
-19 107 -37 217 l-32 200 -10 10 -10 10 6 -25z"/>
<path d="M34375 48999 c3 -19 18 -114 34 -212 15 -97 31 -180 35 -184 l6 -6 6
6 6 6 -34 207 -33 207 -13 5 -13 4 6 -33z"/>
<path d="M64717 48956 c-5 -17 -18 -43 -29 -59 l-21 -30 13 5 c8 2 22 16 33
30 l19 25 -4 29 -3 29 -8 -29z"/>
<path d="M34485 48590 l-6 -10 20 0 20 0 6 10 6 10 -20 0 -20 0 -6 -10z"/>
<path d="M22230 47525 l0 -85 10 0 10 0 0 85 0 85 -10 0 -10 0 0 -85z"/>
<path d="M35200 47330 c-58 -3 -100 -7 -95 -9 18 -5 217 1 305 9 l85 7 -95 0
c-52 -1 -142 -4 -200 -7z"/>
<path d="M20701 47103 c-22 -71 -62 -292 -60 -334 1 -13 14 48 30 136 l28 160
20 53 19 52 -8 0 c-4 0 -17 -30 -29 -67z"/>
<path d="M51988 46484 l-6 -5 91 -192 c98 -209 95 -203 102 -195 4 4 -168 384
-179 395 -1 2 -5 0 -8 -3z"/>
<path d="M49424 45898 c58 -131 126 -265 146 -287 l21 -24 132 22 132 22 78
31 77 32 0 13 0 13 -52 -24 c-29 -13 -64 -28 -78 -34 -14 -6 -82 -21 -153 -33
l-127 -21 -23 28 c-12 15 -51 91 -87 168 l-66 140 -12 4 -12 4 24 -54z"/>
<path d="M49240 45824 l-155 -65 -205 -69 c-113 -37 -258 -85 -322 -105 l-118
-36 0 -10 c0 -5 2 -9 5 -9 3 0 110 33 237 74 128 40 256 79 283 87 28 7 129
45 227 85 l176 72 21 21 c12 12 18 21 14 21 -5 0 -78 -30 -163 -66z"/>
<path d="M40755 45560 c-82 -16 -166 -29 -184 -29 l-35 -1 10 -10 11 -11 169
31 c93 16 179 30 190 30 l22 0 7 -32 8 -33 4 28 4 28 -12 15 -11 14 -17 -1
c-9 -1 -83 -14 -166 -29z"/>
<path d="M81204 45523 c3 -10 26 -90 50 -178 24 -88 64 -213 88 -277 l43 -117
7 7 7 7 -58 170 c-32 94 -71 223 -87 287 l-29 118 -13 0 -13 0 5 -17z"/>
<path d="M53921 41061 l-13 -9 85 -163 c70 -134 185 -373 305 -632 l17 -38 18
13 18 13 -126 260 c-69 143 -142 292 -162 330 -45 88 -124 235 -126 235 -1 0
-8 -4 -16 -9z"/>
<path d="M47210 39140 c0 -5 9 -14 21 -20 11 -6 28 -25 38 -41 23 -38 172
-191 179 -184 3 3 -24 35 -59 73 -35 37 -86 93 -112 125 -46 54 -67 69 -67 47z"/>
<path d="M40934 36490 c3 -14 31 -203 61 -420 60 -425 64 -454 72 -447 2 3
-24 200 -58 439 l-62 433 -9 10 -9 10 5 -25z"/>
<path d="M41300 35469 c0 -4 7 -24 16 -45 9 -22 50 -138 91 -259 41 -121 79
-227 84 -235 l8 -15 1 13 c1 38 -197 574 -200 541z"/>
<path d="M85420 34972 c0 -12 183 -314 208 -345 9 -9 17 -15 20 -12 3 3 -2 13
-10 22 -9 10 -61 92 -117 182 -55 91 -101 160 -101 153z"/>
<path d="M34300 32508 c0 -7 9 -26 20 -43 l20 -30 0 13 c0 15 -28 72 -35 72
-3 0 -5 -6 -5 -12z"/>
<path d="M98814 31738 l-22 -10 -11 -24 c-14 -30 -14 -34 -1 -34 l10 0 0 15 0
15 25 16 25 16 20 -5 20 -5 0 8 c0 8 -25 21 -38 19 -4 0 -17 -5 -28 -11z"/>
<path d="M87395 25991 l-5 -10 202 -160 203 -161 4 11 c1 6 1 11 0 13 -2 1
-93 72 -201 159 l-197 157 -6 -9z"/>
<path d="M90906 24781 c5 -5 47 -19 94 -32 l85 -22 128 -54 c71 -30 133 -53
139 -51 l10 4 -133 56 -134 56 -92 26 c-50 14 -95 26 -99 26 l-8 0 10 -9z"/>
<path d="M89380 20727 c-168 -154 -307 -285 -309 -291 -6 -14 25 13 347 307
226 207 292 272 270 266 -2 0 -140 -127 -308 -282z"/>
<path d="M96421 17133 c5 -16 350 -323 363 -323 l10 0 -9 8 c-19 16 -301 266
-334 296 l-34 31 4 -12z"/>
<path d="M22783 1626 c-183 -82 -226 -106 -192 -106 10 0 389 167 398 175 1 2
1 8 0 13 l-4 9 -202 -91z"/>
<path d="M19950 975 l0 -15 23 0 c12 0 181 -11 376 -25 195 -14 390 -25 433
-25 l78 0 0 15 0 15 -113 0 c-101 0 -605 30 -744 45 l-53 5 0 -15z"/>
</g>
</svg>
