<?xml version="1.0" standalone="no"?>
<!DOCTYPE svg PUBLIC "-//W3C//DTD SVG 20010904//EN"
 "http://www.w3.org/TR/2001/REC-SVG-20010904/DTD/svg10.dtd">
<svg version="1.0" xmlns="http://www.w3.org/2000/svg"
 width="7500.000000pt" height="7500.000000pt" viewBox="0 0 7500.000000 7500.000000"
 preserveAspectRatio="xMidYMid meet">
<metadata>
Created by potrace 1.16, written by Peter Selinger 2001-2019
</metadata>
<g transform="translate(0.000000,7500.000000) scale(0.075000,-0.075000)"
fill="#000000" stroke="none">
<path d="M14095 96398 c-2 -13 -14 -69 -25 -125 -11 -56 -34 -143 -50 -193
-33 -101 -35 -110 -20 -110 l10 0 14 34 c29 70 96 351 96 403 l0 13 -10 0 -10
0 -5 -22z"/>
<path d="M99180 89073 c41 -19 188 -78 325 -130 138 -53 301 -120 364 -149 63
-30 116 -52 118 -50 3 2 -15 13 -39 24 -24 11 -81 38 -128 60 -47 22 -191 81
-320 130 -129 50 -267 104 -307 121 -97 42 -106 38 -13 -6z"/>
<path d="M78990 88492 l0 -9 218 -76 c195 -67 254 -83 212 -57 -8 5 -102 39
-210 76 -107 37 -201 69 -207 72 l-13 4 0 -10z"/>
<path d="M79386 88303 c-2 -10 -21 -116 -41 -236 l-37 -218 6 -6 c3 -4 8 -4
10 -2 2 2 21 111 43 242 l40 237 -8 0 c-4 0 -10 -8 -13 -17z"/>
<path d="M84412 87218 c-51 -101 -92 -187 -92 -193 0 -5 43 75 95 179 53 104
94 190 92 192 -2 2 -45 -78 -95 -178z"/>
<path d="M82770 87108 l0 -14 78 -26 c42 -14 134 -46 205 -71 l127 -46 0 13 0
13 -197 69 c-108 38 -200 71 -205 72 l-8 4 0 -14z"/>
<path d="M61310 85242 l0 -10 58 -6 c31 -4 136 -8 234 -9 l176 -2 8 8 c4 4 5
9 3 11 -2 2 -111 6 -241 10 l-238 7 0 -9z"/>
<path d="M42580 80359 l0 -50 -25 -97 c-13 -53 -33 -123 -44 -156 l-21 -58 6
-9 c3 -5 9 -9 13 -9 l8 0 26 88 c40 132 55 200 63 275 l7 67 -17 0 -16 0 0
-51z"/>
<path d="M72717 80053 l-5 -8 54 -75 c30 -41 93 -130 140 -197 l86 -123 10 0
10 0 -5 14 c-5 12 -259 369 -277 389 l-8 9 -5 -9z"/>
<path d="M73600 78840 c0 -6 35 -57 77 -113 43 -56 108 -146 144 -200 l67 -98
6 9 5 8 -57 86 c-81 121 -226 317 -234 318 -5 0 -8 -5 -8 -10z"/>
<path d="M43433 66540 c-18 -8 -33 -18 -33 -23 l0 -7 28 6 c15 4 33 12 40 19
l14 13 -9 4 c-4 2 -23 -3 -40 -12z"/>
<path d="M97603 65726 c4 -9 30 -96 58 -194 29 -97 58 -192 66 -209 l13 -33
10 0 c13 0 13 7 -1 32 -6 12 -37 109 -69 217 l-57 195 -13 4 -13 5 6 -17z"/>
<path d="M78490 64033 c-102 -13 -187 -26 -189 -29 -2 -2 -2 -7 1 -10 l6 -5
216 27 216 28 0 8 0 8 -32 -1 c-18 -1 -116 -12 -218 -26z"/>
<path d="M41450 63743 l-24 -5 -78 -65 c-43 -36 -78 -67 -78 -69 0 -9 22 7 96
68 l71 58 39 0 39 0 49 -15 c27 -8 56 -15 65 -14 l16 1 -60 19 c-75 23 -103
28 -135 22z"/>
<path d="M41710 63630 l0 -13 7 6 6 7 -6 7 -7 6 0 -13z"/>
<path d="M41760 63576 c0 -4 21 -31 46 -59 25 -28 69 -84 97 -125 l52 -73 3
10 3 10 -55 73 c-65 87 -145 176 -146 164z"/>
<path d="M42250 63044 c0 -10 262 -305 267 -300 5 4 -255 306 -263 306 -2 0
-4 -3 -4 -6z"/>
<path d="M42225 63010 c16 -27 248 -285 258 -289 l12 -4 -26 29 c-14 16 -74
84 -133 152 -95 108 -131 144 -111 112z"/>
<path d="M51550 62773 c-40 -87 -82 -170 -91 -184 l-18 -26 6 -7 c19 -19 31 0
127 207 l69 148 -10 10 -10 10 -73 -158z"/>
<path d="M56695 62132 c8 -8 366 -167 585 -259 l35 -15 -10 11 c-8 8 -544 246
-605 268 l-15 6 10 -11z"/>
<path d="M57330 61901 c0 -9 483 -221 489 -215 2 2 2 6 0 8 -11 10 -489 213
-489 207z"/>
<path d="M60572 61526 l3 -39 12 -5 13 -4 -6 34 c-4 18 -11 38 -16 43 l-9 10
3 -39z"/>
<path d="M60253 61260 c-84 -83 -153 -152 -153 -155 0 -19 38 13 170 142 137
134 164 164 143 163 -5 -1 -77 -68 -160 -150z"/>
<path d="M44917 59959 c26 -38 317 -348 322 -344 2 3 -26 37 -62 77 -101 112
-281 296 -260 267z"/>
<path d="M86559 59764 c-90 -69 -166 -131 -168 -137 l-4 -12 14 11 c8 6 85 66
172 133 141 110 166 131 153 131 -2 0 -77 -57 -167 -126z"/>
<path d="M61170 59214 c0 -14 73 -379 77 -383 1 -2 5 -2 7 0 6 6 -69 377 -77
385 l-7 7 0 -9z"/>
<path d="M59140 59184 c0 -8 102 -346 115 -383 3 -8 7 -12 10 -10 4 5 -112
389 -120 398 -3 2 -5 0 -5 -5z"/>
<path d="M92166 57901 c16 -18 388 -241 393 -236 2 3 2 7 0 8 -5 5 -381 229
-394 235 l-10 5 11 -12z"/>
<path d="M81240 57654 c-52 -7 -146 -21 -207 -30 l-113 -16 0 -14 c0 -17 -20
-18 188 11 97 13 196 27 220 30 l42 6 0 15 0 14 -17 -1 c-10 -1 -61 -7 -113
-15z"/>
<path d="M78528 56823 c9 -51 9 -246 -1 -308 l-7 -50 17 25 18 25 0 145 0 145
-8 28 -7 27 -10 0 -9 0 7 -37z"/>
<path d="M79450 56580 l-45 -30 -80 -27 c-44 -15 -114 -33 -155 -40 l-75 -12
70 3 70 3 96 33 96 33 39 33 c49 41 43 43 -16 4z"/>
<path d="M81650 56275 c-74 -19 -161 -41 -192 -51 l-58 -17 0 -9 0 -8 33 13
c17 8 104 31 192 52 88 20 167 41 175 46 l15 8 -15 0 c-8 -1 -76 -16 -150 -34z"/>
<path d="M81625 56225 c-209 -53 -215 -55 -215 -66 l0 -9 33 13 c17 8 111 33
207 57 96 23 177 44 179 46 12 11 -51 -1 -204 -41z"/>
<path d="M63632 56023 c2 -9 8 -18 15 -20 l11 -4 -5 20 -5 21 -10 0 -9 0 3
-17z"/>
<path d="M63355 55928 c-159 -33 -292 -62 -294 -64 -2 -2 -2 -7 2 -10 l6 -6
305 63 306 62 0 9 0 8 -17 -1 c-10 0 -148 -28 -308 -61z"/>
<path d="M85170 55004 c0 -5 9 -41 19 -79 11 -39 38 -153 61 -255 23 -102 65
-268 92 -370 27 -102 53 -202 59 -224 6 -21 13 -36 15 -33 3 3 -17 90 -45 194
-28 103 -73 285 -100 403 -63 276 -101 412 -101 364z"/>
<path d="M52140 54768 c-69 -106 -126 -199 -128 -207 -2 -13 229 328 259 382
l10 17 -8 0 c-4 0 -64 -87 -133 -192z"/>
<path d="M52341 54886 c23 -21 304 -204 308 -201 6 6 18 -3 -147 109 -78 53
-147 96 -154 96 -6 0 -9 -2 -7 -4z"/>
<path d="M32540 54734 c0 -10 385 -267 406 -272 l14 -3 0 8 c0 8 -372 257
-402 268 l-18 7 0 -8z"/>
<path d="M51940 54300 c-79 -105 -140 -193 -138 -196 3 -2 71 83 152 191 80
107 142 195 137 195 -5 0 -73 -86 -151 -190z"/>
<path d="M88165 54286 l0 -44 -19 -21 -19 -21 7 -8 8 -7 19 24 c11 13 22 34
25 47 l6 24 -6 25 c-4 14 -10 25 -14 25 l-7 0 0 -44z"/>
<path d="M87874 54123 c-83 -54 -270 -185 -417 -292 l-267 -193 6 -9 5 -9 107
78 c309 225 421 305 565 400 131 87 175 122 153 122 -2 0 -70 -44 -152 -97z"/>
<path d="M52628 53857 c-93 -143 -130 -211 -159 -296 -23 -65 -23 -67 -4 -51
l15 12 0 18 c0 9 22 61 48 116 l49 99 71 108 c62 94 81 128 70 127 -2 0 -42
-60 -90 -133z"/>
<path d="M52345 53629 c-11 -17 1 -21 15 -4 l12 15 -10 0 c-6 0 -14 -5 -17
-11z"/>
<path d="M13836 53582 l-5 -8 176 -143 175 -143 9 9 8 8 -166 135 c-91 74
-171 138 -179 143 l-13 7 -5 -8z"/>
<path d="M35725 53359 c-38 -4 -124 -21 -189 -36 l-119 -28 -4 -12 -4 -11 43
9 c24 6 90 21 148 34 58 13 140 26 183 30 l77 7 -6 9 -5 9 -27 -1 c-15 -1 -58
-5 -97 -10z"/>
<path d="M52284 53158 c76 -169 114 -249 143 -298 l33 -55 0 13 c0 7 -17 45
-39 85 -21 40 -63 125 -92 190 -29 64 -56 117 -61 117 l-8 0 24 -52z"/>
<path d="M49135 53112 c-133 -68 -200 -110 -191 -119 3 -3 20 5 38 18 18 13
95 56 173 96 l140 72 -15 0 c-8 0 -74 -30 -145 -67z"/>
<path d="M81130 52775 c0 -14 26 -51 77 -109 l44 -49 47 -30 47 -30 415 -128
c366 -113 727 -236 786 -267 11 -6 39 -31 62 -56 l41 -44 16 -59 c22 -80 25
-86 30 -82 6 7 -24 118 -41 150 -7 15 -35 46 -61 69 l-48 42 -205 74 -205 74
-380 116 -380 116 -60 33 -60 34 -47 58 c-26 32 -54 67 -62 78 l-15 20 -1 -10z"/>
<path d="M27044 52145 c1 -110 -2 -319 -5 -465 l-7 -265 8 110 c4 61 10 238
14 395 l7 285 -9 70 -9 70 1 -200z"/>
<path d="M27002 52263 l8 -68 -10 -295 c-10 -317 -12 -476 -6 -469 2 2 9 172
16 378 l11 373 -6 74 -7 74 -7 0 -7 0 8 -67z"/>
<path d="M34254 51738 c-4 -6 -26 -87 -49 -180 l-43 -168 9 -6 9 -5 5 13 c2 7
22 83 43 168 22 85 43 163 47 173 l7 17 -10 0 c-6 0 -14 -5 -18 -12z"/>
<path d="M34100 51350 c0 -5 5 -10 10 -10 6 0 10 5 10 10 0 6 -4 10 -10 10 -5
0 -10 -4 -10 -10z"/>
<path d="M26775 50754 c-4 -96 -5 -178 -2 -180 3 -3 8 52 11 123 3 70 8 152
10 181 l5 52 -8 0 -8 0 -8 -176z"/>
<path d="M33570 50368 c1 -30 59 -380 64 -386 13 -13 11 12 -18 201 l-31 197
-7 0 c-5 0 -8 -6 -8 -12z"/>
<path d="M50465 49950 c-105 -55 -194 -101 -200 -103 l-10 -4 10 -11 10 -11
197 102 197 103 -7 11 -7 12 -190 -99z"/>
<path d="M15468 49822 c-1 -4 -69 -54 -151 -111 l-147 -103 5 -8 5 -9 138 96
c149 103 172 122 172 135 0 10 -17 11 -22 0z"/>
<path d="M36060 49482 l-33 -28 28 -180 27 -179 10 -10 9 -10 -5 25 c-3 14
-17 96 -31 182 l-25 157 6 16 c3 8 9 15 13 15 3 0 17 9 31 20 l25 20 -10 0
c-6 0 -26 -13 -45 -28z"/>
<path d="M64717 48956 c-5 -17 -18 -43 -29 -59 l-21 -30 13 5 c8 2 22 16 33
30 l19 25 -4 29 -3 29 -8 -29z"/>
<path d="M40444 48693 c8 -16 21 -37 30 -48 l15 -20 1 13 c0 15 -42 82 -53 82
l-8 0 15 -27z"/>
<path d="M34098 48616 l-206 -11 -8 -8 -8 -8 89 6 c50 3 170 10 269 15 98 5
181 12 184 15 7 6 -61 5 -320 -9z"/>
<path d="M34480 48590 l0 -10 25 0 25 0 0 10 0 10 -25 0 -25 0 0 -10z"/>
<path d="M32853 48551 l-91 -6 -8 -7 -7 -7 22 -138 c21 -129 31 -172 31 -127
0 10 -9 71 -20 134 l-20 114 11 11 10 10 94 3 95 4 -6 9 c-3 5 -8 8 -12 7 -4
-1 -48 -4 -99 -7z"/>
<path d="M42505 48530 l-50 -7 135 0 c74 0 164 3 200 7 l65 7 -150 0 c-82 0
-172 -3 -200 -7z"/>
<path d="M36438 47343 c50 -2 134 -2 185 0 l92 3 -185 0 -185 0 93 -3z"/>
<path d="M28827 46774 c-252 -12 -461 -25 -465 -28 l-5 -6 24 0 c61 0 1075 51
1084 54 22 9 -204 2 -638 -20z"/>
<path d="M32665 46490 c-82 -4 -156 -8 -162 -9 l-13 -1 0 -15 0 -15 88 5 c48
3 149 8 225 11 l137 6 0 14 0 14 -62 -2 c-35 -1 -130 -5 -213 -8z"/>
<path d="M55626 43423 c7 -29 54 -168 190 -565 l79 -228 12 0 13 0 -56 158
c-143 407 -203 580 -213 620 l-12 42 -10 0 -9 0 6 -27z"/>
<path d="M10255 42958 c-126 -45 -232 -83 -234 -85 -3 -2 0 -8 5 -13 l10 -10
234 83 234 83 4 12 4 12 -14 0 c-7 -1 -116 -37 -243 -82z"/>
<path d="M50593 42664 c6 -165 10 -195 22 -183 2 3 2 85 -2 182 l-6 177 -10 0
-10 0 6 -176z"/>
<path d="M52257 40178 c-18 -74 -146 -752 -143 -755 2 -3 7 4 10 14 13 44 147
756 143 760 -3 2 -7 -6 -10 -19z"/>
<path d="M84816 39968 c4 -7 44 -67 89 -133 45 -66 162 -252 260 -412 98 -161
181 -293 186 -293 l9 0 -42 68 c-22 37 -97 159 -165 272 -138 227 -324 509
-336 510 l-8 0 7 -12z"/>
<path d="M88112 38473 c-101 -63 -181 -117 -178 -120 5 -6 363 213 372 228 l5
9 -8 -1 c-4 0 -90 -53 -191 -116z"/>
<path d="M87359 38009 c-198 -119 -194 -117 -188 -123 2 -2 85 45 184 104 99
60 185 111 190 113 l10 4 -6 6 -5 6 -185 -110z"/>
<path d="M60003 38048 c-16 -18 -64 -65 -108 -104 l-80 -71 -135 -90 c-74 -49
-179 -113 -232 -142 l-98 -53 0 -9 0 -9 68 37 c99 54 214 124 330 201 l102 69
100 92 c55 51 100 97 100 102 0 18 -18 9 -47 -23z"/>
<path d="M60175 37915 c126 -121 163 -152 153 -127 -5 14 -276 262 -285 262
-4 0 55 -61 132 -135z"/>
<path d="M85625 37304 c9 -17 26 -41 37 -55 l20 -24 -23 40 c-12 22 -29 47
-37 55 l-15 15 18 -31z"/>
<path d="M85685 37210 c3 -5 8 -10 11 -10 3 0 2 5 -1 10 -3 6 -8 10 -11 10 -3
0 -2 -4 1 -10z"/>
<path d="M85705 37180 c3 -5 8 -10 11 -10 3 0 2 5 -1 10 -3 6 -8 10 -11 10 -3
0 -2 -4 1 -10z"/>
<path d="M85861 37080 l-54 -39 -11 6 -11 6 12 -13 11 -12 61 42 c34 24 61 44
61 46 0 10 -20 0 -69 -36z"/>
<path d="M88101 35885 c-188 -116 -208 -131 -200 -140 5 -5 354 208 378 231
42 39 -13 11 -178 -91z"/>
<path d="M86241 35923 c36 -38 75 -81 87 -98 l23 -30 -17 35 -17 35 -60 62
c-33 35 -65 63 -70 63 l-10 0 64 -67z"/>
<path d="M84894 35593 c-17 -10 -39 -23 -50 -30 l-19 -11 6 -6 5 -5 37 24 36
25 20 0 c10 0 27 -3 35 -6 l16 -6 37 -67 c48 -88 96 -160 107 -161 l8 0 -15
23 c-9 12 -39 63 -67 114 l-50 92 -22 15 c-29 20 -46 20 -84 -1z"/>
<path d="M40930 35579 c-52 -10 -182 -37 -287 -61 l-193 -43 0 -12 0 -13 13 0
c7 0 74 14 148 31 73 17 210 46 303 63 l170 33 4 11 4 12 -34 -1 c-18 -1 -76
-9 -128 -20z"/>
<path d="M85150 35374 c0 -3 26 -42 58 -87 33 -45 135 -206 227 -357 167 -272
199 -320 218 -320 l10 0 -15 18 c-8 9 -95 148 -193 307 -207 337 -305 479
-305 439z"/>
<path d="M87080 35219 l-21 -40 -6 -49 -6 -48 9 -29 8 -28 7 72 7 73 21 35
c23 40 26 55 11 55 l-10 0 -20 -41z"/>
<path d="M85380 34948 c0 -14 180 -298 227 -357 2 -2 5 -2 8 1 3 3 -8 22 -24
42 -17 21 -65 95 -107 164 -72 118 -104 165 -104 150z"/>
<path d="M83047 33399 c13 -24 237 -269 246 -269 5 0 -24 37 -64 82 -103 114
-192 206 -182 187z"/>
<path d="M78065 33130 c-82 -4 -171 -8 -197 -9 l-48 -1 0 -15 0 -16 168 6 c92
3 195 8 230 11 l62 6 0 14 0 14 -32 -2 c-18 -1 -100 -5 -183 -8z"/>
<path d="M94822 26725 c-101 -73 -186 -136 -189 -139 l-6 -6 9 0 c8 0 361 254
380 273 l7 7 -9 0 c-5 -1 -91 -61 -192 -135z"/>
<path d="M90490 24839 c47 -5 150 -18 230 -30 l145 -20 119 -35 118 -35 120
-50 c66 -27 125 -48 130 -47 l10 4 -136 58 -136 57 -102 29 -101 30 -133 20
-134 20 -107 5 -108 4 85 -10z"/>
<path d="M87167 20324 c149 -158 193 -201 193 -190 0 10 -298 320 -313 325 -7
2 47 -58 120 -135z"/>
<path d="M92177 16433 l-6 -10 96 -104 c53 -57 123 -132 156 -166 l59 -63 9 6
9 5 -147 157 c-80 86 -152 163 -159 170 l-12 14 -5 -9z"/>
</g>
</svg>
