<?xml version="1.0" standalone="no"?>
<!DOCTYPE svg PUBLIC "-//W3C//DTD SVG 20010904//EN"
 "http://www.w3.org/TR/2001/REC-SVG-20010904/DTD/svg10.dtd">
<svg version="1.0" xmlns="http://www.w3.org/2000/svg"
 width="7500.000000pt" height="7500.000000pt" viewBox="0 0 7500.000000 7500.000000"
 preserveAspectRatio="xMidYMid meet">
<metadata>
Created by potrace 1.16, written by Peter Selinger 2001-2019
</metadata>
<g transform="translate(0.000000,7500.000000) scale(0.075000,-0.075000)"
fill="#000000" stroke="none">
<path d="M84406 99839 l-38 -161 10 -10 10 -10 36 154 c20 84 39 161 42 171
l5 17 -14 0 -13 0 -38 -161z"/>
<path d="M90224 99928 c-14 -40 -33 -88 -40 -107 -16 -37 -18 -61 -6 -61 6 0
92 216 92 233 0 4 -4 7 -9 7 l-9 0 -28 -72z"/>
<path d="M89880 99660 l0 -10 34 0 35 0 6 10 6 10 -40 0 -41 0 0 -10z"/>
<path d="M82900 99312 c0 -13 385 -222 407 -222 4 0 -19 15 -52 34 -33 18 -91
51 -130 73 -38 22 -105 58 -147 81 l-78 43 0 -9z"/>
<path d="M83713 98873 l7 -11 77 -11 c43 -6 166 -15 274 -20 l196 -10 141 6
142 6 0 6 0 6 -313 0 -312 1 -90 11 c-49 6 -99 15 -109 19 l-19 7 6 -10z"/>
<path d="M84350 98799 c-80 -4 -155 -5 -167 -2 l-23 5 0 -11 0 -12 188 7 187
7 25 8 25 7 -45 0 c-25 -1 -110 -5 -190 -9z"/>
<path d="M85537 97939 l-108 -17 -37 -15 c-90 -37 -134 -58 -130 -62 2 -3 41
11 85 30 l81 35 108 17 c60 9 111 18 113 20 14 10 -16 8 -112 -8z"/>
<path d="M28075 97528 c76 -79 151 -156 167 -172 l27 -30 7 7 6 6 -158 165
-159 166 -14 0 -15 0 139 -142z"/>
<path d="M89647 97481 l-25 -38 -47 -169 -46 -169 -25 -37 c-13 -21 -21 -38
-17 -38 5 0 19 17 32 37 l24 37 44 161 44 160 18 30 c19 33 32 65 27 65 -2 0
-15 -17 -29 -39z"/>
<path d="M87885 96389 l-60 -7 114 2 114 3 51 -12 c28 -7 163 -56 300 -109
137 -53 251 -94 254 -92 3 3 -6 10 -19 15 -13 5 -125 48 -249 96 -124 48 -250
93 -280 100 l-55 14 -55 -1 c-30 -1 -82 -5 -115 -9z"/>
<path d="M88245 96292 c6 -5 78 -35 160 -67 83 -31 257 -102 388 -157 131 -55
240 -98 243 -96 4 5 -379 169 -547 234 -172 66 -254 95 -244 86z"/>
<path d="M86936 96241 l-38 -39 -31 -5 c-17 -2 -63 -1 -104 3 l-73 7 -33 -6
-32 -7 115 -6 c63 -4 127 -4 141 -1 l26 5 37 44 c46 54 42 57 -8 5z"/>
<path d="M98131 94586 c8 -7 333 -136 344 -136 12 1 -325 140 -339 140 -5 0
-7 -2 -5 -4z"/>
<path d="M98100 94558 c9 -11 354 -148 363 -145 5 1 -67 33 -160 69 -190 76
-210 83 -203 76z"/>
<path d="M31986 94442 l-4 -8 185 -136 186 -137 9 5 9 6 -158 117 c-87 64
-172 127 -190 139 l-32 22 -5 -8z"/>
<path d="M98916 94271 c5 -5 105 -48 222 -94 l212 -85 0 8 0 8 -215 86 c-118
47 -218 86 -222 86 l-7 0 10 -9z"/>
<path d="M99323 94063 l7 -6 7 6 6 7 -13 0 -13 0 6 -7z"/>
<path d="M87636 93726 l-46 -84 -85 -105 c-47 -59 -85 -109 -85 -112 0 -18 25
6 91 88 90 110 105 132 152 219 l36 67 -9 6 -8 5 -46 -84z"/>
<path d="M33113 92983 c2 -10 50 -141 106 -292 l102 -275 75 -265 74 -266 0
-137 0 -138 10 0 10 0 0 140 0 140 -70 252 -71 253 -111 303 -112 302 -9 0 -9
0 5 -17z"/>
<path d="M86810 92736 c0 -2 54 -39 121 -81 l120 -78 35 34 c19 18 34 37 34
43 l0 10 -33 -32 c-18 -18 -37 -32 -42 -32 -6 0 -57 32 -115 70 -96 64 -120
77 -120 66z"/>
<path d="M86780 92706 c0 -6 180 -125 237 -157 l42 -24 46 45 c25 24 45 49 45
54 l0 10 -43 -42 c-23 -23 -48 -42 -54 -42 -11 0 -140 77 -220 131 -40 28 -53
34 -53 25z"/>
<path d="M21880 92620 l0 -13 7 6 6 7 -6 7 -7 6 0 -13z"/>
<path d="M21932 92606 c3 -5 26 -12 50 -17 24 -6 88 -27 143 -48 55 -21 112
-41 128 -45 l27 -6 0 7 c0 5 -35 20 -78 34 -42 15 -102 36 -133 48 -31 11 -76
23 -100 27 l-44 7 7 -7z"/>
<path d="M33330 92560 c0 -6 7 -27 16 -48 8 -20 53 -171 100 -336 l84 -298 -7
-134 -6 -134 10 0 10 0 6 135 7 136 -71 252 c-38 139 -84 294 -101 345 l-31
92 -9 0 c-4 0 -8 -5 -8 -10z"/>
<path d="M57520 92566 c0 -2 80 -48 178 -102 97 -53 188 -105 202 -113 l24
-16 -7 12 c-4 6 -42 30 -85 53 -42 24 -127 71 -188 106 -106 61 -124 69 -124
60z"/>
<path d="M57506 92530 c15 -15 387 -221 391 -216 2 2 -52 34 -119 71 -68 38
-155 88 -195 112 -39 24 -75 43 -79 43 l-8 0 10 -10z"/>
<path d="M92445 92259 c33 -16 107 -51 165 -78 58 -27 129 -63 158 -80 l52
-31 0 8 c0 11 -117 73 -279 149 -134 63 -210 88 -96 32z"/>
<path d="M94836 90837 c75 -56 124 -102 124 -117 0 -6 26 -39 58 -72 l57 -60
30 -16 c53 -28 710 -300 714 -296 7 6 14 3 -314 139 -170 70 -332 139 -358
152 l-49 24 -46 42 c-25 23 -58 62 -73 86 -29 45 -76 89 -143 135 -63 43 -63
30 0 -17z"/>
<path d="M28838 90683 l13 -5 6 6 6 6 -19 -1 -19 -1 13 -5z"/>
<path d="M28905 90664 c52 -19 205 -56 218 -51 9 3 -233 68 -249 66 -5 0 9 -7
31 -15z"/>
<path d="M29148 90603 l13 -5 6 6 6 6 -19 -1 -19 -1 13 -5z"/>
<path d="M29188 90593 l13 -5 6 6 6 6 -19 -1 -19 -1 13 -5z"/>
<path d="M29233 90583 l7 -6 7 6 6 7 -13 0 -13 0 6 -7z"/>
<path d="M84513 90365 l-61 -83 -57 -112 -57 -111 6 -6 c8 -9 8 -9 61 97 42
85 89 158 162 257 l24 31 -9 6 -9 5 -60 -84z"/>
<path d="M84553 90328 l-61 -83 -51 -104 -52 -103 5 -6 c8 -7 6 -11 71 113
l59 110 53 71 c29 39 53 74 53 77 0 20 -22 -2 -77 -75z"/>
<path d="M96241 90073 c2 -7 53 -67 114 -134 l109 -121 241 -174 242 -174 84
-79 c46 -43 122 -122 169 -175 l85 -97 3 13 4 13 126 63 127 63 60 0 c33 1 71
5 85 9 l25 9 -95 -6 -95 -6 -121 -64 -122 -64 -97 108 c-136 151 -177 185
-457 387 l-246 177 -108 117 c-59 64 -114 124 -122 132 l-14 15 3 -12z"/>
<path d="M31490 89921 c14 -5 53 -11 85 -14 l60 -6 -55 14 c-30 8 -68 14 -85
14 l-30 -1 25 -7z"/>
<path d="M31658 89893 l13 -5 6 6 6 6 -19 -1 -19 -1 13 -5z"/>
<path d="M97540 89236 c-52 -19 -267 -136 -251 -136 7 0 68 29 135 64 l121 65
85 9 85 9 -70 1 -70 1 -35 -13z"/>
<path d="M85175 88945 c-132 -24 -377 -73 -544 -109 -167 -36 -360 -75 -430
-85 l-126 -19 40 -1 c63 -2 204 24 559 100 338 73 606 122 615 114 2 -3 0 -10
-6 -16 l-10 -10 -169 -28 c-93 -16 -315 -61 -493 -101 l-324 -72 -101 -9
c-136 -13 -145 -20 -16 -13 l105 6 315 70 c293 65 620 128 663 128 l18 0 -255
-507 c-141 -280 -339 -665 -440 -857 l-185 -349 -77 -176 c-42 -97 -80 -180
-84 -184 l-7 -8 -74 21 c-40 11 -78 20 -83 20 -24 0 8 -12 86 -34 l85 -23 73
166 73 166 126 240 c69 132 272 530 451 885 l326 645 60 13 59 13 198 6 197 6
0 8 0 9 -122 0 -122 0 -124 -16 -123 -16 -6 6 -6 6 6 6 c3 4 26 11 49 16 l43
10 205 7 205 7 -195 1 -195 1 -240 -43z"/>
<path d="M86360 88980 c41 -5 125 -11 185 -15 l110 -6 65 10 65 9 -135 -1
c-74 0 -187 2 -250 5 l-115 6 75 -8z"/>
<path d="M83976 88693 c-14 -48 -64 -277 -117 -543 -32 -162 -107 -508 -165
-768 l-106 -473 6 -6 c3 -4 8 -4 10 -2 7 8 218 964 275 1249 53 265 103 495
117 543 l5 17 -10 0 c-5 0 -12 -8 -15 -17z"/>
<path d="M85132 88533 c-5 -10 -51 -96 -101 -191 -51 -96 -90 -176 -87 -179 2
-3 14 14 26 38 12 23 58 110 102 192 43 82 77 151 74 154 -2 3 -9 -4 -14 -14z"/>
<path d="M91875 88244 c-77 -35 -170 -74 -207 -86 l-68 -22 0 -13 0 -13 9 0
c26 0 402 157 420 176 3 2 0 8 -5 13 l-9 9 -140 -64z"/>
<path d="M89553 88148 c3 -13 22 -99 43 -193 20 -93 40 -177 45 -185 l8 -15 1
15 c0 8 -19 102 -42 208 l-42 192 -9 0 -9 0 5 -22z"/>
<path d="M35446 88072 l-5 -8 163 -163 164 -164 12 8 12 8 -163 163 c-90 90
-167 164 -171 164 -4 0 -9 -4 -12 -8z"/>
<path d="M80690 87893 l0 -8 199 -69 200 -68 13 5 13 5 -15 6 c-45 17 -393
136 -401 136 -5 0 -9 -3 -9 -7z"/>
<path d="M83816 87693 c-26 -132 -128 -587 -221 -988 -24 -104 -73 -317 -109
-472 l-65 -281 -27 -69 c-28 -70 -376 -793 -439 -911 -34 -64 -39 -90 -11 -61
8 8 79 149 159 314 80 165 180 370 222 455 42 85 87 182 100 215 l23 60 100
440 c55 242 105 460 110 485 5 25 35 153 67 285 31 132 76 333 100 447 l43
207 -6 6 c-3 3 -8 5 -12 5 l-7 0 -27 -137z"/>
<path d="M75068 87714 l-6 -5 90 -187 c96 -201 95 -198 104 -189 l7 6 -89 183
c-48 101 -90 186 -94 191 l-6 7 -6 -6z"/>
<path d="M81510 87551 c0 -5 12 -13 28 -19 15 -5 202 -71 415 -147 l389 -137
5 6 c4 3 4 8 2 10 -4 4 -829 296 -836 296 -2 0 -3 -4 -3 -9z"/>
<path d="M81950 87453 l0 -8 433 -153 c237 -83 612 -217 832 -296 l400 -144 4
10 c1 5 1 11 -1 13 -8 8 -1645 585 -1660 585 -4 0 -8 -3 -8 -7z"/>
<path d="M84437 87172 c-58 -119 -122 -253 -141 -297 l-35 -80 -14 -9 -15 -10
-276 76 c-152 41 -276 72 -276 68 0 -5 552 -160 572 -160 3 0 20 33 38 73 18
39 86 179 151 309 l119 237 -8 5 -9 5 -106 -217z"/>
<path d="M36060 87336 c0 -8 430 -369 488 -410 29 -21 55 -36 58 -34 2 3 -13
16 -34 30 -21 14 -143 114 -271 222 -219 185 -241 202 -241 192z"/>
<path d="M82770 87109 l0 -14 393 -139 c215 -77 394 -141 396 -143 6 -4 -29
-159 -120 -537 l-80 -329 -36 -88 c-19 -49 -128 -274 -241 -501 -113 -227
-208 -416 -210 -420 l-4 -8 16 0 16 0 211 428 c116 235 224 461 241 502 l29
75 74 300 c40 165 86 359 101 430 l28 130 13 13 13 13 -15 15 -15 15 -9 -5 -9
-6 -379 134 c-208 74 -386 137 -395 141 l-18 7 0 -13z"/>
<path d="M36666 86955 l-5 -15 9 0 10 0 0 15 c0 8 -2 15 -4 15 -2 0 -6 -7 -10
-15z"/>
<path d="M36940 86656 c23 -21 293 -208 310 -214 l15 -5 -10 10 c-17 18 -313
223 -321 223 -5 0 -2 -6 6 -14z"/>
<path d="M88500 85728 c-12 -46 -39 -146 -61 -223 -21 -77 -74 -282 -118 -455
-44 -173 -109 -425 -145 -560 -64 -238 -71 -269 -61 -258 7 6 197 713 257 953
27 110 74 294 105 408 30 115 52 211 50 213 -3 3 -15 -32 -27 -78z"/>
<path d="M80861 85631 c25 -16 389 -140 389 -132 0 5 -330 122 -390 138 l-15
5 16 -11z"/>
<path d="M63978 85597 c-5 -10 -8 -39 -8 -64 l0 -46 196 -481 c108 -265 201
-487 207 -494 l10 -13 46 7 c25 4 127 24 226 45 99 22 183 39 187 39 5 0 8 5
8 10 l0 10 -19 0 c-11 0 -93 -16 -183 -35 -90 -20 -189 -39 -220 -44 l-57 -8
4 8 c3 4 -82 218 -187 475 l-192 469 -6 70 -5 70 -7 -18z"/>
<path d="M63920 85480 c0 -6 20 -56 43 -113 24 -56 112 -275 197 -487 l152
-385 26 -22 26 -22 8 12 8 12 0 -12 0 -13 30 0 c26 0 404 74 439 86 l14 5 -9
9 -9 8 -226 -45 -226 -45 -28 13 -27 14 -178 440 c-97 242 -189 466 -203 498
-24 54 -37 70 -37 47z"/>
<path d="M88366 85369 c-3 -8 -15 -52 -26 -99 -12 -47 -54 -209 -95 -360 -137
-514 -176 -663 -171 -667 2 -3 7 4 10 14 7 22 79 285 113 413 60 223 180 705
177 709 -2 2 -6 -2 -8 -10z"/>
<path d="M81675 85353 c13 -13 407 -144 400 -133 -3 5 -90 36 -193 71 -103 34
-194 64 -202 67 l-15 5 10 -10z"/>
<path d="M61310 85242 l0 -10 58 -6 c31 -4 136 -8 234 -9 l176 -2 8 8 c4 4 5
9 3 11 -2 2 -111 6 -241 10 l-238 7 0 -9z"/>
<path d="M68600 85243 l0 -10 62 -7 c35 -4 101 -16 148 -27 l85 -20 106 -59
c58 -32 193 -113 300 -180 l194 -122 31 -32 30 -32 69 -162 68 -161 8 5 9 5
-14 32 c-7 18 -39 93 -70 168 l-58 137 -31 29 c-35 33 -437 285 -557 350 l-75
41 -90 20 c-49 12 -118 24 -152 28 l-63 7 0 -10z"/>
<path d="M68590 85191 l0 -10 48 -6 c26 -4 94 -18 152 -31 l105 -25 70 -38
c111 -60 487 -300 517 -329 l26 -27 57 -135 c31 -74 61 -146 66 -159 l10 -24
9 9 9 9 -69 165 -69 165 -23 18 c-31 25 -448 285 -528 329 l-65 37 -80 19
c-65 17 -205 42 -229 42 -3 0 -6 -4 -6 -9z"/>
<path d="M71632 84958 c38 -90 90 -212 115 -273 105 -258 506 -1191 516 -1200
l10 -10 -5 10 c-3 6 -83 195 -178 420 -402 958 -512 1215 -521 1215 -4 0 24
-73 63 -162z"/>
<path d="M82500 85072 c0 -9 350 -126 356 -119 3 3 -76 32 -175 65 -100 33
-181 57 -181 54z"/>
<path d="M82831 84800 l-34 -121 7 -6 c9 -9 10 -7 44 114 34 118 37 133 24
133 l-7 0 -34 -120z"/>
<path d="M80040 84726 l-62 -186 4 -16 3 -16 679 -239 c374 -132 684 -238 690
-236 5 2 -64 29 -155 61 -641 224 -1195 420 -1203 427 l-8 7 62 187 c34 102
60 189 57 191 -3 3 -33 -78 -67 -180z"/>
<path d="M71783 84708 c27 -74 163 -388 168 -388 8 0 -153 385 -166 397 l-8 8
6 -17z"/>
<path d="M82690 84633 l-31 -28 -6 -39 -6 -39 14 5 14 5 3 19 c2 10 16 31 30
47 l26 27 32 0 c18 0 44 -4 58 -10 l25 -9 12 -23 13 -23 -2 -35 -2 -35 -30
-27 -30 -28 -25 0 -25 0 0 -14 0 -15 38 6 37 6 27 25 27 25 7 42 6 43 -16 33
-16 34 -31 18 -31 17 -44 0 -44 0 -30 -27z"/>
<path d="M86657 84335 c-28 -195 -31 -222 -22 -213 8 8 57 357 53 381 l-3 22
-28 -190z"/>
<path d="M82662 84485 l11 -26 9 9 9 9 -7 16 -6 17 -14 0 -14 0 12 -25z"/>
<path d="M80510 84372 c0 -9 419 -157 426 -150 2 3 -64 29 -148 58 -84 29
-181 63 -215 76 l-63 23 0 -7z"/>
<path d="M23905 84200 l-6 -9 33 -14 c18 -8 118 -51 221 -96 l189 -83 6 6 6 6
-10 9 c-7 6 -196 90 -401 177 l-32 14 -6 -10z"/>
<path d="M82492 84053 l-33 -16 -13 -26 c-7 -14 -28 -77 -45 -139 l-33 -113
-69 -152 -68 -151 6 -9 5 -9 9 9 c4 4 38 76 75 158 l66 150 34 112 c18 62 37
121 43 131 l10 19 35 17 c45 21 46 21 106 -19 29 -19 56 -35 61 -35 22 0 5 20
-44 54 l-52 36 -30 0 -30 0 -33 -17z"/>
<path d="M11942 83959 l5 -14 219 -47 c120 -26 221 -45 223 -42 12 12 -29 24
-219 64 -113 24 -211 45 -219 48 l-14 5 5 -14z"/>
<path d="M47188 83665 l-24 -175 6 0 c7 0 55 339 48 345 -3 3 -16 -74 -30
-170z"/>
<path d="M83270 83625 l0 -175 10 0 10 0 0 175 0 175 -10 0 -10 0 0 -175z"/>
<path d="M64680 83705 c0 -17 294 -765 301 -765 6 0 -285 757 -296 768 -3 3
-5 1 -5 -3z"/>
<path d="M84127 83558 c5 -7 56 -79 112 -160 56 -81 108 -151 114 -155 l11 -7
-19 30 c-69 106 -211 303 -219 304 l-8 0 9 -12z"/>
<path d="M82144 83493 c-6 -5 -16 -18 -23 -30 l-12 -23 12 0 c7 0 17 8 24 17
l13 17 36 -1 37 -1 -4 11 -4 12 -34 3 -34 2 -11 -7z"/>
<path d="M78066 83421 c8 -8 233 -81 250 -81 l8 0 -9 9 c-10 8 -235 81 -251
81 l-8 0 10 -9z"/>
<path d="M82114 83423 l-10 -3 4 -31 4 -31 34 -15 33 -16 40 11 39 12 6 26 7
25 -6 9 c-4 6 -10 10 -16 10 l-9 0 0 -15 0 -15 -25 -16 -24 -16 -21 7 -21 7
-12 27 -12 28 -11 -4z"/>
<path d="M47165 83364 l-17 -13 -44 -203 c-48 -223 -48 -218 -36 -218 l9 0 43
208 c24 114 46 210 49 214 l6 6 205 -34 c113 -18 215 -34 228 -34 l22 0 0 10
0 10 -17 0 c-10 1 -111 15 -225 33 l-206 33 -17 -12z"/>
<path d="M64810 82899 c-122 -43 -171 -62 -279 -106 -18 -8 -31 -16 -29 -19 3
-2 42 11 89 30 46 19 145 55 219 81 74 26 139 51 145 56 l9 9 -9 -1 c-6 -1
-71 -23 -145 -50z"/>
<path d="M64952 82890 c122 -301 163 -399 166 -391 4 11 -156 402 -170 416
l-10 10 14 -35z"/>
<path d="M76509 82565 c-67 -108 -119 -198 -117 -201 5 -5 232 348 244 380 17
45 -16 -2 -127 -179z"/>
<path d="M76555 82564 c-61 -98 -116 -188 -123 -201 l-13 -23 8 0 c4 0 61 86
126 191 l118 191 -3 10 -4 10 -109 -178z"/>
<path d="M84800 82457 c0 -7 124 -345 210 -572 33 -88 72 -191 86 -228 15 -38
28 -66 31 -63 3 2 -23 78 -57 168 -34 90 -105 280 -157 423 -81 224 -113 301
-113 272z"/>
<path d="M17104 82261 c9 -13 42 -19 186 -31 l125 -11 66 -20 c75 -22 79 -22
79 -11 l0 9 -77 22 -78 23 -100 9 c-55 4 -124 11 -153 14 l-53 5 5 -9z"/>
<path d="M96734 82077 l-132 -72 -47 -53 c-26 -29 -45 -55 -42 -58 3 -3 24 18
48 46 l44 51 115 64 c107 59 162 94 150 95 -3 0 -64 -33 -136 -73z"/>
<path d="M59723 82003 l-203 -85 5 -9 5 -8 158 65 c86 36 181 75 209 86 l53
21 -6 8 c-7 13 2 16 -221 -78z"/>
<path d="M90760 81856 l0 -25 10 -6 10 -6 0 25 0 25 -10 6 -10 6 0 -25z"/>
<path d="M58691 81581 l-385 -157 -4 -12 -4 -12 19 8 c11 4 191 77 401 162
339 138 414 172 370 169 -7 0 -186 -71 -397 -158z"/>
<path d="M58510 81448 c-191 -77 -186 -75 -177 -84 l6 -7 168 68 c92 37 174
71 182 75 l14 7 -9 6 -10 5 -174 -70z"/>
<path d="M95673 80738 c-177 -249 -340 -479 -364 -512 l-42 -59 11 4 c6 2 158
211 338 464 179 253 342 481 361 508 l35 47 -9 0 c-4 0 -153 -204 -330 -452z"/>
<path d="M97530 80918 c0 -22 38 -104 81 -174 l51 -83 35 -27 35 -27 112 -47
c61 -26 176 -80 255 -119 79 -40 145 -70 148 -67 7 6 -311 166 -424 212 l-88
36 -29 25 -30 25 -54 86 c-30 48 -59 101 -65 117 -9 28 -27 56 -27 43z"/>
<path d="M95546 80490 c-190 -268 -263 -378 -234 -350 19 18 475 670 469 670
-4 0 -110 -144 -235 -320z"/>
<path d="M94650 80579 c25 -22 175 -132 333 -245 l288 -206 6 6 7 6 -10 9 c-5
5 -130 95 -279 201 -148 106 -291 210 -316 231 l-47 39 -13 0 -14 -1 45 -40z"/>
<path d="M78915 80141 c-104 -76 -191 -144 -193 -150 l-4 -11 10 0 c13 0 387
273 391 285 7 25 -28 4 -204 -124z"/>
<path d="M95250 80091 c0 -5 77 -66 172 -135 l171 -125 9 5 c5 3 8 7 6 9 -25
20 -349 255 -353 255 -3 0 -5 -4 -5 -9z"/>
<path d="M42355 79550 l-30 -8 33 -1 32 -1 0 10 c0 6 -1 9 -2 9 -2 -1 -16 -5
-33 -9z"/>
<path d="M96341 79362 c6 -16 248 -186 309 -217 55 -28 60 -29 60 -15 l0 10
-52 26 c-29 15 -107 65 -172 111 -66 47 -126 88 -134 91 l-15 5 4 -11z"/>
<path d="M65155 79230 l-180 -6 355 -2 355 -1 113 -8 114 -8 3 6 4 5 -197 12
c-199 12 -243 12 -567 2z"/>
<path d="M65125 79190 l-150 -6 195 -1 195 -2 40 8 40 9 -85 -1 c-47 -1 -152
-4 -235 -7z"/>
<path d="M65915 79169 l-4 -6 192 -12 c106 -6 212 -14 237 -16 l45 -5 -20 9
-20 10 -213 13 -214 13 -3 -6z"/>
<path d="M67325 79105 c6 -2 89 -11 185 -20 l175 -17 53 -13 52 -13 0 7 0 8
-52 11 c-94 20 -458 53 -413 37z"/>
<path d="M61185 78973 c-107 -67 -561 -334 -720 -423 l-60 -33 -123 -105 -123
-104 5 -6 6 -5 17 15 c10 8 61 50 113 94 124 104 112 96 425 279 283 164 595
354 595 361 0 11 -24 -2 -135 -73z"/>
<path d="M97106 78942 l-5 -9 187 -86 c103 -47 192 -87 197 -89 l10 -3 1 10 1
10 -190 88 c-105 48 -192 87 -193 87 -2 0 -5 -4 -8 -8z"/>
<path d="M60628 78692 l-248 -147 -106 -90 c-58 -49 -113 -96 -122 -102 -8 -7
-13 -15 -11 -17 3 -3 60 42 129 99 l124 104 234 138 c129 76 242 143 251 150
l16 12 -10 0 c-5 0 -121 -67 -257 -147z"/>
<path d="M59463 78474 l8 -9 162 -16 c89 -8 172 -13 185 -11 l22 4 0 9 0 9
-29 -6 -29 -6 -124 11 c-67 6 -141 14 -163 17 l-40 6 8 -8z"/>
<path d="M98714 78219 l-5 -9 23 -9 c13 -5 103 -43 202 -85 l178 -76 10 7 11
6 -54 23 c-30 12 -123 52 -206 87 l-153 65 -6 -9z"/>
<path d="M44007 77938 c-33 -54 -247 -439 -247 -445 0 -4 4 -3 9 3 8 9 210
365 245 432 19 36 14 44 -7 10z"/>
<path d="M99980 77646 l0 -16 10 0 c6 0 10 4 10 9 0 6 -4 13 -10 16 l-10 6 0
-15z"/>
<path d="M75106 77183 c-155 -127 -181 -153 -156 -153 9 0 271 211 324 260
l18 18 -10 6 -10 6 -166 -137z"/>
<path d="M69330 77253 c0 -11 203 -95 327 -137 l103 -35 5 9 5 9 -7 4 c-5 2
-53 19 -107 37 -55 18 -145 52 -199 76 -98 43 -127 51 -127 37z"/>
<path d="M73060 77110 l0 -10 240 0 240 0 0 10 0 10 -240 0 -240 0 0 -10z"/>
<path d="M43539 76984 c107 -116 284 -295 287 -291 5 5 -315 341 -330 346 -6
2 13 -23 43 -55z"/>
<path d="M74555 76630 c3 -5 8 -10 11 -10 2 0 4 5 4 10 0 6 -5 10 -11 10 l-10
0 6 -10z"/>
<path d="M30610 74962 l0 -8 118 -28 c64 -16 221 -62 347 -101 127 -40 266
-83 310 -95 43 -12 85 -24 92 -27 l13 -5 0 11 0 10 -42 12 c-24 6 -164 49
-313 96 -218 68 -490 143 -519 143 -4 0 -6 -4 -6 -8z"/>
<path d="M32830 74332 l0 -11 18 -5 c59 -18 401 -106 411 -106 6 0 11 3 11 8
l0 7 -207 54 c-115 30 -214 56 -220 59 l-13 4 0 -10z"/>
<path d="M34128 73924 c-3 -3 53 -66 126 -141 l131 -135 37 -19 c20 -10 42
-19 48 -19 22 0 8 16 -35 39 l-46 24 -106 111 c-112 117 -147 149 -155 140z"/>
<path d="M81153 73894 c-7 -3 -13 -9 -13 -12 l0 -7 83 -2 c45 -1 137 -4 205
-8 l122 -7 0 10 0 10 -117 6 c-65 4 -152 8 -193 11 -41 2 -81 2 -87 -1z"/>
<path d="M74480 70321 c0 -18 81 -455 85 -459 1 -2 5 0 7 5 6 11 -75 450 -84
459 l-8 7 0 -12z"/>
<path d="M76536 69818 c25 -46 55 -104 67 -130 12 -26 26 -48 31 -48 l8 0 -7
27 c-3 15 -32 73 -63 130 l-57 103 -13 0 -12 0 46 -82z"/>
<path d="M76690 69755 c-19 -22 -10 -23 30 -3 l35 18 -26 0 -27 0 -12 -15z"/>
<path d="M33473 69159 c-7 -7 -13 -16 -13 -20 l0 -8 35 6 35 6 19 -17 19 -17
7 11 7 12 -13 13 -14 14 -35 6 -35 6 -12 -12z"/>
<path d="M33570 69076 l0 -25 -10 -6 -10 -6 5 -9 6 -9 14 6 15 5 0 34 0 34
-10 0 -10 0 0 -24z"/>
<path d="M19493 68871 l-222 -46 8 -8 9 -9 208 43 c189 38 236 51 223 62 -2 2
-104 -17 -226 -42z"/>
<path d="M70380 68805 c0 -6 30 -80 66 -165 36 -85 77 -183 91 -218 14 -35 27
-61 30 -59 4 4 -158 403 -178 437 l-8 15 -1 -10z"/>
<path d="M71905 68743 c-11 -3 -60 -18 -110 -35 l-90 -31 -79 -58 -79 -58 -18
9 -18 10 -53 0 -53 -1 -170 -43 c-93 -24 -164 -45 -157 -45 6 -1 87 17 178 39
l166 40 38 0 38 0 31 -17 31 -18 0 -32 c0 -17 -5 -44 -10 -58 -6 -14 -42 -200
-80 -413 -39 -213 -73 -398 -76 -412 l-5 -25 9 10 9 10 67 380 c37 209 74 401
83 427 l15 48 -3 45 -3 45 54 41 c74 55 95 65 229 109 98 33 127 50 56 33z"/>
<path d="M38450 68461 c0 -9 418 -173 430 -169 5 1 -89 42 -210 89 -121 48
-220 84 -220 80z"/>
<path d="M92180 68024 l-13 -15 -1 -147 c-1 -154 6 -247 19 -260 l7 -7 -8 70
-9 70 3 130 3 130 15 23 14 22 -9 0 c-4 0 -14 -7 -21 -16z"/>
<path d="M41301 67718 l-71 -203 0 -28 0 -28 10 6 10 6 0 22 c0 12 31 110 69
217 l70 195 -8 8 -8 8 -72 -203z"/>
<path d="M41417 67878 c-43 -114 -130 -368 -134 -394 l-6 -34 12 0 11 0 0 20
c0 11 32 109 70 216 39 108 70 198 70 200 0 10 -18 3 -23 -8z"/>
<path d="M46423 67396 l-102 -21 -14 -15 c-11 -12 -57 -121 -57 -136 0 -2 4
-4 8 -4 4 0 16 24 26 53 11 28 25 60 34 69 l14 17 57 11 c31 7 77 16 104 22
l47 10 0 9 c0 11 9 12 -117 -15z"/>
<path d="M45875 67371 c14 -14 336 -164 341 -158 2 2 -22 16 -55 31 -32 14
-112 51 -177 82 -66 30 -114 51 -109 45z"/>
<path d="M94343 67035 c3 -16 53 -322 112 -680 108 -656 112 -681 120 -674 6
7 -222 1370 -231 1378 l-7 6 6 -30z"/>
<path d="M49790 67042 c0 -8 42 -40 97 -75 l13 -8 0 9 c0 8 -42 40 -97 75
l-13 8 0 -9z"/>
<path d="M37728 66876 l-386 -21 -8 -8 -8 -8 89 6 c50 3 251 15 449 25 197 10
361 21 364 24 l5 6 -59 -1 c-32 -1 -233 -11 -446 -23z"/>
<path d="M42545 66872 c6 -5 97 -35 203 -67 l193 -57 6 6 6 6 -6 0 c-4 0 -89
25 -189 55 -101 31 -192 58 -203 61 l-20 6 10 -10z"/>
<path d="M37530 66825 c-327 -18 -608 -35 -625 -38 l-30 -4 45 -1 c70 -2 1301
66 1308 72 l5 6 -54 -1 c-30 -1 -322 -16 -649 -34z"/>
<path d="M41136 66509 c-47 -55 -25 -70 24 -16 33 36 37 47 16 47 l-14 0 -26
-31z"/>
<path d="M74670 66484 c0 -7 42 -110 93 -231 l93 -219 -17 -225 c-10 -123 -18
-235 -18 -248 l-1 -24 6 6 c4 3 14 114 24 247 l18 241 -98 232 c-55 128 -99
227 -100 221z"/>
<path d="M43855 66413 c6 -5 143 -49 305 -98 162 -48 337 -100 388 -115 l92
-28 0 7 c0 4 -172 58 -382 120 -211 63 -390 116 -398 119 l-15 5 10 -10z"/>
<path d="M41276 66361 c20 -21 587 -382 591 -377 3 2 -12 15 -34 29 -21 13
-154 99 -296 191 -237 152 -288 183 -261 157z"/>
<path d="M87557 66314 l-7 -7 128 -69 c70 -38 155 -85 190 -104 l62 -34 0 13
0 12 -177 95 c-208 112 -188 102 -196 94z"/>
<path d="M75097 66139 c-109 -61 -196 -113 -194 -115 4 -4 374 201 392 217 20
19 -8 5 -198 -102z"/>
<path d="M96740 66073 c-123 -24 -226 -46 -228 -48 -2 -2 -1 -8 2 -13 l5 -9
237 46 237 46 5 13 4 12 -19 -1 c-10 -1 -119 -21 -243 -46z"/>
<path d="M41912 66018 c-14 -14 -16 -28 -3 -28 9 0 24 30 18 36 -2 2 -9 -2
-15 -8z"/>
<path d="M49120 65940 l0 -13 7 6 6 7 -6 7 -7 6 0 -13z"/>
<path d="M49155 65933 c18 -18 328 -235 344 -240 l16 -6 -10 10 c-19 18 -329
235 -345 241 l-15 5 10 -10z"/>
<path d="M49130 65906 c0 -3 79 -61 175 -130 96 -69 175 -122 175 -117 0 4
-73 60 -162 123 -177 124 -188 132 -188 124z"/>
<path d="M83510 65614 c-91 -69 -167 -130 -169 -136 l-4 -11 15 5 c24 10 334
242 337 253 6 25 -25 5 -179 -111z"/>
<path d="M92530 65636 c0 -14 99 -408 104 -413 17 -18 12 19 -30 193 -54 228
-53 224 -65 224 -5 0 -9 -2 -9 -4z"/>
<path d="M32570 65370 l0 -20 8 0 c12 0 391 -49 425 -55 l27 -4 0 19 0 20 -22
4 c-26 6 -410 56 -427 56 l-11 0 0 -20z"/>
<path d="M38461 64933 c-17 -142 -34 -268 -37 -280 l-4 -23 7 0 8 0 35 280
c19 154 33 280 29 280 -3 0 -20 -116 -38 -257z"/>
<path d="M34653 64933 c9 -2 23 -2 30 0 l12 5 -30 0 -30 0 18 -5z"/>
<path d="M34735 64919 c22 -4 48 -8 58 -8 l18 -1 -6 10 -6 10 -52 -1 -52 -1
40 -9z"/>
<path d="M44212 64834 c-35 -53 -62 -98 -59 -100 2 -2 34 41 70 96 37 55 64
100 60 100 -5 0 -36 -44 -71 -96z"/>
<path d="M40570 64869 c0 -3 47 -141 104 -306 l104 -300 7 -46 7 -46 12 5 c7
3 111 -7 231 -21 121 -14 224 -25 230 -24 36 3 -70 19 -252 39 l-211 23 -7 36
c-12 73 -225 677 -225 640z"/>
<path d="M47790 64586 c0 -3 221 -99 393 -171 l37 -15 0 8 0 9 -204 87 c-186
79 -226 93 -226 82z"/>
<path d="M44671 64566 c7 -7 469 -166 481 -166 l12 0 -9 9 c-6 4 -112 43 -238
85 -204 68 -260 84 -246 72z"/>
<path d="M47783 64543 c11 -10 422 -181 426 -177 2 2 2 5 0 7 -8 6 -419 177
-425 177 l-7 0 6 -7z"/>
<path d="M1225 64449 c-16 -4 -92 -13 -169 -19 -77 -6 -142 -13 -145 -15 -2
-3 54 -5 125 -5 l129 0 44 14 45 13 4 11 c2 7 2 12 0 11 -1 0 -16 -5 -33 -10z"/>
<path d="M89355 64064 c-36 -38 -65 -73 -65 -79 0 -5 29 21 63 59 l63 69 12
-7 c18 -11 415 -475 445 -521 15 -22 27 -35 27 -29 0 22 -80 124 -261 334
-102 118 -193 221 -203 229 l-17 14 -64 -69z"/>
<path d="M40072 64085 l-12 -25 9 0 c4 0 13 11 19 25 l12 25 -9 0 c-4 0 -13
-11 -19 -25z"/>
<path d="M43488 63727 c-68 -105 -128 -198 -133 -206 l-8 -14 10 6 c15 9 266
397 261 402 -3 3 -61 -82 -130 -188z"/>
<path d="M90127 63740 c-107 -89 -388 -353 -519 -486 -48 -49 -159 -172 -247
-274 l-160 -185 9 -9 c6 -5 11 -8 13 -5 63 80 305 349 406 452 141 144 467
451 559 526 49 41 64 61 43 61 -5 0 -52 -36 -104 -80z"/>
<path d="M38752 63795 c17 -18 399 -95 467 -95 42 0 -12 12 -153 35 -87 14
-190 34 -229 45 -73 20 -94 24 -85 15z"/>
<path d="M90097 63644 c-152 -133 -183 -164 -159 -164 5 0 84 65 176 146 l167
145 -6 10 c-4 5 -7 9 -8 9 -1 0 -77 -66 -170 -146z"/>
<path d="M40392 63535 l17 -20 -7 -10 c-4 -6 -77 -71 -162 -144 -85 -74 -159
-138 -164 -143 l-10 -8 10 0 c10 0 328 272 340 291 l6 11 -23 22 -23 21 16
-20z"/>
<path d="M40490 63495 l-12 -14 94 -108 c79 -91 463 -528 505 -573 l13 -14 14
14 15 15 -156 175 c-86 96 -220 250 -299 342 -78 91 -147 169 -152 172 l-10 6
-12 -15z"/>
<path d="M16357 63315 l-17 -36 0 -37 0 -37 20 -32 20 -33 15 0 c21 0 19 7
-10 42 l-25 30 0 29 0 30 20 39 20 40 -13 0 -13 0 -17 -35z"/>
<path d="M41990 63346 c0 -9 119 -152 189 -229 39 -42 71 -73 71 -68 0 5 -32
44 -71 87 -40 44 -96 109 -126 147 -49 61 -63 75 -63 63z"/>
<path d="M41960 63324 c1 -22 244 -304 263 -304 l9 0 -84 93 c-46 50 -106 119
-133 152 -26 33 -49 62 -51 64 -2 2 -4 0 -4 -5z"/>
<path d="M93380 63321 c0 -4 37 -44 83 -87 l82 -79 97 -58 c101 -60 108 -63
108 -48 l0 10 -92 53 -92 53 -87 82 c-85 81 -99 92 -99 74z"/>
<path d="M6995 63298 l-18 -11 -156 5 -156 4 -35 -5 -35 -6 11 -7 11 -7 189
-3 189 -3 23 16 23 17 -14 5 -13 5 -19 -10z"/>
<path d="M93340 63283 c0 -4 39 -44 87 -88 l87 -80 100 -62 c55 -34 102 -60
104 -58 9 8 -12 25 -95 75 l-88 54 -88 80 c-49 45 -92 83 -98 84 l-9 4 0 -9z"/>
<path d="M50861 63226 c2 -3 166 -73 363 -156 197 -83 363 -153 367 -156 l9
-5 0 8 0 8 -362 153 c-325 136 -392 162 -377 148z"/>
<path d="M41575 63170 c3 -5 8 -10 11 -10 2 0 4 5 4 10 0 6 -5 10 -11 10 l-10
0 6 -10z"/>
<path d="M41545 63140 c3 -5 11 -10 16 -10 l10 0 -6 10 c-3 6 -11 10 -16 10
l-10 0 6 -10z"/>
<path d="M48390 63043 c0 -10 349 -217 356 -211 3 4 -265 169 -348 215 -5 2
-8 1 -8 -4z"/>
<path d="M15070 62993 l0 -32 10 -6 10 -6 0 23 c0 13 -5 30 -10 38 l-10 15 0
-32z"/>
<path d="M17280 62995 l0 -15 173 0 c188 0 620 -16 680 -26 l37 -6 0 16 0 15
-32 6 c-53 8 -498 25 -685 25 l-173 0 0 -15z"/>
<path d="M90844 62955 l1 -45 7 0 c4 0 10 11 14 24 l6 25 -7 20 c-3 12 -10 21
-14 21 l-8 0 1 -45z"/>
<path d="M94854 62899 c-126 -94 -177 -141 -206 -187 l-20 -33 6 -6 6 -7 17
25 c39 55 97 108 207 189 107 79 130 100 108 100 -5 0 -58 -37 -118 -81z"/>
<path d="M58658 62923 c-37 -21 -68 -42 -68 -46 l0 -8 76 42 76 42 107 -7 c58
-4 126 -9 151 -12 l45 -5 -15 10 -16 10 -144 6 -145 6 -67 -38z"/>
<path d="M17735 62938 c-266 -7 -882 -42 -954 -54 -18 -3 -31 -7 -28 -10 2 -3
161 6 353 20 l349 25 305 5 304 6 10 10 10 10 -34 -2 c-19 -1 -161 -5 -315
-10z"/>
<path d="M16005 62909 l19 -12 266 -8 c146 -5 286 -10 313 -12 l47 -4 0 8 0 9
-17 1 c-10 0 -146 4 -303 9 -157 5 -298 11 -315 15 l-30 6 20 -12z"/>
<path d="M58705 62905 c-57 -31 -96 -57 -92 -62 3 -2 29 11 58 29 l54 33 50 0
c28 0 97 -3 155 -7 l105 -6 -45 8 c-25 4 -92 11 -150 14 l-105 7 -30 -16z"/>
<path d="M59950 62859 l0 -6 163 -12 c89 -6 191 -14 227 -18 l65 -6 -7 7 -6 8
-221 17 -221 17 0 -7z"/>
<path d="M3242 62829 l5 -14 44 -7 44 -6 33 5 32 5 0 8 0 8 -59 0 c-32 0 -69
3 -81 7 l-22 7 4 -13z"/>
<path d="M59940 62822 l0 -9 168 -12 c92 -6 194 -14 227 -16 l60 -5 -30 9
c-16 5 -109 14 -205 20 -96 7 -185 14 -197 17 l-23 4 0 -8z"/>
<path d="M10227 62745 c-11 -27 -8 -32 8 -11 l14 18 223 -17 223 -16 188 7
188 7 3 6 4 6 -281 0 -282 0 -141 9 -141 8 -6 -17z"/>
<path d="M11094 62719 l-19 -21 -330 6 c-181 3 -366 9 -410 12 -44 3 -78 4
-75 1 3 -3 99 -13 215 -22 l209 -16 199 7 199 7 27 23 26 23 -11 1 c-6 0 -19
-10 -30 -21z"/>
<path d="M42455 62666 l-60 -54 6 -6 5 -5 59 59 c33 33 57 60 55 60 -3 0 -32
-24 -65 -54z"/>
<path d="M94559 62668 c-12 -23 -109 -307 -109 -320 0 -4 4 -8 9 -8 l9 0 42
133 c23 72 51 149 61 169 22 42 23 48 9 48 -5 0 -15 -10 -21 -22z"/>
<path d="M37981 62486 c4 -5 381 -66 402 -66 6 0 8 2 5 5 -6 6 -360 64 -392
65 -11 0 -17 -2 -15 -4z"/>
<path d="M88798 62264 l-136 -193 12 -4 12 -5 89 126 c50 70 111 156 137 193
l47 67 -12 5 -12 4 -137 -193z"/>
<path d="M88841 62240 c-74 -103 -134 -192 -133 -196 0 -5 4 -10 9 -11 l8 -2
97 137 c53 75 115 162 137 193 l41 57 -13 5 -12 4 -134 -187z"/>
<path d="M89022 62421 c2 -5 174 -154 383 -330 l380 -321 3 10 4 10 -29 24
c-365 311 -730 616 -736 616 l-9 0 4 -9z"/>
<path d="M58650 62402 c0 -6 94 -49 363 -167 l57 -25 0 8 c0 4 -44 26 -98 49
-53 23 -148 64 -209 92 -62 27 -113 47 -113 43z"/>
<path d="M88992 62380 l4 -15 374 -317 375 -316 8 5 9 5 -14 13 c-16 15 -715
604 -742 625 l-19 15 5 -15z"/>
<path d="M42733 62240 c37 -39 97 -102 133 -141 37 -38 68 -68 70 -66 7 6
-247 277 -259 277 l-10 0 66 -70z"/>
<path d="M41936 62266 l-36 -33 0 -19 1 -19 11 20 c6 11 24 35 41 53 40 42 28
41 -17 -2z"/>
<path d="M49843 62294 c11 -11 352 -144 361 -141 9 3 -345 147 -360 147 l-7 0
6 -6z"/>
<path d="M42661 62264 c134 -151 235 -260 244 -263 l10 -4 -20 23 c-80 94
-239 266 -249 269 l-11 4 26 -29z"/>
<path d="M41966 62239 l-27 -32 3 -17 3 -18 119 -141 c66 -78 124 -141 129
-141 8 0 -37 55 -199 244 l-42 49 5 16 c3 9 15 26 26 38 l20 23 -5 5 -6 6 -26
-32z"/>
<path d="M57569 62060 l-202 -160 -18 0 -18 0 5 -14 5 -13 22 -1 22 0 450
-197 c248 -109 451 -201 453 -206 l3 -8 14 5 14 6 -5 12 -4 12 41 94 c94 215
108 250 101 250 -4 0 -41 -79 -82 -175 l-75 -175 -15 5 c-48 17 -900 391 -900
395 0 3 37 34 83 70 266 210 328 260 319 260 -6 0 -102 -72 -213 -160z"/>
<path d="M50235 62183 c13 -13 384 -157 390 -151 4 4 -291 123 -380 154 l-20
7 10 -10z"/>
<path d="M56590 62001 l-114 -138 -18 -52 -18 -52 10 -40 11 -39 10 0 9 0 -7
28 c-4 15 -7 41 -6 58 l1 32 17 33 c10 18 66 91 126 163 102 122 120 147 102
145 -5 0 -60 -62 -123 -138z"/>
<path d="M15701 61937 c-123 -33 -220 -62 -214 -64 14 -5 435 107 448 119 l9
8 -9 -1 c-6 0 -111 -28 -234 -62z"/>
<path d="M62495 61903 c4 -27 9 -56 12 -65 l4 -18 10 0 10 0 -4 18 c-3 9 -8
38 -12 65 l-6 47 -10 0 -10 0 6 -47z"/>
<path d="M44721 61923 c6 -18 349 -393 360 -393 9 0 -248 288 -339 380 l-24
25 3 -12z"/>
<path d="M40097 61872 c-23 -22 -69 -55 -103 -74 l-60 -35 -97 -24 c-53 -12
-97 -26 -97 -30 l0 -7 108 28 107 27 46 27 c25 14 72 48 103 76 l57 50 -11 0
c-6 0 -29 -17 -53 -38z"/>
<path d="M44690 61894 c0 -11 353 -394 363 -394 l10 0 -19 23 c-80 89 -346
377 -350 377 -2 0 -4 -3 -4 -6z"/>
<path d="M59856 61814 c-32 -36 -101 -126 -152 -201 l-94 -136 0 -15 0 -16 31
50 c61 95 173 250 227 312 30 34 53 65 50 67 -2 3 -31 -25 -62 -61z"/>
<path d="M57320 61862 l0 -8 168 -74 c92 -40 202 -88 245 -106 l77 -33 0 7 c0
5 -87 46 -192 92 -106 46 -217 94 -245 107 l-53 23 0 -8z"/>
<path d="M59871 61770 c-62 -75 -185 -252 -222 -321 l-11 -21 10 5 c5 4 42 59
83 123 l74 117 68 78 68 79 32 -14 c18 -7 87 -37 155 -66 67 -29 125 -51 127
-48 3 3 -61 33 -142 67 l-148 63 -10 13 -11 13 -73 -88z"/>
<path d="M57285 61778 c-95 -213 -145 -333 -145 -347 l1 -16 38 90 c21 50 57
131 81 180 23 50 48 105 56 123 l14 32 -8 0 c-5 0 -21 -28 -37 -62z"/>
<path d="M39625 61654 l-80 -13 -95 -1 c-52 -1 -117 -5 -145 -10 l-50 -8 160
5 160 5 84 14 c46 7 86 16 89 19 8 7 -32 4 -123 -11z"/>
<path d="M56277 61627 l-19 -32 26 24 25 24 -5 8 c-7 12 -7 13 -27 -24z"/>
<path d="M92189 61638 c5 -13 25 -57 44 -98 l35 -75 74 -71 c111 -107 124
-109 21 -3 l-92 94 -40 88 c-22 48 -42 87 -45 87 -3 0 -2 -10 3 -22z"/>
<path d="M22312 61605 c3 -3 90 -34 193 -70 l188 -64 8 5 c5 3 9 9 9 14 l0 8
-17 -4 -18 -5 -175 61 c-164 57 -200 67 -188 55z"/>
<path d="M56970 61354 c-69 -52 -132 -99 -140 -104 l-15 -8 6 -6 6 -6 134 101
c74 55 138 104 144 110 l9 9 -9 -1 c-6 0 -66 -43 -135 -95z"/>
<path d="M61354 60603 c3 -10 28 -128 56 -262 l50 -245 -7 -7 c-5 -4 -105 -26
-223 -49 l-215 -43 -10 -10 -10 -9 20 5 c49 14 446 90 449 86 2 -2 38 -170 81
-374 42 -203 78 -372 81 -374 10 -10 0 44 -72 387 -42 200 -74 365 -72 368 5
4 392 84 394 81 0 -1 15 -76 33 -167 35 -181 41 -204 47 -197 3 2 -12 84 -32
182 l-36 177 12 8 c7 4 111 27 231 51 l219 43 0 9 0 8 -17 -5 c-10 -3 -110
-23 -223 -46 -113 -22 -225 -45 -250 -51 -76 -18 -383 -79 -385 -76 -1 1 -27
120 -56 264 l-54 263 -8 0 -8 0 5 -17z"/>
<path d="M61324 60575 c3 -22 26 -133 49 -247 24 -115 42 -208 41 -208 -7 0
-391 -82 -407 -86 -10 -3 -17 -8 -14 -10 2 -2 91 14 198 37 107 22 204 42 217
43 12 2 25 5 28 8 l5 6 -10 19 c-6 10 -31 119 -56 243 -25 123 -48 226 -52
230 l-6 5 7 -40z"/>
<path d="M83248 60521 c-82 -47 -148 -89 -148 -93 0 -4 37 -67 83 -140 46 -73
105 -175 132 -225 27 -51 52 -93 56 -93 10 0 -106 215 -185 343 l-67 108 6 8
c3 5 65 44 137 86 147 86 143 83 137 89 -2 2 -70 -35 -151 -83z"/>
<path d="M86267 60418 c81 -90 166 -185 188 -213 21 -27 92 -106 156 -175 64
-69 118 -131 121 -139 l4 -14 25 25 c13 14 95 87 182 162 87 75 154 136 148
136 -5 0 -85 -65 -178 -146 l-168 -145 -95 98 c-52 54 -129 139 -170 188 -103
124 -342 385 -353 385 -5 0 58 -73 140 -162z"/>
<path d="M78223 60549 l-12 -12 -72 -12 -72 -13 -31 9 -30 9 -10 -10 -9 -9 29
-12 29 -11 85 12 85 13 23 15 c12 8 22 18 22 23 0 13 -24 11 -37 -2z"/>
<path d="M86100 60551 c0 -9 297 -341 306 -341 11 0 -6 21 -151 180 -85 94
-155 166 -155 161z"/>
<path d="M59895 60269 l-140 -120 -359 -270 c-197 -149 -365 -273 -375 -276
l-16 -4 -75 170 c-41 93 -76 165 -78 160 -2 -5 28 -79 67 -166 39 -86 71 -165
71 -175 l0 -18 10 0 10 0 0 -19 c0 -11 4 -21 8 -23 4 -1 37 -73 72 -158 35
-85 64 -156 65 -158 1 -1 220 42 486 97 266 55 475 100 464 100 -11 1 -223
-40 -470 -89 -248 -50 -456 -89 -463 -88 l-13 3 -65 155 -65 155 13 4 c6 2
170 123 362 268 l351 264 147 125 c80 69 152 132 160 141 l13 17 -15 -9 c-8
-5 -76 -61 -150 -125 l-135 -116 -362 -272 c-199 -150 -369 -275 -377 -278
l-16 -6 0 15 0 15 14 5 c8 3 166 120 353 260 l338 254 150 128 c176 150 170
144 164 149 -2 2 -67 -50 -144 -115z"/>
<path d="M83121 60318 c7 -13 28 -48 47 -78 19 -30 67 -116 105 -190 75 -144
286 -490 299 -490 4 0 -34 66 -86 148 -51 81 -124 206 -161 277 -86 166 -197
355 -208 355 l-8 0 12 -22z"/>
<path d="M48600 60292 c0 -10 373 -305 393 -311 l12 -3 -10 9 c-31 31 -395
312 -395 305z"/>
<path d="M63564 60260 c61 -263 233 -1078 356 -1690 88 -432 168 -825 178
-875 48 -220 302 -1440 302 -1448 l0 -9 14 5 14 5 21 -14 21 -15 0 -33 0 -33
-18 -16 -19 -17 -29 0 -30 0 -12 12 -12 12 -6 -6 -6 -6 24 -16 25 -16 31 6 31
6 21 23 22 24 -9 38 -9 38 -29 15 c-17 8 -31 15 -32 16 -2 0 -64 295 -138 655
-75 360 -158 762 -186 894 -28 132 -107 515 -175 850 -68 336 -172 833 -230
1105 l-107 495 -9 10 -9 10 5 -25z"/>
<path d="M87144 60209 c-41 -47 -466 -420 -571 -502 l-113 -88 0 -11 0 -10 14
5 c26 10 240 181 371 296 142 125 335 311 335 323 0 15 -17 8 -36 -13z"/>
<path d="M58642 60190 c-18 -4 -36 -10 -39 -14 l-6 -6 38 3 37 2 34 -60 c53
-95 264 -558 374 -823 23 -56 44 -101 47 -99 5 6 -128 327 -229 552 -78 173
-215 456 -221 454 -1 -1 -17 -5 -35 -9z"/>
<path d="M87075 60077 c-72 -67 -150 -139 -174 -160 l-45 -37 10 -10 9 -9 90
81 c50 44 127 117 173 161 l83 80 -8 8 -8 8 -130 -122z"/>
<path d="M25346 59993 c-23 -73 -45 -208 -50 -308 l-5 -90 10 75 c5 41 19 129
31 195 l21 120 14 28 14 27 -10 0 -9 0 -16 -47z"/>
<path d="M25392 60008 c-15 -19 -28 -78 -46 -201 l-16 -108 2 -57 1 -57 4 40
c2 22 12 102 23 178 l20 137 15 37 c16 38 15 52 -3 31z"/>
<path d="M43574 59939 l-6 -11 58 -59 58 -58 13 11 14 11 -58 59 c-60 61 -67
65 -79 47z"/>
<path d="M44937 59874 c118 -130 282 -300 282 -292 1 9 -328 362 -343 367 -6
2 21 -31 61 -75z"/>
<path d="M60837 59560 c-126 -26 -231 -51 -235 -55 l-7 -8 25 6 c14 3 120 24
235 47 116 23 214 46 220 51 l9 9 -9 -1 c-6 0 -113 -23 -238 -49z"/>
<path d="M62483 59521 c-233 -47 -423 -89 -423 -92 0 -6 841 159 849 167 2 2
2 5 0 7 -2 2 -194 -35 -426 -82z"/>
<path d="M61100 59577 c0 -8 14 -81 30 -163 l31 -149 -5 -17 -4 -17 13 -5 14
-5 3 9 3 9 195 41 c206 43 225 48 219 55 -3 2 -98 -16 -213 -41 -115 -24 -210
-43 -211 -42 -1 2 -17 78 -35 171 -30 152 -40 191 -40 154z"/>
<path d="M83610 59573 c0 -6 58 -114 129 -240 70 -125 167 -304 215 -396 49
-93 90 -166 92 -164 7 6 -177 355 -316 602 -122 216 -120 213 -120 198z"/>
<path d="M50221 59359 c-89 -116 -160 -213 -158 -216 3 -2 78 91 167 207 89
116 160 214 157 216 -2 3 -77 -90 -166 -207z"/>
<path d="M60116 59375 l-958 -192 8 -5 9 -5 959 192 958 192 -8 5 -9 5 -959
-192z"/>
<path d="M62495 59482 l-420 -84 -10 -10 -10 -11 15 5 c8 3 202 42 430 88 228
46 417 85 419 87 16 12 -51 0 -424 -75z"/>
<path d="M91360 59554 c0 -5 13 -25 28 -44 16 -19 71 -93 122 -165 51 -71 104
-143 119 -159 36 -39 321 -269 327 -263 3 2 -51 48 -118 102 -68 54 -143 116
-166 139 l-44 41 -85 120 c-72 100 -133 180 -175 230 l-8 9 0 -10z"/>
<path d="M47130 59496 c0 -3 -11 -55 -25 -118 l-24 -113 -36 -89 c-41 -104
-39 -96 -21 -96 l14 0 36 90 36 90 25 116 c30 137 29 124 10 124 -8 0 -15 -2
-15 -4z"/>
<path d="M63721 59370 c-1 -17 62 -334 294 -1469 138 -680 165 -804 165 -763
0 13 -449 2223 -454 2237 l-4 10 -1 -15z"/>
<path d="M61480 59275 c-58 -13 -153 -33 -212 -45 l-108 -23 0 -9 0 -9 18 5
c9 2 110 24 225 47 l207 42 0 9 c0 11 -8 10 -130 -17z"/>
<path d="M48352 59124 c-68 -85 -126 -162 -129 -172 -3 -9 53 57 125 147 112
138 144 184 130 180 -2 0 -58 -70 -126 -155z"/>
<path d="M45625 59149 l70 -70 115 -82 c63 -46 121 -87 129 -91 l14 -9 -6 10
c-4 6 -60 49 -124 96 l-118 85 -65 66 c-35 36 -69 66 -74 66 l-10 0 69 -71z"/>
<path d="M61131 59206 c-1 -5 33 -170 74 -368 41 -198 75 -367 75 -376 l0 -17
-162 -33 c-187 -38 -242 -52 -236 -57 2 -3 89 14 194 36 l189 40 17 -5 17 -4
4 12 c2 6 1 18 -3 26 -4 8 -40 173 -79 365 -63 308 -88 412 -90 381z"/>
<path d="M61180 59174 c0 -5 14 -81 31 -169 l32 -160 9 -10 9 -10 -5 25 c-4
14 -20 92 -36 174 -26 130 -40 182 -40 150z"/>
<path d="M83804 59145 c4 -11 88 -175 188 -364 99 -189 188 -367 198 -395 l19
-51 0 16 c2 34 -31 103 -214 449 -177 336 -208 392 -191 345z"/>
<path d="M85575 59050 c-16 -11 -116 -66 -222 -123 -106 -56 -188 -103 -184
-105 10 -3 396 201 432 229 l24 19 -10 0 c-5 0 -23 -9 -40 -20z"/>
<path d="M49100 58834 c-89 -119 -157 -215 -152 -213 14 5 325 419 319 425 -2
3 -77 -93 -167 -212z"/>
<path d="M85398 58895 l-227 -121 7 -11 7 -10 227 121 227 122 -7 11 -7 10
-227 -122z"/>
<path d="M53270 59005 c0 -3 39 -83 86 -177 48 -95 128 -269 179 -388 88 -202
233 -530 286 -647 13 -29 27 -53 31 -53 4 0 -9 35 -28 78 -20 42 -105 238
-190 434 l-154 357 -100 201 c-88 176 -110 215 -110 195z"/>
<path d="M39135 58931 c11 -5 34 -10 51 -10 16 -1 66 -12 110 -24 101 -30 607
-214 656 -238 l37 -19 52 -52 52 -52 34 -73 33 -72 7 -46 6 -45 9 0 8 0 -6 28
c-17 77 -28 109 -52 160 l-26 56 -53 53 -53 53 -40 20 c-50 25 -574 216 -660
240 -36 10 -92 21 -125 24 l-60 6 20 -9z"/>
<path d="M61704 58900 c4 -19 19 -98 34 -175 l27 -140 3 20 c3 23 -55 315 -64
324 l-7 6 7 -35z"/>
<path d="M62945 58820 c-44 -9 -330 -67 -635 -129 -305 -62 -556 -113 -557
-115 -2 -2 5 -9 14 -17 10 -7 14 -9 10 -4 l-8 9 228 47 c772 159 1069 220
1078 224 28 10 -60 1 -130 -15z"/>
<path d="M61960 58580 c-260 -55 -632 -148 -640 -159 -3 -4 -84 -24 -180 -44
-96 -20 -285 -60 -420 -88 l-244 -52 -4 12 c-2 6 -8 11 -13 11 l-10 0 6 -10 6
-10 -10 0 -11 0 12 -19 12 -20 -18 -20 -18 -20 -16 6 c-10 3 -25 13 -34 21
l-18 15 10 12 10 12 -7 6 c-3 4 -14 7 -22 7 -9 0 -185 63 -391 139 -319 118
-404 147 -379 128 2 -2 174 -66 382 -143 l379 -139 13 -32 13 -31 32 -7 32 -7
24 23 24 22 0 19 0 18 9 0 c4 0 185 36 402 80 l394 80 35 15 c51 22 483 126
705 170 105 21 194 42 200 47 l9 8 -24 -1 c-14 0 -126 -22 -250 -49z"/>
<path d="M62204 58583 c3 -10 35 -178 72 -373 l67 -355 10 -10 10 -10 -5 15
c-3 8 -36 180 -74 382 l-69 368 -8 0 -8 0 5 -17z"/>
<path d="M55061 58551 l-13 -9 10 -3 10 -4 -114 -424 c-62 -234 -111 -427
-109 -429 3 -3 7 1 9 9 4 11 175 651 217 810 l9 36 203 -58 c443 -129 1017
-282 1025 -274 6 6 1 8 -193 59 -417 109 -1006 275 -1019 287 -12 11 -17 11
-35 0z"/>
<path d="M85820 58544 c0 -13 215 -414 223 -414 16 0 2 32 -100 221 -94 172
-123 219 -123 193z"/>
<path d="M59995 58401 c9 -9 181 -75 345 -132 l54 -19 -9 9 c-8 8 -149 62
-360 137 l-40 15 10 -10z"/>
<path d="M61304 58360 c3 -14 20 -90 36 -170 27 -128 40 -173 40 -144 0 5 -14
79 -31 164 l-32 155 -9 10 -9 10 5 -25z"/>
<path d="M62310 58240 c0 -8 16 -98 36 -202 l36 -188 10 0 10 0 -4 18 c-3 10
-20 96 -38 192 -18 96 -37 179 -42 185 l-8 9 0 -14z"/>
<path d="M37942 57973 c2 -209 6 -185 10 70 l3 137 -7 0 -8 0 2 -207z"/>
<path d="M91820 58143 c0 -5 87 -69 193 -143 l192 -134 174 -103 c96 -57 177
-101 179 -98 7 7 17 0 -163 105 -136 79 -337 212 -527 348 l-48 34 0 -9z"/>
<path d="M16826 57970 l-16 -40 0 -63 0 -64 25 -61 c14 -34 39 -84 56 -112
l31 -50 9 6 9 5 -7 12 c-3 7 -17 29 -30 49 -13 21 -34 68 -48 104 l-25 66 0
52 0 51 20 43 19 42 -13 0 -14 0 -16 -40z"/>
<path d="M63150 57995 c-30 -7 -320 -68 -645 -136 -324 -68 -583 -125 -575
-127 16 -3 1311 266 1319 274 8 8 -45 2 -99 -11z"/>
<path d="M62685 57939 c-71 -16 -163 -36 -203 -45 -41 -8 -71 -18 -69 -21 5
-4 397 76 406 84 14 11 -19 7 -134 -18z"/>
<path d="M50465 57889 c31 -15 479 -139 483 -134 7 6 6 6 -257 80 -235 65
-263 72 -226 54z"/>
<path d="M55950 57805 c-96 -13 -204 -26 -240 -30 -36 -4 -150 -18 -255 -31
-104 -14 -286 -36 -404 -50 -118 -13 -217 -26 -219 -29 -8 -8 19 -6 201 14 94
11 201 23 237 26 36 4 148 18 250 31 102 13 282 36 400 50 l215 27 10 9 9 8
-14 -1 c-8 -1 -94 -12 -190 -24z"/>
<path d="M55476 57784 c-104 -13 -194 -25 -200 -28 l-11 -4 20 -1 c34 -1 416
47 422 53 l6 6 -24 -1 c-13 -1 -109 -12 -213 -25z"/>
<path d="M61675 57727 c-190 -40 -202 -44 -194 -51 4 -4 403 79 424 88 l10 4
-25 0 c-14 0 -110 -19 -215 -41z"/>
<path d="M49036 57751 l-6 -9 170 -164 c93 -89 175 -165 181 -167 l12 -3 -4
10 c-2 5 -81 85 -176 176 l-171 167 -6 -10z"/>
<path d="M46522 57670 c5 -16 76 -76 82 -69 2 2 -16 22 -41 44 l-46 39 5 -14z"/>
<path d="M46539 57603 c12 -23 29 -38 37 -31 2 3 -8 15 -22 29 l-27 24 12 -22z"/>
<path d="M49940 57537 c0 -16 405 -155 417 -143 3 2 -42 19 -99 36 -56 17
-143 46 -193 65 -126 48 -125 48 -125 42z"/>
<path d="M80371 57474 c-116 -67 -201 -124 -185 -124 5 0 25 11 44 23 19 13
83 52 143 86 l107 62 25 -28 c31 -36 32 -27 2 15 l-24 31 -112 -65z"/>
<path d="M48080 57010 l0 -10 18 0 19 0 187 -91 188 -91 5 6 6 5 -24 10 c-13
5 -102 48 -198 95 -96 47 -181 86 -188 86 l-13 0 0 -10z"/>
<path d="M22909 56934 c19 -8 138 -40 265 -70 127 -30 237 -57 244 -59 l12 -4
0 8 0 8 -57 12 c-32 7 -146 35 -253 61 -107 27 -206 51 -220 55 l-25 5 34 -16z"/>
<path d="M22870 56911 c0 -5 8 -12 18 -16 36 -14 535 -135 539 -131 6 5 0 7
-296 81 -123 31 -232 60 -243 66 l-18 10 0 -10z"/>
<path d="M46550 56888 c0 -26 61 -443 66 -447 2 -3 9 0 15 6 l11 11 -21 143
c-24 159 -49 279 -62 294 l-9 9 0 -16z"/>
<path d="M47220 56826 c0 -9 527 -463 565 -487 22 -14 150 -83 285 -153 135
-71 273 -144 308 -163 l62 -35 0 9 c0 4 -125 73 -277 153 -152 80 -309 165
-349 190 l-73 45 -255 223 c-233 203 -266 230 -266 218z"/>
<path d="M23660 56766 c0 -8 5 -18 10 -21 l10 -6 0 15 c0 8 -4 18 -10 21 l-10
6 0 -15z"/>
<path d="M23500 56726 l0 -14 23 -15 24 -15 46 10 c62 13 60 20 -2 12 l-49 -6
-21 21 -21 21 0 -14z"/>
<path d="M23720 56722 c0 -5 361 -152 444 -181 l11 -3 -10 10 c-5 6 -84 40
-175 75 -91 36 -189 74 -217 86 l-53 21 0 -8z"/>
<path d="M54375 56636 c-31 -14 -61 -43 -53 -52 7 -6 88 47 88 58 0 10 2 10
-35 -6z"/>
<path d="M82744 56285 c28 -118 54 -215 58 -215 l6 0 -12 53 c-7 28 -30 125
-51 215 -21 89 -41 162 -45 162 -4 0 16 -97 44 -215z"/>
<path d="M54362 56388 c6 -18 20 -45 31 -60 l20 -27 9 5 8 5 -20 28 c-11 16
-24 40 -30 55 l-10 26 -9 0 -10 0 11 -32z"/>
<path d="M26450 56403 c0 -8 331 -183 346 -183 12 0 -40 30 -208 118 -76 40
-138 69 -138 65z"/>
<path d="M37786 56313 l-19 -68 -21 -162 -22 -163 8 0 c4 0 8 6 8 13 0 6 9 80
19 162 l20 150 20 65 c24 76 23 70 13 70 l-8 0 -18 -67z"/>
<path d="M37246 56124 c-7 -17 -86 -598 -86 -629 0 -62 16 29 50 295 22 167
43 313 46 326 7 27 -1 33 -10 8z"/>
<path d="M63730 56130 l0 -10 13 0 c8 0 22 -9 32 -20 10 -11 22 -20 26 -20 l9
0 -11 24 -11 24 -22 6 c-30 8 -36 7 -36 -4z"/>
<path d="M63777 56004 l-19 -25 6 -6 6 -6 20 18 c20 18 27 45 13 45 -5 0 -16
-12 -26 -26z"/>
<path d="M63305 55919 c-181 -38 -435 -91 -562 -117 -128 -27 -236 -51 -239
-55 -14 -14 2 -16 46 -6 25 6 278 57 562 115 284 57 529 106 543 110 l25 6 0
9 0 9 -22 -1 c-13 0 -171 -32 -353 -70z"/>
<path d="M48440 55949 c8 -6 38 -23 67 -40 l52 -29 37 -58 c20 -31 50 -86 66
-121 16 -35 31 -62 33 -59 7 7 -52 132 -91 194 l-32 51 -65 37 c-59 32 -104
50 -67 25z"/>
<path d="M8572 55934 c3 -3 93 -12 199 -20 200 -14 275 -17 268 -10 -3 4 -417
36 -458 36 l-14 0 5 -6z"/>
<path d="M63062 55910 l0 -25 5 13 c2 6 2 18 0 25 l-5 12 0 -25z"/>
<path d="M35958 55914 c-5 -4 -8 -15 -8 -24 l0 -17 27 -24 27 -24 -16 26 c-9
14 -18 36 -20 48 l-3 23 -7 -8z"/>
<path d="M35876 55832 c14 -13 252 -84 265 -80 l11 4 -135 42 c-74 23 -139 42
-143 42 l-8 0 10 -8z"/>
<path d="M25991 55656 c2 -2 94 -69 205 -149 226 -163 324 -227 347 -227 l15
0 21 -27 20 -28 1 16 0 16 -18 16 c-10 10 -26 17 -34 17 l-15 0 -74 48 c-41
27 -159 110 -263 185 -104 75 -193 137 -199 137 -6 0 -8 -2 -6 -4z"/>
<path d="M61910 55549 c0 -18 63 -413 67 -418 12 -17 7 31 -23 214 -31 187
-44 246 -44 204z"/>
<path d="M48811 55504 c-1 -15 150 -326 155 -321 2 2 -32 78 -75 168 -44 90
-80 159 -80 153z"/>
<path d="M55146 55447 l-24 -25 -12 -39 -12 -39 55 -103 55 -103 6 10 6 11
-50 94 -50 94 11 34 11 34 25 21 25 21 -11 7 -11 7 -24 -24z"/>
<path d="M50926 55192 c-3 -5 -8 -29 -11 -53 l-5 -44 14 50 c14 48 15 67 2 47z"/>
<path d="M48685 55075 c-126 -63 -234 -116 -240 -118 -5 -2 -8 -6 -5 -9 3 -3
118 50 255 118 138 67 243 123 235 122 -8 0 -118 -51 -245 -113z"/>
<path d="M55194 55103 c-3 -16 -38 -133 -78 -260 -40 -128 -70 -233 -66 -233
7 0 143 428 155 488 l7 32 -6 0 c-3 0 -8 -12 -12 -27z"/>
<path d="M73831 55016 l-23 -45 -62 -58 c-33 -32 -81 -75 -105 -96 l-44 -37 6
-7 7 -7 43 40 c23 21 70 66 105 99 l64 60 24 48 24 47 -7 0 c-5 0 -19 -20 -32
-44z"/>
<path d="M45680 55003 c0 -4 23 -28 51 -52 l52 -44 -7 -91 c-4 -50 -10 -111
-13 -136 l-6 -45 7 7 c4 3 13 60 20 126 l12 121 -7 19 -7 19 -51 42 c-28 24
-51 39 -51 34z"/>
<path d="M52125 54742 l-140 -216 -137 -175 c-75 -97 -135 -178 -132 -180 2
-2 6 -2 7 0 2 2 62 78 133 169 l130 165 133 205 c74 113 141 215 149 228 l14
22 -8 0 c-5 -1 -72 -98 -149 -218z"/>
<path d="M53218 54933 c-8 -10 -28 -40 -43 -68 -16 -27 -75 -118 -132 -202
l-103 -152 9 -5 9 -6 129 198 c71 108 137 209 147 225 l16 27 -8 0 c-5 0 -16
-8 -24 -17z"/>
<path d="M53280 54940 c0 -5 5 -20 12 -34 l11 -26 -133 -199 -132 -200 -24 16
c-14 9 -27 14 -29 11 -3 -3 6 -11 20 -18 l26 -14 -6 -13 c-2 -8 -111 -175
-241 -370 l-236 -357 -32 -65 c-18 -36 -41 -89 -50 -118 l-17 -51 36 -73 37
-72 -14 -8 -13 -9 22 0 21 0 4 8 c2 5 68 44 148 87 184 99 232 127 227 131 -2
2 -86 -41 -188 -96 -101 -55 -188 -100 -194 -100 l-10 0 -32 70 -31 70 8 5 c4
3 11 21 14 40 l7 35 46 87 46 88 364 549 c201 302 367 555 370 562 l4 12 -16
31 c-16 31 -25 39 -25 21z"/>
<path d="M47677 54923 c-4 -3 -7 -28 -7 -55 l0 -48 40 -97 41 -97 -5 -12 -5
-12 15 -6 14 -5 0 12 0 12 145 69 145 69 0 9 0 8 -141 -71 -141 -70 -12 4 -11
5 -39 101 -39 101 6 45 c7 45 6 50 -6 38z"/>
<path d="M48544 54758 c111 -230 155 -318 161 -318 3 0 0 12 -8 28 -7 15 -60
125 -118 244 -57 120 -107 218 -111 218 -4 0 31 -78 76 -172z"/>
<path d="M47111 54887 c-6 -16 -11 -35 -11 -43 l0 -14 14 0 14 0 5 28 5 27 -8
15 -9 15 -10 -28z"/>
<path d="M52255 54742 l-100 -157 -179 -238 c-98 -131 -176 -240 -174 -243 16
-15 565 762 556 786 -2 5 -48 -62 -103 -148z"/>
<path d="M48167 54588 c46 -90 102 -200 126 -245 23 -46 45 -83 50 -83 l9 0
-45 83 c-24 45 -82 155 -128 245 -46 89 -86 162 -90 162 -3 0 32 -73 78 -162z"/>
<path d="M18310 54629 c-69 -10 -145 -21 -168 -24 -24 -4 -42 -9 -39 -12 6 -5
379 45 386 53 8 7 -50 2 -179 -17z"/>
<path d="M47739 54533 c10 -27 31 -82 46 -123 l28 -75 43 -45 42 -45 47 -102
c27 -57 52 -103 56 -103 l8 0 -35 78 c-20 42 -41 88 -47 102 -6 14 -32 50 -57
80 l-47 55 -43 113 -43 112 -8 0 -9 0 19 -47z"/>
<path d="M50121 54533 c-1 -7 4 -44 11 -83 l12 -70 26 -24 25 -23 47 -16 47
-15 131 -113 131 -112 -8 -7 c-4 -4 -132 -62 -283 -129 l-275 -122 -140 -74
c-77 -41 -134 -75 -128 -75 7 0 81 36 165 79 150 78 662 311 683 311 6 0 32
-13 58 -30 26 -16 53 -30 60 -30 7 0 -17 19 -53 41 l-65 42 -136 117 -137 117
-46 13 -47 13 -23 28 -24 28 -7 53 c-4 29 -11 62 -16 73 l-8 20 0 -12z"/>
<path d="M50225 54480 l-6 -19 43 -58 c23 -32 44 -60 45 -62 2 -2 5 -2 8 1 3
2 -15 31 -39 63 l-43 58 5 19 c6 24 -5 23 -13 -2z"/>
<path d="M53642 54274 c-56 -85 -99 -154 -95 -154 4 1 42 51 83 112 41 62 90
131 107 155 l33 43 -13 -1 -12 0 -103 -155z"/>
<path d="M88023 54381 c-17 -11 -37 -29 -42 -40 l-11 -20 0 -35 c0 -19 3 -41
6 -50 l6 -16 8 5 8 5 -5 44 -5 45 27 25 28 26 31 0 32 0 23 -16 23 -16 9 9 10
10 -26 17 c-15 10 -41 20 -58 22 l-32 5 -32 -20z"/>
<path d="M51440 54365 l-12 -15 10 0 c12 0 26 19 19 26 -2 2 -10 -2 -17 -11z"/>
<path d="M51493 54373 c11 -18 198 -166 203 -161 4 5 -160 141 -195 163 l-14
8 6 -10z"/>
<path d="M49082 54218 c-128 -66 -231 -122 -229 -125 3 -2 114 52 248 121 134
69 237 126 229 125 -8 0 -120 -54 -248 -121z"/>
<path d="M84665 54267 c-88 -40 -189 -88 -224 -106 l-63 -32 6 -6 5 -6 68 36
c37 19 136 65 218 102 83 36 154 70 160 76 l9 9 -9 -1 c-6 0 -82 -33 -170 -72z"/>
<path d="M51450 54306 c32 -32 195 -155 199 -150 2 2 2 6 0 7 -126 104 -248
192 -199 143z"/>
<path d="M18248 54164 l-6 -5 39 -97 c22 -53 55 -150 75 -217 20 -66 40 -124
45 -129 l9 -10 0 15 c-1 27 -77 264 -114 354 -42 100 -40 97 -48 89z"/>
<path d="M51195 54110 l-18 -20 7 -7 7 -7 20 21 21 21 -10 6 -9 6 -18 -20z"/>
<path d="M33450 54085 l0 -35 13 0 13 0 -4 35 -4 35 -9 0 -9 0 0 -35z"/>
<path d="M52580 53952 c-41 -64 -108 -161 -147 -214 -40 -54 -69 -98 -65 -98
11 0 148 187 226 309 57 91 73 121 64 121 -2 0 -37 -53 -78 -118z"/>
<path d="M52030 53909 l95 -90 90 -64 c49 -35 91 -62 94 -60 5 6 11 2 -79 64
l-75 52 -102 95 c-56 51 -105 94 -110 94 -4 -1 35 -41 87 -91z"/>
<path d="M21201 53936 c2 -2 58 -14 124 -25 l120 -21 73 -27 c40 -14 75 -30
78 -34 3 -5 13 -9 22 -9 l17 1 -35 19 c-19 11 -58 28 -86 39 l-50 19 -117 21
c-113 20 -155 25 -146 17z"/>
<path d="M7032 53838 l4 -11 45 -14 c56 -17 246 -43 316 -43 l53 0 0 13 0 14
-127 6 -128 6 -75 21 c-41 11 -79 20 -83 20 l-9 0 4 -12z"/>
<path d="M19950 53833 c78 -3 299 -22 355 -29 l40 -6 -10 10 -10 9 -135 12
c-74 6 -173 10 -220 9 l-85 -2 65 -3z"/>
<path d="M54090 53783 c0 -12 298 -218 306 -211 2 3 -19 21 -48 40 -29 20 -99
68 -155 107 -57 40 -103 68 -103 64z"/>
<path d="M67173 53767 l-53 -10 0 -9 0 -8 23 5 c12 3 41 9 64 14 l42 9 5 -17
c3 -9 15 -71 27 -138 l23 -123 9 0 9 0 -5 13 c-2 6 -15 72 -28 145 l-23 132
-21 -1 c-11 -1 -44 -6 -72 -12z"/>
<path d="M61246 53723 c-7 -24 -86 -457 -86 -474 0 -7 2 -10 5 -7 7 7 96 490
91 495 -2 3 -7 -4 -10 -14z"/>
<path d="M50230 53670 c8 -5 24 -9 35 -9 l20 0 -20 9 c-11 5 -27 9 -35 9 l-15
1 15 -10z"/>
<path d="M49090 53653 c0 -16 123 -264 185 -373 56 -98 54 -95 59 -89 3 3 -14
36 -37 74 -22 39 -78 144 -123 235 -46 91 -83 160 -84 153z"/>
<path d="M49050 53635 c0 -12 135 -275 186 -362 68 -116 63 -108 69 -102 2 3
-25 54 -61 114 -37 61 -92 165 -124 233 -50 105 -70 138 -70 117z"/>
<path d="M50310 53485 c0 -12 133 -246 137 -241 5 4 -125 246 -133 246 -2 0
-4 -2 -4 -5z"/>
<path d="M51350 53460 l-15 -10 12 0 c6 0 15 5 18 10 8 12 4 12 -15 0z"/>
<path d="M54730 53375 c0 -6 7 -20 15 -32 l16 -22 155 -106 155 -105 55 -16
c30 -8 60 -14 67 -11 l12 4 -70 23 -70 23 -146 98 -146 97 -21 29 -21 28 -1
-10z"/>
<path d="M79446 53332 l-6 -10 39 -158 c21 -88 44 -183 51 -212 l12 -54 8 9 9
8 -49 208 c-26 115 -50 211 -53 213 -3 3 -8 1 -11 -4z"/>
<path d="M6790 53259 c-181 -13 -171 -14 84 -14 l239 0 -44 6 c-24 3 -71 8
-104 11 l-60 5 -115 -8z"/>
<path d="M52483 53240 c8 -19 63 -136 122 -259 l107 -224 -14 -9 c-7 -4 -42
-24 -77 -44 l-63 -36 -13 13 c-22 24 -167 300 -220 417 -27 62 -51 108 -53
103 -6 -19 171 -380 255 -518 l13 -23 16 0 c16 0 140 64 194 100 14 9 63 33
110 54 47 21 234 116 415 211 l330 173 43 12 42 13 0 8 0 9 -64 -24 c-36 -14
-211 -101 -390 -195 -178 -94 -327 -171 -330 -171 -3 0 -44 -18 -92 -41 l-86
-41 -8 9 c-5 4 -59 114 -120 243 -61 129 -116 240 -121 245 l-11 10 15 -35z"/>
<path d="M50753 53162 c-106 -53 -193 -100 -193 -104 0 -8 138 59 310 151 158
84 87 56 -117 -47z"/>
<path d="M52134 53219 l-19 -22 23 12 c12 6 22 16 22 21 0 15 -5 12 -26 -11z"/>
<path d="M52228 53223 l13 -5 6 6 6 6 -19 -1 -19 -1 13 -5z"/>
<path d="M31740 53175 c0 -2 23 -16 50 -30 l50 -25 0 8 c0 4 -20 18 -45 30
-47 23 -55 25 -55 17z"/>
<path d="M34808 53160 c-4 -8 -9 -27 -12 -42 l-6 -28 10 0 c15 0 22 23 18 57
l-4 28 -6 -15z"/>
<path d="M66080 52995 c-58 -12 -154 -33 -215 -46 l-110 -23 15 -3 c16 -4 440
84 448 92 10 9 -33 3 -138 -20z"/>
<path d="M50131 52862 c-1 -14 95 -222 102 -222 2 0 41 21 88 46 46 25 139 72
207 104 67 32 122 61 122 64 0 9 -43 -10 -231 -104 -100 -50 -183 -89 -185
-88 -2 3 -59 120 -86 178 l-17 35 0 -13z"/>
<path d="M77940 52713 c41 -157 113 -377 200 -608 57 -151 57 -151 66 -142 l6
6 -60 163 c-81 221 -175 512 -203 631 l-23 97 -12 0 -12 0 38 -147z"/>
<path d="M12662 52683 l-101 -147 5 -8 5 -8 8 4 c13 8 201 285 201 296 0 27
-25 -1 -118 -137z"/>
<path d="M35497 52588 c18 -117 33 -219 33 -225 0 -7 4 -13 8 -13 l8 0 -33
213 c-18 116 -33 218 -33 225 0 6 -4 12 -8 12 l-8 0 33 -212z"/>
<path d="M65060 52747 c-204 -40 -217 -44 -209 -51 5 -5 451 82 458 89 10 11
-52 1 -249 -38z"/>
<path d="M85754 52637 c-28 -16 -343 -258 -350 -268 -3 -5 -3 -9 -1 -9 2 0 84
60 181 134 97 74 182 136 189 139 6 2 10 7 7 10 l-5 5 -21 -11z"/>
<path d="M85653 52512 c-65 -48 -144 -107 -176 -131 -32 -23 -56 -45 -54 -47
5 -5 357 253 357 261 0 10 -13 2 -127 -83z"/>
<path d="M69390 52538 c0 -7 6 -33 14 -58 7 -25 53 -209 100 -410 93 -391 94
-395 101 -389 4 5 -138 613 -181 772 -25 91 -34 114 -34 85z"/>
<path d="M49433 52477 c-68 -34 -123 -65 -123 -69 l0 -8 123 61 c129 65 133
67 126 73 -2 2 -59 -24 -126 -57z"/>
<path d="M21625 52300 c-4 -122 -5 -223 -2 -226 3 -3 8 70 11 163 3 92 8 194
10 226 l4 57 -8 0 -8 0 -7 -220z"/>
<path d="M81526 52511 c5 -5 101 -37 214 -72 113 -34 212 -64 220 -67 l15 -5
-10 10 c-8 8 -250 86 -419 134 l-30 9 10 -9z"/>
<path d="M22522 52333 l-41 -98 -36 -144 c-20 -79 -34 -148 -32 -155 2 -6 18
50 37 124 l33 135 44 105 44 105 16 13 17 12 -20 0 -21 0 -41 -97z"/>
<path d="M78090 52416 c0 -7 152 -430 156 -435 2 -2 7 -1 10 2 l7 6 -78 216
-77 215 -9 0 c-5 0 -9 -2 -9 -4z"/>
<path d="M84810 52312 l-105 -26 15 -3 c8 -2 59 7 113 21 l98 23 8 -16 c5 -9
21 -70 36 -136 l27 -120 10 -10 10 -10 -6 20 c-3 11 -17 70 -31 130 -14 61
-30 120 -35 133 l-10 22 -12 -1 c-7 -1 -60 -13 -118 -27z"/>
<path d="M84795 52267 l-80 -20 12 -4 c6 -2 47 5 91 17 44 11 82 20 85 20 3 0
17 -51 32 -112 32 -135 34 -142 40 -136 3 2 -9 61 -26 131 l-31 127 -21 -1
c-12 -1 -58 -10 -102 -22z"/>
<path d="M30357 52140 l-247 -27 -8 -8 -7 -8 40 6 c22 3 137 16 255 28 201 20
230 24 219 32 -2 2 -115 -9 -252 -23z"/>
<path d="M44170 52073 l0 -8 203 -54 c111 -29 208 -56 216 -58 l14 -5 -5 12
-4 13 -200 53 c-205 55 -224 59 -224 47z"/>
<path d="M52740 52019 l0 -10 10 6 c6 3 10 8 10 11 0 2 -4 4 -10 4 -5 0 -10
-5 -10 -11z"/>
<path d="M13227 51888 c-13 -18 -54 -75 -90 -127 l-67 -94 6 -9 6 -9 78 110
c43 60 86 121 95 135 l17 26 -10 0 c-6 0 -22 -15 -35 -32z"/>
<path d="M32254 51685 c3 -16 19 -113 36 -215 37 -223 41 -243 47 -236 3 2
-12 107 -33 233 l-37 228 -10 10 -9 10 6 -30z"/>
<path d="M3175 51601 c-33 -10 -125 -41 -205 -69 l-145 -51 -3 -11 -4 -11 28
7 c16 4 117 37 226 74 l197 67 -6 7 c-9 9 -20 7 -88 -13z"/>
<path d="M69515 51596 c-44 -14 -300 -124 -745 -319 -157 -69 -379 -166 -495
-217 -431 -188 -640 -282 -649 -291 -29 -28 22 -10 205 72 206 91 354 156
1039 454 206 90 436 191 510 224 l135 61 43 6 42 6 0 9 0 9 -22 -1 c-13 0 -41
-6 -63 -13z"/>
<path d="M69280 51458 c0 -3 13 -36 28 -74 16 -38 34 -91 41 -119 22 -91 42
-157 47 -153 7 7 -51 217 -76 278 -21 50 -40 82 -40 68z"/>
<path d="M34633 51346 l-141 -11 -9 -8 -8 -9 55 6 c30 3 123 11 205 17 83 6
152 13 154 15 7 6 -102 2 -256 -10z"/>
<path d="M42012 51323 c2 -5 10 -21 18 -37 l14 -28 101 -68 c55 -36 140 -89
189 -116 l89 -49 49 -55 49 -55 64 -120 63 -120 20 -66 20 -66 -4 -44 -4 -44
11 43 10 43 -22 77 -23 76 -62 116 -63 115 -51 58 -52 57 -91 50 c-51 27 -132
78 -182 113 l-90 63 -20 31 c-11 18 -24 32 -28 33 -5 0 -7 -3 -5 -7z"/>
<path d="M60680 51289 l0 -44 10 -15 9 -15 -6 55 c-7 69 -13 77 -13 19z"/>
<path d="M12930 51316 c0 -14 489 -358 750 -528 102 -67 155 -108 253 -197
l27 -25 0 10 c0 5 -37 41 -83 81 l-82 71 -215 145 c-329 220 -423 285 -536
370 -96 72 -114 83 -114 73z"/>
<path d="M33466 51312 l9 -9 200 7 200 6 -209 2 -210 2 10 -8z"/>
<path d="M33444 51265 c3 -16 15 -115 27 -220 l22 -190 10 -10 10 -10 -6 25
c-3 14 -15 113 -28 220 l-22 195 -10 10 -9 10 6 -30z"/>
<path d="M32563 51226 l-191 -11 -9 -9 -8 -8 75 6 c41 3 165 11 275 17 203 11
273 20 129 17 -43 0 -165 -6 -271 -12z"/>
<path d="M60670 51196 c0 -4 19 -16 43 -26 l42 -20 25 1 25 0 -50 18 c-27 10
-58 21 -67 26 l-18 7 0 -6z"/>
<path d="M87791 51123 c-28 -31 -51 -61 -51 -66 0 -5 -21 -57 -46 -116 -26
-58 -53 -121 -61 -140 l-14 -33 12 4 12 4 63 145 63 144 51 58 51 57 -14 0
-15 0 -51 -57z"/>
<path d="M61626 50619 c-43 -193 -75 -353 -73 -356 5 -5 11 18 106 445 l58
262 -7 0 -7 0 -77 -351z"/>
<path d="M64640 50882 c0 -5 14 -76 30 -157 l30 -148 0 -59 0 -58 10 0 10 0 0
58 0 57 -31 158 -32 157 -8 0 c-5 0 -9 -4 -9 -8z"/>
<path d="M15106 50722 l-5 -9 72 -49 c40 -27 108 -74 152 -105 44 -31 92 -64
107 -73 l26 -17 6 9 6 10 -164 116 c-90 64 -171 118 -179 122 l-15 5 -6 -9z"/>
<path d="M37711 50586 c-1 -30 69 -429 79 -451 l9 -20 -4 25 c-3 14 -21 120
-40 235 -20 116 -37 215 -40 220 l-3 10 -1 -19z"/>
<path d="M33570 50374 c1 -33 58 -386 64 -392 l6 -5 0 29 c-1 45 -54 372 -63
380 l-7 7 0 -19z"/>
<path d="M33610 50387 c0 -20 61 -392 65 -396 3 -2 5 2 5 10 -1 30 -59 381
-64 387 l-6 5 0 -6z"/>
<path d="M31685 50265 c10 -134 25 -350 25 -369 l0 -19 6 6 6 5 -12 209 -13
208 -9 15 -8 15 5 -70z"/>
<path d="M31723 50243 c4 -49 10 -150 13 -225 l7 -138 10 0 10 0 -6 88 c-4 48
-10 149 -13 225 l-7 137 -10 0 -10 0 6 -87z"/>
<path d="M14310 50302 c0 -8 142 -115 185 -139 12 -7 148 -44 302 -82 153 -39
288 -73 299 -76 l19 -6 -26 15 -26 15 -260 65 c-143 36 -273 70 -288 76 -16 6
-68 40 -117 76 -48 35 -88 61 -88 56z"/>
<path d="M30487 50080 l5 -195 8 -35 8 -35 -5 170 c-3 94 -9 197 -13 230 l-8
60 5 -195z"/>
<path d="M49418 50253 l-17 -4 27 -55 26 -54 23 0 23 0 -30 60 c-17 33 -31 59
-33 59 -1 -1 -10 -3 -19 -6z"/>
<path d="M61580 50245 c0 -3 -25 -118 -55 -257 -31 -138 -54 -256 -51 -262 l4
-11 5 15 c4 8 29 121 57 250 28 129 53 243 56 253 l5 17 -10 0 c-6 0 -11 -2
-11 -5z"/>
<path d="M43220 50103 c0 -6 54 -121 120 -254 66 -133 120 -237 120 -232 0 15
-239 500 -240 486z"/>
<path d="M64611 49814 l-33 -216 6 -5 c3 -4 8 -4 10 -2 5 5 66 393 66 420 l0
19 -8 0 -7 0 -34 -216z"/>
<path d="M65726 49946 l-190 -83 -4 -12 -4 -12 33 14 c219 92 376 161 384 168
l9 9 -19 -1 c-11 0 -105 -38 -209 -83z"/>
<path d="M34145 49991 l-5 -10 9 -5 9 -6 12 15 12 15 -15 0 c-9 0 -18 -4 -22
-9z"/>
<path d="M49543 49968 c15 -34 258 -551 262 -555 1 -2 9 3 18 10 l16 12 -132
280 -133 280 -22 3 -23 4 14 -34z"/>
<path d="M36178 49966 l-216 -21 -9 -9 -8 -9 35 6 c19 3 124 14 233 23 l197
18 0 8 c0 4 -3 7 -7 7 -5 -1 -106 -11 -225 -23z"/>
<path d="M15100 49962 c0 -4 37 -20 83 -36 45 -16 120 -46 166 -67 46 -22 89
-39 95 -39 20 1 -106 62 -198 95 -50 18 -103 38 -118 44 l-28 11 0 -8z"/>
<path d="M38294 49944 c-11 -47 -183 -727 -190 -751 l-6 -23 10 0 10 0 5 23
c3 12 46 190 96 396 51 205 89 376 87 379 -3 2 -8 -9 -12 -24z"/>
<path d="M84219 49946 c-34 -15 -311 -227 -305 -233 2 -3 60 38 128 90 68 52
139 104 158 116 l35 21 28 0 29 0 26 -16 27 -17 124 -166 c68 -91 121 -159
118 -150 -7 22 -229 320 -253 340 l-19 16 -35 6 -35 5 -26 -12z"/>
<path d="M34190 49930 l0 -10 45 0 45 0 0 10 0 10 -45 0 -45 0 0 -10z"/>
<path d="M91130 49806 c0 -2 25 -68 55 -145 30 -78 55 -147 55 -155 0 -7 23
-46 52 -87 l52 -73 3 11 4 11 -45 67 c-26 36 -46 71 -46 78 0 6 -25 75 -56
154 l-57 143 -8 0 c-5 0 -9 -2 -9 -4z"/>
<path d="M22405 49790 l30 -8 165 -5 165 -5 -20 7 -20 8 -175 5 -175 6 30 -8z"/>
<path d="M31753 49693 c4 -49 14 -232 22 -408 24 -497 27 -551 32 -538 4 12
-21 715 -34 926 l-6 107 -10 0 -10 0 6 -87z"/>
<path d="M26930 49742 l0 -10 188 -6 c103 -4 197 -9 210 -12 l22 -4 0 9 0 9
-192 7 c-106 3 -201 9 -210 11 l-18 5 0 -9z"/>
<path d="M49825 49495 c46 -101 144 -275 155 -275 5 0 11 4 15 9 l5 9 -91 154
c-50 84 -98 160 -106 168 l-14 15 36 -80z"/>
<path d="M64620 49560 l0 -10 20 0 20 0 0 10 0 10 -20 0 -20 0 0 -10z"/>
<path d="M62140 49421 l0 -9 68 -15 c37 -9 134 -30 215 -47 l148 -32 6 6 6 6
-6 7 c-8 7 -392 92 -419 93 l-18 0 0 -9z"/>
<path d="M81708 49305 c-81 -63 -162 -122 -180 -131 -18 -9 -69 -47 -113 -84
-90 -75 -164 -120 -243 -145 l-53 -17 -26 7 -26 6 12 -15 13 -16 17 0 c23 0
150 43 188 63 18 9 76 52 130 95 54 42 112 86 129 97 60 39 314 238 314 247 0
17 -18 5 -162 -107z"/>
<path d="M63886 49165 l-5 -13 87 -21 c48 -12 134 -27 192 -35 l105 -14 53 5
52 6 0 8 0 9 -70 0 -70 0 -98 15 c-53 8 -129 23 -169 34 l-72 19 -5 -13z"/>
<path d="M85284 49024 c-99 -75 -180 -138 -182 -139 -2 -2 1 -6 6 -9 l9 -5
181 137 c168 127 196 152 173 152 -4 0 -89 -61 -187 -136z"/>
<path d="M38083 49123 l7 -6 7 6 6 7 -13 0 -13 0 6 -7z"/>
<path d="M64320 49051 c-13 -26 -13 -53 3 -74 l12 -17 0 55 c0 30 -1 55 -2 55
-1 0 -7 -9 -13 -19z"/>
<path d="M64721 48962 l-1 -24 -21 -30 c-12 -16 -19 -31 -16 -34 3 -3 15 9 27
25 l21 31 -4 27 -4 28 -2 -23z"/>
<path d="M75925 48950 l-6 -10 27 -36 27 -35 30 -15 29 -16 10 10 9 9 -30 12
-30 13 -27 39 c-29 43 -30 43 -39 29z"/>
<path d="M80904 48922 c-11 -9 -35 -41 -53 -71 l-32 -54 9 -9 9 -9 33 53 c17
29 42 61 53 70 l22 18 38 0 37 0 0 10 0 10 -47 0 -48 0 -21 -18z"/>
<path d="M81288 48915 c2 -14 8 -25 12 -25 l7 0 -5 25 c-2 14 -8 25 -12 25
l-7 0 5 -25z"/>
<path d="M74560 48910 c0 -15 200 -413 205 -408 2 2 -43 97 -100 211 -58 113
-105 202 -105 197z"/>
<path d="M76415 48855 c-33 -7 -132 -21 -220 -30 -160 -17 -174 -20 -162 -31
l6 -6 153 16 c84 9 190 24 235 33 l83 16 -6 8 c-6 11 -13 10 -89 -6z"/>
<path d="M91439 48708 c-68 -78 -153 -178 -188 -223 -35 -44 -114 -132 -176
-195 -61 -63 -151 -158 -200 -210 l-88 -95 -43 -65 c-64 -98 -116 -161 -478
-570 l-332 -376 -59 -102 -58 -103 -28 -15 -28 -14 -108 -11 c-60 -7 -109 -13
-111 -14 -2 -1 14 -44 34 -94 l36 -91 10 0 10 0 -9 13 c-11 14 -63 143 -63
156 l0 8 93 8 92 7 41 18 42 18 58 103 59 104 305 345 c383 432 428 486 496
587 l54 82 87 93 c48 51 137 145 198 208 62 63 141 151 175 195 58 72 224 267
288 337 14 15 23 30 20 33 -2 3 -61 -59 -129 -137z"/>
<path d="M36015 48720 c-38 -5 -268 -18 -510 -31 -242 -12 -442 -23 -444 -25
-2 -2 -2 -6 0 -8 2 -1 234 10 514 25 l510 28 25 10 25 10 -25 -1 c-14 0 -56
-4 -95 -8z"/>
<path d="M40486 48651 l-6 -9 25 -16 25 -16 0 -15 0 -15 15 0 14 0 -6 18 c-9
24 -23 41 -44 53 l-18 9 -5 -9z"/>
<path d="M34120 48619 c-490 -28 -703 -40 -912 -50 l-238 -12 0 -7 0 -7 48 4
c63 5 768 39 1107 54 l270 12 15 8 15 8 -85 -1 c-47 0 -146 -4 -220 -9z"/>
<path d="M11840 48605 c0 -12 241 -365 249 -365 5 0 -47 83 -115 185 -113 168
-134 196 -134 180z"/>
<path d="M14462 48536 l-43 -74 -34 -26 c-42 -32 -153 -86 -177 -86 l-18 0 0
-9 0 -9 43 13 c71 22 118 45 158 77 l38 30 41 71 c22 39 39 74 38 78 -2 5 -22
-25 -46 -65z"/>
<path d="M80780 48556 l-76 -44 -26 -54 -27 -53 -7 -47 -6 -48 10 0 10 0 7 48
7 47 26 45 c29 51 52 72 131 117 l56 33 -15 0 c-8 0 -49 -20 -90 -44z"/>
<path d="M11814 48577 c3 -10 51 -89 107 -175 l102 -157 31 -29 c17 -16 68
-64 112 -106 l81 -76 58 -28 c32 -15 78 -31 102 -35 l43 -8 0 7 0 8 -36 6
c-20 4 -64 21 -100 38 l-64 30 -105 98 -106 97 -115 174 c-64 96 -113 166
-110 156z"/>
<path d="M14505 48528 c-16 -29 -47 -72 -69 -96 l-40 -44 -60 -30 c-33 -17
-79 -36 -101 -43 l-40 -13 18 -1 c10 -1 52 12 95 29 l77 30 46 47 46 48 36 63
36 62 -8 0 c-4 0 -21 -23 -36 -52z"/>
<path d="M33735 48558 c-66 -5 -163 -13 -215 -18 l-95 -9 140 5 c77 2 174 7
215 10 l75 6 29 -211 29 -211 7 0 7 0 -29 193 c-15 105 -27 203 -25 216 l2 24
-10 2 c-5 1 -64 -2 -130 -7z"/>
<path d="M50722 48391 l-12 -7 123 -196 122 -196 12 10 13 11 -22 36 c-66 111
-211 342 -217 346 -4 2 -12 0 -19 -4z"/>
<path d="M68710 48125 l0 -13 68 -16 c191 -43 866 -176 870 -171 14 13 -31 26
-293 79 -154 32 -362 75 -462 96 l-183 38 0 -13z"/>
<path d="M74970 48077 c0 -11 172 -358 176 -355 5 5 -163 358 -171 358 -3 0
-5 -2 -5 -3z"/>
<path d="M36876 48058 c-141 -8 -166 -12 -155 -22 3 -3 105 1 227 8 l221 12 7
7 7 7 -79 -1 c-43 -1 -146 -6 -228 -11z"/>
<path d="M70152 47828 l4 -12 234 -48 234 -48 16 6 15 6 -20 9 c-17 7 -462 99
-480 99 -4 0 -5 -5 -3 -12z"/>
<path d="M75565 47759 c-544 -73 -1534 -208 -1832 -250 l-221 -32 4 -12 5 -13
17 4 c9 2 103 15 207 29 105 14 474 64 820 111 660 90 1435 194 1448 194 4 0
7 7 7 15 0 8 -3 14 -7 14 -5 -1 -206 -28 -448 -60z"/>
<path d="M90307 47459 c-158 -181 -291 -337 -294 -347 -5 -12 405 450 585 661
l15 17 -9 0 c-5 -1 -139 -149 -297 -331z"/>
<path d="M58241 47399 l-133 -171 10 -10 9 -9 133 171 133 171 -9 9 -9 9 -134
-170z"/>
<path d="M72130 47438 l0 -14 198 -37 197 -38 110 1 c108 0 203 8 358 31 l77
11 0 14 0 14 -22 -5 c-13 -2 -75 -12 -138 -21 l-115 -17 -145 0 -145 1 -165
32 c-91 17 -175 34 -187 37 l-23 5 0 -14z"/>
<path d="M37043 47310 c4 -41 14 -183 22 -315 16 -242 23 -311 31 -303 2 3 -7
156 -20 342 l-25 338 -7 6 -7 7 6 -75z"/>
<path d="M37080 47369 c0 -31 41 -597 46 -637 3 -24 7 -42 10 -40 6 6 -43 679
-50 686 l-6 5 0 -14z"/>
<path d="M47245 47309 l30 -34 80 -258 80 -258 3 13 c3 18 -156 518 -171 536
-6 7 -20 18 -31 24 l-21 11 30 -34z"/>
<path d="M46785 47285 c-82 -24 -172 -53 -200 -65 l-50 -22 -55 -8 -55 -7 42
-2 43 -1 67 25 c85 32 333 104 393 115 l45 8 -40 0 -40 1 -150 -44z"/>
<path d="M29465 47125 c3 -49 12 -243 21 -430 9 -187 17 -342 20 -344 7 -7 5
44 -12 444 l-16 380 -9 20 -9 20 5 -90z"/>
<path d="M53797 47184 l-6 -6 163 -327 c156 -311 331 -650 341 -660 28 -27
-22 78 -236 500 -138 272 -252 495 -253 497 -2 1 -5 -1 -9 -4z"/>
<path d="M20662 47113 l-21 -68 -21 -132 c-12 -73 -20 -138 -18 -144 2 -7 16
62 32 151 l28 164 19 48 19 48 -9 0 -8 0 -21 -67z"/>
<path d="M20701 47103 c-22 -71 -62 -292 -60 -334 1 -13 14 48 30 136 l28 160
20 53 19 52 -8 0 c-4 0 -17 -30 -29 -67z"/>
<path d="M46280 47104 c-47 -19 -150 -55 -228 -80 -79 -25 -142 -47 -140 -49
11 -11 429 132 453 156 13 13 9 12 -85 -27z"/>
<path d="M46501 47081 l-20 -28 -31 -13 -30 -12 -31 6 -30 6 6 -10 6 -10 30 0
c16 0 44 6 62 14 l32 13 18 32 c23 39 15 41 -12 2z"/>
<path d="M35885 46831 c3 -68 5 -141 5 -163 l0 -38 8 0 7 0 -3 87 c-2 49 -8
122 -12 163 l-9 75 4 -124z"/>
<path d="M29090 46787 c-181 -8 -210 -11 -199 -20 5 -4 520 20 559 26 46 7
-163 4 -360 -6z"/>
<path d="M19710 46732 c0 -15 99 -303 131 -382 18 -44 36 -80 41 -80 l7 0 -33
78 c-18 42 -56 148 -85 235 -47 140 -61 175 -61 149z"/>
<path d="M81958 46407 c-103 -78 -187 -146 -187 -151 l-1 -8 15 6 c9 3 97 67
195 142 159 120 199 156 173 153 -5 0 -92 -64 -195 -142z"/>
<path d="M51990 46476 c0 -12 170 -370 181 -381 l10 -10 -9 25 c-15 39 -170
361 -176 368 l-6 5 0 -7z"/>
<path d="M18751 46434 c10 -30 343 -703 346 -700 5 4 -326 687 -340 701 l-9
10 3 -11z"/>
<path d="M20245 46394 c-33 -14 -98 -38 -144 -55 -109 -38 -231 -92 -231 -101
l0 -8 58 26 c31 15 104 44 162 64 118 42 220 86 220 94 0 8 4 9 -65 -20z"/>
<path d="M34446 46394 c-9 -24 -7 -28 9 -14 17 14 20 30 6 30 -5 0 -12 -7 -15
-16z"/>
<path d="M50800 46375 c0 -14 163 -315 171 -315 6 0 -153 305 -166 318 -3 3
-5 2 -5 -3z"/>
<path d="M19840 46246 c0 -13 91 -198 95 -194 6 5 -82 198 -90 198 -3 0 -5 -2
-5 -4z"/>
<path d="M93042 46050 l-22 -29 -82 -31 -82 -32 -28 6 -28 5 -95 -6 -95 -6 0
-10 0 -9 16 6 c9 4 69 7 133 7 l116 0 70 26 70 26 30 28 30 28 25 -14 25 -14
35 -1 35 0 53 -25 54 -25 57 0 56 0 73 38 72 38 -6 7 -7 6 -75 -39 -75 -40
-41 0 -41 0 -47 25 -47 25 -38 0 -39 0 -39 20 c-22 11 -39 20 -40 19 0 0 -10
-13 -23 -29z"/>
<path d="M81344 45948 l-7 -11 11 7 c7 4 12 9 12 12 0 8 -9 4 -16 -8z"/>
<path d="M81370 45886 c-4 -13 -14 -43 -20 -67 -6 -24 -21 -68 -33 -97 l-21
-53 -43 -12 -43 -11 0 -8 c0 -13 27 -9 64 9 l35 16 17 41 c18 46 63 206 57
206 -2 0 -8 -11 -13 -24z"/>
<path d="M81310 45823 c-6 -21 -19 -57 -27 -79 l-15 -42 -21 -10 -22 -11 17 0
17 -1 14 14 14 14 22 72 c13 39 21 74 18 76 -3 3 -10 -12 -17 -33z"/>
<path d="M51910 45770 c-8 -5 -12 -11 -9 -14 2 -3 11 -1 19 4 8 5 12 11 9 14
-2 3 -11 1 -19 -4z"/>
<path d="M48210 45478 c-210 -65 -251 -81 -239 -92 6 -7 451 133 463 145 5 5
8 10 5 12 -2 2 -105 -27 -229 -65z"/>
<path d="M44295 45298 c-11 -7 -45 -18 -75 -25 l-55 -13 -85 0 c-47 -1 -103
-5 -125 -9 l-40 -9 75 -1 c41 0 115 4 164 9 l90 11 43 19 c24 10 43 21 43 24
0 9 -13 7 -35 -6z"/>
<path d="M51157 45293 l-15 -18 -47 -160 -47 -160 -30 -53 c-17 -29 -28 -55
-25 -58 2 -3 19 20 36 50 l31 55 46 158 47 158 15 18 c8 9 13 19 10 22 -3 3
-12 -3 -21 -12z"/>
<path d="M35158 45069 c-101 -89 -185 -163 -187 -165 -2 -2 0 -4 6 -4 10 0
373 317 373 325 0 12 -19 -4 -192 -156z"/>
<path d="M58439 44451 l-24 -19 8 -8 7 -8 12 12 12 12 23 0 23 0 0 9 c0 7 -23
21 -35 21 -1 0 -13 -9 -26 -19z"/>
<path d="M26720 44253 c107 -52 233 -112 280 -133 47 -21 147 -68 223 -104
l137 -65 0 8 c0 4 -19 16 -42 27 -24 10 -205 96 -402 191 l-359 173 -16 -1
-16 -1 195 -95z"/>
<path d="M52625 44190 c3 -5 8 -10 11 -10 2 0 4 5 4 10 0 6 -5 10 -11 10 l-10
0 6 -10z"/>
<path d="M52520 44180 l-15 -9 11 -11 11 -11 17 7 17 6 -4 11 c-5 15 -20 18
-37 7z"/>
<path d="M87897 43880 c11 -19 142 -232 292 -473 374 -603 461 -745 461 -750
0 -3 -53 -38 -117 -78 l-118 -72 -208 -155 c-114 -85 -206 -156 -204 -159 3
-2 94 62 202 142 l197 147 127 76 126 77 3 18 4 18 -83 132 c-45 73 -215 346
-377 607 -162 261 -301 482 -310 490 l-15 15 20 -35z"/>
<path d="M51321 43348 c-2 -38 95 -676 119 -783 l20 -90 50 -380 c27 -209 50
-386 50 -392 0 -7 4 -13 8 -13 l8 0 -57 423 c-31 232 -64 454 -73 492 -9 39
-39 221 -67 405 -27 184 -51 342 -53 350 l-4 15 -1 -27z"/>
<path d="M50830 43278 c-48 -10 -772 -209 -779 -215 -22 -17 53 1 340 83 184
53 368 103 409 112 41 8 77 17 79 19 11 8 -8 9 -49 1z"/>
<path d="M51888 43046 c-81 -11 -150 -24 -154 -29 l-8 -7 30 5 c16 3 96 14
178 25 83 11 152 23 155 25 8 9 -50 3 -201 -19z"/>
<path d="M52111 43053 c13 -38 394 -803 397 -795 3 9 -381 789 -394 801 l-7 6
4 -12z"/>
<path d="M51565 42960 l-110 -18 27 -1 c30 -1 240 28 247 35 8 8 -54 2 -164
-16z"/>
<path d="M54588 42923 l-7 -32 -58 -37 c-32 -21 -104 -60 -161 -87 -57 -27
-101 -51 -98 -54 2 -3 72 30 155 72 l150 77 16 24 16 25 -3 22 -3 22 -7 -32z"/>
<path d="M54620 42922 l0 -28 -15 -20 -14 -21 -72 -43 c-39 -23 -112 -62 -162
-87 l-92 -46 11 -4 12 -4 88 44 c49 24 121 62 160 85 l71 41 17 25 16 25 0 31
0 30 -10 0 -10 0 0 -28z"/>
<path d="M52271 42638 c84 -167 163 -328 176 -358 l24 -55 -6 30 -5 30 -162
328 c-89 180 -166 327 -170 327 -5 0 60 -136 143 -302z"/>
<path d="M50835 42899 c-66 -11 -152 -21 -192 -23 -40 -2 -167 -17 -283 -32
l-210 -29 0 -7 0 -8 22 0 c20 0 183 21 623 81 88 12 169 26 180 30 l20 8 -20
-1 c-11 0 -74 -9 -140 -19z"/>
<path d="M29886 42843 c62 -84 74 -101 123 -185 28 -48 51 -89 51 -91 0 -12
32 -79 35 -75 8 8 -36 112 -73 173 -52 88 -144 215 -155 215 l-9 0 28 -37z"/>
<path d="M35591 42860 c-13 -11 -30 -20 -38 -20 l-14 0 5 -9 6 -9 23 5 c24 6
57 31 57 45 0 13 -13 9 -39 -12z"/>
<path d="M88579 42705 l20 -35 -37 -23 c-20 -13 -48 -30 -62 -37 -43 -23 -161
-112 -156 -118 3 -2 29 13 58 35 29 21 90 60 135 87 l83 48 -23 39 c-12 21
-26 39 -30 39 l-9 0 21 -35z"/>
<path d="M31880 42689 l0 -12 -157 -153 -157 -153 6 -7 7 -6 128 121 c159 151
217 221 183 221 -5 0 -10 -5 -10 -11z"/>
<path d="M31771 42498 l-164 -168 7 -7 7 -7 120 119 c134 133 202 211 197 223
l-3 8 -164 -168z"/>
<path d="M51380 42558 c-14 -4 -160 -24 -325 -43 -165 -20 -316 -39 -335 -42
l-35 -6 11 -4 c6 -2 155 14 331 37 177 22 334 40 349 40 l29 0 33 -208 c18
-114 44 -304 58 -422 22 -190 34 -263 34 -204 0 47 -61 524 -85 664 l-26 155
4 17 5 17 -12 4 c-6 2 -22 0 -36 -5z"/>
<path d="M55650 42530 l-145 -6 203 -2 202 -2 0 10 0 10 -57 -2 c-32 -1 -123
-5 -203 -8z"/>
<path d="M91452 42425 c-107 -56 -199 -109 -205 -115 -11 -12 99 44 321 162
84 46 105 59 85 57 -5 0 -95 -47 -201 -104z"/>
<path d="M30157 42042 l-8 -12 7 -73 c4 -39 10 -81 14 -92 17 -45 402 -484
433 -494 12 -4 -5 16 -133 154 -90 96 -261 301 -281 335 l-14 25 -5 85 -5 85
-8 -13z"/>
<path d="M31042 41812 l-169 -237 -54 -50 c-30 -28 -89 -77 -131 -109 -69 -52
-92 -76 -72 -76 11 0 210 159 245 197 20 21 111 142 202 270 l166 232 -8 6 -9
5 -170 -238z"/>
<path d="M50596 41823 c-3 -60 -9 -180 -12 -269 l-7 -161 10 -6 10 -6 7 172
c3 94 9 218 13 275 l6 102 -10 0 -10 0 -7 -107z"/>
<path d="M92864 41796 c9 -25 298 -417 304 -412 3 4 -284 404 -306 426 -3 3
-2 -3 2 -14z"/>
<path d="M6631 41777 l-10 -13 151 -125 c178 -145 371 -319 364 -327 -3 -3
-12 0 -20 7 -8 7 -29 16 -47 21 l-32 9 -64 -9 -64 -9 -45 -22 -45 -22 8 -8 9
-9 59 25 60 25 51 0 51 0 46 -14 47 -14 -6 9 -5 9 7 0 c5 0 25 -16 45 -36 l36
-35 6 15 6 15 -157 143 c-141 129 -225 201 -388 336 l-52 42 -11 -13z"/>
<path d="M87054 41559 c-98 -72 -181 -133 -184 -136 l-5 -6 16 6 c12 4 287
199 358 254 2 2 2 5 0 8 -3 2 -86 -54 -185 -126z"/>
<path d="M30336 41598 c22 -24 82 -89 134 -146 51 -56 95 -100 98 -98 6 7
-250 286 -262 286 l-10 0 40 -42z"/>
<path d="M86822 41339 l-63 -50 -33 -52 c-19 -29 -93 -170 -165 -315 l-131
-262 -46 -63 -46 -62 -46 -38 c-52 -41 -187 -127 -202 -127 -5 0 -11 -4 -15
-10 l-6 -9 33 11 c46 16 122 63 191 118 l57 46 44 60 43 60 148 294 148 294
51 51 c28 28 67 63 86 77 19 15 31 27 25 27 -5 0 -38 -22 -73 -50z"/>
<path d="M28497 41246 l-5 -12 22 -2 c11 0 53 -8 91 -16 l70 -15 142 -4 142
-4 4 11 4 11 -146 3 -146 4 -87 18 -87 17 -4 -11z"/>
<path d="M53913 41064 l-12 -5 206 -412 c114 -227 208 -414 209 -416 2 -2 10
-1 18 2 l16 6 -34 73 c-18 40 -109 227 -201 416 l-168 342 -11 -1 c-6 0 -16
-3 -23 -5z"/>
<path d="M57748 40923 c56 -2 148 -2 205 0 l102 3 -205 0 -205 0 103 -3z"/>
<path d="M80621 40697 c-1 -26 14 -53 166 -295 l15 -24 5 6 5 5 -84 138 c-47
76 -90 149 -96 163 l-11 25 0 -18z"/>
<path d="M66109 40478 l-62 -123 -22 -77 -23 -78 8 -5 9 -5 4 7 c3 5 13 37 23
73 l17 65 63 127 64 127 -10 6 -9 6 -62 -123z"/>
<path d="M60468 40483 c7 -3 110 -19 228 -37 l214 -32 0 6 c0 6 -422 71 -445
69 l-10 -1 13 -5z"/>
<path d="M85970 40374 c-40 -13 -187 -33 -350 -49 -36 -3 -123 -13 -195 -21
l-130 -14 -50 -17 c-51 -16 -75 -30 -75 -43 l0 -8 60 25 60 24 162 19 c90 11
235 29 323 39 l160 20 60 19 60 20 -20 0 c-11 0 -40 -6 -65 -14z"/>
<path d="M51800 40323 l0 -8 223 -46 c122 -26 224 -45 226 -43 11 10 -22 20
-211 60 -210 45 -238 49 -238 37z"/>
<path d="M61456 40186 c71 -47 159 -101 197 -121 l67 -35 0 8 c0 4 -24 19 -52
34 -29 14 -113 64 -185 112 -73 47 -138 86 -144 86 -7 0 46 -38 117 -84z"/>
<path d="M52215 40175 c-4 -22 -38 -197 -76 -389 -38 -193 -66 -352 -64 -354
3 -3 7 1 9 9 13 42 146 753 143 763 l-4 11 -8 -40z"/>
<path d="M52740 40132 l0 -9 235 -48 235 -48 7 6 c3 4 4 8 2 10 -4 4 -459 97
-471 97 -5 0 -8 -4 -8 -8z"/>
<path d="M46518 40094 l-6 -9 14 -25 13 -25 0 15 c0 8 -4 24 -8 34 l-8 20 -5
-10z"/>
<path d="M84634 39895 c-82 -53 -151 -100 -152 -105 -4 -11 273 162 298 186
29 28 0 12 -146 -81z"/>
<path d="M81060 39966 c0 -12 234 -386 242 -386 7 0 -214 365 -233 385 l-9 9
0 -8z"/>
<path d="M84780 39956 c0 -4 34 -58 77 -119 42 -62 220 -346 395 -632 175
-286 323 -521 328 -523 23 -8 -736 1213 -791 1273 l-9 9 0 -8z"/>
<path d="M48307 39803 c-46 -60 -152 -197 -236 -306 l-153 -197 4 -10 3 -10
171 223 c95 122 204 264 244 315 l71 92 -10 0 c-5 0 -47 -48 -94 -107z"/>
<path d="M35693 39588 c-61 -84 -126 -172 -143 -195 l-31 -41 9 -6 10 -6 141
194 c77 107 141 197 141 200 0 21 -29 -11 -127 -146z"/>
<path d="M47180 39340 l0 -13 7 6 6 7 -6 7 -7 6 0 -13z"/>
<path d="M68510 39283 l0 -21 -25 -30 -25 -30 36 -4 35 -4 5 7 4 7 -14 5 -15
6 12 30 11 31 -12 12 -12 12 0 -21z"/>
<path d="M51151 39246 c2 -2 101 -34 219 -70 l215 -66 208 -45 c114 -25 213
-45 219 -45 34 0 -20 14 -222 59 l-225 49 -197 61 c-178 55 -229 69 -217 57z"/>
<path d="M51141 39206 c2 -2 94 -31 205 -65 l201 -60 228 -51 c126 -27 231
-48 233 -45 7 7 -3 9 -236 59 l-212 46 -199 60 c-182 55 -232 67 -220 56z"/>
<path d="M68910 38912 c0 -5 37 -42 82 -82 l81 -74 59 -79 c32 -43 62 -86 67
-95 l9 -17 7 7 7 6 -12 23 c-7 12 -32 49 -56 82 l-44 59 -94 89 c-91 87 -106
98 -106 81z"/>
<path d="M52455 38903 l10 -10 290 -56 c160 -31 351 -68 425 -82 513 -95 948
-177 965 -182 l20 -5 -10 9 -10 10 -400 76 c-451 86 -790 150 -1070 203 -104
20 -199 38 -210 41 l-20 5 10 -9z"/>
<path d="M52902 38855 c7 -8 430 -87 435 -82 6 6 -15 11 -230 51 -193 37 -214
40 -205 31z"/>
<path d="M59970 38784 c0 -13 105 -181 137 -219 40 -47 140 -135 154 -135 6 0
-11 18 -38 41 -26 22 -67 61 -91 87 l-43 47 -56 93 c-52 86 -63 101 -63 86z"/>
<path d="M55346 38701 l-8 -12 58 -65 c31 -36 102 -104 156 -151 l99 -86 11
11 c7 7 10 13 7 15 -41 29 -173 150 -235 215 l-81 86 -7 -13z"/>
<path d="M87860 38360 c-25 -15 -109 -67 -188 -115 -79 -48 -141 -89 -139 -92
4 -3 359 207 376 223 2 2 2 6 0 8 -2 2 -24 -9 -49 -24z"/>
<path d="M89009 38249 c-112 -73 -210 -132 -218 -133 l-15 -1 -75 127 c-41 70
-77 126 -79 123 -4 -4 134 -243 152 -262 l12 -13 216 140 217 140 17 -7 17 -6
-7 11 c-4 7 -13 12 -20 12 -7 0 -105 -59 -217 -131z"/>
<path d="M51361 38277 c-1 -4 -44 -186 -96 -404 -52 -218 -93 -398 -91 -401 6
-5 11 13 111 432 l86 358 -5 12 c-2 6 -5 8 -5 3z"/>
<path d="M60055 38081 c167 -158 607 -561 612 -561 12 0 -66 75 -352 339 -143
133 -264 241 -270 241 l-9 0 19 -19z"/>
<path d="M86644 37612 c-55 -37 -120 -83 -145 -103 -24 -20 -162 -114 -307
-209 -144 -95 -261 -175 -258 -177 6 -6 555 354 591 387 17 16 80 60 140 99
l110 71 -15 -1 c-8 0 -60 -31 -116 -67z"/>
<path d="M86660 37573 c-63 -42 -129 -88 -146 -103 -17 -15 -149 -105 -293
-200 -144 -95 -260 -175 -257 -177 6 -6 525 337 592 391 29 25 94 70 144 102
49 31 90 58 90 60 0 11 -26 -3 -130 -73z"/>
<path d="M59320 37586 c0 -3 49 -105 110 -228 l110 -223 33 -37 34 -38 29 0
29 0 112 32 c62 18 113 36 113 40 l0 7 -12 -4 c-7 -2 -59 -18 -116 -35 l-103
-31 -29 6 -29 6 -30 37 -29 37 -105 218 c-91 186 -117 234 -117 213z"/>
<path d="M30140 37196 c0 -25 5 -79 11 -120 l10 -76 -11 -57 -10 -58 -92 -253
-91 -252 7 -7 c3 -3 8 -4 9 -2 2 2 45 119 96 259 l91 255 10 54 10 55 -10 80
c-5 44 -10 100 -10 123 l0 43 -10 0 -10 0 0 -44z"/>
<path d="M50910 37108 l0 -17 150 -143 c83 -79 156 -145 163 -147 6 -2 -57 63
-140 144 -84 80 -157 154 -163 163 l-9 17 -1 -17z"/>
<path d="M58237 37036 l-6 -15 177 -104 c424 -249 915 -539 966 -572 l55 -35
11 20 11 20 -56 35 c-57 37 -579 343 -932 548 -111 64 -206 117 -211 117 -6 0
-12 -6 -15 -14z"/>
<path d="M85650 36785 c0 -15 202 -331 281 -441 127 -175 212 -276 305 -359
l79 -70 -23 32 c-12 17 -44 50 -72 73 -98 82 -323 380 -475 628 -79 129 -95
152 -95 137z"/>
<path d="M58634 36762 c4 -6 62 -44 129 -85 67 -41 223 -138 347 -215 l225
-141 9 9 8 8 -6 10 c-6 11 -190 119 -710 420 l-9 5 7 -11z"/>
<path d="M59056 36751 c13 -12 353 -211 366 -214 l11 -2 4 11 4 11 -190 102
c-104 55 -193 101 -197 101 l-8 0 10 -9z"/>
<path d="M58962 36690 c-14 -23 -15 -30 -4 -30 5 0 14 11 20 25 l12 25 -8 0
c-4 0 -13 -9 -20 -20z"/>
<path d="M40455 36579 c-199 -44 -408 -80 -530 -93 l-110 -11 -3 -97 -3 -98 8
0 8 0 0 93 0 92 90 6 c137 10 657 110 680 130 l9 9 -9 -1 c-6 0 -68 -14 -140
-30z"/>
<path d="M40975 36483 c3 -16 19 -120 35 -232 17 -113 32 -207 35 -209 8 -9 7
6 -27 241 l-33 227 -7 0 -7 0 4 -27z"/>
<path d="M53765 36448 c-13 -56 -75 -373 -75 -385 0 -7 4 -13 8 -13 l8 0 38
198 c22 108 41 203 44 210 l4 12 -11 0 -11 0 -5 -22z"/>
<path d="M88478 36122 c-103 -65 -187 -121 -188 -125 l0 -8 14 3 c21 5 386
232 386 241 0 17 -35 -1 -212 -111z"/>
<path d="M80871 35979 c8 -15 77 -129 154 -254 l140 -227 196 -212 c108 -116
242 -264 299 -329 57 -65 105 -115 107 -113 7 6 -231 275 -428 486 l-154 165
-149 240 c-82 132 -156 247 -164 255 l-14 15 13 -26z"/>
<path d="M34791 35943 c0 -11 339 -295 339 -285 0 8 -273 245 -322 280 l-18
13 1 -8z"/>
<path d="M86487 35769 l-17 -10 5 -8 4 -8 36 11 c19 6 35 14 35 18 l0 8 -22 0
c-13 0 -31 -5 -41 -11z"/>
<path d="M86645 35712 c22 -45 157 -232 167 -232 4 0 8 3 8 6 0 7 -132 190
-166 229 l-26 30 17 -33z"/>
<path d="M84172 35660 c13 -25 64 -114 113 -199 l89 -154 -18 -11 c-9 -6 -338
-218 -729 -471 -776 -502 -1171 -764 -1164 -771 2 -2 162 100 355 228 300 199
1464 953 1540 998 14 8 33 20 41 27 9 7 124 82 256 168 l240 155 40 -1 40 0
26 -22 26 -22 53 -95 c29 -52 80 -133 115 -180 34 -47 142 -215 240 -375 98
-159 185 -298 193 -308 24 -27 26 -12 4 20 -12 15 -98 154 -192 308 -95 154
-200 318 -235 365 -34 47 -86 128 -115 180 l-52 95 -27 22 -26 22 -48 1 -48 0
-241 -156 c-133 -86 -247 -158 -254 -161 l-12 -4 -103 178 c-56 98 -109 185
-117 193 l-15 15 25 -45z"/>
<path d="M86440 35690 c0 -5 5 -10 11 -10 l10 0 -6 10 c-3 6 -8 10 -11 10 -2
0 -4 -4 -4 -10z"/>
<path d="M41764 35677 l19 -14 -5 -27 -6 -28 10 10 10 10 -4 28 -3 29 -20 3
-20 4 19 -15z"/>
<path d="M72850 35642 c0 -4 30 -51 66 -103 36 -52 88 -133 116 -182 48 -83
64 -104 73 -95 7 6 -107 199 -174 296 -58 83 -81 107 -81 84z"/>
<path d="M84917 35603 c-22 -6 -855 -538 -877 -561 l-15 -15 15 8 c8 4 207
131 441 281 l426 274 27 0 26 0 20 -20 c11 -11 33 -46 49 -78 16 -32 56 -94
88 -137 32 -44 142 -215 242 -380 101 -165 198 -318 214 -340 17 -22 32 -42
34 -44 2 -2 5 -2 8 1 l6 5 -24 29 c-14 16 -110 170 -216 341 -105 172 -217
348 -248 390 -32 43 -75 111 -96 150 l-38 72 -22 16 c-22 15 -28 16 -60 8z"/>
<path d="M52680 35189 c-91 -82 -167 -155 -169 -162 l-4 -12 44 40 c24 22 104
94 177 159 72 66 132 121 132 123 0 13 -35 -16 -180 -148z"/>
<path d="M61001 35249 c-5 -13 -39 -96 -75 -183 -37 -88 -65 -164 -63 -169 1
-5 37 76 80 179 42 103 75 189 72 192 -2 3 -9 -6 -14 -19z"/>
<path d="M33744 35157 c-56 -69 -104 -148 -152 -249 l-31 -68 9 0 c4 0 13 15
19 32 19 54 118 219 166 278 38 47 53 70 43 70 -2 0 -26 -28 -54 -63z"/>
<path d="M81431 35154 c14 -16 88 -100 163 -186 127 -146 146 -166 146 -154 0
9 -312 361 -323 365 l-12 4 26 -29z"/>
<path d="M80043 34807 c-122 -66 -220 -123 -218 -125 4 -5 432 223 450 239 l9
9 -9 -1 c-6 0 -110 -55 -232 -122z"/>
<path d="M78139 34666 c-63 -34 -141 -76 -172 -94 l-57 -33 0 -14 0 -13 73 47
c39 26 117 71 172 100 55 29 104 57 110 62 l9 9 -9 -1 c-6 -1 -62 -29 -126
-63z"/>
<path d="M59447 34513 c-103 -63 -186 -118 -183 -120 3 -3 87 46 188 108 l182
113 18 -1 18 -2 -5 10 c-4 5 -12 9 -18 9 -7 0 -97 -53 -200 -117z"/>
<path d="M59650 34583 c0 -7 4 -14 8 -17 5 -3 42 -96 83 -206 40 -111 75 -197
77 -192 1 5 -29 97 -69 203 l-71 194 -14 15 -14 14 0 -11z"/>
<path d="M85441 34468 l-195 -122 12 -4 12 -4 190 118 c167 104 210 135 183
134 -5 -1 -96 -55 -202 -122z"/>
<path d="M62311 34532 l46 -51 7 -32 c3 -17 6 -51 6 -75 l0 -44 16 0 17 0 -5
76 -5 75 -19 25 c-10 14 -39 37 -64 51 l-45 27 46 -52z"/>
<path d="M60617 34373 l-36 -88 -37 -270 -37 -270 -18 -25 -17 -25 -43 -22
-44 -23 18 0 c9 0 34 11 55 24 l37 23 13 24 12 24 39 275 38 275 33 78 c18 43
30 80 28 83 -3 2 -21 -35 -41 -83z"/>
<path d="M85305 34319 c-104 -65 -191 -123 -193 -129 l-4 -10 11 0 c8 0 374
221 390 236 3 3 0 8 -5 13 l-9 9 -190 -119z"/>
<path d="M54208 34091 l-417 -56 -8 -8 -8 -9 25 6 c14 3 205 28 425 56 220 28
409 55 420 60 l20 9 -20 -1 c-11 0 -208 -26 -437 -57z"/>
<path d="M87329 34001 c-219 -138 -254 -160 -243 -161 8 0 338 201 353 216 2
2 2 5 0 7 -2 2 -52 -26 -110 -62z"/>
<path d="M53528 33961 l-186 -26 -9 -9 -8 -8 30 6 c17 3 118 17 225 31 185 25
244 36 169 34 -19 -1 -118 -13 -221 -28z"/>
<path d="M84038 33595 c-325 -205 -699 -449 -737 -481 -2 -2 -1 -7 2 -11 l7
-7 178 121 c97 66 355 232 572 368 217 136 399 251 403 255 l9 8 -9 5 -8 5
-417 -263z"/>
<path d="M51967 33773 l-7 -6 0 -163 0 -163 -32 -4 -33 -4 41 -1 41 -2 -1 175
c0 96 -1 175 -2 175 0 0 -4 -3 -7 -7z"/>
<path d="M64659 33250 c-1 -5 -2 -15 -3 -20 l-1 -10 195 -114 195 -115 7 12
c4 7 8 15 8 18 0 6 -307 191 -377 228 l-23 12 -1 -11z"/>
<path d="M1611 33016 c2 -3 81 -10 174 -16 94 -6 185 -12 203 -15 l32 -4 0 8
0 8 -177 11 c-191 13 -239 14 -232 8z"/>
<path d="M73028 32576 l4 -44 -12 -21 -11 -22 -27 -10 c-15 -6 -45 -15 -67
-19 l-40 -9 65 5 65 5 23 25 22 25 0 55 0 54 -13 0 -12 0 3 -44z"/>
<path d="M34300 32508 c0 -7 9 -26 20 -43 l20 -30 0 13 c0 15 -28 72 -35 72
-3 0 -5 -6 -5 -12z"/>
<path d="M72843 32443 l7 -6 7 6 6 7 -13 0 -13 0 6 -7z"/>
<path d="M82440 31936 c0 -2 -7 -39 -15 -81 l-14 -77 -27 -45 -26 -45 -60 -59
c-33 -33 -64 -59 -69 -59 l-9 0 0 -16 0 -15 47 33 46 33 44 55 c24 30 52 71
62 90 l18 35 7 55 c4 30 10 65 13 78 l5 22 -11 0 c-6 0 -11 -2 -11 -4z"/>
<path d="M98818 31737 l-27 -11 -10 -29 -11 -29 29 31 29 31 29 0 28 0 -15 10
c-17 11 -16 11 -52 -3z"/>
<path d="M98907 31692 c78 -120 270 -392 276 -392 4 0 -33 60 -83 133 -51 72
-115 167 -144 209 -28 43 -55 78 -59 78 l-9 0 19 -28z"/>
<path d="M5040 29208 l0 -14 203 -28 c111 -15 210 -30 220 -32 l17 -5 0 14 0
14 -197 27 c-109 15 -208 30 -220 33 l-23 5 0 -14z"/>
<path d="M84015 29021 l-7 -12 59 -62 c82 -87 232 -227 244 -227 5 0 9 3 9 8
0 4 -67 74 -149 156 l-148 148 -8 -11z"/>
<path d="M93645 28963 c-27 -20 -106 -77 -175 -126 -148 -107 -135 -96 -128
-102 l6 -6 173 127 c96 70 178 131 184 136 l9 8 -9 0 c-6 0 -32 -17 -60 -37z"/>
<path d="M84977 27883 c-4 -3 -7 -10 -7 -14 0 -15 233 -274 619 -689 212 -228
415 -448 450 -490 35 -41 130 -147 210 -235 81 -88 218 -238 305 -333 l159
-173 10 10 10 10 -39 43 c-42 46 -208 230 -449 498 -82 92 -168 189 -190 216
-22 27 -222 245 -445 484 -223 239 -454 490 -513 558 -60 67 -110 122 -111
122 -1 0 -6 -3 -9 -7z"/>
<path d="M15310 27700 l0 -10 23 -5 c12 -2 118 -18 236 -35 l215 -30 9 9 10
10 -24 5 c-26 6 -446 66 -460 66 -5 0 -9 -4 -9 -10z"/>
<path d="M86360 27201 l0 -68 -25 -37 c-14 -20 -25 -39 -25 -43 0 -10 31 19
43 41 l12 21 5 78 5 77 -7 0 -8 0 0 -69z"/>
<path d="M86235 26980 c-27 -30 -12 -34 15 -5 l23 25 -10 0 c-5 0 -18 -9 -28
-20z"/>
<path d="M86116 26878 l-48 -32 -48 0 -48 -1 5 -7 4 -8 37 0 37 0 40 19 c48
23 82 47 75 55 -3 3 -27 -9 -54 -26z"/>
<path d="M95310 26779 c-96 -71 -177 -134 -179 -140 -3 -9 325 226 359 257
l14 14 -9 -1 c-6 0 -89 -58 -185 -130z"/>
<path d="M94820 26724 c-102 -74 -187 -139 -189 -145 -2 -6 48 26 110 72 63
45 148 107 189 137 41 30 79 59 85 63 l9 9 -9 0 c-6 -1 -93 -61 -195 -136z"/>
<path d="M24720 26394 l0 -14 26 -10 c14 -6 38 -10 53 -10 l29 0 11 14 12 14
-10 6 -9 6 -14 -5 -15 -6 -41 10 -42 9 0 -14z"/>
<path d="M24376 26362 l-6 -10 68 -6 c37 -4 80 -12 95 -18 l28 -11 14 -28 15
-28 0 -28 0 -29 -58 -174 c-33 -96 -69 -194 -80 -217 -24 -46 -26 -53 -14 -53
15 0 54 94 113 270 l59 174 0 27 c0 15 -7 42 -15 62 l-14 35 -43 15 c-24 9
-68 19 -100 22 l-56 6 -6 -9z"/>
<path d="M4498 25016 l4 -33 -15 -29 c-24 -45 -82 -96 -377 -329 -151 -119
-276 -221 -278 -226 l-4 -9 9 0 c11 0 567 440 616 488 21 20 45 49 53 64 l14
27 0 41 0 40 -13 0 -13 0 4 -34z"/>
<path d="M87028 24893 l-47 -46 -26 17 -26 17 -17 -5 c-21 -7 -191 -176 -177
-176 6 0 46 36 90 80 l80 80 17 0 c9 0 20 -4 23 -10 l6 -10 23 0 22 0 44 45
c24 24 42 47 39 49 -3 3 -26 -16 -51 -41z"/>
<path d="M90500 24839 c52 -6 162 -21 244 -35 82 -13 152 -22 154 -19 8 8 -16
13 -158 35 l-135 21 -100 4 -100 4 95 -10z"/>
<path d="M89491 21936 c-2 -32 201 -902 213 -913 16 -17 10 18 -39 222 -29
121 -78 326 -109 455 -31 129 -58 240 -60 245 l-4 10 -1 -19z"/>
<path d="M85827 21787 c43 -55 607 -646 612 -642 3 3 -22 34 -55 68 -33 34
-174 182 -313 330 -231 244 -294 307 -244 244z"/>
<path d="M89614 20889 c-44 -40 -133 -123 -199 -184 -66 -62 -164 -152 -217
-201 -54 -48 -98 -92 -98 -97 0 -5 53 40 118 99 123 113 378 344 446 406 l41
36 -6 7 -7 6 -78 -72z"/>
<path d="M86761 20815 c0 -13 306 -331 312 -325 3 3 -67 79 -154 170 -87 91
-159 161 -158 155z"/>
<path d="M87105 20389 c158 -167 250 -259 258 -259 11 0 -301 324 -317 329 -6
2 20 -30 59 -70z"/>
<path d="M10731 19870 c-1 -19 -10 -179 -21 -355 -18 -293 -20 -380 -6 -294 3
19 13 169 22 334 l16 300 -5 25 -4 25 -2 -35z"/>
<path d="M92537 16733 c-196 -147 -355 -269 -352 -271 2 -2 163 114 357 258
409 305 362 269 357 275 -3 2 -165 -116 -362 -262z"/>
<path d="M92930 16992 c0 -13 526 -478 950 -841 195 -167 366 -313 379 -325
l24 -21 -4 12 c-2 6 -184 166 -404 355 -220 189 -523 453 -673 586 -150 134
-272 239 -272 234z"/>
<path d="M15795 16978 c-2 -7 -5 -65 -7 -128 l-3 -115 -43 -89 c-40 -84 -88
-156 -121 -183 l-15 -13 6 -6 6 -6 15 9 c9 4 32 29 52 56 l36 47 41 86 41 85
7 62 6 62 7 -25 c4 -14 16 -92 27 -174 11 -82 25 -164 32 -182 l12 -33 -13
-15 -13 -16 -19 0 -19 0 0 -10 0 -10 23 0 24 0 16 18 17 19 0 24 c0 14 -4 29
-9 35 l-10 9 -30 230 c-17 127 -33 240 -36 253 l-5 22 -11 0 c-5 0 -12 -6 -14
-12z"/>
<path d="M92900 16964 c0 -5 84 -83 187 -174 322 -285 1157 -1000 1167 -1000
l10 0 -9 9 c-6 4 -221 190 -480 411 -399 342 -736 637 -847 739 l-28 25 0 -10z"/>
<path d="M301 15068 c-12 -4 -67 -40 -122 -80 l-99 -72 9 -9 8 -8 103 75 103
76 24 0 24 0 49 -25 49 -25 6 10 6 9 -43 23 c-24 13 -55 25 -69 29 l-25 6 -23
-9z"/>
<path d="M98915 14951 c58 -56 339 -290 343 -286 3 3 3 6 1 8 -2 2 -81 70
-176 150 -95 81 -176 147 -180 147 -4 0 1 -9 12 -19z"/>
<path d="M98130 14833 c-80 -96 -1425 -1669 -1453 -1700 -11 -13 -18 -25 -16
-28 3 -2 79 82 170 188 90 105 433 507 762 891 536 625 619 726 605 726 -2 0
-33 -35 -68 -77z"/>
<path d="M99620 14352 c0 -8 315 -276 347 -295 40 -24 -6 18 -167 153 -99 83
-180 147 -180 142z"/>
<path d="M96565 12938 c-124 -144 -151 -178 -142 -178 4 0 91 99 255 293 8 9
13 19 11 21 -2 2 -58 -59 -124 -136z"/>
<path d="M13926 6302 l-6 -11 72 -15 c40 -8 119 -24 175 -36 57 -11 124 -27
150 -35 56 -17 63 -18 63 -6 l0 9 -77 21 c-43 11 -132 32 -199 45 -66 14 -132
28 -146 31 l-26 7 -6 -10z"/>
<path d="M13420 6273 c0 -5 -34 -208 -74 -453 -40 -245 -72 -447 -70 -449 2
-2 6 -2 9 0 2 3 36 196 74 430 39 233 73 436 76 452 l5 27 -10 0 c-6 0 -10 -3
-10 -7z"/>
<path d="M16160 5613 c0 -5 97 -46 216 -92 l215 -83 6 6 c4 3 4 8 2 10 -8 6
-420 166 -430 166 -5 0 -9 -3 -9 -7z"/>
<path d="M19250 4431 l0 -8 248 -90 247 -90 117 -32 c155 -42 173 -50 607
-288 207 -114 457 -245 556 -293 225 -108 576 -297 760 -408 l140 -85 232
-178 c128 -98 448 -352 712 -564 l480 -385 5 9 6 9 -543 434 c-298 239 -618
493 -712 564 l-170 130 -150 91 c-183 110 -575 320 -745 399 -69 32 -289 148
-490 257 -201 110 -405 220 -455 245 l-90 45 -155 44 -154 43 -218 80 c-120
44 -221 80 -223 80 -3 0 -5 -4 -5 -9z"/>
<path d="M13077 3898 c-3 -13 -20 -95 -37 -183 -17 -88 -40 -187 -50 -220
l-18 -60 -17 -160 -16 -160 -95 -535 c-52 -294 -94 -543 -92 -554 l3 -20 98
554 98 555 19 165 18 165 12 30 c14 37 93 436 87 442 -3 2 -7 -6 -10 -19z"/>
<path d="M27960 3850 l0 -10 78 0 77 0 154 -20 c142 -18 173 -19 159 -5 -3 3
-74 14 -159 25 l-154 20 -77 0 -78 0 0 -10z"/>
<path d="M23499 2203 c-51 -76 -105 -155 -121 -175 l-29 -37 9 -5 9 -5 25 27
c27 28 205 292 215 317 l5 15 -11 0 -11 0 -91 -137z"/>
<path d="M22984 2232 c7 -11 313 -252 320 -252 21 0 -12 31 -149 138 -85 67
-160 122 -166 122 l-10 0 5 -8z"/>
<path d="M10790 1697 l0 -13 433 -27 c237 -15 449 -30 470 -33 l37 -6 0 16 0
15 -42 5 c-55 7 -810 56 -860 56 l-38 0 0 -13z"/>
<path d="M12670 1561 l0 -8 58 -6 c31 -4 335 -27 675 -53 l618 -46 6 6 6 6 -6
7 -7 7 -633 47 c-347 27 -651 48 -674 49 l-43 0 0 -9z"/>
</g>
</svg>
