<?xml version="1.0" standalone="no"?>
<!DOCTYPE svg PUBLIC "-//W3C//DTD SVG 20010904//EN"
 "http://www.w3.org/TR/2001/REC-SVG-20010904/DTD/svg10.dtd">
<svg version="1.0" xmlns="http://www.w3.org/2000/svg"
 width="7500.000000pt" height="7500.000000pt" viewBox="0 0 7500.000000 7500.000000"
 preserveAspectRatio="xMidYMid meet">
<metadata>
Created by potrace 1.16, written by Peter Selinger 2001-2019
</metadata>
<g transform="translate(0.000000,7500.000000) scale(0.075000,-0.075000)"
fill="#000000" stroke="none">
<path d="M90157 99898 c-40 -111 -42 -118 -28 -118 10 0 10 0 56 128 l34 92
-12 0 -13 0 -37 -102z"/>
<path d="M90160 99651 c0 -5 6 -14 13 -20 l14 -11 6 7 7 6 -11 14 c-13 15 -29
17 -29 4z"/>
<path d="M90187 99591 l5 -20 -12 -36 -12 -37 -30 -18 -30 -18 11 -6 10 -7 26
17 26 17 15 28 14 28 0 36 0 35 -14 0 -14 0 5 -19z"/>
<path d="M84647 98833 l-6 -9 96 -164 c52 -91 183 -312 290 -492 l195 -328 9
6 c5 3 8 8 5 12 -2 4 -48 79 -101 167 -54 88 -183 306 -288 485 -104 179 -190
326 -192 328 -2 2 -5 -1 -8 -5z"/>
<path d="M14170 96588 l0 -14 188 -17 c103 -10 206 -20 230 -24 l42 -5 0 14 0
14 -192 18 c-106 9 -210 20 -230 23 l-38 6 0 -15z"/>
<path d="M93960 91251 c0 -4 23 -15 51 -25 l51 -19 41 0 c23 -1 104 1 179 3
l137 3 -5 9 -5 8 -162 -6 -162 -6 -62 20 -63 20 0 -7z"/>
<path d="M94406 91172 c5 -5 28 -23 52 -41 l42 -33 0 10 c0 12 -79 72 -94 72
l-10 0 10 -8z"/>
<path d="M32717 89828 l-5 -14 187 -13 186 -13 120 -23 c124 -25 270 -64 331
-90 l34 -14 0 13 0 13 -74 27 c-155 55 -385 98 -586 111 -52 3 -116 8 -141 11
l-46 6 -6 -14z"/>
<path d="M86360 88980 c41 -5 125 -11 185 -15 l110 -6 65 10 65 9 -135 -1
c-74 0 -187 2 -250 5 l-115 6 75 -8z"/>
<path d="M78960 88443 l0 -8 222 -77 222 -77 9 6 10 6 -16 8 c-23 14 -418 149
-433 149 -8 0 -14 -3 -14 -7z"/>
<path d="M89631 87989 c26 -116 50 -213 53 -217 l6 -5 0 9 c0 6 -20 101 -45
212 -25 111 -45 204 -45 207 0 3 -4 5 -8 5 l-8 0 47 -211z"/>
<path d="M35796 87732 l-5 -9 127 -120 c70 -65 143 -131 164 -146 l36 -28 7
11 7 12 -23 16 c-28 19 -236 208 -244 222 -3 5 -19 18 -35 30 l-29 20 -5 -8z"/>
<path d="M80431 85786 c2 -2 92 -37 199 -76 107 -40 198 -74 202 -77 l8 -4 0
9 0 10 -27 10 c-276 101 -396 142 -382 128z"/>
<path d="M80395 85759 c-2 -8 -34 -95 -69 -194 -35 -99 -68 -189 -72 -200 l-7
-20 10 10 c14 13 155 406 149 413 -3 3 -8 -1 -11 -9z"/>
<path d="M80066 84482 c5 -5 108 -43 229 -85 121 -41 312 -108 424 -147 112
-39 206 -69 208 -66 7 7 -11 14 -237 91 -102 35 -283 97 -404 139 -225 78
-237 82 -220 68z"/>
<path d="M24790 83812 l0 -10 38 -15 c20 -9 119 -51 220 -95 l182 -80 0 12 0
13 -202 88 c-112 48 -211 90 -220 93 l-18 4 0 -10z"/>
<path d="M77490 83622 c0 -9 419 -157 425 -150 3 3 -63 29 -147 58 -84 29
-181 63 -215 76 l-63 23 0 -7z"/>
<path d="M95381 80326 c-61 -85 -111 -157 -111 -161 l0 -6 9 5 c5 3 48 61 97
128 48 68 99 138 112 156 l24 32 -10 0 -10 0 -111 -154z"/>
<path d="M98593 78980 l-91 -200 8 0 c4 0 47 85 95 189 l87 189 -3 11 -4 11
-92 -200z"/>
<path d="M74725 76620 c3 -5 8 -10 11 -10 3 0 2 5 -1 10 -3 6 -8 10 -11 10 -3
0 -2 -4 1 -10z"/>
<path d="M74727 76573 c-2 -4 -10 -31 -17 -59 l-13 -50 11 -40 12 -39 -5 40
-4 40 14 55 c13 49 14 74 2 53z"/>
<path d="M30230 76450 l0 -10 45 0 45 0 0 10 0 10 -45 0 -45 0 0 -10z"/>
<path d="M74690 76371 c0 -3 42 -28 93 -55 50 -27 141 -78 200 -113 l109 -64
10 3 9 3 -98 57 c-142 82 -323 177 -323 169z"/>
<path d="M48696 66221 c19 -17 416 -293 430 -298 29 -11 12 6 -48 47 -35 24
-133 92 -219 151 -87 60 -161 109 -165 109 l-8 0 10 -9z"/>
<path d="M96910 66054 c-63 -13 -161 -33 -217 -45 l-101 -21 4 -12 5 -12 224
45 225 46 -3 9 c-5 16 -17 15 -137 -10z"/>
<path d="M30297 65455 c-81 -7 -150 -15 -154 -18 l-5 -6 6 -16 6 -16 32 5 c18
3 103 10 188 16 l155 11 180 -11 c206 -12 449 -35 465 -45 7 -4 335 -55 357
-55 2 0 3 10 3 23 l0 23 -137 18 c-76 10 -161 24 -188 31 l-51 14 -204 21
-205 20 -150 -1 c-82 -1 -217 -7 -298 -14z"/>
<path d="M41285 64131 c11 -5 52 -12 90 -16 61 -6 262 -45 320 -61 l20 -6 -10
10 -10 10 -125 26 c-116 24 -265 47 -293 45 l-12 0 20 -8z"/>
<path d="M41172 63528 c-51 -45 -90 -83 -88 -86 6 -6 186 148 186 159 0 13 4
16 -98 -73z"/>
<path d="M41160 63464 c-176 -150 -193 -165 -188 -169 3 -4 274 220 323 266
l9 9 -9 0 c-6 0 -66 -48 -135 -106z"/>
<path d="M41990 63346 c0 -9 119 -152 189 -229 39 -42 71 -73 71 -68 0 5 -32
44 -71 87 -40 44 -96 109 -126 147 -49 61 -63 75 -63 63z"/>
<path d="M42769 63002 c-162 -140 -279 -247 -279 -257 0 -4 26 17 58 45 31 28
128 113 215 187 86 75 157 137 157 139 0 13 -29 -10 -151 -114z"/>
<path d="M42225 63010 c16 -27 248 -285 258 -289 l12 -4 -26 29 c-14 16 -74
84 -133 152 -95 108 -131 144 -111 112z"/>
<path d="M59045 62892 l10 -9 155 -12 c85 -6 184 -14 220 -18 l65 -6 -6 7 c-4
4 -85 13 -180 21 -96 8 -196 17 -224 20 l-50 6 10 -9z"/>
<path d="M59950 62859 l0 -6 163 -12 c89 -6 191 -14 227 -18 l65 -6 -7 7 -6 8
-221 17 -221 17 0 -7z"/>
<path d="M42145 62449 c-229 -196 -245 -213 -245 -238 l1 -16 14 26 14 26 221
188 c121 103 220 191 220 196 0 5 -1 9 -2 8 -2 0 -102 -86 -223 -190z"/>
<path d="M42406 62618 c12 -20 255 -298 260 -298 10 0 -12 28 -134 168 -112
129 -147 165 -126 130z"/>
<path d="M57573 62064 c-220 -174 -215 -170 -191 -161 12 4 279 210 407 314 2
1 -1 3 -7 3 -6 0 -100 -70 -209 -156z"/>
<path d="M89982 61985 c-68 -79 -139 -165 -159 -190 l-35 -46 7 -7 7 -7 19 25
c11 14 81 98 157 188 75 90 139 168 140 173 l4 9 -9 0 c-4 0 -63 -65 -131
-145z"/>
<path d="M45834 61975 c3 -16 17 -120 31 -230 15 -110 30 -211 36 -225 l9 -25
-4 35 c-3 19 -17 130 -32 245 l-27 210 -10 10 -9 10 6 -30z"/>
<path d="M57330 61901 l0 -8 248 -108 c136 -59 355 -154 486 -212 l239 -104
10 4 11 3 -42 17 c-23 9 -227 98 -454 198 -227 100 -432 190 -455 200 l-43 18
0 -8z"/>
<path d="M57324 61864 c-4 -10 -25 -57 -47 -104 -68 -146 -137 -314 -137 -330
l1 -15 38 90 c21 50 63 144 94 210 l56 120 13 3 13 2 469 -205 c258 -113 471
-203 474 -200 3 2 -15 13 -39 23 -24 11 -237 104 -474 207 l-430 187 -12 16
-12 15 -7 -19z"/>
<path d="M60607 61604 l-27 -15 0 -14 c0 -18 6 -19 23 -5 7 6 21 17 31 24 l19
13 -9 6 -9 5 -28 -14z"/>
<path d="M4822 61440 c2 -5 80 -73 173 -149 l170 -140 9 10 c5 5 8 10 5 12
-109 93 -342 277 -350 277 l-11 0 4 -10z"/>
<path d="M58150 60894 c0 -7 53 -99 117 -205 132 -220 122 -204 127 -198 3 3
-131 231 -234 399 l-9 15 -1 -11z"/>
<path d="M86132 60571 c5 -15 300 -336 312 -340 13 -5 -12 24 -182 212 -119
130 -138 149 -130 128z"/>
<path d="M58635 60474 c-115 -29 -216 -56 -225 -60 l-15 -6 14 -5 13 -5 224
57 223 58 -5 8 c-7 11 12 15 -229 -47z"/>
<path d="M44530 60312 c0 -4 -58 -59 -130 -122 -71 -63 -130 -119 -130 -124
l0 -10 28 25 c150 137 234 209 241 209 6 0 80 -77 167 -170 86 -94 159 -168
162 -165 6 6 -30 47 -187 213 l-126 134 3 9 2 9 -15 0 c-8 0 -15 -3 -15 -8z"/>
<path d="M61915 60169 c2 -14 38 -189 80 -389 67 -322 85 -400 85 -363 0 24
-152 740 -161 758 l-9 20 5 -26z"/>
<path d="M43585 60010 l-6 -10 197 -223 c109 -122 250 -277 313 -345 l115
-123 14 15 15 15 -125 133 c-69 73 -207 225 -307 338 l-182 205 -13 3 -14 3
-7 -11z"/>
<path d="M60970 59993 c0 -19 80 -406 85 -411 9 -9 6 12 -35 213 -35 173 -50
233 -50 198z"/>
<path d="M86386 59629 c-186 -144 -335 -263 -333 -266 5 -4 677 514 677 522 0
3 -2 5 -4 5 -2 0 -155 -117 -340 -261z"/>
<path d="M61954 59775 c2 -11 21 -99 41 -195 34 -159 45 -203 45 -172 0 25
-73 358 -82 372 l-9 15 5 -20z"/>
<path d="M62711 59569 c-106 -21 -196 -41 -200 -45 l-6 -7 25 6 c14 3 104 20
200 37 96 18 177 35 179 36 14 12 -25 7 -198 -27z"/>
<path d="M91642 59180 l4 -15 153 -124 c84 -67 154 -121 157 -118 3 2 -51 48
-118 102 -68 54 -140 114 -162 134 l-39 36 5 -15z"/>
<path d="M52614 58847 c-67 -51 -152 -114 -189 -140 l-67 -48 6 -6 5 -6 196
147 196 146 -13 -1 c-7 0 -68 -42 -134 -92z"/>
<path d="M59262 58779 c3 -8 18 -45 34 -84 l28 -70 15 -13 c28 -23 121 -62
351 -147 124 -46 237 -88 253 -94 l27 -11 0 8 c0 4 -109 47 -242 96 -255 94
-347 133 -378 161 l-19 17 -27 70 c-15 38 -32 72 -37 75 l-10 6 5 -14z"/>
<path d="M84010 58748 c0 -3 35 -71 77 -150 42 -78 87 -170 99 -203 l23 -60 0
16 c1 31 -26 94 -104 239 -72 135 -95 173 -95 158z"/>
<path d="M85870 58566 c0 -8 210 -399 220 -409 l8 -9 5 9 5 8 -109 200 c-94
172 -129 226 -129 201z"/>
<path d="M63900 58473 c0 -5 27 -137 61 -294 33 -156 94 -455 135 -663 66
-336 84 -418 84 -378 0 24 -144 748 -206 1036 -57 265 -74 334 -74 299z"/>
<path d="M59990 58404 l0 -9 192 -70 191 -70 36 3 c34 3 421 78 450 88 8 2 12
6 10 9 -2 2 -90 -14 -194 -36 l-190 -40 -60 -3 -60 -3 -170 63 c-93 34 -178
66 -187 69 l-18 7 0 -8z"/>
<path d="M91697 58142 c-15 -20 -94 -98 -176 -172 -82 -74 -150 -138 -150
-142 -2 -21 29 3 161 123 135 124 208 201 208 220 0 18 -16 7 -43 -29z"/>
<path d="M91820 58142 c0 -4 26 -26 58 -48 31 -22 108 -75 170 -118 61 -42
112 -74 112 -69 0 4 -44 38 -98 75 -53 36 -130 89 -169 117 -40 29 -73 48 -73
43z"/>
<path d="M61675 57727 c-190 -40 -202 -44 -194 -51 4 -4 403 79 424 88 l10 4
-25 0 c-14 0 -110 -19 -215 -41z"/>
<path d="M64221 57119 c-1 -15 75 -388 85 -418 2 -8 6 -12 9 -10 4 4 -79 409
-89 432 l-4 12 -1 -16z"/>
<path d="M79484 56555 c-17 -13 -68 -40 -115 -60 l-84 -36 35 7 c56 10 212 95
199 108 -3 3 -18 -6 -35 -19z"/>
<path d="M79042 56459 l4 -13 65 -14 64 -13 83 6 82 7 0 8 0 8 -122 5 c-68 3
-136 9 -152 13 l-29 7 5 -14z"/>
<path d="M79044 56421 l6 -9 20 5 c28 7 25 13 -6 13 l-25 0 5 -9z"/>
<path d="M63020 55900 l0 -20 9 0 9 0 -5 20 c-3 11 -7 20 -9 20 -2 0 -4 -9 -4
-20z"/>
<path d="M25894 55685 c-9 -22 1 -29 15 -11 l12 14 -11 7 -10 6 -6 -16z"/>
<path d="M25991 55656 c2 -2 94 -68 204 -148 170 -122 255 -181 323 -222 l12
-7 0 8 c0 4 -24 22 -53 40 -29 17 -146 99 -261 182 -115 83 -214 151 -219 151
-6 0 -8 -2 -6 -4z"/>
<path d="M52781 55486 c2 -2 94 -45 204 -96 110 -51 204 -96 210 -101 5 -5 13
-9 19 -9 l10 0 -11 11 c-14 14 -410 199 -425 199 -6 0 -9 -2 -7 -4z"/>
<path d="M52265 55130 c-37 -61 -65 -113 -63 -116 3 -2 35 46 72 107 37 61 65
113 63 116 -3 2 -35 -46 -72 -107z"/>
<path d="M85170 55005 c0 -5 13 -58 30 -119 16 -61 43 -174 60 -251 35 -158
40 -178 46 -172 5 5 -67 326 -101 449 -22 82 -35 116 -35 93z"/>
<path d="M53218 54933 c-8 -10 -28 -40 -44 -68 -15 -27 -81 -129 -145 -225
-99 -147 -338 -516 -363 -557 -68 -117 446 643 545 805 l39 62 -9 0 c-4 0 -15
-8 -23 -17z"/>
<path d="M53285 54930 c4 -14 9 -32 11 -41 l5 -16 -141 -212 c-78 -117 -137
-211 -131 -210 5 2 73 100 150 217 l141 213 -21 37 -20 37 6 -25z"/>
<path d="M51684 54168 l-7 -11 11 7 c12 7 16 16 8 16 -3 0 -8 -5 -12 -12z"/>
<path d="M48862 54015 c23 -47 46 -85 50 -85 l8 0 -42 85 c-23 47 -46 85 -50
85 l-8 0 42 -85z"/>
<path d="M50837 53829 l13 -13 5 6 6 6 -18 6 -18 7 12 -12z"/>
<path d="M77750 53706 c0 -17 100 -396 107 -405 2 -2 6 -1 9 2 l7 7 -53 197
c-29 109 -57 202 -61 208 l-9 9 0 -18z"/>
<path d="M29870 53549 c-106 -35 -81 -38 30 -3 l81 25 124 -3 125 -3 0 8 0 7
-137 -1 -138 -1 -85 -29z"/>
<path d="M13796 53541 l-6 -9 162 -129 c89 -70 173 -136 185 -146 l23 -18 0
15 0 15 -167 132 c-93 72 -173 136 -180 141 l-11 9 -6 -10z"/>
<path d="M26310 53475 c0 -13 84 -172 124 -233 23 -37 55 -87 70 -110 15 -24
30 -41 33 -39 3 3 -25 52 -61 107 -37 56 -87 142 -111 191 -40 78 -55 102 -55
84z"/>
<path d="M28723 53177 c-117 -39 -210 -73 -209 -75 4 -3 417 127 425 134 18
17 -32 3 -216 -59z"/>
<path d="M77718 52827 l-188 -72 0 -12 0 -13 48 19 c26 10 116 44 200 76 l152
58 0 8 c0 16 -23 9 -212 -64z"/>
<path d="M27720 52689 c0 -22 -9 -220 -21 -441 -11 -220 -18 -402 -16 -405 7
-6 15 120 32 482 8 182 17 347 19 368 l4 37 -9 0 -9 0 0 -41z"/>
<path d="M27760 52689 c0 -22 -9 -220 -21 -441 -11 -220 -18 -402 -16 -405 7
-6 16 120 32 472 8 176 17 341 18 368 l4 47 -8 0 -9 0 0 -41z"/>
<path d="M81971 52376 c3 -3 103 -39 224 -81 121 -41 215 -71 210 -66 -11 9
-20 12 -269 97 -157 53 -174 58 -165 50z"/>
<path d="M27002 52268 l9 -63 -5 -165 -5 -165 9 40 9 40 0 126 c1 69 -2 154
-5 188 l-7 61 -7 0 -7 0 9 -62z"/>
<path d="M44170 52073 l0 -8 203 -54 c111 -29 208 -56 216 -58 l14 -5 -5 12
-4 13 -200 53 c-205 55 -224 59 -224 47z"/>
<path d="M82734 51891 c3 -19 9 -58 12 -87 l6 -51 -116 -29 -116 -28 1 -16 c1
-8 5 -26 10 -40 l9 -25 -5 36 -5 35 97 23 c54 13 108 29 119 36 l21 14 -13 77
c-7 42 -16 80 -20 83 l-7 6 7 -34z"/>
<path d="M26775 50749 c-4 -99 -5 -183 -2 -185 3 -3 8 57 11 133 3 76 8 159
11 186 l4 47 -8 0 -8 0 -8 -181z"/>
<path d="M26814 50740 l-9 -180 6 0 7 0 6 138 c4 75 8 156 11 180 l5 42 -9 0
-8 0 -9 -180z"/>
<path d="M33540 50833 c0 -6 15 -110 34 -230 19 -120 47 -299 61 -398 15 -99
30 -191 35 -205 l8 -25 1 27 c1 26 -32 249 -69 463 -10 61 -26 164 -36 230 -9
66 -21 127 -25 135 l-8 15 -1 -12z"/>
<path d="M33570 50368 c1 -30 59 -380 64 -386 13 -13 11 12 -18 201 l-31 197
-7 0 c-5 0 -8 -6 -8 -12z"/>
<path d="M33710 49884 c0 -26 51 -388 55 -392 3 -3 5 1 5 9 0 31 -50 382 -55
387 -3 3 -5 1 -5 -4z"/>
<path d="M86650 49759 c-40 -16 -149 -37 -230 -44 -85 -7 -158 -23 -166 -37
-10 -17 1 -17 41 -3 l40 14 46 1 c100 1 319 50 319 72 0 10 -19 9 -50 -3z"/>
<path d="M39660 49662 l0 -9 133 -32 c72 -17 170 -38 217 -45 l85 -14 8 8 8 7
-78 12 c-64 10 -287 59 -355 78 l-18 4 0 -9z"/>
<path d="M33793 48990 c4 -19 18 -123 32 -230 45 -333 87 -625 91 -629 13 -14
10 28 -22 239 -19 129 -47 326 -63 438 l-28 202 -8 8 -8 7 6 -35z"/>
<path d="M91417 48743 c-80 -93 -162 -190 -183 -218 -21 -27 -109 -125 -197
-217 -88 -93 -155 -168 -151 -168 14 0 313 317 369 390 28 36 112 136 188 222
76 87 134 158 129 158 -5 0 -75 -75 -155 -167z"/>
<path d="M34480 48630 l-15 -10 22 0 22 0 6 10 6 10 -13 0 c-7 0 -20 -5 -28
-10z"/>
<path d="M34070 48617 c-102 -5 -187 -11 -189 -13 -14 -13 31 -14 255 -4 l249
12 20 8 20 9 -85 -1 c-47 -1 -168 -5 -270 -11z"/>
<path d="M33350 48537 c-206 -11 -377 -21 -379 -23 -2 -2 -2 -5 0 -7 6 -5 847
41 862 46 l12 5 -60 0 c-33 0 -229 -10 -435 -21z"/>
<path d="M13189 48005 c-74 -23 -157 -45 -185 -49 -72 -10 -106 -17 -101 -22
2 -3 38 0 78 7 l74 11 143 44 c78 25 142 47 142 50 0 6 -6 5 -151 -41z"/>
<path d="M37260 47379 c-157 -9 -332 -18 -390 -19 l-105 -2 -30 -9 -30 -8 145
5 c238 9 781 42 788 48 l5 6 -49 -1 c-27 -1 -177 -10 -334 -20z"/>
<path d="M80640 47006 c0 -2 13 -97 30 -211 l30 -207 26 -97 c14 -53 30 -100
35 -105 l9 -10 0 15 c0 7 -12 55 -25 104 l-26 90 -29 204 c-17 112 -30 207
-30 212 0 5 -4 9 -10 9 -5 0 -10 -2 -10 -4z"/>
<path d="M30008 46831 l-126 -6 -8 -7 -7 -8 149 6 c82 4 174 10 204 14 l55 8
-70 -1 c-38 0 -127 -3 -197 -6z"/>
<path d="M80978 46393 l13 -5 6 6 6 6 -19 -1 -19 -1 13 -5z"/>
<path d="M80875 46380 l-30 -8 25 -1 c14 0 32 4 40 9 l15 10 -10 -1 c-5 -1
-23 -5 -40 -9z"/>
<path d="M46186 46343 c-11 -34 -75 -348 -85 -418 -6 -38 -14 -81 -17 -95 l-5
-25 9 10 9 10 13 80 c6 44 29 163 51 264 21 102 37 187 35 189 -2 2 -7 -5 -10
-15z"/>
<path d="M81344 45948 l-7 -11 11 7 c7 4 12 9 12 12 0 8 -9 4 -16 -8z"/>
<path d="M81315 45838 c-3 -13 -15 -48 -26 -79 l-21 -57 -21 -10 -22 -11 15 0
c8 0 21 3 28 7 l12 8 19 55 c22 65 33 109 27 109 -3 0 -7 -10 -11 -22z"/>
<path d="M48653 45717 l-223 -72 0 -12 0 -12 40 14 c23 8 126 42 230 75 l190
61 0 9 c0 14 9 16 -237 -63z"/>
<path d="M81252 45625 c0 -22 -3 -51 -6 -65 l-7 -25 15 27 16 27 -9 38 -9 38
0 -40z"/>
<path d="M40765 45519 c-55 -10 -129 -23 -165 -28 l-65 -8 55 -1 55 -1 125 23
125 24 13 -10 12 -10 0 16 0 16 -27 -1 c-16 0 -73 -9 -128 -20z"/>
<path d="M50803 42895 c-83 -12 -157 -25 -165 -28 l-13 -5 20 -1 c30 -1 336
47 343 53 l5 6 -19 -1 c-10 -1 -87 -11 -171 -24z"/>
<path d="M9850 42706 l-215 -73 5 -9 c7 -13 6 -13 233 62 l207 69 0 12 c0 7
-3 13 -7 12 -5 0 -105 -33 -223 -73z"/>
<path d="M5435 41526 c-90 -47 -249 -148 -259 -165 l-7 -11 6 -9 5 -10 78 51
c42 28 100 66 127 84 28 18 71 42 98 53 l47 20 0 10 c0 5 -3 12 -8 15 l-8 4
-79 -42z"/>
<path d="M57200 40924 c8 -1 203 -5 433 -7 l417 -4 0 9 0 8 -432 -1 c-238 -1
-426 -3 -418 -5z"/>
<path d="M53478 40738 l-87 -73 -48 -65 -48 -65 -22 -55 -22 -55 -31 -174 -31
-173 5 -6 c11 -11 15 5 45 173 l31 170 22 55 22 55 57 75 58 75 75 60 c70 56
87 75 68 75 -4 0 -47 -33 -94 -72z"/>
<path d="M60290 38450 c0 -5 5 -10 10 -10 l10 0 0 -16 0 -15 -47 -67 c-26 -37
-87 -110 -135 -162 -48 -52 -84 -97 -81 -100 8 -8 158 157 223 248 l60 82 0
15 0 14 -20 11 -20 11 0 -11z"/>
<path d="M59638 37755 c-37 -25 -117 -72 -178 -106 l-110 -60 0 -10 0 -10 98
52 c94 51 272 165 272 174 0 12 -19 2 -82 -40z"/>
<path d="M57034 37756 c-4 -9 -5 -18 -3 -20 2 -2 181 -111 398 -242 l394 -237
13 18 14 19 -393 234 c-215 129 -398 236 -404 239 l-13 5 -6 -16z"/>
<path d="M33853 37492 c-179 -206 -563 -666 -563 -676 0 -22 41 23 226 247
115 138 279 332 366 430 145 163 172 198 151 196 -5 0 -85 -89 -180 -197z"/>
<path d="M86660 37572 c-110 -74 -240 -171 -240 -179 0 -8 63 33 127 85 37 29
106 78 155 109 48 30 88 57 88 59 0 11 -26 -3 -130 -74z"/>
<path d="M40758 36646 c-75 -17 -140 -34 -144 -38 -10 -11 -14 -12 161 27
l158 36 8 -8 c4 -4 12 -37 18 -72 6 -35 13 -66 17 -70 l6 -6 -7 60 c-4 33 -11
70 -16 83 l-9 22 -27 -1 c-16 -1 -90 -15 -165 -33z"/>
<path d="M40934 36485 c3 -16 30 -203 61 -415 63 -444 65 -454 71 -447 3 3
-23 200 -57 438 l-62 434 -9 10 -10 10 6 -30z"/>
<path d="M84842 35613 c-24 -14 -41 -28 -38 -30 3 -3 25 6 50 21 l45 26 38 0
38 -1 23 -19 23 -19 61 -108 c33 -59 82 -135 108 -168 26 -33 132 -197 235
-365 104 -168 195 -313 203 -323 24 -27 26 -12 4 20 -12 15 -98 154 -192 308
-95 154 -200 318 -234 365 -35 47 -88 131 -119 186 l-57 102 -25 16 -24 16
-48 0 -48 -1 -43 -26z"/>
<path d="M84894 35593 c-17 -10 -39 -23 -50 -30 l-19 -11 6 -6 5 -5 37 24 36
25 24 0 23 0 16 -12 c9 -7 36 -50 61 -94 24 -45 71 -117 104 -160 32 -44 99
-145 149 -226 49 -82 92 -148 96 -148 11 0 -186 321 -248 405 -28 39 -70 105
-93 147 l-42 78 -22 15 c-28 19 -45 19 -83 -2z"/>
<path d="M86631 35214 c-14 -13 -88 -63 -165 -111 -78 -48 -156 -96 -174 -109
l-34 -22 9 -5 8 -5 169 104 c168 103 226 145 226 164 0 15 -13 10 -39 -16z"/>
<path d="M83495 33244 c-93 -63 -177 -119 -185 -124 l-15 -8 7 -8 8 -7 185
123 c162 108 205 142 178 139 -5 0 -84 -52 -178 -115z"/>
<path d="M98814 31738 l-22 -10 -11 -24 c-14 -30 -14 -34 -1 -34 l10 0 0 15 0
15 25 16 25 16 20 -5 20 -5 0 8 c0 8 -25 21 -38 19 -4 0 -17 -5 -28 -11z"/>
<path d="M90490 24839 c47 -5 150 -18 230 -30 l145 -20 120 -34 120 -34 120
-50 c65 -28 124 -51 130 -51 5 1 -51 27 -125 59 l-135 58 -109 32 -109 32
-126 19 -126 20 -110 4 -110 5 85 -10z"/>
<path d="M89600 21447 c0 -21 97 -428 104 -434 19 -19 11 27 -36 226 l-53 221
-7 0 c-5 0 -8 -6 -8 -13z"/>
<path d="M96330 12725 l-23 -25 10 0 c12 0 48 38 41 45 -2 3 -15 -6 -28 -20z"/>
<path d="M25384 4740 l-99 -59 -84 -79 -85 -78 8 -13 8 -13 87 84 86 84 93 54
92 54 0 13 c0 7 -1 13 -3 13 -2 0 -48 -27 -103 -60z"/>
<path d="M22984 2232 c7 -11 313 -252 320 -252 21 0 -12 31 -149 138 -85 67
-160 122 -166 122 l-10 0 5 -8z"/>
<path d="M14030 1417 l0 -15 58 -6 c31 -3 311 -26 622 -51 311 -25 591 -47
623 -51 l57 -6 0 14 0 14 -661 53 c-363 29 -669 55 -680 58 l-19 5 0 -15z"/>
<path d="M19495 1010 c-4 -6 -5 -13 -4 -14 2 -2 94 -8 204 -15 110 -7 212 -14
228 -17 l27 -6 0 16 0 16 -22 0 c-29 0 -284 18 -364 26 l-62 5 -7 -11z"/>
</g>
</svg>
