<?xml version="1.0" standalone="no"?>
<!DOCTYPE svg PUBLIC "-//W3C//DTD SVG 20010904//EN"
 "http://www.w3.org/TR/2001/REC-SVG-20010904/DTD/svg10.dtd">
<svg version="1.0" xmlns="http://www.w3.org/2000/svg"
 width="7500.000000pt" height="7500.000000pt" viewBox="0 0 7500.000000 7500.000000"
 preserveAspectRatio="xMidYMid meet">
<metadata>
Created by potrace 1.16, written by Peter Selinger 2001-2019
</metadata>
<g transform="translate(0.000000,7500.000000) scale(0.075000,-0.075000)"
fill="#000000" stroke="none">
<path d="M84505 99988 c-13 -37 -75 -322 -70 -326 10 -10 14 5 53 171 l39 167
-9 0 c-5 0 -11 -6 -13 -12z"/>
<path d="M88870 99996 c0 -3 24 -13 53 -24 28 -11 60 -23 70 -27 l17 -7 0 10
0 9 -51 22 c-47 19 -89 27 -89 17z"/>
<path d="M89465 99830 l-5 -8 215 -86 215 -86 29 0 30 0 6 10 6 10 -34 0 -35
0 -211 84 -211 84 -5 -8z"/>
<path d="M90013 99693 c-18 -9 -34 -22 -37 -30 l-5 -13 14 0 c7 0 16 4 20 9 3
5 19 12 35 16 l30 7 0 14 0 14 -12 -1 c-7 0 -27 -7 -45 -16z"/>
<path d="M31260 95045 c0 -4 339 -262 368 -279 l12 -7 0 10 0 11 -180 135
c-160 121 -200 146 -200 130z"/>
<path d="M98100 94558 c9 -11 354 -148 363 -145 5 1 -67 33 -160 69 -190 76
-210 83 -203 76z"/>
<path d="M32020 94481 c0 -5 81 -68 180 -141 l181 -131 11 3 12 4 -187 137
c-103 75 -189 137 -192 137 -3 0 -5 -4 -5 -9z"/>
<path d="M28066 91111 c8 -7 144 -50 564 -177 l155 -46 18 -20 17 -20 0 15 c0
24 -17 32 -190 85 -91 28 -253 78 -360 111 -107 34 -199 61 -204 61 l-10 0 10
-9z"/>
<path d="M85426 88944 c-54 -7 -101 -16 -105 -20 l-6 -6 45 6 c25 3 134 9 243
12 l197 7 0 8 0 9 -137 -1 -138 -1 -99 -14z"/>
<path d="M86330 88939 l45 -10 225 -3 225 -4 105 -16 c58 -9 152 -27 209 -41
57 -14 106 -23 109 -20 11 11 -199 59 -353 80 l-120 17 -140 -4 c-77 -2 -187
0 -245 4 l-105 7 45 -10z"/>
<path d="M79440 88303 c0 -5 -18 -111 -40 -237 -36 -209 -40 -250 -25 -234 5
4 85 449 85 471 0 4 -4 7 -10 7 -5 0 -10 -3 -10 -7z"/>
<path d="M80670 87843 c0 -10 411 -155 418 -148 11 11 -18 24 -203 89 -189 66
-215 73 -215 59z"/>
<path d="M36610 86886 c0 -3 51 -40 113 -82 61 -43 133 -93 160 -112 l47 -34
0 9 c0 5 -66 54 -147 109 -165 112 -173 117 -173 110z"/>
<path d="M88366 85379 c-11 -32 -106 -412 -106 -423 l1 -11 8 15 c14 23 113
421 107 428 -3 2 -8 -1 -10 -9z"/>
<path d="M80112 84940 l-134 -400 4 -16 3 -16 469 -164 c258 -90 471 -162 474
-159 3 2 -6 8 -19 13 -13 5 -222 78 -464 162 -242 84 -444 157 -449 161 l-8 7
135 406 c74 223 132 406 129 406 -4 0 -67 -180 -140 -400z"/>
<path d="M80510 84372 c0 -9 419 -157 426 -150 2 3 -64 29 -148 58 -84 29
-181 63 -215 76 l-63 23 0 -7z"/>
<path d="M30065 83953 c3 -10 48 -139 100 -288 127 -367 180 -491 235 -540
l20 -18 6 6 6 6 -26 32 c-59 70 -128 236 -241 577 l-80 241 -14 1 -13 0 7 -17z"/>
<path d="M95478 80388 c-134 -183 -176 -243 -172 -247 5 -6 -3 -16 107 136
112 155 131 183 123 183 -3 0 -29 -32 -58 -72z"/>
<path d="M78525 79859 c-99 -72 -188 -137 -199 -144 l-18 -13 6 -11 7 -10 199
142 199 142 1 13 c0 6 -3 12 -7 12 -5 -1 -89 -60 -188 -131z"/>
<path d="M4790 75100 l0 -10 23 -5 c12 -3 105 -18 207 -35 102 -16 195 -32
208 -34 l22 -3 0 12 0 12 -222 37 c-250 41 -238 40 -238 26z"/>
<path d="M6180 74970 l0 -10 13 0 c6 0 104 -7 217 -15 113 -8 211 -15 218 -15
l12 0 0 13 0 13 -197 12 c-109 7 -213 12 -230 12 l-33 0 0 -10z"/>
<path d="M38590 70702 c0 -17 40 -44 216 -148 l177 -105 9 9 8 8 -153 89 c-83
50 -174 105 -201 122 -52 36 -56 37 -56 25z"/>
<path d="M36250 68040 c0 -15 68 -51 436 -229 l349 -169 34 -7 33 -7 -4 13 -4
13 -34 9 c-34 9 -654 306 -747 358 -58 32 -63 34 -63 19z"/>
<path d="M31644 65486 c-4 -9 -4 -19 -2 -22 5 -4 413 -54 444 -54 l12 0 6 16
c4 9 5 18 4 19 -2 2 -91 12 -198 24 -107 12 -210 24 -227 27 l-33 6 -6 -16z"/>
<path d="M41526 64592 l-4 -7 36 -61 c43 -70 119 -169 157 -204 15 -14 34 -38
42 -54 l15 -28 10 10 10 10 -15 28 c-8 16 -27 40 -42 54 -36 33 -135 163 -166
217 -24 42 -33 50 -43 35z"/>
<path d="M41640 63666 c0 -5 -38 -193 -45 -223 l-5 -23 13 0 14 0 25 125 25
125 -13 0 c-8 0 -14 -2 -14 -4z"/>
<path d="M41990 63346 c0 -9 93 -122 187 -227 85 -96 320 -365 330 -378 2 -2
6 -1 9 2 l7 6 -89 102 c-49 57 -143 161 -208 233 -65 72 -143 161 -173 199
-48 60 -63 75 -63 63z"/>
<path d="M41510 63171 c0 -9 -152 -143 -222 -198 l-28 -21 15 -6 15 -5 77 62
c91 72 173 152 173 167 l0 10 -15 0 -15 0 0 -9z"/>
<path d="M41545 63140 c3 -5 11 -10 16 -10 l10 0 -6 10 c-3 6 -11 10 -16 10
l-10 0 6 -10z"/>
<path d="M42765 62999 c-82 -71 -172 -153 -200 -181 l-50 -52 41 35 c138 114
364 313 364 320 0 5 -1 9 -2 8 -2 0 -70 -59 -153 -130z"/>
<path d="M42192 62435 c-105 -91 -192 -168 -192 -171 0 -4 8 0 18 7 23 19 353
298 372 315 l14 14 -9 0 c-6 0 -97 -74 -203 -165z"/>
<path d="M38885 62385 c6 -3 102 -18 215 -35 113 -17 216 -33 230 -36 l25 -5
-10 9 -10 9 -210 32 c-115 17 -219 31 -230 30 l-20 -1 10 -3z"/>
<path d="M80240 62243 c0 -5 -22 -104 -49 -221 l-48 -212 8 -5 8 -5 5 17 c6
21 96 421 96 428 0 8 -20 6 -20 -2z"/>
<path d="M57561 62054 c-122 -97 -220 -178 -218 -181 4 -3 265 198 446 344 2
1 2 5 0 8 -3 2 -105 -75 -228 -171z"/>
<path d="M56277 61627 l-19 -32 26 24 25 24 -5 8 c-7 12 -7 13 -27 -24z"/>
<path d="M58305 61431 c13 -13 389 -180 394 -175 2 2 2 5 0 7 -4 4 -313 141
-369 164 l-35 15 10 -11z"/>
<path d="M56983 61312 c-79 -58 -141 -107 -138 -110 2 -3 66 41 142 98 163
122 147 109 142 114 -2 2 -68 -43 -146 -102z"/>
<path d="M57840 61312 c0 -14 278 -446 290 -450 8 -3 -268 437 -286 457 -2 2
-4 -1 -4 -7z"/>
<path d="M55568 60532 c-21 -10 -38 -21 -38 -26 l0 -8 18 7 c9 4 32 13 49 19
18 7 36 15 39 19 l7 7 -19 -1 c-10 0 -36 -8 -56 -17z"/>
<path d="M46130 59941 l-225 -219 5 -5 6 -6 224 224 c124 124 223 225 220 225
-3 0 -107 -98 -230 -219z"/>
<path d="M63721 59368 c-1 -16 75 -397 85 -427 2 -8 6 -12 9 -10 3 4 -80 422
-89 444 l-4 10 -1 -17z"/>
<path d="M83840 59166 c0 -12 201 -398 206 -394 2 3 -37 83 -87 179 -119 227
-118 225 -119 215z"/>
<path d="M84510 58396 l-205 -91 22 -3 21 -3 196 86 196 87 -6 9 c-7 13 1 16
-224 -85z"/>
<path d="M63900 58473 c0 -5 27 -137 61 -294 33 -156 94 -455 135 -663 66
-336 84 -418 84 -378 0 24 -144 748 -206 1036 -57 265 -74 334 -74 299z"/>
<path d="M64033 58010 c3 -14 65 -311 137 -660 135 -654 138 -666 145 -659 2
3 -58 302 -133 666 l-137 662 -9 8 -9 8 6 -25z"/>
<path d="M46276 57971 l-6 -9 46 -57 47 -57 74 -131 c41 -73 79 -136 84 -141
l9 -10 0 13 c0 7 -32 70 -71 141 l-72 128 -53 66 -52 67 -6 -10z"/>
<path d="M91208 57610 l-187 -169 9 -6 9 -5 185 166 c168 150 202 185 179 183
-5 0 -92 -76 -195 -169z"/>
<path d="M48080 57010 l0 -10 20 0 20 0 93 -46 c50 -26 134 -66 185 -90 l92
-43 0 10 c0 5 -4 9 -9 9 -6 0 -92 41 -192 90 -100 50 -188 90 -196 90 l-13 0
0 -10z"/>
<path d="M78856 56535 l-5 -14 17 -6 17 -6 31 -42 31 -42 12 -52 13 -52 -7
-20 -6 -21 15 0 16 0 0 43 c0 23 -4 59 -9 80 l-9 38 -28 40 -28 40 -27 14 -27
15 -6 -15z"/>
<path d="M64430 56242 l35 -17 3 -33 3 -34 -17 -19 -17 -19 -32 0 -31 0 -10
10 -10 10 -262 -52 c-144 -29 -262 -55 -262 -59 0 -3 116 17 259 46 l258 52
19 -14 19 -14 30 7 30 6 23 21 23 22 -6 35 -6 35 -21 18 -20 17 -22 0 -21 0
35 -18z"/>
<path d="M86383 56166 c-95 -50 -173 -94 -173 -98 0 -7 167 77 315 159 l60 33
-15 -1 c-8 -1 -93 -42 -187 -93z"/>
<path d="M32914 56121 l-101 -98 -112 -57 c-62 -32 -110 -60 -108 -63 3 -2 59
23 124 56 l118 60 100 101 c55 55 95 100 90 100 -6 -1 -55 -45 -111 -99z"/>
<path d="M63783 56023 l7 -6 7 6 6 7 -13 0 -13 0 6 -7z"/>
<path d="M61798 55918 l-5 -33 11 -73 11 -74 6 6 6 6 -9 58 -10 57 5 43 5 42
-8 0 c-4 0 -10 -15 -12 -32z"/>
<path d="M25996 55651 c18 -16 380 -275 452 -324 l74 -49 6 6 c7 7 13 3 -83
66 -44 30 -160 111 -257 182 -98 70 -183 128 -190 128 l-12 0 10 -9z"/>
<path d="M87410 55629 c0 -6 46 -101 101 -210 l102 -199 9 0 c5 0 8 3 6 8 -30
64 -209 412 -213 412 -3 0 -5 -5 -5 -11z"/>
<path d="M55311 55131 l-25 -7 -4 -12 -4 -13 29 7 c15 4 32 10 36 14 l9 8 -9
4 c-4 3 -19 2 -32 -1z"/>
<path d="M53202 54904 c-15 -25 -78 -122 -139 -214 -62 -93 -113 -175 -113
-181 0 -13 169 232 251 364 l48 77 -10 0 -10 0 -27 -46z"/>
<path d="M50925 54860 c2 -14 5 -31 5 -37 l0 -13 121 -96 c66 -52 123 -94 125
-91 3 3 -47 46 -111 97 l-116 92 -5 16 c-3 9 -10 26 -15 37 l-10 20 6 -25z"/>
<path d="M51885 54403 c-165 -215 -178 -233 -168 -232 4 0 24 21 43 47 20 26
85 111 144 190 60 78 107 144 105 147 -3 2 -59 -66 -124 -152z"/>
<path d="M50121 54533 c-1 -7 4 -44 11 -83 l12 -70 26 -24 25 -23 48 -16 47
-16 0 8 0 8 -45 13 -46 13 -23 28 -24 28 -7 53 c-4 29 -11 62 -16 73 l-8 20 0
-12z"/>
<path d="M52960 54473 c0 -5 9 -14 20 -21 l20 -12 0 10 c0 5 -9 14 -20 20
l-20 11 0 -8z"/>
<path d="M52785 54094 c-239 -361 -283 -435 -316 -533 -23 -65 -23 -67 -4 -51
l15 12 0 18 c0 9 22 61 49 116 l48 99 227 344 c125 189 225 346 222 348 -3 3
-111 -156 -241 -353z"/>
<path d="M51440 54365 l-12 -15 10 0 c12 0 26 19 19 26 -2 2 -10 -2 -17 -11z"/>
<path d="M51586 54058 c-47 -56 -86 -107 -86 -112 l0 -10 8 10 c74 82 173 206
170 210 -3 2 -44 -41 -92 -98z"/>
<path d="M7895 53774 c-49 -7 -145 -16 -212 -20 l-123 -7 0 -13 0 -13 98 5
c93 5 313 29 360 39 l22 5 0 10 0 10 -27 -1 c-16 -1 -68 -7 -118 -15z"/>
<path d="M65948 53551 c-120 -26 -221 -51 -225 -56 l-8 -8 20 5 c11 3 116 25
232 49 l213 44 0 8 c0 9 24 13 -232 -42z"/>
<path d="M51843 53002 c-139 -75 -253 -140 -253 -144 l0 -7 35 20 c19 12 124
69 233 127 177 95 257 142 242 141 -3 -1 -119 -62 -257 -137z"/>
<path d="M35497 52588 c18 -117 33 -220 34 -228 l1 -15 5 13 5 13 -33 215
c-18 118 -35 214 -39 214 l-6 0 33 -212z"/>
<path d="M53021 52344 c13 -36 185 -384 191 -384 8 0 -169 371 -184 385 l-10
10 3 -11z"/>
<path d="M54272 52088 l-12 -12 0 -33 0 -33 10 0 10 0 0 23 0 23 12 12 12 12
-10 10 -10 10 -12 -12z"/>
<path d="M88965 52074 l-17 -26 6 -24 6 -24 11 0 11 0 -5 21 -6 22 15 22 15
23 -9 6 -10 6 -17 -26z"/>
<path d="M22505 51871 c-3 -6 -23 -114 -45 -241 -21 -126 -42 -235 -45 -240
l-6 -10 10 0 c5 0 28 -24 51 -52 l42 -53 71 -47 c74 -49 87 -54 87 -39 0 5
-34 30 -75 56 -41 25 -75 49 -75 53 0 4 -18 27 -40 51 l-40 43 35 212 c20 116
40 226 45 244 l8 32 -8 0 c-5 0 -11 -4 -15 -9z"/>
<path d="M36378 51521 l-196 -16 -9 -9 -8 -9 40 6 c22 3 119 11 215 18 l175
12 10 8 9 9 -19 -1 c-11 -1 -109 -9 -217 -18z"/>
<path d="M88037 51322 l-179 -136 12 -4 11 -4 175 133 c96 73 177 136 180 141
l5 8 -13 -1 c-7 0 -93 -62 -191 -137z"/>
<path d="M18410 51342 l0 -11 43 -12 c65 -18 150 -24 285 -21 l122 3 0 9 0 10
-132 0 -133 0 -60 10 c-33 5 -75 12 -92 16 l-33 7 0 -11z"/>
<path d="M82622 51105 c3 -11 29 -120 59 -242 30 -123 57 -223 60 -223 7 0
-109 472 -118 480 l-6 5 5 -20z"/>
<path d="M26350 50972 l0 -10 58 -6 c31 -3 135 -8 230 -12 l172 -6 0 10 0 10
-172 6 c-95 4 -199 9 -230 12 l-58 6 0 -10z"/>
<path d="M14725 50931 l-5 -10 344 -240 c190 -133 352 -244 360 -247 l16 -6 0
10 0 10 -342 239 c-189 132 -348 242 -355 246 l-12 7 -6 -9z"/>
<path d="M28180 50893 l0 -10 61 -7 c34 -3 86 -6 115 -6 l54 0 0 10 0 10 -54
0 c-29 0 -81 3 -115 6 l-61 7 0 -10z"/>
<path d="M33610 50387 c0 -20 61 -392 65 -396 3 -2 5 2 5 10 -1 30 -59 381
-64 387 l-6 5 0 -6z"/>
<path d="M35993 49745 c3 -11 11 -40 18 -65 7 -25 17 -49 22 -55 l9 -10 -5 20
c-3 11 -11 40 -18 65 -7 25 -17 50 -22 55 l-9 10 5 -20z"/>
<path d="M33763 49465 c3 -11 18 -110 33 -220 l27 -200 10 -10 9 -10 -5 20
c-3 11 -18 110 -33 220 l-27 200 -10 10 -9 10 5 -20z"/>
<path d="M34822 48615 l-223 -13 -7 -7 -7 -8 90 6 c50 4 156 9 238 13 l147 7
0 8 c0 5 -3 8 -7 8 -5 -1 -108 -7 -231 -14z"/>
<path d="M34485 48590 l-6 -10 18 0 c10 0 25 5 33 10 l15 10 -27 0 -27 0 -6
-10z"/>
<path d="M34103 48576 l-211 -11 -9 -8 -8 -8 85 5 c47 4 170 11 274 16 104 5
191 12 194 15 7 6 -64 5 -325 -9z"/>
<path d="M50725 48388 l-6 -15 95 -152 c53 -84 96 -154 96 -157 0 -3 11 -21
24 -40 l23 -34 12 13 11 14 -115 184 c-64 101 -120 188 -125 193 l-9 9 -6 -15z"/>
<path d="M33960 48102 l0 -31 10 -6 10 -6 -7 33 c-8 44 -13 48 -13 10z"/>
<path d="M32575 46960 c-60 -4 -141 -8 -179 -9 l-70 -1 10 -10 11 -11 221 12
222 12 0 9 0 8 -52 -2 c-29 -1 -102 -5 -163 -8z"/>
<path d="M15457 45023 c2 -49 8 -198 13 -333 5 -135 12 -255 16 -267 l6 -23
10 0 10 0 -7 18 c-13 30 -23 180 -30 440 l-7 252 -7 0 -7 0 3 -87z"/>
<path d="M15714 44467 l-212 -81 5 -11 4 -12 214 81 215 81 0 13 c0 6 -3 12
-7 11 -5 0 -103 -37 -219 -82z"/>
<path d="M27366 43951 c8 -8 358 -175 394 -188 l15 -6 -10 11 c-10 10 -391
192 -403 192 -3 0 -2 -4 4 -9z"/>
<path d="M51088 43317 l-208 -30 0 -7 0 -7 193 28 c105 15 203 29 217 31 l25
3 -10 6 -10 5 -207 -29z"/>
<path d="M49308 42983 l13 -5 6 6 6 6 -19 -1 -19 -1 13 -5z"/>
<path d="M51554 42960 c-153 -22 -197 -30 -192 -36 6 -5 359 44 366 51 9 8
-47 4 -174 -15z"/>
<path d="M49331 42957 l-11 -14 18 -16 c10 -9 33 -22 51 -28 l33 -12 9 14 9
14 -33 13 c-17 8 -39 20 -48 28 l-16 15 -12 -14z"/>
<path d="M49458 42919 c-10 -5 -18 -15 -18 -20 l0 -10 27 3 28 3 3 18 3 17
-13 0 c-7 0 -21 -5 -30 -11z"/>
<path d="M51208 42536 l-166 -21 -8 -8 -8 -8 39 6 c22 3 111 14 199 25 87 11
161 22 164 25 8 8 -40 4 -220 -19z"/>
<path d="M53673 40813 l17 -17 6 6 6 7 -7 10 c-3 6 -14 11 -23 11 l-16 0 17
-17z"/>
<path d="M65820 40044 l0 -26 -64 -212 -65 -211 -21 -108 -22 -108 -27 -337
c-16 -185 -27 -339 -25 -341 2 -2 7 -1 11 3 l7 6 28 337 28 338 20 100 20 100
65 211 65 212 0 31 0 31 -10 0 -10 0 0 -26z"/>
<path d="M84057 39733 l-6 -9 122 -192 122 -191 9 9 9 9 -113 178 c-62 98
-119 184 -125 191 l-13 14 -5 -9z"/>
<path d="M40443 39480 l-32 -7 -90 -84 c-50 -46 -91 -88 -91 -92 0 -5 43 31
96 80 l97 88 56 0 56 -1 58 -26 57 -27 0 8 c0 12 -149 73 -169 70 -3 -1 -20
-4 -38 -9z"/>
<path d="M65450 38235 c-6 -14 -14 -36 -20 -50 -13 -33 -92 -150 -199 -295
l-85 -115 -96 -104 -95 -103 -103 -80 -104 -80 -131 -70 c-73 -38 -206 -101
-297 -140 -91 -39 -275 -126 -410 -193 l-245 -123 -187 -132 -188 -133 6 -9 6
-9 31 24 c18 13 106 75 197 139 l165 115 240 118 c132 64 308 146 390 182 83
35 213 97 290 137 l140 73 105 80 105 81 96 103 c152 165 353 442 397 546 25
59 26 63 12 63 l-10 0 -10 -25z"/>
<path d="M62190 37446 c0 -2 24 -9 53 -16 28 -7 71 -21 95 -32 l42 -20 76
-104 c42 -58 78 -103 81 -100 2 2 -29 51 -71 108 l-75 103 -28 17 c-39 23
-173 57 -173 44z"/>
<path d="M86187 37247 c-125 -82 -226 -152 -223 -154 3 -3 105 61 228 142 243
161 233 153 227 159 -2 2 -107 -64 -232 -147z"/>
<path d="M86241 35923 c36 -38 75 -81 87 -98 l23 -30 -17 35 -17 35 -60 62
c-33 35 -65 63 -70 63 l-10 0 64 -67z"/>
<path d="M62663 35669 c-11 -19 -80 -143 -152 -277 l-132 -242 3 -15 3 -15
153 280 154 280 -4 12 -4 12 -21 -35z"/>
<path d="M60841 34868 c-5 -13 -41 -113 -81 -223 -69 -192 -110 -301 -132
-355 -6 -14 -13 -43 -15 -65 -2 -22 -10 -79 -17 -127 l-13 -88 7 0 7 0 17 126
17 126 64 164 c36 89 84 214 106 276 23 62 47 130 55 151 l13 37 -10 0 -9 0
-9 -22z"/>
<path d="M85700 34564 c-102 -64 -189 -119 -193 -124 l-9 -8 9 -5 9 -6 195
118 194 118 -2 9 c-1 4 -5 9 -10 11 -4 1 -91 -50 -193 -113z"/>
<path d="M84910 34075 l-185 -114 -3 -17 -4 -16 39 23 c22 13 112 69 201 123
l161 100 -5 8 c-3 4 -8 8 -12 8 -4 0 -90 -52 -192 -115z"/>
<path d="M83579 33054 c-101 -69 -191 -129 -199 -134 l-15 -8 7 -8 8 -7 111
73 c61 41 151 102 200 136 l90 62 -9 6 -8 5 -185 -125z"/>
<path d="M98809 31735 l-26 -14 -6 -23 -6 -22 6 -6 6 -5 5 14 c2 7 13 22 23
32 l19 19 28 0 27 0 -15 10 c-20 13 -30 12 -61 -5z"/>
<path d="M94822 26725 c-101 -73 -186 -136 -189 -139 l-6 -6 9 0 c8 0 361 254
380 273 l7 7 -9 0 c-5 -1 -91 -61 -192 -135z"/>
<path d="M90500 24839 c52 -6 162 -21 244 -35 82 -13 152 -22 154 -19 8 8 -16
13 -158 35 l-135 21 -100 4 -100 4 95 -10z"/>
<path d="M87080 20483 l0 -12 238 -248 c269 -280 386 -396 394 -388 3 3 -68
79 -157 168 -89 89 -232 236 -318 327 l-157 165 0 -12z"/>
<path d="M88932 20264 c-90 -81 -161 -149 -158 -151 3 -3 76 59 163 138 141
127 173 159 161 159 -2 0 -76 -66 -166 -146z"/>
<path d="M98717 10604 c-4 -4 -7 -11 -7 -15 0 -4 72 -73 161 -154 l160 -148
12 12 11 11 -9 8 c-49 43 -258 233 -286 259 l-35 33 -7 -6z"/>
<path d="M13580 1495 c0 -8 3 -15 8 -15 4 1 206 -14 449 -32 l443 -32 6 7 c4
4 5 9 2 12 -2 3 -187 18 -409 35 -222 16 -425 32 -451 34 l-48 5 0 -14z"/>
</g>
</svg>
