<?xml version="1.0" standalone="no"?>
<!DOCTYPE svg PUBLIC "-//W3C//DTD SVG 20010904//EN"
 "http://www.w3.org/TR/2001/REC-SVG-20010904/DTD/svg10.dtd">
<svg version="1.0" xmlns="http://www.w3.org/2000/svg"
 width="7500.000000pt" height="7500.000000pt" viewBox="0 0 7500.000000 7500.000000"
 preserveAspectRatio="xMidYMid meet">
<metadata>
Created by potrace 1.16, written by Peter Selinger 2001-2019
</metadata>
<g transform="translate(0.000000,7500.000000) scale(0.075000,-0.075000)"
fill="#000000" stroke="none">
<path d="M25132 99348 l5 -13 204 -87 c112 -48 208 -87 212 -87 l9 -1 -4 11
-4 11 -209 89 c-115 49 -211 89 -213 89 -2 0 -2 -6 0 -12z"/>
<path d="M84489 98806 c-2 -3 -77 -6 -167 -8 l-162 -3 0 -8 0 -9 187 8 188 7
25 8 25 7 -46 1 c-25 1 -48 -1 -50 -3z"/>
<path d="M89625 96604 c-21 -52 -42 -97 -47 -100 -5 -3 -31 -50 -58 -104 l-49
-98 6 -6 6 -6 51 101 c28 56 63 124 78 153 14 28 36 75 47 104 l21 52 -8 0
c-5 0 -26 -43 -47 -96z"/>
<path d="M87880 96390 l-65 -7 135 0 135 0 80 -26 c43 -15 81 -24 83 -22 5 5
-12 12 -93 40 l-50 17 -80 3 c-44 1 -109 -1 -145 -5z"/>
<path d="M87451 93000 l-393 -400 -11 0 c-6 0 -60 32 -119 71 -60 40 -111 70
-114 67 -2 -3 50 -41 117 -84 l123 -78 403 409 403 410 79 -81 80 -80 14 8 c8
4 27 8 43 10 l29 2 38 -13 c21 -7 41 -11 44 -8 2 3 -20 13 -50 23 l-54 17 -30
-11 -30 -10 -74 74 -73 74 -16 0 -16 0 -393 -400z"/>
<path d="M5647 93153 l-6 -138 -17 -93 -17 -93 7 -6 6 -7 9 10 c4 5 15 56 24
114 l16 105 3 119 3 119 -11 4 -11 4 -6 -138z"/>
<path d="M21607 92767 l-5 -14 213 -61 c117 -34 220 -65 229 -68 l16 -6 0 16
c0 9 -2 16 -5 16 -6 0 -408 118 -428 126 l-14 5 -6 -14z"/>
<path d="M86780 92706 c0 -6 180 -125 237 -157 l42 -24 46 45 c25 24 45 49 45
54 l0 10 -43 -42 c-23 -23 -48 -42 -54 -42 -11 0 -140 77 -220 131 -40 28 -53
34 -53 25z"/>
<path d="M95127 91764 l-139 -176 10 -10 9 -9 136 175 c127 161 150 196 130
196 -5 0 -70 -79 -146 -176z"/>
<path d="M94845 91030 l-6 -10 6 -10 c3 -5 10 -10 16 -10 l9 0 0 14 c0 8 -4
17 -9 21 l-10 5 -6 -10z"/>
<path d="M28400 90840 l0 -9 68 -20 c37 -11 136 -39 219 -62 l153 -43 7 7 6 7
-5 6 c-7 6 -422 124 -438 124 -5 0 -10 -4 -10 -10z"/>
<path d="M29140 90571 c8 -5 87 -28 175 -51 l160 -43 37 -18 c41 -21 48 -23
48 -11 0 13 -107 49 -268 92 -159 41 -177 45 -152 31z"/>
<path d="M78542 88907 c-35 -105 -65 -208 -68 -228 l-6 -36 23 -26 24 -26 863
-302 863 -301 6 6 c4 3 4 8 2 10 -2 2 -386 137 -854 300 l-850 297 -25 18 -25
18 -3 21 -3 21 65 198 c66 200 72 223 59 223 l-8 0 -63 -193z"/>
<path d="M86370 88979 l75 -10 200 -3 200 -3 125 -22 c69 -12 160 -31 204 -42
43 -11 80 -18 83 -15 10 9 -163 50 -332 77 l-120 20 -145 -2 c-80 -2 -194 0
-255 3 l-110 7 75 -10z"/>
<path d="M86784 88932 l5 -9 107 -13 107 -12 120 -29 c67 -15 123 -26 125 -24
10 10 -215 61 -333 75 -49 6 -101 13 -113 16 l-24 5 6 -9z"/>
<path d="M84820 88835 c-30 -7 -124 -28 -209 -46 l-155 -33 12 -4 c16 -5 404
78 417 89 l9 9 -9 -1 c-6 0 -35 -7 -65 -14z"/>
<path d="M84325 88773 c-38 -7 -110 -20 -160 -28 l-90 -14 75 5 75 5 115 23
115 24 -30 0 c-16 0 -61 -7 -100 -15z"/>
<path d="M15980 87886 c8 -7 143 -89 299 -181 l285 -168 90 -68 c89 -67 111
-78 111 -60 0 9 -24 28 -133 104 -78 55 -639 387 -654 387 l-12 0 14 -14z"/>
<path d="M80690 87893 l0 -8 199 -69 200 -68 13 5 13 5 -15 6 c-45 17 -393
136 -401 136 -5 0 -9 -3 -9 -7z"/>
<path d="M80670 87843 c0 -5 91 -39 201 -78 111 -38 206 -72 212 -74 l10 -3
-5 12 -4 13 -198 68 c-203 71 -216 74 -216 62z"/>
<path d="M85945 86480 c-119 -55 -252 -126 -289 -153 l-19 -14 9 -6 10 -6 84
48 c47 25 137 71 200 100 124 58 134 64 129 78 l-4 9 -120 -56z"/>
<path d="M83485 86213 c-26 -116 -85 -331 -99 -365 l-8 -18 9 0 10 0 16 38
c21 48 39 113 82 300 40 174 38 162 26 162 l-9 0 -27 -117z"/>
<path d="M88636 86233 c-20 -66 -252 -939 -285 -1073 -23 -91 -46 -173 -51
-183 l-11 -18 6 -10 6 -9 9 5 8 5 213 -60 c117 -33 219 -60 228 -59 9 0 -85
29 -208 65 -123 35 -226 66 -229 69 l-6 6 33 137 c19 75 94 361 168 636 74
274 132 500 129 503 -2 2 -7 -4 -10 -14z"/>
<path d="M69435 84801 l-6 -10 30 -16 30 -15 34 -73 c19 -39 53 -118 77 -174
l43 -102 8 5 9 5 -14 32 c-68 163 -122 285 -132 302 -7 11 -27 28 -43 38 l-30
17 -6 -9z"/>
<path d="M64640 84514 c-113 -24 -221 -43 -240 -44 l-36 0 -12 12 -12 12 -7
-8 -8 -8 19 -14 20 -14 30 0 c40 0 438 81 450 92 5 4 8 9 5 11 -2 2 -96 -15
-209 -39z"/>
<path d="M64370 84520 l0 -10 16 0 15 0 -6 10 c-3 6 -10 10 -16 10 -5 0 -9 -4
-9 -10z"/>
<path d="M11510 84151 l0 -10 163 -51 c89 -28 188 -60 220 -70 l58 -19 -4 12
-4 12 -214 67 c-243 77 -219 71 -219 59z"/>
<path d="M73086 83049 c71 -44 157 -98 192 -120 34 -22 62 -36 62 -32 0 10
-356 233 -372 233 -7 0 46 -36 118 -81z"/>
<path d="M96729 82077 l-127 -72 -47 -53 c-26 -29 -45 -55 -42 -58 3 -3 24 18
48 46 l44 50 127 71 c70 38 130 74 133 79 l6 10 -8 -1 c-4 0 -65 -33 -134 -72z"/>
<path d="M7912 79869 l5 -14 174 -127 c96 -70 180 -127 187 -128 l14 0 -4 10
c-3 10 -344 259 -367 268 l-14 5 5 -14z"/>
<path d="M30254 76524 l-7 -35 12 -12 11 -11 0 16 c0 8 3 30 6 47 l7 31 -11 0
-11 0 -7 -36z"/>
<path d="M74285 76520 c-28 -23 -100 -91 -162 -152 l-112 -112 6 -9 5 -8 117
113 c64 62 140 131 168 153 29 22 52 43 53 48 1 17 -29 4 -75 -33z"/>
<path d="M74380 76542 c0 -17 296 -179 307 -168 3 2 -12 13 -34 24 -21 10 -89
49 -152 85 -121 71 -121 71 -121 59z"/>
<path d="M76680 70017 c0 -4 25 -52 55 -107 30 -56 62 -118 71 -138 l16 -37 5
11 4 12 -44 89 c-39 78 -107 187 -107 170z"/>
<path d="M7120 69362 c-216 -64 -227 -68 -219 -76 4 -5 430 122 438 130 15 14
-28 4 -219 -54z"/>
<path d="M22340 69279 c-190 -9 -349 -18 -354 -18 l-10 -1 10 -9 9 -8 453 20
452 21 0 8 0 8 -107 -1 c-60 -1 -263 -10 -453 -20z"/>
<path d="M71562 68503 c-1 -17 -7 -44 -13 -60 -15 -40 -70 -343 -67 -367 l3
-21 29 159 c15 87 35 178 43 201 l14 43 -4 39 -4 38 -1 -32z"/>
<path d="M94340 67057 c0 -10 219 -1331 225 -1356 3 -13 8 -22 10 -19 5 5
-222 1368 -229 1376 l-6 5 0 -6z"/>
<path d="M49152 65936 l6 -8 -139 -231 c-76 -127 -136 -233 -134 -236 7 -6 -3
-22 146 229 73 124 134 227 135 229 2 1 72 -47 158 -108 85 -61 163 -114 173
-118 l18 -6 -10 10 c-19 19 -327 234 -343 240 l-17 6 7 -7z"/>
<path d="M48608 64988 c-65 -100 -178 -291 -174 -295 2 -3 15 12 28 34 130
208 169 275 165 279 -2 3 -11 -6 -19 -18z"/>
<path d="M1331 64479 c-42 -8 -70 -23 -60 -33 2 -2 25 0 50 6 l46 11 25 -6 24
-6 25 -53 c13 -29 41 -74 62 -100 l37 -48 16 0 15 0 -34 43 c-19 23 -52 73
-72 110 l-38 69 -24 9 c-13 5 -25 9 -26 8 -1 -1 -22 -5 -46 -10z"/>
<path d="M39356 64273 c-3 -4 -6 -13 -6 -22 l0 -16 63 -24 c69 -27 262 -120
312 -151 l33 -20 6 16 c3 8 6 19 6 23 0 11 -198 112 -312 159 l-96 40 -6 -5z"/>
<path d="M41285 64131 c11 -5 52 -12 90 -16 61 -6 262 -45 320 -61 l20 -6 -10
10 -10 10 -125 26 c-116 24 -265 47 -293 45 l-12 0 20 -8z"/>
<path d="M40820 63763 c0 -13 279 -323 291 -323 5 0 -56 73 -137 163 -81 89
-149 164 -151 166 -1 2 -3 0 -3 -6z"/>
<path d="M41197 63494 c-80 -69 -95 -84 -83 -84 3 0 42 32 87 70 45 39 82 70
84 68 13 -18 221 -246 233 -255 9 -7 20 -13 25 -13 l9 0 -20 18 c-15 13 -142
153 -241 264 l-7 8 -87 -76z"/>
<path d="M41990 63346 c0 -11 133 -169 308 -366 l192 -215 0 -12 0 -13 15 0
15 0 0 13 0 12 103 91 c56 51 146 129 200 174 53 45 97 86 97 91 0 11 -239
-191 -342 -288 -36 -35 -68 -63 -71 -63 -7 0 -373 412 -446 503 -57 71 -71 85
-71 73z"/>
<path d="M59491 62896 c6 -7 901 -78 906 -72 8 7 -59 14 -468 46 -389 30 -446
34 -438 26z"/>
<path d="M41111 62796 l-13 -16 25 -29 c89 -106 271 -311 277 -311 3 0 11 5
17 11 l12 12 -146 166 c-80 91 -149 170 -153 174 l-7 8 -12 -15z"/>
<path d="M42434 62647 c-38 -34 -148 -129 -244 -211 -96 -82 -179 -153 -184
-157 l-10 -9 6 -6 6 -6 204 175 c186 160 311 277 296 277 -3 0 -36 -28 -74
-63z"/>
<path d="M58242 62609 c15 -8 793 -340 838 -356 l15 -6 -10 11 c-10 11 -837
362 -852 362 -4 0 0 -5 9 -11z"/>
<path d="M56760 62145 c0 -8 91 -49 355 -160 121 -51 328 -141 460 -198 203
-90 267 -114 244 -93 -7 6 -445 196 -719 311 -140 59 -271 115 -292 126 -39
20 -48 22 -48 14z"/>
<path d="M56735 62113 c15 -14 1055 -465 1066 -461 7 2 -991 441 -1056 464
l-20 7 10 -10z"/>
<path d="M48112 61779 l4 -11 198 -111 197 -110 10 10 10 10 -200 112 c-110
61 -205 111 -211 111 l-12 0 4 -11z"/>
<path d="M21850 61751 l0 -7 218 -67 c201 -62 254 -75 240 -62 -3 3 -101 35
-219 71 -118 35 -220 67 -226 69 l-13 4 0 -8z"/>
<path d="M44775 60519 c-116 -99 -212 -185 -214 -192 l-4 -12 19 15 c10 8 107
91 214 184 107 93 197 171 199 173 2 2 2 5 0 8 -3 2 -99 -77 -214 -176z"/>
<path d="M86100 60551 c0 -9 297 -341 306 -341 11 0 -6 21 -151 180 -85 94
-155 166 -155 161z"/>
<path d="M57420 60176 l-55 -12 13 -8 13 -8 46 7 c56 8 73 14 73 26 l0 9 -17
-1 c-10 -1 -43 -6 -73 -13z"/>
<path d="M63620 59822 c0 -13 179 -860 186 -881 2 -8 6 -12 8 -10 5 5 -182
890 -189 897 -3 3 -5 0 -5 -6z"/>
<path d="M45340 59443 c206 -213 222 -229 219 -216 -6 18 -330 353 -342 353
l-10 0 133 -137z"/>
<path d="M62275 59482 c-209 -45 -222 -49 -214 -56 6 -5 437 89 446 97 l6 7
-14 -1 c-8 -1 -108 -22 -224 -47z"/>
<path d="M63754 59373 c2 -10 23 -110 46 -223 23 -113 44 -207 46 -209 15 -16
10 26 -20 170 -19 90 -39 190 -46 222 l-11 57 -10 0 -10 0 5 -17z"/>
<path d="M36376 58372 c14 -13 425 -164 431 -159 2 3 -6 8 -19 12 -13 4 -108
41 -211 81 -103 41 -193 74 -199 74 l-12 0 10 -8z"/>
<path d="M60658 58277 c-108 -23 -200 -46 -205 -51 l-8 -8 20 5 c11 3 103 22
205 43 102 20 192 40 200 45 l15 8 -15 0 c-8 -1 -104 -20 -212 -42z"/>
<path d="M34778 58077 c-113 -61 -205 -114 -203 -116 4 -4 394 206 410 220 18
17 -2 7 -207 -104z"/>
<path d="M64085 57558 c3 -13 23 -113 45 -222 35 -176 49 -231 50 -200 1 5
-18 107 -42 227 l-42 217 -8 0 -8 0 5 -22z"/>
<path d="M61590 57219 c0 -8 19 -103 42 -211 l43 -198 7 0 7 0 -4 13 c-2 6
-23 100 -45 207 -39 183 -50 223 -50 189z"/>
<path d="M64270 56678 c0 -3 20 -101 45 -218 l45 -213 -15 -17 c-8 -9 -15 -23
-15 -31 l0 -14 23 28 23 29 -46 213 c-25 118 -49 217 -53 221 -4 4 -7 5 -7 2z"/>
<path d="M74270 56372 c-69 -37 -151 -86 -183 -109 l-58 -41 9 -6 8 -5 75 51
c41 28 125 76 187 107 102 51 133 72 100 70 -7 0 -69 -31 -138 -67z"/>
<path d="M64413 56250 c16 -5 35 -14 43 -21 l14 -11 0 -33 0 -32 -18 -16 -19
-17 -31 0 -31 0 -6 10 c-3 6 -11 10 -17 10 l-11 0 19 -21 18 -20 36 6 35 7 23
21 23 22 -6 35 -6 35 -21 18 -20 17 -27 -1 -26 -1 28 -8z"/>
<path d="M25490 55890 l0 -10 58 -37 c31 -20 112 -71 179 -115 67 -43 124 -78
127 -78 25 0 -13 30 -126 101 -73 46 -157 98 -185 116 l-53 34 0 -11z"/>
<path d="M25936 55654 c-9 -23 -8 -27 9 -20 l15 5 0 -10 0 -10 12 7 12 8 -12
4 -12 4 0 14 0 14 -9 0 c-5 0 -12 -7 -15 -16z"/>
<path d="M25894 55628 l-7 -11 11 7 c7 4 12 9 12 12 0 8 -9 4 -16 -8z"/>
<path d="M26544 55275 c16 -9 35 -23 42 -33 l13 -17 1 16 0 16 -18 16 -19 17
-24 0 -24 0 29 -15z"/>
<path d="M53285 54930 c4 -14 9 -32 11 -41 l5 -15 -290 -439 c-160 -241 -291
-443 -291 -449 0 -6 135 193 300 442 l300 453 -21 37 -20 37 6 -25z"/>
<path d="M87807 54764 l-7 -7 38 -71 c21 -39 67 -134 102 -210 l64 -139 4 12
4 13 -58 126 c-33 69 -77 161 -100 204 l-40 78 -7 -6z"/>
<path d="M52675 54713 c19 -19 347 -235 351 -230 5 4 -317 224 -343 233 l-18
7 10 -10z"/>
<path d="M52815 54313 c-71 -109 -136 -209 -144 -223 l-16 -24 11 7 c16 9 288
427 282 433 -3 2 -63 -85 -133 -193z"/>
<path d="M53615 54304 c-58 -86 -104 -158 -101 -161 2 -3 33 37 67 89 35 51
84 123 111 161 l48 67 -9 0 c-5 0 -57 -70 -116 -156z"/>
<path d="M13437 53834 l-6 -6 52 -42 c29 -23 180 -145 336 -271 156 -127 297
-240 312 -253 l29 -23 0 14 0 15 -147 118 c-82 65 -241 194 -356 286 -114 92
-209 168 -211 168 -1 0 -5 -3 -9 -6z"/>
<path d="M54730 53375 c0 -6 7 -21 16 -33 l16 -23 103 -69 c58 -39 110 -70
117 -70 l13 0 -111 74 -111 74 -21 29 -21 28 -1 -10z"/>
<path d="M52460 53275 c0 -8 2 -15 4 -15 2 0 6 7 10 15 l5 15 -9 0 -10 0 0
-15z"/>
<path d="M54695 53229 l-20 -9 37 5 37 6 40 -26 c23 -14 46 -25 53 -25 l13 0
-45 30 -45 30 -25 -1 c-14 0 -34 -5 -45 -10z"/>
<path d="M35510 52794 c0 -24 129 -875 134 -889 l4 -10 1 22 c1 28 -129 886
-135 892 -2 2 -4 -4 -4 -15z"/>
<path d="M33501 50821 c-1 -19 130 -835 135 -840 8 -9 3 34 -45 335 -27 170
-55 347 -62 394 -6 47 -15 94 -20 105 l-8 20 0 -14z"/>
<path d="M33610 50387 c0 -20 61 -392 65 -396 3 -2 5 2 5 10 -1 30 -59 381
-64 387 l-6 5 0 -6z"/>
<path d="M34190 49930 l0 -10 45 0 45 0 0 10 0 10 -45 0 -45 0 0 -10z"/>
<path d="M34410 49910 c0 -5 5 -10 10 -10 6 0 10 5 10 10 0 6 -4 10 -10 10 -5
0 -10 -4 -10 -10z"/>
<path d="M33670 49879 c0 -17 38 -321 46 -368 3 -18 7 -31 10 -28 6 5 -43 398
-51 405 -3 3 -5 -1 -5 -9z"/>
<path d="M33710 49884 c0 -26 51 -388 55 -392 3 -3 5 1 5 9 0 31 -50 382 -55
387 -3 3 -5 1 -5 -4z"/>
<path d="M22870 49770 c58 -4 157 -7 220 -7 l115 0 -105 7 c-58 4 -157 7 -220
7 l-115 0 105 -7z"/>
<path d="M35973 49510 c4 -14 7 -33 7 -42 l0 -18 9 0 9 0 -8 36 c-5 19 -12 39
-16 42 l-7 7 6 -25z"/>
<path d="M37964 49073 c2 -10 20 -109 38 -220 l32 -203 9 0 8 0 -5 18 c-2 9
-20 108 -38 220 l-32 202 -9 0 -8 0 5 -17z"/>
<path d="M36050 49059 c0 -24 59 -352 65 -357 3 -3 5 -1 5 4 0 24 -60 357 -65
362 l-5 5 0 -14z"/>
<path d="M91417 48678 c-81 -94 -147 -176 -147 -182 l0 -10 8 10 c5 5 64 74
132 154 68 80 132 155 143 167 11 13 18 25 15 28 -2 3 -70 -73 -151 -167z"/>
<path d="M75950 48662 c0 -10 13 -117 29 -237 16 -121 35 -283 41 -360 12
-140 14 -154 26 -142 l7 6 -12 128 c-6 70 -26 239 -43 376 l-32 247 -8 0 -8 0
0 -18z"/>
<path d="M34480 48630 l0 -10 20 0 20 0 0 10 0 10 -20 0 -20 0 0 -10z"/>
<path d="M34798 48616 l-196 -11 -9 -9 -8 -9 140 7 c77 4 186 9 242 13 l102 6
-5 8 -5 9 -32 -2 c-18 -1 -121 -6 -229 -12z"/>
<path d="M33924 48366 l31 -214 9 -9 8 -8 -5 20 c-3 11 -18 111 -33 223 -16
111 -31 202 -34 202 l-6 0 30 -214z"/>
<path d="M91057 48329 c-98 -104 -174 -189 -170 -189 11 0 329 334 343 360 6
11 9 20 8 19 -2 0 -83 -85 -181 -190z"/>
<path d="M90844 48048 c-32 -35 -78 -94 -103 -133 -24 -38 -60 -89 -79 -112
l-34 -43 8 0 c12 0 78 85 136 175 l45 70 54 53 53 52 -11 0 c-6 0 -37 -28 -69
-62z"/>
<path d="M37260 47379 c-157 -9 -332 -18 -390 -19 l-105 -2 -30 -9 -30 -8 145
5 c238 9 781 42 788 48 l5 6 -49 -1 c-27 -1 -177 -10 -334 -20z"/>
<path d="M35907 47160 l5 -175 9 -15 8 -15 -6 115 c-3 63 -9 149 -13 190 l-8
75 5 -175z"/>
<path d="M51982 46606 l-353 -89 8 -8 8 -8 335 84 c184 47 347 85 363 85 l27
0 0 9 c0 5 -8 11 -17 13 l-18 4 -353 -90z"/>
<path d="M52004 46538 l-7 -11 11 7 c7 4 12 9 12 12 0 8 -9 4 -16 -8z"/>
<path d="M52110 46303 l88 -187 11 -4 11 -4 -56 119 c-31 65 -71 151 -90 191
l-33 72 -10 0 -9 0 88 -187z"/>
<path d="M36009 45711 l-66 -6 -44 -37 c-93 -78 -144 -126 -139 -131 3 -3 43
28 88 69 l84 75 25 10 24 9 62 1 c34 0 82 4 107 8 l45 8 -60 0 c-33 0 -90 -3
-126 -6z"/>
<path d="M81200 45680 l0 -9 15 5 c8 4 15 8 15 10 0 2 -7 4 -15 4 l-15 0 0
-10z"/>
<path d="M87897 44013 c-26 -48 -45 -88 -43 -90 2 -2 25 35 51 82 26 48 45 88
43 90 -2 2 -24 -35 -51 -82z"/>
<path d="M87850 43886 c0 -11 211 -349 228 -366 l16 -15 -16 25 c-65 105 -221
356 -224 359 -2 2 -4 1 -4 -3z"/>
<path d="M51554 42960 c-153 -22 -197 -30 -192 -36 6 -5 359 44 366 51 9 8
-47 4 -174 -15z"/>
<path d="M46736 42690 c-104 -55 -194 -104 -200 -111 -6 -6 48 20 119 57 221
116 290 154 280 154 -5 -1 -95 -45 -199 -100z"/>
<path d="M51208 42536 l-166 -21 -8 -8 -8 -8 39 6 c22 3 111 14 199 25 87 11
161 22 164 25 8 8 -40 4 -220 -19z"/>
<path d="M50595 42433 l-7 -48 7 -215 7 -215 -12 -278 -12 -279 10 -10 9 -9 9
168 8 168 1 382 0 383 -6 0 c-4 0 -10 -21 -14 -47z"/>
<path d="M57596 41397 l-50 -42 -150 -5 -151 -5 111 -8 112 -9 44 7 44 7 55
48 54 49 -10 1 c-5 0 -32 -19 -59 -43z"/>
<path d="M41115 41072 l-60 -74 -40 -28 -40 -27 -55 -16 c-30 -9 -68 -19 -85
-23 l-30 -7 19 -5 18 -4 62 17 61 17 46 29 47 30 62 75 c34 41 60 78 58 83
l-3 8 -60 -75z"/>
<path d="M49340 40731 c-41 -22 -83 -48 -93 -59 l-18 -20 -35 -208 c-19 -115
-41 -229 -49 -254 l-15 -45 -35 -52 c-37 -56 -40 -63 -25 -63 5 0 27 27 50 59
l40 60 14 63 c8 35 27 142 42 238 l27 175 14 23 14 23 84 41 84 42 -5 8 c-8
12 -13 10 -94 -31z"/>
<path d="M45723 40313 c35 -68 214 -363 220 -363 l8 0 -25 43 c-14 23 -63 106
-108 184 -46 79 -87 143 -91 143 -5 0 -6 -3 -4 -7z"/>
<path d="M84780 39956 c0 -4 42 -69 93 -144 51 -75 110 -167 132 -204 21 -38
43 -68 47 -68 14 0 -217 364 -263 415 l-9 9 0 -8z"/>
<path d="M60290 38450 c0 -5 5 -10 10 -10 l10 0 0 -16 0 -15 -47 -67 c-26 -37
-87 -110 -135 -162 -48 -52 -84 -97 -81 -100 8 -8 158 157 223 248 l60 82 0
15 0 14 -20 11 -20 11 0 -11z"/>
<path d="M90840 37725 l-15 -59 -114 -46 -115 -45 15 -3 15 -3 104 43 105 43
13 40 13 39 -3 26 -3 25 -15 -60z"/>
<path d="M61298 37712 l-208 -45 0 -8 0 -7 38 9 c20 4 120 26 221 48 171 38
222 52 175 50 -10 0 -112 -21 -226 -47z"/>
<path d="M86644 37612 c-55 -37 -120 -83 -145 -103 -24 -20 -162 -114 -307
-209 -144 -95 -261 -175 -258 -177 6 -6 555 354 591 387 17 16 80 60 140 99
l110 71 -15 -1 c-8 0 -60 -31 -116 -67z"/>
<path d="M86187 37247 c-125 -82 -226 -152 -223 -154 3 -3 105 61 228 142 243
161 233 153 227 159 -2 2 -107 -64 -232 -147z"/>
<path d="M40758 36646 c-75 -17 -140 -35 -145 -40 l-8 -9 25 6 c14 3 87 20
163 38 l139 31 9 -9 8 -8 46 -305 c40 -268 55 -348 55 -299 0 8 -20 150 -45
314 -25 165 -45 303 -45 308 l0 7 -32 -1 c-18 -1 -95 -15 -170 -33z"/>
<path d="M84021 35898 c135 -215 128 -203 133 -197 6 6 -233 383 -245 387 -5
2 45 -83 112 -190z"/>
<path d="M34109 35567 c-310 -340 -314 -345 -307 -352 2 -3 72 70 154 162 82
91 215 240 297 330 135 150 154 173 143 173 -2 0 -131 -141 -287 -313z"/>
<path d="M84636 35479 c-137 -87 -244 -159 -238 -159 6 0 121 70 255 155 l244
155 39 0 39 -1 26 -22 27 -22 58 -102 c32 -57 62 -103 66 -103 4 0 -21 48 -54
108 l-61 107 -26 22 -26 22 -50 0 -50 0 -249 -160z"/>
<path d="M84916 35603 c-21 -6 -464 -288 -486 -311 l-15 -15 15 8 c8 4 119 75
246 156 l231 149 27 0 26 0 20 -20 c11 -11 33 -45 49 -77 17 -32 44 -78 60
-103 l31 -45 0 17 c0 9 -4 20 -10 23 -5 3 -33 49 -61 101 l-51 94 -21 15 c-22
15 -28 16 -61 8z"/>
<path d="M34455 33646 l-78 -135 -41 -39 c-41 -39 -314 -249 -351 -270 l-20
-10 6 -6 5 -5 80 56 c112 80 243 180 287 222 l38 36 81 138 c44 76 78 140 76
143 -3 2 -40 -56 -83 -130z"/>
<path d="M77465 32859 c-161 -15 -488 -55 -617 -75 l-37 -6 2 -19 1 -20 36 6
c184 29 782 94 868 95 l22 0 0 20 0 20 -42 -1 c-24 -1 -128 -10 -233 -20z"/>
<path d="M15805 27680 c-4 -6 -5 -13 -4 -14 2 -2 111 -18 242 -36 l237 -33 7
6 6 7 -5 6 c-4 3 -98 19 -210 35 -111 15 -217 31 -235 34 l-31 6 -7 -11z"/>
<path d="M95310 26779 c-96 -71 -177 -134 -179 -140 -3 -9 325 226 359 257
l14 14 -9 -1 c-6 0 -89 -58 -185 -130z"/>
<path d="M94820 26724 c-102 -74 -187 -139 -189 -145 -2 -6 48 26 110 72 63
45 148 107 189 137 41 30 79 59 85 63 l9 9 -9 0 c-6 -1 -93 -61 -195 -136z"/>
<path d="M23665 26489 c22 -4 54 -8 70 -7 l30 1 -45 8 c-25 4 -56 7 -70 7
l-25 0 40 -9z"/>
<path d="M23793 26473 c9 -2 25 -2 35 0 l17 5 -35 0 -35 0 18 -5z"/>
<path d="M23873 26463 c9 -2 25 -2 35 0 l17 5 -35 0 -35 0 18 -5z"/>
<path d="M87314 25977 l-5 -14 163 -161 163 -161 15 15 15 14 -160 160 -160
160 -13 0 -13 0 -5 -13z"/>
<path d="M90490 24839 c47 -5 150 -18 230 -30 l145 -20 120 -34 120 -34 120
-50 c65 -28 124 -51 130 -51 5 1 -51 27 -125 59 l-135 58 -109 32 -109 32
-126 19 -126 20 -110 4 -110 5 85 -10z"/>
<path d="M16300 23484 c0 -4 -45 -200 -100 -437 -89 -381 -103 -454 -85 -436
4 5 205 859 205 873 0 3 -4 6 -10 6 -5 0 -10 -3 -10 -6z"/>
<path d="M89545 20878 c-77 -71 -142 -135 -144 -141 -4 -11 65 49 224 196 39
36 68 67 65 70 -3 2 -68 -54 -145 -125z"/>
<path d="M94900 18392 c0 -5 46 -44 102 -88 56 -43 221 -184 366 -311 145
-128 268 -233 273 -233 5 0 -111 106 -258 236 -263 232 -483 412 -483 396z"/>
<path d="M4407 11303 l-5 -8 170 -150 c93 -83 174 -152 180 -154 l11 -3 -4 10
c-3 9 -269 249 -331 300 l-16 13 -5 -8z"/>
<path d="M24727 3969 c-70 -87 -130 -165 -133 -174 l-6 -15 10 0 c7 0 180 207
265 318 l10 13 -9 8 -9 9 -128 -159z"/>
<path d="M25778 4001 l-116 -6 -8 -7 c-4 -5 -5 -9 -3 -11 2 -2 150 1 329 6
l325 9 129 -16 c119 -14 148 -15 134 -1 -3 3 -58 12 -124 20 l-119 15 -215 -2
c-118 -1 -268 -4 -332 -7z"/>
<path d="M22984 2232 c7 -11 313 -252 320 -252 21 0 -12 31 -149 138 -85 67
-160 122 -166 122 l-10 0 5 -8z"/>
</g>
</svg>
