<?xml version="1.0" standalone="no"?>
<!DOCTYPE svg PUBLIC "-//W3C//DTD SVG 20010904//EN"
 "http://www.w3.org/TR/2001/REC-SVG-20010904/DTD/svg10.dtd">
<svg version="1.0" xmlns="http://www.w3.org/2000/svg"
 width="7500.000000pt" height="7500.000000pt" viewBox="0 0 7500.000000 7500.000000"
 preserveAspectRatio="xMidYMid meet">
<metadata>
Created by potrace 1.16, written by Peter Selinger 2001-2019
</metadata>
<g transform="translate(0.000000,7500.000000) scale(0.075000,-0.075000)"
fill="#000000" stroke="none">
<path d="M82505 99515 c28 -22 387 -207 392 -201 4 4 -237 133 -357 190 l-55
27 20 -16z"/>
<path d="M84333 98843 l-173 -3 0 -10 0 -10 53 0 c28 0 116 3 195 7 l142 6 0
9 0 8 -22 -2 c-13 -1 -101 -4 -195 -5z"/>
<path d="M84489 98806 c-2 -3 -77 -6 -167 -8 l-162 -3 0 -8 0 -9 187 8 188 7
25 8 25 7 -46 1 c-25 1 -48 -1 -50 -3z"/>
<path d="M58280 97756 c0 -3 39 -30 86 -61 100 -65 236 -135 261 -135 l18 0
-90 44 c-49 23 -129 68 -177 99 -82 54 -98 63 -98 53z"/>
<path d="M13960 96367 l0 -95 -19 -93 c-11 -52 -24 -107 -30 -122 -14 -35 -14
-47 -1 -47 l10 0 11 28 c6 15 19 65 29 112 l19 85 2 109 3 110 -12 4 -12 4 0
-95z"/>
<path d="M31986 94442 l-5 -8 176 -129 c97 -72 182 -134 190 -138 l13 -8 0 10
0 11 -152 113 c-84 62 -167 123 -185 135 l-32 22 -5 -8z"/>
<path d="M56869 93307 c-23 -45 -68 -132 -100 -193 l-59 -111 13 -11 13 -11
102 198 102 199 -15 6 -15 5 -41 -82z"/>
<path d="M51525 93046 l120 -32 154 -63 c85 -34 209 -87 275 -118 67 -30 141
-64 166 -75 l45 -19 -10 10 c-16 16 -324 156 -487 221 l-146 59 -100 26 c-56
14 -109 25 -119 24 -10 0 36 -15 102 -33z"/>
<path d="M21866 92763 c-9 -9 -7 -41 3 -47 l9 -6 5 25 4 25 -7 5 c-4 2 -10 2
-14 -2z"/>
<path d="M86821 92672 c78 -55 221 -142 233 -142 13 0 96 81 96 94 l0 10 -46
-44 -45 -45 -52 29 c-29 16 -89 53 -134 82 -44 30 -87 54 -94 54 l-12 0 54
-38z"/>
<path d="M21880 92620 l0 -13 7 6 6 7 -6 7 -7 6 0 -13z"/>
<path d="M21932 92606 c3 -5 26 -12 50 -17 24 -6 88 -27 143 -48 55 -21 112
-41 128 -45 l27 -6 0 7 c0 5 -35 20 -78 34 -42 15 -102 36 -133 48 -31 11 -76
23 -100 27 l-44 7 7 -7z"/>
<path d="M95618 91972 c-58 -70 -128 -155 -157 -188 l-51 -62 13 -5 13 -5 153
185 154 184 -10 10 -9 9 -106 -128z"/>
<path d="M53077 91733 c2 -27 11 -85 19 -131 l15 -84 23 -51 c13 -29 93 -158
178 -287 l154 -235 42 -42 c53 -54 123 -98 262 -168 l109 -55 5 8 5 8 -103 51
c-114 57 -231 130 -260 162 -11 12 -25 21 -33 21 -7 0 -13 4 -13 9 0 4 -50 84
-111 177 -147 223 -192 297 -222 369 l-25 60 -18 118 -18 117 -7 0 -7 0 5 -47z"/>
<path d="M53121 91735 l-1 -50 19 -85 19 -86 26 -54 c14 -30 38 -68 52 -85
l26 -30 -22 35 c-11 19 -33 60 -47 90 l-26 55 -23 130 -22 130 -1 -50z"/>
<path d="M94605 91198 l-40 -20 -22 -33 -21 -34 14 -5 13 -5 17 28 17 28 43
22 44 21 0 10 0 10 -12 -1 c-7 0 -31 -9 -53 -21z"/>
<path d="M33750 90852 l0 -10 23 -6 c12 -3 43 -6 69 -6 l48 0 146 -31 146 -31
6 6 5 6 -6 7 c-4 3 -64 19 -134 34 l-128 28 -87 7 -88 7 0 -11z"/>
<path d="M28280 90810 c73 -26 706 -211 770 -225 150 -33 416 -106 458 -125
48 -23 52 -23 52 -11 l0 9 -72 26 c-87 30 -260 76 -418 110 l-115 25 -334 101
c-184 55 -341 100 -350 99 l-16 -1 25 -8z"/>
<path d="M95010 90724 c0 -6 24 -34 53 -62 l54 -50 59 -30 c84 -42 214 -95
220 -89 3 2 -33 19 -78 38 -46 18 -110 49 -143 68 l-60 34 -52 51 -53 50 0
-10z"/>
<path d="M55349 90522 c-50 -90 -139 -283 -139 -303 l0 -9 14 0 14 0 37 88
c20 48 63 135 96 194 32 59 59 109 59 111 0 3 -6 7 -13 10 l-13 5 -55 -96z"/>
<path d="M31472 89885 c2 -3 87 -17 187 -31 l182 -27 12 13 12 13 -16 -6 -17
-6 -163 24 c-167 25 -206 29 -197 20z"/>
<path d="M33720 89617 l0 -14 104 -63 c57 -34 140 -92 185 -128 l82 -65 9 9 9
9 -81 65 c-45 36 -118 87 -162 113 -45 27 -96 58 -113 69 l-33 20 0 -15z"/>
<path d="M97580 89281 l-65 -7 -117 -63 c-65 -34 -121 -67 -124 -73 -4 -5 55
22 130 61 l136 71 63 1 c34 1 73 5 87 9 l25 8 -35 -1 c-19 0 -64 -3 -100 -6z"/>
<path d="M84135 89138 c-2 -7 -13 -56 -24 -108 -11 -52 -52 -230 -91 -395 -39
-165 -109 -487 -155 -715 -70 -348 -194 -910 -210 -958 l-5 -14 12 4 12 4 58
250 c32 137 98 447 148 689 l89 440 91 385 c49 212 93 395 95 408 l5 22 -10 0
c-6 0 -13 -6 -15 -12z"/>
<path d="M84325 88773 c-38 -7 -110 -20 -160 -28 l-90 -14 75 5 75 5 115 23
115 24 -30 0 c-16 0 -61 -7 -100 -15z"/>
<path d="M15570 88128 l0 -14 83 -40 c45 -23 223 -127 396 -232 l314 -191 9 5
c5 3 8 7 6 9 -14 13 -634 383 -710 424 l-98 52 0 -13z"/>
<path d="M35415 88040 l-8 -12 164 -164 163 -164 10 10 10 10 -165 166 -166
166 -8 -12z"/>
<path d="M75068 87714 l-6 -5 90 -187 c96 -201 95 -198 104 -189 l7 6 -89 183
c-48 101 -90 186 -94 191 l-6 7 -6 -6z"/>
<path d="M83200 87012 l0 -7 210 -76 210 -76 0 11 0 11 -203 73 c-211 75 -217
77 -217 64z"/>
<path d="M84277 86933 c-20 -48 -41 -94 -45 -101 l-9 -13 -257 71 c-241 66
-286 76 -275 66 6 -7 516 -146 533 -146 l13 0 42 96 c23 52 41 100 39 105 l-3
10 -38 -88z"/>
<path d="M83570 86844 c0 -37 -197 -865 -221 -929 -21 -56 -23 -65 -11 -65 l8
0 22 63 c38 110 222 874 222 922 l0 15 -10 0 c-5 0 -10 -3 -10 -6z"/>
<path d="M29642 86435 c26 -12 70 -40 98 -60 l50 -37 64 -73 c82 -94 108 -140
141 -242 l26 -82 30 -173 30 -173 31 -80 c17 -44 55 -128 84 -186 l53 -106 10
-59 11 -59 -10 -60 -9 -60 -30 -82 c-17 -45 -76 -172 -131 -282 -98 -198 -108
-221 -92 -221 l8 0 112 233 c61 127 121 259 133 292 l21 60 8 64 8 64 -12 67
-13 67 -41 74 c-22 41 -59 120 -81 177 l-41 102 -30 173 -31 172 -27 90 -26
90 -30 45 c-16 25 -57 76 -90 114 l-60 69 -51 37 c-27 20 -64 44 -82 53 l-32
17 -23 -1 -23 0 47 -24z"/>
<path d="M85441 86197 l-195 -122 -4 -12 -4 -13 12 0 c6 0 26 11 43 24 18 13
104 68 192 122 88 53 162 99 164 101 3 2 0 7 -5 13 l-9 9 -194 -122z"/>
<path d="M75715 86048 c-2 -7 -38 -107 -79 -223 l-74 -210 5 -8 c3 -5 7 -6 9
-4 2 2 40 104 83 226 l78 221 -8 6 -9 5 -5 -13z"/>
<path d="M56558 85804 l-6 -6 35 -76 c19 -42 41 -92 48 -109 l14 -33 14 6 15
5 -48 107 c-45 101 -58 120 -72 106z"/>
<path d="M56250 85570 l0 -10 195 0 195 0 0 10 0 10 -195 0 -195 0 0 -10z"/>
<path d="M39864 85399 l-7 -11 14 -9 c8 -5 119 -73 247 -151 l233 -143 151
-108 c84 -60 160 -120 171 -134 l20 -24 10 10 11 11 -25 26 c-30 33 -170 138
-309 231 -105 70 -496 313 -504 313 -3 0 -8 -5 -12 -11z"/>
<path d="M88352 85158 c-29 -116 -51 -213 -49 -215 3 -2 28 91 57 207 29 116
51 213 48 215 -2 2 -27 -91 -56 -207z"/>
<path d="M80173 85125 c-39 -118 -68 -215 -64 -215 3 0 38 97 78 215 39 118
68 215 64 215 -3 0 -38 -97 -78 -215z"/>
<path d="M21826 85141 c5 -5 98 -57 207 -114 l197 -105 0 11 0 12 -194 103
c-106 56 -199 102 -206 102 l-14 0 10 -9z"/>
<path d="M88285 84923 c12 -11 464 -138 470 -131 3 2 -98 33 -223 68 -125 35
-234 65 -242 68 l-15 5 10 -10z"/>
<path d="M40857 84694 l-7 -7 63 -66 62 -66 60 -120 c33 -66 64 -122 69 -124
l8 -3 -10 -7 -10 -6 25 -125 26 -125 -11 -110 -10 -110 -51 -176 c-28 -97 -67
-218 -87 -270 l-36 -94 -29 -125 -29 -125 0 -70 1 -70 13 -60 c15 -67 74 -217
113 -285 34 -59 119 -151 215 -234 l76 -67 254 -138 253 -139 135 -92 135 -91
48 -47 c44 -44 118 -144 147 -201 13 -26 69 -174 150 -401 26 -74 72 -198 103
-275 30 -77 61 -165 70 -195 l16 -55 7 -102 7 -103 13 0 14 0 -6 73 c-3 39
-10 97 -14 128 l-8 56 -95 254 c-53 140 -121 328 -152 418 -63 184 -89 239
-150 326 -60 84 -120 137 -275 241 l-135 91 -245 133 -245 134 -80 69 c-44 38
-109 101 -144 141 l-65 71 -37 80 c-21 44 -50 116 -65 160 l-28 80 1 95 2 95
25 105 c14 58 46 161 71 230 24 69 65 197 91 285 l47 159 5 131 4 130 -16 90
c-9 50 -26 119 -38 155 l-21 65 -49 86 -49 86 -56 62 c-56 61 -64 67 -76 55z"/>
<path d="M64613 84511 l-233 -46 0 -7 0 -8 23 0 c12 0 114 18 227 41 184 37
233 51 219 62 -2 2 -109 -17 -236 -42z"/>
<path d="M86670 84542 l0 -8 223 -58 c122 -33 228 -61 236 -64 l14 -5 -5 13
-4 13 -220 58 c-227 61 -244 64 -244 51z"/>
<path d="M41060 84310 l-15 -10 18 0 17 0 0 10 c0 12 -1 12 -20 0z"/>
<path d="M74378 84182 c-14 -9 -49 -39 -77 -65 l-52 -49 -36 -55 -37 -55 -4
-89 -4 -89 11 0 11 0 0 72 0 72 21 44 22 44 56 60 c31 34 73 74 94 89 l38 27
-9 6 -8 5 -26 -17z"/>
<path d="M83358 84053 c-25 -27 -52 -61 -61 -78 l-14 -30 -6 -67 -5 -68 8 0
c11 0 20 38 20 83 l0 38 19 37 19 37 41 40 c39 38 50 55 33 55 -4 0 -28 -21
-54 -47z"/>
<path d="M30070 83960 c0 -8 32 -111 71 -227 l71 -213 10 0 10 0 -4 13 c-3 6
-36 104 -73 217 -37 113 -71 209 -76 215 l-9 9 0 -14z"/>
<path d="M24326 83952 l-5 -8 220 -93 219 -94 7 6 6 7 -64 29 c-163 73 -367
161 -372 161 -3 0 -8 -4 -11 -8z"/>
<path d="M82880 83635 l0 -14 15 5 c8 4 15 10 15 15 l0 9 -15 0 -15 0 0 -15z"/>
<path d="M83226 83495 c4 -8 10 -15 15 -15 l9 0 0 15 0 15 -15 0 -14 0 5 -15z"/>
<path d="M82262 83318 l-141 -152 6 -10 6 -10 148 155 147 154 -5 8 c-2 4 -8
7 -12 7 -4 0 -71 -68 -149 -152z"/>
<path d="M47165 83364 l-17 -13 -45 -203 c-24 -112 -62 -295 -83 -408 -22
-113 -42 -215 -45 -227 l-5 -23 15 0 c8 0 15 3 15 8 0 38 159 842 169 854 l6
6 96 -13 c53 -8 200 -32 327 -55 l231 -41 106 -39 c58 -22 113 -40 122 -40
l17 0 -9 8 c-6 5 -62 28 -125 51 l-115 43 -195 35 c-107 19 -252 42 -322 52
l-126 17 -17 -12z"/>
<path d="M30390 83061 c0 -16 83 -76 226 -164 78 -48 149 -90 158 -93 l16 -6
0 8 c0 5 -70 52 -156 104 -86 52 -173 110 -194 128 -40 33 -50 38 -50 23z"/>
<path d="M76555 82564 c-61 -98 -116 -188 -123 -201 l-13 -23 8 0 c4 0 61 86
126 191 l118 191 -3 10 -4 10 -109 -178z"/>
<path d="M18020 82127 l0 -12 213 -48 c223 -50 237 -52 237 -39 l0 9 -167 37
c-93 20 -194 43 -225 51 l-58 13 0 -11z"/>
<path d="M85000 82034 c0 -17 151 -409 161 -419 l10 -10 -30 80 c-66 179 -132
349 -136 354 -3 2 -5 0 -5 -5z"/>
<path d="M80105 81315 c-93 -68 -171 -129 -174 -136 l-4 -12 17 6 c15 6 316
216 341 239 l9 8 -9 9 -10 10 -170 -124z"/>
<path d="M79569 80687 c-207 -149 -621 -447 -920 -661 -299 -215 -656 -473
-792 -574 l-248 -185 4 -11 5 -11 11 3 c6 1 96 65 199 142 103 77 455 332 783
567 328 236 768 553 978 706 l381 278 -5 10 c-4 5 -9 9 -13 9 -4 0 -176 -123
-383 -273z"/>
<path d="M95492 80408 c-109 -149 -174 -241 -179 -256 l-6 -17 20 25 c24 30
197 270 207 288 18 31 -7 7 -42 -40z"/>
<path d="M94946 80372 l-5 -8 164 -117 c90 -64 166 -117 169 -117 21 0 -9 27
-111 100 -65 46 -139 99 -165 117 l-46 34 -6 -9z"/>
<path d="M7555 80191 l-5 -10 32 -24 c103 -76 335 -240 347 -245 l14 -5 -5 14
-5 14 -184 132 c-101 73 -185 133 -186 133 -1 0 -4 -4 -8 -9z"/>
<path d="M77530 79081 c0 -6 42 -76 93 -155 111 -171 134 -203 140 -196 5 4
-207 337 -225 356 l-8 7 0 -12z"/>
<path d="M76776 78525 c-174 -140 -322 -257 -328 -261 l-11 -7 6 17 7 17 -29
-20 c-16 -12 -48 -44 -71 -71 l-42 -50 -587 -471 c-644 -516 -827 -666 -914
-748 l-57 -54 -15 -50 -15 -51 0 -37 0 -37 14 -5 14 -6 4 70 4 69 64 66 c108
109 322 286 1328 1093 529 425 962 777 962 782 0 5 -4 9 -9 9 -4 0 -151 -115
-325 -255z"/>
<path d="M98470 78659 c-63 -94 -135 -228 -127 -235 2 -3 21 28 42 68 21 40
64 113 97 161 33 49 58 91 55 93 -3 3 -33 -36 -67 -87z"/>
<path d="M30530 78643 l0 -10 33 -7 c17 -4 86 -9 153 -13 l121 -6 67 13 67 13
-8 8 -8 8 -80 -11 -80 -10 -103 6 c-57 4 -116 9 -132 13 l-30 6 0 -10z"/>
<path d="M42625 77453 c14 -15 405 -216 410 -211 2 2 -91 53 -208 112 -117 60
-207 104 -202 99z"/>
<path d="M12885 77341 l-5 -10 52 -10 c29 -6 228 -45 442 -87 l388 -76 10 10
9 9 -23 6 c-44 11 -844 167 -856 167 -6 0 -13 -4 -17 -9z"/>
<path d="M14670 76978 l0 -13 216 -48 c120 -26 219 -45 222 -42 14 13 -26 26
-208 65 -107 23 -203 44 -212 46 l-18 5 0 -13z"/>
<path d="M41927 76874 l-6 -6 21 -42 c11 -22 41 -65 66 -94 l45 -53 10 10 11
11 -32 37 c-18 21 -46 62 -63 91 -30 51 -39 59 -52 46z"/>
<path d="M74608 76773 l-18 -4 0 -15 0 -14 43 6 c49 8 51 9 42 23 l-6 11 -22
-1 c-12 -1 -30 -3 -39 -6z"/>
<path d="M45766 74581 l-6 -10 242 -194 243 -194 101 -105 100 -104 52 -100
51 -100 45 -174 c55 -213 79 -348 110 -607 l24 -198 21 -85 c12 -47 36 -121
53 -164 l32 -80 153 -159 153 -159 40 -70 40 -69 217 -574 218 -575 14 0 13 0
-4 13 c-3 6 -103 270 -223 586 l-218 573 -39 68 -39 68 -153 159 -152 160 -32
79 -32 79 -24 110 -25 110 -16 155 c-21 198 -63 424 -115 619 l-41 153 -40 81
c-53 104 -98 163 -201 263 l-83 82 -225 178 c-124 97 -230 181 -237 186 l-11
9 -6 -10z"/>
<path d="M73810 72899 c0 -5 2 -9 5 -9 2 0 95 -25 207 -55 173 -47 227 -57
207 -42 -2 2 -83 25 -179 50 -96 26 -190 51 -207 56 l-33 10 0 -10z"/>
<path d="M72273 72798 c-26 -45 -80 -126 -120 -180 l-72 -97 10 -7 11 -6 7 8
c39 44 142 192 182 259 49 83 57 105 39 105 l-9 0 -48 -82z"/>
<path d="M25310 72745 c0 -3 20 -45 43 -93 l44 -87 23 -110 c13 -60 27 -114
31 -119 l9 -10 6 6 6 6 -26 119 -26 118 -42 88 -42 87 -13 0 c-7 0 -13 -2 -13
-5z"/>
<path d="M47095 72141 l-7 -12 39 -62 39 -62 108 -280 c60 -154 150 -395 201
-535 52 -140 115 -304 140 -365 l47 -110 76 -115 75 -115 81 -78 81 -78 56
-33 c63 -37 81 -43 197 -60 l82 -13 0 12 0 11 -97 18 -97 17 -44 21 -43 22
-75 65 -75 64 -47 61 c-26 34 -70 97 -98 141 l-51 80 -48 110 c-26 61 -92 233
-146 383 -55 150 -146 391 -203 535 l-102 262 -41 64 -40 63 -8 -11z"/>
<path d="M68727 71713 c-3 -27 -12 -125 -18 -219 l-13 -170 9 -20 9 -19 3 40
c17 237 24 338 29 383 l6 52 -10 0 -9 0 -6 -47z"/>
<path d="M74490 70981 l0 -8 253 -5 252 -6 8 8 8 7 -92 6 c-51 4 -168 7 -261
7 l-168 0 0 -9z"/>
<path d="M73618 70773 l-148 -4 0 -11 0 -11 182 6 c99 4 313 7 475 7 l293 0 0
10 0 10 -327 -2 c-181 -1 -394 -4 -475 -5z"/>
<path d="M74398 70685 l-6 -70 66 -370 65 -370 9 -10 10 -10 -5 20 c-4 11 -32
162 -63 335 l-58 315 -6 115 -6 115 -6 -70z"/>
<path d="M76466 70258 c55 -57 124 -136 154 -175 29 -40 56 -71 58 -68 15 15
-213 290 -272 329 -51 33 -37 14 60 -86z"/>
<path d="M48766 70125 l-4 -12 76 -21 c42 -12 138 -31 212 -42 l135 -21 247
-64 247 -63 4 11 4 12 -241 62 -241 63 -155 25 -155 24 -62 20 -62 19 -5 -13z"/>
<path d="M50099 69765 c-3 -2 -2 -32 1 -66 l6 -62 -31 -19 c-16 -10 -40 -21
-52 -24 -13 -4 -23 -10 -23 -15 l0 -9 21 0 20 0 39 23 40 22 5 15 6 15 -7 62
-6 63 -7 0 c-4 0 -10 -2 -12 -5z"/>
<path d="M50240 69502 c0 -4 34 -20 75 -36 l75 -29 7 7 c9 9 7 10 -72 40 -76
28 -85 30 -85 18z"/>
<path d="M33384 69126 l-19 -14 5 -6 6 -5 22 6 22 5 0 14 c0 18 -11 18 -36 0z"/>
<path d="M68615 68932 c-66 -70 -120 -125 -120 -122 -1 3 -19 -10 -42 -28
l-42 -33 -23 -37 -23 -37 -377 -390 c-208 -214 -378 -393 -378 -397 0 -5 6 -8
13 -7 l12 1 384 398 c211 219 392 412 403 429 l20 31 7 -4 7 -5 148 155 149
155 -10 10 -9 9 -119 -128z m-141 -166 c-9 -15 -19 -25 -21 -22 -3 2 3 16 13
30 9 15 19 25 21 22 3 -2 -3 -16 -13 -30z"/>
<path d="M67510 68003 c0 -12 38 -48 45 -41 3 2 -6 15 -20 28 l-25 23 0 -10z"/>
<path d="M41301 67718 l-71 -203 0 -28 0 -28 10 6 10 6 0 22 c0 12 31 110 69
217 l70 195 -8 8 -8 8 -72 -203z"/>
<path d="M41417 67878 c-35 -93 -129 -363 -133 -386 l-6 -30 11 -6 11 -7 0 21
c0 11 32 109 70 216 39 108 70 198 70 200 0 10 -18 3 -23 -8z"/>
<path d="M66995 67379 l-160 -150 -175 -143 c-291 -236 -995 -783 -1129 -876
-232 -162 -365 -229 -573 -293 -135 -42 -231 -62 -398 -81 l-125 -15 -330 -10
c-181 -6 -465 -13 -630 -16 -165 -3 -401 -10 -525 -16 l-225 -9 -99 -16 -99
-16 -156 -43 -156 -42 -95 -41 c-130 -55 -1688 -809 -1930 -934 l-195 -101
-125 -86 -125 -85 -190 -162 -190 -161 -260 -189 -260 -190 -465 -273 -465
-274 -306 -202 c-169 -112 -336 -226 -373 -255 l-65 -53 5 -9 c10 -15 25 -8
92 46 37 30 130 95 207 145 l140 91 13 -5 13 -5 -5 9 -6 9 140 91 c77 51 354
218 616 372 l476 279 256 187 257 187 188 160 189 161 128 87 128 87 154 82
c174 93 1760 864 1944 944 l120 53 151 41 c82 23 187 48 233 56 l82 14 207 10
c113 6 429 15 701 21 272 6 591 15 709 21 l215 10 105 15 c129 18 177 30 385
98 l164 54 133 72 132 72 111 77 c113 78 881 675 1126 875 74 60 209 179 300
264 91 86 173 163 183 172 l18 17 -13 11 -14 11 -159 -150z"/>
<path d="M1965 67500 l-50 -7 234 -1 c129 -1 232 0 230 2 -2 2 -85 6 -184 8
l-180 5 -50 -7z"/>
<path d="M60665 67137 c-22 -39 -56 -108 -76 -152 -20 -44 -48 -105 -63 -137
-15 -31 -54 -121 -87 -200 l-61 -143 -39 -155 -38 -155 -1 -47 0 -48 15 0 15
0 0 33 c0 17 16 100 36 182 l37 150 72 180 c98 242 147 353 205 461 l49 91 -6
7 c-12 12 -18 5 -58 -67z"/>
<path d="M51650 66993 c1 -4 93 -70 205 -146 113 -76 205 -134 205 -130 0 6
-326 232 -397 276 l-13 8 0 -8z"/>
<path d="M38465 66874 c-110 -7 -209 -13 -219 -13 l-19 -1 5 -6 6 -5 226 12
226 12 0 9 c0 4 -6 7 -12 7 -7 -1 -103 -8 -213 -15z"/>
<path d="M47800 66836 c0 -9 431 -298 436 -293 3 2 -89 67 -203 144 -231 155
-233 156 -233 149z"/>
<path d="M36670 66819 l-105 -8 -69 -31 c-37 -17 -66 -33 -64 -36 3 -2 30 7
62 22 l56 26 63 9 c34 5 89 9 122 9 33 1 78 5 100 9 l40 9 -50 -1 c-27 0 -97
-3 -155 -8z"/>
<path d="M47490 66267 c-57 -94 -110 -182 -118 -194 l-14 -23 8 0 c11 1 239
378 232 385 -2 3 -51 -73 -108 -168z"/>
<path d="M97695 66296 l-210 -51 -3 -17 -3 -16 227 57 228 57 4 12 4 12 -19
-1 c-10 0 -112 -24 -228 -53z"/>
<path d="M45735 66263 c8 -8 171 -79 415 -180 l35 -15 -10 10 c-8 8 -364 163
-435 189 l-15 6 10 -10z"/>
<path d="M48690 66225 c0 -3 219 -158 383 -269 61 -42 89 -46 34 -6 -90 68
-401 280 -408 280 -5 0 -9 -2 -9 -5z"/>
<path d="M97266 66136 l-209 -51 -5 -14 -5 -14 24 6 c13 3 113 27 222 53 l197
48 0 13 c0 16 23 20 -224 -41z"/>
<path d="M96738 66073 l-226 -45 4 -12 5 -12 234 45 234 46 1 10 1 10 -13 1
c-7 1 -115 -18 -240 -43z"/>
<path d="M60165 65953 c-26 -87 -63 -207 -81 -266 l-32 -108 16 3 16 3 78 255
c43 140 78 258 78 263 0 4 -6 7 -13 7 l-14 0 -48 -157z"/>
<path d="M60300 66086 c0 -1 -26 -102 -59 -222 l-58 -219 -148 -405 c-81 -223
-165 -454 -186 -514 l-39 -109 22 15 22 15 177 489 178 489 56 215 c31 118 59
223 61 233 l5 17 -15 0 c-9 0 -16 -2 -16 -4z"/>
<path d="M70040 65950 c0 -8 30 -91 66 -185 l66 -170 33 -45 c38 -52 102 -178
154 -300 39 -93 282 -552 289 -546 2 2 -49 102 -114 222 l-117 218 -42 101
c-58 137 -110 239 -157 307 l-40 57 -69 178 c-38 98 -69 171 -69 163z"/>
<path d="M62250 65586 l-125 -43 -155 -72 c-85 -40 -303 -145 -485 -233 -181
-89 -510 -248 -730 -355 l-400 -195 -92 -55 c-51 -31 -93 -57 -93 -59 0 -2 89
40 198 93 108 52 307 148 442 213 135 65 394 191 575 280 182 89 435 211 563
271 l234 108 114 36 114 36 0 9 0 10 -17 -1 c-10 0 -74 -20 -143 -43z"/>
<path d="M35346 65055 l-6 -16 13 -4 c14 -5 888 -185 900 -185 l7 0 0 20 c0
11 -3 20 -7 20 -3 0 -203 41 -444 90 -240 50 -442 90 -447 90 -5 0 -13 -7 -16
-15z"/>
<path d="M48625 65032 c8 -9 280 -130 365 -164 l25 -9 -10 10 c-8 8 -316 146
-375 168 l-15 6 10 -11z"/>
<path d="M48498 64886 c-76 -124 -113 -192 -96 -176 15 14 189 303 186 310 -2
4 -42 -56 -90 -134z"/>
<path d="M36003 64953 l7 -6 7 6 6 7 -13 0 -13 0 6 -7z"/>
<path d="M36053 64943 l7 -6 7 6 6 7 -13 0 -13 0 6 -7z"/>
<path d="M36108 64933 l13 -5 6 6 6 6 -19 -1 -19 -1 13 -5z"/>
<path d="M36158 64923 c6 -2 18 -2 25 0 l12 5 -25 0 -25 0 13 -5z"/>
<path d="M36200 64917 c7 -8 217 -47 243 -46 l22 1 -90 18 c-113 23 -181 33
-175 27z"/>
<path d="M91595 64741 c-183 -93 -225 -118 -225 -132 0 -16 19 -9 82 29 35 21
123 67 196 102 125 60 143 72 124 84 l-8 5 -169 -88z"/>
<path d="M36970 64791 c36 -14 916 -132 970 -130 47 1 4 8 -270 44 -151 20
-360 47 -465 61 -104 14 -206 27 -225 30 l-35 4 25 -9z"/>
<path d="M37180 64720 l0 -20 11 0 c14 0 383 -48 422 -55 l27 -4 0 19 0 20
-22 4 c-26 6 -410 56 -427 56 l-11 0 0 -20z"/>
<path d="M60197 64631 l-108 -58 -32 -30 c-18 -17 -68 -55 -113 -84 l-81 -54
4 -12 5 -13 91 62 c51 33 106 74 124 90 l31 30 13 -7 12 -8 -8 13 -8 13 17 -6
17 -7 -5 9 -6 9 68 40 c56 33 107 74 91 71 -2 0 -53 -26 -112 -58z"/>
<path d="M38008 64653 c12 -2 30 -2 40 0 l17 5 -40 -1 -40 0 23 -4z"/>
<path d="M38088 64643 c12 -2 32 -2 45 0 l22 4 -45 0 -45 0 23 -4z"/>
<path d="M38183 64633 c15 -2 37 -2 50 0 l22 4 -50 0 -50 0 28 -4z"/>
<path d="M38278 64623 c12 -2 32 -2 45 0 l22 4 -45 0 -45 0 23 -4z"/>
<path d="M38368 64613 c12 -2 32 -2 45 0 l22 4 -45 0 -45 0 23 -4z"/>
<path d="M38463 64603 c15 -2 37 -2 50 0 l22 4 -50 0 -50 0 28 -4z"/>
<path d="M38558 64593 c12 -2 32 -2 45 0 l22 4 -45 0 -45 0 23 -4z"/>
<path d="M38725 64575 c55 -8 152 -25 215 -38 l115 -24 224 -73 c193 -62 365
-127 423 -160 9 -5 105 -43 214 -85 l197 -76 10 10 c6 6 9 12 6 14 -2 2 -175
69 -384 149 l-380 145 -140 42 c-77 22 -203 54 -280 70 l-140 29 -90 6 -90 5
100 -14z"/>
<path d="M38570 64561 l0 -20 18 -5 c9 -2 49 -7 87 -11 39 -4 135 -20 215 -35
l145 -28 210 -67 c115 -37 216 -70 223 -73 l14 -5 -4 23 -3 23 -215 69 -215
69 -145 28 c-80 16 -176 32 -215 35 -38 4 -80 9 -92 12 l-23 4 0 -19z"/>
<path d="M28979 64523 c-6 -16 -28 -56 -50 -90 l-40 -61 -72 -55 -72 -54 -350
-198 c-353 -200 -485 -281 -485 -296 0 -14 9 -11 58 23 26 18 215 128 420 245
l373 212 70 52 70 52 38 56 c21 31 45 75 54 99 l17 42 -10 0 -10 0 -11 -27z"/>
<path d="M47783 64543 c11 -10 422 -181 426 -177 2 2 2 5 0 7 -8 6 -419 177
-425 177 l-7 0 6 -7z"/>
<path d="M59788 64523 l-25 -28 -12 -34 c-13 -40 -11 -45 12 -28 l17 12 20 53
c11 28 19 52 17 52 -2 0 -15 -12 -29 -27z"/>
<path d="M37520 64500 l0 -13 7 6 6 7 -6 7 -7 6 0 -13z"/>
<path d="M77173 64303 c3 -104 9 -198 13 -210 l6 -23 10 0 11 0 -7 43 c-3 23
-9 117 -12 210 l-7 167 -10 0 -10 0 6 -187z"/>
<path d="M59712 64313 l-20 -18 -50 -137 -49 -136 -54 -98 -54 -98 -72 -76
-72 -77 -88 -56 -88 -55 -90 -26 -90 -26 -165 -15 -165 -15 -52 -14 c-84 -23
-142 -53 -483 -255 -395 -234 -472 -282 -467 -287 2 -2 32 7 66 21 l62 26 344
204 c189 113 368 215 397 228 77 34 133 45 313 62 l160 14 97 29 97 30 87 55
87 56 84 93 83 92 50 97 50 97 41 114 c22 62 47 130 55 151 15 42 14 44 -14
20z"/>
<path d="M80493 64299 l-9 -9 -354 -79 -355 -78 -725 -88 -725 -88 -14 -13
-15 -13 35 5 c19 3 360 45 759 94 l725 89 334 76 c184 41 339 75 346 75 l12 0
9 -28 c5 -15 46 -100 92 -190 l83 -163 10 6 10 7 -92 175 -91 175 0 24 0 23
-13 5 -13 4 -9 -9z"/>
<path d="M78920 64084 c-366 -46 -754 -92 -863 -102 -180 -18 -218 -24 -206
-36 8 -8 406 35 1077 118 380 47 697 86 702 86 6 0 10 5 10 10 l0 10 -27 -1
c-16 -1 -327 -39 -693 -85z"/>
<path d="M58920 64146 l0 -14 30 -12 31 -13 15 -29 15 -29 -5 -27 -6 -27 9
-14 9 -13 12 37 12 38 -11 38 -12 39 -39 20 c-22 11 -44 20 -50 20 l-10 0 0
-14z"/>
<path d="M92280 64145 l0 -11 167 -33 167 -33 31 -15 c16 -9 55 -35 87 -59
l56 -44 84 -92 c46 -51 103 -119 128 -150 l44 -57 8 5 8 5 -47 62 c-120 156
-265 300 -347 344 l-29 15 -179 37 -178 37 0 -11z"/>
<path d="M40072 64085 l-12 -25 9 0 c4 0 13 11 19 25 l12 25 -9 0 c-4 0 -13
-11 -19 -25z"/>
<path d="M46000 63878 c-52 -90 -105 -183 -119 -207 l-25 -44 11 6 c6 4 24 31
41 60 16 28 68 118 115 200 47 81 83 147 79 147 -4 0 -50 -73 -102 -162z"/>
<path d="M77275 63917 l0 -83 -28 -43 -28 -43 6 -6 6 -6 24 29 25 30 10 35 c5
19 10 57 10 84 l0 49 18 -15 c9 -9 32 -23 51 -33 l33 -17 10 10 9 9 -31 13
c-17 7 -47 26 -67 41 -20 16 -39 29 -42 29 l-6 0 0 -83z"/>
<path d="M59060 63910 c11 -20 30 -28 30 -12 0 11 -22 32 -32 32 l-9 0 11 -20z"/>
<path d="M59590 63783 l-45 -85 -45 -21 c-25 -11 -81 -35 -125 -53 l-80 -34
20 0 20 0 108 47 107 47 45 84 c25 47 44 89 43 93 -2 5 -23 -31 -48 -78z"/>
<path d="M59120 63835 l0 -14 31 -17 31 -16 -5 -34 -6 -34 9 0 c10 0 20 26 20
54 l0 22 -40 27 -40 26 0 -14z"/>
<path d="M90148 63759 c-137 -114 -389 -353 -544 -515 l-155 -162 11 -7 10 -6
147 151 c142 147 466 453 571 539 49 40 64 61 43 61 -5 0 -42 -27 -83 -61z"/>
<path d="M60563 63715 c3 -11 16 -56 29 -100 l23 -80 -1 -120 -2 -120 -19 -55
-19 -55 -72 -108 -71 -107 -5 -43 c-3 -23 -7 -61 -10 -85 l-4 -42 9 6 9 5 0
48 0 48 14 41 15 41 62 93 63 93 19 50 19 50 5 113 6 112 -28 108 c-15 59 -32
112 -38 117 l-9 10 5 -20z"/>
<path d="M40613 63689 l-12 -12 114 -132 c130 -152 204 -249 295 -385 l62 -95
62 -63 c33 -35 73 -70 88 -78 l26 -14 6 15 5 15 -10 0 c-6 0 -38 26 -71 58
l-61 57 -110 165 -110 165 -135 157 c-74 87 -135 158 -136 158 -1 0 -7 -5 -13
-11z"/>
<path d="M59114 63665 c-28 -13 -127 -45 -220 -71 l-169 -47 -65 -33 -65 -33
35 6 c19 3 51 14 70 23 19 10 107 38 195 63 88 25 187 57 220 70 l59 25 4 11
4 11 -9 -1 c-4 0 -31 -11 -59 -24z"/>
<path d="M77004 63643 l15 -38 31 -195 c17 -107 34 -203 37 -214 l5 -18 9 9 9
9 -35 209 c-19 116 -39 225 -46 243 l-11 32 -14 0 -14 0 14 -37z"/>
<path d="M77060 63622 c0 -20 51 -370 61 -419 l10 -53 11 0 11 0 -7 43 c-3 23
-19 129 -34 236 l-27 194 -13 5 -12 4 0 -10z"/>
<path d="M41033 63357 c-34 -29 -62 -56 -62 -60 -1 -10 39 19 99 72 66 59 35
49 -37 -12z"/>
<path d="M16247 63320 c-47 -39 -114 -86 -148 -106 l-63 -35 -95 -27 -96 -27
24 -3 24 -4 81 23 81 23 60 36 c33 20 99 68 147 107 l88 72 -9 5 -9 6 -85 -70z"/>
<path d="M43196 63381 l-8 -12 6 -6 6 -6 6 6 c3 3 4 11 2 18 l-4 13 -8 -13z"/>
<path d="M16357 63315 l-17 -36 0 -39 0 -40 29 -32 29 -33 7 7 7 7 -26 31 -26
32 0 28 c0 15 7 44 15 63 17 42 18 47 7 47 -5 0 -16 -16 -25 -35z"/>
<path d="M60494 63142 c-40 -59 -78 -120 -87 -137 l-15 -30 -9 -82 -9 -83 7 0
6 0 7 73 8 72 17 40 c10 22 45 79 78 126 52 75 82 129 71 129 -2 0 -35 -49
-74 -108z"/>
<path d="M40797 63145 l-16 -12 249 -281 c236 -265 292 -334 218 -266 l-33 29
29 -32 c16 -18 32 -30 35 -28 6 7 81 -66 81 -79 l0 -10 -37 35 -36 34 83 -97
c46 -54 85 -98 88 -98 7 0 -17 30 -62 77 l-40 43 6 5 5 6 158 -178 c87 -98
164 -185 172 -193 l13 -14 14 14 15 15 -463 521 -463 521 -16 -12z"/>
<path d="M41540 63151 c0 -5 6 -14 14 -20 l14 -12 5 9 6 8 -20 12 -19 12 0 -9z"/>
<path d="M40907 63104 l-6 -6 17 -27 c21 -33 82 -108 82 -100 0 14 -44 105
-58 122 -16 18 -25 21 -35 11z"/>
<path d="M13740 63080 l-25 -8 155 1 155 2 35 -8 35 -7 -30 14 -30 15 -135 0
-135 -1 -25 -8z"/>
<path d="M10067 63003 c18 -2 50 -2 70 0 l38 4 -70 0 -70 0 32 -4z"/>
<path d="M38950 63001 l0 -8 128 -17 c159 -21 755 -76 761 -70 2 2 2 6 0 8 -2
3 -153 18 -334 35 -182 17 -377 37 -435 46 -125 17 -120 17 -120 6z"/>
<path d="M10298 62993 c6 -2 18 -2 25 0 l12 5 -25 0 -25 0 13 -5z"/>
<path d="M41010 62848 c0 -3 9 -31 20 -64 l20 -58 28 -29 27 -29 48 -25 c82
-41 74 -25 -30 63 l-42 35 -21 44 c-18 37 -50 77 -50 63z"/>
<path d="M41346 62761 l-6 -9 15 -12 15 -12 0 21 0 21 -9 0 c-6 0 -12 -4 -15
-9z"/>
<path d="M10226 62744 c-10 -26 -6 -30 9 -11 l14 19 188 -11 c103 -7 200 -14
216 -16 l27 -4 0 7 0 8 -187 12 c-104 7 -204 12 -224 12 l-37 0 -6 -16z"/>
<path d="M77435 62673 c8 -32 30 -126 49 -209 20 -84 36 -155 36 -160 l0 -8
10 10 9 9 -47 204 -48 205 -11 3 -11 4 13 -58z"/>
<path d="M41370 62716 c0 -2 8 -10 18 -17 l17 -14 -14 18 c-13 16 -21 21 -21
13z"/>
<path d="M27430 62460 c-96 -49 -171 -89 -167 -89 5 -1 85 36 178 81 l169 81
0 9 c0 11 19 19 -180 -82z"/>
<path d="M51322 62379 l-114 -171 9 -9 9 -9 117 175 c64 96 117 177 117 180 0
3 -6 5 -12 5 l-13 -1 -113 -170z"/>
<path d="M27640 62524 c0 -3 60 -89 133 -192 134 -187 337 -487 337 -497 0 -3
104 -162 232 -353 l232 -347 44 -100 c46 -104 91 -244 92 -282 l0 -23 10 0 10
0 0 23 c0 40 -38 159 -92 287 l-53 125 -323 485 c-178 267 -387 574 -465 683
-123 172 -157 214 -157 191z"/>
<path d="M89022 62421 c2 -5 81 -75 176 -156 l174 -146 11 4 11 3 -180 152
c-98 84 -183 152 -187 152 l-9 0 4 -9z"/>
<path d="M60501 62398 c-1 -3 10 -57 23 -120 14 -62 48 -230 76 -373 29 -143
56 -264 61 -269 l9 -10 0 15 c0 7 -16 88 -35 179 -20 91 -54 251 -75 355 -35
164 -57 248 -59 223z"/>
<path d="M27925 62209 c5 -8 50 -72 101 -144 51 -71 204 -301 340 -510 l247
-380 53 -120 52 -120 20 -75 21 -75 15 -135 16 -135 -6 -120 -6 -120 -34 -224
c-31 -204 -34 -245 -19 -229 3 2 21 106 39 229 l35 224 2 155 2 155 -11 106
-11 106 -22 79 -22 79 -49 115 -50 115 -293 440 c-328 492 -394 586 -414 593
l-14 5 8 -14z"/>
<path d="M50235 62183 c13 -13 384 -157 390 -151 4 4 -291 123 -380 154 l-20
7 10 -10z"/>
<path d="M40636 62068 c14 -46 32 -94 41 -106 l15 -24 5 6 6 6 -12 23 c-6 12
-22 55 -34 96 l-22 74 -12 4 -12 4 25 -83z"/>
<path d="M63201 62038 c-2 -17 79 -391 85 -397 l7 -6 -6 25 c-3 14 -20 97 -37
184 -28 140 -47 216 -49 194z"/>
<path d="M59506 62022 c5 -5 91 -44 192 -87 l182 -78 0 -9 c0 -5 -18 -28 -39
-51 -22 -23 -82 -105 -135 -181 l-96 -139 0 -15 0 -16 31 50 c52 82 170 246
213 296 l41 48 13 0 12 0 0 22 0 22 -11 -11 -11 -11 -194 84 c-106 46 -197 84
-201 84 l-7 0 10 -8z"/>
<path d="M50610 61986 c0 -2 46 -23 103 -46 56 -23 128 -56 161 -72 32 -16 60
-27 63 -24 7 6 -60 40 -197 98 -108 46 -130 53 -130 44z"/>
<path d="M60551 61978 c-1 -16 54 -292 65 -331 3 -10 8 -17 10 -14 4 4 -61
329 -70 352 l-4 10 -1 -17z"/>
<path d="M62200 61869 c-267 -54 -692 -140 -946 -191 l-461 -93 -31 -41 c-18
-22 -32 -47 -32 -53 l0 -13 9 4 c5 2 24 23 42 47 l34 44 25 4 c52 7 918 178
1245 245 544 112 569 117 593 123 l22 5 0 10 c0 13 58 23 -500 -91z"/>
<path d="M44720 61925 c0 -6 15 -26 33 -45 17 -20 97 -106 176 -193 79 -86
148 -157 153 -157 7 0 -229 265 -338 380 l-24 25 0 -10z"/>
<path d="M57330 61901 l0 -9 188 -80 c103 -45 213 -92 245 -106 l57 -26 0 8
c0 4 -44 26 -98 49 -53 23 -163 71 -244 107 l-148 65 0 -8z"/>
<path d="M60275 61692 c13 -13 276 -125 281 -119 4 3 -218 103 -276 124 l-15
6 10 -11z"/>
<path d="M60613 61606 l-33 -15 0 -16 0 -15 10 0 c6 0 10 5 10 10 l0 10 27 11
26 10 29 -7 29 -6 11 -24 c6 -13 15 -24 20 -24 14 0 9 27 -9 49 l-18 22 -35 4
-35 5 -32 -14z"/>
<path d="M63276 61453 c54 -269 56 -275 61 -270 6 7 -80 437 -88 437 l-6 0 33
-167z"/>
<path d="M61100 61605 c0 -15 212 -980 216 -984 2 -2 4 2 4 10 0 23 -208 970
-214 977 l-6 5 0 -8z"/>
<path d="M62531 61598 c0 -7 17 -98 37 -202 l37 -189 13 -5 12 -4 -5 14 c-2 7
-21 100 -41 206 l-36 192 -9 0 c-5 0 -9 -6 -8 -12z"/>
<path d="M25779 61518 c53 -74 264 -318 269 -313 3 3 -4 15 -15 28 -87 98
-216 253 -239 286 -15 23 -31 41 -36 41 l-10 0 31 -42z"/>
<path d="M60580 61446 c-20 -13 -59 -36 -88 -51 -50 -26 -66 -45 -39 -45 6 0
51 23 100 51 l87 51 -6 9 c-8 13 -14 11 -54 -15z"/>
<path d="M60252 61259 l-153 -151 6 -6 5 -6 43 39 c98 91 267 260 267 267 0
19 -24 -2 -168 -143z"/>
<path d="M63380 61143 c5 -21 45 -213 89 -428 45 -214 86 -399 91 -410 l11
-20 -4 15 c-2 8 -44 210 -93 447 -49 238 -92 433 -95 433 l-7 0 8 -37z"/>
<path d="M49966 60928 l-35 -43 10 -4 10 -3 21 18 c11 11 29 31 40 47 l19 27
-14 0 -15 0 -36 -42z"/>
<path d="M52110 60899 l-235 -49 -120 -15 -120 -15 -145 0 -145 0 -290 19
c-159 11 -424 27 -587 37 l-298 16 -102 -10 -103 -11 -276 -85 -276 -84 -94
-11 c-52 -6 -202 -18 -334 -26 -132 -8 -370 -24 -530 -34 l-290 -20 -65 -14
-65 -14 -85 -43 c-100 -50 -97 -47 -83 -61 l12 -12 75 42 75 41 68 15 68 15
215 14 c118 8 343 22 500 31 l285 15 130 17 130 16 220 67 c121 37 255 78 299
90 l79 22 111 0 c110 0 639 -29 1036 -57 113 -8 257 -15 320 -15 l115 0 90 10
c50 6 222 36 383 67 l292 58 0 17 0 18 -12 -1 c-7 0 -119 -23 -248 -50z"/>
<path d="M49720 60820 l-15 -10 10 0 c6 0 17 5 25 10 l15 10 -10 0 c-5 0 -17
-5 -25 -10z"/>
<path d="M50520 60811 c25 -5 119 -12 210 -15 91 -4 173 -10 183 -12 l17 -5 0
9 0 9 -132 7 c-73 3 -176 8 -228 11 l-95 4 45 -8z"/>
<path d="M49683 60803 l7 -6 7 6 6 7 -13 0 -13 0 6 -7z"/>
<path d="M49893 60798 c-6 -7 -19 -50 -30 -95 l-21 -83 13 0 12 0 25 95 25 95
-8 0 c-3 0 -11 -6 -16 -12z"/>
<path d="M49823 60780 c-35 -14 -27 -20 10 -8 17 6 34 13 36 14 8 7 -24 3 -46
-6z"/>
<path d="M49523 60753 l7 -6 7 6 6 7 -13 0 -13 0 6 -7z"/>
<path d="M49488 60743 l13 -5 6 6 6 6 -19 -1 -19 -1 13 -5z"/>
<path d="M49453 60733 l7 -6 7 6 6 7 -13 0 -13 0 6 -7z"/>
<path d="M49270 60710 l-145 -18 50 0 c56 -1 253 23 262 32 l6 6 -14 -1 c-8
-1 -79 -10 -159 -19z"/>
<path d="M48870 60680 l-45 -8 140 5 c77 3 142 7 144 9 8 7 -192 1 -239 -6z"/>
<path d="M49083 60623 c9 -2 23 -2 30 0 l12 5 -30 0 -30 0 18 -5z"/>
<path d="M48923 60613 c9 -2 23 -2 30 0 l12 5 -30 0 -30 0 18 -5z"/>
<path d="M53485 60573 l8 -48 -1 -160 c-1 -88 -4 -185 -7 -215 l-5 -55 10 30
10 30 3 160 c1 88 0 193 -2 233 l-4 72 -10 0 -9 0 7 -47z"/>
<path d="M78010 60520 l0 -13 7 6 6 7 -6 7 -7 6 0 -13z"/>
<path d="M57321 60448 c27 -50 212 -208 244 -208 17 0 -6 22 -82 79 l-83 62
-36 45 c-20 24 -41 44 -46 44 l-9 0 12 -22z"/>
<path d="M62113 60262 l-223 -45 0 -7 0 -7 223 45 c122 25 224 47 226 49 15
11 -29 5 -226 -35z"/>
<path d="M47435 60151 c-133 -115 -174 -170 -225 -302 l-20 -54 -55 -261 -54
-260 -30 -82 -31 -82 -36 -58 c-54 -85 -114 -152 -196 -218 -40 -32 -80 -66
-88 -75 -8 -9 -71 -59 -140 -110 l-125 -93 -202 -184 -203 -184 6 -9 5 -9 202
183 202 183 127 97 c70 54 139 104 154 112 15 7 59 39 98 71 l71 57 47 57 c26
31 63 83 82 116 l35 59 30 85 c17 47 33 105 37 129 l7 43 9 -14 9 -13 -6 22
-6 23 41 197 41 196 24 64 c13 34 36 84 52 110 l27 48 84 83 c46 45 88 82 94
82 l11 0 -92 -86 -92 -87 -27 -51 c-14 -28 -37 -77 -49 -109 l-23 -58 -35
-171 c-20 -93 -35 -172 -33 -174 2 -2 25 86 52 194 l48 197 36 75 35 75 100
102 c55 57 96 103 92 103 -5 0 1 10 13 23 l22 23 -7 7 c-14 14 -30 4 -118 -72z"/>
<path d="M58642 60190 c-18 -4 -36 -10 -39 -14 l-6 -6 38 3 38 2 38 -70 c49
-89 268 -573 349 -770 34 -82 66 -154 70 -159 l9 -9 248 49 c136 26 250 49
252 51 19 13 -37 5 -249 -38 l-244 -49 -6 8 c-4 4 -37 81 -75 172 -111 271
-376 844 -388 839 -1 -1 -17 -5 -35 -9z"/>
<path d="M57033 60102 l27 -28 48 -17 c62 -23 89 -42 113 -81 l19 -31 0 20 0
21 -16 23 -17 24 -66 29 c-36 17 -78 39 -93 49 -38 28 -46 23 -15 -9z"/>
<path d="M43585 60010 l-7 -11 104 -116 c57 -63 126 -142 153 -174 l50 -58 14
14 14 13 -19 24 c-11 13 -77 90 -149 171 l-130 147 -12 0 c-6 0 -15 -5 -18
-10z"/>
<path d="M43576 59942 l-5 -8 72 -80 c40 -43 93 -104 117 -134 25 -30 130
-146 234 -258 l189 -203 146 -133 c80 -73 182 -160 226 -194 l80 -61 9 9 c5 5
8 11 5 13 -24 17 -160 135 -267 232 -74 66 -137 121 -142 123 -12 4 -409 437
-470 512 -61 74 -171 190 -182 190 -4 0 -9 -4 -12 -8z"/>
<path d="M58850 59931 c0 -7 36 -94 80 -192 44 -97 109 -251 146 -341 36 -90
71 -167 76 -173 l11 -10 -6 15 c-60 163 -306 726 -307 701z"/>
<path d="M43542 59888 l-24 -28 10 0 c13 0 45 37 41 48 l-4 9 -23 -29z"/>
<path d="M86765 59864 c-27 -24 -107 -90 -177 -145 l-128 -100 0 -11 0 -10 14
5 c38 15 356 276 357 294 1 19 -20 8 -66 -33z"/>
<path d="M86559 59764 c-90 -69 -166 -131 -168 -137 l-4 -12 14 11 c8 6 85 66
172 133 141 110 166 131 153 131 -2 0 -77 -57 -167 -126z"/>
<path d="M41050 59821 c0 -23 -34 -207 -56 -301 l-5 -25 14 15 14 15 27 135
c14 74 26 147 26 163 l0 27 -10 0 -10 0 0 -29z"/>
<path d="M63624 59800 c3 -14 59 -286 126 -605 67 -319 189 -913 271 -1319
130 -646 159 -781 159 -740 0 42 -535 2638 -551 2669 l-9 20 4 -25z"/>
<path d="M28740 59802 l0 -8 153 -13 c83 -7 168 -15 187 -18 l35 -5 -10 10
-10 10 -160 11 c-88 7 -168 15 -177 17 l-18 5 0 -9z"/>
<path d="M40960 59545 c7 -9 15 -13 17 -11 7 7 -7 26 -19 26 l-10 0 12 -15z"/>
<path d="M77830 59505 l-55 -14 -157 -1 -158 0 0 -10 0 -9 148 -3 147 -3 75
17 75 17 47 -10 48 -11 9 -36 c6 -20 19 -75 31 -122 28 -115 182 -684 187
-689 1 -2 6 -1 10 2 l6 7 -81 297 c-45 164 -93 347 -107 407 l-26 108 6 19 6
18 -38 11 c-21 6 -56 12 -78 15 l-40 4 -55 -14z"/>
<path d="M78100 59490 l0 -10 30 0 30 0 0 10 0 10 -30 0 -30 0 0 -10z"/>
<path d="M49431 59274 c-90 -118 -161 -218 -158 -220 2 -2 77 93 167 211 90
118 161 217 158 220 -2 3 -78 -92 -167 -211z"/>
<path d="M41020 59457 c8 -8 60 -43 114 -77 l99 -62 69 -29 c37 -15 68 -25 68
-21 0 4 -27 17 -59 30 l-59 23 -103 65 c-57 36 -112 70 -124 76 l-20 10 15
-15z"/>
<path d="M46981 59417 c-6 -8 -14 -28 -17 -45 l-6 -32 14 0 15 0 7 41 c7 47 4
56 -13 36z"/>
<path d="M47151 59394 l1 -19 5 13 5 13 -6 6 -6 6 1 -19z"/>
<path d="M44218 59326 l-18 -13 93 -89 c50 -49 127 -120 169 -158 l78 -68 15
6 c25 9 18 21 -42 72 -32 27 -108 97 -168 156 l-110 106 -17 -12z"/>
<path d="M86050 59330 l0 -13 7 6 6 7 -6 7 -7 6 0 -13z"/>
<path d="M57142 59300 c-5 -14 -40 -104 -77 -200 -37 -96 -71 -185 -76 -197
l-8 -22 8 -5 8 -6 83 214 82 214 -5 14 -5 13 -10 -25z"/>
<path d="M52955 59098 c-104 -77 -192 -145 -194 -151 l-4 -11 49 36 c27 19
112 81 189 138 77 56 147 108 155 116 l14 14 -9 -1 c-6 0 -95 -64 -200 -141z"/>
<path d="M40666 58902 c-55 -147 -119 -312 -143 -367 l-45 -100 -36 -38 c-20
-21 -65 -56 -99 -79 -58 -37 -77 -58 -53 -58 16 0 143 86 171 117 l27 28 37
74 c29 59 246 623 257 670 l3 14 -10 3 -10 4 -99 -268z"/>
<path d="M44601 59068 c0 -9 -4 -25 -7 -35 l-6 -18 12 18 11 18 -4 17 -5 17
-1 -17z"/>
<path d="M47836 58925 c-11 -8 -18 -17 -15 -19 2 -3 15 4 29 14 l25 20 -10 -1
c-5 0 -19 -6 -29 -14z"/>
<path d="M44677 58823 c32 -28 173 -109 173 -100 0 3 -46 33 -102 66 l-103 61
32 -27z"/>
<path d="M40707 58732 c-3 -4 -28 -70 -57 -147 l-51 -140 -24 -37 c-27 -41
-30 -48 -16 -48 16 0 57 74 89 160 17 47 42 115 56 153 l25 67 -9 0 c-5 0 -11
-3 -13 -8z"/>
<path d="M52191 58534 c-84 -63 -151 -118 -148 -120 5 -5 317 223 317 232 0
12 -27 -7 -169 -112z"/>
<path d="M45057 58549 c12 -13 30 -42 39 -64 l17 -40 8 -170 9 -170 11 -35
c18 -55 49 -111 85 -156 l34 -41 47 -25 48 -26 58 -12 59 -12 60 7 61 7 61 29
62 29 44 45 44 45 -7 6 -6 7 -55 -50 -54 -50 -62 -23 -62 -23 -81 1 -81 1 -62
31 -63 31 -29 37 c-16 20 -43 64 -60 98 l-31 61 -11 188 -12 188 -10 26 c-11
31 -36 59 -63 73 l-20 11 22 -24z"/>
<path d="M84478 58437 l-228 -102 3 -10 2 -10 10 3 c6 2 108 47 228 99 l217
96 0 13 c0 8 -1 14 -2 13 -2 0 -105 -47 -230 -102z"/>
<path d="M55481 58466 c8 -8 832 -227 836 -222 6 5 -21 13 -458 130 -324 87
-391 104 -378 92z"/>
<path d="M51740 58243 c-271 -201 -379 -287 -493 -391 l-98 -90 -30 -48 -31
-48 -14 -65 c-19 -89 -62 -200 -115 -293 l-44 -78 -48 -54 -47 -55 -103 -73
c-56 -41 -135 -94 -174 -117 l-72 -43 -27 -55 -27 -54 6 -96 7 -97 29 -30 c36
-38 60 -86 77 -151 l14 -50 0 -56 0 -55 -16 -55 -16 -54 -45 -70 -45 -70 -55
-56 -55 -57 10 -6 10 -6 46 41 46 40 53 82 54 82 16 49 17 50 0 80 0 81 -14
53 -14 52 -26 43 c-15 23 -35 54 -47 68 l-20 26 -2 84 -2 84 22 41 22 42 48
27 c26 15 103 66 171 113 l124 86 53 60 53 61 47 85 47 85 34 94 34 93 0 28 0
27 39 59 38 59 106 97 c117 108 265 226 497 397 85 63 159 118 165 122 l9 9
-9 9 -10 8 -195 -144z"/>
<path d="M40560 58331 c0 -6 19 -21 43 -34 l42 -25 49 -7 49 -7 106 13 c58 6
113 16 121 20 l15 8 -15 1 c-8 0 -61 -7 -117 -15 l-102 -14 -57 10 -57 11 -38
24 -39 24 0 -9z"/>
<path d="M39840 58282 c-142 -13 -159 -16 -147 -28 l5 -6 133 12 133 13 103
-6 103 -6 0 10 0 9 -17 1 c-10 0 -52 3 -93 7 l-75 7 -145 -13z"/>
<path d="M39000 58190 c-200 -30 -267 -45 -351 -81 l-54 -24 -152 -102 c-83
-57 -154 -103 -158 -103 -3 0 -43 -22 -88 -50 -45 -27 -108 -61 -139 -74 l-57
-25 -3 11 -4 10 -19 -4 -20 -4 32 -16 31 -16 75 33 c41 18 95 47 120 64 25 17
58 36 72 41 15 6 96 57 179 114 l151 103 70 31 70 30 75 16 c41 8 136 23 210
32 74 9 141 20 149 24 l14 7 -9 5 c-5 3 -92 -8 -194 -22z"/>
<path d="M45961 58127 l-11 -14 7 -6 6 -7 14 11 c15 13 17 29 4 29 -5 0 -14
-6 -20 -13z"/>
<path d="M45865 58040 l-18 -20 7 -7 7 -7 20 21 21 21 -10 6 -9 6 -18 -20z"/>
<path d="M64035 58010 c19 -96 176 -857 179 -865 l4 -10 1 14 c1 23 -168 844
-179 866 l-9 20 4 -25z"/>
<path d="M82874 57917 l-201 -52 4 -11 4 -11 177 44 c97 24 194 48 215 54 l37
10 0 9 0 10 -17 -1 c-10 0 -108 -24 -219 -52z"/>
<path d="M35762 57880 l-64 -9 -79 -26 -79 -27 0 -7 0 -8 78 27 77 28 108 12
109 12 66 -7 c36 -4 73 -9 81 -12 l16 -6 -13 14 -13 14 -112 2 -112 1 -63 -8z"/>
<path d="M50442 57854 c3 -3 107 -34 229 -68 123 -35 235 -66 249 -71 l25 -7
-10 10 -10 10 -237 66 c-131 36 -240 66 -244 66 l-7 0 5 -6z"/>
<path d="M82625 57805 c-66 -23 -379 -71 -920 -140 l-510 -66 -180 -34 c-205
-39 -240 -49 -347 -98 l-78 -36 0 -11 0 -11 23 7 c12 3 38 14 57 24 19 10 67
29 107 43 l71 26 159 30 158 31 545 69 c627 81 865 116 933 137 l47 16 0 14 0
14 -12 -1 c-7 0 -31 -7 -53 -14z"/>
<path d="M55476 57784 c-104 -13 -194 -25 -200 -28 l-11 -4 20 -1 c34 -1 416
47 422 53 l6 6 -24 -1 c-13 -1 -109 -12 -213 -25z"/>
<path d="M81570 57695 l-605 -82 -105 -27 -105 -27 -75 -32 c-121 -51 -248
-121 -352 -194 l-98 -68 -97 -90 -98 -90 -144 -161 c-79 -89 -144 -165 -143
-170 0 -5 4 -10 9 -11 l8 -3 130 146 c72 81 181 196 244 256 l114 108 91 63
c107 74 216 135 329 184 l82 35 110 29 110 29 600 80 c330 44 617 82 638 86
l37 6 -6 9 -5 9 -32 -1 c-18 -1 -304 -38 -637 -84z"/>
<path d="M55466 57744 c-98 -13 -184 -25 -190 -28 l-11 -4 19 -1 c28 -1 419
49 425 54 8 9 -64 3 -243 -21z"/>
<path d="M51168 57652 l-48 -3 0 -10 0 -9 58 0 57 0 158 -36 158 -37 6 7 c3 3
4 8 2 10 -2 2 -80 21 -174 42 l-170 39 -47 -3z"/>
<path d="M38040 57630 c0 -5 5 -10 10 -10 6 0 10 5 10 10 0 6 -4 10 -10 10 -5
0 -10 -4 -10 -10z"/>
<path d="M50978 57420 l-76 -158 -66 -69 -65 -70 -203 -128 c-188 -119 -274
-182 -263 -193 2 -3 19 8 37 24 18 16 124 87 235 157 l202 128 68 73 69 73 31
59 c38 72 116 254 111 259 -2 2 -38 -67 -80 -155z"/>
<path d="M80925 57478 c4 -18 19 -69 33 -113 l25 -80 96 -95 c98 -99 91 -83
-15 30 l-61 65 -26 70 c-15 39 -31 89 -37 113 -13 49 -25 57 -15 10z"/>
<path d="M33692 57355 l-20 -90 -7 -105 -7 -105 7 6 c3 4 10 58 15 121 l8 114
17 63 c9 35 14 68 12 74 l-4 12 -21 -90z"/>
<path d="M38095 57220 l4 -65 -45 -154 c-25 -84 -48 -161 -51 -170 l-6 -16 10
10 c5 6 31 84 58 174 l47 164 -10 61 -11 61 4 -65z"/>
<path d="M36558 56968 c-284 -268 -379 -360 -375 -365 4 -4 587 545 587 553 0
11 -22 -9 -212 -188z"/>
<path d="M27627 57143 l-6 -9 51 -114 51 -114 55 -75 c30 -42 84 -107 121
-144 l66 -69 73 -49 72 -50 83 -35 82 -35 85 -18 c47 -11 108 -22 135 -25 28
-4 62 -9 78 -12 l27 -6 0 10 0 10 -42 7 c-24 4 -99 18 -167 31 l-123 25 -77
38 c-42 21 -104 56 -137 78 l-59 41 -91 94 c-50 51 -108 117 -128 145 l-38 53
-50 112 c-56 126 -54 123 -61 111z"/>
<path d="M50073 56764 l-73 -66 0 -21 0 -22 80 80 c75 74 91 95 73 95 -5 0
-41 -30 -80 -66z"/>
<path d="M20687 56558 c-60 -117 -100 -202 -90 -189 25 34 212 401 204 401 -4
0 -55 -96 -114 -212z"/>
<path d="M50260 56741 l-11 -21 10 0 c10 0 24 30 17 37 -2 3 -9 -5 -16 -16z"/>
<path d="M79450 56580 l-45 -30 -80 -27 c-44 -15 -114 -33 -155 -40 l-75 -12
70 3 70 3 96 33 96 33 39 33 c49 41 43 43 -16 4z"/>
<path d="M78634 56555 l-51 -25 -31 -44 -32 -45 11 -6 c5 -4 11 -5 13 -4 1 2
14 21 29 41 l27 36 55 27 55 28 52 -7 c28 -4 59 -11 69 -17 l18 -9 6 10 6 9
-30 16 -30 15 -59 0 -58 0 -50 -25z"/>
<path d="M90542 56535 c-4 -9 -77 -85 -162 -170 l-153 -155 6 -7 7 -6 146 144
c80 79 154 156 165 171 l19 27 -9 6 -10 5 -9 -15z"/>
<path d="M26412 56415 c-14 -31 -15 -35 -2 -35 5 0 14 9 21 21 l11 21 -9 9
-10 10 -11 -26z"/>
<path d="M46646 56213 c18 -125 33 -229 33 -230 1 -1 7 0 14 3 l13 5 -30 222
-31 222 -16 3 -15 3 32 -228z"/>
<path d="M29040 56340 l0 -10 23 -5 c43 -10 412 -62 416 -59 13 11 -27 20
-197 45 -103 15 -199 30 -214 33 l-28 6 0 -10z"/>
<path d="M50189 56219 c0 -13 -4 -94 -8 -179 l-8 -155 7 -19 7 -20 7 194 c4
106 4 195 1 198 -3 3 -5 -6 -6 -19z"/>
<path d="M78913 56197 c-4 -7 -26 -24 -48 -38 l-40 -24 -66 1 -66 0 -37 22
c-43 26 -46 26 -46 9 l0 -13 33 -19 32 -20 87 0 86 0 44 30 43 31 3 17 3 17
-10 0 c-5 0 -14 -6 -18 -13z"/>
<path d="M63696 56141 l-20 -8 12 -7 12 -7 9 5 9 6 31 -11 30 -11 13 -34 c6
-19 16 -34 20 -34 12 0 10 18 -8 51 l-15 31 -34 14 c-19 8 -36 14 -37 13 -2 0
-12 -4 -22 -8z"/>
<path d="M63632 56023 c2 -9 8 -18 15 -20 l11 -4 -5 20 -5 21 -10 0 -9 0 3
-17z"/>
<path d="M63660 55980 c0 -6 7 -13 15 -17 l16 -5 7 6 6 7 -14 9 c-20 13 -30
12 -30 0z"/>
<path d="M37740 55713 l-23 -198 -33 -33 -32 -32 9 -6 10 -6 29 32 30 32 0 17
c1 9 11 100 23 204 l23 187 -6 0 -7 0 -23 -197z"/>
<path d="M30850 55833 c0 -5 95 -71 210 -147 l210 -139 7 6 c3 4 4 8 2 10 -38
30 -411 277 -419 277 -5 0 -10 -3 -10 -7z"/>
<path d="M50195 55750 l6 -55 39 -82 39 -83 54 -68 54 -68 69 -60 c86 -75 148
-118 196 -133 l37 -12 17 9 16 9 -40 7 -41 6 -68 46 c-87 60 -165 132 -229
214 l-51 65 -35 70 -36 70 -7 45 c-4 25 -11 52 -17 60 l-9 15 6 -55z"/>
<path d="M25805 55552 c-43 -64 -104 -149 -136 -187 l-57 -71 -98 -90 c-55
-50 -134 -118 -177 -151 l-78 -61 10 -6 9 -6 103 82 104 82 105 105 106 106
102 152 102 152 -9 5 -8 5 -78 -117z"/>
<path d="M31310 55595 c0 -3 93 -67 206 -141 l206 -135 11 4 12 4 -208 136
c-191 126 -227 147 -227 132z"/>
<path d="M44261 55444 c-78 -70 -140 -129 -137 -131 3 -3 65 48 138 113 73 64
137 121 142 126 5 4 7 10 5 13 -3 2 -69 -52 -148 -121z"/>
<path d="M50360 55484 c0 -26 218 -212 298 -253 l24 -13 6 6 5 6 -10 0 c-18 0
-186 131 -255 199 l-68 65 0 -10z"/>
<path d="M36130 55317 c60 -60 322 -287 331 -287 11 0 -327 303 -345 309 -6 2
0 -8 14 -22z"/>
<path d="M31710 55271 c0 -8 376 -256 398 -264 4 -1 7 2 7 8 l0 10 -198 127
c-110 71 -201 128 -203 128 -2 0 -4 -4 -4 -9z"/>
<path d="M35074 55119 c-16 -17 -86 -75 -155 -128 l-126 -96 -197 -125 c-108
-69 -309 -198 -447 -288 l-250 -162 -78 -39 -78 -40 -38 -50 c-22 -28 -43 -51
-47 -51 l-7 0 5 -29 6 -28 -16 -32 -17 -31 -11 0 -12 0 12 -12 12 -12 20 19
c10 10 22 27 26 37 l6 20 57 -55 56 -56 194 -130 194 -130 9 5 9 6 -193 130
-193 130 -58 56 c-32 32 -63 65 -68 75 l-10 18 42 50 42 50 68 35 c38 18 190
114 339 211 150 98 364 238 478 311 113 74 244 163 291 200 92 70 181 151 181
164 0 16 -17 7 -46 -23z"/>
<path d="M55201 54864 c-40 -124 -70 -228 -67 -231 2 -3 27 66 55 154 28 87
62 191 75 231 l25 72 -8 0 -7 0 -73 -226z"/>
<path d="M45680 55003 c0 -4 23 -28 51 -52 l52 -44 -7 -91 c-4 -50 -10 -111
-13 -136 l-6 -45 7 7 c4 3 13 60 20 126 l12 121 -7 19 -7 19 -51 42 c-28 24
-51 39 -51 34z"/>
<path d="M82245 54971 l-130 -37 -26 -17 c-14 -9 -36 -31 -49 -49 l-24 -33 41
37 c56 49 59 51 213 93 74 20 137 39 139 41 11 11 -46 -1 -164 -35z"/>
<path d="M51026 54964 c-26 -9 -46 -17 -43 -20 5 -6 117 25 117 32 0 7 -23 3
-74 -12z"/>
<path d="M52300 54963 c1 -10 361 -245 367 -239 4 3 -258 180 -354 240 l-13 7
0 -8z"/>
<path d="M53202 54904 c-15 -25 -80 -125 -145 -223 l-118 -176 -10 3 c-5 1
-71 43 -145 92 -73 50 -134 87 -134 83 0 -5 63 -50 140 -100 l139 -93 -53 -77
c-30 -43 -131 -198 -224 -345 -94 -147 -198 -304 -232 -348 -33 -44 -57 -80
-53 -80 16 0 162 207 313 445 84 132 177 275 207 318 l55 78 24 -16 c35 -23
43 -18 11 8 l-28 22 118 176 c65 97 132 199 150 228 l32 51 -10 0 c-5 0 -22
-21 -37 -46z"/>
<path d="M53286 54930 c3 -14 7 -34 7 -45 l1 -20 -372 -564 c-372 -562 -418
-637 -453 -740 -23 -65 -23 -67 -5 -52 l14 12 6 34 7 35 40 78 41 77 375 567
374 567 -21 38 -21 38 7 -25z"/>
<path d="M47673 54914 l-6 -15 6 -52 6 -52 34 -80 c18 -44 37 -89 41 -99 3
-10 9 -17 11 -14 3 2 -16 56 -41 119 l-46 114 5 48 c6 47 2 61 -10 31z"/>
<path d="M47110 54886 c-12 -32 -10 -61 4 -61 l10 0 7 29 8 29 -9 16 -9 16
-11 -29z"/>
<path d="M52222 54698 c-73 -110 -132 -202 -129 -204 2 -2 64 86 137 196 73
110 131 202 129 204 -2 2 -64 -86 -137 -196z"/>
<path d="M50819 54835 c20 -38 86 -103 181 -177 102 -79 120 -92 120 -84 0 3
-44 40 -97 82 -54 42 -124 104 -156 138 l-58 61 10 -20z"/>
<path d="M32570 54778 l1 -13 171 -110 c94 -60 188 -121 209 -134 l39 -23 0
14 0 14 -204 132 c-113 73 -207 132 -210 132 -3 0 -6 -6 -6 -12z"/>
<path d="M88595 54539 l-409 -219 -10 18 c-5 9 -19 24 -30 33 l-21 17 -34 6
-34 5 -19 -10 -20 -11 7 -6 c3 -3 23 -5 45 -3 l39 2 26 -17 26 -17 -4 -19 -5
-18 10 -6 10 -6 -7 -27 c-4 -14 -14 -34 -22 -44 l-16 -17 7 -8 8 -7 19 24 c11
13 22 35 25 50 3 14 8 32 12 39 l7 13 395 211 c217 115 399 214 404 219 34 31
-45 -7 -409 -202z"/>
<path d="M48051 54725 c6 -14 75 -149 171 -333 44 -84 82 -151 85 -149 5 5
-234 467 -249 482 l-10 10 3 -10z"/>
<path d="M49224 54648 c45 -101 90 -188 98 -188 l8 0 -60 120 c-61 122 -89
162 -46 68z"/>
<path d="M18018 54594 l-6 -10 86 -213 87 -214 11 -4 11 -4 -83 208 c-46 114
-88 217 -92 227 l-8 20 -6 -10z"/>
<path d="M51885 54403 c-165 -215 -178 -233 -168 -232 4 0 24 21 43 47 20 26
85 111 144 190 60 78 107 144 105 147 -3 2 -59 -66 -124 -152z"/>
<path d="M4824 54508 c-3 -5 -4 -11 -3 -12 2 -2 104 -33 226 -68 l222 -65 5
13 5 12 -42 11 c-23 6 -124 35 -225 65 l-182 54 -6 -10z"/>
<path d="M52996 54495 c10 -8 24 -14 29 -14 l10 0 -19 14 c-11 8 -24 15 -30
15 l-10 0 20 -15z"/>
<path d="M53615 54304 c-58 -86 -104 -158 -101 -161 2 -3 33 37 67 89 35 51
84 123 111 161 l48 67 -9 0 c-5 0 -57 -70 -116 -156z"/>
<path d="M88006 54212 l-5 -9 33 -18 33 -18 26 7 27 6 0 10 0 10 -29 -6 -29
-6 -25 17 -25 16 -6 -9z"/>
<path d="M33491 54183 l-32 -28 -6 -43 -6 -43 -26 -49 -26 -49 -154 -123 -154
-122 12 -4 11 -4 153 122 152 121 18 40 18 40 37 -31 c35 -29 62 -39 62 -22 0
4 -14 15 -30 24 l-30 17 -10 26 c-6 15 -10 38 -10 51 l0 26 29 29 29 29 26 0
25 0 6 10 6 10 -33 0 -34 0 -33 -27z"/>
<path d="M33600 54193 c0 -5 12 -16 26 -26 l25 -19 7 7 7 7 -24 19 c-24 20
-41 25 -41 12z"/>
<path d="M51260 54120 c0 -11 190 -180 203 -180 5 0 7 4 5 8 -4 10 -197 182
-203 182 -3 0 -5 -4 -5 -10z"/>
<path d="M47888 54022 c-59 -26 -108 -50 -108 -54 0 -8 211 79 225 93 l9 9 -9
-1 c-6 -1 -58 -22 -117 -47z"/>
<path d="M87370 53838 c-107 -76 -199 -143 -204 -148 l-10 -10 6 -5 5 -6 199
141 c110 78 203 145 207 150 l9 8 -9 5 -8 5 -195 -140z"/>
<path d="M31207 53926 l-5 -34 -82 -193 c-45 -107 -85 -201 -88 -209 l-5 -15
10 10 c16 15 171 387 182 434 l9 41 -8 0 -7 0 -6 -34z"/>
<path d="M9450 53906 l0 -13 118 -17 c64 -10 167 -30 229 -45 l112 -28 4 11 4
11 -81 23 c-45 12 -139 31 -211 42 -71 11 -140 22 -152 25 l-23 5 0 -14z"/>
<path d="M23220 53801 c47 -51 113 -123 146 -159 34 -37 64 -65 67 -62 6 6
-269 303 -286 309 -6 2 26 -37 73 -88z"/>
<path d="M19950 53873 c78 -3 299 -22 355 -29 l40 -6 -10 10 -10 9 -135 12
c-74 6 -173 10 -220 9 l-85 -2 65 -3z"/>
<path d="M7080 53771 l0 -9 53 -12 c86 -19 206 -30 320 -30 l107 0 0 13 0 12
-153 2 -152 2 -73 15 c-40 9 -80 16 -88 16 l-14 0 0 -9z"/>
<path d="M54070 53742 c0 -8 184 -135 285 -197 l30 -19 -15 16 c-8 8 -79 59
-157 112 l-143 97 0 -9z"/>
<path d="M34170 53646 c8 -8 89 -67 180 -130 91 -63 168 -119 172 -123 24 -24
88 -114 102 -141 l16 -31 0 -35 0 -35 -31 -36 -31 -35 -17 0 c-18 -1 -211 -68
-197 -69 5 -1 51 13 103 29 51 17 101 30 111 30 l17 1 29 24 29 23 5 56 4 55
-21 42 c-12 23 -39 62 -59 86 l-37 44 -183 129 c-100 72 -188 130 -194 130
l-12 0 14 -14z"/>
<path d="M9205 53594 c-16 -2 -55 -9 -85 -15 l-55 -10 -287 -106 c-159 -59
-288 -110 -288 -114 0 -3 123 40 274 96 l274 102 73 16 c41 8 102 18 137 21
l63 6 36 -15 c20 -8 38 -13 41 -10 3 2 -11 12 -31 20 l-36 15 -43 -1 c-24 -1
-56 -4 -73 -5z"/>
<path d="M58235 53489 l-70 -79 -81 -65 c-45 -35 -98 -72 -118 -81 -20 -10
-36 -21 -36 -26 l0 -8 43 21 c23 12 72 45 108 73 l66 51 81 88 c45 49 82 93
82 98 0 13 1 14 -75 -72z"/>
<path d="M50080 53455 l-174 -92 -4 -13 -5 -13 179 93 c99 51 183 96 187 100
l9 8 -9 4 -8 4 -175 -91z"/>
<path d="M52383 53469 c3 -9 22 -55 43 -102 l37 -87 -17 -19 -17 -19 -90 -7
-89 -7 0 -7 0 -7 93 8 92 9 22 24 22 25 -43 95 c-24 53 -47 99 -51 103 l-8 7
6 -16z"/>
<path d="M54711 53325 c-24 -86 -208 -691 -216 -710 l-8 -20 13 12 12 11 109
363 c60 200 108 368 106 374 l-4 10 -12 -40z"/>
<path d="M6615 53248 l-280 -19 -58 11 c-32 6 -65 14 -74 17 l-16 6 6 -10 6
-10 62 -13 61 -13 291 18 291 17 105 -5 106 -5 -50 8 c-27 4 -77 10 -110 12
l-60 5 -280 -19z"/>
<path d="M52471 53236 l-32 -33 -76 -7 -76 -7 -8 13 -9 13 0 -12 0 -12 -17 -4
-18 -4 24 -10 23 -9 58 -127 c57 -122 109 -221 115 -215 2 2 -34 80 -81 173
-46 94 -83 173 -84 176 0 3 35 9 77 13 l78 6 34 35 c19 19 33 37 30 40 -3 2
-20 -10 -38 -29z"/>
<path d="M53625 53216 c-72 -28 -397 -198 -391 -204 3 -2 87 39 188 91 101 52
202 101 226 108 l42 12 0 9 c0 10 6 11 -65 -16z"/>
<path d="M12734 52879 c-115 -166 -210 -305 -212 -310 l-4 -9 10 0 10 0 211
304 c116 168 211 307 211 310 0 24 -42 -31 -226 -295z"/>
<path d="M34809 53165 c-9 -14 -21 -85 -15 -85 12 0 138 31 161 40 l25 10 0 9
0 10 -38 -13 c-20 -7 -56 -17 -79 -20 l-42 -8 -3 34 -3 33 -6 -10z"/>
<path d="M52125 53128 c14 -24 59 -108 98 -188 40 -80 73 -147 75 -149 1 -2 5
-1 9 2 l6 7 -48 103 c-27 56 -69 139 -94 184 l-46 82 -13 1 -13 0 26 -42z"/>
<path d="M31685 53012 c-245 -220 -260 -234 -248 -230 30 8 404 351 381 348
-2 -1 -62 -53 -133 -118z"/>
<path d="M86159 52948 c-90 -67 -193 -140 -229 -163 -36 -23 -71 -49 -79 -59
l-14 -16 7 -7 6 -7 28 26 c15 13 45 36 67 49 22 13 120 83 218 155 l178 132
-9 6 -9 6 -164 -122z"/>
<path d="M46796 53028 c-3 -13 -6 -66 -6 -118 l0 -95 -14 -82 -15 -82 -16 -30
c-8 -17 -13 -31 -10 -31 2 0 14 18 25 39 l20 39 9 69 c11 76 24 313 17 313 -2
0 -6 -10 -10 -22z"/>
<path d="M49338 52948 c10 -18 38 -68 62 -111 23 -43 44 -76 46 -74 7 6 -109
217 -119 217 l-9 0 20 -32z"/>
<path d="M55093 52801 c-51 -98 -93 -182 -93 -185 0 -3 6 -6 13 -6 l12 0 88
175 c48 96 87 180 87 185 0 30 -24 -8 -107 -169z"/>
<path d="M49165 52952 c-16 -10 -156 -83 -310 -161 l-280 -143 -27 -26 -28
-26 0 -14 0 -14 36 31 35 32 137 69 c75 38 217 112 315 163 l177 94 -7 6 c-9
10 -15 9 -48 -11z"/>
<path d="M53030 52837 c-113 -56 -208 -106 -212 -111 l-7 -10 14 -10 c21 -17
157 -282 360 -703 105 -216 193 -393 197 -393 9 0 -97 222 -335 700 -111 223
-203 407 -205 410 -1 3 61 37 139 75 156 78 279 145 264 144 -5 0 -102 -46
-215 -102z"/>
<path d="M51456 52889 l-6 -31 -90 -41 c-49 -23 -90 -45 -90 -50 l0 -7 92 46
93 47 12 16 c7 9 13 24 13 34 l0 17 -9 0 -8 0 -7 -31z"/>
<path d="M55353 52913 l-23 -4 0 -15 0 -15 20 5 c11 3 28 8 39 11 l18 5 129
-21 c155 -25 264 -50 364 -84 l74 -25 9 9 9 9 -9 5 c-22 12 -178 59 -258 76
-191 42 -310 56 -372 44z"/>
<path d="M56091 52860 l-22 -31 -34 -16 -33 -16 5 -14 5 -13 36 22 c36 22 91
77 92 91 0 4 -6 7 -13 7 l-13 0 -23 -30z"/>
<path d="M48362 52766 c6 -14 15 -26 20 -26 l9 0 -11 19 c-5 11 -15 23 -20 26
l-10 6 12 -25z"/>
<path d="M52651 52645 l-114 -55 5 -6 6 -5 111 55 c61 31 111 58 111 61 0 7 6
10 -119 -50z"/>
<path d="M85805 52671 l-6 -19 -23 -6 c-12 -3 -45 -23 -72 -44 -27 -21 -109
-84 -183 -140 -73 -56 -129 -102 -124 -102 6 0 90 60 187 134 l176 135 29 6
28 6 11 24 12 25 -15 0 -14 0 -6 -19z"/>
<path d="M48199 52633 c-1 -4 0 -26 1 -48 l2 -40 14 -27 14 -26 31 -22 31 -22
9 9 10 10 -23 19 c-13 11 -31 31 -40 45 l-17 26 -3 38 -3 38 -12 5 -13 4 -1
-9z"/>
<path d="M48160 52586 l-25 -25 -338 -175 -339 -174 11 -6 10 -7 338 170 338
169 18 20 19 21 -4 16 -3 16 -25 -25z"/>
<path d="M85790 52590 l0 -20 10 0 10 0 0 20 0 20 -10 0 -10 0 0 -20z"/>
<path d="M85653 52512 c-65 -48 -144 -107 -176 -131 -32 -23 -56 -45 -54 -47
5 -5 357 253 357 261 0 10 -13 2 -127 -83z"/>
<path d="M48477 52557 l-5 -14 9 -14 9 -14 10 15 c5 8 10 21 10 28 l0 12 -14
0 -14 0 -5 -13z"/>
<path d="M50777 52547 c-3 -7 -3 -25 0 -40 l5 -26 14 -12 14 -11 0 10 c0 6 -5
14 -11 18 l-11 6 4 34 4 34 -7 0 c-4 0 -9 -6 -12 -13z"/>
<path d="M21625 52300 c-4 -122 -5 -223 -2 -226 3 -3 8 70 11 163 3 92 8 194
10 226 l4 57 -8 0 -8 0 -7 -220z"/>
<path d="M48398 52476 l-17 -12 8 -12 8 -13 16 7 17 6 0 13 c0 20 -13 25 -32
11z"/>
<path d="M30923 52337 c-59 -51 -120 -98 -135 -104 l-27 -12 -75 -7 -76 -7 0
-6 0 -7 78 8 c43 4 90 11 104 17 l25 9 112 97 c102 88 119 105 106 105 -2 0
-53 -42 -112 -93z"/>
<path d="M48420 52195 c52 -107 98 -195 102 -195 10 0 -176 383 -187 387 l-10
3 95 -195z"/>
<path d="M54689 52132 c-58 -31 -135 -72 -172 -89 l-67 -33 0 25 c0 13 -5 35
-11 48 l-11 25 -25 11 c-13 6 -37 11 -53 11 l-28 0 -31 -26 -31 -26 0 -34 0
-34 10 0 10 0 0 23 0 24 23 20 c12 11 30 23 40 26 l18 7 31 -16 31 -16 -6 -49
-6 -48 8 -6 9 -5 177 90 c180 91 205 106 205 121 0 15 -11 10 -121 -49z"/>
<path d="M89020 52110 l0 -10 15 0 15 0 0 10 0 10 -15 0 -15 0 0 -10z"/>
<path d="M54265 51991 l-5 -9 26 -21 c45 -35 65 -17 22 20 -26 21 -34 23 -43
10z"/>
<path d="M13228 51889 c-14 -19 -55 -76 -91 -128 l-67 -94 6 -9 6 -9 90 126
89 126 -3 11 -4 12 -26 -35z"/>
<path d="M58126 51831 l-6 -9 199 -111 c195 -108 221 -120 221 -102 l0 9 -200
111 c-111 61 -203 111 -205 111 -2 0 -6 -4 -9 -9z"/>
<path d="M46474 51732 l-191 -97 4 -12 4 -12 192 95 c106 53 194 98 196 100 3
3 0 8 -5 13 l-9 9 -191 -96z"/>
<path d="M18510 51788 c0 -26 -57 -266 -84 -358 -33 -107 -37 -137 -17 -114
14 15 77 240 100 353 l21 105 -10 10 c-5 5 -10 7 -10 4z"/>
<path d="M90752 51593 c-102 -190 -104 -193 -98 -193 5 0 46 74 131 233 31 59
54 107 52 107 -3 0 -41 -66 -85 -147z"/>
<path d="M34305 51648 c-3 -46 -15 -123 -25 -171 l-18 -88 12 4 11 4 16 89
c10 49 20 124 24 167 l7 77 -10 0 -9 0 -8 -82z"/>
<path d="M13686 51712 l-5 -9 179 -121 178 -122 4 12 5 13 -173 117 c-95 65
-175 118 -178 118 -3 0 -7 -4 -10 -8z"/>
<path d="M58607 51697 l-5 -13 198 -102 c108 -56 202 -102 209 -102 32 0 -4
23 -161 104 -95 49 -187 97 -204 108 l-32 18 -5 -13z"/>
<path d="M21636 51460 c-4 -91 -6 -183 -4 -205 l3 -40 9 185 c4 102 6 195 4
205 l-4 20 -8 -165z"/>
<path d="M37500 51561 c0 -12 67 -410 76 -450 3 -13 7 -21 9 -19 5 5 -72 468
-79 476 l-6 5 0 -12z"/>
<path d="M88037 51322 l-179 -136 12 -4 11 -4 175 133 c96 73 177 136 180 141
l5 8 -13 -1 c-7 0 -93 -62 -191 -137z"/>
<path d="M88078 51284 l-178 -134 0 -11 0 -10 13 7 c6 5 90 66 185 137 152
115 191 149 165 146 -5 0 -88 -61 -185 -135z"/>
<path d="M22416 51338 c-3 -24 -7 -71 -10 -105 l-4 -63 8 0 9 0 5 33 c3 17 7
65 10 105 l5 72 -9 0 -9 0 -5 -42z"/>
<path d="M34049 51309 l-11 -21 9 -9 9 -9 11 30 11 30 -9 0 c-4 0 -13 -9 -20
-21z"/>
<path d="M83600 50759 c-393 -303 -721 -557 -729 -564 l-15 -15 6 -5 5 -6 724
557 c398 306 728 560 732 564 l9 8 -9 5 -8 5 -715 -549z"/>
<path d="M33470 51272 l0 -8 183 3 c252 5 261 10 20 12 l-203 1 0 -8z"/>
<path d="M45816 51230 l6 -35 19 -26 19 -27 47 -30 48 -30 55 -11 c30 -7 96
-14 145 -17 l90 -5 101 9 101 9 67 -8 67 -8 59 -32 58 -31 77 -70 c42 -39 78
-68 81 -65 3 2 -30 37 -73 76 l-78 72 -55 30 -55 30 -72 10 -72 10 -108 -9
-108 -9 -100 7 -100 7 -45 13 -44 12 -44 30 -44 30 -25 52 -24 51 7 -35z"/>
<path d="M84014 51007 c-181 -139 -426 -327 -545 -418 -372 -282 -578 -444
-579 -453 l0 -8 13 5 c7 3 95 67 194 143 99 77 257 198 351 269 472 361 911
701 911 708 1 4 -3 7 -8 7 -5 0 -156 -114 -337 -253z"/>
<path d="M19320 51243 l0 -10 223 -10 222 -10 8 7 9 8 -44 5 c-24 4 -127 9
-230 13 l-188 7 0 -10z"/>
<path d="M20690 51230 l0 -10 58 0 c31 0 300 -9 597 -19 l540 -18 123 5 122 4
0 11 0 10 -122 -6 -123 -5 -540 19 c-297 10 -566 19 -597 19 l-58 0 0 -10z"/>
<path d="M21623 51173 l7 -6 7 6 6 7 -13 0 -13 0 6 -7z"/>
<path d="M22130 51147 l0 -17 133 0 c73 0 225 -5 337 -10 113 -6 276 -12 363
-13 l157 -2 0 6 c0 12 -77 19 -230 19 -85 1 -200 5 -255 10 -55 5 -191 12
-302 16 l-203 7 0 -16z"/>
<path d="M22346 51048 c-3 -40 -8 -132 -11 -205 l-6 -131 9 -6 10 -6 6 128 c3
70 8 164 11 210 l5 82 -9 0 -9 0 -6 -72z"/>
<path d="M44895 51085 c17 -14 35 -25 40 -25 l10 1 -30 24 c-16 14 -34 25 -40
25 l-10 -1 30 -24z"/>
<path d="M26350 51021 l0 -8 93 -7 c50 -3 214 -11 362 -17 149 -6 401 -16 560
-23 160 -8 292 -12 294 -10 2 2 2 7 -2 10 l-6 6 -398 19 c-219 10 -481 23
-583 28 -102 6 -215 11 -252 11 l-68 0 0 -9z"/>
<path d="M26775 50744 c-4 -96 -5 -177 -2 -180 3 -3 8 57 11 133 4 76 8 157
10 181 l4 42 -8 0 -8 0 -7 -176z"/>
<path d="M27660 50913 l0 -10 103 -6 c56 -4 173 -9 260 -13 l157 -7 0 10 0 10
-162 7 c-90 4 -207 9 -260 13 l-98 6 0 -10z"/>
<path d="M28395 50868 c3 -13 9 -33 12 -45 l5 -23 9 0 9 0 0 20 c0 25 -21 70
-33 70 l-9 0 7 -22z"/>
<path d="M46893 50837 c-17 -7 -35 -16 -40 -21 l-8 -9 20 7 c11 4 34 10 52 13
l32 5 35 -6 35 -7 53 -35 c29 -20 75 -59 101 -88 l48 -51 -10 20 c-5 11 -32
44 -60 72 l-50 51 -62 31 -62 31 -26 -1 c-14 0 -40 -6 -58 -12z"/>
<path d="M5710 50824 l0 -14 9 0 c5 0 107 -12 226 -26 l217 -26 6 6 5 6 -6 7
c-4 3 -94 17 -200 29 -105 13 -207 25 -224 28 l-33 5 0 -15z"/>
<path d="M7300 50744 c-19 -2 -72 -9 -117 -15 l-83 -11 0 -10 0 -11 38 7 c20
4 93 11 162 16 l125 10 68 -6 67 -7 0 10 0 10 -61 7 c-61 6 -130 6 -199 0z"/>
<path d="M82743 50605 c3 -11 13 -58 22 -105 27 -140 73 -315 81 -307 2 2 -9
55 -25 118 -16 63 -37 155 -46 204 l-18 90 -10 10 -9 10 5 -20z"/>
<path d="M82780 50618 c0 -15 71 -319 83 -358 l15 -45 1 16 c1 9 -6 38 -14 64
-8 27 -26 107 -41 179 -15 72 -31 135 -36 141 -4 5 -8 7 -8 3z"/>
<path d="M8960 50561 l0 -8 123 -43 122 -42 93 -48 93 -47 4 7 c7 11 -4 19
-95 61 -66 31 -321 129 -337 129 -2 0 -3 -4 -3 -9z"/>
<path d="M35851 50447 c-2 -15 70 -481 74 -486 8 -7 6 6 -25 230 -26 182 -46
286 -49 256z"/>
<path d="M33610 50384 c0 -22 61 -388 65 -393 3 -2 5 2 5 10 0 29 -58 381 -64
386 l-6 6 0 -9z"/>
<path d="M22352 49953 c-7 -159 -17 -495 -22 -748 -6 -253 -17 -693 -26 -978
l-16 -518 6 -6 c3 -4 8 -4 10 -2 8 9 38 959 46 1464 5 292 14 618 19 725 6
107 11 230 11 273 l0 77 -8 0 -8 0 -12 -287z"/>
<path d="M44118 49997 c-114 -62 -208 -115 -208 -118 0 -6 417 215 429 227 18
17 -43 -13 -221 -109z"/>
<path d="M34310 50094 c0 -10 66 -97 89 -118 l21 -19 6 6 7 6 -36 40 c-19 22
-43 51 -52 65 -16 24 -35 35 -35 20z"/>
<path d="M37068 50082 l-208 -15 0 -9 0 -9 18 5 c9 2 107 10 217 16 l200 13
10 8 9 9 -19 -1 c-11 -1 -113 -9 -227 -17z"/>
<path d="M31865 49874 l-570 -33 -1014 -41 c-558 -22 -1017 -42 -1019 -45 -3
-3 -3 -7 0 -10 2 -3 452 13 999 35 l994 40 650 36 650 36 10 9 9 9 -69 -1
c-39 -1 -326 -17 -640 -35z"/>
<path d="M82450 49806 c-58 -45 -172 -133 -255 -196 -82 -62 -257 -196 -388
-298 l-238 -185 -61 -67 c-33 -36 -96 -95 -139 -131 l-78 -64 -97 -50 -98 -50
-3 -12 -4 -12 108 51 108 51 76 63 c42 35 108 99 147 142 l71 78 153 117 c252
193 475 364 652 501 l166 128 -6 9 c-7 11 6 20 -114 -75z"/>
<path d="M32110 49835 l-375 -21 19 -9 18 -8 322 17 c176 9 356 20 399 23 l77
6 0 8 0 9 -42 -1 c-24 -1 -212 -12 -418 -24z"/>
<path d="M22287 49653 c-4 -71 -7 -218 -7 -328 -1 -110 -11 -519 -24 -910 -13
-390 -22 -712 -20 -714 2 -2 7 -1 10 2 l7 6 22 723 c13 398 25 864 28 1036 l6
312 -8 0 -8 0 -6 -127z"/>
<path d="M31727 49586 c3 -109 9 -222 13 -250 l8 -51 -5 160 c-3 88 -9 201
-14 250 l-7 90 5 -199z"/>
<path d="M17705 49760 l-6 -9 38 -10 c511 -138 653 -190 830 -305 l68 -44 392
-377 392 -377 80 -94 80 -93 57 -96 c52 -88 74 -112 74 -84 0 7 -28 57 -62
113 l-62 101 -70 83 -71 83 -390 376 -390 376 -70 47 c-151 102 -286 156 -620
250 -137 38 -253 70 -257 70 -4 0 -9 -4 -13 -10z"/>
<path d="M26926 49741 l-5 -8 172 -7 c94 -4 240 -11 322 -16 83 -5 258 -12
390 -16 132 -3 311 -9 398 -13 l159 -6 4 6 4 7 -193 6 c-105 4 -280 11 -387
16 -107 5 -332 14 -500 20 -168 6 -317 12 -332 15 l-27 4 -5 -8z"/>
<path d="M30506 49493 l7 -228 9 -20 9 -20 -6 184 c-3 101 -5 213 -5 248 l0
63 -11 0 -10 0 7 -227z"/>
<path d="M49964 49686 l-19 -14 7 -7 6 -7 21 12 c21 11 29 30 13 30 -5 0 -17
-6 -28 -14z"/>
<path d="M82030 49552 l-164 -126 12 -4 11 -3 153 116 c84 65 157 121 161 125
l9 8 -9 5 -8 5 -165 -126z"/>
<path d="M27801 49660 l26 -7 274 -6 274 -5 -130 8 c-71 4 -206 10 -300 13
l-170 5 26 -8z"/>
<path d="M49805 49537 c37 -85 71 -151 130 -252 29 -49 92 -157 141 -240 48
-82 135 -222 194 -310 58 -88 122 -188 141 -222 l34 -63 12 0 c6 0 14 3 16 8
l5 7 -57 100 c-31 55 -100 163 -152 240 -90 134 -155 240 -359 585 -50 85
-100 166 -111 180 l-19 25 25 -58z"/>
<path d="M28376 49403 c-3 -82 -8 -194 -11 -250 l-5 -103 9 0 9 0 6 73 c3 39
8 152 11 250 l6 177 -9 0 -10 0 -6 -147z"/>
<path d="M33763 49465 c3 -11 18 -110 33 -220 l27 -200 10 -10 9 -10 -5 20
c-3 11 -18 110 -33 220 l-27 200 -10 10 -9 10 5 -20z"/>
<path d="M45735 49187 c-61 -25 -58 -23 -51 -36 l7 -10 45 19 46 20 28 0 28 0
30 -25 31 -26 5 9 5 9 -27 25 -27 26 -35 5 -35 5 -50 -21z"/>
<path d="M64320 49051 c-13 -26 -13 -53 3 -74 l12 -17 0 55 c0 30 -1 55 -2 55
-1 0 -7 -9 -13 -19z"/>
<path d="M64722 49013 l3 -18 75 -37 75 -38 95 -24 c52 -13 114 -27 138 -31
l42 -7 0 16 0 16 -17 0 c-10 0 -72 14 -138 30 l-120 31 -78 40 -79 40 4 -18z"/>
<path d="M64721 48962 l-1 -24 -21 -29 -20 -29 9 0 c5 0 17 12 26 26 l17 25
-4 27 -4 27 -2 -23z"/>
<path d="M91408 48732 c-75 -86 -153 -179 -174 -207 -21 -27 -109 -125 -197
-217 -88 -93 -155 -168 -151 -168 14 0 314 317 369 390 41 53 169 204 279 327
10 13 17 25 15 27 -2 3 -66 -66 -141 -152z"/>
<path d="M91439 48708 c-68 -78 -153 -178 -188 -223 -35 -44 -124 -141 -198
-216 -73 -75 -133 -141 -133 -145 0 -5 54 45 121 111 l121 120 81 100 c73 91
242 288 305 357 14 15 23 30 20 33 -2 3 -61 -59 -129 -137z"/>
<path d="M46648 48776 l-87 -42 -145 -49 -146 -48 0 -9 c0 -4 6 -8 14 -8 28 0
292 92 379 132 l87 41 0 13 c0 19 -3 18 -102 -30z"/>
<path d="M41316 48624 c-10 -9 -22 -29 -27 -43 l-10 -25 6 -23 5 -23 10 0 10
0 0 26 c0 26 16 65 31 74 l8 6 -8 13 -8 12 -17 -17z"/>
<path d="M34098 48616 l-206 -11 -8 -8 -8 -8 89 6 c50 3 170 10 269 15 98 5
181 12 184 15 7 6 -61 5 -320 -9z"/>
<path d="M34485 48590 l-6 -10 20 0 20 0 6 10 6 10 -20 0 -20 0 -6 -10z"/>
<path d="M34205 48583 c-27 -2 -212 -12 -410 -24 -198 -11 -362 -23 -364 -25
-7 -6 69 -5 244 5 88 5 286 15 440 22 l280 12 20 8 20 8 -90 -1 c-49 -1 -112
-3 -140 -5z"/>
<path d="M41314 48468 c7 -13 25 -59 39 -103 l25 -80 46 -340 c26 -187 54
-402 63 -477 l16 -138 13 0 14 0 -5 28 c-3 15 -12 80 -20 145 l-16 118 6 8 5
9 -30 198 c-16 110 -38 260 -50 334 l-20 135 -26 80 c-29 87 -39 105 -60 105
l-14 0 14 -22z"/>
<path d="M66805 48400 c-4 -6 -5 -12 -4 -14 2 -1 367 -76 811 -165 l806 -162
47 3 47 3 -839 169 c-461 93 -843 171 -849 173 l-12 4 -7 -11z"/>
<path d="M19930 48225 c113 -30 446 -115 740 -189 294 -75 762 -196 1040 -270
439 -116 529 -138 509 -123 -23 18 -2434 637 -2474 636 -11 0 72 -25 185 -54z"/>
<path d="M20120 48142 c0 -5 263 -77 405 -110 l20 -5 -7 7 c-3 4 -99 31 -212
61 l-206 53 0 -6z"/>
<path d="M44146 48075 l-39 -35 -224 -126 -224 -127 9 -9 10 -10 224 126 223
126 43 41 c23 22 42 42 42 44 0 14 -30 0 -64 -30z"/>
<path d="M74971 48074 c0 -12 178 -361 178 -352 1 7 -167 349 -175 357 -2 2
-4 0 -3 -5z"/>
<path d="M28307 47943 c-4 -54 -7 -167 -7 -250 l0 -153 10 0 10 0 0 153 c0 83
3 196 7 250 l6 97 -10 0 -10 0 -6 -97z"/>
<path d="M46350 47957 c0 -16 71 -293 85 -328 l14 -37 -6 -6 -6 -6 10 0 10 0
29 -137 29 -138 3 17 c2 10 -9 72 -23 139 l-27 121 9 8 c4 4 80 41 168 80 88
40 165 77 170 82 l10 9 -25 -9 c-14 -6 -94 -42 -178 -81 -85 -39 -156 -71
-158 -71 -9 0 -33 75 -64 200 -29 119 -49 182 -50 157z"/>
<path d="M69162 47918 l4 -13 240 -48 c367 -73 719 -145 819 -167 630 -138
1905 -389 2155 -425 58 -8 133 -15 168 -15 l62 0 0 10 0 10 -45 0 c-24 0 -95
7 -157 16 -176 24 -1199 223 -1643 319 -220 47 -564 120 -765 161 -201 40
-464 94 -584 119 -121 25 -228 45 -239 45 l-19 0 4 -12z"/>
<path d="M51066 47911 l-6 -9 34 -73 c18 -41 43 -108 56 -149 12 -41 35 -103
51 -137 l29 -63 15 6 c20 8 19 14 -9 76 -13 29 -32 80 -41 113 -9 33 -35 102
-58 153 l-41 92 -12 0 c-7 0 -15 -4 -18 -9z"/>
<path d="M51121 47908 c0 -7 14 -40 30 -73 16 -33 28 -53 25 -45 -2 8 -9 41
-16 73 l-13 57 -14 0 -13 0 1 -12z"/>
<path d="M80085 47822 c-61 -53 -130 -113 -154 -134 l-42 -36 9 -5 8 -6 152
131 c137 117 168 149 145 147 -5 0 -58 -44 -118 -97z"/>
<path d="M69661 47873 l0 -28 9 20 c12 27 12 35 0 35 l-10 0 1 -27z"/>
<path d="M19572 47718 c-150 -61 -271 -113 -268 -116 6 -5 534 205 551 220 l9
8 -9 -1 c-6 0 -133 -50 -283 -111z"/>
<path d="M75580 47759 c-234 -32 -427 -58 -429 -58 -3 -1 0 -6 6 -12 l10 -10
154 21 c273 36 686 90 693 90 3 0 6 7 6 15 0 8 -3 14 -7 14 -5 -1 -199 -28
-433 -60z"/>
<path d="M90457 47629 c-76 -87 -141 -167 -144 -176 -5 -14 166 178 285 320
l15 17 -9 -1 c-5 0 -71 -72 -147 -160z"/>
<path d="M51190 47740 l0 -13 7 6 6 7 -6 7 -7 6 0 -13z"/>
<path d="M51200 47710 l0 -13 7 6 6 7 -6 7 -7 6 0 -13z"/>
<path d="M34020 47682 c0 -34 33 -228 52 -309 12 -51 20 -94 17 -97 -2 -2
-121 -10 -264 -16 l-260 -13 -15 -8 -15 -9 75 5 c41 3 293 17 560 31 266 14
486 27 489 29 7 7 -67 6 -244 -4 -88 -6 -194 -11 -235 -13 l-75 -3 -17 75
c-10 41 -27 133 -39 205 -17 114 -29 163 -29 127z"/>
<path d="M51210 47680 l0 -13 7 6 6 7 -6 7 -7 6 0 -13z"/>
<path d="M84041 47532 l-184 -146 11 -4 11 -3 185 146 c102 80 186 148 186
151 0 17 -48 -16 -209 -144z"/>
<path d="M41528 47655 c-2 -3 3 -29 13 -58 10 -28 18 -62 19 -74 l0 -23 15 0
c18 0 18 0 0 74 l-14 59 -14 14 c-7 7 -16 11 -19 8z"/>
<path d="M51221 47647 c-1 -19 39 -120 45 -114 2 1 -8 32 -21 67 l-24 65 0
-18z"/>
<path d="M29440 47634 c0 -64 42 -849 46 -853 7 -8 4 93 -16 482 -10 209 -21
381 -24 385 l-6 5 0 -19z"/>
<path d="M74831 47608 c0 -7 4 -22 9 -33 l9 -20 0 27 1 27 -10 6 -10 6 1 -13z"/>
<path d="M22230 47525 l0 -75 10 0 10 0 0 75 0 75 -10 0 -10 0 0 -75z"/>
<path d="M28347 47238 l-7 -302 9 -9 8 -8 6 158 c4 87 7 227 7 311 l0 152 -8
0 -9 0 -6 -302z"/>
<path d="M51270 47510 l0 -13 7 6 6 7 -6 7 -7 6 0 -13z"/>
<path d="M22865 47502 c8 -7 366 -92 460 -109 l20 -4 -20 11 c-11 5 -110 30
-220 55 -110 25 -211 48 -225 51 l-25 5 10 -9z"/>
<path d="M41631 47460 l16 -25 39 -20 39 -19 65 -3 65 -2 -51 8 -50 8 -45 21
c-24 12 -55 29 -69 39 l-25 18 16 -25z"/>
<path d="M41416 47311 l-39 -6 -5 -13 -4 -14 58 7 c64 8 74 11 74 26 l0 9 -22
-1 c-13 -1 -41 -5 -62 -8z"/>
<path d="M72993 47311 c-81 -14 -72 -35 11 -25 l56 7 0 13 0 14 -12 -1 c-7 -1
-32 -5 -55 -8z"/>
<path d="M80520 47283 c0 -5 11 -38 25 -73 l25 -64 0 -80 0 -81 -14 -54 -15
-53 -24 -37 c-13 -20 -52 -87 -87 -150 l-63 -114 -22 -74 -23 -74 11 4 11 3
21 65 21 64 43 80 c24 44 65 116 91 160 l48 80 12 54 13 53 -6 92 -5 91 -17
47 c-9 26 -23 52 -31 59 l-14 11 0 -9z"/>
<path d="M41280 47182 l0 -11 48 -6 c26 -4 56 -9 67 -12 l20 -6 67 -65 67 -64
32 -97 c36 -108 36 -108 49 -95 l10 10 -10 84 c-5 47 -15 109 -21 138 l-12 52
-14 0 c-7 0 -13 -1 -13 -2 0 -2 7 -28 15 -58 8 -30 14 -62 14 -70 l-1 -15 -15
35 -15 35 -56 58 c-31 32 -69 65 -84 73 l-27 14 -61 7 -60 6 0 -11z"/>
<path d="M21140 47151 c0 -5 8 -12 18 -15 61 -18 112 -28 232 -45 160 -24 267
-46 303 -62 l26 -12 50 -73 c27 -41 55 -90 62 -109 l13 -35 13 0 c7 0 13 4 13
9 0 23 -45 110 -86 168 l-45 63 -27 14 c-26 13 -105 32 -167 41 -153 21 -317
47 -345 55 -43 12 -60 13 -60 1z"/>
<path d="M24781 47096 c8 -7 460 -97 471 -94 6 2 -92 25 -218 51 -214 44 -263
53 -253 43z"/>
<path d="M38330 46915 c15 -86 31 -159 35 -163 l8 -7 -6 30 c-3 17 -16 90 -28
163 l-22 132 -7 0 -7 0 27 -155z"/>
<path d="M55850 46945 c-113 -57 -200 -104 -195 -104 6 0 102 47 215 104 113
57 201 104 195 104 -5 0 -102 -47 -215 -104z"/>
<path d="M39262 46869 l3 -22 12 -4 11 -4 -5 21 c-3 11 -10 23 -15 26 l-10 6
4 -23z"/>
<path d="M25741 46866 c2 -3 72 -12 154 -22 l150 -18 290 2 290 1 55 10 55 10
-145 -7 c-80 -4 -226 -6 -325 -5 l-180 2 -155 15 c-162 17 -196 19 -189 12z"/>
<path d="M30690 46814 c0 -54 30 -397 35 -402 8 -8 6 28 -11 233 -14 175 -24
242 -24 169z"/>
<path d="M30650 46809 c1 -70 29 -391 34 -396 l6 -6 0 19 c-1 64 -29 397 -34
402 l-6 5 0 -24z"/>
<path d="M21665 46771 c-71 -26 -193 -77 -270 -113 -77 -35 -326 -143 -552
-239 l-413 -174 0 -14 0 -13 13 5 c56 22 962 408 1032 440 50 23 148 62 219
87 l130 46 4 12 4 12 -19 -1 c-10 0 -76 -22 -148 -48z"/>
<path d="M22700 46804 l0 -12 28 -6 c15 -3 113 -22 217 -42 105 -20 332 -67
505 -104 173 -38 407 -85 520 -105 113 -19 272 -52 353 -71 l148 -37 -16 -17
-15 -17 0 -26 0 -27 10 0 10 0 6 24 c3 14 14 32 23 40 l17 16 45 1 44 2 30
-15 30 -16 145 -26 c136 -25 353 -70 393 -82 l17 -5 0 14 0 14 -147 32 c-82
17 -196 40 -256 51 l-107 19 -15 -5 -15 -6 0 11 0 12 -35 15 -36 15 -57 -2
-57 -1 -140 35 c-77 19 -234 52 -350 72 -115 20 -352 68 -525 105 -173 38
-417 89 -542 113 l-228 44 0 -13z"/>
<path d="M21800 46774 c0 -3 5 -25 11 -50 l11 -44 10 0 11 0 -7 42 c-4 22 -9
45 -12 50 -6 9 -24 11 -24 2z"/>
<path d="M82480 46750 c-30 -4 -93 -17 -140 -30 l-85 -22 -62 -46 c-59 -45
-74 -62 -54 -62 5 0 34 20 65 44 l56 44 103 25 c56 14 130 28 165 32 l62 7 0
9 0 9 -27 -1 c-16 -1 -53 -5 -83 -9z"/>
<path d="M28326 46583 c-3 -76 -8 -173 -10 -215 l-4 -78 8 0 9 0 5 33 c3 17 8
114 11 215 l5 182 -9 0 -9 0 -6 -137z"/>
<path d="M82470 46689 c-30 -5 -86 -16 -123 -25 l-68 -17 -242 -181 c-248
-187 -682 -532 -772 -614 -27 -26 -58 -59 -69 -74 l-18 -29 7 -7 7 -7 11 20
c6 11 31 39 56 63 74 70 468 385 706 565 121 91 243 183 270 205 l50 39 90 21
c50 12 120 24 158 28 l67 7 0 8 0 9 -37 -1 c-21 -1 -63 -5 -93 -10z"/>
<path d="M37332 46620 l1 -30 9 0 8 0 0 24 0 25 -9 6 -10 5 1 -30z"/>
<path d="M36490 46580 l0 -30 10 0 10 0 0 30 0 30 -10 0 -10 0 0 -30z"/>
<path d="M51802 46562 l-173 -45 8 -8 9 -9 159 42 c147 37 186 51 174 61 -2 2
-82 -16 -177 -41z"/>
<path d="M80704 46573 c3 -10 73 -279 157 -598 l152 -580 10 -10 10 -10 -8 20
c-4 11 -32 121 -62 245 -46 189 -222 875 -239 933 -3 9 -10 17 -15 17 l-10 0
5 -17z"/>
<path d="M34535 46539 c-71 -3 -160 -7 -197 -8 l-67 -1 5 -15 6 -15 47 5 c25
2 121 7 214 11 l167 6 0 14 0 14 -22 -2 c-13 -1 -81 -5 -153 -9z"/>
<path d="M57586 46522 c-3 -5 -2 -18 1 -31 l6 -22 9 3 c5 2 9 7 9 11 -1 4 -1
16 -1 27 l0 20 -9 0 c-6 0 -12 -4 -15 -8z"/>
<path d="M33190 46509 c-569 -23 -1145 -50 -1149 -54 -2 -3 -1 -8 3 -12 l7 -7
427 17 c235 10 534 20 665 24 l237 6 0 19 c0 10 -1 17 -2 16 -2 0 -86 -5 -188
-9z"/>
<path d="M51636 46454 c9 -27 18 -55 20 -63 l5 -14 10 10 11 11 -11 35 -12 35
-19 17 -20 18 16 -49z"/>
<path d="M51387 46433 c-3 -10 -8 -31 -11 -46 l-7 -28 13 -35 12 -34 17 0 18
0 -15 37 -16 36 10 38 10 38 -6 6 c-10 10 -21 5 -25 -12z"/>
<path d="M34088 46427 l-188 -10 0 -14 0 -14 103 6 c56 4 157 10 225 13 l122
7 3 10 2 10 -40 1 c-22 1 -124 -3 -227 -9z"/>
<path d="M81042 46278 c15 -84 35 -200 44 -258 12 -86 50 -256 70 -319 l5 -14
10 10 9 9 -29 120 c-29 117 -111 552 -111 587 l0 17 -13 0 -14 0 29 -152z"/>
<path d="M34690 46418 c0 -2 15 -158 34 -348 l33 -345 -6 -240 c-4 -132 -5
-242 -4 -244 2 -2 6 -1 11 3 l7 8 3 276 3 276 -26 260 c-14 144 -28 282 -31
309 l-6 47 -9 0 c-5 0 -9 -1 -9 -2z"/>
<path d="M80978 46393 l13 -5 6 6 6 6 -19 -1 -19 -1 13 -5z"/>
<path d="M80870 46380 l-25 -8 32 -1 32 -1 6 10 6 10 -13 -1 c-7 -1 -24 -5
-38 -9z"/>
<path d="M50823 46318 c19 -35 58 -107 87 -160 l52 -98 9 0 10 0 -4 8 c-2 4
-41 76 -86 160 l-82 152 -11 0 -10 0 35 -62z"/>
<path d="M51250 46341 l0 -11 23 -5 c12 -3 41 -9 64 -14 l41 -9 -4 13 -5 13
-37 6 c-20 3 -47 9 -59 12 l-23 6 0 -11z"/>
<path d="M30768 46283 l-58 -4 0 -11 0 -11 173 6 c94 4 198 7 230 7 l57 0 0
10 0 10 -172 -2 c-95 -1 -199 -3 -230 -5z"/>
<path d="M28035 46264 c-110 -7 -212 -13 -227 -13 l-28 -1 0 -12 0 -11 148 7
c81 3 193 9 250 13 l102 6 0 13 0 14 -22 -1 c-13 -1 -113 -8 -223 -15z"/>
<path d="M51427 46273 c-12 -12 -7 -22 13 -28 12 -4 30 -16 41 -28 l20 -22 -6
30 -7 30 -16 13 c-17 13 -35 16 -45 5z"/>
<path d="M51588 46266 l-28 -10 0 -14 0 -14 32 6 c39 8 42 11 31 28 l-8 14
-27 -10z"/>
<path d="M19886 46252 c9 -35 84 -195 90 -189 3 2 -18 51 -45 108 -28 57 -48
94 -45 81z"/>
<path d="M28300 46230 c0 -5 4 -10 9 -10 6 0 13 5 16 10 l6 10 -15 0 -16 0 0
-10z"/>
<path d="M28423 46176 l-162 -12 -7 -7 -7 -7 6 -6 6 -6 168 11 c92 6 201 14
241 17 l72 6 0 9 0 9 -77 -1 c-43 -1 -151 -7 -240 -13z"/>
<path d="M93091 46095 l15 -15 75 -13 76 -14 24 -16 23 -17 51 0 50 0 63 30
62 29 0 11 0 10 -70 -35 -70 -35 -34 0 -35 0 -35 21 -35 20 -68 10 -68 10 -9
9 c-6 6 -15 10 -20 10 l-10 0 15 -15z"/>
<path d="M36936 45942 l5 -122 -11 -20 -11 -20 -27 -14 -27 -14 -87 -7 -88 -7
0 -7 0 -7 88 8 87 8 28 12 28 11 14 21 15 20 -1 76 c-1 41 -5 100 -9 130 l-9
55 5 -123z"/>
<path d="M81370 45886 c-4 -13 -14 -43 -20 -67 -6 -24 -21 -68 -32 -96 l-22
-53 -10 -2 c-6 0 -18 -2 -26 -2 l-15 -2 2 -19 c5 -37 4 -60 -2 -90 l-6 -30 16
34 16 35 -6 27 -6 27 24 6 25 6 17 42 c19 47 64 208 58 208 -2 0 -8 -11 -13
-24z"/>
<path d="M34470 45815 c0 -38 29 -419 36 -473 3 -24 8 -42 10 -39 6 5 -35 530
-42 536 -2 2 -4 -8 -4 -24z"/>
<path d="M50451 45765 l64 -44 11 -27 11 -26 -24 -96 c-24 -100 -27 -119 -18
-110 3 3 17 51 30 107 l25 102 -6 25 -6 24 -65 45 c-35 25 -69 45 -75 45 -6 0
17 -20 53 -45z"/>
<path d="M47738 45327 c-207 -70 -237 -82 -227 -91 2 -2 106 30 232 71 l227
76 0 8 c0 13 2 14 -232 -64z"/>
<path d="M44430 45334 c0 -3 14 -35 31 -71 l31 -65 63 -64 63 -64 75 -35 c82
-38 87 -39 87 -26 l0 8 -62 28 c-35 16 -83 43 -108 62 l-45 34 -41 54 -41 55
-17 45 -18 45 -9 0 c-5 0 -9 -3 -9 -6z"/>
<path d="M44395 45300 l-6 -10 10 0 c5 0 13 5 16 10 l6 10 -10 0 c-5 0 -13 -4
-16 -10z"/>
<path d="M54820 45099 l0 -10 10 6 c6 3 10 8 10 11 0 2 -4 4 -10 4 -5 0 -10
-5 -10 -11z"/>
<path d="M28337 44903 l-7 -11 9 -24 c5 -12 32 -54 60 -92 l50 -70 77 -67 78
-68 8 5 9 5 -52 47 c-28 25 -62 54 -75 64 -27 22 -130 165 -142 199 l-9 22 -6
-10z"/>
<path d="M81165 44838 c8 -24 53 -164 100 -313 47 -148 107 -321 132 -382 l46
-113 7 5 8 5 -41 97 c-22 54 -86 242 -142 418 l-103 319 -11 4 -10 3 14 -43z"/>
<path d="M58349 44341 l-24 -19 8 -8 8 -8 21 22 22 21 -6 6 -5 6 -24 -20z"/>
<path d="M26546 44341 c17 -15 396 -192 401 -187 3 3 -10 11 -28 19 -19 8
-109 51 -202 96 -162 78 -192 91 -171 72z"/>
<path d="M94021 44123 c18 -27 60 -86 94 -133 l61 -85 34 -77 35 -78 3 10 c2
5 -9 38 -24 72 l-28 63 -95 137 c-53 75 -100 137 -104 138 -4 0 7 -21 24 -47z"/>
<path d="M28332 43920 l-64 -159 -35 -31 c-19 -17 -33 -33 -31 -36 3 -2 21 11
41 28 l36 33 61 154 c34 84 60 157 58 162 -2 4 -31 -64 -66 -151z"/>
<path d="M34690 44065 c0 -3 16 -20 36 -37 l36 -32 48 -70 c26 -39 68 -91 93
-114 l45 -44 5 9 6 10 -40 39 c-22 21 -66 75 -97 119 -59 83 -98 124 -119 125
-7 0 -13 -2 -13 -5z"/>
<path d="M28410 44052 c0 -4 77 -54 172 -112 94 -58 184 -116 200 -128 l28
-24 0 10 c0 12 -25 33 -90 72 -30 18 -112 68 -182 111 -71 44 -128 76 -128 71z"/>
<path d="M52342 44005 l-72 -45 -77 -20 c-42 -11 -86 -20 -97 -20 -12 0 -27
-4 -35 -9 l-14 -9 6 -9 6 -10 73 13 c121 22 174 44 286 120 2 1 2 9 0 18 l-3
15 -73 -44z"/>
<path d="M52750 43996 l-12 -44 10 -19 11 -18 11 30 c7 17 14 45 17 63 l6 32
-15 0 -15 0 -13 -44z"/>
<path d="M50795 43270 c-44 -10 -226 -59 -405 -110 l-325 -92 -10 -10 -10 -11
15 5 c76 26 701 199 753 209 l67 12 0 9 c0 4 -1 8 -2 7 -2 0 -39 -9 -83 -19z"/>
<path d="M52110 43055 c0 -13 199 -403 204 -398 3 3 -40 95 -95 204 -87 174
-109 214 -109 194z"/>
<path d="M10490 42970 l0 -30 10 0 10 0 0 30 0 30 -10 0 -10 0 0 -30z"/>
<path d="M51380 42937 c0 -15 32 -238 46 -319 l7 -38 8 0 9 0 -6 28 c-3 15 -8
34 -10 42 -2 8 -13 78 -24 154 -18 126 -30 177 -30 133z"/>
<path d="M42031 42921 l-13 -8 9 -6 8 -5 25 14 25 13 -20 0 c-11 1 -26 -3 -34
-8z"/>
<path d="M52294 42588 c48 -108 166 -340 166 -327 0 19 -173 379 -182 379 -4
0 4 -24 16 -52z"/>
<path d="M91738 42577 c-43 -23 -78 -45 -78 -50 0 -4 37 13 83 38 l84 45 21 0
21 0 63 -36 c35 -20 78 -45 96 -56 l32 -20 0 9 c0 4 -42 32 -93 61 l-94 52
-29 -1 -29 0 -77 -42z"/>
<path d="M50832 42490 c-73 -10 -136 -20 -139 -24 l-6 -6 15 0 c27 0 323 41
327 46 8 7 -62 2 -197 -16z"/>
<path d="M69115 42138 c-220 -33 -402 -62 -404 -64 -16 -15 53 -8 438 48 l431
63 0 8 0 7 -32 -1 c-18 -1 -213 -28 -433 -61z"/>
<path d="M68903 42161 c-106 -15 -195 -30 -199 -33 l-5 -6 8 -4 c4 -2 104 9
221 25 l212 30 0 8 0 9 -22 -1 c-13 -1 -110 -14 -215 -28z"/>
<path d="M51509 42136 l-5 -6 28 -202 c15 -112 28 -211 28 -220 l0 -18 8 0 8
0 -27 203 c-15 111 -29 213 -31 225 l-3 24 -6 -6z"/>
<path d="M31042 41812 l-170 -237 -49 -46 c-26 -25 -142 -118 -258 -205 -115
-87 -240 -182 -278 -211 l-67 -52 9 -5 8 -6 284 216 c156 119 301 232 322 252
l39 37 174 242 173 242 -8 6 -9 5 -170 -238z"/>
<path d="M66740 41922 c0 -5 12 -14 26 -21 l26 -11 -4 17 -3 18 -23 3 -22 3 0
-9z"/>
<path d="M82732 41628 c8 -13 166 -272 352 -575 l338 -553 15 0 15 0 -14 23
c-8 12 -167 271 -353 575 l-338 552 -15 0 -14 0 14 -22z"/>
<path d="M56862 41343 c70 -2 187 -2 260 0 l133 3 -260 0 -260 0 127 -3z"/>
<path d="M30336 41084 l-300 -224 -80 -26 -80 -25 -97 -1 -97 0 -59 33 c-32
18 -92 58 -133 89 -41 31 -80 59 -87 63 l-12 7 -5 -9 -6 -9 98 -70 c54 -38
123 -82 152 -98 l55 -28 96 1 95 0 85 28 84 27 295 221 c162 121 297 221 299
223 1 1 1 7 0 13 l-4 10 -299 -225z"/>
<path d="M93050 41100 c-106 -77 -188 -140 -182 -140 11 0 342 237 372 266 36
35 -11 4 -190 -126z"/>
<path d="M28960 41150 l0 -13 7 6 6 7 -6 7 -7 6 0 -13z"/>
<path d="M29421 41033 c1 -14 112 -99 188 -144 l75 -44 68 -3 68 -4 0 9 0 10
-66 6 -66 6 -64 36 c-35 20 -91 58 -125 85 -60 48 -80 59 -78 43z"/>
<path d="M98095 40599 c-55 -39 -119 -89 -142 -111 l-42 -41 -5 -23 -6 -24
-10 0 c-5 0 -11 8 -14 18 l-6 17 -31 18 -32 18 -46 6 -46 6 -52 44 -51 44 -6
-9 -5 -9 63 -52 64 -51 30 0 30 0 30 -17 30 -17 17 -28 16 -28 14 0 13 0 12
35 11 35 62 56 c34 30 99 81 144 111 l82 56 -5 9 c-9 14 -15 10 -119 -63z"/>
<path d="M46980 40193 c-245 -91 -447 -168 -449 -170 -3 -2 0 -7 5 -12 l9 -8
450 168 c248 93 456 169 463 169 l12 0 0 10 0 10 -22 -1 -23 0 -445 -166z"/>
<path d="M66020 40172 l0 -9 40 -7 c22 -3 128 -38 236 -76 174 -62 222 -75
202 -54 -12 11 -394 142 -435 149 l-43 7 0 -10z"/>
<path d="M46520 40080 c0 -8 5 -22 10 -30 l10 -15 0 15 c0 8 -5 22 -10 30
l-10 15 0 -15z"/>
<path d="M84780 39956 c0 -4 39 -65 87 -134 47 -70 165 -257 261 -417 191
-317 180 -300 186 -294 11 10 -472 784 -525 844 l-9 9 0 -8z"/>
<path d="M48348 39853 c-24 -32 -75 -97 -112 -145 -37 -49 -64 -88 -59 -88 11
0 227 280 221 286 -3 2 -25 -22 -50 -53z"/>
<path d="M54370 39668 c0 -18 -20 -139 -44 -268 l-44 -235 8 -9 8 -8 11 53
c36 182 81 439 81 467 l0 32 -10 0 -10 0 0 -32z"/>
<path d="M43463 39602 c-117 -43 -213 -80 -213 -83 0 -5 394 133 445 155 l10
4 -15 0 c-8 0 -111 -34 -227 -76z"/>
<path d="M45411 39660 c0 -8 4 -22 9 -30 l10 -15 -1 10 c0 6 -4 19 -9 30 l-9
20 0 -15z"/>
<path d="M28760 39183 l0 -17 63 -105 62 -106 62 -65 61 -65 7 7 8 7 -56 61
-56 60 -72 120 c-39 66 -73 120 -75 120 -2 0 -4 -8 -4 -17z"/>
<path d="M2536 38994 c-80 -70 -146 -131 -146 -135 0 -22 30 0 165 117 l145
126 -6 9 c-3 5 -7 9 -9 9 -2 0 -69 -57 -149 -126z"/>
<path d="M51575 39114 c32 -12 479 -104 850 -173 237 -45 441 -84 455 -87 l25
-5 -10 9 -10 9 -420 78 c-231 42 -521 99 -645 126 -124 27 -232 49 -240 48
l-15 -1 10 -4z"/>
<path d="M55305 39110 l-7 -12 28 -30 c39 -41 142 -112 453 -315 l265 -173 10
10 c5 5 8 11 5 14 -2 2 -119 79 -259 171 -284 187 -410 274 -456 317 l-32 30
-7 -12z"/>
<path d="M51565 39083 l10 -10 200 -42 c110 -23 209 -44 220 -47 l20 -4 -20
10 c-11 5 -105 28 -210 50 -104 22 -199 43 -210 46 l-20 6 10 -9z"/>
<path d="M94887 38926 c28 -47 300 -415 307 -416 l8 0 -13 20 c-91 131 -296
409 -302 410 l-8 0 8 -14z"/>
<path d="M55346 38701 l-8 -12 58 -65 c31 -36 102 -104 156 -151 l99 -86 11
11 c7 7 10 13 7 15 -41 29 -173 150 -235 215 l-81 86 -7 -13z"/>
<path d="M88328 38653 c-16 -10 -28 -21 -28 -26 l0 -7 26 17 27 17 31 -2 31
-3 26 -25 26 -25 154 -254 c85 -140 157 -255 161 -255 4 0 104 63 223 140
l215 139 17 -6 16 -6 -7 11 c-4 7 -14 12 -21 12 -8 0 -106 -59 -217 -131 -112
-72 -208 -133 -214 -136 l-11 -4 -153 249 -152 250 -27 26 -28 27 -34 5 -34 4
-27 -17z"/>
<path d="M95300 37920 c-74 -38 -167 -81 -207 -95 l-72 -27 6 -14 5 -13 41 15
c23 9 117 52 210 97 l167 81 0 13 c0 7 -3 13 -7 12 -5 0 -69 -31 -143 -69z"/>
<path d="M89532 37934 c19 -27 126 -182 238 -344 236 -343 209 -304 215 -299
6 7 -463 683 -477 688 l-12 4 36 -49z"/>
<path d="M91415 37613 c-44 -6 -96 -12 -115 -13 -19 0 -42 -4 -50 -10 l-14 -9
6 -6 6 -7 131 16 130 16 121 0 120 0 0 16 0 16 -127 -4 -128 -3 -80 -12z"/>
<path d="M92804 37612 l7 -21 -11 -21 -11 -20 10 0 c11 0 21 24 21 50 l0 19
-11 7 -11 7 6 -21z"/>
<path d="M59360 37602 c0 -18 184 -382 192 -382 7 0 -175 375 -188 389 -2 2
-4 -1 -4 -7z"/>
<path d="M92250 37580 l0 -9 33 -5 c17 -3 147 -17 288 -31 l255 -25 197 0 197
0 0 10 0 10 -172 0 -173 0 -295 30 c-162 16 -303 30 -312 30 l-18 0 0 -10z"/>
<path d="M580 37383 l0 -21 18 -22 18 -23 11 4 10 4 -29 39 -28 39 0 -20z"/>
<path d="M90227 37345 c-10 -7 -98 -59 -197 -116 l-179 -104 -1 -12 c0 -7 2
-13 5 -13 3 0 91 50 196 111 l191 112 5 14 c8 20 1 23 -20 8z"/>
<path d="M53980 37306 c0 -5 -69 -375 -74 -399 l-4 -18 11 4 11 3 31 170 c18
93 35 186 39 207 l7 37 -11 0 c-5 0 -10 -2 -10 -4z"/>
<path d="M89793 37156 c-101 -61 -183 -115 -183 -120 l0 -8 17 7 c18 6 341
202 356 216 l9 7 -9 5 -8 5 -182 -112z"/>
<path d="M50954 37109 c19 -27 285 -279 294 -279 7 1 -298 300 -306 300 -2 0
3 -9 12 -21z"/>
<path d="M89405 36743 c-658 -405 -1127 -695 -1752 -1082 l-592 -366 9 -9 9
-9 568 350 c312 193 754 465 980 604 227 140 590 364 807 498 l395 245 -5 8
c-3 4 -8 8 -12 8 -4 -1 -187 -112 -407 -247z"/>
<path d="M51230 36797 c0 -6 289 -274 519 -482 183 -165 1009 -922 1063 -973
21 -20 40 -33 43 -31 2 3 -142 140 -322 305 -180 164 -424 389 -543 498 -464
429 -760 695 -760 683z"/>
<path d="M40758 36646 c-75 -17 -140 -34 -144 -38 -10 -11 -14 -12 161 27
l158 36 8 -8 c4 -4 12 -37 18 -72 6 -35 13 -66 17 -70 l6 -6 -7 60 c-4 33 -11
70 -16 83 l-9 22 -27 -1 c-16 -1 -90 -15 -165 -33z"/>
<path d="M85901 36327 c-3 -33 253 -337 283 -337 5 0 -22 33 -61 73 -63 66
-162 185 -205 247 -9 14 -17 21 -17 17z"/>
<path d="M39857 36140 c3 -80 9 -190 13 -245 l8 -100 -5 225 -6 225 -8 20 -8
20 6 -145z"/>
<path d="M56110 36063 c-124 -19 -227 -37 -229 -39 -2 -2 -2 -7 1 -10 l6 -6
209 31 c114 18 220 34 236 37 l27 6 0 9 0 9 -12 -1 c-7 -1 -114 -17 -238 -36z"/>
<path d="M60515 35901 l-5 -10 132 -72 c73 -40 168 -92 212 -116 43 -24 82
-43 87 -43 28 0 -5 24 -123 88 -73 39 -170 92 -215 117 l-82 45 -6 -9z"/>
<path d="M41764 35677 l19 -14 -5 -27 -6 -28 10 10 10 10 -4 28 -3 29 -20 3
-20 4 19 -15z"/>
<path d="M86436 35672 l-7 -12 12 -22 c7 -13 33 -54 59 -93 l46 -70 52 -110
c29 -61 52 -118 52 -128 l0 -17 11 0 12 0 -7 33 c-3 17 -27 77 -53 132 l-47
100 -57 85 c-31 47 -58 92 -61 100 l-4 14 -8 -12z"/>
<path d="M84636 35479 c-137 -87 -244 -159 -238 -159 6 0 121 70 255 155 l244
155 39 0 39 -1 26 -22 27 -22 58 -102 c32 -57 62 -103 66 -103 4 0 -21 48 -54
108 l-61 107 -26 22 -26 22 -50 0 -50 0 -249 -160z"/>
<path d="M86800 35482 c0 -4 24 -20 53 -35 l54 -27 52 0 52 0 -5 9 -5 8 -56 6
-56 6 -35 20 c-37 22 -54 26 -54 13z"/>
<path d="M38845 35120 l-71 -28 -304 -174 c-168 -97 -327 -187 -355 -203 -27
-15 -193 -108 -367 -207 l-318 -180 0 -14 0 -14 10 0 c11 0 436 241 990 560
l335 194 89 36 90 37 4 11 4 12 -19 -1 c-10 0 -50 -13 -88 -29z"/>
<path d="M86700 34996 c-20 -7 -61 -28 -90 -48 -30 -20 -491 -305 -1025 -633
-533 -328 -974 -601 -979 -606 -49 -46 125 57 905 537 497 306 966 594 1043
641 l139 83 39 9 39 9 29 -8 c15 -4 45 -20 66 -34 21 -14 39 -24 41 -22 10 9
-12 34 -51 59 l-43 27 -39 0 -39 -1 -35 -13z"/>
<path d="M37734 34915 c-4 -9 -5 -17 -3 -19 2 -1 45 -36 94 -78 50 -42 108
-87 129 -102 l39 -26 23 0 c29 0 54 10 54 21 l0 9 -31 0 -30 0 -22 11 c-12 7
-73 54 -135 106 l-112 94 -6 -16z"/>
<path d="M32530 34782 l0 -8 222 -107 c121 -59 223 -105 226 -102 3 3 -42 27
-99 54 -57 26 -159 76 -226 110 l-123 61 0 -8z"/>
<path d="M78194 34736 c-23 -13 -81 -45 -130 -71 -141 -76 -178 -98 -187 -112
l-8 -13 -36 0 -35 0 -169 -87 c-93 -47 -167 -88 -165 -90 2 -2 81 34 175 81
l171 86 29 0 29 0 -5 -62 c-18 -245 -29 -424 -26 -427 8 -11 11 19 26 242 l16
239 14 22 15 22 134 74 c73 41 153 85 177 97 l44 23 -14 0 c-8 0 -32 -11 -55
-24z"/>
<path d="M78140 34664 c-204 -106 -230 -123 -230 -149 l0 -10 8 11 c9 15 113
77 245 148 59 32 107 59 107 62 0 6 3 8 -130 -62z"/>
<path d="M59564 34542 c-179 -109 -284 -177 -284 -184 0 -4 79 42 176 103
l176 110 16 -3 17 -3 48 -130 c81 -220 99 -266 103 -262 6 6 -135 388 -148
405 -15 17 -17 17 -104 -36z"/>
<path d="M64826 34571 l-5 -7 122 -69 c67 -39 157 -93 199 -122 l77 -53 5 9 6
9 -78 50 c-42 28 -132 82 -199 121 l-123 70 -4 -8z"/>
<path d="M82271 34280 c85 -91 167 -180 182 -199 15 -18 30 -31 32 -29 8 8
-117 148 -246 273 l-122 120 154 -165z"/>
<path d="M55373 34252 l-223 -36 0 -7 0 -7 18 4 c9 2 109 17 222 34 113 17
214 35 225 40 l20 9 -20 -1 c-11 0 -120 -16 -242 -36z"/>
<path d="M54405 34120 c-110 -15 -292 -40 -405 -55 l-205 -28 -10 -8 -9 -9 29
5 c36 6 329 44 630 81 l220 27 10 9 9 8 -34 -1 c-19 -1 -125 -14 -235 -29z"/>
<path d="M33385 33863 c-4 -43 -20 -141 -36 -217 -16 -77 -27 -141 -25 -144 6
-5 6 -2 40 153 l24 110 7 88 c4 48 5 87 2 87 -3 0 -8 -35 -12 -77z"/>
<path d="M57880 33704 c0 -5 21 -58 46 -118 l45 -108 15 -87 c16 -95 24 -125
30 -118 2 2 -5 50 -15 108 l-20 104 -45 109 c-46 108 -56 128 -56 110z"/>
<path d="M83495 33244 c-93 -63 -177 -119 -185 -124 l-15 -8 7 -8 8 -7 185
123 c162 108 205 142 178 139 -5 0 -84 -52 -178 -115z"/>
<path d="M64592 33218 c3 -7 29 -27 59 -44 30 -17 204 -117 386 -223 183 -105
335 -191 338 -191 3 0 5 6 5 13 l-1 12 -307 175 c-169 96 -342 196 -385 222
-43 26 -83 48 -89 48 l-10 0 4 -12z"/>
<path d="M32490 32759 c-237 -134 -232 -130 -226 -136 3 -3 94 45 203 107 215
122 208 118 202 124 -2 2 -83 -41 -179 -95z"/>
<path d="M78075 32850 l-180 -7 -730 -82 -730 -82 -415 -60 c-228 -33 -511
-74 -629 -90 -118 -16 -216 -30 -217 -32 -2 -1 0 -7 4 -13 l7 -11 295 37 c162
21 439 59 615 84 l320 46 770 84 770 85 270 9 270 9 165 -28 165 -28 162 -41
162 -41 273 -93 273 -94 283 -135 283 -135 172 -108 c197 -123 463 -307 522
-360 46 -41 30 -35 -32 12 l-41 32 -63 21 -63 21 -38 0 -38 0 0 -9 0 -8 58 -6
57 -6 94 -48 94 -48 12 3 12 2 74 -67 c41 -37 135 -125 210 -195 l136 -128 7
7 c3 3 6 10 6 14 0 4 -91 87 -201 186 -435 386 -464 408 -779 605 l-185 115
-295 140 -295 140 -290 96 c-299 99 -369 119 -571 163 l-119 25 -165 15 c-175
15 -184 15 -465 4z"/>
<path d="M79411 32686 c2 -3 85 -37 184 -75 l179 -71 25 -24 c14 -13 37 -29
50 -36 l24 -12 -27 34 -26 35 -122 51 c-162 68 -306 117 -287 98z"/>
<path d="M42292 32610 c3 -8 20 -59 38 -113 l34 -98 -220 -220 c-120 -121
-312 -308 -426 -416 -114 -108 -206 -199 -203 -201 7 -7 246 219 572 543 l293
290 -39 108 c-21 59 -42 111 -46 115 l-8 7 5 -15z"/>
<path d="M73045 32455 c-319 -40 -665 -82 -770 -94 -104 -12 -205 -25 -222
-28 l-33 -5 0 -14 0 -14 23 0 c31 0 342 39 702 89 160 22 437 59 618 83 l327
43 0 7 0 8 -32 -1 c-18 -1 -294 -34 -613 -74z"/>
<path d="M72991 32340 c0 -8 4 -24 9 -35 l9 -20 0 20 c0 11 -4 27 -9 35 l-10
15 1 -15z"/>
<path d="M73160 32239 c-30 -5 -70 -11 -87 -14 l-33 -6 0 -15 0 -15 18 5 c9 2
51 10 92 16 93 14 110 19 110 31 l0 9 -22 -1 c-13 -1 -48 -5 -78 -10z"/>
<path d="M71090 32150 c-107 -16 -196 -29 -197 -29 -2 -1 -3 -10 -3 -21 l0
-20 23 4 c12 3 117 17 232 32 116 15 211 28 213 29 1 1 0 10 -4 19 l-6 16 -32
-1 c-17 -1 -119 -14 -226 -29z"/>
<path d="M69775 32029 c-380 -50 -777 -107 -867 -125 l-28 -6 0 -14 0 -14 19
0 c10 0 103 13 207 30 167 26 1083 150 1113 150 l11 0 0 14 c0 8 -3 17 -7 19
-5 2 -206 -22 -448 -54z"/>
<path d="M98814 31738 l-22 -10 -11 -24 c-14 -30 -14 -34 -1 -34 l10 0 0 14 0
15 22 15 22 16 26 0 25 0 -15 10 c-18 12 -29 12 -56 -2z"/>
<path d="M31691 31140 c0 -8 6 -24 14 -34 l15 -20 0 15 c0 8 -7 24 -15 35
l-14 19 0 -15z"/>
<path d="M31748 31048 l-4 -12 18 -18 18 -18 0 -25 0 -25 9 0 c6 0 13 5 16 11
l7 10 -6 33 -6 33 -25 11 -24 11 -3 -11z"/>
<path d="M80152 30638 l-233 -181 9 -9 10 -10 233 182 c129 100 236 186 237
191 l4 9 -14 -1 c-7 0 -118 -81 -246 -181z"/>
<path d="M31040 30668 c-80 -44 -183 -100 -230 -125 -47 -25 -167 -90 -267
-145 l-183 -100 0 -14 0 -14 11 0 c6 0 113 57 238 126 124 70 307 172 406 227
99 55 182 101 184 103 3 3 0 8 -5 14 l-9 9 -145 -81z"/>
<path d="M79859 30492 c5 -10 18 -25 27 -33 l18 -14 -19 33 c-11 17 -23 32
-28 32 l-8 0 10 -18z"/>
<path d="M84007 29023 l-7 -6 63 -66 c34 -36 102 -103 150 -148 l88 -83 11 6
10 7 -148 148 c-82 82 -151 149 -155 149 -3 0 -9 -3 -12 -7z"/>
<path d="M11426 28219 c-3 -8 -10 -45 -16 -84 -6 -38 -22 -117 -36 -173 -23
-101 -29 -141 -19 -130 13 13 89 387 80 396 -2 3 -7 -1 -9 -9z"/>
<path d="M16780 27540 l0 -10 23 -5 c12 -3 317 -45 677 -95 360 -50 665 -93
678 -95 l22 -5 0 15 0 15 -10 0 c-5 0 -316 43 -691 95 -375 52 -686 95 -691
95 -4 0 -8 -4 -8 -10z"/>
<path d="M17215 27388 c-14 -37 -85 -371 -80 -376 10 -10 15 6 58 196 l44 192
-9 0 c-5 0 -11 -6 -13 -12z"/>
<path d="M18170 27296 l0 -16 13 0 c6 0 108 -15 225 -33 l213 -33 6 8 c3 5 3
11 2 13 -2 1 -98 17 -214 35 -115 17 -218 34 -227 36 l-18 5 0 -15z"/>
<path d="M18634 27278 l-6 -9 6 -6 c7 -7 385 -62 429 -63 l27 0 0 14 0 13 -62
7 c-35 4 -136 17 -226 30 l-163 23 -5 -9z"/>
<path d="M95307 26779 l-187 -138 7 -4 8 -5 170 124 c174 128 202 151 194 157
-2 3 -88 -58 -192 -134z"/>
<path d="M94822 26725 c-101 -73 -186 -136 -189 -139 l-6 -6 9 0 c8 0 361 254
380 273 l7 7 -9 0 c-5 -1 -91 -61 -192 -135z"/>
<path d="M17026 26558 c-3 -7 -26 -105 -51 -218 -108 -471 -145 -644 -140
-648 13 -14 26 28 70 233 26 121 69 314 95 428 l47 208 -9 5 -8 5 -4 -13z"/>
<path d="M24564 25661 l-109 -336 -42 -88 c-24 -49 -57 -122 -74 -163 l-31
-76 9 -9 10 -10 23 58 c13 32 44 101 70 153 l47 95 43 130 43 130 43 65 42 65
52 158 52 158 -6 6 -6 7 -9 -10 c-5 -5 -32 -79 -60 -164 -28 -85 -56 -162 -61
-170 l-10 -15 0 10 c0 6 24 83 54 172 l54 162 -12 4 -12 5 -110 -337z"/>
<path d="M87395 25991 l-5 -10 202 -160 203 -161 4 11 c1 6 1 11 0 13 -2 1
-93 72 -201 159 l-197 157 -6 -9z"/>
<path d="M87006 24931 l-28 -29 -30 9 -30 8 -27 -14 c-14 -7 -62 -51 -106 -97
l-80 -83 55 51 c30 27 75 67 99 88 l44 38 42 -5 42 -6 33 34 34 35 -10 0 c-6
0 -23 -13 -38 -29z"/>
<path d="M23826 23822 l-106 -318 -73 -120 c-40 -65 -125 -194 -190 -286 -64
-92 -117 -172 -117 -179 l0 -11 10 4 c14 5 275 379 340 488 l57 95 102 312
c55 171 101 316 101 322 0 6 -4 11 -9 11 l-9 0 -106 -318z"/>
<path d="M89100 23313 c0 -11 150 -436 156 -442 18 -18 4 34 -59 224 l-73 219
-12 4 -12 4 0 -9z"/>
<path d="M22761 21538 c-27 -57 -97 -204 -155 -327 l-107 -225 -23 -108 -22
-107 12 -5 12 -4 21 109 22 110 106 222 c58 122 127 268 153 324 l49 103 -10
6 -10 6 -48 -104z"/>
<path d="M86760 20814 c0 -14 620 -658 627 -651 3 4 -337 365 -529 562 l-98
100 0 -11z"/>
<path d="M22692 19643 l48 -198 30 -210 29 -210 10 -245 c12 -257 25 -445 42
-595 l11 -90 35 -85 35 -85 61 -75 c33 -41 95 -112 136 -157 l75 -83 9 9 10
10 -90 98 c-49 54 -110 125 -135 158 l-45 60 -32 72 -31 72 -9 48 c-11 61 -28
317 -42 638 l-10 250 -24 175 -24 175 -56 233 -57 232 -12 0 -13 0 49 -197z"/>
<path d="M93115 17159 c-99 -72 -189 -137 -199 -145 -11 -7 -18 -15 -15 -18 5
-5 393 272 397 285 2 5 2 9 0 9 -1 -1 -84 -60 -183 -131z"/>
<path d="M23526 17272 l-5 -9 155 -172 155 -171 10 6 11 6 -19 22 c-87 98
-295 326 -298 326 -2 0 -6 -4 -9 -8z"/>
<path d="M91836 16752 l-5 -9 107 -104 c59 -57 143 -138 187 -179 44 -41 143
-141 219 -223 l138 -147 9 6 9 5 -137 147 c-75 81 -173 181 -217 222 -44 41
-131 124 -192 183 l-112 109 -6 -10z"/>
<path d="M92371 16559 c-89 -67 -160 -124 -157 -126 2 -2 78 50 168 118 188
140 174 129 161 129 -5 0 -82 -55 -172 -121z"/>
<path d="M91486 16538 c20 -34 202 -233 252 -277 l56 -50 9 6 9 5 -51 45 c-28
24 -98 98 -157 164 -58 65 -110 119 -115 119 l-10 0 7 -12z"/>
<path d="M91920 16197 c0 -3 23 -24 50 -47 28 -23 50 -40 50 -37 0 3 -22 24
-50 47 -27 23 -50 40 -50 37z"/>
<path d="M92040 16096 c0 -2 8 -10 18 -17 l17 -14 -14 18 c-13 16 -21 21 -21
13z"/>
<path d="M93915 16072 c38 -39 331 -282 339 -282 l11 0 -21 18 c-12 9 -88 73
-169 142 -80 69 -151 127 -158 129 l-12 4 10 -11z"/>
<path d="M98174 14823 c-27 -31 -165 -192 -306 -357 -142 -164 -258 -304 -258
-309 l0 -11 8 10 c40 45 572 664 591 686 45 55 13 39 -35 -19z"/>
<path d="M94250 14561 c0 -10 332 -301 344 -301 21 0 -12 32 -156 157 -90 76
-169 142 -175 147 l-13 7 0 -10z"/>
<path d="M97424 14005 c-82 -96 -151 -181 -153 -187 l-3 -13 9 10 c50 51 304
357 301 361 -3 3 -72 -74 -154 -171z"/>
<path d="M96565 12938 c-124 -144 -151 -178 -142 -178 4 0 91 99 255 293 8 9
13 19 11 21 -2 2 -58 -59 -124 -136z"/>
<path d="M96030 13052 c0 -5 77 -73 171 -151 l170 -142 11 3 12 4 -176 147
c-97 81 -178 147 -182 147 -3 0 -6 -4 -6 -8z"/>
<path d="M22984 2232 c7 -11 313 -252 320 -252 21 0 -12 31 -149 138 -85 67
-160 122 -166 122 l-10 0 5 -8z"/>
<path d="M8360 1870 c-85 -4 -166 -10 -180 -14 -14 -3 -234 -51 -490 -106
l-465 -101 -90 -29 c-158 -50 -305 -116 -515 -233 -49 -27 -204 -121 -210
-127 -3 -3 -30 -27 -60 -54 -30 -27 -212 -205 -405 -396 -192 -190 -433 -425
-534 -522 l-184 -175 7 -12 8 -12 77 72 c42 40 281 274 531 519 250 246 484
472 520 504 l65 58 92 56 c52 32 137 82 191 113 l98 55 134 56 c199 83 223 90
744 203 l478 105 87 10 86 10 120 0 120 0 628 -46 628 -46 6 6 6 6 -6 7 -7 6
-653 48 c-358 27 -656 48 -662 47 -5 -1 -80 -4 -165 -8z"/>
<path d="M7990 1765 c-30 -7 -124 -28 -207 -46 l-153 -32 0 -8 0 -9 23 0 c12
1 112 20 221 44 l200 42 4 12 4 12 -19 -1 c-10 -1 -43 -7 -73 -14z"/>
<path d="M10790 1701 l0 -10 43 -5 c23 -3 127 -11 230 -17 l188 -11 6 6 6 6
-6 6 c-6 6 -347 33 -429 34 l-38 0 0 -9z"/>
<path d="M12200 1602 l0 -11 33 -5 c17 -3 100 -10 182 -16 83 -6 174 -13 203
-17 l52 -5 0 14 0 14 -167 12 c-93 7 -198 16 -235 19 l-68 6 0 -11z"/>
<path d="M14490 1378 l0 -14 178 -13 c97 -6 198 -15 225 -18 l47 -6 0 15 0 14
-177 13 c-98 6 -199 15 -225 18 l-48 6 0 -15z"/>
<path d="M16310 1285 c0 -8 4 -15 8 -15 5 0 105 -6 223 -14 118 -8 316 -20
442 -27 l227 -13 12 12 12 12 -19 0 c-27 1 -417 26 -670 45 -115 8 -216 15
-222 15 l-13 0 0 -15z"/>
<path d="M6199 993 c-96 -92 -363 -353 -593 -580 l-419 -413 21 0 21 0 408
403 c224 222 486 479 582 573 l175 171 -11 6 -11 7 -173 -167z"/>
</g>
</svg>
