<?xml version="1.0" standalone="no"?>
<!DOCTYPE svg PUBLIC "-//W3C//DTD SVG 20010904//EN"
 "http://www.w3.org/TR/2001/REC-SVG-20010904/DTD/svg10.dtd">
<svg version="1.0" xmlns="http://www.w3.org/2000/svg"
 width="7500.000000pt" height="7500.000000pt" viewBox="0 0 7500.000000 7500.000000"
 preserveAspectRatio="xMidYMid meet">
<metadata>
Created by potrace 1.16, written by Peter Selinger 2001-2019
</metadata>
<g transform="translate(0.000000,7500.000000) scale(0.075000,-0.075000)"
fill="#000000" stroke="none">
<path d="M89950 99631 c-5 -11 -10 -31 -10 -45 l0 -26 10 0 10 0 0 18 c0 10 7
27 15 38 l14 21 -6 7 c-11 11 -22 6 -33 -13z"/>
<path d="M82885 99272 c6 -6 78 -47 160 -92 83 -45 169 -93 193 -107 l42 -25
0 9 0 9 -191 105 c-106 57 -197 106 -203 108 l-11 4 10 -11z"/>
<path d="M83715 98872 l10 -11 65 -10 c36 -6 160 -15 275 -20 l210 -10 138 6
137 6 0 6 0 6 -308 0 -307 1 -97 12 c-53 6 -104 15 -115 18 l-18 7 10 -11z"/>
<path d="M84350 98800 c-74 -4 -147 -5 -162 -2 l-28 5 0 -13 0 -12 187 8 188
7 25 8 25 7 -50 0 c-27 -1 -111 -4 -185 -8z"/>
<path d="M11566 97711 l-6 -9 108 -99 c60 -54 162 -141 228 -194 125 -102 376
-279 394 -279 26 0 1 23 -112 100 -147 101 -402 305 -514 413 -83 79 -89 83
-98 68z"/>
<path d="M85400 97439 c0 -27 183 -302 228 -342 l20 -18 6 9 6 10 -16 13 c-20
17 -139 185 -188 266 -20 35 -41 65 -47 68 l-9 6 0 -12z"/>
<path d="M33733 94467 c-93 -94 -223 -246 -223 -261 l0 -10 8 10 c5 5 35 41
67 79 32 39 99 111 149 162 49 51 88 95 85 97 -3 3 -42 -32 -86 -77z"/>
<path d="M98471 94405 c9 -8 410 -165 422 -165 7 1 -82 39 -197 85 -187 76
-239 95 -225 80z"/>
<path d="M87837 93332 c-10 -10 -17 -22 -17 -27 l0 -8 21 19 21 18 70 -72 70
-72 19 0 c10 0 21 5 24 10 l6 10 29 0 c16 0 41 -5 56 -10 42 -16 42 -2 -1 16
l-38 16 -45 -12 -45 -11 -71 70 c-40 39 -74 71 -77 71 -3 0 -13 -8 -22 -18z"/>
<path d="M21420 92761 l0 -8 193 -58 c105 -32 199 -60 207 -63 l15 -5 -10 11
c-5 6 -93 36 -195 67 -102 31 -191 58 -197 60 l-13 4 0 -8z"/>
<path d="M21880 92620 l0 -13 7 6 6 7 -6 7 -7 6 0 -13z"/>
<path d="M21931 92607 c3 -4 41 -18 85 -31 43 -13 119 -38 168 -55 49 -18 91
-29 94 -26 7 7 4 9 -53 27 -27 9 -88 30 -135 47 -47 16 -103 33 -125 37 l-40
7 6 -6z"/>
<path d="M95265 91549 l-140 -170 -20 -5 -20 -6 -60 -68 -60 -68 -45 -85 c-25
-46 -51 -91 -58 -100 l-13 -15 9 -6 9 -5 20 22 c12 12 37 54 56 93 l36 71 61
71 61 70 22 6 22 7 139 167 c132 159 148 183 129 189 l-8 3 -140 -171z"/>
<path d="M94406 91172 c5 -5 28 -23 52 -41 l42 -33 0 9 c0 10 -83 73 -96 73
l-8 0 10 -8z"/>
<path d="M28743 90713 l7 -6 7 6 6 7 -13 0 -13 0 6 -7z"/>
<path d="M28773 90703 l7 -6 7 6 6 7 -13 0 -13 0 6 -7z"/>
<path d="M28813 90693 l7 -6 7 6 6 7 -13 0 -13 0 6 -7z"/>
<path d="M94255 90477 l-138 -134 7 -12 8 -12 139 136 c76 74 139 139 140 142
0 4 -3 9 -8 10 l-9 3 -139 -133z"/>
<path d="M95846 90301 c5 -4 55 -27 111 -50 133 -54 167 -74 231 -135 l52 -50
0 10 c0 12 -73 83 -115 111 -26 18 -268 123 -283 123 -3 0 -2 -4 4 -9z"/>
<path d="M30755 90140 l28 -29 140 -56 139 -56 6 6 c8 8 9 7 -138 65 l-135 53
-26 23 c-36 34 -48 30 -14 -6z"/>
<path d="M84306 89998 c-27 -60 -118 -380 -110 -387 11 -11 24 23 63 169 24
85 54 179 67 209 28 61 27 61 13 61 l-10 0 -23 -52z"/>
<path d="M97850 89297 l-325 -20 -122 -64 c-68 -36 -126 -69 -129 -75 -4 -6
51 20 121 57 l129 68 291 18 c159 10 310 19 335 21 l45 3 -10 6 -10 5 -325
-19z"/>
<path d="M86360 88980 c41 -5 125 -11 185 -15 l110 -6 65 10 65 9 -135 -1
c-74 0 -187 2 -250 5 l-115 6 75 -8z"/>
<path d="M85460 88949 c-36 -5 -171 -27 -300 -49 l-235 -40 -315 -70 -315 -70
-105 -11 c-140 -13 -150 -20 -20 -13 l105 6 335 74 c184 41 441 92 570 115
l235 41 193 5 192 5 0 9 0 9 -137 -1 -138 -1 -65 -9z"/>
<path d="M84325 88773 c-38 -7 -110 -20 -160 -28 l-90 -14 75 5 75 5 115 23
115 24 -30 0 c-16 0 -61 -7 -100 -15z"/>
<path d="M85066 88496 c-20 -36 -106 -205 -192 -378 -86 -172 -235 -461 -330
-643 l-173 -330 -67 -155 c-37 -85 -70 -159 -74 -163 l-7 -8 -257 71 c-241 66
-286 76 -275 66 3 -3 122 -37 264 -76 143 -39 265 -72 271 -74 l11 -4 73 166
c88 201 114 254 285 577 141 266 518 1015 511 1015 -2 0 -20 -29 -40 -64z"/>
<path d="M85133 88538 c-13 -17 -193 -364 -193 -372 l0 -7 9 6 c13 7 204 375
198 381 -2 2 -9 -1 -14 -8z"/>
<path d="M79342 88063 c-86 -518 -112 -682 -112 -699 l0 -18 9 10 9 9 21 130
c26 154 129 758 137 798 l6 27 -14 0 -13 0 -43 -257z"/>
<path d="M97970 87986 c0 -6 222 -376 237 -395 2 -2 5 -2 7 0 4 4 -221 380
-237 396 l-7 6 0 -7z"/>
<path d="M84307 86898 l-46 -103 -15 -9 -14 -10 -276 76 c-152 41 -276 72
-276 68 0 -5 553 -160 572 -160 8 0 111 230 105 236 -2 2 -25 -42 -50 -98z"/>
<path d="M83555 86763 c-9 -43 -34 -154 -55 -248 -36 -157 -40 -189 -23 -172
5 6 112 468 113 490 0 4 -4 7 -9 7 l-9 0 -17 -77z"/>
<path d="M83571 86592 c-29 -130 -56 -243 -59 -251 l-5 -14 14 5 13 4 53 230
c53 235 58 264 46 264 l-8 0 -54 -238z"/>
<path d="M80020 85971 c61 -33 397 -181 411 -181 15 0 -392 186 -426 195 l-20
6 35 -20z"/>
<path d="M80435 85749 c-2 -8 -36 -105 -75 -216 l-69 -203 7 0 c9 0 154 422
147 428 -2 3 -7 -1 -10 -9z"/>
<path d="M68146 85291 l-29 -6 -5 -14 -4 -13 33 8 34 8 89 -2 89 -3 119 -18
119 -18 5 9 c3 5 4 11 3 12 -2 2 -68 13 -146 25 l-142 21 -68 -1 c-37 -1 -81
-4 -97 -8z"/>
<path d="M68190 85243 c-14 -2 -35 -6 -47 -8 l-23 -5 0 -10 0 -10 78 6 77 6
153 -22 154 -22 6 6 5 6 -7 7 c-8 8 -308 52 -346 51 -14 0 -36 -2 -50 -5z"/>
<path d="M28770 85150 l0 -10 41 0 40 0 122 -31 c67 -17 148 -34 180 -38 l57
-7 0 8 0 8 -31 0 c-16 0 -92 15 -167 34 -75 19 -161 37 -189 40 l-53 7 0 -11z"/>
<path d="M88295 84962 l10 -10 220 -62 c121 -34 226 -63 233 -65 l12 -4 0 8 0
8 -227 63 c-126 35 -235 65 -243 68 l-15 5 10 -11z"/>
<path d="M88257 84943 c-10 -17 -188 -696 -183 -700 3 -3 10 15 16 38 167 620
186 694 167 662z"/>
<path d="M80040 84726 l-62 -186 4 -16 3 -17 40 -13 40 -14 -19 15 c-11 8 -25
15 -32 15 -7 0 -16 5 -19 10 l-6 11 61 185 c34 102 60 188 57 190 -3 3 -33
-78 -67 -180z"/>
<path d="M85645 84760 c-58 -15 -112 -46 -228 -130 l-117 -85 0 -14 0 -13 13
9 c84 66 217 158 264 181 l58 30 43 7 42 7 -6 9 c-6 10 -26 10 -69 -1z"/>
<path d="M22770 84641 l0 -9 365 -162 366 -163 5 6 6 5 -19 10 c-17 9 -618
278 -690 308 l-33 14 0 -9z"/>
<path d="M82546 84402 c-3 -5 -2 -18 1 -30 l5 -22 14 0 c16 0 16 5 8 38 -6 22
-19 29 -28 14z"/>
<path d="M24326 83952 l-5 -9 57 -23 c46 -19 334 -143 790 -341 l44 -19 -4 11
-4 12 -364 159 c-201 88 -395 173 -432 189 -74 32 -75 32 -82 21z"/>
<path d="M13300 83682 l0 -9 191 -42 191 -43 92 -9 c167 -18 300 -28 369 -28
l67 -1 0 9 0 8 -142 7 c-78 4 -185 14 -237 21 -53 8 -110 15 -127 15 -17 0
-111 18 -209 40 -194 44 -195 44 -195 32z"/>
<path d="M84127 83558 c5 -7 56 -79 112 -160 56 -81 108 -151 114 -155 l11 -7
-19 30 c-69 106 -211 303 -219 304 l-8 0 9 -12z"/>
<path d="M77920 83470 c0 -3 88 -35 196 -69 l195 -63 6 6 6 6 -14 5 c-8 3 -98
31 -201 64 l-188 58 0 -7z"/>
<path d="M76640 82773 c-129 -206 -239 -382 -243 -389 l-8 -14 8 0 c4 0 26 31
49 68 23 37 130 210 239 385 109 175 196 320 193 322 -2 2 -109 -165 -238
-372z"/>
<path d="M92831 82887 c-24 -34 -81 -117 -128 -184 -46 -68 -81 -123 -76 -123
4 0 40 46 78 102 39 57 94 138 124 181 29 43 52 80 49 82 -2 3 -24 -23 -47
-58z"/>
<path d="M76550 82553 c-63 -102 -116 -193 -118 -202 -2 -9 40 54 93 139 124
198 148 240 144 245 -3 2 -56 -80 -119 -182z"/>
<path d="M86506 82628 c-3 -62 -7 -164 -9 -225 l-3 -113 6 0 7 0 7 221 c7 233
2 310 -8 117z"/>
<path d="M18010 82072 l0 -8 193 -46 c105 -25 207 -49 225 -52 l32 -5 0 9 0
10 -22 4 c-13 2 -111 25 -218 50 -210 50 -210 50 -210 38z"/>
<path d="M96384 81724 c-69 -96 -124 -177 -121 -180 2 -3 58 71 124 163 129
181 137 193 129 193 -3 0 -62 -79 -132 -176z"/>
<path d="M90760 81856 l0 -25 10 -6 10 -6 0 30 0 31 -10 0 -10 0 0 -24z"/>
<path d="M96460 81763 c-41 -59 -97 -138 -123 -175 -27 -37 -45 -68 -40 -68 7
1 219 291 246 336 l8 14 -8 0 c-4 -1 -42 -49 -83 -107z"/>
<path d="M95999 81123 c-18 -26 -75 -106 -127 -177 -51 -70 -91 -130 -89 -133
3 -2 58 69 123 158 135 184 138 189 131 195 -3 3 -20 -16 -38 -43z"/>
<path d="M42550 80837 c0 -7 15 -59 34 -115 l35 -102 7 -105 7 -105 13 0 c8 0
14 3 14 8 0 4 -5 52 -10 106 l-10 100 -37 113 -37 113 -8 0 c-4 0 -8 -6 -8
-13z"/>
<path d="M95507 80502 c-131 -184 -236 -336 -234 -339 6 -5 479 658 475 666
-2 4 -110 -143 -241 -327z"/>
<path d="M7177 80464 l-6 -7 77 -61 c90 -71 659 -475 680 -484 l15 -5 -5 14
-5 14 -296 210 c-163 116 -329 236 -370 268 -78 60 -80 61 -90 51z"/>
<path d="M95478 80388 c-134 -183 -176 -243 -172 -247 5 -6 -3 -16 107 136
112 155 131 183 123 183 -3 0 -29 -32 -58 -72z"/>
<path d="M99966 80002 c-36 -74 -166 -385 -166 -396 1 -6 32 63 70 154 38 91
81 189 95 219 14 29 24 55 22 57 -2 2 -12 -13 -21 -34z"/>
<path d="M42478 79973 c-16 -20 -188 -414 -188 -432 0 -33 21 3 74 127 48 109
116 260 144 315 7 14 -15 7 -30 -10z"/>
<path d="M99537 79126 c-49 -111 -91 -208 -94 -216 l-6 -15 10 10 c14 14 185
405 181 414 -2 5 -43 -82 -91 -193z"/>
<path d="M99201 78225 c-29 -86 -51 -158 -49 -161 7 -6 111 293 106 306 -2 6
-27 -60 -57 -145z"/>
<path d="M41830 78220 c0 -9 39 -25 46 -18 2 3 -7 10 -21 16 l-25 12 0 -10z"/>
<path d="M44013 77948 c-39 -62 -520 -924 -517 -927 2 -2 6 -2 7 0 5 5 499
884 516 917 12 23 8 31 -6 10z"/>
<path d="M71130 77120 l0 -10 470 0 470 0 0 10 0 10 -470 0 -470 0 0 -10z"/>
<path d="M15987 76627 l-3 -11 200 -92 201 -92 8 5 9 5 -9 8 c-4 4 -97 48
-205 98 l-197 90 -4 -11z"/>
<path d="M74550 76631 c0 -6 5 -13 10 -16 l10 -6 0 15 0 16 -10 0 c-5 0 -10
-4 -10 -9z"/>
<path d="M69025 76260 c-37 -44 -70 -80 -74 -80 -4 0 -25 15 -47 34 -21 18
-53 40 -71 50 l-32 16 -28 -1 -28 -1 25 -7 c49 -15 96 -44 138 -85 l43 -41 17
22 c9 12 45 56 80 97 l63 76 -9 0 c-6 0 -40 -36 -77 -80z"/>
<path d="M45125 75130 l-7 -12 10 -10 10 -10 7 12 7 12 -10 10 -10 10 -7 -12z"/>
<path d="M35050 74430 c0 -5 4 -10 9 -10 5 0 67 -35 137 -78 127 -77 166 -96
232 -112 l32 -8 0 8 0 8 -57 18 -57 18 -106 64 c-104 63 -174 102 -185 102 -3
0 -5 -4 -5 -10z"/>
<path d="M34167 73964 l-6 -10 127 -127 127 -128 45 -25 c50 -29 92 -43 318
-110 l154 -45 6 5 c9 10 4 11 -183 66 l-180 52 -79 39 -79 39 -122 127 -121
127 -7 -10z"/>
<path d="M36530 73303 c0 -3 6 -14 13 -22 8 -9 23 -43 35 -76 l21 -60 17 -147
17 -148 9 0 8 0 0 19 c0 10 -9 83 -20 162 l-19 144 -18 45 c-25 61 -42 90 -53
90 -6 0 -10 -3 -10 -7z"/>
<path d="M72255 72552 c9 -10 342 -162 354 -162 23 0 -141 78 -329 157 l-35
15 10 -10z"/>
<path d="M71952 72374 c-73 -84 -135 -161 -139 -170 l-6 -16 15 3 15 4 132
153 c72 84 131 157 131 162 0 5 -3 11 -7 13 l-8 5 -133 -154z"/>
<path d="M72030 72263 l-35 -26 -80 -100 c-44 -55 -95 -120 -114 -144 l-34
-44 9 -9 9 -9 119 149 c66 83 121 148 123 146 3 -2 -7 -26 -20 -53 -14 -26
-46 -108 -72 -181 l-47 -133 6 -6 6 -7 9 10 c4 5 25 59 46 119 21 61 59 153
84 205 25 52 47 98 49 103 l4 7 -14 0 c-7 -1 -29 -13 -48 -27z"/>
<path d="M74399 70680 l-5 -75 28 -175 c33 -205 98 -563 104 -569 2 -2 6 -2 9
0 4 4 -42 257 -101 564 l-16 80 -7 125 -7 125 -5 -75z"/>
<path d="M74439 70680 l-5 -75 63 -360 c35 -198 65 -364 67 -370 l4 -10 1 15
c0 8 -24 155 -55 325 l-56 310 -7 120 -7 120 -5 -75z"/>
<path d="M76690 69755 c-21 -25 -5 -28 31 -6 l34 21 -26 0 -27 0 -12 -15z"/>
<path d="M50148 69679 c-10 -5 -18 -15 -18 -21 l0 -10 23 7 c12 4 33 8 46 9
l25 3 4 11 4 12 -34 0 -33 -1 -17 -10z"/>
<path d="M48407 68873 l-7 -6 11 -14 11 -13 38 0 38 0 12 15 13 15 -6 7 -6 6
-31 -13 -31 -13 -12 12 c-13 13 -21 14 -30 4z"/>
<path d="M70380 68800 c0 -16 183 -441 188 -435 3 2 -11 42 -30 87 -19 46 -61
145 -93 221 -54 129 -65 151 -65 127z"/>
<path d="M18565 68715 c-82 -7 -163 -14 -179 -14 l-29 -1 6 -6 6 -6 178 12
c98 6 189 16 203 20 l25 8 -30 0 c-16 0 -97 -6 -180 -13z"/>
<path d="M77758 68511 l-216 -6 -9 -9 -8 -9 115 7 c63 3 175 6 248 6 l132 0 0
10 0 10 -22 -2 c-13 -1 -121 -4 -240 -7z"/>
<path d="M38440 68422 c28 -19 872 -353 878 -348 2 3 -6 10 -19 15 -13 5 -206
82 -429 171 -223 90 -414 165 -425 167 l-20 4 15 -9z"/>
<path d="M2530 68079 l0 -15 53 -51 52 -51 129 -85 129 -86 10 6 9 5 -129 85
-128 85 -62 61 -63 61 0 -15z"/>
<path d="M71385 67564 c-3 -22 -19 -82 -35 -134 l-29 -96 -56 -74 c-30 -40
-55 -78 -55 -84 l0 -10 9 10 c4 5 33 43 63 84 l56 75 20 65 c23 72 46 189 38
197 -2 3 -7 -12 -11 -33z"/>
<path d="M44004 67365 c-3 -8 -4 -19 -2 -24 l3 -10 12 24 11 25 -9 0 c-5 0
-12 -7 -15 -15z"/>
<path d="M3702 67330 l4 -14 145 -89 c79 -49 163 -100 186 -113 l41 -25 6 9 6
9 -173 104 c-94 56 -183 110 -196 118 l-24 15 5 -14z"/>
<path d="M45494 66772 c-96 -135 -218 -331 -210 -339 5 -5 12 5 90 134 30 51
90 141 134 200 43 59 82 114 86 121 l7 12 -8 0 c-4 0 -49 -58 -99 -128z"/>
<path d="M4467 66873 l-5 -8 184 -132 184 -132 5 9 5 9 -32 24 c-77 57 -330
237 -333 237 -2 0 -6 -3 -8 -7z"/>
<path d="M47722 66743 c-34 -65 -83 -154 -110 -198 -28 -44 -48 -82 -46 -84 5
-6 5 -7 61 84 60 98 166 305 160 311 -3 3 -32 -48 -65 -113z"/>
<path d="M37060 66799 c-80 -5 -154 -10 -165 -13 -32 -7 333 6 389 14 l51 8
-65 -1 c-36 0 -130 -4 -210 -8z"/>
<path d="M75902 66598 c-106 -61 -190 -113 -188 -115 3 -3 96 47 208 111 112
64 196 116 188 115 -8 0 -102 -50 -208 -111z"/>
<path d="M77803 66581 l-181 -6 -7 -7 -7 -7 218 6 219 5 30 8 30 8 -60 -1
c-33 0 -142 -3 -242 -6z"/>
<path d="M35265 66389 c-192 -48 -361 -89 -375 -90 l-25 -1 18 -5 17 -5 358
88 c196 48 361 91 367 95 l9 9 -9 -1 c-6 -1 -167 -41 -360 -90z"/>
<path d="M41270 66366 c0 -2 37 -28 83 -57 45 -29 174 -113 286 -187 112 -74
210 -136 218 -139 l13 -5 0 8 c-1 9 -161 114 -448 294 -138 87 -152 95 -152
86z"/>
<path d="M44245 66293 c6 -6 69 -28 140 -48 72 -21 158 -45 193 -55 l62 -19 0
8 0 7 -187 53 c-104 30 -195 56 -203 59 l-15 5 10 -10z"/>
<path d="M41590 66266 c0 -6 310 -207 328 -213 10 -2 -58 45 -151 106 -159
105 -177 116 -177 107z"/>
<path d="M97256 66184 l-209 -52 -268 -53 -267 -52 4 -12 5 -11 247 47 c212
42 698 154 711 166 3 2 0 7 -5 12 l-9 8 -209 -53z"/>
<path d="M97551 65973 c21 -103 41 -198 44 -211 l6 -23 8 5 9 6 -42 202 -42
202 -11 3 -11 4 39 -188z"/>
<path d="M97467 66143 l-5 -8 41 -203 42 -202 7 0 c5 0 8 6 8 14 0 19 -79 399
-84 404 -2 2 -6 0 -9 -5z"/>
<path d="M94460 66096 c0 -11 59 -366 66 -395 3 -13 7 -22 9 -19 6 5 -60 407
-68 415 l-7 6 0 -7z"/>
<path d="M45003 66063 c-46 -65 -144 -226 -140 -230 2 -2 41 53 86 123 45 70
80 128 78 131 -3 2 -14 -8 -24 -24z"/>
<path d="M49151 65943 c5 -15 341 -254 348 -248 5 6 22 -6 -144 110 -77 54
-155 110 -174 124 l-34 26 4 -12z"/>
<path d="M48982 65719 c-73 -122 -131 -226 -130 -230 2 -5 63 91 136 212 73
122 131 226 130 230 -2 5 -63 -91 -136 -212z"/>
<path d="M49130 65906 c0 -3 79 -61 175 -130 96 -69 175 -122 175 -117 0 4
-73 60 -162 123 -177 124 -188 132 -188 124z"/>
<path d="M51367 65679 c-112 -250 -147 -332 -143 -337 3 -2 10 6 15 19 5 13
43 100 85 193 42 93 74 172 71 174 -2 2 -15 -20 -28 -49z"/>
<path d="M46993 65502 c-55 -86 -140 -221 -188 -299 l-87 -143 -9 0 -9 0 0
-16 0 -16 12 4 13 5 99 -44 c55 -24 101 -41 104 -38 3 2 -15 13 -39 24 -24 10
-70 30 -102 44 l-58 26 12 23 c28 53 150 245 251 396 60 90 112 170 115 178
l5 14 -8 0 c-5 0 -55 -71 -111 -158z"/>
<path d="M48866 65438 c-51 -81 -243 -428 -237 -428 6 0 121 196 238 405 25
46 25 63 -1 23z"/>
<path d="M29030 65430 l-15 -10 23 0 22 0 0 10 c0 13 -11 13 -30 0z"/>
<path d="M38461 64933 c-17 -142 -34 -268 -37 -280 l-4 -23 7 0 8 0 35 280
c19 154 33 280 29 280 -3 0 -20 -116 -38 -257z"/>
<path d="M70429 65018 c21 -40 69 -129 106 -198 37 -69 71 -129 77 -135 l11
-10 -4 11 c-12 33 -215 404 -222 404 l-8 0 40 -72z"/>
<path d="M40145 64942 l10 -9 194 -27 c107 -14 197 -24 199 -21 6 6 -26 12
-203 35 -88 12 -171 23 -185 26 l-25 5 10 -9z"/>
<path d="M31425 64906 c-55 -18 -237 -108 -230 -114 2 -3 58 19 122 49 l118
54 85 1 85 1 185 -23 c102 -12 205 -26 230 -29 l45 -7 -10 10 -10 9 -225 26
c-124 14 -254 28 -290 31 l-65 5 -40 -13z"/>
<path d="M40534 64845 c4 -11 30 -85 58 -165 27 -80 54 -149 59 -155 6 -5 -15
64 -47 155 -31 91 -61 170 -67 175 l-10 10 7 -20z"/>
<path d="M970 64694 c-58 -7 -143 -17 -190 -23 l-85 -9 110 5 c116 5 303 27
312 37 l6 6 -24 -1 c-13 -1 -71 -7 -129 -15z"/>
<path d="M44670 64567 c9 -9 951 -337 969 -337 15 1 -897 324 -949 337 -14 3
-23 3 -20 0z"/>
<path d="M1441 64511 l-13 -8 16 -6 15 -6 45 -88 44 -88 180 -160 c99 -87 185
-161 192 -163 l13 -4 -4 9 c-2 6 -87 84 -187 174 l-184 163 -44 87 c-24 48
-47 90 -52 93 l-8 5 -13 -8z"/>
<path d="M37530 64503 l0 -20 115 -7 c63 -3 167 -9 230 -12 l115 -7 0 20 0 20
-115 7 c-63 3 -167 9 -230 12 l-115 7 0 -20z"/>
<path d="M74799 64519 c-1 -2 -9 -105 -18 -227 l-16 -224 8 -5 7 -4 0 38 c0
21 7 123 15 228 7 104 12 192 9 194 -2 2 -5 2 -5 0z"/>
<path d="M40660 64150 c0 -13 11 -13 30 0 l15 10 -22 0 -23 0 0 -10z"/>
<path d="M40668 64122 l-47 -27 -21 -27 -21 -27 11 -20 c15 -29 208 -245 223
-250 l12 -4 -31 34 c-104 114 -194 220 -194 228 0 5 3 16 6 25 l6 16 54 30
c29 17 56 35 59 41 l6 9 -8 0 c-4 0 -29 -13 -55 -28z"/>
<path d="M89355 64064 c-36 -38 -65 -73 -65 -79 0 -5 29 21 63 59 l63 69 12
-7 c18 -11 415 -475 445 -521 15 -22 27 -35 27 -29 0 22 -80 124 -261 334
-102 118 -193 221 -203 229 l-17 14 -64 -69z"/>
<path d="M40072 64085 l-12 -25 9 0 c4 0 13 11 19 25 l12 25 -9 0 c-4 0 -13
-11 -19 -25z"/>
<path d="M49005 64073 c10 -10 128 -62 575 -253 168 -71 765 -322 900 -377
l35 -15 -10 11 c-6 5 -174 80 -375 164 -471 199 -735 311 -940 399 -91 38
-172 72 -180 75 l-15 6 10 -10z"/>
<path d="M89371 64024 c-28 -32 -51 -62 -51 -67 0 -5 23 16 51 47 l51 56 185
-213 185 -212 39 -60 39 -60 0 13 c0 26 -85 137 -257 335 -97 111 -179 206
-183 210 l-7 8 -52 -57z"/>
<path d="M59588 63783 l-46 -87 -124 -53 -123 -53 22 0 22 0 106 46 105 47 46
84 c25 46 44 88 42 93 l-3 10 -47 -87z"/>
<path d="M40790 63734 c0 -5 225 -260 273 -309 l19 -20 -3 12 c-4 13 -278 323
-285 323 -2 0 -4 -3 -4 -6z"/>
<path d="M42432 63654 c27 -63 187 -254 212 -254 l10 0 -55 58 c-61 62 -149
175 -149 190 0 5 -7 15 -16 22 l-15 13 13 -29z"/>
<path d="M41705 63630 l-6 -10 10 0 c6 0 11 5 11 10 0 6 -2 10 -4 10 -3 0 -8
-4 -11 -10z"/>
<path d="M41172 63528 c-51 -45 -90 -83 -88 -86 6 -6 186 148 186 159 0 13 4
16 -98 -73z"/>
<path d="M41760 63575 c0 -4 25 -37 55 -72 30 -35 73 -91 97 -124 l42 -61 4
12 4 11 -70 92 c-70 91 -132 158 -132 142z"/>
<path d="M40392 63535 l17 -20 -7 -10 c-4 -6 -77 -71 -162 -144 -85 -74 -159
-138 -164 -143 l-10 -8 11 0 c13 0 343 287 343 299 0 4 -10 16 -22 27 l-23 19
17 -20z"/>
<path d="M40490 63495 l-12 -14 94 -108 c76 -89 457 -521 505 -573 l13 -14 14
14 15 15 -156 175 c-86 96 -220 250 -299 342 -78 91 -147 169 -152 172 l-10 6
-12 -15z"/>
<path d="M43164 63349 c-21 -23 -149 -136 -284 -252 -258 -220 -398 -347 -384
-347 5 1 29 19 54 41 25 23 167 146 315 274 268 231 353 310 344 320 -3 2 -23
-14 -45 -36z"/>
<path d="M43239 63353 l-14 -16 23 12 c23 12 28 21 13 21 -5 0 -15 -7 -22 -17z"/>
<path d="M49455 63180 c-59 -99 -106 -182 -104 -185 3 -2 53 77 113 176 59 99
106 182 103 185 -2 2 -53 -77 -112 -176z"/>
<path d="M16357 63315 l-17 -36 0 -39 0 -40 29 -32 29 -33 7 7 7 7 -26 31 -26
32 0 28 c0 15 7 44 15 63 17 42 18 47 7 47 -5 0 -16 -16 -25 -35z"/>
<path d="M95010 63089 c-310 -234 -381 -293 -405 -340 l-14 -27 -203 74 -202
74 -8 -8 -8 -8 205 -74 205 -74 0 -8 c0 -4 5 -8 10 -8 l10 0 10 25 c5 14 30
48 56 75 l46 49 309 232 c274 205 330 251 302 248 -5 0 -145 -104 -313 -230z"/>
<path d="M95040 63039 l-315 -238 -41 -45 -42 -46 -32 -67 c-17 -38 -65 -165
-105 -283 -40 -118 -89 -250 -109 -293 l-35 -78 -107 -127 c-59 -70 -123 -144
-142 -164 l-36 -38 8 -7 8 -8 44 48 c24 27 91 105 148 173 l104 124 42 103
c24 56 71 185 105 287 35 102 76 214 93 250 l30 65 37 43 37 42 306 231 c169
127 313 237 320 244 l14 13 -9 4 -8 5 -315 -238z"/>
<path d="M97580 63146 c0 -2 17 -15 38 -27 50 -31 65 -51 112 -143 l40 -78 1
-37 c1 -20 5 -47 10 -61 l9 -25 -5 68 -4 69 -25 54 c-14 29 -37 70 -53 91 -37
49 -123 111 -123 89z"/>
<path d="M51270 63102 l0 -9 158 -66 c86 -36 166 -69 177 -73 l20 -7 -10 11
c-5 5 -82 40 -170 77 -88 37 -163 69 -167 72 l-8 4 0 -9z"/>
<path d="M81116 63045 c7 -19 14 -46 14 -61 l0 -27 -26 -34 -25 -33 -86 -44
-86 -43 10 -6 10 -6 89 47 88 47 23 34 23 34 0 29 c0 16 -7 44 -14 63 l-15 35
-10 0 -10 0 15 -35z"/>
<path d="M90725 63015 l-25 -24 0 -39 0 -40 15 -12 16 -13 -7 41 -7 42 17 26
17 25 37 -1 c20 -1 42 -1 47 -1 l10 1 -15 10 -15 10 -33 0 -33 0 -24 -25z"/>
<path d="M58658 62922 c-37 -20 -68 -41 -68 -45 l0 -8 77 42 77 42 340 -27
c188 -15 357 -30 376 -33 l35 -5 -10 9 -10 10 -335 27 c-184 14 -353 26 -375
26 l-40 -1 -67 -37z"/>
<path d="M17735 62938 c-266 -7 -882 -42 -954 -54 -18 -3 -31 -7 -28 -10 2 -3
160 7 349 21 l345 25 154 0 c85 0 225 3 312 7 l157 6 0 9 0 8 -27 -2 c-16 -1
-154 -5 -308 -10z"/>
<path d="M16005 62909 l19 -12 266 -8 c146 -5 286 -10 313 -12 l47 -4 0 8 0 9
-17 1 c-10 0 -146 4 -303 9 -157 5 -298 11 -315 15 l-30 6 20 -12z"/>
<path d="M58675 62888 c-33 -18 -146 -93 -252 -165 l-192 -132 -218 -177
c-120 -96 -220 -181 -222 -187 -2 -6 18 7 45 28 27 22 127 102 222 179 l172
138 172 -72 c95 -40 188 -79 206 -87 l34 -14 -6 9 c-3 5 -91 45 -195 88 -105
43 -191 82 -191 85 0 3 90 67 201 143 l201 138 54 25 53 24 113 -10 c62 -6
124 -10 138 -10 l25 2 -45 7 c-25 4 -92 11 -150 14 l-105 7 -60 -33z"/>
<path d="M59950 62859 l0 -6 163 -12 c89 -6 191 -14 227 -18 l65 -6 -7 7 -6 8
-221 17 -221 17 0 -7z"/>
<path d="M11628 62763 c12 -2 30 -2 40 0 l17 5 -40 -1 -40 0 23 -4z"/>
<path d="M42932 62515 c-122 -105 -230 -200 -240 -210 l-17 -18 15 9 c14 7
410 344 454 385 11 10 18 20 15 22 -2 2 -104 -82 -227 -188z"/>
<path d="M16665 62598 l-7 -63 -135 -270 c-73 -148 -127 -261 -118 -250 9 11
72 131 140 266 l124 246 7 66 c4 37 4 67 1 67 -3 0 -8 -28 -12 -62z"/>
<path d="M49130 62652 c0 -4 28 -24 63 -44 l62 -37 190 -76 c105 -42 239 -97
299 -122 59 -24 111 -42 113 -39 3 3 -6 10 -21 15 -193 74 -591 246 -647 281
-53 32 -59 34 -59 22z"/>
<path d="M42150 62455 c-118 -102 -223 -194 -232 -206 l-18 -21 1 -17 0 -16
11 22 11 22 223 191 c123 105 224 195 224 201 0 5 -1 9 -2 9 -2 -1 -100 -84
-218 -185z"/>
<path d="M89015 62351 c17 -16 97 -86 179 -155 l149 -125 9 5 c5 3 8 7 6 9
-120 105 -352 295 -361 295 l-12 0 30 -29z"/>
<path d="M94416 62257 c-16 -45 -49 -122 -74 -172 l-45 -90 -46 -55 c-25 -30
-84 -97 -130 -148 l-84 -92 6 -6 5 -5 85 88 c47 48 108 117 137 153 l52 65 35
70 c34 66 103 245 103 265 0 31 -19 0 -44 -73z"/>
<path d="M44370 62327 c0 -5 279 -334 341 -401 l9 -10 0 10 c0 5 -68 88 -151
184 -163 190 -199 229 -199 217z"/>
<path d="M80185 62248 c-14 -47 -94 -422 -90 -426 10 -10 16 8 60 204 25 109
47 207 49 217 l4 17 -9 0 c-5 0 -11 -6 -14 -12z"/>
<path d="M59525 62063 c8 -9 350 -161 405 -181 l15 -5 -10 10 c-8 9 -350 161
-405 181 l-15 5 10 -10z"/>
<path d="M94400 61966 c25 -23 296 -193 320 -201 l23 -7 -7 11 c-4 6 -12 11
-17 11 -6 0 -80 45 -165 100 -148 95 -186 117 -154 86z"/>
<path d="M62495 61903 c4 -27 9 -56 12 -66 l4 -17 8 4 8 5 -8 48 c-4 26 -8 54
-8 61 l-1 12 -11 0 -10 0 6 -47z"/>
<path d="M14531 61906 c17 -17 306 -72 412 -79 l57 -4 0 9 0 8 -51 0 -51 0
-137 25 c-75 14 -152 29 -171 35 -36 10 -67 13 -59 6z"/>
<path d="M14521 61866 c16 -17 292 -69 422 -80 l57 -5 0 10 0 9 -53 0 -53 0
-139 25 c-77 14 -156 29 -175 35 -36 10 -67 13 -59 6z"/>
<path d="M43695 61643 c-126 -114 -232 -211 -234 -217 -5 -14 17 5 263 224
113 101 206 187 206 192 0 4 -1 8 -2 7 -2 0 -106 -93 -233 -206z"/>
<path d="M80131 61748 c-6 -29 -24 -127 -41 -217 l-31 -164 8 -8 9 -9 38 202
c21 112 40 213 43 226 l5 22 -10 0 -11 0 -10 -52z"/>
<path d="M60628 61613 l-18 -4 0 -11 0 -10 23 6 c12 3 30 6 40 6 l17 0 0 10 0
10 -22 -1 c-13 -1 -31 -3 -40 -6z"/>
<path d="M22312 61605 c3 -3 90 -34 193 -70 l188 -64 8 5 c5 3 9 9 9 14 l0 8
-17 -4 -18 -5 -175 61 c-164 57 -200 67 -188 55z"/>
<path d="M55570 61600 c0 -16 79 -448 86 -469 2 -8 6 -12 9 -9 5 5 -82 478
-90 486 -3 3 -5 -1 -5 -8z"/>
<path d="M55530 61597 c0 -3 18 -95 40 -204 22 -109 42 -224 46 -255 l7 -58 8
0 9 0 -5 28 c-45 266 -88 478 -99 489 l-6 6 0 -6z"/>
<path d="M58220 61512 c0 -5 373 -173 424 -191 l11 -3 -10 10 c-9 9 -78 40
-382 173 l-43 18 0 -7z"/>
<path d="M58206 61472 c16 -15 426 -193 431 -188 3 3 -10 11 -28 19 -19 8
-116 51 -217 96 -177 79 -206 90 -186 73z"/>
<path d="M60252 61259 l-153 -151 6 -6 5 -6 43 39 c98 91 267 260 267 267 0
19 -24 -2 -168 -143z"/>
<path d="M54550 61373 c0 -10 96 -422 106 -456 3 -10 8 -17 10 -14 2 2 -20
109 -51 237 -49 209 -65 265 -65 233z"/>
<path d="M57870 61337 c0 -4 76 -128 168 -275 93 -147 208 -334 257 -417 98
-168 93 -160 100 -154 8 9 -479 804 -516 844 l-9 9 0 -7z"/>
<path d="M61240 61147 c0 -4 25 -123 55 -264 50 -233 66 -293 65 -252 -1 24
-108 510 -114 517 l-6 5 0 -6z"/>
<path d="M92790 60972 l0 -11 61 -36 62 -36 119 -46 c65 -25 121 -43 123 -41
3 2 -44 24 -103 48 -112 45 -201 89 -239 116 l-23 16 0 -10z"/>
<path d="M60803 60787 c3 -7 22 -97 43 -200 21 -103 41 -187 44 -187 l7 0 -41
200 -41 200 -9 0 -8 0 5 -13z"/>
<path d="M44181 60703 c4 -13 291 -334 329 -368 11 -10 20 -15 20 -12 0 6
-289 328 -337 377 l-15 15 3 -12z"/>
<path d="M53485 60573 l8 -48 -1 -165 c-1 -91 -4 -185 -7 -210 l-5 -45 10 25
11 25 2 160 c1 88 0 193 -2 233 l-4 72 -10 0 -9 0 7 -47z"/>
<path d="M83260 60528 c-74 -43 -141 -83 -149 -87 l-14 -9 23 -36 c12 -21 25
-35 27 -32 3 3 -2 17 -11 31 l-17 26 6 8 c2 5 65 44 137 86 147 86 143 83 137
89 -2 2 -65 -32 -139 -76z"/>
<path d="M78010 60520 l0 -13 7 6 6 7 -6 7 -7 6 0 -13z"/>
<path d="M57310 60460 c0 -5 12 -40 26 -77 14 -38 31 -95 37 -127 l13 -60 11
-3 11 -4 -13 63 c-8 35 -18 76 -24 91 -6 16 -11 33 -11 38 l0 10 62 -51 c59
-50 131 -100 144 -100 16 0 -8 23 -83 79 l-83 62 -36 45 c-35 43 -54 55 -54
34z"/>
<path d="M58343 60423 l7 -6 7 6 6 7 -13 0 -13 0 6 -7z"/>
<path d="M62083 60257 c-354 -72 -643 -134 -643 -138 0 -7 1266 247 1295 260
l20 10 -15 -1 c-8 0 -304 -59 -657 -131z"/>
<path d="M58412 60288 l43 -82 17 -10 17 -10 73 13 c40 8 87 16 103 18 l30 5
107 -219 c90 -183 165 -350 191 -425 l6 -17 23 19 c13 11 91 70 173 131 83 62
152 114 154 116 2 1 2 5 0 7 -2 3 -75 -49 -162 -114 -87 -65 -164 -121 -171
-123 l-14 -6 -72 172 -72 172 -80 153 c-44 83 -83 152 -86 152 -4 0 -49 -10
-100 -22 l-93 -22 -17 10 -17 10 -40 77 c-22 42 -44 77 -48 77 l-8 0 43 -82z"/>
<path d="M59888 60213 c-95 -81 -165 -144 -156 -140 17 6 338 275 338 283 0
10 -19 -4 -182 -143z"/>
<path d="M44561 60343 c6 -18 331 -365 337 -359 2 3 -60 74 -138 158 -178 190
-203 216 -199 201z"/>
<path d="M62570 60314 c-91 -19 -279 -57 -419 -86 -140 -28 -249 -54 -243 -56
13 -4 807 155 837 168 l20 9 -15 -1 c-8 0 -89 -15 -180 -34z"/>
<path d="M46125 59936 l-220 -214 5 -5 6 -6 219 219 c121 121 217 220 215 220
-3 0 -105 -96 -225 -214z"/>
<path d="M61405 60081 c-11 -5 -101 -25 -200 -45 -191 -40 -210 -44 -204 -50
2 -3 99 15 214 39 115 24 210 43 211 42 7 -8 295 -1489 291 -1493 -3 -3 -94
-28 -204 -56 -109 -29 -200 -53 -202 -55 -2 -2 -2 -6 1 -9 l6 -5 194 50 c107
28 201 51 207 51 l13 0 -4 -12 -4 -12 -189 -47 c-104 -26 -191 -46 -194 -44
-2 3 -9 -2 -15 -9 l-11 -14 -420 -87 c-431 -88 -451 -93 -444 -99 2 -3 196 35
430 84 l427 88 18 11 c11 6 107 33 215 60 l197 48 71 -361 c66 -330 88 -429
90 -401 1 6 -33 179 -74 385 -41 205 -73 376 -70 378 3 3 0 11 -5 17 l-10 12
12 10 13 10 215 43 c118 24 222 47 230 52 l15 9 -25 -5 c-14 -2 -120 -24 -237
-48 l-212 -43 -6 7 c-4 4 -54 240 -110 525 -57 285 -124 616 -149 735 l-46
217 6 15 6 16 -13 -1 c-8 0 -23 -4 -34 -8z"/>
<path d="M49395 59905 l-97 -135 -10 0 c-5 0 -68 45 -140 101 -72 55 -137 103
-147 107 l-16 6 30 -25 c17 -14 80 -63 140 -109 61 -46 117 -90 125 -97 21
-19 323 -247 340 -258 l15 -9 -12 15 c-7 9 -82 69 -168 134 l-155 119 23 30
c99 133 179 248 175 252 -3 2 -49 -56 -103 -131z"/>
<path d="M93014 60002 c4 -6 52 -35 106 -63 l100 -51 57 -44 c73 -57 91 -57
21 0 l-54 44 -119 63 -118 63 7 -12z"/>
<path d="M48867 59795 c-65 -85 -120 -163 -124 -172 l-6 -18 15 15 c20 20 248
319 248 325 0 19 -30 -14 -133 -150z"/>
<path d="M83355 59899 c15 -28 66 -113 114 -188 49 -76 141 -231 206 -345 64
-114 119 -205 122 -202 6 6 -234 426 -332 581 -46 72 -91 147 -101 168 -10 20
-21 37 -26 37 l-8 0 25 -51z"/>
<path d="M58810 59913 c0 -6 38 -93 84 -194 46 -101 116 -263 156 -359 40 -96
76 -179 80 -184 l9 -9 498 99 c274 54 491 99 483 101 -8 2 -231 -40 -495 -92
l-480 -94 -6 7 c-3 4 -30 66 -59 137 -51 124 -257 585 -266 594 -2 2 -4 0 -4
-6z"/>
<path d="M91060 59906 c0 -9 283 -341 294 -345 l11 -4 -16 19 c-267 318 -289
344 -289 330z"/>
<path d="M63661 59826 c-1 -11 22 -121 50 -245 28 -124 143 -678 255 -1231
254 -1245 247 -1215 252 -1202 3 9 -137 707 -378 1882 -65 318 -166 783 -175
805 l-3 10 -1 -19z"/>
<path d="M63620 59822 c0 -13 179 -860 186 -881 2 -8 6 -12 8 -10 5 5 -182
890 -189 897 -3 3 -5 0 -5 -6z"/>
<path d="M59255 59724 c-60 -46 -140 -105 -177 -131 -38 -26 -68 -51 -68 -56
l0 -9 38 23 c36 22 186 133 285 210 l47 38 -7 4 -8 4 -110 -83z"/>
<path d="M61990 59795 c0 -7 71 -348 76 -367 3 -10 9 -18 13 -18 l7 0 -40 195
-39 195 -9 0 c-4 0 -8 -2 -8 -5z"/>
<path d="M15820 59746 l-165 -43 -200 -123 c-198 -122 -297 -190 -278 -190 6
0 21 8 34 19 13 10 123 79 244 153 l220 135 155 38 c85 21 162 42 170 46 l15
8 -15 0 c-8 -1 -89 -20 -180 -43z"/>
<path d="M14681 59591 c-1 -13 4 -54 10 -90 l11 -66 40 -125 c22 -69 45 -129
51 -135 l10 -10 -5 15 c-3 8 -22 65 -42 125 l-36 111 -19 99 -19 100 -1 -24z"/>
<path d="M60837 59560 c-126 -26 -231 -51 -235 -55 l-7 -8 25 6 c14 3 120 24
235 47 116 23 214 46 220 51 l9 9 -9 -1 c-6 0 -113 -23 -238 -49z"/>
<path d="M50221 59359 c-89 -116 -160 -213 -158 -216 3 -2 78 91 167 207 89
116 160 214 157 216 -2 3 -77 -90 -166 -207z"/>
<path d="M60848 59521 l-227 -46 -8 -9 -8 -9 15 5 c8 3 117 25 242 49 l228 44
0 8 c0 9 24 13 -242 -42z"/>
<path d="M62495 59482 l-420 -84 -10 -10 -10 -11 15 5 c8 3 202 42 430 88 228
46 417 85 419 87 16 12 -51 0 -424 -75z"/>
<path d="M59039 59478 c10 -24 39 -94 65 -155 27 -62 51 -113 54 -113 26 2
963 198 947 199 -11 1 -223 -39 -470 -89 -247 -49 -456 -90 -465 -90 l-15 0
-60 145 c-33 80 -63 145 -67 145 l-7 0 18 -42z"/>
<path d="M47130 59496 c0 -3 -11 -55 -25 -118 l-24 -113 -36 -89 c-41 -104
-39 -96 -21 -96 l14 0 36 90 36 90 25 116 c30 137 29 124 10 124 -8 0 -15 -2
-15 -4z"/>
<path d="M49306 59041 c-174 -231 -319 -429 -323 -438 -7 -20 123 148 440 570
115 153 207 281 204 283 -3 3 -147 -184 -321 -415z"/>
<path d="M46982 59410 l-12 -20 0 -27 0 -27 9 10 c8 9 25 84 19 84 -2 0 -9 -9
-16 -20z"/>
<path d="M61865 59395 c-82 -18 -176 -38 -208 -45 -32 -6 -56 -14 -53 -17 5
-6 401 74 431 87 l20 9 -20 -1 c-11 0 -87 -15 -170 -33z"/>
<path d="M62035 59388 c2 -7 22 -91 44 -186 22 -96 43 -177 47 -180 l7 -7 -6
25 c-3 14 -23 100 -43 193 l-38 167 -8 0 -7 0 4 -12z"/>
<path d="M61360 59289 c-191 -41 -216 -47 -209 -53 6 -6 396 78 405 87 l7 7
-9 -1 c-5 0 -92 -18 -194 -40z"/>
<path d="M61358 59247 c-109 -23 -198 -45 -198 -48 l0 -7 199 42 c110 22 203
44 207 49 l7 7 -9 -1 c-5 0 -98 -20 -206 -42z"/>
<path d="M94540 59263 c0 -4 53 -37 118 -72 64 -35 148 -84 185 -108 37 -23
73 -43 80 -43 l12 0 -50 33 c-28 18 -102 62 -165 96 -63 35 -130 72 -147 83
l-33 20 0 -9z"/>
<path d="M50070 59103 c0 -7 179 -161 288 -247 l25 -20 -4 11 c-2 6 -49 48
-104 94 -55 45 -124 103 -152 127 -29 25 -53 40 -53 35z"/>
<path d="M75554 58869 c-15 -24 -35 -61 -45 -83 l-19 -41 2 -135 2 -135 6 140
7 140 8 20 c5 11 24 44 42 74 19 29 32 55 29 58 -2 3 -17 -14 -32 -38z"/>
<path d="M39110 58891 l0 -8 66 -6 67 -6 131 -47 c72 -25 139 -48 149 -51 l17
-5 0 10 0 10 -132 45 c-165 57 -202 67 -255 67 l-43 0 0 -9z"/>
<path d="M38055 58851 l-70 -6 -1 -110 -2 -110 10 100 9 100 12 7 12 8 60 1
c33 1 74 5 90 9 l30 8 -40 -1 c-22 0 -71 -3 -110 -6z"/>
<path d="M62840 58760 c-124 -27 -308 -66 -410 -86 l-185 -37 -10 -10 -10 -9
20 5 c24 7 830 167 839 167 3 0 6 5 6 10 l0 10 -12 -1 c-7 0 -114 -23 -238
-49z"/>
<path d="M84073 58708 c82 -149 146 -276 158 -313 l12 -40 4 11 c2 6 -4 32
-14 57 -27 67 -177 347 -186 347 l-9 0 35 -62z"/>
<path d="M49615 58503 c-82 -108 -154 -203 -159 -212 l-9 -16 21 20 c11 11 81
100 157 199 122 160 155 207 144 206 -2 0 -71 -89 -154 -197z"/>
<path d="M13505 58595 l-29 -13 -56 5 -55 5 -208 -26 -209 -26 -156 4 -157 5
70 -9 c39 -4 115 -8 170 -9 l100 -1 200 24 200 23 44 -5 44 -4 38 12 39 13 0
9 c0 4 -1 8 -2 7 -2 0 -16 -6 -33 -14z"/>
<path d="M59595 58552 c13 -13 387 -154 393 -147 3 2 -1 7 -9 10 -8 2 -90 33
-184 69 -93 35 -179 68 -190 72 l-20 7 10 -11z"/>
<path d="M49030 58377 c-130 -172 -250 -340 -245 -346 3 -2 6 -2 8 0 2 2 42
58 89 124 47 66 120 165 162 220 65 85 85 116 74 115 -2 0 -41 -51 -88 -113z"/>
<path d="M63900 58471 c0 -7 7 -42 15 -79 8 -37 89 -429 180 -872 174 -843
174 -844 181 -837 5 5 -363 1788 -371 1795 -3 3 -5 0 -5 -7z"/>
<path d="M91885 58428 c-2 -7 -11 -37 -20 -66 l-17 -53 6 -6 c10 -10 16 1 36
71 l19 66 -10 0 c-5 0 -11 -6 -14 -12z"/>
<path d="M55475 58425 c38 -15 410 -114 413 -110 6 6 3 7 -206 65 -101 27
-191 50 -200 49 l-17 -1 10 -3z"/>
<path d="M60393 58273 c-7 -2 -13 -9 -13 -15 l0 -10 15 12 14 12 23 -7 23 -6
-15 10 c-16 11 -28 12 -47 4z"/>
<path d="M56325 58242 c6 -5 63 -26 128 -45 l117 -35 0 7 0 8 -112 33 c-62 18
-120 35 -128 38 l-15 5 10 -11z"/>
<path d="M56287 58223 c-2 -4 -21 -78 -42 -163 l-37 -155 -16 -17 -17 -18
-449 -55 c-396 -49 -509 -65 -440 -65 10 0 216 25 458 54 l439 54 18 19 18 18
40 165 c36 148 43 188 28 163z"/>
<path d="M91525 57899 c-71 -66 -148 -138 -170 -159 l-40 -40 12 0 13 0 170
156 c93 86 170 158 170 160 0 2 -6 4 -12 4 l-13 -1 -130 -120z"/>
<path d="M63363 57928 c4 -13 47 -219 97 -458 50 -239 113 -543 141 -675 52
-244 129 -624 129 -637 0 -4 -11 -10 -25 -14 l-26 -6 6 -7 c4 -3 20 -6 36 -7
l30 -2 23 -21 c12 -11 25 -21 29 -21 l7 0 -11 24 -11 24 -17 5 -17 4 -43 229
c-24 126 -68 342 -98 479 -29 138 -92 432 -139 655 -47 223 -87 415 -91 428
l-5 22 -10 0 -10 0 5 -22z"/>
<path d="M36075 57863 c14 -14 466 -184 478 -180 7 2 -284 116 -468 183 l-20
7 10 -10z"/>
<path d="M55710 57774 c-228 -29 -421 -53 -429 -54 l-14 0 6 -6 6 -6 435 53
436 54 0 7 c0 10 46 15 -440 -48z"/>
<path d="M49550 57722 c1 -10 390 -193 390 -183 0 7 -94 53 -317 157 -40 18
-73 30 -73 26z"/>
<path d="M46540 57610 l0 -10 32 0 c36 0 35 4 -4 14 l-28 6 0 -10z"/>
<path d="M34842 57447 c-122 -66 -221 -122 -218 -124 4 -4 429 219 445 233 2
2 2 6 0 8 -2 2 -104 -51 -227 -117z"/>
<path d="M52090 57561 l0 -9 73 -17 c39 -10 173 -49 297 -87 l225 -70 210 -85
210 -85 179 -90 178 -89 6 5 c7 8 16 3 -173 100 l-170 87 -210 86 c-201 82
-283 111 -530 188 -113 35 -265 75 -284 75 -6 0 -11 -4 -11 -9z"/>
<path d="M52982 57148 l4 -12 214 -102 214 -103 10 6 10 7 -165 79 c-90 43
-192 92 -227 108 l-64 29 4 -12z"/>
<path d="M81200 57125 c1 -13 356 -381 363 -375 2 3 -78 90 -179 195 -101 104
-184 185 -184 180z"/>
<path d="M79770 56872 l-64 -107 -96 -99 -95 -100 40 31 c22 17 65 58 96 90
l56 58 65 105 c35 58 68 111 72 118 l7 12 -8 0 c-4 0 -37 -49 -73 -108z"/>
<path d="M47475 56945 l-150 -22 -35 -16 c-19 -9 -48 -28 -64 -42 l-28 -26 6
-6 6 -7 28 26 27 26 50 20 50 20 133 18 132 17 0 8 c0 5 -1 8 -2 8 -2 -1 -70
-11 -153 -24z"/>
<path d="M36290 56769 c-80 -77 -133 -132 -119 -122 42 30 284 263 273 263 -5
0 -75 -63 -154 -141z"/>
<path d="M79471 56544 c-12 -9 -61 -32 -109 -51 l-86 -35 -91 -10 c-49 -5
-100 -12 -112 -14 l-23 -4 0 -10 0 -10 26 10 25 10 49 0 c27 0 73 5 102 11
l53 11 80 38 c44 21 89 45 100 53 26 21 16 22 -14 1z"/>
<path d="M82756 56413 c12 -54 35 -151 50 -215 15 -65 30 -118 34 -118 l7 0
-51 215 c-28 118 -53 215 -57 215 l-7 0 24 -97z"/>
<path d="M86718 56387 c-87 -45 -158 -86 -158 -90 l0 -9 158 82 c86 45 161 86
167 91 l9 9 -9 0 c-6 0 -81 -37 -167 -83z"/>
<path d="M26627 56350 c94 -50 178 -90 185 -90 7 0 -64 41 -159 90 -94 50
-178 90 -185 90 -7 0 64 -41 159 -90z"/>
<path d="M26450 56403 c0 -8 331 -183 346 -183 12 0 -40 30 -208 118 -76 40
-138 69 -138 65z"/>
<path d="M24640 56341 c35 -20 432 -183 436 -179 5 5 -426 188 -442 188 l-9
-1 15 -8z"/>
<path d="M64411 56247 c14 -7 33 -18 43 -26 l16 -13 0 -28 0 -27 -18 -16 -19
-17 -26 0 -26 0 -13 14 -13 13 -15 -8 c-8 -4 -126 -29 -262 -56 -137 -26 -248
-50 -248 -54 0 -3 117 17 260 46 l260 52 11 -13 11 -14 38 0 39 0 20 26 21 27
0 32 0 32 -23 21 -23 22 -30 -1 -29 -1 26 -11z"/>
<path d="M64340 56226 l-25 -23 -247 -49 c-137 -27 -248 -51 -248 -55 0 -3
117 17 260 46 l259 51 21 27 21 27 -8 0 c-5 0 -20 -11 -33 -24z"/>
<path d="M90080 56018 c-96 -83 -176 -155 -178 -159 l-4 -9 10 0 c7 0 292 240
350 295 l14 13 -9 5 -8 5 -175 -150z"/>
<path d="M3772 56044 c-217 -12 -396 -25 -400 -28 l-5 -6 21 0 c51 0 908 51
917 54 22 9 -158 2 -533 -20z"/>
<path d="M63772 55999 l-24 -29 15 0 c16 0 47 31 47 48 0 19 -14 13 -38 -19z"/>
<path d="M14097 55462 l-17 -128 1 -65 2 -64 8 95 c4 52 14 139 22 193 l13 97
-6 0 c-4 0 -14 -58 -23 -128z"/>
<path d="M61006 55493 c11 -134 45 -437 49 -442 9 -8 5 40 -15 214 -11 94 -20
198 -20 233 l0 62 -10 0 -9 0 5 -67z"/>
<path d="M53231 55207 l-1 -58 25 -109 c13 -60 30 -118 37 -129 l12 -20 -11
-24 c-7 -14 -174 -269 -373 -568 l-362 -544 -38 -75 c-20 -41 -43 -93 -50
-115 -7 -22 -17 -45 -22 -52 l-9 -11 9 -6 10 -6 15 33 c8 17 18 43 22 57 25
84 108 217 559 899 l268 405 -16 34 c-22 45 -56 189 -66 277 l-7 70 -2 -58z"/>
<path d="M93001 55236 c2 -2 62 -27 132 -55 71 -28 159 -67 197 -86 38 -19 75
-35 82 -34 18 0 -132 71 -276 130 -107 44 -148 57 -135 45z"/>
<path d="M61940 55115 c0 -12 80 -438 86 -454 2 -8 6 -12 8 -10 5 5 -81 460
-89 467 l-5 5 0 -8z"/>
<path d="M85170 55006 c0 -5 11 -49 25 -100 13 -50 40 -161 60 -246 19 -85 37
-166 40 -179 4 -13 8 -21 11 -19 2 3 -14 86 -36 184 -52 227 -100 400 -100
360z"/>
<path d="M52040 54988 l145 -9 33 -16 c17 -9 32 -19 32 -23 0 -4 -61 -101
-136 -216 l-137 -209 -133 -170 c-73 -93 -131 -171 -128 -174 2 -2 6 -2 7 0 2
2 62 78 133 169 l130 165 138 213 c76 116 142 212 146 212 3 0 7 7 7 15 l0 15
-14 0 c-8 0 -26 8 -40 18 l-27 17 -151 1 -150 2 145 -10z"/>
<path d="M50675 54940 c-11 -5 -42 -9 -70 -9 l-50 -1 -15 -10 -15 -10 20 0
c11 0 49 5 84 10 l64 9 10 10 11 11 -9 -1 c-6 0 -19 -4 -30 -9z"/>
<path d="M53218 54933 c-8 -10 -28 -40 -43 -68 -16 -27 -77 -122 -136 -210
-59 -88 -205 -311 -324 -495 -212 -327 -332 -500 -346 -500 -5 0 -11 4 -14 10
-3 5 -15 15 -26 20 l-19 11 0 -9 c0 -5 11 -15 25 -22 l25 -13 0 -12 0 -12 15
0 15 0 0 14 0 14 58 77 c33 42 143 207 247 366 103 159 251 384 330 500 78
116 161 241 184 279 l41 67 -9 0 c-4 0 -15 -8 -23 -17z"/>
<path d="M47111 54887 c-6 -16 -11 -37 -11 -48 l0 -21 12 4 12 4 8 29 7 28 -9
16 -9 16 -10 -28z"/>
<path d="M52250 54739 l-105 -163 -172 -229 c-158 -209 -183 -247 -168 -247 3
0 85 107 183 238 l177 237 98 152 99 153 -4 11 -4 12 -104 -164z"/>
<path d="M50816 54840 c19 -38 76 -95 149 -152 44 -34 130 -103 190 -153 61
-51 157 -127 215 -170 154 -115 280 -216 280 -224 0 -4 -34 -47 -75 -96 -41
-49 -75 -94 -75 -100 l0 -10 18 21 c59 74 145 174 149 174 2 0 48 -35 101 -79
l97 -79 25 -7 25 -8 100 -91 c96 -88 262 -213 270 -204 3 2 -30 29 -72 59 -43
29 -125 97 -183 150 l-105 96 -25 8 -25 8 -94 75 c-51 42 -95 82 -98 89 -3 7
-10 13 -15 13 -6 0 -49 31 -97 68 -47 38 -133 104 -191 147 -58 43 -154 119
-215 169 -60 50 -141 116 -180 145 -38 30 -94 79 -123 110 -30 31 -50 49 -46
41z"/>
<path d="M18257 54663 l-178 -26 8 -8 8 -7 192 26 c105 15 195 30 199 35 l7 7
-29 -1 c-16 -1 -109 -12 -207 -26z"/>
<path d="M32389 54419 c200 -132 365 -238 367 -236 6 6 -704 477 -718 477 -7
0 151 -109 351 -241z"/>
<path d="M81392 54550 c-106 -26 -196 -50 -199 -54 l-6 -6 9 0 c25 2 435 108
414 108 -14 0 -112 -22 -218 -48z"/>
<path d="M49328 54445 c5 -11 20 -29 33 -40 l22 -20 -11 20 c-5 11 -20 29 -33
40 l-22 20 11 -20z"/>
<path d="M53755 54432 c-16 -12 -217 -312 -208 -312 4 1 42 51 83 112 41 62
90 132 108 156 32 42 38 59 17 44z"/>
<path d="M88034 54391 c-12 -5 -31 -22 -43 -37 l-21 -27 0 -38 c0 -20 3 -44 6
-53 l6 -16 8 5 8 5 -5 44 -5 45 27 25 28 26 31 0 32 0 22 -16 22 -15 10 6 11
7 -24 18 -23 18 -35 6 -34 5 -21 -8z"/>
<path d="M51440 54365 l-12 -15 10 0 c12 0 26 19 19 26 -2 2 -10 -2 -17 -11z"/>
<path d="M84620 54195 c-124 -58 -220 -105 -214 -105 14 0 426 188 439 201 15
14 11 13 -225 -96z"/>
<path d="M48165 54157 l-150 -82 -117 -50 c-65 -27 -118 -53 -118 -57 0 -11
-5 -13 116 40 102 44 408 203 429 223 l9 9 -9 -1 c-6 0 -77 -37 -160 -82z"/>
<path d="M5715 54200 c-4 -6 -5 -13 -4 -14 8 -7 435 -146 447 -146 l14 0 -4
12 -4 12 -205 68 c-112 37 -211 71 -221 73 l-16 6 -7 -11z"/>
<path d="M32790 54203 c0 -5 34 -35 75 -66 l75 -58 0 -28 0 -29 -93 -83 c-50
-46 -161 -142 -245 -213 -84 -71 -151 -131 -148 -133 3 -4 335 272 471 392
l23 20 6 37 7 37 -68 56 c-37 31 -76 61 -85 66 l-18 10 0 -8z"/>
<path d="M33478 54173 c-8 -10 -18 -26 -21 -35 l-6 -18 7 0 c8 0 52 55 52 65
0 11 -18 4 -32 -12z"/>
<path d="M62171 54173 c-1 -28 85 -442 94 -451 l7 -7 -7 35 c-24 131 -93 441
-94 423z"/>
<path d="M62131 54168 c-1 -22 87 -449 94 -456 3 -3 5 -1 5 5 0 13 -89 444
-94 458 l-4 10 -1 -17z"/>
<path d="M51260 54121 c0 -7 262 -239 464 -410 l18 -16 -3 16 -4 16 -225 194
c-124 107 -231 198 -238 203 l-12 7 0 -10z"/>
<path d="M48860 54118 c0 -12 82 -179 86 -175 3 2 -13 42 -35 87 -38 78 -51
100 -51 88z"/>
<path d="M50710 54033 c0 -5 17 -17 37 -28 21 -11 52 -33 71 -49 18 -16 35
-27 37 -24 8 7 -46 53 -97 82 l-48 27 0 -8z"/>
<path d="M85450 54036 c0 -7 97 -379 106 -405 2 -8 6 -12 9 -10 4 5 -101 409
-110 417 l-5 5 0 -7z"/>
<path d="M31207 53926 l-5 -34 -82 -193 c-45 -107 -85 -201 -88 -209 l-5 -15
10 10 c16 15 171 387 182 434 l9 41 -8 0 -7 0 -6 -34z"/>
<path d="M53760 53946 c29 -26 300 -205 300 -198 0 9 -294 212 -307 212 -4 0
-1 -6 7 -14z"/>
<path d="M49315 53749 c-132 -65 -235 -118 -229 -118 10 -1 463 215 473 225
20 20 -37 -5 -244 -107z"/>
<path d="M21650 53852 c0 -5 11 -14 24 -22 l25 -13 12 -29 12 -29 -6 -92 c-4
-51 -9 -128 -12 -172 -9 -134 4 -70 19 93 l13 153 -6 27 c-8 36 -21 54 -53 75
l-28 17 0 -8z"/>
<path d="M50837 53829 l13 -13 5 6 6 6 -18 6 -18 7 12 -12z"/>
<path d="M50908 53768 c6 -7 58 -51 117 -98 59 -47 145 -116 192 -153 47 -38
87 -66 90 -64 6 7 -385 327 -401 327 l-8 0 10 -12z"/>
<path d="M50638 53637 c-136 -67 -248 -125 -248 -129 0 -7 489 228 505 243 l9
9 -9 -1 c-6 0 -121 -55 -257 -122z"/>
<path d="M61245 53719 c-10 -46 -85 -454 -85 -468 0 -8 2 -12 5 -9 7 7 95 491
90 496 -2 2 -7 -6 -10 -19z"/>
<path d="M54530 53648 c-149 -72 -156 -76 -149 -82 2 -1 76 32 164 75 88 43
153 78 145 78 -8 0 -80 -32 -160 -71z"/>
<path d="M80941 53697 c-1 -15 91 -396 105 -436 2 -8 6 -12 9 -10 2 3 -23 108
-55 234 -32 127 -59 222 -59 212z"/>
<path d="M80901 53682 c-1 -19 101 -426 110 -436 6 -7 -93 407 -106 439 l-3
10 -1 -13z"/>
<path d="M49050 53635 c0 -28 237 -461 247 -451 3 3 -24 53 -60 113 -35 59
-90 161 -120 226 -48 100 -67 133 -67 112z"/>
<path d="M9205 53593 c-16 -2 -57 -8 -90 -15 l-60 -11 -279 -103 c-153 -57
-281 -106 -284 -109 -18 -18 32 -2 278 91 l274 103 71 15 c38 8 98 17 133 20
l63 6 36 -15 c20 -8 38 -13 41 -10 3 2 -11 12 -31 20 l-36 15 -43 -1 c-24 -1
-56 -4 -73 -6z"/>
<path d="M52703 53457 c-112 -61 -201 -112 -198 -115 4 -4 372 191 403 214
l17 13 -10 0 c-5 -1 -101 -51 -212 -112z"/>
<path d="M52410 53480 l-15 -10 17 0 c9 0 20 5 23 10 l6 10 -8 0 c-4 0 -15 -5
-23 -10z"/>
<path d="M54730 53375 c0 -6 7 -20 15 -32 l16 -22 155 -106 155 -105 52 -14
c29 -8 64 -17 80 -20 l27 -6 0 10 0 10 -18 0 c-10 0 -47 10 -83 22 l-64 21
-146 98 -146 97 -21 29 -21 28 -1 -10z"/>
<path d="M79440 53333 c0 -13 102 -428 106 -432 16 -16 9 30 -31 205 -26 109
-48 207 -51 217 -5 16 -24 25 -24 10z"/>
<path d="M14196 53292 l-5 -8 146 -115 c81 -62 163 -127 184 -142 l37 -28 6
10 6 9 -167 129 c-92 70 -175 134 -184 141 l-18 12 -5 -8z"/>
<path d="M52448 53266 l-17 -24 -108 -7 -108 -8 20 -7 20 -7 90 9 90 10 13 11
c7 6 18 19 23 29 l10 18 -8 0 c-4 0 -16 -11 -25 -24z"/>
<path d="M50471 53173 c17 -38 35 -79 40 -92 5 -13 12 -22 15 -19 6 7 -68 178
-78 178 l-7 0 30 -67z"/>
<path d="M53615 53211 c-38 -15 -214 -103 -390 -196 -176 -93 -358 -186 -404
-207 -46 -22 -81 -41 -79 -44 8 -8 219 95 542 266 170 89 327 168 348 176 l38
13 0 -41 c0 -23 2 -39 4 -37 4 4 16 99 13 99 -1 -1 -33 -13 -72 -29z"/>
<path d="M52190 53220 c0 -6 48 -105 106 -221 l105 -211 6 6 6 6 -103 215
c-92 191 -120 239 -120 205z"/>
<path d="M52065 53124 c-11 -8 -123 -69 -248 -136 -125 -66 -226 -123 -223
-125 6 -6 474 243 496 263 l14 14 -9 0 c-6 0 -19 -7 -30 -16z"/>
<path d="M31850 53122 c0 -10 218 -118 224 -111 3 3 -46 30 -109 62 l-115 57
0 -8z"/>
<path d="M53422 53038 c-95 -50 -170 -93 -168 -95 3 -3 84 36 181 87 l177 92
24 -6 24 -6 0 10 0 10 -32 -1 -33 -1 -173 -90z"/>
<path d="M53771 52920 l102 -200 24 -15 23 -15 0 8 c0 5 -10 17 -21 28 l-21
19 -94 188 -94 187 -11 0 -10 0 102 -200z"/>
<path d="M51370 53092 c0 -5 11 -19 25 -32 l25 -24 21 -58 22 -58 9 0 9 0 -7
23 c-26 81 -104 193 -104 149z"/>
<path d="M77910 52849 c0 -26 62 -264 93 -353 l33 -100 7 11 7 10 -34 99 c-18
55 -45 154 -61 222 l-28 122 -9 0 c-4 0 -8 -5 -8 -11z"/>
<path d="M74105 52766 l-170 -72 -240 -131 c-279 -152 -608 -334 -614 -339 -2
-2 -2 -6 0 -8 2 -2 87 42 189 98 102 56 300 164 440 239 l255 136 160 67 c174
72 170 70 158 77 l-8 4 -170 -71z"/>
<path d="M65025 52740 c-132 -26 -319 -62 -415 -81 l-175 -34 16 -3 c17 -3
850 155 858 163 10 11 -56 0 -284 -45z"/>
<path d="M52764 52648 c24 -51 80 -169 125 -263 l82 -170 28 -30 28 -30 144
-293 143 -294 4 10 3 10 -146 294 -147 293 -27 30 -27 30 -120 252 c-65 139
-122 252 -126 253 -4 0 13 -42 36 -92z"/>
<path d="M85793 52563 l7 -6 7 6 6 7 -13 0 -13 0 6 -7z"/>
<path d="M22550 52405 c-5 -13 -23 -57 -40 -97 l-31 -72 -38 -153 -39 -153 8
-5 8 -5 37 148 36 147 44 100 43 100 11 -2 11 -3 0 10 0 10 -20 0 -20 0 -10
-25z"/>
<path d="M53022 52341 c16 -43 355 -731 360 -731 4 0 -31 78 -76 173 -229 474
-275 567 -281 567 -4 0 -5 -4 -3 -9z"/>
<path d="M27045 52113 l0 -233 8 0 7 0 -1 173 c-1 94 -4 199 -8 232 l-7 60 1
-232z"/>
<path d="M54305 52117 l-18 -14 7 -11 6 -10 30 15 30 15 36 -21 c42 -25 44
-25 44 -6 l0 14 -30 16 -29 15 -29 0 -28 0 -19 -13z"/>
<path d="M90462 51815 l17 -18 186 -24 187 -24 6 5 c3 3 3 8 1 10 -2 2 -87 15
-189 29 -102 13 -194 28 -205 32 l-20 8 17 -18z"/>
<path d="M32255 51678 c3 -13 18 -106 35 -208 36 -223 40 -243 47 -237 3 3
-12 109 -33 236 l-38 231 -8 0 -8 0 5 -22z"/>
<path d="M3465 51663 c-27 -1 -83 -10 -122 -20 l-73 -17 0 -8 c0 -12 21 -10
76 7 l49 15 158 6 157 7 0 9 0 8 -97 -2 c-54 -1 -120 -3 -148 -5z"/>
<path d="M79813 51657 c8 -22 109 -416 207 -807 50 -201 113 -448 140 -550
l49 -185 31 -172 c16 -95 30 -178 30 -185 l0 -12 10 10 10 10 -30 160 c-17 87
-39 196 -49 242 l-19 82 8 0 7 0 31 -147 c16 -82 41 -208 53 -280 l24 -133 12
0 13 0 0 16 c0 37 -65 368 -130 659 l-69 310 -71 259 -70 258 -28 32 -27 32
-54 207 -54 207 -15 0 -14 0 5 -13z m236 -759 c64 -236 124 -489 118 -495 -3
-2 -132 493 -185 712 l-5 20 5 -5 c3 -3 33 -107 67 -232z m128 -530 l-5 -13
-1 19 -1 19 6 -6 6 -6 -5 -13z"/>
<path d="M79918 51428 c40 -161 58 -216 68 -206 1 2 -19 89 -45 193 l-47 189
-11 3 -11 4 46 -183z"/>
<path d="M88038 51323 l-178 -136 6 -8 5 -9 167 126 c92 70 176 135 187 145
l19 19 -14 -1 -15 0 -177 -136z"/>
<path d="M88073 51283 l-182 -138 9 -9 9 -9 177 135 c98 74 180 140 182 146
l4 12 -9 0 c-5 0 -90 -62 -190 -137z"/>
<path d="M37624 51070 c3 -14 22 -122 41 -240 33 -194 45 -250 45 -209 0 8
-16 113 -36 234 l-37 220 -9 10 -9 10 5 -25z"/>
<path d="M13230 51046 c8 -7 90 -64 183 -126 l167 -113 6 6 6 6 -181 120
c-166 111 -218 142 -181 107z"/>
<path d="M26775 50749 c-4 -99 -5 -183 -2 -185 3 -3 8 57 11 133 3 76 8 159
11 186 l4 47 -8 0 -8 0 -8 -181z"/>
<path d="M27660 50910 l0 -10 65 0 65 0 0 10 0 10 -65 0 -65 0 0 -10z"/>
<path d="M74880 50839 l-165 -49 -52 -28 -53 -27 10 -3 c6 -2 29 7 53 21 l42
25 165 48 c91 26 169 51 175 56 l9 8 -9 -1 c-6 0 -84 -23 -175 -50z"/>
<path d="M27764 50700 l0 -185 3 93 c2 50 2 134 0 185 l-3 92 0 -185z"/>
<path d="M27804 50700 l0 -185 3 93 c2 50 2 134 0 185 l-3 92 0 -185z"/>
<path d="M33500 50822 c0 -22 131 -837 136 -841 9 -9 2 35 -61 434 -55 350
-75 457 -75 407z"/>
<path d="M32445 50755 c3 -17 19 -117 35 -224 17 -107 33 -197 35 -200 8 -7 7
5 -26 224 l-32 210 -9 10 -8 9 5 -29z"/>
<path d="M50259 50508 c104 -223 182 -380 186 -376 7 6 -208 457 -217 458 -4
0 10 -37 31 -82z"/>
<path d="M31098 50496 l-236 -11 -9 -9 -8 -8 75 6 c41 3 155 9 253 12 l177 7
0 8 c0 5 -3 8 -7 7 -5 0 -115 -6 -245 -12z"/>
<path d="M33610 50375 c1 -32 59 -387 65 -393 10 -10 5 45 -21 218 l-27 175
-8 10 -9 9 0 -19z"/>
<path d="M34260 50275 c0 -4 6 -18 14 -33 8 -15 20 -55 26 -90 l13 -62 8 0
c16 0 0 89 -28 153 -14 31 -33 50 -33 32z"/>
<path d="M30527 50130 c3 -80 9 -181 13 -225 l8 -80 -5 180 c-3 99 -9 200 -13
225 l-8 45 5 -145z"/>
<path d="M15722 50158 c-21 -29 -60 -84 -87 -123 -27 -38 -71 -96 -97 -128
-46 -56 -57 -78 -40 -76 12 1 220 278 276 367 l7 12 -10 0 c-6 0 -28 -24 -49
-52z"/>
<path d="M12270 50013 l0 -178 -10 -59 c-9 -56 -7 -77 6 -64 3 3 11 44 17 89
l12 84 -3 153 -3 152 -9 0 -10 0 0 -177z"/>
<path d="M37565 50119 c-110 -10 -211 -18 -224 -18 l-24 -1 6 -6 6 -6 218 17
c202 16 233 20 222 28 -2 2 -94 -5 -204 -14z"/>
<path d="M27758 50016 c-5 -43 -7 -138 -7 -210 l2 -131 8 75 9 75 -2 135 -3
135 -7 -79z"/>
<path d="M34183 50025 l-43 -42 6 -6 7 -6 38 30 39 30 6 -40 7 -41 8 0 9 0 0
16 c0 25 -22 104 -29 102 -3 0 -25 -20 -48 -43z"/>
<path d="M38251 49944 c-45 -169 -187 -764 -182 -764 8 0 203 792 197 798 -3
2 -9 -13 -15 -34z"/>
<path d="M33710 49883 c0 -27 50 -387 55 -391 3 -3 5 2 5 10 0 31 -50 381 -55
386 -3 3 -5 1 -5 -5z"/>
<path d="M38743 49844 c10 -10 889 -225 895 -219 7 7 9 6 -443 115 -231 56
-429 104 -440 107 l-20 5 8 -8z"/>
<path d="M49708 49824 c-29 -15 -35 -28 -19 -39 l10 -5 34 16 35 17 -5 13 c-7
18 -21 17 -55 -2z"/>
<path d="M22383 49794 l7 -8 323 -12 c343 -14 493 -17 486 -10 -2 3 -137 9
-299 15 -162 6 -347 14 -410 17 l-115 6 8 -8z"/>
<path d="M84861 49221 c2 -6 58 -81 124 -167 l120 -155 3 10 3 10 -116 150
c-64 83 -121 154 -127 157 l-11 7 4 -12z"/>
<path d="M83197 49083 c3 -21 8 -43 12 -49 17 -31 226 -303 229 -299 3 2 -46
72 -108 154 l-112 151 -5 40 -6 40 -8 0 -8 0 6 -37z"/>
<path d="M83240 49086 l8 -35 101 -140 c56 -77 107 -144 113 -147 l11 -7 -8
14 c-5 8 -55 78 -112 156 l-103 143 0 25 0 25 -9 0 -9 0 8 -34z"/>
<path d="M33830 49019 c0 -8 14 -111 32 -229 l33 -215 3 20 c3 22 -56 426 -63
434 -3 2 -5 -2 -5 -10z"/>
<path d="M75938 48853 l-28 -4 0 -10 0 -9 24 0 c13 0 31 3 40 6 l16 6 -6 9
c-3 5 -8 8 -12 8 -4 -1 -19 -4 -34 -6z"/>
<path d="M91417 48678 c-81 -94 -147 -176 -147 -182 l0 -10 8 10 c5 5 64 74
132 154 68 80 132 155 143 167 11 13 18 25 15 28 -2 3 -70 -73 -151 -167z"/>
<path d="M75975 48758 c-14 -29 -25 -61 -25 -70 l0 -18 10 0 10 0 0 13 c0 6
11 36 25 64 l24 53 -10 5 -9 6 -25 -53z"/>
<path d="M35253 48637 l-183 -9 0 -9 0 -8 33 4 c17 3 138 10 267 16 129 6 237
13 239 15 6 6 -147 2 -356 -9z"/>
<path d="M33595 48589 c-71 -5 -139 -10 -150 -13 -29 -6 264 5 360 14 l80 7
-80 0 c-44 0 -138 -4 -210 -8z"/>
<path d="M80781 48556 l-74 -42 -28 -55 -28 -54 -7 -47 -6 -48 10 0 10 0 7 48
7 47 26 45 c29 51 52 72 131 117 l56 33 -15 -1 c-8 -1 -48 -20 -89 -43z"/>
<path d="M33735 48558 c-66 -5 -163 -13 -215 -18 l-95 -9 140 5 c77 2 174 7
215 10 l75 6 58 -413 c58 -414 65 -454 73 -446 2 2 -23 190 -56 418 -33 228
-59 423 -58 433 l3 19 -10 2 c-5 1 -64 -2 -130 -7z"/>
<path d="M90530 48424 c0 -14 40 -62 102 -121 l69 -67 89 -63 c49 -35 92 -63
95 -63 l6 0 -5 9 c-4 5 -50 41 -104 79 l-97 70 -62 65 c-35 36 -63 70 -63 75
0 5 -7 12 -15 16 -8 3 -15 3 -15 0z"/>
<path d="M13970 48284 c-207 -60 -215 -63 -209 -69 5 -4 421 113 428 121 12
12 -53 -3 -219 -52z"/>
<path d="M32503 48227 l-193 -9 0 -10 0 -10 28 6 c15 3 108 8 206 12 99 4 202
10 230 14 l51 8 -65 -1 c-36 0 -152 -5 -257 -10z"/>
<path d="M30772 48179 c-85 -4 -156 -10 -160 -13 l-6 -7 179 7 180 7 20 8 20
8 -40 -1 c-22 -1 -109 -4 -193 -9z"/>
<path d="M78528 48158 l-68 -10 0 -15 0 -15 63 9 62 8 170 -1 170 -1 161 -57
162 -56 61 -6 61 -7 0 10 0 9 -67 14 c-38 7 -133 35 -212 61 l-144 48 -8 -4
-7 -5 -4 12 -4 11 -165 3 -164 3 -67 -11z"/>
<path d="M90245 47389 l-350 -400 -52 -92 -52 -91 -27 -14 -26 -14 -114 -12
-114 -12 -12 -12 -11 -11 46 -113 c25 -62 46 -106 47 -97 0 8 -16 54 -35 102
-19 48 -35 93 -35 101 l0 14 33 5 c17 3 68 9 112 13 l80 6 31 13 32 13 57 100
56 101 337 383 c185 211 343 392 351 401 l13 17 -8 0 c-5 -1 -166 -181 -359
-401z"/>
<path d="M90481 47594 c-79 -91 -141 -167 -139 -170 3 -2 60 59 128 137 164
188 173 199 163 199 -4 -1 -73 -75 -152 -166z"/>
<path d="M71114 47519 c-3 -6 -4 -12 -3 -14 2 -2 114 -24 247 -50 l244 -46 6
5 6 6 -10 9 c-5 4 -110 27 -234 50 -124 23 -230 44 -237 46 l-12 4 -7 -10z"/>
<path d="M71632 47471 l-11 -31 8 0 c10 0 25 50 18 57 -3 2 -9 -10 -15 -26z"/>
<path d="M17322 47445 c4 -4 50 -15 103 -25 l96 -17 20 -19 21 -19 38 -75 c20
-41 54 -120 75 -175 l38 -100 16 -12 c9 -7 23 -13 31 -13 18 0 192 62 187 67
-2 2 -48 -11 -101 -29 l-97 -32 -13 15 c-7 8 -31 59 -51 114 -21 55 -55 134
-76 177 l-38 76 -28 20 -28 19 -75 12 c-41 7 -86 15 -100 18 l-25 6 7 -8z"/>
<path d="M36500 47390 l-155 -6 183 -2 182 -2 0 10 0 10 -27 -2 c-16 -1 -98
-5 -183 -8z"/>
<path d="M36848 47361 l-126 -6 -9 -9 -8 -9 80 7 c44 3 126 7 183 8 l102 2 0
8 0 8 -47 -2 c-27 -1 -105 -4 -175 -7z"/>
<path d="M20667 47133 l-17 -48 -28 -162 -28 -163 6 0 c4 0 19 73 34 162 l28
162 19 48 19 48 -8 0 c-5 0 -16 -21 -25 -47z"/>
<path d="M21555 47081 l-5 -10 17 -5 c10 -2 34 -8 53 -12 19 -3 50 -14 68 -23
l34 -15 42 -61 c23 -33 51 -82 62 -108 l19 -47 13 0 c6 0 12 4 12 9 0 20 -46
110 -83 164 l-41 59 -36 18 c-19 9 -59 23 -88 29 -64 13 -59 13 -67 2z"/>
<path d="M37117 46876 l6 -139 8 -26 8 -26 -6 100 c-3 55 -9 129 -14 165 l-8
65 6 -139z"/>
<path d="M32292 46947 l-423 -20 8 -7 8 -7 447 21 447 21 7 8 7 7 -39 -1 c-21
-1 -229 -11 -462 -22z"/>
<path d="M34750 46751 l0 -181 15 0 15 0 -2 177 -3 176 -12 5 -13 4 0 -181z"/>
<path d="M29090 46787 c-181 -8 -210 -11 -199 -20 5 -4 520 20 559 26 46 7
-163 4 -360 -6z"/>
<path d="M89630 46726 l-85 -11 2 -16 c2 -8 18 -52 36 -97 l33 -82 7 6 7 7 -9
11 c-10 13 -61 143 -61 155 l0 9 88 8 c48 4 90 8 94 8 3 1 10 4 14 9 l7 7 -24
-1 c-13 -1 -62 -7 -109 -13z"/>
<path d="M37335 46615 l0 -25 8 0 7 0 0 25 0 25 -7 0 -8 0 0 -25z"/>
<path d="M30823 46403 l-113 -4 0 -15 0 -16 110 6 c61 3 160 9 220 12 l110 6
0 9 0 9 -107 -2 c-60 -1 -159 -4 -220 -5z"/>
<path d="M47410 46038 c-135 -45 -247 -82 -249 -84 -2 -2 -2 -6 0 -9 6 -6 490
154 504 166 l9 9 -9 -1 c-6 -1 -120 -37 -255 -81z"/>
<path d="M93091 46095 l15 -15 75 -13 76 -14 24 -16 23 -17 51 0 50 0 63 32
c34 18 62 35 62 39 0 4 -30 -8 -67 -27 l-68 -34 -37 0 -37 0 -35 21 -35 20
-68 10 -68 10 -9 9 c-6 6 -15 10 -20 10 l-10 0 15 -15z"/>
<path d="M93060 46071 c0 -4 16 -15 35 -24 l36 -17 32 0 32 0 53 -25 54 -25
54 0 54 0 71 36 c93 47 83 55 -12 9 l-73 -35 -41 0 -40 0 -47 25 -47 25 -38 0
-38 0 -42 20 -43 19 0 -8z"/>
<path d="M81344 45948 l-7 -11 11 7 c7 4 12 9 12 12 0 8 -9 4 -16 -8z"/>
<path d="M81355 45843 c-10 -38 -27 -90 -38 -116 l-20 -48 -29 -15 -30 -15 6
-6 5 -6 31 13 31 13 15 36 c9 20 26 75 39 124 l24 87 -8 0 -8 0 -18 -67z"/>
<path d="M90435 45860 l-170 -7 -65 -17 c-36 -10 -148 -42 -250 -72 l-185 -55
-47 0 -48 0 0 -10 0 -9 45 0 44 0 233 71 233 70 95 9 c52 5 143 9 203 10 l107
0 0 10 0 10 -12 -2 c-7 -1 -89 -4 -183 -8z"/>
<path d="M81301 45792 c-12 -37 -26 -74 -30 -81 l-8 -13 -34 -8 -34 -8 30 -1
c17 0 36 3 43 7 l12 8 19 55 c21 62 33 109 27 109 -2 0 -13 -31 -25 -68z"/>
<path d="M89610 45763 c0 -5 6 -27 13 -51 l13 -43 6 6 6 7 -15 44 c-14 40 -23
56 -23 37z"/>
<path d="M81212 45645 c0 -11 4 -31 8 -45 l8 -25 0 20 c0 11 -4 31 -8 45 l-8
25 0 -20z"/>
<path d="M81252 45610 c0 -14 -3 -36 -6 -50 l-7 -25 16 29 17 28 -10 22 -10
21 0 -25z"/>
<path d="M48208 45476 c-124 -39 -230 -74 -234 -78 l-7 -8 17 0 c23 0 439 130
450 141 5 5 8 10 5 12 -2 2 -106 -28 -231 -67z"/>
<path d="M16872 44813 l22 -36 4 12 4 12 -16 24 c-9 14 -21 25 -26 25 l-9 0
21 -37z"/>
<path d="M48820 44826 c0 -12 270 -536 276 -536 3 0 27 12 55 26 l51 25 -6 6
-5 5 -36 -21 c-20 -11 -42 -21 -48 -21 l-12 0 -120 233 c-122 239 -155 298
-155 283z"/>
<path d="M52335 44438 l-6 -14 155 -322 c85 -176 174 -361 197 -411 43 -93 45
-96 66 -83 l12 7 -198 414 -197 415 -12 4 -12 4 -5 -14z"/>
<path d="M26556 44381 c15 -16 396 -192 407 -188 9 3 -394 197 -409 197 l-8 0
10 -9z"/>
<path d="M93963 44139 c3 -9 47 -75 99 -146 l93 -129 17 -39 c9 -22 19 -49 23
-60 l7 -20 5 12 5 13 -25 53 -25 54 -82 114 c-46 63 -92 125 -103 139 l-20 25
6 -16z"/>
<path d="M52761 44018 c-5 -13 -11 -32 -14 -43 l-7 -20 9 -14 9 -14 16 38 c9
20 16 46 16 56 l0 19 -10 0 -10 0 -9 -22z"/>
<path d="M87957 43703 c136 -219 122 -197 127 -192 6 6 -222 373 -234 377 -5
2 43 -81 107 -185z"/>
<path d="M11416 43264 c-110 -24 -202 -46 -204 -49 -3 -3 -2 -8 1 -12 l7 -6
212 44 211 44 5 13 4 12 -19 -1 c-10 -1 -108 -21 -217 -45z"/>
<path d="M52432 43247 c-7 -8 -86 -49 -177 -92 -91 -43 -165 -82 -165 -86 0
-9 336 153 353 170 l11 11 -6 5 -5 5 -11 -13z"/>
<path d="M52476 43242 c-10 -29 -50 -54 -216 -132 l-154 -72 -186 -25 c-102
-14 -187 -27 -189 -29 -15 -14 26 -11 182 10 l175 24 84 38 c137 61 277 132
292 146 14 15 31 58 22 58 -2 0 -7 -8 -10 -18z"/>
<path d="M11421 43146 l-214 -51 -5 -13 c-2 -6 -1 -12 1 -12 12 0 431 101 435
105 2 2 2 8 1 13 l-4 9 -214 -51z"/>
<path d="M11230 43177 c0 -1 -4 -18 -10 -36 l-10 -35 9 10 c5 5 13 21 16 37
l7 27 -6 0 c-3 0 -6 -1 -6 -3z"/>
<path d="M29460 43166 c0 -3 24 -17 53 -31 63 -32 126 -76 250 -177 l95 -78
52 -70 c46 -64 150 -232 150 -243 0 -3 7 -21 16 -42 25 -61 26 -34 1 31 -28
68 -88 170 -159 267 l-50 68 -118 98 -117 99 -64 35 c-65 35 -109 53 -109 43z"/>
<path d="M34235 43085 l-80 -53 -85 -26 c-47 -14 -100 -28 -118 -31 -18 -4
-31 -9 -28 -12 6 -6 140 22 196 42 l45 16 78 51 c42 28 77 54 77 59 0 12 7 15
-85 -46z"/>
<path d="M32129 42993 c-35 -38 -126 -144 -201 -238 l-137 -170 -110 -103
c-61 -57 -111 -108 -111 -114 l0 -10 9 4 c5 2 67 59 138 128 l128 125 152 185
c83 102 165 198 182 214 31 29 39 46 23 46 -5 0 -38 -30 -73 -67z"/>
<path d="M51346 42886 c2 -38 13 -117 24 -175 11 -58 35 -196 55 -306 l35
-200 30 -254 c17 -140 32 -257 35 -259 8 -9 6 19 -20 246 l-25 217 -61 370
c-33 204 -64 384 -69 400 l-10 30 6 -69z"/>
<path d="M88600 42755 c0 -4 12 -26 26 -50 l26 -44 -6 -10 c-3 -5 -53 -37
-111 -71 -106 -63 -186 -120 -168 -120 6 0 21 8 34 18 13 10 75 50 138 88
l113 69 6 14 5 14 -24 44 c-23 42 -39 62 -39 48z"/>
<path d="M92065 42503 c15 -17 387 -254 391 -250 3 3 -255 172 -376 245 l-25
16 10 -11z"/>
<path d="M91208 42290 l-26 -20 -7 -47 c-11 -73 -13 -98 -18 -228 l-5 -120 8
60 c5 33 13 118 19 189 l10 129 27 28 c32 34 28 38 -8 9z"/>
<path d="M27790 42278 c0 -64 69 -421 84 -436 15 -14 13 10 -4 79 -16 63 -60
326 -60 360 0 5 -4 9 -10 9 l-10 0 0 -12z"/>
<path d="M31042 41812 l-169 -237 -54 -50 c-30 -28 -89 -77 -131 -109 -69 -52
-92 -76 -72 -76 11 0 210 159 245 197 20 21 111 142 202 270 l166 232 -8 6 -9
5 -170 -238z"/>
<path d="M31121 41830 c-74 -103 -133 -191 -133 -194 4 -16 26 11 150 182
l133 185 -8 7 -8 8 -134 -188z"/>
<path d="M30340 41664 c0 -12 249 -287 264 -293 l11 -4 -20 24 c-12 13 -70 78
-130 144 -60 66 -113 124 -117 130 l-8 9 0 -10z"/>
<path d="M82730 41631 c8 -16 75 -123 207 -335 l25 -38 9 9 10 10 -117 186
-116 187 -15 0 -14 0 11 -19z"/>
<path d="M30336 41085 l-298 -224 -77 -26 -76 -25 -28 0 -27 0 0 -10 0 -10 27
0 c16 0 64 12 108 26 l80 26 295 221 c162 121 297 221 299 223 1 1 1 7 0 13
l-4 10 -299 -224z"/>
<path d="M28966 41202 l-5 -9 107 -15 107 -16 58 -22 58 -22 65 -43 64 -43 5
7 4 8 -22 19 c-33 29 -107 70 -166 94 l-52 20 -99 15 c-117 18 -117 18 -124 7z"/>
<path d="M28960 41150 c0 -10 36 -20 75 -20 40 0 159 -32 215 -57 25 -11 62
-34 84 -52 38 -30 56 -38 56 -23 -1 12 -93 79 -135 97 -57 24 -170 52 -237 58
l-58 6 0 -9z"/>
<path d="M86522 40845 c-56 -113 -98 -205 -94 -205 10 0 208 398 201 404 -2 3
-51 -87 -107 -199z"/>
<path d="M97100 40646 l-276 -93 -414 -188 c-228 -103 -419 -191 -425 -195 -5
-4 -100 -48 -210 -98 -271 -122 -417 -193 -412 -199 3 -2 40 13 83 35 44 22
169 80 279 130 522 236 765 347 935 425 l185 84 278 92 c152 51 277 95 277 97
0 9 -38 -2 -300 -90z"/>
<path d="M51010 40668 l0 -13 33 -26 c43 -35 139 -83 237 -119 l79 -29 6 9 5
9 -7 4 c-5 2 -33 12 -63 22 -73 24 -206 90 -252 127 l-38 30 0 -14z"/>
<path d="M54121 40568 c0 -7 47 -105 105 -218 127 -250 127 -230 -1 35 -88
183 -106 214 -104 183z"/>
<path d="M60461 40525 c3 -2 95 -18 204 -35 110 -16 210 -32 223 -35 l22 -5 0
7 0 8 -217 33 c-223 33 -240 35 -232 27z"/>
<path d="M60468 40483 c7 -3 110 -19 228 -37 l214 -32 0 6 c0 6 -422 71 -445
69 l-10 -1 13 -5z"/>
<path d="M65865 40249 l-7 -10 6 -6 6 -7 11 11 11 11 -10 6 -11 6 -6 -11z"/>
<path d="M65961 40024 l1 -19 5 13 5 13 -6 6 -6 6 1 -19z"/>
<path d="M84815 39969 c5 -8 41 -61 81 -119 40 -58 119 -184 176 -280 146
-247 540 -871 545 -866 3 3 -89 155 -204 338 -115 183 -255 410 -310 503 -100
170 -264 418 -285 431 l-11 7 8 -14z"/>
<path d="M84777 39946 l-5 -12 -281 -179 c-155 -98 -285 -183 -288 -188 l-6
-10 14 8 c8 4 141 89 297 188 156 98 284 178 286 176 55 -74 198 -299 334
-524 96 -159 176 -292 178 -294 54 -61 -302 532 -429 716 -42 61 -74 113 -71
116 3 2 -2 7 -10 10 l-14 6 -5 -13z"/>
<path d="M54060 39921 l0 -9 93 -17 92 -18 41 -19 42 -18 35 -39 c19 -21 38
-48 42 -60 3 -12 11 -21 16 -21 13 0 12 6 -10 48 -23 44 -63 83 -111 107 l-35
18 -95 18 c-110 22 -110 22 -110 10z"/>
<path d="M62135 39813 c14 -14 404 -177 410 -171 4 4 -338 153 -400 174 l-20
7 10 -10z"/>
<path d="M59833 39224 c3 -11 11 -55 17 -99 15 -105 32 -159 88 -280 79 -172
163 -290 267 -375 30 -25 55 -48 55 -52 0 -16 -85 -129 -168 -221 -103 -117
-278 -280 -344 -322 -27 -17 -48 -34 -48 -38 l0 -8 13 7 c135 79 406 346 522
514 l49 71 -49 42 c-148 123 -255 287 -333 509 l-29 83 -13 88 -13 88 -10 6
-9 6 5 -19z"/>
<path d="M52013 38984 c5 -6 407 -84 430 -84 6 0 8 2 5 5 -5 5 -411 85 -432
85 l-9 0 6 -6z"/>
<path d="M52465 38934 c20 -8 430 -82 434 -78 2 2 -2 6 -10 8 -27 9 -397 76
-416 75 l-18 -1 10 -4z"/>
<path d="M53345 38731 c11 -6 191 -42 400 -81 209 -39 389 -74 400 -77 l20 -5
-10 9 -10 10 -385 73 c-212 39 -396 74 -410 76 l-25 4 20 -9z"/>
<path d="M46230 38383 c0 -5 11 -20 25 -33 l25 -23 7 6 c3 4 4 8 2 10 -2 1
-16 13 -31 26 l-28 24 0 -10z"/>
<path d="M87860 38360 c-25 -15 -109 -67 -188 -115 -79 -48 -141 -89 -139 -92
4 -3 359 207 376 223 2 2 2 6 0 8 -2 2 -24 -9 -49 -24z"/>
<path d="M60055 38081 c167 -158 607 -561 612 -561 12 0 -66 75 -352 339 -143
133 -264 241 -270 241 l-9 0 19 -19z"/>
<path d="M60019 38059 c-20 -30 -197 -185 -256 -224 -24 -15 -43 -32 -43 -37
l0 -10 53 38 c82 59 127 96 196 163 l63 61 187 -174 c364 -338 416 -386 426
-386 6 0 -16 24 -48 53 -32 28 -170 156 -307 282 l-248 230 -4 14 -3 15 -16
-25z"/>
<path d="M86157 37827 c77 -129 222 -353 245 -379 l30 -33 -16 25 c-9 14 -69
109 -133 212 -65 103 -122 188 -126 188 l-8 0 8 -13z"/>
<path d="M90861 37774 l1 -19 5 13 5 13 -6 6 -6 6 1 -19z"/>
<path d="M92790 37634 c0 -3 5 -15 11 -26 l11 -20 -11 -11 c-14 -14 -14 -27
-1 -27 5 0 14 9 20 19 l10 20 -10 25 -10 26 -10 0 c-5 0 -10 -3 -10 -6z"/>
<path d="M86157 37278 c-125 -83 -226 -153 -223 -155 3 -4 439 278 461 298 l9
9 -9 0 c-6 -1 -113 -69 -238 -152z"/>
<path d="M580 37384 l0 -20 20 -22 c12 -12 26 -22 32 -22 l11 0 -20 23 c-11
12 -25 31 -31 42 l-11 20 -1 -21z"/>
<path d="M86187 37247 c-125 -82 -226 -152 -223 -154 3 -3 105 61 228 142 243
161 233 153 227 159 -2 2 -107 -64 -232 -147z"/>
<path d="M50910 37108 l0 -17 150 -143 c83 -79 156 -145 163 -147 6 -2 -57 63
-140 144 -84 80 -157 154 -163 163 l-9 17 -1 -17z"/>
<path d="M58960 36691 c-12 -24 -13 -31 -2 -31 5 0 14 11 20 25 l12 25 -10 0
c-5 0 -14 -9 -20 -19z"/>
<path d="M83729 36448 c21 -35 75 -124 121 -198 86 -141 98 -158 86 -125 -11
32 -230 385 -238 385 -4 0 9 -28 31 -62z"/>
<path d="M39817 36203 c2 -43 10 -244 18 -447 8 -203 17 -371 20 -374 7 -8 6
44 -10 423 -8 187 -15 370 -15 408 l0 67 -8 0 -9 0 4 -77z"/>
<path d="M51891 36194 c5 -15 308 -294 319 -294 8 0 -181 179 -294 279 l-29
26 4 -11z"/>
<path d="M29795 35918 c-2 -7 -36 -104 -75 -216 l-70 -204 12 4 12 4 73 210
c40 115 72 210 73 212 1 9 -21 0 -25 -10z"/>
<path d="M60516 35901 l-6 -9 229 -125 c125 -69 286 -164 357 -210 136 -88
173 -109 214 -122 l25 -8 -14 17 c-7 9 -19 16 -25 16 -6 0 -74 41 -151 91
l-140 92 -200 109 c-110 61 -219 121 -242 134 l-42 24 -5 -9z"/>
<path d="M54483 35700 c3 -25 14 -107 24 -182 l17 -138 8 0 8 0 -6 28 c-2 15
-13 94 -24 176 -11 82 -22 152 -26 155 l-7 6 6 -45z"/>
<path d="M86436 35672 l-7 -12 12 -22 c7 -13 33 -54 59 -93 l46 -70 52 -110
c29 -61 52 -118 52 -128 l0 -17 11 0 12 0 -7 33 c-3 17 -27 77 -53 132 l-47
100 -57 85 c-31 47 -58 92 -61 100 l-4 14 -8 -12z"/>
<path d="M84916 35603 c-21 -6 -464 -288 -486 -311 l-15 -15 15 8 c8 4 119 75
246 156 l231 149 27 0 26 0 20 -20 c11 -11 33 -46 49 -78 16 -32 56 -94 88
-137 32 -44 142 -215 242 -380 101 -165 198 -318 214 -340 17 -22 32 -42 34
-44 2 -2 5 -2 8 1 l6 5 -24 29 c-14 16 -110 170 -216 341 -105 172 -217 348
-248 390 -32 43 -75 111 -96 150 l-38 72 -22 16 c-22 15 -28 16 -61 8z"/>
<path d="M40417 35408 l-6 -22 5 -23 c4 -13 10 -23 15 -23 l9 0 -9 23 -8 22 8
23 8 22 -8 0 c-5 0 -11 -10 -14 -22z"/>
<path d="M85150 35375 c0 -3 24 -38 54 -78 29 -40 133 -202 231 -362 98 -159
185 -298 193 -308 24 -27 26 -12 4 20 -12 15 -98 154 -192 308 -183 297 -290
453 -290 420z"/>
<path d="M54493 35330 c3 -25 15 -120 28 -212 l22 -168 9 0 8 0 -5 23 c-2 12
-16 105 -30 207 -14 101 -29 187 -32 190 l-6 5 6 -45z"/>
<path d="M80303 34906 c3 -8 82 -157 176 -332 94 -175 171 -322 171 -326 l0
-9 13 3 c7 2 154 79 325 172 l312 168 0 9 0 9 -22 -14 c-46 -29 -599 -326
-608 -326 l-8 0 -177 330 c-97 182 -179 330 -182 330 -3 0 -3 -6 0 -14z"/>
<path d="M80298 34828 c21 -40 76 -142 122 -226 45 -84 84 -151 87 -149 6 7
-230 446 -240 447 l-9 0 40 -72z"/>
<path d="M32510 34745 c0 -6 220 -117 358 -181 164 -76 98 -37 -128 76 -218
109 -230 115 -230 105z"/>
<path d="M59650 34584 c0 -5 4 -14 9 -19 5 -6 41 -100 82 -209 l73 -199 4 12
4 11 -72 192 -71 193 -15 15 -14 14 0 -10z"/>
<path d="M82859 34277 c-207 -138 -375 -254 -373 -256 2 -2 99 59 216 136 117
77 287 189 378 248 91 59 169 111 175 116 l9 9 -14 0 -15 0 -376 -253z"/>
<path d="M37250 34225 c-91 -52 -169 -96 -175 -98 l-10 -4 12 -13 11 -12 175
98 175 98 -5 13 c-3 7 -8 13 -12 13 -3 -1 -80 -43 -171 -95z"/>
<path d="M34165 33334 c-76 -58 -152 -113 -167 -122 -15 -9 -28 -20 -28 -25
l0 -8 13 7 c41 26 201 143 326 241 2 2 2 5 0 7 -2 3 -67 -43 -144 -100z"/>
<path d="M33930 33132 l0 -68 -15 -58 c-21 -78 -39 -115 -83 -166 l-36 -43 14
5 c8 2 32 27 53 54 l37 49 19 60 18 60 8 88 7 87 -11 0 -11 0 0 -68z"/>
<path d="M77580 33084 c-113 -18 -208 -33 -212 -33 -5 -1 -8 -8 -8 -16 l0 -16
33 6 c42 7 417 65 422 65 3 0 2 7 -1 15 l-6 15 -12 -1 c-6 -1 -103 -16 -216
-35z"/>
<path d="M76470 32890 c-206 -27 -504 -69 -661 -94 -158 -25 -292 -46 -298
-46 l-11 0 0 -20 0 -20 19 0 c11 0 159 22 330 50 249 40 992 140 1040 140 l11
0 0 20 0 20 -27 -1 c-16 -1 -197 -23 -403 -49z"/>
<path d="M75125 32693 c-16 -2 -40 -6 -52 -8 l-23 -5 0 -20 0 -20 23 4 c12 3
99 15 192 27 94 12 172 23 174 25 5 5 -273 2 -314 -3z"/>
<path d="M33305 32513 c-228 -131 -316 -185 -312 -190 5 -4 381 210 402 228
l9 9 -9 0 c-6 0 -46 -21 -90 -47z"/>
<path d="M73548 32533 c6 -2 18 -2 25 0 l12 5 -25 0 -25 0 13 -5z"/>
<path d="M73463 32523 c9 -2 23 -2 30 0 l12 5 -30 0 -30 0 18 -5z"/>
<path d="M73378 32513 c12 -2 30 -2 40 0 l17 5 -40 -1 -40 0 23 -4z"/>
<path d="M98944 32224 c4 -16 9 -62 13 -101 l6 -73 -23 -71 -23 -71 -24 -28
c-12 -15 -23 -34 -23 -41 l1 -14 29 35 30 35 19 51 20 51 7 62 7 61 -13 61
-13 60 -10 6 -10 6 7 -29z"/>
<path d="M98818 31737 l-27 -11 -10 -29 -11 -29 29 31 29 31 29 0 28 0 -15 10
c-17 11 -16 11 -52 -3z"/>
<path d="M98893 31718 c4 -12 266 -397 283 -417 2 -2 6 -2 8 0 4 4 -276 415
-291 429 l-6 5 6 -17z"/>
<path d="M98330 31706 c8 -7 37 -21 64 -30 l50 -16 65 0 66 1 56 13 57 14 45
-27 46 -27 152 -207 c84 -114 154 -205 157 -203 2 3 -66 100 -151 217 l-156
212 -47 27 -48 27 -67 -17 -68 -18 -68 8 -68 8 -44 16 c-53 20 -59 20 -41 2z"/>
<path d="M872 31343 c-11 -4 -47 -63 -39 -63 2 0 21 16 41 35 l37 35 -13 -1
c-7 0 -19 -3 -26 -6z"/>
<path d="M82684 30549 l-7 -12 24 -20 c23 -19 189 -166 316 -281 l62 -56 7 12
8 12 -75 69 c-91 86 -300 271 -316 280 l-12 7 -7 -11z"/>
<path d="M79867 30480 c9 -16 21 -30 26 -30 l8 0 -18 30 c-9 17 -21 30 -26 30
l-8 0 18 -30z"/>
<path d="M93535 28884 c-88 -64 -169 -122 -179 -130 l-20 -14 6 -5 6 -6 173
126 c96 70 178 131 184 136 l9 9 -10 0 c-5 0 -82 -52 -169 -116z"/>
<path d="M96055 27326 c-99 -73 -349 -255 -555 -406 -206 -150 -376 -274 -378
-275 -2 -2 0 -5 5 -8 l8 -5 380 279 c647 475 735 540 735 545 0 11 -29 -8
-195 -130z"/>
<path d="M95203 27006 c-105 -78 -276 -203 -380 -278 -389 -284 -584 -430
-580 -435 3 -2 93 60 201 139 107 79 280 205 383 280 255 186 556 408 567 419
5 5 8 10 5 12 -2 2 -90 -60 -196 -137z"/>
<path d="M87395 25991 l-5 -9 188 -148 c103 -82 280 -226 394 -321 114 -95
209 -173 212 -173 4 0 6 4 6 8 0 11 -341 296 -592 495 l-197 156 -6 -8z"/>
<path d="M24416 25734 c-3 -9 -6 -32 -6 -52 l1 -37 8 15 c5 8 11 32 15 53 l7
37 -9 0 c-6 0 -13 -7 -16 -16z"/>
<path d="M87770 25295 c0 -3 27 -46 60 -95 l60 -90 37 -90 c20 -49 41 -90 45
-90 14 0 9 20 -28 103 l-35 82 -61 93 c-52 79 -78 108 -78 87z"/>
<path d="M87028 24893 l-47 -46 -26 17 -26 17 -17 -5 c-21 -7 -191 -176 -177
-176 6 0 46 36 90 80 l80 80 17 0 c9 0 20 -4 23 -10 l6 -10 23 0 22 0 44 45
c24 24 42 47 39 49 -3 3 -26 -16 -51 -41z"/>
<path d="M90505 24839 c55 -6 165 -21 244 -35 79 -13 146 -22 149 -19 7 7 -12
11 -158 34 l-135 21 -100 5 -100 4 100 -10z"/>
<path d="M87081 20482 c6 -17 291 -320 303 -321 11 -1 -37 53 -182 204 -69 72
-123 124 -121 117z"/>
<path d="M87075 20418 c96 -104 280 -288 288 -288 5 0 -62 74 -148 165 -87 91
-163 165 -168 165 l-11 0 39 -42z"/>
<path d="M10720 19659 c0 -2 -7 -105 -15 -229 l-14 -225 7 -7 7 -7 3 57 c1 31
7 135 13 230 l10 174 -5 6 c-3 3 -6 3 -6 1z"/>
<path d="M95281 18073 c4 -11 346 -313 355 -313 12 0 -8 19 -153 146 -87 75
-169 147 -182 158 l-24 21 4 -12z"/>
<path d="M7540 17942 l0 -9 43 -12 c23 -7 68 -26 100 -42 l57 -29 0 8 c0 13
-60 45 -130 69 -75 26 -70 25 -70 15z"/>
<path d="M92900 16964 c0 -17 995 -884 1014 -884 l10 0 -9 9 c-6 4 -163 140
-350 301 -291 251 -531 462 -637 559 l-28 25 0 -10z"/>
<path d="M93264 16692 c5 -9 838 -734 990 -862 l29 -24 -4 11 c-4 11 -981 860
-1009 878 l-13 8 7 -11z"/>
<path d="M92371 16559 c-89 -67 -160 -124 -157 -126 2 -2 78 50 168 118 188
140 174 129 161 129 -5 0 -82 -55 -172 -121z"/>
<path d="M92177 16433 l-6 -10 96 -104 c53 -57 123 -132 156 -166 l59 -63 9 6
9 5 -147 157 c-80 86 -152 163 -159 170 l-12 14 -5 -9z"/>
<path d="M25509 12776 c-2 -2 -85 -14 -184 -25 -98 -12 -181 -24 -184 -26 -8
-9 41 -5 207 15 l162 19 18 10 17 10 -16 1 c-9 0 -18 -2 -20 -4z"/>
<path d="M25460 12730 c-47 -10 -138 -24 -202 -30 l-118 -12 0 -7 0 -7 148 17
c81 9 173 22 205 29 l57 13 0 9 c0 4 -1 8 -2 7 -2 -1 -41 -9 -88 -19z"/>
<path d="M25823 4053 l-83 -4 0 -11 0 -11 122 6 c66 4 172 7 235 7 l113 0 0
10 0 10 -152 -2 c-84 -1 -190 -4 -235 -5z"/>
<path d="M27965 3850 l6 -10 72 0 72 0 154 -20 c142 -18 173 -19 159 -5 -3 3
-74 14 -159 25 l-154 20 -78 0 -78 0 6 -10z"/>
<path d="M23015 2281 c3 -5 79 -68 170 -140 l164 -130 6 8 5 9 -165 131 c-91
72 -170 131 -176 131 l-10 0 6 -9z"/>
<path d="M22984 2232 c7 -11 313 -252 320 -252 21 0 -12 31 -149 138 -85 67
-160 122 -166 122 l-10 0 5 -8z"/>
<path d="M6925 1541 c-122 -52 -305 -150 -305 -163 0 -17 27 -6 115 43 50 28
141 72 203 98 l113 48 0 9 c1 17 -18 12 -126 -35z"/>
</g>
</svg>
