<?xml version="1.0" standalone="no"?>
<!DOCTYPE svg PUBLIC "-//W3C//DTD SVG 20010904//EN"
 "http://www.w3.org/TR/2001/REC-SVG-20010904/DTD/svg10.dtd">
<svg version="1.0" xmlns="http://www.w3.org/2000/svg"
 width="7500.000000pt" height="7500.000000pt" viewBox="0 0 7500.000000 7500.000000"
 preserveAspectRatio="xMidYMid meet">
<metadata>
Created by potrace 1.16, written by Peter Selinger 2001-2019
</metadata>
<g transform="translate(0.000000,7500.000000) scale(0.075000,-0.075000)"
fill="#000000" stroke="none">
<path d="M97895 94410 l-169 -170 10 -10 11 -11 164 171 c90 94 166 176 167
181 l4 9 -9 0 c-4 0 -85 -76 -178 -170z"/>
<path d="M22830 92611 l0 -10 53 -16 c28 -8 223 -66 432 -129 209 -62 382
-111 384 -109 13 10 -50 32 -429 143 -228 68 -421 125 -427 128 l-13 4 0 -11z"/>
<path d="M56112 92042 c-56 -103 -103 -191 -103 -197 0 -5 4 -11 9 -13 l9 -3
107 191 107 190 -6 10 c-3 6 -9 10 -13 10 -4 0 -53 -85 -110 -188z"/>
<path d="M78502 88609 l4 -14 224 -78 c194 -67 248 -82 229 -62 -3 2 -99 38
-215 78 -115 41 -217 78 -228 82 l-19 8 5 -14z"/>
<path d="M79855 88190 l-5 -8 33 -12 c143 -52 372 -130 378 -130 5 0 9 4 9 8
l0 8 -62 21 c-35 11 -127 43 -205 71 l-143 51 -5 -9z"/>
<path d="M75707 86484 l-5 -6 19 -32 c10 -18 28 -59 39 -91 l20 -58 0 -40 0
-39 -74 -207 c-41 -113 -90 -250 -110 -303 l-35 -97 8 -5 8 -5 106 297 106
297 6 48 6 48 -17 52 c-16 50 -61 147 -68 147 -1 0 -5 -3 -9 -6z"/>
<path d="M61310 85291 l0 -9 63 -6 c34 -3 125 -7 202 -10 l140 -5 40 8 40 8
-15 6 c-8 3 -117 8 -242 12 l-228 6 0 -10z"/>
<path d="M80510 84371 l0 -8 153 -53 c83 -29 180 -63 215 -76 l62 -23 0 9 0 8
-42 15 c-24 8 -121 42 -215 75 l-173 61 0 -8z"/>
<path d="M92797 81963 l-5 -8 186 -135 c102 -74 189 -136 194 -138 l8 -4 0 10
0 10 -177 129 c-98 71 -183 132 -190 136 l-12 7 -4 -7z"/>
<path d="M95492 80408 c-109 -149 -174 -241 -179 -256 l-6 -17 20 25 c24 30
197 270 207 288 18 31 -7 7 -42 -40z"/>
<path d="M76006 78244 l-186 -146 0 -15 0 -15 13 9 c117 91 355 279 365 288
l14 13 -10 6 -10 6 -186 -146z"/>
<path d="M3896 75351 l-7 -10 28 -7 c15 -4 116 -28 225 -54 l197 -47 5 12 4
11 -201 48 c-111 26 -212 50 -223 53 l-22 5 -6 -11z"/>
<path d="M82431 74188 l-23 -103 -5 -137 -6 -138 14 0 14 0 1 138 1 137 21 88
c24 97 26 117 14 117 l-9 0 -22 -102z"/>
<path d="M76920 72519 c0 -5 1 -9 3 -10 12 -4 1413 -96 1416 -93 2 2 1 7 -2
10 l-7 7 -647 43 c-357 23 -674 45 -705 47 l-58 5 0 -9z"/>
<path d="M36224 67999 c-3 -6 -4 -12 -3 -14 10 -9 390 -195 399 -195 5 0 10 4
10 10 l0 10 -200 100 -199 100 -7 -11z"/>
<path d="M97697 66295 c-115 -29 -211 -56 -214 -59 l-6 -6 6 -6 6 -7 188 47
c103 26 205 51 226 57 l37 10 0 9 0 10 -17 -1 c-10 0 -112 -25 -226 -54z"/>
<path d="M40767 66223 l-6 -5 47 -62 47 -61 27 -60 27 -61 10 -103 c5 -57 12
-106 15 -109 l6 -5 0 20 c0 12 -5 67 -11 123 l-10 103 -29 56 c-15 31 -48 82
-73 113 l-44 57 -6 -6z"/>
<path d="M97467 66143 l-5 -8 41 -203 41 -202 12 0 12 0 -4 18 c-2 9 -22 102
-45 207 -22 104 -42 191 -43 193 -2 2 -6 0 -9 -5z"/>
<path d="M48982 65719 c-73 -122 -131 -226 -130 -230 2 -5 63 91 136 212 73
122 131 226 130 230 -2 5 -63 -91 -136 -212z"/>
<path d="M1360 64799 c-52 -10 -128 -24 -167 -31 -40 -7 -73 -15 -73 -18 l0
-6 58 7 c31 3 75 11 97 17 22 6 73 16 114 22 l75 12 13 -18 13 -18 0 21 0 21
-16 6 c-9 3 -16 6 -17 5 -1 -1 -45 -9 -97 -20z"/>
<path d="M37180 64720 l0 -20 11 0 c14 0 383 -48 422 -55 l27 -4 0 19 0 20
-22 4 c-26 6 -410 56 -427 56 l-11 0 0 -20z"/>
<path d="M89635 63879 c5 -8 48 -59 96 -114 47 -55 105 -127 128 -159 46 -66
57 -65 13 1 -31 46 -218 269 -235 280 l-10 6 8 -14z"/>
<path d="M90097 63644 c-152 -133 -183 -164 -159 -164 5 0 84 65 176 146 l167
145 -6 10 c-4 5 -7 9 -8 9 -1 0 -77 -66 -170 -146z"/>
<path d="M89719 63363 l-162 -158 -178 -205 -178 -205 9 -9 c5 -5 11 -8 13 -5
2 2 76 87 165 189 l160 185 176 175 c97 96 176 178 176 182 0 22 -33 -5 -181
-149z"/>
<path d="M16247 63320 c-47 -39 -114 -86 -148 -106 l-63 -35 -95 -27 -96 -27
24 -3 24 -4 81 23 81 23 60 36 c33 20 99 68 147 107 l88 72 -9 5 -9 6 -85 -70z"/>
<path d="M13740 63080 l-25 -8 155 1 155 2 35 -8 35 -7 -30 14 -30 15 -135 0
-135 -1 -25 -8z"/>
<path d="M15030 62993 l0 -32 10 -6 10 -6 0 23 c0 13 -5 30 -10 38 l-10 15 0
-32z"/>
<path d="M10261 62716 c2 -3 81 -9 174 -15 94 -6 187 -13 208 -15 l37 -4 0 7
0 7 -187 12 c-203 13 -239 14 -232 8z"/>
<path d="M43290 62585 c0 -3 219 -252 291 -329 l9 -10 0 10 c0 10 -287 334
-295 334 -3 0 -5 -2 -5 -5z"/>
<path d="M57561 62054 c-122 -97 -220 -179 -217 -181 2 -3 46 28 98 69 51 41
147 116 213 168 66 51 124 97 129 102 l10 8 -6 5 -6 6 -221 -177z"/>
<path d="M56736 62112 c5 -5 133 -62 284 -127 151 -65 280 -120 285 -123 l10
-5 -10 11 c-10 11 -557 252 -572 252 l-7 0 10 -8z"/>
<path d="M4132 62040 c2 -5 79 -73 171 -150 l169 -140 9 6 c5 3 9 7 9 9 0 8
-339 285 -350 285 l-12 0 4 -10z"/>
<path d="M43901 61915 c0 -5 6 -19 14 -29 l15 -20 0 10 c0 6 -7 19 -15 30
l-14 19 0 -10z"/>
<path d="M63799 59165 c25 -124 49 -225 52 -225 4 0 -14 101 -39 225 -25 124
-49 225 -52 225 l-7 0 46 -225z"/>
<path d="M84010 58748 c0 -3 35 -71 77 -150 42 -78 87 -170 99 -203 l23 -60 0
16 c1 31 -26 94 -104 239 -72 135 -95 173 -95 158z"/>
<path d="M60653 58316 l-202 -41 -8 -9 -8 -9 25 6 c14 3 108 22 210 43 102 20
189 41 195 46 l9 8 -9 -1 c-6 -1 -101 -20 -212 -43z"/>
<path d="M63994 58013 c3 -10 41 -202 86 -428 44 -225 126 -619 181 -874 l100
-464 -16 -17 c-8 -9 -15 -23 -15 -31 l0 -14 24 30 c13 16 22 33 20 36 -8 13
-227 1053 -295 1401 l-74 378 -8 0 -8 0 5 -17z"/>
<path d="M46276 57971 l-6 -9 46 -57 47 -57 74 -131 c41 -73 79 -136 84 -141
l9 -10 0 13 c0 7 -32 70 -71 141 l-72 128 -53 66 -52 67 -6 -10z"/>
<path d="M54526 56484 c-4 -9 -4 -19 -2 -21 8 -8 26 8 26 23 l0 14 -9 0 c-5 0
-12 -7 -15 -16z"/>
<path d="M90620 56491 c0 -5 51 -30 113 -57 61 -26 145 -66 185 -87 l72 -39 0
9 0 9 -92 47 c-51 26 -135 64 -185 86 l-93 40 0 -8z"/>
<path d="M64430 56242 l35 -17 3 -33 3 -34 -17 -19 -17 -19 -33 0 -33 0 -6 10
c-3 6 -12 10 -18 10 l-12 -1 24 -20 24 -20 31 7 31 6 23 21 23 22 -6 35 -6 35
-21 18 -20 17 -22 0 -21 0 35 -18z"/>
<path d="M32964 56219 c-16 -17 -67 -63 -114 -103 l-85 -72 -92 -47 c-80 -41
-118 -67 -99 -67 3 0 57 27 120 61 l114 61 98 93 99 93 -6 6 -5 6 -30 -31z"/>
<path d="M25490 55890 c0 -11 362 -241 370 -234 2 3 -2 10 -10 15 -8 4 -93 58
-187 118 l-173 110 0 -9z"/>
<path d="M35870 55836 c0 -7 35 -22 75 -32 l25 -6 0 10 0 10 -27 6 c-16 3 -38
8 -50 12 l-23 6 0 -6z"/>
<path d="M62205 55693 c-143 -30 -262 -57 -264 -59 -2 -2 -2 -7 2 -10 l6 -6
253 51 c287 59 288 59 288 72 l0 9 -12 -1 c-7 -1 -130 -26 -273 -56z"/>
<path d="M46980 55720 l0 -13 7 6 6 7 -6 7 -7 6 0 -13z"/>
<path d="M47000 55650 l0 -13 7 6 6 7 -6 7 -7 6 0 -13z"/>
<path d="M47030 55550 l0 -13 7 6 6 7 -6 7 -7 6 0 -13z"/>
<path d="M47040 55520 l0 -13 7 6 6 7 -6 7 -7 6 0 -13z"/>
<path d="M51980 54990 c47 -4 114 -8 150 -9 l65 -1 38 -26 c21 -14 41 -23 44
-21 3 3 -14 18 -38 34 l-42 28 -151 1 -151 2 85 -8z"/>
<path d="M53202 54903 c-51 -88 -237 -363 -245 -363 -5 0 -69 41 -143 92 -73
50 -136 89 -139 86 -3 -3 58 -47 135 -98 77 -51 140 -97 140 -101 l0 -9 16 0
15 0 -5 8 -5 9 107 161 c59 88 121 184 139 211 l32 51 -10 0 c-5 0 -22 -21
-37 -47z"/>
<path d="M53285 54930 c4 -14 9 -32 11 -41 l6 -16 -229 -344 c-280 -420 -353
-533 -353 -545 0 -5 67 91 149 214 82 123 151 224 153 225 3 1 114 -69 247
-156 134 -87 245 -156 248 -154 2 2 -106 76 -239 163 -134 87 -245 159 -247
161 -2 2 62 102 143 223 l146 220 -20 38 -21 37 6 -25z"/>
<path d="M49200 54695 c0 -12 115 -235 122 -235 9 0 -105 239 -114 240 -5 0
-8 -2 -8 -5z"/>
<path d="M52650 54683 c0 -7 248 -179 297 -207 l16 -9 -6 10 c-10 16 -307 215
-307 206z"/>
<path d="M51885 54403 c-165 -215 -178 -233 -168 -232 4 0 24 21 43 47 20 26
85 111 144 190 60 78 107 144 105 147 -3 2 -59 -66 -124 -152z"/>
<path d="M51940 54300 c-79 -105 -141 -193 -138 -195 3 -3 70 83 150 190 80
107 142 195 138 195 -4 0 -72 -86 -150 -190z"/>
<path d="M53615 54304 c-58 -86 -104 -158 -101 -161 2 -3 33 37 67 89 35 51
84 123 111 161 l48 67 -9 0 c-5 0 -57 -70 -116 -156z"/>
<path d="M53687 54338 c-115 -167 -148 -218 -140 -218 4 1 42 51 83 112 41 62
90 131 107 155 l33 43 -9 0 c-5 0 -38 -42 -74 -92z"/>
<path d="M88006 54211 l-6 -9 26 -16 25 -17 31 3 31 3 5 13 4 13 -25 -6 -25
-7 -30 16 -31 16 -5 -9z"/>
<path d="M52580 53952 c-41 -64 -108 -161 -148 -215 -40 -55 -71 -101 -69
-103 7 -7 139 173 221 301 66 103 84 135 74 135 -2 0 -37 -53 -78 -118z"/>
<path d="M55527 53356 c-71 -125 -111 -215 -101 -225 8 -8 21 13 34 54 7 22
41 90 75 150 34 61 67 120 74 133 l12 22 -10 0 -9 0 -75 -134z"/>
<path d="M52443 53266 l-22 -23 -83 -7 c-45 -4 -84 -9 -87 -11 -12 -13 13 -14
94 -4 l89 10 13 11 c8 6 19 20 24 30 l10 18 -8 0 c-4 0 -18 -11 -30 -24z"/>
<path d="M81010 53231 c0 -25 101 -418 117 -453 l16 -38 53 -61 52 -60 47 -30
47 -30 296 -89 c164 -50 306 -93 317 -96 l20 -6 -10 9 c-5 6 -143 50 -305 99
l-295 88 -53 32 -54 32 -50 58 c-27 33 -58 77 -69 99 l-19 40 -50 204 c-46
187 -60 235 -60 202z"/>
<path d="M31427 52782 c-213 -190 -385 -347 -383 -350 3 -2 168 141 368 318
413 367 414 368 407 374 -2 2 -178 -152 -392 -342z"/>
<path d="M55051 52719 l-134 -260 -64 -80 c-36 -43 -69 -79 -74 -79 l-9 0 0
-15 c0 -34 29 -12 109 84 l61 73 130 259 c72 142 130 263 130 269 0 31 -28
-15 -149 -251z"/>
<path d="M56091 52860 l-22 -31 -34 -16 -33 -16 5 -14 5 -13 36 22 c36 22 91
77 92 91 0 4 -6 7 -13 7 l-13 0 -23 -30z"/>
<path d="M52651 52645 l-114 -55 5 -6 6 -5 111 55 c61 31 111 58 111 61 0 7 6
10 -119 -50z"/>
<path d="M54983 52408 l-91 -133 -41 -39 -40 -39 5 -9 5 -8 45 39 46 40 89
130 c49 71 89 135 89 140 0 27 -23 1 -107 -121z"/>
<path d="M52930 52307 c0 -17 49 -103 70 -122 l22 -20 59 -117 c33 -65 61
-118 64 -118 3 0 -22 55 -56 123 l-61 122 -34 38 c-19 20 -34 43 -34 50 0 14
-29 57 -30 44z"/>
<path d="M52700 52013 c0 -7 259 -545 266 -552 2 -2 7 -1 10 2 l7 6 -134 276
c-116 239 -149 298 -149 268z"/>
<path d="M88975 51980 l-6 -9 30 -16 c37 -19 62 -19 87 -1 l19 14 -6 6 -6 6
-32 -11 -31 -11 -25 16 -24 16 -6 -10z"/>
<path d="M89102 51940 c3 -8 64 -186 136 -395 l131 -380 76 -184 75 -184 24
-86 25 -86 0 20 c1 38 -48 185 -123 367 l-75 183 -127 370 c-69 204 -131 375
-137 380 l-10 10 5 -15z"/>
<path d="M18506 51763 c-2 -10 -12 -56 -21 -103 -9 -47 -34 -143 -56 -214 -36
-121 -41 -153 -20 -130 19 20 121 410 121 460 0 12 -20 1 -24 -13z"/>
<path d="M53588 51567 l-378 -192 0 -12 c0 -7 1 -13 3 -13 3 0 751 381 756
385 1 2 1 8 0 14 l-4 10 -377 -192z"/>
<path d="M26775 50749 c-4 -99 -5 -183 -2 -185 3 -3 8 57 11 133 3 76 8 159
11 186 l4 47 -8 0 -8 0 -8 -181z"/>
<path d="M87340 50249 c-58 -50 -138 -116 -177 -146 -64 -49 -86 -73 -67 -73
10 0 127 92 239 189 61 52 112 96 114 97 1 2 1 8 0 13 l-4 11 -105 -91z"/>
<path d="M31755 49710 c3 -41 10 -151 15 -244 l10 -169 6 -6 7 -6 -6 90 c-4
50 -10 155 -13 235 l-7 145 -8 15 -9 15 5 -75z"/>
<path d="M35973 49510 c4 -14 7 -33 7 -42 l0 -18 9 0 9 0 -8 36 c-5 19 -12 39
-16 42 l-7 7 6 -25z"/>
<path d="M34322 49343 c10 -60 31 -198 48 -308 50 -327 66 -425 73 -432 l7 -6
6 6 6 5 -37 224 c-20 123 -50 312 -68 421 l-31 197 -11 0 -11 0 18 -107z"/>
<path d="M36030 49444 c0 -5 12 -85 26 -179 l27 -170 9 -10 9 -10 -5 25 c-3
14 -17 97 -31 184 -22 137 -35 195 -35 160z"/>
<path d="M91417 48743 c-80 -93 -162 -190 -183 -218 -21 -27 -109 -125 -197
-217 -88 -93 -155 -168 -151 -168 14 0 313 317 369 390 28 36 112 136 188 222
76 87 134 158 129 158 -5 0 -75 -75 -155 -167z"/>
<path d="M31805 48635 c3 -60 8 -181 11 -267 l7 -158 9 0 9 0 -5 18 c-2 9 -8
106 -11 215 -4 108 -11 221 -16 250 l-8 52 4 -110z"/>
<path d="M80823 48627 l-202 -112 -1 -12 c0 -7 3 -13 8 -13 4 0 99 51 212 114
l204 113 4 12 4 11 -14 0 c-7 -1 -104 -51 -215 -113z"/>
<path d="M34485 48590 l-6 -10 20 0 20 0 6 10 6 10 -20 0 -20 0 -6 -10z"/>
<path d="M41450 48443 c-6 -21 -14 -65 -17 -98 l-5 -60 47 -320 c26 -176 48
-321 49 -322 1 -1 6 1 12 5 l11 7 -49 325 -49 325 11 60 c6 33 13 72 17 88 l5
27 -10 0 -11 0 -11 -37z"/>
<path d="M67282 48299 l4 -13 260 -53 c142 -29 554 -111 914 -183 360 -73 665
-134 678 -137 l22 -5 0 14 0 13 -917 184 c-505 100 -929 185 -942 188 l-24 6
5 -14z"/>
<path d="M22279 47313 c-1 -71 -4 -190 -8 -266 l-6 -137 6 0 c13 0 18 61 25
293 l7 237 -11 0 -12 0 -1 -127z"/>
<path d="M35025 46479 c-71 -3 -158 -7 -193 -8 l-64 -1 5 -12 4 -13 49 2 c27
1 124 5 217 8 l167 7 0 14 0 14 -27 -2 c-16 -1 -86 -5 -158 -9z"/>
<path d="M51993 46468 c18 -50 382 -809 384 -801 3 9 -370 800 -383 811 l-7 7
6 -17z"/>
<path d="M81200 45680 l0 -9 15 5 c8 4 15 8 15 10 0 2 -7 4 -15 4 l-15 0 0
-10z"/>
<path d="M81251 45625 c0 -22 -3 -53 -6 -70 l-6 -30 16 35 16 34 -10 36 -9 35
-1 -40z"/>
<path d="M55815 43030 c4 -12 35 -101 70 -198 l62 -176 11 -4 11 -3 -68 197
-68 198 -13 4 -12 4 7 -22z"/>
<path d="M51888 43006 l-147 -21 -8 -9 -8 -8 30 6 c17 3 100 15 185 26 85 12
157 23 159 26 8 8 -65 1 -211 -20z"/>
<path d="M51015 42924 c-165 -24 -332 -46 -372 -48 -40 -2 -167 -17 -283 -32
l-210 -29 0 -10 0 -11 243 33 c133 18 395 53 582 78 187 26 349 50 360 55 l20
9 -20 -1 c-11 0 -155 -20 -320 -44z"/>
<path d="M93520 40834 c0 -12 255 -364 263 -364 l9 0 -9 13 c-6 6 -65 90 -132
185 -116 162 -131 181 -131 166z"/>
<path d="M83443 40795 c26 -52 218 -370 229 -380 l11 -10 -5 10 c-26 50 -225
383 -236 395 l-14 15 15 -30z"/>
<path d="M58060 40235 l0 -225 10 0 10 0 0 225 0 225 -10 0 -10 0 0 -225z"/>
<path d="M54676 40022 l-5 -8 126 -183 125 -182 10 3 c5 2 10 6 11 10 3 9
-245 368 -254 368 -4 0 -10 -4 -13 -8z"/>
<path d="M46052 38267 l-163 -163 14 -12 14 -12 158 165 158 166 -9 9 -10 10
-162 -163z"/>
<path d="M85126 37703 c-4 -43 -8 -94 -11 -113 l-4 -35 43 -68 42 -67 6 6 6 6
-40 64 -40 64 7 110 c4 60 5 110 2 110 -3 0 -8 -35 -11 -77z"/>
<path d="M40934 36485 c3 -16 30 -203 61 -415 63 -444 65 -454 71 -447 3 3
-23 200 -57 438 l-62 434 -9 10 -10 10 6 -30z"/>
<path d="M40020 36458 c-47 -5 -104 -11 -127 -14 l-43 -5 0 -80 0 -79 8 0 7 0
-3 75 -4 75 14 0 c7 0 65 5 128 11 l115 11 15 8 15 9 -20 -1 c-11 0 -58 -5
-105 -10z"/>
<path d="M39877 35650 c3 -85 9 -180 13 -210 l8 -55 -5 190 -6 190 -8 20 -7
20 5 -155z"/>
<path d="M41392 35468 c-6 -13 -12 -35 -15 -50 l-4 -28 8 0 9 0 0 23 0 23 15
20 c16 22 19 34 7 34 -5 0 -14 -10 -20 -22z"/>
<path d="M39893 35323 l7 -6 7 6 6 7 -13 0 -13 0 6 -7z"/>
<path d="M60735 34685 c-43 -119 -76 -218 -73 -220 2 -3 41 94 85 215 44 121
77 220 73 220 -4 0 -42 -97 -85 -215z"/>
<path d="M98809 31735 l-26 -14 -6 -23 -6 -22 6 -6 6 -5 5 14 c2 7 13 22 23
32 l19 19 28 0 27 0 -15 10 c-20 13 -30 12 -61 -5z"/>
<path d="M98330 31706 l15 -14 66 -16 65 -16 43 0 42 0 65 16 c36 9 63 19 60
21 -3 3 -36 -2 -75 -12 l-69 -17 -72 11 c-39 6 -88 18 -107 26 -44 19 -51 19
-33 1z"/>
<path d="M99972 30750 l3 -25 -85 -7 -85 -7 -46 -14 -45 -14 -54 -36 c-64 -43
-55 -50 11 -8 63 39 109 53 219 65 l95 11 3 19 4 18 -11 11 -12 12 3 -25z"/>
<path d="M95688 27057 c-91 -67 -256 -187 -366 -267 l-200 -145 5 -8 5 -8 51
38 c29 20 147 107 262 193 116 86 258 191 318 234 59 43 107 80 107 82 0 12
-31 -9 -182 -119z"/>
<path d="M95203 27006 c-105 -78 -276 -203 -380 -278 -389 -284 -584 -430
-580 -435 3 -2 93 60 201 139 107 79 280 205 383 280 255 186 556 408 567 419
5 5 8 10 5 12 -2 2 -90 -60 -196 -137z"/>
<path d="M87314 25977 l-5 -14 163 -161 163 -161 15 15 15 14 -160 160 -160
160 -13 0 -13 0 -5 -13z"/>
<path d="M90910 24781 c8 -5 56 -20 105 -34 50 -15 144 -49 210 -76 65 -28
120 -49 122 -47 2 2 -52 27 -119 56 l-123 53 -100 28 c-106 31 -119 33 -95 20z"/>
<path d="M87109 20383 c38 -43 183 -193 320 -333 l250 -254 8 8 8 8 -88 81
c-49 45 -192 190 -319 324 -126 134 -235 243 -240 243 l-10 0 71 -77z"/>
<path d="M90330 19931 c0 -13 111 -415 116 -420 2 -2 6 -2 10 1 l5 6 -57 211
-58 211 -8 0 c-4 0 -8 -4 -8 -9z"/>
<path d="M92371 16559 c-89 -67 -160 -124 -157 -126 2 -2 78 50 168 118 188
140 174 129 161 129 -5 0 -82 -55 -172 -121z"/>
<path d="M92177 16433 l-6 -10 96 -104 c53 -57 123 -132 156 -166 l59 -63 9 6
9 5 -147 157 c-80 86 -152 163 -159 170 l-12 14 -5 -9z"/>
<path d="M19046 1095 l-5 -15 12 0 c7 0 108 -7 224 -17 l213 -16 7 6 c3 4 4 9
1 12 -3 3 -88 12 -189 20 -101 8 -200 17 -220 20 l-37 5 -6 -15z"/>
</g>
</svg>
