<?xml version="1.0" standalone="no"?>
<!DOCTYPE svg PUBLIC "-//W3C//DTD SVG 20010904//EN"
 "http://www.w3.org/TR/2001/REC-SVG-20010904/DTD/svg10.dtd">
<svg version="1.0" xmlns="http://www.w3.org/2000/svg"
 width="7500.000000pt" height="7500.000000pt" viewBox="0 0 7500.000000 7500.000000"
 preserveAspectRatio="xMidYMid meet">
<metadata>
Created by potrace 1.16, written by Peter Selinger 2001-2019
</metadata>
<g transform="translate(0.000000,7500.000000) scale(0.075000,-0.075000)"
fill="#000000" stroke="none">
<path d="M88935 99970 c67 -32 75 -34 75 -21 l0 9 -49 21 c-27 11 -58 21 -68
20 l-18 -1 60 -28z"/>
<path d="M83713 98873 l7 -11 77 -11 c43 -6 167 -15 275 -21 l196 -9 141 6
141 6 0 6 0 6 -247 -3 -248 -3 -155 15 c-85 8 -164 18 -174 22 l-19 7 6 -10z"/>
<path d="M86914 96274 l-31 -34 -119 -1 -119 0 -17 -7 -17 -7 132 0 132 0 15
10 c22 15 64 64 59 69 -3 3 -18 -11 -35 -30z"/>
<path d="M87682 93697 l-43 -82 -213 -260 -214 -260 -138 -115 c-77 -64 -176
-142 -221 -175 -74 -52 -97 -75 -77 -75 15 0 189 131 321 242 l142 120 208
254 208 254 48 90 49 90 -14 0 -13 0 -43 -83z"/>
<path d="M87837 93332 c-10 -10 -17 -22 -17 -27 l0 -8 20 18 21 19 73 -73 74
-73 36 13 36 13 43 -11 c49 -14 62 -9 21 8 l-29 12 -37 0 -38 0 -13 -11 -13
-11 -74 74 c-41 41 -77 75 -81 75 -3 0 -13 -8 -22 -18z"/>
<path d="M74591 93166 c2 -3 96 -25 209 -51 113 -25 214 -48 225 -51 l20 -6
-10 10 -10 10 -207 46 c-200 44 -236 51 -227 42z"/>
<path d="M21190 93057 c9 -10 361 -129 366 -124 3 3 -73 31 -168 62 -95 32
-180 60 -188 63 l-15 5 5 -6z"/>
<path d="M21933 92803 l7 -6 7 6 6 7 -13 0 -13 0 6 -7z"/>
<path d="M86540 92653 l-175 -125 -3 -14 c-2 -8 -1 -14 2 -14 10 0 371 261
374 271 l4 9 -14 -1 c-7 0 -92 -57 -188 -126z"/>
<path d="M89520 92716 c0 -8 442 -148 447 -142 4 4 -424 146 -441 146 -3 0 -6
-2 -6 -4z"/>
<path d="M86804 92687 c47 -36 240 -157 251 -157 6 0 33 23 60 50 l49 50 -10
0 c-5 0 -28 -18 -49 -40 -21 -22 -45 -40 -51 -40 -12 0 -139 75 -221 131 -49
34 -71 38 -29 6z"/>
<path d="M22093 92593 l7 -6 7 6 6 7 -13 0 -13 0 6 -7z"/>
<path d="M22120 92586 c0 -2 36 -16 81 -31 l80 -27 6 6 6 6 -14 4 c-28 10
-151 46 -155 46 -2 0 -4 -2 -4 -4z"/>
<path d="M5538 92284 l-8 -7 58 -61 c31 -34 103 -110 160 -170 l102 -109 7 6
6 7 -66 72 c-37 40 -108 117 -159 171 l-93 99 -7 -8z"/>
<path d="M95266 91550 l-140 -170 -18 -6 -18 -5 0 -14 0 -14 28 10 27 11 139
166 c132 159 148 183 129 189 l-8 3 -139 -170z"/>
<path d="M26101 91436 c9 -8 421 -127 426 -122 5 4 -33 16 -283 90 -111 33
-154 43 -143 32z"/>
<path d="M94970 90806 l0 -19 31 -48 c16 -26 50 -66 74 -88 l43 -40 59 -29
c32 -16 173 -78 313 -137 140 -59 274 -115 297 -125 l43 -19 4 8 5 7 -152 64
c-84 35 -219 91 -302 124 -82 34 -180 78 -217 99 l-67 38 -45 50 c-24 27 -53
68 -65 91 l-21 43 0 -19z"/>
<path d="M34200 90776 l0 -14 43 -7 c23 -4 164 -47 313 -96 l272 -90 108 -48
109 -49 8 5 9 5 -9 9 c-4 4 -55 29 -113 55 l-105 47 -235 79 c-210 70 -279 91
-372 112 l-28 6 0 -14z"/>
<path d="M84761 90604 l-132 -175 3 -11 4 -10 130 173 c72 96 133 180 138 187
l7 12 -9 0 c-5 0 -69 -79 -141 -176z"/>
<path d="M95030 90644 c62 -69 61 -68 228 -140 l122 -52 0 7 c0 4 -37 22 -82
41 -46 18 -110 47 -142 63 l-60 29 -60 57 -61 56 55 -61z"/>
<path d="M95824 90271 c3 -4 27 -16 53 -26 26 -10 91 -39 144 -66 l96 -48 143
-150 c79 -83 149 -159 156 -169 15 -22 134 -106 134 -95 0 4 -20 22 -45 38
l-44 30 -171 183 -171 182 -69 35 c-64 32 -213 95 -226 95 -3 0 -3 -4 0 -9z"/>
<path d="M9810 89771 l0 -10 78 -17 77 -17 144 -53 c131 -49 171 -59 145 -35
-17 16 -277 108 -351 125 -83 19 -93 19 -93 7z"/>
<path d="M33720 89670 l0 -30 10 0 10 0 0 30 0 30 -10 0 -10 0 0 -30z"/>
<path d="M33720 89617 l0 -14 104 -63 c57 -34 140 -92 185 -128 l82 -65 9 9 9
9 -81 65 c-45 36 -118 87 -162 113 -45 27 -96 58 -113 69 l-33 20 0 -15z"/>
<path d="M84131 89113 c-5 -21 -29 -120 -52 -220 l-43 -182 7 -7 c4 -4 8 -5
10 -3 2 2 26 102 54 222 l50 218 -8 5 -8 5 -10 -38z"/>
<path d="M39520 88868 l0 -13 190 -107 c105 -60 195 -108 201 -108 l11 0 -4
12 -4 11 -190 108 c-104 60 -192 108 -196 109 -5 0 -8 -6 -8 -12z"/>
<path d="M84590 88785 l-285 -64 -115 -12 c-141 -14 -161 -24 -30 -15 l95 7
310 66 c171 36 314 69 320 74 l9 9 -9 -1 c-6 0 -138 -29 -295 -64z"/>
<path d="M84325 88773 c-38 -7 -110 -20 -160 -28 l-90 -14 75 5 75 5 115 23
115 24 -30 0 c-16 0 -61 -7 -100 -15z"/>
<path d="M76565 88660 c-110 -60 -204 -111 -210 -113 l-10 -4 7 -8 7 -7 205
112 206 112 0 9 c0 5 -1 9 -2 9 -2 0 -93 -50 -203 -110z"/>
<path d="M83975 88688 c-28 -120 -85 -384 -85 -394 0 -8 3 -14 8 -14 l7 0 44
203 c24 111 46 208 49 215 l4 12 -11 0 -11 0 -5 -22z"/>
<path d="M35446 88072 l-5 -8 163 -163 164 -164 12 8 12 8 -163 163 c-90 90
-167 164 -171 164 -4 0 -9 -4 -12 -8z"/>
<path d="M90306 87971 l-200 -67 -4 -12 -4 -12 8 0 c5 0 100 30 211 67 l203
68 0 12 c0 7 -3 13 -7 12 -5 0 -98 -31 -207 -68z"/>
<path d="M35746 87711 l-8 -12 36 -42 c19 -23 57 -66 84 -96 l49 -54 12 7 12
8 -53 60 c-29 33 -69 78 -89 101 l-36 41 -7 -13z"/>
<path d="M84433 87263 c-39 -76 -99 -203 -133 -283 -35 -80 -66 -149 -70 -153
l-7 -8 -257 71 c-241 66 -286 76 -275 66 3 -3 122 -37 264 -76 143 -39 265
-72 271 -74 l11 -4 73 166 c73 168 184 396 202 420 l10 12 -9 0 -10 0 -70
-137z"/>
<path d="M83721 87248 c-17 -73 -39 -170 -50 -216 l-19 -83 11 4 11 3 47 205
c54 232 52 219 40 219 l-9 0 -31 -132z"/>
<path d="M83681 86916 c2 -2 65 -21 139 -41 74 -20 156 -43 183 -50 l47 -14 0
7 0 7 -177 48 c-167 45 -202 53 -192 43z"/>
<path d="M18362 86479 l4 -12 213 -74 c194 -66 243 -79 215 -54 -8 8 -416 151
-429 151 -4 0 -5 -5 -3 -11z"/>
<path d="M56287 85820 c-176 -26 -207 -33 -196 -44 3 -3 94 8 204 24 110 16
206 30 213 30 l12 0 0 10 0 10 -22 -1 c-13 -1 -108 -14 -211 -29z"/>
<path d="M80395 85759 c-2 -8 -34 -95 -69 -194 -35 -99 -68 -189 -72 -200 l-7
-20 10 10 c14 13 155 406 149 413 -3 3 -8 -1 -11 -9z"/>
<path d="M80861 85630 c9 -5 186 -67 395 -139 208 -71 388 -133 399 -137 l20
-7 -10 11 c-9 9 -797 282 -813 282 -4 0 0 -5 9 -10z"/>
<path d="M56250 85570 l0 -10 195 0 195 0 0 10 0 10 -195 0 -195 0 0 -10z"/>
<path d="M61310 85242 l0 -10 58 -6 c31 -4 136 -8 234 -9 l176 -2 8 8 c4 4 5
9 3 11 -2 2 -111 6 -241 10 l-238 7 0 -9z"/>
<path d="M69030 85053 c0 -5 104 -73 231 -153 l230 -145 33 -70 c18 -38 52
-116 76 -172 l43 -102 8 5 8 5 -8 22 c-15 36 -111 258 -127 293 l-16 33 -232
145 c-127 80 -235 146 -239 146 -4 0 -7 -3 -7 -7z"/>
<path d="M29426 84916 l-200 -111 -4 -14 -5 -14 94 51 c52 28 145 79 208 114
l115 63 4 13 4 12 -9 -1 c-4 -1 -98 -51 -207 -113z"/>
<path d="M8347 84608 c106 -139 173 -210 280 -297 l51 -42 6 10 6 9 -63 51
c-70 55 -173 161 -227 234 l-35 46 -14 1 -13 0 9 -12z"/>
<path d="M88150 84395 c-24 -91 -41 -167 -38 -170 3 -3 15 32 26 77 12 46 32
122 46 171 l24 87 -7 0 c-4 0 -27 -74 -51 -165z"/>
<path d="M86670 84543 l0 -8 228 -61 227 -61 9 5 9 5 -14 7 c-15 9 -433 120
-449 120 -5 0 -10 -3 -10 -7z"/>
<path d="M64372 84523 c2 -9 9 -18 16 -21 l12 -4 0 15 0 15 -16 6 -15 6 3 -17z"/>
<path d="M86617 84350 l-27 -185 -21 -248 c-11 -137 -18 -251 -16 -254 7 -6
15 64 32 292 l15 200 26 168 c14 92 24 178 22 190 l-3 22 -28 -185z"/>
<path d="M64336 84481 l-6 -9 16 -6 c20 -8 29 -1 19 13 -8 13 -22 14 -29 2z"/>
<path d="M82549 84403 c-1 -4 0 -20 1 -34 l1 -27 -35 -68 -35 -69 -43 -46
c-24 -25 -49 -48 -57 -50 l-15 -5 8 -12 7 -11 28 17 c16 10 46 38 66 62 l38
45 34 71 34 71 -7 27 c-3 14 -10 29 -15 32 l-9 5 -1 -8z"/>
<path d="M10430 84234 c-102 -58 -191 -109 -199 -113 l-14 -8 10 -6 9 -6 194
110 c107 60 197 114 198 119 l4 10 -9 -1 c-4 0 -91 -47 -193 -105z"/>
<path d="M74378 84182 c-14 -9 -49 -39 -77 -65 l-52 -49 -34 -51 -33 -52 -7
-32 -7 -33 10 0 10 0 7 28 c15 59 107 173 188 233 l38 27 -9 6 -8 5 -26 -17z"/>
<path d="M24327 83953 l-5 -9 206 -89 c113 -50 214 -93 224 -97 l18 -7 0 12 0
12 -203 87 c-111 48 -209 90 -218 93 l-17 6 -5 -8z"/>
<path d="M84308 83759 c-100 -78 -243 -191 -316 -251 -135 -110 -246 -188
-299 -209 -15 -6 -56 -15 -89 -19 l-62 -8 -48 9 c-66 13 -125 43 -194 100
l-59 49 -5 -9 -6 -10 77 -60 78 -61 55 -17 55 -18 75 2 75 2 41 14 c66 24 168
95 344 238 91 74 226 182 300 239 74 57 148 114 163 127 l29 23 -15 0 -15 0
-184 -141z"/>
<path d="M81800 83871 c0 -6 140 -58 368 -138 l17 -6 -10 10 c-13 14 -375 142
-375 134z"/>
<path d="M77274 83692 c-17 -11 -114 -160 -114 -174 l0 -13 56 85 c31 47 59
87 61 89 3 4 92 -22 193 -57 l15 -5 -10 10 c-8 8 -178 74 -188 73 -1 0 -7 -4
-13 -8z"/>
<path d="M82880 83635 l0 -14 15 5 c8 4 15 10 15 15 l0 9 -15 0 -15 0 0 -15z"/>
<path d="M415 83620 l-7 -12 93 -95 94 -95 100 -67 c118 -79 266 -161 385
-213 l85 -36 8 5 9 5 -9 9 c-4 4 -41 22 -81 39 -95 40 -303 156 -389 216 l-68
47 -106 105 -106 104 -8 -12z"/>
<path d="M83270 83461 c0 -6 28 -33 63 -61 l62 -50 53 -20 53 -20 63 0 63 0
32 11 31 11 0 13 0 13 -42 -15 -43 -15 -70 6 -70 7 -40 20 c-22 12 -60 38 -85
58 -25 21 -51 41 -57 45 l-13 7 0 -10z"/>
<path d="M82110 83401 c0 -11 3 -26 6 -35 l6 -15 34 -11 35 -12 30 13 31 12 9
25 10 25 -10 10 -10 10 -10 -26 -10 -25 -21 -7 -21 -7 -24 6 -23 6 -6 25 -6
25 -10 0 -10 0 0 -19z"/>
<path d="M73987 82878 l-167 -71 -26 -23 -25 -24 6 -9 5 -9 28 27 27 27 168
69 c92 38 167 73 167 77 0 13 -8 10 -183 -64z"/>
<path d="M76555 82564 c-61 -98 -116 -188 -123 -201 l-13 -23 8 0 c4 0 61 86
126 191 l118 191 -3 10 -4 10 -109 -178z"/>
<path d="M86525 82069 c-4 -121 -5 -222 -2 -225 3 -3 8 70 11 163 3 92 8 194
10 226 l4 57 -8 0 -7 0 -8 -221z"/>
<path d="M93180 81682 l0 -11 185 -135 c171 -127 205 -148 205 -128 0 7 -362
274 -380 280 l-10 4 0 -10z"/>
<path d="M95478 80388 c-134 -183 -176 -243 -172 -247 5 -6 -3 -16 107 136
112 155 131 183 123 183 -3 0 -29 -32 -58 -72z"/>
<path d="M42591 79012 c-79 -191 -129 -322 -125 -322 6 0 120 263 181 418 l5
12 -8 0 -9 0 -44 -108z"/>
<path d="M31931 78841 l-205 -68 -4 -11 -4 -12 9 0 c4 0 104 32 221 71 l212
71 -6 9 c-7 12 9 16 -223 -60z"/>
<path d="M98470 78659 c-63 -94 -135 -228 -127 -235 2 -3 21 28 42 68 21 40
64 113 97 161 33 49 58 91 55 93 -3 3 -33 -36 -67 -87z"/>
<path d="M77760 78725 c0 -3 33 -49 73 -103 40 -54 99 -139 131 -190 32 -51
63 -92 68 -92 l8 0 -71 108 c-76 113 -198 282 -205 282 -2 0 -4 -2 -4 -5z"/>
<path d="M42491 78648 c-5 -13 -46 -110 -90 -217 -45 -107 -79 -197 -76 -199
2 -3 9 6 14 20 5 14 42 103 81 199 89 216 91 219 85 219 -3 0 -9 -10 -14 -22z"/>
<path d="M13156 78269 c-5 -12 -84 -300 -114 -411 l-10 -38 7 0 8 0 62 226
c34 125 60 229 57 232 -3 2 -8 -1 -10 -9z"/>
<path d="M74834 76956 l-90 -84 -12 -40 -12 -39 0 -52 0 -51 15 0 15 0 0 50 0
51 14 32 13 32 87 83 87 83 -6 9 c-11 17 -20 11 -111 -74z"/>
<path d="M41831 76937 l-12 -57 -14 0 c-8 0 -30 10 -50 21 l-36 22 -10 -10 -9
-9 48 -23 49 -23 19 4 19 3 14 43 13 44 -9 20 -9 21 -13 -56z"/>
<path d="M74608 76773 l-18 -4 0 -15 0 -14 43 6 c49 8 51 9 42 23 l-6 11 -22
-1 c-12 -1 -30 -3 -39 -6z"/>
<path d="M74550 76630 c0 -5 5 -10 10 -10 6 0 10 5 10 10 0 6 -4 10 -10 10 -5
0 -10 -4 -10 -10z"/>
<path d="M74571 76503 c10 -32 22 -64 24 -72 l5 -14 6 6 6 6 -22 65 -22 66 -8
0 -9 0 20 -57z"/>
<path d="M23545 75924 l-220 -104 -4 -17 -3 -17 23 16 c13 8 112 57 219 107
187 88 219 106 209 115 -2 2 -103 -43 -224 -100z"/>
<path d="M21717 75764 l-7 -7 73 -47 73 -47 70 -69 c39 -38 81 -84 95 -103
l25 -34 13 4 12 4 -49 65 -49 65 -54 46 c-51 44 -153 114 -182 125 l-13 5 -7
-7z"/>
<path d="M29496 75222 l-5 -8 92 -17 c51 -10 197 -47 325 -84 l232 -66 7 7 c3
3 4 8 2 9 -11 10 -447 130 -533 147 -112 23 -113 23 -120 12z"/>
<path d="M60826 75111 l10 -11 150 -10 c82 -5 168 -10 192 -10 l42 0 0 9 0 9
-127 6 c-71 4 -162 9 -203 12 l-75 6 11 -11z"/>
<path d="M45075 75059 c-4 -6 -5 -13 -2 -16 7 -7 27 6 27 18 0 12 -17 12 -25
-2z"/>
<path d="M73001 74410 l-94 -211 7 -6 6 -7 10 10 c9 9 178 384 183 406 1 6 -3
12 -8 14 l-11 4 -93 -210z"/>
<path d="M16440 73999 l-175 -78 -3 -10 -4 -11 14 0 c16 0 328 137 342 150 4
5 7 12 5 18 l-4 9 -175 -78z"/>
<path d="M37062 72799 l-13 -20 -102 -48 c-56 -26 -142 -63 -190 -81 l-88 -33
9 -9 9 -9 116 45 c64 26 148 62 187 81 l72 34 14 18 c15 20 18 43 6 43 -4 0
-13 -9 -20 -21z"/>
<path d="M78340 72482 l0 -10 68 -6 c37 -3 140 -11 230 -17 l163 -11 6 6 c4 3
4 8 2 10 -2 2 -80 9 -174 15 -93 6 -198 14 -232 17 l-63 6 0 -10z"/>
<path d="M77870 72452 l0 -8 228 -16 c125 -8 229 -13 231 -11 2 1 1 6 -3 10
l-6 7 -173 12 c-94 7 -196 13 -224 13 l-53 1 0 -8z"/>
<path d="M81028 72444 c-5 -4 -8 -25 -8 -46 l0 -38 -21 -21 -21 -21 -134 7
-134 7 0 -10 0 -10 135 -7 135 -7 25 16 25 16 6 24 c3 12 4 40 2 60 l-3 38 -7
-8z"/>
<path d="M30420 70890 l0 -10 41 -20 c22 -12 62 -37 88 -55 26 -19 93 -55 149
-81 l103 -47 9 9 10 10 -98 44 -97 45 -60 41 c-94 65 -145 88 -145 64z"/>
<path d="M74399 70680 l-5 -75 64 -365 64 -365 10 -10 10 -10 -5 20 c-3 11
-32 160 -63 330 l-57 310 -6 120 -7 120 -5 -75z"/>
<path d="M74439 70680 l-5 -75 18 -115 c21 -135 27 -164 33 -158 3 2 -2 42
-11 89 l-16 84 -7 125 -7 125 -5 -75z"/>
<path d="M76625 69915 l-30 -24 16 -1 16 0 18 20 c27 30 14 33 -20 5z"/>
<path d="M76535 69890 c3 -5 8 -10 11 -10 3 0 2 5 -1 10 -3 6 -8 10 -11 10 -3
0 -2 -4 1 -10z"/>
<path d="M27822 69200 c-1 -96 -5 -193 -8 -215 l-5 -40 11 17 10 17 -3 198 -2
198 -3 -175z"/>
<path d="M70835 68399 l-230 -58 -20 5 -20 6 12 -12 12 -13 233 58 c128 32
237 62 243 66 5 5 7 9 5 8 -3 0 -108 -27 -235 -60z"/>
<path d="M67510 68003 c0 -12 38 -48 45 -41 3 2 -6 15 -20 28 l-25 23 0 -10z"/>
<path d="M67480 67971 c0 -5 12 -17 28 -26 l27 -18 -24 27 c-26 28 -31 31 -31
17z"/>
<path d="M28075 67931 c17 -5 54 -9 83 -10 l52 -1 138 -30 c75 -17 146 -33
157 -36 l20 -6 -10 10 -10 10 -145 31 -145 30 -85 5 -85 5 30 -8z"/>
<path d="M67593 67913 l7 -6 7 6 6 7 -13 0 -13 0 6 -7z"/>
<path d="M67640 67875 c0 -6 77 -87 171 -180 l171 -170 14 -33 c8 -18 30 -105
50 -194 33 -153 44 -191 44 -156 0 27 -71 330 -84 362 l-14 31 -176 175 c-97
96 -176 170 -176 165z"/>
<path d="M67782 67673 l176 -178 6 -25 c4 -14 22 -97 42 -185 32 -144 44 -188
44 -158 0 5 -18 93 -40 193 l-39 184 -173 173 c-95 95 -177 173 -183 173 -5 0
70 -80 167 -177z"/>
<path d="M28511 67815 c6 -5 232 -55 250 -55 31 0 -6 11 -115 34 -118 26 -143
30 -135 21z"/>
<path d="M28830 67740 c8 -5 19 -10 23 -10 l8 0 -6 10 c-3 6 -14 10 -23 10
l-17 0 15 -10z"/>
<path d="M28920 67710 c8 -5 24 -9 35 -9 l20 0 -20 9 c-11 5 -27 9 -35 9 l-15
1 15 -10z"/>
<path d="M66995 67379 l-160 -150 -175 -143 c-293 -238 -996 -784 -1129 -876
-211 -146 -329 -209 -516 -273 -150 -52 -229 -71 -375 -92 l-104 -16 -176 -9
c-96 -5 -398 -14 -670 -20 -272 -5 -603 -15 -735 -21 l-240 -10 -90 -15 c-116
-19 -371 -87 -455 -121 -121 -49 -1634 -780 -1980 -956 l-195 -100 -125 -86
-125 -85 -190 -162 c-104 -88 -250 -205 -324 -259 l-134 -98 -18 24 -18 24 -5
-6 -6 -5 20 -21 19 -21 -122 -89 -123 -89 -474 -279 -475 -279 -293 -193
c-161 -106 -324 -218 -362 -249 l-69 -55 6 -15 c3 -8 7 -14 10 -14 3 0 34 23
70 52 36 28 132 95 215 150 l149 98 11 -6 11 -7 -6 10 -6 10 162 105 c89 58
367 226 617 373 l455 267 123 90 124 91 9 -14 c5 -8 9 -17 9 -20 0 -3 12 -11
26 -18 l27 -12 -6 -36 -6 -37 16 17 17 17 -10 27 -9 28 -21 9 c-12 5 -26 18
-32 27 l-11 18 127 92 c70 51 212 165 315 253 l189 161 141 96 142 96 190 100
c105 56 336 171 515 256 179 85 546 262 815 392 270 130 533 255 585 276 l95
40 146 40 c80 21 183 46 228 54 l82 14 202 10 c111 6 427 15 702 21 275 6 597
15 715 20 l215 11 127 19 c341 52 594 155 901 368 114 79 881 675 1127 876 74
60 209 179 300 264 91 86 173 163 183 172 l18 17 -13 11 -14 11 -159 -150z"/>
<path d="M76678 67077 c-93 -50 -168 -95 -168 -99 0 -3 62 28 138 69 75 42
162 87 192 99 l55 24 -25 -1 -25 0 -167 -92z"/>
<path d="M66455 66833 c-99 -79 -256 -203 -350 -275 -93 -72 -172 -133 -174
-135 -3 -2 0 -7 5 -13 l9 -9 175 134 c237 182 509 397 522 413 l11 13 -9 8 -9
8 -180 -144z"/>
<path d="M38452 66914 l-214 -12 -6 -8 -7 -7 100 6 c55 4 157 10 228 13 l127
7 0 8 c0 5 -3 8 -7 8 -5 -1 -104 -8 -221 -15z"/>
<path d="M55409 66904 l-14 -17 -15 -138 -16 -139 7 0 c10 0 16 34 30 165 l11
110 16 18 15 17 -10 0 c-6 0 -17 -7 -24 -16z"/>
<path d="M37805 66840 c-473 -26 -876 -50 -895 -52 l-35 -5 40 -1 c22 -1 411
18 865 43 454 25 844 45 868 45 l42 0 0 10 0 10 -12 -1 c-7 -1 -400 -23 -873
-49z"/>
<path d="M37528 66866 l-186 -11 -9 -9 -8 -9 60 6 c33 4 130 9 215 13 l155 7
15 8 15 8 -35 -1 c-19 -1 -119 -6 -222 -12z"/>
<path d="M43405 66673 c11 -3 26 -10 33 -15 l12 -10 0 10 c0 12 -25 22 -48 21
l-17 -1 20 -5z"/>
<path d="M94420 66569 c0 -25 79 -452 85 -457 9 -9 6 11 -35 239 -37 200 -50
260 -50 218z"/>
<path d="M45260 66421 l0 -9 73 -30 c39 -17 141 -60 225 -96 l152 -64 0 8 0 8
-142 60 c-79 33 -180 76 -225 96 l-83 35 0 -8z"/>
<path d="M44265 66331 c13 -12 377 -123 383 -116 6 6 15 3 -193 65 -93 28
-177 53 -185 56 l-15 5 10 -10z"/>
<path d="M44245 66293 l10 -11 193 -55 192 -54 0 6 c0 4 -84 31 -187 60 -103
30 -194 56 -203 59 l-15 5 10 -10z"/>
<path d="M97265 66189 c-104 -27 -293 -69 -420 -94 -126 -25 -254 -50 -282
-56 l-53 -10 0 -16 0 -15 23 5 c12 3 119 24 237 47 118 22 326 68 463 101
l247 61 0 14 0 14 -12 -1 c-7 0 -98 -23 -203 -50z"/>
<path d="M48696 66221 c19 -17 416 -293 430 -298 29 -11 12 6 -48 47 -35 24
-133 92 -219 151 -87 60 -161 109 -165 109 l-8 0 10 -9z"/>
<path d="M97257 66135 c-115 -29 -211 -56 -214 -59 l-6 -6 7 -7 7 -7 219 54
220 54 0 13 0 13 -12 -1 c-7 0 -107 -25 -221 -54z"/>
<path d="M65435 66064 c-211 -124 -389 -200 -590 -253 l-110 -29 -95 -11 c-52
-6 -234 -18 -405 -27 -170 -8 -332 -19 -360 -24 l-50 -9 -345 -1 c-190 0 -442
-5 -560 -10 l-215 -9 -146 -25 -147 -25 -128 -42 -129 -41 -280 -135 c-154
-75 -388 -187 -520 -250 -132 -63 -420 -202 -640 -309 -220 -107 -404 -194
-408 -194 l-8 0 7 12 7 12 -109 -58 -109 -58 -30 -28 c-16 -15 -82 -63 -145
-107 -145 -98 -164 -113 -179 -142 l-13 -23 199 134 198 134 460 224 c1461
710 1546 750 1680 793 144 46 198 59 350 82 l150 23 206 7 c113 3 342 7 510 7
l304 0 91 14 91 14 309 15 c491 24 540 34 956 195 27 11 72 34 100 53 29 19
97 60 151 91 l97 57 0 10 c0 16 -14 10 -145 -67z"/>
<path d="M41876 65971 c20 -20 358 -241 367 -241 6 0 8 2 6 4 -15 14 -369 246
-375 246 l-8 0 10 -9z"/>
<path d="M76930 65925 l0 -55 10 0 10 0 0 55 0 55 -10 0 -10 0 0 -55z"/>
<path d="M49150 65936 c0 -3 77 -59 171 -126 l171 -121 10 3 11 4 -172 122
c-154 109 -191 132 -191 118z"/>
<path d="M96019 65886 c-2 -2 -98 -21 -214 -42 -115 -20 -214 -41 -219 -45
l-10 -9 6 -5 5 -6 199 36 c110 20 223 40 252 46 l52 10 0 10 0 9 -33 0 c-19 0
-36 -2 -38 -4z"/>
<path d="M44775 65633 c-60 -92 -123 -192 -142 -220 -18 -29 -30 -53 -26 -53
10 0 286 431 280 436 -3 3 -53 -71 -112 -163z"/>
<path d="M83701 65663 c3 -27 12 -64 19 -83 l13 -35 48 -60 c26 -33 57 -82 70
-108 13 -26 27 -47 31 -47 l8 0 -26 53 c-15 28 -47 78 -72 110 l-45 59 -18 49
-19 49 0 30 0 30 -8 0 -8 0 7 -47z"/>
<path d="M94818 65661 l-248 -45 0 -14 0 -13 18 5 c9 3 121 24 247 46 127 23
232 43 234 45 1 2 1 8 0 12 l-4 9 -247 -45z"/>
<path d="M46963 65528 c-57 -83 -101 -154 -98 -156 6 -7 -3 -19 114 156 56 83
98 152 94 152 -5 0 -54 -68 -110 -152z"/>
<path d="M47007 65518 c-112 -172 -110 -168 -103 -168 6 0 174 249 195 288 6
12 9 22 6 22 -3 0 -47 -64 -98 -142z"/>
<path d="M94285 65618 c-115 -22 -212 -41 -214 -43 -1 -2 -1 -8 0 -13 l4 -9
145 27 c80 15 189 35 242 45 l98 17 -6 9 -5 9 -27 -1 c-15 -1 -121 -19 -237
-41z"/>
<path d="M35225 65535 c89 -34 728 -350 793 -393 l22 -14 0 9 0 9 -272 141
c-150 77 -327 166 -393 197 l-120 56 -35 5 -35 5 40 -15z"/>
<path d="M60096 65408 c-73 -194 -284 -783 -282 -785 2 -2 13 4 24 14 l21 18
141 388 c77 213 140 392 140 397 l0 10 -14 0 -14 0 -16 -42z"/>
<path d="M45775 65403 c14 -15 437 -195 443 -188 3 2 -12 12 -34 21 -21 9
-118 50 -214 91 -96 41 -182 77 -190 80 l-15 6 10 -10z"/>
<path d="M29001 65176 l-12 -14 -37 -8 c-32 -6 -59 -6 -97 -1 l-10 2 0 -15 0
-14 35 -8 35 -8 48 12 47 12 15 17 16 16 -14 12 -14 11 -12 -14z"/>
<path d="M38461 64927 c-18 -144 -34 -270 -37 -279 l-5 -18 8 0 9 0 33 275
c19 151 32 277 29 280 -2 3 -19 -113 -37 -258z"/>
<path d="M33310 64844 l-13 -185 -23 -18 c-34 -27 -30 -35 6 -14 l30 17 1 36
c0 19 6 104 12 188 l12 154 -6 4 -6 3 -13 -185z"/>
<path d="M40570 64869 c0 -3 45 -136 101 -295 55 -159 107 -316 114 -349 l15
-60 -5 50 -5 50 -102 295 c-86 252 -118 335 -118 309z"/>
<path d="M600 64699 c-41 -5 -133 -13 -205 -18 l-130 -9 160 4 c88 2 181 7
208 10 l47 7 6 8 5 9 -8 -1 c-4 -1 -42 -6 -83 -10z"/>
<path d="M60310 64613 c0 -17 90 -397 96 -402 10 -10 2 32 -41 213 -41 172
-55 219 -55 189z"/>
<path d="M37060 64572 l0 -21 38 -11 c20 -6 105 -19 187 -30 l150 -19 254 -16
c139 -8 264 -15 277 -15 l24 0 0 20 0 20 -32 0 c-83 0 -525 32 -633 46 -131
16 -228 32 -251 41 l-14 5 0 -20z"/>
<path d="M59792 64530 l-22 -18 -15 -43 c-17 -48 -16 -54 8 -36 l17 12 20 53
c11 28 19 52 17 52 -1 -1 -12 -9 -25 -20z"/>
<path d="M40686 64408 c19 -57 44 -134 54 -173 l18 -70 1 28 1 28 -47 144
c-26 80 -50 145 -54 145 l-8 0 35 -102z"/>
<path d="M34946 64349 c-24 -106 -76 -456 -76 -508 0 -41 10 8 25 115 8 67 27
185 40 264 14 79 23 145 21 148 -3 2 -7 -6 -10 -19z"/>
<path d="M50226 64351 c11 -10 375 -161 389 -161 l9 0 -9 9 c-11 10 -377 161
-390 161 l-9 0 10 -9z"/>
<path d="M50435 64221 c132 -54 420 -176 640 -271 220 -95 407 -175 415 -178
l15 -5 -10 10 c-24 25 -1256 544 -1288 543 -6 -1 96 -45 228 -99z"/>
<path d="M59701 64307 c-6 -8 -35 -77 -64 -153 -29 -76 -71 -175 -95 -219
l-42 -81 -73 -84 -73 -85 -96 -61 -96 -61 -94 -26 -93 -26 -130 -11 c-167 -13
-235 -26 -315 -57 l-65 -26 -295 -175 c-382 -227 -522 -313 -517 -318 2 -3 35
9 73 25 l69 29 315 187 c173 103 344 202 380 220 l67 34 59 14 59 15 145 12
145 11 110 31 110 31 80 50 c102 65 104 66 193 167 l74 85 36 70 c28 56 162
396 162 411 0 9 -18 3 -29 -9z"/>
<path d="M70820 64256 c0 -5 37 -91 82 -192 l81 -184 8 0 8 0 -18 43 c-78 179
-144 324 -152 332 l-9 9 0 -8z"/>
<path d="M59542 64145 l-101 -104 -102 -138 c-56 -76 -115 -152 -131 -170
l-30 -31 7 -12 7 -11 20 18 c12 10 72 86 133 169 l113 151 90 88 91 88 10 29
10 28 -8 0 c-5 0 -54 -47 -109 -105z"/>
<path d="M79418 64091 c-187 -24 -230 -33 -217 -45 3 -2 421 48 437 53 6 2 1
21 -5 20 -5 -1 -101 -13 -215 -28z"/>
<path d="M40072 64085 l-12 -25 9 0 c4 0 13 11 19 25 l12 25 -9 0 c-4 0 -13
-11 -19 -25z"/>
<path d="M77063 64093 c-7 -2 -13 -11 -13 -18 l0 -13 30 11 c17 6 30 15 30 19
l0 8 -17 -1 c-10 0 -24 -3 -30 -6z"/>
<path d="M78540 64039 c-74 -10 -346 -39 -605 -64 -258 -25 -484 -47 -500 -50
l-31 -5 -49 32 c-27 18 -54 37 -61 43 l-13 9 -7 -7 -8 -7 35 -30 c19 -16 50
-36 70 -45 l36 -17 464 46 c255 26 555 59 667 73 l202 27 0 8 0 8 -32 -1 c-18
-1 -94 -10 -168 -20z"/>
<path d="M14420 64013 c0 -5 7 -17 15 -27 8 -11 15 -25 15 -32 l0 -13 -170
-87 c-94 -48 -168 -89 -166 -91 6 -6 343 164 351 177 l6 10 -21 35 c-21 34
-30 43 -30 28z"/>
<path d="M78523 63981 c-190 -24 -236 -33 -222 -45 3 -2 433 49 447 53 6 2 1
21 -5 20 -5 -1 -103 -13 -220 -28z"/>
<path d="M46405 63941 c6 -5 93 -39 195 -75 102 -35 194 -68 205 -72 l20 -7
-10 10 c-5 6 -23 15 -40 21 -16 5 -109 38 -205 72 -96 33 -170 57 -165 51z"/>
<path d="M89611 63843 c8 -9 49 -58 93 -107 43 -50 97 -119 120 -153 l43 -63
6 6 7 7 -46 65 c-56 80 -214 262 -227 262 l-9 0 13 -17z"/>
<path d="M59114 63665 c-28 -13 -127 -45 -220 -71 l-169 -47 -65 -33 -65 -33
35 6 c19 3 51 14 70 23 19 10 107 38 195 63 88 25 187 57 220 70 l59 25 4 11
4 11 -9 -1 c-4 0 -31 -11 -59 -24z"/>
<path d="M76996 63682 l-6 -11 11 -6 10 -7 6 6 7 6 -11 11 -11 11 -6 -10z"/>
<path d="M41270 63574 c0 -9 233 -273 254 -286 26 -17 24 -6 -3 20 -16 15 -75
79 -131 142 -57 63 -107 119 -111 125 l-9 9 0 -10z"/>
<path d="M50515 63430 c3 -5 14 -10 23 -10 l17 0 -15 10 c-8 5 -19 10 -23 10
l-8 0 6 -10z"/>
<path d="M69475 63375 l-209 -62 -4 -11 -3 -11 68 20 c37 10 135 38 217 62
l149 42 5 13 4 12 -9 -1 c-4 -1 -102 -29 -218 -64z"/>
<path d="M16247 63320 c-47 -39 -114 -86 -148 -106 l-63 -35 -95 -27 -96 -27
24 -3 24 -4 81 23 81 23 60 36 c33 20 99 68 147 107 l88 72 -9 5 -9 6 -85 -70z"/>
<path d="M49422 63202 c-57 -95 -102 -176 -99 -178 6 -6 209 335 205 345 -2 4
-49 -71 -106 -167z"/>
<path d="M7033 63363 l7 -6 7 6 6 7 -13 0 -13 0 6 -7z"/>
<path d="M6401 63334 c-145 -7 -266 -16 -269 -19 -3 -3 -2 -8 1 -12 l7 -6 300
13 300 13 99 -7 99 -7 27 7 27 7 -11 7 -12 7 -82 1 c-45 1 -113 4 -152 6 l-70
4 -264 -14z"/>
<path d="M16357 63315 l-17 -36 0 -39 0 -38 26 -31 26 -31 9 6 10 5 -26 31
-25 30 0 28 c0 15 7 44 15 63 17 42 18 47 7 47 -5 0 -16 -16 -25 -35z"/>
<path d="M6995 63298 l-18 -11 -156 5 -156 4 -35 -5 -35 -6 11 -7 11 -7 189
-3 189 -3 23 16 23 17 -14 5 -13 5 -19 -10z"/>
<path d="M60494 63142 c-40 -59 -78 -120 -87 -137 l-15 -30 -9 -82 -9 -83 7 0
6 0 7 73 8 72 17 40 c10 22 45 79 78 126 52 75 82 129 71 129 -2 0 -35 -49
-74 -108z"/>
<path d="M45510 63048 c-119 -201 -117 -197 -98 -178 22 21 210 341 205 347
-3 2 -51 -74 -107 -169z"/>
<path d="M32983 63183 l8 -8 210 -25 209 -26 0 7 0 6 -192 22 c-106 12 -204
24 -218 27 l-25 6 8 -9z"/>
<path d="M40931 63166 l-12 -14 151 -172 152 -171 14 12 14 11 -13 17 c-16 23
-288 331 -292 331 -1 0 -8 -6 -14 -14z"/>
<path d="M13735 63080 l-30 -8 160 1 160 2 35 -8 35 -7 -30 14 -30 15 -135 -1
-135 0 -30 -8z"/>
<path d="M13385 63069 l-69 -9 -11 -11 -10 -12 30 7 c17 4 76 10 133 15 57 5
106 11 109 15 l6 6 -59 -1 c-32 -1 -90 -6 -129 -10z"/>
<path d="M15030 62995 c0 -16 5 -37 10 -45 l10 -15 0 30 c0 17 -5 37 -10 45
l-10 15 0 -30z"/>
<path d="M15070 62993 l0 -32 10 -6 10 -6 0 23 c0 13 -5 30 -10 38 l-10 15 0
-32z"/>
<path d="M18145 63010 l-6 -10 10 0 c6 0 11 5 11 10 0 6 -2 10 -4 10 -3 0 -8
-4 -11 -10z"/>
<path d="M3547 62974 l-6 -7 46 -59 45 -60 10 10 10 10 -42 56 c-42 55 -51 62
-63 50z"/>
<path d="M58665 62928 c-54 -30 -258 -167 -405 -272 l-55 -39 19 7 c10 3 103
64 205 135 103 71 216 143 251 161 l64 32 106 -6 c58 -4 125 -9 150 -12 l45
-5 -15 10 -16 10 -144 6 -145 6 -60 -33z"/>
<path d="M57553 62851 c-44 -26 -115 -72 -159 -101 l-78 -54 11 -3 11 -4 149
96 c81 54 152 101 158 106 l9 9 -10 0 c-6 0 -47 -22 -91 -49z"/>
<path d="M59045 62892 l10 -9 160 -12 c88 -7 185 -15 215 -18 l55 -6 -7 8 -6
7 -164 13 c-90 8 -188 17 -218 20 l-55 6 10 -9z"/>
<path d="M59945 62821 l10 -9 214 -16 c118 -9 216 -14 218 -12 7 7 -65 15
-237 26 -85 6 -168 13 -185 15 l-29 5 9 -9z"/>
<path d="M40293 62813 c7 -11 383 -324 405 -337 6 -4 12 -5 12 -2 0 5 -385
326 -409 341 l-14 8 6 -10z"/>
<path d="M58005 62409 c-115 -94 -212 -176 -214 -182 l-4 -11 49 39 c27 22
127 102 222 179 94 76 172 140 172 142 0 13 -35 -13 -225 -167z"/>
<path d="M27430 62460 c-96 -49 -171 -89 -167 -89 5 -1 85 36 178 81 l169 81
0 9 c0 11 19 19 -180 -82z"/>
<path d="M38411 62432 c0 -6 -21 -142 -46 -301 -45 -291 -49 -318 -40 -310 2
3 25 135 50 295 l46 289 -4 20 -4 20 -2 -13z"/>
<path d="M88992 62380 l4 -15 174 -147 173 -147 9 5 10 6 -9 7 c-41 36 -332
280 -347 291 l-19 15 5 -15z"/>
<path d="M44360 62335 c0 -6 290 -345 341 -400 l19 -19 0 11 c0 12 -336 405
-351 411 -5 2 -9 1 -9 -3z"/>
<path d="M64245 62240 l-520 -7 -52 -12 -53 -13 0 -10 0 -10 28 6 c15 3 79 10
142 16 l115 9 1018 7 1017 7 0 9 0 8 -587 -2 c-324 -1 -822 -5 -1108 -8z"/>
<path d="M66410 62202 l0 -12 218 0 c119 0 330 -3 467 -6 l250 -7 -10 12 -11
11 -457 7 -457 6 0 -11z"/>
<path d="M65480 62190 l0 -10 230 0 230 0 0 10 0 10 -230 0 -230 0 0 -10z"/>
<path d="M64248 62183 l-158 -4 0 -9 0 -10 118 0 c64 0 168 3 230 7 l112 6 0
9 0 8 -72 -2 c-40 -1 -144 -4 -230 -5z"/>
<path d="M98755 62154 c-19 -46 -19 -53 1 -122 l17 -57 65 -120 66 -119 3 11
4 11 -55 101 -55 101 -21 61 c-24 75 -24 86 -5 133 l15 36 -10 0 -10 0 -15
-36z"/>
<path d="M24050 62065 c0 -14 436 -132 448 -121 7 8 -6 11 -153 45 -71 17
-163 41 -204 55 -75 26 -91 30 -91 21z"/>
<path d="M49041 62066 c2 -2 42 -32 89 -67 47 -34 129 -98 183 -142 54 -44
100 -78 102 -75 9 9 -348 288 -368 288 -6 0 -8 -2 -6 -4z"/>
<path d="M62848 62001 l-318 -65 0 -9 0 -9 48 6 47 7 -11 -8 c-12 -9 -29 -38
-44 -77 l-10 -26 11 0 11 0 14 38 15 38 43 27 43 27 224 45 c123 25 233 49
243 53 l20 8 -10 5 -9 5 -317 -65z"/>
<path d="M60591 61980 c0 -14 16 -104 37 -200 l37 -175 27 -13 27 -13 6 -19
c7 -22 25 -27 25 -7 0 7 -7 22 -15 34 l-15 22 -22 3 -22 3 -8 35 c-4 19 -23
107 -42 195 l-34 160 -1 -25z"/>
<path d="M62171 61919 c-102 -22 -187 -41 -189 -44 -16 -16 26 -11 211 27
l207 42 0 8 0 8 -22 -1 c-13 -1 -106 -19 -207 -40z"/>
<path d="M62495 61903 c4 -27 9 -56 12 -66 l4 -17 8 4 8 5 -8 48 c-4 26 -8 54
-8 61 l-1 12 -11 0 -10 0 6 -47z"/>
<path d="M22828 61803 l-66 -128 -32 -92 -33 -93 -10 0 c-5 0 -89 27 -186 60
-97 33 -181 60 -187 60 l-9 -1 15 -8 c21 -12 381 -133 384 -129 2 2 18 46 36
98 l33 95 67 133 c37 72 65 132 61 132 -4 0 -36 -57 -73 -127z"/>
<path d="M85402 61750 c144 -239 231 -380 235 -380 3 0 -1 10 -9 23 -8 12 -59
96 -113 187 -54 91 -105 172 -113 180 l-16 15 16 -25z"/>
<path d="M60290 61734 c0 -3 34 -21 76 -40 136 -62 214 -93 214 -86 0 4 -57
32 -127 62 -157 68 -163 71 -163 64z"/>
<path d="M17983 61658 c-57 -95 -165 -300 -160 -304 3 -3 18 19 35 48 95 169
153 280 149 284 -3 3 -14 -10 -24 -28z"/>
<path d="M55530 61598 c0 -3 18 -93 39 -199 22 -107 43 -220 46 -252 l7 -57
10 -6 9 -6 -5 24 c-3 12 -10 57 -17 98 -16 104 -76 390 -83 397 -3 4 -6 4 -6
1z"/>
<path d="M60778 61562 c-14 -15 -31 -38 -38 -50 l-12 -24 7 -6 7 -7 12 19 c6
11 24 34 39 52 l28 32 -9 6 -9 5 -25 -27z"/>
<path d="M60563 61557 c-4 -7 -38 -37 -75 -67 -60 -47 -85 -76 -75 -86 3 -4
49 34 135 112 l45 41 -11 7 -11 6 -8 -13z"/>
<path d="M58165 61439 c-66 -21 -164 -49 -217 -61 -54 -12 -98 -25 -98 -29 l0
-7 102 24 c122 29 329 93 343 105 l9 9 -9 -1 c-6 0 -64 -18 -130 -40z"/>
<path d="M60603 61459 c-4 -4 -43 -28 -86 -53 l-78 -44 9 -6 9 -5 54 28 c29
16 63 37 74 47 l21 19 37 -9 37 -9 25 13 24 13 -5 8 -5 8 -25 -11 -25 -12 -29
11 -28 11 -9 -9z"/>
<path d="M59587 61403 c-9 -27 -30 -109 -46 -183 l-29 -135 -6 -85 -5 -85 8
15 c5 8 11 51 14 95 l5 80 36 152 c19 84 40 162 46 173 l11 20 -9 0 -8 0 -17
-47z"/>
<path d="M58305 61431 c13 -13 389 -180 394 -175 2 2 2 5 0 7 -4 4 -313 141
-369 164 l-35 15 10 -11z"/>
<path d="M57120 61411 c0 -6 277 -127 340 -149 l15 -5 -10 10 c-14 15 -345
152 -345 144z"/>
<path d="M60665 61399 c11 -13 21 -26 22 -28 2 -2 3 3 3 12 l0 16 -22 12 -23
12 20 -24z"/>
<path d="M54550 61373 c0 -8 173 -768 205 -902 3 -13 8 -21 11 -19 5 5 -203
918 -211 926 -3 3 -5 1 -5 -5z"/>
<path d="M89550 61214 c-25 -65 -45 -122 -45 -127 l0 -9 78 -28 77 -29 0 8 c0
4 -31 18 -70 31 l-70 24 0 10 c0 5 18 57 41 114 22 57 39 108 37 113 -2 5 -23
-43 -48 -107z"/>
<path d="M53163 61061 c-111 -25 -205 -50 -210 -55 l-8 -8 20 5 c11 4 103 25
205 48 102 23 189 45 195 50 5 5 7 9 5 8 -3 -1 -96 -22 -207 -48z"/>
<path d="M77833 61034 c4 -11 16 -57 27 -104 l21 -85 24 -40 23 -41 51 -47
c27 -26 54 -47 59 -47 4 0 16 -15 25 -34 l16 -34 -19 -36 -18 -36 14 0 13 0
11 19 c5 11 10 34 10 51 l0 31 -15 29 -16 30 -13 0 -13 0 -50 53 c-65 68 -72
83 -103 201 l-27 100 -12 4 -13 4 5 -18z"/>
<path d="M50013 61033 l7 -6 7 6 6 7 -13 0 -13 0 6 -7z"/>
<path d="M50093 61013 l7 -6 7 6 6 7 -13 0 -13 0 6 -7z"/>
<path d="M50128 61003 c6 -2 18 -2 25 0 l12 5 -25 0 -25 0 13 -5z"/>
<path d="M54673 60655 c28 -123 53 -222 56 -220 6 7 -92 445 -100 445 -3 0 17
-101 44 -225z"/>
<path d="M49972 60820 c-18 -4 -36 -11 -40 -15 l-7 -7 45 7 c25 4 49 11 55 16
l9 9 -14 -1 c-8 -1 -30 -5 -48 -9z"/>
<path d="M49885 60788 c-2 -7 -11 -41 -20 -75 -8 -34 -18 -69 -21 -78 l-6 -15
14 0 15 0 22 83 c12 45 21 85 21 90 0 12 -20 8 -25 -5z"/>
<path d="M60720 60761 l-95 -26 -97 -55 c-54 -30 -98 -58 -98 -62 0 -4 46 19
103 51 l102 57 90 23 c50 13 94 27 100 32 l9 9 -9 -1 c-6 -1 -53 -13 -105 -28z"/>
<path d="M61763 60685 c3 -11 27 -121 53 -245 25 -124 51 -232 56 -240 l9 -15
-5 23 c-2 13 -26 125 -52 250 l-47 227 -9 10 -10 10 5 -20z"/>
<path d="M48820 60670 l-15 -10 12 0 c6 0 15 5 18 10 8 12 4 12 -15 0z"/>
<path d="M78319 60579 l-56 -8 -42 -22 -43 -22 -89 -3 -89 -3 0 -8 c0 -5 12
-12 27 -17 l26 -9 84 13 83 12 27 22 28 21 135 -2 135 -1 68 -15 67 -15 5 8 5
9 -17 5 c-35 9 -129 25 -188 31 -33 4 -71 8 -85 9 -14 2 -50 0 -81 -5z"/>
<path d="M87332 60401 l-162 -170 8 -5 8 -5 168 168 167 167 -7 7 c-4 4 -10 7
-13 7 -3 0 -79 -76 -169 -169z"/>
<path d="M77986 60474 c-3 -9 -6 -20 -6 -26 l0 -10 15 12 c8 7 15 19 15 26 l0
14 -9 0 c-5 0 -12 -7 -15 -16z"/>
<path d="M57316 60462 l-6 -10 29 -79 c26 -71 48 -166 43 -185 l-2 -7 14 5 13
5 -13 62 c-7 34 -26 98 -42 141 l-29 79 -7 -11z"/>
<path d="M59895 60220 c-147 -125 -192 -168 -152 -144 19 13 327 275 327 280
0 10 -19 -4 -175 -136z"/>
<path d="M62552 60310 c-100 -20 -186 -41 -190 -45 l-7 -8 25 6 c14 3 97 19
185 37 88 17 169 35 180 40 l20 9 -15 -1 c-8 0 -97 -17 -198 -38z"/>
<path d="M44532 60311 c6 -17 330 -361 340 -361 l10 0 -44 49 c-99 112 -294
319 -301 320 l-9 1 4 -9z"/>
<path d="M57835 60264 c-44 -14 -131 -35 -193 -48 -106 -22 -131 -30 -121 -40
6 -7 179 30 312 65 l117 32 0 9 0 8 -17 -1 c-10 -1 -54 -12 -98 -25z"/>
<path d="M28775 60258 c-2 -7 -15 -96 -30 -198 -15 -102 -29 -197 -32 -212
l-5 -28 10 0 10 0 11 68 c6 37 22 138 34 225 l24 157 -9 0 c-5 0 -10 -6 -13
-12z"/>
<path d="M57310 60190 l0 -13 7 6 6 7 -6 7 -7 6 0 -13z"/>
<path d="M87075 60077 c-72 -67 -150 -139 -174 -160 l-45 -37 10 -10 9 -9 90
81 c50 44 127 117 173 161 l83 80 -8 8 -8 8 -130 -122z"/>
<path d="M57173 60177 l-83 -10 0 -9 0 -10 53 6 c28 4 69 9 90 12 l37 6 0 9
c0 5 -3 8 -7 8 -5 -1 -45 -6 -90 -12z"/>
<path d="M49386 59894 c-58 -81 -103 -150 -101 -153 6 -6 -4 -18 115 147 56
79 100 146 97 148 -3 3 -53 -61 -111 -142z"/>
<path d="M48836 59814 c-69 -92 -124 -170 -121 -172 3 -3 7 -3 8 -1 50 60 247
332 244 336 -3 2 -62 -71 -131 -163z"/>
<path d="M58850 59930 c0 -8 32 -84 70 -169 39 -85 70 -163 70 -173 l0 -18 10
0 10 0 0 -19 c0 -11 4 -21 8 -23 4 -1 37 -74 73 -160 35 -87 67 -158 71 -158
6 0 -22 72 -103 265 l-30 70 11 3 c19 7 331 245 326 249 -2 2 -77 -50 -165
-116 -89 -67 -166 -121 -171 -121 l-10 0 0 14 0 14 13 5 c9 3 274 199 316 234
2 1 2 5 0 7 -2 3 -76 -49 -163 -115 -88 -65 -164 -119 -170 -119 l-11 0 -77
173 c-43 94 -78 165 -78 157z"/>
<path d="M91090 59935 c0 -6 30 -44 67 -85 52 -60 120 -143 220 -269 2 -2 5
-2 7 0 8 7 -171 230 -276 344 l-18 19 0 -9z"/>
<path d="M43539 59890 l-27 -26 -143 -43 -144 -43 -74 -34 -74 -34 5 -6 6 -5
58 29 59 29 159 49 159 48 25 21 25 21 -4 10 -4 9 -26 -25z"/>
<path d="M58810 59913 c0 -6 30 -75 66 -154 36 -79 73 -159 81 -178 8 -18 16
-31 19 -28 4 4 -151 355 -162 366 -2 2 -4 0 -4 -6z"/>
<path d="M86559 59764 c-90 -69 -166 -131 -168 -137 l-4 -12 14 11 c8 6 85 66
172 133 141 110 166 131 153 131 -2 0 -77 -57 -167 -126z"/>
<path d="M24063 59858 l-113 -10 0 -7 0 -7 148 13 147 13 60 -5 c33 -4 74 -9
90 -12 l30 -5 -12 13 -13 13 -112 2 -113 2 -112 -10z"/>
<path d="M43565 59833 c-16 -2 -100 -25 -185 -50 l-155 -46 -70 -32 -70 -32
-113 -82 -113 -81 -79 -40 c-93 -47 -106 -60 -23 -24 94 42 113 53 234 140
l116 83 59 26 c32 15 132 49 222 76 l163 49 32 0 32 0 15 10 15 10 -25 -2
c-14 0 -38 -3 -55 -5z"/>
<path d="M53330 59624 c0 -12 38 -50 44 -43 2 2 -7 15 -20 29 l-24 25 0 -11z"/>
<path d="M45388 59453 c166 -174 202 -210 202 -199 0 11 -333 356 -344 356 -4
0 59 -71 142 -157z"/>
<path d="M40884 59494 c-9 -31 -38 -115 -65 -187 l-48 -130 6 -10 6 -10 49
134 c27 74 58 160 68 192 l18 57 -9 5 -8 6 -17 -57z"/>
<path d="M55282 59498 c-27 -83 -113 -431 -110 -440 2 -6 32 96 66 227 34 131
60 240 58 242 -2 3 -9 -11 -14 -29z"/>
<path d="M30400 59492 c0 -4 19 -62 41 -127 l41 -120 1 -80 0 -80 -12 -29
c-14 -35 -7 -46 9 -16 l12 23 5 76 5 76 -46 143 c-42 126 -56 160 -56 134z"/>
<path d="M40960 59489 l0 -10 10 6 c6 3 10 8 10 11 0 2 -4 4 -10 4 -5 0 -10
-5 -10 -11z"/>
<path d="M41010 59463 c0 -22 323 -203 362 -203 l9 0 -5 9 c-3 5 -35 20 -70
34 l-64 26 -111 71 c-112 71 -121 76 -121 63z"/>
<path d="M44365 59430 c44 -56 123 -134 163 -162 l43 -30 7 7 7 7 -25 17 c-14
9 -68 54 -120 100 -52 47 -86 74 -75 61z"/>
<path d="M63798 59173 c24 -120 48 -222 52 -226 l8 -9 -46 226 c-26 124 -49
226 -53 226 -3 0 14 -98 39 -217z"/>
<path d="M59872 59325 c-117 -24 -216 -46 -219 -49 l-6 -6 9 0 c14 0 456 89
469 94 33 14 -67 -2 -253 -39z"/>
<path d="M86050 59330 l0 -13 7 6 6 7 -6 7 -7 6 0 -13z"/>
<path d="M91670 59214 c0 -5 17 -26 38 -46 51 -51 265 -218 271 -212 2 2 2 5
0 7 -2 2 -49 39 -104 82 -55 43 -124 101 -152 128 l-53 51 0 -10z"/>
<path d="M83930 58985 c56 -110 107 -204 113 -210 l10 -10 -4 10 c-10 27 -202
391 -212 400 -5 6 36 -80 93 -190z"/>
<path d="M41820 59120 l0 -13 7 6 6 7 -6 7 -7 6 0 -13z"/>
<path d="M63100 58810 c0 -20 71 -374 76 -379 2 -2 7 -2 10 2 l6 6 -38 183
c-20 101 -41 187 -46 193 l-8 9 0 -14z"/>
<path d="M62858 58762 l-178 -36 0 -9 0 -8 18 5 c9 3 96 22 192 41 188 38 209
44 170 43 -14 0 -105 -16 -202 -36z"/>
<path d="M61965 58620 c-257 -54 -645 -151 -645 -162 l0 -6 188 49 c103 27
297 72 432 99 135 28 254 55 265 60 l20 9 -15 -1 c-8 0 -118 -22 -245 -48z"/>
<path d="M63900 58473 c0 -18 90 -437 95 -442 10 -9 4 26 -40 232 -41 188 -55
243 -55 210z"/>
<path d="M40574 58315 c11 -8 25 -15 30 -15 l11 1 -19 14 c-11 8 -25 15 -30
15 l-11 -1 19 -14z"/>
<path d="M37944 57970 l0 -205 3 103 c2 56 2 148 0 205 l-3 102 0 -205z"/>
<path d="M49130 57923 c-52 -64 -97 -121 -99 -126 l-3 -9 10 3 c11 4 202 234
202 243 0 18 -25 -7 -110 -111z"/>
<path d="M64033 58010 c3 -14 45 -214 92 -445 48 -231 88 -422 91 -424 10 -10
0 45 -83 449 l-86 425 -10 10 -10 10 6 -25z"/>
<path d="M63364 57928 c3 -13 25 -114 48 -225 l43 -203 11 -4 12 -5 -4 17 c-7
28 -94 437 -94 439 0 2 -5 3 -11 3 l-11 0 6 -22z"/>
<path d="M55923 57801 l-201 -26 -9 -9 -8 -8 30 5 c17 4 113 16 215 28 l185
22 10 9 9 8 -14 -1 c-8 -1 -106 -13 -217 -28z"/>
<path d="M62050 57764 c-162 -35 -358 -76 -434 -92 l-140 -29 10 -5 9 -5 438
93 c241 50 441 95 444 98 l6 6 -19 -1 c-10 -1 -152 -30 -314 -65z"/>
<path d="M55476 57784 c-104 -13 -194 -25 -200 -28 l-11 -4 20 -1 c34 -1 416
47 422 53 l6 6 -24 -1 c-13 -1 -109 -12 -213 -25z"/>
<path d="M91208 57610 l-187 -169 9 -6 9 -5 185 166 c168 150 202 185 179 183
-5 0 -92 -76 -195 -169z"/>
<path d="M37970 57740 l0 -10 19 0 20 0 6 -10 6 -10 11 6 11 7 -18 14 c-11 7
-27 13 -37 13 l-18 0 0 -10z"/>
<path d="M81998 57701 l-187 -26 7 -12 7 -12 210 30 c116 16 211 29 213 29 1
0 2 5 2 10 l0 10 -32 -1 c-18 -1 -117 -13 -220 -28z"/>
<path d="M64084 57553 c3 -16 23 -113 45 -218 77 -383 236 -1109 239 -1094 1
8 -38 204 -87 435 -49 230 -92 435 -96 454 -3 19 -24 128 -47 243 l-41 207 -9
0 -10 0 6 -27z"/>
<path d="M80835 57526 c-44 -12 -117 -37 -162 -56 l-82 -35 -1 -12 c0 -19 9
-16 77 17 61 29 106 45 216 75 l57 16 -5 10 c-8 11 -4 12 -100 -15z"/>
<path d="M27170 57510 l0 -10 20 0 20 0 0 10 0 10 -20 0 -20 0 0 -10z"/>
<path d="M52570 57423 l0 -9 73 -23 c39 -13 141 -52 226 -87 168 -70 161 -68
161 -55 l0 9 -86 36 c-163 68 -309 124 -341 131 l-33 7 0 -9z"/>
<path d="M52526 57322 c5 -5 86 -36 179 -70 l170 -61 269 -130 270 -130 8 5
c5 4 8 7 6 9 -2 2 -127 63 -278 135 l-275 132 -163 59 c-90 32 -171 59 -180
59 l-16 0 10 -8z"/>
<path d="M26934 57288 c-49 -55 -110 -157 -410 -679 l-317 -554 -138 -207
-139 -207 8 -4 7 -5 141 207 140 206 319 557 319 558 53 70 c29 39 53 73 53
75 0 12 -18 3 -36 -17z"/>
<path d="M38095 57220 l4 -65 -45 -150 c-24 -82 -47 -159 -50 -170 l-6 -20 10
10 c5 6 31 84 57 174 l47 164 -10 61 -11 61 4 -65z"/>
<path d="M37569 57008 l-62 -53 -58 -167 -58 -168 7 0 c4 0 32 73 62 161 l55
162 65 58 c81 73 72 78 -11 7z"/>
<path d="M90792 56953 c-6 -21 -45 -116 -86 -211 l-75 -173 -51 -69 -51 -69
-136 -131 -135 -131 5 -6 6 -6 23 15 c13 9 72 62 131 119 l109 102 59 79 60
78 65 152 c37 84 77 183 89 221 l24 67 -13 0 -13 0 -11 -37z"/>
<path d="M48080 56970 l0 -10 13 0 c8 0 94 -38 192 -85 97 -47 182 -84 187
-83 l10 4 -193 92 c-107 51 -197 92 -201 92 -5 0 -8 -4 -8 -10z"/>
<path d="M36290 56769 c-80 -77 -133 -132 -119 -122 42 30 284 263 273 263 -5
0 -75 -63 -154 -141z"/>
<path d="M46550 56888 c0 -26 61 -443 66 -447 2 -3 9 0 15 6 l11 11 -21 143
c-24 159 -49 279 -62 294 l-9 9 0 -16z"/>
<path d="M47200 56796 c0 -5 340 -309 358 -320 37 -22 -6 19 -168 164 -166
148 -190 167 -190 156z"/>
<path d="M64313 56670 c3 -14 24 -116 48 -228 l42 -203 13 5 12 4 21 -14 21
-15 0 -33 0 -33 -18 -16 -19 -17 -39 0 -39 -1 17 -9 16 -10 30 6 31 6 21 23
22 24 -9 38 -9 38 -29 15 c-17 8 -31 15 -32 16 -2 0 -23 94 -47 208 -24 114
-47 210 -51 214 l-8 7 6 -25z"/>
<path d="M25950 56643 c1 -4 72 -52 158 -106 86 -53 172 -107 190 -118 l32
-21 0 9 c0 6 -160 110 -342 221 l-38 23 0 -8z"/>
<path d="M79448 56581 l-37 -28 -96 -32 -97 -32 -84 -6 -84 -6 0 -9 0 -8 58 5
c117 12 139 16 228 46 l90 31 40 34 c47 40 34 44 -18 5z"/>
<path d="M54540 56431 c44 -26 338 -89 419 -91 l14 0 -6 6 c-3 3 -52 12 -109
20 l-103 15 -107 29 c-112 31 -133 35 -108 21z"/>
<path d="M54362 56388 c6 -18 20 -45 31 -60 l20 -27 9 5 8 5 -20 28 c-11 16
-24 40 -30 55 l-10 26 -9 0 -10 0 11 -32z"/>
<path d="M26450 56403 c0 -8 331 -183 346 -183 12 0 -40 30 -208 118 -76 40
-138 69 -138 65z"/>
<path d="M49290 56402 c0 -4 73 -42 163 -84 l162 -77 50 -6 50 -5 -20 9 c-11
5 -30 10 -43 10 l-23 1 -72 34 c-40 18 -116 54 -169 79 -54 26 -98 43 -98 39z"/>
<path d="M90060 56074 c-85 -74 -166 -147 -180 -161 l-25 -26 18 6 c22 8 357
297 357 309 0 17 -20 3 -170 -128z"/>
<path d="M37175 56146 c-86 -29 -641 -248 -650 -257 l-10 -10 65 24 c36 14
178 69 315 123 138 54 279 106 315 115 l65 18 -30 0 c-16 0 -48 -6 -70 -13z"/>
<path d="M64081 56089 l-244 -48 -11 -12 -11 -12 25 6 c14 3 133 27 265 53
132 26 244 51 250 55 l9 9 -19 -1 c-11 -1 -130 -23 -264 -50z"/>
<path d="M63777 56005 l-18 -25 -24 -6 -25 -6 0 -10 0 -10 28 7 27 6 23 21
c21 21 30 48 15 48 -5 0 -16 -12 -26 -25z"/>
<path d="M25510 55923 c1 -9 361 -236 366 -230 2 2 -17 17 -44 34 -51 33 -289
184 -309 197 l-13 7 0 -8z"/>
<path d="M63062 55910 l0 -25 5 13 c2 6 2 18 0 25 l-5 12 0 -25z"/>
<path d="M37699 55713 l-24 -198 -44 -24 -45 -25 -170 13 c-94 7 -184 15 -201
18 l-30 6 10 -10 10 -10 188 -16 188 -16 43 20 c24 10 48 24 54 31 l10 13 24
198 24 197 -6 0 -7 0 -24 -197z"/>
<path d="M55881 55758 c74 -70 279 -241 284 -236 2 2 -64 62 -147 133 -152
131 -223 184 -137 103z"/>
<path d="M25809 55558 c-41 -62 -102 -149 -136 -194 l-62 -82 6 -5 5 -6 41 52
c23 29 85 116 139 194 l96 143 -8 5 -8 5 -73 -112z"/>
<path d="M61790 55639 l0 -20 10 6 c6 3 10 13 10 21 l0 14 -10 0 -10 0 0 -21z"/>
<path d="M61919 55610 c-26 -30 -27 -40 -3 -40 l13 0 16 30 c26 50 14 55 -26
10z"/>
<path d="M92120 55532 c0 -4 41 -24 90 -46 l90 -39 127 -33 c70 -18 129 -32
131 -29 6 6 -1 8 -139 44 -64 17 -137 40 -163 51 -25 11 -66 29 -91 40 l-45
19 0 -7z"/>
<path d="M89499 55363 c-39 -76 -94 -179 -121 -230 l-49 -92 -62 -55 -62 -54
-107 -57 c-59 -31 -110 -61 -114 -66 l-5 -9 10 0 c6 0 62 27 124 60 l112 59
63 58 63 58 118 228 118 227 -8 5 -8 5 -72 -137z"/>
<path d="M50370 55427 c0 -3 31 -35 70 -73 74 -71 145 -123 201 -147 l34 -14
20 7 19 7 -40 6 -40 7 -60 41 c-32 23 -81 63 -109 88 -66 61 -95 85 -95 78z"/>
<path d="M53227 55260 l5 -20 -16 0 -16 0 -1 13 0 12 -10 -24 -9 -23 26 -133
25 -132 -57 -94 c-31 -52 -95 -149 -141 -217 l-85 -122 4 -9 3 -9 113 171 c63
95 128 195 146 222 l32 50 -23 115 c-12 63 -22 128 -22 143 l-1 29 13 -4 12
-5 7 -59 c9 -79 46 -235 60 -251 l10 -13 -4 -18 c-3 -10 -173 -272 -377 -582
l-372 -563 -33 -66 c-18 -36 -41 -89 -50 -116 l-16 -51 166 -353 166 -352 -6
-6 -6 -6 14 -11 c20 -16 196 -349 316 -598 58 -120 108 -218 112 -218 12 0
-225 484 -350 715 l-59 110 195 98 c179 90 246 127 230 127 -3 0 -101 -48
-217 -107 -116 -58 -213 -104 -215 -102 -2 2 -78 162 -169 354 l-165 350 7 10
c4 6 13 30 20 55 22 76 71 155 459 743 l375 569 -17 36 c-19 39 -66 236 -66
276 l0 25 153 -71 c83 -38 180 -86 215 -105 l62 -35 0 10 0 9 -132 65 c-73 36
-170 82 -215 103 l-83 38 0 14 0 13 33 -14 c17 -7 116 -55 220 -106 103 -51
190 -91 192 -88 4 4 -447 228 -459 228 -2 0 -2 -9 1 -20z"/>
<path d="M55376 55184 l-39 -46 -28 -10 -29 -10 0 -9 0 -9 28 6 27 7 30 28
c17 16 38 42 48 59 l18 30 -8 0 c-5 0 -26 -21 -47 -46z"/>
<path d="M50927 55193 c-2 -4 -8 -23 -12 -40 l-7 -33 -8 0 c-5 0 -12 5 -15 10
-4 6 -29 22 -56 35 l-49 25 0 -7 c0 -5 31 -24 68 -45 l68 -36 11 46 c10 45 10
63 0 45z"/>
<path d="M55201 54864 c-40 -124 -70 -228 -67 -231 2 -3 27 66 55 154 28 87
62 191 75 231 l25 72 -8 0 -7 0 -73 -226z"/>
<path d="M49937 55044 l-6 -6 92 -71 c51 -38 121 -94 156 -124 l63 -54 7 7 6
6 -50 45 c-46 41 -226 181 -251 196 l-11 6 -6 -5z"/>
<path d="M89346 54988 l-50 -59 -92 -57 c-51 -31 -117 -70 -146 -86 l-53 -29
13 -4 12 -5 68 38 c37 20 99 56 138 81 l71 43 53 61 53 60 -9 9 -9 8 -49 -60z"/>
<path d="M51910 55031 l0 -11 148 0 148 0 47 -30 c56 -35 63 -26 9 11 l-37 26
-157 8 -158 7 0 -11z"/>
<path d="M51026 54964 c-26 -9 -46 -17 -43 -20 5 -6 117 25 117 32 0 7 -23 3
-74 -12z"/>
<path d="M52140 54768 c-69 -105 -126 -198 -128 -207 -2 -12 205 295 262 387
l7 12 -8 -1 c-4 0 -64 -86 -133 -191z"/>
<path d="M52355 54920 c3 -5 11 -10 16 -10 6 0 74 -43 151 -95 78 -52 143 -93
146 -91 5 6 -295 206 -309 206 l-10 0 6 -10z"/>
<path d="M47110 54886 c-5 -15 -10 -38 -10 -52 l0 -25 15 -29 15 -29 33 -25
c39 -30 47 -32 47 -12 l0 14 -25 16 -25 16 -15 30 -15 29 2 40 c1 23 -2 44 -5
47 l-6 7 -11 -27z"/>
<path d="M50816 54840 c19 -38 76 -95 149 -152 44 -34 118 -94 165 -134 130
-108 514 -404 519 -399 2 3 2 7 0 8 -2 2 -85 66 -184 142 -99 77 -232 182
-295 235 -63 52 -146 120 -185 149 -38 30 -94 79 -123 110 -30 31 -50 49 -46
41z"/>
<path d="M47298 54743 l-18 -4 0 -15 0 -14 9 0 c5 0 16 3 25 6 l16 6 0 14 c0
14 -3 15 -32 7z"/>
<path d="M46836 54615 c-9 -14 -21 -36 -26 -50 l-9 -25 9 -22 9 -23 0 33 1 33
20 39 c23 45 21 53 -4 15z"/>
<path d="M51180 54621 c0 -11 300 -245 306 -239 2 3 -66 59 -151 126 -85 67
-155 118 -155 113z"/>
<path d="M32992 54509 l4 -14 195 -132 c106 -73 198 -132 202 -133 l9 0 -4 10
c-2 7 -323 229 -397 274 l-14 9 5 -14z"/>
<path d="M51940 54300 c-79 -105 -141 -193 -138 -195 3 -3 70 83 150 190 80
107 142 195 138 195 -4 0 -72 -86 -150 -190z"/>
<path d="M47505 54438 l-6 -14 301 -614 300 -615 14 -3 14 -3 5 8 6 9 -302
619 -302 618 -13 5 -12 4 -5 -14z"/>
<path d="M88035 54386 l-20 -15 10 -2 c6 0 25 0 43 1 l33 2 25 -17 26 -17 6 6
6 7 -20 19 -19 19 -35 6 -35 6 -20 -15z"/>
<path d="M51440 54365 l-12 -15 10 0 c12 0 26 19 19 26 -2 2 -10 -2 -17 -11z"/>
<path d="M49082 54218 c-128 -66 -231 -122 -229 -125 3 -2 114 52 248 121 134
69 237 126 229 125 -8 0 -120 -54 -248 -121z"/>
<path d="M33703 54185 l-43 -52 0 -14 1 -14 30 35 c17 19 39 47 50 62 l19 27
-7 4 -8 5 -42 -53z"/>
<path d="M32760 54176 c0 -2 32 -30 70 -61 l70 -57 0 -13 0 -13 -71 -61 c-88
-76 -77 -81 14 -5 l67 56 0 22 0 22 -69 57 c-64 52 -81 64 -81 53z"/>
<path d="M18248 54164 l-6 -5 39 -97 c22 -53 55 -150 75 -217 20 -66 40 -124
45 -129 l9 -10 0 15 c-1 27 -77 264 -114 354 -42 100 -40 97 -48 89z"/>
<path d="M33441 54053 c-12 -14 -24 -36 -27 -49 l-6 -22 -206 -164 c-194 -154
-260 -202 -597 -435 -77 -53 -150 -104 -163 -114 l-23 -17 9 -6 10 -6 38 28
c22 16 147 102 279 191 132 90 271 189 309 220 38 31 133 107 210 169 l141
113 16 34 c8 19 23 43 33 54 l17 19 -10 6 -9 6 -21 -27z"/>
<path d="M47888 54022 c-59 -26 -108 -50 -108 -54 0 -8 211 79 225 93 l9 9 -9
-1 c-6 -1 -58 -22 -117 -47z"/>
<path d="M52575 53949 c-44 -68 -115 -170 -158 -227 -44 -57 -78 -105 -76
-107 14 -13 119 122 238 308 l82 128 -3 11 -4 11 -79 -124z"/>
<path d="M46866 53953 c-3 -32 -8 -112 -11 -178 -3 -66 -8 -147 -11 -180 l-5
-60 9 15 9 15 12 219 c11 209 10 294 -3 169z"/>
<path d="M31207 53926 l-5 -34 -82 -193 c-45 -107 -85 -201 -88 -209 l-5 -15
10 10 c16 15 171 387 182 434 l9 41 -8 0 -7 0 -6 -34z"/>
<path d="M50080 53863 c-83 -37 -362 -184 -357 -189 2 -2 91 40 198 95 107 54
201 101 209 103 8 3 13 7 10 10 -3 3 -30 -6 -60 -19z"/>
<path d="M13471 53873 c0 -10 348 -289 354 -285 13 7 -7 25 -166 153 -161 130
-190 150 -188 132z"/>
<path d="M19950 53873 c78 -3 299 -22 355 -29 l40 -6 -10 10 -10 9 -135 12
c-74 6 -173 10 -220 9 l-85 -2 65 -3z"/>
<path d="M50658 53646 c-147 -72 -268 -134 -268 -138 0 -6 528 247 539 258 20
20 -41 -7 -271 -120z"/>
<path d="M61246 53723 c-7 -24 -86 -457 -86 -474 0 -7 2 -10 5 -7 7 7 96 490
91 495 -2 3 -7 -4 -10 -14z"/>
<path d="M54362 53566 c-182 -88 -328 -162 -324 -164 7 -2 644 301 661 315 2
2 2 5 0 7 -2 2 -154 -69 -337 -158z"/>
<path d="M80645 53663 c-126 -30 -232 -57 -234 -59 -14 -14 30 -5 254 51 138
35 241 63 230 63 -11 0 -123 -25 -250 -55z"/>
<path d="M80940 53691 c0 -25 103 -427 113 -436 l9 -10 -5 20 c-4 11 -29 112
-57 225 -48 190 -60 232 -60 201z"/>
<path d="M80901 53682 c-1 -19 101 -426 110 -436 6 -7 -93 407 -106 439 l-3
10 -1 -13z"/>
<path d="M50160 53662 c-54 -28 -320 -193 -326 -204 l-6 -10 18 10 c11 6 88
53 173 106 85 53 160 96 167 96 7 0 16 5 19 10 l6 10 -8 0 c-4 -1 -24 -9 -43
-18z"/>
<path d="M50230 53670 c8 -5 26 -9 40 -9 l25 1 -25 8 c-14 4 -32 8 -40 9 l-15
1 15 -10z"/>
<path d="M54777 53538 c-14 -46 -31 -102 -38 -125 l-12 -42 17 -26 17 -25 157
-105 157 -105 75 -19 c41 -11 70 -20 64 -20 l-11 -1 -11 -25 c-7 -14 -12 -38
-12 -52 l0 -26 -91 -174 -91 -175 10 -10 11 -11 94 189 94 189 5 40 c3 22 7
46 9 53 l4 14 -75 22 -75 22 -152 102 -153 102 -15 23 -15 24 36 117 c20 65
33 120 31 123 -3 2 -17 -33 -30 -79z"/>
<path d="M52332 53580 c21 -57 133 -300 139 -300 9 0 -119 290 -134 305 l-10
10 5 -15z"/>
<path d="M9401 53556 c2 -2 39 -18 81 -35 43 -17 132 -58 198 -91 66 -33 125
-60 132 -60 15 0 -247 129 -336 166 -54 22 -86 30 -75 20z"/>
<path d="M51950 53460 l0 -9 15 5 c8 4 15 8 15 10 0 2 -7 4 -15 4 l-15 0 0
-10z"/>
<path d="M51140 53355 c-102 -52 -182 -94 -177 -94 10 -1 367 178 367 184 0 7
14 13 -190 -90z"/>
<path d="M50465 53280 l-6 -10 10 0 c6 0 11 5 11 10 0 6 -2 10 -4 10 -3 0 -8
-4 -11 -10z"/>
<path d="M52470 53235 l-34 -35 -40 -1 c-23 -1 -54 -5 -71 -10 l-30 -8 75 5
75 5 35 34 c18 19 32 37 29 40 -3 2 -21 -11 -39 -30z"/>
<path d="M50471 53173 c17 -38 35 -79 40 -92 5 -13 12 -22 15 -19 6 7 -68 178
-78 178 l-7 0 30 -67z"/>
<path d="M52260 53207 c0 -5 133 -285 158 -334 12 -23 26 -44 32 -48 l10 -6 0
7 c0 4 -13 30 -28 58 -16 28 -57 113 -92 189 -35 75 -67 137 -72 137 -4 0 -8
-1 -8 -3z"/>
<path d="M52245 53180 c3 -5 8 -10 11 -10 2 0 4 5 4 10 0 6 -5 10 -11 10 l-10
0 6 -10z"/>
<path d="M11485 53170 c-3 -5 -49 -38 -103 -73 l-97 -64 -47 -11 -47 -12 -15
6 -16 6 0 -11 0 -11 28 0 c15 0 45 5 67 11 l39 11 81 54 c44 29 94 64 110 78
l30 25 -12 1 c-6 0 -14 -4 -18 -10z"/>
<path d="M11546 53172 l-5 -9 157 -114 c86 -63 159 -113 162 -111 16 8 -10 31
-147 131 -84 61 -155 111 -157 111 -3 0 -7 -4 -10 -8z"/>
<path d="M32243 53134 c-34 -25 -83 -64 -110 -88 l-48 -44 7 -7 7 -8 53 48
c29 26 83 68 121 93 37 25 67 47 67 48 0 2 -8 4 -17 3 l-18 -1 -62 -44z"/>
<path d="M64298 53173 l13 -5 6 6 6 6 -19 -1 -19 -1 13 -5z"/>
<path d="M51225 53084 c-286 -146 -516 -267 -512 -270 2 -3 132 61 288 142
l284 146 25 1 c14 1 36 -2 50 -6 l25 -8 -25 15 c-14 9 -34 15 -45 15 l-20 0
-70 -35z"/>
<path d="M66435 53073 c-115 -25 -212 -47 -214 -49 -17 -16 35 -8 232 33 l227
48 0 7 0 8 -17 -1 c-10 -1 -112 -21 -228 -46z"/>
<path d="M46825 52878 l-7 -172 -19 -54 c-10 -30 -55 -124 -99 -210 -44 -85
-78 -157 -76 -159 2 -2 44 74 94 169 l90 173 11 40 10 40 6 150 c3 83 8 160
11 173 l4 22 -9 0 -9 0 -7 -172z"/>
<path d="M46420 52955 c0 -14 108 -194 132 -220 15 -16 47 -53 70 -81 l43 -51
37 -22 c51 -29 61 -27 15 4 l-37 26 -75 85 -75 86 -51 89 c-45 80 -59 99 -59
84z"/>
<path d="M55353 52913 l-23 -4 0 -15 0 -15 20 5 c11 3 29 9 40 12 11 3 20 10
20 15 l0 9 -17 -1 c-10 -1 -28 -4 -40 -6z"/>
<path d="M50655 52860 l-6 -10 10 0 c5 0 13 5 16 10 l6 10 -10 0 c-5 0 -13 -4
-16 -10z"/>
<path d="M48375 52750 c3 -5 8 -10 11 -10 3 0 2 5 -1 10 -3 6 -8 10 -11 10 -3
0 -2 -4 1 -10z"/>
<path d="M48865 52729 l-7 -30 18 -72 17 -72 54 -115 c55 -118 92 -180 106
-180 l8 0 -19 28 c-10 15 -44 81 -75 146 l-57 119 -16 61 -16 61 1 43 c1 49
-5 55 -14 11z"/>
<path d="M48271 52731 l-14 -9 6 -16 7 -16 20 12 20 13 0 12 0 13 -12 0 c-7 0
-19 -4 -27 -9z"/>
<path d="M64620 52660 c-102 -21 -176 -38 -166 -39 21 -1 389 68 395 75 10 10
-56 -1 -229 -36z"/>
<path d="M48200 52600 l0 -51 15 -29 15 -28 31 -22 31 -22 9 9 10 10 -23 19
c-13 11 -31 31 -41 46 l-17 27 0 30 c0 35 -9 61 -21 61 l-9 0 0 -50z"/>
<path d="M48161 52586 l-24 -25 -338 -171 -338 -171 5 -14 6 -15 337 171 336
172 23 22 24 22 -4 18 -3 17 -24 -26z"/>
<path d="M49603 52518 c-13 -6 -23 -15 -23 -20 l0 -9 30 16 c45 23 38 35 -7
13z"/>
<path d="M48398 52477 l-17 -13 8 -13 8 -13 21 11 21 11 -5 15 c-7 18 -14 18
-36 2z"/>
<path d="M73295 52300 c-99 -55 -184 -101 -190 -103 -5 -2 -8 -7 -5 -10 5 -5
370 190 386 206 l7 7 -9 0 c-5 -1 -90 -46 -189 -100z"/>
<path d="M48390 52258 c37 -73 170 -346 296 -606 126 -260 230 -469 232 -464
1 4 -127 275 -286 602 l-288 594 -10 3 -11 4 67 -133z"/>
<path d="M35580 52339 c0 -20 60 -421 65 -434 l3 -10 1 20 c1 26 -59 428 -65
434 -2 2 -4 -2 -4 -10z"/>
<path d="M52930 52307 c0 -16 49 -103 69 -121 l22 -20 147 -299 146 -299 4 10
3 10 -147 294 -146 293 -34 38 c-19 20 -34 43 -34 50 0 14 -29 57 -30 44z"/>
<path d="M30352 52180 l-253 -27 -7 -8 -7 -8 50 6 c28 4 145 16 260 28 198 20
224 24 214 32 -2 2 -118 -9 -257 -23z"/>
<path d="M51793 51791 c51 -104 94 -187 96 -185 6 6 -172 374 -180 374 -4 0
34 -85 84 -189z"/>
<path d="M13296 51922 l-5 -8 176 -123 175 -123 10 10 9 9 -174 121 c-96 67
-177 122 -180 122 -3 0 -8 -4 -11 -8z"/>
<path d="M72062 51763 c-106 -58 -190 -108 -188 -111 5 -4 372 192 391 209 l9
9 -9 -1 c-6 0 -97 -48 -203 -106z"/>
<path d="M90880 51810 l0 -10 14 0 c8 0 96 -39 196 -86 l182 -85 6 6 6 5 -10
9 c-5 5 -87 45 -183 90 l-174 81 -18 0 -19 0 0 -10z"/>
<path d="M18455 51778 c-2 -7 -11 -50 -20 -95 -9 -45 -31 -133 -49 -195 l-33
-113 -14 -3 -14 -2 -179 75 -179 76 -8 -8 -8 -8 192 -79 c106 -44 195 -84 198
-88 l6 -9 17 7 17 7 -5 13 -5 14 30 102 c17 57 41 151 54 211 l23 107 -9 0
c-5 0 -11 -6 -14 -12z"/>
<path d="M18505 51758 c-3 -13 -14 -66 -25 -118 -10 -52 -34 -146 -53 -208
l-35 -112 9 -6 9 -5 4 13 c35 104 77 262 90 333 10 50 19 98 22 108 l5 17 -10
0 -11 0 -5 -22z"/>
<path d="M64508 51754 l-7 -10 51 -204 c28 -113 53 -207 55 -209 16 -20 6 37
-40 220 l-53 213 -6 -10z"/>
<path d="M13686 51712 l-5 -9 173 -118 174 -117 11 7 12 7 -175 119 c-96 65
-177 119 -180 119 -3 0 -7 -4 -10 -8z"/>
<path d="M4172 51578 c8 -13 66 -101 128 -195 l112 -173 9 6 9 5 -38 58 c-20
32 -75 117 -122 189 l-85 132 -14 0 -13 0 14 -22z"/>
<path d="M2115 51388 c-110 -28 -202 -53 -204 -54 -2 -2 -2 -7 2 -10 l6 -7
213 53 c117 29 217 57 223 61 l9 9 -24 -1 c-14 0 -115 -24 -225 -51z"/>
<path d="M35733 51425 c3 -11 20 -119 38 -240 l32 -220 10 -10 9 -10 -5 20
c-3 11 -20 119 -38 240 l-32 220 -10 10 -9 10 5 -20z"/>
<path d="M90581 51191 c-55 -104 -101 -195 -101 -203 0 -7 48 76 106 185 58
109 104 201 101 203 -3 3 -50 -80 -106 -185z"/>
<path d="M34082 51353 c-7 -3 -19 -18 -28 -34 l-15 -30 7 -10 6 -11 15 31 15
30 19 6 c10 4 19 11 19 16 l0 9 -12 -1 c-7 0 -19 -3 -26 -6z"/>
<path d="M6053 51265 c3 -11 29 -103 57 -205 60 -219 59 -214 66 -208 7 7
-106 410 -118 423 l-10 10 5 -20z"/>
<path d="M87791 51123 c-28 -31 -51 -61 -51 -66 0 -5 -21 -57 -46 -116 -26
-58 -53 -121 -61 -140 l-14 -33 12 4 12 4 63 145 63 144 51 58 51 57 -14 0
-15 0 -51 -57z"/>
<path d="M42355 51110 c3 -5 12 -10 19 -10 35 0 179 -150 221 -230 l24 -45 1
13 c0 24 -33 77 -97 153 l-64 76 -48 27 c-27 14 -52 26 -55 26 l-7 0 6 -10z"/>
<path d="M27000 50941 l0 -9 63 -6 c108 -9 590 -27 595 -21 3 3 3 7 1 10 -3 2
-117 9 -254 14 -138 6 -285 13 -327 16 l-78 5 0 -9z"/>
<path d="M28485 50920 c3 -5 8 -10 11 -10 3 0 2 5 -1 10 -3 6 -8 10 -11 10 -3
0 -2 -4 1 -10z"/>
<path d="M26815 50744 c-4 -96 -5 -177 -2 -180 3 -3 8 57 11 133 4 76 8 157
10 181 l4 42 -8 0 -8 0 -7 -176z"/>
<path d="M6165 50770 l-6 -10 9 0 c5 0 58 -5 118 -11 l109 -11 100 -24 c55
-13 107 -24 114 -24 l15 0 -10 9 c-5 5 -58 20 -119 34 l-110 26 -97 10 c-119
13 -115 13 -123 1z"/>
<path d="M7300 50744 c-19 -2 -72 -9 -117 -15 l-83 -11 0 -10 0 -10 33 6 c17
4 94 11 171 17 l138 10 277 -35 c435 -56 766 -94 770 -90 12 12 -28 19 -236
45 -125 15 -332 41 -459 58 l-231 31 -114 4 c-63 2 -130 2 -149 0z"/>
<path d="M59527 50718 c-3 -13 -20 -87 -37 -165 l-31 -143 9 -50 9 -51 -16 8
c-9 4 -43 7 -75 8 l-59 0 -4 -12 -4 -12 48 5 48 6 38 -26 c21 -14 43 -26 49
-26 l10 0 -6 28 c-3 15 -9 52 -12 83 l-6 56 31 139 c18 76 34 147 37 157 l5
17 -14 0 -15 0 -5 -22z"/>
<path d="M8030 50720 c0 -5 5 -10 11 -10 7 0 108 -12 226 -26 l215 -25 6 5 c3
3 3 8 1 10 -3 4 -425 56 -450 56 -5 0 -9 -4 -9 -10z"/>
<path d="M90678 50608 c40 -67 217 -376 270 -473 30 -55 70 -124 88 -153 19
-29 47 -82 64 -118 l29 -66 11 7 10 6 -40 79 c-22 44 -55 103 -73 132 -19 29
-56 93 -82 142 -27 49 -56 97 -64 106 -9 8 -61 95 -116 193 -55 97 -104 177
-108 177 l-9 0 20 -32z"/>
<path d="M8960 50561 l0 -8 123 -43 122 -42 93 -48 93 -47 4 7 c7 11 -4 19
-95 61 -66 31 -321 129 -337 129 -2 0 -3 -4 -3 -9z"/>
<path d="M14025 50499 l70 -70 55 -31 c30 -17 74 -45 98 -61 24 -16 46 -27 48
-24 5 5 -110 83 -161 110 l-30 16 -65 65 c-35 36 -69 66 -74 66 l-10 0 69 -71z"/>
<path d="M8936 50511 l-5 -7 126 -44 c70 -24 163 -61 206 -82 l80 -39 11 4 11
4 -85 43 -85 43 -127 43 -128 43 -4 -8z"/>
<path d="M31463 50473 l-103 -4 0 -10 0 -11 154 7 153 8 6 -59 c4 -33 14 -162
23 -289 8 -126 17 -232 20 -234 6 -7 5 51 -6 199 -5 74 -12 191 -16 260 -3 69
-8 128 -11 133 l-4 7 -57 -2 c-31 -1 -103 -4 -159 -5z"/>
<path d="M42710 50420 l0 -31 -45 -172 -45 -172 11 -65 c14 -90 22 -90 14 0
l-7 75 40 160 c22 88 43 177 45 198 l6 37 -10 0 -9 0 0 -30z"/>
<path d="M48650 50349 l-73 -52 -86 -40 c-47 -21 -96 -43 -109 -48 l-23 -9 5
-9 6 -9 103 45 102 46 78 54 c42 30 77 59 77 64 0 14 -1 13 -80 -42z"/>
<path d="M33610 50387 c0 -20 61 -392 65 -396 3 -2 5 2 5 10 -1 30 -59 381
-64 387 l-6 5 0 -6z"/>
<path d="M33575 50355 c2 -16 16 -109 31 -205 15 -96 29 -169 32 -162 5 16
-47 352 -59 377 l-9 20 5 -30z"/>
<path d="M26260 50260 c52 -4 154 -10 225 -13 l130 -6 -20 8 -20 8 -205 6
-205 5 95 -8z"/>
<path d="M69449 50269 c-4 -14 -65 -845 -62 -848 2 -2 5 -2 7 0 5 6 65 843 60
848 -2 2 -5 2 -5 0z"/>
<path d="M15722 50158 c-21 -29 -60 -84 -87 -123 -27 -38 -71 -96 -97 -128
-46 -56 -57 -78 -40 -76 12 1 220 278 276 367 l7 12 -10 0 c-6 0 -28 -24 -49
-52z"/>
<path d="M59204 50176 l-6 -17 4 -84 4 -84 29 -41 28 -40 5 -75 5 -75 -24
-145 -23 -144 7 -7 c12 -12 15 -2 37 126 l22 125 1 93 2 92 15 -6 c8 -4 30 -9
48 -12 l33 -4 45 12 45 13 -4 11 -4 11 -12 -3 c-7 -1 -32 -8 -56 -14 l-43 -12
-41 18 -40 19 -27 39 -27 39 -2 84 -1 84 -7 7 -7 7 -6 -17z"/>
<path d="M59550 50133 l0 -58 -25 -60 c-29 -71 -28 -65 -11 -65 l15 0 20 55
21 56 0 39 c0 22 2 40 5 40 3 0 29 -13 58 -29 l52 -29 140 -32 c77 -17 148
-34 158 -36 l17 -5 0 13 0 14 -127 28 c-163 37 -208 52 -258 86 -22 14 -46 30
-52 34 l-13 7 0 -58z"/>
<path d="M50477 50109 l13 -13 5 6 6 6 -18 6 -18 7 12 -12z"/>
<path d="M38296 49953 c-18 -62 -95 -397 -92 -401 6 -5 14 25 66 242 22 93 38
171 36 173 -2 3 -7 -4 -10 -14z"/>
<path d="M34251 49933 c1 -10 4 -29 8 -43 l7 -25 7 12 7 11 -6 31 -6 31 -9 0
-9 0 1 -17z"/>
<path d="M33670 49879 c0 -17 38 -321 46 -368 3 -18 7 -31 10 -28 6 5 -43 398
-51 405 -3 3 -5 -1 -5 -9z"/>
<path d="M31315 49848 c-209 -11 -382 -22 -384 -24 -2 -2 -2 -7 2 -10 l6 -6
348 16 c191 9 372 19 401 22 l52 5 0 10 0 9 -22 -1 c-13 -1 -194 -11 -403 -21z"/>
<path d="M42660 49790 c0 -17 241 -482 247 -476 4 4 -56 123 -214 425 -18 35
-33 58 -33 51z"/>
<path d="M22332 49233 c-6 -296 -19 -760 -28 -1031 l-17 -493 7 -6 c3 -4 8 -4
10 -2 8 9 55 1639 56 1922 l0 147 -8 0 -8 0 -12 -537z"/>
<path d="M49560 49736 l-45 -24 -115 -27 c-109 -26 -140 -38 -128 -50 3 -3 62
8 132 25 l126 30 50 25 50 25 0 10 0 10 -12 0 c-7 -1 -33 -12 -58 -24z"/>
<path d="M24101 49696 c2 -2 103 -6 224 -9 l220 -5 -40 8 -40 9 -184 0 c-101
1 -182 -1 -180 -3z"/>
<path d="M84590 49585 c0 -11 480 -640 507 -665 l16 -15 -8 15 c-8 14 -488
644 -506 665 l-9 9 0 -9z"/>
<path d="M38151 49524 c-58 -218 -90 -349 -86 -352 6 -6 8 -2 60 202 25 98 44
180 41 183 -2 3 -9 -12 -15 -33z"/>
<path d="M59367 49503 c-2 -5 -21 -105 -41 -223 l-37 -215 -40 -126 -39 -127
-68 -138 c-37 -77 -91 -182 -120 -234 l-53 -95 -162 -212 c-89 -116 -389 -503
-666 -861 l-503 -650 -29 -52 -29 -53 6 -24 6 -24 11 4 10 3 1 25 1 25 27 44
c15 25 241 322 504 660 553 714 822 1069 877 1159 22 36 75 137 119 225 l80
161 44 130 43 130 41 220 c22 121 42 228 44 238 l4 17 -13 0 c-8 0 -16 -3 -18
-7z"/>
<path d="M43680 49256 c0 -12 168 -356 174 -356 8 0 -15 52 -94 211 -70 141
-80 159 -80 145z"/>
<path d="M43641 49233 c0 -14 178 -358 178 -348 1 6 -37 88 -84 183 -75 153
-96 190 -94 165z"/>
<path d="M14490 49145 c0 -3 16 -29 35 -58 l35 -52 6 -45 5 -45 -29 -125 c-17
-69 -34 -147 -37 -174 l-8 -49 -39 -68 -39 -67 -32 -25 c-40 -30 -109 -66
-162 -84 l-40 -13 37 5 c51 8 125 42 172 79 l38 31 40 68 40 68 8 57 c4 31 20
107 34 169 l26 112 0 49 0 50 -41 61 c-37 56 -49 69 -49 56z"/>
<path d="M50332 49107 l-12 -14 126 -174 c69 -96 129 -178 134 -183 l8 -8 16
9 16 9 -126 174 c-69 96 -131 181 -138 188 l-13 13 -11 -14z"/>
<path d="M56196 48875 c130 -250 139 -265 147 -265 l9 0 -35 63 c-19 34 -64
118 -100 187 -36 69 -73 134 -82 145 -9 11 19 -47 61 -130z"/>
<path d="M64720 48963 c0 -10 -9 -31 -20 -48 -11 -16 -20 -34 -20 -40 l1 -10
24 28 25 28 0 30 c0 16 -2 29 -5 29 -3 0 -5 -8 -5 -17z"/>
<path d="M75926 48952 l-5 -9 29 -40 29 -39 27 -13 c15 -6 29 -10 31 -7 8 8
-7 26 -22 26 l-14 0 -35 45 -34 46 -6 -9z"/>
<path d="M81286 48918 c12 -40 28 -40 17 0 l-5 22 -10 0 -9 0 7 -22z"/>
<path d="M76415 48855 c-33 -7 -132 -21 -220 -30 -88 -9 -162 -19 -164 -21 -2
-2 -2 -7 2 -10 l6 -6 183 21 c101 11 204 26 231 32 l47 11 0 9 0 9 -12 -1 c-7
-1 -40 -7 -73 -14z"/>
<path d="M91439 48708 c-68 -78 -153 -178 -188 -223 -35 -44 -124 -141 -198
-216 -73 -75 -133 -141 -133 -145 0 -5 54 45 121 111 l121 120 81 100 c73 91
242 288 305 357 14 15 23 30 20 33 -2 3 -61 -59 -129 -137z"/>
<path d="M22248 48218 c-8 -282 -14 -515 -12 -517 2 -2 7 -2 10 2 l6 6 14 403
c7 222 13 451 14 511 l0 107 -8 0 -8 0 -16 -512z"/>
<path d="M36079 48725 c-3 -2 -102 -9 -220 -15 -117 -6 -225 -14 -238 -16 -61
-13 5 -12 226 1 l240 15 24 9 24 10 -26 0 c-14 1 -28 -1 -30 -4z"/>
<path d="M43242 48672 l-13 -9 30 0 30 0 -5 9 c-7 10 -25 10 -42 0z"/>
<path d="M33905 48605 c-225 -13 -426 -25 -445 -27 l-35 -5 45 -1 c69 -2 941
46 948 52 l5 6 -54 -1 c-30 -1 -238 -12 -464 -24z"/>
<path d="M34822 48615 l-223 -13 -7 -7 -7 -8 90 6 c50 4 156 9 238 13 l147 7
0 8 c0 5 -3 8 -7 8 -5 -1 -108 -7 -231 -14z"/>
<path d="M66378 48575 l4 -25 -16 -25 -16 -25 8 0 c4 0 13 5 20 12 l12 12 0
38 0 38 -9 0 -8 0 5 -25z"/>
<path d="M33595 48549 c-71 -5 -139 -10 -150 -13 -29 -6 264 5 360 14 l80 7
-80 0 c-44 0 -138 -4 -210 -8z"/>
<path d="M44043 48490 c36 -85 158 -329 167 -335 11 -7 -156 345 -171 360
l-11 10 15 -35z"/>
<path d="M44001 48503 c-1 -14 170 -365 176 -360 2 2 -37 87 -86 188 -49 101
-90 179 -90 172z"/>
<path d="M44537 48296 c-35 -30 -99 -92 -140 -137 l-76 -82 6 -10 6 -10 91 94
c50 52 116 115 146 140 l54 46 -11 6 -12 7 -64 -54z"/>
<path d="M31172 48159 c-85 -4 -156 -10 -160 -14 l-6 -6 184 7 185 7 20 8 20
8 -45 -1 c-25 -1 -114 -4 -198 -9z"/>
<path d="M33921 48114 c-1 -11 19 -162 44 -335 44 -306 78 -489 97 -519 l9
-15 -5 20 c-2 11 -13 61 -25 110 l-21 90 -45 325 c-25 179 -48 330 -50 335
l-3 10 -1 -21z"/>
<path d="M33963 48090 c3 -25 16 -123 29 -217 l23 -173 7 0 8 0 -5 23 c-2 12
-16 107 -30 212 -15 104 -29 192 -32 195 l-6 5 6 -45z"/>
<path d="M29427 47920 c3 -96 9 -197 14 -225 l7 -50 -5 175 c-3 96 -9 198 -14
225 l-7 50 5 -175z"/>
<path d="M36413 48067 l-163 -9 0 -9 0 -8 33 4 c17 3 122 10 232 16 110 6 202
13 204 15 6 6 -119 2 -306 -9z"/>
<path d="M36478 48032 l-228 -15 0 -9 0 -8 23 4 c12 3 118 10 235 17 l212 12
0 9 c0 4 -3 7 -7 7 -5 -1 -110 -9 -235 -17z"/>
<path d="M69172 47918 l4 -12 471 -96 471 -95 8 8 c4 4 5 9 2 12 -4 4 -939
195 -955 195 -3 0 -3 -5 -1 -12z"/>
<path d="M80050 47794 c-80 -69 -149 -129 -153 -134 l-9 -8 11 -6 10 -6 150
130 c136 117 167 150 144 150 -5 0 -73 -57 -153 -126z"/>
<path d="M69661 47873 l0 -28 9 20 c12 27 12 35 0 35 l-10 0 1 -27z"/>
<path d="M72721 47725 c-7 -33 -26 -120 -42 -194 -16 -74 -27 -137 -24 -139 7
-7 11 9 50 196 l37 172 -5 13 -4 12 -12 -60z"/>
<path d="M76040 47756 l0 -26 10 0 10 0 0 19 0 20 -10 6 -10 6 0 -25z"/>
<path d="M22230 47525 l0 -75 10 0 10 0 0 75 0 75 -10 0 -10 0 0 -75z"/>
<path d="M42521 47526 l-195 -42 -4 -12 -4 -12 14 1 c7 0 100 19 207 42 l194
42 5 13 4 12 -14 -1 c-7 0 -100 -20 -207 -43z"/>
<path d="M90161 47290 c-78 -88 -145 -168 -148 -178 -4 -9 62 61 146 156 84
95 151 175 149 178 -3 2 -69 -68 -147 -156z"/>
<path d="M45346 47328 c-3 -62 -8 -178 -10 -258 l-5 -145 8 25 8 25 7 233 c7
240 2 317 -8 120z"/>
<path d="M42598 47414 l-8 -7 1 -206 2 -206 9 175 c4 96 7 192 6 213 l-3 39
-7 -8z"/>
<path d="M41707 47354 l-7 -7 15 -17 15 -17 12 -51 13 -52 9 0 9 0 -5 51 -5
51 -25 24 -24 25 -7 -7z"/>
<path d="M72637 47326 c-4 -10 -7 -25 -6 -34 l0 -17 10 24 c5 13 8 29 6 35
l-3 10 -7 -18z"/>
<path d="M35855 47298 c2 -18 12 -176 21 -350 l18 -318 8 0 8 0 -5 28 c-2 15
-9 144 -15 287 -6 143 -13 288 -16 323 l-6 62 -9 0 -8 0 4 -32z"/>
<path d="M92747 47313 l-6 -9 139 -193 138 -192 8 3 c5 2 8 6 7 9 -2 7 -261
369 -273 382 l-8 9 -5 -9z"/>
<path d="M51130 47143 c27 -57 52 -103 54 -103 8 0 -65 155 -85 180 l-20 25
51 -102z"/>
<path d="M18371 47193 c0 -5 40 -87 89 -183 134 -265 345 -690 411 -829 33
-68 62 -122 64 -119 6 6 -361 766 -381 789 -7 8 -50 90 -94 182 -72 149 -92
184 -89 160z"/>
<path d="M17620 47153 c0 -5 14 -42 31 -84 l30 -77 25 -23 24 -22 65 12 66 12
54 24 c30 13 55 26 55 30 0 3 -17 -2 -37 -11 -40 -17 -105 -37 -161 -47 l-32
-7 -29 28 -29 27 -28 73 c-25 67 -34 83 -34 65z"/>
<path d="M41574 47093 c17 -61 26 -108 32 -180 l7 -83 13 0 c8 0 14 3 14 8 0
26 -22 185 -31 225 l-11 47 -15 0 -14 0 5 -17z"/>
<path d="M37117 46876 l6 -139 8 -26 8 -26 -6 100 c-3 55 -9 129 -14 165 l-8
65 6 -139z"/>
<path d="M45735 46930 c-88 -26 -193 -57 -233 -69 -41 -13 -72 -24 -69 -27 6
-6 459 126 472 137 l9 9 -9 -1 c-6 0 -82 -22 -170 -49z"/>
<path d="M34750 46750 l0 -180 10 0 10 0 0 180 0 180 -10 0 -10 0 0 -180z"/>
<path d="M39262 46869 l3 -22 12 -4 11 -4 -5 21 c-3 11 -10 23 -15 26 l-10 6
4 -23z"/>
<path d="M39662 46795 c-1 -38 3 -123 8 -187 l9 -117 11 -18 11 -18 -6 30 c-3
17 -10 100 -15 185 -12 185 -17 219 -18 125z"/>
<path d="M21680 46776 c-80 -29 -160 -60 -179 -70 -35 -19 -454 -200 -853
-369 l-218 -92 0 -14 0 -13 13 5 c13 5 310 130 757 319 157 66 307 131 333
145 26 13 100 42 165 65 122 42 137 50 131 66 l-4 10 -145 -52z"/>
<path d="M20590 46738 l0 -23 -24 -50 -24 -50 -43 -42 -44 -42 -96 -45 c-53
-24 -155 -65 -225 -91 -130 -46 -287 -115 -280 -122 2 -2 39 12 82 31 44 18
140 56 214 82 74 26 175 67 223 91 48 24 91 43 95 43 4 0 26 19 49 43 l41 42
17 40 c9 22 20 57 24 77 l9 38 -9 0 -9 0 0 -22z"/>
<path d="M57355 46613 c-16 -8 -40 -28 -53 -44 l-23 -29 -6 -36 -6 -37 14 5
13 4 8 31 8 31 34 30 c19 16 40 32 48 35 l13 5 -10 10 -10 10 -30 -15z"/>
<path d="M57460 46622 c0 -5 18 -17 41 -27 l41 -19 16 -24 15 -24 9 16 9 16
-6 10 c-4 6 -24 22 -46 35 l-39 25 -20 0 -20 0 0 -8z"/>
<path d="M36497 46586 l-8 -28 6 -6 5 -5 6 5 c3 4 4 19 2 35 l-3 28 -8 -29z"/>
<path d="M34535 46539 c-71 -3 -160 -7 -197 -8 l-67 -1 6 -15 5 -16 42 5 c22
3 121 8 219 12 l177 6 0 14 0 14 -27 -2 c-16 -1 -86 -5 -158 -9z"/>
<path d="M51473 46522 l-12 -8 7 -10 7 -11 37 5 37 4 -6 14 -5 14 -27 0 c-14
0 -31 -4 -38 -8z"/>
<path d="M25783 46430 c0 -52 3 -126 7 -165 l7 -70 0 80 c1 44 -2 118 -6 165
l-8 85 0 -95z"/>
<path d="M34693 46378 c3 -24 11 -105 18 -180 l13 -138 8 0 8 0 0 33 c0 17 -7
95 -15 172 -8 77 -15 143 -15 148 0 4 -5 7 -11 7 l-12 0 6 -42z"/>
<path d="M54586 46314 c-103 -52 -186 -97 -183 -100 5 -6 387 183 387 191 0
10 -20 1 -204 -91z"/>
<path d="M30403 46383 l-103 -4 0 -15 0 -16 108 6 c59 4 151 9 205 12 l97 6 0
9 0 9 -102 -2 c-57 -1 -149 -4 -205 -5z"/>
<path d="M80764 46353 c3 -10 30 -117 62 -238 31 -121 60 -224 65 -229 l9 -10
0 15 c0 11 -68 283 -111 442 l-10 37 -10 0 -10 0 5 -17z"/>
<path d="M30768 46283 l-58 -4 0 -11 0 -11 173 6 c94 4 198 7 230 7 l57 0 0
10 0 10 -172 -2 c-95 -1 -199 -3 -230 -5z"/>
<path d="M81590 46119 c-191 -153 -206 -166 -198 -174 2 -3 85 58 184 136 212
167 197 155 193 167 l-4 10 -175 -139z"/>
<path d="M19843 46238 c25 -63 92 -199 94 -191 4 11 -84 203 -93 203 l-6 0 5
-12z"/>
<path d="M28423 46176 l-162 -12 -7 -7 -7 -7 6 -6 6 -6 168 11 c92 6 201 14
241 17 l72 6 0 9 0 9 -77 -1 c-43 -1 -151 -7 -240 -13z"/>
<path d="M93091 46095 l15 -15 75 -13 76 -14 24 -16 23 -17 51 0 50 0 63 32
c34 18 62 35 62 39 0 4 -26 -6 -58 -22 l-58 -30 -40 -6 -41 -5 -43 22 -43 22
-66 9 -66 10 -9 9 c-6 6 -15 10 -20 10 l-10 0 15 -15z"/>
<path d="M93060 46071 c0 -4 16 -15 35 -24 l36 -17 32 0 32 0 53 -25 54 -25
54 0 54 0 71 36 c39 19 69 38 66 40 -3 3 -33 -9 -67 -26 l-62 -31 -47 -6 -47
-5 -52 26 -51 26 -38 0 -38 0 -42 20 -43 19 0 -8z"/>
<path d="M81344 45948 l-7 -11 11 7 c7 4 12 9 12 12 0 8 -9 4 -16 -8z"/>
<path d="M81285 45869 l-70 -62 -29 -45 -28 -45 -3 -23 -2 -23 7 4 7 4 12 -65
13 -64 10 -6 9 -6 6 6 7 6 -23 80 -23 79 25 43 25 43 71 59 70 60 -5 8 c-7 11
-3 14 -79 -53z"/>
<path d="M81299 45790 l-22 -72 -14 -14 -14 -14 -25 0 -24 0 0 -10 c0 -13 10
-13 47 1 l31 10 15 42 c27 75 39 118 34 123 -3 3 -15 -27 -28 -66z"/>
<path d="M51890 45799 l0 -10 10 6 c6 3 10 8 10 11 0 2 -4 4 -10 4 -5 0 -10
-5 -10 -11z"/>
<path d="M81251 45625 c0 -22 -3 -53 -6 -70 l-6 -30 16 35 16 34 -10 36 -9 35
-1 -40z"/>
<path d="M34750 45498 c-1 -84 -5 -211 -10 -283 -5 -71 -12 -181 -16 -242 l-7
-113 10 0 9 0 14 178 c17 232 26 438 22 535 l-3 77 -9 0 -10 0 0 -152z"/>
<path d="M52388 45630 c6 -14 40 -88 77 -165 37 -77 78 -164 91 -194 13 -30
27 -52 29 -49 6 6 -180 407 -196 423 l-10 10 9 -25z"/>
<path d="M49520 45520 c0 -6 11 -22 25 -35 25 -26 45 -32 45 -16 0 5 -9 12
-19 16 l-19 6 -5 19 -5 20 -11 0 c-6 0 -11 -5 -11 -10z"/>
<path d="M49590 45447 c0 -4 9 -25 19 -45 18 -35 25 -63 22 -87 l-1 -11 -110
-54 c-60 -30 -108 -56 -106 -58 3 -3 224 104 235 114 2 2 1 18 -3 36 l-6 33
-25 40 c-13 22 -25 36 -25 32z"/>
<path d="M81020 45373 c0 -27 116 -448 187 -675 l76 -248 13 0 13 0 -13 43
c-7 23 -40 130 -74 237 -33 107 -88 294 -122 415 -34 121 -66 224 -71 230 l-9
9 0 -11z"/>
<path d="M4560 45263 c0 -5 59 -63 130 -129 l131 -119 68 -26 67 -25 140 -28
c76 -15 222 -47 324 -71 228 -54 274 -62 375 -69 l80 -6 -15 10 -15 10 -53 0
-53 0 -102 21 c-56 11 -163 36 -237 54 -74 18 -198 45 -275 60 l-140 26 -75
26 -75 27 -47 40 c-26 23 -88 79 -137 125 -50 46 -91 79 -91 74z"/>
<path d="M52621 45233 c12 -37 204 -432 207 -425 3 10 -185 411 -201 427 l-9
10 3 -12z"/>
<path d="M30745 44881 c3 -68 5 -155 5 -193 l0 -68 8 0 8 0 -4 128 c-2 70 -8
156 -12 192 l-9 65 4 -124z"/>
<path d="M16893 44912 l-71 -25 5 -13 5 -12 55 19 c31 10 60 19 65 19 l8 0 0
-20 c0 -23 28 -70 41 -70 l8 0 -24 47 -25 47 12 7 13 8 -10 10 -10 9 -72 -26z"/>
<path d="M81347 44919 l7 -23 4 13 4 13 -10 10 -11 11 6 -24z"/>
<path d="M5413 44914 c3 -3 59 -19 124 -34 l119 -29 103 -11 c57 -6 105 -9
108 -7 6 7 -39 15 -127 22 l-75 7 -117 29 c-64 16 -122 29 -129 29 l-12 0 6
-6z"/>
<path d="M81360 44880 l0 -13 7 6 6 7 -6 7 -7 6 0 -13z"/>
<path d="M34680 44830 c-19 -11 -45 -19 -57 -20 l-23 0 0 -15 0 -15 18 0 c10
0 42 11 70 25 l52 25 0 10 0 10 -12 0 c-7 -1 -29 -9 -48 -20z"/>
<path d="M81370 44840 l0 -13 7 6 6 7 -6 7 -7 6 0 -13z"/>
<path d="M34713 44623 l4 -188 17 -87 16 -87 69 -198 c38 -109 68 -199 67
-200 -1 -2 -30 38 -65 88 l-63 90 -31 20 -32 19 -3 -10 -4 -10 32 -26 c17 -15
49 -54 72 -88 22 -33 64 -86 93 -116 l53 -55 112 -195 c220 -382 718 -1185
800 -1290 37 -47 129 -223 179 -342 l41 -96 35 -129 36 -128 25 -155 26 -155
-5 -205 -5 -205 -27 -125 c-14 -69 -40 -174 -57 -235 l-30 -110 -92 -195 -91
-195 -347 -435 -348 -435 11 -4 c6 -1 12 -1 13 0 2 2 156 195 342 429 l340
425 93 194 93 193 24 85 c38 129 74 296 90 413 l14 105 0 153 0 154 -30 181
-30 182 -30 110 c-51 180 -159 412 -256 550 -191 273 -819 1305 -934 1535
l-37 75 -66 190 -66 190 -16 97 -15 98 0 155 0 155 -11 0 -11 0 5 -187z"/>
<path d="M52851 44653 c107 -225 149 -308 146 -292 -3 25 -191 419 -199 419
-4 0 20 -57 53 -127z"/>
<path d="M34395 44729 c-60 -5 -158 -11 -217 -15 l-108 -6 0 -10 0 -10 103 6
c56 3 177 11 270 18 l167 11 0 8 0 9 -52 -1 c-29 -1 -102 -6 -163 -10z"/>
<path d="M55853 44607 c-57 -28 -103 -55 -103 -59 l0 -8 100 50 c55 27 105 50
113 50 l12 0 58 -116 c32 -64 60 -114 63 -111 3 3 -22 59 -55 126 l-61 121
-13 -1 c-6 0 -58 -23 -114 -52z"/>
<path d="M55695 44483 c-160 -80 -316 -165 -311 -170 4 -4 368 179 385 193 2
2 2 6 0 8 -2 2 -35 -12 -74 -31z"/>
<path d="M79008 44257 c-97 -148 -138 -217 -138 -232 0 -3 4 -5 10 -5 l10 0
21 42 c12 24 66 109 120 190 93 139 109 168 92 168 -5 0 -56 -73 -115 -163z"/>
<path d="M26540 44346 c0 -5 363 -182 392 -191 l23 -7 -10 10 c-9 9 -391 192
-401 192 -2 0 -4 -2 -4 -4z"/>
<path d="M41602 44248 c-7 -7 -12 -16 -12 -22 l0 -10 12 12 c7 7 20 12 31 12
l18 0 -6 10 c-8 14 -28 13 -43 -2z"/>
<path d="M34740 44198 c0 -7 -14 -27 -32 -45 l-32 -33 8 -7 8 -8 34 37 34 38
0 15 0 15 -10 0 -10 0 0 -12z"/>
<path d="M55586 43902 l-5 -8 57 -2 c31 -1 122 -8 202 -16 79 -9 146 -13 148
-11 8 7 -40 14 -208 30 -193 18 -187 17 -194 7z"/>
<path d="M87885 43818 c25 -40 78 -126 118 -190 40 -65 76 -118 80 -118 l8 0
-7 13 c-54 94 -228 367 -235 367 l-9 0 45 -72z"/>
<path d="M77525 43305 l-220 -32 16 -7 16 -7 189 26 c104 14 204 28 222 31
l32 6 0 9 0 9 -17 -1 c-10 -1 -117 -16 -238 -34z"/>
<path d="M52432 43247 c-7 -8 -86 -49 -177 -92 -91 -43 -165 -82 -165 -86 0
-9 336 153 353 170 l11 11 -6 5 -5 5 -11 -13z"/>
<path d="M52476 43243 l-6 -19 -28 -21 c-15 -11 -91 -50 -170 -87 l-142 -67
-9 5 -9 6 -6 -15 -5 -15 9 0 10 0 179 -357 c98 -197 198 -405 221 -463 l43
-105 70 -122 c39 -68 73 -121 75 -118 2 2 -25 55 -60 117 -35 62 -81 151 -100
198 -20 47 -122 258 -227 470 l-191 385 142 67 c79 37 154 74 168 82 l25 14
13 27 c8 14 12 29 9 32 -3 2 -8 -4 -11 -14z"/>
<path d="M11187 43173 c-2 -5 -7 -21 -11 -38 l-7 -30 10 10 c11 11 26 65 18
65 -3 0 -8 -3 -10 -7z"/>
<path d="M50260 43123 l-195 -55 -10 -10 -10 -11 16 6 c9 3 102 29 205 58 104
29 191 54 193 56 18 14 -30 3 -199 -44z"/>
<path d="M34240 43135 c-25 -19 -69 -46 -98 -60 l-52 -26 -90 -21 -90 -21 0
-7 0 -7 58 14 c31 7 84 21 117 30 l59 17 72 47 c39 26 75 52 78 58 l7 11 -8
-1 c-4 0 -28 -16 -53 -34z"/>
<path d="M47810 43114 c0 -5 7 -45 16 -89 l17 -80 7 -140 7 -140 1 116 2 116
-19 107 c-11 60 -22 111 -25 114 l-6 5 0 -9z"/>
<path d="M32139 43003 c-30 -32 -92 -105 -139 -163 -46 -58 -90 -112 -97 -122
l-14 -16 9 -6 8 -5 100 122 c54 67 123 147 152 178 28 31 52 59 52 62 0 18
-21 2 -71 -50z"/>
<path d="M49550 43036 l0 -23 -23 -34 -23 -34 -47 -25 c-25 -14 -55 -35 -66
-47 l-20 -21 -65 -154 -65 -153 10 -9 9 -10 10 10 c5 5 36 74 70 154 33 79 67
152 76 161 8 9 35 27 61 40 l47 24 28 44 28 45 0 28 0 28 -15 0 -15 0 0 -24z"/>
<path d="M8554 42973 c3 -16 8 -102 12 -193 4 -91 10 -185 15 -210 l8 -45 -4
90 c-2 50 -7 156 -11 238 l-7 147 -9 0 -10 0 6 -27z"/>
<path d="M6170 42956 c-25 -7 -68 -25 -95 -42 l-50 -29 -53 -57 -53 -56 11 -7
12 -7 62 60 61 61 70 33 70 33 83 -1 82 0 0 13 0 13 -77 -1 -78 0 -45 -13z"/>
<path d="M74570 42670 l24 -200 8 0 8 0 -4 23 c-3 12 -15 102 -27 200 -12 97
-25 177 -28 177 l-6 0 25 -200z"/>
<path d="M31771 42498 l-164 -168 7 -7 7 -7 120 119 c134 133 202 211 197 223
l-3 8 -164 -168z"/>
<path d="M52281 42629 c-1 -4 41 -94 93 -200 52 -107 95 -189 95 -184 0 11
-187 393 -188 384z"/>
<path d="M91433 42461 c-111 -58 -205 -110 -210 -115 -7 -8 404 200 416 210 2
2 2 5 0 7 -2 2 -95 -44 -206 -102z"/>
<path d="M55934 42513 c3 -21 9 -111 12 -200 l7 -163 8 0 9 0 0 118 0 117 -12
83 -11 82 -10 0 -9 0 6 -37z"/>
<path d="M46230 42381 c-163 -86 -325 -173 -362 -193 l-66 -38 6 -47 c6 -64
12 -67 12 -7 l1 49 82 47 c45 25 204 110 352 188 149 78 274 146 280 151 l9 9
-9 -1 c-6 -1 -143 -72 -305 -158z"/>
<path d="M70702 42369 c-200 -26 -232 -32 -221 -44 6 -5 437 50 445 57 l5 6
-8 4 c-4 3 -104 -8 -221 -23z"/>
<path d="M31042 41812 l-169 -237 -54 -50 c-30 -28 -89 -77 -131 -109 -69 -52
-92 -76 -72 -76 11 0 210 159 245 197 20 21 111 142 202 270 l166 232 -8 6 -9
5 -170 -238z"/>
<path d="M39554 42033 c3 -10 8 -36 12 -57 9 -54 38 -101 98 -165 48 -50 123
-107 131 -99 2 2 -31 33 -74 70 l-78 65 -30 55 -31 55 -7 46 -7 47 -10 0 -9 0
5 -17z"/>
<path d="M46585 41874 l-190 -83 -217 -78 c-120 -42 -218 -80 -218 -84 0 -18
808 296 838 326 17 17 -45 -7 -213 -81z"/>
<path d="M66680 41910 c-19 -19 -27 -40 -15 -40 3 0 14 9 25 20 l20 20 25 0
26 0 24 -25 25 -24 0 -16 c0 -9 -7 -26 -16 -39 l-15 -24 8 -5 9 -6 45 10 c24
5 63 17 87 26 l42 16 0 8 c0 13 -9 11 -68 -11 -29 -11 -59 -20 -68 -20 l-15 0
6 9 5 10 -6 39 -6 39 -28 16 -28 17 -31 0 -31 0 -20 -20z"/>
<path d="M52681 41830 l-1 -15 -156 -80 c-86 -44 -158 -84 -161 -88 -4 -7 315
149 325 158 2 2 2 12 -1 22 l-5 18 -1 -15z"/>
<path d="M82726 41652 l-5 -9 105 -169 c58 -93 112 -180 121 -193 l15 -23 9 9
10 10 -116 186 c-64 103 -120 189 -125 192 l-9 5 -5 -8z"/>
<path d="M30311 41633 c6 -18 251 -285 256 -279 5 4 -159 189 -235 266 l-24
25 3 -12z"/>
<path d="M30957 41601 c-10 -17 -40 -54 -66 -83 l-49 -53 -101 -75 c-93 -70
-114 -90 -93 -90 13 0 191 136 240 183 39 38 102 124 102 140 0 16 -17 5 -33
-22z"/>
<path d="M52285 41568 l-80 -41 -50 -9 -50 -8 -60 10 c-33 6 -71 13 -85 16
l-25 5 10 -9 c12 -11 138 -32 191 -32 l38 0 90 46 c80 41 120 65 106 64 -3 -1
-41 -20 -85 -42z"/>
<path d="M28960 41150 c0 -10 36 -20 75 -20 36 0 155 -31 207 -53 l37 -15 139
-105 139 -105 59 -30 59 -29 48 -7 48 -7 29 6 c17 4 30 10 30 13 l0 7 -75 2
-76 2 -57 32 c-31 18 -118 79 -193 135 l-137 103 -38 16 c-56 24 -170 52 -236
58 l-58 6 0 -9z"/>
<path d="M63230 41047 l0 -13 143 -59 c78 -32 175 -71 215 -86 l72 -27 0 13 0
12 -82 30 c-46 17 -143 56 -215 86 l-133 56 0 -12z"/>
<path d="M29421 41033 c1 -14 112 -99 188 -144 l75 -44 68 -3 68 -4 0 9 0 10
-66 6 -66 6 -64 36 c-35 20 -91 58 -125 85 -60 48 -80 59 -78 43z"/>
<path d="M57651 40886 c2 -2 93 -7 202 -11 l197 -7 0 11 0 11 -202 0 c-111 0
-199 -2 -197 -4z"/>
<path d="M47858 40603 c-56 -76 -110 -152 -120 -169 l-19 -32 16 -5 15 -6 11
22 c7 12 58 86 115 163 100 136 116 164 94 164 l-10 0 -102 -137z"/>
<path d="M60000 40582 c0 -5 17 -16 38 -26 l37 -18 418 -62 417 -62 0 8 c0 4
-6 8 -13 8 -8 0 -195 27 -417 60 l-402 59 -35 21 c-38 22 -43 24 -43 12z"/>
<path d="M49196 40433 c-3 -16 -11 -59 -17 -98 -6 -38 -18 -95 -26 -125 l-15
-55 -40 -58 -40 -58 7 -7 7 -7 24 30 c13 17 36 53 49 80 l25 51 19 99 c10 55
22 117 25 138 l7 37 -10 0 -9 0 -6 -27z"/>
<path d="M47760 40373 c0 -5 -17 -26 -37 -48 l-37 -40 -122 -250 -121 -250 11
-7 11 -7 6 7 c3 4 57 113 119 242 l113 235 38 41 c20 23 42 51 48 63 l12 21
-21 0 -20 0 0 -7z"/>
<path d="M45736 40289 c11 -19 60 -103 110 -186 49 -84 92 -153 96 -153 4 0
-13 35 -38 78 -25 42 -73 123 -106 179 -33 57 -65 106 -71 110 l-11 7 20 -35z"/>
<path d="M66020 40172 l0 -9 40 -7 c22 -3 128 -38 236 -76 174 -62 222 -75
202 -54 -12 11 -394 142 -435 149 l-43 7 0 -10z"/>
<path d="M65955 40030 l-5 -8 32 -20 c41 -24 178 -72 209 -72 l22 0 -6 6 c-3
3 -45 19 -94 36 -48 16 -102 38 -120 48 l-32 19 -6 -9z"/>
<path d="M84780 39956 c0 -4 39 -65 87 -134 47 -70 165 -257 261 -417 191
-317 180 -300 186 -294 11 10 -472 784 -525 844 l-9 9 0 -8z"/>
<path d="M84356 39670 c-76 -48 -143 -94 -150 -100 l-11 -12 22 11 c19 10 271
169 282 178 2 1 2 5 0 7 -2 3 -66 -35 -143 -84z"/>
<path d="M45411 39660 c0 -8 4 -22 9 -30 l10 -15 -1 10 c0 6 -4 19 -9 30 l-9
20 0 -15z"/>
<path d="M47261 39496 l-81 -154 0 -31 0 -31 15 0 15 0 0 27 0 26 79 153 80
152 -6 6 c-15 14 -25 -2 -102 -148z"/>
<path d="M58120 39330 l0 -220 10 0 10 0 0 220 0 220 -10 0 -10 0 0 -220z"/>
<path d="M2930 39453 c0 -5 9 -23 21 -42 l20 -33 6 5 5 6 -22 35 c-21 35 -30
43 -30 29z"/>
<path d="M47190 39116 c0 -4 9 -18 19 -30 11 -11 55 -61 99 -111 43 -49 87
-97 97 -105 l19 -15 -14 21 c-13 18 -54 65 -187 213 -18 20 -33 32 -33 27z"/>
<path d="M41767 39068 l-67 -41 -166 -13 -166 -13 -125 -36 -126 -36 -28 6
-29 7 -52 43 c-67 55 -77 49 -13 -7 55 -49 69 -56 110 -57 l30 -1 125 36 125
35 120 5 120 5 50 11 50 11 65 40 c77 46 77 47 59 47 -8 -1 -44 -19 -82 -42z"/>
<path d="M55666 38841 l-7 -11 192 -125 192 -126 10 10 11 11 -9 8 c-16 15
-354 232 -369 238 l-14 5 -6 -10z"/>
<path d="M34824 38692 c-38 -48 -134 -181 -213 -297 -80 -115 -157 -227 -173
-247 l-29 -37 10 -5 9 -6 35 42 c18 24 96 135 172 248 75 113 154 225 173 250
20 25 51 64 70 87 l33 41 -9 6 -9 5 -69 -87z"/>
<path d="M53775 38652 l10 -9 170 -32 c94 -18 179 -35 190 -38 l20 -5 -10 10
-10 9 -170 32 c-93 18 -179 35 -190 38 l-20 5 10 -10z"/>
<path d="M95230 38524 c0 -11 272 -379 282 -383 l11 -4 -14 20 c-128 178 -272
373 -275 373 -2 0 -4 -3 -4 -6z"/>
<path d="M60290 38450 c0 -5 5 -10 10 -10 l10 0 0 -15 0 -16 -54 -77 c-30 -42
-91 -115 -135 -162 l-80 -84 22 -15 c12 -9 151 -136 309 -283 266 -247 298
-276 298 -264 0 3 -125 120 -277 262 -153 141 -289 267 -302 280 l-24 23 69
76 c38 42 97 113 131 158 l62 82 0 17 1 17 -20 11 -20 11 0 -11z"/>
<path d="M46052 38267 l-163 -163 14 -12 14 -12 158 165 158 166 -9 9 -10 10
-162 -163z"/>
<path d="M87750 38248 c-96 -60 -182 -113 -190 -118 l-15 -8 6 -6 5 -5 180
110 c183 114 201 126 193 133 -2 2 -83 -46 -179 -106z"/>
<path d="M34580 38189 l0 -20 10 6 c6 3 10 13 10 21 l0 14 -10 0 -10 0 0 -21z"/>
<path d="M69436 38141 l-6 -8 31 -47 c17 -25 50 -62 72 -82 l42 -37 102 -49
103 -49 11 6 10 7 -108 53 -108 53 -41 38 c-22 22 -53 58 -69 82 -30 45 -31
46 -39 33z"/>
<path d="M34590 38101 c0 -5 -7 -16 -15 -25 l-15 -15 20 -11 20 -11 0 36 c0
19 -2 35 -5 35 -3 0 -5 -4 -5 -9z"/>
<path d="M34356 38044 c-8 -21 -8 -24 4 -24 5 0 14 9 20 20 l11 20 -15 0 -14
0 -6 -16z"/>
<path d="M45809 37861 l-164 -159 10 -10 10 -11 165 159 165 158 -11 12 -11
11 -164 -160z"/>
<path d="M35010 37862 c0 -4 35 -29 78 -55 l77 -47 93 -86 c51 -48 95 -84 98
-82 2 3 -37 43 -88 90 l-93 85 -82 52 c-46 28 -83 48 -83 43z"/>
<path d="M60410 37699 c141 -133 230 -212 234 -208 5 5 -301 289 -311 289 -4
-1 30 -37 77 -81z"/>
<path d="M91730 37753 l0 -11 108 -6 c147 -8 361 -26 395 -32 l27 -6 0 15 0
14 -113 12 c-62 6 -181 14 -265 18 l-152 6 0 -10z"/>
<path d="M92804 37612 l7 -21 -11 -21 -11 -20 10 0 c11 0 21 24 21 50 l0 19
-11 7 -11 7 6 -21z"/>
<path d="M93250 37606 l0 -16 28 0 c15 0 79 -5 142 -11 l115 -10 93 6 92 7 0
7 0 8 -212 6 c-117 4 -223 10 -235 13 l-23 6 0 -16z"/>
<path d="M90425 37510 c-104 -50 -423 -224 -439 -241 l-10 -9 13 0 c7 0 81 38
164 84 84 46 203 109 264 140 l113 56 37 0 38 0 15 10 15 10 -55 -1 -55 -1
-100 -48z"/>
<path d="M92760 37533 l0 -11 23 -6 c12 -3 115 -6 230 -6 l207 0 0 10 0 10
-177 0 c-98 0 -202 3 -230 6 l-53 7 0 -10z"/>
<path d="M93420 37508 l0 -15 104 -5 c57 -3 115 -3 130 -1 l26 5 0 9 0 9 -99
0 c-54 0 -113 3 -130 6 l-31 7 0 -15z"/>
<path d="M580 37383 l0 -21 18 -22 18 -23 11 4 10 4 -29 39 -28 39 0 -20z"/>
<path d="M33740 37281 c12 -23 58 -61 73 -61 l11 0 -42 40 c-45 44 -58 50 -42
21z"/>
<path d="M90057 37094 l-187 -116 5 -8 5 -9 178 110 c97 61 184 117 192 125
l14 14 -10 0 c-6 0 -95 -52 -197 -116z"/>
<path d="M85522 36985 c67 -107 123 -193 126 -191 6 6 -229 386 -239 386 -4 0
47 -88 113 -195z"/>
<path d="M44481 36669 l-443 -440 -49 -33 -49 -32 12 -12 11 -11 46 31 46 31
443 441 442 441 0 12 c0 7 -3 13 -7 13 -5 -1 -208 -199 -452 -441z"/>
<path d="M40770 36609 c-144 -31 -165 -37 -159 -44 3 -2 63 9 134 25 72 16
140 30 153 30 l22 0 1 -32 c1 -18 5 -44 10 -58 l8 -25 -5 60 c-6 62 -10 76
-22 74 -4 0 -68 -14 -142 -30z"/>
<path d="M88870 36363 c-113 -70 -286 -177 -385 -238 l-180 -111 -3 -17 -3
-16 198 124 c109 68 287 179 395 246 l198 122 -6 8 c-3 5 -6 9 -7 9 -1 -1 -94
-58 -207 -127z"/>
<path d="M41044 36010 c4 -19 18 -113 31 -209 14 -96 27 -177 30 -179 8 -9 6
17 -22 213 l-26 190 -9 10 -10 10 6 -35z"/>
<path d="M42560 35709 c-58 -10 -259 -39 -447 -64 l-341 -45 -219 -40 c-280
-51 -655 -130 -667 -140 -4 -5 -7 -12 -5 -17 l4 -10 155 34 c85 19 286 58 445
88 l290 53 320 42 c327 43 570 82 582 94 l7 6 -10 9 -9 8 -105 -18z"/>
<path d="M41769 35677 l13 -17 -5 -26 -5 -26 10 10 10 10 -4 28 -3 27 -15 5
-15 5 14 -16z"/>
<path d="M84840 35610 c-54 -36 -42 -40 15 -5 l40 24 40 0 40 0 26 -22 26 -22
53 -95 c29 -52 82 -136 119 -185 36 -50 100 -146 140 -213 41 -67 76 -120 79
-118 7 7 -141 247 -213 346 -34 47 -86 128 -115 180 l-52 95 -27 22 -26 22
-50 1 -50 0 -45 -30z"/>
<path d="M84915 35602 c-30 -10 -85 -45 -85 -55 l0 -8 13 7 c6 4 24 16 39 26
l26 18 26 0 26 0 20 -20 c11 -11 33 -46 49 -78 16 -32 56 -94 88 -137 32 -44
142 -215 242 -380 101 -165 198 -318 214 -340 17 -22 32 -42 34 -44 2 -2 5 -2
8 1 l6 5 -24 29 c-14 16 -110 170 -216 341 -105 172 -217 348 -248 390 -32 43
-75 111 -96 150 l-38 72 -22 16 c-23 16 -30 17 -62 7z"/>
<path d="M36697 35524 l-6 -6 20 -39 c24 -48 65 -203 74 -281 l7 -57 15 6 15
6 -7 51 c-4 28 -15 87 -25 131 l-19 80 -25 58 c-24 54 -35 65 -49 51z"/>
<path d="M41400 35476 c-6 -9 -16 -32 -20 -51 l-8 -36 74 -217 c41 -119 77
-224 80 -232 l6 -15 4 10 c2 6 -30 111 -71 235 -41 123 -75 234 -75 245 l0 21
16 22 c18 26 13 40 -6 18z"/>
<path d="M41312 35425 c12 -25 26 -45 30 -45 12 0 10 7 -12 50 l-20 40 -10 0
-10 0 22 -45z"/>
<path d="M39695 35181 c-126 -26 -336 -73 -466 -105 l-235 -56 -103 -35 -103
-34 -107 -60 c-58 -32 -234 -130 -391 -217 -301 -167 -642 -362 -1345 -773
-236 -138 -434 -252 -440 -255 l-10 -4 11 -12 12 -12 413 240 c228 132 569
329 759 438 l345 198 63 4 62 4 33 -11 34 -11 31 -31 32 -31 12 -39 11 -39
-13 -42 c-7 -24 -21 -55 -32 -71 l-20 -27 -31 -16 -31 -17 -53 1 -53 0 -49 17
-49 16 -87 76 -86 76 -10 -10 -11 -11 95 -84 94 -84 61 -18 61 -19 61 6 61 5
35 27 c43 33 60 58 75 115 l12 46 -7 46 -7 46 -39 44 -39 44 -39 12 c-22 7
-51 12 -66 12 l-27 0 -25 -16 c-13 -9 -27 -14 -30 -11 -3 2 118 73 268 157
150 84 316 177 368 206 l95 54 120 39 120 40 215 51 c118 29 330 75 470 104
l255 52 -2 10 -2 9 -23 2 c-13 1 -126 -20 -253 -46z"/>
<path d="M56036 34998 c13 -90 26 -183 30 -208 l7 -45 4 13 5 13 -28 194 -27
195 -7 0 -7 0 23 -162z"/>
<path d="M32101 35043 c2 -6 72 -65 154 -131 l150 -119 53 -27 52 -26 0 8 c0
4 -24 19 -52 34 l-53 25 -110 89 c-60 48 -130 104 -154 123 l-44 36 4 -12z"/>
<path d="M59693 34589 c9 -13 48 -111 88 -218 40 -107 74 -190 76 -185 2 5
-32 101 -75 213 l-77 205 -13 4 -14 4 15 -23z"/>
<path d="M59564 34542 c-179 -109 -284 -177 -284 -184 0 -4 79 42 176 103
l176 110 16 -3 17 -3 75 -203 c41 -112 76 -199 78 -194 3 11 -136 392 -150
410 -15 17 -17 17 -104 -36z"/>
<path d="M32980 34561 l0 -10 68 -20 c87 -26 371 -110 397 -117 l20 -6 -10 10
c-5 5 -107 38 -225 72 -118 35 -223 67 -232 72 l-18 9 0 -10z"/>
<path d="M32965 34523 c8 -8 205 -70 458 -144 l27 -8 0 7 c0 4 -105 38 -233
76 -127 38 -239 71 -247 74 l-15 5 10 -10z"/>
<path d="M37259 34523 c-1 -5 -1 -57 0 -118 l2 -110 20 -17 20 -17 37 6 c20 2
52 9 70 15 l33 10 -5 15 c-3 8 -6 17 -6 19 0 3 -8 1 -17 -4 -10 -5 -34 -12
-54 -16 l-36 -6 -17 6 -16 6 0 93 c0 51 -3 100 -6 109 -6 16 -23 22 -25 9z"/>
<path d="M41692 34460 c3 -8 38 -113 78 -233 39 -120 74 -216 77 -213 7 6
-137 438 -150 451 l-10 10 5 -15z"/>
<path d="M37702 34447 l-12 -14 28 -26 27 -26 15 9 15 9 -31 31 -31 31 -11
-14z"/>
<path d="M60656 34370 l-38 -95 -18 -135 c-17 -123 -18 -151 -6 -139 2 2 12
60 21 129 l16 125 35 89 35 89 -3 16 -4 16 -38 -95z"/>
<path d="M72913 34343 c59 -2 154 -2 210 0 l102 3 -210 0 -210 0 108 -3z"/>
<path d="M73260 34340 l0 -13 7 6 6 7 -6 7 -7 6 0 -13z"/>
<path d="M37305 34249 c-16 -5 -169 -87 -340 -183 l-310 -174 2 -8 c1 -5 5
-10 10 -11 4 -2 165 85 358 192 l350 195 -20 -1 c-11 0 -33 -5 -50 -10z"/>
<path d="M37409 34119 l-34 -18 50 -1 c28 0 67 -5 89 -11 l38 -11 75 -55 74
-55 16 6 c9 4 14 8 12 10 -2 2 -41 31 -87 65 l-83 61 -58 14 -57 13 -35 -18z"/>
<path d="M31078 34074 c-11 -11 -10 -52 3 -75 l10 -20 10 6 9 6 -7 12 c-4 6
-9 26 -12 45 l-6 34 -7 -8z"/>
<path d="M84805 33835 c-170 -105 -225 -145 -202 -145 10 0 403 245 406 253 1
5 1 10 -1 12 -1 2 -93 -52 -203 -120z"/>
<path d="M38136 33911 l-5 -8 47 -34 c123 -88 273 -201 270 -204 -1 -1 -79 14
-173 34 l-170 38 -3 -9 -4 -8 -11 6 c-7 3 -4 -1 5 -8 l16 -14 209 -44 208 -44
175 -128 c96 -71 179 -129 185 -129 5 0 11 4 13 9 l3 10 -370 271 c-204 149
-375 271 -380 271 -6 0 -12 -4 -15 -9z"/>
<path d="M34113 33347 c-89 -67 -160 -123 -158 -125 6 -7 268 183 325 235 l14
13 -9 -1 c-6 0 -83 -55 -172 -122z"/>
<path d="M35293 33177 l-83 -41 0 -13 0 -13 10 0 c6 0 46 18 90 40 l80 40 0
10 c0 20 -19 16 -97 -23z"/>
<path d="M1621 33055 c3 -2 77 -9 164 -15 88 -5 177 -12 198 -14 l37 -4 0 7 0
8 -177 11 c-195 13 -229 14 -222 7z"/>
<path d="M1620 33014 c8 -3 100 -10 203 -17 l189 -13 3 7 4 6 -177 11 c-97 7
-190 12 -207 11 l-30 -1 15 -4z"/>
<path d="M64987 32995 l-5 -13 188 -107 c103 -60 192 -108 196 -107 5 0 10 4
11 9 l3 8 -38 21 c-20 11 -108 61 -194 111 l-156 91 -5 -13z"/>
<path d="M2473 32964 l9 -9 219 -15 219 -15 0 6 0 6 -182 12 c-101 7 -203 15
-228 18 l-45 6 8 -9z"/>
<path d="M79411 32686 c7 -7 362 -146 373 -146 l9 0 -6 7 c-11 11 -185 83
-276 114 -80 27 -110 35 -100 25z"/>
<path d="M75875 32596 l-220 -32 -3 -16 -3 -15 23 3 c13 2 119 17 237 34 118
17 216 32 219 34 7 8 -9 26 -21 25 -7 -1 -111 -16 -232 -33z"/>
<path d="M33280 32498 c-261 -152 -291 -170 -287 -174 2 -3 92 46 198 107 218
126 204 117 198 123 -3 3 -52 -23 -109 -56z"/>
<path d="M34160 32324 c-113 -64 -210 -119 -217 -122 l-12 -7 8 -13 7 -12 210
117 c116 65 211 121 213 126 1 4 1 12 -1 17 l-3 9 -205 -115z"/>
<path d="M70886 31865 c-9 -35 -9 -39 2 -43 l10 -3 11 32 c14 40 14 39 -3 39
l-14 0 -6 -25z"/>
<path d="M98814 31738 l-22 -10 -11 -24 c-14 -30 -14 -34 -1 -34 l10 0 0 14 0
15 22 15 22 16 26 0 25 0 -15 10 c-18 12 -29 12 -56 -2z"/>
<path d="M31437 31623 l-5 -8 138 -258 138 -258 8 3 c5 2 8 6 7 9 -3 10 -273
512 -277 516 -2 3 -6 1 -9 -4z"/>
<path d="M31740 31095 l-23 -25 -18 0 -17 0 -42 -40 -41 -40 6 -10 6 -10 22
11 c12 7 32 23 44 36 l22 23 21 0 20 0 20 -20 20 -20 0 -25 0 -25 9 0 c6 0 13
5 16 11 l7 10 -7 36 -6 35 -20 5 -19 5 0 14 0 14 10 0 10 0 0 14 c0 8 -4 17
-9 20 l-8 5 -23 -24z"/>
<path d="M31614 31054 c3 -9 6 -18 6 -20 0 -3 4 -3 10 1 l9 6 -6 14 c-3 8 -10
15 -15 15 l-10 0 6 -16z"/>
<path d="M31643 30973 l-13 -5 15 -29 15 -29 28 -6 c15 -3 32 -7 38 -9 l12 -3
21 14 21 15 -5 9 -5 9 -37 -6 -36 -6 -21 25 -21 25 -12 -4z"/>
<path d="M79880 30429 c-102 -77 -191 -146 -198 -153 l-14 -14 10 -6 10 -6
194 148 c107 81 195 151 197 157 7 25 -27 3 -199 -126z"/>
<path d="M83495 29839 l-7 -11 13 -12 c8 -7 88 -77 179 -156 91 -79 175 -152
188 -164 l22 -20 11 11 11 11 -194 169 c-106 93 -198 172 -205 176 l-12 7 -6
-11z"/>
<path d="M74470 28871 c0 -5 68 -84 151 -175 l151 -166 9 6 9 5 -7 12 c-15 26
-296 327 -304 327 -5 0 -9 -4 -9 -9z"/>
<path d="M73530 28705 c0 -13 253 -385 258 -380 4 4 -226 353 -249 380 l-9 9
0 -9z"/>
<path d="M8486 28443 c-27 -104 -52 -195 -54 -203 l-5 -15 10 10 c6 6 18 39
26 75 9 36 32 122 51 193 l34 127 -7 0 c-3 0 -28 -84 -55 -187z"/>
<path d="M11426 28219 c-3 -8 -10 -45 -16 -84 -6 -38 -22 -117 -36 -173 -23
-101 -29 -141 -19 -130 13 13 89 387 80 396 -2 3 -7 -1 -9 -9z"/>
<path d="M17215 27388 c-14 -37 -85 -371 -80 -376 10 -10 15 6 58 196 l44 192
-9 0 c-5 0 -11 -6 -13 -12z"/>
<path d="M24896 26843 c-8 -48 -18 -115 -21 -148 l-5 -60 9 40 c5 22 17 86 27
142 l17 103 -5 6 -6 5 -16 -88z"/>
<path d="M21857 26817 c-4 -10 -7 -26 -7 -35 l1 -17 10 18 10 18 -3 17 -4 17
-7 -18z"/>
<path d="M24529 26023 c-23 -71 -55 -157 -70 -192 -32 -71 -32 -71 -21 -71 14
0 53 91 103 240 55 163 52 150 40 150 l-9 0 -43 -127z"/>
<path d="M87395 25990 l-5 -9 202 -160 202 -160 9 6 c4 3 7 6 5 8 -2 1 -94 75
-205 163 l-202 161 -6 -9z"/>
<path d="M90495 24839 c50 -5 153 -18 230 -30 l140 -20 119 -35 118 -35 120
-50 c66 -27 125 -48 130 -47 l10 4 -136 58 -136 57 -99 29 -100 28 -133 21
-133 20 -110 5 -110 5 90 -10z"/>
<path d="M4920 20551 l0 -10 43 -6 c23 -3 98 -12 168 -19 l125 -15 54 -20 54
-21 9 9 9 9 -59 22 -58 22 -130 14 c-71 7 -149 16 -172 19 l-43 6 0 -10z"/>
<path d="M90330 19931 c0 -13 111 -415 116 -420 2 -2 6 -2 10 1 l5 6 -57 211
-58 211 -8 0 c-4 0 -8 -4 -8 -9z"/>
<path d="M7326 17918 c-3 -23 -10 -101 -16 -173 -6 -71 -13 -150 -16 -175 l-6
-45 10 10 9 10 17 204 c9 112 14 206 12 208 -3 3 -7 -15 -10 -39z"/>
<path d="M92371 16559 c-89 -67 -160 -124 -157 -126 2 -2 78 50 168 118 188
140 174 129 161 129 -5 0 -82 -55 -172 -121z"/>
<path d="M93250 16647 c24 -23 266 -235 303 -266 l17 -14 6 5 5 6 -170 146
c-94 80 -174 146 -178 146 -4 0 4 -10 17 -23z"/>
<path d="M7126 15789 c-2 -8 -9 -92 -16 -187 l-12 -174 6 -5 6 -6 0 14 c0 8 7
93 15 189 13 158 13 208 1 169z"/>
<path d="M24720 14600 l0 -7 143 -16 c78 -10 171 -19 207 -22 l65 -4 -50 9
c-27 6 -121 18 -207 28 l-158 18 0 -6z"/>
<path d="M24720 14561 l0 -8 183 -22 c100 -11 193 -21 206 -21 57 0 4 9 -169
29 -102 12 -193 24 -202 26 l-18 3 0 -7z"/>
<path d="M97450 13980 c-80 -94 -147 -176 -149 -183 l-3 -12 14 15 c8 8 70 80
138 160 68 80 132 155 143 168 l20 22 -9 0 c-5 0 -74 -77 -154 -170z"/>
<path d="M96516 12944 c-71 -85 -127 -157 -124 -159 4 -4 219 246 256 297 l13
18 -8 -1 c-4 0 -66 -70 -137 -155z"/>
<path d="M22256 2892 l-5 -8 189 -147 c104 -81 191 -147 195 -147 21 0 -16 34
-167 151 -94 74 -180 140 -189 147 l-18 12 -5 -8z"/>
<path d="M31458 2823 c-59 -62 -203 -245 -224 -284 -24 -48 -9 -46 22 3 34 54
173 228 228 286 l40 42 -10 0 c-5 0 -30 -21 -56 -47z"/>
<path d="M23015 2281 c3 -5 79 -68 170 -140 l164 -130 6 8 5 9 -165 131 c-91
72 -170 131 -176 131 l-10 0 6 -9z"/>
<path d="M10790 1701 l0 -10 43 -5 c23 -3 127 -11 230 -17 l188 -11 6 6 6 6
-6 6 c-6 6 -347 33 -429 34 l-38 0 0 -9z"/>
<path d="M7408 1637 l-218 -50 0 -12 0 -13 43 10 c163 36 392 90 395 93 2 2 2
8 1 13 l-4 8 -217 -49z"/>
<path d="M13127 1527 l-5 -14 196 -12 c109 -7 212 -15 230 -18 l32 -5 0 16 0
16 -27 0 c-16 0 -111 7 -213 15 -102 8 -190 15 -196 15 -7 0 -14 -6 -17 -13z"/>
<path d="M22363 1437 l-203 -91 9 -9 9 -9 198 89 198 90 4 11 4 12 -9 -1 c-4
0 -99 -41 -210 -92z"/>
<path d="M14950 1390 c0 -5 3 -10 8 -10 7 -1 159 -14 682 -59 135 -12 441 -35
680 -50 l435 -29 9 9 c5 5 8 10 5 13 -2 2 -186 16 -409 30 -223 15 -531 38
-685 51 -408 35 -656 55 -692 55 l-33 0 0 -10z"/>
<path d="M30139 1200 l-174 -131 -3 -15 -4 -16 186 139 c170 127 201 153 178
153 -5 0 -87 -59 -183 -130z"/>
<path d="M18130 1117 l0 -13 208 -18 c114 -10 215 -20 225 -23 l17 -4 0 15 0
16 -17 0 c-10 0 -110 9 -223 20 -113 11 -206 20 -207 20 -2 0 -3 -6 -3 -13z"/>
</g>
</svg>
