<?xml version="1.0" standalone="no"?>
<!DOCTYPE svg PUBLIC "-//W3C//DTD SVG 20010904//EN"
 "http://www.w3.org/TR/2001/REC-SVG-20010904/DTD/svg10.dtd">
<svg version="1.0" xmlns="http://www.w3.org/2000/svg"
 width="7500.000000pt" height="7500.000000pt" viewBox="0 0 7500.000000 7500.000000"
 preserveAspectRatio="xMidYMid meet">
<metadata>
Created by potrace 1.16, written by Peter Selinger 2001-2019
</metadata>
<g transform="translate(0.000000,7500.000000) scale(0.075000,-0.075000)"
fill="#000000" stroke="none">
<path d="M88934 99969 l69 -30 9 9 9 9 -56 21 c-31 12 -67 22 -78 22 l-22 -1
69 -30z"/>
<path d="M90077 99696 l-6 -16 22 0 23 0 12 -12 12 -12 10 10 11 11 -13 11
c-7 6 -25 13 -39 17 l-26 6 -6 -15z"/>
<path d="M89952 99630 l-12 -20 0 -25 0 -25 10 0 10 0 0 18 c0 10 7 27 15 38
l14 21 -6 7 c-10 10 -18 7 -31 -14z"/>
<path d="M85585 97949 c-27 -5 -81 -16 -120 -23 l-70 -14 -69 -31 c-97 -44
-76 -49 25 -6 l83 36 106 16 105 16 10 8 9 9 -14 -1 c-8 -1 -37 -5 -65 -10z"/>
<path d="M86322 96513 c8 -10 33 -40 55 -68 l41 -50 57 -107 57 -108 10 0 10
0 -58 108 c-31 59 -68 123 -82 142 -35 49 -84 100 -96 100 l-9 0 15 -17z"/>
<path d="M88245 96292 c6 -5 73 -33 150 -62 77 -29 252 -100 388 -157 137 -58
250 -103 253 -101 5 5 -467 204 -621 261 -66 25 -133 50 -150 57 l-30 11 10
-9z"/>
<path d="M86936 96241 l-38 -39 -31 -5 c-17 -2 -63 -1 -104 3 l-73 7 -33 -6
-32 -7 115 -6 c63 -4 127 -4 141 -1 l26 5 37 44 c46 54 42 57 -8 5z"/>
<path d="M15842 96138 l4 -13 215 -86 214 -87 168 -90 c92 -49 167 -87 167
-83 0 3 -87 52 -193 107 l-192 102 -180 72 c-99 40 -181 76 -183 81 -2 5 -8 9
-14 9 l-10 0 4 -12z"/>
<path d="M98461 94777 l85 -82 67 -37 67 -36 5 9 6 9 -14 0 c-7 0 -44 21 -83
46 l-69 46 -65 64 c-36 35 -70 64 -75 64 -6 -1 29 -38 76 -83z"/>
<path d="M97896 94414 l-168 -172 7 -12 7 -12 30 29 c16 15 93 95 171 176
l140 148 -9 7 -9 7 -169 -171z"/>
<path d="M87651 93201 c-105 -109 -191 -201 -191 -205 0 -3 90 85 200 196
l199 203 80 -81 80 -80 14 8 c8 4 27 8 43 10 l29 2 38 -13 c21 -7 41 -11 44
-8 2 3 -20 13 -50 23 l-54 17 -30 -11 -30 -10 -74 74 -73 74 -17 0 -17 0 -191
-199z"/>
<path d="M87459 92950 l-393 -400 -12 0 c-12 0 -138 75 -222 132 -24 17 -46
28 -48 25 -6 -5 161 -118 234 -158 l43 -24 398 405 399 405 75 -74 75 -73 36
13 36 13 43 -11 c49 -14 62 -9 21 8 l-29 12 -37 0 -38 0 -13 -11 -13 -11 -74
74 c-41 41 -78 75 -81 75 -4 0 -184 -180 -400 -400z"/>
<path d="M87002 92991 c-52 -44 -134 -108 -182 -142 l-89 -62 5 -9 6 -9 66 48
c131 92 302 231 302 245 0 17 -18 5 -108 -71z"/>
<path d="M20707 93010 c76 -36 192 -74 201 -65 2 2 -27 13 -66 24 -38 12 -99
35 -135 51 -37 17 -70 30 -74 29 -5 0 29 -18 74 -39z"/>
<path d="M87044 92954 c-49 -41 -131 -105 -181 -141 -82 -58 -108 -83 -87 -83
18 0 238 168 367 280 l9 8 -10 6 -9 5 -89 -75z"/>
<path d="M20923 92933 l7 -6 7 6 6 7 -13 0 -13 0 6 -7z"/>
<path d="M89520 92716 c0 -8 442 -148 447 -142 4 4 -424 146 -441 146 -3 0 -6
-2 -6 -4z"/>
<path d="M54756 90361 c5 -5 43 -16 84 -26 41 -10 126 -33 187 -51 62 -19 116
-34 120 -34 l7 0 -9 9 c-15 14 -357 111 -391 111 l-8 0 10 -9z"/>
<path d="M30745 90230 c3 -5 8 -10 11 -10 3 0 2 5 -1 10 -3 6 -8 10 -11 10 -3
0 -2 -4 1 -10z"/>
<path d="M30811 90146 c9 -10 263 -105 268 -101 6 7 3 9 -74 40 -91 36 -206
72 -194 61z"/>
<path d="M94070 89541 c179 -175 327 -317 329 -315 5 5 -628 628 -643 632 -6
2 135 -141 314 -317z"/>
<path d="M38470 89306 l0 -15 26 -20 27 -21 38 0 39 0 0 16 0 16 -26 -6 -26
-7 -33 26 c-39 29 -45 30 -45 11z"/>
<path d="M86365 88979 l80 -11 195 -2 195 -3 105 -17 c58 -10 152 -29 209 -42
57 -14 106 -23 108 -20 3 3 -12 9 -33 15 -126 33 -172 42 -289 61 l-130 21
-145 -2 c-80 -2 -197 0 -260 3 l-115 7 80 -10z"/>
<path d="M86780 88933 l0 -9 108 -13 107 -12 124 -30 c68 -16 126 -27 129 -24
7 6 -7 10 -133 39 -60 14 -148 30 -195 36 -47 6 -97 13 -112 16 l-28 6 0 -9z"/>
<path d="M78980 88494 c0 -7 1 -14 3 -14 5 0 560 -190 725 -249 l143 -50 -3
11 -4 12 -235 83 c-129 46 -323 115 -431 153 l-198 69 0 -15z"/>
<path d="M78964 88448 c-3 -5 -4 -11 -3 -12 2 -2 292 -104 644 -228 l640 -224
7 10 7 11 -82 28 c-45 16 -335 118 -645 227 l-562 197 -6 -9z"/>
<path d="M79371 88218 c-14 -70 -61 -353 -61 -367 0 -6 4 -11 8 -11 l9 0 32
194 c18 106 35 203 38 215 l5 21 -10 0 -11 0 -10 -52z"/>
<path d="M84778 87928 c-70 -139 -159 -313 -198 -385 l-71 -133 8 0 c16 0 397
742 391 761 -2 5 -60 -104 -130 -243z"/>
<path d="M180 88066 l0 -13 46 -13 46 -13 30 -41 c17 -23 42 -66 55 -96 l25
-54 -7 -46 c-4 -25 -37 -157 -75 -295 -38 -137 -70 -258 -72 -267 l-3 -17 10
1 10 1 68 246 67 246 10 72 11 72 -16 38 c-9 21 -33 64 -53 95 l-37 58 -57 19
-58 20 0 -13z"/>
<path d="M80270 88042 l0 -9 408 -142 c224 -78 414 -141 422 -141 l14 0 -9 9
c-9 8 -814 291 -829 291 -3 0 -6 -4 -6 -8z"/>
<path d="M80670 87843 c0 -10 411 -155 418 -148 11 11 -18 24 -203 89 -189 66
-215 73 -215 59z"/>
<path d="M81530 87601 l0 -8 206 -73 206 -72 5 6 c4 3 4 8 2 10 -4 4 -407 146
-414 146 -3 0 -5 -4 -5 -9z"/>
<path d="M200 87110 l0 -13 7 6 6 7 -6 7 -7 6 0 -13z"/>
<path d="M83692 86955 c8 -9 362 -104 367 -99 7 7 1 9 -175 57 -164 45 -204
54 -192 42z"/>
<path d="M45340 86211 c0 -5 8 -12 18 -15 42 -13 389 -117 405 -122 l17 -5 0
13 0 13 -208 63 c-217 65 -232 68 -232 53z"/>
<path d="M80446 85781 c12 -11 259 -102 499 -184 105 -36 216 -75 248 -86 l57
-20 0 7 c0 4 -123 49 -273 101 -149 51 -330 115 -400 142 -133 50 -148 55
-131 40z"/>
<path d="M80395 85759 c-2 -8 -34 -95 -69 -194 -35 -99 -68 -189 -72 -200 l-7
-20 10 10 c14 13 155 406 149 413 -3 3 -8 -1 -11 -9z"/>
<path d="M20580 85752 l0 -7 113 -30 c122 -31 282 -78 310 -90 l17 -7 0 9 c0
16 -45 32 -234 84 -186 50 -206 54 -206 41z"/>
<path d="M80426 85751 c28 -25 799 -299 811 -288 2 3 -29 16 -69 30 -40 14
-179 61 -308 105 -129 44 -280 99 -334 121 -103 42 -117 47 -100 32z"/>
<path d="M60360 85390 c0 -5 1 -10 3 -11 1 0 112 -13 247 -29 135 -15 324 -38
420 -49 l175 -20 277 -12 277 -12 15 6 c9 4 16 10 16 15 l0 8 -292 12 -293 11
-175 20 c-267 31 -644 71 -657 71 l-13 0 0 -10z"/>
<path d="M62080 85263 l-105 -15 -332 0 -333 0 0 -13 0 -12 200 -7 200 -7 107
6 c60 3 186 13 281 22 l172 17 0 13 0 13 -42 -1 c-24 -1 -90 -8 -148 -16z"/>
<path d="M88246 84755 l-49 -186 7 -6 6 -6 0 7 c0 4 20 84 45 178 26 94 45
177 43 184 l-3 14 -49 -185z"/>
<path d="M82662 84485 l11 -26 9 9 9 9 -7 16 -6 17 -14 0 -14 0 12 -25z"/>
<path d="M23536 84362 l-5 -9 177 -77 c97 -43 180 -77 185 -77 25 3 -13 25
-166 93 -185 83 -183 82 -191 70z"/>
<path d="M10633 84343 c-7 -2 -13 -9 -13 -13 l0 -9 33 6 32 5 84 -22 c72 -18
659 -198 707 -217 l17 -6 -5 13 -4 12 -284 90 c-157 49 -332 103 -390 119
l-105 29 -30 -1 c-16 0 -36 -3 -42 -6z"/>
<path d="M80500 84332 c0 -5 259 -98 420 -150 l15 -5 -10 10 c-14 13 -425 154
-425 145z"/>
<path d="M87610 84291 l0 -10 68 -20 c335 -99 412 -117 389 -95 -3 3 -97 32
-209 63 -112 32 -213 61 -225 65 l-23 7 0 -10z"/>
<path d="M24326 83952 l-5 -9 57 -23 c46 -19 334 -143 790 -341 l44 -19 -4 11
-4 12 -364 159 c-201 88 -395 173 -432 189 -74 32 -75 32 -82 21z"/>
<path d="M72209 83695 l86 -206 3 14 3 13 -82 192 c-44 106 -85 192 -89 192
l-7 0 86 -205z"/>
<path d="M73340 82891 c0 -4 26 -22 58 -39 l57 -30 128 -25 127 -24 0 7 0 8
-116 21 -115 22 -55 26 c-30 14 -57 29 -60 34 -7 12 -24 12 -24 0z"/>
<path d="M76509 82565 c-67 -108 -119 -198 -117 -201 5 -5 232 348 244 380 17
45 -16 -2 -127 -179z"/>
<path d="M17570 82242 l0 -8 298 -77 c277 -71 559 -137 589 -137 7 0 13 4 13
8 l0 8 -137 28 c-76 16 -275 64 -441 108 -320 82 -322 83 -322 70z"/>
<path d="M96381 81719 c-68 -93 -121 -172 -118 -175 2 -3 59 72 127 166 67 94
120 173 118 176 -3 2 -60 -73 -127 -167z"/>
<path d="M96413 81697 c-67 -95 -179 -249 -248 -344 -69 -94 -125 -177 -125
-184 l0 -12 19 24 c21 28 473 658 484 677 l8 12 -8 0 c-4 -1 -63 -78 -130
-173z"/>
<path d="M97380 81203 c112 -212 152 -283 157 -283 4 0 -59 122 -164 318 -25
45 -47 82 -50 82 -2 0 23 -53 57 -117z"/>
<path d="M95659 80648 c-62 -90 -116 -169 -122 -175 l-9 -13 9 0 10 0 89 128
c48 70 103 148 122 175 l34 47 -10 0 -11 0 -112 -162z"/>
<path d="M73263 79206 c3 -7 69 -99 147 -205 l142 -191 8 5 9 6 -147 199 c-81
110 -151 199 -156 200 l-8 0 5 -14z"/>
<path d="M9085 79090 c-4 -6 -5 -13 -4 -14 2 -1 87 -62 188 -135 l183 -133 9
9 9 9 -157 114 c-87 63 -172 125 -190 138 l-31 23 -7 -11z"/>
<path d="M97112 78940 l3 -10 130 -61 c72 -33 153 -71 180 -84 28 -13 55 -26
60 -27 l10 -3 0 10 0 10 -150 68 c-82 38 -170 77 -193 88 l-44 19 4 -10z"/>
<path d="M76194 78389 c-192 -149 -357 -279 -368 -289 l-18 -18 9 -5 9 -6 367
285 c202 157 367 290 367 295 0 5 -4 9 -9 9 -5 0 -166 -122 -357 -271z"/>
<path d="M43853 77744 c-72 -129 -128 -234 -124 -234 7 0 264 460 259 465 -2
2 -62 -102 -135 -231z"/>
<path d="M12976 77621 c-32 -111 -56 -205 -53 -208 3 -2 8 4 11 14 55 187 106
377 103 386 -2 6 -29 -81 -61 -192z"/>
<path d="M44535 77722 c15 -14 368 -163 373 -157 8 7 9 7 -153 73 -82 33 -168
68 -190 77 l-40 17 10 -10z"/>
<path d="M11980 77600 l0 -9 43 -11 c23 -6 71 -20 107 -30 36 -10 214 -51 395
-90 182 -39 338 -73 348 -76 l17 -5 0 13 0 14 -337 73 c-186 40 -385 86 -442
102 -58 16 -110 29 -118 29 l-13 0 0 -10z"/>
<path d="M69611 76899 c-83 -101 -148 -185 -146 -188 3 -2 6 -2 8 0 2 2 70 84
151 182 81 98 145 181 143 183 -3 3 -73 -77 -156 -177z"/>
<path d="M28890 77001 l-35 -18 -184 -21 c-102 -12 -187 -24 -189 -27 -14 -14
21 -13 199 9 l194 23 33 17 c17 9 32 21 32 26 0 14 -9 12 -50 -9z"/>
<path d="M74608 76773 l-18 -4 0 -15 0 -15 38 7 c20 4 40 9 45 11 l7 4 -5 10
-6 9 -22 -1 c-12 -1 -30 -3 -39 -6z"/>
<path d="M74550 76630 c0 -5 5 -10 10 -10 6 0 10 5 10 10 0 6 -4 10 -10 10 -5
0 -10 -4 -10 -10z"/>
<path d="M82429 74183 l-24 -108 2 -120 2 -120 -7 -12 -7 -11 -180 33 c-169
31 -198 34 -182 19 8 -9 378 -77 383 -71 3 2 7 71 9 153 l4 149 20 83 c23 91
25 112 13 112 l-9 0 -24 -107z"/>
<path d="M36490 73269 c0 -8 4 -19 9 -24 5 -6 18 -37 29 -70 l20 -60 18 -137
18 -138 8 0 8 0 0 19 c0 11 -9 82 -20 158 l-20 138 -17 45 c-9 25 -24 54 -35
65 l-18 19 0 -15z"/>
<path d="M74484 70310 c2 -14 21 -122 43 -240 l38 -214 3 16 c4 22 -66 417
-79 443 l-9 20 4 -25z"/>
<path d="M92180 68024 l-13 -15 -1 -147 c-1 -154 6 -247 19 -260 l7 -7 -8 70
-9 70 3 130 3 130 15 23 14 22 -9 0 c-4 0 -14 -7 -21 -16z"/>
<path d="M0 67560 l0 -10 25 0 25 0 0 10 0 10 -25 0 -25 0 0 -10z"/>
<path d="M41351 67325 c4 -3 142 -58 367 -146 l22 -9 0 8 c0 4 -85 40 -188 80
-171 66 -214 80 -201 67z"/>
<path d="M94340 67045 c0 -11 18 -123 39 -250 21 -126 71 -421 110 -655 39
-234 76 -434 81 -445 l10 -20 -5 30 c-3 17 -36 217 -74 445 -38 228 -86 523
-107 655 l-37 240 -8 10 -9 9 0 -19z"/>
<path d="M94304 67025 c3 -16 19 -113 36 -215 34 -206 39 -234 45 -228 6 6
-71 457 -80 466 l-7 7 6 -30z"/>
<path d="M60177 66924 l-7 -7 2 -106 2 -106 3 95 4 95 8 8 9 9 73 -21 c41 -12
95 -28 122 -36 l47 -14 0 7 0 8 -112 33 c-62 19 -120 35 -128 38 l-16 4 -7 -7z"/>
<path d="M37302 66855 l-413 -23 -7 -7 -7 -8 90 6 c50 3 245 13 435 22 l345
17 20 8 20 9 -35 -1 c-19 0 -221 -11 -448 -23z"/>
<path d="M37177 66805 l-587 -33 -70 -28 c-39 -15 -70 -31 -70 -35 l0 -8 70
29 70 29 558 30 c308 17 576 31 596 31 l36 0 0 10 c0 6 -3 9 -7 9 -5 -1 -272
-16 -596 -34z"/>
<path d="M59881 66723 c2 -7 51 -47 109 -88 l105 -75 53 -17 53 -17 10 14 9
15 -2 75 -1 75 -10 -77 -10 -78 -13 0 c-37 0 -161 74 -293 174 l-14 11 4 -12z"/>
<path d="M41590 66266 c0 -3 153 -105 308 -204 12 -8 22 -11 22 -8 0 7 -315
216 -325 216 -3 0 -5 -2 -5 -4z"/>
<path d="M97515 66138 c3 -12 23 -105 44 -206 21 -100 41 -185 45 -189 17 -18
12 20 -27 207 l-43 204 -12 4 -13 4 6 -24z"/>
<path d="M94465 66075 c2 -16 16 -104 30 -195 14 -91 30 -174 36 -185 l9 -20
-4 25 c-3 14 -16 102 -31 195 -14 94 -30 179 -35 190 l-10 20 5 -30z"/>
<path d="M41910 66008 l-12 -23 18 17 18 18 -6 6 -6 6 -12 -24z"/>
<path d="M49155 65933 c6 -6 111 -81 235 -168 124 -87 278 -196 344 -242 65
-47 117 -80 115 -74 -4 11 -665 480 -689 489 l-15 5 10 -10z"/>
<path d="M49133 65898 c0 -7 -55 -104 -122 -216 -66 -112 -121 -209 -121 -215
0 -7 56 82 125 198 69 115 129 211 134 213 l9 3 156 -112 c86 -61 159 -109
162 -107 2 3 -68 56 -156 118 -88 63 -160 117 -160 122 0 4 -6 8 -13 8 l-14 0
0 -12z"/>
<path d="M42920 65796 c0 -6 278 -194 318 -215 12 -6 22 -9 22 -6 0 3 -71 52
-157 108 -187 122 -183 120 -183 113z"/>
<path d="M35190 65546 c0 -3 23 -12 51 -21 27 -9 125 -53 216 -96 91 -44 168
-77 171 -75 5 6 -307 159 -372 182 -38 14 -66 18 -66 10z"/>
<path d="M29077 65353 c-4 -3 -7 -17 -7 -30 l0 -25 13 4 12 5 3 26 3 27 -9 0
c-5 0 -12 -3 -15 -7z"/>
<path d="M29076 65233 c-11 -3 -27 -15 -37 -27 l-18 -21 8 -8 8 -8 17 7 17 6
15 29 c8 16 13 28 12 28 -2 -1 -12 -4 -22 -6z"/>
<path d="M1235 64775 l-220 -42 -160 -12 c-88 -7 -162 -15 -164 -17 -7 -7 59
-5 200 7 l134 10 215 41 214 40 18 -11 18 -11 0 14 0 14 -16 6 c-9 3 -16 6
-17 5 -1 0 -101 -20 -222 -44z"/>
<path d="M37060 64570 l0 -19 38 -10 c21 -6 123 -21 227 -34 l190 -23 3 14 4
15 -11 7 c-7 3 -82 14 -169 24 -86 10 -183 24 -215 32 -72 17 -67 18 -67 -6z"/>
<path d="M47805 64582 c6 -5 64 -32 130 -60 66 -28 157 -66 203 -86 l82 -35 0
7 c0 6 -363 165 -413 181 l-12 4 10 -11z"/>
<path d="M47783 64543 c11 -10 422 -181 426 -177 2 2 2 5 0 7 -8 6 -419 177
-425 177 l-7 0 6 -7z"/>
<path d="M40690 64525 c0 -6 20 -68 44 -140 24 -71 49 -150 55 -175 l10 -45
-4 50 -5 50 -41 125 c-23 69 -45 129 -50 135 l-9 9 0 -9z"/>
<path d="M39205 64260 c11 -5 29 -9 40 -9 l20 0 -20 9 c-11 5 -29 9 -40 9
l-20 0 20 -9z"/>
<path d="M39355 64260 l-6 -10 5 -9 c3 -4 27 -16 53 -26 77 -29 271 -122 304
-146 l30 -21 14 6 15 5 0 15 0 15 -137 67 c-116 56 -252 114 -268 114 -2 0 -7
-4 -10 -10z"/>
<path d="M40255 64160 c-22 -24 -13 -26 19 -5 l23 16 129 -16 129 -15 83 0 82
0 0 11 0 12 -68 -6 -69 -7 -119 15 c-65 8 -135 15 -155 15 l-36 0 -18 -20z"/>
<path d="M89355 64064 c-36 -38 -65 -73 -65 -79 0 -5 29 21 63 59 l63 69 12
-7 c18 -11 415 -475 445 -521 15 -22 27 -35 27 -29 0 22 -80 124 -261 334
-102 118 -193 221 -203 229 l-17 14 -64 -69z"/>
<path d="M40072 64085 l-12 -25 9 0 c4 0 13 11 19 25 l12 25 -9 0 c-4 0 -13
-11 -19 -25z"/>
<path d="M40590 64056 l-12 -24 13 -19 c33 -45 512 -573 520 -573 5 0 -108
131 -251 290 -143 160 -260 295 -260 301 0 6 5 19 10 30 l11 19 -9 0 c-5 0
-14 -11 -22 -24z"/>
<path d="M2260 63691 c0 -10 962 -862 981 -869 l9 -4 0 10 c0 8 -947 847 -977
865 l-13 8 0 -10z"/>
<path d="M38576 63449 c-8 -22 -56 -336 -55 -356 l1 -18 4 11 c8 18 62 369 58
373 -2 2 -6 -2 -8 -10z"/>
<path d="M43199 63384 c-4 -12 -207 -192 -435 -386 -82 -70 -178 -154 -214
-187 l-65 -59 7 -7 6 -7 74 69 c40 38 136 123 213 188 77 66 142 122 145 125
6 6 273 243 279 246 1 2 1 9 -1 16 l-5 13 -4 -11z"/>
<path d="M41990 63346 c0 -18 490 -579 499 -570 2 2 -7 17 -21 32 -100 110
-355 401 -407 465 -57 70 -71 85 -71 73z"/>
<path d="M32545 63272 l10 -9 195 -22 c204 -22 226 -24 219 -16 -3 2 -86 13
-184 25 -99 11 -196 23 -215 26 l-35 6 10 -10z"/>
<path d="M41566 63181 l-6 -9 15 -6 15 -5 0 9 c0 5 -4 11 -9 15 l-10 5 -5 -9z"/>
<path d="M41545 63140 c3 -5 11 -10 16 -10 l10 0 -6 10 c-3 6 -11 10 -16 10
l-10 0 6 -10z"/>
<path d="M13603 63073 c20 -2 54 -2 75 0 l37 4 -75 0 -75 0 38 -4z"/>
<path d="M48411 63076 c12 -13 714 -424 718 -420 2 2 2 6 0 7 -14 12 -693 409
-707 414 l-17 6 6 -7z"/>
<path d="M15077 63023 c-4 -3 -7 -21 -7 -40 l0 -33 10 0 10 0 0 40 c0 41 -2
45 -13 33z"/>
<path d="M89308 62970 l-67 -61 -163 -206 c-190 -241 -191 -243 -186 -248 2
-3 74 84 159 192 l154 196 95 94 c106 104 111 126 8 33z"/>
<path d="M15030 62993 l0 -32 10 -6 10 -6 0 23 c0 13 -5 30 -10 38 l-10 15 0
-32z"/>
<path d="M42220 63015 c0 -11 263 -306 268 -300 6 6 12 -2 -138 170 -106 122
-130 146 -130 130z"/>
<path d="M15940 62990 l0 -10 15 0 c8 0 15 2 15 4 0 2 -7 6 -15 10 l-15 5 0
-9z"/>
<path d="M58658 62922 c-37 -20 -68 -41 -68 -45 l0 -8 77 42 77 42 340 -27
c188 -15 357 -30 376 -33 l35 -5 -10 9 -10 10 -335 27 c-184 14 -353 26 -375
26 l-40 -1 -67 -37z"/>
<path d="M16240 62930 c14 -4 35 -8 48 -9 l22 -1 0 10 0 10 -47 -1 -48 -1 25
-8z"/>
<path d="M17052 62905 c-161 -12 -295 -25 -299 -29 l-6 -6 10 0 c5 0 131 9
279 21 148 11 357 24 464 28 l195 8 -175 0 -175 1 -293 -23z"/>
<path d="M59045 62892 l10 -9 155 -12 c85 -6 184 -14 220 -18 l65 -6 -6 7 c-4
4 -85 13 -180 21 -96 8 -196 17 -224 20 l-50 6 10 -9z"/>
<path d="M16670 62800 l0 -90 10 0 10 0 0 90 0 90 -10 0 -10 0 0 -90z"/>
<path d="M59950 62859 l0 -6 163 -12 c89 -6 191 -14 227 -18 l65 -6 -7 7 -6 8
-221 17 -221 17 0 -7z"/>
<path d="M59945 62820 l-4 -7 167 -12 c92 -6 194 -14 227 -18 l60 -6 -7 8 -7
8 -216 16 -216 17 -4 -6z"/>
<path d="M41344 62779 l-6 -11 24 -26 c13 -15 73 -81 133 -147 60 -66 113
-124 117 -129 l8 -10 11 11 12 12 -143 155 c-78 86 -144 156 -146 156 -1 0 -6
-5 -10 -11z"/>
<path d="M11095 62720 l-18 -20 -198 0 -198 0 -7 -12 -7 -11 144 6 c79 4 172
7 206 7 l62 0 28 25 28 24 -11 1 c-6 0 -19 -9 -29 -20z"/>
<path d="M42395 62622 c6 -4 68 -73 138 -154 71 -81 133 -151 140 -155 l12 -7
-15 20 c-8 10 -70 83 -138 162 l-124 142 -11 0 -12 0 10 -8z"/>
<path d="M57757 62263 c-246 -196 -445 -358 -443 -361 3 -2 202 153 442 344
241 192 442 352 448 356 6 4 8 9 5 12 -2 3 -206 -155 -452 -351z"/>
<path d="M58005 62409 c-115 -94 -212 -176 -214 -182 l-4 -11 49 39 c27 22
127 102 222 179 94 76 172 140 172 142 0 13 -35 -13 -225 -167z"/>
<path d="M47097 62503 c-2 -4 -7 -25 -11 -46 l-7 -38 6 -19 c4 -11 11 -20 16
-20 l10 0 -10 18 -9 17 8 45 c8 44 7 60 -3 43z"/>
<path d="M38326 62139 l-48 -310 6 -6 6 -6 0 9 c0 5 22 147 48 317 l48 307 -6
0 c-3 0 -28 -140 -54 -311z"/>
<path d="M49475 62442 c9 -9 76 -37 318 -133 l47 -19 0 8 c0 4 -69 34 -152 66
-84 33 -169 66 -188 74 l-35 14 10 -10z"/>
<path d="M89022 62421 c2 -5 81 -75 176 -156 l174 -146 11 4 11 3 -180 152
c-98 84 -183 152 -187 152 l-9 0 4 -9z"/>
<path d="M48340 62143 c-74 -124 -145 -243 -158 -264 l-23 -39 8 0 c4 1 73
109 153 241 79 133 149 248 156 257 l11 15 49 -28 c27 -15 64 -36 82 -47 l32
-20 0 9 c-1 7 -162 104 -171 102 -2 0 -65 -102 -139 -226z"/>
<path d="M16517 62165 l-87 -170 3 -10 4 -10 86 170 c48 94 85 174 83 180 l-3
10 -86 -170z"/>
<path d="M41936 62266 l-36 -33 0 -19 1 -19 11 20 c6 11 24 35 41 53 40 42 28
41 -17 -2z"/>
<path d="M12675 62260 c56 -16 389 -70 424 -69 l36 1 -55 10 c-30 5 -134 22
-230 38 -97 17 -182 30 -190 29 l-15 -1 30 -8z"/>
<path d="M80187 62253 c-2 -5 -26 -104 -52 -221 l-47 -213 6 -6 c3 -4 8 -4 11
-2 2 3 25 97 50 209 25 113 48 213 51 223 l5 17 -10 0 c-5 0 -12 -3 -14 -7z"/>
<path d="M39625 61654 l-80 -13 -95 -1 c-52 -1 -117 -5 -145 -10 l-50 -8 160
5 160 5 84 14 c46 7 86 16 89 19 8 7 -32 4 -123 -11z"/>
<path d="M62570 61640 l-15 -10 18 0 17 0 0 10 c0 12 -1 12 -20 0z"/>
<path d="M22290 61570 l0 -7 133 -46 c149 -52 266 -87 290 -87 l16 0 11 19
c16 31 11 38 -8 13 l-17 -22 -135 39 c-74 22 -170 53 -212 69 l-78 30 0 -8z"/>
<path d="M58215 61513 c14 -14 864 -387 870 -381 4 3 -802 363 -862 384 l-18
7 10 -10z"/>
<path d="M45066 61479 c81 -103 329 -389 337 -389 5 0 -27 42 -70 93 -44 50
-121 142 -173 202 -51 61 -98 112 -104 114 l-10 4 20 -24z"/>
<path d="M48370 61243 c-74 -119 -166 -268 -203 -332 l-69 -116 -40 -42 -41
-42 -53 -28 -53 -29 9 -14 9 -14 53 28 53 29 42 40 42 40 59 101 c33 56 69
117 80 136 10 20 76 127 146 239 69 112 126 207 126 212 0 5 -6 9 -12 9 l-13
0 -135 -217z"/>
<path d="M57870 61337 c0 -4 76 -128 168 -275 93 -147 208 -334 257 -417 98
-168 93 -160 100 -154 8 9 -479 804 -516 844 l-9 9 0 -7z"/>
<path d="M31400 61119 l-195 -91 -240 -84 c-132 -45 -236 -83 -230 -83 5 -1
100 29 210 65 l200 66 220 100 c191 88 253 118 235 118 -3 0 -93 -41 -200 -91z"/>
<path d="M47120 61144 c0 -16 5 -121 11 -234 l12 -205 9 -15 9 -15 -6 65 c-3
36 -10 146 -16 245 -6 99 -13 182 -15 184 -2 2 -4 -9 -4 -25z"/>
<path d="M61354 60603 c3 -10 26 -117 51 -238 l45 -219 -5 -15 -6 -14 10 -7
10 -6 81 -389 c45 -214 113 -551 151 -749 80 -419 78 -410 85 -403 6 6 -115
632 -222 1146 -46 222 -83 406 -81 408 3 2 283 60 623 128 341 69 628 129 639
134 l20 10 -35 -6 c-19 -3 -307 -61 -640 -128 -333 -68 -608 -121 -611 -119
-3 2 -28 111 -55 244 l-49 240 -8 0 -8 0 5 -17z"/>
<path d="M86132 60571 c5 -15 300 -336 312 -340 13 -5 -12 24 -182 212 -119
130 -138 149 -130 128z"/>
<path d="M58365 60288 l35 -73 29 -32 28 -33 31 0 c17 0 64 7 104 15 l73 16
13 -18 c36 -48 247 -502 368 -791 35 -84 68 -160 73 -170 73 -125 -230 578
-370 860 l-68 136 -88 -19 c-48 -10 -95 -19 -106 -19 l-18 0 -34 37 -34 37
-26 63 -27 63 -9 0 -8 0 34 -72z"/>
<path d="M58636 60229 c-59 -14 -57 -20 5 -13 l54 6 107 -218 c89 -182 210
-453 331 -741 12 -29 25 -53 29 -53 7 0 -9 40 -98 244 l-39 89 13 5 c20 6 344
252 332 252 -5 0 -82 -54 -171 -120 l-161 -121 -11 4 -11 3 -91 210 c-50 115
-122 266 -159 337 l-68 127 -11 -1 c-7 -1 -30 -5 -51 -10z"/>
<path d="M61911 60189 c-2 -12 79 -383 84 -387 9 -10 5 16 -30 185 -30 144
-52 225 -54 202z"/>
<path d="M61873 60165 c3 -11 20 -94 38 -185 l32 -165 10 -10 10 -10 -6 25
c-4 14 -21 97 -38 185 l-32 160 -10 10 -9 10 5 -20z"/>
<path d="M61496 59723 c41 -202 74 -372 74 -379 l0 -11 -202 -42 -203 -43 -10
-10 -10 -10 20 6 c11 3 107 24 213 46 l193 41 8 -6 9 -5 5 14 6 15 -8 3 -8 3
-74 373 c-40 204 -76 372 -80 372 -3 0 27 -165 67 -367z"/>
<path d="M44911 59963 c33 -42 626 -668 725 -765 l109 -107 113 -80 c61 -44
112 -77 112 -72 0 4 -44 39 -97 77 l-98 68 -126 122 c-69 66 -264 268 -433
447 -169 180 -310 327 -313 327 -3 0 1 -8 8 -17z"/>
<path d="M83346 59918 c29 -59 218 -358 226 -358 4 0 -35 68 -87 150 -53 83
-105 171 -117 195 -12 25 -26 45 -30 45 l-9 0 17 -32z"/>
<path d="M63620 59824 c0 -5 65 -322 145 -704 81 -382 224 -1077 320 -1545
195 -949 184 -899 191 -893 7 8 -639 3135 -651 3147 -3 2 -5 0 -5 -5z"/>
<path d="M45910 59742 c0 -11 238 -296 252 -301 l11 -4 -9 14 c-12 21 -245
299 -250 299 -2 0 -4 -4 -4 -8z"/>
<path d="M49290 59706 c0 -3 65 -55 145 -116 80 -62 145 -114 145 -116 0 -1
-144 -194 -320 -428 -177 -235 -317 -426 -313 -426 5 0 150 189 323 419 l315
420 13 0 12 1 -2 12 c-2 7 -14 18 -26 25 -13 7 -82 58 -152 113 -120 93 -140
107 -140 96z"/>
<path d="M48635 59487 c-144 -188 -158 -207 -148 -207 4 1 60 69 123 152 120
158 134 177 128 183 -1 2 -48 -56 -103 -128z"/>
<path d="M60837 59559 c-126 -26 -231 -50 -235 -54 l-7 -8 25 6 c14 3 120 24
235 47 116 24 212 44 214 46 14 13 -27 6 -232 -37z"/>
<path d="M62463 59517 c-222 -45 -403 -85 -403 -88 l0 -7 408 83 c224 45 416
85 427 88 l20 5 -25 0 c-14 0 -206 -37 -427 -81z"/>
<path d="M47130 59496 c0 -3 -11 -55 -25 -118 l-24 -113 -36 -89 c-41 -104
-39 -96 -21 -96 l14 0 36 90 36 90 25 116 c30 137 29 124 10 124 -8 0 -15 -2
-15 -4z"/>
<path d="M78050 59273 c32 -126 96 -365 143 -533 l86 -305 22 -117 23 -118 8
0 c12 0 10 13 -13 135 l-21 110 -103 380 c-57 209 -120 446 -141 528 l-36 147
-13 0 -13 0 58 -227z"/>
<path d="M52999 59315 c-101 -74 -264 -192 -361 -263 l-177 -127 -1 -12 c0 -7
2 -13 5 -13 6 0 329 230 587 418 l158 114 -6 9 c-3 5 -9 9 -13 9 -5 0 -91 -61
-192 -135z"/>
<path d="M46982 59410 l-12 -20 0 -27 0 -27 9 10 c8 9 25 84 19 84 -2 0 -9 -9
-16 -20z"/>
<path d="M59857 59365 c-114 -23 -210 -45 -214 -49 l-6 -6 9 0 c5 1 115 23
244 49 l235 49 -30 0 c-16 0 -123 -19 -238 -43z"/>
<path d="M61378 59251 c-120 -25 -218 -49 -218 -52 0 -4 101 14 225 40 l225
46 0 8 c0 4 -3 6 -7 6 -5 -1 -106 -22 -225 -48z"/>
<path d="M45560 59224 c0 -5 35 -44 78 -85 l77 -76 105 -75 c58 -40 111 -78
119 -83 l14 -8 -6 11 c-4 5 -53 43 -110 83 l-102 73 -87 85 c-49 46 -88 80
-88 75z"/>
<path d="M83830 59179 c0 -3 86 -169 191 -369 105 -200 198 -383 206 -407 9
-24 18 -42 21 -39 11 11 -37 112 -215 451 -165 313 -203 381 -203 364z"/>
<path d="M83800 59156 c0 -15 204 -406 213 -406 4 0 -28 66 -70 148 -101 193
-143 269 -143 258z"/>
<path d="M49160 58847 c-195 -260 -193 -257 -183 -257 4 1 69 82 143 182 175
235 184 247 179 252 -2 2 -65 -77 -139 -177z"/>
<path d="M39135 58931 c11 -5 34 -10 51 -10 16 -1 66 -12 110 -24 101 -30 607
-214 656 -238 l37 -19 52 -52 52 -52 34 -73 33 -72 7 -46 6 -45 9 0 8 0 -6 28
c-17 77 -28 109 -52 160 l-26 56 -53 53 -53 53 -40 20 c-50 25 -574 216 -660
240 -36 10 -92 21 -125 24 l-60 6 20 -9z"/>
<path d="M50380 58844 c1 -11 310 -247 317 -241 2 3 -62 55 -144 117 -81 62
-154 117 -160 123 l-13 9 0 -8z"/>
<path d="M39546 58772 c5 -5 65 -28 134 -52 69 -24 158 -59 199 -77 41 -18 76
-31 79 -28 8 7 -113 59 -269 115 -145 52 -160 56 -143 42z"/>
<path d="M49615 58503 c-82 -108 -154 -203 -159 -212 l-9 -16 21 20 c11 11 81
100 157 199 122 160 155 207 144 206 -2 0 -71 -89 -154 -197z"/>
<path d="M37944 58405 l0 -230 3 118 c2 65 2 168 0 230 l-3 112 0 -230z"/>
<path d="M61995 58585 c-110 -23 -307 -68 -439 -101 l-238 -59 14 -3 c8 -2
123 24 254 57 131 33 325 76 429 97 105 20 194 41 200 45 l9 9 -14 -1 c-8 -1
-105 -21 -215 -44z"/>
<path d="M61520 58517 c-107 -29 -200 -55 -206 -59 -6 -4 -198 -46 -425 -94
l-414 -86 -42 1 -41 0 -12 -14 -12 -15 8 0 c5 0 15 4 23 9 l14 9 24 -11 24
-11 7 10 7 10 400 83 c220 45 416 88 435 96 19 8 125 37 235 66 110 28 202 53
204 55 12 11 -52 -2 -229 -49z"/>
<path d="M55061 58546 c18 -18 1237 -351 1247 -341 7 6 9 6 -298 85 -151 39
-422 114 -602 166 -297 86 -359 102 -347 90z"/>
<path d="M59580 58512 c0 -4 175 -72 389 -152 l389 -144 -5 -12 -5 -12 21 -21
21 -21 23 0 24 0 23 25 23 25 -7 7 -6 7 -16 -22 -15 -22 -23 0 -23 0 -16 18
-17 18 10 10 10 10 -347 127 c-192 70 -372 136 -400 147 l-53 20 0 -8z"/>
<path d="M95176 58419 c-3 -8 -32 -104 -66 -214 l-61 -199 3 -15 3 -15 68 223
c37 123 66 226 63 229 -3 2 -8 -1 -10 -9z"/>
<path d="M55905 58353 c12 -12 406 -116 412 -109 5 5 -46 20 -242 71 -77 20
-149 39 -160 42 l-20 5 10 -9z"/>
<path d="M60645 58276 l-209 -42 11 -7 11 -7 203 41 204 41 10 9 9 9 -14 -1
c-8 0 -109 -20 -225 -43z"/>
<path d="M62800 57964 c-223 -46 -412 -87 -420 -90 l-15 -6 11 -4 c5 -3 84 12
175 31 90 20 281 61 424 91 143 30 262 57 264 60 10 10 -56 -2 -439 -82z"/>
<path d="M49127 57919 l-98 -120 3 -10 3 -10 103 125 c56 69 102 127 102 130
0 18 -25 -8 -113 -115z"/>
<path d="M64034 58008 c14 -59 366 -1754 366 -1762 l0 -8 14 5 14 5 21 -14 21
-15 0 -33 0 -33 -18 -16 -19 -17 -29 0 -30 0 -12 12 -12 12 -6 -6 -6 -6 24
-16 25 -16 31 6 31 6 21 23 22 24 -9 38 -8 38 -32 15 -32 15 -5 20 c-2 11 -84
405 -182 875 l-177 855 -10 10 -10 10 7 -27z"/>
<path d="M82637 57804 c-56 -20 -218 -45 -782 -119 -701 -92 -693 -91 -865
-124 -181 -36 -213 -45 -338 -100 -164 -71 -377 -208 -466 -299 l-38 -40 7
-12 7 -12 52 50 c28 27 95 81 148 119 l97 70 123 61 c68 34 156 73 197 87 l74
25 156 29 c144 28 228 40 371 56 403 45 1153 154 1253 182 l57 16 0 14 c0 16
-4 16 -53 -3z"/>
<path d="M55476 57784 c-104 -13 -194 -25 -200 -28 l-11 -4 20 -1 c34 -1 416
47 422 53 l6 6 -24 -1 c-13 -1 -109 -12 -213 -25z"/>
<path d="M55466 57744 c-98 -13 -184 -25 -190 -28 l-11 -4 19 -1 c28 -1 419
49 425 54 8 9 -64 3 -243 -21z"/>
<path d="M81385 57674 l-390 -53 -137 -35 -137 -35 -126 -60 -126 -60 -101
-66 -101 -67 -78 -71 -78 -71 5 -8 c9 -15 21 -8 85 50 35 33 107 88 159 124
l95 66 100 49 c143 71 216 99 330 127 l100 25 375 50 c206 28 392 53 413 57
l37 6 0 14 0 14 -17 -1 c-10 -1 -193 -25 -408 -55z"/>
<path d="M46540 57609 l0 -9 25 0 c14 0 25 2 25 4 0 2 -11 6 -25 8 l-25 5 0
-8z"/>
<path d="M27080 57575 c0 -2 14 -20 31 -40 l31 -35 39 0 39 0 0 10 0 10 -29 0
-29 0 -32 30 c-29 27 -50 38 -50 25z"/>
<path d="M46611 57514 c102 -140 252 -339 257 -344 3 -3 3 2 0 11 -9 23 -278
383 -290 388 -6 2 9 -23 33 -55z"/>
<path d="M80960 57514 c0 -6 4 -24 9 -40 6 -16 19 -62 31 -102 l21 -74 81 -84
c44 -46 86 -84 92 -84 l11 0 -76 78 c-93 95 -101 108 -129 207 -12 44 -26 87
-31 95 l-8 15 -1 -11z"/>
<path d="M80925 57480 c4 -19 19 -71 33 -115 l26 -80 252 -265 c265 -279 304
-318 304 -305 0 7 -157 174 -408 433 l-113 117 -29 60 c-15 34 -35 87 -43 119
-9 32 -19 61 -22 64 l-7 7 7 -35z"/>
<path d="M36994 57452 c-11 -16 -104 -110 -208 -208 -306 -290 -352 -335 -340
-332 6 2 133 116 281 255 l269 252 14 26 13 25 -5 5 -6 6 -18 -29z"/>
<path d="M46548 56905 c-2 -3 10 -105 28 -228 19 -122 34 -225 34 -229 0 -5 7
-8 15 -8 l15 0 0 19 c0 37 -40 296 -56 366 -16 69 -26 90 -36 80z"/>
<path d="M84445 56611 c6 -5 60 -28 120 -51 128 -48 147 -59 198 -114 l37 -41
0 11 c0 6 -20 31 -45 57 l-46 46 -57 21 c-31 12 -93 35 -137 52 l-80 29 10
-10z"/>
<path d="M78634 56555 l-51 -25 -31 -44 -32 -45 11 -6 c5 -4 11 -5 13 -4 1 2
14 21 29 41 l27 36 55 27 55 28 52 -7 c28 -4 59 -11 69 -17 l18 -9 6 10 6 9
-30 16 -30 15 -59 0 -58 0 -50 -25z"/>
<path d="M79482 56554 l-32 -26 -83 -34 -82 -35 35 7 c19 4 60 19 90 34 58 30
130 80 114 80 -5 0 -24 -12 -42 -26z"/>
<path d="M63656 56543 c73 -378 86 -435 98 -422 2 2 -16 103 -40 224 -24 121
-44 221 -44 223 0 1 -4 2 -10 2 l-9 0 5 -27z"/>
<path d="M54301 56511 l-13 -8 17 -37 18 -37 20 -14 20 -14 9 5 10 6 -21 19
c-11 11 -27 32 -35 48 l-15 28 6 7 c9 9 0 7 -16 -3z"/>
<path d="M79050 56421 l0 -9 20 5 c11 3 20 7 20 9 0 2 -9 4 -20 4 l-20 0 0 -9z"/>
<path d="M17035 56337 l-190 -63 11 -6 10 -7 190 61 c104 33 193 64 199 69 l9
9 -19 -1 c-11 0 -105 -28 -210 -62z"/>
<path d="M37821 56283 l-22 -88 -18 -142 -17 -143 6 0 7 0 17 138 17 137 23
93 24 92 -7 0 c-4 0 -17 -39 -30 -87z"/>
<path d="M64346 56231 l-18 -20 4 -11 3 -11 23 30 23 31 -9 0 c-5 0 -17 -9
-26 -19z"/>
<path d="M25060 56125 c0 -3 60 -34 133 -69 l132 -64 265 -170 c146 -94 267
-168 269 -166 6 6 22 -5 -282 188 l-278 177 -97 45 c-114 54 -142 65 -142 59z"/>
<path d="M35558 56038 c-21 -12 -38 -24 -38 -27 0 -9 199 -85 205 -79 3 3 -35
20 -85 39 l-90 33 0 8 c0 5 11 14 25 20 14 6 25 15 25 20 0 11 1 11 -42 -14z"/>
<path d="M36635 55893 l-260 -104 -79 -21 -79 -20 -33 5 -34 6 0 -10 0 -9 48
0 c26 0 67 5 91 11 37 8 598 225 610 235 22 19 -42 -4 -264 -93z"/>
<path d="M63355 55928 c-159 -33 -292 -62 -294 -64 -2 -2 -2 -7 2 -10 l6 -6
305 63 306 62 0 9 0 8 -17 -1 c-10 0 -148 -28 -308 -61z"/>
<path d="M63728 55973 c-20 -5 -24 -23 -5 -23 6 0 18 4 26 9 l13 9 -8 4 c-5 2
-17 3 -26 1z"/>
<path d="M25510 55924 c1 -11 360 -237 366 -231 3 3 -68 51 -158 107 -90 57
-173 110 -185 118 l-23 14 0 -8z"/>
<path d="M63020 55900 l0 -20 9 0 9 0 -5 20 c-3 11 -7 20 -9 20 -2 0 -4 -9 -4
-20z"/>
<path d="M46944 55712 l-11 -7 31 -105 c31 -102 50 -150 105 -265 l26 -55 14
9 15 10 -51 118 c-28 65 -60 152 -72 193 -12 41 -24 83 -27 93 -6 18 -13 21
-30 9z"/>
<path d="M25991 55656 c2 -2 94 -68 204 -148 170 -122 255 -181 323 -222 l12
-7 0 8 c0 4 -24 22 -53 40 -29 17 -146 99 -261 182 -115 83 -214 151 -219 151
-6 0 -8 -2 -6 -4z"/>
<path d="M61044 55543 c2 -10 7 -65 11 -123 7 -123 34 -362 40 -369 8 -7 5 38
-9 164 -8 66 -17 171 -21 233 l-8 112 -9 0 -9 0 5 -17z"/>
<path d="M13010 55295 l-175 -44 -47 -22 c-68 -32 -52 -36 24 -6 35 13 133 41
218 62 85 21 159 42 165 46 l9 9 -9 -1 c-6 -1 -89 -21 -185 -44z"/>
<path d="M50955 55230 l-29 -30 11 0 c7 0 21 14 33 30 12 17 20 30 18 30 -3 0
-17 -13 -33 -30z"/>
<path d="M26590 55246 c0 -9 74 -75 84 -76 l9 0 -19 21 c-22 25 -74 63 -74 55z"/>
<path d="M12630 55201 c-41 -21 -93 -48 -115 -59 -46 -24 -103 -39 -190 -49
l-60 -7 21 -3 c11 -2 55 0 97 6 l77 9 62 31 c83 40 186 96 195 104 l6 7 -9 0
c-5 0 -43 -17 -84 -39z"/>
<path d="M48342 55072 l83 -160 4 11 4 11 -74 145 -75 145 -12 4 -13 4 83
-160z"/>
<path d="M49041 54921 c68 -132 125 -238 127 -237 2 2 -50 110 -115 240 l-118
236 -8 0 -9 0 123 -239z"/>
<path d="M36874 55064 l-51 -24 -74 -9 c-41 -6 -110 -11 -154 -12 l-80 -2 -22
7 -23 7 0 -9 c0 -24 93 -28 255 -13 l90 9 63 27 62 28 0 8 c0 13 -8 10 -66
-17z"/>
<path d="M31495 55050 l5 -34 23 -24 c30 -33 127 -105 133 -99 3 2 -19 22 -48
43 -61 44 -88 75 -106 118 l-12 31 5 -35z"/>
<path d="M50983 55003 c2 -44 10 -55 21 -27 l6 15 -14 27 -14 27 1 -42z"/>
<path d="M52125 54742 l-140 -216 -137 -175 c-75 -97 -135 -178 -132 -180 2
-2 6 -2 7 0 2 2 62 78 133 169 l130 165 133 205 c74 113 141 215 149 228 l14
22 -8 0 c-5 -1 -72 -98 -149 -218z"/>
<path d="M53218 54933 c-8 -10 -28 -40 -43 -68 -16 -27 -75 -118 -132 -202
l-103 -152 9 -5 9 -6 129 198 c71 108 137 209 147 225 l16 27 -8 0 c-5 0 -16
-8 -24 -17z"/>
<path d="M53286 54930 c3 -14 7 -34 7 -45 l1 -20 -372 -564 c-373 -563 -418
-638 -454 -741 l-18 -55 -23 -17 -22 -18 13 0 13 0 23 25 24 26 6 34 7 35 40
78 41 77 375 567 374 567 -21 38 -21 38 7 -25z"/>
<path d="M18760 54840 c-104 -71 -203 -128 -254 -144 -10 -4 -17 -9 -14 -11 2
-3 27 2 54 11 l49 17 125 83 c69 46 136 92 150 103 l25 21 -10 -1 c-5 0 -62
-36 -125 -79z"/>
<path d="M81934 54759 l-69 -71 -45 -22 -45 -23 -75 -18 -75 -18 11 -4 c7 -2
49 5 94 17 l82 21 36 23 c43 28 168 153 161 160 -3 3 -36 -26 -75 -65z"/>
<path d="M73368 54643 l-153 -137 -4 -15 -3 -16 23 21 c248 217 317 284 294
284 -2 0 -73 -62 -157 -137z"/>
<path d="M48945 54545 c-126 -69 -234 -126 -240 -128 -5 -3 -8 -7 -5 -10 3 -3
118 55 255 129 138 74 243 134 235 133 -8 0 -118 -56 -245 -124z"/>
<path d="M50233 54622 c-51 -26 -93 -50 -93 -54 l0 -8 93 46 c99 50 103 52 96
58 -2 2 -46 -17 -96 -42z"/>
<path d="M18458 54655 c-3 -3 -83 -17 -178 -30 -95 -14 -175 -27 -178 -30 -9
-8 26 -5 196 19 l164 23 7 -21 c5 -12 23 -105 42 -208 l34 -188 7 0 8 0 -5 23
c-10 43 -65 346 -69 378 l-3 33 -10 3 c-5 2 -12 1 -15 -2z"/>
<path d="M52996 54495 c10 -8 24 -14 29 -14 l10 0 -19 14 c-11 8 -24 15 -30
15 l-10 0 20 -15z"/>
<path d="M88035 54386 l-20 -15 10 -2 c6 0 27 0 48 1 l37 2 30 -30 30 -30 0
-24 0 -23 -21 -34 c-22 -36 -21 -45 4 -35 l17 6 11 38 12 38 -7 36 -7 35 -27
20 -28 19 -34 7 -35 6 -20 -15z"/>
<path d="M50311 54336 c2 -2 62 -54 134 -116 l130 -112 110 -65 c60 -36 122
-77 137 -91 15 -14 30 -23 33 -21 10 10 -52 57 -169 128 l-119 73 -121 104
c-66 57 -125 104 -130 104 -5 0 -7 -2 -5 -4z"/>
<path d="M32790 54204 c1 -5 34 -35 75 -67 l75 -57 0 -30 0 -29 -42 -39 c-24
-22 -59 -53 -78 -70 -19 -17 -33 -33 -30 -35 3 -3 40 26 83 65 l77 70 0 38 0
38 -67 53 c-38 28 -74 56 -80 62 l-13 9 0 -8z"/>
<path d="M45740 54185 c-1 -16 -2 -82 -1 -145 l3 -115 13 -94 14 -94 9 -9 8
-8 -13 72 -14 73 -8 175 c-4 96 -9 162 -11 145z"/>
<path d="M32760 54176 c0 -2 32 -30 70 -61 l70 -57 0 -13 0 -13 -71 -61 c-88
-76 -77 -81 14 -5 l67 56 0 22 0 22 -69 57 c-64 52 -81 64 -81 53z"/>
<path d="M77529 54128 c10 -29 59 -165 109 -303 l91 -250 37 -148 37 -148 8 8
8 8 -39 155 -40 155 -104 285 -103 284 -11 4 -11 3 18 -53z"/>
<path d="M18190 54146 c0 -2 19 -55 43 -118 24 -62 59 -164 77 -226 l34 -112
8 8 9 9 -39 129 c-22 71 -57 171 -77 222 l-37 92 -9 0 c-5 0 -9 -2 -9 -4z"/>
<path d="M19950 53833 c78 -3 299 -22 355 -29 l40 -6 -10 10 -10 9 -135 12
c-74 6 -173 10 -220 9 l-85 -2 65 -3z"/>
<path d="M21654 53795 l26 -24 -1 -58 c0 -32 -6 -111 -12 -175 l-12 -118 7 0
c5 0 8 6 8 13 0 6 5 62 11 122 5 61 10 137 11 169 l1 59 -23 19 c-12 10 -27
18 -33 18 l-10 0 27 -25z"/>
<path d="M80941 53697 c-1 -15 91 -396 105 -436 2 -8 6 -12 9 -10 2 3 -23 108
-55 234 -32 127 -59 222 -59 212z"/>
<path d="M48882 53583 c-95 -47 -171 -88 -169 -90 5 -5 357 164 357 171 0 11
-15 4 -188 -81z"/>
<path d="M49050 53635 c0 -12 135 -275 186 -362 68 -116 63 -108 69 -102 2 3
-25 54 -61 114 -37 61 -92 165 -124 233 -50 105 -70 138 -70 117z"/>
<path d="M52345 53630 l-6 -10 10 0 c5 0 13 5 16 10 l6 10 -10 0 c-5 0 -13 -4
-16 -10z"/>
<path d="M51084 53598 c-27 -18 -98 -58 -159 -90 -60 -31 -104 -57 -97 -58 31
-1 312 157 312 175 0 8 -5 6 -56 -27z"/>
<path d="M9205 53593 c-63 -7 -152 -27 -195 -43 -25 -9 -54 -20 -64 -24 -10
-3 -17 -9 -14 -12 3 -2 27 4 54 14 60 23 177 48 262 56 l63 6 36 -15 c20 -8
38 -13 41 -10 3 2 -11 12 -31 20 l-36 15 -43 -1 c-24 -1 -56 -4 -73 -6z"/>
<path d="M13837 53582 l-5 -7 176 -142 175 -142 9 5 8 5 -33 28 c-55 47 -301
247 -314 254 l-12 7 -4 -8z"/>
<path d="M30203 53485 c0 -60 3 -175 7 -255 l6 -145 1 205 1 205 -8 50 -7 50
0 -110z"/>
<path d="M9210 53554 c-14 -2 -50 -9 -80 -14 l-55 -11 -287 -107 c-158 -59
-282 -109 -277 -110 5 -2 124 40 265 93 290 110 326 121 443 135 l83 9 34 -14
34 -14 0 9 c0 4 -14 13 -31 19 l-32 11 -36 -1 c-20 -1 -47 -3 -61 -5z"/>
<path d="M12957 53203 l-234 -338 5 -9 6 -10 17 25 c16 21 88 125 392 561 l67
97 -9 6 -10 5 -234 -337z"/>
<path d="M65476 53412 c-120 -25 -214 -48 -208 -50 14 -4 421 77 442 89 l15 8
-15 0 c-8 -1 -114 -22 -234 -47z"/>
<path d="M8410 53329 c-64 -23 -228 -64 -315 -78 l-60 -10 75 5 c41 3 102 12
135 20 74 18 245 74 245 80 0 8 -25 2 -80 -17z"/>
<path d="M50465 53280 l-6 -10 10 0 c6 0 11 5 11 10 0 6 -2 10 -4 10 -3 0 -8
-4 -11 -10z"/>
<path d="M52448 53266 l-17 -24 -108 -7 -108 -8 20 -7 20 -7 90 9 90 10 13 11
c7 6 18 19 23 29 l10 18 -8 0 c-4 0 -16 -11 -25 -24z"/>
<path d="M6615 53248 l-280 -19 -58 11 c-32 6 -64 13 -72 17 l-15 5 0 -10 0
-9 62 -13 61 -13 299 18 298 18 103 -6 102 -6 -50 9 c-27 4 -77 10 -110 12
l-60 5 -280 -19z"/>
<path d="M52136 53224 l-20 -14 7 -6 6 -6 21 15 21 15 -8 5 -8 5 -19 -14z"/>
<path d="M11485 53170 c-3 -5 -49 -38 -103 -73 l-97 -64 -47 -11 -47 -12 -15
6 -16 6 0 -11 0 -11 28 0 c15 0 45 5 67 11 l39 11 81 54 c44 29 94 64 110 78
l30 25 -12 1 c-6 0 -14 -4 -18 -10z"/>
<path d="M10242 53165 c9 -9 441 -135 446 -130 6 6 13 4 -227 75 -197 58 -230
66 -219 55z"/>
<path d="M12845 52942 c-82 -119 -181 -261 -218 -314 l-68 -98 13 0 13 0 147
213 c81 116 179 258 218 315 l71 102 -13 0 -13 -1 -150 -217z"/>
<path d="M51170 53055 c-69 -35 -122 -64 -118 -64 4 -1 62 26 130 59 l123 61
21 -5 c12 -3 30 -8 41 -12 l18 -5 -25 15 c-14 8 -34 15 -45 15 l-20 0 -125
-64z"/>
<path d="M21646 52858 c-3 -62 -7 -164 -9 -225 l-3 -113 6 0 7 0 7 221 c8 232
2 311 -8 117z"/>
<path d="M34293 52959 c-18 -5 -33 -11 -33 -14 0 -2 -20 -79 -45 -171 -25 -92
-44 -169 -41 -171 3 -3 10 15 16 38 53 199 79 292 85 297 3 4 25 12 48 19 l42
11 -20 0 c-11 0 -35 -4 -52 -9z"/>
<path d="M51456 52885 l-6 -25 -90 -45 c-50 -25 -90 -47 -90 -50 0 -9 165 77
188 98 22 21 30 47 13 47 l-9 0 -6 -25z"/>
<path d="M65538 52841 l-217 -46 -8 -9 -8 -8 20 5 c11 4 112 25 225 48 113 23
209 46 215 50 l9 9 -9 -1 c-6 -1 -108 -22 -227 -48z"/>
<path d="M52461 52815 c0 -5 16 -41 37 -80 l37 -70 20 -3 20 -2 78 46 c43 25
77 48 74 50 -2 2 -41 -17 -87 -43 l-83 -47 -14 20 c-8 10 -30 46 -49 79 -18
33 -33 56 -33 50z"/>
<path d="M31220 52539 c-129 -116 -277 -243 -328 -282 l-93 -70 -95 -11 c-52
-5 -94 -13 -94 -16 l0 -6 83 8 c45 4 91 10 103 13 32 7 159 111 414 339 129
115 239 213 244 218 5 4 8 10 5 12 -3 3 -110 -89 -239 -205z"/>
<path d="M48380 52738 l0 -13 29 -17 30 -16 11 13 10 12 -24 17 c-14 9 -32 16
-41 16 l-15 0 0 -12z"/>
<path d="M27716 52583 c-4 -87 -11 -223 -16 -303 -9 -135 -23 -440 -35 -760
-3 -74 -3 -130 -1 -125 3 6 10 96 15 200 31 568 33 603 46 935 3 80 8 160 11
178 l5 32 -9 0 -9 0 -7 -157z"/>
<path d="M27756 52578 c-3 -90 -9 -192 -12 -228 l-6 -65 8 8 9 9 11 211 10
212 -7 8 -6 8 -7 -163z"/>
<path d="M52731 52724 l1 -19 5 13 5 13 -6 6 -6 6 1 -19z"/>
<path d="M26843 52618 c34 -51 79 -120 101 -153 l39 -60 14 -105 14 -105 -5
-160 -5 -160 10 45 10 45 -5 185 -5 185 -9 37 -10 36 -77 124 c-84 131 -116
177 -127 177 -4 1 21 -41 55 -91z"/>
<path d="M52651 52645 l-114 -55 5 -6 6 -5 111 55 c61 31 111 58 111 61 0 7 6
10 -119 -50z"/>
<path d="M85585 52464 l-179 -134 13 0 14 0 173 128 c156 115 189 143 167 141
-5 0 -89 -61 -188 -135z"/>
<path d="M15354 52529 l-5 -9 18 -7 c10 -4 202 -82 428 -175 l409 -168 8 8 8
8 -273 111 c-149 62 -343 141 -429 176 l-158 65 -6 -9z"/>
<path d="M21676 52489 c-3 -19 -8 -122 -11 -229 l-7 -195 6 6 c7 7 28 440 22
447 -3 2 -7 -11 -10 -29z"/>
<path d="M50780 52504 l0 -22 15 -12 c19 -16 19 -10 0 26 l-15 29 0 -21z"/>
<path d="M16240 52222 c0 -4 48 -28 108 -52 59 -24 152 -63 207 -87 l99 -43 8
8 9 9 -208 86 c-114 48 -211 87 -215 87 -5 0 -8 -4 -8 -8z"/>
<path d="M88975 51980 l-6 -9 30 -16 c17 -8 39 -15 49 -15 l20 0 23 20 24 19
-11 1 c-6 0 -25 -5 -43 -11 l-31 -11 -25 16 -24 16 -6 -10z"/>
<path d="M22401 51900 l0 -25 14 -25 c18 -32 19 -16 0 35 l-14 40 0 -25z"/>
<path d="M35637 51678 c18 -117 33 -219 33 -225 0 -7 4 -13 8 -13 l8 0 -33
213 c-18 116 -33 218 -33 225 0 6 -4 12 -8 12 l-8 0 33 -212z"/>
<path d="M27034 51645 l-9 -225 6 0 7 0 6 178 c3 97 8 198 10 225 l3 47 -7 0
-7 0 -9 -225z"/>
<path d="M27716 51768 c-9 -97 -19 -384 -13 -378 6 6 30 431 24 437 -3 2 -7
-24 -11 -59z"/>
<path d="M22410 51800 l0 -13 7 6 6 7 -6 7 -7 6 0 -13z"/>
<path d="M90752 51593 c-102 -190 -104 -193 -98 -193 5 0 46 74 131 233 31 59
54 107 52 107 -3 0 -41 -66 -85 -147z"/>
<path d="M22380 51640 l0 -13 7 6 6 7 -6 7 -7 6 0 -13z"/>
<path d="M91260 51582 c0 -4 50 -32 110 -62 61 -30 110 -57 110 -60 0 -3 -54
-104 -119 -225 l-120 -219 6 -9 5 -9 124 229 c68 125 124 233 124 238 l0 10
-115 58 c-122 60 -125 62 -125 49z"/>
<path d="M88055 51339 c-93 -72 -176 -136 -183 -143 l-14 -14 9 -5 9 -6 165
125 c90 69 173 132 184 140 l19 14 -9 9 -10 9 -170 -129z"/>
<path d="M34100 51350 c0 -5 5 -10 10 -10 6 0 10 5 10 10 0 6 -4 10 -10 10 -5
0 -10 -4 -10 -10z"/>
<path d="M33470 51312 l0 -8 183 3 c252 5 261 10 20 12 l-203 1 0 -8z"/>
<path d="M34060 51260 l0 -13 7 6 6 7 -6 7 -7 6 0 -13z"/>
<path d="M34151 51253 l-13 -14 6 -7 6 -6 16 16 16 16 -9 5 -8 5 -14 -15z"/>
<path d="M60811 51186 c2 -2 101 -25 219 -51 118 -25 222 -48 230 -51 l15 -5
-10 9 -10 10 -210 46 c-197 43 -244 52 -234 42z"/>
<path d="M28395 51010 l-6 -10 8 -1 c4 -1 13 -2 18 -4 6 -1 20 -3 32 -3 l23
-2 6 -26 7 -25 9 9 9 9 -12 25 -11 26 -30 6 c-41 8 -46 8 -53 -4z"/>
<path d="M61711 50813 c-18 -82 -34 -159 -37 -173 l-5 -25 9 15 c12 19 76 319
70 326 -3 2 -19 -62 -37 -143z"/>
<path d="M26775 50749 c-4 -99 -5 -183 -2 -185 3 -3 8 57 11 133 3 76 8 159
11 186 l4 47 -8 0 -8 0 -8 -181z"/>
<path d="M27790 50903 l0 -10 191 -7 191 -7 6 5 c3 3 3 8 1 10 -2 3 -91 8
-197 12 l-192 7 0 -10z"/>
<path d="M18214 50833 c-49 -91 -71 -124 -145 -217 l-62 -79 14 5 c8 2 42 40
76 84 l62 79 55 98 54 97 -8 0 c-5 0 -26 -30 -46 -67z"/>
<path d="M13610 50836 c0 -2 39 -28 88 -59 l87 -56 85 -75 c74 -67 100 -85
100 -72 0 10 -197 170 -266 214 -74 48 -94 58 -94 48z"/>
<path d="M33543 50810 c4 -19 20 -127 37 -240 61 -405 89 -583 95 -588 11 -11
4 52 -25 235 -81 510 -99 615 -106 621 l-7 7 6 -35z"/>
<path d="M33500 50823 c0 -21 131 -838 136 -842 9 -9 2 38 -61 435 -55 348
-75 455 -75 407z"/>
<path d="M32445 50755 c3 -17 19 -117 35 -224 17 -107 33 -197 35 -200 8 -8 7
6 -26 224 l-32 210 -9 10 -8 9 5 -29z"/>
<path d="M27764 50305 l0 -210 3 108 c2 59 2 154 0 210 l-3 102 0 -210z"/>
<path d="M30750 50478 c-52 -5 -133 -12 -180 -16 l-85 -7 -7 -45 -7 -45 7 -45
7 -45 5 85 5 85 175 13 c96 8 177 15 179 18 9 9 -8 9 -99 2z"/>
<path d="M35851 50447 c-2 -15 70 -481 74 -486 8 -7 6 6 -25 230 -26 182 -46
286 -49 256z"/>
<path d="M38296 49953 c-18 -62 -95 -397 -92 -401 6 -5 14 25 66 242 22 93 38
171 36 173 -2 3 -7 -4 -10 -14z"/>
<path d="M23280 49720 c41 -4 141 -10 223 -12 l147 -3 0 7 0 8 -83 0 c-46 0
-146 2 -223 5 l-139 4 75 -9z"/>
<path d="M75830 49348 c1 -13 9 -110 19 -216 16 -174 23 -214 35 -201 2 2 -5
92 -15 199 -10 107 -18 205 -19 218 l0 22 -10 0 -10 0 0 -22z"/>
<path d="M84926 49134 c161 -208 184 -236 184 -220 0 9 -232 301 -242 305 -6
2 20 -36 58 -85z"/>
<path d="M37953 49143 l7 -6 7 6 6 7 -13 0 -13 0 6 -7z"/>
<path d="M37924 49080 c2 -14 19 -115 37 -225 l32 -200 10 -10 9 -10 -5 20
c-3 11 -20 108 -37 215 -17 107 -35 204 -41 215 l-9 20 4 -25z"/>
<path d="M37960 49096 c0 -15 71 -431 75 -445 3 -8 8 -12 11 -9 2 3 -12 104
-32 224 l-36 219 -9 10 -9 9 0 -8z"/>
<path d="M33791 49015 c0 -5 13 -100 28 -210 16 -110 28 -201 27 -202 -1 -1
-96 -7 -211 -13 -116 -7 -212 -14 -215 -17 -6 -6 284 5 373 14 l57 6 0 -16 0
-15 -137 -7 c-76 -4 -174 -11 -218 -16 l-80 -8 145 5 c80 2 179 7 220 10 l76
6 29 -211 28 -211 7 0 6 0 -28 198 c-15 108 -27 204 -26 212 2 8 -1 21 -6 28
-4 7 -6 15 -4 17 2 2 127 11 277 19 150 8 275 17 278 20 l6 6 -24 0 c-13 0
-139 -7 -279 -15 -140 -8 -256 -13 -257 -11 -2 2 -15 88 -29 192 -14 104 -29
198 -34 209 -5 11 -9 16 -9 10z"/>
<path d="M91403 48727 c-72 -84 -154 -181 -181 -217 -28 -36 -145 -163 -261
-284 l-210 -218 -28 -47 c-45 -77 -145 -198 -435 -528 -153 -173 -278 -319
-278 -324 0 -10 505 558 608 683 35 43 82 107 106 144 l44 66 216 227 216 227
56 75 c46 60 157 191 277 327 l20 22 -9 0 c-5 -1 -68 -69 -141 -153z"/>
<path d="M76420 48859 c-28 -7 -351 -48 -382 -49 -5 0 -8 -5 -8 -11 l0 -12 83
7 c108 9 279 32 345 46 l52 12 0 9 0 9 -27 -1 c-16 -1 -44 -5 -63 -10z"/>
<path d="M91439 48708 c-68 -78 -153 -178 -188 -223 -35 -44 -114 -132 -176
-195 -61 -63 -151 -158 -200 -210 l-88 -95 -43 -65 c-64 -98 -116 -161 -478
-570 l-332 -376 -59 -103 -59 -103 -34 -15 c-19 -8 -32 -16 -30 -19 3 -2 21 2
41 11 l36 15 58 102 58 103 305 345 c383 432 428 486 496 587 l54 82 87 93
c48 51 137 145 198 208 62 63 141 151 175 195 58 72 224 267 288 337 14 15 23
30 20 33 -2 3 -61 -59 -129 -137z"/>
<path d="M46706 48804 l-28 -16 10 -10 10 -10 31 17 32 16 -6 9 c-8 13 -15 12
-49 -6z"/>
<path d="M35833 48671 l-221 -16 -9 -8 -8 -9 70 7 c39 3 160 12 269 20 109 8
201 17 204 20 7 7 -51 5 -305 -14z"/>
<path d="M34817 48655 l-228 -13 -7 -7 -7 -8 100 7 c55 3 164 9 243 12 l142 7
0 8 c0 5 -3 8 -7 8 -5 -1 -111 -7 -236 -14z"/>
<path d="M40413 48650 l-23 -9 0 -11 c0 -13 12 -13 44 0 l26 10 0 10 0 10 -12
-1 c-7 0 -23 -4 -35 -9z"/>
<path d="M16355 48559 l60 -31 43 -42 44 -41 19 -38 20 -38 -7 -45 -6 -44 11
0 11 0 0 50 0 51 -19 37 -19 37 -44 41 -43 42 -52 26 c-29 14 -58 26 -65 26
-7 -1 14 -15 47 -31z"/>
<path d="M33916 48418 c12 -90 40 -288 60 -440 l38 -278 9 0 8 0 -5 18 c-2 9
-31 207 -62 440 -32 232 -61 422 -64 422 l-6 0 22 -162z"/>
<path d="M66810 48511 c0 -13 3 -14 248 -62 l212 -42 7 7 6 6 -6 6 c-6 7 -429
94 -454 94 l-13 0 0 -9z"/>
<path d="M32833 48245 c3 -11 22 -131 44 -267 l38 -248 8 0 8 0 -5 18 c-3 9
-21 125 -42 257 l-37 240 -10 10 -9 10 5 -20z"/>
<path d="M36230 48019 c0 -8 21 -156 46 -329 l47 -315 9 -10 10 -10 -6 30 c-3
17 -26 167 -51 334 -40 268 -55 349 -55 300z"/>
<path d="M84020 48025 c1 -6 53 -80 117 -165 63 -85 113 -147 110 -138 -6 16
-185 267 -214 298 l-13 14 0 -9z"/>
<path d="M83986 47998 c26 -43 227 -308 231 -305 5 6 -220 316 -230 317 l-8 0
7 -12z"/>
<path d="M33980 47675 c0 -21 41 -270 51 -309 6 -23 15 -58 20 -80 6 -21 12
-36 15 -34 2 3 -7 52 -20 109 -14 57 -30 147 -37 199 -6 52 -16 102 -20 110
l-8 15 -1 -10z"/>
<path d="M74830 47603 c0 -10 5 -25 10 -33 l10 -15 0 27 0 27 -10 6 -10 6 0
-18z"/>
<path d="M37280 47419 l-265 -17 -152 -1 -153 -1 0 -9 0 -9 153 5 c205 6 778
41 785 48 8 8 -74 4 -368 -16z"/>
<path d="M38245 47428 c2 -7 16 -92 31 -188 l28 -174 4 13 c2 7 -8 91 -24 187
l-27 174 -8 0 -8 0 4 -12z"/>
<path d="M37830 47409 c-305 -13 -754 -39 -759 -44 -7 -7 68 -6 229 5 80 5
318 16 530 25 212 9 387 19 389 21 6 6 -155 3 -389 -7z"/>
<path d="M36438 47343 c50 -2 134 -2 185 0 l92 3 -185 0 -185 0 93 -3z"/>
<path d="M31837 47195 c3 -77 9 -176 13 -220 l9 -80 -6 175 c-3 96 -9 195 -14
220 l-8 45 6 -140z"/>
<path d="M18175 47157 c-99 -40 -189 -76 -199 -80 -10 -4 -17 -10 -14 -13 5
-4 406 151 417 162 16 15 -48 -6 -204 -69z"/>
<path d="M20667 47133 l-17 -48 -29 -162 -28 -163 7 0 7 0 27 160 28 161 19
49 19 50 -8 0 c-4 0 -16 -21 -25 -47z"/>
<path d="M32964 47163 c3 -10 8 -54 12 -99 l6 -81 -68 -6 c-38 -4 -172 -11
-299 -17 -218 -11 -282 -16 -274 -25 2 -2 147 5 322 14 l318 18 8 9 9 9 -11
98 -11 97 -9 0 -8 0 5 -17z"/>
<path d="M34750 46745 l0 -175 10 0 10 0 0 175 0 175 -10 0 -10 0 0 -175z"/>
<path d="M29090 46787 c-181 -8 -210 -11 -199 -20 5 -4 520 20 559 26 46 7
-163 4 -360 -6z"/>
<path d="M37335 46615 l0 -25 8 0 7 0 0 25 0 25 -7 0 -8 0 0 -25z"/>
<path d="M36846 46355 l5 -160 17 -67 16 -68 9 0 8 0 -7 23 c-4 12 -13 45 -20
72 l-14 50 -1 95 c-1 52 -5 122 -9 155 l-9 60 5 -160z"/>
<path d="M52030 46484 c0 -14 173 -374 178 -369 4 4 -168 375 -175 375 -1 0
-3 -3 -3 -6z"/>
<path d="M93277 46483 l-5 -9 105 -144 c57 -80 122 -169 143 -198 l38 -54 6
10 6 10 -136 188 c-75 104 -140 193 -144 197 l-8 9 -5 -9z"/>
<path d="M24461 46417 l-21 -23 0 -32 0 -32 15 0 15 0 0 30 0 31 15 5 15 6 0
13 c0 8 -4 16 -9 19 l-8 5 -22 -22z"/>
<path d="M49212 46341 c14 -42 184 -391 190 -391 4 0 -23 62 -59 138 -36 75
-78 165 -94 200 -15 34 -31 62 -34 62 -4 0 -5 -4 -3 -9z"/>
<path d="M30697 46095 c3 -82 9 -170 14 -195 l7 -45 -5 150 c-3 83 -9 170 -14
195 l-7 45 5 -150z"/>
<path d="M30737 46070 l6 -175 8 -20 7 -20 -5 140 c-3 77 -9 165 -13 195 l-8
55 5 -175z"/>
<path d="M47410 46038 c-135 -45 -247 -82 -249 -84 -2 -2 -2 -6 0 -9 6 -6 490
154 504 166 l9 9 -9 -1 c-6 -1 -120 -37 -255 -81z"/>
<path d="M93091 46095 l15 -15 75 -13 76 -14 24 -16 23 -17 51 0 50 0 63 32
c34 18 62 35 62 39 0 4 -26 -6 -58 -22 l-58 -30 -40 -6 -41 -5 -43 22 -43 22
-66 9 -66 10 -9 9 c-6 6 -15 10 -20 10 l-10 0 15 -15z"/>
<path d="M93060 46071 c0 -4 16 -15 35 -24 l36 -17 32 0 32 0 53 -25 54 -25
54 0 54 0 71 36 c39 19 69 38 66 40 -3 3 -33 -9 -67 -26 l-62 -31 -47 -6 -47
-5 -52 26 -51 26 -38 0 -38 0 -42 20 -43 19 0 -8z"/>
<path d="M39911 45993 l34 -63 109 -107 109 -108 -104 113 -104 113 -26 45
c-15 25 -32 51 -39 57 l-13 12 34 -62z"/>
<path d="M81370 45886 c-4 -13 -14 -43 -20 -67 -6 -24 -20 -68 -32 -97 l-21
-53 -29 -6 -29 -6 8 -21 c8 -24 8 -41 -2 -76 l-6 -25 15 25 15 25 -5 32 -6 32
25 6 26 7 15 38 c19 48 65 210 60 210 -3 0 -9 -11 -14 -24z"/>
<path d="M49385 45880 l-6 -10 15 6 c18 7 21 14 7 14 -6 0 -13 -4 -16 -10z"/>
<path d="M51890 45799 l0 -10 10 6 c6 3 10 8 10 11 0 2 -4 4 -10 4 -5 0 -10
-5 -10 -11z"/>
<path d="M89060 45239 c-102 -77 -192 -147 -200 -156 l-15 -16 15 9 c19 10
370 272 390 290 l14 14 -9 -1 c-6 0 -93 -63 -195 -140z"/>
<path d="M87768 44285 c-4 -11 -22 -58 -42 -105 l-35 -85 22 -21 c12 -11 46
-57 76 -102 l54 -82 12 16 12 16 124 -195 c68 -108 126 -194 128 -192 2 3 -53
95 -122 205 l-127 201 41 75 c23 41 39 77 37 79 -2 3 -21 -27 -42 -65 -20 -39
-40 -70 -44 -70 -4 0 -20 24 -37 52 -16 28 -40 63 -51 77 l-22 26 39 83 38 82
-8 0 c-5 0 -25 -39 -46 -86 l-37 -86 20 -22 c30 -33 92 -135 92 -151 0 -29
-16 -14 -60 57 -24 39 -52 79 -62 87 -24 21 -23 25 18 120 l35 82 -4 12 -3 11
-6 -19z"/>
<path d="M40871 43549 l-84 -9 -103 -50 -104 -50 0 -11 0 -11 25 16 c14 9 66
34 116 56 l91 41 93 6 92 6 32 -11 31 -11 0 8 c0 10 -62 31 -86 30 -10 -1 -57
-6 -103 -10z"/>
<path d="M34533 43447 l-32 -66 -89 -121 c-50 -66 -87 -120 -83 -120 12 0 55
50 123 145 l65 90 28 58 27 57 -4 12 -4 12 -31 -67z"/>
<path d="M50768 43265 c-31 -8 -202 -55 -380 -106 l-323 -91 -10 -10 -10 -11
15 5 c63 22 682 195 745 209 l80 17 -30 0 c-16 0 -55 -6 -87 -13z"/>
<path d="M52110 43055 c0 -13 196 -395 202 -395 5 0 -37 90 -92 200 -88 176
-110 215 -110 195z"/>
<path d="M41800 42813 c-91 -41 -169 -79 -175 -84 -11 -11 171 68 290 126 127
61 53 35 -115 -42z"/>
<path d="M50593 42664 c6 -165 10 -195 22 -183 2 3 2 85 -2 182 l-6 177 -10 0
-10 0 6 -176z"/>
<path d="M50650 42660 l0 -180 10 0 10 0 0 180 0 180 -10 0 -10 0 0 -180z"/>
<path d="M50835 42489 c-71 -10 -134 -18 -139 -18 l-9 -1 5 -5 5 -6 164 21
c158 20 210 31 138 29 -19 -1 -92 -9 -164 -20z"/>
<path d="M39578 42380 l-67 -91 -6 -54 -7 -55 6 -68 c4 -37 12 -94 18 -127
l12 -60 29 -50 c16 -27 45 -67 65 -88 38 -40 141 -112 149 -104 2 3 -15 16
-39 30 l-43 25 -52 54 -51 55 -25 49 -24 49 -11 65 c-6 36 -14 94 -17 130 l-6
65 14 50 13 51 62 82 c35 45 59 82 54 82 -4 0 -38 -41 -74 -90z"/>
<path d="M52511 42250 c0 -42 179 -390 200 -390 4 0 -21 50 -57 111 -35 60
-82 151 -104 202 -21 51 -39 85 -39 77z"/>
<path d="M52470 42232 c0 -32 178 -373 202 -388 l10 -6 -17 32 c-9 18 -38 69
-65 114 -26 44 -64 120 -85 169 -35 81 -45 99 -45 79z"/>
<path d="M31081 41772 l-170 -237 -43 -42 c-24 -22 -169 -136 -323 -253 l-280
-212 -3 -15 -4 -16 229 174 c369 280 377 286 410 321 29 31 373 504 373 514 0
23 -44 -31 -189 -234z"/>
<path d="M50596 41823 c-3 -60 -9 -180 -12 -269 l-7 -161 10 -6 10 -6 7 172
c3 94 9 218 13 275 l6 102 -10 0 -10 0 -7 -107z"/>
<path d="M30914 41633 c-34 -53 -110 -126 -206 -201 -87 -66 -112 -92 -92 -92
10 0 175 130 222 174 42 40 112 127 112 140 0 15 -19 4 -36 -21z"/>
<path d="M58845 41040 l240 -5 15 -8 15 -8 -19 15 -20 16 -235 -2 -236 -2 240
-6z"/>
<path d="M57313 40883 c65 -2 168 -2 230 0 l112 3 -230 0 -230 0 118 -3z"/>
<path d="M84816 39968 c4 -7 44 -67 89 -133 45 -66 162 -252 260 -412 98 -161
181 -293 186 -293 l9 0 -42 68 c-22 37 -97 159 -165 272 -138 227 -324 509
-336 510 l-8 0 7 -12z"/>
<path d="M84783 39948 c2 -7 42 -67 87 -133 45 -66 102 -155 127 -197 25 -43
49 -78 54 -78 l8 0 -36 63 c-46 79 -233 357 -240 357 -3 0 -3 -6 0 -12z"/>
<path d="M48348 39853 c-24 -32 -75 -97 -112 -145 -37 -49 -64 -88 -59 -88 11
0 227 280 221 286 -3 2 -25 -22 -50 -53z"/>
<path d="M45410 39655 c0 -11 5 -27 10 -35 l10 -15 0 20 c0 11 -5 27 -10 35
l-10 15 0 -20z"/>
<path d="M42650 39308 l-135 -49 -310 -70 c-333 -75 -349 -79 -342 -85 2 -2
143 27 313 66 l309 70 150 51 c155 54 161 57 154 63 -2 2 -65 -19 -139 -46z"/>
<path d="M52020 39020 c0 -5 3 -10 8 -10 12 0 676 -123 1077 -200 116 -22 217
-40 225 -40 l14 0 -9 8 c-6 5 -100 25 -210 45 -282 52 -644 120 -890 167 -244
46 -215 42 -215 30z"/>
<path d="M62807 38853 c-3 -10 -9 -49 -13 -88 l-7 -70 -29 -75 c-16 -41 -40
-96 -54 -122 l-25 -48 8 0 c12 0 66 105 91 175 l21 60 11 89 c10 82 9 121 -3
79z"/>
<path d="M52891 38816 c4 -4 153 -34 639 -127 113 -21 214 -39 225 -38 l20 0
-20 9 c-11 5 -110 25 -220 45 -110 20 -295 54 -410 76 -204 38 -243 44 -234
35z"/>
<path d="M59970 38784 c0 -3 26 -49 58 -102 l57 -96 69 -69 c38 -37 78 -73 90
-79 l21 -11 -86 85 -86 85 -58 97 c-53 89 -65 105 -65 90z"/>
<path d="M55337 38703 l-6 -9 62 -70 c67 -75 241 -229 260 -229 l12 0 0 12 0
12 -91 78 c-51 43 -118 107 -150 143 -57 64 -77 79 -87 63z"/>
<path d="M60030 38072 l0 -11 -97 -87 -98 -87 -160 -107 c-89 -58 -198 -126
-243 -150 -45 -24 -80 -46 -77 -48 8 -9 203 103 346 199 l145 97 76 66 c41 37
85 80 97 97 l23 31 -6 5 -6 6 0 -11z"/>
<path d="M60410 37699 c141 -133 230 -212 234 -208 5 5 -301 289 -311 289 -4
-1 30 -37 77 -81z"/>
<path d="M91187 37658 c6 -35 20 -58 34 -58 l8 0 -15 28 c-7 15 -14 35 -14 45
l0 17 -10 0 -9 0 6 -32z"/>
<path d="M82522 37560 c4 -21 241 -391 246 -385 4 4 -61 111 -191 310 -32 50
-57 83 -55 75z"/>
<path d="M86125 37204 c-159 -107 -294 -196 -300 -198 l-10 -3 6 -6 5 -6 295
196 c326 217 304 202 298 207 -2 2 -134 -84 -294 -190z"/>
<path d="M60243 37280 c-24 -11 -60 -22 -80 -25 -57 -10 -284 -77 -279 -83 3
-2 51 9 108 26 57 17 121 33 143 37 50 9 155 47 155 57 0 10 4 11 -47 -12z"/>
<path d="M40758 36646 c-75 -17 -140 -35 -145 -40 l-8 -9 25 6 c14 3 87 20
163 38 l139 31 9 -9 9 -9 70 -484 c73 -506 79 -544 86 -537 2 2 -29 235 -71
518 -41 283 -75 517 -75 522 l0 7 -32 -1 c-18 -1 -95 -15 -170 -33z"/>
<path d="M85900 36396 c0 -24 207 -288 262 -334 l33 -27 -81 95 c-44 52 -106
131 -138 175 -32 44 -63 84 -67 90 l-9 9 0 -8z"/>
<path d="M39856 36170 c3 -63 11 -263 19 -444 l14 -328 7 -7 7 -6 -6 115 c-4
63 -12 255 -18 425 l-11 310 -8 25 -9 25 5 -115z"/>
<path d="M80387 35777 c-240 -126 -435 -232 -433 -235 5 -5 864 443 881 459
l9 9 -9 -1 c-6 -1 -207 -105 -448 -232z"/>
<path d="M80862 35995 c18 -39 252 -414 256 -410 5 5 -224 383 -246 405 -8 8
-13 11 -10 5z"/>
<path d="M84636 35479 c-137 -87 -244 -159 -238 -159 6 0 121 70 255 155 l244
155 39 0 39 -1 26 -22 26 -22 53 -95 c29 -52 80 -133 115 -180 34 -47 142
-215 240 -375 98 -159 185 -298 193 -308 24 -27 26 -12 4 20 -12 15 -98 154
-192 308 -95 154 -200 318 -235 365 -34 47 -86 128 -115 180 l-52 95 -27 22
-26 22 -50 0 -50 0 -249 -160z"/>
<path d="M84917 35603 c-22 -6 -1245 -789 -1267 -811 l-15 -15 35 20 c19 11
306 194 636 406 l602 387 26 0 26 0 20 -20 c11 -11 33 -46 49 -78 16 -32 56
-94 88 -137 32 -44 142 -215 242 -380 101 -165 198 -318 214 -340 17 -22 32
-42 34 -44 2 -2 5 -2 8 1 l6 5 -24 29 c-14 16 -110 170 -216 341 -105 172
-217 348 -248 390 -32 43 -75 111 -96 150 l-38 72 -22 16 c-22 15 -28 16 -60
8z"/>
<path d="M79815 35430 l-130 -69 -128 -42 c-70 -23 -126 -43 -124 -46 3 -2 56
12 119 31 l113 36 140 71 c77 40 144 76 150 80 l9 9 -9 0 c-6 0 -68 -32 -140
-70z"/>
<path d="M83810 34949 c-202 -132 -195 -127 -189 -133 4 -3 369 230 385 247
l7 7 -9 0 c-5 -1 -92 -55 -194 -121z"/>
<path d="M30900 34665 l0 -225 10 0 10 0 0 225 0 225 -10 0 -10 0 0 -225z"/>
<path d="M1802 34417 c-27 -118 -62 -318 -62 -357 0 -5 4 -10 8 -10 l9 0 17
123 c9 67 31 178 47 246 l29 125 -7 7 -8 8 -33 -142z"/>
<path d="M54601 34537 c-1 -5 8 -92 20 -194 l20 -186 -10 -7 c-6 -3 -196 -30
-423 -59 l-413 -54 -10 -9 -9 -8 29 5 c68 12 796 105 824 105 l30 0 6 10 6 10
-9 0 -9 0 -17 168 c-15 142 -32 248 -35 219z"/>
<path d="M32960 34524 l0 -9 233 -69 c127 -38 238 -71 245 -73 l12 -5 0 9 0 8
-232 69 c-128 38 -239 71 -245 74 l-13 4 0 -8z"/>
<path d="M51411 34477 c-1 -5 -15 -105 -31 -224 -17 -118 -29 -217 -26 -220 6
-7 13 31 41 240 14 104 24 194 21 200 -2 7 -5 8 -5 4z"/>
<path d="M80540 34467 c0 -10 92 -183 112 -210 l13 -18 85 46 c47 25 89 51 95
57 5 6 -30 -10 -79 -35 -48 -26 -92 -47 -97 -47 -4 0 -29 40 -54 88 -45 89
-74 134 -75 119z"/>
<path d="M77312 34292 l-134 -66 -76 -6 -77 -6 55 -7 55 -7 45 18 c59 23 270
131 270 137 0 7 12 12 -138 -63z"/>
<path d="M53753 33991 l-413 -56 0 -8 0 -7 23 5 c12 3 208 30 436 60 228 30
417 57 419 60 10 10 -57 2 -465 -54z"/>
<path d="M52648 33837 c-115 -16 -208 -33 -208 -36 l0 -7 215 32 c118 17 218
34 222 37 l6 7 -14 -1 c-8 -1 -107 -15 -221 -32z"/>
<path d="M57880 33710 c0 -9 21 -64 46 -124 l45 -108 15 -87 c16 -95 24 -125
30 -118 2 2 -5 50 -15 108 l-20 104 -50 120 c-28 66 -50 113 -51 105z"/>
<path d="M77846 33518 c-3 -18 -7 -113 -9 -211 l-4 -178 7 8 8 8 5 203 c5 194
4 239 -7 170z"/>
<path d="M83047 33399 c13 -24 237 -269 246 -269 5 0 -24 37 -64 82 -103 114
-192 206 -182 187z"/>
<path d="M77918 32900 c-93 -9 -170 -19 -173 -22 -3 -3 -3 -11 0 -19 l5 -14
225 20 225 20 0 17 0 18 -57 -1 c-32 -1 -133 -9 -225 -19z"/>
<path d="M77965 32840 c-115 -7 -200 -15 -352 -36 l-43 -5 0 -15 0 -15 33 5
c17 3 93 12 167 20 l135 15 215 6 c118 3 257 8 308 11 l92 6 0 9 0 9 -212 -2
c-117 -1 -271 -4 -343 -8z"/>
<path d="M98876 31800 c4 -30 10 -65 15 -77 6 -16 265 -399 285 -422 2 -2 6
-2 8 0 2 2 -61 98 -140 213 l-144 208 -6 37 c-3 20 -10 50 -15 66 l-8 30 5
-55z"/>
<path d="M94822 26725 c-101 -73 -186 -136 -189 -139 l-6 -6 9 0 c8 0 361 254
380 273 l7 7 -9 0 c-5 -1 -91 -61 -192 -135z"/>
<path d="M21857 26823 c-4 -3 -7 -17 -7 -30 l0 -23 10 0 10 0 0 30 c0 31 -2
35 -13 23z"/>
<path d="M391 25538 c-6 -46 -22 -152 -35 -236 l-23 -153 11 4 11 4 32 209
c17 115 32 219 32 232 l1 22 -8 0 -9 0 -12 -82z"/>
<path d="M87970 24927 c0 -3 14 -38 31 -78 l32 -74 77 -113 78 -113 7 11 6 10
-75 110 -76 110 -28 67 -28 67 -12 4 c-7 2 -12 2 -12 -1z"/>
<path d="M89100 23313 c0 -11 150 -436 156 -442 18 -18 4 34 -59 224 l-73 219
-12 4 -12 4 0 -9z"/>
<path d="M20201 21784 c-238 -29 -436 -55 -439 -58 -3 -3 -3 -8 -1 -11 4 -4
770 85 872 101 l37 6 0 9 0 9 -17 -1 c-10 -1 -213 -25 -452 -55z"/>
<path d="M89600 21450 c0 -8 46 -210 103 -449 l103 -435 11 -3 11 -4 -13 53
c-7 29 -55 229 -105 443 -51 215 -96 394 -101 400 l-9 9 0 -14z"/>
<path d="M89545 20878 c-77 -71 -142 -135 -144 -141 -4 -11 65 49 224 196 39
36 68 67 65 70 -3 2 -68 -54 -145 -125z"/>
<path d="M89557 20836 l-135 -124 5 -6 6 -6 90 83 c49 45 110 101 136 123 l46
42 -6 6 -7 7 -135 -125z"/>
<path d="M6660 20312 l0 -8 223 -25 c122 -14 224 -24 226 -22 14 11 -30 19
-202 40 -105 12 -204 22 -219 23 l-28 0 0 -8z"/>
<path d="M92930 16991 c0 -13 530 -480 1122 -989 293 -252 616 -530 718 -619
166 -145 206 -176 186 -144 -4 5 -320 279 -704 608 -383 329 -838 723 -1009
876 -172 152 -313 273 -313 268z"/>
<path d="M92900 16964 c0 -5 84 -83 187 -174 322 -285 1157 -1000 1167 -1000
l10 0 -9 9 c-6 4 -221 190 -480 411 -399 342 -736 637 -847 739 l-28 25 0 -10z"/>
<path d="M92177 16433 l-6 -10 96 -104 c53 -57 123 -132 156 -166 l59 -63 9 6
9 5 -147 157 c-80 86 -152 163 -159 170 l-12 14 -5 -9z"/>
<path d="M98354 15090 c-82 -95 -151 -177 -153 -183 l-3 -12 19 20 c58 59 294
337 290 341 -3 3 -72 -72 -153 -166z"/>
<path d="M97273 13829 c-334 -390 -610 -715 -612 -722 l-3 -12 19 20 c28 28
1197 1397 1207 1413 4 6 5 12 2 12 -3 0 -279 -320 -613 -711z"/>
<path d="M1190 14072 c0 -7 148 -132 330 -280 l29 -22 5 8 5 8 -175 145 c-96
79 -179 146 -184 147 l-10 4 0 -10z"/>
<path d="M96670 12031 c0 -5 74 -73 165 -151 l166 -141 11 3 11 4 -164 140
c-90 77 -170 143 -176 148 l-13 7 0 -10z"/>
<path d="M23015 2281 c3 -5 79 -68 170 -140 l164 -130 6 8 5 9 -165 131 c-91
72 -170 131 -176 131 l-10 0 6 -9z"/>
</g>
</svg>
