<?xml version="1.0" standalone="no"?>
<!DOCTYPE svg PUBLIC "-//W3C//DTD SVG 20010904//EN"
 "http://www.w3.org/TR/2001/REC-SVG-20010904/DTD/svg10.dtd">
<svg version="1.0" xmlns="http://www.w3.org/2000/svg"
 width="7500.000000pt" height="7500.000000pt" viewBox="0 0 7500.000000 7500.000000"
 preserveAspectRatio="xMidYMid meet">
<metadata>
Created by potrace 1.16, written by Peter Selinger 2001-2019
</metadata>
<g transform="translate(0.000000,7500.000000) scale(0.075000,-0.075000)"
fill="#000000" stroke="none">
<path d="M84505 99988 c-13 -37 -75 -322 -70 -326 10 -10 14 5 53 171 l39 167
-9 0 c-5 0 -11 -6 -13 -12z"/>
<path d="M86573 97711 l-222 -36 -8 -8 -8 -9 25 6 c14 3 117 20 230 37 l205
32 10 8 9 9 -9 -1 c-6 -1 -110 -18 -232 -38z"/>
<path d="M89050 97141 c0 -4 98 -29 218 -55 119 -27 224 -51 232 -54 l15 -5
-10 10 -10 10 -222 50 c-123 28 -223 47 -223 44z"/>
<path d="M88254 95178 c-49 -35 -129 -88 -178 -118 l-89 -55 -5 -13 -4 -12 11
0 c14 0 173 99 288 179 l92 64 -5 9 c-9 14 -19 9 -110 -54z"/>
<path d="M97555 94060 l-169 -170 10 -10 11 -11 166 172 c154 158 180 189 159
189 -4 0 -84 -76 -177 -170z"/>
<path d="M86776 92712 l-4 -7 91 -61 c51 -34 115 -74 144 -90 l52 -29 45 45
c26 24 46 49 46 54 l0 10 -45 -44 -46 -45 -45 24 c-24 13 -87 52 -139 87 l-95
63 -4 -7z"/>
<path d="M95266 91550 l-140 -170 -18 -6 -18 -5 0 -14 0 -14 28 10 27 11 139
166 c132 159 148 183 129 189 l-8 3 -139 -170z"/>
<path d="M25240 91671 c8 -5 104 -32 213 -60 l199 -52 5 5 6 6 -14 4 c-37 13
-400 106 -411 106 l-13 -1 15 -8z"/>
<path d="M94916 91493 c-70 -91 -181 -212 -231 -251 l-28 -23 10 -10 10 -10
76 71 76 71 87 111 86 110 -10 10 -9 9 -67 -88z"/>
<path d="M93960 91252 l0 -9 61 -18 c66 -20 63 -20 262 -15 l137 3 -6 6 -6 6
-186 0 -187 0 -37 18 -38 17 0 -8z"/>
<path d="M94982 91176 c-6 -13 -16 -43 -22 -66 l-11 -42 12 -129 13 -130 7 13
7 13 -14 105 -13 105 5 35 c3 19 12 52 20 74 16 43 13 60 -4 22z"/>
<path d="M28070 91111 c8 -5 91 -32 184 -61 92 -28 176 -54 185 -57 l16 -6
-10 10 c-9 10 -363 123 -382 123 -4 0 -1 -5 7 -9z"/>
<path d="M94508 91080 c-9 -6 -39 -41 -67 -79 l-50 -69 6 -6 c13 -12 21 -4 68
64 l48 70 14 0 13 0 0 15 c0 17 -8 18 -32 5z"/>
<path d="M94836 90837 c75 -56 124 -102 124 -117 0 -6 26 -39 58 -72 l57 -60
45 -23 c25 -12 221 -96 435 -185 215 -89 429 -182 476 -206 l86 -43 143 -150
c79 -83 149 -159 156 -169 15 -22 134 -106 134 -95 0 4 -20 22 -45 38 l-44 30
-171 183 -171 182 -69 35 c-38 19 -113 52 -167 74 -173 69 -707 292 -746 313
-52 26 -124 93 -158 147 -29 45 -76 89 -143 135 -63 43 -63 30 0 -17z"/>
<path d="M95054 90672 l47 -49 65 -36 c55 -30 603 -263 819 -348 39 -15 89
-38 112 -51 l42 -24 168 -176 168 -177 48 -36 c27 -20 51 -35 53 -32 3 2 -14
19 -37 36 -23 17 -120 112 -216 213 l-174 182 -30 18 c-17 10 -216 95 -442
189 l-412 171 -80 43 -80 44 -40 40 c-21 23 -44 41 -49 41 l-10 0 48 -48z"/>
<path d="M93872 89681 c84 -82 155 -147 158 -144 6 6 -291 293 -303 293 -4 0
61 -67 145 -149z"/>
<path d="M9810 89770 c0 -5 2 -10 4 -10 2 0 37 -7 78 -15 l75 -16 143 -54
c131 -49 170 -59 144 -36 -5 4 -72 31 -149 59 l-140 52 -73 15 c-87 18 -82 18
-82 5z"/>
<path d="M33720 89670 l0 -30 10 0 10 0 0 30 0 30 -10 0 -10 0 0 -30z"/>
<path d="M97540 89236 c-52 -19 -267 -136 -251 -136 7 0 68 29 135 64 l121 65
85 9 85 9 -70 1 -70 1 -35 -13z"/>
<path d="M84541 87385 c-1 -6 -39 -82 -84 -170 -46 -88 -110 -220 -142 -293
l-58 -134 -14 -5 -14 -6 -85 23 c-47 12 -87 20 -90 17 -4 -4 84 -30 177 -52
l26 -6 64 143 c35 79 101 216 147 306 l83 163 -4 12 -5 12 -1 -10z"/>
<path d="M56071 87131 l-12 -8 87 -209 c48 -115 90 -212 93 -216 l6 -7 12 7
13 8 -91 215 c-50 117 -92 215 -93 216 -1 1 -7 -2 -15 -6z"/>
<path d="M84277 86933 c-20 -48 -41 -94 -45 -101 l-9 -13 -257 71 c-241 66
-286 76 -275 66 6 -7 516 -146 533 -146 l13 0 42 96 c23 52 41 100 39 105 l-3
10 -38 -88z"/>
<path d="M17940 86689 c0 -5 6 -11 13 -13 6 -2 104 -36 216 -75 176 -62 230
-76 210 -56 -6 6 -354 130 -402 143 l-37 10 0 -9z"/>
<path d="M85441 86197 l-195 -122 -4 -12 -4 -13 12 0 c6 0 26 11 43 24 18 13
104 68 192 122 88 53 162 99 164 101 3 2 0 7 -5 13 l-9 9 -194 -122z"/>
<path d="M71250 85895 c0 -6 33 -90 72 -188 l73 -178 3 11 4 12 -67 166 c-37
92 -72 171 -76 177 l-9 9 0 -9z"/>
<path d="M56287 85820 c-176 -26 -207 -33 -196 -44 2 -3 102 9 221 26 l217 31
-5 9 -5 8 -22 -1 c-12 -1 -107 -14 -210 -29z"/>
<path d="M64257 85740 c-98 -10 -181 -21 -184 -24 l-6 -6 6 -7 7 -6 182 17
c101 9 204 19 231 23 l47 6 0 8 0 9 -52 -1 c-29 -1 -133 -10 -231 -19z"/>
<path d="M58470 85611 l0 -8 28 -6 c15 -3 118 -15 229 -28 l203 -23 6 7 7 7
-5 5 c-6 6 -405 55 -445 55 l-23 0 0 -9z"/>
<path d="M56250 85570 l0 -10 195 0 195 0 0 10 0 10 -195 0 -195 0 0 -10z"/>
<path d="M48460 85501 c0 -14 15 -17 233 -46 l197 -27 17 6 c9 4 14 9 11 11
-4 5 -419 65 -445 65 -7 0 -13 -4 -13 -9z"/>
<path d="M84055 85037 c-55 -51 -133 -122 -174 -158 l-74 -66 7 -12 7 -11 152
137 c84 75 163 147 177 160 l24 23 -9 9 -10 9 -100 -91z"/>
<path d="M29660 85022 l0 -8 258 -76 257 -76 8 5 c5 3 6 7 4 9 -5 5 -506 154
-518 154 -5 0 -9 -4 -9 -8z"/>
<path d="M69435 84801 l-6 -10 30 -16 30 -15 34 -73 c19 -39 53 -118 77 -174
l43 -102 8 5 9 5 -14 32 c-68 163 -122 285 -132 302 -7 11 -27 28 -43 38 l-30
17 -6 -9z"/>
<path d="M64640 84514 c-113 -24 -222 -43 -242 -44 l-37 0 -6 10 -6 10 -11 -6
-11 -7 18 -14 19 -13 30 0 c40 0 438 81 450 92 5 4 8 9 5 11 -2 2 -96 -15
-209 -39z"/>
<path d="M80930 84183 l0 -8 210 -73 c115 -41 214 -72 219 -70 6 1 -84 37
-200 78 -116 41 -215 77 -220 78 l-9 4 0 -9z"/>
<path d="M24350 84007 l0 -12 218 -94 c119 -52 315 -137 435 -188 l219 -95 6
6 c8 8 14 5 -183 91 -99 43 -208 90 -241 106 -34 15 -131 58 -215 95 -85 36
-173 75 -196 85 l-43 18 0 -12z"/>
<path d="M27482 83864 c-35 -24 -247 -97 -571 -195 -162 -49 -296 -91 -298
-93 -19 -19 54 -1 317 78 317 96 482 151 550 186 l40 20 0 10 c0 14 -12 12
-38 -6z"/>
<path d="M83270 83630 l0 -180 10 0 10 0 0 180 0 180 -10 0 -10 0 0 -180z"/>
<path d="M77204 83668 c-27 -40 -57 -85 -67 -100 l-19 -28 9 0 c4 0 35 41 67
91 32 49 63 92 68 95 l8 5 111 -36 c61 -21 113 -35 115 -32 6 6 -204 77 -227
77 l-16 0 -49 -72z"/>
<path d="M77045 83347 c-60 -94 -116 -183 -124 -197 l-16 -24 12 7 c15 9 247
377 241 382 -3 3 -53 -73 -113 -168z"/>
<path d="M77920 83470 c0 -3 88 -35 196 -69 l195 -63 6 6 6 6 -14 5 c-8 3 -98
31 -201 64 l-188 58 0 -7z"/>
<path d="M82117 83423 c-4 -3 -7 -19 -7 -35 l0 -28 34 -17 34 -16 23 6 c13 3
32 12 41 19 l18 13 2 24 3 24 -12 4 -13 5 0 -21 0 -20 -21 -11 -21 -12 -25 6
-24 7 -13 30 -12 29 -7 -7z"/>
<path d="M92498 82414 l-118 -164 10 0 c5 0 59 70 120 155 l111 156 -3 8 -3 9
-117 -164z"/>
<path d="M17563 82187 l3 -11 410 -102 c225 -56 426 -104 447 -107 l37 -6 0 9
0 10 -22 4 c-13 2 -216 51 -451 109 l-428 104 4 -10z"/>
<path d="M80103 81314 c-159 -115 -192 -144 -162 -144 9 0 310 212 344 242 l9
8 -9 9 -10 10 -172 -125z"/>
<path d="M46490 80822 l0 -10 49 -31 49 -32 49 -8 49 -7 92 4 92 4 0 7 0 6
-116 -3 -117 -4 -41 18 c-22 10 -56 29 -73 42 l-33 24 0 -10z"/>
<path d="M97831 80576 c12 -12 358 -183 439 -218 52 -22 160 -69 239 -105 79
-35 148 -62 153 -61 l10 4 -49 21 c-26 12 -129 56 -228 98 -99 43 -241 108
-315 147 -115 59 -262 127 -249 114z"/>
<path d="M7177 80464 l-7 -7 88 -68 c48 -37 133 -100 189 -138 l102 -71 6 11
c4 6 5 12 4 13 -2 2 -53 37 -114 79 -60 42 -141 101 -180 131 -73 58 -77 60
-88 50z"/>
<path d="M32075 79096 l-110 -23 -87 -34 c-49 -19 -88 -37 -88 -41 0 -14 26
-8 113 26 l87 34 120 22 120 23 0 8 0 9 -22 -1 c-13 0 -72 -11 -133 -23z"/>
<path d="M42611 78952 c-35 -86 -121 -299 -192 -472 -71 -174 -135 -338 -144
-365 l-15 -50 0 -60 c0 -57 7 -99 31 -189 20 -74 19 -28 -1 55 l-20 84 0 45 0
45 19 65 c15 54 269 682 398 988 l5 12 -8 0 -9 0 -64 -158z"/>
<path d="M42447 78659 c-7 -19 -62 -157 -122 -308 l-108 -274 6 -96 6 -96 20
-60 c12 -33 19 -49 16 -35 -3 14 -12 66 -21 115 l-16 90 5 55 6 55 116 289
c64 158 114 291 111 293 -3 3 -11 -10 -19 -28z"/>
<path d="M59895 78439 l-7 -11 82 -77 c46 -42 89 -80 97 -85 l15 -8 9 9 9 9
-83 74 c-45 41 -89 81 -99 88 l-16 13 -7 -12z"/>
<path d="M46040 77383 l-1 -158 -8 -40 c-5 -22 -12 -55 -16 -72 l-7 -33 10 0
10 0 12 43 12 42 5 188 5 187 -11 0 -11 0 0 -157z"/>
<path d="M45675 77242 c6 -6 33 -20 60 -31 28 -10 98 -40 158 -65 59 -25 107
-42 107 -38 0 5 -274 125 -323 141 l-12 4 10 -11z"/>
<path d="M74560 76543 c0 -9 14 -53 35 -112 l5 -14 6 6 6 6 -17 53 c-10 29
-21 57 -26 63 l-9 9 0 -11z"/>
<path d="M44595 76084 c31 -23 407 -215 412 -210 6 6 -46 35 -249 140 -163 83
-204 102 -163 70z"/>
<path d="M45075 75059 c-4 -6 -5 -13 -2 -16 7 -7 27 6 27 18 0 12 -17 12 -25
-2z"/>
<path d="M34540 73586 l0 -12 178 -52 c181 -53 202 -58 202 -44 l0 7 -190 56
-190 56 0 -11z"/>
<path d="M76920 72572 l0 -8 233 -15 c127 -9 234 -14 236 -12 2 1 1 6 -3 10
l-6 7 -178 12 c-97 7 -201 13 -229 13 l-53 1 0 -8z"/>
<path d="M78060 72442 l0 -10 108 -7 c59 -3 119 -9 135 -11 l27 -6 0 10 0 10
-27 6 c-16 2 -76 8 -135 11 l-108 7 0 -10z"/>
<path d="M47340 71720 l0 -25 46 -120 c25 -66 100 -264 166 -440 66 -176 133
-345 148 -376 40 -81 124 -203 194 -281 l60 -68 56 -39 c31 -22 74 -46 96 -55
l39 -15 170 -25 170 -25 225 -66 225 -66 130 -20 130 -20 235 -59 235 -59 185
-60 185 -60 48 -31 c54 -34 57 -35 57 -17 l0 12 -52 32 -53 31 -205 66 -205
65 -210 51 -210 51 -125 19 -125 20 -225 65 -225 66 -180 28 -180 28 -37 16
c-94 40 -216 162 -321 320 l-60 92 -37 90 c-20 50 -104 266 -185 480 -81 215
-151 397 -156 405 l-8 15 -1 -25z"/>
<path d="M74439 70680 l-6 -75 19 -115 c22 -140 28 -164 34 -157 3 3 -2 42
-12 88 l-16 84 -7 125 -7 125 -5 -75z"/>
<path d="M47877 70434 l-6 -6 56 -52 c63 -57 144 -109 188 -120 17 -5 67 -14
113 -20 l82 -13 0 11 0 11 -107 21 -108 21 -60 36 -61 37 -39 40 c-40 41 -47
45 -58 34z"/>
<path d="M48765 70130 c-9 -15 -10 -15 68 -39 62 -19 341 -71 381 -71 l16 0 0
13 0 13 -142 23 c-120 19 -255 49 -304 68 l-12 4 -7 -11z"/>
<path d="M76680 70017 c0 -4 25 -52 55 -107 30 -56 62 -118 71 -138 l16 -37 5
11 4 12 -44 89 c-39 78 -107 187 -107 170z"/>
<path d="M76625 69914 l-30 -24 16 0 16 0 18 20 c27 29 15 32 -20 4z"/>
<path d="M50236 69661 l-6 -8 20 -18 19 -17 11 7 11 7 -17 19 c-19 21 -30 24
-38 10z"/>
<path d="M50105 69630 l-6 -10 15 0 16 0 0 10 c0 6 -4 10 -9 10 -6 0 -13 -4
-16 -10z"/>
<path d="M50262 69571 l-10 -29 -22 -12 -22 -12 -24 5 -24 4 0 -13 0 -14 40 0
41 0 24 25 25 24 0 26 0 25 -9 0 -9 0 -10 -29z"/>
<path d="M50406 69442 l-5 -9 215 -93 214 -93 7 7 c3 3 4 8 2 10 -3 3 -262
115 -396 172 l-32 14 -5 -8z"/>
<path d="M48805 69064 c-203 -106 -303 -168 -304 -186 -2 -16 22 -7 67 25 25
17 140 82 256 143 l210 111 4 12 4 11 -9 0 c-4 0 -107 -52 -228 -116z"/>
<path d="M35770 69150 l0 -6 188 -28 c103 -15 203 -30 222 -33 l35 -6 -7 8 -8
8 -215 32 -215 32 0 -7z"/>
<path d="M33454 69029 l-7 -11 14 -9 14 -9 40 2 40 3 -5 10 -5 10 -27 -3 -26
-3 -7 10 c-8 14 -22 14 -31 0z"/>
<path d="M36700 68040 c-35 -88 -62 -162 -59 -164 3 -3 35 69 71 160 37 90 63
164 59 164 -3 0 -35 -72 -71 -160z"/>
<path d="M54812 67828 c-72 -78 -129 -144 -127 -146 2 -3 41 36 87 84 46 49
107 115 137 146 l54 58 -10 0 c-5 0 -69 -64 -141 -142z"/>
<path d="M67782 67673 l176 -178 6 -25 c3 -14 21 -96 40 -183 19 -88 37 -161
40 -165 l6 -5 0 14 c0 8 -18 95 -40 194 l-39 179 -173 173 c-95 95 -177 173
-183 173 -5 0 70 -80 167 -177z"/>
<path d="M47241 67236 c2 -2 76 -54 164 -116 205 -144 365 -263 365 -273 0
-27 -183 -357 -199 -357 -5 0 -95 54 -201 121 -106 66 -200 123 -209 126 l-16
6 15 -15 c8 -8 102 -68 208 -132 l192 -118 0 -9 0 -9 15 0 15 0 0 13 c0 7 19
44 43 82 23 39 64 113 91 165 27 52 55 102 62 111 l13 15 -77 60 c-132 101
-462 334 -474 334 -6 0 -9 -2 -7 -4z"/>
<path d="M76790 67094 c-205 -114 -261 -146 -256 -151 2 -3 50 20 105 51 55
31 135 74 178 96 l78 39 -20 0 -20 1 -65 -36z"/>
<path d="M55376 66931 l-17 -19 -18 -151 -18 -151 8 0 c10 0 16 34 30 170 l12
115 12 15 c6 8 15 21 19 28 l7 12 -9 0 c-5 0 -17 -9 -26 -19z"/>
<path d="M17195 66901 l30 -9 178 -4 177 -4 0 8 0 8 -113 0 c-63 0 -156 2
-208 5 l-94 5 30 -9z"/>
<path d="M38465 66874 c-110 -7 -209 -13 -219 -13 l-19 -1 5 -6 6 -5 226 12
226 12 0 9 c0 4 -6 7 -12 7 -7 -1 -103 -8 -213 -15z"/>
<path d="M16800 66869 c47 -4 150 -7 230 -6 l145 0 -130 8 c-71 3 -175 7 -230
6 l-100 0 85 -8z"/>
<path d="M37302 66855 l-413 -23 -7 -7 -7 -8 90 6 c50 3 245 13 435 22 l345
17 20 8 20 9 -35 -1 c-19 0 -221 -11 -448 -23z"/>
<path d="M47765 66738 c-32 -61 -82 -152 -112 -201 -30 -49 -52 -91 -49 -94 6
-6 125 195 181 308 26 50 44 93 42 96 -3 2 -31 -47 -62 -109z"/>
<path d="M37060 66799 c-80 -5 -154 -10 -165 -13 -32 -7 333 6 389 14 l51 8
-65 -1 c-36 0 -130 -4 -210 -8z"/>
<path d="M65860 66453 c-323 -255 -548 -402 -726 -473 -39 -16 -136 -49 -216
-74 l-147 -45 -148 -20 -148 -20 -300 -10 c-165 -6 -457 -13 -650 -16 -192 -3
-451 -10 -575 -16 l-225 -9 -99 -16 -99 -16 -156 -43 -156 -42 -95 -41 c-130
-55 -1688 -809 -1930 -934 l-195 -101 -125 -86 -125 -85 -190 -162 -190 -161
-261 -190 -260 -190 -450 -263 -449 -264 -310 -204 c-257 -169 -394 -266 -459
-323 l-9 -8 16 -7 16 -6 68 55 c72 58 175 128 286 196 l68 41 11 -6 11 -7 -6
10 -7 11 138 90 c75 49 353 216 616 371 l480 282 255 187 256 186 188 160 189
161 128 87 128 87 154 82 c174 93 1760 864 1944 944 l120 53 151 41 c83 23
188 48 234 56 l84 15 195 9 c107 6 308 13 445 16 138 3 453 12 700 21 l450 15
115 15 c177 22 384 76 550 142 73 29 290 154 395 227 88 62 512 392 521 406
l6 11 -8 8 -9 7 -195 -154z"/>
<path d="M49315 66278 c-88 -149 -165 -277 -170 -285 l-11 -14 -203 141 c-112
78 -205 139 -208 137 -2 -3 88 -69 201 -147 l205 -143 -5 -8 -4 -8 19 2 19 1
-4 11 -4 10 165 279 c91 153 165 282 163 286 -2 5 -75 -113 -163 -262z"/>
<path d="M48250 66534 c0 -11 431 -307 437 -301 2 3 -89 69 -204 147 -114 79
-214 147 -220 153 l-13 9 0 -8z"/>
<path d="M44265 66331 c13 -12 377 -123 383 -116 6 6 15 3 -193 65 -93 28
-177 53 -185 56 l-15 5 10 -10z"/>
<path d="M44245 66293 l10 -11 193 -55 192 -54 0 6 c0 4 -84 31 -187 60 -103
30 -194 56 -203 59 l-15 5 10 -10z"/>
<path d="M65626 66105 l17 -26 129 -107 c72 -59 137 -111 145 -116 l15 -8 -3
10 c-2 5 -63 57 -135 115 -72 58 -140 117 -152 131 -26 33 -38 34 -16 1z"/>
<path d="M60350 66110 l0 -7 183 -22 c100 -12 200 -25 222 -28 l40 -6 -7 8 -7
7 -215 27 -216 27 0 -6z"/>
<path d="M60291 66058 c-5 -18 -33 -119 -61 -225 l-50 -191 -74 -209 c-67
-190 -259 -718 -285 -787 l-12 -29 22 14 21 14 148 405 c81 223 162 443 179
490 27 70 151 517 151 543 0 4 -6 7 -14 7 l-14 0 -11 -32z"/>
<path d="M60790 66012 l0 -9 79 -12 79 -12 148 -49 c82 -28 155 -50 164 -49 8
0 -57 25 -145 55 l-159 54 -61 10 c-33 6 -70 13 -82 15 l-23 5 0 -8z"/>
<path d="M63780 65950 c0 -5 5 -10 10 -10 6 0 10 5 10 10 0 6 -4 10 -10 10 -5
0 -10 -4 -10 -10z"/>
<path d="M49151 65936 c16 -18 344 -245 348 -241 2 3 2 6 0 8 -38 30 -327 231
-339 235 l-15 5 6 -7z"/>
<path d="M35087 65765 l68 -130 6 -55 6 -55 2 49 1 49 -61 121 c-34 67 -68
128 -76 136 -8 8 16 -43 54 -115z"/>
<path d="M63793 65845 l0 -40 4 23 c2 12 2 30 0 40 l-5 17 1 -40z"/>
<path d="M63790 65734 l0 -15 10 6 c6 3 10 10 10 16 0 5 -4 9 -10 9 l-10 0 0
-16z"/>
<path d="M46972 65548 c-107 -160 -306 -488 -299 -495 4 -4 61 85 137 212 13
22 76 119 140 215 64 96 120 181 124 188 l7 12 -10 0 -9 0 -90 -132z"/>
<path d="M47000 65510 c-55 -84 -100 -158 -100 -163 0 -6 2 -8 5 -6 18 18 205
312 201 316 -3 3 -50 -63 -106 -147z"/>
<path d="M40536 65321 c-4 -5 -14 -50 -25 -100 l-18 -90 8 -48 c4 -26 19 -79
34 -118 14 -38 28 -76 31 -84 2 -8 6 -12 9 -10 2 3 -12 49 -30 104 l-35 100 0
40 c1 22 9 79 19 128 18 84 19 98 7 78z"/>
<path d="M48120 65252 c1 -9 490 -222 490 -213 0 4 -87 45 -192 91 -106 46
-217 94 -245 107 l-53 23 0 -8z"/>
<path d="M38450 65193 c0 -5 -16 -131 -35 -282 -31 -247 -35 -294 -21 -280 2
2 18 119 35 259 18 140 34 267 37 283 l6 27 -11 0 c-6 0 -11 -3 -11 -7z"/>
<path d="M38461 64927 c-18 -144 -34 -270 -37 -279 l-5 -18 8 0 9 0 33 275
c19 151 32 277 29 280 -2 3 -19 -113 -37 -258z"/>
<path d="M33327 65050 l-5 -20 9 0 9 0 0 20 c0 11 -2 20 -4 20 -2 0 -6 -9 -9
-20z"/>
<path d="M91983 64930 l-203 -98 0 -11 c0 -6 2 -11 3 -11 5 0 401 191 406 196
1 1 1 7 0 12 l-4 10 -202 -98z"/>
<path d="M1356 64799 c-49 -10 -92 -21 -94 -24 -10 -9 32 -5 117 12 l84 16 13
-18 14 -19 0 21 0 21 -16 6 c-19 7 -8 8 -118 -15z"/>
<path d="M32525 64790 c11 -5 86 -20 167 -34 l146 -25 34 10 34 9 25 26 24 27
-24 -14 c-13 -8 -33 -20 -45 -26 l-21 -13 -30 0 c-16 0 -95 11 -175 25 -159
27 -164 28 -135 15z"/>
<path d="M47371 64766 c11 -11 405 -176 413 -173 5 2 -82 42 -195 90 -183 78
-232 96 -218 83z"/>
<path d="M1045 64740 c-16 -4 -102 -13 -190 -20 -88 -6 -162 -14 -164 -16 -7
-7 60 -5 200 7 l134 11 50 13 50 13 -25 0 c-14 0 -38 -3 -55 -8z"/>
<path d="M37184 64725 c-4 -9 -5 -18 -3 -20 2 -2 96 -15 209 -29 113 -15 215
-29 228 -31 l22 -5 0 20 0 20 -22 4 c-13 3 -97 14 -188 26 -91 11 -182 23
-202 26 l-38 6 -6 -17z"/>
<path d="M48362 64663 c-97 -154 -161 -263 -154 -263 9 0 194 301 189 307 -3
2 -18 -18 -35 -44z"/>
<path d="M60200 64612 c-63 -32 -125 -64 -137 -72 l-21 -14 5 -12 5 -13 36 24
c21 13 83 45 140 71 l102 47 0 14 c0 19 -3 18 -130 -45z"/>
<path d="M37066 64582 c-3 -3 -6 -11 -6 -18 l0 -13 38 -11 c20 -6 105 -19 187
-30 l150 -19 254 -16 c139 -8 264 -15 277 -15 l24 0 0 20 0 20 -32 0 c-18 0
-141 7 -273 15 l-240 15 -155 21 c-85 11 -169 24 -187 28 l-32 9 -5 -6z"/>
<path d="M47783 64543 c11 -10 422 -181 426 -177 2 2 2 5 0 7 -8 6 -419 177
-425 177 l-7 0 6 -7z"/>
<path d="M59787 64522 c-9 -10 -23 -35 -32 -56 l-16 -38 6 -6 5 -6 17 17 17
17 13 42 c14 49 12 55 -10 30z"/>
<path d="M59802 64363 c-46 -34 -68 -60 -59 -69 2 -2 31 17 66 42 l62 45 -6 9
c-8 13 -4 15 -63 -27z"/>
<path d="M32866 64368 c-9 -12 -16 -29 -16 -36 0 -18 152 -272 163 -272 l8 0
-4 8 c-3 4 -37 60 -76 125 l-71 118 0 17 c0 10 7 28 16 40 l15 22 -10 0 c-5 0
-17 -10 -25 -22z"/>
<path d="M39481 64336 l-11 -13 92 -39 93 -39 165 -98 165 -99 110 -81 c156
-117 242 -191 386 -333 l126 -124 14 16 13 16 -155 151 -154 152 -145 110
-144 109 -166 101 -165 101 -100 42 c-55 23 -103 42 -106 42 -4 0 -12 -6 -18
-14z"/>
<path d="M59712 64317 l-21 -22 -40 -113 -41 -113 -55 -107 -54 -107 -74 -85
-73 -85 -93 -61 -94 -62 -93 -26 -93 -27 -158 -14 c-179 -15 -232 -26 -318
-65 -89 -40 -860 -498 -852 -506 2 -2 32 7 66 21 l62 26 344 204 c189 113 368
215 397 228 77 34 133 45 313 62 l160 14 95 29 95 29 70 43 c110 67 122 77
200 167 l74 85 50 94 49 94 57 156 c31 86 54 158 52 160 -2 2 -13 -6 -25 -19z"/>
<path d="M39710 64292 c0 -18 25 -30 214 -101 l189 -72 10 10 c6 6 9 12 6 14
-3 3 -249 97 -406 155 l-13 4 0 -10z"/>
<path d="M59542 64145 l-101 -104 -102 -138 c-56 -76 -115 -152 -131 -170
l-30 -31 7 -12 7 -11 20 18 c12 10 71 86 133 168 l111 150 96 95 96 95 7 23 6
22 -9 0 c-5 0 -55 -47 -110 -105z"/>
<path d="M70871 64138 c28 -62 65 -146 82 -185 17 -40 35 -73 39 -73 4 0 -16
51 -43 113 -28 61 -65 145 -82 185 -17 39 -35 72 -39 72 -4 0 16 -51 43 -112z"/>
<path d="M40603 64148 c-12 -18 -20 -34 -17 -37 5 -6 53 49 54 62 0 16 -16 5
-37 -25z"/>
<path d="M40072 64085 l-12 -25 9 0 c4 0 13 11 19 25 l12 25 -9 0 c-4 0 -13
-11 -19 -25z"/>
<path d="M40596 64061 l-18 -19 11 -21 c16 -29 209 -245 224 -250 l12 -4 -31
34 c-109 120 -194 220 -194 230 0 5 5 19 10 30 14 24 8 24 -14 0z"/>
<path d="M71700 64007 c-135 -38 -830 -235 -1545 -439 l-1300 -369 -215 -75
-215 -75 -64 -35 c-162 -89 -327 -267 -466 -504 -21 -36 -56 -86 -77 -113
l-40 -47 4 -11 4 -11 45 53 c25 30 74 103 109 162 l64 108 81 92 81 92 74 63
75 63 70 39 70 39 145 51 145 51 1595 455 c877 250 1599 460 1604 465 5 5 8
10 5 12 -2 2 -114 -28 -249 -66z"/>
<path d="M78528 63981 l-207 -26 -13 -13 -13 -13 25 5 c14 3 106 15 205 26 99
11 190 23 203 25 l22 5 0 10 c0 6 -3 9 -7 9 -5 -1 -101 -13 -215 -28z"/>
<path d="M71018 63873 l-438 -125 0 -14 0 -13 13 4 c6 2 203 59 437 125 234
67 433 123 443 126 l17 5 -5 10 c-4 5 -12 9 -18 8 -7 -1 -209 -57 -449 -126z"/>
<path d="M28361 63893 l61 -78 64 -57 c36 -32 69 -58 74 -58 4 0 17 -3 27 -6
l18 -5 -30 17 c-48 27 -133 109 -198 190 -32 41 -63 74 -68 74 l-9 0 61 -77z"/>
<path d="M80700 63885 c0 -6 190 -388 196 -394 2 -2 6 -2 10 1 l5 6 -98 196
c-83 167 -113 217 -113 191z"/>
<path d="M36920 63874 c0 -5 -18 -128 -39 -274 -35 -235 -42 -305 -27 -259 3
8 21 130 41 273 l36 258 -5 6 -6 5 0 -9z"/>
<path d="M59557 63804 l-37 -75 -54 -24 c-30 -13 -57 -29 -61 -34 l-6 -11 25
10 c14 5 44 19 67 30 l41 21 34 76 c19 42 33 77 31 79 -1 2 -20 -31 -40 -72z"/>
<path d="M59114 63665 c-28 -13 -127 -45 -220 -71 l-169 -47 -65 -33 -65 -33
35 6 c19 3 51 14 70 23 19 10 107 38 195 63 88 25 187 57 220 70 l59 25 4 11
4 11 -9 -1 c-4 0 -31 -11 -59 -24z"/>
<path d="M40397 63530 l12 -16 -7 -10 c-4 -5 -77 -70 -162 -143 -85 -74 -159
-138 -164 -143 l-10 -8 10 0 c10 0 328 272 340 291 l6 11 -18 16 -18 17 11
-15z"/>
<path d="M69465 63430 c-110 -32 -351 -103 -535 -159 l-335 -101 -117 -47
-118 -47 0 -9 0 -8 -10 6 -10 6 -47 -32 c-109 -74 -289 -243 -291 -273 0 -5
-4 -12 -9 -15 -5 -3 -47 -64 -92 -136 l-83 -129 -56 -66 -57 -67 -47 -27 c-26
-15 -73 -36 -104 -46 l-57 -20 -79 0 -78 0 0 -10 0 -10 43 -1 c110 -3 190 15
267 58 l45 25 58 57 58 56 96 155 97 155 110 109 110 108 80 52 81 52 101 40
100 41 325 96 c178 54 425 126 548 160 l225 64 4 11 4 12 -14 -1 c-7 0 -103
-27 -213 -59z"/>
<path d="M7306 63461 c9 -9 386 -131 401 -130 11 0 -388 139 -401 139 l-10 0
10 -9z"/>
<path d="M42650 63394 c0 -5 14 -23 31 -40 17 -16 74 -80 127 -141 52 -62 99
-113 104 -113 10 0 -94 124 -201 240 l-60 65 -1 -11z"/>
<path d="M16247 63320 c-47 -39 -114 -86 -148 -106 l-63 -35 -95 -27 -96 -27
24 -3 24 -4 81 23 81 23 53 31 c58 34 241 176 241 188 2 17 -22 3 -102 -63z"/>
<path d="M16362 63323 l-22 -42 0 -40 0 -41 29 -32 29 -33 7 7 7 7 -26 31 -26
32 0 28 c0 15 7 44 16 65 l15 37 -4 11 -4 12 -21 -42z"/>
<path d="M31920 63340 l0 -10 23 0 c12 -1 151 -16 310 -34 l287 -32 0 7 0 7
-37 6 c-35 5 -565 66 -578 66 -3 0 -5 -4 -5 -10z"/>
<path d="M31920 63303 l0 -8 268 -28 c147 -16 285 -30 307 -32 l40 -5 -30 10
c-16 5 -140 21 -275 35 -135 14 -260 28 -277 31 l-33 6 0 -9z"/>
<path d="M48045 63272 c16 -17 356 -194 361 -189 3 3 -59 38 -138 80 -192 100
-235 121 -223 109z"/>
<path d="M51811 63229 c-5 -13 -33 -76 -61 -139 -29 -63 -59 -130 -66 -147
l-14 -33 13 0 14 0 72 162 71 162 -9 9 -10 10 -10 -24z"/>
<path d="M45510 63048 c-119 -201 -117 -197 -98 -178 22 21 210 341 205 347
-3 2 -51 -74 -107 -169z"/>
<path d="M40795 63140 l-7 -11 14 -17 c18 -23 545 -621 574 -652 l24 -24 14
14 14 15 -302 339 c-166 187 -306 341 -313 343 l-11 4 -7 -11z"/>
<path d="M40907 63104 l-6 -6 17 -27 c25 -40 75 -101 79 -98 5 6 -38 100 -55
120 -16 18 -25 21 -35 11z"/>
<path d="M13740 63080 l-25 -8 155 1 155 2 35 -8 35 -7 -30 14 -30 15 -135 0
-135 -1 -25 -8z"/>
<path d="M13385 63069 l-69 -9 -11 -11 -10 -12 30 7 c17 4 76 10 133 15 57 5
106 11 109 15 l6 6 -59 -1 c-32 -1 -90 -6 -129 -10z"/>
<path d="M43845 63030 c-38 -9 -83 -22 -99 -29 l-28 -11 -69 -62 c-38 -33 -67
-63 -65 -66 3 -2 36 22 73 55 l68 59 40 17 c22 9 73 24 113 33 39 8 72 17 72
20 0 7 -33 2 -105 -16z"/>
<path d="M15077 63023 c-4 -3 -7 -19 -7 -34 l0 -28 10 -6 11 -7 -3 41 c-2 23
-3 41 -4 41 0 0 -4 -3 -7 -7z"/>
<path d="M15030 62986 l0 -35 10 -6 10 -6 0 40 0 41 -10 0 -10 0 0 -34z"/>
<path d="M15940 62990 l0 -10 15 0 c8 0 15 2 15 4 0 2 -7 6 -15 10 l-15 5 0
-9z"/>
<path d="M15593 62953 l-93 -4 0 -15 0 -16 208 7 c114 4 213 8 220 11 l13 4
-6 10 -6 10 -122 -2 c-67 -1 -164 -4 -214 -5z"/>
<path d="M57608 62884 c-16 -8 -28 -19 -28 -25 l0 -10 18 10 c9 5 26 16 37 25
l20 15 -10 0 c-5 0 -22 -7 -37 -15z"/>
<path d="M58398 62753 c-102 -71 -184 -130 -182 -132 4 -5 299 193 349 234 64
52 11 19 -167 -102z"/>
<path d="M41013 62839 c3 -10 11 -35 18 -58 7 -23 18 -46 26 -53 l13 -11 6 6
6 6 -11 33 c-6 18 -23 47 -37 63 l-26 30 5 -16z"/>
<path d="M59945 62820 l-4 -7 167 -12 c92 -6 194 -14 227 -18 l60 -6 -7 8 -7
8 -216 16 -216 17 -4 -6z"/>
<path d="M41340 62756 c0 -2 7 -9 15 -16 l15 -12 0 16 0 16 -15 0 c-8 0 -15
-2 -15 -4z"/>
<path d="M16680 62684 c0 -4 23 -48 50 -100 l51 -93 76 -60 c72 -58 94 -70 92
-53 0 4 -36 35 -79 69 l-79 63 -47 90 -46 90 -9 0 c-5 0 -9 -3 -9 -6z"/>
<path d="M27430 62460 c-96 -49 -171 -89 -167 -89 5 -1 85 36 178 81 l169 81
0 9 c0 11 19 19 -180 -82z"/>
<path d="M51325 62384 c-60 -92 -111 -170 -113 -175 l-4 -9 14 0 13 0 110 166
c61 92 112 170 113 175 l4 9 -14 0 -13 0 -110 -166z"/>
<path d="M27640 62525 c0 -3 66 -99 148 -213 81 -114 289 -422 462 -685 173
-262 318 -477 323 -477 4 0 7 4 7 8 0 15 -633 964 -783 1175 -122 172 -157
214 -157 192z"/>
<path d="M36230 62430 l0 -10 37 0 c21 0 125 -11 233 -26 l195 -25 31 -22 c17
-12 67 -65 112 -117 44 -52 101 -115 126 -140 l46 -44 0 10 c0 5 -19 28 -41
49 -23 22 -77 83 -121 135 -44 52 -93 105 -108 117 l-27 22 -229 31 c-126 16
-234 30 -241 30 l-13 0 0 -10z"/>
<path d="M40781 62376 l-23 -24 10 -6 9 -5 22 23 23 24 -10 6 -9 5 -22 -23z"/>
<path d="M60501 62400 c-1 -5 141 -693 154 -749 3 -13 8 -21 11 -19 6 6 -143
726 -155 753 -5 11 -10 18 -10 15z"/>
<path d="M89015 62351 c17 -16 97 -86 179 -155 l149 -125 9 5 c5 3 8 7 6 9
-120 105 -352 295 -361 295 l-12 0 30 -29z"/>
<path d="M40580 62265 l-13 -15 17 6 c9 3 16 10 16 15 0 13 -6 11 -20 -6z"/>
<path d="M63745 62229 c-44 -4 -190 -30 -324 -57 l-245 -49 -4 -11 -4 -12 10
0 c5 0 120 22 256 50 l246 50 112 10 c62 5 155 10 206 10 l92 0 0 10 0 10
-132 -1 c-73 -1 -169 -5 -213 -10z"/>
<path d="M40613 62223 l7 -6 7 6 6 7 -13 0 -13 0 6 -7z"/>
<path d="M48315 62174 c-53 -82 -185 -307 -182 -311 3 -2 50 71 106 163 56 92
100 169 98 171 -3 2 -12 -8 -22 -23z"/>
<path d="M40288 62033 c-76 -64 -136 -118 -134 -121 4 -4 216 168 271 220 l19
18 -9 0 c-6 -1 -72 -53 -147 -117z"/>
<path d="M62563 61998 l-43 -9 0 -11 0 -10 25 6 c14 4 45 9 70 13 l46 6 5 8 5
9 -33 -1 c-18 -1 -52 -5 -75 -11z"/>
<path d="M60551 61978 c-1 -16 54 -292 65 -331 3 -10 8 -17 10 -14 4 4 -61
329 -70 352 l-4 10 -1 -17z"/>
<path d="M62495 61903 c4 -27 9 -56 12 -65 l4 -18 10 0 10 0 -4 18 c-3 9 -8
38 -12 65 l-6 47 -10 0 -10 0 6 -47z"/>
<path d="M39660 61699 c-19 -5 -116 -13 -214 -19 -98 -5 -182 -12 -185 -16
l-6 -6 150 7 c149 6 272 20 310 36 l20 8 -20 -1 c-11 0 -36 -4 -55 -9z"/>
<path d="M61590 61703 c0 -13 89 -431 96 -452 2 -8 6 -12 9 -10 2 3 -18 108
-46 234 -44 205 -59 261 -59 228z"/>
<path d="M60955 61618 l-150 -29 -23 -22 c-13 -12 -31 -35 -39 -50 l-14 -29 6
-6 7 -7 12 19 c6 10 21 31 33 46 l22 26 155 29 156 29 0 13 c0 7 -3 13 -7 12
-5 -1 -75 -15 -158 -31z"/>
<path d="M55570 61600 c-1 -16 82 -472 87 -479 2 -2 5 -2 9 1 l5 6 -41 223
c-22 123 -45 233 -50 244 l-9 20 -1 -15z"/>
<path d="M60695 61600 l-6 -10 10 0 c6 0 17 -12 24 -26 l14 -27 7 12 8 12 -16
24 c-17 27 -31 31 -41 15z"/>
<path d="M28392 61522 c2 -5 52 -84 112 -175 93 -143 126 -186 126 -162 0 3
-50 82 -111 175 l-111 170 -10 0 -10 0 4 -8z"/>
<path d="M60532 61416 l-93 -54 -154 -151 -154 -150 7 -5 8 -5 160 152 159
152 45 24 c76 41 120 71 120 81 0 13 8 17 -98 -44z"/>
<path d="M60170 61184 c-129 -124 -271 -255 -317 -292 -74 -58 -96 -82 -77
-82 24 0 285 230 492 434 141 140 164 167 145 166 -5 -1 -114 -102 -243 -226z"/>
<path d="M60674 61388 l14 -23 56 -279 c50 -249 66 -317 66 -277 0 25 -110
556 -120 579 l-10 22 -10 0 -10 0 14 -22z"/>
<path d="M80000 61356 c0 -20 -45 -215 -55 -239 -7 -18 -32 -56 -54 -86 -23
-30 -41 -58 -41 -63 0 -19 18 -3 61 55 l46 62 11 35 c10 29 52 222 52 236 0 2
-4 4 -10 4 -5 0 -10 -2 -10 -4z"/>
<path d="M92430 61265 c0 -6 74 -81 165 -168 91 -87 165 -155 165 -150 0 8
-43 50 -252 253 -43 41 -78 70 -78 65z"/>
<path d="M61651 61229 c-1 -7 98 -478 105 -502 3 -10 8 -17 10 -15 5 5 -94
477 -106 503 -5 11 -9 18 -9 14z"/>
<path d="M45209 60895 c-118 -102 -216 -191 -218 -198 l-4 -12 29 26 c16 14
115 99 219 189 105 90 194 167 200 172 l9 8 -10 0 c-6 0 -107 -83 -225 -185z"/>
<path d="M55673 61043 l7 -6 7 6 6 7 -13 0 -13 0 6 -7z"/>
<path d="M92790 60974 c0 -11 31 -33 100 -68 76 -39 259 -110 265 -104 3 3
-39 22 -93 43 -109 43 -203 88 -244 117 -16 11 -28 16 -28 12z"/>
<path d="M46281 60758 c-71 -79 -150 -160 -175 -181 -25 -21 -46 -43 -46 -48
l0 -11 61 56 c56 50 299 312 299 322 0 12 -19 -8 -139 -138z"/>
<path d="M87765 60793 c-44 -53 -113 -131 -153 -174 l-73 -77 12 -7 11 -7 30
28 c42 41 270 311 270 320 0 5 -4 10 -9 11 l-8 3 -80 -97z"/>
<path d="M49965 60814 l-40 -13 40 5 c22 3 47 10 55 15 l15 8 -15 0 c-8 0 -33
-7 -55 -15z"/>
<path d="M49821 60779 c-13 -5 -22 -12 -19 -15 3 -3 21 2 39 10 l34 14 -15 1
c-8 0 -26 -5 -39 -10z"/>
<path d="M28776 60643 l9 -88 -3 -140 -4 -140 -34 -224 c-31 -204 -34 -245
-19 -229 3 3 21 106 40 229 l33 224 3 140 3 140 -8 88 -8 87 -10 0 -10 0 8
-87z"/>
<path d="M37443 60454 c4 -4 39 -13 79 -20 l73 -13 71 0 c62 -1 137 -10 214
-27 l25 -5 -10 9 c-14 13 -142 32 -217 32 l-63 0 -78 15 c-43 8 -84 15 -90 15
l-10 0 6 -6z"/>
<path d="M62900 60232 c0 -21 178 -893 184 -899 3 -3 8 -4 10 -2 3 2 -37 208
-87 457 l-92 452 -7 0 c-5 0 -8 -3 -8 -8z"/>
<path d="M49559 60139 c-33 -50 -58 -93 -56 -96 3 -2 33 36 66 86 34 50 63 91
65 91 2 0 20 -7 39 -15 20 -8 44 -15 53 -15 l17 0 -7 7 c-9 10 -78 33 -98 33
l-17 0 -62 -91z"/>
<path d="M87134 60199 c-16 -17 -90 -86 -164 -152 -74 -66 -136 -126 -138
-134 l-3 -13 7 0 c18 0 344 305 344 322 0 16 -17 8 -46 -23z"/>
<path d="M57310 60190 l0 -13 7 6 6 7 -6 7 -7 6 0 -13z"/>
<path d="M57173 60177 l-83 -10 0 -9 0 -10 53 6 c28 4 69 9 90 12 l37 6 0 9
c0 5 -3 8 -7 8 -5 -1 -45 -6 -90 -12z"/>
<path d="M61911 60190 c-2 -11 159 -774 164 -778 10 -10 4 18 -70 379 -64 309
-91 424 -94 399z"/>
<path d="M61645 60127 l-200 -42 20 -2 c11 -1 115 17 230 41 l210 44 -30 0
c-16 0 -120 -19 -230 -41z"/>
<path d="M61215 60079 c-225 -48 -228 -49 -223 -55 5 -4 418 80 443 90 35 15
-66 -1 -220 -35z"/>
<path d="M40170 60050 c8 -6 65 -40 125 -77 61 -36 219 -138 353 -226 l242
-160 7 7 c3 3 4 8 2 10 -25 21 -386 256 -528 343 l-185 113 -15 0 -16 0 15
-10z"/>
<path d="M92914 59937 c-27 -34 -89 -107 -138 -162 -49 -55 -98 -110 -109
-121 l-19 -22 9 -5 9 -5 116 131 c64 73 135 155 158 184 l41 52 -9 5 -9 6 -49
-63z"/>
<path d="M48836 59814 c-69 -92 -124 -170 -121 -172 3 -3 7 -3 8 -1 50 60 247
332 244 336 -3 2 -62 -71 -131 -163z"/>
<path d="M93000 59959 c8 -5 53 -29 100 -53 47 -24 114 -65 148 -91 77 -56 94
-54 20 3 -51 39 -255 152 -274 152 l-9 0 15 -11z"/>
<path d="M58850 59930 c0 -8 32 -84 70 -169 39 -85 70 -162 70 -172 l0 -17 15
-6 15 -5 0 13 0 14 13 5 c9 3 274 199 316 234 2 1 2 5 0 7 -2 3 -76 -49 -163
-115 -88 -65 -164 -119 -170 -119 l-11 0 -77 173 c-43 94 -78 165 -78 157z"/>
<path d="M43542 59888 l-24 -28 10 0 c13 0 45 37 41 48 l-4 9 -23 -29z"/>
<path d="M57239 59883 c-15 -38 -96 -263 -124 -345 l-24 -68 8 -5 8 -4 48 132
c26 72 62 174 81 225 l33 92 -10 0 -9 0 -11 -27z"/>
<path d="M41050 59831 c0 -23 -35 -214 -55 -298 l-5 -23 13 0 13 0 27 138 c15
76 27 155 27 175 l0 37 -10 0 -10 0 0 -29z"/>
<path d="M43550 59830 c-76 -14 -309 -88 -384 -122 l-71 -32 -115 -80 -115
-79 -106 -53 c-153 -76 -703 -313 -774 -334 l-60 -17 -52 7 -53 6 0 -7 0 -6
58 -7 57 -6 47 14 c56 18 723 304 823 354 39 19 124 72 190 117 66 45 144 94
172 109 l53 26 165 50 166 50 32 0 32 0 15 10 15 10 -25 -1 c-14 -1 -45 -5
-70 -9z"/>
<path d="M28612 59694 l-43 -135 -45 -102 c-25 -56 -68 -142 -96 -192 l-52
-90 -185 -228 c-102 -125 -188 -232 -190 -238 l-3 -11 10 3 c6 2 96 108 200
235 l190 231 49 84 c67 116 133 269 182 426 43 137 46 153 33 153 l-8 0 -42
-136z"/>
<path d="M40935 59560 c3 -5 8 -10 11 -10 2 0 4 5 4 10 0 6 -5 10 -11 10 l-10
0 6 -10z"/>
<path d="M62771 59539 c-228 -45 -253 -50 -248 -56 7 -6 380 68 392 78 5 5 7
9 5 8 -3 -1 -70 -14 -149 -30z"/>
<path d="M40885 59498 c-51 -158 -328 -892 -379 -1002 -40 -88 -40 -86 -26
-86 l10 0 38 78 c21 42 55 122 75 177 20 55 91 249 158 430 67 182 130 356
140 387 l17 58 -8 5 -8 5 -17 -52z"/>
<path d="M47130 59496 c0 -3 -11 -55 -25 -118 l-24 -113 -36 -89 c-41 -104
-39 -96 -21 -96 l14 0 36 90 36 90 25 116 c30 137 29 124 10 124 -8 0 -15 -2
-15 -4z"/>
<path d="M49430 59274 c-89 -119 -159 -218 -157 -220 3 -3 80 94 171 216 92
121 163 220 158 220 -5 0 -82 -97 -172 -216z"/>
<path d="M41020 59457 c8 -8 60 -43 114 -77 l99 -62 69 -29 c37 -15 68 -25 68
-21 0 4 -27 17 -59 30 l-59 23 -103 65 c-57 36 -112 70 -124 76 l-20 10 15
-15z"/>
<path d="M46982 59410 l-12 -20 1 -42 1 -43 14 55 c15 63 14 79 -4 50z"/>
<path d="M61373 59292 c-116 -26 -215 -51 -220 -56 l-8 -8 20 5 c31 9 407 88
426 90 l18 1 -5 8 c-6 10 16 14 -231 -40z"/>
<path d="M47030 59270 l0 -10 20 0 20 0 0 10 0 10 -20 0 -20 0 0 -10z"/>
<path d="M91670 59214 c0 -5 17 -26 38 -46 51 -51 265 -218 271 -212 2 2 2 5
0 7 -2 2 -49 39 -104 82 -55 43 -124 101 -152 128 l-53 51 0 -10z"/>
<path d="M59186 59175 c9 -49 117 -380 121 -370 2 6 -26 98 -62 205 -35 107
-62 182 -59 165z"/>
<path d="M62620 58755 c-547 -112 -879 -183 -857 -184 29 -1 1265 249 1302
263 40 16 -95 -8 -445 -79z"/>
<path d="M39546 58772 c5 -5 59 -26 119 -47 61 -21 152 -56 203 -78 51 -22 95
-37 98 -35 7 7 -141 70 -291 123 -133 47 -145 50 -129 37z"/>
<path d="M61978 58582 c-120 -25 -218 -48 -218 -51 0 -8 458 84 467 93 l6 6
-19 -1 c-10 -1 -117 -22 -236 -47z"/>
<path d="M51193 58570 l37 -55 0 -31 0 -32 -26 -17 -25 -16 -31 6 -31 7 7 -11
7 -11 30 0 30 0 23 15 24 16 6 35 7 34 -30 43 c-16 24 -37 50 -47 58 l-18 14
37 -55z"/>
<path d="M63900 58473 c0 -18 90 -437 95 -442 10 -9 4 26 -40 232 -41 188 -55
243 -55 210z"/>
<path d="M40490 58381 c0 -9 30 -24 36 -18 2 1 -6 8 -16 15 l-20 12 0 -9z"/>
<path d="M40575 58314 c31 -25 77 -42 131 -49 l49 -7 85 11 c103 14 143 22
137 27 -2 2 -54 -3 -115 -11 l-111 -14 -57 10 -56 10 -31 20 c-18 10 -36 19
-42 19 l-10 -1 20 -15z"/>
<path d="M84048 58263 l-178 -66 0 -15 0 -14 13 4 c6 3 90 33 185 68 l172 63
0 14 c0 7 -3 13 -7 12 -5 0 -88 -30 -185 -66z"/>
<path d="M60665 58278 l-189 -40 -4 11 c-2 6 -7 11 -12 11 l-9 0 5 -32 4 -32
-16 -17 -16 -18 -16 6 c-10 3 -25 13 -35 22 l-18 15 4 18 5 18 -9 0 -9 0 0
-21 c0 -11 4 -29 10 -39 l10 -18 31 -7 31 -7 24 23 24 22 0 17 0 17 188 38
c103 20 194 41 202 46 l15 8 -15 0 c-8 -1 -100 -19 -205 -41z"/>
<path d="M49470 58301 l0 -10 53 -19 c181 -69 292 -114 356 -146 l73 -37 6 5
c3 3 3 8 1 10 -17 15 -154 75 -300 131 -96 37 -177 69 -181 72 l-8 4 0 -10z"/>
<path d="M91350 57739 c-168 -154 -323 -298 -345 -321 l-40 -41 17 6 c16 6
698 624 698 633 0 2 -6 4 -12 3 l-13 0 -305 -280z"/>
<path d="M62361 57871 l-454 -96 16 -3 c15 -3 887 177 896 185 15 12 -52 0
-458 -86z"/>
<path d="M82900 57926 c-96 -23 -197 -50 -225 -59 -96 -32 -182 -47 -514 -92
-184 -25 -338 -45 -343 -45 -4 0 -8 -7 -8 -15 l0 -15 23 5 c12 2 144 21 292
40 358 47 432 60 545 95 52 16 156 43 230 60 74 17 152 36 173 41 l37 10 0 9
0 10 -17 -1 c-10 0 -97 -20 -193 -43z"/>
<path d="M82900 57874 c-101 -23 -209 -52 -240 -63 l-55 -20 -215 -35 c-118
-19 -296 -44 -395 -57 -99 -12 -182 -24 -184 -26 -3 -2 0 -8 5 -13 l9 -9 180
24 c99 13 279 40 400 59 l220 36 55 20 c30 12 140 40 244 63 l190 43 4 12 4
12 -19 -1 c-10 -1 -101 -21 -203 -45z"/>
<path d="M35303 57692 c-123 -64 -223 -120 -223 -123 0 -5 362 181 450 232
l15 8 -10 0 c-5 0 -110 -52 -232 -117z"/>
<path d="M50968 57753 c12 -2 30 -2 40 0 l17 5 -40 -1 -40 0 23 -4z"/>
<path d="M81160 57640 c-107 -15 -206 -30 -219 -34 l-23 -8 9 -9 10 -10 49 10
c27 6 123 20 214 32 91 11 166 22 167 23 1 1 -1 6 -5 12 l-7 10 -195 -26z"/>
<path d="M38042 57595 c0 -11 4 -31 8 -45 l8 -25 0 25 c0 14 -3 34 -8 45 l-9
20 1 -20z"/>
<path d="M64131 57575 c-1 -11 18 -114 41 -230 l43 -210 2 20 c1 11 -17 115
-41 230 -24 116 -44 201 -45 190z"/>
<path d="M64084 57563 c3 -10 44 -205 91 -433 47 -228 90 -424 96 -435 l10
-20 -4 20 c-2 11 -44 215 -93 452 l-89 433 -8 0 -8 0 5 -17z"/>
<path d="M27170 57510 l0 -10 20 0 20 0 0 10 0 10 -20 0 -20 0 0 -10z"/>
<path d="M61552 57173 c5 -27 25 -118 45 -203 l35 -155 10 -10 10 -10 -6 20
c-12 44 -54 225 -72 313 -10 50 -21 92 -25 92 l-7 0 10 -47z"/>
<path d="M63636 56623 c45 -224 87 -427 92 -451 10 -43 18 -59 26 -51 2 2 -38
206 -88 453 l-92 450 -11 3 -11 4 84 -408z"/>
<path d="M46531 56997 c-1 -4 14 -103 33 -220 19 -116 51 -340 71 -497 l37
-285 35 -135 c19 -74 51 -179 70 -232 l36 -98 8 0 c4 0 10 4 13 8 l5 9 -29 79
c-17 43 -48 147 -70 229 l-39 150 -40 305 c-54 414 -58 438 -96 575 -19 66
-34 117 -34 112z"/>
<path d="M49820 56926 c0 -2 41 -27 90 -56 l90 -52 1 -17 c3 -36 -4 -58 -27
-88 l-25 -33 9 0 c5 0 18 11 30 23 l22 24 10 32 9 32 -10 22 -10 22 -83 48
c-75 42 -106 55 -106 43z"/>
<path d="M37956 56819 c-63 -176 -145 -424 -141 -427 2 -3 7 1 10 9 62 174
144 423 140 427 -2 3 -7 -1 -9 -9z"/>
<path d="M56661 56704 c0 -5 59 -61 130 -124 132 -117 169 -147 169 -137 0 4
-213 197 -282 255 l-18 15 1 -9z"/>
<path d="M54575 56513 c26 -25 354 -91 401 -81 l19 4 -95 13 c-78 10 -218 40
-315 68 l-20 5 10 -9z"/>
<path d="M49310 56434 c0 -3 65 -36 144 -74 l145 -68 56 -12 c31 -6 59 -9 62
-7 2 3 -22 10 -54 16 -61 12 -63 13 -240 97 -62 29 -113 51 -113 48z"/>
<path d="M16775 56251 c-27 -10 -121 -35 -207 -55 l-158 -38 0 -7 0 -8 163 39
c158 38 287 75 287 84 0 8 -37 2 -85 -15z"/>
<path d="M64083 56087 c-139 -28 -253 -54 -253 -58 0 -7 518 95 527 105 l6 6
-14 -1 c-8 -1 -128 -24 -266 -52z"/>
<path d="M63643 56106 l-18 -24 -288 -60 c-271 -56 -307 -66 -296 -76 2 -3
133 22 289 55 157 33 292 61 300 62 l15 2 18 28 c19 31 21 37 8 37 -5 0 -18
-11 -28 -24z"/>
<path d="M63797 56060 c3 -11 10 -23 15 -26 l10 -6 -4 23 -3 22 -12 4 -11 4 5
-21z"/>
<path d="M63632 56042 l-12 -8 14 -20 14 -19 6 6 6 6 -7 21 -8 21 -13 -7z"/>
<path d="M63660 55986 c0 -4 7 -17 15 -30 l15 -23 42 -211 42 -212 9 9 9 9
-42 209 c-23 114 -43 216 -43 226 -1 9 -4 17 -8 17 -4 0 -14 3 -23 6 l-16 6 0
-6z"/>
<path d="M89765 55813 l-87 -88 -54 -112 -53 -113 12 0 12 1 50 106 50 107 88
87 88 87 -10 6 -9 6 -87 -87z"/>
<path d="M55841 55736 c67 -62 286 -246 293 -246 5 0 7 2 5 4 -67 62 -286 246
-293 246 -5 0 -7 -2 -5 -4z"/>
<path d="M46943 55712 l-12 -7 34 -110 c43 -143 73 -212 212 -497 l116 -237
19 10 18 10 -98 197 c-115 229 -201 431 -237 555 -26 87 -30 93 -52 79z"/>
<path d="M52335 55690 c3 -5 12 -10 19 -10 7 0 105 -43 216 -95 112 -53 205
-93 208 -91 3 3 -15 14 -39 25 -24 10 -114 52 -199 93 -86 41 -168 78 -184 82
l-28 7 7 -11z"/>
<path d="M61945 55687 l-7 -18 6 -6 6 -6 6 6 c3 3 4 14 1 24 l-4 18 -8 -18z"/>
<path d="M87409 55635 c-4 -4 194 -410 207 -424 2 -2 7 -1 11 3 l7 7 -103 202
c-108 210 -114 221 -122 212z"/>
<path d="M61820 55600 c0 -5 13 -16 29 -25 l30 -15 6 9 5 9 -31 16 c-38 19
-39 19 -39 6z"/>
<path d="M37195 55450 l20 -9 188 -15 189 -16 36 20 37 19 -13 1 c-7 0 -25 -6
-40 -14 l-27 -13 -145 13 c-80 7 -172 15 -205 18 l-60 5 20 -9z"/>
<path d="M52770 55452 c0 -4 44 -27 98 -52 53 -24 150 -69 215 -100 64 -31
117 -53 117 -49 0 7 -13 14 -190 97 -193 90 -240 111 -240 104z"/>
<path d="M50370 55427 c0 -3 31 -35 70 -73 74 -71 145 -123 201 -147 l34 -14
20 7 19 7 -40 6 -40 7 -60 41 c-32 23 -81 63 -109 88 -66 61 -95 85 -95 78z"/>
<path d="M49402 55388 c-7 -7 -112 -63 -235 -125 -122 -61 -218 -112 -214
-113 15 0 431 208 457 229 l25 21 -10 0 c-6 0 -16 -5 -23 -12z"/>
<path d="M53231 55198 c8 -98 34 -228 56 -281 l16 -37 -78 -118 c-173 -259
-498 -758 -502 -772 -3 -8 63 87 147 212 l152 226 111 -72 c62 -40 172 -112
245 -159 72 -48 132 -83 132 -79 0 4 -107 76 -238 161 -130 85 -238 156 -240
157 -2 1 63 102 144 223 l147 221 -21 48 -22 47 -20 98 -21 97 3 45 3 46 218
-107 c119 -59 220 -105 222 -102 4 4 -446 228 -457 228 -2 0 0 -37 3 -82z"/>
<path d="M50825 55209 l-70 -18 47 4 c26 2 62 11 80 19 44 19 28 18 -57 -5z"/>
<path d="M55395 55208 c-11 -13 -29 -33 -38 -45 l-18 -21 9 -6 9 -5 32 40 32
40 -3 10 -3 10 -20 -23z"/>
<path d="M14118 55050 c-5 -85 -10 -175 -12 -200 l-5 -45 14 75 15 75 -2 125
-3 125 -7 -155z"/>
<path d="M89346 54988 l-50 -59 -92 -57 c-50 -31 -211 -120 -357 -197 -239
-126 -288 -155 -258 -155 14 0 564 294 647 346 l71 44 53 61 53 60 -9 9 -9 8
-49 -60z"/>
<path d="M51910 55031 l0 -11 148 0 148 0 47 -30 c56 -35 63 -26 9 11 l-37 26
-157 8 -158 7 0 -11z"/>
<path d="M51980 54990 c41 -4 107 -8 145 -9 l70 -1 38 -26 c21 -14 41 -23 44
-21 3 3 -14 18 -38 34 l-42 28 -146 1 -146 2 75 -8z"/>
<path d="M47193 54977 l-22 -12 8 -14 8 -13 21 11 21 11 -5 15 c-4 8 -7 15 -8
15 0 -1 -11 -6 -23 -13z"/>
<path d="M51026 54964 c-26 -9 -46 -17 -43 -20 5 -6 117 25 117 32 0 7 -23 3
-74 -12z"/>
<path d="M50675 54940 c-11 -5 -42 -9 -70 -9 l-50 -1 -15 -10 -15 -10 20 0
c11 0 49 5 84 10 l64 9 10 10 11 11 -9 -1 c-6 0 -19 -4 -30 -9z"/>
<path d="M53201 54903 c-67 -111 -237 -362 -244 -363 -5 0 -69 41 -143 92 -73
50 -136 89 -139 86 -3 -3 58 -47 135 -98 77 -51 140 -94 140 -96 0 -2 -29 -46
-64 -97 -35 -50 -141 -212 -234 -359 -156 -244 -276 -417 -302 -433 -6 -3 -10
-11 -10 -16 l0 -10 10 6 c27 17 178 232 323 459 175 276 284 436 296 436 4 0
8 6 8 13 0 7 47 83 104 168 57 86 118 179 136 208 l32 51 -10 0 c-5 0 -22 -21
-38 -47z"/>
<path d="M47352 54921 l-13 -8 10 -24 c5 -13 12 -36 15 -51 l6 -28 10 0 10 0
0 38 -1 37 -12 22 -12 22 -13 -8z"/>
<path d="M47677 54923 c-4 -3 -7 -28 -7 -54 l0 -49 40 -101 c23 -56 38 -104
36 -107 -3 -3 0 -10 8 -16 l13 -11 32 -94 c40 -118 45 -127 92 -176 l38 -40
51 -109 c28 -60 53 -106 56 -103 3 3 -6 27 -19 54 -14 26 -35 73 -48 103 l-23
55 -46 51 -46 52 -42 118 c-23 65 -40 119 -39 119 1 1 66 32 145 70 l142 68 0
9 0 8 -140 -70 c-77 -38 -144 -70 -149 -70 l-9 0 -42 105 -43 106 7 44 c6 45
5 50 -7 38z"/>
<path d="M47105 54874 l-6 -37 10 -10 10 -10 6 16 c3 9 7 24 10 32 5 18 -4 45
-15 45 l-8 0 -7 -36z"/>
<path d="M52222 54698 c-73 -110 -132 -202 -129 -204 2 -2 64 86 137 196 73
110 131 202 129 204 -2 2 -64 -86 -137 -196z"/>
<path d="M50925 54860 c2 -14 5 -31 5 -37 l0 -13 121 -96 c66 -52 123 -94 125
-91 3 3 -47 46 -111 97 l-116 92 -5 16 c-3 9 -10 26 -15 37 l-10 20 6 -25z"/>
<path d="M32580 54766 c8 -7 80 -55 160 -106 80 -51 257 -169 393 -262 137
-92 252 -168 258 -168 5 0 9 4 9 9 l0 10 -202 136 c-286 192 -605 395 -620
395 l-12 0 14 -14z"/>
<path d="M54130 54763 l0 -10 52 -24 c29 -13 72 -39 96 -57 24 -18 46 -31 49
-29 7 7 -54 51 -129 92 l-68 37 0 -9z"/>
<path d="M34220 54529 c-102 -65 -219 -141 -260 -168 -41 -27 -106 -65 -145
-85 l-70 -35 -34 -45 -35 -45 -29 25 c-27 23 -47 31 -47 18 0 -3 11 -15 24
-25 l23 -18 10 -38 10 -38 -10 -12 c-5 -6 -17 -20 -28 -32 l-18 -20 10 -6 10
-7 15 13 c9 7 20 24 25 38 l10 25 57 -57 57 -56 194 -130 194 -130 9 5 9 6
-193 130 -193 130 -72 71 -72 70 37 49 37 49 80 41 c44 22 141 82 215 132 74
51 190 128 258 170 106 68 142 98 115 95 -5 0 -91 -54 -193 -120z"/>
<path d="M49555 54499 c-243 -118 -241 -117 -234 -123 2 -2 112 50 244 114
132 65 236 119 230 119 -5 0 -113 -49 -240 -110z"/>
<path d="M63970 54578 c0 -15 92 -451 97 -457 2 -2 6 -1 10 2 l6 7 -49 230
-49 230 -7 0 c-5 0 -8 -5 -8 -12z"/>
<path d="M44811 54574 c0 -11 378 -306 399 -312 l15 -4 -10 9 c-8 7 -329 258
-392 306 l-13 9 1 -8z"/>
<path d="M50190 54573 c0 -12 38 -48 45 -41 3 2 -6 15 -20 28 l-25 23 0 -10z"/>
<path d="M88351 54474 l-192 -104 -49 16 -49 16 -33 -19 -33 -19 -12 -25 -13
-24 0 -31 0 -32 -52 -33 c-103 -65 -338 -232 -338 -241 0 -15 10 -9 108 61 53
37 139 96 190 130 l92 62 10 -6 9 -6 11 20 10 20 -10 6 -10 6 0 25 0 25 25 24
24 25 40 0 40 0 9 -16 9 -17 184 98 c101 55 197 106 212 116 l29 17 -9 5 -9 5
-193 -104z"/>
<path d="M51866 54379 l-138 -180 -13 5 -13 5 5 -20 5 -19 12 0 c15 -1 184
-137 196 -159 23 -44 375 -329 389 -316 5 6 12 1 -74 61 -75 52 -305 251 -305
264 0 6 -96 90 -173 151 l-21 17 76 98 c41 55 103 136 138 182 35 45 61 84 59
87 -3 2 -67 -77 -143 -176z"/>
<path d="M47505 54438 l-5 -14 350 -719 c193 -396 374 -768 402 -827 l51 -108
13 0 c7 0 15 4 19 9 l6 10 -238 488 c-131 268 -312 641 -403 827 l-166 340
-12 4 -12 4 -5 -14z"/>
<path d="M51359 54275 c-109 -122 -132 -163 -34 -60 88 92 139 154 133 161 -3
2 -48 -43 -99 -101z"/>
<path d="M18590 54225 c0 -14 36 -178 61 -280 35 -140 40 -157 45 -152 3 2
-11 67 -30 143 -19 77 -40 168 -47 204 -6 36 -16 72 -20 80 l-8 15 -1 -10z"/>
<path d="M49415 54210 l-6 -10 8 0 c4 0 15 5 23 10 l15 10 -17 0 c-9 0 -20 -4
-23 -10z"/>
<path d="M45740 54185 c-6 -56 0 -229 12 -333 l11 -102 12 -16 12 -17 -14 74
-14 74 -8 175 c-4 96 -9 162 -11 145z"/>
<path d="M33478 54173 c-8 -10 -18 -26 -21 -35 l-6 -18 7 0 c8 0 52 55 52 65
0 11 -18 4 -32 -12z"/>
<path d="M62171 54173 c-1 -28 85 -442 94 -451 l7 -7 -7 35 c-24 131 -93 441
-94 423z"/>
<path d="M62131 54168 c-1 -22 87 -449 94 -456 3 -3 5 -1 5 5 0 13 -89 444
-94 458 l-4 10 -1 -17z"/>
<path d="M51586 54058 c-47 -56 -86 -107 -86 -112 l0 -10 8 10 c74 82 173 206
170 210 -3 2 -44 -41 -92 -98z"/>
<path d="M51190 54105 l-22 -24 -149 -83 c-134 -75 -167 -98 -140 -98 15 0
297 165 331 193 l29 25 -13 5 -14 6 -22 -24z"/>
<path d="M51256 54122 l-5 -8 117 -101 c64 -56 171 -147 236 -202 l120 -101
15 0 c8 0 12 2 10 4 -2 2 -58 50 -125 107 -67 57 -173 150 -236 207 -64 56
-118 102 -121 102 -3 0 -8 -4 -11 -8z"/>
<path d="M54844 53969 l-49 -164 -20 -17 c-11 -9 -33 -29 -50 -43 l-30 -27 31
17 c17 10 40 25 52 34 l22 16 50 165 c28 90 49 168 47 174 -2 5 -25 -64 -53
-155z"/>
<path d="M54952 54098 c-6 -18 -32 -103 -57 -188 -26 -85 -56 -181 -67 -213
-12 -31 -18 -60 -15 -63 3 -3 21 43 40 103 55 167 119 385 114 390 -3 2 -10
-11 -15 -29z"/>
<path d="M50370 53991 c-108 -48 -204 -90 -214 -94 -11 -4 -16 -10 -14 -13 6
-5 415 172 433 188 l9 8 -9 0 c-6 -1 -98 -40 -205 -89z"/>
<path d="M60526 53804 c-82 -129 -146 -237 -143 -240 2 -3 13 10 24 28 11 18
79 126 151 241 72 114 128 207 123 207 -4 0 -74 -106 -155 -236z"/>
<path d="M80810 54034 c-1 -21 195 -794 201 -794 7 0 -188 791 -197 799 -2 2
-4 0 -4 -5z"/>
<path d="M33246 53853 l-159 -127 12 -4 11 -4 153 122 c143 114 170 140 150
140 -4 0 -80 -57 -167 -127z"/>
<path d="M52000 53879 l85 -80 98 -71 c54 -39 100 -69 102 -66 3 2 -30 29 -72
59 -43 29 -124 96 -180 147 -57 50 -107 92 -111 92 -4 -1 31 -37 78 -81z"/>
<path d="M18400 53701 c0 -5 5 -22 11 -38 6 -15 31 -115 54 -221 41 -184 49
-211 59 -201 6 6 -59 308 -85 397 l-22 72 -8 0 c-5 0 -9 -4 -9 -9z"/>
<path d="M50160 53662 c-54 -28 -320 -193 -326 -204 l-6 -10 18 10 c11 6 88
53 173 106 85 53 160 96 167 96 7 0 16 5 19 10 l6 10 -8 0 c-4 -1 -24 -9 -43
-18z"/>
<path d="M50220 53670 l0 -10 38 0 37 0 -15 10 c-8 5 -25 10 -37 10 l-23 0 0
-10z"/>
<path d="M52330 53588 c0 -3 29 -71 65 -152 36 -80 65 -150 65 -155 0 -4 -8
-15 -17 -24 l-18 -15 -105 -8 -105 -8 28 -10 c15 -5 27 -13 27 -17 0 -13 120
-271 152 -327 54 -96 38 -50 -38 103 -40 83 -82 171 -93 196 l-19 46 82 7 81
6 22 25 22 24 -66 148 c-58 131 -83 180 -83 161z"/>
<path d="M58183 53494 l-88 -96 -85 -57 -85 -57 -80 -31 c-103 -40 -124 -44
-285 -53 l-135 -7 121 -1 120 -2 60 10 59 11 75 30 75 29 73 49 73 48 105 112
106 111 -10 0 c-6 0 -50 -43 -99 -96z"/>
<path d="M51376 53502 l-5 -8 76 -65 77 -64 45 -21 46 -21 -85 -42 c-47 -24
-96 -53 -108 -65 -24 -21 -56 -85 -48 -94 3 -2 11 11 19 29 8 19 25 44 38 56
l24 22 80 37 c44 20 103 51 130 69 l50 33 83 28 c45 16 82 32 82 36 l0 7 -81
-29 c-90 -33 -117 -46 -140 -66 l-16 -14 -54 24 -54 24 -77 66 -77 66 -5 -8z"/>
<path d="M11296 53492 l-5 -9 152 -150 152 -149 141 -102 c78 -56 147 -102
154 -102 l12 0 -4 9 c-1 5 -75 62 -163 125 l-159 116 -129 135 c-71 74 -133
135 -137 135 -5 0 -11 -4 -14 -8z"/>
<path d="M52007 53473 l-6 -9 55 -63 c30 -35 70 -87 89 -117 l35 -54 10 0 c5
0 10 3 10 6 0 11 -101 149 -144 197 l-44 49 -5 -9z"/>
<path d="M50970 53270 c-217 -109 -389 -199 -381 -199 8 -1 183 85 390 190
325 165 411 211 391 208 -3 0 -183 -90 -400 -199z"/>
<path d="M48695 53446 c-11 -7 -134 -73 -273 -146 -139 -73 -251 -134 -249
-137 5 -5 535 272 552 288 l9 9 -9 -1 c-6 0 -19 -6 -30 -13z"/>
<path d="M50631 53364 c-96 -46 -172 -87 -169 -89 5 -5 358 164 358 171 0 9
-20 0 -189 -82z"/>
<path d="M49810 53243 c0 -7 31 -60 70 -119 l70 -107 36 -89 c21 -49 41 -91
46 -94 l8 -5 -19 48 c-43 108 -71 163 -140 267 -39 61 -71 105 -71 99z"/>
<path d="M52134 53219 l-19 -22 23 12 c12 6 22 16 22 21 0 15 -5 12 -26 -11z"/>
<path d="M54606 52977 c-44 -144 -88 -287 -99 -317 l-21 -55 3 -35 2 -35 -51
-165 -50 -165 0 -37 0 -38 10 0 10 0 0 38 0 39 46 149 46 149 3 50 2 51 16 44
c9 25 51 160 92 300 42 140 77 260 80 267 l4 12 -7 5 -8 5 -78 -262z"/>
<path d="M47991 53191 l-15 -10 54 -113 c29 -62 95 -196 145 -298 51 -102 206
-421 345 -710 139 -289 256 -533 262 -543 l9 -17 19 10 19 10 -93 193 c-52
105 -188 386 -303 622 -115 237 -256 528 -313 647 -58 120 -107 218 -110 218
-3 0 -11 -4 -19 -9z"/>
<path d="M11546 53172 l-5 -9 157 -114 c86 -63 159 -113 162 -111 16 8 -10 31
-147 131 -84 61 -155 111 -157 111 -3 0 -7 -4 -10 -8z"/>
<path d="M34808 53164 c-5 -4 -8 -17 -8 -29 l0 -21 -12 -12 -12 -12 7 -6 6 -7
88 22 c81 20 113 34 102 45 -3 3 -23 -1 -44 -9 -22 -7 -57 -16 -77 -20 l-37
-7 -3 32 -3 32 -7 -8z"/>
<path d="M28282 53077 c-117 -38 -211 -71 -209 -74 5 -4 417 125 426 133 16
15 -29 2 -217 -59z"/>
<path d="M34675 53130 l-6 -10 10 0 c6 0 11 5 11 10 0 6 -2 10 -4 10 -3 0 -8
-4 -11 -10z"/>
<path d="M52065 53124 c-11 -8 -123 -69 -248 -136 -125 -66 -226 -123 -223
-125 6 -6 474 243 496 263 l14 14 -9 0 c-6 0 -19 -7 -30 -16z"/>
<path d="M66443 53071 c-116 -25 -215 -50 -220 -55 l-8 -8 20 5 c11 3 110 25
220 48 110 23 207 45 215 50 l15 8 -15 0 c-8 -1 -110 -22 -227 -48z"/>
<path d="M55417 53084 l-6 -7 14 -21 15 -20 0 -29 c0 -16 -5 -37 -10 -47 l-10
-19 11 -7 11 -7 9 14 c5 8 12 24 15 36 l6 23 -13 42 -14 42 -11 3 c-5 2 -13 0
-17 -3z"/>
<path d="M34445 53044 c-112 -41 -102 -44 19 -5 50 16 100 31 111 34 l20 5
-30 0 -30 -1 -90 -33z"/>
<path d="M55191 53039 c-6 -18 -11 -41 -11 -52 l0 -20 -131 -255 -132 -254
-65 -79 c-35 -43 -68 -79 -73 -79 l-9 0 0 -15 c0 -34 29 -12 109 84 l61 73
134 267 133 266 6 48 7 47 -9 0 -9 0 -11 -31z"/>
<path d="M49338 52948 c10 -18 38 -68 61 -111 l43 -78 19 25 19 25 23 4 22 4
-26 2 -27 1 -14 -21 -14 -21 -54 101 c-30 55 -59 101 -63 101 l-9 0 20 -32z"/>
<path d="M48883 52806 c-172 -89 -322 -171 -333 -181 l-20 -18 0 -15 0 -16 28
26 27 26 317 165 318 164 -7 6 c-3 4 -9 7 -12 6 -3 0 -147 -74 -318 -163z"/>
<path d="M55367 52917 l-37 -12 -42 -50 c-22 -27 -79 -108 -125 -179 l-84
-129 9 -9 9 -9 91 138 c51 76 104 155 119 175 l28 36 37 10 36 9 139 -23 c202
-33 247 -46 547 -146 l271 -91 440 -180 440 -179 180 -85 180 -85 265 -148
c146 -81 362 -201 480 -266 l215 -119 193 -89 192 -89 7 7 7 6 -10 9 c-5 4
-90 45 -189 91 l-180 82 -220 123 c-121 68 -335 188 -475 267 l-255 144 -175
83 -175 84 -412 168 -413 168 -202 70 c-112 38 -247 85 -302 105 -116 43 -259
78 -411 101 -60 9 -117 18 -125 20 -8 2 -32 -2 -53 -8z"/>
<path d="M50131 52862 c-1 -18 94 -218 108 -226 l11 -7 -43 88 c-24 48 -51
104 -60 123 l-16 35 0 -13z"/>
<path d="M60988 52394 c-101 -495 -181 -928 -176 -952 l3 -17 44 245 c24 135
83 443 132 685 49 242 88 446 87 454 -2 8 -42 -179 -90 -415z"/>
<path d="M48381 52738 l10 -19 25 -11 24 -11 7 6 6 7 -17 19 -17 19 -24 4 -24
5 10 -19z"/>
<path d="M48865 52729 l-7 -30 17 -72 18 -72 70 -148 c39 -81 74 -146 77 -144
3 1 121 61 263 132 141 71 257 133 257 137 0 5 -117 -50 -259 -122 l-260 -129
-65 135 -66 136 -16 61 -16 62 1 43 c1 49 -5 55 -14 11z"/>
<path d="M12210 52742 c0 -5 70 -57 156 -117 l155 -108 9 9 9 9 -154 108
c-145 101 -175 118 -175 99z"/>
<path d="M48278 52729 l-17 -10 5 -14 6 -14 19 12 19 12 0 12 c0 15 -9 16 -32
2z"/>
<path d="M51260 52731 c0 -6 4 -13 10 -16 l10 -6 -6 15 c-7 18 -14 21 -14 7z"/>
<path d="M12184 52709 l-6 -11 18 -13 c11 -7 82 -58 158 -114 l139 -100 9 5 8
5 -5 9 c-3 4 -75 58 -160 118 l-154 111 -7 -10z"/>
<path d="M42190 52653 c0 -17 110 -80 198 -114 l22 -9 0 10 0 10 -72 36 c-40
20 -85 45 -100 55 -27 20 -48 25 -48 12z"/>
<path d="M48160 52586 l-25 -25 -420 -214 c-231 -117 -471 -238 -532 -267
l-113 -53 0 -14 c0 -7 3 -13 6 -13 4 0 246 119 538 265 l531 266 23 23 24 23
-4 17 -3 17 -25 -25z"/>
<path d="M54433 52577 c-18 -6 -33 -14 -33 -18 l0 -8 32 10 c17 5 36 13 42 19
l10 10 -9 -1 c-6 -1 -25 -7 -42 -12z"/>
<path d="M48856 52543 c9 -36 130 -279 144 -288 l10 -6 0 -28 0 -27 14 -20 15
-19 -6 45 -6 45 -18 20 c-19 21 -139 267 -139 284 0 6 -5 13 -10 16 l-11 7 7
-29z"/>
<path d="M81526 52511 c5 -5 101 -37 214 -72 113 -34 212 -64 220 -67 l15 -5
-10 10 c-8 8 -250 86 -419 134 l-30 9 10 -9z"/>
<path d="M48270 52476 c0 -8 5 -18 10 -21 l10 -6 10 6 11 7 -12 14 c-6 8 -15
14 -20 14 l-9 0 0 -14z"/>
<path d="M48398 52483 c-19 -5 -24 -18 -9 -27 l9 -6 16 6 16 6 0 14 c0 14 -3
15 -32 7z"/>
<path d="M50625 52368 c-190 -95 -191 -96 -184 -102 2 -2 92 40 199 95 107 54
188 98 180 98 -8 0 -96 -41 -195 -91z"/>
<path d="M22522 52333 l-41 -98 -36 -144 c-20 -79 -34 -148 -32 -155 2 -6 18
50 37 124 l33 135 44 105 44 105 16 13 17 12 -20 0 -21 0 -41 -97z"/>
<path d="M48511 52011 c103 -208 190 -388 194 -400 3 -11 10 -21 15 -21 l9 0
-68 143 c-183 381 -321 657 -328 657 l-8 0 186 -379z"/>
<path d="M40310 52369 l0 -10 10 6 c6 3 10 8 10 11 0 2 -4 4 -10 4 -5 0 -10
-5 -10 -11z"/>
<path d="M53022 52341 c16 -43 355 -731 360 -731 4 0 -31 78 -76 173 -229 474
-275 567 -281 567 -4 0 -5 -4 -3 -9z"/>
<path d="M46487 52113 c-97 -201 -201 -442 -193 -450 3 -3 10 7 16 23 32 82
112 258 191 416 49 98 89 180 89 183 0 27 -29 -22 -103 -172z"/>
<path d="M46606 52261 c5 -6 47 -26 93 -46 46 -19 122 -56 169 -82 l86 -47 38
-34 c21 -19 41 -33 44 -30 7 8 -68 72 -120 103 -44 26 -302 145 -314 145 -3 0
-2 -4 4 -9z"/>
<path d="M12930 52242 l0 -10 183 -130 c100 -70 187 -132 194 -135 l12 -7 5 9
6 9 -184 131 c-102 72 -192 134 -200 137 l-16 6 0 -10z"/>
<path d="M12906 52201 l-6 -9 308 -219 c369 -264 1138 -795 1149 -795 4 0 9 5
11 10 l3 9 -173 118 c-551 378 -711 488 -973 675 -159 114 -295 210 -302 213
l-12 7 -5 -9z"/>
<path d="M54390 52109 c0 -12 29 -38 43 -39 14 0 7 23 -10 36 -22 17 -33 17
-33 3z"/>
<path d="M30000 52101 l-45 -6 0 -10 c1 -5 4 -52 9 -103 l8 -92 11 -7 10 -6
-6 24 c-3 13 -9 61 -13 107 l-7 82 44 1 c24 0 53 4 64 9 l20 9 -25 -1 c-14 -1
-45 -4 -70 -7z"/>
<path d="M54272 52088 l-12 -12 0 -21 0 -20 -220 -110 -220 -109 11 -11 10
-10 219 110 219 110 0 21 c1 11 6 25 13 32 l12 12 -10 10 -10 10 -12 -12z"/>
<path d="M88790 51894 c-96 -74 -177 -140 -179 -146 l-3 -10 10 3 c6 2 90 64
186 138 l176 134 -6 8 c-3 5 -6 9 -7 8 -1 0 -81 -61 -177 -135z"/>
<path d="M54378 51973 c-47 -24 -35 -43 15 -24 l24 9 6 16 6 16 -12 -1 c-7 -1
-24 -8 -39 -16z"/>
<path d="M75298 51867 l-197 -81 5 -7 4 -7 188 75 c176 70 212 87 201 96 -2 2
-93 -32 -201 -76z"/>
<path d="M53151 51916 c-1 -5 36 -86 81 -179 l82 -169 4 10 3 10 -85 169 c-47
92 -85 164 -85 159z"/>
<path d="M84875 51738 c-94 -71 -174 -134 -179 -139 l-10 -9 7 -6 6 -6 173
132 c95 73 177 136 181 140 l9 8 -9 5 -9 6 -169 -131z"/>
<path d="M3505 51720 l-110 -7 -72 -17 -73 -18 0 -9 c0 -11 -9 -12 95 10 l90
19 233 6 232 7 68 -12 67 -12 35 -17 36 -18 40 -44 39 -43 114 -177 113 -178
9 6 9 5 -55 84 c-30 47 -85 132 -122 191 l-68 106 -46 43 -47 43 -53 18 -54
17 -185 2 -185 3 -110 -8z"/>
<path d="M34305 51648 c-3 -46 -15 -123 -25 -171 l-18 -88 12 4 11 4 16 89
c10 49 20 124 24 167 l7 77 -10 0 -9 0 -8 -82z"/>
<path d="M13686 51712 l-5 -9 173 -118 174 -117 11 7 12 7 -175 119 c-96 65
-177 119 -180 119 -3 0 -7 -4 -10 -8z"/>
<path d="M59928 51607 c-103 -61 -185 -113 -183 -115 3 -4 360 201 374 214 2
2 2 6 0 8 -2 2 -88 -46 -191 -107z"/>
<path d="M32322 51538 c15 -95 33 -204 39 -241 6 -38 13 -66 16 -64 6 7 -70
477 -77 477 l-6 0 28 -172z"/>
<path d="M71883 51667 c2 -6 18 -55 35 -107 l30 -95 18 -102 19 -103 8 0 8 0
-5 18 c-3 9 -14 65 -25 123 l-20 106 -32 86 c-17 48 -33 87 -36 87 -3 0 -3 -6
0 -13z"/>
<path d="M17956 51512 l-4 -7 176 -74 177 -73 114 -29 113 -29 164 0 164 0 0
9 0 9 -177 4 -178 4 -101 27 -101 27 -168 70 c-184 77 -172 73 -179 62z"/>
<path d="M45852 51369 c2 -7 10 -15 17 -17 l14 -4 -5 13 c-2 7 -10 15 -17 17
l-13 5 4 -14z"/>
<path d="M52929 51342 l-34 -39 -58 -37 c-32 -20 -191 -105 -353 -187 l-294
-151 0 -9 c0 -5 4 -9 10 -9 16 0 590 290 656 331 l60 38 33 42 33 41 -10 10
-9 9 -34 -39z"/>
<path d="M45780 51330 l0 -20 9 0 9 0 -5 20 c-3 11 -7 20 -9 20 -2 0 -4 -9 -4
-20z"/>
<path d="M34049 51309 l-11 -21 9 -9 9 -9 11 30 11 30 -9 0 c-4 0 -13 -9 -20
-21z"/>
<path d="M87864 51122 c-11 -9 -32 -33 -47 -52 l-25 -35 -61 -139 c-34 -77
-59 -141 -57 -144 11 -11 26 16 81 142 l58 135 43 49 c24 28 44 53 44 56 0 11
-15 6 -36 -12z"/>
<path d="M18204 50813 l-47 -88 -60 -75 c-33 -41 -67 -83 -75 -92 l-15 -18 11
0 11 0 67 88 68 87 49 88 c27 49 47 91 44 93 -3 3 -26 -35 -53 -83z"/>
<path d="M5250 50880 c0 -5 4 -10 9 -10 6 0 182 -22 393 -49 211 -27 462 -57
558 -66 l175 -16 118 -28 117 -28 0 11 0 12 -118 27 -117 27 -210 20 c-116 11
-367 41 -558 65 -393 51 -367 48 -367 35z"/>
<path d="M46893 50837 c-17 -7 -35 -16 -40 -21 l-8 -9 20 7 c11 4 34 10 52 13
l32 5 35 -6 35 -7 53 -35 c29 -20 75 -59 101 -88 l48 -51 -10 20 c-5 11 -32
44 -60 72 l-50 51 -62 31 -62 31 -26 -1 c-14 0 -40 -6 -58 -12z"/>
<path d="M33540 50837 c0 -10 60 -390 66 -420 3 -16 8 -27 10 -24 5 5 -63 437
-70 445 l-6 5 0 -6z"/>
<path d="M6180 50822 l0 -9 123 -12 122 -12 100 -24 100 -24 9 9 9 9 -29 7
c-16 3 -63 14 -104 24 -69 17 -247 40 -305 40 l-25 0 0 -8z"/>
<path d="M50247 50743 c-50 -45 -44 -51 8 -8 22 19 37 36 35 39 -3 2 -22 -11
-43 -31z"/>
<path d="M74405 50624 c-215 -114 -211 -112 -204 -119 5 -5 385 199 404 216
17 17 0 8 -200 -97z"/>
<path d="M61631 50453 c-18 -82 -35 -159 -38 -173 l-6 -25 7 7 c4 3 24 81 45
172 l37 166 -6 0 c-4 0 -21 -66 -39 -147z"/>
<path d="M49655 50529 l-90 -48 -40 -10 -40 -9 32 -1 33 -1 97 51 c54 28 102
55 108 60 l9 9 -9 -1 c-6 -1 -50 -23 -100 -50z"/>
<path d="M31478 50513 l-118 -4 0 -10 0 -11 23 5 c12 3 89 7 172 9 l150 3 3
-15 c1 -8 6 -49 12 -90 l9 -75 -3 85 -2 86 -8 12 -7 12 -57 -2 c-31 -1 -110
-4 -174 -5z"/>
<path d="M49684 50437 c-51 -29 -99 -58 -108 -66 l-16 -13 0 -16 0 -15 19 25
20 25 61 32 c33 18 79 43 103 57 l42 24 -15 -1 c-8 0 -56 -24 -106 -52z"/>
<path d="M60655 50442 l10 -10 207 -46 c114 -25 212 -46 219 -46 33 0 -12 12
-201 55 -113 25 -214 48 -225 52 l-20 5 10 -10z"/>
<path d="M30487 50080 l5 -195 8 -35 8 -35 -5 170 c-3 94 -9 197 -13 230 l-8
60 5 -195z"/>
<path d="M50426 50155 c4 -8 11 -15 16 -15 l10 0 -12 15 c-7 8 -14 15 -16 15
-2 0 -1 -7 2 -15z"/>
<path d="M50400 50120 l0 -13 7 6 6 7 -6 7 -7 6 0 -13z"/>
<path d="M50477 50109 l13 -13 5 6 6 6 -18 6 -18 7 12 -12z"/>
<path d="M34175 49930 l-6 -10 9 0 c6 0 29 -16 52 -35 l42 -35 9 6 c13 8 13 8
-38 48 -49 38 -58 42 -68 26z"/>
<path d="M34430 49912 l0 -9 102 -33 c56 -17 160 -45 231 -61 l130 -29 6 5 5
6 -13 8 c-8 5 -51 16 -97 25 -67 14 -263 65 -346 92 l-18 5 0 -9z"/>
<path d="M33670 49879 c0 -17 38 -321 46 -368 3 -18 7 -31 10 -28 6 5 -43 398
-51 405 -3 3 -5 -1 -5 -9z"/>
<path d="M50092 49758 l-154 -80 11 -11 11 -11 122 63 c153 79 188 100 188
112 0 18 -28 7 -178 -73z"/>
<path d="M42661 49797 l-1 -18 122 -235 c67 -129 123 -232 125 -230 2 2 -50
107 -115 233 -66 126 -122 237 -125 248 l-5 20 -1 -18z"/>
<path d="M49557 49739 l-58 -30 -167 -40 c-92 -22 -240 -55 -330 -73 -89 -19
-165 -36 -168 -39 l-6 -6 6 -9 6 -9 163 33 c89 18 241 51 337 75 l175 42 58
28 57 29 0 15 c0 20 -6 19 -73 -16z"/>
<path d="M30203 49743 l-93 -4 0 -11 0 -11 137 6 c75 4 169 7 210 7 l73 0 0
10 0 10 -117 -2 c-65 -1 -160 -4 -210 -5z"/>
<path d="M49641 49697 l-1 -29 20 -25 20 -26 0 14 c0 8 -9 32 -19 54 l-19 40
-1 -28z"/>
<path d="M39643 49624 c17 -17 369 -94 431 -94 41 0 7 9 -88 25 -55 8 -153 29
-217 45 -65 17 -121 30 -125 30 l-7 0 6 -6z"/>
<path d="M38151 49524 c-6 -22 -28 -108 -50 -191 l-39 -153 6 0 c9 0 105 371
98 377 -3 3 -9 -12 -15 -33z"/>
<path d="M69420 49439 l0 -7 213 -4 c116 -2 214 -3 216 -1 13 9 -23 11 -217
15 l-212 3 0 -6z"/>
<path d="M49985 49220 l-6 -10 87 -147 c48 -82 135 -220 194 -308 59 -88 124
-191 145 -230 21 -38 39 -71 40 -73 1 -1 9 0 17 3 l16 6 -52 92 c-29 51 -102
166 -162 257 -61 91 -144 222 -185 293 -40 70 -77 127 -81 127 -4 0 -10 -4
-13 -10z"/>
<path d="M84926 49134 c161 -208 184 -236 184 -220 0 9 -232 301 -242 305 -6
2 20 -36 58 -85z"/>
<path d="M37923 49085 c3 -16 20 -120 37 -230 l33 -200 9 -10 9 -10 -5 25 c-3
14 -21 119 -40 234 -19 114 -38 211 -42 215 l-7 6 6 -30z"/>
<path d="M38073 49097 l3 -11 210 -52 209 -53 8 8 8 8 -221 56 -221 55 4 -11z"/>
<path d="M64720 48963 c0 -10 -9 -31 -20 -48 -11 -16 -20 -34 -20 -40 l1 -10
24 28 25 28 0 30 c0 16 -2 29 -5 29 -3 0 -5 -8 -5 -17z"/>
<path d="M81175 48950 l-60 -19 -25 6 -25 6 14 -16 13 -17 16 0 c8 0 46 9 83
20 l69 21 0 9 0 10 -12 -1 c-7 0 -40 -9 -73 -19z"/>
<path d="M91417 48678 c-81 -94 -147 -176 -147 -182 l0 -10 8 10 c5 5 64 74
132 154 68 80 132 155 143 167 11 13 18 25 15 28 -2 3 -70 -73 -151 -167z"/>
<path d="M33905 48565 c-225 -13 -426 -25 -445 -27 l-35 -5 45 -1 c67 -2 952
46 958 53 8 8 -74 5 -523 -20z"/>
<path d="M44030 48523 c0 -7 39 -93 87 -193 l87 -182 4 11 4 12 -82 172 c-46
95 -86 176 -91 182 l-9 9 0 -11z"/>
<path d="M41466 48493 c-11 -11 -6 -23 9 -23 l15 0 0 9 c0 6 -4 12 -9 15 l-8
5 -7 -6z"/>
<path d="M66340 48480 l0 -10 24 0 c13 0 220 -40 461 -90 241 -49 439 -90 441
-90 2 0 4 6 4 13 l0 12 -433 88 c-237 48 -447 87 -464 87 l-33 0 0 -10z"/>
<path d="M41334 48463 l-12 -4 26 -79 26 -80 14 0 13 0 -6 21 c-4 11 -17 49
-28 83 l-22 63 -11 -4z"/>
<path d="M44450 48213 l-141 -136 13 -8 13 -7 143 138 c78 76 142 141 142 144
0 3 -6 6 -14 6 l-15 0 -141 -137z"/>
<path d="M50523 48199 l-12 -12 63 -81 c35 -45 94 -127 131 -183 37 -57 71
-103 74 -103 3 0 12 4 19 9 l13 8 -71 107 c-69 105 -185 258 -199 264 -4 1
-12 -3 -18 -9z"/>
<path d="M33961 48121 c-1 -18 49 -402 55 -420 2 -8 6 -12 9 -10 4 5 -52 416
-59 434 l-4 10 -1 -14z"/>
<path d="M51102 47974 l18 -85 29 -57 c16 -31 38 -91 51 -132 12 -41 31 -97
42 -125 31 -79 31 -84 -2 -20 -16 33 -30 68 -30 77 0 26 -48 155 -86 230 l-34
67 -15 -5 c-21 -8 -19 -16 19 -103 19 -42 44 -110 56 -151 20 -66 69 -190 76
-190 2 0 14 4 28 10 l26 10 0 -12 c0 -6 2 -9 4 -7 3 3 -18 67 -45 144 -55 157
-92 280 -110 373 l-12 62 -17 0 -17 0 19 -86z"/>
<path d="M47256 47978 l-58 -29 6 -6 5 -5 45 26 45 26 28 0 28 0 120 -45 c65
-24 121 -42 124 -40 2 3 2 7 0 9 -8 7 -225 83 -254 89 l-30 5 -59 -30z"/>
<path d="M69172 47918 l4 -12 578 -117 c317 -65 591 -122 609 -128 47 -15 525
-114 902 -187 l329 -64 10 10 9 9 -14 5 c-8 2 -167 34 -354 70 -318 61 -733
148 -940 196 -81 19 -1120 230 -1132 230 -2 0 -3 -5 -1 -12z"/>
<path d="M80050 47794 c-80 -69 -149 -129 -153 -134 l-9 -8 11 -6 10 -6 150
130 c136 117 167 150 144 150 -5 0 -73 -57 -153 -126z"/>
<path d="M43696 47809 l-38 -21 10 -10 10 -10 31 18 31 18 0 13 c0 16 3 16
-44 -8z"/>
<path d="M46627 47673 c-103 -47 -186 -88 -184 -90 5 -4 358 156 372 168 17
16 2 10 -188 -78z"/>
<path d="M41631 47460 l15 -25 45 -22 44 -22 60 1 60 0 -50 8 -50 8 -45 21
c-25 11 -56 29 -70 38 l-25 18 16 -25z"/>
<path d="M41650 47375 l0 -15 14 0 14 0 31 -35 31 -36 6 -39 7 -40 10 0 10 0
-5 52 -5 52 -41 38 -41 38 -16 0 -15 0 0 -15z"/>
<path d="M53924 47292 c-18 -15 -37 -37 -43 -48 l-10 -21 6 -7 c11 -11 23 -7
23 8 l0 14 40 35 40 34 -7 6 c-10 11 -16 8 -49 -21z"/>
<path d="M34853 47273 l-83 -4 0 -7 0 -7 87 3 c49 2 126 7 173 11 l85 8 -90 0
c-49 -1 -127 -3 -172 -4z"/>
<path d="M53535 47178 c-60 -33 -231 -122 -380 -198 l-270 -138 -145 -50 -145
-49 -102 -23 c-99 -22 -132 -34 -123 -44 9 -8 250 54 388 100 l137 46 120 60
c66 33 238 123 383 200 l262 140 0 9 c0 15 -10 10 -125 -53z"/>
<path d="M53847 47195 l-18 -13 8 -5 9 -6 13 9 13 8 -3 10 -4 11 -18 -14z"/>
<path d="M53463 47082 l-202 -107 8 -8 9 -9 199 103 198 104 15 -2 c8 -2 27 0
43 3 l27 6 0 9 0 9 -47 0 -48 -1 -202 -107z"/>
<path d="M20662 47113 l-21 -68 -21 -132 c-12 -73 -20 -138 -18 -144 2 -7 16
62 32 151 l28 164 19 48 19 48 -9 0 -8 0 -21 -67z"/>
<path d="M53915 46931 l126 -252 10 6 10 7 -124 241 -125 241 -11 4 -12 4 126
-251z"/>
<path d="M34750 46751 l0 -181 15 0 15 0 -2 177 -3 176 -12 5 -13 4 0 -181z"/>
<path d="M66050 46921 c0 -14 60 -434 66 -459 l5 -23 8 5 8 5 -33 228 c-19
125 -34 234 -34 241 l0 12 -10 0 c-5 0 -10 -4 -10 -9z"/>
<path d="M39260 46871 l0 -19 15 -12 15 -13 8 8 7 8 -12 4 -13 5 0 19 0 19
-10 0 -10 0 0 -19z"/>
<path d="M21806 46781 l-8 -13 12 -44 13 -44 13 0 14 0 -6 28 c-4 15 -12 40
-18 57 l-12 29 -8 -13z"/>
<path d="M18650 46744 c0 -15 224 -474 232 -474 6 0 -217 468 -228 479 -2 2
-4 0 -4 -5z"/>
<path d="M20626 46718 c-3 -18 -17 -55 -30 -83 l-24 -50 -48 -46 -49 -46 -77
-33 c-43 -19 -78 -37 -78 -41 l0 -8 96 44 96 43 35 33 35 34 24 54 c23 52 42
131 31 131 -2 0 -8 -15 -11 -32z"/>
<path d="M82445 46684 c-44 -7 -101 -20 -126 -27 l-47 -14 -250 -189 c-138
-104 -251 -193 -251 -198 l-1 -8 15 6 c9 3 125 88 258 189 l242 184 90 21 c50
12 120 24 158 28 l67 7 0 8 0 9 -37 -1 c-21 -1 -74 -7 -118 -15z"/>
<path d="M37333 46615 l0 -25 8 0 9 0 0 25 0 25 -9 0 -8 0 0 -25z"/>
<path d="M57460 46621 c0 -5 15 -15 33 -22 l32 -13 28 -29 27 -29 0 26 0 26
-40 25 -40 25 -20 0 -20 0 0 -9z"/>
<path d="M36497 46586 l-8 -28 6 -6 5 -5 6 5 c3 4 4 19 2 35 l-3 28 -8 -29z"/>
<path d="M33963 46523 l-133 -4 0 -14 0 -15 83 0 c46 0 145 3 220 7 l137 6 0
14 0 13 -87 -2 c-49 -1 -148 -4 -220 -5z"/>
<path d="M42616 46489 c-3 -19 -8 -126 -11 -239 l-6 -205 6 6 c6 7 27 461 21
467 -3 2 -7 -11 -10 -29z"/>
<path d="M80970 46440 l-15 -10 23 0 23 0 -6 10 c-7 12 -6 12 -25 0z"/>
<path d="M50815 46430 c3 -5 8 -10 11 -10 3 0 2 5 -1 10 -3 6 -8 10 -11 10 -3
0 -2 -4 1 -10z"/>
<path d="M80862 46423 l-22 -4 4 -8 5 -8 31 5 30 4 0 9 0 9 -12 -1 c-7 -1 -23
-4 -36 -6z"/>
<path d="M34693 46378 c3 -24 11 -105 18 -180 l13 -138 8 0 8 0 0 33 c0 17 -7
95 -15 172 -8 77 -15 143 -15 148 0 4 -5 7 -11 7 l-12 0 6 -42z"/>
<path d="M80975 46400 l-6 -10 15 0 16 0 0 10 c0 6 -4 10 -9 10 -6 0 -13 -4
-16 -10z"/>
<path d="M80867 46383 l-17 -5 4 -7 5 -8 31 5 30 4 0 9 0 9 -17 -1 c-10 -1
-26 -3 -36 -6z"/>
<path d="M50850 46364 c0 -7 64 -128 122 -232 17 -29 32 -51 35 -48 5 5 -145
286 -153 286 -2 0 -4 -3 -4 -6z"/>
<path d="M51667 46349 l6 -20 9 9 10 10 -6 11 c-4 6 -11 11 -16 11 l-8 0 5
-21z"/>
<path d="M81542 46150 c-100 -82 -182 -152 -182 -155 1 -16 29 4 196 139 164
132 202 167 177 165 -5 0 -90 -67 -191 -149z"/>
<path d="M27995 46264 c-110 -7 -203 -13 -207 -13 -5 -1 -8 -8 -8 -17 l0 -15
43 5 c23 3 101 8 172 11 72 3 165 8 208 12 l77 6 0 13 0 14 -42 -1 c-24 -1
-133 -8 -243 -15z"/>
<path d="M51428 46274 l-6 -5 42 -43 c22 -24 42 -42 44 -41 6 5 -29 79 -41 87
-14 9 -31 10 -39 2z"/>
<path d="M19886 46252 c9 -35 84 -195 90 -189 3 2 -18 51 -45 108 -28 57 -48
94 -45 81z"/>
<path d="M19843 46238 c25 -63 92 -199 94 -191 4 11 -84 203 -93 203 l-6 0 5
-12z"/>
<path d="M93042 46050 l-22 -29 -82 -31 -82 -32 -28 6 -28 5 -95 -6 -95 -6 0
-10 0 -9 16 6 c9 4 69 7 133 7 l116 0 70 26 70 26 30 28 30 28 25 -14 25 -14
35 -1 35 0 53 -25 54 -25 54 0 54 0 74 37 75 37 -4 6 -4 7 -77 -39 -76 -38
-42 0 -41 0 -47 25 -47 25 -38 0 -39 0 -39 20 c-22 11 -39 20 -40 19 0 0 -10
-13 -23 -29z"/>
<path d="M50970 46056 c0 -5 42 -89 93 -187 l92 -179 13 0 12 0 -14 23 c-8 12
-51 92 -96 177 -45 85 -86 159 -91 165 l-9 9 0 -8z"/>
<path d="M81080 46053 c0 -25 32 -186 51 -252 11 -42 22 -83 24 -91 37 -157
148 -538 192 -660 l50 -135 54 -217 54 -218 7 0 c13 0 11 10 -47 238 l-54 217
-61 173 -60 172 -46 178 c-25 97 -59 229 -76 292 -16 63 -38 157 -47 209 l-17
95 -12 4 -12 4 0 -9z"/>
<path d="M81340 45949 l0 -10 10 6 c6 3 10 8 10 11 0 2 -4 4 -10 4 -5 0 -10
-5 -10 -11z"/>
<path d="M81284 45868 c-38 -33 -77 -74 -88 -90 l-18 -29 7 -7 7 -7 11 20 c13
23 42 53 115 116 l54 47 -9 5 -10 6 -69 -61z"/>
<path d="M81370 45886 c-4 -13 -14 -43 -20 -67 -6 -24 -20 -66 -32 -94 l-21
-50 -16 -12 -16 -12 10 -1 c31 0 54 45 90 178 21 80 24 107 5 58z"/>
<path d="M81322 45858 c-5 -7 -17 -39 -26 -72 l-17 -58 -25 -24 c-29 -30 -30
-34 -4 -27 l21 6 16 30 c15 30 55 157 49 157 -2 0 -8 -6 -14 -12z"/>
<path d="M46125 45821 c11 -6 87 -22 170 -36 l150 -27 72 7 c65 6 144 22 118
24 -5 0 -50 -4 -99 -9 l-89 -11 -141 26 c-78 14 -154 28 -171 30 l-30 5 20 -9z"/>
<path d="M51885 45800 l-6 -10 10 0 c5 0 13 5 16 10 l6 10 -10 0 c-5 0 -13 -4
-16 -10z"/>
<path d="M81246 45630 l6 -29 -10 -30 -11 -31 8 -5 9 -5 12 30 12 30 -6 35 -7
35 -9 0 -9 0 5 -30z"/>
<path d="M49630 45459 c0 -4 11 -31 24 -62 l25 -55 -6 -23 c-3 -13 -13 -32
-21 -42 l-15 -17 -109 -52 -108 -51 0 -9 0 -8 119 59 c65 33 126 67 135 76
l16 16 0 32 -1 32 -29 55 c-16 30 -29 52 -30 49z"/>
<path d="M50449 45459 c0 -2 -24 -102 -53 -221 -29 -120 -50 -218 -46 -218 8
0 111 432 105 439 -3 2 -5 2 -6 0z"/>
<path d="M52141 45373 c-1 -10 174 -407 186 -422 2 -2 5 -2 7 0 4 3 -81 195
-181 409 l-12 25 0 -12z"/>
<path d="M44295 45298 c-11 -7 -45 -18 -75 -25 l-55 -13 -85 0 c-47 -1 -103
-5 -125 -9 l-40 -9 75 -1 c41 0 115 4 164 9 l90 11 43 19 c24 10 43 21 43 24
0 9 -13 7 -35 -6z"/>
<path d="M81350 44910 c0 -5 4 -10 9 -10 6 0 13 5 16 10 l6 10 -15 0 -16 0 0
-10z"/>
<path d="M81256 44891 l-20 -8 10 -6 11 -6 21 6 c12 3 22 9 22 14 0 11 -17 11
-44 0z"/>
<path d="M46592 44775 l-2 -91 23 -44 22 -45 65 -37 65 -38 82 0 82 0 78 31
c43 17 89 35 102 40 13 5 22 12 19 15 -3 2 -52 -14 -109 -36 l-103 -40 -69 0
-69 0 -67 40 -67 40 -19 38 -19 37 -6 90 -6 90 -2 -90z"/>
<path d="M55856 44564 c-48 -25 -86 -48 -83 -50 3 -3 42 13 88 36 l83 42 12
-17 c7 -9 44 -79 84 -156 l71 -139 26 -17 26 -17 151 -18 c83 -9 157 -17 165
-17 l14 -1 -6 6 c-3 4 -76 14 -161 24 l-156 18 -25 16 -25 17 -80 159 c-44 88
-83 160 -88 159 -4 0 -47 -20 -96 -45z"/>
<path d="M28630 44562 c0 -10 151 -68 227 -87 34 -8 89 -18 122 -21 l61 -7 0
10 0 10 -60 6 c-78 9 -198 39 -277 72 -69 27 -73 29 -73 17z"/>
<path d="M53841 44565 c-2 -17 140 -320 161 -346 25 -30 25 -30 -50 126 -99
208 -111 231 -111 220z"/>
<path d="M52541 44514 c-1 -16 120 -268 133 -276 6 -4 13 -5 15 -2 3 3 0 8 -6
12 -6 4 -40 68 -76 142 -36 74 -66 130 -66 124z"/>
<path d="M56100 44399 c0 -8 13 -36 30 -62 l29 -46 23 -5 c43 -10 310 -37 315
-33 7 8 -40 15 -177 28 l-125 11 -22 14 -23 14 -24 48 -25 47 -1 -16z"/>
<path d="M41602 44248 c-7 -7 -12 -16 -12 -22 l0 -10 12 12 c7 7 20 12 31 12
l18 0 -6 10 c-8 14 -28 13 -43 -2z"/>
<path d="M57532 43868 c-106 -55 -191 -102 -188 -105 4 -4 390 190 405 203 2
2 -2 4 -10 4 -8 -1 -101 -46 -207 -102z"/>
<path d="M27540 43869 c102 -50 196 -95 210 -101 l25 -9 -10 9 c-11 10 -370
181 -395 188 -8 2 68 -37 170 -87z"/>
<path d="M52858 43622 l-17 -7 101 -213 101 -213 15 15 15 15 -98 205 c-54
113 -99 206 -99 205 -1 0 -9 -3 -18 -7z"/>
<path d="M34309 43522 c-19 -16 -54 -39 -79 -52 l-44 -23 -58 2 -57 1 -51 20
c-56 22 -70 24 -70 11 l0 -8 62 -23 62 -22 60 -1 61 -2 47 24 47 24 32 33 33
34 -6 5 -6 6 -33 -29z"/>
<path d="M34508 43489 l-16 -47 -62 -93 c-35 -52 -81 -113 -103 -136 l-41 -43
10 0 c30 0 174 192 215 287 l20 47 -4 15 -3 16 -16 -46z"/>
<path d="M8530 43439 c0 -19 5 -125 12 -236 l11 -203 8 0 8 0 -4 33 c-3 17
-10 122 -16 232 -6 110 -13 202 -15 204 -2 2 -4 -11 -4 -30z"/>
<path d="M50735 43256 c-126 -33 -267 -75 -273 -81 -11 -10 16 -4 138 31 69
20 161 45 205 54 l80 18 -30 0 c-16 1 -70 -10 -120 -22z"/>
<path d="M52476 43243 l-6 -19 -28 -21 c-15 -11 -91 -50 -170 -87 l-142 -67
-9 5 -9 6 -6 -15 -5 -15 9 0 10 0 92 -185 c51 -102 96 -185 100 -185 5 0 -34
85 -86 188 l-94 188 146 69 c81 38 158 76 170 84 l24 14 9 25 c5 14 8 27 5 29
-2 3 -7 -4 -10 -14z"/>
<path d="M75188 43041 c-109 -15 -200 -30 -204 -33 l-5 -6 8 -4 c4 -3 110 9
236 26 l227 30 0 8 0 8 -32 -1 c-18 -1 -122 -13 -230 -28z"/>
<path d="M10490 42970 l0 -30 10 0 10 0 0 30 0 30 -10 0 -10 0 0 -30z"/>
<path d="M29886 42843 c62 -84 74 -101 117 -175 l45 -76 35 -94 34 -93 12 -67
11 -67 9 -188 9 -188 10 -25 c20 -52 457 -549 471 -535 2 3 -18 29 -45 58
-191 200 -379 419 -407 473 l-14 29 -7 145 c-4 80 -11 188 -17 240 l-9 94 -36
106 -36 105 -40 70 c-54 92 -149 225 -161 225 l-9 0 28 -37z"/>
<path d="M29830 42854 c0 -3 38 -61 84 -128 l83 -123 24 -61 c13 -34 27 -62
31 -62 l8 0 -21 51 c-27 71 -31 78 -121 212 -72 107 -88 128 -88 111z"/>
<path d="M31771 42498 l-164 -168 7 -7 7 -7 120 119 c134 133 202 211 197 223
l-3 8 -164 -168z"/>
<path d="M52295 42588 c51 -117 175 -362 175 -348 0 19 -183 400 -192 400 l-7
0 24 -52z"/>
<path d="M91452 42425 c-107 -56 -199 -109 -205 -115 -11 -12 99 44 321 162
84 46 105 59 85 57 -5 0 -95 -47 -201 -104z"/>
<path d="M50832 42490 c-73 -10 -136 -20 -139 -24 l-6 -6 15 0 c27 0 323 41
327 46 8 7 -62 2 -197 -16z"/>
<path d="M53702 42445 l-134 -65 -40 21 -40 20 -6 -5 c-3 -3 -3 -7 -1 -8 31
-19 74 -38 85 -38 16 0 274 127 274 135 0 7 6 10 -138 -60z"/>
<path d="M45928 42262 c-87 -48 -159 -92 -162 -98 -2 -6 -1 -35 4 -65 l8 -54
1 60 1 60 160 88 c88 49 160 90 160 93 0 10 -23 -1 -172 -84z"/>
<path d="M52514 42232 c27 -85 179 -372 197 -372 4 0 -21 49 -56 110 -36 60
-81 148 -101 195 -20 47 -38 85 -41 85 -2 0 -2 -8 1 -18z"/>
<path d="M69341 42169 c-102 -16 -187 -32 -190 -34 -15 -16 28 -12 218 17
l211 33 0 7 0 8 -27 -1 c-16 -1 -111 -14 -212 -30z"/>
<path d="M31075 41859 l-136 -192 8 -7 8 -7 137 193 137 194 -9 5 -8 5 -137
-191z"/>
<path d="M66930 41830 c-8 -5 -45 -16 -82 -26 l-68 -16 0 -9 c0 -16 58 -5 148
27 l42 16 0 9 c0 12 -21 11 -40 -1z"/>
<path d="M82726 41651 l-6 -9 401 -654 c221 -359 434 -706 473 -770 l70 -117
13 10 12 11 -84 136 c-47 75 -259 422 -472 769 -214 348 -391 633 -395 633 -4
0 -9 -4 -12 -9z"/>
<path d="M30450 41168 l-185 -140 -3 -15 -4 -15 183 138 c100 77 187 142 192
145 l9 7 -3 10 -4 10 -185 -140z"/>
<path d="M28497 41246 l-5 -12 22 -2 c11 0 53 -8 91 -16 l70 -15 146 -4 146
-5 0 12 0 11 -146 3 -146 4 -87 18 -87 17 -4 -11z"/>
<path d="M41086 41100 l-56 -69 -43 -29 -42 -29 -69 -18 -69 -19 12 -4 13 -4
61 17 62 17 41 29 c40 27 103 96 139 152 31 48 9 29 -49 -43z"/>
<path d="M29421 41033 c1 -14 112 -99 188 -144 l75 -44 69 -3 70 -4 -6 9 -6
10 -62 7 -62 6 -63 35 c-35 20 -91 58 -125 85 -60 48 -80 59 -78 43z"/>
<path d="M66107 40473 l-64 -128 -8 -35 c-4 -19 -11 -45 -16 -57 l-8 -21 -42
14 -42 15 -16 -7 -16 -6 44 -13 43 -14 24 -22 24 -22 0 -23 c0 -12 -7 -38 -15
-58 l-15 -36 -20 -12 c-11 -7 -20 -16 -20 -20 0 -16 27 -7 47 15 l21 22 13 43
13 43 -13 34 -12 34 17 58 17 58 63 127 64 127 -10 6 -9 6 -64 -128z"/>
<path d="M43170 40586 c0 -15 107 -222 165 -319 l68 -115 14 5 14 5 -14 22
c-45 69 -148 253 -182 324 l-39 82 -13 0 c-7 0 -13 -2 -13 -4z"/>
<path d="M65822 40207 c-6 -12 -13 -37 -16 -54 l-5 -33 9 0 10 0 6 28 c3 15 9
37 14 49 l9 22 -8 5 -8 5 -11 -22z"/>
<path d="M52191 40048 c-18 -90 -35 -172 -38 -183 l-5 -20 9 10 10 10 32 169
c17 92 30 170 28 172 -2 3 -18 -69 -36 -158z"/>
<path d="M52750 40181 l0 -8 236 -47 236 -47 6 5 c3 3 3 8 1 10 -4 4 -453 96
-469 96 -6 0 -10 -4 -10 -9z"/>
<path d="M46510 40093 c1 -5 7 -19 15 -33 l14 -25 1 17 c0 23 -11 48 -21 48
-5 0 -9 -3 -9 -7z"/>
<path d="M65845 40050 l-6 -9 30 -16 30 -15 26 0 25 0 0 10 0 10 -20 0 c-12 0
-34 7 -50 15 l-29 15 -6 -10z"/>
<path d="M84777 39946 l-5 -12 -281 -179 c-155 -98 -285 -183 -288 -188 l-6
-10 14 8 c8 4 141 89 297 188 156 98 284 178 286 176 20 -26 181 -271 211
-321 21 -38 43 -68 47 -68 10 0 -88 161 -178 291 -40 59 -71 109 -68 112 3 2
-2 7 -10 10 l-14 6 -5 -13z"/>
<path d="M45410 39655 c0 -11 5 -27 10 -35 l10 -15 0 20 c0 11 -5 27 -10 35
l-10 15 0 -20z"/>
<path d="M52026 39020 c11 -10 409 -83 424 -78 7 2 -55 16 -137 31 -81 15
-181 33 -222 41 l-73 14 8 -8z"/>
<path d="M52012 38984 c3 -3 111 -25 239 -50 670 -129 1073 -204 1076 -200 7
7 -20 13 -462 96 -236 45 -524 99 -638 121 -115 21 -211 39 -215 39 l-5 0 5
-6z"/>
<path d="M94891 38920 c92 -133 296 -409 302 -410 5 0 -13 31 -40 68 -183 258
-259 361 -267 362 l-8 0 13 -20z"/>
<path d="M55666 38841 l-7 -11 192 -125 192 -126 10 10 11 11 -9 8 c-16 15
-354 232 -369 238 l-14 5 -6 -10z"/>
<path d="M60290 38450 c0 -5 5 -10 10 -10 l10 0 0 -16 0 -15 -47 -67 c-26 -37
-87 -110 -135 -162 -48 -52 -84 -97 -81 -100 8 -8 158 157 223 248 l60 82 0
15 0 14 -20 11 -20 11 0 -11z"/>
<path d="M46230 38383 c0 -5 11 -20 25 -33 l25 -23 7 6 c3 4 4 8 2 10 -2 1
-16 13 -31 26 l-28 24 0 -10z"/>
<path d="M89500 37983 c1 -8 204 -297 241 -343 l21 -25 -14 22 c-34 57 -230
343 -238 348 l-10 6 0 -8z"/>
<path d="M90530 37550 l0 -10 38 0 37 0 15 10 15 10 -52 0 -53 0 0 -10z"/>
<path d="M90475 37466 c-100 -45 -191 -89 -204 -98 l-22 -16 11 -7 11 -7 14
12 c7 6 96 49 196 94 l183 83 4 11 4 12 -9 -1 c-4 0 -89 -37 -188 -83z"/>
<path d="M580 37384 l0 -20 20 -22 c12 -12 26 -22 32 -22 l11 0 -20 23 c-11
12 -25 31 -31 42 l-11 20 -1 -21z"/>
<path d="M51260 36822 c0 -9 281 -269 308 -286 32 -20 0 14 -148 149 -88 80
-160 142 -160 137z"/>
<path d="M51290 36738 c120 -115 260 -241 265 -236 3 2 -61 65 -142 139 -157
144 -230 202 -123 97z"/>
<path d="M39814 36253 c3 -16 8 -124 12 -240 l6 -213 10 0 10 0 -6 28 c-3 15
-8 123 -12 240 l-6 212 -10 0 -10 0 6 -27z"/>
<path d="M54735 35799 c-104 -15 -209 -28 -232 -28 l-43 -1 0 -11 0 -12 73 7
c39 3 142 16 227 28 l155 21 9 8 c5 5 8 10 5 12 -2 2 -89 -9 -194 -24z"/>
<path d="M41764 35677 l19 -14 -5 -27 -6 -28 10 10 10 10 -4 28 -3 29 -20 3
-20 4 19 -15z"/>
<path d="M84915 35602 c-30 -10 -85 -45 -85 -55 l0 -8 13 7 c6 4 24 16 39 26
l26 18 26 0 26 0 20 -20 c10 -10 29 -38 41 -62 32 -64 93 -158 103 -158 l8 0
-16 23 c-9 12 -39 64 -67 115 l-51 92 -21 15 c-23 16 -30 17 -62 7z"/>
<path d="M30893 35228 c4 -62 7 -164 7 -225 l0 -113 10 0 10 0 0 113 c0 61 -3
163 -7 225 l-6 112 -10 0 -10 0 6 -112z"/>
<path d="M60982 35208 c-11 -29 -45 -113 -76 -185 l-55 -133 8 0 9 0 63 153
c34 83 69 167 76 185 l13 32 -8 0 -9 0 -21 -52z"/>
<path d="M86631 35214 c-14 -13 -88 -63 -165 -111 -78 -48 -156 -96 -174 -109
l-34 -22 9 -5 8 -5 169 104 c168 103 226 145 226 164 0 15 -13 10 -39 -16z"/>
<path d="M56001 34963 c16 -109 28 -202 29 -207 l0 -9 6 6 6 6 -27 200 -28
201 -7 0 -6 0 27 -197z"/>
<path d="M85420 34971 c0 -13 181 -312 208 -344 8 -9 17 -15 20 -12 3 3 -2 13
-10 22 -8 10 -59 90 -113 178 -109 179 -105 173 -105 156z"/>
<path d="M85380 34947 c0 -10 158 -265 194 -312 16 -22 31 -42 33 -44 2 -2 5
-2 8 1 l6 5 -24 29 c-13 16 -62 90 -107 164 -79 128 -110 173 -110 157z"/>
<path d="M73277 34713 c4 -49 8 -157 8 -240 l0 -153 13 0 12 0 0 127 0 127
-11 113 -12 113 -9 0 -10 0 9 -87z"/>
<path d="M32965 34523 c8 -8 205 -70 458 -144 l27 -8 0 7 c0 4 -105 38 -233
76 -127 38 -239 71 -247 74 l-15 5 10 -10z"/>
<path d="M77482 34337 l-323 -162 -302 1 -302 2 195 -10 195 -9 115 4 115 4
315 158 315 159 45 7 45 6 -45 1 -45 1 -323 -162z"/>
<path d="M56343 34396 l-232 -30 4 -6 4 -6 228 29 c125 16 230 31 232 33 12
11 -23 8 -236 -20z"/>
<path d="M69733 34323 c65 -2 168 -2 230 0 l112 3 -230 0 -230 0 118 -3z"/>
<path d="M55858 34286 c-115 -18 -211 -36 -215 -39 l-6 -7 6 0 c21 0 472 71
476 75 9 10 -59 2 -261 -29z"/>
<path d="M54907 34145 l-228 -33 -7 -7 -7 -8 35 6 c19 2 127 17 240 32 l205
28 10 9 9 8 -14 -1 c-8 -1 -118 -16 -243 -34z"/>
<path d="M52695 33885 c-82 -13 -170 -27 -193 -30 -24 -4 -42 -9 -39 -11 7 -7
377 45 402 56 l20 9 -20 -1 c-11 0 -87 -11 -170 -23z"/>
<path d="M57840 33698 c0 -4 18 -48 40 -98 l39 -92 22 -111 c12 -62 26 -119
30 -127 l8 -15 1 11 c0 6 -11 65 -24 130 l-25 119 -36 85 c-32 76 -55 116 -55
98z"/>
<path d="M79411 32686 c10 -10 364 -146 373 -143 5 2 -43 25 -105 51 -151 65
-287 111 -268 92z"/>
<path d="M73030 32567 l0 -43 -15 -20 -14 -21 -43 -11 c-24 -6 -52 -14 -63
-16 -11 -3 9 -3 45 0 l65 5 23 25 22 25 0 50 0 49 -10 0 -10 0 0 -43z"/>
<path d="M73325 32489 c-159 -20 -499 -63 -755 -94 -256 -31 -845 -108 -1310
-171 -465 -63 -988 -133 -1162 -156 l-318 -42 0 -13 0 -13 18 0 c20 0 300 37
1392 185 432 58 938 126 1125 149 187 24 573 74 858 112 l517 69 0 7 0 8 -37
-1 c-21 -1 -168 -19 -328 -40z"/>
<path d="M34300 32508 c0 -7 9 -26 20 -43 l20 -30 0 13 c0 15 -28 72 -35 72
-3 0 -5 -6 -5 -12z"/>
<path d="M66312 32488 c5 -15 51 -42 240 -141 l147 -77 6 9 5 10 -67 37 c-38
20 -122 67 -189 105 -67 38 -127 69 -133 69 l-13 0 4 -12z"/>
<path d="M72823 32443 c9 -2 23 -2 30 0 l12 5 -30 0 -30 0 18 -5z"/>
<path d="M72753 32433 l7 -6 7 6 6 7 -13 0 -13 0 6 -7z"/>
<path d="M72991 32338 c0 -7 4 -22 9 -33 l9 -20 0 27 1 27 -10 6 -10 6 1 -13z"/>
<path d="M71336 32184 c-494 -68 -901 -126 -904 -128 -2 -3 -2 -12 2 -21 l6
-16 32 6 c41 7 1788 245 1800 245 l8 0 0 20 0 20 -22 -1 c-13 0 -428 -57 -922
-125z"/>
<path d="M98680 31695 c0 -2 23 -16 51 -31 l51 -25 -7 10 c-3 6 -24 20 -45 31
-40 21 -50 24 -50 15z"/>
<path d="M99090 31215 c0 -8 271 -378 293 -400 l20 -20 -8 15 c-13 24 -296
410 -301 410 -2 0 -4 -2 -4 -5z"/>
<path d="M80559 30855 l-27 -14 -73 -12 -74 -11 -148 -116 c-157 -123 -162
-128 -149 -136 l9 -5 157 122 157 123 37 2 c60 4 152 36 152 54 0 11 -11 10
-41 -7z"/>
<path d="M79860 30491 c5 -11 15 -23 20 -26 l10 -6 0 8 c-1 11 -26 43 -34 43
l-7 0 11 -19z"/>
<path d="M83084 30189 l-7 -12 35 -31 c107 -94 364 -306 373 -307 5 0 11 3 12
8 l3 9 -197 170 c-108 93 -200 170 -204 172 -4 2 -11 -2 -15 -9z"/>
<path d="M70085 29032 c6 -6 160 -106 344 -222 183 -116 353 -227 378 -247 24
-20 46 -34 48 -31 3 3 -14 20 -37 39 -46 37 -702 458 -727 467 l-16 5 10 -11z"/>
<path d="M84007 29023 l-7 -6 63 -66 c34 -36 102 -103 150 -148 l88 -83 11 6
10 7 -148 148 c-82 82 -151 149 -155 149 -3 0 -9 -3 -12 -7z"/>
<path d="M6362 28968 l4 -12 400 -57 c219 -32 416 -60 437 -63 l37 -6 0 13 0
13 -432 62 c-238 34 -437 62 -441 62 l-9 0 4 -12z"/>
<path d="M10320 28908 c0 -2 -18 -94 -40 -203 -22 -109 -38 -200 -36 -202 6
-7 12 16 51 215 l37 184 -6 6 c-3 3 -6 3 -6 0z"/>
<path d="M24860 27626 l5 -224 9 -9 9 -8 -7 130 c-3 72 -6 176 -6 233 l0 102
-7 0 -8 0 5 -224z"/>
<path d="M22036 27709 c-3 -13 -19 -116 -36 -229 -17 -113 -44 -292 -60 -399
-26 -171 -30 -216 -16 -200 3 3 44 271 61 399 4 25 20 135 36 244 16 109 27
201 25 204 -3 2 -7 -6 -10 -19z"/>
<path d="M17270 27471 c0 -14 16 -17 238 -47 l202 -27 7 6 6 7 -5 6 c-5 4
-414 64 -440 64 -5 0 -8 -4 -8 -9z"/>
<path d="M17215 27388 c-14 -37 -85 -371 -80 -376 10 -10 15 6 58 196 l44 192
-9 0 c-5 0 -11 -6 -13 -12z"/>
<path d="M21857 26817 c-4 -10 -7 -26 -7 -35 l1 -17 10 18 10 18 -3 17 -4 17
-7 -18z"/>
<path d="M24529 26023 c-23 -71 -59 -167 -81 -216 l-39 -87 3 -38 4 -37 7 30
c5 17 22 64 38 105 26 62 129 357 129 367 0 2 -4 3 -9 3 l-9 0 -43 -127z"/>
<path d="M87314 25977 l-5 -14 163 -161 163 -161 15 15 15 14 -160 160 -160
160 -13 0 -13 0 -5 -13z"/>
<path d="M79225 25663 l-160 -64 -62 -2 -63 -2 0 -14 0 -14 73 5 72 6 157 62
157 61 -6 15 c-3 8 -6 14 -7 13 0 -1 -73 -30 -161 -66z"/>
<path d="M90860 24790 l0 -10 15 0 15 0 0 10 0 10 -15 0 -15 0 0 -10z"/>
<path d="M24042 24448 c-24 -68 -58 -165 -77 -215 l-33 -93 13 0 13 0 25 73
c14 39 48 136 76 215 l50 142 -12 0 -12 0 -43 -122z"/>
<path d="M89100 23313 c0 -11 150 -436 156 -442 18 -18 4 34 -59 224 l-73 219
-12 4 -12 4 0 -9z"/>
<path d="M23080 22433 c-6 -16 -32 -104 -55 -196 l-43 -168 15 3 15 3 38 150
c20 83 45 167 54 189 19 46 19 46 3 46 l-14 0 -13 -27z"/>
<path d="M19973 21702 l-213 -26 0 -8 0 -8 23 0 c12 0 114 11 227 25 113 14
206 25 208 25 1 0 2 5 2 10 l0 10 -17 -1 c-10 -1 -114 -13 -230 -27z"/>
<path d="M18608 21591 c-196 -25 -240 -33 -227 -45 2 -2 103 9 223 23 l219 26
5 13 c2 6 2 12 0 11 -1 -1 -101 -13 -220 -28z"/>
<path d="M15690 21362 c0 -4 19 -27 43 -49 l42 -42 40 -17 39 -16 113 7 113 7
0 10 0 10 -109 -7 -109 -7 -43 20 -44 19 -34 37 c-34 35 -51 44 -51 28z"/>
<path d="M10677 19578 c-4 -46 -9 -139 -12 -208 -4 -69 -8 -135 -11 -147 l-4
-23 8 0 9 0 13 226 c7 124 10 227 8 230 -3 2 -8 -33 -11 -78z"/>
<path d="M15347 18125 c-98 -12 -181 -25 -184 -29 l-6 -6 9 0 c33 1 397 50
402 54 l5 6 -24 -1 c-13 -1 -104 -11 -202 -24z"/>
<path d="M95650 17752 c0 -4 74 -72 165 -150 91 -79 165 -139 165 -134 0 5
-74 73 -165 151 -91 78 -165 138 -165 133z"/>
<path d="M91486 16538 c20 -34 202 -233 252 -277 l56 -50 9 6 9 5 -51 45 c-28
24 -98 98 -157 164 -58 65 -110 119 -115 119 l-10 0 7 -12z"/>
<path d="M15876 16491 l-8 -12 12 -14 12 -14 -7 -20 -6 -21 -25 -6 -24 -6 0
-9 0 -9 24 0 25 0 15 16 16 15 0 28 0 27 -13 19 -14 18 -7 -12z"/>
<path d="M97765 14346 c-82 -95 -151 -179 -153 -187 -3 -8 -3 -12 0 -9 4 4
241 278 296 343 8 9 13 19 11 21 -2 3 -72 -73 -154 -168z"/>
<path d="M13460 6352 l0 -10 43 -6 c23 -3 129 -15 235 -26 l193 -21 147 -30
c81 -16 180 -38 220 -49 l73 -20 12 7 11 7 -84 23 c-47 13 -148 37 -225 52
l-140 29 -200 21 c-110 12 -219 24 -242 27 l-43 6 0 -10z"/>
<path d="M25002 4308 l-141 -173 9 -9 c6 -5 11 -8 13 -5 2 2 65 79 140 171
129 158 150 188 128 188 -4 0 -72 -78 -149 -172z"/>
<path d="M24872 4078 l5 -13 86 -38 86 -38 83 -14 82 -15 9 9 9 9 -74 11 -73
12 -55 21 c-30 12 -77 32 -104 45 -58 27 -59 27 -54 11z"/>
<path d="M22256 2892 l-5 -8 351 -280 c194 -153 441 -350 549 -436 l198 -157
5 8 6 8 -508 404 c-279 222 -526 418 -549 437 l-41 33 -6 -9z"/>
<path d="M23499 2203 c-51 -76 -105 -155 -121 -175 l-29 -37 9 -5 9 -5 25 27
c27 28 205 292 215 317 l5 15 -11 0 -11 0 -91 -137z"/>
<path d="M19950 976 l0 -16 28 0 c15 0 110 -7 212 -15 102 -8 191 -15 198 -15
l12 0 0 13 0 14 -187 12 c-104 6 -205 14 -225 17 l-38 6 0 -16z"/>
<path d="M29467 707 l-155 -172 5 -8 4 -7 9 5 c5 3 76 81 159 175 l151 169 -9
5 -9 6 -155 -173z"/>
</g>
</svg>
