<?xml version="1.0" standalone="no"?>
<!DOCTYPE svg PUBLIC "-//W3C//DTD SVG 20010904//EN"
 "http://www.w3.org/TR/2001/REC-SVG-20010904/DTD/svg10.dtd">
<svg version="1.0" xmlns="http://www.w3.org/2000/svg"
 width="7500.000000pt" height="7500.000000pt" viewBox="0 0 7500.000000 7500.000000"
 preserveAspectRatio="xMidYMid meet">
<metadata>
Created by potrace 1.16, written by Peter Selinger 2001-2019
</metadata>
<g transform="translate(0.000000,7500.000000) scale(0.075000,-0.075000)"
fill="#000000" stroke="none">
<path d="M54840 99997 c0 -6 309 -204 333 -213 42 -16 6 11 -141 104 -152 97
-192 120 -192 109z"/>
<path d="M89013 99993 l7 -6 7 6 6 7 -13 0 -13 0 6 -7z"/>
<path d="M82900 99312 c1 -12 382 -222 403 -222 7 0 -42 31 -108 68 -178 100
-295 162 -295 154z"/>
<path d="M84333 98843 l-173 -3 0 -10 0 -10 53 0 c28 0 116 3 195 7 l142 6 0
9 0 8 -22 -2 c-13 -1 -101 -4 -195 -5z"/>
<path d="M14096 96409 c-3 -13 -14 -72 -26 -131 -11 -59 -34 -148 -50 -198
-33 -101 -35 -110 -20 -110 l10 0 14 33 c24 58 63 208 81 310 l18 98 -11 11
-11 11 -5 -24z"/>
<path d="M87803 94842 c-106 -59 -192 -110 -193 -114 0 -18 33 -2 212 98 l188
106 -6 9 c-3 5 -6 9 -7 9 -1 0 -88 -49 -194 -108z"/>
<path d="M98906 94231 c5 -4 103 -45 217 -91 l208 -82 6 5 6 6 -24 10 c-13 5
-109 43 -214 85 -104 42 -194 76 -199 76 l-10 0 10 -9z"/>
<path d="M86815 92733 c16 -17 226 -153 236 -153 12 0 68 62 69 74 l0 10 -33
-32 c-18 -18 -36 -32 -40 -32 -3 0 -52 30 -109 66 -56 36 -109 68 -117 71
l-16 6 10 -10z"/>
<path d="M56334 92437 c-59 -106 -108 -195 -110 -198 -2 -4 2 -9 9 -12 l14 -5
93 166 c52 92 102 181 112 198 l19 32 -15 5 -15 6 -107 -192z"/>
<path d="M95448 92173 c-56 -70 -183 -231 -281 -356 l-179 -229 10 -10 9 -9
168 218 c93 120 217 277 275 348 59 72 110 135 113 142 l7 12 -9 5 -9 6 -104
-127z"/>
<path d="M92115 92013 l-31 -78 -23 -11 -23 -12 -125 44 c-69 25 -128 42 -131
40 -3 -3 1 -8 9 -10 8 -3 67 -24 133 -47 l118 -41 25 11 24 11 15 36 c8 19 23
57 34 84 l20 50 -8 0 c-4 0 -21 -35 -37 -77z"/>
<path d="M53121 91741 c-1 -25 6 -83 15 -130 l16 -86 34 -70 c18 -38 41 -79
49 -89 l15 -20 5 6 6 6 -29 46 c-17 26 -39 70 -51 99 l-21 52 -19 115 -19 115
-1 -44z"/>
<path d="M95265 91549 l-140 -169 -17 -6 -18 -5 0 -14 0 -14 28 10 27 10 139
169 c76 92 138 172 138 176 -2 25 -30 -3 -157 -157z"/>
<path d="M26863 91403 l7 -6 7 6 6 7 -13 0 -13 0 6 -7z"/>
<path d="M26933 91383 l7 -6 7 6 6 7 -13 0 -13 0 6 -7z"/>
<path d="M27003 91363 l7 -6 7 6 6 7 -13 0 -13 0 6 -7z"/>
<path d="M94992 91262 c-17 -21 -50 -74 -73 -117 l-43 -79 -9 27 -9 27 -9 -6
-10 -6 7 -36 c4 -20 9 -41 11 -45 l5 -8 20 18 20 18 39 77 39 77 31 36 32 36
-10 10 -10 10 -31 -39z"/>
<path d="M93953 91207 l19 -15 74 -17 74 -16 18 5 c9 3 76 7 147 7 l130 2 -20
8 -20 8 -140 -6 -140 -5 -60 15 c-33 8 -69 18 -80 22 l-20 7 18 -15z"/>
<path d="M94603 91198 l-42 -21 -23 -46 c-13 -25 -29 -50 -36 -54 -7 -5 -33
-36 -58 -70 l-45 -62 -159 -167 -160 -167 8 -5 8 -5 165 167 165 167 45 60 44
60 3 -22 3 -23 10 0 9 0 0 40 0 40 22 34 22 33 40 22 41 21 22 0 22 0 6 10 6
10 -38 -1 -38 0 -42 -21z"/>
<path d="M94974 91153 l-19 -48 0 -55 c0 -30 4 -89 8 -130 l8 -75 -15 15 c-8
8 -31 42 -50 74 -20 33 -36 55 -36 48 0 -6 17 -39 38 -72 40 -67 50 -84 78
-144 l19 -40 47 -51 48 -52 67 -36 c86 -44 222 -101 229 -94 3 2 -33 19 -78
38 -160 64 -250 128 -310 222 l-30 47 4 18 5 18 -13 104 -13 105 5 35 c3 19
12 52 20 74 8 21 13 40 10 43 -2 2 -12 -17 -22 -44z"/>
<path d="M94776 91182 l-5 -8 19 -12 19 -12 6 10 6 10 -6 10 c-7 12 -32 13
-39 2z"/>
<path d="M94565 90960 l-6 -10 6 -10 c7 -12 32 -13 39 -2 l5 8 -19 12 -19 12
-6 -10z"/>
<path d="M94655 90901 l-5 -10 20 -3 21 -3 2 -10 2 -10 -92 -61 -92 -60 -22
-30 c-12 -16 -36 -43 -52 -61 l-29 -31 7 -12 7 -11 16 13 c8 7 33 35 55 63
l39 50 82 54 c44 29 93 65 109 79 l27 26 0 13 0 13 -44 0 -45 0 -6 -9z"/>
<path d="M94956 90728 c9 -18 39 -57 68 -86 l51 -54 40 -20 c70 -37 265 -116
265 -109 0 4 -37 22 -82 41 -46 18 -110 47 -142 63 l-60 29 -57 55 -57 54 -12
30 c-7 16 -16 29 -21 29 l-10 0 17 -32z"/>
<path d="M30594 90405 c-7 -19 -14 -42 -14 -51 0 -21 30 -72 46 -78 l13 -5
-25 36 c-28 42 -28 39 -9 92 17 50 10 55 -11 6z"/>
<path d="M30745 90230 c3 -5 8 -10 11 -10 3 0 2 5 -1 10 -3 6 -8 10 -11 10 -3
0 -2 -4 1 -10z"/>
<path d="M31065 90046 l240 -93 83 -15 82 -15 0 7 0 7 -74 12 -75 12 -168 66
c-186 72 -301 113 -317 113 -6 -1 97 -43 229 -94z"/>
<path d="M31073 90003 c14 -22 264 -103 361 -117 l39 -5 -9 8 c-5 4 -38 13
-74 20 -56 11 -245 71 -304 96 l-19 8 6 -10z"/>
<path d="M52400 89680 c0 -11 -18 -66 -41 -122 -23 -57 -44 -109 -47 -117 l-5
-14 10 6 c11 7 87 194 97 240 l6 27 -10 0 -10 0 0 -20z"/>
<path d="M85381 88979 c-58 -11 -78 -21 -26 -13 22 4 132 10 245 13 l205 7
-190 1 -190 1 -44 -9z"/>
<path d="M85810 88951 l0 -11 258 0 257 0 125 -11 125 -11 100 10 100 11 -120
-4 -120 -4 -80 9 c-44 5 -207 11 -362 15 l-283 7 0 -11z"/>
<path d="M84630 88834 c-135 -30 -315 -65 -400 -78 l-155 -24 40 -1 c22 0 83
6 135 14 93 15 621 125 629 132 17 13 -34 4 -249 -43z"/>
<path d="M84590 88785 l-285 -64 -115 -12 c-141 -14 -161 -24 -30 -15 l95 7
310 66 c171 36 314 69 320 74 l9 9 -9 -1 c-6 0 -138 -29 -295 -64z"/>
<path d="M78980 88493 l0 -8 217 -75 c119 -41 221 -77 226 -79 l10 -3 -5 12
-4 13 -213 73 c-218 76 -231 79 -231 67z"/>
<path d="M89150 88412 c0 -8 237 -82 263 -82 l17 0 48 -42 c26 -23 60 -54 76
-68 l29 -25 -4 12 c-2 7 -35 39 -74 72 l-70 61 -35 6 c-30 5 -85 21 -222 64
l-28 9 0 -7z"/>
<path d="M97760 88408 c0 -5 477 -797 486 -807 2 -2 6 -2 8 0 4 4 -467 786
-485 804 -5 5 -9 6 -9 3z"/>
<path d="M84409 87215 l-92 -185 6 -6 6 -7 11 29 c15 39 159 326 172 342 l10
12 -10 0 -10 0 -93 -185z"/>
<path d="M87866 87161 l-440 -147 -4 -12 -4 -12 9 0 c10 0 886 291 892 297 3
2 0 7 -5 12 l-9 9 -439 -147z"/>
<path d="M36735 86990 c3 -5 8 -10 11 -10 3 0 2 5 -1 10 -3 6 -8 10 -11 10 -3
0 -2 -4 1 -10z"/>
<path d="M84307 86898 l-46 -103 -15 -9 -14 -10 -276 76 c-152 41 -276 72
-276 68 0 -5 553 -160 572 -160 8 0 111 230 105 236 -2 2 -25 -42 -50 -98z"/>
<path d="M36760 86976 c0 -2 8 -10 18 -17 l17 -14 -14 18 c-13 16 -21 21 -21
13z"/>
<path d="M36805 86940 c3 -5 8 -10 11 -10 3 0 2 5 -1 10 -3 6 -8 10 -11 10 -3
0 -2 -4 1 -10z"/>
<path d="M36830 86926 c0 -2 8 -10 18 -17 l17 -14 -14 18 c-13 16 -21 21 -21
13z"/>
<path d="M36870 86896 c0 -2 14 -14 30 -26 17 -12 30 -19 30 -16 0 2 -13 14
-30 26 -16 12 -30 19 -30 16z"/>
<path d="M36940 86847 c0 -10 292 -217 306 -217 8 0 -29 27 -156 115 -47 32
-100 70 -117 83 -18 13 -33 22 -33 19z"/>
<path d="M83586 86657 c-21 -94 -47 -207 -56 -250 l-18 -78 11 4 11 3 52 230
c54 235 60 264 47 264 l-8 0 -39 -173z"/>
<path d="M56383 86208 c117 -278 261 -615 266 -620 l6 -7 11 7 11 7 -137 320
-137 320 -17 3 -17 4 14 -34z"/>
<path d="M96687 86069 l-67 -40 -20 6 -20 6 6 -15 6 -16 15 0 c9 0 49 20 90
45 l74 45 9 -5 c5 -3 34 -46 66 -96 l59 -90 3 9 c1 5 -23 50 -55 101 l-58 91
-20 0 -20 0 -68 -41z"/>
<path d="M56287 85820 c-176 -26 -207 -33 -196 -44 2 -3 102 9 221 26 l217 31
-5 9 -5 8 -22 -1 c-12 -1 -107 -14 -210 -29z"/>
<path d="M56250 85570 l0 -10 195 0 195 0 0 10 0 10 -195 0 -195 0 0 -10z"/>
<path d="M85635 84756 c-57 -18 -100 -41 -189 -104 -98 -69 -530 -410 -534
-423 -9 -23 26 2 218 154 335 266 455 346 545 363 l35 6 0 9 0 9 -17 -1 c-10
0 -36 -6 -58 -13z"/>
<path d="M86205 84730 l-5 -8 32 -11 c18 -5 105 -28 193 -51 88 -23 182 -48
208 -55 l48 -14 -3 11 -4 12 -105 28 c-57 15 -161 43 -232 62 l-127 33 -5 -7z"/>
<path d="M86670 84542 l0 -7 403 -109 c221 -60 430 -117 465 -127 l63 -18 -3
11 -4 12 -450 123 c-247 67 -455 123 -461 123 -7 0 -13 -3 -13 -8z"/>
<path d="M80075 84522 c6 -6 129 -52 275 -103 146 -50 336 -116 423 -146 87
-31 160 -53 163 -51 2 3 -49 23 -113 46 -65 22 -251 88 -413 145 -162 58 -306
108 -320 112 l-25 7 10 -10z"/>
<path d="M84672 84115 l-193 -153 9 -6 10 -6 184 148 c172 137 195 158 186
167 -2 2 -90 -65 -196 -150z"/>
<path d="M80935 84182 c14 -13 415 -155 421 -149 3 3 -28 16 -68 30 -40 14
-138 48 -218 76 -79 28 -140 47 -135 43z"/>
<path d="M11503 84097 l4 -12 192 -61 c105 -34 203 -65 216 -68 l25 -6 0 9 0
10 -82 25 c-46 14 -145 46 -221 70 l-138 44 4 -11z"/>
<path d="M11950 84010 c0 -5 2 -10 5 -10 2 0 203 -43 446 -95 394 -85 465 -98
448 -80 -5 4 -879 195 -894 195 -3 0 -5 -4 -5 -10z"/>
<path d="M85 83960 l-8 -12 85 -82 c46 -44 119 -120 163 -169 l79 -87 9 9 10
10 -111 118 c-61 65 -135 142 -165 171 l-55 54 -7 -12z"/>
<path d="M72199 83718 c43 -101 81 -192 85 -203 l8 -20 4 11 4 10 -81 192 -81
192 -8 0 -8 0 77 -182z"/>
<path d="M83050 83797 l0 -34 -30 -41 -30 -41 -29 -16 -30 -15 -26 0 -25 0 0
-15 0 -14 33 5 c17 3 45 10 60 16 l28 11 35 45 34 45 0 43 0 44 -10 0 -10 0 0
-33z"/>
<path d="M83270 83625 l0 -175 10 0 10 0 0 175 0 175 -10 0 -10 0 0 -175z"/>
<path d="M82138 83599 l-65 -148 11 -4 12 -5 66 149 65 148 -11 4 -12 5 -66
-149z"/>
<path d="M64680 83705 c0 -17 294 -765 301 -765 6 0 -285 757 -296 768 -3 3
-5 1 -5 -3z"/>
<path d="M13300 83682 l0 -9 191 -42 191 -43 92 -9 c167 -18 300 -28 369 -28
l67 -1 0 9 0 8 -142 7 c-78 4 -185 14 -237 21 -53 8 -110 15 -127 15 -17 0
-111 18 -209 40 -194 44 -195 44 -195 32z"/>
<path d="M86547 83603 c-10 -106 -20 -399 -14 -393 7 6 30 450 24 456 -2 3 -7
-26 -10 -63z"/>
<path d="M76640 82773 c-129 -206 -239 -382 -243 -389 l-8 -14 8 0 c4 0 26 31
49 68 23 37 130 210 239 385 109 175 196 320 193 322 -2 2 -109 -165 -238
-372z"/>
<path d="M15462 82959 c2 -6 88 -67 191 -135 l186 -123 6 9 6 10 -191 125
c-105 69 -193 125 -196 125 -3 0 -4 -5 -2 -11z"/>
<path d="M15420 82913 c1 -4 87 -63 192 -131 l191 -123 8 8 8 8 -186 120
c-102 66 -192 121 -200 123 l-13 3 0 -8z"/>
<path d="M56877 82655 l-108 -114 -30 6 -29 6 0 -11 c0 -11 23 -22 48 -22 l17
0 113 113 112 112 0 13 c0 6 -3 12 -7 12 -5 -1 -57 -52 -116 -115z"/>
<path d="M85000 82036 c0 -15 152 -411 161 -421 l10 -10 -11 30 c-6 17 -43
113 -82 215 -65 174 -78 204 -78 186z"/>
<path d="M75208 81708 l-106 -313 -17 -100 c-8 -55 -18 -112 -21 -127 l-6 -28
9 0 9 0 19 128 19 127 83 245 c46 135 95 275 108 313 l25 67 -8 0 c-4 0 -55
-141 -114 -312z"/>
<path d="M96197 81468 c-148 -201 -201 -278 -193 -278 3 0 58 71 122 158 64
86 124 165 132 175 l15 17 -11 0 -11 0 -54 -72z"/>
<path d="M95906 80994 c-70 -97 -125 -178 -123 -181 3 -2 58 69 122 159 65 90
123 169 128 176 5 7 8 15 5 17 -2 3 -62 -75 -132 -171z"/>
<path d="M94286 80871 l-5 -8 57 -44 c31 -25 103 -80 160 -123 l103 -79 7 7 6
7 -34 27 c-19 15 -92 71 -162 124 l-127 98 -5 -9z"/>
<path d="M95640 80687 c-58 -82 -114 -164 -124 -181 l-19 -31 15 15 c27 25
239 331 236 339 -2 5 -50 -60 -108 -142z"/>
<path d="M72667 80024 l-5 -9 13 -19 14 -18 11 4 12 4 -20 23 -19 24 -6 -9z"/>
<path d="M43045 79885 l-70 -33 -33 -34 -33 -35 -135 -329 c-243 -589 -313
-765 -305 -760 4 3 106 244 226 536 l218 530 38 44 39 44 65 27 65 28 0 9 c0
4 -1 8 -2 7 -2 0 -34 -16 -73 -34z"/>
<path d="M43065 79850 l-60 -29 -31 -30 -31 -30 -42 -102 c-23 -56 -40 -104
-37 -107 3 -2 10 8 16 23 6 15 24 60 41 101 l30 73 32 31 32 31 63 30 c57 28
74 39 55 39 -5 0 -35 -14 -68 -30z"/>
<path d="M8324 79639 l-7 -11 10 -7 c5 -3 89 -64 187 -135 l178 -128 9 9 9 9
-42 30 c-24 17 -109 78 -190 137 l-147 107 -7 -11z"/>
<path d="M98596 78983 c-49 -109 -92 -202 -94 -208 l-5 -10 11 10 c6 6 50 93
97 195 l86 184 -3 13 -3 14 -89 -198z"/>
<path d="M32525 79058 c-16 -6 -86 -34 -155 -63 -69 -29 -143 -58 -165 -65
-22 -7 -43 -15 -48 -17 l-7 -4 5 -9 6 -9 92 33 c151 56 327 130 327 138 0 10
-18 9 -55 -4z"/>
<path d="M98470 78659 c-34 -51 -80 -129 -101 -173 l-40 -81 16 20 c9 11 30
47 47 80 16 33 57 100 90 148 33 49 58 91 55 93 -3 3 -33 -36 -67 -87z"/>
<path d="M99228 78412 c-9 -26 -39 -112 -67 -192 -29 -80 -48 -140 -43 -135
13 14 136 364 130 370 -2 3 -11 -17 -20 -43z"/>
<path d="M43932 77803 c-117 -207 -178 -320 -165 -308 8 8 87 147 260 458 2 4
2 7 -1 7 -3 0 -45 -71 -94 -157z"/>
<path d="M75809 77751 c-86 -69 -216 -173 -289 -230 -157 -124 -606 -495 -702
-582 l-68 -60 -15 -51 -15 -52 0 -38 0 -38 14 0 14 0 4 65 4 64 64 68 c77 81
225 206 564 477 138 110 253 203 256 206 3 3 77 64 165 134 88 71 164 133 170
137 l9 9 -9 9 -10 9 -156 -127z"/>
<path d="M69611 76899 c-83 -101 -148 -185 -146 -188 3 -2 6 -2 8 0 2 2 70 84
151 182 81 98 145 181 143 183 -3 3 -73 -77 -156 -177z"/>
<path d="M28945 76971 l-6 -10 20 -10 c71 -38 409 -147 420 -135 10 10 -18 23
-94 43 -80 22 -279 92 -315 111 l-19 10 -6 -9z"/>
<path d="M16400 76436 l0 -13 202 -92 201 -92 10 10 11 11 -55 24 c-30 13
-123 56 -208 95 -85 39 -156 71 -158 71 -2 0 -3 -6 -3 -14z"/>
<path d="M45075 75059 c-4 -6 -5 -13 -2 -16 7 -7 27 6 27 18 0 12 -17 12 -25
-2z"/>
<path d="M6180 74970 l0 -10 13 0 c6 0 104 -7 217 -15 113 -8 211 -15 218 -15
l12 0 0 13 0 13 -197 12 c-109 7 -213 12 -230 12 l-33 0 0 -10z"/>
<path d="M73411 72587 c-47 -100 -88 -190 -93 -199 l-9 -18 8 0 c5 0 48 87 97
193 49 105 91 195 93 200 2 4 1 7 -4 7 -4 0 -46 -82 -92 -183z"/>
<path d="M47668 70854 l-6 -6 21 -51 c11 -29 49 -97 85 -151 l64 -99 61 -69
61 -68 55 -39 c73 -50 112 -66 202 -81 41 -6 82 -14 92 -16 l17 -5 0 14 0 15
-82 12 -83 13 -42 18 c-129 55 -326 280 -408 465 -24 55 -27 59 -37 48z"/>
<path d="M47636 70779 l25 -60 53 -82 c84 -130 176 -234 176 -199 0 4 -24 37
-53 72 -63 77 -159 228 -182 288 l-17 42 -13 0 -14 0 25 -61z"/>
<path d="M74398 70685 l-6 -70 66 -370 65 -370 9 -10 10 -10 -5 20 c-4 11 -32
162 -63 335 l-58 315 -6 115 -6 115 -6 -70z"/>
<path d="M48765 70130 c-9 -15 -10 -15 68 -39 62 -19 341 -71 381 -71 l16 0 0
13 0 13 -142 23 c-120 19 -255 49 -304 68 l-12 4 -7 -11z"/>
<path d="M69844 70043 c18 -43 55 -130 81 -193 52 -125 53 -126 60 -118 3 2
-32 91 -77 196 l-81 192 -8 0 -8 0 33 -77z"/>
<path d="M49685 69922 c-3 -3 -5 -9 -5 -13 l0 -8 163 -52 162 -52 50 -28 49
-28 -2 -43 -2 -43 9 -15 10 -14 6 6 7 6 -7 64 -7 63 -49 28 -50 28 -164 53
c-90 29 -167 51 -170 48z"/>
<path d="M29266 69352 l-5 -8 138 -21 139 -20 87 16 88 16 4 11 4 12 -78 -15
c-43 -7 -83 -15 -88 -17 -6 -2 -64 5 -130 15 -136 21 -152 22 -159 11z"/>
<path d="M20480 69079 c-126 -17 -296 -52 -307 -63 -16 -15 11 -13 107 9 58
13 152 29 210 36 58 6 111 15 119 19 l14 7 -9 5 c-5 3 -65 -3 -134 -13z"/>
<path d="M87695 68241 c-88 -77 -161 -145 -164 -152 -3 -10 236 193 329 278
l14 13 -9 0 c-6 0 -82 -63 -170 -139z"/>
<path d="M41301 67718 l-71 -203 0 -22 0 -23 10 0 10 0 0 23 0 22 69 195 70
195 -8 8 -8 8 -72 -203z"/>
<path d="M41417 67878 c-43 -114 -130 -368 -134 -394 l-6 -34 12 0 11 0 0 20
c0 11 32 109 70 216 39 108 70 198 70 200 0 10 -18 3 -23 -8z"/>
<path d="M67963 67550 c36 -49 43 -72 83 -255 33 -151 44 -188 44 -153 0 27
-70 330 -84 362 l-13 31 -28 25 -28 25 26 -35z"/>
<path d="M625 67540 c61 -4 166 -7 235 -7 l125 0 -110 7 c-60 4 -166 7 -235 7
l-125 0 110 -7z"/>
<path d="M41144 67394 c22 -8 41 -12 44 -9 6 6 -45 25 -66 24 l-17 0 39 -15z"/>
<path d="M41305 67340 c11 -5 27 -9 35 -9 l15 -1 -15 10 c-8 5 -24 9 -35 9
l-20 0 20 -9z"/>
<path d="M30816 67242 c25 -22 380 -112 443 -112 34 0 -2 11 -76 24 -44 8
-142 33 -218 55 -76 23 -143 41 -148 41 l-11 0 10 -8z"/>
<path d="M39460 67150 l-75 -7 -38 -16 -38 -17 5 -9 6 -9 42 17 43 16 145 -1
145 -1 85 -20 85 -20 380 -147 c209 -82 388 -150 399 -153 l19 -6 -5 14 -4 14
-405 156 -405 156 -60 11 c-32 6 -90 14 -129 17 -38 3 -81 8 -95 9 -14 2 -59
0 -100 -4z"/>
<path d="M55376 66931 l-17 -19 -18 -151 -18 -151 8 0 c10 0 16 34 30 170 l12
115 12 15 c6 8 15 21 19 28 l7 12 -9 0 c-5 0 -17 -9 -26 -19z"/>
<path d="M38457 66915 l-208 -13 -7 -7 -7 -8 85 6 c47 4 147 10 223 13 l137 7
0 8 c0 5 -3 8 -7 8 -5 -1 -102 -7 -216 -14z"/>
<path d="M38230 66862 c-245 -14 -447 -26 -449 -28 -2 -2 -2 -5 0 -7 2 -2 184
7 404 19 220 13 425 24 455 26 l55 3 -10 6 -10 5 -445 -24z"/>
<path d="M37595 66870 c-136 -9 -285 -16 -525 -26 l-165 -7 -20 -8 -20 -8 70
0 c39 0 133 4 210 9 77 4 241 13 365 20 l225 12 25 8 25 8 -35 0 c-19 -1 -89
-4 -155 -8z"/>
<path d="M92377 66593 l-6 -9 37 -232 36 -232 8 0 c4 0 8 7 8 15 0 22 -70 458
-74 463 -2 2 -6 -1 -9 -5z"/>
<path d="M77235 66560 l-80 -6 110 -1 c61 0 162 3 225 7 l115 7 -145 -1 c-80
0 -181 -3 -225 -6z"/>
<path d="M87580 66362 c0 -4 51 -36 113 -70 61 -34 144 -80 184 -102 l71 -41
6 9 5 9 -182 101 c-101 56 -186 102 -190 102 -4 0 -7 -3 -7 -8z"/>
<path d="M41590 66266 c0 -3 153 -105 308 -204 12 -8 22 -11 22 -8 0 7 -315
216 -325 216 -3 0 -5 -2 -5 -4z"/>
<path d="M48907 66121 c110 -76 212 -147 228 -157 l29 -19 -7 11 c-10 17 -425
304 -439 304 -6 0 79 -62 189 -139z"/>
<path d="M48696 66221 c6 -6 372 -260 412 -287 1 -1 -55 -98 -126 -216 -71
-118 -186 -316 -256 -440 l-128 -226 -31 13 c-18 8 -124 54 -237 103 -113 49
-207 88 -209 86 -6 -6 -10 -4 219 -104 118 -51 223 -97 234 -102 l18 -10 -10
-10 -9 -9 -399 169 c-220 94 -436 186 -481 206 l-83 35 0 -7 c0 -4 216 -99
480 -211 264 -112 480 -205 480 -206 0 -2 -48 -81 -106 -176 -59 -96 -142
-231 -185 -301 -43 -71 -75 -128 -71 -128 4 0 90 135 191 300 101 165 184 300
185 300 1 0 91 -38 201 -85 110 -47 204 -84 209 -82 5 2 -81 41 -190 87 -110
46 -203 87 -208 91 l-9 8 16 7 17 6 0 15 c0 16 203 379 378 675 l117 198 12 0
12 0 -5 14 c-3 8 -13 16 -22 18 -10 3 -106 66 -214 141 -107 76 -199 137 -204
137 l-8 0 10 -9z"/>
<path d="M97280 66141 c-102 -26 -198 -51 -214 -55 l-29 -7 11 -11 11 -11 215
54 216 54 0 12 0 13 -12 -1 c-7 0 -96 -22 -198 -48z"/>
<path d="M47213 65875 c-62 -106 -113 -195 -113 -199 0 -3 7 -6 15 -6 l15 0 0
-11 0 -10 9 5 9 6 227 -100 c125 -56 232 -99 237 -98 4 2 -93 48 -217 102
-124 55 -228 104 -231 108 l-6 9 103 177 c56 97 104 181 107 186 l5 9 -10 -6
c-5 -3 -57 -87 -114 -186 l-104 -181 -12 0 c-7 0 -13 3 -13 8 0 4 49 89 109
190 l109 182 -6 4 -7 4 -112 -193z"/>
<path d="M48968 65612 c-200 -336 -350 -602 -339 -602 4 0 43 64 86 143 65
117 381 653 433 735 l14 22 -8 0 c-5 0 -89 -134 -186 -298z"/>
<path d="M42940 65831 c0 -6 147 -107 313 -215 l27 -18 0 10 0 9 -170 111
c-93 61 -170 108 -170 103z"/>
<path d="M46963 65528 c-57 -83 -101 -154 -98 -156 6 -7 -3 -19 114 156 56 83
98 152 94 152 -5 0 -54 -68 -110 -152z"/>
<path d="M51141 65180 l-74 -160 6 -6 6 -6 24 53 c13 30 45 100 71 157 l48
102 -4 11 -3 10 -74 -161z"/>
<path d="M38461 64933 c-17 -142 -34 -268 -37 -280 l-4 -23 7 0 8 0 35 280
c19 154 33 280 29 280 -3 0 -20 -116 -38 -257z"/>
<path d="M3617 64898 l-5 -53 9 -9 9 -10 0 62 c0 34 -2 62 -4 62 -2 0 -6 -24
-9 -52z"/>
<path d="M36473 64893 l7 -6 7 6 6 7 -13 0 -13 0 6 -7z"/>
<path d="M37060 64571 l0 -20 39 -11 c22 -6 124 -21 228 -34 l188 -23 10 9 10
9 -17 13 -17 12 -158 18 c-146 17 -222 29 -265 42 l-18 5 0 -20z"/>
<path d="M1170 64505 c-63 -13 -151 -29 -195 -35 -44 -6 -92 -13 -107 -16
l-28 -6 0 -14 0 -15 33 5 c17 3 66 10 107 16 41 6 137 22 213 37 l138 26 -4
11 -4 11 -19 2 c-10 0 -71 -10 -134 -22z"/>
<path d="M76976 64273 l7 -228 -38 -68 -37 -68 6 -6 c8 -8 9 -7 48 62 l33 60
-3 238 -4 237 -9 0 -9 0 6 -227z"/>
<path d="M36960 64438 c-1 -7 -18 -133 -39 -280 l-37 -268 6 0 c4 0 24 126 46
280 l39 280 -7 0 c-5 0 -8 -6 -8 -12z"/>
<path d="M37000 64434 c-1 -5 -56 -397 -123 -871 -68 -475 -121 -863 -117
-863 3 0 61 390 129 866 l123 865 -6 6 -6 6 0 -9z"/>
<path d="M34906 64349 c-22 -94 -76 -453 -76 -503 0 -47 10 -1 25 114 9 69 27
188 40 264 14 77 23 141 20 144 -2 2 -6 -6 -9 -19z"/>
<path d="M39175 64253 c4 -10 9 -25 11 -33 l3 -15 -230 -204 c-126 -112 -227
-206 -225 -209 3 -3 45 31 93 75 48 43 154 139 235 212 l148 132 -15 30 c-17
31 -32 40 -20 12z"/>
<path d="M40720 64190 l0 -10 45 0 c25 0 199 -18 388 -40 l342 -40 105 -25
c57 -13 106 -22 109 -19 7 7 0 9 -129 37 l-125 27 -348 40 c-192 22 -357 40
-368 40 l-19 0 0 -10z"/>
<path d="M89346 64058 l-65 -72 6 -6 c3 -3 33 25 67 63 33 37 64 67 68 67 9 0
410 -469 444 -519 l28 -43 4 10 3 11 -31 47 c-35 49 -402 481 -428 502 -9 6
-19 12 -23 12 -4 0 -37 -33 -73 -72z"/>
<path d="M40072 64085 l-12 -25 9 0 c4 0 13 11 19 25 l12 25 -9 0 c-4 0 -13
-11 -19 -25z"/>
<path d="M78490 64033 c-102 -13 -187 -26 -189 -29 -2 -2 -2 -7 1 -10 l6 -5
216 27 216 28 0 8 0 8 -32 -1 c-18 -1 -116 -12 -218 -26z"/>
<path d="M78950 64033 c-107 -13 -197 -26 -199 -29 -2 -2 -2 -7 1 -10 l6 -5
221 27 221 27 0 9 0 8 -27 -1 c-16 -1 -116 -12 -223 -26z"/>
<path d="M45981 63844 c-62 -107 -111 -197 -108 -200 2 -3 18 19 35 48 16 29
68 119 115 201 47 81 83 147 79 147 -4 0 -58 -88 -121 -196z"/>
<path d="M76810 63762 l0 -7 63 -17 62 -16 8 8 9 8 -55 16 c-60 18 -87 20 -87
8z"/>
<path d="M14059 63745 c-54 -29 -163 -65 -261 -85 -120 -25 -133 -29 -126 -36
3 -3 61 6 127 20 l122 26 78 30 c42 17 86 37 97 45 l19 14 -15 0 c-8 0 -27 -6
-41 -14z"/>
<path d="M38741 63756 c2 -3 38 -14 79 -26 l75 -20 195 -30 195 -31 90 -24
c50 -13 137 -43 194 -65 57 -22 106 -38 109 -36 3 3 -4 9 -14 12 -10 4 -62 24
-114 44 -52 21 -130 47 -172 59 l-77 21 -198 30 c-109 17 -231 39 -271 50 -70
19 -100 24 -91 16z"/>
<path d="M40621 63521 l-14 -9 9 -13 c4 -8 73 -87 153 -177 l144 -163 15 15
14 14 -152 171 c-83 94 -152 171 -153 171 -1 0 -8 -4 -16 -9z"/>
<path d="M16247 63320 c-47 -39 -114 -86 -148 -106 l-63 -35 -95 -27 -96 -27
24 -3 24 -4 81 23 81 23 60 36 c33 20 99 68 147 107 l88 72 -9 5 -9 6 -85 -70z"/>
<path d="M16705 63277 l-8 -18 6 -51 c6 -49 12 -66 21 -57 3 2 1 36 -3 74 l-8
70 -8 -18z"/>
<path d="M38090 63160 l0 -7 205 -28 c113 -15 208 -25 211 -22 3 2 -35 10 -83
17 -48 6 -143 20 -210 29 l-123 18 0 -7z"/>
<path d="M40797 63145 l-17 -12 151 -169 c83 -93 154 -170 158 -172 5 -1 13 3
19 10 l10 13 -152 171 -153 171 -16 -12z"/>
<path d="M41545 63140 c3 -5 11 -10 16 -10 l10 0 -6 10 c-3 6 -11 10 -16 10
l-10 0 6 -10z"/>
<path d="M42774 63007 c-170 -147 -284 -252 -284 -262 0 -4 26 17 58 45 31 28
128 113 215 187 86 75 157 139 157 144 0 5 -1 9 -2 8 -2 0 -66 -55 -144 -122z"/>
<path d="M16710 63055 l0 -45 10 0 10 0 0 45 0 45 -10 0 -10 0 0 -45z"/>
<path d="M13735 63080 l-30 -8 160 1 160 2 35 -8 35 -7 -30 14 -30 15 -135 -1
-135 0 -30 -8z"/>
<path d="M13385 63069 l-69 -9 -11 -11 -10 -12 30 7 c17 4 76 10 133 15 57 5
106 11 109 15 l6 6 -59 -1 c-32 -1 -90 -6 -129 -10z"/>
<path d="M15030 62993 l0 -32 10 -6 10 -6 0 23 c0 13 -5 30 -10 38 l-10 15 0
-32z"/>
<path d="M15070 62993 l0 -32 10 -6 10 -6 0 23 c0 13 -5 30 -10 38 l-10 15 0
-32z"/>
<path d="M42232 63004 c23 -35 252 -294 256 -289 3 2 -35 50 -84 107 -105 120
-191 212 -172 182z"/>
<path d="M90844 62955 l1 -45 10 3 c20 7 17 87 -4 87 l-8 0 1 -45z"/>
<path d="M15593 62953 l-93 -4 0 -16 0 -16 137 6 c75 4 171 7 215 7 l78 0 0
15 0 15 -122 -2 c-68 -1 -165 -4 -215 -5z"/>
<path d="M16720 62920 l0 -30 10 0 10 0 0 30 0 30 -10 0 -10 0 0 -30z"/>
<path d="M35096 62909 c-7 -43 -46 -394 -46 -416 0 -9 2 -14 4 -12 7 6 57 451
52 456 -3 3 -7 -10 -10 -28z"/>
<path d="M29861 62906 c0 -11 -22 -58 -47 -105 l-47 -86 -64 -78 c-36 -43 -63
-81 -60 -83 3 -3 37 34 76 83 l71 88 41 78 40 78 -4 22 -4 22 -2 -19z"/>
<path d="M91170 62585 c173 -173 319 -315 325 -315 5 0 -132 142 -305 315
-173 173 -319 315 -325 315 -5 0 132 -142 305 -315z"/>
<path d="M16670 62800 l0 -90 10 0 10 0 0 90 0 90 -10 0 -10 0 0 -90z"/>
<path d="M43415 62729 c-82 -72 -152 -136 -154 -142 l-4 -12 24 21 c13 11 86
74 162 138 75 65 137 120 137 122 0 13 -30 -10 -165 -127z"/>
<path d="M29574 62413 l-89 -107 -71 -190 c-39 -105 -90 -233 -113 -285 -23
-51 -40 -96 -37 -98 2 -3 9 4 14 14 24 46 125 291 171 418 l52 140 85 103 c47
57 84 106 81 108 -2 2 -44 -44 -93 -103z"/>
<path d="M89000 62365 c19 -23 737 -627 744 -626 3 0 7 3 9 6 3 7 -743 635
-755 635 l-10 0 12 -15z"/>
<path d="M40732 62297 l-22 -52 0 -27 0 -28 10 0 10 0 0 30 0 31 25 49 25 50
-12 0 -13 0 -23 -53z"/>
<path d="M67750 62325 c-20 -24 -118 -75 -188 -98 l-67 -22 -312 0 -313 1 0
-7 0 -6 122 -6 c66 -4 206 -7 311 -7 l189 0 71 22 72 21 62 34 61 34 16 24 16
25 -14 0 c-7 0 -19 -7 -26 -15z"/>
<path d="M44122 62103 c-128 -113 -231 -208 -228 -210 4 -4 362 306 461 399
l19 18 -9 0 c-6 0 -115 -93 -243 -207z"/>
<path d="M57536 62085 c-121 -96 -222 -172 -225 -171 -3 2 -109 48 -236 101
-126 53 -247 106 -268 117 -22 11 -41 17 -44 14 -7 -7 97 -54 355 -162 l203
-85 206 163 c114 90 214 168 222 175 9 6 14 14 11 16 -3 3 -104 -73 -224 -168z"/>
<path d="M66870 62250 l0 -10 230 0 230 0 0 10 0 10 -230 0 -230 0 0 -10z"/>
<path d="M12652 62225 c9 -9 406 -75 441 -74 l32 1 -45 9 c-101 18 -407 69
-420 69 l-13 0 5 -5z"/>
<path d="M48275 62032 c-49 -81 -95 -157 -103 -169 l-14 -23 8 0 c11 1 209
328 203 334 -2 3 -45 -61 -94 -142z"/>
<path d="M56735 62113 c6 -5 138 -65 295 -133 157 -67 287 -124 289 -126 2 -2
-20 -54 -49 -116 -77 -163 -130 -289 -130 -307 l1 -16 38 90 c66 155 150 330
160 333 6 2 63 -20 128 -48 451 -199 827 -359 831 -355 3 3 -10 11 -29 19 -29
12 -194 84 -786 342 -66 29 -129 57 -140 63 -21 11 -569 247 -598 257 l-20 7
10 -10z"/>
<path d="M47655 62091 l-5 -10 62 -35 c35 -19 142 -77 238 -130 l174 -95 9 6
9 5 -9 9 c-7 7 -352 198 -435 240 l-37 19 -6 -9z"/>
<path d="M16030 62063 c-81 -18 -94 -22 -88 -29 3 -3 34 2 69 12 l64 16 65 -5
c36 -3 105 -15 154 -27 50 -11 97 -19 105 -18 l16 4 -125 26 c-69 15 -141 29
-160 31 l-35 4 -65 -14z"/>
<path d="M15701 61937 c-123 -33 -220 -62 -214 -64 14 -5 435 107 448 119 l9
8 -9 -1 c-6 0 -111 -28 -234 -62z"/>
<path d="M62495 61903 c4 -27 9 -56 12 -66 l4 -17 8 4 8 5 -8 48 c-4 26 -8 54
-8 61 l-1 12 -11 0 -10 0 6 -47z"/>
<path d="M44721 61923 c6 -18 349 -393 360 -393 9 0 -248 288 -339 380 l-24
25 3 -12z"/>
<path d="M44860 61703 c100 -109 187 -200 193 -202 l12 -4 -36 39 c-19 22
-102 112 -184 202 -81 89 -152 162 -157 162 -4 0 73 -89 172 -197z"/>
<path d="M59849 61806 c-70 -81 -238 -321 -221 -315 6 2 50 60 98 129 48 69
112 153 142 188 30 34 53 65 50 67 -3 3 -34 -28 -69 -69z"/>
<path d="M43690 61638 c-124 -111 -227 -206 -229 -212 l-4 -11 24 21 c97 84
400 353 424 376 l30 28 -10 -1 c-6 0 -111 -91 -235 -201z"/>
<path d="M85394 61766 c6 -19 139 -242 204 -344 18 -30 36 -52 38 -49 5 5
-220 383 -239 402 l-10 10 7 -19z"/>
<path d="M59256 61621 c5 -5 89 -43 187 -85 l178 -77 11 3 11 4 -191 82 c-104
45 -193 82 -198 82 l-8 0 10 -9z"/>
<path d="M48513 61531 l2 -38 13 4 12 5 0 18 c0 25 -10 50 -21 50 l-9 0 3 -39z"/>
<path d="M58340 61456 c58 -32 783 -346 787 -342 3 3 -10 11 -28 19 -19 8
-199 87 -401 176 -328 144 -433 187 -358 147z"/>
<path d="M59637 61423 c-3 -10 -15 -50 -26 -89 -12 -39 -32 -126 -46 -194
l-25 -123 1 -51 2 -51 9 60 c20 134 50 285 74 368 14 49 24 91 21 93 -3 3 -8
-3 -10 -13z"/>
<path d="M60252 61259 l-153 -151 6 -6 5 -6 43 39 c98 91 267 260 267 267 0
19 -24 -2 -168 -143z"/>
<path d="M28836 61268 c-98 -49 -176 -91 -173 -94 4 -4 343 159 356 172 2 2 2
6 0 8 -2 2 -84 -36 -183 -86z"/>
<path d="M61651 61229 c-1 -7 98 -478 105 -502 3 -10 8 -17 10 -15 5 5 -94
477 -106 503 -5 11 -9 18 -9 14z"/>
<path d="M54631 60845 c0 -28 97 -435 98 -409 1 19 -83 393 -93 419 l-4 10 -1
-20z"/>
<path d="M60720 60761 l-95 -26 -97 -55 c-54 -30 -98 -58 -98 -62 0 -4 46 19
103 51 l102 57 90 23 c50 13 94 27 100 32 l9 9 -9 -1 c-6 -1 -53 -13 -105 -28z"/>
<path d="M93158 60565 l-55 -186 10 4 11 3 48 155 c26 85 50 166 53 182 l7 27
-9 0 -9 0 -56 -185z"/>
<path d="M57310 60455 c0 -2 12 -35 26 -72 14 -38 31 -95 37 -127 l13 -60 11
-3 11 -4 -13 63 c-8 35 -26 96 -41 136 l-26 72 -9 0 c-5 0 -9 -2 -9 -5z"/>
<path d="M50392 60425 c3 -3 129 -12 279 -20 151 -8 380 -21 509 -30 129 -8
287 -15 350 -15 l115 0 140 22 140 22 -18 4 c-10 2 -63 -3 -118 -12 l-100 -16
-152 0 c-84 0 -267 7 -407 15 -533 30 -747 39 -738 30z"/>
<path d="M50335 60384 c18 -7 1086 -64 1206 -64 l119 0 0 10 0 10 -187 0 -188
0 -435 25 c-416 24 -537 28 -515 19z"/>
<path d="M62595 60360 c-71 -15 -156 -33 -188 -40 -32 -6 -56 -14 -54 -17 7
-6 380 68 392 78 l9 9 -14 -1 c-8 0 -73 -13 -145 -29z"/>
<path d="M62350 60269 c-212 -43 -396 -80 -410 -82 l-25 -3 -1 -10 c-1 -5 0
-13 2 -19 8 -24 144 -692 144 -708 l0 -17 -9 0 c-13 0 -12 -5 -91 380 l-73
355 -10 10 -9 10 5 -20 c3 -11 38 -177 77 -368 l72 -348 -5 -12 -5 -12 -187
-39 -187 -39 -6 11 c-4 6 -41 174 -81 374 -41 200 -76 365 -78 367 -13 17 -1
-49 67 -379 43 -206 77 -376 76 -377 0 -1 -102 -23 -226 -48 l-225 -47 -10
-10 -10 -10 20 5 c11 3 108 24 215 47 107 23 204 43 216 46 l20 5 74 -370 c41
-204 77 -371 81 -371 l6 0 -33 168 c-18 92 -49 254 -69 361 -20 106 -37 198
-38 204 l-2 10 175 38 c173 37 220 44 220 33 0 -10 81 -359 87 -374 l5 -15 5
11 4 12 -41 178 c-22 99 -43 185 -45 193 l-5 13 26 -6 26 -7 -7 11 -6 10 8 0
c4 0 100 20 213 44 113 24 296 61 408 82 l202 38 0 8 0 7 -12 -4 c-7 -2 -101
-20 -208 -41 -107 -20 -287 -56 -400 -80 l-205 -43 -6 7 c-3 4 -39 166 -79
360 l-72 353 6 6 c3 3 188 43 411 88 224 46 409 86 412 89 l6 6 -14 -1 c-8 0
-187 -36 -399 -80z"/>
<path d="M86440 60235 c0 -15 53 -78 178 -212 68 -73 128 -133 134 -133 l11 0
-104 108 c-57 59 -126 134 -154 167 -27 33 -53 64 -57 70 l-8 9 0 -9z"/>
<path d="M83370 59965 c0 -14 50 -101 128 -225 47 -74 140 -229 205 -345 147
-259 510 -946 527 -998 l12 -38 5 5 6 6 -18 47 c-53 142 -545 1046 -722 1326
-51 81 -102 165 -113 187 -18 36 -30 49 -30 35z"/>
<path d="M58850 59931 c0 -7 44 -113 99 -235 54 -121 122 -281 152 -353 30
-73 57 -133 61 -133 4 0 -11 44 -33 98 -130 313 -279 645 -279 623z"/>
<path d="M91090 59935 c0 -6 30 -44 67 -85 52 -60 120 -143 220 -269 2 -2 5
-2 7 0 8 7 -171 230 -276 344 l-18 19 0 -9z"/>
<path d="M62990 59773 c1 -28 87 -433 94 -440 16 -16 11 17 -32 229 l-47 228
-7 0 c-5 0 -8 -8 -8 -17z"/>
<path d="M93320 59765 c0 -2 30 -28 68 -58 80 -65 222 -154 275 -173 l37 -13
0 9 0 10 -18 0 -19 0 -109 66 -109 66 -56 49 c-53 45 -69 56 -69 44z"/>
<path d="M45921 59724 c8 -10 62 -75 119 -144 57 -69 107 -129 112 -134 l8
-10 0 10 c0 13 -229 288 -244 293 l-11 4 16 -19z"/>
<path d="M50220 59360 c-89 -117 -159 -214 -157 -217 3 -2 65 74 138 169 73
95 146 190 162 211 16 21 27 40 24 43 -2 3 -78 -90 -167 -206z"/>
<path d="M60367 59425 c-389 -78 -711 -146 -715 -150 l-7 -8 25 5 c411 81
1406 282 1409 285 2 1 2 5 0 6 -2 2 -322 -60 -712 -138z"/>
<path d="M62825 59553 c-38 -8 -221 -46 -405 -84 -345 -72 -366 -77 -359 -83
2 -3 108 17 234 43 127 27 321 65 433 86 l202 39 0 8 0 8 -17 -1 c-10 -1 -49
-8 -88 -16z"/>
<path d="M49266 59054 c-180 -240 -325 -438 -322 -441 2 -3 152 191 332 431
180 240 325 439 322 441 -3 3 -152 -191 -332 -431z"/>
<path d="M41020 59458 c8 -8 60 -43 115 -78 l100 -63 68 -28 c37 -15 67 -25
67 -21 0 4 -28 18 -62 31 l-63 24 -105 67 c-58 36 -112 70 -120 74 l-15 9 15
-15z"/>
<path d="M63777 59273 c13 -65 87 -426 163 -803 76 -377 148 -725 158 -775 11
-49 83 -394 161 -765 78 -371 143 -679 145 -685 l4 -10 1 16 c1 15 -193 962
-319 1559 -28 129 -112 538 -187 908 l-137 672 -7 0 -6 0 24 -117z"/>
<path d="M61920 59365 c-30 -7 -104 -23 -165 -36 l-109 -23 12 -4 c11 -3 353
66 361 74 8 8 -44 2 -99 -11z"/>
<path d="M61395 59254 c-110 -23 -205 -41 -212 -39 l-12 4 -7 -11 -7 -10 10
-7 9 -6 74 -358 73 -358 -9 -9 -9 -9 -415 -86 c-228 -47 -423 -88 -433 -91
l-17 -5 7 -12 c4 -6 8 -22 9 -36 l3 -25 -15 -18 -16 -17 -16 6 c-10 3 -25 13
-34 21 l-18 15 10 12 10 12 -7 6 c-3 4 -14 7 -23 7 -19 0 -853 308 -931 344
-70 32 -83 47 -115 127 -14 35 -31 69 -36 74 l-11 10 5 -15 c3 -8 18 -46 34
-85 l28 -70 15 -13 c32 -26 146 -72 569 -228 l434 -159 13 -32 13 -31 32 -7
32 -7 24 23 24 22 0 19 0 18 8 0 c5 0 182 36 394 80 373 77 418 85 418 75 0
-14 71 -340 75 -344 9 -9 5 20 -30 186 l-35 167 9 9 c5 5 89 29 187 53 99 25
196 49 217 55 l37 10 0 8 0 9 -217 -55 -218 -54 -6 -11 -6 -10 -7 11 -7 11 6
11 7 10 14 -5 14 -5 0 8 0 8 191 49 190 49 -14 3 c-9 2 -95 -18 -192 -43 -97
-26 -178 -45 -179 -43 -7 8 -148 719 -144 723 2 2 94 23 204 46 109 23 203 46
209 50 l9 9 -9 -1 c-6 -1 -100 -21 -210 -45z m-107 -836 l-4 -12 -395 -83
c-217 -45 -400 -82 -406 -82 l-13 -1 0 13 0 13 388 81 c213 45 398 82 410 82
l24 1 -4 -12z"/>
<path d="M94555 59202 c17 -10 75 -42 130 -72 55 -30 120 -68 145 -85 25 -18
54 -35 65 -39 l20 -7 -10 8 c-43 36 -352 213 -372 213 -4 0 6 -8 22 -18z"/>
<path d="M61658 58925 l-6 -6 38 -179 c20 -99 40 -183 43 -187 l7 -6 0 15 c0
18 -69 360 -73 365 -2 1 -6 1 -9 -2z"/>
<path d="M63810 58924 c0 -6 45 -228 101 -495 55 -266 129 -635 164 -819 75
-393 289 -1391 293 -1368 2 8 -42 224 -97 479 -55 255 -129 617 -165 804 -78
402 -283 1396 -291 1403 -3 3 -5 1 -5 -4z"/>
<path d="M62945 58820 c-44 -9 -330 -67 -635 -129 -305 -62 -556 -114 -559
-116 -14 -15 27 -9 239 35 129 26 424 87 655 135 231 47 425 88 430 90 28 10
-60 1 -130 -15z"/>
<path d="M63174 58428 c44 -216 81 -395 83 -397 2 -2 6 -1 10 2 l6 7 -79 390
-79 390 -10 0 -11 0 80 -392z"/>
<path d="M84010 58748 c0 -3 35 -71 77 -150 42 -78 87 -170 99 -203 l23 -60 0
16 c1 31 -26 94 -104 239 -72 135 -95 173 -95 158z"/>
<path d="M62235 58628 c3 -13 18 -97 35 -188 32 -173 37 -196 45 -188 3 3 -10
91 -30 197 -19 106 -35 194 -35 196 0 3 -5 5 -10 5 l-10 0 5 -22z"/>
<path d="M59595 58552 c13 -13 387 -154 393 -147 3 2 -1 7 -9 10 -8 2 -90 33
-184 69 -93 35 -179 68 -190 72 l-20 7 10 -11z"/>
<path d="M55061 58546 c5 -5 390 -116 403 -116 25 0 -15 14 -191 65 -175 50
-223 62 -212 51z"/>
<path d="M61801 58403 c16 -82 34 -172 40 -201 l11 -54 5 6 6 5 -39 196 c-21
107 -41 195 -45 195 l-6 0 28 -147z"/>
<path d="M91886 58428 c-32 -109 -75 -225 -93 -253 -15 -23 -17 -35 -4 -35
l10 0 30 63 c24 51 101 287 101 311 0 3 -4 6 -8 6 l-8 0 -28 -92z"/>
<path d="M55905 58353 c12 -12 405 -116 412 -110 6 7 -32 18 -222 67 -88 22
-169 44 -180 47 l-20 5 10 -9z"/>
<path d="M55900 58311 c22 -13 402 -112 408 -106 7 6 3 7 -217 65 -201 52
-216 55 -191 41z"/>
<path d="M49335 58170 c-53 -67 -95 -124 -92 -126 2 -3 48 50 102 116 53 67
95 124 92 126 -2 3 -48 -50 -102 -116z"/>
<path d="M49370 58150 c-52 -65 -96 -124 -99 -132 l-3 -13 9 10 c9 10 177 217
196 243 l9 12 -8 -1 c-5 0 -52 -54 -104 -119z"/>
<path d="M62603 57881 l-211 -46 -9 -9 -8 -9 15 5 c8 2 111 25 228 49 l212 44
0 7 c0 10 23 14 -227 -41z"/>
<path d="M55710 57774 c-228 -29 -421 -53 -429 -54 l-14 0 6 -6 6 -6 435 53
436 54 0 7 c0 10 46 15 -440 -48z"/>
<path d="M55477 57785 c-103 -13 -193 -26 -200 -28 l-12 -5 25 -1 c41 -1 410
46 417 53 l6 6 -24 -1 c-13 -1 -108 -12 -212 -24z"/>
<path d="M61586 57228 c51 -238 104 -471 117 -518 l24 -85 19 -122 19 -123 7
0 8 0 -5 23 c-2 12 -14 78 -25 146 -12 69 -34 170 -49 225 -16 56 -66 278
-112 494 -45 215 -86 392 -89 392 -4 0 35 -195 86 -432z"/>
<path d="M46540 57609 l0 -9 25 0 c14 0 25 2 25 4 0 2 -11 6 -25 8 l-25 5 0
-8z"/>
<path d="M46611 57514 c102 -140 252 -339 257 -344 3 -3 3 2 0 11 -9 23 -278
383 -290 388 -6 2 9 -23 33 -55z"/>
<path d="M52100 57561 l0 -10 38 -10 c20 -6 60 -15 87 -22 28 -6 115 -31 193
-56 l144 -45 6 6 c3 3 3 8 1 10 -6 6 -297 93 -369 111 -36 9 -73 18 -82 21
l-18 5 0 -10z"/>
<path d="M94704 57391 c-76 -93 -140 -175 -142 -183 l-4 -13 9 10 c38 39 291
355 284 355 -4 0 -71 -76 -147 -169z"/>
<path d="M49990 57513 c55 -25 288 -104 345 -117 l30 -6 -15 9 c-8 5 -58 21
-110 36 -52 15 -139 45 -193 66 -110 44 -140 50 -57 12z"/>
<path d="M80371 57474 c-116 -67 -201 -124 -185 -124 5 0 25 11 44 23 19 13
83 52 143 86 l107 62 25 -28 c31 -36 32 -27 2 15 l-24 31 -112 -65z"/>
<path d="M34865 57414 c-115 -63 -214 -120 -220 -126 -11 -12 132 62 328 169
107 59 130 74 110 72 -5 0 -102 -52 -218 -115z"/>
<path d="M50480 57392 l114 -39 52 -56 c28 -32 55 -57 60 -57 5 0 -21 29 -56
65 l-65 65 -80 24 c-133 41 -148 39 -25 -2z"/>
<path d="M37946 57262 l-118 -47 -157 -125 -156 -125 -21 -45 c-40 -84 -219
-641 -238 -740 l-6 -34 8 9 c5 6 14 35 21 65 15 70 206 653 229 700 l17 34 90
74 c50 40 122 97 160 126 l70 52 108 43 c59 24 110 47 113 52 7 12 16 15 -120
-39z"/>
<path d="M86700 56870 c0 -15 157 -325 188 -372 l26 -40 4 11 4 11 -20 27
c-11 16 -58 106 -106 201 -81 161 -96 187 -96 162z"/>
<path d="M53917 56813 l-5 -8 219 -111 220 -111 -4 11 -3 10 -211 108 -211
109 -5 -8z"/>
<path d="M47200 56796 c0 -4 314 -285 353 -315 9 -7 17 -11 17 -8 0 7 -336
308 -357 321 -7 4 -13 5 -13 2z"/>
<path d="M56630 56676 c0 -8 621 -561 633 -565 19 -5 -27 37 -335 312 -263
236 -298 265 -298 253z"/>
<path d="M79450 56580 l-45 -30 -80 -27 -80 -27 -80 -13 -80 -12 75 3 75 3 96
33 96 33 39 33 c49 41 43 43 -16 4z"/>
<path d="M90650 56522 c0 -4 46 -27 103 -51 56 -24 135 -62 175 -84 40 -21 76
-37 79 -34 3 3 -24 20 -58 39 -99 50 -299 138 -299 130z"/>
<path d="M54575 56513 c26 -25 371 -93 407 -81 l13 5 -100 12 -100 13 -95 24
c-52 14 -104 28 -115 31 l-20 5 10 -9z"/>
<path d="M86726 56389 c-83 -43 -155 -84 -160 -90 -11 -10 240 117 299 153 74
44 -3 10 -139 -63z"/>
<path d="M26440 56406 c0 -5 69 -43 254 -141 l109 -58 -4 12 -5 13 -169 89
c-159 83 -185 95 -185 85z"/>
<path d="M37782 56298 l-22 -83 -41 -345 -42 -345 -20 -22 -20 -23 10 0 c5 0
17 8 26 18 l15 17 46 365 45 365 20 68 20 67 -7 0 c-4 0 -17 -37 -30 -82z"/>
<path d="M35742 56198 c-75 -73 -139 -133 -141 -135 -2 -2 1 -3 7 -3 12 0 291
269 279 270 -4 0 -69 -59 -145 -132z"/>
<path d="M44181 56250 l-1 -25 183 -162 c174 -155 297 -253 297 -236 0 4 -26
27 -58 50 -31 23 -133 110 -227 193 l-170 152 -12 27 -11 26 -1 -25z"/>
<path d="M16180 56141 c-102 -26 -198 -51 -214 -55 -15 -4 -26 -9 -23 -12 5
-5 400 91 432 106 l20 9 -15 -1 c-8 0 -98 -21 -200 -47z"/>
<path d="M90080 56018 c-96 -83 -176 -155 -178 -159 l-4 -9 10 0 c7 0 292 240
350 295 l14 13 -9 5 -8 5 -175 -150z"/>
<path d="M16167 56096 c-114 -29 -210 -56 -215 -60 l-7 -8 30 7 c142 33 394
97 410 105 l20 9 -15 -1 c-8 0 -108 -24 -223 -52z"/>
<path d="M63730 56130 l0 -10 13 0 c8 0 22 -9 32 -20 10 -11 22 -20 26 -20 l9
0 -11 24 -11 24 -22 6 c-30 8 -36 7 -36 -4z"/>
<path d="M64083 56087 c-139 -28 -253 -54 -253 -58 0 -7 518 95 527 105 l6 6
-14 -1 c-8 -1 -128 -24 -266 -52z"/>
<path d="M91390 56086 c0 -2 23 -21 51 -41 28 -20 96 -77 152 -127 56 -51 113
-101 126 -112 l24 -21 -4 11 c-5 14 -175 167 -268 242 -58 47 -81 60 -81 48z"/>
<path d="M36635 55893 l-260 -104 -79 -21 -79 -20 -33 5 -34 6 0 -10 0 -9 48
0 c26 0 67 5 91 11 37 8 598 225 610 235 22 19 -42 -4 -264 -93z"/>
<path d="M63345 55926 l-299 -62 12 -8 13 -8 304 63 305 62 0 9 0 8 -17 -1
c-10 -1 -153 -29 -318 -63z"/>
<path d="M15043 55817 l-443 -111 0 -7 0 -7 443 111 c243 60 446 114 452 118
l9 9 -9 -1 c-6 -1 -209 -51 -452 -112z"/>
<path d="M63017 55900 c4 -17 23 -29 23 -16 0 12 -13 36 -20 36 l-8 0 5 -20z"/>
<path d="M61840 55730 l0 -10 25 0 25 0 0 10 0 10 -25 0 -25 0 0 -10z"/>
<path d="M85398 55701 l-28 -18 -160 -49 c-88 -27 -160 -52 -160 -56 l0 -6 43
13 c241 73 347 113 347 131 0 8 -15 2 -42 -15z"/>
<path d="M19341 55398 l-155 -229 -70 -63 c-39 -34 -109 -90 -156 -124 -46
-34 -79 -62 -73 -62 19 0 208 145 276 212 l64 63 141 212 142 212 -8 4 -7 5
-154 -230z"/>
<path d="M82945 55507 l0 -122 -29 -55 c-16 -30 -49 -78 -75 -108 l-46 -53
-50 -28 -50 -28 -142 -48 c-79 -27 -143 -52 -143 -56 l0 -7 113 39 c61 22 144
52 182 66 l70 26 57 60 57 59 30 54 29 54 8 43 8 42 -3 80 c-1 44 -6 85 -9 92
l-7 12 0 -122z"/>
<path d="M32770 55512 c0 -6 19 -26 42 -46 22 -20 126 -127 231 -238 104 -112
202 -211 217 -221 16 -10 58 -26 94 -37 l66 -19 0 8 0 8 -55 13 -55 13 -34 21
-34 21 -169 180 c-93 99 -199 209 -236 244 l-67 64 0 -11z"/>
<path d="M89572 55378 c-27 -51 -77 -146 -111 -210 l-62 -116 9 -6 8 -5 110
207 c60 113 111 210 112 214 l4 8 -10 0 -10 0 -50 -92z"/>
<path d="M44101 55288 c7 -13 86 -97 177 -188 l166 -165 -145 150 c-79 83
-156 167 -169 187 -14 21 -29 38 -33 38 l-8 0 12 -22z"/>
<path d="M53187 55240 l-7 -25 26 -131 25 -132 -42 -68 c-23 -38 -86 -136
-141 -217 -55 -81 -98 -152 -96 -156 l3 -9 115 173 c63 95 129 194 145 221
l30 49 -18 95 c-10 52 -21 124 -25 160 l-8 65 -7 -25z"/>
<path d="M93001 55236 c2 -2 60 -27 129 -54 69 -28 190 -81 270 -117 150 -69
291 -125 316 -125 l14 0 35 70 c19 39 33 70 30 70 -2 0 -18 -27 -35 -59 -16
-33 -34 -62 -39 -65 l-9 -6 -81 30 c-45 16 -150 61 -234 99 -215 98 -418 178
-396 157z"/>
<path d="M73800 55038 l-25 -41 -99 -93 c-55 -51 -98 -96 -95 -99 3 -2 55 44
115 103 l109 107 18 33 18 32 -8 0 c-4 0 -19 -19 -33 -42z"/>
<path d="M63960 55050 c0 -15 92 -444 96 -449 2 -2 7 -2 10 2 l6 6 -48 225
-48 226 -8 0 c-4 0 -8 -4 -8 -10z"/>
<path d="M82250 55016 c-69 -18 -136 -38 -150 -45 -31 -17 -110 -92 -110 -105
l0 -10 48 46 c60 59 83 69 222 103 63 15 122 32 130 36 l15 8 -15 0 c-8 -1
-71 -15 -140 -33z"/>
<path d="M47677 54923 c-4 -3 -7 -28 -7 -55 l0 -48 40 -97 41 -97 -5 -13 -5
-13 13 0 c8 0 16 4 18 8 2 4 67 39 146 77 l142 68 0 9 0 8 -141 -71 -141 -70
-12 4 -11 5 -39 101 -39 101 6 45 c7 45 6 50 -6 38z"/>
<path d="M52295 54914 c11 -8 82 -56 157 -107 76 -51 232 -156 347 -234 l210
-141 -230 -348 c-127 -191 -244 -375 -261 -408 -32 -64 -71 -167 -64 -173 7
-7 23 23 35 67 7 24 32 79 55 122 55 100 468 728 480 728 19 0 526 -331 930
-608 60 -41 107 -69 105 -64 -5 14 -484 338 -789 534 -129 83 -237 154 -240
157 -3 3 -17 13 -32 21 -15 8 -161 106 -323 218 -163 111 -303 206 -313 209
-9 3 -29 15 -44 25 -31 22 -52 24 -23 2z"/>
<path d="M52235 54717 c-55 -84 -173 -250 -263 -370 -90 -121 -166 -225 -169
-233 l-5 -14 6 0 c22 0 548 751 535 764 -2 3 -49 -64 -104 -147z"/>
<path d="M88793 54647 c-191 -100 -233 -127 -204 -127 11 0 402 208 415 220
30 30 -22 7 -211 -93z"/>
<path d="M18275 54624 c-88 -13 -164 -23 -169 -24 l-9 0 6 -6 6 -6 193 27
c106 15 195 29 197 31 9 8 -70 1 -224 -22z"/>
<path d="M45756 54610 c-3 -19 -19 -143 -36 -275 l-30 -240 14 -160 15 -160
11 -38 c16 -53 24 -40 10 14 l-12 43 -12 156 -13 155 34 260 c18 143 31 264
29 270 l-3 10 -7 -35z"/>
<path d="M46873 54606 l4 -11 21 -3 22 -3 0 9 0 10 -25 5 -26 4 4 -11z"/>
<path d="M49573 54508 c-117 -56 -213 -106 -213 -110 0 -6 427 196 439 208 16
16 -40 -8 -226 -98z"/>
<path d="M54956 54329 c-48 -156 -105 -341 -127 -411 l-40 -127 -67 -43 c-38
-24 -130 -72 -205 -107 -75 -35 -135 -67 -132 -69 7 -8 299 135 362 176 l52
34 15 47 c81 250 236 766 234 773 -2 6 -43 -117 -92 -273z"/>
<path d="M44811 54574 c0 -11 378 -306 399 -312 l15 -4 -10 9 c-8 7 -329 258
-392 306 l-13 9 1 -8z"/>
<path d="M17338 54542 l-208 -26 0 -7 0 -7 18 3 c9 2 100 14 202 25 102 12
196 25 210 30 l25 8 -20 0 c-11 0 -113 -12 -227 -26z"/>
<path d="M50121 54533 c-1 -7 4 -44 11 -83 l12 -70 26 -24 25 -23 48 -16 47
-16 0 8 0 8 -45 13 -46 13 -23 28 -24 28 -7 53 c-4 29 -11 62 -16 73 l-8 20 0
-12z"/>
<path d="M53036 54471 c22 -21 496 -322 500 -318 5 5 -490 327 -502 327 l-8 0
10 -9z"/>
<path d="M52822 54333 c-49 -76 -143 -221 -207 -323 -65 -102 -153 -231 -196
-288 -44 -57 -79 -105 -79 -108 0 -33 156 183 333 460 87 138 178 278 201 311
24 33 46 66 50 73 l7 12 -9 0 -10 0 -90 -137z"/>
<path d="M48670 54405 c0 -13 146 -295 152 -295 5 0 -26 68 -67 150 -66 131
-85 164 -85 145z"/>
<path d="M51341 54254 c-46 -52 -81 -97 -79 -99 3 -3 35 30 73 73 38 42 78 87
89 100 l19 22 -9 0 c-5 -1 -47 -44 -93 -96z"/>
<path d="M49082 54218 c-128 -66 -231 -122 -229 -125 3 -2 114 52 248 121 134
69 237 126 229 125 -8 0 -120 -54 -248 -121z"/>
<path d="M84639 54207 c-223 -101 -418 -204 -462 -246 -16 -14 -44 -46 -62
-71 l-33 -45 -29 -70 -28 -70 1 -95 1 -95 16 -70 c22 -104 38 -158 43 -152 3
3 -2 33 -12 68 -9 35 -22 105 -29 154 l-12 90 8 60 8 60 21 55 22 55 33 45
c18 25 46 57 62 71 44 40 259 155 463 247 157 70 220 103 200 102 -3 0 -98
-42 -211 -93z"/>
<path d="M32790 54204 c1 -5 34 -35 75 -67 l75 -57 0 -30 0 -29 -42 -39 c-24
-22 -59 -53 -78 -70 -19 -17 -33 -33 -30 -35 3 -3 40 26 83 65 l77 70 0 38 0
38 -67 53 c-38 28 -74 56 -80 62 l-13 9 0 -8z"/>
<path d="M51586 54058 c-47 -56 -86 -107 -86 -112 l0 -10 8 10 c74 82 173 206
170 210 -3 2 -44 -41 -92 -98z"/>
<path d="M33655 54094 l-1 -46 -22 -18 -22 -18 14 -5 14 -6 18 20 18 20 0 46
1 46 -10 3 -10 4 0 -46z"/>
<path d="M50595 54097 c11 -8 42 -27 69 -42 l50 -29 -7 11 c-8 13 -109 73
-123 73 -5 0 0 -6 11 -13z"/>
<path d="M6167 54047 l-5 -14 201 -63 c195 -60 448 -135 630 -185 l87 -24 0
13 0 12 -222 63 c-174 48 -604 181 -674 208 l-11 4 -6 -14z"/>
<path d="M85450 54035 c0 -8 97 -380 106 -404 2 -8 6 -12 9 -10 5 6 -101 408
-109 417 l-6 5 0 -8z"/>
<path d="M20940 53959 c-63 -26 -128 -53 -144 -59 l-29 -10 5 -6 6 -5 138 55
138 56 41 0 40 0 170 -34 170 -34 88 -37 88 -38 36 -33 36 -34 -6 -108 c-4
-59 -9 -141 -12 -182 -9 -130 4 -61 19 98 l13 153 -6 27 c-12 56 -44 82 -161
132 l-75 32 -195 39 c-107 21 -206 38 -220 38 l-25 -1 -115 -49z"/>
<path d="M31217 53953 c-3 -5 -8 -22 -11 -40 -4 -17 -45 -121 -91 -229 -47
-109 -82 -200 -80 -202 2 -3 9 6 14 19 5 13 44 105 86 204 42 99 80 197 84
218 8 35 7 46 -2 30z"/>
<path d="M31245 53913 l-6 -38 -86 -203 c-47 -111 -84 -205 -82 -207 3 -2 44
90 92 204 l88 208 6 36 c8 49 -3 48 -12 0z"/>
<path d="M13471 53873 c0 -10 348 -289 354 -285 13 7 -7 25 -166 153 -161 130
-190 150 -188 132z"/>
<path d="M22390 53710 l-115 -118 -67 -17 c-38 -10 -68 -21 -68 -25 l0 -8 68
21 67 20 31 23 c35 26 209 213 203 218 -2 2 -56 -49 -119 -114z"/>
<path d="M51741 53703 c2 -6 45 -43 94 -83 50 -40 106 -91 126 -114 l37 -41 7
7 8 7 -34 38 c-36 41 -209 185 -229 191 l-12 5 3 -10z"/>
<path d="M50055 53537 c-88 -48 -171 -94 -184 -101 l-24 -13 10 -6 9 -6 109
60 c61 33 142 77 181 98 l72 38 -7 9 -6 10 -160 -89z"/>
<path d="M58314 53591 c3 -5 41 -31 83 -57 l78 -48 63 -4 63 -4 60 12 59 13 0
7 0 8 -52 -14 -53 -14 -46 0 -46 0 -42 14 c-22 8 -67 33 -100 55 -33 23 -63
41 -66 41 l-6 0 5 -9z"/>
<path d="M60425 53552 c50 -31 275 -142 325 -160 l15 -5 -10 10 c-5 6 -70 39
-144 73 -74 34 -154 75 -177 91 -23 16 -49 29 -56 29 l-13 0 60 -38z"/>
<path d="M49666 53552 c3 -13 21 -56 39 -95 l34 -72 0 15 c0 8 -18 51 -39 95
-22 44 -37 70 -34 57z"/>
<path d="M8650 53418 l-265 -99 -110 -29 c-60 -15 -139 -33 -175 -38 l-65 -11
75 5 c41 3 104 12 140 21 55 13 657 229 669 239 19 17 -40 -2 -269 -88z"/>
<path d="M50356 53494 l-20 -14 10 0 c13 0 39 18 34 24 -3 2 -14 -2 -24 -10z"/>
<path d="M50310 53484 c0 -3 25 -51 56 -106 51 -90 122 -236 145 -297 5 -13
12 -21 15 -19 8 8 -71 179 -142 309 -60 108 -74 130 -74 113z"/>
<path d="M67355 53465 c3 -17 12 -63 20 -104 l13 -74 -8 -23 -9 -23 -28 -14
c-15 -8 -65 -23 -111 -32 -45 -10 -80 -20 -77 -23 3 -3 44 3 92 13 l88 18 23
15 24 15 9 25 9 24 -16 96 -16 97 -9 10 -9 9 5 -29z"/>
<path d="M51935 53460 l-20 -9 15 0 c8 0 24 4 35 9 l20 9 -15 0 c-8 0 -24 -4
-35 -9z"/>
<path d="M51789 53406 c-88 -34 -164 -74 -155 -83 3 -3 18 4 34 16 16 11 67
34 113 51 46 17 88 35 94 41 13 13 10 12 -86 -25z"/>
<path d="M35855 53361 l-5 -10 52 -5 c29 -3 133 -11 232 -16 l178 -11 6 6 c12
11 -9 14 -178 24 -96 6 -198 13 -227 16 l-52 5 -6 -9z"/>
<path d="M77860 53288 c1 -7 22 -101 49 -207 l48 -195 11 -4 11 -3 -9 33 c-5
18 -27 113 -50 211 l-42 177 -9 0 c-5 0 -9 -6 -9 -12z"/>
<path d="M52448 53266 l-17 -24 -108 -8 -108 -7 25 -9 25 -8 19 -48 c33 -81
132 -282 193 -392 l58 -105 20 -2 20 -3 85 50 c47 27 80 50 74 50 -6 0 -48
-21 -92 -46 l-81 -46 -10 6 c-15 10 -150 260 -216 404 l-64 137 82 8 82 9 13
10 c7 6 18 20 23 30 l10 18 -8 0 c-4 0 -16 -11 -25 -24z"/>
<path d="M77802 53269 c3 -8 27 -103 54 -211 l48 -198 8 8 8 8 -48 199 -48
199 -14 4 -13 5 5 -14z"/>
<path d="M49810 53235 c0 -4 126 -201 137 -214 1 -2 5 -2 7 0 3 3 -26 53 -65
112 -63 96 -79 117 -79 102z"/>
<path d="M53625 53216 c-72 -28 -397 -198 -391 -204 3 -2 87 39 188 91 101 52
202 101 226 108 l42 12 0 9 c0 10 6 11 -65 -16z"/>
<path d="M54591 52928 l-92 -303 -9 -65 -8 -65 -46 -149 -46 -148 1 -32 2 -31
4 25 c2 14 27 99 54 188 l50 164 3 51 4 52 95 308 c52 169 91 307 88 307 -4 0
-49 -136 -100 -302z"/>
<path d="M57032 53193 c70 -2 187 -2 260 0 l133 3 -260 0 -260 0 127 -3z"/>
<path d="M52065 53124 c-11 -8 -123 -69 -248 -136 -125 -66 -226 -123 -223
-125 6 -6 474 243 496 263 l14 14 -9 0 c-6 0 -19 -7 -30 -16z"/>
<path d="M66448 53072 l-216 -47 -9 -9 -8 -9 15 5 c8 3 107 24 220 48 113 23
212 46 220 51 l15 8 -10 0 c-5 0 -108 -22 -227 -47z"/>
<path d="M51370 53098 c0 -4 13 -22 28 -40 l29 -33 18 -52 19 -53 9 0 9 0 -6
13 c-2 6 -10 29 -17 50 l-13 39 -37 41 c-21 23 -38 39 -39 35z"/>
<path d="M30252 52995 l-2 -90 -50 -60 -50 -60 -20 -43 -19 -42 -16 -142 -17
-142 13 -143 12 -143 7 0 6 0 -12 133 -13 132 16 150 16 150 23 45 c13 25 44
70 69 101 l46 56 -4 94 -3 94 -2 -90z"/>
<path d="M66458 53031 c-119 -25 -220 -49 -223 -52 -9 -9 442 84 451 94 l7 7
-9 -1 c-5 -1 -107 -22 -226 -48z"/>
<path d="M51505 52875 l30 -24 25 1 25 0 -20 5 c-11 3 -32 14 -47 24 -38 28
-48 23 -13 -6z"/>
<path d="M74560 52854 c-207 -43 -262 -56 -257 -60 7 -7 370 67 382 78 l9 8
-9 -1 c-6 -1 -62 -12 -125 -25z"/>
<path d="M77750 52781 c-96 -37 -184 -71 -194 -75 l-19 -7 9 -9 10 -10 124 49
c69 26 158 60 198 75 l72 28 0 9 0 9 -12 -1 c-7 0 -92 -31 -188 -68z"/>
<path d="M65270 52820 l-15 -10 10 0 c6 0 17 5 25 10 l15 10 -10 0 c-5 0 -17
-5 -25 -10z"/>
<path d="M18553 52598 c4 -83 7 -191 7 -240 l0 -88 10 0 10 0 0 98 c0 53 -3
161 -7 240 l-6 142 -10 0 -10 0 6 -152z"/>
<path d="M52731 52724 l1 -19 5 13 5 13 -6 6 -6 6 1 -19z"/>
<path d="M14932 52719 l5 -14 204 -91 204 -92 4 10 c1 5 1 10 0 12 -4 3 -386
175 -408 184 l-14 5 5 -14z"/>
<path d="M52671 52655 l-134 -65 5 -6 6 -5 131 65 c72 37 131 68 131 71 0 7 6
10 -139 -60z"/>
<path d="M34076 52407 l-48 -192 -15 -23 c-8 -13 -12 -26 -9 -29 3 -3 12 10
21 28 20 43 115 409 106 409 -3 0 -28 -87 -55 -193z"/>
<path d="M48476 52561 l-6 -9 6 -16 c3 -9 10 -16 14 -16 8 0 20 24 20 41 l0 9
-14 0 c-8 0 -17 -4 -20 -9z"/>
<path d="M50780 52549 l0 -10 10 6 c6 3 10 8 10 11 0 2 -4 4 -10 4 -5 0 -10
-5 -10 -11z"/>
<path d="M46280 52459 c121 -65 312 -159 324 -159 5 0 -83 47 -197 105 -218
110 -288 140 -127 54z"/>
<path d="M22522 52331 l-41 -99 -36 -142 c-20 -78 -34 -147 -32 -154 2 -6 18
50 36 124 l33 135 45 108 45 107 16 10 17 9 -20 1 -21 0 -42 -99z"/>
<path d="M48231 52420 c26 -4 56 -13 68 -19 l21 -12 0 9 c0 5 -11 14 -25 20
l-26 12 -42 -1 -42 -1 46 -8z"/>
<path d="M48163 52413 l7 -6 7 6 6 7 -13 0 -13 0 6 -7z"/>
<path d="M52930 52307 c0 -16 49 -103 69 -121 l22 -20 147 -299 146 -299 4 10
3 10 -147 294 -146 293 -34 38 c-19 20 -34 43 -34 50 0 14 -29 57 -30 44z"/>
<path d="M84795 52267 l-80 -20 12 -4 c6 -2 47 5 91 17 44 11 82 20 85 20 3 0
17 -51 32 -112 32 -135 34 -142 40 -136 3 2 -9 61 -26 131 l-31 127 -21 -1
c-12 -1 -58 -10 -102 -22z"/>
<path d="M21607 51888 c-9 -237 -16 -683 -11 -638 4 35 34 733 34 790 l0 30
-9 0 -8 0 -6 -182z"/>
<path d="M13140 51673 c-85 -119 -177 -248 -203 -285 l-48 -68 13 0 13 1 195
275 c107 151 197 279 198 284 l4 10 -9 0 c-5 0 -78 -98 -163 -217z"/>
<path d="M42160 51714 c-36 -20 -78 -48 -93 -62 l-29 -27 -24 -47 c-13 -25
-28 -66 -33 -90 l-10 -43 8 -55 7 -55 5 85 6 85 30 60 c37 73 53 87 151 142
l77 42 -15 1 c-8 0 -44 -16 -80 -36z"/>
<path d="M2680 51466 c-47 -7 -136 -26 -197 -42 l-113 -29 0 -11 0 -11 123 33
122 32 103 12 102 12 0 9 0 9 -27 -1 c-16 -1 -66 -7 -113 -13z"/>
<path d="M34050 51310 l-11 -20 11 -19 10 -20 0 -33 c0 -18 7 -70 16 -116 l17
-83 9 9 9 9 -16 64 c-8 35 -15 83 -15 107 l0 43 -10 20 -11 19 11 20 11 20
-10 0 c-6 0 -15 -9 -21 -20z"/>
<path d="M18370 51290 l0 -10 15 0 15 0 0 10 0 10 -15 0 -15 0 0 -10z"/>
<path d="M21583 51173 l7 -6 7 6 6 7 -13 0 -13 0 6 -7z"/>
<path d="M42330 51087 c0 -2 22 -18 50 -36 l49 -32 46 -52 46 -52 63 -120 64
-120 20 -70 20 -70 -4 -40 -3 -40 11 43 11 43 -24 77 -24 77 -62 115 -62 115
-50 56 -51 57 -44 26 c-42 25 -56 30 -56 23z"/>
<path d="M12414 51036 c-62 -42 -76 -60 -97 -116 l-17 -46 0 -74 c0 -77 7
-120 19 -120 l7 0 -4 93 -4 92 19 50 19 50 62 47 62 47 -8 5 -9 5 -49 -33z"/>
<path d="M78577 50933 c25 -70 55 -168 67 -217 l22 -90 11 -3 11 -4 -19 78
c-10 43 -40 141 -66 217 l-48 140 -12 4 -12 3 46 -128z"/>
<path d="M28364 50976 c-3 -8 -4 -29 -2 -47 l3 -32 10 -4 10 -3 0 50 0 50 -8
0 c-4 0 -10 -6 -13 -14z"/>
<path d="M5260 50932 l0 -9 133 -12 c72 -7 239 -28 371 -47 131 -18 333 -43
450 -54 l211 -21 143 -34 143 -35 78 0 78 0 214 31 214 31 133 -4 133 -5 4 7
5 7 -47 7 c-25 3 -94 6 -153 6 l-108 0 -207 -30 -207 -30 -63 0 -63 0 -146 35
-145 35 -213 21 c-117 11 -289 31 -382 45 -173 25 -511 64 -553 64 l-23 0 0
-8z"/>
<path d="M26779 50868 c0 -29 -6 -152 -13 -273 l-13 -220 -13 -26 -12 -27 -22
-11 c-11 -6 -39 -15 -61 -21 l-40 -10 49 5 50 5 21 14 22 14 11 44 11 43 13
258 13 257 -7 0 -8 0 -1 -52z"/>
<path d="M33541 50839 c-2 -13 129 -843 134 -847 9 -9 6 7 -55 405 -52 336
-75 466 -79 442z"/>
<path d="M5710 50822 l0 -7 168 -23 c92 -12 246 -29 342 -38 l175 -16 97 -24
c102 -25 128 -29 128 -16 l0 7 -118 28 -117 27 -213 20 c-118 11 -261 27 -320
35 -58 8 -114 15 -124 15 l-18 0 0 -8z"/>
<path d="M42620 50823 c0 -3 11 -25 24 -47 13 -23 38 -83 55 -135 l30 -94 -14
-98 -15 -97 -40 -153 -40 -154 11 -64 c14 -90 22 -91 14 -1 l-7 75 41 160 40
160 12 87 12 87 -26 83 -26 83 -31 58 c-29 53 -40 67 -40 50z"/>
<path d="M31724 50275 c3 -33 8 -130 12 -215 l7 -155 9 -15 9 -15 -5 55 c-3
30 -8 127 -12 215 l-6 160 -10 15 -9 15 5 -60z"/>
<path d="M22357 50123 c-3 -65 -11 -343 -17 -618 -5 -275 -17 -678 -25 -895
-8 -217 -18 -534 -21 -704 l-7 -309 11 7 12 7 0 122 c0 67 7 289 15 492 15
399 22 635 30 1120 5 287 18 632 30 818 l5 77 -13 0 -14 0 -6 -117z"/>
<path d="M42930 50050 l-255 -139 -3 -11 -4 -12 15 4 c8 1 130 66 270 142
l256 140 -5 8 c-3 4 -8 8 -12 8 -4 0 -122 -63 -262 -140z"/>
<path d="M47937 50005 c3 -66 9 -208 14 -315 l7 -195 -4 270 -5 270 -9 45 -9
45 6 -120z"/>
<path d="M34313 50068 c4 -13 9 -42 13 -65 l7 -43 14 0 15 0 -5 23 c-4 12 -9
41 -13 65 l-7 42 -14 0 -15 0 5 -22z"/>
<path d="M34170 49980 l0 -10 61 0 60 0 -6 10 -6 10 -55 0 -54 0 0 -10z"/>
<path d="M34176 49932 c5 -4 30 -25 57 -46 l47 -37 0 10 c0 5 -19 26 -42 45
l-42 36 -15 0 -15 0 10 -8z"/>
<path d="M43715 49730 c-110 -60 -204 -111 -210 -113 l-10 -4 5 -6 6 -6 208
114 c115 63 211 117 214 120 l5 5 -9 0 c-5 0 -99 -50 -209 -110z"/>
<path d="M69441 49653 c-7 -104 -14 -198 -17 -210 l-4 -23 10 0 10 0 1 43 c0
23 6 117 12 210 l12 167 -6 0 -6 0 -12 -187z"/>
<path d="M75794 49758 c3 -29 12 -141 21 -248 24 -294 54 -631 60 -667 l6 -33
9 0 8 0 -5 63 c-2 34 -13 161 -24 282 -47 512 -59 640 -59 648 0 4 -5 7 -11 7
l-11 0 6 -52z"/>
<path d="M22405 49750 l30 -8 165 -5 165 -5 -20 7 -20 8 -175 5 -175 6 30 -8z"/>
<path d="M39205 49729 c29 -13 428 -109 433 -104 7 6 3 7 -231 64 -211 52
-238 57 -202 40z"/>
<path d="M73427 49000 c-104 -16 -191 -31 -194 -34 l-6 -6 10 0 c17 0 437 61
448 65 31 11 -94 -1 -258 -25z"/>
<path d="M64720 48963 c0 -10 -9 -31 -20 -48 -11 -16 -20 -34 -20 -40 l1 -10
24 28 25 28 0 30 c0 16 -2 29 -5 29 -3 0 -5 -8 -5 -17z"/>
<path d="M75926 48952 l-5 -9 29 -40 29 -39 26 -12 c32 -15 35 -15 35 -2 l0
10 -25 12 -26 12 -28 38 -29 39 -6 -9z"/>
<path d="M73110 48910 l-85 -18 -36 -41 -36 -40 -21 -56 -22 -56 -40 -219
c-22 -120 -40 -226 -39 -236 l0 -19 9 20 c5 11 25 110 45 220 20 110 43 223
52 250 19 61 57 124 89 148 l25 18 89 17 c49 10 92 21 96 25 l7 7 -24 -1 c-13
-1 -62 -9 -109 -19z"/>
<path d="M14050 48888 c-25 -11 -126 -42 -224 -69 -176 -48 -194 -54 -184 -64
5 -6 269 64 381 101 l77 26 0 14 c0 8 -1 14 -2 13 -2 0 -23 -9 -48 -21z"/>
<path d="M76405 48855 c-33 -8 -156 -24 -272 -36 l-213 -23 0 -8 0 -8 26 0
c52 0 402 41 482 57 l82 16 0 8 0 9 -22 -1 c-13 -1 -50 -7 -83 -14z"/>
<path d="M91417 48678 c-81 -94 -147 -176 -147 -182 l0 -10 8 10 c5 5 64 74
132 154 68 80 132 155 143 167 11 13 18 25 15 28 -2 3 -70 -73 -151 -167z"/>
<path d="M35253 48677 l-183 -9 0 -8 0 -8 38 4 c20 2 138 9 262 15 124 6 227
12 229 15 6 6 -134 2 -346 -9z"/>
<path d="M35253 48637 l-183 -9 0 -9 0 -8 33 4 c17 3 138 10 267 16 129 6 237
13 239 15 6 6 -147 2 -356 -9z"/>
<path d="M43197 48633 c-4 -3 -7 -14 -7 -23 l0 -18 15 -12 15 -12 0 10 c0 6
-5 14 -10 17 l-11 7 6 19 c7 20 3 24 -8 12z"/>
<path d="M40385 48600 c3 -5 8 -10 11 -10 2 0 4 5 4 10 0 6 -5 10 -11 10 l-10
0 6 -10z"/>
<path d="M41703 48573 l-123 -4 0 -7 0 -7 236 7 c130 4 239 10 242 13 5 5 -96
4 -355 -2z"/>
<path d="M41690 48530 l-135 -7 -37 -13 c-21 -7 -38 -17 -38 -21 l0 -8 57 20
56 19 151 1 c83 1 189 4 236 8 l85 8 -120 0 c-66 -1 -181 -4 -255 -7z"/>
<path d="M37843 48107 l-193 -9 0 -10 0 -9 18 5 c9 2 105 8 213 11 l197 7 13
9 14 9 -35 -2 c-19 -1 -122 -6 -227 -11z"/>
<path d="M44162 48089 l-32 -29 19 0 19 0 23 19 24 20 -10 10 -10 10 -33 -30z"/>
<path d="M90844 48048 c-32 -35 -77 -93 -100 -129 -52 -79 -162 -215 -303
-373 -57 -64 -101 -119 -99 -121 5 -5 235 252 322 359 27 34 69 93 93 131 l45
70 61 63 61 62 -11 0 c-6 0 -37 -28 -69 -62z"/>
<path d="M36725 48044 c-198 -12 -387 -23 -419 -23 l-60 -1 10 -8 9 -9 453 28
c250 15 456 30 459 33 l6 6 -49 -1 c-27 -1 -211 -12 -409 -25z"/>
<path d="M44286 48001 l-6 -9 24 -15 23 -16 15 -33 16 -33 7 -157 7 -158 10 0
10 0 -7 163 -7 162 -15 33 -15 32 -29 20 -28 20 -5 -9z"/>
<path d="M43660 47839 l0 -9 25 0 c14 0 25 2 25 4 0 2 -11 6 -25 8 l-25 5 0
-8z"/>
<path d="M53573 47770 l-33 -20 0 -15 c0 -8 39 -92 86 -185 l86 -170 9 0 8 0
-28 48 c-33 56 -151 301 -151 313 0 5 17 17 38 28 20 11 33 20 27 21 -5 0 -25
-9 -42 -20z"/>
<path d="M90457 47629 c-76 -87 -141 -167 -144 -176 -5 -14 166 178 285 320
l15 17 -9 -1 c-5 0 -71 -72 -147 -160z"/>
<path d="M33980 47679 c0 -24 40 -270 49 -308 5 -20 15 -56 21 -80 6 -23 13
-41 16 -38 3 3 -4 41 -15 85 -12 44 -30 139 -40 212 -11 73 -22 135 -25 138
l-6 5 0 -14z"/>
<path d="M41575 47500 l-6 -9 20 -38 c10 -21 30 -48 44 -61 l25 -24 6 10 6 10
-16 13 c-9 7 -27 34 -40 61 -26 50 -29 54 -39 38z"/>
<path d="M41487 47473 c-4 -3 -7 -17 -7 -29 0 -13 -5 -34 -11 -48 l-12 -25
-55 -36 -54 -37 9 -9 10 -10 64 7 64 6 18 24 18 24 -7 11 -6 11 -22 -20 c-11
-11 -32 -23 -46 -27 l-25 -7 32 30 31 29 11 39 c6 22 11 47 11 57 l0 17 -8 0
c-5 0 -12 -3 -15 -7z"/>
<path d="M41631 47460 l15 -25 45 -22 44 -22 60 1 60 0 -50 8 -50 8 -45 21
c-25 11 -56 29 -70 38 l-25 18 16 -25z"/>
<path d="M42300 47389 l-305 -68 -85 -43 -85 -43 -57 -86 -58 -86 -6 -33 -7
-33 14 5 14 5 3 19 c2 10 29 57 60 104 l57 85 80 41 80 41 312 69 313 69 -3 9
c-2 6 -7 11 -13 12 -5 1 -146 -29 -314 -67z"/>
<path d="M22276 47243 c-3 -115 -9 -236 -11 -270 l-6 -63 14 0 14 0 6 113 c4
61 7 183 7 270 l0 157 -9 0 -9 0 -6 -207z"/>
<path d="M18496 47029 c52 -105 97 -190 99 -188 5 6 -179 378 -188 379 -4 0
36 -86 89 -191z"/>
<path d="M18371 47193 c0 -5 40 -87 89 -183 134 -265 345 -690 411 -829 33
-68 62 -122 64 -119 6 6 -361 766 -381 789 -7 8 -50 90 -94 182 -72 149 -92
184 -89 160z"/>
<path d="M89947 47048 l-54 -63 -52 -91 -52 -91 -27 -13 -27 -12 -113 -12
-112 -12 -12 -12 -11 -11 43 -106 c23 -58 45 -104 47 -101 3 3 -11 46 -31 96
-20 49 -36 96 -36 104 l0 14 33 5 c17 3 68 9 112 13 l80 6 31 13 32 13 56 99
56 99 51 57 c28 32 49 60 46 63 -2 3 -29 -23 -60 -58z"/>
<path d="M89983 47028 l-49 -53 -58 -103 -59 -103 -28 -15 -28 -14 -108 -11
c-60 -7 -109 -13 -111 -14 -2 -1 14 -44 34 -94 l36 -91 10 0 10 0 -9 13 c-11
14 -63 143 -63 156 l0 8 93 8 92 7 41 18 42 18 57 103 58 104 37 40 c78 86 81
105 3 23z"/>
<path d="M38311 47052 c-1 -13 8 -76 19 -140 26 -147 30 -165 36 -160 4 5 -42
290 -51 313 -2 6 -4 0 -4 -13z"/>
<path d="M34752 46748 l3 -171 10 -4 10 -3 -3 175 -3 175 -10 0 -9 0 2 -172z"/>
<path d="M39262 46869 l3 -22 12 -4 11 -4 -5 21 c-3 11 -10 23 -15 26 l-10 6
4 -23z"/>
<path d="M22263 46853 l7 -6 7 6 6 7 -13 0 -13 0 6 -7z"/>
<path d="M21800 46775 c0 -3 5 -26 11 -51 l11 -44 13 0 13 0 -12 47 -12 47
-12 4 c-7 2 -12 1 -12 -3z"/>
<path d="M20575 46698 l-19 -63 -45 -49 -46 -49 -90 -43 c-49 -24 -153 -66
-230 -94 -140 -51 -298 -120 -291 -127 2 -2 41 13 86 33 46 20 150 61 232 90
82 30 186 72 231 93 l82 38 37 39 37 39 19 45 c11 25 22 60 26 78 l6 32 -8 0
-8 0 -19 -62z"/>
<path d="M22065 46720 c-60 -10 -131 -23 -157 -30 l-47 -12 6 -13 5 -14 26 10
c15 6 83 19 152 30 69 10 135 21 148 24 l22 5 0 10 0 10 -22 -1 c-13 -1 -72
-9 -133 -19z"/>
<path d="M34717 46534 l6 -15 14 5 c8 3 17 6 19 6 3 0 2 5 -1 10 l-6 10 -19 0
-19 0 6 -16z"/>
<path d="M46186 46343 c-14 -51 -78 -367 -96 -480 l-21 -128 -24 -68 c-14 -37
-32 -82 -41 -100 l-16 -32 -76 -77 -77 -78 11 0 c14 0 138 129 162 170 11 19
32 67 46 105 l26 70 24 150 c14 83 40 224 60 315 19 90 33 166 31 168 -2 2 -6
-5 -9 -15z"/>
<path d="M30768 46283 l-58 -4 0 -11 0 -11 173 6 c94 4 198 7 230 7 l57 0 0
10 0 10 -172 -2 c-95 -1 -199 -3 -230 -5z"/>
<path d="M28035 46264 c-110 -7 -212 -13 -227 -13 l-28 -1 0 -12 0 -11 148 7
c81 3 193 9 250 13 l102 6 0 13 0 14 -22 -1 c-13 -1 -113 -8 -223 -15z"/>
<path d="M19840 46246 c0 -13 91 -198 95 -194 6 5 -82 198 -90 198 -3 0 -5 -2
-5 -4z"/>
<path d="M30697 46095 c3 -82 9 -170 14 -195 l7 -45 -5 150 c-3 83 -9 170 -14
195 l-7 45 5 -150z"/>
<path d="M28478 46182 l-228 -15 0 -14 0 -13 43 0 c53 0 348 19 405 26 l42 5
0 15 0 14 -17 -2 c-10 0 -120 -8 -245 -16z"/>
<path d="M92923 46183 l-23 -15 -122 -13 -123 -13 70 -1 70 -1 65 11 65 10 17
16 18 16 74 -57 74 -57 74 -13 75 -13 24 -16 23 -17 51 0 50 0 63 32 c34 18
62 35 62 39 0 4 -26 -6 -58 -22 l-58 -30 -40 -6 -41 -5 -43 22 -43 22 -64 9
-65 9 -70 55 -70 55 -17 -1 c-9 0 -26 -7 -38 -16z"/>
<path d="M89721 46059 l-1 -26 -67 -18 c-38 -10 -90 -27 -118 -38 -58 -24
-185 -106 -185 -119 l0 -9 63 43 c78 54 120 73 227 104 47 14 89 29 94 34 l9
9 -11 23 -11 23 0 -26z"/>
<path d="M93042 46050 l-22 -28 -83 -32 -82 -31 -29 5 -29 6 -94 -6 -93 -7 0
-10 0 -9 17 6 c9 4 70 7 137 7 l120 1 65 25 66 26 28 25 27 26 33 -12 c19 -7
47 -12 63 -12 l29 0 53 -25 54 -25 54 0 54 0 71 36 c39 19 69 38 66 40 -3 3
-33 -9 -67 -26 l-62 -31 -47 -6 -47 -5 -52 26 -51 26 -39 0 -38 0 -39 20 c-22
11 -39 20 -40 19 0 0 -10 -13 -23 -29z"/>
<path d="M81370 45886 c-4 -13 -14 -43 -20 -67 -6 -24 -21 -68 -33 -97 l-21
-53 -28 -6 -28 -5 7 -27 c7 -28 7 -31 -2 -76 l-6 -30 16 34 16 35 -6 27 -6 27
24 6 25 6 17 42 c19 47 64 208 58 208 -2 0 -8 -11 -13 -24z"/>
<path d="M90435 45820 l-170 -7 -58 -17 c-32 -10 -56 -20 -54 -23 3 -2 29 3
59 12 l53 16 187 6 187 6 -5 9 c-3 4 -11 7 -17 6 -7 -1 -88 -4 -182 -8z"/>
<path d="M51890 45800 l0 -9 15 5 c8 4 15 8 15 10 0 2 -7 4 -15 4 l-15 0 0
-10z"/>
<path d="M51938 45794 l-7 -6 79 -158 c44 -87 120 -250 170 -362 118 -263 352
-749 358 -744 2 3 -35 87 -83 188 -48 101 -150 321 -226 490 -76 169 -171 373
-212 453 l-73 146 -6 -7z"/>
<path d="M47833 45758 c2 -7 17 -56 32 -108 30 -104 50 -150 65 -150 l10 0
-14 23 c-8 12 -29 73 -47 135 l-33 112 -9 0 -9 0 5 -12z"/>
<path d="M81165 45707 l-8 -18 12 -12 c15 -15 19 -7 11 23 l-7 25 -8 -18z"/>
<path d="M15390 45479 c0 -13 7 -123 15 -244 8 -121 15 -274 16 -340 l1 -120
8 -25 9 -25 -6 160 c-7 219 -30 606 -37 613 l-6 5 0 -24z"/>
<path d="M15434 45445 c9 -82 24 -413 31 -690 l7 -230 8 -59 c9 -59 15 -74 25
-64 3 3 1 17 -5 32 l-10 28 -15 411 c-15 408 -29 615 -41 626 l-7 6 7 -60z"/>
<path d="M49655 45396 l24 -54 -6 -23 c-3 -13 -13 -32 -21 -42 l-15 -17 -109
-52 -108 -51 0 -9 0 -8 119 59 c65 33 126 67 135 76 l16 16 0 30 0 30 -25 49
c-34 66 -40 64 -10 -4z"/>
<path d="M49606 45408 c9 -17 20 -44 24 -59 l8 -26 -7 -10 c-3 -6 -57 -36
-118 -67 -62 -31 -113 -58 -113 -61 0 -2 55 22 123 54 l122 57 3 21 3 22 -22
50 -21 51 -9 0 -10 0 17 -32z"/>
<path d="M44295 45298 c-11 -7 -45 -18 -75 -25 l-55 -13 -85 0 c-47 -1 -103
-5 -125 -9 l-40 -9 75 -1 c41 0 115 4 164 9 l90 11 43 19 c24 10 43 21 43 24
0 9 -13 7 -35 -6z"/>
<path d="M18473 45136 l137 -133 0 -11 0 -12 15 0 16 0 -13 24 c-7 13 -70 79
-140 145 l-126 121 -14 0 -13 -1 138 -133z"/>
<path d="M44290 45254 c-19 -8 -55 -20 -80 -26 l-45 -11 -125 -7 -125 -7 115
-1 115 -2 63 15 c35 8 80 24 100 35 44 23 32 26 -18 4z"/>
<path d="M16873 44816 l22 -33 3 9 c5 11 -26 58 -38 58 l-9 0 22 -34z"/>
<path d="M52830 44798 c0 -13 192 -413 202 -423 l11 -10 -6 15 c-3 8 -47 103
-97 210 -84 177 -110 226 -110 208z"/>
<path d="M18645 44314 l-7 -225 6 -6 c3 -4 8 -4 10 -2 2 2 7 106 11 232 l7
227 -10 0 -10 0 -7 -226z"/>
<path d="M26560 44382 c0 -9 399 -197 405 -190 3 3 -27 20 -67 38 -40 19 -133
62 -205 96 -73 35 -133 60 -133 56z"/>
<path d="M87733 44197 l-41 -102 23 -20 c12 -11 46 -57 75 -103 29 -46 55 -81
57 -78 4 3 -80 132 -131 201 l-10 13 39 91 c21 50 36 93 34 95 -2 3 -23 -41
-46 -97z"/>
<path d="M87776 44194 l-37 -86 21 -23 c11 -12 43 -58 70 -101 28 -43 50 -73
50 -68 0 6 -28 54 -63 106 l-63 96 34 77 c18 42 32 79 29 81 -2 2 -20 -35 -41
-82z"/>
<path d="M54230 43774 c0 -16 174 -406 177 -397 3 8 -162 391 -173 402 -2 2
-4 0 -4 -5z"/>
<path d="M18670 43586 c0 -29 47 -165 89 -260 l30 -66 32 -40 32 -39 9 5 9 5
-31 39 c-46 58 -150 308 -150 361 l0 19 -10 0 -10 0 0 -24z"/>
<path d="M50784 43310 c-23 -5 -237 -63 -475 -130 l-434 -121 -41 -20 -42 -20
-37 -55 c-20 -31 -34 -58 -31 -61 2 -3 21 19 40 49 l36 54 28 16 28 17 464
129 c256 71 485 134 510 140 l45 10 -25 0 c-14 0 -44 -4 -66 -8z"/>
<path d="M50795 43270 c-44 -10 -226 -59 -405 -110 l-325 -92 -10 -10 -10 -11
15 5 c76 26 701 199 753 209 l67 12 0 9 c0 4 -1 8 -2 7 -2 0 -39 -9 -83 -19z"/>
<path d="M18904 43209 l-5 -9 64 -40 c36 -23 120 -76 188 -119 l124 -79 8 5 9
5 -14 13 c-7 7 -93 62 -190 123 l-178 110 -6 -9z"/>
<path d="M8554 42973 c3 -16 8 -102 12 -193 3 -91 10 -185 15 -210 l8 -45 -4
100 c-3 55 -8 162 -11 238 l-7 137 -9 0 -10 0 6 -27z"/>
<path d="M8594 42973 c3 -16 8 -102 12 -193 4 -91 10 -185 15 -210 l8 -45 -4
100 c-3 55 -8 162 -11 238 l-7 137 -9 0 -10 0 6 -27z"/>
<path d="M50818 42857 l-138 -20 0 -7 0 -7 151 23 c83 12 153 25 157 28 l5 6
-19 -1 c-10 -1 -81 -11 -156 -22z"/>
<path d="M31834 42637 c-27 -34 -118 -125 -201 -203 l-151 -141 -89 -65 c-48
-36 -102 -81 -119 -99 -17 -19 -114 -151 -216 -294 l-186 -260 -53 -50 c-30
-28 -89 -77 -131 -109 -69 -52 -92 -76 -72 -76 12 0 211 160 250 202 23 23
125 160 227 303 l185 260 34 31 c18 17 68 57 111 88 l77 56 148 138 c182 172
281 285 245 281 -5 0 -31 -28 -59 -62z"/>
<path d="M31730 42459 l-205 -206 -81 -56 -82 -57 -51 -56 c-47 -51 -61 -74
-45 -74 3 0 27 23 52 51 l45 51 76 55 c109 80 182 143 294 252 101 98 211 226
205 239 -2 4 -95 -86 -208 -199z"/>
<path d="M91738 42576 c-43 -22 -78 -44 -78 -47 0 -3 37 13 83 37 l82 43 23 1
23 0 95 -55 c51 -30 94 -51 94 -47 0 4 -43 31 -94 60 l-94 52 -29 -1 -28 -2
-77 -41z"/>
<path d="M51404 42540 c4 -19 18 -107 31 -195 29 -186 35 -218 41 -212 6 6
-62 427 -71 435 l-7 7 6 -35z"/>
<path d="M54911 42219 c-100 -72 -180 -133 -177 -136 2 -3 85 52 183 122 205
147 188 134 181 140 -2 3 -87 -54 -187 -126z"/>
<path d="M91178 42319 l-27 -20 -10 -52 c-5 -29 -13 -104 -16 -167 -3 -63 -8
-133 -11 -155 l-6 -40 9 10 10 10 11 170 11 170 11 30 10 31 28 17 c15 9 23
16 17 16 -5 0 -22 -9 -37 -20z"/>
<path d="M91208 42290 l-26 -20 -7 -47 c-11 -73 -13 -98 -18 -228 l-5 -120 8
60 c5 33 13 118 19 189 l10 129 27 28 c32 34 28 38 -8 9z"/>
<path d="M52510 42248 c0 -28 74 -184 146 -310 41 -69 74 -130 74 -135 0 -4
-79 -48 -175 -97 -96 -49 -173 -91 -171 -93 2 -2 86 37 185 87 l182 91 -6 19
c-4 11 -41 80 -83 152 -43 73 -92 169 -111 213 -36 87 -41 96 -41 73z"/>
<path d="M68925 42108 c-115 -16 -211 -31 -214 -34 -2 -2 -2 -6 1 -9 l6 -6
198 26 c110 15 208 30 218 34 l20 7 -10 6 -9 5 -210 -29z"/>
<path d="M45772 41985 l-2 -60 18 -35 c119 -226 155 -291 158 -287 3 3 -28 67
-69 143 -92 173 -89 167 -97 239 l-7 60 -1 -60z"/>
<path d="M82730 41631 c8 -16 75 -123 207 -335 l25 -38 9 9 10 10 -117 186
-116 187 -15 0 -14 0 11 -19z"/>
<path d="M82920 41647 c0 -12 241 -396 252 -403 l10 -6 -11 20 c-18 33 -233
376 -242 387 l-9 9 0 -7z"/>
<path d="M50387 41318 l-186 -92 5 -7 5 -8 191 94 c105 52 193 97 196 100 3 3
-2 5 -10 5 -9 0 -99 -41 -201 -92z"/>
<path d="M86830 41347 c-75 -59 -99 -89 -154 -197 -57 -109 -56 -133 1 -28 22
40 52 92 66 115 l27 43 65 51 c36 28 65 53 65 55 0 11 -20 0 -70 -39z"/>
<path d="M40155 41238 l75 -122 65 -59 65 -59 0 10 c0 6 -27 33 -59 62 l-60
51 -73 120 c-40 65 -76 119 -80 119 -4 0 26 -55 67 -122z"/>
<path d="M30336 41084 l-300 -224 -80 -26 -80 -25 -97 -1 -97 0 -59 33 c-32
18 -92 58 -133 89 -41 31 -80 59 -87 63 l-12 7 -5 -9 -6 -9 98 -70 c54 -38
123 -82 152 -98 l55 -28 96 1 95 0 85 28 84 27 295 221 c162 121 297 221 299
223 1 1 1 7 0 13 l-4 10 -299 -225z"/>
<path d="M28480 41200 l0 -10 28 -11 c15 -6 70 -17 122 -25 l95 -14 123 0 122
0 0 10 0 10 -107 0 -108 0 -105 14 c-58 8 -118 19 -133 25 -35 13 -37 14 -37
1z"/>
<path d="M41115 41072 l-60 -74 -40 -28 -40 -27 -55 -16 c-30 -9 -68 -19 -85
-23 l-30 -7 19 -5 18 -4 62 17 61 17 46 29 47 30 62 75 c34 41 60 78 58 83
l-3 8 -60 -75z"/>
<path d="M29421 41033 c1 -14 112 -99 188 -144 l75 -44 68 -3 68 -4 0 9 0 10
-66 6 -66 6 -64 36 c-35 20 -91 58 -125 85 -60 48 -80 59 -78 43z"/>
<path d="M57403 40883 c119 -2 315 -2 435 0 l217 2 -435 0 -435 0 218 -2z"/>
<path d="M97193 40677 c-101 -34 -183 -65 -183 -69 0 -6 378 117 388 127 13
13 -36 -1 -205 -58z"/>
<path d="M60468 40483 c7 -3 110 -19 228 -37 l214 -32 0 6 c0 6 -422 71 -445
69 l-10 -1 13 -5z"/>
<path d="M46518 40094 l-6 -9 14 -25 13 -25 0 15 c0 8 -4 24 -8 34 l-8 20 -5
-10z"/>
<path d="M65960 40030 l0 -13 7 6 6 7 -6 7 -7 6 0 -13z"/>
<path d="M48437 39983 l-6 -10 131 -114 c132 -115 163 -138 186 -139 l12 0 0
9 c0 5 -10 13 -21 16 l-22 7 -111 96 c-61 52 -123 106 -137 119 l-27 25 -5 -9z"/>
<path d="M83940 39986 c0 -7 206 -340 235 -380 l14 -18 14 13 c8 8 71 50 140
94 70 44 127 83 127 87 0 7 -177 -102 -253 -155 -16 -10 -30 -18 -32 -16 -1 2
-53 85 -115 184 -62 99 -116 184 -121 190 l-9 9 0 -8z"/>
<path d="M84815 39969 c5 -8 50 -75 100 -149 51 -74 167 -260 260 -412 93
-153 172 -278 176 -278 20 0 -501 826 -533 846 l-11 7 8 -14z"/>
<path d="M84780 39956 c0 -4 39 -65 87 -134 47 -70 165 -257 261 -417 191
-317 180 -300 186 -294 11 10 -472 784 -525 844 l-9 9 0 -8z"/>
<path d="M65700 39625 c0 -3 -13 -71 -29 -152 -16 -82 -32 -183 -35 -225 l-6
-78 9 0 8 0 7 38 c3 20 6 55 6 77 0 22 14 105 30 185 34 167 33 160 20 160 -5
0 -10 -2 -10 -5z"/>
<path d="M84392 39270 c3 -8 47 -80 98 -160 51 -80 90 -138 87 -128 -5 15
-174 287 -185 298 -3 3 -3 -2 0 -10z"/>
<path d="M52892 38815 c5 -5 847 -165 869 -165 45 0 -48 20 -422 90 -410 78
-458 86 -447 75z"/>
<path d="M55346 38701 l-8 -12 58 -65 c31 -36 102 -104 156 -151 l99 -86 11
11 c7 7 10 13 7 15 -41 29 -173 150 -235 215 l-81 86 -7 -13z"/>
<path d="M60290 38450 c0 -5 5 -10 10 -10 l10 0 0 -16 0 -15 -47 -67 c-26 -37
-87 -111 -136 -164 -49 -54 -85 -98 -79 -98 14 0 171 176 230 257 l52 73 0 14
0 15 -20 11 -20 11 0 -11z"/>
<path d="M60222 38356 c-29 -42 -78 -104 -110 -139 -31 -34 -67 -75 -81 -91
l-26 -29 12 4 c16 6 146 152 210 237 l54 73 -3 10 -3 10 -53 -75z"/>
<path d="M87860 38360 c-25 -15 -109 -67 -188 -115 -79 -48 -141 -89 -139 -92
4 -3 359 207 376 223 2 2 2 6 0 8 -2 2 -24 -9 -49 -24z"/>
<path d="M89040 38229 c-91 -60 -167 -115 -169 -121 l-4 -12 29 19 c221 144
314 209 314 216 0 12 18 22 -170 -102z"/>
<path d="M60361 37803 c1 -10 262 -253 292 -272 25 -15 -200 205 -255 250 -21
17 -38 27 -37 22z"/>
<path d="M60410 37699 c141 -133 230 -212 234 -208 5 5 -301 289 -311 289 -4
-1 30 -37 77 -81z"/>
<path d="M85129 37753 c0 -16 -4 -66 -8 -112 l-8 -84 40 -64 c22 -35 42 -62
44 -59 3 2 -12 30 -32 62 l-37 58 7 113 7 113 -6 0 c-3 0 -6 -12 -7 -27z"/>
<path d="M86125 37204 c-159 -107 -294 -196 -300 -198 l-10 -3 6 -6 5 -6 295
196 c326 217 304 202 298 207 -2 2 -134 -84 -294 -190z"/>
<path d="M85440 37056 c0 -13 214 -366 222 -366 7 0 -194 343 -213 365 l-9 9
0 -8z"/>
<path d="M85650 36785 c0 -8 191 -317 218 -352 43 -57 35 -29 -11 38 -24 35
-79 121 -121 192 -71 115 -86 137 -86 122z"/>
<path d="M40055 36500 c-22 -4 -84 -11 -138 -15 l-98 -7 -6 -15 -6 -15 13
-316 c11 -293 14 -333 23 -321 2 2 -3 145 -10 318 l-14 314 5 13 5 14 58 0
c60 0 231 25 241 34 l5 6 -19 -1 c-10 -1 -37 -5 -59 -9z"/>
<path d="M39857 36140 c3 -80 9 -188 13 -240 l8 -95 -5 220 -6 220 -8 20 -8
20 6 -145z"/>
<path d="M86245 35980 c59 -60 79 -75 54 -42 -28 37 -94 102 -103 102 l-10 0
59 -60z"/>
<path d="M41006 36003 c2 -16 16 -106 29 -202 14 -96 28 -177 32 -180 l6 -6
-6 35 c-3 19 -15 113 -28 208 l-23 172 -8 0 -7 0 5 -27z"/>
<path d="M53590 35903 c-14 -3 -29 -9 -35 -15 l-10 -10 40 7 c22 4 44 11 50
16 l9 9 -14 -1 c-8 -1 -26 -4 -40 -6z"/>
<path d="M84917 35603 c-22 -6 -1245 -789 -1267 -811 l-15 -15 35 20 c19 11
306 194 636 406 l602 387 26 0 26 0 20 -20 c11 -11 33 -45 49 -77 17 -32 44
-78 60 -103 l31 -45 0 17 c0 9 -4 20 -10 23 -5 3 -33 49 -61 101 l-51 94 -21
15 c-22 15 -28 16 -60 8z"/>
<path d="M40419 35407 l-10 -22 10 -25 10 -25 -1 36 c-1 20 2 41 6 47 4 7 5
12 1 12 -3 0 -10 -10 -16 -23z"/>
<path d="M79410 35252 c0 -10 22 -76 93 -277 19 -55 40 -120 46 -145 l10 -45
-5 55 -5 55 -66 180 c-64 177 -73 199 -73 177z"/>
<path d="M85380 34948 c0 -14 180 -298 227 -357 2 -2 5 -2 8 1 3 3 -8 22 -24
42 -17 21 -65 95 -107 164 -72 118 -104 165 -104 150z"/>
<path d="M80298 34828 c21 -40 76 -142 122 -226 45 -84 84 -151 87 -149 6 7
-230 446 -240 447 l-9 0 40 -72z"/>
<path d="M59650 34584 c0 -5 4 -14 9 -19 5 -6 41 -100 82 -209 l73 -199 4 12
4 11 -72 192 -71 193 -15 15 -14 14 0 -10z"/>
<path d="M62570 34531 l0 -11 23 -9 c12 -4 41 -11 65 -15 l42 -6 0 14 0 15
-17 5 c-10 3 -39 8 -65 12 l-48 6 0 -11z"/>
<path d="M77628 34454 l-168 -84 0 -9 0 -9 168 86 167 86 50 7 50 6 -50 1 -50
1 -167 -85z"/>
<path d="M35728 34152 c-1 -5 -71 -70 -154 -146 l-151 -137 -168 -114 c-92
-63 -170 -115 -175 -115 -4 0 -47 73 -96 163 -96 178 -92 172 -98 166 -3 -2
36 -78 85 -168 l90 -164 -5 -13 -5 -14 19 0 20 0 0 8 c0 5 80 63 178 130 l177
121 140 129 c77 71 146 136 154 145 l13 17 -10 0 c-6 0 -12 -4 -14 -8z"/>
<path d="M87296 34029 c-60 -37 -138 -87 -174 -109 -35 -23 -62 -43 -59 -46 4
-5 337 195 362 217 l9 9 -14 -1 c-8 0 -64 -32 -124 -70z"/>
<path d="M41800 33995 c0 -9 311 -908 317 -914 1 -2 5 -2 7 0 4 4 -309 908
-318 917 l-6 5 0 -8z"/>
<path d="M34711 33939 l-84 -29 -22 -20 c-12 -11 -31 -38 -44 -60 l-22 -40 10
0 10 0 6 21 c4 11 20 35 36 54 l30 34 82 27 82 28 30 -2 30 -2 -15 10 c-22 14
-35 12 -129 -21z"/>
<path d="M35053 33558 c8 -13 54 -96 102 -186 48 -90 89 -161 92 -159 6 7
-190 367 -199 367 l-8 0 13 -22z"/>
<path d="M83934 33287 c-183 -116 -525 -343 -563 -374 -2 -1 -1 -6 2 -10 l7
-6 208 139 c114 77 293 194 397 259 105 65 194 122 198 126 l9 7 -9 5 -8 5
-241 -151z"/>
<path d="M1620 33014 c8 -3 100 -10 203 -17 l189 -13 3 7 4 6 -177 11 c-97 7
-190 12 -207 11 l-30 -1 15 -4z"/>
<path d="M79406 32691 l-6 -8 93 -36 c50 -19 138 -53 195 -75 l103 -41 -3 11
-4 11 -90 39 c-49 22 -133 54 -186 73 l-97 34 -5 -8z"/>
<path d="M73104 32580 l23 -50 26 -20 25 -20 39 1 c21 0 58 4 83 9 l45 9 -62
-5 -63 -5 -35 17 -36 17 -25 48 -24 49 -10 0 -9 0 23 -50z"/>
<path d="M34300 32508 c0 -7 9 -26 20 -43 l20 -30 0 13 c0 15 -28 72 -35 72
-3 0 -5 -6 -5 -12z"/>
<path d="M73128 32042 l-188 -25 0 -14 0 -14 33 6 c31 5 405 55 413 55 2 0 4
5 4 10 l0 10 -37 -1 c-21 -1 -122 -13 -225 -27z"/>
<path d="M98809 31735 l-26 -14 -6 -23 -6 -22 6 -6 6 -5 5 14 c2 7 13 22 23
32 l19 19 28 0 27 0 -15 10 c-20 13 -30 12 -61 -5z"/>
<path d="M79867 30480 c9 -16 21 -30 26 -30 l8 0 -18 30 c-9 17 -21 30 -26 30
l-8 0 18 -30z"/>
<path d="M75191 29654 c-141 -136 -165 -164 -142 -164 5 0 77 67 162 148 l153
148 -11 7 -12 7 -150 -146z"/>
<path d="M84007 29023 l-7 -6 63 -66 c34 -36 102 -103 150 -148 l88 -83 11 6
10 7 -148 148 c-82 82 -151 149 -155 149 -3 0 -9 -3 -12 -7z"/>
<path d="M22036 27709 c-3 -13 -31 -195 -61 -404 -31 -209 -58 -390 -60 -402
l-5 -23 7 0 8 0 63 421 c34 232 60 424 58 427 -3 2 -7 -6 -10 -19z"/>
<path d="M95310 26779 c-96 -71 -177 -134 -179 -140 -3 -9 325 226 359 257
l14 14 -9 -1 c-6 0 -89 -58 -185 -130z"/>
<path d="M23940 26452 c0 -15 34 -39 70 -50 19 -6 134 -23 255 -37 l220 -26
42 -15 43 -16 12 -39 11 -40 -58 -177 -58 -177 -28 -57 -29 -57 11 -6 c6 -4
12 -5 13 -4 19 21 66 140 111 280 l55 171 0 34 0 33 -12 25 -11 26 -25 16 -25
17 -256 32 -256 33 -27 10 c-14 6 -29 16 -33 21 -7 13 -25 15 -25 3z"/>
<path d="M10896 25489 c-13 -38 -97 -451 -94 -460 2 -7 27 96 55 227 29 131
50 240 48 243 -3 2 -7 -2 -9 -10z"/>
<path d="M4500 25015 l0 -36 -14 -27 c-18 -34 -66 -79 -188 -177 l-98 -77 6
-9 5 -9 72 55 c40 31 102 81 138 113 l67 57 16 33 16 33 0 39 0 40 -10 0 -10
0 0 -35z"/>
<path d="M90495 24839 c100 -11 338 -46 373 -55 l22 -6 0 9 0 9 -147 23 -148
23 -95 3 -95 4 90 -10z"/>
<path d="M22816 21538 c-19 -40 -87 -183 -151 -318 l-118 -245 -22 -107 -22
-108 12 0 13 0 17 93 17 92 154 327 c85 180 154 329 154 333 0 3 -5 5 -11 5
l-10 0 -33 -72z"/>
<path d="M92930 16991 c0 -9 646 -584 664 -590 19 -6 -39 47 -356 328 -170
149 -308 267 -308 262z"/>
<path d="M92901 16963 c2 -7 144 -134 314 -283 171 -150 321 -282 334 -293
l24 -22 -4 12 c-2 7 -128 121 -279 254 -385 338 -394 345 -389 332z"/>
<path d="M15880 16476 l12 -15 -4 -23 -3 -23 -22 -10 c-28 -12 -30 -25 -5 -25
l19 0 16 18 17 19 0 24 0 25 -12 12 c-7 7 -16 12 -21 12 l-9 0 12 -14z"/>
<path d="M15595 16380 c3 -5 11 -10 16 -10 l10 0 -6 10 c-3 6 -11 10 -16 10
l-10 0 6 -10z"/>
<path d="M24720 14561 l0 -8 183 -22 c100 -11 193 -21 206 -21 57 0 4 9 -169
29 -102 12 -193 24 -202 26 l-18 3 0 -7z"/>
<path d="M96030 13052 c0 -5 77 -73 171 -151 l170 -142 11 3 12 4 -176 147
c-97 81 -178 147 -182 147 -3 0 -6 -4 -6 -8z"/>
<path d="M25509 12776 c-2 -2 -85 -14 -184 -25 -98 -12 -181 -24 -184 -26 -8
-9 41 -5 207 15 l162 19 18 10 17 10 -16 1 c-9 0 -18 -2 -20 -4z"/>
<path d="M96313 12703 l7 -6 7 6 6 7 -13 0 -13 0 6 -7z"/>
<path d="M97081 12064 c5 -12 212 -202 296 -272 l63 -52 0 9 c0 9 -319 297
-349 315 l-14 9 4 -9z"/>
<path d="M26105 4059 c-121 -4 -250 -7 -287 -8 l-68 -1 0 -10 0 -10 293 7 292
6 90 -12 c115 -16 651 -71 688 -71 l27 0 0 8 0 8 -237 23 c-131 13 -314 33
-408 45 l-170 21 -220 -6z"/>
<path d="M26570 3972 l0 -10 43 -6 c23 -3 230 -24 460 -47 l418 -41 6 6 c4 3
4 8 2 10 -2 2 -193 22 -424 45 -231 23 -439 44 -462 47 l-43 6 0 -10z"/>
<path d="M31883 3443 c-52 -26 -41 -45 12 -21 l25 11 6 -6 6 -6 -56 -102 -56
-103 8 -8 8 -8 57 103 57 103 0 27 0 27 -17 -1 c-10 0 -33 -8 -50 -16z"/>
<path d="M23015 2281 c3 -5 79 -68 170 -140 l164 -130 6 8 5 9 -165 131 c-91
72 -170 131 -176 131 l-10 0 6 -9z"/>
<path d="M22984 2232 c7 -11 313 -252 320 -252 21 0 -12 31 -149 138 -85 67
-160 122 -166 122 l-10 0 5 -8z"/>
<path d="M12677 1848 c-9 -73 -19 -162 -21 -198 l-5 -65 9 20 c5 11 9 41 9 67
1 43 25 232 36 286 l5 22 -8 0 -8 0 -17 -132z"/>
<path d="M17220 1228 l0 -15 113 -11 c61 -6 175 -14 252 -17 154 -6 410 -22
493 -30 l52 -5 0 13 0 14 -80 6 c-44 4 -183 11 -308 17 -225 10 -441 27 -494
37 l-28 6 0 -15z"/>
<path d="M17670 1140 l0 -10 13 0 c96 -1 754 -51 860 -65 l37 -5 0 15 0 15
-14 0 c-8 0 -112 9 -232 20 -250 22 -522 40 -606 40 l-58 0 0 -10z"/>
<path d="M29441 598 c-83 -95 -151 -176 -151 -180 0 -4 4 -8 9 -8 7 0 237 255
294 326 l17 23 -9 5 -9 6 -151 -172z"/>
</g>
</svg>
