<?xml version="1.0" standalone="no"?>
<!DOCTYPE svg PUBLIC "-//W3C//DTD SVG 20010904//EN"
 "http://www.w3.org/TR/2001/REC-SVG-20010904/DTD/svg10.dtd">
<svg version="1.0" xmlns="http://www.w3.org/2000/svg"
 width="7500.000000pt" height="7500.000000pt" viewBox="0 0 7500.000000 7500.000000"
 preserveAspectRatio="xMidYMid meet">
<metadata>
Created by potrace 1.16, written by Peter Selinger 2001-2019
</metadata>
<g transform="translate(0.000000,7500.000000) scale(0.075000,-0.075000)"
fill="#000000" stroke="none">
<path d="M23744 99991 c6 -10 91 -61 100 -61 3 0 6 3 6 8 0 9 -84 62 -99 62
l-12 0 5 -9z"/>
<path d="M83415 99018 c130 -77 283 -153 292 -144 5 4 -26 19 -92 46 -11 4
-82 44 -159 89 -76 44 -143 81 -150 81 -6 0 43 -32 109 -72z"/>
<path d="M84333 98843 l-173 -3 0 -10 0 -10 53 0 c28 0 116 3 195 7 l142 6 0
9 0 8 -22 -2 c-13 -1 -101 -4 -195 -5z"/>
<path d="M84489 98806 c-2 -3 -77 -6 -167 -8 l-162 -3 0 -8 0 -9 187 8 188 7
25 8 25 7 -46 1 c-25 1 -48 -1 -50 -3z"/>
<path d="M21535 92982 c11 -10 343 -122 360 -121 9 0 -284 105 -345 124 l-25
7 10 -10z"/>
<path d="M20973 92884 c3 -3 63 -21 134 -39 70 -17 168 -44 216 -59 49 -15 91
-26 93 -23 9 8 -403 127 -442 127 l-7 0 6 -6z"/>
<path d="M86815 92733 c16 -17 226 -153 236 -153 12 0 68 62 69 74 l0 10 -33
-32 c-18 -18 -36 -32 -40 -32 -3 0 -52 30 -109 66 -56 36 -109 68 -117 71
l-16 6 10 -10z"/>
<path d="M22390 92722 l0 -8 178 -43 c97 -24 288 -77 424 -118 137 -40 253
-73 260 -73 l12 0 -9 9 c-19 18 -808 241 -853 241 -7 0 -12 -4 -12 -8z"/>
<path d="M25233 91674 c7 -7 404 -114 425 -114 l15 0 -5 5 c-7 7 -412 115
-430 115 l-11 0 6 -6z"/>
<path d="M335 89622 c-17 -9 -97 -42 -180 -73 l-150 -57 -3 -16 -3 -16 68 26
c126 47 268 104 290 117 l22 12 -7 12 -7 11 -30 -16z"/>
<path d="M86330 88940 c25 -4 97 -11 160 -14 l115 -7 85 10 85 9 -140 -1 c-77
-1 -187 1 -245 5 l-105 7 45 -9z"/>
<path d="M84663 88842 c-117 -25 -213 -49 -213 -52 l0 -7 213 46 c116 24 214
46 216 48 16 12 -29 5 -216 -35z"/>
<path d="M84675 88805 c-365 -80 -389 -84 -494 -95 -97 -9 -121 -14 -110 -24
2 -2 58 2 124 9 l120 13 105 25 c58 14 184 42 280 63 96 20 179 41 185 45 l9
9 -9 -1 c-6 0 -100 -20 -210 -44z"/>
<path d="M85067 88498 c-62 -112 -158 -310 -155 -319 2 -5 47 79 101 186 97
194 120 251 54 133z"/>
<path d="M89140 88371 c0 -6 184 -64 245 -77 l30 -7 68 -60 c37 -32 70 -57 73
-55 2 3 -26 33 -64 66 l-68 61 -65 15 c-35 8 -99 26 -141 40 -43 13 -78 21
-78 17z"/>
<path d="M79830 88141 l0 -9 43 -16 c23 -9 117 -42 210 -74 l167 -59 0 12 0
12 -203 72 c-112 39 -207 71 -210 71 -4 0 -7 -4 -7 -9z"/>
<path d="M80670 87843 c0 -10 411 -155 418 -148 11 11 -18 24 -203 89 -189 66
-215 73 -215 59z"/>
<path d="M84477 87348 c-55 -100 -109 -212 -177 -368 -35 -80 -66 -149 -70
-153 l-7 -8 -74 21 c-40 11 -78 20 -83 20 -24 0 8 -12 86 -34 l85 -23 73 166
c74 167 184 395 203 419 5 7 7 15 5 18 -3 3 -21 -23 -41 -58z"/>
<path d="M84447 87193 l-98 -193 8 0 c10 0 200 377 193 383 -3 2 -49 -84 -103
-190z"/>
<path d="M83681 86916 c2 -2 65 -21 139 -41 74 -20 156 -43 183 -50 l47 -14 0
7 0 7 -177 48 c-167 45 -202 53 -192 43z"/>
<path d="M96896 85848 c15 -24 40 -62 55 -85 16 -23 29 -45 29 -50 -1 -4 -37
-30 -80 -58 -44 -27 -80 -54 -80 -58 l0 -8 13 7 c53 32 167 107 167 111 0 13
-113 183 -121 183 l-9 0 26 -42z"/>
<path d="M61310 85242 l0 -10 58 -6 c31 -4 136 -8 234 -9 l176 -2 8 8 c4 4 5
9 3 11 -2 2 -111 6 -241 10 l-238 7 0 -9z"/>
<path d="M88176 84498 c-8 -35 -29 -111 -45 -170 l-29 -108 8 0 8 0 11 43 c6
23 26 99 45 170 l35 127 -9 0 -8 0 -16 -62z"/>
<path d="M80500 84333 l0 -9 198 -68 c108 -37 206 -70 217 -73 l20 -6 -10 11
c-5 6 -95 40 -200 75 -104 36 -198 68 -207 72 l-18 7 0 -9z"/>
<path d="M30064 83954 c4 -11 39 -111 77 -223 38 -112 71 -207 74 -209 19 -19
6 31 -58 223 l-73 219 -14 4 -13 5 7 -19z"/>
<path d="M84133 83557 c9 -24 205 -305 219 -313 l11 -7 -8 14 c-12 19 -217
313 -223 319 -3 3 -2 -3 1 -13z"/>
<path d="M93039 83122 c-68 -100 -233 -337 -367 -528 -134 -190 -242 -350
-240 -354 3 -7 308 422 621 873 l118 170 -4 10 -3 11 -125 -182z"/>
<path d="M42355 79550 l-30 -8 33 -1 32 -1 0 10 c0 6 -1 9 -2 9 -2 -1 -16 -5
-33 -9z"/>
<path d="M13156 78269 c-5 -12 -84 -300 -114 -411 l-10 -38 7 0 8 0 62 226
c34 125 60 229 57 232 -3 2 -8 -1 -10 -9z"/>
<path d="M28510 77111 l0 -10 53 -10 c28 -6 130 -26 225 -44 l173 -34 -4 11
-4 11 -214 42 c-247 48 -229 46 -229 34z"/>
<path d="M71130 77070 l0 -10 225 0 225 0 0 10 0 10 -225 0 -225 0 0 -10z"/>
<path d="M29510 75272 l0 -8 118 -23 c64 -13 211 -50 325 -83 l209 -60 6 6 c3
3 3 8 1 10 -10 10 -376 111 -496 137 -142 31 -163 34 -163 21z"/>
<path d="M74439 70680 l-5 -75 18 -115 c21 -135 27 -164 33 -158 3 2 -2 42
-11 89 l-16 84 -7 125 -7 125 -5 -75z"/>
<path d="M75384 70701 c3 -4 27 -14 53 -21 27 -7 53 -16 58 -20 6 -4 48 -22
95 -40 47 -19 111 -49 142 -68 l57 -34 11 7 11 7 -68 40 c-94 55 -304 138
-351 138 l-13 0 5 -9z"/>
<path d="M74037 69276 c-119 -29 -221 -56 -225 -61 l-7 -7 20 5 c11 3 110 27
220 52 110 26 207 51 215 56 l15 8 -10 0 c-5 0 -108 -24 -228 -53z"/>
<path d="M92000 67535 c-69 -7 -156 -19 -193 -26 l-68 -12 -6 -10 -6 -10 39 6
c88 14 312 36 357 37 l47 0 10 -22 c6 -13 23 -112 38 -220 26 -180 35 -219 46
-207 4 4 -49 383 -59 427 l-6 23 -34 15 c-19 8 -36 13 -37 13 -2 -1 -59 -7
-128 -14z"/>
<path d="M37344 66815 c-226 -13 -424 -25 -440 -28 l-29 -4 45 -1 c25 -1 209
7 410 18 201 11 384 20 408 20 l42 0 0 10 0 10 -12 -1 c-7 -1 -198 -12 -424
-24z"/>
<path d="M43390 66670 l0 -11 10 6 10 6 21 -12 21 -11 -4 14 -5 13 -26 3 -27
3 0 -11z"/>
<path d="M41547 66193 l-5 -8 159 -103 159 -104 11 4 11 4 -153 99 c-84 55
-158 103 -165 108 l-13 7 -4 -7z"/>
<path d="M49150 65936 c0 -3 77 -59 171 -126 l171 -121 10 3 11 4 -172 122
c-154 109 -191 132 -191 118z"/>
<path d="M49130 65907 l0 -12 103 -72 c56 -39 134 -94 174 -122 l72 -51 4 7 5
8 -179 127 -179 127 0 -12z"/>
<path d="M47110 65641 c0 -10 335 -159 574 -256 99 -41 343 -144 541 -229 197
-86 366 -156 375 -155 l15 1 -15 5 c-8 4 -186 80 -395 171 -209 90 -477 204
-595 252 -118 48 -255 107 -305 130 -49 23 -114 53 -142 66 l-53 23 0 -8z"/>
<path d="M49850 65393 c60 -47 331 -235 335 -231 5 5 -318 236 -342 245 l-18
6 25 -20z"/>
<path d="M77160 65126 l0 -216 10 0 10 0 0 209 0 210 -10 6 -10 6 0 -215z"/>
<path d="M40695 64505 c30 -79 78 -230 90 -280 l15 -60 -6 53 -5 53 -41 117
c-22 64 -45 122 -51 127 l-10 10 8 -20z"/>
<path d="M40660 64115 c-30 -19 -49 -35 -42 -35 12 0 112 59 112 66 0 10 -18
1 -70 -31z"/>
<path d="M52081 63828 l-104 -229 7 -6 6 -7 9 10 c5 5 53 106 106 224 54 118
99 218 101 221 2 4 -2 9 -9 12 l-12 4 -104 -229z"/>
<path d="M89635 63879 c5 -8 48 -59 96 -114 47 -55 105 -127 128 -159 46 -66
57 -65 13 1 -31 46 -218 269 -235 280 l-10 6 8 -14z"/>
<path d="M40820 63763 c0 -13 279 -323 291 -323 5 0 -56 73 -137 163 -81 89
-149 164 -151 166 -1 2 -3 0 -3 -6z"/>
<path d="M41450 63743 l-24 -5 -78 -65 c-43 -36 -78 -67 -78 -69 0 -9 22 7 96
68 l71 58 37 0 38 0 55 -16 c30 -9 57 -14 59 -11 5 5 -79 32 -126 40 -14 3
-36 2 -50 0z"/>
<path d="M93010 63612 c0 -4 73 -80 163 -170 l163 -163 7 8 8 7 -163 163
c-152 152 -178 175 -178 155z"/>
<path d="M41270 63574 c0 -9 233 -273 254 -286 26 -17 24 -6 -3 20 -16 15 -75
79 -131 142 -57 63 -107 119 -111 125 l-9 9 0 -10z"/>
<path d="M89663 63303 l-213 -217 9 -9 9 -9 214 217 c117 119 215 221 216 226
l4 9 -13 0 -13 0 -213 -217z"/>
<path d="M41033 63357 c-34 -29 -62 -56 -62 -60 -1 -10 39 19 99 72 66 59 35
49 -37 -12z"/>
<path d="M41545 63140 c3 -5 11 -10 16 -10 l10 0 -6 10 c-3 6 -11 10 -16 10
l-10 0 6 -10z"/>
<path d="M42250 63044 c0 -10 262 -305 267 -300 5 4 -255 306 -263 306 -2 0
-4 -3 -4 -6z"/>
<path d="M16920 62895 c-85 -7 -159 -14 -164 -14 -5 -1 -7 -3 -4 -6 6 -6 440
24 447 31 7 7 -115 2 -279 -11z"/>
<path d="M58389 62747 c-97 -67 -175 -124 -173 -126 4 -4 285 184 344 229 l25
20 -10 -1 c-5 0 -89 -55 -186 -122z"/>
<path d="M59945 62820 l-4 -7 167 -12 c92 -6 194 -14 227 -18 l60 -6 -7 8 -7
8 -216 16 -216 17 -4 -6z"/>
<path d="M42932 62515 c-122 -105 -230 -200 -240 -210 l-17 -18 15 9 c14 7
410 344 454 385 11 10 18 20 15 22 -2 2 -104 -82 -227 -188z"/>
<path d="M42145 62449 c-229 -196 -245 -213 -245 -238 l1 -16 14 26 14 26 221
188 c121 103 220 191 220 196 0 5 -1 9 -2 8 -2 0 -102 -86 -223 -190z"/>
<path d="M91320 62435 c90 -90 166 -162 169 -159 7 6 -311 324 -324 324 -5 0
64 -74 155 -165z"/>
<path d="M58220 62582 c0 -4 60 -31 133 -61 72 -30 356 -153 631 -273 274
-120 502 -218 507 -216 9 3 -895 402 -1138 502 -73 30 -133 52 -133 48z"/>
<path d="M11903 62321 l-161 -6 -7 -7 -7 -7 203 6 204 6 20 8 20 8 -55 -2
c-30 0 -128 -3 -217 -6z"/>
<path d="M56760 62145 c0 -8 91 -49 355 -160 121 -51 328 -141 460 -198 203
-90 267 -114 244 -93 -7 6 -445 196 -719 311 -140 59 -271 115 -292 126 -39
20 -48 22 -48 14z"/>
<path d="M94260 61952 c-25 -31 -85 -101 -134 -155 -49 -54 -86 -100 -83 -103
9 -10 185 181 269 293 l9 11 -8 5 -8 5 -45 -56z"/>
<path d="M57320 61862 c0 -10 470 -214 482 -210 l10 4 -64 26 c-34 15 -145 62
-245 107 -101 44 -183 77 -183 73z"/>
<path d="M56277 61627 l-19 -32 26 24 25 24 -5 8 c-7 12 -7 13 -27 -24z"/>
<path d="M48229 60553 c24 -43 73 -85 361 -309 168 -130 323 -251 344 -268
l39 -30 -4 11 c-2 7 -159 133 -349 281 l-345 270 -20 31 c-11 17 -24 31 -28
31 l-8 0 10 -17z"/>
<path d="M62595 60360 c-71 -15 -156 -33 -188 -40 -32 -6 -56 -14 -54 -17 7
-6 380 68 392 78 l9 9 -14 -1 c-8 0 -73 -13 -145 -29z"/>
<path d="M58636 60229 c-60 -14 -57 -20 5 -13 l54 6 128 -259 c70 -142 127
-261 127 -265 0 -12 62 -140 66 -136 7 8 -163 383 -243 536 l-75 142 -11 -1
c-7 -1 -30 -5 -51 -10z"/>
<path d="M61215 60079 c-225 -48 -228 -49 -223 -55 5 -4 418 80 443 90 35 15
-66 -1 -220 -35z"/>
<path d="M83346 59918 c29 -59 218 -358 226 -358 4 0 -35 68 -87 150 -53 83
-105 171 -117 195 -12 25 -26 45 -30 45 l-9 0 17 -32z"/>
<path d="M58810 59913 c0 -6 30 -75 66 -154 36 -79 73 -159 81 -178 8 -18 16
-31 19 -28 4 4 -151 355 -162 366 -2 2 -4 0 -4 -6z"/>
<path d="M61954 59770 c3 -14 22 -101 42 -195 33 -158 44 -198 44 -165 0 30
-74 366 -82 375 l-9 10 5 -25z"/>
<path d="M91387 59568 c19 -33 253 -336 267 -347 32 -27 14 1 -88 133 -57 74
-119 156 -137 181 -18 25 -36 45 -41 45 l-9 0 8 -12z"/>
<path d="M59857 59365 c-114 -23 -210 -45 -214 -49 l-6 -6 9 0 c5 1 115 23
244 49 l235 49 -30 0 c-16 0 -123 -19 -238 -43z"/>
<path d="M61632 59300 c-1 -14 13 -103 31 -198 l33 -173 5 6 6 5 -33 178 c-19
97 -35 184 -38 192 l-4 15 0 -25z"/>
<path d="M61584 59280 c4 -14 38 -182 76 -374 61 -303 80 -388 80 -350 0 5
-32 171 -71 369 l-72 360 -9 10 -9 10 5 -25z"/>
<path d="M83831 59174 c2 -6 90 -175 195 -375 l192 -364 13 -42 c6 -24 16 -43
20 -43 l8 0 -18 53 c-19 54 -384 754 -403 772 l-10 10 3 -11z"/>
<path d="M83804 59145 c4 -11 88 -175 188 -364 99 -189 188 -367 198 -395 l19
-51 0 16 c2 34 -31 103 -214 449 -177 336 -208 392 -191 345z"/>
<path d="M57790 59049 l184 -71 56 -9 55 -9 255 51 c269 53 294 59 288 65 -2
2 -125 -20 -273 -50 l-268 -52 -66 12 -66 11 -160 62 c-88 33 -167 61 -175 61
-8 -1 68 -33 170 -71z"/>
<path d="M62163 59010 c8 -37 58 -301 62 -330 2 -14 4 -27 4 -29 1 -2 7 1 14
6 l12 10 414 84 414 84 -16 3 c-9 2 -197 -34 -417 -79 l-400 -82 -6 6 c-4 3
-21 80 -38 171 -18 91 -36 169 -41 173 l-8 8 6 -25z"/>
<path d="M61995 58585 c-237 -49 -674 -157 -659 -162 6 -2 119 23 250 56 132
33 322 76 424 96 102 19 194 40 205 45 l20 9 -20 -1 c-11 0 -110 -20 -220 -43z"/>
<path d="M50710 58593 l0 -8 153 -42 c83 -23 161 -45 172 -49 l20 -7 -12 13
-13 14 -137 37 c-76 21 -148 41 -160 44 l-23 5 0 -7z"/>
<path d="M63940 58480 c0 -15 106 -542 151 -750 16 -74 70 -333 120 -575 94
-457 97 -471 104 -464 4 4 -125 647 -226 1124 -28 132 -71 337 -95 455 -41
195 -54 247 -54 210z"/>
<path d="M63900 58473 c0 -5 27 -137 61 -294 33 -156 94 -455 135 -663 66
-336 84 -418 84 -378 0 24 -144 748 -206 1036 -57 265 -74 334 -74 299z"/>
<path d="M60658 58276 c-108 -22 -200 -45 -205 -50 l-8 -8 20 5 c11 3 101 22
200 42 99 20 189 40 200 45 l20 9 -15 -1 c-8 0 -104 -19 -212 -42z"/>
<path d="M49461 58257 c2 -2 78 -32 169 -67 91 -34 195 -78 232 -96 37 -19 71
-34 75 -34 5 1 -26 18 -67 39 -104 53 -439 182 -409 158z"/>
<path d="M91816 58140 c21 -21 339 -238 343 -234 2 2 2 6 0 7 -23 20 -340 237
-346 237 l-7 0 10 -10z"/>
<path d="M91790 58114 c1 -11 340 -247 346 -241 3 3 -68 55 -158 117 -90 62
-169 117 -175 123 l-13 9 0 -8z"/>
<path d="M63021 58010 c-161 -35 -219 -50 -184 -50 18 0 397 81 402 85 10 10
-41 2 -218 -35z"/>
<path d="M62809 57926 c-2 -2 -203 -46 -446 -97 -243 -51 -440 -95 -438 -97 3
-3 207 37 455 89 l450 94 0 8 c0 7 -14 10 -21 3z"/>
<path d="M50442 57855 c5 -5 72 -24 432 -125 l69 -19 -9 8 c-8 7 -473 141
-491 141 -3 0 -4 -2 -1 -5z"/>
<path d="M55466 57744 c-98 -13 -184 -25 -190 -28 l-11 -4 19 -1 c28 -1 419
49 425 54 8 9 -64 3 -243 -21z"/>
<path d="M50929 57533 c-56 -127 -104 -218 -132 -250 l-28 -31 10 -6 9 -6 31
35 c35 41 52 71 115 213 l45 102 -10 6 -10 6 -30 -69z"/>
<path d="M80371 57474 c-116 -67 -201 -124 -185 -124 5 0 25 11 44 23 19 13
83 52 143 86 l107 62 25 -28 c31 -36 32 -27 2 15 l-24 31 -112 -65z"/>
<path d="M48080 57010 l0 -10 19 0 19 0 186 -89 c102 -50 186 -88 186 -85 0 7
-387 194 -400 194 -6 0 -10 -4 -10 -10z"/>
<path d="M46550 56889 c0 -22 62 -444 66 -448 3 -3 9 0 15 6 l11 11 -22 143
c-21 140 -52 285 -64 297 l-6 5 0 -14z"/>
<path d="M64274 56660 c3 -14 25 -117 48 -230 l43 -205 3 17 c4 21 -77 408
-90 428 l-9 15 5 -25z"/>
<path d="M82268 56386 c-241 -61 -438 -114 -438 -117 0 -9 872 210 885 222 l9
9 -9 -1 c-6 -1 -207 -52 -447 -113z"/>
<path d="M90620 56490 l0 -8 123 -52 c67 -29 150 -68 185 -87 l62 -35 0 9 c0
10 -154 89 -277 142 l-93 40 0 -9z"/>
<path d="M64430 56242 l35 -17 3 -33 3 -34 -17 -19 -17 -19 -32 0 -31 0 -10
10 -10 10 -262 -52 c-144 -29 -262 -55 -262 -59 0 -3 116 17 259 46 l258 52
19 -14 19 -14 30 7 30 6 23 21 23 22 -6 35 -6 35 -21 18 -20 17 -22 0 -21 0
35 -18z"/>
<path d="M76533 56149 c8 -19 47 -107 87 -196 l72 -163 9 0 c16 0 11 13 -73
200 l-83 183 -13 5 -13 4 14 -33z"/>
<path d="M37145 56136 c-187 -71 -255 -99 -251 -103 2 -3 67 19 143 48 76 28
161 57 188 64 l50 13 -35 0 -35 1 -60 -23z"/>
<path d="M81356 56145 c-16 -9 -85 -68 -154 -132 l-124 -117 11 -4 12 -4 120
117 120 117 35 14 c19 8 34 16 34 19 0 10 -25 5 -54 -10z"/>
<path d="M25510 55923 c0 -10 360 -236 366 -230 3 2 -8 13 -23 23 -68 44 -306
195 -324 204 l-19 11 0 -8z"/>
<path d="M63017 55900 c3 -11 9 -20 13 -20 l8 0 -5 20 c-3 11 -9 20 -13 20
l-8 0 5 -20z"/>
<path d="M36430 55814 c-47 -19 -114 -42 -150 -50 l-65 -16 -32 6 -33 5 0 -10
0 -9 48 0 c26 0 67 5 92 11 48 10 218 77 235 91 l9 8 -9 0 c-6 -1 -48 -17 -95
-36z"/>
<path d="M25991 55656 c2 -2 94 -68 204 -148 170 -122 255 -181 323 -222 l12
-7 0 8 c0 4 -24 22 -53 40 -29 17 -146 99 -261 182 -115 83 -214 151 -219 151
-6 0 -8 -2 -6 -4z"/>
<path d="M61870 55542 c0 -32 104 -631 138 -802 96 -468 116 -562 120 -551 2
6 -17 111 -41 234 -63 306 -132 673 -173 917 -31 180 -44 241 -44 202z"/>
<path d="M85033 55530 c76 -299 131 -507 138 -514 4 -5 -23 111 -61 259 -38
147 -72 270 -76 274 l-7 6 6 -25z"/>
<path d="M25694 55242 c10 -16 566 -415 572 -410 3 4 -519 385 -564 412 l-15
9 7 -11z"/>
<path d="M48377 55090 c43 -82 81 -150 85 -150 4 0 -28 67 -70 150 -42 82 -81
150 -85 150 l-8 0 78 -150z"/>
<path d="M26480 55190 l0 -13 7 6 6 7 -6 7 -7 6 0 -13z"/>
<path d="M53280 54941 c0 -6 5 -21 12 -35 l11 -26 -58 -87 c-168 -251 -518
-789 -522 -803 -3 -8 131 188 297 437 l303 452 -13 31 c-7 17 -17 33 -21 36
l-9 5 0 -10z"/>
<path d="M52815 54313 c-71 -109 -136 -209 -144 -223 l-16 -24 11 7 c16 9 288
427 282 433 -3 2 -63 -85 -133 -193z"/>
<path d="M53615 54304 c-58 -86 -104 -158 -101 -161 2 -3 33 37 67 89 35 51
84 123 111 161 l48 67 -9 0 c-5 0 -57 -70 -116 -156z"/>
<path d="M73080 54314 l-155 -137 -4 -16 -3 -16 18 16 c117 100 310 274 312
280 10 25 -28 -4 -168 -127z"/>
<path d="M87986 54348 l-16 -22 0 -37 c0 -21 3 -44 6 -53 l6 -16 8 5 8 5 -5
44 -5 44 20 20 20 20 -5 6 c-11 11 -22 6 -37 -16z"/>
<path d="M49125 54244 c-214 -108 -279 -144 -272 -150 5 -5 330 155 437 215
l55 31 -15 -1 c-8 0 -100 -43 -205 -95z"/>
<path d="M84658 54261 c-170 -75 -268 -126 -268 -137 0 -3 28 10 63 29 34 19
132 65 217 102 134 59 186 85 170 85 -3 0 -85 -36 -182 -79z"/>
<path d="M22649 54038 c-78 -84 -199 -210 -268 -280 l-124 -127 -64 -17 -63
-17 0 -8 0 -7 68 20 67 20 63 61 c111 108 484 507 474 507 -5 0 -74 -69 -153
-152z"/>
<path d="M50835 53830 c3 -5 8 -10 11 -10 3 0 2 5 -1 10 -3 6 -8 10 -11 10 -3
0 -2 -4 1 -10z"/>
<path d="M7628 53802 l-178 -16 0 -8 0 -8 66 0 c67 0 282 16 342 26 l32 5 0 9
0 10 -42 -2 c-24 0 -123 -8 -220 -16z"/>
<path d="M52330 53588 c0 -3 27 -64 59 -136 33 -73 63 -141 66 -153 l7 -20
-17 -19 -16 -18 -90 -7 -89 -7 0 -7 0 -7 68 7 c37 5 77 8 90 8 l23 1 24 24 24
24 -68 151 c-62 137 -81 175 -81 159z"/>
<path d="M29563 53492 c-112 -36 -203 -69 -203 -73 0 -8 401 120 415 132 l9 9
-9 -1 c-6 -1 -101 -31 -212 -67z"/>
<path d="M49413 53254 c-367 -186 -481 -249 -469 -261 2 -3 24 8 48 25 24 16
223 120 443 230 l400 201 -17 1 -17 0 -388 -196z"/>
<path d="M54695 53229 l-20 -9 38 5 38 6 127 -83 c70 -46 158 -104 196 -130
l70 -48 15 0 16 0 -85 55 c-47 31 -139 91 -206 135 l-121 80 -24 -1 c-13 0
-33 -5 -44 -10z"/>
<path d="M52129 53213 l-14 -16 23 12 c23 12 28 21 13 21 -5 0 -15 -7 -22 -17z"/>
<path d="M51843 53002 c-139 -75 -251 -138 -249 -140 5 -4 450 234 487 260 13
9 22 17 19 17 -3 -1 -118 -62 -257 -137z"/>
<path d="M77966 52872 c-6 -10 54 -258 89 -364 l29 -88 8 0 c14 0 9 23 -22
116 -17 49 -44 146 -61 217 -17 70 -32 127 -34 127 -2 0 -6 -3 -9 -8z"/>
<path d="M65060 52747 c-204 -40 -217 -44 -209 -51 5 -5 451 82 458 89 10 11
-52 1 -249 -38z"/>
<path d="M77320 52672 c-107 -41 -197 -77 -199 -79 -2 -1 -1 -6 2 -10 l7 -6
187 72 c104 40 194 76 202 81 l14 7 -9 5 -9 6 -195 -76z"/>
<path d="M52745 52693 c3 -12 47 -105 96 -205 49 -101 87 -173 84 -161 -3 12
-47 105 -96 205 -49 101 -87 173 -84 161z"/>
<path d="M22520 52330 l-42 -100 -39 -153 c-21 -83 -38 -163 -38 -177 l0 -25
14 -25 14 -25 1 13 c0 7 -4 22 -10 32 l-10 19 39 163 40 163 41 95 41 95 16
13 17 12 -20 0 -21 0 -43 -100z"/>
<path d="M27045 52113 l0 -233 8 0 7 0 -1 173 c-1 94 -4 199 -8 232 l-7 60 1
-232z"/>
<path d="M26995 52303 l8 -28 -2 -197 -2 -198 11 0 10 0 0 188 c0 103 -3 204
-6 225 l-7 37 -9 0 -10 0 7 -27z"/>
<path d="M35650 51874 c0 -10 14 -113 32 -229 l33 -210 3 18 c4 17 -57 429
-64 436 -2 2 -4 -4 -4 -15z"/>
<path d="M22410 51800 l0 -13 7 6 6 7 -6 7 -7 6 0 -13z"/>
<path d="M22380 51640 l0 -13 7 6 6 7 -6 7 -7 6 0 -13z"/>
<path d="M26806 50544 c-3 -9 -6 -43 -6 -76 l0 -61 -17 -54 -17 -53 -23 -15
c-13 -9 -49 -22 -81 -30 l-57 -15 53 5 53 4 33 20 32 20 16 48 16 48 6 88 c5
87 4 101 -8 71z"/>
<path d="M35891 50445 c-3 -22 73 -485 79 -485 l6 0 -37 234 c-20 128 -39 240
-42 247 l-5 14 -1 -10z"/>
<path d="M33848 49980 l-148 -7 -7 -6 c-3 -4 -4 -9 -2 -11 2 -2 81 0 174 5 94
4 198 8 233 8 l62 1 0 10 0 10 -82 -2 c-46 -1 -149 -4 -230 -8z"/>
<path d="M33670 49879 c0 -17 38 -321 46 -368 3 -18 7 -31 10 -28 6 5 -43 398
-51 405 -3 3 -5 -1 -5 -9z"/>
<path d="M35993 49745 c3 -11 11 -40 18 -65 7 -25 17 -49 22 -55 l9 -10 -5 20
c-3 11 -11 40 -18 65 -7 25 -17 50 -22 55 l-9 10 5 -20z"/>
<path d="M33793 48990 c4 -19 15 -105 27 -190 11 -85 22 -165 25 -176 l5 -22
-138 -7 c-75 -4 -171 -10 -212 -15 l-75 -7 45 -2 c25 0 119 4 210 10 l165 10
3 -10 3 -10 14 12 13 12 -10 6 -10 6 -27 202 -28 201 -8 8 -8 7 6 -35z"/>
<path d="M76400 48909 c-47 -9 -145 -23 -217 -30 -122 -12 -165 -21 -153 -32
7 -6 310 29 385 44 56 11 85 24 74 32 -2 2 -42 -4 -89 -14z"/>
<path d="M91439 48708 c-68 -78 -153 -178 -188 -223 -35 -44 -124 -141 -198
-216 -73 -75 -133 -141 -133 -145 0 -5 54 45 121 111 l121 120 81 100 c73 91
242 288 305 357 14 15 23 30 20 33 -2 3 -61 -59 -129 -137z"/>
<path d="M31764 48640 c3 -58 8 -166 11 -240 6 -135 13 -205 20 -198 2 2 -2
122 -10 267 l-14 263 -7 7 -7 6 7 -105z"/>
<path d="M33905 48565 c-225 -13 -426 -25 -445 -27 l-35 -5 45 -1 c67 -2 952
46 958 53 8 8 -74 5 -523 -20z"/>
<path d="M91057 48329 c-98 -104 -174 -189 -170 -189 11 0 329 334 343 360 6
11 9 20 8 19 -2 0 -83 -85 -181 -190z"/>
<path d="M30772 48179 c-85 -4 -156 -10 -160 -13 l-6 -7 179 7 180 7 20 8 20
8 -40 -1 c-22 -1 -109 -4 -193 -9z"/>
<path d="M74830 47606 c0 -20 11 -46 19 -46 l8 0 -5 30 -4 30 -9 0 -9 0 0 -14z"/>
<path d="M22380 47561 c8 -4 51 -14 95 -20 44 -7 145 -28 225 -46 79 -19 146
-32 148 -30 6 6 -5 9 -134 39 -112 26 -319 66 -338 66 l-11 -1 15 -8z"/>
<path d="M37832 47409 l-173 -7 -7 -7 -7 -6 185 7 c102 3 232 10 290 14 l105
7 -110 0 c-60 0 -188 -3 -283 -8z"/>
<path d="M36848 47361 l-126 -6 -7 -7 -7 -7 163 6 164 6 15 8 15 8 -45 -1
c-25 -1 -102 -4 -172 -7z"/>
<path d="M29090 46787 c-181 -8 -210 -11 -199 -20 7 -6 521 21 527 27 l5 6
-69 -2 c-38 0 -157 -5 -264 -11z"/>
<path d="M49141 46316 c-1 -12 161 -347 166 -343 2 2 -35 82 -81 178 -47 96
-85 170 -85 165z"/>
<path d="M93060 46071 c0 -4 16 -15 35 -24 l36 -17 32 0 32 0 53 -25 54 -25
57 0 56 0 73 38 72 38 -6 7 -7 6 -75 -39 -75 -40 -41 0 -41 0 -47 25 -47 25
-38 0 -38 0 -42 20 -43 19 0 -8z"/>
<path d="M39911 45993 l34 -63 109 -107 109 -108 -104 113 -104 113 -26 45
c-15 25 -32 51 -39 57 l-13 12 34 -62z"/>
<path d="M81344 45948 l-7 -11 11 7 c7 4 12 9 12 12 0 8 -9 4 -16 -8z"/>
<path d="M81317 45853 c-2 -4 -8 -24 -12 -43 -4 -19 -16 -52 -26 -72 l-19 -37
-17 -10 -18 -10 22 -1 22 0 15 28 c18 36 49 142 43 148 -3 3 -7 2 -10 -3z"/>
<path d="M87973 44068 c-22 -28 -95 -170 -90 -174 3 -3 28 36 57 86 28 51 49
94 47 96 -2 3 -9 -1 -14 -8z"/>
<path d="M13725 43649 c-71 -21 -167 -46 -212 -55 l-83 -17 0 -13 c0 -8 2 -14
5 -14 20 0 138 29 278 68 l167 47 0 12 0 13 -12 -1 c-7 0 -71 -18 -143 -40z"/>
<path d="M51525 42955 c-82 -13 -154 -24 -159 -24 -5 -1 -7 -3 -4 -6 5 -5 360
44 367 51 8 8 -57 1 -204 -21z"/>
<path d="M51340 42932 c0 -6 9 -73 20 -149 21 -143 37 -213 47 -213 l5 0 -6
23 c-3 12 -18 94 -31 181 -22 138 -35 198 -35 158z"/>
<path d="M35607 42865 l-6 -14 -33 -10 -33 -9 31 -1 31 -1 16 18 c19 21 22 32
8 32 -5 0 -11 -7 -14 -15z"/>
<path d="M50818 42857 l-138 -20 0 -7 0 -6 150 21 c82 12 153 25 157 28 l6 7
-19 -1 c-10 -1 -81 -11 -156 -22z"/>
<path d="M91738 42577 c-43 -23 -78 -45 -78 -50 0 -4 37 13 83 38 l84 45 21 0
21 0 63 -36 c35 -20 78 -45 96 -56 l32 -20 0 9 c0 4 -42 32 -93 61 l-94 52
-29 -1 -29 0 -77 -42z"/>
<path d="M50835 42489 c-71 -10 -134 -18 -139 -18 l-9 -1 5 -5 5 -6 164 21
c158 20 210 31 138 29 -19 -1 -92 -9 -164 -20z"/>
<path d="M31042 41812 l-170 -237 -49 -46 c-26 -26 -217 -174 -423 -329 l-375
-283 -45 -18 c-25 -9 -78 -22 -119 -29 l-74 -12 -49 6 -50 7 -69 39 -69 39
-82 68 c-91 76 -148 112 -227 143 l-52 20 -99 15 c-117 18 -120 18 -120 6 l0
-9 88 -12 87 -11 61 -20 62 -20 56 -34 c32 -19 92 -63 135 -99 l77 -64 75 -42
74 -43 57 -5 57 -4 68 11 c37 7 88 19 113 28 l45 16 380 285 c209 157 402 306
428 331 l49 46 173 242 174 242 -8 6 -9 5 -170 -238z"/>
<path d="M53999 41617 c-14 -12 -35 -36 -47 -54 l-22 -31 1 -39 c0 -21 4 -47
9 -58 l9 -20 0 51 1 51 30 41 c16 23 39 46 50 52 l21 11 -6 10 c-9 13 -17 11
-46 -14z"/>
<path d="M93820 40486 c0 -6 237 -343 256 -365 2 -2 6 -2 9 1 3 2 -49 81 -115
174 -120 167 -150 206 -150 190z"/>
<path d="M47810 40366 l0 -16 54 0 53 0 234 -205 c211 -186 257 -222 247 -196
-1 4 -109 101 -238 215 l-234 206 -42 0 c-23 0 -49 3 -58 6 l-16 6 0 -16z"/>
<path d="M58060 39780 l0 -220 10 0 10 0 0 220 0 220 -10 0 -10 0 0 -220z"/>
<path d="M84630 39894 c-80 -52 -147 -99 -148 -104 -4 -11 232 136 285 177 65
50 -2 15 -137 -73z"/>
<path d="M84816 39968 c4 -7 44 -67 89 -133 45 -66 162 -252 260 -412 98 -161
181 -293 186 -293 l9 0 -42 68 c-22 37 -97 159 -165 272 -138 227 -324 509
-336 510 l-8 0 7 -12z"/>
<path d="M62807 39108 c3 -123 7 -225 9 -227 2 -2 4 98 4 222 l0 227 -9 0 -9
0 5 -222z"/>
<path d="M59833 39224 c3 -11 11 -55 17 -99 15 -104 42 -185 97 -298 54 -112
114 -207 167 -267 47 -53 134 -130 147 -130 5 0 -27 32 -71 70 l-79 71 -48 72
c-61 94 -146 267 -171 348 -11 35 -25 104 -32 152 l-13 88 -10 6 -9 6 5 -19z"/>
<path d="M52012 38985 c8 -8 871 -175 877 -169 2 2 2 5 0 7 -3 3 -575 112
-854 164 l-30 6 7 -8z"/>
<path d="M52461 38936 c3 -3 493 -96 849 -162 l25 -4 -20 10 c-20 10 -808 160
-841 160 -9 0 -15 -2 -13 -4z"/>
<path d="M53780 38691 l0 -7 175 -33 c96 -18 185 -35 197 -38 l23 -6 -10 10
-10 9 -120 23 c-66 13 -150 29 -187 36 l-68 13 0 -7z"/>
<path d="M88145 38494 c-82 -52 -165 -104 -184 -115 l-34 -20 6 -6 6 -5 167
103 c91 56 176 111 188 121 l21 17 -10 0 c-5 0 -77 -43 -160 -95z"/>
<path d="M89250 38346 c0 -12 243 -356 252 -356 6 0 -219 329 -243 355 l-9 9
0 -8z"/>
<path d="M55937 38293 l-7 -6 113 -76 c128 -85 187 -120 342 -199 60 -31 163
-87 228 -124 124 -71 137 -76 137 -55 l0 12 -153 86 c-83 48 -210 117 -282
155 -71 37 -179 101 -240 141 -108 72 -125 80 -138 66z"/>
<path d="M86660 37573 c-63 -42 -129 -88 -146 -103 -17 -15 -149 -105 -293
-200 -144 -95 -260 -175 -257 -177 6 -6 525 337 592 391 29 25 94 70 144 102
49 31 90 58 90 60 0 11 -26 -3 -130 -73z"/>
<path d="M40084 36504 c-6 -3 -69 -10 -140 -17 l-129 -12 -3 -97 -3 -98 8 0 8
0 0 93 0 92 85 6 c88 6 230 28 230 35 0 5 -42 4 -56 -2z"/>
<path d="M86487 35769 l-17 -10 5 -8 4 -8 36 11 c19 6 35 14 35 18 l0 8 -22 0
c-13 0 -31 -5 -41 -11z"/>
<path d="M86645 35712 c22 -45 157 -232 167 -232 4 0 8 3 8 6 0 7 -132 190
-166 229 l-26 30 17 -33z"/>
<path d="M54440 35724 c0 -19 42 -330 46 -343 2 -8 6 -12 8 -10 6 6 -41 349
-48 357 l-6 5 0 -9z"/>
<path d="M86440 35690 c0 -5 5 -10 11 -10 l10 0 -6 10 c-3 6 -8 10 -11 10 -2
0 -4 -4 -4 -10z"/>
<path d="M84916 35603 c-21 -6 -464 -288 -486 -311 l-15 -15 15 8 c8 4 119 75
246 156 l231 149 27 0 26 0 20 -20 c11 -11 33 -46 49 -78 16 -32 56 -94 88
-137 32 -44 142 -215 242 -380 101 -165 198 -318 214 -340 17 -22 32 -42 34
-44 2 -2 5 -2 8 1 l6 5 -24 29 c-14 16 -110 170 -216 341 -105 172 -217 348
-248 390 -32 43 -75 111 -96 150 l-38 72 -22 16 c-22 15 -28 16 -61 8z"/>
<path d="M41381 35390 c-2 -21 302 -910 311 -910 3 0 -41 138 -99 308 -58 169
-129 377 -158 462 -30 85 -54 148 -54 140z"/>
<path d="M41340 35376 c0 -18 154 -459 157 -449 2 5 -30 108 -72 228 -69 200
-85 242 -85 221z"/>
<path d="M79305 35266 c-110 -45 -353 -168 -720 -363 -333 -178 -320 -171
-314 -177 3 -3 110 51 239 120 300 160 755 389 828 416 31 11 61 24 67 29 l9
9 -14 0 c-8 -1 -51 -16 -95 -34z"/>
<path d="M85420 34972 c0 -12 183 -314 208 -345 9 -9 17 -15 20 -12 3 3 -2 13
-10 22 -9 10 -61 92 -117 182 -55 91 -101 160 -101 153z"/>
<path d="M85795 34690 c-77 -49 -141 -94 -144 -101 l-3 -11 10 3 c26 10 302
184 302 191 0 18 -32 2 -165 -82z"/>
<path d="M59564 34542 c-179 -109 -284 -177 -284 -184 0 -4 79 42 175 102 96
61 179 110 184 110 6 0 13 5 16 10 l6 10 -9 0 c-5 0 -44 -22 -88 -48z"/>
<path d="M77485 34338 l-321 -160 -67 -2 -67 -1 0 -9 0 -9 75 6 75 7 312 157
313 157 45 7 45 6 -45 1 -45 1 -320 -161z"/>
<path d="M57660 34105 c0 -2 10 -24 21 -48 l21 -43 27 -11 26 -10 39 -94 c63
-150 77 -181 82 -176 5 5 -104 266 -118 285 l-10 12 -20 0 -19 0 -19 45 c-17
39 -30 57 -30 40z"/>
<path d="M53978 34061 c-103 -14 -190 -29 -194 -34 l-8 -7 30 5 c16 3 114 16
218 30 104 14 192 27 194 30 9 9 -51 3 -240 -24z"/>
<path d="M35295 33783 c-225 -156 -249 -173 -239 -173 10 0 335 219 359 241
l9 9 -9 0 c-6 -1 -59 -35 -120 -77z"/>
<path d="M35053 33558 c8 -13 54 -96 102 -186 48 -90 89 -161 92 -159 6 7
-190 367 -199 367 l-8 0 13 -22z"/>
<path d="M98893 31719 c8 -25 401 -587 501 -719 48 -63 92 -117 98 -119 6 -2
-37 59 -94 135 -58 77 -192 265 -298 419 -106 154 -198 285 -203 290 l-10 10
6 -16z"/>
<path d="M89545 20878 c-77 -71 -142 -135 -144 -141 -4 -11 65 49 224 196 39
36 68 67 65 70 -3 2 -68 -54 -145 -125z"/>
<path d="M25828 4053 l-78 -4 0 -11 0 -11 113 6 c61 4 165 7 230 7 l117 0 0
10 0 10 -152 -2 c-84 -1 -188 -4 -230 -5z"/>
<path d="M31927 3523 c-4 -3 -7 -10 -7 -15 l0 -9 19 6 18 5 12 -14 13 -15 0
-45 0 -44 -62 -109 c-35 -59 -74 -123 -87 -141 l-24 -33 3 -11 4 -11 30 39
c17 21 59 89 94 149 l65 110 -1 50 0 50 -12 23 -13 22 -23 0 c-12 0 -26 -3
-29 -7z"/>
<path d="M31883 3443 c-32 -16 -44 -33 -23 -33 6 0 24 7 40 15 l30 16 0 -16
c0 -8 -25 -58 -55 -111 l-54 -97 6 -10 5 -9 59 104 59 103 0 28 0 27 -17 -1
c-10 0 -33 -8 -50 -16z"/>
<path d="M31474 2842 c-40 -35 -216 -257 -238 -300 l-17 -34 5 -6 c3 -3 7 -3
9 -1 2 2 16 24 32 49 36 56 178 234 222 278 18 18 33 35 33 37 0 11 -17 3 -46
-23z"/>
<path d="M19040 1096 l0 -16 13 0 c6 0 108 -7 224 -17 l213 -16 7 6 c3 4 4 9
1 12 -3 3 -88 12 -189 20 -101 8 -203 17 -226 21 l-43 5 0 -15z"/>
</g>
</svg>
