<?xml version="1.0" standalone="no"?>
<!DOCTYPE svg PUBLIC "-//W3C//DTD SVG 20010904//EN"
 "http://www.w3.org/TR/2001/REC-SVG-20010904/DTD/svg10.dtd">
<svg version="1.0" xmlns="http://www.w3.org/2000/svg"
 width="7500.000000pt" height="7500.000000pt" viewBox="0 0 7500.000000 7500.000000"
 preserveAspectRatio="xMidYMid meet">
<metadata>
Created by potrace 1.16, written by Peter Selinger 2001-2019
</metadata>
<g transform="translate(0.000000,7500.000000) scale(0.075000,-0.075000)"
fill="#000000" stroke="none">
<path d="M89013 99993 l7 -6 7 6 6 7 -13 0 -13 0 6 -7z"/>
<path d="M98700 94663 c0 -4 19 -19 43 -32 23 -13 97 -71 165 -129 68 -57 125
-102 128 -100 7 8 -236 210 -288 241 l-48 28 0 -8z"/>
<path d="M87768 94128 l-4 -123 -41 -97 -42 -98 10 -5 9 -6 7 18 c3 10 22 54
41 98 l35 80 4 128 5 127 -10 0 -10 0 -4 -122z"/>
<path d="M87305 93294 l-110 -136 -128 -111 c-71 -62 -175 -145 -230 -185 -95
-69 -107 -80 -91 -83 17 -4 290 207 434 335 19 17 84 91 144 164 l108 134 -8
8 -9 9 -110 -135z"/>
<path d="M86763 92763 l7 -6 7 6 6 7 -13 0 -13 0 6 -7z"/>
<path d="M86810 92735 c0 -7 230 -155 241 -155 11 0 68 61 69 74 l0 10 -33
-32 c-18 -18 -36 -32 -39 -32 -4 0 -55 32 -114 70 -100 65 -124 78 -124 65z"/>
<path d="M33720 89670 l0 -30 10 0 10 0 0 30 0 30 -10 0 -10 0 0 -30z"/>
<path d="M84064 89083 c-9 -43 -31 -142 -49 -221 l-33 -143 11 4 11 3 13 60
c7 32 29 125 48 206 38 162 39 168 26 168 l-10 0 -17 -77z"/>
<path d="M78986 88491 c5 -6 107 -44 227 -85 l217 -75 0 8 c0 5 -8 12 -17 16
-54 21 -418 145 -426 145 l-11 0 10 -9z"/>
<path d="M79440 88303 c0 -4 -36 -218 -80 -476 -72 -417 -82 -492 -66 -476 4
3 166 938 166 954 0 3 -4 5 -10 5 -5 0 -10 -3 -10 -7z"/>
<path d="M84452 87194 c-51 -101 -92 -187 -91 -192 0 -4 43 78 95 182 52 103
94 190 92 192 -2 2 -45 -80 -96 -182z"/>
<path d="M84276 86926 c-21 -50 -42 -95 -46 -99 l-8 -9 -77 22 c-42 12 -79 19
-82 16 -3 -2 15 -10 38 -16 24 -6 60 -15 79 -21 19 -5 40 -9 46 -9 l11 0 43
100 c24 55 41 102 39 104 -2 2 -22 -37 -43 -88z"/>
<path d="M72108 86185 c-28 -16 -315 -119 -360 -130 l-28 -7 0 -14 0 -14 9 0
c18 0 346 117 393 141 l47 23 -5 8 c-7 12 -25 9 -56 -7z"/>
<path d="M88290 84964 l0 -9 158 -44 c86 -24 194 -54 240 -67 l82 -23 0 8 0 8
-227 63 c-126 35 -234 65 -240 68 l-13 4 0 -8z"/>
<path d="M88176 84498 c-8 -35 -29 -111 -45 -170 l-29 -108 8 0 8 0 11 43 c6
23 26 99 45 170 l35 127 -9 0 -8 0 -16 -62z"/>
<path d="M80066 84482 c5 -5 95 -38 199 -75 105 -36 199 -68 210 -73 l20 -7
-10 10 c-9 10 -406 153 -422 153 -4 0 -3 -4 3 -8z"/>
<path d="M80510 84371 c0 -3 69 -31 153 -60 83 -30 180 -65 215 -77 l62 -23 0
8 0 9 -87 31 c-223 79 -343 118 -343 112z"/>
<path d="M30064 83954 c4 -11 39 -111 77 -223 38 -112 71 -207 74 -209 19 -19
6 31 -58 223 l-73 219 -14 4 -13 5 7 -19z"/>
<path d="M26843 83593 l-213 -67 0 -11 0 -12 230 71 230 70 0 8 0 8 -17 -1
c-10 0 -114 -30 -230 -66z"/>
<path d="M74275 77423 c-60 -53 -110 -100 -110 -105 0 -19 26 -2 127 85 l107
92 0 13 c1 6 -2 12 -6 12 -5 0 -57 -44 -118 -97z"/>
<path d="M97697 66295 c-115 -29 -211 -56 -214 -59 l-6 -6 6 -6 6 -7 188 47
c103 26 205 51 226 57 l37 10 0 9 0 10 -17 -1 c-10 0 -112 -25 -226 -54z"/>
<path d="M37057 64570 l-5 -19 17 -5 c41 -12 137 -26 266 -41 77 -8 150 -18
163 -20 l22 -5 6 15 6 16 -6 6 c-3 3 -90 16 -192 29 -103 13 -201 28 -217 34
-17 5 -36 10 -42 10 l-13 0 -5 -20z"/>
<path d="M40660 64190 l0 -10 30 0 30 0 0 10 0 10 -30 0 -30 0 0 -10z"/>
<path d="M50620 64192 c0 -4 99 -50 220 -101 l220 -94 6 6 6 6 -33 14 c-53 22
-350 148 -386 163 l-33 14 0 -8z"/>
<path d="M80700 63885 c0 -6 190 -388 196 -394 2 -2 6 -2 10 1 l5 6 -98 196
c-83 167 -113 217 -113 191z"/>
<path d="M41450 63743 l-24 -5 -78 -65 c-43 -36 -78 -67 -78 -69 0 -9 22 7 96
68 l71 58 37 0 38 0 55 -16 c30 -9 57 -14 59 -11 5 5 -79 32 -126 40 -14 3
-36 2 -50 0z"/>
<path d="M41270 63571 c0 -5 57 -72 127 -150 l126 -141 16 0 15 0 -33 33 c-19
17 -81 85 -139 150 -58 64 -107 117 -109 117 -1 0 -3 -4 -3 -9z"/>
<path d="M41118 63428 c-79 -67 -145 -123 -147 -125 -2 -1 -2 -5 1 -8 4 -5
298 241 298 250 0 11 -15 -1 -152 -117z"/>
<path d="M41545 63140 c3 -5 14 -10 23 -10 l17 0 -15 10 c-8 5 -19 10 -23 10
l-8 0 6 -10z"/>
<path d="M51270 63102 l0 -9 158 -66 c86 -36 166 -69 177 -73 l20 -7 -10 11
c-5 5 -82 40 -170 77 -88 37 -163 69 -167 72 l-8 4 0 -9z"/>
<path d="M42726 62910 l-216 -189 8 -4 7 -5 210 184 c190 167 228 204 211 204
-3 0 -102 -85 -220 -190z"/>
<path d="M48775 62862 c18 -18 337 -203 345 -200 7 3 -317 198 -344 207 l-11
4 10 -11z"/>
<path d="M42145 62449 c-229 -197 -245 -213 -245 -238 l1 -16 14 26 14 27 221
186 c121 103 220 191 220 196 0 6 -1 10 -2 9 -2 0 -102 -85 -223 -190z"/>
<path d="M58005 62409 c-115 -94 -212 -176 -214 -182 l-4 -11 49 39 c27 22
127 102 222 179 94 76 172 140 172 142 0 13 -35 -13 -225 -167z"/>
<path d="M41412 62447 l-12 -14 151 -169 c83 -93 154 -170 158 -172 5 -1 13 3
18 10 l11 13 -124 140 c-69 77 -139 155 -158 173 l-33 33 -11 -14z"/>
<path d="M57320 61856 c0 -8 -31 -78 -68 -157 -37 -79 -81 -175 -97 -212 l-28
-68 -144 -106 c-79 -59 -141 -108 -138 -111 2 -3 71 45 152 106 l149 111 13
38 c8 21 49 114 92 208 l78 170 11 3 10 4 221 -97 c122 -52 225 -95 230 -93 5
2 -89 45 -209 97 -119 52 -227 100 -239 107 -28 17 -33 17 -33 0z"/>
<path d="M48110 61781 l0 -9 201 -112 201 -112 10 10 9 9 -201 112 c-111 61
-205 111 -210 111 -6 0 -10 -4 -10 -9z"/>
<path d="M92790 60972 l0 -11 59 -35 c33 -19 116 -57 185 -84 l125 -49 6 5 5
6 -127 51 c-128 51 -188 81 -230 111 l-23 16 0 -10z"/>
<path d="M44181 60703 c4 -13 291 -334 329 -368 11 -10 20 -15 20 -12 0 6
-289 328 -337 377 l-15 15 3 -12z"/>
<path d="M44937 59874 c124 -137 272 -289 272 -281 1 9 -318 351 -333 356 -6
2 21 -31 61 -75z"/>
<path d="M86559 59764 c-90 -69 -166 -131 -168 -137 l-4 -12 14 11 c8 6 85 66
172 133 141 110 166 131 153 131 -2 0 -77 -57 -167 -126z"/>
<path d="M63624 59800 c3 -14 75 -360 160 -770 85 -410 200 -972 256 -1250
121 -607 324 -1560 328 -1538 2 8 -42 224 -97 479 -55 255 -116 550 -136 654
-94 491 -491 2399 -506 2430 l-9 20 4 -25z"/>
<path d="M62712 59569 c-106 -20 -196 -40 -200 -44 l-7 -8 35 7 c19 3 109 21
200 38 91 17 167 33 169 35 14 11 -25 5 -197 -28z"/>
<path d="M61810 59387 c-107 -22 -197 -42 -199 -44 -2 -2 -2 -6 2 -9 l5 -6
209 43 c114 23 212 46 218 51 l9 8 -24 -1 c-14 -1 -113 -19 -220 -42z"/>
<path d="M63844 58940 c50 -247 94 -450 97 -450 4 0 -35 202 -85 450 -50 247
-94 450 -97 450 -3 0 35 -202 85 -450z"/>
<path d="M55141 58809 c-34 -127 -60 -233 -58 -236 7 -6 17 28 77 252 28 105
53 196 55 203 l4 12 -8 0 -7 0 -63 -231z"/>
<path d="M62432 58715 c-112 -23 -206 -45 -209 -49 l-6 -6 6 0 c17 0 441 90
445 95 11 10 -39 2 -236 -40z"/>
<path d="M61536 58480 c-104 -27 -199 -53 -210 -59 -21 -11 -379 -90 -423 -93
l-23 -2 8 -8 7 -7 207 44 c114 24 215 49 225 55 10 5 110 33 223 61 113 28
207 52 209 55 11 11 -48 -2 -223 -46z"/>
<path d="M59990 58404 l0 -9 191 -69 c105 -37 192 -66 194 -64 2 2 -76 34
-173 70 -97 37 -185 70 -194 73 l-18 7 0 -8z"/>
<path d="M62603 57881 c-117 -26 -216 -51 -220 -55 l-8 -9 15 5 c8 3 111 25
227 49 l213 44 0 8 c0 4 -3 6 -7 6 -5 -1 -103 -23 -220 -48z"/>
<path d="M49030 57753 c0 -8 127 -134 287 -288 l62 -59 7 7 7 7 -173 167
c-170 166 -190 183 -190 166z"/>
<path d="M64131 57574 c-1 -11 60 -312 134 -669 74 -357 135 -653 135 -658 l0
-9 14 5 14 5 21 -14 21 -15 0 -33 0 -33 -18 -16 -19 -17 -29 0 -30 0 -12 12
-12 12 -6 -6 -6 -6 24 -16 25 -16 31 6 31 6 21 23 22 24 -9 38 -9 38 -29 15
c-17 8 -31 15 -32 16 -2 0 -64 295 -138 655 -75 360 -138 659 -140 664 l-3 10
-1 -21z"/>
<path d="M80353 57506 c-143 -80 -197 -115 -189 -123 3 -3 17 4 33 15 41 28
281 162 292 162 5 0 23 -17 40 -37 17 -20 33 -35 35 -32 6 5 -63 89 -72 89 -4
0 -66 -34 -139 -74z"/>
<path d="M79450 56580 l-45 -30 -80 -27 c-44 -15 -114 -33 -155 -40 l-75 -12
70 3 70 3 96 33 96 33 39 33 c49 41 43 43 -16 4z"/>
<path d="M26260 56263 c-47 -80 -93 -161 -102 -179 l-18 -33 9 -5 8 -6 102
175 c55 96 101 179 101 184 0 29 -22 -1 -100 -136z"/>
<path d="M81650 56275 c-74 -19 -161 -41 -192 -51 l-58 -17 0 -9 0 -8 33 13
c17 8 104 31 192 52 88 20 167 41 175 46 l15 8 -15 0 c-8 -1 -76 -16 -150 -34z"/>
<path d="M64068 56158 l-248 -51 0 -9 0 -9 18 5 c9 3 125 26 257 52 132 26
244 51 250 55 l9 9 -19 -1 c-11 -1 -131 -24 -267 -51z"/>
<path d="M36425 55857 c-38 -16 -99 -38 -135 -47 l-65 -17 -37 5 -38 4 0 -12
0 -13 73 5 72 5 107 42 c59 23 110 47 113 52 l6 9 -13 -1 c-7 -1 -44 -15 -83
-32z"/>
<path d="M62757 55805 c-229 -49 -267 -59 -256 -69 2 -2 127 22 277 52 l272
56 0 8 0 8 -22 -1 c-13 -1 -135 -25 -271 -54z"/>
<path d="M25996 55651 c16 -15 406 -294 467 -334 l59 -38 6 5 c7 7 11 4 -68
56 -36 24 -151 106 -257 182 -105 76 -197 138 -204 138 l-13 0 10 -9z"/>
<path d="M25955 55617 l-8 -29 14 -25 13 -25 226 -155 c124 -86 237 -165 252
-175 l27 -18 4 7 5 8 -240 165 c-131 91 -246 173 -255 183 l-16 17 -7 38 -7
37 -8 -28z"/>
<path d="M61044 55513 c3 -27 8 -84 11 -128 14 -198 32 -335 43 -335 l8 0 -17
158 c-9 86 -20 201 -24 255 l-7 97 -10 0 -10 0 6 -47z"/>
<path d="M51535 55270 c55 -4 161 -7 235 -7 l135 0 -100 7 c-55 4 -161 7 -235
7 l-135 0 100 -7z"/>
<path d="M25538 55147 c-57 -50 -133 -114 -170 -141 -61 -45 -81 -66 -61 -66
14 0 191 142 273 219 l85 80 -12 1 -12 0 -103 -93z"/>
<path d="M53285 54930 c4 -14 9 -32 11 -41 l5 -15 -290 -439 c-160 -241 -291
-443 -291 -449 0 -6 135 193 300 442 l300 453 -21 37 -20 37 6 -25z"/>
<path d="M50458 54888 l-68 -31 0 -8 0 -9 73 36 c39 20 74 38 76 40 12 11 -21
0 -81 -28z"/>
<path d="M50140 54569 l0 -10 10 6 c6 3 10 8 10 11 0 2 -4 4 -10 4 -5 0 -10
-5 -10 -11z"/>
<path d="M50121 54531 c-1 -7 4 -43 11 -80 l11 -66 24 -26 24 -26 41 -12 c22
-7 47 -15 56 -18 l15 -6 -6 10 c-4 6 -27 16 -52 23 l-46 13 -23 28 -24 28 -7
53 c-4 29 -11 62 -16 73 l-8 20 0 -14z"/>
<path d="M51965 54337 c-66 -88 -131 -175 -144 -194 l-24 -33 6 -6 5 -6 138
184 c75 101 141 188 146 195 l9 11 -8 5 -8 5 -120 -161z"/>
<path d="M88023 54381 c-17 -11 -37 -29 -42 -40 l-11 -20 0 -35 c0 -19 3 -41
6 -50 l6 -16 8 5 8 5 -5 44 -5 45 27 25 28 26 31 0 32 0 23 -16 23 -16 9 9 10
10 -26 17 c-15 10 -41 20 -58 22 l-32 5 -32 -20z"/>
<path d="M22667 54000 l-166 -170 8 -4 7 -5 105 107 c57 59 131 135 164 169
l59 62 -6 6 -5 5 -166 -170z"/>
<path d="M51651 54153 c2 -6 51 -49 109 -96 l105 -84 25 -8 25 -8 100 -91 c55
-50 137 -117 181 -149 l82 -57 30 -47 c17 -27 40 -68 51 -93 11 -25 20 -40 20
-33 1 18 -38 105 -66 146 l-26 38 -81 57 c-45 31 -126 98 -182 149 l-101 92
-25 6 -24 6 -70 57 c-125 102 -157 126 -153 115z"/>
<path d="M18190 54146 c0 -2 20 -55 44 -118 24 -62 59 -164 77 -226 l32 -113
9 9 8 8 -36 120 c-19 65 -54 165 -76 222 l-40 102 -9 0 c-5 0 -9 -2 -9 -4z"/>
<path d="M52580 53952 c-41 -64 -108 -161 -147 -214 -40 -54 -69 -98 -65 -98
11 0 148 187 226 309 57 91 73 121 64 121 -2 0 -37 -53 -78 -118z"/>
<path d="M9180 53550 c-58 -8 -115 -21 -192 -46 l-48 -16 0 -8 0 -9 42 15 c68
24 168 45 248 54 l75 8 34 -14 c39 -16 41 -17 41 -6 0 4 -15 13 -33 20 l-33
12 -40 -1 c-21 -1 -64 -5 -94 -9z"/>
<path d="M65958 53512 c-119 -26 -220 -51 -225 -56 l-8 -8 20 5 c11 3 112 25
225 48 113 23 209 46 215 50 l9 9 -9 -1 c-6 0 -108 -22 -227 -47z"/>
<path d="M51927 53414 l-6 -7 63 -76 c35 -42 76 -97 91 -121 l28 -45 5 13 4
13 -27 41 c-24 37 -145 188 -150 188 -1 0 -5 -3 -8 -6z"/>
<path d="M52448 53266 l-17 -24 -91 -7 -90 -7 0 -7 0 -7 92 9 93 9 13 10 c7 6
18 20 23 30 l10 18 -8 0 c-4 0 -16 -11 -25 -24z"/>
<path d="M50231 53169 c-112 -55 -201 -102 -199 -105 3 -2 101 43 219 100 118
58 207 105 199 104 -8 0 -107 -45 -219 -99z"/>
<path d="M52270 53203 c0 -16 113 -263 152 -331 52 -91 40 -51 -20 68 -32 63
-74 151 -95 195 -20 44 -36 75 -37 68z"/>
<path d="M52175 53190 c3 -5 8 -10 11 -10 2 0 4 5 4 10 0 6 -5 10 -11 10 l-10
0 6 -10z"/>
<path d="M52145 53180 l-6 -10 10 0 c6 0 11 5 11 10 0 6 -2 10 -4 10 -3 0 -8
-4 -11 -10z"/>
<path d="M49755 52914 c-189 -104 -240 -134 -224 -134 6 0 429 229 438 236 2
2 2 6 0 8 -2 3 -99 -47 -214 -110z"/>
<path d="M66080 52995 c-58 -12 -154 -33 -215 -46 l-110 -23 15 -3 c16 -4 440
84 448 92 10 9 -33 3 -138 -20z"/>
<path d="M81526 52511 c5 -5 101 -37 214 -72 113 -34 212 -64 220 -67 l15 -5
-10 10 c-8 8 -250 86 -419 134 l-30 9 10 -9z"/>
<path d="M53817 51814 l-448 -225 3 -10 c2 -6 8 -11 13 -11 6 0 209 101 452
224 l443 223 0 13 c0 6 -3 12 -7 11 -5 0 -210 -101 -456 -225z"/>
<path d="M78200 51950 c0 -5 38 -105 85 -222 l84 -213 8 3 c13 4 11 11 -76
230 l-85 212 -8 0 c-4 0 -8 -4 -8 -10z"/>
<path d="M17095 51870 l-6 -10 23 -9 c41 -15 393 -163 401 -168 l7 -4 0 13 0
14 -177 74 c-98 40 -192 79 -210 87 l-32 13 -6 -10z"/>
<path d="M27681 51840 c-5 -7 -28 -444 -24 -449 10 -14 15 26 24 191 9 160 9
274 0 258z"/>
<path d="M33473 51276 l-6 -8 10 -7 9 -6 33 -255 c35 -272 147 -1000 156
-1008 9 -9 6 17 -54 397 -33 207 -74 486 -91 619 l-32 244 7 6 7 7 184 3 184
3 0 7 0 7 -201 0 -201 0 -5 -9z"/>
<path d="M75456 51042 l-5 -8 79 -144 79 -145 12 -42 12 -43 9 0 10 0 -6 28
c-6 28 -166 350 -178 358 -4 2 -9 1 -12 -4z"/>
<path d="M90631 50614 c10 -27 212 -375 216 -371 5 5 -192 356 -209 372 l-10
10 3 -11z"/>
<path d="M65926 50090 c-225 -99 -411 -182 -414 -185 -23 -22 55 9 413 165
l410 179 3 10 c2 6 2 11 0 11 -1 -1 -187 -81 -412 -180z"/>
<path d="M34347 49953 l-7 -12 6 -55 7 -56 8 0 9 0 -1 28 c0 15 -3 45 -7 67
l-8 40 -7 -12z"/>
<path d="M40121 49551 c-1 -8 64 -179 143 -380 79 -201 149 -385 155 -408 14
-50 26 -58 16 -10 -5 24 -245 647 -305 792 l-9 20 0 -14z"/>
<path d="M11816 49351 l-5 -7 62 -36 c79 -45 117 -55 245 -64 l102 -7 0 12 0
11 -52 0 c-29 0 -84 5 -123 10 l-70 10 -77 39 -78 40 -4 -8z"/>
<path d="M38940 48873 l0 -8 220 -57 220 -56 0 12 0 11 -207 53 c-211 54 -233
58 -233 45z"/>
<path d="M30590 48664 c0 -16 5 -132 11 -259 l12 -230 9 -15 9 -15 -6 65 c-2
36 -10 157 -16 270 -6 113 -13 207 -15 209 -2 2 -4 -9 -4 -25z"/>
<path d="M34560 48567 l19 -53 7 -75 6 -75 -15 -31 -16 -30 6 -7 c12 -12 21
-6 33 25 l13 30 -6 90 -6 90 -17 45 -17 44 -13 0 -12 0 18 -53z"/>
<path d="M34485 48590 l-6 -10 20 0 20 0 6 10 6 10 -20 0 -20 0 -6 -10z"/>
<path d="M91057 48329 c-98 -104 -174 -189 -170 -189 11 0 329 334 343 360 6
11 9 20 8 19 -2 0 -83 -85 -181 -190z"/>
<path d="M21410 47853 l0 -8 213 -56 c191 -50 230 -58 216 -45 -2 3 -92 28
-199 56 -107 28 -203 53 -212 56 l-18 5 0 -8z"/>
<path d="M28296 47458 c-3 -46 -7 -158 -10 -250 l-4 -168 8 0 8 0 6 83 c3 45
7 157 10 250 l5 167 -9 0 -8 0 -6 -82z"/>
<path d="M37425 47389 c-142 -9 -296 -17 -533 -28 l-172 -8 -8 -7 -7 -8 170 7
c94 4 177 9 186 11 l16 5 6 -58 c4 -32 10 -105 13 -163 l7 -105 8 -15 9 -15
-6 65 c-3 36 -9 112 -13 170 l-8 105 6 7 6 6 225 12 c124 6 245 15 270 20 l45
8 -50 -1 c-27 0 -104 -3 -170 -8z"/>
<path d="M36093 47336 l-191 -11 -9 -9 -8 -9 60 6 c33 4 132 9 220 13 l160 7
15 8 15 8 -35 -1 c-19 -1 -121 -6 -227 -12z"/>
<path d="M28240 46970 l-25 -19 6 -5 6 -6 23 25 c28 30 24 32 -10 5z"/>
<path d="M32538 46956 l-186 -11 -9 -9 -8 -9 55 6 c30 4 127 9 215 13 l160 6
15 9 15 8 -35 -1 c-19 -1 -119 -6 -222 -12z"/>
<path d="M32282 46905 c-216 -13 -396 -26 -399 -29 l-6 -6 24 0 c82 1 882 50
887 54 l5 6 -59 -1 c-32 -1 -236 -12 -452 -24z"/>
<path d="M29090 46787 c-181 -8 -210 -11 -199 -20 5 -4 520 20 559 26 46 7
-163 4 -360 -6z"/>
<path d="M32295 46370 c-60 -4 -134 -8 -162 -9 l-53 -1 0 -16 0 -16 48 6 c26
3 110 8 187 11 77 3 157 8 178 11 l37 6 0 9 0 9 -62 -2 c-35 -1 -112 -5 -173
-8z"/>
<path d="M48676 45624 c-126 -40 -231 -75 -233 -78 -2 -2 -1 -6 4 -9 l8 -5
220 70 c201 64 246 81 234 91 -2 2 -107 -29 -233 -69z"/>
<path d="M47375 45196 c-55 -23 -151 -64 -212 -91 l-113 -49 0 -13 0 -12 43
18 c187 82 348 150 380 160 l37 13 -5 9 c-9 14 -23 10 -130 -35z"/>
<path d="M51163 42906 c-84 -12 -156 -25 -159 -29 l-7 -7 9 0 c34 1 346 49
351 54 l6 6 -24 -1 c-13 -1 -92 -11 -176 -23z"/>
<path d="M50782 42895 c-85 -13 -156 -26 -159 -29 l-6 -6 24 0 c13 0 94 10
179 21 l155 22 10 8 9 9 -29 -1 c-17 -1 -99 -12 -183 -24z"/>
<path d="M49725 42870 l-6 -9 68 -45 68 -46 55 -1 55 -2 93 13 92 13 0 10 0
10 -47 -7 c-27 -3 -90 -9 -140 -12 l-93 -7 -70 46 -69 47 -6 -10z"/>
<path d="M51208 42536 l-167 -21 -7 -8 -8 -8 39 6 c22 3 111 14 198 24 88 11
161 22 165 25 l5 6 -29 -1 c-16 -1 -104 -11 -196 -23z"/>
<path d="M82367 42503 l-5 -8 111 -193 112 -193 10 3 10 3 -3 10 c-7 20 -214
375 -222 380 l-9 5 -4 -7z"/>
<path d="M56853 40883 c65 -2 168 -2 230 0 l112 3 -230 0 -230 0 118 -3z"/>
<path d="M57748 40883 c56 -2 148 -2 205 0 l102 3 -205 0 -205 0 103 -3z"/>
<path d="M51010 40668 l0 -13 33 -26 c43 -35 139 -83 237 -119 l79 -29 6 9 5
9 -7 4 c-5 2 -33 12 -63 22 -73 24 -206 90 -252 127 l-38 30 0 -14z"/>
<path d="M60290 38450 c0 -5 5 -10 10 -10 l10 0 0 -16 0 -15 -47 -67 c-26 -37
-87 -111 -136 -164 -49 -54 -85 -98 -79 -98 14 0 171 176 230 257 l52 73 0 14
0 15 -20 11 -20 11 0 -11z"/>
<path d="M60222 38356 c-29 -42 -78 -104 -110 -139 -31 -34 -67 -75 -81 -91
l-26 -29 12 4 c16 6 146 152 210 237 l54 73 -3 10 -3 10 -53 -75z"/>
<path d="M60634 37459 c-16 -17 -60 -55 -99 -83 l-70 -52 -145 -56 -145 -55
-45 -7 c-57 -9 -244 -66 -237 -73 3 -2 54 9 114 25 59 17 124 33 143 37 19 4
99 31 178 61 l143 55 72 53 c40 30 88 70 106 90 l35 36 -10 0 c-6 0 -23 -14
-40 -31z"/>
<path d="M50910 37103 l0 -11 157 -151 c86 -83 159 -148 162 -146 3 3 -68 76
-157 163 l-162 157 0 -12z"/>
<path d="M84638 35482 c-135 -86 -242 -158 -238 -160 5 -2 119 67 253 152
l245 156 38 0 39 -1 23 -19 23 -19 61 -108 c33 -59 86 -141 118 -183 31 -41
92 -133 135 -203 42 -70 80 -126 83 -123 7 8 -153 269 -209 342 -26 33 -77
112 -113 176 l-66 116 -25 16 -24 16 -48 0 -48 -1 -247 -157z"/>
<path d="M34695 33979 l-80 -30 -28 -27 -29 -27 -110 -185 -109 -185 -32 -27
-32 -27 10 0 c6 0 23 11 38 24 l28 25 106 178 105 177 31 32 30 33 76 25 76
25 37 0 37 0 24 -22 25 -23 188 -357 189 -358 29 -10 c39 -13 48 -3 10 11
l-29 12 -195 367 -195 368 -16 10 c-9 6 -36 13 -60 16 l-44 6 -80 -31z"/>
<path d="M98814 31738 l-22 -10 -11 -24 c-14 -30 -14 -34 -1 -34 l10 0 0 15 0
15 25 16 25 16 20 -5 20 -5 0 8 c0 8 -25 21 -38 19 -4 0 -17 -5 -28 -11z"/>
<path d="M98893 31719 c8 -25 401 -587 501 -719 48 -63 92 -117 98 -119 6 -2
-37 59 -94 135 -58 77 -192 265 -298 419 -106 154 -198 285 -203 290 l-10 10
6 -16z"/>
<path d="M95307 26779 l-187 -138 7 -4 8 -5 170 124 c174 128 202 151 194 157
-2 3 -88 -58 -192 -134z"/>
<path d="M87970 24927 c0 -3 14 -38 31 -78 l32 -74 77 -113 78 -113 7 11 6 10
-75 110 -76 110 -28 67 -28 67 -12 4 c-7 2 -12 2 -12 -1z"/>
<path d="M91536 17035 c34 -45 41 -45 12 0 -13 19 -27 35 -31 35 -4 0 4 -16
19 -35z"/>
<path d="M7060 1541 c-58 -21 -147 -59 -197 -85 l-93 -46 0 -10 c0 -15 2 -14
108 38 53 27 145 66 204 87 l108 38 -6 8 c-7 12 -6 13 -124 -30z"/>
</g>
</svg>
