<?xml version="1.0" standalone="no"?>
<!DOCTYPE svg PUBLIC "-//W3C//DTD SVG 20010904//EN"
 "http://www.w3.org/TR/2001/REC-SVG-20010904/DTD/svg10.dtd">
<svg version="1.0" xmlns="http://www.w3.org/2000/svg"
 width="7500.000000pt" height="7500.000000pt" viewBox="0 0 7500.000000 7500.000000"
 preserveAspectRatio="xMidYMid meet">
<metadata>
Created by potrace 1.16, written by Peter Selinger 2001-2019
</metadata>
<g transform="translate(0.000000,7500.000000) scale(0.075000,-0.075000)"
fill="#000000" stroke="none">
<path d="M87910 97485 c113 -57 210 -104 215 -104 6 0 -82 47 -195 104 -113
57 -209 104 -215 104 -5 0 82 -47 195 -104z"/>
<path d="M98100 94558 c9 -11 354 -148 363 -145 5 1 -67 33 -160 69 -190 76
-210 83 -203 76z"/>
<path d="M18530 94376 c0 -3 70 -57 156 -121 l156 -116 9 3 10 3 -160 118
c-148 109 -171 124 -171 113z"/>
<path d="M86815 92733 c16 -17 226 -153 236 -153 12 0 68 62 69 74 l0 10 -33
-32 c-18 -18 -36 -32 -40 -32 -3 0 -52 30 -109 66 -56 36 -109 68 -117 71
l-16 6 10 -10z"/>
<path d="M92220 92381 c-5 -11 -32 -76 -59 -145 l-49 -126 8 0 8 0 53 136 53
136 12 5 12 4 72 -36 72 -36 11 4 10 3 -77 37 c-43 20 -86 37 -97 37 l-18 0
-11 -19z"/>
<path d="M31495 89921 c11 -5 45 -11 75 -14 l55 -5 -50 13 c-27 7 -61 13 -75
13 l-25 1 20 -8z"/>
<path d="M31653 89893 l7 -6 7 6 6 7 -13 0 -13 0 6 -7z"/>
<path d="M91724 88445 c-38 -18 -128 -51 -200 -75 -71 -23 -133 -46 -137 -50
l-9 -8 11 -6 11 -7 132 45 c73 24 166 59 205 78 l72 33 -7 11 -7 11 -71 -32z"/>
<path d="M79855 88190 l-5 -8 33 -12 c143 -52 372 -130 378 -130 5 0 9 4 9 8
l0 8 -62 21 c-35 11 -127 43 -205 71 l-143 51 -5 -9z"/>
<path d="M15542 88079 l4 -13 130 -71 c71 -39 247 -141 391 -228 143 -86 264
-157 267 -157 3 0 6 4 6 9 0 14 -584 360 -770 456 l-32 17 4 -13z"/>
<path d="M84412 87218 c-51 -101 -92 -187 -92 -193 0 -5 43 75 95 179 53 104
94 190 92 192 -2 2 -45 -78 -95 -178z"/>
<path d="M82786 87162 l-6 -10 28 -10 c123 -45 376 -132 383 -132 5 0 9 4 9 9
l0 8 -192 68 c-106 37 -198 70 -204 72 l-12 4 -6 -9z"/>
<path d="M83691 86956 c2 -2 81 -25 174 -51 94 -25 177 -48 185 -51 l15 -5
-10 9 c-5 5 -86 30 -180 56 -162 44 -194 51 -184 42z"/>
<path d="M80395 85759 c-2 -8 -34 -95 -69 -194 -35 -99 -68 -189 -72 -200 l-7
-20 10 10 c14 13 155 406 149 413 -3 3 -8 -1 -11 -9z"/>
<path d="M81250 85456 c0 -3 330 -116 390 -133 l15 -5 -15 10 c-16 11 -367
132 -381 132 -5 0 -9 -2 -9 -4z"/>
<path d="M82500 85072 c0 -9 350 -126 356 -119 3 3 -76 32 -175 65 -100 33
-181 57 -181 54z"/>
<path d="M80066 84482 c5 -5 95 -38 199 -75 105 -36 199 -68 210 -73 l20 -7
-10 10 c-9 10 -406 153 -422 153 -4 0 -3 -4 3 -8z"/>
<path d="M24350 84007 l0 -13 98 -41 c53 -23 249 -108 435 -188 l339 -147 6 6
c8 8 14 5 -183 91 -99 42 -277 120 -395 172 -118 53 -234 104 -257 114 l-43
18 0 -12z"/>
<path d="M84133 83557 c9 -24 205 -305 219 -313 l11 -7 -8 14 c-12 19 -217
313 -223 319 -3 3 -2 -3 1 -13z"/>
<path d="M48080 83222 c0 -4 55 -26 123 -50 l122 -42 40 0 c22 1 67 7 100 14
l60 13 -17 7 -17 8 -56 -12 -56 -12 -42 7 c-23 4 -84 23 -136 41 -95 34 -121
40 -121 26z"/>
<path d="M46966 82730 l-40 -210 7 -7 c4 -3 8 -4 10 -2 4 6 78 401 77 417 0 6
-3 12 -7 12 l-8 0 -39 -210z"/>
<path d="M96178 81441 c-40 -56 -93 -129 -118 -163 -51 -70 -63 -88 -57 -88 3
0 58 71 123 158 64 86 122 163 127 170 l10 12 -6 6 -5 5 -74 -100z"/>
<path d="M95888 81042 c-47 -64 -129 -182 -183 -262 -54 -80 -175 -250 -267
-379 -93 -128 -167 -235 -165 -238 6 -5 318 426 487 672 67 99 145 211 173
248 27 37 47 70 45 72 -3 3 -43 -48 -90 -113z"/>
<path d="M94580 80572 c0 -16 303 -242 324 -242 21 0 -5 24 -86 80 -51 35
-123 88 -159 117 -66 53 -79 60 -79 45z"/>
<path d="M95478 80388 c-134 -183 -176 -243 -172 -247 5 -6 -3 -16 107 136
112 155 131 183 123 183 -3 0 -29 -32 -58 -72z"/>
<path d="M99943 80043 c-55 -105 -127 -272 -120 -279 2 -3 24 42 48 98 24 57
63 139 87 183 23 43 41 83 40 87 -2 5 -26 -35 -55 -89z"/>
<path d="M97112 78940 l3 -10 140 -65 c77 -36 163 -76 190 -89 l50 -25 4 10
c4 13 43 -6 -337 166 l-54 24 4 -11z"/>
<path d="M70482 78462 l-71 -167 -6 -40 -5 -40 9 20 c5 11 10 29 10 39 1 11
33 94 72 184 39 90 69 165 67 167 -2 3 -36 -71 -76 -163z"/>
<path d="M11090 77887 l0 -15 213 -71 c116 -39 215 -71 220 -71 4 0 7 6 7 13
l-1 12 -207 68 c-114 38 -213 71 -219 74 l-13 5 0 -15z"/>
<path d="M37260 76608 c-18 -35 -71 -118 -117 -186 -81 -120 -93 -142 -74
-142 16 0 241 355 241 381 0 25 -21 2 -50 -53z"/>
<path d="M74380 76543 c0 -8 187 -115 395 -226 61 -32 156 -86 213 -119 l103
-59 11 3 11 4 -114 66 c-63 36 -184 103 -269 148 -85 45 -189 102 -230 125
-41 23 -85 47 -97 54 l-23 12 0 -8z"/>
<path d="M32066 75771 c10 -9 413 -111 439 -111 8 0 15 3 15 8 l0 7 -218 53
c-119 29 -224 52 -231 52 l-15 0 10 -9z"/>
<path d="M6640 74941 l0 -9 48 -6 c26 -3 117 -13 202 -21 85 -8 167 -17 183
-20 l27 -4 0 14 0 15 -17 0 c-10 0 -99 9 -198 20 -99 11 -195 20 -212 20 l-33
0 0 -9z"/>
<path d="M82380 74728 c0 -2 16 -51 36 -109 l36 -104 5 -112 6 -113 10 0 10 0
-6 113 -5 112 -35 105 -35 104 -11 4 c-6 2 -11 2 -11 0z"/>
<path d="M78020 68513 l0 -11 108 5 107 4 135 -9 c74 -4 137 -7 139 -5 14 10
-31 14 -248 20 l-241 6 0 -10z"/>
<path d="M46405 67431 c-44 -9 -90 -22 -103 -29 l-24 -14 -29 -65 c-16 -36
-29 -72 -29 -81 l1 -17 31 73 31 74 28 17 28 17 95 18 c53 10 96 20 96 22 0 7
-43 2 -125 -15z"/>
<path d="M94304 67025 c3 -16 19 -113 36 -215 34 -206 39 -234 45 -228 6 6
-71 457 -80 466 l-7 7 6 -30z"/>
<path d="M45490 66834 c-75 -103 -240 -363 -240 -378 l0 -10 14 19 c7 11 44
70 81 130 37 61 101 156 142 213 41 57 73 105 70 108 -2 2 -33 -34 -67 -82z"/>
<path d="M52050 66302 c0 -5 72 -57 160 -115 88 -59 160 -103 160 -99 0 5 -72
57 -160 115 -88 59 -160 103 -160 99z"/>
<path d="M97513 66144 c3 -11 22 -98 42 -194 20 -96 39 -183 42 -194 l5 -18 8
8 8 9 -42 199 -41 199 -14 5 -13 4 5 -18z"/>
<path d="M97462 66128 c2 -13 22 -107 44 -210 l39 -188 7 0 c5 0 8 6 8 13 0
13 -43 231 -70 355 l-12 52 -10 0 -10 0 4 -22z"/>
<path d="M49155 65933 c18 -18 328 -235 344 -240 l16 -6 -10 10 c-19 18 -329
235 -345 241 l-15 5 10 -10z"/>
<path d="M33145 64978 c-89 -72 -203 -177 -198 -182 3 -3 47 32 98 78 51 47
106 93 121 103 l28 18 61 6 60 6 -65 1 -65 2 -40 -32z"/>
<path d="M80498 64304 c-9 -9 27 -92 109 -248 l78 -150 15 -4 15 -5 -12 14
c-7 8 -54 101 -106 207 -52 105 -97 189 -99 186z"/>
<path d="M40660 64115 c-30 -19 -49 -35 -42 -35 12 0 112 59 112 66 0 10 -18
1 -70 -31z"/>
<path d="M89371 64024 c-28 -32 -51 -62 -51 -67 0 -5 23 16 51 47 l51 56 185
-213 185 -212 39 -60 39 -60 0 13 c0 26 -85 137 -257 335 -97 111 -179 206
-183 210 l-7 8 -52 -57z"/>
<path d="M46016 63824 c-65 -113 -116 -207 -114 -210 6 -6 239 397 236 408 -2
4 -56 -85 -122 -198z"/>
<path d="M80742 63913 c23 -52 191 -373 203 -388 l16 -20 -3 15 c-2 8 -47 102
-101 208 l-99 192 -10 0 c-5 0 -8 -3 -6 -7z"/>
<path d="M51505 63771 l-4 -8 122 -50 c67 -28 159 -67 205 -87 l82 -35 0 8 c0
4 -90 46 -200 93 l-200 86 -5 -7z"/>
<path d="M41450 63743 l-24 -5 -78 -65 c-43 -36 -78 -67 -78 -69 0 -9 22 7 96
68 l71 58 37 0 38 0 55 -16 c30 -9 57 -14 59 -11 5 5 -79 32 -126 40 -14 3
-36 2 -50 0z"/>
<path d="M41770 63626 c0 -5 24 -36 53 -70 30 -34 97 -119 150 -189 94 -126
277 -336 277 -318 0 5 -34 46 -76 92 -42 46 -128 152 -190 234 -114 150 -214
268 -214 251z"/>
<path d="M40373 63554 c15 -16 27 -35 27 -41 l0 -11 -147 -127 c-184 -160
-188 -163 -182 -170 7 -7 343 283 347 298 l3 12 -38 35 -38 35 28 -31z"/>
<path d="M41197 63494 c-80 -69 -95 -84 -83 -84 3 0 42 32 87 70 45 39 82 70
84 68 13 -18 221 -246 233 -255 9 -7 20 -13 25 -13 l9 0 -20 18 c-15 13 -142
153 -241 264 l-7 8 -87 -76z"/>
<path d="M23607 63325 c-42 -85 -79 -165 -82 -177 l-7 -23 9 10 c6 6 46 85 91
178 l81 167 -9 0 -8 0 -75 -155z"/>
<path d="M60590 63226 c0 -8 -31 -61 -69 -119 -38 -57 -74 -114 -81 -126 l-11
-22 -8 -72 -9 -72 40 -190 c42 -202 46 -220 52 -214 3 2 -13 87 -35 189 l-38
185 -1 61 0 61 14 41 15 41 61 91 c34 51 68 107 76 126 l14 34 -10 0 -10 0 0
-14z"/>
<path d="M41510 63171 c0 -9 -152 -143 -222 -198 l-28 -21 15 -6 15 -5 77 62
c91 72 173 152 173 167 l0 10 -15 0 -15 0 0 -9z"/>
<path d="M41575 63170 c3 -5 8 -10 11 -10 2 0 4 5 4 10 0 6 -5 10 -11 10 l-10
0 6 -10z"/>
<path d="M51260 63061 l0 -9 63 -25 c34 -14 110 -46 170 -71 l107 -45 0 8 0 8
-137 58 c-76 32 -153 64 -170 71 l-33 14 0 -9z"/>
<path d="M58398 62753 c-102 -71 -184 -130 -182 -132 4 -5 299 193 349 234 64
52 11 19 -167 -102z"/>
<path d="M42424 62688 l-59 -61 30 21 c38 26 100 90 94 97 -3 2 -32 -23 -65
-57z"/>
<path d="M41936 62266 l-36 -33 0 -19 1 -19 11 20 c6 11 24 35 41 53 40 42 28
41 -17 -2z"/>
<path d="M56736 62111 c5 -5 250 -114 544 -241 294 -128 639 -277 765 -332
127 -55 237 -103 245 -106 l15 -5 -10 11 c-5 5 -116 56 -245 112 -129 57 -293
128 -365 160 -445 196 -940 410 -949 410 l-10 0 10 -9z"/>
<path d="M40115 61834 c-27 -25 -73 -58 -101 -74 l-51 -29 -57 -15 c-31 -9
-81 -23 -112 -32 -31 -8 -54 -17 -51 -20 2 -3 54 9 116 26 l111 30 53 30 c54
31 170 129 152 129 -5 0 -32 -20 -60 -45z"/>
<path d="M56003 61843 l7 -6 7 6 6 7 -13 0 -13 0 6 -7z"/>
<path d="M57251 61793 c-16 -32 -54 -116 -85 -188 -31 -71 -61 -138 -66 -147
l-10 -18 8 0 9 0 28 68 c16 37 51 114 78 172 65 139 78 170 72 170 -2 0 -18
-26 -34 -57z"/>
<path d="M56053 61713 l7 -6 7 6 6 7 -13 0 -13 0 6 -7z"/>
<path d="M55833 61663 l7 -6 7 6 6 7 -13 0 -13 0 6 -7z"/>
<path d="M92183 61549 l42 -92 94 -93 c51 -52 97 -94 102 -94 5 0 -36 45 -90
100 l-98 99 -39 86 c-21 47 -41 85 -45 85 -4 0 11 -41 34 -91z"/>
<path d="M60596 61594 c-19 -18 -29 -53 -24 -85 l3 -22 10 -4 10 -3 0 47 0 46
11 4 c6 2 20 10 30 18 l19 14 -22 1 -22 0 -15 -16z"/>
<path d="M55523 61593 l7 -6 7 6 6 7 -13 0 -13 0 6 -7z"/>
<path d="M55433 61573 l7 -6 7 6 6 7 -13 0 -13 0 6 -7z"/>
<path d="M55303 61543 l7 -6 7 6 6 7 -13 0 -13 0 6 -7z"/>
<path d="M55213 61523 l7 -6 7 6 6 7 -13 0 -13 0 6 -7z"/>
<path d="M55123 61503 l7 -6 7 6 6 7 -13 0 -13 0 6 -7z"/>
<path d="M54993 61473 l7 -6 7 6 6 7 -13 0 -13 0 6 -7z"/>
<path d="M54953 61463 l7 -6 7 6 6 7 -13 0 -13 0 6 -7z"/>
<path d="M54903 61453 l7 -6 7 6 6 7 -13 0 -13 0 6 -7z"/>
<path d="M54863 61443 l7 -6 7 6 6 7 -13 0 -13 0 6 -7z"/>
<path d="M54813 61433 l7 -6 7 6 6 7 -13 0 -13 0 6 -7z"/>
<path d="M92613 61134 c92 -92 169 -165 172 -162 6 6 -311 322 -328 326 -7 2
63 -72 156 -164z"/>
<path d="M61204 61125 c3 -11 51 -236 106 -500 115 -546 111 -527 117 -521 3
2 -44 233 -102 513 l-107 508 -10 10 -10 10 6 -20z"/>
<path d="M54664 60873 c3 -10 26 -110 51 -222 41 -188 55 -237 55 -200 0 7
-21 109 -47 226 l-47 213 -9 0 -8 0 5 -17z"/>
<path d="M49865 60723 c-10 -43 -20 -84 -22 -90 l-5 -13 14 0 15 0 16 60 c10
33 17 73 17 90 l0 30 -8 0 -8 0 -19 -77z"/>
<path d="M60315 60605 l-80 -44 -48 -42 c-27 -22 -46 -43 -43 -46 3 -3 26 13
52 36 25 22 76 57 113 77 79 44 109 64 96 64 -6 0 -46 -21 -90 -45z"/>
<path d="M43410 60385 l-12 -14 154 -170 153 -170 14 14 14 14 -33 38 c-63 72
-273 303 -275 303 -2 0 -8 -7 -15 -15z"/>
<path d="M54773 60383 l7 -6 7 6 6 7 -13 0 -13 0 6 -7z"/>
<path d="M59895 60269 l-140 -120 -355 -268 c-195 -147 -364 -273 -376 -279
l-20 -11 -68 162 c-38 89 -107 235 -153 325 l-85 163 -36 -7 c-21 -4 -46 -11
-57 -15 l-20 -8 55 6 55 5 116 -238 c64 -132 131 -275 149 -319 18 -44 42
-100 53 -125 51 -117 130 -297 138 -319 5 -13 12 -21 15 -19 2 3 -28 81 -68
173 l-73 168 14 5 c19 6 332 244 327 249 -2 2 -77 -50 -165 -116 -89 -67 -166
-121 -171 -121 -5 0 -11 4 -14 9 l-6 9 43 27 c23 16 184 135 357 265 l315 237
150 128 c176 149 170 144 164 149 -2 2 -67 -50 -144 -115z"/>
<path d="M45270 60375 c0 -6 72 -82 160 -170 88 -88 160 -155 160 -150 0 6
-72 82 -160 170 -88 88 -160 155 -160 150z"/>
<path d="M62113 60262 l-223 -45 0 -7 0 -7 223 45 c122 25 224 47 226 49 15
11 -29 5 -226 -35z"/>
<path d="M62118 60222 c-120 -25 -216 -48 -213 -50 2 -3 104 15 225 39 l220
43 0 8 c0 10 23 14 -232 -40z"/>
<path d="M46095 59958 l-220 -222 160 151 c198 187 303 293 290 293 -6 0 -109
-100 -230 -222z"/>
<path d="M44916 59958 c69 -81 668 -708 671 -704 6 5 -674 726 -684 726 -3 0
2 -10 13 -22z"/>
<path d="M44937 59874 c124 -137 272 -289 272 -281 1 9 -318 351 -333 356 -6
2 21 -31 61 -75z"/>
<path d="M58810 59913 c0 -6 32 -80 71 -164 39 -85 106 -239 150 -343 78 -185
98 -229 99 -213 0 19 -299 710 -316 726 -2 2 -4 0 -4 -6z"/>
<path d="M86559 59764 c-90 -69 -166 -131 -168 -137 l-4 -12 14 11 c8 6 85 66
172 133 141 110 166 131 153 131 -2 0 -77 -57 -167 -126z"/>
<path d="M63620 59822 c0 -6 70 -347 156 -759 85 -411 207 -1004 270 -1318 98
-490 203 -987 221 -1048 2 -10 7 -17 9 -14 2 2 -16 98 -41 212 -25 115 -48
225 -51 244 -17 107 -552 2683 -559 2689 -3 3 -5 0 -5 -6z"/>
<path d="M63660 59824 c-1 -22 186 -884 191 -884 l7 0 -8 38 c-5 20 -48 219
-95 442 -79 367 -94 433 -95 404z"/>
<path d="M61992 59790 c3 -8 20 -91 38 -185 18 -93 35 -177 37 -185 l4 -14 7
11 7 11 413 82 412 83 0 7 0 7 -412 -84 -412 -83 -6 7 c-4 5 -22 82 -40 173
l-32 165 -11 10 -10 10 5 -15z"/>
<path d="M61504 59683 c2 -10 19 -90 36 -178 17 -88 35 -169 41 -180 l10 -20
-5 22 c-2 12 -19 101 -37 198 l-34 175 -8 0 -8 0 5 -17z"/>
<path d="M61850 59350 c-96 -22 -188 -39 -204 -40 l-28 0 7 -17 c3 -10 21 -93
38 -185 17 -93 34 -168 37 -168 l7 0 -33 173 -32 172 6 6 c4 3 90 23 192 44
102 21 194 42 205 46 l20 8 -20 0 c-11 -1 -99 -18 -195 -39z"/>
<path d="M83804 59145 c4 -11 89 -177 190 -370 101 -192 189 -367 195 -387 7
-21 16 -40 21 -43 l9 -6 -18 53 -18 53 -188 355 c-177 336 -208 392 -191 345z"/>
<path d="M50060 59106 c0 -3 235 -200 298 -250 l25 -20 -4 11 c-4 12 -303 263
-313 263 -3 0 -6 -2 -6 -4z"/>
<path d="M62120 59014 c2 -27 78 -376 79 -359 1 28 -63 353 -72 361 l-7 7 0
-9z"/>
<path d="M62853 58802 c-94 -21 -175 -41 -180 -45 l-8 -9 25 6 c14 3 104 22
200 42 195 39 208 42 165 42 -16 0 -107 -16 -202 -36z"/>
<path d="M84073 58708 c19 -35 59 -110 90 -168 l55 -105 12 -42 11 -43 10 0
10 0 -6 10 -6 10 28 11 c67 27 423 204 415 207 -5 1 -101 -42 -212 -98 -112
-55 -211 -100 -221 -100 l-17 0 -6 26 c-10 36 -179 354 -189 354 l-9 0 35 -62z"/>
<path d="M63940 58479 c0 -8 104 -511 230 -1119 127 -607 230 -1108 230 -1113
l0 -9 14 5 14 5 21 -14 21 -15 0 -33 0 -33 -18 -16 -19 -17 -29 0 -30 0 -10
10 -10 10 -262 -52 c-144 -29 -262 -55 -262 -59 0 -3 116 17 258 46 l259 51
20 -13 20 -13 31 6 31 6 21 23 22 24 -9 38 -9 38 -29 15 c-17 8 -31 15 -32 16
-2 0 -107 500 -234 1110 -127 610 -232 1111 -235 1113 -2 2 -4 -2 -4 -10z"/>
<path d="M60873 58322 c-226 -48 -415 -91 -420 -95 l-8 -9 25 6 c14 4 209 44
434 91 370 76 457 97 400 94 -10 -1 -204 -40 -431 -87z"/>
<path d="M49372 58155 c-51 -63 -95 -122 -99 -132 l-6 -18 15 15 c19 20 182
221 192 238 l7 12 -8 0 c-4 0 -50 -52 -101 -115z"/>
<path d="M34545 57950 l-6 -10 8 0 c4 0 15 5 23 10 l15 10 -17 0 c-9 0 -20 -4
-23 -10z"/>
<path d="M62133 57782 c-117 -25 -213 -48 -213 -52 0 -7 448 85 457 94 l6 6
-19 -1 c-10 -1 -115 -22 -231 -47z"/>
<path d="M33680 57041 c0 -6 3 -11 8 -11 4 0 78 -11 165 -25 87 -14 169 -25
182 -25 l23 0 66 30 c69 30 94 52 29 24 -21 -8 -55 -22 -75 -31 l-37 -15 -173
27 c-95 15 -176 29 -180 32 l-8 4 0 -10z"/>
<path d="M57236 56862 c5 -5 77 -34 159 -65 83 -31 173 -65 202 -76 l52 -21 6
10 6 9 -37 16 c-20 8 -39 15 -43 15 -3 0 -77 27 -165 60 -87 33 -165 60 -174
60 l-16 0 10 -8z"/>
<path d="M82923 56591 l-213 -55 0 -7 0 -7 213 55 c116 30 214 57 216 59 14
13 -26 5 -216 -45z"/>
<path d="M79450 56580 l-45 -30 -91 -30 -91 -31 -87 -6 -86 -6 0 -8 0 -8 53 5
c28 2 71 7 95 9 l43 5 93 31 93 32 39 33 c49 41 43 43 -16 4z"/>
<path d="M76406 56558 c15 -77 66 -263 86 -315 l23 -57 14 -4 14 -5 -8 19
c-24 54 -69 201 -89 288 l-23 100 -11 4 -12 4 6 -34z"/>
<path d="M79482 56554 l-32 -26 -87 -35 -87 -35 -91 -10 c-49 -5 -100 -12
-112 -14 l-23 -4 0 -10 0 -10 26 10 25 10 49 0 c27 0 73 5 102 11 l53 11 90
43 90 43 19 21 c25 28 18 26 -22 -5z"/>
<path d="M90646 56521 c5 -5 68 -35 139 -66 72 -31 149 -68 173 -82 24 -13 46
-23 48 -20 6 6 -170 97 -276 142 -86 37 -100 41 -84 26z"/>
<path d="M90620 56490 c0 -4 55 -31 123 -60 l122 -53 235 -125 235 -125 28
-25 27 -26 0 11 0 11 -52 35 c-84 56 -472 259 -600 315 l-118 50 0 -8z"/>
<path d="M54491 56437 l-11 -14 6 -6 7 -6 19 10 19 10 -6 10 c-9 13 -21 11
-34 -4z"/>
<path d="M64346 56231 l-18 -20 4 -11 3 -11 23 30 23 31 -9 0 c-5 0 -17 -9
-26 -19z"/>
<path d="M37210 56115 c-55 -12 -287 -101 -304 -116 l-10 -9 10 0 c5 0 61 21
124 47 l115 46 70 16 70 17 -10 5 -10 6 -55 -12z"/>
<path d="M63777 56005 l-18 -25 -24 -6 -25 -6 0 -10 0 -10 28 7 27 6 23 21
c21 21 30 48 15 48 -5 0 -16 -12 -26 -25z"/>
<path d="M35736 55921 c5 -5 23 -12 39 -16 l30 -6 -25 15 c-14 8 -32 15 -39
16 l-15 0 10 -9z"/>
<path d="M25492 55889 l4 -12 120 -75 c65 -41 143 -90 172 -109 30 -19 57 -33
62 -31 7 3 -55 44 -304 203 l-58 37 4 -13z"/>
<path d="M55619 55768 c-175 -192 -203 -222 -244 -255 l-39 -32 7 -7 6 -7 46
38 c45 36 311 322 328 352 5 8 7 17 4 19 -3 3 -51 -46 -108 -108z"/>
<path d="M46936 55712 l-5 -9 33 -109 c19 -60 46 -136 61 -169 15 -33 36 -79
46 -102 l18 -43 16 6 15 6 0 13 c0 7 -18 52 -40 100 -22 47 -56 138 -75 201
l-36 114 -14 0 c-8 0 -16 -4 -19 -8z"/>
<path d="M25957 55613 l-8 -23 16 -27 17 -28 243 -167 c134 -93 249 -168 255
-168 6 0 -25 25 -69 55 -302 207 -416 288 -427 303 -7 10 -14 31 -16 47 l-3
30 -8 -22z"/>
<path d="M61980 55124 c0 -5 19 -111 42 -236 l43 -228 7 0 8 0 -5 23 c-3 12
-23 116 -45 231 -35 182 -49 244 -50 210z"/>
<path d="M52125 54742 l-140 -216 -137 -175 c-75 -97 -135 -178 -132 -180 2
-2 6 -2 7 0 2 2 62 78 133 169 l130 165 133 205 c74 113 141 215 149 228 l14
22 -8 0 c-5 -1 -72 -98 -149 -218z"/>
<path d="M48431 54908 c6 -28 234 -496 237 -488 3 8 -223 488 -235 500 -3 3
-4 -3 -2 -12z"/>
<path d="M52345 54880 c3 -5 10 -10 15 -10 11 0 565 -379 564 -386 -1 -3 -55
-87 -120 -187 -64 -100 -124 -192 -132 -204 -8 -13 -11 -23 -8 -23 8 0 280
410 284 429 l4 13 -10 -6 -10 -6 -244 167 c-275 188 -328 223 -341 223 l-8 0
6 -10z"/>
<path d="M48955 54549 c-132 -70 -244 -130 -250 -132 -5 -3 -8 -7 -5 -10 3 -3
113 53 245 124 132 71 245 130 250 132 6 3 8 7 5 10 l-5 5 -240 -129z"/>
<path d="M50243 54627 c-57 -28 -103 -55 -103 -59 l0 -8 110 55 c99 50 125 66
103 64 -5 0 -54 -23 -110 -52z"/>
<path d="M50229 54486 l-11 -23 47 -64 c55 -76 55 -75 55 -62 0 5 -20 36 -44
68 l-44 59 9 23 c11 30 2 30 -12 -1z"/>
<path d="M50797 54363 l-5 -8 189 -155 c104 -85 194 -156 199 -158 l10 -4 0 9
c0 7 -309 265 -371 311 l-18 12 -4 -7z"/>
<path d="M84658 54261 c-170 -75 -268 -126 -268 -137 0 -3 28 10 63 29 34 19
132 65 217 102 134 59 186 85 170 85 -3 0 -85 -36 -182 -79z"/>
<path d="M51450 54306 c32 -32 195 -155 199 -150 2 2 2 6 0 7 -126 104 -248
192 -199 143z"/>
<path d="M49152 54077 c-128 -66 -231 -122 -228 -124 4 -4 231 108 396 196 52
28 88 50 80 49 -8 0 -120 -55 -248 -121z"/>
<path d="M53545 54143 c21 -21 225 -153 225 -146 0 8 -202 144 -224 152 l-11
4 10 -10z"/>
<path d="M53520 54111 c0 -11 219 -156 225 -149 3 3 -47 39 -110 81 l-115 77
0 -9z"/>
<path d="M48978 53780 c37 -76 70 -139 74 -140 4 0 -23 63 -59 140 -37 77 -70
140 -74 140 l-8 0 67 -140z"/>
<path d="M13470 53874 c1 -5 161 -138 357 -296 l356 -287 9 5 c5 3 8 7 6 9
-125 104 -705 568 -714 572 l-14 5 0 -8z"/>
<path d="M49530 53863 c0 -9 61 -152 166 -385 21 -48 42 -88 46 -88 4 0 -9 35
-28 78 -20 42 -42 93 -49 112 -27 72 -117 275 -126 285 l-9 9 0 -11z"/>
<path d="M50658 53646 c-147 -72 -268 -134 -268 -138 0 -6 528 247 539 258 20
20 -41 -7 -271 -120z"/>
<path d="M53143 53637 c-112 -56 -203 -105 -203 -109 0 -5 95 39 210 97 188
94 227 116 203 114 -5 0 -99 -46 -210 -102z"/>
<path d="M54756 53686 c21 -19 41 -32 44 -29 6 6 -61 63 -74 63 -5 0 8 -15 30
-34z"/>
<path d="M80880 53681 c-8 -5 -114 -32 -235 -61 -121 -29 -222 -54 -224 -56
-17 -15 33 -5 239 46 l234 59 6 -9 c3 -4 27 -97 54 -207 27 -109 52 -202 56
-207 5 -4 -16 87 -45 204 l-53 213 5 13 5 14 -13 0 c-8 0 -21 -4 -29 -9z"/>
<path d="M51221 53515 c51 -41 94 -73 97 -70 3 3 3 6 1 8 -2 2 -42 34 -87 70
-46 37 -88 67 -94 67 -5 0 32 -34 83 -75z"/>
<path d="M29343 53422 c-227 -75 -413 -140 -413 -144 l0 -7 58 20 c31 11 219
72 417 135 198 64 364 120 370 125 l9 9 -14 -1 c-8 -1 -201 -62 -427 -137z"/>
<path d="M51936 53461 l-20 -8 10 -5 9 -6 25 14 25 13 -15 0 c-8 0 -24 -4 -34
-8z"/>
<path d="M51780 53407 c-47 -18 -102 -43 -123 -55 l-37 -24 6 -9 5 -9 29 20
c16 11 74 38 130 58 l100 38 -6 7 c-10 9 -8 10 -104 -26z"/>
<path d="M49766 53327 l6 -18 6 6 6 5 -13 13 -12 12 7 -18z"/>
<path d="M84143 53049 l61 -243 3 11 c5 14 -106 455 -117 467 -5 4 19 -101 53
-235z"/>
<path d="M49801 53254 l1 -19 5 13 5 13 -6 6 -6 6 1 -19z"/>
<path d="M54699 53233 l-15 -4 -90 -297 c-50 -163 -94 -306 -98 -317 l-8 -20
14 16 13 16 89 296 89 296 29 6 29 7 197 -131 198 -131 15 0 14 0 -205 135
-205 135 -25 -1 c-14 -1 -32 -3 -41 -6z"/>
<path d="M10242 53165 c9 -9 441 -135 446 -130 6 6 13 4 -227 75 -197 58 -230
66 -219 55z"/>
<path d="M66080 52995 c-58 -12 -154 -33 -215 -46 l-110 -23 15 -3 c16 -4 440
84 448 92 10 9 -33 3 -138 -20z"/>
<path d="M65265 52820 l-6 -10 15 0 c8 0 18 5 21 10 l6 10 -15 0 c-8 0 -18 -4
-21 -10z"/>
<path d="M52750 52775 l-12 -15 10 0 c12 0 26 19 19 26 -2 2 -10 -2 -17 -11z"/>
<path d="M65060 52747 c-204 -40 -217 -44 -209 -51 5 -5 451 82 458 89 10 11
-52 1 -249 -38z"/>
<path d="M51310 52723 c0 -14 195 -363 203 -363 l9 0 -20 33 c-11 17 -57 101
-102 185 -76 140 -90 163 -90 145z"/>
<path d="M84310 52241 c9 -38 21 -74 24 -80 l7 -11 19 0 c15 0 481 110 531
126 l17 5 27 -113 c32 -135 34 -142 40 -136 3 2 -9 61 -26 131 l-31 127 -13 0
c-7 0 -133 -30 -281 -66 l-268 -65 -12 15 c-6 9 -17 43 -24 76 l-13 60 -7 0
-8 0 18 -69z"/>
<path d="M27701 52260 c-7 -106 -41 -785 -41 -824 0 -27 2 -47 4 -45 7 7 48
834 43 866 l-4 28 -2 -25z"/>
<path d="M46600 52264 c0 -3 35 -21 78 -40 42 -19 118 -55 167 -81 l90 -46 48
-39 47 -39 0 10 c0 5 -15 24 -32 41 l-33 30 -85 44 c-72 38 -267 126 -277 126
-2 0 -3 -3 -3 -6z"/>
<path d="M49838 51974 l-188 -95 0 -9 0 -10 49 30 c27 17 115 62 195 101 131
63 162 80 139 79 -5 -1 -92 -44 -195 -96z"/>
<path d="M37525 51550 l6 -10 36 0 37 0 170 -45 c94 -25 177 -48 184 -50 l12
-4 0 7 0 7 -183 47 c-100 26 -201 50 -225 53 l-43 5 6 -10z"/>
<path d="M88037 51322 l-179 -136 12 -4 11 -4 175 133 c96 73 177 136 180 141
l5 8 -13 -1 c-7 0 -93 -62 -191 -137z"/>
<path d="M51282 51278 c-107 -55 -192 -101 -190 -103 3 -4 375 181 387 191 2
2 2 6 0 8 -2 3 -91 -40 -197 -96z"/>
<path d="M33438 51282 l-3 -8 -507 -29 -506 -28 -26 5 -25 5 -5 -13 -5 -13 8
-3 8 -3 57 -370 c31 -203 62 -399 68 -435 l11 -65 4 11 c2 6 -26 201 -62 434
l-66 422 6 6 c5 5 911 61 1010 62 l41 0 22 -187 c13 -104 45 -330 72 -503 27
-173 56 -362 65 -420 19 -127 25 -154 31 -148 2 3 -27 205 -65 449 -38 244
-79 522 -91 617 l-22 173 6 14 5 14 -14 11 -13 11 -4 -9z"/>
<path d="M28395 51009 c-4 -6 -5 -12 -3 -14 7 -7 48 7 48 16 l0 9 -19 0 -20 0
-6 -11z"/>
<path d="M4785 50940 l-5 -8 18 -8 c19 -8 445 -54 451 -48 13 12 -27 19 -206
35 -109 10 -210 23 -225 28 l-28 9 -5 -8z"/>
<path d="M7175 50785 c-44 -8 -81 -14 -83 -14 -2 -1 -1 -5 2 -9 l5 -9 93 14
93 15 138 -4 137 -4 0 7 c0 12 -73 19 -190 18 l-115 -1 -80 -13z"/>
<path d="M80110 50678 c1 -7 25 -116 54 -242 l52 -230 12 -4 12 -4 0 14 c-1 7
-24 116 -53 242 l-53 230 -12 4 -12 4 0 -14z"/>
<path d="M33610 50384 c0 -25 59 -377 64 -382 l6 -5 0 9 c0 26 -59 376 -64
381 l-6 6 0 -9z"/>
<path d="M9397 50372 l-6 -9 164 -149 c90 -82 170 -151 176 -153 l12 -3 -4 9
c-2 6 -65 66 -139 133 -74 68 -149 136 -166 152 l-32 30 -5 -10z"/>
<path d="M25634 50265 c-84 -35 -308 -155 -301 -161 2 -3 51 22 108 54 57 32
141 73 187 91 45 18 85 37 88 42 3 5 4 9 2 8 -2 0 -39 -16 -84 -34z"/>
<path d="M91439 48708 c-68 -78 -153 -178 -188 -223 -35 -44 -114 -132 -176
-195 -61 -63 -151 -158 -200 -210 l-88 -95 -43 -65 c-64 -98 -116 -161 -478
-570 l-332 -376 -59 -103 -59 -103 -34 -15 c-19 -8 -32 -16 -30 -19 3 -2 21 2
41 11 l36 15 58 102 58 103 305 345 c383 432 428 486 496 587 l54 82 87 93
c48 51 137 145 198 208 62 63 141 151 175 195 58 72 224 267 288 337 14 15 23
30 20 33 -2 3 -61 -59 -129 -137z"/>
<path d="M28423 48053 c9 -2 25 -2 35 0 l17 5 -35 0 -35 0 18 -5z"/>
<path d="M90245 47389 l-350 -400 -52 -92 -52 -91 -27 -14 -26 -14 -114 -12
-114 -12 -12 -12 -11 -11 46 -113 c25 -62 46 -106 47 -97 0 8 -16 54 -35 102
-19 48 -35 93 -35 101 l0 14 33 5 c17 3 68 9 112 13 l80 6 31 13 32 13 57 100
56 101 337 383 c185 211 343 392 351 401 l13 17 -8 0 c-5 -1 -166 -181 -359
-401z"/>
<path d="M74830 47606 c0 -20 11 -46 19 -46 l8 0 -5 30 -4 30 -9 0 -9 0 0 -14z"/>
<path d="M46425 47535 c19 -80 35 -162 35 -185 0 -14 5 -32 11 -40 l10 -15 -6
50 c-4 28 -13 84 -21 125 l-16 75 -10 10 -11 10 8 -30z"/>
<path d="M37832 47409 l-173 -7 -7 -7 -7 -6 185 7 c102 3 232 10 290 14 l105
7 -110 0 c-60 0 -188 -3 -283 -8z"/>
<path d="M33738 47256 l-186 -11 -9 -9 -8 -8 75 6 c41 3 163 11 270 17 107 6
197 13 199 15 7 6 -134 2 -341 -10z"/>
<path d="M46385 47160 c-24 -27 -16 -33 13 -10 l22 19 -8 5 -9 6 -18 -20z"/>
<path d="M20701 47103 c-22 -71 -62 -292 -60 -334 1 -13 14 48 30 136 l28 160
20 53 19 52 -8 0 c-4 0 -17 -30 -29 -67z"/>
<path d="M28617 46724 l-249 -12 -6 -8 -7 -7 115 6 c63 4 184 10 268 13 l152
7 0 8 0 9 -12 -1 c-7 -1 -125 -8 -261 -15z"/>
<path d="M57456 46272 l-5 -8 36 -60 c20 -32 146 -281 280 -551 l243 -493 10
0 c5 0 10 2 10 5 0 3 -99 202 -219 443 -120 241 -226 456 -235 477 -18 41
-105 195 -111 195 -2 0 -6 -4 -9 -8z"/>
<path d="M93060 46071 c0 -4 16 -15 35 -24 l36 -17 32 0 32 0 53 -25 54 -25
54 0 54 0 74 37 75 37 -4 6 -4 7 -77 -39 -76 -38 -42 0 -41 0 -47 25 -47 25
-38 0 -38 0 -42 20 -43 19 0 -8z"/>
<path d="M81366 45879 c-7 -19 -17 -50 -21 -69 -4 -19 -18 -58 -31 -87 l-23
-52 -26 -7 -25 -6 5 -32 6 -31 -10 -27 -10 -27 8 -6 9 -5 12 30 12 30 -5 26
-5 26 25 11 24 11 16 35 c19 45 63 205 57 210 -2 2 -10 -11 -18 -30z"/>
<path d="M81126 45581 l-7 -11 58 -215 58 -215 13 0 c6 0 12 3 12 7 0 17 -114
429 -120 436 l-8 9 -6 -11z"/>
<path d="M44430 45334 c0 -3 14 -35 31 -71 l31 -65 63 -64 63 -64 75 -35 c82
-38 87 -39 87 -26 l0 8 -62 28 c-35 16 -83 43 -108 62 l-45 34 -41 54 -41 55
-17 45 -18 45 -9 0 c-5 0 -9 -3 -9 -6z"/>
<path d="M94450 44533 c-63 -47 -124 -91 -134 -99 -11 -7 -18 -16 -15 -18 2
-3 69 42 148 100 l144 104 -14 -1 c-8 0 -66 -39 -129 -86z"/>
<path d="M87775 44195 l-38 -85 16 -17 c8 -10 41 -56 71 -103 l56 -85 0 13 c0
7 -27 54 -60 104 -33 51 -60 95 -60 99 0 4 15 42 34 83 l35 76 -8 0 c-5 0 -25
-38 -46 -85z"/>
<path d="M93963 44138 c3 -9 46 -72 95 -140 49 -68 99 -142 111 -165 l21 -42
30 -191 c17 -105 46 -273 65 -373 l35 -182 0 -45 0 -45 -20 -65 c-11 -36 -20
-69 -20 -75 l0 -9 9 9 c5 6 16 35 25 67 l16 56 0 64 0 63 -30 160 c-17 88 -46
253 -64 366 l-34 206 -22 43 c-19 38 -144 216 -203 290 l-20 25 6 -17z"/>
<path d="M52771 43885 c0 -5 11 -30 24 -55 13 -25 24 -40 24 -35 0 6 -11 30
-24 55 -13 25 -24 41 -24 35z"/>
<path d="M52891 43635 c0 -5 8 -26 19 -45 11 -19 19 -30 19 -25 0 6 -8 26 -19
45 -11 19 -19 31 -19 25z"/>
<path d="M12400 43470 c-47 -11 -332 -70 -633 -133 -302 -63 -551 -118 -554
-121 l-6 -6 6 -7 7 -6 58 11 c65 12 1185 249 1220 257 l22 5 0 10 0 10 -17 -1
c-10 -1 -56 -9 -103 -19z"/>
<path d="M51343 43168 l30 -203 10 -10 10 -10 -6 25 c-3 14 -18 109 -33 213
l-28 187 -6 0 -7 0 30 -202z"/>
<path d="M88383 43018 c35 -57 88 -142 118 -190 30 -48 58 -88 62 -88 l8 0 -7
13 c-59 102 -229 367 -235 367 l-9 0 63 -102z"/>
<path d="M52070 43035 c0 -3 44 -93 97 -200 l98 -195 10 0 11 0 -101 200 c-85
170 -115 221 -115 195z"/>
<path d="M50593 42664 c6 -165 10 -195 22 -183 2 3 2 85 -2 182 l-6 177 -10 0
-10 0 6 -176z"/>
<path d="M51208 42536 l-166 -21 -8 -8 -8 -8 39 6 c22 3 111 14 199 25 87 11
161 22 164 25 8 8 -40 4 -220 -19z"/>
<path d="M45812 41991 l-2 -54 83 -158 c45 -88 85 -159 89 -159 7 0 -107 228
-141 280 l-16 25 -6 60 -6 60 -1 -54z"/>
<path d="M31121 41830 c-74 -103 -133 -191 -133 -194 4 -16 26 11 150 182
l133 185 -8 7 -8 8 -134 -188z"/>
<path d="M57748 40923 c56 -2 148 -2 205 0 l102 3 -205 0 -205 0 103 -3z"/>
<path d="M57748 40883 c56 -2 148 -2 205 0 l102 3 -205 0 -205 0 103 -3z"/>
<path d="M45782 40128 c55 -95 108 -180 116 -188 l15 -15 -5 15 c-12 32 -207
355 -217 358 l-10 3 101 -173z"/>
<path d="M84780 39956 c0 -4 42 -69 93 -144 51 -75 110 -167 132 -204 21 -38
43 -68 47 -68 14 0 -217 364 -263 415 l-9 9 0 -8z"/>
<path d="M94312 39699 c-7 -24 -15 -50 -18 -56 l-6 -13 10 0 9 0 12 38 13 39
-3 18 -4 18 -13 -44z"/>
<path d="M65700 39625 c0 -3 -13 -71 -29 -152 -16 -82 -32 -183 -35 -225 l-6
-78 9 0 8 0 7 38 c3 20 6 55 6 77 0 22 14 105 30 185 34 167 33 160 20 160 -5
0 -10 -2 -10 -5z"/>
<path d="M52061 39378 c-9 -46 -53 -279 -66 -348 l-4 -25 9 20 c12 26 82 396
76 402 -2 3 -9 -19 -15 -49z"/>
<path d="M52107 39403 c-3 -10 -20 -97 -38 -193 l-33 -175 -7 -3 -8 -3 6 -15
5 -14 9 5 8 6 192 -36 c105 -20 198 -35 207 -33 8 2 -76 20 -188 41 -112 21
-206 40 -209 43 -3 2 12 91 32 196 20 106 35 194 33 196 -2 2 -7 -5 -9 -15z"/>
<path d="M52016 38981 c9 -8 397 -82 424 -81 l15 1 -20 9 c-20 9 -388 80 -415
80 l-14 0 10 -9z"/>
<path d="M59970 38784 c0 -13 105 -181 137 -219 40 -47 140 -135 154 -135 6 0
-11 18 -38 41 -26 22 -67 61 -91 87 l-43 47 -56 93 c-52 86 -63 101 -63 86z"/>
<path d="M86759 37682 c-118 -75 -235 -153 -260 -173 -24 -20 -162 -114 -307
-209 -144 -95 -261 -175 -258 -177 6 -6 554 354 596 391 19 17 131 91 248 165
116 73 212 135 212 137 0 11 -33 -8 -231 -134z"/>
<path d="M60410 37699 c141 -133 230 -212 234 -208 5 5 -301 289 -311 289 -4
-1 30 -37 77 -81z"/>
<path d="M86187 37247 c-125 -82 -226 -152 -223 -154 3 -3 105 61 228 142 243
161 233 153 227 159 -2 2 -107 -64 -232 -147z"/>
<path d="M53847 36878 c-3 -13 -40 -202 -82 -421 l-77 -398 6 -6 c3 -4 8 -4
10 -2 2 2 40 191 84 419 l80 415 -8 8 -7 8 -6 -23z"/>
<path d="M40605 36614 c-369 -82 -531 -113 -675 -127 l-115 -12 -3 -92 -3 -93
8 0 8 0 0 87 0 88 90 6 c119 9 260 35 674 125 l344 75 8 -8 8 -8 46 -305 c40
-268 55 -348 55 -299 0 8 -20 150 -45 314 -25 165 -45 303 -45 308 l0 7 -32
-1 c-18 0 -163 -30 -323 -65z"/>
<path d="M51561 36494 c2 -5 58 -59 124 -119 66 -60 137 -124 157 -144 21 -19
40 -32 43 -30 2 3 -57 61 -131 129 -163 147 -198 178 -193 164z"/>
<path d="M88100 35884 c-102 -63 -191 -119 -199 -123 l-14 -8 10 -6 10 -6 179
111 c178 110 212 133 203 142 -2 3 -87 -47 -189 -110z"/>
<path d="M41769 35677 l13 -17 -5 -26 -5 -26 10 10 10 10 -4 28 -3 27 -15 5
-15 5 14 -16z"/>
<path d="M84636 35479 c-137 -87 -244 -159 -238 -159 6 0 121 70 255 155 l244
155 39 0 39 -1 26 -22 26 -22 63 -110 c35 -60 84 -139 110 -175 46 -63 79
-114 312 -490 60 -96 115 -182 123 -190 l15 -14 0 11 c0 7 -4 14 -9 18 -10 6
-30 38 -242 387 -75 125 -164 262 -196 305 -33 43 -83 121 -113 173 l-53 95
-26 22 -26 22 -50 0 -50 0 -249 -160z"/>
<path d="M84916 35603 c-19 -5 -1081 -686 -1708 -1096 l-338 -220 0 -10 0 -9
28 18 c15 9 151 99 302 199 151 101 598 390 993 644 l719 461 24 0 24 0 20
-20 c11 -11 33 -45 49 -77 16 -32 60 -101 98 -153 38 -52 110 -161 159 -242
49 -82 92 -148 96 -148 11 0 -187 322 -252 410 -30 41 -72 108 -93 147 l-38
72 -22 16 c-22 15 -28 16 -61 8z"/>
<path d="M86800 35482 c0 -4 24 -20 53 -35 l54 -27 51 0 52 0 0 9 0 8 -60 6
-60 5 -36 21 c-37 22 -54 26 -54 13z"/>
<path d="M86884 35293 c-104 -64 -191 -118 -193 -120 -3 -2 0 -7 5 -12 l9 -10
185 116 c102 63 189 118 193 123 l9 8 -10 6 -9 6 -189 -117z"/>
<path d="M52363 34839 c-87 -83 -160 -156 -162 -162 -4 -13 199 175 284 262
99 102 32 47 -122 -100z"/>
<path d="M85905 34689 c-203 -126 -376 -233 -384 -238 l-14 -8 4 -12 4 -11
390 240 c215 132 392 245 393 250 l4 10 -14 -1 c-7 0 -179 -103 -383 -230z"/>
<path d="M85797 34689 l-147 -91 0 -9 c0 -5 2 -9 5 -9 3 0 73 42 156 94 l150
94 -9 6 -9 5 -146 -90z"/>
<path d="M77627 34453 c-92 -47 -165 -88 -163 -90 2 -2 77 33 167 78 l164 83
50 7 50 6 -50 1 -50 1 -168 -86z"/>
<path d="M55842 34325 c-112 -18 -206 -36 -209 -39 l-6 -6 10 0 c16 0 457 70
468 74 31 13 -85 0 -263 -29z"/>
<path d="M54912 34184 l-233 -32 -7 -7 -7 -8 35 6 c19 3 127 18 240 33 193 25
219 30 209 37 -2 2 -109 -11 -237 -29z"/>
<path d="M60546 33999 c-2 -8 -12 -68 -22 -134 l-17 -120 -16 -24 -15 -24 -51
-23 -50 -24 25 0 25 0 32 20 c18 10 39 29 47 42 l15 23 20 134 c11 74 18 137
16 139 -3 3 -7 -1 -9 -9z"/>
<path d="M84805 33835 c-170 -105 -225 -145 -202 -145 10 0 403 245 406 253 1
5 1 10 -1 12 -1 2 -93 -52 -203 -120z"/>
<path d="M58502 33795 c-6 -22 -29 -112 -52 -199 -23 -87 -46 -169 -51 -182
l-9 -24 9 0 9 0 11 33 c6 17 31 112 56 210 l46 178 -4 12 -4 12 -11 -40z"/>
<path d="M83495 33244 c-93 -63 -177 -119 -185 -124 l-15 -8 7 -8 8 -7 185
123 c103 68 188 127 191 132 l5 8 -13 -1 c-7 0 -89 -52 -183 -115z"/>
<path d="M64984 32998 l-7 -10 14 -9 c32 -21 379 -219 384 -219 3 0 5 6 5 13
l0 12 -38 21 c-20 11 -108 61 -194 112 l-157 91 -7 -11z"/>
<path d="M79780 32542 c0 -12 40 -47 70 -62 l25 -13 -25 29 c-43 50 -70 67
-70 46z"/>
<path d="M98907 31692 c78 -120 270 -392 276 -392 4 0 -33 60 -83 133 -51 72
-115 167 -144 209 -28 43 -55 78 -59 78 l-9 0 19 -28z"/>
<path d="M99820 30753 c-14 -2 -47 -11 -75 -20 l-50 -16 -53 -35 c-29 -19 -50
-37 -48 -39 3 -3 25 9 50 27 l46 31 57 20 56 19 51 1 c28 0 60 4 71 9 l20 9
-50 -1 c-27 0 -61 -3 -75 -5z"/>
<path d="M93937 29064 c-225 -163 -406 -298 -404 -301 4 -4 793 561 822 588
l9 9 -9 0 c-6 -1 -194 -134 -418 -296z"/>
<path d="M95310 26779 c-96 -71 -177 -134 -179 -140 -3 -9 325 226 359 257
l14 14 -9 -1 c-6 0 -89 -58 -185 -130z"/>
<path d="M89545 20878 c-77 -71 -142 -135 -144 -141 -4 -11 65 49 224 196 39
36 68 67 65 70 -3 2 -68 -54 -145 -125z"/>
<path d="M11417 20712 l-198 -25 9 -9 9 -9 227 27 226 28 0 8 0 8 -37 -1 c-21
-1 -127 -13 -236 -27z"/>
<path d="M96421 17133 c5 -16 350 -323 363 -323 l10 0 -9 8 c-19 16 -301 266
-334 296 l-34 31 4 -12z"/>
<path d="M97764 14345 c-252 -294 -461 -541 -463 -548 l-3 -12 14 15 c9 8 210
242 448 520 238 278 442 515 453 527 11 13 18 25 16 28 -3 2 -212 -236 -465
-530z"/>
<path d="M96565 12938 c-124 -144 -151 -178 -142 -178 4 0 91 99 255 293 8 9
13 19 11 21 -2 2 -58 -59 -124 -136z"/>
<path d="M26110 4000 l0 -10 108 0 107 0 119 -15 c110 -14 138 -14 124 0 -3 3
-58 12 -124 20 l-119 15 -107 0 -108 0 0 -10z"/>
<path d="M23015 2281 c3 -5 79 -68 170 -140 l164 -130 6 8 5 9 -165 131 c-91
72 -170 131 -176 131 l-10 0 6 -9z"/>
</g>
</svg>
