<?xml version="1.0" standalone="no"?>
<!DOCTYPE svg PUBLIC "-//W3C//DTD SVG 20010904//EN"
 "http://www.w3.org/TR/2001/REC-SVG-20010904/DTD/svg10.dtd">
<svg version="1.0" xmlns="http://www.w3.org/2000/svg"
 width="7500.000000pt" height="7500.000000pt" viewBox="0 0 7500.000000 7500.000000"
 preserveAspectRatio="xMidYMid meet">
<metadata>
Created by potrace 1.16, written by Peter Selinger 2001-2019
</metadata>
<g transform="translate(0.000000,7500.000000) scale(0.075000,-0.075000)"
fill="#000000" stroke="none">
<path d="M26760 98436 l0 -14 73 -43 c39 -24 108 -67 152 -95 44 -28 99 -63
122 -77 l42 -27 5 9 6 9 -93 58 c-50 32 -131 83 -178 115 -48 31 -96 62 -108
68 l-21 12 0 -15z"/>
<path d="M86310 96524 c0 -3 22 -31 49 -61 l49 -55 64 -118 63 -118 8 5 8 5
-63 119 -63 120 -48 55 c-43 48 -67 65 -67 48z"/>
<path d="M7105 95596 l-110 -13 -87 -24 -88 -23 0 -14 0 -13 18 5 c9 2 54 14
99 26 l81 22 124 11 123 12 -2 10 -2 10 -23 2 c-13 0 -72 -5 -133 -11z"/>
<path d="M87837 93332 c-10 -10 -17 -22 -17 -27 l0 -8 21 19 21 18 70 -72 70
-72 19 0 c10 0 21 5 24 10 l6 10 29 0 c16 0 41 -5 56 -10 42 -16 42 -2 -1 16
l-38 16 -45 -12 -45 -11 -71 70 c-40 39 -74 71 -77 71 -3 0 -13 -8 -22 -18z"/>
<path d="M56755 92947 c11 -8 72 -42 135 -77 63 -34 135 -74 160 -88 25 -14
41 -20 35 -14 -11 12 -331 192 -342 192 -4 0 1 -6 12 -13z"/>
<path d="M96206 92651 l-166 -180 11 -7 11 -6 23 23 c18 20 186 203 283 310
l24 27 -10 6 -10 6 -166 -179z"/>
<path d="M21866 92763 c-3 -3 -6 -15 -6 -25 l0 -18 9 0 c5 0 11 9 14 20 l5 20
-8 5 c-4 2 -10 2 -14 -2z"/>
<path d="M95775 92568 c-152 -179 -677 -834 -839 -1048 -87 -114 -196 -235
-251 -278 l-28 -23 10 -10 11 -11 94 93 94 94 194 250 c260 333 624 787 726
906 l83 97 -6 6 c-12 11 -18 6 -88 -76z"/>
<path d="M21853 92522 l6 -118 16 -70 c19 -77 56 -174 68 -174 11 0 8 18 -7
49 -35 66 -67 239 -68 356 l0 75 -11 0 -10 0 6 -118z"/>
<path d="M55898 91647 c-53 -100 -98 -189 -100 -197 l-3 -15 13 0 14 0 99 190
c54 105 99 193 99 198 0 4 -6 7 -12 7 l-13 -1 -97 -182z"/>
<path d="M82257 91713 l-197 -105 0 -14 0 -15 23 12 c108 57 374 203 380 209
l9 8 -9 5 -9 6 -197 -106z"/>
<path d="M94991 91262 c-16 -21 -49 -74 -72 -118 -23 -43 -49 -86 -56 -96
l-14 -16 9 -6 9 -5 20 22 c12 12 37 55 57 95 l37 72 34 39 35 38 -7 7 c-12 12
-21 6 -52 -32z"/>
<path d="M94508 91080 c-9 -6 -39 -41 -67 -79 l-50 -69 13 -5 14 -6 48 70 47
69 14 0 13 0 0 15 c0 17 -8 18 -32 5z"/>
<path d="M94780 90882 c0 -4 15 -16 33 -27 17 -10 53 -37 80 -58 26 -22 49
-38 52 -36 6 7 -68 68 -122 102 l-43 27 0 -8z"/>
<path d="M28260 90821 l0 -7 211 -63 c115 -35 213 -61 215 -58 6 6 -3 9 -216
72 -85 25 -167 50 -182 55 l-28 9 0 -8z"/>
<path d="M95010 90724 c0 -6 24 -34 53 -62 l54 -50 59 -30 c88 -44 644 -275
650 -269 3 2 -129 60 -293 128 l-298 123 -60 35 -60 34 -52 51 -53 50 0 -10z"/>
<path d="M29720 90588 l0 -14 68 -17 c48 -13 344 -57 380 -57 1 0 2 6 2 13 l0
13 -152 18 -153 17 -55 15 c-30 8 -63 17 -72 20 l-18 5 0 -13z"/>
<path d="M95395 90452 c6 -6 132 -61 280 -122 149 -62 308 -132 355 -155 l85
-43 45 -46 c24 -25 49 -46 54 -46 l10 0 -54 56 -55 56 -67 34 c-37 18 -123 56
-193 84 -69 27 -180 73 -248 101 -67 28 -144 60 -172 71 l-50 19 10 -9z"/>
<path d="M29566 90442 c5 -5 56 -28 114 -50 l105 -41 103 -24 102 -24 0 7 c0
4 -44 17 -98 29 l-99 22 -114 44 c-120 47 -129 50 -113 37z"/>
<path d="M36766 89802 l-6 -10 67 -15 c38 -9 139 -26 225 -38 l158 -23 7 7 6
7 -6 6 c-3 3 -90 19 -194 34 -103 16 -202 32 -219 35 l-32 7 -6 -10z"/>
<path d="M33720 89670 l0 -30 10 0 10 0 0 30 0 30 -10 0 -10 0 0 -30z"/>
<path d="M77788 89232 c-109 -59 -198 -110 -198 -114 0 -18 34 -2 214 96 l190
103 4 11 4 12 -9 -1 c-4 0 -97 -48 -205 -107z"/>
<path d="M97580 89281 l-65 -7 -117 -63 c-65 -34 -121 -67 -124 -73 -4 -5 55
22 130 61 l136 71 63 1 c34 1 73 5 87 9 l25 8 -35 -1 c-19 0 -64 -3 -100 -6z"/>
<path d="M97555 89243 c-30 -8 -267 -135 -261 -140 2 -3 60 24 128 60 l123 66
85 9 85 9 -70 1 c-38 0 -79 -3 -90 -5z"/>
<path d="M85381 88979 c-58 -11 -78 -21 -26 -13 22 4 132 10 245 13 l205 7
-190 1 -190 1 -44 -9z"/>
<path d="M85740 88950 l0 -10 30 0 30 0 0 10 0 10 -30 0 -30 0 0 -10z"/>
<path d="M86335 88940 c28 -4 100 -11 160 -14 l110 -7 85 10 85 9 -140 -1
c-77 -1 -187 1 -245 5 l-105 7 50 -9z"/>
<path d="M85130 88894 c-96 -18 -190 -36 -209 -39 -18 -4 -31 -9 -28 -11 3 -3
93 11 200 30 108 20 203 36 211 36 l16 0 -90 -180 c-50 -99 -87 -180 -82 -180
6 0 192 362 192 375 0 8 -28 4 -210 -31z"/>
<path d="M89003 87337 l-1773 -592 0 -12 c0 -7 3 -13 8 -13 4 0 809 266 1790
592 l1782 592 -3 10 c-2 6 -10 12 -18 13 -8 1 -812 -265 -1786 -590z"/>
<path d="M15976 87890 c6 -6 95 -62 199 -125 l188 -114 9 5 c5 3 8 7 6 9 -19
17 -390 235 -399 235 l-13 0 10 -10z"/>
<path d="M81090 87701 l0 -11 28 -11 c15 -6 109 -40 210 -75 l182 -63 0 12 0
12 -198 69 c-108 38 -203 71 -209 73 l-13 5 0 -11z"/>
<path d="M83747 87363 c-3 -16 -26 -115 -50 -221 l-45 -193 11 4 11 3 47 205
c52 222 53 229 40 229 l-8 0 -6 -27z"/>
<path d="M83200 87012 l0 -7 210 -76 210 -76 0 11 0 11 -203 73 c-211 75 -217
77 -217 64z"/>
<path d="M83681 86916 c2 -2 65 -21 139 -41 74 -20 156 -43 183 -50 l47 -14 0
7 0 7 -177 48 c-167 45 -202 53 -192 43z"/>
<path d="M83570 86846 c0 -8 -68 -318 -95 -433 -18 -74 -18 -73 -5 -73 l9 0
10 38 c6 20 32 131 57 245 l46 209 -11 11 -11 11 0 -8z"/>
<path d="M83586 86657 c-21 -94 -47 -207 -56 -250 l-18 -78 11 4 11 3 52 230
c54 235 60 264 47 264 l-8 0 -39 -173z"/>
<path d="M86140 86360 l-185 -76 -157 -86 -156 -87 -199 -137 c-109 -76 -226
-161 -260 -190 l-61 -52 10 -10 11 -11 51 43 c28 24 146 108 261 188 l210 145
175 96 175 95 155 62 c85 34 159 66 165 71 l9 9 -9 9 -10 8 -185 -77z"/>
<path d="M75715 86048 c-2 -7 -38 -107 -79 -223 l-74 -210 5 -8 c3 -5 7 -6 9
-4 2 2 40 104 83 226 l78 221 -8 6 -9 5 -5 -13z"/>
<path d="M26330 85892 c0 -4 41 -28 91 -52 l92 -45 100 -68 c55 -37 102 -66
104 -63 2 2 -38 33 -89 69 l-93 64 -102 52 -103 51 0 -8z"/>
<path d="M56607 85823 c-2 -5 19 -56 47 -115 l51 -108 13 9 14 8 -50 107 -51
106 -10 0 c-5 0 -12 -3 -14 -7z"/>
<path d="M80426 85751 c25 -25 799 -299 811 -288 4 5 -9 10 -351 126 -114 39
-264 93 -331 121 -68 27 -127 50 -131 50 l-8 0 10 -9z"/>
<path d="M84331 85284 l-171 -155 6 -10 6 -11 22 20 c11 10 90 81 173 156
l153 138 -6 9 c-3 5 -7 9 -8 9 -2 0 -80 -70 -175 -156z"/>
<path d="M83036 85133 c-63 -126 -113 -230 -111 -231 14 -14 74 95 196 356
l48 102 -9 0 -10 0 -114 -227z"/>
<path d="M83927 84579 c-153 -137 -182 -169 -159 -169 5 0 84 68 176 151 l166
150 -5 10 c-4 5 -7 9 -8 9 -1 0 -78 -68 -170 -151z"/>
<path d="M86670 84546 l0 -13 238 -62 c225 -60 540 -146 645 -176 l48 -14 -4
12 -4 12 -154 43 c-85 23 -262 72 -394 108 -132 36 -270 74 -307 84 l-68 18 0
-12z"/>
<path d="M88151 84399 c-23 -88 -40 -163 -37 -166 2 -3 10 15 16 38 19 73 51
191 65 242 l14 47 -7 0 -8 0 -43 -161z"/>
<path d="M64336 84481 l-6 -9 16 -6 c20 -8 29 -1 19 13 -8 13 -22 14 -29 2z"/>
<path d="M83620 84348 c-361 -320 -570 -510 -570 -518 0 -5 4 -11 9 -14 l8 -5
24 25 c13 15 169 157 346 316 l323 290 -6 9 c-3 5 -6 9 -7 9 -1 -1 -58 -51
-127 -112z"/>
<path d="M82735 84288 c4 -24 17 -66 30 -95 l23 -52 40 -26 41 -27 41 -5 41
-6 59 18 59 18 22 23 22 24 -6 7 -7 7 -28 -21 c-15 -11 -51 -28 -81 -38 l-53
-17 -39 11 -38 12 -34 32 -34 32 -16 45 c-8 25 -18 57 -21 73 l-6 27 -11 0
-11 0 7 -42z"/>
<path d="M83358 84053 c-25 -27 -53 -62 -61 -78 l-15 -31 -8 -73 -7 -74 14 5
14 5 5 69 5 69 17 30 c9 17 35 48 57 70 39 38 50 55 33 55 -4 0 -28 -21 -54
-47z"/>
<path d="M0 84017 l0 -14 37 -26 38 -27 3 10 c5 14 -10 31 -47 53 l-31 18 0
-14z"/>
<path d="M83022 83725 l-22 -34 -40 -23 c-22 -13 -40 -26 -40 -30 0 -13 29 -9
60 7 l29 15 25 33 c27 35 32 52 18 61 l-7 4 -23 -33z"/>
<path d="M30229 83473 c10 -27 33 -84 51 -128 42 -105 86 -188 116 -216 l24
-22 7 6 6 7 -20 23 c-32 35 -87 143 -134 264 l-44 113 -12 0 -13 0 19 -47z"/>
<path d="M83270 83462 l0 -11 71 -55 71 -56 51 -15 51 -15 57 0 58 0 35 17 35
16 -5 8 -4 8 -37 -16 -37 -15 -73 5 -73 5 -42 22 c-24 12 -63 38 -88 58 -25
19 -51 40 -57 45 l-13 9 0 -10z"/>
<path d="M83230 83416 c0 -5 119 -98 149 -117 15 -8 55 -23 90 -33 l63 -18 61
7 c33 4 75 14 94 21 l33 14 0 10 0 9 -35 -15 -36 -15 -82 -1 -82 -1 -55 21
-55 22 -62 50 c-53 43 -83 60 -83 46z"/>
<path d="M47055 82918 c-5 -18 -75 -393 -75 -407 0 -6 4 -11 9 -11 l8 0 7 38
c3 20 21 117 39 215 l34 177 -9 0 c-5 0 -10 -6 -13 -12z"/>
<path d="M92781 82745 c-67 -98 -120 -179 -118 -182 3 -2 60 75 127 172 67 97
120 179 117 181 -3 3 -60 -74 -126 -171z"/>
<path d="M4684 81748 c-3 -5 -4 -11 -2 -13 6 -6 419 -165 429 -165 5 0 9 6 9
13 l0 14 -32 10 c-18 6 -115 42 -216 81 l-182 70 -6 -10z"/>
<path d="M96219 81430 c-35 -50 -149 -208 -252 -352 -103 -143 -186 -262 -184
-265 3 -2 76 94 163 214 86 120 194 268 239 328 45 61 90 122 100 138 l17 27
-9 0 c-5 0 -38 -41 -74 -90z"/>
<path d="M33156 81331 c17 -17 355 -211 367 -211 l11 0 -9 9 c-18 17 -356 211
-368 211 l-11 0 10 -9z"/>
<path d="M95933 81103 c-34 -49 -89 -127 -123 -175 -33 -49 -57 -88 -53 -88 4
0 40 46 80 103 39 56 94 135 122 175 28 39 48 72 43 72 -4 0 -35 -39 -69 -87z"/>
<path d="M42550 80837 c0 -7 15 -59 34 -115 l35 -102 7 -105 7 -105 13 0 c8 0
14 3 14 8 0 4 -5 52 -10 106 l-10 100 -37 113 -37 113 -8 0 c-4 0 -8 -6 -8
-13z"/>
<path d="M78509 79922 c-747 -538 -944 -685 -1344 -1001 -946 -750 -1293
-1027 -1810 -1446 -319 -259 -697 -565 -840 -680 l-260 -209 -124 -115 c-67
-64 -169 -168 -225 -231 l-103 -115 -114 -160 -115 -160 -70 -125 -71 -125
-110 -240 c-61 -132 -136 -298 -166 -370 -30 -71 -76 -175 -102 -230 -26 -55
-128 -293 -227 -530 -99 -236 -182 -433 -184 -436 -2 -4 2 -9 10 -12 l14 -6
107 257 c154 366 220 524 249 584 13 29 45 98 71 153 26 55 69 154 97 220 88
210 268 593 336 713 l66 117 117 165 118 165 106 120 105 119 108 101 c60 55
196 171 303 257 107 86 259 210 339 275 490 400 1056 856 1540 1239 305 242
670 532 810 645 370 296 650 505 1398 1044 l666 480 -1 10 c-1 5 -5 11 -10 12
-4 1 -312 -217 -684 -485z"/>
<path d="M72717 80053 l-5 -8 85 -120 c46 -66 88 -126 92 -134 l8 -14 12 4 11
4 -91 130 c-50 72 -95 134 -99 138 l-8 9 -5 -9z"/>
<path d="M96342 79361 c5 -15 260 -193 306 -213 l43 -19 12 4 12 4 -55 28
c-30 15 -112 68 -181 116 -122 86 -144 99 -137 80z"/>
<path d="M42447 78659 c-7 -19 -62 -157 -122 -308 l-108 -274 6 -96 6 -96 20
-60 c12 -33 19 -49 16 -35 -3 14 -12 66 -21 115 l-16 90 5 55 6 55 116 289
c64 158 114 291 111 293 -3 3 -11 -10 -19 -28z"/>
<path d="M99176 78275 l-69 -196 6 -6 7 -6 5 14 c63 176 135 382 135 385 0 2
-3 4 -7 4 -5 0 -39 -88 -77 -195z"/>
<path d="M98715 78219 l-6 -9 38 -16 c21 -9 112 -47 202 -86 l163 -70 9 9 9 9
-103 43 c-56 24 -148 63 -204 87 l-102 43 -6 -10z"/>
<path d="M75253 77300 c-202 -165 -399 -328 -436 -362 l-69 -63 -17 -64 -18
-65 -7 12 c-4 7 -11 12 -17 12 l-9 0 0 -12 c1 -16 46 -68 58 -68 l10 0 4 69 4
70 64 68 65 68 373 304 372 304 0 14 c0 7 -2 13 -4 13 -2 0 -170 -135 -373
-300z"/>
<path d="M42634 77446 c29 -23 397 -209 402 -203 3 3 -91 53 -208 111 -117 59
-204 100 -194 92z"/>
<path d="M45295 77403 c6 -6 44 -24 85 -41 41 -17 125 -52 185 -77 61 -25 106
-42 100 -37 -8 8 -300 135 -365 159 l-15 6 10 -10z"/>
<path d="M45765 76463 c-32 -76 -76 -175 -97 -220 -39 -84 -44 -103 -30 -103
6 0 159 344 199 448 l5 12 -9 0 -9 0 -59 -137z"/>
<path d="M74380 76543 c0 -5 26 -23 58 -41 31 -17 86 -48 121 -68 35 -20 61
-32 57 -26 -3 6 -43 32 -89 57 -45 26 -97 56 -114 67 l-33 20 0 -9z"/>
<path d="M45068 75152 l32 -29 30 5 30 4 0 9 0 9 -30 0 -31 0 -32 15 -32 16
33 -29z"/>
<path d="M72982 74443 c-17 -43 -43 -111 -56 -150 l-25 -73 10 -6 c6 -3 12 -4
13 -3 10 11 97 291 94 300 l-4 11 -32 -79z"/>
<path d="M46640 73422 c0 -9 9 -64 20 -122 11 -58 31 -197 45 -310 l25 -205
20 -80 c12 -44 35 -116 52 -159 l32 -80 153 -159 153 -159 39 -69 40 -68 56
-148 c137 -357 270 -707 310 -818 24 -66 51 -137 60 -159 l16 -39 10 10 10 10
-46 119 c-25 66 -125 328 -222 582 l-176 464 -39 68 -39 68 -153 159 -152 160
-32 79 -32 79 -24 110 -25 110 -16 155 c-10 85 -28 213 -41 284 -13 71 -24
130 -24 132 0 2 -4 4 -10 4 l-10 0 0 -18z"/>
<path d="M62180 70004 c-6 -14 -10 -28 -10 -31 0 -9 -70 -162 -117 -257 l-44
-89 9 -9 10 -10 34 59 c35 59 128 263 146 320 l10 31 -14 6 -15 6 -9 -26z"/>
<path d="M62235 69993 c-4 -10 -18 -49 -32 -88 -35 -97 -148 -311 -338 -640
-89 -154 -222 -388 -297 -520 -542 -960 -843 -1494 -889 -1580 -53 -98 -152
-307 -164 -345 l-6 -20 14 0 14 0 62 136 61 136 99 172 c54 94 237 416 406
716 555 984 707 1253 805 1425 54 94 127 226 163 295 l66 125 35 97 34 96 -5
6 c-11 11 -21 6 -28 -11z"/>
<path d="M68615 68932 c-66 -70 -123 -127 -126 -127 -4 0 -11 -4 -16 -9 l-8
-9 13 7 12 7 0 -8 c0 -4 -9 -19 -20 -33 l-20 -25 0 11 c0 5 5 15 12 22 l12 12
-7 7 -7 6 -26 -24 c-14 -13 -35 -39 -47 -59 l-22 -35 -377 -390 c-208 -214
-378 -393 -378 -397 0 -5 6 -8 13 -7 l12 1 384 398 c211 219 392 412 403 429
l20 31 7 -4 7 -5 148 155 149 155 -10 10 -9 9 -119 -128z"/>
<path d="M68380 68776 l-125 -114 -545 -562 -545 -562 -179 -167 c-214 -198
-315 -281 -889 -730 -481 -376 -615 -473 -787 -571 l-115 -66 -155 -56 c-172
-62 -245 -81 -400 -103 l-104 -16 -176 -9 c-96 -5 -398 -14 -670 -20 -272 -5
-603 -15 -735 -21 l-240 -10 -90 -15 c-116 -19 -371 -87 -455 -121 -36 -15
-265 -123 -510 -241 -245 -118 -645 -311 -889 -428 -243 -118 -518 -253 -610
-300 l-166 -87 -125 -86 -125 -85 -190 -162 c-104 -88 -250 -205 -324 -259
l-134 -98 -18 24 -18 24 -5 -6 -6 -5 20 -21 19 -21 -122 -89 -122 -89 -465
-273 -465 -274 -295 -195 c-244 -161 -380 -256 -444 -313 l-9 -8 16 -7 16 -6
68 55 c37 30 131 96 208 146 l140 91 13 -5 13 -5 -5 9 -6 9 140 91 c77 51 355
218 617 372 l477 281 124 90 124 91 9 -14 c5 -8 9 -17 9 -20 0 -3 12 -11 26
-18 l27 -12 -6 -36 -6 -37 16 17 17 17 -10 27 -9 28 -21 9 c-12 5 -26 18 -32
27 l-11 18 127 92 c70 51 212 165 315 253 l189 161 128 87 128 87 143 77 c79
42 194 102 254 132 261 130 651 320 785 382 80 37 305 145 500 240 195 95 398
190 450 211 l95 40 146 40 c80 21 183 46 228 54 l82 14 202 10 c111 6 427 15
702 21 275 6 597 15 715 21 l215 10 105 15 c58 8 145 25 195 36 l89 21 156 57
155 58 108 61 c167 95 296 189 772 561 562 439 673 530 878 720 l168 155 585
603 c322 331 631 644 687 695 98 89 113 107 92 113 l-10 3 -125 -113z"/>
<path d="M71502 68425 c-12 -55 -32 -157 -45 -227 l-24 -128 7 0 c3 0 19 69
34 153 15 83 34 177 43 208 l15 57 -4 18 -3 19 -23 -100z"/>
<path d="M41585 68313 c-53 -133 -155 -405 -155 -415 l0 -12 9 10 c8 7 171
419 171 430 0 12 -19 1 -25 -13z"/>
<path d="M41301 67718 l-71 -203 0 -22 0 -23 10 0 10 0 0 23 0 22 69 195 70
195 -8 8 -8 8 -72 -203z"/>
<path d="M60723 67357 c-170 -305 -238 -445 -324 -659 l-58 -147 -46 -174
c-25 -95 -45 -179 -45 -185 l0 -12 13 0 12 0 39 153 39 152 54 145 55 145 86
180 86 180 133 238 c73 132 133 243 133 248 0 5 -6 9 -12 9 l-13 0 -152 -273z"/>
<path d="M86665 67349 c-91 -78 -165 -145 -165 -150 0 -6 77 56 170 137 94 80
170 148 170 150 0 11 -20 -5 -175 -137z"/>
<path d="M41196 67248 c-3 -50 -6 -133 -6 -185 l0 -93 10 0 10 0 0 93 c0 52 3
135 6 185 l7 92 -10 0 -10 0 -7 -92z"/>
<path d="M66935 67251 c-11 -5 -29 -18 -39 -30 l-19 -21 51 21 52 22 0 8 c0
11 -18 11 -45 0z"/>
<path d="M37060 66799 c-80 -5 -154 -10 -165 -13 -32 -7 333 6 389 14 l51 8
-65 -1 c-36 0 -130 -4 -210 -8z"/>
<path d="M97280 66141 c-102 -26 -198 -51 -214 -55 l-29 -7 11 -11 11 -11 215
54 216 54 0 12 0 13 -12 -1 c-7 0 -96 -22 -198 -48z"/>
<path d="M97462 66128 c3 -13 22 -107 43 -210 l39 -188 12 0 12 0 -4 18 c-9
37 -84 392 -84 397 0 3 -5 5 -11 5 l-11 0 4 -22z"/>
<path d="M60300 66088 c0 -2 -26 -102 -59 -223 l-58 -220 -147 -405 c-82 -223
-166 -454 -187 -514 l-39 -109 22 15 22 15 177 489 178 489 57 215 c31 118 59
223 62 233 l4 17 -16 0 c-9 0 -16 -1 -16 -2z"/>
<path d="M65055 65880 l-100 -40 -115 -29 -115 -30 -95 -11 c-52 -6 -230 -17
-395 -25 -165 -8 -329 -19 -365 -24 l-65 -10 -515 -5 -516 -5 -158 -26 -158
-25 -146 -44 -147 -44 -215 -100 c-181 -84 -1384 -668 -1605 -779 l-70 -36 15
19 15 18 -110 -58 -110 -58 -30 -28 c-16 -15 -66 -52 -111 -81 l-81 -54 4 -12
4 -12 122 81 122 82 205 97 c113 53 464 224 780 379 316 155 690 335 830 399
l255 118 155 46 155 45 140 20 140 21 150 6 c83 4 310 7 505 7 l355 0 90 13
90 14 315 16 c173 8 349 20 390 25 108 15 259 55 383 102 l107 41 0 14 c0 16
12 19 -105 -27z"/>
<path d="M49020 65698 c-69 -116 -126 -218 -128 -227 -2 -9 49 72 113 179 65
107 126 210 137 228 l20 32 -9 0 c-4 0 -64 -95 -133 -212z"/>
<path d="M94818 65662 l-248 -45 0 -14 0 -13 23 5 c12 2 123 23 247 46 123 22
226 42 228 44 2 2 2 8 1 13 l-4 8 -247 -44z"/>
<path d="M52751 65463 c-7 -16 -53 -120 -102 -232 l-90 -204 6 -5 5 -6 9 10
c10 11 201 444 201 456 0 18 -17 6 -29 -19z"/>
<path d="M60123 65349 c-6 -19 -29 -84 -51 -146 l-41 -112 9 -6 8 -5 47 140
47 140 -4 11 -4 12 -11 -34z"/>
<path d="M31990 65290 l0 -20 23 -4 c12 -3 105 -14 207 -26 102 -11 195 -23
208 -25 l22 -5 0 20 0 20 -22 5 c-13 2 -104 14 -203 25 -99 11 -192 22 -207
25 l-28 5 0 -20z"/>
<path d="M39303 65054 c7 -7 410 -64 416 -58 2 2 -2 6 -10 8 -13 4 -387 56
-404 56 l-8 0 6 -6z"/>
<path d="M28978 64994 l-5 -9 19 -145 19 -145 -6 -55 c-8 -74 -31 -133 -80
-207 l-42 -63 -64 -49 -65 -49 -365 -207 c-200 -114 -395 -228 -434 -253 l-70
-45 -95 -89 -95 -90 -39 -61 c-21 -33 -52 -92 -68 -131 l-30 -71 -24 -113 -24
-112 0 -50 0 -50 34 -113 35 -112 53 -115 53 -116 201 -284 c110 -157 321
-468 468 -692 l268 -407 -8 -12 -7 -12 9 6 10 6 46 -107 c25 -59 55 -141 66
-182 l21 -75 15 -135 16 -135 -6 -120 -6 -120 -34 -224 c-31 -204 -34 -245
-19 -229 3 2 19 92 36 199 l31 194 7 155 8 155 -14 135 -13 135 -21 79 -21 80
-50 115 -50 116 -267 405 c-147 223 -360 537 -475 699 l-207 294 -49 107 -49
106 -25 90 c-13 49 -27 109 -30 134 l-6 45 24 120 24 120 34 80 c19 44 51 105
70 136 l36 56 94 85 c123 112 150 129 587 378 l374 213 67 51 67 51 36 55 c47
73 65 119 78 199 l10 66 -16 145 c-9 80 -20 154 -24 164 l-7 20 -6 -10z"/>
<path d="M35810 64960 c0 -11 1 -20 3 -20 2 0 100 -20 217 -45 117 -25 217
-45 222 -45 l8 0 0 20 0 20 -7 0 c-5 0 -104 20 -221 45 -118 25 -216 45 -218
45 -2 0 -4 -9 -4 -20z"/>
<path d="M36013 64953 l7 -6 7 6 6 7 -13 0 -13 0 6 -7z"/>
<path d="M36058 64943 l13 -5 6 6 6 6 -19 -1 -19 -1 13 -5z"/>
<path d="M36108 64933 c6 -2 18 -2 25 0 l12 5 -25 0 -25 0 13 -5z"/>
<path d="M36155 64925 c6 -3 91 -20 190 -40 l180 -36 420 -59 c231 -32 449
-61 485 -64 36 -3 -131 23 -370 58 -239 35 -537 83 -662 105 -124 23 -232 41
-240 40 l-13 -1 10 -3z"/>
<path d="M91652 64715 c-104 -50 -232 -119 -261 -141 -1 -1 0 -8 4 -13 l6 -11
42 25 c23 14 113 62 200 106 l157 79 0 10 c0 16 -7 13 -148 -55z"/>
<path d="M37180 64720 l0 -20 11 0 c14 0 383 -48 422 -55 l27 -4 0 19 0 20
-22 4 c-26 6 -410 56 -427 56 l-11 0 0 -20z"/>
<path d="M44011 64533 l-134 -204 6 -5 5 -6 80 119 c43 65 104 157 135 205
l56 87 -7 4 -7 5 -134 -205z"/>
<path d="M37513 64713 c9 -2 25 -2 35 0 l17 5 -35 0 -35 0 18 -5z"/>
<path d="M37593 64703 c9 -2 23 -2 30 0 l12 5 -30 0 -30 0 18 -5z"/>
<path d="M37663 64693 c9 -2 23 -2 30 0 l12 5 -30 0 -30 0 18 -5z"/>
<path d="M37748 64683 l13 -5 6 6 6 6 -19 -1 -19 -1 13 -5z"/>
<path d="M37833 64673 c9 -2 23 -2 30 0 l12 5 -30 0 -30 0 18 -5z"/>
<path d="M37923 64663 c9 -2 23 -2 30 0 l12 5 -30 0 -30 0 18 -5z"/>
<path d="M38008 64653 c12 -2 30 -2 40 0 l17 5 -40 -1 -40 0 23 -4z"/>
<path d="M38088 64643 c12 -2 32 -2 45 0 l22 4 -45 0 -45 0 23 -4z"/>
<path d="M38183 64633 c15 -2 37 -2 50 0 l22 4 -50 0 -50 0 28 -4z"/>
<path d="M60387 64458 c24 -101 47 -198 50 -215 l6 -33 9 0 10 0 -5 13 c-2 6
-26 103 -53 215 -27 111 -51 202 -55 202 -3 0 14 -82 38 -182z"/>
<path d="M38510 64599 l255 -29 135 -26 135 -26 210 -65 210 -64 120 -51 c66
-28 131 -57 145 -64 14 -8 108 -46 209 -84 l184 -71 8 13 8 13 -17 6 c-9 4
-181 70 -382 146 l-365 140 -125 38 c-69 20 -183 50 -255 66 l-130 29 -275 30
c-151 17 -286 29 -300 29 -14 -1 90 -14 230 -30z"/>
<path d="M37060 64571 l0 -20 38 -11 c20 -6 102 -19 182 -30 l145 -19 260 -15
c143 -9 270 -16 283 -16 l22 0 0 20 0 20 -29 0 c-16 0 -139 7 -273 15 l-243
15 -155 21 c-85 11 -164 22 -175 25 -11 3 -28 8 -37 10 l-18 5 0 -20z"/>
<path d="M36492 64555 c22 -22 422 -136 473 -134 l20 0 -20 9 c-11 4 -67 18
-125 31 -58 12 -157 39 -220 61 -109 36 -140 44 -128 33z"/>
<path d="M59788 64523 l-25 -28 -12 -34 c-13 -40 -11 -45 12 -28 l17 12 20 53
c11 28 19 52 17 52 -2 0 -15 -12 -29 -27z"/>
<path d="M77170 64383 c1 -54 5 -145 10 -203 l8 -104 30 -26 c17 -14 37 -39
46 -57 l16 -32 0 -51 0 -51 -13 -32 c-8 -18 -26 -47 -41 -64 l-28 -33 4 -17 3
-17 37 51 37 52 29 15 c15 8 44 17 65 21 l37 7 0 10 0 10 -42 -7 c-24 -4 -47
-11 -52 -16 -6 -5 -13 -9 -16 -9 l-6 0 4 59 4 59 -12 38 -13 39 -35 32 -35 32
-8 78 c-4 43 -8 131 -8 196 l-1 117 -10 0 -10 0 0 -97z"/>
<path d="M59756 64324 c-9 -8 -16 -20 -16 -26 l0 -10 22 14 c12 8 24 20 26 26
l4 12 -10 0 c-6 0 -18 -7 -26 -16z"/>
<path d="M59712 64313 l-20 -18 -45 -125 -45 -125 -52 -97 -53 -97 -71 -83
-72 -83 -93 -61 -94 -62 -93 -26 -93 -27 -158 -14 c-179 -15 -232 -26 -318
-65 -89 -40 -860 -498 -852 -506 2 -2 32 7 66 21 l62 26 344 204 c189 113 368
215 397 228 77 34 133 45 313 62 l160 14 95 29 95 29 70 43 c110 67 122 77
202 169 l75 86 50 99 c27 54 68 149 90 210 22 61 46 128 54 149 15 42 14 44
-14 20z"/>
<path d="M59542 64145 l-101 -104 -102 -138 c-56 -76 -115 -152 -131 -170
l-30 -31 7 -12 7 -11 20 18 c12 10 72 86 133 169 l113 151 87 84 87 84 14 27
c35 67 8 50 -104 -67z"/>
<path d="M50620 64192 c0 -4 99 -50 220 -101 l220 -94 6 6 6 6 -33 14 c-53 22
-350 148 -386 163 l-33 14 0 -8z"/>
<path d="M45765 64140 c77 -26 165 -58 195 -70 30 -12 78 -31 105 -42 l50 -19
-10 10 c-20 20 -438 172 -468 170 -7 0 51 -22 128 -49z"/>
<path d="M30502 64120 l-42 -48 -30 -57 -30 -57 0 -37 0 -36 -25 -69 c-13 -37
-31 -76 -40 -86 l-16 -18 -44 -11 -44 -11 -98 -1 c-54 0 -118 -4 -143 -8 l-45
-8 145 -2 145 -1 40 11 c22 6 50 19 63 28 l23 17 23 69 c13 39 26 91 29 117
l5 48 28 57 29 56 43 49 c24 26 40 48 35 48 -4 -1 -27 -23 -51 -50z"/>
<path d="M78490 64033 c-102 -13 -187 -26 -189 -29 -2 -2 -2 -7 1 -10 l6 -5
216 27 216 28 0 8 0 8 -32 -1 c-18 -1 -116 -12 -218 -26z"/>
<path d="M89611 63843 c8 -9 49 -58 93 -107 43 -50 97 -119 120 -153 l43 -63
6 6 7 7 -46 65 c-56 80 -214 262 -227 262 l-9 0 13 -17z"/>
<path d="M90097 63644 c-152 -133 -183 -164 -159 -164 5 0 84 65 176 146 l167
145 -6 10 c-4 5 -7 9 -8 9 -1 0 -77 -66 -170 -146z"/>
<path d="M77118 63688 l-28 -10 0 -14 c0 -17 -1 -17 39 -3 l31 11 0 14 c0 16
-4 16 -42 2z"/>
<path d="M59114 63665 c-28 -13 -127 -45 -220 -71 l-169 -47 -65 -33 -65 -33
35 6 c19 3 51 14 70 23 19 10 107 38 195 63 88 25 187 57 220 70 l59 25 4 11
4 11 -9 -1 c-4 0 -31 -11 -59 -24z"/>
<path d="M77001 63657 l12 -22 38 -218 c35 -203 43 -237 53 -226 6 7 -64 423
-74 442 l-10 17 10 0 10 0 0 13 0 13 -25 2 -26 2 12 -23z"/>
<path d="M41270 63574 c0 -6 32 -44 71 -85 39 -41 64 -65 57 -53 -21 34 -128
148 -128 138z"/>
<path d="M69965 63514 c-542 -153 -1139 -325 -1144 -330 -2 -2 -2 -7 2 -10 l6
-6 213 61 c232 67 854 243 1011 286 l97 28 0 8 c0 14 -14 11 -185 -37z"/>
<path d="M69605 63469 c-33 -10 -226 -67 -430 -126 -203 -59 -372 -108 -374
-110 -2 -2 -2 -6 2 -9 l6 -6 408 117 c224 64 423 121 441 126 l32 11 0 9 0 9
-12 -1 c-7 0 -40 -9 -73 -20z"/>
<path d="M34810 63397 c0 -4 -14 -96 -30 -204 -17 -108 -28 -198 -26 -201 7
-7 13 25 42 221 l26 179 -6 5 -6 6 0 -6z"/>
<path d="M6335 63280 c-66 -4 -139 -8 -162 -9 l-43 -1 0 -11 0 -12 193 7 c105
4 211 9 235 12 l42 6 0 9 0 9 -72 -2 c-40 -1 -127 -5 -193 -8z"/>
<path d="M43913 63171 l7 -99 10 -24 9 -23 -7 70 c-4 39 -7 94 -7 123 l0 52
-9 0 -9 0 6 -99z"/>
<path d="M60494 63142 c-40 -59 -78 -120 -87 -137 l-15 -30 -9 -82 -9 -83 7 0
6 0 7 73 8 72 17 40 c10 22 45 79 78 126 52 75 82 129 71 129 -2 0 -35 -49
-74 -108z"/>
<path d="M42766 63000 c-81 -70 -171 -151 -200 -181 l-51 -53 42 35 c132 109
363 313 363 320 0 5 -1 9 -2 8 -2 0 -70 -58 -152 -129z"/>
<path d="M15513 63093 l-103 -4 0 -14 0 -15 63 0 c34 0 113 3 175 7 l112 6 0
14 0 13 -72 -2 c-40 -1 -119 -4 -175 -5z"/>
<path d="M13735 63080 l-30 -8 160 1 160 2 35 -8 35 -7 -30 14 -30 15 -135 -1
-135 0 -30 -8z"/>
<path d="M13385 63069 l-69 -9 -11 -11 -10 -12 30 7 c17 4 76 10 133 15 57 5
106 11 109 15 l6 6 -59 -1 c-32 -1 -90 -6 -129 -10z"/>
<path d="M42251 63045 c-1 -9 98 -125 226 -268 l35 -39 5 6 6 5 -89 103 c-49
56 -110 124 -136 152 l-47 51 0 -10z"/>
<path d="M15077 63023 c-4 -3 -7 -19 -7 -34 l0 -28 10 -6 11 -7 -3 41 c-2 23
-3 41 -4 41 0 0 -4 -3 -7 -7z"/>
<path d="M10000 63009 l0 -9 107 0 c58 0 104 2 102 4 -2 2 -50 6 -106 9 l-103
5 0 -9z"/>
<path d="M10263 62993 c20 -2 54 -2 75 0 l37 4 -75 0 -75 0 38 -4z"/>
<path d="M3540 62974 c0 -3 21 -33 46 -66 l46 -60 10 10 10 10 -42 56 -42 56
-14 0 c-8 0 -14 -3 -14 -6z"/>
<path d="M3477 62913 l-19 -55 10 -10 9 -9 17 41 c17 43 21 76 8 83 l-7 5 -18
-55z"/>
<path d="M51590 62858 c-18 -40 -58 -124 -88 -186 l-54 -113 6 -6 6 -7 15 20
c8 10 49 93 91 183 l76 163 -9 9 -10 10 -33 -73z"/>
<path d="M57605 62883 c-107 -56 -298 -193 -270 -193 5 0 297 189 310 201 l9
9 -9 0 c-6 -1 -23 -8 -40 -17z"/>
<path d="M91005 62750 c82 -82 151 -147 154 -144 7 6 -281 294 -294 294 -5 0
57 -67 140 -150z"/>
<path d="M41312 62858 l-10 -13 14 -19 c8 -11 14 -28 14 -38 l0 -18 16 0 16 0
-7 38 -6 37 -13 13 -13 13 -11 -13z"/>
<path d="M43415 62729 c-82 -72 -152 -136 -154 -142 l-4 -12 24 21 c13 11 86
74 162 138 75 65 137 120 137 122 0 13 -30 -10 -165 -127z"/>
<path d="M89139 62721 c-68 -81 -199 -255 -199 -264 0 -4 6 -7 13 -7 l12 1 75
102 c41 56 99 129 127 163 l53 62 -13 5 -13 5 -55 -67z"/>
<path d="M58005 62409 c-115 -94 -212 -176 -214 -182 l-4 -11 49 39 c27 22
127 102 222 179 94 76 172 140 172 142 0 13 -35 -13 -225 -167z"/>
<path d="M27430 62460 c-96 -49 -171 -89 -167 -89 5 -1 85 36 178 81 l169 81
0 9 c0 11 19 19 -180 -82z"/>
<path d="M27643 62532 l-11 -7 120 -165 c66 -91 276 -399 466 -685 l346 -520
49 -110 c27 -60 58 -139 69 -175 l19 -65 15 -110 14 -110 0 -135 0 -135 -40
-250 -39 -250 -49 -150 c-27 -82 -59 -170 -70 -195 l-21 -44 7 -10 6 -10 29
64 c16 36 49 128 73 205 l45 140 34 218 35 218 6 139 7 139 -12 123 -13 123
-20 73 c-11 41 -42 126 -69 190 l-50 117 -352 530 c-194 291 -404 603 -468
692 l-116 161 -10 -6z"/>
<path d="M77526 62283 c2 -10 24 -103 49 -207 24 -104 47 -191 50 -194 17 -17
10 26 -33 208 l-47 203 -12 4 -11 4 4 -18z"/>
<path d="M40498 62225 c-37 -25 -65 -62 -55 -72 3 -2 11 5 17 17 l11 21 47 30
46 29 -15 0 c-8 0 -31 -11 -51 -25z"/>
<path d="M47040 61950 l47 -270 8 -8 8 -7 -6 25 c-3 14 -24 139 -48 278 -23
138 -45 252 -49 252 l-6 0 46 -270z"/>
<path d="M64248 62183 l-158 -4 0 -9 0 -10 118 0 c64 0 168 3 230 7 l112 6 0
9 0 8 -72 -2 c-40 -1 -144 -4 -230 -5z"/>
<path d="M40637 62068 c28 -94 39 -118 53 -118 13 0 13 6 0 28 -6 9 -21 50
-33 91 l-22 74 -12 4 -12 4 26 -83z"/>
<path d="M62453 61977 l-53 -10 0 -10 0 -9 46 7 c26 3 53 9 60 12 14 5 20 24
7 22 -5 -1 -32 -6 -60 -12z"/>
<path d="M62195 61867 c-110 -22 -202 -42 -204 -44 -2 -1 -1 -6 2 -9 l7 -7
187 37 c218 43 223 44 223 57 0 11 23 15 -215 -34z"/>
<path d="M57207 61693 c-48 -108 -86 -200 -85 -204 3 -7 52 97 164 349 l24 52
-8 0 c-4 -1 -47 -89 -95 -197z"/>
<path d="M59872 61772 c-64 -76 -127 -168 -212 -306 l-24 -40 11 7 c6 4 44 59
84 123 l74 116 72 85 c61 70 85 106 71 102 -2 0 -36 -39 -76 -87z"/>
<path d="M89692 61549 l-93 -203 3 -15 3 -15 93 208 93 207 -3 11 -4 11 -92
-204z"/>
<path d="M61178 61661 l-377 -76 -20 -19 c-12 -11 -22 -17 -24 -15 -2 2 -10
16 -19 30 l-17 26 -25 5 -26 5 0 -9 c0 -5 11 -13 23 -17 l24 -9 12 -29 12 -29
-9 -25 -10 -24 -23 -12 c-13 -6 -33 -15 -44 -19 l-20 -8 27 -4 27 -3 26 17 26
17 19 36 c10 20 27 44 37 54 l20 17 364 71 364 72 9 8 c5 5 8 10 5 12 -2 2
-174 -31 -381 -72z"/>
<path d="M57771 61705 c10 -9 434 -193 438 -189 7 6 9 5 -214 102 -189 83
-238 102 -224 87z"/>
<path d="M60563 61557 c-4 -7 -38 -37 -75 -67 -60 -47 -85 -76 -75 -86 3 -4
49 34 135 112 l45 41 -11 7 -11 6 -8 -13z"/>
<path d="M60522 61410 l-84 -49 -149 -146 -150 -147 3 -9 3 -9 162 155 c89 85
164 155 166 155 10 0 147 82 153 91 l5 9 -13 -1 c-7 0 -51 -22 -96 -49z"/>
<path d="M28825 61308 c-190 -95 -191 -96 -184 -102 2 -2 92 40 199 95 107 54
188 98 180 98 -8 0 -96 -41 -195 -91z"/>
<path d="M28846 61273 c-103 -52 -186 -96 -183 -99 4 -4 363 169 376 182 2 2
2 6 0 8 -2 2 -89 -39 -193 -91z"/>
<path d="M80000 61356 c0 -20 -45 -215 -55 -239 -7 -18 -32 -56 -54 -86 l-40
-54 5 -9 6 -9 47 63 48 63 11 35 c10 29 52 222 52 236 0 2 -4 4 -10 4 -5 0
-10 -2 -10 -4z"/>
<path d="M42790 61080 l-14 -9 15 -18 c102 -120 285 -319 296 -321 l13 -3 6
15 6 15 -108 118 c-185 203 -195 213 -197 213 -1 0 -9 -4 -17 -10z"/>
<path d="M49972 60820 c-18 -4 -36 -11 -40 -15 l-7 -7 45 7 c25 4 49 11 55 16
l9 9 -14 -1 c-8 -1 -30 -5 -48 -9z"/>
<path d="M49823 60783 l-23 -4 0 -9 0 -9 31 9 c55 16 50 24 -8 13z"/>
<path d="M55409 60600 c30 -17 56 -28 58 -26 6 5 -83 56 -99 56 l-13 0 54 -30z"/>
<path d="M48105 60596 l-70 -12 -85 -43 c-100 -51 -97 -48 -83 -62 l11 -11 84
45 83 45 98 13 97 12 0 14 0 13 -32 -1 c-18 -1 -64 -7 -103 -13z"/>
<path d="M57310 60460 c0 -5 12 -40 26 -77 14 -38 31 -95 37 -127 l13 -60 11
-3 11 -4 -13 63 c-8 35 -18 76 -24 91 -6 16 -11 33 -11 38 l0 10 62 -51 c59
-50 131 -100 144 -100 16 0 -8 23 -83 79 l-83 62 -36 45 c-35 43 -54 55 -54
34z"/>
<path d="M37443 60414 c4 -4 39 -13 79 -20 l73 -13 67 0 66 -1 78 -15 c43 -8
80 -13 82 -10 12 12 -126 35 -207 35 l-66 0 -85 15 c-98 17 -95 17 -87 9z"/>
<path d="M62595 60360 c-71 -15 -156 -33 -188 -40 -32 -6 -56 -14 -54 -17 7
-6 380 68 392 78 l9 9 -14 -1 c-8 0 -73 -13 -145 -29z"/>
<path d="M38833 60303 c10 -3 115 -15 233 -27 l214 -22 0 8 0 8 -22 0 c-13 0
-106 9 -208 20 -102 11 -196 19 -210 19 l-25 -1 18 -5z"/>
<path d="M57570 60190 l0 -13 7 6 6 7 -6 7 -7 6 0 -13z"/>
<path d="M57183 60176 l-81 -11 -9 -9 -8 -8 30 5 c17 3 58 9 93 12 l62 7 0 9
c0 5 -1 8 -2 7 -2 0 -40 -6 -85 -12z"/>
<path d="M58850 59931 c0 -7 44 -113 99 -235 54 -121 122 -281 152 -353 30
-73 57 -133 61 -133 4 0 -11 44 -33 98 -130 313 -279 645 -279 623z"/>
<path d="M58810 59913 c0 -6 30 -75 66 -154 36 -79 73 -159 81 -178 8 -18 16
-31 19 -28 4 4 -151 355 -162 366 -2 2 -4 0 -4 -6z"/>
<path d="M41050 59818 c-1 -18 -14 -95 -29 -171 l-28 -138 11 4 10 3 28 135
c15 74 27 149 28 167 l0 32 -10 0 -10 0 0 -32z"/>
<path d="M63661 59824 c0 -11 19 -111 44 -222 25 -111 45 -204 45 -207 0 -3 4
-5 8 -5 l8 0 -48 213 c-26 116 -49 219 -52 227 l-4 15 -1 -21z"/>
<path d="M28740 59802 l0 -8 153 -13 c83 -7 168 -15 187 -18 l35 -5 -10 10
-10 10 -160 11 c-88 7 -168 15 -177 17 l-18 5 0 -9z"/>
<path d="M29535 59744 c26 -10 400 -93 404 -89 2 3 -2 7 -10 9 -36 12 -372 86
-387 85 l-17 -1 10 -4z"/>
<path d="M83610 59576 c0 -14 214 -395 222 -396 4 0 -19 46 -51 103 -32 56
-84 147 -114 202 -31 55 -57 96 -57 91z"/>
<path d="M91363 59548 c7 -21 253 -344 269 -354 l11 -7 -8 14 c-9 15 -264 350
-273 359 -3 3 -2 -3 1 -12z"/>
<path d="M40896 59538 c-11 -39 -129 -370 -193 -542 -63 -169 -79 -225 -59
-205 7 7 243 641 259 696 l16 53 -10 5 -9 6 -4 -13z"/>
<path d="M77020 59540 l0 -10 225 0 225 0 0 10 0 10 -225 0 -225 0 0 -10z"/>
<path d="M77830 59505 l-55 -14 -377 -1 -378 0 0 -10 0 -10 368 -2 367 -3 75
17 75 17 47 -10 48 -11 9 -36 c5 -20 29 -112 52 -204 l43 -168 8 0 c13 0 11
10 -37 201 l-46 181 6 18 6 19 -38 11 c-21 6 -56 12 -78 15 l-40 4 -55 -14z"/>
<path d="M78095 59490 l6 -10 30 0 29 0 0 10 0 10 -36 0 -35 0 6 -10z"/>
<path d="M49462 59248 c-89 -117 -159 -214 -156 -217 2 -2 5 -2 7 0 104 132
318 422 314 425 -3 3 -77 -91 -165 -208z"/>
<path d="M46981 59412 c-6 -12 -11 -32 -11 -46 l0 -26 9 0 8 0 7 41 c8 48 2
60 -13 31z"/>
<path d="M76378 58330 l-3 -440 10 3 10 4 3 436 2 437 -10 0 -10 0 -2 -440z"/>
<path d="M84090 58594 c45 -85 90 -179 100 -207 l19 -52 0 20 c0 11 -8 38 -17
60 -24 57 -172 335 -178 335 -3 0 31 -70 76 -156z"/>
<path d="M59995 58401 c6 -5 96 -41 200 -80 l190 -69 12 10 12 10 23 -7 23 -6
-15 10 -15 11 -26 -5 -26 -6 -154 57 c-85 31 -172 63 -194 70 l-40 15 10 -10z"/>
<path d="M40524 58339 c-27 -31 -123 -94 -163 -107 l-34 -12 -78 0 -79 0 0
-10 0 -10 88 0 89 0 60 30 61 30 46 41 c43 38 57 59 38 59 -5 0 -17 -10 -28
-21z"/>
<path d="M82900 57926 c-96 -23 -197 -50 -225 -59 -96 -32 -182 -47 -514 -92
-184 -25 -338 -45 -343 -45 -4 0 -8 -7 -8 -15 l0 -15 23 5 c12 2 144 21 292
40 358 47 432 60 545 95 52 16 156 43 230 60 74 17 152 36 173 41 l37 10 0 9
0 10 -17 -1 c-10 0 -97 -20 -193 -43z"/>
<path d="M55337 57730 c-169 -20 -311 -40 -314 -44 l-6 -6 6 0 c24 0 682 82
686 85 9 10 -70 2 -372 -35z"/>
<path d="M81160 57639 l-195 -26 -105 -27 c-58 -15 -127 -36 -155 -47 -97 -40
-271 -133 -360 -192 l-90 -60 -104 -96 -104 -96 -148 -165 c-138 -153 -162
-185 -141 -185 4 0 71 70 148 155 l139 156 115 105 115 105 80 55 c98 68 206
127 324 178 l89 39 129 30 128 31 170 21 c94 12 171 23 172 24 1 1 -1 6 -5 12
l-7 10 -195 -27z"/>
<path d="M64131 57575 c-1 -18 163 -839 175 -874 2 -8 6 -12 9 -10 3 4 -157
803 -178 884 l-5 20 -1 -20z"/>
<path d="M38095 57220 l4 -65 -45 -150 c-24 -82 -47 -159 -50 -170 l-6 -20 10
10 c5 6 31 84 57 174 l47 164 -10 61 -11 61 4 -65z"/>
<path d="M50548 56934 l-77 -45 -25 -52 -26 -51 0 -49 0 -48 9 5 8 5 6 46 7
45 20 40 20 39 70 42 c39 23 73 45 75 50 l5 8 -8 5 -8 5 -76 -45z"/>
<path d="M56603 56770 l-52 -110 8 -4 7 -5 30 25 29 25 -12 5 -11 5 28 62 c15
34 31 72 35 85 l6 22 -8 0 c-4 0 -31 -50 -60 -110z"/>
<path d="M78528 56823 c9 -51 9 -246 -1 -308 l-7 -50 17 25 18 25 0 145 0 145
-8 28 -7 27 -10 0 -9 0 7 -37z"/>
<path d="M84465 56600 c22 -9 84 -34 138 -55 l98 -38 50 -50 c55 -55 68 -52
16 4 -47 51 -67 62 -205 113 -125 47 -169 59 -97 26z"/>
<path d="M54575 56513 c26 -25 354 -91 401 -81 l19 4 -95 13 c-78 10 -218 40
-315 68 l-20 5 10 -9z"/>
<path d="M46616 56418 c2 -13 15 -106 29 -208 14 -102 27 -194 30 -206 l5 -21
15 0 15 0 -6 36 c-3 20 -18 121 -33 226 l-27 190 -15 3 -16 3 3 -23z"/>
<path d="M78515 56430 c3 -5 11 -10 16 -10 l10 0 -6 10 c-3 6 -11 10 -16 10
l-10 0 6 -10z"/>
<path d="M61730 56364 c0 -5 16 -99 36 -209 l37 -200 9 -10 9 -10 -5 25 c-3
14 -22 110 -41 214 -30 162 -45 226 -45 190z"/>
<path d="M64346 56231 l-18 -20 4 -11 3 -11 23 30 23 31 -9 0 c-5 0 -17 -9
-26 -19z"/>
<path d="M63730 56132 c0 -4 10 -12 23 -17 l22 -10 20 -40 19 -40 4 18 4 19
-13 30 -12 30 -24 9 c-30 11 -43 11 -43 1z"/>
<path d="M10228 55976 c-59 -40 -129 -82 -155 -93 -26 -11 -59 -26 -73 -32
l-25 -11 40 7 c53 8 78 21 217 111 104 68 135 93 111 91 -5 0 -56 -33 -115
-73z"/>
<path d="M50261 55860 l-43 -20 -49 0 -48 0 -26 12 -26 11 -10 -10 -10 -10 45
-17 45 -17 48 6 c26 4 67 15 91 26 l42 18 0 10 c0 15 -8 14 -59 -9z"/>
<path d="M91741 55793 c2 -7 64 -57 138 -112 l134 -100 121 -60 121 -60 125
-34 c69 -19 141 -38 160 -42 l35 -7 -6 6 c-4 4 -64 22 -135 41 l-129 34 -75
32 c-41 17 -115 54 -165 82 l-90 50 -105 80 c-58 44 -111 85 -119 91 l-14 11
4 -12z"/>
<path d="M46980 55720 l0 -13 7 6 6 7 -6 7 -7 6 0 -13z"/>
<path d="M47000 55650 l0 -13 7 6 6 7 -6 7 -7 6 0 -13z"/>
<path d="M47030 55550 l0 -13 7 6 6 7 -6 7 -7 6 0 -13z"/>
<path d="M61910 55549 c0 -8 14 -102 31 -209 l32 -195 9 -10 9 -10 -5 25 c-3
14 -19 110 -36 214 -27 170 -40 227 -40 185z"/>
<path d="M53187 55240 l-7 -25 26 -131 25 -131 -46 -77 c-26 -42 -120 -184
-208 -314 -89 -130 -236 -355 -328 -499 -92 -144 -195 -299 -229 -343 -33 -44
-57 -80 -53 -80 16 0 161 205 304 430 78 124 222 342 319 485 97 143 191 286
209 317 18 32 36 60 40 62 l8 5 -19 98 c-10 54 -22 127 -26 163 l-8 65 -7 -25z"/>
<path d="M50910 55102 c0 -5 11 -17 25 -26 l26 -17 16 -34 16 -34 -13 -30 -12
-31 -40 -35 -39 -36 -29 -6 -30 -5 5 -9 5 -8 33 11 32 11 33 31 c19 17 42 48
53 69 l19 37 -17 34 -18 34 -32 27 -33 27 0 -10z"/>
<path d="M55151 54712 c-164 -498 -192 -587 -182 -576 5 5 61 169 125 364 65
195 135 408 156 473 21 64 35 117 32 117 -4 0 -63 -170 -131 -378z"/>
<path d="M77117 55034 l-6 -6 36 -57 c20 -31 66 -113 103 -184 l67 -127 6 6 7
7 -58 111 c-31 61 -77 144 -103 183 l-46 73 -6 -6z"/>
<path d="M52140 54768 c-69 -105 -126 -198 -128 -207 -2 -12 205 295 262 387
l7 12 -8 -1 c-4 0 -64 -86 -133 -191z"/>
<path d="M53286 54930 c3 -14 7 -34 7 -45 l1 -20 -372 -564 c-372 -562 -418
-637 -453 -740 -23 -65 -23 -67 -5 -52 l14 12 6 34 7 35 40 78 41 77 375 567
374 567 -21 38 -21 38 7 -25z"/>
<path d="M48945 54545 c-126 -68 -317 -166 -422 -216 -106 -51 -191 -94 -188
-97 8 -8 387 178 635 311 129 70 228 127 220 126 -8 0 -118 -56 -245 -124z"/>
<path d="M54032 54589 l-62 -20 -63 -36 c-34 -20 -84 -53 -112 -73 l-50 -37
-103 -152 c-57 -83 -100 -151 -95 -151 4 0 51 64 103 141 l95 141 55 43 c68
52 188 117 258 140 28 9 52 18 52 21 0 7 -11 4 -78 -17z"/>
<path d="M50121 54531 c-1 -7 4 -43 11 -80 l11 -66 24 -26 25 -27 46 -13 46
-13 111 -95 c144 -125 180 -153 240 -193 l50 -33 22 -40 23 -40 0 15 c-1 8
-11 32 -24 53 l-24 39 -73 47 -74 48 -123 105 -123 106 -45 12 -45 13 -23 28
-24 28 -7 53 c-4 29 -11 62 -16 73 l-8 20 0 -14z"/>
<path d="M88465 54473 c-55 -30 -149 -81 -208 -113 l-109 -58 10 -6 10 -6 163
86 c90 48 185 99 211 114 l48 27 -7 6 c-9 10 -9 10 -118 -50z"/>
<path d="M52996 54495 c10 -8 24 -14 29 -14 l10 0 -19 14 c-11 8 -24 15 -30
15 l-10 0 20 -15z"/>
<path d="M53615 54304 c-58 -86 -104 -158 -101 -161 2 -3 33 37 67 89 35 51
84 123 111 161 l48 67 -9 0 c-5 0 -57 -70 -116 -156z"/>
<path d="M88035 54386 l-20 -15 10 -2 c6 0 27 0 48 1 l38 2 14 -12 14 -12 13
4 13 5 -25 15 c-14 9 -39 19 -55 22 l-30 7 -20 -15z"/>
<path d="M51440 54365 l-12 -15 10 0 c12 0 26 19 19 26 -2 2 -10 -2 -17 -11z"/>
<path d="M13698 54258 c-31 -46 -97 -143 -147 -215 -51 -73 -88 -133 -84 -133
5 0 38 44 75 98 36 53 103 150 147 215 45 64 77 117 73 117 -5 0 -34 -37 -64
-82z"/>
<path d="M33667 54103 l-6 -10 67 -66 67 -66 194 -130 194 -130 9 5 9 6 -193
130 -193 130 -71 70 -72 70 -5 -9z"/>
<path d="M47888 54022 c-59 -26 -108 -50 -108 -54 0 -8 211 79 225 93 l9 9 -9
-1 c-6 -1 -58 -22 -117 -47z"/>
<path d="M74127 54063 l-5 -8 101 -116 c56 -63 123 -139 148 -168 l47 -53 5 9
6 10 -135 154 c-75 85 -142 160 -149 167 l-13 14 -5 -9z"/>
<path d="M53538 53886 c-109 -55 -198 -105 -198 -109 l0 -9 198 102 c108 56
201 106 207 111 l9 9 -9 -1 c-6 -1 -99 -47 -207 -103z"/>
<path d="M53786 53981 c8 -8 263 -178 292 -195 6 -4 12 -5 12 -2 0 7 -297 206
-307 206 l-7 0 10 -9z"/>
<path d="M8513 53912 l-183 -26 0 -13 c0 -7 1 -13 3 -13 6 0 366 50 395 55
l32 6 0 9 0 10 -32 -1 c-18 -1 -115 -13 -215 -27z"/>
<path d="M21650 53852 c0 -5 11 -14 24 -22 l25 -13 12 -29 12 -29 -6 -92 c-4
-51 -9 -128 -12 -172 -9 -134 4 -70 19 93 l13 153 -6 27 c-8 36 -21 54 -53 75
l-28 17 0 -8z"/>
<path d="M54538 53651 c-87 -41 -158 -78 -158 -83 0 -4 68 26 152 67 83 41
156 76 162 78 6 3 9 6 6 9 -3 3 -76 -29 -162 -71z"/>
<path d="M51741 53703 c2 -6 45 -43 94 -83 50 -40 106 -91 126 -114 l37 -41 7
7 8 7 -34 38 c-36 41 -209 185 -229 191 l-12 5 3 -10z"/>
<path d="M62269 53470 l46 -230 8 0 9 0 -4 13 c-3 6 -25 110 -49 229 -24 120
-47 218 -50 218 -3 0 15 -103 40 -230z"/>
<path d="M50277 53648 l-59 -20 9 -9 9 -9 49 19 49 19 4 11 c2 6 2 11 0 10 -1
0 -29 -10 -61 -21z"/>
<path d="M77487 53596 c-104 -41 -192 -78 -195 -82 l-7 -7 15 5 c169 61 407
160 380 158 -3 0 -90 -34 -193 -74z"/>
<path d="M34164 53651 c4 -5 87 -66 187 -136 l180 -127 6 6 7 6 -10 9 c-27 25
-356 251 -365 251 l-10 0 5 -9z"/>
<path d="M54777 53538 c-14 -46 -31 -102 -38 -125 l-12 -42 17 -26 16 -25 153
-102 152 -102 59 -18 c33 -10 64 -17 70 -15 l11 4 -65 19 -65 20 -152 102
-153 102 -15 23 -15 24 36 117 c20 65 33 120 31 123 -3 2 -17 -33 -30 -79z"/>
<path d="M11296 53492 l-5 -8 139 -139 139 -139 8 7 7 7 -45 48 c-103 110
-224 232 -231 232 -4 0 -9 -4 -12 -8z"/>
<path d="M49551 53271 l-204 -106 -5 -13 -4 -14 208 108 c115 59 213 110 217
114 l9 8 -9 5 -8 5 -204 -107z"/>
<path d="M37233 53276 l4 -11 198 -48 198 -48 9 9 8 8 -210 51 -211 50 4 -11z"/>
<path d="M52448 53266 l-17 -24 -108 -7 -108 -8 20 -7 20 -7 90 9 90 10 13 11
c7 6 18 19 23 29 l10 18 -8 0 c-4 0 -16 -11 -25 -24z"/>
<path d="M52154 53185 l-19 -14 10 -1 c6 0 17 4 25 10 l14 9 -5 5 -5 6 -20
-15z"/>
<path d="M34668 53154 c-13 -12 -9 -43 8 -69 l16 -25 34 0 34 0 0 10 0 10 -28
0 -29 0 -11 23 c-6 12 -12 30 -14 40 l-3 19 -7 -8z"/>
<path d="M56880 53135 l-35 -14 -177 -12 -178 -12 0 -9 0 -9 18 5 c9 2 96 10
192 16 l175 12 30 19 c35 22 25 23 -25 4z"/>
<path d="M55414 53088 l-7 -11 11 7 c12 7 16 16 8 16 -3 0 -8 -5 -12 -12z"/>
<path d="M34690 53021 c0 -5 5 -13 10 -16 l10 -6 0 10 c0 5 -4 13 -10 16 l-10
6 0 -10z"/>
<path d="M49720 52895 c-96 -53 -179 -100 -185 -106 l-10 -11 10 3 c55 20 385
210 363 209 -2 0 -82 -43 -178 -95z"/>
<path d="M55400 52910 c0 -5 2 -10 5 -10 21 0 277 -45 340 -61 44 -10 214 -64
378 -120 l297 -102 7 7 6 6 -5 6 c-4 3 -136 50 -295 105 l-288 100 -85 20
c-96 23 -303 59 -337 59 l-23 0 0 -10z"/>
<path d="M71670 52881 l-35 -28 -120 -60 c-66 -34 -137 -68 -158 -76 l-38 -16
-35 54 c-19 30 -37 55 -40 55 -4 0 -275 -140 -283 -147 -2 -1 -2 -6 1 -9 l6
-5 131 65 c72 36 134 66 138 66 5 0 20 -20 35 -45 16 -25 34 -48 41 -51 l14
-5 156 75 156 74 40 34 c39 31 50 48 33 48 -4 0 -23 -13 -42 -29z"/>
<path d="M77718 52827 l-187 -72 2 -10 2 -10 10 3 c6 2 94 35 198 74 l187 71
0 9 c0 15 -23 8 -212 -65z"/>
<path d="M48710 52716 l-145 -74 -16 -18 c-9 -11 -19 -28 -23 -39 l-7 -20 33
31 33 31 142 74 c124 64 164 90 136 88 -5 0 -73 -33 -153 -73z"/>
<path d="M48377 52741 l4 -17 36 -19 36 -20 14 -32 c7 -18 13 -44 13 -58 l0
-25 15 0 15 0 0 26 c0 15 -5 43 -11 63 l-11 36 -29 23 c-16 13 -42 27 -58 32
l-29 8 5 -17z"/>
<path d="M52671 52655 l-134 -65 5 -6 6 -5 131 65 c72 37 131 68 131 71 0 7 6
10 -139 -60z"/>
<path d="M30091 52521 l-12 -109 12 -141 12 -141 7 0 6 0 -13 143 -12 142 13
108 13 107 -7 0 -7 0 -12 -109z"/>
<path d="M48160 52585 l-25 -27 -137 -69 -138 -69 0 -10 c0 -6 5 -10 11 -10
19 0 288 142 305 161 l16 18 -4 16 -3 17 -25 -27z"/>
<path d="M54488 52576 l4 -35 -51 -169 -51 -168 0 -37 0 -37 10 0 10 0 0 38 0
39 44 145 c25 80 48 162 51 181 l7 35 -7 21 c-3 12 -10 21 -14 21 l-7 0 4 -34z"/>
<path d="M85593 52468 c-99 -73 -177 -134 -172 -136 7 -3 359 255 359 263 0
10 -13 1 -187 -127z"/>
<path d="M50910 52556 c0 -8 4 -17 9 -20 l9 -6 -5 20 c-6 23 -13 26 -13 6z"/>
<path d="M12535 52521 l-5 -10 97 -69 c54 -37 142 -99 196 -136 l98 -69 10 10
9 9 -187 130 c-104 72 -193 134 -200 137 l-12 7 -6 -9z"/>
<path d="M56865 52450 l-6 -9 18 -9 c10 -6 102 -44 204 -86 103 -41 270 -115
370 -164 l184 -88 442 -247 c242 -136 446 -247 452 -247 6 0 11 4 11 9 l0 9
-447 250 -448 251 -170 81 c-135 65 -428 191 -582 251 l-22 8 -6 -9z"/>
<path d="M40397 52444 l-6 -6 6 -14 c3 -8 9 -14 14 -14 l9 0 0 14 c0 17 -14
29 -23 20z"/>
<path d="M89650 52346 c-91 -34 -174 -65 -184 -69 l-19 -7 6 -7 7 -6 190 69
c104 38 190 72 190 77 0 13 -23 6 -190 -57z"/>
<path d="M48420 52195 c52 -107 98 -195 102 -195 10 0 -176 383 -187 387 l-10
3 95 -195z"/>
<path d="M48400 52350 l-14 -9 16 -33 c131 -275 182 -378 187 -378 3 0 12 4
19 8 l12 8 -100 207 c-55 114 -101 207 -102 207 -2 0 -10 -4 -18 -10z"/>
<path d="M53022 52341 c16 -43 355 -731 360 -731 4 0 -31 78 -76 173 -229 474
-275 567 -281 567 -4 0 -5 -4 -3 -9z"/>
<path d="M84810 52312 l-105 -26 15 -3 c8 -2 59 7 113 21 l98 23 8 -16 c9 -17
64 -248 64 -269 l0 -13 8 8 8 8 -33 136 c-18 74 -36 141 -40 147 -9 15 -10 15
-136 -16z"/>
<path d="M89050 52188 c0 -7 5 -30 11 -51 l10 -38 20 -20 19 -19 0 -28 0 -29
-17 -15 c-10 -9 -28 -19 -41 -23 l-23 -7 -24 16 -24 16 -6 -10 -6 -9 30 -16
c17 -8 40 -15 51 -15 l22 0 29 31 29 31 0 27 0 27 -24 33 -24 32 -6 34 c-4 19
-11 37 -16 40 l-10 6 0 -13z"/>
<path d="M54390 52109 c0 -12 29 -38 43 -39 14 0 7 23 -10 36 -22 17 -33 17
-33 3z"/>
<path d="M88966 52069 l-17 -29 6 -20 6 -20 10 0 10 0 -6 20 -7 21 16 24 16
24 -8 5 -8 5 -18 -30z"/>
<path d="M52724 52058 l-7 -11 11 7 c12 7 16 16 8 16 -3 0 -8 -5 -12 -12z"/>
<path d="M72062 51763 c-106 -58 -190 -108 -188 -111 5 -4 372 192 391 209 l9
9 -9 -1 c-6 0 -97 -48 -203 -106z"/>
<path d="M84716 51548 c-539 -414 -719 -551 -1109 -852 l-357 -275 9 -5 9 -6
363 278 c199 152 455 348 568 435 113 87 360 276 548 420 188 144 342 265 342
270 1 4 -3 7 -8 7 -5 0 -169 -123 -365 -272z"/>
<path d="M17935 51461 l-5 -9 163 -67 c89 -37 191 -76 227 -86 l64 -19 8 8 9
9 -73 20 c-40 12 -144 50 -230 86 l-158 66 -5 -8z"/>
<path d="M58965 51459 c-11 -17 1 -21 15 -4 l12 15 -10 0 c-6 0 -14 -5 -17
-11z"/>
<path d="M35920 51444 c-80 -7 -158 -13 -175 -14 l-30 -2 18 -5 c19 -5 429 26
436 33 7 7 -93 2 -249 -12z"/>
<path d="M88078 51284 l-178 -134 0 -11 0 -10 13 7 c6 5 90 66 185 137 152
115 191 149 165 146 -5 0 -88 -61 -185 -135z"/>
<path d="M22416 51338 c-3 -18 -7 -63 -10 -100 l-5 -68 9 0 9 0 5 33 c3 17 7
62 9 100 l5 67 -9 0 -8 0 -5 -32z"/>
<path d="M12650 51245 c-107 -63 -199 -116 -204 -118 l-9 -3 4 -11 4 -11 189
109 c179 102 226 133 215 143 -2 2 -92 -47 -199 -109z"/>
<path d="M38440 51321 c0 -5 380 -108 439 -119 l16 -3 -15 10 c-22 13 -440
120 -440 112z"/>
<path d="M34150 51255 l-12 -14 4 -12 4 -12 17 17 c18 19 22 36 8 36 -5 0 -14
-7 -21 -15z"/>
<path d="M61530 51250 l0 -8 98 -22 c53 -12 102 -25 108 -29 l11 -6 -13 -70
c-7 -38 -15 -88 -18 -110 l-6 -40 15 45 c9 25 20 76 26 114 l11 68 -9 8 c-4 4
-56 19 -115 33 l-108 25 0 -8z"/>
<path d="M20690 51232 l0 -9 113 -6 c61 -4 165 -7 229 -7 l117 0 5 8 5 9 -121
6 c-67 4 -172 7 -235 7 l-113 0 0 -8z"/>
<path d="M21583 51173 l7 -6 7 6 6 7 -13 0 -13 0 6 -7z"/>
<path d="M21623 51173 l7 -6 7 6 6 7 -13 0 -13 0 6 -7z"/>
<path d="M22347 51163 l-5 -8 -366 0 -366 0 0 -6 0 -7 68 -6 67 -7 297 3 c163
2 299 1 301 -2 3 -3 1 -97 -4 -209 -9 -186 -8 -223 6 -210 2 3 9 96 14 207 6
112 13 207 16 211 l5 9 -6 16 c-7 17 -20 21 -27 9z"/>
<path d="M44893 51084 c21 -14 41 -24 43 -21 7 7 -51 47 -67 47 l-14 0 38 -26z"/>
<path d="M50460 50911 l-195 -98 -42 -8 c-24 -4 -45 -10 -48 -15 l-5 -8 52 12
53 13 193 96 c105 54 192 99 192 102 0 7 15 14 -200 -94z"/>
<path d="M26350 50972 l0 -10 58 -6 c31 -3 135 -8 230 -12 l172 -6 0 10 0 10
-172 6 c-95 4 -199 9 -230 12 l-58 6 0 -10z"/>
<path d="M26777 50823 c-4 -58 -6 -143 -6 -187 l1 -81 8 55 c4 30 10 115 14
188 l5 132 -8 0 -8 0 -6 -107z"/>
<path d="M12258 50675 l-6 -10 8 -110 c5 -60 9 -167 9 -237 l1 -128 12 0 11 0
-7 218 -6 217 -8 30 -8 29 -6 -9z"/>
<path d="M66575 50315 c-104 -46 -194 -86 -200 -88 l-10 -4 7 -8 8 -8 200 88
200 88 0 8 c0 14 -6 12 -205 -76z"/>
<path d="M33575 50350 c37 -255 65 -411 65 -359 0 33 -52 356 -60 374 l-10 20
5 -35z"/>
<path d="M43372 49875 c67 -134 125 -242 127 -239 7 7 -231 484 -241 484 -5 0
47 -110 114 -245z"/>
<path d="M34310 50091 c0 -11 70 -100 94 -120 l17 -14 10 10 11 11 -20 11
c-11 6 -37 33 -57 61 -34 47 -55 62 -55 41z"/>
<path d="M34415 49901 l-30 -18 -18 -31 -17 -31 9 -6 10 -6 12 23 c6 13 25 35
42 50 38 32 33 44 -8 19z"/>
<path d="M59925 49909 c-4 -6 -5 -11 -4 -13 2 -1 201 -44 442 -95 l438 -93 7
7 6 6 -12 8 c-6 4 -134 33 -284 65 -150 32 -342 73 -426 92 -178 39 -159 37
-167 23z"/>
<path d="M17240 49878 l0 -14 83 -22 c180 -49 304 -80 345 -86 l42 -6 0 13 0
13 -72 12 c-58 10 -253 60 -380 98 l-18 5 0 -13z"/>
<path d="M33670 49879 c0 -17 38 -321 46 -368 3 -18 7 -31 10 -28 6 5 -43 398
-51 405 -3 3 -5 -1 -5 -9z"/>
<path d="M33710 49883 c0 -5 12 -97 26 -204 23 -177 34 -235 34 -182 0 35 -49
386 -55 391 -3 3 -5 1 -5 -5z"/>
<path d="M49708 49824 l-27 -14 5 -15 6 -14 35 14 c20 8 37 15 39 15 2 0 1 7
-2 15 l-6 15 -12 0 c-6 -1 -23 -7 -38 -16z"/>
<path d="M22287 49683 c-4 -54 -7 -171 -7 -260 l0 -163 9 0 8 0 6 253 5 252
-7 8 -8 8 -6 -98z"/>
<path d="M28380 49620 l0 -60 10 0 10 0 0 60 0 60 -10 0 -10 0 0 -60z"/>
<path d="M28341 49645 c0 -5 6 -21 14 -35 l14 -25 1 16 c0 8 -7 24 -15 35
l-14 19 0 -10z"/>
<path d="M39660 49621 c0 -16 392 -99 422 -89 l12 4 -104 18 c-58 9 -156 30
-217 45 l-113 29 0 -7z"/>
<path d="M82064 49509 c-88 -67 -160 -123 -162 -124 -2 -2 1 -6 6 -9 l9 -5
161 122 c88 67 161 125 161 130 2 18 -26 0 -175 -114z"/>
<path d="M43460 49606 c0 -3 41 -87 90 -187 50 -101 90 -178 90 -172 0 15
-167 363 -174 363 -3 0 -6 -2 -6 -4z"/>
<path d="M49836 49475 c45 -95 283 -510 347 -603 l29 -44 11 11 10 10 -16 25
c-9 14 -26 42 -38 63 -77 139 -355 602 -371 618 l-19 20 47 -100z"/>
<path d="M84627 49459 c44 -57 106 -138 137 -179 32 -41 63 -77 69 -79 l12 -4
-11 14 c-6 8 -68 88 -138 179 -70 91 -133 167 -139 169 -6 2 26 -43 70 -100z"/>
<path d="M48040 49464 c0 -14 27 -50 33 -44 3 3 -3 16 -13 30 l-20 25 0 -11z"/>
<path d="M33790 49024 c0 -22 62 -449 66 -453 2 -2 4 4 4 15 -1 38 -58 436
-64 441 l-6 6 0 -9z"/>
<path d="M64720 48963 c0 -10 -9 -31 -20 -48 -11 -16 -20 -34 -20 -40 l1 -10
24 28 25 28 0 30 c0 16 -2 29 -5 29 -3 0 -5 -8 -5 -17z"/>
<path d="M81191 48811 l-95 -46 -4 -13 -4 -13 103 52 c117 58 113 55 102 62
l-8 4 -94 -46z"/>
<path d="M91417 48678 c-81 -94 -147 -176 -147 -182 l0 -10 8 10 c5 5 64 74
132 154 68 80 132 155 143 167 11 13 18 25 15 28 -2 3 -70 -73 -151 -167z"/>
<path d="M46801 48760 c12 -22 25 -38 27 -35 5 4 -37 75 -44 75 -3 0 5 -18 17
-40z"/>
<path d="M75920 48790 l0 -10 35 0 35 0 0 10 0 10 -35 0 -35 0 0 -10z"/>
<path d="M81018 48732 c-100 -52 -389 -216 -394 -224 -18 -28 25 -9 230 105
l226 125 -14 5 -14 6 -34 -17z"/>
<path d="M22247 48128 c-10 -332 -22 -739 -28 -906 l-11 -303 6 -6 c3 -4 8 -4
10 -2 6 6 56 1544 56 1727 l0 92 -8 0 -8 0 -17 -602z"/>
<path d="M41347 48644 c-15 -15 -5 -19 53 -19 l60 -1 -3 11 -4 10 -49 3 -50 3
-7 -7z"/>
<path d="M46727 48639 c-10 -6 -64 -26 -120 -45 l-101 -34 -70 0 -71 0 -37
-11 -38 -10 0 -11 0 -10 28 7 c15 3 72 10 127 14 l100 8 86 31 c99 34 129 49
129 62 0 13 -10 12 -33 -1z"/>
<path d="M34070 48617 c-102 -5 -187 -11 -189 -13 -14 -13 31 -14 255 -3 l249
11 25 8 25 8 -90 0 c-49 -1 -173 -5 -275 -11z"/>
<path d="M66378 48569 l4 -30 -17 -19 -18 -20 9 0 c6 0 15 5 22 12 l12 12 0
32 0 33 -8 5 -8 5 4 -30z"/>
<path d="M34098 48576 l-206 -11 -9 -8 -8 -8 85 5 c47 4 170 11 274 16 104 5
191 12 194 15 7 7 -80 4 -330 -9z"/>
<path d="M41334 48463 l-12 -4 26 -79 26 -80 14 0 13 0 -6 21 c-4 11 -17 49
-28 83 l-22 63 -11 -4z"/>
<path d="M50463 48452 l-12 -8 92 -160 c82 -141 243 -392 270 -419 l10 -10 -5
10 c-19 37 -332 581 -337 587 l-6 7 -12 -7z"/>
<path d="M44750 48431 c-14 -3 -54 -22 -90 -41 l-65 -35 -138 -137 -139 -137
8 -12 7 -12 81 84 c106 110 201 191 275 234 l59 35 121 0 120 0 -5 15 -6 15
-102 -1 c-55 -1 -112 -4 -126 -8z"/>
<path d="M28613 48036 l-201 -11 -9 -9 -8 -8 65 6 c36 3 139 9 230 12 l165 6
15 9 15 8 -35 -1 c-19 -1 -126 -6 -237 -12z"/>
<path d="M80050 47794 c-80 -69 -149 -129 -153 -134 l-9 -8 11 -6 10 -6 150
130 c136 117 167 150 144 150 -5 0 -73 -57 -153 -126z"/>
<path d="M50825 47840 c3 -5 8 -10 11 -10 3 0 2 5 -1 10 -3 6 -8 10 -11 10 -3
0 -2 -4 1 -10z"/>
<path d="M76238 47747 l-208 -31 0 -14 0 -14 28 6 c15 3 110 17 212 31 102 14
195 28 208 31 l23 5 -6 9 -6 10 -22 -1 c-12 -1 -115 -15 -229 -32z"/>
<path d="M22290 47650 l0 -40 10 0 10 0 0 40 0 40 -10 0 -10 0 0 -40z"/>
<path d="M33980 47679 c0 -24 40 -270 49 -308 5 -20 15 -56 21 -80 6 -23 13
-41 16 -38 3 3 -4 41 -15 85 -12 44 -30 139 -40 212 -11 73 -22 135 -25 138
l-6 5 0 -14z"/>
<path d="M70620 47618 l0 -13 223 -48 c205 -44 441 -90 937 -182 107 -20 260
-50 340 -66 80 -16 208 -39 284 -49 l140 -20 61 0 61 0 224 30 c124 16 316 42
427 57 l203 28 0 13 0 12 -23 0 c-12 0 -117 -14 -232 -30 -116 -17 -289 -41
-385 -55 l-175 -25 -82 0 -82 0 -113 15 c-62 9 -160 25 -218 35 -647 122
-1239 238 -1422 279 -76 17 -145 31 -153 31 l-15 0 0 -12z"/>
<path d="M74831 47608 c0 -7 4 -22 9 -33 l9 -20 0 27 1 27 -10 6 -10 6 1 -13z"/>
<path d="M46461 47567 c-1 -4 8 -47 18 -95 19 -87 45 -233 44 -242 0 -3 -4
-21 -7 -40 l-6 -35 15 40 16 40 -11 45 c-5 25 -19 92 -31 150 -20 96 -37 157
-38 137z"/>
<path d="M41576 47502 l-7 -11 15 -30 c9 -16 27 -43 42 -60 l26 -31 9 6 9 5
-21 27 c-11 15 -31 44 -44 66 l-22 39 -7 -11z"/>
<path d="M41631 47460 l16 -25 39 -20 39 -19 60 -3 60 -2 -46 8 c-49 10 -118
39 -159 68 l-25 18 16 -25z"/>
<path d="M42096 47436 l-190 -42 -4 -12 -4 -12 9 0 c4 0 97 20 206 43 l198 43
0 9 c0 17 -21 14 -215 -29z"/>
<path d="M42632 47208 c2 -226 6 -205 10 55 l3 157 -7 0 -8 0 2 -212z"/>
<path d="M83715 47210 c-88 -71 -171 -138 -185 -148 l-25 -20 6 -6 5 -6 65 47
c74 54 319 252 319 259 0 17 -46 -14 -185 -126z"/>
<path d="M34710 47300 l0 -13 7 6 6 7 -6 7 -7 6 0 -13z"/>
<path d="M23822 47295 c3 -3 104 -26 224 -51 120 -25 228 -48 239 -51 l20 -5
-10 10 -10 10 -225 46 c-229 47 -247 50 -238 41z"/>
<path d="M34303 47286 l-201 -11 -9 -9 -8 -8 75 6 c41 3 169 11 285 17 115 6
212 12 214 15 6 6 -127 2 -356 -10z"/>
<path d="M51179 47223 c15 -32 57 -122 91 -200 35 -79 67 -143 71 -143 l8 0
-18 53 c-10 28 -30 78 -45 111 -27 60 -125 236 -132 236 -3 0 9 -26 25 -57z"/>
<path d="M34318 47246 l-216 -11 -8 -8 -8 -8 89 6 c50 3 180 10 289 15 109 5
201 12 204 15 7 7 -84 4 -350 -9z"/>
<path d="M51130 47143 c27 -57 52 -103 54 -103 8 0 -65 155 -85 180 l-20 25
51 -102z"/>
<path d="M33260 47192 c-245 -13 -281 -17 -269 -25 2 -2 99 2 214 9 116 7 238
13 273 13 l62 1 0 10 c0 6 -3 9 -7 9 -5 -1 -127 -8 -273 -17z"/>
<path d="M41570 47101 c0 -5 4 -21 9 -35 6 -13 15 -72 22 -130 l12 -106 13 0
14 0 0 18 c0 38 -22 189 -32 225 l-11 37 -14 0 -13 0 0 -9z"/>
<path d="M24781 47096 c8 -7 460 -97 471 -94 6 2 -92 25 -218 51 -214 44 -263
53 -253 43z"/>
<path d="M28340 46986 l0 -55 10 -6 10 -6 0 60 0 61 -10 0 -10 0 0 -54z"/>
<path d="M80888 46955 l-5 -6 42 -147 c23 -81 52 -200 66 -264 l23 -118 9 9 9
9 -22 104 c-22 106 -97 383 -109 406 l-7 13 -6 -6z"/>
<path d="M34750 46751 l0 -181 15 0 15 0 -2 177 -3 176 -12 5 -13 4 0 -181z"/>
<path d="M26865 46899 c-121 -5 -311 -12 -422 -15 l-203 -6 0 -10 0 -9 138 5
c75 3 268 11 427 17 160 6 322 14 360 19 l70 7 -75 0 c-41 0 -174 -4 -295 -8z"/>
<path d="M46276 46795 c-32 -134 -86 -418 -81 -423 5 -6 13 27 40 173 14 77
37 188 51 248 14 60 24 110 21 113 -2 2 -16 -48 -31 -111z"/>
<path d="M26937 46859 l-189 -7 -6 -7 -6 -6 229 7 230 7 20 8 20 8 -55 -1
c-30 -1 -140 -5 -243 -9z"/>
<path d="M22197 46843 c-2 -5 -7 -25 -11 -45 l-7 -38 11 0 c5 0 10 3 10 8 0 4
4 24 9 45 l9 37 -8 0 c-5 0 -11 -3 -13 -7z"/>
<path d="M30650 46814 c1 -72 28 -396 34 -401 l6 -6 0 14 c0 51 -30 413 -35
417 -3 3 -5 -8 -5 -24z"/>
<path d="M21685 46776 c-66 -24 -151 -58 -190 -75 -38 -18 -284 -122 -545
-233 -261 -110 -599 -255 -750 -323 -305 -136 -487 -213 -600 -255 -41 -15
-162 -60 -267 -100 l-193 -72 0 -15 0 -15 18 7 c57 24 344 132 437 164 135 47
340 133 675 284 140 63 442 193 670 290 228 96 460 196 515 222 55 26 143 63
195 81 52 19 114 41 138 50 l42 16 0 9 0 9 -12 -1 c-7 0 -67 -19 -133 -43z"/>
<path d="M22700 46804 l0 -12 28 -6 c15 -3 113 -22 217 -42 105 -20 323 -65
485 -100 162 -36 405 -85 540 -109 l246 -44 141 -35 c78 -20 147 -36 153 -36
l12 0 -4 12 -4 12 -135 33 c-74 18 -244 52 -379 77 -135 24 -380 74 -545 109
-165 36 -402 86 -527 110 l-228 44 0 -13z"/>
<path d="M83035 46774 l-50 -14 -295 -40 -295 -40 -59 -16 -60 -16 -190 -146
c-105 -81 -219 -167 -253 -192 -35 -25 -63 -49 -63 -54 l0 -8 14 5 c8 3 124
88 258 189 l243 183 75 18 c41 9 196 33 344 52 l270 35 58 16 58 17 0 13 c0 8
-1 14 -2 13 -2 0 -25 -7 -53 -15z"/>
<path d="M82480 46750 c-30 -4 -93 -17 -140 -30 l-85 -22 -62 -46 c-59 -45
-74 -62 -54 -62 5 0 34 20 65 44 l56 44 103 25 c56 14 130 28 165 32 l62 7 0
9 0 9 -27 -1 c-16 -1 -53 -5 -83 -9z"/>
<path d="M28265 46509 l-7 -210 6 -6 c3 -4 8 -4 10 -2 2 2 7 100 11 217 l8
212 -10 0 -10 0 -8 -211z"/>
<path d="M28326 46583 c-3 -76 -8 -173 -10 -215 l-4 -78 8 0 9 0 5 33 c3 17 8
114 11 215 l5 182 -9 0 -9 0 -6 -137z"/>
<path d="M34603 46543 l-63 -4 0 -12 0 -12 90 3 90 3 0 15 0 14 -27 -2 c-16
-1 -56 -3 -90 -5z"/>
<path d="M34025 46519 c-104 -3 -354 -7 -555 -9 -201 -1 -404 -5 -452 -9 l-87
-6 7 -11 7 -11 135 8 135 8 391 0 c215 1 452 4 527 8 l137 6 0 14 0 13 -27 -2
c-16 -1 -113 -5 -218 -9z"/>
<path d="M57586 46522 c-3 -5 -2 -18 1 -31 l6 -22 9 3 c5 2 9 7 9 11 -1 4 -1
16 -1 27 l0 20 -9 0 c-6 0 -12 -4 -15 -8z"/>
<path d="M51636 46449 c9 -30 19 -58 24 -62 l8 -9 7 11 6 11 -11 34 -11 34
-19 17 -20 18 16 -54z"/>
<path d="M35025 46479 c-71 -3 -158 -7 -193 -8 l-64 -1 5 -12 4 -13 49 2 c27
1 124 5 217 8 l167 7 0 14 0 14 -27 -2 c-16 -1 -86 -5 -158 -9z"/>
<path d="M51386 46433 c-2 -10 -7 -32 -11 -49 l-6 -30 18 -41 18 -41 48 -37
49 -36 -7 23 -7 23 -33 30 -32 30 -12 31 -13 32 10 35 10 36 -6 5 c-10 11 -21
6 -26 -11z"/>
<path d="M24656 46403 l-5 -13 7 0 c27 0 370 -68 537 -106 110 -25 299 -66
420 -91 l220 -45 180 -5 180 -5 300 16 c165 9 410 23 545 31 135 8 356 20 493
27 l247 12 0 14 0 14 -92 -6 c-51 -3 -199 -11 -328 -16 -129 -6 -435 -22 -679
-35 l-443 -25 -162 0 -161 0 -100 15 c-120 17 -374 68 -620 125 -99 23 -260
56 -357 74 l-177 32 -5 -13z"/>
<path d="M30001 46361 l-104 -6 -5 -14 -5 -14 109 7 c60 3 153 9 207 12 l97 6
0 9 0 9 -97 -2 c-54 -1 -145 -4 -202 -7z"/>
<path d="M80762 46358 c3 -7 54 -201 114 -430 60 -229 110 -415 112 -413 5 5
-87 392 -144 610 -25 94 -50 187 -55 208 l-10 37 -10 0 -11 0 4 -12z"/>
<path d="M30721 46343 c0 -10 4 -27 9 -38 l9 -20 0 38 1 37 -10 0 -10 0 1 -17z"/>
<path d="M30865 46289 c-71 -3 -136 -7 -142 -8 l-13 -1 0 -16 0 -16 53 5 c28
4 132 9 230 13 l177 6 0 14 0 14 -87 -2 c-49 -1 -146 -5 -218 -9z"/>
<path d="M81560 46164 c-91 -75 -173 -142 -184 -149 l-18 -13 3 -11 4 -11 188
151 c167 135 204 170 180 168 -5 0 -82 -61 -173 -135z"/>
<path d="M51588 46266 l-28 -10 0 -14 0 -14 32 6 c39 8 42 11 31 28 l-8 14
-27 -10z"/>
<path d="M28300 46230 c0 -5 4 -10 9 -10 6 0 13 5 16 10 l6 10 -15 0 -16 0 0
-10z"/>
<path d="M28205 46180 l-6 -10 16 0 16 0 -6 10 c-3 6 -8 10 -10 10 -2 0 -7 -4
-10 -10z"/>
<path d="M28152 46095 l-12 -26 0 -153 0 -153 8 -7 7 -8 11 169 10 168 8 18 8
17 -14 0 -15 0 -11 -25z"/>
<path d="M93091 46095 l15 -15 75 -13 76 -14 24 -16 23 -17 52 0 51 0 62 32
c33 17 61 35 61 40 l0 8 -69 -35 -68 -35 -36 0 -36 0 -35 21 -35 20 -68 10
-68 10 -9 9 c-6 6 -15 10 -20 10 l-10 0 15 -15z"/>
<path d="M81080 46053 c0 -26 32 -182 54 -263 14 -52 55 -204 91 -338 l65
-243 53 -147 54 -147 54 -217 54 -218 7 0 c13 0 11 10 -47 238 l-54 217 -60
171 -60 171 -76 294 c-42 162 -84 336 -94 388 l-17 95 -12 4 -12 4 0 -9z"/>
<path d="M81340 45949 l0 -10 10 6 c6 3 10 8 10 11 0 2 -4 4 -10 4 -5 0 -10
-5 -10 -11z"/>
<path d="M81284 45868 c-38 -33 -77 -74 -88 -90 l-18 -29 7 -7 7 -7 11 20 c13
23 42 53 115 116 l54 47 -9 5 -10 6 -69 -61z"/>
<path d="M81322 45858 c-5 -7 -17 -38 -25 -68 -9 -30 -23 -65 -32 -77 l-16
-23 -25 0 -24 0 0 -8 0 -9 23 3 c12 1 28 3 34 3 l12 1 17 32 c16 31 56 158 50
158 -2 0 -8 -6 -14 -12z"/>
<path d="M80990 45497 c0 -25 163 -624 222 -814 l72 -233 13 0 12 0 -4 13
c-20 58 -146 462 -155 497 -18 73 -152 535 -156 539 -2 2 -4 1 -4 -2z"/>
<path d="M28250 45332 c0 -17 81 -292 102 -344 l23 -58 13 0 12 0 -19 38 c-10
20 -40 112 -67 205 l-48 167 -8 0 c-4 0 -8 -3 -8 -8z"/>
<path d="M81360 44920 l-14 -9 7 -7 7 -8 12 12 c6 6 10 14 7 16 -2 3 -11 1
-19 -4z"/>
<path d="M28337 44903 l-7 -11 9 -24 c5 -12 32 -54 60 -92 l50 -70 77 -67 78
-68 8 5 9 5 -52 47 c-28 25 -62 54 -75 64 -27 22 -130 165 -142 199 l-9 22 -6
-10z"/>
<path d="M81256 44891 l-20 -8 10 -6 11 -6 21 6 c12 3 22 9 22 14 0 11 -17 11
-44 0z"/>
<path d="M48820 44826 c0 -12 270 -536 276 -536 3 0 27 12 55 26 l51 25 -6 6
-5 5 -36 -21 c-20 -11 -42 -21 -48 -21 l-12 0 -120 233 c-122 239 -155 298
-155 283z"/>
<path d="M15471 44625 l-1 -100 10 -59 c5 -32 12 -61 15 -64 11 -12 15 6 5 34
l-10 29 -8 130 -9 130 -2 -100z"/>
<path d="M47045 44536 l-100 -41 -95 0 -95 1 -25 8 -25 7 25 -15 25 -15 92 -1
93 0 102 41 c57 22 105 43 107 45 15 15 -17 5 -104 -30z"/>
<path d="M52647 44186 l-5 -14 23 -10 24 -11 7 11 7 11 -18 14 c-24 17 -32 16
-38 -1z"/>
<path d="M52347 44009 l-77 -49 -83 -20 c-45 -10 -94 -22 -109 -25 l-28 -5 0
-15 0 -15 23 5 c12 2 50 9 84 15 81 14 115 27 195 74 l66 39 5 24 c2 12 4 23
3 22 0 0 -36 -23 -79 -50z"/>
<path d="M52750 43996 l-12 -44 10 -19 11 -18 11 30 c7 17 14 45 17 63 l6 32
-15 0 -15 0 -13 -44z"/>
<path d="M52540 43882 l0 -20 25 -5 26 -4 -14 20 c-8 12 -19 23 -25 25 l-12 4
0 -20z"/>
<path d="M52660 43890 l-15 -9 12 -12 12 -12 16 7 17 6 -4 12 c-6 16 -20 19
-38 8z"/>
<path d="M51885 43047 c-148 -20 -162 -23 -154 -31 5 -5 350 42 357 49 9 8
-47 4 -203 -18z"/>
<path d="M52110 43055 c0 -13 199 -403 204 -398 3 3 -40 95 -95 204 -87 174
-109 214 -109 194z"/>
<path d="M8555 42933 c3 -38 10 -142 15 -232 l10 -164 6 -6 7 -6 -6 100 c-4
55 -10 162 -13 238 l-7 137 -9 0 -9 0 6 -67z"/>
<path d="M42024 42955 l-19 -14 11 -1 c5 0 19 7 30 15 l19 14 -11 1 c-5 0 -19
-7 -30 -15z"/>
<path d="M41825 42870 c-71 -33 -152 -69 -178 -80 l-49 -21 6 -6 5 -6 176 78
175 78 0 9 c0 10 15 16 -135 -52z"/>
<path d="M51163 42906 c-84 -12 -156 -25 -159 -29 -4 -4 -5 -7 -3 -7 25 0 352
50 357 54 l5 6 -24 -1 c-13 -1 -92 -11 -176 -23z"/>
<path d="M49570 42901 c0 -4 25 -25 55 -45 l56 -37 10 7 11 6 -59 39 c-59 40
-73 45 -73 30z"/>
<path d="M51208 42536 l-166 -21 -8 -8 -8 -8 39 6 c22 3 111 14 199 25 87 11
161 22 164 25 8 8 -40 4 -220 -19z"/>
<path d="M45971 42240 c-79 -44 -149 -84 -155 -89 l-11 -10 5 -48 4 -48 6 50
5 50 138 76 c121 67 172 99 157 99 -3 0 -70 -36 -149 -80z"/>
<path d="M69605 42209 c-203 -32 -487 -75 -630 -95 -143 -20 -262 -38 -264
-40 -2 -2 -2 -7 1 -10 l6 -5 188 25 c104 14 399 58 657 98 l467 73 0 7 0 8
-27 -1 c-16 0 -194 -27 -398 -60z"/>
<path d="M51470 42114 c0 -23 37 -345 45 -391 3 -18 9 -33 13 -33 l8 0 -26
214 -25 214 -7 8 -8 7 0 -19z"/>
<path d="M82732 41628 c28 -43 225 -363 353 -573 70 -115 191 -314 269 -442
l141 -232 13 -1 c6 0 12 3 12 7 0 10 -443 736 -655 1072 l-120 191 -14 0 -13
0 14 -22z"/>
<path d="M50809 41032 l180 -359 43 -35 c53 -44 145 -90 249 -127 l79 -28 5 8
5 8 -7 4 c-5 2 -33 12 -63 22 -30 10 -94 37 -141 61 l-86 43 -44 44 -44 44
-165 336 -164 337 -13 0 -13 0 179 -358z"/>
<path d="M86830 41347 c-75 -59 -99 -89 -154 -197 -57 -109 -56 -133 1 -28 22
40 52 92 66 115 l27 43 65 51 c36 28 65 53 65 55 0 11 -20 0 -70 -39z"/>
<path d="M56453 41343 c53 -2 141 -2 195 0 l97 3 -195 0 -195 0 98 -3z"/>
<path d="M28970 41201 l0 -9 88 -12 c137 -18 220 -49 315 -116 l47 -34 0 13
c0 24 -86 80 -179 117 l-52 20 -99 15 c-117 18 -120 18 -120 6z"/>
<path d="M56853 40923 c65 -2 168 -2 230 0 l112 3 -230 0 -230 0 118 -3z"/>
<path d="M57748 40923 c56 -2 148 -2 205 0 l102 3 -205 0 -205 0 103 -3z"/>
<path d="M57748 40883 c56 -2 148 -2 205 0 l102 3 -205 0 -205 0 103 -3z"/>
<path d="M53560 40755 l0 -25 25 -16 26 -17 6 7 7 6 -22 20 -22 21 0 14 0 15
-10 0 -10 0 0 -25z"/>
<path d="M98095 40599 c-55 -39 -119 -89 -142 -111 l-42 -41 -5 -23 -6 -24
-10 0 c-5 0 -11 8 -14 18 l-6 17 -31 18 -32 18 -44 6 -43 6 0 -17 0 -16 34 0
34 0 31 -17 30 -18 15 -35 c8 -19 17 -46 20 -60 l5 -25 -22 -39 -22 -39 -35
-19 -35 -19 -32 3 -32 4 -5 -12 -5 -12 24 -6 24 -6 42 9 41 9 25 24 c14 12 32
37 39 55 l14 32 0 46 0 46 14 32 13 33 59 53 c33 29 96 77 141 108 l82 56 -5
9 c-9 14 -15 10 -119 -63z"/>
<path d="M53327 40578 l-34 -43 -21 -55 -22 -55 -24 -140 c-13 -77 -27 -157
-31 -177 l-7 -38 11 0 c6 0 11 3 11 6 0 3 14 81 30 174 l31 169 25 57 c14 32
39 75 55 95 16 20 29 40 29 43 0 17 -22 1 -53 -36z"/>
<path d="M60910 40457 c3 -3 37 -11 75 -17 l70 -11 42 -19 c23 -10 86 -47 138
-81 53 -34 98 -59 100 -57 3 3 -48 39 -113 80 l-117 76 -35 10 c-19 6 -64 14
-100 18 l-65 7 5 -6z"/>
<path d="M46510 40093 c1 -5 7 -19 15 -33 l14 -25 1 17 c0 23 -11 48 -21 48
-5 0 -9 -3 -9 -7z"/>
<path d="M65810 40086 c0 -17 14 -29 23 -20 l6 6 -6 14 c-3 8 -9 14 -14 14
l-9 0 0 -14z"/>
<path d="M94187 39905 c75 -101 139 -183 141 -180 6 5 -260 365 -270 365 -4 0
54 -83 129 -185z"/>
<path d="M53220 40032 l0 -7 205 -41 206 -41 -4 11 -3 10 -185 38 c-101 20
-192 37 -201 38 l-18 0 0 -8z"/>
<path d="M54050 39871 l0 -10 58 -11 c31 -6 80 -18 109 -26 l52 -14 30 -26
c16 -13 40 -41 52 -61 l23 -37 4 12 c5 16 -22 63 -55 94 l-28 26 -40 16 c-31
11 -181 46 -201 46 -2 0 -4 -4 -4 -9z"/>
<path d="M83916 39718 c4 -7 57 -93 118 -190 l110 -178 13 0 c7 0 13 3 13 6 0
3 -52 89 -116 190 l-116 184 -15 0 -14 0 7 -12z"/>
<path d="M54448 39698 l-38 -10 0 -9 c0 -5 3 -9 6 -9 17 0 100 24 109 31 l9 9
-24 -1 c-14 -1 -42 -6 -62 -11z"/>
<path d="M55346 38701 l-8 -12 58 -65 c31 -36 102 -104 156 -151 l99 -86 11
11 c7 7 10 13 7 15 -41 29 -173 150 -235 215 l-81 86 -7 -13z"/>
<path d="M60076 38008 c38 -34 108 -100 156 -147 l88 -84 6 6 7 7 -74 67 c-41
37 -108 100 -150 140 l-75 73 -14 0 -13 0 69 -62z"/>
<path d="M35007 37863 l-7 -6 81 -49 81 -49 90 -82 c119 -110 136 -111 23 -1
l-90 86 -50 32 c-27 18 -66 42 -86 54 l-36 22 -6 -7z"/>
<path d="M92260 37716 l0 -16 13 0 c6 0 122 -11 257 -25 135 -14 246 -25 248
-25 1 0 2 6 2 13 l0 13 -242 23 c-134 12 -251 25 -260 27 l-18 5 0 -15z"/>
<path d="M86187 37247 c-125 -82 -226 -152 -223 -154 3 -3 105 61 228 142 243
161 233 153 227 159 -2 2 -107 -64 -232 -147z"/>
<path d="M60250 37284 c-19 -8 -71 -24 -115 -34 -44 -11 -172 -46 -284 -79
l-205 -61 -23 15 -23 15 -21 41 c-11 23 -23 39 -25 36 -7 -7 24 -67 49 -94
l20 -23 20 0 c10 0 117 29 238 65 120 35 236 67 256 70 21 4 64 16 96 27 l57
20 0 9 c0 11 2 11 -40 -7z"/>
<path d="M50954 37109 c19 -27 285 -279 294 -279 7 1 -298 300 -306 300 -2 0
3 -9 12 -21z"/>
<path d="M50910 37106 l0 -13 108 -104 c190 -185 1817 -1672 1835 -1678 l12
-3 -25 25 c-14 14 -140 130 -281 259 -140 128 -444 406 -675 618 -230 212
-516 473 -634 581 -118 108 -243 226 -277 262 l-63 65 0 -12z"/>
<path d="M55637 35935 c-205 -31 -237 -38 -226 -50 4 -3 320 40 437 60 l32 6
0 9 0 10 -12 -1 c-7 -1 -111 -16 -231 -34z"/>
<path d="M54440 35724 c0 -19 42 -330 46 -343 2 -8 6 -12 8 -10 6 6 -41 349
-48 357 l-6 5 0 -9z"/>
<path d="M87215 35559 l-140 -89 -53 -16 -54 -16 -42 6 -42 7 -32 19 c-34 21
-52 25 -52 12 0 -4 24 -20 53 -35 l54 -27 45 0 45 0 39 14 c33 11 302 173 327
196 l9 8 -9 4 -8 5 -140 -88z"/>
<path d="M84840 35610 c-54 -36 -42 -40 15 -5 l40 24 40 0 40 0 26 -22 27 -22
58 -102 c32 -57 62 -103 66 -103 4 0 -21 48 -54 108 l-61 107 -26 22 -26 22
-50 1 -50 0 -45 -30z"/>
<path d="M84915 35602 c-30 -10 -85 -45 -85 -55 l0 -8 13 7 c6 4 24 16 39 26
l26 18 26 0 26 0 20 -20 c11 -11 33 -46 49 -78 16 -32 56 -94 88 -137 32 -44
142 -215 242 -380 101 -165 198 -318 214 -340 17 -22 32 -42 34 -44 2 -2 5 -2
8 1 l6 5 -24 29 c-14 16 -110 170 -216 341 -105 172 -217 348 -248 390 -32 43
-75 111 -96 150 l-38 72 -22 16 c-23 16 -30 17 -62 7z"/>
<path d="M85420 34965 c0 -7 192 -318 208 -338 9 -9 17 -15 20 -12 3 3 -2 13
-10 22 -9 10 -59 89 -113 176 -87 142 -105 167 -105 152z"/>
<path d="M81740 34805 c0 -6 39 -49 86 -95 l86 -85 72 -95 c40 -52 80 -101 89
-109 l17 -13 0 10 c0 6 -5 14 -10 17 -6 4 -44 50 -84 103 l-74 97 -91 90 c-50
49 -91 85 -91 80z"/>
<path d="M1751 34443 c-17 -70 -39 -183 -50 -251 l-18 -123 8 -5 8 -5 5 23 c3
13 13 73 22 133 8 61 29 162 44 225 l29 115 -8 8 -8 8 -32 -128z"/>
<path d="M75600 34511 c-143 -65 -260 -129 -260 -141 l0 -9 73 41 c39 23 126
65 191 95 l120 53 30 -28 c112 -104 318 -282 326 -282 6 0 -51 55 -127 122
-76 66 -158 140 -183 164 l-45 42 -125 -57z"/>
<path d="M82271 34280 c85 -91 167 -180 182 -199 15 -18 30 -31 32 -29 8 8
-117 148 -246 273 l-122 120 154 -165z"/>
<path d="M55842 34325 c-112 -18 -206 -36 -209 -39 l-6 -6 10 0 c16 0 457 70
468 74 31 13 -85 0 -263 -29z"/>
<path d="M55858 34286 c-115 -18 -211 -36 -215 -39 l-6 -7 6 0 c21 0 472 71
476 75 9 10 -59 2 -261 -29z"/>
<path d="M84350 33546 c-361 -226 -728 -460 -815 -520 -189 -129 -170 -114
-162 -123 l7 -7 193 131 c105 71 471 305 812 518 341 213 624 391 628 395 l9
8 -9 5 -8 5 -655 -412z"/>
<path d="M53088 33901 c-103 -15 -191 -30 -194 -34 -4 -4 -5 -7 -3 -7 22 0
434 61 437 65 9 9 -50 3 -240 -24z"/>
<path d="M52290 33825 l-75 -13 -95 -2 -95 -1 -20 -9 -20 -9 105 5 c101 5 341
32 349 40 9 8 -77 1 -149 -11z"/>
<path d="M64595 33220 l-6 -9 23 -14 c98 -62 641 -367 645 -363 12 12 -22 33
-275 177 -147 84 -291 167 -320 186 -58 37 -58 37 -67 23z"/>
<path d="M76690 32705 l-375 -44 -445 -65 c-245 -36 -598 -84 -785 -106 -187
-23 -563 -72 -835 -111 -272 -38 -578 -78 -680 -89 -264 -29 -324 -39 -308
-56 l6 -6 254 27 c139 15 474 58 743 95 270 38 645 87 835 110 190 23 559 73
820 111 l475 69 320 35 c176 20 330 38 343 41 l22 4 0 15 c0 8 -3 15 -7 14 -5
-1 -177 -21 -383 -44z"/>
<path d="M79411 32686 c7 -7 362 -146 373 -146 l9 0 -6 7 c-11 11 -185 83
-276 114 -80 27 -110 35 -100 25z"/>
<path d="M82094 32072 c-187 -136 -396 -290 -466 -342 l-127 -95 9 -9 9 -9
123 92 c68 50 277 204 466 342 188 138 342 255 342 260 0 5 -4 9 -9 9 -5 0
-161 -112 -347 -248z"/>
<path d="M98808 31734 c-16 -8 -28 -19 -28 -24 0 -4 -3 -15 -6 -24 l-6 -16 9
0 c6 0 15 11 21 24 l11 25 37 7 36 7 -14 8 c-18 12 -28 11 -60 -7z"/>
<path d="M81384 31546 l-19 -14 7 -7 6 -6 21 13 c21 13 28 28 13 28 -5 0 -17
-6 -28 -14z"/>
<path d="M80830 31141 c-494 -362 -742 -551 -748 -571 l-5 -13 16 6 c8 3 79
56 157 117 78 62 338 256 578 432 241 176 444 326 452 334 l14 14 -14 0 -15
-1 -435 -318z"/>
<path d="M80365 30919 c-104 -77 -194 -144 -199 -149 l-10 -10 6 -5 6 -6 201
146 c176 129 222 167 194 164 -5 0 -93 -63 -198 -140z"/>
<path d="M99496 30868 c8 -15 73 -98 87 -113 l10 -10 -6 17 c-9 25 -80 118
-90 118 l-8 0 7 -12z"/>
<path d="M83494 29839 l-6 -11 18 -18 c11 -10 100 -88 199 -174 l179 -156 11
3 c5 2 10 8 10 13 0 10 -388 354 -399 354 -3 0 -8 -5 -12 -11z"/>
<path d="M84015 29021 l-7 -12 59 -62 c60 -63 195 -193 225 -215 l16 -13 6 9
5 8 -148 148 -148 148 -8 -11z"/>
<path d="M11426 28025 l-39 -196 6 -5 5 -6 11 54 c38 184 67 348 61 348 -3 0
-23 -88 -44 -195z"/>
<path d="M95310 26779 c-96 -71 -177 -134 -179 -140 -3 -9 325 226 359 257
l14 14 -9 -1 c-6 0 -89 -58 -185 -130z"/>
<path d="M87314 25977 l-5 -14 163 -161 163 -161 15 15 15 14 -160 160 -160
160 -13 0 -13 0 -5 -13z"/>
<path d="M85528 22043 c33 -38 104 -111 158 -163 l97 -95 -22 30 c-24 32 -281
295 -289 295 -2 0 23 -30 56 -67z"/>
<path d="M86410 21115 c0 -6 73 -82 162 -170 l161 -160 -51 60 c-67 80 -272
282 -272 270z"/>
<path d="M87167 20324 c149 -158 193 -201 193 -190 0 10 -298 320 -313 325 -7
2 47 -58 120 -135z"/>
<path d="M22695 19838 c2 -7 27 -107 54 -223 l51 -210 25 -195 25 -195 11
-230 c5 -126 18 -327 29 -445 l19 -215 16 -50 c15 -49 30 -73 40 -64 2 3 -4
34 -15 70 l-20 64 -15 170 c-9 94 -22 310 -30 480 l-15 310 -19 137 -19 137
-57 235 -57 236 -14 0 -13 0 4 -12z"/>
<path d="M88280 19724 c-148 -136 -197 -184 -187 -184 4 0 67 55 140 121 174
160 182 168 176 173 -2 2 -60 -47 -129 -110z"/>
<path d="M90262 19791 l-13 -8 100 -379 c97 -362 128 -473 142 -495 l6 -10 16
6 16 7 -14 39 c-8 21 -62 221 -121 444 -59 223 -110 405 -113 405 -3 0 -12 -4
-19 -9z"/>
<path d="M22812 18763 c8 -215 26 -475 40 -583 l10 -85 35 -85 35 -84 51 -66
c29 -36 273 -308 542 -605 483 -532 673 -747 771 -875 l50 -65 149 -263 149
-262 8 8 8 8 -156 274 c-86 151 -169 292 -184 315 -56 80 -304 361 -784 890
-270 297 -512 567 -537 600 l-46 61 -32 72 -32 72 -9 52 c-14 85 -49 606 -50
766 l0 22 -12 0 -13 0 7 -167z"/>
<path d="M92901 16963 c5 -16 318 -293 330 -293 5 0 -55 57 -133 127 -79 69
-156 138 -172 152 l-29 26 4 -12z"/>
<path d="M92177 16433 l-6 -10 96 -104 c53 -57 123 -132 156 -166 l59 -63 9 6
9 5 -147 157 c-80 86 -152 163 -159 170 l-12 14 -5 -9z"/>
<path d="M92140 16394 c0 -6 16 -26 36 -45 l37 -34 -11 20 c-6 11 -22 31 -36
44 l-26 24 0 -9z"/>
<path d="M98516 15233 c-2 -3 44 -44 102 -92 59 -47 140 -112 180 -145 40 -32
75 -57 77 -54 2 2 -76 70 -175 150 -98 80 -181 144 -184 141z"/>
<path d="M98127 14768 c-52 -62 -260 -304 -461 -538 -201 -234 -366 -429 -366
-435 l0 -9 14 14 c21 23 868 1009 895 1042 13 16 21 31 18 34 -3 3 -48 -46
-100 -108z"/>
<path d="M5967 14560 l16 -61 -9 -9 -9 -9 -114 -16 c-112 -15 -130 -20 -119
-30 5 -5 217 21 251 31 l17 5 0 22 c0 12 -6 44 -13 71 l-13 50 -11 3 -11 4 15
-61z"/>
<path d="M96313 12703 l7 -6 7 6 6 7 -13 0 -13 0 6 -7z"/>
<path d="M26230 10103 c0 -4 59 -410 130 -902 72 -491 130 -897 130 -902 l0
-9 14 0 15 0 -6 34 c-3 18 -62 426 -132 907 l-127 873 -12 4 -12 4 0 -9z"/>
<path d="M26796 5968 l-7 -41 -46 -86 -46 -86 -88 -110 -87 -110 -284 -281
c-156 -154 -297 -291 -315 -303 -18 -12 -137 -70 -265 -130 l-233 -107 -55
-36 c-30 -20 -87 -65 -127 -100 l-71 -64 -287 -354 c-158 -194 -289 -359 -292
-366 l-5 -14 10 0 11 0 281 348 282 347 81 74 c45 41 111 92 147 115 l65 42
205 93 c113 51 225 105 250 119 l45 25 284 281 283 281 88 108 87 108 48 87
48 87 13 49 13 49 -5 9 c-3 4 -9 8 -13 8 l-8 0 -7 -42z"/>
<path d="M26214 5307 l-319 -324 -210 -93 -210 -93 -95 -56 c-52 -30 -97 -58
-100 -61 -3 -3 -42 -40 -87 -83 -45 -42 -79 -77 -75 -77 3 0 -1 -6 -10 -12 -8
-7 -135 -159 -280 -338 -255 -313 -443 -562 -502 -663 l-28 -49 7 -6 7 -7 14
20 c8 11 74 103 147 205 l132 186 258 316 258 317 92 87 92 86 115 68 115 68
188 83 188 84 319 320 c176 176 320 324 320 330 1 5 -3 11 -7 12 l-9 3 -320
-323z"/>
<path d="M26110 4001 l0 -9 133 -5 132 -5 295 -31 c162 -16 310 -32 328 -35
l33 -5 -4 12 -4 12 -214 22 c-118 12 -270 28 -339 37 l-124 16 -118 0 -118 0
0 -9z"/>
<path d="M23722 2536 c-62 -91 -115 -172 -118 -180 l-6 -16 10 0 11 0 115 169
c64 94 116 175 116 180 0 28 -24 -1 -128 -153z"/>
<path d="M23015 2281 c3 -5 79 -68 170 -140 l164 -130 6 8 5 9 -165 131 c-91
72 -170 131 -176 131 l-10 0 6 -9z"/>
<path d="M22984 2232 c7 -11 313 -252 320 -252 21 0 -12 31 -149 138 -85 67
-160 122 -166 122 l-10 0 5 -8z"/>
<path d="M8910 1841 l0 -10 43 -5 c23 -3 112 -10 197 -16 85 -6 172 -13 193
-15 l37 -5 0 15 0 15 -27 0 c-16 0 -109 7 -208 15 -99 8 -192 15 -207 15 l-28
0 0 -9z"/>
<path d="M10790 1701 l0 -10 43 -5 c23 -3 127 -11 230 -17 l188 -11 6 6 6 6
-6 6 c-6 6 -347 33 -429 34 l-38 0 0 -9z"/>
<path d="M6925 1542 c-60 -26 -154 -71 -207 -100 l-98 -53 0 -10 c0 -18 26 -9
111 39 48 27 139 71 203 98 l116 49 0 13 c0 17 -3 16 -125 -36z"/>
<path d="M17680 1196 l0 -13 68 -6 c37 -3 239 -18 449 -33 l382 -28 7 7 c4 4
5 9 2 12 -3 3 -187 18 -409 35 -222 16 -425 31 -451 34 l-48 5 0 -13z"/>
<path d="M19040 1041 l0 -9 28 -6 c15 -3 114 -10 220 -17 l192 -12 7 6 c3 4 4
9 2 12 -5 4 -375 35 -426 35 l-23 0 0 -9z"/>
<path d="M20410 997 l0 -14 73 -7 c39 -3 141 -9 225 -13 l152 -6 0 10 0 9
-197 13 c-109 6 -210 14 -225 17 l-28 6 0 -15z"/>
</g>
</svg>
