<?xml version="1.0" standalone="no"?>
<!DOCTYPE svg PUBLIC "-//W3C//DTD SVG 20010904//EN"
 "http://www.w3.org/TR/2001/REC-SVG-20010904/DTD/svg10.dtd">
<svg version="1.0" xmlns="http://www.w3.org/2000/svg"
 width="7500.000000pt" height="7500.000000pt" viewBox="0 0 7500.000000 7500.000000"
 preserveAspectRatio="xMidYMid meet">
<metadata>
Created by potrace 1.16, written by Peter Selinger 2001-2019
</metadata>
<g transform="translate(0.000000,7500.000000) scale(0.075000,-0.075000)"
fill="#000000" stroke="none">
<path d="M89880 99660 l0 -10 34 0 35 0 6 10 6 10 -40 0 -41 0 0 -10z"/>
<path d="M84160 98790 l0 -13 7 6 6 7 -6 7 -7 6 0 -13z"/>
<path d="M85705 97951 c33 -3 66 -10 73 -14 22 -15 42 -65 63 -164 23 -112 28
-128 34 -122 2 3 -7 54 -20 116 l-23 111 -16 30 -16 31 -19 11 -20 10 -58 -2
-58 -1 60 -6z"/>
<path d="M89040 97101 c0 -3 69 -21 153 -40 83 -19 187 -42 230 -51 l77 -18 0
7 c0 3 -69 21 -153 40 -83 19 -187 42 -229 51 l-78 18 0 -7z"/>
<path d="M28590 96971 c0 -5 81 -73 181 -151 l180 -142 7 6 6 6 -15 14 c-26
24 -349 276 -354 276 -3 0 -5 -4 -5 -9z"/>
<path d="M86914 96274 l-31 -34 -119 -1 -119 0 -17 -7 -17 -7 132 0 132 0 15
10 c22 15 64 64 59 69 -3 3 -18 -11 -35 -30z"/>
<path d="M97137 93906 l-167 -175 11 -7 11 -7 105 104 c57 57 132 135 165 172
l61 68 -10 10 -9 9 -167 -174z"/>
<path d="M57069 93652 c-84 -118 -155 -244 -277 -489 l-81 -161 12 -11 13 -10
58 117 c32 64 96 189 143 277 l86 160 74 102 74 103 -6 10 c-3 5 -9 10 -13 9
-4 0 -41 -48 -83 -107z"/>
<path d="M87044 92954 c-49 -41 -131 -105 -181 -141 -82 -58 -108 -83 -87 -83
18 0 238 168 367 280 l9 8 -10 6 -9 5 -89 -75z"/>
<path d="M56642 92988 c-11 -18 -59 -104 -107 -191 l-88 -158 10 -10 10 -10
21 33 c11 18 60 106 110 195 l90 162 -6 5 c-11 12 -21 5 -40 -26z"/>
<path d="M56743 92954 c14 -14 342 -192 346 -188 2 2 2 6 0 7 -14 11 -338 187
-344 187 l-8 0 6 -6z"/>
<path d="M21950 92851 l0 -10 68 -20 c37 -11 132 -38 211 -61 l144 -41 8 8 9
9 -205 57 c-113 32 -212 60 -220 63 l-15 6 0 -11z"/>
<path d="M95127 91764 l-139 -176 10 -10 9 -9 136 175 c127 161 150 196 130
196 -5 0 -70 -79 -146 -176z"/>
<path d="M95265 91549 l-140 -169 -17 -6 -18 -5 0 -14 0 -14 28 10 27 10 139
169 c76 92 138 172 138 176 -2 25 -30 -3 -157 -157z"/>
<path d="M94793 90952 c-24 -24 -43 -46 -43 -48 0 -2 8 -4 19 -4 l19 0 36 40
c20 22 36 45 36 50 l0 10 -12 -1 c-7 -1 -32 -22 -55 -47z"/>
<path d="M94955 90729 c9 -17 19 -29 21 -26 7 7 -18 57 -28 57 l-9 0 16 -31z"/>
<path d="M95055 90670 l49 -49 65 -35 c84 -43 221 -100 227 -93 3 2 -33 19
-78 38 -46 18 -110 49 -143 68 l-60 34 -45 44 c-63 60 -75 54 -15 -7z"/>
<path d="M95395 90451 c6 -5 138 -62 295 -127 157 -64 312 -130 344 -146 l60
-30 58 -56 c32 -30 58 -51 58 -46 0 6 -21 30 -47 56 l-48 45 -70 37 c-54 29
-493 213 -635 268 l-25 9 10 -10z"/>
<path d="M98340 89294 l-85 -14 -355 -18 -355 -19 -127 -68 c-70 -38 -126 -71
-123 -73 2 -2 54 24 117 58 l113 62 60 8 c33 5 182 14 330 20 l270 11 115 15
114 16 43 -7 c24 -3 75 -17 115 -31 64 -22 92 -25 75 -8 -5 5 -222 66 -222 63
0 -1 -38 -8 -85 -15z"/>
<path d="M84663 88842 c-117 -25 -213 -49 -213 -52 l0 -7 213 46 c116 24 214
46 216 48 16 12 -29 5 -216 -35z"/>
<path d="M84820 88835 c-30 -7 -124 -28 -209 -46 l-155 -33 12 -4 c16 -5 404
78 417 89 l9 9 -9 -1 c-6 0 -35 -7 -65 -14z"/>
<path d="M39917 88643 l-5 -8 195 -105 c108 -58 200 -106 204 -108 l9 -4 0 14
0 13 -187 100 c-201 107 -208 110 -216 98z"/>
<path d="M83848 87824 c-4 -5 -16 -61 -28 -124 -20 -106 -155 -708 -165 -738
l-5 -14 12 4 12 4 63 270 c69 299 126 580 120 597 l-3 11 -6 -10z"/>
<path d="M27025 87759 l-120 -30 -45 4 c-25 3 -53 8 -62 12 l-18 7 0 -14 0
-14 48 -13 49 -12 74 16 c41 9 108 24 150 33 l76 16 42 -13 43 -12 144 -137
145 -137 65 -36 66 -37 55 -11 56 -11 151 0 151 0 47 -17 48 -17 207 -164
c115 -90 217 -168 228 -173 11 -5 72 -23 135 -40 63 -17 131 -40 151 -50 l36
-18 108 -115 107 -115 56 -33 c32 -19 147 -73 257 -122 l200 -89 60 -43 60
-43 51 -58 c29 -33 67 -84 87 -114 l34 -54 26 -85 26 -85 30 -170 29 -171 41
-103 c23 -56 53 -125 67 -153 l26 -50 10 10 10 10 -25 48 c-14 27 -43 94 -65
149 l-41 100 -30 171 -30 172 -26 87 -27 87 -29 47 c-16 25 -57 78 -92 117
l-62 71 -55 39 c-30 21 -62 42 -71 46 -9 3 -104 46 -210 94 l-194 87 -56 36
-56 36 -101 111 -101 110 -48 22 c-26 12 -101 36 -165 53 l-118 31 -212 168
-213 167 -43 16 -42 17 -158 0 -157 1 -60 13 -60 13 -53 27 -52 26 -147 141
c-81 77 -158 146 -173 154 -14 7 -45 15 -70 18 l-45 5 -120 -29z"/>
<path d="M74870 87651 l-194 -109 -4 -12 -5 -13 19 7 c11 4 106 55 211 113
l193 105 -6 9 c-3 5 -8 9 -12 8 -4 0 -95 -49 -202 -108z"/>
<path d="M75068 87714 l-6 -5 90 -187 c96 -201 95 -198 104 -189 l7 6 -89 183
c-48 101 -90 186 -94 191 l-6 7 -6 -6z"/>
<path d="M83200 87012 l0 -8 191 -68 190 -69 -5 -14 c-3 -8 -24 -96 -46 -196
-23 -100 -47 -210 -55 -244 -18 -73 -18 -73 -6 -73 13 0 17 12 76 280 l53 235
11 -2 11 -3 0 15 0 15 -9 0 -9 0 10 36 9 36 -6 6 -6 6 -9 -14 c-6 -8 -10 -25
-10 -37 l0 -23 -8 0 c-4 0 -88 29 -187 65 -185 67 -195 70 -195 57z"/>
<path d="M83681 86916 c2 -2 65 -21 139 -41 74 -20 156 -43 183 -50 l47 -14 0
7 0 7 -177 48 c-167 45 -202 53 -192 43z"/>
<path d="M83586 86657 c-21 -94 -47 -207 -56 -250 l-18 -78 11 4 11 3 52 230
c54 235 60 264 47 264 l-8 0 -39 -173z"/>
<path d="M88695 86659 c21 -59 19 -85 -20 -254 -29 -129 -35 -172 -22 -154 2
2 18 67 35 144 l32 140 0 51 0 51 -11 32 c-6 17 -15 31 -20 31 l-8 0 14 -41z"/>
<path d="M46655 85801 l-5 -10 17 -5 c57 -17 427 -95 432 -91 12 13 -28 26
-221 69 -234 52 -215 49 -223 37z"/>
<path d="M80446 85781 c5 -5 47 -22 94 -39 47 -17 131 -47 188 -67 57 -21 105
-35 107 -33 5 5 -374 148 -390 148 l-9 0 10 -9z"/>
<path d="M63957 85774 l-6 -7 9 -17 c5 -9 10 -36 11 -59 l3 -42 8 -5 8 -5 42
29 43 29 229 21 c126 12 232 24 234 27 3 3 2 8 -2 12 l-6 7 -231 -22 -230 -21
-35 -21 -34 -22 0 29 0 28 -18 23 -18 23 -7 -7z"/>
<path d="M63720 85685 l0 -26 16 -24 16 -25 9 6 9 5 -10 19 c-5 10 -10 30 -10
44 l0 26 -15 0 -15 0 0 -25z"/>
<path d="M21050 85670 l0 -10 38 -19 c20 -10 102 -65 181 -121 80 -56 151
-104 158 -107 l13 -5 0 8 c0 12 -272 203 -337 237 l-53 27 0 -10z"/>
<path d="M63921 85604 l-34 -24 -23 0 -24 0 0 -10 0 -10 33 0 32 0 33 20 32
20 0 15 c0 20 -8 18 -49 -11z"/>
<path d="M56852 85593 l-93 -4 4 -12 4 -12 114 3 c63 1 144 5 182 8 l67 6 0 9
0 9 -92 -2 c-51 -1 -135 -4 -186 -5z"/>
<path d="M56247 85584 c-4 -4 -7 -11 -7 -16 l0 -8 201 0 201 0 -4 13 -5 12
-189 3 -190 2 -7 -6z"/>
<path d="M63887 85508 l32 -32 7 7 7 7 -23 25 -23 25 -16 0 -16 0 32 -32z"/>
<path d="M39625 85520 l-6 -10 57 -25 c31 -14 58 -25 60 -25 1 0 87 -51 191
-113 348 -210 704 -452 750 -511 12 -14 47 -46 80 -70 l59 -43 74 -82 75 -82
47 -82 48 -82 19 -60 c11 -33 30 -111 42 -174 l22 -114 -10 -111 -11 -111 -51
-176 c-28 -97 -68 -226 -90 -287 l-40 -111 9 -6 9 -6 9 18 c17 33 91 257 138
417 l46 159 6 127 5 126 -17 95 c-9 52 -26 123 -38 159 l-21 65 -53 95 -52 95
-106 100 c-171 163 -237 222 -306 272 -135 97 -373 251 -587 379 l-221 133
-61 25 c-69 30 -68 29 -76 16z"/>
<path d="M51938 85240 l-198 -7 -7 -6 -6 -7 6 -6 6 -6 240 7 239 7 -5 14 -5
14 -37 -2 c-20 -1 -125 -4 -233 -8z"/>
<path d="M84055 85037 c-55 -51 -133 -122 -174 -158 l-74 -66 7 -12 7 -11 152
137 c84 75 163 147 177 160 l24 23 -9 9 -10 9 -100 -91z"/>
<path d="M29666 85022 l-5 -8 261 -77 c232 -68 285 -81 266 -62 -4 4 -504 155
-514 155 -1 0 -5 -4 -8 -8z"/>
<path d="M64278 84510 c-25 -16 -107 -74 -182 -130 l-136 -100 0 -11 0 -10 13
7 c6 4 77 56 157 115 80 58 160 114 178 123 l33 17 -6 9 c-8 13 -2 14 -57 -20z"/>
<path d="M83337 84342 l-198 -177 10 -3 11 -4 190 173 c159 145 205 191 188
189 -2 -1 -92 -80 -201 -178z"/>
<path d="M64335 84480 c-4 -6 -4 -10 -1 -10 2 0 11 -3 20 -6 l16 -6 0 10 c0 5
-7 12 -15 15 l-14 6 -6 -9z"/>
<path d="M80066 84481 c10 -10 410 -151 427 -151 l11 0 -9 8 c-10 9 -415 152
-430 152 l-9 0 10 -9z"/>
<path d="M83295 84354 c-83 -74 -161 -145 -174 -158 l-23 -24 10 -6 10 -6 169
152 c92 83 169 155 171 159 2 4 -1 9 -5 12 l-8 5 -150 -134z"/>
<path d="M29982 84393 l-7 -18 1 -80 1 -80 141 -410 c176 -515 223 -626 282
-680 l20 -18 6 6 6 6 -26 32 c-63 74 -110 190 -276 684 l-132 390 -5 50 -5 50
10 43 10 42 -9 0 c-5 0 -13 -8 -17 -17z"/>
<path d="M82560 84243 l0 -108 18 -21 c9 -11 30 -28 46 -38 l28 -18 12 12 11
13 -13 4 c-7 3 -26 16 -42 30 l-30 25 0 104 0 104 -15 0 -15 0 0 -107z"/>
<path d="M11073 84287 l3 -11 215 -67 c118 -37 216 -65 218 -63 11 10 -25 25
-169 69 -85 26 -181 56 -213 66 l-58 18 4 -12z"/>
<path d="M80950 84211 c8 -5 101 -38 205 -74 105 -36 198 -68 208 -72 l17 -7
0 10 0 10 -207 71 c-115 39 -215 71 -223 71 l-15 -1 15 -8z"/>
<path d="M23913 84197 l3 -11 180 -78 c98 -43 194 -85 212 -94 l34 -16 6 6 6
6 -10 9 c-5 4 -22 13 -39 19 -16 5 -112 46 -213 90 l-183 81 4 -12z"/>
<path d="M83310 84072 c-47 -43 -110 -98 -139 -124 l-53 -48 19 0 20 0 124
112 c129 115 135 123 122 131 l-8 5 -85 -76z"/>
<path d="M83358 84053 c-25 -27 -52 -61 -61 -78 l-14 -30 -6 -72 -6 -73 8 0 9
0 6 31 c3 17 6 47 6 66 l0 34 19 37 19 37 41 40 c39 38 50 55 33 55 -4 0 -28
-21 -54 -47z"/>
<path d="M12400 83912 l0 -7 222 -48 c197 -42 243 -48 227 -32 -6 5 -415 95
-435 95 -8 0 -14 -3 -14 -8z"/>
<path d="M84390 83821 c-69 -53 -158 -121 -198 -153 l-73 -56 9 -6 9 -5 189
145 c104 81 193 150 197 154 l9 8 -9 5 -8 5 -125 -97z"/>
<path d="M12390 83861 c0 -6 1 -11 3 -11 1 0 96 -20 210 -45 217 -47 237 -50
237 -37 l0 7 -202 43 c-112 23 -213 45 -225 48 l-23 6 0 -11z"/>
<path d="M77218 83693 c-62 -90 -826 -1318 -822 -1322 5 -6 -34 -68 404 634
339 544 421 672 461 719 l7 8 112 -37 c61 -20 114 -35 116 -32 6 6 -204 77
-228 77 l-17 0 -33 -47z"/>
<path d="M83226 83495 c4 -8 10 -15 15 -15 l9 0 0 15 0 15 -15 0 -14 0 5 -15z"/>
<path d="M46660 83491 l15 -11 41 0 c23 0 84 -9 135 -19 90 -18 225 -36 204
-26 -16 7 -284 53 -350 60 l-60 6 15 -10z"/>
<path d="M47101 83461 c-12 -12 -21 -26 -21 -33 l0 -11 23 22 24 22 25 -10 25
-9 6 -16 c4 -9 11 -16 16 -16 l9 0 -5 20 c-7 25 -21 37 -55 45 l-26 7 -21 -21z"/>
<path d="M77920 83471 l0 -7 210 -68 211 -67 12 4 12 4 -150 47 c-82 26 -183
58 -222 71 l-73 24 0 -8z"/>
<path d="M49815 83413 c-120 -25 -519 -115 -904 -204 l-474 -109 -61 0 -61 0
-40 11 c-22 6 -137 46 -255 90 l-215 78 -313 49 -313 48 -5 -8 -5 -8 13 -4 c7
-2 117 -20 243 -40 127 -20 265 -43 308 -51 l79 -14 201 -75 c111 -41 226 -81
256 -90 l55 -16 45 0 46 0 475 109 c261 60 574 133 695 161 l220 52 88 -5 87
-6 0 9 0 9 -47 6 c-27 3 -59 7 -73 9 -14 2 -34 1 -45 -1z"/>
<path d="M47140 83350 c0 -11 -18 -104 -39 -207 -22 -104 -59 -288 -82 -411
l-41 -223 6 -6 c3 -4 8 -4 10 -2 2 2 21 101 44 219 22 118 61 309 86 423 l46
209 -6 9 c-3 5 -9 9 -15 9 l-9 0 0 -20z"/>
<path d="M46945 82622 l-59 -317 -12 -120 c-6 -66 -9 -122 -7 -124 10 -13 17
21 28 136 l13 128 56 294 c59 307 61 321 49 321 l-8 0 -60 -318z"/>
<path d="M30822 82849 l4 -13 194 -118 193 -117 9 5 c12 8 30 -4 -192 129
-107 64 -199 120 -204 122 l-9 6 5 -14z"/>
<path d="M40914 82807 l-5 -13 45 -108 c25 -59 56 -124 68 -144 32 -53 121
-150 210 -226 l76 -67 254 -138 253 -139 135 -92 135 -91 48 -47 c44 -44 118
-144 147 -201 13 -26 69 -174 150 -401 26 -74 72 -198 103 -275 30 -77 61
-165 70 -195 l16 -55 7 -102 7 -103 13 0 14 0 -6 73 c-3 39 -10 97 -14 128
l-8 56 -95 254 c-53 140 -121 328 -152 418 -63 184 -89 239 -150 326 -60 84
-120 137 -275 241 l-135 91 -245 133 -245 134 -80 69 c-44 38 -108 101 -143
139 l-62 69 -29 57 c-15 31 -42 94 -60 140 -19 45 -35 82 -37 82 -3 0 -7 -6
-10 -13z"/>
<path d="M76550 82553 c-63 -102 -116 -193 -118 -202 -2 -9 40 54 93 139 124
198 148 240 144 245 -3 2 -56 -80 -119 -182z"/>
<path d="M92542 82405 c-85 -119 -134 -198 -110 -175 5 4 141 194 207 288 l22
32 -8 0 c-4 0 -54 -65 -111 -145z"/>
<path d="M94768 82358 c-62 -89 -117 -168 -122 -176 l-8 -14 11 3 c12 4 241
328 241 341 0 4 -2 8 -4 8 -3 0 -56 -73 -118 -162z"/>
<path d="M95713 80723 c-34 -49 -89 -128 -123 -177 -34 -48 -57 -87 -51 -85
13 5 252 349 242 349 -4 0 -35 -39 -68 -87z"/>
<path d="M98670 80186 c0 -7 118 -75 253 -146 l138 -72 6 5 5 6 -110 55 c-60
30 -148 78 -195 106 -81 47 -97 55 -97 46z"/>
<path d="M78299 79771 c-543 -391 -751 -547 -1114 -835 -972 -769 -1294 -1026
-1605 -1281 -195 -160 -569 -461 -830 -669 l-475 -379 -124 -116 c-68 -64
-175 -172 -236 -241 l-112 -125 -115 -160 -114 -160 -74 -135 -75 -135 -217
-480 -217 -479 12 -8 12 -7 6 12 c4 7 100 219 215 472 l208 460 81 145 81 145
112 155 111 155 105 119 c57 65 156 167 219 226 l114 108 504 403 c277 221
648 521 825 665 177 144 487 394 690 555 203 161 533 424 734 584 471 376 737
578 1318 996 259 188 472 345 472 349 0 5 -3 11 -7 13 l-8 5 -496 -357z"/>
<path d="M13246 78729 c-3 -13 -10 -71 -17 -129 l-12 -104 -28 -103 -27 -103
7 0 c3 0 19 48 34 108 l27 107 15 119 c8 66 13 121 10 124 -2 2 -6 -6 -9 -19z"/>
<path d="M98470 78659 c-63 -94 -135 -228 -127 -235 2 -3 21 28 42 68 21 40
64 113 97 161 33 49 58 91 55 93 -3 3 -33 -36 -67 -87z"/>
<path d="M76610 78394 c-52 -42 -113 -90 -135 -107 l-39 -32 7 19 7 19 -17
-13 c-10 -7 -47 -44 -83 -81 l-65 -68 -575 -461 c-632 -507 -816 -657 -903
-739 l-57 -54 -15 -50 -15 -51 0 -43 0 -43 14 0 14 0 4 70 4 70 64 66 c98 99
310 276 905 754 297 239 642 516 768 617 l227 184 -5 10 c-4 5 -7 9 -8 9 -1 0
-45 -34 -97 -76z"/>
<path d="M42266 77743 c4 -16 14 -46 24 -68 l17 -40 39 -36 40 -35 335 -168
c184 -92 330 -163 324 -158 -5 6 -149 82 -320 170 l-310 160 -52 49 -51 48
-18 53 c-10 28 -22 52 -27 52 l-7 0 6 -27z"/>
<path d="M40212 77710 c2 -5 84 -66 183 -134 l180 -126 4 11 c1 6 1 11 0 13
-42 31 -359 246 -364 246 -4 0 -5 -4 -3 -10z"/>
<path d="M74540 77533 c0 -7 3 -13 8 -13 139 -1 426 -11 458 -16 l44 -6 0 15
0 15 -152 8 c-84 4 -199 8 -255 8 l-103 1 0 -12z"/>
<path d="M46040 77383 l-1 -158 -8 -40 c-5 -22 -12 -55 -16 -72 l-7 -33 10 0
10 0 12 43 12 42 5 188 5 187 -11 0 -11 0 0 -157z"/>
<path d="M71130 77070 l0 -10 225 0 225 0 0 10 0 10 -225 0 -225 0 0 -10z"/>
<path d="M73550 77060 l0 -10 240 0 240 0 0 10 0 10 -240 0 -240 0 0 -10z"/>
<path d="M74330 76977 l0 -54 -32 -35 c-18 -20 -81 -77 -141 -128 l-107 -92 6
-9 6 -10 16 14 c169 142 249 214 259 231 l12 21 1 58 0 57 -10 0 -10 0 0 -53z"/>
<path d="M41936 76871 l-7 -11 26 -48 c14 -26 41 -65 59 -86 l33 -39 12 7 11
7 -39 47 c-22 26 -51 67 -64 90 l-25 44 -6 -11z"/>
<path d="M74613 76770 l-23 -9 0 -10 0 -10 33 5 c17 3 38 8 45 10 l13 4 -6 10
c-7 12 -32 12 -62 0z"/>
<path d="M74555 76630 c3 -5 8 -10 11 -10 2 0 4 5 4 10 0 6 -5 10 -11 10 l-10
0 6 -10z"/>
<path d="M78165 76275 c-93 -41 -188 -81 -209 -89 l-40 -16 6 -6 6 -6 209 87
c114 48 212 91 218 96 l9 9 -14 -1 c-8 -1 -91 -34 -185 -74z"/>
<path d="M73968 76212 c-103 -109 -298 -375 -386 -527 l-64 -110 -217 -490
c-120 -269 -239 -541 -266 -603 -51 -120 -68 -143 -35 -46 11 32 19 66 18 74
l-3 15 -42 -105 c-22 -58 -44 -116 -48 -130 l-6 -25 10 15 11 15 0 -10 c0 -6
-48 -123 -106 -260 -58 -138 -108 -256 -111 -262 l-5 -13 14 0 13 0 79 188
c43 103 94 219 112 257 18 39 66 147 107 240 41 94 169 382 284 640 l210 470
71 122 c83 143 162 259 241 357 31 39 83 103 114 143 l57 72 -8 5 -9 5 -35
-37z"/>
<path d="M44580 75405 l0 -13 27 -7 c31 -7 339 -189 403 -237 25 -19 62 -47
83 -62 l37 -28 0 14 0 15 -77 59 c-43 33 -151 104 -240 158 l-161 98 -36 8
-36 8 0 -13z"/>
<path d="M36295 74987 c-33 -67 -80 -157 -107 -199 l-47 -78 12 0 13 0 51 88
c29 48 74 135 102 194 l50 108 -8 4 -8 5 -58 -122z"/>
<path d="M45075 75059 c-4 -6 -5 -13 -2 -16 7 -7 27 6 27 18 0 12 -17 12 -25
-2z"/>
<path d="M45366 74891 l-6 -9 193 -151 c105 -82 284 -223 396 -312 l203 -161
10 10 10 10 -200 159 c-238 188 -569 445 -588 456 l-13 7 -5 -9z"/>
<path d="M14472 74258 l4 -12 214 -38 214 -39 14 6 15 5 -6 6 c-4 5 -429 84
-450 84 l-9 0 4 -12z"/>
<path d="M72567 74103 c-30 -65 -76 -164 -100 -220 l-45 -102 12 -4 13 -5 23
56 c13 32 57 129 97 216 l73 160 -8 8 -9 9 -56 -118z"/>
<path d="M46714 72903 c4 -38 18 -115 32 -173 l24 -105 31 -77 31 -77 142
-148 143 -148 51 -85 51 -85 62 -160 c34 -88 81 -212 106 -275 24 -63 99 -259
165 -435 66 -176 133 -345 148 -376 37 -75 140 -227 179 -263 l31 -30 7 7 6 7
-39 47 c-22 27 -67 91 -101 143 l-62 95 -49 125 c-49 125 -256 670 -371 976
l-60 162 -43 71 -43 70 -13 1 -13 0 5 8 5 8 -143 151 -143 150 -31 79 -32 79
-25 112 c-14 61 -25 124 -25 140 0 15 -3 38 -6 51 l-6 22 -10 0 -10 0 6 -67z"/>
<path d="M72255 72552 c9 -10 342 -162 354 -162 23 0 -141 78 -329 157 l-35
15 10 -10z"/>
<path d="M71959 72378 c-67 -79 -129 -150 -136 -160 l-14 -16 10 -6 10 -6 135
157 c75 86 136 160 136 165 0 24 -30 -5 -141 -134z"/>
<path d="M79290 72412 l0 -8 233 -15 c127 -9 234 -14 236 -12 2 1 1 6 -3 10
l-6 7 -178 12 c-97 7 -201 13 -229 13 l-53 1 0 -8z"/>
<path d="M71336 72121 l-5 -8 23 -22 24 -23 7 12 7 11 -18 20 c-19 21 -30 24
-38 10z"/>
<path d="M71426 72031 l-6 -8 19 -17 19 -17 7 11 7 11 -12 14 c-14 17 -26 19
-34 6z"/>
<path d="M71505 71961 l-8 -13 155 -155 155 -155 6 8 5 9 -152 159 -152 160
-9 -13z"/>
<path d="M29060 70907 l0 -13 30 -18 31 -18 87 -14 87 -14 65 0 c79 0 443 36
519 51 l54 11 238 -7 239 -8 0 17 0 17 -272 -4 -273 -3 -235 -27 -235 -27 -70
6 c-38 3 -97 10 -130 16 l-60 9 -33 20 c-39 23 -42 23 -42 6z"/>
<path d="M29860 70850 c-25 -4 -116 -13 -202 -20 l-158 -13 0 -14 0 -14 58 6
c391 38 392 38 392 56 l0 9 -22 -1 c-13 -1 -43 -5 -68 -9z"/>
<path d="M47620 70830 c0 -5 9 -33 20 -61 l21 -52 76 -116 76 -116 81 -78 81
-78 56 -33 56 -33 49 -11 c27 -6 99 -18 159 -27 149 -22 211 -36 410 -95 l170
-50 170 -30 169 -30 10 10 9 9 -14 5 c-8 3 -84 16 -169 30 l-155 25 -110 35
c-60 19 -157 49 -214 65 l-104 31 -126 16 c-69 8 -154 21 -188 29 l-63 15 -42
26 c-66 42 -165 132 -217 199 -61 79 -155 229 -176 283 l-17 42 -9 0 c-5 0 -9
-4 -9 -10z"/>
<path d="M69636 69989 l-176 -181 7 -11 6 -11 179 182 c165 168 193 202 169
202 -5 0 -88 -82 -185 -181z"/>
<path d="M61896 69435 c-58 -101 -107 -189 -108 -196 l-3 -11 11 -5 11 -4 98
173 c54 95 105 183 112 194 l14 22 -15 5 -15 6 -105 -184z"/>
<path d="M50255 69499 l-6 -9 28 -11 c15 -6 49 -19 76 -29 l47 -18 0 14 c0 8
-2 14 -5 14 -2 0 -34 11 -70 24 l-64 25 -6 -10z"/>
<path d="M68805 69133 c-159 -164 -308 -313 -332 -332 l-43 -34 -34 -46 c-18
-25 -203 -221 -410 -435 -207 -213 -376 -392 -376 -397 0 -4 3 -10 8 -13 l7
-4 742 766 c408 422 742 771 743 777 1 5 -3 11 -8 13 l-9 3 -288 -298z"/>
<path d="M68681 69069 c-84 -88 -202 -203 -262 -256 l-108 -96 -573 -589 -573
-590 -179 -167 c-214 -198 -315 -282 -889 -730 -481 -376 -615 -473 -787 -571
l-115 -66 -155 -56 c-172 -62 -245 -81 -400 -103 l-104 -16 -176 -9 c-96 -5
-398 -14 -670 -20 -272 -5 -601 -15 -730 -20 l-235 -11 -115 -20 c-63 -12
-171 -37 -240 -56 l-124 -35 -116 -48 c-145 -61 -223 -97 -545 -255 -143 -70
-411 -199 -595 -287 -797 -382 -881 -425 -1112 -575 l-128 -82 -192 -164 -193
-164 -261 -190 -260 -190 -450 -263 -449 -264 -321 -212 c-177 -116 -351 -235
-387 -264 l-66 -53 5 -9 c10 -15 25 -8 92 46 71 57 174 127 285 195 l68 41 11
-6 11 -7 -6 10 -7 11 138 90 c75 49 353 216 616 371 l480 282 255 187 256 186
189 160 188 161 142 99 141 98 100 48 c55 27 125 63 155 79 74 41 625 310
1055 516 193 92 442 211 555 265 326 157 433 194 685 240 l110 20 200 10 c110
5 425 14 700 20 275 6 597 15 715 21 l215 10 105 15 c58 8 145 25 195 36 l89
21 156 57 155 58 108 61 c167 95 296 189 772 561 573 448 673 530 895 736
l185 172 445 458 c244 253 496 512 560 578 63 65 162 161 220 213 58 52 183
176 277 275 l173 181 -6 8 c-3 5 -8 9 -12 9 -4 0 -76 -72 -161 -161z"/>
<path d="M35261 69020 c-51 -94 -92 -173 -89 -175 2 -2 32 46 66 108 34 62 78
140 97 175 19 34 31 62 27 62 -4 0 -50 -77 -101 -170z"/>
<path d="M36235 69081 l20 -10 400 -61 c220 -33 408 -62 418 -64 l17 -4 0 7 0
6 -412 64 c-227 35 -424 65 -438 67 l-25 4 20 -9z"/>
<path d="M61432 68502 c-93 -163 -313 -551 -488 -862 l-317 -565 -70 -150
c-38 -82 -94 -210 -124 -284 l-54 -133 -40 -160 -39 -159 0 -51 0 -52 -64
-236 -65 -236 -141 -389 c-78 -215 -160 -439 -181 -499 l-39 -109 22 15 22 15
88 244 c49 134 131 359 182 499 l94 255 56 216 56 215 0 48 0 47 40 160 40
160 59 142 c33 78 90 210 128 292 l69 150 368 655 c395 703 549 977 578 1026
l19 32 -15 5 -14 6 -170 -297z"/>
<path d="M77055 68363 c3 -54 8 -160 11 -235 l6 -138 8 5 8 5 -5 157 c-2 87
-6 191 -9 231 l-6 72 -8 0 -9 0 4 -97z"/>
<path d="M60887 67653 c-119 -213 -217 -394 -219 -402 l-3 -13 11 -4 10 -4
204 367 c112 203 210 380 219 395 l15 28 -11 11 -11 11 -215 -389z"/>
<path d="M66934 67249 c-23 -11 -50 -29 -60 -40 l-18 -20 54 21 c61 24 74 33
69 49 l-4 11 -41 -21z"/>
<path d="M76906 67008 c3 -79 7 -176 10 -215 l6 -73 8 0 8 0 -4 143 c-3 78 -7
175 -10 215 l-6 72 -8 0 -8 0 4 -142z"/>
<path d="M43510 66868 c-69 -100 -134 -190 -145 -200 l-19 -18 -16 6 c-8 3
-97 28 -197 54 l-183 47 0 -6 c0 -4 84 -28 188 -55 l187 -48 13 -11 14 -11 9
16 9 16 26 6 26 7 14 -12 14 -11 0 10 0 10 -25 9 -26 8 52 75 c28 41 85 123
126 183 41 59 71 107 66 107 -4 0 -64 -82 -133 -182z"/>
<path d="M55377 66926 l-16 -24 -16 -125 c-16 -130 -18 -174 -10 -166 2 3 12
68 20 145 l16 139 20 28 20 27 -10 0 c-5 0 -16 -11 -24 -24z"/>
<path d="M16800 66909 c47 -4 150 -7 230 -6 l145 0 -130 8 c-71 3 -175 7 -230
6 l-100 0 85 -8z"/>
<path d="M39085 66915 c-5 -2 -97 -9 -202 -16 l-193 -12 0 -6 0 -6 219 15 219
15 8 8 7 7 -24 -1 c-13 0 -28 -2 -34 -4z"/>
<path d="M66240 66661 c-19 -15 -96 -75 -172 -133 l-136 -105 7 -11 6 -10 171
131 c94 73 172 136 173 142 5 19 -15 14 -49 -14z"/>
<path d="M77235 66560 l-80 -6 110 -1 c61 0 162 3 225 7 l115 7 -145 -1 c-80
0 -181 -3 -225 -6z"/>
<path d="M44265 66331 c13 -12 377 -123 383 -116 6 6 15 3 -193 65 -93 28
-177 53 -185 56 l-15 5 10 -10z"/>
<path d="M44245 66293 l10 -11 193 -55 192 -54 0 6 c0 4 -84 31 -187 60 -103
30 -194 56 -203 59 l-15 5 10 -10z"/>
<path d="M45711 66226 c3 -3 683 -291 874 -370 l40 -17 -10 10 c-11 10 -886
381 -900 381 -4 0 -6 -2 -4 -4z"/>
<path d="M41550 66192 l0 -10 156 -101 c86 -56 159 -100 161 -97 3 3 -48 40
-113 82 -66 42 -138 90 -161 106 l-43 29 0 -9z"/>
<path d="M60165 65953 c-27 -87 -63 -207 -81 -266 l-32 -108 16 3 16 3 78 255
c43 140 78 258 78 263 0 4 -6 7 -14 7 l-13 0 -48 -157z"/>
<path d="M94464 66075 c31 -202 59 -364 67 -380 l9 -20 -4 25 c-3 14 -16 102
-31 195 -14 94 -30 179 -35 190 l-10 20 4 -30z"/>
<path d="M63780 65700 l0 -13 7 6 6 7 -6 7 -7 6 0 -13z"/>
<path d="M94818 65662 l-248 -45 0 -14 0 -13 23 5 c12 2 123 23 247 46 123 22
226 42 228 44 2 2 2 8 1 13 l-4 8 -247 -44z"/>
<path d="M62770 65693 c-19 -2 -96 -13 -170 -24 l-135 -20 -145 -43 -146 -44
-104 -47 c-99 -45 -1574 -757 -1725 -833 l-70 -35 15 18 14 17 -104 -52 -105
-52 -35 -33 c-19 -18 -87 -67 -151 -109 -121 -80 -169 -118 -169 -136 0 -17
10 -12 99 54 47 35 129 92 181 127 l95 63 205 96 c113 54 513 247 890 430 377
183 748 363 825 400 l140 67 160 47 160 46 128 20 127 20 55 0 55 0 0 15 0 15
-27 -2 c-16 0 -44 -3 -63 -5z"/>
<path d="M34720 65601 c0 -4 98 -26 218 -50 119 -24 223 -46 230 -48 l12 -5 0
9 0 8 -230 46 c-126 25 -230 43 -230 40z"/>
<path d="M48745 65312 c-54 -97 -112 -202 -129 -232 l-29 -55 12 11 c18 16
252 436 249 445 -2 5 -48 -71 -103 -169z"/>
<path d="M41177 65394 l-6 -6 14 -22 c7 -11 25 -48 38 -81 14 -33 42 -89 62
-125 20 -36 62 -112 93 -170 50 -96 115 -202 268 -440 l55 -85 77 -77 77 -78
12 0 c24 0 13 15 -68 95 l-80 80 -128 205 c-162 259 -301 504 -341 600 -18 41
-40 83 -49 93 l-17 18 -7 -7z"/>
<path d="M60124 65350 c-7 -19 -30 -86 -53 -148 l-41 -114 12 4 12 4 43 130
43 129 -2 15 -3 15 -11 -35z"/>
<path d="M48110 65211 c0 -3 200 -92 445 -197 245 -105 445 -188 445 -184 0 4
-200 92 -445 197 -245 105 -445 188 -445 184z"/>
<path d="M38450 65180 c0 -16 -58 -485 -65 -522 l-4 -28 7 0 8 0 33 275 34
275 -6 7 -7 6 0 -13z"/>
<path d="M38461 64933 c-17 -142 -34 -268 -37 -280 l-4 -23 7 0 8 0 35 280
c19 154 33 280 29 280 -3 0 -20 -116 -38 -257z"/>
<path d="M34420 65144 l0 -20 458 -43 457 -44 232 -47 232 -48 6 16 c3 8 3 17
0 20 -2 3 -98 24 -212 48 l-208 44 -405 40 c-223 22 -440 43 -482 47 l-78 6 0
-19z"/>
<path d="M36113 64933 l7 -6 7 6 6 7 -13 0 -13 0 6 -7z"/>
<path d="M36168 64923 l13 -5 6 6 6 6 -19 -1 -19 -1 13 -5z"/>
<path d="M36208 64913 c6 -2 18 -2 25 0 l12 5 -25 0 -25 0 13 -5z"/>
<path d="M36265 64903 c11 -3 59 -13 108 -23 l87 -17 0 7 0 7 -93 16 c-51 10
-100 16 -108 16 l-14 -1 20 -5z"/>
<path d="M36473 64893 l7 -6 7 6 6 7 -13 0 -13 0 6 -7z"/>
<path d="M91652 64715 c-104 -50 -232 -119 -261 -141 -1 -1 0 -8 4 -13 l6 -11
42 25 c23 14 113 62 200 106 l157 79 0 10 c0 16 -7 13 -148 -55z"/>
<path d="M37180 64720 l0 -20 11 0 c14 0 383 -48 422 -55 l27 -4 0 19 0 20
-22 4 c-26 6 -410 56 -427 56 l-11 0 0 -20z"/>
<path d="M37928 64663 c6 -2 18 -2 25 0 l12 5 -25 0 -25 0 13 -5z"/>
<path d="M38018 64653 c6 -2 18 -2 25 0 l12 5 -25 0 -25 0 13 -5z"/>
<path d="M38108 64643 c6 -2 18 -2 25 0 l12 5 -25 0 -25 0 13 -5z"/>
<path d="M38198 64633 c6 -2 18 -2 25 0 l12 5 -25 0 -25 0 13 -5z"/>
<path d="M38288 64623 c6 -2 18 -2 25 0 l12 5 -25 0 -25 0 13 -5z"/>
<path d="M38378 64613 c6 -2 18 -2 25 0 l12 5 -25 0 -25 0 13 -5z"/>
<path d="M38473 64603 c9 -2 23 -2 30 0 l12 5 -30 0 -30 0 18 -5z"/>
<path d="M38563 64593 c9 -2 23 -2 30 0 l12 5 -30 0 -30 0 18 -5z"/>
<path d="M37057 64571 l-4 -19 41 -12 c22 -7 109 -21 191 -32 l150 -19 240
-14 c132 -8 257 -15 278 -15 l37 0 0 20 0 20 -35 0 c-168 0 -756 56 -845 80
-46 13 -47 13 -53 -9z"/>
<path d="M38643 64583 c9 -2 25 -2 35 0 l17 5 -35 0 -35 0 18 -5z"/>
<path d="M38733 64573 c9 -2 25 -2 35 0 l17 5 -35 0 -35 0 18 -5z"/>
<path d="M38800 64564 c8 -3 67 -15 130 -28 l115 -24 215 -65 215 -65 116 -50
c64 -28 125 -55 135 -61 10 -6 101 -43 202 -81 l183 -70 17 9 17 10 -25 9
c-749 288 -746 287 -942 346 -107 32 -320 76 -362 75 l-31 -1 15 -4z"/>
<path d="M59788 64523 l-25 -28 -12 -34 c-13 -40 -11 -45 12 -28 l17 12 20 53
c11 28 19 52 17 52 -2 0 -15 -12 -29 -27z"/>
<path d="M49801 64486 c9 -9 393 -166 396 -162 2 2 -31 18 -74 36 -43 18 -129
54 -192 81 -101 44 -143 58 -130 45z"/>
<path d="M77170 64388 c1 -57 5 -150 10 -208 l8 -104 30 -26 30 -25 17 -34 17
-34 -4 -63 -4 -63 -33 -46 -32 -45 3 -17 3 -17 28 43 28 42 31 19 31 19 39 6
38 7 0 10 0 10 -42 -7 c-24 -4 -47 -11 -52 -16 -6 -5 -13 -9 -16 -9 l-6 0 4
59 4 59 -12 38 -13 39 -35 32 -35 32 -8 78 c-4 43 -8 133 -8 201 l-1 122 -10
0 -10 0 0 -102z"/>
<path d="M36960 64438 c-1 -7 -18 -133 -39 -280 l-37 -268 6 0 c4 0 24 126 46
280 l39 280 -7 0 c-5 0 -8 -6 -8 -12z"/>
<path d="M59712 64313 l-20 -18 -50 -137 -49 -136 -54 -98 -54 -98 -72 -76
-72 -77 -88 -56 -88 -55 -90 -26 -90 -26 -165 -15 -165 -15 -52 -14 c-84 -23
-142 -53 -483 -255 -395 -234 -472 -282 -467 -287 2 -2 32 7 66 21 l62 26 344
204 c189 113 368 215 397 228 77 34 133 45 313 62 l160 14 97 29 97 30 87 55
87 56 84 93 83 92 50 97 50 97 41 114 c22 62 47 130 55 151 15 42 14 44 -14
20z"/>
<path d="M58500 64312 l0 -10 25 -6 c13 -3 77 -37 142 -75 65 -37 127 -71 138
-74 11 -3 30 -8 43 -12 l22 -6 0 10 0 9 -29 7 -28 6 -126 74 -127 73 -30 7
-30 7 0 -10z"/>
<path d="M59532 64130 l-121 -131 -87 -117 c-47 -64 -100 -131 -116 -149 l-30
-31 7 -12 7 -11 21 18 c11 10 65 79 120 153 l100 135 102 105 102 105 17 33
17 32 -9 0 c-4 0 -63 -59 -130 -130z"/>
<path d="M28497 64120 l-189 -108 10 -6 10 -6 178 102 c99 55 183 104 187 108
l9 8 -9 4 -8 5 -188 -107z"/>
<path d="M71701 64066 l-214 -61 -5 -14 -4 -13 18 5 c11 3 84 24 164 47 80 23
175 50 213 61 l67 20 0 9 0 10 -12 -1 c-7 -1 -109 -29 -227 -63z"/>
<path d="M79190 64063 c-239 -30 -437 -57 -439 -59 -2 -2 -2 -7 1 -10 l6 -5
418 51 c231 28 429 53 442 55 l22 5 0 10 c0 6 -3 9 -7 9 -5 -1 -204 -26 -443
-56z"/>
<path d="M40072 64085 l-12 -25 9 0 c4 0 13 11 19 25 l12 25 -9 0 c-4 0 -13
-11 -19 -25z"/>
<path d="M40246 64051 l-6 -9 81 -69 81 -68 231 -267 230 -267 104 -153 104
-153 62 -63 c34 -35 74 -70 89 -78 l26 -14 6 15 5 15 -10 0 c-6 0 -38 26 -71
58 l-60 57 -109 160 -108 160 -228 265 -228 265 -86 75 c-47 41 -91 76 -97 78
l-10 3 -6 -10z"/>
<path d="M78490 64033 c-102 -13 -187 -26 -189 -29 -2 -2 -2 -7 1 -10 l6 -5
216 27 216 28 0 8 0 8 -32 -1 c-18 -1 -116 -12 -218 -26z"/>
<path d="M45982 63843 c-63 -107 -112 -196 -110 -198 2 -3 55 84 117 191 63
107 112 196 110 198 -2 3 -55 -84 -117 -191z"/>
<path d="M40220 63845 c13 -14 26 -25 28 -25 3 0 -5 11 -18 25 -13 14 -26 25
-28 25 -3 0 5 -11 18 -25z"/>
<path d="M40295 63780 c21 -22 41 -40 44 -40 3 0 -13 18 -34 40 -21 22 -41 40
-44 40 -3 0 13 -18 34 -40z"/>
<path d="M51535 63800 c17 -8 226 -98 365 -157 l35 -15 -10 10 c-18 17 -384
173 -403 171 -4 0 2 -4 13 -9z"/>
<path d="M90097 63644 c-152 -133 -183 -164 -159 -164 5 0 84 65 176 146 l167
145 -6 10 c-4 5 -7 9 -8 9 -1 0 -77 -66 -170 -146z"/>
<path d="M40385 63700 c40 -49 240 -266 248 -268 19 -6 7 12 -57 85 -65 73
-234 236 -191 183z"/>
<path d="M29228 63701 l-166 -6 -9 -9 -8 -9 85 7 c47 3 149 6 228 6 l142 0 0
10 0 10 -52 -2 c-29 -1 -128 -4 -220 -7z"/>
<path d="M59121 63669 c-25 -11 -123 -42 -219 -70 l-175 -50 -66 -35 -66 -34
35 6 c19 4 48 13 63 21 15 7 105 36 200 63 95 27 198 60 230 74 l57 26 0 10
c0 14 -9 12 -59 -11z"/>
<path d="M76997 63684 l-6 -6 14 -37 14 -36 31 -195 c17 -107 34 -203 36 -212
l5 -18 11 0 11 0 -6 29 c-4 16 -18 105 -32 198 -34 219 -56 299 -78 277z"/>
<path d="M77108 63683 l-18 -4 0 -14 0 -13 35 10 34 11 -5 9 c-5 8 -17 9 -46
1z"/>
<path d="M23554 63310 c-44 -88 -76 -160 -72 -160 4 0 44 72 88 160 l80 160
-8 0 -9 0 -79 -160z"/>
<path d="M16247 63320 c-47 -39 -114 -86 -148 -106 l-63 -35 -95 -27 -96 -27
24 -3 24 -4 81 23 81 23 60 36 c33 20 99 68 147 107 l88 72 -9 5 -9 6 -85 -70z"/>
<path d="M16357 63315 l-17 -36 0 -39 0 -38 26 -31 26 -31 9 6 10 5 -26 31
-25 30 0 28 c0 15 7 44 15 63 17 42 18 47 7 47 -5 0 -16 -16 -25 -35z"/>
<path d="M31925 63343 l10 -10 293 -32 293 -33 6 6 6 6 -7 0 c-13 0 -530 60
-571 66 l-40 6 10 -9z"/>
<path d="M97160 63331 l0 -8 73 -28 c39 -16 134 -57 209 -91 l136 -62 6 5 6 6
-53 24 c-93 44 -271 121 -324 142 l-53 21 0 -9z"/>
<path d="M31920 63303 l0 -8 268 -28 c147 -16 285 -30 307 -32 l40 -5 -30 10
c-16 5 -140 21 -275 35 -135 14 -260 28 -277 31 l-33 6 0 -9z"/>
<path d="M68995 63236 c-251 -72 -558 -176 -592 -201 l-18 -13 7 -7 6 -6 29
15 c65 33 355 131 583 196 134 38 245 71 247 74 2 2 1 6 -4 9 l-8 5 -250 -72z"/>
<path d="M60590 63226 c0 -8 -31 -61 -69 -119 -38 -57 -74 -114 -81 -126 l-11
-22 -8 -72 -8 -72 118 -570 c137 -656 129 -619 135 -613 3 3 -49 264 -116 581
l-120 576 0 59 0 59 14 41 15 41 61 91 c34 51 68 107 76 126 l14 34 -10 0 -10
0 0 -14z"/>
<path d="M50861 63226 c2 -3 166 -73 363 -156 197 -83 363 -153 367 -156 l9
-5 0 8 0 8 -362 153 c-325 136 -392 162 -377 148z"/>
<path d="M41575 63170 c3 -5 8 -10 11 -10 2 0 4 5 4 10 0 6 -5 10 -11 10 l-10
0 6 -10z"/>
<path d="M21034 63088 l-7 -23 31 -25 31 -24 131 -42 130 -41 0 8 0 8 -128 40
-128 40 -23 25 -24 25 6 15 6 16 -9 0 c-5 0 -12 -10 -16 -22z"/>
<path d="M40907 63104 l-6 -6 17 -27 c21 -33 82 -108 82 -100 0 14 -44 105
-58 122 -16 18 -25 21 -35 11z"/>
<path d="M13740 63080 l-25 -8 155 1 155 2 35 -8 35 -7 -30 14 -30 15 -135 0
-135 -1 -25 -8z"/>
<path d="M48390 63043 c0 -4 57 -42 127 -83 199 -117 223 -131 223 -123 0 5
-60 43 -133 85 -72 43 -151 89 -174 103 l-43 26 0 -8z"/>
<path d="M15030 62995 c0 -16 5 -37 10 -45 l10 -15 0 30 c0 17 -5 37 -10 45
l-10 15 0 -30z"/>
<path d="M17310 62963 c-25 -2 -153 -12 -285 -23 -132 -11 -259 -20 -282 -20
l-43 0 0 -7 0 -8 57 3 c32 1 173 11 313 22 140 11 316 24 390 29 l135 8 -120
0 c-66 0 -140 -2 -165 -4z"/>
<path d="M51552 62776 l-72 -154 -254 -384 -253 -383 10 -7 11 -7 250 377 249
377 75 158 74 159 -9 9 -10 10 -71 -155z"/>
<path d="M41010 62848 c0 -3 9 -31 20 -64 l20 -58 28 -29 27 -29 57 -29 56
-28 170 -198 c94 -109 214 -243 267 -298 l97 -100 -69 80 c-39 44 -163 186
-277 315 l-207 235 -32 23 c-18 13 -46 37 -64 54 l-32 31 -6 27 -6 27 -25 23
c-13 13 -24 21 -24 18z"/>
<path d="M41107 62798 l-18 -13 293 -331 c405 -457 609 -686 625 -704 l13 -14
14 14 15 15 -147 166 c-169 191 -702 795 -747 846 l-30 34 -18 -13z"/>
<path d="M21800 62797 c0 -5 300 -105 780 -261 234 -75 545 -167 565 -165 19
1 -40 20 -245 79 -114 33 -247 75 -296 93 -49 19 -134 47 -189 62 -77 21 -528
165 -602 193 -7 2 -13 2 -13 -1z"/>
<path d="M10227 62745 c-11 -27 -8 -32 8 -11 l14 18 223 -17 223 -16 188 7
188 7 3 6 4 6 -281 0 -282 0 -141 9 -141 8 -6 -17z"/>
<path d="M67895 62607 l-89 -142 -39 -42 -40 -43 16 0 15 0 39 48 c22 26 78
109 126 185 l87 137 -13 0 -12 0 -90 -143z"/>
<path d="M27640 62525 c0 -11 234 -334 243 -335 16 0 2 22 -108 175 -104 144
-135 181 -135 160z"/>
<path d="M89015 62351 c17 -16 97 -86 179 -155 l149 -125 9 5 c5 3 8 7 6 9
-120 105 -352 295 -361 295 l-12 0 30 -29z"/>
<path d="M23021 62178 c-52 -101 -127 -247 -167 -324 l-74 -142 -39 -106 c-21
-58 -36 -106 -32 -106 4 0 22 42 40 93 l33 92 75 145 c215 411 273 524 273
527 0 2 -4 3 -8 3 -4 0 -50 -82 -101 -182z"/>
<path d="M40610 62261 l0 -31 10 0 10 0 0 24 0 25 -10 6 -10 6 0 -30z"/>
<path d="M40538 62250 l-57 -30 -28 -36 c-15 -19 -108 -104 -206 -187 l-179
-152 -69 -43 -70 -42 -77 -20 c-42 -11 -133 -29 -202 -41 l-125 -21 -235 -1
-235 0 -133 37 c-74 21 -136 35 -138 33 -3 -2 58 -22 133 -43 l138 -39 255 1
255 2 140 26 c214 40 294 73 392 160 27 24 109 93 183 155 153 128 164 138
204 180 l28 30 44 18 44 18 0 13 c0 15 6 17 -62 -18z"/>
<path d="M40707 62233 l-5 -28 19 -94 c10 -51 19 -107 19 -123 l0 -31 164
-431 164 -431 21 -185 c12 -101 24 -186 26 -189 14 -14 13 23 -6 185 l-20 179
-18 60 c-10 33 -83 233 -163 445 l-146 385 -12 75 c-7 41 -15 105 -17 143 l-5
67 -8 0 c-4 0 -10 -12 -13 -27z"/>
<path d="M66410 62250 l0 -10 460 0 460 0 0 10 0 10 -460 0 -460 0 0 -10z"/>
<path d="M40610 62185 l0 -25 10 0 10 0 0 25 0 25 -10 0 -10 0 0 -25z"/>
<path d="M66253 62203 l-303 -3 0 -9 0 -10 694 2 695 2 -7 7 -7 7 -385 4
c-212 2 -521 2 -687 0z"/>
<path d="M64105 62180 l-400 -6 -85 -17 c-79 -15 -448 -90 -1270 -257 -184
-37 -510 -104 -725 -149 -214 -45 -488 -100 -609 -122 l-218 -40 -19 -22 c-11
-12 -27 -35 -35 -52 -9 -16 -26 -38 -38 -47 l-21 -18 -23 0 -23 0 6 -10 6 -10
20 0 c11 0 31 7 44 16 l25 16 27 49 26 49 21 5 c12 3 77 16 146 29 69 13 292
58 495 101 204 42 496 101 650 131 154 30 287 57 296 60 l16 5 48 -44 48 -43
10 -92 11 -92 8 0 8 0 0 33 c0 17 -5 61 -11 97 l-10 65 -41 42 -40 41 53 11
c119 24 715 145 869 177 91 19 224 43 295 54 l130 19 843 7 842 7 0 9 0 8
-487 -2 c-269 -1 -668 -5 -888 -8z"/>
<path d="M98754 62155 c-18 -44 -18 -64 1 -130 l16 -53 62 -113 62 -112 14 -5
14 -5 -66 124 -65 124 -17 58 -17 58 10 27 c6 15 13 35 17 45 l7 17 -11 0 -12
0 -15 -35z"/>
<path d="M40613 62136 c3 -7 15 -47 27 -87 12 -41 30 -85 40 -99 9 -14 50
-108 89 -210 40 -102 77 -189 82 -194 l9 -10 0 14 c0 15 -128 344 -166 425
-12 28 -31 78 -40 113 l-17 62 -15 0 -14 0 5 -14z"/>
<path d="M59511 62066 c11 -11 423 -185 427 -181 3 3 -10 11 -29 19 -19 8
-112 48 -208 90 -153 67 -205 86 -190 72z"/>
<path d="M60550 61977 c0 -22 68 -345 75 -356 l5 -9 -13 -5 -12 -4 -141 62
c-77 34 -149 65 -160 69 l-19 7 10 -10 c6 -5 80 -41 165 -78 l155 -69 18 4
c19 4 22 13 8 28 -5 5 -26 90 -46 189 -36 173 -45 208 -45 172z"/>
<path d="M62453 61977 l-53 -10 0 -13 0 -12 33 8 c17 4 44 11 60 14 l27 6 0
10 c0 6 -3 9 -7 9 -5 -1 -32 -6 -60 -12z"/>
<path d="M37455 61971 c11 -6 184 -35 385 -66 201 -30 389 -59 418 -64 l52 -8
0 6 c0 3 -186 35 -412 69 -227 35 -424 66 -438 68 l-25 4 20 -9z"/>
<path d="M25435 61909 c-22 -4 -102 -17 -179 -29 l-139 -20 -78 6 -79 7 0 -11
0 -10 83 -4 82 -4 100 13 c55 7 135 20 178 30 l78 16 8 -9 c5 -5 82 -106 172
-224 134 -176 301 -381 375 -460 l14 -14 0 9 c0 6 -44 60 -96 120 -53 61 -179
219 -281 353 -102 133 -188 241 -191 241 -4 -1 -25 -5 -47 -10z"/>
<path d="M40115 61834 c-27 -25 -74 -58 -103 -75 l-53 -30 -92 -25 c-51 -14
-130 -31 -177 -39 l-86 -14 -194 -10 -195 -10 -110 9 -110 9 -104 30 c-58 17
-107 28 -109 26 -6 -6 -1 -7 143 -47 l120 -33 260 1 260 0 75 13 c41 7 132 28
203 47 l127 34 53 30 c54 31 170 129 152 129 -5 0 -32 -20 -60 -45z"/>
<path d="M50910 61718 l-95 -101 -157 -105 c-145 -96 -176 -122 -148 -122 6 0
84 49 174 109 l163 109 86 94 c48 51 87 97 87 103 3 25 -22 5 -110 -87z"/>
<path d="M48110 61781 l0 -9 201 -112 201 -112 10 10 9 9 -201 112 c-111 61
-205 111 -210 111 -6 0 -10 -4 -10 -9z"/>
<path d="M62570 61640 l-15 -10 18 0 17 0 0 10 c0 12 -1 12 -20 0z"/>
<path d="M60660 61610 l0 -10 21 0 20 0 -6 10 c-3 6 -13 10 -21 10 l-14 0 0
-10z"/>
<path d="M60563 61557 c-4 -7 -38 -37 -75 -67 -60 -47 -85 -76 -75 -86 3 -4
49 34 135 112 l45 41 -11 7 -11 6 -8 -13z"/>
<path d="M50444 61442 c-11 -4 -75 -42 -142 -85 l-122 -79 6 -9 5 -9 18 9 c9
5 64 39 121 76 57 36 115 68 127 71 l23 6 0 14 c0 15 -4 16 -36 6z"/>
<path d="M59637 61423 c-10 -17 -48 -164 -72 -282 l-25 -124 1 -51 2 -51 9 60
c18 120 59 321 78 384 17 58 21 87 7 64z"/>
<path d="M52227 61064 c-71 -14 -308 -82 -317 -91 -8 -9 59 8 158 38 51 16
131 35 179 43 84 15 120 27 72 25 -13 -1 -55 -7 -92 -15z"/>
<path d="M49972 60820 c-18 -4 -36 -11 -40 -15 l-7 -7 45 7 c25 4 49 11 55 16
l9 9 -14 -1 c-8 -1 -30 -5 -48 -9z"/>
<path d="M49823 60783 l-23 -4 0 -10 0 -10 23 7 c12 3 29 10 37 15 l15 8 -15
-1 c-8 0 -25 -3 -37 -5z"/>
<path d="M57145 60741 l-6 -11 71 -104 71 -104 41 -108 c22 -60 46 -133 52
-163 l12 -55 10 -3 11 -4 -13 71 c-8 39 -18 79 -24 90 -5 10 -10 24 -10 30 l0
11 62 -51 c33 -29 79 -63 100 -76 l39 -25 10 6 9 6 -62 42 -63 42 -60 60 -61
60 -13 34 c-8 18 -49 85 -92 148 l-77 114 -7 -10z"/>
<path d="M35142 60684 c5 -4 411 -44 457 -44 l14 0 -5 5 c-5 5 -404 44 -452
45 l-19 0 5 -6z"/>
<path d="M78010 60520 l0 -13 7 6 6 7 -6 7 -7 6 0 -13z"/>
<path d="M43275 60360 l-7 -11 104 -116 c57 -64 126 -142 155 -172 l51 -56 13
12 12 12 -19 23 c-11 13 -77 90 -149 171 l-130 147 -12 0 c-6 0 -15 -5 -18
-10z"/>
<path d="M28783 60268 l-9 -13 -32 -214 c-29 -196 -32 -234 -17 -219 6 5 74
451 70 456 -1 1 -6 -3 -12 -10z"/>
<path d="M46330 60157 c0 -12 422 -518 427 -513 3 2 -84 112 -192 243 -210
253 -235 282 -235 270z"/>
<path d="M92986 59972 l-6 -5 112 -60 113 -59 53 -40 53 -41 5 6 6 6 -63 46
c-35 25 -110 70 -166 99 l-102 54 -5 -6z"/>
<path d="M58850 59931 c0 -8 25 -71 57 -140 31 -69 67 -150 80 -180 13 -29 26
-51 29 -49 2 3 -34 90 -81 194 -46 104 -85 183 -85 175z"/>
<path d="M47217 59853 l-27 -68 -29 -138 -29 -138 16 3 16 3 28 132 28 132 25
62 25 62 -6 8 c-11 19 -22 6 -47 -58z"/>
<path d="M77964 59848 c6 -33 211 -823 224 -865 l7 -23 10 1 10 0 -3 17 c-2 9
-55 214 -118 455 -63 241 -114 440 -114 442 0 3 -5 5 -11 5 l-11 0 6 -32z"/>
<path d="M41050 59818 c-1 -18 -14 -95 -29 -171 l-28 -138 11 4 10 3 28 135
c15 74 27 149 28 167 l0 32 -10 0 -10 0 0 -32z"/>
<path d="M40560 59815 c0 -3 74 -54 165 -115 91 -61 165 -106 165 -102 0 8
-313 222 -325 222 -3 0 -5 -2 -5 -5z"/>
<path d="M60591 59512 c-261 -53 -470 -97 -464 -99 16 -6 936 178 948 188 l9
9 -9 -1 c-6 -1 -224 -44 -484 -97z"/>
<path d="M60848 59521 c-125 -26 -230 -50 -235 -55 l-8 -8 20 5 c11 3 117 25
235 48 118 23 217 44 219 46 15 12 -29 5 -231 -36z"/>
<path d="M93714 59563 c3 -4 99 -35 211 -68 l205 -61 0 7 0 8 -82 25 c-272 81
-322 96 -331 96 l-10 0 7 -7z"/>
<path d="M40890 59525 c-6 -14 -10 -30 -10 -35 0 -16 -154 -436 -295 -805 -23
-60 -58 -144 -77 -185 l-36 -75 -43 -41 c-24 -22 -69 -56 -99 -75 l-55 -35
-155 13 -155 12 -105 -10 c-58 -5 -134 -14 -170 -19 -36 -5 -92 -10 -125 -10
l-60 0 -335 -45 -335 -45 -63 -18 -63 -18 8 -9 8 -8 -11 6 -12 7 -48 -22 c-27
-11 -116 -66 -197 -120 -81 -54 -159 -103 -173 -108 -14 -6 -51 -27 -82 -49
-31 -21 -89 -52 -127 -68 l-70 -30 -13 13 -13 14 -22 0 -23 0 -32 -33 -32 -33
0 -19 0 -19 36 42 36 42 26 -6 c15 -4 32 -10 37 -15 l10 -8 75 33 c79 34 101
48 351 212 182 119 210 134 304 164 l70 21 330 45 330 44 55 0 c30 0 127 9
215 21 l160 20 196 -7 196 -7 64 43 c35 24 77 55 92 69 l29 26 39 77 c21 42
57 127 79 190 23 62 97 262 165 443 68 182 130 354 138 382 l16 53 -10 5 -9 6
-10 -26z"/>
<path d="M77835 59505 l-50 -13 -162 -1 -163 -1 0 -10 0 -10 159 0 159 0 68
15 69 16 45 -13 44 -14 49 -199 c28 -110 52 -202 53 -204 2 -2 7 -1 11 2 l6 7
-47 181 -47 182 5 23 6 24 -27 6 c-16 3 -44 10 -63 15 -42 11 -51 10 -115 -6z"/>
<path d="M78100 59490 l0 -10 30 0 30 0 0 10 0 10 -30 0 -30 0 0 -10z"/>
<path d="M53340 59364 c-96 -63 -177 -119 -178 -124 -4 -10 125 71 293 183 72
48 69 46 64 51 -2 3 -83 -47 -179 -110z"/>
<path d="M41020 59457 c8 -8 60 -43 114 -77 l99 -62 69 -29 c37 -15 68 -25 68
-21 0 4 -27 17 -59 30 l-59 23 -103 65 c-57 36 -112 70 -124 76 l-20 10 15
-15z"/>
<path d="M46982 59410 l-12 -20 0 -27 0 -27 9 10 c8 9 25 84 19 84 -2 0 -9 -9
-16 -20z"/>
<path d="M59617 59276 c-251 -51 -461 -97 -465 -101 l-7 -8 25 6 c14 3 133 27
265 52 476 92 688 135 693 140 15 14 -93 -5 -511 -89z"/>
<path d="M59390 59272 c-222 -44 -237 -48 -229 -56 6 -5 456 88 465 97 l7 7
-9 -1 c-5 -1 -110 -22 -234 -47z"/>
<path d="M14199 58986 l-126 -52 -79 -47 c-105 -62 -78 -60 34 2 l87 50 105
41 c58 23 109 46 115 51 l9 9 -9 -1 c-6 0 -67 -24 -136 -53z"/>
<path d="M63890 58715 c25 -124 48 -225 51 -225 3 0 -11 84 -31 188 -21 103
-41 204 -44 225 -4 20 -10 37 -14 37 l-7 0 45 -225z"/>
<path d="M46490 58758 l-134 -102 11 -3 12 -4 123 92 c68 51 125 93 127 95 1
1 1 7 0 13 l-4 10 -135 -101z"/>
<path d="M84056 58738 c9 -18 47 -89 84 -158 37 -69 73 -143 80 -165 7 -22 16
-44 21 -49 l9 -10 0 11 c0 37 -184 403 -203 403 l-8 0 17 -32z"/>
<path d="M40707 58732 c-3 -4 -28 -70 -57 -147 l-51 -140 -24 -37 c-27 -41
-30 -48 -16 -48 16 0 57 74 89 160 17 47 42 115 56 153 l25 67 -9 0 c-5 0 -11
-3 -13 -8z"/>
<path d="M61518 58516 c-109 -28 -198 -54 -198 -57 0 -5 390 91 423 105 l12 4
-20 0 c-11 0 -109 -24 -217 -52z"/>
<path d="M61535 58479 c-104 -27 -197 -53 -206 -58 -9 -5 -106 -28 -215 -51
-212 -44 -229 -48 -223 -54 6 -6 409 81 433 93 12 5 113 33 226 62 113 28 207
53 209 55 13 11 -54 -3 -224 -47z"/>
<path d="M40520 58405 c7 -8 17 -15 22 -15 l10 0 -12 15 c-7 8 -17 15 -22 15
l-10 0 12 -15z"/>
<path d="M51758 58256 l-177 -131 -1 -12 c0 -7 3 -13 6 -13 3 0 49 32 102 72
53 39 134 98 180 130 78 56 92 71 75 81 l-8 4 -177 -131z"/>
<path d="M83705 58084 l-150 -55 -137 -34 c-75 -19 -271 -66 -435 -104 -164
-38 -314 -76 -333 -84 l-35 -15 -180 -28 c-99 -15 -182 -29 -184 -31 -3 -2 0
-7 5 -12 l9 -9 170 28 170 28 85 26 c47 14 233 60 414 102 362 83 456 110 654
182 l132 48 -7 7 c-11 11 -22 8 -178 -49z"/>
<path d="M50465 57889 c31 -15 479 -139 483 -134 7 6 6 6 -257 80 -235 65
-263 72 -226 54z"/>
<path d="M81583 57696 l-213 -29 0 -12 0 -12 23 3 c12 2 107 16 212 30 104 14
191 27 193 29 2 2 2 8 1 12 l-4 9 -212 -30z"/>
<path d="M51075 57603 c-3 -16 -17 -64 -32 -108 l-26 -80 -49 -90 -49 -90 -50
-57 -50 -58 -102 -73 c-56 -40 -134 -92 -174 -116 l-72 -43 -26 -51 -25 -51 0
-43 0 -43 9 0 8 0 6 45 7 45 19 39 20 39 48 27 c26 15 103 66 171 113 l124 86
53 60 53 61 47 85 47 85 34 94 34 93 0 29 0 29 -10 0 -10 0 -5 -27z"/>
<path d="M27280 57610 c0 -6 55 -82 123 -168 142 -181 193 -263 265 -420 l51
-113 60 -82 59 -82 69 -66 68 -66 75 -51 76 -50 74 -31 75 -32 70 -16 c39 -8
203 -34 365 -58 667 -98 844 -126 1035 -165 l200 -40 240 -30 240 -30 72 -24
72 -24 149 -91 c82 -50 154 -91 160 -91 32 0 -1 25 -147 112 l-158 96 -64 21
-64 21 -300 39 -300 40 -197 40 -197 41 -498 71 c-274 38 -538 79 -588 90
l-89 20 -76 33 -76 33 -75 50 -74 51 -61 64 c-33 34 -84 95 -113 135 l-52 72
-58 125 c-32 69 -77 156 -99 193 -44 71 -286 386 -303 391 l-9 4 0 -12z"/>
<path d="M81270 57609 c-132 -18 -315 -52 -324 -60 -20 -19 5 -18 135 5 74 13
169 27 212 31 l77 7 0 14 0 14 -17 -1 c-10 -1 -47 -5 -83 -10z"/>
<path d="M64085 57558 c3 -13 23 -113 45 -222 22 -110 43 -202 46 -205 l7 -6
-6 30 c-3 17 -22 119 -43 228 l-38 197 -8 0 -8 0 5 -22z"/>
<path d="M80353 57506 c-147 -82 -193 -113 -193 -127 l0 -10 33 24 c39 30 283
167 296 167 5 0 23 -17 40 -37 17 -20 33 -35 35 -32 6 5 -63 89 -72 89 -4 0
-66 -34 -139 -74z"/>
<path d="M37995 57530 c10 -11 23 -20 28 -20 l10 0 -18 20 c-10 11 -23 20 -28
20 l-10 0 18 -20z"/>
<path d="M21842 57460 c-1 -30 -7 -112 -14 -182 l-12 -127 13 -15 13 -16 47 0
46 0 15 10 15 10 -50 -6 -50 -5 -19 14 -20 14 13 99 13 99 -4 80 -4 80 -2 -55z"/>
<path d="M33770 57461 l0 -19 -12 -5 -13 -4 7 -8 8 -8 15 13 c17 14 20 36 5
45 l-10 6 0 -20z"/>
<path d="M22240 57255 c-80 -18 -176 -44 -215 -58 l-70 -26 16 0 c8 -1 48 10
87 23 40 14 136 39 214 56 78 17 144 33 147 35 10 10 -40 2 -179 -30z"/>
<path d="M38095 57220 l4 -65 -45 -150 c-24 -82 -47 -159 -50 -170 l-6 -20 10
10 c5 6 31 84 57 174 l47 164 -10 61 -11 61 4 -65z"/>
<path d="M48080 56970 l0 -10 14 0 c8 0 94 -38 191 -85 98 -47 183 -85 189
-84 12 0 -372 189 -386 189 -4 0 -8 -4 -8 -10z"/>
<path d="M46548 56905 c-2 -3 10 -105 29 -228 18 -122 46 -319 63 -437 17
-118 33 -225 35 -237 l5 -23 16 0 16 0 -6 28 c-3 15 -29 191 -56 392 -58 412
-81 526 -102 505z"/>
<path d="M26560 56668 c-68 -117 -124 -216 -127 -220 -2 -4 0 -9 5 -12 l8 -5
125 216 c68 119 126 220 127 224 l4 9 -10 0 -10 0 -122 -212z"/>
<path d="M63657 56574 l-5 -10 39 -199 c21 -110 39 -203 39 -207 0 -3 -16 -12
-35 -18 l-36 -12 -16 -24 -16 -25 11 -11 10 -10 7 21 6 21 30 16 30 15 27 -13
27 -13 20 -40 19 -40 4 18 4 19 -13 30 -12 30 -21 8 -22 8 -39 203 c-21 112
-41 213 -45 223 l-7 19 -6 -9z"/>
<path d="M78630 56552 l-53 -27 -34 -49 -33 -48 0 -55 0 -56 11 -38 12 -38 27
-32 26 -32 12 4 12 4 -28 35 -29 35 -13 53 -12 53 6 32 6 33 31 42 30 41 55
27 54 27 52 -7 c28 -4 59 -11 69 -17 l18 -9 6 10 6 9 -30 16 -30 15 -59 0 -60
0 -52 -28z"/>
<path d="M78910 56481 c0 -5 7 -14 15 -21 l15 -13 16 -53 15 -54 -3 -27 -3
-26 13 -4 12 -5 0 44 c0 53 -16 114 -39 145 -16 22 -41 31 -41 14z"/>
<path d="M79042 56459 l4 -13 65 -14 64 -13 83 6 82 7 0 8 0 8 -122 5 c-68 3
-136 9 -152 13 l-29 7 5 -14z"/>
<path d="M26367 56440 c-8 -14 -63 -106 -121 -205 l-105 -179 6 -9 c7 -11 -2
-25 128 197 l116 199 -4 11 -4 11 -16 -25z"/>
<path d="M26450 56403 c0 -8 331 -183 346 -183 12 0 -40 30 -208 118 -76 40
-138 69 -138 65z"/>
<path d="M26310 56233 c-46 -82 -146 -241 -222 -355 l-138 -207 9 -5 8 -5 135
202 c118 176 308 491 308 510 0 26 -27 -12 -100 -140z"/>
<path d="M64413 56250 c16 -5 35 -14 43 -21 l14 -11 0 -33 0 -32 -18 -16 -19
-17 -29 0 -30 0 -10 10 -10 10 -262 -52 c-144 -29 -262 -55 -262 -59 0 -3 116
17 259 46 l258 52 19 -14 19 -14 30 7 30 6 23 21 23 22 -6 35 -6 35 -21 18
-20 17 -27 -1 -26 -1 28 -8z"/>
<path d="M29866 56035 c-17 -72 -70 -214 -104 -280 l-15 -30 16 13 16 13 35
84 c19 46 44 119 56 162 12 43 24 86 26 96 l5 17 -8 0 -9 0 -18 -75z"/>
<path d="M49837 56094 c-15 -15 -5 -34 56 -107 l62 -76 45 -34 c25 -18 65 -41
89 -51 l45 -17 50 6 51 7 55 24 55 25 48 47 c26 26 62 68 78 94 l31 47 -7 11
-7 12 -25 -39 c-14 -21 -49 -62 -77 -92 l-51 -53 -60 -29 -60 -29 -46 0 -47 0
-28 13 c-16 6 -48 25 -71 41 l-42 28 -59 71 c-32 40 -63 80 -68 90 l-10 18 -7
-7z"/>
<path d="M63660 55980 c0 -6 7 -13 15 -17 l16 -5 7 6 6 7 -14 9 c-20 13 -30
12 -30 0z"/>
<path d="M25510 55922 c0 -8 331 -219 358 -229 l17 -6 -15 15 c-14 15 -348
228 -356 228 -2 0 -4 -3 -4 -8z"/>
<path d="M36430 55814 c-47 -19 -114 -42 -150 -50 l-65 -16 -32 6 -33 5 0 -10
0 -9 48 0 c26 0 67 5 92 11 48 10 218 77 235 91 l9 8 -9 0 c-6 -1 -48 -17 -95
-36z"/>
<path d="M30857 55833 l-5 -8 209 -139 209 -139 7 6 c3 4 4 8 2 10 -20 16
-410 277 -413 277 -3 0 -7 -3 -9 -7z"/>
<path d="M61910 55726 l0 -16 10 0 c6 0 10 4 10 9 0 6 -4 13 -10 16 l-10 6 0
-15z"/>
<path d="M25819 55573 c-46 -70 -110 -160 -142 -201 l-57 -75 -108 -96 c-60
-53 -141 -121 -180 -150 -69 -52 -85 -71 -61 -71 13 0 174 128 272 217 93 84
152 156 278 345 l99 147 -9 5 -8 6 -84 -127z"/>
<path d="M61945 55687 l-7 -18 6 -6 6 -6 6 6 c3 3 4 14 1 24 l-4 18 -8 -18z"/>
<path d="M31310 55598 l0 -13 206 -135 c114 -74 210 -136 215 -138 l9 -4 0 14
0 13 -207 135 c-113 74 -210 137 -215 138 l-8 4 0 -14z"/>
<path d="M50360 55484 c0 -16 129 -136 214 -198 l79 -58 98 -43 c54 -24 109
-51 121 -59 34 -24 45 -19 14 5 -15 12 -73 42 -128 66 l-101 44 -81 61 c-44
33 -111 90 -148 127 l-68 65 0 -10z"/>
<path d="M55380 55458 c0 -7 9 -26 20 -43 l20 -30 0 -27 0 -28 10 0 10 0 0 27
0 26 -25 44 c-27 44 -35 52 -35 31z"/>
<path d="M31710 55271 l0 -9 203 -131 c112 -72 207 -131 211 -131 24 0 -19 32
-202 149 -112 72 -206 131 -208 131 -2 0 -4 -4 -4 -9z"/>
<path d="M31692 55216 c-16 -37 -81 -105 -116 -123 l-31 -16 -160 -7 -160 -7
-25 -13 c-33 -17 -70 -50 -82 -75 l-9 -20 30 32 c16 17 43 39 60 48 l31 15
157 7 158 6 30 14 c17 9 47 32 68 52 l39 36 19 38 19 37 -8 0 c-5 0 -14 -11
-20 -24z"/>
<path d="M55308 55128 l-28 -10 0 -10 0 -9 18 5 19 6 133 -114 133 -115 25
-35 c14 -20 29 -36 34 -36 13 0 10 8 -16 46 l-24 35 -128 110 c-71 61 -129
114 -129 119 0 15 -10 17 -37 8z"/>
<path d="M55041 54364 c-128 -399 -231 -727 -228 -730 3 -3 10 10 15 28 18 56
432 1340 447 1386 l14 42 -7 0 c-4 0 -112 -327 -241 -726z"/>
<path d="M27135 55040 l30 -10 165 -10 c91 -5 180 -10 198 -10 l32 0 0 9 0 8
-187 7 c-104 3 -206 8 -228 11 l-40 5 30 -10z"/>
<path d="M47183 54972 l-12 -8 8 -12 8 -13 16 7 17 6 0 14 0 14 -12 0 c-7 0
-18 -4 -25 -8z"/>
<path d="M47300 54961 c5 -11 15 -23 21 -27 l11 -6 10 10 10 10 -23 16 c-13 9
-27 16 -32 16 l-8 0 11 -19z"/>
<path d="M51026 54964 c-26 -9 -46 -17 -43 -20 5 -6 117 25 117 32 0 7 -23 3
-74 -12z"/>
<path d="M47533 54897 l-123 -62 0 -12 0 -13 130 65 130 65 0 10 c0 16 -7 13
-137 -53z"/>
<path d="M53216 54928 c-8 -13 -29 -48 -48 -78 -18 -31 -109 -167 -201 -304
-93 -137 -237 -355 -319 -485 l-151 -236 -78 -103 c-44 -57 -79 -105 -79 -108
0 -33 155 181 330 455 86 135 233 359 326 496 94 138 183 273 198 300 16 28
36 58 44 68 l15 17 -11 0 c-6 0 -18 -10 -26 -22z"/>
<path d="M31685 54923 c6 -5 55 -36 110 -68 55 -32 218 -136 363 -231 144 -95
262 -170 262 -165 0 15 -672 448 -726 467 l-19 7 10 -10z"/>
<path d="M52360 54920 c0 -5 5 -10 11 -10 5 0 74 -43 151 -95 78 -52 143 -93
145 -91 5 4 -238 170 -284 195 l-23 12 0 -11z"/>
<path d="M47106 54879 c-3 -17 -6 -38 -6 -46 l0 -15 12 4 12 4 7 28 8 28 -6
14 c-9 23 -20 16 -27 -17z"/>
<path d="M52255 54742 l-100 -157 -179 -238 c-98 -131 -176 -240 -174 -243 16
-15 565 762 556 786 -2 5 -48 -62 -103 -148z"/>
<path d="M47380 54799 l0 -10 10 6 c6 3 10 8 10 11 0 2 -4 4 -10 4 -5 0 -10
-5 -10 -11z"/>
<path d="M51180 54621 c0 -10 510 -415 515 -409 3 3 -112 98 -255 211 -143
114 -260 203 -260 198z"/>
<path d="M63976 54582 l-7 -11 48 -226 48 -225 8 0 c4 0 7 6 7 14 0 12 -84
416 -94 451 l-2 9 -8 -12z"/>
<path d="M50140 54569 l0 -10 10 6 c6 3 10 8 10 11 0 2 -4 4 -10 4 -5 0 -10
-5 -10 -11z"/>
<path d="M50190 54573 c0 -12 38 -48 45 -41 3 2 -6 15 -20 28 l-25 23 0 -10z"/>
<path d="M51885 54403 c-165 -215 -178 -233 -168 -232 4 0 24 21 43 47 20 26
85 111 144 190 60 78 107 144 105 147 -3 2 -59 -66 -124 -152z"/>
<path d="M30841 54334 c-46 -112 -82 -207 -79 -209 3 -3 42 87 88 200 45 113
81 208 78 210 -2 3 -42 -88 -87 -201z"/>
<path d="M32992 54509 l4 -14 195 -132 194 -133 52 -16 53 -15 12 7 c7 4 1 -6
-13 -22 -25 -28 -44 -64 -33 -64 3 0 20 16 38 35 l33 35 32 0 31 0 0 16 0 16
-37 -3 -38 -3 -55 13 -55 14 -195 131 c-107 73 -201 136 -209 140 l-14 9 5
-14z"/>
<path d="M52960 54471 c0 -10 30 -24 37 -17 3 2 -5 9 -16 16 l-21 11 0 -10z"/>
<path d="M52785 54094 c-239 -362 -282 -434 -317 -534 l-19 -55 38 -82 c21
-45 41 -82 45 -83 4 0 -8 35 -28 78 -41 89 -39 83 -31 102 3 8 11 33 18 55 21
71 88 183 316 529 123 186 222 341 219 343 -2 2 -111 -156 -241 -353z"/>
<path d="M33979 54374 c-35 -25 -102 -65 -149 -89 l-85 -44 -34 -45 -35 -45
-29 25 c-27 23 -47 31 -47 19 0 -3 12 -17 28 -30 l27 -23 0 -47 0 -47 -22 -18
-23 -18 14 -5 14 -6 15 17 c7 9 17 26 21 36 l7 20 57 -57 57 -56 194 -130 194
-130 9 5 9 6 -193 130 -193 130 -67 66 c-38 37 -68 71 -68 76 0 5 15 29 33 53
l32 44 70 35 c39 20 109 61 157 92 l88 57 0 13 c0 20 -13 15 -81 -34z"/>
<path d="M26173 54354 l-6 -16 7 -111 7 -112 34 -240 34 -240 20 -65 c12 -36
26 -72 32 -80 l11 -15 -6 20 c-3 11 -14 51 -25 89 l-20 68 -31 212 c-34 237
-54 446 -47 482 5 27 -1 32 -10 8z"/>
<path d="M49082 54218 c-128 -66 -231 -122 -229 -125 3 -2 114 52 248 121 134
69 237 126 229 125 -8 0 -120 -54 -248 -121z"/>
<path d="M88137 54223 l-5 -8 101 -189 102 -189 10 3 c6 1 9 5 8 9 -5 18 -196
372 -203 376 l-9 5 -4 -7z"/>
<path d="M62171 54173 c-1 -25 87 -454 94 -462 3 -2 5 2 5 10 0 15 -88 447
-95 464 l-3 10 -1 -22z"/>
<path d="M51684 54168 l-7 -11 11 7 c12 7 16 16 8 16 -3 0 -8 -5 -12 -12z"/>
<path d="M74170 54084 c8 -9 73 -83 143 -163 l129 -146 47 -70 47 -70 42 -94
c23 -51 58 -141 77 -200 l34 -106 27 -152 c15 -84 31 -158 35 -165 20 -32 16
12 -16 177 l-34 178 -32 96 c-18 53 -51 137 -74 187 l-43 91 -50 74 -50 74
-133 150 -132 150 -16 4 -15 3 14 -18z"/>
<path d="M33447 54062 c-15 -17 -47 -83 -47 -98 0 -4 7 -1 15 6 8 7 15 18 15
25 0 8 11 27 25 43 l26 31 -9 5 -9 6 -16 -18z"/>
<path d="M51230 54012 l0 -10 -102 -60 c-57 -33 -124 -71 -150 -83 -41 -19
-62 -39 -43 -39 10 0 145 70 220 115 42 25 81 45 87 45 5 0 43 -27 83 -60 l74
-60 5 9 6 9 -43 34 c-23 19 -63 51 -89 72 l-48 38 0 -10z"/>
<path d="M30570 53726 c0 -15 465 -239 483 -233 5 1 -26 18 -70 36 -43 19
-151 72 -239 118 -155 80 -174 88 -174 79z"/>
<path d="M51740 53703 c0 -4 42 -41 93 -82 l92 -74 97 -111 c54 -61 111 -133
128 -159 l30 -47 10 0 c5 0 10 2 10 5 0 15 -80 122 -163 215 l-92 106 -92 74
c-50 41 -96 76 -102 78 l-11 4 0 -9z"/>
<path d="M77468 53633 l-188 -74 0 -8 0 -8 195 76 c107 42 195 79 195 84 0 11
-3 10 -202 -70z"/>
<path d="M80941 53697 c-1 -15 91 -396 105 -436 2 -8 6 -12 9 -10 2 3 -23 108
-55 234 -32 127 -59 222 -59 212z"/>
<path d="M80901 53682 c-1 -19 101 -426 110 -436 6 -7 -93 407 -106 439 l-3
10 -1 -13z"/>
<path d="M34164 53651 c7 -11 331 -240 351 -247 8 -4 15 -11 15 -16 0 -6 17
-31 39 -57 21 -25 46 -60 55 -78 l16 -32 0 -33 0 -34 -15 -21 -15 -22 10 -6
10 -6 0 9 c0 4 9 18 20 30 l20 21 -10 50 -9 50 -25 38 c-14 21 -42 57 -63 80
l-38 41 -173 121 c-95 67 -177 121 -183 121 l-10 0 5 -9z"/>
<path d="M50032 53528 l-182 -100 5 -9 6 -9 67 34 c37 19 120 63 184 98 l117
64 -7 11 -7 11 -183 -100z"/>
<path d="M11296 53492 l-5 -8 147 -147 147 -146 309 -226 309 -226 9 9 9 9
-328 241 -328 241 -123 131 c-68 71 -127 130 -132 130 -5 0 -11 -4 -14 -8z"/>
<path d="M26311 53378 c47 -95 180 -308 192 -308 l8 0 -5 8 c-3 4 -38 60 -78
123 -40 63 -88 147 -107 187 -19 40 -39 72 -43 72 l-8 0 41 -82z"/>
<path d="M48695 53446 c-11 -7 -134 -73 -273 -146 -139 -73 -251 -134 -249
-137 5 -5 535 272 552 288 l9 9 -9 -1 c-6 0 -19 -6 -30 -13z"/>
<path d="M34586 53432 l-5 -8 50 -33 c56 -39 85 -74 123 -148 l26 -53 10 0 10
0 -35 68 c-41 80 -54 96 -122 145 l-51 38 -6 -9z"/>
<path d="M35375 53234 c-187 -41 -374 -84 -415 -94 -41 -11 -90 -23 -107 -26
l-33 -6 0 31 0 31 -9 0 -8 0 -6 -42 c-3 -24 -4 -44 -3 -46 2 -1 54 11 117 27
63 16 132 32 154 35 22 4 182 38 356 76 l316 70 61 0 62 0 0 10 0 10 -72 -1
-73 -1 -340 -74z"/>
<path d="M49588 53177 c-178 -110 -215 -137 -190 -137 9 0 391 235 406 250
l10 10 -14 0 c-8 -1 -104 -56 -212 -123z"/>
<path d="M54699 53233 l-15 -4 -93 -302 -92 -302 -9 -65 -8 -65 -46 -149 -46
-148 1 -32 2 -31 4 25 c2 14 27 99 54 188 l50 164 3 51 4 52 93 302 92 302 29
6 29 7 197 -131 c109 -72 204 -131 211 -131 l13 0 -203 135 -204 135 -25 -1
c-14 -1 -32 -3 -41 -6z"/>
<path d="M71992 53202 l-21 -38 -98 -100 c-54 -56 -111 -111 -126 -122 l-29
-21 4 -11 3 -11 66 55 c64 53 190 187 225 241 l17 26 -10 10 -9 9 -22 -38z"/>
<path d="M52330 53063 c38 -82 99 -204 137 -273 l69 -125 17 -3 18 -4 102 59
c56 32 139 75 184 95 118 54 373 190 373 198 0 5 -59 -23 -131 -62 -71 -38
-171 -88 -222 -110 -51 -23 -143 -70 -205 -106 l-113 -65 -10 10 c-23 23 -150
260 -209 390 -36 79 -68 143 -72 143 -4 0 24 -66 62 -147z"/>
<path d="M34690 53179 l0 -10 10 6 c6 3 10 8 10 11 0 2 -4 4 -10 4 -5 0 -10
-5 -10 -11z"/>
<path d="M48116 53181 l-6 -8 97 -202 97 -201 13 0 c6 0 14 4 17 9 l6 9 -97
201 -96 201 -13 0 c-7 0 -15 -4 -18 -9z"/>
<path d="M26484 53155 c9 -14 96 -127 193 -252 l177 -228 77 -120 77 -121 11
-40 c6 -22 15 -94 21 -159 l10 -120 -19 -545 -19 -545 9 -9 9 -10 0 35 c1 18
9 270 19 559 l17 525 -8 115 -9 115 -14 50 -14 50 -83 123 c-46 67 -160 220
-254 340 -94 119 -176 227 -183 240 -6 12 -17 22 -23 22 l-10 0 16 -25z"/>
<path d="M56077 53162 c-9 -2 -17 -7 -17 -10 l0 -7 192 3 192 3 12 7 13 7
-188 0 c-103 0 -195 -1 -204 -3z"/>
<path d="M34673 53123 l7 -6 7 6 6 7 -13 0 -13 0 6 -7z"/>
<path d="M55412 53093 l-13 -5 21 -23 22 -24 -6 -43 c-3 -24 -7 -51 -8 -60
l-2 -18 -13 0 -13 0 0 -10 c0 -5 2 -10 5 -10 21 0 276 -45 336 -60 41 -9 210
-64 375 -120 l299 -102 430 -175 430 -176 210 -103 c116 -56 300 -154 410
-216 110 -63 306 -172 435 -244 l235 -129 193 -89 193 -89 9 9 10 10 -183 83
-182 83 -230 128 c-126 70 -327 183 -445 250 -118 66 -309 167 -425 224 l-210
103 -445 181 -445 181 -295 100 -295 100 -90 20 c-49 11 -121 25 -160 31 -38
6 -82 13 -97 16 l-28 6 16 30 15 30 -6 39 -7 39 -16 19 -17 19 -13 -5z"/>
<path d="M30252 52995 l-2 -90 -50 -60 c-57 -68 -79 -111 -90 -172 l-7 -43 9
0 8 0 0 33 0 32 28 47 c15 26 46 72 70 102 l43 54 -4 93 -3 94 -2 -90z"/>
<path d="M42810 53036 l-194 -32 9 -6 10 -6 198 33 c109 18 201 36 204 39 l6
6 -19 -1 c-10 -1 -107 -16 -214 -33z"/>
<path d="M34560 52978 c-7 -29 -14 -83 -17 -120 l-6 -68 12 0 11 0 0 33 c1 17
7 61 15 97 8 36 14 75 15 88 l0 22 -9 0 -9 0 -12 -52z"/>
<path d="M88730 53027 c0 -12 152 -403 160 -410 l8 -9 4 9 5 8 -77 199 -77
200 -11 4 c-7 2 -12 1 -12 -1z"/>
<path d="M42577 53003 c-3 -10 -35 -112 -71 -228 -58 -187 -69 -231 -50 -213
5 6 144 441 144 453 0 13 -18 3 -23 -12z"/>
<path d="M55051 52719 l-134 -260 -64 -80 c-36 -43 -69 -79 -74 -79 l-9 0 0
-15 c0 -34 29 -12 109 84 l61 73 130 259 c72 142 130 263 130 269 0 31 -28
-15 -149 -251z"/>
<path d="M12734 52782 c-18 -26 -64 -93 -103 -149 l-72 -103 13 0 13 1 80 116
c44 63 88 128 98 143 l18 28 -8 5 -8 5 -31 -46z"/>
<path d="M37085 52648 l-29 -163 2 -39 3 -38 15 -27 15 -26 -7 20 c-4 11 -9
43 -12 70 l-4 51 26 134 c14 74 28 145 31 158 l5 22 -8 0 -7 0 -30 -162z"/>
<path d="M48365 52762 l16 -32 39 -26 39 -26 12 -35 11 -35 -5 -32 -5 -33 9
-14 9 -14 10 15 10 15 0 39 c0 21 -5 55 -11 75 l-11 36 -30 24 -30 25 -19 1
-18 1 -21 25 -21 24 16 -33z"/>
<path d="M48705 52715 l-140 -74 -22 -26 c-13 -14 -23 -31 -23 -37 l0 -10 36
31 35 32 140 69 139 70 0 10 0 10 -12 0 c-7 -1 -76 -34 -153 -75z"/>
<path d="M48865 52729 l-7 -30 17 -72 18 -72 58 -123 c47 -99 99 -189 99 -171
0 2 -31 68 -70 146 l-69 142 -17 63 -16 63 1 43 c1 49 -5 55 -14 11z"/>
<path d="M52820 52741 c0 -18 193 -391 203 -391 6 0 -50 112 -185 370 l-18 35
0 -14z"/>
<path d="M48200 52585 l0 -36 14 -28 c8 -15 21 -33 29 -40 l15 -12 7 11 7 11
-21 35 -21 35 0 30 0 29 -15 0 -15 0 0 -35z"/>
<path d="M34076 52407 l-48 -192 -15 -23 c-8 -13 -12 -26 -9 -29 3 -3 12 10
21 28 20 43 115 409 106 409 -3 0 -28 -87 -55 -193z"/>
<path d="M54983 52408 l-91 -133 -41 -39 -40 -39 5 -9 5 -8 45 39 45 40 78
113 c43 62 86 125 95 141 l18 27 -14 0 -14 0 -91 -132z"/>
<path d="M22522 52331 l-41 -99 -36 -140 c-19 -78 -35 -149 -34 -159 0 -10 18
49 39 132 l39 150 42 97 41 98 17 10 16 9 -20 1 -21 0 -42 -99z"/>
<path d="M48233 52420 l48 -9 25 -15 24 -16 95 -197 95 -196 7 6 6 7 -88 182
c-95 196 -106 213 -147 234 l-27 14 -43 -1 -43 -1 48 -8z"/>
<path d="M48163 52413 l7 -6 7 6 6 7 -13 0 -13 0 6 -7z"/>
<path d="M52930 52300 c0 -20 32 -74 60 -105 l29 -30 150 -300 c83 -165 150
-295 151 -289 0 6 -63 141 -141 300 l-141 288 -29 33 c-16 19 -38 51 -49 73
-20 40 -30 49 -30 30z"/>
<path d="M84310 52241 c20 -79 26 -91 45 -91 26 0 360 83 349 87 -6 2 -87 -15
-180 -37 l-169 -41 -11 16 c-6 8 -17 42 -24 75 l-13 60 -7 0 -8 0 18 -69z"/>
<path d="M46611 52296 c2 -2 63 -30 134 -61 159 -69 227 -107 283 -158 l42
-40 0 10 c0 14 -59 67 -110 99 -72 44 -374 174 -349 150z"/>
<path d="M54305 52117 l-18 -14 7 -12 8 -12 13 11 c7 6 26 13 41 14 l28 3 4
12 4 11 -34 0 -34 0 -19 -13z"/>
<path d="M69504 52080 c2 -8 23 -96 47 -195 23 -99 46 -187 51 -195 l9 -15 -5
20 c-3 11 -24 101 -47 200 -23 99 -46 185 -51 190 l-9 10 5 -15z"/>
<path d="M52724 52058 l-7 -11 11 7 c12 7 16 16 8 16 -3 0 -8 -5 -12 -12z"/>
<path d="M54265 51991 l-5 -9 26 -21 c45 -35 65 -17 22 20 -26 21 -34 23 -43
10z"/>
<path d="M32368 51930 c-64 -10 -121 -21 -127 -24 l-11 -7 0 -30 c0 -35 99
-631 105 -638 9 -8 5 20 -39 287 -25 147 -47 291 -51 319 l-7 53 24 8 c12 5
83 17 156 27 72 10 132 19 132 21 0 7 -67 1 -182 -16z"/>
<path d="M53293 51780 c45 -93 85 -170 89 -170 3 0 -30 77 -75 170 -45 94 -85
170 -89 170 -3 0 30 -76 75 -170z"/>
<path d="M35661 51783 c10 -65 26 -169 35 -230 10 -62 20 -111 22 -108 7 7
-61 455 -69 455 l-6 0 18 -117z"/>
<path d="M84715 51546 c-196 -151 -356 -277 -356 -280 1 -3 4 -7 7 -7 9 -2
723 544 723 554 1 4 -3 7 -8 7 -5 0 -170 -123 -366 -274z"/>
<path d="M3465 51663 c-27 -1 -83 -10 -122 -20 l-73 -17 0 -8 c0 -12 21 -10
76 7 l49 15 162 7 162 6 -5 9 -5 8 -97 -2 c-53 -1 -119 -3 -147 -5z"/>
<path d="M37535 51590 l6 -10 32 0 32 0 185 -50 c101 -27 186 -47 188 -45 6 6
3 7 -188 58 -91 25 -187 47 -213 51 l-48 6 6 -10z"/>
<path d="M37228 51546 l-137 -11 -6 -7 -7 -7 68 5 c38 3 139 12 224 19 l155
12 -80 0 c-44 0 -142 -5 -217 -11z"/>
<path d="M35920 51444 c-80 -7 -158 -13 -175 -14 l-30 -2 18 -5 c19 -5 429 26
436 33 7 7 -93 2 -249 -12z"/>
<path d="M45951 51368 l-43 -20 10 -10 10 -10 41 21 41 21 0 10 c0 13 -7 12
-59 -12z"/>
<path d="M52930 51340 l-21 -30 -71 -46 c-40 -25 -109 -65 -155 -87 -75 -38
-100 -57 -73 -57 14 0 173 80 241 122 l55 33 37 41 37 41 -7 7 c-12 11 -22 6
-43 -24z"/>
<path d="M18860 51311 l0 -8 92 -7 c50 -3 161 -6 247 -6 87 0 251 -5 365 -11
l208 -10 6 5 c3 3 3 8 1 11 -7 6 -652 35 -796 35 l-123 0 0 -9z"/>
<path d="M84140 51175 c-334 -256 -939 -721 -1109 -853 l-171 -133 0 -10 0
-10 13 7 c13 8 138 104 731 560 214 164 462 355 550 423 89 68 165 127 169
131 l9 8 -9 5 -8 5 -175 -133z"/>
<path d="M18402 51289 l5 -14 54 -13 54 -13 403 -5 402 -5 0 10 0 11 -187 2
c-104 0 -276 2 -383 4 l-195 2 -69 12 c-38 6 -74 14 -79 17 l-10 6 5 -14z"/>
<path d="M18367 51253 c-3 -10 -11 -45 -17 -78 l-12 -60 -39 -104 c-22 -57
-38 -105 -36 -107 5 -5 21 27 52 106 l26 65 20 94 c10 52 17 96 15 98 -2 3 -7
-4 -9 -14z"/>
<path d="M45816 51230 c9 -48 30 -76 79 -110 l41 -29 63 -16 c35 -9 66 -14 69
-11 6 6 -4 10 -72 26 l-49 11 -44 31 -45 30 -25 52 -24 51 7 -35z"/>
<path d="M21150 51216 l0 -16 88 0 c48 0 151 -3 230 -7 l142 -6 0 11 0 10 -72
6 c-40 3 -144 8 -230 11 l-158 6 0 -15z"/>
<path d="M21623 51173 l7 -6 7 6 6 7 -13 0 -13 0 6 -7z"/>
<path d="M22346 51113 c-3 -32 -8 -135 -12 -229 l-6 -171 10 -7 10 -6 6 68 c3
37 8 142 12 235 l6 167 -10 0 -10 0 -6 -57z"/>
<path d="M21610 51149 c0 -11 104 -19 266 -19 160 0 254 7 254 19 l0 6 -260 0
-260 0 0 -6z"/>
<path d="M23580 51151 l0 -11 38 0 c20 -1 123 -5 227 -10 l190 -8 9 8 8 8 -73
6 c-41 3 -147 8 -236 11 l-163 6 0 -10z"/>
<path d="M39360 51116 c0 -2 7 -6 15 -10 l15 -5 0 9 0 10 -15 0 c-8 0 -15 -2
-15 -4z"/>
<path d="M45027 51089 l-58 -30 6 -9 5 -9 38 16 c62 26 92 43 92 53 l0 10 -12
0 c-7 -1 -39 -14 -71 -31z"/>
<path d="M44895 51085 c17 -14 35 -25 40 -25 l10 1 -30 24 c-16 14 -34 25 -40
25 l-10 -1 30 -24z"/>
<path d="M37584 51060 c2 -14 22 -124 42 -245 l39 -220 3 16 c4 22 -66 429
-78 454 l-10 20 4 -25z"/>
<path d="M46530 51059 c25 -6 72 -23 106 -40 l61 -30 77 -71 c42 -39 79 -68
82 -65 3 2 -30 37 -73 76 l-78 72 -52 28 -52 29 -58 5 -58 6 45 -10z"/>
<path d="M25890 51042 l0 -8 457 -22 c251 -12 459 -19 462 -17 2 3 2 7 -1 10
-5 5 -755 45 -855 45 l-63 0 0 -8z"/>
<path d="M28370 51000 c-8 -5 -49 -17 -91 -26 -77 -16 -108 -28 -98 -38 7 -7
190 41 202 53 14 14 5 22 -13 11z"/>
<path d="M67805 50912 c-227 -97 -208 -88 -204 -101 l4 -10 205 90 c113 50
206 92 208 94 2 2 0 5 -5 8 l-8 4 -200 -85z"/>
<path d="M28528 50946 c-15 -6 -37 -22 -48 -34 l-21 -22 -19 0 -20 0 0 -11 0
-11 29 5 30 6 3 -11 c2 -6 -6 -99 -19 -207 l-22 -196 0 -392 -1 -393 10 0 10
0 0 393 0 392 20 170 c11 94 20 195 20 226 l0 56 41 13 41 14 425 -18 425 -18
5 6 c4 3 4 8 2 10 -5 5 -734 36 -819 35 l-65 -1 -27 -12z"/>
<path d="M26775 50754 c-4 -96 -5 -178 -2 -180 3 -3 8 52 11 123 4 70 8 150
10 176 l3 48 -7 4 -7 5 -8 -176z"/>
<path d="M27765 50490 l0 -395 2 198 c2 108 2 286 0 395 l-2 197 0 -395z"/>
<path d="M46893 50837 c-17 -7 -35 -16 -40 -21 l-8 -9 20 7 c11 4 34 10 52 13
l32 5 35 -6 35 -7 53 -35 c61 -41 102 -84 159 -167 l41 -59 47 -101 c38 -83
103 -207 118 -226 1 -2 5 -2 8 0 2 3 -10 29 -28 59 -18 30 -54 105 -80 165
l-48 110 -65 87 -64 86 -49 36 c-27 20 -68 45 -92 56 l-44 20 -25 -1 c-14 0
-39 -6 -57 -12z"/>
<path d="M50264 50498 c24 -51 74 -156 111 -234 l67 -141 28 -16 c44 -26 48
-20 10 12 l-36 29 -104 220 c-58 122 -108 221 -112 222 -4 0 12 -42 36 -92z"/>
<path d="M42213 50564 c8 -8 481 -132 486 -128 2 2 2 5 0 7 -5 4 -475 127
-485 127 l-7 0 6 -6z"/>
<path d="M35851 50449 c-2 -14 100 -693 104 -698 9 -8 5 23 -41 339 -38 267
-60 388 -63 359z"/>
<path d="M83204 50387 c-21 -18 -138 -109 -259 -202 -121 -92 -224 -172 -230
-178 l-10 -10 21 5 20 5 257 197 c141 109 257 202 257 207 0 16 -16 10 -56
-24z"/>
<path d="M48650 50349 l-73 -52 -86 -40 c-47 -21 -96 -43 -109 -48 l-23 -9 5
-9 6 -9 103 45 102 46 78 54 c42 30 77 59 77 64 0 14 -1 13 -80 -42z"/>
<path d="M31724 50275 c3 -33 8 -130 12 -215 l7 -155 9 -15 9 -15 -5 55 c-3
30 -8 127 -12 215 l-6 160 -10 15 -9 15 5 -60z"/>
<path d="M50748 50199 l-198 -99 0 -10 c0 -6 4 -10 10 -10 5 0 97 45 205 101
l195 101 -6 9 c-6 11 24 24 -206 -92z"/>
<path d="M16310 50138 l0 -14 588 -164 c594 -165 693 -192 770 -204 l42 -6 0
13 0 13 -74 13 -74 12 -609 170 c-334 93 -616 172 -625 175 l-18 5 0 -13z"/>
<path d="M25147 49962 c-103 -58 -186 -107 -183 -109 4 -4 362 189 375 202 21
22 -31 -3 -192 -93z"/>
<path d="M34187 50028 l-39 -38 4 -11 3 -10 43 39 c23 21 42 44 42 50 0 19
-12 12 -53 -30z"/>
<path d="M62885 49983 l10 -10 190 -42 c105 -24 199 -45 210 -48 l20 -5 -10 9
-10 10 -190 42 c-104 23 -199 45 -210 48 l-20 5 10 -9z"/>
<path d="M59267 49851 l6 -89 -23 -146 -24 -145 7 -7 c4 -4 9 -5 11 -3 7 6 36
181 47 278 l10 84 -12 58 -12 59 -8 0 -9 0 7 -89z"/>
<path d="M34414 49901 l-29 -18 -18 -31 -17 -31 9 -6 10 -6 15 29 15 30 32 20
31 19 -9 6 -9 6 -30 -18z"/>
<path d="M59927 49913 c-4 -3 -7 -10 -7 -15 l0 -8 18 0 c19 0 329 -65 655
-138 l218 -49 -3 16 -3 16 -145 32 c-80 18 -269 57 -420 88 -151 31 -282 58
-291 61 l-15 4 -7 -7z"/>
<path d="M33670 49879 c0 -17 38 -321 46 -368 3 -18 7 -31 10 -28 6 5 -43 398
-51 405 -3 3 -5 -1 -5 -9z"/>
<path d="M33710 49883 c0 -27 50 -387 55 -391 3 -3 5 2 5 10 0 31 -50 381 -55
386 -3 3 -5 1 -5 -5z"/>
<path d="M82393 49762 l-162 -126 5 -8 5 -8 137 105 c75 58 150 115 166 128
l29 24 -9 5 -9 6 -162 -126z"/>
<path d="M22332 49213 c-7 -307 -19 -747 -27 -978 -8 -231 -15 -466 -15 -522
l0 -103 8 0 8 0 18 578 c24 804 35 1251 36 1430 l0 152 -8 0 -8 0 -12 -557z"/>
<path d="M49558 49740 l-56 -29 -121 -28 -121 -28 0 -12 0 -13 13 0 c6 0 64
12 127 26 l115 27 58 29 57 28 0 15 c0 20 -6 19 -72 -15z"/>
<path d="M26930 49738 l0 -8 58 0 c31 0 327 -11 657 -25 614 -25 712 -28 704
-21 -3 3 -297 16 -654 30 -358 14 -676 27 -707 29 l-58 3 0 -8z"/>
<path d="M29666 49719 l-390 -19 -10 -11 -11 -11 105 6 c58 3 222 11 365 16
143 6 288 13 323 16 l62 6 0 9 0 9 -27 -1 c-16 -1 -203 -10 -417 -20z"/>
<path d="M30507 49545 c3 -99 9 -211 13 -250 l8 -70 -5 215 -5 215 -8 35 -8
35 5 -180z"/>
<path d="M26920 49702 l0 -10 198 -7 c108 -3 205 -9 215 -11 l17 -5 0 9 0 10
-187 6 c-104 4 -200 9 -215 12 l-28 6 0 -10z"/>
<path d="M12306 49688 c-9 -31 -65 -462 -61 -466 11 -11 16 13 45 219 17 118
32 224 34 237 l3 22 -9 0 c-5 0 -10 -6 -12 -12z"/>
<path d="M28380 49620 l0 -60 10 0 10 0 0 60 0 60 -10 0 -10 0 0 -60z"/>
<path d="M28555 49670 c-60 -4 -117 -8 -124 -9 l-15 -1 10 -8 9 -8 203 9 202
10 0 9 0 8 -87 -2 c-49 -1 -137 -5 -198 -8z"/>
<path d="M27780 49662 l0 -10 248 -6 c136 -4 268 -9 295 -12 l47 -6 0 10 0 10
-117 6 c-65 3 -198 9 -295 12 l-178 6 0 -10z"/>
<path d="M49852 49651 c2 -7 7 -12 11 -12 12 1 9 15 -3 20 l-12 4 4 -12z"/>
<path d="M18200 49621 l0 -9 73 -28 c106 -40 241 -109 309 -159 119 -87 767
-709 907 -870 l87 -101 54 -89 c29 -50 64 -105 77 -123 13 -18 84 -144 158
-280 73 -137 155 -280 181 -318 l47 -69 76 -78 76 -78 87 -50 c100 -57 166
-82 300 -113 l97 -23 5 12 4 12 -81 18 c-44 10 -112 28 -150 41 l-68 23 -87
50 -87 50 -81 83 -81 83 -55 85 c-30 47 -101 173 -158 280 -57 107 -149 267
-203 355 l-100 160 -78 90 -78 90 -333 321 c-399 384 -413 397 -505 462 -85
60 -165 102 -285 148 -92 36 -108 40 -108 25z"/>
<path d="M61260 49617 l0 -13 215 -48 215 -49 7 6 6 7 -6 6 c-3 3 -93 26 -199
50 -106 24 -203 46 -215 49 l-23 5 0 -13z"/>
<path d="M64620 49620 l0 -10 15 0 15 0 0 10 0 10 -15 0 -15 0 0 -10z"/>
<path d="M28356 49607 l6 -18 6 6 6 5 -13 13 -12 12 7 -18z"/>
<path d="M18190 49572 l0 -8 87 -34 87 -34 127 -76 127 -76 180 -173 c167
-161 197 -185 197 -162 0 5 -83 88 -185 185 l-185 177 -115 69 -115 70 -85 35
c-47 19 -93 35 -102 35 l-18 0 0 -8z"/>
<path d="M15135 49523 c-33 -20 -114 -63 -180 -96 l-120 -60 11 -4 10 -3 80
36 c61 27 242 124 263 140 1 2 1 7 0 13 l-4 9 -60 -35z"/>
<path d="M38151 49524 c-6 -22 -28 -108 -50 -191 l-39 -153 6 0 c9 0 105 371
98 377 -3 3 -9 -12 -15 -33z"/>
<path d="M49800 49557 c0 -11 99 -208 138 -274 35 -62 46 -71 56 -54 l5 8 -90
154 c-87 147 -109 181 -109 166z"/>
<path d="M71546 49532 l-6 -9 158 -7 c86 -4 184 -9 217 -12 l60 -5 -15 9 -15
10 -180 7 c-99 3 -187 8 -197 11 l-16 5 -6 -9z"/>
<path d="M14520 49165 c0 -4 17 -31 39 -61 l39 -54 6 -43 7 -43 -36 -169 c-19
-93 -35 -176 -35 -184 0 -38 13 10 46 165 l36 169 -6 53 -5 54 -38 55 c-36 53
-53 71 -53 58z"/>
<path d="M14490 49145 c0 -3 16 -29 35 -58 l35 -52 6 -45 5 -45 -29 -125 c-16
-69 -33 -147 -37 -174 l-7 -48 11 7 11 6 0 29 c0 16 14 87 30 158 l30 130 0
50 0 50 -41 61 c-37 56 -49 69 -49 56z"/>
<path d="M41521 49068 l-20 -43 -32 -155 -31 -155 5 -48 4 -47 16 -18 c8 -9
18 -29 22 -43 l7 -27 -16 -30 -16 -31 9 -6 10 -5 15 22 16 22 0 36 0 36 -17
23 -16 24 -8 40 -7 41 24 125 c26 142 49 224 71 258 l15 23 -15 0 -15 0 -21
-42z"/>
<path d="M91439 48708 c-68 -78 -153 -178 -188 -223 -35 -44 -124 -141 -198
-216 -73 -75 -133 -141 -133 -145 0 -5 54 45 121 111 l121 120 81 100 c73 91
242 288 305 357 14 15 23 30 20 33 -2 3 -61 -59 -129 -137z"/>
<path d="M81164 48800 c-55 -25 -82 -45 -73 -55 2 -1 37 14 78 34 l74 38 -9 5
-9 5 -61 -27z"/>
<path d="M76000 48800 l-14 -9 5 -6 6 -5 17 6 c9 3 16 10 16 15 0 11 -11 11
-30 -1z"/>
<path d="M22247 48153 c-10 -318 -17 -606 -17 -640 l0 -63 8 0 8 0 17 593 c10
325 18 613 17 640 l0 47 -8 0 -8 0 -17 -577z"/>
<path d="M66040 48710 l0 -10 38 0 c20 0 69 -6 107 -14 l70 -13 100 -45 c124
-57 204 -83 320 -103 50 -9 100 -19 113 -22 l22 -5 0 14 0 14 -106 18 -106 18
-89 29 c-49 16 -121 45 -161 65 l-73 37 -70 14 c-38 7 -91 13 -117 13 l-48 0
0 -10z"/>
<path d="M35245 48676 l-190 -11 10 -6 10 -5 240 12 c132 7 251 15 265 17 50
8 -149 4 -335 -7z"/>
<path d="M65552 48658 l4 -12 125 -28 c68 -15 166 -40 217 -56 l92 -30 0 12 0
12 -97 31 c-80 26 -314 83 -338 83 -4 0 -5 -5 -3 -12z"/>
<path d="M41023 48593 l-103 -4 0 -11 0 -11 173 7 172 7 10 10 9 9 -79 -2
c-44 -1 -126 -4 -182 -5z"/>
<path d="M28337 48468 c-21 -255 -64 -1524 -52 -1537 3 -2 7 -2 10 1 3 3 10
187 15 409 10 396 35 1013 47 1137 l6 62 -10 0 -10 0 -6 -72z"/>
<path d="M41710 48530 l-125 -6 155 -1 c85 -1 193 2 240 6 l85 8 -115 -1 c-63
0 -171 -3 -240 -6z"/>
<path d="M44043 48490 c36 -85 158 -329 167 -335 11 -7 -156 345 -171 360
l-11 10 15 -35z"/>
<path d="M91057 48329 c-98 -104 -174 -189 -170 -189 11 0 329 334 343 360 6
11 9 20 8 19 -2 0 -83 -85 -181 -190z"/>
<path d="M44537 48296 c-35 -30 -98 -91 -139 -135 l-75 -81 0 -17 0 -17 96
100 c53 54 121 120 151 145 l54 46 -11 6 -12 7 -64 -54z"/>
<path d="M13970 48284 c-207 -60 -215 -63 -209 -69 5 -4 421 113 428 121 12
12 -53 -3 -219 -52z"/>
<path d="M67282 48299 l4 -13 464 -93 c255 -51 466 -91 468 -88 3 3 1 9 -4 14
-5 4 -207 47 -449 95 -242 48 -451 90 -464 93 l-24 6 5 -14z"/>
<path d="M41380 48287 c0 -8 18 -140 40 -293 41 -283 63 -471 60 -533 l-1 -35
-15 -31 -14 -31 -63 -36 -62 -35 -237 -38 -238 -37 0 -15 0 -14 18 5 c9 2 123
21 252 42 l235 37 59 36 58 35 14 21 c8 12 18 42 22 66 l9 45 -9 23 c-4 13
-10 58 -13 100 -4 63 -70 552 -90 669 l-6 32 -9 0 -10 0 0 -13z"/>
<path d="M32794 48233 c3 -10 21 -126 42 -258 l37 -240 10 -10 10 -10 -5 20
c-3 11 -22 131 -44 267 l-39 248 -8 0 -8 0 5 -17z"/>
<path d="M19657 48233 l-7 -7 18 -20 c10 -12 67 -113 127 -226 165 -313 268
-468 372 -560 l46 -40 86 -49 c119 -69 159 -84 294 -115 l118 -28 7 6 6 6 -10
8 c-5 5 -63 21 -128 36 l-120 27 -99 52 -98 52 -55 43 -54 42 -62 76 c-88 107
-161 227 -298 489 -108 206 -123 228 -143 208z"/>
<path d="M54245 48112 l-210 -105 11 -4 12 -4 198 102 c216 111 209 107 203
113 -2 2 -98 -44 -214 -102z"/>
<path d="M20120 48182 l0 -9 628 -158 c345 -87 636 -161 647 -163 l20 -5 -6 7
c-4 4 -200 57 -435 117 -236 61 -523 135 -639 165 -244 62 -215 56 -215 46z"/>
<path d="M44144 48077 l-51 -43 -217 -123 -218 -123 10 -10 10 -10 33 18 c19
9 117 64 219 122 l185 105 48 39 47 40 0 14 c0 21 -11 17 -66 -29z"/>
<path d="M44286 48001 l-6 -9 24 -15 23 -16 15 -33 16 -33 7 -157 7 -158 10 0
10 0 -7 163 -7 162 -15 33 -15 32 -29 20 -28 20 -5 -9z"/>
<path d="M20985 47923 c12 -12 405 -116 412 -110 6 6 7 6 -207 62 -96 25 -184
48 -195 52 l-20 5 10 -9z"/>
<path d="M69172 47918 l4 -12 710 -147 c390 -81 826 -172 969 -202 328 -71
1386 -272 1525 -291 58 -8 148 -17 200 -20 l95 -6 417 58 c230 32 420 61 424
65 l7 7 -6 6 -6 6 -404 -56 -404 -56 -91 0 -91 0 -113 16 c-136 19 -1200 223
-1528 293 -242 52 -1696 351 -1706 351 -3 0 -4 -5 -2 -12z"/>
<path d="M51120 47908 c1 -7 12 -33 26 -58 l25 -45 -6 29 c-3 15 -9 41 -12 57
l-5 29 -14 0 -14 0 0 -12z"/>
<path d="M69660 47868 c0 -36 4 -35 14 5 l6 27 -10 0 -10 0 0 -32z"/>
<path d="M51170 47790 l0 -13 7 6 6 7 -6 7 -7 6 0 -13z"/>
<path d="M53573 47773 l-33 -17 0 -18 0 -18 69 -137 c80 -163 103 -203 114
-203 l9 0 -22 36 c-27 42 -144 280 -153 309 l-7 20 38 22 c43 26 32 29 -15 6z"/>
<path d="M80490 47785 c0 -2 14 -68 30 -145 17 -77 30 -147 30 -155 l0 -15
-25 10 -25 10 -24 -10 -25 -9 -11 -21 -12 -22 7 -26 c3 -15 27 -55 51 -90 l45
-64 19 -52 20 -51 -1 -85 0 -85 -8 -20 -8 -19 -11 19 -10 20 -8 -8 -8 -7 17
-34 16 -34 -28 -44 c-15 -24 -56 -95 -91 -158 l-63 -113 -22 -74 -23 -74 11 4
11 3 21 65 c26 81 177 359 195 359 3 0 36 -61 73 -135 l67 -135 10 0 10 0 -76
151 -76 152 11 43 11 43 0 73 0 74 -16 59 -15 60 -37 52 c-20 29 -45 67 -56
84 l-19 30 11 23 10 23 21 6 22 5 30 -25 30 -25 6 6 6 6 -22 112 c-13 62 -30
143 -38 181 l-15 67 -9 0 c-5 0 -9 -2 -9 -5z"/>
<path d="M21750 47761 c8 -5 33 -12 55 -15 l40 -6 -20 9 c-11 4 -36 11 -55 15
l-35 7 15 -10z"/>
<path d="M51190 47740 l0 -13 7 6 6 7 -6 7 -7 6 0 -13z"/>
<path d="M51200 47710 l0 -13 7 6 6 7 -6 7 -7 6 0 -13z"/>
<path d="M51210 47680 l0 -13 7 6 6 7 -6 7 -7 6 0 -13z"/>
<path d="M84050 47538 l-194 -152 12 -4 11 -3 185 146 c158 124 203 165 182
165 -2 0 -90 -68 -196 -152z"/>
<path d="M51221 47647 c-1 -19 39 -120 45 -114 2 1 -8 32 -21 67 l-24 65 0
-18z"/>
<path d="M74831 47610 c0 -8 4 -24 9 -35 l9 -20 0 20 c0 11 -4 27 -9 35 l-10
15 1 -15z"/>
<path d="M22343 47558 c-13 -6 -23 -15 -23 -20 l0 -9 28 15 27 14 105 -18 c58
-10 271 -57 475 -104 203 -47 371 -83 374 -81 6 7 0 8 -379 95 -326 75 -548
121 -574 119 -6 0 -21 -5 -33 -11z"/>
<path d="M80797 47473 l-5 -8 49 -275 48 -275 36 -123 c46 -157 96 -397 145
-685 l39 -228 45 -162 c25 -89 67 -245 94 -347 l50 -185 43 -115 c46 -125 46
-126 55 -117 l6 6 -55 159 -56 160 -80 309 -80 309 -35 211 c-49 290 -98 519
-152 708 l-46 160 -44 249 c-24 137 -46 251 -48 253 -2 2 -6 1 -9 -4z"/>
<path d="M41503 47370 l-9 -35 -48 -23 -48 -23 5 -6 6 -5 28 9 28 10 0 -60 0
-60 13 -5 12 -4 -5 -8 -5 -8 31 -27 32 -26 13 5 12 5 11 -47 c11 -46 30 -180
31 -214 l0 -18 15 0 15 0 0 18 c0 38 -22 189 -32 225 l-12 38 -30 13 c-17 7
-40 23 -51 35 l-19 22 -1 59 0 58 17 18 17 19 -8 35 -8 35 -10 -35z"/>
<path d="M23840 47290 c35 -13 1388 -290 1408 -289 l17 1 -10 4 c-16 6 -1417
294 -1429 293 -6 0 0 -5 14 -9z"/>
<path d="M20662 47113 l-21 -68 -21 -132 c-12 -73 -20 -138 -18 -144 2 -7 16
62 32 151 l28 164 19 48 19 48 -9 0 -8 0 -21 -67z"/>
<path d="M20701 47103 c-22 -71 -62 -292 -60 -334 1 -13 14 48 30 136 l28 160
20 53 19 52 -8 0 c-4 0 -17 -30 -29 -67z"/>
<path d="M21145 47151 l-5 -10 17 -5 c62 -18 112 -27 223 -41 156 -19 264 -42
310 -65 l35 -18 47 -69 48 -68 2 -24 3 -23 -145 -52 c-80 -29 -203 -80 -275
-113 -124 -58 -217 -98 -710 -304 -121 -50 -336 -143 -477 -206 l-257 -115 6
-14 5 -13 51 23 c437 194 614 271 957 416 223 95 443 189 490 210 107 49 356
140 380 140 10 0 20 4 22 9 l3 9 141 26 142 26 107 0 106 0 97 -24 c127 -32
396 -89 547 -116 66 -12 262 -52 435 -90 173 -38 407 -85 520 -105 113 -19
272 -52 353 -71 l148 -37 -16 -17 -15 -17 0 -26 0 -27 9 0 9 0 11 30 10 31 38
15 37 16 41 -12 c22 -7 45 -16 50 -20 6 -5 87 -22 180 -39 94 -17 217 -42 275
-55 l105 -24 8 8 9 8 -9 5 c-12 8 -272 63 -408 87 l-120 21 -35 16 -35 16 -85
8 -85 7 -120 30 c-66 17 -214 47 -330 67 -115 21 -354 68 -530 107 -176 38
-383 81 -460 95 -153 27 -405 81 -555 118 l-95 23 -140 -8 -140 -9 -105 -20
c-58 -12 -106 -21 -108 -21 -2 0 -11 17 -20 38 -9 20 -36 65 -60 98 l-43 61
-37 17 c-54 23 -151 44 -292 61 -69 9 -153 23 -188 30 -75 18 -69 17 -77 6z"/>
<path d="M46280 47104 c-47 -19 -150 -55 -228 -80 -79 -25 -142 -47 -140 -49
11 -11 429 132 453 156 13 13 9 12 -85 -27z"/>
<path d="M83350 47004 c-63 -46 -146 -101 -185 -123 l-70 -39 -85 -20 -85 -21
-153 -17 c-140 -16 -184 -26 -172 -37 3 -3 88 6 190 19 l185 23 60 17 c89 24
165 66 312 171 l133 95 -6 9 c-7 11 10 21 -124 -77z"/>
<path d="M89983 47028 l-49 -53 -59 -104 -59 -103 -34 -15 c-19 -8 -32 -16
-30 -19 3 -2 21 2 41 11 l36 15 57 102 57 103 37 40 c78 86 81 105 3 23z"/>
<path d="M83355 46943 l-130 -96 -61 -28 c-76 -35 -191 -64 -314 -79 -199 -24
-487 -69 -531 -83 l-46 -14 -57 -43 c-49 -37 -68 -60 -50 -60 3 0 31 20 62 44
l57 43 90 21 c50 11 113 23 140 26 217 24 471 60 525 73 36 9 94 30 130 47
l66 31 137 99 c75 55 137 103 137 108 0 20 -33 1 -155 -89z"/>
<path d="M42586 46823 c-3 -98 -8 -206 -10 -240 l-4 -63 8 0 8 0 7 236 c4 129
5 237 2 240 -3 3 -8 -75 -11 -173z"/>
<path d="M28240 46971 l-25 -19 -239 -11 c-132 -6 -242 -13 -244 -16 -7 -7 52
-6 288 5 l204 10 25 25 c30 29 26 32 -9 6z"/>
<path d="M26655 46892 c-225 -8 -412 -16 -414 -18 -2 -2 -2 -5 0 -7 7 -6 980
31 987 37 l5 6 -84 -1 c-46 -1 -268 -9 -494 -17z"/>
<path d="M39262 46869 l3 -24 20 -2 20 -3 -12 6 c-7 3 -13 12 -13 19 0 8 -5
17 -11 21 l-11 6 4 -23z"/>
<path d="M25740 46869 l0 -7 38 -6 c20 -3 84 -11 142 -17 l105 -12 275 2 c151
1 311 5 355 9 l80 7 -380 1 -380 1 -117 15 -118 14 0 -7z"/>
<path d="M80464 46859 c-6 -8 -41 -69 -78 -135 -61 -112 -92 -184 -110 -256
l-6 -28 9 0 10 0 21 72 22 71 74 135 75 134 -3 10 -4 10 -10 -13z"/>
<path d="M30690 46814 c0 -54 30 -397 35 -402 8 -8 6 28 -11 233 -14 175 -24
242 -24 169z"/>
<path d="M21800 46769 c0 -7 5 -29 12 -50 l11 -39 14 0 13 0 -6 28 c-4 15 -11
37 -15 50 l-9 22 -10 0 c-5 0 -10 -5 -10 -11z"/>
<path d="M52735 46731 c-44 -15 -142 -43 -217 -62 l-138 -33 0 -8 c0 -4 4 -8
9 -8 23 0 263 62 352 92 l99 32 0 8 c0 12 -19 9 -105 -21z"/>
<path d="M36497 46586 l-8 -28 6 -6 5 -5 6 5 c3 4 4 19 2 35 l-3 28 -8 -29z"/>
<path d="M34480 46539 c-74 -3 -152 -7 -172 -8 l-38 -1 0 -16 0 -16 108 6 c59
3 160 9 225 12 l117 6 0 14 0 14 -52 -2 c-29 -1 -114 -5 -188 -9z"/>
<path d="M57586 46522 c-3 -5 -2 -18 1 -31 l6 -22 9 3 c5 2 9 7 9 11 -1 4 -1
16 -1 27 l0 20 -9 0 c-6 0 -12 -4 -15 -8z"/>
<path d="M25744 46365 l0 -160 3 83 c2 46 2 118 0 160 l-3 77 0 -160z"/>
<path d="M35190 46489 c-173 -9 -339 -18 -367 -18 l-53 -1 0 -15 0 -16 58 5
c31 3 206 13 387 21 182 9 354 18 383 21 l52 5 0 10 0 9 -72 -1 c-40 -1 -215
-10 -388 -20z"/>
<path d="M51636 46454 c9 -27 18 -55 20 -63 l5 -14 10 10 11 11 -11 35 -12 35
-19 17 -20 18 16 -49z"/>
<path d="M51392 46443 c-5 -10 -12 -34 -16 -54 l-6 -36 14 -34 14 -34 -9 -60
c-4 -33 -20 -110 -34 -172 l-25 -112 0 -86 0 -87 31 -181 31 -182 -6 -118 c-4
-65 -13 -168 -21 -229 -8 -62 -15 -113 -15 -115 0 -2 8 -3 18 -3 l18 0 17 143
17 142 0 95 0 95 -30 175 -30 175 0 71 0 70 29 135 c16 73 31 148 32 165 l4
31 -15 17 -14 17 37 -17 c20 -10 37 -21 37 -26 l0 -8 16 0 16 0 -6 16 c-3 9
-6 17 -6 20 0 2 -13 10 -30 19 l-30 15 -16 38 -15 37 10 36 c6 20 11 41 11 48
0 17 -18 13 -28 -6z"/>
<path d="M80970 46440 l-15 -10 23 0 23 0 -6 10 c-7 12 -6 12 -25 0z"/>
<path d="M80862 46423 l-22 -4 4 -8 5 -8 31 5 30 4 0 9 0 9 -12 -1 c-7 -1 -23
-4 -36 -6z"/>
<path d="M50800 46374 c0 -5 36 -76 80 -158 44 -81 80 -152 80 -158 l0 -9 9 5
9 6 -84 156 c-85 159 -94 175 -94 158z"/>
<path d="M51670 46344 l0 -15 10 6 c6 3 10 10 10 16 0 5 -4 9 -10 9 l-10 0 0
-16z"/>
<path d="M49212 46341 c14 -41 165 -351 170 -351 4 0 -18 53 -48 118 -31 64
-69 145 -85 180 -15 34 -31 62 -34 62 -4 0 -5 -4 -3 -9z"/>
<path d="M51250 46342 c0 -13 16 -19 74 -27 l46 -7 0 10 0 9 -37 7 c-21 3 -48
9 -60 12 l-23 6 0 -10z"/>
<path d="M30768 46283 l-58 -4 0 -11 0 -11 173 6 c94 4 198 7 230 7 l57 0 0
10 0 10 -172 -2 c-95 -1 -199 -3 -230 -5z"/>
<path d="M51583 46268 l-23 -11 0 -12 c0 -6 3 -14 6 -18 l6 -5 29 10 30 10 -3
16 c-4 20 -18 23 -45 10z"/>
<path d="M19843 46238 c25 -63 92 -199 94 -191 4 11 -84 203 -93 203 l-6 0 5
-12z"/>
<path d="M51500 46190 c6 -11 13 -20 16 -20 2 0 0 9 -6 20 -6 11 -13 20 -16
20 -2 0 0 -9 6 -20z"/>
<path d="M28205 46180 l-6 -10 16 0 16 0 -6 10 c-3 6 -8 10 -10 10 -2 0 -7 -4
-10 -10z"/>
<path d="M51562 46141 l-14 -8 89 -209 88 -209 18 -3 17 -3 0 13 c0 16 -173
428 -180 428 -3 0 -11 -4 -18 -9z"/>
<path d="M28155 46090 l-15 -29 0 -156 0 -155 10 0 10 0 0 155 0 156 15 29 16
30 -10 0 c-6 0 -17 -13 -26 -30z"/>
<path d="M93091 46095 l15 -15 75 -13 76 -14 24 -16 23 -17 52 0 51 0 62 32
c33 17 61 35 61 40 l0 8 -69 -35 -68 -35 -36 0 -36 0 -35 21 -35 20 -68 10
-68 10 -9 9 c-6 6 -15 10 -20 10 l-10 0 15 -15z"/>
<path d="M81130 45970 l0 -19 30 -16 29 -15 25 0 25 0 46 22 c25 12 45 26 45
30 0 12 -7 10 -50 -12 l-39 -20 -29 0 -29 0 -27 25 -26 24 0 -19z"/>
<path d="M81344 45948 l-7 -11 11 7 c7 4 12 9 12 12 0 8 -9 4 -16 -8z"/>
<path d="M81300 45792 c-12 -38 -25 -74 -30 -81 l-7 -13 -34 -8 -34 -8 32 -1
32 -1 14 14 14 14 22 72 c13 39 21 74 18 76 -3 3 -15 -26 -27 -64z"/>
<path d="M81251 45630 c0 -25 -3 -58 -6 -75 l-6 -30 16 34 15 34 -9 41 -9 41
-1 -45z"/>
<path d="M48208 45476 c-124 -39 -230 -74 -234 -78 l-7 -8 17 0 c23 0 439 130
450 141 5 5 8 10 5 12 -2 2 -106 -28 -231 -67z"/>
<path d="M28256 45332 l-5 -9 39 -139 c22 -76 50 -165 62 -196 l23 -58 13 0
12 0 -19 38 c-10 20 -40 111 -66 202 -26 91 -49 166 -50 168 -2 2 -6 -1 -9 -6z"/>
<path d="M28335 44883 l6 -27 54 -75 55 -75 77 -67 77 -68 8 5 9 5 -52 47
c-28 25 -62 54 -75 65 -29 23 -144 185 -144 204 l0 13 -11 0 -11 0 7 -27z"/>
<path d="M81156 44858 c4 -13 49 -156 101 -318 l95 -295 86 -215 85 -215 42
-65 c23 -36 52 -74 64 -85 l23 -20 -13 30 c-7 17 -30 55 -50 85 l-37 55 -94
235 -95 235 -94 297 -94 298 -13 0 -13 0 7 -22z"/>
<path d="M34573 44743 l-33 -4 0 -10 0 -9 35 0 35 0 0 15 c0 8 -1 14 -2 13 -2
0 -18 -3 -35 -5z"/>
<path d="M29921 44354 c1 -71 5 -156 9 -189 l8 -60 -5 185 c-3 102 -7 187 -9
189 -2 2 -4 -54 -3 -125z"/>
<path d="M41602 44248 c-7 -7 -12 -16 -12 -22 l0 -10 12 12 c7 7 20 12 31 12
l18 0 -6 10 c-8 14 -28 13 -43 -2z"/>
<path d="M52646 44185 l-5 -15 33 -14 33 -14 21 -29 c11 -16 24 -41 27 -55 l7
-27 14 6 15 6 -7 31 c-3 17 -15 43 -26 59 l-20 27 -38 20 c-47 24 -46 24 -54
5z"/>
<path d="M52360 44018 c-36 -23 -85 -49 -111 -59 l-45 -17 -120 -21 c-112 -20
-455 -71 -475 -71 l-9 0 0 -15 c0 -8 4 -15 8 -15 34 0 587 84 624 95 l47 14
70 41 70 42 7 20 c3 11 4 21 2 23 -2 2 -33 -14 -68 -37z"/>
<path d="M52660 43890 l-15 -9 12 -12 12 -12 16 7 17 6 -4 12 c-6 16 -20 19
-38 8z"/>
<path d="M51010 43304 l-225 -34 -150 -41 c-82 -23 -154 -46 -160 -52 l-10 -9
21 6 c11 3 74 22 140 41 l119 35 235 35 c129 20 255 40 280 45 l45 8 -35 0
c-19 0 -136 -15 -260 -34z"/>
<path d="M11220 43156 c-12 -34 -13 -46 -1 -46 l9 0 7 31 7 30 -6 6 -5 6 -11
-27z"/>
<path d="M49550 43040 c0 -25 -23 -72 -44 -89 l-15 -12 5 -14 6 -14 43 -15
c25 -8 64 -28 89 -45 44 -30 66 -38 66 -23 0 4 -27 25 -61 46 l-60 39 -29 1
-28 1 13 15 c7 8 20 29 29 47 l16 32 0 26 0 25 -15 0 -15 0 0 -20z"/>
<path d="M52110 43058 c0 -15 199 -406 204 -401 3 3 -21 58 -54 122 -74 147
-150 288 -150 279z"/>
<path d="M10490 42970 l0 -30 10 0 10 0 0 30 0 30 -10 0 -10 0 0 -30z"/>
<path d="M42024 42955 l-19 -14 11 -1 c5 0 19 7 30 15 l19 14 -11 1 c-5 0 -19
-7 -30 -15z"/>
<path d="M42036 42921 l-20 -8 10 -5 9 -6 25 14 25 13 -15 0 c-8 0 -24 -4 -34
-8z"/>
<path d="M31880 42689 l0 -12 -157 -153 -157 -153 6 -7 7 -6 128 121 c159 151
217 221 183 221 -5 0 -10 -5 -10 -11z"/>
<path d="M51445 42555 c11 -67 115 -840 115 -852 0 -7 4 -13 8 -13 l8 0 -53
403 -54 402 -14 45 -15 45 5 -30z"/>
<path d="M51401 42568 c-1 -8 57 -382 65 -417 3 -13 7 -21 10 -18 6 6 -54 396
-66 422 -5 11 -9 17 -9 13z"/>
<path d="M91530 42513 c-58 -31 -151 -80 -208 -110 -57 -30 -102 -57 -100 -59
4 -3 405 201 417 212 2 2 2 6 0 8 -2 2 -51 -21 -109 -51z"/>
<path d="M68463 42102 l-193 -26 0 -8 0 -8 18 0 c9 0 102 11 206 25 104 14
193 25 198 25 4 0 8 5 8 10 l0 10 -22 -1 c-13 -1 -110 -13 -215 -27z"/>
<path d="M66930 41830 c-8 -5 -45 -16 -82 -26 l-68 -16 0 -9 c0 -16 58 -5 148
27 l42 16 0 9 c0 12 -21 11 -40 -1z"/>
<path d="M30340 41663 c0 -8 231 -268 282 -318 l20 -20 -3 12 c-7 20 -299 339
-299 326z"/>
<path d="M82732 41628 c8 -13 166 -272 352 -575 l338 -553 15 0 15 0 -14 23
c-8 12 -167 271 -353 575 l-338 552 -15 0 -14 0 14 -22z"/>
<path d="M30450 41168 l-185 -140 -3 -15 -4 -15 183 138 c100 77 187 142 192
145 l9 7 -3 10 -4 10 -185 -140z"/>
<path d="M92864 40965 c-209 -152 -381 -281 -383 -286 -2 -6 46 25 105 68 60
44 226 164 369 268 245 177 307 225 294 225 -4 0 -177 -124 -385 -275z"/>
<path d="M63150 41070 c0 -14 35 -30 64 -30 l26 0 0 10 0 10 -29 0 -30 0 -6
10 c-8 13 -25 13 -25 0z"/>
<path d="M50826 41022 l-7 -11 86 -169 85 -170 42 -34 c52 -42 142 -89 248
-128 l79 -29 6 9 5 9 -7 4 c-5 2 -33 12 -63 22 -73 24 -217 97 -258 133 l-34
28 -87 173 -88 174 -7 -11z"/>
<path d="M58161 41016 c2 -2 103 -6 224 -9 l220 -5 -25 8 -25 8 -199 1 c-110
1 -197 -1 -195 -3z"/>
<path d="M63660 40872 l0 -8 210 -73 209 -73 13 5 13 5 -15 6 c-44 17 -415
146 -422 146 -4 0 -8 -4 -8 -8z"/>
<path d="M97457 40783 l-5 -8 84 -122 85 -122 35 -27 35 -27 7 7 7 8 -37 30
-38 30 -76 111 c-42 62 -80 116 -84 120 l-8 9 -5 -9z"/>
<path d="M97100 40646 l-275 -93 -296 -136 c-299 -136 -361 -166 -346 -167 4
0 155 67 335 148 l327 149 278 92 c152 51 277 95 277 97 0 9 -38 -2 -300 -90z"/>
<path d="M98095 40599 c-55 -39 -119 -89 -142 -111 l-42 -41 -5 -23 -6 -24
-10 0 c-5 0 -11 8 -14 18 l-6 17 -31 18 -31 17 -54 0 -55 0 -29 -15 -28 -15
-21 -29 -21 -30 10 -6 11 -7 20 26 c12 15 34 33 49 41 l29 15 35 0 34 0 30
-17 30 -17 15 -30 c9 -17 18 -47 21 -67 l6 -36 -23 -34 -22 -34 -35 -18 -35
-18 -32 4 -32 3 -5 -12 -5 -12 22 -6 22 -5 39 9 39 9 26 19 26 19 17 34 17 34
1 48 0 48 14 32 13 33 59 53 c33 29 96 77 141 108 l82 56 -5 9 c-9 14 -15 10
-119 -63z"/>
<path d="M86380 40589 l-35 -50 -77 -58 -76 -59 -61 -28 c-33 -16 -60 -33 -60
-37 l-1 -8 23 6 c35 11 137 75 199 125 l57 45 41 58 c23 31 37 57 33 57 -4 0
-24 -23 -43 -51z"/>
<path d="M97592 40318 l3 -41 11 -4 11 -4 0 46 0 45 -14 0 -14 0 3 -42z"/>
<path d="M47411 40101 c-58 -132 -104 -243 -104 -247 1 -5 6 -10 11 -12 l9 -3
104 238 c57 131 104 242 104 247 0 5 -4 11 -10 12 l-10 4 -104 -239z"/>
<path d="M85430 40260 l-145 -18 -41 -15 -41 -15 -144 -93 c-79 -51 -168 -108
-197 -126 -30 -19 -52 -37 -49 -39 3 -3 90 50 193 117 l189 121 50 20 50 20
158 18 c87 10 161 20 164 24 l6 6 -24 -1 c-13 -1 -89 -9 -169 -19z"/>
<path d="M66014 40095 l-14 -35 -20 -12 -20 -13 0 -12 0 -12 22 8 22 8 23 44
c25 50 27 59 12 59 l-10 0 -15 -35z"/>
<path d="M65845 40050 l-6 -9 30 -16 30 -15 26 0 25 0 0 10 0 10 -20 0 c-12 0
-34 7 -50 15 l-29 15 -6 -10z"/>
<path d="M84780 39956 c0 -4 39 -65 87 -134 47 -70 165 -257 261 -417 191
-317 180 -300 186 -294 11 10 -472 784 -525 844 l-9 9 0 -8z"/>
<path d="M45780 39740 c-113 -42 -245 -93 -293 -114 -49 -20 -171 -66 -271
-100 l-182 -64 -109 -21 c-61 -11 -164 -26 -230 -32 l-120 -12 -130 6 -130 5
-95 27 -95 27 -83 39 -82 40 -113 97 c-61 54 -117 101 -124 105 l-12 7 -5 -9
-6 -9 98 -85 c53 -46 108 -94 122 -107 14 -12 61 -39 105 -60 l80 -38 95 -28
95 -29 240 1 240 1 135 26 136 26 186 65 c102 36 230 84 285 107 54 23 184 74
290 113 l192 71 -7 11 -7 11 -205 -77z"/>
<path d="M45411 39660 c0 -8 4 -22 9 -30 l10 -15 -1 10 c0 6 -4 19 -9 30 l-9
20 0 -15z"/>
<path d="M52106 39403 c-12 -43 -76 -397 -72 -401 6 -6 10 9 51 227 19 102 33
186 31 189 -2 2 -7 -5 -10 -15z"/>
<path d="M60223 38358 c-28 -41 -82 -107 -120 -147 -37 -41 -74 -82 -81 -92
l-13 -19 9 0 c11 0 163 174 221 253 l42 58 -3 10 -3 10 -52 -73z"/>
<path d="M46230 38384 c0 -13 48 -59 55 -52 3 2 -9 17 -25 33 l-30 29 0 -10z"/>
<path d="M54068 37738 c-47 -233 -84 -425 -82 -427 2 -2 7 -1 11 2 7 7 172
800 173 830 l0 17 -8 0 -9 0 -85 -422z"/>
<path d="M95293 38017 l-201 -102 -1 -13 -1 -13 23 6 c12 4 106 50 209 103
l187 97 1 10 c1 5 -2 10 -7 12 -4 1 -99 -44 -210 -100z"/>
<path d="M89500 37986 c0 -5 55 -88 123 -185 68 -97 174 -250 237 -341 134
-195 119 -174 125 -169 2 3 -28 52 -68 110 -40 57 -144 208 -231 334 -87 127
-164 237 -172 245 l-14 14 0 -8z"/>
<path d="M90846 37733 c-4 -22 -13 -48 -19 -57 l-12 -15 -110 -45 c-60 -25
-103 -45 -95 -45 8 0 62 19 120 42 l105 43 13 39 13 39 -4 21 -3 20 -8 -42z"/>
<path d="M85347 37673 l-4 -8 154 -235 c84 -129 222 -345 305 -480 l151 -245
169 -243 c222 -316 321 -471 433 -672 l92 -165 131 -199 c73 -109 132 -204
132 -211 l0 -12 -120 -74 c-112 -68 -137 -89 -109 -89 7 0 63 32 125 70 63 39
118 70 122 70 5 0 21 -22 36 -50 15 -27 32 -52 37 -56 l10 -6 6 6 6 5 -36 60
-36 60 60 37 61 36 -10 10 -9 9 -56 -35 -55 -35 -58 92 c-32 51 -97 151 -144
222 -48 72 -120 191 -160 265 -99 181 -231 386 -437 681 l-171 244 -117 190
c-151 245 -488 764 -497 765 -4 0 -9 -3 -11 -7z"/>
<path d="M89832 37430 c61 -88 113 -158 116 -156 5 6 -209 316 -219 316 -4 0
42 -72 103 -160z"/>
<path d="M51158 37443 c-8 -16 -56 -82 -107 -147 l-93 -118 -9 -31 -9 -32 108
-104 c136 -131 487 -452 515 -470 29 -18 -47 56 -278 271 -105 97 -220 205
-257 241 l-68 65 0 19 0 20 101 129 c93 119 126 170 115 181 -2 2 -10 -9 -18
-24z"/>
<path d="M44645 36837 l-600 -599 -90 -61 c-49 -33 -126 -79 -170 -100 l-80
-39 -85 -24 -85 -24 -435 -75 c-239 -42 -443 -79 -452 -83 l-17 -7 7 -11 7
-10 465 82 465 82 70 20 c39 11 105 36 147 56 l78 35 102 70 103 69 593 595
c325 327 592 599 592 605 0 6 -3 12 -7 14 -5 2 -278 -266 -608 -595z"/>
<path d="M50601 37403 c0 -4 27 -30 59 -58 33 -27 124 -117 202 -199 l143
-149 405 -371 c223 -204 626 -573 895 -820 270 -247 502 -461 517 -474 l28
-26 5 6 6 5 -508 466 c-279 255 -670 612 -868 792 l-360 327 -220 222 c-205
207 -306 299 -304 279z"/>
<path d="M85616 37317 l6 -18 6 6 6 5 -13 13 -12 12 7 -18z"/>
<path d="M39877 35650 c3 -85 9 -182 13 -215 l8 -60 -5 195 -6 195 -8 20 -7
20 5 -155z"/>
<path d="M86487 35769 l-17 -10 5 -8 4 -8 36 11 c19 6 35 14 35 18 l0 8 -22 0
c-13 0 -31 -5 -41 -11z"/>
<path d="M86645 35712 c22 -45 157 -232 167 -232 4 0 8 3 8 6 0 7 -132 190
-166 229 l-26 30 17 -33z"/>
<path d="M86440 35690 l0 -13 7 6 6 7 -6 7 -7 6 0 -13z"/>
<path d="M41769 35677 l13 -17 -5 -26 -5 -26 10 10 10 10 -4 28 -3 27 -15 5
-15 5 14 -16z"/>
<path d="M60946 35662 l-5 -8 156 -99 156 -100 46 -18 45 -18 -18 20 c-10 11
-28 23 -40 27 -11 4 -89 51 -173 105 -84 55 -155 99 -157 99 -3 0 -7 -4 -10
-8z"/>
<path d="M40325 35449 c-44 -10 -164 -33 -267 -51 l-188 -33 0 -12 0 -13 19 0
c17 0 367 63 504 91 l57 12 0 13 0 14 -22 -1 c-13 -1 -59 -10 -103 -20z"/>
<path d="M40419 35407 l-10 -22 10 -25 10 -25 -1 36 c-1 20 2 41 6 47 4 7 5
12 1 12 -3 0 -10 -10 -16 -23z"/>
<path d="M39363 35263 c9 -2 25 -2 35 0 l17 5 -35 0 -35 0 18 -5z"/>
<path d="M56036 34998 c13 -90 26 -183 30 -208 l7 -45 4 13 5 13 -28 194 -27
195 -7 0 -7 0 23 -162z"/>
<path d="M86720 35003 c-30 -6 -140 -72 -140 -84 0 -13 4 -12 70 27 l61 37 52
1 52 0 50 -34 50 -34 -16 24 -16 25 -43 22 -43 23 -26 -1 c-14 -1 -37 -4 -51
-6z"/>
<path d="M86950 34899 c0 -16 242 -399 252 -399 19 0 2 32 -114 216 -114 180
-138 212 -138 183z"/>
<path d="M59693 34589 c9 -13 48 -111 88 -218 40 -107 74 -190 76 -185 2 5
-32 101 -75 213 l-77 205 -13 4 -14 4 15 -23z"/>
<path d="M55858 34286 c-115 -18 -211 -36 -215 -39 l-6 -7 6 0 c21 0 472 71
476 75 9 10 -59 2 -261 -29z"/>
<path d="M82670 34149 c-107 -72 -187 -129 -178 -126 20 7 378 245 378 252 0
8 0 9 -200 -126z"/>
<path d="M54433 34081 c-105 -14 -195 -29 -199 -33 l-6 -7 33 5 c19 3 116 15
217 28 101 13 186 27 189 30 l6 6 -24 -1 c-13 -1 -110 -13 -216 -28z"/>
<path d="M65590 34043 c0 -9 329 -213 373 -231 l27 -12 0 9 c0 5 -13 13 -28
19 -16 5 -100 54 -188 109 -87 55 -165 103 -171 107 l-13 7 0 -8z"/>
<path d="M77830 34018 c0 -13 -5 -66 -10 -118 -5 -52 -11 -214 -14 -360 -4
-146 -9 -298 -12 -337 l-6 -73 10 0 9 0 7 243 c7 258 21 541 32 620 l6 47 -11
0 -11 0 0 -22z"/>
<path d="M77867 33923 c-4 -65 -10 -174 -13 -243 l-7 -125 6 5 c3 3 11 93 16
200 6 107 13 214 16 238 l5 42 -9 0 -8 0 -6 -117z"/>
<path d="M83946 33295 c-258 -162 -575 -376 -576 -387 0 -18 26 -3 167 94 81
56 261 173 398 260 138 87 252 163 253 168 l4 10 -9 0 c-4 0 -111 -65 -237
-145z"/>
<path d="M64595 33220 l-6 -9 23 -14 c13 -8 160 -93 328 -190 168 -96 332
-190 365 -210 l60 -36 9 10 c5 5 8 10 5 12 -2 2 -164 95 -359 207 -195 111
-367 211 -382 221 -30 22 -35 23 -43 9z"/>
<path d="M83080 32963 c-107 -74 -194 -137 -192 -139 1 -2 5 -5 8 -6 9 -2 403
266 404 275 1 19 -39 -4 -220 -130z"/>
<path d="M77725 32819 c-82 -10 -153 -18 -157 -18 -5 -1 -8 -8 -8 -16 0 -18
-17 -19 180 5 91 11 195 20 233 20 l67 0 0 15 0 15 -82 -1 c-46 -1 -150 -10
-233 -20z"/>
<path d="M79405 32692 l-6 -6 183 -73 c101 -40 190 -72 198 -73 l14 0 -9 9
c-14 13 -197 89 -292 121 l-81 28 -7 -6z"/>
<path d="M34300 32510 c0 -6 7 -25 17 -43 l16 -32 4 12 4 12 -16 30 c-16 32
-25 39 -25 21z"/>
<path d="M72991 32338 c0 -7 4 -22 9 -33 l9 -20 0 27 1 27 -10 6 -10 6 1 -13z"/>
<path d="M41858 31901 c-191 -184 -345 -337 -343 -340 4 -4 141 126 535 507
91 88 163 162 160 164 -3 3 -161 -146 -352 -331z"/>
<path d="M73603 32107 l-213 -31 0 -14 0 -14 28 6 c15 3 118 17 230 33 l202
27 0 13 0 13 -17 -1 c-10 -1 -114 -15 -230 -32z"/>
<path d="M70786 31837 l49 -34 10 9 10 9 -30 25 -30 24 -29 0 -28 0 48 -33z"/>
<path d="M53280 31824 c-36 -20 -122 -72 -192 -116 l-128 -80 0 -13 c0 -6 3
-14 6 -17 l6 -6 136 87 c75 48 165 102 199 120 l62 33 -6 14 c-7 19 -9 19 -83
-22z"/>
<path d="M31695 31120 l16 -31 9 6 9 6 -11 24 -11 25 -14 0 -14 0 16 -30z"/>
<path d="M31721 31054 l1 -19 5 13 5 13 -6 6 -6 6 1 -19z"/>
<path d="M31415 30887 c-94 -57 -377 -217 -630 -357 -253 -139 -590 -325 -750
-413 l-290 -160 -265 -165 c-364 -226 -360 -223 -360 -232 0 -5 4 -11 9 -14
l8 -5 46 29 c392 249 688 419 1637 945 250 138 529 296 619 351 l164 100 -1 9
c-1 22 -26 10 -187 -88z"/>
<path d="M79430 30252 c-19 -15 -97 -78 -172 -140 l-138 -113 0 -15 c0 -8 2
-14 5 -14 3 0 72 55 153 123 82 67 162 132 178 143 l29 22 -10 10 -10 10 -35
-26z"/>
<path d="M5040 29207 l0 -14 203 -27 c111 -15 210 -30 220 -32 l17 -5 0 15 0
16 -8 0 c-14 0 -375 50 -404 56 l-28 6 0 -15z"/>
<path d="M84005 29020 l-7 -11 19 -21 c10 -11 80 -79 155 -150 l138 -130 6 16
6 16 -147 142 c-81 79 -151 144 -155 146 -5 2 -11 -2 -15 -8z"/>
<path d="M84560 28772 c0 -5 75 -82 166 -171 l166 -161 8 5 8 5 -165 163 c-90
89 -169 164 -174 165 l-9 4 0 -10z"/>
<path d="M15805 27680 c-4 -6 -5 -12 -4 -14 5 -3 639 -92 1574 -221 418 -58
770 -107 783 -110 l22 -5 0 15 0 15 -10 0 c-6 0 -349 47 -763 105 -413 58
-930 130 -1147 160 -217 31 -407 58 -422 61 l-26 5 -7 -11z"/>
<path d="M17215 27388 c-6 -17 -64 -267 -185 -803 -53 -236 -144 -631 -200
-877 l-104 -448 7 -6 c4 -4 9 -5 12 -2 3 2 50 200 104 439 55 239 125 547 157
684 31 138 96 424 144 638 l86 387 -8 0 c-5 0 -11 -6 -13 -12z"/>
<path d="M17720 27360 l0 -10 23 -5 c12 -2 92 -14 177 -25 85 -12 232 -34 325
-49 94 -16 419 -64 723 -106 l553 -77 6 6 6 6 -6 6 c-6 6 -55 13 -742 109
-220 31 -464 67 -541 81 -122 21 -489 74 -515 74 -5 0 -9 -4 -9 -10z"/>
<path d="M19990 27031 l0 -9 38 -6 c20 -4 298 -42 617 -86 l580 -80 55 -15
c65 -17 70 -18 70 -6 l0 9 -52 17 -53 16 -608 84 c-335 47 -617 85 -628 85
l-19 0 0 -9z"/>
<path d="M94822 26725 c-101 -73 -186 -136 -189 -139 l-6 -6 9 0 c8 0 361 254
380 273 l7 7 -9 0 c-5 -1 -91 -61 -192 -135z"/>
<path d="M24715 25988 c-3 -7 -27 -80 -55 -162 l-50 -149 -40 -62 -40 -62 -44
-129 c-24 -71 -56 -154 -71 -184 -15 -30 -47 -99 -70 -152 l-42 -97 14 -5 14
-6 6 18 c24 67 48 123 86 199 l44 88 43 130 43 130 40 59 39 58 54 161 c30 89
54 165 54 169 0 13 -20 9 -25 -4z"/>
<path d="M78486 25902 c-3 -3 -6 -8 -6 -12 0 -4 92 -51 205 -105 l205 -98 7 6
7 7 -10 10 c-5 5 -98 51 -206 103 l-197 95 -5 -6z"/>
<path d="M455 25598 c-9 -29 -65 -452 -60 -456 11 -11 16 14 48 236 l34 232
-9 0 c-5 0 -10 -6 -13 -12z"/>
<path d="M90490 24839 c47 -5 150 -18 230 -30 l145 -20 119 -35 118 -35 120
-50 c66 -27 125 -48 130 -47 l10 4 -136 58 -136 57 -102 29 -101 30 -133 20
-134 20 -107 5 -108 4 85 -10z"/>
<path d="M23046 22478 l-23 -53 -42 -161 c-22 -88 -41 -166 -41 -173 l0 -13
12 4 12 4 42 165 c23 90 51 185 63 212 25 57 25 61 12 65 l-11 4 -24 -54z"/>
<path d="M87081 20482 c6 -17 291 -320 303 -321 11 -1 -37 53 -182 204 -69 72
-123 124 -121 117z"/>
<path d="M94769 18301 c-152 -96 -253 -170 -246 -178 3 -2 27 13 54 34 27 21
115 80 196 132 81 51 147 94 147 97 0 10 -23 -3 -151 -85z"/>
<path d="M93775 17635 c-170 -124 -437 -316 -592 -427 -155 -112 -283 -207
-283 -212 l0 -8 13 9 c6 6 271 196 587 423 316 227 582 419 590 426 l14 14 -9
-1 c-6 0 -149 -101 -320 -224z"/>
<path d="M95650 17752 c0 -5 71 -69 158 -144 86 -75 166 -145 176 -157 11 -11
23 -21 28 -21 l10 0 -4 9 c-5 14 -368 322 -368 313z"/>
<path d="M92930 16992 c0 -5 74 -75 165 -156 91 -80 165 -143 165 -138 0 5
-74 75 -165 156 -91 80 -165 143 -165 138z"/>
<path d="M92371 16559 c-89 -67 -160 -124 -157 -126 2 -2 78 50 168 118 188
140 174 129 161 129 -5 0 -82 -55 -172 -121z"/>
<path d="M91856 16622 l-5 -8 164 -164 164 -164 6 15 6 16 -156 154 c-86 85
-160 155 -165 157 -4 2 -11 -1 -14 -6z"/>
<path d="M91806 16363 c-3 -4 -6 -10 -6 -14 0 -5 79 -79 176 -165 l175 -157
10 10 10 10 -27 22 c-15 12 -96 84 -179 160 l-153 140 -6 -6z"/>
<path d="M2630 14799 l1 -14 101 -33 102 -33 129 -65 c186 -94 260 -140 376
-232 56 -45 104 -82 107 -82 19 0 -10 30 -94 98 l-97 79 -99 57 c-55 32 -144
80 -200 108 l-101 51 -95 32 c-52 18 -103 36 -112 40 l-18 7 0 -13z"/>
<path d="M26230 10098 c1 -39 128 -889 133 -895 4 -3 9 -4 12 -1 3 3 -23 207
-58 453 l-63 449 -12 4 -12 4 0 -14z"/>
<path d="M26350 9643 c0 -25 191 -1337 195 -1341 2 -2 8 -2 12 -1 l9 4 -91
630 c-51 347 -95 651 -99 678 l-7 47 -10 0 -9 0 0 -17z"/>
<path d="M26616 7831 l-6 -10 27 -215 27 -216 13 0 13 0 -5 38 c-3 20 -16 119
-29 220 -13 101 -26 186 -29 188 -3 3 -8 1 -11 -5z"/>
<path d="M26730 6906 c0 -13 21 -174 46 -357 l45 -334 -6 -110 -7 -110 14 13
13 13 3 112 4 112 -41 305 c-23 168 -44 322 -47 343 l-6 37 -9 0 -9 0 0 -24z"/>
<path d="M26387 5480 c-144 -149 -170 -180 -149 -180 4 0 79 72 167 160 l159
160 -10 10 -11 11 -156 -161z"/>
<path d="M24968 4342 c-133 -162 -149 -184 -131 -189 l8 -2 140 171 c77 94
142 175 143 180 l4 8 -14 0 -13 0 -137 -168z"/>
<path d="M24872 4078 l5 -13 86 -38 86 -38 83 -14 82 -15 9 9 9 9 -74 11 -73
12 -55 21 c-30 12 -77 32 -104 45 -58 27 -59 27 -54 11z"/>
<path d="M24450 3686 l-95 -131 -134 -225 c-73 -124 -136 -233 -139 -242 l-4
-18 9 0 9 0 141 238 142 237 91 125 c91 126 96 135 83 143 l-8 5 -95 -132z"/>
<path d="M23765 2510 c-63 -93 -118 -176 -121 -185 l-6 -15 10 0 11 0 114 168
c62 92 117 172 121 179 l6 12 -9 5 -10 6 -116 -170z"/>
<path d="M8915 1841 l-5 -10 42 -5 c24 -3 113 -10 198 -16 85 -6 172 -13 193
-15 l37 -5 0 15 0 15 -27 0 c-16 0 -109 7 -208 15 -99 8 -190 15 -202 15 l-22
0 -6 -9z"/>
<path d="M8990 1780 c0 -5 3 -10 8 -10 4 0 105 -7 225 -16 l218 -16 6 6 6 6
-7 7 -6 7 -173 12 c-94 7 -196 13 -224 13 l-53 1 0 -10z"/>
<path d="M9910 1716 l0 -16 33 0 c17 0 115 -7 217 -15 102 -8 191 -15 198 -15
l12 0 0 13 0 13 -197 13 c-109 7 -213 15 -230 18 l-33 5 0 -16z"/>
<path d="M22783 1627 c-184 -83 -227 -107 -190 -107 6 0 99 39 205 87 l192 87
0 13 c0 7 -1 13 -2 13 -2 0 -94 -42 -205 -93z"/>
<path d="M7365 1679 c-71 -16 -172 -41 -222 -56 l-93 -28 0 -12 c0 -16 -8 -18
101 16 52 16 153 41 224 56 72 15 132 29 134 31 3 3 0 8 -5 13 l-9 8 -130 -28z"/>
<path d="M10790 1701 l0 -10 43 -5 c23 -3 127 -11 230 -17 l188 -11 6 6 6 6
-6 6 c-6 6 -347 33 -429 34 l-38 0 0 -9z"/>
<path d="M7408 1637 l-218 -50 0 -12 0 -13 43 10 c163 36 392 90 395 93 2 2 2
8 1 13 l-4 8 -217 -49z"/>
<path d="M22145 1394 l-400 -183 -3 -16 -3 -15 88 41 c48 22 232 106 408 187
176 80 322 147 324 149 3 2 0 7 -5 12 l-9 9 -400 -184z"/>
<path d="M6513 1322 l-92 -57 -90 -79 c-90 -78 -97 -86 -85 -99 l7 -7 86 79
86 78 102 63 103 62 -6 9 c-8 14 -12 12 -111 -49z"/>
<path d="M16770 1257 l0 -14 93 -6 c50 -4 152 -10 225 -13 l132 -7 0 10 0 11
-72 6 c-40 3 -122 8 -183 11 -60 3 -129 8 -152 11 l-43 5 0 -14z"/>
<path d="M18590 1127 l0 -13 198 -13 c108 -6 209 -14 225 -17 l27 -6 0 16 0
16 -27 0 c-16 0 -111 7 -213 15 -102 8 -191 15 -197 15 l-13 0 0 -13z"/>
<path d="M18130 1117 l0 -13 451 -38 450 -38 6 6 6 6 -6 7 c-5 4 -828 80 -899
83 -5 0 -8 -6 -8 -13z"/>
<path d="M5716 518 l-327 -321 11 -11 10 -10 326 325 326 326 -9 6 -9 6 -328
-321z"/>
<path d="M5565 439 c-181 -177 -330 -325 -330 -330 0 -5 5 -8 10 -8 6 1 159
146 342 322 l332 320 -5 9 c-3 4 -8 8 -12 7 -4 0 -155 -144 -337 -320z"/>
</g>
</svg>
