<?xml version="1.0" standalone="no"?>
<!DOCTYPE svg PUBLIC "-//W3C//DTD SVG 20010904//EN"
 "http://www.w3.org/TR/2001/REC-SVG-20010904/DTD/svg10.dtd">
<svg version="1.0" xmlns="http://www.w3.org/2000/svg"
 width="7500.000000pt" height="7500.000000pt" viewBox="0 0 7500.000000 7500.000000"
 preserveAspectRatio="xMidYMid meet">
<metadata>
Created by potrace 1.16, written by Peter Selinger 2001-2019
</metadata>
<g transform="translate(0.000000,7500.000000) scale(0.075000,-0.075000)"
fill="#000000" stroke="none">
<path d="M89440 99773 c0 -10 421 -175 428 -168 11 11 -18 25 -208 99 -192 75
-220 83 -220 69z"/>
<path d="M82490 99525 c0 -3 57 -34 128 -69 70 -35 181 -94 247 -131 66 -37
215 -119 330 -182 116 -64 249 -140 298 -169 l87 -54 76 -30 75 -30 67 -9 c37
-5 114 -12 172 -16 58 -3 124 -8 148 -11 l42 -5 0 10 0 11 -56 0 c-80 0 -291
19 -344 31 -69 15 -167 58 -250 109 -71 44 -319 182 -605 337 -161 88 -415
215 -415 208z"/>
<path d="M84489 98806 c-2 -3 -77 -6 -167 -8 l-162 -3 0 -8 0 -9 187 8 188 7
25 8 25 7 -46 1 c-25 1 -48 -1 -50 -3z"/>
<path d="M85526 97980 l-108 -18 -62 -23 c-69 -25 -116 -50 -116 -61 l0 -8 38
20 c20 10 62 28 92 39 l55 21 112 17 113 18 0 7 c0 5 -3 7 -7 7 -5 -1 -57 -9
-117 -19z"/>
<path d="M89040 97101 c0 -3 69 -21 153 -40 83 -19 187 -42 230 -51 l77 -18 0
7 c0 3 -69 21 -153 40 -83 19 -187 42 -229 51 l-78 18 0 -7z"/>
<path d="M28996 96731 l-6 -9 180 -137 181 -136 11 3 12 4 -163 125 c-90 68
-174 132 -186 142 l-23 18 -6 -10z"/>
<path d="M88240 96294 l0 -9 200 -76 200 -76 5 6 4 7 -187 71 c-103 39 -195
75 -204 78 l-18 7 0 -8z"/>
<path d="M98145 94579 c68 -32 761 -307 764 -303 2 2 2 6 0 7 -10 9 -765 307
-774 306 -5 0 -1 -5 10 -10z"/>
<path d="M98100 94558 c9 -11 354 -148 363 -145 5 1 -67 33 -160 69 -190 76
-210 83 -203 76z"/>
<path d="M5459 93103 c-14 -120 -24 -220 -22 -222 8 -11 13 19 35 222 l24 217
-6 0 -6 0 -25 -217z"/>
<path d="M21607 92767 l-5 -14 146 -42 c81 -22 284 -81 452 -130 l305 -89 4
10 c1 5 1 11 0 13 -2 1 -197 59 -434 128 -236 69 -437 128 -446 132 l-16 6 -6
-14z"/>
<path d="M86763 92763 l7 -6 7 6 6 7 -13 0 -13 0 6 -7z"/>
<path d="M86815 92733 c16 -17 226 -153 236 -153 12 0 68 62 69 74 l0 10 -33
-32 c-18 -18 -36 -32 -40 -32 -3 0 -52 30 -109 66 -56 36 -109 68 -117 71
l-16 6 10 -10z"/>
<path d="M33441 91983 l29 -98 0 -137 0 -138 10 0 10 0 0 140 0 140 -27 95
-27 95 -12 0 -12 0 29 -97z"/>
<path d="M56004 91738 c-20 -40 -48 -92 -61 -115 l-25 -43 21 0 21 0 55 110
c30 60 55 112 55 115 0 3 -7 5 -15 5 l-15 0 -36 -72z"/>
<path d="M53081 91709 c11 -98 28 -174 51 -228 25 -60 80 -151 91 -151 l8 0
-22 31 c-12 17 -35 58 -52 92 l-30 62 -18 105 c-10 58 -19 117 -19 133 l0 27
-8 0 -8 0 7 -71z"/>
<path d="M25240 91671 c8 -5 104 -32 213 -60 l199 -52 5 5 6 6 -14 4 c-37 13
-400 106 -411 106 l-13 -1 15 -8z"/>
<path d="M93570 91504 c0 -10 155 -147 199 -176 30 -21 182 -80 188 -75 2 3
-22 15 -54 27 -115 45 -157 74 -305 209 l-28 25 0 -10z"/>
<path d="M94991 91262 c-16 -21 -49 -74 -72 -117 l-43 -79 -9 27 -9 27 -7 -5
-8 -4 3 -53 2 -53 9 5 c19 11 53 60 87 127 19 40 49 87 66 106 30 35 38 57 21
57 -5 0 -23 -17 -40 -38z"/>
<path d="M93953 91207 l19 -15 74 -17 74 -16 18 5 c9 3 76 7 147 7 l130 2 -20
8 -20 8 -140 -6 -140 -5 -60 15 c-33 8 -69 18 -80 22 l-20 7 18 -15z"/>
<path d="M94680 91210 l0 -10 14 0 c8 0 18 5 21 10 l6 10 -20 0 -21 0 0 -10z"/>
<path d="M94776 91182 l-5 -8 19 -12 19 -12 6 10 6 10 -6 10 c-7 12 -32 13
-39 2z"/>
<path d="M60245 91102 c31 -32 349 -271 354 -266 2 2 2 6 0 7 -27 23 -348 265
-359 271 l-15 9 20 -21z"/>
<path d="M27401 91066 c9 -9 412 -127 421 -124 6 2 -82 32 -195 66 -186 56
-238 70 -226 58z"/>
<path d="M94520 91030 l0 -20 10 0 10 0 0 20 0 20 -10 0 -10 0 0 -20z"/>
<path d="M94870 90982 c0 -17 67 -127 87 -143 l18 -14 -20 30 c-10 17 -34 54
-52 84 -18 30 -33 50 -33 43z"/>
<path d="M94565 90960 l-6 -10 6 -10 c7 -12 32 -13 39 -2 l5 8 -19 12 -19 12
-6 -10z"/>
<path d="M94655 90901 l-5 -10 20 -3 21 -3 2 -10 2 -10 -90 -59 -90 -59 -33
-43 -32 -43 10 -6 11 -7 22 28 c12 15 27 33 32 40 6 6 51 39 100 71 50 33 98
70 108 81 l19 21 -7 10 -6 11 -39 0 -39 0 -6 -9z"/>
<path d="M94780 90882 c0 -4 15 -16 33 -27 17 -10 53 -37 80 -58 26 -22 49
-38 52 -36 6 7 -68 68 -122 102 l-43 27 0 -8z"/>
<path d="M28603 90753 l7 -6 7 6 6 7 -13 0 -13 0 6 -7z"/>
<path d="M28673 90733 l7 -6 7 6 6 7 -13 0 -13 0 6 -7z"/>
<path d="M28703 90723 l7 -6 7 6 6 7 -13 0 -13 0 6 -7z"/>
<path d="M28743 90713 l7 -6 7 6 6 7 -13 0 -13 0 6 -7z"/>
<path d="M28773 90703 l7 -6 7 6 6 7 -13 0 -13 0 6 -7z"/>
<path d="M28808 90693 l13 -5 6 6 6 6 -19 -1 -19 -1 13 -5z"/>
<path d="M95030 90644 c62 -69 61 -68 228 -140 l122 -52 0 7 c0 4 -37 22 -82
41 -46 18 -110 47 -142 63 l-60 29 -60 57 -61 56 55 -61z"/>
<path d="M53890 90685 c0 -2 51 -30 113 -61 61 -31 149 -78 193 -105 93 -56
127 -66 44 -14 -64 41 -350 188 -350 180z"/>
<path d="M93888 90055 l-177 -182 6 -7 c3 -3 9 -6 13 -6 4 0 85 81 180 181
l173 180 -9 9 -9 8 -177 -183z"/>
<path d="M31472 89885 c2 -3 87 -17 187 -31 l182 -27 12 13 12 13 -16 -6 -17
-6 -163 24 c-167 25 -206 29 -197 20z"/>
<path d="M85570 88990 l-175 -6 -255 -48 c-231 -43 -290 -56 -249 -56 8 0 139
23 291 50 l278 50 170 0 170 0 0 10 0 10 -27 -2 c-16 -1 -107 -5 -203 -8z"/>
<path d="M85460 88949 c-36 -5 -171 -27 -300 -49 l-235 -40 -315 -70 -315 -70
-105 -11 c-140 -13 -150 -20 -20 -13 l105 6 335 74 c184 41 441 92 570 115
l235 41 193 5 192 5 0 9 0 9 -137 -1 -138 -1 -65 -9z"/>
<path d="M84325 88773 c-38 -7 -110 -20 -160 -28 l-90 -14 75 5 75 5 115 23
115 24 -30 0 c-16 0 -61 -7 -100 -15z"/>
<path d="M78502 88609 l4 -14 224 -78 c194 -67 248 -82 229 -62 -3 2 -99 38
-215 78 -115 41 -217 78 -228 82 l-19 8 5 -14z"/>
<path d="M89150 88412 c0 -8 237 -82 263 -82 l17 0 48 -42 c26 -23 60 -54 76
-68 l29 -25 -4 12 c-2 7 -35 39 -74 72 l-70 61 -35 6 c-30 5 -85 21 -222 64
l-28 9 0 -7z"/>
<path d="M89554 88155 c3 -11 24 -103 46 -204 36 -166 50 -217 50 -183 0 7
-19 96 -41 199 l-41 188 -10 10 -10 10 6 -20z"/>
<path d="M15976 87890 c6 -6 95 -62 199 -125 l188 -114 9 5 c5 3 8 7 6 9 -19
17 -390 235 -399 235 l-13 0 10 -10z"/>
<path d="M79356 87803 c-3 -15 -22 -122 -41 -237 l-36 -208 5 -6 c3 -3 8 -3
10 -1 3 2 22 108 44 234 l40 230 -8 8 -8 9 -6 -29z"/>
<path d="M75117 87744 l-6 -11 90 -184 c96 -196 96 -195 104 -187 3 3 -36 92
-88 199 l-93 194 -7 -11z"/>
<path d="M44650 87432 c0 -14 63 -67 120 -102 l55 -33 114 -38 c63 -22 117
-37 119 -34 8 8 2 11 -103 45 l-100 32 -53 30 c-29 16 -75 47 -102 69 -28 22
-50 36 -50 31z"/>
<path d="M84433 87263 c-39 -76 -99 -203 -133 -283 -35 -80 -66 -149 -70 -153
l-7 -8 -257 71 c-241 66 -286 76 -275 66 3 -3 122 -37 264 -76 143 -39 265
-72 271 -74 l11 -4 73 166 c73 168 184 396 202 420 l10 12 -9 0 -10 0 -70
-137z"/>
<path d="M84541 87385 c-1 -5 -33 -71 -72 -145 -39 -74 -103 -207 -143 -295
l-72 -160 -19 -3 -20 -2 -267 73 c-148 41 -268 71 -268 67 0 -3 129 -41 286
-84 l287 -78 8 14 c5 7 39 81 75 163 37 83 100 214 141 292 l75 143 -5 12 -5
13 -1 -10z"/>
<path d="M83641 86900 l-11 -52 7 -11 7 -12 13 55 12 55 -8 8 -9 9 -11 -52z"/>
<path d="M83555 86763 c-9 -43 -34 -154 -56 -247 l-39 -170 6 -5 5 -5 8 12 c4
7 29 111 55 230 26 119 50 227 53 240 l5 22 -10 0 -10 0 -17 -77z"/>
<path d="M80445 85783 c13 -12 385 -147 391 -141 3 4 -289 114 -386 146 l-15
5 10 -10z"/>
<path d="M82523 84284 l-38 -77 -57 -58 -57 -58 8 -6 9 -5 51 46 50 45 40 72
c21 40 42 82 46 95 l6 22 -10 0 -10 0 -38 -76z"/>
<path d="M11056 84231 c5 -5 99 -37 209 -71 110 -35 206 -65 214 -68 l14 -5
-5 13 -4 12 -204 64 c-113 35 -212 64 -219 64 l-15 0 10 -9z"/>
<path d="M80951 84216 c9 -10 429 -154 429 -147 0 5 -216 81 -420 149 l-15 5
6 -7z"/>
<path d="M78665 84158 c-4 -13 -37 -105 -72 -206 l-65 -183 6 -6 6 -6 6 6 c6
6 144 397 144 410 0 4 -4 7 -9 7 l-10 0 -6 -22z"/>
<path d="M82139 83602 c-35 -80 -65 -149 -67 -154 l-4 -8 14 0 13 0 66 149 66
150 -11 4 -12 5 -65 -146z"/>
<path d="M13750 83592 l0 -9 88 -11 c48 -6 151 -14 230 -18 l142 -7 0 9 0 10
-192 12 c-106 7 -210 16 -230 19 l-38 5 0 -10z"/>
<path d="M77031 83329 c-67 -106 -119 -194 -116 -197 6 -7 -7 -26 123 178 106
168 130 210 119 210 -3 0 -59 -86 -126 -191z"/>
<path d="M83242 83479 c2 -7 10 -15 17 -17 l14 -4 -5 13 c-2 7 -10 15 -17 17
l-13 5 4 -14z"/>
<path d="M83230 83422 c0 -9 73 -73 128 -111 l32 -22 68 -20 67 -20 60 6 c33
3 77 11 98 17 l37 11 0 10 0 9 -27 -6 c-16 -4 -57 -10 -92 -15 l-64 -9 -67 17
-68 18 -33 23 c-19 13 -55 41 -80 62 -48 39 -59 44 -59 30z"/>
<path d="M82105 83411 l-5 -10 11 -25 12 -25 34 -12 34 -11 30 13 31 12 9 25
10 25 -10 10 -10 10 -10 -26 -10 -25 -21 -7 -21 -7 -24 6 -23 6 -6 25 -6 25
-10 0 c-5 0 -11 -4 -15 -9z"/>
<path d="M40930 83209 c-7 -24 -18 -73 -26 -109 l-14 -65 0 -70 c0 -38 3 -87
6 -107 l7 -38 14 0 14 0 -8 38 -8 37 2 80 3 80 20 89 21 89 -10 10 -10 10 -11
-44z"/>
<path d="M92781 82745 c-67 -98 -120 -179 -118 -182 3 -2 60 75 127 172 67 97
120 179 117 181 -3 3 -60 -74 -126 -171z"/>
<path d="M92502 82418 c-63 -88 -112 -162 -109 -164 6 -6 229 306 225 316 -2
4 -54 -65 -116 -152z"/>
<path d="M17570 82242 l0 -9 220 -58 221 -58 6 7 c4 3 4 8 2 10 -6 6 -421 116
-437 116 -7 0 -12 -4 -12 -8z"/>
<path d="M96729 82077 l-127 -72 -47 -53 c-26 -29 -45 -55 -42 -58 3 -3 24 18
48 46 l44 50 127 71 c70 38 130 74 133 79 l6 10 -8 -1 c-4 0 -65 -33 -134 -72z"/>
<path d="M23930 82087 c276 -167 750 -431 750 -419 0 4 -60 39 -132 77 -72 39
-248 139 -391 223 -143 83 -265 152 -271 152 -6 0 14 -15 44 -33z"/>
<path d="M85160 81606 c0 -2 15 -36 34 -77 l34 -74 29 -26 c15 -14 65 -52 111
-83 l83 -58 6 6 c8 7 14 3 -82 66 -44 29 -91 62 -104 74 l-23 21 -39 78 c-33
66 -49 89 -49 73z"/>
<path d="M96121 81363 c-72 -98 -220 -304 -328 -458 -109 -154 -271 -383 -361
-509 -89 -125 -159 -226 -153 -225 9 4 383 521 613 849 60 85 167 235 239 333
72 98 129 180 126 183 -3 3 -64 -75 -136 -173z"/>
<path d="M95968 81083 c-35 -49 -92 -128 -127 -176 l-64 -88 7 -6 c3 -3 8 -4
9 -2 25 30 240 334 244 345 11 30 -7 11 -69 -73z"/>
<path d="M80396 80635 l-6 -124 19 -88 c11 -49 24 -100 30 -115 l11 -28 10 0
c13 0 13 -1 -6 51 -8 24 -22 77 -30 117 l-14 73 7 119 6 120 -10 0 -10 0 -7
-125z"/>
<path d="M95492 80408 c-109 -149 -174 -241 -179 -256 l-6 -17 20 25 c24 30
197 270 207 288 18 31 -7 7 -42 -40z"/>
<path d="M7146 80422 l-5 -8 87 -67 c48 -36 116 -84 150 -107 35 -22 163 -113
285 -201 122 -89 228 -164 235 -167 l15 -5 -5 14 -5 14 -244 178 c-134 97
-264 189 -288 204 -24 14 -81 54 -127 89 -86 67 -90 69 -98 56z"/>
<path d="M73395 80348 c-60 -28 -148 -65 -195 -83 l-84 -33 -4 -11 -4 -11 69
26 c104 39 343 148 343 157 0 12 -10 8 -125 -45z"/>
<path d="M98270 80362 c19 -11 116 -54 215 -97 l180 -78 50 -32 c28 -18 105
-60 170 -93 66 -34 128 -67 139 -75 l19 -14 -82 -188 c-45 -103 -80 -189 -78
-191 2 -2 41 82 87 186 l83 190 8 0 8 0 -6 15 c-3 9 -8 14 -10 11 -7 -7 -212
96 -298 150 l-70 43 -204 90 c-112 50 -214 93 -225 96 l-21 6 35 -19z"/>
<path d="M95280 80130 l0 -9 169 -121 c162 -116 187 -131 179 -111 -3 9 -335
251 -344 251 -2 0 -4 -4 -4 -10z"/>
<path d="M95250 80091 c0 -5 77 -66 172 -135 l171 -125 9 5 c5 3 8 7 6 9 -25
20 -349 255 -353 255 -3 0 -5 -4 -5 -9z"/>
<path d="M72717 80053 l-5 -8 85 -120 c46 -66 88 -126 92 -134 l8 -14 12 4 11
4 -91 130 c-50 72 -95 134 -99 138 l-8 9 -5 -9z"/>
<path d="M95960 79571 c0 -5 79 -65 176 -135 l176 -127 -4 15 -3 15 -167 120
c-92 67 -169 121 -172 121 -3 0 -6 -4 -6 -9z"/>
<path d="M80897 79503 l-7 -10 87 -209 c47 -115 90 -213 94 -218 l9 -10 5 6 6
6 -86 208 c-48 115 -90 215 -95 223 l-7 14 -6 -10z"/>
<path d="M77541 78978 c29 -46 81 -125 116 -175 l64 -93 10 0 11 0 -46 63
c-25 34 -78 113 -117 175 -39 61 -75 112 -80 112 l-9 0 51 -82z"/>
<path d="M13206 78723 c-3 -21 -8 -63 -12 -93 -8 -70 -39 -221 -58 -282 l-14
-48 7 0 8 0 21 78 c22 81 46 215 57 320 7 67 0 86 -9 25z"/>
<path d="M70083 78232 c-90 -20 -163 -38 -163 -42 l0 -7 186 40 186 40 44 -16
44 -16 0 8 c0 11 -72 31 -106 30 -16 -1 -102 -17 -191 -37z"/>
<path d="M98715 78220 l-6 -10 23 -9 c105 -41 403 -171 587 -258 l223 -104 6
5 c3 3 3 8 1 11 -12 11 -433 205 -614 282 -110 47 -203 87 -207 89 -4 2 -9 0
-13 -6z"/>
<path d="M99980 77640 c0 -5 5 -10 10 -10 6 0 10 5 10 10 0 6 -4 10 -10 10 -5
0 -10 -4 -10 -10z"/>
<path d="M46040 77383 l-1 -158 -8 -40 c-5 -22 -12 -55 -16 -72 l-7 -33 10 0
10 0 12 43 12 42 5 188 5 187 -11 0 -11 0 0 -157z"/>
<path d="M30242 75408 l-2 -46 -25 -108 c-14 -59 -24 -114 -23 -123 l3 -16 28
121 28 122 -4 48 -3 49 -2 -47z"/>
<path d="M30194 75407 l7 -36 -26 -112 c-14 -61 -24 -114 -21 -116 3 -3 7 5
11 18 3 13 14 62 25 109 11 47 20 102 20 122 l0 37 -11 7 -12 7 7 -36z"/>
<path d="M34167 73964 l-7 -8 122 -125 123 -126 40 -22 c43 -24 55 -27 55 -15
0 4 -17 16 -37 27 l-38 20 -125 128 -125 129 -8 -8z"/>
<path d="M73570 72977 l-25 -12 -32 -60 c-18 -33 -37 -73 -43 -89 l-10 -30 7
8 c5 4 26 42 48 84 l40 77 29 14 30 14 94 -23 c51 -12 95 -20 98 -17 6 6 -158
47 -188 47 -13 0 -34 -6 -48 -13z"/>
<path d="M28670 70463 c0 -12 107 -78 175 -109 77 -34 181 -64 220 -63 l30 0
-85 23 c-100 28 -218 77 -275 116 -22 14 -46 30 -52 34 l-13 7 0 -8z"/>
<path d="M24813 69739 l-53 -40 0 -77 c0 -42 -4 -94 -9 -114 l-9 -38 8 0 8 0
10 58 10 57 -5 55 -5 55 52 35 c28 18 54 38 56 42 l5 8 -8 0 c-4 0 -32 -18
-60 -41z"/>
<path d="M50236 69662 l-6 -9 20 -18 20 -18 7 7 7 7 -10 16 c-6 9 -15 18 -21
20 l-11 4 -6 -9z"/>
<path d="M74730 69407 l-15 -14 -200 -47 c-183 -43 -256 -64 -230 -65 16 -1
455 106 461 112 4 3 4 11 2 17 l-3 11 -15 -14z"/>
<path d="M21891 69259 c-195 -10 -356 -21 -359 -24 -3 -3 -3 -7 -1 -10 3 -2
209 5 457 17 l452 22 0 8 0 8 -97 -1 c-54 -1 -257 -10 -452 -20z"/>
<path d="M36220 69123 l0 -8 198 -29 c108 -15 208 -30 222 -33 l25 -6 -10 10
-10 10 -190 27 c-104 15 -200 29 -212 31 l-23 5 0 -7z"/>
<path d="M71030 68486 c-201 -51 -378 -96 -394 -100 -15 -4 -26 -9 -23 -12 2
-3 185 40 406 96 l401 100 43 0 43 0 22 -16 c26 -18 30 -7 5 12 l-18 13 -60 0
-60 -1 -365 -92z"/>
<path d="M71295 68510 c-208 -48 -218 -50 -213 -56 3 -2 84 14 181 36 190 43
217 46 250 28 l22 -11 -13 15 -13 16 -27 4 -27 4 -160 -36z"/>
<path d="M36701 68045 l-63 -154 4 -11 3 -11 54 133 c30 73 61 148 68 166 l13
32 -8 0 -8 0 -63 -155z"/>
<path d="M41301 67718 l-71 -203 0 -28 0 -28 10 6 10 6 0 22 c0 12 31 110 69
217 l70 195 -8 8 -8 8 -72 -203z"/>
<path d="M41417 67878 c-35 -93 -129 -363 -133 -386 l-6 -30 11 -6 11 -7 0 21
c0 11 32 109 70 216 39 108 70 198 70 200 0 10 -18 3 -23 -8z"/>
<path d="M44111 67365 l24 -24 3 10 c5 14 -18 39 -35 39 l-15 0 23 -25z"/>
<path d="M46250 67243 c1 -10 440 -246 446 -240 3 3 -68 44 -158 92 -90 48
-191 103 -225 122 l-63 35 0 -9z"/>
<path d="M49422 67240 l27 -8 123 -88 c68 -48 138 -99 156 -112 l32 -24 0 8
c0 5 -72 60 -159 122 l-158 112 -24 -1 -24 -1 27 -8z"/>
<path d="M45498 66777 l-87 -122 -176 -289 c-96 -159 -174 -291 -171 -293 4
-5 25 29 231 367 75 124 172 272 214 330 42 58 80 111 85 118 l7 12 -8 0 c-4
-1 -47 -56 -95 -123z"/>
<path d="M41590 66266 c0 -4 72 -54 161 -112 l160 -105 11 3 11 4 -157 103
c-87 56 -164 105 -172 108 l-14 5 0 -6z"/>
<path d="M97462 66128 c3 -13 22 -107 44 -210 l39 -188 7 0 c13 0 10 20 -32
220 -22 105 -40 193 -40 196 0 2 -5 4 -11 4 l-11 0 4 -22z"/>
<path d="M96740 66073 c-123 -24 -226 -46 -228 -48 -2 -2 -1 -8 2 -13 l5 -9
236 46 236 46 0 10 c0 17 -19 15 -251 -32z"/>
<path d="M94503 66083 c2 -16 17 -111 33 -213 15 -102 29 -187 31 -189 2 -2 6
-2 9 2 l6 5 -33 211 -33 211 -9 0 -9 0 5 -27z"/>
<path d="M94460 66096 c0 -11 59 -366 66 -395 3 -13 7 -22 9 -19 6 5 -60 407
-68 415 l-7 6 0 -7z"/>
<path d="M41910 66008 l-12 -23 18 17 18 18 -6 6 -6 6 -12 -24z"/>
<path d="M52807 65954 l-6 -6 21 -42 22 -41 0 -95 -1 -95 -36 -83 c-39 -87
-43 -102 -28 -102 l8 0 37 88 36 87 9 50 9 49 -10 61 -11 60 -19 38 c-19 39
-21 41 -31 31z"/>
<path d="M83701 65663 c3 -27 12 -64 19 -83 l13 -35 48 -60 c26 -33 57 -82 70
-108 13 -26 27 -47 31 -47 l8 0 -26 53 c-15 28 -47 78 -72 110 l-45 59 -18 49
-19 49 0 30 0 30 -8 0 -8 0 7 -47z"/>
<path d="M46953 65513 c-134 -204 -286 -454 -280 -460 3 -2 53 76 113 174 59
98 150 240 201 316 l94 137 -9 0 -10 0 -109 -167z"/>
<path d="M31640 65481 l0 -20 43 -6 c70 -9 388 -45 402 -45 l13 0 5 20 5 20
-16 0 c-10 0 -114 11 -232 25 -117 14 -215 25 -217 25 -2 0 -3 -9 -3 -19z"/>
<path d="M48842 65393 c-131 -226 -214 -375 -210 -378 3 -3 50 77 226 387 18
32 31 58 28 58 -3 0 -23 -30 -44 -67z"/>
<path d="M36575 65380 c11 -5 98 -28 194 -50 l173 -40 72 2 71 1 -90 7 -90 8
-168 41 c-171 42 -198 47 -162 31z"/>
<path d="M96980 65011 c-305 -128 -435 -188 -477 -221 l-22 -17 6 -6 6 -6 26
18 c39 28 274 134 544 246 l237 98 0 9 c0 4 -3 8 -7 8 -5 -1 -145 -58 -313
-129z"/>
<path d="M3986 65048 c-9 -29 -20 -59 -23 -65 l-5 -13 14 0 13 0 19 53 c10 28
21 58 23 65 l5 12 -14 0 -14 0 -18 -52z"/>
<path d="M70497 64893 c58 -109 110 -202 116 -208 5 -5 -23 53 -64 130 -41 77
-90 170 -109 207 -19 38 -38 68 -42 68 -3 0 41 -89 99 -197z"/>
<path d="M33144 64977 c-74 -59 -195 -170 -190 -175 3 -2 46 32 95 76 50 45
103 89 118 99 l27 18 61 6 60 6 -65 1 -65 2 -41 -33z"/>
<path d="M31425 64906 c-22 -7 -94 -39 -160 -70 l-119 -58 -138 -136 c-76 -74
-138 -140 -138 -146 l0 -11 123 121 122 122 55 34 c30 19 102 56 160 84 l105
49 88 0 87 0 0 8 0 7 -37 0 c-21 0 -54 2 -73 5 l-35 5 -40 -14z"/>
<path d="M3937 64903 c-2 -5 -10 -25 -16 -45 l-12 -38 7 -11 7 -12 18 44 c10
24 18 50 18 57 l1 12 -9 0 c-6 0 -12 -3 -14 -7z"/>
<path d="M3861 64688 c-28 -89 -53 -189 -47 -195 11 -12 23 10 35 63 7 31 23
87 36 125 l24 69 -14 0 -13 0 -21 -62z"/>
<path d="M37066 64582 c-3 -3 -6 -11 -6 -18 l0 -13 39 -11 c21 -6 113 -19 202
-30 90 -11 176 -22 190 -24 l27 -5 5 19 5 19 -27 5 c-14 3 -103 14 -196 26
-94 11 -184 24 -202 29 l-31 9 -6 -6z"/>
<path d="M44651 64536 c3 -3 274 -101 476 -173 l18 -6 -10 10 c-12 12 -454
173 -475 173 -7 0 -11 -2 -9 -4z"/>
<path d="M1441 64511 l-13 -8 16 -6 15 -6 40 -78 c22 -43 52 -91 66 -107 l26
-28 6 5 5 6 -30 38 c-16 21 -46 70 -65 110 -20 39 -40 74 -45 77 l-8 5 -13 -8z"/>
<path d="M40695 64505 c30 -79 78 -230 90 -280 l15 -60 -6 53 -5 53 -41 117
c-22 64 -45 122 -51 127 l-10 10 8 -20z"/>
<path d="M34946 64343 c-16 -56 -76 -447 -76 -502 0 -43 11 9 25 119 9 69 27
186 40 260 21 122 26 172 11 123z"/>
<path d="M40606 64148 c-14 -18 -23 -34 -20 -37 4 -5 27 21 45 52 16 28 2 20
-25 -15z"/>
<path d="M89366 64018 c-63 -72 -58 -82 7 -13 l52 55 85 -100 c47 -55 89 -100
93 -100 10 0 -12 28 -103 133 l-65 76 -12 0 -11 1 -46 -52z"/>
<path d="M78465 64029 c-194 -26 -308 -38 -864 -89 l-204 -18 -26 16 c-14 9
-39 26 -54 39 l-29 23 -9 -5 -9 -6 33 -27 c17 -16 50 -36 73 -46 l41 -18 219
22 c120 12 284 28 364 35 80 8 279 31 443 51 l297 38 0 8 0 8 -32 -1 c-18 -1
-127 -14 -243 -30z"/>
<path d="M1892 63940 c2 -5 74 -72 161 -150 l158 -140 11 6 10 6 -23 23 c-87
82 -301 265 -310 265 l-11 0 4 -10z"/>
<path d="M76903 63824 c4 -60 11 -83 21 -73 2 2 2 34 -1 72 l-6 67 -10 0 -10
0 6 -66z"/>
<path d="M75780 63862 l0 -9 268 -33 267 -34 175 -1 175 0 68 8 67 9 0 10 0
10 -54 -6 c-30 -4 -143 -7 -252 -8 l-199 0 -241 31 c-133 17 -249 31 -258 31
l-16 0 0 -8z"/>
<path d="M70800 63750 l-194 -57 -3 -10 -4 -11 215 62 c118 34 218 65 222 69
l7 7 -24 -1 c-13 -1 -112 -27 -219 -59z"/>
<path d="M40323 63552 c15 -15 27 -32 26 -38 0 -5 -63 -63 -140 -129 -77 -66
-148 -129 -157 -140 l-17 -19 22 14 c35 24 312 264 312 272 1 11 -50 68 -62
68 l-11 0 27 -28z"/>
<path d="M16651 63491 l-14 -9 6 -129 c4 -70 9 -145 13 -165 l7 -38 8 0 9 0
-8 63 c-4 34 -7 113 -7 175 0 61 0 112 0 112 0 0 -6 -4 -14 -9z"/>
<path d="M47674 63482 c9 -15 346 -204 357 -200 5 2 -51 36 -124 75 -72 40
-156 87 -186 104 -29 17 -50 26 -47 21z"/>
<path d="M23633 63468 c-29 -38 -335 -697 -330 -711 l3 -10 63 139 c35 76 113
240 173 363 97 201 121 257 91 219z"/>
<path d="M38530 63459 c0 -2 -11 -85 -25 -183 -14 -99 -23 -181 -20 -184 6 -6
11 23 36 201 l21 158 -6 6 c-3 4 -6 4 -6 2z"/>
<path d="M41033 63357 c-34 -29 -62 -56 -62 -60 -1 -10 39 19 99 72 66 59 35
49 -37 -12z"/>
<path d="M16357 63315 l-17 -36 0 -39 0 -40 29 -32 29 -33 7 7 7 7 -26 31 -26
32 0 28 c0 15 7 44 15 63 17 42 18 47 7 47 -5 0 -16 -16 -25 -35z"/>
<path d="M36839 63319 c0 -8 -19 -149 -43 -314 -39 -275 -43 -316 -32 -304 2
2 22 143 46 312 l42 308 -6 6 -6 6 -1 -14z"/>
<path d="M95130 63179 c-102 -77 -184 -142 -182 -145 1 -2 4 -5 7 -6 2 -2 88
59 190 136 163 122 204 158 178 155 -5 0 -91 -63 -193 -140z"/>
<path d="M41575 63170 c3 -5 8 -10 11 -10 2 0 4 5 4 10 0 6 -5 10 -11 10 l-10
0 6 -10z"/>
<path d="M40800 63145 l-12 -15 13 -17 c11 -14 204 -233 276 -313 l13 -14 14
14 15 15 -154 172 -153 172 -12 -14z"/>
<path d="M41545 63140 c3 -5 11 -10 16 -10 l10 0 -6 10 c-3 6 -11 10 -16 10
l-10 0 6 -10z"/>
<path d="M16480 63125 l0 -15 235 0 235 0 0 15 0 15 -235 0 -235 0 0 -15z"/>
<path d="M81157 63104 l-6 -7 14 -28 15 -28 0 -55 0 -54 -32 -42 -33 -42 -293
-150 -294 -150 10 -10 9 -9 293 153 294 153 33 43 33 44 0 64 0 65 -15 29
c-17 32 -18 33 -28 24z"/>
<path d="M16660 63055 l0 -45 10 0 10 0 0 45 0 45 -10 0 -10 0 0 -45z"/>
<path d="M43845 63030 c-38 -9 -82 -22 -96 -28 l-27 -11 -228 -196 c-126 -108
-231 -202 -233 -208 l-4 -12 24 21 c13 11 119 102 234 200 l210 180 40 17 c22
9 73 24 113 33 39 8 72 17 72 20 0 7 -33 2 -105 -16z"/>
<path d="M15030 62995 c0 -16 5 -37 10 -45 l10 -15 0 30 c0 17 -5 37 -10 45
l-10 15 0 -30z"/>
<path d="M42225 63010 c16 -27 248 -285 258 -289 l12 -4 -26 29 c-14 16 -74
84 -133 152 -95 108 -131 144 -111 112z"/>
<path d="M43843 62987 l-83 -22 -80 -64 c-44 -36 -78 -67 -75 -69 3 -3 39 23
82 58 l76 63 96 24 c53 14 98 27 100 29 9 9 -38 1 -116 -19z"/>
<path d="M16664 62913 c3 -21 6 -75 6 -120 l0 -83 10 0 10 0 0 74 c0 40 -3 94
-6 120 l-7 46 -10 0 -10 0 7 -37z"/>
<path d="M59060 62932 c14 -2 216 -21 450 -41 l425 -37 10 5 10 6 -25 3 c-129
13 -851 72 -870 71 l-25 -2 25 -5z"/>
<path d="M17075 62905 c-154 -13 -291 -25 -305 -28 l-25 -4 35 -2 c19 0 148 8
285 20 138 12 333 24 435 28 l185 8 -165 0 -165 1 -280 -23z"/>
<path d="M58703 62906 c-18 -8 -125 -79 -239 -157 l-206 -141 -10 10 -10 10
171 117 c94 65 174 122 178 128 l6 10 -14 -8 c-8 -5 -97 -66 -199 -136 l-185
-127 -218 -176 c-120 -97 -214 -176 -209 -176 6 0 111 81 233 180 l223 180 11
-11 10 -10 -15 -9 c-8 -5 -12 -11 -10 -13 3 -2 84 -37 180 -77 96 -40 190 -79
208 -87 l34 -14 -6 9 c-3 5 -90 44 -193 87 -103 43 -190 80 -192 82 -3 2 0 7
5 12 l9 9 190 -79 c105 -43 194 -78 199 -76 5 2 -76 38 -180 81 -104 43 -190
79 -192 81 -5 4 364 254 416 281 l50 26 120 -11 c66 -6 131 -10 144 -10 l23 2
-45 7 c-25 4 -92 11 -150 14 l-105 6 -32 -14z"/>
<path d="M21345 62902 c6 -6 105 -40 220 -77 116 -37 213 -69 218 -72 4 -2 7
-1 7 4 l0 8 -213 69 c-116 38 -219 71 -227 74 l-15 5 10 -11z"/>
<path d="M16355 62890 c28 -5 105 -10 173 -12 l122 -3 0 6 c0 8 -174 19 -270
18 l-75 -1 50 -8z"/>
<path d="M11303 62756 l-171 -11 -9 -8 -8 -9 70 6 c39 3 149 11 245 17 96 6
177 13 179 15 6 6 -114 2 -306 -10z"/>
<path d="M16730 62717 c0 -4 20 -47 45 -96 l44 -89 72 -56 c39 -31 76 -56 82
-56 l11 0 -9 9 c-6 5 -39 33 -75 61 l-65 52 -42 80 c-23 44 -46 85 -52 91
l-11 11 0 -7z"/>
<path d="M42175 62474 c-104 -90 -192 -169 -194 -175 -2 -7 68 49 155 124 229
195 240 205 234 210 -3 2 -90 -69 -195 -159z"/>
<path d="M45634 62614 c3 -9 6 -17 6 -20 0 -2 14 -11 30 -19 l31 -16 9 6 c6 3
10 10 10 16 l0 9 -15 0 -15 0 -20 20 c-11 11 -25 20 -31 20 l-11 0 6 -16z"/>
<path d="M42192 62435 c-105 -91 -192 -168 -192 -171 0 -4 8 0 18 7 23 19 353
298 372 315 l14 14 -9 0 c-6 0 -97 -74 -203 -165z"/>
<path d="M50342 62344 c-57 -97 -101 -178 -99 -181 4 -3 166 262 214 350 2 4
1 7 -4 7 -4 0 -54 -79 -111 -176z"/>
<path d="M89022 62421 c2 -5 81 -75 176 -156 l174 -146 11 4 11 3 -180 152
c-98 84 -183 152 -187 152 l-9 0 4 -9z"/>
<path d="M89015 62351 c17 -16 97 -86 179 -155 l149 -125 9 5 c5 3 8 7 6 9
-120 105 -352 295 -361 295 l-12 0 30 -29z"/>
<path d="M48275 62032 c-49 -81 -95 -157 -103 -169 l-14 -23 8 0 c11 1 209
328 203 334 -2 3 -45 -61 -94 -142z"/>
<path d="M16017 62059 c-43 -9 -81 -20 -84 -23 l-6 -6 14 0 c8 0 39 7 69 15
l55 15 45 0 45 0 95 -21 c52 -11 113 -22 135 -25 l40 -4 -121 29 c-67 15 -141
30 -165 33 l-44 5 -78 -18z"/>
<path d="M42941 62024 c6 -17 499 -568 513 -573 l11 -4 -21 24 c-94 108 -453
510 -477 534 -16 17 -28 25 -26 19z"/>
<path d="M15701 61937 c-123 -33 -220 -62 -214 -64 14 -5 435 107 448 119 l9
8 -9 -1 c-6 0 -111 -28 -234 -62z"/>
<path d="M94255 61863 c-49 -60 -110 -129 -134 -156 l-44 -47 6 -7 7 -6 16 14
c25 20 254 293 254 302 0 20 -22 -2 -105 -100z"/>
<path d="M59851 61809 c-33 -39 -100 -128 -148 -197 -47 -70 -88 -129 -89
-131 -2 -2 -82 31 -180 73 -97 42 -179 74 -182 72 -2 -3 6 -10 19 -15 33 -13
333 -143 337 -146 2 -2 -4 -20 -13 -41 -9 -22 -31 -106 -50 -189 l-33 -150 -6
-85 -5 -85 8 15 c5 8 11 51 14 95 l6 80 26 115 c14 63 35 143 46 178 l21 62 9
0 10 0 -6 10 -6 10 92 133 c51 72 117 160 147 195 30 34 53 65 50 67 -3 3 -33
-27 -67 -66z"/>
<path d="M57320 61857 c0 -12 -123 -287 -168 -378 l-18 -35 4 -12 4 -12 9 6
10 6 182 -76 183 -76 36 0 c20 0 85 11 145 25 135 32 143 35 143 44 l0 8 -150
-35 -151 -36 -195 79 -195 79 6 24 c3 13 41 101 85 195 l79 172 11 3 10 4 221
-97 c122 -52 225 -95 230 -93 5 2 -89 45 -209 97 -119 52 -227 100 -239 107
-28 17 -33 17 -33 1z"/>
<path d="M58451 61848 c-5 -13 -43 -101 -85 -197 -43 -95 -76 -177 -74 -182 2
-5 41 78 87 184 46 105 89 195 95 199 l11 8 102 0 101 0 83 -35 c45 -20 87
-34 92 -32 l10 3 -89 37 -89 37 -118 0 -117 0 -9 -22z"/>
<path d="M59872 61772 l-73 -87 -83 -130 -82 -130 -23 -78 c-12 -43 -33 -132
-46 -199 l-25 -121 0 -53 0 -54 10 0 10 0 0 53 0 54 30 144 c16 79 37 171 47
205 l18 61 75 117 75 118 72 85 c61 70 85 106 71 102 -2 0 -36 -39 -76 -87z"/>
<path d="M43690 61638 c-124 -111 -227 -206 -229 -212 l-4 -11 24 21 c97 84
400 353 424 376 l30 28 -10 -1 c-6 0 -111 -91 -235 -201z"/>
<path d="M48110 61781 l0 -9 201 -112 201 -112 10 10 9 9 -201 112 c-111 61
-205 111 -210 111 -6 0 -10 -4 -10 -9z"/>
<path d="M56277 61627 l-19 -32 26 24 25 24 -5 8 c-7 12 -7 13 -27 -24z"/>
<path d="M55570 61601 c0 -16 79 -438 86 -464 3 -10 8 -17 10 -15 4 5 -84 479
-91 486 -3 3 -5 0 -5 -7z"/>
<path d="M61101 61608 c-1 -7 81 -387 95 -444 4 -14 9 -23 11 -20 6 5 -84 422
-97 451 -5 11 -9 17 -9 13z"/>
<path d="M58332 61460 c15 -9 345 -155 378 -167 l15 -6 -10 11 c-11 11 -378
172 -392 172 -4 0 -1 -5 9 -10z"/>
<path d="M54550 61372 c0 -17 210 -925 215 -931 3 -2 5 1 5 7 0 20 -208 924
-214 930 l-6 5 0 -11z"/>
<path d="M18852 61125 c3 -3 63 -12 134 -20 71 -9 165 -22 210 -30 85 -16 111
-18 102 -10 -8 8 -159 34 -298 50 -138 16 -156 18 -148 10z"/>
<path d="M42852 60920 l-12 -20 10 0 c5 0 14 9 20 20 l11 20 -8 0 c-5 0 -14
-9 -21 -20z"/>
<path d="M59620 60890 c30 -16 62 -29 70 -29 l15 1 -60 28 c-78 37 -95 37 -25
0z"/>
<path d="M46345 60828 c-33 -39 -111 -122 -172 -184 -62 -63 -113 -117 -113
-120 0 -3 26 18 59 48 60 54 301 313 301 322 0 17 -21 -2 -75 -66z"/>
<path d="M60720 60761 l-95 -26 -97 -55 c-54 -30 -98 -58 -98 -62 0 -4 46 19
103 51 l102 57 90 23 c50 13 94 27 100 32 l9 9 -9 -1 c-6 -1 -53 -13 -105 -28z"/>
<path d="M78030 60680 c0 -5 4 -10 8 -10 12 0 32 -46 32 -73 l0 -23 -16 -22
-16 -23 7 -7 7 -7 19 24 19 23 0 35 0 34 -15 29 -16 30 -14 0 -15 0 0 -10z"/>
<path d="M60314 60605 l-80 -45 -95 -81 c-51 -45 -96 -83 -98 -85 -2 -2 0 -4
6 -4 5 0 50 35 100 78 l90 79 69 38 c82 45 112 65 99 65 -6 -1 -46 -21 -91
-45z"/>
<path d="M61354 60603 c3 -10 28 -126 56 -257 28 -132 53 -242 57 -245 l6 -6
-6 30 c-3 16 -27 134 -54 262 l-48 233 -8 0 -8 0 5 -17z"/>
<path d="M61324 60575 c3 -22 26 -133 49 -247 24 -115 42 -208 41 -208 -7 0
-391 -82 -407 -86 -10 -3 -17 -8 -14 -10 3 -4 360 68 408 82 l16 4 78 -385
c43 -212 76 -387 74 -390 -3 -2 -95 -23 -205 -46 l-199 -41 -10 -10 -10 -10
20 5 c22 6 402 87 409 87 2 0 21 -89 42 -197 l38 -198 3 16 c2 9 -12 98 -32
199 l-36 183 13 8 13 8 3 -9 c2 -6 7 -10 12 -10 l8 0 -40 193 c-22 105 -42
194 -44 196 -15 17 -10 -28 21 -173 19 -93 35 -174 35 -182 l0 -14 -13 0 -13
0 -34 178 c-18 97 -50 265 -72 372 -22 107 -41 204 -42 215 -1 11 -5 27 -9 35
-3 8 -27 116 -52 240 -25 123 -48 226 -52 230 l-6 5 7 -40z"/>
<path d="M77977 60523 l-27 -4 5 -10 c4 -5 15 -9 25 -9 l18 0 -10 -27 -10 -28
80 -323 c43 -177 82 -325 86 -329 20 -20 9 35 -64 328 l-81 324 15 33 c9 18
16 37 16 42 l0 10 -12 -1 c-7 -1 -25 -4 -41 -6z"/>
<path d="M55640 60502 l0 -7 456 -124 455 -123 6 6 c4 3 4 6 1 6 -6 0 -885
238 -905 245 l-13 4 0 -7z"/>
<path d="M54773 60383 l7 -6 7 6 6 7 -13 0 -13 0 6 -7z"/>
<path d="M62535 60350 c-99 -21 -285 -60 -412 -86 -128 -26 -233 -50 -233 -53
0 -4 194 32 430 79 l430 85 0 7 0 8 -17 -1 c-10 0 -99 -18 -198 -39z"/>
<path d="M83147 60364 l-6 -6 55 -87 c30 -47 84 -144 120 -216 l67 -130 112
-180 c62 -99 134 -218 160 -265 26 -47 85 -150 130 -230 45 -80 121 -221 169
-313 49 -93 90 -166 93 -164 2 3 -18 47 -45 99 -27 51 -79 149 -115 218 -91
176 -289 521 -386 672 -44 70 -113 190 -153 265 -39 76 -93 173 -120 216 -26
43 -48 82 -48 85 0 4 -7 15 -14 24 l-13 18 -6 -6z"/>
<path d="M57221 60325 c-1 -11 -12 -37 -25 -57 l-22 -37 -47 -36 c-26 -20 -47
-38 -47 -41 0 -6 14 2 64 38 l40 29 24 39 23 40 -4 23 -4 22 -2 -20z"/>
<path d="M44530 60314 c0 -7 670 -724 676 -724 3 0 2 6 -3 13 -10 16 -664 717
-669 717 -2 0 -4 -3 -4 -6z"/>
<path d="M62155 60229 c-99 -21 -196 -41 -215 -44 -53 -8 -484 -98 -489 -102
-16 -12 29 -5 214 33 116 24 220 43 231 44 l21 0 6 -32 c11 -63 138 -683 143
-700 3 -10 9 -18 13 -18 l7 0 -37 178 c-20 97 -56 266 -79 376 l-43 198 11 7
c6 4 101 24 212 46 l200 39 0 8 c0 10 19 13 -195 -33z"/>
<path d="M57412 60230 c-78 -16 -101 -25 -91 -34 2 -2 42 3 88 13 l85 17 4 12
c2 6 2 12 0 11 -1 -1 -40 -9 -86 -19z"/>
<path d="M58636 60229 c-59 -14 -57 -20 5 -13 l54 6 75 -145 c41 -80 76 -142
78 -139 1 4 -32 73 -74 155 l-75 147 -12 -1 c-7 -1 -30 -5 -51 -10z"/>
<path d="M57425 60175 l-60 -12 17 -7 17 -8 55 12 56 11 0 10 0 9 -12 -1 c-7
-1 -40 -7 -73 -14z"/>
<path d="M57280 60123 c0 -27 -7 -84 -15 -127 -14 -71 -14 -98 0 -85 9 10 35
165 35 212 l0 47 -10 0 -10 0 0 -47z"/>
<path d="M57020 60122 c0 -15 47 -47 101 -68 57 -22 91 -48 107 -82 l13 -27
-6 30 -6 30 -27 22 c-15 12 -52 31 -82 43 l-55 21 -22 21 -23 21 0 -11z"/>
<path d="M59355 59849 c-181 -136 -339 -256 -350 -264 l-20 -17 38 21 c38 21
625 457 662 492 l19 19 -9 -1 c-6 -1 -158 -113 -340 -250z"/>
<path d="M61208 60035 l-196 -40 -9 -9 -8 -8 20 5 c11 3 103 22 205 42 102 21
187 39 189 41 12 11 -20 6 -201 -31z"/>
<path d="M55356 59783 c-33 -125 -62 -235 -64 -243 l-5 -15 10 10 10 10 57
222 c32 123 56 228 54 234 -2 6 -30 -92 -62 -218z"/>
<path d="M48861 59784 c-68 -90 -122 -166 -120 -169 4 -3 191 237 247 316 l13
19 -8 0 c-4 -1 -64 -75 -132 -166z"/>
<path d="M58810 59913 c0 -6 32 -80 71 -164 39 -85 106 -239 150 -343 78 -185
98 -229 99 -213 0 19 -299 710 -316 726 -2 2 -4 0 -4 -6z"/>
<path d="M91060 59906 c0 -9 283 -341 294 -345 l11 -4 -16 19 c-267 318 -289
344 -289 330z"/>
<path d="M63661 59823 c-1 -12 13 -82 30 -155 17 -73 57 -261 89 -418 33 -157
122 -590 199 -964 77 -373 142 -683 145 -690 l4 -11 1 16 c1 8 -40 213 -89
455 -50 241 -131 637 -180 879 -77 381 -183 869 -195 900 l-3 10 -1 -22z"/>
<path d="M63621 59824 c-1 -6 69 -344 154 -750 85 -407 157 -757 161 -779 14
-93 233 -1157 325 -1584 l100 -464 -16 -17 c-8 -9 -15 -23 -15 -31 l0 -14 24
30 c13 16 22 33 20 36 -8 13 -239 1106 -329 1559 -119 599 -403 1966 -415
2000 -5 14 -9 20 -9 14z"/>
<path d="M59255 59723 c-60 -46 -142 -105 -182 -132 l-72 -49 6 -6 6 -6 36 22
c35 21 187 133 284 209 l47 38 -7 4 -8 4 -110 -84z"/>
<path d="M93340 59797 c0 -21 291 -214 348 -231 l22 -7 0 10 0 11 -13 0 c-19
0 -213 118 -285 173 -55 43 -72 53 -72 44z"/>
<path d="M15835 59707 l-160 -42 -42 -25 c-24 -14 -43 -29 -43 -33 l0 -8 13 7
c6 4 28 17 47 29 l35 22 155 38 c85 21 162 42 170 46 l15 8 -15 0 c-8 -1 -87
-20 -175 -42z"/>
<path d="M83577 59553 l-6 -9 111 -195 c148 -258 476 -879 504 -954 l23 -60 0
16 c2 34 -32 104 -213 447 -102 194 -186 355 -186 356 0 2 -51 94 -114 205
l-114 202 -5 -8z"/>
<path d="M50381 59503 c-103 -129 -291 -380 -291 -387 l0 -10 9 10 c14 16 307
398 315 412 15 25 -4 11 -33 -25z"/>
<path d="M62293 59486 l-191 -41 -9 -9 -8 -9 25 6 c14 3 104 23 200 43 96 20
182 40 190 45 l15 8 -15 -1 c-8 0 -101 -19 -207 -42z"/>
<path d="M49631 59492 c2 -6 99 -83 214 -172 116 -90 216 -167 223 -173 7 -5
15 -8 17 -5 3 3 -48 45 -112 95 -65 50 -169 130 -232 178 -62 48 -112 83 -110
77z"/>
<path d="M22533 59397 c-95 -97 -125 -142 -153 -221 -23 -68 -23 -66 -12 -66
l8 0 18 58 18 57 36 50 c19 28 67 82 106 122 38 40 68 75 65 78 -3 3 -42 -32
-86 -78z"/>
<path d="M46982 59410 l-12 -20 0 -27 0 -27 9 10 c8 9 25 84 19 84 -2 0 -9 -9
-16 -20z"/>
<path d="M61825 59387 l-190 -42 15 -3 c16 -3 390 75 398 83 11 10 -40 2 -223
-38z"/>
<path d="M59615 59317 c-247 -49 -452 -92 -454 -94 -18 -14 61 0 484 87 264
54 467 98 450 98 -16 0 -232 -41 -480 -91z"/>
<path d="M44349 59354 l-14 -17 70 -64 c39 -35 114 -102 168 -150 l97 -85 15
6 c25 9 18 22 -44 72 -32 27 -108 95 -169 151 l-110 103 -13 -16z"/>
<path d="M75900 59244 c8 -1 104 -5 213 -7 l197 -3 0 8 0 8 -212 -1 c-117 -1
-206 -3 -198 -5z"/>
<path d="M91670 59214 c0 -5 17 -26 38 -46 51 -51 265 -218 271 -212 2 2 2 5
0 7 -2 2 -49 39 -104 82 -55 43 -124 101 -152 128 l-53 51 0 -10z"/>
<path d="M61520 58517 c-107 -29 -200 -55 -206 -59 -6 -4 -198 -46 -425 -93
l-414 -86 -55 -4 -54 -3 -151 55 c-82 30 -168 62 -190 69 l-40 15 10 -10 c6
-5 96 -41 200 -80 l190 -69 11 9 12 10 23 -11 24 -11 2 -27 1 -27 -14 -16 -15
-17 -19 5 c-10 3 -26 13 -36 24 l-16 18 5 16 6 15 -9 0 -10 0 0 -21 c0 -11 4
-29 10 -39 l10 -18 31 -7 31 -7 24 23 24 22 0 19 0 18 8 0 c23 0 820 169 842
179 14 6 99 29 190 51 91 23 182 45 203 51 l37 10 0 8 0 9 -217 -55 c-120 -30
-220 -58 -223 -63 l-5 -8 -415 -86 c-229 -47 -419 -86 -423 -86 -4 0 -7 6 -7
13 l0 13 403 82 c221 46 418 89 437 97 19 8 125 37 235 66 110 28 202 53 204
55 12 11 -52 -2 -229 -49z"/>
<path d="M55481 58466 c8 -8 832 -227 836 -222 6 5 -21 13 -458 130 -324 87
-391 104 -378 92z"/>
<path d="M63270 58396 c0 -24 88 -437 94 -443 16 -16 11 18 -32 230 l-47 227
-7 0 c-5 0 -8 -6 -8 -14z"/>
<path d="M49447 58245 c-9 -13 -101 -126 -203 -251 -102 -124 -183 -228 -181
-230 4 -5 335 393 410 494 l9 12 -8 0 c-5 0 -17 -12 -27 -25z"/>
<path d="M62310 58240 c0 -8 16 -98 36 -202 l36 -188 10 0 10 0 -4 18 c-3 10
-20 96 -38 192 -18 96 -37 179 -42 185 l-8 9 0 -14z"/>
<path d="M62274 58220 c3 -14 19 -101 36 -195 l32 -170 10 -10 10 -10 -5 20
c-3 11 -20 94 -37 185 -17 91 -35 174 -40 185 l-10 20 4 -25z"/>
<path d="M91820 58142 c0 -4 26 -26 58 -48 31 -22 108 -75 170 -118 61 -42
112 -74 112 -69 0 4 -44 38 -98 75 -53 36 -130 89 -169 117 -40 29 -73 48 -73
43z"/>
<path d="M46276 57971 l-6 -9 46 -57 47 -57 74 -131 c41 -73 79 -136 84 -141
l9 -10 0 13 c0 7 -32 70 -71 141 l-72 128 -53 66 -52 67 -6 -10z"/>
<path d="M62603 57881 l-211 -46 -9 -9 -8 -9 15 5 c8 2 111 25 228 49 l212 44
0 7 c0 10 23 14 -227 -41z"/>
<path d="M35762 57879 l-64 -8 -81 -27 -82 -27 10 -4 c6 -2 43 8 83 21 l72 25
118 12 117 12 63 -10 62 -10 0 7 c0 20 -173 25 -298 9z"/>
<path d="M55900 57839 c-113 -16 -299 -40 -415 -54 -186 -23 -255 -35 -200
-35 23 0 367 40 653 77 l212 26 0 9 0 8 -22 -1 c-13 -1 -115 -14 -228 -30z"/>
<path d="M46568 57563 l13 -5 6 6 6 6 -19 -1 -19 -1 13 -5z"/>
<path d="M63460 57484 c0 -3 20 -104 45 -224 25 -120 45 -222 45 -226 l0 -8
10 10 10 10 -45 214 c-25 118 -45 218 -45 223 0 4 -4 7 -10 7 -5 0 -10 -3 -10
-6z"/>
<path d="M80475 57426 c-107 -56 -214 -132 -291 -207 -58 -55 -75 -79 -58 -79
4 0 39 29 78 64 l71 63 105 69 c58 38 124 78 148 88 41 18 50 30 34 40 l-8 4
-79 -42z"/>
<path d="M76165 57419 l-140 -9 -65 -14 -65 -14 20 -1 c11 0 61 6 110 14 l90
15 98 0 97 0 0 10 c0 6 -1 9 -2 8 -2 0 -66 -5 -143 -9z"/>
<path d="M35810 56936 c0 -9 361 -308 366 -304 4 4 -325 284 -353 302 -7 4
-13 5 -13 2z"/>
<path d="M46550 56887 c0 -16 58 -423 63 -439 l2 -7 13 8 14 8 -21 144 c-24
161 -49 279 -62 294 l-9 9 0 -17z"/>
<path d="M64313 56665 c3 -11 25 -111 48 -223 l42 -203 13 5 12 4 21 -14 21
-15 0 -33 0 -33 -18 -16 -19 -17 -29 0 -30 0 -10 10 -10 10 -262 -52 c-144
-29 -262 -55 -262 -59 0 -3 116 17 258 46 l259 51 20 -13 20 -13 31 6 31 6 21
23 22 24 -9 38 -8 38 -32 15 -32 15 -14 65 c-8 36 -27 126 -42 200 l-28 135
-10 10 -9 10 5 -20z"/>
<path d="M37336 56453 c-31 -92 -62 -195 -69 -228 l-13 -59 -45 -11 c-60 -16
-320 -117 -315 -123 3 -2 71 21 151 52 81 31 164 59 184 62 l39 6 6 45 c3 24
33 128 67 230 33 101 59 187 56 189 -3 3 -30 -70 -61 -163z"/>
<path d="M74725 56551 c-38 -10 -125 -37 -193 -61 l-123 -43 9 -9 10 -10 123
45 124 45 82 17 82 18 -5 8 c-7 12 -26 10 -109 -10z"/>
<path d="M90572 56486 c-12 -18 -87 -97 -166 -175 l-144 -141 9 -6 10 -6 153
154 c85 84 159 163 165 175 l11 22 -8 5 -8 4 -22 -32z"/>
<path d="M90620 56490 c0 -4 50 -28 112 -54 l112 -48 250 -135 c138 -74 259
-142 269 -150 9 -9 19 -14 22 -11 11 11 -65 57 -280 172 l-219 118 -133 58
c-73 32 -133 54 -133 50z"/>
<path d="M56021 56458 c-5 -13 -28 -84 -51 -158 l-42 -135 -35 -60 c-19 -33
-55 -84 -80 -113 l-45 -52 4 -12 4 -11 56 66 57 67 35 72 35 73 45 143 44 142
-9 0 c-5 0 -13 -10 -18 -22z"/>
<path d="M79040 56460 l0 -10 23 -5 c12 -3 42 -9 66 -14 l45 -10 83 6 82 6 -6
10 -6 9 -74 -4 -75 -5 -61 13 c-76 16 -77 16 -77 4z"/>
<path d="M26470 56437 c0 -8 327 -177 342 -177 7 0 -61 39 -151 86 -174 91
-191 99 -191 91z"/>
<path d="M49290 56402 c0 -4 73 -42 163 -84 l162 -76 50 -6 50 -5 -35 10 c-82
23 -122 40 -252 102 -76 36 -138 63 -138 59z"/>
<path d="M81625 56226 c-93 -24 -181 -49 -195 -55 l-25 -11 25 4 c49 9 383 96
388 101 11 11 -29 3 -193 -39z"/>
<path d="M1965 56143 l10 -10 215 -32 c217 -31 247 -35 239 -26 -3 2 -97 18
-210 35 -112 17 -217 33 -234 36 l-30 6 10 -9z"/>
<path d="M63695 56140 c-23 -10 -21 -11 23 -15 l33 -3 23 -21 c12 -11 25 -21
29 -21 l7 0 -11 24 -12 24 -22 6 c-13 3 -29 8 -37 10 -7 3 -22 1 -33 -4z"/>
<path d="M29910 56131 l0 -11 13 0 c8 0 114 -13 237 -30 123 -16 232 -30 242
-30 l18 0 0 8 0 8 -212 28 c-117 15 -232 30 -255 33 l-43 6 0 -12z"/>
<path d="M37200 56113 c-34 -7 -273 -102 -285 -114 l-10 -10 55 21 c166 65
219 84 265 95 l50 13 -25 0 c-14 -1 -36 -3 -50 -5z"/>
<path d="M35558 56038 c-21 -12 -38 -24 -38 -27 0 -9 199 -85 205 -79 3 3 -35
20 -85 39 l-90 33 0 8 c0 5 11 14 25 20 14 6 25 15 25 20 0 11 1 11 -42 -14z"/>
<path d="M4015 56019 c-77 -5 -147 -11 -155 -13 -21 -7 301 5 385 14 l70 7
-80 0 c-44 0 -143 -4 -220 -8z"/>
<path d="M63796 55862 c18 -76 40 -176 49 -223 9 -46 18 -90 21 -97 l4 -13 8
5 9 5 -13 68 c-7 37 -30 140 -51 227 l-39 160 -11 3 -11 4 34 -139z"/>
<path d="M63062 55910 l0 -25 5 13 c2 6 2 18 0 25 l-5 12 0 -25z"/>
<path d="M63020 55900 l0 -20 9 0 9 0 -5 20 c-3 11 -7 20 -9 20 -2 0 -4 -9 -4
-20z"/>
<path d="M62758 55806 c-228 -48 -269 -59 -257 -70 2 -2 127 21 277 52 l272
56 0 8 0 8 -22 -1 c-13 -1 -134 -25 -270 -53z"/>
<path d="M89818 55790 l-67 -60 -20 -34 c-11 -18 -41 -76 -66 -129 l-44 -97
12 0 12 0 50 107 50 107 77 79 c43 43 78 80 78 83 0 13 -22 -2 -82 -56z"/>
<path d="M61830 55720 l0 -13 7 6 6 7 -6 7 -7 6 0 -13z"/>
<path d="M25991 55656 c2 -2 94 -68 204 -148 170 -122 255 -181 323 -222 l12
-7 0 8 c0 4 -24 22 -53 40 -29 17 -146 99 -261 182 -115 83 -214 151 -219 151
-6 0 -8 -2 -6 -4z"/>
<path d="M61517 55653 c18 -2 50 -2 70 0 l38 4 -70 0 -70 0 32 -4z"/>
<path d="M37195 55450 l20 -9 188 -15 189 -16 36 20 37 19 -13 1 c-7 0 -25 -6
-40 -14 l-27 -13 -145 13 c-80 7 -172 15 -205 18 l-60 5 20 -9z"/>
<path d="M36140 55363 c0 -4 79 -77 175 -161 96 -84 175 -148 175 -144 0 5
-64 65 -142 133 -79 68 -157 137 -175 153 l-33 28 0 -9z"/>
<path d="M53180 55233 c0 -16 12 -88 27 -161 l26 -134 -10 -6 c-5 -4 -26 -34
-45 -67 -20 -33 -82 -127 -138 -210 l-101 -150 -10 3 c-6 1 -71 43 -145 92
-73 50 -134 87 -134 83 0 -5 63 -49 140 -100 l139 -92 -63 -93 c-35 -51 -132
-200 -215 -331 -83 -131 -180 -276 -215 -322 l-63 -85 -109 76 c-117 82 -222
172 -348 297 -43 43 -81 76 -83 73 -15 -15 283 -285 419 -380 54 -37 100 -71
103 -76 l5 -9 -10 -6 c-5 -3 -10 -11 -10 -17 l0 -11 19 17 18 17 10 -13 c6 -7
20 -32 32 -55 12 -24 23 -43 26 -43 4 0 -20 60 -41 103 l-15 27 62 81 c33 44
133 194 221 332 88 139 185 287 215 330 l55 78 24 -16 c35 -23 43 -18 11 8
l-28 22 101 148 c56 82 118 176 137 210 20 34 42 67 50 74 l15 11 -26 128
c-14 70 -26 142 -26 161 l0 33 -10 0 -10 0 0 -27z"/>
<path d="M53229 55220 l-4 -45 23 -110 c13 -60 30 -126 39 -146 l15 -36 -372
-563 -371 -563 -38 -76 c-21 -42 -44 -94 -51 -116 -7 -22 -17 -45 -22 -52 l-9
-11 9 -6 10 -6 15 33 c8 17 18 43 22 57 4 14 23 55 41 91 l33 66 337 509 c185
280 355 537 377 572 l40 63 -22 47 c-25 55 -51 169 -60 267 l-7 70 -5 -45z"/>
<path d="M19159 55150 l-76 -77 -104 -77 -103 -76 12 0 c15 0 146 97 234 173
55 46 125 125 117 131 -2 1 -38 -32 -80 -74z"/>
<path d="M51150 54993 c-19 -3 -39 -9 -45 -14 l-10 -10 30 8 30 8 530 -1 530
-1 -25 8 -25 7 -490 -1 c-269 0 -506 -2 -525 -4z"/>
<path d="M47185 54970 l-6 -10 6 -10 6 -9 14 6 15 5 0 14 0 14 -14 0 c-8 0
-18 -4 -21 -10z"/>
<path d="M52125 54742 l-140 -216 -137 -175 c-75 -97 -135 -178 -132 -180 2
-2 6 -2 7 0 2 2 62 78 133 169 l130 165 133 205 c74 113 141 215 149 228 l14
22 -8 0 c-5 -1 -72 -98 -149 -218z"/>
<path d="M50675 54940 c-11 -5 -42 -9 -70 -9 l-50 -1 -15 -10 -15 -10 20 0
c11 0 49 5 84 10 l64 9 10 10 11 11 -9 -1 c-6 0 -19 -4 -30 -9z"/>
<path d="M50934 54904 l-42 -44 -31 -6 -31 -6 5 -9 5 -8 33 11 32 11 33 31
c19 17 38 39 43 49 l10 17 -8 -1 c-4 -1 -27 -21 -49 -45z"/>
<path d="M47670 54875 l0 -55 35 -85 c20 -47 40 -97 46 -112 5 -14 12 -24 14
-21 3 2 -16 56 -41 119 l-46 114 5 48 6 47 -9 0 -10 0 0 -55z"/>
<path d="M52299 54909 c13 -11 26 -17 29 -14 7 6 -29 34 -43 34 l-10 0 24 -20z"/>
<path d="M52250 54739 l-105 -163 -172 -229 c-158 -209 -183 -247 -168 -247 3
0 85 107 183 238 l177 237 98 152 99 153 -4 11 -4 12 -104 -164z"/>
<path d="M48167 54588 c46 -90 102 -200 126 -245 23 -46 45 -83 50 -83 l9 0
-45 83 c-24 45 -82 155 -128 245 -46 89 -86 162 -90 162 -3 0 32 -73 78 -162z"/>
<path d="M48051 54725 c6 -14 75 -149 171 -333 44 -84 82 -151 85 -149 5 5
-234 467 -249 482 l-10 10 3 -10z"/>
<path d="M18268 54662 l-178 -25 0 -7 0 -7 28 4 c149 19 365 53 370 57 l5 6
-24 -1 c-13 -1 -104 -13 -201 -27z"/>
<path d="M32030 54664 c0 -10 360 -247 366 -241 3 3 -178 127 -338 231 l-28
18 0 -8z"/>
<path d="M18271 54624 c-143 -20 -206 -34 -160 -34 28 0 373 50 377 55 9 9
-51 3 -217 -21z"/>
<path d="M50360 54640 l-15 -10 17 0 c9 0 20 5 23 10 l6 10 -8 0 c-4 0 -15 -5
-23 -10z"/>
<path d="M51177 54623 l-6 -6 72 -56 c40 -31 109 -86 155 -121 l82 -63 6 5 5
6 -118 93 c-65 51 -134 105 -154 120 l-36 28 -6 -6z"/>
<path d="M4362 54608 l4 -12 217 -72 217 -72 5 8 5 9 -10 6 c-14 9 -422 145
-433 145 l-9 0 4 -12z"/>
<path d="M55020 54540 c-26 -90 -195 -635 -216 -702 l-15 -46 -62 -41 c-34
-22 -120 -67 -191 -101 -71 -33 -127 -63 -124 -65 3 -3 71 27 152 66 l147 71
17 -13 c9 -7 32 -26 50 -43 17 -16 32 -26 32 -21 0 4 -19 26 -42 48 l-43 39
20 14 c11 7 28 19 38 26 l17 13 126 404 125 404 -4 11 -4 11 -23 -75z"/>
<path d="M50190 54573 c0 -12 38 -48 45 -41 3 2 -6 15 -20 28 l-25 23 0 -10z"/>
<path d="M51120 54572 c0 -12 87 -87 198 -171 45 -34 82 -65 82 -69 0 -4 -31
-43 -70 -87 -97 -111 -87 -119 14 -11 l83 90 99 -80 c103 -83 124 -99 124 -90
0 4 -49 45 -210 173 -2 2 1 13 8 23 18 29 15 35 -7 16 l-20 -18 -13 8 c-12 8
-186 143 -255 199 l-33 26 0 -9z"/>
<path d="M50225 54481 l-6 -19 48 -66 48 -66 128 -111 128 -110 10 3 10 3
-133 114 -133 113 -46 60 -46 61 5 19 c6 24 -5 23 -13 -1z"/>
<path d="M31377 54358 c-45 -107 -101 -288 -125 -408 l-20 -95 -81 -189 c-44
-104 -79 -192 -76 -194 2 -3 9 6 14 19 5 13 45 110 89 214 l80 190 11 68 c7
37 32 134 57 214 l46 147 29 58 29 58 -9 0 -9 0 -35 -82z"/>
<path d="M49330 54390 c-8 -5 -12 -11 -9 -14 2 -3 11 -1 19 4 8 5 12 11 9 14
-2 3 -11 1 -19 -4z"/>
<path d="M80800 54054 c49 -190 92 -349 96 -353 l7 -6 -5 20 c-34 149 -175
685 -180 685 -3 0 34 -156 82 -346z"/>
<path d="M88020 54378 l-34 -23 -9 -32 -9 -32 6 -36 7 -36 8 6 9 5 -5 44 -5
44 25 26 26 26 39 0 38 0 11 -11 11 -11 13 4 14 5 -25 15 c-14 9 -39 19 -55
22 l-31 7 -34 -23z"/>
<path d="M49082 54218 c-128 -66 -231 -122 -229 -125 3 -2 114 52 248 121 134
69 237 126 229 125 -8 0 -120 -54 -248 -121z"/>
<path d="M49172 54088 c-139 -72 -250 -133 -248 -136 4 -3 510 251 525 264 2
2 -2 4 -10 3 -8 0 -128 -59 -267 -131z"/>
<path d="M32790 54204 c1 -5 34 -35 75 -67 l75 -57 0 -30 0 -29 -42 -39 c-24
-22 -59 -53 -78 -70 -19 -17 -33 -33 -30 -35 3 -3 40 26 83 65 l77 70 0 38 0
38 -67 53 c-38 28 -74 56 -80 62 l-13 9 0 -8z"/>
<path d="M45740 54185 c-1 -16 -2 -84 0 -150 l2 -120 13 -90 13 -90 21 -49 21
-49 78 -80 c79 -82 215 -197 233 -197 6 0 -23 26 -63 58 -40 32 -111 99 -158
148 l-85 90 -18 50 c-9 27 -22 76 -28 109 l-11 60 -7 170 c-4 94 -9 157 -11
140z"/>
<path d="M48320 54207 c0 -6 369 -727 376 -736 2 -2 6 -2 8 0 4 4 -364 722
-376 735 -5 4 -8 5 -8 1z"/>
<path d="M51593 54069 c-82 -96 -98 -118 -91 -125 3 -2 34 31 70 73 36 43 77
93 92 111 l28 32 -11 0 -11 0 -77 -91z"/>
<path d="M53546 54141 c5 -5 131 -90 279 -189 149 -100 332 -225 408 -278
l138 -97 -10 -10 -9 -9 -141 96 -141 97 0 -9 c0 -5 59 -48 131 -96 l131 -88
-8 -8 c-5 -5 -108 -56 -229 -113 -121 -57 -262 -125 -312 -151 -51 -25 -122
-57 -157 -70 -36 -14 -212 -102 -393 -197 -180 -95 -369 -191 -419 -215 l-92
-42 -91 189 c-82 170 -231 501 -231 512 0 3 10 7 22 10 l22 6 -6 6 -6 7 -20
-11 -20 -10 -21 51 c-12 29 -36 74 -52 100 l-31 48 -87 63 c-47 34 -129 101
-182 149 l-96 87 -24 6 -25 6 -93 75 c-92 72 -101 79 -101 69 0 -9 186 -153
207 -159 l22 -7 88 -81 c48 -44 136 -116 196 -160 l107 -80 39 -81 c21 -45 58
-126 81 -180 l43 -98 -19 -19 -19 -19 -103 -7 -103 -7 8 -8 8 -7 100 10 100
10 17 15 17 15 18 -38 c9 -22 122 -257 250 -524 l233 -485 29 -30 28 -30 144
-293 143 -294 4 10 3 10 -146 294 -147 293 -23 25 -24 25 -126 263 c-70 145
-126 264 -124 266 2 1 51 24 109 50 58 26 251 125 430 218 178 94 341 176 362
184 l38 13 0 -46 c0 -56 8 -53 14 6 l3 42 324 160 324 160 21 -4 21 -4 -5 20
-5 20 16 -6 17 -6 0 9 c0 11 -112 89 -518 359 -293 195 -371 244 -336 212z"/>
<path d="M80851 54046 c-1 -10 18 -91 41 -180 l43 -161 2 15 c2 8 -17 89 -41
180 -25 91 -45 157 -45 146z"/>
<path d="M50680 54004 c0 -7 11 -32 25 -55 l25 -44 0 15 c-1 8 -12 33 -25 55
-14 22 -25 35 -25 29z"/>
<path d="M51450 53895 c-7 -9 -11 -18 -8 -20 3 -3 11 1 18 10 7 9 11 18 8 20
-3 3 -11 -1 -18 -10z"/>
<path d="M20706 53864 l-58 -25 -77 0 c-42 0 -170 10 -286 21 l-210 20 -95 -2
-95 -2 70 -3 c39 -2 193 -15 343 -28 l273 -25 42 6 c50 7 157 46 157 56 0 5
-1 8 -2 7 -2 0 -29 -12 -62 -25z"/>
<path d="M50080 53863 c-83 -37 -362 -184 -357 -189 2 -2 91 40 198 95 107 54
201 101 209 103 8 3 13 7 10 10 -3 3 -30 -6 -60 -19z"/>
<path d="M13471 53873 c0 -10 348 -289 354 -285 13 7 -7 25 -166 153 -161 130
-190 150 -188 132z"/>
<path d="M49315 53749 c-132 -65 -235 -118 -229 -118 10 -1 463 215 473 225
20 20 -37 -5 -244 -107z"/>
<path d="M51410 53861 c0 -5 96 -88 213 -184 116 -96 228 -192 248 -213 56
-60 179 -214 207 -259 l25 -40 5 13 4 13 -27 41 c-15 22 -58 79 -97 126 l-70
86 33 10 34 9 -17 4 -17 4 -19 -10 -19 -10 -29 31 c-27 29 -435 366 -461 382
l-13 7 0 -10z"/>
<path d="M13455 53830 l-6 -10 -11 6 -11 7 7 -11 7 -11 -192 -283 c-106 -156
-203 -297 -216 -314 -12 -17 -23 -36 -23 -43 l0 -12 9 6 c9 5 101 135 359 511
l113 164 -15 0 c-8 0 -18 -5 -21 -10z"/>
<path d="M60000 53820 l0 -10 24 -10 c14 -5 49 -24 78 -43 71 -45 240 -152
256 -161 6 -4 12 -5 12 -2 0 7 -308 209 -342 224 l-28 12 0 -10z"/>
<path d="M13477 53803 l-5 -8 150 -123 c83 -68 157 -126 164 -129 l14 -5 0 8
c-1 8 -211 184 -295 247 l-23 18 -5 -8z"/>
<path d="M19223 53757 c-111 -29 -205 -56 -210 -61 l-8 -8 20 5 c11 4 106 27
210 53 105 26 194 51 200 55 l9 9 -9 -1 c-6 0 -101 -24 -212 -52z"/>
<path d="M66863 53742 c-117 -25 -213 -48 -213 -52 0 -7 448 85 457 94 l6 6
-19 -1 c-10 -1 -115 -22 -231 -47z"/>
<path d="M18653 53768 c2 -7 10 -39 17 -70 l13 -58 19 -20 19 -20 55 0 56 0
81 21 c45 11 86 25 92 30 12 12 10 12 -75 -12 l-75 -21 -63 -1 -64 -2 -19 23
-19 24 -12 59 -12 59 -9 0 -9 0 5 -12z"/>
<path d="M50655 53644 c-137 -68 -254 -126 -260 -128 -5 -2 -8 -5 -5 -8 3 -3
127 55 275 128 149 73 263 132 255 132 -8 0 -127 -55 -265 -124z"/>
<path d="M84035 53718 l-15 -52 0 -40 c0 -23 6 -79 14 -126 l14 -85 127 -490
c143 -552 155 -598 161 -592 2 2 -59 249 -137 548 l-141 544 -13 90 -12 90 7
60 c4 33 11 70 15 83 l7 22 -5 0 c-4 0 -13 -23 -22 -52z"/>
<path d="M51741 53703 c2 -6 45 -43 94 -83 50 -40 106 -91 126 -114 l37 -41 7
7 8 7 -34 38 c-36 41 -209 185 -229 191 l-12 5 3 -10z"/>
<path d="M49741 53576 l-12 -15 -27 -4 -27 -4 31 -2 32 -1 12 15 c7 9 11 18 8
20 -3 3 -11 -1 -17 -9z"/>
<path d="M52703 53457 c-112 -61 -201 -112 -198 -115 4 -4 372 191 403 214
l17 13 -10 0 c-5 -1 -101 -51 -212 -112z"/>
<path d="M51440 53440 l65 -60 53 -26 c28 -15 52 -28 52 -30 0 -2 -37 -22 -82
-45 -46 -23 -94 -51 -106 -63 -24 -22 -56 -85 -47 -94 2 -3 9 8 15 24 6 16 21
40 33 53 l22 24 95 46 c52 26 115 59 140 73 25 14 79 38 120 53 82 30 86 32
78 40 -3 3 -41 -8 -84 -25 -43 -16 -82 -30 -86 -30 -4 0 -23 -11 -43 -25 l-37
-24 -51 25 -51 26 -68 59 c-89 77 -102 76 -18 -1z"/>
<path d="M50310 53484 c0 -3 25 -51 56 -105 30 -55 76 -145 100 -202 25 -56
50 -106 55 -111 l9 -10 0 10 c0 15 -71 172 -106 234 -17 30 -48 85 -69 123
-34 62 -45 77 -45 61z"/>
<path d="M50956 53264 l-408 -205 5 -6 6 -5 398 202 c345 175 433 222 413 219
-3 0 -189 -92 -414 -205z"/>
<path d="M51967 53433 c-4 -3 -7 -10 -7 -14 l0 -7 20 5 20 5 -6 9 c-6 11 -18
12 -27 2z"/>
<path d="M86531 53226 l-193 -143 3 -9 c2 -5 7 -8 11 -7 12 4 398 294 398 298
0 17 -48 -13 -219 -139z"/>
<path d="M49800 53260 c0 -7 32 -63 72 -124 84 -130 77 -121 83 -115 2 3 -8
23 -22 45 -15 21 -51 77 -80 123 l-53 84 0 -13z"/>
<path d="M49863 53258 c-13 -6 -23 -15 -23 -20 l0 -9 30 16 c45 23 38 35 -7
13z"/>
<path d="M52134 53219 l-19 -22 23 12 c12 6 22 16 22 21 0 15 -5 12 -26 -11z"/>
<path d="M34690 53179 l0 -10 10 6 c6 3 10 8 10 11 0 2 -4 4 -10 4 -5 0 -10
-5 -10 -11z"/>
<path d="M64255 53163 c3 -16 14 -104 25 -198 l20 -170 0 -87 0 -88 13 0 12 0
-6 122 c-6 113 -33 372 -45 426 l-4 22 -10 0 -9 0 4 -27z"/>
<path d="M34675 53130 l-6 -10 10 0 c6 0 11 5 11 10 0 6 -2 10 -4 10 -3 0 -8
-4 -11 -10z"/>
<path d="M53773 52923 l101 -198 20 -16 21 -17 9 6 10 6 -22 9 -22 10 -103
198 c-56 110 -105 199 -108 199 -4 0 39 -89 94 -197z"/>
<path d="M51370 53092 c0 -5 11 -19 25 -32 l25 -24 21 -58 22 -58 8 0 c12 0
12 2 -11 60 -27 69 -90 147 -90 112z"/>
<path d="M55412 53093 l-12 -5 20 -25 20 -26 0 -29 c0 -16 -5 -39 -11 -50
l-11 -20 10 -10 10 -10 17 32 17 33 -7 42 -6 43 -17 15 -17 14 -13 -4z"/>
<path d="M55189 53043 c-5 -15 -9 -36 -7 -47 l3 -19 13 -5 12 -4 0 36 0 35 10
6 10 6 -5 10 c-4 5 -11 9 -16 9 l-9 0 -11 -27z"/>
<path d="M34690 53022 l0 -12 -26 -10 -25 -10 -21 11 -20 11 4 -19 3 -18 31
-3 31 -3 24 20 24 20 -12 12 -13 13 0 -12z"/>
<path d="M34286 53001 l-59 -16 -49 -180 c-26 -99 -48 -187 -48 -195 l1 -15 8
15 c5 8 28 87 51 175 24 88 47 168 52 178 l9 17 17 1 c9 0 35 6 57 13 l40 12
-10 5 -10 6 -59 -16z"/>
<path d="M53030 52837 c-113 -56 -208 -106 -212 -111 l-7 -10 14 -10 c18 -15
150 -268 275 -528 58 -120 108 -218 112 -218 9 0 -175 382 -289 598 -46 90
-83 165 -81 167 1 1 75 39 163 83 88 44 180 92 205 106 93 54 18 21 -180 -77z"/>
<path d="M51454 52882 l-11 -28 -86 -39 c-48 -22 -87 -43 -87 -47 l0 -8 92 46
91 46 16 20 16 19 27 -20 26 -21 24 1 23 1 -20 5 c-11 3 -35 16 -55 29 -19 13
-37 24 -40 24 -3 0 -10 -13 -16 -28z"/>
<path d="M12622 52717 c-56 -81 -102 -149 -102 -152 0 -22 31 15 114 135 l98
140 -4 12 -4 11 -102 -146z"/>
<path d="M77910 52849 c0 -26 62 -264 93 -353 l33 -100 7 11 7 10 -34 99 c-18
55 -45 154 -61 222 l-28 122 -9 0 c-4 0 -8 -5 -8 -11z"/>
<path d="M64623 52662 c-101 -20 -183 -39 -183 -42 l0 -7 196 38 c109 21 202
40 208 43 l11 4 -25 0 c-14 0 -107 -16 -207 -36z"/>
<path d="M64348 52643 c6 -2 18 -2 25 0 l12 5 -25 0 -25 0 13 -5z"/>
<path d="M30091 52521 l-12 -109 12 -141 12 -141 7 0 6 0 -13 143 -12 142 13
108 13 107 -7 0 -7 0 -12 -109z"/>
<path d="M50910 52558 c0 -9 5 -20 10 -23 l10 -6 0 8 c0 4 -5 15 -10 23 l-10
15 0 -17z"/>
<path d="M12505 52479 c-4 -6 -5 -12 -4 -13 2 -2 83 -57 179 -123 96 -66 279
-193 405 -283 247 -176 460 -325 755 -529 233 -161 735 -510 817 -568 l61 -44
7 12 7 11 -8 7 c-17 15 -579 407 -754 526 -180 122 -476 328 -940 655 -146
103 -322 226 -392 273 l-127 87 -6 -11z"/>
<path d="M22522 52333 l-41 -98 -36 -144 c-20 -79 -34 -148 -32 -155 2 -6 18
50 37 124 l33 135 44 105 44 105 16 13 17 12 -20 0 -21 0 -41 -97z"/>
<path d="M37090 52356 c0 -7 196 -373 207 -385 1 -2 5 -2 8 1 5 5 -188 364
-206 383 l-9 9 0 -8z"/>
<path d="M48528 52350 l-17 -10 203 -412 202 -412 12 -4 12 -4 5 14 6 14 -203
412 -203 411 -17 -9z"/>
<path d="M5961 52240 c-1 -19 6 -131 16 -247 l16 -213 6 0 6 0 -13 188 c-7
103 -16 214 -21 247 l-8 60 -2 -35z"/>
<path d="M54305 52117 l-18 -14 7 -12 8 -12 13 11 c7 6 26 13 41 14 l28 3 4
12 4 11 -34 0 -34 0 -19 -13z"/>
<path d="M52724 52058 l-7 -11 11 7 c12 7 16 16 8 16 -3 0 -8 -5 -12 -12z"/>
<path d="M52747 52033 c-4 -3 -7 -11 -7 -17 l0 -10 12 12 c6 6 9 14 7 17 -3 3
-9 2 -12 -2z"/>
<path d="M54377 51973 l-29 -15 9 -9 10 -10 25 10 25 9 6 16 6 16 -12 -1 c-7
-1 -25 -8 -40 -16z"/>
<path d="M13227 51888 c-38 -52 -143 -202 -151 -215 l-7 -13 10 0 10 0 84 118
c46 64 87 123 91 130 l7 12 -10 0 c-5 0 -21 -15 -34 -32z"/>
<path d="M40672 51900 c8 -23 217 -341 241 -367 11 -13 25 -23 31 -23 l10 0
-26 28 c-14 15 -74 101 -133 192 -59 91 -112 170 -117 175 l-11 10 5 -15z"/>
<path d="M18456 51789 c-3 -8 -12 -52 -21 -99 -9 -47 -35 -145 -56 -219 l-40
-133 6 -6 5 -6 8 10 c13 14 80 250 101 356 l20 93 -9 9 -9 9 -5 -14z"/>
<path d="M18510 51788 c0 -26 -57 -266 -84 -358 -33 -107 -37 -137 -17 -114
14 15 77 240 100 353 l21 105 -10 10 c-5 5 -10 7 -10 4z"/>
<path d="M22451 51724 l1 -19 5 13 5 13 -6 6 -6 6 1 -19z"/>
<path d="M32255 51685 c3 -16 50 -318 105 -670 105 -669 108 -690 115 -683 7
7 -204 1340 -215 1363 l-10 20 5 -30z"/>
<path d="M22442 51670 l0 -25 5 13 c2 6 2 18 0 25 l-5 12 0 -25z"/>
<path d="M3720 51660 l0 -10 108 0 109 0 57 -12 58 -11 47 -48 46 -47 84 -139
c47 -76 111 -172 142 -213 l58 -75 101 -58 c55 -32 134 -71 175 -87 l75 -28 0
12 0 12 -56 19 -55 19 -111 62 -110 61 -54 68 c-30 38 -94 133 -142 213 l-87
145 -51 52 -51 52 -58 11 -58 12 -114 0 -113 0 0 -10z"/>
<path d="M22432 51610 l0 -25 5 13 c2 6 2 18 0 25 l-5 12 0 -25z"/>
<path d="M22421 51554 l1 -19 5 13 5 13 -6 6 -6 6 1 -19z"/>
<path d="M22412 51490 l0 -25 5 13 c2 6 2 18 0 25 l-5 12 0 -25z"/>
<path d="M22402 51423 l-2 -32 19 -10 c10 -6 35 -33 56 -60 l38 -49 72 -46
c76 -48 85 -52 85 -37 0 5 -34 31 -75 56 -41 26 -75 50 -75 54 0 4 -20 29 -45
55 l-45 47 -10 -6 -9 -5 -4 32 -4 33 -1 -32z"/>
<path d="M22390 51370 l0 -13 7 6 6 7 -6 7 -7 6 0 -13z"/>
<path d="M91337 51198 l-97 -182 7 -7 8 -8 98 183 c53 100 97 186 97 189 0 26
-27 -16 -113 -175z"/>
<path d="M6053 51265 c4 -11 27 -94 52 -185 57 -204 66 -232 71 -227 7 6 -107
410 -119 422 l-9 10 5 -20z"/>
<path d="M32563 51266 l-191 -11 -9 -8 -8 -9 70 6 c39 3 162 11 275 17 113 6
207 13 209 15 7 6 -133 2 -346 -10z"/>
<path d="M69434 51090 c4 -19 18 -113 31 -209 14 -96 27 -177 30 -179 8 -9 6
17 -22 213 l-26 190 -9 10 -10 10 6 -35z"/>
<path d="M28440 51002 c0 -4 9 -13 20 -20 l20 -12 0 -14 0 -14 14 -5 14 -6 -8
29 c-5 16 -11 34 -15 40 l-6 10 -20 0 -19 0 0 -8z"/>
<path d="M28400 50880 l0 -13 7 6 6 7 -6 7 -7 6 0 -13z"/>
<path d="M33540 50838 c0 -4 29 -194 65 -424 57 -365 75 -467 75 -413 0 30
-129 831 -134 836 l-6 6 0 -5z"/>
<path d="M5710 50822 l0 -8 227 -27 c209 -24 245 -26 231 -12 -5 6 -397 55
-435 55 l-23 0 0 -8z"/>
<path d="M6170 50822 l0 -8 128 -12 128 -12 99 -24 100 -25 8 9 9 8 -109 25
-108 26 -97 10 c-54 6 -111 11 -128 11 l-30 0 0 -8z"/>
<path d="M33500 50822 c0 -14 58 -379 66 -411 3 -13 7 -21 9 -19 6 5 -63 429
-70 437 -3 2 -5 -1 -5 -7z"/>
<path d="M7175 50785 c-44 -8 -81 -14 -83 -14 -2 -1 -1 -5 2 -9 l5 -9 88 14
88 14 140 -2 c159 -2 177 0 120 12 l-40 8 -120 -1 -120 0 -80 -13z"/>
<path d="M32445 50755 c3 -17 19 -117 35 -224 17 -107 33 -197 35 -200 8 -8 7
6 -26 224 l-32 210 -9 10 -8 9 5 -29z"/>
<path d="M22377 50538 c-4 -46 -7 -131 -7 -190 l0 -108 10 0 10 0 0 108 c0 59
3 144 7 190 l6 82 -10 0 -10 0 -6 -82z"/>
<path d="M13960 50575 c0 -6 33 -42 73 -82 l72 -71 50 -28 c28 -15 69 -41 93
-57 24 -16 46 -27 48 -24 5 5 -111 85 -156 107 -14 7 -60 46 -102 88 -43 42
-78 72 -78 67z"/>
<path d="M61110 50380 c0 -6 4 -10 8 -10 4 0 108 -22 230 -48 l222 -49 0 9 c0
4 -2 8 -5 8 -8 0 -428 90 -442 95 l-13 4 0 -9z"/>
<path d="M59550 50118 l0 -43 -25 -60 c-29 -71 -28 -65 -11 -65 l15 0 20 55
21 56 0 49 0 50 -10 0 -10 0 0 -42z"/>
<path d="M17780 50105 l-20 -48 -15 -111 c-8 -61 -17 -123 -20 -138 l-4 -28 7
0 8 0 17 136 17 136 20 46 c11 25 18 47 15 50 -2 3 -14 -17 -25 -43z"/>
<path d="M34187 50028 l-39 -38 4 -11 3 -10 43 39 c23 21 42 44 42 50 0 19
-12 12 -53 -30z"/>
<path d="M84219 49946 c-34 -15 -311 -227 -305 -233 2 -3 60 38 128 90 68 52
139 104 158 116 l35 21 28 0 29 0 26 -16 27 -17 124 -166 c68 -91 121 -159
118 -150 -7 22 -229 320 -253 340 l-19 16 -35 6 -35 5 -26 -12z"/>
<path d="M34180 49932 c0 -7 21 -25 82 -70 l18 -13 0 13 -1 13 -43 33 c-44 33
-56 38 -56 24z"/>
<path d="M33670 49879 c0 -17 38 -321 46 -368 3 -18 7 -31 10 -28 6 5 -43 398
-51 405 -3 3 -5 -1 -5 -9z"/>
<path d="M22380 49751 l0 -11 73 0 c41 0 130 -3 198 -6 l124 -7 -10 11 -10 10
-187 7 -188 7 0 -11z"/>
<path d="M29005 49749 c-175 -8 -165 -7 -165 -19 l0 -10 83 5 c45 3 139 8 210
11 l127 6 0 9 0 9 -57 -2 c-32 -1 -121 -5 -198 -9z"/>
<path d="M70940 49600 c-43 -9 -271 -99 -250 -100 9 0 66 20 128 45 l112 45
92 0 c105 0 113 5 18 12 l-65 4 -35 -6z"/>
<path d="M69416 49308 c-4 -62 -16 -167 -27 -233 -10 -66 -19 -124 -19 -129
l0 -9 6 5 c10 10 43 240 50 347 l7 104 246 -7 c135 -3 327 -9 426 -12 l180 -7
-6 7 -7 7 -408 13 -409 12 -16 8 -16 7 -7 -113z"/>
<path d="M63400 49271 c0 -12 16 -17 100 -31 36 -7 166 -36 290 -67 l225 -55
123 -18 123 -18 54 5 55 6 0 8 0 9 -70 0 -70 0 -98 15 c-53 8 -191 37 -306 65
-214 52 -387 90 -412 90 l-14 0 0 -9z"/>
<path d="M74212 49110 c-29 -4 -56 -11 -60 -14 l-6 -7 69 7 c39 4 71 8 73 9 2
2 25 -4 50 -12 l47 -16 50 -39 c28 -22 62 -54 76 -72 l27 -31 215 -430 c119
-237 216 -425 216 -419 1 7 -95 205 -211 440 l-213 429 -57 57 -58 56 -45 22
-45 22 -38 3 c-20 2 -61 0 -90 -5z"/>
<path d="M80895 49020 l-6 -9 53 -27 c29 -14 63 -35 75 -47 l23 -20 7 7 7 7
-10 17 -11 17 -59 32 c-65 36 -70 37 -79 23z"/>
<path d="M64720 49011 c0 -5 30 -26 66 -46 l66 -36 112 -28 c61 -16 125 -31
143 -34 l31 -6 5 12 5 13 -71 13 c-39 7 -107 24 -151 37 l-79 24 -53 30 c-56
31 -74 36 -74 21z"/>
<path d="M73125 48956 l-70 -12 -30 -16 c-43 -23 -89 -75 -119 -135 l-26 -52
1 -23 1 -23 7 25 c5 14 20 48 34 75 l25 50 29 26 c15 15 46 36 68 47 l40 20
61 7 c33 3 67 11 75 16 l14 9 -20 -1 c-11 -1 -51 -7 -90 -13z"/>
<path d="M75926 48952 l-7 -12 27 -36 27 -35 30 -15 29 -15 6 6 7 7 -19 12
c-26 15 -47 35 -72 70 l-21 29 -7 -11z"/>
<path d="M91417 48678 c-81 -94 -147 -176 -147 -182 l0 -10 8 10 c5 5 64 74
132 154 68 80 132 155 143 167 11 13 18 25 15 28 -2 3 -70 -73 -151 -167z"/>
<path d="M75975 48758 c-14 -29 -25 -61 -25 -70 l0 -18 10 0 10 0 0 13 c0 6
11 36 25 64 l24 53 -10 5 -9 6 -25 -53z"/>
<path d="M35245 48676 l-190 -11 10 -6 10 -5 240 12 c132 7 251 15 265 17 50
8 -149 4 -335 -7z"/>
<path d="M39907 48650 l-5 -20 8 0 c4 0 10 9 13 20 l5 20 -8 0 c-4 0 -10 -9
-13 -20z"/>
<path d="M33900 48605 c-228 -13 -428 -25 -445 -28 l-30 -4 45 -1 c72 -2 941
46 947 52 l6 6 -54 -1 c-30 -1 -241 -12 -469 -24z"/>
<path d="M14462 48536 l-43 -74 -34 -26 c-42 -32 -153 -86 -177 -86 l-18 0 0
-9 0 -9 43 13 c71 22 118 45 158 77 l38 30 41 71 c22 39 39 74 38 78 -2 5 -22
-25 -46 -65z"/>
<path d="M14505 48528 c-16 -29 -47 -72 -69 -96 l-40 -44 -60 -30 c-33 -17
-79 -36 -101 -43 l-40 -13 18 -1 c10 -1 52 12 95 29 l77 30 46 47 46 48 36 63
36 62 -8 0 c-4 0 -21 -23 -36 -52z"/>
<path d="M33901 48565 c-2 -23 50 -418 56 -424 11 -14 7 27 -22 224 -18 121
-33 211 -34 200z"/>
<path d="M33854 48550 c3 -14 17 -114 32 -222 l27 -198 7 0 6 0 -30 214 -31
214 -8 9 -9 8 6 -25z"/>
<path d="M83747 48388 c6 -7 63 -84 126 -170 64 -87 119 -158 122 -158 9 0 -3
18 -125 183 -63 86 -119 157 -124 157 l-8 0 9 -12z"/>
<path d="M37408 48126 l-216 -11 -9 -9 -8 -9 70 6 c39 4 143 9 233 13 l162 7
0 8 c0 5 -3 8 -7 8 -5 -1 -106 -7 -225 -13z"/>
<path d="M37895 48109 c-77 -4 -264 -13 -415 -19 l-275 -13 -15 -9 -15 -9 150
6 c83 3 206 10 275 15 69 5 204 12 300 16 l175 6 15 9 15 8 -35 -1 c-19 0 -98
-4 -175 -9z"/>
<path d="M74981 47958 c29 -57 67 -136 86 -177 18 -41 35 -72 38 -69 7 7 -157
348 -167 348 l-8 0 51 -102z"/>
<path d="M74980 48050 c0 -9 157 -329 166 -339 2 -2 6 -2 9 1 6 6 -161 348
-170 348 -3 0 -5 -5 -5 -10z"/>
<path d="M47600 47860 c8 -5 48 -21 90 -36 l75 -28 83 -69 c45 -38 85 -68 87
-65 2 2 -33 35 -78 73 l-82 70 -85 32 c-47 18 -89 33 -95 33 l-10 0 15 -10z"/>
<path d="M75275 47720 c-473 -65 -966 -132 -1095 -150 -129 -17 -332 -45 -450
-61 -118 -17 -375 -52 -570 -80 l-355 -49 -92 0 -92 0 6 -16 6 -17 106 7 c96
6 400 45 991 127 309 43 539 74 1510 204 476 64 880 118 898 121 l32 6 0 14 0
14 -17 -1 c-10 -1 -405 -54 -878 -119z"/>
<path d="M53608 47744 l-28 -15 40 -82 c82 -167 129 -251 138 -243 2 3 0 12
-7 19 -6 8 -43 79 -82 157 l-71 144 24 18 c28 21 23 22 -14 2z"/>
<path d="M21841 47736 c2 -2 83 -25 179 -50 96 -26 181 -49 188 -51 l12 -4 0
7 0 7 -182 48 c-172 45 -207 53 -197 43z"/>
<path d="M22340 47610 c8 -5 22 -10 30 -10 l15 0 -15 10 c-8 5 -22 10 -30 10
l-15 0 15 -10z"/>
<path d="M90161 47290 c-78 -88 -145 -168 -148 -178 -4 -9 62 61 146 156 84
95 151 175 149 178 -3 2 -69 -68 -147 -156z"/>
<path d="M22279 47313 c-1 -71 -4 -190 -8 -266 l-6 -137 6 0 c13 0 18 61 25
293 l7 237 -11 0 -12 0 -1 -127z"/>
<path d="M18603 47327 c-123 -50 -221 -92 -219 -94 5 -5 438 167 451 178 l9 9
-9 -1 c-6 0 -110 -42 -232 -92z"/>
<path d="M39423 47390 c4 -14 26 -107 49 -207 l43 -183 8 0 8 0 -5 18 c-3 9
-24 98 -47 197 l-41 180 -10 10 -11 10 6 -25z"/>
<path d="M35907 47160 l5 -175 9 -15 8 -15 -6 115 c-3 63 -9 149 -13 190 l-8
75 5 -175z"/>
<path d="M57097 47083 l-4 -8 93 -192 93 -193 10 0 10 0 -96 198 c-107 220
-99 206 -106 195z"/>
<path d="M46250 47003 c0 -4 16 -18 36 -31 l36 -24 -4 12 c-2 6 -18 20 -36 31
l-32 21 0 -9z"/>
<path d="M45668 46911 c-125 -37 -230 -70 -234 -74 l-7 -7 7 0 c18 0 462 133
471 141 l9 9 -9 -1 c-6 0 -112 -31 -237 -68z"/>
<path d="M34750 46751 l0 -181 15 0 15 0 -2 177 -3 176 -12 5 -13 4 0 -181z"/>
<path d="M20590 46738 l0 -23 -23 -47 -22 -47 -43 -45 -42 -46 -81 -37 -82
-37 10 -3 c6 -2 48 14 94 37 l83 40 34 33 34 32 19 44 c11 24 23 61 28 82 l9
39 -9 0 -9 0 0 -22z"/>
<path d="M34603 46543 l-63 -4 0 -12 0 -12 91 3 90 3 -4 12 -4 12 -24 1 c-13
0 -52 -1 -86 -3z"/>
<path d="M35310 46499 c-267 -15 -497 -28 -512 -28 l-28 -1 0 -15 c0 -8 3 -15
8 -15 4 0 250 14 547 30 297 16 588 30 648 30 l107 0 0 15 0 15 -142 -1 c-79
-1 -361 -14 -628 -30z"/>
<path d="M20245 46394 c-33 -14 -98 -38 -144 -55 -109 -38 -231 -92 -231 -101
l0 -8 58 26 c31 15 104 44 162 64 118 42 220 86 220 94 0 8 4 9 -65 -20z"/>
<path d="M50972 46043 c99 -186 184 -342 190 -348 l11 -10 -4 11 c-12 32 -364
684 -370 684 -4 0 74 -152 173 -337z"/>
<path d="M24735 46285 c-5 -2 -27 -6 -47 -10 l-38 -6 0 -12 0 -13 70 10 70 10
141 -28 141 -28 6 7 6 6 -13 8 c-28 18 -311 65 -336 56z"/>
<path d="M28370 46281 l-85 -6 -3 -13 -2 -12 82 5 c46 3 136 8 201 11 l117 6
0 9 0 9 -112 -2 c-62 -1 -151 -4 -198 -7z"/>
<path d="M30768 46283 l-58 -4 0 -11 0 -11 173 6 c94 4 198 7 230 7 l57 0 0
10 0 10 -172 -2 c-95 -1 -199 -3 -230 -5z"/>
<path d="M19840 46246 c0 -13 91 -198 95 -194 6 5 -82 198 -90 198 -3 0 -5 -2
-5 -4z"/>
<path d="M28423 46176 l-162 -12 -7 -7 -7 -7 6 -6 6 -6 168 11 c92 6 201 14
241 17 l72 6 0 9 0 9 -77 -1 c-43 -1 -151 -7 -240 -13z"/>
<path d="M92934 46146 l-20 -14 -122 -13 -122 -12 0 -6 0 -7 125 13 125 13 21
10 20 11 35 -28 c20 -15 53 -40 75 -54 l39 -26 56 -7 55 -6 42 -22 42 -22 55
2 55 1 73 39 72 38 -7 7 -6 7 -61 -34 -61 -33 -48 -7 -47 -7 -57 25 -58 25
-50 6 -50 7 -30 15 c-16 9 -51 33 -76 54 -26 22 -49 39 -51 39 -2 0 -13 -6
-24 -14z"/>
<path d="M93080 46109 c0 -5 11 -16 24 -24 l23 -16 54 -5 54 -6 35 -17 c19
-10 53 -21 76 -25 l40 -6 72 35 72 34 0 10 0 10 -72 -34 -72 -35 -27 0 -26 0
-47 25 -47 25 -42 0 -43 0 -37 19 -37 19 0 -9z"/>
<path d="M81105 46011 l24 -49 27 -21 27 -21 28 0 28 0 46 22 c25 12 45 26 45
30 0 12 -7 10 -50 -12 l-39 -20 -26 0 c-15 0 -35 5 -46 10 l-19 11 -25 49 -25
50 -10 0 -10 0 25 -49z"/>
<path d="M93030 46036 l-11 -15 -82 -31 -82 -31 -29 5 -29 6 -94 -6 -93 -7 0
-10 0 -9 17 6 c9 4 70 7 137 7 l120 1 65 25 66 26 25 23 25 24 -12 0 c-6 0
-16 -6 -23 -14z"/>
<path d="M81344 45948 l-7 -11 11 7 c7 4 12 9 12 12 0 8 -9 4 -16 -8z"/>
<path d="M81372 45893 c-5 -10 -17 -47 -27 -83 -9 -36 -25 -81 -35 -101 l-18
-35 -27 -12 -28 -13 6 -6 6 -6 31 13 31 13 15 36 c18 41 65 211 59 211 -3 0
-8 -8 -13 -17z"/>
<path d="M90385 45860 l-140 -7 -45 -13 c-25 -7 -49 -17 -54 -21 l-10 -9 13 0
c7 0 39 6 70 14 l56 14 178 7 177 7 0 9 0 9 -52 -2 c-29 -1 -116 -5 -193 -8z"/>
<path d="M81316 45838 c-2 -7 -14 -41 -26 -75 l-22 -62 -15 -5 c-8 -3 -23 -6
-34 -6 l-19 0 0 -10 c0 -13 10 -13 47 1 l31 10 15 42 c20 54 37 117 31 117 -3
0 -6 -6 -8 -12z"/>
<path d="M51940 45791 c0 -18 194 -424 198 -413 2 8 -47 117 -152 331 -25 52
-46 89 -46 82z"/>
<path d="M81252 45610 c0 -14 -3 -36 -6 -50 l-7 -25 16 29 17 28 -10 22 -10
21 0 -25z"/>
<path d="M94435 44524 c-71 -53 -132 -100 -134 -106 l-4 -11 14 9 c15 9 220
156 258 186 l24 18 -14 0 c-8 -1 -72 -44 -144 -96z"/>
<path d="M47016 44569 l-100 -39 -69 0 -68 0 -20 10 -19 11 0 -10 c0 -15 29
-21 111 -21 l79 0 92 36 c51 21 97 41 103 45 l9 9 -9 -1 c-6 0 -55 -18 -109
-40z"/>
<path d="M52541 44514 c-1 -16 120 -268 133 -276 6 -4 13 -5 15 -2 3 3 0 8 -6
12 -6 4 -40 68 -76 142 -36 74 -66 130 -66 124z"/>
<path d="M26170 44470 l-55 -7 71 -1 70 -2 70 -24 c61 -21 186 -79 517 -241
l98 -47 6 6 6 6 -59 26 c-32 15 -162 76 -289 136 -203 97 -357 161 -374 156
-3 -1 -31 -4 -61 -8z"/>
<path d="M26560 44381 c1 -9 399 -195 405 -189 3 2 -87 47 -200 100 -113 53
-205 93 -205 89z"/>
<path d="M41602 44248 c-7 -7 -12 -16 -12 -22 l0 -10 12 12 c7 7 20 12 31 12
l18 0 -6 10 c-8 14 -28 13 -43 -2z"/>
<path d="M87949 44023 c-17 -32 -41 -74 -52 -93 l-20 -35 15 15 c17 17 102
170 94 170 -2 0 -19 -26 -37 -57z"/>
<path d="M52535 44020 l-6 -9 97 -206 c54 -113 100 -205 103 -205 3 0 12 4 19
8 l12 8 -97 207 -98 207 -12 0 c-6 0 -15 -4 -18 -10z"/>
<path d="M87850 43886 c0 -11 211 -349 228 -366 l16 -15 -16 25 c-65 105 -221
356 -224 359 -2 2 -4 1 -4 -3z"/>
<path d="M54230 43773 c0 -15 350 -817 362 -828 l11 -10 -6 15 c-13 36 -359
825 -363 829 -2 2 -4 0 -4 -6z"/>
<path d="M11221 43149 c-13 -39 -13 -39 -2 -39 l9 0 7 31 c9 42 0 47 -14 8z"/>
<path d="M29450 43125 c0 -2 24 -17 53 -31 70 -36 125 -74 230 -161 117 -96
132 -94 20 3 -105 90 -186 148 -249 174 -49 21 -54 23 -54 15z"/>
<path d="M10490 42985 c0 -11 5 -27 10 -35 l10 -15 0 20 c0 11 -5 27 -10 35
l-10 15 0 -20z"/>
<path d="M50818 42857 l-138 -20 0 -7 0 -6 150 21 c82 12 153 25 157 28 l6 7
-19 -1 c-10 -1 -81 -11 -156 -22z"/>
<path d="M54038 42609 c-109 -54 -198 -101 -198 -104 0 -5 189 83 325 153
l100 51 -15 0 c-8 0 -104 -45 -212 -100z"/>
<path d="M31880 42689 l0 -12 -157 -153 -157 -153 6 -7 7 -6 128 121 c159 151
217 221 183 221 -5 0 -10 -5 -10 -11z"/>
<path d="M33746 42491 l-56 -89 -43 -38 -42 -38 -22 -53 c-12 -29 -20 -53 -17
-53 3 0 14 21 25 47 l20 48 34 27 33 28 54 82 c58 88 81 128 75 128 -3 0 -30
-40 -61 -89z"/>
<path d="M51445 42555 c11 -67 115 -840 115 -852 0 -7 4 -13 8 -13 l8 0 -53
403 -54 402 -14 45 -15 45 5 -30z"/>
<path d="M51401 42568 c-1 -8 57 -382 65 -417 3 -13 7 -21 10 -19 6 7 -55 398
-66 423 -5 11 -9 17 -9 13z"/>
<path d="M39578 42380 l-67 -91 -6 -52 -7 -53 11 -69 10 -70 -4 80 -5 80 13
51 13 50 62 82 c35 45 59 82 54 82 -4 0 -38 -41 -74 -90z"/>
<path d="M54578 41937 c-86 -62 -157 -116 -157 -121 l-1 -8 13 5 c25 9 317
220 317 229 0 15 -15 6 -172 -105z"/>
<path d="M46595 41877 l-190 -83 -223 -80 c-122 -43 -218 -80 -214 -82 24 -8
802 295 831 324 14 13 -35 -5 -204 -79z"/>
<path d="M54373 41783 l7 -6 7 6 6 7 -13 0 -13 0 6 -7z"/>
<path d="M30914 41633 c-34 -53 -110 -126 -206 -201 -87 -66 -112 -92 -92 -92
10 0 175 130 222 174 42 40 112 127 112 140 0 15 -19 4 -36 -21z"/>
<path d="M82732 41628 c8 -13 115 -186 238 -385 122 -200 227 -363 231 -363
19 0 6 26 -79 163 -49 78 -153 247 -232 375 l-143 232 -15 0 -14 0 14 -22z"/>
<path d="M93140 41352 c0 -16 91 -142 103 -142 l9 0 -48 68 c-26 37 -51 71
-56 77 l-8 9 0 -12z"/>
<path d="M28445 41181 l-7 -40 8 -58 c9 -78 26 -122 81 -218 26 -44 48 -82 49
-84 2 -1 7 -1 13 0 l11 4 -45 75 c-25 41 -57 106 -71 144 l-27 69 7 73 6 74
-9 0 -9 0 -7 -39z"/>
<path d="M28960 41150 l0 -9 33 -5 c17 -3 51 -7 74 -11 23 -3 80 -18 125 -33
l83 -28 141 -106 141 -106 59 -30 59 -29 48 -7 48 -7 29 6 c17 4 30 10 30 13
l0 7 -75 2 -76 2 -57 32 c-31 18 -119 79 -195 136 l-138 104 -42 18 c-51 22
-163 48 -234 55 l-53 5 0 -9z"/>
<path d="M29421 41033 c1 -14 112 -99 188 -144 l75 -44 68 -3 68 -4 0 9 0 10
-66 6 -66 6 -64 36 c-35 20 -91 58 -125 85 -60 48 -80 59 -78 43z"/>
<path d="M53380 40558 c-13 -18 -35 -55 -48 -83 l-24 -50 -29 -159 -29 -160
-10 -6 -11 -7 7 -17 7 -17 13 5 14 5 367 -73 c203 -40 381 -76 396 -78 l28 -5
-4 10 -3 10 -387 77 c-213 42 -390 79 -393 82 -3 3 7 73 21 154 l26 149 24 58
c14 32 36 73 50 91 14 18 25 36 25 39 0 16 -18 5 -40 -25z"/>
<path d="M60462 40485 c2 -3 123 -23 267 -45 145 -22 283 -45 308 -51 l44 -12
114 -73 c63 -40 115 -70 115 -66 0 4 -46 37 -103 74 l-102 68 -45 14 -45 15
-267 41 c-275 41 -295 44 -286 35z"/>
<path d="M58060 40230 l0 -220 10 0 10 0 0 220 0 220 -10 0 -10 0 0 -220z"/>
<path d="M54676 40022 l-5 -8 125 -182 125 -181 14 6 15 5 -63 92 c-35 50 -92
133 -127 184 -62 90 -73 101 -84 84z"/>
<path d="M84816 39970 c4 -8 49 -76 99 -150 51 -74 106 -161 124 -192 18 -32
37 -61 43 -64 l11 -7 -33 59 c-44 79 -207 324 -233 349 l-20 20 9 -15z"/>
<path d="M84777 39946 l-5 -12 -281 -179 c-155 -98 -285 -183 -288 -188 l-6
-10 14 8 c8 4 141 89 297 188 156 98 284 178 286 176 55 -74 198 -299 334
-524 96 -159 176 -292 178 -294 54 -61 -302 532 -429 716 -42 61 -74 113 -71
116 3 2 -2 7 -10 10 l-14 6 -5 -13z"/>
<path d="M59877 39678 c-5 -22 -11 -276 -8 -380 l1 -48 8 0 7 0 1 225 c0 124
0 225 -2 225 -1 0 -4 -10 -7 -22z"/>
<path d="M45410 39655 c0 -11 5 -27 10 -35 l10 -15 0 20 c0 11 -5 27 -10 35
l-10 15 0 -20z"/>
<path d="M52013 38984 c5 -6 407 -84 430 -84 6 0 8 2 5 5 -5 5 -411 85 -432
85 l-9 0 6 -6z"/>
<path d="M94920 38956 c0 -12 302 -427 307 -422 3 3 -59 94 -138 203 -146 204
-169 233 -169 219z"/>
<path d="M94891 38920 c92 -133 296 -409 302 -410 5 0 -13 31 -40 68 -183 258
-259 361 -267 362 l-8 0 13 -20z"/>
<path d="M52891 38816 c7 -7 432 -87 437 -82 6 6 -9 10 -228 51 -179 34 -218
40 -209 31z"/>
<path d="M53345 38773 l10 -10 203 -37 c112 -21 206 -35 209 -33 5 6 -26 12
-242 52 -77 15 -151 29 -165 32 l-25 6 10 -10z"/>
<path d="M55346 38701 l-8 -12 58 -65 c31 -36 102 -104 156 -151 l99 -86 11
11 c7 7 10 13 7 15 -41 29 -173 150 -235 215 l-81 86 -7 -13z"/>
<path d="M60222 38356 c-29 -42 -78 -104 -110 -139 -31 -34 -67 -75 -81 -91
l-26 -29 12 4 c16 6 146 152 210 237 l54 73 -3 10 -3 10 -53 -75z"/>
<path d="M89040 38229 c-91 -60 -167 -115 -169 -121 l-4 -12 29 19 c221 144
314 209 314 216 0 12 18 22 -170 -102z"/>
<path d="M85850 38246 c0 -13 262 -428 267 -423 4 5 -238 400 -258 422 l-9 9
0 -8z"/>
<path d="M84873 38192 l-11 -7 128 -175 c70 -96 133 -176 139 -178 l11 -4 0
10 c0 5 -57 88 -126 183 -70 96 -128 175 -128 176 -1 1 -7 -1 -13 -5z"/>
<path d="M60135 37955 c66 -63 138 -129 160 -146 l40 -31 -130 127 c-71 69
-143 135 -160 146 l-30 21 120 -117z"/>
<path d="M60365 37792 c11 -11 84 -78 162 -151 l141 -132 5 8 4 8 -153 143
-153 142 -13 0 -12 0 19 -18z"/>
<path d="M85129 37753 c0 -16 -4 -66 -8 -112 l-8 -84 160 -249 c88 -137 162
-247 164 -244 2 2 -66 114 -152 247 l-157 244 7 112 7 113 -6 0 c-3 0 -6 -12
-7 -27z"/>
<path d="M86660 37572 c-110 -74 -240 -171 -240 -179 0 -8 63 33 127 85 37 29
106 78 155 109 48 30 88 57 88 59 0 11 -26 -3 -130 -74z"/>
<path d="M58800 37630 c0 -16 55 -39 147 -61 l88 -20 85 6 85 6 63 21 62 20 0
8 0 9 -70 -24 -71 -24 -82 -2 -82 -2 -80 18 -80 17 -32 19 -33 18 0 -9z"/>
<path d="M90530 37550 l0 -10 38 1 c20 0 46 4 57 9 l20 9 -57 0 -58 1 0 -10z"/>
<path d="M86157 37278 c-125 -83 -226 -153 -223 -155 3 -4 439 278 461 298 l9
9 -9 0 c-6 -1 -113 -69 -238 -152z"/>
<path d="M85650 36785 c0 -8 191 -317 218 -352 43 -57 35 -29 -11 38 -24 35
-79 121 -121 192 -71 115 -86 137 -86 122z"/>
<path d="M40363 36522 l-213 -46 0 -7 0 -7 18 4 c9 2 111 24 226 49 193 41
249 56 200 54 -10 0 -115 -21 -231 -47z"/>
<path d="M40074 36504 c-5 -2 -66 -10 -135 -17 l-124 -12 -3 -97 -3 -98 8 0 8
0 0 93 0 92 85 6 c88 6 230 28 230 35 0 5 -52 4 -66 -2z"/>
<path d="M53767 36448 c-3 -13 -22 -106 -42 -208 l-37 -185 -10 -12 -10 -13
10 0 c5 0 14 6 19 13 l10 12 37 190 c20 105 39 198 42 208 l5 17 -9 0 -10 0
-5 -22z"/>
<path d="M41044 36015 c3 -16 15 -97 26 -180 24 -174 30 -208 36 -202 3 3 -7
92 -22 198 l-27 194 -10 10 -9 10 6 -30z"/>
<path d="M80830 35970 c0 -10 -344 -198 -635 -347 -132 -67 -236 -123 -231
-123 18 0 441 217 780 402 l90 49 11 -13 c7 -7 60 -93 120 -191 59 -98 112
-180 118 -184 l9 -5 -12 22 c-7 13 -60 100 -118 194 l-106 171 1 16 2 16 -15
0 c-8 0 -14 -4 -14 -7z"/>
<path d="M60516 35901 l-6 -9 215 -117 216 -118 6 7 c9 8 18 2 -172 106 -93
51 -189 103 -212 116 l-42 24 -5 -9z"/>
<path d="M84160 35680 c21 -40 221 -384 228 -390 24 -21 -197 370 -226 400
l-14 15 12 -25z"/>
<path d="M41764 35677 l19 -14 -5 -27 -6 -28 10 10 10 10 -4 28 -3 29 -20 3
-20 4 19 -15z"/>
<path d="M84840 35610 c-54 -36 -42 -40 15 -5 l40 24 40 0 40 0 26 -22 26 -22
53 -95 c29 -52 81 -133 115 -180 35 -47 119 -177 187 -290 69 -113 150 -247
182 -297 l57 -92 19 -14 20 -14 -207 -128 -207 -129 12 -4 12 -4 196 121 195
122 10 -6 9 -6 -2 10 -3 10 465 288 c256 158 477 297 490 308 24 19 60 68 60
80 0 4 -5 5 -11 3 -6 -2 -10 -7 -9 -12 1 -4 -14 -22 -34 -39 l-36 -32 -466
-289 -466 -288 -18 18 c-10 11 -64 93 -121 184 -56 91 -143 230 -192 310 -49
79 -113 176 -142 215 -29 38 -76 113 -105 165 l-52 95 -27 22 -26 22 -50 1
-50 0 -45 -30z"/>
<path d="M84916 35603 c-21 -6 -464 -288 -486 -311 l-15 -15 15 8 c8 4 119 75
246 156 l231 149 27 0 26 0 20 -20 c11 -11 33 -45 49 -77 17 -32 44 -78 60
-103 l31 -45 0 17 c0 9 -4 20 -10 23 -5 3 -33 49 -61 101 l-51 94 -21 15 c-22
15 -28 16 -61 8z"/>
<path d="M33959 35402 c-153 -168 -164 -181 -157 -187 2 -3 56 52 119 123 63
70 131 146 153 170 l39 42 -11 0 c-5 0 -70 -66 -143 -148z"/>
<path d="M85380 34948 c0 -14 180 -298 227 -357 2 -2 5 -2 8 1 3 3 -8 22 -24
42 -17 21 -65 95 -107 164 -72 118 -104 165 -104 150z"/>
<path d="M78410 34809 c-135 -72 -276 -147 -315 -167 -141 -73 -185 -103 -185
-127 l0 -10 8 11 c12 20 129 86 435 249 250 133 326 176 305 175 -2 0 -113
-59 -248 -131z"/>
<path d="M80303 34906 c3 -8 82 -157 176 -332 94 -175 171 -321 171 -326 0 -4
4 -8 8 -8 12 0 175 89 187 102 5 6 -30 -10 -79 -35 -48 -26 -92 -47 -96 -47
-5 0 -88 149 -185 330 -97 182 -179 330 -182 330 -3 0 -3 -6 0 -14z"/>
<path d="M29890 34742 c0 -23 180 -411 365 -787 103 -209 196 -400 206 -424
11 -24 22 -41 25 -38 3 2 -90 200 -206 438 -117 239 -250 520 -297 624 -89
198 -93 206 -93 187z"/>
<path d="M85644 34548 l-7 -11 11 7 c12 7 16 16 8 16 -3 0 -8 -5 -12 -12z"/>
<path d="M77627 34453 c-92 -47 -165 -88 -163 -90 2 -2 77 33 167 78 l164 83
50 7 50 6 -50 1 -50 1 -168 -86z"/>
<path d="M57464 34515 c16 -45 192 -405 198 -405 8 0 -179 401 -194 415 l-11
10 7 -20z"/>
<path d="M80528 34398 c16 -29 48 -88 71 -130 l42 -78 10 0 c15 0 219 114 219
122 0 3 -45 -18 -100 -48 -55 -30 -106 -54 -113 -54 l-14 0 -64 120 c-35 66
-68 120 -72 120 l-8 0 29 -52z"/>
<path d="M71655 34350 c116 -4 320 -7 455 -7 l245 1 -220 7 c-121 3 -326 6
-455 6 l-235 -1 210 -6z"/>
<path d="M53978 34021 l-187 -26 -8 -9 -8 -8 30 6 c17 3 118 17 225 32 107 14
197 28 199 30 9 8 -69 1 -251 -25z"/>
<path d="M82491 34043 c6 -19 260 -325 266 -320 4 4 -223 286 -259 322 l-10
10 3 -12z"/>
<path d="M34699 33982 l-76 -27 -29 -25 c-26 -23 -84 -102 -84 -115 0 -14 18
-2 28 19 6 14 27 43 47 65 l36 40 81 27 80 26 50 -4 49 -5 -8 8 c-4 4 -28 10
-53 13 l-45 5 -76 -27z"/>
<path d="M57840 33699 c0 -3 18 -46 39 -96 l39 -89 22 -110 c24 -124 30 -147
36 -141 2 2 -7 60 -21 128 l-25 124 -36 85 c-32 74 -54 115 -54 99z"/>
<path d="M82730 33691 c0 -8 168 -198 261 -296 l19 -19 0 9 c0 6 -63 79 -140
163 -77 84 -140 148 -140 143z"/>
<path d="M1611 33016 c2 -3 81 -10 174 -16 94 -6 185 -12 203 -15 l32 -4 0 8
0 8 -177 11 c-191 13 -239 14 -232 8z"/>
<path d="M83305 32884 c-28 -13 -61 -33 -75 -44 l-25 -20 80 36 c90 40 90 40
78 47 l-8 5 -50 -24z"/>
<path d="M34525 32705 c-120 -73 -221 -137 -223 -143 -2 -6 1 -13 6 -15 l8 -6
140 84 c76 46 174 105 216 130 43 26 81 51 84 57 l6 10 -8 8 -9 7 -220 -132z"/>
<path d="M73125 32235 c-44 -8 -81 -14 -82 -14 -2 -1 -3 -8 -3 -16 l0 -16 33
6 c17 3 65 11 106 18 l74 12 5 13 4 12 -29 -1 c-15 -1 -64 -7 -108 -14z"/>
<path d="M82440 31936 c0 -23 -32 -161 -41 -178 -7 -13 -31 -48 -54 -78 l-43
-55 -41 -30 -41 -30 0 -13 0 -13 21 12 c12 6 49 39 83 73 l61 62 26 50 27 49
6 50 c4 28 9 62 12 78 l6 27 -11 0 c-6 0 -11 -2 -11 -4z"/>
<path d="M98818 31737 l-27 -11 -10 -29 -11 -29 29 31 29 31 29 0 28 0 -15 10
c-17 11 -16 11 -52 -3z"/>
<path d="M98907 31692 c78 -120 270 -392 276 -392 4 0 -33 60 -83 133 -51 72
-115 167 -144 209 -28 43 -55 78 -59 78 l-9 0 19 -28z"/>
<path d="M8 29163 l13 -5 6 6 6 6 -19 -1 -19 -1 13 -5z"/>
<path d="M84006 29021 l-5 -8 132 -132 c73 -72 142 -138 155 -147 l23 -16 7 6
6 7 -149 149 c-83 83 -153 150 -157 150 -4 0 -9 -4 -12 -9z"/>
<path d="M84970 27872 c0 -7 49 -64 252 -293 l57 -64 10 14 9 14 -91 101 c-51
56 -118 131 -151 169 l-58 67 -14 0 c-8 0 -14 -4 -14 -8z"/>
<path d="M96055 27326 c-99 -73 -350 -257 -558 -409 l-377 -276 7 -4 8 -5 380
279 c655 481 735 540 735 545 0 11 -29 -8 -195 -130z"/>
<path d="M95015 26868 c-209 -153 -382 -284 -384 -290 l-3 -10 53 39 c30 22
200 147 379 277 342 251 346 254 339 259 -2 2 -175 -122 -384 -275z"/>
<path d="M23645 26490 c31 -8 112 -13 104 -6 -2 2 -33 6 -69 9 l-65 5 30 -8z"/>
<path d="M23778 26473 c12 -2 30 -2 40 0 l17 5 -40 -1 -40 0 23 -4z"/>
<path d="M23858 26463 c12 -2 30 -2 40 0 l17 5 -40 -1 -40 0 23 -4z"/>
<path d="M24383 26403 c9 -2 25 -2 35 0 l17 5 -35 0 -35 0 18 -5z"/>
<path d="M24473 26393 c15 -2 37 -2 50 0 l22 4 -50 0 -50 0 28 -4z"/>
<path d="M87395 25990 l-5 -9 202 -160 202 -160 9 6 c4 3 7 6 5 8 -2 1 -94 75
-205 163 l-202 161 -6 -9z"/>
<path d="M10855 25499 c-12 -35 -96 -452 -92 -462 l4 -12 13 60 c6 33 29 141
50 240 21 99 37 182 34 184 -2 2 -6 -2 -9 -10z"/>
<path d="M87674 25410 c27 -30 85 -109 130 -176 l82 -120 73 -170 73 -169 78
-113 78 -113 7 10 6 11 -73 107 -73 107 -76 171 -76 171 -70 104 -71 105 -68
65 -68 65 48 -55z"/>
<path d="M4496 25025 l6 -25 -6 -25 -6 -25 -31 -35 c-18 -20 -83 -76 -145
-126 -102 -80 -130 -109 -106 -109 9 0 180 136 236 188 23 21 49 50 59 65 l17
26 0 46 0 45 -15 0 -15 0 6 -25z"/>
<path d="M4444 25015 l6 -25 -37 -41 c-28 -31 -175 -156 -242 -205 -1 -2 -1
-7 0 -13 l4 -11 95 76 c116 92 179 152 190 180 l9 22 -6 21 -5 21 -10 0 -10 0
6 -25z"/>
<path d="M87028 24893 l-47 -46 -25 16 c-14 10 -31 17 -38 17 l-12 0 -248
-247 c-136 -136 -248 -252 -248 -258 0 -5 111 101 248 238 l247 247 17 0 c9 0
20 -4 23 -10 l6 -10 23 0 22 0 44 45 c24 24 42 47 39 49 -3 3 -26 -16 -51 -41z"/>
<path d="M90495 24839 c100 -11 338 -46 373 -55 l22 -6 0 9 0 9 -147 23 -148
23 -95 3 -95 4 90 -10z"/>
<path d="M19040 21644 c-102 -12 -192 -23 -199 -23 l-15 -1 12 -12 12 -12 187
23 c104 12 205 25 226 28 l37 6 0 8 0 9 -37 -1 c-21 -1 -121 -12 -223 -25z"/>
<path d="M89545 20878 c-77 -71 -142 -135 -144 -141 -4 -11 65 49 224 196 39
36 68 67 65 70 -3 2 -68 -54 -145 -125z"/>
<path d="M87080 20484 c0 -17 582 -619 614 -635 l21 -11 -185 188 c-102 104
-245 251 -318 327 -73 76 -132 135 -132 131z"/>
<path d="M87171 20318 c74 -78 219 -227 322 -331 l188 -190 6 7 6 6 -99 94
c-54 52 -198 198 -319 325 -121 127 -224 231 -229 231 -4 0 52 -64 125 -142z"/>
<path d="M7752 17945 c0 -16 3 -39 8 -50 l9 -20 -1 25 c0 14 -4 36 -8 50 l-8
25 0 -30z"/>
<path d="M92930 16991 c0 -9 290 -268 555 -496 180 -155 740 -639 774 -669
l24 -21 -4 12 c-2 6 -197 179 -434 383 -236 204 -539 468 -672 586 -134 118
-243 210 -243 205z"/>
<path d="M93550 15172 c0 -9 335 -302 344 -302 21 0 -14 34 -163 164 -94 80
-172 146 -175 146 -4 0 -6 -4 -6 -8z"/>
<path d="M98105 14803 c-50 -59 -258 -303 -462 -542 -205 -239 -373 -440 -373
-445 l0 -10 9 10 c75 82 914 1071 918 1081 3 7 3 13 1 13 -2 0 -44 -48 -93
-107z"/>
<path d="M96313 12703 l7 -6 7 6 6 7 -13 0 -13 0 6 -7z"/>
<path d="M4756 10992 l-5 -9 47 -35 c40 -30 291 -199 330 -222 l12 -7 0 10 0
11 -162 109 c-90 61 -175 120 -190 131 l-26 21 -6 -9z"/>
<path d="M26570 3970 l0 -10 13 -1 c6 0 109 -10 227 -23 118 -13 217 -22 219
-20 13 12 -27 20 -177 35 -92 10 -193 20 -224 24 l-58 6 0 -11z"/>
<path d="M13040 3926 c0 -26 -55 -303 -71 -361 -11 -38 -23 -79 -26 -90 l-5
-20 10 10 c14 14 57 189 82 333 l22 123 -6 6 -6 6 0 -7z"/>
<path d="M27500 3881 c0 -14 -32 -10 230 -25 l225 -14 8 8 9 8 -49 6 c-26 3
-111 8 -188 11 -77 3 -161 8 -187 11 l-48 6 0 -11z"/>
<path d="M31927 3523 c-4 -3 -7 -10 -7 -15 l0 -9 19 6 18 5 12 -14 13 -15 0
-44 0 -45 -72 -123 c-40 -68 -78 -131 -86 -140 -15 -17 -19 -39 -6 -39 10 1
58 74 129 195 l58 100 -1 50 0 50 -12 23 -13 22 -23 0 c-12 0 -26 -3 -29 -7z"/>
<path d="M31883 3443 c-18 -9 -33 -21 -33 -26 l0 -9 20 6 c11 3 29 9 40 12
l20 6 0 -10 c0 -5 -25 -53 -55 -107 l-56 -98 8 -8 9 -9 57 103 57 103 0 27 0
27 -17 -1 c-10 0 -33 -8 -50 -16z"/>
<path d="M12784 2257 l-42 -232 9 -9 9 -10 0 10 c0 5 18 109 40 232 43 241 44
242 33 242 l-8 0 -41 -233z"/>
<path d="M22985 2240 c-4 -6 -5 -13 -4 -14 13 -10 296 -231 306 -238 l12 -10
13 4 12 4 -149 119 c-83 65 -157 124 -167 132 l-16 14 -7 -11z"/>
<path d="M11290 1618 l0 -14 178 -13 c97 -7 201 -15 230 -18 l52 -6 0 15 0 14
-177 13 c-98 7 -202 15 -230 18 l-53 6 0 -15z"/>
<path d="M22363 1437 l-203 -91 9 -9 9 -9 198 89 198 90 4 11 4 12 -9 -1 c-4
0 -99 -41 -210 -92z"/>
<path d="M19040 1096 l0 -16 13 0 c6 0 108 -7 224 -17 l213 -16 7 6 c3 4 4 9
1 12 -3 3 -88 12 -189 20 -101 8 -203 17 -226 21 l-43 5 0 -15z"/>
</g>
</svg>
