<?xml version="1.0" standalone="no"?>
<!DOCTYPE svg PUBLIC "-//W3C//DTD SVG 20010904//EN"
 "http://www.w3.org/TR/2001/REC-SVG-20010904/DTD/svg10.dtd">
<svg version="1.0" xmlns="http://www.w3.org/2000/svg"
 width="7500.000000pt" height="7500.000000pt" viewBox="0 0 7500.000000 7500.000000"
 preserveAspectRatio="xMidYMid meet">
<metadata>
Created by potrace 1.16, written by Peter Selinger 2001-2019
</metadata>
<g transform="translate(0.000000,7500.000000) scale(0.075000,-0.075000)"
fill="#000000" stroke="none">
<path d="M89641 97384 l1 -19 5 13 5 13 -6 6 -6 6 1 -19z"/>
<path d="M89631 97344 l1 -19 5 13 5 13 -6 6 -6 6 1 -19z"/>
<path d="M89595 97207 l-28 -112 -23 -37 c-13 -21 -24 -43 -24 -50 l0 -13 30
45 30 45 26 113 c14 62 24 115 22 117 -2 3 -17 -46 -33 -108z"/>
<path d="M32396 94211 l-7 -10 90 -66 89 -65 81 -86 c45 -47 81 -90 81 -95 l0
-10 10 6 c19 12 10 26 -77 117 l-88 91 -75 55 c-41 30 -80 59 -87 64 l-11 9
-6 -10z"/>
<path d="M87837 93332 c-10 -10 -17 -22 -17 -27 l0 -8 21 19 21 18 70 -72 70
-72 19 0 c10 0 21 5 24 10 l6 10 29 0 c16 0 41 -5 56 -10 42 -16 42 -2 -1 16
l-38 16 -45 -12 -45 -11 -71 70 c-40 39 -74 71 -77 71 -3 0 -13 -8 -22 -18z"/>
<path d="M87255 92800 c-110 -110 -203 -200 -207 -200 -4 0 -57 32 -118 71
-61 40 -113 69 -116 67 -2 -3 48 -40 112 -82 l117 -77 11 3 c16 4 411 407 405
412 -3 3 -95 -85 -204 -194z"/>
<path d="M26530 91312 l0 -9 48 -11 c26 -7 122 -32 215 -56 l167 -45 -5 9 c-2
4 -15 10 -27 13 -19 4 -318 85 -380 103 l-18 5 0 -9z"/>
<path d="M27825 91175 c131 -33 483 -137 615 -181 l15 -5 -10 9 c-27 25 -726
224 -774 221 -9 -1 61 -20 154 -44z"/>
<path d="M86360 88980 c41 -5 125 -11 185 -15 l110 -6 65 10 65 9 -135 -1
c-74 0 -187 2 -250 5 l-115 6 75 -8z"/>
<path d="M86330 88940 c25 -4 97 -11 160 -14 l115 -7 85 10 85 9 -140 -1 c-77
-1 -187 1 -245 5 l-105 7 45 -9z"/>
<path d="M34752 88691 l-13 -8 39 -44 c22 -24 96 -98 166 -163 l127 -119 9 9
9 9 -150 140 c-82 77 -155 150 -162 162 l-12 22 -13 -8z"/>
<path d="M78980 88497 l0 -13 222 -77 222 -77 8 8 9 9 -58 21 c-32 12 -136 48
-230 81 l-173 60 0 -12z"/>
<path d="M78970 88441 c0 -5 8 -11 18 -14 9 -3 108 -37 219 -75 l203 -71 5 8
5 8 -218 77 c-119 42 -220 76 -225 76 -4 0 -7 -4 -7 -9z"/>
<path d="M75307 87353 l-6 -10 58 -119 c45 -93 140 -269 157 -293 1 -1 7 0 13
4 l11 6 -37 57 c-21 31 -72 126 -114 211 l-76 154 -6 -10z"/>
<path d="M83680 86919 c0 -5 2 -9 5 -9 5 0 314 -85 347 -96 l18 -5 0 9 0 9
-97 26 c-54 15 -137 37 -185 51 l-88 24 0 -9z"/>
<path d="M85441 86197 l-195 -122 -4 -12 -4 -13 12 0 c6 0 26 11 43 24 18 13
104 68 192 122 88 53 162 99 164 101 3 2 0 7 -5 13 l-9 9 -194 -122z"/>
<path d="M64257 85740 c-98 -10 -181 -21 -184 -24 l-6 -6 6 -7 7 -6 182 17
c101 9 204 19 231 23 l47 6 0 8 0 9 -52 -1 c-29 -1 -133 -10 -231 -19z"/>
<path d="M84686 85603 l-176 -157 9 -9 9 -9 176 157 176 158 -6 8 c-3 5 -7 9
-9 9 -2 0 -83 -71 -179 -157z"/>
<path d="M81029 85529 c113 -38 206 -67 208 -65 5 5 -387 136 -402 135 -6 0
82 -32 194 -70z"/>
<path d="M61310 85242 l0 -10 58 -6 c31 -4 136 -8 234 -9 l176 -2 8 8 c4 4 5
9 3 11 -2 2 -111 6 -241 10 l-238 7 0 -9z"/>
<path d="M69050 85104 c0 -9 60 -47 308 -201 l102 -63 0 13 0 12 -188 117
c-104 65 -196 120 -205 124 l-17 6 0 -8z"/>
<path d="M64615 84568 c-104 -22 -200 -42 -212 -44 l-23 -4 0 -10 0 -9 33 5
c17 3 121 24 230 46 l197 41 0 9 0 8 -17 -1 c-10 -1 -103 -19 -208 -41z"/>
<path d="M64640 84514 c-113 -24 -222 -43 -242 -44 l-37 0 -6 10 -6 10 -11 -6
-11 -7 18 -14 19 -13 30 0 c40 0 438 81 450 92 5 4 8 9 5 11 -2 2 -96 -15
-209 -39z"/>
<path d="M71950 84315 c0 -6 78 -193 172 -418 l173 -407 4 11 3 10 -167 397
c-93 218 -172 401 -177 407 l-8 9 0 -9z"/>
<path d="M82117 83423 c-4 -3 -7 -19 -7 -35 l0 -28 34 -17 34 -16 23 6 c13 3
32 12 41 19 l18 13 2 24 3 24 -12 4 -13 5 0 -21 0 -20 -21 -11 -21 -12 -25 6
-24 7 -13 30 -12 29 -7 -7z"/>
<path d="M93006 83139 c-70 -100 -125 -184 -122 -186 2 -2 61 77 131 177 70
100 125 184 122 186 -3 3 -62 -77 -131 -177z"/>
<path d="M73086 83049 c71 -44 157 -98 192 -120 34 -22 62 -36 62 -32 0 10
-356 233 -372 233 -7 0 46 -36 118 -81z"/>
<path d="M97570 80922 c0 -39 110 -223 156 -263 22 -19 104 -52 111 -45 3 2
-21 17 -52 31 l-57 27 -63 97 -63 96 -7 28 c-4 15 -11 30 -16 33 l-9 5 0 -9z"/>
<path d="M95659 80648 c-62 -90 -116 -169 -122 -175 l-9 -13 9 0 10 0 89 128
c48 70 103 148 122 175 l34 47 -10 0 -11 0 -112 -162z"/>
<path d="M10660 78081 l0 -9 243 -109 242 -110 188 -63 188 -62 6 6 7 6 -10 9
c-5 5 -88 34 -184 66 l-175 58 -240 108 c-234 106 -265 118 -265 100z"/>
<path d="M12440 77492 l0 -11 18 -5 c9 -3 202 -44 427 -91 226 -47 420 -88
433 -92 l22 -5 0 13 0 14 -423 88 c-232 49 -434 91 -449 94 l-28 5 0 -10z"/>
<path d="M73550 77060 l0 -10 240 0 240 0 0 10 0 10 -240 0 -240 0 0 -10z"/>
<path d="M78680 77068 c0 -3 20 -59 45 -125 l45 -118 0 -23 0 -23 -20 -37
c-11 -20 -27 -47 -36 -59 l-16 -23 9 0 c20 0 83 104 83 137 0 22 -87 254 -101
268 -5 5 -9 6 -9 3z"/>
<path d="M82431 74188 l-23 -103 -5 -132 -6 -133 10 0 10 0 6 138 6 137 20 83
c23 91 25 112 13 112 l-9 0 -22 -102z"/>
<path d="M74439 70680 l-6 -75 19 -115 c22 -140 28 -164 34 -157 3 3 -2 42
-12 88 l-16 84 -7 125 -7 125 -5 -75z"/>
<path d="M91893 67576 c-146 -19 -185 -28 -172 -40 2 -2 94 7 204 21 l200 25
38 -9 37 -10 6 8 5 9 -26 10 -26 10 -52 -1 c-29 -1 -125 -11 -214 -23z"/>
<path d="M48842 65393 c-22 -38 -84 -147 -140 -243 -55 -96 -133 -229 -174
-295 -82 -131 -101 -165 -94 -165 7 0 199 317 326 540 67 118 124 218 127 223
2 4 2 7 -1 7 -3 0 -23 -30 -44 -67z"/>
<path d="M37180 64721 l0 -19 38 -6 c76 -13 416 -56 418 -53 1 1 4 11 6 22 l3
19 -205 27 c-113 16 -217 28 -232 28 l-28 1 0 -19z"/>
<path d="M89621 63833 c102 -114 165 -190 204 -249 l45 -69 0 13 c0 7 -15 35
-34 63 -46 69 -217 269 -229 269 l-11 0 25 -27z"/>
<path d="M41450 63743 l-24 -5 -78 -65 c-43 -36 -78 -67 -78 -69 0 -9 22 7 96
68 l71 58 39 0 39 0 49 -15 c27 -8 56 -15 65 -14 l16 1 -60 19 c-75 23 -103
28 -135 22z"/>
<path d="M41710 63630 l0 -13 7 6 6 7 -6 7 -7 6 0 -13z"/>
<path d="M41760 63575 c0 -5 15 -25 34 -45 19 -19 77 -93 130 -164 l95 -128
233 -264 c127 -145 234 -261 237 -259 2 3 -7 18 -21 33 -14 15 -114 128 -222
251 l-198 224 -98 131 c-102 136 -189 238 -190 221z"/>
<path d="M41160 63463 c-175 -148 -193 -164 -188 -168 2 -3 73 54 157 126 85
71 155 128 156 127 12 -17 221 -246 233 -255 9 -7 20 -13 25 -13 l9 0 -20 18
c-15 13 -155 166 -241 264 l-6 7 -125 -106z"/>
<path d="M41011 63389 c-34 -28 -61 -55 -61 -61 l0 -10 65 57 c36 32 65 59 65
61 0 9 -12 1 -69 -47z"/>
<path d="M43239 63353 l-14 -16 23 12 c23 12 28 21 13 21 -5 0 -15 -7 -22 -17z"/>
<path d="M2550 63355 c0 -5 298 -267 318 -279 l12 -7 0 9 c0 6 -70 71 -155
146 -135 119 -175 149 -175 131z"/>
<path d="M41999 63333 c24 -46 510 -597 518 -589 3 3 -85 105 -194 228 -110
123 -227 258 -262 301 -61 75 -81 95 -62 60z"/>
<path d="M42732 62914 c-116 -103 -212 -191 -212 -195 0 -10 423 359 428 373
2 4 2 8 0 8 -2 0 -99 -84 -216 -186z"/>
<path d="M41111 62796 l-13 -16 25 -29 c89 -106 271 -311 277 -311 3 0 11 5
17 11 l12 12 -146 166 c-80 91 -149 170 -153 174 l-7 8 -12 -15z"/>
<path d="M41635 62460 l-7 -12 24 -26 c14 -15 75 -85 138 -155 l112 -128 10 3
c5 2 10 7 10 12 0 8 -241 284 -267 306 l-13 11 -7 -11z"/>
<path d="M58660 62441 c0 -6 363 -168 425 -190 l10 -3 -10 10 c-14 15 -425
191 -425 183z"/>
<path d="M89022 62421 c2 -5 81 -75 176 -156 l174 -146 11 4 11 3 -180 152
c-98 84 -183 152 -187 152 l-9 0 4 -9z"/>
<path d="M63755 62230 l-80 -8 -249 -51 c-137 -28 -252 -53 -254 -56 -15 -15
24 -9 243 35 l240 48 128 11 c70 6 168 11 218 11 l89 0 0 10 0 10 -127 -1
c-71 -1 -164 -5 -208 -9z"/>
<path d="M57330 61901 l0 -8 118 -51 c64 -28 173 -75 242 -105 69 -30 127 -53
129 -51 6 6 9 5 -189 92 -102 44 -211 92 -242 106 l-58 26 0 -9z"/>
<path d="M57316 61861 c5 -6 113 -55 239 -109 127 -55 340 -148 475 -207 135
-59 252 -110 260 -113 l15 -5 -10 11 c-5 5 -95 47 -200 92 -104 46 -322 140
-482 211 -161 71 -296 129 -300 129 l-7 0 10 -9z"/>
<path d="M21850 61751 c0 -4 80 -31 178 -61 97 -29 287 -90 421 -136 l244 -83
8 5 c5 3 9 9 9 14 l0 9 -14 -5 -14 -5 -164 56 c-89 32 -228 77 -308 102 -80
24 -193 59 -252 78 l-108 33 0 -7z"/>
<path d="M48276 60548 c28 -32 305 -250 310 -245 3 3 -55 52 -128 110 -73 57
-144 117 -157 131 -14 14 -29 26 -34 26 l-10 0 19 -22z"/>
<path d="M36980 60462 l0 -9 133 -7 133 -6 89 -15 c99 -16 111 -17 103 -10
-13 13 -334 54 -430 55 l-28 0 0 -8z"/>
<path d="M56576 60292 l-4 -8 225 -63 225 -63 5 6 6 6 -14 4 c-8 3 -97 28
-199 56 -102 28 -197 55 -212 60 l-28 9 -4 -7z"/>
<path d="M46095 59958 l-220 -222 160 151 c198 187 303 293 290 293 -6 0 -109
-100 -230 -222z"/>
<path d="M86559 59764 c-90 -69 -166 -131 -168 -137 l-4 -12 14 11 c8 6 85 66
172 133 141 110 166 131 153 131 -2 0 -77 -57 -167 -126z"/>
<path d="M45880 59715 c0 -10 243 -296 247 -291 5 4 -235 296 -243 296 -2 0
-4 -2 -4 -5z"/>
<path d="M45368 59413 c88 -93 203 -209 254 -259 l93 -91 105 -75 c58 -40 111
-78 119 -83 l14 -8 -6 10 c-4 6 -60 49 -126 97 l-119 86 -239 245 c-132 135
-243 245 -247 245 -5 0 64 -75 152 -167z"/>
<path d="M45660 59174 l75 -75 119 -85 c65 -47 120 -83 123 -81 2 3 -49 43
-114 90 l-118 85 -70 71 c-38 39 -74 71 -79 71 -6 0 23 -34 64 -76z"/>
<path d="M49102 58837 c-90 -121 -159 -218 -153 -216 14 5 323 419 319 427 -2
4 -76 -91 -166 -211z"/>
<path d="M49140 58824 c-85 -114 -159 -213 -164 -222 l-8 -14 10 3 c10 3 332
427 332 436 0 18 -38 -27 -170 -203z"/>
<path d="M49471 58296 c3 -3 74 -32 159 -65 l155 -59 227 -110 226 -110 89
-27 c48 -14 94 -28 101 -30 l12 -4 0 7 0 7 -87 24 -88 24 -209 104 -208 104
-180 70 c-162 62 -210 78 -197 65z"/>
<path d="M49460 58261 c0 -3 75 -35 168 -70 92 -35 197 -79 234 -98 37 -18 71
-33 75 -33 5 1 -23 17 -62 37 -80 42 -415 174 -415 164z"/>
<path d="M91820 58142 c0 -4 26 -26 58 -48 31 -22 108 -75 170 -118 61 -42
112 -74 112 -69 0 4 -44 38 -98 75 -53 36 -130 89 -169 117 -40 29 -73 48 -73
43z"/>
<path d="M63995 58008 c3 -13 23 -113 45 -222 35 -176 49 -231 50 -200 1 5
-18 107 -42 227 l-42 217 -8 0 -8 0 5 -22z"/>
<path d="M64129 57585 l-6 -5 45 -225 45 -224 7 4 7 4 -43 218 c-24 120 -45
222 -47 226 l-2 8 -6 -6z"/>
<path d="M76406 56558 c15 -77 66 -263 86 -315 l23 -57 14 -4 14 -5 -8 19
c-24 54 -69 201 -89 288 l-23 100 -11 4 -12 4 6 -34z"/>
<path d="M64411 56247 c14 -7 33 -18 43 -26 l16 -13 0 -28 0 -27 -18 -16 -19
-17 -26 0 -26 0 -14 15 -15 14 -6 -6 -6 -6 17 -19 16 -18 34 0 34 0 24 25 25
24 0 34 0 34 -23 21 -23 22 -30 -1 -29 -1 26 -11z"/>
<path d="M29920 56182 l0 -8 248 -31 247 -32 10 10 c5 5 6 9 3 9 -4 0 -112 14
-240 30 -128 17 -240 30 -250 30 l-18 0 0 -8z"/>
<path d="M10228 55976 c-59 -40 -129 -82 -155 -93 -26 -11 -59 -26 -73 -32
l-25 -11 40 7 c53 8 78 21 217 111 104 68 135 93 111 91 -5 0 -56 -33 -115
-73z"/>
<path d="M48485 55922 l70 -38 27 -40 c15 -21 46 -77 68 -123 22 -46 43 -81
46 -79 7 7 -52 133 -91 194 l-33 51 -65 37 c-36 20 -71 36 -79 36 l-13 0 70
-38z"/>
<path d="M25510 55923 c0 -10 360 -236 366 -230 3 2 -8 13 -23 23 -68 44 -306
195 -324 204 l-19 11 0 -8z"/>
<path d="M25490 55890 c0 -11 362 -241 370 -234 2 3 -2 10 -10 15 -8 4 -93 58
-187 118 l-173 110 0 -9z"/>
<path d="M25991 55656 c2 -2 94 -69 205 -149 226 -163 324 -227 347 -227 l15
0 21 -27 20 -28 1 16 0 16 -18 16 c-10 10 -26 17 -34 17 l-15 0 -74 48 c-41
27 -159 110 -263 185 -104 75 -193 137 -199 137 -6 0 -8 -2 -6 -4z"/>
<path d="M33436 54991 c5 -4 69 -23 142 -41 l132 -32 24 -19 c14 -11 34 -35
46 -54 12 -19 26 -35 31 -35 l9 0 -32 50 -33 49 -20 10 c-18 9 -286 81 -302
81 -4 0 -3 -4 3 -9z"/>
<path d="M51980 54990 c41 -4 107 -8 145 -9 l71 -1 79 -55 c43 -30 82 -55 86
-55 4 0 69 -43 144 -95 76 -52 140 -93 143 -90 3 3 3 6 1 8 -28 23 -289 197
-295 197 -4 0 -39 23 -78 52 l-71 52 -150 2 -150 2 75 -8z"/>
<path d="M53218 54933 c-8 -10 -28 -40 -43 -68 -16 -27 -75 -118 -132 -202
l-103 -152 9 -5 9 -6 129 198 c71 108 137 209 147 225 l16 27 -8 0 c-5 0 -16
-8 -24 -17z"/>
<path d="M50140 54569 l0 -10 10 6 c6 3 10 8 10 11 0 2 -4 4 -10 4 -5 0 -10
-5 -10 -11z"/>
<path d="M4824 54508 c-3 -5 -4 -11 -3 -12 2 -2 104 -33 226 -68 l222 -65 5
13 5 12 -42 11 c-23 6 -124 35 -225 65 l-182 54 -6 -10z"/>
<path d="M50225 54480 l-6 -19 43 -58 c23 -32 44 -60 45 -62 2 -2 5 -2 8 1 3
2 -15 31 -39 63 l-43 58 5 19 c6 24 -5 23 -13 -2z"/>
<path d="M52871 54226 c-83 -124 -151 -231 -151 -238 0 -7 70 92 156 220 85
129 153 236 150 239 -2 3 -72 -97 -155 -221z"/>
<path d="M52000 53880 l85 -81 98 -71 99 -71 21 -34 c12 -18 25 -33 30 -33 4
0 -5 18 -19 40 l-27 41 -81 57 c-45 31 -121 93 -171 137 -120 108 -142 117
-35 15z"/>
<path d="M52531 53333 c11 -34 264 -562 267 -555 3 11 -245 543 -260 557 l-10
10 3 -12z"/>
<path d="M77802 53269 c3 -8 27 -103 54 -211 l48 -198 8 8 8 8 -48 199 -48
199 -14 4 -13 5 5 -14z"/>
<path d="M52270 53203 c0 -30 177 -389 187 -380 2 3 -9 26 -24 53 -16 27 -57
112 -93 189 -67 149 -70 154 -70 138z"/>
<path d="M34690 53021 c0 -5 5 -13 10 -16 l10 -6 0 10 c0 5 -4 13 -10 16 l-10
6 0 -10z"/>
<path d="M38462 52898 l4 -12 190 -53 c193 -54 214 -59 214 -45 l0 7 -138 37
c-75 21 -168 47 -205 57 l-68 20 3 -11z"/>
<path d="M77745 52776 l-189 -73 -4 -11 -3 -11 183 71 c101 39 191 72 201 75
16 5 25 23 10 23 -5 -1 -93 -34 -198 -74z"/>
<path d="M52824 52725 c4 -11 44 -89 89 -175 45 -85 130 -253 187 -372 58
-120 108 -218 112 -218 14 0 -337 706 -380 765 l-14 20 6 -20z"/>
<path d="M27760 52689 c0 -22 -9 -220 -21 -441 -11 -220 -18 -402 -16 -405 8
-7 16 113 32 472 8 182 17 349 19 373 l4 42 -9 0 -9 0 0 -41z"/>
<path d="M76915 52513 c-205 -82 -201 -80 -192 -89 l6 -6 195 78 196 78 0 8
c0 12 -1 12 -205 -69z"/>
<path d="M27002 52263 l9 -68 -5 -160 -5 -160 8 30 9 30 1 136 c0 75 -2 164
-5 198 l-7 61 -7 0 -6 0 8 -67z"/>
<path d="M27045 52108 l0 -228 8 0 7 0 -1 173 c-1 94 -4 197 -8 227 l-7 55 1
-227z"/>
<path d="M52930 52307 c0 -17 49 -103 70 -122 l22 -20 59 -117 c33 -65 61
-118 64 -118 3 0 -22 55 -56 123 l-61 122 -34 38 c-19 20 -34 43 -34 50 0 14
-29 57 -30 44z"/>
<path d="M16235 52229 l-6 -9 33 -15 c18 -7 114 -48 213 -89 l179 -76 10 10 9
9 -24 9 c-38 15 -236 97 -326 136 l-82 35 -6 -10z"/>
<path d="M83305 52053 c-181 -46 -192 -50 -184 -57 4 -4 362 85 392 97 l12 5
-20 0 c-11 0 -101 -20 -200 -45z"/>
<path d="M87840 51092 l-41 -47 -99 -233 c-109 -256 -165 -368 -216 -425 -34
-37 -42 -57 -25 -57 14 0 75 80 118 155 l39 70 100 238 99 238 43 49 c23 26
42 51 42 54 0 17 -23 1 -60 -42z"/>
<path d="M61741 50958 c-1 -3 -35 -160 -76 -347 -72 -326 -81 -370 -71 -360 3
3 39 159 81 347 l76 343 -5 12 c-2 7 -5 9 -5 5z"/>
<path d="M29010 50941 l0 -10 53 -5 c28 -3 121 -8 205 -12 l152 -6 0 10 0 10
-147 6 c-82 4 -174 9 -205 12 l-58 5 0 -10z"/>
<path d="M26775 50749 c-4 -99 -5 -183 -2 -185 3 -3 8 57 11 133 3 76 8 159
11 186 l4 47 -8 0 -8 0 -8 -181z"/>
<path d="M33610 50384 c0 -22 61 -388 65 -393 3 -2 5 2 5 10 0 29 -58 381 -64
386 l-6 6 0 -9z"/>
<path d="M33575 50350 c37 -255 65 -411 65 -359 0 33 -52 356 -60 374 l-10 20
5 -35z"/>
<path d="M34310 50095 c0 -4 16 -29 35 -55 19 -26 35 -50 35 -52 0 -3 -11 -3
-24 -1 l-24 5 -6 -10 -6 -11 57 -7 58 -7 130 -38 c123 -36 304 -79 332 -79 7
0 13 3 13 8 l0 7 -107 23 c-60 12 -171 41 -248 65 l-139 43 -45 54 c-42 53
-61 69 -61 55z"/>
<path d="M34187 50028 l-39 -38 4 -11 3 -10 43 39 c23 21 42 44 42 50 0 19
-12 12 -53 -30z"/>
<path d="M33703 49933 l7 -6 7 6 6 7 -13 0 -13 0 6 -7z"/>
<path d="M33670 49879 c0 -44 99 -753 116 -828 3 -13 7 -21 9 -19 3 3 -11 106
-30 230 -19 123 -45 314 -59 423 -14 109 -28 200 -31 203 -3 3 -5 -1 -5 -9z"/>
<path d="M33711 49870 c0 -27 26 -221 79 -595 l33 -230 9 -10 9 -10 -5 25 c-8
36 -61 423 -87 635 -12 99 -25 187 -30 195 l-8 15 0 -25z"/>
<path d="M38151 49524 c-6 -22 -28 -108 -50 -191 l-39 -153 6 0 c9 0 105 371
98 377 -3 3 -9 -12 -15 -33z"/>
<path d="M38150 49373 c-25 -98 -46 -184 -48 -190 l-3 -13 9 0 9 0 46 184 c51
202 50 196 39 196 l-8 0 -44 -177z"/>
<path d="M36060 49482 l-33 -28 57 -355 c31 -195 61 -363 67 -374 l9 -20 -5
30 c-3 17 -29 182 -60 367 l-55 338 6 15 c4 8 9 15 13 15 3 0 17 9 31 20 l25
20 -10 0 c-6 0 -26 -13 -45 -28z"/>
<path d="M40305 49075 c91 -240 115 -306 115 -317 0 -7 5 -20 11 -28 l10 -15
-7 35 c-8 45 -132 372 -145 385 l-10 10 26 -70z"/>
<path d="M38083 49123 l7 -6 7 6 6 7 -13 0 -13 0 6 -7z"/>
<path d="M37923 49085 c3 -16 20 -120 37 -230 l33 -200 9 -10 9 -10 -5 25 c-3
14 -21 119 -40 234 -19 114 -38 211 -42 215 l-7 6 6 -30z"/>
<path d="M37964 49075 c3 -16 40 -230 81 -475 41 -245 77 -449 79 -455 l4 -10
1 15 c1 8 -33 222 -75 475 l-77 460 -10 10 -9 10 6 -30z"/>
<path d="M64720 48963 c0 -10 -9 -31 -20 -48 -11 -16 -20 -34 -20 -40 l1 -10
24 28 25 28 0 30 c0 16 -2 29 -5 29 -3 0 -5 -8 -5 -17z"/>
<path d="M91573 48876 c6 -15 243 -374 258 -390 l9 -10 6 7 6 6 -133 200 c-74
110 -138 200 -143 201 l-8 0 5 -14z"/>
<path d="M91439 48708 c-68 -78 -153 -178 -188 -223 -35 -44 -124 -141 -198
-216 -73 -75 -133 -141 -133 -145 0 -5 54 45 121 111 l121 120 81 100 c73 91
242 288 305 357 14 15 23 30 20 33 -2 3 -61 -59 -129 -137z"/>
<path d="M75951 48653 c0 -16 10 -99 23 -185 20 -142 29 -180 40 -167 1 2 -9
88 -23 192 l-25 187 -8 0 -8 0 1 -27z"/>
<path d="M34822 48615 l-223 -13 -7 -7 -7 -8 90 6 c50 4 156 9 238 13 l147 7
0 8 c0 5 -3 8 -7 8 -5 -1 -108 -7 -231 -14z"/>
<path d="M34098 48576 l-206 -11 -9 -8 -8 -8 85 5 c47 4 170 11 274 16 104 5
191 12 194 15 7 7 -80 4 -330 -9z"/>
<path d="M22320 47621 l0 -9 26 -6 c36 -9 43 1 10 14 -33 12 -36 12 -36 1z"/>
<path d="M37902 47455 l-254 -13 -6 -7 -7 -8 115 7 c63 3 189 9 280 12 l165 7
15 8 15 8 -35 -1 c-19 0 -149 -6 -288 -13z"/>
<path d="M36093 47336 l-191 -11 -9 -9 -8 -9 60 6 c33 4 132 9 220 13 l160 7
15 8 15 8 -35 -1 c-19 -1 -121 -6 -227 -12z"/>
<path d="M52030 46484 c0 -14 173 -374 178 -369 4 4 -168 375 -175 375 -1 0
-3 -3 -3 -6z"/>
<path d="M93060 46071 c0 -4 16 -15 35 -24 l36 -17 32 0 32 0 53 -25 54 -25
57 0 57 0 69 37 c81 42 80 41 73 49 l-6 6 -78 -41 -77 -41 -41 0 -41 0 -47 25
-47 25 -38 0 -38 0 -42 20 -43 19 0 -8z"/>
<path d="M41360 45083 c0 -4 21 -104 46 -220 l47 -213 14 0 c7 0 13 1 13 3 0
1 -22 98 -48 216 l-48 215 -12 4 -12 4 0 -9z"/>
<path d="M81347 44919 l7 -23 4 13 4 13 -10 10 -11 11 6 -24z"/>
<path d="M28335 44883 l6 -27 54 -75 55 -75 77 -67 77 -68 8 5 9 5 -52 47
c-28 25 -62 54 -75 65 -29 23 -144 185 -144 204 l0 13 -11 0 -11 0 7 -27z"/>
<path d="M81361 44874 l1 -19 5 13 5 13 -6 6 -6 6 1 -19z"/>
<path d="M81370 44840 l0 -13 7 6 6 7 -6 7 -7 6 0 -13z"/>
<path d="M34540 44790 l0 -10 35 0 35 0 0 10 0 10 -35 0 -35 0 0 -10z"/>
<path d="M87885 43818 c25 -40 78 -126 118 -190 40 -65 76 -118 80 -118 l8 0
-7 13 c-54 94 -228 367 -235 367 l-9 0 45 -72z"/>
<path d="M35591 42860 c-13 -11 -30 -20 -38 -20 l-14 0 5 -9 6 -9 23 5 c24 6
57 31 57 45 0 13 -13 9 -39 -12z"/>
<path d="M46727 42687 c-115 -60 -206 -111 -203 -114 4 -4 402 200 415 213 20
20 -34 -6 -212 -99z"/>
<path d="M46750 42654 c-107 -57 -199 -105 -205 -107 -5 -2 -8 -7 -5 -10 l5
-6 200 106 c110 57 204 109 210 114 l9 9 -9 -1 c-6 -1 -98 -48 -205 -105z"/>
<path d="M91433 42461 c-111 -58 -205 -110 -210 -115 -7 -8 404 200 416 210 2
2 2 5 0 7 -2 2 -95 -44 -206 -102z"/>
<path d="M50835 42489 c-71 -10 -134 -18 -139 -18 l-9 -1 5 -5 5 -6 164 21
c158 20 210 31 138 29 -19 -1 -92 -9 -164 -20z"/>
<path d="M50647 42359 l-5 -121 5 -154 6 -154 8 0 7 0 -1 270 0 271 -7 4 -7 4
-6 -120z"/>
<path d="M45971 42240 c-79 -44 -149 -84 -155 -89 l-11 -10 5 -48 4 -48 6 50
5 50 138 76 c121 67 172 99 157 99 -3 0 -70 -36 -149 -80z"/>
<path d="M93283 41228 c5 -15 76 -116 210 -301 27 -37 52 -66 55 -63 4 5 -111
173 -128 186 -4 3 -37 48 -75 100 -37 52 -66 88 -62 78z"/>
<path d="M53473 40737 l-82 -72 -49 -65 -48 -65 -22 -55 -22 -55 -30 -174
c-27 -154 -31 -195 -15 -180 2 3 18 82 35 176 l31 172 25 57 25 57 51 66 51
66 79 64 c43 36 78 69 78 73 0 20 -31 1 -107 -65z"/>
<path d="M52266 40281 c-4 -6 -6 -11 -3 -11 2 0 104 -20 227 -45 239 -48 250
-50 250 -36 l0 8 -212 42 c-117 23 -223 45 -234 48 l-22 5 -6 -11z"/>
<path d="M48400 39939 l0 -14 122 -105 c67 -58 138 -115 157 -127 l36 -22 23
-1 22 0 0 10 0 10 -17 0 c-24 0 -97 47 -158 101 -27 25 -80 71 -117 103 l-68
58 0 -13z"/>
<path d="M60222 38356 c-29 -42 -78 -104 -110 -139 -31 -34 -67 -75 -81 -91
l-26 -29 12 4 c16 6 146 152 210 237 l54 73 -3 10 -3 10 -53 -75z"/>
<path d="M86187 37247 c-125 -82 -226 -152 -223 -154 3 -3 105 61 228 142 243
161 233 153 227 159 -2 2 -107 -64 -232 -147z"/>
<path d="M85625 37304 c10 -17 26 -41 37 -55 l20 -24 -17 31 c-10 17 -26 41
-37 55 l-20 24 17 -31z"/>
<path d="M85685 37210 c3 -5 8 -10 11 -10 3 0 2 5 -1 10 -3 6 -8 10 -11 10 -3
0 -2 -4 1 -10z"/>
<path d="M85866 37085 l-59 -44 -11 6 -11 6 12 -13 11 -12 61 42 c34 24 61 47
61 51 0 12 3 14 -64 -36z"/>
<path d="M40758 36646 c-75 -17 -140 -35 -145 -40 l-8 -9 25 6 c14 3 87 20
163 38 l139 31 9 -9 9 -9 70 -484 c39 -267 73 -501 77 -520 l6 -35 4 11 c2 6
-30 242 -72 525 -41 283 -75 517 -75 522 l0 7 -32 -1 c-18 -1 -95 -15 -170
-33z"/>
<path d="M39857 36140 c3 -80 9 -188 13 -240 l8 -95 -5 220 -6 220 -8 20 -8
20 6 -145z"/>
<path d="M41769 35677 l13 -17 -4 -25 -5 -25 9 0 9 0 -3 37 -3 36 -15 5 -15 5
14 -16z"/>
<path d="M84916 35603 c-21 -6 -464 -288 -486 -311 l-15 -15 15 8 c8 4 119 75
246 156 l231 149 27 0 26 0 20 -20 c11 -11 33 -46 49 -78 16 -32 56 -94 88
-137 32 -44 142 -215 242 -380 101 -165 198 -318 214 -340 17 -22 32 -42 34
-44 2 -2 5 -2 8 1 l6 5 -24 29 c-14 16 -110 170 -216 341 -105 172 -217 348
-248 390 -32 43 -75 111 -96 150 l-38 72 -22 16 c-22 15 -28 16 -61 8z"/>
<path d="M41608 34705 l76 -225 8 0 7 0 -77 225 c-42 124 -80 225 -84 225 l-7
0 77 -225z"/>
<path d="M81807 34795 c23 -27 62 -70 88 -95 26 -25 77 -85 114 -135 38 -49
79 -99 92 -110 l24 -20 -21 25 c-11 14 -48 63 -82 110 l-61 85 -97 95 -97 95
40 -50z"/>
<path d="M85795 34690 c-77 -49 -141 -94 -144 -101 l-3 -11 10 3 c26 10 302
184 302 191 0 18 -32 2 -165 -82z"/>
<path d="M85305 34319 c-104 -65 -191 -123 -193 -129 l-4 -10 11 0 c8 0 374
221 390 236 3 3 0 8 -5 13 l-9 9 -190 -119z"/>
<path d="M34460 33657 l-75 -132 -39 -42 c-21 -24 -37 -46 -34 -49 3 -2 25 17
49 45 l44 49 68 121 c38 66 67 124 65 129 l-3 10 -75 -131z"/>
<path d="M34300 32510 c0 -6 7 -25 17 -43 l16 -32 4 12 4 12 -16 30 c-16 32
-25 39 -25 21z"/>
<path d="M98814 31738 l-22 -10 -11 -24 c-14 -30 -14 -34 -1 -34 l10 0 0 15 0
15 25 16 25 16 20 -5 20 -5 0 8 c0 8 -25 21 -38 19 -4 0 -17 -5 -28 -11z"/>
<path d="M79850 30505 c0 -3 7 -17 16 -30 l16 -25 9 6 9 5 -16 25 c-15 22 -34
32 -34 19z"/>
<path d="M17172 27209 l-43 -191 5 -6 c3 -3 8 -3 11 0 4 4 37 139 84 351 l9
37 -12 0 -11 0 -43 -191z"/>
<path d="M94822 26725 c-101 -73 -186 -136 -189 -139 l-6 -6 9 0 c8 0 361 254
380 273 l7 7 -9 0 c-5 -1 -91 -61 -192 -135z"/>
<path d="M89228 23814 l-6 -6 23 -69 c13 -39 36 -114 50 -167 14 -53 31 -112
36 -129 l11 -33 14 0 c8 0 14 2 14 5 0 12 -80 293 -98 344 l-19 55 -9 3 c-6 2
-13 1 -16 -3z"/>
<path d="M89491 21938 c-1 -21 119 -554 218 -968 39 -162 77 -319 84 -349 l13
-55 12 -4 12 -4 -5 14 c-2 7 -27 112 -55 233 -114 495 -278 1160 -279 1133z"/>
<path d="M89569 20901 c-366 -336 -494 -456 -498 -465 -5 -13 39 26 285 249
257 232 340 312 334 318 -3 3 -57 -43 -121 -102z"/>
<path d="M89562 20839 c-73 -67 -132 -125 -132 -131 0 -5 57 43 128 108 70 64
131 121 136 125 5 5 8 11 5 13 -3 3 -64 -49 -137 -115z"/>
<path d="M96320 12332 c0 -9 324 -295 340 -300 l10 -4 0 11 c0 11 -329 301
-342 301 -4 0 -8 -4 -8 -8z"/>
</g>
</svg>
