<?xml version="1.0" standalone="no"?>
<!DOCTYPE svg PUBLIC "-//W3C//DTD SVG 20010904//EN"
 "http://www.w3.org/TR/2001/REC-SVG-20010904/DTD/svg10.dtd">
<svg version="1.0" xmlns="http://www.w3.org/2000/svg"
 width="7500.000000pt" height="7500.000000pt" viewBox="0 0 7500.000000 7500.000000"
 preserveAspectRatio="xMidYMid meet">
<metadata>
Created by potrace 1.16, written by Peter Selinger 2001-2019
</metadata>
<g transform="translate(0.000000,7500.000000) scale(0.075000,-0.075000)"
fill="#000000" stroke="none">
<path d="M86815 92733 c16 -17 226 -153 236 -153 12 0 68 62 69 74 l0 10 -33
-32 c-18 -18 -36 -32 -40 -32 -3 0 -52 30 -109 66 -56 36 -109 68 -117 71
l-16 6 10 -10z"/>
<path d="M24146 92221 l-6 -10 52 -15 c29 -8 128 -37 221 -64 l167 -49 0 12 0
12 -202 58 c-112 32 -208 60 -214 62 l-12 4 -6 -10z"/>
<path d="M26342 91609 l4 -13 65 -19 c35 -11 232 -68 437 -127 l373 -107 -4
11 -4 11 -179 52 c-98 29 -289 85 -424 124 -135 40 -251 74 -259 77 l-14 5 5
-14z"/>
<path d="M55732 91220 c-56 -105 -102 -195 -102 -200 l0 -10 13 0 12 0 97 183
c53 100 98 188 100 196 l3 14 -10 3 -11 4 -102 -190z"/>
<path d="M27300 91255 l0 -13 245 -61 c199 -49 669 -177 723 -196 l12 -4 0 13
0 14 -222 62 c-123 35 -343 93 -490 130 l-268 68 0 -13z"/>
<path d="M94780 90881 c0 -6 10 -16 23 -22 12 -7 48 -32 80 -57 31 -25 59 -43
62 -40 6 6 -78 77 -127 107 l-38 23 0 -11z"/>
<path d="M84325 88773 c-38 -7 -110 -20 -160 -28 l-90 -14 75 5 75 5 115 23
115 24 -30 0 c-16 0 -61 -7 -100 -15z"/>
<path d="M89878 87828 l-208 -70 0 -13 0 -14 203 68 c111 37 207 70 214 72
l12 4 -7 11 -7 11 -207 -69z"/>
<path d="M84277 86933 c-20 -48 -41 -94 -46 -101 l-8 -13 -74 21 c-75 20 -96
24 -87 15 7 -7 144 -45 161 -45 l14 0 42 96 c23 52 41 100 39 105 l-3 10 -38
-88z"/>
<path d="M88430 85622 c-29 -114 -55 -213 -58 -219 l-4 -13 9 0 9 0 22 88 c12
48 37 144 55 215 l34 127 -6 5 -7 4 -54 -207z"/>
<path d="M81029 85529 c113 -38 206 -67 208 -65 5 5 -387 136 -402 135 -6 0
82 -32 194 -70z"/>
<path d="M61310 85242 l0 -10 58 -6 c31 -4 136 -8 234 -9 l176 -2 8 8 c4 4 5
9 3 11 -2 2 -111 6 -241 10 l-238 7 0 -9z"/>
<path d="M26843 83593 l-213 -67 0 -11 0 -12 230 71 230 70 0 8 0 8 -17 -1
c-10 0 -114 -30 -230 -66z"/>
<path d="M80479 80203 c137 -370 143 -384 156 -372 3 3 -32 105 -78 227 l-82
222 -12 0 -12 0 28 -77z"/>
<path d="M75811 78089 c-210 -166 -381 -305 -381 -310 0 -22 34 2 238 164 119
95 290 230 379 301 l163 128 -6 9 c-3 5 -7 9 -9 9 -2 0 -175 -136 -384 -301z"/>
<path d="M71580 77123 l0 -13 245 0 245 0 0 10 0 9 -245 3 -245 3 0 -12z"/>
<path d="M74540 76721 l-10 -20 0 -38 1 -38 14 -19 14 -19 7 17 7 17 -12 12
c-15 15 -14 36 4 71 18 35 18 36 0 36 l-14 0 -11 -19z"/>
<path d="M26502 71818 l4 -12 210 -63 209 -63 14 5 14 6 -9 8 c-10 9 -413 131
-433 131 l-13 0 4 -12z"/>
<path d="M74430 70775 l0 -15 240 0 240 0 0 15 0 15 -240 0 -240 0 0 -15z"/>
<path d="M66310 67039 c-91 -71 -166 -134 -168 -139 l-4 -10 11 0 c9 0 156
111 340 257 3 2 0 8 -5 13 l-9 9 -165 -130z"/>
<path d="M87580 66362 c0 -4 51 -36 113 -70 61 -34 144 -80 184 -102 l71 -41
6 9 5 9 -182 101 c-101 56 -186 102 -190 102 -4 0 -7 -3 -7 -8z"/>
<path d="M97707 66245 c-115 -29 -211 -56 -214 -59 l-6 -6 6 -6 6 -7 230 58
231 57 -6 9 c-8 14 -25 11 -247 -46z"/>
<path d="M97546 65999 c19 -89 41 -189 48 -223 16 -67 118 -415 135 -458 l11
-28 10 0 c13 0 13 3 -4 42 -8 18 -40 120 -71 227 l-56 194 -43 200 -43 201
-10 3 -11 4 34 -162z"/>
<path d="M49154 65932 l7 -12 -14 -6 -14 -5 0 -13 c0 -7 -74 -137 -165 -287
-182 -301 -351 -599 -339 -599 4 0 40 60 80 133 100 180 434 737 443 737 4 0
80 -52 168 -115 88 -63 160 -111 160 -106 0 4 -72 59 -160 121 -88 63 -160
117 -160 121 0 4 3 10 8 12 l7 5 160 -114 c87 -62 161 -111 164 -109 2 3 2 6
0 8 -34 27 -327 231 -338 235 l-14 5 7 -11z"/>
<path d="M60450 64199 c0 -32 32 -183 67 -316 l37 -143 9 0 9 0 -5 13 c-17 44
-69 248 -87 341 -19 102 -30 140 -30 105z"/>
<path d="M59000 64004 c0 -5 4 -15 9 -23 l9 -13 6 10 6 10 -15 12 -15 12 0 -8z"/>
<path d="M59062 63910 c7 -11 16 -20 21 -20 l8 0 -11 20 c-6 11 -15 20 -20 20
l-10 0 12 -20z"/>
<path d="M59120 63842 c0 -13 15 -29 39 -41 l23 -13 -6 -36 -5 -36 15 16 16
16 -7 28 -6 29 -35 22 c-19 12 -34 19 -34 15z"/>
<path d="M41450 63743 l-24 -5 -78 -65 c-43 -36 -78 -67 -78 -69 0 -9 22 7 96
68 l71 58 39 0 39 0 49 -15 c27 -8 56 -15 65 -14 l16 1 -60 19 c-75 23 -103
28 -135 22z"/>
<path d="M41770 63626 c0 -5 24 -36 53 -70 29 -34 96 -117 147 -186 l94 -125
224 -253 c124 -139 227 -251 229 -248 3 2 -91 112 -208 243 l-212 238 -113
150 c-113 150 -214 268 -214 251z"/>
<path d="M41960 63324 c1 -22 248 -309 258 -299 3 2 -31 44 -75 92 -44 49
-101 115 -128 148 -26 33 -49 62 -51 64 -2 2 -4 0 -4 -5z"/>
<path d="M51806 63219 c-8 -19 -42 -95 -75 -169 l-61 -134 9 -9 9 -9 15 28 c8
16 43 91 77 168 l62 138 -11 11 -11 11 -14 -35z"/>
<path d="M41545 63140 c3 -5 11 -10 16 -10 l10 0 -6 10 c-3 6 -11 10 -16 10
l-10 0 6 -10z"/>
<path d="M58389 62747 c-97 -67 -175 -124 -173 -126 4 -4 285 184 344 229 l25
20 -10 -1 c-5 0 -89 -55 -186 -122z"/>
<path d="M43290 62585 c0 -3 219 -252 291 -329 l9 -10 0 10 c0 10 -287 334
-295 334 -3 0 -5 -2 -5 -5z"/>
<path d="M58005 62409 c-115 -94 -212 -176 -214 -182 l-4 -11 49 39 c27 22
127 102 222 179 94 76 172 140 172 142 0 13 -35 -13 -225 -167z"/>
<path d="M89015 62351 c17 -16 97 -86 179 -155 l149 -125 9 5 c5 3 8 7 6 9
-120 105 -352 295 -361 295 l-12 0 30 -29z"/>
<path d="M56736 62112 c5 -5 133 -62 284 -127 151 -65 280 -120 285 -123 l10
-5 -10 11 c-10 11 -557 252 -572 252 l-7 0 10 -8z"/>
<path d="M45791 61988 c-1 -3 12 -105 29 -225 16 -120 30 -228 30 -240 l0 -22
-217 -187 c-120 -103 -220 -189 -222 -191 -2 -2 -2 -5 0 -8 3 -2 109 84 235
193 l231 198 -8 14 c-4 8 -20 110 -34 225 -15 116 -30 219 -35 230 -5 11 -9
17 -9 13z"/>
<path d="M58305 61431 c9 -9 138 -67 763 -341 l42 -19 0 7 c0 5 -703 320 -794
355 l-21 8 10 -10z"/>
<path d="M58610 60179 l-15 -10 37 7 37 6 66 -132 c36 -73 68 -130 71 -127 3
3 -24 64 -60 136 l-66 131 -28 0 c-15 0 -34 -5 -42 -11z"/>
<path d="M83370 59965 c0 -14 50 -101 128 -225 47 -74 140 -229 205 -345 147
-259 510 -946 527 -998 l12 -38 5 5 6 6 -18 47 c-53 142 -545 1046 -722 1326
-51 81 -102 165 -113 187 -18 36 -30 49 -30 35z"/>
<path d="M63799 59165 c25 -124 49 -225 52 -225 4 0 -14 101 -39 225 -25 124
-49 225 -52 225 l-7 0 46 -225z"/>
<path d="M63995 58008 c3 -13 43 -214 90 -447 47 -233 88 -427 91 -430 l7 -6
-5 25 c-2 14 -42 217 -88 453 l-84 427 -8 0 -8 0 5 -22z"/>
<path d="M64034 58008 c14 -59 366 -1754 366 -1762 l0 -8 14 5 14 5 21 -14 21
-15 0 -33 0 -33 -18 -16 -19 -17 -29 0 -30 0 -12 12 -12 12 -6 -6 -6 -6 24
-16 25 -16 31 6 31 6 21 23 22 24 -9 38 -8 38 -32 15 -32 15 -5 20 c-2 11 -84
405 -182 875 l-177 855 -10 10 -10 10 7 -27z"/>
<path d="M79448 56581 l-37 -28 -96 -32 -97 -32 -84 -6 -84 -6 0 -9 0 -8 58 5
c117 12 139 16 228 46 l90 31 40 34 c47 40 34 44 -18 5z"/>
<path d="M90572 56486 c-12 -18 -87 -97 -166 -175 l-144 -141 9 -6 10 -6 153
154 c85 84 159 163 165 175 l11 22 -8 5 -8 4 -22 -32z"/>
<path d="M81625 56226 c-93 -24 -181 -49 -195 -55 l-25 -11 25 4 c49 9 383 96
388 101 11 11 -29 3 -193 -39z"/>
<path d="M61796 55918 l-6 -33 9 -53 c4 -29 11 -55 14 -58 l5 -6 -1 91 -2 91
-6 0 c-4 0 -9 -15 -13 -32z"/>
<path d="M35980 55801 l0 -8 76 -22 c86 -25 113 -22 32 4 -29 9 -65 20 -80 25
l-28 9 0 -8z"/>
<path d="M25694 55242 c9 -16 258 -194 263 -189 3 4 -212 165 -256 192 l-14 8
7 -11z"/>
<path d="M87580 55181 c0 -7 48 -103 106 -212 l106 -199 9 0 c5 0 9 2 9 6 0 8
-210 398 -221 409 l-9 9 0 -13z"/>
<path d="M26752 55125 l87 -45 88 -14 c48 -8 107 -17 131 -20 l42 -6 0 9 0 8
-72 7 c-40 4 -100 14 -134 22 l-60 14 -76 35 c-107 49 -110 43 -6 -10z"/>
<path d="M52350 54927 c9 -9 310 -207 316 -207 17 0 -22 30 -139 109 -73 48
-143 92 -157 96 -14 4 -23 5 -20 2z"/>
<path d="M49011 53799 c38 -78 72 -139 75 -136 7 6 -129 277 -138 277 -5 0 24
-63 63 -141z"/>
<path d="M49155 53122 c-150 -76 -221 -120 -211 -129 2 -3 24 8 48 25 24 16
104 60 178 97 143 71 146 73 139 79 -2 2 -72 -30 -154 -72z"/>
<path d="M77964 52853 c3 -10 17 -65 30 -123 42 -177 169 -541 342 -982 l86
-218 9 0 c5 0 9 4 9 8 0 4 -41 111 -91 238 -155 389 -296 790 -330 934 -11 47
-24 102 -30 123 l-10 37 -10 0 -10 0 5 -17z"/>
<path d="M12622 52717 c-56 -81 -102 -149 -102 -152 0 -22 31 15 114 135 l98
140 -4 12 -4 11 -102 -146z"/>
<path d="M12734 52782 c-18 -26 -64 -93 -103 -149 l-72 -103 13 0 13 1 80 116
c44 63 88 128 98 143 l18 28 -8 5 -8 5 -31 -46z"/>
<path d="M71105 52739 c-72 -38 -134 -70 -140 -72 l-10 -4 6 -7 7 -7 131 65
c72 36 134 66 139 66 4 0 16 -16 26 -35 l19 -35 13 0 14 0 -28 45 c-14 24 -31
46 -37 49 l-10 4 -130 -69z"/>
<path d="M26794 52688 c32 -46 104 -155 150 -228 l46 -74 0 -28 0 -28 9 0 8 0
-7 39 -7 40 -73 118 c-80 128 -120 183 -134 183 l-8 0 16 -22z"/>
<path d="M27696 52170 c-3 -60 -8 -161 -11 -222 l-4 -113 8 45 c10 52 26 400
18 400 -2 0 -7 -49 -11 -110z"/>
<path d="M58126 51831 l-6 -9 199 -111 c195 -108 221 -120 221 -102 l0 9 -200
111 c-111 61 -203 111 -205 111 -2 0 -6 -4 -9 -9z"/>
<path d="M33474 51279 l-7 -11 10 -7 9 -6 22 -180 c25 -198 32 -239 38 -232 3
2 -7 95 -22 206 l-26 202 7 7 7 7 253 0 c139 0 256 2 258 5 3 3 -114 7 -261 8
-146 2 -270 5 -273 8 -4 2 -11 -1 -15 -7z"/>
<path d="M33670 49879 c0 -17 38 -321 46 -368 3 -18 7 -31 10 -28 6 5 -43 398
-51 405 -3 3 -5 -1 -5 -9z"/>
<path d="M22405 49750 l30 -8 165 -5 165 -5 -20 7 -20 8 -175 5 -175 6 30 -8z"/>
<path d="M35974 49510 c2 -14 19 -116 37 -227 l33 -203 8 0 8 0 -5 23 c-2 12
-18 105 -35 207 -17 102 -35 194 -41 205 l-9 20 4 -25z"/>
<path d="M37964 49073 c2 -10 20 -109 38 -220 l32 -203 9 0 8 0 -5 18 c-2 9
-20 108 -38 220 l-32 202 -9 0 -8 0 5 -17z"/>
<path d="M34406 48819 c30 -188 37 -219 48 -208 3 2 -10 94 -27 203 l-32 199
-11 4 -11 4 33 -202z"/>
<path d="M91439 48708 c-68 -78 -153 -178 -188 -223 -35 -44 -124 -141 -198
-216 -73 -75 -133 -141 -133 -145 0 -5 54 45 121 111 l121 120 81 100 c73 91
242 288 305 357 14 15 23 30 20 33 -2 3 -61 -59 -129 -137z"/>
<path d="M34098 48616 l-206 -11 -8 -8 -8 -8 89 6 c50 3 170 10 269 15 98 5
181 12 184 15 7 6 -61 5 -320 -9z"/>
<path d="M34480 48590 c0 -12 8 -12 35 0 l20 9 -27 0 -28 1 0 -10z"/>
<path d="M33885 48565 c-220 -13 -413 -25 -430 -28 l-30 -4 40 -2 c55 -2 958
49 964 55 8 7 -136 2 -544 -21z"/>
<path d="M34570 48290 c0 -11 16 -123 35 -250 19 -127 35 -236 35 -242 l0 -12
10 10 10 10 -37 252 -38 252 -7 0 -8 0 0 -20z"/>
<path d="M37302 47422 l-243 -15 8 -7 8 -7 284 18 c156 10 286 20 289 23 l5 6
-54 -2 c-30 0 -163 -8 -297 -16z"/>
<path d="M37043 47310 c4 -41 14 -183 22 -315 16 -242 23 -311 31 -303 2 3 -7
156 -20 342 l-25 338 -7 6 -7 7 6 -75z"/>
<path d="M55813 43034 c3 -11 35 -103 72 -206 l68 -188 8 5 8 5 -68 197 -68
197 -13 4 -13 5 6 -19z"/>
<path d="M50593 42664 c6 -165 10 -195 22 -183 2 3 2 85 -2 182 l-6 177 -10 0
-10 0 6 -176z"/>
<path d="M50835 42489 c-71 -10 -134 -18 -139 -18 l-9 -1 5 -5 5 -6 164 21
c158 20 210 31 138 29 -19 -1 -92 -9 -164 -20z"/>
<path d="M93790 41863 c-63 -47 -149 -110 -190 -140 -41 -31 -67 -53 -56 -49
19 6 376 265 376 272 0 11 -25 -4 -130 -83z"/>
<path d="M28960 41150 c0 -10 36 -20 75 -20 36 0 155 -31 207 -53 l37 -15 139
-105 139 -105 59 -30 59 -29 48 -7 48 -7 29 6 c17 4 30 10 30 13 l0 7 -75 2
-76 2 -57 32 c-31 18 -118 79 -193 135 l-137 103 -38 16 c-56 24 -170 52 -236
58 l-58 6 0 -9z"/>
<path d="M85093 38137 c3 -7 53 -89 112 -183 59 -93 114 -180 122 -192 8 -13
17 -21 20 -19 2 3 -20 43 -49 89 -30 46 -87 136 -127 201 -66 105 -92 140 -78
104z"/>
<path d="M69790 37872 c0 -4 97 -56 215 -115 l215 -107 0 13 0 12 -205 103
c-200 100 -225 110 -225 94z"/>
<path d="M91410 37749 c-52 -4 -119 -10 -147 -14 l-53 -6 0 -10 0 -9 26 0 c14
0 78 4 142 10 65 5 170 12 235 16 l117 6 0 9 0 9 -112 -1 c-62 -1 -156 -5
-208 -10z"/>
<path d="M86157 37279 c-125 -83 -226 -154 -223 -156 5 -5 466 295 466 303 0
12 -35 -10 -243 -147z"/>
<path d="M57886 37108 c-20 -31 -227 -382 -229 -388 -1 -3 3 -5 8 -6 l10 -1
122 203 122 204 -9 5 -9 6 -15 -23z"/>
<path d="M86800 35482 c0 -5 24 -21 53 -35 l52 -27 53 0 52 0 0 9 0 8 -60 6
-59 5 -34 21 c-36 22 -57 27 -57 13z"/>
<path d="M60740 34698 c-40 -112 -75 -210 -78 -218 l-5 -15 8 8 c12 11 163
427 155 427 -4 0 -40 -91 -80 -202z"/>
<path d="M62310 34089 c-14 -12 -50 -34 -81 -50 l-57 -28 -63 -11 -64 -10 -97
0 -98 0 0 -10 0 -10 109 0 108 0 54 10 54 10 60 29 60 29 35 30 35 31 -15 0
c-8 0 -26 -9 -40 -20z"/>
<path d="M98814 31738 l-22 -10 -11 -24 c-14 -30 -14 -34 -1 -34 l10 0 0 14 0
15 22 15 22 16 26 0 25 0 -15 10 c-18 12 -29 12 -56 -2z"/>
<path d="M29945 29949 c-99 -56 -184 -105 -189 -110 l-10 -9 10 -9 9 -9 189
107 189 106 -1 10 c0 5 -4 11 -9 12 -4 1 -89 -43 -188 -98z"/>
<path d="M95310 26779 c-96 -71 -177 -134 -179 -140 -3 -9 325 226 359 257
l14 14 -9 -1 c-6 0 -89 -58 -185 -130z"/>
<path d="M90500 24839 c52 -6 162 -21 244 -35 82 -13 152 -22 154 -19 8 8 -16
13 -158 35 l-135 21 -100 4 -100 4 95 -10z"/>
<path d="M86761 20815 c0 -13 306 -331 312 -325 3 3 -67 79 -154 170 -87 91
-159 161 -158 155z"/>
<path d="M87105 20389 c158 -167 250 -259 258 -259 11 0 -301 324 -317 329 -6
2 20 -30 59 -70z"/>
<path d="M88894 20228 c-109 -99 -257 -233 -327 -296 -70 -63 -126 -117 -123
-120 6 -6 26 11 362 317 153 140 283 258 288 263 5 4 7 10 5 13 -3 2 -95 -77
-205 -177z"/>
<path d="M92140 16394 c0 -5 20 -30 45 -54 l45 -44 0 10 c0 5 -20 30 -45 54
l-45 44 0 -10z"/>
</g>
</svg>
