<?xml version="1.0" standalone="no"?>
<!DOCTYPE svg PUBLIC "-//W3C//DTD SVG 20010904//EN"
 "http://www.w3.org/TR/2001/REC-SVG-20010904/DTD/svg10.dtd">
<svg version="1.0" xmlns="http://www.w3.org/2000/svg"
 width="7500.000000pt" height="7500.000000pt" viewBox="0 0 7500.000000 7500.000000"
 preserveAspectRatio="xMidYMid meet">
<metadata>
Created by potrace 1.16, written by Peter Selinger 2001-2019
</metadata>
<g transform="translate(0.000000,7500.000000) scale(0.075000,-0.075000)"
fill="#000000" stroke="none">
<path d="M83215 92233 c-22 -13 -109 -60 -192 -105 l-153 -82 0 -14 0 -14 103
55 c56 30 143 76 192 102 50 26 93 50 97 54 l7 6 -7 11 -7 10 -40 -23z"/>
<path d="M78373 89878 l-32 -8 -75 -88 c-90 -105 -178 -192 -269 -264 l-68
-54 -170 -93 -169 -94 0 -9 0 -9 33 17 c17 9 92 50 165 90 73 41 137 74 142
74 6 0 10 4 10 8 0 4 21 21 46 37 26 16 84 64 130 105 l84 76 75 89 76 90 27
12 27 11 35 -14 c45 -19 67 -39 100 -93 l27 -43 7 10 6 10 -33 48 c-36 54 -68
80 -112 92 l-30 9 -32 -9z"/>
<path d="M78620 89624 c0 -4 10 -24 22 -45 l21 -38 9 5 8 5 -20 40 -20 39 -10
0 c-6 0 -10 -3 -10 -6z"/>
<path d="M78175 89495 l-189 -103 -4 -12 -5 -13 19 7 c11 4 103 52 207 107
l187 101 -5 9 c-4 5 -9 9 -13 8 -4 0 -92 -47 -197 -104z"/>
<path d="M85381 88979 c-58 -11 -78 -21 -26 -13 22 4 119 10 215 13 l175 7
-160 1 -160 1 -44 -9z"/>
<path d="M80256 87992 l-6 -9 206 -73 205 -72 6 6 6 6 -5 6 c-5 5 -324 119
-385 138 l-21 7 -6 -9z"/>
<path d="M75715 86048 c-2 -7 -38 -107 -79 -223 l-74 -210 5 -8 c3 -5 7 -6 9
-4 2 2 40 104 83 226 l78 221 -8 6 -9 5 -5 -13z"/>
<path d="M81675 85353 c13 -13 407 -144 400 -133 -3 5 -90 36 -193 71 -103 34
-194 64 -202 67 l-15 5 10 -10z"/>
<path d="M78456 83562 c-38 -108 -71 -203 -73 -209 l-5 -13 11 0 11 0 11 28
c6 15 40 109 75 210 l63 182 -12 0 -12 0 -69 -198z"/>
<path d="M79025 80531 c-67 -47 -153 -110 -193 -139 l-73 -53 6 -10 7 -10 66
48 c37 26 124 88 194 138 l126 92 -6 10 -7 11 -120 -87z"/>
<path d="M78920 80144 c-107 -78 -196 -147 -198 -153 l-4 -11 10 0 c11 0 398
280 395 286 -1 3 -3 8 -5 12 l-3 8 -195 -142z"/>
<path d="M74380 76543 c0 -5 51 -38 112 -73 131 -76 128 -74 128 -63 0 5 -26
23 -57 41 -32 17 -86 48 -120 67 l-63 36 0 -8z"/>
<path d="M68694 69377 c-54 -56 -121 -126 -149 -154 l-49 -53 7 -7 8 -7 90 90
c50 49 117 119 150 156 l60 66 -9 6 -8 5 -100 -102z"/>
<path d="M28757 65763 c9 -116 9 -209 -2 -278 l-7 -50 9 10 c5 6 16 37 22 69
l13 59 -6 86 c-4 47 -9 112 -12 144 l-6 57 -9 0 -9 0 7 -97z"/>
<path d="M28755 65420 c3 -5 8 -10 11 -10 3 0 2 5 -1 10 -3 6 -8 10 -11 10 -3
0 -2 -4 1 -10z"/>
<path d="M3040 65150 l-75 -50 -75 -31 c-41 -17 -77 -34 -80 -36 -10 -10 85 9
124 25 48 19 196 119 196 133 0 16 -13 10 -90 -41z"/>
<path d="M2510 64984 c-69 -12 -140 -26 -157 -29 l-33 -6 0 -14 c0 -19 -14
-20 180 15 91 17 184 30 208 30 l42 0 0 15 0 15 -57 -1 -58 -1 -125 -24z"/>
<path d="M41270 63574 c0 -9 233 -273 254 -286 26 -17 24 -6 -3 20 -16 15 -75
79 -131 142 -57 63 -107 119 -111 125 l-9 9 0 -10z"/>
<path d="M41990 63346 c0 -9 119 -152 189 -229 39 -42 71 -73 71 -68 0 5 -32
44 -71 87 -40 44 -96 109 -126 147 -49 61 -63 75 -63 63z"/>
<path d="M41960 63323 c0 -16 69 -102 179 -222 135 -147 321 -362 321 -369 0
-3 -21 -29 -47 -56 l-48 -49 21 14 c36 24 104 88 104 99 l0 10 -9 -2 -10 -3
-228 261 c-125 143 -240 276 -255 295 l-27 34 -1 -12z"/>
<path d="M8940 63105 l0 -15 23 -4 c12 -3 45 -8 72 -11 28 -3 65 -9 83 -12
l32 -5 0 15 0 15 -32 5 c-18 3 -55 9 -83 12 -27 3 -60 8 -72 11 l-23 4 0 -15z"/>
<path d="M57330 61901 c0 -4 53 -31 118 -59 64 -28 243 -106 397 -173 154 -67
299 -130 323 -140 l42 -18 0 7 c0 4 -78 41 -173 82 -94 41 -278 121 -407 178
-129 57 -250 110 -267 117 l-33 14 0 -8z"/>
<path d="M45665 61289 c-121 -105 -222 -195 -224 -202 -2 -6 27 15 65 48 38
33 143 122 232 199 89 76 162 140 162 142 0 14 -39 -17 -235 -187z"/>
<path d="M59540 60932 c1 -9 209 -106 215 -100 3 3 -44 28 -105 56 -60 28
-110 48 -110 44z"/>
<path d="M38833 60303 c10 -3 115 -15 233 -27 l214 -22 0 8 0 8 -22 0 c-13 0
-106 9 -208 20 -102 11 -196 19 -210 19 l-25 -1 18 -5z"/>
<path d="M63524 60260 c3 -14 24 -113 47 -220 l41 -195 10 -10 10 -10 -6 20
c-3 11 -24 106 -46 210 -22 105 -45 199 -50 210 l-10 20 4 -25z"/>
<path d="M56316 58201 c5 -5 62 -25 127 -44 l117 -35 0 8 c0 5 -8 11 -17 14
-10 2 -63 18 -119 35 -56 17 -105 31 -110 31 l-8 0 10 -9z"/>
<path d="M64313 56670 c3 -14 24 -116 48 -228 l42 -203 13 5 12 4 21 -14 21
-15 0 -33 0 -33 -18 -16 -19 -17 -29 0 -30 0 -12 12 -12 12 -6 -6 -6 -6 24
-16 25 -16 31 6 31 6 21 23 22 24 -9 38 -9 38 -29 15 c-17 8 -31 15 -32 16 -2
0 -23 94 -47 208 -24 114 -47 210 -51 214 l-8 7 6 -25z"/>
<path d="M64274 56659 c3 -14 24 -113 46 -219 l41 -194 -23 -22 -23 -21 -247
-49 c-137 -27 -248 -51 -248 -55 0 -3 117 17 260 46 l259 51 20 26 c11 14 19
27 17 29 -3 2 -23 94 -46 204 -23 110 -47 207 -52 215 l-9 15 5 -26z"/>
<path d="M25991 55656 c2 -2 94 -68 204 -148 170 -122 255 -181 323 -222 l12
-7 0 8 c0 4 -24 22 -53 40 -29 17 -146 99 -261 182 -115 83 -214 151 -219 151
-6 0 -8 -2 -6 -4z"/>
<path d="M61790 55639 l0 -20 10 6 c6 3 10 13 10 21 l0 14 -10 0 -10 0 0 -21z"/>
<path d="M80565 55228 c2 -13 9 -61 15 -108 l11 -85 75 -300 c41 -165 77 -307
80 -315 l6 -15 5 11 4 12 -80 308 -80 309 -12 103 -12 102 -9 0 -8 0 5 -22z"/>
<path d="M51150 54993 l-35 -4 -10 -11 -10 -11 20 8 20 8 185 7 185 7 -160 0
c-88 0 -176 -2 -195 -4z"/>
<path d="M51942 54300 c-78 -105 -139 -190 -135 -190 10 1 286 370 281 375 -2
2 -68 -81 -146 -185z"/>
<path d="M80800 54054 c49 -190 92 -349 96 -353 l7 -6 -5 20 c-34 149 -175
685 -180 685 -3 0 34 -156 82 -346z"/>
<path d="M77545 54083 c20 -54 59 -162 88 -240 l51 -143 8 0 c13 0 11 8 -76
245 l-83 229 -12 4 -11 4 35 -99z"/>
<path d="M80988 53488 l55 -223 10 -10 10 -10 -5 15 c-3 8 -29 113 -59 233
-29 119 -56 217 -60 217 -4 0 18 -100 49 -222z"/>
<path d="M52475 53238 l-28 -33 -101 -12 -101 -12 96 4 c111 5 116 7 148 46
32 41 20 48 -14 7z"/>
<path d="M77905 52846 l-10 -14 -165 -62 c-91 -34 -171 -65 -179 -70 l-14 -7
9 -6 9 -5 179 69 c99 38 180 68 181 67 1 -2 10 -37 18 -78 9 -41 36 -135 59
-208 l42 -132 8 8 8 8 -30 90 c-17 49 -43 142 -59 206 l-28 117 11 5 11 4 -15
11 c-20 14 -23 14 -35 -3z"/>
<path d="M12734 52782 c-18 -26 -64 -93 -103 -149 l-72 -103 13 0 13 1 80 116
c44 63 88 128 98 143 l18 28 -8 5 -8 5 -31 -46z"/>
<path d="M27045 52113 l0 -233 8 0 7 0 -1 173 c-1 94 -4 199 -8 232 l-7 60 1
-232z"/>
<path d="M26995 52303 l8 -28 -2 -197 -2 -198 11 0 10 0 0 188 c0 103 -3 204
-6 225 l-7 37 -9 0 -10 0 7 -27z"/>
<path d="M88020 51310 l-195 -149 -42 -48 c-24 -26 -43 -52 -43 -58 0 -5 -27
-71 -60 -145 -53 -122 -65 -160 -41 -134 5 5 35 70 67 144 l58 135 30 40 30
40 198 150 c110 83 204 156 210 163 l10 12 -13 -1 c-8 0 -102 -67 -209 -149z"/>
<path d="M34064 51335 l-25 -25 3 -17 c2 -9 8 -18 14 -20 l11 -4 6 30 6 29 21
7 c11 3 20 11 20 16 l0 9 -15 0 -16 0 -25 -25z"/>
<path d="M33960 49930 c-91 -4 -189 -8 -217 -9 l-53 -1 0 -11 0 -10 178 6 c97
3 210 8 250 11 l72 6 0 9 0 9 -32 -2 c-18 -1 -107 -5 -198 -8z"/>
<path d="M34280 49930 l0 -10 14 0 c8 0 18 5 21 10 l6 10 -20 0 -21 0 0 -10z"/>
<path d="M33723 49450 c4 -19 18 -111 32 -205 29 -192 34 -219 41 -213 2 3
-11 102 -30 222 l-33 216 -8 8 -8 7 6 -35z"/>
<path d="M34407 48813 c18 -113 35 -209 38 -211 15 -16 12 25 -18 208 l-32
203 -11 4 -11 4 34 -208z"/>
<path d="M91454 48783 c-60 -70 -135 -158 -167 -195 -33 -37 -55 -68 -50 -68
5 0 84 88 176 195 92 107 164 195 159 195 -5 0 -57 -57 -118 -127z"/>
<path d="M42057 48528 l4 -8 197 2 c212 2 190 6 -55 10 l-151 3 5 -7z"/>
<path d="M29670 48130 c-63 -4 -148 -8 -187 -9 l-73 -1 0 -11 0 -10 18 5 c9 2
97 8 195 11 l177 7 0 9 c0 5 -3 8 -7 7 -5 -1 -60 -5 -123 -8z"/>
<path d="M34700 46745 l0 -175 10 0 10 0 0 175 0 175 -10 0 -10 0 0 -175z"/>
<path d="M51993 46468 c18 -50 382 -809 384 -801 3 9 -370 800 -383 811 l-7 7
6 -17z"/>
<path d="M81344 45948 l-7 -11 11 7 c7 4 12 9 12 12 0 8 -9 4 -16 -8z"/>
<path d="M81317 45853 c-2 -4 -8 -24 -12 -43 -4 -19 -16 -52 -26 -72 l-19 -37
-17 -10 -18 -10 22 -1 22 0 15 28 c18 36 49 142 43 148 -3 3 -7 2 -10 -3z"/>
<path d="M52460 44194 l0 -40 131 -275 c72 -151 132 -276 134 -277 2 -2 10 0
19 5 l15 8 -145 305 c-80 168 -148 307 -150 309 -2 2 -4 -14 -4 -35z"/>
<path d="M53610 40836 l0 -14 20 5 20 5 -6 9 c-3 5 -12 9 -20 9 l-14 0 0 -14z"/>
<path d="M85126 37738 c-3 -29 -8 -81 -11 -116 l-6 -63 43 -70 c23 -38 46 -69
50 -69 13 0 10 8 -32 74 l-40 64 6 116 7 116 -6 0 c-3 0 -8 -24 -11 -52z"/>
<path d="M30124 34132 c46 -92 91 -185 100 -206 l16 -39 6 5 5 6 -100 201
c-56 111 -103 201 -106 201 -3 0 33 -75 79 -168z"/>
<path d="M98814 31738 l-22 -10 -11 -24 c-14 -30 -14 -34 -1 -34 l10 0 0 14 0
15 22 15 22 16 26 0 25 0 -15 10 c-18 12 -29 12 -56 -2z"/>
<path d="M95015 26868 c-209 -153 -382 -284 -384 -290 l-3 -10 53 39 c30 22
200 147 379 277 342 251 346 254 339 259 -2 2 -175 -122 -384 -275z"/>
<path d="M95310 26779 c-96 -71 -177 -134 -179 -140 -3 -9 325 226 359 257
l14 14 -9 -1 c-6 0 -89 -58 -185 -130z"/>
<path d="M90500 24839 c52 -6 162 -21 244 -35 82 -13 152 -22 154 -19 8 8 -16
13 -158 35 l-135 21 -100 4 -100 4 95 -10z"/>
<path d="M89490 21935 c0 -38 202 -911 214 -922 l6 -6 6 6 6 6 -112 463 c-62
255 -114 465 -116 467 -2 2 -4 -4 -4 -14z"/>
<path d="M87108 20383 c39 -43 184 -192 322 -332 l250 -254 7 7 7 7 -79 73
c-44 40 -187 186 -319 325 -131 138 -243 251 -248 251 l-10 0 70 -77z"/>
<path d="M92177 16433 l-6 -10 96 -104 c53 -57 123 -132 156 -166 l59 -63 9 6
9 5 -147 157 c-80 86 -152 163 -159 170 l-12 14 -5 -9z"/>
</g>
</svg>
