<?xml version="1.0" standalone="no"?>
<!DOCTYPE svg PUBLIC "-//W3C//DTD SVG 20010904//EN"
 "http://www.w3.org/TR/2001/REC-SVG-20010904/DTD/svg10.dtd">
<svg version="1.0" xmlns="http://www.w3.org/2000/svg"
 width="7500.000000pt" height="7500.000000pt" viewBox="0 0 7500.000000 7500.000000"
 preserveAspectRatio="xMidYMid meet">
<metadata>
Created by potrace 1.16, written by Peter Selinger 2001-2019
</metadata>
<g transform="translate(0.000000,7500.000000) scale(0.075000,-0.075000)"
fill="#000000" stroke="none">
<path d="M84389 99188 c5 -12 26 -63 48 -113 l39 -90 57 -87 57 -88 11 0 10 0
-7 13 c-4 6 -33 53 -64 102 l-57 90 -40 94 -39 95 -12 4 -12 4 9 -24z"/>
<path d="M83290 99052 c0 -7 251 -157 290 -173 8 -4 39 -16 68 -28 l52 -21 0
8 c0 4 -28 18 -62 31 -52 20 -219 111 -325 177 l-23 14 0 -8z"/>
<path d="M83713 98873 l7 -11 77 -11 c43 -5 123 -13 178 -16 55 -3 119 -8 143
-11 l42 -5 0 10 0 11 -62 0 c-80 0 -347 26 -372 36 l-19 7 6 -10z"/>
<path d="M84934 98325 c14 -37 502 -855 510 -855 l8 0 -6 15 c-14 37 -502 855
-510 855 l-8 0 6 -15z"/>
<path d="M14046 97008 c-3 -51 -8 -148 -12 -215 l-6 -123 10 0 10 0 6 103 c3
56 9 153 12 215 l7 112 -11 0 -10 0 -6 -92z"/>
<path d="M87880 96390 l-65 -7 135 0 135 0 100 -35 c55 -20 174 -65 265 -100
91 -36 176 -69 190 -73 l25 -7 -10 10 c-5 6 -89 40 -185 77 -96 36 -209 79
-250 95 -41 16 -95 34 -120 39 l-45 11 -55 -2 c-30 -1 -84 -5 -120 -8z"/>
<path d="M98091 94556 c2 -2 88 -38 192 -79 l187 -75 0 8 0 8 -177 71 c-153
61 -219 83 -202 67z"/>
<path d="M98911 94230 c35 -21 822 -331 827 -326 2 3 -6 10 -19 15 -13 5 -201
79 -416 165 -364 144 -434 171 -392 146z"/>
<path d="M5502 93485 c-13 -110 -34 -290 -47 -400 -22 -185 -23 -217 -10 -203
3 2 16 108 30 234 14 126 32 292 41 369 9 77 14 154 12 170 l-3 30 -23 -200z"/>
<path d="M87715 93208 c-77 -79 -160 -165 -185 -193 -25 -27 40 33 143 135
l187 185 74 -74 74 -73 36 13 36 13 43 -11 c49 -14 62 -9 21 8 l-29 12 -37 0
-38 0 -13 -11 -13 -11 -74 74 c-41 41 -77 75 -80 75 -3 0 -68 -64 -145 -142z"/>
<path d="M56740 92960 c0 -11 349 -204 356 -197 3 2 -76 50 -175 105 l-181
100 0 -8z"/>
<path d="M5231 92325 l-54 -145 -22 -32 c-45 -68 -57 -88 -52 -88 3 0 21 22
41 48 l35 49 56 143 c31 79 54 149 53 156 l-3 13 -54 -144z"/>
<path d="M94990 91264 l-30 -35 -36 -72 c-20 -40 -45 -82 -56 -94 l-20 -22 7
-11 7 -11 19 17 c11 9 40 56 65 103 l47 86 29 31 29 31 -15 6 -15 6 -31 -35z"/>
<path d="M27663 91213 l7 -6 7 6 6 7 -13 0 -13 0 6 -7z"/>
<path d="M27726 91201 c11 -11 326 -92 333 -85 2 2 2 5 0 7 -5 4 -324 87 -335
87 l-8 0 10 -9z"/>
<path d="M31850 89935 l0 -13 70 -16 c38 -9 133 -25 211 -37 l141 -20 6 5 5 6
-6 6 c-3 4 -73 17 -154 30 -81 13 -176 30 -210 38 l-63 14 0 -13z"/>
<path d="M85205 88950 c-115 -20 -333 -64 -482 -96 l-273 -58 0 -8 0 -7 13 4
c37 12 571 122 742 153 l200 35 200 7 200 6 -195 1 -195 1 -210 -38z"/>
<path d="M86360 88980 c41 -5 125 -11 185 -15 l110 -6 65 10 65 9 -135 -1
c-74 0 -187 2 -250 5 l-115 6 75 -8z"/>
<path d="M85115 88894 c-104 -19 -334 -66 -509 -105 l-319 -71 -101 -9 c-136
-13 -145 -20 -16 -13 l105 6 355 78 c195 43 427 90 515 105 l160 27 10 9 9 9
-9 -1 c-6 -1 -95 -16 -200 -35z"/>
<path d="M84997 88358 c-170 -329 -288 -568 -279 -568 4 0 94 173 200 385 105
212 190 385 188 385 -3 0 -52 -91 -109 -202z"/>
<path d="M78970 88441 c0 -5 8 -11 18 -14 9 -3 108 -37 219 -75 l203 -71 5 8
5 8 -218 77 c-119 42 -220 76 -225 76 -4 0 -7 -4 -7 -9z"/>
<path d="M89595 88143 c7 -32 28 -125 46 -208 18 -82 36 -154 41 -159 l8 -10
0 16 c0 12 -55 267 -85 396 l-5 22 -9 0 -9 0 13 -57z"/>
<path d="M80270 88042 l0 -9 206 -72 206 -73 6 6 c3 3 3 8 1 10 -5 5 -405 146
-414 146 -3 0 -5 -4 -5 -8z"/>
<path d="M35410 88032 c0 -4 74 -81 164 -171 l163 -163 8 12 8 12 -159 159
-159 159 -12 0 c-7 0 -13 -3 -13 -8z"/>
<path d="M84477 87348 c-55 -100 -109 -212 -177 -368 -35 -80 -66 -149 -70
-153 l-7 -8 -257 71 c-241 66 -286 76 -275 66 3 -3 122 -37 264 -76 143 -39
265 -72 271 -74 l11 -4 73 166 c74 168 184 396 203 420 5 7 7 15 5 18 -3 3
-21 -23 -41 -58z"/>
<path d="M84541 87385 c-1 -5 -33 -71 -72 -145 -39 -74 -103 -207 -143 -295
l-72 -160 -19 -3 -20 -2 -267 73 c-148 41 -268 71 -268 67 0 -3 129 -41 286
-84 l287 -78 8 14 c5 7 39 81 75 163 37 83 100 214 141 292 l75 143 -5 12 -5
13 -1 -10z"/>
<path d="M56071 87131 l-12 -8 87 -209 c48 -115 90 -212 93 -216 l6 -7 12 7
13 8 -91 215 c-50 117 -92 215 -93 216 -1 1 -7 -2 -15 -6z"/>
<path d="M18356 86482 l-5 -9 382 -133 c529 -184 930 -319 945 -320 6 0 12 4
12 9 l0 9 -102 32 c-57 17 -173 55 -258 85 -85 30 -333 115 -550 191 -217 75
-400 139 -406 141 l-12 4 -6 -9z"/>
<path d="M80040 84726 l-62 -186 4 -16 3 -17 40 -13 40 -14 -19 15 c-11 8 -25
15 -32 15 -7 0 -16 5 -19 10 l-6 11 61 185 c34 102 60 188 57 190 -3 3 -33
-78 -67 -180z"/>
<path d="M80510 84371 c0 -3 154 -60 343 -125 188 -65 384 -134 435 -152 l92
-33 0 7 c0 4 -136 54 -302 112 -166 58 -362 126 -435 151 -73 26 -133 44 -133
40z"/>
<path d="M23905 84200 l-6 -9 33 -14 c18 -8 139 -60 268 -117 129 -56 480
-208 780 -337 l545 -235 65 -19 c71 -21 90 -23 90 -11 l0 7 -65 17 c-76 20
-71 18 -950 400 -379 166 -704 307 -722 314 l-32 14 -6 -10z"/>
<path d="M80935 84182 c13 -13 414 -156 421 -150 2 3 -84 37 -193 76 -109 39
-207 74 -218 78 l-20 7 10 -11z"/>
<path d="M0 83956 l0 -15 22 -15 21 -15 9 5 9 6 -12 14 c-7 8 -21 20 -31 25
l-18 10 0 -15z"/>
<path d="M81811 83906 c2 -2 91 -35 197 -74 l192 -69 0 7 c0 9 -12 14 -209 85
-133 48 -195 65 -180 51z"/>
<path d="M95741 83764 c-57 -75 -100 -138 -98 -141 6 -5 68 72 153 190 96 132
53 95 -55 -49z"/>
<path d="M77045 83347 c-60 -94 -116 -183 -124 -197 l-16 -24 12 7 c15 9 247
377 241 382 -3 3 -53 -73 -113 -168z"/>
<path d="M77920 83473 l0 -9 196 -63 c108 -34 198 -60 201 -57 3 2 -82 32
-189 66 -106 34 -196 64 -200 67 l-8 4 0 -8z"/>
<path d="M76550 82553 c-63 -102 -116 -193 -118 -202 -2 -9 40 54 93 139 124
198 148 240 144 245 -3 2 -56 -80 -119 -182z"/>
<path d="M79600 82398 c1 -7 24 -100 53 -207 l53 -195 11 -3 11 -4 -34 128
c-19 70 -44 165 -56 211 l-22 82 -8 0 c-4 0 -8 -6 -8 -12z"/>
<path d="M76265 82173 c-65 -103 -125 -194 -133 -200 l-15 -12 -101 54 -102
54 -82 19 -82 19 0 -7 0 -8 68 -12 67 -13 113 -59 113 -59 17 5 17 6 123 196
c68 108 122 198 119 200 -3 3 -57 -80 -122 -183z"/>
<path d="M92390 82221 l0 -9 31 -11 31 -11 160 -111 c88 -61 167 -113 176
-116 l15 -6 -4 11 c-5 14 -315 230 -356 248 -37 16 -53 18 -53 5z"/>
<path d="M18020 82127 l0 -12 213 -48 c223 -50 237 -52 237 -39 l0 9 -167 37
c-93 20 -194 43 -225 51 l-58 13 0 -11z"/>
<path d="M75208 81708 l-106 -313 -17 -100 c-8 -55 -18 -112 -21 -127 l-6 -28
9 0 9 0 19 128 19 127 83 245 c46 135 95 275 108 313 l25 67 -8 0 c-4 0 -55
-141 -114 -312z"/>
<path d="M79827 81563 l-5 -9 28 -104 c16 -58 34 -142 41 -188 l13 -82 9 9 9
9 -11 71 c-10 65 -67 290 -76 299 -1 2 -5 0 -8 -5z"/>
<path d="M95713 80723 c-34 -49 -89 -128 -123 -177 -34 -48 -57 -87 -51 -85
13 5 252 349 242 349 -4 0 -35 -39 -68 -87z"/>
<path d="M7177 80464 l-7 -7 88 -68 c48 -37 133 -100 189 -138 l102 -71 6 11
c4 6 5 12 4 13 -2 2 -53 37 -114 79 -60 42 -141 101 -180 131 -73 58 -77 60
-88 50z"/>
<path d="M98782 79390 c-51 -111 -91 -205 -88 -207 6 -6 15 11 107 213 44 97
78 181 76 187 -1 5 -44 -82 -95 -193z"/>
<path d="M98470 78659 c-63 -94 -135 -228 -127 -235 2 -3 21 28 42 68 21 40
64 113 97 161 33 49 58 91 55 93 -3 3 -33 -36 -67 -87z"/>
<path d="M41826 78054 l-68 -156 13 -9 13 -8 11 32 c7 18 37 89 68 158 32 70
57 130 57 133 0 3 -6 6 -13 6 l-12 0 -69 -156z"/>
<path d="M74150 78004 c0 -4 38 -58 83 -118 l84 -111 48 -85 c55 -98 53 -95
61 -87 l7 6 -56 98 -55 98 -77 100 c-72 93 -95 118 -95 99z"/>
<path d="M74560 76547 c0 -16 34 -114 42 -122 l11 -10 -5 15 c-3 8 -13 39 -22
68 -15 43 -26 65 -26 49z"/>
<path d="M30170 75102 c0 -4 44 -26 98 -49 l97 -43 235 -56 235 -56 235 -73
c129 -41 268 -83 308 -94 41 -11 82 -23 93 -26 l19 -6 0 10 0 10 -57 17 c-32
9 -177 53 -323 98 l-265 83 -239 58 -240 57 -90 39 c-92 40 -106 44 -106 31z"/>
<path d="M30596 74911 l-7 -10 28 -7 c15 -4 115 -31 221 -59 l193 -52 4 8 5 7
-32 11 c-18 5 -111 31 -207 56 -96 26 -180 49 -186 52 l-13 4 -6 -10z"/>
<path d="M33730 74102 l0 -9 83 -22 c45 -12 111 -34 147 -48 l65 -26 65 -55
c35 -30 116 -108 179 -174 l114 -119 38 -20 c21 -10 43 -19 49 -19 22 0 8 16
-35 39 l-46 24 -105 111 c-58 61 -134 135 -167 165 l-62 53 -60 28 c-50 23
-233 80 -257 80 -5 0 -8 -4 -8 -8z"/>
<path d="M36720 72530 c22 -61 44 -118 49 -128 23 -43 103 -92 151 -92 l20 0
0 8 c0 4 -21 14 -46 21 l-46 14 -28 24 -28 23 -44 120 -43 120 -12 0 -12 0 39
-110z"/>
<path d="M88150 71080 c-36 -10 -102 -28 -147 -40 -45 -12 -89 -27 -98 -34
l-17 -12 23 -72 c13 -40 26 -72 30 -72 l8 0 -20 57 c-10 31 -19 64 -19 73 l0
17 108 32 c59 17 131 36 160 43 l52 11 0 9 c0 10 -3 10 -80 -12z"/>
<path d="M90752 70815 c-2 -93 -7 -194 -11 -222 l-7 -53 7 0 8 0 6 43 6 42 -3
180 -3 180 -3 -170z"/>
<path d="M90792 70817 l-2 -168 -11 -72 -10 -72 -16 -35 c-9 -19 -41 -66 -72
-104 l-56 -70 -73 -58 -73 -58 11 0 c6 0 42 25 80 56 l69 55 54 67 c30 37 61
81 69 97 l16 30 12 75 11 75 -3 175 -4 175 -2 -168z"/>
<path d="M76690 69755 c-21 -25 -5 -28 31 -6 l34 21 -26 0 -27 0 -12 -15z"/>
<path d="M32952 69259 l3 -10 134 -60 c129 -57 226 -89 270 -89 l21 0 0 8 0 7
-72 17 -73 16 -138 61 c-148 66 -150 66 -145 50z"/>
<path d="M20440 69130 c-63 -10 -151 -27 -194 -37 l-80 -20 -4 -11 -3 -10 18
4 c10 2 54 12 98 23 44 11 137 27 208 37 l127 17 0 8 0 9 -27 -1 c-16 -1 -80
-9 -143 -19z"/>
<path d="M36662 69055 c6 -6 400 -75 427 -75 l14 0 -5 5 c-6 6 -400 75 -427
75 l-14 0 5 -5z"/>
<path d="M37561 68816 c9 -9 1310 -526 1322 -526 13 1 -1302 530 -1317 530 -5
0 -7 -2 -5 -4z"/>
<path d="M36250 68040 c0 -15 68 -51 436 -229 l349 -170 38 -6 37 -7 0 11 0
10 -42 12 -42 11 -331 160 c-181 87 -354 173 -382 189 -58 32 -63 34 -63 19z"/>
<path d="M50603 67258 c94 -66 361 -237 364 -234 6 6 -339 234 -364 242 l-18
5 18 -13z"/>
<path d="M4470 66871 l0 -10 175 -126 175 -127 12 4 12 4 -175 125 c-96 69
-180 129 -186 133 l-13 7 0 -10z"/>
<path d="M94420 66571 c0 -33 142 -858 150 -876 l10 -20 -5 30 c-55 333 -148
871 -151 874 -2 2 -4 -1 -4 -8z"/>
<path d="M94383 66550 c3 -14 35 -209 72 -435 68 -417 72 -441 80 -434 2 3
-29 202 -69 442 l-73 437 -8 8 -8 7 6 -25z"/>
<path d="M97456 66236 l-449 -111 -5 -13 c-2 -6 -1 -12 2 -12 7 0 831 202 897
220 l39 11 0 9 0 10 -17 -1 c-10 -1 -220 -51 -467 -113z"/>
<path d="M87557 66314 l-7 -7 128 -69 c70 -38 155 -85 189 -103 l62 -34 6 9 5
8 -182 99 c-213 115 -193 105 -201 97z"/>
<path d="M75115 66198 c-228 -127 -247 -139 -241 -145 5 -5 74 31 294 155
l124 70 -9 5 -8 5 -160 -90z"/>
<path d="M41590 66266 c0 -3 153 -105 308 -204 12 -8 22 -11 22 -8 0 7 -315
216 -325 216 -3 0 -5 -2 -5 -4z"/>
<path d="M41550 66192 c0 -11 311 -215 317 -208 3 3 -21 22 -53 42 -33 21
-105 68 -161 106 l-103 68 0 -8z"/>
<path d="M97554 65956 c40 -194 49 -226 61 -214 3 2 -15 96 -38 208 l-44 204
-10 3 -11 4 42 -205z"/>
<path d="M41912 66018 c-14 -14 -16 -28 -3 -28 9 0 24 30 18 36 -2 2 -9 -2
-15 -8z"/>
<path d="M48982 65719 c-73 -122 -131 -226 -130 -230 2 -5 63 91 136 212 73
122 131 226 130 230 -2 5 -63 -91 -136 -212z"/>
<path d="M83701 65663 c3 -27 12 -64 19 -83 l13 -35 48 -60 c26 -33 57 -82 70
-108 13 -26 27 -47 31 -47 l8 0 -26 53 c-15 28 -47 78 -72 110 l-45 59 -18 49
-19 49 0 30 0 30 -8 0 -8 0 7 -47z"/>
<path d="M50743 65694 c21 -22 462 -332 466 -329 2 3 2 6 0 8 -52 41 -458 327
-464 327 l-8 0 6 -6z"/>
<path d="M38005 65643 c-50 -30 -312 -152 -394 -184 -13 -5 -21 -12 -19 -15 7
-6 304 126 406 180 39 21 72 42 72 47 0 11 6 14 -65 -28z"/>
<path d="M83650 65672 c0 -5 7 -33 16 -63 l16 -54 74 -107 c41 -58 74 -111 74
-117 0 -6 5 -11 10 -11 l11 0 -17 33 c-9 17 -44 71 -77 120 -60 88 -86 143
-87 185 l0 22 -10 0 c-5 0 -10 -4 -10 -8z"/>
<path d="M31178 65522 l-6 -20 87 -6 c47 -4 253 -24 456 -46 204 -22 373 -40
376 -40 4 0 9 9 12 20 l5 20 -16 0 c-20 0 -388 43 -557 64 -66 9 -172 19 -236
22 l-116 7 -5 -21z"/>
<path d="M33376 65104 c-4 -9 -5 -18 -4 -19 2 -2 91 -13 198 -24 107 -12 212
-25 233 -28 l37 -6 0 21 0 21 -42 6 c-71 9 -389 45 -403 45 l-13 0 -6 -16z"/>
<path d="M33310 64845 l-13 -186 -23 -18 c-34 -27 -30 -35 6 -14 l30 17 0 20
c0 30 20 296 24 334 l5 32 -8 0 -8 0 -13 -185z"/>
<path d="M48507 64902 c-42 -70 -87 -142 -98 -159 l-21 -33 9 0 10 0 83 138
c46 75 90 147 98 160 l14 22 -8 0 c-5 0 -44 -57 -87 -128z"/>
<path d="M3659 64900 c-5 -55 -4 -68 7 -58 3 3 4 30 2 59 l-3 54 -6 -55z"/>
<path d="M48331 64539 c-50 -83 -91 -155 -89 -160 2 -7 77 109 191 298 l8 13
-9 0 c-5 0 -50 -68 -101 -151z"/>
<path d="M70704 64493 c52 -104 97 -198 101 -210 l6 -23 10 0 10 0 -4 8 c-2 4
-48 98 -102 210 -54 111 -102 202 -107 202 l-8 0 94 -187z"/>
<path d="M49824 64521 c7 -11 370 -161 388 -161 11 1 -377 170 -389 170 -2 0
-2 -4 1 -9z"/>
<path d="M1441 64511 l-13 -8 16 -6 15 -6 40 -78 c22 -43 52 -91 66 -107 l26
-28 6 5 5 6 -30 38 c-16 21 -46 70 -65 110 -20 39 -40 74 -45 77 l-8 5 -13 -8z"/>
<path d="M34946 64349 c-15 -47 -76 -456 -76 -508 0 -41 10 8 25 115 8 67 26
183 40 260 13 76 22 140 20 143 -3 2 -7 -2 -9 -10z"/>
<path d="M59817 64298 c-8 -12 -29 -50 -47 -83 l-32 -60 -44 -130 c-25 -71
-47 -139 -50 -150 l-5 -20 20 35 c11 19 36 84 56 144 l35 109 45 85 c25 47 43
87 41 89 -2 3 -11 -6 -19 -19z"/>
<path d="M40795 64185 c19 -7 467 -56 472 -51 6 6 -44 13 -249 36 -164 18
-248 24 -223 15z"/>
<path d="M39767 64063 c-14 -14 -5 -23 62 -63 38 -23 122 -81 187 -130 l118
-88 12 16 12 16 -106 80 c-106 79 -254 176 -270 176 -5 0 -12 -3 -15 -7z"/>
<path d="M92698 63964 c-3 -2 27 -36 66 -74 39 -38 107 -114 151 -169 75 -94
95 -113 95 -93 0 13 -142 187 -203 250 -57 59 -102 94 -109 86z"/>
<path d="M43512 63690 c-72 -110 -128 -200 -124 -200 10 0 266 389 260 396 -3
2 -64 -86 -136 -196z"/>
<path d="M36920 63874 c0 -5 -18 -128 -40 -274 -21 -145 -37 -266 -35 -269 8
-8 14 25 50 283 l36 258 -6 6 -5 5 0 -9z"/>
<path d="M89621 63833 c102 -114 165 -190 204 -249 l45 -69 0 13 c0 7 -15 35
-34 63 -46 69 -217 269 -229 269 l-11 0 25 -27z"/>
<path d="M41450 63743 l-24 -5 -78 -65 c-43 -36 -78 -67 -78 -69 0 -9 22 7 96
68 l71 58 37 0 38 0 55 -16 c30 -9 57 -14 59 -11 5 5 -79 32 -126 40 -14 3
-36 2 -50 0z"/>
<path d="M17028 63671 l-57 -47 -93 -51 c-51 -28 -114 -58 -140 -68 l-48 -18
0 -9 0 -10 28 6 c78 19 266 124 337 189 l49 44 -10 5 -9 5 -57 -46z"/>
<path d="M2258 63694 l-6 -6 232 -206 c128 -114 279 -247 337 -297 57 -49 174
-152 260 -227 86 -76 160 -138 163 -138 20 0 -10 32 -140 146 -81 71 -156 138
-168 149 -13 11 -103 90 -201 175 -98 85 -243 212 -322 283 -79 70 -145 127
-147 127 -1 0 -5 -3 -8 -6z"/>
<path d="M32688 63562 l-87 -57 -14 -55 c-9 -30 -21 -86 -27 -123 l-12 -68 6
-6 6 -6 4 14 c2 8 11 52 19 99 9 47 20 97 26 112 l10 27 78 52 c43 28 82 56
88 60 l9 9 -9 0 c-6 0 -49 -26 -97 -58z"/>
<path d="M41270 63571 c0 -5 57 -72 127 -150 l126 -141 16 0 15 0 -33 33 c-19
17 -81 85 -139 150 -58 64 -107 117 -109 117 -1 0 -3 -4 -3 -9z"/>
<path d="M41118 63428 c-79 -67 -145 -123 -147 -125 -2 -1 -2 -5 1 -8 4 -5
298 241 298 250 0 11 -15 -1 -152 -117z"/>
<path d="M49413 63192 c-213 -359 -314 -534 -310 -539 3 -2 38 51 77 119 40
68 137 230 216 360 l143 237 -7 5 -8 5 -111 -187z"/>
<path d="M16360 63321 l-20 -40 0 -40 0 -39 26 -31 26 -31 15 0 15 0 -31 35
-31 36 0 30 0 30 20 39 20 39 -10 6 -9 6 -21 -40z"/>
<path d="M41575 63170 c3 -5 8 -10 11 -10 2 0 4 5 4 10 0 6 -5 10 -11 10 l-10
0 6 -10z"/>
<path d="M40797 63145 l-17 -12 151 -169 c83 -93 154 -170 158 -172 5 -1 13 3
19 10 l10 13 -152 171 -153 171 -16 -12z"/>
<path d="M41545 63140 c3 -5 11 -10 16 -10 l10 0 -6 10 c-3 6 -11 10 -16 10
l-10 0 6 -10z"/>
<path d="M81157 63104 l-6 -7 15 -30 16 -30 -4 -57 -4 -56 -29 -37 -30 -37
-195 -102 c-107 -56 -233 -121 -280 -145 -87 -45 -107 -59 -99 -68 3 -2 77 33
165 79 87 46 220 114 294 151 l135 67 34 45 35 45 -1 62 0 62 -17 32 c-18 34
-19 35 -29 26z"/>
<path d="M17980 62943 c-25 -1 -207 -7 -404 -13 l-360 -10 -10 -11 -11 -12 30
7 c17 3 210 10 430 16 l399 10 10 10 10 10 -24 -2 c-14 -1 -45 -3 -70 -5z"/>
<path d="M16005 62909 l19 -12 251 -8 c137 -4 291 -10 340 -13 l90 -5 -35 10
-35 9 -295 10 c-162 5 -308 12 -325 15 l-30 6 20 -12z"/>
<path d="M58702 62905 c-19 -8 -125 -78 -237 -155 l-203 -140 -15 6 -15 5 1
-14 2 -14 -434 -346 -434 -347 -18 0 -18 0 5 -14 5 -13 22 -1 22 0 185 -82
c102 -45 200 -88 218 -95 l32 -14 0 7 c0 4 -99 50 -220 102 l-220 95 3 7 c1 4
197 162 436 352 l433 346 16 0 c9 0 99 -34 199 -76 101 -42 186 -74 189 -71 3
2 -77 38 -178 80 -100 41 -183 79 -185 84 l-2 8 175 120 c97 66 199 133 229
148 l53 29 367 -31 c202 -18 370 -30 372 -27 2 2 -17 7 -44 10 -73 9 -643 56
-678 56 l-30 -1 -33 -14z"/>
<path d="M43442 62699 c-84 -73 -152 -136 -152 -141 0 -4 71 53 158 128 86 75
159 138 161 140 2 2 0 4 -6 4 -5 0 -78 -59 -161 -131z"/>
<path d="M12853 62813 l7 -6 7 6 6 7 -13 0 -13 0 6 -7z"/>
<path d="M12530 62800 l-45 -8 165 6 c91 2 167 6 169 8 8 7 -243 1 -289 -6z"/>
<path d="M89160 62747 c-19 -22 -76 -95 -127 -161 l-92 -121 9 -9 c5 -5 11 -8
13 -5 2 2 39 51 82 109 43 58 100 130 127 161 l48 57 -13 5 -13 5 -34 -41z"/>
<path d="M23206 62559 c-48 -106 -84 -194 -81 -197 2 -3 18 24 34 59 16 35 56
124 89 197 l61 132 -8 0 c-4 0 -47 -86 -95 -191z"/>
<path d="M57981 62440 c-122 -99 -218 -180 -213 -180 8 0 308 236 441 347 2 1
2 5 0 8 -3 2 -105 -77 -228 -175z"/>
<path d="M89022 62421 c2 -5 81 -75 176 -156 l174 -146 11 4 11 3 -180 152
c-98 84 -183 152 -187 152 l-9 0 4 -9z"/>
<path d="M38885 62385 c6 -3 102 -18 215 -35 113 -17 216 -33 230 -36 l25 -5
-10 9 -10 9 -210 32 c-115 17 -219 31 -230 30 l-20 -1 10 -3z"/>
<path d="M89015 62351 c17 -16 97 -86 179 -155 l149 -125 9 5 c5 3 8 7 6 9
-120 105 -352 295 -361 295 l-12 0 30 -29z"/>
<path d="M56735 62113 c15 -14 1055 -465 1066 -461 7 2 -991 441 -1056 464
l-20 7 10 -10z"/>
<path d="M63161 62029 c-2 -11 80 -393 84 -398 9 -8 5 18 -30 191 -30 148 -52
230 -54 207z"/>
<path d="M58547 61871 l-87 -6 1 -10 1 -10 12 3 c6 2 54 6 106 9 l95 6 98 -41
98 -41 -3 10 -3 10 -94 40 -94 39 -21 -2 c-12 -1 -60 -4 -109 -7z"/>
<path d="M59856 61814 c-32 -36 -101 -126 -152 -201 l-94 -136 0 -15 0 -16 31
50 c61 95 173 250 227 312 30 34 53 65 50 67 -2 3 -31 -25 -62 -61z"/>
<path d="M59870 61772 l-75 -87 -78 -123 -78 -124 5 -6 c8 -7 3 -13 86 118
l73 115 74 88 75 87 -4 10 -3 10 -75 -88z"/>
<path d="M16650 61842 c0 -4 24 -20 53 -34 28 -15 116 -61 195 -103 l142 -76
0 8 c0 5 -33 25 -72 45 -40 20 -128 66 -195 102 -68 36 -123 62 -123 58z"/>
<path d="M43690 61638 c-124 -111 -227 -206 -229 -212 l-4 -11 24 21 c97 84
400 353 424 376 l30 28 -10 -1 c-6 0 -111 -91 -235 -201z"/>
<path d="M58366 61655 c-44 -102 -77 -187 -75 -189 6 -7 161 353 157 364 -2 5
-39 -74 -82 -175z"/>
<path d="M48107 61787 l-5 -13 204 -113 c111 -62 207 -112 211 -112 4 1 8 6 8
12 l0 11 -125 70 c-69 38 -162 90 -206 114 l-82 44 -5 -13z"/>
<path d="M56277 61627 l-19 -32 26 24 25 24 -5 8 c-7 12 -7 13 -27 -24z"/>
<path d="M62567 61643 c-4 -3 -7 -10 -7 -14 l0 -8 15 5 c8 4 15 10 15 15 0 11
-14 12 -23 2z"/>
<path d="M60771 61555 c-33 -38 -37 -50 -21 -60 l10 -6 0 10 c0 6 14 26 30 45
l31 34 -10 6 -9 6 -31 -35z"/>
<path d="M54550 61372 c0 -17 210 -925 215 -931 3 -2 5 1 5 7 0 20 -208 924
-214 930 l-6 5 0 -11z"/>
<path d="M18850 61093 c0 -10 7 -86 17 -170 l17 -151 -21 -56 -21 -56 12 0 12
0 19 55 18 55 -18 170 -19 170 -8 0 -8 0 0 -17z"/>
<path d="M18880 61083 l0 -9 123 -12 c67 -7 151 -19 187 -27 67 -15 117 -19
108 -10 -7 7 -214 42 -298 50 -36 3 -77 8 -92 11 l-28 6 0 -9z"/>
<path d="M44754 60554 c-110 -97 -206 -183 -214 -191 l-15 -15 12 3 c12 4 376
324 408 359 45 50 -7 7 -191 -156z"/>
<path d="M61763 60685 c17 -61 98 -467 95 -471 -3 -2 -98 -23 -211 -46 -114
-24 -207 -46 -207 -49 0 -3 96 13 213 37 l212 42 3 -9 4 -9 13 14 14 13 220
44 c122 24 221 46 221 50 l0 6 -217 -43 c-119 -24 -224 -44 -233 -44 l-16 0
-48 233 -49 232 -9 10 -10 10 5 -20z"/>
<path d="M60315 60605 l-80 -44 -255 -218 -255 -218 -185 -139 c-102 -77 -187
-141 -189 -143 -2 -2 -2 -5 0 -7 2 -3 99 67 214 153 l210 159 235 201 234 202
66 36 c78 43 108 63 95 63 -6 -1 -46 -21 -90 -45z"/>
<path d="M83215 60550 c-82 -48 -153 -94 -158 -102 l-9 -14 29 -47 29 -47 7 6
6 6 -24 37 c-14 19 -25 41 -25 47 l0 12 155 91 c141 83 170 103 148 100 -5 -1
-75 -41 -158 -89z"/>
<path d="M78360 60584 c-8 -1 -36 -6 -62 -9 l-48 -6 0 -14 0 -14 31 11 32 11
116 -7 c64 -3 146 -12 184 -20 l67 -13 0 12 0 12 -117 17 c-140 20 -183 24
-203 20z"/>
<path d="M86100 60551 c0 -9 297 -341 306 -341 11 0 -6 21 -151 180 -85 94
-155 166 -155 161z"/>
<path d="M83140 60365 c0 -3 28 -49 61 -103 34 -53 93 -160 132 -237 l71 -140
112 -177 c61 -97 156 -255 210 -352 55 -97 103 -176 107 -176 l9 0 -20 33
c-11 17 -63 111 -117 207 -54 96 -142 245 -195 330 -54 85 -132 219 -174 298
-123 232 -196 350 -196 317z"/>
<path d="M59918 60237 l-143 -123 -360 -270 c-198 -149 -371 -277 -383 -283
l-24 -13 6 -5 5 -5 35 20 c19 11 190 138 381 282 l346 262 144 124 c133 114
153 134 141 134 -3 0 -69 -55 -148 -123z"/>
<path d="M44561 60343 c6 -18 331 -365 337 -359 2 3 -60 74 -138 158 -178 190
-203 216 -199 201z"/>
<path d="M62120 60225 c-113 -24 -405 -84 -650 -135 -462 -95 -476 -98 -469
-105 3 -2 187 34 409 79 223 46 525 107 673 136 l267 53 0 8 c0 12 -1 12 -230
-36z"/>
<path d="M86440 60235 c0 -15 54 -79 183 -218 71 -76 132 -136 135 -133 3 3
-42 54 -99 114 -57 59 -126 134 -154 167 -27 33 -53 64 -57 70 l-8 9 0 -9z"/>
<path d="M61921 60151 c-1 -8 31 -167 70 -354 l71 -340 -5 -18 -5 -18 15 -5
c20 -8 25 -7 19 3 l-5 8 414 83 415 83 0 7 0 7 -412 -84 -412 -83 -6 7 c-4 5
-37 157 -74 338 -37 182 -71 341 -76 355 l-8 25 -1 -14z"/>
<path d="M83355 59900 c14 -28 62 -108 107 -178 167 -263 671 -1185 724 -1327
l23 -60 0 16 c2 35 -37 117 -201 429 -211 401 -413 760 -531 945 -49 77 -99
159 -110 183 -12 23 -25 42 -29 42 l-8 0 25 -50z"/>
<path d="M63655 59828 c22 -64 168 -768 435 -2093 118 -582 309 -1487 316
-1494 11 -11 -2 54 -77 401 -44 205 -174 837 -289 1403 -224 1107 -265 1305
-331 1603 l-43 192 -8 0 -7 0 4 -12z"/>
<path d="M93325 59760 c25 -41 282 -212 345 -230 l30 -9 0 8 c0 5 -12 11 -27
14 l-28 6 -103 65 c-56 36 -126 85 -156 110 -29 25 -56 46 -60 46 l-7 0 6 -10z"/>
<path d="M61502 59683 c3 -10 20 -97 38 -193 36 -183 37 -187 46 -178 l5 6
-37 191 -36 191 -10 0 -10 0 4 -17z"/>
<path d="M60837 59559 c-126 -26 -231 -50 -235 -54 l-7 -8 25 6 c14 3 120 24
235 47 116 24 212 44 214 46 14 13 -27 6 -232 -37z"/>
<path d="M62505 59484 c-225 -46 -424 -85 -442 -88 -18 -3 -137 -28 -265 -56
-128 -28 -324 -69 -435 -93 -112 -23 -203 -45 -203 -48 0 -6 471 88 875 175
116 25 361 75 545 112 184 37 337 69 339 71 16 12 -49 1 -414 -73z"/>
<path d="M49462 59248 c-89 -117 -159 -214 -156 -217 2 -2 5 -2 7 0 104 132
318 422 314 425 -3 3 -77 -91 -165 -208z"/>
<path d="M46982 59410 l-12 -20 0 -27 0 -27 9 10 c8 9 25 84 19 84 -2 0 -9 -9
-16 -20z"/>
<path d="M61348 59287 c-103 -23 -190 -46 -195 -51 l-8 -8 20 5 c11 4 99 23
195 43 96 20 182 40 190 45 l15 8 -15 0 c-8 -1 -99 -20 -202 -42z"/>
<path d="M16976 59263 c-4 -9 -10 -67 -13 -128 l-5 -110 27 -95 c15 -52 31
-102 36 -110 l8 -15 1 10 c0 6 -11 46 -25 90 l-24 80 -6 65 -7 65 11 80 c10
81 9 100 -3 68z"/>
<path d="M48352 59124 c-68 -85 -126 -162 -129 -172 -5 -13 167 196 260 316
l9 12 -8 -1 c-5 0 -64 -70 -132 -155z"/>
<path d="M59398 59232 c-126 -26 -228 -49 -228 -53 0 -3 106 15 235 40 l235
46 0 8 c0 9 25 13 -242 -41z"/>
<path d="M94540 59263 c0 -4 53 -37 118 -72 64 -35 148 -84 185 -108 37 -23
73 -43 80 -43 l12 0 -50 33 c-28 18 -102 62 -165 96 -63 35 -130 72 -147 83
l-33 20 0 -9z"/>
<path d="M63810 58923 c0 -6 27 -143 61 -304 33 -162 108 -532 165 -824 58
-291 134 -663 169 -825 35 -162 85 -394 110 -514 44 -212 50 -234 59 -225 4 4
-46 247 -138 663 -26 115 -49 226 -52 245 -9 58 -165 828 -268 1325 -84 405
-106 498 -106 459z"/>
<path d="M62870 58807 c-196 -40 -208 -43 -198 -52 5 -5 398 72 405 79 15 15
-36 8 -207 -27z"/>
<path d="M51140 58666 l0 -15 103 -74 c102 -74 169 -117 181 -117 3 0 6 6 6
13 l0 12 -37 20 c-21 11 -80 52 -133 90 -52 39 -101 74 -107 79 l-13 7 0 -15z"/>
<path d="M61945 58615 c-261 -55 -597 -138 -628 -155 -9 -6 -104 -28 -210 -50
-105 -22 -201 -45 -212 -50 l-20 -10 25 4 c166 32 382 80 410 91 62 25 418
113 650 160 124 25 234 50 245 55 l20 9 -15 -1 c-8 0 -127 -24 -265 -53z"/>
<path d="M61998 58586 c-109 -22 -198 -43 -198 -47 0 -7 418 75 427 85 l6 6
-19 -1 c-10 -1 -108 -20 -216 -43z"/>
<path d="M59595 58552 c13 -13 387 -154 393 -147 3 2 -1 7 -9 10 -8 2 -90 33
-184 69 -93 35 -179 68 -190 72 l-20 7 10 -11z"/>
<path d="M61770 58546 c0 -15 161 -791 165 -795 10 -10 3 31 -71 410 l-77 389
-8 0 c-5 0 -9 -2 -9 -4z"/>
<path d="M61525 58477 c-110 -28 -195 -52 -189 -54 11 -4 415 94 423 103 11
11 -49 -2 -234 -49z"/>
<path d="M35355 58374 c-86 -35 -365 -178 -365 -187 l0 -8 123 65 c67 35 164
81 215 101 l92 37 0 9 c0 5 -1 9 -2 8 -2 0 -30 -12 -63 -25z"/>
<path d="M59985 58363 c6 -6 88 -39 183 -74 l174 -64 13 -32 13 -31 32 -7 32
-7 24 24 24 24 -6 32 c-4 18 -10 32 -14 32 l-7 0 5 -30 4 -31 -17 -19 -17 -19
-16 6 c-10 3 -25 13 -34 21 l-18 15 10 12 10 12 -7 6 c-3 4 -14 7 -23 7 -9 0
-88 27 -176 59 -87 33 -168 63 -179 67 l-20 7 10 -10z"/>
<path d="M55905 58352 l10 -10 191 -51 c105 -28 197 -51 205 -51 l13 0 -9 9
c-6 5 -91 30 -190 55 -99 25 -191 49 -205 52 l-25 7 10 -11z"/>
<path d="M55893 58314 c11 -11 407 -114 407 -106 0 6 -217 66 -395 110 l-20 5
8 -9z"/>
<path d="M62313 58225 c3 -16 20 -108 38 -202 l33 -173 7 0 7 0 -4 18 c-2 9
-20 97 -39 196 -19 98 -37 181 -41 185 l-7 6 6 -30z"/>
<path d="M91816 58140 c21 -21 339 -238 343 -234 2 2 2 6 0 7 -23 20 -340 237
-346 237 l-7 0 10 -10z"/>
<path d="M49251 57968 c23 -59 44 -90 91 -135 l34 -33 83 -40 c46 -22 86 -38
89 -35 3 2 -33 22 -79 44 l-84 39 -48 51 -48 52 -25 54 c-30 70 -40 72 -13 3z"/>
<path d="M55710 57814 c-228 -29 -421 -53 -429 -54 l-14 0 6 -6 6 -6 428 52
428 53 10 9 9 8 -14 -1 c-8 -1 -202 -25 -430 -55z"/>
<path d="M35758 57840 c-58 -10 -211 -60 -204 -67 2 -3 40 6 83 20 l78 26 79
11 79 12 91 -6 91 -5 -25 8 -25 9 -100 0 c-55 0 -121 -4 -147 -8z"/>
<path d="M55505 57749 c-77 -10 -160 -21 -185 -25 l-45 -7 11 -4 c13 -4 416
45 423 52 8 9 -61 3 -204 -16z"/>
<path d="M38040 57674 l0 -25 10 6 10 6 0 20 0 19 -10 0 -10 0 0 -26z"/>
<path d="M50995 57452 c-32 -70 -72 -146 -88 -170 -16 -24 -27 -46 -24 -48 14
-14 93 132 153 280 40 101 21 71 -41 -62z"/>
<path d="M80353 57506 c-143 -80 -197 -115 -189 -123 3 -3 17 4 33 15 41 28
281 162 292 162 5 0 23 -17 40 -37 17 -20 33 -35 35 -32 6 5 -63 89 -72 89 -4
0 -66 -34 -139 -74z"/>
<path d="M24290 57392 c0 -5 -63 -72 -140 -149 -77 -77 -140 -144 -140 -149 0
-11 230 217 272 269 l30 37 -11 0 c-6 0 -11 -4 -11 -8z"/>
<path d="M38054 57230 l3 -65 -24 -95 c-14 -52 -35 -125 -49 -162 l-24 -68 9
0 8 0 31 93 c16 50 37 122 47 159 l18 66 -11 69 -11 68 3 -65z"/>
<path d="M47445 56899 l-129 -19 -38 -26 c-21 -15 -43 -33 -49 -40 l-11 -14
10 0 c6 0 23 11 39 24 15 12 38 28 50 35 l23 11 141 20 c78 11 145 22 147 25
9 8 -47 3 -183 -16z"/>
<path d="M61643 56785 c29 -101 48 -188 63 -285 l16 -115 10 -10 10 -10 -6 30
c-3 17 -13 75 -21 130 -18 113 -53 255 -68 270 l-9 10 5 -20z"/>
<path d="M48890 56591 c0 -9 391 -193 398 -186 3 2 -24 18 -59 34 -35 16 -126
58 -201 94 -76 36 -138 63 -138 58z"/>
<path d="M54301 56511 l-13 -8 17 -37 18 -37 20 -14 20 -14 9 5 10 6 -21 19
c-11 11 -27 32 -35 48 l-15 28 6 7 c9 9 0 7 -16 -3z"/>
<path d="M47620 56418 c66 -61 187 -142 288 -192 l74 -37 -7 11 c-3 6 -34 24
-67 41 -89 45 -215 129 -274 182 -29 26 -56 47 -60 47 -5 -1 16 -24 46 -52z"/>
<path d="M37246 56123 c-10 -36 -17 -83 -51 -348 -36 -278 -38 -302 -30 -293
3 2 23 141 45 308 22 167 43 315 46 327 7 27 -2 32 -10 6z"/>
<path d="M64083 56087 c-139 -28 -253 -54 -253 -58 0 -7 518 95 527 105 l6 6
-14 -1 c-8 -1 -128 -24 -266 -52z"/>
<path d="M63777 56004 l-19 -25 6 -6 6 -6 20 18 c20 18 27 45 13 45 -5 0 -16
-12 -26 -26z"/>
<path d="M25510 55924 c1 -11 360 -237 366 -231 3 3 -68 51 -158 107 -90 57
-173 110 -185 118 l-23 14 0 -8z"/>
<path d="M35958 55914 c-5 -4 -8 -15 -8 -24 l0 -17 27 -24 27 -24 -16 26 c-9
14 -18 36 -20 48 l-3 23 -7 -8z"/>
<path d="M62475 55748 c-291 -61 -532 -112 -534 -114 -2 -2 -2 -7 2 -10 l5 -6
294 61 c161 33 409 84 551 113 l257 52 0 8 0 8 -22 -1 c-13 -1 -261 -51 -553
-111z"/>
<path d="M25991 55656 c25 -21 422 -304 471 -335 l65 -41 16 0 17 0 17 -26 17
-26 -17 -29 -16 -29 19 10 20 11 0 33 0 33 -18 16 c-10 10 -26 17 -34 17 l-15
0 -74 48 c-41 27 -159 110 -263 185 -104 75 -193 137 -199 137 -6 0 -8 -2 -6
-4z"/>
<path d="M49382 55558 c-5 -7 -13 -23 -16 -35 l-7 -23 6 0 c3 0 10 11 15 25
l9 24 33 10 33 9 -31 1 -32 1 -10 -12z"/>
<path d="M37195 55450 l20 -9 188 -15 189 -16 36 20 37 19 -13 1 c-7 0 -25 -6
-40 -14 l-27 -13 -145 13 c-80 7 -172 15 -205 18 l-60 5 20 -9z"/>
<path d="M12650 55211 c-30 -15 -82 -42 -115 -59 l-60 -32 -45 -10 c-25 -5
-72 -13 -105 -17 l-60 -7 21 -3 c11 -2 55 0 97 5 l76 10 53 26 c74 35 196 101
205 109 l6 7 -9 0 c-5 0 -34 -13 -64 -29z"/>
<path d="M52265 55130 c-37 -61 -65 -113 -63 -116 3 -2 35 46 72 107 37 61 65
113 63 116 -3 2 -35 -46 -72 -107z"/>
<path d="M50825 55209 l-70 -18 47 4 c26 2 62 11 80 19 44 19 28 18 -57 -5z"/>
<path d="M52140 54768 c-69 -105 -126 -198 -128 -207 -2 -12 205 295 262 387
l7 12 -8 -1 c-4 0 -64 -86 -133 -191z"/>
<path d="M53202 54904 c-15 -26 -73 -117 -129 -203 -56 -85 -100 -158 -97
-160 2 -2 6 -2 8 0 6 6 197 301 233 358 l32 51 -10 0 c-5 0 -22 -21 -37 -46z"/>
<path d="M53280 54943 c0 -7 5 -23 11 -37 l12 -25 -128 -195 -127 -196 -10 0
c-5 0 -84 51 -176 113 -92 63 -173 117 -179 121 l-13 7 0 -10 0 -11 145 -97
146 -96 -9 -6 c-7 -5 -241 -356 -286 -430 l-9 -14 10 6 c5 3 74 103 153 221
78 119 146 216 149 216 3 0 18 -10 33 -23 l28 -22 -242 -365 -241 -365 -37
-80 c-21 -44 -42 -91 -48 -105 l-10 -25 -27 60 -26 60 -127 87 -127 87 -98 92
c-54 50 -100 89 -103 86 -3 -2 46 -51 109 -108 l113 -104 112 -78 112 -77 33
-66 33 -66 10 14 c6 7 16 33 23 58 20 70 68 151 305 512 l221 338 15 -3 c8 -2
120 -72 249 -156 128 -84 235 -150 237 -148 3 2 -105 76 -238 163 -134 87
-245 159 -247 161 -3 2 0 8 6 14 l10 10 242 -156 c134 -86 245 -155 247 -152
3 2 -103 74 -235 158 -132 85 -240 158 -241 163 0 5 59 99 130 207 l131 198
-20 38 -20 38 -1 -12z"/>
<path d="M52255 54742 l-100 -157 -179 -238 c-98 -131 -176 -240 -174 -243 16
-15 565 762 556 786 -2 5 -48 -62 -103 -148z"/>
<path d="M33810 54806 c0 -11 213 -317 217 -313 5 5 -205 317 -213 317 -2 0
-4 -2 -4 -4z"/>
<path d="M32056 54692 c27 -25 364 -240 364 -233 0 9 -352 241 -366 241 l-8 0
10 -8z"/>
<path d="M50243 54627 c-57 -28 -103 -55 -103 -59 l0 -8 110 55 c99 50 125 66
103 64 -5 0 -54 -23 -110 -52z"/>
<path d="M48945 54545 c-126 -69 -234 -126 -240 -128 -5 -3 -8 -7 -5 -10 3 -3
118 55 255 129 138 74 243 134 235 133 -8 0 -118 -56 -245 -124z"/>
<path d="M62070 54652 c0 -9 170 -844 185 -911 3 -13 8 -21 11 -19 4 5 -184
930 -192 937 -2 2 -4 -1 -4 -7z"/>
<path d="M54030 54631 c-30 -9 -66 -23 -80 -30 -49 -25 -200 -126 -200 -134 0
-4 33 14 73 41 87 60 157 95 217 113 25 7 49 16 55 21 l9 8 -9 -1 c-6 0 -35
-8 -65 -18z"/>
<path d="M50293 54571 c-29 -33 -53 -62 -53 -66 l0 -6 9 5 c17 11 113 126 104
126 -4 0 -32 -27 -60 -59z"/>
<path d="M50121 54533 c-1 -7 4 -44 11 -83 l12 -70 26 -24 25 -23 48 -16 47
-16 0 8 0 8 -45 13 -46 13 -23 28 -24 28 -7 53 c-4 29 -11 62 -16 73 l-8 20 0
-12z"/>
<path d="M50820 54472 c0 -5 53 -47 118 -94 64 -48 161 -125 214 -172 97 -86
108 -94 108 -77 0 14 -196 181 -316 269 -111 82 -124 89 -124 74z"/>
<path d="M49320 54458 c0 -7 12 -26 26 -42 l25 -28 6 5 5 6 -27 35 c-30 39
-35 43 -35 24z"/>
<path d="M48670 54406 c0 -3 83 -171 184 -375 101 -203 186 -376 189 -383 2
-7 7 -11 9 -8 6 6 -367 770 -376 770 -3 0 -6 -2 -6 -4z"/>
<path d="M49612 54313 c-90 -47 -161 -87 -158 -90 5 -5 336 165 336 173 0 8
-17 0 -178 -83z"/>
<path d="M88035 54386 l-20 -15 10 -2 c6 0 25 0 43 1 l33 2 25 -17 26 -17 6 6
6 7 -20 19 -19 19 -35 6 -35 6 -20 -15z"/>
<path d="M49082 54218 c-128 -66 -231 -122 -229 -125 3 -2 114 52 248 121 134
69 237 126 229 125 -8 0 -120 -54 -248 -121z"/>
<path d="M32790 54204 c1 -5 34 -35 75 -67 l75 -57 0 -30 0 -29 -42 -39 c-24
-22 -59 -53 -78 -70 -19 -17 -33 -33 -30 -35 3 -3 40 26 83 65 l77 70 0 38 0
38 -67 53 c-38 28 -74 56 -80 62 l-13 9 0 -8z"/>
<path d="M51760 54150 c14 -11 30 -20 35 -20 l10 0 -25 20 c-14 11 -29 20 -35
20 l-10 0 25 -20z"/>
<path d="M51022 54000 l-154 -88 10 -6 10 -6 151 87 c130 75 173 105 144 102
-5 0 -77 -40 -161 -89z"/>
<path d="M80849 54055 c-6 -5 76 -334 85 -343 l6 -5 0 12 c0 13 -80 334 -84
338 -1 2 -5 1 -7 -2z"/>
<path d="M7080 53775 l0 -13 53 -12 c86 -19 206 -30 320 -30 l107 0 0 13 0 12
-148 2 -147 2 -92 19 -93 19 0 -12z"/>
<path d="M54090 53783 c0 -12 298 -218 306 -211 2 3 -19 21 -48 40 -29 20 -99
68 -155 107 -57 40 -103 68 -103 64z"/>
<path d="M61245 53719 c-9 -40 -85 -461 -85 -472 0 -6 2 -8 5 -6 7 7 95 492
90 497 -2 2 -6 -6 -10 -19z"/>
<path d="M54726 53712 c5 -4 26 -23 48 -42 l39 -35 -12 22 c-11 21 -62 63 -77
63 l-8 0 10 -8z"/>
<path d="M9205 53593 c-63 -7 -152 -27 -195 -43 -25 -9 -54 -20 -64 -24 -10
-3 -17 -9 -14 -12 3 -2 27 4 54 14 60 23 177 48 262 56 l63 6 36 -15 c20 -8
38 -13 41 -10 3 2 -11 12 -31 20 l-36 15 -43 -1 c-24 -1 -56 -4 -73 -6z"/>
<path d="M67558 53517 c-120 -22 -218 -43 -218 -47 l0 -6 225 42 c124 23 229
44 232 48 l6 6 -14 -1 c-8 0 -112 -19 -231 -42z"/>
<path d="M51140 53355 c-102 -52 -182 -94 -177 -94 10 -1 367 178 367 184 0 7
14 13 -190 -90z"/>
<path d="M51970 53430 l-15 -10 18 0 17 0 0 10 c0 12 -1 12 -20 0z"/>
<path d="M54730 53375 c0 -6 7 -20 15 -32 l16 -22 155 -106 155 -105 55 -16
c30 -8 60 -14 67 -11 l12 4 -70 23 -70 23 -146 98 -146 97 -21 29 -21 28 -1
-10z"/>
<path d="M51557 53294 c-27 -14 -47 -28 -44 -30 3 -3 31 8 63 25 l59 30 -15 0
c-8 0 -37 -11 -63 -25z"/>
<path d="M64578 53231 c-109 -21 -201 -41 -205 -46 l-8 -8 25 6 c14 3 106 20
205 38 l180 32 10 8 9 9 -9 -1 c-6 -1 -99 -18 -207 -38z"/>
<path d="M18510 53228 c0 -7 9 -89 20 -183 11 -93 20 -198 20 -232 l0 -63 10
0 10 0 0 58 c0 31 -9 138 -20 237 -11 99 -20 183 -20 188 0 4 -4 7 -10 7 l-10
0 0 -12z"/>
<path d="M50471 53173 c17 -38 35 -79 40 -92 5 -13 12 -22 15 -19 6 7 -68 178
-78 178 l-7 0 30 -67z"/>
<path d="M53670 53181 c0 -51 6 -53 12 -5 l4 35 -8 5 -8 5 0 -40z"/>
<path d="M52270 53202 c0 -30 178 -389 257 -519 l13 -23 18 0 17 0 85 50 c47
27 80 50 74 50 -6 0 -48 -21 -92 -46 l-81 -46 -10 6 c-15 10 -156 272 -217
406 -61 133 -64 139 -64 122z"/>
<path d="M55415 53090 l-6 -10 10 0 c6 0 11 5 11 10 0 6 -2 10 -4 10 -3 0 -8
-4 -11 -10z"/>
<path d="M49995 53083 c-20 -5 -35 -20 -35 -36 l0 -8 16 15 c8 9 22 16 30 16
l14 0 0 10 c0 6 -1 9 -2 9 -2 -1 -12 -4 -23 -6z"/>
<path d="M50332 52952 c-117 -57 -211 -106 -209 -108 3 -4 416 192 426 202 20
20 -35 -4 -217 -94z"/>
<path d="M49755 52914 c-189 -104 -240 -134 -224 -134 6 0 429 229 438 236 2
2 2 6 0 8 -2 3 -99 -47 -214 -110z"/>
<path d="M69232 52980 c3 -8 29 -111 59 -227 30 -117 57 -213 61 -213 l6 0
-55 218 -56 217 -10 10 -10 10 5 -15z"/>
<path d="M50655 52860 l-6 -10 10 0 c5 0 13 5 16 10 l6 10 -10 0 c-5 0 -13 -4
-16 -10z"/>
<path d="M77575 52711 c-193 -75 -370 -144 -395 -154 l-45 -19 12 -5 12 -4
395 152 396 152 0 9 c0 4 -6 8 -12 7 -7 -1 -171 -63 -363 -138z"/>
<path d="M84164 52783 c3 -10 33 -119 66 -243 33 -123 63 -226 65 -229 12 -11
1 39 -57 256 l-62 233 -9 0 -8 0 5 -17z"/>
<path d="M51310 52723 c0 -14 195 -363 203 -363 l9 0 -20 33 c-11 17 -57 101
-102 185 -76 140 -90 163 -90 145z"/>
<path d="M52671 52655 l-134 -65 5 -6 6 -5 131 65 c72 37 131 68 131 71 0 7 6
10 -139 -60z"/>
<path d="M30091 52518 l-13 -113 12 -120 c6 -66 10 -127 8 -135 l-3 -15 20 3
c11 2 119 14 240 27 121 14 229 26 240 29 l20 3 -40 1 c-22 1 -119 -7 -215
-18 -96 -11 -191 -20 -211 -20 l-36 0 -11 133 -11 132 13 103 13 102 -7 0 -7
0 -12 -112z"/>
<path d="M78040 52392 c0 -14 191 -530 261 -704 l72 -177 8 4 7 5 -77 193
c-43 105 -118 303 -167 439 -76 212 -104 276 -104 240z"/>
<path d="M37131 52358 c71 -136 193 -355 201 -363 6 -5 -8 26 -32 70 -101 189
-172 315 -176 315 -3 0 1 -10 7 -22z"/>
<path d="M81976 52372 c5 -5 105 -41 222 -81 l213 -73 6 6 6 5 -24 9 c-76 29
-412 142 -422 142 l-11 0 10 -8z"/>
<path d="M71480 52356 c0 -14 174 -346 182 -346 6 0 -158 328 -173 345 l-9 9
0 -8z"/>
<path d="M46611 52296 c2 -2 63 -30 134 -61 159 -69 227 -107 283 -158 l42
-40 0 10 c0 14 -59 67 -110 99 -72 44 -374 174 -349 150z"/>
<path d="M54305 52117 l-18 -14 7 -12 8 -12 13 11 c7 6 26 13 41 14 l28 3 4
12 4 11 -34 0 -34 0 -19 -13z"/>
<path d="M89020 52110 l0 -10 15 0 15 0 0 10 0 10 -15 0 -15 0 0 -10z"/>
<path d="M21616 52039 c-3 -19 -8 -122 -11 -229 l-7 -195 6 6 c7 7 28 441 21
447 -2 2 -6 -11 -9 -29z"/>
<path d="M52747 52033 c-4 -3 -7 -11 -7 -17 l0 -10 12 12 c6 6 9 14 7 17 -3 3
-9 2 -12 -2z"/>
<path d="M37400 51770 c55 -110 102 -200 105 -200 3 0 -40 90 -95 200 -55 110
-102 200 -105 200 -3 0 40 -90 95 -200z"/>
<path d="M53227 51913 c16 -40 143 -295 149 -302 2 -2 6 -2 9 1 7 6 -157 338
-167 338 l-7 0 16 -37z"/>
<path d="M72062 51763 c-106 -58 -190 -108 -188 -111 5 -4 372 192 391 209 l9
9 -9 -1 c-6 0 -97 -48 -203 -106z"/>
<path d="M27676 51758 c-9 -106 -36 -676 -35 -729 0 -24 2 -39 4 -34 7 16 47
827 41 832 -2 2 -7 -28 -10 -69z"/>
<path d="M90878 51743 c-8 -15 -54 -101 -102 -191 -49 -90 -87 -165 -85 -167
6 -5 211 376 206 381 -3 3 -11 -7 -19 -23z"/>
<path d="M53388 51467 l-178 -92 0 -13 0 -14 8 4 c4 2 89 45 190 97 l182 93 0
9 c0 18 -29 6 -202 -84z"/>
<path d="M17935 51461 l-5 -9 163 -67 c89 -37 191 -76 227 -86 l64 -19 8 8 9
9 -73 20 c-40 12 -144 50 -230 86 l-158 66 -5 -8z"/>
<path d="M88078 51284 l-178 -134 0 -11 0 -10 13 7 c6 5 90 66 185 137 152
115 191 149 165 146 -5 0 -88 -61 -185 -135z"/>
<path d="M45740 51328 c0 -9 5 -20 10 -23 l10 -6 0 8 c0 4 -5 15 -10 23 l-10
15 0 -17z"/>
<path d="M6020 51270 c0 -11 93 -372 106 -409 2 -8 7 -12 9 -9 5 4 -103 419
-111 427 -2 2 -4 -2 -4 -9z"/>
<path d="M6053 51265 c4 -11 27 -94 52 -185 57 -204 66 -232 71 -227 7 6 -107
410 -119 422 l-9 10 5 -20z"/>
<path d="M13281 51058 c24 -18 148 -101 274 -186 207 -139 263 -180 372 -276
l33 -28 0 9 c0 5 -39 43 -87 85 l-88 75 -115 74 c-63 41 -182 120 -264 176
-82 57 -154 103 -159 103 -6 0 10 -14 34 -32z"/>
<path d="M27790 50903 l0 -10 191 -7 191 -7 6 5 c3 3 3 8 1 10 -2 3 -91 8
-197 12 l-192 7 0 -10z"/>
<path d="M6170 50822 l0 -8 131 -13 132 -12 140 -34 141 -35 70 0 71 0 215 30
215 30 90 0 c114 0 328 -21 610 -61 214 -30 452 -58 488 -59 l17 0 0 9 0 9
-72 7 c-40 4 -201 24 -358 46 -157 22 -350 46 -430 54 l-145 15 -105 0 -105 0
-215 -30 -215 -30 -62 0 -62 0 -143 34 -143 34 -103 11 c-56 6 -116 11 -132
11 l-30 0 0 -8z"/>
<path d="M31478 50513 l-118 -4 0 -10 0 -11 23 5 c12 3 89 7 172 9 l150 3 6
-50 c4 -28 12 -158 18 -290 11 -227 17 -292 26 -284 2 2 -4 142 -14 310 l-18
306 -7 11 -7 12 -57 -2 c-31 -1 -110 -4 -174 -5z"/>
<path d="M31493 50471 l-121 -6 -7 -7 -7 -6 155 5 156 6 5 -34 c3 -19 7 -50
10 -69 l3 -35 -1 75 -1 75 -35 1 c-19 0 -90 -2 -157 -5z"/>
<path d="M42677 50453 c-4 -3 -7 -16 -7 -27 0 -11 -20 -101 -45 -199 l-46
-178 13 -82 13 -82 3 25 c1 14 -1 50 -6 80 l-8 55 42 170 c39 158 57 245 50
245 -1 0 -6 -3 -9 -7z"/>
<path d="M15120 49996 c0 -2 46 -21 103 -41 56 -21 132 -53 169 -71 37 -19 73
-34 80 -34 23 1 -117 68 -228 110 -102 38 -124 45 -124 36z"/>
<path d="M38296 49953 c-11 -38 -186 -767 -186 -777 0 -5 2 -7 4 -5 8 7 196
792 192 796 -2 3 -7 -4 -10 -14z"/>
<path d="M33670 49879 c0 -17 38 -321 46 -368 3 -18 7 -31 10 -28 6 5 -43 398
-51 405 -3 3 -5 -1 -5 -9z"/>
<path d="M31523 49857 l-183 -10 0 -10 0 -10 158 7 c86 4 176 9 199 12 l43 6
-6 9 c-3 5 -11 8 -17 7 -7 -1 -94 -6 -194 -11z"/>
<path d="M15468 49822 c-1 -4 -69 -54 -150 -111 -126 -87 -166 -121 -144 -121
6 0 276 188 299 208 9 8 17 19 17 24 0 10 -17 11 -22 0z"/>
<path d="M22383 49753 l7 -7 353 -12 c193 -7 376 -13 406 -13 l54 -1 -5 6 c-4
4 -673 32 -807 34 l-14 0 6 -7z"/>
<path d="M12250 49703 c-1 -5 -16 -114 -34 -243 -19 -129 -32 -237 -30 -240
12 -12 22 35 48 228 15 114 30 219 33 235 l6 27 -12 0 c-6 0 -11 -3 -11 -7z"/>
<path d="M38156 49539 c-18 -54 -92 -359 -87 -359 7 0 101 363 95 369 -2 2 -6
-2 -8 -10z"/>
<path d="M33763 49465 c3 -11 18 -110 33 -220 l27 -200 10 -10 9 -10 -5 20
c-3 11 -18 110 -33 220 l-27 200 -10 10 -9 10 5 -20z"/>
<path d="M75926 48952 l-7 -12 27 -36 27 -35 30 -15 29 -15 6 6 7 7 -19 12
c-26 15 -47 35 -72 70 l-21 29 -7 -11z"/>
<path d="M11557 48903 c30 -27 167 -202 226 -288 l27 -40 0 16 0 15 -101 135
c-96 128 -152 189 -173 189 l-10 0 31 -27z"/>
<path d="M91408 48732 c-75 -86 -153 -179 -174 -207 -21 -27 -109 -125 -197
-217 -88 -93 -155 -168 -151 -168 14 0 314 317 369 390 41 53 169 204 279 327
10 13 17 25 15 27 -2 3 -66 -66 -141 -152z"/>
<path d="M91439 48708 c-68 -78 -153 -178 -188 -223 -35 -44 -114 -132 -176
-195 -61 -63 -151 -158 -200 -210 l-88 -95 -43 -65 c-64 -98 -116 -161 -478
-570 l-332 -376 -59 -102 -58 -103 -28 -15 -29 -15 -110 -11 -110 -11 0 -7 c0
-4 17 -49 38 -101 l39 -95 48 -204 47 -205 10 -10 10 -10 -6 20 c-3 11 -28
115 -55 230 l-50 210 -30 72 c-17 40 -31 76 -31 81 l0 9 93 8 92 7 41 18 42
18 58 103 59 104 305 345 c383 432 428 486 496 587 l54 82 87 93 c48 51 137
145 198 208 62 63 141 151 175 195 58 72 224 267 288 337 14 15 23 30 20 33
-2 3 -61 -59 -129 -137z"/>
<path d="M36079 48725 c-3 -2 -102 -9 -220 -15 -117 -6 -225 -14 -238 -16 -61
-13 5 -12 226 1 l240 15 24 9 24 10 -26 0 c-14 1 -28 -1 -30 -4z"/>
<path d="M34817 48655 l-228 -13 -7 -7 -7 -8 100 7 c55 3 164 9 243 12 l142 7
0 8 c0 5 -3 8 -7 8 -5 -1 -111 -7 -236 -14z"/>
<path d="M34103 48616 l-211 -11 -8 -8 -8 -8 89 6 c50 3 170 10 269 15 98 5
181 12 184 15 7 6 -48 5 -315 -9z"/>
<path d="M11840 48605 c0 -12 241 -365 249 -365 5 0 -47 83 -115 185 -113 168
-134 196 -134 180z"/>
<path d="M33901 48560 c-1 -26 47 -384 55 -409 14 -43 8 18 -21 214 -18 121
-33 209 -34 195z"/>
<path d="M33853 48555 c3 -11 18 -111 33 -222 16 -112 31 -203 34 -203 l6 0
-30 214 -31 214 -9 9 -8 8 5 -20z"/>
<path d="M37613 48136 l-422 -21 -8 -9 -8 -8 70 6 c39 3 237 13 440 21 l370
16 30 9 30 8 -40 0 c-22 -1 -230 -10 -462 -22z"/>
<path d="M38090 48120 c0 -8 16 -102 34 -209 19 -108 42 -248 51 -311 18 -133
24 -164 31 -158 6 7 -28 237 -71 483 -32 178 -45 235 -45 195z"/>
<path d="M12461 48006 c3 -3 58 -14 123 -25 l119 -21 76 1 c42 1 87 4 100 8
l25 7 -125 1 -124 1 -80 16 c-79 16 -123 20 -114 12z"/>
<path d="M72690 47782 c0 -5 -18 -93 -40 -197 -22 -104 -38 -191 -35 -193 7
-7 11 9 50 198 20 96 38 181 40 188 l4 12 -9 0 c-6 0 -10 -4 -10 -8z"/>
<path d="M16930 47577 c0 -5 5 -29 11 -55 l12 -47 16 -19 c9 -10 27 -24 41
-31 l25 -13 140 -5 140 -5 -55 8 c-30 4 -84 8 -120 9 l-65 1 -34 10 -34 10
-23 21 -23 21 -6 37 c-5 33 -24 77 -25 58z"/>
<path d="M18420 47255 c-223 -90 -418 -169 -434 -174 l-29 -11 5 -6 6 -5 428
172 c236 95 433 176 439 181 l9 8 -9 -1 c-6 0 -192 -74 -415 -164z"/>
<path d="M53800 47370 l0 -11 23 -8 22 -9 9 6 9 5 -18 14 c-11 7 -25 13 -32
13 l-13 0 0 -10z"/>
<path d="M36438 47343 c50 -2 134 -2 185 0 l92 3 -185 0 -185 0 93 -3z"/>
<path d="M35866 47160 c4 -96 8 -183 8 -192 l0 -18 8 8 7 7 -10 180 c-6 99
-13 182 -16 185 -3 3 -2 -74 3 -170z"/>
<path d="M18130 47093 l-255 -104 -67 -16 -68 -17 -27 27 -28 26 -29 76 c-16
41 -31 73 -34 71 -2 -3 10 -41 27 -85 l32 -79 24 -22 24 -23 50 6 49 6 279
112 c153 61 280 113 282 115 21 18 -40 -3 -259 -93z"/>
<path d="M20666 47128 c-9 -29 -30 -124 -45 -210 l-27 -158 6 0 7 0 26 160 27
160 19 50 19 50 -7 0 c-4 0 -15 -24 -25 -52z"/>
<path d="M20707 47122 c-19 -52 -67 -312 -66 -352 0 -14 14 47 29 135 16 88
36 182 45 208 10 26 15 50 13 52 -2 3 -12 -17 -21 -43z"/>
<path d="M57096 47082 l-5 -9 94 -191 94 -192 10 0 10 0 -95 197 c-52 108 -96
199 -98 201 -2 2 -6 -1 -10 -6z"/>
<path d="M39858 47015 c-2 -3 -3 -18 0 -35 l4 -30 9 0 9 0 0 29 0 30 -9 5 c-4
3 -10 3 -13 1z"/>
<path d="M46272 46984 l38 -27 -5 -21 c-50 -212 -117 -557 -110 -565 7 -6 12
14 35 144 11 66 36 190 55 276 19 86 35 161 35 167 l0 10 -34 21 c-48 30 -58
26 -14 -5z"/>
<path d="M35925 46831 c3 -68 5 -141 5 -163 l0 -38 8 0 7 0 -3 87 c-2 49 -8
122 -12 163 l-9 75 4 -124z"/>
<path d="M46325 46838 c-8 -40 -35 -163 -59 -273 -40 -182 -46 -218 -31 -204
2 3 30 120 60 260 31 140 58 262 61 272 l5 17 -10 0 -10 0 -16 -72z"/>
<path d="M26937 46859 l-199 -8 -6 -6 -6 -6 234 7 235 7 20 8 20 8 -50 -1
c-27 -1 -139 -5 -248 -9z"/>
<path d="M89612 46765 l-103 -12 -11 -11 -11 -11 43 -106 c23 -58 45 -104 47
-101 3 3 -11 46 -31 96 -20 49 -36 96 -36 104 l0 14 33 6 c17 3 67 8 110 12
l78 7 5 8 5 9 -13 -1 c-7 -1 -59 -7 -116 -14z"/>
<path d="M49020 46754 c0 -7 36 -88 81 -180 44 -93 85 -180 90 -193 5 -13 12
-22 14 -19 3 3 -37 95 -90 204 -52 109 -95 194 -95 188z"/>
<path d="M93411 46284 c78 -110 143 -200 144 -202 2 -2 6 1 9 6 l6 10 -138
188 -137 187 -13 5 -13 4 142 -198z"/>
<path d="M50815 46430 c3 -5 8 -10 11 -10 3 0 2 5 -1 10 -3 6 -8 10 -11 10 -3
0 -2 -4 1 -10z"/>
<path d="M50850 46365 c0 -8 80 -160 128 -243 13 -24 27 -41 29 -38 5 5 -131
262 -148 281 l-9 9 0 -9z"/>
<path d="M93080 46105 c0 -2 12 -11 28 -19 l27 -14 55 -7 55 -7 33 -19 33 -19
47 0 47 0 63 32 c34 18 62 35 62 39 0 4 -30 -8 -67 -27 l-68 -34 -39 0 -39 0
-32 20 -32 20 -68 9 -68 10 -10 10 c-11 11 -27 15 -27 6z"/>
<path d="M93060 46072 c0 -5 16 -16 35 -25 l36 -17 38 0 38 0 47 -25 47 -25
55 0 54 0 71 36 c93 47 83 55 -12 9 l-73 -35 -41 0 -41 0 -50 24 -49 24 -54 6
-54 5 -23 16 -24 15 0 -8z"/>
<path d="M81340 45949 l0 -10 10 6 c6 3 10 8 10 11 0 2 -4 4 -10 4 -5 0 -10
-5 -10 -11z"/>
<path d="M91630 45889 c-261 -15 -481 -28 -489 -28 l-14 -1 5 -6 6 -5 463 26
c255 14 478 26 494 28 l30 2 -10 6 -10 5 -475 -27z"/>
<path d="M81370 45886 c-4 -13 -14 -43 -20 -67 -6 -24 -20 -68 -32 -97 l-21
-53 -29 -6 -29 -6 8 -21 c8 -24 8 -41 -2 -76 l-6 -25 15 25 15 25 -5 32 -6 32
25 6 26 7 15 38 c19 48 65 210 60 210 -3 0 -9 -11 -14 -24z"/>
<path d="M81317 45853 c-2 -4 -8 -24 -12 -43 -4 -19 -16 -52 -26 -72 l-19 -37
-17 -10 -18 -10 22 -1 22 0 15 28 c18 36 49 142 43 148 -3 3 -7 2 -10 -3z"/>
<path d="M49634 45578 c3 -7 9 -21 12 -30 4 -10 10 -18 15 -18 l9 0 0 18 c0
19 -18 42 -33 42 l-9 0 6 -12z"/>
<path d="M15435 45445 c9 -107 25 -457 26 -570 l0 -110 9 -20 9 -20 -5 150
c-3 83 -9 242 -15 355 l-10 205 -9 35 -10 35 5 -60z"/>
<path d="M45736 45361 l-17 -19 9 -6 10 -6 12 15 12 15 24 0 23 0 6 -10 c3 -5
10 -10 16 -10 l9 0 0 14 0 14 -16 6 c-9 3 -28 6 -43 6 l-28 0 -17 -19z"/>
<path d="M94267 44403 c-163 -119 -295 -218 -293 -221 3 -2 143 95 312 217
168 122 300 221 293 220 -8 0 -148 -98 -312 -216z"/>
<path d="M26150 44510 l-35 -7 72 -2 72 -1 123 -49 c68 -27 215 -93 328 -146
614 -290 679 -320 665 -307 -16 16 -914 438 -1025 482 l-100 40 -33 -1 c-17
-1 -48 -5 -67 -9z"/>
<path d="M52458 44458 l-16 -13 195 -405 c107 -223 198 -409 204 -415 l9 -9
12 12 11 11 -188 393 c-103 216 -193 403 -199 416 l-12 22 -16 -12z"/>
<path d="M52341 44441 l-13 -9 98 -206 c54 -113 100 -206 103 -206 3 0 12 4
19 8 l12 8 -100 207 c-55 114 -101 207 -102 207 -2 0 -9 -4 -17 -9z"/>
<path d="M26546 44341 c15 -13 396 -193 400 -188 4 4 -390 197 -403 197 l-7 0
10 -9z"/>
<path d="M93963 44139 c3 -9 47 -75 99 -146 l93 -129 17 -39 c9 -22 19 -49 23
-60 l7 -20 5 12 5 13 -25 53 -25 54 -82 114 c-46 63 -92 125 -103 139 l-20 25
6 -16z"/>
<path d="M87897 44013 c-26 -48 -45 -88 -43 -90 2 -2 25 35 51 82 26 48 45 88
43 90 -2 2 -24 -35 -51 -82z"/>
<path d="M87949 44023 c-17 -32 -41 -74 -52 -93 l-20 -35 15 15 c17 17 102
170 94 170 -2 0 -19 -26 -37 -57z"/>
<path d="M50300 43134 c-85 -25 -222 -63 -305 -85 l-150 -40 -30 -34 c-16 -18
-38 -47 -48 -64 l-18 -31 8 0 c5 0 19 18 33 40 13 22 37 49 52 60 l27 20 208
59 c114 33 244 69 288 81 44 12 84 26 90 31 11 11 26 15 -155 -37z"/>
<path d="M51888 43006 c-80 -11 -150 -24 -154 -29 l-8 -7 30 5 c16 3 81 12
144 20 63 8 130 18 147 21 l32 5 96 -192 c53 -105 99 -189 101 -186 3 3 -38
91 -91 196 l-98 191 -26 -1 c-14 -1 -92 -11 -173 -23z"/>
<path d="M51340 42932 c0 -6 9 -73 20 -149 21 -143 37 -213 47 -213 l5 0 -6
23 c-3 12 -18 94 -31 181 -22 138 -35 198 -35 158z"/>
<path d="M66547 42753 l-5 -8 31 -218 32 -217 7 0 8 0 0 20 c0 27 -60 423 -64
428 -2 2 -6 0 -9 -5z"/>
<path d="M88600 42755 c0 -4 12 -26 26 -50 l26 -44 -6 -10 c-3 -5 -53 -37
-111 -71 -106 -63 -186 -120 -168 -120 6 0 21 8 34 18 13 10 75 50 138 88
l113 69 6 14 5 14 -24 44 c-23 42 -39 62 -39 48z"/>
<path d="M55615 42570 l-120 -6 197 -2 197 -2 6 10 6 10 -83 -2 c-46 -1 -137
-5 -203 -8z"/>
<path d="M46420 42479 c-63 -34 -170 -89 -236 -124 -67 -34 -179 -93 -248
-131 l-126 -69 -6 -23 -6 -22 8 -38 9 -37 3 52 3 52 102 57 c56 31 131 73 167
94 36 21 148 81 250 135 164 87 214 115 200 115 -3 0 -57 -28 -120 -61z"/>
<path d="M92085 42533 c32 -31 428 -276 405 -251 -10 11 -384 250 -399 256
l-16 5 10 -10z"/>
<path d="M28966 41201 l-5 -8 92 -12 c114 -15 174 -33 254 -77 l61 -34 98 -80
99 -79 68 -36 69 -35 59 0 59 0 0 9 0 8 -67 6 -66 7 -71 42 c-39 23 -107 72
-151 108 -137 115 -216 151 -377 175 -115 18 -115 18 -122 6z"/>
<path d="M28960 41150 l0 -9 33 -5 c17 -3 51 -7 74 -11 23 -3 80 -18 125 -33
l83 -28 140 -105 c77 -58 166 -120 197 -138 l57 -32 81 -4 80 -3 0 12 0 12
-68 1 -69 1 -63 32 -63 32 -139 104 -139 105 -42 18 c-51 22 -163 48 -234 55
l-53 5 0 -9z"/>
<path d="M57068 40923 c184 -2 481 -2 660 0 l327 2 -660 0 -660 0 333 -2z"/>
<path d="M60462 40485 c2 -3 123 -23 267 -45 145 -22 283 -45 308 -51 l44 -12
114 -73 c63 -40 115 -70 115 -66 0 4 -46 37 -103 74 l-102 68 -45 14 -45 15
-267 41 c-275 41 -295 44 -286 35z"/>
<path d="M52750 40181 l0 -8 236 -47 236 -47 6 5 c3 3 3 8 1 10 -4 4 -453 96
-469 96 -6 0 -10 -4 -10 -9z"/>
<path d="M94093 40108 c8 -23 259 -360 264 -355 3 4 -247 351 -265 367 -3 3
-3 -2 1 -12z"/>
<path d="M46518 40094 l-6 -9 14 -25 13 -25 0 15 c0 8 -4 24 -8 34 l-8 20 -5
-10z"/>
<path d="M84815 39969 c5 -8 50 -75 100 -149 51 -74 167 -260 260 -412 93
-153 170 -276 173 -273 12 12 -497 821 -530 841 l-11 7 8 -14z"/>
<path d="M84780 39956 c0 -4 42 -69 93 -144 51 -75 110 -167 132 -204 21 -38
43 -68 47 -68 14 0 -217 364 -263 415 l-9 9 0 -8z"/>
<path d="M84356 39670 c-76 -48 -143 -94 -150 -100 l-11 -12 22 11 c19 10 271
169 282 178 2 1 2 5 0 7 -2 3 -66 -35 -143 -84z"/>
<path d="M52106 39403 c-12 -43 -76 -397 -72 -401 6 -6 10 9 51 227 19 102 33
186 31 189 -2 2 -7 -5 -10 -15z"/>
<path d="M47803 38820 l-133 -139 0 -18 0 -18 19 30 c10 17 38 48 61 70 64 61
203 215 194 214 -5 0 -69 -63 -141 -139z"/>
<path d="M94891 38920 c92 -133 296 -409 302 -410 5 0 -13 31 -40 68 -183 258
-259 361 -267 362 l-8 0 13 -20z"/>
<path d="M52902 38854 c3 -3 98 -23 212 -45 113 -21 299 -57 414 -79 114 -22
218 -39 232 -39 l25 1 -25 9 c-14 4 -187 38 -385 74 -198 36 -378 70 -400 75
-22 5 -49 10 -59 10 l-19 0 5 -6z"/>
<path d="M55346 38701 l-8 -12 58 -65 c31 -36 102 -104 156 -151 l99 -86 11
11 c7 7 10 13 7 15 -41 29 -173 150 -235 215 l-81 86 -7 -13z"/>
<path d="M60222 38356 c-29 -42 -78 -104 -110 -139 -31 -34 -67 -75 -81 -91
l-26 -29 12 4 c16 6 146 152 210 237 l54 73 -3 10 -3 10 -53 -75z"/>
<path d="M85850 38246 c0 -13 262 -428 267 -423 4 5 -238 400 -258 422 l-9 9
0 -8z"/>
<path d="M60040 38097 c0 -2 73 -71 162 -153 90 -82 226 -208 303 -279 77 -72
149 -136 160 -144 33 -23 -115 120 -368 357 -205 191 -257 236 -257 219z"/>
<path d="M62331 38035 l-57 -55 -65 -29 c-36 -16 -94 -37 -130 -46 -35 -9 -68
-21 -74 -27 l-10 -10 25 7 c14 5 54 16 90 25 36 10 86 27 111 39 l47 21 68 64
c38 36 65 65 61 66 -5 0 -34 -25 -66 -55z"/>
<path d="M86644 37612 c-55 -37 -120 -83 -145 -103 -24 -20 -162 -114 -307
-209 -144 -95 -261 -175 -258 -177 6 -6 555 354 591 387 17 16 80 60 140 99
l110 71 -15 -1 c-8 0 -60 -31 -116 -67z"/>
<path d="M62203 37484 c3 -3 42 -16 86 -29 45 -13 90 -30 102 -38 11 -9 56
-64 100 -123 43 -60 79 -104 79 -98 0 15 -147 215 -170 231 -18 13 -172 62
-194 63 l-9 0 6 -6z"/>
<path d="M40758 36607 l-138 -30 0 -7 0 -7 113 24 c61 14 128 26 147 27 l34 1
10 -55 10 -55 3 20 c2 11 0 40 -5 65 l-8 45 -14 1 c-8 1 -77 -12 -152 -29z"/>
<path d="M40975 36483 c3 -16 19 -120 35 -232 17 -113 32 -207 35 -209 8 -9 7
6 -27 241 l-33 227 -7 0 -7 0 4 -27z"/>
<path d="M34615 36031 c-59 -8 -85 -21 -141 -70 -39 -34 -353 -376 -368 -400
-21 -34 18 6 150 152 163 180 220 237 279 274 l39 26 68 5 67 5 55 -27 54 -27
154 -132 c85 -72 163 -139 173 -147 l18 -15 -4 11 c-2 6 -80 77 -173 157
l-169 147 -41 19 c-51 25 -97 31 -161 22z"/>
<path d="M80175 35614 c-121 -62 -214 -114 -207 -114 7 0 113 52 235 115 122
63 215 114 207 114 -8 -1 -114 -52 -235 -115z"/>
<path d="M41764 35677 l19 -14 -5 -27 -6 -28 10 10 10 10 -4 28 -3 29 -20 3
-20 4 19 -15z"/>
<path d="M84910 35603 c-15 -6 -408 -257 -463 -295 -16 -11 -26 -22 -24 -24 2
-3 113 65 246 151 l241 155 19 0 c11 0 27 -3 35 -6 l16 -6 37 -67 c48 -88 96
-160 107 -161 l8 0 -15 23 c-9 12 -39 63 -67 114 l-50 92 -22 15 c-23 16 -42
19 -68 9z"/>
<path d="M79800 35468 l-135 -71 -125 -43 c-145 -49 -146 -59 -3 -13 l98 31
140 70 c77 39 149 77 160 84 l19 14 -9 0 c-6 0 -71 -32 -145 -72z"/>
<path d="M41380 35389 c0 -20 141 -442 151 -453 l9 -10 0 11 c0 12 -150 455
-156 462 -2 2 -4 -2 -4 -10z"/>
<path d="M52750 35253 c-53 -49 -129 -118 -170 -155 -41 -37 -72 -69 -70 -71
4 -4 263 223 330 288 l25 25 -10 0 c-6 0 -53 -39 -105 -87z"/>
<path d="M83930 34976 c-53 -34 -140 -89 -194 -124 -54 -35 -96 -65 -93 -68 2
-3 89 50 193 117 207 133 199 128 193 133 -2 2 -47 -24 -99 -58z"/>
<path d="M85380 34948 c0 -14 180 -298 227 -357 2 -2 5 -2 8 1 3 3 -8 22 -24
42 -17 21 -65 95 -107 164 -72 118 -104 165 -104 150z"/>
<path d="M81790 34815 c13 -16 59 -66 101 -110 41 -44 100 -114 129 -155 l54
-75 193 -197 193 -197 0 -15 0 -16 14 0 c8 0 16 4 18 9 2 4 84 63 182 130 99
66 174 121 168 121 -7 0 -91 -54 -188 -119 l-175 -120 -59 67 c-32 37 -113
121 -180 187 l-122 120 -83 110 -83 110 -93 90 c-51 50 -82 77 -69 60z"/>
<path d="M79597 34685 c3 -66 6 -121 8 -123 4 -4 63 26 153 75 35 20 61 37 58
40 -3 3 -47 -18 -99 -46 -52 -28 -97 -51 -101 -51 l-6 0 -1 68 c0 37 -4 87 -9
112 l-9 45 6 -120z"/>
<path d="M85795 34690 c-77 -49 -141 -94 -144 -101 l-3 -11 10 3 c26 10 302
184 302 191 0 18 -32 2 -165 -82z"/>
<path d="M81285 34591 c-15 -13 -605 -331 -615 -331 l-10 0 -31 63 c-45 90
-81 149 -86 143 -3 -3 20 -51 51 -107 31 -56 56 -106 56 -111 l0 -9 13 3 c7 2
154 79 325 172 l312 168 0 9 c0 11 -4 11 -15 0z"/>
<path d="M51411 34477 c-1 -5 -15 -105 -31 -224 -17 -118 -29 -217 -26 -220 6
-7 13 31 41 240 14 104 24 194 21 200 -2 7 -5 8 -5 4z"/>
<path d="M71900 34311 l0 -8 223 -5 c204 -5 238 -5 226 6 -2 2 -104 6 -226 9
l-223 5 0 -7z"/>
<path d="M54912 34184 l-233 -32 -7 -7 -7 -8 35 6 c19 3 127 18 240 33 193 25
219 30 209 37 -2 2 -109 -11 -237 -29z"/>
<path d="M57643 34043 c12 -27 26 -54 30 -60 l8 -13 18 0 18 0 58 -130 c32
-72 60 -128 63 -125 3 2 -22 63 -54 134 l-59 130 -20 3 -20 3 -24 53 c-14 28
-28 52 -32 52 l-8 0 22 -47z"/>
<path d="M53528 33961 l-186 -26 -9 -9 -8 -8 30 6 c17 3 118 17 225 31 185 25
244 36 169 34 -19 -1 -118 -13 -221 -28z"/>
<path d="M84805 33835 c-170 -105 -225 -145 -202 -145 10 0 403 245 406 253 1
5 1 10 -1 12 -1 2 -93 -52 -203 -120z"/>
<path d="M66446 33692 c10 -10 404 -132 424 -132 7 0 11 2 8 5 -6 6 -419 135
-432 135 l-10 0 10 -8z"/>
<path d="M83170 32773 c-107 -74 -196 -139 -198 -144 l-4 -9 9 0 c12 0 387
262 391 273 2 5 2 10 0 12 -1 2 -91 -58 -198 -132z"/>
<path d="M98187 32392 l-26 -27 -32 -70 -31 -69 -9 -64 -9 -63 11 -72 11 -72
33 -61 34 -60 49 -46 c49 -46 90 -73 98 -65 3 3 -10 14 -28 25 -18 12 -51 40
-74 64 l-41 43 -31 55 -30 55 -9 62 -10 62 9 66 9 66 33 73 c19 40 39 76 45
80 11 7 35 46 28 46 -2 0 -15 -12 -30 -28z"/>
<path d="M98940 32244 c0 -5 5 -25 11 -44 l11 -35 -1 -70 -1 -70 -22 -60 -22
-60 -23 -28 c-34 -42 -28 -53 7 -13 l30 34 19 54 18 53 7 65 6 65 -14 54 c-8
29 -17 56 -20 59 l-6 5 0 -9z"/>
<path d="M70836 31822 l-6 -10 6 -30 6 -31 17 -6 16 -6 158 12 157 13 0 13 0
13 -12 0 c-7 0 -78 -7 -157 -15 -80 -7 -149 -11 -153 -9 -4 3 -8 13 -8 22 0 9
-4 23 -9 31 l-8 13 -7 -10z"/>
<path d="M98814 31738 l-22 -10 -11 -24 c-14 -30 -14 -34 -1 -34 l10 0 0 14 0
15 22 15 22 16 26 0 25 0 -15 10 c-18 12 -29 12 -56 -2z"/>
<path d="M98907 31692 c78 -120 270 -392 276 -392 4 0 -33 60 -83 133 -51 72
-115 167 -144 209 -28 43 -55 78 -59 78 l-9 0 19 -28z"/>
<path d="M31695 31120 l16 -31 9 6 9 6 -11 24 -11 25 -14 0 -14 0 16 -30z"/>
<path d="M87023 24888 l-42 -41 -26 17 -26 17 -17 -5 c-21 -7 -191 -176 -177
-176 6 0 46 36 90 80 l80 80 17 0 c9 0 20 -4 23 -10 l6 -10 23 0 22 0 44 45
44 45 -10 0 c-5 0 -28 -19 -51 -42z"/>
<path d="M90500 24839 c52 -6 161 -21 241 -34 l146 -24 94 -26 c52 -15 154
-52 227 -82 l132 -55 12 4 11 4 -134 57 c-74 31 -174 68 -224 82 l-90 26 -155
25 -155 25 -100 4 -100 4 95 -10z"/>
<path d="M89491 21937 c-2 -30 197 -898 211 -920 l7 -11 7 7 7 6 -93 378
c-119 490 -138 562 -139 540z"/>
<path d="M2880 20975 l0 -235 10 0 10 0 0 235 0 235 -10 0 -10 0 0 -235z"/>
<path d="M89380 20727 c-168 -154 -307 -285 -309 -291 -6 -14 25 13 347 307
226 207 292 272 270 266 -2 0 -140 -127 -308 -282z"/>
<path d="M86760 20814 c0 -9 94 -108 522 -551 59 -61 108 -108 108 -103 0 7
-334 363 -532 565 l-98 100 0 -11z"/>
<path d="M87075 20418 c96 -104 280 -288 288 -288 5 0 -62 74 -148 165 -87 91
-163 165 -168 165 l-11 0 39 -42z"/>
<path d="M92372 16563 l-172 -128 10 -3 10 -4 165 122 c137 101 182 140 162
140 -1 0 -80 -57 -175 -127z"/>
<path d="M92165 16400 c3 -5 8 -10 11 -10 3 0 2 5 -1 10 -3 6 -8 10 -11 10 -3
0 -2 -4 1 -10z"/>
<path d="M97945 14554 c-324 -377 -606 -703 -625 -726 l-34 -41 11 4 c7 2 285
321 619 709 334 388 610 706 613 708 4 1 25 -13 47 -31 128 -108 295 -239 299
-235 2 2 -72 66 -164 141 -93 76 -171 142 -173 146 l-3 9 -590 -684z"/>
<path d="M96701 13099 c-156 -182 -280 -333 -278 -335 3 -3 132 144 287 326
155 183 280 334 277 336 -2 2 -131 -145 -286 -327z"/>
<path d="M31883 3443 c-52 -26 -41 -45 12 -21 l25 11 6 -6 6 -6 -56 -102 -56
-103 8 -8 8 -8 57 103 57 103 0 27 0 27 -17 -1 c-10 0 -33 -8 -50 -16z"/>
<path d="M22256 2892 l-5 -8 351 -280 c194 -153 441 -350 549 -436 l198 -157
5 8 6 8 -508 404 c-279 222 -526 418 -549 437 l-41 33 -6 -9z"/>
<path d="M22985 2240 c-4 -6 -5 -13 -4 -14 13 -10 296 -231 306 -238 l12 -10
13 4 12 4 -149 119 c-83 65 -157 124 -167 132 l-16 14 -7 -11z"/>
<path d="M12736 1969 c-11 -33 -26 -132 -36 -239 -6 -63 -13 -133 -16 -155
l-6 -40 10 10 9 10 13 140 c6 77 18 171 26 209 8 38 12 71 9 74 -2 3 -7 -1 -9
-9z"/>
</g>
</svg>
