<?xml version="1.0" standalone="no"?>
<!DOCTYPE svg PUBLIC "-//W3C//DTD SVG 20010904//EN"
 "http://www.w3.org/TR/2001/REC-SVG-20010904/DTD/svg10.dtd">
<svg version="1.0" xmlns="http://www.w3.org/2000/svg"
 width="7500.000000pt" height="7500.000000pt" viewBox="0 0 7500.000000 7500.000000"
 preserveAspectRatio="xMidYMid meet">
<metadata>
Created by potrace 1.16, written by Peter Selinger 2001-2019
</metadata>
<g transform="translate(0.000000,7500.000000) scale(0.075000,-0.075000)"
fill="#000000" stroke="none">
<path d="M84333 98843 l-173 -3 0 -10 0 -10 53 0 c28 0 116 3 195 7 l142 6 0
9 0 8 -22 -2 c-13 -1 -101 -4 -195 -5z"/>
<path d="M83730 98825 l45 -15 193 -13 192 -13 0 6 c0 4 -93 14 -207 23 -115
9 -221 19 -238 22 l-30 5 45 -15z"/>
<path d="M84640 98834 c0 -14 795 -1364 804 -1364 l8 0 -6 15 c-13 35 -791
1355 -798 1355 -4 0 -8 -3 -8 -6z"/>
<path d="M27190 98231 l0 -11 195 -130 195 -130 0 12 0 13 -166 110 c-92 61
-179 118 -195 128 l-29 19 0 -11z"/>
<path d="M85585 97949 c-27 -5 -81 -16 -120 -23 l-70 -14 -69 -31 c-97 -44
-76 -49 25 -6 l83 36 106 16 105 16 10 8 9 9 -14 -1 c-8 -1 -37 -5 -65 -10z"/>
<path d="M89641 97384 l1 -19 5 13 5 13 -6 6 -6 6 1 -19z"/>
<path d="M89631 97344 l1 -19 5 13 5 13 -6 6 -6 6 1 -19z"/>
<path d="M89595 97207 l-28 -112 -23 -37 c-13 -21 -24 -43 -24 -50 l0 -13 30
45 30 45 26 113 c14 62 24 115 22 117 -2 3 -17 -46 -33 -108z"/>
<path d="M14171 96528 c1 -18 -2 -41 -6 -51 l-7 -18 6 -6 6 -7 15 20 14 19 1
38 0 37 -16 0 -16 0 3 -32z"/>
<path d="M86914 96274 l-31 -34 -119 -1 -119 0 -17 -7 -17 -7 132 0 132 0 15
10 c22 15 64 64 59 69 -3 3 -18 -11 -35 -30z"/>
<path d="M88245 96291 c6 -5 73 -33 150 -62 77 -28 252 -99 388 -156 137 -58
250 -103 253 -101 5 5 -467 204 -621 261 -66 25 -133 50 -150 57 l-30 11 10
-10z"/>
<path d="M16265 95910 c55 -29 152 -79 215 -112 63 -34 111 -56 105 -51 -14
15 -365 199 -395 208 -14 4 20 -16 75 -45z"/>
<path d="M87636 93726 l-46 -84 -85 -105 c-47 -59 -85 -109 -85 -112 0 -18 25
6 91 88 90 110 105 132 152 219 l36 67 -9 6 -8 5 -46 -84z"/>
<path d="M86810 92736 c0 -2 54 -39 121 -81 l120 -78 35 34 c19 18 34 37 34
43 l0 10 -33 -32 c-18 -18 -37 -32 -42 -32 -6 0 -57 32 -115 70 -96 64 -120
77 -120 66z"/>
<path d="M89520 92716 c0 -8 442 -148 447 -142 4 4 -424 146 -441 146 -3 0 -6
-2 -6 -4z"/>
<path d="M86780 92706 c0 -6 180 -125 237 -157 l42 -24 46 45 c25 24 45 49 45
54 l0 10 -43 -42 c-23 -23 -48 -42 -54 -42 -11 0 -140 77 -220 131 -40 28 -53
34 -53 25z"/>
<path d="M85109 91088 c-23 -40 -81 -124 -127 -186 l-85 -113 7 -6 6 -7 9 10
c57 63 251 348 251 367 0 23 -23 -2 -61 -65z"/>
<path d="M28070 91111 c8 -5 164 -54 345 -110 182 -56 348 -108 370 -116 l39
-15 -14 13 -15 14 -362 112 c-351 108 -395 120 -363 102z"/>
<path d="M60234 91112 c10 -16 333 -262 354 -269 9 -3 15 -4 12 -1 -9 9 -344
264 -359 273 l-14 8 7 -11z"/>
<path d="M31073 90003 c14 -22 264 -103 361 -117 l39 -5 -9 8 c-5 4 -38 13
-74 20 -56 11 -245 71 -304 96 l-19 8 6 -10z"/>
<path d="M31420 89985 l0 -13 33 -11 c44 -15 347 -81 369 -81 l18 0 0 10 c0 6
-2 10 -4 10 -17 0 -339 73 -373 85 l-43 14 0 -14z"/>
<path d="M86795 88970 c11 -5 72 -16 135 -25 63 -9 162 -28 219 -41 57 -14
106 -23 108 -20 5 5 -14 10 -132 40 -55 13 -322 57 -342 55 -4 0 1 -4 12 -9z"/>
<path d="M85286 88933 c-4 -10 -87 -173 -184 -363 -233 -456 -393 -780 -384
-780 4 0 137 259 296 575 l290 575 -6 5 -6 6 -6 -18z"/>
<path d="M86330 88940 c25 -4 97 -11 160 -14 l115 -7 85 10 85 9 -140 -1 c-77
-1 -187 1 -245 5 l-105 7 45 -9z"/>
<path d="M84380 88739 l-75 -18 -115 -12 c-140 -14 -161 -24 -30 -15 l95 7
103 21 102 21 0 9 c0 4 -1 8 -2 7 -2 -1 -37 -9 -78 -20z"/>
<path d="M78980 88493 l0 -8 283 -98 c155 -54 351 -123 435 -153 l154 -54 -4
12 -4 12 -420 148 c-230 81 -425 147 -431 148 -7 0 -13 -3 -13 -7z"/>
<path d="M78970 88441 c0 -5 8 -11 18 -14 9 -3 108 -37 219 -75 l203 -71 5 8
5 8 -218 77 c-119 42 -220 76 -225 76 -4 0 -7 -4 -7 -9z"/>
<path d="M79440 88303 c0 -5 -18 -111 -40 -237 -36 -209 -40 -250 -25 -234 5
4 85 449 85 471 0 4 -4 7 -10 7 -5 0 -10 -3 -10 -7z"/>
<path d="M80270 88042 l0 -9 206 -72 206 -73 6 6 c3 3 3 8 1 10 -5 5 -405 146
-414 146 -3 0 -5 -4 -5 -8z"/>
<path d="M83695 87378 c-8 -23 -115 -503 -115 -515 0 -7 4 -13 9 -13 l8 0 7
38 c4 20 30 142 60 270 l53 232 -9 0 c-5 0 -11 -6 -13 -12z"/>
<path d="M84277 86933 c-20 -48 -41 -94 -45 -101 l-9 -13 -257 71 c-241 66
-286 76 -275 66 6 -7 516 -146 533 -146 l13 0 42 96 c23 52 41 100 39 105 l-3
10 -38 -88z"/>
<path d="M84310 86903 c-24 -54 -50 -105 -57 -113 l-13 -15 -91 24 c-50 12
-93 21 -95 18 -4 -4 86 -30 177 -52 l26 -6 53 116 c28 64 50 118 48 121 -3 2
-24 -40 -48 -93z"/>
<path d="M88430 85619 c-29 -112 -55 -211 -58 -219 l-5 -15 10 10 10 10 52
198 c29 109 50 204 48 210 -1 5 -27 -82 -57 -194z"/>
<path d="M80435 85749 c-60 -169 -143 -421 -136 -414 12 13 151 418 146 424
-3 2 -7 -2 -10 -10z"/>
<path d="M60372 85388 l4 -12 240 -27 c131 -15 318 -36 414 -48 l175 -20 277
-12 277 -12 15 6 c9 4 16 10 16 15 l0 8 -292 12 -293 11 -175 20 c-233 27
-643 71 -653 71 l-9 0 4 -12z"/>
<path d="M60837 85287 l-5 -14 136 -12 c76 -7 191 -19 257 -26 l120 -13 223
-8 222 -7 0 15 0 15 -232 7 -233 7 -200 19 c-110 11 -219 22 -241 25 l-42 6
-5 -14z"/>
<path d="M64177 85013 l-7 -11 95 -233 c53 -129 100 -238 105 -243 l10 -10 0
13 c0 6 -41 112 -91 234 -50 122 -94 231 -98 241 l-8 19 -6 -10z"/>
<path d="M88285 84923 c13 -12 452 -136 467 -131 6 2 -92 33 -218 68 -126 35
-236 65 -244 68 l-15 5 10 -10z"/>
<path d="M85728 84774 c-16 -16 -6 -19 62 -21 l70 -2 149 -41 c151 -41 181
-46 181 -32 l0 7 -167 44 -166 44 -61 4 -61 5 -7 -8z"/>
<path d="M80080 84522 c0 -8 420 -155 426 -149 3 2 -64 28 -148 57 -84 29
-181 63 -215 76 l-63 23 0 -7z"/>
<path d="M85099 84384 c-101 -80 -186 -150 -188 -156 l-3 -10 11 3 c17 6 380
293 381 302 1 18 -29 -2 -201 -139z"/>
<path d="M23140 84476 l0 -14 38 -15 c20 -8 103 -45 185 -80 l147 -66 0 13 0
13 -72 31 c-40 17 -124 53 -185 81 l-113 50 0 -13z"/>
<path d="M41588 84431 c-42 -3 -79 -8 -81 -11 -3 -3 56 -5 131 -5 75 0 173 -4
217 -9 44 -5 78 -6 75 -3 -5 5 -254 39 -262 35 -1 -1 -38 -4 -80 -7z"/>
<path d="M83130 84171 c0 -5 6 -11 14 -14 l14 -6 6 6 c3 4 6 10 6 15 l0 8 -20
0 -20 0 0 -9z"/>
<path d="M0 84017 l0 -14 37 -26 38 -27 3 10 c5 14 -10 31 -47 53 l-31 18 0
-14z"/>
<path d="M93006 83139 c-70 -100 -125 -184 -122 -186 2 -2 61 77 131 177 70
100 125 184 122 186 -3 3 -62 -77 -131 -177z"/>
<path d="M76640 82773 c-129 -206 -239 -382 -243 -389 l-8 -14 8 0 c4 0 26 31
49 68 23 37 130 210 239 385 109 175 196 320 193 322 -2 2 -109 -165 -238
-372z"/>
<path d="M92542 82405 c-85 -119 -134 -198 -110 -175 5 4 141 194 207 288 l22
32 -8 0 c-4 0 -54 -65 -111 -145z"/>
<path d="M60581 82354 c-112 -46 -206 -86 -209 -89 -3 -3 -3 -8 1 -11 l6 -6
203 82 c112 45 205 84 207 86 1 1 1 7 0 12 l-4 9 -204 -83z"/>
<path d="M76357 82243 c-34 -54 -92 -144 -127 -200 l-65 -103 -29 -10 -29 -10
-111 59 -111 58 -53 12 c-29 6 -63 11 -75 10 l-22 -1 75 -18 75 -17 105 -57
105 -56 17 0 c9 0 27 5 40 11 l23 10 105 167 c138 218 152 242 145 242 -3 0
-34 -44 -68 -97z"/>
<path d="M75750 82100 l0 -8 68 -12 67 -13 114 -59 114 -60 21 11 21 11 -20
-3 -20 -4 -100 53 -101 53 -82 19 -82 19 0 -7z"/>
<path d="M75282 81799 c-40 -117 -71 -214 -68 -216 5 -5 147 408 144 419 -2 5
-36 -87 -76 -203z"/>
<path d="M94080 81293 c-52 -80 -96 -153 -98 -162 -3 -16 167 231 194 282 l15
27 -8 0 c-5 0 -51 -66 -103 -147z"/>
<path d="M97570 80922 c0 -39 110 -223 156 -263 22 -19 104 -52 111 -45 3 2
-21 17 -52 31 l-57 27 -63 97 -63 96 -7 28 c-4 15 -11 30 -16 33 l-9 5 0 -9z"/>
<path d="M7146 80422 l-5 -8 107 -81 c59 -44 144 -106 189 -137 l81 -57 7 11
c4 6 5 13 4 14 -2 2 -49 34 -104 72 -55 38 -137 97 -182 131 -85 66 -89 68
-97 55z"/>
<path d="M73600 78840 c0 -6 40 -64 88 -128 49 -64 112 -152 141 -194 l52 -78
10 0 10 0 -10 18 c-40 70 -272 391 -283 392 -5 0 -8 -5 -8 -10z"/>
<path d="M124 77089 l-7 -12 24 -19 c13 -10 97 -72 186 -138 l162 -119 7 10 6
11 -8 7 c-5 4 -67 50 -139 101 -71 52 -151 111 -177 132 l-46 39 -8 -12z"/>
<path d="M71130 77070 l0 -10 225 0 225 0 0 10 0 10 -225 0 -225 0 0 -10z"/>
<path d="M34160 73964 c0 -3 53 -62 117 -130 l117 -124 42 -25 c45 -27 64 -31
64 -15 l0 10 -37 19 -38 20 -125 125 c-113 115 -140 137 -140 120z"/>
<path d="M34128 73924 c-3 -3 53 -66 126 -141 l131 -135 37 -19 c20 -10 42
-19 48 -19 22 0 8 16 -35 39 l-46 24 -106 111 c-112 117 -147 149 -155 140z"/>
<path d="M82023 73817 l3 -11 208 -39 209 -40 16 10 16 10 3 32 3 31 -10 0
-11 0 0 -25 0 -26 -14 -5 -15 -6 -188 36 c-103 20 -196 38 -206 40 l-18 4 4
-11z"/>
<path d="M72250 72552 c0 -6 286 -137 346 -158 l19 -7 -10 11 c-8 9 -341 162
-352 162 -2 0 -3 -3 -3 -8z"/>
<path d="M25586 71921 l-6 -9 33 -6 c49 -9 262 -34 350 -41 l77 -7 0 15 0 14
-102 7 c-57 4 -150 14 -207 21 -122 17 -138 18 -145 6z"/>
<path d="M73000 70832 l0 -8 113 -27 112 -27 125 -11 125 -10 473 7 472 7 0
10 0 10 -452 -7 -453 -7 -150 11 -150 11 -98 25 c-107 26 -117 28 -117 16z"/>
<path d="M74445 70295 c3 -16 23 -126 45 -243 l39 -212 19 -28 c11 -15 38 -63
60 -108 l41 -81 21 -94 c12 -52 27 -98 32 -104 l10 -10 -6 20 c-3 11 -15 59
-26 107 l-21 88 -29 65 c-16 36 -43 86 -60 110 l-31 45 -40 217 c-21 120 -44
227 -49 238 l-10 20 5 -30z"/>
<path d="M76853 68483 c4 -104 7 -219 7 -257 l0 -70 11 11 11 11 -7 246 -7
246 -11 0 -10 0 6 -187z"/>
<path d="M77135 68489 l-50 -7 220 5 c121 3 222 7 224 9 8 7 -343 1 -394 -7z"/>
<path d="M41417 67878 c-35 -93 -129 -363 -133 -386 l-6 -30 11 -6 11 -7 0 21
c0 11 32 109 70 216 39 108 70 198 70 200 0 10 -18 3 -23 -8z"/>
<path d="M76888 67655 l-6 -10 8 -180 c5 -99 9 -210 9 -247 l1 -68 11 0 11 0
-7 213 c-4 116 -11 232 -14 257 l-6 45 -7 -10z"/>
<path d="M41731 67135 c12 -11 374 -155 383 -152 l10 3 -192 77 c-181 73 -212
84 -201 72z"/>
<path d="M37302 66855 l-414 -23 -6 -7 -7 -8 90 6 c50 4 241 13 425 22 l335
16 30 9 30 8 -35 0 c-19 0 -221 -11 -448 -23z"/>
<path d="M36902 66789 l-314 -18 -69 -27 c-38 -15 -69 -31 -69 -35 l0 -8 73
29 72 30 364 19 c200 11 366 22 369 25 l5 6 -59 -1 c-32 -1 -200 -10 -372 -20z"/>
<path d="M35825 66524 c-204 -46 -198 -44 -193 -50 5 -4 379 75 387 82 11 11
-58 -1 -194 -32z"/>
<path d="M44245 66293 c6 -6 69 -28 140 -48 72 -21 158 -45 193 -55 l62 -19 0
8 0 7 -187 53 c-104 30 -195 56 -203 59 l-15 5 10 -10z"/>
<path d="M41590 66266 c0 -3 153 -105 308 -204 12 -8 22 -11 22 -8 0 7 -315
216 -325 216 -3 0 -5 -2 -5 -4z"/>
<path d="M41550 66192 c0 -11 311 -215 317 -208 3 3 -21 22 -53 42 -33 21
-105 68 -161 106 l-103 68 0 -8z"/>
<path d="M97466 66141 l-6 -10 44 -208 44 -208 55 -185 c30 -102 63 -203 72
-225 l18 -40 4 17 4 17 -9 18 c-6 10 -38 113 -72 228 l-62 210 -39 194 c-21
107 -41 196 -43 198 -2 2 -7 0 -10 -6z"/>
<path d="M94504 66085 c7 -42 43 -270 52 -330 3 -27 11 -57 16 -65 l9 -15 -5
30 c-2 17 -17 111 -32 210 l-27 180 -9 10 -10 10 6 -30z"/>
<path d="M41910 66008 l-12 -23 18 17 18 18 -6 6 -6 6 -12 -24z"/>
<path d="M49120 65940 l0 -13 7 6 6 7 -6 7 -7 6 0 -13z"/>
<path d="M49150 65941 l0 -10 173 -121 c384 -271 529 -370 525 -361 -1 6 -78
63 -169 128 -92 65 -242 172 -335 238 -92 66 -174 124 -181 128 l-13 8 0 -10z"/>
<path d="M49130 65906 c0 -9 340 -249 345 -244 3 3 -68 57 -157 120 -177 124
-188 132 -188 124z"/>
<path d="M31335 64909 c-121 -52 -155 -70 -155 -82 l0 -9 23 14 c12 9 74 36
138 62 l116 46 59 0 c32 0 167 -14 299 -30 220 -26 257 -29 244 -15 -3 2 -100
16 -217 30 l-213 25 -102 -1 -102 -1 -90 -39z"/>
<path d="M31316 64855 c-65 -30 -121 -57 -124 -60 -16 -16 29 1 123 47 l106
51 77 4 77 5 240 -31 c132 -16 241 -28 244 -26 8 8 -25 13 -244 39 l-220 26
-80 0 -80 0 -119 -55z"/>
<path d="M1045 64740 c-16 -4 -102 -13 -190 -20 -88 -6 -162 -14 -164 -16 -7
-7 60 -5 200 7 l134 11 50 13 50 13 -25 0 c-14 0 -38 -3 -55 -8z"/>
<path d="M37180 64720 l0 -20 11 0 c14 0 383 -48 422 -55 l27 -4 0 19 0 20
-22 4 c-26 6 -410 56 -427 56 l-11 0 0 -20z"/>
<path d="M41987 64528 c-65 -94 -116 -172 -113 -175 3 -4 205 278 239 334 l8
13 -8 0 c-4 -1 -61 -78 -126 -172z"/>
<path d="M37057 64571 l-5 -20 49 -11 c60 -15 411 -59 422 -53 4 2 7 10 7 18
l0 13 -27 6 c-16 3 -106 15 -201 26 -95 11 -184 25 -198 30 -35 14 -41 13 -47
-9z"/>
<path d="M47791 64586 c2 -2 96 -43 209 -91 113 -48 208 -89 213 -92 l7 -4 0
8 0 8 -207 88 c-185 78 -236 97 -222 83z"/>
<path d="M47783 64543 c11 -10 422 -181 426 -177 2 2 2 5 0 7 -8 6 -419 177
-425 177 l-7 0 6 -7z"/>
<path d="M1325 64476 l-50 -11 5 -10 5 -10 10 4 c6 2 33 6 61 8 l51 5 38 -68
c20 -38 53 -88 72 -112 l35 -42 9 6 9 5 -39 47 c-21 26 -53 75 -70 108 l-30
62 -28 9 -28 10 -50 -11z"/>
<path d="M70820 64256 c0 -5 37 -91 82 -192 l81 -184 8 0 8 0 -18 43 c-78 179
-144 324 -152 332 l-9 9 0 -8z"/>
<path d="M40660 64190 l0 -10 60 0 60 0 0 10 0 10 -60 0 -60 0 0 -10z"/>
<path d="M40072 64085 l-12 -25 9 0 c4 0 13 11 19 25 l12 25 -9 0 c-4 0 -13
-11 -19 -25z"/>
<path d="M41820 63915 l0 -15 22 0 c12 0 63 -15 113 -34 86 -33 343 -116 358
-116 4 0 7 7 7 15 l0 15 -16 0 c-8 0 -116 34 -239 75 -123 41 -229 75 -235 75
l-10 0 0 -15z"/>
<path d="M89635 63879 c5 -8 48 -59 96 -114 47 -55 105 -127 128 -159 46 -66
57 -65 13 1 -31 46 -218 269 -235 280 l-10 6 8 -14z"/>
<path d="M89621 63833 c102 -114 165 -190 204 -249 l45 -69 0 13 c0 7 -15 35
-34 63 -46 69 -217 269 -229 269 l-11 0 25 -27z"/>
<path d="M2257 63694 l-6 -6 491 -431 c270 -238 494 -433 499 -435 l9 -4 0 10
c0 8 -946 846 -975 864 l-12 7 -6 -5z"/>
<path d="M2220 63653 c0 -9 314 -293 324 -293 20 0 -12 34 -150 156 -85 77
-159 141 -165 142 l-9 4 0 -9z"/>
<path d="M41710 63630 l0 -13 7 6 6 7 -6 7 -7 6 0 -13z"/>
<path d="M41770 63626 c0 -5 26 -39 59 -75 32 -36 96 -119 143 -185 l86 -118
223 -253 c123 -140 228 -254 232 -254 l9 -1 -4 9 c-1 5 -99 117 -216 250
l-214 240 -102 135 c-109 142 -216 267 -216 252z"/>
<path d="M93010 63620 l0 -15 164 -164 163 -163 6 9 6 9 -170 170 -169 169 0
-15z"/>
<path d="M41760 63576 c0 -4 21 -31 46 -59 25 -28 84 -104 130 -169 l85 -117
120 -133 c66 -73 171 -190 232 -260 61 -70 113 -125 116 -123 2 3 -7 18 -21
33 -48 53 -434 498 -471 544 -21 26 -64 82 -96 125 -65 88 -140 172 -141 159z"/>
<path d="M41197 63494 c-80 -69 -95 -84 -83 -84 3 0 42 32 87 70 45 39 82 70
84 68 13 -18 221 -246 233 -255 9 -7 20 -13 25 -13 l9 0 -20 18 c-15 13 -142
153 -241 264 l-7 8 -87 -76z"/>
<path d="M32532 63235 c7 -7 872 -115 877 -109 12 12 23 11 -644 88 -239 28
-241 29 -233 21z"/>
<path d="M41575 63170 c3 -5 8 -10 11 -10 2 0 4 5 4 10 0 6 -5 10 -11 10 l-10
0 6 -10z"/>
<path d="M41540 63152 c0 -5 6 -15 14 -21 l14 -12 6 10 7 10 -21 11 -20 11 0
-9z"/>
<path d="M42765 62999 c-82 -71 -172 -153 -200 -181 l-50 -52 41 35 c138 114
364 313 364 320 0 5 -1 9 -2 8 -2 0 -70 -59 -153 -130z"/>
<path d="M13628 63082 l-58 -3 0 -10 0 -10 43 5 c23 3 125 7 227 8 l185 3 35
-8 35 -7 -30 15 -30 15 -175 -3 c-96 -1 -201 -3 -232 -5z"/>
<path d="M51253 63063 c4 -6 35 -22 69 -36 35 -14 111 -46 171 -71 l107 -45 0
8 0 8 -157 66 c-87 36 -167 69 -177 73 l-19 7 6 -10z"/>
<path d="M58658 62922 c-37 -20 -68 -41 -68 -45 l0 -8 77 42 77 42 340 -27
c188 -15 357 -30 376 -33 l35 -5 -10 9 -10 10 -335 27 c-184 14 -353 26 -375
26 l-40 -1 -67 -37z"/>
<path d="M16005 62909 l20 -13 145 -2 145 -2 -130 8 c-71 4 -146 11 -165 15
l-35 6 20 -12z"/>
<path d="M58705 62905 c-57 -31 -96 -57 -92 -62 3 -2 29 11 58 29 l54 33 50 0
c28 0 97 -3 155 -7 l105 -6 -45 8 c-25 4 -92 11 -150 14 l-105 7 -30 -16z"/>
<path d="M51630 62823 c-18 -43 -60 -130 -93 -193 l-60 -115 -107 -155 c-59
-85 -110 -160 -114 -167 l-6 -12 9 -5 9 -6 120 173 119 172 56 110 c51 101 95
195 118 253 l9 22 -13 0 -13 0 -34 -77z"/>
<path d="M16720 62794 l0 -95 10 6 10 6 0 90 0 89 -10 0 -10 0 0 -96z"/>
<path d="M57650 62867 c0 -7 6 -21 13 -30 l12 -16 130 -62 c72 -34 191 -88
265 -119 l135 -57 -1 -8 c-1 -5 -191 -160 -424 -345 l-422 -337 -217 92 c-119
51 -252 108 -295 129 -44 20 -81 34 -84 31 -6 -5 61 -36 353 -162 l220 -94 7
-12 7 -11 6 6 6 6 197 -84 c108 -46 201 -83 206 -81 4 1 -80 40 -188 86 -108
47 -196 87 -196 90 0 3 192 159 426 345 l425 339 -9 9 c-5 5 -58 31 -118 57
-60 26 -180 81 -268 122 l-158 74 -9 23 c-9 24 -19 29 -19 9z"/>
<path d="M45840 62643 c0 -10 -3 -28 -6 -40 l-6 -23 15 0 15 0 6 23 c3 12 6
30 6 40 l0 17 -15 0 -15 0 0 -17z"/>
<path d="M42220 62459 c-96 -83 -186 -162 -200 -176 l-25 -27 20 15 c19 14
345 288 374 315 8 8 13 16 10 18 -2 2 -83 -63 -179 -145z"/>
<path d="M60500 62398 c0 -3 18 -92 40 -199 38 -178 50 -225 50 -188 0 28 -74
374 -82 384 -4 5 -8 6 -8 3z"/>
<path d="M88992 62380 l4 -15 174 -147 173 -147 9 5 10 6 -9 7 c-41 36 -332
280 -347 291 l-19 15 5 -15z"/>
<path d="M59095 62252 c14 -14 405 -185 411 -179 4 3 -256 121 -386 174 l-35
15 10 -10z"/>
<path d="M57320 61863 c0 -10 429 -197 436 -191 2 3 -87 44 -198 93 -112 48
-207 91 -212 96 -12 11 -26 12 -26 2z"/>
<path d="M59874 61773 l-67 -77 -61 -95 c-34 -53 -73 -114 -86 -135 l-24 -40
11 7 c6 4 44 59 84 123 l74 116 72 85 c40 46 73 86 73 89 0 11 -14 -2 -76 -73z"/>
<path d="M48110 61787 l0 -15 201 -112 201 -112 10 10 9 9 -168 93 c-92 51
-187 104 -210 117 l-43 25 0 -15z"/>
<path d="M58206 61472 c16 -15 426 -193 431 -188 3 3 -10 11 -28 19 -19 8
-116 51 -217 96 -177 79 -206 90 -186 73z"/>
<path d="M48370 61243 c-74 -119 -166 -268 -203 -332 l-69 -116 -40 -42 -41
-42 -53 -28 -53 -29 9 -14 9 -14 53 28 53 29 42 40 42 40 59 101 c33 56 69
117 80 136 10 20 76 127 146 239 l126 203 -6 9 c-3 5 -8 9 -12 9 -4 0 -68 -98
-142 -217z"/>
<path d="M85870 60964 c0 -12 99 -170 175 -279 l76 -108 132 -145 c73 -79 144
-159 159 -176 l27 -31 0 10 c1 6 -67 84 -149 175 l-150 165 -94 135 c-51 74
-107 161 -125 192 -18 32 -36 60 -42 63 l-9 6 0 -7z"/>
<path d="M59521 60896 c3 -3 43 -24 88 -46 l81 -39 0 8 c0 7 -101 56 -160 79
l-15 5 6 -7z"/>
<path d="M61320 60599 c0 -23 99 -491 105 -497 9 -10 5 14 -45 259 -46 222
-60 278 -60 238z"/>
<path d="M61886 60216 l-449 -91 16 -3 c15 -3 876 167 886 175 16 12 -55 0
-453 -81z"/>
<path d="M58636 60229 c-59 -14 -57 -20 5 -13 l54 6 116 -238 c64 -132 168
-359 230 -506 63 -147 117 -268 121 -268 4 0 -8 35 -26 78 -19 42 -90 209
-160 370 l-126 294 -76 144 -76 144 -11 -1 c-7 -1 -30 -5 -51 -10z"/>
<path d="M58642 60190 c-18 -4 -36 -10 -39 -14 l-6 -6 38 3 38 2 38 -70 c52
-95 235 -497 335 -735 l81 -195 19 -3 19 -4 -16 14 -16 13 -68 165 c-111 271
-376 844 -388 839 -1 -1 -17 -5 -35 -9z"/>
<path d="M61464 60083 c3 -10 21 -97 41 -193 20 -96 38 -177 42 -180 l6 -5 -6
30 c-3 17 -20 105 -38 198 l-33 167 -9 0 -8 0 5 -17z"/>
<path d="M44901 59914 c219 -237 648 -689 725 -765 l99 -96 108 -77 109 -77 6
6 6 6 -10 7 c-6 4 -62 44 -125 89 l-114 82 -166 168 c-92 92 -276 285 -409
428 -133 143 -247 262 -253 264 -7 2 4 -14 24 -35z"/>
<path d="M83340 59939 l0 -16 63 -104 c102 -168 161 -259 169 -259 4 0 -29 57
-74 128 -44 70 -98 159 -119 197 l-39 70 0 -16z"/>
<path d="M63661 59827 c-1 -9 26 -137 58 -285 33 -147 91 -422 130 -612 38
-190 158 -775 265 -1300 108 -525 214 -1047 237 -1160 23 -113 43 -211 45
-217 l3 -13 19 0 19 0 16 -18 17 -19 0 -25 0 -25 -18 -16 -19 -17 -26 0 -26 0
-14 15 -15 14 -6 -6 -6 -6 17 -19 16 -18 38 0 38 0 20 26 21 27 0 32 0 32 -23
21 -23 22 -15 0 -15 0 -48 223 c-47 219 -317 1523 -501 2422 -97 475 -203 953
-204 922z"/>
<path d="M45391 59448 c85 -89 197 -204 249 -256 l95 -94 100 -72 c241 -174
490 -348 504 -354 l16 -5 -6 6 c-3 4 -82 62 -176 129 -94 68 -231 166 -305
220 l-134 96 -241 246 c-132 135 -244 246 -248 246 -4 0 62 -73 146 -162z"/>
<path d="M62712 59569 c-106 -20 -196 -40 -200 -44 l-7 -8 35 7 c19 3 109 21
200 38 91 17 167 33 169 35 14 11 -25 5 -197 -28z"/>
<path d="M78050 59278 c64 -247 172 -641 177 -647 2 -2 6 -1 10 2 l6 7 -51
187 c-28 104 -74 280 -102 393 -28 113 -55 222 -61 243 l-10 37 -14 0 -13 0
58 -222z"/>
<path d="M53004 59319 l-179 -130 0 -12 0 -12 13 3 c7 1 94 61 192 133 l180
131 -6 9 c-3 5 -9 9 -13 9 -5 0 -89 -59 -187 -131z"/>
<path d="M46982 59410 l-12 -20 0 -27 0 -27 9 10 c8 9 25 84 19 84 -2 0 -9 -9
-16 -20z"/>
<path d="M61588 59336 c-235 -50 -430 -95 -435 -99 l-8 -9 25 7 c14 3 216 46
448 95 233 49 426 91 430 94 l5 6 -19 -1 c-10 -1 -211 -42 -446 -93z"/>
<path d="M59857 59365 c-114 -23 -211 -46 -215 -50 l-7 -8 25 6 c14 3 120 24
235 47 116 23 212 44 214 46 11 10 -60 -1 -252 -41z"/>
<path d="M63720 59369 c0 -8 19 -106 42 -219 l41 -205 10 -10 9 -10 -5 20 c-3
11 -25 112 -48 225 -39 193 -49 233 -49 199z"/>
<path d="M91642 59180 l4 -15 153 -124 c84 -67 154 -121 157 -118 3 2 -51 48
-118 102 -68 54 -140 114 -162 134 l-39 36 5 -15z"/>
<path d="M83854 59128 c114 -211 366 -701 376 -733 l13 -40 4 11 c2 6 -4 32
-14 56 -26 66 -386 748 -394 748 -4 0 3 -19 15 -42z"/>
<path d="M49101 58834 c-90 -119 -161 -218 -158 -220 2 -3 77 93 166 212 90
119 161 218 158 220 -2 3 -77 -93 -166 -212z"/>
<path d="M39546 58771 c5 -4 63 -27 129 -51 66 -23 157 -58 203 -77 102 -44
120 -38 20 7 -73 32 -338 130 -354 130 l-8 0 10 -9z"/>
<path d="M51193 58570 l37 -55 0 -31 0 -32 -26 -17 -25 -16 -31 6 -31 7 7 -11
7 -11 32 0 33 0 21 15 21 15 6 35 7 35 -30 43 c-16 24 -37 50 -47 58 l-18 14
37 -55z"/>
<path d="M61774 58533 c2 -10 19 -90 36 -178 35 -178 40 -199 47 -192 2 3 -13
91 -34 196 l-37 191 -9 0 -8 0 5 -17z"/>
<path d="M61525 58477 c-110 -28 -195 -52 -189 -54 11 -4 415 94 423 103 11
11 -49 -2 -234 -49z"/>
<path d="M63900 58475 c0 -5 29 -147 65 -315 35 -168 89 -438 120 -600 31
-162 106 -524 166 -804 l110 -509 -16 -17 c-8 -9 -15 -23 -15 -31 l0 -14 24
30 c13 16 22 33 20 36 -8 14 -209 967 -269 1279 -37 190 -96 480 -131 645 -57
264 -74 332 -74 300z"/>
<path d="M40492 58378 c2 -6 10 -14 16 -16 l12 -4 0 10 c0 5 -7 13 -16 16
l-16 6 4 -12z"/>
<path d="M60653 58316 c-112 -23 -206 -46 -210 -51 l-8 -8 25 6 c14 3 108 22
210 43 102 21 189 41 195 46 l9 8 -9 -1 c-6 0 -101 -20 -212 -43z"/>
<path d="M48786 57992 l-5 -8 119 -119 120 -119 10 10 11 11 -125 116 -125
117 -5 -8z"/>
<path d="M62603 57881 l-211 -46 -9 -9 -8 -9 15 5 c8 2 111 25 228 49 l212 44
0 7 c0 10 23 14 -227 -41z"/>
<path d="M35762 57880 l-64 -9 -80 -27 c-43 -14 -77 -28 -74 -31 2 -3 40 6 83
20 l78 26 100 11 100 12 68 -7 68 -6 251 -95 c139 -52 256 -93 261 -91 5 1
-109 47 -254 102 l-264 100 -105 1 -105 2 -63 -8z"/>
<path d="M80925 57478 c4 -18 19 -69 33 -113 l25 -80 96 -95 c98 -99 91 -83
-15 30 l-61 65 -26 70 c-15 39 -31 89 -37 113 -13 49 -25 57 -15 10z"/>
<path d="M38095 57221 l3 -63 -43 -152 c-24 -83 -80 -257 -124 -386 -45 -129
-80 -239 -78 -244 4 -13 180 500 224 653 l36 129 -11 63 -11 64 4 -64z"/>
<path d="M56825 56988 c4 -13 7 -38 7 -56 l-1 -33 -12 -15 -12 -14 6 -7 7 -6
14 12 14 12 6 44 7 44 -13 20 c-7 12 -17 21 -22 21 l-8 0 7 -22z"/>
<path d="M53915 56810 l-6 -9 221 -111 220 -110 0 13 0 12 -215 107 -214 108
-6 -10z"/>
<path d="M23460 56800 c14 -4 39 -8 55 -8 l30 0 -25 8 c-14 4 -38 8 -55 8
l-30 0 25 -8z"/>
<path d="M47201 56793 c0 -4 66 -65 147 -136 81 -70 164 -142 184 -161 20 -19
39 -32 42 -29 4 5 -348 325 -365 331 -5 2 -9 0 -8 -5z"/>
<path d="M84015 56764 c63 -27 410 -152 414 -149 2 3 2 7 0 9 -11 10 -392 146
-407 145 l-17 -1 10 -4z"/>
<path d="M79474 56551 l-39 -28 -80 -31 -80 -31 26 -1 27 0 73 34 c41 19 88
46 104 60 l30 25 -11 1 c-5 0 -28 -13 -50 -29z"/>
<path d="M90620 56491 c0 -5 51 -30 113 -57 61 -26 145 -66 185 -87 l72 -39 0
9 0 9 -92 47 c-51 26 -135 64 -185 86 l-93 40 0 -8z"/>
<path d="M79044 56421 l6 -9 20 5 c28 7 25 13 -6 13 l-25 0 5 -9z"/>
<path d="M63644 56105 l-16 -24 7 -11 7 -12 19 31 c22 36 23 41 9 41 -5 0 -17
-11 -26 -25z"/>
<path d="M37180 56106 c-25 -7 -227 -85 -450 -173 l-405 -161 -59 -12 -59 -12
-28 6 -29 6 0 -10 0 -10 48 0 c26 0 72 6 102 14 l55 13 410 163 c226 90 433
169 460 175 l50 13 -25 0 c-14 0 -45 -5 -70 -12z"/>
<path d="M35510 56056 l-55 -32 0 -15 0 -14 45 -22 c84 -41 210 -92 210 -85 0
4 -53 30 -117 57 l-117 50 -3 11 -4 12 56 32 c52 30 65 41 48 40 -5 -1 -33
-16 -63 -34z"/>
<path d="M25510 55923 c0 -10 360 -236 367 -230 3 4 -262 176 -354 231 l-13 7
0 -8z"/>
<path d="M63062 55910 l0 -25 5 13 c2 6 2 18 0 25 l-5 12 0 -25z"/>
<path d="M25495 55882 c19 -19 348 -223 356 -220 8 3 -328 219 -352 226 l-14
5 10 -11z"/>
<path d="M46970 55750 l0 -13 7 6 6 7 -6 7 -7 6 0 -13z"/>
<path d="M62210 55693 c-146 -30 -267 -57 -269 -59 -2 -2 -2 -7 2 -10 l5 -6
224 46 c123 25 247 50 276 56 l52 12 -6 9 c-7 11 26 17 -284 -48z"/>
<path d="M50972 55726 l37 -14 153 -7 c84 -3 163 -8 176 -11 l22 -4 0 8 0 9
-182 11 c-101 6 -196 13 -213 16 l-30 6 37 -14z"/>
<path d="M46936 55712 l-5 -8 34 -110 c18 -60 50 -145 70 -189 20 -44 41 -90
46 -102 l8 -23 16 6 c8 3 15 11 15 16 0 6 -22 61 -50 123 -27 62 -50 116 -50
120 0 4 -12 45 -26 91 l-25 84 -14 0 c-8 0 -16 -4 -19 -8z"/>
<path d="M61945 55687 l-7 -18 6 -6 6 -6 6 6 c3 3 4 14 1 24 l-4 18 -8 -18z"/>
<path d="M25991 55656 c2 -2 94 -68 204 -148 170 -122 255 -181 323 -222 l12
-7 0 8 c0 4 -24 22 -53 40 -29 17 -146 99 -261 182 -115 83 -214 151 -219 151
-6 0 -8 -2 -6 -4z"/>
<path d="M60763 55553 c15 -2 37 -2 50 0 l22 4 -50 0 -50 0 28 -4z"/>
<path d="M60578 55543 l13 -5 6 6 6 6 -19 -1 -19 -1 13 -5z"/>
<path d="M50958 55233 c-31 -33 -48 -73 -47 -111 l1 -27 13 46 12 47 28 36
c33 43 29 47 -7 9z"/>
<path d="M31355 55070 l-130 -6 -25 -13 c-34 -18 -70 -52 -82 -76 l-9 -20 30
32 c16 17 44 39 61 48 l31 16 140 6 139 6 0 9 0 8 -12 -2 c-7 -1 -71 -4 -143
-8z"/>
<path d="M49940 55041 c0 -6 35 -37 78 -69 42 -33 110 -87 151 -121 l74 -62 6
7 6 6 -50 45 c-47 42 -226 181 -252 197 l-13 7 0 -10z"/>
<path d="M33421 54956 c2 -3 60 -19 128 -36 69 -17 135 -37 148 -44 l24 -12
29 -45 c38 -55 40 -41 3 17 l-27 43 -21 10 c-21 11 -255 71 -276 71 -7 0 -10
-2 -8 -4z"/>
<path d="M31550 54770 c-90 -147 -160 -280 -160 -303 1 -7 22 31 48 83 26 52
86 157 134 233 48 75 83 137 79 137 -5 0 -50 -68 -101 -150z"/>
<path d="M31573 54732 l-102 -167 -56 -120 -57 -120 -47 -155 c-27 -85 -54
-186 -60 -224 l-12 -69 -85 -200 c-46 -110 -82 -202 -79 -205 2 -3 9 6 14 19
5 13 44 105 86 204 l76 180 15 75 c9 41 33 136 55 210 l40 135 72 150 71 150
86 140 c47 77 90 146 94 153 l7 12 -8 0 c-4 -1 -54 -76 -110 -168z"/>
<path d="M52345 54880 c3 -5 10 -10 15 -10 4 0 70 -43 145 -95 76 -52 140 -93
143 -90 7 6 20 -4 -146 109 -78 53 -147 96 -153 96 l-10 0 6 -10z"/>
<path d="M14064 54747 l-29 -62 -267 -393 c-148 -216 -268 -398 -268 -404 0
-6 120 164 266 378 l266 389 35 73 c19 41 33 76 31 78 -3 2 -18 -24 -34 -59z"/>
<path d="M49224 54648 c45 -101 90 -188 98 -188 l8 0 -60 120 c-61 122 -89
162 -46 68z"/>
<path d="M50250 54630 c-52 -27 -89 -49 -82 -49 14 -1 192 86 192 94 0 10 -17
3 -110 -45z"/>
<path d="M51863 54378 c-76 -101 -143 -189 -148 -197 l-8 -14 11 4 c13 5 292
368 292 380 0 5 -2 9 -4 9 -2 0 -66 -82 -143 -182z"/>
<path d="M52724 54173 c-121 -186 -252 -382 -292 -436 -85 -115 -82 -128 4
-17 54 70 500 748 511 777 16 41 -26 -20 -223 -324z"/>
<path d="M73085 54392 c-61 -53 -133 -116 -160 -139 l-50 -41 7 -8 7 -7 20 14
c41 31 301 264 301 271 0 18 -20 3 -125 -90z"/>
<path d="M73080 54314 c-85 -75 -156 -141 -158 -145 l-4 -9 9 0 c11 0 316 268
321 281 10 25 -28 -3 -168 -127z"/>
<path d="M32406 54411 c23 -21 346 -232 350 -228 5 4 -342 237 -353 237 l-7 0
10 -9z"/>
<path d="M88035 54386 l-20 -15 10 -2 c6 0 27 0 48 1 l38 2 14 -12 14 -12 13
4 13 5 -25 15 c-14 9 -39 19 -55 22 l-30 7 -20 -15z"/>
<path d="M84665 54265 c-204 -91 -400 -193 -476 -248 l-55 -41 -45 -60 c-44
-60 -70 -109 -68 -130 0 -6 7 5 16 24 8 19 35 62 60 96 l45 61 49 37 c68 51
298 171 481 252 133 58 185 84 168 84 -3 0 -81 -34 -175 -75z"/>
<path d="M51586 54058 c-47 -56 -86 -107 -86 -112 l0 -10 8 10 c74 82 173 206
170 210 -3 2 -44 -41 -92 -98z"/>
<path d="M48862 54015 c23 -47 46 -85 50 -85 l8 0 -42 85 c-23 47 -46 85 -50
85 l-8 0 42 -85z"/>
<path d="M87391 53786 c-174 -129 -204 -154 -185 -157 7 -1 392 280 399 292
l6 9 -13 -1 c-7 0 -100 -65 -207 -143z"/>
<path d="M32595 53775 c-88 -73 -161 -139 -164 -146 -3 -10 265 207 324 262
l19 19 -9 0 c-6 -1 -82 -61 -170 -135z"/>
<path d="M51410 53861 c0 -5 96 -88 213 -184 l213 -175 41 -46 40 -46 6 7 6 6
-37 45 -37 45 -210 172 c-115 94 -216 175 -222 179 l-13 7 0 -10z"/>
<path d="M21654 53795 l26 -24 -1 -58 c0 -32 -6 -111 -12 -175 l-12 -118 7 0
c5 0 8 6 8 13 0 6 5 62 11 122 5 61 10 137 11 169 l1 59 -23 19 c-12 10 -27
18 -33 18 l-10 0 27 -25z"/>
<path d="M77468 53633 l-188 -74 0 -8 0 -8 195 76 c107 42 195 79 195 84 0 11
-3 10 -202 -70z"/>
<path d="M49720 53696 c0 -14 125 -246 132 -246 7 0 -107 226 -124 245 l-8 9
0 -8z"/>
<path d="M48880 53583 l-175 -85 12 -5 11 -4 164 82 c174 87 174 87 167 94 -3
2 -83 -34 -179 -82z"/>
<path d="M13837 53583 l-5 -8 176 -142 175 -142 8 5 9 5 -33 28 c-30 26 -289
235 -314 253 l-11 9 -5 -8z"/>
<path d="M51940 53460 c0 -13 11 -13 30 0 l15 10 -22 0 -23 0 0 -10z"/>
<path d="M51970 53430 l-15 -10 18 0 17 0 0 10 c0 12 -1 12 -20 0z"/>
<path d="M46130 53347 c9 -7 53 -40 98 -75 l81 -62 29 -43 c16 -23 49 -78 72
-121 l44 -80 3 10 3 10 -51 95 c-29 52 -62 105 -73 118 -26 29 -200 161 -212
161 l-9 -1 15 -12z"/>
<path d="M52586 53213 c31 -65 88 -185 126 -267 l70 -149 -13 -8 c-8 -5 -59
-34 -113 -66 l-100 -56 -14 19 c-7 10 -29 46 -48 79 -45 81 -43 57 4 -30 l37
-70 20 -3 20 -2 105 60 105 61 10 -14 c6 -8 58 -105 115 -216 58 -110 109
-201 113 -201 l9 0 -55 103 c-30 56 -82 154 -116 218 l-61 116 62 28 c88 39
369 187 364 192 -2 2 -86 -38 -187 -90 -101 -51 -198 -98 -215 -104 l-31 -11
-123 264 -123 264 -8 0 -8 0 55 -117z"/>
<path d="M50233 53167 c-112 -55 -201 -102 -199 -104 1 -2 99 44 217 101 118
58 207 105 199 105 -8 0 -106 -46 -217 -102z"/>
<path d="M53437 53046 c-87 -46 -163 -89 -170 -96 -7 -7 68 28 165 79 l177 91
43 -5 43 -5 -20 9 c-11 5 -33 10 -50 9 l-30 0 -158 -82z"/>
<path d="M51397 53065 l31 -40 18 -52 c10 -29 22 -53 26 -53 l7 0 -14 41 c-19
52 -48 100 -77 125 l-22 19 31 -40z"/>
<path d="M51508 52875 l30 -25 23 1 24 1 -31 9 c-17 5 -37 16 -44 24 -7 8 -17
15 -22 15 -5 0 4 -11 20 -25z"/>
<path d="M12622 52717 c-56 -81 -102 -149 -102 -152 0 -22 31 15 114 135 l98
140 -4 12 -4 11 -102 -146z"/>
<path d="M84196 52673 c19 -71 46 -173 60 -228 15 -55 31 -107 36 -115 l9 -15
-5 25 c-19 89 -122 460 -128 460 l-7 0 35 -127z"/>
<path d="M27716 52578 c-3 -90 -9 -192 -12 -228 l-5 -65 9 15 10 15 6 185 c4
102 9 197 12 213 l6 27 -10 0 -9 0 -7 -162z"/>
<path d="M26820 52724 c0 -4 9 -17 19 -28 11 -12 55 -78 99 -148 l80 -128 13
-72 13 -73 0 -197 0 -198 7 0 7 0 4 118 4 117 -7 106 c-5 58 -15 133 -23 166
l-14 60 -85 129 c-46 72 -92 136 -101 143 l-16 13 0 -8z"/>
<path d="M64355 52650 l-20 -9 23 0 22 -1 0 10 c0 6 -1 10 -2 9 -2 0 -12 -4
-23 -9z"/>
<path d="M21676 52489 c-3 -19 -8 -122 -11 -229 l-7 -195 6 6 c7 7 28 440 22
447 -3 2 -7 -11 -10 -29z"/>
<path d="M78040 52397 c0 -18 180 -507 261 -709 l72 -177 8 4 8 5 -61 148
c-69 169 -268 710 -268 729 l0 13 -10 0 -10 0 0 -13z"/>
<path d="M84810 52312 l-105 -26 15 -3 c8 -2 59 7 113 21 l98 23 8 -16 c5 -9
21 -70 36 -136 l27 -120 10 -10 10 -10 -6 20 c-3 11 -17 70 -31 130 -14 61
-30 120 -35 133 l-10 22 -12 -1 c-7 -1 -60 -13 -118 -27z"/>
<path d="M27002 52263 l9 -68 -5 -160 -5 -160 8 30 9 30 1 136 c0 75 -2 164
-5 198 l-7 61 -7 0 -6 0 8 -67z"/>
<path d="M83918 52205 c-219 -55 -398 -103 -398 -106 0 -7 791 188 799 197 2
2 2 5 0 7 -2 1 -183 -43 -401 -98z"/>
<path d="M27741 52260 c-7 -106 -41 -785 -41 -824 0 -27 2 -47 4 -45 7 7 48
834 43 866 l-4 28 -2 -25z"/>
<path d="M34157 51343 c7 -22 32 -43 50 -43 l13 0 0 10 0 10 -15 0 -14 0 -11
20 c-6 11 -15 20 -20 20 l-9 0 6 -17z"/>
<path d="M33444 51265 c3 -16 15 -115 27 -220 l22 -190 10 -10 10 -10 -6 25
c-3 14 -15 113 -28 220 l-22 195 -10 10 -9 10 6 -30z"/>
<path d="M61272 51085 c5 -5 354 -87 421 -99 l39 -7 -7 10 -6 11 -23 0 c-13 0
-110 20 -216 45 -189 44 -218 50 -208 40z"/>
<path d="M28445 51000 l-6 -10 15 0 16 0 6 -26 7 -25 9 9 9 9 -10 26 -11 27
-14 0 c-8 0 -18 -4 -21 -10z"/>
<path d="M26775 50754 c-4 -96 -5 -178 -2 -180 3 -3 8 52 11 123 3 70 8 152
10 181 l5 52 -8 0 -8 0 -8 -176z"/>
<path d="M27790 50903 l0 -10 191 -7 191 -7 6 5 c3 3 3 8 1 10 -2 3 -91 8
-197 12 l-192 7 0 -10z"/>
<path d="M28400 50880 l0 -13 7 6 6 7 -6 7 -7 6 0 -13z"/>
<path d="M27765 50490 l0 -395 2 198 c2 108 2 286 0 395 l-2 197 0 -395z"/>
<path d="M31493 50471 l-121 -6 -7 -7 -7 -6 155 5 156 6 5 -34 c3 -19 12 -149
21 -289 9 -140 18 -256 20 -259 8 -7 5 66 -13 339 l-17 255 -35 1 c-19 0 -90
-2 -157 -5z"/>
<path d="M33570 50374 c1 -33 58 -386 64 -392 3 -3 7 -3 9 -1 6 7 -57 397 -65
405 l-8 7 0 -19z"/>
<path d="M33610 50375 c1 -32 59 -387 65 -393 10 -10 5 45 -21 218 l-27 175
-8 10 -9 9 0 -19z"/>
<path d="M31724 50275 c3 -33 8 -130 12 -215 l7 -155 9 -15 9 -15 -5 55 c-3
30 -8 127 -12 215 l-6 160 -10 15 -9 15 5 -60z"/>
<path d="M24875 49811 c-39 -22 -110 -55 -157 -75 l-87 -36 -33 0 -33 0 -15
-11 -15 -11 56 6 57 6 69 30 c83 35 220 108 229 121 8 13 5 12 -71 -30z"/>
<path d="M22405 49790 l30 -8 165 -5 165 -5 -20 7 -20 8 -175 5 -175 6 30 -8z"/>
<path d="M11816 49353 l-6 -7 65 -37 c81 -48 114 -56 243 -65 l102 -7 0 10 0
10 -94 6 c-91 6 -180 22 -201 37 -5 3 -31 18 -56 33 l-46 26 -7 -6z"/>
<path d="M30520 49209 c1 -71 30 -512 35 -517 7 -7 7 12 -10 287 -8 134 -17
246 -20 249 -3 3 -5 -6 -5 -19z"/>
<path d="M12236 49198 c-3 -13 -6 -58 -6 -100 l0 -77 10 -53 11 -53 31 -67
c18 -38 35 -68 40 -68 12 0 10 6 -21 68 l-29 57 -12 71 -13 71 5 86 4 87 -7 0
c-3 0 -9 -10 -13 -22z"/>
<path d="M91439 48708 c-68 -78 -153 -178 -188 -223 -35 -44 -124 -141 -198
-216 -73 -75 -133 -141 -133 -145 0 -5 54 45 121 111 l121 120 81 100 c73 91
242 288 305 357 14 15 23 30 20 33 -2 3 -61 -59 -129 -137z"/>
<path d="M30590 48664 c0 -16 5 -132 11 -259 l12 -230 9 -15 9 -15 -6 65 c-2
36 -10 157 -16 270 -6 113 -13 207 -15 209 -2 2 -4 -9 -4 -25z"/>
<path d="M34817 48655 l-228 -13 -7 -7 -7 -8 100 7 c55 3 164 9 243 12 l142 7
0 8 c0 5 -3 8 -7 8 -5 -1 -111 -7 -236 -14z"/>
<path d="M34098 48616 l-206 -11 -8 -8 -8 -8 89 6 c50 3 170 10 269 15 98 5
181 12 184 15 7 6 -61 5 -320 -9z"/>
<path d="M34822 48614 l-224 -12 -6 -7 -7 -8 100 6 c55 4 162 10 238 13 l137
7 0 8 c0 5 -3 8 -7 8 -5 -1 -108 -7 -231 -15z"/>
<path d="M34480 48590 l0 -10 18 0 c9 0 24 5 32 10 l15 10 -32 0 -33 0 0 -10z"/>
<path d="M34088 48576 l-196 -11 -9 -8 -8 -9 80 6 c44 4 168 11 275 17 107 5
196 12 199 15 6 6 -115 3 -341 -10z"/>
<path d="M11822 48558 c9 -13 58 -88 111 -168 52 -80 105 -154 118 -165 l24
-20 -21 25 c-12 14 -70 98 -129 188 -58 89 -109 162 -112 162 -3 0 1 -10 9
-22z"/>
<path d="M33163 48527 l-193 -9 0 -10 0 -9 18 5 c9 2 105 8 213 11 l197 7 13
9 14 9 -35 -2 c-19 -1 -122 -6 -227 -11z"/>
<path d="M91057 48329 c-98 -104 -174 -189 -170 -189 11 0 329 334 343 360 6
11 9 20 8 19 -2 0 -83 -85 -181 -190z"/>
<path d="M33961 47798 c54 -369 91 -560 105 -545 2 2 -6 49 -19 103 l-24 99
-48 338 -48 337 -7 0 -7 0 48 -332z"/>
<path d="M75980 47872 c0 -38 7 -55 19 -47 l7 4 -4 40 -4 41 -9 0 -9 0 0 -38z"/>
<path d="M90245 47389 l-350 -400 -52 -92 -52 -91 -26 -14 c-34 -17 -26 -27 9
-11 l27 13 55 97 55 98 337 383 c185 211 343 392 351 401 l13 17 -8 0 c-5 -1
-166 -181 -359 -401z"/>
<path d="M17324 47402 c4 -4 49 -14 99 -24 l92 -17 21 -26 c11 -14 26 -42 34
-63 24 -67 41 -104 46 -100 2 3 -10 38 -27 79 l-31 74 -22 23 -22 23 -60 13
c-32 8 -76 16 -98 19 l-38 6 6 -7z"/>
<path d="M37327 47384 c-114 -7 -213 -15 -220 -18 l-12 -4 35 -1 c68 -1 502
28 508 33 l5 6 -54 -1 c-30 -1 -148 -8 -262 -15z"/>
<path d="M31876 47205 c4 -71 10 -170 14 -220 l8 -90 -5 205 -5 205 -9 15 -8
15 5 -130z"/>
<path d="M18183 47116 c-111 -45 -205 -86 -210 -90 l-8 -9 15 5 c40 15 406
162 409 165 21 17 -34 -2 -206 -71z"/>
<path d="M20701 47103 c-22 -71 -62 -292 -60 -334 1 -13 14 48 30 136 l28 160
20 53 19 52 -8 0 c-4 0 -17 -30 -29 -67z"/>
<path d="M39860 46995 l12 -15 -6 -15 -5 -15 9 0 10 0 0 30 0 30 -16 0 -16 0
12 -15z"/>
<path d="M32513 46917 l-173 -9 0 -10 0 -9 18 5 c9 2 91 8 182 12 91 3 185 10
210 14 l45 8 -55 -1 c-30 0 -133 -5 -227 -10z"/>
<path d="M29433 46793 c9 -2 23 -2 30 0 l12 5 -30 0 -30 0 18 -5z"/>
<path d="M29110 46747 c-199 -8 -230 -11 -219 -20 7 -6 571 21 577 27 l5 6
-74 -2 c-41 -1 -171 -5 -289 -11z"/>
<path d="M24457 46412 l-17 -19 0 -27 0 -28 13 4 12 5 3 21 c2 11 10 26 18 32
8 7 14 16 14 21 0 15 -26 10 -43 -9z"/>
<path d="M93091 46095 l15 -15 75 -13 76 -14 24 -16 23 -17 51 0 50 0 63 32
c34 18 62 35 62 39 0 4 -30 -8 -67 -27 l-68 -34 -37 0 -37 0 -35 21 -35 20
-68 10 -68 10 -9 9 c-6 6 -15 10 -20 10 l-10 0 15 -15z"/>
<path d="M93060 46071 c0 -4 16 -15 35 -24 l36 -17 32 0 32 0 53 -25 54 -25
54 0 54 0 71 36 c93 47 83 55 -12 9 l-73 -35 -41 0 -40 0 -47 25 -47 25 -38 0
-38 0 -42 20 -43 19 0 -8z"/>
<path d="M57747 45983 l-5 -8 91 -193 91 -192 8 8 9 9 -87 184 c-48 101 -90
188 -94 192 l-8 9 -5 -9z"/>
<path d="M81344 45948 l-7 -11 11 7 c7 4 12 9 12 12 0 8 -9 4 -16 -8z"/>
<path d="M49380 45880 c0 -5 4 -10 9 -10 6 0 13 5 16 10 l6 10 -15 0 -16 0 0
-10z"/>
<path d="M49411 45718 c45 -90 88 -171 96 -180 l16 -18 8 5 7 5 -31 54 c-18
29 -59 108 -92 174 l-59 122 -13 0 -13 0 81 -162z"/>
<path d="M81300 45792 c-12 -38 -25 -74 -30 -81 l-7 -13 -34 -8 -34 -8 32 -1
32 -1 14 14 14 14 22 72 c13 39 21 74 18 76 -3 3 -15 -26 -27 -64z"/>
<path d="M81251 45625 c0 -22 -3 -53 -6 -70 l-6 -30 16 35 16 34 -10 36 -9 35
-1 -40z"/>
<path d="M40718 45557 l-178 -32 0 -7 c0 -12 24 -10 200 22 91 17 173 30 183
30 l17 0 0 -30 0 -30 10 0 10 0 0 24 c0 13 -3 31 -6 40 l-6 16 -27 -1 c-14 -1
-106 -15 -203 -32z"/>
<path d="M49653 45533 l7 -6 7 6 6 7 -13 0 -13 0 6 -7z"/>
<path d="M52140 45369 c0 -13 175 -407 186 -418 2 -2 6 -2 9 1 5 4 -179 415
-191 427 -2 2 -4 -2 -4 -10z"/>
<path d="M94525 44539 c-39 -28 -101 -73 -138 -101 -38 -27 -66 -52 -63 -55 5
-5 286 194 286 203 0 11 -21 0 -85 -47z"/>
<path d="M26556 44381 c15 -16 396 -192 407 -188 9 3 -394 197 -409 197 l-8 0
10 -9z"/>
<path d="M88127 44192 c-32 -70 -65 -136 -73 -147 l-15 -20 -9 16 c-8 14 -49
62 -43 51 1 -3 -6 -17 -16 -31 -9 -14 -34 -56 -54 -92 l-36 -66 115 -184 c64
-101 119 -186 122 -189 18 -17 -21 52 -115 202 l-107 170 44 84 c25 46 47 84
50 84 3 0 14 -14 24 -31 l18 -30 11 3 12 4 52 104 c64 128 94 200 85 200 -4 0
-33 -58 -65 -128z"/>
<path d="M87897 44014 c-26 -46 -47 -90 -47 -97 0 -6 23 30 51 81 28 51 49 95
47 97 -2 2 -25 -34 -51 -81z"/>
<path d="M52535 44020 l-6 -9 97 -206 c54 -113 100 -205 103 -205 3 0 12 4 19
8 l12 8 -97 207 -98 207 -12 0 c-6 0 -15 -4 -18 -10z"/>
<path d="M51275 43333 c7 -38 61 -385 86 -553 20 -140 37 -215 45 -207 3 2 0
26 -6 53 -6 27 -27 159 -46 294 -19 135 -41 286 -49 335 -8 50 -15 93 -15 98
0 4 -4 7 -10 7 l-9 0 4 -27z"/>
<path d="M51300 43340 l0 -13 7 6 6 7 -6 7 -7 6 0 -13z"/>
<path d="M50994 43300 l-241 -38 -344 -97 -344 -97 -10 -10 -10 -11 15 5 c8 3
166 48 350 101 l335 96 250 37 250 38 10 8 9 8 -14 -1 c-8 -1 -124 -18 -256
-39z"/>
<path d="M52081 43032 c-1 -17 189 -395 195 -389 3 3 -40 94 -95 203 -55 110
-100 193 -100 186z"/>
<path d="M50650 42660 l0 -180 10 0 10 0 0 180 0 180 -10 0 -10 0 0 -180z"/>
<path d="M31771 42498 l-164 -168 7 -7 7 -7 120 119 c134 133 202 211 197 223
l-3 8 -164 -168z"/>
<path d="M46240 42431 c-152 -80 -319 -170 -372 -200 l-97 -54 -5 -12 c-2 -7
-1 -36 4 -66 l8 -54 1 60 1 60 123 69 c67 38 232 127 367 198 135 72 247 132
249 134 21 21 -43 -10 -279 -135z"/>
<path d="M91433 42461 c-111 -58 -205 -110 -210 -115 -7 -8 404 200 416 210 2
2 2 5 0 7 -2 2 -95 -44 -206 -102z"/>
<path d="M51044 42515 c-181 -23 -337 -45 -345 -48 l-14 -5 15 -1 c31 -1 721
87 727 93 l6 6 -29 -1 c-16 -1 -178 -20 -360 -44z"/>
<path d="M45971 42240 c-79 -44 -149 -84 -155 -89 l-11 -10 5 -48 4 -48 6 50
5 50 138 76 c121 67 172 99 157 99 -3 0 -70 -36 -149 -80z"/>
<path d="M31124 41833 c-70 -98 -131 -183 -136 -190 l-9 -11 9 -6 8 -5 135
187 c74 102 136 190 137 194 l4 8 -10 0 -10 0 -128 -177z"/>
<path d="M58845 41040 l240 -5 15 -8 15 -8 -19 15 -20 16 -235 -2 -236 -2 240
-6z"/>
<path d="M49625 40873 c-206 -103 -201 -100 -193 -109 l6 -5 196 98 c169 84
220 115 189 112 -5 0 -93 -43 -198 -96z"/>
<path d="M94187 39905 c75 -101 139 -183 141 -180 6 5 -260 365 -270 365 -4 0
54 -83 129 -185z"/>
<path d="M84815 39969 c5 -8 50 -75 100 -149 51 -74 167 -260 260 -412 93
-153 172 -278 176 -278 20 0 -501 826 -533 846 l-11 7 8 -14z"/>
<path d="M84780 39956 c0 -4 39 -65 87 -134 47 -70 165 -257 261 -417 191
-317 180 -300 186 -294 11 10 -472 784 -525 844 l-9 9 0 -8z"/>
<path d="M42640 39349 l-135 -49 -310 -71 c-341 -77 -349 -79 -342 -85 3 -3
146 27 319 65 l315 71 144 50 c79 28 145 53 148 55 16 17 -20 7 -139 -36z"/>
<path d="M51565 39082 l10 -10 155 -36 c85 -19 373 -76 640 -126 267 -50 493
-93 503 -96 l17 -5 0 8 0 8 -502 94 c-427 80 -728 142 -813 167 l-20 6 10 -10z"/>
<path d="M59970 38783 c0 -4 28 -53 62 -111 l61 -104 79 -69 c43 -38 83 -69
89 -69 l11 0 -56 48 c-77 66 -124 123 -185 225 -49 81 -61 97 -61 80z"/>
<path d="M87450 38111 c-500 -303 -666 -407 -676 -423 l-7 -11 14 8 c8 5 61
39 119 75 58 37 308 190 555 340 248 149 452 274 454 276 28 28 -74 -32 -459
-265z"/>
<path d="M34628 38144 c-5 -4 -8 -25 -8 -46 l0 -38 15 0 c25 0 123 -52 290
-154 235 -145 252 -156 343 -241 46 -43 85 -75 88 -73 2 3 -40 45 -93 95 l-98
90 -196 120 c-108 67 -226 135 -262 151 l-66 30 -3 37 -3 37 -7 -8z"/>
<path d="M62331 38035 l-57 -55 -65 -29 c-36 -16 -94 -37 -130 -46 -35 -9 -68
-21 -74 -27 l-10 -10 25 7 c14 5 54 16 90 25 36 10 86 27 111 39 l47 21 68 64
c38 36 65 65 61 66 -5 0 -34 -25 -66 -55z"/>
<path d="M60410 37699 c141 -133 230 -212 234 -208 5 5 -301 289 -311 289 -4
-1 30 -37 77 -81z"/>
<path d="M90846 37733 c-4 -22 -13 -48 -19 -57 l-12 -16 -110 -44 c-60 -25
-103 -45 -95 -45 8 0 62 19 120 43 l105 43 13 39 13 38 -4 21 -3 20 -8 -42z"/>
<path d="M86654 37568 c-67 -46 -148 -102 -180 -126 -33 -24 -191 -131 -353
-238 -318 -210 -307 -202 -300 -209 3 -2 34 15 70 39 35 24 183 122 329 219
146 96 294 198 329 226 35 28 104 77 153 108 48 30 88 57 88 59 0 12 -27 -4
-136 -78z"/>
<path d="M89730 37586 c0 -11 213 -316 218 -312 2 2 -45 73 -103 158 -119 170
-115 164 -115 154z"/>
<path d="M86157 37278 c-125 -83 -226 -153 -223 -155 3 -4 439 278 461 298 l9
9 -9 0 c-6 -1 -113 -69 -238 -152z"/>
<path d="M53980 37306 c0 -5 -69 -375 -74 -399 l-4 -18 11 4 11 3 31 170 c18
93 35 186 39 207 l7 37 -11 0 c-5 0 -10 -2 -10 -4z"/>
<path d="M60245 37239 c-27 -11 -75 -25 -105 -30 -70 -13 -254 -69 -247 -76 3
-2 54 9 114 25 59 17 124 33 143 37 40 7 140 44 155 57 l9 8 -9 -1 c-6 0 -32
-9 -60 -20z"/>
<path d="M50954 37109 c19 -27 285 -279 294 -279 7 1 -298 300 -306 300 -2 0
3 -9 12 -21z"/>
<path d="M51290 36738 c120 -115 260 -241 265 -236 3 2 -61 65 -142 139 -157
144 -230 202 -123 97z"/>
<path d="M40763 36607 l-143 -30 0 -8 0 -8 13 4 c31 10 248 55 267 55 l20 0 1
-32 c1 -18 5 -44 10 -58 l8 -25 -5 60 c-6 62 -10 76 -22 74 -4 0 -71 -15 -149
-32z"/>
<path d="M40365 36562 c-219 -45 -232 -49 -224 -56 6 -5 446 88 455 97 l7 7
-9 -1 c-5 0 -108 -22 -229 -47z"/>
<path d="M40020 36458 c-47 -5 -104 -11 -127 -14 l-43 -5 2 -77 2 -77 3 73 4
72 12 0 c45 0 230 22 249 30 l23 9 -20 -1 c-11 0 -58 -5 -105 -10z"/>
<path d="M41044 36015 c3 -16 15 -97 26 -180 24 -174 30 -208 36 -202 3 3 -7
92 -22 198 l-27 194 -10 10 -9 10 6 -30z"/>
<path d="M34791 35943 c0 -11 339 -295 339 -285 0 8 -273 245 -322 280 l-18
13 1 -8z"/>
<path d="M42585 35714 c-44 -7 -144 -22 -222 -35 l-143 -21 0 -14 0 -14 13 0
c33 1 437 67 444 73 l7 7 -10 9 -9 8 -80 -13z"/>
<path d="M41769 35677 l13 -17 -4 -25 -5 -25 9 0 9 0 -3 37 -3 36 -15 5 -15 5
14 -16z"/>
<path d="M84636 35479 c-137 -87 -244 -159 -238 -159 6 0 121 70 255 155 l244
155 39 0 39 -1 26 -22 26 -22 53 -95 c29 -52 82 -136 119 -185 36 -50 100
-146 140 -213 41 -67 76 -120 79 -118 7 7 -141 247 -213 346 -34 47 -86 128
-115 180 l-52 95 -27 22 -26 22 -50 0 -50 0 -249 -160z"/>
<path d="M84916 35603 c-20 -5 -1295 -824 -1741 -1118 -148 -98 -280 -184
-293 -191 l-23 -12 8 -5 8 -5 300 198 c165 108 623 405 1018 658 l719 462 24
0 24 0 20 -20 c11 -11 33 -46 49 -78 16 -32 56 -94 88 -137 32 -44 142 -215
242 -380 101 -165 198 -318 214 -340 17 -22 32 -42 34 -44 2 -2 5 -2 8 1 l6 5
-24 29 c-14 16 -110 170 -216 341 -105 172 -217 348 -248 390 -32 43 -75 111
-96 150 l-38 72 -22 16 c-22 15 -28 16 -61 8z"/>
<path d="M33990 35378 c-136 -151 -167 -188 -157 -188 4 0 105 111 280 307 11
13 18 25 16 27 -2 3 -65 -63 -139 -146z"/>
<path d="M64280 35526 c0 -6 153 -102 225 -141 39 -21 85 -52 103 -68 l32 -31
0 10 c0 20 -57 63 -160 119 -58 32 -124 70 -147 86 -39 27 -53 34 -53 25z"/>
<path d="M79815 35429 l-130 -69 -128 -41 c-70 -23 -125 -44 -123 -47 3 -2 56
13 118 33 l113 38 148 74 c129 64 166 86 140 82 -5 -1 -66 -32 -138 -70z"/>
<path d="M41301 35465 c0 -5 9 -28 19 -50 l19 -40 0 15 c0 8 -8 31 -19 50 -11
19 -19 31 -19 25z"/>
<path d="M40419 35407 l-10 -22 10 -25 10 -25 -1 36 c-1 20 2 41 6 47 4 7 5
12 1 12 -3 0 -10 -10 -16 -23z"/>
<path d="M79400 35277 c0 -5 54 -163 103 -302 19 -55 40 -120 46 -145 l10 -45
-5 55 -5 55 -65 177 c-35 97 -64 182 -64 187 0 5 -4 13 -10 16 -5 3 -10 4 -10
2z"/>
<path d="M80300 34914 c0 -4 53 -106 119 -228 65 -121 144 -270 176 -331 32
-60 60 -112 62 -115 3 -3 47 17 99 45 l94 49 0 12 0 12 -91 -50 c-49 -28 -91
-49 -93 -47 -6 9 -181 329 -266 487 -84 158 -100 183 -100 166z"/>
<path d="M33562 34732 c-41 -113 -92 -289 -91 -316 l0 -21 49 164 c28 91 57
184 66 208 9 24 15 45 12 48 -2 2 -18 -35 -36 -83z"/>
<path d="M59447 34514 c-103 -64 -186 -119 -183 -121 3 -3 87 46 188 108 l182
113 21 -2 20 -1 15 -19 c9 -10 48 -107 89 -216 40 -108 76 -195 78 -192 5 4
-140 399 -155 423 l-8 13 -29 5 -30 5 -188 -116z"/>
<path d="M85305 34319 c-104 -65 -191 -123 -193 -129 l-4 -10 11 0 c8 0 374
221 390 236 3 3 0 8 -5 13 l-9 9 -190 -119z"/>
<path d="M30084 34310 c6 -25 399 -820 403 -816 2 2 -89 189 -202 417 -113
228 -203 407 -201 399z"/>
<path d="M82766 33708 c16 -27 267 -298 272 -294 4 5 -266 306 -275 306 -2 0
-1 -6 3 -12z"/>
<path d="M64654 33242 l-11 -18 195 -114 c107 -63 199 -116 203 -118 4 -2 12
5 18 16 l10 18 -199 117 c-110 64 -200 117 -202 117 -2 0 -8 -8 -14 -18z"/>
<path d="M79130 33007 l0 -12 256 -41 255 -40 6 9 5 8 -6 6 c-7 7 -456 82
-493 83 l-23 0 0 -13z"/>
<path d="M39840 32981 c0 -5 5 -13 10 -16 l10 -6 0 -58 0 -58 22 -29 c52 -69
148 -166 148 -150 0 3 -34 44 -75 91 l-75 86 -5 22 c-3 12 -6 44 -7 71 l-3 49
-12 5 -13 4 0 -11z"/>
<path d="M77915 32900 c-93 -10 -171 -18 -172 -19 -2 -1 -3 -10 -3 -21 l0 -20
38 5 c20 3 105 12 188 20 l151 14 141 -6 c78 -3 141 -7 140 -9 -2 -1 -113 -8
-248 -14 l-245 -11 -169 -19 c-93 -11 -171 -22 -174 -25 l-6 -5 10 -10 10 -10
169 20 170 19 290 10 290 9 165 -29 c91 -15 237 -46 325 -68 l160 -40 270 -92
270 -92 94 -44 c103 -47 111 -49 111 -29 l0 14 -87 42 -88 42 -230 80 c-305
105 -418 139 -615 183 l-164 37 -81 7 -80 8 58 2 58 1 6 15 c3 9 4 18 1 20 -2
2 -89 11 -193 20 l-190 15 -100 -1 c-55 -1 -176 -10 -270 -19z m598 -47 c-18
-2 -48 -2 -65 0 l-33 4 65 0 65 0 -32 -4z"/>
<path d="M78888 32813 l13 -5 6 6 6 6 -19 -1 -19 -1 13 -5z"/>
<path d="M78938 32803 l13 -5 6 6 6 6 -19 -1 -19 -1 13 -5z"/>
<path d="M78988 32793 l13 -5 6 6 6 6 -19 -1 -19 -1 13 -5z"/>
<path d="M79420 32681 c8 -5 92 -38 186 -75 l170 -67 33 -29 c18 -17 38 -30
44 -30 l12 0 -35 34 -35 34 -100 42 c-108 45 -262 100 -279 100 l-11 -1 15 -8z"/>
<path d="M42210 32240 l0 -13 7 6 6 7 -6 7 -7 6 0 -13z"/>
<path d="M98818 31737 l-27 -11 -10 -29 -11 -29 29 31 29 31 29 0 28 0 -15 10
c-17 11 -16 11 -52 -3z"/>
<path d="M98907 31692 c78 -120 270 -392 276 -392 4 0 -33 60 -83 133 -51 72
-115 167 -144 209 -28 43 -55 78 -59 78 l-9 0 19 -28z"/>
<path d="M95307 26779 l-187 -138 7 -4 8 -5 170 124 c174 128 202 151 194 157
-2 3 -88 -58 -192 -134z"/>
<path d="M78502 25775 l3 -15 160 -77 c88 -41 184 -84 213 -94 l53 -18 -3 16
-3 16 -50 17 c-27 10 -108 45 -180 80 -71 34 -145 69 -163 77 l-34 14 4 -16z"/>
<path d="M19061 21591 l-204 -26 -4 -10 -3 -11 222 28 c123 15 224 27 226 28
1 0 2 5 2 10 l0 10 -17 -1 c-10 -1 -110 -13 -222 -28z"/>
<path d="M89600 21441 c0 -5 23 -104 51 -221 l51 -212 8 9 9 8 -52 213 -51
212 -8 0 c-4 0 -8 -4 -8 -9z"/>
<path d="M89557 20836 l-135 -124 5 -6 6 -6 90 83 c49 45 110 101 136 123 l46
42 -6 6 -7 7 -135 -125z"/>
<path d="M90336 19932 l-6 -10 56 -204 c31 -111 58 -205 60 -207 2 -2 7 -2 10
1 l5 6 -57 208 c-31 115 -58 210 -59 212 -2 2 -6 -1 -9 -6z"/>
<path d="M14903 18071 l-212 -26 -8 -9 -8 -8 30 5 c17 4 113 16 215 27 102 12
196 25 210 30 l25 8 -20 0 c-11 0 -115 -12 -232 -27z"/>
<path d="M92930 16991 c0 -9 646 -584 664 -590 19 -6 -39 47 -356 328 -170
149 -308 267 -308 262z"/>
<path d="M97576 14183 c-169 -197 -306 -362 -306 -367 l0 -10 9 10 c46 50 611
716 611 719 0 3 -2 5 -4 5 -3 0 -142 -161 -310 -357z"/>
<path d="M4056 11622 l-5 -9 132 -119 c72 -65 151 -136 174 -157 l41 -38 6 9
5 9 -132 119 c-72 65 -151 136 -174 157 l-41 38 -6 -9z"/>
<path d="M98936 10471 l-6 -9 176 -161 c97 -89 179 -159 182 -157 8 8 -10 27
-184 186 l-163 150 -5 -9z"/>
<path d="M24715 4032 c-55 -69 -115 -145 -133 -168 l-34 -43 7 -11 6 -10 126
157 c69 87 131 164 136 171 l10 13 -9 8 -9 9 -100 -126z"/>
<path d="M24872 4078 l5 -13 86 -38 86 -38 83 -14 82 -15 9 9 9 9 -74 11 -73
12 -55 21 c-30 12 -77 32 -104 45 -58 27 -59 27 -54 11z"/>
<path d="M12911 2962 c0 -7 -19 -114 -41 -239 -22 -124 -38 -228 -36 -231 7
-6 10 9 51 247 l36 203 -4 17 -5 16 -1 -13z"/>
<path d="M22256 2892 l-5 -8 351 -280 c194 -153 441 -350 549 -436 l198 -157
5 8 6 8 -508 404 c-279 222 -526 418 -549 437 l-41 33 -6 -9z"/>
</g>
</svg>
