<?xml version="1.0" standalone="no"?>
<!DOCTYPE svg PUBLIC "-//W3C//DTD SVG 20010904//EN"
 "http://www.w3.org/TR/2001/REC-SVG-20010904/DTD/svg10.dtd">
<svg version="1.0" xmlns="http://www.w3.org/2000/svg"
 width="7500.000000pt" height="7500.000000pt" viewBox="0 0 7500.000000 7500.000000"
 preserveAspectRatio="xMidYMid meet">
<metadata>
Created by potrace 1.16, written by Peter Selinger 2001-2019
</metadata>
<g transform="translate(0.000000,7500.000000) scale(0.075000,-0.075000)"
fill="#000000" stroke="none">
<path d="M90070 99695 l0 -15 23 0 23 0 12 -12 12 -12 11 11 11 11 -23 16 -23
16 -23 0 -23 0 0 -15z"/>
<path d="M83713 98873 l7 -11 77 -11 c43 -6 167 -15 275 -21 l196 -9 141 6
141 6 0 6 0 6 -247 -3 -248 -3 -155 15 c-85 8 -164 18 -174 22 l-19 7 6 -10z"/>
<path d="M27190 98231 l0 -11 195 -130 195 -130 0 12 0 13 -166 110 c-92 61
-179 118 -195 128 l-29 19 0 -11z"/>
<path d="M98906 94231 c5 -4 103 -45 217 -91 l208 -82 6 5 6 6 -24 10 c-13 5
-109 43 -214 85 -104 42 -194 76 -199 76 l-10 0 10 -9z"/>
<path d="M56380 92411 c-57 -104 -103 -192 -102 -197 1 -5 7 -9 13 -9 l11 0
104 185 c57 102 102 189 101 194 -2 6 -7 11 -13 13 l-9 2 -105 -188z"/>
<path d="M25670 91562 c0 -9 418 -127 425 -121 3 3 -62 24 -143 47 -81 23
-177 51 -214 61 l-68 20 0 -7z"/>
<path d="M38660 89432 c0 -4 26 -33 58 -64 l57 -57 117 -55 118 -55 60 -42 60
-43 7 8 8 8 -35 29 -35 29 -155 79 -155 79 -45 46 c-42 44 -60 55 -60 38z"/>
<path d="M85005 88374 c-53 -102 -95 -188 -92 -190 2 -2 48 81 101 186 54 104
95 190 92 190 -2 0 -48 -84 -101 -186z"/>
<path d="M79440 88303 c0 -5 -18 -111 -40 -237 -36 -209 -40 -250 -25 -234 5
4 85 449 85 471 0 4 -4 7 -10 7 -5 0 -10 -3 -10 -7z"/>
<path d="M80690 87893 l0 -8 199 -69 200 -68 13 5 13 5 -15 6 c-45 17 -393
136 -401 136 -5 0 -9 -3 -9 -7z"/>
<path d="M80670 87843 c0 -5 91 -39 201 -78 111 -38 206 -72 212 -74 l10 -3
-5 12 -4 13 -198 68 c-203 71 -216 74 -216 62z"/>
<path d="M84305 86890 l-49 -110 -19 0 c-10 0 -55 9 -99 21 -44 11 -82 18 -84
16 -3 -2 40 -16 93 -30 l98 -27 12 13 c15 15 106 218 100 223 -2 3 -26 -45
-52 -106z"/>
<path d="M88636 86233 c-31 -103 -106 -397 -103 -406 2 -6 29 85 61 202 31
117 55 215 52 218 -2 2 -7 -4 -10 -14z"/>
<path d="M60840 85338 l0 -14 231 -23 230 -23 7 7 6 6 -12 8 c-6 4 -96 15
-199 25 -104 9 -205 20 -225 23 l-38 6 0 -15z"/>
<path d="M62100 85314 l-85 -12 -81 -1 c-45 -1 -96 -4 -113 -7 l-31 -6 0 -11
0 -10 128 7 c70 4 174 14 231 22 58 8 106 14 108 14 2 0 3 5 3 10 l0 10 -37
-1 c-21 -1 -76 -7 -123 -15z"/>
<path d="M62080 85263 l-105 -14 -332 -2 -333 -1 0 -7 0 -7 63 -7 62 -8 247 1
247 0 171 18 170 18 0 13 0 13 -42 -1 c-24 -1 -90 -8 -148 -16z"/>
<path d="M88152 84406 c-23 -85 -42 -163 -41 -173 l1 -18 14 45 c8 25 30 102
48 173 l34 127 -7 0 -7 0 -42 -154z"/>
<path d="M80076 84521 c10 -11 409 -151 428 -151 l11 1 -17 9 c-17 10 -415
150 -426 150 -3 0 -2 -4 4 -9z"/>
<path d="M80066 84482 c5 -5 95 -38 199 -75 105 -36 199 -68 210 -73 l20 -7
-10 10 c-9 10 -406 153 -422 153 -4 0 -3 -4 3 -8z"/>
<path d="M75282 81799 c-40 -117 -71 -214 -68 -216 5 -5 147 408 144 419 -2 5
-36 -87 -76 -203z"/>
<path d="M95538 80478 c-130 -183 -234 -335 -232 -337 5 -6 -19 -39 247 337
130 182 232 332 228 332 -4 0 -114 -150 -243 -332z"/>
<path d="M75620 77939 c-101 -81 -186 -153 -188 -158 l-4 -11 12 0 c8 0 319
242 375 291 l9 9 -9 9 -10 8 -185 -148z"/>
<path d="M0 77256 l0 -15 71 -60 72 -60 10 6 11 6 -45 40 c-24 21 -61 53 -81
69 l-38 30 0 -16z"/>
<path d="M15987 76627 l-3 -11 225 -104 c124 -57 309 -142 410 -188 l184 -85
10 10 10 10 -79 36 c-43 20 -144 66 -224 102 -80 36 -231 105 -337 153 l-192
88 -4 -11z"/>
<path d="M74690 76371 l0 -9 83 -43 c45 -23 136 -73 201 -111 66 -38 123 -67
128 -66 l10 4 -134 75 c-73 42 -168 95 -210 118 l-78 42 0 -10z"/>
<path d="M1290 76318 l0 -13 48 -25 c26 -14 115 -63 199 -108 83 -45 154 -82
157 -82 3 0 6 6 6 13 l0 13 -197 104 c-109 58 -201 107 -205 108 l-8 4 0 -14z"/>
<path d="M36490 73269 c0 -8 4 -19 9 -24 5 -6 18 -37 29 -70 l20 -60 18 -137
18 -138 8 0 8 0 0 19 c0 11 -9 82 -20 158 l-20 138 -17 45 c-9 25 -24 54 -35
65 l-18 19 0 -15z"/>
<path d="M4442 66820 c2 -5 81 -65 177 -134 l174 -125 9 5 9 6 -23 17 c-77 58
-336 241 -342 241 -4 0 -6 -4 -4 -10z"/>
<path d="M49020 65698 c-69 -116 -126 -218 -128 -227 -2 -9 49 72 113 179 65
107 126 210 137 228 l20 32 -9 0 c-4 0 -64 -95 -133 -212z"/>
<path d="M40069 64083 c-7 -16 -15 -31 -17 -35 -2 -5 0 -8 5 -8 5 0 17 16 26
35 l17 35 -9 0 c-4 0 -14 -12 -22 -27z"/>
<path d="M41450 63743 l-24 -5 -79 -65 c-43 -36 -76 -68 -73 -70 3 -3 38 23
78 56 l73 62 24 6 25 6 61 -13 c33 -7 71 -14 85 -16 l25 -4 -55 19 c-69 23
-108 30 -140 24z"/>
<path d="M2257 63694 l-6 -6 160 -141 c88 -78 165 -144 171 -146 l11 -3 -4 10
c-4 10 -316 292 -323 292 -1 0 -5 -3 -9 -6z"/>
<path d="M41197 63494 c-80 -69 -95 -84 -83 -84 3 0 42 32 87 70 45 39 82 70
84 68 16 -22 212 -238 227 -250 11 -10 25 -18 32 -18 l11 0 -21 18 c-16 13
-141 149 -243 264 l-7 8 -87 -76z"/>
<path d="M40490 63495 l-12 -14 94 -108 c113 -131 771 -878 804 -913 l24 -24
14 14 14 15 -280 315 c-154 173 -358 406 -453 517 -96 110 -178 204 -183 207
l-10 6 -12 -15z"/>
<path d="M3507 63361 l-17 -127 0 -132 0 -132 10 0 10 0 0 108 0 108 15 119
c8 66 17 132 20 147 l4 26 -13 5 -13 5 -16 -127z"/>
<path d="M41996 63338 c18 -31 75 -101 159 -194 94 -105 321 -364 342 -392
l13 -16 6 7 7 6 -89 102 c-49 56 -147 166 -217 243 -71 78 -147 167 -170 198
-23 32 -46 58 -50 58 l-8 0 7 -12z"/>
<path d="M16957 63143 c-4 -3 -7 -10 -7 -15 l0 -8 240 0 240 0 0 15 0 15 -233
0 -234 0 -6 -7z"/>
<path d="M41545 63140 c3 -5 11 -10 16 -10 l10 0 -6 10 c-3 6 -11 10 -16 10
l-10 0 6 -10z"/>
<path d="M2922 63108 c3 -7 76 -76 164 -154 l160 -141 53 -7 53 -7 13 11 12
10 17 -6 17 -7 35 19 c34 19 39 25 27 37 l-6 7 -34 -21 -34 -21 -65 0 -65 1
-22 14 c-12 8 -89 74 -170 146 -81 72 -150 131 -153 131 -3 0 -4 -6 -2 -12z"/>
<path d="M51253 63063 c4 -6 35 -22 69 -36 35 -14 111 -46 171 -71 l107 -45 0
8 0 8 -157 66 c-87 36 -167 69 -177 73 l-19 7 6 -10z"/>
<path d="M42145 62449 c-228 -196 -245 -212 -245 -238 l1 -16 14 26 14 25 220
188 c122 104 221 192 221 197 0 5 -1 9 -2 8 -2 0 -102 -86 -223 -190z"/>
<path d="M42172 62420 l-222 -190 -6 -25 -6 -25 98 -116 c55 -64 111 -131 126
-148 14 -17 28 -29 31 -26 3 3 -50 70 -118 149 l-122 144 4 18 5 19 219 186
c186 158 234 204 216 204 -2 0 -103 -85 -225 -190z"/>
<path d="M56590 62001 l-114 -138 -18 -52 -18 -52 10 -40 11 -39 10 0 9 0 -7
28 c-4 15 -7 41 -6 58 l1 32 17 33 c10 18 66 91 126 163 102 122 120 147 102
145 -5 0 -60 -62 -123 -138z"/>
<path d="M57331 61896 c3 -4 100 -46 447 -197 l42 -18 0 7 c0 4 -107 53 -238
110 -210 91 -266 112 -251 98z"/>
<path d="M57320 61862 c0 -10 470 -214 482 -210 l10 4 -64 26 c-34 15 -145 62
-245 107 -101 44 -183 77 -183 73z"/>
<path d="M60276 61691 c5 -5 67 -35 139 -65 l129 -56 11 4 10 4 -25 10 c-14 5
-78 33 -143 61 -122 52 -138 58 -121 42z"/>
<path d="M56277 61627 l-19 -32 26 24 25 24 -5 8 c-7 12 -7 13 -27 -24z"/>
<path d="M58305 61431 c13 -13 389 -180 394 -175 2 2 2 5 0 7 -4 4 -313 141
-369 164 l-35 15 10 -11z"/>
<path d="M85845 60924 c10 -16 57 -90 103 -164 110 -174 142 -215 304 -390 75
-80 157 -172 183 -205 27 -33 89 -103 139 -155 51 -52 100 -104 109 -116 l17
-21 -325 -253 c-180 -138 -324 -254 -322 -257 3 -2 148 107 323 243 175 136
326 249 336 252 l18 4 0 14 0 14 -13 0 -13 0 -105 113 c-57 61 -122 135 -144
162 -22 28 -99 114 -171 192 -176 189 -230 258 -341 437 -52 83 -99 153 -106
155 l-11 4 19 -29z"/>
<path d="M62696 60743 c4 -21 21 -112 39 -202 l32 -165 13 -4 12 -4 -5 18 c-6
20 -77 379 -77 388 0 4 -5 6 -10 6 l-11 0 7 -37z"/>
<path d="M86267 60418 c81 -90 166 -185 188 -213 58 -74 286 -315 298 -315 5
0 -37 48 -94 108 -57 59 -138 148 -179 197 -103 124 -342 385 -353 385 -5 0
58 -73 140 -162z"/>
<path d="M62595 60360 c-71 -15 -156 -33 -188 -40 -32 -6 -56 -14 -54 -17 7
-6 380 68 392 78 l9 9 -14 -1 c-8 0 -73 -13 -145 -29z"/>
<path d="M46110 59975 c-113 -113 -207 -205 -210 -204 -3 0 -36 39 -75 86 -90
112 -194 223 -208 223 l-11 0 65 -67 c36 -38 101 -110 143 -160 l77 -93 -5 -8
-5 -9 14 0 15 0 0 11 c0 6 96 104 213 218 116 114 207 207 202 207 -6 1 -102
-91 -215 -204z"/>
<path d="M61464 60083 c3 -10 21 -97 41 -193 20 -96 38 -177 42 -180 l6 -5 -6
30 c-3 17 -20 105 -38 198 l-33 167 -9 0 -8 0 5 -17z"/>
<path d="M58810 59913 c0 -6 32 -80 71 -164 39 -85 106 -239 150 -343 78 -185
98 -229 99 -213 0 19 -299 710 -316 726 -2 2 -4 0 -4 -6z"/>
<path d="M45358 59483 c66 -71 180 -187 254 -260 l133 -132 113 -80 c61 -44
112 -77 112 -72 0 4 -44 39 -97 77 l-98 68 -126 122 c-69 66 -186 185 -260
262 -74 78 -138 142 -143 142 -4 0 46 -57 112 -127z"/>
<path d="M45368 59413 c88 -93 203 -209 254 -259 l93 -91 105 -75 c58 -40 111
-78 119 -83 l14 -8 -6 10 c-4 6 -60 49 -126 97 l-119 86 -239 245 c-132 135
-243 245 -247 245 -5 0 64 -75 152 -167z"/>
<path d="M91363 59548 c7 -21 253 -344 269 -354 l11 -7 -8 14 c-9 15 -264 350
-273 359 -3 3 -2 -3 1 -12z"/>
<path d="M44350 59442 c0 -12 140 -148 183 -178 l39 -26 6 7 7 7 -25 17 c-14
9 -67 53 -117 99 -51 46 -93 79 -93 74z"/>
<path d="M59262 58779 c3 -8 18 -45 34 -84 l28 -70 15 -13 c28 -23 121 -62
351 -147 124 -46 237 -88 253 -94 l27 -11 0 8 c0 4 -109 47 -242 96 -255 94
-347 133 -378 161 l-19 17 -27 70 c-15 38 -32 72 -37 75 l-10 6 5 -14z"/>
<path d="M84010 58748 c0 -3 35 -71 77 -150 42 -78 87 -170 99 -203 l23 -60 0
16 c1 31 -26 94 -104 239 -72 135 -95 173 -95 158z"/>
<path d="M49460 58261 c0 -3 75 -35 168 -70 92 -35 188 -75 214 -87 65 -33 75
-29 13 3 -64 34 -395 163 -395 154z"/>
<path d="M60458 58230 l4 -31 -16 -18 -17 -19 -19 5 c-10 3 -26 13 -36 24
l-16 18 5 16 6 15 -9 0 -10 0 0 -23 0 -23 13 -17 12 -17 30 -6 30 -6 23 24 22
25 -6 31 c-4 18 -10 32 -14 32 l-7 0 5 -30z"/>
<path d="M83438 58095 c-2 -3 -63 -20 -135 -39 -72 -19 -139 -39 -149 -45
l-19 -12 20 5 c11 3 61 14 110 26 106 24 186 49 200 61 l9 9 -15 0 c-9 0 -18
-2 -21 -5z"/>
<path d="M55476 57784 c-104 -13 -194 -25 -200 -28 l-11 -4 20 -1 c34 -1 416
47 422 53 l6 6 -24 -1 c-13 -1 -109 -12 -213 -25z"/>
<path d="M81445 57630 c-410 -53 -524 -74 -504 -95 3 -3 55 4 115 15 60 11
237 36 394 55 157 19 302 37 323 41 l37 6 0 9 0 9 -37 -1 c-21 -1 -168 -18
-328 -39z"/>
<path d="M61643 56785 c29 -101 48 -188 63 -285 l16 -115 10 -10 10 -10 -6 30
c-3 17 -13 75 -21 130 -18 113 -53 255 -68 270 l-9 10 5 -20z"/>
<path d="M63608 56343 c24 -131 45 -240 48 -242 2 -2 6 -2 9 1 l6 6 -43 232
-43 233 -11 4 -10 3 44 -237z"/>
<path d="M54413 56413 l-33 -4 0 -10 0 -9 29 0 c35 0 61 9 61 21 l0 9 -12 -2
c-7 0 -28 -3 -45 -5z"/>
<path d="M81625 56225 c-93 -23 -181 -48 -195 -54 l-25 -12 25 6 c100 23 385
97 389 100 9 10 -30 2 -194 -40z"/>
<path d="M64346 56231 l-18 -20 4 -11 3 -11 23 30 23 31 -9 0 c-5 0 -17 -9
-26 -19z"/>
<path d="M25510 55923 c0 -10 360 -236 367 -230 3 4 -262 176 -354 231 l-13 7
0 -8z"/>
<path d="M25492 55889 c4 -13 345 -229 361 -229 7 0 -15 17 -48 38 -33 21
-118 75 -188 120 l-129 82 4 -11z"/>
<path d="M46936 55712 l-5 -9 33 -109 c19 -60 46 -136 61 -169 15 -33 36 -79
46 -102 l18 -43 16 6 15 6 0 13 c0 7 -18 52 -40 100 -22 47 -56 138 -75 201
l-36 114 -14 0 c-8 0 -16 -4 -19 -8z"/>
<path d="M25990 55662 c0 -9 361 -272 471 -343 33 -22 67 -39 75 -39 l16 0 56
-55 c31 -30 61 -55 66 -55 5 0 -17 27 -50 60 l-59 59 -16 1 -15 0 -100 68
c-54 37 -171 120 -259 183 -88 63 -166 119 -172 123 l-13 7 0 -9z"/>
<path d="M25957 55624 c-4 -4 -7 -17 -7 -28 l0 -21 18 -22 17 -23 245 -169
245 -169 8 5 8 5 -38 27 c-21 15 -131 91 -244 169 -113 77 -212 148 -219 157
-7 8 -15 29 -19 46 l-6 31 -8 -8z"/>
<path d="M61568 55603 l-138 -4 0 -12 0 -12 157 7 c87 3 177 6 201 7 l42 1 0
10 0 10 -62 -2 c-35 -1 -125 -4 -200 -5z"/>
<path d="M51107 55276 l-117 -13 -8 -8 -7 -8 55 8 c30 4 136 11 235 15 l180 7
-66 1 c-36 1 -86 4 -110 6 l-44 4 -118 -12z"/>
<path d="M48342 55072 l83 -160 4 11 4 11 -74 145 -75 145 -12 4 -13 4 83
-160z"/>
<path d="M26510 55170 l0 -10 15 0 c8 0 15 2 15 4 0 2 -7 6 -15 10 l-15 5 0
-9z"/>
<path d="M52675 54713 c33 -34 853 -568 861 -561 2 3 -69 51 -158 108 -90 57
-278 182 -420 277 -141 95 -264 176 -275 179 l-18 7 10 -10z"/>
<path d="M50233 54622 c-51 -26 -93 -50 -93 -54 l0 -8 93 46 c99 50 103 52 96
58 -2 2 -46 -17 -96 -42z"/>
<path d="M54033 54589 l-62 -19 -68 -40 c-37 -22 -84 -54 -103 -71 -38 -33
-24 -30 25 6 50 36 176 102 233 120 28 9 52 18 52 21 0 6 -11 4 -77 -17z"/>
<path d="M52815 54313 c-71 -109 -136 -209 -144 -223 l-16 -24 11 7 c16 9 288
427 282 433 -3 2 -63 -85 -133 -193z"/>
<path d="M52874 54230 c-80 -123 -148 -231 -151 -239 -3 -9 65 89 152 217 86
129 154 236 151 239 -3 3 -71 -95 -152 -217z"/>
<path d="M48670 54406 c0 -3 83 -171 184 -375 101 -203 186 -376 189 -383 2
-7 7 -11 9 -8 6 6 -367 770 -376 770 -3 0 -6 -2 -6 -4z"/>
<path d="M22643 54034 c-87 -91 -159 -170 -161 -175 l-4 -9 9 0 c4 0 64 61
133 136 69 75 142 151 163 169 l38 33 -9 6 -10 6 -159 -166z"/>
<path d="M51684 54168 l-7 -11 11 7 c12 7 16 16 8 16 -3 0 -8 -5 -12 -12z"/>
<path d="M54844 53969 l-49 -164 -20 -17 c-11 -9 -33 -29 -50 -43 l-30 -27 31
17 c17 10 40 25 52 34 l22 16 50 165 c28 90 49 168 47 174 -2 5 -25 -64 -53
-155z"/>
<path d="M50837 53829 l13 -13 5 6 6 6 -18 6 -18 7 12 -12z"/>
<path d="M13836 53582 l-5 -8 176 -143 175 -143 9 9 8 8 -166 135 c-91 74
-171 138 -179 143 l-13 7 -5 -8z"/>
<path d="M51945 53460 l-6 -10 8 0 c4 0 15 5 23 10 l15 10 -17 0 c-9 0 -20 -4
-23 -10z"/>
<path d="M50524 53248 c40 -93 66 -148 71 -148 6 0 -5 28 -43 113 -17 37 -33
67 -37 67 -3 0 1 -15 9 -32z"/>
<path d="M51475 53253 c-45 -23 -75 -54 -91 -92 -8 -19 -12 -36 -10 -38 2 -3
7 5 11 17 4 12 20 36 36 54 l29 34 30 12 c16 7 30 16 30 21 0 11 1 11 -35 -8z"/>
<path d="M53625 53216 c-72 -28 -397 -198 -391 -204 3 -2 87 39 188 91 101 52
202 101 226 108 l42 12 0 9 c0 10 6 11 -65 -16z"/>
<path d="M52330 53063 c73 -159 120 -247 127 -240 2 3 -9 26 -25 53 -15 27
-57 113 -92 191 -36 79 -68 143 -72 143 -4 0 24 -66 62 -147z"/>
<path d="M51456 52885 l-6 -25 -90 -45 c-50 -25 -90 -47 -90 -50 0 -9 165 77
188 98 22 21 30 47 13 47 l-9 0 -6 -25z"/>
<path d="M52800 52768 c0 -9 5 -20 10 -23 l10 -6 0 8 c0 4 -5 15 -10 23 l-10
15 0 -17z"/>
<path d="M85740 52748 c0 -6 8 -35 17 -65 l17 -53 14 0 14 0 -9 13 c-6 6 -18
36 -27 65 -17 50 -26 65 -26 40z"/>
<path d="M27711 52498 c-7 -134 -16 -308 -21 -388 -5 -80 -9 -174 -9 -210 l0
-65 8 15 9 15 7 185 c3 102 8 210 10 240 2 30 6 132 10 225 3 94 8 182 11 198
l6 27 -9 0 -10 0 -12 -242z"/>
<path d="M27760 52721 c0 -12 -9 -203 -20 -424 -37 -767 -40 -822 -40 -866 0
-24 2 -42 4 -40 5 5 17 218 51 869 l24 465 -10 10 -9 9 0 -23z"/>
<path d="M50625 52368 c-190 -95 -191 -96 -184 -102 2 -2 92 40 199 95 107 54
188 98 180 98 -8 0 -96 -41 -195 -91z"/>
<path d="M53021 52344 c13 -36 185 -384 191 -384 8 0 -169 371 -184 385 l-10
10 3 -11z"/>
<path d="M27002 52263 l9 -68 -5 -160 -5 -160 8 30 9 30 1 136 c0 75 -2 164
-5 198 l-7 61 -7 0 -6 0 8 -67z"/>
<path d="M82734 51891 c3 -19 9 -58 12 -87 l6 -51 -116 -29 -116 -28 1 -16 c1
-8 5 -26 10 -40 l9 -25 -5 36 -5 35 97 23 c54 13 108 29 119 36 l21 14 -13 77
c-7 42 -16 80 -20 83 l-7 6 7 -34z"/>
<path d="M49640 51821 c0 -5 -14 -14 -30 -21 l-30 -13 -38 6 -37 6 20 -15 20
-15 35 6 c19 4 39 11 45 16 15 15 23 10 29 -18 9 -38 218 -463 228 -463 l8 0
-104 208 c-57 114 -111 231 -120 260 -16 48 -26 65 -26 43z"/>
<path d="M33444 51265 c3 -16 15 -115 27 -220 l22 -190 10 -10 10 -10 -6 25
c-3 14 -15 113 -28 220 l-22 195 -10 10 -9 10 6 -30z"/>
<path d="M28400 50880 l0 -13 7 6 6 7 -6 7 -7 6 0 -13z"/>
<path d="M33540 50834 c0 -12 59 -381 66 -417 3 -16 8 -27 10 -24 5 5 -63 437
-70 444 l-6 6 0 -9z"/>
<path d="M17906 50395 c-92 -126 -137 -200 -136 -224 0 -3 13 17 28 44 16 28
72 110 126 183 54 74 96 136 93 138 -2 3 -52 -61 -111 -141z"/>
<path d="M33570 50373 c0 -15 51 -348 56 -362 l4 -14 6 6 6 6 -28 185 -29 186
-7 0 c-5 0 -8 -3 -8 -7z"/>
<path d="M78320 49289 c-14 -12 -45 -31 -70 -44 -47 -24 -226 -78 -297 -90
l-43 -7 0 -9 0 -9 14 0 c26 0 149 28 221 51 75 23 152 59 197 92 l27 20 -5 9
c-8 12 -16 10 -44 -13z"/>
<path d="M37964 49073 c2 -10 20 -109 38 -220 l32 -203 9 0 8 0 -5 18 c-2 9
-20 108 -38 220 l-32 202 -9 0 -8 0 5 -17z"/>
<path d="M40413 48650 l-23 -9 0 -11 c0 -13 12 -13 44 0 l26 10 0 10 0 10 -12
-1 c-7 0 -23 -4 -35 -9z"/>
<path d="M30338 48161 l-126 -6 -8 -7 -7 -8 149 6 c82 4 174 10 204 14 l55 8
-70 -1 c-38 0 -127 -3 -197 -6z"/>
<path d="M43665 47820 c3 -5 8 -10 11 -10 2 0 4 5 4 10 0 6 -5 10 -11 10 l-10
0 6 -10z"/>
<path d="M74830 47606 c0 -20 11 -46 19 -46 l8 0 -5 30 -4 30 -9 0 -9 0 0 -14z"/>
<path d="M20668 47133 l-17 -48 -31 -173 -30 -173 -20 -57 -20 -56 -42 -44
-43 -45 -85 -40 -85 -40 11 -4 12 -4 83 39 84 39 41 44 41 45 16 45 16 44 31
187 30 187 19 51 c10 27 16 50 12 50 -3 0 -14 -21 -23 -47z"/>
<path d="M21140 47150 l0 -9 38 -10 c59 -15 142 -30 207 -36 33 -3 110 -15
170 -27 l110 -21 27 -13 26 -14 44 -62 c24 -35 53 -85 64 -111 19 -47 28 -55
38 -38 l6 9 -21 48 c-12 27 -40 75 -62 107 l-41 59 -36 17 c-46 24 -153 47
-330 71 -80 10 -161 24 -180 30 -19 5 -41 10 -47 10 l-13 0 0 -10z"/>
<path d="M83013 46766 l-41 -13 -186 -24 -186 -23 0 -8 0 -8 21 0 c47 0 339
41 401 57 l67 17 -5 8 c-7 11 -20 9 -71 -6z"/>
<path d="M44675 46624 c-99 -29 -190 -53 -202 -54 l-23 0 0 -9 0 -8 48 8 c26
5 120 30 210 56 l162 47 0 8 c0 10 12 13 -195 -48z"/>
<path d="M93060 46071 c0 -4 16 -15 35 -24 l36 -17 32 0 32 0 53 -25 54 -25
54 0 54 0 73 36 c79 40 82 42 76 48 -2 3 -40 -13 -83 -35 l-78 -39 -42 0 -41
0 -47 25 -47 25 -38 0 -38 0 -42 20 -43 19 0 -8z"/>
<path d="M49330 45913 c0 -4 5 -15 10 -23 l10 -15 0 17 c0 9 -4 20 -10 23
l-10 6 0 -8z"/>
<path d="M81370 45886 c-4 -13 -14 -43 -20 -67 -6 -24 -21 -67 -32 -96 l-21
-52 -30 -11 c-17 -5 -28 -12 -25 -15 3 -3 19 0 36 6 l30 10 17 42 c19 46 64
207 58 207 -2 0 -8 -11 -13 -24z"/>
<path d="M49225 45814 c-71 -30 -169 -69 -217 -86 l-88 -31 0 -8 0 -8 53 16
c62 18 388 151 402 164 l9 9 -14 -1 c-8 0 -73 -25 -145 -55z"/>
<path d="M40200 45619 l75 -71 63 -29 64 -30 54 -10 54 -10 16 9 16 9 -60 5
-60 6 -63 28 -64 29 -75 67 c-41 38 -79 68 -85 68 l-10 -1 75 -70z"/>
<path d="M50998 42882 c-175 -26 -318 -49 -318 -52 0 -7 612 76 655 89 l30 9
-25 0 c-14 0 -168 -21 -342 -46z"/>
<path d="M51401 42568 c-1 -8 57 -382 65 -417 3 -13 7 -21 10 -19 6 7 -55 398
-66 423 -5 11 -9 17 -9 13z"/>
<path d="M50835 42489 c-71 -10 -134 -18 -139 -18 l-9 -1 5 -5 5 -6 164 21
c158 20 210 31 138 29 -19 -1 -92 -9 -164 -20z"/>
<path d="M88172 42328 l-181 -132 5 -8 5 -7 172 126 c194 142 193 141 186 148
-3 3 -87 -55 -187 -127z"/>
<path d="M56764 41115 l0 -210 3 108 c2 59 2 154 0 210 l-3 102 0 -210z"/>
<path d="M63295 41151 l-5 -9 29 -21 29 -21 168 -65 c175 -67 184 -70 184 -57
l0 8 -167 64 -168 63 -32 24 -32 23 -6 -9z"/>
<path d="M48078 39568 c-30 -40 -88 -115 -127 -165 -40 -51 -68 -93 -64 -93 5
0 41 42 80 93 39 50 96 125 127 165 32 39 53 72 49 72 -5 0 -34 -33 -65 -72z"/>
<path d="M88107 38468 c-98 -61 -176 -112 -174 -115 4 -4 342 200 362 218 l9
9 -9 0 c-6 -1 -90 -51 -188 -112z"/>
<path d="M34627 38143 c-4 -3 -7 -24 -7 -45 l0 -38 10 0 10 0 0 45 c0 46 -2
50 -13 38z"/>
<path d="M59360 37602 c0 -18 184 -382 192 -382 7 0 -175 375 -188 389 -2 2
-4 -1 -4 -7z"/>
<path d="M86157 37278 c-125 -83 -226 -153 -223 -155 3 -4 439 278 461 298 l9
9 -9 0 c-6 -1 -113 -69 -238 -152z"/>
<path d="M89274 36613 c-104 -64 -191 -118 -193 -119 -1 -2 0 -7 3 -13 l6 -9
193 119 c105 66 194 124 195 129 l4 10 -9 0 c-6 0 -95 -53 -199 -117z"/>
<path d="M40970 36513 c0 -20 120 -847 127 -873 l6 -25 4 17 4 17 -61 428 -62
428 -9 10 -9 9 0 -11z"/>
<path d="M41004 36015 c3 -16 15 -100 26 -185 24 -180 30 -213 37 -206 3 3 -7
94 -22 203 l-28 198 -10 10 -9 10 6 -30z"/>
<path d="M86241 35923 c36 -38 75 -81 87 -98 l23 -30 -17 35 -17 35 -60 62
c-33 35 -65 63 -70 63 l-10 0 64 -67z"/>
<path d="M41381 35390 c-2 -21 302 -910 311 -910 3 0 -41 138 -99 308 -58 169
-129 377 -158 462 -30 85 -54 148 -54 140z"/>
<path d="M85154 35303 c19 -27 77 -117 128 -200 51 -84 96 -153 100 -153 8 0
-180 313 -220 368 -13 17 -29 32 -34 32 l-10 0 36 -47z"/>
<path d="M85420 34972 c0 -12 183 -314 208 -345 9 -9 17 -15 20 -12 3 3 -2 13
-10 22 -9 10 -61 92 -117 182 -55 91 -101 160 -101 153z"/>
<path d="M80300 34914 c0 -7 180 -343 297 -557 l65 -118 86 47 c48 25 92 51
97 57 6 5 -29 -11 -77 -36 -47 -26 -91 -47 -96 -47 l-10 0 -177 330 c-97 182
-179 330 -181 330 -2 0 -4 -3 -4 -6z"/>
<path d="M60776 34681 l-78 -213 6 -5 c3 -4 6 -4 6 -1 0 3 34 96 75 208 41
112 74 208 72 214 -2 5 -38 -86 -81 -203z"/>
<path d="M85795 34690 c-77 -49 -141 -94 -144 -101 l-3 -11 10 3 c25 9 302
185 302 192 0 17 -32 1 -165 -83z"/>
<path d="M32510 34744 c0 -7 444 -224 456 -223 10 0 -436 228 -448 228 -5 1
-8 -2 -8 -5z"/>
<path d="M85710 34569 c-96 -60 -181 -113 -189 -118 l-14 -8 4 -12 4 -11 193
117 192 117 0 13 c0 7 -3 13 -7 12 -5 0 -87 -50 -183 -110z"/>
<path d="M60617 34373 l-36 -88 -16 -133 -17 -134 6 -5 6 -6 0 14 c1 8 9 73
19 144 l18 130 33 78 c18 43 30 80 28 83 -3 2 -21 -35 -41 -83z"/>
<path d="M35136 33493 c31 -60 75 -143 98 -185 22 -43 45 -78 49 -78 l9 0 -58
108 c-31 59 -75 142 -98 184 -22 43 -45 78 -49 78 l-9 0 58 -107z"/>
<path d="M83280 32848 c-47 -32 -136 -93 -197 -135 -101 -68 -129 -93 -105
-93 4 0 28 15 54 33 25 17 111 77 190 131 78 54 147 102 151 106 l9 8 -9 5 -8
5 -85 -60z"/>
<path d="M78670 32871 l0 -19 23 -6 c12 -3 47 -6 79 -6 l56 0 114 -20 c62 -10
128 -22 146 -26 l32 -6 0 20 0 21 -37 7 c-21 3 -68 12 -105 20 -36 7 -104 16
-150 19 -46 3 -100 8 -120 11 l-38 4 0 -19z"/>
<path d="M34300 32510 c0 -6 7 -25 17 -43 l16 -32 4 12 4 12 -16 30 c-16 32
-25 39 -25 21z"/>
<path d="M98814 31738 l-22 -10 -11 -24 c-14 -30 -14 -34 -1 -34 l10 0 0 14 0
15 22 15 22 16 26 0 25 0 -15 10 c-18 12 -29 12 -56 -2z"/>
<path d="M95310 26779 c-96 -71 -177 -134 -179 -140 -3 -9 325 226 359 257
l14 14 -9 -1 c-6 0 -89 -58 -185 -130z"/>
<path d="M90404 24849 l-4 -7 77 -6 c64 -5 277 -34 393 -53 67 -11 218 -60
338 -110 l132 -55 12 4 12 4 -145 61 -144 61 -92 26 c-51 14 -111 28 -135 31
-24 3 -83 13 -133 21 -49 9 -139 19 -198 22 l-109 7 -4 -6z"/>
<path d="M89491 21937 c-2 -30 197 -898 211 -920 l7 -11 7 7 7 6 -93 378
c-119 490 -138 562 -139 540z"/>
<path d="M89562 20839 c-73 -67 -132 -125 -132 -131 0 -5 57 43 128 108 70 64
131 121 136 125 5 5 8 11 5 13 -3 3 -64 -49 -137 -115z"/>
<path d="M25828 4053 l-78 -4 0 -11 0 -11 113 6 c61 4 165 7 230 7 l117 0 0
10 0 10 -152 -2 c-84 -1 -188 -4 -230 -5z"/>
<path d="M22984 2232 c7 -11 313 -252 320 -252 21 0 -12 31 -149 138 -85 67
-160 122 -166 122 l-10 0 5 -8z"/>
</g>
</svg>
