<?xml version="1.0" standalone="no"?>
<!DOCTYPE svg PUBLIC "-//W3C//DTD SVG 20010904//EN"
 "http://www.w3.org/TR/2001/REC-SVG-20010904/DTD/svg10.dtd">
<svg version="1.0" xmlns="http://www.w3.org/2000/svg"
 width="7500.000000pt" height="7500.000000pt" viewBox="0 0 7500.000000 7500.000000"
 preserveAspectRatio="xMidYMid meet">
<metadata>
Created by potrace 1.16, written by Peter Selinger 2001-2019
</metadata>
<g transform="translate(0.000000,7500.000000) scale(0.075000,-0.075000)"
fill="#000000" stroke="none">
<path d="M89013 99993 l7 -6 7 6 6 7 -13 0 -13 0 6 -7z"/>
<path d="M89952 99630 l-12 -20 0 -25 0 -25 10 0 10 0 0 18 c0 10 7 27 15 38
l14 21 -6 7 c-10 10 -18 7 -31 -14z"/>
<path d="M89990 99471 l0 -10 31 -17 31 -16 24 6 c13 4 24 10 24 15 l0 9 -32
5 c-18 3 -43 8 -55 12 l-23 7 0 -11z"/>
<path d="M84389 99188 c5 -12 26 -63 48 -113 l39 -90 57 -87 57 -88 11 0 10 0
-7 13 c-4 6 -33 53 -64 102 l-57 90 -40 94 -39 95 -12 4 -12 4 9 -24z"/>
<path d="M83290 99052 c0 -4 62 -43 137 -87 l137 -80 97 -36 96 -36 249 -16
249 -17 157 8 158 9 7 8 8 8 -80 -7 c-44 -4 -150 -7 -235 -7 l-155 1 -180 14
-180 14 -100 38 c-55 20 -120 49 -145 64 -138 83 -220 129 -220 122z"/>
<path d="M83713 98873 l7 -11 77 -11 c43 -6 167 -15 275 -21 l196 -9 141 6
141 6 0 6 0 6 -247 -3 -248 -3 -155 15 c-85 8 -164 18 -174 22 l-19 7 6 -10z"/>
<path d="M16758 98331 l-4 -149 -39 -79 c-51 -99 -48 -93 -37 -93 l10 0 33 58
32 57 13 60 13 60 1 112 0 112 -9 5 -9 6 -4 -149z"/>
<path d="M57910 98043 c0 -7 215 -148 352 -231 l38 -23 0 8 c-1 7 -222 152
-352 231 l-38 23 0 -8z"/>
<path d="M11566 97711 l-6 -9 93 -84 c50 -46 129 -114 174 -151 l82 -67 7 11
7 12 -14 11 c-74 56 -225 185 -269 230 -55 57 -65 63 -74 47z"/>
<path d="M13944 96585 c-7 -19 -14 -46 -14 -60 l0 -25 15 0 15 0 0 28 1 27 14
25 c19 32 18 40 -1 40 l-15 0 -15 -35z"/>
<path d="M87470 96380 l-85 -6 125 -1 c69 0 168 3 220 7 l95 7 -135 0 c-74 -1
-173 -4 -220 -7z"/>
<path d="M86914 96274 l-31 -34 -119 -1 -119 0 -17 -7 -17 -7 132 0 132 0 15
10 c22 15 64 64 59 69 -3 3 -18 -11 -35 -30z"/>
<path d="M98120 94593 l0 -8 176 -70 c97 -38 180 -71 185 -73 5 -2 9 0 9 5 l0
8 -176 70 c-97 39 -180 72 -185 73 -5 2 -9 0 -9 -5z"/>
<path d="M99095 94347 c77 -67 117 -107 187 -187 32 -36 57 -60 57 -55 0 18
-143 171 -218 234 -89 74 -110 81 -26 8z"/>
<path d="M98900 94237 c0 -7 410 -170 415 -165 3 2 -82 39 -188 81 -232 92
-227 90 -227 84z"/>
<path d="M99360 94091 c8 -5 151 -61 318 -125 l303 -117 12 4 12 4 -40 13
c-22 7 -166 62 -320 122 -153 59 -284 108 -290 108 l-10 -1 15 -8z"/>
<path d="M99340 94062 c0 -6 302 -130 385 -158 l20 -7 -10 10 c-9 9 -72 35
-347 144 l-48 19 0 -8z"/>
<path d="M87636 93726 l-46 -84 -85 -105 c-47 -59 -85 -109 -85 -112 0 -18 25
6 91 88 90 110 105 132 152 219 l36 67 -9 6 -8 5 -46 -84z"/>
<path d="M87715 93208 c-77 -79 -160 -165 -185 -193 -25 -27 40 33 143 135
l187 185 74 -74 74 -73 36 13 36 13 43 -11 c49 -14 62 -9 21 8 l-29 12 -37 0
-38 0 -13 -11 -13 -11 -74 74 c-41 41 -77 75 -80 75 -3 0 -68 -64 -145 -142z"/>
<path d="M87420 92965 c-201 -201 -369 -365 -375 -365 -5 0 -58 32 -117 71
-60 40 -111 70 -114 67 -2 -3 50 -41 116 -83 l122 -78 250 249 c232 232 495
504 487 504 -2 0 -168 -164 -369 -365z"/>
<path d="M5479 93298 c0 -13 -10 -112 -23 -220 l-22 -198 8 0 8 0 1 23 c0 12
10 111 23 220 l22 197 -8 0 -8 0 -1 -22z"/>
<path d="M56760 92993 c0 -11 342 -205 348 -198 3 3 3 6 1 8 -5 5 -297 170
-326 186 l-23 12 0 -8z"/>
<path d="M21895 92830 l-6 -10 10 0 c6 0 11 5 11 10 0 6 -2 10 -4 10 -3 0 -8
-4 -11 -10z"/>
<path d="M21607 92767 l-5 -14 81 -23 c97 -27 347 -99 365 -105 l12 -4 0 12 0
12 -212 64 c-117 35 -218 65 -224 68 l-12 4 -5 -14z"/>
<path d="M86554 92660 c-93 -67 -176 -128 -184 -136 l-15 -16 16 4 c19 4 368
250 369 261 1 17 -25 1 -186 -113z"/>
<path d="M21865 92747 l-7 -18 6 -6 6 -6 6 6 c3 3 4 14 1 24 l-4 18 -8 -18z"/>
<path d="M89520 92716 c0 -8 442 -148 447 -142 4 4 -424 146 -441 146 -3 0 -6
-2 -6 -4z"/>
<path d="M21850 92660 c0 -5 5 -10 11 -10 l10 0 -6 10 c-3 6 -8 10 -11 10 -2
0 -4 -4 -4 -10z"/>
<path d="M22295 92493 c12 -12 385 -116 391 -110 3 2 -80 28 -183 57 -103 29
-195 55 -203 58 l-15 5 10 -10z"/>
<path d="M5381 92083 l-111 -167 8 -8 8 -8 108 162 109 161 70 -79 c39 -43
105 -114 147 -156 l76 -78 14 0 14 0 -80 83 c-44 45 -115 121 -158 170 -43 48
-82 87 -86 87 -4 0 -58 -75 -119 -167z"/>
<path d="M53121 91741 c-1 -25 6 -83 15 -130 l16 -86 34 -70 c18 -38 41 -79
49 -89 l15 -20 5 6 6 6 -29 46 c-17 26 -39 70 -51 99 l-21 52 -19 115 -19 115
-1 -44z"/>
<path d="M93595 91419 c33 -33 85 -78 115 -98 l55 -38 84 -37 c47 -20 87 -36
90 -36 15 0 -22 21 -77 44 -34 15 -93 46 -130 70 l-67 44 -55 56 c-30 31 -59
56 -64 56 l-10 0 59 -61z"/>
<path d="M95023 91296 l-58 -64 -44 -83 -45 -83 -9 27 -9 27 -9 -6 -10 -6 7
-36 c4 -20 9 -41 11 -45 l5 -8 20 18 20 18 39 76 38 77 60 68 c34 38 61 72 61
77 0 19 -23 2 -77 -57z"/>
<path d="M94680 91210 l0 -10 14 0 c8 0 18 5 21 10 l6 10 -20 0 -21 0 0 -10z"/>
<path d="M94974 91153 l-19 -48 0 -55 c0 -30 4 -89 8 -130 l8 -75 -15 15 c-8
8 -31 42 -50 74 -20 33 -36 55 -36 48 0 -6 17 -39 38 -72 40 -67 50 -84 78
-144 l19 -40 47 -51 48 -52 67 -36 c86 -44 222 -101 229 -94 3 2 -33 19 -78
38 -160 64 -250 128 -310 222 l-30 47 4 18 5 18 -13 104 -13 105 5 35 c3 19
12 52 20 74 8 21 13 40 10 43 -2 2 -12 -17 -22 -44z"/>
<path d="M94776 91182 l-5 -8 19 -12 19 -12 6 10 6 10 -6 10 c-7 12 -32 13
-39 2z"/>
<path d="M94406 91172 c5 -5 28 -23 52 -41 l42 -33 0 9 c0 10 -83 73 -96 73
l-8 0 10 -8z"/>
<path d="M94704 90879 c-16 -17 -65 -53 -109 -81 l-80 -50 -32 -44 c-36 -48
-39 -54 -20 -54 l12 1 25 34 25 35 80 52 c44 29 94 66 112 82 l33 28 0 14 c0
22 -14 17 -46 -17z"/>
<path d="M94956 90728 c9 -18 39 -57 68 -86 l51 -54 40 -20 c70 -37 265 -116
265 -109 0 4 -37 22 -82 41 -46 18 -110 47 -142 63 l-60 29 -57 55 -57 54 -12
30 c-7 16 -16 29 -21 29 l-10 0 17 -32z"/>
<path d="M94385 90590 c-21 -40 -77 -101 -411 -446 l-263 -271 6 -7 c4 -3 9
-6 13 -6 4 0 150 148 325 330 l318 329 25 41 24 42 -10 10 -10 10 -17 -32z"/>
<path d="M93645 89904 l-158 -165 10 -10 10 -10 162 166 162 166 -6 10 c-4 5
-10 9 -14 9 -4 0 -78 -75 -166 -166z"/>
<path d="M84357 89972 l-27 -57 -41 -154 -41 -153 9 -9 9 -9 44 162 c24 90 49
175 57 190 7 16 18 39 23 53 l9 24 -8 5 -8 5 -26 -57z"/>
<path d="M94070 89541 c179 -175 327 -317 329 -315 5 5 -628 628 -643 632 -6
2 135 -141 314 -317z"/>
<path d="M32270 89811 l0 -10 43 -5 c23 -3 120 -11 215 -17 l173 -11 6 6 6 6
-6 6 c-6 6 -331 33 -404 34 l-33 0 0 -9z"/>
<path d="M96580 89741 c0 -4 87 -70 192 -147 220 -158 274 -206 407 -353 53
-59 98 -106 101 -106 3 0 59 29 124 64 l120 64 89 8 c48 4 91 10 95 14 l6 6
-94 -7 -95 -7 -123 -65 c-68 -35 -124 -63 -125 -61 -10 16 -201 221 -237 255
-54 50 -460 347 -460 335z"/>
<path d="M97540 89236 c-52 -19 -267 -136 -251 -136 7 0 68 29 135 64 l121 65
85 9 85 9 -70 1 -70 1 -35 -13z"/>
<path d="M85175 88945 c-132 -24 -377 -73 -544 -109 -167 -36 -360 -75 -430
-85 l-126 -19 40 -1 c63 -2 204 24 559 100 318 68 606 122 614 115 2 -2 -38
-85 -87 -185 -50 -99 -91 -185 -91 -191 0 -5 44 77 98 183 53 105 98 194 99
196 1 2 22 8 45 13 l43 10 205 7 205 7 -195 1 -195 1 -240 -43z"/>
<path d="M85440 88945 c-47 -7 -94 -15 -105 -18 l-20 -6 50 6 c28 3 248 8 490
12 l440 6 -280 7 c-154 5 -327 7 -385 7 l-105 -2 -85 -12z"/>
<path d="M84380 88739 l-75 -18 -115 -12 c-140 -14 -161 -24 -30 -15 l95 7
103 21 102 21 0 9 c0 4 -1 8 -2 7 -2 -1 -37 -9 -78 -20z"/>
<path d="M89555 88148 c3 -13 23 -104 45 -202 36 -159 50 -210 50 -180 0 5
-19 98 -42 206 l-43 198 -8 0 -7 0 5 -22z"/>
<path d="M15570 88128 l0 -14 62 -30 c56 -26 243 -134 310 -178 l26 -17 6 9 6
10 -118 69 c-64 39 -156 91 -204 117 l-88 48 0 -14z"/>
<path d="M83200 87012 l0 -9 148 -53 c81 -29 175 -63 210 -76 l62 -23 0 13 0
13 -202 72 c-212 75 -218 76 -218 63z"/>
<path d="M84277 86933 c-20 -48 -41 -94 -45 -101 l-9 -13 -257 71 c-241 66
-286 76 -275 66 6 -7 516 -146 533 -146 l13 0 42 96 c23 52 41 100 39 105 l-3
10 -38 -88z"/>
<path d="M84334 86964 c-9 -21 -31 -72 -49 -111 l-34 -73 -15 0 c-17 0 -44 7
-349 90 -104 28 -193 50 -199 48 -6 -2 118 -39 276 -83 l287 -78 8 9 c5 5 30
57 56 117 l48 108 -6 6 -7 6 -16 -39z"/>
<path d="M83596 86935 l-7 -26 8 -12 7 -11 8 29 7 30 -8 8 -8 8 -7 -26z"/>
<path d="M83518 86597 c-31 -138 -54 -254 -52 -256 10 -11 20 24 70 245 56
244 59 264 47 264 l-8 0 -57 -253z"/>
<path d="M83586 86657 c-21 -94 -47 -207 -56 -250 l-18 -78 11 4 11 3 52 230
c54 235 60 264 47 264 l-8 0 -39 -173z"/>
<path d="M79140 86346 c0 -7 62 -38 248 -127 78 -37 142 -65 142 -61 0 4 -80
45 -178 91 -97 47 -185 89 -194 93 -10 5 -18 6 -18 4z"/>
<path d="M25500 86261 c0 -8 419 -166 424 -160 2 2 -92 40 -210 85 -118 45
-214 78 -214 75z"/>
<path d="M96685 86020 l-80 -49 -22 21 c-13 12 -25 19 -28 16 -3 -2 6 -15 20
-28 l25 -24 33 17 c17 9 55 30 82 46 l50 30 103 -159 c56 -88 105 -165 107
-172 l5 -13 -80 -50 c-44 -27 -80 -54 -80 -59 l0 -8 23 14 c12 8 53 34 90 58
l68 43 -5 12 c-6 18 -206 327 -220 342 l-11 12 -80 -49z"/>
<path d="M56710 85598 c0 -6 39 -110 86 -230 l86 -218 15 0 15 0 -6 18 c-4 9
-44 113 -89 229 l-82 213 -12 0 -13 0 0 -12z"/>
<path d="M80830 85602 c0 -9 399 -146 406 -139 3 3 -52 24 -123 47 -70 24
-163 56 -205 71 l-78 28 0 -7z"/>
<path d="M50139 85178 l-57 -60 -20 -47 -21 -46 -5 -77 -6 -78 9 0 9 0 7 83 7
82 20 40 20 40 61 63 61 62 -14 -1 -15 0 -56 -61z"/>
<path d="M82090 85212 c24 -16 753 -263 764 -259 8 3 -695 246 -764 264 l-15
5 15 -10z"/>
<path d="M22230 84932 l0 -9 203 -88 c111 -48 210 -90 220 -93 l17 -4 0 8 0 9
-203 87 c-111 48 -210 90 -219 93 l-18 7 0 -10z"/>
<path d="M85612 84804 l-52 -14 -73 -43 -72 -43 -245 -194 c-135 -106 -257
-204 -273 -216 l-27 -23 9 -5 8 -6 269 213 269 213 75 43 75 43 62 16 63 17 0
7 0 8 -17 -1 c-10 0 -42 -7 -71 -15z"/>
<path d="M82825 84630 l-6 -10 11 0 10 0 18 -29 18 -30 -4 -35 -4 -36 -30 -25
-30 -25 -24 0 -24 0 0 -14 0 -15 38 6 37 6 27 25 27 25 6 41 6 41 -9 26 c-18
46 -53 72 -67 49z"/>
<path d="M23166 84521 c8 -9 349 -161 360 -161 2 0 4 4 4 9 l0 8 -173 77 c-96
42 -180 76 -187 76 l-14 0 10 -9z"/>
<path d="M82549 84403 c-1 -4 0 -20 1 -34 l1 -27 -35 -68 -35 -69 -43 -46
c-24 -25 -49 -48 -57 -50 l-15 -5 8 -12 7 -11 28 17 c16 10 46 38 66 62 l38
45 34 71 34 71 -7 27 c-3 14 -10 29 -15 32 l-9 5 -1 -8z"/>
<path d="M23912 84198 l5 -13 174 -76 c96 -42 288 -126 428 -187 140 -62 258
-112 263 -112 4 0 8 4 8 9 l0 8 -62 28 c-35 15 -214 92 -398 172 -184 80 -355
154 -378 164 l-44 19 4 -12z"/>
<path d="M11950 84012 l0 -10 28 -6 c15 -3 110 -24 211 -46 194 -42 211 -45
211 -32 l0 7 -202 44 c-112 23 -213 45 -225 48 l-23 5 0 -10z"/>
<path d="M24330 83953 l0 -10 188 -83 c103 -45 202 -89 220 -97 l32 -13 0 12
0 13 -211 90 c-116 50 -215 92 -220 93 l-9 4 0 -9z"/>
<path d="M83006 83931 l-6 -9 14 -11 14 -12 7 11 6 10 -6 10 c-8 12 -22 13
-29 1z"/>
<path d="M83055 83850 l-6 -10 10 0 c6 0 11 5 11 10 0 6 -2 10 -4 10 -3 0 -8
-4 -11 -10z"/>
<path d="M83060 83756 c0 -12 70 -120 98 -150 17 -19 40 -53 52 -77 13 -24 27
-50 32 -56 l10 -13 8 5 8 5 -31 57 c-17 32 -46 76 -66 99 -20 22 -48 61 -63
87 l-28 47 -10 0 c-5 0 -10 -2 -10 -4z"/>
<path d="M84127 83558 c5 -7 56 -79 112 -160 56 -81 108 -151 114 -155 l11 -7
-19 30 c-69 106 -211 303 -219 304 l-8 0 9 -12z"/>
<path d="M77920 83470 c0 -5 10 -12 23 -15 12 -4 100 -32 195 -62 l173 -55 6
6 6 6 -14 5 c-8 2 -86 27 -174 55 -88 28 -172 55 -187 60 l-28 9 0 -9z"/>
<path d="M93100 83207 c-35 -50 -92 -134 -127 -184 -36 -51 -61 -93 -56 -93
10 0 257 359 251 365 -2 3 -33 -37 -68 -88z"/>
<path d="M30426 83112 l-5 -9 33 -32 33 -32 164 -99 164 -99 4 10 c4 13 21 1
-159 110 -85 52 -171 109 -192 127 l-36 33 -6 -9z"/>
<path d="M15460 82961 c0 -5 91 -69 203 -142 l202 -133 55 -23 55 -23 40 0
c22 0 88 7 148 17 l107 17 0 8 0 8 -17 0 c-10 0 -58 -7 -108 -16 l-90 -16 -53
6 -53 6 -51 26 c-29 15 -137 82 -240 150 -104 68 -191 124 -194 124 -2 0 -4
-4 -4 -9z"/>
<path d="M64957 82879 c87 -218 158 -387 161 -381 3 10 -157 404 -170 417 l-9
10 18 -46z"/>
<path d="M84663 82878 c126 -286 169 -388 174 -408 12 -47 314 -845 324 -855
l10 -10 -29 80 c-17 44 -83 220 -147 390 -64 171 -126 338 -137 373 -33 108
-180 442 -194 442 l-6 0 5 -12z"/>
<path d="M92505 82423 c-60 -85 -114 -163 -119 -174 l-9 -19 -26 0 c-29 -1
-369 -85 -378 -94 -17 -17 17 -11 177 29 96 25 185 45 197 45 l22 0 126 176
c69 97 125 179 123 184 -2 4 -52 -62 -113 -147z"/>
<path d="M92315 82173 c-16 -3 -96 -22 -177 -44 -81 -21 -150 -39 -154 -39
l-8 0 10 -9 9 -10 130 35 c72 19 158 39 193 45 l62 11 0 9 0 9 -17 -1 c-10 -1
-31 -4 -48 -6z"/>
<path d="M94080 81293 c-52 -81 -96 -154 -98 -163 -3 -13 174 247 199 293 l10
17 -8 0 c-4 0 -51 -66 -103 -147z"/>
<path d="M95823 80872 c-116 -163 -230 -323 -254 -356 l-42 -59 11 4 c6 2 95
123 199 269 287 404 306 431 301 435 -3 3 -99 -129 -215 -293z"/>
<path d="M95507 80503 c-130 -184 -233 -333 -228 -331 14 4 473 649 469 657
-2 4 -110 -143 -241 -326z"/>
<path d="M79120 80290 c-217 -158 -396 -293 -398 -299 l-4 -11 10 0 c5 0 187
129 403 286 l394 285 3 15 3 14 -8 -1 c-4 0 -186 -130 -403 -289z"/>
<path d="M94947 80373 l-6 -9 344 -247 344 -246 6 8 5 9 -333 237 c-182 131
-337 242 -344 247 l-11 9 -5 -8z"/>
<path d="M43032 79879 l-81 -39 -25 -33 -24 -32 -117 -295 c-65 -162 -124
-307 -132 -322 l-14 -28 8 0 c5 0 39 78 77 173 39 94 84 204 101 242 17 39 42
97 55 130 13 33 34 77 46 97 l23 36 33 24 c18 14 53 33 78 43 49 20 66 32 59
39 -3 3 -42 -13 -87 -35z"/>
<path d="M42340 79550 l-15 -10 33 0 32 0 0 10 0 10 -17 0 c-10 0 -25 -5 -33
-10z"/>
<path d="M96346 79362 l-5 -8 132 -93 c73 -52 151 -103 175 -113 l43 -19 12 4
12 4 -55 28 c-30 15 -98 57 -150 94 -52 37 -109 77 -127 89 l-32 22 -5 -8z"/>
<path d="M13116 78279 c-23 -67 -124 -444 -120 -448 7 -8 10 0 73 227 l63 223
-6 6 -6 6 -4 -14z"/>
<path d="M99127 78044 l-6 -7 211 -99 c116 -54 213 -96 216 -93 3 3 3 7 1 9
-4 4 -410 196 -414 196 -1 0 -5 -3 -8 -6z"/>
<path d="M74150 78003 c0 -5 34 -52 76 -107 l75 -98 57 -99 56 -99 13 0 12 0
-55 98 -55 97 -82 108 c-74 97 -97 121 -97 100z"/>
<path d="M23950 77763 l0 -10 118 -5 117 -5 108 -33 108 -32 6 6 c10 10 1 14
-103 47 l-99 32 -127 5 -128 4 0 -9z"/>
<path d="M75450 77464 c-91 -73 -166 -138 -168 -144 l-4 -10 11 0 c6 0 88 61
181 135 l171 136 -6 9 c-4 6 -9 10 -13 9 -4 0 -81 -61 -172 -135z"/>
<path d="M45296 77401 c14 -14 367 -161 373 -156 2 3 2 7 0 8 -8 7 -368 157
-376 157 l-7 0 10 -9z"/>
<path d="M72570 77120 l0 -10 240 0 240 0 0 10 0 10 -240 0 -240 0 0 -10z"/>
<path d="M74895 77010 c-22 -19 -64 -56 -93 -84 l-53 -51 -14 -49 -15 -50 0
-38 0 -38 15 0 15 0 1 53 c0 28 3 60 7 69 4 10 47 58 96 107 l88 90 -4 12 -4
12 -39 -33z"/>
<path d="M2144 75959 c-3 -6 -4 -12 -3 -14 15 -14 406 -161 899 -338 245 -88
365 -127 394 -127 l16 0 0 9 0 8 -62 18 c-113 31 -1061 375 -1180 428 l-58 26
-6 -10z"/>
<path d="M45125 75130 l-7 -12 10 -10 10 -10 7 12 7 12 -10 10 -10 10 -7 -12z"/>
<path d="M30610 74962 l0 -8 118 -28 c64 -16 221 -62 347 -101 127 -40 266
-83 310 -95 43 -12 85 -24 92 -27 l13 -5 0 11 0 10 -42 12 c-24 6 -164 49
-313 96 -218 68 -490 143 -519 143 -4 0 -6 -4 -6 -8z"/>
<path d="M34167 73964 l-7 -8 122 -125 123 -126 40 -22 c43 -24 55 -27 55 -15
0 4 -17 16 -37 27 l-38 20 -125 128 -125 129 -8 -8z"/>
<path d="M74439 70685 l-6 -70 66 -380 c36 -209 67 -372 69 -363 2 9 -23 160
-54 335 l-58 318 -6 115 -6 115 -5 -70z"/>
<path d="M24813 69739 l-53 -40 0 -77 c0 -42 -4 -94 -9 -114 l-9 -38 8 0 8 0
10 58 10 57 -5 55 -5 55 52 35 c28 18 54 38 56 42 l5 8 -8 0 c-4 0 -32 -18
-60 -41z"/>
<path d="M20690 69160 l-315 -38 -115 -26 c-63 -14 -211 -46 -329 -71 -118
-24 -216 -47 -219 -50 -3 -3 -2 -8 1 -12 l7 -6 177 37 c98 20 243 53 322 72
l143 34 340 40 c187 22 346 40 354 40 l14 0 0 10 0 10 -32 -1 c-18 -1 -175
-18 -348 -39z"/>
<path d="M81230 69024 c-30 -14 -100 -43 -155 -65 -93 -37 -193 -89 -170 -89
6 0 25 9 43 20 17 11 71 35 120 54 125 49 250 106 232 105 -8 0 -40 -11 -70
-25z"/>
<path d="M78510 68500 l0 -6 245 -15 245 -14 0 8 0 7 -20 0 c-23 0 -355 18
-422 24 l-48 3 0 -7z"/>
<path d="M77723 68471 l-181 -6 -7 -7 -7 -7 218 6 219 5 30 8 30 8 -60 -1
c-33 0 -142 -3 -242 -6z"/>
<path d="M54819 67835 c-68 -74 -126 -140 -128 -147 -2 -7 34 28 80 77 46 49
108 116 138 147 l54 58 -10 0 c-6 0 -66 -61 -134 -135z"/>
<path d="M30355 67373 c24 -23 830 -241 895 -242 l15 0 -15 8 c-8 5 -40 12
-70 15 l-55 7 -370 105 c-203 58 -379 107 -390 110 l-20 6 10 -9z"/>
<path d="M49422 67240 l27 -8 123 -88 c68 -48 138 -99 156 -112 l32 -24 0 8
c0 5 -72 60 -159 122 l-158 112 -24 -1 -24 -1 27 -8z"/>
<path d="M37528 66866 l-186 -11 -9 -9 -8 -9 60 6 c33 4 130 9 215 13 l155 7
15 8 15 8 -35 -1 c-19 -1 -119 -6 -222 -12z"/>
<path d="M47130 66704 c1 -11 430 -277 437 -271 2 3 -85 60 -194 128 -109 67
-208 129 -220 137 l-23 14 0 -8z"/>
<path d="M92374 66563 c3 -16 12 -80 21 -143 9 -63 27 -173 40 -245 14 -71 31
-186 40 -255 l15 -125 19 -73 c11 -41 22 -76 25 -80 15 -14 14 10 -5 78 l-19
75 -16 125 c-8 69 -26 184 -39 255 -13 72 -31 182 -40 245 -9 63 -18 127 -21
143 l-6 27 -10 0 -10 0 6 -27z"/>
<path d="M94383 66555 c3 -16 35 -214 72 -440 68 -417 72 -441 80 -434 6 7
-142 889 -151 897 l-7 7 6 -30z"/>
<path d="M94489 66133 c41 -247 76 -450 78 -452 15 -20 4 63 -57 430 -79 476
-77 469 -88 469 l-9 0 76 -447z"/>
<path d="M41142 66523 c-11 -10 -23 -28 -27 -40 l-6 -23 10 0 c12 0 70 60 71
73 0 13 -27 7 -48 -10z"/>
<path d="M45081 66120 c-106 -171 -192 -313 -189 -315 5 -5 372 578 384 609 3
9 5 16 3 16 -2 0 -91 -140 -198 -310z"/>
<path d="M44265 66331 c13 -12 785 -240 785 -232 0 4 -159 54 -352 111 -194
57 -373 110 -398 117 l-44 13 9 -9z"/>
<path d="M97255 66184 c-221 -57 -475 -109 -945 -194 -157 -29 -287 -54 -289
-56 -3 -3 0 -8 5 -13 l9 -8 260 49 c557 104 689 131 930 190 138 33 252 62
254 65 3 2 0 7 -5 12 l-9 8 -210 -53z"/>
<path d="M48705 66214 c73 -55 427 -296 430 -292 5 5 -429 308 -442 308 -4 0
1 -7 12 -16z"/>
<path d="M97551 65973 c21 -104 41 -198 44 -211 l6 -23 8 6 9 5 -39 187 c-44
213 -47 223 -59 223 l-8 0 39 -187z"/>
<path d="M97460 66142 c0 -5 20 -103 44 -218 l45 -209 64 -213 64 -213 13 -12
13 -12 -6 25 c-3 14 -31 108 -62 210 l-57 185 -49 229 c-27 125 -49 230 -49
232 0 2 -4 4 -10 4 -5 0 -10 -4 -10 -8z"/>
<path d="M96807 66032 l-217 -46 9 -9 10 -10 220 44 221 44 -3 9 c-2 6 -7 11
-13 12 -5 1 -107 -19 -227 -44z"/>
<path d="M46176 66031 c7 -6 220 -98 414 -178 l35 -15 -10 11 c-9 9 -430 191
-443 191 -3 0 -2 -4 4 -9z"/>
<path d="M40895 65710 l-6 -10 8 0 c4 0 15 5 23 10 l15 10 -17 0 c-9 0 -20 -4
-23 -10z"/>
<path d="M83701 65663 c3 -27 12 -64 19 -83 l13 -35 48 -60 c26 -33 57 -82 70
-108 13 -26 27 -47 31 -47 l8 0 -26 53 c-15 28 -47 78 -72 110 l-45 59 -18 49
-19 49 0 30 0 30 -8 0 -8 0 7 -47z"/>
<path d="M38005 65642 c-33 -19 -160 -78 -282 -132 l-221 -99 -163 -50 c-90
-28 -175 -51 -189 -52 -14 -1 -36 -5 -50 -10 l-25 -8 60 5 60 6 156 48 156 48
204 90 c173 77 340 160 358 177 2 3 2 7 0 8 -2 2 -31 -12 -64 -31z"/>
<path d="M47007 65518 c-112 -172 -110 -168 -103 -168 6 0 174 249 195 288 6
12 9 22 6 22 -3 0 -47 -64 -98 -142z"/>
<path d="M94320 65625 c-96 -19 -254 -48 -350 -65 -96 -17 -223 -42 -282 -56
l-108 -26 0 -14 c0 -18 5 -17 66 1 28 8 133 31 234 50 272 52 664 125 673 125
l8 0 -6 10 -6 10 -27 -1 c-15 -1 -106 -16 -202 -34z"/>
<path d="M94123 65535 c-388 -72 -533 -103 -533 -115 0 -4 3 -9 6 -13 l6 -5
46 14 c26 8 232 48 457 89 226 41 420 78 433 80 l22 5 0 10 0 10 -22 -1 c-13
-1 -199 -34 -415 -74z"/>
<path d="M52747 65458 c-8 -18 -53 -122 -101 -231 l-88 -199 6 -6 6 -6 9 10
c11 11 201 441 201 455 0 5 -4 9 -10 9 l-10 0 -13 -32z"/>
<path d="M52728 65291 c-43 -98 -89 -203 -103 -234 l-25 -57 14 0 13 0 97 220
c53 121 99 226 102 235 l6 15 -13 0 -14 -1 -77 -178z"/>
<path d="M32100 65428 l0 -23 203 -24 c111 -13 217 -25 235 -28 l32 -6 0 24 0
24 -202 23 c-112 13 -218 26 -235 29 l-33 5 0 -24z"/>
<path d="M36561 65370 c-1 -3 -21 -110 -45 -237 l-42 -233 8 0 c9 0 9 -1 53
239 l36 195 -4 20 c-2 12 -5 19 -6 16z"/>
<path d="M40479 65240 l-27 -115 8 -45 c4 -25 18 -73 30 -108 l22 -63 -5 -6
-6 -5 -158 21 c-87 12 -169 24 -183 27 l-25 5 10 -9 10 -10 175 -22 175 -23
16 -14 17 -14 5 15 6 15 -9 3 -9 3 -31 87 -30 88 0 39 0 39 21 87 c11 48 19
94 17 103 l-3 16 -26 -114z"/>
<path d="M92856 65223 l-228 -75 10 -10 9 -9 226 73 225 73 2 10 c1 5 -2 10
-7 11 -4 1 -111 -32 -237 -73z"/>
<path d="M92397 65113 l-217 -87 9 -9 9 -9 209 82 c114 45 210 83 212 85 1 2
1 8 0 14 l-4 10 -218 -86z"/>
<path d="M33288 65055 l-5 -25 8 0 9 0 0 25 c0 14 -2 25 -4 25 -2 0 -6 -11 -8
-25z"/>
<path d="M39303 65054 c7 -7 410 -64 416 -58 2 2 -2 6 -10 8 -13 4 -387 56
-404 56 l-8 0 6 -6z"/>
<path d="M50996 64854 c-38 -85 -67 -157 -65 -159 3 -2 35 66 73 151 38 85 67
157 65 159 -3 2 -35 -66 -73 -151z"/>
<path d="M40570 64869 c0 -3 47 -142 105 -308 l105 -302 5 -50 5 -49 -35 0
-35 0 0 -10 0 -10 34 0 34 0 13 20 14 21 224 -26 c123 -14 225 -24 228 -22 6
7 -45 14 -252 37 -104 11 -195 22 -201 25 l-11 3 -7 34 c-15 77 -226 672 -226
637z"/>
<path d="M51985 64783 c6 -6 64 -48 130 -93 66 -46 141 -98 168 -117 26 -19
47 -31 47 -26 -1 7 -297 215 -338 237 l-17 9 10 -10z"/>
<path d="M47371 64766 c11 -11 405 -176 413 -173 5 2 -82 42 -195 90 -183 78
-232 96 -218 83z"/>
<path d="M91205 64522 c-235 -138 -592 -383 -603 -413 l-4 -9 12 0 c6 0 37 20
68 43 89 68 434 296 570 375 l122 73 0 9 c0 6 -3 10 -7 10 -5 0 -76 -40 -158
-88z"/>
<path d="M76976 64268 l7 -223 -38 -68 -37 -67 -50 -44 -50 -43 -66 -7 c-37
-3 -155 -6 -262 -6 l-195 0 -235 30 c-129 16 -243 30 -252 30 l-18 0 0 -8 0
-9 303 -37 302 -37 125 1 126 0 83 10 84 11 41 28 c54 38 76 63 117 136 l35
60 -4 233 -4 232 -9 0 -9 0 6 -222z"/>
<path d="M80855 64435 c-27 -7 -114 -28 -192 -46 l-143 -33 0 -9 0 -9 33 6
c17 3 114 24 215 48 l182 42 0 8 0 8 -22 -1 c-13 0 -45 -7 -73 -14z"/>
<path d="M39170 64267 c0 -11 30 -67 35 -67 6 0 -16 52 -27 65 l-8 9 0 -7z"/>
<path d="M40584 64118 l-46 -62 6 -29 6 -29 116 -129 c106 -119 138 -150 117
-116 -4 7 -55 66 -113 131 l-105 117 -7 24 -6 24 37 53 c48 68 53 78 47 78 -4
0 -27 -28 -52 -62z"/>
<path d="M88720 64049 c89 -169 235 -397 247 -385 2 2 -16 32 -41 66 -26 34
-80 123 -122 196 -42 74 -81 137 -86 140 l-10 6 12 -23z"/>
<path d="M14435 63990 c8 -16 15 -33 15 -39 l0 -10 -187 -96 c-104 -53 -227
-112 -275 -130 l-86 -34 -104 -21 c-120 -25 -133 -29 -126 -36 7 -7 229 40
288 61 46 16 475 230 497 247 l12 10 -19 39 c-11 21 -23 39 -25 39 -3 0 1 -13
10 -30z"/>
<path d="M78067 63985 c-189 -20 -229 -27 -216 -39 3 -2 419 38 447 43 1 1 2
6 2 11 l0 10 -12 -1 c-7 -1 -107 -12 -221 -24z"/>
<path d="M78523 63981 c-190 -24 -236 -33 -222 -45 3 -2 433 49 447 53 6 2 1
21 -5 20 -5 -1 -103 -13 -220 -28z"/>
<path d="M77277 63994 l-6 -6 32 -27 c18 -14 49 -34 69 -43 l37 -17 5 8 5 8
-39 18 c-22 10 -45 24 -52 32 -6 8 -19 18 -28 23 l-17 9 -6 -5z"/>
<path d="M92698 63964 c-3 -2 24 -33 59 -67 36 -34 112 -118 168 -187 l102
-125 231 -227 231 -227 58 -39 c32 -21 119 -73 193 -115 l135 -76 132 -45
c143 -50 143 -50 143 -37 l0 8 -136 48 -137 48 -131 75 c-72 41 -156 92 -186
112 l-55 37 -234 229 -234 229 -85 105 c-129 159 -239 269 -254 254z"/>
<path d="M36921 63880 c-1 -8 -39 -277 -85 -597 l-82 -583 8 0 c4 0 8 7 8 15
0 8 36 270 80 582 l81 567 -4 15 -5 16 -1 -15z"/>
<path d="M89635 63879 c5 -8 48 -59 96 -114 47 -55 105 -127 128 -159 46 -66
57 -65 13 1 -31 46 -218 269 -235 280 l-10 6 8 -14z"/>
<path d="M59592 63794 c-22 -44 -47 -86 -55 -92 -8 -7 -66 -35 -128 -62 l-114
-49 23 -1 24 0 96 42 97 41 19 21 c10 12 34 52 53 89 l34 69 -4 11 -4 12 -41
-81z"/>
<path d="M93050 63652 c0 -4 73 -80 163 -170 l163 -163 7 8 8 7 -163 163
c-152 152 -178 175 -178 155z"/>
<path d="M89677 63318 c-264 -269 -462 -493 -658 -749 -57 -74 -311 -425 -565
-781 l-462 -647 -153 -183 c-84 -101 -192 -226 -241 -279 -80 -88 -101 -119
-80 -119 10 0 205 216 334 370 149 178 292 371 733 990 423 593 534 743 616
835 30 33 110 125 179 205 l124 145 198 201 c109 110 198 203 198 207 0 4 -5
7 -12 7 l-12 0 -199 -202z"/>
<path d="M7033 63363 l7 -6 7 6 6 7 -13 0 -13 0 6 -7z"/>
<path d="M6633 63343 l-33 -4 0 -8 0 -8 176 -6 177 -5 21 7 21 8 -20 5 c-11 3
-54 6 -95 7 -41 1 -106 3 -145 5 -38 2 -85 2 -102 -1z"/>
<path d="M16357 63315 l-17 -36 0 -39 0 -38 26 -31 26 -31 9 6 10 5 -26 31
-25 30 0 28 c0 15 7 44 15 63 17 42 18 47 7 47 -5 0 -16 -16 -25 -35z"/>
<path d="M41990 63346 c0 -9 119 -152 189 -229 39 -42 71 -73 71 -68 0 5 -32
44 -71 87 -40 44 -96 109 -126 147 -49 61 -63 75 -63 63z"/>
<path d="M36801 63328 c-1 -3 -19 -138 -41 -300 -41 -301 -44 -325 -35 -316 8
8 86 599 81 612 -2 6 -5 8 -5 4z"/>
<path d="M32082 63285 c7 -8 440 -57 446 -51 2 3 -11 7 -29 10 -38 6 -393 46
-411 46 l-11 0 5 -5z"/>
<path d="M95185 63148 c-93 -72 -178 -136 -189 -143 l-18 -13 3 -11 4 -11 185
141 c102 77 189 144 193 148 l9 9 -9 5 -8 5 -170 -130z"/>
<path d="M50683 62917 c-105 -177 -201 -340 -214 -361 l-23 -40 11 7 c14 9
427 707 421 712 -2 3 -90 -140 -195 -318z"/>
<path d="M40797 63145 l-16 -12 295 -334 c163 -184 302 -341 310 -349 l14 -14
14 14 14 15 -308 346 -307 346 -16 -12z"/>
<path d="M48410 63081 c0 -5 77 -54 172 -110 l172 -101 9 3 10 3 -54 31 c-30
17 -111 65 -181 106 l-128 76 0 -8z"/>
<path d="M43845 63030 c-38 -9 -83 -22 -98 -29 l-28 -11 -78 -67 c-42 -38
-146 -126 -229 -197 -84 -70 -152 -133 -152 -138 l0 -10 18 13 c9 8 113 97
230 198 l212 184 38 17 c21 9 72 25 115 34 42 10 77 19 77 22 0 7 -33 2 -105
-16z"/>
<path d="M89274 62936 l-97 -97 6 -6 6 -6 97 97 98 96 -6 6 -7 6 -97 -96z"/>
<path d="M15030 62993 l0 -32 10 -6 10 -6 0 23 c0 13 -5 30 -10 38 l-10 15 0
-32z"/>
<path d="M15070 62993 l0 -32 10 -6 10 -6 0 23 c0 13 -5 30 -10 38 l-10 15 0
-32z"/>
<path d="M42232 63004 c23 -35 252 -294 256 -289 3 2 -35 50 -84 107 -105 120
-191 212 -172 182z"/>
<path d="M43935 62990 c3 -19 13 -87 23 -150 l19 -115 14 -27 c12 -23 137
-170 292 -343 l45 -50 6 6 6 5 -101 115 c-56 63 -128 142 -161 177 l-59 63
-18 42 -18 42 -18 120 c-10 66 -22 127 -27 135 l-8 15 5 -35z"/>
<path d="M39400 62990 l0 -7 188 -17 c103 -9 205 -19 227 -21 l40 -5 -20 9
-20 10 -207 18 -208 19 0 -6z"/>
<path d="M3480 62922 c-8 -26 -16 -53 -18 -59 l-3 -13 10 0 11 0 15 36 c17 40
19 70 7 78 l-8 5 -14 -47z"/>
<path d="M58658 62922 c-37 -20 -68 -41 -68 -45 l0 -8 77 42 77 42 340 -27
c188 -15 357 -30 376 -33 l35 -5 -10 9 -10 10 -335 27 c-184 14 -353 26 -375
26 l-40 -1 -67 -37z"/>
<path d="M58724 62917 c-27 -9 -204 -124 -410 -268 -108 -76 -517 -405 -523
-422 l-4 -11 49 39 c27 22 126 101 219 176 l170 136 215 148 215 148 50 23 50
23 138 -12 137 -13 0 8 c0 4 -1 8 -2 8 -2 1 -64 7 -139 13 l-137 13 -28 -9z"/>
<path d="M16005 62909 l19 -12 266 -8 c146 -5 286 -10 313 -12 l47 -4 0 8 0 9
-17 1 c-10 0 -146 4 -303 9 -157 5 -298 11 -315 15 l-30 6 20 -12z"/>
<path d="M16920 62895 c-85 -7 -159 -14 -164 -14 -5 -1 -7 -3 -4 -6 6 -6 440
24 447 31 7 7 -115 2 -279 -11z"/>
<path d="M16670 62800 l0 -90 10 0 10 0 0 90 0 90 -10 0 -10 0 0 -90z"/>
<path d="M16720 62800 l0 -90 10 0 10 0 0 90 0 90 -10 0 -10 0 0 -90z"/>
<path d="M3635 62860 l-6 -9 31 -16 30 -16 26 -39 c14 -21 32 -56 39 -77 l13
-37 12 -4 12 -4 -7 33 c-4 19 -21 58 -37 87 l-30 52 -38 20 -39 20 -6 -10z"/>
<path d="M59950 62859 l0 -6 163 -12 c89 -6 191 -14 227 -18 l65 -6 -7 7 -6 8
-221 17 -221 17 0 -7z"/>
<path d="M94177 62863 l-6 -9 215 -78 215 -78 6 6 c4 3 4 8 2 10 -2 2 -94 36
-204 76 -110 40 -205 75 -211 77 l-12 4 -5 -8z"/>
<path d="M12416 62846 l-379 -11 -5 -14 -5 -14 339 7 c187 3 378 9 427 12 l87
7 0 13 0 14 -42 -2 c-24 -1 -214 -6 -422 -12z"/>
<path d="M43433 62695 l-153 -134 8 -5 7 -4 150 130 c83 71 154 134 160 139
l9 9 -14 -1 -15 0 -152 -134z"/>
<path d="M12650 62810 c-241 -10 -554 -30 -560 -37 -3 -3 45 -3 105 0 61 4
234 12 385 18 l275 11 10 9 9 9 -19 -2 c-11 -1 -103 -5 -205 -8z"/>
<path d="M89158 62667 c-42 -51 -162 -212 -267 -357 l-189 -265 9 -9 c5 -5 10
-8 12 -5 2 2 90 125 197 274 106 148 224 307 263 353 l70 83 -10 10 -9 9 -76
-93z"/>
<path d="M11000 62741 c24 -9 127 -15 119 -7 -2 2 -35 6 -74 9 l-70 6 25 -8z"/>
<path d="M57981 62440 c-122 -99 -218 -180 -213 -180 8 0 308 236 441 347 2 1
2 5 0 8 -3 2 -105 -77 -228 -175z"/>
<path d="M58290 62592 c0 -5 734 -320 794 -341 l11 -3 -10 10 c-8 8 -468 206
-757 325 l-38 16 0 -7z"/>
<path d="M58251 62565 c10 -9 814 -353 818 -349 7 6 21 0 -404 182 -359 155
-429 183 -414 167z"/>
<path d="M88863 62428 c-67 -75 -288 -371 -398 -533 -203 -301 -438 -625 -588
-813 -76 -96 -137 -176 -134 -178 8 -8 296 360 447 570 78 109 210 298 293
420 l150 221 122 155 c66 85 124 161 129 168 11 19 1 14 -21 -10z"/>
<path d="M89022 62421 c2 -5 81 -75 176 -156 l174 -146 11 4 11 3 -180 152
c-98 84 -183 152 -187 152 l-9 0 4 -9z"/>
<path d="M88986 62382 l-5 -8 196 -165 c107 -90 257 -215 332 -278 75 -63 159
-134 188 -158 l51 -44 6 9 5 8 -207 176 c-114 96 -284 241 -379 322 -95 80
-174 146 -177 146 -3 0 -7 -4 -10 -8z"/>
<path d="M36726 62299 c22 -24 70 -80 106 -124 77 -93 118 -133 170 -164 l37
-22 192 -29 c106 -17 194 -28 197 -25 6 6 -21 11 -210 40 l-167 25 -38 22
c-55 31 -75 50 -185 180 l-99 118 -22 11 -22 11 41 -43z"/>
<path d="M63755 62230 l-80 -8 -249 -51 c-137 -28 -252 -53 -254 -56 -15 -15
24 -9 243 35 l240 48 128 11 c70 6 168 11 218 11 l89 0 0 10 0 10 -127 -1
c-71 -1 -164 -5 -208 -9z"/>
<path d="M56736 62112 c5 -5 133 -62 284 -127 151 -65 280 -120 285 -123 l10
-5 -10 11 c-10 11 -557 252 -572 252 l-7 0 10 -8z"/>
<path d="M37010 62055 c0 -3 17 -12 37 -20 l38 -16 169 -25 c93 -13 171 -22
174 -20 6 7 -25 13 -193 37 l-150 21 -34 14 c-37 15 -41 16 -41 9z"/>
<path d="M16420 62006 c0 -7 231 -126 243 -126 12 0 -222 129 -235 130 -5 0
-8 -2 -8 -4z"/>
<path d="M62495 61903 c4 -27 9 -56 12 -66 l4 -17 8 4 8 5 -8 48 c-4 26 -8 54
-8 61 l-1 12 -11 0 -10 0 6 -47z"/>
<path d="M40097 61872 c-23 -22 -70 -55 -105 -76 l-64 -36 -76 -20 c-42 -11
-133 -29 -202 -41 l-125 -21 -235 -1 -235 0 -133 37 c-73 21 -135 36 -138 33
-2 -2 55 -22 128 -43 l133 -39 260 1 260 2 140 26 c219 41 290 71 399 166 l57
50 -11 0 c-6 0 -29 -17 -53 -38z"/>
<path d="M59856 61814 c-32 -36 -101 -126 -152 -201 l-94 -136 0 -15 0 -16 31
50 c61 95 173 250 227 312 30 34 53 65 50 67 -2 3 -31 -25 -62 -61z"/>
<path d="M58457 61862 l-5 -7 115 4 114 3 90 -37 c49 -21 92 -36 94 -33 3 3
-34 22 -82 42 l-88 36 -117 0 -117 0 -4 -8z"/>
<path d="M16650 61842 c0 -4 24 -20 53 -34 28 -15 116 -61 195 -103 l142 -76
0 8 c0 5 -33 25 -72 45 -40 20 -128 66 -195 102 -68 36 -123 62 -123 58z"/>
<path d="M43699 61646 l-216 -194 -17 -3 -18 -4 108 -107 c60 -58 197 -182
305 -275 l196 -169 238 -265 c131 -145 244 -271 251 -279 l14 -14 0 10 c0 5
-114 135 -252 289 l-253 279 -200 173 c-110 96 -237 210 -283 256 l-82 82 2
11 c2 6 91 88 198 183 107 95 206 184 220 197 l25 24 -10 0 c-6 -1 -107 -88
-226 -194z"/>
<path d="M60290 61734 c0 -3 34 -21 76 -40 136 -62 214 -93 214 -86 0 4 -57
32 -127 62 -157 68 -163 71 -163 64z"/>
<path d="M21840 61712 l0 -9 118 -32 c64 -18 165 -50 225 -72 l107 -38 0 8 0
8 -102 36 c-57 20 -150 50 -208 67 -58 17 -113 33 -122 36 l-18 5 0 -9z"/>
<path d="M60275 61692 c13 -13 276 -125 281 -119 4 3 -218 103 -276 124 l-15
6 10 -11z"/>
<path d="M57825 61683 c15 -15 476 -214 487 -211 7 3 -423 195 -482 216 l-15
5 10 -10z"/>
<path d="M93781 61364 l-290 -297 5 -9 6 -10 7 9 c4 4 136 139 295 299 l288
292 -10 6 -10 6 -291 -296z"/>
<path d="M62570 61640 l-15 -10 18 0 17 0 0 10 c0 12 -1 12 -20 0z"/>
<path d="M63316 61463 c54 -269 56 -275 61 -270 6 7 -80 437 -88 437 l-6 0 33
-167z"/>
<path d="M60532 61416 l-93 -54 9 -6 9 -5 49 26 c77 41 124 72 124 83 0 13 8
17 -98 -44z"/>
<path d="M58205 61409 c-49 -16 -148 -45 -220 -63 -132 -35 -152 -49 -28 -20
94 21 336 95 348 105 l9 9 -9 -1 c-6 0 -50 -14 -100 -30z"/>
<path d="M54768 61423 l13 -5 6 6 6 6 -19 -1 -19 -1 13 -5z"/>
<path d="M54728 61413 l13 -5 6 6 6 6 -19 -1 -19 -1 13 -5z"/>
<path d="M54678 61403 l13 -5 6 6 6 6 -19 -1 -19 -1 13 -5z"/>
<path d="M60252 61259 l-153 -151 6 -6 5 -6 43 39 c98 91 267 260 267 267 0
19 -24 -2 -168 -143z"/>
<path d="M54638 61393 l13 -5 6 6 6 6 -19 -1 -19 -1 13 -5z"/>
<path d="M54593 61383 l7 -6 7 6 6 7 -13 0 -13 0 6 -7z"/>
<path d="M54548 61373 l13 -5 6 6 6 6 -19 -1 -19 -1 13 -5z"/>
<path d="M9945 61249 l-7 -120 7 -105 7 -104 10 -6 10 -7 -8 24 -8 24 1 208
c1 114 0 207 -2 207 -1 0 -6 -54 -10 -121z"/>
<path d="M54554 61343 c3 -10 28 -114 56 -232 45 -191 60 -244 60 -215 0 5
-23 111 -52 236 l-53 228 -8 0 -8 0 5 -17z"/>
<path d="M20150 61201 c-14 -5 -70 -38 -126 -74 l-101 -65 -74 -22 c-41 -12
-78 -26 -84 -32 l-10 -10 20 5 c11 3 52 15 90 26 l70 20 110 71 110 70 18 0
17 0 0 10 c0 11 -5 11 -40 1z"/>
<path d="M53350 61092 c0 -6 20 -115 45 -243 40 -211 55 -271 55 -226 0 24
-88 469 -95 475 l-5 5 0 -11z"/>
<path d="M77837 61053 l-6 -9 25 -100 25 -99 24 -40 c22 -36 55 -72 139 -150
l28 -26 -5 -36 -6 -35 -18 -14 c-10 -7 -35 -17 -55 -20 l-38 -6 6 -9 c3 -5 14
-9 26 -9 l20 0 -14 -22 -15 -22 83 -329 c45 -180 85 -331 88 -334 l6 -6 6 6 7
6 -83 330 -82 330 8 13 c5 7 9 16 10 21 1 4 2 10 3 13 0 4 8 1 16 -6 l15 -12
83 12 83 13 23 19 24 19 -6 6 -7 6 -15 -13 -16 -13 -72 -13 c-40 -7 -78 -13
-86 -13 l-14 -1 16 18 c9 10 22 32 28 50 l11 31 -18 36 -17 36 -26 14 c-33 17
-104 92 -125 132 -8 16 -26 73 -40 127 -25 101 -30 113 -39 99z"/>
<path d="M42852 60920 l-12 -20 10 0 c5 0 14 9 20 20 l11 20 -8 0 c-5 0 -14
-9 -21 -20z"/>
<path d="M52423 60907 l-53 -10 -5 -17 -6 -18 31 -178 30 -179 -23 -21 -24
-20 -129 -23 c-71 -13 -133 -28 -139 -32 l-9 -9 9 0 c6 1 72 14 149 29 l138
29 21 21 21 21 -31 182 -31 183 10 12 9 11 47 7 c27 3 54 10 62 16 l15 9 -20
-1 c-11 -1 -44 -6 -72 -12z"/>
<path d="M58150 60894 c0 -7 53 -99 117 -205 132 -220 122 -204 127 -198 3 3
-131 231 -234 399 l-9 15 -1 -11z"/>
<path d="M60705 60800 l-100 -27 -102 -59 -102 -58 5 -7 4 -7 105 59 105 60
98 25 c104 28 108 29 95 37 -4 2 -53 -8 -108 -23z"/>
<path d="M57146 60742 l-5 -8 60 -90 c33 -49 71 -111 85 -138 14 -26 39 -67
55 -90 l30 -41 52 -41 c75 -58 130 -94 144 -94 23 0 14 15 -19 35 -18 10 -61
41 -96 69 l-63 50 -39 53 c-22 29 -40 56 -40 61 0 5 -36 62 -79 126 l-79 117
-6 -9z"/>
<path d="M44629 60389 c-195 -171 -356 -316 -358 -323 l-4 -11 24 21 c13 11
172 151 353 310 181 159 334 292 340 296 6 4 8 9 5 12 -3 3 -165 -134 -360
-305z"/>
<path d="M83215 60550 c-82 -48 -153 -94 -158 -102 l-9 -14 29 -47 29 -47 7 6
6 6 -24 37 c-14 19 -25 41 -25 47 l0 12 155 91 c141 83 170 103 148 100 -5 -1
-75 -41 -158 -89z"/>
<path d="M55409 60600 c30 -17 56 -28 58 -26 6 5 -83 56 -99 56 l-13 0 54 -30z"/>
<path d="M86267 60418 c81 -90 166 -185 188 -213 57 -73 297 -326 303 -320 3
2 -42 53 -99 112 -57 60 -138 149 -179 198 -103 124 -342 385 -353 385 -5 0
58 -73 140 -162z"/>
<path d="M86100 60551 c0 -9 297 -341 306 -341 11 0 -6 21 -151 180 -85 94
-155 166 -155 161z"/>
<path d="M55568 60529 c-21 -11 -38 -22 -38 -24 0 -5 102 33 109 41 13 12 -39
0 -71 -17z"/>
<path d="M55593 60499 c-18 -5 -35 -15 -39 -21 l-7 -11 19 8 c10 4 35 10 54
12 l36 5 443 -121 c417 -114 471 -128 460 -116 -5 4 -861 239 -909 249 l-25 5
-32 -10z"/>
<path d="M61862 60210 c-474 -97 -866 -180 -870 -185 l-7 -8 25 6 c14 3 408
83 875 178 468 95 854 176 860 181 l9 8 -14 -1 c-8 -1 -403 -81 -878 -179z"/>
<path d="M43281 60366 l-13 -16 87 -97 c47 -54 186 -211 308 -350 l222 -251
14 14 15 13 -16 18 c-45 53 -564 642 -583 661 l-22 23 -12 -15z"/>
<path d="M57221 60325 c-1 -11 -12 -37 -25 -57 l-22 -37 -48 -37 c-26 -20 -46
-38 -43 -40 2 -2 37 0 78 6 41 5 82 10 92 10 l17 0 0 8 0 9 -57 -9 c-31 -5
-66 -8 -77 -6 l-21 3 33 20 33 20 25 43 25 43 -4 22 -4 22 -2 -20z"/>
<path d="M63564 60260 c45 -193 240 -1113 297 -1397 40 -205 76 -373 80 -373
9 0 -130 687 -257 1280 l-107 495 -9 10 -9 10 5 -25z"/>
<path d="M57412 60230 l-83 -17 -12 -13 -12 -13 25 6 c14 3 54 11 90 18 60 11
90 23 79 32 -2 2 -41 -4 -87 -13z"/>
<path d="M58636 60229 c-59 -14 -57 -20 5 -13 l54 6 122 -248 c144 -296 173
-360 173 -385 l0 -19 14 0 c8 0 16 4 18 8 2 4 19 19 38 32 89 63 291 220 283
220 -5 0 -79 -52 -163 -115 -84 -63 -158 -115 -164 -115 l-11 0 -69 158 c-38
86 -107 230 -153 320 l-84 162 -12 -1 c-7 -1 -30 -5 -51 -10z"/>
<path d="M57455 60180 l-90 -17 17 -7 17 -8 58 12 c32 6 68 13 81 16 l22 4 0
10 c0 6 -3 10 -7 9 -5 -1 -48 -9 -98 -19z"/>
<path d="M58642 60190 c-18 -4 -36 -10 -39 -14 l-6 -6 38 3 37 2 34 -60 c53
-95 264 -558 374 -823 23 -56 44 -101 47 -99 5 6 -128 327 -229 552 -78 173
-215 456 -221 454 -1 -1 -17 -5 -35 -9z"/>
<path d="M87075 60077 c-72 -67 -150 -139 -174 -160 l-45 -37 10 -10 9 -9 90
81 c50 44 127 117 173 161 l83 80 -8 8 -8 8 -130 -122z"/>
<path d="M61911 60188 c-1 -3 10 -57 23 -120 14 -62 48 -228 76 -368 56 -281
58 -290 69 -290 l7 0 -42 203 c-92 439 -114 543 -123 562 -5 11 -10 17 -10 13z"/>
<path d="M57280 60123 c0 -27 -7 -84 -15 -127 -14 -71 -14 -98 0 -85 9 10 35
165 35 212 l0 47 -10 0 -10 0 0 -47z"/>
<path d="M61428 60081 c-229 -47 -420 -90 -425 -94 l-8 -9 25 6 c14 3 214 44
445 92 231 47 425 87 430 89 6 2 -3 3 -20 3 -16 0 -218 -39 -447 -87z"/>
<path d="M59405 59834 c-170 -129 -329 -246 -353 -261 -44 -26 -52 -44 -10
-22 23 12 650 479 678 505 l14 14 -9 0 c-6 -1 -149 -107 -320 -236z"/>
<path d="M55231 59313 c-101 -384 -186 -707 -188 -718 l-4 -20 9 15 c14 21
375 1397 370 1410 -2 6 -86 -303 -187 -687z"/>
<path d="M86765 59864 c-27 -24 -107 -90 -177 -145 l-128 -100 0 -11 0 -10 14
5 c38 15 356 276 357 294 1 19 -20 8 -66 -33z"/>
<path d="M91060 59906 c0 -9 283 -341 294 -345 l11 -4 -16 19 c-267 318 -289
344 -289 330z"/>
<path d="M86559 59764 c-90 -69 -166 -131 -168 -137 l-4 -12 14 11 c8 6 85 66
172 133 141 110 166 131 153 131 -2 0 -77 -57 -167 -126z"/>
<path d="M93340 59797 c0 -21 291 -214 348 -231 l22 -7 0 10 0 11 -13 0 c-19
0 -213 118 -285 173 -55 43 -72 53 -72 44z"/>
<path d="M45921 59724 c8 -10 62 -75 119 -144 57 -69 107 -129 112 -134 l8
-10 0 10 c0 13 -229 288 -244 293 l-11 4 16 -19z"/>
<path d="M49290 59706 c0 -5 284 -226 309 -241 l14 -8 -7 11 c-8 13 -302 242
-311 242 -3 0 -5 -2 -5 -4z"/>
<path d="M61504 59683 c13 -46 68 -344 64 -348 -2 -2 -94 -23 -204 -46 l-199
-41 -10 -10 -10 -10 20 5 c11 3 107 24 213 47 l193 40 9 -5 8 -5 4 8 3 8 210
43 c116 24 219 48 230 52 l20 8 -12 0 c-7 1 -107 -19 -223 -44 -116 -25 -216
-45 -224 -45 l-13 0 -34 180 -34 180 -8 0 -8 0 5 -17z"/>
<path d="M62730 59573 c-202 -39 -608 -122 -629 -129 -8 -2 -12 -7 -9 -9 2 -3
96 15 209 39 112 24 294 60 404 81 110 21 202 40 204 42 14 11 -23 6 -179 -24z"/>
<path d="M45340 59443 c206 -213 222 -229 219 -216 -6 18 -330 353 -342 353
l-10 0 133 -137z"/>
<path d="M91406 59543 c142 -191 224 -296 263 -337 52 -55 303 -258 310 -251
2 3 2 7 0 8 -2 2 -56 44 -119 94 l-115 91 -65 68 c-36 38 -114 135 -175 216
-60 81 -114 148 -119 148 l-8 0 28 -37z"/>
<path d="M47110 59397 l-23 -112 -39 -99 c-21 -55 -38 -101 -38 -103 0 -2 6
-3 14 -3 l14 0 36 90 36 90 25 116 c29 136 28 121 11 127 l-13 5 -23 -111z"/>
<path d="M49325 59067 c-165 -220 -313 -418 -329 -440 l-30 -40 11 4 c16 5
655 858 651 868 -2 5 -138 -172 -303 -392z"/>
<path d="M47066 59441 l-6 -9 16 -6 c20 -8 29 -1 19 13 -8 13 -22 14 -29 2z"/>
<path d="M46982 59410 l-12 -20 0 -27 0 -27 9 10 c8 9 25 84 19 84 -2 0 -9 -9
-16 -20z"/>
<path d="M59615 59317 c-247 -49 -452 -92 -454 -94 -2 -1 -2 -5 0 -7 4 -4 921
179 944 188 40 17 -101 -8 -490 -87z"/>
<path d="M61835 59348 c-121 -26 -316 -68 -433 -93 l-214 -45 -8 5 -9 5 -7
-11 -7 -11 10 -7 9 -6 78 -378 78 -379 -8 -8 c-5 -5 -198 -47 -429 -95 -431
-88 -451 -93 -444 -99 4 -5 843 168 870 179 l16 6 32 -163 c36 -181 41 -202
48 -195 2 3 -12 85 -32 182 l-37 177 10 7 c6 3 99 28 209 55 109 27 193 51
187 53 -6 2 -101 -19 -210 -46 -109 -27 -199 -49 -200 -48 -6 7 -156 759 -152
762 3 3 178 41 389 84 211 44 403 84 427 89 42 10 60 19 51 25 -2 2 -103 -18
-224 -45z"/>
<path d="M63721 59368 c-1 -9 51 -272 114 -585 64 -312 176 -865 250 -1228
136 -674 273 -1316 281 -1324 2 -2 6 -2 8 0 3 2 -40 211 -95 464 -55 253 -160
757 -234 1120 -74 363 -175 860 -225 1105 -50 245 -92 450 -94 455 l-4 10 -1
-17z"/>
<path d="M10869 59298 c67 -154 164 -365 172 -373 l10 -10 -8 21 c-28 74 -179
404 -185 404 l-7 0 18 -42z"/>
<path d="M17016 59248 c-3 -13 -9 -68 -12 -123 l-5 -100 30 -105 c37 -131 40
-107 4 32 l-26 103 11 104 c12 102 11 135 -2 89z"/>
<path d="M75940 59203 c30 -1 126 -4 213 -5 l157 -3 0 8 0 7 -212 -2 c-117 -1
-188 -3 -158 -5z"/>
<path d="M83800 59156 c0 -15 204 -406 213 -406 4 0 -28 66 -70 148 -101 193
-143 269 -143 258z"/>
<path d="M75502 58851 c-23 -47 -44 -97 -47 -111 -2 -14 -7 -184 -10 -377 l-6
-353 10 0 9 0 4 373 3 372 46 88 c26 48 44 89 40 91 -3 2 -25 -36 -49 -83z"/>
<path d="M61700 58924 c0 -19 70 -368 75 -372 10 -10 4 29 -30 198 -30 150
-45 208 -45 174z"/>
<path d="M63180 58858 c0 -18 82 -442 86 -447 2 -2 7 -2 10 2 l6 6 -43 225
-44 226 -7 0 c-5 0 -8 -6 -8 -12z"/>
<path d="M84073 58708 c82 -149 146 -276 158 -313 l12 -40 4 11 c2 6 -4 32
-14 57 -27 67 -177 347 -186 347 l-9 0 35 -62z"/>
<path d="M50731 58626 c8 -8 291 -87 296 -82 3 2 -28 14 -69 26 -40 12 -103
30 -139 41 -63 18 -97 24 -88 15z"/>
<path d="M59595 58552 c8 -8 559 -217 760 -289 l40 -14 -10 10 c-8 7 -358 141
-780 297 l-20 7 10 -11z"/>
<path d="M51103 58513 l7 -6 7 6 6 7 -13 0 -13 0 6 -7z"/>
<path d="M60889 58366 c-443 -93 -453 -95 -447 -101 5 -5 869 173 877 180 10
11 -54 -1 -430 -79z"/>
<path d="M49456 58300 c11 -4 99 -38 195 -75 96 -37 202 -83 237 -102 l64 -35
5 6 c4 3 4 8 2 10 -24 21 -483 207 -510 205 l-14 0 21 -9z"/>
<path d="M49460 58261 c0 -3 75 -35 168 -70 92 -35 200 -81 240 -102 l72 -38
0 9 0 10 -67 31 c-99 46 -413 168 -413 160z"/>
<path d="M62311 58240 c-1 -3 15 -86 34 -184 19 -99 34 -180 33 -181 -2 -2
-203 -45 -448 -96 -245 -51 -447 -94 -449 -96 -18 -13 58 1 448 83 l443 94 10
-6 10 -7 7 10 6 10 395 82 c464 97 442 92 436 98 -3 3 -192 -34 -421 -82 -228
-48 -418 -86 -420 -83 -2 2 -18 76 -35 163 -25 134 -47 217 -49 195z"/>
<path d="M37984 57975 l0 -210 3 108 c2 59 2 154 0 210 l-3 102 0 -210z"/>
<path d="M64034 58008 c14 -59 366 -1754 366 -1762 l0 -8 14 5 14 5 21 -14 21
-15 0 -33 0 -33 -18 -16 -19 -17 -30 0 -30 0 -18 20 -17 19 7 38 7 38 -19 -16
-18 -16 -247 -49 c-137 -27 -248 -51 -248 -55 0 -3 109 16 242 42 133 27 248
49 255 49 l13 0 0 -28 0 -28 -250 -49 c-137 -27 -250 -52 -250 -56 l0 -6 258
52 259 51 20 -13 20 -13 31 6 31 6 21 23 22 24 -9 38 -8 38 -32 15 -32 15 -5
20 c-2 11 -84 405 -182 875 l-177 855 -10 10 -10 10 7 -27z"/>
<path d="M37135 57793 c-48 -126 -97 -250 -107 -278 l-19 -50 10 10 c8 9 67
154 189 469 l30 76 -8 0 c-4 0 -47 -102 -95 -227z"/>
<path d="M63363 57928 c11 -42 187 -886 187 -894 l0 -8 10 10 9 9 -79 380
c-44 209 -87 413 -96 453 l-15 72 -11 0 -10 0 5 -22z"/>
<path d="M50450 57891 c18 -10 484 -141 502 -141 l12 0 -9 9 c-11 9 -483 141
-506 141 l-14 -1 15 -8z"/>
<path d="M35762 57880 l-64 -9 -79 -26 -79 -27 0 -7 0 -8 78 27 77 28 108 12
109 12 66 -7 c36 -4 73 -9 81 -12 l16 -6 -13 14 -13 14 -112 2 -112 1 -63 -8z"/>
<path d="M55490 57789 c-349 -43 -641 -78 -649 -78 l-14 -1 5 -6 6 -6 649 78
648 77 10 9 9 8 -14 -1 c-8 -1 -301 -36 -650 -80z"/>
<path d="M50432 57854 c7 -6 496 -144 512 -144 l10 0 -9 9 c-11 10 -476 141
-501 141 l-17 0 5 -6z"/>
<path d="M82125 57770 c-27 -5 -110 -16 -182 -25 l-133 -18 0 -13 0 -14 23 5
c12 2 94 14 182 25 88 11 177 23 198 26 l37 6 -6 9 -5 9 -32 -1 c-18 -1 -54
-5 -82 -9z"/>
<path d="M55250 57719 c-217 -26 -402 -49 -410 -49 l-15 -2 12 -4 11 -5 428
51 c391 46 496 62 403 59 -19 -1 -212 -23 -429 -50z"/>
<path d="M81160 57640 l-195 -27 -105 -27 -105 -26 -80 -37 c-146 -65 -259
-125 -335 -176 l-75 -50 -104 -96 -104 -96 -158 -175 -158 -175 9 -3 c5 -2 12
-3 15 -3 3 0 69 72 146 158 l142 158 106 96 107 96 97 67 96 67 153 73 153 74
130 30 130 31 170 21 c94 12 172 24 174 26 3 2 0 8 -5 13 l-9 8 -195 -27z"/>
<path d="M25210 57293 c0 -7 14 -36 31 -65 l31 -53 86 -80 c47 -44 104 -94
126 -110 66 -49 477 -308 481 -303 3 3 -104 74 -236 159 l-241 154 -105 96
-105 96 -33 59 c-19 32 -35 54 -35 47z"/>
<path d="M53031 57246 c2 -2 100 -52 218 -111 l213 -106 6 6 c3 3 3 7 1 9 -13
13 -413 206 -427 206 -8 0 -13 -2 -11 -4z"/>
<path d="M35426 57201 c43 -42 350 -291 358 -291 l11 0 -35 29 c-19 15 -100
83 -180 150 -80 66 -149 121 -154 121 l-10 0 10 -9z"/>
<path d="M81200 57125 c1 -13 356 -381 363 -375 2 3 -78 90 -179 195 -101 104
-184 185 -184 180z"/>
<path d="M33680 57041 c0 -6 3 -11 8 -11 4 0 78 -11 165 -25 87 -14 169 -25
182 -25 l23 0 66 30 c69 30 94 52 29 24 -21 -8 -55 -22 -75 -31 l-37 -15 -173
27 c-95 15 -176 29 -180 32 l-8 4 0 -10z"/>
<path d="M90794 56958 c-3 -18 -41 -112 -82 -208 l-75 -175 -45 -60 c-75 -101
-205 -227 -472 -458 -140 -122 -285 -252 -323 -288 l-67 -67 -40 -86 c-22 -48
-99 -198 -171 -333 l-131 -247 -47 -54 -46 -54 -91 -56 c-50 -31 -211 -120
-357 -197 -239 -126 -288 -155 -258 -155 14 0 564 295 648 347 l72 44 54 64
54 64 115 218 c63 120 134 262 159 316 l44 98 70 72 c39 40 194 179 345 309
l275 236 70 74 71 73 46 70 47 70 75 175 c42 96 78 190 82 208 l7 32 -11 0
-10 0 -8 -32z"/>
<path d="M90645 56522 c6 -5 57 -30 115 -56 58 -25 136 -62 173 -82 38 -20 70
-34 73 -31 10 10 -235 130 -356 174 l-15 6 10 -11z"/>
<path d="M82732 56510 c3 -8 27 -108 53 -222 27 -115 52 -208 55 -208 4 0 -16
96 -44 214 l-51 215 -9 8 -9 8 5 -15z"/>
<path d="M47600 56502 c0 -5 30 -36 68 -69 l67 -60 128 -72 c71 -40 131 -71
133 -68 3 2 -53 37 -123 76 l-128 72 -72 65 c-40 36 -73 61 -73 56z"/>
<path d="M90620 56491 c0 -4 46 -27 103 -51 56 -24 139 -63 185 -88 l82 -44 0
9 c0 11 -131 77 -267 137 l-103 44 0 -7z"/>
<path d="M56021 56458 c-5 -13 -28 -84 -51 -158 l-42 -135 -35 -60 c-19 -33
-53 -81 -75 -108 l-40 -48 -12 14 c-38 45 -317 279 -325 272 -2 -3 -2 -6 0 -8
22 -16 144 -119 226 -191 l102 -89 3 -15 3 -16 57 67 57 67 35 72 35 73 45
143 44 142 -9 0 c-5 0 -13 -10 -18 -22z"/>
<path d="M89985 56010 c-126 -110 -247 -219 -268 -242 l-37 -43 -134 -270
c-74 -148 -153 -302 -175 -341 l-41 -72 -62 -55 -63 -55 -535 -287 c-294 -158
-537 -289 -539 -291 -2 -2 -2 -7 2 -10 l6 -7 543 292 543 291 62 55 62 56 67
122 c37 67 113 217 170 334 l102 212 34 42 33 41 238 205 c213 185 254 224
230 222 -5 0 -111 -90 -238 -199z"/>
<path d="M63680 56132 l-35 -18 3 -12 c1 -7 1 -12 -1 -12 -2 0 -140 -29 -308
-65 -167 -36 -557 -118 -867 -182 l-562 -117 8 -8 9 -9 389 81 c214 45 520
108 679 140 160 32 372 76 473 97 l182 38 6 18 5 17 29 15 29 15 23 -9 c13 -5
30 -16 37 -25 7 -9 17 -16 22 -16 l9 0 -11 24 -12 24 -22 6 c-13 3 -29 8 -37
11 l-13 5 -35 -18z"/>
<path d="M5393 56123 l-123 -4 0 -10 0 -11 25 6 25 6 233 0 232 0 205 -13 205
-14 8 7 8 7 -218 11 c-282 16 -449 20 -600 15z"/>
<path d="M63777 56004 l-19 -25 6 -6 6 -6 20 18 c20 18 27 45 13 45 -5 0 -16
-12 -26 -26z"/>
<path d="M84923 55970 c82 -335 244 -960 248 -960 4 0 -48 217 -114 483 l-120
482 -10 10 -10 10 6 -25z"/>
<path d="M63683 55958 c3 -13 24 -115 46 -227 23 -113 44 -207 46 -210 3 -2 8
-2 11 2 l6 6 -32 158 c-17 87 -38 188 -47 226 l-16 67 -10 0 -9 0 5 -22z"/>
<path d="M35750 55915 c14 -8 32 -14 40 -14 l15 0 -25 14 c-14 8 -32 14 -40
14 l-15 0 25 -14z"/>
<path d="M63062 55910 l0 -25 5 13 c2 6 2 18 0 25 l-5 12 0 -25z"/>
<path d="M63017 55900 c3 -11 9 -20 13 -20 l8 0 -5 20 c-3 11 -9 20 -13 20
l-8 0 5 -20z"/>
<path d="M32561 55905 c18 -47 201 -386 206 -382 5 5 -184 367 -199 382 l-10
10 3 -10z"/>
<path d="M20355 55870 l-40 -27 -60 -21 -60 -21 -125 -23 -125 -22 16 -4 c9
-1 79 9 154 23 l137 26 52 25 c56 27 103 60 96 67 -3 3 -23 -7 -45 -23z"/>
<path d="M36430 55814 c-47 -19 -114 -42 -150 -50 l-65 -16 -32 6 -33 5 0 -10
0 -9 48 0 c26 0 67 5 92 11 48 10 218 77 235 91 l9 8 -9 0 c-6 -1 -48 -17 -95
-36z"/>
<path d="M50195 55750 l6 -55 39 -82 39 -83 54 -68 54 -68 69 -60 c86 -76 148
-118 197 -134 l39 -12 10 10 9 9 -35 7 -36 7 -68 46 c-86 59 -164 131 -228
213 l-51 65 -35 70 -36 70 -7 45 c-4 25 -12 52 -17 60 l-9 15 6 -55z"/>
<path d="M51135 55499 c-110 -127 -213 -241 -228 -255 l-29 -24 -39 -6 -39 -7
0 -8 c0 -11 -3 -12 58 6 l51 15 207 238 c114 130 214 245 222 255 l15 17 -9
-1 c-5 0 -99 -104 -209 -230z"/>
<path d="M51181 55489 c-106 -121 -191 -222 -189 -225 4 -4 81 82 362 404 16
18 27 35 24 37 -3 3 -91 -94 -197 -216z"/>
<path d="M25809 55558 c-41 -61 -102 -148 -136 -192 l-62 -80 6 -9 5 -9 7 9
c42 49 123 161 189 260 l82 122 -9 5 -9 6 -73 -112z"/>
<path d="M61910 55549 c0 -18 63 -413 67 -418 12 -17 7 31 -23 214 -31 187
-44 246 -44 204z"/>
<path d="M55147 55448 l-25 -23 -10 -32 -11 -33 13 0 14 0 6 26 7 26 25 23 25
23 -10 6 -10 6 -24 -22z"/>
<path d="M46983 55282 l-12 -8 96 -205 96 -206 19 5 19 5 -4 11 c-22 55 -191
406 -196 406 -3 0 -11 -4 -18 -8z"/>
<path d="M26590 55246 c0 -9 74 -75 84 -76 l9 0 -19 21 c-22 25 -74 63 -74 55z"/>
<path d="M50730 55201 c0 -4 26 -19 58 -34 97 -44 167 -97 192 -145 l11 -23
-6 -31 -7 -31 23 7 c13 4 56 14 94 24 l70 16 512 -1 512 -1 30 -18 31 -19 -5
-15 c-4 -8 -67 -107 -141 -220 l-134 -205 -118 -150 -119 -150 -15 1 -15 1 4
-18 5 -19 13 0 13 0 5 18 c3 9 58 85 124 167 l119 150 138 213 c76 116 142
212 146 212 3 0 7 7 7 15 l0 15 -14 0 c-8 0 -26 8 -40 18 l-27 17 -486 5 -485
5 -70 -12 c-38 -7 -86 -17 -105 -23 -47 -14 -48 -13 -47 13 0 12 -3 30 -7 39
l-8 17 48 -15 c26 -8 52 -14 58 -14 l10 0 -9 8 c-6 4 -32 14 -60 21 l-50 12
-33 26 -34 26 5 31 c3 17 9 40 13 50 l7 19 -10 -6 -11 -7 -6 -35 -7 -36 -27
20 c-26 18 -97 52 -134 65 l-18 5 0 -8z"/>
<path d="M73831 55016 l-23 -45 -62 -58 c-33 -32 -80 -75 -104 -95 l-43 -36 8
-5 9 -6 102 96 103 96 25 48 24 49 -7 0 c-5 0 -19 -20 -32 -44z"/>
<path d="M52300 54963 c1 -10 361 -245 367 -239 4 3 -258 180 -354 240 l-13 7
0 -8z"/>
<path d="M31660 54892 c0 -4 33 -25 73 -46 39 -22 117 -69 172 -106 121 -80
125 -83 125 -75 0 7 -181 125 -287 186 -46 27 -83 45 -83 41z"/>
<path d="M52339 54878 c-41 -79 -216 -335 -358 -525 l-166 -222 -12 -1 -12 0
5 -15 c4 -8 11 -15 17 -15 6 0 37 -23 69 -51 33 -28 61 -49 64 -46 3 3 -24 30
-60 60 l-65 55 160 214 160 213 106 163 c58 89 109 162 114 162 4 0 77 -48
161 -107 84 -58 215 -149 290 -200 l137 -93 5 8 5 8 -171 115 c-230 153 -410
276 -425 289 l-12 10 -12 -22z"/>
<path d="M50921 54868 c1 -13 4 -33 7 -44 l7 -22 95 -74 c346 -269 452 -350
456 -346 2 3 -24 27 -58 54 -204 158 -455 359 -470 376 l-18 20 0 24 0 23 -10
6 -10 6 1 -23z"/>
<path d="M87945 54584 c58 -114 106 -212 108 -218 l4 -11 7 6 7 6 -55 119
c-63 138 -149 297 -164 302 l-11 3 104 -207z"/>
<path d="M47898 54689 c-87 -44 -158 -81 -158 -83 0 -6 116 47 230 104 92 46
95 48 89 54 -2 2 -75 -32 -161 -75z"/>
<path d="M50298 54578 l-67 -73 -6 -23 -5 -22 42 -58 c23 -31 44 -59 45 -61 2
-2 5 -2 8 1 3 2 -15 31 -39 64 l-44 58 13 26 c8 14 43 55 78 93 l65 67 -11 0
c-6 0 -42 -33 -79 -72z"/>
<path d="M18067 54613 l-5 -8 87 -217 86 -218 12 0 11 0 -89 221 c-48 122 -90
224 -93 226 -2 2 -6 1 -9 -4z"/>
<path d="M47746 54513 c14 -38 35 -93 46 -123 l20 -55 43 -45 43 -45 47 -102
48 -103 8 0 9 0 -24 53 c-13 28 -36 78 -50 109 l-27 57 -43 48 -43 48 -21 58
c-12 31 -31 82 -43 112 l-20 55 -10 0 -9 0 26 -67z"/>
<path d="M50190 54573 c0 -12 38 -48 45 -41 3 2 -6 15 -20 28 l-25 23 0 -10z"/>
<path d="M51120 54572 c0 -10 103 -96 210 -177 36 -26 69 -52 74 -56 l9 -8
-78 -86 c-43 -47 -76 -88 -73 -90 3 -3 38 32 78 77 40 46 76 84 79 86 6 2 124
-88 331 -253 63 -51 125 -95 137 -99 l22 -7 88 -81 c48 -44 136 -116 196 -160
l107 -80 43 -91 c24 -51 59 -127 77 -169 19 -43 37 -78 41 -78 l8 0 -18 43
c-76 175 -106 238 -133 280 l-30 47 -87 63 c-47 34 -129 101 -182 149 l-96 87
-24 6 -25 6 -109 90 c-61 49 -161 129 -222 178 l-113 89 15 12 c8 7 15 17 15
23 l0 10 -18 -16 c-10 -10 -22 -17 -26 -17 -10 0 -157 113 -238 183 l-58 49 0
-10z"/>
<path d="M50160 54542 c0 -5 9 -17 20 -27 l20 -18 6 6 6 6 -7 10 c-3 6 -15 16
-26 21 l-19 11 0 -9z"/>
<path d="M52789 54103 c-252 -381 -300 -462 -320 -533 -7 -25 -15 -49 -19 -53
l-7 -8 41 -82 c49 -98 45 -91 50 -86 2 2 -13 40 -34 84 l-38 80 8 10 c4 5 13
28 20 50 7 22 28 71 47 108 l34 68 230 349 231 350 -4 10 -3 11 -236 -358z"/>
<path d="M87991 54356 c-7 -8 -15 -31 -18 -52 l-6 -37 11 7 12 7 0 18 c0 9 7
26 15 37 24 32 11 51 -14 20z"/>
<path d="M49125 54244 c-214 -108 -279 -144 -272 -150 5 -5 330 155 437 215
l55 31 -15 -1 c-8 0 -100 -43 -205 -95z"/>
<path d="M87975 54258 c-88 -48 -815 -565 -815 -579 0 -15 8 -11 63 29 107 80
625 439 700 487 43 27 81 53 83 57 8 13 -11 16 -31 6z"/>
<path d="M48172 54160 c-79 -43 -149 -83 -155 -90 -11 -12 108 48 251 127 57
32 73 44 55 42 -5 0 -73 -36 -151 -79z"/>
<path d="M87884 54129 c-77 -49 -172 -113 -212 -142 l-74 -51 11 -4 10 -3 205
137 c174 116 225 154 202 154 -2 0 -66 -41 -142 -91z"/>
<path d="M88090 54191 c0 -6 44 -92 98 -192 l99 -183 12 -4 13 -4 -71 133
c-40 74 -86 162 -104 197 -28 56 -47 77 -47 53z"/>
<path d="M62131 54165 c-1 -25 86 -445 93 -453 l6 -5 0 11 c0 14 -89 443 -94
457 l-4 10 -1 -20z"/>
<path d="M53546 54141 c5 -4 158 -108 339 -230 182 -122 369 -249 418 -283
l87 -61 153 73 c83 41 176 89 204 108 l53 35 26 86 c67 219 82 273 75 265 -9
-9 -27 -65 -80 -240 l-31 -102 -63 -40 c-34 -23 -124 -70 -199 -106 l-137 -65
-138 96 c-205 142 -702 473 -710 473 l-7 0 10 -9z"/>
<path d="M51196 54111 l-17 -19 9 -6 9 -6 17 19 17 19 -9 6 -9 6 -17 -19z"/>
<path d="M54952 54098 c-6 -18 -32 -103 -57 -188 -26 -85 -56 -181 -67 -213
-12 -31 -18 -60 -15 -63 3 -3 21 43 40 103 55 167 119 385 114 390 -3 2 -10
-11 -15 -29z"/>
<path d="M53520 54112 c0 -5 52 -43 115 -86 63 -42 115 -72 115 -68 0 5 -52
43 -115 86 -63 42 -115 72 -115 68z"/>
<path d="M48862 54015 c23 -47 46 -85 50 -85 l8 0 -42 85 c-23 47 -46 85 -50
85 l-8 0 42 -85z"/>
<path d="M80811 54032 c-1 -9 254 -1039 300 -1214 l10 -38 9 0 10 0 -10 23
c-5 12 -77 292 -160 622 -83 330 -152 605 -155 610 l-3 10 -1 -13z"/>
<path d="M50680 53996 c0 -2 12 -24 26 -50 l26 -46 21 -12 22 -11 -21 24 c-11
13 -31 41 -43 62 -20 33 -31 45 -31 33z"/>
<path d="M32595 53775 c-88 -73 -161 -139 -164 -146 -3 -10 265 207 324 262
l19 19 -9 0 c-6 -1 -82 -61 -170 -135z"/>
<path d="M49921 53783 c-117 -59 -208 -109 -203 -111 5 -1 96 42 203 96 107
55 201 102 209 104 l15 5 -6 7 -6 6 -212 -107z"/>
<path d="M13471 53874 c0 -5 84 -76 187 -159 103 -82 262 -212 354 -287 93
-76 173 -138 178 -138 23 0 6 18 -78 85 -48 38 -206 166 -351 283 -145 117
-269 216 -277 219 l-14 5 1 -8z"/>
<path d="M50820 53835 l12 -15 16 0 16 0 -20 15 c-10 8 -23 15 -28 15 l-8 0
12 -15z"/>
<path d="M30455 53704 c-101 -32 -237 -85 -231 -91 2 -2 30 7 62 20 33 14 105
39 162 57 56 17 102 33 102 36 0 7 -12 4 -95 -22z"/>
<path d="M68125 53669 c-66 -15 -273 -56 -460 -91 l-340 -63 21 -3 21 -3 299
56 c290 55 575 114 583 121 13 12 -16 8 -124 -17z"/>
<path d="M10810 53492 l0 -10 48 -16 c26 -8 89 -25 139 -36 l93 -20 65 0 64 0
36 17 35 17 0 13 0 14 -30 -16 -29 -15 -58 -6 -58 -6 -130 31 c-71 16 -140 33
-152 37 l-23 6 0 -10z"/>
<path d="M48741 53482 c-2 -29 209 -492 224 -492 2 0 -16 44 -42 98 -25 53
-72 158 -105 232 -32 74 -63 144 -68 155 l-9 20 0 -13z"/>
<path d="M67355 53465 c3 -17 12 -63 20 -104 l13 -74 -8 -23 -9 -23 -28 -14
c-15 -8 -65 -23 -110 -32 -46 -10 -83 -21 -83 -25 l0 -7 93 21 c50 12 102 27
115 34 l23 13 10 25 9 26 -16 96 -16 97 -9 10 -9 9 5 -29z"/>
<path d="M51158 53366 c-109 -55 -198 -103 -198 -106 0 -8 409 194 409 203 1
12 -6 8 -211 -97z"/>
<path d="M49551 53271 l-204 -106 -5 -13 -4 -14 208 108 c115 59 213 110 217
114 l9 8 -9 5 -8 5 -204 -107z"/>
<path d="M9820 53365 c0 -2 48 -28 108 -56 l107 -51 109 -28 c60 -16 105 -25
100 -21 -5 4 -56 20 -114 36 l-105 27 -97 49 c-97 49 -108 53 -108 44z"/>
<path d="M51525 53278 c-44 -22 -91 -50 -103 -62 -24 -21 -56 -85 -48 -94 3
-2 11 11 19 29 20 47 48 70 152 122 l90 46 -15 0 c-8 0 -51 -18 -95 -41z"/>
<path d="M52442 53266 l-22 -24 -103 -7 -102 -8 22 -8 22 -8 88 10 87 10 21
19 20 19 13 -39 c6 -21 59 -136 117 -256 l105 -218 -12 -8 c-7 -4 -41 -24 -76
-44 l-62 -35 -10 6 c-5 3 -26 37 -46 75 -21 38 -40 68 -42 66 -2 -2 13 -36 33
-75 l36 -72 16 -6 16 -6 55 28 c29 16 77 42 105 59 29 17 86 46 127 65 113 51
380 193 380 202 0 4 -55 -22 -122 -59 -68 -36 -172 -88 -232 -114 -60 -27
-119 -56 -131 -64 l-21 -14 -101 208 c-55 114 -111 233 -124 265 -12 31 -25
57 -28 57 -3 0 -16 -11 -29 -24z"/>
<path d="M52030 53108 c-30 -17 -207 -114 -393 -216 -186 -101 -336 -186 -333
-189 2 -2 143 72 313 165 169 93 345 188 390 210 45 23 84 46 88 52 l6 10 -8
-1 c-4 -1 -33 -15 -63 -31z"/>
<path d="M53422 53038 c-95 -50 -170 -93 -168 -95 3 -3 84 36 180 86 l175 91
43 -5 43 -5 -20 9 c-11 5 -33 10 -50 10 l-30 -1 -173 -90z"/>
<path d="M34640 53111 c0 -5 9 -11 20 -14 l20 -5 15 -36 c18 -43 25 -45 25 -8
l0 28 -20 22 -21 22 -19 0 -20 0 0 -9z"/>
<path d="M51170 53055 c-69 -35 -122 -64 -118 -64 4 -1 62 26 130 59 l123 61
25 -6 25 -6 35 -35 36 -34 19 -55 18 -55 10 0 9 0 -7 18 c-4 9 -14 35 -21 58
l-15 41 -38 37 -38 37 -34 4 -34 5 -125 -65z"/>
<path d="M55263 53114 l-12 -5 5 -12 4 -12 67 5 66 5 5 13 4 12 -64 -1 c-34 0
-68 -3 -75 -5z"/>
<path d="M34450 53049 c-47 -16 -113 -37 -147 -45 l-62 -16 -9 -12 c-7 -9 -62
-207 -98 -351 l-5 -20 9 15 c5 8 26 78 46 155 21 77 42 155 47 173 l11 32 13
0 c12 0 92 23 265 76 l75 23 -30 0 -30 -1 -85 -29z"/>
<path d="M50520 53052 l0 -9 -201 -97 c-110 -54 -199 -100 -196 -102 2 -2 92
39 201 91 108 52 200 95 204 95 8 0 115 -210 110 -215 -2 -1 -82 -42 -178 -90
-97 -48 -187 -95 -200 -106 -14 -10 65 26 175 81 110 55 203 100 207 100 8 0
123 -197 132 -227 l7 -23 10 0 c5 0 9 2 9 5 0 11 -28 67 -73 143 l-48 82 7 12
7 11 -11 -7 -12 -7 -1 13 c-1 7 -1 17 0 21 l1 8 -8 -5 -8 -5 -52 105 c-29 57
-52 111 -52 119 l0 15 -15 0 c-8 0 -15 -4 -15 -8z"/>
<path d="M55089 52799 l-90 -182 9 -9 10 -10 70 134 c85 162 122 236 122 243
0 3 -7 5 -15 5 l-15 0 -91 -181z"/>
<path d="M12622 52717 c-56 -81 -102 -149 -102 -152 0 -22 31 15 114 135 l98
140 -4 12 -4 11 -102 -146z"/>
<path d="M77736 52774 c-104 -40 -191 -75 -193 -78 -2 -2 -1 -6 4 -9 l8 -5
198 76 197 76 0 8 c0 14 -21 7 -214 -68z"/>
<path d="M49459 52798 l-12 -23 19 16 c10 10 28 19 39 22 l20 5 -27 1 -27 1
-12 -22z"/>
<path d="M51066 52674 c-104 -52 -184 -94 -178 -94 16 0 382 177 382 184 0 11
-15 4 -204 -90z"/>
<path d="M12212 52740 c2 -5 250 -183 552 -395 l548 -385 9 6 c5 3 9 7 9 9 0
7 -1100 775 -1111 775 l-11 0 4 -10z"/>
<path d="M51260 52731 c0 -6 4 -13 10 -16 l10 -6 -6 15 c-7 18 -14 21 -14 7z"/>
<path d="M52651 52645 l-114 -55 5 -6 6 -5 111 55 c61 31 111 58 111 61 0 7 6
10 -119 -50z"/>
<path d="M42170 52671 c0 -6 5 -13 10 -16 l10 -6 0 15 0 16 -10 0 c-5 0 -10
-4 -10 -9z"/>
<path d="M85585 52464 l-179 -134 13 0 14 0 173 128 c156 115 189 143 167 141
-5 0 -89 -61 -188 -135z"/>
<path d="M50910 52558 c0 -9 5 -20 10 -23 l10 -6 0 8 c0 4 -5 15 -10 23 l-10
15 0 -17z"/>
<path d="M85807 52543 l-7 -6 11 -14 11 -13 42 0 41 1 18 13 18 14 -9 6 -9 5
-32 -12 -31 -12 -20 13 c-23 14 -24 14 -33 5z"/>
<path d="M50780 52504 l0 -22 15 -12 c19 -16 19 -10 0 26 l-15 29 0 -21z"/>
<path d="M12505 52479 c-4 -6 -5 -12 -4 -13 2 -2 63 -43 134 -92 72 -48 243
-168 382 -266 139 -98 259 -181 268 -184 l15 -6 0 10 0 10 -267 189 c-148 104
-325 228 -395 276 l-127 87 -6 -11z"/>
<path d="M22522 52333 l-41 -98 -36 -144 c-20 -79 -34 -148 -32 -155 2 -6 18
50 37 124 l33 135 44 105 44 105 16 13 17 12 -20 0 -21 0 -41 -97z"/>
<path d="M30923 52337 c-59 -51 -120 -98 -135 -104 l-27 -12 -298 -31 c-320
-32 -377 -40 -370 -46 3 -3 155 11 339 30 l335 35 25 10 25 9 112 97 c102 88
119 105 106 105 -2 0 -53 -42 -112 -93z"/>
<path d="M37120 52379 c0 -10 201 -374 212 -384 l10 -10 -20 40 c-11 22 -57
108 -102 190 -73 136 -100 179 -100 164z"/>
<path d="M27045 52108 l0 -228 8 0 7 0 -1 173 c-1 94 -4 197 -8 227 l-7 55 1
-227z"/>
<path d="M75706 52031 l-190 -77 -3 -11 -4 -12 98 38 c54 22 143 57 198 79
l99 39 4 12 4 11 -9 -1 c-4 0 -93 -35 -197 -78z"/>
<path d="M89090 52085 c0 -7 5 -17 11 -21 l11 -7 -5 -39 -5 -39 11 4 12 4 3
27 c2 16 1 39 -2 51 l-6 23 -15 6 -15 5 0 -14z"/>
<path d="M78258 51974 l-6 -9 79 -200 c44 -110 83 -209 87 -219 l8 -20 6 10 6
9 -79 200 c-43 110 -83 209 -87 219 l-8 20 -6 -10z"/>
<path d="M13159 51795 c-165 -236 -231 -329 -271 -376 -21 -25 -38 -48 -38
-52 0 -37 74 56 338 426 l84 119 -9 9 -9 9 -95 -135z"/>
<path d="M13239 51813 c-31 -43 -73 -101 -93 -130 l-37 -51 9 -6 8 -5 92 128
c51 71 92 131 92 135 0 19 -21 -2 -71 -71z"/>
<path d="M53778 51664 l-188 -94 0 -10 c0 -6 2 -10 5 -10 5 0 367 180 374 185
1 2 1 8 0 13 l-4 10 -187 -94z"/>
<path d="M90880 51750 l0 -10 15 0 c8 0 90 -36 182 -79 l168 -79 9 6 10 6
-164 78 c-90 43 -176 81 -192 83 l-28 5 0 -10z"/>
<path d="M32291 51473 c21 -126 39 -232 39 -237 l0 -9 6 6 6 5 -38 231 c-21
127 -41 231 -45 231 l-6 0 38 -227z"/>
<path d="M59213 51557 c-72 -40 -128 -73 -123 -75 4 -2 71 31 147 72 76 42
131 76 123 75 -8 0 -74 -33 -147 -72z"/>
<path d="M3175 51601 c-33 -10 -125 -41 -205 -69 l-145 -51 -3 -11 -4 -11 28
7 c16 4 117 37 226 74 l197 67 -6 7 c-9 9 -20 7 -88 -13z"/>
<path d="M68665 51229 c-341 -149 -622 -272 -624 -275 -2 -2 -2 -7 1 -10 l6
-6 614 267 c337 147 617 271 622 276 5 5 8 11 5 13 -3 3 -283 -117 -624 -265z"/>
<path d="M69320 51472 c0 -6 13 -44 29 -85 16 -40 34 -93 41 -117 27 -104 42
-151 47 -146 7 6 -42 174 -79 271 -31 82 -38 97 -38 77z"/>
<path d="M69280 51458 c0 -3 13 -36 28 -74 16 -38 34 -91 41 -119 22 -91 42
-157 47 -153 7 7 -51 217 -76 278 -21 50 -40 82 -40 68z"/>
<path d="M45878 51443 c-20 -5 -23 -18 -8 -28 l10 -6 20 11 21 11 -6 10 c-6 9
-9 10 -37 2z"/>
<path d="M60729 51403 c-15 -15 -32 -38 -38 -50 l-11 -22 0 -43 0 -43 10 -15
9 -15 -5 51 -6 50 15 30 c8 16 24 37 36 48 l20 18 31 -4 30 -5 0 9 c0 4 -6 8
-12 8 -7 0 -22 3 -33 6 l-20 5 -26 -28z"/>
<path d="M27657 51363 c-3 -10 -8 -99 -11 -198 -6 -223 0 -209 13 29 10 171 9
210 -2 169z"/>
<path d="M91300 51128 c-74 -138 -163 -305 -198 -369 l-62 -118 8 -5 8 -5 197
368 c108 202 197 370 197 374 0 28 -31 -24 -150 -245z"/>
<path d="M45777 51330 c4 -17 23 -29 23 -16 0 12 -13 36 -20 36 l-8 0 5 -20z"/>
<path d="M60811 51186 c2 -2 99 -25 214 -50 116 -26 219 -49 230 -52 l20 -6
-10 10 -10 10 -210 46 c-196 43 -244 52 -234 42z"/>
<path d="M14755 50971 l-5 -10 342 -239 c189 -131 348 -242 355 -245 l12 -7 5
9 6 9 -342 239 c-189 132 -348 242 -355 246 l-12 7 -6 -9z"/>
<path d="M14725 50931 l-5 -10 344 -240 c190 -133 352 -244 360 -247 l16 -6 0
10 0 10 -342 239 c-189 132 -348 242 -355 246 l-12 7 -6 -9z"/>
<path d="M59880 50871 c-19 -10 -81 -33 -137 -52 l-101 -33 -42 -215 -41 -216
-16 -38 -16 -37 5 -6 6 -5 18 46 17 47 41 205 41 206 90 32 c126 45 175 67
175 77 0 10 2 11 -40 -11z"/>
<path d="M27764 50700 l0 -185 3 93 c2 50 2 134 0 185 l-3 92 0 -185z"/>
<path d="M27805 50490 l0 -395 2 198 c2 108 2 286 0 395 l-2 197 0 -395z"/>
<path d="M32444 50760 c3 -14 19 -117 36 -230 59 -398 92 -605 96 -609 13 -14
10 26 -21 219 -19 118 -49 307 -66 420 l-32 205 -9 10 -9 10 5 -25z"/>
<path d="M6960 50755 l-85 -13 -80 -1 -80 -1 -38 9 -38 9 4 -11 c6 -18 45 -25
137 -26 l85 0 100 14 c55 8 106 15 113 15 l12 0 0 10 0 10 -22 -1 c-13 -1 -61
-7 -108 -14z"/>
<path d="M59507 50633 c-14 -60 -31 -136 -38 -169 l-13 -62 15 -68 14 -69 17
-3 17 -3 -15 53 c-7 29 -14 67 -14 83 0 26 50 274 66 328 l5 17 -14 0 -15 0
-25 -107z"/>
<path d="M74540 50652 c-47 -27 -230 -126 -408 -222 -178 -95 -321 -174 -319
-176 2 -2 141 69 308 159 167 90 350 188 407 217 56 29 102 57 102 62 0 12 2
13 -90 -40z"/>
<path d="M59546 50512 l-38 -183 6 -6 6 -6 0 5 c0 4 16 82 35 174 20 92 34
175 33 183 l-3 16 -39 -183z"/>
<path d="M61587 50439 c-21 -94 -36 -173 -34 -176 3 -2 15 40 27 94 12 54 30
133 40 176 l17 77 -6 0 c-3 0 -23 -77 -44 -171z"/>
<path d="M50259 50508 c104 -223 182 -380 186 -376 7 6 -208 457 -217 458 -4
0 10 -37 31 -82z"/>
<path d="M8956 50563 l-6 -7 133 -46 133 -47 87 -45 87 -45 5 7 c2 4 1 10 -3
14 -16 17 -187 91 -302 132 -144 51 -125 46 -134 37z"/>
<path d="M44991 50458 l-214 -112 10 -3 11 -4 213 112 c236 123 228 119 208
119 -8 0 -110 -51 -228 -112z"/>
<path d="M17955 50401 c-88 -117 -145 -211 -144 -241 l0 -15 13 30 c20 47 101
170 167 252 51 65 68 93 56 93 -1 0 -43 -54 -92 -119z"/>
<path d="M48640 50343 c-76 -51 -111 -69 -238 -124 l-43 -19 6 -9 5 -10 102
45 102 46 73 50 c41 28 76 55 79 60 15 24 -8 13 -86 -39z"/>
<path d="M71986 50369 c-3 -19 -8 -117 -11 -219 l-6 -185 5 6 c4 3 11 100 16
214 9 197 8 259 -4 184z"/>
<path d="M33610 50384 c0 -22 61 -388 65 -393 3 -2 5 2 5 10 0 29 -58 381 -64
386 l-6 6 0 -9z"/>
<path d="M33575 50350 c37 -255 65 -411 65 -359 0 33 -52 356 -60 374 l-10 20
5 -35z"/>
<path d="M31685 50265 c10 -134 25 -350 25 -369 l0 -19 6 6 6 5 -12 209 -13
208 -9 15 -8 15 5 -70z"/>
<path d="M31724 50275 c3 -33 8 -130 12 -215 l7 -155 9 -15 9 -15 -5 55 c-3
30 -8 127 -12 215 l-6 160 -10 15 -9 15 5 -60z"/>
<path d="M59310 50319 c-39 -16 -61 -40 -86 -94 l-24 -50 0 -66 c0 -37 3 -80
6 -96 l6 -30 22 -28 22 -28 13 4 12 4 -25 33 -24 33 -7 54 -6 55 11 55 11 55
27 31 26 32 33 13 c18 8 44 14 58 14 l26 0 29 -15 30 -16 0 10 c0 5 -7 17 -16
25 l-15 16 -52 -1 -52 0 -25 -10z"/>
<path d="M30487 50080 l5 -195 8 -35 8 -35 -5 170 c-3 94 -9 197 -13 230 l-8
60 5 -195z"/>
<path d="M66155 50133 c-104 -46 -194 -88 -199 -93 -22 -22 5 -18 65 9 35 15
128 57 206 91 l143 62 -6 9 c-7 13 0 15 -209 -78z"/>
<path d="M50459 49946 l-196 -101 4 -12 4 -12 187 96 c201 103 206 106 201
121 l-4 10 -196 -102z"/>
<path d="M60000 50020 l0 -9 38 -10 c20 -5 343 -77 717 -159 l680 -150 9 9 9
8 -14 5 c-18 7 -1418 316 -1430 316 -5 0 -9 -4 -9 -10z"/>
<path d="M34326 49982 l-6 -10 46 -7 46 -7 6 6 c9 9 0 13 -44 21 l-42 6 -6 -9z"/>
<path d="M63750 49789 c0 -5 1 -9 3 -9 1 0 96 -20 212 -45 241 -52 215 -47
215 -36 l0 8 -52 11 c-29 6 -126 26 -215 45 l-163 35 0 -9z"/>
<path d="M23280 49720 c41 -4 141 -10 223 -12 l147 -3 0 7 0 8 -83 0 c-46 0
-146 2 -223 5 l-139 4 75 -9z"/>
<path d="M65100 49670 l0 -13 7 6 6 7 -6 7 -7 6 0 -13z"/>
<path d="M64615 49620 c3 -5 13 -10 21 -10 l14 0 0 10 0 10 -21 0 -20 0 6 -10z"/>
<path d="M61942 49589 l5 -14 239 -52 c576 -127 697 -153 710 -153 l14 0 0 13
0 12 -252 54 c-139 29 -346 73 -461 97 -114 24 -219 47 -234 50 l-26 7 5 -14z"/>
<path d="M64620 49560 l0 -10 15 0 15 0 0 10 0 10 -15 0 -15 0 0 -10z"/>
<path d="M38151 49524 c-6 -22 -28 -108 -50 -191 l-39 -153 6 0 c9 0 105 371
98 377 -3 3 -9 -12 -15 -33z"/>
<path d="M38196 49539 c-3 -8 -23 -86 -45 -175 -22 -89 -43 -170 -47 -180 l-7
-19 11 10 11 10 45 180 c25 99 43 181 41 184 -3 2 -7 -2 -9 -10z"/>
<path d="M35991 49430 c-1 -14 24 -171 54 -350 62 -365 65 -383 71 -377 4 4
-112 721 -120 742 -3 6 -5 -1 -5 -15z"/>
<path d="M11816 49351 l-5 -7 62 -36 c79 -45 117 -55 245 -64 l102 -7 0 12 0
11 -52 0 c-29 0 -84 5 -123 10 l-70 10 -77 39 -78 40 -4 -8z"/>
<path d="M63400 49270 l0 -10 23 -4 c12 -3 49 -10 82 -17 33 -6 161 -35 285
-65 l225 -55 120 -19 121 -18 104 8 c58 5 106 9 108 10 1 0 2 5 2 11 l0 11
-108 -7 -108 -7 -94 12 -95 12 -225 55 c-231 56 -401 93 -426 93 l-14 0 0 -10z"/>
<path d="M84926 49134 c161 -208 184 -236 184 -220 0 9 -232 301 -242 305 -6
2 20 -36 58 -85z"/>
<path d="M33830 49018 c0 -9 11 -92 24 -185 14 -92 27 -186 30 -208 13 -104
70 -480 73 -484 11 -15 7 28 -22 224 -18 121 -31 222 -29 224 2 2 117 10 255
17 l252 14 6 6 6 7 -105 -6 c-58 -4 -176 -10 -262 -13 l-157 -7 -5 34 c-4 19
-18 112 -31 208 -22 155 -35 216 -35 169z"/>
<path d="M81286 48918 c12 -40 28 -40 17 0 l-5 22 -10 0 -9 0 7 -22z"/>
<path d="M43838 48830 c11 -25 90 -189 176 -365 86 -176 158 -324 160 -330 2
-5 6 -8 9 -5 5 6 -338 719 -354 735 l-10 10 19 -45z"/>
<path d="M76415 48855 c-33 -7 -132 -21 -220 -30 -160 -17 -174 -20 -162 -31
l6 -6 153 16 c84 9 190 24 235 33 l83 16 -6 8 c-6 11 -13 10 -89 -6z"/>
<path d="M75938 48853 l-28 -4 0 -10 0 -9 19 0 c26 0 51 10 51 21 0 5 -3 8 -7
8 -5 -1 -20 -4 -35 -6z"/>
<path d="M91417 48678 c-81 -94 -147 -176 -147 -182 l0 -10 8 10 c5 5 64 74
132 154 68 80 132 155 143 167 11 13 18 25 15 28 -2 3 -70 -73 -151 -167z"/>
<path d="M56605 48709 c-104 -54 -187 -98 -182 -99 10 0 387 189 387 195 0 9
-16 2 -205 -96z"/>
<path d="M56628 48676 c-98 -51 -181 -96 -185 -100 -10 -10 273 131 337 168
101 58 14 19 -152 -68z"/>
<path d="M12284 48734 c3 -9 16 -29 29 -44 l22 -28 55 -33 c30 -19 87 -46 126
-60 l72 -27 60 -7 60 -7 6 10 6 9 -61 7 -61 7 -72 26 c-39 15 -96 42 -126 61
l-55 34 -25 34 c-14 18 -29 34 -34 34 l-8 0 6 -16z"/>
<path d="M35030 48664 c-223 -12 -416 -23 -430 -24 l-25 -2 17 -5 c19 -5 1001
46 1007 53 8 8 -164 1 -569 -22z"/>
<path d="M43242 48672 l-13 -9 30 0 30 0 -5 9 c-7 10 -25 10 -42 0z"/>
<path d="M39946 48644 c-8 -21 -8 -24 3 -24 5 0 11 9 14 20 l5 20 -8 0 c-4 0
-11 -7 -14 -16z"/>
<path d="M34475 48630 l-6 -10 25 0 25 0 6 10 6 10 -25 0 -25 0 -6 -10z"/>
<path d="M33595 48549 c-71 -5 -141 -10 -155 -13 -38 -7 296 6 375 14 l70 7
-80 0 c-44 0 -138 -4 -210 -8z"/>
<path d="M41545 48514 l-30 -14 25 5 c14 2 31 5 38 5 l12 0 0 10 c0 13 -9 12
-45 -6z"/>
<path d="M44039 48498 c22 -56 170 -352 171 -341 0 15 -166 363 -174 363 -3 0
-1 -10 3 -22z"/>
<path d="M78070 48089 c-257 -38 -1400 -189 -1433 -189 -4 0 -7 -7 -7 -15 l0
-14 28 4 c15 3 259 35 542 71 453 57 1155 154 1233 170 l27 6 0 9 0 9 -32 -1
c-18 -1 -179 -23 -358 -50z"/>
<path d="M33966 47778 c28 -194 57 -375 63 -403 21 -89 32 -127 36 -123 3 2
-6 49 -19 104 l-24 99 -48 338 c-26 185 -50 337 -54 337 l-6 0 52 -352z"/>
<path d="M29427 47920 c3 -96 9 -197 14 -225 l7 -50 -5 175 c-3 96 -9 198 -14
225 l-7 50 5 -175z"/>
<path d="M36413 48067 l-163 -9 0 -9 0 -8 33 4 c17 3 122 10 232 16 110 6 202
13 204 15 6 6 -119 2 -306 -9z"/>
<path d="M83986 47998 c19 -32 217 -299 225 -304 l9 -5 0 6 c0 12 -225 314
-233 315 l-8 0 7 -12z"/>
<path d="M43630 47800 l0 -13 7 6 6 7 -6 7 -7 6 0 -13z"/>
<path d="M31817 47600 c3 -96 9 -197 14 -225 l7 -50 -5 175 c-3 96 -9 198 -14
225 l-7 50 5 -175z"/>
<path d="M46730 47675 c-77 -40 -182 -87 -255 -115 -15 -6 -25 -13 -23 -16 8
-7 173 63 293 124 l100 51 -15 0 c-8 0 -53 -20 -100 -44z"/>
<path d="M90161 47290 c-78 -88 -145 -168 -148 -178 -4 -9 62 61 146 156 84
95 151 175 149 178 -3 2 -69 -68 -147 -156z"/>
<path d="M22279 47313 c-1 -71 -4 -190 -8 -266 l-6 -137 6 0 c13 0 18 61 25
293 l7 237 -11 0 -12 0 -1 -127z"/>
<path d="M42597 47413 l-7 -6 0 -204 0 -203 10 0 10 0 0 210 c0 116 -1 210 -3
210 -2 0 -7 -3 -10 -7z"/>
<path d="M53800 47370 l0 -11 23 -8 22 -9 9 6 9 5 -18 14 c-11 7 -25 13 -32
13 l-13 0 0 -10z"/>
<path d="M35208 47333 l-98 -4 0 -7 0 -7 92 3 c51 2 138 7 193 11 l100 8 -95
0 c-52 -1 -139 -3 -192 -4z"/>
<path d="M35862 47285 c-1 -27 5 -165 13 -305 8 -140 15 -276 15 -302 l0 -48
8 0 7 0 -17 327 c-9 180 -19 339 -21 353 l-4 25 -1 -50z"/>
<path d="M72637 47324 c-4 -4 -7 -17 -7 -28 l1 -21 10 18 c6 10 9 22 7 28 l-3
10 -8 -7z"/>
<path d="M20662 47113 l-21 -68 -21 -132 c-12 -73 -20 -138 -18 -144 2 -7 16
62 32 151 l28 164 19 48 19 48 -9 0 -8 0 -21 -67z"/>
<path d="M20701 47103 c-22 -71 -62 -292 -60 -334 1 -13 14 48 30 136 l28 160
20 53 19 52 -8 0 c-4 0 -17 -30 -29 -67z"/>
<path d="M46280 47104 l-85 -35 -285 -85 c-426 -127 -482 -145 -477 -150 2 -3
170 45 373 106 l369 110 103 41 c92 37 117 50 95 49 -5 -1 -46 -17 -93 -36z"/>
<path d="M28238 46943 c6 -2 18 -2 25 0 l12 5 -25 0 -25 0 13 -5z"/>
<path d="M18653 46631 c51 -103 93 -185 95 -180 3 8 -175 369 -182 369 -3 0
37 -85 87 -189z"/>
<path d="M89612 46765 l-103 -12 -11 -11 -11 -11 43 -106 c23 -58 45 -104 47
-101 3 3 -11 46 -31 96 -20 49 -36 96 -36 104 l0 14 33 6 c17 3 67 8 110 12
l78 7 5 8 5 9 -13 -1 c-7 -1 -59 -7 -116 -14z"/>
<path d="M28326 46583 c-3 -76 -8 -173 -10 -215 l-4 -78 8 0 9 0 5 33 c3 17 8
114 11 215 l5 182 -9 0 -9 0 -6 -137z"/>
<path d="M80704 46573 c3 -10 15 -56 27 -103 21 -81 33 -109 43 -99 3 2 -4 36
-15 74 -11 39 -24 87 -30 108 l-10 37 -10 0 -10 0 5 -17z"/>
<path d="M36847 46350 l5 -165 15 -55 c8 -30 19 -59 24 -64 12 -13 12 -10 -11
64 l-20 65 -1 100 c-1 55 -5 127 -9 160 l-8 60 5 -165z"/>
<path d="M52030 46486 c0 -7 79 -176 503 -1073 45 -95 85 -173 89 -173 7 0
-33 85 -359 775 -189 399 -232 486 -233 471z"/>
<path d="M93277 46483 l-5 -8 105 -145 c57 -80 122 -169 143 -198 l38 -54 6
10 6 10 -136 188 c-75 104 -140 193 -144 197 l-8 9 -5 -9z"/>
<path d="M80978 46433 l13 -5 6 6 6 6 -19 -1 -19 -1 13 -5z"/>
<path d="M80870 46420 l-25 -8 27 -1 27 -1 6 10 6 10 -8 -1 c-4 -1 -19 -5 -33
-9z"/>
<path d="M20245 46394 c-33 -14 -98 -38 -144 -55 -109 -38 -231 -92 -231 -101
l0 -8 58 26 c31 15 104 44 162 64 118 42 220 86 220 94 0 8 4 9 -65 -20z"/>
<path d="M50823 46318 c19 -35 58 -107 87 -160 l52 -98 9 0 10 0 -4 8 c-2 4
-41 76 -86 160 l-82 152 -11 0 -10 0 35 -62z"/>
<path d="M34442 46265 l-1 -110 12 -152 12 -152 9 -8 8 -8 -5 40 c-6 38 -25
312 -30 440 l-3 60 -2 -110z"/>
<path d="M30721 46343 c0 -10 4 -27 9 -38 l9 -20 0 38 1 37 -10 0 -10 0 1 -17z"/>
<path d="M30768 46283 l-58 -4 0 -11 0 -11 173 6 c94 4 198 7 230 7 l57 0 0
10 0 10 -172 -2 c-95 -1 -199 -3 -230 -5z"/>
<path d="M28300 46230 c0 -5 4 -10 9 -10 6 0 13 5 16 10 l6 10 -15 0 -16 0 0
-10z"/>
<path d="M92931 46186 l-11 -14 -43 -6 c-23 -4 -179 -16 -346 -26 -166 -10
-306 -21 -309 -24 l-5 -6 19 0 c63 0 643 41 664 46 14 4 33 13 42 21 l17 15
13 -8 c7 -4 41 -30 75 -56 l62 -49 74 -13 74 -13 24 -16 23 -17 51 0 50 0 63
32 c34 18 62 35 62 39 0 4 -30 -8 -67 -27 l-68 -34 -37 0 -37 0 -35 21 -35 20
-66 10 -67 9 -70 55 -70 55 -18 0 -18 0 -11 -14z"/>
<path d="M28205 46180 l-6 -10 16 0 16 0 -6 10 c-3 6 -8 10 -10 10 -2 0 -7 -4
-10 -10z"/>
<path d="M28159 46103 l-14 -16 -3 -164 -3 -163 10 0 11 0 0 153 0 153 15 20
c26 34 11 50 -16 17z"/>
<path d="M47410 46037 c-252 -83 -256 -85 -249 -91 6 -5 492 154 504 165 l9 9
-9 -1 c-6 -1 -120 -37 -255 -82z"/>
<path d="M93020 46076 l-25 -23 -62 -22 -61 -23 -64 -2 c-34 -2 -93 -3 -130
-4 l-68 -2 0 -11 0 -10 18 5 c9 3 69 6 132 8 l115 2 67 25 66 26 22 28 c26 33
23 35 -10 3z"/>
<path d="M52172 46084 c2 -5 49 -102 103 -216 54 -115 100 -206 103 -203 6 6
-189 414 -202 422 l-9 6 5 -9z"/>
<path d="M90388 46065 c-65 -14 -338 -116 -338 -126 0 -4 64 17 142 48 l142
54 64 14 c35 7 66 16 69 19 l6 6 -14 -1 c-8 -1 -40 -7 -71 -14z"/>
<path d="M93042 46050 l-22 -29 -82 -31 -82 -32 -28 6 -28 5 -95 -6 -95 -6 0
-10 0 -9 16 6 c9 4 69 7 133 7 l116 0 70 26 70 26 30 28 30 28 25 -14 25 -14
35 -1 35 0 53 -25 54 -25 54 0 54 0 71 36 c93 47 83 55 -12 9 l-73 -35 -41 0
-40 0 -47 25 -47 25 -38 0 -39 0 -39 20 c-22 11 -39 20 -40 19 0 0 -10 -13
-23 -29z"/>
<path d="M81344 45948 l-7 -11 11 7 c7 4 12 9 12 12 0 8 -9 4 -16 -8z"/>
<path d="M81366 45879 c-7 -19 -17 -50 -21 -69 -4 -19 -18 -58 -31 -87 l-23
-52 -26 -7 -25 -6 5 -32 6 -31 -10 -27 -10 -27 8 -6 9 -5 12 30 12 30 -5 26
-5 26 25 11 24 11 16 35 c19 45 63 205 57 210 -2 2 -10 -11 -18 -30z"/>
<path d="M81300 45792 c-12 -38 -25 -74 -30 -81 l-7 -13 -34 -8 -34 -8 32 -1
32 -1 14 14 14 14 22 72 c13 39 21 74 18 76 -3 3 -15 -26 -27 -64z"/>
<path d="M46106 45781 c12 -11 219 -51 303 -58 l67 -6 87 13 87 12 0 9 0 10
-32 -6 c-18 -3 -59 -9 -91 -14 l-57 -8 -98 13 c-53 7 -130 20 -170 28 -40 9
-81 16 -90 16 l-16 0 10 -9z"/>
<path d="M36000 45750 c-36 -3 -72 -10 -81 -16 -29 -16 -570 -497 -565 -501 3
-3 129 105 280 239 l276 243 32 12 33 12 60 1 c33 1 83 5 110 10 l50 7 -65 0
c-36 0 -94 -3 -130 -7z"/>
<path d="M15435 45390 c3 -63 8 -152 12 -197 l6 -83 10 0 9 0 -6 53 c-3 28 -8
111 -12 182 l-6 130 -10 15 -9 15 6 -115z"/>
<path d="M43905 45008 c-3 -112 -9 -211 -11 -220 l-5 -18 9 0 10 0 6 193 c4
105 9 204 12 220 l6 27 -10 0 -10 0 -7 -202z"/>
<path d="M48175 44939 c-200 -58 -199 -58 -193 -65 3 -2 81 17 174 44 93 28
187 54 209 60 l40 10 -30 0 -30 1 -170 -50z"/>
<path d="M94360 44984 c0 -3 55 -86 122 -185 106 -156 138 -196 138 -173 0 3
-55 86 -122 185 -107 157 -138 196 -138 173z"/>
<path d="M34286 44724 c-197 -13 -227 -17 -214 -29 5 -5 316 11 416 21 l52 5
0 10 0 9 -22 -1 c-13 -1 -117 -8 -232 -15z"/>
<path d="M15432 44598 l-2 -128 16 -40 c9 -23 18 -39 21 -37 2 2 -1 17 -8 33
l-11 29 -7 135 -8 135 -1 -127z"/>
<path d="M94267 44403 c-163 -119 -295 -218 -293 -221 3 -2 143 95 312 217
168 122 300 221 293 220 -8 0 -148 -98 -312 -216z"/>
<path d="M94305 44379 c-159 -115 -297 -214 -305 -219 -8 -5 -12 -11 -9 -14 4
-4 581 404 614 435 l9 9 -9 0 c-6 -1 -140 -95 -300 -211z"/>
<path d="M93654 44462 c2 -4 28 -19 56 -32 l51 -24 91 -125 c50 -69 93 -128
95 -130 2 -2 5 -2 8 0 2 3 -38 63 -91 135 l-95 129 -52 27 c-29 15 -56 27 -60
28 l-8 0 5 -8z"/>
<path d="M58395 44399 c-4 -6 -5 -13 -2 -16 7 -7 27 6 27 18 0 12 -17 12 -25
-2z"/>
<path d="M52870 44315 l-124 -65 -17 0 c-10 0 -21 -5 -24 -10 l-7 -11 24 4
c21 3 241 111 278 136 l15 11 -10 0 c-5 0 -66 -30 -135 -65z"/>
<path d="M87896 44017 c-26 -48 -46 -92 -44 -98 l3 -9 48 87 47 87 -3 10 -3
10 -48 -87z"/>
<path d="M28440 44078 c8 -8 80 -54 160 -103 80 -48 168 -104 195 -123 l50
-35 -24 26 -23 26 -176 108 c-97 59 -181 110 -186 112 l-11 3 15 -14z"/>
<path d="M28410 44052 c0 -4 77 -54 172 -112 94 -58 184 -116 200 -128 l28
-24 0 10 c0 12 -25 33 -90 72 -30 18 -112 68 -182 111 -71 44 -128 76 -128 71z"/>
<path d="M51304 43602 l-12 -7 9 -95 c5 -52 23 -194 40 -315 l32 -220 10 -10
10 -10 -6 25 c-3 14 -20 120 -37 236 l-30 211 -3 96 c-1 53 -2 97 -2 97 0 0
-5 -4 -11 -8z"/>
<path d="M40895 43510 l-80 -8 -57 -19 -56 -20 -51 -33 c-71 -45 -58 -49 20
-6 l64 35 79 21 79 22 73 -4 73 -3 -7 7 c-13 13 -57 15 -137 8z"/>
<path d="M51278 43351 l-3 -9 -265 -41 -265 -41 -340 -96 -340 -96 -10 -10
-10 -11 15 5 c8 3 166 48 350 101 l335 96 264 40 c146 22 266 39 268 38 1 -2
14 -81 29 -176 l26 -174 -11 -6 c-6 -4 -155 -27 -331 -51 l-320 -44 0 -9 0 -8
18 5 c9 2 153 23 320 46 l302 42 13 -5 13 -5 17 -128 c10 -71 23 -153 30 -183
l12 -54 13 -5 12 -4 -9 25 c-9 24 -26 124 -91 547 l-29 185 10 6 10 6 -15 12
-14 12 -4 -10z"/>
<path d="M11221 43149 c-13 -39 -13 -39 -2 -39 l9 0 7 31 c9 42 0 47 -14 8z"/>
<path d="M51915 43012 c-178 -24 -193 -27 -183 -37 6 -6 358 41 366 49 12 13
-11 12 -183 -12z"/>
<path d="M51163 42906 l-152 -22 -8 -8 -8 -9 30 6 c17 3 92 13 168 23 l137 18
0 8 c0 4 -3 7 -7 7 -5 -1 -76 -11 -160 -23z"/>
<path d="M29830 42854 c0 -3 38 -61 84 -128 l83 -123 24 -61 c13 -34 27 -62
31 -62 l8 0 -21 51 c-27 71 -31 78 -121 212 -72 107 -88 128 -88 111z"/>
<path d="M50593 42664 c6 -165 10 -195 22 -183 2 3 2 85 -2 182 l-6 177 -10 0
-10 0 6 -176z"/>
<path d="M88619 42712 c17 -27 31 -52 31 -55 0 -3 -46 -33 -102 -68 -131 -80
-188 -120 -188 -132 l0 -9 33 24 c17 13 83 55 145 92 l113 68 6 16 6 15 -25
46 c-15 25 -31 47 -38 49 l-11 4 30 -50z"/>
<path d="M88579 42705 l20 -35 -37 -23 c-20 -13 -48 -30 -62 -37 -43 -23 -161
-112 -156 -118 3 -2 29 13 58 35 29 21 90 60 135 87 l83 48 -23 39 c-12 21
-26 39 -30 39 l-9 0 21 -35z"/>
<path d="M31880 42689 l0 -12 -157 -153 -157 -153 6 -7 7 -6 128 121 c159 151
217 221 183 221 -5 0 -10 -5 -10 -11z"/>
<path d="M55943 42607 l3 -11 209 -29 c185 -25 229 -27 214 -13 -2 3 -90 16
-194 30 -105 14 -200 28 -213 30 l-23 3 4 -10z"/>
<path d="M45928 42262 c-87 -48 -159 -92 -162 -98 -2 -6 -1 -35 4 -65 l8 -54
1 60 1 60 160 88 c88 49 160 90 160 93 0 10 -23 -1 -172 -84z"/>
<path d="M87805 42053 c-99 -75 -173 -133 -163 -130 14 5 326 233 353 258 l9
9 -9 0 c-6 0 -91 -62 -190 -137z"/>
<path d="M54553 41962 c-89 -64 -160 -118 -158 -120 4 -5 335 226 335 234 0
11 -27 -6 -177 -114z"/>
<path d="M68486 42049 c-197 -26 -226 -32 -215 -44 6 -5 427 50 435 57 l5 6
-8 4 c-4 3 -102 -8 -217 -23z"/>
<path d="M31042 41812 l-169 -237 -54 -50 c-30 -28 -89 -77 -131 -109 -69 -52
-92 -76 -72 -76 11 0 210 159 245 197 20 21 111 142 202 270 l166 232 -8 6 -9
5 -170 -238z"/>
<path d="M31088 41783 c-189 -266 -213 -293 -347 -393 -55 -41 -100 -79 -101
-84 l0 -8 15 6 c24 9 207 151 242 188 29 31 373 504 373 514 0 2 -4 4 -10 4
l-9 0 -163 -227z"/>
<path d="M46600 41884 c-107 -46 -208 -90 -225 -98 -16 -7 -117 -44 -222 -82
-106 -37 -193 -71 -193 -74 0 -19 797 288 834 321 28 24 -17 9 -194 -67z"/>
<path d="M46606 41839 l-179 -78 -229 -82 c-125 -45 -226 -84 -224 -87 3 -2
103 30 223 73 l218 78 205 89 205 88 -20 -1 c-11 0 -101 -36 -199 -80z"/>
<path d="M42743 41505 l-5 -16 5 -5 5 -6 12 21 11 21 -11 0 c-6 0 -13 -7 -17
-15z"/>
<path d="M56724 41115 l0 -210 3 108 c2 59 2 154 0 210 l-3 102 0 -210z"/>
<path d="M28960 41150 c0 -10 36 -20 75 -20 36 0 155 -31 207 -53 l37 -15 139
-105 139 -105 59 -30 59 -29 48 -7 48 -7 29 6 c17 4 30 10 30 13 l0 7 -75 2
-76 2 -57 32 c-31 18 -118 79 -193 135 l-137 103 -38 16 c-56 24 -170 52 -236
58 l-58 6 0 -9z"/>
<path d="M30120 40988 c-111 -82 -137 -95 -239 -115 l-76 -14 -59 5 -59 6 -63
35 c-35 20 -91 58 -125 85 -60 48 -80 59 -78 43 1 -14 113 -99 189 -144 l75
-44 95 0 95 1 73 22 74 23 96 71 c54 39 101 74 105 78 l9 8 -9 5 -8 5 -95 -70z"/>
<path d="M97090 40686 l-245 -82 -125 -57 c-68 -32 -129 -62 -135 -68 l-10
-10 45 19 c25 11 92 41 150 67 l105 48 250 82 c138 46 241 83 230 83 -11 0
-130 -37 -265 -82z"/>
<path d="M97100 40646 l-275 -93 -520 -237 c-286 -131 -524 -242 -530 -248
l-10 -10 35 15 c19 8 262 118 540 244 l505 230 278 92 c152 51 277 95 277 97
0 9 -38 -2 -300 -90z"/>
<path d="M92032 40450 c-13 -6 -109 -21 -215 -35 -106 -14 -196 -28 -202 -30
-28 -10 61 -3 221 19 165 23 234 38 234 51 0 7 -11 5 -38 -5z"/>
<path d="M97590 40308 c0 -29 -5 -72 -10 -95 l-10 -42 -156 -257 c-86 -142
-174 -286 -196 -321 l-40 -64 6 -6 6 -6 14 13 c9 6 100 152 204 323 l189 312
8 40 c4 22 9 66 10 98 l3 57 -14 0 -14 0 0 -52z"/>
<path d="M94182 39913 c72 -98 133 -185 135 -194 l5 -17 -15 -29 -16 -29 -210
-99 c-116 -54 -209 -100 -207 -102 2 -3 98 39 213 92 l208 97 65 14 65 14 -52
-4 -53 -3 6 38 6 38 -133 180 c-73 100 -136 181 -141 181 -4 0 51 -80 124
-177z"/>
<path d="M84816 39970 c4 -8 49 -76 99 -150 51 -74 106 -161 124 -192 18 -32
37 -61 43 -64 l11 -7 -33 59 c-44 79 -207 324 -233 349 l-20 20 9 -15z"/>
<path d="M84777 39946 l-5 -12 -281 -179 c-155 -98 -285 -183 -288 -188 l-6
-10 14 8 c8 4 141 89 297 188 156 98 284 178 286 176 20 -26 181 -271 211
-321 21 -38 43 -68 47 -68 10 0 -88 161 -178 291 -40 59 -71 109 -68 112 3 2
-2 7 -10 10 l-14 6 -5 -13z"/>
<path d="M48208 39737 c-85 -111 -195 -253 -243 -316 -49 -62 -83 -112 -77
-110 6 2 104 126 219 274 275 357 266 345 261 350 -2 2 -74 -87 -160 -198z"/>
<path d="M48348 39853 c-24 -32 -75 -97 -112 -145 -37 -49 -64 -88 -59 -88 11
0 227 280 221 286 -3 2 -25 -22 -50 -53z"/>
<path d="M54923 39459 l-12 -12 99 -116 c54 -64 124 -140 154 -170 l55 -54 16
13 16 13 -59 61 c-33 34 -101 108 -152 166 -51 58 -96 106 -99 108 -4 1 -12
-3 -18 -9z"/>
<path d="M85320 39096 c0 -13 253 -416 261 -416 7 0 -232 392 -252 415 l-9 9
0 -8z"/>
<path d="M52020 39023 l0 -8 423 -78 c232 -43 431 -81 442 -84 l20 -5 -10 9
-10 10 -415 77 c-228 42 -423 79 -432 82 l-18 5 0 -8z"/>
<path d="M59970 38784 c0 -11 103 -178 133 -216 34 -42 144 -138 159 -138 5 0
-16 22 -49 49 -75 64 -117 116 -182 224 -48 80 -61 97 -61 81z"/>
<path d="M87713 38272 c-105 -65 -307 -187 -448 -272 -333 -202 -696 -434
-765 -490 -31 -25 -171 -121 -313 -214 -142 -93 -256 -170 -254 -173 6 -6 555
353 590 386 62 58 578 381 1205 754 l194 115 -9 5 -8 5 -192 -116z"/>
<path d="M88641 38324 c86 -152 135 -233 141 -234 4 0 104 63 224 140 l216
141 16 -13 15 -13 -5 15 -5 15 -15 3 -16 3 -203 -132 c-112 -72 -209 -134
-216 -136 l-11 -4 -73 123 c-40 68 -79 130 -87 138 l-15 15 34 -61z"/>
<path d="M58307 38098 l-7 -133 -19 -90 c-11 -49 -17 -92 -15 -94 11 -11 22
20 38 103 l18 89 5 128 6 129 -10 0 -10 0 -6 -132z"/>
<path d="M34627 38143 c-4 -3 -7 -21 -7 -39 l0 -33 10 -6 10 -6 0 45 c0 47 -2
51 -13 39z"/>
<path d="M34583 38063 l7 -6 7 6 6 7 -13 0 -13 0 6 -7z"/>
<path d="M60031 38047 c15 -12 109 -98 210 -192 351 -326 394 -365 403 -365 5
0 -31 37 -80 82 -49 46 -132 123 -184 173 -52 50 -152 143 -221 208 l-126 117
-14 0 -14 -1 26 -22z"/>
<path d="M60361 37803 c1 -10 262 -253 292 -272 25 -15 -200 205 -255 250 -21
17 -38 27 -37 22z"/>
<path d="M91187 37658 c6 -35 20 -58 34 -58 l8 0 -15 28 c-7 15 -14 35 -14 45
l0 17 -10 0 -9 0 6 -32z"/>
<path d="M92803 37611 l6 -24 -10 -20 -11 -19 14 4 13 5 3 27 4 28 -13 12 -12
11 6 -24z"/>
<path d="M86185 37248 c-259 -169 -240 -156 -233 -163 l6 -6 223 147 c233 152
246 161 238 168 -2 3 -108 -63 -234 -146z"/>
<path d="M64311 37196 l-205 -92 -4 -12 -4 -12 9 1 c4 0 100 42 212 92 l204
92 5 13 4 12 -9 -1 c-4 0 -100 -42 -212 -93z"/>
<path d="M51290 36738 c120 -115 260 -241 265 -236 3 2 -61 65 -142 139 -157
144 -230 202 -123 97z"/>
<path d="M58960 36691 c-12 -24 -13 -31 -2 -31 5 0 14 11 20 25 l12 25 -10 0
c-5 0 -14 -9 -20 -19z"/>
<path d="M40520 36597 c-206 -44 -377 -82 -379 -84 -17 -13 51 -1 394 73 l390
84 12 -4 11 -5 7 -43 c11 -74 17 -100 22 -95 3 3 -1 39 -8 81 l-12 76 -31 -1
c-17 -1 -200 -38 -406 -82z"/>
<path d="M34615 36031 c-59 -8 -85 -21 -141 -70 -39 -34 -353 -376 -368 -400
-21 -34 18 6 150 152 161 179 219 236 279 275 l40 27 80 0 80 0 39 -24 39 -24
-5 13 -4 14 -35 17 c-43 22 -91 29 -154 20z"/>
<path d="M41044 36015 c3 -16 15 -97 26 -180 24 -174 30 -208 36 -202 3 3 -7
92 -22 198 l-27 194 -10 10 -9 10 6 -30z"/>
<path d="M29795 35918 c-2 -7 -36 -104 -75 -216 l-70 -204 12 4 12 4 73 210
c40 115 72 210 73 212 1 9 -21 0 -25 -10z"/>
<path d="M60516 35901 l-6 -9 215 -117 216 -118 6 7 c9 8 18 2 -172 106 -93
51 -189 103 -212 116 l-42 24 -5 -9z"/>
<path d="M34280 35699 c-80 -88 -147 -166 -149 -172 l-3 -12 19 20 c11 11 69
74 128 140 60 66 120 132 134 147 13 15 22 30 20 32 -3 3 -70 -67 -149 -155z"/>
<path d="M53520 35827 c-19 -13 -85 -51 -145 -85 l-110 -61 -35 -36 -34 -35
10 0 c6 0 21 11 35 26 l24 25 75 41 c82 45 230 138 230 144 0 9 -18 3 -50 -19z"/>
<path d="M41769 35677 l13 -17 -4 -25 -5 -25 9 0 9 0 -3 37 -3 36 -15 5 -15 5
14 -16z"/>
<path d="M84265 35239 c-341 -220 -627 -404 -635 -409 -8 -5 -13 -10 -10 -13
3 -2 291 180 640 404 l635 409 40 -1 40 0 26 -22 26 -22 63 -110 c35 -60 84
-139 110 -175 27 -36 82 -119 123 -185 41 -66 124 -201 186 -300 62 -99 118
-187 126 -195 l15 -14 0 11 c0 7 -4 14 -9 17 -8 5 -77 116 -299 481 -47 77
-111 174 -142 215 -31 41 -80 118 -110 170 l-53 95 -26 22 -26 22 -50 0 -50 0
-620 -400z"/>
<path d="M84916 35603 c-40 -10 -2046 -1310 -2046 -1326 0 -9 29 9 355 225
138 91 573 373 968 627 l719 461 24 0 24 0 20 -20 c11 -11 33 -45 49 -77 16
-32 60 -101 98 -153 38 -52 110 -161 159 -242 49 -82 92 -148 96 -148 11 0
-187 322 -252 410 -30 41 -72 108 -93 147 l-38 72 -22 16 c-22 15 -28 16 -61
8z"/>
<path d="M80300 34914 c0 -14 236 -444 243 -444 l9 0 -25 43 c-13 23 -68 124
-122 225 -89 167 -105 194 -105 176z"/>
<path d="M56074 34725 c3 -16 17 -108 31 -204 14 -96 27 -177 30 -179 9 -9 6
18 -21 208 l-26 185 -10 10 -10 10 6 -30z"/>
<path d="M59447 34513 c-103 -63 -186 -118 -183 -120 3 -3 87 46 188 108 l182
113 18 -1 18 -2 -5 10 c-4 5 -12 9 -18 9 -7 0 -97 -53 -200 -117z"/>
<path d="M81080 34479 c-118 -65 -219 -120 -225 -122 l-10 -4 5 -6 6 -6 222
120 222 120 0 10 c0 5 -1 9 -2 8 -2 -1 -100 -54 -218 -120z"/>
<path d="M59605 34567 c-57 -33 -686 -427 -710 -445 l-20 -14 20 6 c11 4 181
108 378 232 l359 225 16 -3 17 -3 75 -203 c41 -112 76 -199 78 -194 3 11 -136
392 -150 410 -14 16 -16 16 -63 -11z"/>
<path d="M57287 34515 l-99 -44 -56 -7 c-31 -4 -66 -10 -77 -15 l-20 -8 20 0
c11 0 54 6 95 13 l75 14 79 36 c43 20 84 36 91 36 l13 0 6 -16 6 -17 6 6 6 5
-12 21 -11 21 -12 -1 c-7 0 -56 -20 -110 -44z"/>
<path d="M30084 34310 c6 -25 399 -820 403 -816 2 2 -89 189 -202 417 -113
228 -203 407 -201 399z"/>
<path d="M53088 33901 c-103 -15 -191 -30 -194 -34 -4 -4 -5 -7 -3 -7 22 0
434 61 437 65 9 9 -50 3 -240 -24z"/>
<path d="M34420 33664 l-85 -147 -145 -111 c-80 -61 -166 -127 -192 -145 -27
-19 -46 -36 -44 -39 6 -5 81 47 242 170 l141 107 73 123 c40 68 81 138 92 156
l20 32 -9 0 c-4 0 -46 -66 -93 -146z"/>
<path d="M61930 33623 c-52 -1 -144 -7 -205 -14 l-110 -11 -15 -10 -15 -9 35
6 c62 11 253 25 343 25 l87 0 0 10 0 10 -12 -2 c-7 -1 -56 -3 -108 -5z"/>
<path d="M77846 33518 c-3 -24 -7 -121 -9 -216 l-4 -173 7 8 7 8 6 208 c6 201
4 251 -7 165z"/>
<path d="M1600 33548 c0 -2 -15 -113 -34 -248 -19 -135 -33 -247 -30 -249 2
-2 7 -2 10 2 4 4 74 468 74 495 0 1 -4 2 -10 2 -5 0 -10 -1 -10 -2z"/>
<path d="M83040 33405 c0 -12 243 -275 253 -275 l10 0 -19 23 c-85 96 -230
253 -236 255 -4 2 -8 1 -8 -3z"/>
<path d="M58368 33360 l-26 -26 -154 -29 c-84 -15 -157 -32 -162 -36 -6 -5 -8
-9 -5 -9 7 0 293 57 326 65 l23 5 16 25 c22 34 15 36 -18 5z"/>
<path d="M83721 33212 l-184 -117 -5 -13 -4 -12 9 0 c4 0 91 53 192 118 l185
117 4 13 4 12 -9 0 c-4 0 -91 -53 -192 -118z"/>
<path d="M1611 33016 c2 -3 81 -10 174 -16 94 -6 185 -12 203 -15 l32 -4 0 8
0 8 -177 11 c-191 13 -239 14 -232 8z"/>
<path d="M83305 32884 c-28 -13 -61 -33 -75 -44 l-25 -20 80 36 c90 40 90 40
78 47 l-8 5 -50 -24z"/>
<path d="M82649 32473 c-79 -54 -235 -165 -347 -247 l-202 -148 0 -15 0 -14
13 7 c6 5 105 77 220 161 114 84 268 194 343 243 l135 91 -6 9 c-4 6 -7 10 -8
10 -2 0 -68 -44 -148 -97z"/>
<path d="M82220 32273 l-175 -127 -93 -53 c-51 -29 -130 -68 -175 -88 l-82
-36 -43 -6 -43 -6 -5 -9 c-11 -18 5 -20 60 -8 l56 11 81 35 c44 20 83 34 85
31 2 -2 -15 -12 -38 -23 l-43 -18 -185 -135 c-102 -74 -187 -136 -189 -138 -3
-2 0 -7 5 -13 l9 -9 225 166 c124 91 225 169 225 174 l0 10 75 42 c42 23 156
100 253 171 l177 129 0 13 c0 8 -1 14 -3 14 -1 0 -81 -57 -177 -127z"/>
<path d="M81954 32147 l-119 -83 -54 -22 c-29 -12 -63 -22 -75 -22 -11 0 -28
-5 -36 -10 l-15 -10 10 -1 c30 -4 67 5 127 29 l67 27 116 81 116 82 -9 6 -10
6 -118 -83z"/>
<path d="M80601 31837 l-34 -11 -52 -50 -52 -51 -17 -51 -16 -50 -3 -61 -2
-60 35 -69 35 -68 49 -37 49 -37 43 -11 c24 -6 65 -11 92 -11 l49 0 46 14 c26
8 47 12 47 10 0 -2 -67 -54 -150 -115 l-150 -111 0 -10 0 -10 14 5 c7 3 153
108 324 234 l311 228 -9 9 -9 9 -113 -83 -113 -83 -50 -22 c-27 -12 -85 -31
-128 -41 l-77 -18 -53 14 -52 13 -42 28 c-50 35 -77 68 -103 127 l-20 45 0 48
0 48 20 53 c23 60 40 82 90 120 l35 27 48 12 47 13 0 8 0 8 -27 -1 c-16 -1
-43 -6 -62 -12z"/>
<path d="M98818 31737 l-27 -11 -10 -29 -11 -29 29 31 29 31 29 0 28 0 -15 10
c-17 11 -16 11 -52 -3z"/>
<path d="M98907 31692 c78 -120 270 -392 276 -392 4 0 -33 60 -83 133 -51 72
-115 167 -144 209 -28 43 -55 78 -59 78 l-9 0 19 -28z"/>
<path d="M81312 31614 c-22 -15 -29 -34 -13 -34 5 0 19 8 32 18 l22 19 -10 6
-10 6 -21 -15z"/>
<path d="M80560 30855 c-14 -8 -45 -17 -70 -20 -25 -4 -53 -9 -63 -12 l-17 -4
5 -8 4 -8 53 8 c57 9 128 37 128 51 0 11 -11 10 -40 -7z"/>
<path d="M79859 30492 c5 -10 18 -25 27 -33 l18 -14 -19 33 c-11 17 -23 32
-28 32 l-8 0 10 -18z"/>
<path d="M82515 30463 l-6 -18 34 -30 c19 -16 95 -85 170 -152 l135 -123 13
16 12 15 -24 23 c-71 67 -318 286 -322 286 -3 0 -8 -8 -12 -17z"/>
<path d="M82606 30301 l-6 -8 198 -195 c108 -107 235 -229 282 -272 47 -43
275 -270 507 -505 l421 -426 12 11 11 11 -468 469 c-437 438 -935 924 -947
924 -2 0 -7 -4 -10 -9z"/>
<path d="M75529 30073 c0 -54 -4 -123 -8 -154 l-7 -55 -44 -52 -44 -52 11 -11
10 -10 46 56 46 57 5 31 c3 18 7 89 10 160 l5 127 -15 0 -14 0 -1 -97z"/>
<path d="M95117 29917 l42 -12 131 -185 c73 -102 130 -178 128 -169 -1 8 -61
97 -133 197 l-129 182 -41 -1 -40 -1 42 -11z"/>
<path d="M93735 28919 c-104 -77 -192 -145 -194 -150 -2 -6 48 26 110 72 304
221 304 221 282 218 -5 0 -93 -63 -198 -140z"/>
<path d="M84006 29021 l-5 -8 132 -132 c73 -72 142 -138 155 -147 l23 -16 7 6
6 7 -149 149 c-83 83 -153 150 -157 150 -4 0 -9 -4 -12 -9z"/>
<path d="M10632 28368 l5 -13 184 -27 c101 -14 192 -27 202 -27 l19 -1 -4 12
-5 13 -184 27 c-101 14 -192 27 -202 27 l-19 1 4 -12z"/>
<path d="M17172 27209 l-43 -191 5 -6 c3 -3 8 -3 11 0 4 4 37 139 84 351 l9
37 -12 0 -11 0 -43 -191z"/>
<path d="M86360 27201 l0 -68 -25 -37 c-14 -20 -25 -42 -25 -48 l0 -11 23 21
22 20 51 21 51 20 44 -4 44 -4 -48 10 -47 11 -41 -16 c-23 -9 -42 -16 -43 -14
-1 2 0 40 3 86 l6 82 -7 0 -8 0 0 -69z"/>
<path d="M95325 27095 c-38 -29 -126 -94 -194 -144 -68 -50 -119 -91 -113 -91
9 0 348 244 376 271 5 5 8 10 5 13 -2 2 -35 -20 -74 -49z"/>
<path d="M86235 26980 c-27 -30 -12 -34 15 -5 l23 25 -10 0 c-5 0 -18 -9 -28
-20z"/>
<path d="M86117 26878 l-49 -32 -48 0 -48 -1 5 -7 4 -8 35 0 35 0 36 15 c44
19 49 19 33 0 l-12 -15 -13 -60 -13 -60 8 0 7 0 7 41 c7 46 37 109 60 128 17
14 21 31 9 31 -5 0 -30 -14 -56 -32z"/>
<path d="M95310 26779 c-96 -71 -177 -134 -179 -140 -3 -9 325 226 359 257
l14 14 -9 -1 c-6 0 -89 -58 -185 -130z"/>
<path d="M24529 26023 c-23 -71 -55 -157 -70 -192 -32 -71 -32 -71 -21 -71 14
0 53 91 103 240 55 163 52 150 40 150 l-9 0 -43 -127z"/>
<path d="M24715 25988 c-3 -7 -27 -80 -55 -163 l-50 -149 -35 -53 c-39 -58
-40 -63 -22 -63 l12 0 34 52 34 52 53 160 c30 88 54 164 54 168 0 13 -20 9
-25 -4z"/>
<path d="M87395 25991 l-5 -10 202 -160 203 -161 4 11 c1 6 1 11 0 13 -2 1
-93 72 -201 159 l-197 157 -6 -9z"/>
<path d="M87674 25410 c27 -30 86 -111 133 -180 l84 -125 36 -83 c20 -45 39
-85 44 -88 l9 -5 0 10 c0 5 -17 50 -38 98 l-39 89 -70 104 -71 105 -68 65 -68
65 48 -55z"/>
<path d="M4500 25015 l0 -36 -14 -27 c-18 -34 -66 -79 -188 -177 -87 -68 -112
-95 -92 -95 9 0 185 139 238 188 25 23 52 55 61 71 l15 30 0 41 0 40 -10 0
-10 0 0 -35z"/>
<path d="M4440 25007 l0 -34 -52 -49 c-29 -27 -90 -79 -135 -114 l-83 -65 0
-13 0 -13 13 7 c36 22 208 167 245 208 l43 47 -3 26 -3 26 -12 5 -13 4 0 -35z"/>
<path d="M87006 24931 l-28 -29 -30 9 -30 8 -27 -14 c-14 -7 -62 -51 -106 -97
l-80 -83 55 51 c30 27 75 67 99 88 l44 38 42 -5 42 -6 33 34 34 35 -10 0 c-6
0 -23 -13 -38 -29z"/>
<path d="M87023 24888 l-42 -41 -25 16 -25 17 -23 -9 -23 -9 -80 -81 c-44 -45
-75 -81 -70 -81 5 0 47 37 92 82 l82 82 41 -14 41 -14 47 47 47 47 -10 0 c-6
0 -29 -19 -52 -42z"/>
<path d="M86760 20815 c0 -6 72 -85 159 -175 88 -91 160 -160 160 -155 0 6
-71 84 -159 175 l-159 165 -1 -10z"/>
<path d="M89080 20454 c-173 -157 -322 -293 -330 -301 l-15 -15 12 3 c7 2 143
123 303 269 160 146 306 277 323 292 18 14 29 29 27 32 -3 3 -147 -123 -320
-280z"/>
<path d="M89090 20409 c-176 -161 -319 -294 -316 -296 4 -5 646 574 646 583 0
2 -2 4 -5 4 -2 0 -148 -131 -325 -291z"/>
<path d="M4460 20602 l0 -8 227 -27 c208 -24 245 -26 232 -12 -6 5 -403 55
-438 55 l-21 0 0 -8z"/>
<path d="M10505 20549 c-121 -15 -417 -52 -657 -82 -393 -47 -461 -58 -447
-71 2 -2 202 21 444 50 242 29 548 65 679 81 l239 28 5 13 4 12 -24 -1 c-12
-1 -122 -14 -243 -30z"/>
<path d="M87167 20324 c149 -158 193 -201 193 -190 0 10 -298 320 -313 325 -7
2 47 -58 120 -135z"/>
<path d="M93115 17159 c-99 -72 -189 -137 -199 -145 -11 -7 -18 -15 -15 -18 5
-5 393 272 397 285 2 5 2 9 0 9 -1 -1 -84 -60 -183 -131z"/>
<path d="M92930 16991 c0 -18 996 -889 1005 -879 3 2 -82 78 -188 169 -105 90
-333 289 -504 442 -172 152 -313 273 -313 268z"/>
<path d="M92371 16559 c-89 -67 -160 -124 -157 -126 2 -2 78 50 168 118 188
140 174 129 161 129 -5 0 -82 -55 -172 -121z"/>
<path d="M93245 16651 c61 -59 1001 -861 1009 -861 l10 0 -9 9 c-83 75 -1016
871 -1022 871 -4 0 1 -9 12 -19z"/>
<path d="M98394 15135 c-61 -71 -537 -627 -1058 -1235 -520 -608 -946 -1109
-946 -1114 l0 -10 9 10 c94 103 2111 2468 2109 2473 -2 4 -53 -52 -114 -124z"/>
<path d="M98540 15264 c1 -12 339 -288 358 -293 12 -2 -206 181 -345 292 l-13
9 0 -8z"/>
<path d="M2607 12833 l-5 -8 155 -140 c85 -77 166 -148 179 -158 l24 -19 0 10
c0 8 -166 163 -326 305 l-22 19 -5 -9z"/>
<path d="M25509 12776 c-2 -2 -85 -14 -184 -25 -98 -12 -181 -24 -184 -26 -8
-9 41 -5 207 15 l162 19 18 10 17 10 -16 1 c-9 0 -18 -2 -20 -4z"/>
<path d="M25460 12730 c-47 -10 -138 -24 -202 -30 l-118 -12 0 -7 0 -7 148 17
c81 9 173 22 205 29 l57 13 0 9 c0 4 -1 8 -2 7 -2 -1 -41 -9 -88 -19z"/>
<path d="M96667 12033 l-5 -8 175 -149 175 -148 8 8 9 9 -171 145 c-94 80
-174 146 -178 148 -5 2 -10 -1 -13 -5z"/>
<path d="M4366 11262 l-5 -9 172 -147 c156 -134 192 -161 185 -139 -2 5 -70
66 -153 137 -82 71 -160 138 -171 148 l-22 20 -6 -10z"/>
<path d="M26100 11008 c1 -39 128 -889 133 -895 l7 -6 6 6 6 6 -64 447 -63
447 -13 5 -12 4 0 -14z"/>
<path d="M26350 9642 c0 -10 43 -314 95 -675 52 -361 95 -658 95 -661 0 -3 6
-6 13 -6 l14 0 -93 642 c-51 354 -96 660 -99 680 l-7 38 -9 0 -9 0 0 -18z"/>
<path d="M26730 6904 c0 -9 21 -170 46 -357 l46 -342 -6 -88 -6 -89 -16 -61
-15 -61 -42 -75 -41 -76 -87 -110 -87 -110 -284 -281 c-156 -154 -297 -291
-315 -303 -18 -12 -137 -70 -265 -130 l-233 -107 -55 -36 c-30 -20 -87 -65
-127 -100 l-71 -64 -287 -354 c-158 -194 -289 -359 -292 -366 l-5 -14 10 0 11
0 281 348 282 347 81 74 c45 41 111 92 147 115 l65 42 205 93 c113 51 225 105
250 119 l45 25 284 281 283 281 88 108 87 108 51 93 51 93 15 82 16 83 0 90 0
91 -40 301 c-22 166 -42 316 -45 334 l-6 32 -9 0 -10 0 0 -16z"/>
<path d="M13357 5873 c-37 -225 -69 -430 -72 -458 l-4 -50 6 20 c12 42 149
895 143 895 -3 0 -36 -183 -73 -407z"/>
<path d="M13156 4668 c-21 -123 -40 -232 -43 -243 l-5 -20 10 10 9 10 28 165
c15 91 33 195 40 233 l13 67 -7 0 -7 0 -38 -222z"/>
<path d="M24678 3986 c-75 -94 -179 -229 -230 -301 l-94 -130 -140 -235 c-77
-129 -167 -280 -199 -335 -32 -55 -85 -139 -117 -187 l-58 -87 11 -6 c6 -4 12
-5 13 -4 14 18 132 201 170 264 26 44 81 136 123 205 41 69 102 172 136 230
l60 105 125 175 c101 141 253 338 349 451 l14 17 -13 4 -13 5 -137 -171z"/>
<path d="M25855 3999 c-99 -3 -188 -7 -197 -8 l-18 -1 0 -9 0 -9 158 4 c86 3
190 7 230 10 l72 6 0 9 0 9 -32 -2 c-18 -1 -114 -5 -213 -9z"/>
<path d="M13040 3926 c0 -26 -55 -303 -71 -361 -11 -38 -23 -79 -26 -90 l-5
-20 10 10 c14 14 57 189 82 333 l22 123 -6 6 -6 6 0 -7z"/>
<path d="M13077 3898 c-3 -13 -20 -95 -37 -183 -17 -88 -40 -187 -50 -220
l-18 -60 -17 -160 -17 -160 -109 -610 c-99 -554 -139 -808 -139 -889 0 -61 9
-16 20 94 l11 115 44 245 c24 135 76 421 114 635 l70 390 20 175 19 175 12 30
c14 37 93 436 87 442 -3 2 -7 -6 -10 -19z"/>
<path d="M31636 2924 l-158 -164 13 0 14 0 153 156 c138 141 167 175 145 173
-5 0 -79 -74 -167 -165z"/>
<path d="M22984 2232 c7 -11 313 -252 320 -252 21 0 -12 31 -149 138 -85 67
-160 122 -166 122 l-10 0 5 -8z"/>
<path d="M8335 1820 c-49 -4 -125 -13 -168 -20 l-78 -13 -5 -9 c-12 -19 6 -19
83 -3 l78 16 155 6 155 6 165 -12 c91 -6 189 -14 218 -17 l52 -6 0 14 0 15
-192 11 c-288 18 -364 20 -463 12z"/>
<path d="M10320 1735 c0 -8 3 -15 8 -15 4 1 318 -21 699 -47 l692 -47 7 7 c4
4 5 9 3 12 -5 4 -559 45 -1089 80 -124 8 -246 17 -272 20 l-48 6 0 -16z"/>
<path d="M11290 1619 l0 -14 708 -53 c389 -30 790 -60 892 -68 102 -8 304 -24
450 -35 146 -11 346 -27 445 -34 99 -8 195 -15 213 -15 l32 0 0 15 0 15 -17 0
c-24 0 -412 27 -653 45 -107 9 -310 24 -450 35 -140 11 -536 40 -880 65 -344
25 -651 48 -682 52 l-58 6 0 -14z"/>
<path d="M18136 1165 l-5 -15 19 0 c28 0 797 -59 848 -65 l42 -5 0 15 0 15
-15 0 c-24 0 -796 59 -842 64 l-41 5 -6 -14z"/>
<path d="M17670 1140 c0 -5 4 -10 10 -10 61 0 462 -29 858 -61 l493 -41 6 6 6
6 -6 7 -7 6 -392 33 c-436 37 -822 64 -910 64 l-58 0 0 -10z"/>
<path d="M19495 1010 c-4 -6 -5 -13 -4 -14 2 -2 94 -8 204 -15 110 -7 212 -14
228 -17 l27 -6 0 16 0 16 -22 0 c-29 0 -284 18 -364 26 l-62 5 -7 -11z"/>
</g>
</svg>
