<?xml version="1.0" standalone="no"?>
<!DOCTYPE svg PUBLIC "-//W3C//DTD SVG 20010904//EN"
 "http://www.w3.org/TR/2001/REC-SVG-20010904/DTD/svg10.dtd">
<svg version="1.0" xmlns="http://www.w3.org/2000/svg"
 width="7500.000000pt" height="7500.000000pt" viewBox="0 0 7500.000000 7500.000000"
 preserveAspectRatio="xMidYMid meet">
<metadata>
Created by potrace 1.16, written by Peter Selinger 2001-2019
</metadata>
<g transform="translate(0.000000,7500.000000) scale(0.075000,-0.075000)"
fill="#000000" stroke="none">
<path d="M89465 99830 l-5 -8 207 -82 c115 -46 212 -85 217 -88 l9 -5 -5 13
-4 12 -207 83 -207 83 -5 -8z"/>
<path d="M90086 99748 c-20 -23 -36 -45 -36 -50 0 -18 18 -6 53 36 l37 45 -9
5 -9 6 -36 -42z"/>
<path d="M58434 99366 l-6 -15 36 -228 c20 -126 84 -525 141 -888 117 -742
246 -1528 252 -1534 2 -3 8 0 14 6 l11 11 -71 429 c-38 235 -107 662 -151 948
-45 286 -103 653 -130 815 -27 162 -54 332 -61 378 l-11 82 -9 6 -9 5 -6 -15z"/>
<path d="M58378 99363 c-3 -4 11 -106 31 -225 l35 -218 15 0 14 0 -7 48 c-4
26 -19 125 -34 221 l-27 174 -12 4 -11 4 -4 -8z"/>
<path d="M83713 98873 l7 -11 77 -11 c43 -5 123 -13 178 -16 55 -3 119 -8 143
-11 l42 -5 0 10 0 11 -62 0 c-80 0 -347 26 -372 36 l-19 7 6 -10z"/>
<path d="M84489 98806 c-2 -3 -77 -6 -167 -8 l-162 -3 0 -8 0 -9 187 8 188 7
25 8 25 7 -46 1 c-25 1 -48 -1 -50 -3z"/>
<path d="M58583 97998 c3 -13 65 -383 138 -823 l132 -800 -11 -155 -11 -155
-39 -120 -38 -120 -44 -80 c-55 -101 -157 -249 -232 -339 -59 -71 -64 -81 -49
-90 l8 -5 70 82 c88 105 171 226 232 341 l49 91 31 101 c38 125 49 180 62 314
l10 105 -138 838 -137 837 -19 0 -19 0 5 -22z"/>
<path d="M65730 96594 c-80 -8 -166 -13 -193 -12 l-47 3 0 -6 c0 -4 10 -9 23
-11 27 -5 416 28 424 36 l6 6 -34 -1 c-19 -1 -99 -8 -179 -15z"/>
<path d="M86933 96239 l-41 -42 -83 2 c-46 1 -93 3 -104 3 -11 1 -32 1 -47 0
l-28 -2 0 -7 0 -8 134 0 134 0 22 20 c22 20 65 75 58 75 -2 0 -22 -19 -45 -41z"/>
<path d="M97916 94799 l-156 -160 6 -11 6 -10 90 88 c49 49 121 124 159 166
l70 76 -10 6 -9 6 -156 -161z"/>
<path d="M98270 94485 c102 -42 188 -74 193 -72 11 3 -344 147 -363 147 -8 -1
68 -34 170 -75z"/>
<path d="M98916 94271 c5 -5 105 -48 222 -94 l212 -85 0 8 0 8 -215 86 c-118
47 -218 86 -222 86 l-7 0 10 -9z"/>
<path d="M87682 93697 l-43 -82 -199 -245 -200 -245 -50 -46 -50 -46 6 -6 7
-6 39 31 40 31 210 256 209 256 45 81 c24 45 44 86 44 93 0 27 -18 5 -58 -72z"/>
<path d="M87715 93208 c-77 -79 -160 -165 -185 -193 -25 -27 40 33 143 135
l187 185 74 -74 74 -73 36 13 36 13 43 -11 c49 -14 62 -9 21 8 l-29 12 -37 0
-38 0 -13 -11 -13 -11 -74 74 c-41 41 -77 75 -80 75 -3 0 -68 -64 -145 -142z"/>
<path d="M56746 92952 c20 -19 737 -413 744 -410 9 3 -732 418 -746 418 l-8 0
10 -8z"/>
<path d="M86554 92660 c-93 -67 -176 -128 -184 -136 l-15 -16 16 4 c19 4 368
250 369 261 1 17 -25 1 -186 -113z"/>
<path d="M21985 92761 l-6 -10 33 -9 c18 -5 117 -33 220 -62 l188 -54 6 7 c4
4 5 9 2 12 -5 6 -417 125 -430 125 -4 0 -9 -4 -13 -9z"/>
<path d="M86780 92706 c0 -6 180 -125 237 -157 l42 -24 46 45 c25 24 45 49 45
54 l0 10 -43 -42 c-23 -23 -48 -42 -54 -42 -11 0 -140 77 -220 131 -40 28 -53
34 -53 25z"/>
<path d="M22295 92532 l10 -10 223 -62 c123 -34 225 -60 228 -58 3 4 -365 114
-451 136 l-20 5 10 -11z"/>
<path d="M22770 92397 c3 -3 75 -26 160 -52 85 -25 161 -48 168 -50 l12 -4 0
7 0 7 -152 44 c-84 24 -162 46 -173 49 l-20 5 5 -6z"/>
<path d="M95219 91838 c-51 -62 -130 -151 -175 -198 -45 -47 -107 -119 -139
-160 -31 -41 -93 -112 -137 -158 l-81 -83 -61 -31 c-33 -17 -64 -36 -68 -43
-4 -6 -16 -22 -26 -35 l-19 -24 -54 40 -54 39 -160 -3 -160 -2 -55 14 c-30 7
-64 17 -75 21 l-20 7 18 -15 18 -15 67 -15 67 -15 120 7 120 7 37 -6 36 -7 39
-31 40 -31 26 3 26 3 22 27 21 27 49 24 49 25 70 67 71 66 100 129 c56 71 107
132 114 134 7 3 55 56 106 117 51 62 112 135 136 164 l44 51 -10 6 -9 6 -93
-112z"/>
<path d="M95265 91549 l-140 -169 -17 -6 -18 -5 0 -14 0 -14 28 10 27 10 139
169 c76 92 138 172 138 176 -2 25 -30 -3 -157 -157z"/>
<path d="M93570 91504 c0 -12 161 -153 208 -181 21 -13 93 -44 162 -69 l125
-47 139 2 c77 1 142 4 146 6 6 4 65 -3 183 -20 l38 -5 -5 9 -6 9 -77 8 -78 8
-180 1 -180 0 -115 46 c-129 51 -180 80 -254 147 -28 26 -63 57 -78 71 l-28
25 0 -10z"/>
<path d="M94509 91083 l-17 -4 -43 -62 -42 -62 -166 -167 -165 -168 10 -10 10
-10 162 162 161 163 51 68 c28 37 55 67 60 67 l10 0 0 15 c0 15 -3 16 -31 8z"/>
<path d="M94520 91030 l0 -20 10 0 10 0 0 20 0 20 -10 0 -10 0 0 -20z"/>
<path d="M94836 91007 l-5 -22 -35 -34 -35 -34 -51 -5 c-28 -2 -53 -8 -55 -12
l-5 -8 33 -6 33 -6 35 11 34 12 29 26 28 26 14 32 c17 40 17 43 0 43 l-14 0
-6 -23z"/>
<path d="M94870 90982 c0 -6 17 -39 38 -72 40 -67 50 -84 78 -144 l19 -40 46
-50 47 -51 66 -37 c56 -31 603 -263 821 -349 39 -15 89 -38 112 -51 l42 -24
168 -176 168 -177 48 -36 c27 -20 51 -35 53 -32 3 2 -14 19 -37 36 -23 17
-120 112 -216 213 l-174 182 -30 18 c-17 10 -216 95 -442 189 l-412 171 -80
43 -80 44 -36 38 c-46 49 -89 113 -89 134 0 9 -9 28 -21 43 -11 14 -36 52 -55
83 -19 31 -34 52 -34 45z"/>
<path d="M94565 90960 l-6 -10 6 -10 c7 -12 32 -13 39 -2 l5 8 -19 12 -19 12
-6 -10z"/>
<path d="M94959 90723 l19 -38 54 -51 53 -52 40 -20 c22 -11 216 -92 430 -182
215 -89 428 -182 475 -206 l85 -45 160 -170 160 -171 80 -56 c71 -50 368 -267
404 -296 l14 -11 -4 11 c-2 7 -108 89 -236 183 l-231 171 -174 181 -173 181
-67 34 c-37 19 -111 51 -165 73 -176 70 -707 293 -748 313 l-39 21 -57 54 -57
54 -12 30 c-7 16 -16 29 -21 29 l-9 0 19 -37z"/>
<path d="M94385 90590 l-17 -33 -151 -159 -150 -159 9 -9 9 -9 144 152 c79 84
155 169 169 190 l25 38 -11 11 -10 10 -17 -32z"/>
<path d="M7660 90494 c0 -5 35 -31 77 -59 43 -27 203 -139 355 -248 153 -108
289 -202 302 -207 l25 -9 6 9 5 9 -20 6 c-11 4 -125 81 -253 172 -242 173
-457 320 -482 330 l-15 5 0 -8z"/>
<path d="M29965 90283 c-11 -85 -56 -304 -71 -345 -16 -47 -17 -56 -5 -42 21
23 71 237 87 377 l6 57 -5 0 c-3 0 -9 -21 -12 -47z"/>
<path d="M31500 89920 c14 -4 39 -8 55 -8 l30 0 -30 8 c-16 4 -41 8 -55 8
l-25 0 25 -8z"/>
<path d="M31598 89903 c6 -2 18 -2 25 0 l12 5 -25 0 -25 0 13 -5z"/>
<path d="M31472 89885 c2 -3 84 -16 182 -31 l178 -25 14 5 c8 3 14 11 14 17
l0 11 -13 -10 -13 -11 -164 24 c-168 25 -207 29 -198 20z"/>
<path d="M97540 89236 c-52 -19 -267 -136 -251 -136 7 0 68 29 135 64 l121 65
85 9 85 9 -70 1 -70 1 -35 -13z"/>
<path d="M85460 88949 c-36 -5 -171 -27 -300 -49 l-235 -40 -315 -70 -315 -70
-105 -11 c-140 -13 -150 -20 -20 -13 l105 6 335 74 c184 41 441 92 570 115
l235 41 193 5 192 5 0 9 0 9 -137 -1 -138 -1 -65 -9z"/>
<path d="M84655 88843 c-109 -24 -201 -46 -204 -48 -14 -15 25 -9 209 31 113
24 208 44 212 44 5 0 8 5 8 10 l0 10 -12 -1 c-7 -1 -103 -21 -213 -46z"/>
<path d="M89554 88155 c3 -11 24 -103 46 -204 36 -166 50 -217 50 -183 0 7
-19 96 -41 199 l-41 188 -10 10 -10 10 6 -20z"/>
<path d="M84865 88014 c-38 -81 -163 -327 -278 -548 l-209 -401 -61 -138 -60
-139 -14 -5 -14 -6 -85 23 c-47 12 -87 20 -90 17 -4 -4 84 -30 177 -52 l26 -6
56 123 c30 68 61 137 68 153 8 17 88 172 178 345 186 355 394 780 382 780 -4
0 -38 -66 -76 -146z"/>
<path d="M83747 87363 c-3 -15 -26 -115 -50 -221 l-45 -193 11 4 11 3 48 209
48 209 -9 9 -8 8 -6 -28z"/>
<path d="M88616 86893 c60 -175 74 -209 74 -188 0 19 -125 375 -132 375 l-7 0
65 -187z"/>
<path d="M36655 87050 c3 -5 8 -10 11 -10 3 0 2 5 -1 10 -3 6 -8 10 -11 10 -3
0 -2 -4 1 -10z"/>
<path d="M83691 86956 c3 -3 80 -26 173 -51 92 -25 175 -49 184 -52 l17 -6
-10 10 -10 11 -168 46 c-157 43 -196 52 -186 42z"/>
<path d="M36610 86886 c0 -3 51 -40 113 -82 61 -43 133 -93 160 -112 l47 -34
0 9 c0 5 -66 54 -147 109 -165 112 -173 117 -173 110z"/>
<path d="M83570 86835 c0 -38 -204 -881 -226 -934 -16 -38 -17 -51 -6 -51 l8
0 22 63 c31 89 222 883 222 923 0 2 -4 4 -10 4 -5 0 -10 -2 -10 -5z"/>
<path d="M62811 86696 c3 -4 121 -56 377 -167 l42 -18 0 8 0 8 -198 86 c-169
74 -239 101 -221 83z"/>
<path d="M2692 86480 l3 -10 115 -52 c101 -44 292 -116 313 -118 4 0 7 4 7 10
l0 9 -57 17 c-32 9 -129 47 -215 85 -86 38 -160 69 -163 69 -4 0 -5 -5 -3 -10z"/>
<path d="M70983 85972 l-203 -15 0 -15 0 -15 48 6 c26 3 131 12 235 18 l187
13 0 13 0 13 -32 -2 c-18 0 -124 -8 -235 -16z"/>
<path d="M71256 85882 c10 -40 143 -358 144 -345 0 15 -116 307 -136 343 l-15
25 7 -23z"/>
<path d="M43256 85804 c-3 -9 -6 -33 -6 -54 l0 -39 12 -7 c6 -4 80 -19 165
-34 l153 -27 0 7 0 7 -137 23 c-76 13 -149 27 -162 32 l-24 9 6 49 c6 51 4 62
-7 34z"/>
<path d="M80425 85753 c10 -10 284 -120 358 -143 21 -7 41 -10 43 -7 3 3 -25
15 -63 27 -37 13 -124 45 -193 72 -69 28 -132 53 -140 56 l-15 5 10 -10z"/>
<path d="M80860 85629 c73 -30 390 -136 390 -130 0 7 -389 142 -405 141 -5 -1
1 -6 15 -11z"/>
<path d="M56250 85570 l0 -10 195 0 195 0 0 10 0 10 -195 0 -195 0 0 -10z"/>
<path d="M48460 85500 l0 -10 23 -5 c12 -2 109 -16 215 -31 l193 -26 16 6 c9
4 14 9 11 11 -4 5 -424 65 -449 65 -5 0 -9 -4 -9 -10z"/>
<path d="M62706 85423 c-11 -11 -6 -23 9 -23 l15 0 0 9 c0 6 -4 12 -9 15 l-8
5 -7 -6z"/>
<path d="M88351 85165 l-53 -216 5 -5 6 -6 10 38 c5 22 28 113 51 204 22 91
43 173 46 183 l5 17 -8 0 -8 0 -54 -215z"/>
<path d="M44982 85315 c8 -8 451 -105 456 -100 7 7 -4 10 -233 59 -212 46
-232 50 -223 41z"/>
<path d="M82831 84800 l-34 -121 7 -6 c9 -9 10 -7 44 114 34 118 37 133 24
133 l-7 0 -34 -120z"/>
<path d="M71742 84700 c5 -15 97 -231 370 -875 77 -181 144 -334 150 -340 l9
-10 -17 40 c-9 22 -113 270 -232 550 -118 281 -226 537 -239 570 -14 33 -30
65 -35 70 l-11 10 5 -15z"/>
<path d="M82698 84633 l-36 -28 -6 -29 -6 -30 9 -9 10 -10 6 25 7 26 28 27 28
27 43 3 c57 4 56 4 39 15 l-15 10 -36 0 -36 0 -35 -27z"/>
<path d="M86690 84601 l0 -10 38 -11 c20 -6 333 -93 695 -194 l658 -183 5 9 5
8 -13 5 c-7 2 -317 88 -688 191 -371 103 -681 189 -687 191 l-13 5 0 -11z"/>
<path d="M88112 84409 c-23 -89 -41 -164 -38 -166 3 -3 10 15 17 38 55 205 76
289 71 289 -4 0 -26 -73 -50 -161z"/>
<path d="M86670 84543 l0 -8 228 -61 227 -61 9 5 9 5 -14 7 c-15 9 -433 120
-449 120 -5 0 -10 -3 -10 -7z"/>
<path d="M85099 84384 c-101 -80 -186 -150 -188 -156 l-3 -10 11 3 c17 6 380
293 381 302 1 18 -29 -2 -201 -139z"/>
<path d="M86617 84332 l-29 -203 6 -6 6 -6 0 10 c0 6 12 90 26 187 14 98 24
187 22 199 l-3 22 -28 -203z"/>
<path d="M64335 84480 l-6 -10 8 -1 c4 -1 19 -3 32 -4 l25 -2 -19 13 c-22 17
-32 17 -40 4z"/>
<path d="M80090 84474 c53 -25 406 -146 395 -136 -9 8 -374 139 -415 149 -8 2
1 -4 20 -13z"/>
<path d="M80520 84363 c104 -41 406 -143 414 -140 l10 3 -208 72 c-114 40
-213 72 -219 71 l-12 -1 15 -5z"/>
<path d="M82563 84246 l-3 -104 21 -26 c11 -15 34 -33 50 -41 l29 -16 0 16 0
15 -24 11 -24 11 -11 22 -11 21 -2 94 -3 94 -10 4 -10 3 -2 -104z"/>
<path d="M84635 84088 c-127 -99 -232 -182 -234 -184 -2 -2 3 -4 12 -4 l15 0
219 171 c120 94 222 175 226 179 l9 8 -9 5 -9 6 -229 -181z"/>
<path d="M83228 84001 c-91 -82 -169 -154 -173 -160 l-6 -11 6 -10 6 -10 157
142 c86 77 166 149 177 159 l19 19 -10 10 -10 10 -166 -149z"/>
<path d="M86626 84099 c-3 -13 -10 -98 -16 -189 -6 -91 -13 -183 -16 -205 l-6
-40 9 10 10 10 16 215 c14 199 15 257 3 199z"/>
<path d="M83358 84053 c-25 -27 -52 -61 -61 -78 l-14 -30 -6 -72 -6 -73 8 0 9
0 6 31 c3 17 6 47 6 66 l0 34 19 37 19 37 41 40 c39 38 50 55 33 55 -4 0 -28
-21 -54 -47z"/>
<path d="M24326 83952 l-5 -9 57 -23 c46 -19 334 -143 790 -341 l44 -19 -4 11
-4 12 -364 159 c-201 88 -395 173 -432 189 -74 32 -75 32 -82 21z"/>
<path d="M86547 83603 c-10 -106 -20 -399 -14 -393 7 6 30 450 24 456 -2 3 -7
-26 -10 -63z"/>
<path d="M13280 83630 c0 -5 2 -10 4 -10 3 0 93 -20 202 -45 108 -25 209 -45
225 -45 l29 0 0 10 0 10 -25 0 c-13 0 -114 20 -224 45 -224 51 -211 48 -211
35z"/>
<path d="M83242 83481 c2 -7 7 -12 11 -12 12 1 9 15 -3 20 l-12 4 4 -12z"/>
<path d="M25680 83453 l0 -10 112 -14 113 -14 96 6 c103 7 139 15 139 29 l0
10 -32 -8 c-18 -3 -91 -7 -163 -7 l-130 0 -67 9 -68 8 0 -9z"/>
<path d="M83236 83421 l-6 -10 77 -60 78 -61 55 -17 55 -18 66 1 66 0 46 14
47 13 0 13 0 14 -37 -15 -36 -15 -76 -2 -76 -1 -40 12 c-53 18 -99 45 -162 98
l-51 44 -6 -10z"/>
<path d="M30430 83102 c0 -5 12 -20 28 -34 l27 -26 568 -342 568 -342 6 6 7 6
-10 9 c-5 4 -259 158 -564 341 l-555 333 -30 28 c-31 29 -45 36 -45 21z"/>
<path d="M46945 82622 l-59 -317 -12 -120 c-6 -66 -9 -122 -7 -124 10 -13 17
21 28 136 l13 128 56 294 c59 307 61 321 49 321 l-8 0 -60 -318z"/>
<path d="M47057 82920 c-23 -60 -137 -751 -137 -832 l0 -28 8 0 8 0 12 122 12
123 56 298 55 298 -4 17 -4 17 -6 -15z"/>
<path d="M92666 82584 c-130 -185 -236 -340 -234 -344 2 -4 110 145 241 332
131 187 237 342 234 344 -2 3 -111 -147 -241 -332z"/>
<path d="M86546 82628 c-3 -68 -7 -171 -9 -230 l-4 -108 7 0 7 0 7 226 c4 124
5 228 3 231 -3 2 -8 -51 -11 -119z"/>
<path d="M92502 82418 c-63 -88 -112 -162 -109 -164 6 -6 229 306 225 316 -2
4 -54 -65 -116 -152z"/>
<path d="M31200 82553 c0 -5 105 -71 233 -148 127 -77 297 -183 377 -235 80
-53 151 -99 158 -104 l12 -7 0 10 0 11 -147 98 c-139 92 -614 382 -627 382 -3
0 -6 -3 -6 -7z"/>
<path d="M17563 82187 l3 -11 214 -53 213 -54 8 8 8 8 -225 57 -225 56 4 -11z"/>
<path d="M42207 81674 l-6 -7 28 -41 c45 -66 64 -109 140 -321 40 -110 99
-272 133 -360 34 -88 74 -197 89 -243 l28 -83 7 -104 7 -105 13 0 c17 0 16
-10 4 121 l-10 106 -29 84 c-16 46 -58 161 -93 254 -36 94 -93 251 -128 350
-63 181 -91 247 -138 317 -25 38 -33 44 -45 32z"/>
<path d="M42167 81644 l-6 -6 23 -32 c41 -54 56 -87 148 -335 l9 -24 9 9 10
10 -39 111 c-41 114 -79 197 -113 246 -19 27 -29 32 -41 21z"/>
<path d="M19757 81513 l-5 -8 146 -85 c80 -47 172 -100 204 -118 l58 -33 0 13
0 13 -132 75 c-73 41 -163 92 -200 113 l-66 38 -5 -8z"/>
<path d="M94079 81368 c-36 -57 -82 -129 -103 -160 -20 -32 -33 -58 -29 -58 4
0 52 68 106 152 l98 151 -3 9 -3 9 -66 -103z"/>
<path d="M94080 81293 c-52 -81 -96 -154 -98 -163 -3 -13 174 247 199 293 l10
17 -8 0 c-4 0 -51 -66 -103 -147z"/>
<path d="M42500 80822 c0 -5 9 -35 20 -67 11 -32 29 -96 40 -142 l20 -85 0
-59 0 -59 15 0 15 0 0 34 c0 56 -28 201 -58 292 l-27 87 -13 5 -12 4 0 -10z"/>
<path d="M94650 80579 c25 -22 255 -190 512 -374 l467 -334 6 8 5 9 -418 298
c-229 163 -456 328 -504 366 -49 37 -94 68 -100 68 l-13 -1 45 -40z"/>
<path d="M25321 80432 l-1 -44 82 -169 c44 -93 83 -167 86 -164 3 2 -30 75
-73 162 l-77 158 -8 50 -8 50 -1 -43z"/>
<path d="M72670 80015 c0 -2 64 -92 141 -200 123 -169 159 -213 159 -190 0 3
-64 93 -141 200 -122 168 -159 212 -159 190z"/>
<path d="M43035 79880 l-60 -28 -32 -33 -32 -34 -46 -109 c-25 -60 -43 -111
-41 -114 5 -4 17 21 62 134 l25 62 37 43 36 42 71 33 70 33 -15 0 c-8 0 -42
-13 -75 -29z"/>
<path d="M39585 79651 l-6 -11 19 -28 c29 -41 105 -197 137 -282 33 -85 33
-85 41 -77 l6 6 -18 48 c-28 78 -125 285 -149 321 l-23 34 -7 -11z"/>
<path d="M95987 79623 l-5 -8 175 -127 175 -128 10 6 c5 3 8 7 6 8 -14 12
-336 244 -345 249 l-12 7 -4 -7z"/>
<path d="M96310 79315 c0 -9 267 -194 317 -219 l52 -26 6 10 6 10 -48 21 -48
21 -132 94 c-117 84 -153 105 -153 89z"/>
<path d="M39727 79222 l-7 -10 14 -34 15 -35 6 -74 7 -74 -20 -90 c-11 -49
-18 -92 -15 -95 9 -9 21 25 38 108 l17 85 -7 69 -7 68 -18 47 -17 46 -6 -11z"/>
<path d="M99508 78955 c-53 -118 -93 -215 -90 -215 8 0 194 421 189 426 -2 2
-47 -93 -99 -211z"/>
<path d="M77501 79054 c-2 -21 217 -349 227 -340 1 2 -43 73 -100 159 -57 85
-108 163 -115 173 l-12 19 0 -11z"/>
<path d="M73600 78840 c0 -5 41 -65 91 -132 51 -68 117 -161 147 -208 30 -47
120 -169 199 -272 128 -165 163 -205 163 -182 0 3 -60 83 -133 177 -73 95
-155 206 -181 247 -66 102 -269 379 -278 380 -5 0 -8 -4 -8 -10z"/>
<path d="M60631 78644 l-233 -135 -111 -95 c-62 -52 -114 -100 -116 -106 -2
-6 51 35 119 92 l122 103 232 135 c246 143 245 142 230 142 -6 0 -115 -61
-243 -136z"/>
<path d="M97910 78586 l0 -12 190 -87 c104 -48 195 -87 202 -87 l12 0 -9 9
c-6 5 -97 50 -202 99 l-193 90 0 -12z"/>
<path d="M60402 78556 c-28 -18 -97 -73 -154 -122 -57 -48 -105 -89 -107 -91
-2 -2 -2 -5 0 -7 3 -3 61 42 129 100 69 58 142 114 163 125 20 11 37 22 37 24
0 12 -21 3 -68 -29z"/>
<path d="M76379 78230 c-56 -58 -70 -80 -50 -80 11 0 97 94 112 122 17 32 -2
19 -62 -42z"/>
<path d="M99106 77981 c13 -12 405 -191 417 -191 l11 0 -9 9 c-14 14 -401 191
-416 191 l-13 0 10 -9z"/>
<path d="M43865 77768 c-65 -117 -125 -223 -133 -235 l-14 -23 8 0 c5 0 68
106 141 235 72 129 128 235 124 235 -4 0 -60 -96 -126 -212z"/>
<path d="M44013 77948 c-39 -62 -520 -924 -517 -927 2 -2 6 -2 7 0 5 5 499
884 516 917 12 23 8 31 -6 10z"/>
<path d="M70651 77904 c6 -16 592 -554 604 -554 l9 0 -19 18 c-42 40 -542 497
-569 521 l-29 26 4 -11z"/>
<path d="M99985 77640 c3 -5 8 -10 11 -10 2 0 4 5 4 10 0 6 -5 10 -11 10 l-10
0 6 -10z"/>
<path d="M74470 77625 c0 -3 7 -17 16 -30 l16 -25 15 0 14 0 -21 30 c-19 27
-40 40 -40 25z"/>
<path d="M74598 77543 l-38 -4 0 -12 0 -12 188 -2 c103 0 213 -4 245 -8 l57
-6 0 14 0 15 -137 6 c-76 4 -169 8 -208 10 -38 2 -87 2 -107 -1z"/>
<path d="M74895 77010 c-22 -19 -64 -56 -93 -84 l-53 -51 -14 -49 -15 -50 0
-43 0 -43 15 0 15 0 1 58 c0 31 3 65 7 74 4 10 47 58 96 107 l88 90 -4 12 -4
12 -39 -33z"/>
<path d="M41933 76873 l-13 -5 25 -46 c13 -26 42 -67 63 -91 l39 -44 12 7 12
8 -41 47 c-22 27 -50 66 -62 88 l-23 40 -12 -4z"/>
<path d="M74608 76773 l-18 -4 0 -15 0 -15 38 7 c20 4 40 9 45 11 l7 4 -5 10
-6 9 -22 -1 c-12 -1 -30 -3 -39 -6z"/>
<path d="M74550 76630 c0 -5 5 -10 10 -10 6 0 10 5 10 10 0 6 -4 10 -10 10 -5
0 -10 -4 -10 -10z"/>
<path d="M78125 76298 c-116 -50 -212 -92 -214 -94 -20 -18 33 1 209 77 113
49 210 90 215 92 6 2 8 7 5 10 l-5 6 -210 -91z"/>
<path d="M1310 76361 l0 -9 194 -106 c107 -58 200 -106 206 -106 l12 0 -4 11
-4 11 -193 104 c-106 57 -197 104 -202 104 -5 0 -9 -4 -9 -9z"/>
<path d="M31590 75842 l0 -9 226 -62 226 -62 6 5 c3 4 3 8 1 10 -5 5 -441 126
-453 126 -3 0 -6 -4 -6 -8z"/>
<path d="M22983 75401 l-11 -18 -56 -32 -56 -31 -63 -9 -62 -8 -104 18 c-95
17 -124 18 -109 4 2 -3 54 -14 114 -25 l110 -20 63 11 63 10 49 27 48 28 21
26 20 27 -8 5 -8 5 -11 -18z"/>
<path d="M3890 75350 l0 -10 27 -6 c15 -4 116 -28 225 -54 l197 -47 5 12 4 12
-218 51 c-234 56 -240 57 -240 42z"/>
<path d="M33800 75093 c0 -7 302 -200 376 -241 l23 -12 5 8 5 8 -191 119
c-106 66 -198 121 -205 123 l-13 3 0 -8z"/>
<path d="M45165 75091 l-5 -10 8 -5 9 -5 7 6 c9 9 7 23 -3 23 -6 0 -12 -4 -16
-9z"/>
<path d="M45075 75059 c-4 -6 -5 -13 -2 -16 7 -7 27 6 27 18 0 12 -17 12 -25
-2z"/>
<path d="M5720 75016 l0 -16 18 0 c9 0 112 -9 227 -20 116 -11 211 -20 213
-20 1 0 2 6 2 13 l0 13 -212 18 c-117 10 -221 20 -230 22 l-18 5 0 -15z"/>
<path d="M60873 74213 c3 -10 16 -111 28 -225 l23 -208 9 0 c4 0 10 7 13 15
l6 15 -21 188 c-12 103 -24 197 -26 210 l-5 22 -16 0 -15 0 4 -17z"/>
<path d="M36185 72921 l-5 -9 47 -29 48 -28 173 -1 172 0 -3 10 -3 10 -170 0
-169 1 -42 27 -42 28 -6 -9z"/>
<path d="M89408 71289 c-90 -73 -167 -136 -172 -140 l-10 -9 10 0 c5 0 87 63
182 140 96 77 169 140 164 140 -6 0 -84 -59 -174 -131z"/>
<path d="M30265 70739 c-77 -77 -229 -206 -288 -244 -15 -10 -26 -20 -23 -22
2 -2 21 6 43 20 46 29 269 214 299 248 24 27 58 79 52 79 -2 0 -39 -36 -83
-81z"/>
<path d="M13530 69862 c1 -8 391 -224 396 -219 2 2 -86 53 -196 114 -110 61
-200 108 -200 105z"/>
<path d="M50852 69249 l3 -10 110 -48 c61 -26 152 -69 203 -95 l94 -47 11 4
12 4 -115 58 c-63 32 -161 77 -218 101 l-103 43 3 -10z"/>
<path d="M33454 69029 l-7 -11 14 -9 14 -9 40 2 40 3 -5 10 -5 10 -27 -3 -26
-3 -7 10 c-8 14 -22 14 -31 0z"/>
<path d="M37015 68828 c-31 -79 -66 -164 -76 -190 l-19 -48 8 0 8 0 76 190 76
190 -8 0 -8 0 -57 -142z"/>
<path d="M76853 68483 c4 -104 7 -219 7 -257 l0 -70 11 11 11 11 -7 246 -7
246 -11 0 -10 0 6 -187z"/>
<path d="M1728 67541 l-266 -6 -9 -9 -8 -8 165 6 c91 4 302 8 470 9 l305 2
-75 6 c-87 7 -212 7 -582 0z"/>
<path d="M0 67520 l0 -10 25 0 25 0 0 10 0 10 -25 0 -25 0 0 -10z"/>
<path d="M47241 67236 c2 -2 83 -59 179 -126 96 -68 219 -157 273 -198 54 -41
100 -73 102 -70 10 9 -524 398 -547 398 -6 0 -9 -2 -7 -4z"/>
<path d="M76620 67049 c-301 -165 -520 -293 -520 -302 l0 -8 48 28 c26 15 64
37 85 50 74 46 593 326 627 339 l35 13 -30 -1 -30 0 -215 -119z"/>
<path d="M94304 67025 c3 -16 19 -113 36 -215 34 -206 39 -234 45 -228 6 6
-71 457 -80 466 l-7 7 6 -30z"/>
<path d="M55376 66931 l-17 -19 -18 -151 -18 -151 8 0 c10 0 16 34 30 170 l12
115 12 15 c6 8 15 21 19 28 l7 12 -9 0 c-5 0 -17 -9 -26 -19z"/>
<path d="M4956 66766 c-47 -69 -89 -132 -92 -140 l-6 -16 6 0 c9 0 188 271
183 276 -3 3 -44 -51 -91 -120z"/>
<path d="M75905 66599 c-104 -60 -191 -113 -193 -118 -2 -5 79 38 180 96 101
58 194 111 208 119 l25 13 -15 0 c-8 0 -100 -49 -205 -110z"/>
<path d="M77376 66609 c-109 -5 -204 -11 -210 -14 l-11 -5 145 5 c80 3 180 5
223 5 l77 0 0 10 0 10 -12 -2 c-7 0 -102 -5 -212 -9z"/>
<path d="M48250 66534 c0 -9 859 -606 882 -613 l13 -3 -10 9 c-5 6 -201 142
-435 303 -234 161 -431 297 -437 303 l-13 9 0 -8z"/>
<path d="M74670 66484 c0 -16 179 -437 191 -449 6 -5 -4 24 -22 65 -17 41 -63
147 -100 235 -37 88 -68 155 -69 149z"/>
<path d="M97470 66239 l-435 -108 -260 -51 c-143 -28 -478 -91 -745 -141 -266
-50 -486 -92 -488 -94 -2 -2 -2 -8 -1 -13 l4 -9 480 89 c264 48 577 106 695
129 l215 40 465 115 c256 63 482 119 503 125 l37 10 0 9 0 10 -17 -1 c-10 -1
-214 -50 -453 -110z"/>
<path d="M44245 66293 c6 -6 69 -28 140 -48 72 -21 158 -45 193 -55 l62 -19 0
8 0 7 -187 53 c-104 30 -195 56 -203 59 l-15 5 10 -10z"/>
<path d="M48724 66253 c2 -5 99 -73 215 -153 l210 -145 3 -12 3 -12 165 -117
c90 -64 171 -119 180 -122 l15 -5 -10 10 c-5 6 -80 59 -165 119 -85 60 -166
121 -180 136 -23 25 -424 308 -436 308 -3 0 -3 -3 0 -7z"/>
<path d="M97260 66135 c-118 -30 -317 -75 -442 -101 l-226 -47 4 -11 4 -12
205 42 c112 23 312 67 445 100 l240 58 0 13 c0 16 23 20 -230 -42z"/>
<path d="M97546 65999 c19 -89 41 -189 48 -223 16 -68 118 -415 135 -459 l11
-28 10 6 9 6 -14 32 c-8 18 -39 119 -70 226 l-56 194 -43 200 -43 201 -10 3
-11 4 34 -162z"/>
<path d="M76970 65983 c0 -32 3 -136 7 -230 l6 -173 9 0 8 0 0 230 0 230 -15
0 -15 0 0 -57z"/>
<path d="M41912 66018 c-14 -14 -16 -28 -3 -28 9 0 24 30 18 36 -2 2 -9 -2
-15 -8z"/>
<path d="M41876 65971 c21 -21 339 -229 343 -225 2 2 2 6 0 7 -22 19 -339 227
-345 227 l-8 0 10 -9z"/>
<path d="M49130 65906 c0 -3 79 -61 175 -130 96 -69 175 -122 175 -117 0 4
-73 60 -162 123 -177 124 -188 132 -188 124z"/>
<path d="M95058 65707 l-488 -91 0 -13 0 -13 23 5 c12 3 231 43 487 90 507 94
500 92 500 106 l0 9 -17 -1 c-10 0 -237 -42 -505 -92z"/>
<path d="M83701 65663 c3 -27 12 -64 19 -83 l13 -35 48 -60 c26 -33 57 -82 70
-108 13 -26 27 -47 31 -47 l8 0 -26 53 c-15 28 -47 78 -72 110 l-45 59 -18 49
-19 49 0 30 0 30 -8 0 -8 0 7 -47z"/>
<path d="M46963 65528 c-57 -83 -101 -154 -98 -156 6 -7 -3 -19 114 156 56 83
98 152 94 152 -5 0 -54 -68 -110 -152z"/>
<path d="M83650 65672 c0 -5 7 -33 16 -63 l16 -54 74 -107 c41 -58 74 -111 74
-117 0 -6 5 -11 10 -11 l11 0 -17 33 c-9 17 -44 71 -77 120 -60 88 -86 143
-87 185 l0 22 -10 0 c-5 0 -10 -4 -10 -8z"/>
<path d="M94112 65585 c-211 -39 -417 -80 -458 -90 l-74 -19 0 -14 0 -13 18 5
c70 21 188 45 543 111 223 41 409 75 413 75 l7 0 -6 10 -6 10 -27 -1 c-15 -1
-199 -34 -410 -74z"/>
<path d="M41160 65360 l0 -10 -20 0 -20 0 0 -14 0 -13 28 5 c37 7 60 42 27 42
l-15 0 0 -10z"/>
<path d="M51127 65248 c-25 -57 -57 -129 -71 -160 l-26 -58 8 0 c9 0 145 310
139 316 -2 3 -25 -42 -50 -98z"/>
<path d="M50220 65188 c25 -26 693 -478 699 -473 2 3 2 6 0 8 -14 11 -687 465
-699 472 l-15 8 15 -15z"/>
<path d="M70429 65018 c21 -40 69 -129 106 -198 37 -69 71 -129 77 -135 l11
-10 -4 11 c-12 33 -215 404 -222 404 l-8 0 40 -72z"/>
<path d="M52506 64912 l-48 -110 4 -27 3 -27 54 126 c56 131 58 139 43 144
l-9 3 -47 -109z"/>
<path d="M31400 64896 c-53 -20 -203 -97 -198 -102 3 -2 54 19 114 48 l109 51
95 7 95 7 -90 1 -90 1 -35 -13z"/>
<path d="M36440 64900 l0 -13 7 6 6 7 -6 7 -7 6 0 -13z"/>
<path d="M36473 64893 l7 -6 7 6 6 7 -13 0 -13 0 6 -7z"/>
<path d="M91595 64741 c-93 -48 -184 -96 -202 -107 l-32 -20 8 -12 7 -11 59
35 c33 20 123 68 200 106 77 39 142 72 144 74 3 3 0 8 -5 14 l-9 9 -170 -88z"/>
<path d="M1288 64746 l-157 -31 -8 -9 -8 -8 45 7 c91 14 282 54 288 59 13 13
-11 11 -160 -18z"/>
<path d="M50906 64654 c-9 -20 -76 -136 -147 -256 -72 -121 -129 -222 -126
-224 6 -6 287 468 294 496 8 31 -2 24 -21 -16z"/>
<path d="M37060 64570 l0 -19 38 -11 c20 -5 111 -19 202 -30 91 -11 178 -22
193 -25 l28 -5 6 16 5 15 -6 6 c-3 3 -89 16 -190 29 -101 12 -201 27 -222 33
-22 6 -42 11 -46 11 l-8 0 0 -20z"/>
<path d="M47783 64543 c11 -10 422 -181 426 -177 2 2 2 5 0 7 -8 6 -419 177
-425 177 l-7 0 6 -7z"/>
<path d="M1441 64511 l-13 -8 16 -6 15 -6 40 -78 c22 -43 52 -91 66 -107 l26
-28 6 5 5 6 -30 38 c-16 21 -46 70 -65 110 -20 39 -40 74 -45 77 l-8 5 -13 -8z"/>
<path d="M40695 64505 c4 -11 25 -72 46 -135 l39 -115 5 -47 5 -48 -35 0 -35
0 0 -10 0 -10 34 0 34 0 13 20 14 21 224 -26 c123 -14 225 -24 228 -22 6 7
-45 14 -252 37 -104 11 -196 23 -202 25 l-13 4 0 18 c0 25 -90 286 -102 298
l-11 10 8 -20z"/>
<path d="M40686 64408 c19 -57 44 -134 54 -173 l18 -70 1 28 1 28 -47 144
c-26 80 -50 145 -54 145 l-8 0 35 -102z"/>
<path d="M77173 64296 l5 -195 -6 -4 c-4 -2 -1 -2 6 -1 l12 3 0 -14 0 -15 11
0 12 0 -7 43 c-3 23 -9 117 -12 210 l-7 167 -10 0 -10 0 6 -194z"/>
<path d="M98060 64385 c0 -5 181 -417 187 -424 2 -2 6 -1 10 2 l6 7 -93 210
-93 210 -9 0 c-4 0 -8 -2 -8 -5z"/>
<path d="M80305 64248 c-115 -27 -212 -51 -214 -54 -16 -16 32 -8 219 36 118
27 215 50 217 50 2 0 3 5 3 10 0 13 19 16 -225 -42z"/>
<path d="M79410 64089 c-124 -15 -424 -51 -667 -80 l-443 -54 0 -13 0 -14 38
6 c20 3 219 28 442 56 870 107 878 109 859 123 -2 2 -105 -9 -229 -24z"/>
<path d="M77063 64093 c-7 -2 -13 -11 -13 -18 l0 -13 35 10 34 11 -5 9 c-6 9
-31 10 -51 1z"/>
<path d="M78535 64039 c-77 -11 -365 -42 -640 -69 l-500 -48 -57 39 -58 39 0
-8 c0 -15 53 -56 95 -75 l41 -18 454 45 c250 25 548 58 663 73 l207 27 0 8 0
8 -32 -1 c-18 -1 -96 -10 -173 -20z"/>
<path d="M76979 64033 c-9 -10 -30 -44 -48 -75 l-32 -57 -45 -40 -45 -39 -96
-7 -96 -8 -201 6 -201 6 -218 29 -218 28 -6 -8 c-3 -5 -3 -11 -2 -13 2 -2 117
-17 254 -35 l250 -32 166 -5 165 -6 98 12 98 11 42 29 c22 16 53 42 67 58 32
34 91 141 87 155 l-4 10 -15 -19z"/>
<path d="M84291 63853 c11 -38 31 -109 45 -160 25 -91 81 -229 90 -221 2 3
-11 40 -30 84 l-34 79 -38 143 c-21 78 -42 142 -46 142 l-7 0 20 -67z"/>
<path d="M89635 63879 c5 -8 48 -59 96 -114 47 -55 105 -127 128 -159 46 -66
57 -65 13 1 -31 46 -218 269 -235 280 l-10 6 8 -14z"/>
<path d="M90097 63644 c-152 -133 -183 -164 -159 -164 5 0 84 65 176 146 l167
145 -6 10 c-4 5 -7 9 -8 9 -1 0 -77 -66 -170 -146z"/>
<path d="M76710 63758 l-75 -9 -173 3 -172 3 0 -6 c0 -14 52 -19 210 -18 l165
0 75 9 75 8 45 -8 c25 -5 53 -12 63 -15 l17 -7 0 11 0 10 -52 16 c-56 16 -67
17 -178 3z"/>
<path d="M38808 63735 l72 -23 167 -26 c91 -14 168 -24 170 -22 7 7 -26 14
-175 36 -78 12 -173 30 -210 41 -94 27 -113 22 -24 -6z"/>
<path d="M76995 63670 l6 -10 10 5 c14 9 11 15 -7 15 l-15 0 6 -10z"/>
<path d="M41770 63623 c0 -6 24 -38 53 -70 30 -32 77 -91 106 -130 29 -40 57
-73 62 -73 l10 0 -7 13 c-19 31 -127 167 -173 217 l-50 55 -1 -12z"/>
<path d="M13128 63574 c-37 -7 -77 -18 -87 -24 l-20 -10 -6 -21 -7 -21 6 -33
7 -33 37 -34 c20 -18 90 -66 155 -107 l117 -73 108 -30 c59 -16 115 -32 124
-35 l16 -5 -14 -41 c-8 -22 -11 -38 -8 -34 l7 7 11 -8 11 -9 200 9 200 10 48
-12 48 -12 6 5 5 6 -43 12 -44 11 -219 -6 -218 -6 6 16 c3 9 9 26 12 39 l6 23
-49 15 c-26 9 -83 25 -125 35 l-77 20 -129 81 -129 81 -25 28 -26 27 -6 30 -7
30 13 18 13 17 70 16 c39 9 79 20 90 24 l20 9 -15 -1 c-8 0 -45 -6 -82 -14z"/>
<path d="M16643 63484 l-6 -16 7 -127 c3 -69 9 -141 12 -158 l6 -33 9 0 9 0
-8 63 c-4 34 -7 113 -7 175 l0 112 -8 0 c-4 0 -10 -7 -14 -16z"/>
<path d="M23150 63430 l-35 -7 58 -2 57 -1 0 10 0 10 -22 -1 c-13 -1 -39 -5
-58 -9z"/>
<path d="M2587 63403 l-5 -8 160 -140 c89 -77 165 -141 169 -143 l9 -4 0 10
c0 8 -227 212 -306 275 l-23 17 -4 -7z"/>
<path d="M16247 63320 c-47 -39 -114 -86 -148 -106 l-63 -35 -95 -27 -96 -27
24 -3 24 -4 81 23 81 23 60 36 c33 20 99 68 147 107 l88 72 -9 5 -9 6 -85 -70z"/>
<path d="M7033 63363 l7 -6 7 6 6 7 -13 0 -13 0 6 -7z"/>
<path d="M6633 63343 l-33 -4 0 -8 0 -8 176 -6 177 -5 21 7 21 8 -20 5 c-11 3
-54 6 -95 7 -41 1 -106 3 -145 5 -38 2 -85 2 -102 -1z"/>
<path d="M36801 63335 c-32 -229 -81 -602 -81 -613 0 -9 2 -13 5 -10 3 3 24
137 46 299 l40 294 -4 20 c-3 11 -5 16 -6 10z"/>
<path d="M36836 63290 c-25 -157 -82 -586 -79 -589 2 -2 5 -2 7 0 7 8 87 610
83 622 l-4 12 -7 -45z"/>
<path d="M37670 63220 l0 -7 210 -30 210 -29 0 6 c0 3 -94 20 -210 36 l-210
31 0 -7z"/>
<path d="M68685 63199 c-49 -16 -143 -50 -207 -76 l-118 -47 0 -8 c0 -12 -4
-13 147 46 76 30 173 64 215 77 l77 22 -5 8 c-7 11 -3 12 -109 -22z"/>
<path d="M41545 63140 c3 -5 11 -10 16 -10 l10 0 -6 10 c-3 6 -11 10 -16 10
l-10 0 6 -10z"/>
<path d="M16660 63050 l0 -50 10 0 10 0 0 50 0 50 -10 0 -10 0 0 -50z"/>
<path d="M10000 63008 l0 -8 88 1 c91 2 81 6 -26 11 l-62 3 0 -7z"/>
<path d="M15030 62995 c0 -16 5 -37 10 -45 l10 -15 0 30 c0 17 -5 37 -10 45
l-10 15 0 -30z"/>
<path d="M15070 62993 l0 -32 10 -6 10 -6 0 23 c0 13 -5 30 -10 38 l-10 15 0
-32z"/>
<path d="M10293 62993 c9 -2 23 -2 30 0 l12 5 -30 0 -30 0 18 -5z"/>
<path d="M16660 62920 l0 -30 10 0 10 0 0 30 0 30 -10 0 -10 0 0 -30z"/>
<path d="M16950 62935 c-80 -7 -158 -15 -175 -18 l-30 -4 47 -2 c52 -1 390 28
397 35 7 6 -82 2 -239 -11z"/>
<path d="M51552 62776 l-72 -155 -135 -205 c-74 -113 -135 -208 -135 -211 0
-3 6 -5 13 -5 l12 1 133 204 133 204 70 151 71 152 -9 9 -10 10 -71 -155z"/>
<path d="M58705 62905 c-57 -31 -96 -57 -92 -62 3 -2 29 11 58 29 l54 33 50 0
c28 0 97 -3 155 -7 l105 -6 -45 8 c-25 4 -92 11 -150 14 l-105 7 -30 -16z"/>
<path d="M57680 62895 c0 -6 6 -19 14 -30 l14 -20 246 -110 c135 -60 246 -112
246 -115 0 -3 -200 -164 -445 -359 -245 -195 -443 -356 -441 -359 4 -3 818
640 893 705 l22 19 -255 114 -255 113 -19 26 -19 26 -1 -10z"/>
<path d="M59491 62896 c6 -7 901 -78 906 -72 7 7 -64 13 -477 46 -376 30 -437
34 -429 26z"/>
<path d="M48775 62862 c18 -18 337 -203 345 -200 7 3 -317 198 -344 207 l-11
4 10 -11z"/>
<path d="M43442 62699 c-84 -73 -152 -136 -152 -141 0 -5 69 51 153 124 83 72
154 133 156 135 2 2 2 5 -1 8 -2 3 -73 -54 -156 -126z"/>
<path d="M59940 62822 l0 -9 168 -12 c92 -6 194 -14 227 -16 l60 -5 -30 9
c-16 5 -109 14 -205 20 -96 7 -185 14 -197 17 l-23 4 0 -8z"/>
<path d="M11095 62720 l-18 -20 -198 0 -198 0 -7 -12 -7 -11 144 6 c79 4 172
7 206 7 l62 0 28 25 28 24 -11 1 c-6 0 -19 -9 -29 -20z"/>
<path d="M35087 62473 l-7 -6 0 -59 0 -58 23 -10 c12 -6 82 -21 155 -33 l132
-23 0 7 0 7 -62 11 c-35 6 -96 16 -136 22 l-74 12 -15 15 -15 16 6 53 c6 53 5
59 -7 46z"/>
<path d="M89022 62421 c2 -5 81 -75 176 -156 l174 -146 11 4 11 3 -180 152
c-98 84 -183 152 -187 152 l-9 0 4 -9z"/>
<path d="M40750 62413 c0 -5 5 -15 10 -23 l10 -15 0 23 0 22 -10 0 c-5 0 -10
-3 -10 -7z"/>
<path d="M36690 62331 c0 -6 4 -11 9 -11 6 0 55 -53 109 -118 95 -113 170
-188 178 -179 2 2 -22 30 -54 63 -31 32 -93 101 -137 153 -44 52 -86 96 -92
99 l-13 4 0 -11z"/>
<path d="M16515 62160 l-86 -171 -14 -5 -14 -6 -121 26 -120 26 -52 0 -52 0
-290 -77 c-159 -42 -284 -79 -279 -80 6 -2 129 28 274 67 l264 70 55 6 55 6
144 -31 c79 -18 145 -30 147 -29 12 13 185 360 181 364 -3 3 -44 -72 -92 -166z"/>
<path d="M46974 62317 c3 -10 9 -36 12 -58 4 -21 10 -39 14 -39 l7 0 -7 45 -7
46 -13 12 -13 12 7 -18z"/>
<path d="M64090 62230 l0 -10 230 0 230 0 0 10 0 10 -230 0 -230 0 0 -10z"/>
<path d="M56736 62112 c5 -5 101 -48 214 -97 113 -48 336 -146 496 -216 160
-71 297 -129 305 -129 l13 0 -9 9 c-6 5 -102 48 -215 96 -113 48 -339 145
-502 216 -163 71 -300 129 -304 129 l-8 0 10 -8z"/>
<path d="M49003 62048 c-25 -31 -293 -491 -293 -501 0 -9 257 414 301 496 11
20 6 23 -8 5z"/>
<path d="M59868 61767 l-77 -92 -77 -120 -77 -120 -19 -65 c-10 -36 -32 -130
-48 -209 l-30 -144 1 -51 2 -51 9 65 c16 111 57 309 78 380 l20 67 85 132 85
132 65 75 c54 61 77 97 63 93 -2 0 -38 -41 -80 -92z"/>
<path d="M38315 61834 c23 -9 469 -93 473 -89 3 3 -1 7 -9 9 -27 9 -444 86
-459 85 l-15 -1 10 -4z"/>
<path d="M80090 61818 c-1 -2 -20 -103 -44 -226 l-42 -222 10 3 11 4 8 40 c4
22 23 119 41 217 l33 177 -8 5 c-5 3 -9 4 -9 2z"/>
<path d="M93883 61550 c-79 -81 -143 -150 -143 -153 0 -4 4 -7 8 -7 11 0 294
286 294 296 -1 23 -29 0 -159 -136z"/>
<path d="M92189 61638 c5 -13 25 -57 44 -98 l35 -75 74 -71 c111 -107 124
-109 21 -3 l-92 94 -40 88 c-22 48 -42 87 -45 87 -3 0 -2 -10 3 -22z"/>
<path d="M22312 61605 c3 -3 90 -34 193 -70 l188 -64 8 5 c5 3 9 9 9 14 l0 8
-17 -4 -18 -5 -175 61 c-164 57 -200 67 -188 55z"/>
<path d="M60598 61599 l-18 -10 0 -14 c0 -18 6 -19 23 -5 7 6 21 17 32 25 l20
14 -20 0 c-11 0 -28 -4 -37 -10z"/>
<path d="M62580 61600 l-15 -10 18 0 17 0 0 10 c0 12 -1 12 -20 0z"/>
<path d="M44280 61484 c0 -10 353 -385 358 -380 4 4 -346 386 -355 386 -1 0
-3 -3 -3 -6z"/>
<path d="M58191 61476 c13 -11 442 -196 446 -192 3 3 -10 11 -28 19 -19 8
-116 51 -217 96 -155 69 -220 94 -201 77z"/>
<path d="M77720 61459 c0 -5 36 -145 81 -311 l80 -301 19 -36 18 -36 45 -43
45 -44 6 10 5 9 -25 24 c-15 13 -40 44 -56 68 l-30 43 -79 297 c-44 163 -82
304 -85 314 -6 18 -24 24 -24 6z"/>
<path d="M60252 61259 l-153 -151 6 -6 5 -6 43 39 c98 91 267 260 267 267 0
19 -24 -2 -168 -143z"/>
<path d="M54550 61373 c0 -10 96 -422 106 -456 3 -10 8 -17 10 -14 2 2 -20
109 -51 237 -49 209 -65 265 -65 233z"/>
<path d="M54511 61365 c0 -5 49 -221 108 -480 60 -258 110 -461 110 -450 1 11
-44 218 -99 460 -90 393 -118 502 -119 470z"/>
<path d="M57870 61335 c0 -9 252 -410 267 -425 l16 -15 -8 15 c-19 37 -267
430 -271 430 -2 0 -4 -2 -4 -5z"/>
<path d="M53303 61263 l7 -6 7 6 6 7 -13 0 -13 0 6 -7z"/>
<path d="M53213 61243 l7 -6 7 6 6 7 -13 0 -13 0 6 -7z"/>
<path d="M53168 61233 l13 -5 6 6 6 6 -19 -1 -19 -1 13 -5z"/>
<path d="M53118 61223 l13 -5 6 6 6 6 -19 -1 -19 -1 13 -5z"/>
<path d="M53068 61213 c6 -2 18 -2 25 0 l12 5 -25 0 -25 0 13 -5z"/>
<path d="M52990 61200 l-25 -8 20 0 c11 0 31 4 45 8 l25 8 -20 0 c-11 0 -31
-4 -45 -8z"/>
<path d="M52928 61183 c6 -2 18 -2 25 0 l12 5 -25 0 -25 0 13 -5z"/>
<path d="M52878 61173 c6 -2 18 -2 25 0 l12 5 -25 0 -25 0 13 -5z"/>
<path d="M52828 61163 c6 -2 18 -2 25 0 l12 5 -25 0 -25 0 13 -5z"/>
<path d="M96025 61162 c6 -6 89 -54 185 -107 96 -53 179 -100 183 -104 l8 -8
-81 -198 c-44 -109 -80 -205 -79 -214 0 -9 38 78 84 194 l83 209 11 4 10 3 -6
15 -5 14 -8 -5 -8 -5 -128 71 c-234 129 -259 142 -249 131z"/>
<path d="M52470 61106 l-305 -53 -125 -37 c-69 -21 -127 -40 -130 -43 -8 -9
59 8 159 38 l93 29 297 50 c163 28 310 54 326 59 l30 9 -20 0 c-11 0 -157 -24
-325 -52z"/>
<path d="M18850 61093 c0 -10 7 -86 17 -170 l17 -151 -22 -56 -21 -56 13 0 14
0 16 47 c20 59 20 66 -1 251 l-17 152 -8 0 -8 0 0 -17z"/>
<path d="M92770 60941 c0 -5 21 -23 48 -39 l47 -31 139 -56 c76 -31 140 -54
142 -52 3 2 -57 30 -133 61 l-138 57 -52 35 -53 34 0 -9z"/>
<path d="M46345 60828 c-33 -39 -111 -122 -172 -184 -62 -63 -113 -117 -113
-120 0 -3 26 18 59 48 60 54 301 313 301 322 0 17 -21 -2 -75 -66z"/>
<path d="M60720 60761 l-95 -27 -97 -55 c-54 -29 -98 -57 -98 -61 0 -4 46 19
103 51 l102 57 90 23 c50 13 94 27 100 32 l9 9 -9 -1 c-6 0 -53 -13 -105 -28z"/>
<path d="M83248 60521 c-82 -47 -148 -89 -148 -93 0 -4 37 -67 83 -140 46 -73
105 -175 132 -225 27 -51 52 -93 56 -93 10 0 -106 215 -185 343 l-67 108 6 8
c3 5 65 44 137 86 147 86 143 83 137 89 -2 2 -70 -35 -151 -83z"/>
<path d="M78319 60579 l-56 -8 -42 -22 -43 -22 -90 -3 c-50 -2 -93 -6 -96 -8
-2 -3 -14 -1 -24 5 l-20 11 4 -14 5 -13 19 -1 c10 0 36 -4 56 -8 l37 -8 73 12
73 12 30 21 30 22 135 -2 135 -1 68 -15 68 -15 -4 11 -3 11 -35 8 c-29 6 -135
21 -234 32 -16 2 -55 0 -86 -5z"/>
<path d="M55484 60526 c11 -30 22 -50 24 -45 5 14 -17 76 -32 88 l-14 11 22
-54z"/>
<path d="M86255 60431 c77 -84 150 -165 162 -180 11 -14 24 -24 27 -21 6 7
-297 343 -315 349 -7 2 49 -65 126 -148z"/>
<path d="M86100 60551 c0 -9 297 -341 306 -341 11 0 -6 21 -151 180 -85 94
-155 166 -155 161z"/>
<path d="M87435 60429 c-102 -102 -398 -387 -514 -492 l-64 -58 9 -9 9 -9 115
102 c134 118 560 542 560 557 0 21 -19 7 -115 -91z"/>
<path d="M77986 60474 c-15 -40 4 -48 22 -9 l12 25 -14 0 -14 0 -6 -16z"/>
<path d="M49870 60462 c0 -12 19 -26 26 -19 2 2 -2 10 -11 17 l-15 12 0 -10z"/>
<path d="M57321 60448 c27 -50 212 -208 244 -208 17 0 -6 22 -82 79 l-83 62
-36 45 c-20 24 -41 44 -46 44 l-9 0 12 -22z"/>
<path d="M83119 60323 c5 -10 38 -66 73 -124 34 -59 80 -139 101 -179 21 -39
40 -70 42 -68 10 10 -202 388 -217 388 l-9 0 10 -17z"/>
<path d="M90800 60295 c0 -2 55 -74 123 -158 68 -85 133 -167 146 -183 l22
-29 -3 13 c-5 18 -271 361 -280 362 -5 0 -8 -2 -8 -5z"/>
<path d="M62118 60222 c-120 -25 -216 -48 -213 -50 2 -3 104 15 225 39 l220
43 0 8 c0 10 23 14 -232 -40z"/>
<path d="M62894 60233 c3 -10 86 -423 186 -917 99 -495 182 -902 185 -904 2
-2 8 -2 13 -1 l9 4 -185 918 -186 917 -13 0 -14 0 5 -17z"/>
<path d="M58636 60229 c-59 -14 -57 -20 5 -13 l54 6 116 -238 c64 -132 131
-275 149 -319 18 -44 43 -102 55 -130 12 -27 49 -111 81 -185 31 -74 58 -136
59 -137 1 -3 442 86 464 93 8 2 12 6 10 8 -2 2 -103 -16 -224 -40 -121 -24
-226 -43 -233 -42 l-13 3 -65 150 c-36 83 -70 160 -74 172 l-9 21 37 25 c67
44 307 230 290 224 -10 -3 -80 -53 -155 -110 -76 -57 -147 -109 -159 -115
l-20 -11 -68 162 c-38 89 -107 235 -153 325 l-84 162 -12 -1 c-7 -1 -30 -5
-51 -10z"/>
<path d="M49525 60088 c-54 -78 -127 -182 -162 -230 l-65 -88 -10 0 c-5 0 -68
45 -140 101 -72 55 -137 103 -147 107 l-16 6 30 -25 c17 -14 82 -65 145 -114
63 -49 117 -92 118 -97 2 -4 10 -8 18 -8 l14 0 -2 9 c-2 5 42 71 98 147 56 77
129 181 163 232 34 50 63 92 65 92 2 0 20 -7 39 -15 20 -8 43 -15 52 -15 l15
0 0 9 0 8 -32 7 c-18 3 -45 9 -59 12 l-26 6 -98 -144z"/>
<path d="M58642 60190 c-18 -4 -36 -10 -39 -14 l-6 -6 38 3 37 2 34 -60 c53
-95 264 -558 374 -823 23 -56 44 -101 47 -99 5 6 -128 327 -229 552 -78 173
-215 456 -221 454 -1 -1 -17 -5 -35 -9z"/>
<path d="M61874 60160 c30 -127 146 -707 144 -719 l-3 -15 -200 -42 c-110 -24
-207 -44 -215 -44 l-15 0 -75 375 c-41 206 -77 375 -81 375 -3 0 28 -169 69
-375 41 -207 73 -378 70 -380 -2 -3 -94 -23 -204 -46 l-199 -41 -10 -10 -10
-10 20 5 c24 7 402 87 410 87 3 0 5 -7 5 -15 0 -8 -3 -15 -7 -15 -10 0 -346
-70 -362 -76 -8 -2 -12 -6 -10 -9 2 -2 87 14 189 36 l184 39 7 -8 c9 -10 141
-693 135 -699 -2 -2 -93 -27 -203 -56 -109 -28 -200 -54 -203 -57 -3 -4 -106
-28 -230 -55 -451 -95 -485 -103 -465 -104 41 -2 654 123 705 144 19 8 117 36
218 61 l182 47 7 -6 6 -7 -6 -6 c-3 -3 -95 -28 -204 -56 l-198 -49 -3 -10 -4
-9 -8 5 -9 6 -18 -10 c-10 -6 -196 -47 -413 -91 -405 -83 -426 -88 -419 -94 2
-3 186 33 409 80 390 81 440 90 440 79 0 -14 71 -340 75 -344 9 -9 5 20 -30
186 l-35 167 9 9 c8 8 381 106 406 107 l10 0 34 -167 c19 -93 38 -175 42 -183
l8 -15 1 16 c0 9 -14 83 -30 165 -17 82 -33 171 -35 197 -3 27 -8 54 -12 60
-7 11 -42 175 -108 507 l-35 175 4 18 4 17 -9 0 c-5 0 -9 6 -9 13 l0 12 210
44 210 43 15 -6 15 -5 0 9 0 10 13 0 13 0 47 -202 c26 -112 63 -283 82 -382
32 -168 39 -195 49 -185 6 6 -77 415 -123 609 -21 91 -38 166 -38 167 4 3 451
96 630 130 l197 37 0 8 0 7 -12 -4 c-7 -2 -101 -20 -208 -41 -107 -20 -287
-56 -400 -80 l-205 -43 -6 7 c-3 4 -21 81 -39 172 l-32 165 -11 10 -10 10 5
-15 c3 -8 20 -90 39 -182 l34 -167 -8 -8 -8 -7 -7 11 c-4 7 -41 173 -81 370
l-74 358 -9 10 -9 10 5 -25z"/>
<path d="M57020 60122 c0 -15 47 -47 101 -68 57 -22 91 -48 107 -82 l13 -27
-6 30 -6 30 -27 22 c-15 12 -52 31 -82 43 l-55 21 -22 21 -23 21 0 -11z"/>
<path d="M61215 60079 c-225 -48 -228 -49 -223 -55 5 -4 418 80 443 90 35 15
-66 -1 -220 -35z"/>
<path d="M62850 59973 c0 -3 54 -261 120 -572 123 -581 280 -1346 280 -1362
l0 -9 16 0 15 0 -5 18 c-3 9 -39 181 -80 382 -42 201 -132 628 -201 950 -68
322 -125 588 -125 593 0 4 -4 7 -10 7 -5 0 -10 -3 -10 -7z"/>
<path d="M48890 59823 c-144 -191 -152 -203 -143 -203 4 1 51 58 103 127 141
187 152 203 143 202 -4 0 -51 -57 -103 -126z"/>
<path d="M43541 59888 c-31 -39 -22 -45 13 -9 l28 29 -9 5 -8 4 -24 -29z"/>
<path d="M63661 59825 c0 -11 28 -148 63 -305 34 -157 96 -453 137 -657 40
-205 76 -373 80 -373 11 0 -253 1288 -276 1345 l-3 10 -1 -20z"/>
<path d="M63620 59823 c0 -11 235 -1154 344 -1673 36 -168 79 -377 96 -465 45
-233 200 -977 207 -995 l5 -15 4 11 c3 6 -36 206 -86 445 -50 239 -118 567
-150 729 -33 162 -75 369 -95 460 -20 91 -99 466 -176 834 -123 592 -149 709
-149 669z"/>
<path d="M48576 59469 c-70 -94 -123 -170 -118 -168 6 2 63 74 127 159 108
142 134 180 123 180 -2 0 -61 -77 -132 -171z"/>
<path d="M83610 59574 c0 -9 201 -375 217 -393 1 -2 5 -2 7 0 2 2 -41 83 -96
179 -54 96 -105 186 -113 200 l-14 25 -1 -11z"/>
<path d="M60367 59425 c-389 -78 -711 -146 -715 -150 l-7 -8 25 5 c411 81
1406 282 1409 285 2 1 2 5 0 6 -2 2 -322 -60 -712 -138z"/>
<path d="M62525 59489 c-214 -43 -399 -83 -410 -89 l-20 -11 25 5 c14 3 198
40 410 82 212 43 387 79 389 81 16 12 -46 1 -394 -68z"/>
<path d="M83629 59448 c32 -57 82 -145 111 -196 28 -51 54 -91 57 -89 6 7
-210 387 -219 387 -4 0 19 -46 51 -102z"/>
<path d="M61945 59370 c-44 -10 -129 -28 -190 -41 l-110 -23 15 -3 c16 -4 390
74 398 82 9 9 -32 3 -113 -15z"/>
<path d="M61628 59315 l-6 -10 37 -190 37 -190 6 10 7 11 -34 178 c-19 98 -36
183 -38 189 l-3 11 -6 -9z"/>
<path d="M61170 59215 c0 -6 16 -94 36 -197 l36 -188 10 0 10 0 -5 23 c-3 12
-20 96 -38 187 -17 91 -36 169 -40 175 l-9 9 0 -9z"/>
<path d="M61132 59190 c34 -179 153 -730 158 -730 8 0 -145 739 -155 748 l-8
7 5 -25z"/>
<path d="M50090 59136 c0 -9 301 -258 306 -253 3 2 -60 58 -138 124 -145 120
-168 138 -168 129z"/>
<path d="M38728 58933 l-68 -4 0 -8 0 -8 28 4 c15 2 117 8 227 12 l200 8 -160
0 c-88 -1 -190 -2 -227 -4z"/>
<path d="M39546 58772 c5 -5 63 -28 129 -51 66 -24 157 -59 203 -78 45 -20 85
-33 88 -31 7 8 -129 66 -279 119 -143 51 -158 55 -141 41z"/>
<path d="M84010 58748 c0 -3 38 -77 84 -164 46 -88 89 -176 96 -196 6 -21 15
-40 20 -43 l9 -6 -18 53 c-25 74 -191 383 -191 356z"/>
<path d="M55061 58546 c5 -5 390 -116 403 -116 25 0 -15 14 -191 65 -175 50
-223 62 -212 51z"/>
<path d="M84488 58387 l-228 -101 0 -13 c0 -17 1 -17 62 12 29 13 134 60 233
104 l180 80 -2 8 c-1 4 -5 8 -10 9 -4 1 -110 -43 -235 -99z"/>
<path d="M55905 58353 c6 -6 107 -35 225 -66 118 -31 266 -72 328 -91 l112
-34 0 7 c0 8 -220 74 -460 136 -96 26 -184 49 -195 52 l-20 5 10 -9z"/>
<path d="M60393 58273 c-7 -2 -13 -9 -13 -15 l0 -10 15 12 14 12 23 -7 23 -6
-15 10 c-16 11 -28 12 -47 4z"/>
<path d="M62556 57912 l-650 -137 20 -3 19 -2 645 135 c354 75 646 138 649
140 11 12 -70 -4 -683 -133z"/>
<path d="M64034 58010 c13 -53 77 -363 111 -540 20 -102 86 -416 146 -699 60
-283 109 -519 109 -524 l0 -9 14 5 14 5 21 -14 21 -15 0 -33 0 -33 -18 -16
-19 -17 -29 0 -30 0 -10 10 -10 10 -262 -52 c-144 -29 -262 -55 -262 -59 0 -3
116 17 258 46 l259 51 20 -13 20 -13 31 6 31 6 21 23 22 24 -9 38 -9 38 -29
15 c-17 8 -31 15 -32 16 -4 1 -124 567 -214 1009 -117 574 -153 742 -162 752
l-9 8 6 -25z"/>
<path d="M63363 57928 c11 -43 68 -314 127 -603 83 -405 155 -734 163 -742 15
-15 14 6 -5 92 -11 50 -53 252 -94 450 -40 198 -96 464 -124 590 -27 127 -50
231 -50 233 0 1 -5 2 -11 2 l-11 0 5 -22z"/>
<path d="M50465 57889 c31 -15 479 -139 483 -134 7 6 6 6 -257 80 -235 65
-263 72 -226 54z"/>
<path d="M35762 57880 l-64 -9 -79 -26 -79 -27 0 -7 0 -8 78 27 77 28 108 12
109 12 65 -7 65 -7 251 -94 c138 -52 255 -93 260 -91 5 1 -109 47 -254 102
l-264 100 -105 1 -105 2 -63 -8z"/>
<path d="M62131 57782 c-117 -25 -209 -48 -203 -50 16 -5 424 79 437 90 l9 8
-14 -1 c-8 -1 -111 -22 -229 -47z"/>
<path d="M55466 57744 c-98 -13 -184 -25 -190 -28 l-11 -4 19 -1 c28 -1 419
49 425 54 8 9 -64 3 -243 -21z"/>
<path d="M55050 57734 c-107 -12 -201 -23 -209 -23 l-14 -1 6 -6 6 -6 208 22
208 23 10 9 9 8 -14 -1 c-8 -1 -103 -12 -210 -25z"/>
<path d="M86310 57735 c0 -3 48 -99 107 -212 l107 -207 4 12 4 12 -104 200
c-88 171 -118 220 -118 195z"/>
<path d="M51610 57661 l0 -9 168 -31 c92 -18 200 -41 240 -51 l73 -18 -4 11
-3 11 -30 8 c-33 10 -422 88 -435 88 -5 0 -9 -4 -9 -9z"/>
<path d="M80820 57575 c-140 -37 -326 -127 -485 -234 l-80 -54 -99 -91 -100
-91 -157 -175 -158 -175 9 -3 c5 -2 12 -3 15 -3 3 0 67 70 143 154 l137 153
115 105 115 105 80 55 c98 68 206 127 324 178 l90 39 75 18 76 18 0 13 c0 16
4 16 -100 -12z"/>
<path d="M35071 57535 c0 -23 108 -125 333 -314 l19 -16 -4 11 c-2 6 -60 59
-129 118 -69 59 -146 130 -172 159 -26 29 -48 48 -47 42z"/>
<path d="M49940 57537 c0 -16 405 -155 417 -143 3 2 -42 19 -99 36 -56 17
-143 46 -193 65 -126 48 -125 48 -125 42z"/>
<path d="M27170 57510 l0 -10 20 0 20 0 0 10 0 10 -20 0 -20 0 0 -10z"/>
<path d="M22410 57243 c0 -18 45 -79 89 -122 l48 -46 119 -67 c122 -68 194
-102 201 -94 3 2 -17 14 -43 25 -26 12 -99 51 -163 88 l-116 68 -48 50 c-27
27 -55 62 -63 78 -14 26 -24 35 -24 20z"/>
<path d="M63460 57050 c0 -11 22 -120 49 -243 28 -122 70 -332 96 -466 l46
-243 -6 -6 c-3 -3 -265 -60 -582 -127 l-577 -121 -3 -11 -4 -11 38 8 c21 5
277 59 568 120 292 61 537 113 546 115 l16 5 12 24 13 23 -36 194 c-20 107
-64 321 -97 477 l-62 282 -8 0 -9 0 0 -20z"/>
<path d="M17320 56813 c0 -21 -14 -112 -30 -202 -27 -147 -30 -184 -16 -170 8
8 66 341 66 377 l0 32 -10 0 -10 0 0 -37z"/>
<path d="M79482 56554 l-32 -26 -83 -34 -82 -35 35 7 c19 4 60 19 90 34 58 30
130 80 114 80 -5 0 -24 -12 -42 -26z"/>
<path d="M90435 56422 l-120 -124 -290 -253 -290 -252 -31 -39 -30 -39 -103
-210 c-56 -115 -128 -257 -159 -315 -69 -128 -66 -120 -53 -120 l10 0 55 99
c31 55 103 196 160 315 l104 215 34 42 33 41 255 221 c243 211 500 452 541
509 l19 27 -7 3 -8 4 -120 -124z"/>
<path d="M90645 56522 c6 -5 57 -30 115 -55 58 -25 138 -64 178 -86 l72 -39 0
8 c0 16 -235 131 -360 177 l-15 6 10 -11z"/>
<path d="M90565 56480 c-41 -59 -264 -272 -475 -454 -102 -87 -186 -163 -188
-168 -10 -25 36 11 249 193 263 226 363 320 421 397 l40 54 -9 9 -10 10 -28
-41z"/>
<path d="M90620 56491 c0 -4 46 -27 103 -51 56 -24 139 -63 185 -88 l82 -44 0
9 c0 11 -131 77 -267 137 l-103 44 0 -7z"/>
<path d="M56021 56458 c-5 -13 -28 -84 -51 -158 l-42 -135 -35 -60 c-19 -33
-53 -81 -75 -108 l-40 -48 -12 14 c-38 45 -317 279 -325 272 -2 -3 -2 -6 0 -8
22 -16 144 -119 226 -191 l102 -89 3 -15 3 -16 57 67 57 67 35 72 35 73 45
143 44 142 -9 0 c-5 0 -13 -10 -18 -22z"/>
<path d="M17048 56376 c-103 -33 -190 -65 -195 -70 l-8 -9 15 5 c8 3 94 31
190 63 96 32 179 61 185 66 12 11 30 17 -187 -55z"/>
<path d="M79050 56421 l0 -9 20 5 c11 3 20 7 20 9 0 2 -9 4 -20 4 l-20 0 0 -9z"/>
<path d="M61730 56364 c0 -5 16 -99 36 -209 l37 -200 9 -10 9 -10 -5 25 c-3
14 -22 110 -41 214 -30 162 -45 226 -45 190z"/>
<path d="M81650 56275 c-74 -19 -161 -41 -192 -51 l-58 -17 0 -9 0 -8 33 13
c17 8 104 31 192 52 88 20 167 41 175 46 l15 8 -15 0 c-8 -1 -76 -16 -150 -34z"/>
<path d="M64346 56231 l-18 -20 4 -11 3 -11 23 30 23 31 -9 0 c-5 0 -17 -9
-26 -19z"/>
<path d="M76533 56149 c8 -19 47 -107 87 -196 l72 -163 9 0 c16 0 11 13 -73
200 l-83 183 -13 5 -13 4 14 -33z"/>
<path d="M16173 56097 c-111 -29 -204 -55 -208 -59 -3 -3 92 19 212 49 200 50
250 65 212 62 -8 0 -105 -24 -216 -52z"/>
<path d="M37246 56123 c-10 -36 -17 -83 -51 -348 -36 -278 -38 -302 -30 -293
3 2 23 141 45 308 22 167 43 315 46 327 7 27 -2 32 -10 6z"/>
<path d="M63797 56060 c3 -11 10 -23 15 -26 l10 -6 -4 23 -3 22 -12 4 -11 4 5
-21z"/>
<path d="M27220 56052 c0 -4 46 -30 102 -57 l103 -50 70 -61 c97 -83 114 -89
30 -9 l-70 66 -117 59 -118 60 0 -8z"/>
<path d="M87190 56055 c0 -3 46 -97 102 -210 l103 -205 12 0 12 0 -107 210
c-91 179 -122 230 -122 205z"/>
<path d="M10202 55959 l-134 -89 -26 -6 c-15 -3 -36 -10 -47 -15 l-20 -9 40 7
c51 7 55 9 207 107 113 71 146 98 121 95 -5 0 -68 -41 -141 -90z"/>
<path d="M17520 56006 c0 -6 351 -899 359 -915 l8 -14 6 9 5 9 -58 145 c-31
80 -113 286 -180 458 l-123 312 -9 0 c-4 0 -8 -2 -8 -4z"/>
<path d="M63078 55871 c-312 -65 -571 -120 -575 -124 -3 -4 -4 -9 -2 -11 2 -2
265 50 584 115 319 65 582 119 586 119 10 0 26 -66 64 -259 19 -102 37 -187
40 -189 3 -3 8 -3 11 1 l6 6 -31 158 c-18 87 -39 187 -48 223 l-16 65 -11 7
c-6 4 -18 7 -26 7 -8 -1 -270 -54 -582 -118z"/>
<path d="M63710 55965 l0 -16 23 3 22 3 0 10 0 10 -22 3 -23 3 0 -16z"/>
<path d="M15267 55873 c-120 -31 -215 -58 -213 -61 7 -6 428 98 441 109 l9 9
-9 -1 c-6 0 -108 -26 -228 -56z"/>
<path d="M63062 55910 l0 -25 5 13 c2 6 2 18 0 25 l-5 12 0 -25z"/>
<path d="M9043 55904 l8 -9 177 -12 c189 -12 288 -16 281 -9 -2 2 -83 9 -179
15 -96 6 -202 14 -235 17 l-60 6 8 -8z"/>
<path d="M37700 55718 l-22 -193 -21 -22 -20 -23 10 0 c5 0 17 8 26 18 l15 17
24 198 24 197 -7 0 -6 0 -23 -192z"/>
<path d="M36073 55647 c-28 -72 -54 -145 -58 -161 l-6 -29 11 -27 12 -28 41
-33 42 -33 -42 47 c-45 48 -46 53 -43 102 l2 30 53 133 c29 72 50 132 47 132
-4 0 -30 -60 -59 -133z"/>
<path d="M51181 55489 c-106 -121 -191 -222 -189 -225 4 -4 81 82 362 404 16
18 27 35 24 37 -3 3 -91 -94 -197 -216z"/>
<path d="M61945 55687 l-7 -18 6 -6 6 -6 6 6 c3 3 4 14 1 24 l-4 18 -8 -18z"/>
<path d="M25955 55616 l-8 -19 17 -31 17 -31 245 -168 c135 -93 247 -167 250
-165 2 3 -103 78 -233 168 -131 90 -246 173 -255 184 l-17 21 -3 30 -4 30 -9
-19z"/>
<path d="M61820 55600 c0 -5 13 -16 29 -25 l30 -15 6 9 5 9 -31 16 c-38 19
-39 19 -39 6z"/>
<path d="M61910 55549 c0 -8 14 -102 31 -209 l32 -195 9 -10 9 -10 -5 25 c-3
14 -19 110 -36 214 -27 170 -40 227 -40 185z"/>
<path d="M89529 55293 c-107 -205 -128 -239 -188 -311 l-44 -52 -86 -54 c-47
-30 -291 -163 -541 -296 -250 -133 -459 -246 -464 -251 -5 -5 -7 -11 -5 -14 7
-6 930 486 1034 550 l74 46 43 52 c24 29 53 66 65 82 16 23 206 382 221 417
l4 8 -11 0 -10 0 -92 -177z"/>
<path d="M50828 55212 l-68 -15 0 -8 0 -7 61 14 c34 8 69 19 78 24 20 12 12
11 -71 -8z"/>
<path d="M87627 55213 l-6 -9 141 -265 c77 -145 171 -326 208 -403 l67 -139 6
10 6 9 -36 79 c-27 60 -241 469 -373 714 l-7 14 -6 -10z"/>
<path d="M12590 55135 l-135 -65 -85 -11 c-46 -5 -87 -12 -89 -15 -8 -7 62 -4
127 6 l64 11 136 69 c76 38 133 69 127 69 -5 0 -71 -29 -145 -64z"/>
<path d="M50970 55051 l0 -8 62 -18 61 -17 31 7 c17 4 110 11 206 15 l175 8
-200 -4 c-110 -2 -212 -4 -226 -4 -15 0 -45 7 -68 15 l-41 14 0 -8z"/>
<path d="M45680 55004 c0 -4 23 -28 52 -54 l52 -47 -12 -124 c-17 -170 -38
-336 -56 -449 -18 -108 -19 -120 -8 -120 l7 0 23 148 c34 223 61 539 49 560
-11 17 -107 95 -107 86z"/>
<path d="M82245 54971 l-130 -37 -26 -17 c-14 -9 -36 -31 -49 -49 l-24 -33 41
37 c56 49 59 51 213 93 74 20 137 39 139 41 11 11 -46 -1 -164 -35z"/>
<path d="M52125 54742 l-140 -216 -137 -175 c-75 -97 -135 -178 -132 -180 2
-2 6 -2 7 0 2 2 62 78 133 169 l130 165 133 205 c74 113 141 215 149 228 l14
22 -8 0 c-5 -1 -72 -98 -149 -218z"/>
<path d="M53202 54903 c-15 -25 -82 -128 -149 -227 -66 -100 -219 -332 -339
-516 -120 -184 -253 -382 -296 -439 -44 -57 -78 -105 -76 -106 17 -17 125 133
428 600 150 231 305 468 344 527 39 59 85 129 103 157 l32 51 -10 0 c-5 0 -22
-21 -37 -47z"/>
<path d="M53285 54930 c4 -14 9 -32 12 -42 l5 -16 -204 -304 c-282 -419 -550
-832 -583 -898 -24 -47 -65 -154 -65 -168 0 -2 6 1 14 7 l14 12 6 34 7 35 46
87 46 88 242 365 c133 201 299 452 369 558 l126 193 -20 37 -21 37 6 -25z"/>
<path d="M52295 54914 c11 -8 27 -19 35 -24 l14 -8 -128 -192 c-70 -106 -126
-194 -123 -196 2 -2 59 79 127 181 68 103 127 188 132 191 l7 5 137 -91 c74
-51 138 -90 140 -87 2 2 -59 46 -136 97 l-140 93 0 10 0 10 -6 -6 -7 -6 -27
19 c-33 23 -54 27 -25 4z"/>
<path d="M48431 54908 c6 -28 234 -496 237 -488 3 8 -223 488 -235 500 -3 3
-4 -3 -2 -12z"/>
<path d="M47111 54887 c-6 -16 -11 -35 -11 -43 l0 -14 14 0 14 0 5 28 5 27 -8
15 -9 15 -10 -28z"/>
<path d="M47898 54689 c-87 -44 -158 -81 -158 -83 0 -6 116 47 230 104 92 46
95 48 89 54 -2 2 -75 -32 -161 -75z"/>
<path d="M87808 54764 l-6 -5 90 -186 90 -186 0 -21 c0 -12 -3 -39 -7 -60 l-8
-39 11 7 12 7 0 19 0 19 25 26 26 25 33 0 33 0 26 -20 25 -20 6 -26 7 -26 -20
-41 c-22 -45 -22 -51 2 -41 l16 6 10 30 c6 17 11 45 11 63 l0 32 -21 26 -20
27 -39 11 -39 12 -31 -13 c-17 -7 -32 -11 -34 -9 -3 2 -31 63 -64 134 -33 72
-75 158 -94 192 l-35 63 -5 -6z"/>
<path d="M81392 54551 c-106 -27 -195 -51 -199 -54 l-6 -7 9 0 c5 1 106 25
224 54 l215 54 -25 0 c-14 0 -112 -21 -218 -47z"/>
<path d="M88361 54479 c-201 -108 -196 -105 -184 -112 l8 -5 170 92 c94 50
178 97 189 103 l19 10 -9 6 -9 5 -184 -99z"/>
<path d="M32992 54509 l4 -14 195 -132 c106 -73 198 -132 202 -133 l9 0 -4 10
c-2 7 -323 229 -397 274 l-14 9 5 -14z"/>
<path d="M50225 54480 l-6 -19 43 -58 c23 -32 44 -60 45 -62 2 -2 5 -2 8 1 3
2 -15 31 -39 63 l-43 58 5 19 c6 24 -5 23 -13 -2z"/>
<path d="M53040 54423 c1 -4 85 -62 188 -128 103 -65 392 -257 642 -426 250
-168 469 -314 485 -324 l30 -19 -15 16 c-29 30 -1139 773 -1317 882 l-13 7 0
-8z"/>
<path d="M80753 54399 c3 -9 24 -87 47 -175 22 -87 43 -160 45 -163 11 -10 3
27 -36 177 l-42 157 -10 10 -10 10 6 -16z"/>
<path d="M51493 54373 c11 -18 198 -166 203 -161 4 5 -160 141 -195 163 l-14
8 6 -10z"/>
<path d="M49125 54244 c-214 -108 -279 -144 -272 -150 5 -5 330 155 437 215
l55 31 -15 -1 c-8 0 -100 -43 -205 -95z"/>
<path d="M10931 54278 c5 -18 32 -114 60 -213 28 -99 55 -184 60 -189 l9 -10
5 6 6 6 -62 216 -62 216 -13 0 -13 0 10 -32z"/>
<path d="M87919 54223 c-168 -107 -1158 -817 -1174 -843 l-5 -9 8 -5 8 -5 235
173 c258 190 833 597 947 670 l72 47 -5 10 c-8 12 -2 15 -86 -38z"/>
<path d="M87990 54215 l0 -15 -164 -109 c-203 -135 -215 -143 -216 -158 l0
-11 200 134 c110 74 204 134 209 134 6 0 13 -4 16 -10 l6 -10 22 1 22 0 -18
12 c-10 7 -28 20 -39 30 -12 9 -25 17 -30 17 l-8 0 0 -15z"/>
<path d="M88099 54163 c10 -21 121 -226 245 -457 l225 -418 52 -132 c28 -72
53 -134 56 -139 l4 -7 9 5 8 5 -50 133 -50 132 -246 458 -246 457 -13 0 -13 0
19 -37z"/>
<path d="M88160 54181 c0 -7 39 -87 88 -177 l87 -164 12 0 11 0 -90 168 c-49
92 -94 171 -99 177 l-9 9 0 -13z"/>
<path d="M62131 54168 c-1 -22 87 -449 94 -456 3 -3 5 -1 5 5 0 13 -89 444
-94 458 l-4 10 -1 -17z"/>
<path d="M51586 54058 c-47 -56 -86 -107 -86 -112 l0 -10 8 10 c74 82 173 206
170 210 -3 2 -44 -41 -92 -98z"/>
<path d="M84292 54036 c-51 -29 -104 -64 -118 -77 -38 -35 -89 -108 -107 -151
l-16 -38 7 0 c4 0 17 21 29 48 l22 47 46 52 46 52 77 42 c42 24 91 51 107 61
l30 18 -15 -1 c-8 -1 -57 -25 -108 -53z"/>
<path d="M50270 53947 c-276 -124 -580 -276 -553 -277 7 0 90 40 185 89 95 49
283 137 418 197 135 59 249 111 255 116 l9 8 -9 0 c-6 -1 -143 -61 -305 -133z"/>
<path d="M33642 54041 l-22 -30 9 -5 8 -6 15 18 c8 9 18 25 21 35 l6 17 -7 0
c-5 0 -18 -13 -30 -29z"/>
<path d="M52030 53909 l95 -90 113 -80 c63 -45 116 -79 118 -76 3 3 -46 41
-108 85 l-113 80 -92 86 c-50 47 -95 86 -100 86 -4 -1 35 -41 87 -91z"/>
<path d="M21210 53980 l0 -7 128 -22 127 -23 88 -38 c48 -21 87 -35 87 -32 0
4 -37 23 -83 42 l-82 35 -132 26 -133 26 0 -7z"/>
<path d="M72425 53729 c-85 -77 -155 -142 -155 -145 0 -17 39 13 175 137 85
77 155 142 155 145 0 17 -39 -13 -175 -137z"/>
<path d="M21655 53794 l28 -26 -6 -96 c-4 -54 -9 -133 -13 -177 -4 -44 -4 -78
-1 -75 6 6 29 238 29 309 l1 54 -24 18 c-36 28 -46 23 -14 -7z"/>
<path d="M18693 53774 c3 -11 9 -35 12 -54 4 -19 13 -45 21 -57 l14 -23 36 0
c42 0 205 39 219 53 l10 9 -20 -5 c-11 -3 -58 -15 -104 -27 l-83 -21 -29 6
-29 7 -10 18 c-5 9 -12 36 -16 59 l-7 41 -9 6 -10 7 5 -19z"/>
<path d="M50655 53644 c-137 -68 -254 -126 -260 -128 -5 -2 -8 -5 -5 -8 3 -3
127 55 275 128 149 73 263 132 255 132 -8 0 -127 -55 -265 -124z"/>
<path d="M77468 53633 l-188 -74 0 -8 0 -8 195 76 c107 42 195 79 195 84 0 11
-3 10 -202 -70z"/>
<path d="M80941 53697 c-1 -15 91 -396 105 -436 2 -8 6 -12 9 -10 2 3 -23 108
-55 234 -32 127 -59 222 -59 212z"/>
<path d="M51059 53583 c-42 -27 -113 -66 -157 -88 -45 -21 -82 -43 -82 -47 l0
-8 103 51 c118 59 241 139 214 139 -2 0 -37 -21 -78 -47z"/>
<path d="M50030 53524 c-196 -108 -184 -100 -173 -107 l9 -6 177 97 c155 85
197 112 170 112 -5 0 -87 -43 -183 -96z"/>
<path d="M54792 53588 c-52 -163 -102 -341 -98 -345 2 -3 12 20 22 51 l18 56
25 -24 c14 -13 89 -65 166 -117 l140 -93 59 -18 c33 -10 64 -17 70 -15 l11 4
-65 19 -65 20 -152 102 -153 102 -14 23 -15 22 35 119 c20 65 33 120 31 123
-3 2 -10 -11 -15 -29z"/>
<path d="M13837 53583 l-5 -8 176 -142 175 -142 8 5 9 5 -33 28 c-30 26 -289
235 -314 253 l-11 9 -5 -8z"/>
<path d="M32365 53528 c-84 -72 -211 -170 -243 -187 -13 -7 -21 -15 -19 -18 9
-9 109 62 230 161 64 53 117 99 117 102 0 12 -21 -3 -85 -58z"/>
<path d="M49741 53576 l-12 -15 -27 -4 -27 -4 31 -2 32 -1 12 15 c7 9 11 18 8
20 -3 3 -11 -1 -17 -9z"/>
<path d="M52710 53464 c-107 -59 -199 -111 -205 -116 l-10 -10 16 4 c26 5 409
212 409 221 0 13 -15 6 -210 -99z"/>
<path d="M65958 53512 c-119 -26 -220 -51 -225 -56 l-8 -8 20 5 c11 3 112 25
225 48 113 23 209 46 215 50 l9 9 -9 -1 c-6 0 -108 -22 -227 -47z"/>
<path d="M13796 53542 l-5 -9 179 -141 c98 -78 181 -142 184 -142 21 0 -10 30
-131 125 -76 60 -157 124 -180 142 l-41 34 -6 -9z"/>
<path d="M9386 53522 c5 -5 37 -21 72 -36 34 -15 172 -81 307 -146 l245 -119
178 -47 c97 -25 242 -66 322 -90 80 -25 154 -47 165 -50 l20 -6 -10 10 c-12
11 -283 93 -505 152 l-155 41 -250 121 c-291 141 -422 198 -389 170z"/>
<path d="M11296 53492 l-5 -8 147 -147 147 -146 309 -226 309 -226 9 9 9 9
-328 241 -328 241 -123 130 c-68 72 -127 131 -132 131 -5 0 -11 -4 -14 -8z"/>
<path d="M52382 53470 c20 -55 73 -170 80 -170 l7 0 -38 85 c-21 47 -41 88
-46 93 l-8 7 5 -15z"/>
<path d="M51950 53460 l0 -9 15 5 c8 4 15 8 15 10 0 2 -7 4 -15 4 l-15 0 0
-10z"/>
<path d="M53865 53324 c-82 -40 -181 -85 -220 -100 l-70 -27 -335 -175 c-184
-96 -382 -197 -439 -224 -58 -27 -130 -64 -162 -83 l-57 -35 -18 0 -19 0 -58
103 c-75 132 -197 384 -200 411 l-2 21 75 7 74 8 25 25 25 24 -7 7 -7 8 -20
-22 c-25 -27 -7 -22 -130 -36 l-105 -12 25 -11 25 -11 63 -138 c35 -77 94
-195 131 -263 l68 -125 19 -13 19 -12 95 56 c52 31 145 79 205 108 61 29 247
124 415 212 168 88 322 166 343 172 52 18 425 200 407 200 -8 -1 -82 -34 -165
-75z"/>
<path d="M51557 53294 c-27 -14 -47 -28 -44 -30 3 -3 31 8 63 25 l59 30 -15 0
c-8 0 -37 -11 -63 -25z"/>
<path d="M84143 53049 c33 -134 62 -238 64 -232 5 14 -106 455 -117 467 -4 4
19 -101 53 -235z"/>
<path d="M52481 53252 c-2 -24 218 -482 231 -482 4 0 -34 84 -85 188 -51 103
-104 214 -119 247 -14 33 -27 54 -27 47z"/>
<path d="M62323 53170 l0 -65 -16 -37 -17 -38 9 0 9 0 16 40 16 40 -1 33 c-1
17 -5 46 -9 62 l-8 30 1 -65z"/>
<path d="M52154 53185 l-19 -14 10 -1 c6 0 17 4 25 10 l14 9 -5 5 -5 6 -20
-15z"/>
<path d="M64298 53173 c6 -2 18 -2 25 0 l12 5 -25 0 -25 0 13 -5z"/>
<path d="M56071 53159 c-13 -5 -22 -10 -20 -12 2 -1 97 -1 212 1 l207 3 0 8 0
7 -187 1 -188 2 -24 -10z"/>
<path d="M51170 53055 c-69 -35 -122 -64 -118 -64 4 -1 62 26 130 59 l123 61
21 -5 c12 -3 30 -8 41 -12 l18 -5 -25 15 c-14 8 -34 15 -45 15 l-20 0 -125
-64z"/>
<path d="M65993 52976 c-370 -78 -676 -146 -680 -150 l-8 -8 20 5 c11 3 313
67 670 142 561 117 725 154 680 154 -5 -1 -313 -65 -682 -143z"/>
<path d="M55212 53079 l-20 -20 -6 -40 -6 -40 -91 -181 -90 -181 9 -9 10 -10
96 185 96 184 0 37 0 36 20 20 c21 21 26 40 10 40 -5 0 -18 -9 -28 -21z"/>
<path d="M55410 53090 l-15 -10 12 0 c6 0 15 5 18 10 8 12 4 12 -15 0z"/>
<path d="M30212 53006 l-2 -89 -43 -51 c-24 -28 -54 -69 -67 -91 l-24 -40 -6
-52 -6 -53 8 0 8 0 0 34 0 34 30 56 c16 31 48 78 70 105 l41 48 -4 94 -3 94
-2 -89z"/>
<path d="M30252 52996 l-2 -89 -53 -66 c-67 -83 -77 -100 -86 -162 l-8 -49 8
0 9 0 0 33 0 32 28 47 c15 26 46 72 70 102 l43 54 -4 93 -3 94 -2 -89z"/>
<path d="M34556 52948 c-9 -46 -16 -100 -16 -120 l0 -38 10 0 10 0 0 34 c0 19
7 69 16 111 l16 77 -10 10 -9 9 -17 -83z"/>
<path d="M55204 52939 c-10 -16 4 -25 63 -43 l59 -18 42 11 42 12 0 9 0 10
-13 0 c-6 0 -26 -4 -43 -9 l-32 -9 -56 23 -56 23 -6 -9z"/>
<path d="M51456 52889 l-6 -31 -90 -41 c-49 -23 -90 -45 -90 -50 l0 -7 92 46
93 47 12 16 c7 9 13 24 13 34 l0 17 -9 0 -8 0 -7 -31z"/>
<path d="M77718 52827 l-187 -72 2 -10 2 -10 10 3 c6 2 94 35 198 74 l187 71
0 9 c0 15 -23 8 -212 -65z"/>
<path d="M50782 52728 c92 -150 87 -143 92 -137 6 6 -152 263 -164 267 -5 2
27 -56 72 -130z"/>
<path d="M14955 52770 l-6 -9 33 -14 c18 -8 167 -73 330 -145 232 -102 722
-306 895 -373 l22 -8 5 8 5 8 -292 118 c-241 97 -563 235 -929 398 l-58 26 -5
-9z"/>
<path d="M31232 52608 c-106 -94 -190 -173 -188 -176 4 -3 239 200 375 324 8
8 13 16 10 18 -3 3 -91 -72 -197 -166z"/>
<path d="M49560 52772 c0 -17 83 -223 88 -218 4 4 -75 216 -84 225 -2 2 -4 -1
-4 -7z"/>
<path d="M64623 52702 l-193 -36 0 -7 0 -7 18 4 c9 2 94 17 187 34 94 17 179
35 190 40 l20 9 -15 -1 c-8 0 -102 -17 -207 -36z"/>
<path d="M14932 52718 l4 -12 205 -91 c189 -86 228 -100 203 -75 -8 8 -330
157 -392 181 l-24 9 4 -12z"/>
<path d="M12184 52709 l-6 -11 18 -13 c11 -7 82 -58 158 -114 l139 -100 9 5 8
5 -5 9 c-3 4 -75 58 -160 118 l-154 111 -7 -10z"/>
<path d="M48447 52703 l-7 -6 12 -14 c6 -8 17 -35 23 -61 l12 -46 11 -4 12 -4
0 30 c0 66 -38 130 -63 105z"/>
<path d="M85754 52637 c-18 -11 -127 -93 -298 -224 -37 -29 -64 -53 -58 -53 5
0 89 60 186 134 97 74 182 136 189 139 6 2 10 7 7 10 l-5 5 -21 -11z"/>
<path d="M54983 52407 l-91 -132 -45 -42 -45 -42 12 -4 11 -4 46 41 46 41 85
125 c46 69 88 131 92 138 l7 12 -13 0 -14 0 -91 -133z"/>
<path d="M22522 52331 l-41 -99 -36 -142 c-20 -78 -34 -147 -32 -154 2 -6 18
50 36 124 l33 135 45 108 45 107 16 10 17 9 -20 1 -21 0 -42 -99z"/>
<path d="M85608 52233 c-112 -86 -273 -210 -358 -276 -85 -65 -156 -123 -158
-128 -10 -28 1 -19 532 388 99 76 186 143 194 149 l15 11 -11 7 -10 6 -204
-157z"/>
<path d="M30338 52181 l-236 -26 -8 -7 -7 -8 24 0 c13 0 125 11 249 25 124 14
231 25 238 25 l12 0 0 10 0 10 -17 -1 c-10 -1 -125 -13 -255 -28z"/>
<path d="M54305 52117 l-18 -14 7 -11 6 -10 30 15 30 15 36 -21 c42 -25 44
-25 44 -6 l0 14 -30 16 -29 15 -29 0 -28 0 -19 -13z"/>
<path d="M89020 52110 l0 -10 15 0 15 0 0 10 0 10 -15 0 -15 0 0 -10z"/>
<path d="M52771 52050 c0 -18 236 -469 266 -508 l21 -27 6 6 7 7 -29 43 c-16
24 -77 136 -135 249 -58 113 -113 214 -121 225 l-15 20 0 -15z"/>
<path d="M49466 51980 c3 -25 10 -52 15 -60 l9 -15 -6 40 c-4 22 -11 49 -15
60 l-9 20 6 -45z"/>
<path d="M71660 52005 c0 -9 171 -328 181 -339 20 -22 4 12 -82 174 -82 154
-99 182 -99 165z"/>
<path d="M51765 51849 c37 -72 77 -156 91 -186 13 -31 26 -54 29 -51 7 7 -167
368 -177 368 l-8 0 65 -131z"/>
<path d="M13227 51888 c-38 -52 -143 -202 -151 -215 l-7 -13 10 0 10 0 84 118
c46 64 87 123 91 130 l7 12 -10 0 c-5 0 -21 -15 -34 -32z"/>
<path d="M53151 51916 c-1 -5 36 -86 81 -179 l82 -169 4 10 3 10 -85 169 c-47
92 -85 164 -85 159z"/>
<path d="M47130 51898 c0 -14 155 -316 194 -376 15 -24 30 -42 32 -39 4 4 -48
109 -67 133 -5 5 -40 74 -79 152 -67 135 -80 157 -80 130z"/>
<path d="M47090 51885 c0 -10 100 -207 161 -315 l63 -114 4 12 4 12 -75 132
c-41 73 -89 166 -107 206 l-33 72 -8 0 c-5 0 -9 -2 -9 -5z"/>
<path d="M18455 51778 c-2 -7 -11 -50 -20 -95 -9 -45 -31 -132 -49 -194 l-33
-113 -12 -4 -11 -4 -185 78 -185 77 -7 -6 c-9 -10 -17 -6 192 -92 105 -44 193
-83 196 -87 l6 -9 17 7 17 7 -5 13 -5 14 30 102 c17 57 41 151 54 211 l23 107
-9 0 c-5 0 -11 -6 -14 -12z"/>
<path d="M18506 51763 c-2 -10 -12 -56 -21 -103 -14 -71 -73 -286 -92 -338
l-6 -15 13 5 13 4 33 109 c19 61 43 157 55 215 11 58 22 113 25 123 l5 17 -10
0 c-5 0 -12 -8 -15 -17z"/>
<path d="M90752 51593 c-102 -190 -104 -193 -98 -193 5 0 46 74 131 233 31 59
54 107 52 107 -3 0 -41 -66 -85 -147z"/>
<path d="M13686 51712 l-5 -9 173 -118 174 -117 11 7 12 7 -175 119 c-96 65
-177 119 -180 119 -3 0 -7 -4 -10 -8z"/>
<path d="M13656 51672 l-5 -9 176 -121 176 -121 10 6 9 5 -14 13 c-17 16 -336
235 -342 235 -3 0 -7 -4 -10 -8z"/>
<path d="M3465 51663 c-27 -1 -83 -10 -122 -20 l-73 -17 0 -8 c0 -12 21 -10
76 7 l49 15 158 6 157 7 0 9 0 8 -97 -2 c-54 -1 -120 -3 -148 -5z"/>
<path d="M4167 51587 c4 -8 61 -95 127 -195 l118 -182 9 6 8 5 -76 117 c-42
64 -97 150 -122 189 l-46 73 -13 0 -13 0 8 -13z"/>
<path d="M53248 51524 l-86 -43 -55 11 -55 12 -26 -18 -27 -17 6 -9 6 -10 30
16 31 15 45 -15 45 -15 91 45 c106 53 104 52 91 63 l-9 9 -87 -44z"/>
<path d="M88020 51310 l-195 -149 -42 -48 c-24 -26 -43 -51 -43 -55 0 -15
-161 -392 -202 -473 -22 -44 -60 -109 -85 -144 l-44 -63 7 -7 6 -6 31 36 c52
60 104 161 211 414 l101 240 29 40 29 40 199 150 c110 83 204 156 210 163 l10
12 -13 -1 c-8 0 -102 -67 -209 -149z"/>
<path d="M88078 51284 l-178 -134 0 -11 0 -10 13 7 c6 5 90 66 185 137 152
115 191 149 165 146 -5 0 -88 -61 -185 -135z"/>
<path d="M45854 51364 c3 -9 6 -17 6 -20 0 -2 7 -1 15 2 l16 6 -12 14 c-6 8
-16 14 -21 14 l-10 0 6 -16z"/>
<path d="M52930 51340 l-21 -30 -71 -46 c-40 -25 -109 -65 -155 -87 -75 -38
-100 -57 -73 -57 14 0 173 80 241 122 l55 33 37 41 37 41 -7 7 c-12 11 -22 6
-43 -24z"/>
<path d="M45777 51330 c4 -17 23 -29 23 -16 0 12 -13 36 -20 36 l-8 0 5 -20z"/>
<path d="M33883 51333 c-7 -2 -13 -9 -13 -14 l0 -10 13 8 c6 4 48 11 92 14
l80 6 -80 1 c-44 0 -86 -2 -92 -5z"/>
<path d="M34073 51333 l7 -6 7 6 6 7 -13 0 -13 0 6 -7z"/>
<path d="M18370 51293 l0 -10 78 -16 c42 -9 103 -19 135 -22 l58 -7 110 7 109
8 0 9 0 10 -112 -6 -113 -7 -105 16 c-58 8 -117 18 -132 21 l-28 6 0 -9z"/>
<path d="M33485 51255 c3 -22 17 -123 30 -223 13 -101 27 -187 31 -190 l7 -7
-6 40 c-3 22 -16 121 -28 220 l-22 180 -9 10 -9 10 6 -40z"/>
<path d="M6053 51265 c4 -11 27 -94 52 -185 57 -204 66 -232 71 -227 7 6 -107
410 -119 422 l-9 10 5 -20z"/>
<path d="M18367 51253 c-3 -10 -11 -45 -17 -78 l-12 -60 -39 -104 c-22 -57
-38 -105 -36 -107 5 -5 21 27 52 106 l26 65 20 94 c10 52 17 96 15 98 -2 3 -7
-4 -9 -14z"/>
<path d="M5720 50880 c0 -5 4 -10 9 -10 5 0 85 -11 178 -24 92 -13 249 -32
348 -41 l180 -17 139 -34 140 -34 70 0 71 0 118 17 117 16 0 9 c0 10 -6 10
-125 -7 l-100 -15 -72 0 -72 0 -147 35 -147 35 -246 25 c-135 14 -289 31 -341
40 -52 8 -101 15 -107 15 l-13 0 0 -10z"/>
<path d="M27764 50695 l0 -190 3 98 c2 54 2 139 0 190 l-3 92 0 -190z"/>
<path d="M5710 50822 l0 -8 173 -22 c94 -13 246 -29 337 -38 l165 -15 169 -40
168 -39 47 0 c42 0 207 20 299 35 l33 6 -5 8 -5 8 -133 -18 c-73 -10 -155 -19
-183 -19 l-50 0 -169 40 -169 40 -211 20 c-116 11 -260 27 -319 35 -59 8 -117
15 -127 15 l-20 0 0 -8z"/>
<path d="M90987 50430 c-53 -98 -97 -184 -97 -191 l0 -13 9 10 c8 8 140 246
185 331 l16 32 -8 5 -8 5 -97 -179z"/>
<path d="M8960 50561 l0 -8 123 -43 122 -42 93 -48 93 -47 4 7 c7 11 -4 19
-95 61 -66 31 -321 129 -337 129 -2 0 -3 -4 -3 -9z"/>
<path d="M31685 50265 c10 -134 25 -350 25 -369 l0 -19 6 6 6 5 -12 209 -13
208 -9 15 -8 15 5 -70z"/>
<path d="M50810 50127 l-235 -121 20 -4 20 -5 222 114 223 114 0 13 c0 6 -3
12 -7 11 -5 -1 -114 -56 -243 -122z"/>
<path d="M59552 50175 l3 -17 57 -35 57 -35 143 -34 c79 -19 153 -36 166 -39
l22 -5 0 13 0 13 -127 28 c-163 37 -208 52 -258 86 -22 14 -46 30 -53 34 l-14
8 4 -17z"/>
<path d="M50426 50155 c4 -8 11 -15 16 -15 l10 0 -12 15 c-7 8 -14 15 -16 15
-2 0 -1 -7 2 -15z"/>
<path d="M50477 50109 l13 -13 5 6 6 6 -18 6 -18 7 12 -12z"/>
<path d="M34323 50033 l9 -58 10 -10 10 -10 -6 53 c-8 59 -15 82 -26 82 l-7 0
10 -57z"/>
<path d="M36178 50006 l-216 -21 -9 -9 -8 -8 40 6 c22 3 124 13 228 22 l187
17 0 9 c0 4 -1 7 -2 7 -2 -1 -101 -11 -220 -23z"/>
<path d="M73315 49993 l-60 -24 -153 -33 c-84 -19 -156 -37 -160 -41 l-7 -7
25 6 c14 4 80 17 147 31 l121 24 81 31 c45 17 81 33 81 36 0 7 -13 3 -75 -23z"/>
<path d="M38255 49959 c-3 -13 -25 -107 -50 -209 -24 -101 -42 -186 -40 -189
7 -6 11 8 60 218 26 106 44 195 41 198 -3 3 -8 -5 -11 -18z"/>
<path d="M72065 49941 c39 -5 144 -11 235 -14 l165 -5 -80 8 c-44 4 -150 10
-235 13 l-155 6 70 -8z"/>
<path d="M17700 49710 l0 -9 53 -16 c28 -8 136 -39 240 -69 l187 -53 6 9 c3 5
4 11 3 12 -6 5 -467 136 -479 136 -5 0 -10 -4 -10 -10z"/>
<path d="M64370 49105 l0 -15 28 0 c37 0 72 10 72 21 l0 9 -50 0 -50 0 0 -15z"/>
<path d="M77193 49006 c-111 -22 -205 -44 -209 -48 l-7 -8 9 0 c5 -1 109 19
231 42 l223 43 0 8 0 7 -22 -1 c-13 -1 -114 -20 -225 -43z"/>
<path d="M56264 48830 c61 -115 115 -210 119 -210 l9 0 -29 53 c-16 28 -67
123 -113 210 -46 86 -87 157 -91 157 -4 0 43 -94 105 -210z"/>
<path d="M91417 48678 c-81 -94 -147 -176 -147 -182 l0 -10 8 10 c5 5 64 74
132 154 68 80 132 155 143 167 11 13 18 25 15 28 -2 3 -70 -73 -151 -167z"/>
<path d="M80793 48760 l-23 -28 -237 -147 c-131 -81 -240 -149 -242 -151 -3
-3 0 -9 5 -14 l9 -9 235 146 c129 80 247 157 263 171 27 25 34 47 20 55 l-8 4
-22 -27z"/>
<path d="M35980 48679 c-47 -4 -350 -22 -675 -39 -599 -31 -720 -38 -712 -46
5 -6 1301 63 1436 76 57 5 106 12 109 15 7 7 -52 4 -158 -6z"/>
<path d="M40486 48651 l-6 -9 25 -16 25 -16 0 -15 0 -15 15 0 14 0 -6 18 c-9
24 -23 41 -44 53 l-18 9 -5 -9z"/>
<path d="M33595 48589 c-71 -5 -139 -10 -150 -13 -29 -6 264 5 360 14 l80 7
-80 0 c-44 0 -138 -4 -210 -8z"/>
<path d="M33901 48560 c-1 -26 47 -384 55 -409 14 -43 8 18 -21 214 -18 121
-33 209 -34 195z"/>
<path d="M33595 48549 c-71 -5 -139 -10 -150 -13 -29 -6 264 5 360 14 l80 7
-80 0 c-44 0 -138 -4 -210 -8z"/>
<path d="M74737 48465 c52 -116 190 -394 195 -394 8 -1 -180 389 -194 404
l-10 10 9 -20z"/>
<path d="M16570 48178 l0 -91 26 -101 27 -101 15 -17 c8 -10 20 -18 25 -18
l10 0 -17 19 -18 19 -24 94 -24 93 0 98 0 97 -10 0 -10 0 0 -92z"/>
<path d="M31824 48183 c2 -10 7 -83 11 -163 6 -157 15 -253 22 -247 2 3 -1
100 -8 216 l-12 211 -9 0 -9 0 5 -17z"/>
<path d="M37843 48107 l-193 -9 0 -10 0 -9 18 5 c9 2 105 8 213 11 l197 7 13
9 14 9 -35 -2 c-19 -1 -122 -6 -227 -11z"/>
<path d="M90844 48048 c-32 -35 -78 -94 -103 -133 -24 -38 -60 -89 -79 -112
l-34 -43 9 0 c10 0 98 115 133 175 13 22 53 70 89 108 l64 67 -10 0 c-6 0 -37
-28 -69 -62z"/>
<path d="M29420 48072 c0 -57 41 -848 45 -857 8 -22 4 126 -15 488 -10 209
-21 381 -24 385 l-6 5 0 -21z"/>
<path d="M83986 47998 c19 -32 217 -299 225 -304 l9 -5 0 6 c0 12 -225 314
-233 315 l-8 0 7 -12z"/>
<path d="M75430 47739 c-796 -104 -992 -131 -1012 -138 l-17 -6 7 -11 7 -11
230 33 c127 18 486 68 800 109 313 42 571 78 573 80 2 2 2 8 1 13 l-4 8 -585
-77z"/>
<path d="M22290 47650 l0 -40 10 0 10 0 0 40 0 40 -10 0 -10 0 0 -40z"/>
<path d="M22230 47525 l0 -75 10 0 10 0 0 75 0 75 -10 0 -10 0 0 -75z"/>
<path d="M19293 47568 c4 -10 33 -57 65 -105 33 -49 72 -113 87 -143 15 -30
79 -141 141 -247 63 -106 114 -196 114 -200 0 -5 -13 -14 -30 -20 l-30 -11 0
-19 c0 -27 21 -96 27 -90 3 3 0 21 -6 40 l-12 34 6 14 6 15 30 12 31 11 -6 18
c-4 9 -60 107 -125 217 -65 111 -133 228 -150 261 -34 64 -158 242 -148 213z"/>
<path d="M22343 47558 c-13 -6 -23 -15 -23 -20 l0 -9 30 16 c45 23 38 35 -7
13z"/>
<path d="M71637 47487 c-4 -10 -7 -26 -7 -35 l1 -17 10 18 10 18 -3 17 -4 17
-7 -18z"/>
<path d="M47349 47358 l-5 -37 34 -108 c101 -325 134 -424 138 -420 2 2 -30
114 -72 248 l-77 244 -6 55 -7 55 -5 -37z"/>
<path d="M72637 47324 c-4 -4 -7 -17 -7 -28 l1 -21 10 18 c6 10 9 22 7 28 l-3
10 -8 -7z"/>
<path d="M41901 47275 l-64 -32 -23 -27 c-34 -39 -102 -156 -110 -190 l-7 -29
14 5 14 5 3 19 c2 10 29 57 60 104 l57 85 69 35 69 35 5 13 4 12 -14 -2 c-7 0
-42 -15 -77 -33z"/>
<path d="M51108 47183 c43 -90 72 -143 77 -143 4 0 -28 73 -78 178 -5 12 -14
22 -18 22 l-8 0 27 -57z"/>
<path d="M20667 47133 l-17 -48 -28 -162 -28 -163 6 0 c4 0 19 73 34 162 l28
162 19 48 19 48 -8 0 c-5 0 -16 -21 -25 -47z"/>
<path d="M20701 47103 c-22 -71 -62 -292 -60 -334 1 -13 14 48 30 136 l28 160
20 53 19 52 -8 0 c-4 0 -17 -30 -29 -67z"/>
<path d="M41574 47093 c17 -61 26 -108 32 -180 l7 -83 14 0 15 0 -6 38 c-3 20
-8 62 -11 92 -3 30 -11 76 -17 103 l-12 47 -14 0 -13 0 5 -17z"/>
<path d="M34750 46750 l0 -180 10 0 10 0 0 180 0 180 -10 0 -10 0 0 -180z"/>
<path d="M21685 46776 c-66 -24 -138 -52 -160 -63 -35 -18 -547 -238 -614
-264 l-24 -10 10 -10 10 -10 329 142 c293 126 408 173 552 225 l42 16 0 9 0 9
-12 -1 c-7 0 -67 -19 -133 -43z"/>
<path d="M21800 46775 c0 -3 5 -26 11 -51 l11 -44 13 0 13 0 -12 47 -12 47
-12 4 c-7 2 -12 1 -12 -3z"/>
<path d="M22220 46730 l0 -10 58 0 c31 0 131 -7 222 -15 91 -8 166 -15 168
-15 1 0 2 6 2 13 l0 14 -147 11 c-82 7 -183 12 -225 12 l-78 0 0 -10z"/>
<path d="M37333 46615 l0 -25 8 0 9 0 0 25 0 25 -9 0 -8 0 0 -25z"/>
<path d="M34470 46539 c-337 -18 -715 -29 -1005 -29 -170 0 -361 -3 -422 -7
l-113 -6 0 -15 0 -14 33 6 c17 3 329 10 692 16 l660 10 175 10 c96 5 187 10
203 10 l27 0 0 15 0 15 -52 -2 c-29 0 -118 -5 -198 -9z"/>
<path d="M35435 46503 c-22 -1 -82 -5 -132 -9 l-93 -6 0 -15 0 -14 103 6 c56
4 153 10 216 14 l114 6 5 13 4 12 -89 -2 c-48 -1 -106 -3 -128 -5z"/>
<path d="M36846 46355 l5 -160 17 -67 16 -68 9 0 8 0 -7 23 c-4 12 -13 45 -20
72 l-14 50 -1 95 c-1 52 -5 122 -9 155 l-9 60 5 -160z"/>
<path d="M34694 46358 c3 -40 11 -124 18 -185 l11 -113 13 0 14 0 -5 28 c-2
15 -9 81 -15 147 -6 66 -13 137 -16 158 l-6 37 -10 0 -11 0 7 -72z"/>
<path d="M34452 46398 l-12 -12 0 -115 c0 -113 19 -422 26 -430 2 -2 7 -2 10
1 l5 6 -15 201 c-9 110 -16 229 -16 264 l0 63 12 12 c6 6 9 14 7 17 -3 2 -11
-1 -17 -7z"/>
<path d="M80978 46393 l13 -5 6 6 6 6 -19 -1 -19 -1 13 -5z"/>
<path d="M30203 46372 l-303 -15 0 -14 c0 -7 3 -13 8 -13 4 0 180 9 392 20
212 11 391 20 398 20 l12 0 0 10 0 10 -102 -2 c-57 0 -239 -8 -405 -16z"/>
<path d="M80870 46380 l-25 -8 32 -1 32 -1 6 10 6 10 -13 -1 c-7 -1 -24 -5
-38 -9z"/>
<path d="M80764 46353 c3 -10 30 -117 62 -238 31 -121 60 -224 65 -229 l9 -10
0 15 c0 11 -68 283 -111 442 l-10 37 -10 0 -10 0 5 -17z"/>
<path d="M81536 46145 c-104 -85 -194 -156 -200 -158 l-11 -4 7 -8 7 -8 28 18
c15 10 106 81 201 158 154 125 189 158 165 156 -5 0 -93 -70 -197 -154z"/>
<path d="M30768 46283 l-58 -4 0 -11 0 -11 173 6 c94 4 198 7 230 7 l57 0 0
10 0 10 -172 -2 c-95 -1 -199 -3 -230 -5z"/>
<path d="M28035 46264 c-110 -7 -212 -13 -227 -13 l-28 -1 0 -12 0 -11 148 7
c81 3 193 9 250 13 l102 6 0 13 0 14 -22 -1 c-13 -1 -113 -8 -223 -15z"/>
<path d="M81590 46119 c-191 -153 -206 -166 -198 -174 2 -3 85 58 184 136 212
167 197 155 193 167 l-4 10 -175 -139z"/>
<path d="M93091 46095 l15 -15 75 -13 76 -14 24 -16 23 -17 52 0 51 0 62 32
c33 17 61 35 61 40 l0 8 -69 -35 -68 -35 -36 0 -36 0 -35 21 -35 20 -68 10
-68 10 -9 9 c-6 6 -15 10 -20 10 l-10 0 15 -15z"/>
<path d="M81344 45948 l-7 -11 11 7 c7 4 12 9 12 12 0 8 -9 4 -16 -8z"/>
<path d="M81370 45886 c-4 -13 -14 -43 -20 -67 -6 -24 -20 -66 -32 -94 l-21
-50 -16 -12 -16 -12 10 -1 c31 0 54 45 90 178 21 80 24 107 5 58z"/>
<path d="M81300 45792 c-12 -38 -25 -74 -30 -81 l-7 -13 -34 -8 -34 -8 32 -1
32 -1 14 14 14 14 22 72 c13 39 21 74 18 76 -3 3 -15 -26 -27 -64z"/>
<path d="M90838 45842 l-208 -15 0 -7 0 -8 43 4 c23 3 134 11 246 19 112 8
206 17 209 20 7 7 -50 4 -290 -13z"/>
<path d="M81248 45621 l4 -39 -11 -20 -11 -21 9 -5 9 -6 11 32 11 32 -6 33
c-3 18 -9 33 -13 33 l-7 0 4 -39z"/>
<path d="M50435 45243 c-26 -115 -50 -215 -53 -223 l-5 -15 9 8 9 8 51 215
c28 118 48 214 44 214 -3 0 -28 -93 -55 -207z"/>
<path d="M30726 45243 l6 -188 8 -30 8 -30 1 81 c1 44 -2 142 -6 217 l-6 137
-8 0 -8 0 5 -187z"/>
<path d="M89060 45239 c-102 -77 -192 -147 -200 -156 l-15 -16 15 9 c19 10
370 272 390 290 l14 14 -9 -1 c-6 0 -93 -63 -195 -140z"/>
<path d="M4560 45263 c0 -5 59 -63 131 -129 l130 -119 72 -26 72 -27 160 -32
c88 -17 212 -44 275 -60 180 -44 308 -68 395 -74 l80 -5 -15 8 -15 8 -85 6
-85 6 -150 37 c-82 19 -242 55 -355 78 l-205 43 -65 23 -65 24 -47 40 c-26 23
-88 79 -137 125 -50 46 -91 79 -91 74z"/>
<path d="M35158 45069 c-101 -89 -185 -163 -187 -165 -2 -2 0 -4 6 -4 6 0 94
74 197 165 103 91 182 165 177 165 -5 0 -92 -73 -193 -161z"/>
<path d="M34816 44923 c-3 -49 -8 -118 -10 -155 l-5 -68 9 -5 9 -5 5 52 c3 29
8 101 11 161 l6 107 -9 0 -10 0 -6 -87z"/>
<path d="M16960 44875 l0 -20 20 -25 c28 -37 32 -20 4 25 l-24 40 0 -20z"/>
<path d="M34668 44823 c-32 -14 -58 -30 -58 -34 0 -13 7 -11 71 17 l59 27 0 8
c0 13 -10 11 -72 -18z"/>
<path d="M15471 44625 l-1 -100 10 -59 c5 -32 12 -61 15 -64 11 -12 15 6 5 34
l-10 29 -8 130 -9 130 -2 -100z"/>
<path d="M94457 44488 c-76 -55 -136 -102 -133 -105 4 -4 251 170 281 198 l9
9 -9 0 c-6 -1 -72 -46 -148 -102z"/>
<path d="M52452 44462 l-13 -9 100 -206 100 -207 10 0 c5 0 13 5 17 11 l6 11
-98 204 c-54 112 -101 204 -104 204 -3 0 -11 -4 -18 -8z"/>
<path d="M26560 44381 c1 -9 399 -195 405 -189 3 2 -87 47 -200 100 -113 53
-205 93 -205 89z"/>
<path d="M26545 44340 c3 -5 10 -10 15 -10 5 0 92 -41 195 -91 l186 -91 6 6 6
6 -69 31 c-38 17 -129 60 -203 95 -143 68 -145 69 -136 54z"/>
<path d="M52611 44218 l23 -48 19 0 19 0 39 -38 38 -38 7 -29 7 -29 -12 -44
-11 -43 9 -16 8 -16 18 47 18 46 -7 46 -6 46 -30 38 -30 37 -32 13 c-18 7 -48
27 -66 44 l-34 31 23 -47z"/>
<path d="M52520 44180 l-15 -9 11 -11 11 -11 17 7 17 6 -4 11 c-5 15 -20 18
-37 7z"/>
<path d="M52447 44103 c-4 -3 -7 -19 -7 -35 l0 -28 14 0 14 0 4 23 c7 37 -7
59 -25 40z"/>
<path d="M52535 44020 l-6 -9 97 -206 c54 -113 100 -205 103 -205 3 0 12 4 19
8 l12 8 -97 207 -98 207 -12 0 c-6 0 -15 -4 -18 -10z"/>
<path d="M34525 43938 c-3 -7 -25 -71 -50 -143 -46 -130 -71 -181 -108 -222
l-20 -23 6 -6 7 -7 16 14 c9 8 28 32 42 53 l25 40 53 153 54 153 -11 0 c-5 0
-12 -6 -14 -12z"/>
<path d="M52542 43884 l3 -17 23 -8 22 -9 -9 19 c-6 10 -18 21 -26 25 l-16 6
3 -16z"/>
<path d="M52668 43893 c-22 -5 -23 -22 -2 -30 l15 -6 12 12 11 11 -9 8 -10 9
-17 -4z"/>
<path d="M78576 43590 l-26 -40 -38 -23 -37 -24 -115 -17 c-63 -10 -118 -20
-123 -23 l-7 -4 5 -8 4 -8 123 18 123 19 34 17 33 18 39 52 c43 58 45 63 25
63 l-13 0 -27 -40z"/>
<path d="M34532 43446 l-31 -67 -75 -102 c-87 -120 -108 -140 -201 -200 l-70
-44 -65 -21 c-36 -12 -89 -27 -118 -33 -29 -6 -51 -13 -48 -16 7 -7 146 23
203 45 52 20 159 88 206 131 44 39 171 218 206 289 l32 64 -4 11 -3 11 -32
-68z"/>
<path d="M40550 43340 c-64 -77 -220 -293 -215 -299 3 -2 6 -2 8 0 2 2 39 54
82 114 43 61 103 138 133 173 l54 62 -10 0 c-6 0 -29 -22 -52 -50z"/>
<path d="M52432 43247 c-7 -8 -86 -49 -177 -92 -91 -43 -165 -82 -165 -86 0
-9 336 153 353 170 l11 11 -6 5 -5 5 -11 -13z"/>
<path d="M52476 43242 l-7 -20 -37 -25 c-20 -13 -103 -55 -185 -93 -81 -38
-143 -70 -138 -72 7 -2 274 120 339 156 l23 13 10 26 c5 14 8 28 5 30 -2 3 -7
-4 -10 -15z"/>
<path d="M41393 43180 c3 -8 40 -96 82 -195 42 -99 83 -195 91 -214 8 -19 17
-32 19 -29 7 6 -173 429 -188 443 l-10 10 6 -15z"/>
<path d="M29465 43160 c3 -5 11 -10 18 -10 6 0 43 -19 81 -42 l71 -41 108 -90
c59 -49 110 -87 113 -85 7 7 -202 178 -264 216 -47 29 -116 62 -129 62 -2 0
-1 -4 2 -10z"/>
<path d="M32129 42993 c-35 -38 -126 -144 -201 -238 l-137 -170 -110 -103
c-61 -57 -111 -108 -111 -114 l0 -10 9 4 c5 2 67 59 138 128 l128 125 152 185
c83 102 165 198 182 214 31 29 39 46 23 46 -5 0 -38 -30 -73 -67z"/>
<path d="M10490 42970 l0 -30 10 0 10 0 0 30 0 30 -10 0 -10 0 0 -30z"/>
<path d="M51380 42935 c0 -27 51 -349 56 -354 11 -11 12 8 3 47 -5 24 -18 104
-29 179 -19 126 -30 174 -30 128z"/>
<path d="M49463 42919 l-23 -8 0 -11 0 -10 24 0 25 0 7 11 6 11 -8 8 -9 8 -22
-9z"/>
<path d="M51163 42906 c-84 -12 -156 -25 -159 -29 -4 -4 -5 -7 -3 -7 25 0 352
50 357 54 l5 6 -24 -1 c-13 -1 -92 -11 -176 -23z"/>
<path d="M35591 42860 c-13 -11 -30 -20 -38 -20 l-14 0 5 -9 6 -9 23 5 c24 6
57 31 57 45 0 13 -13 9 -39 -12z"/>
<path d="M50593 42664 c6 -165 10 -195 22 -183 2 3 2 85 -2 182 l-6 177 -10 0
-10 0 6 -176z"/>
<path d="M31730 42459 l-205 -206 -81 -56 -82 -57 -51 -56 c-47 -51 -61 -74
-45 -74 3 0 27 23 52 51 l45 51 76 55 c109 80 182 143 294 252 101 98 211 226
205 239 -2 4 -95 -86 -208 -199z"/>
<path d="M52312 42650 c20 -52 193 -400 199 -400 l8 0 -99 202 c-55 110 -103
204 -107 207 l-6 6 5 -15z"/>
<path d="M51041 42515 c-188 -24 -346 -46 -349 -49 l-5 -6 14 0 c36 1 722 89
727 94 l5 6 -24 -1 c-13 -1 -179 -21 -368 -44z"/>
<path d="M92070 42498 c22 -23 381 -250 386 -245 4 4 -338 227 -386 252 l-15
8 15 -15z"/>
<path d="M30095 42475 c5 -11 16 -57 26 -101 l17 -82 7 -126 7 -126 10 0 9 0
-5 18 c-2 9 -8 73 -11 142 l-7 125 -19 75 -19 74 -12 11 -11 10 8 -20z"/>
<path d="M51470 42124 c0 -29 51 -429 55 -433 3 -2 5 4 5 15 -1 41 -48 416
-54 421 l-6 6 0 -9z"/>
<path d="M57107 42103 l-6 -9 154 -154 154 -154 8 7 7 8 -156 156 -155 155 -6
-9z"/>
<path d="M31172 41998 c-21 -29 -82 -115 -137 -191 l-98 -138 9 -9 10 -10 129
182 c72 100 133 187 138 194 l7 13 -9 6 -10 6 -39 -53z"/>
<path d="M30115 41964 l4 -81 13 -29 c18 -42 209 -270 333 -399 59 -60 103
-103 99 -95 -4 8 -56 67 -115 130 -134 144 -274 313 -300 362 l-19 37 -1 53
c-1 29 -5 64 -10 78 l-9 25 5 -81z"/>
<path d="M93733 41822 c-95 -70 -178 -133 -185 -141 l-13 -14 15 8 c24 13 370
266 370 271 0 12 -29 -8 -187 -124z"/>
<path d="M50596 41823 c-3 -60 -9 -180 -12 -269 l-7 -161 10 -6 10 -6 7 172
c3 94 9 218 13 275 l6 102 -10 0 -10 0 -7 -107z"/>
<path d="M50646 41718 c-4 -117 -9 -239 -12 -270 l-6 -58 10 0 10 0 6 58 c3
31 8 153 12 270 l6 212 -10 0 -10 0 -6 -212z"/>
<path d="M6684 41656 l25 -56 6 -58 7 -57 -10 -40 c-5 -22 -13 -48 -17 -57
l-7 -18 15 0 16 0 10 38 11 37 -1 75 0 75 -17 43 -18 42 -22 16 -22 15 24 -55z"/>
<path d="M82727 41638 c4 -7 110 -179 236 -383 125 -203 232 -371 237 -373
l10 -4 0 13 c0 6 -19 42 -43 78 -24 36 -128 204 -232 374 l-190 307 -13 0 -13
0 8 -12z"/>
<path d="M41169 41488 c0 -131 -12 -270 -24 -303 l-8 -20 12 11 13 12 9 68 c4
38 12 133 15 212 l7 142 -11 0 -12 0 -1 -122z"/>
<path d="M48350 41403 c-46 -60 -105 -136 -132 -169 l-48 -62 15 -6 15 -5 129
166 130 167 -5 8 c-11 17 -23 5 -104 -99z"/>
<path d="M57610 41408 c-25 -22 -55 -44 -68 -49 l-23 -9 -392 -2 -392 -1 365
-8 365 -8 45 5 45 6 55 48 c30 27 52 51 50 53 -3 3 -25 -13 -50 -35z"/>
<path d="M30294 41121 l-292 -218 -63 -16 c-35 -9 -76 -19 -91 -22 l-28 -5 0
-9 0 -8 53 9 c28 5 74 16 101 25 l49 15 293 219 c162 121 294 222 294 224 0
18 -58 -21 -316 -214z"/>
<path d="M56724 41115 l0 -210 3 108 c2 59 2 154 0 210 l-3 102 0 -210z"/>
<path d="M30450 41168 l-185 -140 -3 -15 -4 -15 183 138 c100 77 187 142 192
145 l9 7 -3 10 -4 10 -185 -140z"/>
<path d="M28503 41247 l3 -11 80 -17 79 -16 151 -5 151 -6 0 12 0 11 -146 3
-146 4 -88 18 -88 18 4 -11z"/>
<path d="M58120 40970 l0 -70 10 0 10 0 0 70 0 70 -10 0 -10 0 0 -70z"/>
<path d="M56740 40929 l0 -9 458 1 c251 0 453 2 447 4 -5 2 -211 6 -457 8
l-448 5 0 -9z"/>
<path d="M57748 40883 c56 -2 148 -2 205 0 l102 3 -205 0 -205 0 103 -3z"/>
<path d="M97193 40677 c-101 -34 -183 -65 -183 -69 0 -6 378 117 388 127 13
13 -36 -1 -205 -58z"/>
<path d="M86345 40609 l-40 -50 -68 -51 c-38 -28 -96 -66 -130 -84 -73 -40
-60 -46 16 -8 107 54 198 128 248 201 l30 43 -8 0 c-5 0 -26 -23 -48 -51z"/>
<path d="M53373 40548 c-17 -24 -38 -61 -48 -83 l-17 -40 -33 -183 -32 -183
11 4 10 3 28 160 27 159 22 55 c12 30 35 73 51 94 15 22 28 44 28 48 0 19 -19
5 -47 -34z"/>
<path d="M65460 40373 c8 -3 104 -37 212 -74 l197 -68 6 8 5 9 -191 66 -191
66 -26 -1 -27 -1 15 -5z"/>
<path d="M85430 40260 l-145 -17 -56 -24 -55 -24 -182 -115 -181 -115 -1 -12
0 -12 173 112 c94 61 201 126 237 145 l65 33 163 18 c90 10 166 21 169 25 l6
6 -24 -1 c-13 -1 -89 -9 -169 -19z"/>
<path d="M83675 40111 l-6 -11 117 -182 c65 -101 119 -185 121 -187 2 -3 7 0
12 5 l9 9 -119 184 c-65 101 -121 186 -123 188 -2 3 -7 0 -11 -6z"/>
<path d="M46520 40080 c0 -8 5 -22 10 -30 l10 -15 0 15 c0 8 -5 22 -10 30
l-10 15 0 -15z"/>
<path d="M54673 40016 c3 -7 60 -93 127 -190 l122 -177 10 3 c5 2 10 6 11 10
1 3 -54 87 -122 187 l-125 181 -14 0 -14 0 5 -14z"/>
<path d="M83940 39984 c0 -5 184 -301 226 -364 13 -19 24 -31 24 -26 0 9 -240
396 -246 396 -2 0 -4 -3 -4 -6z"/>
<path d="M84780 39956 c0 -4 39 -65 87 -134 47 -70 165 -257 261 -417 191
-317 180 -300 186 -294 11 10 -472 784 -525 844 l-9 9 0 -8z"/>
<path d="M84840 39942 c0 -7 29 -54 64 -105 35 -50 111 -171 168 -267 146
-246 540 -871 545 -866 3 3 -89 155 -204 338 -115 183 -255 410 -310 503 -105
178 -263 417 -263 397z"/>
<path d="M48256 39799 c-59 -78 -106 -143 -103 -145 2 -2 48 53 102 123 54 71
103 134 108 141 5 7 8 14 6 17 -3 2 -53 -59 -113 -136z"/>
<path d="M59829 39522 c-2 -97 -3 -201 -1 -230 l4 -52 6 0 7 0 0 230 0 230 -6
0 -7 0 -3 -178z"/>
<path d="M45410 39655 c0 -11 5 -27 10 -35 l10 -15 0 20 c0 11 -5 27 -10 35
l-10 15 0 -20z"/>
<path d="M94795 39557 c-88 -62 -171 -120 -185 -129 -13 -10 -22 -19 -19 -22
2 -2 81 50 174 116 94 65 177 123 185 128 8 5 12 11 10 14 -3 3 -78 -45 -165
-107z"/>
<path d="M51071 39634 c0 -6 -10 -60 -21 -120 -23 -126 -24 -145 -9 -196 l10
-38 36 -35 c20 -19 41 -35 47 -35 l11 1 -31 27 c-41 36 -59 68 -67 117 l-7 40
21 108 20 109 -4 16 -5 17 -1 -11z"/>
<path d="M2960 39476 c0 -12 43 -76 48 -71 7 6 -30 75 -40 75 -5 0 -8 -2 -8
-4z"/>
<path d="M2930 39453 c0 -5 9 -23 21 -42 l20 -33 6 5 5 6 -22 35 c-21 35 -30
43 -30 29z"/>
<path d="M55305 39110 l-7 -12 28 -29 c16 -16 97 -76 179 -133 l150 -104 9 8
8 8 -5 10 c-4 5 -71 53 -149 107 -79 54 -157 111 -174 127 l-32 30 -7 -12z"/>
<path d="M62806 38849 c-3 -13 -9 -58 -15 -99 l-9 -75 -38 -89 -37 -90 -51
-75 -51 -76 -55 -56 c-30 -30 -84 -81 -120 -113 -36 -32 -60 -56 -53 -54 6 1
54 41 107 87 l96 84 53 71 c69 92 99 146 135 237 l29 74 12 94 c6 51 10 96 7
98 -3 3 -7 -5 -10 -18z"/>
<path d="M88107 38468 c-98 -61 -176 -112 -174 -115 4 -4 342 200 362 218 l9
9 -9 0 c-6 -1 -90 -51 -188 -112z"/>
<path d="M46052 38267 l-163 -163 14 -12 14 -12 158 165 158 166 -9 9 -10 10
-162 -163z"/>
<path d="M86965 37814 c-93 -58 -177 -113 -185 -121 l-15 -16 15 8 c27 14 355
218 365 227 l9 8 -9 0 c-6 0 -86 -48 -180 -106z"/>
<path d="M35010 37862 l0 -10 78 -46 77 -45 93 -87 c51 -48 95 -84 98 -82 2 3
-37 43 -88 90 l-93 84 -70 45 c-38 25 -76 48 -82 53 l-13 7 0 -9z"/>
<path d="M85135 37831 l-7 -12 128 -212 c100 -166 333 -536 350 -556 1 -1 7 0
13 3 l10 7 -76 117 c-42 64 -148 236 -236 382 -88 146 -164 269 -167 273 l-8
9 -7 -11z"/>
<path d="M60361 37804 c1 -5 66 -69 145 -143 l145 -134 -23 -25 c-13 -13 -57
-50 -98 -81 l-75 -57 -147 -57 c-80 -31 -154 -57 -163 -57 -25 0 -266 -72
-261 -78 3 -2 52 10 109 27 58 17 125 33 148 37 l44 7 140 55 140 56 75 57
c41 31 86 68 99 83 l24 25 10 -6 10 -6 -6 11 -7 10 47 42 c66 58 80 64 232 96
l134 28 -11 4 c-7 2 -72 -9 -144 -24 l-133 -27 -35 -25 c-19 -14 -49 -39 -67
-55 l-32 -30 -128 119 c-71 65 -138 128 -151 138 l-22 19 1 -9z"/>
<path d="M92803 37611 l6 -24 -10 -20 -11 -19 14 4 13 5 3 27 4 28 -13 12 -12
11 6 -24z"/>
<path d="M59320 37586 c0 -3 49 -105 110 -228 l110 -223 33 -37 34 -38 32 0
33 0 202 60 c110 32 226 64 256 70 30 6 73 18 95 27 22 8 51 19 64 24 13 5 21
12 19 15 -3 2 -29 -5 -58 -16 -29 -12 -83 -27 -120 -35 -37 -8 -159 -42 -271
-75 l-203 -61 -28 6 -27 6 -30 37 -29 37 -105 218 c-91 186 -117 234 -117 213z"/>
<path d="M89832 37430 c61 -88 113 -158 116 -156 5 6 -209 316 -219 316 -4 0
42 -72 103 -160z"/>
<path d="M86125 37204 c-159 -107 -294 -196 -300 -198 l-10 -3 6 -6 5 -6 295
196 c326 217 304 202 298 207 -2 2 -134 -84 -294 -190z"/>
<path d="M85615 37320 c3 -5 8 -10 11 -10 3 0 2 5 -1 10 -3 6 -8 10 -11 10 -3
0 -2 -4 1 -10z"/>
<path d="M85635 37290 c3 -5 8 -10 11 -10 3 0 2 5 -1 10 -3 6 -8 10 -11 10 -3
0 -2 -4 1 -10z"/>
<path d="M85660 37250 c6 -11 13 -20 16 -20 2 0 0 9 -6 20 -6 11 -13 20 -16
20 -2 0 0 -9 6 -20z"/>
<path d="M85685 37210 c3 -5 8 -10 11 -10 3 0 2 5 -1 10 -3 6 -8 10 -11 10 -3
0 -2 -4 1 -10z"/>
<path d="M85715 37160 c3 -5 8 -10 11 -10 3 0 2 5 -1 10 -3 6 -8 10 -11 10 -3
0 -2 -4 1 -10z"/>
<path d="M85735 37130 c3 -5 8 -10 11 -10 3 0 2 5 -1 10 -3 6 -8 10 -11 10 -3
0 -2 -4 1 -10z"/>
<path d="M85861 37080 l-55 -39 -14 12 -15 12 13 -21 14 -22 55 40 c31 23 60
45 66 49 l9 9 -9 0 c-6 0 -34 -18 -64 -40z"/>
<path d="M85765 37080 c3 -5 8 -10 11 -10 3 0 2 5 -1 10 -3 6 -8 10 -11 10 -3
0 -2 -4 1 -10z"/>
<path d="M40758 36647 c-75 -18 -140 -35 -144 -39 -11 -11 -9 -11 157 27 l153
36 12 -5 13 -5 6 -48 c4 -26 11 -59 16 -73 l9 -25 -6 53 c-3 29 -9 65 -13 80
l-7 27 -30 2 -29 1 -137 -31z"/>
<path d="M88482 36123 c-105 -65 -191 -122 -192 -126 l0 -8 13 3 c22 5 386
232 387 241 0 15 -22 4 -208 -110z"/>
<path d="M86245 35980 c59 -60 79 -75 54 -42 -28 37 -94 102 -103 102 l-10 0
59 -60z"/>
<path d="M53756 35968 c-3 -13 -6 -35 -6 -50 l0 -28 10 0 10 0 0 19 c0 10 3
33 6 50 l7 31 -11 0 -10 0 -6 -22z"/>
<path d="M39837 35703 c6 -173 15 -324 20 -320 2 3 1 98 -3 211 l-7 206 -6 0
-7 0 3 -97z"/>
<path d="M41769 35677 l13 -17 -5 -26 -5 -26 10 10 10 10 -4 28 -3 27 -15 5
-15 5 14 -16z"/>
<path d="M84916 35603 c-27 -7 -1390 -885 -1941 -1251 l-460 -305 -16 1 -16 1
0 -15 0 -14 11 -1 11 0 124 -150 c68 -82 126 -148 128 -145 3 2 -50 70 -116
150 -67 80 -121 149 -121 153 1 13 904 608 1673 1102 l719 461 24 0 24 0 20
-20 c11 -11 33 -46 49 -78 16 -32 56 -94 88 -137 32 -44 142 -215 242 -380
101 -165 198 -318 214 -340 17 -22 32 -42 34 -44 2 -2 5 -2 8 1 l6 5 -24 29
c-14 16 -110 170 -216 341 -105 172 -217 348 -248 390 -32 43 -75 111 -96 150
l-38 72 -22 16 c-22 15 -28 16 -61 8z"/>
<path d="M40419 35407 l-10 -22 10 -25 10 -25 -1 36 c-1 20 2 41 6 47 4 7 5
12 1 12 -3 0 -10 -10 -16 -23z"/>
<path d="M85150 35375 c0 -3 24 -38 54 -78 29 -40 133 -202 231 -362 98 -159
185 -298 193 -308 24 -27 26 -12 4 20 -12 15 -98 154 -192 308 -183 297 -290
453 -290 420z"/>
<path d="M52363 34839 c-87 -83 -160 -156 -162 -162 -4 -13 199 175 284 262
99 102 32 47 -122 -100z"/>
<path d="M78470 34840 c-102 -55 -189 -101 -195 -103 -5 -3 -8 -7 -5 -10 5 -6
365 184 383 202 6 6 9 11 7 11 -3 0 -88 -45 -190 -100z"/>
<path d="M51426 34909 c-12 -53 -116 -863 -111 -867 2 -2 6 6 9 19 12 53 116
863 111 867 -2 2 -6 -6 -9 -19z"/>
<path d="M81770 34833 c0 -5 36 -44 81 -88 l81 -80 55 -75 c31 -41 71 -94 90
-118 l35 -42 10 6 10 6 -30 32 c-16 17 -49 58 -72 91 -44 60 -233 267 -251
273 l-9 4 0 -9z"/>
<path d="M32530 34781 c0 -4 109 -60 243 -124 l244 -117 200 -59 c110 -32 211
-62 224 -66 l24 -7 -10 10 c-5 5 -107 38 -225 73 l-215 62 -242 118 c-134 65
-243 114 -243 110z"/>
<path d="M75610 34562 c-113 -50 -276 -137 -285 -153 l-6 -9 6 0 c3 0 42 20
86 45 44 25 136 70 204 100 l125 53 6 -9 c3 -5 10 -9 16 -9 l10 0 -12 15 -12
15 -17 -1 c-9 0 -63 -21 -121 -47z"/>
<path d="M59564 34542 c-179 -109 -284 -177 -284 -184 0 -4 79 42 176 103
l176 110 16 -3 17 -3 75 -203 c41 -112 76 -199 78 -194 3 11 -136 392 -150
410 -15 17 -17 17 -104 -36z"/>
<path d="M85450 34474 c-206 -129 -196 -122 -187 -130 l6 -6 191 118 c167 104
210 135 183 134 -5 -1 -91 -53 -193 -116z"/>
<path d="M57455 34438 c18 -40 54 -116 79 -168 l45 -95 1 15 c0 19 -142 320
-151 320 l-8 0 34 -72z"/>
<path d="M3030 34450 c-85 -4 -184 -8 -219 -9 l-64 -1 6 -6 6 -6 225 7 226 7
0 9 0 9 -12 -2 c-7 -1 -83 -5 -168 -8z"/>
<path d="M55389 34215 c-113 -17 -212 -35 -220 -38 l-14 -5 16 -1 c25 -2 460
67 467 73 l5 6 -24 -1 c-13 -1 -117 -16 -230 -34z"/>
<path d="M54433 34081 c-105 -14 -195 -29 -199 -33 l-6 -7 33 5 c19 3 116 15
217 28 101 13 186 27 189 30 l6 6 -24 -1 c-13 -1 -110 -13 -216 -28z"/>
<path d="M57643 34043 c12 -27 26 -54 30 -60 l8 -13 18 0 18 0 58 -131 c32
-71 63 -133 68 -136 l10 -6 -5 9 c-2 5 -31 68 -64 141 l-59 132 -20 3 -20 3
-24 53 c-14 28 -28 52 -32 52 l-8 0 22 -47z"/>
<path d="M53110 33944 c-118 -18 -219 -33 -224 -33 -5 -1 -7 -3 -4 -6 5 -6
439 54 447 61 13 11 -24 8 -219 -22z"/>
<path d="M79411 32686 c7 -7 362 -146 373 -146 l9 0 -6 7 c-11 11 -185 83
-276 114 -80 27 -110 35 -100 25z"/>
<path d="M30880 32651 c0 -8 34 -21 55 -21 11 1 -35 29 -47 30 -5 0 -8 -4 -8
-9z"/>
<path d="M73103 32462 l-101 -15 4 -11 5 -12 104 14 105 15 0 14 c0 7 -3 12
-7 12 -5 -1 -54 -8 -110 -17z"/>
<path d="M41475 31540 c-16 -11 -25 -20 -20 -20 6 0 24 9 40 20 17 11 26 20
20 20 -5 0 -23 -9 -40 -20z"/>
<path d="M41525 31510 l-18 -20 11 0 c6 0 16 9 22 20 6 11 9 20 7 20 -2 0 -12
-9 -22 -20z"/>
<path d="M41400 31455 l-12 -15 10 0 c12 0 26 19 19 26 -2 2 -10 -2 -17 -11z"/>
<path d="M41462 31420 l-12 -20 8 0 c4 0 13 9 20 20 l12 20 -8 0 c-4 0 -13 -9
-20 -20z"/>
<path d="M41330 31365 l-14 -25 10 -9 c5 -4 28 -18 51 -31 l41 -23 16 6 16 6
0 25 0 25 -11 7 -11 7 7 -22 6 -21 -6 -10 -6 -9 -44 21 c-48 23 -51 28 -35 59
l11 19 -9 0 c-5 0 -15 -11 -22 -25z"/>
<path d="M94315 29334 c-16 -13 -111 -81 -210 -151 -258 -181 -564 -403 -570
-414 l-6 -9 7 0 c3 0 101 69 216 153 116 83 283 204 372 267 177 125 247 179
231 179 -5 0 -23 -11 -40 -25z"/>
<path d="M84007 29023 l-7 -6 63 -66 c34 -36 102 -103 150 -148 l88 -83 11 6
10 7 -148 148 c-82 82 -151 149 -155 149 -3 0 -9 -3 -12 -7z"/>
<path d="M21926 27259 c-9 -42 -56 -348 -56 -365 0 -10 2 -15 5 -13 7 8 66
391 61 396 -3 3 -7 -5 -10 -18z"/>
<path d="M95492 26915 l-372 -274 7 -4 8 -5 280 205 c154 113 322 236 373 273
l93 68 -8 5 -8 5 -373 -273z"/>
<path d="M20910 26957 l0 -13 133 -17 c72 -10 172 -27 220 -39 l88 -20 6 6 c4
3 4 8 1 11 -12 13 -153 44 -263 59 -66 9 -135 19 -152 22 l-33 5 0 -14z"/>
<path d="M23940 26452 c0 -12 30 -37 55 -47 26 -9 368 -54 375 -48 12 11 -34
21 -168 37 -160 19 -216 32 -233 53 -13 15 -29 17 -29 5z"/>
<path d="M87395 25991 l-6 -10 202 -162 201 -161 9 9 9 9 -187 150 c-102 82
-194 155 -204 162 l-18 12 -6 -9z"/>
<path d="M87649 25654 l-12 -15 9 -7 c5 -4 80 -77 167 -162 l157 -154 15 15
15 14 -169 162 -169 163 -13 -16z"/>
<path d="M24409 25593 c-6 -16 -24 -64 -41 -108 l-29 -80 -39 -170 c-21 -93
-40 -185 -44 -202 l-5 -33 12 0 12 0 39 183 39 182 44 124 c49 139 46 131 33
131 l-10 0 -11 -27z"/>
<path d="M90490 24839 c47 -5 150 -18 230 -30 l145 -20 119 -35 118 -35 120
-50 c66 -27 125 -48 130 -47 l10 4 -136 58 -136 57 -102 29 -101 30 -133 20
-134 20 -107 5 -108 4 85 -10z"/>
<path d="M24042 24448 c-24 -68 -58 -165 -77 -215 l-33 -93 13 0 13 0 25 73
c14 39 48 136 76 215 l50 142 -12 0 -12 0 -43 -122z"/>
<path d="M22722 22085 c-181 -19 -225 -27 -211 -38 2 -2 95 5 206 17 l202 20
5 13 c3 7 4 12 3 12 -1 -1 -93 -12 -205 -24z"/>
<path d="M89545 20878 c-77 -71 -142 -135 -144 -141 -4 -11 65 49 224 196 39
36 68 67 65 70 -3 2 -68 -54 -145 -125z"/>
<path d="M96780 16807 c0 -2 36 -34 81 -72 44 -37 125 -105 180 -152 54 -46
99 -80 99 -75 0 9 -333 294 -351 300 -5 2 -9 2 -9 -1z"/>
<path d="M92371 16559 c-89 -67 -160 -124 -157 -126 2 -2 78 50 168 118 188
140 174 129 161 129 -5 0 -82 -55 -172 -121z"/>
<path d="M92177 16433 l-6 -10 96 -104 c53 -57 123 -132 156 -166 l59 -63 9 6
9 5 -147 157 c-80 86 -152 163 -159 170 l-12 14 -5 -9z"/>
<path d="M0 14927 l0 -14 25 -11 24 -11 6 9 6 9 -31 16 -30 16 0 -14z"/>
<path d="M25490 12734 c-30 -7 -121 -21 -202 -31 -82 -9 -148 -20 -148 -23 l0
-6 118 13 c64 7 156 20 205 29 l87 16 0 9 c0 5 -1 9 -2 8 -2 -1 -28 -7 -58
-15z"/>
<path d="M13930 6301 l0 -10 38 -10 c20 -5 87 -19 147 -31 61 -12 143 -31 184
-42 l73 -20 9 9 10 10 -83 21 c-46 12 -137 33 -204 46 -66 14 -132 28 -147 31
l-27 7 0 -11z"/>
<path d="M19306 4352 l-5 -8 157 -57 c86 -32 188 -66 225 -77 l68 -19 -3 11
-4 11 -89 27 c-50 15 -146 48 -214 74 -141 52 -128 49 -135 38z"/>
<path d="M22242 2831 c2 -5 86 -75 186 -156 l184 -147 -4 16 -3 16 -175 140
c-163 130 -197 154 -188 131z"/>
<path d="M23015 2281 c3 -5 79 -68 170 -140 l164 -130 6 8 5 9 -165 131 c-91
72 -170 131 -176 131 l-10 0 6 -9z"/>
<path d="M22984 2232 c7 -11 313 -252 320 -252 21 0 -12 31 -149 138 -85 67
-160 122 -166 122 l-10 0 5 -8z"/>
<path d="M9450 1750 l0 -9 33 -5 c17 -3 106 -10 197 -16 91 -6 180 -13 198
-16 l32 -5 0 16 0 15 -27 0 c-16 0 -107 7 -203 15 -96 8 -187 15 -202 15 l-28
0 0 -10z"/>
<path d="M22363 1437 l-203 -91 9 -9 9 -9 198 89 198 90 4 11 4 12 -9 -1 c-4
0 -99 -41 -210 -92z"/>
<path d="M13580 1495 l0 -15 18 0 c51 0 1399 -106 1842 -144 283 -25 594 -50
690 -55 96 -6 379 -22 627 -37 l453 -27 7 6 c3 4 4 9 1 12 -4 4 -307 25 -1098
75 -85 6 -393 30 -685 55 -291 24 -809 65 -1150 90 -341 24 -639 47 -662 50
l-43 5 0 -15z"/>
<path d="M17675 1200 l-5 -9 7 -4 c5 -3 209 -20 455 -38 l448 -33 6 7 c4 4 5
9 2 12 -2 3 -189 18 -414 35 -225 16 -428 32 -451 34 l-42 5 -6 -9z"/>
<path d="M17220 1177 l0 -14 113 -11 c61 -7 252 -19 422 -28 l310 -16 465 -39
c459 -39 602 -49 1445 -109 237 -17 493 -35 570 -41 l140 -11 215 4 215 5 90
22 c50 12 97 26 105 31 l14 9 -6 6 -7 7 -57 -17 c-32 -9 -83 -21 -113 -26
l-56 -10 -205 1 -205 0 -250 16 c-137 8 -398 26 -580 39 -181 14 -427 32 -545
40 -118 9 -438 33 -710 55 -272 22 -664 49 -870 60 -206 12 -397 25 -425 30
-27 5 -56 9 -62 9 l-13 1 0 -13z"/>
</g>
</svg>
