<?xml version="1.0" standalone="no"?>
<!DOCTYPE svg PUBLIC "-//W3C//DTD SVG 20010904//EN"
 "http://www.w3.org/TR/2001/REC-SVG-20010904/DTD/svg10.dtd">
<svg version="1.0" xmlns="http://www.w3.org/2000/svg"
 width="7500.000000pt" height="7500.000000pt" viewBox="0 0 7500.000000 7500.000000"
 preserveAspectRatio="xMidYMid meet">
<metadata>
Created by potrace 1.16, written by Peter Selinger 2001-2019
</metadata>
<g transform="translate(0.000000,7500.000000) scale(0.075000,-0.075000)"
fill="#000000" stroke="none">
<path d="M32020 94481 c0 -5 81 -68 180 -141 l181 -131 11 3 12 4 -187 137
c-103 75 -189 137 -192 137 -3 0 -5 -4 -5 -9z"/>
<path d="M26342 91609 l5 -14 213 -62 214 -63 9 9 9 9 -68 21 c-38 11 -132 38
-209 61 -77 22 -148 43 -159 46 l-18 6 4 -13z"/>
<path d="M93561 89716 l-143 -143 4 -18 3 -18 145 152 c80 84 147 157 148 162
l4 9 -9 0 c-4 0 -73 -65 -152 -144z"/>
<path d="M82139 83604 c-35 -81 -63 -150 -62 -153 1 -3 5 -7 10 -8 l9 -3 61
137 c34 76 63 144 65 152 l3 14 -11 3 -10 4 -65 -146z"/>
<path d="M18010 82072 l0 -8 193 -46 c105 -25 207 -49 225 -52 l32 -5 0 9 0
10 -22 4 c-13 2 -111 25 -218 50 -210 50 -210 50 -210 38z"/>
<path d="M95385 80328 c-61 -83 -112 -156 -114 -162 l-3 -11 15 15 c27 27 227
310 219 310 -4 0 -57 -68 -117 -152z"/>
<path d="M74285 76520 c-28 -23 -100 -91 -162 -152 l-112 -112 6 -9 6 -9 106
104 c58 58 134 127 168 155 l62 51 -6 6 c-11 10 -17 7 -68 -34z"/>
<path d="M73708 70772 l-238 -2 0 -10 0 -10 234 0 235 0 6 11 c4 6 5 11 4 12
-2 1 -111 1 -241 -1z"/>
<path d="M36250 68040 l0 -10 200 -100 200 -100 0 13 0 12 -195 98 c-107 53
-197 97 -200 97 -3 0 -5 -4 -5 -10z"/>
<path d="M41730 63636 c0 -3 -18 -89 -41 -193 l-41 -188 -26 -52 -26 -53 10
-10 10 -10 27 57 27 58 40 175 c22 96 42 185 45 198 l5 22 -15 0 c-8 0 -15 -2
-15 -4z"/>
<path d="M89663 63303 l-213 -217 9 -9 8 -8 220 221 c121 121 217 222 215 225
-3 3 -10 5 -16 5 l-11 0 -212 -217z"/>
<path d="M41987 63280 c46 -61 225 -261 231 -256 2 3 -37 52 -88 108 -51 57
-107 122 -124 145 -17 23 -35 42 -39 43 -5 0 4 -18 20 -40z"/>
<path d="M45633 62728 c-6 -7 -13 -28 -16 -45 l-6 -33 5 -15 6 -15 9 6 9 5 0
27 0 28 15 20 14 21 -6 7 c-10 9 -20 7 -30 -6z"/>
<path d="M63391 62164 c-208 -42 -230 -48 -219 -59 4 -4 330 57 426 80 l22 5
0 10 c0 12 24 16 -229 -36z"/>
<path d="M44875 60664 c-38 -36 -132 -119 -207 -186 -76 -67 -135 -124 -133
-126 3 -3 33 20 67 50 35 31 128 113 208 183 80 70 147 132 148 136 8 22 -18
3 -83 -57z"/>
<path d="M44410 60199 c-74 -67 -137 -126 -139 -133 l-4 -11 29 25 c70 62 231
205 249 222 l19 18 -9 0 c-6 0 -71 -55 -145 -121z"/>
<path d="M57330 60210 l-14 -9 6 -7 7 -6 16 5 c8 4 15 11 15 17 0 12 -10 13
-30 0z"/>
<path d="M92210 59148 l-111 -123 -35 -59 -35 -59 4 -10 3 -11 46 71 46 71
101 111 c89 97 113 131 96 131 -2 0 -54 -55 -115 -122z"/>
<path d="M59161 59210 l17 -10 7 -27 c16 -68 119 -377 122 -368 1 6 -26 100
-61 210 l-64 200 -19 3 -18 3 16 -11z"/>
<path d="M84126 58613 c46 -87 91 -180 100 -206 9 -27 18 -47 20 -44 12 12
-179 406 -197 407 -4 0 31 -71 77 -157z"/>
<path d="M59580 58512 c0 -5 419 -164 554 -211 l11 -3 -10 10 c-5 6 -95 42
-200 80 -104 39 -227 84 -272 101 l-83 30 0 -7z"/>
<path d="M63903 58450 c3 -19 31 -152 62 -295 31 -143 90 -431 131 -639 41
-209 77 -382 80 -385 l6 -6 -7 45 c-30 189 -260 1298 -270 1308 l-8 7 6 -35z"/>
<path d="M60150 58296 c0 -2 43 -19 96 -37 l97 -34 9 -28 10 -27 18 -10 c10
-6 27 -10 38 -10 l19 0 21 23 22 24 -6 31 -6 32 -9 0 -8 0 5 -30 6 -30 -12
-15 -12 -15 -23 0 -23 0 -11 14 -12 15 3 15 3 16 -100 35 c-93 33 -125 41
-125 31z"/>
<path d="M86737 56352 l-167 -87 10 -3 10 -4 157 83 c172 89 168 87 162 93 -2
3 -80 -34 -172 -82z"/>
<path d="M64413 56250 c16 -5 35 -14 43 -21 l14 -11 0 -33 0 -32 -18 -16 -19
-17 -31 0 -31 0 -6 10 c-3 6 -12 10 -18 10 l-12 -1 24 -20 24 -20 31 7 31 6
23 21 23 22 -6 35 -6 35 -21 18 -20 17 -27 -1 -26 -1 28 -8z"/>
<path d="M90080 56018 c-96 -83 -176 -155 -178 -159 l-4 -9 10 0 c7 0 292 240
350 295 l14 13 -9 5 -8 5 -175 -150z"/>
<path d="M63777 56005 l-18 -25 -24 -6 -25 -6 0 -10 0 -10 28 7 27 6 23 21
c21 21 30 48 15 48 -5 0 -16 -12 -26 -25z"/>
<path d="M25991 55656 c2 -2 94 -68 204 -148 170 -122 255 -181 323 -222 l12
-7 0 8 c0 4 -24 22 -53 40 -29 17 -146 99 -261 182 -115 83 -214 151 -219 151
-6 0 -8 -2 -6 -4z"/>
<path d="M52125 54742 l-140 -216 -137 -175 c-75 -97 -135 -178 -132 -180 2
-2 6 -2 7 0 2 2 62 78 133 169 l130 165 133 205 c74 113 141 215 149 228 l14
22 -8 0 c-5 -1 -72 -98 -149 -218z"/>
<path d="M53202 54904 c-15 -26 -140 -218 -277 -428 -287 -436 -268 -406 -261
-406 6 0 484 717 553 829 l32 51 -10 0 c-5 0 -22 -21 -37 -46z"/>
<path d="M52222 54698 c-73 -110 -132 -202 -129 -204 2 -2 64 86 137 196 73
110 131 202 129 204 -2 2 -64 -86 -137 -196z"/>
<path d="M55076 54483 c-79 -237 -116 -357 -107 -347 13 14 171 494 162 494
-3 0 -29 -66 -55 -147z"/>
<path d="M52874 54230 c-80 -123 -148 -231 -151 -239 -3 -9 65 89 152 217 86
129 154 236 151 239 -3 3 -71 -95 -152 -217z"/>
<path d="M51586 54059 c-47 -55 -86 -105 -86 -110 0 -6 41 37 91 96 50 58 89
108 87 111 -3 2 -44 -41 -92 -97z"/>
<path d="M51450 53895 c-7 -9 -11 -17 -9 -20 3 -2 10 5 17 15 14 24 10 26 -8
5z"/>
<path d="M36310 53277 l0 -15 148 -8 c81 -4 183 -8 226 -8 l79 -1 4 10 3 11
-22 -1 c-48 0 -355 16 -395 21 l-43 6 0 -15z"/>
<path d="M79587 52723 c24 -98 49 -195 54 -216 l10 -38 8 6 9 5 -52 207 -52
207 -11 3 -11 4 45 -178z"/>
<path d="M70910 52640 c-19 -10 -51 -36 -71 -57 l-36 -38 -51 -128 -51 -128
12 4 11 3 47 117 47 117 31 37 31 38 42 21 41 21 -9 5 -9 6 -35 -18z"/>
<path d="M78090 52415 c0 -15 181 -506 252 -682 l80 -203 9 0 c5 0 9 3 9 6 0
3 -33 87 -74 187 -40 100 -115 298 -166 440 l-93 257 -9 0 c-4 0 -8 -2 -8 -5z"/>
<path d="M53020 52346 c0 -2 43 -93 95 -202 l95 -197 6 5 5 6 -95 196 c-81
167 -106 213 -106 192z"/>
<path d="M22506 51871 c-3 -5 -22 -96 -41 -202 l-36 -194 -13 -150 c-8 -82
-12 -152 -10 -154 12 -12 18 22 30 151 l12 143 31 170 c17 94 35 187 40 208
l9 37 -8 0 c-5 0 -11 -4 -14 -9z"/>
<path d="M53255 51528 c-116 -58 -109 -54 -101 -67 l7 -11 110 55 110 56 -6 9
c-9 14 -10 14 -120 -42z"/>
<path d="M21610 51149 c0 -12 95 -19 260 -19 165 0 260 7 260 19 l0 6 -260 0
-260 0 0 -6z"/>
<path d="M26775 50749 c-4 -94 -5 -173 -2 -175 3 -3 8 52 11 123 4 70 8 149
10 176 l3 47 -7 0 -7 0 -8 -171z"/>
<path d="M60370 49815 c0 -8 2 -15 5 -15 3 0 96 -20 207 -45 111 -25 208 -45
216 -45 l14 0 -4 12 -4 12 -195 43 c-107 23 -204 45 -216 48 l-23 5 0 -15z"/>
<path d="M35991 49430 c0 -14 12 -101 27 -194 l28 -170 6 10 6 9 -29 169 c-15
93 -30 177 -32 185 l-5 16 -1 -25z"/>
<path d="M34407 48813 c18 -113 35 -209 38 -211 15 -16 12 25 -18 208 l-32
203 -11 4 -11 4 34 -208z"/>
<path d="M40486 48651 l-6 -9 25 -16 25 -16 0 -15 0 -15 15 0 14 0 -6 18 c-9
24 -23 41 -44 53 l-18 9 -5 -9z"/>
<path d="M34098 48616 l-206 -11 -8 -8 -8 -8 89 6 c50 3 170 10 269 15 98 5
181 12 184 15 7 6 -61 5 -320 -9z"/>
<path d="M69172 47918 l4 -12 475 -98 c261 -53 582 -120 714 -148 132 -27 244
-50 248 -50 4 0 7 7 7 15 l0 15 -15 0 c-8 0 -332 65 -721 145 -388 80 -708
145 -710 145 -3 0 -4 -5 -2 -12z"/>
<path d="M17669 47133 c10 -27 27 -67 36 -91 l17 -42 24 -6 24 -6 91 32 c49
18 88 35 85 37 -2 3 -45 -10 -95 -27 l-91 -31 -18 10 -17 9 -30 81 c-16 45
-33 81 -37 81 l-8 0 19 -47z"/>
<path d="M44924 44457 l3 -118 -13 -132 c-16 -160 -16 -147 -6 -147 l8 0 2 43
c2 23 7 83 12 132 5 50 9 128 9 175 l0 85 -9 40 -9 40 3 -118z"/>
<path d="M42031 42921 l-13 -8 9 -6 8 -5 25 14 25 13 -20 0 c-11 1 -26 -3 -34
-8z"/>
<path d="M5205 42659 c-4 -6 -5 -12 -4 -13 16 -12 339 -176 348 -176 l11 0 0
13 0 13 -169 87 c-92 48 -171 87 -174 87 -3 0 -9 -5 -12 -11z"/>
<path d="M55900 42622 c0 -5 7 -26 15 -46 l16 -37 9 6 9 5 -13 37 -13 37 -11
4 -12 4 0 -10z"/>
<path d="M55970 41090 l0 -13 7 6 6 7 -6 7 -7 6 0 -13z"/>
<path d="M84226 39523 c21 -32 62 -97 92 -146 30 -48 59 -90 64 -93 l11 -7 -4
10 c-11 27 -185 293 -192 293 -4 0 9 -26 29 -57z"/>
<path d="M85129 37763 c0 -16 -4 -68 -9 -118 l-8 -90 40 -65 c48 -77 47 -75
53 -68 l6 6 -42 66 -41 66 7 115 7 115 -6 0 c-3 0 -6 -12 -7 -27z"/>
<path d="M86660 37573 c-63 -42 -129 -88 -146 -103 -17 -15 -149 -105 -293
-200 -144 -95 -260 -175 -257 -177 6 -6 525 337 592 391 29 25 94 70 144 102
49 31 90 58 90 60 0 11 -26 -3 -130 -73z"/>
<path d="M40934 36485 c3 -16 17 -109 31 -205 30 -211 36 -242 42 -236 3 2
-10 105 -27 228 l-32 223 -10 10 -10 10 6 -30z"/>
<path d="M59961 36176 l-13 -15 6 -10 c3 -5 43 -31 89 -57 45 -26 131 -76 191
-111 l109 -64 16 15 c8 9 13 17 10 19 -2 2 -83 50 -179 107 -96 57 -184 110
-196 117 l-21 13 -12 -14z"/>
<path d="M39877 35650 c3 -85 9 -180 13 -210 l8 -55 -5 190 -6 190 -8 20 -7
20 5 -155z"/>
<path d="M35500 35395 c0 -2 18 -28 40 -57 l41 -53 64 -133 c36 -73 65 -138
65 -143 0 -5 4 -9 10 -9 l9 0 -31 68 c-17 37 -45 99 -62 137 -18 39 -44 91
-59 117 l-28 46 -24 16 c-14 9 -25 14 -25 11z"/>
<path d="M39893 35323 l7 -6 7 6 6 7 -13 0 -13 0 6 -7z"/>
<path d="M60846 34874 c-4 -10 -39 -104 -77 -208 l-70 -190 3 -14 3 -14 78
212 c43 117 76 217 74 223 l-3 11 -8 -20z"/>
<path d="M84910 34075 l-185 -114 -4 -17 -3 -17 33 21 c19 11 106 65 193 119
l159 98 5 13 4 12 -9 0 c-4 0 -91 -52 -193 -115z"/>
<path d="M35749 34114 c-8 -9 -75 -71 -149 -137 -74 -66 -142 -126 -150 -134
l-14 -13 9 0 c10 0 318 271 330 290 l6 10 -9 0 c-5 0 -16 -7 -23 -16z"/>
<path d="M98818 31737 l-27 -11 -10 -29 -11 -29 29 31 29 31 29 0 28 0 -15 10
c-17 11 -16 11 -52 -3z"/>
<path d="M99820 30753 c-14 -2 -47 -11 -75 -20 l-50 -16 -53 -35 c-29 -19 -50
-37 -48 -39 3 -3 25 9 50 27 l46 31 57 20 56 19 51 1 c28 0 60 4 71 9 l20 9
-50 -1 c-27 0 -61 -3 -75 -5z"/>
<path d="M79866 30480 c10 -16 20 -27 23 -25 6 7 -21 55 -31 55 l-9 0 17 -30z"/>
<path d="M75675 27420 l-7 -12 28 -31 c57 -63 155 -169 220 -238 l67 -70 10
10 10 10 -133 143 c-73 79 -145 156 -160 172 l-28 28 -7 -12z"/>
<path d="M95310 26779 c-96 -71 -177 -134 -179 -140 -3 -9 325 226 359 257
l14 14 -9 -1 c-6 0 -89 -58 -185 -130z"/>
<path d="M87395 25990 l-5 -9 202 -160 202 -160 9 6 c4 3 7 6 5 8 -2 1 -94 75
-205 163 l-202 161 -6 -9z"/>
<path d="M87314 25977 l-5 -14 163 -161 163 -161 15 15 15 14 -160 160 -160
160 -13 0 -13 0 -5 -13z"/>
<path d="M87390 20154 c0 -12 302 -315 313 -314 4 0 6 3 5 6 -6 15 -318 317
-318 308z"/>
<path d="M98445 10531 l-5 -10 59 -48 c32 -26 110 -94 174 -150 105 -95 134
-116 125 -95 -1 4 -57 57 -123 117 -66 59 -140 128 -165 152 -47 45 -55 49
-65 34z"/>
<path d="M18136 1165 l-5 -15 19 0 c28 0 797 -59 848 -65 l42 -5 0 15 0 15
-15 0 c-24 0 -796 59 -842 64 l-41 5 -6 -14z"/>
</g>
</svg>
