<?xml version="1.0" standalone="no"?>
<!DOCTYPE svg PUBLIC "-//W3C//DTD SVG 20010904//EN"
 "http://www.w3.org/TR/2001/REC-SVG-20010904/DTD/svg10.dtd">
<svg version="1.0" xmlns="http://www.w3.org/2000/svg"
 width="7500.000000pt" height="7500.000000pt" viewBox="0 0 7500.000000 7500.000000"
 preserveAspectRatio="xMidYMid meet">
<metadata>
Created by potrace 1.16, written by Peter Selinger 2001-2019
</metadata>
<g transform="translate(0.000000,7500.000000) scale(0.075000,-0.075000)"
fill="#000000" stroke="none">
<path d="M84505 99988 c-13 -37 -75 -322 -70 -326 10 -10 14 5 53 171 l39 167
-9 0 c-5 0 -11 -6 -13 -12z"/>
<path d="M89953 99543 l-13 -5 19 -36 19 -37 35 -19 36 -18 25 6 26 6 0 10 0
10 -28 0 -28 0 -23 16 c-12 9 -30 29 -39 44 l-17 27 -12 -4z"/>
<path d="M90012 99309 c-12 -39 -36 -139 -53 -220 l-32 -149 7 -7 6 -6 6 6 c3
3 21 74 39 159 19 84 43 180 54 213 18 58 19 75 2 75 l-8 0 -21 -71z"/>
<path d="M83290 99052 l0 -10 138 -80 c134 -79 202 -111 292 -138 l45 -13 130
-12 130 -12 250 1 250 1 30 10 30 11 -85 -6 c-47 -3 -157 -5 -245 -5 l-160 -1
-155 12 c-85 6 -172 15 -193 21 -71 19 -192 75 -302 140 -60 36 -120 71 -132
78 l-23 12 0 -9z"/>
<path d="M83713 98873 l7 -11 77 -11 c43 -5 123 -13 178 -16 55 -3 119 -8 143
-11 l42 -5 0 10 0 11 -62 0 c-80 0 -347 26 -372 36 l-19 7 6 -10z"/>
<path d="M84930 98333 c0 -4 66 -116 146 -250 l147 -242 9 5 8 5 -22 38 c-13
20 -79 130 -148 244 -111 183 -140 225 -140 200z"/>
<path d="M12310 97181 c0 -13 26 -28 223 -131 l179 -92 9 9 9 9 -163 84 c-89
46 -179 94 -199 107 -40 24 -58 29 -58 14z"/>
<path d="M98616 95160 l-76 -80 0 -17 0 -18 85 85 85 85 0 12 c0 25 -18 12
-94 -67z"/>
<path d="M87817 93372 c-40 -42 -33 -51 8 -12 l36 35 79 -81 79 -80 14 8 c8 4
27 8 43 10 l29 2 38 -13 c21 -7 41 -11 44 -8 2 3 -20 13 -50 23 l-54 17 -30
-11 -30 -10 -74 74 -73 74 -16 0 -16 0 -27 -28z"/>
<path d="M87255 92800 c-110 -110 -204 -200 -209 -200 -6 0 -59 32 -118 71
-60 40 -111 70 -114 67 -2 -3 50 -41 116 -83 l122 -78 206 206 c113 113 204
208 201 211 -3 3 -95 -85 -204 -194z"/>
<path d="M82210 92161 c0 -7 41 -69 90 -138 50 -68 100 -143 112 -166 l21 -42
4 12 5 13 -23 37 c-18 29 -188 272 -205 292 -2 2 -4 -1 -4 -8z"/>
<path d="M94680 91210 l0 -10 14 0 c8 0 18 5 21 10 l6 10 -20 0 -21 0 0 -10z"/>
<path d="M94978 91174 l-23 -49 0 -80 c1 -44 3 -115 5 -157 l5 -78 8 0 c4 0
10 6 13 14 l5 14 -11 82 c-6 45 -11 103 -12 128 l0 47 21 59 c26 74 19 86 -11
20z"/>
<path d="M94776 91182 l-5 -8 19 -12 19 -12 6 10 6 10 -6 10 c-7 12 -32 13
-39 2z"/>
<path d="M94846 91111 l-6 -9 6 -31 6 -31 9 6 9 5 0 29 0 29 -9 6 -10 5 -5 -9z"/>
<path d="M94980 90774 c0 -14 27 -50 33 -44 3 3 -3 16 -13 30 l-20 25 0 -11z"/>
<path d="M29495 90464 c129 -58 262 -105 383 -134 l112 -27 0 7 0 7 -82 18
c-95 20 -293 89 -388 134 l-65 31 -20 0 -20 0 80 -36z"/>
<path d="M95824 90271 c3 -4 27 -16 53 -26 26 -10 89 -38 138 -62 l90 -45 53
-51 52 -51 0 10 c0 5 -24 33 -52 61 l-53 51 -62 31 c-59 29 -207 91 -219 91
-3 0 -3 -4 0 -9z"/>
<path d="M30755 90141 l30 -30 205 -82 c205 -82 358 -131 438 -142 l42 -5 -6
9 -5 9 -22 0 c-12 0 -65 12 -117 26 l-95 26 -215 85 -215 86 -26 23 c-14 13
-29 24 -34 24 l-10 0 30 -29z"/>
<path d="M85095 88928 c-115 -20 -307 -58 -425 -84 -245 -53 -376 -79 -505
-99 l-90 -14 65 4 c84 5 263 37 515 91 110 24 301 62 425 85 124 24 227 44
229 46 14 11 -27 5 -214 -29z"/>
<path d="M15542 88079 l5 -14 189 -107 c104 -59 196 -107 204 -108 l14 0 -9 9
c-8 8 -309 181 -384 220 l-23 13 4 -13z"/>
<path d="M56067 87123 l-4 -8 86 -204 87 -205 12 -4 12 -4 0 14 c0 7 -38 103
-84 213 l-84 199 -10 4 c-6 2 -12 -1 -15 -5z"/>
<path d="M88520 87059 c0 -8 27 -94 61 -191 l61 -178 9 0 8 0 -65 187 c-65
187 -74 209 -74 182z"/>
<path d="M83691 86956 c2 -2 81 -25 174 -51 94 -25 177 -48 185 -51 l15 -5
-10 9 c-5 5 -86 30 -180 56 -162 44 -194 51 -184 42z"/>
<path d="M47928 86808 c-9 -18 -64 -98 -121 -178 -58 -80 -103 -147 -101 -149
5 -6 -5 -18 116 149 113 157 131 186 126 201 l-4 11 -16 -34z"/>
<path d="M82071 85176 c9 -10 409 -144 409 -138 0 4 -89 37 -198 75 -183 62
-222 74 -211 63z"/>
<path d="M29660 85022 l0 -8 258 -76 257 -76 8 5 c5 3 6 7 4 9 -5 5 -506 154
-518 154 -5 0 -9 -4 -9 -8z"/>
<path d="M88285 84923 c13 -12 452 -136 467 -131 6 2 -92 33 -218 68 -126 35
-236 65 -244 68 l-15 5 10 -10z"/>
<path d="M80080 84522 c0 -9 419 -156 426 -150 2 3 -51 24 -118 48 -68 24
-165 58 -215 76 l-93 33 0 -7z"/>
<path d="M90201 84375 c3 -2 104 -32 224 -66 121 -34 227 -64 235 -67 l15 -5
-10 10 -10 11 -218 61 c-205 57 -247 67 -236 56z"/>
<path d="M80500 84332 c0 -5 212 -81 420 -150 l15 -5 -10 10 c-5 6 -103 42
-217 81 l-208 71 0 -7z"/>
<path d="M80961 84211 c25 -16 419 -150 419 -143 0 6 -359 133 -420 149 l-15
5 16 -11z"/>
<path d="M23910 84198 l0 -13 216 -93 216 -94 6 6 6 6 -10 9 c-7 6 -198 90
-401 177 l-33 14 0 -12z"/>
<path d="M86629 84119 c-1 -2 -9 -103 -19 -224 l-18 -220 7 -8 7 -7 3 52 c1
29 8 132 16 228 8 96 12 176 10 179 -3 2 -5 2 -6 0z"/>
<path d="M81811 83906 c2 -2 91 -35 197 -74 l192 -69 0 7 c0 9 -12 14 -209 85
-133 48 -195 65 -180 51z"/>
<path d="M77500 83660 l0 -8 207 -71 206 -72 11 5 11 4 -15 6 c-8 3 -106 37
-217 75 l-203 70 0 -9z"/>
<path d="M13750 83595 l0 -12 29 -6 c44 -9 260 -26 476 -37 l190 -9 55 -19
c31 -11 79 -32 109 -46 l53 -27 6 5 c7 7 8 7 -58 43 -30 17 -79 38 -109 47
l-54 16 -156 10 c-363 24 -439 30 -488 38 l-53 9 0 -12z"/>
<path d="M13746 83543 c-11 -11 -7 -19 12 -19 9 -1 76 -6 147 -12 72 -6 167
-13 213 -16 l82 -4 0 8 c0 11 -55 20 -130 20 -67 0 -256 16 -296 25 l-21 5 -7
-7z"/>
<path d="M47180 83420 l0 -10 13 0 c6 0 109 -16 227 -34 118 -19 217 -32 219
-30 2 2 1 7 -2 10 -6 6 -411 73 -444 74 l-13 0 0 -10z"/>
<path d="M82100 83405 l0 -15 14 0 14 0 6 15 5 15 -19 0 -20 0 0 -15z"/>
<path d="M47174 83368 l-5 -7 23 -6 c37 -8 401 -65 421 -65 l17 0 0 8 0 8
-226 35 -225 35 -5 -8z"/>
<path d="M86523 83142 c-1 -37 -4 -141 -7 -232 l-5 -165 9 70 c4 39 10 143 14
233 l5 162 -7 0 -7 0 -2 -68z"/>
<path d="M92502 82418 c-63 -88 -112 -162 -109 -164 6 -6 229 306 225 316 -2
4 -54 -65 -116 -152z"/>
<path d="M92542 82405 c-85 -119 -134 -198 -110 -175 5 4 141 194 207 288 l22
32 -8 0 c-4 0 -54 -65 -111 -145z"/>
<path d="M84960 82024 c0 -6 34 -100 75 -210 42 -109 78 -205 81 -213 l4 -14
7 6 6 7 -78 207 c-43 115 -82 212 -87 218 l-8 9 0 -10z"/>
<path d="M42550 80837 c0 -7 15 -59 34 -115 l35 -102 7 -105 7 -105 13 0 c8 0
14 3 14 8 0 4 -5 52 -10 106 l-10 100 -37 113 -37 113 -8 0 c-4 0 -8 -6 -8
-13z"/>
<path d="M7180 80460 c0 -12 133 -117 267 -209 l102 -71 6 11 c4 6 5 12 4 13
-2 2 -53 37 -114 79 -60 42 -141 101 -180 131 -71 56 -85 64 -85 46z"/>
<path d="M95425 80319 c-55 -76 -106 -148 -114 -159 l-13 -20 9 0 c8 0 222
288 231 312 2 4 0 8 -5 8 -4 -1 -53 -64 -108 -141z"/>
<path d="M98670 80186 c0 -7 118 -75 253 -146 l138 -72 6 5 5 6 -110 55 c-60
30 -148 78 -195 106 -81 47 -97 55 -97 46z"/>
<path d="M13368 79222 l-158 -437 -10 -100 c-17 -162 -41 -264 -185 -774 -74
-266 -133 -486 -131 -489 6 -5 1 -21 165 564 l129 461 16 94 c8 52 18 128 21
169 l7 75 155 430 c85 237 157 433 160 438 l4 7 -8 0 -8 0 -157 -438z"/>
<path d="M77542 79060 c66 -110 212 -330 219 -330 9 0 -194 317 -219 340 l-16
15 16 -25z"/>
<path d="M13156 78269 c-25 -72 -236 -852 -232 -856 2 -3 9 12 15 33 6 22 60
216 121 433 60 217 108 397 105 399 -2 3 -7 -1 -9 -9z"/>
<path d="M45676 77241 c13 -13 318 -141 323 -135 2 2 2 6 0 8 -6 6 -318 136
-326 136 l-7 0 10 -9z"/>
<path d="M46040 77090 l0 -13 7 6 6 7 -6 7 -7 6 0 -13z"/>
<path d="M82030 73870 l0 -10 23 -5 c12 -3 96 -18 186 -35 l165 -30 10 10 10
10 -11 0 c-11 0 -317 55 -360 65 l-23 5 0 -10z"/>
<path d="M75486 72423 c-3 -21 -8 -99 -12 -173 l-6 -135 -9 -38 c-6 -21 -13
-45 -16 -53 l-5 -14 10 0 10 0 16 48 15 47 7 178 7 177 -6 0 c-3 0 -8 -17 -11
-37z"/>
<path d="M74398 70685 l-6 -70 66 -370 65 -370 9 -10 10 -10 -5 20 c-4 11 -32
162 -63 335 l-58 315 -6 115 -6 115 -6 -70z"/>
<path d="M76690 69755 c-21 -25 -5 -28 31 -6 l34 21 -26 0 -27 0 -12 -15z"/>
<path d="M50148 69679 c-10 -5 -18 -15 -18 -21 l0 -10 23 7 c12 4 33 8 46 9
l25 3 4 11 4 12 -34 0 -33 -1 -17 -10z"/>
<path d="M88772 69064 c-101 -64 -181 -118 -178 -121 4 -4 346 207 371 229 l9
8 -9 0 c-6 0 -92 -53 -193 -116z"/>
<path d="M77135 68489 l-50 -7 220 5 c121 3 222 7 224 9 8 7 -343 1 -394 -7z"/>
<path d="M87665 68270 c-88 -77 -162 -146 -164 -153 l-4 -12 29 26 c16 14 90
79 164 144 74 65 139 122 145 126 l9 9 -10 0 c-5 0 -81 -63 -169 -140z"/>
<path d="M2900 67792 c0 -10 375 -262 390 -262 5 0 10 3 10 8 0 8 -381 262
-393 262 -4 0 -7 -4 -7 -8z"/>
<path d="M40676 67581 c5 -5 34 -16 64 -26 30 -10 118 -44 195 -77 159 -68
246 -100 253 -93 3 2 -4 7 -14 11 -10 4 -89 36 -174 72 -133 55 -312 122 -329
122 -3 0 -1 -4 5 -9z"/>
<path d="M94282 67398 c9 -73 43 -284 74 -468 l57 -335 9 -10 9 -10 -5 25
c-16 66 -117 676 -132 795 -10 74 -21 135 -24 135 l-6 0 18 -132z"/>
<path d="M47270 67273 c0 -6 19 -23 43 -39 91 -62 365 -259 422 -304 33 -26
66 -50 74 -55 l14 -8 -7 12 c-10 15 -163 130 -361 271 -88 62 -166 117 -172
123 l-13 9 0 -9z"/>
<path d="M4060 67052 l0 -10 143 -85 c78 -46 163 -96 190 -111 l47 -28 0 10 0
9 -167 99 c-93 54 -178 104 -190 112 l-23 14 0 -10z"/>
<path d="M94304 67025 c3 -16 19 -113 36 -215 34 -206 39 -234 45 -228 6 6
-71 457 -80 466 l-7 7 6 -30z"/>
<path d="M55376 66931 l-17 -19 -18 -151 -18 -151 8 0 c10 0 16 34 30 170 l12
115 12 15 c6 8 15 21 19 28 l7 12 -9 0 c-5 0 -17 -9 -26 -19z"/>
<path d="M55409 66904 l-13 -16 -3 -41 c-2 -23 -8 -78 -13 -122 -11 -88 -12
-121 -5 -114 2 3 11 65 20 139 l16 134 16 18 16 18 -10 0 c-6 0 -16 -7 -24
-16z"/>
<path d="M37503 66865 c-336 -18 -618 -35 -625 -38 l-13 -5 25 -1 c62 -2 1332
68 1337 73 l6 6 -59 -1 c-32 -1 -334 -16 -671 -34z"/>
<path d="M37953 66847 l-173 -9 0 -10 0 -9 18 5 c9 2 94 8 187 11 94 4 188 11
210 15 l40 8 -55 -1 c-30 0 -133 -5 -227 -10z"/>
<path d="M36880 66790 l-295 -17 -70 -28 c-78 -32 -81 -33 -73 -40 3 -3 39 7
79 23 l74 29 345 18 345 17 25 8 25 8 -80 0 c-44 0 -213 -8 -375 -18z"/>
<path d="M59881 66723 c2 -7 51 -47 109 -88 l105 -75 53 -17 53 -17 10 14 9
15 -1 75 -1 75 -9 -40 c-4 -22 -8 -57 -8 -77 l-1 -38 -14 0 c-39 0 -161 72
-295 174 l-14 11 4 -12z"/>
<path d="M70299 66622 c-41 -26 -103 -72 -137 -102 l-63 -55 -34 -58 -34 -57
-16 -52 -15 -52 0 -105 1 -106 15 -30 14 -30 -6 25 c-3 14 -8 67 -11 117 l-6
93 18 62 17 63 38 63 37 62 59 53 c32 29 91 72 129 96 81 50 80 50 74 55 -2 3
-38 -16 -80 -42z"/>
<path d="M41115 66438 c4 -13 13 -30 21 -38 l14 -14 10 10 11 11 -16 13 c-8 7
-15 19 -15 26 l0 14 -16 0 -15 0 6 -22z"/>
<path d="M50680 66428 c0 -2 61 -47 135 -98 l135 -95 9 -26 9 -25 -14 -34 c-8
-18 -13 -38 -11 -44 l4 -11 16 45 17 45 -7 27 -8 27 -130 92 c-122 86 -155
107 -155 97z"/>
<path d="M97513 66144 c3 -11 22 -95 41 -189 20 -93 38 -180 41 -193 l6 -23 8
5 9 6 -42 202 -41 201 -14 5 -13 4 5 -18z"/>
<path d="M87930 66110 l0 -10 58 -28 c31 -16 78 -35 105 -42 l47 -13 56 7 56
6 80 31 80 31 -9 9 -9 9 -72 -29 -71 -29 -54 -7 -54 -7 -69 21 c-38 11 -84 30
-102 41 -37 23 -42 24 -42 10z"/>
<path d="M94504 66090 c3 -14 17 -104 31 -200 14 -96 30 -184 36 -195 l9 -20
-4 30 c-2 17 -16 111 -32 210 l-27 180 -9 10 -9 10 5 -25z"/>
<path d="M41910 66008 l-12 -23 18 17 18 18 -6 6 -6 6 -12 -24z"/>
<path d="M41876 65971 c21 -21 339 -229 343 -225 2 2 2 6 0 7 -22 19 -339 227
-345 227 l-8 0 10 -9z"/>
<path d="M49133 65898 c0 -7 -67 -123 -148 -258 -173 -287 -367 -630 -356
-630 4 0 43 64 86 143 114 207 426 727 436 727 5 0 81 -52 169 -115 88 -63
160 -111 160 -106 0 4 -72 59 -160 121 -88 63 -160 117 -160 122 0 4 -6 8 -13
8 l-14 0 0 -12z"/>
<path d="M47000 65510 l-102 -152 6 -6 c8 -7 -1 -19 110 152 53 82 95 151 92
153 -2 3 -50 -64 -106 -147z"/>
<path d="M48745 65312 c-54 -97 -112 -202 -129 -232 l-29 -55 12 11 c18 16
252 436 249 445 -2 5 -48 -71 -103 -169z"/>
<path d="M52751 65463 c-7 -16 -53 -120 -102 -232 l-90 -204 6 -5 5 -6 9 10
c10 11 201 444 201 456 0 18 -17 6 -29 -19z"/>
<path d="M38461 64933 c-17 -142 -34 -268 -37 -280 l-4 -23 7 0 8 0 35 280
c19 154 33 280 29 280 -3 0 -20 -116 -38 -257z"/>
<path d="M33288 65055 l-5 -25 8 0 9 0 0 25 c0 14 -2 25 -4 25 -2 0 -6 -11 -8
-25z"/>
<path d="M1355 64799 c-55 -11 -130 -25 -167 -32 -37 -7 -69 -15 -73 -18 l-6
-7 48 5 c26 3 73 11 103 18 30 7 87 19 127 26 l72 12 16 -13 15 -12 0 15 0 15
-16 6 c-9 3 -16 6 -17 5 -1 0 -47 -10 -102 -20z"/>
<path d="M37180 64720 l0 -20 11 0 c14 0 383 -48 422 -55 l27 -4 0 19 0 20
-22 4 c-26 6 -410 56 -427 56 l-11 0 0 -20z"/>
<path d="M47805 64582 c6 -5 64 -32 130 -60 66 -28 157 -66 203 -86 l82 -35 0
7 c0 6 -363 165 -413 181 l-12 4 10 -11z"/>
<path d="M40690 64527 c0 -4 18 -60 41 -125 22 -64 47 -144 54 -177 l15 -60
-6 53 -5 54 -44 125 c-40 114 -55 149 -55 130z"/>
<path d="M40686 64408 c19 -57 44 -134 54 -173 l18 -70 1 28 1 28 -47 144
c-26 80 -50 145 -54 145 l-8 0 35 -102z"/>
<path d="M38917 64394 c-4 -4 -7 -13 -7 -20 l0 -12 48 -7 c59 -8 283 -72 339
-96 l41 -18 6 6 c3 4 6 12 6 19 l0 13 -46 20 c-51 23 -276 86 -339 96 l-41 6
-7 -7z"/>
<path d="M70860 64275 c0 -6 37 -94 82 -197 l82 -188 8 0 8 0 -25 55 c-13 31
-50 115 -81 188 -31 72 -61 136 -65 142 l-9 9 0 -9z"/>
<path d="M40606 64148 c-14 -18 -23 -34 -20 -37 4 -5 27 21 45 52 16 28 2 20
-25 -15z"/>
<path d="M89371 64024 c-28 -32 -51 -62 -51 -67 0 -5 23 16 51 47 l51 56 185
-213 185 -212 39 -60 39 -60 0 13 c0 26 -85 137 -257 335 -97 111 -179 206
-183 210 l-7 8 -52 -57z"/>
<path d="M89635 63879 c5 -8 48 -59 96 -114 47 -55 105 -127 128 -159 46 -66
57 -65 13 1 -31 46 -218 269 -235 280 l-10 6 8 -14z"/>
<path d="M59588 63783 l-46 -87 -124 -53 -123 -53 22 0 22 0 106 46 105 47 46
84 c25 46 44 88 42 93 l-3 10 -47 -87z"/>
<path d="M2257 63694 l-5 -6 151 -134 151 -134 15 0 15 0 -9 9 c-49 45 -306
271 -309 271 -1 0 -5 -3 -9 -6z"/>
<path d="M96752 63546 c11 -13 411 -186 416 -181 3 3 3 6 1 8 -5 4 -379 164
-406 174 l-18 6 7 -7z"/>
<path d="M43061 63255 c-77 -70 -141 -128 -141 -131 0 -13 -3 -15 253 213 22
19 37 37 34 39 -2 2 -68 -52 -146 -121z"/>
<path d="M41990 63346 c0 -9 119 -152 189 -229 39 -42 71 -73 71 -68 0 5 -32
44 -71 87 -40 44 -96 109 -126 147 -49 61 -63 75 -63 63z"/>
<path d="M43090 63228 c-74 -65 -137 -124 -139 -130 -2 -7 45 30 104 82 59 52
124 109 144 127 20 17 34 33 31 36 -3 2 -66 -49 -140 -115z"/>
<path d="M36839 63319 c0 -8 -19 -149 -43 -314 -39 -275 -43 -316 -32 -304 2
2 22 143 46 312 l42 308 -6 6 -6 6 -1 -14z"/>
<path d="M50871 63265 c11 -11 742 -315 747 -310 3 2 -6 9 -19 14 -13 5 -179
75 -369 155 -311 132 -374 156 -359 141z"/>
<path d="M40797 63145 l-17 -12 151 -169 c83 -93 154 -170 158 -172 5 -1 13 3
19 10 l10 13 -152 171 -153 171 -16 -12z"/>
<path d="M23300 62764 c-96 -212 -177 -391 -179 -397 l-3 -12 10 10 c5 6 87
181 182 390 95 209 174 383 177 388 l4 7 -8 0 -8 0 -175 -386z"/>
<path d="M41545 63140 c3 -5 11 -10 16 -10 l10 0 -6 10 c-3 6 -11 10 -16 10
l-10 0 6 -10z"/>
<path d="M2924 63101 c9 -13 313 -281 320 -281 3 0 6 4 6 9 0 11 -307 281
-321 281 l-10 0 5 -9z"/>
<path d="M40907 63104 l-6 -6 17 -27 c21 -33 82 -108 82 -100 0 14 -44 105
-58 122 -16 18 -25 21 -35 11z"/>
<path d="M15077 63023 c-4 -3 -7 -19 -7 -34 l0 -28 10 -6 11 -7 -2 41 c-2 23
-4 41 -4 41 -1 0 -5 -3 -8 -7z"/>
<path d="M94809 62936 l-124 -93 -42 -46 c-24 -26 -43 -51 -43 -57 l0 -10 -15
0 c-8 0 -101 31 -207 70 l-192 70 -8 -8 -8 -8 204 -74 205 -74 -15 -27 c-7
-15 -45 -122 -83 -238 l-69 -211 -51 -106 c-52 -109 -57 -124 -42 -124 l8 0
60 133 60 132 57 180 58 180 35 65 34 65 37 39 c20 21 92 80 160 131 l123 93
-9 6 -9 6 -124 -94z"/>
<path d="M18009 62946 c-2 -2 -148 -7 -324 -10 l-320 -7 -175 -14 c-96 -8
-215 -17 -265 -20 -114 -7 -178 -15 -172 -21 2 -3 96 2 208 10 233 17 575 34
892 42 l217 6 0 9 0 9 -28 0 c-16 0 -31 -2 -33 -4z"/>
<path d="M59041 62936 c3 -3 85 -12 184 -20 99 -9 200 -19 225 -22 l45 -6 -10
10 -10 9 -205 17 c-220 18 -236 18 -229 12z"/>
<path d="M58695 62900 c-65 -34 -467 -311 -461 -317 2 -3 82 49 178 114 183
126 277 185 320 202 l26 10 93 -9 c52 -5 135 -11 184 -15 50 -3 164 -13 255
-20 91 -8 174 -15 184 -15 l19 0 -5 5 c-3 3 -106 15 -229 25 -123 11 -289 26
-369 33 l-145 13 -50 -26z"/>
<path d="M16355 62891 c28 -5 120 -11 205 -14 l155 -4 -35 8 -35 8 -170 5
-170 5 50 -8z"/>
<path d="M16720 62795 l0 -95 10 0 10 0 0 95 0 95 -10 0 -10 0 0 -95z"/>
<path d="M41013 62839 c3 -10 11 -35 18 -58 7 -23 18 -46 26 -53 l13 -11 6 6
5 5 -12 41 -12 40 -25 23 -25 23 6 -16z"/>
<path d="M10227 62745 c-11 -27 -8 -32 8 -11 l14 18 223 -17 223 -16 188 7
188 7 3 6 4 6 -281 0 -282 0 -141 9 -141 8 -6 -17z"/>
<path d="M10257 62693 c-10 -17 -118 -416 -113 -420 3 -3 9 12 15 33 6 22 33
118 60 214 44 157 53 199 38 173z"/>
<path d="M57180 62592 c-73 -59 -145 -117 -159 -129 l-26 -21 7 -7 7 -8 72 59
c113 93 192 157 223 180 l29 21 -10 6 -10 6 -133 -107z"/>
<path d="M44081 62642 c2 -5 66 -78 141 -161 l137 -150 5 7 4 7 -136 150 c-74
83 -140 152 -145 154 l-9 4 3 -11z"/>
<path d="M60504 62380 c28 -142 79 -376 82 -379 9 -9 2 31 -32 199 -20 96 -41
182 -46 190 l-9 15 5 -25z"/>
<path d="M89000 62365 c19 -23 737 -627 744 -626 3 0 7 3 9 6 3 7 -743 635
-755 635 l-10 0 12 -15z"/>
<path d="M3826 62323 c15 -21 88 -93 163 -160 l135 -122 10 6 9 6 -64 60 c-35
33 -108 102 -162 154 -54 51 -102 93 -108 93 l-10 0 27 -37z"/>
<path d="M94481 62279 c-7 -23 -35 -95 -63 -161 l-51 -120 -133 -159 c-74 -87
-138 -161 -144 -164 -13 -8 -13 -25 0 -25 9 0 206 225 271 310 l35 46 51 129
c29 72 55 142 58 158 l7 27 -9 0 -10 0 -12 -41z"/>
<path d="M42918 62037 c138 -150 258 -279 268 -287 l18 -15 -14 21 c-29 40
-503 554 -512 554 -5 0 103 -123 240 -273z"/>
<path d="M41936 62266 l-36 -33 0 -19 1 -19 11 20 c6 11 24 35 41 53 40 42 28
41 -17 -2z"/>
<path d="M91500 62204 l35 -40 123 -63 124 -63 34 -30 34 -30 0 9 c0 5 -12 21
-27 35 l-28 26 -124 63 -125 63 -40 35 -41 36 35 -41z"/>
<path d="M56760 62146 c0 -12 557 -252 566 -244 2 3 -119 57 -269 122 -149 64
-278 119 -284 122 l-13 6 0 -6z"/>
<path d="M37042 62039 l37 -19 172 -25 c95 -14 174 -23 177 -21 6 7 -25 13
-191 36 l-147 21 -35 15 c-49 20 -57 17 -13 -7z"/>
<path d="M15701 61937 c-123 -33 -220 -62 -214 -64 14 -5 435 107 448 119 l9
8 -9 -1 c-6 0 -111 -28 -234 -62z"/>
<path d="M15345 61884 l-90 -25 -127 -11 -128 -12 0 -7 0 -7 48 5 c26 2 88 9
137 14 l90 10 95 26 c52 14 97 27 99 29 10 9 -40 0 -124 -22z"/>
<path d="M59851 61809 c-33 -39 -100 -128 -148 -197 -47 -70 -88 -129 -89
-131 -2 -2 -209 85 -461 193 l-458 196 -117 0 -117 0 -4 -7 -5 -8 116 3 117 4
460 -197 c253 -109 461 -199 463 -200 2 -2 -4 -20 -13 -41 -9 -22 -31 -106
-50 -189 l-33 -150 -6 -85 -5 -85 8 15 c5 8 11 51 14 95 l6 80 26 115 c14 63
35 143 46 178 l21 62 9 0 10 0 -6 10 -6 10 92 133 c51 72 117 160 147 195 30
34 53 65 50 67 -3 3 -33 -27 -67 -66z"/>
<path d="M14521 61866 c16 -17 292 -69 422 -80 l57 -5 0 10 0 9 -53 0 -53 0
-139 25 c-77 14 -156 29 -175 35 -36 10 -67 13 -59 6z"/>
<path d="M57320 61863 l0 -8 445 -195 c245 -107 445 -198 445 -201 0 -9 -155
-57 -267 -82 -51 -12 -93 -24 -93 -28 l0 -7 102 24 c56 14 144 38 197 54 l94
30 196 -86 c108 -48 212 -93 231 -101 l35 -15 -10 11 c-9 9 -328 153 -404 182
l-24 10 19 15 19 15 -25 -7 c-14 -4 -29 -7 -35 -7 -9 0 -862 371 -907 395
l-18 9 0 -8z"/>
<path d="M59868 61767 l-77 -92 -77 -120 -77 -120 -19 -65 c-10 -36 -32 -130
-48 -209 l-30 -144 1 -51 2 -51 9 65 c16 111 57 309 78 380 l20 67 85 132 85
132 65 75 c54 61 77 97 63 93 -2 0 -38 -41 -80 -92z"/>
<path d="M16588 61693 c-69 -144 -106 -239 -95 -249 2 -2 12 22 21 54 10 31
52 123 92 205 l74 147 -8 0 c-4 0 -42 -71 -84 -157z"/>
<path d="M21473 61791 c-45 -3 -84 -9 -87 -12 l-6 -6 102 5 103 4 123 -37 c68
-20 126 -34 129 -32 2 3 -35 17 -84 32 -48 15 -108 33 -133 41 -25 8 -49 13
-55 12 -5 -1 -47 -4 -92 -7z"/>
<path d="M56277 61627 l-19 -32 26 24 25 24 -5 8 c-7 12 -7 13 -27 -24z"/>
<path d="M60563 61557 c-4 -7 -38 -37 -75 -67 -60 -47 -85 -76 -75 -86 3 -4
49 34 135 112 l45 41 -11 7 -11 6 -8 -13z"/>
<path d="M54510 61362 c0 -7 25 -117 55 -244 31 -128 79 -336 108 -461 28
-126 53 -224 55 -218 6 19 -195 910 -209 926 l-9 9 0 -12z"/>
<path d="M54243 61303 l7 -6 7 6 6 7 -13 0 -13 0 6 -7z"/>
<path d="M54113 61273 l7 -6 7 6 6 7 -13 0 -13 0 6 -7z"/>
<path d="M54023 61253 l7 -6 7 6 6 7 -13 0 -13 0 6 -7z"/>
<path d="M53983 61243 l7 -6 7 6 6 7 -13 0 -13 0 6 -7z"/>
<path d="M53938 61233 l13 -5 6 6 6 6 -19 -1 -19 -1 13 -5z"/>
<path d="M53893 61223 l7 -6 7 6 6 7 -13 0 -13 0 6 -7z"/>
<path d="M53853 61213 l7 -6 7 6 6 7 -13 0 -13 0 6 -7z"/>
<path d="M53808 61203 l13 -5 6 6 6 6 -19 -1 -19 -1 13 -5z"/>
<path d="M53763 61193 l7 -6 7 6 6 7 -13 0 -13 0 6 -7z"/>
<path d="M62615 61158 c4 -18 39 -201 79 -407 l73 -375 12 -4 13 -4 -6 18 c-3
11 -35 172 -71 359 -36 187 -70 364 -76 393 l-10 52 -10 0 -10 0 6 -32z"/>
<path d="M61240 61139 c0 -13 90 -435 106 -499 l6 -25 5 13 5 12 -53 248 c-28
136 -56 251 -60 257 l-9 9 0 -15z"/>
<path d="M53163 61061 c-111 -25 -205 -50 -210 -55 l-8 -8 20 5 c11 4 103 25
205 48 102 23 189 45 195 50 5 5 7 9 5 8 -3 -1 -96 -22 -207 -48z"/>
<path d="M42852 60920 l-12 -20 10 0 c5 0 14 9 20 20 l11 20 -8 0 c-5 0 -14
-9 -21 -20z"/>
<path d="M54666 60873 c2 -10 24 -107 48 -216 25 -109 48 -202 52 -205 l7 -7
-5 20 c-2 11 -24 111 -49 222 -24 112 -47 203 -51 203 l-6 0 4 -17z"/>
<path d="M46319 60743 c-113 -128 -121 -137 -193 -201 -26 -24 -45 -46 -43
-49 3 -2 37 25 76 62 84 80 286 305 273 305 -5 0 -56 -53 -113 -117z"/>
<path d="M61764 60690 c2 -14 25 -125 51 -248 26 -123 45 -225 43 -228 -3 -2
-97 -23 -211 -46 -114 -24 -207 -46 -207 -49 l0 -7 212 44 c116 23 214 42 217
42 3 -1 13 2 21 5 8 3 188 40 400 82 401 79 465 94 458 100 -2 3 -192 -33
-422 -80 -229 -47 -425 -85 -435 -85 l-17 0 -49 233 c-26 127 -52 239 -57 247
l-9 15 5 -25z"/>
<path d="M48229 60553 c6 -10 20 -30 33 -45 29 -33 1018 -801 1024 -795 3 2
-224 182 -503 400 l-508 395 -20 31 c-11 17 -24 31 -28 31 l-8 0 10 -17z"/>
<path d="M55568 60532 c-21 -10 -38 -21 -38 -26 l0 -8 18 7 c9 4 32 13 49 19
18 7 36 15 39 19 l7 7 -19 -1 c-10 0 -36 -8 -56 -17z"/>
<path d="M58365 60288 l35 -73 30 -34 30 -34 54 6 55 5 18 12 18 11 -25 -5
c-14 -3 -44 -8 -67 -12 l-42 -6 -35 38 -35 38 -26 63 -27 63 -9 0 -8 0 34 -72z"/>
<path d="M62390 60279 c-190 -38 -378 -76 -417 -84 l-73 -16 0 -8 0 -8 233 47
c127 27 313 64 412 84 99 20 189 41 200 46 l20 9 -15 -1 c-8 0 -170 -31 -360
-69z"/>
<path d="M58636 60229 c-59 -14 -57 -20 5 -13 l54 6 116 -238 c64 -132 131
-275 149 -319 18 -44 43 -102 55 -130 12 -27 49 -111 81 -185 31 -74 58 -136
59 -138 1 -1 220 42 486 97 266 55 475 100 464 100 -11 1 -223 -40 -470 -89
-248 -50 -456 -89 -463 -88 l-13 3 -65 150 c-36 83 -70 160 -74 172 l-9 21 37
25 c67 44 307 230 290 224 -10 -3 -80 -53 -155 -110 -76 -57 -147 -109 -159
-115 l-20 -11 -68 162 c-38 89 -107 235 -153 325 l-84 162 -12 -1 c-7 -1 -30
-5 -51 -10z"/>
<path d="M61921 60151 c-1 -7 33 -180 76 -382 42 -203 74 -371 72 -373 -2 -2
-109 -26 -236 -52 l-233 -48 -7 7 -7 7 10 9 c5 5 101 28 214 51 229 46 243 50
237 56 -3 3 -102 -15 -221 -40 -119 -26 -222 -46 -229 -46 l-12 0 -75 375
c-41 206 -77 375 -81 375 -3 0 28 -169 69 -375 41 -206 73 -377 70 -380 -2 -2
-94 -23 -204 -46 l-199 -41 -10 -10 -10 -10 20 5 c22 7 403 87 410 87 3 0 5
-6 5 -13 l0 -13 -207 -43 c-114 -23 -210 -44 -212 -47 -14 -14 26 -8 212 30
l207 43 5 -21 c3 -12 19 -88 35 -170 29 -143 35 -164 44 -155 3 3 -27 166 -59
320 l-6 26 18 7 c28 11 455 98 459 93 2 -2 20 -73 39 -158 39 -168 43 -184 50
-178 2 2 -14 80 -36 173 -21 93 -38 170 -37 171 2 1 189 39 415 86 227 46 413
87 413 90 0 4 -138 -22 -307 -57 -474 -97 -523 -107 -526 -103 -2 2 -36 164
-76 359 -40 195 -76 366 -81 380 l-8 25 -1 -14z"/>
<path d="M83355 59900 c14 -28 62 -108 107 -178 167 -263 671 -1185 724 -1327
l23 -60 0 16 c2 35 -37 117 -201 429 -211 401 -413 760 -531 945 -49 77 -99
159 -110 183 -12 23 -25 42 -29 42 l-8 0 25 -50z"/>
<path d="M58810 59913 c0 -6 30 -75 66 -154 36 -79 73 -159 81 -178 8 -18 16
-31 19 -28 4 4 -151 355 -162 366 -2 2 -4 0 -4 -6z"/>
<path d="M63661 59825 c-1 -11 19 -110 44 -220 46 -200 175 -830 385 -1870 61
-302 154 -752 207 -1000 l95 -450 10 -10 10 -10 -5 20 c-21 74 -190 886 -367
1760 -266 1314 -356 1744 -375 1790 l-3 10 -1 -20z"/>
<path d="M48635 59487 c-144 -188 -158 -207 -148 -207 4 1 60 69 123 152 120
158 134 177 128 183 -1 2 -48 -56 -103 -128z"/>
<path d="M62960 59610 l0 -13 7 6 6 7 -6 7 -7 6 0 -13z"/>
<path d="M62715 59574 c-99 -19 -186 -37 -194 -40 l-14 -4 6 -7 6 -6 196 38
195 37 0 9 c0 11 18 14 -195 -27z"/>
<path d="M47130 59496 c0 -3 -11 -55 -25 -118 l-24 -113 -36 -89 c-41 -104
-39 -96 -21 -96 l14 0 36 90 36 90 25 116 c30 137 29 124 10 124 -8 0 -15 -2
-15 -4z"/>
<path d="M49431 59274 c-90 -118 -161 -218 -158 -220 2 -2 79 95 171 216 92
121 163 220 158 220 -5 0 -82 -97 -171 -216z"/>
<path d="M49462 59248 c-89 -117 -159 -214 -156 -217 2 -2 5 -2 7 0 104 132
318 422 314 425 -3 3 -77 -91 -165 -208z"/>
<path d="M63721 59370 c-1 -8 55 -292 124 -630 225 -1110 245 -1205 245 -1150
0 35 -350 1748 -364 1785 l-4 10 -1 -15z"/>
<path d="M59920 59335 c-91 -19 -298 -59 -460 -91 -162 -31 -297 -58 -299 -60
-2 -2 -2 -6 1 -9 5 -6 959 183 967 191 10 10 -55 0 -209 -31z"/>
<path d="M44219 59324 l-16 -15 111 -107 c61 -59 139 -131 172 -159 l62 -53
13 16 14 17 -75 66 c-41 36 -118 107 -170 158 l-96 93 -15 -16z"/>
<path d="M50023 59103 c-125 -160 -284 -375 -281 -379 4 -3 165 201 311 394 5
7 8 15 5 18 -3 3 -19 -12 -35 -33z"/>
<path d="M62122 59005 c3 -11 20 -98 38 -192 19 -95 37 -173 40 -173 9 0 -64
368 -75 377 l-8 8 5 -20z"/>
<path d="M61250 58824 c0 -5 16 -87 36 -182 l36 -174 -8 -8 -9 -9 -415 -86
c-429 -88 -454 -94 -448 -101 3 -2 198 37 434 87 236 50 437 91 447 92 9 1 17
4 17 8 0 3 93 30 207 59 113 30 201 56 195 58 -6 2 -99 -20 -207 -48 -108 -28
-198 -50 -199 -48 -2 2 -20 82 -40 178 -33 154 -46 204 -46 174z"/>
<path d="M61536 58480 c-104 -27 -199 -53 -210 -59 -19 -9 -731 -162 -825
-177 l-41 -7 -6 -9 -7 -10 19 5 c11 3 201 42 424 87 l405 82 25 14 25 14 205
51 c113 28 207 52 209 55 11 11 -48 -2 -223 -46z"/>
<path d="M55906 58351 c5 -5 98 -32 208 -61 l198 -51 5 5 6 6 -14 4 c-22 8
-401 106 -407 106 -3 0 -2 -4 4 -9z"/>
<path d="M56315 58203 c12 -12 233 -78 240 -72 2 3 -44 19 -104 37 -60 18
-117 35 -128 38 l-18 7 10 -10z"/>
<path d="M91816 58140 c21 -21 339 -238 343 -234 2 2 2 6 0 7 -23 20 -340 237
-346 237 l-7 0 10 -10z"/>
<path d="M91790 58114 c1 -11 340 -247 346 -241 3 3 -68 55 -158 117 -90 62
-169 117 -175 123 l-13 9 0 -8z"/>
<path d="M75440 57786 l0 -224 15 -12 15 -12 0 10 c0 6 -5 14 -11 18 l-11 7 7
218 7 219 -11 0 -11 0 0 -224z"/>
<path d="M50460 57891 c8 -5 121 -39 251 -75 l236 -66 39 1 39 1 -50 8 c-27 4
-155 38 -284 74 -240 67 -257 72 -231 57z"/>
<path d="M36075 57863 c14 -14 466 -184 478 -180 7 2 -284 116 -468 183 l-20
7 10 -10z"/>
<path d="M50442 57854 c3 -3 107 -34 229 -68 123 -35 235 -66 249 -71 l25 -7
-10 10 -10 10 -237 66 c-131 36 -240 66 -244 66 l-7 0 5 -6z"/>
<path d="M35758 57840 c-27 -5 -85 -21 -130 -35 l-83 -27 -227 -122 c-125 -66
-224 -122 -219 -124 4 -1 100 47 212 107 l204 110 95 34 95 34 85 12 85 13 90
-6 90 -5 -25 8 -25 9 -100 0 c-55 0 -121 -4 -147 -8z"/>
<path d="M55928 57802 l-208 -26 0 -9 0 -8 18 5 c9 2 103 14 207 27 l190 22
10 8 9 9 -9 -1 c-6 -1 -103 -13 -217 -27z"/>
<path d="M55485 57785 c-99 -12 -189 -25 -200 -27 l-20 -6 20 -1 c33 -1 416
47 422 53 l6 6 -24 -1 c-13 -1 -105 -12 -204 -24z"/>
<path d="M37870 57670 c0 -5 5 -10 10 -10 6 0 10 5 10 10 0 6 -4 10 -10 10 -5
0 -10 -4 -10 -10z"/>
<path d="M50479 57391 l114 -38 52 -59 c29 -32 55 -57 58 -54 3 3 -20 33 -51
67 l-57 61 -101 31 c-142 43 -153 37 -15 -8z"/>
<path d="M64172 57120 c3 -8 45 -202 93 -430 l88 -415 10 -10 9 -10 -5 20 c-3
11 -45 205 -92 430 l-87 410 -11 10 -10 10 5 -15z"/>
<path d="M63460 57053 c0 -5 23 -113 52 -241 l51 -233 9 9 9 9 -53 231 -52
232 -8 0 c-4 0 -8 -3 -8 -7z"/>
<path d="M25560 56937 c8 -8 98 -68 200 -133 471 -299 575 -364 583 -364 l8 0
-5 9 c-3 4 -94 64 -203 132 -109 68 -281 175 -383 239 -102 64 -192 120 -200
125 l-15 8 15 -16z"/>
<path d="M35970 56413 c-341 -326 -369 -353 -361 -353 5 0 110 95 232 211 285
268 346 329 334 329 -6 -1 -98 -85 -205 -187z"/>
<path d="M82732 56510 c3 -8 27 -108 53 -222 27 -115 52 -208 55 -208 4 0 -16
96 -44 214 l-51 215 -9 8 -9 8 5 -15z"/>
<path d="M26627 56350 c94 -50 178 -90 185 -90 7 0 -64 41 -159 90 -94 50
-178 90 -185 90 -7 0 64 -41 159 -90z"/>
<path d="M26450 56403 c0 -8 331 -183 346 -183 12 0 -40 30 -208 118 -76 40
-138 69 -138 65z"/>
<path d="M61730 56364 c0 -5 16 -99 36 -209 l37 -200 9 -10 9 -10 -5 25 c-3
14 -22 110 -41 214 -30 162 -45 226 -45 190z"/>
<path d="M78941 56243 l-12 -26 10 -10 9 -9 16 30 c19 38 20 42 3 42 l-14 0
-12 -27z"/>
<path d="M64411 56247 c14 -7 33 -18 43 -26 l16 -13 0 -28 0 -27 -18 -16 -19
-17 -26 0 -26 0 -13 14 -13 13 -15 -8 c-8 -4 -126 -29 -262 -56 -137 -26 -248
-50 -248 -54 0 -3 117 17 260 46 l260 52 11 -13 11 -14 38 0 39 0 20 26 21 27
0 32 0 32 -23 21 -23 22 -30 -1 -29 -1 26 -11z"/>
<path d="M64347 56232 c-19 -21 -22 -42 -7 -42 6 0 10 5 10 12 0 6 7 20 17 30
l16 18 -10 0 c-5 0 -17 -8 -26 -18z"/>
<path d="M64048 56152 c-126 -26 -228 -49 -228 -53 l0 -6 243 48 c133 27 247
51 252 53 34 14 -70 -2 -267 -42z"/>
<path d="M37246 56123 c-10 -36 -17 -83 -51 -348 -36 -278 -38 -302 -30 -293
3 2 23 141 45 308 22 167 43 315 46 327 7 27 -2 32 -10 6z"/>
<path d="M63730 56130 l0 -10 13 0 c8 0 22 -9 32 -20 10 -11 22 -20 26 -20 l9
0 -11 24 -11 24 -22 6 c-30 8 -36 7 -36 -4z"/>
<path d="M63643 56106 l-18 -24 -858 -178 -857 -178 8 -8 9 -9 844 176 c464
97 851 177 859 178 l15 2 18 28 c19 31 21 37 8 37 -5 0 -18 -11 -28 -24z"/>
<path d="M17525 56011 l-7 -12 88 -217 c48 -119 91 -221 95 -226 26 -30 9 25
-75 234 l-93 233 -8 -12z"/>
<path d="M63728 55973 c-20 -5 -24 -23 -5 -23 6 0 18 4 26 9 l13 9 -8 4 c-5 2
-17 3 -26 1z"/>
<path d="M61854 55945 c4 -11 14 -51 23 -90 18 -84 22 -99 28 -94 2 3 -5 45
-16 94 l-19 89 -11 11 -12 10 7 -20z"/>
<path d="M35958 55914 c-5 -4 -8 -15 -8 -24 l0 -17 27 -24 27 -24 -16 26 c-9
14 -18 36 -20 48 l-3 23 -7 -8z"/>
<path d="M8572 55894 c3 -3 93 -12 199 -20 201 -14 275 -17 268 -10 -3 4 -422
36 -463 36 l-9 0 5 -6z"/>
<path d="M44680 55856 c0 -2 41 -35 92 -72 51 -38 126 -97 166 -131 41 -35 78
-63 84 -63 12 0 -185 167 -266 225 -59 42 -76 51 -76 41z"/>
<path d="M62758 55806 c-228 -48 -269 -59 -257 -70 2 -2 127 21 277 52 l272
56 0 8 0 8 -22 -1 c-13 -1 -134 -25 -270 -53z"/>
<path d="M25957 55613 l-8 -23 16 -27 17 -28 245 -168 c134 -93 246 -167 249
-165 2 3 -103 78 -233 168 -131 90 -246 173 -255 184 l-17 21 -3 30 -3 30 -8
-22z"/>
<path d="M60763 55553 c15 -2 37 -2 50 0 l22 4 -50 0 -50 0 28 -4z"/>
<path d="M85070 55557 c0 -4 30 -126 66 -272 l66 -265 8 0 8 0 -66 263 c-35
144 -69 266 -73 272 l-9 9 0 -7z"/>
<path d="M60578 55543 l13 -5 6 6 6 6 -19 -1 -19 -1 13 -5z"/>
<path d="M89572 55378 c-27 -51 -77 -146 -111 -210 l-62 -116 9 -6 8 -5 110
207 c60 113 111 210 112 214 l4 8 -10 0 -10 0 -50 -92z"/>
<path d="M49402 55388 c-7 -7 -112 -63 -235 -125 -122 -61 -218 -112 -214
-113 15 0 431 208 457 229 l25 21 -10 0 c-6 0 -16 -5 -23 -12z"/>
<path d="M53229 55220 l-4 -45 23 -110 c13 -60 31 -127 39 -148 l16 -37 -141
-212 c-78 -117 -139 -214 -136 -217 8 -8 27 18 164 227 l133 203 -22 47 c-25
55 -51 168 -60 267 l-7 70 -5 -45z"/>
<path d="M48270 55224 c0 -6 18 -44 41 -85 22 -41 54 -102 69 -137 l29 -63
-334 -164 c-184 -90 -335 -166 -335 -169 0 -7 92 36 405 190 143 70 266 127
273 127 6 0 12 3 12 5 0 7 -101 205 -134 262 -14 25 -26 40 -26 34z"/>
<path d="M33070 55204 c0 -9 201 -214 211 -214 2 0 34 -9 72 -19 l67 -20 0 8
c0 4 -24 13 -52 20 -29 8 -66 20 -83 29 l-30 15 -92 96 -92 96 -1 -11z"/>
<path d="M36882 55065 l-52 -24 -58 -10 c-31 -6 -104 -11 -162 -13 l-105 -3
-17 9 -18 8 0 -10 0 -11 34 -6 34 -7 134 10 133 10 68 28 c37 15 67 31 67 36
0 11 3 11 -58 -17z"/>
<path d="M51905 54991 l10 -10 145 -3 145 -3 32 -24 33 -25 6 6 5 6 -37 28
-37 29 -156 3 -156 4 10 -11z"/>
<path d="M50675 54940 c-11 -5 -42 -9 -70 -9 l-50 -1 -15 -10 -15 -10 20 0
c11 0 49 5 84 10 l64 9 10 10 11 11 -9 -1 c-6 0 -19 -4 -30 -9z"/>
<path d="M53202 54904 c-28 -48 -249 -383 -262 -397 l-7 -8 -269 184 c-148
101 -280 189 -292 196 l-24 13 -5 -6 -6 -6 20 -7 c30 -12 562 -377 563 -386 0
-4 -27 -47 -59 -95 -32 -49 -127 -196 -211 -328 l-153 -239 -78 -103 c-44 -57
-79 -105 -79 -108 0 -33 156 182 333 460 88 138 184 286 214 328 l54 78 32
-24 c18 -13 136 -90 262 -171 127 -81 292 -188 368 -238 76 -49 140 -88 143
-85 6 7 -756 509 -790 521 l-11 4 120 180 c66 99 134 203 152 232 l32 51 -10
0 c-5 0 -22 -21 -37 -46z"/>
<path d="M52115 54726 l-130 -200 -137 -175 c-75 -97 -135 -178 -132 -180 2
-2 6 -2 7 0 2 2 62 78 133 169 l130 165 133 203 c72 112 131 207 129 211 -2 4
-61 -83 -133 -193z"/>
<path d="M50240 54624 c-47 -23 -79 -43 -72 -43 11 -1 149 64 161 75 2 2 2 6
0 8 -2 2 -42 -16 -89 -40z"/>
<path d="M18271 54624 c-90 -13 -166 -26 -169 -29 -3 -3 1 -5 9 -5 27 0 373
51 378 55 8 9 -53 3 -218 -21z"/>
<path d="M50293 54571 c-29 -33 -53 -62 -53 -66 l0 -6 9 5 c17 11 113 126 104
126 -4 0 -32 -27 -60 -59z"/>
<path d="M53615 54304 c-58 -86 -104 -158 -101 -161 2 -3 33 37 67 89 35 51
84 123 111 161 l48 67 -9 0 c-5 0 -57 -70 -116 -156z"/>
<path d="M52780 54089 l-222 -333 -37 -75 c-21 -42 -44 -94 -51 -116 -7 -22
-17 -45 -22 -52 l-9 -11 9 -6 10 -6 15 33 c8 17 18 43 22 57 23 75 142 271
404 663 62 93 110 171 108 174 -3 2 -105 -145 -227 -328z"/>
<path d="M48670 54405 c0 -13 146 -295 152 -295 5 0 -26 68 -67 150 -66 131
-85 164 -85 145z"/>
<path d="M80753 54399 c3 -9 24 -87 47 -175 22 -87 43 -160 45 -163 11 -10 3
27 -36 177 l-42 157 -10 10 -10 10 6 -16z"/>
<path d="M49340 54350 l-15 -10 15 0 c8 0 22 5 30 10 l15 10 -15 0 c-8 0 -22
-5 -30 -10z"/>
<path d="M50316 54332 c173 -156 294 -250 373 -291 l23 -13 -6 10 c-4 6 -30
24 -59 41 l-52 30 -135 115 c-74 64 -139 116 -144 116 l-10 0 10 -8z"/>
<path d="M50290 54306 c0 -2 60 -56 133 -119 128 -110 234 -187 260 -187 6 0
-22 22 -63 49 l-75 48 -123 107 c-117 100 -132 112 -132 102z"/>
<path d="M48441 54053 c50 -98 96 -182 102 -188 l10 -10 -4 10 c-16 43 -186
365 -192 365 l-9 0 93 -177z"/>
<path d="M88090 54191 c0 -5 109 -211 242 -457 l241 -449 130 -340 c71 -187
131 -342 133 -344 2 -2 7 -2 10 2 l6 6 -130 341 -130 341 -244 454 c-133 250
-246 455 -250 455 -5 0 -8 -4 -8 -9z"/>
<path d="M51684 54168 l-7 -11 11 7 c12 7 16 16 8 16 -3 0 -8 -5 -12 -12z"/>
<path d="M80811 54035 c-1 -23 74 -324 83 -332 l6 -6 0 9 c-1 22 -88 347 -89
329z"/>
<path d="M6153 53905 c0 -66 3 -151 7 -190 l7 -70 0 95 c1 52 -3 138 -7 190
l-7 95 0 -120z"/>
<path d="M53780 53986 c0 -2 131 -93 290 -202 160 -108 293 -201 296 -206 l6
-9 -167 -80 c-92 -44 -165 -82 -163 -85 6 -6 657 309 658 318 0 4 -69 -26
-154 -67 l-155 -74 -300 205 c-282 192 -311 210 -311 200z"/>
<path d="M31245 53919 l-7 -41 -85 -200 -84 -199 3 -11 4 -11 87 207 88 208 8
44 8 44 -7 0 -8 0 -7 -41z"/>
<path d="M49144 53667 c-226 -111 -408 -203 -405 -205 15 -5 814 383 819 399
2 5 2 9 0 9 -1 0 -188 -92 -414 -203z"/>
<path d="M48510 53836 c0 -10 131 -271 168 -334 13 -24 27 -41 29 -38 5 5
-172 354 -188 371 l-9 9 0 -8z"/>
<path d="M76620 53824 c0 -6 25 -70 55 -142 l54 -132 30 -44 30 -43 27 -18 28
-18 70 0 71 -1 335 133 c184 73 339 137 345 142 l10 10 -65 -25 c-36 -13 -193
-75 -350 -136 l-285 -112 -63 1 -62 1 -31 22 -30 22 -29 46 c-15 25 -51 101
-80 169 -50 123 -60 144 -60 125z"/>
<path d="M21654 53795 l26 -24 -1 -58 c0 -32 -6 -111 -12 -175 l-12 -118 7 0
c5 0 8 6 8 13 0 6 5 62 11 122 5 61 10 137 11 169 l1 59 -23 19 c-12 10 -27
18 -33 18 l-10 0 27 -25z"/>
<path d="M76580 53808 c0 -13 103 -256 122 -288 28 -46 56 -77 93 -103 l30
-20 -46 49 -46 49 -27 50 c-15 28 -46 95 -68 150 -36 88 -58 131 -58 113z"/>
<path d="M66413 53607 l-672 -142 -8 -9 -8 -8 20 5 c11 3 324 70 695 147 371
78 677 143 679 146 11 11 -77 -7 -706 -139z"/>
<path d="M48882 53582 c-95 -47 -171 -87 -169 -89 4 -3 336 153 346 163 19 19
-28 -1 -177 -74z"/>
<path d="M77483 53596 c-162 -64 -210 -86 -191 -86 13 0 374 142 383 151 l9 9
-9 -1 c-6 0 -92 -33 -192 -73z"/>
<path d="M50283 53603 c9 -2 25 -2 35 0 l17 5 -35 0 -35 0 18 -5z"/>
<path d="M30203 53485 c0 -60 3 -175 7 -255 l6 -145 1 205 1 205 -8 50 -7 50
0 -110z"/>
<path d="M32365 53528 c-84 -72 -211 -170 -243 -187 -13 -7 -21 -15 -19 -18 9
-9 109 62 230 161 64 53 117 99 117 102 0 12 -21 -3 -85 -58z"/>
<path d="M9385 53520 c3 -5 11 -10 17 -10 6 0 92 -39 192 -86 199 -95 248
-115 141 -58 -78 41 -340 164 -350 164 l-6 0 6 -10z"/>
<path d="M8703 53438 l-213 -81 0 -8 0 -9 28 11 c15 6 110 42 212 81 102 38
189 74 195 79 l9 9 -9 0 c-6 -1 -106 -37 -222 -82z"/>
<path d="M52549 53293 c10 -21 67 -140 125 -266 l107 -227 -5 -9 -6 -9 15 -6
15 -5 0 8 c0 4 37 25 83 46 45 20 226 113 402 205 l320 168 43 13 42 12 0 8 0
9 -64 -24 c-36 -14 -206 -99 -378 -189 -252 -132 -440 -227 -452 -227 -1 0
-58 119 -126 265 l-124 265 -8 0 -8 0 19 -37z"/>
<path d="M51557 53294 c-27 -14 -47 -28 -44 -30 3 -3 31 8 63 25 l59 30 -15 0
c-8 0 -37 -11 -63 -25z"/>
<path d="M52448 53266 l-17 -24 -91 -7 -90 -7 0 -7 0 -7 92 9 93 9 13 10 c7 6
18 20 23 30 l10 18 -8 0 c-4 0 -16 -11 -25 -24z"/>
<path d="M66688 53081 c-252 -53 -458 -99 -458 -102 l0 -7 163 34 c89 19 295
62 457 95 284 59 308 65 299 72 -2 2 -210 -40 -461 -92z"/>
<path d="M52030 53108 c-30 -17 -207 -114 -393 -216 -186 -101 -336 -186 -333
-189 2 -2 143 72 313 165 169 93 345 188 390 210 45 23 84 46 88 52 l6 10 -8
-1 c-4 -1 -33 -15 -63 -31z"/>
<path d="M30251 53002 l-1 -93 -54 -67 c-63 -79 -81 -113 -91 -169 l-7 -43 10
0 9 0 6 40 5 40 26 42 c14 24 47 69 72 100 l46 57 -9 93 -10 93 -2 -93z"/>
<path d="M49995 53083 c-20 -5 -35 -20 -35 -36 l0 -8 16 15 c8 9 22 16 30 16
l14 0 0 10 c0 6 -1 9 -2 9 -2 -1 -12 -4 -23 -6z"/>
<path d="M50131 52862 c-1 -18 94 -218 108 -226 l11 -7 -43 88 c-24 48 -51
104 -60 123 l-16 35 0 -13z"/>
<path d="M50720 52836 c0 -6 132 -227 147 -245 1 -2 5 -2 7 0 4 4 -133 231
-148 246 l-6 6 0 -7z"/>
<path d="M49462 52808 c-7 -7 -12 -19 -12 -27 l0 -16 18 22 17 21 25 5 25 4
-30 2 -31 1 -12 -12z"/>
<path d="M50463 52727 c-100 -51 -192 -100 -205 -109 -12 -10 74 31 192 89
234 116 230 113 209 113 -8 -1 -96 -42 -196 -93z"/>
<path d="M65000 52735 c-118 -23 -294 -57 -390 -76 l-175 -34 16 -3 c17 -3
800 146 808 154 10 10 -57 -1 -259 -41z"/>
<path d="M84301 52302 c-1 -7 6 -42 15 -78 l17 -66 13 -5 14 -5 176 43 c96 24
171 45 166 47 -5 1 -82 -15 -170 -38 -89 -22 -168 -40 -175 -40 l-15 0 -20 78
c-11 42 -20 71 -21 64z"/>
<path d="M46611 52296 c2 -2 54 -25 114 -51 61 -26 141 -63 178 -83 l68 -35
50 -45 c27 -24 49 -40 49 -35 0 13 -58 65 -107 96 -65 41 -379 178 -352 153z"/>
<path d="M16235 52230 l-6 -10 33 -15 c18 -7 114 -48 212 -89 l179 -75 10 6
10 6 -15 8 c-9 5 -103 45 -209 90 -107 44 -197 83 -201 85 -4 2 -10 0 -13 -6z"/>
<path d="M33980 52111 c-8 -5 -109 -21 -225 -36 l-210 -28 -10 -9 -10 -10 30
6 c17 3 118 18 225 32 l195 26 25 14 25 13 -15 0 c-8 0 -22 -3 -30 -8z"/>
<path d="M89015 52110 c3 -5 13 -10 21 -10 l14 0 0 10 0 10 -21 0 -20 0 6 -10z"/>
<path d="M52771 52050 c0 -18 236 -469 266 -508 l21 -27 6 6 7 7 -29 43 c-16
24 -77 136 -135 249 -58 113 -113 214 -121 225 l-15 20 0 -15z"/>
<path d="M52747 52033 c-4 -3 -7 -11 -7 -17 l0 -10 12 12 c6 6 9 14 7 17 -3 3
-9 2 -12 -2z"/>
<path d="M54377 51973 l-29 -15 9 -9 10 -10 25 10 25 9 6 16 6 16 -12 -1 c-7
-1 -25 -8 -40 -16z"/>
<path d="M78206 51951 l-6 -9 84 -214 85 -213 11 -3 10 -4 0 9 c0 8 -169 435
-175 441 -2 2 -6 -1 -9 -7z"/>
<path d="M53293 51780 c45 -93 85 -170 89 -170 3 0 -30 77 -75 170 -45 94 -85
170 -89 170 -3 0 30 -76 75 -170z"/>
<path d="M90872 51733 c-11 -21 -58 -109 -105 -195 -47 -87 -82 -158 -78 -158
9 0 214 381 208 387 -3 2 -14 -13 -25 -34z"/>
<path d="M32255 51678 c3 -13 18 -106 35 -208 36 -223 40 -243 47 -237 3 3
-12 109 -33 236 l-38 231 -8 0 -8 0 5 -22z"/>
<path d="M91280 51632 c0 -4 61 -38 135 -75 l135 -67 0 -8 c0 -5 -59 -118
-131 -251 l-131 -242 6 -6 c3 -4 8 -4 10 -2 13 12 256 471 261 492 l7 25 -138
71 c-139 71 -154 77 -154 63z"/>
<path d="M37990 51441 c8 -5 103 -32 210 -60 107 -29 204 -54 215 -58 l20 -5
-7 7 c-5 6 -434 125 -448 125 -3 -1 2 -4 10 -9z"/>
<path d="M52960 51331 c0 -11 8 -33 18 -50 l17 -31 18 -6 19 -6 5 6 5 5 -25
31 c-14 16 -28 39 -32 50 -3 11 -11 20 -16 20 l-9 0 0 -19z"/>
<path d="M45740 51326 c0 -8 4 -17 9 -20 l9 -6 -5 20 c-6 23 -13 26 -13 6z"/>
<path d="M87864 51122 c-11 -9 -32 -33 -47 -52 l-25 -35 -61 -139 c-34 -77
-59 -141 -57 -144 11 -11 26 16 81 142 l58 135 43 49 c24 28 44 53 44 56 0 11
-15 6 -36 -12z"/>
<path d="M37624 51070 c9 -42 76 -439 76 -451 l0 -12 6 6 6 6 -38 228 -37 228
-9 10 -9 10 5 -25z"/>
<path d="M33541 50836 c-1 -9 57 -388 65 -425 3 -13 7 -21 10 -19 5 6 -54 394
-66 428 -5 14 -9 21 -9 16z"/>
<path d="M7560 50781 c0 -6 3 -11 8 -12 4 0 108 -13 232 -28 124 -16 227 -27
229 -25 13 12 -28 20 -197 40 -103 13 -206 26 -229 29 l-43 6 0 -10z"/>
<path d="M74422 50588 c-112 -61 -201 -112 -199 -115 4 -3 394 201 406 213 2
2 2 6 0 8 -2 3 -96 -45 -207 -106z"/>
<path d="M31478 50513 l-118 -4 0 -10 0 -11 23 5 c12 3 89 7 172 9 l150 3 6
-50 c4 -28 12 -158 18 -290 11 -227 17 -292 26 -284 2 2 -4 142 -14 310 l-18
306 -7 11 -7 12 -57 -2 c-31 -1 -110 -4 -174 -5z"/>
<path d="M31493 50471 l-121 -6 -7 -7 -7 -6 155 5 156 6 5 -34 c3 -19 12 -149
21 -289 9 -140 18 -256 20 -259 8 -7 5 66 -13 339 l-17 255 -35 1 c-19 0 -90
-2 -157 -5z"/>
<path d="M35891 50445 c-1 -11 15 -119 34 -240 19 -121 35 -226 35 -232 0 -7
4 -13 8 -13 l8 0 -37 241 c-21 133 -40 247 -43 253 l-4 11 -1 -20z"/>
<path d="M33575 50350 c37 -255 65 -411 65 -359 0 33 -52 356 -60 374 l-10 20
5 -35z"/>
<path d="M61575 50275 c18 -7 413 -95 426 -95 7 0 10 2 8 5 -7 7 -405 95 -426
94 l-18 -1 10 -3z"/>
<path d="M30487 50080 l5 -195 8 -35 8 -35 -5 170 c-3 94 -9 197 -13 230 l-8
60 5 -195z"/>
<path d="M43221 50104 c-1 -6 53 -121 118 -255 66 -134 120 -239 120 -233 1
15 -237 502 -238 488z"/>
<path d="M38156 49539 c-3 -8 -25 -92 -50 -186 l-45 -173 7 0 c8 0 103 362 97
369 -3 2 -7 -2 -9 -10z"/>
<path d="M35973 49510 c3 -14 20 -115 38 -225 l32 -200 10 -10 10 -10 -6 25
c-3 14 -20 115 -38 225 l-32 200 -10 10 -10 10 6 -25z"/>
<path d="M43641 49233 c0 -14 178 -358 178 -348 1 6 -37 88 -84 183 -75 153
-96 190 -94 165z"/>
<path d="M84926 49134 c161 -208 184 -236 184 -220 0 9 -232 301 -242 305 -6
2 20 -36 58 -85z"/>
<path d="M33790 49025 c0 -11 52 -394 91 -675 17 -118 33 -217 35 -219 13 -14
10 28 -22 239 -19 129 -47 329 -63 443 -16 115 -32 211 -35 214 l-6 6 0 -8z"/>
<path d="M34374 49013 c2 -10 17 -97 32 -193 26 -170 39 -228 49 -218 5 4 -46
344 -60 406 l-5 22 -11 0 -10 0 5 -17z"/>
<path d="M73427 49000 c-104 -16 -191 -31 -194 -34 l-6 -6 10 0 c17 0 437 61
448 65 31 11 -94 -1 -258 -25z"/>
<path d="M34483 48998 c3 -13 18 -103 33 -200 l28 -178 8 0 c4 0 8 7 8 15 0
14 -46 305 -56 358 l-6 27 -10 0 -10 0 5 -22z"/>
<path d="M75872 48875 c4 -51 12 -75 22 -64 2 2 1 30 -1 62 l-5 57 -10 0 -10
0 4 -55z"/>
<path d="M75938 48853 l-28 -4 0 -10 0 -9 19 0 c26 0 51 10 51 21 0 5 -3 8 -7
8 -5 -1 -20 -4 -35 -6z"/>
<path d="M75968 48803 l-48 -4 0 -10 0 -9 39 0 c44 0 71 8 71 21 0 5 -3 8 -7
7 -5 -1 -29 -3 -55 -5z"/>
<path d="M50602 48728 l-11 -11 53 -76 c29 -42 83 -128 121 -191 38 -63 69
-116 70 -118 4 -6 35 11 35 19 0 24 -234 389 -250 389 -3 0 -11 -5 -18 -12z"/>
<path d="M34788 48656 l-206 -11 -9 -9 -8 -9 150 7 c83 3 196 9 252 13 l102 6
-5 8 -5 9 -32 -2 c-18 0 -125 -6 -239 -12z"/>
<path d="M40486 48651 l-6 -9 25 -16 25 -16 0 -15 0 -15 15 0 14 0 -6 18 c-9
24 -23 41 -44 53 l-18 9 -5 -9z"/>
<path d="M34098 48616 l-206 -11 -8 -8 -8 -8 89 6 c50 3 170 10 269 15 98 5
181 12 184 15 7 6 -61 5 -320 -9z"/>
<path d="M34845 48614 c-110 -7 -213 -13 -229 -13 l-29 -1 6 -6 6 -6 235 13
235 12 -5 9 c-3 4 -8 7 -12 7 -4 -1 -97 -8 -207 -15z"/>
<path d="M34490 48590 l-15 -10 33 0 32 0 0 10 0 10 -17 0 c-10 0 -25 -5 -33
-10z"/>
<path d="M33895 48568 c2 -7 29 -204 61 -438 l57 -425 10 -10 10 -10 -6 25
c-3 14 -31 215 -63 448 l-58 422 -8 0 -7 0 4 -12z"/>
<path d="M33345 48537 c-203 -11 -372 -21 -374 -23 -2 -2 -2 -5 0 -7 7 -6 861
41 867 47 l5 6 -64 -1 c-35 -1 -230 -11 -434 -22z"/>
<path d="M31791 48145 c-1 -95 37 -806 43 -813 l6 -5 0 19 c0 53 -41 840 -45
849 -2 6 -4 -17 -4 -50z"/>
<path d="M37843 48107 l-193 -9 0 -10 0 -9 18 5 c9 2 105 8 213 11 l197 7 13
9 14 9 -35 -2 c-19 -1 -122 -6 -227 -11z"/>
<path d="M90842 48046 c-34 -39 -82 -101 -107 -139 -53 -81 -151 -202 -298
-366 -60 -67 -104 -121 -99 -121 9 0 238 256 326 364 27 34 69 93 93 131 l45
70 60 61 60 62 -8 4 -9 5 -63 -71z"/>
<path d="M72730 47786 c0 -3 -18 -91 -40 -197 -35 -167 -41 -215 -26 -198 2 2
22 91 44 197 l40 192 -9 6 c-5 3 -9 3 -9 0z"/>
<path d="M90457 47629 c-76 -87 -141 -167 -144 -176 -5 -14 166 178 285 320
l15 17 -9 -1 c-5 0 -71 -72 -147 -160z"/>
<path d="M46730 47675 c-77 -40 -182 -87 -255 -115 -15 -6 -25 -13 -23 -16 8
-7 173 63 293 124 l100 51 -15 0 c-8 0 -53 -20 -100 -44z"/>
<path d="M72633 47333 l7 -6 7 6 6 7 -13 0 -13 0 6 -7z"/>
<path d="M18175 47157 c-99 -40 -189 -76 -199 -80 -10 -4 -17 -10 -14 -13 5
-4 406 151 417 162 16 15 -48 -6 -204 -69z"/>
<path d="M46336 47046 l-16 -25 1 -23 1 -23 8 28 c5 16 14 35 21 43 6 8 10 17
7 20 -3 2 -13 -7 -22 -20z"/>
<path d="M46297 46700 c-56 -257 -178 -882 -173 -888 7 -6 13 24 80 368 36
184 83 418 106 519 22 102 39 192 38 200 l-4 16 -47 -215z"/>
<path d="M20575 46698 l-19 -63 -45 -49 -46 -49 -85 -40 -85 -40 11 -4 12 -4
83 39 84 39 37 39 37 39 19 45 c11 25 22 60 26 78 l6 32 -8 0 -8 0 -19 -62z"/>
<path d="M51776 46403 c-3 -10 -12 -56 -21 -103 l-15 -85 9 -30 c13 -45 181
-389 186 -383 3 3 -35 89 -85 192 l-90 187 0 38 c0 22 7 73 16 116 9 42 14 79
11 82 -3 2 -8 -4 -11 -14z"/>
<path d="M50800 46375 c0 -14 163 -315 171 -315 6 0 -153 305 -166 318 -3 3
-5 2 -5 -3z"/>
<path d="M50850 46364 c0 -12 152 -285 157 -281 4 5 -146 287 -153 287 -2 0
-4 -3 -4 -6z"/>
<path d="M47750 46048 c10 -35 30 -106 45 -158 15 -52 32 -102 37 -110 l9 -15
-4 20 c-14 64 -93 325 -99 325 l-7 0 19 -62z"/>
<path d="M93091 46095 l15 -15 75 -13 76 -14 24 -16 23 -17 51 0 50 0 63 32
c34 18 62 35 62 39 0 4 -30 -8 -67 -27 l-68 -34 -37 0 -37 0 -35 21 -35 20
-68 10 -68 10 -9 9 c-6 6 -15 10 -20 10 l-10 0 15 -15z"/>
<path d="M93020 46076 l-25 -23 -62 -22 -61 -23 -64 -2 c-34 -2 -93 -3 -130
-4 l-68 -2 0 -11 0 -10 18 5 c9 3 69 6 132 8 l115 2 67 25 66 26 22 28 c26 33
23 35 -10 3z"/>
<path d="M93060 46071 c0 -4 16 -15 35 -24 l36 -17 32 0 32 0 53 -25 54 -25
54 0 54 0 71 36 c93 47 83 55 -12 9 l-73 -35 -41 0 -40 0 -47 25 -47 25 -38 0
-38 0 -42 20 -43 19 0 -8z"/>
<path d="M39846 46018 c4 -7 27 -42 50 -78 l42 -65 101 -100 c56 -55 101 -95
101 -90 0 6 -43 53 -96 105 l-95 95 -46 73 c-26 39 -50 72 -55 72 l-9 0 7 -12z"/>
<path d="M81345 45950 l-6 -10 10 0 c6 0 11 5 11 10 0 6 -2 10 -4 10 -3 0 -8
-4 -11 -10z"/>
<path d="M81295 45878 c-83 -74 -86 -78 -124 -140 l-23 -38 14 0 13 0 23 44
24 44 84 72 c76 64 98 91 77 90 -5 -1 -44 -33 -88 -72z"/>
<path d="M81366 45879 c-7 -19 -17 -50 -21 -69 -4 -19 -18 -58 -31 -87 l-23
-52 -26 -7 -25 -6 5 -32 6 -31 -10 -27 -10 -27 8 -6 9 -5 12 30 12 30 -5 26
-5 26 25 11 24 11 16 35 c19 45 63 205 57 210 -2 2 -10 -11 -18 -30z"/>
<path d="M49204 45806 c-83 -35 -181 -73 -218 -86 l-66 -22 0 -9 c0 -5 1 -9 3
-9 25 0 435 164 451 180 l10 10 -14 0 c-8 0 -83 -29 -166 -64z"/>
<path d="M81322 45858 c-5 -7 -17 -39 -26 -72 l-17 -58 -25 -24 c-29 -30 -30
-34 -4 -27 l21 6 16 30 c15 30 55 157 49 157 -2 0 -8 -6 -14 -12z"/>
<path d="M49626 45591 l-6 -9 15 -12 c8 -7 15 -19 15 -26 l0 -14 10 0 10 0 0
23 0 23 -12 12 c-14 14 -25 15 -32 3z"/>
<path d="M48285 45504 c-340 -109 -751 -245 -765 -254 -42 -26 16 -11 220 55
124 41 332 107 463 147 l237 72 0 13 c0 17 6 18 -155 -33z"/>
<path d="M15435 45425 c3 -44 8 -131 11 -193 l7 -113 10 -6 9 -6 -5 19 c-3 11
-9 82 -12 159 -4 77 -11 158 -16 180 l-8 40 4 -80z"/>
<path d="M34675 44824 c-27 -13 -54 -25 -60 -27 l-10 -4 7 -8 6 -7 61 27 61
28 0 8 c0 13 -9 10 -65 -17z"/>
<path d="M46552 44762 l-2 -93 14 -32 c20 -43 44 -69 94 -101 45 -28 52 -31
52 -18 0 5 -11 14 -24 20 -13 6 -40 25 -61 43 l-37 33 -11 25 -10 26 -7 95 -7
95 -1 -93z"/>
<path d="M29883 44350 c-1 -69 3 -152 7 -185 l7 -60 0 75 c0 41 -3 125 -7 185
l-7 110 0 -125z"/>
<path d="M26540 44346 c0 -5 363 -182 392 -191 l23 -7 -10 10 c-9 9 -391 192
-401 192 -2 0 -4 -2 -4 -4z"/>
<path d="M87897 44014 c-26 -46 -47 -90 -47 -97 0 -6 23 30 51 81 28 51 49 95
47 97 -2 2 -25 -34 -51 -81z"/>
<path d="M87962 44048 c-10 -18 -33 -58 -50 -89 l-31 -55 115 -185 c64 -101
119 -186 122 -189 18 -17 -21 52 -115 202 l-107 171 47 88 c47 86 59 123 19
57z"/>
<path d="M34690 44065 c0 -3 16 -20 36 -37 l36 -32 48 -70 c26 -39 68 -91 93
-114 l45 -44 5 9 6 10 -40 39 c-22 21 -66 75 -97 119 -59 83 -98 124 -119 125
-7 0 -13 -2 -13 -5z"/>
<path d="M87957 43703 c136 -219 122 -197 127 -192 6 6 -222 373 -234 377 -5
2 43 -81 107 -185z"/>
<path d="M50990 43299 l-245 -38 -428 -121 c-236 -66 -443 -126 -461 -134
l-34 -14 -29 -44 c-16 -23 -33 -49 -37 -55 l-7 -13 8 0 c4 0 21 20 36 44 l28
44 24 16 23 15 445 126 445 125 264 40 c297 46 309 48 253 48 -22 0 -150 -18
-285 -39z"/>
<path d="M34235 43085 l-80 -53 -85 -26 c-47 -14 -105 -29 -129 -33 l-44 -8
-20 -27 -20 -27 -12 -128 -13 -128 -16 -37 -16 -38 8 0 8 0 17 53 17 52 10
109 10 109 15 23 14 22 18 6 c10 2 44 10 77 16 32 7 84 21 115 31 l56 20 77
51 c43 28 78 54 78 59 0 12 7 15 -85 -46z"/>
<path d="M52110 43055 c0 -13 199 -403 204 -398 3 3 -40 95 -95 204 -87 174
-109 214 -109 194z"/>
<path d="M51888 43006 l-147 -21 -8 -9 -8 -8 30 6 c17 3 100 15 185 26 85 12
157 23 159 26 8 8 -65 1 -211 -20z"/>
<path d="M51523 42996 c-84 -12 -155 -25 -159 -29 -4 -4 -5 -7 -2 -7 22 0 353
51 356 55 9 8 -37 4 -195 -19z"/>
<path d="M42024 42955 l-19 -14 11 -1 c5 0 19 7 30 15 l19 14 -11 1 c-5 0 -19
-7 -30 -15z"/>
<path d="M51340 42932 c0 -25 41 -290 51 -326 14 -53 22 -39 9 18 -6 26 -19
106 -29 178 -11 71 -22 133 -25 136 l-6 5 0 -11z"/>
<path d="M50875 42905 c-44 -7 -120 -18 -170 -25 l-90 -13 13 -5 c17 -5 320
36 347 48 l20 9 -20 -1 c-11 0 -56 -6 -100 -13z"/>
<path d="M50650 42660 l0 -180 10 0 10 0 0 180 0 180 -10 0 -10 0 0 -180z"/>
<path d="M41467 42666 l-138 -62 -45 -39 -45 -40 -14 -55 -15 -55 2 -175 1
-175 7 165 c4 91 10 190 15 220 l7 55 48 45 47 45 137 60 c75 33 136 63 136
67 0 5 -1 8 -2 7 -2 0 -65 -29 -141 -63z"/>
<path d="M51238 42540 c-75 -10 -165 -21 -200 -24 -149 -15 -315 -38 -338 -46
l-25 -8 25 -1 c14 -1 95 8 180 19 85 12 242 31 348 44 107 13 196 27 199 30
l6 6 -29 -1 c-16 -1 -91 -9 -166 -19z"/>
<path d="M31124 41833 c-70 -98 -131 -183 -136 -190 l-9 -11 9 -6 8 -5 135
187 c74 102 136 190 137 194 l4 8 -10 0 -10 0 -128 -177z"/>
<path d="M92746 41905 l-26 -24 0 -36 0 -36 25 -24 24 -25 36 0 35 0 0 11 0
10 -20 -6 -19 -6 -29 15 -29 15 -6 23 -6 22 12 25 12 25 26 15 26 14 31 -16
32 -15 0 7 c0 4 -5 12 -12 19 l-12 12 -37 0 -36 0 -27 -25z"/>
<path d="M30340 41663 c0 -8 231 -268 282 -318 l20 -20 -3 12 c-7 20 -299 339
-299 326z"/>
<path d="M28960 41150 c0 -10 36 -20 75 -20 36 0 155 -31 207 -53 l37 -15 139
-105 139 -105 59 -30 59 -29 48 -7 48 -7 29 6 c17 4 30 10 30 13 l0 7 -75 2
-76 2 -57 32 c-31 18 -118 79 -193 135 l-137 103 -38 16 c-56 24 -170 52 -236
58 l-58 6 0 -9z"/>
<path d="M56853 40923 c65 -2 168 -2 230 0 l112 3 -230 0 -230 0 118 -3z"/>
<path d="M57748 40923 c56 -2 148 -2 205 0 l102 3 -205 0 -205 0 103 -3z"/>
<path d="M57748 40883 c56 -2 148 -2 205 0 l102 3 -205 0 -205 0 103 -3z"/>
<path d="M28885 40411 l-7 -12 21 -35 c32 -54 128 -285 136 -325 4 -19 10 -42
15 -49 18 -29 19 -2 1 65 l-18 70 -44 100 c-24 55 -56 122 -70 149 l-27 48 -7
-11z"/>
<path d="M80781 40348 c5 -23 483 -799 487 -789 1 4 -108 187 -244 407 -135
219 -244 392 -243 382z"/>
<path d="M46518 40094 l-6 -9 14 -25 13 -25 0 15 c0 8 -4 24 -8 34 l-8 20 -5
-10z"/>
<path d="M84816 39970 c4 -8 49 -76 99 -150 51 -74 106 -161 124 -192 18 -32
37 -61 43 -64 l11 -7 -33 59 c-44 79 -207 324 -233 349 l-20 20 9 -15z"/>
<path d="M84777 39946 c-3 -7 -64 -49 -136 -95 -72 -45 -134 -87 -137 -93 l-7
-11 14 8 c8 5 74 46 147 93 73 46 134 83 136 81 54 -72 198 -299 334 -524 96
-159 176 -292 178 -294 54 -61 -302 532 -429 716 -42 61 -74 113 -71 116 3 2
-2 7 -10 10 l-14 6 -5 -13z"/>
<path d="M81417 39388 c63 -101 122 -190 130 -198 l15 -15 -3 11 c-8 22 -244
384 -251 384 -4 0 45 -82 109 -182z"/>
<path d="M52065 39399 c-3 -13 -20 -101 -38 -195 l-32 -171 -200 44 c-110 24
-207 42 -215 40 -8 -1 77 -22 190 -46 113 -24 209 -47 214 -52 l8 -7 13 4 13
5 -4 17 -4 17 34 179 c20 99 34 182 31 184 -2 2 -7 -6 -10 -19z"/>
<path d="M47180 39340 l0 -13 7 6 6 7 -6 7 -7 6 0 -13z"/>
<path d="M52030 38980 c24 -9 1707 -330 1731 -330 34 0 -10 12 -126 34 -193
38 -1565 296 -1600 301 l-30 5 25 -10z"/>
<path d="M2378 38805 l-5 -6 8 -42 c4 -23 8 -66 9 -95 l0 -53 -17 -100 -16
-99 6 -7 c12 -11 14 -1 32 122 l17 120 -6 69 c-4 38 -10 75 -14 82 l-8 15 -6
-6z"/>
<path d="M60021 38688 l61 -103 86 -82 86 -82 8 5 8 5 -85 81 -85 80 -58 96
-57 95 -13 5 -13 4 62 -104z"/>
<path d="M89040 38229 c-91 -60 -167 -115 -169 -121 l-4 -12 29 19 c221 144
314 209 314 216 0 12 18 22 -170 -102z"/>
<path d="M60060 38078 c108 -105 291 -270 296 -266 6 6 -290 281 -309 287
l-12 3 25 -24z"/>
<path d="M60165 37927 c135 -131 174 -164 163 -139 -4 10 -265 252 -293 271
-11 7 48 -52 130 -132z"/>
<path d="M2275 37898 c-12 -54 -73 -443 -69 -447 11 -12 19 25 50 216 19 115
36 218 39 231 l5 22 -10 0 -10 0 -5 -22z"/>
<path d="M35000 37816 c0 -2 33 -23 73 -46 l72 -42 87 -86 c48 -47 90 -84 93
-81 3 3 -34 44 -82 90 l-88 84 -72 43 c-68 40 -83 47 -83 38z"/>
<path d="M86645 37561 c-72 -50 -285 -194 -475 -322 -386 -260 -355 -238 -349
-243 7 -7 653 422 728 483 35 28 104 77 153 108 48 30 88 57 88 59 0 12 -29
-5 -145 -85z"/>
<path d="M59360 37602 c0 -18 184 -382 192 -382 7 0 -175 375 -188 389 -2 2
-4 -1 -4 -7z"/>
<path d="M86157 37278 c-125 -83 -226 -153 -223 -155 3 -4 439 278 461 298 l9
9 -9 0 c-6 -1 -113 -69 -238 -152z"/>
<path d="M83032 37129 l-113 -70 -29 -5 -28 -6 -42 62 c-23 34 -44 59 -47 57
-5 -6 71 -122 87 -132 l9 -6 36 15 c40 17 255 145 255 152 0 10 -22 -1 -128
-67z"/>
<path d="M33640 37176 c0 -2 18 -15 40 -30 22 -14 40 -23 40 -19 0 5 -15 18
-33 31 -31 21 -47 27 -47 18z"/>
<path d="M58960 36691 c-12 -24 -13 -31 -2 -31 5 0 14 11 20 25 l12 25 -10 0
c-5 0 -14 -9 -20 -19z"/>
<path d="M40758 36647 c-75 -18 -140 -35 -144 -39 -11 -11 -9 -11 157 27 l153
36 12 -5 13 -5 6 -48 c4 -26 11 -59 16 -73 l9 -25 -6 53 c-3 29 -9 65 -13 80
l-7 27 -30 2 -29 1 -137 -31z"/>
<path d="M80387 35777 c-240 -126 -435 -232 -433 -235 5 -5 864 443 881 459
l9 9 -9 -1 c-6 -1 -207 -105 -448 -232z"/>
<path d="M55863 35908 c3 -13 16 -94 28 -180 l22 -158 7 0 6 0 -25 180 -25
180 -9 0 -9 0 5 -22z"/>
<path d="M52155 35844 c-44 -30 -128 -82 -187 -116 -60 -34 -108 -66 -108 -70
0 -4 55 25 123 64 103 60 149 90 251 160 6 4 8 9 6 11 -3 3 -41 -20 -85 -49z"/>
<path d="M34280 35699 c-80 -88 -147 -166 -149 -172 l-3 -12 19 20 c11 11 69
74 128 140 60 66 120 132 134 147 13 15 22 30 20 32 -3 3 -70 -67 -149 -155z"/>
<path d="M41769 35677 l13 -17 -5 -26 -5 -26 10 10 10 10 -4 28 -3 27 -15 5
-15 5 14 -16z"/>
<path d="M84882 35583 c-29 -15 -52 -30 -52 -35 l0 -9 37 26 38 25 31 0 31 0
15 -17 c8 -10 32 -49 53 -88 21 -38 63 -104 94 -145 30 -41 131 -200 223 -353
173 -287 245 -397 259 -397 15 0 11 9 -30 63 -21 29 -74 110 -117 180 -240
389 -285 460 -326 513 -25 33 -66 97 -93 144 l-47 85 -22 17 c-28 23 -33 23
-94 -9z"/>
<path d="M81090 35552 c0 -17 27 -59 69 -107 67 -77 251 -266 251 -258 0 5
-59 71 -130 146 l-131 137 -29 47 -30 47 0 -12z"/>
<path d="M41396 35468 l-16 -22 0 -37 0 -36 15 -44 c25 -70 25 -72 30 -67 3 3
-4 31 -15 63 -24 70 -25 91 -5 129 19 36 13 45 -9 14z"/>
<path d="M52706 35158 c-92 -83 -166 -155 -166 -160 0 -5 64 49 143 120 78 71
158 143 177 160 l35 31 -12 1 -12 0 -165 -152z"/>
<path d="M84125 35101 c-160 -102 -335 -214 -389 -249 -54 -35 -96 -65 -93
-68 3 -3 757 474 776 492 2 2 2 6 0 8 -2 2 -135 -81 -294 -183z"/>
<path d="M33744 35156 c-53 -64 -98 -138 -151 -248 -43 -90 -33 -88 12 2 50
99 111 196 158 252 22 27 38 50 36 52 -2 1 -27 -24 -55 -58z"/>
<path d="M81446 35198 c17 -27 317 -358 322 -354 2 3 -69 86 -157 185 -147
164 -186 205 -165 169z"/>
<path d="M85555 34540 c-379 -236 -689 -431 -687 -434 1 -3 4 -6 8 -7 3 0 315
191 695 426 l689 427 0 9 c0 5 -3 9 -7 8 -5 0 -318 -193 -698 -429z"/>
<path d="M41536 34793 c25 -71 62 -175 82 -232 l36 -104 4 13 4 12 -77 219
-78 219 -8 0 -8 0 45 -127z"/>
<path d="M80300 34914 c0 -14 236 -444 243 -444 l9 0 -25 43 c-13 23 -68 124
-122 225 -89 167 -105 194 -105 176z"/>
<path d="M83264 34592 c-520 -340 -806 -533 -801 -539 3 -3 102 60 219 140
117 79 371 247 563 372 323 210 389 255 373 255 -3 0 -162 -103 -354 -228z"/>
<path d="M59447 34514 c-103 -64 -186 -119 -183 -121 3 -3 87 46 188 108 l182
113 21 -2 20 -1 15 -19 c9 -10 48 -107 89 -216 40 -108 76 -195 78 -192 5 4
-140 399 -155 423 l-8 13 -29 5 -30 5 -188 -116z"/>
<path d="M81070 34474 c-124 -68 -219 -124 -213 -124 7 0 110 52 228 116 l215
116 0 9 c0 5 -1 8 -2 8 -2 -1 -104 -57 -228 -125z"/>
<path d="M59605 34567 c-57 -33 -686 -427 -710 -445 l-20 -14 20 6 c11 4 181
108 378 232 l359 225 16 -3 17 -3 48 -130 c81 -220 99 -266 103 -262 6 6 -135
388 -148 405 -14 16 -16 16 -63 -11z"/>
<path d="M85640 34549 l0 -10 10 6 c6 3 10 8 10 11 0 2 -4 4 -10 4 -5 0 -10
-5 -10 -11z"/>
<path d="M57462 34521 c16 -45 194 -411 200 -411 4 0 -25 66 -64 148 -38 81
-83 175 -99 210 -15 34 -31 62 -34 62 -4 0 -5 -4 -3 -9z"/>
<path d="M83059 34409 c-202 -133 -194 -127 -188 -133 2 -2 92 54 199 125 107
71 190 129 184 129 -5 0 -93 -54 -195 -121z"/>
<path d="M72473 34343 c65 -2 168 -2 230 0 l112 3 -230 0 -230 0 118 -3z"/>
<path d="M55225 34190 c-209 -33 -411 -62 -450 -66 -38 -4 -79 -11 -90 -15
l-20 -9 60 6 c95 9 857 123 890 133 l30 9 -20 0 c-11 0 -191 -26 -400 -58z"/>
<path d="M87329 34001 c-219 -138 -254 -160 -243 -161 8 0 338 201 353 216 2
2 2 5 0 7 -2 2 -52 -26 -110 -62z"/>
<path d="M82491 34043 c6 -19 260 -325 266 -320 4 4 -223 286 -259 322 l-10
10 3 -12z"/>
<path d="M53088 33901 c-103 -15 -191 -30 -194 -34 -4 -4 -5 -7 -3 -7 22 0
434 61 437 65 9 9 -50 3 -240 -24z"/>
<path d="M35267 33715 c-91 -63 -171 -115 -177 -115 l-10 0 0 -15 c0 -8 4 -15
8 -15 5 0 49 -76 98 -170 49 -93 93 -170 97 -170 l8 0 -39 73 c-22 39 -65 120
-96 178 l-56 106 175 118 c96 66 175 120 175 122 0 11 -35 -10 -183 -112z"/>
<path d="M33614 32649 c-206 -122 -199 -117 -193 -123 4 -5 365 207 384 225
22 21 -11 3 -191 -102z"/>
<path d="M79411 32686 c7 -7 362 -146 373 -146 l9 0 -6 7 c-11 11 -185 83
-276 114 -80 27 -110 35 -100 25z"/>
<path d="M73102 32462 l-103 -15 10 -10 10 -10 101 12 100 13 0 14 c0 8 -3 13
-7 13 -5 -1 -54 -8 -111 -17z"/>
<path d="M72991 32340 c0 -14 4 -34 9 -45 l9 -20 0 30 1 30 -10 15 -10 15 1
-25z"/>
<path d="M98814 31738 l-22 -10 -11 -24 c-14 -30 -14 -34 -1 -34 l10 0 0 14 0
15 22 15 22 16 26 0 25 0 -15 10 c-18 12 -29 12 -56 -2z"/>
<path d="M95670 27044 c-102 -75 -267 -196 -368 -269 l-183 -134 8 -4 8 -5
195 144 c107 79 273 200 368 270 94 69 172 128 172 130 0 12 -32 -9 -200 -132z"/>
<path d="M94820 26724 c-102 -74 -187 -139 -189 -145 -2 -6 48 26 110 72 63
45 148 107 189 137 41 30 79 59 85 63 l9 9 -9 0 c-6 -1 -93 -61 -195 -136z"/>
<path d="M23135 26591 l-5 -10 7 -4 c5 -2 99 -15 210 -27 l203 -24 7 7 c3 4 4
9 1 12 -3 4 -387 54 -415 55 -1 0 -4 -4 -8 -9z"/>
<path d="M23611 26501 l16 -10 134 -16 c74 -8 150 -18 169 -20 l35 -5 -15 8
-15 9 -150 17 c-82 10 -159 20 -170 22 l-20 5 16 -10z"/>
<path d="M4500 25015 l0 -36 -14 -27 c-18 -34 -66 -79 -188 -177 -87 -68 -112
-95 -92 -95 9 0 185 139 238 188 25 23 52 55 61 71 l15 30 0 41 0 40 -10 0
-10 0 0 -35z"/>
<path d="M87006 24931 l-28 -29 -30 9 -30 8 -27 -14 c-14 -7 -62 -51 -106 -97
l-80 -83 55 51 c30 27 75 67 99 88 l44 38 42 -5 42 -6 33 34 34 35 -10 0 c-6
0 -23 -13 -38 -29z"/>
<path d="M3763 24351 c-68 -53 -94 -65 -208 -96 -55 -14 -115 -31 -133 -36
l-32 -11 5 -8 5 -8 102 28 c57 15 122 33 145 39 l41 11 71 53 c39 28 70 55 71
60 0 15 -20 6 -67 -32z"/>
<path d="M19973 21702 l-213 -26 0 -8 0 -8 23 0 c12 0 114 11 227 25 113 14
206 25 208 25 1 0 2 5 2 10 l0 10 -17 -1 c-10 -1 -114 -13 -230 -27z"/>
<path d="M87081 20482 c5 -16 302 -330 308 -326 5 5 -46 62 -187 209 -69 72
-123 124 -121 117z"/>
<path d="M95310 18097 c8 -7 80 -71 160 -142 80 -71 158 -140 174 -154 l29
-26 -4 12 c-5 16 -351 323 -364 323 l-9 0 14 -13z"/>
<path d="M95285 18063 c26 -26 325 -284 350 -303 l20 -15 -18 22 c-27 31 -345
307 -360 312 l-12 3 20 -19z"/>
<path d="M92930 16992 c0 -13 526 -478 950 -841 195 -167 366 -313 379 -325
l24 -21 -4 12 c-2 6 -184 166 -404 355 -220 189 -523 453 -673 586 -150 134
-272 239 -272 234z"/>
<path d="M92371 16559 c-89 -67 -160 -124 -157 -126 2 -2 78 50 168 118 188
140 174 129 161 129 -5 0 -82 -55 -172 -121z"/>
<path d="M96670 12031 c0 -5 74 -73 165 -151 l166 -141 11 3 11 4 -164 140
c-90 77 -170 143 -176 148 l-13 7 0 -10z"/>
<path d="M21860 3121 c0 -5 60 -53 133 -107 72 -54 397 -309 720 -567 l588
-469 6 6 7 6 -15 14 c-8 8 -261 211 -564 452 -485 387 -855 674 -870 674 -3 0
-5 -4 -5 -9z"/>
<path d="M23015 2281 c3 -5 79 -68 170 -140 l164 -130 6 8 5 9 -165 131 c-91
72 -170 131 -176 131 l-10 0 6 -9z"/>
<path d="M12200 1602 l0 -11 33 -5 c17 -3 100 -10 182 -16 83 -6 174 -13 203
-17 l52 -5 0 14 0 14 -167 12 c-93 7 -198 16 -235 19 l-68 6 0 -11z"/>
<path d="M29800 947 l-135 -101 -34 -38 -34 -39 8 -7 7 -7 37 41 36 41 138
101 c75 56 137 104 137 107 0 17 -40 -8 -160 -98z"/>
</g>
</svg>
