<?xml version="1.0" standalone="no"?>
<!DOCTYPE svg PUBLIC "-//W3C//DTD SVG 20010904//EN"
 "http://www.w3.org/TR/2001/REC-SVG-20010904/DTD/svg10.dtd">
<svg version="1.0" xmlns="http://www.w3.org/2000/svg"
 width="7500.000000pt" height="7500.000000pt" viewBox="0 0 7500.000000 7500.000000"
 preserveAspectRatio="xMidYMid meet">
<metadata>
Created by potrace 1.16, written by Peter Selinger 2001-2019
</metadata>
<g transform="translate(0.000000,7500.000000) scale(0.075000,-0.075000)"
fill="#000000" stroke="none">
<path d="M88871 99996 c2 -2 33 -16 68 -30 l64 -26 10 7 10 6 -53 24 -53 23
-25 0 c-14 0 -23 -2 -21 -4z"/>
<path d="M87880 96390 l-65 -7 135 0 135 0 80 -26 c43 -15 81 -24 83 -22 5 5
-12 12 -93 40 l-50 17 -80 3 c-44 1 -109 -1 -145 -5z"/>
<path d="M32020 94481 c0 -5 81 -68 180 -141 l181 -131 11 3 12 4 -187 137
c-103 75 -189 137 -192 137 -3 0 -5 -4 -5 -9z"/>
<path d="M87651 93201 c-105 -109 -191 -201 -191 -205 0 -3 90 85 200 196
l199 203 80 -81 80 -80 14 8 c8 4 27 8 43 10 l29 2 38 -13 c21 -7 41 -11 44
-8 2 3 -20 13 -50 23 l-54 17 -30 -11 -30 -10 -74 74 -73 74 -17 0 -17 0 -191
-199z"/>
<path d="M87837 93332 c-10 -10 -17 -22 -17 -27 l0 -8 20 18 21 19 73 -73 74
-73 36 13 36 13 43 -11 c49 -14 62 -9 21 8 l-29 12 -37 0 -38 0 -13 -11 -13
-11 -74 74 c-41 41 -77 75 -81 75 -3 0 -13 -8 -22 -18z"/>
<path d="M88642 93060 c15 -9 186 -72 373 -136 l69 -24 -9 9 c-10 9 -429 161
-443 161 -4 0 0 -5 10 -10z"/>
<path d="M21866 92763 c-9 -9 -7 -41 3 -47 l9 -6 5 25 4 25 -7 5 c-4 2 -10 2
-14 -2z"/>
<path d="M89532 92756 c3 -4 106 -41 227 -81 l221 -73 0 7 c0 4 -96 38 -212
76 -117 37 -220 70 -228 73 l-15 5 7 -7z"/>
<path d="M86810 92736 c0 -2 54 -39 121 -81 l120 -78 35 34 c19 18 34 37 34
43 l0 10 -33 -32 c-18 -18 -37 -32 -42 -32 -6 0 -57 32 -115 70 -96 64 -120
77 -120 66z"/>
<path d="M89520 92716 c0 -8 442 -148 447 -142 4 4 -424 146 -441 146 -3 0 -6
-2 -6 -4z"/>
<path d="M86836 92662 c82 -58 206 -132 220 -132 5 0 32 23 59 50 l49 50 -10
0 c-5 0 -28 -18 -49 -40 -21 -22 -43 -40 -48 -40 -11 0 -167 93 -221 132 -21
15 -46 28 -54 28 l-15 0 69 -48z"/>
<path d="M33330 92561 c0 -5 11 -37 23 -72 13 -35 44 -137 68 -226 l44 -163 7
0 c5 0 8 5 8 12 0 18 -77 290 -107 381 l-26 77 -9 0 c-4 0 -8 -4 -8 -9z"/>
<path d="M33280 92542 c0 -5 11 -40 23 -78 13 -38 43 -140 67 -227 l44 -157 8
8 8 8 -40 145 c-22 79 -52 181 -67 227 l-27 82 -8 0 c-4 0 -8 -4 -8 -8z"/>
<path d="M25670 91562 c0 -9 418 -127 425 -121 3 3 -62 24 -143 47 -81 23
-177 51 -214 61 l-68 20 0 -7z"/>
<path d="M94222 89391 c95 -93 175 -167 178 -164 6 6 -331 332 -343 333 -4 0
70 -76 165 -169z"/>
<path d="M94030 89535 c0 -13 328 -341 334 -334 3 3 -71 81 -164 174 -94 94
-170 165 -170 160z"/>
<path d="M97290 89116 c0 -2 23 -48 51 -102 l52 -99 66 -67 c36 -38 70 -68 75
-68 5 0 -24 35 -65 78 l-74 77 -45 93 c-24 50 -48 92 -52 92 -4 0 -8 -2 -8 -4z"/>
<path d="M86365 88979 l80 -11 195 -2 195 -3 105 -17 c58 -10 258 -53 444 -97
187 -44 341 -77 344 -74 7 7 7 7 -368 94 -190 43 -394 87 -454 96 l-109 17
-141 -3 c-78 -2 -193 0 -256 3 l-115 7 80 -10z"/>
<path d="M86330 88940 c25 -4 97 -11 160 -14 l115 -7 85 10 85 9 -140 -1 c-77
-1 -187 1 -245 5 l-105 7 45 -9z"/>
<path d="M85130 88894 c-96 -18 -190 -36 -209 -39 -18 -4 -31 -9 -28 -11 3 -3
97 11 208 31 l204 37 10 9 9 9 -9 -1 c-6 -1 -89 -16 -185 -35z"/>
<path d="M84325 88773 c-38 -7 -110 -20 -160 -28 l-90 -14 75 5 75 5 115 23
115 24 -30 0 c-16 0 -61 -7 -100 -15z"/>
<path d="M88212 88675 c3 -4 111 -28 239 -55 l234 -49 120 -46 c131 -51 576
-195 603 -195 l17 0 65 -56 c36 -31 73 -63 82 -72 l17 -17 41 -190 c44 -204
48 -220 55 -214 2 3 -16 97 -41 209 l-45 205 -17 16 c-9 9 -45 42 -80 72 l-63
56 -32 6 c-69 14 -429 130 -563 181 l-140 54 -239 50 c-131 27 -243 50 -249
50 l-9 0 5 -5z"/>
<path d="M78980 88497 l0 -13 222 -77 222 -77 8 8 9 9 -58 21 c-32 12 -136 48
-230 81 l-173 60 0 -12z"/>
<path d="M78970 88442 l0 -8 368 -129 c202 -70 395 -139 430 -151 l64 -24 -4
13 -5 12 -419 147 c-230 81 -422 148 -426 148 -5 0 -8 -4 -8 -8z"/>
<path d="M84773 87918 c-73 -145 -162 -318 -198 -385 -36 -68 -62 -123 -58
-123 16 0 397 743 391 761 -2 5 -62 -109 -135 -253z"/>
<path d="M89553 88148 c3 -13 22 -99 43 -193 20 -93 40 -177 45 -185 l8 -15 1
15 c0 8 -19 102 -42 208 l-42 192 -9 0 -9 0 5 -22z"/>
<path d="M84865 88015 c-37 -80 -158 -318 -268 -528 l-200 -382 -71 -160 -72
-160 -19 -3 -20 -2 -267 73 c-148 41 -268 71 -268 67 0 -3 129 -41 286 -84
l287 -78 8 14 c5 7 37 76 71 153 34 77 136 282 227 455 185 354 394 780 382
780 -4 0 -38 -65 -76 -145z"/>
<path d="M80270 88041 l0 -9 43 -15 c277 -99 773 -267 785 -267 l16 0 -9 8
c-6 5 -73 30 -150 57 -77 26 -258 90 -403 141 -145 52 -268 94 -273 94 -5 0
-9 -4 -9 -9z"/>
<path d="M35885 87693 c59 -56 268 -242 308 -273 l27 -21 0 9 c0 14 -249 237
-323 289 l-62 45 50 -49z"/>
<path d="M83207 87013 l-6 -9 210 -75 209 -76 0 11 0 11 -193 69 c-105 38
-197 71 -203 73 l-12 4 -5 -8z"/>
<path d="M36610 86886 c0 -3 51 -40 113 -82 61 -43 133 -93 160 -112 l47 -34
0 9 c0 5 -66 54 -147 109 -165 112 -173 117 -173 110z"/>
<path d="M79156 86625 l-39 -235 7 -7 c3 -3 8 -4 10 -2 3 5 76 447 76 467 0 6
-4 12 -8 12 l-8 0 -38 -235z"/>
<path d="M17920 86632 l0 -10 33 -6 c17 -3 110 -35 206 -71 96 -36 181 -65
190 -65 l15 0 -9 9 c-14 12 -360 139 -401 147 l-34 6 0 -10z"/>
<path d="M71256 85882 c10 -40 143 -358 144 -345 0 15 -116 307 -136 343 l-15
25 7 -23z"/>
<path d="M56287 85820 c-176 -26 -207 -33 -196 -44 3 -3 94 8 204 24 110 16
206 30 213 30 l12 0 0 10 0 10 -22 -1 c-13 -1 -108 -14 -211 -29z"/>
<path d="M47110 85747 l0 -13 213 -43 c116 -24 218 -46 225 -49 l12 -4 0 16
c0 9 -2 16 -5 16 -6 0 -385 76 -422 85 l-23 5 0 -13z"/>
<path d="M47100 85700 l0 -10 27 -6 c15 -4 115 -26 223 -49 l195 -42 4 9 c1 5
1 11 -1 14 -5 4 -424 94 -440 94 -4 0 -8 -4 -8 -10z"/>
<path d="M62095 85313 l-90 -15 -347 0 -348 -1 0 -12 0 -12 208 -7 207 -7 200
16 c110 8 227 19 260 25 33 5 63 10 68 10 4 0 7 5 7 10 l0 10 -37 -1 c-21 -1
-78 -8 -128 -16z"/>
<path d="M71610 85128 c0 -4 114 -278 253 -610 140 -332 294 -699 343 -817
l89 -213 3 14 3 14 -184 434 c-101 239 -253 599 -337 800 -136 325 -170 400
-170 378z"/>
<path d="M71580 85078 c10 -24 125 -295 255 -602 231 -548 254 -600 255 -582
0 16 -514 1226 -522 1226 l-7 0 19 -42z"/>
<path d="M69057 85102 l-5 -7 188 -117 c103 -65 195 -120 204 -124 l16 -6 0 8
c0 8 -300 200 -376 242 l-23 12 -4 -8z"/>
<path d="M82500 85072 c0 -9 350 -126 356 -119 3 3 -76 32 -175 65 -100 33
-181 57 -181 54z"/>
<path d="M69030 85053 c0 -5 104 -73 231 -153 l230 -145 33 -70 c18 -38 52
-116 76 -172 l43 -102 8 5 8 5 -8 22 c-15 36 -111 258 -127 293 l-16 33 -232
145 c-127 80 -235 146 -239 146 -4 0 -7 -3 -7 -7z"/>
<path d="M64176 85012 l-6 -9 98 -239 c53 -132 101 -245 105 -252 l9 -13 46 7
c26 4 128 24 227 45 99 22 183 39 187 39 5 0 8 5 8 10 l0 10 -19 0 c-11 0 -92
-16 -181 -35 -88 -19 -184 -38 -213 -41 l-52 -6 -64 158 c-36 88 -81 199 -102
248 l-37 88 -6 -10z"/>
<path d="M64126 84992 l-5 -9 91 -228 91 -229 -18 -11 c-30 -17 -289 -207
-309 -226 -11 -10 -18 -21 -15 -24 3 -3 69 42 147 100 78 57 153 112 167 121
l25 16 31 -26 31 -26 36 0 c20 1 129 20 241 44 l205 42 3 11 4 11 -212 -44
c-117 -24 -227 -44 -244 -44 l-32 0 -18 20 -18 20 6 7 7 6 -14 16 c-8 9 -54
115 -101 236 -48 121 -88 221 -90 223 -2 2 -6 -1 -9 -6z"/>
<path d="M29037 84640 c-109 -59 -204 -113 -210 -119 l-11 -11 12 0 c15 0 400
209 408 222 3 5 4 11 3 13 -2 1 -93 -46 -202 -105z"/>
<path d="M82825 84630 l-6 -10 11 0 10 0 18 -29 18 -30 -4 -35 -4 -36 -30 -25
-30 -25 -24 0 -24 0 0 -14 0 -15 38 6 37 6 27 25 27 25 6 41 6 41 -9 26 c-18
46 -53 72 -67 49z"/>
<path d="M88151 84399 c-24 -88 -41 -163 -38 -165 6 -6 5 -11 52 166 20 74 38
141 40 148 l4 12 -8 0 -7 0 -43 -161z"/>
<path d="M80080 84522 c0 -9 419 -156 426 -150 2 3 -51 24 -118 48 -68 24
-165 58 -215 76 l-93 33 0 -7z"/>
<path d="M86629 84119 c-1 -2 -9 -103 -19 -224 l-18 -220 7 -8 7 -7 3 52 c1
29 8 132 16 228 8 96 12 176 10 179 -3 2 -5 2 -6 0z"/>
<path d="M81811 83906 c11 -9 381 -138 385 -134 5 6 -356 138 -376 138 -7 0
-11 -2 -9 -4z"/>
<path d="M81800 83871 c0 -6 140 -58 368 -138 l17 -6 -10 10 c-13 14 -375 142
-375 134z"/>
<path d="M64680 83705 c0 -17 144 -375 151 -375 6 0 -136 368 -146 379 -3 2
-5 1 -5 -4z"/>
<path d="M76997 83349 c-65 -105 -116 -193 -114 -196 4 -3 175 264 241 375 l7
12 -8 0 c-4 -1 -61 -87 -126 -191z"/>
<path d="M64793 83300 c46 -128 142 -367 150 -375 l10 -10 -7 20 c-50 137
-140 362 -148 370 l-11 10 6 -15z"/>
<path d="M76667 82743 c-131 -212 -236 -389 -235 -393 4 -10 480 761 476 771
-2 4 -110 -166 -241 -378z"/>
<path d="M72954 83087 c10 -7 73 -47 140 -91 66 -43 145 -94 174 -112 l52 -34
0 9 c0 9 -281 197 -337 225 -37 18 -57 21 -29 3z"/>
<path d="M15460 82961 c0 -5 83 -63 185 -131 l185 -122 12 4 12 4 -192 127
c-106 70 -195 127 -198 127 -2 0 -4 -4 -4 -9z"/>
<path d="M76525 82588 c-59 -95 -115 -183 -123 -195 l-14 -23 8 0 c11 0 248
379 242 386 -3 2 -53 -74 -113 -168z"/>
<path d="M96754 82325 c54 -104 103 -194 108 -200 6 -5 -33 76 -87 180 -54
105 -102 195 -108 200 -5 6 34 -75 87 -180z"/>
<path d="M84843 82460 c16 -54 311 -837 318 -845 10 -10 4 7 -176 489 -69 187
-131 347 -136 355 l-11 16 5 -15z"/>
<path d="M95555 80508 c-121 -171 -228 -323 -238 -339 l-19 -29 9 0 c5 0 101
129 213 288 113 158 219 308 238 334 l33 46 -8 5 -8 5 -220 -310z"/>
<path d="M95463 80437 c-17 -24 -67 -94 -112 -155 -45 -62 -78 -112 -73 -112
4 0 59 70 120 155 62 85 108 155 104 155 -5 0 -22 -20 -39 -43z"/>
<path d="M13450 79448 c-41 -116 -77 -216 -79 -222 l-3 -11 10 10 c5 6 29 64
52 130 23 66 57 162 76 213 l33 92 -7 0 c-4 0 -41 -95 -82 -212z"/>
<path d="M72960 79615 c0 -10 284 -392 293 -393 18 -4 -1 24 -134 206 -124
167 -159 209 -159 187z"/>
<path d="M42355 79550 l-30 -8 33 -1 32 -1 0 10 c0 6 -1 9 -2 9 -2 -1 -16 -5
-33 -9z"/>
<path d="M77435 79370 c-93 -71 -171 -134 -173 -140 l-4 -10 14 1 c17 0 340
250 346 267 l4 12 -9 0 c-4 0 -84 -59 -178 -130z"/>
<path d="M65120 79190 l-145 -6 200 -1 200 -2 40 8 40 9 -95 -1 c-52 -1 -160
-4 -240 -7z"/>
<path d="M42181 79007 c-19 -45 -56 -140 -82 -212 l-48 -130 9 -9 c5 -5 11 -8
14 -5 2 2 24 60 49 129 25 69 61 163 81 209 l35 84 -5 8 c-11 19 -20 6 -53
-74z"/>
<path d="M76720 78805 l-165 -133 3 -9 c1 -4 6 -8 11 -8 12 0 341 267 341 277
0 21 -38 -4 -190 -127z"/>
<path d="M73847 78403 l-4 -8 101 -131 c55 -72 124 -161 152 -198 l52 -67 6 9
5 9 -140 184 c-78 101 -147 190 -154 197 l-13 14 -5 -9z"/>
<path d="M33740 74152 l0 -10 51 -11 c27 -6 91 -25 142 -43 l92 -31 45 -30
c25 -17 55 -39 67 -50 l23 -20 7 6 6 7 -19 21 c-10 12 -42 37 -69 54 l-51 33
-104 35 c-58 20 -124 38 -147 42 l-43 7 0 -10z"/>
<path d="M35846 73951 l-6 -9 73 -80 72 -79 97 -81 97 -81 6 10 7 10 -28 21
c-111 88 -169 140 -236 213 l-77 85 -5 -9z"/>
<path d="M34490 73661 l0 -10 128 -40 c70 -22 169 -52 220 -67 l92 -27 7 6 c3
4 4 9 2 11 -4 4 -382 122 -426 133 l-23 5 0 -11z"/>
<path d="M30420 70890 c0 -5 15 -17 33 -26 17 -9 55 -32 82 -52 28 -20 97 -58
153 -85 l104 -48 16 6 17 7 -104 49 c-57 27 -124 64 -150 83 -49 36 -123 76
-141 76 -5 0 -10 -4 -10 -10z"/>
<path d="M74399 70680 l-5 -75 64 -365 64 -365 10 -10 10 -10 -5 20 c-3 11
-32 160 -63 330 l-57 310 -6 120 -7 120 -5 -75z"/>
<path d="M74439 70680 l-5 -75 18 -115 c21 -135 27 -164 33 -158 3 2 -2 42
-11 89 l-16 84 -7 125 -7 125 -5 -75z"/>
<path d="M69021 69639 l-334 -340 9 -9 10 -10 338 339 339 339 -7 11 c-4 6
-10 11 -14 11 -4 0 -157 -153 -341 -341z"/>
<path d="M19936 68969 c-116 -27 -212 -52 -215 -54 -2 -3 -2 -8 2 -11 l6 -6
183 42 c101 23 200 46 221 51 l37 10 0 9 0 10 -12 -1 c-7 -1 -107 -23 -222
-50z"/>
<path d="M38440 68421 c8 -5 107 -46 218 -91 l204 -82 5 6 6 5 -24 10 c-13 5
-109 43 -214 85 -104 42 -194 76 -200 76 l-10 -1 15 -8z"/>
<path d="M41301 67718 l-71 -203 0 -22 0 -23 10 0 10 0 0 23 0 22 69 195 70
195 -8 8 -8 8 -72 -203z"/>
<path d="M55377 66926 l-16 -24 -16 -125 c-16 -130 -18 -174 -10 -166 2 3 12
68 20 145 l16 139 20 28 20 27 -10 0 c-5 0 -16 -11 -24 -24z"/>
<path d="M55409 66904 l-14 -17 -15 -138 -16 -139 7 0 c10 0 16 34 30 165 l11
110 16 18 15 17 -10 0 c-6 0 -17 -7 -24 -16z"/>
<path d="M37020 66839 c-80 -5 -215 -13 -300 -18 l-156 -10 -68 -31 c-37 -17
-66 -33 -64 -36 3 -2 31 7 62 22 l57 26 67 8 c37 5 211 16 387 25 176 9 322
18 324 21 6 6 -138 3 -309 -7z"/>
<path d="M37060 66799 c-80 -5 -154 -10 -165 -13 -32 -7 333 6 389 14 l51 8
-65 -1 c-36 0 -130 -4 -210 -8z"/>
<path d="M41280 66357 c8 -8 103 -69 210 -137 107 -68 320 -206 472 -308 153
-102 280 -183 283 -180 6 6 -238 169 -668 446 -278 179 -333 212 -297 179z"/>
<path d="M41596 66261 c5 -4 135 -92 289 -195 154 -102 309 -207 344 -233 l64
-47 -5 15 -4 14 -340 227 c-186 125 -343 228 -348 228 l-10 0 10 -9z"/>
<path d="M45712 66225 c11 -11 452 -194 457 -190 7 8 7 8 -223 104 -197 82
-250 102 -234 86z"/>
<path d="M14606 66192 l-6 -11 11 -7 c10 -6 323 -43 368 -44 l14 0 -5 6 c-3 3
-86 14 -184 25 l-178 19 -7 11 -6 11 -7 -10z"/>
<path d="M41910 66008 l-12 -23 18 17 18 18 -6 6 -6 6 -12 -24z"/>
<path d="M49155 65933 c6 -6 111 -81 235 -168 124 -87 278 -196 344 -242 65
-47 117 -80 115 -74 -4 11 -665 480 -689 489 l-15 5 10 -10z"/>
<path d="M83650 65740 l0 -13 7 6 6 7 -6 7 -7 6 0 -13z"/>
<path d="M83656 65682 l-8 -14 12 -46 13 -47 81 -127 c44 -70 84 -127 88 -127
l7 -1 -6 18 c-3 9 -37 63 -74 119 -73 108 -87 135 -98 198 l-7 40 -8 -13z"/>
<path d="M31644 65485 c-4 -9 -4 -18 -1 -21 4 -4 409 -53 445 -54 l12 0 0 20
0 20 -10 0 c-16 0 -362 39 -402 46 l-38 6 -6 -17z"/>
<path d="M3656 64934 c-3 -9 -6 -33 -6 -55 l0 -39 10 0 10 0 0 55 c0 57 -3 66
-14 39z"/>
<path d="M31400 64896 c-53 -20 -203 -97 -198 -102 3 -2 54 19 114 48 l109 51
95 7 95 7 -90 1 -90 1 -35 -13z"/>
<path d="M32060 64890 l0 -7 188 -22 c103 -12 205 -25 227 -28 l40 -6 -7 8 -7
8 -221 26 -220 27 0 -6z"/>
<path d="M32513 64794 c3 -4 78 -19 166 -34 l161 -29 33 10 33 9 25 26 24 27
-24 -14 c-13 -8 -33 -20 -45 -26 l-21 -13 -30 0 c-16 0 -95 11 -175 25 -165
28 -155 27 -147 19z"/>
<path d="M49410 64651 c36 -21 381 -163 386 -159 5 5 -375 168 -391 168 l-10
-1 15 -8z"/>
<path d="M37057 64570 l-5 -19 72 -15 c39 -9 134 -22 211 -31 77 -8 150 -18
163 -20 l22 -5 6 15 6 16 -6 6 c-3 3 -89 16 -191 29 -102 13 -193 25 -203 27
-9 3 -29 8 -43 11 l-27 6 -5 -20z"/>
<path d="M47805 64582 c6 -5 64 -32 130 -60 66 -28 157 -66 203 -86 l82 -35 0
7 c0 6 -363 165 -413 181 l-12 4 10 -11z"/>
<path d="M40695 64505 c30 -79 78 -230 90 -280 l15 -60 -6 53 -5 53 -41 117
c-22 64 -45 122 -51 127 l-10 10 8 -20z"/>
<path d="M40240 64118 c0 -36 4 -35 14 5 l6 27 -10 0 -10 0 0 -32z"/>
<path d="M92270 64091 l0 -10 58 -11 c31 -7 108 -22 171 -36 l114 -23 39 -26
40 -26 6 6 6 6 -29 24 c-39 30 -69 39 -249 75 -172 35 -156 32 -156 21z"/>
<path d="M88720 64049 c89 -169 235 -397 247 -385 2 2 -16 32 -41 66 -26 34
-80 123 -122 196 -42 74 -81 137 -86 140 l-10 6 12 -23z"/>
<path d="M78490 64033 c-102 -13 -187 -26 -189 -29 -2 -2 -2 -7 1 -10 l6 -5
216 27 216 28 0 8 0 8 -32 -1 c-18 -1 -116 -12 -218 -26z"/>
<path d="M1926 63992 l-5 -9 325 -289 c179 -159 329 -290 334 -292 l10 -4 0 9
c0 7 -248 231 -616 556 l-43 37 -5 -8z"/>
<path d="M1891 63949 l4 -16 159 -141 159 -141 9 6 10 5 -14 13 c-7 6 -74 65
-148 130 -74 65 -146 128 -159 139 l-23 21 3 -16z"/>
<path d="M75260 63951 l0 -9 118 -22 c216 -40 334 -60 363 -60 l29 0 0 9 0 8
-59 7 c-33 4 -142 22 -243 41 -200 38 -208 39 -208 26z"/>
<path d="M36846 63633 c-21 -142 -40 -266 -42 -275 l-5 -18 9 0 8 0 12 88 c7
48 25 171 40 275 l28 187 -6 0 -6 0 -38 -257z"/>
<path d="M80700 63885 c0 -6 190 -388 196 -394 2 -2 6 -2 10 1 l5 6 -98 196
c-83 167 -113 217 -113 191z"/>
<path d="M89635 63879 c5 -8 48 -59 96 -114 47 -55 105 -127 128 -159 46 -66
57 -65 13 1 -31 46 -218 269 -235 280 l-10 6 8 -14z"/>
<path d="M41710 63630 l0 -13 7 6 6 7 -6 7 -7 6 0 -13z"/>
<path d="M41770 63626 c0 -5 26 -39 59 -75 32 -36 96 -119 143 -185 l86 -118
223 -253 c123 -140 228 -254 232 -254 l9 -1 -4 9 c-1 5 -99 117 -216 250
l-214 240 -102 135 c-109 142 -216 267 -216 252z"/>
<path d="M41202 63499 c-84 -74 -100 -89 -88 -89 4 0 149 122 180 151 5 5 8
11 5 13 -2 3 -46 -31 -97 -75z"/>
<path d="M41760 63576 c0 -4 21 -31 46 -59 25 -28 83 -103 129 -167 l83 -116
153 -170 c85 -93 190 -211 233 -262 44 -50 82 -90 85 -87 2 3 -5 15 -16 28
-81 91 -446 511 -476 549 -21 26 -64 82 -96 125 -65 88 -140 172 -141 159z"/>
<path d="M39700 63552 l0 -8 48 -22 48 -22 73 -62 73 -62 67 -81 66 -81 35
-79 c36 -85 170 -319 177 -311 3 3 -25 54 -61 114 -36 60 -81 145 -100 188
-48 112 -55 124 -116 194 -107 124 -219 215 -287 235 l-23 6 0 -9z"/>
<path d="M6995 63298 l-18 -11 -156 5 -156 4 -35 -5 -35 -6 11 -7 11 -7 189
-3 189 -3 23 16 23 17 -14 5 -13 5 -19 -10z"/>
<path d="M41566 63181 l-6 -9 15 -6 15 -5 0 9 c0 5 -4 11 -9 15 l-10 5 -5 -9z"/>
<path d="M41540 63152 c0 -12 19 -26 26 -19 2 2 -2 10 -11 17 l-15 12 0 -10z"/>
<path d="M42766 63000 c-81 -70 -171 -151 -200 -181 l-51 -53 42 35 c132 109
363 313 363 320 0 5 -1 9 -2 8 -2 0 -70 -58 -152 -129z"/>
<path d="M13393 63069 l-63 -8 -17 -11 -18 -11 30 6 c17 3 76 9 133 14 57 5
106 11 109 15 l6 6 -59 -1 c-32 -1 -87 -5 -121 -10z"/>
<path d="M48390 63043 c0 -10 349 -217 356 -211 3 4 -265 169 -348 215 -5 2
-8 1 -8 -4z"/>
<path d="M15077 63023 c-4 -3 -7 -21 -7 -40 l0 -33 10 0 10 0 0 40 c0 41 -2
45 -13 33z"/>
<path d="M35130 62960 l0 -7 103 -12 c56 -7 144 -21 196 -32 52 -11 96 -17 98
-15 9 9 -145 40 -294 59 l-103 13 0 -6z"/>
<path d="M17055 62904 c-159 -12 -294 -23 -299 -23 -5 -1 -7 -3 -4 -6 3 -3
128 4 279 16 151 11 362 24 469 28 l195 8 -175 0 -175 0 -290 -23z"/>
<path d="M58705 62905 c-57 -31 -96 -57 -92 -62 3 -2 29 11 58 29 l54 33 50 0
c28 0 97 -3 155 -7 l105 -6 -45 8 c-25 4 -92 11 -150 14 l-105 7 -30 -16z"/>
<path d="M94170 62862 l0 -9 215 -78 216 -78 6 7 c3 3 4 8 2 10 -6 6 -420 156
-430 156 -5 0 -9 -4 -9 -8z"/>
<path d="M3845 62788 c-23 -27 -75 -126 -75 -143 0 -3 6 -5 14 -5 l14 0 17 43
c9 23 30 59 47 80 l30 39 -9 9 -10 10 -28 -33z"/>
<path d="M12550 62800 l-65 -7 165 5 c91 2 167 6 169 8 7 6 -198 1 -269 -6z"/>
<path d="M42192 62435 c-105 -91 -192 -168 -192 -171 0 -4 8 0 18 7 23 19 353
298 372 315 l14 14 -9 0 c-6 0 -97 -74 -203 -165z"/>
<path d="M38411 62432 c0 -7 -21 -144 -46 -304 -47 -302 -48 -315 -40 -306 3
2 25 137 50 298 l46 294 -4 15 -5 16 -1 -13z"/>
<path d="M89015 62351 c17 -16 97 -86 179 -155 l149 -125 9 5 c5 3 8 7 6 9
-120 105 -352 295 -361 295 l-12 0 30 -29z"/>
<path d="M11903 62321 l-161 -6 -7 -7 -7 -7 193 5 194 6 30 8 30 8 -55 -1
c-30 0 -128 -3 -217 -6z"/>
<path d="M42733 62240 c37 -39 97 -102 133 -141 37 -38 68 -68 70 -66 7 6
-247 277 -259 277 l-10 0 66 -70z"/>
<path d="M44341 62294 c126 -150 342 -394 346 -390 6 5 -335 399 -351 405
l-11 4 16 -19z"/>
<path d="M57549 62044 l-222 -175 -16 4 c-9 3 -141 59 -295 126 -153 67 -281
120 -283 117 -3 -3 10 -11 28 -19 70 -29 554 -240 557 -242 2 -1 -28 -70 -66
-151 -37 -82 -81 -180 -97 -217 l-28 -68 -144 -106 c-79 -59 -141 -108 -138
-111 2 -3 71 45 152 106 l149 111 13 38 c8 21 49 114 92 208 l78 170 10 3 10
3 222 -96 c121 -53 225 -95 230 -93 5 2 -69 37 -164 77 -94 41 -200 88 -235
103 l-63 29 98 78 c54 43 156 124 227 180 70 55 124 101 118 101 -6 0 -111
-79 -233 -176z"/>
<path d="M37015 62053 c6 -5 24 -15 41 -22 l31 -12 392 -58 c215 -31 391 -54
391 -51 0 3 -165 30 -367 59 l-368 53 -50 14 c-27 9 -57 18 -65 21 l-15 6 10
-10z"/>
<path d="M36990 62025 c0 -2 15 -12 33 -21 l32 -17 180 -29 c329 -51 587 -88
614 -87 l26 1 -25 8 c-14 5 -113 20 -220 35 -107 14 -283 40 -390 56 l-194 29
-23 15 c-23 15 -33 18 -33 10z"/>
<path d="M40097 61872 c-23 -22 -70 -55 -105 -76 l-64 -36 -76 -20 c-42 -11
-130 -29 -196 -40 l-119 -20 -91 -1 c-50 0 -113 -4 -141 -9 l-50 -8 160 5 160
5 135 24 c211 38 285 69 394 164 l57 50 -11 0 c-6 0 -29 -17 -53 -38z"/>
<path d="M58451 61848 c-5 -13 -43 -101 -85 -197 -43 -95 -76 -177 -74 -182 2
-5 41 78 87 184 46 105 89 195 95 199 l11 8 102 0 101 0 83 -35 c45 -20 87
-34 92 -32 l10 3 -89 37 -89 37 -118 0 -117 0 -9 -22z"/>
<path d="M61550 61694 c0 -11 88 -422 96 -447 3 -10 8 -17 10 -14 5 5 -92 456
-100 465 l-6 5 0 -9z"/>
<path d="M17910 61525 c-50 -92 -90 -169 -87 -171 2 -3 46 70 96 162 51 91 90
168 87 171 -2 2 -45 -71 -96 -162z"/>
<path d="M60698 61604 l-6 -6 19 -19 20 -20 6 -29 6 -30 8 0 9 0 0 23 0 22
-20 33 c-19 31 -30 38 -42 26z"/>
<path d="M48513 61531 l2 -38 13 4 12 5 0 18 c0 25 -10 50 -21 50 l-9 0 3 -39z"/>
<path d="M59587 61403 c-9 -27 -30 -109 -46 -183 l-29 -135 -6 -85 -5 -85 8
15 c5 8 11 51 14 95 l5 80 36 152 c19 84 40 162 46 173 l11 20 -9 0 -8 0 -17
-47z"/>
<path d="M54550 61372 c0 -17 210 -925 215 -931 3 -2 5 1 5 7 0 20 -208 924
-214 930 l-6 5 0 -11z"/>
<path d="M58710 61251 c0 -3 64 -34 143 -68 78 -34 168 -73 200 -87 l57 -26 0
8 c0 4 -90 46 -200 94 -110 47 -200 83 -200 79z"/>
<path d="M47120 61144 c0 -16 5 -121 11 -234 l12 -205 9 -15 9 -15 -6 65 c-3
36 -10 146 -16 245 -6 99 -13 182 -15 184 -2 2 -4 -9 -4 -25z"/>
<path d="M42661 61061 l-13 -9 3 -11 c2 -6 72 -84 154 -175 l150 -164 14 14
15 14 -20 22 c-11 13 -76 84 -144 158 -68 74 -128 140 -134 147 l-11 12 -14
-8z"/>
<path d="M30534 60790 l-142 -57 -43 -31 c-24 -16 -57 -45 -74 -63 l-30 -33
37 31 c20 17 56 44 80 60 l43 30 145 57 c80 32 147 60 149 62 14 14 -42 -5
-165 -56z"/>
<path d="M60840 60794 c0 -18 80 -377 85 -382 3 -3 5 -1 5 4 0 20 -79 376 -84
382 l-6 5 0 -9z"/>
<path d="M83215 60550 c-82 -48 -153 -94 -158 -102 l-9 -14 29 -47 29 -47 7 6
6 6 -24 37 c-14 19 -25 41 -25 47 l0 12 155 91 c141 83 170 103 148 100 -5 -1
-75 -41 -158 -89z"/>
<path d="M86100 60551 c0 -9 297 -341 306 -341 11 0 -6 21 -151 180 -85 94
-155 166 -155 161z"/>
<path d="M62595 60359 c-77 -16 -164 -34 -193 -40 -30 -6 -51 -13 -49 -16 7
-6 367 66 387 78 l15 8 -10 0 c-5 0 -73 -13 -150 -30z"/>
<path d="M59895 60220 c-147 -125 -192 -168 -152 -144 19 13 327 275 327 280
0 10 -19 -4 -175 -136z"/>
<path d="M62350 60269 c-212 -43 -396 -80 -410 -82 l-25 -3 -1 -10 c-1 -5 0
-13 2 -19 2 -5 33 -154 69 -330 37 -176 71 -341 77 -367 l10 -48 8 0 9 0 -9
28 c-5 15 -41 184 -81 375 l-71 348 5 6 c4 3 189 43 412 88 224 46 409 86 412
89 l6 6 -14 -1 c-8 0 -187 -36 -399 -80z"/>
<path d="M58636 60229 c-59 -14 -57 -20 5 -13 l54 6 116 -238 c64 -132 131
-275 149 -319 18 -44 45 -107 59 -140 15 -33 52 -117 82 -187 30 -70 57 -128
61 -128 7 0 -9 40 -98 244 l-39 89 13 5 c20 6 333 244 328 249 -2 2 -77 -50
-165 -116 -89 -67 -166 -121 -171 -121 -5 0 -11 4 -14 9 l-6 9 28 17 c20 13
272 200 311 232 2 2 2 5 0 7 -2 3 -75 -49 -162 -114 -87 -65 -164 -120 -171
-123 l-12 -5 -69 162 c-37 88 -106 234 -152 324 l-84 162 -12 -1 c-7 -1 -30
-5 -51 -10z"/>
<path d="M46095 59958 l-220 -222 160 151 c198 187 303 293 290 293 -6 0 -109
-100 -230 -222z"/>
<path d="M61215 60079 c-225 -48 -228 -49 -223 -55 5 -4 418 80 443 90 35 15
-66 -1 -220 -35z"/>
<path d="M83370 59965 c0 -14 50 -101 128 -225 47 -74 140 -229 205 -345 152
-267 514 -954 523 -991 4 -16 8 -32 11 -36 l3 -7 28 14 c15 7 118 57 230 111
112 54 199 100 194 102 -5 1 -101 -42 -212 -98 -112 -55 -211 -100 -220 -100
l-16 0 -13 38 c-21 57 -337 658 -489 927 -74 132 -177 306 -229 388 -51 81
-102 165 -113 187 -18 36 -30 49 -30 35z"/>
<path d="M44886 59928 c65 -76 622 -663 720 -759 l119 -116 108 -77 109 -77 6
6 6 6 -10 7 c-6 4 -62 44 -125 89 l-114 81 -170 174 c-94 95 -278 289 -410
431 -131 141 -243 257 -249 257 l-9 0 19 -22z"/>
<path d="M83355 59900 c14 -28 62 -108 107 -178 167 -263 671 -1185 724 -1327
l23 -60 0 16 c2 35 -37 117 -201 429 -211 401 -413 760 -531 945 -49 77 -99
159 -110 183 -12 23 -25 42 -29 42 l-8 0 25 -50z"/>
<path d="M91090 59935 c0 -6 30 -44 67 -85 52 -60 120 -143 220 -269 2 -2 5
-2 7 0 8 7 -171 230 -276 344 l-18 19 0 -9z"/>
<path d="M43542 59888 l-24 -28 10 0 c13 0 45 37 41 48 l-4 9 -23 -29z"/>
<path d="M58810 59913 c0 -6 32 -80 71 -164 39 -85 106 -239 150 -343 78 -185
98 -229 99 -213 0 19 -299 710 -316 726 -2 2 -4 0 -4 -6z"/>
<path d="M86559 59764 c-90 -69 -166 -131 -168 -137 l-4 -12 14 11 c8 6 85 66
172 133 141 110 166 131 153 131 -2 0 -77 -57 -167 -126z"/>
<path d="M43565 59830 l-30 -8 40 -1 40 -1 15 10 15 10 -25 -1 c-14 -1 -38 -5
-55 -9z"/>
<path d="M49290 59706 c0 -7 262 -207 279 -213 l16 -6 -10 10 c-20 19 -274
213 -279 213 -3 0 -6 -2 -6 -4z"/>
<path d="M61505 59678 c12 -53 65 -322 65 -333 l0 -12 -202 -42 -203 -43 -10
-10 -10 -10 20 6 c25 7 399 86 408 86 4 0 7 -6 7 -14 l0 -13 -97 -21 c-54 -11
-149 -31 -210 -43 -62 -13 -113 -27 -113 -30 l0 -7 188 40 c103 21 198 41 212
44 l25 5 71 -355 71 -356 -31 -8 c-17 -5 -109 -29 -203 -53 -95 -24 -173 -47
-173 -51 l0 -6 203 52 c111 29 213 52 227 52 14 -1 27 2 30 6 3 4 93 25 200
48 175 36 229 51 189 50 -8 -1 -97 -18 -199 -40 -102 -21 -187 -37 -189 -34
-3 2 -35 161 -72 352 l-67 347 6 6 c7 6 651 141 1055 221 119 23 217 45 217
49 0 6 -480 -88 -974 -192 l-288 -60 -14 5 -13 5 -6 -9 c-4 -6 -13 -10 -22
-10 l-15 0 5 20 5 19 -7 3 c-4 2 -22 83 -41 181 l-34 177 -8 0 -8 0 5 -22z
m129 -415 c3 -16 33 -171 67 -345 l61 -317 -7 -18 -7 -18 -9 20 c-8 20 -139
670 -139 693 l0 12 14 0 14 0 6 -27z"/>
<path d="M45290 59553 c29 -32 141 -147 249 -256 l196 -198 119 -85 c65 -47
120 -83 123 -81 2 3 -50 44 -116 91 l-120 86 -243 250 c-133 138 -247 250
-252 250 -5 0 15 -26 44 -57z"/>
<path d="M22488 59403 l-94 -98 -32 -68 -32 -67 1 -28 0 -27 13 40 c7 22 24
62 36 89 l24 50 99 103 c55 57 95 103 90 103 -6 0 -53 -44 -105 -97z"/>
<path d="M49429 59275 c-89 -119 -159 -218 -157 -221 6 -5 76 82 228 286 51
69 97 131 103 138 l9 12 -11 0 -11 0 -161 -215z"/>
<path d="M49567 59388 c-134 -174 -265 -353 -261 -357 2 -2 5 -2 7 0 34 43
315 418 321 427 4 6 5 12 2 12 -3 0 -34 -37 -69 -82z"/>
<path d="M44327 59433 l-5 -8 52 -45 51 -45 -44 50 c-25 28 -45 51 -47 53 -1
2 -4 0 -7 -5z"/>
<path d="M46982 59410 l-12 -20 0 -27 0 -27 9 10 c8 9 25 84 19 84 -2 0 -9 -9
-16 -20z"/>
<path d="M92164 59179 l-109 -122 -37 -61 -36 -61 5 -8 5 -9 48 74 47 73 102
112 c55 61 101 114 101 117 0 20 -30 -8 -126 -115z"/>
<path d="M48352 59124 c-68 -85 -126 -162 -129 -172 -5 -13 167 196 260 316
l9 12 -8 -1 c-5 0 -64 -70 -132 -155z"/>
<path d="M59392 59231 c-128 -26 -230 -50 -227 -52 3 -3 111 15 240 40 l235
46 0 8 c0 9 27 13 -248 -42z"/>
<path d="M62120 59013 c0 -5 16 -90 36 -190 l37 -183 10 0 9 0 -5 13 c-2 6
-19 92 -37 190 l-34 177 -8 0 c-4 0 -8 -3 -8 -7z"/>
<path d="M63810 58922 c0 -6 11 -61 24 -124 14 -62 95 -462 180 -888 85 -426
198 -975 251 -1219 l96 -444 -16 -17 c-8 -9 -15 -23 -15 -31 l0 -14 24 30 c13
16 22 33 20 36 -6 11 -202 931 -239 1124 -80 417 -312 1545 -320 1553 -3 3 -5
0 -5 -6z"/>
<path d="M50410 58871 c0 -4 72 -62 160 -129 88 -67 160 -118 160 -114 0 5
-72 63 -160 130 -88 67 -160 118 -160 113z"/>
<path d="M50380 58844 c1 -11 310 -247 317 -241 2 3 -62 55 -144 117 -81 62
-154 117 -160 123 l-13 9 0 -8z"/>
<path d="M62660 58721 c-206 -43 -382 -80 -390 -83 l-15 -6 12 -1 c13 -1 790
157 808 164 43 16 -96 -8 -415 -74z"/>
<path d="M39546 58771 c5 -5 92 -39 194 -76 209 -76 231 -87 289 -150 l42 -46
20 -47 c11 -26 25 -71 31 -99 l11 -53 7 0 8 0 -15 68 -15 67 -26 48 -26 49
-51 46 -51 47 -206 78 c-113 42 -209 77 -213 77 l-9 0 10 -9z"/>
<path d="M17301 58602 l-81 -107 -65 -50 c-61 -47 -76 -65 -56 -65 5 0 39 25
76 56 l68 55 79 104 78 104 -9 5 -9 6 -81 -108z"/>
<path d="M62235 58628 c2 -13 16 -86 31 -163 14 -77 46 -240 70 -363 l44 -223
-5 -9 -5 -9 11 -7 11 -7 7 10 6 10 395 82 c462 96 442 92 436 98 -3 3 -192
-34 -421 -82 -228 -48 -418 -86 -420 -84 -4 5 -66 314 -85 429 -6 36 -22 127
-37 203 l-25 137 -9 0 -9 0 5 -22z"/>
<path d="M61976 58582 c-121 -25 -214 -48 -208 -50 15 -5 435 79 447 89 l9 9
-14 -1 c-8 -1 -114 -22 -234 -47z"/>
<path d="M63940 58475 c0 -11 360 -1756 366 -1774 2 -8 6 -12 9 -10 3 4 -271
1347 -346 1689 -18 83 -29 120 -29 95z"/>
<path d="M59985 58363 c6 -6 88 -39 183 -74 l174 -64 13 -32 13 -31 32 -7 32
-7 24 23 24 22 0 17 0 17 188 38 c103 20 194 42 202 47 l15 9 -25 -5 c-14 -2
-106 -21 -205 -41 l-179 -38 -4 12 c-2 6 -7 11 -12 11 l-9 0 5 -32 4 -32 -16
-17 -16 -18 -16 6 c-10 3 -25 13 -34 21 l-18 15 10 12 10 12 -7 6 c-3 4 -14 7
-23 7 -9 0 -88 27 -176 59 -87 33 -168 63 -179 67 l-20 7 10 -10z"/>
<path d="M56286 58057 c-42 -179 -47 -190 -79 -212 l-23 -14 -454 -56 c-398
-49 -509 -65 -447 -65 10 0 221 25 470 55 l452 56 26 27 26 27 17 75 c9 41 28
119 40 173 13 53 21 97 17 97 -3 0 -23 -73 -45 -163z"/>
<path d="M37942 57953 c2 -231 6 -204 10 75 l3 152 -7 0 -8 0 2 -227z"/>
<path d="M37982 57973 c2 -209 6 -185 10 70 l3 137 -7 0 -8 0 2 -207z"/>
<path d="M83430 58089 c-14 -6 -77 -23 -140 -38 -109 -26 -167 -47 -157 -57 2
-2 19 2 38 10 19 7 77 24 129 36 52 13 113 31 135 41 42 19 38 25 -5 8z"/>
<path d="M62603 57881 l-211 -46 -9 -9 -8 -9 15 5 c8 2 111 25 228 49 l212 44
0 7 c0 10 23 14 -227 -41z"/>
<path d="M55476 57784 c-104 -13 -194 -25 -200 -28 l-11 -4 20 -1 c34 -1 416
47 422 53 l6 6 -24 -1 c-13 -1 -109 -12 -213 -25z"/>
<path d="M51247 57794 c-4 -4 -7 -15 -7 -25 l0 -19 27 -17 27 -18 155 -32 c86
-17 158 -30 160 -27 12 12 -25 23 -154 48 l-140 28 -23 14 c-13 9 -26 24 -30
35 l-8 20 -7 -7z"/>
<path d="M37970 57742 c0 -4 13 -13 30 -19 l30 -11 5 8 6 9 -20 10 c-23 13
-51 14 -51 3z"/>
<path d="M53890 57747 c0 -5 32 -77 71 -160 40 -84 83 -176 96 -205 14 -29 27
-51 30 -49 2 3 -31 81 -75 173 -87 186 -121 253 -122 241z"/>
<path d="M22325 57610 l4 -105 20 -58 c22 -62 80 -171 88 -164 2 3 -12 33 -31
68 l-35 64 -17 64 c-9 35 -20 103 -24 150 l-9 86 4 -105z"/>
<path d="M46614 57586 c9 -26 278 -386 288 -386 6 0 -267 377 -290 400 -3 3
-2 -4 2 -14z"/>
<path d="M76165 57419 l-140 -9 -65 -14 -65 -14 20 -1 c11 0 61 6 110 14 l90
15 98 0 97 0 0 10 c0 6 -1 9 -2 8 -2 0 -66 -5 -143 -9z"/>
<path d="M52526 57322 c5 -5 86 -36 179 -70 l170 -61 269 -130 270 -130 8 5
c5 4 8 7 6 9 -2 2 -127 63 -278 135 l-275 132 -163 59 c-90 32 -171 59 -180
59 l-16 0 10 -8z"/>
<path d="M54084 57238 c124 -271 161 -348 167 -348 10 0 -184 419 -193 420 -4
0 7 -33 26 -72z"/>
<path d="M38054 57230 l3 -65 -24 -95 c-14 -52 -35 -125 -49 -162 l-24 -68 9
0 8 0 31 93 c16 50 37 122 47 159 l18 66 -11 69 -11 68 3 -65z"/>
<path d="M53032 57251 c4 -13 429 -223 436 -216 3 3 3 7 1 8 -12 10 -361 186
-397 200 l-44 18 4 -10z"/>
<path d="M90791 56949 c-17 -56 -147 -355 -173 -397 l-20 -33 7 -7 7 -7 21 30
c23 31 137 284 168 374 21 59 24 81 11 81 l-9 0 -12 -41z"/>
<path d="M47204 56791 c3 -5 114 -105 246 -222 l241 -214 67 -43 c37 -24 102
-62 145 -83 l79 -40 -7 11 c-3 6 -34 24 -67 41 -34 17 -97 54 -142 83 l-81 53
-238 211 c-221 196 -258 227 -243 203z"/>
<path d="M79450 56580 l-45 -30 -80 -27 c-44 -15 -114 -33 -155 -40 l-75 -12
70 3 70 3 96 33 96 33 39 33 c49 41 43 43 -16 4z"/>
<path d="M79482 56554 l-32 -26 -83 -34 -82 -35 35 7 35 6 67 35 c36 19 74 43
84 54 24 26 15 24 -24 -7z"/>
<path d="M26470 56436 c0 -9 330 -178 340 -174 l9 3 -168 88 c-161 83 -181 92
-181 83z"/>
<path d="M79050 56421 l0 -9 20 5 c11 3 20 7 20 9 0 2 -9 4 -20 4 l-20 0 0 -9z"/>
<path d="M17300 56403 c0 -4 37 -99 82 -210 l82 -203 9 9 8 8 -76 189 c-42
104 -79 195 -82 202 -6 13 -23 17 -23 5z"/>
<path d="M61771 56371 c-1 -8 15 -103 35 -210 l36 -196 13 -30 c7 -16 19 -59
25 -95 7 -36 17 -69 22 -75 l8 -9 -6 34 c-4 19 -15 67 -26 105 -11 39 -37 159
-58 268 -21 109 -41 203 -44 210 l-4 12 -1 -14z"/>
<path d="M32964 56219 c-16 -17 -67 -63 -114 -103 l-85 -72 -92 -47 c-80 -41
-118 -67 -99 -67 3 0 57 27 120 61 l114 61 98 93 99 93 -6 6 -5 6 -30 -31z"/>
<path d="M37210 56115 c-45 -10 -284 -99 -299 -112 -2 -1 -2 -5 0 -8 3 -2 57
16 120 41 63 25 145 53 184 63 l69 17 -9 6 -10 5 -55 -12z"/>
<path d="M84973 55771 c28 -116 54 -211 58 -211 l7 0 -51 203 c-27 111 -53
206 -57 210 -4 5 16 -87 43 -202z"/>
<path d="M25510 55923 c0 -10 360 -236 367 -230 3 4 -262 176 -354 231 l-13 7
0 -8z"/>
<path d="M63017 55900 c4 -17 23 -29 23 -16 0 12 -13 36 -20 36 l-8 0 5 -20z"/>
<path d="M37699 55713 l-24 -198 -44 -24 -45 -25 -170 13 c-94 7 -184 15 -201
18 l-30 6 10 -10 10 -10 188 -16 188 -16 43 20 c24 10 48 24 54 31 l10 13 24
198 24 197 -6 0 -7 0 -24 -197z"/>
<path d="M25495 55882 c17 -17 360 -231 364 -226 2 2 2 6 0 8 -14 12 -345 219
-358 223 l-16 6 10 -11z"/>
<path d="M85390 55655 c-25 -12 -109 -42 -187 -66 -79 -24 -143 -46 -143 -50
0 -4 73 16 163 44 l162 51 40 23 40 23 -15 -1 c-8 -1 -35 -12 -60 -24z"/>
<path d="M25991 55656 c2 -2 94 -69 205 -149 226 -163 324 -227 347 -227 l15
0 21 -27 20 -28 1 16 0 16 -18 16 c-10 10 -26 17 -34 17 l-15 0 -74 48 c-41
27 -159 110 -263 185 -104 75 -193 137 -199 137 -6 0 -8 -2 -6 -4z"/>
<path d="M25957 55613 l-8 -23 16 -27 17 -28 245 -168 c134 -93 246 -167 249
-165 2 3 -103 78 -233 168 -131 90 -246 173 -255 184 l-17 21 -3 30 -3 30 -8
-22z"/>
<path d="M60763 55553 c15 -2 37 -2 50 0 l22 4 -50 0 -50 0 28 -4z"/>
<path d="M60578 55543 l13 -5 6 6 6 6 -19 -1 -19 -1 13 -5z"/>
<path d="M51107 55276 l-117 -13 -8 -8 -7 -8 55 8 c30 4 134 11 230 15 l175 7
-61 1 c-34 1 -81 4 -105 6 l-44 4 -118 -12z"/>
<path d="M48270 55224 c0 -6 23 -52 50 -102 28 -50 50 -93 50 -96 0 -6 290
-609 296 -615 2 -2 7 -2 10 1 l5 6 -179 363 c-178 362 -232 464 -232 443z"/>
<path d="M25660 55216 c0 -4 229 -172 259 -191 l14 -8 -7 11 c-7 11 -252 192
-261 192 -3 0 -5 -2 -5 -4z"/>
<path d="M12590 55135 l-135 -65 -85 -11 c-46 -5 -87 -12 -89 -15 -8 -7 62 -4
127 6 l64 11 136 69 c76 38 133 69 127 69 -5 0 -71 -29 -145 -64z"/>
<path d="M48685 55075 c-126 -63 -234 -116 -240 -118 -5 -2 -8 -6 -5 -9 3 -3
118 50 255 118 138 67 243 123 235 122 -8 0 -118 -51 -245 -113z"/>
<path d="M55312 55121 c2 -5 63 -61 137 -125 l134 -115 25 -35 c14 -20 29 -36
34 -36 13 0 10 8 -16 46 l-23 35 -139 119 c-77 66 -143 120 -147 120 l-9 0 4
-9z"/>
<path d="M36874 55064 l-51 -24 -74 -9 c-41 -6 -110 -11 -154 -12 l-80 -2 -22
7 -23 7 0 -9 c0 -24 93 -28 255 -13 l90 9 63 27 62 28 0 8 c0 13 -8 10 -66
-17z"/>
<path d="M50983 55003 c2 -44 10 -55 21 -27 l6 15 -14 27 -14 27 1 -42z"/>
<path d="M53280 54941 c0 -6 5 -22 12 -36 l11 -25 -125 -187 c-68 -104 -133
-200 -142 -215 l-18 -28 9 0 10 0 143 215 143 214 -13 31 c-7 17 -17 33 -21
36 l-9 5 0 -10z"/>
<path d="M14006 54732 l-45 -90 -94 -138 c-51 -77 -97 -145 -102 -153 l-8 -14
10 6 c19 12 191 273 243 370 l52 98 -5 6 -6 5 -45 -90z"/>
<path d="M46877 54670 l-34 -30 -22 -51 -22 -50 10 -27 9 -27 1 38 1 38 16 32
c9 18 32 49 52 70 43 44 36 49 -11 7z"/>
<path d="M18248 54621 l-187 -27 -8 -8 -8 -8 35 6 c19 3 118 17 220 31 101 14
186 28 189 30 8 9 -54 3 -241 -24z"/>
<path d="M50304 54583 c-35 -38 -64 -72 -64 -78 0 -5 17 8 37 30 21 22 55 57
76 78 l40 37 -13 0 -13 0 -63 -67z"/>
<path d="M51863 54378 c-76 -101 -143 -189 -148 -197 l-8 -14 11 4 c13 5 292
368 292 380 0 5 -2 9 -4 9 -2 0 -66 -82 -143 -182z"/>
<path d="M53642 54274 c-56 -85 -99 -154 -95 -154 4 1 42 51 83 112 41 62 90
131 107 155 l33 43 -13 -1 -12 0 -103 -155z"/>
<path d="M88035 54386 l-20 -15 10 -2 c6 0 25 0 43 1 l33 2 25 -17 26 -17 6 6
6 7 -20 19 -19 19 -35 6 -35 6 -20 -15z"/>
<path d="M48172 54160 c-79 -43 -149 -83 -155 -90 -11 -12 108 48 251 127 57
32 73 44 55 42 -5 0 -73 -36 -151 -79z"/>
<path d="M62131 54170 c-1 -8 40 -221 91 -472 l93 -458 8 0 8 0 -5 18 c-3 9
-46 217 -96 462 -50 245 -92 450 -94 455 l-4 10 -1 -15z"/>
<path d="M51196 54111 l-17 -19 9 -6 9 -6 17 19 17 19 -9 6 -9 6 -17 -19z"/>
<path d="M52580 53952 c-41 -64 -108 -161 -147 -214 -40 -54 -69 -98 -65 -98
11 0 148 187 226 309 57 91 73 121 64 121 -2 0 -37 -53 -78 -118z"/>
<path d="M21210 53980 c0 -3 57 -17 128 -30 l127 -24 88 -37 87 -38 0 8 c0 4
-35 22 -77 40 l-78 33 -137 27 -138 28 0 -7z"/>
<path d="M21201 53936 c2 -2 60 -14 129 -26 l125 -22 50 -20 c70 -26 148 -68
163 -86 l12 -16 -1 -55 c0 -31 -6 -109 -12 -173 l-12 -118 7 0 8 0 1 23 c0 12
6 83 13 157 l12 135 -6 29 -6 30 -54 33 c-30 18 -82 41 -115 53 -83 28 -330
72 -314 56z"/>
<path d="M32595 53775 c-88 -74 -161 -139 -164 -146 -2 -7 66 46 150 116 181
151 184 153 178 159 -2 2 -76 -56 -164 -129z"/>
<path d="M50740 53901 c0 -5 7 -12 16 -15 l17 -6 -13 15 c-14 17 -20 19 -20 6z"/>
<path d="M49315 53749 c-132 -65 -235 -118 -229 -118 10 -1 463 215 473 225
20 20 -37 -5 -244 -107z"/>
<path d="M50820 53835 c7 -8 17 -15 22 -15 l10 0 -12 15 c-7 8 -17 15 -22 15
l-10 0 12 -15z"/>
<path d="M61245 53719 c-10 -46 -85 -454 -85 -468 0 -8 2 -12 5 -9 7 7 95 491
90 496 -2 2 -7 -6 -10 -19z"/>
<path d="M77468 53633 l-188 -74 0 -8 0 -8 195 76 c107 42 195 79 195 84 0 11
-3 10 -202 -70z"/>
<path d="M30203 53485 c0 -60 3 -175 7 -255 l6 -145 1 205 1 205 -8 50 -7 50
0 -110z"/>
<path d="M52703 53457 c-112 -61 -201 -112 -198 -115 4 -4 372 191 403 214
l17 13 -10 0 c-5 -1 -101 -51 -212 -112z"/>
<path d="M21980 53510 c-144 -44 -293 -100 -286 -107 3 -3 45 10 93 30 48 19
140 49 203 67 63 18 122 36 130 41 l15 8 -15 0 c-8 -1 -71 -18 -140 -39z"/>
<path d="M52415 53480 l-6 -10 10 0 c5 0 13 5 16 10 l6 10 -10 0 c-5 0 -13 -4
-16 -10z"/>
<path d="M51970 53430 l-15 -10 18 0 17 0 0 10 c0 12 -1 12 -20 0z"/>
<path d="M46130 53347 c9 -7 53 -40 98 -75 l81 -62 29 -43 c16 -23 46 -73 67
-112 45 -82 44 -80 50 -73 7 6 -92 186 -119 217 -26 29 -200 161 -212 161 l-9
-1 15 -12z"/>
<path d="M31971 53313 l-105 -14 -35 -21 c-36 -21 -53 -38 -92 -90 l-20 -28 9
0 c5 0 20 16 33 35 l24 36 46 29 46 28 99 12 99 12 10 9 9 9 -9 -1 c-6 -1 -57
-8 -114 -16z"/>
<path d="M28705 53215 c-104 -35 -290 -96 -413 -136 -122 -39 -221 -74 -218
-76 3 -3 155 43 338 102 469 150 518 166 518 171 0 11 -50 -3 -225 -61z"/>
<path d="M50230 53168 l-204 -100 -4 10 -3 10 -22 -6 c-22 -5 -37 -19 -37 -35
l0 -8 16 15 c36 37 57 17 109 -98 21 -47 42 -86 46 -86 l8 0 -45 96 c-25 53
-43 98 -41 100 2 2 95 48 208 103 112 55 197 100 189 99 -8 0 -107 -45 -220
-100z"/>
<path d="M64578 53231 c-109 -21 -201 -41 -205 -46 l-8 -8 25 6 c14 3 106 20
205 38 l180 32 10 8 9 9 -9 -1 c-6 -1 -99 -18 -207 -38z"/>
<path d="M61192 53255 c6 -6 371 -45 377 -40 8 8 -25 13 -189 29 -178 18 -196
19 -188 11z"/>
<path d="M52270 53203 c0 -16 113 -263 152 -331 52 -91 40 -51 -20 68 -32 63
-74 151 -95 195 -20 44 -36 75 -37 68z"/>
<path d="M34780 53190 l0 -13 7 6 6 7 -6 7 -7 6 0 -13z"/>
<path d="M51370 53098 c0 -4 13 -22 28 -40 l29 -33 18 -52 19 -53 9 0 9 0 -6
13 c-2 6 -10 29 -17 50 l-13 39 -37 41 c-21 23 -38 39 -39 35z"/>
<path d="M30252 53001 l-2 -94 -53 -66 c-67 -83 -77 -100 -86 -162 l-8 -49 8
0 9 0 0 33 0 32 28 47 c15 26 46 72 70 102 l43 54 -4 98 -3 99 -2 -94z"/>
<path d="M66080 52995 c-58 -12 -154 -33 -215 -46 l-110 -23 15 -3 c16 -4 440
84 448 92 10 9 -33 3 -138 -20z"/>
<path d="M34273 52997 l-43 -10 -4 -16 c-15 -50 -96 -353 -96 -359 1 -24 24
44 60 183 24 88 47 165 52 170 5 6 32 17 61 27 l52 16 -20 0 c-11 0 -39 -5
-62 -11z"/>
<path d="M51020 52981 c-8 -4 -82 -43 -163 -85 -82 -43 -146 -80 -144 -82 4
-4 324 159 336 171 7 8 -13 5 -29 -4z"/>
<path d="M77735 52775 l-190 -73 5 -9 c6 -10 -5 -14 213 68 l187 72 0 8 c0 16
-21 9 -215 -66z"/>
<path d="M52746 52774 l-20 -14 10 0 c13 0 39 18 34 24 -3 2 -14 -2 -24 -10z"/>
<path d="M26817 52733 l-6 -6 33 -41 c19 -22 65 -92 104 -154 l70 -112 13 -73
13 -72 0 -197 0 -198 7 0 7 0 4 118 4 117 -7 106 c-5 58 -15 132 -22 165 l-14
59 -68 105 c-37 58 -82 124 -100 147 l-32 42 -6 -6z"/>
<path d="M27711 52498 c-7 -134 -16 -308 -21 -388 -5 -80 -9 -174 -9 -210 l0
-65 8 15 9 15 7 185 c3 102 8 210 10 240 2 30 6 132 10 225 3 94 8 182 11 198
l6 27 -9 0 -10 0 -12 -242z"/>
<path d="M27756 52578 c-3 -90 -9 -192 -12 -228 l-6 -65 8 8 9 9 11 211 10
212 -7 8 -6 8 -7 -163z"/>
<path d="M51260 52731 c0 -6 4 -13 10 -16 l10 -6 -6 15 c-7 18 -14 21 -14 7z"/>
<path d="M30051 52541 l-12 -89 12 -161 12 -161 6 0 7 0 -12 164 -13 163 13
87 13 86 -7 0 -7 0 -12 -89z"/>
<path d="M85592 52468 c-95 -72 -171 -132 -169 -135 3 -2 78 51 168 118 90 67
170 124 177 126 13 5 17 24 5 22 -5 0 -86 -59 -181 -131z"/>
<path d="M22550 52405 c-5 -13 -23 -57 -40 -97 l-31 -72 -38 -153 -39 -153 8
-5 8 -5 37 148 36 147 44 100 43 100 11 -2 11 -3 0 10 0 10 -20 0 -20 0 -10
-25z"/>
<path d="M30928 52341 c-57 -48 -117 -95 -134 -104 l-31 -16 -76 -7 -77 -7 0
-6 0 -7 87 8 88 9 25 16 c29 19 230 192 230 199 0 10 -14 -1 -112 -85z"/>
<path d="M27002 52263 l9 -68 -5 -160 -5 -160 8 30 9 30 1 136 c0 75 -2 164
-5 198 l-7 61 -7 0 -6 0 8 -67z"/>
<path d="M52930 52307 c0 -16 49 -103 70 -122 l22 -20 59 -117 c33 -65 61
-118 64 -118 3 0 -22 55 -56 123 l-61 122 -28 30 c-15 17 -37 48 -48 70 -12
22 -21 36 -22 32z"/>
<path d="M89100 51948 c0 -7 110 -323 129 -370 6 -16 13 -28 16 -28 2 0 -9 37
-26 83 -17 45 -47 132 -66 192 -29 93 -53 147 -53 123z"/>
<path d="M13296 51922 l-5 -8 176 -123 175 -123 10 10 9 9 -174 121 c-96 67
-177 122 -180 122 -3 0 -8 -4 -11 -8z"/>
<path d="M3016 51600 c-109 -38 -201 -72 -204 -75 l-5 -5 17 0 c21 0 408 130
421 142 l9 8 -19 -1 c-11 0 -109 -31 -219 -69z"/>
<path d="M3470 51663 c-25 -1 -80 -10 -122 -19 l-78 -17 0 -9 c0 -12 18 -10
74 7 l49 15 159 7 158 6 0 9 0 8 -97 -2 c-54 -1 -118 -3 -143 -5z"/>
<path d="M40940 51512 c0 -5 21 -18 48 -30 l47 -22 96 -20 97 -19 93 -5 94 -5
-75 10 c-41 5 -130 21 -198 34 l-122 25 -40 20 -40 20 0 -8z"/>
<path d="M2680 51465 c-97 -14 -290 -62 -304 -76 l-10 -9 14 0 c7 0 63 13 124
29 l111 29 103 13 102 12 0 9 0 8 -27 -1 c-16 -1 -66 -7 -113 -14z"/>
<path d="M33444 51265 c3 -16 15 -115 27 -220 l22 -190 10 -10 10 -10 -6 25
c-3 14 -15 113 -28 220 l-22 195 -10 10 -9 10 6 -30z"/>
<path d="M33485 51255 c3 -22 17 -123 30 -223 13 -101 27 -187 31 -190 l7 -7
-6 40 c-3 22 -16 121 -28 220 l-22 180 -9 10 -9 10 6 -40z"/>
<path d="M42330 51087 c0 -2 22 -18 50 -36 l49 -32 46 -52 46 -52 63 -120 64
-120 20 -67 21 -66 -14 -84 c-7 -45 -32 -156 -54 -245 -23 -89 -41 -171 -41
-182 l0 -20 10 -6 9 -6 0 33 -1 33 40 160 41 160 11 85 11 85 -23 70 -23 70
-62 115 -62 115 -50 56 -51 57 -44 26 c-42 25 -56 30 -56 23z"/>
<path d="M89410 51082 c0 -7 21 -64 47 -125 25 -62 61 -161 79 -222 l33 -110
1 22 c0 12 -15 68 -34 125 -40 119 -125 329 -126 310z"/>
<path d="M28453 51024 l-22 -5 6 -15 5 -14 14 0 14 0 6 -25 6 -25 9 5 8 6 -6
30 -6 30 59 -6 c33 -3 147 -10 254 -14 l195 -9 9 8 8 8 -63 6 c-35 3 -131 8
-214 11 -82 3 -175 8 -205 10 -30 2 -65 1 -77 -1z"/>
<path d="M28364 50976 c-3 -8 -4 -29 -2 -47 l3 -32 14 -5 13 -4 -8 23 c-9 29
-9 39 1 62 l7 17 -11 0 c-7 0 -14 -6 -17 -14z"/>
<path d="M28465 50900 l-6 -10 -20 0 -19 0 0 -10 0 -10 16 0 c21 0 54 18 54
30 0 13 -17 13 -25 0z"/>
<path d="M32445 50755 c10 -53 65 -410 65 -419 l0 -9 6 5 5 6 -32 214 -32 213
-9 10 -8 9 5 -29z"/>
<path d="M44992 50457 c-117 -61 -209 -113 -205 -114 5 -2 107 49 228 112 121
63 213 115 205 114 -8 0 -111 -50 -228 -112z"/>
<path d="M31478 50513 l-118 -4 0 -10 0 -11 23 5 c12 3 88 7 169 9 l147 3 6
-6 c3 -4 12 -116 20 -249 8 -133 17 -245 20 -248 7 -8 6 34 -9 279 l-13 216
-7 11 -7 12 -57 -2 c-31 -1 -110 -4 -174 -5z"/>
<path d="M31493 50471 l-121 -6 -7 -7 -7 -6 155 5 156 6 5 -34 c3 -19 7 -50
10 -69 l3 -35 -1 75 -1 75 -35 1 c-19 0 -90 -2 -157 -5z"/>
<path d="M48645 50348 l-70 -50 -75 -35 c-41 -19 -90 -41 -108 -49 l-33 -14 5
-9 6 -10 93 41 92 40 87 57 88 56 0 13 c0 19 -9 14 -85 -40z"/>
<path d="M33610 50388 c0 -10 50 -331 56 -361 3 -16 8 -27 10 -24 6 5 -53 377
-60 385 l-6 5 0 -5z"/>
<path d="M34260 50276 c0 -2 9 -23 19 -47 10 -24 22 -65 26 -91 l6 -48 10 0 9
0 0 13 c-1 50 -45 177 -62 177 -4 0 -8 -2 -8 -4z"/>
<path d="M30527 50140 c3 -74 7 -137 9 -139 8 -8 2 185 -6 229 l-9 45 6 -135z"/>
<path d="M36630 50047 c-211 -18 -240 -22 -229 -30 5 -5 452 34 458 39 11 10
-19 9 -229 -9z"/>
<path d="M90773 48027 c-17 -17 -41 -50 -54 -73 -37 -62 -141 -191 -281 -351
-71 -79 -128 -148 -128 -154 0 -11 209 221 307 342 34 42 81 105 104 140 23
35 53 76 67 91 14 15 23 30 21 33 -3 2 -19 -10 -36 -28z"/>
<path d="M90812 48013 c-22 -27 -56 -75 -77 -108 -21 -33 -54 -79 -73 -102
l-34 -43 9 0 c10 0 97 114 134 175 13 22 41 59 63 83 l39 42 -11 0 c-5 0 -28
-21 -50 -47z"/>
<path d="M84020 48025 c1 -6 53 -80 117 -165 63 -85 113 -147 110 -138 -6 16
-185 267 -214 298 l-13 14 0 -9z"/>
<path d="M74831 47608 c0 -7 4 -22 9 -33 l9 -20 0 27 1 27 -10 6 -10 6 1 -13z"/>
<path d="M57097 47083 l-4 -8 93 -192 93 -193 10 0 10 0 -96 198 c-107 220
-99 206 -106 195z"/>
<path d="M18653 46630 c51 -104 95 -189 100 -190 4 0 -36 86 -88 190 -52 105
-97 190 -99 190 -3 0 37 -85 87 -190z"/>
<path d="M29588 46811 l-106 -6 -8 -7 -7 -8 114 6 c63 4 155 10 204 14 l90 7
-90 0 c-49 0 -138 -3 -197 -6z"/>
<path d="M29486 46650 c4 -69 10 -165 14 -215 l8 -90 -5 200 -5 200 -9 15 -8
15 5 -125z"/>
<path d="M93610 46111 c0 -12 246 -352 254 -351 3 0 7 2 9 5 3 6 -240 342
-253 350 l-10 6 0 -10z"/>
<path d="M93020 46076 l-25 -23 -62 -22 -61 -23 -64 -2 c-34 -2 -93 -3 -130
-4 l-68 -2 0 -11 0 -10 18 5 c9 3 69 6 132 8 l115 2 67 25 66 26 22 28 c26 33
23 35 -10 3z"/>
<path d="M93042 46050 l-22 -29 -82 -31 -82 -32 -28 6 -28 5 -95 -6 -95 -6 0
-10 0 -9 16 6 c9 4 69 7 133 7 l116 0 70 26 70 26 30 28 30 28 25 -14 25 -14
35 -1 35 0 53 -25 54 -25 54 0 54 0 71 36 c93 47 83 55 -12 9 l-73 -35 -41 0
-40 0 -47 25 -47 25 -38 0 -39 0 -39 20 c-22 11 -39 20 -40 19 0 0 -10 -13
-23 -29z"/>
<path d="M81370 45886 c-4 -13 -14 -43 -20 -67 -6 -24 -20 -68 -32 -97 l-21
-53 -29 -6 -29 -6 8 -21 c8 -24 8 -41 -2 -76 l-6 -25 15 25 15 25 -5 32 -6 32
25 6 26 7 15 38 c19 48 65 210 60 210 -3 0 -9 -11 -14 -24z"/>
<path d="M15435 45425 c3 -44 8 -131 11 -193 l7 -113 10 -6 9 -6 -5 19 c-3 11
-9 82 -12 159 -4 77 -11 158 -16 180 l-8 40 4 -80z"/>
<path d="M45918 45410 l-87 -88 28 14 27 14 67 69 c37 38 67 72 67 75 0 15
-21 -2 -102 -84z"/>
<path d="M30773 45320 c0 -63 3 -162 7 -220 l7 -105 0 115 c0 63 -3 162 -7
220 l-7 105 0 -115z"/>
<path d="M35158 45069 c-101 -89 -185 -163 -187 -165 -2 -2 0 -4 6 -4 6 0 94
74 197 165 103 91 182 165 177 165 -5 0 -92 -73 -193 -161z"/>
<path d="M26556 44381 c15 -16 396 -192 407 -188 9 3 -394 197 -409 197 l-8 0
10 -9z"/>
<path d="M87768 44285 c-4 -11 -22 -58 -42 -105 l-36 -85 18 -15 c19 -16 176
-255 292 -445 86 -141 79 -129 84 -124 9 8 -339 559 -360 572 -20 12 -18 25
22 116 l35 82 -4 12 -3 11 -6 -19z"/>
<path d="M87775 44194 l-37 -86 20 -22 c11 -11 43 -57 71 -101 28 -44 51 -75
51 -68 0 12 -88 153 -115 183 l-13 15 38 83 39 82 -8 0 c-5 0 -25 -39 -46 -86z"/>
<path d="M52650 44187 l0 -14 38 -24 37 -24 20 -42 20 -42 13 -1 14 0 -8 32
-7 33 -25 32 c-13 18 -26 33 -27 33 -1 0 -19 7 -39 15 l-36 15 0 -13z"/>
<path d="M52535 44020 l-6 -9 97 -206 c54 -113 100 -205 103 -205 3 0 12 4 19
8 l12 8 -97 207 -98 207 -12 0 c-6 0 -15 -4 -18 -10z"/>
<path d="M54230 43773 c0 -15 350 -817 362 -828 l11 -10 -6 15 c-13 36 -359
825 -363 829 -2 2 -4 0 -4 -6z"/>
<path d="M42024 42955 l-19 -14 11 -1 c5 0 19 7 30 15 l19 14 -11 1 c-5 0 -19
-7 -30 -15z"/>
<path d="M51341 42933 c-1 -11 115 -738 125 -782 3 -13 7 -21 10 -19 2 3 -23
173 -56 379 -54 337 -76 456 -79 422z"/>
<path d="M52196 42789 c41 -83 77 -149 80 -146 7 6 -139 297 -148 297 -5 0 26
-68 68 -151z"/>
<path d="M42040 42920 c-24 -15 -7 -19 20 -5 l25 14 -15 0 c-8 1 -22 -3 -30
-9z"/>
<path d="M50361 42791 l-194 -26 -5 -14 -4 -13 18 5 c11 3 117 18 237 33 l217
28 0 8 0 8 -37 -1 c-21 -1 -125 -13 -232 -28z"/>
<path d="M46736 42690 c-104 -55 -194 -104 -200 -111 -6 -6 48 20 119 57 221
116 290 154 280 154 -5 -1 -95 -45 -199 -100z"/>
<path d="M55940 42660 c0 -5 4 -10 9 -10 5 0 102 -14 216 -30 189 -27 228 -30
213 -15 -4 4 -405 65 -429 65 -5 0 -9 -4 -9 -10z"/>
<path d="M55942 42608 l5 -13 207 -28 208 -28 6 5 c3 4 3 8 1 10 -2 3 -90 16
-194 30 -105 15 -201 29 -213 32 l-24 5 4 -13z"/>
<path d="M51445 42555 c3 -16 16 -113 30 -215 14 -102 27 -189 29 -195 10 -25
4 54 -15 200 l-22 159 -13 41 -14 40 5 -30z"/>
<path d="M30157 42042 l-8 -12 7 -73 c4 -39 10 -81 14 -92 17 -45 402 -484
433 -494 12 -4 -5 16 -133 154 -90 96 -261 301 -281 335 l-14 25 -5 85 -5 85
-8 -13z"/>
<path d="M31042 41812 l-169 -237 -54 -50 c-30 -28 -89 -77 -131 -109 -69 -52
-92 -76 -72 -76 11 0 210 159 245 197 20 21 111 142 202 270 l166 232 -8 6 -9
5 -170 -238z"/>
<path d="M30115 41964 l4 -81 13 -29 c18 -42 209 -270 333 -399 59 -60 103
-103 99 -95 -4 8 -56 67 -115 130 -134 144 -274 313 -300 362 l-19 37 -1 53
c-1 29 -5 64 -10 78 l-9 25 5 -81z"/>
<path d="M31124 41833 c-70 -98 -131 -183 -136 -190 l-9 -11 9 -6 8 -5 135
187 c74 102 136 190 137 194 l4 8 -10 0 -10 0 -128 -177z"/>
<path d="M57629 41370 c-26 -22 -59 -44 -74 -50 l-26 -10 -397 -2 -397 -1 385
-8 385 -8 35 9 36 10 54 46 c30 25 57 48 59 50 2 2 0 4 -5 4 -5 0 -30 -18 -55
-40z"/>
<path d="M29421 41033 c1 -14 112 -99 188 -144 l75 -44 68 -3 68 -4 0 9 0 10
-66 6 -66 6 -64 36 c-35 20 -91 58 -125 85 -60 48 -80 59 -78 43z"/>
<path d="M29386 40991 l-6 -9 98 -70 c54 -38 120 -81 147 -94 l50 -25 48 -7
48 -7 29 6 c17 4 30 10 30 13 l0 7 -75 2 -76 2 -57 32 c-31 18 -91 58 -132 89
-41 31 -80 59 -87 63 l-12 7 -5 -9z"/>
<path d="M56708 40883 c250 -2 655 -2 900 0 246 1 42 2 -453 2 l-900 0 453 -2z"/>
<path d="M84815 39969 c5 -8 41 -61 81 -119 40 -58 119 -184 176 -280 146
-247 540 -871 545 -866 3 3 -89 155 -204 338 -115 183 -255 410 -310 503 -100
170 -264 418 -285 431 l-11 7 8 -14z"/>
<path d="M84780 39956 c0 -4 39 -65 87 -134 47 -70 165 -257 261 -417 191
-317 180 -300 186 -294 11 10 -472 784 -525 844 l-9 9 0 -8z"/>
<path d="M45410 39655 c0 -11 5 -27 10 -35 l10 -15 0 20 c0 11 -5 27 -10 35
l-10 15 0 -20z"/>
<path d="M52106 39399 c-3 -8 -19 -93 -37 -189 l-33 -175 -7 -3 -8 -3 6 -15 5
-14 9 5 8 6 192 -36 c105 -20 198 -35 207 -33 8 2 -76 20 -188 41 -112 21
-206 40 -209 43 -3 2 11 89 31 192 20 103 34 189 32 191 -2 2 -6 -2 -8 -10z"/>
<path d="M51565 39083 l10 -10 200 -42 c110 -23 209 -44 220 -47 l20 -4 -20
10 c-11 5 -105 28 -210 50 -104 22 -199 43 -210 46 l-20 6 10 -9z"/>
<path d="M52891 38816 c7 -7 432 -87 437 -82 6 6 -9 10 -228 51 -179 34 -218
40 -209 31z"/>
<path d="M85850 38246 c0 -7 450 -729 493 -789 31 -46 31 -23 -1 24 -16 24
-129 204 -252 399 -122 195 -226 359 -231 365 l-9 9 0 -8z"/>
<path d="M85090 38145 c0 -12 252 -407 256 -402 4 4 -229 382 -247 402 l-9 9
0 -9z"/>
<path d="M60017 38073 l-5 -8 125 -115 c69 -63 140 -128 159 -143 73 -61 28
-13 -120 127 l-154 147 -5 -8z"/>
<path d="M86156 37280 l-229 -151 6 -6 6 -6 206 134 c113 74 218 144 233 156
l27 22 -11 1 c-5 0 -113 -68 -238 -150z"/>
<path d="M86125 37204 c-159 -107 -294 -196 -300 -198 l-10 -3 6 -6 5 -6 295
196 c326 217 304 202 298 207 -2 2 -134 -84 -294 -190z"/>
<path d="M39837 35703 c6 -173 15 -324 20 -320 2 3 1 98 -3 211 l-7 206 -6 0
-7 0 3 -97z"/>
<path d="M60947 35664 l-6 -6 157 -102 c164 -106 257 -153 222 -111 -7 8 -18
15 -25 15 -7 0 -85 47 -175 105 -89 58 -163 105 -164 105 -2 0 -5 -3 -9 -6z"/>
<path d="M84910 35603 c-23 -9 -853 -544 -870 -560 l-15 -15 22 11 c12 6 91
55 175 109 84 55 273 176 420 270 l267 172 24 0 23 0 16 -12 c9 -7 36 -50 61
-94 24 -45 71 -117 104 -160 l60 -79 153 -255 c163 -272 247 -400 261 -400 15
0 11 9 -30 63 -37 50 -79 117 -296 470 -55 90 -123 194 -151 232 -28 39 -70
105 -93 147 l-42 78 -22 15 c-22 15 -41 18 -67 8z"/>
<path d="M41305 35455 c4 -11 24 -65 44 -120 21 -55 62 -172 91 -260 l53 -160
4 11 c5 15 -150 461 -177 510 -11 21 -18 30 -15 19z"/>
<path d="M85150 35375 c0 -3 24 -38 54 -78 29 -40 133 -202 231 -362 98 -159
185 -298 193 -308 24 -27 26 -12 4 20 -12 15 -98 154 -192 308 -183 297 -290
453 -290 420z"/>
<path d="M41608 34705 c42 -124 80 -225 84 -225 4 0 -28 101 -70 225 -42 124
-80 225 -84 225 -4 0 28 -101 70 -225z"/>
<path d="M85640 34549 l0 -10 10 6 c6 3 10 8 10 11 0 2 -4 4 -10 4 -5 0 -10
-5 -10 -11z"/>
<path d="M80557 34342 c32 -60 65 -119 75 -133 l16 -24 104 54 c106 55 125 67
117 75 -2 2 -48 -20 -102 -50 -53 -30 -103 -54 -110 -54 l-12 0 -65 120 c-35
66 -68 120 -73 120 l-8 0 58 -108z"/>
<path d="M55842 34325 c-112 -18 -206 -36 -209 -39 l-6 -6 10 0 c16 0 457 70
468 74 31 13 -85 0 -263 -29z"/>
<path d="M77315 34253 l-150 -74 -68 -2 -67 -2 0 -9 0 -9 75 6 75 7 142 71
c151 75 154 77 147 83 -2 2 -72 -30 -154 -71z"/>
<path d="M55858 34286 c-115 -18 -211 -36 -215 -39 l-6 -7 6 0 c21 0 472 71
476 75 9 10 -59 2 -261 -29z"/>
<path d="M59866 34143 c8 -21 47 -114 85 -208 39 -93 75 -174 81 -180 l11 -10
-7 20 c-4 11 -43 109 -88 218 l-81 197 -9 0 -8 0 16 -37z"/>
<path d="M54208 34051 l-417 -56 -8 -9 -8 -8 30 6 c17 3 206 28 420 56 215 27
404 54 420 59 l30 9 -25 0 c-14 0 -213 -26 -442 -57z"/>
<path d="M84805 33835 c-170 -105 -225 -145 -202 -145 10 0 403 245 406 253 1
5 1 10 -1 12 -1 2 -93 -52 -203 -120z"/>
<path d="M98877 31796 l6 -59 -16 6 -16 6 -30 -12 -31 -11 -10 -31 -10 -30 22
28 23 28 37 8 36 9 5 -17 c2 -9 66 -107 142 -216 155 -225 144 -210 149 -204
2 2 -61 98 -140 213 l-144 208 -6 37 c-3 20 -10 50 -15 66 l-8 30 6 -59z"/>
<path d="M94299 29322 c-26 -20 -114 -84 -198 -142 -83 -58 -338 -239 -566
-404 l-415 -298 0 -10 0 -10 13 9 c24 19 831 599 992 713 176 126 245 179 230
179 -5 0 -31 -16 -56 -37z"/>
<path d="M15320 27747 l0 -14 235 -33 235 -33 7 6 6 7 -5 6 c-4 3 -98 19 -210
35 -111 15 -218 31 -235 34 l-33 6 0 -14z"/>
<path d="M11155 26909 c-3 -13 -46 -215 -95 -449 -49 -234 -92 -434 -94 -444
l-5 -19 8 9 c10 11 202 916 196 922 -2 2 -7 -6 -10 -19z"/>
<path d="M95310 26779 c-96 -71 -177 -134 -179 -140 -3 -9 325 226 359 257
l14 14 -9 -1 c-6 0 -89 -58 -185 -130z"/>
<path d="M4391 25958 c0 -18 10 -122 23 -230 20 -177 28 -221 39 -207 2 2 -8
109 -22 237 l-25 232 -8 0 -8 0 1 -32z"/>
<path d="M10856 25499 c-13 -35 -96 -454 -94 -467 2 -8 26 95 54 229 29 134
50 246 48 248 -2 2 -6 -2 -8 -10z"/>
<path d="M87770 25295 c0 -3 27 -46 60 -96 l61 -90 36 -90 36 -90 11 4 c15 6
13 12 -34 111 -57 123 -170 289 -170 251z"/>
<path d="M17678 21422 l-208 -26 0 -8 0 -8 23 0 c12 0 112 11 222 25 110 14
204 25 208 25 l8 0 -6 10 -6 10 -17 -1 c-9 -1 -110 -13 -224 -27z"/>
<path d="M87391 20152 c6 -17 310 -322 322 -322 5 0 7 3 5 8 -6 15 -330 327
-327 314z"/>
<path d="M95310 18097 c201 -185 311 -282 540 -474 151 -127 338 -287 414
-357 77 -69 144 -126 150 -126 l10 0 -9 8 c-6 5 -82 74 -170 153 -88 80 -284
249 -435 376 -151 127 -324 276 -385 332 -60 55 -114 101 -120 101 l-9 0 14
-13z"/>
<path d="M93325 16635 c112 -107 265 -238 271 -232 3 3 -64 65 -148 139 -177
154 -223 189 -123 93z"/>
<path d="M92371 16559 c-89 -67 -160 -124 -157 -126 2 -2 78 50 168 118 188
140 174 129 161 129 -5 0 -82 -55 -172 -121z"/>
<path d="M92177 16433 l-6 -10 96 -104 c53 -57 123 -132 156 -166 l59 -63 9 6
9 5 -147 157 c-80 86 -152 163 -159 170 l-12 14 -5 -9z"/>
<path d="M92140 16394 c0 -6 16 -26 36 -45 l37 -34 -11 20 c-6 11 -22 31 -36
44 l-26 24 0 -9z"/>
<path d="M96670 12031 c0 -5 74 -73 165 -151 l166 -141 11 3 11 4 -164 140
c-90 77 -170 143 -176 148 l-13 7 0 -10z"/>
<path d="M26680 4011 l0 -11 18 0 c9 0 100 -9 202 -20 102 -11 197 -20 213
-20 l27 0 0 8 0 8 -177 17 c-98 10 -202 21 -230 24 l-53 6 0 -12z"/>
<path d="M26570 3972 l0 -10 48 -6 c26 -3 231 -25 456 -47 l409 -40 10 10 11
11 -18 0 c-21 0 -796 77 -868 86 l-48 6 0 -10z"/>
<path d="M22984 2232 c7 -11 313 -252 320 -252 21 0 -12 31 -149 138 -85 67
-160 122 -166 122 l-10 0 5 -8z"/>
<path d="M10830 1651 l0 -9 28 -6 c15 -3 116 -10 225 -17 l197 -12 7 6 c3 4 4
9 2 12 -5 5 -377 35 -431 35 l-28 0 0 -9z"/>
</g>
</svg>
