<?xml version="1.0" standalone="no"?>
<!DOCTYPE svg PUBLIC "-//W3C//DTD SVG 20010904//EN"
 "http://www.w3.org/TR/2001/REC-SVG-20010904/DTD/svg10.dtd">
<svg version="1.0" xmlns="http://www.w3.org/2000/svg"
 width="7500.000000pt" height="7500.000000pt" viewBox="0 0 7500.000000 7500.000000"
 preserveAspectRatio="xMidYMid meet">
<metadata>
Created by potrace 1.16, written by Peter Selinger 2001-2019
</metadata>
<g transform="translate(0.000000,7500.000000) scale(0.075000,-0.075000)"
fill="#000000" stroke="none">
<path d="M82886 99271 c5 -5 115 -67 244 -139 129 -71 277 -155 329 -186 83
-51 118 -68 219 -107 l22 -9 0 8 c0 4 -28 18 -62 31 -35 14 -92 42 -128 64
-82 51 -619 347 -627 347 -4 0 -3 -4 3 -9z"/>
<path d="M14096 96968 c-3 -68 -5 -162 -5 -210 l0 -88 10 0 9 0 0 113 c0 61 3
156 7 210 l6 97 -10 0 -11 0 -6 -122z"/>
<path d="M12726 96962 l-5 -8 197 -87 197 -86 130 -40 c104 -32 332 -91 351
-91 2 0 4 6 4 13 l0 14 -107 23 c-60 12 -166 41 -238 62 l-130 40 -193 84
c-106 46 -194 84 -197 84 -2 0 -6 -4 -9 -8z"/>
<path d="M98216 94743 l-149 -154 10 -10 10 -10 148 156 148 156 -9 8 -9 9
-149 -155z"/>
<path d="M87451 93000 l-393 -400 -11 0 c-6 0 -60 32 -119 71 -60 40 -111 70
-114 67 -2 -3 50 -41 117 -84 l123 -78 403 409 403 410 79 -81 80 -80 14 8 c8
4 27 8 43 10 l29 2 38 -13 c21 -7 41 -11 44 -8 2 3 -20 13 -50 23 l-54 17 -30
-11 -30 -10 -74 74 -73 74 -16 0 -16 0 -393 -400z"/>
<path d="M87837 93332 c-10 -10 -17 -22 -17 -27 l0 -8 20 18 21 19 73 -73 74
-73 36 13 36 13 43 -11 c49 -14 62 -9 21 8 l-29 12 -37 0 -38 0 -13 -11 -13
-11 -74 74 c-41 41 -77 75 -81 75 -3 0 -13 -8 -22 -18z"/>
<path d="M88636 93061 c14 -13 436 -162 442 -156 3 3 3 7 1 8 -7 6 -434 157
-444 157 l-9 0 10 -9z"/>
<path d="M56760 92993 c0 -4 48 -35 107 -68 59 -33 138 -78 177 -99 38 -22 66
-35 63 -29 -4 6 -69 46 -144 89 -76 43 -153 86 -170 97 l-33 19 0 -9z"/>
<path d="M24146 92221 l-6 -10 52 -15 c29 -8 128 -37 221 -64 l167 -49 0 12 0
12 -202 58 c-112 32 -208 60 -214 62 l-12 4 -6 -10z"/>
<path d="M56117 92052 c-54 -97 -149 -274 -212 -392 l-114 -215 10 -9 9 -10 9
10 c5 5 62 110 126 234 65 124 158 296 206 382 49 86 89 162 89 168 l0 10 -12
0 -13 0 -98 -178z"/>
<path d="M95030 90644 c62 -69 61 -68 228 -140 l122 -52 0 7 c0 4 -37 22 -82
41 -46 18 -110 47 -142 63 l-60 29 -60 57 -61 56 55 -61z"/>
<path d="M84357 89972 l-27 -57 -41 -154 -41 -153 9 -9 9 -9 44 162 c24 90 49
175 57 190 7 16 18 39 23 53 l9 24 -8 5 -8 5 -26 -57z"/>
<path d="M33630 89710 l-45 -19 26 0 c15 -1 41 5 58 12 l31 13 -7 7 c-9 9 -11
9 -63 -13z"/>
<path d="M33720 89617 l0 -14 103 -62 102 -62 190 -155 c105 -85 220 -185 256
-221 l67 -65 12 7 12 7 -59 60 c-32 32 -146 131 -254 219 l-196 160 -84 51
c-46 27 -99 59 -116 70 l-33 20 0 -15z"/>
<path d="M11530 89042 l0 -8 133 -42 c137 -44 252 -72 300 -72 l27 0 0 10 0
10 -23 0 c-32 0 -248 54 -336 84 -78 27 -101 31 -101 18z"/>
<path d="M85235 88954 c-298 -56 -358 -68 -345 -71 8 -1 109 14 224 35 l210
38 -10 6 -9 5 -70 -13z"/>
<path d="M34790 88719 l-15 -9 164 -160 165 -160 8 8 8 8 -120 120 c-66 65
-127 122 -135 127 -8 4 -25 23 -38 42 l-23 34 -14 -10z"/>
<path d="M84997 88358 c-170 -329 -288 -568 -279 -568 4 0 94 173 200 385 105
212 190 385 188 385 -3 0 -52 -91 -109 -202z"/>
<path d="M75345 88059 l-130 -70 -17 -21 -18 -20 0 -30 0 -29 10 6 c6 3 10 15
10 25 l0 18 30 25 c16 14 82 53 145 87 l115 61 -5 10 c-8 11 9 19 -140 -62z"/>
<path d="M84277 86933 c-20 -48 -41 -94 -46 -101 l-8 -13 -74 21 c-75 20 -96
24 -87 15 7 -7 144 -45 161 -45 l14 0 42 96 c23 52 41 100 39 105 l-3 10 -38
-88z"/>
<path d="M84310 86903 c-24 -54 -50 -105 -57 -113 l-13 -15 -91 24 c-50 12
-93 21 -95 18 -4 -4 86 -30 177 -52 l26 -6 53 116 c28 64 50 118 48 121 -3 2
-24 -40 -48 -93z"/>
<path d="M80435 85749 c-2 -8 -36 -105 -75 -216 l-69 -203 7 0 c9 0 154 422
147 428 -2 3 -7 -1 -10 -9z"/>
<path d="M28770 85150 l0 -10 41 0 40 0 122 -31 c67 -17 148 -34 180 -38 l57
-7 0 8 0 8 -31 0 c-16 0 -92 15 -167 34 -75 19 -161 37 -189 40 l-53 7 0 -11z"/>
<path d="M88295 84962 l10 -10 220 -62 c121 -34 226 -63 233 -65 l12 -4 0 8 0
8 -227 63 c-126 35 -235 65 -243 68 l-15 5 10 -11z"/>
<path d="M80041 84728 c-34 -101 -61 -190 -61 -199 l0 -17 18 -7 c9 -4 116
-42 237 -85 121 -43 229 -82 240 -86 l20 -7 -10 11 c-5 5 -116 47 -245 93
-129 45 -239 86 -244 90 l-8 7 62 187 c34 102 60 189 57 191 -3 3 -32 -77 -66
-178z"/>
<path d="M85743 84782 l-23 -3 0 -15 0 -15 19 6 19 6 68 -11 c55 -9 255 -58
347 -86 l17 -5 0 13 0 14 -157 42 c-165 43 -253 60 -290 54z"/>
<path d="M86653 84573 l7 -6 7 6 6 7 -13 0 -13 0 6 -7z"/>
<path d="M80080 84522 c0 -9 419 -156 426 -150 2 3 -51 24 -118 48 -68 24
-165 58 -215 76 l-93 33 0 -7z"/>
<path d="M86616 84329 l-28 -200 6 -6 6 -6 0 9 c0 5 13 96 29 202 l28 193 -7
4 -6 4 -28 -200z"/>
<path d="M86657 84335 c-28 -195 -31 -222 -22 -213 8 8 57 357 53 381 l-3 22
-28 -190z"/>
<path d="M64311 84464 c-65 -36 -321 -224 -321 -235 0 -5 2 -9 5 -9 2 0 63 43
135 96 72 52 156 110 186 129 l56 33 -9 5 -9 6 -43 -25z"/>
<path d="M27478 83804 c-26 -13 -124 -49 -218 -79 l-170 -56 0 -9 c0 -6 3 -10
6 -10 22 0 313 99 376 128 l77 35 -5 8 c-7 13 -13 11 -66 -17z"/>
<path d="M77204 83668 c-27 -40 -57 -85 -67 -100 l-19 -28 9 0 c4 0 35 41 67
91 33 50 65 93 71 95 l11 4 319 -110 c302 -104 346 -117 333 -105 -9 9 -641
225 -659 225 l-16 0 -49 -72z"/>
<path d="M77490 83622 c0 -9 419 -157 425 -150 3 3 -63 29 -147 58 -84 29
-181 63 -215 76 l-63 23 0 -7z"/>
<path d="M47096 83459 l-26 -20 0 -34 0 -34 16 -15 c17 -17 27 -20 37 -9 l7 6
-20 14 -20 14 0 24 0 24 25 19 c14 11 25 23 25 26 0 12 -18 6 -44 -15z"/>
<path d="M47174 83369 l-4 -7 13 -5 c6 -2 108 -19 224 -37 l213 -34 6 7 c4 4
5 9 3 11 -2 2 -104 19 -227 38 l-223 34 -5 -7z"/>
<path d="M57076 82802 l-5 -8 164 -164 165 -164 10 10 11 11 -161 159 c-89 87
-165 160 -170 162 -4 2 -11 -1 -14 -6z"/>
<path d="M56905 82603 l-121 -126 -42 10 -43 11 4 -11 4 -12 43 -9 44 -10 123
129 c114 120 135 146 116 144 -5 0 -62 -57 -128 -126z"/>
<path d="M92370 82172 l0 -11 22 -7 c12 -3 79 -46 148 -93 69 -48 146 -102
172 -119 l47 -32 6 9 5 10 -174 120 -174 120 -26 7 -26 6 0 -10z"/>
<path d="M95385 80328 c-61 -83 -112 -156 -114 -162 l-3 -11 15 15 c27 27 227
310 219 310 -4 0 -57 -68 -117 -152z"/>
<path d="M94910 80331 c0 -6 154 -120 342 -255 l341 -245 9 5 c5 3 8 7 6 9
-17 14 -691 495 -694 495 -2 0 -4 -4 -4 -9z"/>
<path d="M42355 79550 l-30 -8 33 -1 32 -1 0 10 c0 6 -1 9 -2 9 -2 -1 -16 -5
-33 -9z"/>
<path d="M96340 79363 c0 -13 242 -184 307 -217 58 -29 63 -30 63 -16 l0 10
-51 25 c-28 14 -104 64 -169 111 -66 46 -126 87 -135 90 l-15 6 0 -9z"/>
<path d="M13206 78723 c-3 -21 -8 -63 -12 -93 -13 -113 -46 -248 -179 -719
-74 -266 -134 -486 -131 -488 2 -2 9 11 15 29 31 99 272 974 285 1033 18 85
39 265 33 272 -3 2 -8 -13 -11 -34z"/>
<path d="M98470 78659 c-63 -94 -135 -228 -127 -235 2 -3 21 28 42 68 21 40
64 113 97 161 33 49 58 91 55 93 -3 3 -33 -36 -67 -87z"/>
<path d="M13151 78248 c-31 -99 -111 -404 -109 -416 l3 -14 62 228 c35 125 61
229 59 231 -2 3 -9 -11 -15 -29z"/>
<path d="M74550 76631 c0 -5 5 -13 10 -16 l10 -6 0 10 c0 5 -4 13 -10 16 l-10
6 0 -10z"/>
<path d="M30230 76450 l0 -10 50 0 50 0 0 10 0 10 -50 0 -50 0 0 -10z"/>
<path d="M16400 76436 l0 -13 202 -92 201 -92 10 10 11 11 -55 24 c-30 13
-123 56 -208 95 -85 39 -156 71 -158 71 -2 0 -3 -6 -3 -14z"/>
<path d="M74690 76372 l0 -9 118 -63 c64 -34 154 -85 199 -112 l81 -50 13 4
12 4 -44 26 c-50 29 -86 49 -181 101 -38 20 -97 53 -133 72 l-65 36 0 -9z"/>
<path d="M34167 73964 l-7 -8 122 -125 123 -126 40 -22 c43 -24 55 -27 55 -15
0 4 -17 16 -37 27 l-38 20 -125 128 -125 129 -8 -8z"/>
<path d="M74590 69738 l58 -113 23 -102 23 -103 9 0 8 0 -5 18 c-3 9 -15 60
-27 112 l-22 95 -19 40 c-35 71 -92 165 -100 165 -4 0 19 -51 52 -112z"/>
<path d="M24695 69391 c-6 -5 -35 -19 -65 -31 l-55 -21 -145 -10 c-144 -11
-159 -13 -147 -25 l6 -6 144 10 144 11 56 21 c31 12 66 30 79 40 l23 19 -15 1
c-9 0 -20 -4 -25 -9z"/>
<path d="M36220 69123 l0 -9 200 -28 c109 -15 210 -30 222 -33 l23 -6 -10 10
-10 10 -195 27 c-107 15 -203 30 -212 32 l-18 5 0 -8z"/>
<path d="M19925 69023 c-115 -24 -212 -46 -214 -49 -2 -2 -2 -7 1 -10 l6 -6
216 46 c118 25 218 46 221 46 3 0 5 5 5 10 l0 10 -12 -1 c-7 0 -107 -21 -223
-46z"/>
<path d="M70827 68435 c-115 -29 -211 -56 -215 -60 l-7 -7 20 5 c11 4 112 29
225 57 188 47 236 61 199 59 -8 0 -108 -25 -222 -54z"/>
<path d="M87007 67643 c-92 -80 -166 -148 -163 -150 3 -3 74 54 158 128 193
167 183 158 177 163 -2 3 -80 -61 -172 -141z"/>
<path d="M46687 67448 c-81 -17 -145 -33 -143 -36 3 -3 80 10 170 28 l165 32
24 -6 24 -6 157 -111 c86 -61 159 -109 162 -107 4 4 -107 85 -274 201 l-55 37
-41 -1 c-22 -1 -107 -15 -189 -31z"/>
<path d="M30355 67373 c24 -23 830 -241 895 -242 l15 0 -15 8 c-8 5 -40 12
-70 15 l-55 7 -370 105 c-203 58 -379 107 -390 110 l-20 6 10 -9z"/>
<path d="M3700 67328 l0 -13 148 -87 c81 -49 166 -99 190 -114 l42 -25 0 10 0
11 -57 35 c-32 20 -115 72 -186 116 -70 43 -130 79 -132 79 -3 0 -5 -6 -5 -12z"/>
<path d="M94344 67035 c2 -16 19 -122 36 -235 l33 -205 9 -10 10 -10 -5 20
c-3 11 -20 110 -37 220 -17 110 -35 211 -41 225 l-9 25 4 -30z"/>
<path d="M94304 67025 c3 -16 19 -113 36 -215 34 -206 39 -234 45 -228 6 6
-71 457 -80 466 l-7 7 6 -30z"/>
<path d="M39020 66948 c-41 -4 -507 -31 -1035 -58 -971 -50 -1129 -60 -1109
-67 12 -4 2058 103 2164 113 36 4 72 10 80 15 l15 8 -20 -1 c-11 0 -54 -5 -95
-10z"/>
<path d="M33635 66801 c11 -4 67 -13 125 -20 58 -7 120 -17 137 -22 l33 -10
20 -26 20 -26 -22 -38 c-12 -22 -25 -39 -30 -39 l-7 0 6 -15 5 -16 6 6 5 5 21
-14 c12 -7 108 -41 214 -75 106 -34 200 -65 210 -68 l17 -6 -10 11 c-5 5 -103
40 -216 76 l-207 66 -11 14 -12 15 23 40 23 41 -11 17 c-6 9 -22 26 -37 37
l-26 19 -133 18 c-73 10 -140 18 -148 18 l-15 0 20 -8z"/>
<path d="M35825 66524 c-204 -46 -198 -44 -193 -50 5 -4 379 75 387 82 11 11
-58 -1 -194 -32z"/>
<path d="M49440 66403 c-113 -199 -261 -447 -276 -459 l-13 -10 167 -118 c92
-65 173 -121 182 -124 l15 -5 -10 10 c-5 6 -79 58 -162 117 -84 59 -155 111
-158 116 l-5 9 86 143 c117 193 256 440 250 445 -2 2 -37 -53 -76 -124z"/>
<path d="M47490 66267 c-57 -94 -110 -182 -118 -194 l-14 -23 8 0 c11 1 239
378 232 385 -2 3 -51 -73 -108 -168z"/>
<path d="M45167 66254 c-59 -97 -106 -178 -104 -181 5 -5 11 4 130 200 53 86
93 157 89 157 -4 0 -56 -79 -115 -176z"/>
<path d="M97702 66296 c-117 -29 -215 -56 -219 -59 l-6 -7 6 -6 6 -7 188 47
c103 26 205 51 226 57 l37 10 0 9 0 10 -12 -1 c-7 0 -109 -24 -226 -53z"/>
<path d="M41590 66266 c0 -3 153 -105 308 -204 12 -8 22 -11 22 -8 0 7 -315
216 -325 216 -3 0 -5 -2 -5 -4z"/>
<path d="M45736 66261 c11 -11 434 -191 448 -191 l10 0 -9 8 c-11 10 -440 192
-452 192 l-7 0 10 -9z"/>
<path d="M41912 66018 c-14 -14 -16 -28 -3 -28 9 0 24 30 18 36 -2 2 -9 -2
-15 -8z"/>
<path d="M42940 65831 c0 -6 147 -107 313 -215 l27 -18 0 10 0 9 -170 111
c-93 61 -170 108 -170 103z"/>
<path d="M64070 65740 c-69 -4 -162 -12 -207 -19 l-83 -13 0 -7 c0 -16 13 -17
101 -5 51 7 154 16 230 20 l137 7 -5 13 -5 14 -22 -2 c-11 -1 -77 -4 -146 -8z"/>
<path d="M34282 65735 c10 -11 143 -45 272 -70 72 -14 141 -28 154 -31 l22 -4
0 8 0 9 -127 23 c-71 13 -166 34 -213 46 -83 23 -119 29 -108 19z"/>
<path d="M83701 65663 c3 -27 12 -64 19 -83 l13 -35 48 -60 c26 -33 57 -82 70
-108 13 -26 27 -47 31 -47 l8 0 -26 53 c-15 28 -47 78 -72 110 l-45 59 -18 49
-19 49 0 30 0 30 -8 0 -8 0 7 -47z"/>
<path d="M3277 65378 l-127 -151 -99 -67 -99 -67 -58 -24 -59 -24 26 -3 25 -3
47 20 c25 11 87 47 136 80 l90 61 129 152 c128 150 142 170 125 175 l-8 3
-128 -152z"/>
<path d="M3430 65460 c-11 -22 -26 -67 -34 -100 l-14 -60 7 -53 7 -53 22 -36
c27 -43 98 -110 142 -133 l31 -16 17 3 17 4 -46 27 -47 28 -45 48 c-25 26 -53
63 -62 81 l-18 34 6 66 6 67 25 63 c30 73 29 70 16 70 l-10 0 -20 -40z"/>
<path d="M2813 65033 l7 -6 7 6 6 7 -13 0 -13 0 6 -7z"/>
<path d="M3350 64796 c0 -3 43 -28 95 -56 52 -28 135 -78 184 -110 l90 -59 11
-21 c6 -12 14 -19 17 -17 2 3 0 15 -6 26 l-12 21 -72 48 c-71 48 -288 172
-300 172 -4 0 -7 -2 -7 -4z"/>
<path d="M40690 64523 c0 -5 20 -68 44 -139 24 -71 47 -148 51 -172 l7 -42 8
5 8 5 -9 42 c-12 57 -90 290 -100 303 l-9 9 0 -11z"/>
<path d="M59840 64335 l-12 -15 10 0 c5 0 12 7 16 15 3 8 4 15 2 15 -2 0 -9
-7 -16 -15z"/>
<path d="M50620 64192 c0 -4 99 -50 220 -101 l220 -94 6 6 6 6 -33 14 c-53 22
-350 148 -386 163 l-33 14 0 -8z"/>
<path d="M40822 64185 c4 -5 411 -55 442 -55 l9 0 -5 6 c-5 5 -400 54 -437 54
-8 0 -12 -2 -9 -5z"/>
<path d="M88720 64049 c89 -169 235 -397 247 -385 2 2 -16 32 -41 66 -26 34
-80 123 -122 196 -42 74 -81 137 -86 140 l-10 6 12 -23z"/>
<path d="M46000 63878 c-52 -90 -105 -183 -119 -207 l-25 -44 11 6 c6 4 24 31
41 60 16 28 68 118 115 200 47 81 83 147 79 147 -4 0 -50 -73 -102 -162z"/>
<path d="M59590 63783 l-45 -85 -45 -21 c-25 -11 -81 -35 -125 -53 l-80 -34
20 0 20 0 108 47 107 47 45 84 c25 47 44 89 43 93 -2 5 -23 -31 -48 -78z"/>
<path d="M43129 63312 c-35 -32 -158 -138 -274 -237 -115 -98 -240 -207 -277
-242 -36 -34 -68 -63 -71 -63 -3 0 -60 63 -127 140 -68 77 -125 138 -128 136
-4 -4 89 -114 222 -264 l20 -22 -65 -67 -64 -66 30 21 c17 11 46 36 64 56 l35
36 13 0 13 0 0 13 0 12 34 30 c19 17 144 124 277 239 246 211 383 336 369 336
-4 0 -36 -26 -71 -58z"/>
<path d="M16357 63315 l-17 -36 0 -39 0 -38 26 -31 26 -31 15 0 15 0 -31 35
-31 36 0 30 0 30 20 39 20 40 -13 0 -13 0 -17 -35z"/>
<path d="M40931 63171 l-13 -9 3 -10 c4 -10 512 -588 774 -880 l137 -153 11 4
c6 2 12 8 14 14 l4 10 -143 161 c-79 88 -282 320 -453 515 -170 196 -312 356
-315 356 -3 0 -11 -3 -19 -8z"/>
<path d="M51270 63102 l0 -9 158 -66 c86 -36 166 -69 177 -73 l20 -7 -10 11
c-5 5 -82 40 -170 77 -88 37 -163 69 -167 72 l-8 4 0 -9z"/>
<path d="M98640 63087 c0 -2 12 -31 26 -63 l26 -59 9 -98 c10 -100 32 -223 43
-234 14 -14 14 6 0 67 -8 36 -18 111 -24 167 l-9 102 -25 57 -24 58 -11 4 c-6
2 -11 2 -11 -1z"/>
<path d="M84640 63026 c0 -13 231 -405 242 -412 l10 -6 -12 23 c-18 33 -210
360 -227 384 -7 11 -13 15 -13 11z"/>
<path d="M58658 62923 c-37 -21 -68 -42 -68 -46 l0 -8 76 42 76 42 107 -7 c58
-4 126 -9 151 -12 l45 -5 -15 10 -16 10 -144 6 -145 6 -67 -38z"/>
<path d="M17863 62940 l-162 -6 -8 -8 -8 -8 185 7 185 7 10 9 9 9 -24 -2 c-14
-1 -98 -4 -187 -8z"/>
<path d="M58705 62905 c-57 -31 -96 -57 -92 -62 3 -2 29 11 58 29 l54 33 50 0
c28 0 97 -3 155 -7 l105 -6 -45 8 c-25 4 -92 11 -150 14 l-105 7 -30 -16z"/>
<path d="M16920 62895 c-85 -7 -168 -14 -185 -15 l-30 -2 13 -5 12 -5 233 17
c227 16 304 26 176 24 -35 -1 -134 -8 -219 -14z"/>
<path d="M94556 62662 c-8 -15 -35 -92 -61 -170 l-47 -144 6 -6 c10 -9 14 0
69 159 30 85 57 162 61 172 l8 17 -11 0 -10 0 -15 -28z"/>
<path d="M58010 62412 c-118 -95 -217 -179 -219 -185 -2 -6 18 7 45 28 27 22
127 102 222 179 l172 138 172 -72 c95 -40 189 -80 208 -87 l35 -15 -10 11 c-9
9 -85 43 -320 140 l-90 37 -215 -174z"/>
<path d="M3820 62341 l0 -18 63 -60 c34 -34 102 -97 152 -141 l89 -81 10 6 9
6 -64 60 c-35 33 -108 102 -161 153 l-98 93 0 -18z"/>
<path d="M41936 62266 l-36 -33 0 -19 1 -19 11 20 c6 11 24 35 41 53 40 42 28
41 -17 -2z"/>
<path d="M57320 61861 l0 -8 240 -103 c132 -57 242 -101 244 -99 4 3 -94 48
-431 196 l-53 23 0 -9z"/>
<path d="M85393 61763 c2 -5 60 -102 129 -218 69 -115 197 -331 286 -480 l160
-270 77 -108 c42 -60 79 -106 81 -104 3 3 -28 51 -68 108 l-74 104 -265 445
c-147 245 -277 464 -290 487 -13 24 -28 43 -32 43 -5 0 -6 -3 -4 -7z"/>
<path d="M59637 61423 c-3 -10 -15 -50 -26 -89 -12 -39 -32 -126 -46 -194
l-25 -123 1 -51 2 -51 9 60 c20 134 50 285 74 368 14 49 24 91 21 93 -3 3 -8
-3 -10 -13z"/>
<path d="M63378 60958 l44 -213 11 -10 10 -10 -5 15 c-3 8 -25 108 -48 223
-24 114 -47 207 -50 207 -3 0 14 -96 38 -212z"/>
<path d="M61241 61143 c-1 -17 109 -516 114 -522 3 -2 5 1 5 7 0 22 -100 488
-109 507 l-10 20 0 -12z"/>
<path d="M46345 60828 c-33 -39 -111 -122 -172 -184 -62 -63 -113 -117 -113
-120 0 -3 26 18 59 48 60 54 301 313 301 322 0 17 -21 -2 -75 -66z"/>
<path d="M58120 60875 c0 -15 224 -395 233 -395 l9 0 -20 33 c-11 17 -59 100
-107 182 -97 165 -115 194 -115 180z"/>
<path d="M63446 60820 c4 -25 11 -54 15 -65 l9 -20 -6 50 c-3 28 -10 57 -15
65 l-10 15 7 -45z"/>
<path d="M60720 60761 l-95 -26 -97 -55 c-54 -30 -98 -58 -98 -62 0 -4 46 19
103 51 l102 57 90 23 c50 13 94 27 100 32 l9 9 -9 -1 c-6 -1 -53 -13 -105 -28z"/>
<path d="M44180 60705 c0 -6 212 -240 471 -520 492 -533 559 -604 559 -593 0
6 -841 922 -1011 1103 l-19 19 0 -9z"/>
<path d="M60315 60605 l-79 -44 -268 -227 c-148 -125 -266 -229 -263 -232 3
-3 18 6 33 20 15 13 131 113 259 222 l232 196 88 51 c94 55 101 59 87 59 -5 0
-45 -20 -89 -45z"/>
<path d="M58616 60531 l-220 -58 -3 -10 -4 -11 178 44 c98 25 202 51 231 60
l52 15 0 9 c0 13 19 17 -234 -49z"/>
<path d="M58365 60288 l35 -73 29 -32 28 -33 34 0 c19 1 63 7 99 15 36 8 68
14 72 15 5 0 37 -59 74 -131 36 -72 67 -129 70 -126 3 2 -25 65 -62 140 l-67
134 -86 -18 c-47 -11 -93 -19 -104 -19 l-18 0 -34 37 -34 37 -26 63 -27 63 -9
0 -8 0 34 -72z"/>
<path d="M62155 60229 c-99 -21 -196 -40 -215 -42 l-35 -4 4 -9 c2 -5 5 -13 7
-19 3 -11 74 -345 74 -351 0 -2 4 -4 9 -4 l10 0 -9 28 c-5 15 -23 96 -41 181
l-31 153 10 7 c6 4 101 24 212 46 l200 39 0 8 c0 10 16 13 -195 -33z"/>
<path d="M58636 60229 c-60 -14 -57 -20 5 -13 l54 6 128 -259 c70 -142 127
-261 127 -265 0 -12 62 -140 66 -136 7 8 -163 383 -243 536 l-75 142 -11 -1
c-7 -1 -30 -5 -51 -10z"/>
<path d="M86440 60235 c0 -15 53 -78 178 -212 68 -73 128 -133 134 -133 l11 0
-104 108 c-57 59 -126 134 -154 167 -27 33 -53 64 -57 70 l-8 9 0 -9z"/>
<path d="M61870 60184 c1 -5 36 -177 78 -381 l78 -373 -15 -5 c-33 -10 -354
-75 -370 -75 l-17 0 -33 173 -34 172 -9 10 -9 10 5 -25 c15 -61 66 -324 66
-337 l0 -13 -13 0 -14 0 -34 180 -34 180 -8 0 -8 0 5 -17 c13 -46 68 -344 64
-348 -2 -2 -94 -23 -204 -46 l-199 -41 -10 -10 -10 -10 20 5 c11 3 107 24 213
47 l194 40 8 -5 9 -5 6 10 c3 5 10 10 14 10 l8 0 39 -195 c21 -107 41 -195 45
-195 l6 0 -34 171 -35 171 9 8 c4 3 69 19 143 34 222 46 232 48 226 53 -2 3
-88 -12 -190 -33 l-185 -38 -7 7 -8 7 10 9 c11 9 382 86 388 80 7 -7 111 -467
143 -626 15 -79 30 -143 33 -143 8 0 -69 397 -116 600 -20 85 -38 164 -40 175
-22 117 -163 767 -168 772 l-6 6 0 -9z"/>
<path d="M83370 59965 c0 -14 50 -102 134 -235 51 -80 143 -235 206 -345 125
-221 118 -210 124 -204 6 6 -233 424 -330 576 -46 73 -93 151 -104 173 -18 36
-30 49 -30 35z"/>
<path d="M43576 59942 l-4 -7 55 -63 55 -63 15 12 14 12 -58 59 c-57 58 -68
65 -77 50z"/>
<path d="M63661 59825 c-2 -27 91 -435 99 -435 5 0 -73 365 -94 440 l-4 15 -1
-20z"/>
<path d="M62712 59569 c-106 -20 -196 -40 -199 -43 l-6 -6 7 0 c14 0 391 73
395 77 14 11 -25 6 -197 -28z"/>
<path d="M60848 59521 l-227 -46 -8 -9 -8 -8 20 5 c11 3 117 25 235 48 118 23
217 44 219 46 15 11 -28 5 -231 -36z"/>
<path d="M49631 59492 c2 -6 78 -68 169 -138 91 -70 193 -149 228 -176 l62
-50 0 10 c0 5 -53 49 -117 99 -65 50 -169 130 -232 178 -62 48 -112 83 -110
77z"/>
<path d="M62288 59442 c-119 -26 -220 -51 -225 -56 l-8 -8 20 5 c11 3 112 24
225 48 113 23 209 46 215 50 l9 9 -9 -1 c-6 0 -108 -22 -227 -47z"/>
<path d="M46982 59410 l-12 -20 0 -27 0 -27 9 10 c8 9 25 84 19 84 -2 0 -9 -9
-16 -20z"/>
<path d="M63083 59308 c3 -13 25 -115 48 -228 23 -113 43 -207 45 -209 2 -2 7
-2 10 2 l6 6 -32 158 c-17 87 -38 188 -47 226 l-15 67 -10 0 -10 0 5 -22z"/>
<path d="M59398 59232 c-126 -26 -228 -49 -228 -53 0 -3 106 15 235 40 l235
46 0 8 c0 9 25 13 -242 -41z"/>
<path d="M58877 59170 c-130 -26 -241 -50 -245 -55 l-7 -8 25 6 c14 3 126 24
250 48 124 23 229 46 235 51 l9 8 -14 -1 c-8 -1 -122 -23 -253 -49z"/>
<path d="M83804 59145 c4 -11 88 -175 188 -364 99 -189 188 -367 198 -395 l19
-51 0 16 c2 34 -31 103 -214 449 -177 336 -208 392 -191 345z"/>
<path d="M50064 59091 c-99 -125 -296 -392 -293 -396 4 -3 290 365 312 402 15
25 3 21 -19 -6z"/>
<path d="M49102 58837 c-90 -121 -159 -218 -153 -216 14 5 323 419 319 427 -2
4 -76 -91 -166 -211z"/>
<path d="M39145 58931 c17 -5 64 -17 105 -25 42 -9 124 -35 184 -57 60 -22
111 -37 114 -34 8 8 7 8 -118 53 -139 49 -177 59 -255 66 l-60 5 30 -8z"/>
<path d="M61658 58925 l-6 -6 38 -179 c20 -99 40 -183 43 -187 l7 -6 0 15 c0
18 -69 360 -73 365 -2 1 -6 1 -9 -2z"/>
<path d="M63810 58923 c0 -5 47 -236 105 -514 57 -277 132 -648 165 -824 34
-176 111 -549 171 -829 l110 -510 -23 -22 -23 -21 -247 -49 c-137 -27 -248
-51 -248 -55 0 -3 117 17 260 46 l259 51 20 26 c11 14 18 27 16 29 -8 9 -205
941 -269 1274 -78 402 -283 1396 -291 1403 -3 3 -5 1 -5 -5z"/>
<path d="M11055 58883 c9 -21 20 -45 23 -53 19 -47 218 -249 247 -250 l9 0
-14 14 c-8 7 -43 38 -77 68 -76 67 -142 149 -168 206 -10 24 -22 45 -27 48
l-9 6 16 -39z"/>
<path d="M61500 58512 c-96 -25 -177 -47 -179 -49 -18 -13 30 -3 204 42 l200
53 -25 0 c-14 0 -104 -20 -200 -46z"/>
<path d="M61774 58533 c3 -10 37 -180 76 -378 76 -384 79 -399 87 -392 2 3
-31 181 -74 396 l-78 391 -8 0 -8 0 5 -17z"/>
<path d="M59580 58512 c0 -4 60 -29 133 -55 72 -27 160 -59 195 -72 l62 -24 0
7 c0 4 -57 28 -127 54 -71 26 -158 58 -195 72 l-68 26 0 -8z"/>
<path d="M55481 58466 c8 -8 412 -116 416 -112 5 5 -62 25 -263 80 -121 33
-164 42 -153 32z"/>
<path d="M61331 58234 c33 -163 49 -221 49 -188 0 25 -75 374 -81 374 l-7 0
39 -186z"/>
<path d="M49471 58296 c2 -3 87 -36 188 -75 l184 -71 54 -31 54 -31 6 6 c9 8
7 9 -82 50 -142 66 -424 171 -404 152z"/>
<path d="M56285 58219 c-2 -8 -21 -81 -40 -163 l-36 -150 -12 -14 c-6 -8 -20
-18 -32 -22 l-20 -9 21 0 21 -1 16 18 16 17 40 165 c21 91 37 167 35 169 -2 2
-6 -2 -9 -10z"/>
<path d="M56315 58203 c13 -12 233 -78 240 -71 3 3 -46 20 -107 38 -62 18
-120 35 -128 38 l-15 5 10 -10z"/>
<path d="M64034 58008 c3 -15 85 -407 181 -870 97 -464 178 -849 181 -857 22
-64 -12 109 -170 866 l-182 872 -8 8 -9 8 7 -27z"/>
<path d="M61675 57727 c-190 -40 -202 -43 -194 -51 4 -4 394 77 420 87 l14 5
-25 0 c-14 0 -110 -18 -215 -41z"/>
<path d="M37960 57746 l0 -11 35 -11 36 -11 4 7 5 8 -13 10 c-6 5 -24 12 -39
14 l-28 5 0 -11z"/>
<path d="M49550 57722 c1 -9 392 -193 398 -187 7 7 28 -3 -325 161 -40 18 -73
30 -73 26z"/>
<path d="M46614 57586 c9 -26 278 -386 288 -386 6 0 -267 377 -290 400 -3 3
-2 -4 2 -14z"/>
<path d="M90616 56492 l-6 -5 112 -49 c62 -26 148 -66 191 -89 l77 -40 0 8 c0
11 -154 89 -277 142 l-92 39 -5 -6z"/>
<path d="M64411 56247 c14 -7 33 -18 43 -26 l16 -13 0 -28 0 -27 -18 -16 -19
-17 -26 0 -26 0 -13 14 -13 13 -15 -8 c-8 -4 -126 -29 -262 -56 -137 -26 -248
-50 -248 -54 0 -3 117 17 260 46 l260 52 11 -13 11 -14 38 0 39 0 20 26 21 27
0 32 0 32 -23 21 -23 22 -30 -1 -29 -1 26 -11z"/>
<path d="M63062 55910 l0 -25 5 13 c2 6 2 18 0 25 l-5 12 0 -25z"/>
<path d="M35958 55914 c-5 -4 -8 -15 -8 -24 l0 -17 27 -24 27 -24 -16 26 c-9
14 -18 36 -20 48 l-3 23 -7 -8z"/>
<path d="M63017 55900 c3 -11 9 -20 13 -20 l8 0 -5 20 c-3 11 -9 20 -13 20
l-8 0 5 -20z"/>
<path d="M36460 55829 c-25 -12 -79 -32 -120 -46 l-75 -25 -57 0 -58 1 0 -11
0 -11 78 6 77 5 118 47 c64 26 117 49 117 51 0 9 -38 1 -80 -17z"/>
<path d="M35870 55835 c0 -2 53 -21 118 -41 64 -20 119 -38 121 -40 3 -2 -17
-59 -44 -126 l-48 -121 -1 -43 -1 -42 20 -22 c11 -12 34 -32 50 -43 l30 -21
-42 47 c-45 48 -46 53 -43 102 l2 30 46 115 c25 63 48 117 51 120 3 3 7 11 9
18 l3 14 -19 -6 -18 -6 -110 35 c-111 35 -124 39 -124 30z"/>
<path d="M62210 55693 c-146 -31 -267 -57 -269 -59 -2 -2 -2 -7 2 -10 l5 -6
254 52 c293 60 288 58 288 71 0 11 31 16 -280 -48z"/>
<path d="M61568 55603 l-138 -4 0 -9 0 -10 103 0 c56 0 146 3 200 7 l97 6 0 9
0 8 -62 -2 c-35 -1 -125 -4 -200 -5z"/>
<path d="M61910 55554 c0 -5 14 -99 31 -209 l32 -200 9 -10 9 -10 -5 25 c-4
14 -20 110 -37 215 -26 164 -38 224 -39 189z"/>
<path d="M50925 55260 c-16 -16 -26 -32 -24 -35 3 -3 18 9 34 25 16 16 26 32
24 35 -3 3 -18 -9 -34 -25z"/>
<path d="M48335 54904 c-319 -157 -584 -289 -590 -295 -5 -6 24 5 65 24 91 42
1123 548 1129 553 26 24 -112 -41 -604 -282z"/>
<path d="M53202 54903 c-51 -88 -237 -363 -245 -363 -5 0 -69 41 -143 92 -73
50 -136 89 -139 86 -3 -3 58 -47 135 -98 77 -51 140 -97 140 -101 l0 -9 16 0
15 0 -5 8 -5 9 107 161 c59 88 121 184 139 211 l32 51 -10 0 c-5 0 -22 -21
-37 -47z"/>
<path d="M53285 54930 c4 -14 9 -32 11 -41 l5 -16 -137 -206 c-75 -114 -135
-209 -132 -212 2 -2 68 92 146 211 l142 215 -21 37 -20 37 6 -25z"/>
<path d="M81934 54759 l-69 -71 -45 -22 -45 -23 -75 -18 -75 -18 11 -4 c7 -2
49 5 94 17 l82 21 36 23 c43 28 168 153 161 160 -3 3 -36 -26 -75 -65z"/>
<path d="M87940 54594 l100 -197 -10 -12 -10 -12 6 -5 c3 -3 25 -4 49 -1 l43
4 7 -10 c3 -6 13 -11 22 -11 l15 0 -12 15 -13 15 -42 11 -41 10 -39 89 c-47
107 -149 293 -163 298 l-11 3 99 -197z"/>
<path d="M81172 54540 c-238 -59 -436 -111 -440 -115 l-7 -8 20 5 c11 2 212
51 447 109 l428 104 0 8 c0 9 42 19 -448 -103z"/>
<path d="M50140 54569 l0 -10 10 6 c6 3 10 8 10 11 0 2 -4 4 -10 4 -5 0 -10
-5 -10 -11z"/>
<path d="M50190 54573 c0 -12 38 -48 45 -41 3 2 -6 15 -20 28 l-25 23 0 -10z"/>
<path d="M50121 54533 c-1 -7 4 -44 11 -83 l12 -70 26 -24 25 -23 48 -16 47
-16 0 8 0 8 -45 13 -46 13 -23 28 -24 28 -7 53 c-4 29 -11 62 -16 73 l-8 20 0
-12z"/>
<path d="M80962 54445 c-117 -29 -216 -56 -220 -60 l-7 -8 24 6 c13 3 112 27
220 53 108 26 198 49 200 51 18 13 -32 4 -217 -42z"/>
<path d="M84620 54195 c-124 -58 -220 -105 -214 -105 14 0 426 188 439 201 15
14 11 13 -225 -96z"/>
<path d="M49152 54077 c-128 -66 -231 -122 -228 -124 4 -4 231 108 396 196 52
28 88 50 80 49 -8 0 -120 -55 -248 -121z"/>
<path d="M9210 53972 l0 -11 43 -5 c23 -3 88 -7 143 -10 56 -3 132 -10 168
-17 l67 -11 6 6 c11 11 -3 16 -78 30 l-74 14 -137 7 -138 7 0 -10z"/>
<path d="M52631 53862 c-85 -128 -133 -217 -162 -301 -23 -65 -23 -67 -5 -52
l14 12 6 34 7 35 45 85 c25 47 73 129 108 183 77 120 78 122 72 122 -3 0 -41
-53 -85 -118z"/>
<path d="M21650 53852 c0 -5 11 -14 24 -21 l24 -13 11 -25 11 -24 0 -48 c0
-26 -5 -97 -11 -157 l-11 -109 -8 -5 -8 -5 14 -13 14 -13 0 14 0 14 83 31 c45
17 132 45 192 62 135 38 139 39 133 45 -6 7 -262 -68 -335 -98 l-63 -25 -3 6
c-2 4 2 67 8 141 l12 133 -6 27 c-8 35 -21 53 -53 74 l-28 17 0 -8z"/>
<path d="M61245 53719 c-9 -40 -85 -461 -85 -472 0 -6 2 -8 5 -6 7 7 95 492
90 497 -2 2 -6 -6 -10 -19z"/>
<path d="M52007 53473 l-6 -9 55 -63 c30 -35 70 -87 89 -117 l35 -54 10 0 c5
0 10 3 10 6 0 11 -101 149 -144 197 l-44 49 -5 -9z"/>
<path d="M51350 53460 l-15 -10 12 0 c6 0 15 5 18 10 8 12 4 12 -15 0z"/>
<path d="M50245 53175 c-104 -52 -193 -94 -197 -95 -4 0 -19 23 -33 50 -14 28
-28 50 -30 50 -3 0 6 -23 20 -50 l26 -51 -6 -9 -6 -10 9 0 c5 0 105 47 223
104 118 58 207 105 199 104 -8 0 -100 -42 -205 -93z"/>
<path d="M52228 53223 l13 -5 6 6 6 6 -19 -1 -19 -1 13 -5z"/>
<path d="M52154 53186 c-10 -8 -17 -17 -14 -19 3 -3 14 1 24 9 11 7 17 16 15
19 -3 3 -14 -2 -25 -9z"/>
<path d="M52065 53124 c-11 -8 -123 -69 -248 -136 -125 -66 -226 -123 -223
-125 6 -6 474 243 496 263 l14 14 -9 0 c-6 0 -19 -7 -30 -16z"/>
<path d="M51225 53084 c-286 -146 -516 -267 -512 -270 2 -3 132 61 288 142
l284 146 25 1 c14 1 36 -2 50 -6 l25 -8 -25 15 c-14 9 -34 15 -45 15 l-20 0
-70 -35z"/>
<path d="M30252 52995 l-2 -90 -50 -60 c-57 -68 -79 -111 -90 -172 l-7 -43 9
0 8 0 0 33 0 32 28 47 c15 26 46 72 70 102 l43 54 -4 93 -3 94 -2 -90z"/>
<path d="M50051 53045 c-2 -16 73 -179 76 -168 2 5 -14 48 -36 94 -22 46 -40
80 -40 74z"/>
<path d="M49462 52808 c-7 -7 -12 -19 -12 -27 l0 -16 18 22 17 21 25 5 25 4
-30 2 -31 1 -12 -12z"/>
<path d="M65060 52747 c-204 -40 -217 -44 -209 -51 5 -5 451 82 458 89 10 11
-52 1 -249 -38z"/>
<path d="M84170 52784 c-1 -18 124 -474 128 -469 4 4 -116 466 -124 474 -2 2
-4 0 -4 -5z"/>
<path d="M51260 52731 c0 -6 4 -13 10 -16 l10 -6 -6 15 c-7 18 -14 21 -14 7z"/>
<path d="M52651 52645 l-114 -55 5 -6 6 -5 111 55 c61 31 111 58 111 61 0 7 6
10 -119 -50z"/>
<path d="M34076 52407 l-49 -192 -19 -27 -19 -28 9 0 c5 0 15 7 22 14 l12 15
53 205 53 206 -6 0 c-4 0 -29 -87 -56 -193z"/>
<path d="M27045 52108 l0 -228 8 0 7 0 -1 173 c-1 94 -4 197 -8 227 l-7 55 1
-227z"/>
<path d="M84800 52268 l-85 -21 11 -4 c7 -2 49 5 94 17 45 12 84 19 86 17 3
-2 17 -57 33 -121 16 -64 32 -120 36 -124 l7 -7 -5 20 c-4 11 -18 71 -33 133
l-26 112 -16 -1 c-10 0 -55 -10 -102 -21z"/>
<path d="M54377 51973 l-29 -15 9 -9 10 -10 25 10 25 9 6 16 6 16 -12 -1 c-7
-1 -25 -8 -40 -16z"/>
<path d="M75301 51869 c-106 -43 -196 -80 -198 -83 -2 -2 -1 -6 4 -9 l8 -5
185 74 c173 70 210 88 199 97 -2 2 -91 -31 -198 -74z"/>
<path d="M75137 51763 l-6 -9 90 -164 c96 -176 96 -176 105 -168 l5 6 -91 169
c-103 188 -96 177 -103 166z"/>
<path d="M90752 51593 c-102 -190 -104 -193 -98 -193 5 0 46 74 131 233 31 59
54 107 52 107 -3 0 -41 -66 -85 -147z"/>
<path d="M4172 51578 c8 -13 66 -101 128 -195 l112 -173 9 6 9 5 -38 58 c-20
32 -75 117 -122 189 l-85 132 -14 0 -13 0 14 -22z"/>
<path d="M37223 51546 l-142 -11 -7 -8 -7 -7 74 6 c41 3 144 12 229 19 l155
12 -80 0 c-44 0 -144 -5 -222 -11z"/>
<path d="M69280 51455 c0 -3 11 -33 25 -68 14 -34 37 -105 51 -157 14 -52 27
-101 30 -109 l4 -14 6 6 6 5 -27 99 c-28 106 -74 231 -87 239 -4 3 -8 3 -8 -1z"/>
<path d="M22415 51390 l-6 -10 10 0 c5 0 28 -24 51 -52 l42 -53 71 -47 c74
-49 87 -54 87 -39 0 5 -33 30 -72 55 l-73 45 -30 41 c-16 22 -39 47 -52 55
l-22 15 -6 -10z"/>
<path d="M42012 51323 c2 -5 10 -21 18 -37 l14 -28 106 -72 c58 -39 122 -78
143 -88 l37 -17 0 8 c0 5 -12 14 -27 20 -16 7 -75 45 -133 84 l-105 72 -20 32
c-11 18 -24 32 -28 33 -5 0 -7 -3 -5 -7z"/>
<path d="M33500 50822 c0 -14 58 -379 66 -411 3 -13 7 -21 9 -19 6 5 -62 429
-70 436 -3 3 -5 0 -5 -6z"/>
<path d="M59546 50509 l-38 -180 6 -6 6 -6 0 6 c0 10 70 339 75 355 l4 12 -8
0 -8 0 -37 -181z"/>
<path d="M33610 50384 c0 -22 61 -388 65 -393 3 -2 5 2 5 10 0 29 -58 381 -64
386 l-6 6 0 -9z"/>
<path d="M31724 50280 c3 -30 8 -127 12 -215 l6 -160 10 -15 9 -15 -5 60 c-3
33 -8 130 -12 215 l-7 155 -9 15 -9 15 5 -55z"/>
<path d="M34310 50094 c0 -10 66 -97 89 -118 l21 -19 6 6 7 6 -36 40 c-19 22
-43 51 -52 65 -16 24 -35 35 -35 20z"/>
<path d="M86915 49919 l-160 -121 -27 -10 -28 -10 6 -9 6 -10 21 7 c24 8 350
250 355 265 l4 9 -9 0 c-4 0 -80 -55 -168 -121z"/>
<path d="M31721 49734 c-1 -29 12 -353 29 -720 16 -368 32 -732 35 -809 3 -77
10 -219 15 -315 6 -96 14 -260 20 -364 5 -104 12 -191 15 -194 3 -3 5 6 5 19
0 53 -30 694 -40 854 -6 94 -24 483 -40 865 -28 645 -37 794 -39 664z"/>
<path d="M31755 49710 c3 -41 10 -151 15 -244 l10 -169 6 -6 7 -6 -6 90 c-4
50 -10 155 -13 235 l-7 145 -8 15 -9 15 5 -75z"/>
<path d="M22405 49750 l30 -8 165 -5 165 -5 -20 7 -20 8 -175 5 -175 6 30 -8z"/>
<path d="M33723 49450 c4 -19 18 -111 32 -205 29 -192 34 -219 41 -213 2 3
-11 102 -30 222 l-33 216 -8 8 -8 7 6 -35z"/>
<path d="M91300 49317 c0 -8 56 -105 125 -217 l125 -203 -12 -15 c-7 -9 -66
-77 -132 -151 -65 -75 -139 -163 -164 -196 -25 -33 -118 -135 -205 -227 -88
-93 -155 -168 -151 -168 14 0 314 317 369 390 28 36 95 117 150 180 55 63 113
130 128 148 15 19 27 30 27 26 l0 -8 10 10 11 11 -109 174 c-60 96 -119 193
-131 217 l-21 42 -10 0 -10 0 0 -13z"/>
<path d="M33830 49019 c0 -8 49 -361 110 -784 l110 -770 21 -95 c12 -52 25
-99 31 -105 l9 -10 -6 30 c-4 17 -13 55 -21 85 -8 30 -66 415 -130 855 -102
710 -124 848 -124 794z"/>
<path d="M39950 48690 l0 -10 23 -5 c12 -3 99 -23 192 -44 l170 -39 33 5 32 5
0 10 0 10 -32 -4 -32 -5 -189 43 c-214 50 -197 47 -197 34z"/>
<path d="M39947 48640 l-5 -20 9 0 9 0 0 20 c0 11 -2 20 -4 20 -2 0 -6 -9 -9
-20z"/>
<path d="M33595 48589 c-71 -5 -139 -10 -150 -13 -29 -6 264 5 360 14 l80 7
-80 0 c-44 0 -138 -4 -210 -8z"/>
<path d="M33735 48558 c-66 -5 -163 -13 -215 -18 l-95 -9 140 5 c77 2 174 7
215 10 l75 6 29 -211 29 -211 7 0 7 0 -29 193 c-15 105 -27 203 -25 216 l2 24
-10 2 c-5 1 -64 -2 -130 -7z"/>
<path d="M37843 48107 l-193 -9 0 -10 0 -9 18 5 c9 2 105 8 213 11 l197 7 13
9 14 9 -35 -2 c-19 -1 -122 -6 -227 -11z"/>
<path d="M90844 48048 c-32 -35 -78 -94 -103 -133 -24 -38 -60 -89 -79 -112
l-34 -43 9 0 c10 0 98 115 133 175 13 22 53 70 89 108 l64 67 -10 0 c-6 0 -37
-28 -69 -62z"/>
<path d="M72731 47778 c-1 -9 -68 -331 -77 -368 l-5 -25 9 10 10 10 37 178 37
177 -5 13 c-3 6 -6 9 -6 5z"/>
<path d="M31876 47205 c4 -71 10 -170 14 -220 l8 -90 -5 205 -5 205 -9 15 -8
15 5 -130z"/>
<path d="M35907 47160 l5 -175 9 -15 8 -15 -6 115 c-3 63 -9 149 -13 190 l-8
75 5 -175z"/>
<path d="M46388 46968 l-45 -63 -60 -272 -60 -273 7 0 c3 0 33 122 65 271 l59
271 48 64 c27 35 45 64 40 64 -4 0 -29 -28 -54 -62z"/>
<path d="M19880 46263 c0 -17 90 -206 95 -201 6 5 -72 187 -86 203 l-9 9 0
-11z"/>
<path d="M93060 46071 c0 -4 16 -15 35 -24 l36 -17 32 0 32 0 53 -25 54 -25
57 0 56 0 73 38 72 38 -6 7 -7 6 -75 -39 -75 -40 -41 0 -41 0 -47 25 -47 25
-38 0 -38 0 -42 20 -43 19 0 -8z"/>
<path d="M81344 45948 l-7 -11 11 7 c7 4 12 9 12 12 0 8 -9 4 -16 -8z"/>
<path d="M81370 45886 c-4 -13 -14 -43 -20 -67 -6 -24 -20 -66 -32 -94 l-21
-50 -16 -12 -16 -12 10 -1 c31 0 54 45 90 178 21 80 24 107 5 58z"/>
<path d="M81300 45792 c-12 -38 -25 -74 -30 -81 l-7 -13 -34 -8 -34 -8 32 -1
32 -1 14 14 14 14 22 72 c13 39 21 74 18 76 -3 3 -15 -26 -27 -64z"/>
<path d="M81244 45592 l-1 -67 14 33 14 33 -7 35 c-3 19 -9 34 -13 34 l-6 0
-1 -68z"/>
<path d="M45736 45361 l-17 -19 9 -6 10 -6 12 15 12 15 24 0 23 0 6 -10 c3 -5
10 -10 16 -10 l9 0 0 14 0 14 -16 6 c-9 3 -28 6 -43 6 l-28 0 -17 -19z"/>
<path d="M44295 45298 c-11 -7 -45 -18 -75 -25 l-55 -13 -85 0 c-47 -1 -103
-5 -125 -9 l-40 -9 75 -1 c41 0 115 4 164 9 l90 11 43 19 c24 10 43 21 43 24
0 9 -13 7 -35 -6z"/>
<path d="M43857 44747 c-4 -10 -7 -32 -7 -48 l0 -29 -12 -1 c-7 -1 -83 -5
-168 -9 l-155 -7 169 1 170 1 8 34 c5 18 8 43 6 55 l-3 21 -8 -18z"/>
<path d="M55593 43863 c4 -4 26 -8 50 -10 23 -2 107 -10 186 -19 79 -8 146
-13 148 -10 3 3 -10 7 -28 10 -40 6 -327 36 -348 36 l-14 0 6 -7z"/>
<path d="M78630 43565 c-12 -19 -40 -50 -62 -70 l-41 -34 -51 -15 c-28 -8 -90
-20 -138 -26 l-88 -12 0 -9 c0 -5 6 -9 13 -9 32 1 201 30 235 41 l37 12 38 29
c20 17 51 50 67 73 l30 44 -9 5 -9 6 -22 -35z"/>
<path d="M52240 43523 l-45 -4 -10 -10 -10 -10 91 7 91 7 23 -24 c27 -28 100
-175 100 -201 l0 -18 9 0 8 0 -7 38 c-4 20 -22 68 -40 105 l-33 68 -29 24 -30
25 -36 -2 c-20 -1 -57 -3 -82 -5z"/>
<path d="M50260 43123 l-195 -55 -10 -10 -10 -11 16 6 c9 3 102 29 205 58 104
29 191 54 193 56 18 14 -30 3 -199 -44z"/>
<path d="M47770 43093 c-55 -10 -249 -67 -310 -91 -72 -28 -75 -30 -68 -37 2
-3 31 6 64 19 32 13 120 40 194 60 74 20 149 40 165 45 l30 9 -25 0 c-14 -1
-36 -3 -50 -5z"/>
<path d="M32154 43022 c-22 -20 -113 -127 -201 -237 l-162 -200 -110 -103
c-61 -57 -111 -108 -111 -114 l0 -10 9 4 c5 2 67 59 138 128 l128 125 152 185
c83 102 165 198 182 214 30 29 39 46 24 46 -5 -1 -26 -18 -49 -38z"/>
<path d="M51915 43012 c-178 -24 -193 -27 -183 -37 6 -6 358 41 366 49 12 13
-11 12 -183 -12z"/>
<path d="M31730 42459 l-205 -206 -80 -56 -80 -55 -46 -49 -46 -48 -186 -261
-186 -261 -49 -44 c-27 -24 -86 -71 -130 -104 -45 -33 -81 -64 -82 -69 l0 -8
15 6 c26 10 209 153 246 193 20 21 120 155 222 298 l185 260 44 41 c23 22 70
60 103 84 92 66 170 134 278 239 101 98 211 226 205 239 -2 4 -95 -86 -208
-199z"/>
<path d="M55908 42625 l-6 -7 13 -37 c7 -20 18 -78 25 -127 l12 -91 -4 -621
-3 -622 6 0 6 0 6 143 c4 78 7 329 7 557 l-1 415 -9 157 -9 158 -18 41 -18 41
-7 -7z"/>
<path d="M55267 42424 c-82 -58 -146 -108 -143 -111 3 -3 68 40 144 96 l140
101 23 1 c13 1 35 5 49 9 l25 8 -45 1 -45 1 -148 -106z"/>
<path d="M50647 42359 l-5 -121 5 -154 6 -154 8 0 7 0 -1 270 0 271 -7 4 -7 4
-6 -120z"/>
<path d="M45971 42240 c-79 -44 -149 -84 -155 -89 l-11 -10 5 -48 4 -48 6 50
5 50 138 76 c121 67 172 99 157 99 -3 0 -70 -36 -149 -80z"/>
<path d="M92730 41884 c-6 -14 -10 -36 -10 -50 l0 -25 25 -24 24 -25 36 0 35
0 0 8 0 9 -27 -4 -28 -3 -25 19 -24 19 1 36 1 37 12 14 12 15 -11 0 -11 0 -10
-26z"/>
<path d="M92864 41796 c9 -25 298 -417 304 -412 3 4 -284 404 -306 426 -3 3
-2 -3 2 -14z"/>
<path d="M87054 41559 c-98 -72 -181 -133 -184 -136 l-5 -6 16 6 c12 4 287
199 358 254 2 2 2 5 0 8 -3 2 -86 -54 -185 -126z"/>
<path d="M93140 41354 c0 -14 92 -144 102 -144 l10 0 -38 53 c-62 85 -74 100
-74 91z"/>
<path d="M28960 41150 c0 -10 36 -20 75 -20 36 0 155 -31 207 -53 l37 -15 139
-105 139 -105 59 -30 59 -29 48 -7 48 -7 29 6 c17 4 30 10 30 13 l0 7 -75 2
-76 2 -57 32 c-31 18 -118 79 -193 135 l-137 103 -38 16 c-56 24 -170 52 -236
58 l-58 6 0 -9z"/>
<path d="M29421 41033 c1 -14 112 -99 188 -144 l75 -44 68 -3 68 -4 0 9 0 10
-66 6 -66 6 -64 36 c-35 20 -91 58 -125 85 -60 48 -80 59 -78 43z"/>
<path d="M56853 40883 c65 -2 168 -2 230 0 l112 3 -230 0 -230 0 118 -3z"/>
<path d="M92032 40450 c-13 -6 -109 -21 -215 -35 -106 -14 -196 -28 -202 -30
-28 -10 61 -3 221 19 165 23 234 38 234 51 0 7 -11 5 -38 -5z"/>
<path d="M84780 39956 c0 -4 42 -69 93 -144 51 -75 110 -167 132 -204 21 -38
43 -68 47 -68 14 0 -217 364 -263 415 l-9 9 0 -8z"/>
<path d="M2960 39474 c0 -4 10 -22 21 -41 l21 -34 6 6 6 6 -19 34 c-16 31 -35
46 -35 29z"/>
<path d="M42634 39305 c-82 -29 -186 -61 -230 -70 l-79 -18 13 -5 c23 -7 164
29 307 80 77 28 142 52 144 54 17 16 -24 5 -155 -41z"/>
<path d="M51571 39116 c5 -5 423 -96 440 -96 34 0 -16 13 -205 55 -193 42
-246 51 -235 41z"/>
<path d="M52012 38985 c8 -8 871 -175 877 -169 2 2 2 5 0 7 -3 3 -575 112
-854 164 l-30 6 7 -8z"/>
<path d="M47520 38754 c96 -101 145 -142 157 -130 3 2 -6 10 -19 16 -12 7 -72
60 -133 119 l-110 106 105 -111z"/>
<path d="M52902 38855 c8 -8 1261 -245 1266 -240 8 7 -3 10 -638 129 -621 117
-638 120 -628 111z"/>
<path d="M88120 38479 c-96 -60 -179 -115 -185 -121 l-10 -11 16 5 c8 3 93 54
187 113 l172 106 0 10 c0 12 21 23 -180 -102z"/>
<path d="M60361 37803 c1 -10 262 -253 292 -272 25 -15 -200 205 -255 250 -21
17 -38 27 -37 22z"/>
<path d="M59640 37754 c-36 -25 -109 -69 -164 -99 l-98 -55 -8 5 -8 5 -5 -14
-6 -15 8 -3 c5 -2 57 -100 116 -218 l107 -215 21 -22 20 -23 20 0 c10 0 117
29 238 65 120 35 236 67 256 70 48 8 153 48 153 57 l0 7 -46 -19 c-25 -11 -64
-23 -87 -26 -23 -4 -148 -38 -277 -75 l-234 -69 -23 15 -23 16 -110 219 c-61
121 -110 222 -110 224 0 2 39 26 88 52 78 42 222 133 247 155 l9 9 -9 -1 c-6
0 -39 -20 -75 -45z"/>
<path d="M60410 37699 c141 -133 230 -212 234 -208 5 5 -301 289 -311 289 -4
-1 30 -37 77 -81z"/>
<path d="M86644 37612 c-55 -37 -121 -83 -145 -103 -38 -32 -192 -135 -487
-326 -46 -30 -82 -57 -79 -60 7 -6 552 350 592 387 17 15 80 60 140 99 l110
71 -15 -1 c-8 0 -60 -31 -116 -67z"/>
<path d="M92803 37611 l6 -24 -10 -20 -11 -19 14 4 13 5 3 27 4 28 -13 12 -12
11 6 -24z"/>
<path d="M60246 37239 c-27 -11 -81 -27 -120 -35 -90 -19 -239 -64 -233 -71 3
-2 43 7 89 20 46 14 110 30 143 37 61 11 162 46 180 62 l9 8 -9 -1 c-6 0 -32
-9 -59 -20z"/>
<path d="M88250 36029 c-212 -131 -389 -240 -395 -242 l-10 -4 10 -11 10 -11
390 240 c214 132 390 241 391 242 2 1 0 8 -4 14 l-7 11 -385 -239z"/>
<path d="M84910 35603 c-15 -6 -408 -257 -463 -295 -16 -11 -26 -22 -24 -24 2
-3 113 65 246 151 l241 155 23 0 23 0 16 -12 c9 -7 33 -44 54 -83 21 -38 62
-103 92 -143 29 -41 95 -142 147 -225 257 -421 333 -536 349 -537 l8 0 -16 23
c-43 58 -102 152 -244 387 l-154 255 -57 75 -57 75 -47 87 -48 87 -22 16 c-22
15 -41 18 -67 8z"/>
<path d="M81120 35575 c0 -16 64 -99 126 -165 38 -41 96 -103 129 -138 32 -34
60 -60 63 -57 2 2 -56 69 -130 147 -73 79 -144 160 -157 181 -21 34 -31 45
-31 32z"/>
<path d="M79805 35470 l-130 -70 -127 -42 c-70 -23 -126 -44 -124 -46 2 -2 50
11 107 29 l104 32 105 53 c133 66 218 114 205 114 -5 0 -68 -32 -140 -70z"/>
<path d="M85420 34971 c0 -13 181 -312 208 -344 8 -9 17 -15 20 -12 3 3 -2 13
-10 22 -8 10 -59 90 -113 178 -109 179 -105 173 -105 156z"/>
<path d="M80300 34914 c0 -4 53 -105 117 -225 l117 -219 9 0 8 0 -39 73 c-22
39 -76 141 -122 225 -75 139 -90 164 -90 146z"/>
<path d="M81807 34795 c23 -27 62 -70 88 -95 26 -25 77 -85 114 -135 38 -49
79 -99 92 -110 l24 -20 -21 25 c-11 14 -48 63 -82 110 l-61 85 -97 95 -97 95
40 -50z"/>
<path d="M85795 34690 c-123 -78 -163 -110 -140 -110 12 0 305 185 305 193 0
17 -33 1 -165 -83z"/>
<path d="M31675 34555 c-64 -88 -122 -166 -128 -172 l-9 -13 13 0 14 1 118
160 118 161 -4 11 -4 12 -118 -160z"/>
<path d="M59564 34542 c-179 -109 -284 -177 -284 -184 0 -4 79 42 175 102 96
61 179 110 184 110 6 0 13 5 16 10 l6 10 -9 0 c-5 0 -44 -22 -88 -48z"/>
<path d="M85640 34549 l0 -10 10 6 c6 3 10 8 10 11 0 2 -4 4 -10 4 -5 0 -10
-5 -10 -11z"/>
<path d="M62572 34529 l5 -14 29 -7 c93 -22 154 -35 154 -33 0 2 -19 14 -42
28 l-43 25 -54 7 -53 7 4 -13z"/>
<path d="M71440 34362 l0 -9 173 -6 c94 -4 404 -6 687 -5 l515 1 -585 8 c-322
4 -631 10 -687 13 l-103 7 0 -9z"/>
<path d="M82586 33855 c76 -91 139 -163 142 -161 6 6 -258 326 -269 326 -5 0
52 -74 127 -165z"/>
<path d="M34894 33943 c56 -109 179 -330 188 -338 l11 -10 -4 12 c-9 29 -195
363 -202 363 l-8 0 15 -27z"/>
<path d="M34850 33947 c0 -5 8 -21 19 -35 10 -15 53 -96 95 -181 43 -84 79
-151 82 -148 7 7 -149 316 -175 347 -11 14 -20 21 -21 17z"/>
<path d="M53088 33901 c-103 -15 -191 -30 -194 -34 -4 -4 -5 -7 -3 -7 22 0
434 61 437 65 9 9 -50 3 -240 -24z"/>
<path d="M73080 32625 c0 -3 11 -27 24 -54 l25 -48 25 -16 25 -17 43 1 43 1
-41 11 c-22 7 -49 19 -61 27 l-20 15 -22 43 -21 42 -10 0 c-6 0 -10 -2 -10 -5z"/>
<path d="M73283 32503 c9 -2 25 -2 35 0 l17 5 -35 0 -35 0 18 -5z"/>
<path d="M73251 32370 c0 -14 4 -32 9 -40 l10 -15 -1 20 c0 11 -4 29 -9 40
l-9 20 0 -25z"/>
<path d="M98814 31738 l-22 -10 -11 -24 c-14 -30 -14 -34 -1 -34 l10 0 0 15 0
15 25 16 25 16 20 -5 20 -5 0 8 c0 8 -25 21 -38 19 -4 0 -17 -5 -28 -11z"/>
<path d="M95307 26779 l-187 -138 7 -4 8 -5 170 124 c174 128 202 151 194 157
-2 3 -88 -58 -192 -134z"/>
<path d="M94822 26725 c-101 -73 -186 -136 -189 -139 l-6 -6 9 0 c8 0 361 254
380 273 l7 7 -9 0 c-5 -1 -91 -61 -192 -135z"/>
<path d="M87395 25990 l-5 -9 202 -160 202 -160 9 6 c4 3 7 6 5 8 -2 1 -94 75
-205 163 l-202 161 -6 -9z"/>
<path d="M455 25598 c-2 -7 -34 -217 -70 -467 l-66 -453 5 -6 c3 -3 8 -3 10
-1 2 2 34 207 70 454 36 248 68 458 70 468 l4 17 -9 0 c-5 0 -11 -6 -14 -12z"/>
<path d="M90500 24839 c52 -6 162 -21 244 -35 82 -13 152 -22 154 -19 8 8 -16
13 -158 35 l-135 21 -100 4 -100 4 95 -10z"/>
<path d="M3763 24352 c-70 -56 -95 -67 -229 -103 -65 -17 -125 -35 -133 -39
l-14 -7 9 -5 9 -5 138 38 138 37 37 25 c20 14 53 39 72 55 l35 30 -6 6 -6 7
-50 -39z"/>
<path d="M19951 21754 c-172 -22 -201 -27 -190 -39 3 -2 105 8 227 22 l222 27
0 8 0 8 -37 -1 c-21 -1 -121 -12 -222 -25z"/>
<path d="M18362 21505 c-233 -30 -427 -56 -430 -59 -3 -3 -3 -8 -1 -10 2 -3
202 20 444 49 242 30 446 55 453 55 l12 0 0 10 0 10 -27 -1 c-16 -1 -219 -25
-451 -54z"/>
<path d="M89235 20593 c-88 -81 -162 -151 -164 -157 -2 -6 9 1 25 15 26 23
258 233 293 265 8 8 13 16 10 18 -2 3 -76 -61 -164 -141z"/>
<path d="M10677 19578 c-4 -46 -9 -139 -12 -208 -4 -69 -8 -135 -11 -147 l-4
-23 8 0 9 0 13 226 c7 124 10 227 8 230 -3 2 -8 -33 -11 -78z"/>
<path d="M92745 16834 c-94 -69 -177 -129 -185 -134 l-15 -8 6 -6 5 -6 185
136 c207 153 196 144 183 144 -6 0 -86 -57 -179 -126z"/>
<path d="M98130 14833 c-80 -96 -1425 -1669 -1453 -1700 -11 -13 -18 -25 -16
-28 3 -2 79 82 170 188 90 105 433 507 762 891 536 625 619 726 605 726 -2 0
-33 -35 -68 -77z"/>
<path d="M96313 12703 l7 -6 7 6 6 7 -13 0 -13 0 6 -7z"/>
<path d="M31617 3356 c-114 -35 -210 -66 -214 -70 l-6 -6 5 -6 6 -5 174 51
c95 28 194 58 221 66 l47 16 0 9 0 9 -12 -1 c-7 0 -106 -29 -221 -63z"/>
<path d="M10790 1701 l0 -9 38 -6 c20 -3 229 -18 464 -33 l427 -27 7 7 c4 4 5
9 2 12 -4 5 -852 65 -915 65 l-23 0 0 -9z"/>
<path d="M17680 1194 l0 -14 26 0 c26 0 279 -16 372 -24 l52 -5 0 15 0 14 -26
0 c-26 0 -279 16 -371 24 l-53 5 0 -15z"/>
<path d="M18590 1128 l0 -14 450 -34 450 -34 7 7 c3 4 4 9 1 12 -2 3 -180 18
-394 35 -214 16 -417 32 -451 35 l-63 7 0 -14z"/>
<path d="M20410 943 l0 -10 53 -6 c28 -4 130 -10 225 -13 l172 -7 0 16 0 17
-112 0 c-62 0 -164 3 -225 7 l-113 6 0 -10z"/>
</g>
</svg>
