<?xml version="1.0" standalone="no"?>
<!DOCTYPE svg PUBLIC "-//W3C//DTD SVG 20010904//EN"
 "http://www.w3.org/TR/2001/REC-SVG-20010904/DTD/svg10.dtd">
<svg version="1.0" xmlns="http://www.w3.org/2000/svg"
 width="7500.000000pt" height="7500.000000pt" viewBox="0 0 7500.000000 7500.000000"
 preserveAspectRatio="xMidYMid meet">
<metadata>
Created by potrace 1.16, written by Peter Selinger 2001-2019
</metadata>
<g transform="translate(0.000000,7500.000000) scale(0.075000,-0.075000)"
fill="#000000" stroke="none">
<path d="M88934 99969 l69 -30 9 9 9 9 -56 21 c-31 12 -67 22 -78 22 l-22 -1
69 -30z"/>
<path d="M90160 99733 c0 -21 -3 -48 -6 -60 l-6 -23 16 0 16 0 0 38 c0 20 3
47 6 60 l6 22 -16 0 -16 0 0 -37z"/>
<path d="M85526 97980 l-108 -18 -62 -23 c-69 -25 -116 -50 -116 -61 l0 -8 38
20 c20 10 62 28 92 39 l55 21 112 17 113 18 0 7 c0 5 -3 7 -7 7 -5 -1 -57 -9
-117 -19z"/>
<path d="M97916 94799 l-156 -160 6 -11 6 -10 90 88 c49 49 121 124 159 166
l70 76 -10 6 -9 6 -156 -161z"/>
<path d="M87688 94695 l-6 -6 40 -90 39 -89 6 -130 6 -130 9 0 8 0 0 83 c0 45
-4 110 -9 145 l-10 62 -32 73 c-18 39 -36 75 -39 80 l-6 7 -6 -5z"/>
<path d="M50080 93430 c0 -5 35 -33 77 -61 l77 -52 86 -28 c47 -15 105 -29
130 -33 l45 -5 -50 15 c-27 8 -86 26 -130 41 l-80 26 -77 53 -78 53 0 -9z"/>
<path d="M50054 93391 c3 -4 40 -31 83 -59 l78 -51 70 -24 c39 -14 98 -30 133
-37 l62 -13 6 6 6 5 -59 12 c-32 7 -95 25 -140 40 l-81 28 -76 51 c-41 28 -78
51 -81 51 l-6 0 5 -9z"/>
<path d="M87837 93332 c-10 -10 -17 -22 -17 -27 l0 -8 20 18 21 19 73 -73 74
-73 36 13 36 13 43 -11 c49 -14 62 -9 21 8 l-29 12 -37 0 -38 0 -13 -11 -13
-11 -74 74 c-41 41 -77 75 -81 75 -3 0 -13 -8 -22 -18z"/>
<path d="M87002 92991 c-52 -44 -134 -108 -182 -142 l-89 -62 5 -9 6 -9 66 48
c131 92 302 231 302 245 0 17 -18 5 -108 -71z"/>
<path d="M21943 92803 l7 -6 7 6 6 7 -13 0 -13 0 6 -7z"/>
<path d="M57111 92786 c16 -15 394 -216 402 -213 11 3 -376 217 -394 217 -7 0
-10 -2 -8 -4z"/>
<path d="M21917 92728 c-7 -25 -3 -33 12 -23 l11 6 0 20 0 19 -9 0 c-5 0 -11
-10 -14 -22z"/>
<path d="M21903 92643 l7 -6 7 6 6 7 -13 0 -13 0 6 -7z"/>
<path d="M82240 92175 c0 -3 45 -67 101 -142 55 -74 105 -146 111 -159 6 -13
15 -24 20 -24 l9 0 -12 23 c-15 27 -219 307 -225 307 -2 0 -4 -2 -4 -5z"/>
<path d="M82210 92155 c0 -3 40 -60 88 -128 49 -67 99 -139 111 -159 12 -21
25 -38 27 -38 12 0 -45 91 -127 204 -84 116 -99 135 -99 121z"/>
<path d="M95618 91972 c-58 -70 -128 -155 -157 -188 l-51 -62 13 -5 13 -5 153
185 154 184 -10 10 -9 9 -106 -128z"/>
<path d="M95209 91480 l-83 -100 -18 -6 -18 -5 0 -14 0 -14 28 10 27 10 70 85
c39 47 78 96 88 110 l19 24 -16 0 -15 0 -82 -100z"/>
<path d="M33510 91036 l0 -85 10 -6 10 -6 0 90 0 91 -10 0 -10 0 0 -84z"/>
<path d="M94233 90771 l-152 -158 12 -12 11 -11 -29 -30 -29 -30 11 0 c6 0 82
73 168 162 l157 162 14 28 15 29 -6 9 c-3 6 -9 10 -13 10 -4 0 -75 -71 -159
-159z m-103 -145 c0 -3 -5 -8 -12 -12 l-11 -7 7 11 c7 12 16 16 16 8z"/>
<path d="M33506 90779 c-3 -34 -6 -79 -6 -100 l0 -39 10 0 10 0 0 39 c0 21 3
66 6 100 l7 61 -10 0 -10 0 -7 -61z"/>
<path d="M94981 90777 c-1 -16 57 -93 98 -130 l40 -36 58 -30 c87 -44 643
-274 649 -268 3 2 -129 60 -293 128 l-298 123 -67 39 -67 39 -43 47 c-24 25
-51 57 -60 71 -9 14 -17 21 -17 17z"/>
<path d="M94959 90723 l19 -38 54 -51 53 -52 40 -20 c57 -28 331 -144 595
-252 124 -51 263 -112 310 -136 l85 -45 155 -165 155 -166 59 -44 60 -44 5 6
6 6 -30 20 c-17 11 -118 109 -225 218 l-195 199 -70 34 c-62 31 -195 86 -700
292 -77 31 -162 68 -189 82 l-50 25 -57 55 -57 54 -12 30 c-7 16 -16 29 -21
29 l-9 0 19 -37z"/>
<path d="M55130 90139 l-23 -90 6 -132 c3 -73 9 -140 13 -150 l6 -17 15 0 15
0 -7 23 c-3 12 -9 81 -12 152 l-5 130 21 76 c11 41 21 81 21 87 l0 12 -13 0
-13 0 -24 -91z"/>
<path d="M96241 90073 c2 -7 51 -65 109 -129 l105 -116 58 -45 c32 -25 60 -43
63 -40 3 2 -17 21 -43 40 l-48 35 -110 119 c-60 65 -115 125 -123 133 l-14 15
3 -12z"/>
<path d="M31083 90044 c4 -4 51 -24 104 -46 l98 -39 90 -18 c101 -21 203 -36
195 -28 -3 2 -66 16 -140 31 l-135 26 -103 40 c-57 22 -106 40 -109 40 l-6 0
6 -6z"/>
<path d="M31588 89903 c6 -2 18 -2 25 0 l12 5 -25 0 -25 0 13 -5z"/>
<path d="M9800 89712 l0 -9 73 -13 72 -12 138 -51 137 -50 7 7 c9 9 11 8 -142
63 l-140 51 -59 11 c-71 13 -86 14 -86 3z"/>
<path d="M97580 89281 l-65 -7 -117 -63 c-65 -34 -121 -67 -124 -73 -4 -5 55
22 130 61 l136 71 63 1 c34 1 73 5 87 9 l25 8 -35 -1 c-19 0 -64 -3 -100 -6z"/>
<path d="M85435 88945 c-136 -21 -537 -94 -543 -100 -10 -10 24 -4 268 41
l245 46 198 5 197 6 0 8 0 9 -137 -1 -138 -1 -90 -13z"/>
<path d="M84380 88739 l-75 -18 -115 -12 c-140 -14 -161 -24 -30 -15 l95 7
103 21 102 21 0 9 c0 4 -1 8 -2 7 -2 -1 -37 -9 -78 -20z"/>
<path d="M83866 87923 c-57 -284 -196 -916 -211 -961 l-5 -14 12 4 12 4 58
250 c50 213 218 1021 218 1046 0 4 -4 8 -9 8 l-8 0 -67 -337z"/>
<path d="M75373 88012 c-62 -37 -118 -73 -125 -81 l-13 -14 55 30 c30 17 90
49 133 72 l77 42 0 10 c0 15 -9 10 -127 -59z"/>
<path d="M84458 87218 c-47 -90 -111 -223 -143 -296 l-58 -134 -14 -5 -14 -6
-85 23 c-47 12 -87 20 -90 17 -4 -4 84 -30 177 -52 l26 -6 64 143 c35 79 101
216 147 306 46 90 82 165 79 168 -2 2 -42 -69 -89 -158z"/>
<path d="M83207 87013 l-6 -9 210 -75 209 -76 0 11 0 11 -193 69 c-105 38
-197 71 -203 73 l-12 4 -5 -8z"/>
<path d="M83555 86763 c-9 -43 -34 -154 -56 -247 l-39 -170 6 -5 5 -5 8 12 c4
7 29 111 55 230 26 119 50 227 53 240 l5 22 -10 0 -10 0 -17 -77z"/>
<path d="M36934 86661 c3 -4 75 -56 160 -115 85 -58 156 -110 158 -115 2 -4
50 -37 108 -73 l105 -64 104 -47 c174 -78 134 -45 -59 49 -86 42 -215 125
-409 262 -88 61 -163 112 -166 112 l-6 0 5 -9z"/>
<path d="M18356 86482 l-5 -9 397 -138 c218 -75 418 -146 445 -156 l47 -19 0
15 0 14 -47 14 c-37 11 -765 263 -819 284 l-12 4 -6 -9z"/>
<path d="M88430 85619 c-29 -112 -55 -211 -58 -219 l-5 -15 10 10 10 10 52
198 c29 109 50 204 48 210 -1 5 -27 -82 -57 -194z"/>
<path d="M56852 85593 l-93 -4 4 -12 4 -12 124 3 c68 1 150 5 181 8 l58 6 -6
9 -5 9 -87 -2 c-48 -1 -129 -4 -180 -5z"/>
<path d="M21796 85102 l-5 -8 196 -105 c108 -57 202 -105 209 -107 l14 -3 0 8
c0 5 -33 25 -72 45 -40 21 -132 69 -205 108 l-132 70 -5 -8z"/>
<path d="M88301 84916 c9 -9 441 -127 451 -124 6 2 -90 32 -213 66 -210 59
-248 68 -238 58z"/>
<path d="M80097 84893 c-2 -4 -30 -86 -61 -180 l-58 -173 4 -16 3 -17 38 -13
c47 -16 49 -8 2 12 -19 8 -35 18 -35 22 0 4 27 88 60 187 33 98 58 180 56 182
-2 3 -6 1 -9 -4z"/>
<path d="M23510 84311 l0 -8 130 -57 c72 -32 155 -68 186 -82 l56 -25 -4 13
-4 12 -175 78 c-184 81 -189 83 -189 69z"/>
<path d="M23912 84198 l4 -12 100 -44 c54 -24 149 -66 211 -93 119 -52 127
-55 121 -39 l-3 11 -185 80 c-102 44 -200 87 -218 94 l-34 15 4 -12z"/>
<path d="M82710 83759 l0 -10 10 6 c6 3 10 8 10 11 0 2 -4 4 -10 4 -5 0 -10
-5 -10 -11z"/>
<path d="M82746 83701 l-6 -9 15 -12 14 -12 11 7 11 7 -12 14 c-13 16 -25 18
-33 5z"/>
<path d="M82836 83653 c-3 -4 -6 -10 -6 -15 l0 -8 20 0 20 0 0 9 c0 5 -6 11
-14 14 l-14 6 -6 -6z"/>
<path d="M82131 83479 l-21 -23 10 -10 10 -10 20 19 20 18 31 -1 30 -1 -4 12
-4 12 -35 3 -36 3 -21 -22z"/>
<path d="M83180 83455 l0 -15 15 0 15 0 0 9 c0 5 -7 11 -15 15 l-15 5 0 -14z"/>
<path d="M83236 83421 l-6 -10 77 -60 78 -61 55 -17 55 -18 66 1 66 0 46 14
47 13 0 9 0 10 -27 -7 c-16 -3 -55 -10 -88 -14 l-60 -8 -50 8 c-67 12 -125 42
-195 100 l-59 49 -5 -9z"/>
<path d="M76510 82565 c-68 -108 -120 -198 -118 -201 3 -2 61 83 128 191 68
107 121 198 118 201 -3 2 -60 -83 -128 -191z"/>
<path d="M76422 82354 c-134 -213 -242 -390 -240 -395 2 -5 112 165 246 378
133 212 241 390 240 395 -2 4 -112 -166 -246 -378z"/>
<path d="M86525 82058 c-10 -293 -10 -296 -7 -510 l2 -178 8 0 7 0 1 418 1
418 7 42 6 42 -9 0 -9 0 -7 -232z"/>
<path d="M96238 81525 c-34 -45 -224 -310 -232 -322 -4 -7 -5 -13 -2 -13 3 0
60 73 127 163 67 89 126 167 131 174 l9 11 -8 5 -8 5 -17 -23z"/>
<path d="M94286 80871 l-5 -8 57 -44 c31 -25 103 -80 160 -123 l103 -79 7 7 6
7 -34 27 c-19 15 -92 71 -162 124 l-127 98 -5 -9z"/>
<path d="M95463 80437 c-17 -24 -67 -94 -112 -155 -45 -62 -78 -112 -73 -112
4 0 59 70 120 155 62 85 108 155 104 155 -5 0 -22 -20 -39 -43z"/>
<path d="M96346 79362 l-5 -8 132 -93 c73 -52 151 -103 175 -113 l43 -19 12 4
12 4 -55 28 c-30 15 -98 57 -150 94 -52 37 -109 77 -127 89 l-32 22 -5 -8z"/>
<path d="M65120 79230 l-145 -6 233 -2 232 -2 0 10 0 10 -87 -2 c-49 -1 -153
-5 -233 -8z"/>
<path d="M78640 76589 l-55 -70 -45 -33 c-40 -29 -92 -54 -176 -86 -15 -6 -24
-13 -21 -16 8 -8 158 57 202 88 22 15 53 45 69 65 17 21 45 57 64 81 l34 42
-9 0 c-4 0 -33 -32 -63 -71z"/>
<path d="M74550 76630 c0 -5 5 -10 10 -10 6 0 10 5 10 10 0 6 -4 10 -10 10 -5
0 -10 -4 -10 -10z"/>
<path d="M74285 76520 c-28 -23 -100 -91 -162 -152 l-112 -112 6 -9 6 -9 106
104 c58 58 134 127 168 155 l62 51 -6 6 c-11 10 -17 7 -68 -34z"/>
<path d="M74560 76547 c0 -16 34 -114 42 -122 l11 -10 -5 15 c-3 8 -13 39 -22
68 -15 43 -26 65 -26 49z"/>
<path d="M81086 73828 c-3 -24 -8 -130 -12 -235 l-7 -193 10 0 10 0 7 193 c4
105 9 211 12 235 l6 42 -10 0 -10 0 -6 -42z"/>
<path d="M72250 72552 c0 -6 286 -137 346 -158 l19 -7 -10 11 c-8 9 -341 162
-352 162 -2 0 -3 -3 -3 -8z"/>
<path d="M77860 72510 l0 -10 28 0 c15 0 121 -7 236 -15 192 -14 228 -14 214
0 -4 5 -393 35 -449 35 l-29 0 0 -10z"/>
<path d="M71345 72180 l-6 -10 6 -10 7 -11 14 12 14 11 -6 9 c-7 12 -21 11
-29 -1z"/>
<path d="M74399 70675 l-7 -80 24 -134 c13 -74 26 -136 29 -139 8 -8 6 7 -11
98 l-16 85 -7 125 -6 125 -6 -80z"/>
<path d="M76461 70263 l96 -98 75 -100 75 -100 46 -85 45 -85 83 -215 c90
-233 86 -226 95 -218 l5 6 -66 173 c-37 96 -87 219 -113 274 l-46 100 -73 106
-73 106 -90 100 c-83 93 -127 133 -147 133 -4 0 36 -44 88 -97z"/>
<path d="M35336 69238 l-16 -22 6 -5 6 -6 9 18 10 17 27 0 c15 0 203 -27 417
-60 394 -60 423 -64 413 -55 -4 4 -831 135 -853 135 -2 0 -11 -10 -19 -22z"/>
<path d="M48500 68880 c0 -5 5 -10 11 -10 l10 0 -6 10 c-3 6 -8 10 -11 10 -2
0 -4 -4 -4 -10z"/>
<path d="M49480 68661 c0 -5 26 -24 58 -41 31 -18 117 -77 190 -131 73 -55
137 -99 143 -99 l11 0 -4 9 c-5 15 -260 206 -319 240 -57 32 -79 38 -79 22z"/>
<path d="M28951 68100 c-6 -21 -50 -116 -96 -210 l-85 -170 13 0 12 0 78 154
c96 192 124 266 99 266 l-9 0 -12 -40z"/>
<path d="M1050 67530 c36 -4 142 -7 235 -7 l170 0 -70 7 c-38 4 -144 7 -235 7
l-165 0 65 -7z"/>
<path d="M16800 66909 c47 -4 150 -7 230 -6 l145 0 -130 8 c-71 3 -175 7 -230
6 l-100 0 85 -8z"/>
<path d="M37016 66839 c-76 -4 -141 -11 -145 -14 l-6 -7 150 7 c83 4 188 11
235 15 l85 7 -90 0 c-49 0 -152 -4 -229 -8z"/>
<path d="M37060 66799 c-80 -5 -154 -10 -165 -13 -32 -7 333 6 389 14 l51 8
-65 -1 c-36 0 -130 -4 -210 -8z"/>
<path d="M44245 66293 c6 -6 69 -28 140 -48 72 -21 158 -45 193 -55 l62 -19 0
8 0 7 -187 53 c-104 30 -195 56 -203 59 l-15 5 10 -10z"/>
<path d="M48761 66223 c200 -135 347 -239 366 -256 l23 -20 7 8 8 8 -10 3 c-6
2 -105 69 -220 149 -115 80 -213 145 -218 145 -5 0 15 -16 44 -37z"/>
<path d="M97236 66181 l-229 -56 -5 -14 -5 -14 19 5 c11 2 119 29 242 58 l222
54 0 13 c0 16 26 21 -244 -46z"/>
<path d="M41547 66192 l-5 -7 226 -148 c125 -82 278 -182 340 -223 61 -40 112
-71 112 -66 0 4 -71 54 -157 112 -386 259 -479 321 -495 330 l-17 10 -4 -8z"/>
<path d="M97554 65956 c40 -194 49 -226 61 -214 3 2 -15 96 -38 208 l-44 204
-10 3 -11 4 42 -205z"/>
<path d="M94500 66101 c0 -4 5 -33 10 -62 6 -30 19 -112 30 -184 23 -149 29
-179 36 -173 2 3 -7 74 -20 159 -14 85 -28 180 -31 212 l-7 57 -9 0 c-5 0 -9
-4 -9 -9z"/>
<path d="M63580 65989 c-74 -3 -165 -7 -202 -8 l-68 -1 0 -16 0 -17 88 6 c48
4 151 9 230 13 l142 7 0 13 0 14 -27 -2 c-16 -1 -89 -5 -163 -9z"/>
<path d="M44875 65792 c14 -14 425 -194 436 -190 7 2 -387 180 -435 197 l-11
4 10 -11z"/>
<path d="M46963 65528 c-57 -83 -101 -154 -98 -156 6 -7 -3 -19 114 156 56 83
98 152 94 152 -5 0 -54 -68 -110 -152z"/>
<path d="M29077 65353 c-4 -3 -7 -17 -7 -30 l0 -25 13 4 12 5 3 26 3 27 -9 0
c-5 0 -12 -3 -15 -7z"/>
<path d="M51166 65233 c-27 -59 -60 -133 -73 -163 l-25 -55 11 10 c16 16 142
296 139 307 -2 5 -25 -39 -52 -99z"/>
<path d="M40145 64942 l10 -9 194 -27 c107 -14 197 -24 199 -21 6 6 -26 12
-203 35 -88 12 -171 23 -185 26 l-25 5 10 -9z"/>
<path d="M36473 64893 l7 -6 7 6 6 7 -13 0 -13 0 6 -7z"/>
<path d="M1230 64775 l-215 -42 -160 -13 c-88 -6 -162 -14 -164 -16 -7 -7 61
-5 196 6 l128 10 224 42 224 41 14 -19 13 -18 0 21 0 21 -16 6 c-9 3 -19 5
-22 5 -4 -1 -104 -20 -222 -44z"/>
<path d="M52005 64813 c6 -5 62 -45 125 -88 63 -43 137 -94 164 -114 l49 -35
-4 11 c-4 13 -301 221 -328 230 l-16 6 10 -10z"/>
<path d="M81578 64612 l-196 -57 1 -10 2 -10 15 3 c8 2 78 21 155 43 77 22
164 47 193 55 l53 15 -6 9 c-8 13 7 16 -217 -48z"/>
<path d="M28917 64520 l-26 -56 -35 -40 -35 -41 -89 -61 c-49 -33 -169 -104
-266 -157 l-176 -97 0 -9 c0 -5 2 -9 5 -9 12 0 367 202 446 253 l86 56 38 42
37 42 25 53 25 54 -5 13 -4 12 -26 -55z"/>
<path d="M77170 64383 c1 -54 5 -145 10 -203 l8 -104 30 -26 c16 -14 37 -36
45 -50 l15 -25 -2 -77 -2 -78 7 0 c13 0 19 31 20 98 l0 67 9 -22 9 -22 48 -21
48 -21 460 46 c253 25 551 58 663 72 l202 27 0 8 0 8 -17 0 c-10 0 -90 -9
-178 -21 -88 -11 -382 -42 -654 -69 l-494 -48 -36 23 c-20 12 -46 33 -58 46
-12 13 -39 41 -59 61 l-37 37 -8 78 c-4 43 -8 131 -8 196 l-1 117 -10 0 -10 0
0 -97z"/>
<path d="M1225 64449 c-16 -4 -92 -13 -169 -19 -77 -6 -142 -13 -145 -15 -2
-3 53 -5 123 -5 l128 0 54 16 54 15 0 10 c0 11 -5 10 -45 -2z"/>
<path d="M46647 64408 c-8 -13 -43 -75 -79 -138 l-65 -115 -43 -102 -42 -103
-9 0 -8 0 5 -13 5 -13 17 -1 c9 -1 94 -29 189 -62 94 -34 180 -64 190 -67 l18
-7 -10 10 c-5 6 -91 39 -190 73 -99 35 -184 66 -188 70 l-8 7 44 104 44 105
60 105 c72 124 95 169 88 169 -2 0 -11 -10 -18 -22z"/>
<path d="M40584 64118 l-46 -62 6 -29 6 -29 116 -129 c106 -119 138 -150 117
-116 -4 7 -55 66 -113 131 l-105 117 -7 24 -6 24 37 53 c48 68 53 78 47 78 -4
0 -27 -28 -52 -62z"/>
<path d="M40720 64150 l0 -10 30 0 30 0 0 10 0 10 -30 0 -30 0 0 -10z"/>
<path d="M40072 64085 l-12 -25 9 0 c4 0 13 11 19 25 l12 25 -9 0 c-4 0 -13
-11 -19 -25z"/>
<path d="M76973 64024 c-11 -16 -30 -48 -41 -70 l-21 -42 6 -6 7 -6 38 66 39
67 -4 10 -3 10 -21 -29z"/>
<path d="M78523 63981 c-190 -24 -236 -33 -222 -45 3 -2 433 49 447 53 6 2 1
21 -5 20 -5 -1 -103 -13 -220 -28z"/>
<path d="M58980 63799 c-74 -55 -160 -114 -190 -131 -255 -146 -849 -496 -950
-561 -343 -221 -583 -387 -664 -458 l-9 -8 16 -7 16 -6 68 55 c37 30 131 96
208 146 l140 91 13 -5 13 -5 -5 9 -6 9 138 90 c75 49 227 142 337 207 110 65
322 190 470 278 l270 160 147 105 146 105 -5 14 c-3 7 -8 13 -12 12 -3 0 -67
-45 -141 -100z"/>
<path d="M36880 63877 c0 -13 -65 -457 -75 -509 l-4 -28 7 0 8 0 12 88 c7 48
25 171 41 275 l28 187 -9 0 c-4 0 -8 -6 -8 -13z"/>
<path d="M76810 63762 l0 -9 48 -11 c26 -6 55 -14 65 -17 l17 -7 0 10 0 10
-47 16 c-26 9 -55 16 -65 16 l-18 0 0 -8z"/>
<path d="M69465 63427 c-363 -104 -662 -191 -664 -193 -2 -2 -1 -7 2 -10 l6
-7 653 188 c359 103 659 191 667 195 l14 7 -9 5 -9 5 -660 -190z"/>
<path d="M69912 63501 c-111 -32 -205 -61 -209 -65 l-6 -6 6 -6 6 -7 168 47
c92 26 192 54 221 62 l52 15 0 10 0 9 -17 -1 c-10 0 -109 -26 -221 -58z"/>
<path d="M58470 63412 c-118 -59 -825 -480 -817 -488 2 -2 32 7 66 21 l62 26
346 206 c191 113 368 215 394 225 l48 20 -6 14 c-7 18 -6 19 -93 -24z"/>
<path d="M16470 63390 l0 -10 14 0 c7 0 33 -9 58 -20 l44 -19 33 -41 32 -40
10 6 10 6 -37 41 -37 42 -41 22 -41 22 -22 1 -23 0 0 -10z"/>
<path d="M16247 63320 c-47 -39 -114 -86 -148 -106 l-63 -35 -95 -27 -96 -27
24 -3 24 -4 81 23 81 23 60 36 c33 20 99 68 147 107 l88 72 -9 5 -9 6 -85 -70z"/>
<path d="M16357 63315 l-17 -36 0 -39 0 -38 26 -31 26 -31 9 6 10 5 -26 31
-25 30 0 28 c0 15 7 44 15 63 17 42 18 47 7 47 -5 0 -16 -16 -25 -35z"/>
<path d="M31925 63342 l10 -9 290 -32 c292 -32 322 -34 314 -27 -2 2 -128 18
-279 35 -151 17 -291 34 -310 37 l-35 6 10 -10z"/>
<path d="M31925 63302 l10 -9 294 -32 c162 -17 296 -29 299 -27 7 7 -46 14
-303 41 -132 14 -256 28 -275 31 l-35 6 10 -10z"/>
<path d="M69035 63251 c-195 -57 -581 -188 -632 -215 l-26 -13 11 -7 11 -7 31
16 c59 30 329 120 574 190 l250 72 4 11 4 12 -14 -1 c-7 0 -103 -27 -213 -58z"/>
<path d="M77315 63183 c8 -32 34 -145 59 -252 25 -106 46 -196 46 -199 0 -3 4
-2 9 4 l10 9 -58 244 -57 245 -11 3 -11 4 13 -58z"/>
<path d="M45510 63048 c-119 -201 -117 -197 -98 -178 22 21 210 341 205 347
-3 2 -51 -74 -107 -169z"/>
<path d="M40797 63145 l-17 -12 151 -169 c83 -93 154 -170 158 -172 5 -1 13 3
19 10 l10 13 -152 171 -153 171 -16 -12z"/>
<path d="M21037 63096 l-7 -19 13 -21 c19 -28 41 -38 174 -80 156 -50 165 -44
12 8 -69 24 -135 48 -147 55 l-22 11 -8 32 -8 32 -7 -18z"/>
<path d="M13740 63080 l-25 -8 155 1 155 2 35 -8 35 -7 -30 14 -30 15 -135 0
-135 -1 -25 -8z"/>
<path d="M10000 63008 l0 -8 88 1 c91 2 81 6 -26 11 l-62 3 0 -7z"/>
<path d="M15030 62993 l0 -32 10 -6 10 -6 0 23 c0 13 -5 30 -10 38 l-10 15 0
-32z"/>
<path d="M10293 62993 c9 -2 23 -2 30 0 l12 5 -30 0 -30 0 18 -5z"/>
<path d="M51552 62776 l-72 -155 -135 -205 c-74 -113 -135 -208 -135 -211 0
-3 6 -5 13 -5 l12 1 133 204 133 204 70 151 71 152 -9 9 -10 10 -71 -155z"/>
<path d="M16005 62909 l20 -13 145 -2 145 -2 -130 8 c-71 4 -146 11 -165 15
l-35 6 20 -12z"/>
<path d="M16920 62895 c-85 -7 -159 -14 -164 -14 -5 -1 -7 -3 -4 -6 6 -6 430
24 437 30 7 8 -100 3 -269 -10z"/>
<path d="M51626 62813 c-21 -49 -60 -130 -87 -181 -51 -96 -56 -112 -38 -112
l10 0 83 173 c46 94 86 180 89 190 l6 17 -13 0 -13 0 -37 -87z"/>
<path d="M57605 62883 c-107 -56 -298 -193 -270 -193 5 0 297 189 310 201 l9
9 -9 0 c-6 -1 -23 -8 -40 -17z"/>
<path d="M16670 62800 l0 -90 10 0 10 0 0 90 0 90 -10 0 -10 0 0 -90z"/>
<path d="M43442 62699 c-84 -73 -152 -136 -152 -141 0 -5 69 51 153 124 83 72
154 133 156 135 2 2 2 5 -1 8 -2 3 -73 -54 -156 -126z"/>
<path d="M12853 62813 l7 -6 7 6 6 7 -13 0 -13 0 6 -7z"/>
<path d="M12530 62800 l-45 -8 165 6 c91 2 167 6 169 8 8 7 -243 1 -289 -6z"/>
<path d="M41340 62756 c0 -2 7 -9 15 -16 l15 -12 0 16 0 16 -15 0 c-8 0 -15
-2 -15 -4z"/>
<path d="M67895 62607 l-89 -142 -39 -42 -40 -43 15 0 16 0 36 43 c20 23 77
106 126 185 l89 142 -12 0 -12 0 -90 -143z"/>
<path d="M11095 62720 l-18 -20 -198 0 -198 0 -7 -12 -7 -11 144 6 c79 4 172
7 206 7 l62 0 28 25 28 24 -11 1 c-6 0 -19 -9 -29 -20z"/>
<path d="M41370 62716 c0 -2 8 -10 18 -17 l17 -14 -14 18 c-13 16 -21 21 -21
13z"/>
<path d="M29575 62480 l-120 -148 -17 -46 c-23 -60 -13 -60 12 0 l20 45 112
137 c61 75 116 143 121 150 l9 12 -8 -1 c-5 0 -63 -67 -129 -149z"/>
<path d="M58005 62409 c-115 -94 -212 -176 -214 -182 l-4 -11 49 39 c27 22
127 102 222 179 94 76 172 140 172 142 0 13 -35 -13 -225 -167z"/>
<path d="M88992 62380 l4 -15 174 -147 173 -147 9 5 10 6 -9 7 c-41 36 -332
280 -347 291 l-19 15 5 -15z"/>
<path d="M16952 62370 l5 -15 169 -102 c93 -55 171 -99 173 -97 9 8 -24 31
-164 114 -77 46 -151 90 -164 99 l-24 15 5 -14z"/>
<path d="M40580 62265 l-13 -15 17 6 c9 3 16 10 16 15 0 13 -6 11 -20 -6z"/>
<path d="M57533 62082 c-123 -96 -221 -177 -218 -180 2 -2 97 69 211 159 114
90 215 169 223 176 9 6 14 14 11 16 -3 3 -105 -74 -227 -171z"/>
<path d="M65793 62253 l-313 -3 0 -10 0 -10 233 0 c129 0 336 3 460 7 l227 6
0 9 0 8 -147 -2 c-82 -2 -289 -4 -460 -5z"/>
<path d="M64090 62230 l0 -10 230 0 230 0 0 10 0 10 -230 0 -230 0 0 -10z"/>
<path d="M40636 62068 c14 -46 32 -94 41 -106 l15 -24 5 6 6 6 -12 23 c-6 12
-22 55 -34 96 l-22 74 -12 4 -12 4 25 -83z"/>
<path d="M94255 61863 c-49 -60 -110 -129 -134 -156 l-44 -47 6 -7 7 -6 16 14
c25 20 254 293 254 302 0 20 -22 -2 -105 -100z"/>
<path d="M57141 61448 l-9 -25 -146 -108 c-80 -60 -144 -110 -141 -113 2 -3
72 46 154 107 l149 112 6 21 c8 31 -2 36 -13 6z"/>
<path d="M60252 61259 l-153 -151 6 -6 5 -6 43 39 c98 91 267 260 267 267 0
19 -24 -2 -168 -143z"/>
<path d="M49835 60967 c-16 -28 -38 -71 -47 -94 l-18 -43 13 0 13 0 26 53 c15
28 39 71 53 95 l26 42 -18 0 -18 0 -30 -53z"/>
<path d="M58150 60894 c0 -7 53 -99 117 -205 132 -220 122 -204 127 -198 3 3
-131 231 -234 399 l-9 15 -1 -11z"/>
<path d="M53485 60573 l8 -48 -1 -165 c-1 -91 -4 -185 -7 -210 l-5 -45 10 25
11 25 2 160 c1 88 0 193 -2 233 l-4 72 -10 0 -9 0 7 -47z"/>
<path d="M57316 60458 c4 -7 22 -32 40 -54 l33 -41 71 -54 70 -54 -17 -6 -17
-6 12 -7 11 -7 26 7 26 6 -3 8 c-2 4 -40 35 -85 69 l-83 62 -36 45 c-20 24
-41 44 -46 44 l-9 0 7 -12z"/>
<path d="M62621 60365 c-63 -14 -253 -52 -423 -86 l-308 -62 0 -7 0 -6 413 83
c226 46 421 87 432 92 30 15 10 12 -114 -14z"/>
<path d="M58406 60298 c20 -40 43 -81 52 -90 l15 -18 27 0 c39 0 90 11 90 20
l0 7 -50 -11 -49 -10 -19 17 c-10 9 -33 48 -52 87 -19 38 -38 70 -42 70 l-8 0
36 -72z"/>
<path d="M28784 60268 c-10 -15 -75 -440 -68 -447 2 -2 6 -2 9 0 6 6 74 453
70 457 -2 2 -7 -3 -11 -10z"/>
<path d="M62118 60222 c-120 -25 -216 -48 -213 -50 2 -3 104 15 225 39 l220
43 0 8 c0 10 23 14 -232 -40z"/>
<path d="M58642 60190 c-18 -4 -36 -10 -39 -14 l-6 -6 38 3 37 2 34 -60 c53
-95 264 -558 374 -823 23 -56 44 -101 47 -99 5 6 -128 327 -229 552 -78 173
-215 456 -221 454 -1 -1 -17 -5 -35 -9z"/>
<path d="M58850 59931 c0 -8 25 -71 57 -140 31 -69 67 -150 80 -180 13 -29 26
-51 29 -49 2 3 -34 90 -81 194 -46 104 -85 183 -85 175z"/>
<path d="M28609 59683 c-26 -82 -58 -174 -73 -205 l-26 -58 9 0 10 0 26 58
c23 50 115 324 115 345 0 4 -3 7 -8 7 l-7 0 -46 -147z"/>
<path d="M53330 59623 c0 -12 38 -48 45 -41 3 2 -6 15 -20 28 l-25 23 0 -10z"/>
<path d="M45388 59453 c166 -174 202 -210 202 -199 0 11 -333 356 -344 356 -4
0 59 -71 142 -157z"/>
<path d="M47066 59441 l-6 -9 16 -6 c20 -8 29 -1 19 13 -8 13 -22 14 -29 2z"/>
<path d="M46982 59410 l-12 -20 0 -27 0 -27 9 10 c8 9 25 84 19 84 -2 0 -9 -9
-16 -20z"/>
<path d="M59857 59365 c-114 -23 -210 -45 -214 -49 l-6 -6 9 0 c5 1 115 23
244 49 l235 49 -30 0 c-16 0 -123 -19 -238 -43z"/>
<path d="M63084 59313 c2 -10 24 -112 47 -228 23 -115 44 -212 46 -214 1 -2 6
-2 9 2 l6 6 -36 176 c-20 97 -41 199 -47 226 l-11 49 -10 0 -9 0 5 -17z"/>
<path d="M49100 58834 c-89 -119 -157 -215 -152 -213 14 5 325 419 319 425 -2
3 -77 -93 -167 -212z"/>
<path d="M38720 58930 c-84 -7 -84 -13 0 -10 30 2 134 6 230 10 l175 7 -165 0
c-91 -1 -199 -3 -240 -7z"/>
<path d="M62858 58762 l-178 -36 0 -9 0 -8 18 5 c9 3 96 22 192 41 188 38 209
44 170 43 -14 0 -105 -16 -202 -36z"/>
<path d="M84056 58738 c9 -18 47 -89 84 -158 37 -69 73 -143 80 -165 7 -22 16
-44 21 -49 l9 -10 0 11 c0 37 -184 403 -203 403 l-8 0 17 -32z"/>
<path d="M51140 58666 l0 -15 103 -74 c102 -74 169 -117 181 -117 3 0 6 6 6
13 l0 12 -37 20 c-21 11 -80 52 -133 90 -52 39 -101 74 -107 79 l-13 7 0 -15z"/>
<path d="M55071 58585 c9 -9 391 -116 402 -112 l11 3 -200 57 c-192 55 -223
62 -213 52z"/>
<path d="M55061 58546 c5 -5 390 -116 403 -116 25 0 -15 14 -191 65 -175 50
-223 62 -212 51z"/>
<path d="M59580 58512 c0 -4 172 -70 381 -147 l381 -140 13 -32 13 -31 32 -7
32 -7 24 23 24 22 0 17 0 17 188 38 c103 20 194 42 202 47 l15 9 -25 -5 c-14
-2 -106 -21 -205 -41 l-179 -38 -4 12 c-2 6 -7 11 -12 11 l-9 0 5 -32 4 -32
-16 -17 -16 -18 -16 6 c-10 3 -25 13 -34 21 l-18 15 10 12 10 12 -7 6 c-3 4
-14 7 -23 7 -13 0 -198 67 -717 260 l-53 20 0 -8z"/>
<path d="M63900 58475 c0 -5 30 -149 66 -320 36 -170 97 -469 135 -664 61
-314 79 -393 79 -353 0 24 -145 751 -206 1037 -57 263 -74 332 -74 300z"/>
<path d="M59995 58401 c9 -9 181 -75 345 -132 l54 -19 -9 9 c-8 8 -149 62
-360 137 l-40 15 10 -10z"/>
<path d="M55900 58311 c21 -13 403 -111 408 -106 6 6 3 7 -217 64 -201 53
-216 56 -191 42z"/>
<path d="M56325 58242 c6 -5 63 -26 128 -45 l117 -35 0 7 c0 4 -49 21 -109 39
-60 18 -117 35 -128 38 l-18 7 10 -11z"/>
<path d="M83645 58121 l-200 -68 -167 -39 -168 -39 0 -12 0 -13 23 5 c12 2
103 25 202 49 l180 45 174 59 175 58 4 12 4 12 -14 -1 c-7 0 -103 -31 -213
-68z"/>
<path d="M83695 58084 c-99 -35 -184 -64 -189 -66 l-10 -4 7 -11 6 -10 178 62
c98 34 183 64 190 66 l12 4 -7 11 -7 10 -180 -62z"/>
<path d="M46281 57953 c7 -10 30 -38 50 -63 20 -25 69 -103 109 -175 40 -71
76 -134 81 -139 l9 -10 0 12 c0 7 -32 70 -72 140 l-71 127 -49 63 c-28 34 -54
62 -60 62 l-10 0 13 -17z"/>
<path d="M82650 57859 c-37 -15 -191 -45 -302 -60 l-98 -12 0 -15 0 -14 28 6
c15 3 50 8 77 11 86 11 218 36 273 51 l52 15 0 14 c0 8 -1 15 -2 14 -2 0 -14
-5 -28 -10z"/>
<path d="M55050 57694 c-107 -12 -201 -23 -209 -23 l-14 -1 6 -6 6 -7 208 23
208 23 10 9 9 8 -14 -1 c-8 -1 -103 -12 -210 -25z"/>
<path d="M37000 57458 l0 -11 -132 -128 c-73 -71 -130 -129 -126 -129 12 0
241 219 261 250 l19 30 -11 0 -11 0 0 -12z"/>
<path d="M38054 57223 l4 -62 -28 -106 c-16 -58 -38 -130 -49 -160 l-21 -55 8
0 8 0 32 98 c18 53 39 127 48 164 l16 68 -10 57 -11 58 3 -62z"/>
<path d="M38095 57220 l4 -65 -45 -150 c-24 -82 -47 -159 -50 -170 l-6 -20 10
10 c5 6 31 84 57 174 l47 164 -10 61 -11 61 4 -65z"/>
<path d="M64221 57124 c-1 -19 73 -387 85 -423 2 -8 6 -12 9 -10 3 4 -69 363
-88 435 l-5 19 -1 -21z"/>
<path d="M49756 57081 l-6 -9 42 -25 c24 -13 70 -39 103 -57 33 -18 102 -57
153 -87 l93 -55 6 6 c8 8 14 4 -102 71 -55 32 -131 77 -170 100 -38 23 -80 47
-92 53 l-22 12 -5 -9z"/>
<path d="M36290 56769 c-80 -77 -133 -132 -119 -122 42 30 284 263 273 263 -5
0 -75 -63 -154 -141z"/>
<path d="M36323 56747 c-78 -73 -142 -136 -142 -140 -1 -12 44 27 178 153 63
60 113 111 110 114 -2 3 -68 -55 -146 -127z"/>
<path d="M50425 56643 l6 -48 28 -35 c40 -51 67 -107 81 -171 l13 -56 -5 -64
-4 -64 -26 -63 -26 -62 8 -5 8 -5 15 23 c8 13 22 48 31 77 l16 54 0 76 0 76
-16 55 -16 54 -35 53 c-19 28 -39 55 -44 58 l-9 5 0 29 c0 35 -9 60 -22 60
l-10 0 7 -47z"/>
<path d="M64274 56659 c3 -14 24 -113 46 -219 l40 -193 -15 -17 c-8 -9 -15
-23 -15 -31 l0 -14 24 30 c13 16 23 32 21 35 -2 3 -22 95 -45 205 -23 110 -47
207 -52 215 l-9 15 5 -26z"/>
<path d="M37338 56458 c-52 -158 -63 -197 -82 -281 l-7 -29 9 6 9 6 7 42 c4
24 34 125 67 226 33 100 59 187 57 193 -2 5 -29 -68 -60 -163z"/>
<path d="M90572 56486 c-12 -18 -87 -97 -166 -175 l-144 -141 9 -6 10 -6 153
154 c85 84 159 163 165 175 l11 22 -8 5 -8 4 -22 -32z"/>
<path d="M90995 56311 c3 -6 72 -44 153 -87 81 -42 168 -92 195 -110 l47 -34
0 10 c0 5 -15 20 -32 33 -32 23 -353 197 -364 197 -3 0 -3 -4 1 -9z"/>
<path d="M64430 56242 l35 -17 3 -33 3 -34 -17 -19 -17 -19 -32 0 -31 0 -10
10 -10 10 -262 -52 c-144 -29 -262 -55 -262 -59 0 -3 116 17 259 46 l258 52
19 -14 19 -14 30 7 30 6 23 21 23 22 -6 35 -6 35 -21 18 -20 17 -22 0 -21 0
35 -18z"/>
<path d="M90060 56074 c-85 -74 -166 -147 -180 -161 l-25 -26 18 6 c22 8 357
297 357 309 0 17 -20 3 -170 -128z"/>
<path d="M46850 56148 c0 -33 67 -405 75 -417 6 -11 35 -16 35 -6 0 11 -71
411 -76 428 l-5 17 -15 0 -14 0 0 -22z"/>
<path d="M37700 55718 l-22 -193 -21 -22 -20 -23 10 0 c5 0 17 8 26 18 l15 17
24 198 24 197 -7 0 -6 0 -23 -192z"/>
<path d="M35725 55880 l6 -10 22 1 22 0 -20 9 c-11 5 -24 9 -28 9 l-8 1 6 -10z"/>
<path d="M61810 55749 l0 -10 10 6 c6 3 10 8 10 11 0 2 -4 4 -10 4 -5 0 -10
-5 -10 -11z"/>
<path d="M51181 55489 c-106 -121 -191 -222 -189 -225 4 -4 81 82 362 404 16
18 27 35 24 37 -3 3 -91 -94 -197 -216z"/>
<path d="M50370 55427 c0 -3 31 -35 70 -73 74 -71 145 -123 201 -147 l34 -14
20 7 19 7 -40 6 -40 7 -60 41 c-32 23 -81 63 -109 88 -66 61 -95 85 -95 78z"/>
<path d="M82810 55185 c-7 -8 -35 -28 -64 -43 l-51 -29 -142 -48 c-79 -27
-143 -52 -143 -56 l0 -7 113 39 c61 22 141 51 178 65 l65 24 35 29 34 29 -6 6
-6 6 -13 -15z"/>
<path d="M50910 55102 c0 -5 11 -17 25 -26 l25 -16 16 -31 16 -31 -5 -19 -5
-19 8 0 c4 0 11 7 14 16 l6 15 -18 33 -17 34 -32 27 -33 27 0 -10z"/>
<path d="M55202 54870 l-74 -220 5 -13 4 -12 73 220 c40 121 75 226 78 233 l4
12 -9 0 -8 0 -73 -220z"/>
<path d="M50655 54991 c8 -17 20 -33 26 -37 l12 -7 -5 9 c-20 44 -33 64 -40
64 l-9 0 16 -29z"/>
<path d="M51980 54990 c41 -4 106 -8 143 -9 l69 -1 29 -17 c16 -10 29 -21 29
-25 0 -4 -54 -88 -120 -187 l-120 -181 -146 -190 -146 -191 -12 14 c-20 26
-526 427 -526 418 0 -5 119 -104 264 -220 146 -117 267 -217 270 -224 l5 -12
13 15 c7 9 70 90 140 181 l126 166 127 194 c70 107 132 199 138 204 7 6 13 16
15 23 l2 12 -15 0 c-9 0 -28 8 -42 18 l-27 17 -146 1 -145 2 75 -8z"/>
<path d="M47310 54951 c5 -11 15 -23 20 -26 l10 -6 0 13 c0 15 -19 38 -32 38
l-9 0 11 -19z"/>
<path d="M53280 54940 c0 -5 5 -20 12 -34 l11 -26 -133 -199 -132 -200 -179
122 c-98 66 -181 118 -184 115 -3 -2 76 -58 175 -124 l180 -119 -5 -13 c-3 -7
-111 -174 -241 -369 -238 -360 -282 -434 -315 -532 -23 -65 -23 -67 -5 -52
l14 12 6 34 7 35 46 87 46 88 364 549 c201 302 367 555 370 562 l4 12 -16 31
c-16 31 -25 39 -25 21z"/>
<path d="M47110 54886 c-5 -15 -10 -38 -10 -52 l0 -25 15 -29 15 -29 33 -25
c39 -30 47 -32 47 -12 l0 14 -25 16 -25 16 -15 30 -15 29 2 40 c1 23 -2 44 -5
47 l-6 7 -11 -27z"/>
<path d="M52255 54742 l-100 -157 -169 -225 c-93 -124 -170 -227 -172 -229 -3
-3 -18 5 -34 17 -45 34 -48 26 -6 -13 21 -19 42 -35 47 -35 5 0 44 -35 86 -78
43 -43 113 -108 155 -146 86 -75 239 -188 247 -181 5 6 12 1 -74 61 -79 55
-225 181 -300 258 -27 29 -65 63 -83 77 l-33 25 157 209 c158 211 388 550 382
565 -2 5 -48 -62 -103 -148z"/>
<path d="M50867 54856 l-38 -12 6 -6 6 -6 35 11 c19 6 34 14 34 19 0 4 -1 8
-2 7 -2 -1 -20 -6 -41 -13z"/>
<path d="M50001 54715 c-105 -52 -191 -97 -191 -99 0 -8 66 22 232 105 137 68
172 89 154 89 -2 0 -90 -43 -195 -95z"/>
<path d="M47303 54745 l-23 -10 0 -12 0 -13 13 0 c7 0 21 6 30 13 l17 12 -8
10 -7 10 -22 -10z"/>
<path d="M46873 54607 l4 -12 22 -3 23 -4 -6 10 c-3 5 -15 12 -26 15 l-21 5 4
-11z"/>
<path d="M52838 54353 c-59 -89 -157 -241 -219 -339 -62 -97 -145 -221 -186
-275 -40 -55 -69 -99 -65 -99 8 0 144 180 185 247 15 23 110 168 212 323 l186
282 -4 11 -4 12 -105 -162z"/>
<path d="M52960 54471 c0 -10 30 -24 37 -17 3 2 -5 9 -16 16 l-21 11 0 -10z"/>
<path d="M53733 54463 c-15 -6 -226 -313 -220 -320 3 -2 49 60 102 139 54 79
107 153 118 166 21 23 21 24 0 15z"/>
<path d="M49592 54303 c-101 -52 -181 -97 -178 -100 5 -5 352 171 371 188 l9
9 -9 -1 c-6 -1 -92 -44 -193 -96z"/>
<path d="M88035 54386 l-20 -15 10 -2 c6 0 27 0 48 1 l38 2 14 -12 14 -12 13
4 13 5 -25 15 c-14 9 -39 19 -55 22 l-30 7 -20 -15z"/>
<path d="M33396 54232 c13 -12 135 -44 142 -37 3 3 3 8 0 11 -8 8 -109 34
-132 34 l-20 0 10 -8z"/>
<path d="M87834 54097 c-99 -67 -191 -130 -204 -139 l-24 -18 6 -6 7 -6 178
119 c98 66 188 125 200 132 l22 11 25 -11 25 -12 25 7 26 6 0 10 0 9 -33 -6
-33 -5 -13 16 c-7 9 -16 16 -20 15 -3 0 -87 -55 -187 -122z"/>
<path d="M5720 54199 l0 -14 216 -74 216 -73 9 9 10 10 -213 73 c-117 40 -219
75 -225 77 l-13 5 0 -13z"/>
<path d="M51651 54153 c2 -6 51 -49 109 -96 l105 -84 25 -8 25 -8 100 -91 c96
-88 262 -213 270 -204 3 2 -30 29 -72 59 -43 29 -125 98 -183 151 l-107 97
-25 6 -24 6 -70 57 c-125 102 -157 126 -153 115z"/>
<path d="M54952 54100 c-6 -19 -31 -103 -56 -186 -25 -83 -63 -204 -85 -270
-22 -65 -78 -249 -125 -409 -47 -159 -109 -362 -137 -450 l-51 -160 -8 -65 -8
-65 -46 -149 -46 -148 1 -32 2 -31 4 25 c2 14 27 99 54 188 l50 164 4 51 3 52
85 273 c47 150 89 286 92 302 l6 29 30 6 30 7 197 -131 c109 -72 204 -131 211
-131 l13 0 -203 135 -204 135 -31 0 -31 0 15 55 15 55 26 -23 c14 -14 89 -66
166 -118 l140 -93 59 -18 c33 -10 64 -17 70 -15 l11 4 -70 22 -70 22 -149 102
-150 102 -12 20 -12 20 39 125 c119 381 188 616 185 625 l-3 10 -11 -35z"/>
<path d="M33452 54088 l3 -31 11 -4 10 -3 -4 35 -4 35 -10 0 -9 0 3 -32z"/>
<path d="M46866 53953 c-3 -32 -8 -112 -11 -178 -3 -66 -8 -147 -11 -180 l-5
-60 9 15 9 15 12 219 c11 209 10 294 -3 169z"/>
<path d="M33246 53853 l-159 -127 12 -4 11 -4 153 122 c143 114 170 140 150
140 -4 0 -80 -57 -167 -127z"/>
<path d="M31206 53925 c-4 -19 -45 -125 -91 -235 -47 -110 -85 -203 -85 -207
l0 -7 9 10 c15 14 177 404 184 442 l7 32 -9 0 -9 0 -6 -35z"/>
<path d="M11103 53893 l-11 -4 55 -122 c30 -67 74 -158 98 -202 l44 -80 140
-140 140 -139 8 7 7 7 -40 43 c-22 23 -87 92 -145 152 l-104 110 -66 135 c-36
74 -76 158 -90 186 l-24 51 -12 -4z"/>
<path d="M20706 53864 l-58 -25 -77 0 c-42 0 -170 10 -286 21 l-210 20 -138 0
-138 0 -72 -11 c-106 -15 -260 -50 -272 -61 l-10 -10 20 5 c56 16 169 39 257
52 l98 15 105 0 105 0 270 -25 271 -25 42 6 c50 7 157 46 157 56 0 5 -1 8 -2
7 -2 0 -29 -12 -62 -25z"/>
<path d="M13471 53873 c0 -10 348 -289 354 -285 13 7 -7 25 -166 153 -161 130
-190 150 -188 132z"/>
<path d="M50902 53823 l-12 -5 5 -8 6 -9 14 6 c8 3 15 9 15 14 0 10 -8 10 -28
2z"/>
<path d="M61245 53719 c-10 -46 -85 -454 -85 -468 0 -8 2 -12 5 -9 7 7 95 491
90 496 -2 2 -7 -6 -10 -19z"/>
<path d="M51740 53703 c0 -4 42 -41 93 -82 l92 -74 97 -111 c54 -61 111 -133
128 -159 l30 -47 10 0 c5 0 10 2 10 5 0 15 -80 122 -163 215 l-92 106 -92 74
c-50 41 -96 76 -102 78 l-11 4 0 -9z"/>
<path d="M51789 53406 c-88 -33 -164 -74 -155 -83 3 -3 18 4 34 16 16 11 69
35 118 52 94 34 100 37 93 43 -2 2 -43 -10 -90 -28z"/>
<path d="M65032 53319 c-123 -26 -226 -50 -230 -54 l-7 -8 25 6 c14 3 117 24
230 47 113 24 207 44 209 46 14 12 -26 6 -227 -37z"/>
<path d="M60750 53355 c0 -6 398 -135 418 -135 14 1 -398 140 -414 140 -2 0
-4 -2 -4 -5z"/>
<path d="M79440 53331 c0 -18 99 -413 105 -419 15 -15 11 15 -15 128 -16 69
-37 163 -48 209 l-19 85 -11 4 -12 4 0 -11z"/>
<path d="M52442 53266 l-22 -24 -103 -7 -102 -8 22 -8 22 -8 88 10 87 10 23
21 c23 21 30 38 16 38 -5 0 -18 -11 -31 -24z"/>
<path d="M56880 53135 l-35 -14 -177 -12 -178 -12 0 -9 0 -9 18 5 c9 2 96 10
192 16 l175 12 30 19 c35 22 25 23 -25 4z"/>
<path d="M55211 53079 l-20 -22 -7 -46 -6 -46 -131 -253 -130 -254 -58 -71
-59 -72 -47 -32 c-27 -18 -117 -65 -200 -104 l-153 -73 0 -13 0 -14 20 6 c11
3 86 38 167 77 l148 71 42 32 c23 18 69 65 103 105 l60 72 135 269 135 268 0
31 0 30 20 20 c21 21 26 40 10 40 -5 0 -18 -10 -29 -21z"/>
<path d="M55410 53090 l-15 -10 12 0 c6 0 15 5 18 10 8 12 4 12 -15 0z"/>
<path d="M55400 52916 l0 -15 18 -5 c9 -3 53 -10 97 -16 44 -6 130 -22 190
-35 l110 -24 275 -92 275 -92 240 -97 c132 -54 335 -136 450 -183 280 -114
508 -225 810 -394 138 -77 347 -193 465 -259 l215 -119 205 -96 205 -97 7 11
c4 6 6 13 4 14 -1 1 -110 53 -241 116 l-240 114 -160 90 c-905 509 -813 464
-1710 828 -99 41 -269 104 -377 141 l-198 67 0 8 c0 5 9 13 21 19 23 13 78 70
79 83 0 4 -6 7 -13 7 l-13 0 -22 -30 -22 -30 -39 -19 -38 -20 -67 25 c-89 32
-243 68 -381 89 -60 9 -118 19 -127 21 l-18 5 0 -15z"/>
<path d="M12734 52782 c-18 -26 -64 -93 -103 -149 l-72 -103 13 0 13 1 80 116
c44 63 88 128 98 143 l18 28 -8 5 -8 5 -31 -46z"/>
<path d="M14955 52769 l-6 -9 33 -14 c18 -8 109 -49 202 -90 94 -42 176 -76
183 -76 35 0 -1 21 -145 84 -86 38 -180 80 -209 92 l-52 23 -6 -10z"/>
<path d="M54983 52407 l-91 -132 -45 -42 -45 -42 12 -4 11 -4 46 41 46 41 85
125 c46 69 88 131 92 138 l7 12 -13 0 -14 0 -91 -133z"/>
<path d="M12504 52479 c-3 -6 -4 -12 -3 -13 2 -2 91 -63 197 -136 l194 -132 9
9 10 10 -83 55 c-46 31 -136 92 -200 137 l-117 81 -7 -11z"/>
<path d="M48225 52420 c22 -4 52 -12 68 -18 l27 -12 0 10 0 10 -26 10 -25 10
-42 -1 -42 -2 40 -7z"/>
<path d="M48163 52413 l7 -6 7 6 6 7 -13 0 -13 0 6 -7z"/>
<path d="M53022 52341 c16 -43 355 -731 360 -731 4 0 -31 78 -76 173 -229 474
-275 567 -281 567 -4 0 -5 -4 -3 -9z"/>
<path d="M46499 52129 c-44 -89 -79 -163 -77 -165 2 -2 41 71 86 161 45 91 80
165 77 165 -3 0 -41 -72 -86 -161z"/>
<path d="M54291 52104 l-31 -26 0 -21 0 -22 -215 -108 -215 -107 0 -10 c0 -5
3 -10 8 -11 4 0 105 48 224 108 l217 108 0 21 1 21 24 22 23 22 29 3 28 3 4
12 4 11 -35 0 -35 0 -31 -26z"/>
<path d="M52747 52033 c-4 -3 -7 -11 -7 -17 l0 -10 12 12 c6 6 9 14 7 17 -3 3
-9 2 -12 -2z"/>
<path d="M54265 51991 l-5 -9 26 -21 c29 -23 40 -26 48 -13 l5 9 -29 21 c-33
25 -37 26 -45 13z"/>
<path d="M88975 51981 l-5 -10 22 -15 22 -16 26 0 26 0 22 16 22 15 -6 10 -6
10 -11 -9 c-7 -5 -24 -12 -38 -15 l-25 -6 -22 14 -21 15 -6 -9z"/>
<path d="M34306 51653 c-4 -43 -15 -120 -25 -171 l-18 -93 8 -5 8 -4 5 17 c12
41 35 184 42 256 l7 77 -10 0 -10 0 -7 -77z"/>
<path d="M58607 51697 l-5 -13 198 -102 c108 -56 202 -102 209 -102 32 0 -4
23 -161 104 -95 49 -187 97 -204 108 l-32 18 -5 -13z"/>
<path d="M13015 51587 c-28 -39 -78 -106 -112 -149 l-63 -77 9 -5 9 -6 54 68
c49 61 144 190 161 219 l7 12 -7 4 -8 5 -50 -71z"/>
<path d="M17506 51631 c13 -12 738 -310 797 -328 l47 -14 12 7 12 8 -60 17
c-32 9 -223 85 -423 168 -200 83 -371 151 -380 151 l-15 0 10 -9z"/>
<path d="M18402 51289 l4 -13 30 -8 c16 -4 67 -13 114 -19 l85 -10 113 6 112
7 0 10 0 10 -112 -6 -113 -7 -108 15 c-60 9 -113 19 -119 22 l-11 7 5 -14z"/>
<path d="M6053 51265 c4 -11 27 -94 52 -185 57 -204 66 -232 71 -227 7 6 -107
410 -119 422 l-9 10 5 -20z"/>
<path d="M18407 51253 c-3 -4 -12 -45 -22 -90 l-16 -83 -40 -97 c-21 -53 -37
-99 -34 -101 8 -8 10 -3 53 103 l41 100 16 83 c15 75 16 108 2 85z"/>
<path d="M34060 51223 c0 -21 7 -75 16 -121 l17 -83 9 9 9 9 -15 67 -16 67 0
45 0 44 -10 0 -10 0 0 -37z"/>
<path d="M45770 51240 c0 -8 13 -39 28 -68 l28 -52 51 -35 51 -34 67 -16 c38
-8 70 -13 73 -11 2 3 -9 8 -24 12 -16 3 -47 10 -69 16 l-40 9 -52 34 -51 34
-31 63 -30 63 -1 -15z"/>
<path d="M82622 51105 c3 -11 29 -120 59 -242 30 -123 57 -223 60 -223 7 0
-109 472 -118 480 l-6 5 5 -20z"/>
<path d="M5710 50822 l0 -8 227 -27 c209 -24 245 -26 231 -12 -5 6 -397 55
-435 55 l-23 0 0 -8z"/>
<path d="M12313 50598 c4 -46 10 -156 13 -245 l7 -163 10 0 10 0 -7 163 c-3
89 -9 199 -13 245 l-6 82 -10 0 -10 0 6 -82z"/>
<path d="M50158 50663 c-10 -2 -18 -9 -18 -14 l0 -9 14 0 c7 0 19 7 26 15 l12
15 -8 -1 c-5 -1 -17 -3 -26 -6z"/>
<path d="M31493 50471 l-121 -6 -7 -7 -7 -6 155 5 154 6 6 -24 c4 -13 7 -43 7
-66 l0 -43 8 0 7 0 -5 72 -5 73 -35 1 c-19 0 -90 -2 -157 -5z"/>
<path d="M51255 50353 c-104 -52 -192 -97 -194 -98 -1 -2 0 -9 4 -15 l6 -10
187 96 c103 53 191 100 195 104 l9 8 -9 5 -8 5 -190 -95z"/>
<path d="M49558 50259 l-18 -10 41 -77 c74 -137 183 -322 190 -322 4 0 11 6
17 13 l10 12 -72 122 c-39 66 -89 155 -111 196 l-40 76 -17 -10z"/>
<path d="M59202 50087 l4 -95 28 -36 28 -37 5 -79 6 -79 -24 -145 -23 -145 7
-7 c4 -4 9 -5 11 -3 6 6 43 227 50 305 l7 60 -12 55 -11 54 -25 38 -26 37 -2
82 -2 82 -13 4 -12 4 4 -95z"/>
<path d="M34315 50068 c11 -55 16 -68 26 -68 l9 0 0 15 0 15 34 -38 34 -37 8
7 7 7 -36 40 c-19 22 -43 51 -52 65 -10 14 -22 26 -27 26 l-10 0 7 -32z"/>
<path d="M38216 49800 c-25 -107 -49 -206 -53 -220 l-6 -25 11 10 10 10 47
197 47 198 -4 12 -5 13 -47 -195z"/>
<path d="M34264 49853 c2 -10 12 -105 22 -210 l18 -193 8 0 8 0 0 27 c0 35
-29 341 -36 371 l-4 22 -11 0 -10 0 5 -17z"/>
<path d="M49708 49824 l-27 -14 5 -14 5 -14 39 15 38 15 -5 14 c-7 18 -21 17
-55 -2z"/>
<path d="M50101 49761 l-145 -77 -4 -14 -5 -13 19 7 c11 4 83 41 162 82 l142
75 -5 10 c-9 13 -7 14 -164 -70z"/>
<path d="M60370 49816 l0 -13 216 -47 216 -47 6 5 5 6 -6 6 c-3 3 -95 25 -204
50 -109 24 -206 46 -215 48 l-18 4 0 -12z"/>
<path d="M17712 49758 l4 -11 240 -67 239 -67 4 9 c1 5 1 11 -1 13 -5 5 -469
135 -481 135 l-9 0 4 -12z"/>
<path d="M49641 49697 l-1 -29 20 -25 20 -26 0 14 c0 8 -9 32 -19 54 l-19 40
-1 -28z"/>
<path d="M61450 49701 c0 -12 -5 -11 254 -70 205 -48 244 -53 220 -32 -8 7
-445 111 -466 111 -5 0 -8 -4 -8 -9z"/>
<path d="M49839 49644 c-7 -9 -23 -20 -36 -25 l-23 -9 0 -10 0 -10 23 0 24 0
23 25 24 25 -11 11 -10 10 -14 -17z"/>
<path d="M43460 49606 c0 -3 41 -87 90 -187 50 -101 90 -178 90 -172 0 15
-167 363 -174 363 -3 0 -6 -2 -6 -4z"/>
<path d="M50187 49113 l-7 -6 26 -46 c15 -25 69 -113 121 -196 104 -166 485
-808 788 -1327 109 -186 198 -338 200 -338 2 0 -9 33 -24 73 l-27 72 -141 240
c-77 132 -152 262 -168 290 -66 120 -503 851 -571 955 -41 63 -97 154 -125
203 -50 85 -59 94 -72 80z"/>
<path d="M36090 49071 c0 -15 47 -303 56 -340 3 -13 7 -21 9 -19 5 5 -54 360
-61 367 -2 2 -4 -1 -4 -8z"/>
<path d="M50482 48781 l-13 -8 128 -205 c70 -113 180 -289 243 -391 l115 -187
9 3 c6 2 11 8 13 13 l3 10 -118 190 c-149 237 -363 578 -366 581 -1 1 -7 -2
-14 -6z"/>
<path d="M66378 48570 l4 -31 -17 -19 -18 -20 9 0 c6 0 15 5 22 12 l12 12 0
38 0 38 -8 0 -9 0 5 -30z"/>
<path d="M33854 48550 c3 -14 17 -114 32 -222 l27 -198 7 0 6 0 -30 214 -31
214 -8 9 -9 8 6 -25z"/>
<path d="M43250 48559 c0 -8 14 -31 31 -52 l30 -37 12 0 12 0 -11 8 c-6 4 -25
27 -42 51 l-32 44 0 -14z"/>
<path d="M32853 48551 l-91 -6 -7 -7 -7 -7 19 -123 c11 -68 19 -124 18 -125
-1 -2 -106 -9 -234 -17 -128 -8 -236 -17 -239 -20 l-5 -6 26 0 c14 0 92 4 174
10 81 5 182 11 223 14 l75 4 -3 14 c-2 7 -12 62 -23 123 l-19 109 11 11 10 10
94 3 95 4 -6 9 c-3 5 -8 8 -12 7 -4 -1 -48 -4 -99 -7z"/>
<path d="M91057 48329 c-98 -104 -174 -189 -170 -189 11 0 329 334 343 360 6
11 9 20 8 19 -2 0 -83 -85 -181 -190z"/>
<path d="M91234 48463 c-15 -21 -92 -104 -171 -185 -79 -80 -143 -150 -143
-155 0 -4 57 48 126 117 125 124 231 247 222 256 -3 2 -18 -12 -34 -33z"/>
<path d="M50456 48451 l-6 -9 91 -159 c51 -87 148 -243 217 -348 125 -191 167
-249 119 -165 -280 489 -396 685 -404 687 l-11 4 -6 -10z"/>
<path d="M66805 48400 c-4 -6 -5 -12 -4 -14 2 -1 198 -41 434 -89 1106 -222
2959 -598 3040 -616 282 -65 777 -166 1350 -276 760 -145 740 -142 918 -155
l138 -11 195 27 194 27 0 13 0 14 -13 0 c-8 0 -94 -11 -193 -25 l-179 -25 -86
0 -86 0 -109 15 c-241 34 -1662 315 -2124 420 -63 14 -862 177 -1775 361 -913
184 -1667 337 -1677 340 l-16 5 -7 -11z"/>
<path d="M44537 48296 c-35 -30 -99 -92 -140 -137 l-76 -82 6 -10 6 -10 91 94
c50 52 116 115 146 140 l54 46 -11 6 -12 7 -64 -54z"/>
<path d="M50520 48200 l-14 -9 62 -78 c34 -43 94 -126 133 -185 39 -60 74
-108 78 -108 3 0 11 4 18 8 l12 8 -70 109 c-73 113 -187 265 -198 265 -3 0
-13 -4 -21 -10z"/>
<path d="M44150 48079 l-45 -40 -178 -101 c-97 -55 -179 -104 -182 -108 l-5
-9 7 -4 8 -5 181 102 180 101 49 42 50 42 -10 10 -10 9 -45 -39z"/>
<path d="M69180 48028 l0 -14 232 -47 c127 -26 234 -45 236 -42 13 13 -27 25
-223 64 -115 23 -218 45 -227 47 l-18 5 0 -13z"/>
<path d="M83986 47998 c19 -32 217 -299 225 -304 l9 -5 0 6 c0 12 -225 314
-233 315 l-8 0 7 -12z"/>
<path d="M80050 47794 c-80 -69 -149 -129 -153 -134 l-9 -8 11 -6 10 -6 150
130 c136 117 167 150 144 150 -5 0 -73 -57 -153 -126z"/>
<path d="M69661 47873 l0 -28 9 20 c12 27 12 35 0 35 l-10 0 1 -27z"/>
<path d="M75583 47761 c-233 -32 -426 -60 -430 -64 l-6 -7 6 -6 6 -6 393 52
c216 28 410 54 431 57 l37 6 0 13 c0 8 -3 13 -7 13 -5 -1 -198 -27 -430 -58z"/>
<path d="M90477 47590 c-81 -94 -144 -170 -139 -170 5 0 64 63 132 141 164
188 173 199 163 199 -4 -1 -75 -77 -156 -170z"/>
<path d="M22020 47645 c107 -29 197 -52 199 -49 2 2 -2 6 -10 8 -41 15 -358
96 -370 95 -8 0 74 -25 181 -54z"/>
<path d="M33980 47679 c0 -24 40 -270 49 -308 5 -20 15 -56 21 -80 6 -23 13
-41 16 -38 3 3 -4 41 -15 85 -12 44 -30 139 -40 212 -11 73 -22 135 -25 138
l-6 5 0 -14z"/>
<path d="M34020 47674 c0 -31 27 -190 52 -307 l23 -108 70 5 c39 4 164 11 280
17 115 6 212 13 215 16 l5 6 -125 -7 c-69 -3 -195 -9 -280 -12 l-155 -7 -22
99 c-13 54 -30 146 -38 203 -15 98 -25 139 -25 95z"/>
<path d="M74831 47610 c0 -8 4 -24 9 -35 l9 -20 0 20 c0 11 -4 27 -9 35 l-10
15 1 -15z"/>
<path d="M74205 47480 c-110 -16 -208 -29 -217 -29 l-18 -1 0 -15 c0 -8 3 -15
8 -15 13 0 396 51 420 56 l22 4 0 15 c0 8 -3 15 -7 14 -5 -1 -98 -14 -208 -29z"/>
<path d="M41487 47473 c-4 -3 -7 -17 -7 -29 0 -13 -5 -35 -12 -49 l-11 -25
-35 -22 -36 -22 13 -4 12 -4 30 12 30 13 14 27 c8 16 17 46 21 69 l7 41 -10 0
c-5 0 -13 -3 -16 -7z"/>
<path d="M41631 47460 l15 -25 45 -22 44 -22 60 1 60 0 -50 8 -50 8 -45 21
c-25 11 -56 29 -70 38 l-25 18 16 -25z"/>
<path d="M51026 47422 l-5 -8 56 -110 c89 -171 205 -436 258 -586 27 -76 51
-138 54 -138 4 0 12 4 19 8 l13 9 -52 144 c-55 155 -139 350 -225 522 l-55
108 7 11 7 11 -11 -7 -12 -7 -12 25 -11 26 -13 0 c-7 0 -15 -4 -18 -8z"/>
<path d="M36500 47390 l-155 -6 183 -2 182 -2 0 10 0 10 -27 -2 c-16 -1 -98
-5 -183 -8z"/>
<path d="M51144 47288 c48 -89 170 -359 201 -445 27 -75 29 -59 5 31 -27 98
-73 199 -167 364 -83 145 -111 181 -39 50z"/>
<path d="M41415 47313 c-11 -2 -31 -6 -44 -9 l-24 -5 11 -11 10 -10 66 7 66 7
0 14 0 14 -32 -1 c-18 -1 -42 -3 -53 -6z"/>
<path d="M34710 47300 l0 -13 7 6 6 7 -6 7 -7 6 0 -13z"/>
<path d="M51130 47140 c28 -55 52 -100 55 -100 2 0 -16 43 -40 96 -25 53 -45
98 -45 100 0 2 -5 4 -10 4 l-10 0 50 -100z"/>
<path d="M21562 47079 l4 -13 55 -11 c30 -6 64 -17 76 -24 l23 -12 49 -70 c28
-39 55 -86 61 -104 l11 -33 16 -6 15 -6 -5 12 c-3 7 -13 33 -23 58 -10 25 -38
72 -62 105 l-44 60 -21 12 c-23 13 -66 26 -126 38 l-33 7 4 -13z"/>
<path d="M44346 46998 c-10 -97 -27 -471 -21 -476 12 -12 14 12 24 203 6 110
13 228 16 263 l6 62 -10 0 -10 0 -5 -52z"/>
<path d="M51396 47042 l-5 -8 67 -212 67 -212 18 0 17 0 0 12 c0 7 -25 91 -56
188 -30 96 -60 190 -65 208 l-11 32 -13 0 c-8 0 -16 -4 -19 -8z"/>
<path d="M34750 46750 l0 -180 10 0 10 0 0 180 0 180 -10 0 -10 0 0 -180z"/>
<path d="M39262 46869 l3 -24 20 -2 20 -3 -12 6 c-7 3 -13 12 -13 19 0 8 -5
17 -11 21 l-11 6 4 -23z"/>
<path d="M21675 46771 c-71 -26 -172 -67 -222 -91 l-93 -43 0 -8 c0 -15 13
-11 136 45 65 29 167 70 227 91 l107 37 0 9 c0 15 -20 10 -155 -40z"/>
<path d="M52715 46784 c-77 -27 -338 -91 -370 -91 -11 0 -177 -39 -368 -88
l-348 -88 8 -8 8 -8 335 84 c184 47 347 85 361 85 68 0 443 105 474 132 l9 8
-19 -1 c-11 0 -51 -12 -90 -25z"/>
<path d="M51370 46770 l0 -13 7 6 6 7 -6 7 -7 6 0 -13z"/>
<path d="M52750 46739 c-47 -16 -148 -46 -225 -65 l-140 -35 -15 -14 -15 -13
-183 -48 -183 -47 8 -8 9 -9 179 47 180 46 15 12 15 12 115 28 c63 15 163 43
223 62 l107 35 0 14 c0 8 -1 14 -2 13 -2 0 -41 -14 -88 -30z"/>
<path d="M49888 46748 l-28 -10 0 -14 c0 -19 10 -17 40 6 30 23 25 31 -12 18z"/>
<path d="M51380 46740 l0 -13 7 6 6 7 -6 7 -7 6 0 -13z"/>
<path d="M49870 46626 l0 -14 35 -12 35 -11 20 6 20 6 34 -20 c37 -23 46 -25
46 -12 0 5 -21 21 -46 35 l-47 26 -13 -11 -13 -11 -32 16 c-39 19 -39 19 -39
2z"/>
<path d="M51489 46528 l-27 -9 5 -19 5 -20 18 10 c10 6 28 10 39 10 l20 0 -5
14 c-8 20 -25 24 -55 14z"/>
<path d="M35290 46495 c-102 -7 -260 -16 -352 -20 l-168 -7 0 -15 0 -14 68 5
c37 4 184 11 327 17 143 6 309 14 369 17 l109 7 5 13 4 12 -89 -1 c-48 -1
-171 -7 -273 -14z"/>
<path d="M51633 46445 l21 -65 19 0 18 0 -7 23 c-3 12 -12 36 -19 54 l-13 31
-20 11 -20 11 21 -65z"/>
<path d="M50803 46466 l3 -10 135 -28 c74 -15 172 -32 219 -36 l85 -9 63 25
62 24 0 9 c0 12 -2 12 -60 -11 l-51 -20 -63 0 -62 0 -168 34 -167 33 4 -11z"/>
<path d="M51385 46436 l-15 -35 0 -33 0 -33 23 -40 22 -40 24 -11 c13 -7 35
-25 48 -41 l24 -28 -7 25 c-4 14 -10 35 -15 47 l-8 21 -21 7 -20 6 -16 32 -16
31 6 57 6 58 -10 6 -10 6 -15 -35z"/>
<path d="M51667 46349 l5 -19 9 6 c13 8 11 21 -5 27 l-14 6 5 -20z"/>
<path d="M80764 46353 c3 -10 30 -117 62 -238 31 -121 60 -224 65 -229 l9 -10
0 15 c0 11 -68 283 -111 442 l-10 37 -10 0 -10 0 5 -17z"/>
<path d="M51250 46342 c0 -13 16 -19 74 -27 l46 -7 0 10 0 9 -37 7 c-21 3 -48
9 -60 12 l-23 6 0 -10z"/>
<path d="M81542 46150 c-100 -82 -182 -152 -182 -155 1 -16 29 4 196 139 164
132 202 167 177 165 -5 0 -90 -67 -191 -149z"/>
<path d="M30768 46283 l-58 -4 0 -11 0 -11 173 6 c94 4 198 7 230 7 l57 0 0
10 0 10 -172 -2 c-95 -1 -199 -3 -230 -5z"/>
<path d="M51583 46268 l-23 -11 0 -19 c0 -21 -2 -21 39 -7 l32 11 -3 16 c-4
20 -18 23 -45 10z"/>
<path d="M51390 46235 c0 -14 -13 -86 -30 -160 l-30 -135 0 -97 0 -98 30 -160
30 -160 0 -76 c0 -42 -7 -141 -15 -220 l-15 -144 -31 -110 c-44 -153 -77 -234
-149 -355 -121 -205 -197 -294 -382 -447 l-96 -80 -199 -103 c-109 -56 -228
-120 -265 -142 l-68 -40 0 -14 0 -14 10 0 c6 0 46 20 88 44 42 24 160 86 262
139 l185 96 135 113 135 113 72 95 c40 52 108 154 151 225 l79 130 21 55 c12
30 37 111 56 180 l34 125 16 170 17 170 -11 90 c-5 50 -21 148 -35 220 l-25
129 0 68 0 68 29 133 c16 72 31 147 33 165 l5 33 -19 10 -18 10 0 -26z"/>
<path d="M28423 46176 l-162 -12 -7 -7 -7 -7 6 -6 6 -6 168 11 c92 6 201 14
241 17 l72 6 0 9 0 9 -77 -1 c-43 -1 -151 -7 -240 -13z"/>
<path d="M54396 46151 l-7 -10 197 -378 198 -378 32 -32 c31 -31 54 -42 54
-26 0 4 -16 23 -34 43 l-35 35 -195 374 c-107 205 -197 375 -200 378 -2 2 -7
0 -10 -6z"/>
<path d="M81372 45893 c-5 -10 -17 -47 -27 -83 -9 -36 -25 -81 -35 -101 l-18
-35 -27 -12 -28 -13 6 -6 6 -6 31 13 31 13 15 36 c18 41 65 211 59 211 -3 0
-8 -8 -13 -17z"/>
<path d="M51940 45792 c0 -8 40 -98 89 -200 49 -103 135 -288 191 -412 56
-124 103 -227 106 -229 33 -34 -62 182 -275 624 -61 126 -111 224 -111 217z"/>
<path d="M81251 45608 c0 -13 -3 -36 -6 -53 l-6 -30 16 34 c17 39 19 57 5 66
l-10 6 1 -23z"/>
<path d="M49655 45396 l24 -54 -6 -23 c-3 -13 -13 -32 -21 -42 l-15 -17 -109
-52 -108 -51 0 -9 0 -8 119 59 c65 33 126 67 135 76 l16 16 0 30 0 30 -25 49
c-34 66 -40 64 -10 -4z"/>
<path d="M54801 45291 l-24 -18 12 -7 11 -7 22 15 22 16 21 0 21 0 34 -29 34
-28 -1 -39 -1 -38 -27 -23 -26 -23 -39 0 -39 0 -166 -79 c-91 -44 -245 -124
-343 -177 -164 -91 -335 -176 -1194 -597 l-318 -155 0 -23 0 -22 18 15 c9 8
42 28 72 45 53 29 938 460 1150 560 58 27 200 101 315 164 116 64 270 143 343
178 l132 62 43 5 42 4 25 18 25 19 8 37 9 36 -7 27 -6 26 -31 29 -30 28 -42 0
-41 0 -24 -19z"/>
<path d="M51935 45278 l-6 -15 98 -200 98 -201 17 7 17 6 -97 204 -98 205 -12
4 -12 4 -5 -14z"/>
<path d="M54754 45235 l-6 -14 -186 -105 c-103 -58 -196 -111 -206 -119 l-19
-14 10 -6 9 -6 194 110 c106 60 194 108 195 107 1 -2 7 -16 12 -32 l9 -30 17
-10 16 -10 6 6 7 6 -22 30 -23 30 7 36 7 36 -11 0 c-6 0 -13 -7 -16 -15z"/>
<path d="M52620 45238 c0 -3 42 -95 94 -205 51 -109 142 -301 201 -428 119
-253 113 -241 121 -233 l5 6 -99 208 c-300 630 -322 675 -322 652z"/>
<path d="M54850 45061 c0 -14 50 -51 68 -51 l16 0 -34 30 c-37 31 -50 36 -50
21z"/>
<path d="M18637 44953 l8 -28 -1 -422 -1 -423 7 0 7 0 6 152 c4 83 7 269 7
412 l0 261 -11 38 -10 37 -10 0 -9 0 7 -27z"/>
<path d="M81350 44910 c0 -5 4 -10 9 -10 6 0 13 5 16 10 l6 10 -15 0 -16 0 0
-10z"/>
<path d="M81256 44891 l-20 -8 10 -6 11 -6 21 6 c12 3 22 9 22 14 0 11 -17 11
-44 0z"/>
<path d="M81164 44838 c7 -24 37 -121 67 -215 l54 -173 8 0 c13 0 7 23 -57
224 l-63 200 -11 4 -11 3 13 -43z"/>
<path d="M16873 44816 l22 -33 3 8 c4 10 -28 59 -39 59 l-8 0 22 -34z"/>
<path d="M94457 44488 c-76 -55 -136 -102 -133 -105 4 -4 251 170 281 198 l9
9 -9 0 c-6 -1 -72 -46 -148 -102z"/>
<path d="M53944 44422 c76 -164 96 -202 107 -202 4 0 -8 28 -26 63 -18 34 -56
115 -86 180 -29 64 -56 117 -60 117 -4 0 25 -71 65 -158z"/>
<path d="M26155 44510 l-40 -7 72 -2 73 -1 102 -39 c57 -22 213 -91 348 -155
134 -64 249 -115 254 -113 4 1 -25 18 -65 37 -41 18 -155 71 -254 118 -99 46
-229 104 -290 128 l-110 44 -25 -1 c-14 -1 -43 -5 -65 -9z"/>
<path d="M52860 44260 l-155 -69 16 -6 16 -6 151 67 151 67 -5 8 c-8 13 -8 13
-174 -61z"/>
<path d="M52625 44190 c3 -5 8 -10 11 -10 2 0 4 5 4 10 0 6 -5 10 -11 10 l-10
0 6 -10z"/>
<path d="M52520 44180 l-15 -9 11 -11 11 -11 17 7 17 6 -4 11 c-5 15 -20 18
-37 7z"/>
<path d="M52704 44166 l-6 -16 24 -33 c14 -17 28 -44 32 -59 l6 -27 15 5 15 6
0 15 c0 24 -29 79 -55 103 l-24 23 -7 -17z"/>
<path d="M52447 44103 c-3 -5 -7 -28 -11 -54 l-7 -45 21 -47 21 -47 25 -16 25
-17 6 7 7 7 -12 17 c-6 9 -21 34 -33 55 l-20 39 1 41 c1 23 1 48 1 55 -1 13
-17 17 -24 5z"/>
<path d="M34690 44064 c0 -3 14 -17 31 -31 16 -14 49 -53 71 -87 23 -33 66
-87 96 -118 l55 -58 9 6 10 6 -50 52 c-27 28 -72 86 -101 128 l-51 77 -22 15
c-22 16 -48 21 -48 10z"/>
<path d="M52344 44005 l-72 -43 -58 -16 -59 -16 -440 -64 c-242 -36 -471 -68
-510 -71 -38 -4 -119 -15 -180 -26 l-110 -19 -338 -87 -338 -87 3 -15 4 -16
19 3 c11 2 155 39 320 82 l300 78 140 26 c77 14 199 32 270 41 215 25 866 124
928 141 l58 15 67 42 c37 22 69 42 70 43 2 1 2 9 0 18 l-3 15 -71 -44z"/>
<path d="M50135 43919 c-49 -15 -141 -40 -203 -55 -63 -14 -111 -28 -108 -31
9 -9 381 86 405 104 17 13 -18 6 -94 -18z"/>
<path d="M52542 43884 l3 -17 23 -8 22 -9 -9 19 c-6 10 -18 21 -26 25 l-16 6
3 -16z"/>
<path d="M55593 43863 c4 -4 26 -8 50 -10 23 -2 107 -10 186 -19 79 -8 146
-13 148 -10 3 3 -10 7 -28 10 -40 6 -327 36 -348 36 l-14 0 6 -7z"/>
<path d="M52991 43425 c0 -5 11 -30 24 -55 13 -25 24 -40 24 -35 0 6 -11 30
-24 55 -13 25 -24 41 -24 35z"/>
<path d="M73368 43381 c-109 -15 -201 -30 -205 -34 -3 -4 -4 -7 -1 -7 23 0
452 61 456 65 9 9 -50 3 -250 -24z"/>
<path d="M77525 43305 l-220 -32 16 -7 16 -7 189 26 c104 14 204 28 221 31
l33 6 -6 9 c-6 11 18 13 -249 -26z"/>
<path d="M53061 43275 c0 -5 11 -30 24 -55 13 -25 24 -40 24 -35 0 6 -11 30
-24 55 -13 25 -24 41 -24 35z"/>
<path d="M32164 43030 c-32 -29 -209 -240 -266 -317 l-9 -11 10 -6 9 -6 103
128 c56 70 127 152 157 183 l54 57 -9 5 -8 5 -41 -38z"/>
<path d="M52110 43055 c0 -13 55 -115 62 -115 l8 0 -30 60 c-27 53 -40 71 -40
55z"/>
<path d="M55810 43047 c0 -9 170 -480 174 -485 20 -20 7 29 -59 219 -91 259
-95 269 -106 269 -5 0 -9 -1 -9 -3z"/>
<path d="M51157 42945 c-87 -12 -161 -26 -165 -30 l-7 -8 35 6 c19 3 96 14
170 23 74 9 142 21 150 25 l15 8 -20 0 c-11 -1 -91 -11 -178 -24z"/>
<path d="M53049 42898 c11 -24 30 -67 43 -96 l23 -53 17 13 16 13 -36 82 -37
83 -22 0 -22 0 18 -42z"/>
<path d="M35591 42860 c-13 -11 -30 -20 -38 -20 l-14 0 5 -9 6 -9 23 5 c24 6
57 31 57 45 0 13 -13 9 -39 -12z"/>
<path d="M69510 42675 c0 -31 31 -358 36 -384 3 -13 7 -22 9 -19 5 5 -34 411
-40 417 -3 2 -5 -4 -5 -14z"/>
<path d="M91738 42577 c-43 -23 -78 -45 -78 -50 0 -4 37 13 83 38 l84 45 21 0
21 0 63 -36 c35 -20 78 -45 96 -56 l32 -20 0 9 c0 4 -42 32 -93 61 l-94 52
-29 -1 -29 0 -77 -42z"/>
<path d="M55625 42570 l-120 -6 192 -2 192 -2 6 10 6 10 -78 -2 c-43 -1 -132
-5 -198 -8z"/>
<path d="M94127 42284 c-10 -38 -32 -100 -48 -139 l-30 -70 -42 -43 -42 -43
-408 -296 c-224 -163 -405 -298 -403 -300 7 -7 803 572 855 621 l44 41 27 60
c33 72 72 200 68 222 l-3 16 -18 -69z"/>
<path d="M92833 41769 c5 -15 279 -393 300 -414 l10 -10 -6 16 c-5 15 -279
393 -300 414 l-10 10 6 -16z"/>
<path d="M82726 41652 l-5 -9 105 -169 c58 -93 112 -180 121 -193 l15 -23 9 9
10 10 -116 186 c-64 103 -120 189 -125 192 l-9 5 -5 -8z"/>
<path d="M53988 41606 l-35 -34 -17 -37 -18 -38 13 -41 13 -41 6 55 5 55 29
38 c16 21 38 42 48 48 l19 10 -6 10 c-10 15 -20 11 -57 -25z"/>
<path d="M50550 41336 c-30 -12 -115 -52 -187 -89 l-133 -67 0 -10 0 -9 182
89 c100 50 188 90 195 90 l13 0 0 10 c0 13 -6 12 -70 -14z"/>
<path d="M54730 41315 c-17 -20 -226 -168 -267 -189 -28 -14 -45 -36 -28 -36
24 0 272 168 308 208 l18 20 -9 6 -10 6 -12 -15z"/>
<path d="M63188 41217 l-36 -9 -6 -15 c-9 -24 2 -28 22 -10 l19 17 26 0 26 0
5 9 6 9 -13 4 c-6 3 -29 0 -49 -5z"/>
<path d="M93246 41198 c25 -41 268 -358 271 -354 5 5 -264 366 -273 366 -3 0
-2 -6 2 -12z"/>
<path d="M48147 41169 c-9 -5 -63 -67 -119 -137 -55 -70 -107 -134 -115 -143
l-14 -16 13 -11 13 -11 109 136 108 135 29 17 29 16 -3 10 c-5 14 -29 16 -50
4z"/>
<path d="M30108 40980 l-108 -78 -62 -15 c-35 -9 -75 -19 -90 -22 l-28 -5 0
-9 0 -8 53 9 c28 5 74 16 102 25 l49 16 96 70 c52 38 99 73 103 77 l9 8 -9 5
-8 5 -107 -78z"/>
<path d="M54360 41016 c-36 -19 -91 -42 -122 -52 l-58 -18 0 -12 0 -12 73 27
c39 15 100 40 135 56 l62 28 0 8 c0 16 -23 9 -90 -25z"/>
<path d="M63230 41043 c0 -8 356 -157 403 -168 l27 -7 0 9 0 8 -52 19 c-29 10
-122 47 -207 82 -155 65 -171 70 -171 57z"/>
<path d="M54060 40900 l-14 -9 5 -6 6 -5 17 6 c9 3 16 10 16 15 0 11 -11 11
-30 -1z"/>
<path d="M53831 40819 c-136 -49 -148 -55 -139 -64 6 -6 258 83 272 96 23 21
-7 14 -133 -32z"/>
<path d="M97193 40677 c-101 -34 -183 -65 -183 -69 0 -6 378 117 388 127 13
13 -36 -1 -205 -58z"/>
<path d="M53533 40670 l-83 -39 -43 -45 -44 -45 -28 -58 -27 -58 -33 -180
c-17 -99 -30 -182 -28 -184 11 -14 23 31 48 179 l28 165 27 61 28 61 36 37 37
36 99 48 100 49 -7 6 c-11 11 -24 7 -110 -33z"/>
<path d="M86381 40591 l-43 -59 -74 -55 -73 -55 -60 -29 c-33 -15 -60 -32 -60
-36 l-1 -8 23 6 c35 11 137 75 199 125 l57 45 42 58 c22 32 39 60 37 63 -3 2
-24 -23 -47 -55z"/>
<path d="M60468 40483 c7 -3 110 -19 228 -37 l214 -32 0 6 c0 6 -422 71 -445
69 l-10 -1 13 -5z"/>
<path d="M47772 40408 l3 -21 11 -4 12 -4 4 26 5 25 -19 0 -19 0 3 -22z"/>
<path d="M51816 40381 l-6 -9 127 -31 c71 -16 388 -82 706 -146 l578 -117 6 6
c4 3 4 8 2 10 -2 2 -267 57 -589 121 -497 99 -718 146 -802 171 l-16 5 -6 -10z"/>
<path d="M85430 40304 c-63 -7 -139 -20 -168 -28 l-53 -15 -364 -232 c-201
-128 -365 -236 -365 -240 0 -4 164 97 364 225 l364 232 59 17 58 17 139 15
c77 9 142 18 145 20 7 8 -53 4 -179 -11z"/>
<path d="M85410 40260 l-135 -17 -40 -18 c-50 -24 -50 -24 -42 -31 l5 -6 47
21 47 21 156 16 157 17 10 8 9 9 -39 -1 c-22 -1 -101 -9 -175 -19z"/>
<path d="M65900 40251 l0 -9 42 -10 43 -11 9 9 8 8 -38 11 c-47 13 -64 14 -64
2z"/>
<path d="M65822 40207 c-6 -12 -14 -37 -17 -54 l-7 -33 11 0 10 0 12 43 c6 23
13 45 15 49 2 4 0 9 -4 12 l-9 5 -11 -22z"/>
<path d="M52260 40198 c0 -2 -16 -83 -35 -178 -19 -95 -33 -175 -31 -177 6 -6
12 16 46 190 l32 159 -6 6 c-3 3 -6 3 -6 0z"/>
<path d="M66015 40096 c-8 -19 -19 -38 -25 -41 l-10 -6 6 -10 6 -10 14 12 c13
10 44 72 44 85 0 2 -5 4 -11 4 l-10 0 -14 -34z"/>
<path d="M46518 40094 l-6 -9 14 -25 13 -25 0 15 c0 8 -4 24 -8 34 l-8 20 -5
-10z"/>
<path d="M53640 39951 l0 -8 203 -41 c111 -22 204 -38 206 -36 11 10 -22 19
-201 55 -212 43 -208 42 -208 30z"/>
<path d="M84777 39946 l-5 -12 -281 -179 c-155 -98 -285 -183 -288 -188 l-6
-10 14 8 c8 4 141 89 297 188 156 98 284 178 286 176 55 -74 198 -299 334
-524 96 -159 176 -292 178 -294 54 -61 -302 532 -429 716 -42 61 -74 113 -71
116 3 2 -2 7 -10 10 l-14 6 -5 -13z"/>
<path d="M54468 39702 l-58 -14 0 -9 c0 -11 2 -11 58 2 45 11 71 25 61 32 -2
2 -30 -3 -61 -11z"/>
<path d="M54566 39680 c34 -52 41 -52 12 0 -13 22 -26 40 -31 40 -4 0 5 -18
19 -40z"/>
<path d="M54698 39482 l77 -119 8 4 c4 2 7 8 7 12 0 9 -158 221 -165 221 -3 0
30 -53 73 -118z"/>
<path d="M68373 39390 c-18 -11 -33 -24 -33 -30 0 -13 0 -13 44 10 l38 19 31
-12 31 -13 15 -32 c9 -17 19 -32 24 -32 13 0 8 35 -9 59 l-17 23 -33 14 c-44
18 -53 18 -91 -6z"/>
<path d="M52025 39021 c9 -9 435 -89 435 -81 0 3 -66 18 -147 33 -82 15 -181
33 -221 41 -40 8 -70 11 -67 7z"/>
<path d="M52012 38984 c5 -5 411 -84 432 -84 36 0 -30 15 -214 50 -230 43
-226 43 -218 34z"/>
<path d="M55666 38841 l-7 -10 158 -103 c87 -57 175 -114 195 -126 l36 -23 7
11 c4 6 5 13 4 15 -11 9 -363 237 -374 241 l-13 5 -6 -10z"/>
<path d="M58200 38665 c0 -2 21 -73 46 -157 l45 -153 13 -108 12 -108 -12
-112 c-11 -101 -25 -179 -40 -231 l-6 -18 13 4 13 4 17 90 18 89 6 110 7 110
-11 82 -10 82 -47 160 -47 161 -9 0 c-4 0 -8 -2 -8 -5z"/>
<path d="M88335 38610 l-30 -20 13 0 c7 0 24 7 37 16 l25 16 16 -13 c9 -8 52
-67 96 -131 43 -65 81 -118 84 -118 6 0 7 -2 -74 125 -35 55 -73 110 -85 123
l-20 22 -16 0 c-9 0 -29 -9 -46 -20z"/>
<path d="M95196 38499 c21 -35 267 -369 275 -374 l9 -6 0 6 c0 11 -271 380
-282 384 l-11 4 9 -14z"/>
<path d="M46230 38383 c0 -5 11 -20 25 -33 l25 -23 7 6 c3 4 4 8 2 10 -2 1
-16 13 -31 26 l-28 24 0 -10z"/>
<path d="M32115 37884 c-49 -13 -139 -33 -200 -45 -60 -11 -114 -24 -119 -29
l-8 -8 6 -10 5 -9 89 17 c49 10 151 32 226 51 l136 33 0 13 0 13 -22 -1 c-13
0 -63 -12 -113 -25z"/>
<path d="M85884 37048 c-73 -51 -68 -47 -63 -53 7 -6 129 76 129 86 0 13 -2
12 -66 -33z"/>
<path d="M58711 36844 l-12 -27 6 -6 6 -5 9 14 c9 14 14 50 7 50 -2 0 -9 -12
-16 -26z"/>
<path d="M51290 36738 c120 -115 260 -241 265 -236 3 2 -61 65 -142 139 -157
144 -230 202 -123 97z"/>
<path d="M60515 35901 l-5 -10 7 -4 c5 -2 85 -46 178 -97 94 -51 189 -103 213
-117 l42 -24 0 14 0 13 -132 72 c-73 39 -170 92 -215 117 l-82 45 -6 -9z"/>
<path d="M39877 35650 c3 -85 9 -180 13 -210 l8 -55 -5 190 -6 190 -8 20 -7
20 5 -155z"/>
<path d="M84910 35603 c-15 -6 -408 -257 -463 -295 -16 -11 -26 -22 -24 -24 2
-3 113 65 246 151 l241 155 23 0 23 0 16 -12 c9 -7 33 -44 54 -83 21 -38 51
-88 66 -109 l28 -39 0 16 c0 9 -4 18 -9 21 -5 4 -32 49 -60 101 l-51 94 -22
15 c-23 16 -42 19 -68 9z"/>
<path d="M79815 35429 l-130 -69 -128 -41 c-70 -23 -125 -44 -123 -47 3 -2 56
13 118 33 l113 38 148 74 c129 64 166 86 140 82 -5 -1 -66 -32 -138 -70z"/>
<path d="M86800 35482 c0 -5 24 -21 53 -35 l52 -27 53 0 52 0 0 9 0 8 -60 6
-59 5 -34 21 c-36 22 -57 27 -57 13z"/>
<path d="M85150 35375 c0 -3 24 -38 54 -78 29 -40 88 -129 131 -200 43 -70 80
-125 83 -122 7 7 -133 236 -200 327 -53 71 -68 87 -68 73z"/>
<path d="M59440 34510 c-107 -66 -188 -120 -181 -120 8 0 95 50 195 112 l181
112 18 -2 17 -1 -5 10 c-4 5 -12 9 -18 9 -7 0 -100 -54 -207 -120z"/>
<path d="M57459 34428 c21 -46 66 -141 100 -212 l61 -129 6 6 5 5 -97 206
c-54 113 -101 206 -105 206 l-8 0 38 -82z"/>
<path d="M80557 34342 c32 -60 65 -119 75 -133 l16 -24 104 54 c106 55 125 67
117 75 -2 2 -48 -20 -102 -50 -53 -30 -103 -54 -110 -54 l-12 0 -65 120 c-35
66 -68 120 -73 120 l-8 0 58 -108z"/>
<path d="M33466 34379 c-2 -8 -10 -106 -16 -219 -7 -113 -14 -208 -17 -212
l-4 -8 10 0 11 0 0 28 c1 15 7 115 15 222 12 179 13 226 1 189z"/>
<path d="M70135 34360 l70 -8 390 1 390 1 -255 6 c-140 4 -347 7 -460 7 l-205
0 70 -7z"/>
<path d="M85056 34231 c-168 -105 -200 -128 -180 -132 5 -1 333 198 368 224
l19 14 -9 5 -9 6 -189 -117z"/>
<path d="M63897 33896 l-5 -13 161 -96 c89 -53 169 -99 178 -102 l17 -6 5 8 6
9 -157 94 c-86 52 -166 101 -178 107 l-22 13 -5 -14z"/>
<path d="M77705 33104 c-38 -8 -223 -34 -410 -59 -187 -25 -875 -121 -1530
-214 -654 -93 -1281 -182 -1393 -197 -112 -16 -208 -32 -215 -36 l-11 -7 6 -6
6 -7 549 72 c611 79 689 90 1088 155 154 25 456 68 670 95 976 124 1334 175
1351 193 l6 6 -7 10 -6 11 -17 -1 c-9 0 -48 -7 -87 -15z"/>
<path d="M83332 32957 l-192 -131 9 -9 9 -9 118 80 c66 44 151 102 191 129
l71 49 -6 11 -7 11 -193 -131z"/>
<path d="M1621 33055 c3 -2 77 -9 164 -15 88 -5 177 -12 198 -14 l37 -4 0 7 0
8 -177 11 c-195 13 -229 14 -222 7z"/>
<path d="M79411 32686 c7 -7 362 -146 373 -146 l9 0 -6 7 c-11 11 -185 83
-276 114 -80 27 -110 35 -100 25z"/>
<path d="M82622 32452 c-159 -109 -704 -504 -995 -722 l-126 -95 8 -8 9 -9
469 343 c257 189 538 392 623 451 85 60 166 117 179 127 l25 17 -11 7 -10 7
-171 -118z"/>
<path d="M34300 32508 c0 -7 9 -26 20 -43 l20 -30 0 13 c0 15 -28 72 -35 72
-3 0 -5 -6 -5 -12z"/>
<path d="M81376 31545 l-18 -14 7 -10 6 -11 25 16 c13 9 24 20 24 25 0 13 -22
10 -44 -6z"/>
<path d="M80914 31204 c-197 -146 -392 -288 -433 -317 -40 -29 -150 -112 -245
-185 -94 -73 -204 -159 -244 -189 l-73 -56 9 -9 9 -9 109 82 c60 45 168 128
239 184 72 56 319 241 550 410 231 169 428 315 439 325 l18 18 -9 5 -9 6 -360
-265z"/>
<path d="M80560 30855 c-14 -7 -42 -17 -62 -20 l-38 -7 -6 -10 -7 -11 41 7
c46 7 112 35 112 48 0 11 -11 9 -40 -7z"/>
<path d="M79859 30492 c5 -10 18 -25 27 -33 l18 -14 -19 33 c-11 17 -23 32
-28 32 l-8 0 10 -18z"/>
<path d="M79929 30416 c-58 -45 -119 -92 -135 -105 -59 -46 4 -6 101 65 84 60
160 126 144 123 -2 0 -52 -37 -110 -83z"/>
<path d="M2845 29370 c-4 -6 -5 -13 -4 -15 2 -2 98 -9 212 -16 l208 -12 10 10
10 10 -68 6 c-37 4 -120 9 -183 12 -63 3 -129 8 -147 11 l-31 5 -7 -11z"/>
<path d="M84015 29021 l-7 -12 59 -62 c82 -87 232 -227 244 -227 5 0 9 3 9 8
0 4 -67 74 -149 156 l-148 148 -8 -11z"/>
<path d="M11465 28300 c-4 -6 -5 -13 -4 -14 2 -2 109 -17 238 -35 l234 -32 5
6 6 5 -10 9 -9 8 -205 27 c-113 15 -215 30 -226 33 l-22 5 -7 -12z"/>
<path d="M18180 27346 c0 -9 3 -16 7 -16 9 0 382 -59 416 -66 l27 -6 0 14 0
14 -212 34 c-117 18 -219 35 -225 38 l-13 4 0 -16z"/>
<path d="M95310 26779 c-96 -71 -177 -134 -179 -140 -3 -9 325 226 359 257
l14 14 -9 -1 c-6 0 -89 -58 -185 -130z"/>
<path d="M88622 25071 l-12 -7 56 -84 c30 -47 89 -151 131 -232 l75 -148 14 0
14 0 0 11 c0 26 -236 449 -259 463 -4 3 -12 1 -19 -3z"/>
<path d="M24177 24811 c-80 -205 -247 -674 -337 -944 l-52 -158 6 -6 6 -7 9
10 c5 5 36 92 70 194 86 262 240 693 325 912 l74 187 -12 4 -12 5 -77 -197z"/>
<path d="M23466 23110 c-69 -99 -126 -185 -126 -191 l0 -11 10 4 c11 4 260
356 260 369 0 28 -30 -8 -144 -171z"/>
<path d="M23232 22676 l-141 -215 -24 -78 c-13 -43 -37 -129 -52 -191 l-27
-113 6 -6 6 -6 6 6 c4 3 21 68 40 144 18 76 42 161 53 190 l21 52 135 207 136
207 -9 9 -9 9 -141 -215z"/>
<path d="M23051 22486 l-22 -44 -45 -177 -45 -177 5 -6 6 -5 6 5 c3 3 25 80
48 170 24 91 53 186 65 212 23 53 26 66 12 66 -5 0 -19 -20 -30 -44z"/>
<path d="M13896 22339 c-10 -26 -116 -434 -116 -443 0 -5 2 -7 5 -5 8 8 125
453 120 457 -3 3 -7 -1 -9 -9z"/>
<path d="M89491 21935 c-1 -10 22 -122 51 -247 l52 -228 8 0 c4 0 8 6 8 13 -1
26 -118 481 -119 462z"/>
<path d="M86732 20784 c4 -16 306 -329 312 -324 2 3 -67 79 -155 170 -88 91
-159 160 -157 154z"/>
<path d="M10586 18239 c-3 -13 -7 -80 -11 -149 -3 -69 -8 -163 -12 -210 l-6
-85 7 6 7 7 14 223 c13 208 13 266 1 208z"/>
<path d="M92177 16433 l-6 -10 96 -104 c53 -57 123 -132 156 -166 l59 -63 9 6
9 5 -147 157 c-80 86 -152 163 -159 170 l-12 14 -5 -9z"/>
<path d="M2646 12871 l-6 -9 175 -156 174 -156 5 9 6 9 -175 156 -174 156 -5
-9z"/>
<path d="M17036 5272 l-5 -8 211 -87 211 -86 10 6 10 6 -194 79 c-107 44 -204
84 -216 88 l-22 9 -5 -7z"/>
<path d="M25828 4053 l-78 -4 0 -11 0 -11 113 6 c61 4 165 7 230 7 l117 0 0
10 0 10 -152 -2 c-84 -1 -188 -4 -230 -5z"/>
<path d="M12727 1927 c-17 -93 -37 -264 -37 -313 0 -60 10 -11 25 126 8 80 21
173 29 208 l14 62 -7 5 -8 4 -16 -92z"/>
<path d="M30139 1200 l-174 -131 -3 -15 -4 -16 186 139 c170 127 201 153 178
153 -5 0 -87 -59 -183 -130z"/>
<path d="M16310 1285 l0 -15 13 0 c6 0 209 -12 449 -27 l437 -27 7 7 c4 4 5 9
2 12 -2 3 -182 16 -399 30 -217 13 -420 27 -451 29 l-58 6 0 -15z"/>
<path d="M6066 931 l-168 -168 12 -8 12 -8 166 166 166 167 -10 10 -10 10
-168 -169z"/>
<path d="M5395 275 l-170 -164 10 -10 10 -10 170 163 170 164 -10 10 -10 10
-170 -163z"/>
</g>
</svg>
