<?xml version="1.0" standalone="no"?>
<!DOCTYPE svg PUBLIC "-//W3C//DTD SVG 20010904//EN"
 "http://www.w3.org/TR/2001/REC-SVG-20010904/DTD/svg10.dtd">
<svg version="1.0" xmlns="http://www.w3.org/2000/svg"
 width="7500.000000pt" height="7500.000000pt" viewBox="0 0 7500.000000 7500.000000"
 preserveAspectRatio="xMidYMid meet">
<metadata>
Created by potrace 1.16, written by Peter Selinger 2001-2019
</metadata>
<g transform="translate(0.000000,7500.000000) scale(0.075000,-0.075000)"
fill="#000000" stroke="none">
<path d="M98553 95460 c-141 -145 -169 -180 -144 -180 11 0 309 311 311 325 5
28 -29 -1 -167 -145z"/>
<path d="M30592 90407 c-7 -18 -12 -44 -12 -56 l0 -23 21 -29 c11 -16 25 -29
30 -29 l10 0 -19 28 c-10 15 -22 35 -25 45 l-7 18 15 36 c17 41 18 43 7 43 -4
0 -13 -15 -20 -33z"/>
<path d="M36780 89848 l0 -15 93 -16 c51 -10 106 -17 121 -17 23 0 576 -106
664 -127 l22 -5 0 14 0 14 -322 62 c-178 34 -370 69 -428 77 -58 8 -115 18
-127 21 l-23 6 0 -14z"/>
<path d="M33692 89568 l4 -12 108 -66 c58 -36 140 -92 182 -124 l75 -59 10 10
10 10 -88 68 c-84 66 -274 185 -295 185 l-10 0 4 -12z"/>
<path d="M79855 88191 l-5 -9 18 -7 c9 -3 196 -69 415 -147 l399 -140 5 6 c4
3 4 8 2 10 -2 3 -171 63 -374 135 -204 71 -389 136 -412 145 l-42 15 -6 -8z"/>
<path d="M83681 86916 c2 -2 65 -21 139 -41 74 -20 156 -43 183 -50 l47 -14 0
7 0 7 -177 48 c-167 45 -202 53 -192 43z"/>
<path d="M83571 86592 c-30 -130 -56 -243 -59 -251 l-5 -14 14 5 13 4 53 230
c53 235 58 264 46 264 l-8 0 -54 -238z"/>
<path d="M80445 85783 c13 -13 385 -147 391 -141 3 4 -290 115 -386 146 l-15
5 10 -10z"/>
<path d="M28585 84458 c-110 -59 -204 -109 -209 -111 l-9 -3 4 -11 4 -10 200
108 c110 59 204 110 209 112 l9 3 -4 10 -4 10 -200 -108z"/>
<path d="M80080 84522 c0 -9 849 -307 855 -300 3 3 -147 58 -332 123 -186 65
-380 133 -430 151 l-93 33 0 -7z"/>
<path d="M80064 84483 c11 -11 859 -304 864 -298 3 2 -1 7 -9 10 -85 30 -852
295 -856 295 -4 0 -3 -3 1 -7z"/>
<path d="M82735 84288 c4 -24 17 -66 30 -95 l23 -52 40 -26 41 -27 41 -5 41
-6 59 18 59 18 21 22 22 23 -10 6 -10 6 -23 -19 c-13 -10 -48 -26 -78 -36
l-53 -17 -39 11 -38 12 -34 32 -34 32 -16 45 c-8 25 -18 57 -21 73 l-6 27 -11
0 -11 0 7 -42z"/>
<path d="M82847 83515 c-48 -16 -138 -65 -169 -93 l-18 -15 0 -15 0 -15 23 20
c34 32 128 81 187 99 l53 16 68 -7 67 -7 76 -33 76 -33 0 13 0 12 -76 32 -76
32 -82 5 -81 4 -48 -15z"/>
<path d="M95640 80687 c-58 -82 -114 -164 -124 -181 l-19 -31 15 15 c27 25
239 331 236 339 -2 5 -50 -60 -108 -142z"/>
<path d="M95713 80723 c-34 -49 -89 -128 -123 -177 -34 -48 -57 -87 -51 -85
13 5 252 349 242 349 -4 0 -35 -39 -68 -87z"/>
<path d="M7146 80422 l-5 -8 107 -81 c59 -44 144 -106 189 -137 l81 -57 7 11
c4 6 5 13 4 14 -2 2 -49 34 -104 72 -55 38 -137 97 -182 131 -85 66 -89 68
-97 55z"/>
<path d="M11514 77689 c-3 -6 -4 -12 -3 -14 5 -4 408 -122 433 -127 l19 -3 4
10 3 11 -177 52 c-98 29 -199 59 -225 67 l-48 14 -6 -10z"/>
<path d="M29858 76763 l-28 -4 0 -10 0 -9 18 0 c9 0 34 3 55 6 l37 7 0 8 0 9
-27 -1 c-16 -1 -40 -4 -55 -6z"/>
<path d="M50055 69504 c-55 -13 -201 -42 -325 -65 -123 -22 -226 -42 -228 -44
-2 -2 -2 -8 -1 -12 l4 -9 185 32 c217 38 274 49 393 76 l87 20 0 14 c0 17 9
18 -115 -12z"/>
<path d="M94381 66575 c-1 -10 64 -396 75 -448 3 -16 8 -26 10 -24 6 6 -65
437 -76 462 -5 11 -9 16 -9 10z"/>
<path d="M97707 66245 c-115 -29 -211 -56 -214 -59 l-6 -6 6 -6 6 -7 188 47
c103 26 205 51 226 57 l37 10 0 9 0 10 -17 -1 c-10 0 -112 -25 -226 -54z"/>
<path d="M97554 65956 c40 -194 49 -226 61 -214 3 2 -15 96 -38 208 l-44 204
-10 3 -11 4 42 -205z"/>
<path d="M28830 65361 l-425 -87 -3 -21 -3 -20 442 88 c244 49 451 91 460 94
l18 6 -6 15 -5 14 -27 -1 c-14 -1 -217 -40 -451 -88z"/>
<path d="M33326 65062 l-8 -24 6 -5 6 -6 6 5 c3 4 4 17 2 30 l-4 23 -8 -23z"/>
<path d="M41705 63630 l-6 -10 10 0 c6 0 11 5 11 10 0 6 -2 10 -4 10 -3 0 -8
-4 -11 -10z"/>
<path d="M41172 63528 c-51 -45 -90 -83 -88 -86 6 -6 186 148 186 159 0 13 4
16 -98 -73z"/>
<path d="M41270 63574 c0 -9 233 -273 254 -286 26 -17 24 -6 -3 20 -16 15 -75
79 -131 142 -57 63 -107 119 -111 125 l-9 9 0 -10z"/>
<path d="M41760 63576 c0 -5 22 -35 48 -65 26 -31 86 -108 133 -171 47 -63
130 -164 185 -224 54 -60 154 -173 222 -250 68 -78 129 -143 135 -145 l12 -4
-26 29 c-14 16 -118 135 -231 264 l-204 235 -85 115 c-86 116 -188 233 -189
216z"/>
<path d="M2587 63403 l-5 -8 160 -140 c89 -77 165 -141 169 -143 l9 -4 0 10
c0 8 -227 212 -306 275 l-23 17 -4 -7z"/>
<path d="M42250 63044 c0 -10 262 -305 267 -300 5 4 -255 306 -263 306 -2 0
-4 -3 -4 -6z"/>
<path d="M58660 62926 c-36 -19 -149 -92 -251 -163 l-185 -128 -457 -364
c-251 -200 -455 -366 -452 -369 2 -2 210 160 462 360 l458 364 191 131 c105
72 219 145 254 163 l64 32 106 -6 c58 -4 125 -9 150 -12 l45 -5 -15 10 -16 10
-144 6 -145 5 -65 -34z"/>
<path d="M41344 62779 l-6 -11 24 -26 c171 -189 255 -278 265 -280 l13 -3 0
11 c0 10 -277 320 -286 320 -1 0 -6 -5 -10 -11z"/>
<path d="M98697 62613 l-5 -8 60 -158 61 -157 -38 -91 -39 -91 18 -66 17 -66
65 -118 65 -118 11 0 10 0 -25 43 c-14 23 -45 83 -70 132 l-45 90 -13 51 -12
51 38 92 38 91 -63 163 c-70 180 -66 171 -73 160z"/>
<path d="M94480 62278 c-7 -24 -37 -101 -67 -171 -54 -126 -65 -170 -25 -105
21 36 107 246 117 291 l7 27 -9 0 -10 0 -13 -42z"/>
<path d="M57555 62049 c-119 -94 -214 -173 -212 -176 4 -3 265 198 446 344 2
1 -1 3 -7 3 -6 0 -108 -77 -227 -171z"/>
<path d="M56736 62112 c5 -5 133 -62 284 -127 151 -65 280 -120 285 -123 l10
-5 -10 11 c-10 11 -557 252 -572 252 l-7 0 10 -8z"/>
<path d="M58305 61431 c13 -13 389 -180 394 -175 2 2 2 5 0 7 -4 4 -313 141
-369 164 l-35 15 10 -11z"/>
<path d="M61654 61210 c11 -59 98 -476 102 -489 2 -8 7 -12 9 -9 7 6 -92 476
-106 503 l-9 20 4 -25z"/>
<path d="M59540 60932 c0 -6 167 -88 204 -101 l11 -3 -10 10 c-14 15 -205 102
-205 94z"/>
<path d="M46125 59936 l-220 -214 5 -5 6 -6 219 219 c121 121 217 220 215 220
-3 0 -105 -96 -225 -214z"/>
<path d="M44901 59914 c215 -234 647 -688 720 -760 l94 -91 105 -75 c58 -40
111 -78 119 -83 l14 -8 -6 10 c-4 6 -60 49 -124 96 l-118 86 -166 168 c-92 92
-276 285 -409 428 -133 143 -247 262 -253 264 -7 2 4 -14 24 -35z"/>
<path d="M58850 59927 c0 -4 30 -74 66 -155 37 -81 73 -162 81 -181 8 -18 16
-31 19 -29 3 4 -152 357 -162 367 -2 2 -4 1 -4 -2z"/>
<path d="M58810 59914 c0 -13 162 -365 167 -361 3 4 -154 355 -163 366 -2 2
-4 0 -4 -5z"/>
<path d="M83831 59174 c2 -6 90 -175 195 -375 l192 -364 13 -42 c6 -24 16 -43
20 -43 l8 0 -18 53 c-19 54 -384 754 -403 772 l-10 10 3 -11z"/>
<path d="M83804 59145 c4 -11 88 -175 188 -364 99 -189 188 -367 198 -395 l19
-51 0 16 c2 34 -31 103 -214 449 -177 336 -208 392 -191 345z"/>
<path d="M45980 58932 c0 -9 335 -251 359 -259 l16 -6 -10 10 c-24 24 -365
262 -365 255z"/>
<path d="M60379 58263 l-14 -17 20 8 c11 5 30 8 43 7 l23 -1 -6 10 -6 10 -23
0 -24 0 -13 -17z"/>
<path d="M91739 58107 c-19 -24 -101 -105 -182 -181 -81 -76 -146 -141 -143
-144 3 -2 14 1 25 9 42 30 278 256 314 301 l37 47 -9 5 -9 6 -33 -43z"/>
<path d="M63995 58008 c3 -13 43 -214 90 -447 47 -233 88 -427 91 -430 l7 -6
-5 25 c-2 14 -42 217 -88 453 l-84 427 -8 0 -8 0 5 -22z"/>
<path d="M48787 57993 l-6 -9 87 -85 c48 -46 104 -100 125 -119 l39 -35 -4 15
-3 15 -116 113 -117 114 -5 -9z"/>
<path d="M35758 57840 c-54 -9 -211 -60 -205 -66 2 -2 35 7 73 20 l70 23 88
13 88 12 80 -7 80 -7 137 -47 c75 -27 187 -69 250 -95 62 -26 115 -45 117 -43
6 6 -259 113 -406 164 l-125 43 -100 -1 c-55 -1 -121 -5 -147 -9z"/>
<path d="M64131 57575 c-1 -11 18 -114 41 -230 l43 -210 2 20 c1 11 -17 115
-41 230 -24 116 -44 201 -45 190z"/>
<path d="M64274 56659 c3 -14 24 -113 46 -219 l41 -194 -23 -22 -23 -21 -247
-49 c-137 -27 -248 -51 -248 -55 0 -3 117 17 260 46 l259 51 20 26 c11 14 19
27 17 29 -3 2 -23 94 -46 204 -23 110 -47 207 -52 215 l-9 15 5 -26z"/>
<path d="M64313 56665 c3 -11 25 -111 48 -223 l42 -203 13 5 12 4 21 -14 21
-15 0 -33 0 -33 -18 -16 -19 -17 -29 0 -30 0 -12 12 -12 12 -6 -6 -6 -6 24
-16 25 -16 31 6 31 6 21 23 22 24 -9 38 -8 38 -32 15 -32 15 -14 65 c-8 36
-27 126 -42 200 l-28 135 -10 10 -9 10 5 -20z"/>
<path d="M81343 56184 l-32 -14 -126 -121 -125 -122 5 -5 6 -6 87 86 c48 47
113 106 145 132 l58 46 14 0 c8 0 17 5 20 10 l6 10 -13 -1 c-7 0 -27 -7 -45
-15z"/>
<path d="M63355 55928 c-159 -33 -292 -62 -294 -64 -2 -2 -2 -7 2 -10 l6 -6
305 63 306 62 0 9 0 8 -17 -1 c-10 0 -148 -28 -308 -61z"/>
<path d="M25510 55922 c0 -4 81 -59 180 -121 l181 -113 5 5 6 6 -44 27 c-23
15 -105 67 -181 116 -76 48 -140 88 -143 88 -2 0 -4 -3 -4 -8z"/>
<path d="M63062 55910 l0 -25 5 13 c2 6 2 18 0 25 l-5 12 0 -25z"/>
<path d="M25490 55890 c0 -10 351 -232 361 -228 4 2 -76 55 -177 120 -101 64
-184 113 -184 108z"/>
<path d="M51855 55752 l10 -9 130 -12 c72 -7 174 -19 228 -27 54 -9 103 -14
110 -11 l12 4 -65 12 c-36 6 -128 18 -205 26 -77 8 -160 18 -185 21 l-45 6 10
-10z"/>
<path d="M46936 55712 l-5 -9 33 -109 c19 -60 46 -136 61 -169 15 -33 36 -79
46 -102 l18 -43 16 6 15 6 0 13 c0 7 -18 52 -40 100 -22 47 -56 138 -75 201
l-36 114 -14 0 c-8 0 -16 -4 -19 -8z"/>
<path d="M25991 55656 c2 -2 94 -69 205 -149 226 -163 324 -227 347 -227 l15
0 21 -27 20 -28 1 16 0 16 -18 16 c-10 10 -26 17 -34 17 l-15 0 -74 48 c-41
27 -159 110 -263 185 -104 75 -193 137 -199 137 -6 0 -8 -2 -6 -4z"/>
<path d="M25955 55616 l-8 -19 17 -31 17 -31 245 -168 c135 -93 247 -167 250
-165 2 3 -103 78 -233 168 -131 90 -246 173 -255 184 l-17 21 -3 30 -4 30 -9
-19z"/>
<path d="M25694 55242 c10 -16 566 -415 572 -410 3 4 -519 385 -564 412 l-15
9 7 -11z"/>
<path d="M26510 55170 l0 -10 15 0 c8 0 15 2 15 4 0 2 -7 6 -15 10 l-15 5 0
-9z"/>
<path d="M51865 54377 c-76 -100 -143 -188 -148 -194 l-9 -13 8 1 c5 0 25 21
45 47 19 26 84 111 144 190 59 78 106 144 104 147 -3 2 -68 -78 -144 -178z"/>
<path d="M53036 54471 c22 -21 496 -322 500 -318 5 5 -490 327 -502 327 l-8 0
10 -9z"/>
<path d="M54420 53595 c-140 -69 -362 -177 -493 -241 -131 -63 -237 -118 -234
-120 2 -2 181 82 398 187 217 106 444 216 504 245 61 29 103 53 95 53 -8 0
-130 -56 -270 -124z"/>
<path d="M80901 53682 c-1 -19 101 -426 110 -436 6 -7 -93 407 -106 439 l-3
10 -1 -13z"/>
<path d="M79710 53431 c-102 -26 -198 -51 -214 -55 l-28 -7 5 -6 6 -5 216 53
215 54 0 7 c0 11 10 13 -200 -41z"/>
<path d="M65080 53329 c-96 -20 -201 -42 -233 -49 -32 -6 -56 -14 -54 -17 5
-5 458 86 466 93 13 12 -21 7 -179 -27z"/>
<path d="M52444 53265 l-21 -23 -87 -7 -86 -7 0 -7 0 -7 92 9 93 9 13 10 c7 6
18 20 23 30 l10 18 -8 -1 c-4 -1 -18 -11 -29 -24z"/>
<path d="M52469 53236 l-36 -33 -73 -7 -74 -8 -4 11 -4 11 -14 -14 c-18 -18
-18 -27 -1 -20 l13 5 56 -123 c31 -68 89 -184 130 -258 l74 -135 17 -3 18 -4
102 59 c56 32 139 75 184 95 114 52 374 190 369 196 -3 2 -69 -30 -148 -71
-79 -41 -177 -89 -218 -107 -41 -18 -126 -62 -187 -97 l-113 -64 -9 5 c-15 10
-143 245 -203 375 -32 68 -58 125 -58 126 0 1 37 6 83 10 l82 7 29 35 c38 45
30 50 -15 9z"/>
<path d="M53670 53175 c0 -19 2 -35 4 -35 2 0 6 16 8 35 l4 35 -8 0 -8 0 0
-35z"/>
<path d="M77940 52713 c52 -200 235 -731 261 -758 l9 -9 0 16 c0 8 -26 87 -59
174 -81 219 -174 510 -202 627 l-23 97 -12 0 -12 0 38 -147z"/>
<path d="M65105 52794 c-88 -19 -184 -39 -213 -45 -30 -6 -52 -13 -49 -15 2
-2 96 14 208 36 112 22 214 40 227 40 l22 0 0 10 0 10 -17 -1 c-10 -1 -90 -17
-178 -35z"/>
<path d="M65280 52790 c-14 -4 -209 -42 -435 -86 -225 -43 -403 -80 -394 -82
8 -1 190 31 405 73 215 41 400 75 410 75 21 0 51 16 44 23 -3 2 -16 1 -30 -3z"/>
<path d="M27717 51773 c-10 -109 -20 -388 -14 -383 7 6 30 440 24 446 -2 3 -7
-26 -10 -63z"/>
<path d="M71870 51578 l29 -83 45 -234 46 -234 6 -94 7 -94 9 -5 10 -6 -6 43
c-3 24 -8 73 -11 109 -3 36 -24 160 -46 275 l-40 210 -32 98 -31 97 -8 0 -7 0
29 -82z"/>
<path d="M43836 51292 l-5 -8 52 -3 c29 -1 167 -10 307 -21 140 -10 323 -24
405 -29 l150 -9 105 7 105 8 -126 1 c-69 1 -226 9 -350 17 -123 8 -298 19
-389 25 -91 6 -184 13 -207 16 l-41 5 -6 -9z"/>
<path d="M45775 51218 c4 -13 18 -42 31 -64 l23 -42 48 -30 48 -31 69 -15 c38
-9 71 -14 73 -12 5 5 -15 12 -82 26 l-50 11 -51 35 -52 36 -27 54 c-29 56 -41
70 -30 32z"/>
<path d="M87864 51122 c-11 -9 -32 -33 -47 -52 l-25 -35 -61 -139 -61 -140 8
-8 9 -9 63 145 63 145 44 50 c24 27 43 52 43 55 0 11 -15 6 -36 -12z"/>
<path d="M33610 50387 c0 -20 61 -392 65 -396 3 -2 5 2 5 10 -1 30 -59 381
-64 387 l-6 5 0 -6z"/>
<path d="M22405 49750 l30 -8 165 -5 165 -5 -20 7 -20 8 -175 5 -175 6 30 -8z"/>
<path d="M36050 49059 c0 -24 59 -352 65 -357 3 -3 5 -1 5 4 0 24 -60 357 -65
362 l-5 5 0 -14z"/>
<path d="M33793 48990 c4 -19 18 -120 32 -225 15 -104 28 -192 31 -194 8 -8 3
32 -25 237 l-28 202 -8 8 -8 7 6 -35z"/>
<path d="M76400 48909 c-47 -9 -145 -23 -217 -30 -122 -12 -165 -21 -153 -32
7 -6 310 29 385 44 56 11 85 24 74 32 -2 2 -42 -4 -89 -14z"/>
<path d="M76440 48859 c-19 -5 -126 -20 -238 -33 -183 -21 -224 -29 -211 -40
7 -6 339 32 431 50 l88 16 -6 9 c-6 11 -17 10 -64 -2z"/>
<path d="M91417 48678 c-81 -94 -147 -176 -147 -182 l0 -10 8 10 c5 5 64 74
132 154 68 80 132 155 143 167 11 13 18 25 15 28 -2 3 -70 -73 -151 -167z"/>
<path d="M30555 48580 c3 -63 8 -186 11 -272 l7 -158 9 0 9 0 -5 18 c-2 9 -8
108 -11 220 -4 112 -11 227 -16 255 l-8 52 4 -115z"/>
<path d="M34798 48616 l-196 -11 -9 -9 -8 -9 140 7 c77 4 186 9 242 13 l102 6
-5 8 -5 9 -32 -2 c-18 -1 -121 -6 -229 -12z"/>
<path d="M33921 48108 c-1 -34 95 -689 108 -738 6 -19 15 -55 21 -79 6 -23 13
-41 16 -39 2 3 -7 52 -20 109 l-25 104 -46 325 c-46 329 -53 367 -54 318z"/>
<path d="M37832 47409 l-173 -7 -7 -7 -7 -6 185 7 c102 3 232 10 290 14 l105
7 -110 0 c-60 0 -188 -3 -283 -8z"/>
<path d="M36868 47403 l-158 -4 0 -11 0 -11 38 7 c20 3 99 6 175 6 l137 0 0
10 0 10 -17 -2 c-10 -1 -89 -4 -175 -5z"/>
<path d="M29588 46811 l-106 -6 -8 -7 -7 -8 114 6 c63 4 155 10 204 14 l90 7
-90 0 c-49 0 -138 -3 -197 -6z"/>
<path d="M39695 46425 l6 -40 67 -172 c37 -95 70 -173 74 -173 3 0 -20 66 -53
148 -33 81 -66 173 -74 206 -7 32 -17 61 -20 65 l-7 6 7 -40z"/>
<path d="M81344 45948 l-7 -11 11 7 c7 4 12 9 12 12 0 8 -9 4 -16 -8z"/>
<path d="M81370 45886 c-4 -13 -14 -43 -20 -67 -6 -24 -21 -67 -32 -96 l-21
-52 -30 -11 c-17 -5 -28 -12 -25 -15 3 -3 19 0 36 6 l30 10 17 42 c19 46 64
207 58 207 -2 0 -8 -11 -13 -24z"/>
<path d="M81310 45823 c-6 -21 -19 -57 -27 -79 l-15 -42 -21 -10 -22 -11 17 0
17 -1 14 14 14 14 22 72 c13 39 21 74 18 76 -3 3 -10 -12 -17 -33z"/>
<path d="M44290 45254 c-19 -8 -55 -20 -80 -26 l-45 -11 -125 -7 -125 -7 115
-1 115 -2 63 15 c35 8 80 24 100 35 44 23 32 26 -18 4z"/>
<path d="M49316 43109 l-16 -23 0 -43 0 -43 15 0 15 0 0 30 c0 16 5 41 12 55
l11 26 -10 10 -11 11 -16 -23z"/>
<path d="M50815 42897 c-137 -20 -153 -23 -144 -31 5 -5 309 41 317 48 l5 6
-19 -1 c-10 -1 -82 -11 -159 -22z"/>
<path d="M86799 41372 l-64 -47 -33 -50 c-43 -64 -115 -205 -105 -205 5 0 25
33 45 73 21 39 52 94 70 122 l33 49 69 53 c37 29 64 53 59 53 -6 0 -39 -21
-74 -48z"/>
<path d="M53477 40742 c-42 -37 -84 -77 -93 -90 l-16 -23 6 -6 6 -6 33 34 c18
19 63 58 100 88 37 30 67 58 67 63 0 20 -31 2 -103 -60z"/>
<path d="M54681 40030 l-13 -8 3 -9 c2 -5 58 -89 124 -186 l120 -176 12 -1 c6
0 14 4 17 9 l6 8 -117 169 c-64 93 -121 177 -127 186 l-12 17 -13 -9z"/>
<path d="M85050 39537 c0 -12 520 -852 530 -855 9 -3 -501 832 -521 853 l-9 9
0 -7z"/>
<path d="M92763 38918 l-213 -112 0 -9 0 -9 33 20 c17 11 112 61 209 111 147
76 207 112 186 111 -2 0 -99 -51 -215 -112z"/>
<path d="M40934 36490 c3 -14 31 -203 61 -420 60 -425 64 -454 72 -447 2 3
-24 200 -58 439 l-62 433 -9 10 -9 10 5 -25z"/>
<path d="M87920 36000 l-175 -109 -4 -12 -4 -12 15 5 c8 3 92 54 186 113 l172
106 0 10 c0 5 -3 9 -7 8 -5 0 -87 -49 -183 -109z"/>
<path d="M41044 36010 c4 -19 18 -113 31 -209 14 -96 27 -177 30 -179 8 -9 6
17 -22 213 l-26 190 -9 10 -10 10 6 -35z"/>
<path d="M41505 35685 c-99 -19 -233 -44 -297 -56 l-118 -22 0 -13 c0 -8 4
-14 9 -14 4 0 142 25 306 55 165 30 302 55 307 55 l7 0 -5 15 -6 15 -12 -1
c-6 0 -92 -16 -191 -34z"/>
<path d="M98814 31738 l-22 -10 -11 -24 c-14 -30 -14 -34 -1 -34 l10 0 0 15 0
15 25 16 25 16 20 -5 20 -5 0 8 c0 8 -25 21 -38 19 -4 0 -17 -5 -28 -11z"/>
<path d="M87417 20064 c62 -72 265 -265 271 -260 3 4 -319 326 -326 326 -2 0
23 -30 55 -66z"/>
<path d="M88279 19669 c-85 -78 -158 -145 -163 -150 l-10 -9 10 0 c5 0 50 37
99 83 50 45 122 110 160 144 l70 62 -6 6 -6 6 -154 -142z"/>
<path d="M96320 12331 c0 -12 639 -565 688 -595 l12 -7 0 10 c0 5 -114 106
-252 224 -139 118 -264 226 -278 239 -76 71 -154 138 -162 138 -4 0 -8 -4 -8
-9z"/>
<path d="M24020 2992 c-24 -42 -75 -123 -112 -179 l-67 -102 10 -7 c6 -3 12
-4 13 -3 31 39 226 353 226 365 0 2 -6 4 -12 4 l-13 0 -45 -78z"/>
<path d="M12200 1602 l0 -11 33 -5 c17 -3 97 -10 177 -16 80 -6 171 -13 203
-17 l57 -6 0 15 0 15 -167 12 c-93 6 -198 15 -235 18 l-68 6 0 -11z"/>
</g>
</svg>
