<?xml version="1.0" standalone="no"?>
<!DOCTYPE svg PUBLIC "-//W3C//DTD SVG 20010904//EN"
 "http://www.w3.org/TR/2001/REC-SVG-20010904/DTD/svg10.dtd">
<svg version="1.0" xmlns="http://www.w3.org/2000/svg"
 width="7500.000000pt" height="7500.000000pt" viewBox="0 0 7500.000000 7500.000000"
 preserveAspectRatio="xMidYMid meet">
<metadata>
Created by potrace 1.16, written by Peter Selinger 2001-2019
</metadata>
<g transform="translate(0.000000,7500.000000) scale(0.075000,-0.075000)"
fill="#000000" stroke="none">
<path d="M84445 99988 c-14 -39 -74 -312 -70 -316 10 -10 15 5 53 166 l39 162
-9 0 c-5 0 -11 -6 -13 -12z"/>
<path d="M23816 99881 l-6 -9 71 -47 c76 -51 314 -175 336 -175 32 0 4 19
-106 73 -66 32 -156 83 -202 113 -92 60 -86 57 -93 45z"/>
<path d="M89465 99830 l-5 -8 207 -82 c115 -46 212 -85 217 -88 l9 -5 -5 13
-4 12 -207 83 -207 83 -5 -8z"/>
<path d="M89987 99383 c-14 -24 -58 -186 -82 -301 l-28 -133 7 -6 6 -7 9 10
c4 5 18 59 30 119 21 102 64 275 77 310 l6 15 -10 0 c-6 0 -13 -3 -15 -7z"/>
<path d="M84333 98843 l-173 -3 0 -10 0 -10 53 0 c28 0 116 3 195 7 l142 6 0
9 0 8 -22 -2 c-13 -1 -101 -4 -195 -5z"/>
<path d="M58524 98456 l-6 -15 31 -203 c17 -112 31 -206 31 -210 0 -5 7 -8 15
-8 8 0 15 3 15 8 0 4 -14 105 -32 225 l-32 217 -9 0 c-4 0 -10 -6 -13 -14z"/>
<path d="M87657 96389 l-259 -8 -6 -6 -7 -7 220 6 c121 4 279 7 350 8 l130 2
100 -36 c55 -20 174 -65 265 -100 91 -36 176 -69 190 -73 l25 -7 -10 10 c-5 6
-89 40 -185 77 -96 36 -209 79 -250 95 -41 16 -95 34 -120 39 l-45 11 -70 -2
c-38 -1 -186 -5 -328 -9z"/>
<path d="M98120 94593 l0 -8 176 -70 c97 -38 180 -71 185 -73 5 -2 9 0 9 5 l0
8 -176 70 c-97 39 -180 72 -185 73 -5 2 -9 0 -9 -5z"/>
<path d="M87275 92760 l-210 -210 -12 0 c-11 0 -139 76 -221 132 -24 17 -46
28 -48 25 -6 -5 159 -117 233 -158 l43 -24 205 205 c177 176 236 240 223 240
-2 0 -98 -94 -213 -210z"/>
<path d="M89520 92716 c0 -8 442 -148 447 -142 4 4 -424 146 -441 146 -3 0 -6
-2 -6 -4z"/>
<path d="M95266 91550 l-140 -170 -18 -6 -18 -5 0 -14 0 -14 28 10 27 11 139
166 c132 159 148 183 129 189 l-8 3 -139 -170z"/>
<path d="M85231 91394 l-112 -187 4 -10 3 -11 114 189 c62 105 115 193 117
198 l4 7 -9 0 -9 0 -112 -186z"/>
<path d="M55772 91408 c-10 -18 -59 -106 -107 -196 l-88 -163 11 -11 c7 -7 13
-10 15 -7 11 13 207 382 207 389 0 5 -4 11 -9 14 l-9 6 -20 -32z"/>
<path d="M94406 91172 c39 -34 94 -72 105 -72 l12 0 -56 40 c-30 22 -59 40
-63 40 l-8 0 10 -8z"/>
<path d="M94870 90978 c0 -14 49 -99 75 -132 l15 -20 6 7 7 6 -25 33 c-14 18
-35 52 -47 76 -22 43 -31 52 -31 30z"/>
<path d="M94970 90806 l0 -19 29 -46 c17 -25 47 -63 68 -83 l38 -37 61 -34
c52 -29 603 -263 819 -348 39 -15 89 -38 112 -51 l42 -24 168 -176 168 -177
48 -36 c27 -20 51 -35 53 -32 3 2 -14 19 -37 36 -23 17 -120 112 -216 213
l-174 182 -30 18 c-17 10 -216 95 -442 189 l-412 171 -82 44 -81 44 -45 50
-45 50 -21 42 -21 43 0 -19z"/>
<path d="M94690 90743 c-50 -5 -149 -34 -160 -48 l-9 -11 68 22 69 23 69 2 68
2 97 -22 96 -22 52 -55 c28 -29 61 -59 73 -66 43 -23 702 -296 706 -292 7 6
14 3 -314 139 -170 70 -332 139 -359 153 l-50 24 -58 56 -58 55 -97 23 -98 23
-30 -1 c-16 -1 -46 -3 -65 -5z"/>
<path d="M31086 90042 c5 -5 59 -27 119 -50 l110 -42 78 -14 77 -14 0 8 0 7
-77 13 -78 12 -113 44 c-117 45 -133 50 -116 36z"/>
<path d="M31472 89885 c2 -3 84 -16 182 -31 l178 -25 14 5 c8 3 14 11 14 17
l0 11 -13 -10 -13 -11 -164 24 c-168 25 -207 29 -198 20z"/>
<path d="M33720 89612 c0 -4 48 -36 107 -72 59 -36 142 -93 185 -128 l78 -63
10 6 10 6 -82 67 -82 66 -104 63 c-101 62 -122 71 -122 55z"/>
<path d="M12000 88979 c0 -3 36 -9 80 -12 l80 -6 145 6 145 6 0 8 0 8 -225 -2
-225 -2 0 -6z"/>
<path d="M84380 88739 l-75 -18 -115 -12 c-140 -14 -161 -24 -30 -15 l95 7
103 21 102 21 0 9 c0 4 -1 8 -2 7 -2 -1 -37 -9 -78 -20z"/>
<path d="M78980 88493 l0 -8 217 -75 c119 -41 221 -77 226 -79 l10 -3 -5 12
-4 13 -213 73 c-218 76 -231 79 -231 67z"/>
<path d="M78970 88441 c0 -5 8 -11 18 -14 9 -3 108 -37 219 -75 l203 -71 5 8
5 8 -218 77 c-119 42 -220 76 -225 76 -4 0 -7 -4 -7 -9z"/>
<path d="M90306 87971 l-200 -67 -4 -12 -4 -12 9 0 c5 0 99 30 211 68 l202 67
1 10 c0 5 -3 10 -8 11 -4 1 -98 -28 -207 -65z"/>
<path d="M88395 87136 l-1930 -643 -245 -101 c-135 -55 -260 -108 -277 -119
l-33 -18 0 -12 c0 -17 10 -16 45 5 33 20 297 130 410 170 39 14 951 320 2029
681 l1958 656 0 10 c-1 6 -7 11 -14 12 -7 2 -881 -287 -1943 -641z"/>
<path d="M89428 87678 l-208 -70 0 -13 0 -13 225 75 225 75 0 9 0 9 -17 -1
c-10 0 -111 -32 -225 -71z"/>
<path d="M74450 87421 l-194 -106 2 -7 c1 -5 4 -8 7 -9 12 -2 405 215 405 223
0 17 -30 3 -220 -101z"/>
<path d="M83691 86956 c2 -2 81 -25 174 -51 94 -25 177 -48 185 -51 l15 -5
-10 9 c-5 5 -86 30 -180 56 -162 44 -194 51 -184 42z"/>
<path d="M17475 86780 l-6 -9 73 -34 73 -35 200 -52 200 -52 159 -59 c88 -32
167 -59 175 -59 l15 0 -9 9 c-6 5 -84 36 -175 70 l-165 60 -210 56 -210 56
-57 29 -58 28 -5 -8z"/>
<path d="M18380 86532 l0 -8 78 -26 c73 -25 307 -108 345 -123 l17 -7 0 13 0
14 -213 73 c-221 75 -227 77 -227 64z"/>
<path d="M56389 86193 c46 -113 150 -362 158 -376 l8 -16 11 7 11 7 -87 210
-87 210 -16 3 -17 4 19 -49z"/>
<path d="M6340 85631 l0 -11 23 -5 c12 -3 114 -26 226 -51 179 -39 226 -46
210 -30 -3 3 -94 25 -204 50 -110 24 -212 47 -227 51 l-28 7 0 -11z"/>
<path d="M56250 85575 l0 -15 196 0 196 0 -4 13 -5 12 -191 3 -192 2 0 -15z"/>
<path d="M27140 85369 c25 -22 71 -63 103 -90 l59 -50 80 -40 80 -40 -7 11
c-3 6 -41 28 -83 49 l-77 39 -91 81 c-51 45 -96 81 -100 81 -5 -1 11 -19 36
-41z"/>
<path d="M42086 85319 c-3 -8 -25 -113 -50 -234 -39 -192 -46 -241 -33 -224 8
9 97 462 92 467 -2 3 -7 -1 -9 -9z"/>
<path d="M80285 85313 c-30 -77 -144 -416 -136 -408 11 12 153 416 147 422 -2
2 -7 -4 -11 -14z"/>
<path d="M83980 84969 c-91 -82 -166 -154 -168 -159 l-4 -10 12 0 c6 0 87 68
180 152 l169 152 -5 8 c-3 4 -8 8 -12 7 -4 0 -81 -67 -172 -150z"/>
<path d="M86617 84332 l-29 -203 6 -6 6 -6 0 10 c0 6 12 90 26 187 14 98 24
187 22 199 l-3 22 -28 -203z"/>
<path d="M83271 84334 l-173 -156 10 -10 10 -10 176 158 175 158 -5 8 c-3 4
-9 8 -13 8 -5 0 -86 -70 -180 -156z"/>
<path d="M11510 84151 l0 -10 163 -51 c89 -28 188 -60 220 -70 l58 -19 -4 12
-4 12 -214 67 c-243 77 -219 71 -219 59z"/>
<path d="M24350 84007 l0 -12 213 -93 c116 -51 215 -92 220 -92 4 0 7 4 7 9
l0 9 -167 72 c-93 41 -192 84 -220 97 l-53 23 0 -13z"/>
<path d="M92500 82418 c-63 -89 -118 -171 -123 -182 l-7 -21 16 20 c9 11 65
89 126 173 l109 153 -3 9 -3 9 -115 -161z"/>
<path d="M18010 82072 l0 -8 193 -46 c105 -25 207 -49 225 -52 l32 -5 0 9 0
10 -22 4 c-13 2 -111 25 -218 50 -210 50 -210 50 -210 38z"/>
<path d="M75246 81818 c-76 -221 -85 -251 -60 -198 26 57 142 400 135 400 -3
0 -37 -91 -75 -202z"/>
<path d="M95425 80319 c-55 -76 -106 -148 -114 -159 l-13 -20 9 0 c8 0 222
288 231 312 2 4 0 8 -5 8 -4 -1 -53 -64 -108 -141z"/>
<path d="M39538 79625 l-5 -6 62 -122 c34 -67 75 -155 90 -194 l28 -73 13 0
12 0 -33 83 c-41 103 -119 265 -143 295 l-18 23 -6 -6z"/>
<path d="M98593 78980 l-91 -200 8 0 c4 0 47 85 95 189 l87 189 -3 11 -4 11
-92 -200z"/>
<path d="M39661 78638 l-51 -173 0 -47 0 -48 10 0 10 0 0 50 0 49 50 157 c51
160 56 184 41 184 l-8 0 -52 -172z"/>
<path d="M60425 78571 c-43 -25 -124 -90 -254 -203 -18 -16 -31 -31 -29 -33 2
-2 60 43 128 101 69 58 142 114 162 125 20 10 39 23 43 29 9 14 6 13 -50 -19z"/>
<path d="M12982 77800 c-6 -19 -32 -111 -57 -203 l-47 -169 6 -5 6 -6 4 14
c24 70 106 384 103 393 l-4 11 -11 -35z"/>
<path d="M73050 77060 l0 -10 245 0 245 0 0 10 0 10 -245 0 -245 0 0 -10z"/>
<path d="M74893 77008 c-21 -17 -62 -54 -91 -82 l-53 -51 -14 -49 -15 -50 0
-43 0 -43 15 0 15 0 1 58 c0 31 4 65 7 74 4 10 49 60 100 112 l94 94 -11 6
-10 6 -38 -32z"/>
<path d="M23695 75934 c-49 -23 -148 -70 -218 -103 l-128 -61 5 -9 6 -9 88 42
c48 23 143 69 212 101 147 69 133 62 129 73 l-4 9 -90 -43z"/>
<path d="M21695 75720 c-8 -13 -9 -13 34 -35 18 -9 66 -44 106 -77 l73 -59 47
-60 46 -59 15 0 15 0 -20 28 c-81 110 -165 189 -263 246 l-46 27 -7 -11z"/>
<path d="M17592 73868 l4 -12 150 -54 c82 -29 179 -62 217 -72 l67 -19 0 13 0
13 -61 17 c-33 10 -128 42 -211 72 -83 30 -155 54 -160 54 l-10 0 4 -12z"/>
<path d="M72393 73717 c-12 -28 -79 -182 -148 -342 l-126 -290 -50 -86 c-27
-48 -49 -92 -49 -98 0 -26 18 -6 61 67 l47 77 156 357 c86 196 156 360 156
363 0 3 -6 5 -12 5 l-13 0 -22 -53z"/>
<path d="M71959 72378 c-67 -79 -129 -150 -136 -160 l-14 -16 10 -6 10 -6 135
157 c75 86 136 160 136 165 0 24 -30 -5 -141 -134z"/>
<path d="M73460 70960 l0 -10 255 0 255 0 0 10 0 10 -255 0 -255 0 0 -10z"/>
<path d="M76461 70263 l96 -98 79 -105 79 -106 55 -107 55 -108 3 10 c5 16
-84 183 -151 282 l-66 95 -90 101 c-83 93 -128 133 -148 133 -4 0 36 -44 88
-97z"/>
<path d="M76694 69756 c-29 -22 -13 -24 26 -4 l35 18 -21 0 c-11 0 -29 -6 -40
-14z"/>
<path d="M76636 69642 l-6 -9 39 -89 c21 -49 59 -153 85 -231 l48 -143 10 0
10 0 -5 14 c-3 8 -24 70 -45 138 -33 101 -115 313 -127 326 -2 2 -6 -1 -9 -6z"/>
<path d="M48545 68919 c-22 -17 -41 -34 -43 -40 l-4 -9 15 0 c8 0 33 14 56 30
l42 31 -6 9 c-9 14 -16 12 -60 -21z"/>
<path d="M38900 68281 c30 -18 423 -172 427 -168 2 3 -93 43 -212 91 -199 80
-253 99 -215 77z"/>
<path d="M67480 67972 c0 -5 9 -17 20 -27 l20 -18 7 6 6 7 -18 20 c-19 21 -35
26 -35 12z"/>
<path d="M41302 67718 c-39 -112 -74 -216 -77 -231 l-6 -29 12 4 12 4 13 49
c7 28 40 127 73 220 65 180 66 185 52 185 l-9 0 -70 -202z"/>
<path d="M45819 67343 c-74 -130 -260 -416 -332 -511 -42 -55 -77 -103 -77
-106 0 -2 -36 -62 -80 -132 -44 -70 -80 -133 -80 -138 l0 -10 14 19 c7 11 46
74 87 140 40 66 112 172 159 235 111 148 358 545 347 556 -3 3 -20 -21 -38
-53z"/>
<path d="M55377 66926 l-16 -24 -16 -125 c-16 -130 -18 -174 -10 -166 2 3 12
68 20 145 l16 139 20 28 20 27 -10 0 c-5 0 -16 -11 -24 -24z"/>
<path d="M38457 66915 l-208 -13 -7 -7 -7 -8 85 6 c47 4 147 10 223 13 l137 7
0 8 c0 5 -3 8 -7 8 -5 -1 -102 -7 -216 -14z"/>
<path d="M44245 66293 c6 -6 69 -28 140 -48 72 -21 158 -45 193 -55 l62 -19 0
8 0 7 -187 53 c-104 30 -195 56 -203 59 l-15 5 10 -10z"/>
<path d="M41546 66192 l-4 -8 61 -39 c34 -21 161 -105 283 -186 290 -192 337
-222 333 -211 -2 6 -76 58 -164 118 -169 113 -472 315 -492 327 l-12 7 -5 -8z"/>
<path d="M97280 66141 c-102 -26 -198 -51 -214 -55 l-29 -7 11 -11 11 -11 215
54 216 54 0 12 0 13 -12 -1 c-7 0 -96 -22 -198 -48z"/>
<path d="M97514 66144 c3 -11 22 -98 41 -194 20 -96 39 -183 42 -194 l5 -18 8
8 8 9 -42 199 -42 200 -13 4 -13 4 6 -18z"/>
<path d="M94504 66085 c7 -42 43 -270 52 -330 3 -27 11 -57 16 -65 l9 -15 -5
30 c-2 17 -17 111 -32 210 l-27 180 -9 10 -10 10 6 -30z"/>
<path d="M49026 65705 c-75 -124 -136 -232 -136 -238 0 -7 63 93 140 222 78
128 139 236 136 238 -2 2 -65 -98 -140 -222z"/>
<path d="M83745 65779 c-16 -11 -37 -24 -45 -29 l-15 -8 7 -7 7 -7 46 26 c25
15 45 31 45 36 0 14 -11 11 -45 -11z"/>
<path d="M83650 65672 c0 -5 7 -33 16 -63 l16 -54 74 -107 c41 -58 74 -111 74
-117 0 -6 5 -11 10 -11 l11 0 -17 33 c-9 17 -44 71 -77 120 -60 88 -86 143
-87 185 l0 22 -10 0 c-5 0 -10 -4 -10 -8z"/>
<path d="M94285 65618 c-115 -22 -212 -41 -214 -43 -1 -2 -1 -8 0 -13 l4 -9
125 23 c69 13 178 33 242 45 l118 22 -6 8 -5 9 -27 -1 c-15 -1 -121 -19 -237
-41z"/>
<path d="M52751 65463 c-7 -16 -53 -120 -102 -232 l-90 -204 6 -5 5 -6 9 10
c10 11 201 444 201 456 0 18 -17 6 -29 -19z"/>
<path d="M48120 65252 c1 -9 490 -222 490 -213 0 4 -87 45 -192 91 -106 46
-217 94 -245 107 l-53 23 0 -8z"/>
<path d="M3617 64898 l-5 -53 9 -9 9 -10 0 62 c0 34 -2 62 -4 62 -2 0 -6 -24
-9 -52z"/>
<path d="M60535 64774 c-104 -51 -194 -95 -199 -97 l-10 -3 7 -12 8 -11 199
97 199 97 0 13 c1 6 -2 12 -6 11 -5 0 -93 -43 -198 -95z"/>
<path d="M70715 64476 c57 -114 107 -211 110 -214 19 -19 -173 370 -199 403
-9 11 31 -74 89 -189z"/>
<path d="M33075 64510 c-93 -60 -171 -114 -173 -120 l-4 -12 38 25 c65 40 309
199 313 203 2 2 2 6 0 9 -3 2 -81 -45 -174 -105z"/>
<path d="M60310 64613 c0 -17 90 -397 96 -402 10 -10 2 32 -41 213 -41 172
-55 219 -55 189z"/>
<path d="M45160 64402 c0 -9 469 -176 476 -170 2 3 -62 29 -143 58 -82 29
-190 67 -240 86 l-93 33 0 -7z"/>
<path d="M59817 64298 c-8 -12 -29 -50 -47 -83 l-32 -60 -44 -130 c-25 -71
-47 -139 -50 -150 l-5 -20 20 35 c11 19 36 84 56 144 l35 109 45 85 c25 47 43
87 41 89 -2 3 -11 -6 -19 -19z"/>
<path d="M77063 64093 c-7 -2 -13 -11 -13 -18 l0 -13 30 11 c17 6 30 15 30 19
l0 8 -17 -1 c-10 0 -24 -3 -30 -6z"/>
<path d="M78460 64029 c-118 -16 -302 -38 -408 -48 -176 -17 -213 -23 -201
-35 7 -7 280 21 592 60 l297 38 0 8 0 8 -32 -1 c-18 -1 -130 -14 -248 -30z"/>
<path d="M78733 64006 l-412 -51 -13 -13 -13 -13 25 5 c14 3 217 29 453 57
l427 52 0 9 0 8 -27 -1 c-16 -1 -213 -24 -440 -53z"/>
<path d="M28346 63988 c4 -7 27 -41 51 -75 l44 -63 70 -60 70 -60 17 0 17 1
-20 11 c-11 6 -48 36 -83 66 l-63 56 -51 68 c-46 62 -71 88 -52 56z"/>
<path d="M95990 63993 c1 -7 279 -208 326 -236 l14 -8 0 8 c-1 7 -284 212
-326 236 l-14 8 0 -8z"/>
<path d="M71251 63879 c-200 -57 -219 -64 -210 -74 7 -6 431 114 444 126 l9 9
-19 -1 c-11 -1 -112 -28 -224 -60z"/>
<path d="M89630 63884 c0 -3 43 -56 96 -117 53 -62 112 -136 132 -166 l36 -53
4 10 3 11 -25 38 c-35 51 -229 282 -238 282 -5 1 -8 -2 -8 -5z"/>
<path d="M89621 63833 c102 -114 165 -190 204 -249 l45 -69 0 13 c0 7 -15 35
-34 63 -46 69 -217 269 -229 269 l-11 0 25 -27z"/>
<path d="M76810 63762 l0 -9 55 -12 55 -12 29 -25 30 -25 5 9 5 9 -22 21 -23
22 -50 15 c-27 8 -57 15 -66 15 l-18 0 0 -8z"/>
<path d="M70380 63689 c-96 -27 -192 -54 -214 -60 l-39 -10 10 -10 9 -9 217
62 217 62 0 8 c0 12 -13 9 -200 -43z"/>
<path d="M76997 63684 l-6 -7 11 -20 10 -20 39 -220 c21 -121 40 -222 43 -225
12 -12 14 5 6 48 -5 25 -21 121 -36 215 l-27 170 -14 32 c-14 35 -16 37 -26
27z"/>
<path d="M69453 63426 l-213 -61 0 -7 c0 -17 48 -5 383 93 l67 20 0 9 0 10
-12 -1 c-7 -1 -109 -29 -225 -63z"/>
<path d="M16247 63320 c-47 -39 -114 -86 -148 -106 l-63 -35 -95 -27 -96 -27
24 -3 24 -4 81 23 81 23 53 31 c58 34 241 176 241 188 2 17 -22 3 -102 -63z"/>
<path d="M16357 63315 l-17 -36 0 -37 0 -37 20 -32 20 -33 15 0 c21 0 19 7
-10 42 l-25 30 0 29 0 30 20 39 20 40 -13 0 -13 0 -17 -35z"/>
<path d="M41990 63346 c0 -9 119 -152 189 -229 39 -42 71 -73 71 -68 0 5 -32
44 -71 87 -40 44 -96 109 -126 147 -49 61 -63 75 -63 63z"/>
<path d="M43090 63228 c-74 -65 -137 -124 -139 -130 -2 -7 45 30 104 82 59 52
124 109 144 127 20 17 34 33 31 36 -3 2 -66 -49 -140 -115z"/>
<path d="M40797 63145 l-19 -13 133 -149 c72 -81 142 -158 154 -171 l21 -23
17 7 c9 3 17 9 17 13 0 4 -68 83 -151 176 -83 94 -152 171 -153 172 0 1 -9 -5
-19 -12z"/>
<path d="M13735 63080 l-30 -8 160 1 160 2 35 -8 35 -7 -30 14 -30 15 -135 -1
-135 0 -30 -8z"/>
<path d="M10000 63008 l0 -8 88 1 c91 2 81 6 -26 11 l-62 3 0 -7z"/>
<path d="M15030 62993 l0 -32 10 -6 10 -6 0 23 c0 13 -5 30 -10 38 l-10 15 0
-32z"/>
<path d="M15070 62993 l0 -32 10 -6 10 -6 0 23 c0 13 -5 30 -10 38 l-10 15 0
-32z"/>
<path d="M10293 62993 c9 -2 23 -2 30 0 l12 5 -30 0 -30 0 18 -5z"/>
<path d="M58739 62960 c-22 -6 -140 -64 -158 -77 -2 -2 -2 -6 2 -9 l5 -6 84
42 83 41 140 -11 c321 -24 522 -41 560 -46 l40 -6 -10 9 -10 10 -200 17 c-110
9 -249 21 -310 26 -60 5 -130 11 -155 14 l-45 3 -26 -7z"/>
<path d="M59950 62859 l0 -6 163 -12 c89 -6 191 -14 227 -18 l65 -6 -7 7 -6 8
-221 17 -221 17 0 -7z"/>
<path d="M94177 62863 l-6 -9 215 -78 215 -78 6 6 c4 3 4 8 2 10 -2 2 -94 36
-204 76 -110 40 -205 75 -211 77 l-12 4 -5 -8z"/>
<path d="M12853 62813 l7 -6 7 6 6 7 -13 0 -13 0 6 -7z"/>
<path d="M12530 62800 l-45 -8 165 6 c91 2 167 6 169 8 8 7 -243 1 -289 -6z"/>
<path d="M3207 62783 l-5 -8 45 -75 c24 -41 48 -82 53 -90 l10 -15 -7 35 -6
35 -36 62 c-35 61 -45 71 -54 56z"/>
<path d="M11707 62602 c3 -107 9 -217 13 -245 l8 -52 -5 160 c-3 88 -9 198
-14 245 l-7 85 5 -193z"/>
<path d="M41340 62756 c0 -2 7 -9 15 -16 l15 -12 0 16 0 16 -15 0 c-8 0 -15
-2 -15 -4z"/>
<path d="M10873 62743 l-193 -3 0 -11 0 -11 193 7 192 7 10 9 9 9 -9 -2 c-6
-2 -97 -4 -202 -5z"/>
<path d="M10260 62715 c0 -2 -27 -102 -60 -221 -34 -119 -59 -221 -58 -226 2
-6 32 91 67 216 l63 225 57 -4 c148 -13 345 -24 350 -20 10 10 -9 13 -157 24
-161 12 -262 14 -262 6z"/>
<path d="M16730 62711 c0 -5 21 -48 46 -96 l47 -87 74 -59 c41 -32 76 -59 79
-59 17 0 -6 26 -71 79 l-75 62 -42 84 c-38 76 -58 102 -58 76z"/>
<path d="M41370 62716 c0 -2 8 -10 18 -17 l17 -14 -14 18 c-13 16 -21 21 -21
13z"/>
<path d="M58005 62409 c-115 -94 -212 -176 -214 -182 l-4 -11 49 39 c27 22
127 102 222 179 94 76 172 140 172 142 0 13 -35 -13 -225 -167z"/>
<path d="M67713 62367 c-12 -20 -92 -64 -158 -87 l-58 -20 -79 0 -78 0 0 -10
0 -10 43 -1 c110 -3 191 15 267 58 49 28 90 62 90 75 0 13 -18 9 -27 -5z"/>
<path d="M89015 62351 c17 -16 97 -86 179 -155 l149 -125 9 5 c5 3 8 7 6 9
-120 105 -352 295 -361 295 l-12 0 30 -29z"/>
<path d="M42652 62272 c28 -38 243 -272 251 -272 l8 0 -8 13 c-16 27 -247 277
-256 277 l-8 0 13 -18z"/>
<path d="M40578 62253 l13 -5 6 6 6 6 -19 -1 -19 -1 13 -5z"/>
<path d="M94255 61863 c-49 -60 -110 -129 -134 -156 l-44 -47 6 -7 7 -6 16 14
c25 20 254 293 254 302 0 20 -22 -2 -105 -100z"/>
<path d="M37870 61871 l0 -8 63 -7 c63 -8 316 -52 352 -62 l20 -6 -10 9 c-12
12 -131 37 -275 58 -58 9 -115 18 -127 21 l-23 4 0 -9z"/>
<path d="M59856 61814 c-32 -36 -101 -126 -152 -201 l-94 -136 0 -20 0 -21 18
35 c28 55 179 267 240 337 30 34 53 65 50 67 -2 3 -31 -25 -62 -61z"/>
<path d="M57316 61861 c5 -6 113 -55 239 -109 127 -55 323 -140 438 -190 114
-50 207 -87 207 -84 0 4 -82 43 -183 86 -100 44 -298 131 -439 193 -142 62
-261 113 -265 113 l-7 0 10 -9z"/>
<path d="M61590 61704 c0 -10 89 -432 96 -453 2 -8 6 -12 9 -10 2 2 -19 108
-46 234 -45 205 -59 259 -59 229z"/>
<path d="M89688 61537 c-42 -94 -80 -181 -84 -192 l-7 -20 10 10 c5 6 24 44
43 85 18 41 54 123 81 183 26 59 45 107 41 107 -4 0 -42 -78 -84 -173z"/>
<path d="M54550 61373 c0 -11 82 -364 101 -437 6 -21 12 -36 15 -33 5 5 -102
466 -110 475 l-6 5 0 -10z"/>
<path d="M61240 61148 c0 -5 96 -456 105 -497 3 -13 8 -21 11 -18 5 5 -102
507 -111 515 -3 3 -5 3 -5 0z"/>
<path d="M77833 61034 c3 -11 16 -57 28 -104 12 -47 30 -101 40 -120 l17 -35
46 -44 46 -45 7 7 7 7 -36 38 c-19 20 -46 53 -59 72 l-24 35 -26 99 -26 100
-12 4 -13 4 5 -18z"/>
<path d="M55505 60736 l-40 -34 6 -6 5 -6 39 40 c48 49 44 51 -10 6z"/>
<path d="M44201 60674 c112 -126 322 -354 325 -354 2 0 4 2 4 5 0 8 -332 370
-344 374 l-11 4 26 -29z"/>
<path d="M78010 60520 l0 -13 7 6 6 7 -6 7 -7 6 0 -13z"/>
<path d="M57310 60452 c0 -5 11 -37 26 -73 14 -35 31 -91 37 -123 l13 -60 10
-3 11 -4 -12 64 c-7 35 -25 96 -40 135 l-28 72 -9 0 c-4 0 -8 -4 -8 -8z"/>
<path d="M49880 60400 l-14 -9 5 -6 6 -5 13 15 c14 17 11 19 -10 5z"/>
<path d="M62595 60359 c-77 -16 -164 -34 -193 -40 -30 -6 -51 -13 -49 -16 7
-6 367 66 387 78 l15 8 -10 0 c-5 0 -73 -13 -150 -30z"/>
<path d="M83147 60364 l-6 -6 55 -87 c30 -47 80 -134 111 -193 31 -60 59 -108
64 -108 8 0 -107 218 -156 296 -19 30 -35 58 -35 62 0 4 -7 15 -14 24 l-13 18
-6 -6z"/>
<path d="M86906 60048 c-97 -83 -176 -155 -176 -161 l0 -9 68 59 c37 33 120
105 185 161 65 56 113 102 108 102 -5 0 -89 -68 -185 -152z"/>
<path d="M87075 60077 c-72 -67 -150 -139 -174 -160 l-45 -37 10 -10 9 -9 90
81 c50 44 127 117 173 161 l83 80 -8 8 -8 8 -130 -122z"/>
<path d="M57280 60121 l0 -49 -16 -77 -16 -77 6 -5 c3 -4 8 -4 11 -1 10 10 35
160 35 209 l0 49 -10 0 -10 0 0 -49z"/>
<path d="M44901 59914 c404 -438 648 -694 664 -694 5 0 -36 46 -91 103 -56 56
-210 219 -344 362 -133 143 -247 262 -253 264 -7 2 4 -14 24 -35z"/>
<path d="M58853 59924 c6 -29 151 -353 159 -354 3 0 -29 78 -71 173 -43 94
-81 179 -85 187 l-6 15 3 -21z"/>
<path d="M41050 59818 c-1 -18 -14 -95 -29 -171 l-28 -138 11 4 10 3 28 135
c15 74 27 149 28 167 l0 32 -10 0 -10 0 0 -32z"/>
<path d="M63661 59830 c-2 -23 93 -447 96 -430 2 8 -19 112 -46 230 -27 118
-50 208 -50 200z"/>
<path d="M40560 59815 c0 -8 332 -227 337 -222 4 5 -320 227 -332 227 -3 0 -5
-2 -5 -5z"/>
<path d="M61953 59775 c3 -11 20 -91 38 -178 l32 -158 -9 -8 c-5 -4 -92 -25
-194 -46 -102 -20 -192 -41 -200 -46 l-15 -8 10 0 c6 0 100 19 210 43 l200 43
6 -10 7 -9 3 11 4 11 215 45 c118 25 224 50 235 55 l20 10 -25 -4 c-14 -3
-121 -25 -238 -49 l-212 -44 -9 36 c-5 20 -22 97 -37 171 l-27 135 -10 10 -9
10 5 -20z"/>
<path d="M7400 59576 l0 -14 43 -34 c68 -56 303 -218 316 -218 28 0 1 23 -143
124 -84 59 -164 118 -176 132 -26 27 -40 31 -40 10z"/>
<path d="M83610 59573 c0 -6 45 -91 101 -190 136 -240 503 -938 519 -988 l13
-40 4 11 c7 21 -37 115 -198 422 -131 248 -419 773 -435 791 -2 2 -4 -1 -4 -6z"/>
<path d="M47130 59496 c0 -3 -11 -55 -25 -118 l-24 -113 -36 -89 c-41 -104
-39 -96 -21 -96 l14 0 36 90 36 90 25 116 c30 137 29 124 10 124 -8 0 -15 -2
-15 -4z"/>
<path d="M49431 59274 c-90 -118 -161 -218 -158 -220 2 -2 79 95 171 216 92
121 163 220 158 220 -5 0 -82 -97 -171 -216z"/>
<path d="M41010 59465 c0 -6 184 -126 228 -149 17 -9 53 -25 81 -36 l51 -20 0
9 0 9 -61 22 -60 23 -115 73 c-115 74 -124 79 -124 69z"/>
<path d="M49610 59458 c0 -7 -70 -105 -154 -218 -85 -112 -153 -207 -150 -209
2 -2 5 -2 7 0 2 2 68 90 147 194 78 105 148 196 155 203 l12 13 212 -166 c117
-91 215 -164 218 -162 2 3 -87 76 -198 163 -111 86 -209 166 -218 176 -18 21
-31 23 -31 6z"/>
<path d="M61378 59251 c-120 -25 -218 -49 -218 -52 0 -4 101 14 225 40 l225
46 0 8 c0 4 -3 6 -7 6 -5 -1 -106 -22 -225 -48z"/>
<path d="M92210 59148 l-111 -123 -35 -59 -35 -59 4 -10 3 -11 46 71 46 71
101 111 c89 97 113 131 96 131 -2 0 -54 -55 -115 -122z"/>
<path d="M59161 59208 l17 -13 61 -195 c57 -180 71 -218 71 -194 0 5 -29 99
-64 209 l-64 200 -19 3 -18 4 16 -14z"/>
<path d="M62163 59010 c10 -44 59 -304 61 -328 3 -25 4 -26 26 -18 8 2 85 19
170 36 232 47 252 52 246 57 -2 3 -97 -14 -210 -38 l-206 -42 -6 6 c-4 3 -21
80 -38 171 -18 91 -36 169 -41 173 l-8 8 6 -25z"/>
<path d="M44980 58970 l0 -9 143 -84 c78 -47 170 -98 204 -116 l62 -31 5 9 5
8 -42 19 c-23 10 -116 63 -205 117 -90 53 -166 97 -168 97 -2 0 -4 -4 -4 -10z"/>
<path d="M39145 58931 c17 -5 64 -17 105 -25 42 -9 124 -35 184 -57 60 -22
111 -37 114 -34 8 8 7 8 -118 53 -139 49 -177 59 -255 66 l-60 5 30 -8z"/>
<path d="M63813 58905 c4 -16 85 -421 181 -899 154 -761 186 -912 186 -870 0
10 -313 1567 -345 1713 -8 41 -18 77 -22 80 l-6 6 6 -30z"/>
<path d="M63180 58861 c0 -19 82 -445 86 -450 2 -2 7 -1 10 2 l7 7 -43 217
c-24 120 -47 222 -51 228 l-9 9 0 -13z"/>
<path d="M84010 58748 c0 -3 35 -71 77 -150 42 -78 87 -170 99 -203 l23 -60 0
16 c1 31 -26 94 -104 239 -72 135 -95 173 -95 158z"/>
<path d="M62438 58676 c-108 -22 -200 -45 -205 -49 l-8 -9 25 6 c14 4 115 24
224 46 187 37 242 52 185 49 -13 -1 -113 -20 -221 -43z"/>
<path d="M51140 58666 l0 -15 103 -74 c102 -74 169 -117 181 -117 3 0 6 6 6
13 l0 12 -37 20 c-21 11 -80 52 -133 90 -52 39 -101 74 -107 79 l-13 7 0 -15z"/>
<path d="M59995 58402 c10 -9 96 -43 305 -119 l95 -34 -10 10 c-8 8 -146 60
-360 137 l-40 15 10 -9z"/>
<path d="M62810 57965 c-453 -97 -444 -95 -438 -100 5 -5 859 172 866 180 12
11 -52 -1 -428 -80z"/>
<path d="M49251 57968 c23 -59 44 -90 91 -135 l33 -32 105 -52 c58 -28 185
-89 284 -136 l178 -84 6 6 c3 3 3 7 1 8 -5 5 -436 207 -509 240 l-55 24 -48
52 -48 52 -25 54 c-30 70 -40 72 -13 3z"/>
<path d="M46276 57971 l-6 -9 46 -57 47 -57 74 -131 c41 -73 79 -136 84 -141
l9 -10 0 13 c0 7 -32 70 -71 141 l-72 128 -53 66 -52 67 -6 -10z"/>
<path d="M63363 57928 c11 -42 187 -886 187 -894 l0 -8 10 10 9 9 -79 380
c-44 209 -87 413 -96 453 l-15 72 -11 0 -10 0 5 -22z"/>
<path d="M81270 57609 c-122 -16 -315 -52 -324 -60 -20 -18 5 -17 139 6 77 13
173 27 213 31 l72 7 0 13 0 14 -17 -1 c-10 -1 -47 -5 -83 -10z"/>
<path d="M64131 57575 c-1 -11 18 -114 41 -230 l43 -210 2 20 c1 11 -17 115
-41 230 -24 116 -44 201 -45 190z"/>
<path d="M34865 57415 c-115 -63 -214 -116 -220 -118 l-10 -4 7 -7 6 -8 209
113 c114 62 217 118 228 126 l19 13 -14 0 c-8 0 -109 -52 -225 -115z"/>
<path d="M38060 57524 c0 -7 12 -37 26 -69 l27 -57 -9 -52 c-4 -28 -8 -87 -9
-131 l-1 -80 -43 -145 c-24 -80 -46 -152 -49 -160 l-5 -15 10 10 c6 6 32 83
58 173 l47 163 -7 58 -7 58 16 37 15 37 -8 42 -8 42 -26 50 c-14 28 -26 45
-27 39z"/>
<path d="M35112 57481 c18 -24 139 -131 292 -260 l19 -16 -4 11 c-2 6 -73 70
-156 143 -84 73 -153 136 -153 142 0 5 -5 9 -11 9 l-10 0 23 -29z"/>
<path d="M54260 56856 c17 -46 91 -188 96 -184 6 6 -89 208 -98 208 l-8 0 10
-24z"/>
<path d="M61643 56785 c29 -101 48 -188 63 -285 l16 -115 10 -10 10 -10 -6 30
c-3 17 -13 75 -21 130 -18 113 -53 255 -68 270 l-9 10 5 -20z"/>
<path d="M56661 56704 c0 -5 59 -61 130 -124 132 -117 169 -147 169 -137 0 4
-213 197 -282 255 l-18 15 1 -9z"/>
<path d="M79469 56591 c-35 -26 -76 -46 -149 -71 l-65 -22 -85 -13 -85 -13 56
-1 55 -1 55 16 c30 8 83 26 119 40 l65 24 35 30 c38 32 37 41 -1 11z"/>
<path d="M79050 56459 c0 -9 7 -11 86 -28 l41 -8 76 5 77 5 0 10 0 10 -77 -6
-78 -6 -62 13 -63 14 0 -9z"/>
<path d="M86718 56387 c-87 -45 -158 -86 -158 -90 l0 -9 158 82 c86 45 161 86
167 91 l9 9 -9 0 c-6 0 -81 -37 -167 -83z"/>
<path d="M26470 56437 c0 -8 327 -177 342 -177 7 0 -61 39 -151 86 -174 91
-191 99 -191 91z"/>
<path d="M81650 56275 c-74 -19 -161 -41 -192 -51 l-58 -17 0 -9 0 -8 33 13
c17 8 104 31 192 52 88 20 167 41 175 46 l15 8 -15 0 c-8 -1 -76 -16 -150 -34z"/>
<path d="M78921 56173 c-5 -21 -17 -66 -26 -101 l-16 -62 11 -108 c6 -59 13
-115 16 -124 l5 -18 11 0 10 0 -6 33 c-3 17 -9 75 -12 127 l-7 96 22 91 c24
104 24 103 11 103 l-9 0 -10 -37z"/>
<path d="M90080 56018 c-96 -83 -176 -155 -178 -159 l-4 -9 10 0 c7 0 292 240
350 295 l14 13 -9 5 -8 5 -175 -150z"/>
<path d="M76480 56150 c0 -10 156 -378 165 -388 2 -2 5 0 8 5 l5 8 -82 187
c-45 103 -85 190 -89 194 l-7 7 0 -13z"/>
<path d="M81343 56133 c-43 -29 -257 -232 -251 -238 1 -2 59 48 126 111 l124
114 36 20 37 19 -16 1 -16 0 -40 -27z"/>
<path d="M64083 56087 c-139 -28 -253 -54 -253 -58 0 -7 518 95 527 105 l6 6
-14 -1 c-8 -1 -128 -24 -266 -52z"/>
<path d="M2440 56110 l0 -10 25 0 c14 0 132 -18 263 -41 l237 -41 166 -8 165
-7 40 6 39 7 -195 7 -195 6 -110 20 c-60 11 -171 29 -245 40 -74 12 -147 23
-162 26 l-28 5 0 -10z"/>
<path d="M63797 56060 c3 -11 10 -23 15 -26 l10 -6 -4 23 -3 22 -12 4 -11 4 5
-21z"/>
<path d="M63062 55910 l0 -25 5 13 c2 6 2 18 0 25 l-5 12 0 -25z"/>
<path d="M25991 55656 c2 -2 94 -68 204 -148 170 -122 255 -181 323 -222 l12
-7 0 8 c0 4 -24 22 -53 40 -29 17 -146 99 -261 182 -115 83 -214 151 -219 151
-6 0 -8 -2 -6 -4z"/>
<path d="M37195 55450 l20 -9 188 -15 189 -16 36 20 37 19 -13 1 c-7 0 -25 -6
-40 -14 l-27 -13 -145 13 c-80 7 -172 15 -205 18 l-60 5 20 -9z"/>
<path d="M50825 55209 l-70 -18 47 4 c26 2 62 11 80 19 44 19 28 18 -57 -5z"/>
<path d="M12590 55135 l-135 -65 -85 -11 c-46 -5 -87 -12 -89 -15 -8 -7 62 -4
127 6 l64 11 136 69 c76 38 133 69 127 69 -5 0 -71 -29 -145 -64z"/>
<path d="M50690 54951 c0 -9 115 -111 126 -111 10 0 1 9 -61 64 l-65 57 0 -10z"/>
<path d="M52118 54732 l-148 -227 -118 -150 -119 -150 -17 1 -17 2 11 -12 10
-13 -7 -6 -6 -7 14 0 c8 0 25 -9 39 -20 39 -31 48 -23 10 9 l-34 28 34 44 c19
24 76 96 125 159 l91 115 134 205 c73 113 140 215 148 228 l14 22 -8 0 c-5 -1
-75 -103 -156 -228z"/>
<path d="M48241 54858 c-101 -49 -181 -91 -179 -94 4 -3 356 161 367 172 20
19 -31 -2 -188 -78z"/>
<path d="M50955 54923 c-11 -15 -24 -34 -29 -42 l-9 -16 27 25 c16 14 32 33
37 43 l10 17 -8 0 c-4 0 -17 -13 -28 -27z"/>
<path d="M53218 54933 c-8 -10 -27 -40 -43 -68 -16 -27 -81 -129 -145 -225
-114 -170 -348 -530 -365 -560 l-8 -15 11 10 c13 13 491 728 543 813 36 59 40
83 7 45z"/>
<path d="M53285 54930 c4 -14 9 -32 11 -41 l6 -16 -229 -344 c-280 -420 -353
-533 -353 -545 0 -5 70 97 156 226 86 129 160 239 164 243 l7 8 242 -156 c134
-86 245 -155 247 -152 3 2 -106 75 -240 162 l-245 158 6 11 c4 6 64 98 135
204 l128 192 -20 38 -21 37 6 -25z"/>
<path d="M52245 54732 c-60 -92 -183 -265 -273 -385 -90 -121 -166 -225 -169
-233 l-5 -14 6 0 c22 0 568 781 555 794 -2 2 -53 -71 -114 -162z"/>
<path d="M52676 54711 c22 -20 256 -172 260 -169 5 6 -248 178 -260 178 l-10
0 10 -9z"/>
<path d="M52960 54471 c0 -10 30 -24 37 -17 3 2 -5 9 -16 16 l-21 11 0 -10z"/>
<path d="M49125 54244 c-214 -108 -279 -144 -272 -150 5 -5 330 155 437 215
l55 31 -15 -1 c-8 0 -100 -43 -205 -95z"/>
<path d="M50311 54336 c53 -50 263 -225 267 -222 4 5 -8 16 -158 145 -52 44
-99 81 -104 81 -5 0 -7 -2 -5 -4z"/>
<path d="M49415 54210 l-6 -10 8 0 c4 0 15 5 23 10 l15 10 -17 0 c-9 0 -20 -4
-23 -10z"/>
<path d="M62171 54173 c-1 -28 85 -442 94 -451 l7 -7 -7 35 c-24 131 -93 441
-94 423z"/>
<path d="M54844 53969 l-49 -164 -20 -17 c-11 -9 -33 -29 -50 -43 l-30 -27 31
17 c17 10 40 25 52 34 l22 16 50 165 c28 90 49 168 47 174 -2 5 -25 -64 -53
-155z"/>
<path d="M51830 54103 c0 -12 110 -107 116 -100 3 2 -22 28 -56 57 -33 28 -60
48 -60 43z"/>
<path d="M80810 54032 c0 -10 263 -1072 301 -1214 l10 -38 9 0 10 0 -10 23
c-5 12 -78 294 -160 627 -83 332 -153 607 -156 609 -2 2 -4 -1 -4 -7z"/>
<path d="M8878 53962 l-108 -15 0 -14 0 -14 33 6 c111 18 170 25 227 25 36 0
89 3 118 6 l52 7 0 8 0 9 -107 -1 -108 -2 -107 -15z"/>
<path d="M33246 53855 l-157 -126 6 -10 6 -9 23 17 c12 10 83 67 159 127 125
99 153 126 128 126 -5 0 -79 -56 -165 -125z"/>
<path d="M52000 53879 c47 -44 129 -111 182 -150 l96 -70 30 -47 c26 -40 54
-100 138 -299 l14 -32 -21 -20 -21 -19 -101 -7 -102 -8 22 -8 22 -8 88 10 88
10 23 23 23 23 -40 92 c-23 50 -41 93 -41 95 0 2 10 6 22 9 l22 6 -6 6 -6 7
-19 -10 -19 -11 -42 90 -42 89 -87 62 c-48 35 -133 105 -190 156 -57 50 -107
92 -111 92 -4 -1 31 -37 78 -81z"/>
<path d="M51410 53915 l-12 -15 10 0 c5 0 15 7 22 15 l12 15 -10 0 c-5 0 -15
-7 -22 -15z"/>
<path d="M54090 53783 c0 -12 298 -218 306 -211 2 3 -19 21 -48 40 -29 20 -99
68 -155 107 -57 40 -103 68 -103 64z"/>
<path d="M51740 53708 l0 -13 77 -60 c42 -33 100 -84 130 -114 l53 -54 6 6 7
6 -34 38 c-32 36 -73 71 -191 166 l-48 39 0 -14z"/>
<path d="M54756 53686 c21 -19 41 -32 44 -29 6 6 -61 63 -74 63 -5 0 8 -15 30
-34z"/>
<path d="M80941 53697 c-1 -15 91 -396 105 -436 2 -8 6 -12 9 -10 2 3 -23 108
-55 234 -32 127 -59 222 -59 212z"/>
<path d="M52310 53693 c1 -11 80 -65 80 -55 0 7 -35 37 -67 56 l-13 7 0 -8z"/>
<path d="M48918 53557 c-81 -40 -147 -75 -148 -79 0 -8 290 128 305 143 l9 9
-9 -1 c-6 0 -76 -33 -157 -72z"/>
<path d="M58176 53487 l-95 -103 -85 -54 c-48 -30 -86 -58 -86 -62 0 -5 40 18
89 49 l89 58 102 108 102 107 -10 0 c-6 0 -53 -46 -106 -103z"/>
<path d="M52703 53457 c-112 -61 -201 -112 -198 -115 4 -4 372 191 403 214
l17 13 -10 0 c-5 -1 -101 -51 -212 -112z"/>
<path d="M9210 53554 c-100 -15 -206 -43 -267 -71 -18 -8 -126 -50 -240 -94
-114 -43 -202 -79 -194 -79 13 0 103 33 381 140 149 57 225 78 332 90 l80 9
36 -14 c19 -9 37 -13 40 -10 3 2 -11 12 -31 20 l-36 15 -38 -1 c-21 -1 -49 -3
-63 -5z"/>
<path d="M48738 53484 l-6 -5 55 -127 c75 -177 165 -362 175 -362 13 0 11 5
-38 103 -26 50 -76 159 -111 242 -70 163 -67 157 -75 149z"/>
<path d="M54730 53375 c0 -6 7 -21 16 -33 l16 -23 151 -101 152 -102 59 -18
c33 -10 64 -17 70 -15 l11 4 -65 19 -65 20 -151 101 -151 101 -21 29 -21 28
-1 -10z"/>
<path d="M52637 53108 c58 -123 116 -247 129 -277 13 -30 27 -52 29 -49 7 7
-247 548 -256 548 -4 0 40 -100 98 -222z"/>
<path d="M54699 53233 l-15 -4 -93 -302 -92 -302 -9 -65 -8 -65 -46 -149 -46
-148 1 -32 2 -31 4 25 c2 14 27 99 54 188 l50 164 3 51 4 52 93 302 92 302 29
6 29 7 197 -131 c109 -72 204 -131 211 -131 l13 0 -203 135 -204 135 -25 -1
c-14 -1 -32 -3 -41 -6z"/>
<path d="M11576 53211 l-5 -8 82 -61 c45 -33 116 -85 157 -115 l75 -55 10 9
10 10 -25 19 c-54 42 -290 210 -294 210 -3 0 -7 -4 -10 -9z"/>
<path d="M56690 53184 c-91 -7 -178 -13 -194 -13 l-29 -1 6 -6 6 -7 188 13
c104 6 316 15 473 19 l285 8 -285 0 -285 0 -165 -13z"/>
<path d="M56960 53150 l-45 -7 110 0 c61 0 175 3 255 7 l145 6 -210 1 -210 0
-45 -7z"/>
<path d="M56050 53120 c0 -6 11 -26 24 -43 14 -18 28 -44 31 -59 l7 -28 13 0
13 0 -10 37 c-12 45 -35 81 -59 94 l-19 10 0 -11z"/>
<path d="M55414 53088 l-7 -11 11 7 c12 7 16 16 8 16 -3 0 -8 -5 -12 -12z"/>
<path d="M34447 53048 c-49 -16 -86 -32 -84 -35 3 -2 47 9 99 25 51 17 102 32
113 35 l20 5 -30 0 -30 0 -88 -30z"/>
<path d="M55091 52799 l-93 -181 10 -10 11 -11 90 182 c96 190 97 194 84 198
l-8 3 -94 -181z"/>
<path d="M50685 52800 l-6 -10 15 6 c18 7 21 14 7 14 -6 0 -13 -4 -16 -10z"/>
<path d="M35497 52588 c18 -117 33 -220 34 -228 l1 -15 5 13 5 13 -33 215
c-18 118 -35 214 -39 214 l-6 0 33 -212z"/>
<path d="M18505 52513 c4 -131 9 -240 11 -242 2 -2 7 -2 10 2 l6 6 -7 236 -7
235 -10 0 -10 0 7 -237z"/>
<path d="M48375 52738 c3 -7 18 -21 35 -30 l29 -16 11 13 10 12 -24 17 c-14 9
-34 16 -45 16 l-20 0 4 -12z"/>
<path d="M85586 52464 c-98 -74 -173 -134 -167 -134 6 0 84 55 173 121 90 67
169 124 176 126 13 5 17 24 5 22 -5 0 -88 -61 -187 -135z"/>
<path d="M81540 52541 c17 -10 418 -131 433 -131 28 0 -18 16 -217 75 -219 65
-244 72 -216 56z"/>
<path d="M54983 52408 l-91 -133 -41 -39 -40 -39 5 -9 5 -8 45 39 46 40 89
130 c49 71 89 135 89 140 0 27 -23 1 -107 -121z"/>
<path d="M81526 52511 c5 -5 101 -37 214 -72 113 -34 212 -64 220 -67 l15 -5
-10 10 c-8 8 -250 86 -419 134 l-30 9 10 -9z"/>
<path d="M40397 52444 l-6 -6 6 -14 c3 -8 9 -14 14 -14 l9 0 0 14 c0 17 -14
29 -23 20z"/>
<path d="M51512 52352 c17 -41 184 -362 189 -362 3 0 -37 83 -88 185 -52 102
-96 185 -99 185 -3 0 -4 -4 -2 -8z"/>
<path d="M54291 52104 l-31 -26 0 -34 0 -34 10 0 10 0 0 23 0 24 23 20 c12 11
30 23 41 27 l19 6 34 -20 c41 -24 43 -24 43 -5 l0 14 -30 16 -29 15 -30 0 -29
0 -31 -26z"/>
<path d="M85270 51973 c-163 -126 -194 -153 -173 -153 7 0 333 246 356 270 l9
8 -9 5 -8 4 -175 -134z"/>
<path d="M32415 51896 l-140 -21 0 -15 c0 -8 4 -45 8 -82 l9 -68 7 0 8 0 -8
48 c-4 26 -8 61 -8 78 l-1 31 135 18 135 17 0 9 c0 5 -1 8 -2 8 -2 -1 -66 -11
-143 -23z"/>
<path d="M53151 51916 c-1 -5 36 -86 81 -179 l82 -169 4 10 3 10 -85 169 c-47
92 -85 164 -85 159z"/>
<path d="M27035 51650 c-4 -122 -5 -223 -2 -226 3 -3 8 75 11 173 3 98 8 199
10 226 l3 47 -7 0 -8 0 -7 -220z"/>
<path d="M18455 51778 c-2 -7 -11 -50 -20 -95 -9 -46 -34 -142 -55 -215 -35
-119 -41 -153 -24 -136 10 11 76 243 99 351 l23 107 -9 0 c-5 0 -11 -6 -14
-12z"/>
<path d="M3715 51660 l6 -10 109 0 109 0 53 -11 53 -12 38 -29 38 -30 6 6 6 6
-37 34 -37 33 -56 12 -56 11 -119 0 -119 0 6 -10z"/>
<path d="M59746 51521 l12 -13 218 -38 c188 -34 242 -40 223 -27 -2 2 -98 19
-214 39 -115 19 -219 39 -230 43 l-20 8 11 -12z"/>
<path d="M17935 51461 l-5 -9 162 -67 c89 -37 183 -74 210 -82 l48 -14 12 7
12 8 -60 17 c-32 9 -130 47 -216 82 l-158 66 -5 -8z"/>
<path d="M69280 51455 c0 -3 11 -33 25 -68 14 -34 37 -105 51 -157 14 -52 27
-101 30 -109 l4 -14 6 6 6 5 -27 99 c-28 106 -74 231 -87 239 -4 3 -8 3 -8 -1z"/>
<path d="M28580 51012 l0 -10 128 -6 c70 -3 164 -8 209 -11 l82 -4 6 9 5 8
-62 6 c-35 3 -132 8 -215 11 l-153 6 0 -9z"/>
<path d="M5715 50882 l10 -11 201 -25 c110 -15 210 -26 222 -26 l22 0 0 8 0 8
-187 23 c-104 12 -208 25 -233 28 l-45 6 10 -11z"/>
<path d="M27804 50700 l0 -185 3 93 c2 50 2 134 0 185 l-3 92 0 -185z"/>
<path d="M33541 50837 c-2 -16 129 -841 134 -845 9 -9 6 14 -56 411 -52 338
-75 466 -78 434z"/>
<path d="M5710 50822 l0 -8 227 -27 c209 -24 245 -26 231 -12 -5 6 -397 55
-435 55 l-23 0 0 -8z"/>
<path d="M7560 50782 l0 -10 38 -6 c20 -3 228 -29 460 -57 l424 -51 6 6 c3 3
3 8 1 10 -2 2 -195 27 -429 55 -234 28 -442 54 -462 57 l-38 6 0 -10z"/>
<path d="M8942 50509 l4 -12 119 -42 c66 -23 157 -61 202 -83 l83 -40 5 8 5 8
-13 10 c-23 20 -172 84 -286 123 -127 44 -124 43 -119 28z"/>
<path d="M48640 50343 c-76 -51 -111 -69 -238 -124 l-43 -19 6 -9 5 -10 102
45 102 46 73 50 c41 28 76 55 79 60 15 24 -8 13 -86 -39z"/>
<path d="M34315 50068 c3 -13 9 -41 13 -62 l8 -40 11 -3 11 -4 -9 43 c-5 24
-11 53 -14 66 l-5 22 -10 0 -10 0 5 -22z"/>
<path d="M34182 50024 l-43 -42 9 -6 9 -5 42 38 c22 21 41 43 41 49 0 19 -12
12 -58 -34z"/>
<path d="M36775 50015 c-5 -2 -90 -9 -187 -16 l-178 -12 0 -6 0 -7 221 17
c121 10 223 20 227 23 l5 6 -39 -1 c-21 0 -43 -2 -49 -4z"/>
<path d="M34255 49913 c7 -41 12 -50 21 -41 l5 6 -6 36 -7 36 -10 0 -10 0 7
-37z"/>
<path d="M49708 49824 l-27 -14 5 -15 6 -14 35 14 c20 8 37 15 39 15 2 0 1 7
-2 15 l-6 15 -12 0 c-6 -1 -23 -7 -38 -16z"/>
<path d="M60370 49815 l0 -12 216 -48 215 -47 7 6 6 7 -12 8 c-7 4 -59 18
-115 30 -56 12 -150 32 -209 45 l-108 23 0 -12z"/>
<path d="M43501 49629 c-1 -3 39 -89 88 -190 49 -101 90 -179 90 -174 1 11
-177 374 -178 364z"/>
<path d="M38151 49524 c-6 -22 -28 -108 -50 -191 l-39 -153 6 0 c9 0 105 371
98 377 -3 3 -9 -12 -15 -33z"/>
<path d="M11792 49299 l5 -14 39 -23 c21 -12 68 -31 104 -43 l65 -20 108 -7
107 -7 0 11 0 11 -107 6 -108 6 -60 20 c-33 10 -82 32 -109 47 l-49 27 5 -14z"/>
<path d="M84837 49188 c183 -240 237 -308 240 -304 7 6 -229 315 -241 316 l-8
0 9 -12z"/>
<path d="M81530 49172 c-8 -2 -55 -37 -105 -77 -49 -39 -110 -84 -135 -100
l-45 -28 13 -5 12 -4 37 23 c21 13 75 52 119 89 45 36 92 73 105 82 25 17 25
29 -1 20z"/>
<path d="M63916 49035 l-4 -11 212 -52 c116 -29 215 -52 219 -52 l9 0 -4 12
-4 12 -212 51 -211 52 -5 -12z"/>
<path d="M64721 48962 l-1 -24 -21 -30 c-12 -16 -19 -31 -16 -34 3 -3 15 9 27
25 l21 31 -4 27 -4 28 -2 -23z"/>
<path d="M81288 48915 c2 -14 8 -25 12 -25 l7 0 -5 25 c-2 14 -8 25 -12 25
l-7 0 5 -25z"/>
<path d="M91444 48772 c-50 -59 -119 -140 -153 -179 -35 -40 -59 -73 -54 -73
8 0 228 252 296 337 l18 23 -8 -1 c-4 0 -49 -48 -99 -107z"/>
<path d="M34098 48576 l-206 -11 -9 -8 -8 -8 85 5 c47 4 170 11 274 16 104 5
191 12 194 15 7 7 -80 4 -330 -9z"/>
<path d="M91234 48463 c-15 -21 -92 -104 -171 -185 -79 -80 -143 -150 -143
-155 0 -4 57 48 126 117 125 124 231 247 222 256 -3 2 -18 -12 -34 -33z"/>
<path d="M44450 48213 l-141 -136 13 -8 13 -7 143 138 c78 76 142 141 142 144
0 3 -6 6 -14 6 l-15 0 -141 -137z"/>
<path d="M32793 48230 c3 -19 23 -141 43 -270 20 -129 39 -237 40 -239 15 -17
9 39 -27 265 l-41 259 -10 10 -10 10 5 -35z"/>
<path d="M29387 47950 c3 -80 9 -181 13 -225 l8 -80 -5 180 c-3 99 -9 200 -13
225 l-8 45 5 -145z"/>
<path d="M74971 48074 c13 -37 175 -364 181 -364 8 0 -159 350 -174 365 l-10
10 3 -11z"/>
<path d="M44116 48051 c-3 -5 -88 -55 -188 -112 -212 -119 -194 -107 -182
-119 l9 -9 184 104 c101 57 193 113 205 124 l20 21 -21 0 c-12 0 -24 -4 -27
-9z"/>
<path d="M44286 48001 l-6 -9 24 -15 23 -16 15 -33 16 -33 7 -157 7 -158 10 0
10 0 -7 163 -7 162 -15 33 -15 32 -29 20 -28 20 -5 -9z"/>
<path d="M69172 47919 l4 -13 210 -43 c115 -23 219 -42 232 -43 l22 0 0 9 0 8
-212 43 c-117 24 -224 45 -237 48 l-24 5 5 -14z"/>
<path d="M51120 47908 c1 -7 12 -33 26 -58 l25 -45 -6 29 c-3 15 -9 41 -12 57
l-5 29 -14 0 -14 0 0 -12z"/>
<path d="M76034 47898 c3 -13 6 -34 6 -47 l0 -25 11 11 12 12 -7 35 -7 36 -11
0 -10 0 6 -22z"/>
<path d="M51170 47790 l0 -13 7 6 6 7 -6 7 -7 6 0 -13z"/>
<path d="M76040 47755 l0 -25 10 0 10 0 0 25 0 25 -10 0 -10 0 0 -25z"/>
<path d="M51190 47740 l0 -13 7 6 6 7 -6 7 -7 6 0 -13z"/>
<path d="M51200 47710 l0 -13 7 6 6 7 -6 7 -7 6 0 -13z"/>
<path d="M51210 47680 l0 -13 7 6 6 7 -6 7 -7 6 0 -13z"/>
<path d="M51221 47647 c-1 -19 39 -120 45 -114 2 1 -8 32 -21 67 l-24 65 0
-18z"/>
<path d="M42598 47414 l-8 -7 1 -206 2 -206 9 175 c4 96 7 192 6 213 l-3 39
-7 -8z"/>
<path d="M41666 47121 l-7 -11 -25 0 -24 0 0 -15 0 -14 33 6 c17 3 36 10 42
14 l9 9 -11 11 -11 11 -6 -11z"/>
<path d="M34750 46745 l0 -175 10 0 10 0 0 175 0 175 -10 0 -10 0 0 -175z"/>
<path d="M36497 46586 l-8 -28 6 -6 5 -5 6 5 c3 4 4 19 2 35 l-3 28 -8 -29z"/>
<path d="M34443 46537 l-173 -10 0 -13 0 -13 98 4 c53 3 154 8 225 11 l127 6
0 14 0 14 -52 -2 c-29 -1 -131 -6 -225 -11z"/>
<path d="M34975 46479 c-71 -3 -147 -7 -167 -8 l-38 -1 0 -16 0 -16 108 6 c59
3 158 8 220 12 l112 6 0 14 0 14 -52 -2 c-29 -1 -111 -5 -183 -9z"/>
<path d="M34693 46378 c3 -24 11 -105 18 -180 l13 -138 8 0 8 0 0 33 c0 17 -7
95 -15 172 -8 77 -15 143 -15 148 0 4 -5 7 -11 7 l-12 0 6 -42z"/>
<path d="M24668 46395 l-6 -6 5 -38 5 -38 -11 -21 -11 -21 11 -7 11 -6 9 9 c5
5 11 29 15 53 l6 45 -14 18 -14 18 -6 -6z"/>
<path d="M93020 46076 l-25 -23 -62 -22 -61 -23 -64 -2 c-34 -2 -93 -3 -130
-4 l-68 -2 0 -11 0 -10 18 5 c9 3 69 6 132 8 l115 2 67 25 66 26 22 28 c26 33
23 35 -10 3z"/>
<path d="M18941 46050 c0 -15 157 -331 158 -319 1 3 -35 80 -79 170 -44 90
-79 157 -79 149z"/>
<path d="M81340 45950 c0 -5 5 -10 10 -10 6 0 10 5 10 10 0 6 -4 10 -10 10 -5
0 -10 -4 -10 -10z"/>
<path d="M81370 45886 c-4 -13 -14 -43 -20 -67 -6 -24 -20 -68 -32 -97 l-21
-53 -29 -6 -29 -6 8 -21 c8 -24 8 -41 -2 -76 l-6 -25 15 25 15 25 -5 32 -6 32
25 6 26 7 15 38 c19 48 65 210 60 210 -3 0 -9 -11 -14 -24z"/>
<path d="M81322 45858 c-5 -7 -17 -38 -25 -68 -9 -30 -23 -65 -32 -77 l-16
-23 -25 0 -24 0 0 -8 0 -9 23 3 c12 1 28 3 34 3 l12 1 17 32 c16 31 56 158 50
158 -2 0 -8 -6 -14 -12z"/>
<path d="M49917 45680 l-67 -29 -110 -17 c-61 -10 -116 -21 -122 -25 -29 -18
5 -17 118 2 l119 20 77 32 c43 18 78 35 78 40 0 12 -22 7 -93 -23z"/>
<path d="M48790 44916 l-14 -58 10 -16 c6 -9 18 -20 27 -26 l16 -10 7 6 6 7
-26 23 -26 23 11 38 c5 21 9 46 6 55 l-3 17 -14 -59z"/>
<path d="M16960 44789 c-30 -10 -61 -22 -69 -24 l-14 -6 10 -10 11 -11 66 22
66 22 0 14 c0 17 -2 17 -70 -7z"/>
<path d="M87980 44679 c-76 -176 -160 -385 -157 -392 1 -5 42 84 90 198 48
115 85 210 82 213 -2 2 -9 -6 -15 -19z"/>
<path d="M43135 44610 l-90 -6 135 -1 c74 0 182 3 240 7 l105 7 -150 -1 c-82
0 -190 -3 -240 -6z"/>
<path d="M26556 44381 c8 -9 703 -339 794 -378 l35 -15 -10 10 c-11 12 -809
392 -821 392 l-8 0 10 -9z"/>
<path d="M87957 43703 c136 -219 122 -197 127 -192 6 6 -222 373 -234 377 -5
2 43 -81 107 -185z"/>
<path d="M34506 43480 c-22 -56 -129 -215 -179 -267 l-41 -43 10 0 c18 0 80
73 143 168 l62 93 15 41 c19 54 11 60 -10 8z"/>
<path d="M77065 43295 c-121 -19 -221 -34 -223 -34 -2 -1 -1 -5 2 -9 l5 -9
228 33 c125 19 229 34 231 34 2 0 0 5 -3 10 -3 6 -9 9 -13 9 -4 -1 -106 -16
-227 -34z"/>
<path d="M52432 43247 c-7 -8 -86 -49 -177 -92 -91 -43 -165 -82 -165 -86 0
-9 336 153 353 170 l11 11 -6 5 -5 5 -11 -13z"/>
<path d="M42036 42921 l-20 -8 10 -5 9 -6 25 14 25 13 -15 0 c-8 0 -24 -4 -34
-8z"/>
<path d="M50803 42895 c-83 -12 -157 -25 -165 -28 l-13 -5 20 -1 c30 -1 336
47 343 53 l5 6 -19 -1 c-10 -1 -87 -11 -171 -24z"/>
<path d="M35591 42860 c-13 -11 -30 -20 -38 -20 l-14 0 5 -9 6 -9 23 5 c24 6
57 31 57 45 0 13 -13 9 -39 -12z"/>
<path d="M88579 42704 c12 -20 21 -37 19 -39 -2 -1 -28 -16 -58 -33 -74 -41
-203 -132 -197 -139 3 -3 29 13 59 34 29 22 90 61 135 87 l81 47 -21 39 c-12
22 -26 40 -30 40 l-9 0 21 -36z"/>
<path d="M31771 42498 l-164 -168 7 -7 7 -7 120 119 c134 133 202 211 197 223
l-3 8 -164 -168z"/>
<path d="M51401 42568 c-1 -8 57 -382 65 -417 3 -13 7 -21 10 -19 6 7 -55 398
-66 423 -5 11 -9 17 -9 13z"/>
<path d="M31042 41812 l-163 -228 -52 -51 -52 -50 -375 -283 -375 -283 -45
-18 c-25 -9 -78 -22 -119 -29 l-74 -12 -49 6 -49 7 -66 36 c-36 20 -93 58
-126 85 -58 46 -78 57 -76 41 1 -15 114 -100 189 -143 l75 -43 57 -5 57 -4 68
11 c37 7 88 19 113 28 l45 16 380 285 c209 157 402 306 428 331 l49 46 174
243 174 242 -13 0 -12 0 -163 -228z"/>
<path d="M30943 41582 c-52 -77 -100 -116 -510 -425 l-392 -295 -78 -26 -78
-26 -28 0 -27 0 0 -10 0 -10 28 0 c15 0 65 13 112 28 l85 27 390 294 c215 161
412 314 438 340 43 41 107 128 107 144 0 18 -18 2 -47 -41z"/>
<path d="M28497 41246 l-5 -12 22 -2 c11 0 53 -8 91 -16 l70 -15 146 -4 146
-5 0 12 0 11 -146 3 -146 4 -87 18 -87 17 -4 -11z"/>
<path d="M58161 41016 c2 -2 103 -6 224 -9 l220 -5 -25 8 -25 8 -199 1 c-110
1 -197 -1 -195 -3z"/>
<path d="M97170 40711 c-96 -33 -168 -60 -160 -60 9 -1 94 26 190 58 96 33
168 60 160 60 -8 0 -94 -26 -190 -58z"/>
<path d="M97193 40677 c-101 -34 -183 -65 -183 -69 0 -6 378 117 388 127 13
13 -36 -1 -205 -58z"/>
<path d="M84816 39968 c4 -7 44 -67 89 -133 45 -66 101 -154 125 -195 52 -90
49 -85 56 -78 l5 6 -41 68 c-68 113 -224 343 -233 344 l-8 0 7 -12z"/>
<path d="M48290 39778 c-57 -73 -107 -139 -113 -145 l-9 -13 9 0 c5 0 30 26
54 58 25 31 73 94 108 140 35 45 61 85 59 88 -3 3 -52 -55 -108 -128z"/>
<path d="M83932 39692 c13 -21 66 -107 118 -190 l95 -152 12 0 c7 0 13 2 13 5
0 3 -52 89 -116 190 l-116 185 -15 0 -14 0 23 -38z"/>
<path d="M45410 39655 c0 -11 5 -27 10 -35 l10 -15 0 20 c0 11 -5 27 -10 35
l-10 15 0 -20z"/>
<path d="M94440 39634 c0 -12 164 -234 173 -234 l8 0 -22 33 c-58 82 -151 207
-155 207 -2 0 -4 -3 -4 -6z"/>
<path d="M47180 39340 l0 -13 7 6 6 7 -6 7 -7 6 0 -13z"/>
<path d="M55305 39110 l-7 -12 28 -30 c39 -41 142 -112 453 -315 l265 -173 10
10 c5 5 8 11 5 14 -2 2 -119 79 -259 171 -284 187 -410 274 -456 317 l-32 30
-7 -12z"/>
<path d="M51573 39093 l-12 -4 5 -12 4 -12 -100 -379 c-95 -359 -106 -405 -96
-395 2 2 50 177 106 389 56 212 103 386 105 388 2 2 90 -15 197 -38 106 -23
202 -44 213 -46 l20 -4 -20 10 c-11 5 -105 28 -210 50 -104 23 -192 45 -195
49 l-5 8 -12 -4z"/>
<path d="M52026 39020 c11 -10 409 -83 424 -78 7 2 -55 16 -137 31 -81 15
-181 33 -222 41 l-73 14 8 -8z"/>
<path d="M60035 38744 c21 -38 53 -90 72 -116 l34 -47 82 -72 c45 -40 83 -78
85 -85 l3 -13 -47 -68 c-26 -38 -88 -112 -137 -165 -49 -54 -85 -98 -79 -98
26 0 282 310 282 342 l0 13 -82 70 c-92 80 -142 139 -194 231 -20 35 -41 67
-47 71 l-11 6 39 -69z"/>
<path d="M59970 38784 c0 -13 105 -181 137 -219 40 -47 140 -135 154 -135 6 0
-11 18 -38 41 -26 22 -67 61 -91 87 l-43 47 -56 93 c-52 86 -63 101 -63 86z"/>
<path d="M53780 38693 l0 -9 176 -33 c97 -19 186 -36 198 -39 l21 -5 -10 10
-10 10 -175 33 c-96 18 -181 35 -187 37 l-13 5 0 -9z"/>
<path d="M89040 38269 c-96 -61 -179 -116 -185 -122 l-10 -10 15 8 c8 4 92 57
186 117 l172 108 17 -7 18 -6 -7 11 c-4 7 -13 12 -19 12 -7 0 -91 -50 -187
-111z"/>
<path d="M88582 38345 c3 -5 45 -76 93 -157 l88 -148 9 0 c11 0 98 59 98 66 0
6 -14 -1 -52 -28 -14 -10 -33 -18 -41 -18 l-16 0 -82 138 c-45 75 -86 142 -92
147 l-10 10 5 -10z"/>
<path d="M86955 37808 c-206 -127 -190 -117 -184 -123 5 -4 353 206 374 226
l9 9 -10 0 c-5 0 -91 -50 -189 -112z"/>
<path d="M60361 37804 c0 -5 72 -74 159 -154 l158 -145 -5 -7 c-10 -18 11 -5
73 46 l67 53 63 12 c107 19 205 43 200 48 -2 3 -65 -8 -138 -23 l-133 -27 -60
-47 -60 -47 -140 131 c-77 72 -150 140 -162 150 l-23 19 1 -9z"/>
<path d="M60410 37699 c141 -133 230 -212 234 -208 5 5 -301 289 -311 289 -4
-1 30 -37 77 -81z"/>
<path d="M91187 37658 c6 -35 20 -58 34 -58 l8 0 -15 28 c-7 15 -14 35 -14 45
l0 17 -10 0 -9 0 6 -32z"/>
<path d="M92803 37611 l6 -24 -10 -20 -11 -19 14 4 13 5 3 27 4 28 -13 12 -12
11 6 -24z"/>
<path d="M85277 37375 c69 -108 128 -194 130 -191 6 5 -238 386 -248 386 -4 0
49 -88 118 -195z"/>
<path d="M50954 37109 c19 -27 285 -279 294 -279 7 1 -298 300 -306 300 -2 0
3 -9 12 -21z"/>
<path d="M58711 36844 l-12 -27 6 -6 6 -5 9 14 c9 14 14 50 7 50 -2 0 -9 -12
-16 -26z"/>
<path d="M51290 36738 c120 -115 260 -241 265 -236 3 2 -61 65 -142 139 -157
144 -230 202 -123 97z"/>
<path d="M60515 35900 l-5 -8 220 -120 220 -120 0 11 0 12 -143 77 c-78 43
-174 96 -214 117 l-72 40 -6 -9z"/>
<path d="M86487 35769 l-17 -10 5 -8 4 -8 36 11 c19 6 35 14 35 18 l0 8 -22 0
c-13 0 -31 -5 -41 -11z"/>
<path d="M86647 35709 c10 -19 50 -81 88 -136 l70 -102 50 -25 50 -26 46 0 46
0 40 14 40 14 147 92 146 92 -5 9 -6 9 -77 -49 c-42 -26 -110 -69 -151 -94
l-73 -46 -49 -11 -50 -12 -37 7 c-20 4 -51 15 -69 26 l-32 20 -70 97 c-39 53
-82 111 -97 127 l-26 30 19 -36z"/>
<path d="M86440 35691 c0 -6 4 -13 10 -16 l10 -6 -6 15 c-7 18 -14 21 -14 7z"/>
<path d="M41764 35677 l19 -14 -5 -26 -5 -27 9 0 9 0 -3 37 -3 38 -20 3 -20 4
19 -15z"/>
<path d="M84840 35610 c-54 -36 -42 -40 15 -5 l40 24 40 0 40 0 26 -22 27 -22
58 -102 c32 -57 62 -103 66 -103 4 0 -21 48 -54 108 l-61 107 -26 22 -26 22
-50 1 -50 0 -45 -30z"/>
<path d="M33978 35423 c-165 -184 -184 -207 -172 -202 16 6 297 319 292 325
-3 2 -57 -53 -120 -123z"/>
<path d="M84231 35170 c-316 -203 -579 -374 -585 -381 l-11 -12 35 20 c19 11
276 174 570 363 294 189 548 351 565 361 l30 19 -15 -1 -15 0 -574 -369z"/>
<path d="M60897 35104 c-43 -104 -77 -193 -77 -199 1 -18 26 37 94 203 l67
164 -3 10 -4 11 -77 -189z"/>
<path d="M54583 34940 c3 -14 16 -107 28 -207 l23 -183 9 0 8 0 -4 18 c-3 9
-15 98 -28 197 l-22 180 -10 10 -10 10 6 -25z"/>
<path d="M85710 34569 c-96 -60 -181 -113 -189 -118 l-14 -8 4 -12 4 -11 195
118 195 119 -2 9 c-1 4 -5 9 -10 11 -4 1 -87 -48 -183 -108z"/>
<path d="M82670 34149 c-107 -72 -187 -129 -178 -126 20 7 378 245 378 252 0
8 0 9 -200 -126z"/>
<path d="M31140 34163 c-8 -3 -27 -17 -42 -31 l-28 -26 0 -13 c0 -21 15 -15
38 16 l22 30 45 6 45 7 0 9 0 9 -32 -1 c-18 0 -40 -3 -48 -6z"/>
<path d="M33340 33471 c0 -3 134 -69 298 -145 163 -77 302 -142 307 -144 l10
-5 -10 11 c-14 15 -605 292 -605 283z"/>
<path d="M83985 33318 c-105 -65 -196 -123 -204 -127 l-14 -8 10 -6 10 -6 194
122 c179 112 207 132 197 142 -2 2 -89 -51 -193 -117z"/>
<path d="M65691 33219 c-52 -90 -107 -181 -123 -201 l-29 -38 9 0 c5 0 16 8
25 18 25 28 218 365 214 375 l-3 9 -93 -163z"/>
<path d="M2020 32991 l0 -8 108 -6 c59 -4 161 -9 227 -13 l120 -7 -5 6 c-3 3
-91 11 -195 16 -105 6 -205 13 -222 16 l-33 4 0 -8z"/>
<path d="M77955 32839 c-77 -4 -194 -15 -260 -23 -66 -9 -123 -16 -127 -16 -5
0 -8 -7 -8 -15 0 -8 2 -15 4 -15 2 0 80 9 173 20 l168 19 215 6 c118 3 257 8
308 11 l92 6 0 9 0 9 -212 -2 c-117 0 -276 -5 -353 -9z"/>
<path d="M79411 32686 c7 -7 362 -146 373 -146 l9 0 -6 7 c-11 11 -185 83
-276 114 -80 27 -110 35 -100 25z"/>
<path d="M34300 32510 c0 -6 7 -25 17 -43 l16 -32 4 12 4 12 -16 30 c-16 32
-25 39 -25 21z"/>
<path d="M72991 32338 c0 -7 4 -22 9 -33 l9 -20 0 27 1 27 -10 6 -10 6 1 -13z"/>
<path d="M73603 32107 l-213 -31 0 -14 0 -14 28 6 c15 3 118 17 230 33 l202
27 0 13 0 13 -17 -1 c-10 -1 -114 -15 -230 -32z"/>
<path d="M99191 31287 c-2 -17 282 -399 301 -406 8 -3 -88 129 -279 385 -12
16 -22 25 -22 21z"/>
<path d="M15265 27658 c-2 -13 -23 -99 -45 -192 -22 -93 -38 -171 -35 -174 6
-7 9 3 55 188 23 91 43 173 46 183 l5 17 -10 0 -11 0 -5 -22z"/>
<path d="M7810 27447 c-201 -30 -218 -33 -209 -41 6 -5 438 60 446 67 l6 7
-19 -1 c-10 -1 -111 -15 -224 -32z"/>
<path d="M94822 26725 c-101 -73 -186 -136 -189 -139 l-6 -6 9 0 c8 0 361 254
380 273 l7 7 -9 0 c-5 -1 -91 -61 -192 -135z"/>
<path d="M21857 26817 c-4 -10 -7 -26 -7 -35 l1 -17 10 18 10 18 -3 17 -4 17
-7 -18z"/>
<path d="M24529 26023 c-23 -71 -55 -157 -70 -192 -32 -71 -32 -71 -21 -71 14
0 53 91 103 240 55 163 52 150 40 150 l-9 0 -43 -127z"/>
<path d="M87395 25990 l-5 -9 202 -160 202 -160 9 6 c4 3 7 6 5 8 -2 1 -94 75
-205 163 l-202 161 -6 -9z"/>
<path d="M90490 24839 c47 -5 150 -18 230 -30 l145 -20 119 -35 118 -35 120
-50 c66 -27 125 -48 130 -47 l10 4 -136 58 -136 57 -102 29 -101 30 -133 20
-134 20 -107 5 -108 4 85 -10z"/>
<path d="M89562 20839 c-73 -67 -132 -125 -132 -131 0 -5 57 43 128 108 70 64
131 121 136 125 5 5 8 11 5 13 -3 3 -64 -49 -137 -115z"/>
<path d="M1470 20881 c0 -6 2 -11 4 -11 3 0 100 -11 216 -25 116 -14 222 -25
236 -25 l24 0 0 8 0 8 -207 23 c-115 12 -223 25 -240 28 l-33 5 0 -11z"/>
<path d="M89080 20454 c-173 -157 -322 -293 -330 -301 l-15 -15 12 3 c7 2 143
123 303 269 160 146 306 277 323 292 18 14 29 29 27 32 -3 3 -147 -123 -320
-280z"/>
<path d="M23566 17301 l-7 -11 151 -165 c138 -151 170 -180 170 -157 0 6 -222
256 -290 326 l-18 18 -6 -11z"/>
<path d="M92140 16394 c0 -5 20 -30 45 -54 l45 -44 0 10 c0 5 -20 30 -45 54
l-45 44 0 -10z"/>
<path d="M97424 14005 c-82 -96 -151 -181 -153 -187 l-3 -13 9 10 c50 51 304
357 301 361 -3 3 -72 -74 -154 -171z"/>
<path d="M96859 13347 c-47 -56 -112 -132 -144 -170 -32 -37 -56 -70 -53 -72
4 -4 252 279 286 327 l13 18 -8 -1 c-4 0 -47 -46 -94 -102z"/>
<path d="M96565 12938 c-124 -144 -151 -178 -142 -178 4 0 91 99 255 293 8 9
13 19 11 21 -2 2 -58 -59 -124 -136z"/>
<path d="M23015 2281 c3 -5 79 -68 170 -140 l164 -130 6 8 5 9 -165 131 c-91
72 -170 131 -176 131 l-10 0 6 -9z"/>
<path d="M17220 1178 l0 -15 113 -11 c61 -6 163 -14 225 -18 l112 -6 0 16 0
16 -92 0 c-87 0 -236 12 -320 26 l-38 6 0 -14z"/>
<path d="M18130 1117 l0 -13 208 -18 c114 -10 215 -20 225 -23 l17 -4 0 15 0
16 -17 0 c-10 0 -110 9 -223 20 -113 11 -206 20 -207 20 -2 0 -3 -6 -3 -13z"/>
</g>
</svg>
