<?xml version="1.0" standalone="no"?>
<!DOCTYPE svg PUBLIC "-//W3C//DTD SVG 20010904//EN"
 "http://www.w3.org/TR/2001/REC-SVG-20010904/DTD/svg10.dtd">
<svg version="1.0" xmlns="http://www.w3.org/2000/svg"
 width="7500.000000pt" height="7500.000000pt" viewBox="0 0 7500.000000 7500.000000"
 preserveAspectRatio="xMidYMid meet">
<metadata>
Created by potrace 1.16, written by Peter Selinger 2001-2019
</metadata>
<g transform="translate(0.000000,7500.000000) scale(0.075000,-0.075000)"
fill="#000000" stroke="none">
<path d="M88871 99996 c4 -4 130 -56 136 -56 2 0 3 4 3 9 l0 8 -51 22 c-45 18
-101 29 -88 17z"/>
<path d="M89880 99660 l0 -10 34 0 35 0 6 10 6 10 -40 0 -41 0 0 -10z"/>
<path d="M83725 98825 l31 -13 139 -13 140 -12 245 1 245 1 30 11 30 10 -85
-6 c-47 -3 -159 -5 -250 -5 l-165 -1 -150 12 c-82 6 -166 15 -185 20 -49 14
-61 11 -25 -5z"/>
<path d="M84930 98333 c0 -5 65 -113 143 -242 l143 -235 12 -4 13 -4 -148 246
c-132 218 -164 265 -163 239z"/>
<path d="M86573 97711 l-222 -36 -8 -8 -8 -9 25 6 c14 3 117 20 230 37 l205
32 10 8 9 9 -9 -1 c-6 -1 -110 -18 -232 -38z"/>
<path d="M89647 97486 l-28 -44 -45 -164 -45 -163 -24 -41 -24 -41 6 -6 6 -6
27 42 26 42 44 160 43 160 24 42 c14 24 23 47 21 53 l-3 10 -28 -44z"/>
<path d="M14090 96665 l0 -35 10 0 10 0 0 35 0 35 -10 0 -10 0 0 -35z"/>
<path d="M28960 96681 c0 -17 351 -281 374 -281 21 0 -5 24 -86 80 -51 35
-135 97 -185 137 -95 75 -103 80 -103 64z"/>
<path d="M88255 96332 l-6 -6 183 -72 c101 -39 194 -75 208 -79 l25 -7 -10 10
c-5 5 -96 44 -202 85 l-192 74 -6 -5z"/>
<path d="M13699 95575 c-8 -8 -56 -37 -107 -64 l-92 -49 -92 -22 c-51 -13 -97
-26 -102 -31 l-10 -9 7 -6 6 -7 107 27 106 27 77 41 c74 40 131 83 131 100 0
13 -14 9 -31 -7z"/>
<path d="M98216 94743 l-149 -154 10 -10 10 -10 148 156 148 156 -9 8 -9 9
-149 -155z"/>
<path d="M98471 94406 c8 -9 410 -166 422 -166 6 1 -82 39 -198 85 -187 76
-238 94 -224 81z"/>
<path d="M87817 93372 c-40 -42 -33 -51 8 -12 l36 35 79 -81 79 -80 14 8 c8 4
27 8 43 10 l29 2 38 -13 c21 -7 41 -11 44 -8 2 3 -20 13 -50 23 l-54 17 -30
-11 -30 -10 -74 74 -73 74 -16 0 -16 0 -27 -28z"/>
<path d="M86763 92763 l7 -6 7 6 6 7 -13 0 -13 0 6 -7z"/>
<path d="M86810 92735 c0 -8 230 -155 243 -155 l12 0 28 36 c36 44 30 54 -8
14 -16 -17 -33 -30 -37 -30 -5 0 -56 32 -113 70 -95 64 -125 79 -125 65z"/>
<path d="M57901 92306 c2 -2 78 -45 169 -96 91 -51 180 -101 198 -112 l32 -20
0 9 c0 9 -379 223 -394 223 -5 0 -7 -2 -5 -4z"/>
<path d="M85860 92099 c-85 -60 -167 -121 -182 -136 l-27 -26 5 -9 6 -10 32
30 c17 16 96 76 176 133 80 56 147 104 149 105 1 2 1 7 0 13 l-4 9 -155 -109z"/>
<path d="M24300 92176 l0 -12 140 -41 140 -40 0 12 0 12 -140 40 -140 40 0
-11z"/>
<path d="M94992 91262 c-17 -21 -50 -74 -73 -117 l-43 -79 -9 27 -9 27 -9 -6
-10 -6 6 -31 6 -32 -11 -30 -11 -30 -32 -32 c-17 -18 -36 -33 -42 -33 -6 0
-22 -12 -36 -26 -13 -15 -65 -54 -116 -88 l-92 -62 -35 -46 -35 -46 13 -5 14
-6 31 40 32 39 87 59 c48 32 100 73 116 90 17 17 35 31 42 31 l12 0 36 40 36
40 0 14 c0 8 11 27 24 43 13 15 40 60 60 100 l36 72 31 36 32 36 -10 10 -10
10 -31 -39z"/>
<path d="M94680 91210 l0 -10 14 0 c8 0 18 5 21 10 l6 10 -20 0 -21 0 0 -10z"/>
<path d="M94583 91187 l-21 -9 -24 -47 c-13 -25 -28 -49 -35 -54 -6 -4 -34
-38 -62 -76 l-50 -69 6 -6 c13 -12 21 -5 64 59 24 35 47 65 52 65 l7 0 0 -20
0 -20 10 0 10 0 0 40 0 40 23 35 c12 19 30 38 39 42 l17 8 -7 11 -7 11 -22
-10z"/>
<path d="M94776 91182 l-5 -8 19 -12 19 -12 6 10 6 10 -6 10 c-7 12 -32 13
-39 2z"/>
<path d="M94565 90960 l-6 -10 6 -10 c7 -12 32 -13 39 -2 l5 8 -19 12 -19 12
-6 -10z"/>
<path d="M94655 90900 l-6 -10 25 0 25 0 6 10 6 10 -25 0 -25 0 -6 -10z"/>
<path d="M94811 90857 c19 -12 56 -40 82 -61 26 -21 50 -37 52 -34 10 10 -137
118 -160 118 -5 -1 6 -11 26 -23z"/>
<path d="M94970 90806 l0 -19 31 -48 c16 -26 50 -66 74 -88 l43 -40 59 -29
c83 -42 213 -95 219 -89 3 2 -32 19 -78 38 -45 18 -113 51 -151 73 l-68 39
-43 48 c-24 27 -53 68 -65 91 l-21 43 0 -19z"/>
<path d="M28703 90723 l7 -6 7 6 6 7 -13 0 -13 0 6 -7z"/>
<path d="M28743 90713 l7 -6 7 6 6 7 -13 0 -13 0 6 -7z"/>
<path d="M28773 90703 l7 -6 7 6 6 7 -13 0 -13 0 6 -7z"/>
<path d="M28808 90693 l13 -5 6 6 6 6 -19 -1 -19 -1 13 -5z"/>
<path d="M28843 90683 l7 -6 7 6 6 7 -13 0 -13 0 6 -7z"/>
<path d="M28873 90673 l7 -6 7 6 6 7 -13 0 -13 0 6 -7z"/>
<path d="M28913 90663 l7 -6 7 6 6 7 -13 0 -13 0 6 -7z"/>
<path d="M28979 90644 c25 -8 61 -16 80 -19 l36 -5 -70 20 c-79 22 -113 25
-46 4z"/>
<path d="M29103 90613 l7 -6 7 6 6 7 -13 0 -13 0 6 -7z"/>
<path d="M29143 90603 l7 -6 7 6 6 7 -13 0 -13 0 6 -7z"/>
<path d="M30740 90230 c0 -5 5 -10 10 -10 6 0 10 5 10 10 0 6 -4 10 -10 10 -5
0 -10 -4 -10 -10z"/>
<path d="M30755 90141 l30 -30 205 -81 c113 -45 241 -93 285 -106 l80 -24 238
-36 238 -36 15 6 c8 3 14 11 14 17 l0 11 -13 -10 -12 -11 -226 34 -226 33 -79
22 c-43 12 -176 61 -294 108 l-215 85 -26 23 c-14 13 -29 24 -34 24 l-10 0 30
-29z"/>
<path d="M30811 90145 c3 -2 59 -25 124 -51 66 -25 126 -48 133 -51 l12 -5 0
9 0 10 -84 31 c-110 42 -196 69 -185 57z"/>
<path d="M96580 89741 c0 -4 87 -70 192 -147 220 -158 274 -206 407 -353 53
-59 98 -106 101 -106 3 0 59 29 124 64 l120 64 94 8 c52 5 97 11 101 14 l6 7
-100 -8 -100 -7 -123 -64 c-68 -36 -124 -64 -125 -62 -10 16 -201 221 -237
255 -54 50 -460 347 -460 335z"/>
<path d="M38533 89483 c-7 -2 -13 -11 -13 -18 l0 -13 40 5 40 6 25 -17 26 -17
9 6 c6 3 10 10 10 15 l0 10 -36 15 -36 15 -27 -1 c-14 0 -32 -3 -38 -6z"/>
<path d="M96971 89395 c24 -18 98 -93 163 -165 65 -72 121 -128 124 -126 2 3
-46 61 -107 128 -111 122 -194 198 -214 198 -6 0 10 -16 34 -35z"/>
<path d="M97540 89236 c-52 -19 -267 -136 -251 -136 7 0 68 29 135 64 l121 65
85 9 85 9 -70 1 -70 1 -35 -13z"/>
<path d="M86360 88980 c41 -5 125 -11 185 -15 l110 -6 65 10 65 9 -135 -1
c-74 0 -187 2 -250 5 l-115 6 75 -8z"/>
<path d="M84630 88834 c-135 -30 -315 -65 -400 -78 l-155 -24 40 -1 c22 0 83
6 135 14 93 15 621 125 629 132 17 13 -34 4 -249 -43z"/>
<path d="M84820 88835 c-30 -7 -124 -28 -209 -46 l-155 -33 12 -4 c16 -5 404
78 417 89 l9 9 -9 -1 c-6 0 -35 -7 -65 -14z"/>
<path d="M79855 88191 l-5 -9 42 -15 c24 -8 210 -73 414 -146 204 -72 374
-131 377 -131 4 0 7 4 7 9 l0 9 -52 18 c-61 19 -709 247 -750 263 l-27 10 -6
-8z"/>
<path d="M89554 88155 c3 -11 24 -103 46 -204 36 -166 50 -217 50 -183 0 7
-19 96 -41 199 l-41 188 -10 10 -10 10 6 -20z"/>
<path d="M89878 87828 l-208 -70 0 -13 0 -14 203 68 c111 37 207 70 214 72
l12 4 -7 11 -7 11 -207 -69z"/>
<path d="M75063 87708 c2 -7 44 -95 92 -195 l88 -183 9 0 c15 0 9 15 -82 203
l-91 187 -10 0 -11 0 5 -12z"/>
<path d="M84541 87385 c-1 -6 -39 -82 -84 -170 -46 -88 -110 -220 -142 -293
l-58 -134 -14 -5 -14 -6 -85 23 c-47 12 -87 20 -90 17 -4 -4 84 -30 177 -52
l26 -6 64 143 c35 79 101 216 147 306 l83 163 -4 12 -5 12 -1 -10z"/>
<path d="M84277 86933 c-20 -48 -41 -94 -45 -101 l-9 -13 -257 71 c-241 66
-286 76 -275 66 6 -7 516 -146 533 -146 l13 0 42 96 c23 52 41 100 39 105 l-3
10 -38 -88z"/>
<path d="M36934 86661 c3 -4 75 -56 160 -115 85 -58 156 -110 158 -115 2 -4
50 -37 108 -73 l105 -64 104 -47 c57 -26 106 -45 108 -43 2 1 -50 30 -114 64
-148 77 -260 147 -462 290 -88 61 -163 112 -166 112 l-6 0 5 -9z"/>
<path d="M80861 85630 c9 -5 186 -67 395 -139 208 -71 388 -133 399 -137 l20
-7 -10 11 c-9 9 -797 282 -813 282 -4 0 0 -5 9 -10z"/>
<path d="M81250 85456 c0 -3 330 -116 390 -133 l15 -5 -15 10 c-16 11 -367
132 -381 132 -5 0 -9 -2 -9 -4z"/>
<path d="M83036 85133 c-63 -126 -113 -230 -111 -231 14 -14 74 95 196 356
l48 102 -9 0 -10 0 -114 -227z"/>
<path d="M80285 85313 c-30 -77 -144 -416 -136 -408 11 12 153 416 147 422 -2
2 -7 -4 -11 -14z"/>
<path d="M88257 84943 c-10 -17 -188 -696 -183 -700 3 -3 10 15 16 38 167 620
186 694 167 662z"/>
<path d="M22230 84932 l0 -9 203 -88 c111 -48 210 -90 220 -93 l17 -4 0 8 0 9
-203 87 c-111 48 -210 90 -219 93 l-18 7 0 -10z"/>
<path d="M82831 84800 l-34 -121 7 -6 c9 -9 10 -7 44 114 34 118 37 133 24
133 l-7 0 -34 -120z"/>
<path d="M22771 84641 l4 -12 368 -164 367 -163 0 12 0 11 -362 160 c-198 88
-365 162 -371 164 l-9 4 3 -12z"/>
<path d="M88150 84395 c-24 -91 -41 -167 -38 -170 3 -3 15 32 26 77 12 46 32
122 46 171 l24 87 -7 0 c-4 0 -27 -74 -51 -165z"/>
<path d="M86617 84332 l-29 -203 6 -6 6 -6 0 10 c0 6 12 90 26 187 14 98 24
187 22 199 l-3 22 -28 -203z"/>
<path d="M89725 84513 c12 -11 455 -136 461 -130 3 2 -95 32 -218 67 -122 34
-229 65 -238 68 l-15 5 10 -10z"/>
<path d="M82662 84485 l11 -26 9 9 9 9 -7 16 -6 17 -14 0 -14 0 12 -25z"/>
<path d="M90696 84281 c13 -12 442 -133 456 -129 l11 4 -174 48 c-96 27 -203
57 -238 67 l-65 19 10 -9z"/>
<path d="M91060 83968 c-58 -84 -129 -181 -157 -216 l-53 -65 0 -31 0 -31 20
-30 c10 -16 34 -46 52 -66 l33 -36 135 -68 c74 -37 141 -72 148 -78 l12 -9 0
10 0 10 -147 76 -148 75 -31 38 c-17 21 -38 52 -47 69 l-16 31 6 24 c3 13 18
38 34 56 25 29 76 100 223 311 31 45 54 82 49 82 -4 0 -55 -68 -113 -152z"/>
<path d="M81800 83871 c0 -6 140 -58 368 -138 l17 -6 -10 10 c-13 14 -375 142
-375 134z"/>
<path d="M27485 83804 c-27 -14 -128 -50 -222 -80 l-173 -57 0 -8 c0 -5 4 -9
8 -9 20 0 363 120 406 142 l49 25 -9 5 -9 5 -50 -23z"/>
<path d="M24790 83814 l0 -9 378 -162 c405 -174 512 -213 512 -185 l0 7 -67
18 -66 17 -361 156 c-199 86 -369 159 -378 161 l-18 5 0 -8z"/>
<path d="M92600 83806 c0 -3 57 -37 128 -77 109 -63 246 -147 434 -266 l47
-30 -36 -54 c-20 -30 -39 -56 -43 -59 -3 -3 -62 -86 -130 -185 -68 -99 -233
-336 -367 -528 -134 -191 -247 -355 -250 -365 l-6 -17 20 25 c10 14 125 175
254 358 129 184 268 382 309 440 42 59 119 171 172 249 l97 141 -167 105
c-159 100 -445 267 -457 267 -3 0 -5 -2 -5 -4z"/>
<path d="M24771 83761 l4 -12 215 -94 c197 -85 240 -101 214 -76 -7 7 -339
155 -423 189 l-14 5 4 -12z"/>
<path d="M86547 83603 c-10 -106 -20 -399 -14 -393 7 6 30 450 24 456 -2 3 -7
-26 -10 -63z"/>
<path d="M84030 83609 c-66 -61 -239 -191 -298 -226 l-42 -25 6 -9 5 -9 22 11
c44 23 194 135 285 212 l92 79 -6 9 c-7 12 -1 15 -64 -42z"/>
<path d="M82105 83411 l-5 -10 11 -25 12 -25 34 -12 34 -11 30 13 31 12 9 25
10 25 -10 10 -10 10 -10 -26 -10 -25 -21 -7 -21 -7 -24 6 -23 6 -6 25 -6 25
-10 0 c-5 0 -11 -4 -15 -9z"/>
<path d="M92911 82934 c-139 -201 -250 -368 -248 -371 3 -2 109 148 238 334
128 186 241 351 252 366 10 16 17 30 15 32 -2 3 -118 -160 -257 -361z"/>
<path d="M96287 81523 c-136 -190 -246 -349 -245 -353 2 -5 400 539 497 680
l13 20 -8 -1 c-5 0 -121 -156 -257 -346z"/>
<path d="M94080 81293 c-52 -81 -96 -154 -98 -163 -3 -13 174 247 199 293 l10
17 -8 0 c-4 0 -51 -66 -103 -147z"/>
<path d="M95546 80490 c-190 -268 -263 -378 -234 -350 19 18 475 670 469 670
-4 0 -110 -144 -235 -320z"/>
<path d="M73741 80440 c-107 -44 -197 -82 -199 -85 -3 -3 -2 -8 1 -11 l6 -7
205 83 205 84 -5 8 c-8 12 -5 13 -213 -72z"/>
<path d="M95463 80437 c-17 -24 -67 -94 -112 -155 -45 -62 -78 -112 -73 -112
4 0 59 70 120 155 62 85 108 155 104 155 -5 0 -22 -20 -39 -43z"/>
<path d="M94940 80370 l0 -9 159 -113 c88 -62 436 -313 773 -556 717 -519 713
-517 784 -548 l54 -24 0 10 0 10 -52 26 c-29 15 -80 45 -113 67 -84 57 -729
523 -1417 1025 -161 117 -188 133 -188 112z"/>
<path d="M25451 80037 c-1 -4 18 -52 41 -105 l41 -97 -2 -230 c-1 -126 -3
-266 -4 -310 l-2 -80 43 -23 42 -23 0 8 c0 4 -17 17 -38 28 l-37 20 1 55 c1
30 5 152 9 270 l7 215 -10 55 -11 55 -40 85 c-21 47 -40 81 -40 77z"/>
<path d="M72667 80024 l-5 -9 13 -19 14 -18 11 4 12 4 -20 23 -19 24 -6 -9z"/>
<path d="M25573 79538 c1 -35 -2 -115 -7 -180 l-8 -116 32 -17 c17 -9 34 -14
37 -11 3 2 -10 12 -27 21 l-33 17 7 54 c3 30 9 108 13 174 l6 120 -11 0 -11 0
2 -62z"/>
<path d="M42355 79550 l-30 -8 33 -1 32 -1 0 10 c0 6 -1 9 -2 9 -2 -1 -16 -5
-33 -9z"/>
<path d="M42310 79314 c-47 -113 -86 -210 -88 -215 l-4 -9 14 0 14 0 84 206
c47 114 87 210 88 215 l4 9 -14 0 -13 0 -85 -206z"/>
<path d="M43261 78346 c2 -3 84 -38 181 -80 97 -41 223 -98 280 -127 l103 -52
75 -61 c41 -34 81 -66 89 -71 l14 -8 -7 11 c-4 6 -41 39 -84 74 -42 34 -79 65
-82 68 -10 11 -269 131 -410 190 -129 54 -172 69 -159 56z"/>
<path d="M98714 78219 l-5 -9 23 -9 c13 -5 103 -43 202 -85 l178 -76 10 7 11
6 -54 23 c-30 12 -123 52 -206 87 l-153 65 -6 -9z"/>
<path d="M44007 77938 c-33 -54 -247 -439 -247 -445 0 -4 4 -3 9 3 8 9 210
365 245 432 19 36 14 44 -7 10z"/>
<path d="M99550 77842 c0 -4 98 -52 218 -106 119 -55 221 -101 226 -104 l9 -5
-5 13 -4 13 -214 98 c-216 100 -230 105 -230 91z"/>
<path d="M72080 77130 l0 -10 240 0 240 0 0 10 0 10 -240 0 -240 0 0 -10z"/>
<path d="M74838 76960 l-86 -80 -16 -47 -16 -47 0 -48 0 -48 15 0 15 0 0 50 0
51 14 32 14 32 85 84 86 85 -5 8 c-9 15 -18 9 -106 -72z"/>
<path d="M74560 76543 c0 -9 14 -53 35 -112 l5 -14 6 6 6 6 -17 53 c-10 29
-21 57 -26 63 l-9 9 0 -11z"/>
<path d="M75668 75983 c68 -2 176 -2 240 0 l117 3 -240 0 -240 0 123 -3z"/>
<path d="M60826 75111 l10 -11 150 -10 c82 -5 168 -10 192 -10 l42 0 0 9 0 9
-127 6 c-71 4 -162 9 -203 12 l-75 6 11 -11z"/>
<path d="M72170 73203 c-29 -68 -75 -161 -102 -206 -46 -79 -57 -107 -40 -107
7 0 104 160 115 190 3 8 28 65 55 127 l50 111 -12 5 -12 5 -54 -125z"/>
<path d="M72255 72552 c9 -10 342 -162 354 -162 23 0 -141 78 -329 157 l-35
15 10 -10z"/>
<path d="M81072 72383 l-11 -67 -19 -19 -19 -18 -39 -9 -39 -9 -114 10 c-103
8 -133 7 -120 -5 3 -3 61 -10 130 -16 l126 -11 19 7 c10 3 34 13 52 22 l33 17
8 35 c5 19 12 54 16 76 l6 42 -9 6 -9 5 -11 -66z"/>
<path d="M27900 70750 l75 -7 139 -32 c77 -17 146 -30 155 -29 l15 3 -170 38
-169 37 -60 -2 -60 -1 75 -7z"/>
<path d="M25670 70059 c-25 -12 -73 -32 -107 -45 l-61 -23 -254 -52 -253 -51
-52 -20 -51 -19 -14 -17 -13 -17 25 16 c42 27 114 46 370 98 135 27 263 57
285 65 57 20 175 75 175 81 0 7 0 7 -50 -16z"/>
<path d="M50236 69662 l-6 -9 20 -18 20 -18 7 7 7 7 -10 16 c-6 9 -15 18 -21
20 l-11 4 -6 -9z"/>
<path d="M36220 69123 l0 -8 198 -29 c108 -15 208 -30 222 -33 l25 -6 -10 10
-10 10 -190 27 c-104 15 -200 29 -212 31 l-23 5 0 -7z"/>
<path d="M33454 69029 l-7 -11 14 -9 c16 -10 83 -12 92 -3 l6 6 -6 14 -5 13
-19 -12 -19 -12 -20 13 c-24 15 -27 15 -36 1z"/>
<path d="M2068 68914 l-7 -7 28 -36 c15 -20 67 -102 115 -183 l88 -148 9 0 c5
0 9 2 9 4 0 9 -191 323 -212 349 l-23 28 -7 -7z"/>
<path d="M71905 68743 c-11 -3 -60 -19 -110 -35 l-90 -31 -82 -60 c-46 -34
-83 -65 -83 -69 0 -5 33 16 73 46 91 68 95 70 235 116 99 33 128 50 57 33z"/>
<path d="M59060 67277 c12 -12 339 -217 400 -251 l15 -9 -15 15 c-8 8 -69 48
-135 88 -66 41 -156 96 -200 123 -44 27 -73 42 -65 34z"/>
<path d="M55376 66931 l-17 -19 -18 -151 -18 -151 8 0 c10 0 16 34 30 170 l12
115 12 15 c6 8 15 21 19 28 l7 12 -9 0 c-5 0 -17 -9 -26 -19z"/>
<path d="M45490 66834 c-75 -103 -240 -363 -240 -378 l0 -10 14 19 c7 11 44
70 81 130 37 61 101 156 142 213 41 57 73 105 70 108 -2 2 -33 -34 -67 -82z"/>
<path d="M43390 66670 l0 -11 10 6 10 6 21 -12 21 -11 -4 14 -5 13 -26 3 -27
3 0 -11z"/>
<path d="M92326 66582 l-6 -10 36 -229 c20 -125 38 -230 40 -232 2 -2 7 -2 10
1 l6 6 -37 234 c-20 128 -38 234 -40 236 -2 2 -6 -1 -9 -6z"/>
<path d="M94383 66555 c3 -16 35 -214 72 -440 68 -417 72 -441 80 -434 6 7
-142 889 -151 897 l-7 7 6 -30z"/>
<path d="M77235 66560 l-80 -6 110 -1 c61 0 162 3 225 7 l115 7 -145 -1 c-80
0 -181 -3 -225 -6z"/>
<path d="M87177 66523 l-7 -6 167 -62 c93 -34 183 -69 201 -79 l33 -17 11 7
11 7 -46 23 c-43 22 -341 134 -357 134 -3 0 -10 -3 -13 -7z"/>
<path d="M41305 66442 c19 -20 285 -181 285 -173 0 7 -258 170 -285 180 l-10
4 10 -11z"/>
<path d="M41230 66337 c0 -41 -3 -156 -7 -255 l-6 -182 16 0 17 0 0 158 c0 86
3 201 7 255 l6 97 -16 0 -17 0 0 -73z"/>
<path d="M41276 66361 c20 -21 587 -382 591 -377 3 2 -12 15 -34 29 -21 13
-154 99 -296 191 -237 152 -288 183 -261 157z"/>
<path d="M97486 66191 l-430 -107 -4 -12 -4 -12 9 0 c4 0 209 50 455 111 l448
111 -6 9 c-3 5 -13 8 -22 8 -9 -1 -210 -49 -446 -108z"/>
<path d="M48726 66251 c5 -5 103 -75 218 -156 l209 -145 6 6 6 6 -15 8 c-8 4
-106 72 -218 149 -180 125 -237 162 -206 132z"/>
<path d="M97250 66184 c-118 -29 -312 -71 -430 -94 -118 -23 -236 -46 -262
-52 l-48 -10 0 -14 c0 -8 1 -14 3 -14 35 1 484 97 690 147 l277 67 0 13 c0 16
24 20 -230 -43z"/>
<path d="M97467 66143 l-7 -12 44 -208 44 -208 55 -185 c30 -102 63 -203 72
-225 l18 -40 4 17 4 17 -9 18 c-6 10 -38 113 -72 228 l-62 210 -39 190 c-22
105 -41 194 -42 200 l-3 9 -7 -11z"/>
<path d="M94503 66090 c3 -14 17 -104 32 -200 14 -96 30 -184 36 -195 l9 -20
-4 30 c-2 17 -17 111 -32 210 l-27 180 -10 10 -10 10 6 -25z"/>
<path d="M41910 66008 l-12 -23 18 17 18 18 -6 6 -6 6 -12 -24z"/>
<path d="M95780 65892 c-129 -24 -236 -45 -238 -47 -2 -2 -2 -8 -1 -13 l4 -9
235 44 c129 24 236 46 238 48 2 2 2 8 1 12 l-4 9 -235 -44z"/>
<path d="M61280 65916 c0 -3 22 -15 49 -27 27 -11 56 -28 64 -37 8 -10 43 -81
78 -159 34 -79 66 -143 70 -143 9 0 -122 292 -141 315 -17 21 -120 64 -120 51z"/>
<path d="M42940 65831 c0 -5 77 -59 170 -120 94 -60 170 -107 170 -103 0 4
-77 58 -170 120 l-170 112 0 -9z"/>
<path d="M42290 65795 c0 -16 366 -242 376 -232 3 2 -37 28 -88 57 -51 29
-134 81 -185 116 -87 61 -103 70 -103 59z"/>
<path d="M94530 65663 c-250 -47 -457 -86 -459 -88 -1 -2 -1 -8 0 -13 l4 -9
370 68 c204 38 423 78 487 90 l118 22 -6 8 -5 9 -27 -1 c-15 -1 -232 -39 -482
-86z"/>
<path d="M33288 65055 l-5 -25 8 0 9 0 0 25 c0 14 -2 25 -4 25 -2 0 -6 -11 -8
-25z"/>
<path d="M35041 64896 c-1 -4 -33 -189 -71 -410 -76 -432 -111 -670 -96 -655
3 2 12 61 21 129 9 69 48 305 86 524 l70 399 -5 11 -4 11 -1 -9z"/>
<path d="M40570 64869 c0 -3 45 -136 101 -295 55 -159 107 -316 114 -349 l15
-60 -5 50 -5 50 -102 295 c-86 252 -118 335 -118 309z"/>
<path d="M37180 64720 l0 -20 11 0 c14 0 383 -48 422 -55 l27 -4 0 19 0 20
-22 4 c-26 6 -410 56 -427 56 l-11 0 0 -20z"/>
<path d="M60220 64621 c-53 -26 -114 -58 -137 -70 l-41 -24 4 -12 5 -13 54 32
c29 18 92 50 139 71 l86 38 0 14 c0 18 -4 17 -110 -36z"/>
<path d="M37057 64571 l-4 -18 36 -12 c20 -7 106 -21 191 -32 l155 -20 240
-14 c132 -8 257 -15 278 -15 l37 0 0 20 0 20 -35 0 c-165 0 -722 53 -838 80
-55 13 -54 13 -60 -9z"/>
<path d="M76976 64273 l7 -228 -33 -60 c-38 -68 -80 -117 -128 -147 l-32 -20
5 -8 6 -9 32 19 c48 28 91 77 130 146 l35 62 -3 33 c-2 19 -3 125 -4 237 l-1
202 -10 0 -10 0 6 -227z"/>
<path d="M70860 64275 c0 -6 37 -94 82 -197 l82 -188 8 0 8 0 -25 55 c-13 31
-50 115 -81 188 -31 72 -61 136 -65 142 l-9 9 0 -9z"/>
<path d="M79930 64164 c-85 -18 -185 -35 -222 -39 l-68 -7 6 -10 6 -10 57 6
c81 10 364 68 375 77 20 18 -4 15 -154 -17z"/>
<path d="M40668 64122 l-47 -27 -21 -28 -22 -28 18 -27 c26 -40 217 -252 222
-247 3 2 -46 61 -107 130 l-111 126 0 12 c0 21 13 33 73 71 31 20 57 39 57 41
0 10 -16 4 -62 -23z"/>
<path d="M78970 64094 c-102 -13 -315 -40 -475 -60 -159 -20 -469 -53 -687
-73 l-397 -37 -38 19 -38 19 -66 69 -67 69 -23 0 -24 -1 34 -27 c19 -15 42
-36 50 -47 9 -11 33 -36 54 -56 l37 -36 40 -18 41 -18 347 32 c315 29 467 47
1197 141 127 17 231 30 233 30 1 0 2 5 2 10 l0 10 -17 -1 c-10 -1 -101 -12
-203 -25z"/>
<path d="M40072 64085 l-12 -25 9 0 c4 0 13 11 19 25 l12 25 -9 0 c-4 0 -13
-11 -19 -25z"/>
<path d="M77073 64098 l-23 -11 0 -13 0 -12 34 10 34 11 -5 13 c-6 16 -10 16
-40 2z"/>
<path d="M78950 64033 c-107 -13 -197 -26 -199 -29 -2 -2 -2 -7 1 -10 l6 -5
221 27 221 27 0 9 0 8 -27 -1 c-16 -1 -116 -12 -223 -26z"/>
<path d="M89635 63879 c5 -8 48 -59 96 -114 47 -55 105 -127 128 -159 46 -66
57 -65 13 1 -31 46 -218 269 -235 280 l-10 6 8 -14z"/>
<path d="M59590 63783 l-45 -85 -45 -21 c-25 -11 -81 -35 -125 -53 l-80 -34
20 0 20 0 108 47 107 47 45 84 c25 47 44 89 43 93 -2 5 -23 -31 -48 -78z"/>
<path d="M90148 63759 c-137 -114 -389 -353 -544 -515 l-155 -162 11 -7 10 -6
147 151 c142 147 466 453 571 539 49 40 64 61 43 61 -5 0 -42 -27 -83 -61z"/>
<path d="M41450 63743 l-24 -5 -78 -65 c-43 -36 -78 -67 -78 -69 0 -9 22 7 96
68 l71 58 39 0 39 0 49 -15 c27 -8 56 -15 65 -14 l16 1 -60 19 c-75 23 -103
28 -135 22z"/>
<path d="M2257 63694 l-6 -6 160 -142 c88 -77 164 -142 170 -144 l9 -4 0 9 c0
8 -288 268 -315 285 l-12 7 -6 -5z"/>
<path d="M47256 63631 c13 -12 76 -32 82 -26 6 5 -61 35 -80 35 l-12 0 10 -9z"/>
<path d="M93010 63612 c0 -5 109 -117 243 -248 l243 -239 89 -54 c50 -30 100
-61 112 -68 l21 -14 5 8 6 9 -105 63 -104 64 -246 241 c-136 133 -251 243
-255 244 l-9 4 0 -10z"/>
<path d="M39712 63547 c10 -7 44 -27 77 -46 l60 -34 79 -81 c43 -45 92 -99
110 -121 l32 -40 0 12 c0 14 -135 168 -193 219 -25 22 -73 55 -105 72 -60 32
-93 42 -60 19z"/>
<path d="M40397 63530 l12 -16 -7 -10 c-4 -5 -77 -70 -162 -143 -85 -74 -159
-138 -164 -143 l-10 -8 10 0 c10 0 328 272 340 291 l6 11 -18 16 -18 17 11
-15z"/>
<path d="M39680 63523 c0 -4 21 -19 48 -33 l47 -25 75 -65 c41 -36 86 -78 100
-95 14 -16 40 -46 57 -65 l32 -35 1 12 0 13 -118 117 -118 118 -62 33 -62 33
0 -8z"/>
<path d="M80955 63489 c8 -28 54 -121 137 -277 l60 -112 8 5 8 5 -71 132 c-38
73 -83 162 -98 198 l-28 65 -11 3 -12 4 7 -23z"/>
<path d="M41033 63357 c-34 -29 -62 -56 -62 -60 -1 -10 39 19 99 72 66 59 35
49 -37 -12z"/>
<path d="M16425 63376 l-50 -23 -17 -37 -18 -37 0 -39 0 -40 29 -32 29 -33 7
7 7 7 -26 31 -26 32 0 28 0 29 17 36 17 36 48 21 48 20 0 9 c0 13 -9 11 -65
-15z"/>
<path d="M43911 63225 c-1 -59 22 -258 45 -395 l17 -95 17 -35 c10 -19 31 -46
46 -60 l27 -25 -25 35 c-53 71 -67 130 -103 430 l-23 195 -1 -50z"/>
<path d="M77315 63183 c8 -32 34 -145 59 -252 25 -106 46 -196 46 -199 0 -3 4
-2 9 4 l10 9 -58 244 -57 245 -11 3 -11 4 13 -58z"/>
<path d="M41575 63170 c3 -5 8 -10 11 -10 2 0 4 5 4 10 0 6 -5 10 -11 10 l-10
0 6 -10z"/>
<path d="M13571 63133 c-7 -21 -15 -44 -17 -50 l-6 -13 10 0 9 0 12 38 c7 20
15 43 17 50 l6 12 -10 0 -9 0 -12 -37z"/>
<path d="M33863 63074 c6 -6 370 -54 411 -54 11 0 17 2 15 5 -4 3 -401 55
-426 55 l-6 0 6 -6z"/>
<path d="M38475 63059 c-15 -67 -100 -609 -95 -609 6 0 111 622 105 628 -2 3
-7 -6 -10 -19z"/>
<path d="M34305 63063 l10 -10 180 -22 c99 -12 196 -25 215 -28 l35 -5 -10 9
-10 10 -185 22 c-102 12 -198 24 -215 27 l-30 6 10 -9z"/>
<path d="M38963 63044 l8 -9 215 -25 214 -26 0 6 c0 4 -91 17 -202 29 -112 13
-212 25 -223 28 l-20 5 8 -8z"/>
<path d="M15070 62993 l0 -32 10 -6 10 -6 0 23 c0 13 -5 30 -10 38 l-10 15 0
-32z"/>
<path d="M58739 62960 c-22 -6 -140 -64 -158 -77 -2 -2 -2 -6 2 -9 l5 -6 84
42 83 41 140 -11 c321 -24 522 -41 560 -46 l40 -6 -10 9 -10 10 -200 17 c-110
9 -249 21 -310 26 -60 5 -130 11 -155 14 l-45 3 -26 -7z"/>
<path d="M16005 62909 l19 -12 251 -8 c137 -4 293 -10 345 -13 l95 -4 -40 9
-40 9 -295 9 c-162 6 -308 13 -325 16 l-30 6 20 -12z"/>
<path d="M16973 62900 l-211 -15 -8 -7 -7 -8 29 0 c52 0 417 29 421 34 12 11
-29 11 -224 -4z"/>
<path d="M16728 62894 l-8 -7 0 -83 0 -82 49 -93 48 -94 77 -63 77 -62 10 5 9
6 -74 59 -74 59 -49 88 -48 88 -5 93 -5 94 -7 -8z"/>
<path d="M94177 62863 l-6 -9 212 -77 c117 -42 219 -77 227 -77 l14 0 -9 9
c-6 5 -100 41 -210 81 -110 40 -205 75 -211 77 l-12 4 -5 -8z"/>
<path d="M43415 62729 c-82 -72 -152 -136 -154 -142 l-4 -12 24 21 c13 11 86
74 162 138 75 65 137 120 137 122 0 13 -30 -10 -165 -127z"/>
<path d="M58409 62711 l-186 -128 -442 -353 c-243 -194 -440 -354 -438 -357 3
-2 205 155 448 350 l444 353 180 124 c99 68 184 127 190 132 l9 8 -9 0 c-6 0
-94 -58 -196 -129z"/>
<path d="M12640 62809 c-242 -10 -544 -30 -550 -36 -3 -3 49 -3 115 0 66 4
239 12 385 18 l265 11 10 9 9 9 -29 -2 c-17 -1 -109 -5 -205 -9z"/>
<path d="M11095 62720 l-18 -20 -198 0 -198 0 -7 -12 -7 -11 144 6 c79 4 172
7 206 7 l62 0 28 25 28 24 -11 1 c-6 0 -19 -9 -29 -20z"/>
<path d="M42888 62528 c-128 -110 -235 -203 -237 -205 -2 -1 -2 -5 0 -8 5 -5
479 401 479 410 0 3 -2 5 -5 5 -2 0 -109 -91 -237 -202z"/>
<path d="M94601 62621 c-11 -27 -50 -132 -85 -233 -66 -191 -128 -347 -152
-383 l-14 -22 7 -6 c3 -4 9 -7 13 -7 18 0 102 208 165 405 26 83 60 180 75
217 l29 68 -8 5 -9 5 -21 -49z"/>
<path d="M57757 62263 c-246 -196 -445 -358 -443 -361 3 -2 202 153 442 344
241 192 442 352 448 356 6 4 8 9 5 12 -2 3 -206 -155 -452 -351z"/>
<path d="M91320 62435 c90 -90 166 -162 169 -159 7 6 -311 324 -324 324 -5 0
64 -74 155 -165z"/>
<path d="M89022 62421 c2 -5 81 -75 176 -156 l174 -146 11 4 11 3 -180 152
c-98 84 -183 152 -187 152 l-9 0 4 -9z"/>
<path d="M89000 62365 c19 -23 737 -627 744 -626 3 0 7 3 9 6 3 7 -743 635
-755 635 l-10 0 12 -15z"/>
<path d="M16521 62171 l-82 -161 -22 5 c-161 37 -211 47 -261 54 l-59 8 -79
-18 c-44 -9 -82 -20 -85 -23 l-6 -6 12 0 c7 0 41 7 75 16 l61 16 65 -5 c65 -6
277 -51 287 -61 l6 -6 -16 -6 -16 -6 -121 26 -120 26 -53 0 c-58 0 -166 -24
-156 -34 2 -3 31 2 64 10 85 20 113 18 269 -17 l140 -30 9 16 9 16 104 -56
c58 -30 110 -55 117 -55 7 0 -39 28 -101 61 -62 33 -112 64 -110 67 2 4 38 76
81 160 43 85 76 156 74 159 -3 2 -42 -68 -86 -156z"/>
<path d="M98756 62160 c-20 -50 -20 -68 -1 -135 l16 -53 62 -113 62 -112 14
-5 14 -5 -66 124 -65 124 -17 59 -17 58 16 41 16 41 -9 9 -8 8 -17 -41z"/>
<path d="M63698 62167 l-68 -9 0 -10 0 -10 43 6 c23 3 126 9 230 12 l187 6 0
9 0 9 -162 -1 -163 -2 -67 -10z"/>
<path d="M94255 61863 c-49 -60 -110 -129 -134 -156 l-44 -47 6 -7 7 -6 16 14
c25 20 254 293 254 302 0 20 -22 -2 -105 -100z"/>
<path d="M39660 61699 c-19 -5 -116 -13 -214 -19 -98 -5 -182 -12 -185 -16
l-6 -6 155 7 155 6 88 16 c48 8 87 17 87 19 0 6 -42 3 -80 -7z"/>
<path d="M61550 61695 c0 -10 89 -423 96 -448 3 -10 8 -17 10 -14 5 5 -93 457
-101 465 -3 3 -5 2 -5 -3z"/>
<path d="M93885 61550 l-149 -149 7 -8 8 -7 151 151 150 150 -9 6 -9 6 -149
-149z"/>
<path d="M55523 61593 l7 -6 7 6 6 7 -13 0 -13 0 6 -7z"/>
<path d="M55433 61573 l7 -6 7 6 6 7 -13 0 -13 0 6 -7z"/>
<path d="M60563 61558 c-4 -8 -30 -32 -58 -55 -27 -23 -131 -121 -230 -217
l-179 -176 10 -10 10 -10 182 182 c99 101 207 206 238 234 l58 50 -11 7 -12 7
-8 -12z"/>
<path d="M55213 61523 l7 -6 7 6 6 7 -13 0 -13 0 6 -7z"/>
<path d="M55123 61503 l7 -6 7 6 6 7 -13 0 -13 0 6 -7z"/>
<path d="M54993 61473 l7 -6 7 6 6 7 -13 0 -13 0 6 -7z"/>
<path d="M77724 61443 c10 -32 133 -497 146 -553 l13 -55 23 -35 c20 -32 56
-69 138 -145 l28 -26 -5 -37 -6 -36 -16 -9 -15 -8 4 -8 5 -7 -17 0 c-9 0 -30
-1 -45 -2 l-28 -2 6 -10 6 -10 20 0 c22 0 23 -4 7 -29 l-11 -18 83 -332 82
-331 9 0 c5 0 9 2 9 5 0 3 -37 152 -81 331 l-82 325 13 25 14 24 18 -6 18 -5
78 12 77 12 30 21 30 21 125 -1 125 -1 327 -62 328 -61 47 0 46 0 56 17 56 17
71 52 c38 29 78 62 89 74 l18 20 -7 7 -6 7 -38 -35 c-20 -20 -60 -52 -87 -71
l-50 -36 -62 -16 c-33 -9 -74 -16 -90 -16 -17 0 -165 25 -329 55 -164 31 -346
62 -404 69 l-105 13 -63 -8 -64 -9 -26 -19 -27 -18 -45 -7 c-25 -4 -61 -9 -80
-13 l-35 -6 21 24 22 24 7 32 6 32 -16 30 -15 31 -28 14 c-33 17 -88 75 -119
126 l-21 35 -17 65 c-18 69 -106 400 -131 488 l-15 52 -10 0 -10 0 5 -17z"/>
<path d="M59586 61398 c-9 -24 -29 -104 -45 -178 l-29 -135 -6 -85 -6 -85 10
15 10 15 0 53 0 53 21 102 c12 56 31 143 44 192 12 50 21 91 20 93 -2 2 -10
-16 -19 -40z"/>
<path d="M59637 61423 c-10 -17 -48 -164 -72 -282 l-25 -124 1 -51 2 -51 9 60
c18 120 59 321 78 384 17 58 21 87 7 64z"/>
<path d="M54550 61373 c0 -10 96 -422 106 -456 3 -10 8 -17 10 -14 2 2 -20
109 -51 237 -49 209 -65 265 -65 233z"/>
<path d="M58680 61306 c59 -31 401 -178 406 -174 5 5 -406 188 -421 188 -6 -1
1 -7 15 -14z"/>
<path d="M61240 61147 c0 -4 25 -123 55 -264 50 -233 66 -293 65 -252 -1 24
-108 510 -114 517 l-6 5 0 -6z"/>
<path d="M92790 60972 l0 -11 61 -36 62 -36 119 -46 c65 -25 121 -43 123 -41
3 2 -44 24 -103 48 -112 45 -201 89 -239 116 l-23 16 0 -10z"/>
<path d="M58150 60894 c0 -7 53 -99 117 -205 132 -220 122 -204 127 -198 3 3
-131 231 -234 399 l-9 15 -1 -11z"/>
<path d="M83215 60549 c-82 -48 -154 -94 -158 -101 l-9 -13 97 -160 c53 -88
120 -205 147 -260 56 -110 267 -455 280 -455 4 0 -34 66 -86 148 -51 81 -133
224 -183 317 -49 94 -122 222 -162 285 l-71 115 2 13 3 14 145 85 c80 46 149
89 155 94 l9 9 -9 -1 c-6 0 -77 -41 -160 -90z"/>
<path d="M57310 60461 c0 -5 13 -45 29 -89 26 -70 48 -165 43 -184 l-2 -7 14
5 13 5 -13 62 c-7 34 -17 75 -23 90 -6 16 -11 33 -11 38 l0 10 62 -51 c73 -62
136 -102 150 -98 l10 4 -91 67 -90 67 -37 45 c-35 43 -54 56 -54 36z"/>
<path d="M58348 60463 l-18 -4 0 -11 0 -10 23 6 c12 3 26 6 30 6 l8 0 -6 10
c-6 10 -9 11 -37 3z"/>
<path d="M59895 60269 l-140 -120 -359 -270 c-197 -149 -365 -273 -375 -276
l-16 -4 -75 170 c-41 93 -76 165 -78 160 -2 -5 28 -79 67 -166 39 -86 71 -165
71 -175 l0 -18 8 0 9 0 63 -152 c35 -84 70 -168 77 -186 l14 -33 12 8 c7 4
224 51 482 105 259 53 461 97 450 97 -11 1 -223 -40 -470 -89 -248 -50 -456
-89 -463 -88 l-14 3 -68 165 c-38 91 -69 170 -70 176 0 7 6 14 14 17 8 3 166
120 353 260 l338 254 150 128 c176 150 170 144 164 149 -2 2 -67 -50 -144
-115z"/>
<path d="M57211 60307 l-13 -38 -36 -37 c-21 -21 -48 -45 -62 -54 l-25 -16 7
-7 7 -7 50 36 49 36 22 37 21 36 -3 26 -3 26 -14 -38z"/>
<path d="M61888 60216 l-448 -90 0 -7 0 -7 448 91 c246 50 449 92 451 94 16
12 -54 0 -451 -81z"/>
<path d="M63563 60265 c3 -11 24 -112 47 -225 23 -113 64 -304 92 -425 27
-121 96 -449 153 -730 276 -1363 540 -2634 550 -2643 3 -3 7 -3 9 -1 2 2 -39
202 -91 444 -90 424 -322 1544 -417 2020 -75 374 -172 840 -206 990 -18 77
-53 238 -79 357 -25 119 -50 220 -55 225 l-8 8 5 -20z"/>
<path d="M62185 60239 c-77 -16 -173 -36 -212 -45 l-73 -15 0 -8 0 -8 225 45
225 45 0 8 c0 12 -4 11 -165 -22z"/>
<path d="M46095 59958 l-220 -222 160 151 c198 187 303 293 290 293 -6 0 -109
-100 -230 -222z"/>
<path d="M57280 60128 l0 -53 -15 -79 -15 -80 8 -8 9 -9 17 89 c9 50 16 113
16 141 l0 51 -10 0 -10 0 0 -52z"/>
<path d="M46125 59936 l-220 -214 5 -5 6 -6 219 219 c121 121 217 220 215 220
-3 0 -105 -96 -225 -214z"/>
<path d="M61498 59715 c41 -206 73 -377 70 -380 -2 -2 -94 -23 -204 -46 l-199
-41 -10 -10 -10 -10 20 5 c11 3 107 24 213 47 l193 40 9 -5 8 -5 4 8 3 8 228
48 227 47 21 -6 22 -7 -7 11 -7 11 8 0 c4 0 100 20 213 44 113 24 296 61 408
82 l202 38 0 8 0 7 -12 -4 c-7 -2 -101 -20 -208 -41 -107 -20 -287 -56 -400
-80 l-205 -43 -6 7 c-3 4 -21 81 -39 172 l-32 165 -10 10 -9 10 5 -25 c21 -88
66 -313 66 -327 l0 -18 -235 -49 c-129 -27 -237 -47 -238 -45 -2 2 -37 172
-78 377 -40 204 -76 372 -80 372 -3 0 28 -169 69 -375z"/>
<path d="M55356 59783 c-33 -125 -62 -235 -64 -243 l-5 -15 10 10 10 10 57
222 c32 123 56 228 54 234 -2 6 -30 -92 -62 -218z"/>
<path d="M93014 60002 c4 -6 52 -35 106 -63 l100 -51 57 -44 c73 -57 91 -57
21 0 l-54 44 -119 63 -118 63 7 -12z"/>
<path d="M44901 59914 c404 -438 648 -694 664 -694 5 0 -36 46 -91 103 -56 56
-210 219 -344 362 -133 143 -247 262 -253 264 -7 2 4 -14 24 -35z"/>
<path d="M58810 59913 c0 -6 38 -93 84 -194 84 -186 226 -521 226 -536 l0 -8
-233 -44 -232 -44 -10 -10 -10 -10 25 6 c14 3 122 24 240 47 118 23 222 43
231 46 l16 4 37 -127 c69 -236 78 -264 83 -260 2 3 -21 92 -52 198 l-57 193
-12 11 c-7 5 -37 69 -66 140 -51 124 -257 585 -266 594 -2 2 -4 0 -4 -6z"/>
<path d="M83610 59573 c0 -6 45 -91 101 -190 56 -98 192 -351 304 -563 l203
-385 13 -43 c6 -23 16 -42 20 -42 l8 0 -19 54 -18 55 -168 318 c-134 256 -424
784 -440 802 -2 2 -4 -1 -4 -6z"/>
<path d="M61833 59347 c-370 -78 -673 -145 -673 -148 l0 -7 108 23 c59 12 361
76 672 140 311 65 569 122 575 126 l9 9 -9 -1 c-6 0 -313 -65 -682 -142z"/>
<path d="M59873 59327 c-387 -78 -703 -144 -703 -148 0 -7 1429 277 1438 285
l5 6 -19 -1 c-10 -1 -335 -65 -721 -142z"/>
<path d="M57180 59281 c8 -5 191 -75 405 -156 l390 -147 58 -9 58 -10 17 10
17 10 -30 -1 c-16 0 -50 3 -75 7 l-45 7 -396 149 c-217 82 -400 149 -405 149
l-9 -1 15 -8z"/>
<path d="M75915 59244 c11 -2 104 -5 208 -6 l187 -4 0 8 0 8 -207 -1 c-115 -1
-199 -3 -188 -5z"/>
<path d="M50040 59171 l44 -40 6 5 5 6 -30 24 c-16 14 -39 29 -50 35 l-20 10
45 -40z"/>
<path d="M61132 59190 c34 -179 153 -730 158 -730 8 0 -145 739 -155 748 l-8
7 5 -25z"/>
<path d="M63020 59188 c0 -7 16 -93 37 -191 l37 -177 8 8 8 8 -37 182 -38 182
-7 0 c-5 0 -8 -6 -8 -12z"/>
<path d="M53258 58983 l-5 -38 75 -165 c41 -91 78 -176 83 -189 5 -13 12 -21
15 -18 3 2 -31 86 -75 185 l-81 179 0 24 0 23 9 -9 c5 -6 46 -93 91 -195 l81
-185 12 -7 13 -7 89 -205 c49 -113 91 -203 93 -201 7 7 -196 471 -274 627
l-74 148 -1 37 0 38 -9 -20 -8 -20 -7 18 c-4 9 -11 17 -15 17 l-8 0 -4 -37z"/>
<path d="M39150 58929 c25 -6 74 -17 110 -25 36 -8 114 -33 174 -55 60 -22
111 -37 114 -34 8 8 7 8 -118 53 -143 51 -179 60 -260 66 l-65 5 45 -10z"/>
<path d="M63811 58924 c-1 -6 13 -78 30 -160 17 -82 97 -480 178 -884 167
-829 344 -1662 349 -1639 1 8 -38 206 -88 439 -50 232 -93 439 -96 459 -3 20
-28 144 -55 276 -27 132 -106 517 -175 855 -114 563 -141 685 -143 654z"/>
<path d="M50380 58844 c0 -5 75 -65 165 -134 l166 -125 77 -21 c42 -12 119
-33 171 -48 l95 -26 -10 10 c-5 5 -83 30 -172 55 l-163 46 -152 116 c-84 64
-158 120 -164 126 l-13 9 0 -8z"/>
<path d="M61250 58824 c0 -5 16 -87 36 -182 l36 -174 -8 -8 c-8 -7 -138 -35
-668 -146 l-209 -43 -9 5 -8 5 -20 -6 -20 -6 0 -11 0 -10 15 12 15 12 16 -6
16 -6 351 71 c194 39 390 80 437 91 47 10 91 20 98 20 6 1 12 4 12 8 0 4 93
31 207 60 113 30 201 56 195 58 -6 2 -99 -20 -207 -48 -108 -28 -198 -50 -199
-48 -2 2 -20 82 -40 178 -33 154 -46 204 -46 174z"/>
<path d="M61976 58584 c-201 -43 -225 -49 -215 -58 6 -6 456 88 465 97 l7 7
-24 -1 c-13 0 -118 -21 -233 -45z"/>
<path d="M85820 58543 c0 -13 215 -413 223 -413 16 0 3 30 -99 221 -93 172
-124 221 -124 192z"/>
<path d="M59580 58512 c0 -4 60 -29 133 -55 72 -27 160 -59 195 -72 l62 -24 0
7 c0 4 -57 28 -127 54 -71 26 -158 58 -195 72 l-68 26 0 -8z"/>
<path d="M55481 58466 c8 -8 412 -116 416 -112 5 5 -62 25 -263 80 -121 33
-164 42 -153 32z"/>
<path d="M63214 58230 l41 -200 8 0 c12 0 8 27 -31 214 l-38 180 -10 3 -11 4
41 -201z"/>
<path d="M35315 58356 c-111 -47 -337 -166 -317 -166 8 0 64 27 125 59 62 33
154 76 205 96 l92 37 0 9 c0 5 -1 9 -2 8 -2 0 -48 -20 -103 -43z"/>
<path d="M60658 58277 c-108 -23 -200 -46 -205 -51 l-8 -8 20 5 c11 3 103 22
205 43 102 20 192 40 200 45 l15 8 -15 0 c-8 -1 -104 -20 -212 -42z"/>
<path d="M63364 57928 c3 -13 25 -114 48 -225 l43 -203 7 0 c13 0 10 20 -37
237 -25 114 -45 209 -45 210 0 2 -5 3 -11 3 l-11 0 6 -22z"/>
<path d="M62603 57881 l-211 -46 -9 -9 -8 -9 15 5 c8 2 111 25 228 49 l212 44
0 7 c0 10 23 14 -227 -41z"/>
<path d="M55710 57814 c-228 -29 -421 -53 -429 -54 l-14 0 6 -6 6 -6 428 52
428 53 10 9 9 8 -14 -1 c-8 -1 -202 -25 -430 -55z"/>
<path d="M62125 57820 c-121 -26 -211 -49 -199 -49 26 -1 402 77 429 89 l20 9
-15 -1 c-8 0 -114 -22 -235 -48z"/>
<path d="M35758 57840 c-56 -10 -179 -49 -192 -61 -14 -13 -7 -11 70 15 l69
23 85 12 85 13 90 -6 90 -5 -25 8 -25 9 -100 0 c-55 0 -121 -4 -147 -8z"/>
<path d="M53893 57739 c14 -41 190 -409 194 -406 4 5 -184 408 -194 416 l-6 6
6 -16z"/>
<path d="M80353 57506 c-143 -80 -197 -115 -189 -123 3 -3 17 4 33 15 41 28
281 162 292 162 5 0 23 -17 40 -37 17 -20 33 -35 35 -32 6 5 -63 89 -72 89 -4
0 -66 -34 -139 -74z"/>
<path d="M46611 57514 c102 -140 252 -339 257 -344 3 -3 3 2 0 11 -9 23 -278
383 -290 388 -6 2 9 -23 33 -55z"/>
<path d="M63365 57493 c7 -32 30 -139 50 -238 21 -99 41 -184 46 -189 l9 -10
0 20 c0 10 -22 120 -48 243 l-47 224 -12 4 -11 4 13 -58z"/>
<path d="M38020 57511 c0 -5 9 -29 20 -54 l20 -46 1 -38 c0 -21 -4 -90 -9
-153 l-10 -115 -25 -92 c-15 -51 -33 -109 -42 -129 -8 -20 -15 -41 -15 -46 l0
-9 9 5 c12 8 55 134 81 236 l22 85 -5 65 -4 65 12 35 12 35 -12 50 c-15 66
-55 142 -55 106z"/>
<path d="M80485 57431 c-39 -20 -107 -62 -152 -92 l-83 -56 -65 -62 -65 -63 6
-9 6 -10 71 64 c88 77 212 164 294 206 34 17 64 35 67 40 l6 10 -8 5 -8 4 -69
-37z"/>
<path d="M37569 57008 l-62 -53 -53 -150 c-29 -82 -53 -159 -53 -170 l0 -20
55 160 55 160 67 62 c82 76 75 83 -9 11z"/>
<path d="M35884 56331 l-282 -268 -41 -24 c-22 -12 -41 -25 -41 -28 0 -3 47
-25 105 -48 l105 -41 0 7 c0 5 -40 23 -90 42 -49 18 -90 36 -90 39 0 3 12 13
28 22 46 27 615 568 597 567 -6 0 -137 -121 -291 -268z"/>
<path d="M79482 56554 l-32 -26 -87 -35 -87 -35 -91 -10 c-49 -5 -100 -12
-112 -14 l-23 -4 0 -10 0 -10 26 10 25 10 49 0 c27 0 73 5 102 11 l53 11 90
43 90 43 19 21 c25 28 18 26 -22 -5z"/>
<path d="M54530 56535 l0 -25 10 0 10 0 0 25 0 25 -10 0 -10 0 0 -25z"/>
<path d="M82744 56285 c28 -118 54 -215 58 -215 l6 0 -12 53 c-7 28 -30 125
-51 215 -21 89 -41 162 -45 162 -4 0 16 -97 44 -215z"/>
<path d="M26485 56427 c37 -25 316 -167 328 -167 7 0 -15 14 -48 31 -33 17
-111 58 -172 90 -108 56 -150 74 -108 46z"/>
<path d="M26465 56395 c24 -19 320 -175 332 -175 9 0 -69 43 -242 134 -60 31
-101 50 -90 41z"/>
<path d="M17048 56337 c-104 -33 -188 -64 -188 -68 0 -6 388 116 398 126 12
12 -34 -1 -210 -58z"/>
<path d="M64430 56254 c0 -5 9 -15 20 -22 l20 -12 0 -34 0 -33 -18 -16 -19
-17 -29 0 -30 0 -12 12 -12 12 -6 -6 -6 -6 24 -16 25 -16 31 6 31 6 21 23 22
24 -8 37 -9 37 -23 15 -22 14 0 -8z"/>
<path d="M55441 56234 c0 -5 51 -51 112 -102 62 -51 133 -111 160 -134 26 -23
49 -39 51 -37 5 6 -188 174 -307 268 l-17 13 1 -8z"/>
<path d="M63690 56139 c-14 -5 -34 -20 -45 -33 l-20 -24 -288 -60 c-271 -56
-307 -66 -296 -76 2 -3 133 22 289 55 157 33 293 61 303 62 l17 1 6 18 5 18
29 15 29 15 25 -10 25 -9 16 -25 17 -25 -7 -23 c-4 -13 -14 -31 -23 -41 l-15
-17 6 -6 7 -7 14 12 c8 7 20 28 26 47 l12 35 -13 30 -12 31 -21 8 c-12 4 -30
10 -41 13 l-20 6 -25 -10z"/>
<path d="M37236 56093 c-28 -200 -76 -573 -76 -597 l0 -29 6 5 c3 4 23 140 44
303 22 163 42 312 46 331 l6 34 -10 0 -9 0 -7 -47z"/>
<path d="M15740 55991 c-102 -26 -198 -51 -214 -55 l-28 -7 5 -5 6 -6 213 52
c117 29 217 56 223 61 l9 9 -14 -1 c-8 0 -98 -22 -200 -48z"/>
<path d="M63078 55871 c-312 -65 -571 -120 -575 -124 -3 -4 -4 -9 -2 -11 2 -2
263 49 580 114 l577 119 21 -6 21 -5 0 10 c0 11 -24 23 -43 21 -7 -1 -267 -54
-579 -118z"/>
<path d="M63060 55910 l0 -20 9 0 9 0 -5 20 c-3 11 -7 20 -9 20 -2 0 -4 -9 -4
-20z"/>
<path d="M89778 55829 l-77 -69 -66 -130 -66 -130 11 0 10 0 55 110 56 111 85
83 85 84 -8 5 -9 6 -76 -70z"/>
<path d="M51135 55499 c-110 -127 -212 -241 -228 -254 l-27 -24 -60 -12 -60
-12 0 -7 0 -8 43 9 c23 6 57 14 74 20 l33 10 206 237 c114 130 214 245 222
255 l15 17 -9 -1 c-5 0 -99 -104 -209 -230z"/>
<path d="M61503 55653 l7 -6 7 6 6 7 -13 0 -13 0 6 -7z"/>
<path d="M17654 55514 c5 -11 44 -113 88 -229 44 -115 84 -214 89 -219 l9 -10
0 15 c0 7 -38 113 -84 234 l-84 219 -13 5 -12 4 7 -19z"/>
<path d="M32770 55515 c0 -5 35 -43 78 -85 44 -41 111 -111 150 -155 40 -44
72 -75 72 -70 0 13 -143 169 -233 254 -37 35 -67 60 -67 56z"/>
<path d="M56166 55511 c97 -91 350 -311 357 -311 9 0 -18 25 -223 208 -69 62
-129 112 -134 112 l-10 0 10 -9z"/>
<path d="M92580 55421 c0 -3 48 -19 107 -34 l107 -28 246 -99 c135 -54 280
-114 323 -134 42 -19 77 -32 77 -28 0 9 -91 48 -385 169 l-230 94 -122 33
c-68 18 -123 30 -123 27z"/>
<path d="M43780 55340 l-125 -6 155 -1 c85 0 189 3 230 7 l75 7 -105 -1 c-58
0 -161 -3 -230 -6z"/>
<path d="M53187 55240 l-7 -25 26 -131 25 -132 -42 -68 c-33 -55 -212 -326
-226 -343 -2 -3 -128 79 -281 181 -152 102 -287 191 -299 197 l-23 12 0 -11
c0 -5 4 -10 9 -10 8 0 553 -361 576 -381 l9 -9 -11 -11 -10 -10 -256 175
c-140 96 -271 185 -291 197 l-37 21 -5 -5 -6 -5 24 -13 c30 -16 529 -357 547
-374 l13 -13 -60 -89 c-33 -49 -128 -197 -212 -329 l-153 -239 -78 -103 c-44
-57 -79 -105 -79 -108 0 -33 156 182 333 460 88 138 182 284 210 324 l51 72
11 0 c6 0 21 -7 33 -16 l22 -15 0 9 c0 5 -11 15 -25 22 -27 14 -31 25 -15 35
l10 6 17 -10 c10 -6 24 -14 31 -19 l13 -9 -155 -236 c-86 -130 -156 -242 -156
-249 l1 -13 15 20 c8 11 144 215 301 453 l286 433 -17 37 c-9 20 -27 87 -41
149 l-25 112 0 40 0 41 -10 0 -10 0 0 -39 0 -38 25 -114 c14 -63 33 -131 42
-151 l16 -38 -133 -199 -132 -200 -29 21 c-16 12 -29 26 -29 30 0 5 46 78 103
162 56 84 116 175 132 202 l30 49 -18 95 c-10 52 -21 124 -25 160 l-8 65 -7
-25z"/>
<path d="M26361 55021 c-67 -99 -121 -186 -121 -193 0 -7 57 72 126 175 69
104 123 191 120 194 -2 3 -59 -76 -125 -176z"/>
<path d="M50926 55192 c-3 -5 -8 -28 -12 -51 l-7 -42 34 -29 34 -30 49 -15
c27 -8 56 -15 63 -15 l13 0 0 10 0 10 -20 0 c-10 0 -44 9 -73 20 l-54 20 -19
21 -18 20 11 42 c11 41 11 58 -1 39z"/>
<path d="M51595 55030 c55 -4 215 -8 356 -9 l255 -1 47 -30 c57 -36 62 -26 7
13 l-40 28 -362 4 -363 3 100 -8z"/>
<path d="M50984 54995 c1 -37 10 -46 20 -19 l6 15 -10 20 c-15 26 -17 24 -16
-16z"/>
<path d="M50655 54991 c8 -17 20 -33 27 -37 l12 -7 -20 -8 c-10 -4 -41 -8 -69
-8 l-50 -1 -15 -11 -15 -10 70 7 c39 4 80 11 93 15 l23 9 -20 22 c-12 12 -23
30 -27 40 -3 10 -10 18 -15 18 l-10 0 16 -29z"/>
<path d="M45680 55005 c0 -4 23 -29 51 -55 l52 -49 -7 -78 c-4 -43 -10 -103
-13 -133 l-6 -55 7 7 c4 3 13 62 20 130 l13 123 -8 16 c-10 19 -109 104 -109
94z"/>
<path d="M33421 54956 c2 -3 59 -18 126 -35 67 -17 133 -36 146 -42 l24 -11
138 -204 c76 -112 140 -202 143 -199 3 3 -142 225 -247 377 -33 47 -43 52
-188 88 -116 29 -151 35 -142 26z"/>
<path d="M31650 54893 c0 -5 35 -26 78 -49 42 -22 190 -115 327 -205 542 -359
698 -460 701 -456 4 4 -711 487 -721 487 -3 0 -52 31 -108 68 -95 64 -260 162
-272 162 -3 0 -5 -3 -5 -7z"/>
<path d="M14065 54747 l-29 -62 -124 -182 c-68 -101 -119 -183 -115 -183 5 0
64 82 131 183 l121 182 26 59 c35 79 26 82 -10 3z"/>
<path d="M18271 54624 c-90 -13 -166 -26 -169 -29 -3 -3 1 -5 9 -5 27 0 373
51 378 55 8 9 -53 3 -218 -21z"/>
<path d="M50298 54578 l-67 -73 -6 -23 -6 -23 47 -64 46 -63 124 -106 c111
-95 186 -150 253 -185 l23 -13 -6 10 c-4 6 -30 24 -59 41 l-52 30 -130 110
-130 111 -52 67 -51 67 13 26 c7 14 43 55 78 93 l65 67 -11 0 c-6 0 -42 -33
-79 -72z"/>
<path d="M51180 54621 c0 -11 300 -245 306 -239 2 3 -66 59 -151 126 -85 67
-155 118 -155 113z"/>
<path d="M51120 54572 c0 -13 91 -91 213 -182 l98 -73 5 6 5 5 -128 100 c-70
56 -143 113 -160 127 l-33 26 0 -9z"/>
<path d="M88494 54551 c-27 -16 -113 -63 -192 -105 l-144 -76 -48 16 -48 16
-24 -12 c-12 -7 -31 -19 -40 -27 l-17 -15 -6 -30 -7 -30 7 -34 6 -35 8 6 9 5
-5 44 -5 44 25 26 26 26 40 0 40 0 9 -17 10 -16 208 113 c240 130 218 116 207
123 l-9 6 -50 -28z"/>
<path d="M50060 54535 c-78 -41 -74 -45 9 -9 l61 27 0 8 c0 11 5 13 -70 -26z"/>
<path d="M51859 54373 c-79 -103 -146 -191 -148 -196 l-3 -9 13 4 13 4 39 -38
c21 -21 43 -38 48 -38 5 0 44 -35 86 -78 43 -43 113 -108 155 -146 86 -75 239
-188 247 -181 5 6 12 1 -74 61 -75 52 -305 251 -305 264 0 4 -25 28 -55 53
l-55 45 136 182 c74 100 133 184 131 186 -2 3 -65 -76 -138 -175 -74 -99 -136
-180 -139 -181 -3 0 -21 13 -39 28 l-34 28 137 178 c121 158 146 196 132 196
-2 0 -68 -84 -147 -187z"/>
<path d="M50160 54541 c0 -5 12 -17 28 -26 l27 -18 -24 27 c-26 28 -31 31 -31
17z"/>
<path d="M50121 54531 c-1 -7 4 -43 11 -80 l11 -66 24 -26 24 -26 41 -12 c22
-7 47 -15 56 -18 l15 -6 -6 10 c-4 6 -27 16 -52 23 l-46 13 -23 28 -24 28 -7
53 c-4 29 -11 62 -16 73 l-8 20 0 -14z"/>
<path d="M4824 54508 c-3 -5 -4 -11 -3 -12 2 -2 104 -33 226 -68 l222 -65 5
13 5 12 -42 11 c-23 6 -124 35 -225 65 l-182 54 -6 -10z"/>
<path d="M80958 54446 c-114 -28 -210 -55 -215 -60 l-8 -9 20 5 c11 3 111 27
223 53 l202 49 0 8 c0 10 18 14 -222 -46z"/>
<path d="M53060 54461 c0 -10 150 -111 325 -221 55 -34 107 -69 115 -78 9 -10
21 -18 28 -19 12 -3 618 -406 774 -515 49 -34 90 -59 93 -57 5 6 -181 136
-567 396 -159 107 -288 196 -288 199 0 9 169 255 194 282 l21 23 -18 -7 -18
-6 -92 -136 c-51 -75 -95 -140 -98 -144 l-6 -9 -144 92 c-79 51 -183 118 -231
151 l-88 59 0 -10z"/>
<path d="M53040 54421 c0 -9 700 -465 705 -459 3 3 -155 109 -350 236 -195
127 -355 228 -355 223z"/>
<path d="M51440 54365 l-12 -15 10 0 c12 0 26 19 19 26 -2 2 -10 -2 -17 -11z"/>
<path d="M84665 54267 c-88 -40 -189 -88 -224 -106 l-63 -32 6 -6 5 -6 68 36
c37 19 136 65 218 102 83 36 154 70 160 76 l9 9 -9 -1 c-6 0 -82 -33 -170 -72z"/>
<path d="M51333 54244 c-37 -41 -69 -81 -71 -87 -4 -13 97 93 129 136 37 50
11 28 -58 -49z"/>
<path d="M5736 54242 l-5 -8 232 -81 c190 -67 615 -203 632 -203 3 0 5 6 5 14
l0 13 -127 38 c-234 68 -308 92 -512 164 -212 75 -217 76 -225 63z"/>
<path d="M32790 54204 c1 -5 35 -35 76 -67 l75 -58 -3 -32 -3 -32 -245 -208
c-387 -330 -492 -416 -542 -450 -27 -16 -46 -32 -43 -35 11 -11 163 108 489
383 l355 300 0 42 1 41 -67 53 c-38 28 -74 56 -80 62 l-13 9 0 -8z"/>
<path d="M51650 54145 c0 -6 -34 -51 -75 -100 -41 -49 -75 -94 -75 -100 l0
-10 18 21 c61 75 145 174 149 174 3 0 48 -35 101 -79 l97 -79 25 -7 25 -8 100
-91 c96 -88 262 -213 270 -204 3 2 -30 29 -72 59 -43 29 -125 97 -183 150
l-105 96 -27 9 -28 9 -94 75 -95 75 0 11 -1 11 -15 0 -15 0 0 -12z"/>
<path d="M33660 54111 l0 -30 10 -6 10 -6 0 30 0 30 -10 6 -10 6 0 -30z"/>
<path d="M51260 54120 c0 -11 190 -180 203 -180 5 0 7 4 5 8 -4 10 -197 182
-203 182 -3 0 -5 -4 -5 -10z"/>
<path d="M50283 53953 c-156 -69 -283 -129 -283 -133 0 -7 565 241 577 254 l6
6 -9 -1 c-5 0 -136 -57 -291 -126z"/>
<path d="M50556 53769 c-143 -65 -272 -121 -288 -124 -26 -6 -45 -22 -36 -30
7 -8 145 50 372 154 121 56 221 103 223 105 3 2 1 6 -4 9 l-8 4 -259 -118z"/>
<path d="M13471 53873 c0 -10 348 -289 354 -285 13 7 -7 25 -166 153 -161 130
-190 150 -188 132z"/>
<path d="M19745 53833 c-11 -2 -78 -15 -150 -29 l-130 -25 -9 -9 c-12 -12 -9
-12 33 0 19 5 85 19 147 30 l112 20 130 6 129 7 129 -12 c71 -6 147 -14 169
-17 l40 -6 -10 10 -10 9 -135 12 -135 11 -145 -1 c-80 -1 -154 -3 -165 -6z"/>
<path d="M54070 53742 c0 -8 184 -135 285 -197 l30 -19 -15 16 c-8 8 -79 59
-157 112 l-143 97 0 -9z"/>
<path d="M61246 53723 c-7 -24 -86 -457 -86 -474 0 -7 2 -10 5 -7 7 7 96 490
91 495 -2 3 -7 -4 -10 -14z"/>
<path d="M54726 53712 c5 -4 26 -23 48 -42 l39 -35 -12 22 c-11 21 -62 63 -77
63 l-8 0 10 -8z"/>
<path d="M77472 53633 c-106 -42 -190 -78 -188 -80 5 -5 368 136 381 148 13
13 16 14 -193 -68z"/>
<path d="M77487 53596 c-104 -41 -192 -78 -195 -82 l-7 -7 15 5 c169 61 407
160 380 158 -3 0 -90 -34 -193 -74z"/>
<path d="M52417 53575 c33 -68 41 -66 12 3 l-22 52 -8 0 -9 0 27 -55z"/>
<path d="M9179 53590 c-64 -8 -239 -59 -254 -73 l-10 -10 20 7 c11 4 58 18
105 32 l84 25 92 9 91 10 138 -56 c75 -30 186 -80 246 -110 60 -29 114 -54
121 -54 19 1 -262 135 -387 186 l-109 44 -41 -1 c-22 -1 -65 -5 -96 -9z"/>
<path d="M50356 53495 l-20 -15 10 0 c6 0 19 7 30 15 l19 14 -10 0 c-5 0 -19
-6 -29 -14z"/>
<path d="M50310 53483 c1 -5 28 -55 60 -113 l60 -105 -208 -102 c-114 -56
-202 -102 -196 -102 6 -1 100 42 208 94 l197 96 8 -6 9 -5 5 14 6 14 -12 5
-12 5 -58 106 c-53 98 -68 119 -67 99z"/>
<path d="M52007 53473 l-6 -9 55 -63 c30 -35 70 -87 89 -117 l35 -54 10 0 c5
0 10 3 10 6 0 11 -101 149 -144 197 l-44 49 -5 -9z"/>
<path d="M50970 53270 c-217 -109 -389 -199 -381 -199 8 -1 183 85 390 190
325 165 411 211 391 208 -3 0 -183 -90 -400 -199z"/>
<path d="M51940 53460 l-15 -10 10 1 c6 0 19 4 30 9 l20 9 -15 0 c-8 0 -22 -4
-30 -9z"/>
<path d="M51780 53402 c-98 -38 -275 -130 -267 -139 3 -2 46 19 97 47 l93 52
81 29 c45 17 85 34 91 40 13 13 11 12 -95 -29z"/>
<path d="M31955 53351 l-110 -17 -40 -23 -40 -24 -39 -49 c-48 -61 -42 -74 7
-15 l36 44 48 31 48 30 108 13 107 13 0 8 c0 4 -3 8 -7 7 -5 0 -57 -8 -118
-18z"/>
<path d="M14196 53292 l-5 -8 69 -53 70 -53 11 4 11 4 -58 44 c-32 25 -66 51
-75 58 l-18 12 -5 -8z"/>
<path d="M52448 53266 l-17 -24 -91 -7 -90 -7 0 -7 0 -7 92 9 93 9 13 10 c7 6
18 20 23 30 l10 18 -8 0 c-4 0 -16 -11 -25 -24z"/>
<path d="M12950 53190 c0 -5 5 -10 11 -10 l10 0 -6 10 c-3 6 -8 10 -11 10 -2
0 -4 -4 -4 -10z"/>
<path d="M52071 53131 c-13 -9 -125 -71 -249 -137 l-226 -121 -4 -13 -5 -13
54 30 c30 17 137 75 239 128 102 54 195 106 208 116 l23 17 -8 5 -8 5 -24 -17z"/>
<path d="M51014 52976 c-155 -80 -284 -143 -287 -140 -2 3 -7 -2 -10 -10 l-6
-14 13 -5 13 -5 63 -104 c72 -118 69 -113 75 -107 2 3 -27 54 -65 114 l-69
110 7 7 c4 4 126 68 272 144 l265 137 33 0 32 1 38 -37 37 -36 18 -49 c9 -28
17 -61 17 -75 l0 -26 -23 -18 c-13 -10 -56 -33 -95 -52 -40 -19 -72 -38 -72
-43 0 -13 12 -9 105 40 l90 47 9 28 10 27 -22 63 -23 62 -37 38 -38 38 -34 5
-35 5 -281 -145z"/>
<path d="M53773 52923 l101 -198 20 -17 c12 -9 23 -14 26 -11 3 2 -5 12 -16
21 l-21 17 -99 192 c-55 106 -102 193 -105 193 -4 0 39 -89 94 -197z"/>
<path d="M50051 53045 c-2 -16 73 -179 76 -168 2 5 -14 48 -36 94 -22 46 -40
80 -40 74z"/>
<path d="M52990 52893 c-124 -63 -214 -112 -200 -108 28 8 392 188 424 211 47
33 -11 6 -224 -103z"/>
<path d="M51490 52895 c0 -4 10 -15 23 -26 l22 -18 25 0 25 1 -20 5 c-11 3
-32 14 -47 25 -16 11 -28 16 -28 13z"/>
<path d="M50535 52807 c-71 -34 -170 -84 -219 -110 -48 -26 -93 -47 -98 -47
l-9 0 5 -9 6 -9 93 50 c50 28 151 77 222 110 72 33 134 64 140 69 l9 9 -9 -1
c-6 0 -68 -28 -140 -62z"/>
<path d="M77905 52846 l-10 -14 -370 -142 c-203 -78 -374 -146 -379 -151 l-10
-9 13 0 c10 0 238 86 757 287 l10 4 18 -83 c29 -138 240 -755 267 -783 l9 -9
0 15 c0 9 -21 71 -46 140 -85 228 -176 503 -203 616 l-28 112 11 5 11 4 -15
11 c-20 14 -23 14 -35 -3z"/>
<path d="M50677 52833 c-4 -3 -7 -10 -7 -14 l0 -8 15 5 c8 4 15 10 15 15 0 11
-14 12 -23 2z"/>
<path d="M65025 52740 c-132 -26 -319 -62 -415 -81 l-175 -34 16 -3 c17 -3
850 155 858 163 10 11 -56 0 -284 -45z"/>
<path d="M52784 52704 l-19 -15 23 11 c12 6 22 13 22 15 0 8 -5 6 -26 -11z"/>
<path d="M85754 52637 c-18 -11 -127 -93 -298 -224 -37 -29 -64 -53 -58 -53 5
0 89 60 186 134 97 74 182 136 189 139 6 2 10 7 7 10 l-5 5 -21 -11z"/>
<path d="M54456 52584 c-11 -8 -28 -14 -38 -14 l-18 0 0 -9 0 -10 32 10 c32 9
55 25 47 33 -2 2 -13 -2 -23 -10z"/>
<path d="M85653 52512 c-65 -48 -144 -107 -176 -131 -32 -23 -56 -45 -54 -47
5 -5 357 253 357 261 0 10 -13 2 -127 -83z"/>
<path d="M54385 52540 c8 -16 15 -35 15 -42 0 -8 -27 -83 -60 -168 l-60 -155
1 -30 2 -30 4 24 c3 13 31 94 64 178 32 85 59 162 59 171 0 24 -23 82 -32 82
l-9 0 16 -30z"/>
<path d="M84795 52267 l-80 -20 12 -4 c6 -2 47 5 91 17 44 11 82 20 85 20 3 0
17 -51 32 -112 32 -135 34 -142 40 -136 3 2 -9 61 -26 131 l-31 127 -21 -1
c-12 -1 -58 -10 -102 -22z"/>
<path d="M64440 52188 c6 -74 49 -419 54 -427 l7 -11 8 4 7 5 -12 88 c-6 48
-17 145 -25 216 l-12 127 -14 0 c-7 0 -13 -1 -13 -2z"/>
<path d="M54305 52117 l-18 -14 7 -12 8 -12 13 11 c7 6 26 13 41 14 l28 3 4
12 4 11 -34 0 -34 0 -19 -13z"/>
<path d="M52720 52060 l-15 -10 12 0 c6 0 15 5 18 10 8 12 4 12 -15 0z"/>
<path d="M52472 51934 c-101 -53 -181 -98 -179 -101 5 -4 377 186 377 193 0
10 -25 -2 -198 -92z"/>
<path d="M52498 51902 c-103 -53 -188 -100 -188 -104 0 -5 84 36 188 89 204
105 197 101 191 107 -2 2 -88 -39 -191 -92z"/>
<path d="M53293 51780 c45 -93 85 -170 89 -170 3 0 -30 77 -75 170 -45 94 -85
170 -89 170 -3 0 30 -76 75 -170z"/>
<path d="M82694 51885 c3 -16 8 -46 11 -66 l7 -36 -107 -24 c-59 -13 -113 -28
-121 -34 l-15 -10 12 -53 12 -52 8 0 8 0 -10 32 c-5 18 -9 43 -9 55 l0 21 116
28 116 27 -7 56 c-4 31 -11 63 -16 71 l-10 15 5 -30z"/>
<path d="M75325 51819 c-93 -38 -179 -73 -189 -77 l-20 -8 10 -6 9 -6 192 77
c105 42 195 80 199 84 l7 7 -19 -1 c-10 0 -95 -32 -189 -70z"/>
<path d="M59213 51557 l-133 -72 10 -3 c5 -2 64 26 130 62 67 36 125 66 130
66 5 0 12 5 15 10 l6 10 -13 0 c-7 0 -73 -33 -145 -73z"/>
<path d="M88038 51323 l-178 -136 6 -8 5 -9 167 126 c92 70 176 135 187 145
l19 19 -14 -1 -15 0 -177 -136z"/>
<path d="M59023 51443 l7 -6 7 6 6 7 -13 0 -13 0 6 -7z"/>
<path d="M52930 51340 l-21 -30 -71 -46 c-40 -25 -109 -65 -155 -87 -75 -38
-100 -57 -73 -57 14 0 173 80 241 122 l55 33 37 41 37 41 -7 7 c-12 11 -22 6
-43 -24z"/>
<path d="M59322 50323 l-12 -5 5 -8 6 -9 47 5 47 6 37 -25 36 -25 6 13 5 14
-33 20 -33 21 -49 -1 c-27 0 -55 -3 -62 -6z"/>
<path d="M61571 50236 c8 -8 422 -96 427 -91 3 3 3 5 0 5 -4 0 -95 20 -205 45
-185 42 -232 51 -222 41z"/>
<path d="M59550 50118 l0 -43 -24 -57 c-13 -32 -21 -60 -18 -63 13 -13 22 -2
41 50 l21 56 0 49 0 50 -10 0 -10 0 0 -42z"/>
<path d="M15557 49929 c-32 -38 -61 -77 -64 -85 l-5 -14 8 1 c9 0 108 121 126
152 l9 17 -8 0 c-5 0 -35 -32 -66 -71z"/>
<path d="M31707 49943 c8 -78 13 -80 13 -5 l0 62 -9 0 -10 0 6 -57z"/>
<path d="M31741 49955 l-1 -50 10 -15 10 -15 -1 25 c0 14 -4 43 -8 65 l-9 40
-1 -50z"/>
<path d="M32567 49968 c8 -46 13 -48 13 -5 l0 37 -10 0 -9 0 6 -32z"/>
<path d="M33630 49990 l0 -13 7 6 6 7 -6 7 -7 6 0 -13z"/>
<path d="M34075 49989 c-143 -5 -288 -11 -322 -14 l-63 -7 0 -10 0 -11 44 6
c24 4 170 9 325 13 l281 7 0 -16 0 -15 -12 -4 -13 -5 18 -17 17 -17 0 -35 0
-34 10 0 10 0 0 41 0 41 30 -7 30 -7 0 11 0 10 -35 7 -35 6 0 17 0 18 30 -5
30 -4 0 10 0 10 -27 4 c-16 3 -35 7 -43 10 -8 3 -132 1 -275 -3z"/>
<path d="M34180 49932 c0 -7 21 -25 82 -70 l18 -13 0 13 -1 13 -43 33 c-44 33
-56 38 -56 24z"/>
<path d="M33670 49879 c0 -44 99 -753 116 -828 3 -13 7 -21 9 -19 3 3 -11 106
-30 230 -19 123 -45 314 -59 423 -14 109 -28 200 -31 203 -3 3 -5 -1 -5 -9z"/>
<path d="M33710 49883 c0 -27 50 -387 55 -391 3 -3 5 2 5 10 0 31 -50 381 -55
386 -3 3 -5 1 -5 -5z"/>
<path d="M63755 49784 c11 -4 330 -74 619 -135 166 -35 211 -40 195 -25 -2 2
-128 29 -279 59 -151 31 -328 67 -393 81 -65 14 -126 26 -135 25 l-17 -1 10
-4z"/>
<path d="M64610 49610 l0 -13 7 6 6 7 -6 7 -7 6 0 -13z"/>
<path d="M61942 49589 l5 -14 359 -77 c197 -43 568 -122 824 -177 256 -55 560
-123 675 -151 l210 -52 123 -18 123 -18 54 5 55 6 0 8 0 9 -70 0 -70 0 -98 15
c-53 8 -198 39 -322 69 -124 30 -585 132 -1025 226 -440 94 -811 174 -824 177
l-24 6 5 -14z"/>
<path d="M71546 49572 l-6 -9 158 -7 c86 -4 184 -9 217 -12 l60 -5 -15 9 -15
10 -180 7 c-99 3 -187 8 -197 11 l-16 5 -6 -9z"/>
<path d="M71546 49532 l-6 -9 158 -7 c86 -4 184 -9 217 -12 l60 -5 -15 9 -15
10 -180 7 c-99 3 -187 8 -197 11 l-16 5 -6 -9z"/>
<path d="M81708 49305 c-81 -63 -160 -121 -176 -129 -16 -8 -62 -43 -102 -76
-41 -34 -92 -74 -114 -89 l-41 -28 -80 -26 -80 -27 -25 7 -25 6 14 -16 13 -17
17 0 c28 0 175 52 206 73 17 11 71 52 120 92 50 39 104 79 120 90 54 34 315
238 315 247 0 17 -19 5 -162 -107z"/>
<path d="M42910 49295 c0 -3 45 -94 99 -203 l99 -198 16 -54 c19 -65 78 -199
88 -200 l7 0 -16 38 c-8 20 -23 53 -33 72 -10 19 -21 51 -25 70 l-8 35 -108
223 c-93 193 -119 240 -119 217z"/>
<path d="M64320 49051 c-13 -26 -13 -53 3 -74 l12 -17 0 55 c0 30 -1 55 -2 55
-1 0 -7 -9 -13 -19z"/>
<path d="M75926 48952 l-5 -9 29 -40 30 -41 -16 -6 c-8 -3 -24 -6 -35 -6 l-19
0 0 -10 c0 -5 2 -10 4 -10 31 0 467 54 510 63 l60 13 3 11 4 11 -68 -15 c-37
-8 -140 -23 -228 -32 l-160 -18 -21 8 -21 7 -31 42 -30 41 -6 -9z"/>
<path d="M80902 48923 c-10 -10 -34 -42 -51 -72 l-32 -54 9 -9 9 -9 33 53 c17
29 42 61 53 70 l22 18 38 0 37 0 0 10 0 10 -49 0 -49 0 -20 -17z"/>
<path d="M91439 48708 c-68 -78 -153 -178 -188 -223 -35 -44 -124 -141 -198
-216 -73 -75 -133 -141 -133 -145 0 -5 54 45 121 111 l121 120 81 100 c73 91
242 288 305 357 14 15 23 30 20 33 -2 3 -61 -59 -129 -137z"/>
<path d="M75968 48803 l-48 -4 0 -10 0 -9 39 0 c44 0 71 8 71 21 0 5 -3 8 -7
7 -5 -1 -29 -3 -55 -5z"/>
<path d="M50482 48781 l-13 -8 128 -205 c70 -113 180 -289 243 -391 l115 -185
12 10 12 10 -15 29 c-8 16 -62 105 -121 197 -58 92 -160 253 -225 357 -66 105
-121 191 -122 192 -1 1 -7 -2 -14 -6z"/>
<path d="M43242 48672 l-13 -9 30 0 30 0 -5 9 c-7 10 -25 10 -42 0z"/>
<path d="M34098 48616 l-206 -11 -8 -8 -8 -8 89 6 c50 3 170 10 269 15 98 5
181 12 184 15 7 6 -61 5 -320 -9z"/>
<path d="M34480 48590 c0 -12 8 -12 35 0 l20 9 -27 0 -28 1 0 -10z"/>
<path d="M34145 48578 c-77 -5 -166 -7 -197 -5 l-58 3 0 -7 0 -7 -162 -7 c-90
-4 -194 -11 -233 -15 l-70 -7 45 -2 c25 0 130 4 233 10 103 6 190 10 192 8 2
-2 29 -191 60 -419 31 -228 58 -421 61 -429 16 -48 6 41 -47 418 -32 234 -56
427 -54 429 3 3 114 11 247 18 134 8 250 16 258 18 26 7 -130 3 -275 -6z"/>
<path d="M43238 48558 l12 -12 12 12 12 12 -24 0 -24 0 12 -12z"/>
<path d="M32870 48511 l-75 -6 3 -30 c5 -49 33 -209 38 -214 7 -7 4 20 -11
114 -8 50 -15 98 -15 108 l0 17 80 0 80 0 0 10 0 10 -12 -2 c-7 -1 -47 -4 -88
-7z"/>
<path d="M32510 48227 c-171 -8 -201 -12 -189 -20 7 -6 480 21 486 27 l6 6
-59 -2 c-32 0 -142 -5 -244 -11z"/>
<path d="M72826 48219 c-3 -8 -25 -108 -49 -224 -40 -187 -47 -229 -33 -214 6
7 95 444 90 448 -2 2 -6 -2 -8 -10z"/>
<path d="M30772 48179 c-85 -4 -156 -10 -160 -13 l-6 -7 179 7 180 7 20 8 20
8 -40 -1 c-22 -1 -109 -4 -193 -9z"/>
<path d="M20115 48142 l10 -11 204 -51 c112 -28 206 -49 208 -46 6 5 -63 25
-247 71 -80 20 -154 38 -165 42 l-20 5 10 -10z"/>
<path d="M33945 47915 l32 -215 8 -8 8 -7 -5 30 c-3 17 -18 117 -34 223 -15
105 -31 192 -34 192 l-6 0 31 -215z"/>
<path d="M36893 48096 l-161 -11 -9 -9 -8 -9 45 6 c25 4 106 9 180 13 l135 6
15 9 15 8 -25 -1 c-14 0 -98 -6 -187 -12z"/>
<path d="M29427 47920 c3 -96 9 -197 14 -225 l7 -50 -5 175 c-3 96 -9 198 -14
225 l-7 50 5 -175z"/>
<path d="M43610 47811 c-5 -11 -10 -22 -10 -26 l0 -6 10 6 c5 3 15 15 20 26
l11 19 -10 0 c-6 0 -15 -9 -21 -19z"/>
<path d="M75433 47741 c-315 -43 -576 -80 -580 -84 l-6 -7 6 -6 6 -6 543 72
c299 39 560 74 581 77 l37 6 0 13 c0 8 -3 13 -7 13 -5 -1 -266 -36 -580 -78z"/>
<path d="M31857 47625 c3 -82 9 -184 14 -225 l7 -75 -5 180 c-3 99 -9 200 -14
225 l-8 45 6 -150z"/>
<path d="M53607 47744 l-27 -15 74 -147 c41 -81 82 -156 90 -167 9 -11 -21 54
-65 144 l-81 164 23 18 c29 22 24 23 -14 3z"/>
<path d="M90482 47594 c-79 -91 -142 -167 -140 -169 2 -3 58 57 124 133 65 75
132 151 148 169 15 18 24 33 20 32 -5 0 -74 -75 -152 -165z"/>
<path d="M22390 47602 c8 -5 60 -17 115 -27 55 -9 156 -30 224 -46 68 -16 126
-27 129 -25 10 10 -214 61 -453 102 l-30 5 15 -9z"/>
<path d="M22320 47579 l0 -9 18 0 17 -1 -17 -13 c-28 -21 -21 -28 12 -11 17 9
30 17 30 19 0 2 -13 9 -30 15 l-30 10 0 -10z"/>
<path d="M37832 47409 l-173 -7 -7 -7 -7 -6 185 7 c102 3 232 10 290 14 l105
7 -110 0 c-60 0 -188 -3 -283 -8z"/>
<path d="M47349 47358 l-5 -37 34 -108 c101 -325 134 -424 138 -420 2 2 -30
114 -72 248 l-77 244 -6 55 -7 55 -5 -37z"/>
<path d="M53860 47345 c0 -2 9 -19 20 -37 l20 -33 0 12 c0 6 -4 23 -10 37
l-10 26 -10 0 c-5 0 -10 -2 -10 -5z"/>
<path d="M18175 47157 c-99 -40 -189 -76 -199 -80 -10 -4 -17 -10 -14 -13 5
-4 406 151 417 162 16 15 -48 -6 -204 -69z"/>
<path d="M18130 47093 l-255 -104 -67 -16 -68 -17 -27 27 -28 26 -29 76 c-16
41 -31 73 -34 71 -2 -3 10 -41 27 -85 l32 -79 24 -22 24 -23 50 6 49 6 279
112 c153 61 280 113 282 115 21 18 -40 -3 -259 -93z"/>
<path d="M20662 47113 l-21 -68 -21 -132 c-12 -73 -20 -138 -18 -144 2 -7 16
62 32 151 l28 164 19 48 19 48 -9 0 -8 0 -21 -67z"/>
<path d="M20701 47103 l-21 -68 -29 -172 -30 -171 -21 -50 -21 -49 -47 -46
-47 -46 -165 -72 c-91 -39 -195 -82 -231 -94 -89 -31 -219 -88 -219 -97 l0 -8
58 26 c31 15 104 44 162 64 58 21 175 68 260 105 l155 67 41 40 42 40 25 66
26 67 32 185 31 185 18 48 18 47 -8 0 -7 0 -22 -67z"/>
<path d="M45411 46879 c22 -33 43 -58 46 -56 6 7 -68 117 -79 117 l-9 0 42
-61z"/>
<path d="M32513 46917 l-173 -9 0 -10 0 -9 18 5 c9 2 91 8 182 12 91 3 185 10
210 14 l45 8 -55 -1 c-30 0 -133 -5 -227 -10z"/>
<path d="M46297 46700 c-56 -257 -178 -882 -173 -888 7 -6 13 24 80 368 36
184 83 418 106 519 22 102 39 192 38 200 l-4 16 -47 -215z"/>
<path d="M30690 46814 c0 -54 30 -397 35 -402 8 -8 6 28 -11 233 -14 175 -24
242 -24 169z"/>
<path d="M89640 46728 c-47 -5 -88 -12 -92 -16 l-6 -7 35 -88 c20 -48 37 -86
40 -84 2 3 -10 39 -27 81 -16 42 -30 80 -30 85 l0 9 84 7 83 7 14 9 14 9 -15
-1 c-8 -1 -53 -6 -100 -11z"/>
<path d="M35415 46500 c-55 -4 -124 -8 -152 -9 l-53 -1 0 -16 0 -16 48 6 c26
3 103 8 172 11 69 3 146 8 173 11 l47 6 -6 9 -5 9 -62 -2 c-34 -1 -107 -5
-162 -8z"/>
<path d="M93276 46481 l-6 -8 142 -197 142 -196 9 9 9 9 -142 196 c-78 108
-143 196 -145 196 -2 0 -6 -4 -9 -9z"/>
<path d="M20120 46391 c-146 -54 -260 -105 -260 -116 0 -3 26 7 58 21 31 15
129 53 217 86 88 33 162 62 164 64 14 13 -43 -4 -179 -55z"/>
<path d="M80980 46440 l-15 -10 18 0 17 0 0 10 c0 12 -1 12 -20 0z"/>
<path d="M80870 46420 l-25 -8 27 -1 27 -1 6 10 6 10 -8 -1 c-4 -1 -19 -5 -33
-9z"/>
<path d="M30697 46095 c3 -82 9 -170 14 -195 l7 -45 -5 150 c-3 83 -9 170 -14
195 l-7 45 5 -150z"/>
<path d="M28423 46176 l-162 -12 -7 -7 -7 -7 6 -6 6 -6 168 11 c92 6 201 14
241 17 l72 6 0 9 0 9 -77 -1 c-43 -1 -151 -7 -240 -13z"/>
<path d="M51781 46122 c-1 -18 148 -327 154 -320 3 3 -30 79 -74 169 -44 90
-80 158 -80 151z"/>
<path d="M93060 46071 c0 -4 16 -15 35 -24 l36 -17 32 0 32 0 53 -25 54 -25
54 0 54 0 74 37 75 37 -4 6 -4 7 -77 -39 -76 -38 -42 0 -41 0 -47 25 -47 25
-38 0 -38 0 -42 20 -43 19 0 -8z"/>
<path d="M18940 46052 c0 -14 157 -332 165 -332 4 0 -131 288 -154 326 l-10
19 -1 -13z"/>
<path d="M81340 45990 l-14 -9 7 -7 7 -8 12 12 c6 6 10 14 7 16 -2 3 -11 1
-19 -4z"/>
<path d="M81340 45949 l0 -10 10 6 c6 3 10 8 10 11 0 2 -4 4 -10 4 -5 0 -10
-5 -10 -11z"/>
<path d="M81355 45843 c-10 -38 -27 -90 -38 -116 l-20 -48 -29 -15 -30 -15 6
-6 5 -6 31 13 31 13 15 36 c9 20 26 75 39 124 l24 87 -8 0 -8 0 -18 -67z"/>
<path d="M81323 45858 c-5 -7 -17 -40 -27 -72 l-18 -59 -24 -24 c-29 -29 -30
-33 -4 -26 l21 6 15 30 c15 27 55 157 49 157 -1 0 -7 -6 -12 -12z"/>
<path d="M24669 45808 c26 -67 182 -383 190 -386 l10 -3 -97 205 c-53 113
-100 206 -104 206 l-8 0 9 -22z"/>
<path d="M46113 45784 c10 -11 218 -51 305 -59 l67 -6 80 15 80 15 -70 -7
c-38 -4 -99 -6 -135 -5 l-65 3 -110 20 c-60 12 -121 24 -135 27 l-25 6 8 -9z"/>
<path d="M81251 45608 c0 -13 -3 -36 -6 -53 l-6 -30 16 34 c17 39 19 57 5 66
l-10 6 1 -23z"/>
<path d="M49606 45408 c9 -17 20 -44 24 -59 l8 -26 -7 -10 c-3 -6 -57 -36
-118 -67 -62 -31 -113 -58 -113 -61 0 -2 55 22 123 54 l122 57 3 21 3 22 -22
50 -21 51 -9 0 -10 0 17 -32z"/>
<path d="M15459 45115 l-5 -10 12 -330 c7 -181 16 -340 19 -352 l7 -23 10 0
10 0 -7 18 c-11 26 -24 218 -33 477 l-7 230 -6 -10z"/>
<path d="M15418 44939 l4 -172 9 -21 10 -21 -6 85 c-3 47 -5 133 -5 193 l0
107 -7 0 -8 0 3 -171z"/>
<path d="M48898 44963 c12 -2 32 -2 45 0 l22 4 -45 0 -45 0 23 -4z"/>
<path d="M81164 44838 c7 -24 37 -121 67 -215 l54 -173 8 0 c13 0 7 23 -57
224 l-63 200 -11 4 -11 3 13 -43z"/>
<path d="M52335 44440 l-7 -11 197 -412 c108 -227 198 -414 200 -415 2 -2 10
0 19 5 l15 8 -198 415 -198 414 -10 3 -11 4 -7 -11z"/>
<path d="M49214 44354 c8 -16 37 -62 65 -103 l49 -74 72 -58 72 -59 14 0 c7 0
60 -30 116 -67 l103 -68 94 2 94 2 11 11 11 12 -33 -7 c-18 -4 -63 -7 -100 -8
l-67 0 -110 71 c-60 40 -116 72 -123 72 -7 0 -45 26 -83 58 l-70 57 -56 87
c-30 49 -59 91 -65 94 l-10 6 16 -28z"/>
<path d="M94160 44274 c-80 -58 -152 -109 -160 -114 l-15 -8 6 -6 5 -5 154
110 c85 61 159 114 165 120 l9 9 -9 0 c-6 -1 -75 -48 -155 -106z"/>
<path d="M41602 44248 c-7 -7 -12 -16 -12 -22 l0 -10 12 12 c7 7 20 12 31 12
l18 0 -6 10 c-8 14 -28 13 -43 -2z"/>
<path d="M87896 44017 c-26 -48 -46 -92 -44 -98 l3 -9 48 87 47 87 -3 10 -3
10 -48 -87z"/>
<path d="M11221 43149 c-13 -39 -13 -39 -2 -39 l9 0 7 31 c9 42 0 47 -14 8z"/>
<path d="M51888 43046 l-147 -21 -8 -8 -8 -9 25 6 c14 3 95 15 180 26 85 12
157 23 159 26 8 7 -52 2 -201 -20z"/>
<path d="M49930 43030 l-95 -29 -25 -30 c-14 -16 -33 -43 -43 -60 l-18 -31 8
0 c4 0 21 20 36 44 l28 44 23 15 c13 9 59 26 102 38 44 12 83 26 89 31 l9 8
-9 -1 c-6 0 -53 -14 -105 -29z"/>
<path d="M51888 43006 c-80 -11 -150 -24 -154 -29 l-8 -7 30 5 c16 3 81 12
144 20 63 8 130 18 148 21 l32 5 195 -392 195 -393 0 17 c0 9 -86 187 -190
397 l-191 380 -27 -1 c-15 -1 -93 -11 -174 -23z"/>
<path d="M41783 42851 c-95 -42 -175 -80 -179 -84 l-7 -7 10 0 c9 0 344 148
352 156 20 19 -29 1 -176 -65z"/>
<path d="M29886 42843 c62 -84 74 -101 123 -185 28 -48 51 -89 51 -91 0 -12
32 -79 35 -75 8 8 -36 112 -73 173 -52 88 -144 215 -155 215 l-9 0 28 -37z"/>
<path d="M50650 42660 l0 -180 10 0 10 0 0 180 0 180 -10 0 -10 0 0 -180z"/>
<path d="M82048 42825 c-3 -3 42 -93 100 -200 l104 -195 15 0 14 0 -55 103
c-31 56 -80 146 -108 200 -50 93 -58 103 -70 92z"/>
<path d="M88580 42703 l22 -37 -10 -4 c-48 -16 -628 -429 -617 -440 2 -3 10 0
17 5 7 6 115 85 239 176 l227 165 80 46 80 47 -21 39 c-12 22 -26 40 -30 40
l-9 0 22 -37z"/>
<path d="M91738 42577 c-43 -23 -78 -45 -78 -50 0 -4 37 13 83 38 l84 45 20 0
21 0 78 -44 c44 -24 175 -105 292 -180 118 -76 216 -135 218 -133 5 4 -431
286 -527 341 l-46 26 -34 -1 -34 0 -77 -42z"/>
<path d="M51445 42555 c3 -16 16 -113 30 -215 14 -102 27 -189 29 -195 10 -25
4 54 -15 200 l-22 159 -13 41 -14 40 5 -30z"/>
<path d="M92085 42533 c32 -31 428 -276 405 -251 -10 11 -384 250 -399 256
l-16 5 10 -10z"/>
<path d="M45971 42240 c-79 -44 -149 -84 -155 -89 l-11 -10 5 -48 4 -48 6 50
5 50 138 76 c121 67 172 99 157 99 -3 0 -70 -36 -149 -80z"/>
<path d="M51470 42124 c0 -29 51 -429 55 -433 9 -8 5 40 -19 237 -13 106 -26
196 -30 199 l-6 6 0 -9z"/>
<path d="M30157 42042 l-8 -12 7 -73 c4 -39 10 -81 14 -92 17 -45 402 -484
433 -494 12 -4 -5 16 -133 154 -90 96 -261 301 -281 335 l-14 25 -5 85 -5 85
-8 -13z"/>
<path d="M31088 41783 c-189 -266 -213 -293 -347 -393 -55 -41 -100 -79 -101
-84 l0 -8 15 6 c24 9 207 151 242 188 29 31 373 504 373 514 0 2 -4 4 -10 4
l-9 0 -163 -227z"/>
<path d="M66682 41914 l-22 -15 0 -15 0 -14 10 0 c6 0 10 5 10 10 l0 10 25 12
c14 6 25 15 25 20 0 13 -24 9 -48 -8z"/>
<path d="M87059 41564 c-96 -70 -178 -131 -184 -137 l-10 -10 17 6 c9 3 92 61
185 128 196 143 178 128 171 134 -2 3 -83 -52 -179 -121z"/>
<path d="M30907 41623 c-15 -21 -50 -61 -79 -89 l-53 -51 -375 -284 -375 -283
-65 -23 c-36 -12 -75 -23 -87 -23 -27 0 -53 -10 -53 -20 l0 -7 68 12 c37 7 83
18 102 25 l35 12 380 286 c209 156 402 306 428 331 46 44 117 132 117 145 0
17 -20 2 -43 -31z"/>
<path d="M82726 41638 c4 -7 59 -95 122 -196 l114 -182 9 6 9 5 -6 12 c-4 7
-57 92 -117 190 l-110 177 -14 0 -14 0 7 -12z"/>
<path d="M30336 41598 c22 -24 82 -89 134 -146 51 -56 95 -100 98 -98 6 7
-250 286 -262 286 l-10 0 40 -42z"/>
<path d="M28116 41472 l-5 -9 32 -30 c18 -17 61 -51 97 -75 l65 -44 100 -41
100 -42 85 -15 85 -15 160 -6 160 -7 90 -13 90 -13 58 -22 58 -22 65 -43 64
-43 5 7 4 8 -22 19 c-33 29 -107 70 -166 94 l-52 20 -102 15 -101 16 -14 -6
-13 -5 5 9 5 8 -162 6 -162 5 -75 16 c-150 32 -295 102 -399 193 l-50 43 -5
-8z"/>
<path d="M57615 41413 c-22 -19 -54 -41 -72 -49 l-32 -14 -388 -2 -388 -1 370
-9 370 -9 40 6 40 6 55 48 c30 27 53 51 50 54 -3 3 -23 -11 -45 -30z"/>
<path d="M57620 41367 l-63 -52 -154 -3 -153 -4 0 -9 0 -9 133 0 132 0 35 10
35 11 55 49 c30 27 52 51 49 54 -3 3 -34 -18 -69 -47z"/>
<path d="M54765 41244 c49 -85 79 -127 108 -148 l28 -21 104 -3 105 -4 0 10 0
10 -100 4 -99 4 -28 20 -28 21 -46 73 -45 74 -14 4 -14 5 29 -49z"/>
<path d="M28446 41177 l-7 -43 10 -69 10 -69 31 -61 c17 -33 46 -84 64 -114
l33 -53 6 9 6 9 -47 80 -48 79 -23 65 -24 64 7 73 6 73 -9 0 -9 0 -6 -43z"/>
<path d="M28960 41150 c0 -10 36 -20 75 -20 36 0 155 -31 207 -53 l37 -15 139
-105 139 -105 59 -30 59 -29 48 -7 48 -7 29 6 c17 4 30 10 30 13 l0 7 -75 2
-76 2 -57 32 c-31 18 -118 79 -193 135 l-137 103 -38 16 c-56 24 -170 52 -236
58 l-58 6 0 -9z"/>
<path d="M86522 40845 c-56 -113 -98 -205 -94 -205 10 0 208 398 201 404 -2 3
-51 -87 -107 -199z"/>
<path d="M53610 40840 l0 -10 21 0 20 0 -6 10 c-3 6 -13 10 -21 10 l-14 0 0
-10z"/>
<path d="M97095 40686 l-250 -84 -125 -56 c-69 -32 -129 -62 -135 -67 -10 -10
169 67 230 99 16 8 149 55 295 103 146 48 258 87 250 88 -8 0 -127 -37 -265
-83z"/>
<path d="M60461 40525 c3 -2 95 -18 204 -35 110 -16 210 -32 223 -35 l22 -5 0
7 0 8 -217 33 c-223 33 -240 35 -232 27z"/>
<path d="M46510 40095 c0 -2 5 -15 11 -29 l12 -25 8 5 8 5 -11 24 c-10 21 -28
35 -28 20z"/>
<path d="M61730 40031 l0 -9 283 -120 c155 -66 332 -141 392 -166 61 -24 161
-69 223 -99 l114 -55 29 -28 29 -28 22 -55 21 -56 7 -275 7 -275 -2 290 -1
290 -18 40 -18 40 -31 33 -32 34 -88 44 c-48 25 -246 110 -440 190 -194 80
-385 161 -424 179 l-73 34 0 -8z"/>
<path d="M84816 39970 c4 -8 49 -76 99 -150 51 -74 106 -161 124 -192 18 -32
37 -61 43 -64 l11 -7 -33 59 c-44 79 -207 324 -233 349 l-20 20 9 -15z"/>
<path d="M84780 39956 c0 -4 34 -58 77 -119 42 -62 220 -346 395 -632 175
-286 323 -521 328 -523 23 -8 -736 1213 -791 1273 l-9 9 0 -8z"/>
<path d="M94360 39741 c0 -13 71 -103 77 -97 5 5 -64 106 -73 106 -2 0 -4 -4
-4 -9z"/>
<path d="M94309 39689 l-16 -50 7 -4 8 -5 7 23 c3 12 10 37 15 55 l8 32 -7 0
c-3 0 -13 -23 -22 -51z"/>
<path d="M51071 39634 c0 -6 -10 -60 -21 -120 -23 -126 -24 -145 -9 -196 l10
-38 36 -35 c20 -19 41 -35 47 -35 l11 1 -31 27 c-41 36 -59 68 -67 117 l-7 40
21 108 20 109 -4 16 -5 17 -1 -11z"/>
<path d="M51571 39116 c16 -15 1318 -271 1328 -260 7 7 -19 12 -434 89 -225
42 -513 98 -639 126 -213 46 -266 55 -255 45z"/>
<path d="M52013 38984 c5 -6 407 -84 430 -84 6 0 8 2 5 5 -5 5 -411 85 -432
85 l-9 0 6 -6z"/>
<path d="M52891 38816 c7 -7 432 -87 437 -82 6 6 -9 10 -228 51 -179 34 -218
40 -209 31z"/>
<path d="M81824 38673 c29 -49 63 -106 74 -129 12 -22 85 -142 164 -265 79
-123 156 -246 172 -272 15 -27 30 -46 32 -44 7 6 -66 129 -223 375 -70 112
-157 252 -193 312 -35 61 -68 110 -72 110 -5 0 16 -39 46 -87z"/>
<path d="M55346 38701 l-8 -12 58 -65 c31 -36 102 -104 156 -151 l99 -86 11
11 c7 7 10 13 7 15 -41 29 -173 150 -235 215 l-81 86 -7 -13z"/>
<path d="M53780 38691 l0 -7 175 -33 c96 -18 185 -35 197 -38 l23 -6 -10 10
-10 9 -120 23 c-66 13 -150 29 -187 36 l-68 13 0 -7z"/>
<path d="M53775 38652 l10 -10 170 -31 c94 -18 179 -35 190 -38 l20 -5 -10 10
-10 10 -170 31 c-93 18 -179 35 -190 38 l-20 5 10 -10z"/>
<path d="M60290 38450 c0 -5 5 -10 10 -10 l10 0 0 -16 0 -15 -47 -67 c-26 -37
-105 -130 -176 -207 l-129 -140 -82 -70 c-45 -39 -99 -81 -119 -94 -21 -13
-36 -25 -33 -28 3 -3 38 18 78 46 l73 50 79 75 78 76 148 -138 c81 -75 219
-204 308 -287 l160 -150 -21 -24 c-12 -13 -55 -48 -96 -78 l-73 -55 -67 -25
c-36 -13 -70 -29 -76 -34 l-10 -10 82 30 82 30 73 55 c40 29 93 75 118 101 25
26 70 66 100 89 l55 42 295 63 c409 88 432 93 426 98 -2 3 -168 -30 -368 -73
l-363 -77 -40 -30 c-22 -17 -57 -46 -77 -66 l-38 -35 0 10 c0 6 -71 76 -157
155 -154 141 -265 243 -391 362 l-62 59 87 95 c49 52 114 131 146 174 l57 79
0 15 0 14 -20 11 -20 11 0 -11z"/>
<path d="M60222 38356 c-29 -42 -78 -104 -110 -139 -31 -34 -67 -75 -81 -91
l-26 -29 12 4 c16 6 146 152 210 237 l54 73 -3 10 -3 10 -53 -75z"/>
<path d="M51321 38105 c-24 -99 -45 -191 -48 -205 l-6 -25 7 6 c10 9 98 379
93 393 l-4 11 -42 -180z"/>
<path d="M58260 38157 l0 -73 -26 -143 -25 -143 5 -6 c11 -10 15 3 40 148 l26
144 0 73 0 73 -10 0 -10 0 0 -73z"/>
<path d="M87323 38037 l-182 -112 9 -3 10 -4 177 108 c98 59 182 111 188 116
l9 8 -14 -1 c-8 0 -97 -51 -197 -112z"/>
<path d="M59320 37585 c0 -9 190 -385 194 -385 7 0 -35 93 -113 249 -63 124
-81 155 -81 136z"/>
<path d="M51163 37454 c-3 -10 -53 -79 -110 -151 l-103 -133 1 -27 2 -28 4 20
4 20 104 134 c58 73 107 142 111 153 l6 20 -6 5 -6 6 -7 -19z"/>
<path d="M86157 37278 c-125 -83 -226 -153 -223 -155 3 -4 439 278 461 298 l9
9 -9 0 c-6 -1 -113 -69 -238 -152z"/>
<path d="M83178 37213 c-10 -2 -18 -9 -18 -14 l0 -10 21 11 20 11 13 -10 c7
-6 52 -76 101 -156 48 -80 90 -144 92 -141 3 3 -37 74 -89 158 l-93 153 -15 1
c-8 1 -23 0 -32 -3z"/>
<path d="M58730 36946 c0 -4 207 -129 304 -184 l9 -5 -7 11 c-3 6 -57 40 -119
75 -61 36 -129 75 -149 87 -21 12 -38 19 -38 16z"/>
<path d="M10236 36802 l-5 -9 265 -304 c300 -344 421 -470 578 -605 l109 -93
8 5 c17 10 8 22 -68 85 -43 35 -125 109 -182 164 l-103 100 -291 333 c-160
182 -294 332 -298 332 -4 0 -10 -4 -13 -8z"/>
<path d="M58962 36690 c-14 -23 -15 -30 -4 -30 5 0 14 11 20 25 l12 25 -8 0
c-4 0 -13 -9 -20 -20z"/>
<path d="M53814 36423 c-3 -21 -22 -114 -40 -207 -31 -152 -35 -190 -19 -174
4 4 59 268 79 381 l7 37 -10 0 -10 0 -7 -37z"/>
<path d="M86245 35980 c59 -60 79 -75 54 -42 -28 37 -94 102 -103 102 l-10 0
59 -60z"/>
<path d="M80830 35969 c0 -4 -35 -27 -77 -50 -43 -23 -98 -53 -123 -67 -80
-44 -589 -306 -795 -410 l-200 -100 -103 -32 c-57 -17 -102 -34 -99 -36 3 -3
58 11 123 32 l119 37 370 190 c204 104 463 241 578 304 l207 114 9 -6 c5 -3
57 -83 115 -178 57 -94 112 -181 121 -192 l17 -20 -20 35 c-11 19 -65 109
-120 198 l-101 164 5 12 5 13 -16 0 c-8 0 -15 -4 -15 -8z"/>
<path d="M62802 35707 c-73 -133 -132 -245 -132 -249 0 -26 26 17 145 237
l133 245 -8 5 -7 4 -131 -242z"/>
<path d="M41764 35677 l19 -14 -5 -26 -5 -27 9 0 9 0 -3 37 -3 38 -20 3 -20 4
19 -15z"/>
<path d="M84265 35239 c-341 -220 -627 -404 -635 -409 -8 -5 -13 -10 -10 -13
3 -2 291 180 640 404 l635 409 40 -1 40 0 26 -22 27 -22 58 -102 c32 -57 62
-103 66 -103 4 0 -21 48 -54 108 l-61 107 -26 22 -26 22 -50 0 -50 0 -620
-400z"/>
<path d="M84916 35603 c-21 -6 -464 -288 -486 -311 l-15 -15 15 8 c8 4 119 75
246 156 l231 149 27 0 26 0 20 -20 c11 -11 33 -46 49 -78 16 -32 56 -94 88
-137 32 -44 142 -215 242 -380 101 -165 198 -318 214 -340 17 -22 32 -42 34
-44 2 -2 5 -2 8 1 l6 5 -24 29 c-14 16 -110 170 -216 341 -105 172 -217 348
-248 390 -32 43 -75 111 -96 150 l-38 72 -22 16 c-22 15 -28 16 -61 8z"/>
<path d="M81446 35198 c17 -27 317 -358 322 -354 2 3 -69 86 -157 185 -147
164 -186 205 -165 169z"/>
<path d="M32075 35040 l-6 -10 18 0 18 0 145 -116 145 -115 270 -136 270 -136
255 -77 c219 -67 279 -82 259 -67 -2 2 -114 36 -249 76 l-245 73 -275 139
-275 138 -150 120 c-82 67 -155 121 -162 121 -6 0 -15 -4 -18 -10z"/>
<path d="M83460 34668 c-311 -203 -572 -373 -580 -378 -8 -4 -13 -11 -10 -13
3 -3 259 161 570 364 311 203 572 374 580 378 8 5 13 12 10 14 -3 2 -259 -162
-570 -365z"/>
<path d="M54551 34930 c-1 -14 8 -93 19 -175 26 -191 30 -218 36 -212 5 4 -43
382 -51 402 -2 6 -4 -1 -4 -15z"/>
<path d="M51426 34909 c-11 -52 -56 -413 -52 -417 3 -2 7 6 10 19 11 52 56
413 52 417 -3 2 -7 -6 -10 -19z"/>
<path d="M60738 34695 c-43 -116 -78 -218 -78 -226 l1 -14 8 15 c5 8 38 96 74
195 36 99 70 192 76 207 l10 27 -7 5 -7 4 -77 -213z"/>
<path d="M30084 34310 c6 -25 399 -820 403 -816 2 2 -89 189 -202 417 -113
228 -203 407 -201 399z"/>
<path d="M54208 34051 l-417 -56 -8 -9 -8 -8 30 6 c17 3 206 28 420 56 215 27
404 54 420 59 l30 9 -25 0 c-14 0 -213 -26 -442 -57z"/>
<path d="M51967 33773 l-7 -6 0 -163 0 -163 -32 -4 -33 -4 41 -1 41 -2 -1 175
c0 96 -1 175 -2 175 0 0 -4 -3 -7 -7z"/>
<path d="M57880 33709 c0 -9 20 -64 45 -123 l44 -107 16 -87 c18 -99 25 -125
31 -119 2 2 -4 51 -15 108 l-19 104 -50 120 -51 120 -1 -16z"/>
<path d="M64254 33479 l-6 -11 8 -7 c5 -5 182 -110 392 -235 l384 -227 15 5
15 6 -4 11 c-4 12 -767 468 -785 469 -6 0 -15 -5 -19 -11z"/>
<path d="M34300 32508 c0 -7 9 -26 20 -43 l20 -30 0 13 c0 15 -28 72 -35 72
-3 0 -5 -6 -5 -12z"/>
<path d="M98877 31796 l6 -59 -16 6 -16 6 -30 -12 -31 -11 -10 -31 -10 -30 22
28 23 28 37 8 36 9 5 -17 c2 -9 66 -107 142 -216 155 -225 144 -210 149 -204
2 2 -61 98 -140 213 l-144 208 -6 37 c-3 20 -10 50 -15 66 l-8 30 6 -59z"/>
<path d="M95243 30510 c-18 -8 -143 -97 -451 -323 -30 -21 -51 -41 -49 -44 3
-2 114 75 248 173 l243 177 30 7 31 6 30 -14 30 -14 50 -69 c42 -58 65 -81 65
-66 0 2 -25 37 -55 78 l-56 74 -22 12 c-26 14 -63 15 -94 3z"/>
<path d="M79867 30480 c9 -16 21 -30 26 -30 l8 0 -18 30 c-9 17 -21 30 -26 30
l-8 0 18 -30z"/>
<path d="M1660 30345 l-34 -25 16 0 17 0 28 25 28 24 -11 1 c-5 0 -25 -11 -44
-25z"/>
<path d="M95100 29920 c14 -4 33 -8 43 -9 l18 -1 -6 10 -6 10 -37 -1 -37 -1
25 -8z"/>
<path d="M93530 28879 c-91 -66 -172 -127 -180 -136 l-15 -16 15 9 c17 9 340
242 355 255 l9 9 -9 0 c-6 0 -84 -54 -175 -121z"/>
<path d="M92135 28034 l-39 -14 -28 -27 -28 -26 -11 -34 c-6 -19 -9 -37 -6
-39 3 -3 10 10 16 28 21 60 87 108 150 108 l26 0 -15 10 c-18 12 -16 12 -65
-6z"/>
<path d="M24901 27659 l0 -194 9 -40 8 -40 -5 230 c-3 127 -7 232 -9 234 -2 2
-4 -83 -3 -190z"/>
<path d="M95979 27271 c-350 -256 -687 -503 -748 -548 l-112 -81 8 -5 8 -5
730 534 c402 294 736 541 744 549 56 56 -70 -33 -630 -444z"/>
<path d="M17172 27209 l-43 -191 5 -6 c3 -3 8 -3 11 0 4 4 37 139 84 351 l9
37 -12 0 -11 0 -43 -191z"/>
<path d="M25765 26860 c3 -5 8 -10 11 -10 3 0 2 5 -1 10 -3 6 -8 10 -11 10 -3
0 -2 -4 1 -10z"/>
<path d="M24370 26362 l0 -10 68 -7 67 -6 32 -16 32 -15 11 -29 12 -29 -4 -32
c-3 -18 -8 -41 -13 -50 l-7 -18 11 0 11 0 10 26 c14 36 12 79 -4 118 l-14 33
-38 15 -39 15 -67 8 -68 7 0 -10z"/>
<path d="M24661 25838 l-53 -161 -39 -59 -38 -59 -42 -127 c-23 -70 -55 -154
-72 -187 -17 -33 -49 -104 -72 -157 l-42 -97 14 -5 14 -6 6 18 c24 67 48 123
86 199 l44 88 43 129 43 129 42 61 42 61 52 155 c28 85 51 161 51 168 l0 12
-13 0 -12 0 -54 -162z"/>
<path d="M87800 25663 c0 -9 374 -323 384 -323 21 0 -15 35 -179 171 -102 85
-190 156 -195 157 l-10 4 0 -9z"/>
<path d="M87028 24893 l-47 -46 -26 17 -26 17 -17 -5 c-21 -7 -191 -176 -177
-176 6 0 46 36 90 80 l80 80 17 0 c9 0 20 -4 23 -10 l6 -10 23 0 22 0 44 45
c24 24 42 47 39 49 -3 3 -26 -16 -51 -41z"/>
<path d="M90490 24839 c47 -5 150 -19 230 -31 l144 -21 116 -32 115 -32 124
-52 c67 -29 128 -50 133 -49 l10 4 -133 56 -134 56 -95 27 c-108 31 -93 28
-265 55 l-130 21 -100 4 -100 4 85 -10z"/>
<path d="M315 24648 c-6 -20 -65 -415 -65 -439 l0 -22 8 7 c4 4 23 111 43 237
l35 229 -8 0 c-5 0 -10 -6 -13 -12z"/>
<path d="M23506 23080 c-69 -99 -126 -185 -126 -191 l0 -11 10 4 c7 2 232 314
265 368 l6 10 -14 0 -15 0 -126 -180z"/>
<path d="M13716 21665 c-32 -120 -60 -225 -63 -234 l-6 -16 11 10 10 10 56
214 c31 117 55 218 53 224 -2 6 -29 -88 -61 -208z"/>
<path d="M89600 21443 c0 -19 98 -414 104 -420 16 -17 11 17 -37 215 l-51 212
-8 0 c-4 0 -8 -3 -8 -7z"/>
<path d="M89545 20878 c-77 -71 -142 -135 -144 -141 -4 -11 65 49 224 196 39
36 68 67 65 70 -3 2 -68 -54 -145 -125z"/>
<path d="M86761 20813 c7 -20 629 -667 629 -653 0 4 -122 136 -271 291 -318
333 -362 378 -358 362z"/>
<path d="M86730 20787 c0 -12 622 -658 628 -652 3 2 -89 103 -204 222 -327
341 -424 439 -424 430z"/>
<path d="M22805 19368 c3 -18 15 -100 26 -183 l20 -150 14 -310 c8 -170 19
-368 25 -440 l11 -130 15 -55 c9 -30 27 -78 40 -106 l24 -50 58 -71 c53 -65
432 -487 852 -948 173 -189 366 -411 429 -493 54 -70 250 -399 367 -618 83
-156 200 -364 250 -445 29 -48 91 -163 137 -255 l84 -169 23 -100 23 -100 -6
-120 -5 -120 -41 -240 -41 -240 0 -90 0 -90 14 -55 c22 -89 41 -132 375 -803
l319 -642 52 -130 c29 -71 76 -205 105 -298 l54 -167 20 -108 c52 -272 71
-391 165 -1060 36 -250 67 -456 70 -460 l6 -5 7 6 6 7 -62 452 c-89 651 -110
795 -127 868 -8 36 -26 121 -39 190 l-25 125 -54 170 c-29 94 -73 217 -96 275
-48 121 -267 581 -308 649 -33 54 -357 716 -397 811 -15 36 -34 88 -41 115
l-14 50 0 107 0 108 45 272 45 273 0 82 0 82 -20 88 -20 88 -81 160 c-45 88
-103 198 -129 245 -26 47 -87 157 -135 245 -48 88 -113 203 -145 255 -31 52
-97 167 -145 255 -49 88 -109 195 -134 239 l-46 79 -84 100 c-47 55 -92 108
-100 117 -9 8 -83 92 -166 185 -82 93 -224 250 -315 349 -363 396 -595 655
-658 736 l-66 85 -27 80 -27 80 -16 185 c-8 102 -20 295 -26 430 l-11 245 -25
184 c-13 101 -24 190 -24 197 l0 14 -15 0 -16 0 6 -32z"/>
<path d="M22817 18698 c6 -128 12 -234 12 -235 1 -2 6 -3 12 -3 l12 0 -7 143
c-3 78 -9 184 -13 235 l-6 92 -11 0 -11 0 12 -232z"/>
<path d="M95650 17752 c0 -4 74 -72 165 -150 91 -79 165 -139 165 -134 0 5
-74 73 -165 151 -91 78 -165 138 -165 133z"/>
<path d="M93115 17159 c-99 -72 -189 -137 -199 -145 -11 -7 -18 -15 -15 -18 5
-5 393 272 397 285 2 5 2 9 0 9 -1 -1 -84 -60 -183 -131z"/>
<path d="M23526 17272 l-5 -9 219 -241 c229 -253 470 -531 557 -642 l50 -65
46 -86 c25 -48 140 -252 255 -455 115 -203 266 -477 335 -609 l126 -240 21
-82 20 -83 1 -92 1 -93 -41 -225 -40 -225 -9 -105 -10 -105 9 -65 9 -65 26
-77 26 -78 9 0 10 0 -6 -10 -6 -10 300 -592 c165 -326 324 -650 355 -720 l55
-128 37 -117 c20 -65 40 -122 45 -127 l9 -10 5 6 6 6 -37 118 c-56 182 -93
262 -432 939 l-315 630 -29 85 -29 85 -9 67 -10 66 11 109 10 108 35 190 36
190 5 112 6 112 -23 98 -22 98 -120 230 c-169 322 -575 1037 -683 1205 l-42
65 -139 160 c-143 166 -612 685 -619 685 -2 0 -6 -4 -9 -8z"/>
<path d="M92930 16991 c0 -11 320 -295 326 -289 2 3 -70 71 -161 152 -91 80
-165 142 -165 137z"/>
<path d="M92901 16963 c2 -6 69 -69 149 -139 138 -121 450 -395 498 -437 l22
-20 0 10 0 11 -102 88 c-109 94 -493 430 -542 473 l-29 26 4 -12z"/>
<path d="M92140 16394 c0 -6 16 -26 36 -45 l37 -34 -11 20 c-6 11 -22 31 -36
44 l-26 24 0 -9z"/>
<path d="M13935 16085 c2 -27 9 -104 15 -170 13 -151 20 -208 26 -202 3 2 -2
89 -11 193 l-17 189 -9 20 -9 20 5 -50z"/>
<path d="M92456 15834 c-3 -9 -6 -17 -6 -19 0 -2 77 -69 171 -151 l170 -147
15 14 14 15 -167 144 c-92 80 -172 148 -179 152 l-12 8 -6 -16z"/>
<path d="M54 14899 l-5 -9 83 -39 83 -38 118 -77 c64 -42 119 -76 122 -76 3 0
5 5 5 10 l0 11 -116 75 -116 75 -84 39 -84 39 -6 -10z"/>
<path d="M96675 13130 c-154 -181 -281 -334 -283 -342 l-4 -13 9 10 c12 12
531 622 552 648 8 10 12 19 10 21 -2 2 -130 -144 -284 -324z"/>
<path d="M2646 12871 l-6 -9 175 -156 174 -156 5 9 6 9 -175 156 -174 156 -5
-9z"/>
<path d="M2607 12833 l-5 -8 155 -140 c85 -77 166 -148 179 -158 l24 -19 0 10
c0 8 -166 163 -326 305 l-22 19 -5 -9z"/>
<path d="M26174 10563 l-10 -3 33 -243 c76 -540 166 -1164 223 -1537 56 -367
130 -895 130 -926 l0 -14 13 0 13 0 -27 213 c-14 116 -58 426 -97 687 -39 261
-98 669 -131 905 -67 471 -130 907 -134 916 -1 3 -7 4 -13 2z"/>
<path d="M98396 10522 l-5 -8 92 -90 c51 -49 124 -120 163 -158 l72 -68 5 9 6
9 -164 157 -164 157 -5 -8z"/>
<path d="M11746 7081 l-6 -9 77 -43 c43 -23 141 -81 218 -129 119 -74 514
-290 530 -290 3 0 5 6 5 13 l0 12 -202 105 c-111 58 -250 134 -308 169 -58 35
-136 82 -175 104 -38 22 -84 48 -102 58 l-31 20 -6 -10z"/>
<path d="M12182 6889 c6 -17 166 -107 487 -274 l284 -148 96 -38 96 -38 154
-26 154 -26 5 6 6 5 -10 9 c-5 4 -72 18 -149 30 l-140 22 -101 40 -101 40
-319 163 c-176 89 -349 181 -387 204 -72 45 -81 48 -75 31z"/>
<path d="M12985 6410 l-6 -9 33 -14 c18 -8 53 -21 78 -30 l45 -17 154 -25 154
-26 5 6 c11 10 -6 14 -162 41 l-159 26 -68 29 -69 28 -5 -9z"/>
<path d="M13925 6300 c-3 -5 -4 -10 -1 -10 16 0 350 -72 391 -85 58 -17 65
-18 65 -6 l0 9 -77 21 c-43 11 -134 32 -203 46 -69 13 -135 27 -147 30 l-22 5
-6 -10z"/>
<path d="M13420 6274 c0 -3 -15 -99 -34 -212 -73 -442 -107 -663 -104 -679 2
-9 36 181 76 423 40 241 76 447 78 457 l5 17 -10 0 c-6 0 -11 -3 -11 -6z"/>
<path d="M13385 5809 c-3 -19 -39 -236 -80 -484 -41 -247 -101 -603 -134 -790
-33 -187 -69 -412 -80 -500 l-20 -160 -36 -175 c-19 -96 -40 -188 -46 -205
-13 -36 -13 -40 -34 -230 l-16 -150 -56 -310 c-30 -170 -66 -368 -79 -440 -72
-389 -114 -670 -114 -758 0 -51 9 -2 20 108 l12 120 28 145 c28 145 42 221
144 810 l55 315 20 170 20 170 16 45 c9 25 31 119 50 210 l33 165 21 170 c12
94 48 325 81 515 94 548 212 1281 206 1287 -2 3 -7 -10 -11 -28z"/>
<path d="M16160 5613 c0 -5 97 -46 216 -92 l215 -83 6 6 c4 3 4 8 2 10 -8 6
-420 166 -430 166 -5 0 -9 -3 -9 -7z"/>
<path d="M25675 4830 c-277 -129 -329 -159 -430 -250 l-70 -63 -157 -191 -157
-191 9 -9 9 -9 20 24 c10 13 76 94 146 179 l127 155 81 74 c45 41 111 92 147
115 l65 42 228 104 c125 57 232 109 238 116 l10 12 -8 4 c-4 3 -120 -48 -258
-112z"/>
<path d="M24905 4130 c-7 -12 14 -25 100 -62 l80 -35 94 -12 c83 -10 113 -10
100 3 -2 2 -49 11 -104 19 l-100 14 -83 40 -83 40 -4 -7z"/>
<path d="M24872 4078 l5 -13 86 -38 86 -38 83 -14 82 -15 9 9 9 9 -74 11 -73
12 -55 21 c-30 12 -77 32 -104 45 -58 27 -59 27 -54 11z"/>
<path d="M24466 3618 c-65 -94 -120 -178 -124 -186 l-5 -15 13 5 14 4 119 173
119 173 -9 9 -9 9 -118 -172z"/>
<path d="M24103 3037 c-6 -6 -41 -64 -78 -127 -64 -107 -446 -682 -577 -869
l-59 -83 6 -6 6 -6 28 30 c40 41 497 720 594 884 44 74 87 145 94 157 l14 21
-9 6 -10 6 -9 -13z"/>
<path d="M12870 2973 c-1 -20 -83 -492 -119 -678 -44 -229 -86 -517 -94 -635
l-5 -75 8 25 c4 14 8 47 9 73 1 64 33 268 77 497 20 102 59 323 88 493 l51
307 -7 0 c-5 0 -8 -3 -8 -7z"/>
<path d="M22256 2892 l-5 -8 117 -91 c64 -50 149 -116 189 -147 l72 -56 5 9 6
9 -172 133 c-94 74 -180 140 -189 147 l-18 12 -5 -8z"/>
<path d="M31474 2842 c-17 -15 -74 -81 -126 -147 l-95 -120 -57 -97 -56 -97
-60 -142 c-61 -145 -66 -159 -52 -159 4 0 34 64 67 143 l59 142 68 114 69 113
81 102 c45 55 97 116 115 134 18 18 33 35 33 37 0 11 -17 3 -46 -23z"/>
<path d="M22984 2232 c7 -11 313 -252 320 -252 21 0 -12 31 -149 138 -85 67
-160 122 -166 122 l-10 0 5 -8z"/>
<path d="M22343 1482 l-613 -277 0 -14 0 -13 13 5 c6 3 288 130 625 282 l612
278 0 8 c0 5 -6 9 -12 9 -7 0 -289 -125 -625 -278z"/>
<path d="M22572 1532 l-412 -186 9 -9 10 -10 403 182 c222 100 407 186 411
191 l9 8 -9 5 -8 5 -413 -186z"/>
<path d="M11260 1670 l0 -9 33 -5 c17 -3 639 -51 1380 -106 l1349 -101 6 5 5
6 -6 7 -7 6 -1353 103 c-743 57 -1364 103 -1379 104 l-28 0 0 -10z"/>
<path d="M11290 1618 l0 -13 713 -54 c391 -29 793 -60 892 -67 99 -8 511 -39
915 -69 404 -31 812 -62 905 -70 94 -8 182 -15 198 -15 l27 0 0 15 0 15 -17 0
c-10 0 -110 7 -223 15 -113 9 -504 38 -870 65 -366 28 -782 59 -925 70 -143
11 -537 40 -875 65 -338 25 -643 48 -677 51 l-63 6 0 -14z"/>
<path d="M14490 1428 l0 -14 227 -17 c124 -9 229 -15 232 -12 2 3 0 9 -5 14
l-9 8 -165 12 c-91 6 -191 14 -222 18 l-58 6 0 -15z"/>
<path d="M30186 1306 c-165 -126 -188 -145 -168 -146 10 -1 361 263 361 273 2
18 -27 -1 -193 -127z"/>
<path d="M15400 1301 l0 -8 48 -6 c26 -3 125 -11 219 -18 l173 -12 7 6 c3 4 4
9 1 12 -5 6 -350 35 -410 35 l-38 0 0 -9z"/>
<path d="M16310 1286 l0 -16 43 -1 c23 0 123 -6 222 -13 l180 -13 9 8 c5 5 8
10 5 13 -2 2 -87 9 -189 15 -102 6 -204 14 -227 17 l-43 5 0 -15z"/>
<path d="M17675 1201 l-5 -10 7 -4 c5 -3 89 -10 188 -16 99 -6 199 -14 223
-17 l42 -5 0 15 0 16 -26 0 c-32 0 -301 18 -371 25 l-52 5 -6 -9z"/>
<path d="M19040 1042 l0 -11 33 -5 c17 -3 300 -23 627 -46 327 -22 619 -43
648 -46 l52 -6 0 14 0 13 -607 44 c-335 23 -641 45 -680 48 l-73 6 0 -11z"/>
<path d="M19960 1025 l0 -15 26 0 c32 0 302 -18 372 -25 l52 -5 0 15 0 15 -31
0 c-34 0 -299 17 -371 24 l-48 5 0 -14z"/>
<path d="M21273 1030 c-13 -5 -62 -16 -110 -25 l-88 -15 -102 0 -103 0 0 -15
0 -15 83 0 82 0 90 15 c50 8 109 20 133 26 l42 12 0 13 c0 8 -1 14 -2 13 -2 0
-13 -4 -25 -9z"/>
<path d="M29440 596 c-79 -90 -146 -169 -148 -175 l-4 -11 10 0 c5 0 65 64
133 142 68 79 137 157 153 175 l28 33 -14 0 -13 0 -145 -164z"/>
</g>
</svg>
