<?xml version="1.0" standalone="no"?>
<!DOCTYPE svg PUBLIC "-//W3C//DTD SVG 20010904//EN"
 "http://www.w3.org/TR/2001/REC-SVG-20010904/DTD/svg10.dtd">
<svg version="1.0" xmlns="http://www.w3.org/2000/svg"
 width="7500.000000pt" height="7500.000000pt" viewBox="0 0 7500.000000 7500.000000"
 preserveAspectRatio="xMidYMid meet">
<metadata>
Created by potrace 1.16, written by Peter Selinger 2001-2019
</metadata>
<g transform="translate(0.000000,7500.000000) scale(0.075000,-0.075000)"
fill="#000000" stroke="none">
<path d="M84553 90328 l-61 -83 -51 -104 -52 -103 5 -6 c8 -7 6 -11 71 113
l59 110 53 71 c29 39 53 74 53 77 0 20 -22 -2 -77 -75z"/>
<path d="M84131 89113 c-5 -21 -51 -217 -101 -436 l-92 -399 6 -6 c3 -3 8 -3
9 -1 2 2 49 199 104 437 l100 433 -8 5 -8 5 -10 -38z"/>
<path d="M84380 88739 l-75 -18 -115 -12 c-140 -14 -161 -24 -30 -15 l95 7
103 21 102 21 0 9 c0 4 -1 8 -2 7 -2 -1 -37 -9 -78 -20z"/>
<path d="M79385 88298 c-8 -35 -75 -431 -75 -445 0 -7 4 -13 8 -13 l9 0 38
228 c21 125 40 233 43 240 l4 12 -11 0 -11 0 -5 -22z"/>
<path d="M56060 87125 c0 -8 172 -418 179 -427 l6 -7 12 7 13 8 -89 210 -88
209 -17 3 c-9 2 -16 1 -16 -3z"/>
<path d="M88656 86634 l15 -55 -16 -82 c-8 -45 -24 -116 -35 -157 -10 -41 -17
-76 -15 -79 6 -5 9 4 39 123 15 54 29 122 32 151 l7 53 -13 51 -12 51 -8 0 -8
0 14 -56z"/>
<path d="M81252 85455 c8 -8 391 -135 395 -131 4 4 -377 136 -391 136 -5 0 -7
-2 -4 -5z"/>
<path d="M80041 84728 c-34 -101 -61 -190 -61 -199 l0 -17 18 -7 c9 -4 116
-42 237 -85 121 -43 229 -82 240 -86 l20 -7 -10 11 c-5 5 -116 47 -245 93
-129 45 -239 86 -244 90 l-8 7 62 187 c34 102 60 189 57 191 -3 3 -32 -77 -66
-178z"/>
<path d="M82918 84895 c-3 -6 -23 -70 -43 -143 l-37 -133 6 -6 c3 -4 8 -4 9
-2 9 11 78 271 75 281 l-4 12 -6 -9z"/>
<path d="M85675 84770 c-22 -6 -62 -20 -90 -32 l-50 -22 -117 -85 -118 -85 0
-14 0 -13 33 23 c17 12 68 49 112 81 43 32 104 71 135 86 l55 28 62 12 62 12
53 -7 c29 -3 118 -24 198 -45 147 -39 180 -45 180 -31 l0 7 -166 44 -166 44
-72 3 -71 3 -40 -9z"/>
<path d="M90201 84375 c3 -2 104 -32 224 -66 121 -34 227 -64 235 -67 l15 -5
-10 10 -10 11 -218 61 c-205 57 -247 67 -236 56z"/>
<path d="M94617 82138 c-77 -104 -217 -311 -214 -315 4 -3 211 285 241 335 15
25 -4 11 -27 -20z"/>
<path d="M78915 80141 c-104 -76 -191 -144 -193 -150 l-4 -11 10 0 c13 0 387
273 391 285 7 25 -28 4 -204 -124z"/>
<path d="M58866 80142 l-5 -9 103 -214 c57 -118 147 -295 199 -394 l95 -180
13 0 14 0 -2 10 c-1 6 -57 117 -125 247 -68 130 -157 307 -198 392 -69 148
-82 167 -94 148z"/>
<path d="M36490 73269 c0 -8 4 -19 9 -24 5 -6 18 -37 29 -70 l20 -60 18 -137
18 -138 8 0 8 0 0 19 c0 11 -9 82 -20 158 l-20 138 -17 45 c-9 25 -24 54 -35
65 l-18 19 0 -15z"/>
<path d="M41417 67878 c-43 -114 -130 -368 -134 -394 l-6 -34 12 0 11 0 0 20
c0 11 32 109 70 216 39 108 70 198 70 200 0 10 -18 3 -23 -8z"/>
<path d="M92395 66083 c3 -15 12 -82 20 -148 8 -66 25 -162 37 -212 l22 -93 8
0 c12 0 10 24 -12 113 l-21 82 -17 139 -17 139 -12 4 -13 5 5 -29z"/>
<path d="M26318 64912 l-218 -46 0 -13 0 -13 14 0 c8 0 86 15 173 34 87 19
184 39 216 46 l57 11 0 15 0 14 -12 -1 c-7 0 -111 -22 -230 -47z"/>
<path d="M74751 64468 c-1 -35 -8 -138 -14 -230 l-12 -168 7 0 8 0 0 38 c0 20
7 120 15 222 l14 185 -8 8 -8 8 -2 -63z"/>
<path d="M59808 64278 c-57 -98 -79 -148 -109 -242 l-31 -100 -64 -121 -64
-122 -38 -16 c-20 -8 -75 -31 -122 -51 l-85 -36 21 0 22 0 107 48 107 47 64
120 64 120 34 110 35 110 46 84 c46 87 57 126 13 49z"/>
<path d="M40255 64160 c-22 -24 -13 -26 19 -5 l23 16 129 -16 c71 -8 150 -15
177 -15 l47 0 0 11 0 12 -36 -6 -37 -6 -116 14 c-64 8 -132 15 -152 15 l-36 0
-18 -20z"/>
<path d="M77270 63993 c0 -11 58 -56 98 -77 l33 -17 10 7 11 6 -49 28 c-27 16
-55 35 -62 44 -14 16 -41 22 -41 9z"/>
<path d="M2257 63694 l-6 -6 329 -289 c181 -159 332 -289 335 -289 3 0 5 4 5
9 0 7 -618 557 -645 573 l-12 7 -6 -5z"/>
<path d="M41197 63495 c-80 -70 -95 -85 -83 -85 4 0 150 122 181 151 l9 9 -10
0 c-5 0 -49 -34 -97 -75z"/>
<path d="M41065 63438 c-5 -6 -35 -32 -65 -58 -30 -27 -53 -51 -50 -53 3 -3
34 21 70 53 36 32 63 60 60 63 -3 3 -9 0 -15 -5z"/>
<path d="M69475 63375 l-209 -62 -4 -11 -3 -11 68 20 c37 10 135 38 217 62
l149 42 5 13 4 12 -9 -1 c-4 -1 -102 -29 -218 -64z"/>
<path d="M41960 63324 c1 -22 248 -309 258 -299 3 2 -31 44 -75 92 -44 49
-101 115 -128 148 -26 33 -49 62 -51 64 -2 2 -4 0 -4 -5z"/>
<path d="M91040 63193 c-64 -65 -135 -139 -160 -165 l-44 -48 6 -5 6 -6 158
161 c88 89 161 166 162 171 l4 9 -9 0 c-4 0 -60 -53 -123 -117z"/>
<path d="M41575 63170 c3 -5 8 -10 11 -10 2 0 4 5 4 10 0 6 -5 10 -11 10 l-10
0 6 -10z"/>
<path d="M90725 63015 l-25 -24 0 -39 0 -40 15 -12 16 -13 -7 41 -7 42 17 26
17 25 37 -1 c20 -1 42 -1 47 -1 l10 1 -15 10 -15 10 -33 0 -33 0 -24 -25z"/>
<path d="M57791 62239 c-233 -186 -428 -339 -433 -339 -12 0 -496 204 -550
231 -22 11 -42 18 -45 15 -7 -7 97 -55 361 -167 115 -49 212 -92 215 -97 3 -4
15 -9 26 -9 11 -1 232 -95 490 -208 259 -114 587 -258 730 -320 143 -62 322
-140 399 -174 76 -34 141 -60 143 -57 3 3 -10 11 -28 19 -56 24 -299 133 -374
167 -38 18 -239 105 -445 194 -206 89 -493 214 -637 277 l-263 114 3 7 c1 4
187 154 412 333 226 180 417 333 425 341 l14 14 -9 -1 c-6 0 -201 -153 -434
-340z"/>
<path d="M41935 62266 l-36 -35 3 -37 3 -37 15 -5 15 -4 -12 13 -13 13 0 23 0
23 36 40 c44 49 38 52 -11 6z"/>
<path d="M88547 62008 c-24 -35 -84 -121 -132 -193 -49 -71 -150 -215 -225
-320 -75 -104 -140 -196 -145 -204 l-8 -14 10 6 c13 8 301 411 434 607 118
173 122 180 115 180 -3 0 -25 -28 -49 -62z"/>
<path d="M50630 62030 c0 -8 332 -159 339 -153 8 6 -8 14 -173 88 l-166 73 0
-8z"/>
<path d="M57320 61861 c0 -9 483 -222 489 -215 2 2 2 6 -1 9 -4 4 -330 148
-455 200 l-33 14 0 -8z"/>
<path d="M58305 61431 c13 -13 389 -180 394 -175 2 2 2 5 0 7 -4 4 -313 141
-369 164 l-35 15 10 -11z"/>
<path d="M89662 61025 c9 -9 420 -156 425 -152 5 5 -13 12 -231 92 -168 61
-207 73 -194 60z"/>
<path d="M90510 60654 c0 -12 278 -348 292 -353 7 -2 -19 34 -57 80 -104 125
-217 263 -227 274 l-8 9 0 -10z"/>
<path d="M58642 60190 c-18 -4 -36 -10 -39 -14 l-6 -6 38 3 37 2 34 -60 c53
-95 264 -558 374 -823 23 -56 44 -101 47 -99 5 6 -128 327 -229 552 -78 173
-215 456 -221 454 -1 -1 -17 -5 -35 -9z"/>
<path d="M61911 60188 c-1 -3 10 -57 23 -120 14 -62 48 -228 76 -368 56 -281
58 -290 69 -290 l7 0 -42 203 c-92 439 -114 543 -123 562 -5 11 -10 17 -10 13z"/>
<path d="M86559 59764 c-90 -69 -166 -131 -168 -137 l-4 -12 14 11 c8 6 85 66
172 133 141 110 166 131 153 131 -2 0 -77 -57 -167 -126z"/>
<path d="M62293 59486 l-191 -41 -9 -9 -8 -9 25 6 c14 3 104 23 200 43 96 20
182 40 190 45 l15 8 -15 -1 c-8 0 -101 -19 -207 -42z"/>
<path d="M61588 59337 l-427 -92 -8 -9 -8 -8 20 5 c11 4 213 47 449 97 236 49
432 92 434 95 12 11 -52 -1 -460 -88z"/>
<path d="M59900 59330 c-102 -20 -203 -41 -225 -45 l-40 -8 12 -4 12 -4 233
46 c128 26 235 49 237 51 10 10 -56 -1 -229 -36z"/>
<path d="M59140 59184 c0 -8 102 -346 115 -383 3 -8 7 -12 10 -10 4 5 -112
389 -120 398 -3 2 -5 0 -5 -5z"/>
<path d="M49142 58824 c-84 -113 -156 -213 -159 -222 -3 -9 67 79 156 197 138
184 172 233 159 231 -2 -1 -72 -93 -156 -206z"/>
<path d="M61210 58815 c0 -11 70 -344 76 -364 2 -8 6 -12 9 -10 5 5 -71 368
-79 376 l-6 6 0 -8z"/>
<path d="M63940 58480 c0 -15 107 -546 151 -750 16 -74 50 -238 76 -364 26
-127 48 -225 51 -218 3 11 -117 627 -158 807 -11 50 -41 189 -65 309 -40 198
-55 255 -55 216z"/>
<path d="M61225 58395 c-33 -8 -215 -46 -405 -85 -355 -72 -376 -77 -368 -85
2 -3 166 29 364 70 464 97 504 106 504 111 0 7 -31 3 -95 -11z"/>
<path d="M49448 58303 l13 -5 6 6 6 6 -19 -1 -19 -1 13 -5z"/>
<path d="M91739 58107 c-19 -24 -100 -105 -181 -181 -82 -76 -148 -142 -148
-148 l0 -11 30 24 c66 53 278 257 313 301 l37 47 -9 5 -9 6 -33 -43z"/>
<path d="M49942 58054 c3 -3 70 -37 148 -75 l142 -69 99 -29 99 -29 0 8 0 7
-97 28 -98 27 -137 69 c-76 38 -143 69 -150 69 l-11 0 5 -6z"/>
<path d="M63994 58003 c4 -16 44 -215 90 -443 110 -546 280 -1338 284 -1319 1
8 -38 204 -87 435 -49 230 -92 435 -96 454 -3 19 -44 230 -92 468 l-86 432 -9
0 -10 0 6 -27z"/>
<path d="M79469 56591 c-37 -28 -80 -48 -165 -76 l-77 -25 -84 -7 -84 -6 -4
-7 -5 -7 73 4 72 5 55 14 c30 8 84 26 120 40 l65 24 35 30 c38 32 37 41 -1 11z"/>
<path d="M78916 56481 l-6 -9 15 -12 15 -13 16 -54 16 -55 -5 -23 -4 -24 15
-6 15 -5 -5 64 -6 64 -23 41 c-23 41 -33 49 -43 32z"/>
<path d="M64430 56242 l35 -17 3 -33 3 -34 -17 -19 -17 -19 -33 0 -33 0 -6 10
c-3 6 -12 10 -18 10 l-12 -1 24 -20 24 -20 31 7 31 6 23 21 23 22 -6 35 -6 35
-21 18 -20 17 -22 0 -21 0 35 -18z"/>
<path d="M64073 56157 c-139 -28 -253 -54 -253 -58 0 -7 518 95 527 105 l6 6
-14 -1 c-8 -1 -128 -24 -266 -52z"/>
<path d="M78921 56173 c-5 -21 -17 -66 -26 -101 l-16 -62 11 -108 c6 -59 13
-115 16 -124 l5 -18 11 0 10 0 -6 33 c-3 17 -9 75 -12 127 l-7 96 22 91 c24
104 24 103 11 103 l-9 0 -10 -37z"/>
<path d="M63730 56130 l0 -10 13 0 c8 0 22 -9 32 -20 10 -11 22 -20 26 -20 l9
0 -11 24 -11 24 -22 6 c-30 8 -36 7 -36 -4z"/>
<path d="M63017 55900 c4 -17 23 -29 23 -16 0 12 -13 36 -20 36 l-8 0 5 -20z"/>
<path d="M36430 55814 c-47 -19 -114 -41 -150 -50 l-65 -15 -40 6 c-22 4 -98
25 -168 47 l-128 40 -6 -6 -6 -6 14 -5 c8 -2 72 -23 144 -45 l129 -40 51 0 50
0 50 14 c61 17 206 74 220 87 l9 9 -9 0 c-6 -1 -48 -17 -95 -36z"/>
<path d="M46945 55777 l-5 -12 50 -164 c28 -90 60 -181 71 -202 l19 -39 10 0
c14 0 15 -1 -39 154 -26 77 -56 171 -66 209 l-18 67 -9 0 c-5 0 -11 -6 -13
-13z"/>
<path d="M61840 55730 l0 -10 25 0 25 0 0 10 0 10 -25 0 -25 0 0 -10z"/>
<path d="M61806 55713 c-9 -9 -7 -33 3 -33 5 0 11 7 14 15 l6 14 -8 5 c-5 3
-11 3 -15 -1z"/>
<path d="M61945 55687 l-7 -18 6 -6 6 -6 6 6 c3 3 4 14 1 24 l-4 18 -8 -18z"/>
<path d="M25957 55613 l-8 -23 16 -27 17 -28 249 -172 c137 -94 249 -168 249
-164 0 4 -107 81 -237 171 -131 90 -246 173 -255 184 l-17 21 -3 30 -3 30 -8
-22z"/>
<path d="M53202 54903 c-15 -25 -78 -123 -140 -216 -62 -93 -112 -172 -110
-177 3 -7 150 210 263 388 l34 52 -10 0 c-5 0 -22 -21 -37 -47z"/>
<path d="M50325 54880 l-6 -10 13 1 c7 0 22 4 33 9 l20 9 -27 0 -27 1 -6 -10z"/>
<path d="M52650 54683 c1 -10 290 -206 296 -200 2 2 -63 50 -146 106 -82 56
-150 98 -150 94z"/>
<path d="M51885 54403 c-165 -215 -178 -233 -168 -232 4 0 24 21 43 47 20 26
85 111 144 190 60 78 107 144 105 147 -3 2 -59 -66 -124 -152z"/>
<path d="M51940 53460 c0 -13 11 -13 30 0 l15 10 -22 0 -23 0 0 -10z"/>
<path d="M50631 53364 c-96 -46 -172 -87 -169 -89 5 -5 358 164 358 171 0 9
-20 0 -189 -82z"/>
<path d="M51927 53414 l-6 -7 64 -78 c81 -98 158 -224 248 -404 l70 -140 4 11
4 12 -61 122 c-33 68 -84 164 -112 214 l-52 91 -74 93 c-41 50 -75 92 -77 92
-1 0 -5 -3 -8 -6z"/>
<path d="M35860 53303 l0 -10 73 -6 c39 -4 141 -10 225 -13 l152 -7 0 10 0 10
-152 7 c-84 3 -186 9 -225 13 l-73 6 0 -10z"/>
<path d="M77860 53288 c1 -7 22 -100 48 -207 l47 -194 14 -5 14 -5 -5 14 c-3
8 -27 103 -53 212 l-47 197 -9 0 c-5 0 -9 -6 -9 -12z"/>
<path d="M52471 53236 l-33 -34 -94 -7 -94 -7 0 -7 0 -7 98 9 97 8 35 34 c18
19 32 37 29 40 -3 2 -20 -11 -38 -29z"/>
<path d="M49155 53122 c-150 -76 -221 -120 -211 -129 2 -3 24 8 48 25 24 16
104 60 178 97 143 71 146 73 139 79 -2 2 -72 -30 -154 -72z"/>
<path d="M52160 53190 c-8 -5 -12 -11 -9 -14 2 -3 11 -1 19 4 8 5 12 11 9 14
-2 3 -11 1 -19 -4z"/>
<path d="M74750 52906 c0 -3 16 -69 35 -148 20 -79 38 -167 42 -195 l6 -53 10
0 10 0 -6 53 c-4 28 -20 108 -37 177 -16 69 -32 135 -35 148 l-5 22 -10 0 c-6
0 -10 -2 -10 -4z"/>
<path d="M12734 52782 c-18 -26 -64 -93 -103 -149 l-72 -103 13 0 13 1 80 116
c44 63 88 128 98 143 l18 28 -8 5 -8 5 -31 -46z"/>
<path d="M26794 52688 c33 -46 123 -185 158 -243 l36 -60 12 -105 12 -105 -6
-150 -5 -150 10 40 11 40 -6 190 -5 190 -9 38 -10 37 -73 118 c-79 127 -119
182 -133 182 l-8 0 16 -22z"/>
<path d="M81980 52412 c0 -4 46 -20 103 -36 56 -16 155 -49 220 -73 65 -25
121 -43 123 -40 6 6 -203 82 -334 121 -62 19 -112 31 -112 28z"/>
<path d="M78040 52393 c0 -15 152 -428 161 -437 l9 -10 0 15 c0 7 -35 110 -77
227 l-77 212 -8 0 c-4 0 -8 -3 -8 -7z"/>
<path d="M48403 52353 c-7 -2 -13 -9 -13 -15 0 -14 192 -408 199 -408 3 0 12
4 19 8 l13 9 -100 206 c-55 114 -101 207 -103 206 -2 0 -9 -3 -15 -6z"/>
<path d="M74947 52124 l-6 -6 61 -122 c88 -177 310 -576 319 -576 5 0 9 2 9 5
0 3 -62 117 -137 253 -75 136 -159 293 -186 350 -26 56 -50 102 -51 102 -2 0
-5 -3 -9 -6z"/>
<path d="M89127 51968 c6 -7 20 -44 33 -83 23 -72 111 -317 117 -324 2 -2 5
-2 8 0 2 3 -15 56 -38 119 -24 63 -53 151 -66 195 -24 82 -36 105 -53 105
l-10 0 9 -12z"/>
<path d="M22660 51192 l0 -10 23 -6 c12 -4 115 -9 230 -13 l207 -6 0 10 0 10
-207 6 c-115 4 -218 9 -230 13 l-23 6 0 -10z"/>
<path d="M12313 50598 c4 -46 10 -156 13 -245 l7 -163 10 0 10 0 -7 163 c-3
89 -9 199 -13 245 l-6 82 -10 0 -10 0 6 -82z"/>
<path d="M33610 50387 c0 -20 61 -392 65 -396 3 -2 5 2 5 10 -1 30 -59 381
-64 387 l-6 5 0 -6z"/>
<path d="M33575 50355 c2 -16 16 -109 31 -205 15 -96 29 -169 32 -162 5 16
-47 352 -59 377 l-9 20 5 -30z"/>
<path d="M31523 49857 l-183 -10 0 -10 0 -10 158 7 c86 4 176 9 200 13 l42 5
0 9 0 9 -17 -2 c-10 -1 -100 -6 -200 -11z"/>
<path d="M15468 49822 c-1 -4 -69 -54 -151 -111 l-147 -103 5 -8 5 -9 138 96
c149 103 172 122 172 135 0 10 -17 11 -22 0z"/>
<path d="M39656 49661 c11 -10 245 -65 362 -84 l82 -14 0 7 0 7 -77 12 c-43 7
-143 28 -222 47 -158 38 -159 38 -145 25z"/>
<path d="M35974 49510 c2 -14 19 -116 37 -227 l33 -203 8 0 8 0 -5 23 c-2 12
-18 105 -35 207 -17 102 -35 194 -41 205 l-9 20 4 -25z"/>
<path d="M33723 49450 c4 -19 18 -111 32 -205 28 -189 34 -219 40 -213 6 6
-62 438 -70 446 l-8 7 6 -35z"/>
<path d="M33763 49465 c3 -11 18 -110 33 -220 l27 -200 10 -10 9 -10 -5 20
c-3 11 -18 110 -33 220 l-27 200 -10 10 -9 10 5 -20z"/>
<path d="M37964 49073 c2 -10 20 -109 38 -220 l32 -203 9 0 8 0 -5 18 c-2 9
-20 108 -38 220 l-32 202 -9 0 -8 0 5 -17z"/>
<path d="M31650 48219 c-74 -3 -159 -7 -189 -8 l-54 -1 6 -6 6 -6 195 7 196 7
0 9 0 9 -12 -2 c-7 -1 -74 -5 -148 -9z"/>
<path d="M37830 47409 c-305 -13 -754 -39 -759 -44 -7 -7 68 -6 229 5 80 5
318 16 530 25 212 9 387 19 389 21 6 6 -155 3 -389 -7z"/>
<path d="M45735 46930 c-88 -26 -193 -57 -233 -69 -41 -13 -72 -24 -69 -27 6
-6 459 126 472 137 l9 9 -9 -1 c-6 0 -82 -22 -170 -49z"/>
<path d="M35925 46831 c3 -68 5 -141 5 -163 l0 -38 8 0 7 0 -3 87 c-2 49 -8
122 -12 163 l-9 75 4 -124z"/>
<path d="M82445 46684 c-44 -7 -101 -19 -126 -27 l-46 -14 -57 -43 c-49 -37
-68 -60 -50 -60 3 0 31 20 62 44 l57 43 90 21 c50 12 120 24 158 28 l67 7 0 8
0 9 -37 -1 c-21 -1 -74 -7 -118 -15z"/>
<path d="M44410 45666 c0 -128 3 -254 6 -280 l7 -46 12 0 12 0 -8 43 -8 42 -1
238 0 237 -10 0 -10 0 0 -234z"/>
<path d="M52333 44444 l-12 -5 76 -157 c42 -86 132 -274 200 -417 69 -143 126
-262 128 -263 2 -2 10 0 19 5 l15 8 -150 315 c-82 173 -171 361 -197 417 l-47
102 -10 0 c-5 0 -15 -3 -22 -5z"/>
<path d="M52451 44114 l1 -19 5 13 5 13 -6 6 -6 6 1 -19z"/>
<path d="M41050 43492 l0 -10 24 -6 c14 -3 51 -22 84 -42 l60 -35 59 -62 59
-62 24 -42 c13 -24 28 -43 33 -43 l8 0 -32 58 -32 57 -51 53 -51 53 -70 38
c-38 22 -80 42 -92 46 l-23 6 0 -9z"/>
<path d="M30914 41633 c-34 -53 -110 -126 -206 -201 l-98 -75 0 -14 0 -13 93
71 c50 40 111 91 135 113 42 39 112 127 112 140 0 15 -19 4 -36 -21z"/>
<path d="M57748 40923 c56 -2 148 -2 205 0 l102 3 -205 0 -205 0 103 -3z"/>
<path d="M84985 40118 c-93 -60 -177 -113 -185 -118 -8 -5 -13 -11 -10 -13 5
-5 354 213 374 233 l10 10 -9 -1 c-6 0 -86 -50 -180 -111z"/>
<path d="M52145 39819 c-19 -80 -153 -804 -150 -807 3 -3 7 1 9 9 11 35 155
813 151 817 -2 2 -7 -6 -10 -19z"/>
<path d="M60290 38450 c0 -5 5 -10 10 -10 l10 0 0 -16 0 -15 -47 -67 c-26 -37
-87 -111 -136 -164 -49 -54 -85 -98 -79 -98 14 0 171 176 230 257 l52 73 0 14
0 15 -20 11 -20 11 0 -11z"/>
<path d="M60222 38356 c-29 -42 -78 -104 -110 -139 -31 -34 -67 -75 -81 -91
l-26 -29 12 4 c16 6 146 152 210 237 l54 73 -3 10 -3 10 -53 -75z"/>
<path d="M90861 37774 l1 -19 5 13 5 13 -6 6 -6 6 1 -19z"/>
<path d="M92790 37634 c0 -3 5 -15 11 -26 l11 -20 -11 -11 c-14 -14 -14 -27
-1 -27 5 0 14 9 20 19 l10 20 -10 25 -10 26 -10 0 c-5 0 -10 -3 -10 -6z"/>
<path d="M84894 35593 c-17 -10 -39 -23 -50 -30 l-19 -11 6 -6 5 -5 37 24 36
25 20 0 c10 0 27 -3 35 -6 l16 -6 37 -67 c48 -88 96 -160 107 -161 l8 0 -15
23 c-9 12 -39 63 -67 114 l-50 92 -22 15 c-29 20 -46 20 -84 -1z"/>
<path d="M85150 35375 c0 -3 26 -40 58 -82 31 -43 90 -133 131 -201 41 -67 76
-120 79 -118 6 7 -161 279 -215 349 -41 53 -53 65 -53 52z"/>
<path d="M85795 34690 c-77 -49 -141 -94 -144 -101 l-3 -11 10 3 c5 2 75 44
155 93 l146 90 -5 8 c-8 13 -13 11 -159 -82z"/>
<path d="M77867 33923 c-11 -196 -16 -369 -11 -347 3 12 11 118 18 235 l13
214 -7 8 -7 8 -6 -118z"/>
<path d="M34300 32508 c0 -7 9 -26 20 -43 l20 -30 0 13 c0 15 -28 72 -35 72
-3 0 -5 -6 -5 -12z"/>
<path d="M98809 31735 l-26 -14 -6 -23 -6 -22 6 -6 6 -5 4 11 c2 6 10 19 17
29 l13 18 31 1 c34 1 42 10 16 20 -21 8 -25 7 -55 -9z"/>
<path d="M11952 28228 l5 -13 684 -97 c376 -53 699 -99 717 -102 l32 -5 0 15
c0 8 -3 14 -7 14 -4 0 -325 45 -714 100 -389 55 -710 100 -714 100 l-7 0 4
-12z"/>
<path d="M15310 27700 l0 -10 23 -5 c12 -2 118 -19 236 -36 l213 -31 11 11 10
10 -24 5 c-32 7 -441 66 -456 66 l-13 0 0 -10z"/>
<path d="M95310 26779 c-96 -71 -177 -134 -179 -140 -3 -9 325 226 359 257
l14 14 -9 -1 c-6 0 -89 -58 -185 -130z"/>
<path d="M90500 24839 c52 -6 162 -21 244 -35 82 -13 152 -22 154 -19 8 8 -16
13 -158 35 l-135 21 -100 4 -100 4 95 -10z"/>
<path d="M90330 19929 c0 -6 26 -105 57 -220 l57 -209 9 9 10 10 -53 193 c-29
106 -55 201 -58 211 -5 19 -22 24 -22 6z"/>
</g>
</svg>
