<?xml version="1.0" standalone="no"?>
<!DOCTYPE svg PUBLIC "-//W3C//DTD SVG 20010904//EN"
 "http://www.w3.org/TR/2001/REC-SVG-20010904/DTD/svg10.dtd">
<svg version="1.0" xmlns="http://www.w3.org/2000/svg"
 width="7500.000000pt" height="7500.000000pt" viewBox="0 0 7500.000000 7500.000000"
 preserveAspectRatio="xMidYMid meet">
<metadata>
Created by potrace 1.16, written by Peter Selinger 2001-2019
</metadata>
<g transform="translate(0.000000,7500.000000) scale(0.075000,-0.075000)"
fill="#000000" stroke="none">
<path d="M26000 98991 l0 -10 97 -53 97 -53 286 -191 c157 -105 291 -194 298
-198 l12 -7 0 9 c0 11 -543 377 -635 427 -38 21 -89 49 -112 62 l-43 25 0 -11z"/>
<path d="M84333 98843 l-173 -3 0 -10 0 -10 53 0 c28 0 116 3 195 7 l142 6 0
9 0 8 -22 -2 c-13 -1 -101 -4 -195 -5z"/>
<path d="M89750 97993 c0 -10 -11 -112 -25 -228 -14 -115 -25 -211 -25 -212 0
-2 6 -3 13 -3 l13 0 23 213 c12 116 25 220 28 230 l4 17 -15 0 -16 0 0 -17z"/>
<path d="M58300 97793 c0 -10 236 -158 285 -179 20 -8 42 -13 48 -11 l11 3
-65 30 c-35 17 -103 56 -150 86 -48 31 -96 61 -108 67 l-21 12 0 -8z"/>
<path d="M28960 96681 c0 -17 351 -281 374 -281 21 0 -5 24 -86 80 -51 35
-135 97 -185 137 -95 75 -103 80 -103 64z"/>
<path d="M87470 96380 l-85 -6 125 -1 c69 0 168 3 220 7 l95 7 -135 0 c-74 -1
-173 -4 -220 -7z"/>
<path d="M86933 96239 l-41 -42 -83 2 c-46 1 -93 3 -104 3 -11 1 -32 1 -47 0
l-28 -2 0 -7 0 -8 134 0 134 0 22 20 c22 20 65 75 58 75 -2 0 -22 -19 -45 -41z"/>
<path d="M16265 95910 c55 -29 152 -79 215 -112 63 -34 111 -56 105 -51 -14
15 -365 199 -395 208 -14 4 20 -16 75 -45z"/>
<path d="M17785 94934 c11 -9 58 -43 105 -77 47 -34 125 -92 173 -130 48 -38
90 -67 93 -64 10 10 -357 287 -380 287 l-11 -1 20 -15z"/>
<path d="M31606 94722 l-5 -8 176 -130 c97 -71 182 -133 190 -137 l13 -8 0 11
0 10 -132 98 c-73 53 -156 114 -185 135 l-51 38 -6 -9z"/>
<path d="M98700 94663 c0 -4 19 -19 43 -32 23 -13 97 -71 165 -129 68 -57 125
-102 128 -100 7 8 -236 210 -288 241 l-48 28 0 -8z"/>
<path d="M98131 94586 c8 -7 333 -136 344 -136 12 1 -325 140 -339 140 -5 0
-7 -2 -5 -4z"/>
<path d="M98471 94406 c8 -9 410 -166 422 -166 6 1 -82 39 -198 85 -187 76
-238 94 -224 81z"/>
<path d="M98915 94273 c14 -14 415 -173 415 -165 0 6 -337 145 -405 168 l-20
7 10 -10z"/>
<path d="M99865 93895 c61 -24 117 -44 125 -44 l15 0 -20 9 c-74 31 -207 80
-218 79 -6 0 38 -20 98 -44z"/>
<path d="M87817 93372 c-40 -42 -33 -51 8 -12 l36 35 79 -81 79 -80 14 8 c8 4
27 8 43 10 l29 2 38 -13 c21 -7 41 -11 44 -8 2 3 -20 13 -50 23 l-54 17 -30
-11 -30 -10 -74 74 -73 74 -16 0 -16 0 -27 -28z"/>
<path d="M87715 93208 c-77 -79 -160 -165 -185 -193 -25 -27 40 33 143 135
l187 185 74 -74 74 -73 36 13 36 13 43 -11 c49 -14 62 -9 21 8 l-29 12 -37 0
-38 0 -13 -11 -13 -11 -74 74 c-41 41 -77 75 -80 75 -3 0 -68 -64 -145 -142z"/>
<path d="M86810 92736 c0 -2 54 -39 121 -81 l120 -78 35 34 c19 18 34 37 34
43 l0 10 -33 -32 c-18 -18 -37 -32 -42 -32 -6 0 -57 32 -115 70 -96 64 -120
77 -120 66z"/>
<path d="M22390 92723 l0 -8 213 -56 212 -56 9 5 9 5 -14 7 c-16 9 -401 110
-418 110 -6 0 -11 -3 -11 -7z"/>
<path d="M23270 92480 l0 -9 73 -22 c39 -12 136 -41 215 -64 l143 -42 -4 11
-4 11 -209 62 c-241 72 -214 66 -214 53z"/>
<path d="M95197 91813 c-63 -76 -134 -156 -156 -178 l-41 -39 0 -14 0 -14 39
34 c22 18 77 78 122 133 46 55 102 123 126 152 l44 51 -10 6 -9 6 -115 -137z"/>
<path d="M82275 91665 c-104 -57 -191 -109 -193 -114 l-4 -11 13 0 c6 0 64 29
128 64 64 35 151 82 194 105 l77 42 0 10 0 9 -12 -1 c-7 -1 -98 -48 -203 -104z"/>
<path d="M26313 91563 l7 -6 7 6 6 7 -13 0 -13 0 6 -7z"/>
<path d="M26353 91553 l7 -6 7 6 6 7 -13 0 -13 0 6 -7z"/>
<path d="M26383 91543 l7 -6 7 6 6 7 -13 0 -13 0 6 -7z"/>
<path d="M26453 91523 l7 -6 7 6 6 7 -13 0 -13 0 6 -7z"/>
<path d="M26523 91503 l7 -6 7 6 6 7 -13 0 -13 0 6 -7z"/>
<path d="M30755 90141 l30 -30 130 -51 c72 -29 137 -55 145 -58 l15 -5 -10 11
c-5 6 -68 34 -140 62 l-130 52 -26 24 c-14 13 -29 24 -34 24 l-10 0 30 -29z"/>
<path d="M31472 89885 c2 -3 87 -17 187 -31 l182 -27 12 13 12 13 -16 -6 -17
-6 -163 24 c-167 25 -206 29 -197 20z"/>
<path d="M94222 89391 c95 -93 175 -167 178 -164 6 6 -331 332 -343 333 -4 0
70 -76 165 -169z"/>
<path d="M86370 88979 l75 -10 200 -3 200 -3 125 -22 c69 -12 160 -31 204 -42
43 -11 80 -18 83 -15 10 9 -163 50 -332 77 l-120 20 -145 -2 c-80 -2 -194 0
-255 3 l-110 7 75 -10z"/>
<path d="M86784 88932 l5 -9 107 -13 107 -12 120 -29 c67 -15 123 -26 125 -24
10 10 -215 61 -333 75 -49 6 -101 13 -113 16 l-24 5 6 -9z"/>
<path d="M85196 88668 c-180 -347 -448 -889 -442 -895 2 -2 70 128 150 289 80
161 212 420 292 576 80 156 144 285 141 288 -3 3 -66 -113 -141 -258z"/>
<path d="M78535 88650 c-3 -5 -5 -10 -2 -10 2 0 158 -54 348 -121 189 -66 427
-149 529 -184 102 -35 243 -84 313 -109 l129 -46 -4 12 -4 12 -220 78 c-346
124 -1071 378 -1077 378 -3 0 -9 -4 -12 -10z"/>
<path d="M85067 88498 c-62 -112 -158 -310 -153 -315 3 -3 48 81 100 186 96
190 119 247 53 129z"/>
<path d="M78970 88442 l0 -8 198 -69 c108 -37 201 -71 205 -75 l9 -8 -42 -238
c-87 -499 -190 -1120 -190 -1146 l0 -28 9 0 8 0 116 701 116 701 10 12 10 12
-8 13 -9 14 -10 -7 -10 -6 -198 70 c-207 73 -214 75 -214 62z"/>
<path d="M79440 88304 c0 -3 -36 -218 -81 -477 l-80 -470 9 -9 8 -8 78 457
c43 252 80 470 83 486 l6 27 -12 0 c-6 0 -11 -3 -11 -6z"/>
<path d="M75357 87972 l-157 -86 9 -9 9 -9 153 83 c178 95 165 87 153 98 l-9
8 -158 -85z"/>
<path d="M98022 87962 c113 -186 224 -362 231 -362 4 0 -23 48 -60 108 -36 59
-91 148 -122 199 -31 51 -60 92 -64 93 l-8 0 23 -38z"/>
<path d="M36220 87403 c1 -12 412 -334 418 -328 3 3 3 7 1 8 -133 109 -410
327 -414 327 -3 0 -5 -3 -5 -7z"/>
<path d="M83695 87378 c-2 -7 -27 -116 -56 -243 -28 -126 -53 -233 -55 -237
l-4 -7 -53 19 c-28 10 -205 72 -391 139 -187 66 -342 119 -345 116 -11 -12 24
-27 229 -99 118 -41 289 -102 380 -135 l165 -59 3 -19 3 -19 -41 -185 c-23
-101 -72 -308 -109 -459 l-69 -275 -180 -371 c-99 -204 -207 -422 -239 -485
-32 -63 -59 -117 -61 -121 l-4 -8 16 0 15 0 70 143 c38 78 135 277 216 442 81
165 158 329 171 365 l25 65 69 280 c38 154 83 345 100 425 17 80 36 160 41
178 l11 32 9 -6 10 -6 -5 34 -6 33 53 238 54 237 -9 0 c-5 0 -11 -6 -13 -12z"/>
<path d="M83745 87353 c-3 -15 -31 -133 -60 -263 -30 -129 -65 -282 -79 -340
-14 -58 -54 -238 -91 -400 -36 -162 -77 -334 -90 -382 l-25 -86 -74 -150 c-41
-82 -141 -286 -221 -453 -81 -167 -156 -319 -167 -337 l-21 -33 11 -11 11 -11
152 309 c83 170 193 397 244 504 l93 195 35 145 c80 326 89 368 236 1020 33
146 62 277 66 293 l7 27 -10 0 -10 0 -7 -27z"/>
<path d="M84277 86933 c-20 -48 -41 -94 -46 -101 l-8 -13 -74 21 c-75 20 -96
24 -87 15 7 -7 144 -45 161 -45 l14 0 42 96 c23 52 41 100 39 105 l-3 10 -38
-88z"/>
<path d="M36940 86661 c0 -4 69 -55 154 -114 85 -59 156 -112 158 -116 2 -4
50 -37 108 -73 l105 -64 104 -47 c57 -26 106 -45 108 -43 2 1 -50 30 -114 64
-145 75 -255 143 -463 289 -88 61 -160 108 -160 104z"/>
<path d="M85945 86480 c-119 -55 -252 -126 -289 -153 l-19 -14 9 -6 10 -6 85
47 c46 26 136 71 199 101 125 59 134 65 129 78 l-4 9 -120 -56z"/>
<path d="M72015 86201 l-110 -48 -102 -28 -103 -28 0 -8 c0 -4 4 -10 8 -13 l8
-5 102 30 c57 16 152 51 213 77 l111 47 0 10 c-1 18 -17 14 -127 -34z"/>
<path d="M57030 85840 l0 -10 53 0 52 0 159 -30 c146 -27 179 -30 164 -15 -3
3 -77 19 -164 35 l-159 30 -52 0 -53 0 0 -10z"/>
<path d="M64251 85789 c-101 -10 -186 -21 -189 -24 -3 -3 -2 -8 1 -12 l7 -7
193 18 c105 9 209 20 230 23 l37 6 0 8 0 9 -47 -1 c-27 -1 -131 -10 -232 -20z"/>
<path d="M56710 85598 c0 -6 39 -110 86 -230 l86 -218 15 0 15 0 -6 18 c-4 9
-44 113 -89 229 l-82 213 -12 0 -13 0 0 -12z"/>
<path d="M61310 85291 l0 -9 63 -6 c34 -3 125 -7 202 -10 l140 -5 40 8 40 8
-15 6 c-8 3 -117 8 -242 12 l-228 6 0 -10z"/>
<path d="M82500 85072 c0 -9 350 -126 356 -119 3 3 -76 32 -175 65 -100 33
-181 57 -181 54z"/>
<path d="M88285 84923 c13 -12 452 -136 467 -131 6 2 -92 33 -218 68 -126 35
-236 65 -244 68 l-15 5 10 -10z"/>
<path d="M82831 84800 l-34 -121 7 -6 c9 -9 10 -7 44 114 34 118 37 133 24
133 l-7 0 -34 -120z"/>
<path d="M82697 84633 l-36 -28 -5 -20 c-9 -30 -7 -74 3 -93 l9 -17 -20 -60
-19 -60 -2 -95 -2 -95 8 -37 8 -38 11 0 10 0 -8 58 -9 57 3 70 3 70 20 63 21
63 -12 28 -11 28 6 25 7 26 26 25 27 24 24 6 24 6 33 -14 32 -13 13 -24 13
-23 -2 -35 -2 -35 -30 -27 -30 -28 -25 0 -25 0 0 -14 0 -15 38 6 37 6 27 25
27 25 7 42 6 43 -16 34 -17 35 -35 16 -35 17 -33 0 -33 0 -36 -27z"/>
<path d="M80080 84522 c0 -9 419 -156 426 -150 2 3 -51 24 -118 48 -68 24
-165 58 -215 76 l-93 33 0 -7z"/>
<path d="M80066 84482 c5 -5 95 -38 199 -75 105 -36 199 -68 210 -73 l20 -7
-10 10 c-9 10 -406 153 -422 153 -4 0 -3 -4 3 -8z"/>
<path d="M80961 84211 c25 -16 419 -150 419 -143 0 6 -359 133 -420 149 l-15
5 16 -11z"/>
<path d="M78405 83583 c-38 -109 -71 -204 -73 -212 l-5 -14 13 5 14 4 22 65
c12 35 44 128 72 207 l50 142 -12 0 -12 0 -69 -197z"/>
<path d="M15062 83199 l4 -13 125 -70 c68 -39 154 -90 191 -113 37 -24 70 -43
73 -43 17 0 -1 21 -37 45 -37 25 -270 159 -337 194 l-23 13 4 -13z"/>
<path d="M76509 82565 c-67 -108 -119 -198 -117 -201 5 -5 232 348 244 380 17
45 -16 -2 -127 -179z"/>
<path d="M76555 82564 c-61 -98 -116 -188 -123 -201 l-13 -23 8 0 c4 0 61 86
126 191 l118 191 -3 10 -4 10 -109 -178z"/>
<path d="M92502 82418 c-63 -88 -112 -162 -109 -164 6 -6 229 306 225 316 -2
4 -54 -65 -116 -152z"/>
<path d="M92542 82405 c-85 -119 -134 -198 -110 -175 5 4 141 194 207 288 l22
32 -8 0 c-4 0 -54 -65 -111 -145z"/>
<path d="M75208 81708 l-106 -313 -17 -100 c-8 -55 -18 -112 -21 -127 l-6 -28
9 0 9 0 19 128 19 127 83 245 c46 135 95 275 108 313 l25 67 -8 0 c-4 0 -55
-141 -114 -312z"/>
<path d="M96133 81378 c-66 -90 -123 -169 -128 -177 l-8 -14 10 6 c16 10 255
338 250 343 -3 3 -58 -68 -124 -158z"/>
<path d="M95845 80904 c-242 -338 -464 -648 -493 -689 -30 -41 -50 -75 -45
-75 4 0 60 74 124 163 63 89 275 385 470 657 195 272 365 510 377 528 l23 32
-8 0 c-4 0 -206 -277 -448 -616z"/>
<path d="M95385 80328 c-61 -83 -112 -156 -114 -162 l-3 -11 15 15 c27 27 227
310 219 310 -4 0 -57 -68 -117 -152z"/>
<path d="M72232 80180 l4 -13 228 -54 227 -55 6 6 c4 3 4 8 2 11 -3 2 -102 27
-220 55 -117 28 -222 53 -233 56 l-18 6 4 -12z"/>
<path d="M72670 80015 c0 -3 63 -93 141 -200 122 -169 159 -213 159 -189 0 3
-63 93 -141 200 -121 167 -159 212 -159 189z"/>
<path d="M43045 79885 l-70 -33 -33 -34 -33 -35 -110 -269 c-61 -148 -121
-295 -134 -326 l-24 -58 7 0 c4 0 65 142 136 315 l128 315 39 44 39 44 65 27
65 28 0 9 c0 4 -1 8 -2 7 -2 0 -34 -16 -73 -34z"/>
<path d="M59110 79639 c0 -6 47 -102 106 -214 l105 -204 15 6 14 5 -107 209
-108 209 -12 0 -13 0 0 -11z"/>
<path d="M70687 78934 c-31 -71 -106 -243 -167 -383 l-111 -254 -4 -46 -5 -46
18 65 19 65 157 354 c86 195 155 359 153 364 l-3 10 -57 -129z"/>
<path d="M70516 78642 c-3 -5 -37 -82 -75 -171 l-70 -163 -6 -46 -5 -47 9 20
c5 11 10 30 10 42 l1 23 75 172 c41 94 73 173 71 175 -2 3 -7 0 -10 -5z"/>
<path d="M76006 78244 l-186 -146 0 -15 0 -15 13 9 c117 91 355 279 365 288
l14 13 -10 6 -10 6 -186 -146z"/>
<path d="M13151 78248 c-31 -99 -111 -404 -109 -416 l3 -14 62 228 c35 125 61
229 59 231 -2 3 -9 -11 -15 -29z"/>
<path d="M11090 77887 l0 -15 215 -72 216 -72 6 6 7 6 -10 9 c-5 4 -97 38
-204 74 -107 36 -203 68 -212 72 l-18 7 0 -15z"/>
<path d="M28920 77561 c0 -5 14 -103 30 -217 l31 -209 -2 -64 -2 -64 59 -27
c33 -15 124 -46 203 -69 l143 -42 6 5 c9 10 2 12 -133 51 -71 21 -158 49 -192
63 l-63 26 0 65 0 66 -30 200 c-16 110 -30 206 -30 213 l0 12 -10 0 c-5 0 -10
-4 -10 -9z"/>
<path d="M45295 77403 c6 -6 91 -44 190 -86 99 -41 254 -107 344 -146 91 -39
167 -68 170 -66 7 8 3 10 -149 73 -80 33 -233 97 -340 142 -107 45 -202 84
-210 87 l-15 6 10 -10z"/>
<path d="M74147 77283 c-4 -3 -7 -17 -7 -30 l0 -24 24 -47 24 -47 31 -29 31
-30 7 7 7 7 -26 28 c-14 15 -35 43 -47 62 l-21 35 0 38 0 37 -8 0 c-5 0 -12
-3 -15 -7z"/>
<path d="M46040 77090 l0 -13 7 6 6 7 -6 7 -7 6 0 -13z"/>
<path d="M14680 77028 l0 -15 203 -42 c111 -23 211 -43 221 -44 l19 -2 3 10 4
10 -213 44 c-116 24 -218 46 -224 49 l-13 4 0 -14z"/>
<path d="M78670 76567 l-55 -70 -46 -37 -46 -36 -82 -34 -81 -34 0 -8 0 -8 38
16 c20 8 59 25 87 36 27 10 66 32 86 47 l37 27 66 81 66 82 -8 4 -7 5 -55 -71z"/>
<path d="M31040 74791 c0 -10 4 -12 100 -46 61 -22 316 -95 332 -95 5 0 8 4 8
8 l0 9 -127 33 c-71 18 -170 48 -220 66 l-93 34 0 -9z"/>
<path d="M33730 74101 l0 -8 98 -28 c53 -15 121 -38 150 -51 l53 -23 45 -37
45 -37 7 8 7 7 -45 39 -45 40 -45 20 c-49 22 -234 79 -256 79 -8 0 -14 -4 -14
-9z"/>
<path d="M35800 73904 c0 -25 312 -314 340 -314 l12 0 -4 9 c-1 4 -55 51 -118
103 l-115 96 -48 56 c-43 50 -67 68 -67 50z"/>
<path d="M71365 72150 c-4 -6 -5 -12 -4 -13 2 -1 14 -10 26 -20 l21 -18 6 9 5
9 -23 22 -24 23 -7 -12z"/>
<path d="M71456 72061 l-6 -8 19 -17 19 -17 7 11 7 11 -12 14 c-14 17 -26 19
-34 6z"/>
<path d="M71536 71992 l-5 -9 42 -41 42 -41 35 -6 35 -6 38 16 37 15 0 11 0
11 -17 -7 c-10 -4 -39 -10 -64 -12 l-47 -5 -45 41 -45 42 -6 -9z"/>
<path d="M47668 70854 l-6 -6 21 -51 c11 -29 51 -99 88 -157 l68 -105 35 -34
36 -35 6 7 7 6 -38 46 c-56 68 -153 221 -180 281 -24 55 -27 59 -37 48z"/>
<path d="M74438 70715 c-4 -22 -8 -58 -8 -79 0 -52 40 -288 51 -300 l9 -10 0
15 c0 7 -7 52 -16 99 l-16 85 -6 115 -7 115 -7 -40z"/>
<path d="M76466 70258 c55 -57 124 -136 154 -175 29 -40 56 -71 58 -68 15 15
-213 290 -272 329 -51 33 -37 14 60 -86z"/>
<path d="M38440 68421 c34 -20 423 -171 428 -167 2 3 -6 10 -19 15 -13 5 -109
43 -214 85 -104 42 -194 76 -200 76 l-10 -1 15 -8z"/>
<path d="M0 67520 l0 -10 25 0 25 0 0 10 0 10 -25 0 -25 0 0 -10z"/>
<path d="M51418 67063 c-28 -32 -120 -175 -116 -179 3 -2 31 36 64 84 l59 87
25 3 26 3 73 -51 c40 -29 75 -50 77 -47 6 6 -163 117 -179 117 -8 0 -21 -8
-29 -17z"/>
<path d="M55376 66931 l-17 -19 -18 -151 -18 -151 8 0 c10 0 16 34 30 170 l12
115 12 15 c6 8 15 21 19 28 l7 12 -9 0 c-5 0 -17 -9 -26 -19z"/>
<path d="M38452 66914 l-214 -12 -6 -8 -7 -7 90 6 c50 4 152 10 228 13 l137 7
0 8 c0 5 -3 8 -7 8 -5 -1 -104 -8 -221 -15z"/>
<path d="M37528 66866 l-186 -11 -9 -9 -8 -9 50 6 c28 3 124 9 215 13 l165 6
15 9 15 8 -35 -1 c-19 -1 -119 -6 -222 -12z"/>
<path d="M37177 66805 l-588 -33 -69 -28 c-39 -15 -70 -31 -70 -35 l0 -8 70
29 70 29 557 30 c307 17 575 31 596 31 l37 0 0 10 c0 6 -3 9 -7 9 -5 -1 -273
-16 -596 -34z"/>
<path d="M43460 66540 c0 -4 10 -11 23 -14 12 -3 97 -30 190 -60 92 -30 167
-51 167 -47 0 3 -86 34 -190 67 l-190 61 0 -7z"/>
<path d="M41235 66400 c3 -5 8 -10 11 -10 3 0 2 5 -1 10 -3 6 -8 10 -11 10 -3
0 -2 -4 1 -10z"/>
<path d="M44265 66331 c13 -12 377 -123 383 -116 6 6 15 3 -193 65 -93 28
-177 53 -185 56 l-15 5 10 -10z"/>
<path d="M44245 66293 l10 -11 193 -55 192 -54 0 6 c0 4 -84 31 -187 60 -103
30 -194 56 -203 59 l-15 5 10 -10z"/>
<path d="M48690 66227 c0 -3 71 -55 158 -115 233 -161 283 -194 288 -190 4 5
-408 295 -432 305 -7 3 -14 3 -14 0z"/>
<path d="M97460 66143 c0 -4 19 -99 42 -210 l42 -203 12 0 12 0 -29 138 c-16
75 -36 170 -45 210 l-16 72 -9 0 c-5 0 -9 -3 -9 -7z"/>
<path d="M51545 66078 c-13 -29 -52 -117 -88 -195 l-65 -143 8 -5 8 -5 10 28
c6 15 38 90 72 167 85 192 90 205 84 205 -3 0 -16 -24 -29 -52z"/>
<path d="M41926 66042 c26 -24 356 -243 360 -240 2 3 -38 33 -89 68 -50 35
-129 90 -174 122 -44 32 -87 58 -94 58 l-13 0 10 -8z"/>
<path d="M83996 65871 l-200 -67 -3 -11 -4 -11 208 68 208 69 3 11 4 10 -9 -1
c-4 0 -98 -31 -207 -68z"/>
<path d="M49133 65898 c0 -7 -55 -104 -122 -216 -66 -112 -121 -209 -121 -215
0 -7 56 82 125 198 69 115 129 211 134 213 l9 3 156 -112 c86 -61 159 -109
162 -107 2 3 -68 56 -156 118 -88 63 -160 117 -160 122 0 4 -6 8 -13 8 l-14 0
0 -12z"/>
<path d="M83650 65672 c0 -5 7 -33 16 -63 l16 -54 74 -107 c41 -58 74 -111 74
-117 0 -6 5 -11 10 -11 l11 0 -17 33 c-9 17 -44 71 -77 120 -60 88 -86 143
-87 185 l0 22 -10 0 c-5 0 -10 -4 -10 -8z"/>
<path d="M47015 65528 c-111 -168 -118 -178 -111 -178 7 0 198 291 194 295 -2
2 -39 -51 -83 -117z"/>
<path d="M42485 65294 l-128 -225 -123 -182 c-68 -100 -121 -183 -118 -186 5
-6 -6 -22 141 199 l129 195 119 208 c65 114 116 210 113 212 -2 3 -62 -97
-133 -221z"/>
<path d="M33493 65253 l-5 -14 6 -6 c5 -5 399 -60 449 -63 l7 0 0 20 c0 11 -3
20 -7 20 -5 1 -106 13 -226 29 l-219 28 -5 -14z"/>
<path d="M38461 64933 c-17 -142 -34 -268 -37 -280 l-4 -23 7 0 8 0 35 280
c19 154 33 280 29 280 -3 0 -20 -116 -38 -257z"/>
<path d="M74786 64968 c-17 -184 -30 -446 -22 -437 7 7 38 490 33 496 -3 2 -8
-24 -11 -59z"/>
<path d="M74826 64968 c-18 -184 -31 -456 -22 -447 6 6 38 500 33 506 -3 2 -8
-24 -11 -59z"/>
<path d="M31620 64943 l0 -9 218 -25 c119 -14 219 -24 221 -22 10 8 -16 12
-194 32 -104 12 -202 24 -217 27 l-28 6 0 -9z"/>
<path d="M1360 64799 c-52 -10 -128 -24 -167 -31 -40 -7 -73 -15 -73 -18 l0
-6 58 7 c31 3 75 11 97 17 22 6 73 16 114 22 l75 12 13 -18 13 -18 0 21 0 21
-16 6 c-9 3 -16 6 -17 5 -1 -1 -45 -9 -97 -20z"/>
<path d="M47805 64582 c6 -5 64 -32 130 -60 66 -28 157 -66 203 -86 l82 -35 0
7 c0 6 -363 165 -413 181 l-12 4 10 -11z"/>
<path d="M47783 64543 c11 -10 422 -181 426 -177 2 2 2 5 0 7 -8 6 -419 177
-425 177 l-7 0 6 -7z"/>
<path d="M40695 64505 c30 -79 78 -230 90 -280 l15 -60 -6 53 -5 53 -41 117
c-22 64 -45 122 -51 127 l-10 10 8 -20z"/>
<path d="M39357 64263 c-4 -3 -7 -11 -7 -17 l0 -11 53 -19 c28 -10 119 -51
202 -92 l150 -73 8 8 9 9 -6 11 c-11 18 -131 81 -262 137 -128 56 -136 58
-147 47z"/>
<path d="M40720 64190 l0 -10 30 0 30 0 0 10 0 10 -30 0 -30 0 0 -10z"/>
<path d="M40240 64118 c0 -36 4 -35 14 5 l6 27 -10 0 -10 0 0 -32z"/>
<path d="M89355 64064 c-36 -38 -65 -73 -65 -79 0 -5 29 21 63 59 l63 69 12
-7 c18 -11 415 -475 445 -521 15 -22 27 -35 27 -29 0 22 -80 124 -261 334
-102 118 -193 221 -203 229 l-17 14 -64 -69z"/>
<path d="M78953 64092 l-203 -26 0 -8 0 -8 23 0 c12 0 110 11 217 25 107 14
196 25 198 25 1 0 2 5 2 10 l0 10 -17 -1 c-10 -1 -109 -13 -220 -27z"/>
<path d="M88720 64049 c89 -169 235 -397 247 -385 2 2 -16 32 -41 66 -26 34
-80 123 -122 196 -42 74 -81 137 -86 140 l-10 6 12 -23z"/>
<path d="M43512 63690 c-72 -110 -128 -200 -124 -200 10 0 266 389 260 396 -3
2 -64 -86 -136 -196z"/>
<path d="M89621 63833 c102 -114 165 -190 204 -249 l45 -69 0 13 c0 7 -15 35
-34 63 -46 69 -217 269 -229 269 l-11 0 25 -27z"/>
<path d="M46830 63791 c0 -4 727 -275 830 -309 l15 -5 -10 10 c-5 5 -113 47
-240 93 -126 46 -312 113 -412 150 -101 37 -183 65 -183 61z"/>
<path d="M38685 63708 c-33 -28 -65 -60 -72 -72 -14 -25 -37 -151 -30 -168 l4
-13 8 50 c4 28 11 68 17 90 l10 40 41 36 c23 20 56 48 72 63 l30 25 -10 0 c-5
0 -37 -23 -70 -51z"/>
<path d="M41450 63743 l-24 -5 -78 -65 c-43 -36 -78 -67 -78 -69 0 -9 22 7 96
68 l71 58 37 0 38 0 55 -16 c30 -9 57 -14 59 -11 5 5 -79 32 -126 40 -14 3
-36 2 -50 0z"/>
<path d="M41710 63630 l0 -13 7 6 6 7 -6 7 -7 6 0 -13z"/>
<path d="M41760 63574 c0 -6 12 -21 26 -35 14 -13 77 -91 139 -174 l113 -150
211 -238 c116 -131 211 -242 211 -246 0 -12 -72 -77 -322 -290 l-227 -193 -7
-20 c-3 -11 -4 -22 -1 -25 3 -2 8 4 11 15 l7 20 252 215 c139 118 263 227 276
241 l24 25 8 -5 9 -5 0 20 0 21 -9 -2 -10 -3 -212 240 -212 240 -97 130 c-54
72 -118 153 -143 180 l-46 50 -1 -11z"/>
<path d="M40490 63495 l-12 -14 93 -108 c118 -136 774 -880 805 -913 l24 -24
14 14 14 15 -245 275 c-135 151 -336 381 -447 510 -112 129 -210 241 -218 248
l-15 12 -13 -15z"/>
<path d="M7033 63363 l7 -6 7 6 6 7 -13 0 -13 0 6 -7z"/>
<path d="M43129 63312 c-35 -32 -170 -148 -299 -259 -129 -110 -253 -219 -275
-242 l-39 -41 10 0 c6 0 23 14 40 31 16 18 137 124 269 237 240 206 380 332
365 332 -4 0 -36 -26 -71 -58z"/>
<path d="M6633 63343 l-33 -4 0 -8 0 -8 176 -6 177 -5 21 7 21 8 -20 5 c-11 3
-54 6 -95 7 -41 1 -106 3 -145 5 -38 2 -85 2 -102 -1z"/>
<path d="M16357 63315 l-17 -36 0 -39 0 -40 29 -32 29 -33 7 7 7 7 -26 31 -26
32 0 31 1 32 14 25 c8 14 14 31 15 38 0 23 -16 12 -33 -23z"/>
<path d="M41990 63346 c0 -9 93 -122 187 -227 85 -96 320 -365 330 -378 2 -2
6 -1 9 2 l7 6 -89 102 c-49 57 -143 161 -208 233 -65 72 -143 161 -173 199
-48 60 -63 75 -63 63z"/>
<path d="M6995 63298 l-18 -11 -156 5 -156 4 -35 -5 -35 -6 11 -7 11 -7 189
-3 189 -3 23 16 23 17 -14 5 -13 5 -19 -10z"/>
<path d="M57620 63105 c-96 -63 -176 -118 -178 -123 -2 -6 1 -13 7 -16 l9 -6
180 117 179 118 -4 13 c-3 6 -8 12 -11 11 -4 0 -86 -52 -182 -114z"/>
<path d="M41510 63171 c0 -8 -136 -130 -220 -197 -14 -11 -26 -25 -27 -32 l-3
-12 8 0 c12 0 171 128 223 181 l46 45 13 -20 13 -21 4 12 4 12 -20 20 c-22 22
-41 27 -41 12z"/>
<path d="M40907 63104 l-6 -6 17 -27 c25 -40 75 -101 79 -98 5 6 -38 100 -55
120 -16 18 -25 21 -35 11z"/>
<path d="M13595 63080 c-110 -4 -219 -11 -243 -15 l-42 -8 -7 -10 -6 -10 29 7
c51 12 273 24 489 28 l210 3 35 -8 35 -7 -30 14 -30 15 -120 -1 c-66 -1 -210
-5 -320 -8z"/>
<path d="M93750 63041 c0 -18 104 -68 258 -126 l153 -57 6 6 c9 9 10 9 -166
75 l-164 63 -36 24 c-38 26 -51 29 -51 15z"/>
<path d="M15030 62993 l0 -32 10 -6 10 -6 0 23 c0 13 -5 30 -10 38 l-10 15 0
-32z"/>
<path d="M58658 62923 c-37 -21 -68 -42 -68 -46 l0 -8 77 42 76 42 146 -11
c80 -6 243 -21 361 -32 250 -23 240 -22 240 -12 l0 9 -212 17 c-117 10 -226
19 -243 21 -16 2 -93 6 -170 10 l-140 6 -67 -38z"/>
<path d="M8970 62925 l0 -15 13 0 c17 0 365 -37 425 -45 l42 -6 0 15 0 15 -42
6 c-60 8 -408 45 -425 45 l-13 0 0 -15z"/>
<path d="M58695 62900 c-28 -15 -137 -86 -242 -158 l-191 -132 -16 6 -16 6 5
-13 4 -14 -224 -180 c-124 -99 -225 -184 -225 -188 0 -5 21 9 48 30 26 21 125
100 220 177 l172 138 172 -72 c95 -40 188 -79 206 -87 l34 -14 -6 9 c-3 5 -90
44 -193 87 -103 43 -190 80 -192 82 -3 2 0 7 5 12 l9 9 190 -79 c105 -43 194
-78 199 -76 6 2 -77 39 -183 82 l-192 80 27 20 c88 65 350 236 395 258 l54 26
138 -12 137 -13 0 8 c0 4 -1 8 -2 8 -2 1 -66 7 -143 14 l-140 12 -50 -26z"/>
<path d="M16660 62868 c0 -13 3 -53 7 -90 l6 -68 8 0 9 0 0 90 0 90 -15 0 -15
0 0 -22z"/>
<path d="M16720 62795 l0 -95 10 0 10 0 0 95 0 95 -10 0 -10 0 0 -95z"/>
<path d="M3636 62861 l-6 -9 25 -16 c44 -29 66 -12 23 18 -26 18 -35 20 -42 7z"/>
<path d="M41013 62839 c3 -10 11 -35 18 -58 7 -23 18 -46 26 -53 l13 -11 6 6
6 6 -11 33 c-6 18 -23 47 -37 63 l-26 30 5 -16z"/>
<path d="M21800 62797 c9 -10 440 -156 440 -149 0 4 -93 38 -207 76 -115 38
-215 71 -223 74 l-15 5 5 -6z"/>
<path d="M41344 62779 l-6 -11 24 -26 c171 -189 255 -278 265 -280 l13 -3 0
11 c0 10 -277 320 -286 320 -1 0 -6 -5 -10 -11z"/>
<path d="M40989 62694 c-18 -19 -87 -81 -151 -136 l-117 -101 5 -9 6 -9 46 40
c103 86 256 227 260 239 l4 12 -9 0 c-5 0 -25 -16 -44 -36z"/>
<path d="M42925 62509 c-126 -109 -235 -199 -241 -199 l-11 0 0 -15 0 -14 8 4
7 5 239 -263 c132 -144 248 -269 259 -277 l19 -15 -15 20 c-12 16 -363 404
-463 511 l-29 32 214 182 c243 209 253 218 247 223 -2 2 -107 -85 -234 -194z"/>
<path d="M42192 62435 c-105 -91 -192 -168 -192 -171 0 -4 8 0 18 7 23 19 353
298 372 315 l14 14 -9 0 c-6 0 -97 -74 -203 -165z"/>
<path d="M41542 62467 l-11 -13 150 -169 c83 -94 154 -171 158 -173 5 -1 13 4
20 12 l12 14 -152 171 c-84 94 -155 171 -159 171 -4 0 -12 -6 -18 -13z"/>
<path d="M89022 62421 c2 -5 81 -75 176 -156 l174 -146 11 4 11 3 -180 152
c-98 84 -183 152 -187 152 l-9 0 4 -9z"/>
<path d="M88992 62380 l4 -15 174 -147 173 -147 9 5 10 6 -9 7 c-41 36 -332
280 -347 291 l-19 15 5 -15z"/>
<path d="M3765 62330 l-7 -12 31 -31 31 -32 0 21 0 21 -24 22 -24 23 -7 -12z"/>
<path d="M40583 62253 l7 -6 7 6 6 7 -13 0 -13 0 6 -7z"/>
<path d="M45794 61960 c3 -19 17 -127 32 -240 l27 -205 9 -10 9 -10 -5 25 c-3
14 -17 117 -31 230 -15 113 -31 214 -36 225 l-9 20 4 -35z"/>
<path d="M94400 61966 c25 -23 296 -193 320 -201 l23 -7 -7 11 c-4 6 -12 11
-17 11 -6 0 -80 45 -165 100 -148 95 -186 117 -154 86z"/>
<path d="M44720 61924 c0 -5 59 -75 131 -155 197 -216 231 -251 236 -245 5 5
-126 152 -314 355 l-52 56 -1 -11z"/>
<path d="M40115 61834 c-27 -25 -74 -58 -103 -75 l-53 -30 -97 -25 c-53 -14
-101 -30 -107 -36 l-10 -10 23 7 c13 4 64 18 113 31 l88 23 53 31 c55 31 171
129 153 129 -5 0 -32 -20 -60 -45z"/>
<path d="M59856 61814 c-32 -36 -101 -126 -152 -201 l-94 -136 0 -20 0 -21 18
35 c28 55 179 267 240 337 30 34 53 65 50 67 -2 3 -31 -25 -62 -61z"/>
<path d="M44056 61728 c184 -206 224 -248 224 -238 0 12 -332 380 -342 380 -6
0 48 -64 118 -142z"/>
<path d="M43913 61837 c9 -23 329 -378 335 -372 3 3 -10 22 -30 43 -19 20 -97
106 -173 191 -76 85 -136 147 -132 138z"/>
<path d="M56277 61634 l-19 -25 7 -7 7 -7 19 24 c10 13 19 27 19 32 0 16 -15
9 -33 -17z"/>
<path d="M93926 61511 l-148 -148 9 -6 9 -6 148 148 148 148 -9 6 -9 6 -148
-148z"/>
<path d="M62570 61640 l-15 -10 18 0 17 0 0 10 c0 12 -1 12 -20 0z"/>
<path d="M45440 61094 c-245 -211 -447 -390 -449 -397 l-4 -12 29 26 c16 14
211 183 434 374 223 191 416 358 430 371 l25 24 -10 0 c-6 -1 -210 -174 -455
-386z"/>
<path d="M60690 61460 c-8 -5 -24 -12 -35 -16 l-20 -8 24 -4 24 -4 23 13 23
12 -5 9 c-6 10 -14 10 -34 -2z"/>
<path d="M57870 61337 c0 -4 76 -128 168 -275 93 -147 208 -334 257 -417 98
-168 93 -160 100 -154 8 9 -479 804 -516 844 l-9 9 0 -7z"/>
<path d="M61205 61118 c3 -13 53 -245 110 -517 58 -272 108 -497 111 -500 l7
-6 -5 25 c-2 14 -51 249 -109 522 l-104 498 -8 0 -7 0 5 -22z"/>
<path d="M5535 60879 c-10 -15 0 -21 27 -17 l23 3 -22 13 -22 12 -6 -11z"/>
<path d="M54671 60859 c-2 -10 90 -413 95 -418 9 -9 3 24 -36 202 -35 156 -57
238 -59 216z"/>
<path d="M55405 60600 c28 -16 54 -30 58 -30 l8 0 -6 10 c-8 13 -80 50 -97 50
l-13 0 50 -30z"/>
<path d="M86267 60418 c81 -90 166 -185 188 -213 58 -74 286 -315 298 -315 5
0 -37 48 -94 108 -57 59 -138 148 -179 197 -103 124 -342 385 -353 385 -5 0
58 -73 140 -162z"/>
<path d="M86100 60551 c0 -9 297 -341 306 -341 11 0 -6 21 -151 180 -85 94
-155 166 -155 161z"/>
<path d="M62621 60365 c-63 -14 -253 -52 -423 -86 l-308 -62 0 -7 0 -6 413 83
c226 46 421 87 432 92 30 15 10 12 -114 -14z"/>
<path d="M62350 60269 c-212 -43 -396 -80 -410 -82 l-25 -3 -1 -10 c-1 -5 0
-13 2 -19 2 -5 35 -165 75 -355 39 -190 73 -347 75 -349 10 -10 0 44 -67 367
l-71 343 5 6 c4 3 189 43 412 88 224 46 409 86 412 89 l6 6 -14 -1 c-8 0 -187
-36 -399 -80z"/>
<path d="M58636 60229 c-59 -14 -57 -20 5 -13 l54 6 116 -238 c64 -132 131
-275 149 -319 18 -44 43 -102 55 -130 12 -27 49 -111 81 -185 31 -74 58 -136
59 -138 1 -1 220 42 486 97 266 55 475 100 464 100 -11 1 -223 -40 -470 -89
-248 -50 -456 -89 -463 -88 l-13 3 -74 170 -74 170 21 15 c18 12 301 224 317
237 2 1 2 5 0 7 -2 3 -75 -49 -162 -114 -87 -65 -164 -120 -171 -123 l-12 -5
-69 162 c-37 88 -106 234 -152 324 l-84 162 -12 -1 c-7 -1 -30 -5 -51 -10z"/>
<path d="M58642 60190 c-18 -4 -36 -10 -39 -14 l-6 -6 38 3 38 2 43 -80 c36
-66 147 -302 236 -503 11 -24 22 -42 24 -39 8 8 -289 650 -299 646 -1 -1 -17
-5 -35 -9z"/>
<path d="M57425 60176 l-60 -11 13 -8 13 -9 42 7 c60 9 77 15 77 26 l0 9 -12
-1 c-7 -1 -40 -6 -73 -13z"/>
<path d="M61870 60180 c1 -3 36 -173 78 -378 l78 -372 -35 -9 c-20 -5 -214
-46 -431 -91 l-395 -82 -10 -11 -10 -10 15 5 c8 3 205 45 437 93 l423 89 7 -7
7 -7 -10 -9 c-5 -5 -201 -48 -436 -97 -236 -49 -428 -92 -428 -95 l0 -7 68 15
c37 7 227 47 423 88 342 72 389 80 389 71 0 -3 22 -101 49 -218 27 -117 59
-267 71 -333 l22 -120 10 -10 10 -10 -5 20 c-3 11 -18 83 -32 160 -23 122 -96
458 -111 508 l-5 17 14 0 15 0 31 -132 c31 -130 122 -571 118 -574 -1 0 -76
-15 -167 -33 -91 -17 -294 -64 -452 -104 l-288 -71 0 -7 0 -7 192 50 c158 41
625 142 703 152 12 1 25 5 30 7 6 3 196 44 422 90 227 46 408 86 403 87 -6 2
-193 -33 -416 -78 l-405 -83 -5 6 c-3 3 -23 95 -44 204 -22 109 -55 265 -74
348 -19 82 -34 151 -33 151 1 1 92 21 202 43 209 44 230 49 224 55 -2 3 -98
-15 -213 -39 l-209 -44 -10 6 -9 6 -8 -13 -8 -13 -11 7 c-6 4 -11 11 -11 15
l0 7 235 50 235 49 0 7 c0 12 -8 11 -245 -41 l-220 -47 -6 10 c-4 6 -39 171
-79 366 -40 195 -77 359 -81 365 -5 5 -9 7 -9 5z"/>
<path d="M83346 59918 c29 -59 218 -358 226 -358 4 0 -35 68 -87 150 -53 83
-105 171 -117 195 -12 25 -26 45 -30 45 l-9 0 17 -32z"/>
<path d="M49266 59054 c-181 -240 -324 -435 -318 -433 15 5 665 869 654 869
-4 0 -156 -196 -336 -436z"/>
<path d="M59388 59231 c-124 -25 -230 -49 -234 -53 l-7 -8 8 0 c5 0 116 21
247 46 l238 46 0 9 0 9 -12 -1 c-7 -1 -115 -22 -240 -48z"/>
<path d="M45660 59174 l75 -75 118 -84 c64 -47 117 -81 117 -77 0 5 -51 45
-112 89 l-113 81 -70 71 c-38 39 -74 71 -79 71 -6 0 23 -34 64 -76z"/>
<path d="M45560 59225 c0 -6 37 -47 83 -91 l82 -81 108 -77 109 -77 6 5 c7 7
17 -1 -113 91 l-110 78 -82 81 c-46 44 -83 76 -83 71z"/>
<path d="M83800 59156 c0 -15 204 -406 213 -406 4 0 -28 66 -70 148 -101 193
-143 269 -143 258z"/>
<path d="M49160 58848 c-74 -100 -148 -199 -163 -220 -16 -21 -25 -38 -20 -38
7 1 109 135 306 402 16 21 25 38 20 38 -4 -1 -69 -82 -143 -182z"/>
<path d="M39145 58931 c17 -5 64 -17 105 -26 l75 -16 305 -110 c168 -61 315
-117 328 -125 l22 -14 0 10 0 10 -37 19 c-50 25 -605 225 -663 239 -25 6 -72
13 -105 16 l-60 5 30 -8z"/>
<path d="M63851 58934 c-1 -13 114 -602 159 -814 17 -80 69 -332 115 -560 79
-384 120 -582 227 -1085 l41 -190 9 -10 10 -10 -5 20 c-3 11 -25 110 -47 220
-48 231 -111 529 -147 695 -13 63 -69 333 -123 600 -161 787 -230 1124 -234
1135 l-4 10 -1 -11z"/>
<path d="M50380 58844 c0 -5 75 -65 165 -134 l166 -125 77 -21 c42 -12 119
-33 171 -48 l95 -26 -10 10 c-5 5 -83 30 -172 55 l-163 46 -152 116 c-84 64
-158 120 -164 126 l-13 9 0 -8z"/>
<path d="M84073 58708 c82 -149 146 -276 158 -313 l12 -40 4 11 c2 6 -4 32
-14 57 -27 67 -177 347 -186 347 l-9 0 35 -62z"/>
<path d="M61333 58415 c4 -11 20 -87 37 -170 39 -192 40 -198 46 -192 3 2 -12
85 -32 183 l-36 179 -10 10 -10 10 5 -20z"/>
<path d="M51543 58211 l-161 -127 6 -11 7 -11 145 115 c80 63 153 122 164 132
l18 19 -9 5 -9 6 -161 -128z"/>
<path d="M60665 58278 l-189 -40 -4 11 c-2 6 -7 11 -12 11 l-9 0 5 -32 4 -32
-16 -17 -16 -18 -16 6 c-10 3 -25 13 -35 22 l-18 15 4 18 5 18 -9 0 -9 0 0
-21 c0 -11 4 -29 10 -39 l10 -18 31 -7 31 -7 24 23 24 22 0 17 0 17 188 38
c103 20 194 41 202 46 l15 8 -15 0 c-8 -1 -100 -19 -205 -41z"/>
<path d="M63940 58292 c0 -26 237 -1192 325 -1601 l96 -444 -16 -17 c-8 -9
-15 -23 -15 -31 l0 -14 24 30 c13 16 22 33 20 36 -6 10 -201 926 -238 1119
-20 102 -48 246 -62 320 -36 191 -124 603 -130 609 -2 2 -4 -1 -4 -7z"/>
<path d="M56325 58242 c6 -5 63 -26 128 -45 l117 -35 0 7 c0 4 -49 21 -109 39
-60 18 -117 35 -128 38 l-18 7 10 -11z"/>
<path d="M50083 57984 l148 -75 312 -89 c172 -48 331 -93 353 -99 l42 -11 13
-32 13 -31 4 11 c2 6 -4 24 -12 40 l-15 28 -118 33 c-65 18 -221 61 -348 96
l-230 64 -146 70 c-80 39 -150 71 -155 70 -5 0 58 -34 139 -75z"/>
<path d="M63021 58010 c-161 -35 -219 -50 -184 -50 18 0 397 81 402 85 10 10
-41 2 -218 -35z"/>
<path d="M36075 57863 c14 -14 466 -184 478 -180 7 2 -284 116 -468 183 l-20
7 10 -10z"/>
<path d="M62125 57820 c-121 -26 -211 -49 -199 -49 26 -1 402 77 429 89 l20 9
-15 -1 c-8 0 -114 -22 -235 -48z"/>
<path d="M55505 57749 c-77 -10 -160 -21 -185 -25 l-45 -7 11 -4 c13 -4 416
45 423 52 8 9 -61 3 -204 -16z"/>
<path d="M53803 57690 c3 -8 87 -188 187 -400 l182 -385 20 -17 20 -18 32 1
31 1 -34 8 -33 8 -18 18 c-9 11 -97 190 -195 399 -98 209 -183 385 -188 390
l-10 10 6 -15z"/>
<path d="M63460 57484 c0 -7 178 -857 187 -892 l6 -23 7 8 8 8 -94 445 c-51
245 -94 448 -94 453 0 8 -20 10 -20 1z"/>
<path d="M50360 57391 l0 -9 33 -7 c17 -4 67 -21 110 -38 l78 -30 44 -49 c43
-47 55 -56 55 -39 0 12 -95 103 -123 117 -19 11 -103 39 -174 59 l-23 6 0 -10z"/>
<path d="M38054 57230 l3 -65 -24 -95 c-14 -52 -35 -125 -49 -162 l-24 -68 9
0 8 0 31 93 c16 50 37 122 47 159 l18 66 -11 69 -11 68 3 -65z"/>
<path d="M47808 56992 l-178 -25 0 -7 0 -6 203 28 202 28 23 -4 22 -3 0 8 0 9
-47 -1 c-27 -1 -128 -13 -225 -27z"/>
<path d="M90712 56898 c-17 -40 -50 -120 -73 -178 -23 -58 -51 -117 -62 -133
l-19 -27 4 -12 4 -11 22 31 23 31 74 182 c41 101 75 184 75 186 0 2 -4 3 -9 3
l-9 0 -30 -72z"/>
<path d="M79455 56585 l-30 -25 -85 -31 -85 -30 -85 -15 -85 -14 76 4 76 3 95
32 94 33 40 34 c45 38 35 46 -11 9z"/>
<path d="M90646 56521 c5 -5 59 -30 119 -56 61 -26 138 -63 173 -82 l63 -35 6
5 5 6 -63 33 c-67 34 -298 138 -307 138 -3 0 -2 -4 4 -9z"/>
<path d="M82732 56510 c3 -8 27 -108 53 -222 27 -115 52 -208 55 -208 4 0 -16
96 -44 214 l-51 215 -9 8 -9 8 5 -15z"/>
<path d="M90620 56490 c0 -4 50 -28 112 -54 l112 -48 250 -135 c138 -74 261
-144 274 -155 l22 -21 0 10 c0 19 -63 58 -285 177 l-219 118 -133 58 c-73 32
-133 54 -133 50z"/>
<path d="M26450 56402 c0 -4 74 -47 165 -95 l166 -88 12 4 11 3 -149 79 c-83
42 -160 84 -172 91 -25 16 -33 17 -33 6z"/>
<path d="M64411 56247 c14 -7 33 -18 43 -26 l16 -13 0 -28 0 -27 -18 -16 -19
-17 -26 0 -26 0 -13 14 -13 13 -15 -8 c-8 -4 -126 -29 -262 -56 -137 -26 -248
-50 -248 -54 0 -3 117 17 260 46 l260 52 11 -13 11 -14 38 0 39 0 20 26 21 27
0 32 0 32 -23 21 -23 22 -30 -1 -29 -1 26 -11z"/>
<path d="M25080 56161 c0 -4 53 -33 118 -63 l117 -55 279 -177 c153 -98 280
-175 283 -173 4 4 -126 89 -442 290 l-120 76 -118 55 -117 55 0 -8z"/>
<path d="M57456 55989 l165 -151 6 6 6 6 -49 42 c-26 24 -100 89 -162 146 -63
56 -118 102 -123 102 -5 0 66 -68 157 -151z"/>
<path d="M63777 56005 l-18 -25 -24 -6 -25 -6 0 -10 0 -10 28 7 27 6 23 21
c21 21 30 48 15 48 -5 0 -16 -12 -26 -25z"/>
<path d="M61854 55945 c5 -11 17 -65 29 -120 l22 -100 3 16 c1 9 -6 58 -18
109 l-20 94 -11 10 -12 11 7 -20z"/>
<path d="M62756 55901 l-270 -57 -3 -11 -4 -10 183 38 c101 21 221 46 268 55
78 15 111 28 99 37 -2 2 -125 -21 -273 -52z"/>
<path d="M35750 55915 c14 -8 32 -14 40 -14 l15 0 -25 14 c-14 8 -32 14 -40
14 l-15 0 25 -14z"/>
<path d="M25492 55889 l5 -14 154 -98 c85 -54 166 -105 182 -113 l27 -15 0 9
c0 5 -60 47 -132 93 -73 45 -157 98 -187 117 l-53 34 4 -13z"/>
<path d="M62780 55810 c-124 -26 -364 -76 -534 -110 l-308 -64 -11 -23 -10
-23 -33 0 -33 0 -6 10 c-8 13 -25 13 -25 0 0 -5 12 -16 28 -23 l27 -14 32 9
32 8 6 19 6 20 47 9 c26 6 273 57 550 113 l502 103 0 8 0 8 -22 -1 c-13 -1
-124 -23 -248 -49z"/>
<path d="M91770 55822 c0 -24 352 -264 366 -250 2 2 -28 21 -66 42 -39 20 -94
56 -122 78 -29 23 -81 63 -115 91 l-63 49 0 -10z"/>
<path d="M61840 55730 l0 -10 25 0 25 0 0 10 0 10 -25 0 -25 0 0 -10z"/>
<path d="M51181 55489 c-106 -121 -191 -222 -189 -225 4 -4 81 82 362 404 16
18 27 35 24 37 -3 3 -91 -94 -197 -216z"/>
<path d="M25990 55662 c0 -9 361 -272 472 -344 l60 -39 6 5 c7 7 11 4 -68 56
-36 24 -150 105 -255 180 -104 75 -196 140 -202 144 l-13 7 0 -9z"/>
<path d="M25894 55628 l-7 -11 11 7 c7 4 12 9 12 12 0 8 -9 4 -16 -8z"/>
<path d="M25957 55613 l-8 -23 16 -27 17 -28 245 -168 c134 -93 246 -167 249
-165 2 3 -103 78 -233 168 -131 90 -246 173 -255 184 l-17 21 -3 30 -3 30 -8
-22z"/>
<path d="M55060 55501 l0 -9 33 -11 c17 -5 51 -11 74 -13 l43 -2 -1 9 -1 10
-66 12 c-86 15 -82 15 -82 4z"/>
<path d="M93025 55272 c6 -5 93 -45 195 -87 102 -43 191 -82 198 -88 l12 -10
7 7 c3 3 4 7 2 9 -3 3 -222 95 -389 164 l-35 15 10 -10z"/>
<path d="M25660 55216 c0 -7 250 -187 268 -193 l17 -6 -25 20 c-48 38 -250
183 -255 183 -3 0 -5 -2 -5 -4z"/>
<path d="M26750 55126 l85 -43 55 -11 c30 -6 125 -20 210 -31 l155 -20 153 -6
152 -6 0 10 0 11 -138 0 -139 0 -184 25 c-225 30 -244 35 -341 79 -106 50
-111 44 -8 -8z"/>
<path d="M55216 55151 l-6 -9 13 -9 c6 -6 17 -13 24 -17 l12 -6 5 9 6 9 -25
16 -24 16 -5 -9z"/>
<path d="M51900 55031 l0 -11 153 0 153 0 47 -30 c56 -35 63 -26 9 11 l-37 26
-162 8 -163 7 0 -11z"/>
<path d="M45680 55003 c0 -4 23 -28 51 -52 l52 -44 -7 -91 c-4 -50 -10 -109
-13 -131 l-6 -40 8 7 8 7 11 115 12 115 -7 19 -7 19 -51 42 c-28 24 -51 39
-51 34z"/>
<path d="M33435 54992 c6 -5 62 -22 125 -37 63 -15 131 -34 150 -42 l35 -13
28 -45 c16 -25 33 -45 38 -45 l9 0 -32 50 -33 49 -20 10 c-11 6 -76 24 -145
41 -69 17 -134 33 -145 37 l-20 5 10 -10z"/>
<path d="M47300 54968 c0 -7 4 -19 9 -27 l9 -14 11 7 c16 10 14 20 -9 34 l-20
12 0 -12z"/>
<path d="M52118 54732 l-148 -227 -118 -150 -119 -150 -15 1 -15 1 4 -18 5
-19 13 0 13 0 5 18 c3 9 58 85 124 167 l119 150 133 205 c74 113 141 215 149
228 l14 22 -8 0 c-5 -1 -75 -103 -156 -228z"/>
<path d="M53216 54928 c-8 -13 -29 -48 -48 -78 -18 -31 -109 -167 -201 -304
-93 -137 -237 -355 -319 -485 l-151 -236 -78 -102 -78 -103 9 0 c18 0 165 206
320 449 86 135 233 359 326 496 94 138 183 273 198 300 16 28 36 58 44 68 l15
17 -11 0 c-6 0 -18 -10 -26 -22z"/>
<path d="M53285 54930 c4 -14 9 -32 11 -41 l5 -16 -137 -206 c-75 -114 -135
-209 -132 -212 2 -2 68 92 146 211 l142 215 -21 37 -20 37 6 -25z"/>
<path d="M47111 54887 c-6 -16 -11 -35 -11 -43 l0 -14 14 0 14 0 5 28 5 27 -8
15 -9 15 -10 -28z"/>
<path d="M50386 54844 c-10 -25 1 -29 14 -5 l11 21 -10 0 c-5 0 -12 -7 -15
-16z"/>
<path d="M50190 54573 c0 -12 38 -48 45 -41 3 2 -6 15 -20 28 l-25 23 0 -10z"/>
<path d="M50225 54480 l-6 -19 43 -58 c23 -32 44 -60 45 -62 2 -2 5 -2 8 1 3
2 -15 31 -39 63 l-43 58 5 19 c6 24 -5 23 -13 -2z"/>
<path d="M48670 54405 c0 -13 146 -295 152 -295 5 0 -26 68 -67 150 -66 131
-85 164 -85 145z"/>
<path d="M51440 54365 l-12 -15 10 0 c12 0 26 19 19 26 -2 2 -10 -2 -17 -11z"/>
<path d="M50335 54265 c91 -85 216 -188 220 -183 3 2 -50 51 -117 109 -127
109 -189 153 -103 74z"/>
<path d="M48340 54251 c0 -5 5 -13 10 -16 l10 -6 0 10 c0 5 -4 13 -10 16 l-10
6 0 -10z"/>
<path d="M62171 54173 c-1 -28 85 -442 94 -451 l7 -7 -7 35 c-24 131 -93 441
-94 423z"/>
<path d="M32760 54176 c0 -2 32 -30 70 -61 l70 -57 0 -13 0 -13 -71 -61 c-88
-76 -77 -81 14 -5 l67 56 0 22 0 22 -69 57 c-64 52 -81 64 -81 53z"/>
<path d="M62131 54170 c-1 -8 40 -221 91 -472 l93 -458 8 0 8 0 -5 18 c-3 9
-46 217 -96 462 -50 245 -92 450 -94 455 l-4 10 -1 -15z"/>
<path d="M51586 54059 c-47 -55 -86 -105 -86 -110 0 -6 41 37 91 96 50 58 89
108 87 111 -3 2 -44 -41 -92 -97z"/>
<path d="M6180 54088 l0 -14 198 -59 c108 -32 203 -60 210 -63 l12 -4 0 14 0
15 -192 58 c-106 32 -201 60 -210 63 l-18 4 0 -14z"/>
<path d="M51235 54070 l-18 -20 7 -7 7 -7 20 21 21 21 -10 6 -9 6 -18 -20z"/>
<path d="M51450 53895 c-7 -9 -11 -17 -9 -20 3 -2 10 5 17 15 14 24 10 26 -8
5z"/>
<path d="M21650 53852 c0 -5 11 -14 24 -22 l25 -13 12 -29 12 -29 -6 -92 c-4
-51 -9 -128 -12 -172 -9 -134 4 -70 19 93 l13 153 -6 27 c-8 36 -21 54 -53 75
l-28 17 0 -8z"/>
<path d="M48550 53851 c0 -11 172 -353 187 -370 1 -2 5 -2 7 0 2 2 -41 90 -95
194 -54 105 -99 184 -99 176z"/>
<path d="M50890 53786 c0 -2 48 -43 106 -90 l105 -86 -59 -37 c-32 -21 -95
-56 -140 -78 -45 -21 -82 -43 -82 -47 l0 -8 103 51 c56 28 121 64 144 80 l42
29 13 -5 14 -5 0 19 0 19 -13 -5 -13 -5 -104 86 c-96 79 -116 93 -116 82z"/>
<path d="M80941 53697 c-1 -15 91 -396 105 -436 2 -8 6 -12 9 -10 2 3 -23 108
-55 234 -32 127 -59 222 -59 212z"/>
<path d="M80901 53682 c-1 -19 101 -426 110 -436 6 -7 -93 407 -106 439 l-3
10 -1 -13z"/>
<path d="M66173 53557 c-237 -51 -435 -96 -440 -100 l-8 -9 25 6 c14 4 219 47
455 96 237 50 435 92 440 94 44 18 -103 -9 -472 -87z"/>
<path d="M9210 53554 c-105 -16 -270 -62 -270 -76 l0 -7 42 15 c74 26 158 45
240 54 l80 9 34 -14 34 -14 0 9 c0 4 -14 13 -31 19 l-32 11 -36 -1 c-20 -1
-47 -3 -61 -5z"/>
<path d="M51950 53460 l0 -9 15 5 c8 4 15 8 15 10 0 2 -7 4 -15 4 l-15 0 0
-10z"/>
<path d="M51136 53353 c-103 -51 -183 -93 -177 -93 6 0 89 39 185 87 l175 87
28 -14 c15 -8 54 -40 85 -70 l58 -56 0 -27 0 -27 9 0 9 0 -8 36 -8 37 -38 38
c-20 21 -58 51 -83 67 l-47 29 -188 -94z"/>
<path d="M36320 53333 l0 -10 68 -7 c37 -3 138 -9 225 -12 l157 -7 0 10 0 10
-152 7 c-84 3 -186 9 -225 13 l-73 6 0 -10z"/>
<path d="M52448 53266 l-17 -24 -91 -7 -90 -7 0 -7 0 -7 92 9 93 9 13 10 c7 6
18 20 23 30 l10 18 -8 0 c-4 0 -16 -11 -25 -24z"/>
<path d="M53625 53216 c-72 -28 -397 -198 -391 -204 3 -2 87 39 188 91 101 52
202 101 226 108 l42 12 0 9 c0 10 6 11 -65 -16z"/>
<path d="M48116 53181 l-6 -9 198 -410 197 -411 12 -1 c6 0 15 5 18 10 l7 11
-198 409 -198 410 -12 0 c-7 0 -15 -4 -18 -9z"/>
<path d="M64298 53173 c6 -2 18 -2 25 0 l12 5 -25 0 -25 0 13 -5z"/>
<path d="M66688 53081 c-252 -53 -458 -99 -458 -102 l0 -7 163 34 c89 19 295
62 457 95 284 59 308 65 299 72 -2 2 -210 -40 -461 -92z"/>
<path d="M30212 53006 l-2 -88 -39 -47 c-21 -25 -52 -69 -69 -97 l-30 -51 -3
-47 -4 -46 7 0 8 0 0 37 0 36 31 56 c18 31 49 77 71 103 l39 47 -4 93 -3 93
-2 -89z"/>
<path d="M77721 52827 l-184 -72 -4 -12 -4 -11 183 70 c101 39 191 73 201 75
19 6 23 23 5 22 -7 0 -96 -33 -197 -72z"/>
<path d="M77966 52872 c-15 -24 110 -438 230 -759 52 -141 51 -139 60 -130 l7
7 -33 87 c-17 49 -68 192 -111 318 l-80 230 -30 128 c-17 70 -32 127 -34 127
-2 0 -6 -4 -9 -8z"/>
<path d="M77741 52776 l-185 -72 -4 -12 -4 -12 49 18 c26 11 117 46 201 78
l152 58 0 8 c0 14 -21 7 -209 -66z"/>
<path d="M49466 52811 l-18 -20 4 -13 5 -13 12 23 12 22 25 0 25 0 -6 10 c-3
6 -14 10 -24 10 l-18 0 -17 -19z"/>
<path d="M52460 52808 c0 -6 16 -40 35 -74 l36 -64 18 -9 17 -10 75 45 c78 46
89 50 89 33 0 -16 193 -419 201 -419 4 0 -39 97 -96 216 l-103 217 5 15 6 14
-24 -12 c-13 -7 -49 -28 -80 -46 l-57 -34 -19 0 -19 0 -38 70 c-37 69 -46 81
-46 58z"/>
<path d="M61036 52633 c-20 -104 -40 -197 -43 -208 l-5 -20 8 8 9 9 41 199 40
199 -6 0 -7 0 -37 -187z"/>
<path d="M65060 52747 c-204 -40 -217 -44 -209 -51 5 -5 451 82 458 89 10 11
-52 1 -249 -38z"/>
<path d="M48198 52769 l-17 -9 94 -193 c51 -105 154 -318 228 -472 74 -154
183 -379 242 -500 106 -217 389 -809 427 -894 l20 -43 15 15 16 15 -213 449
c-257 542 -426 893 -637 1320 l-158 322 -17 -10z"/>
<path d="M81130 52775 c0 -14 26 -51 77 -109 l44 -49 45 -29 46 -29 296 -89
c164 -50 306 -93 317 -96 l20 -6 -10 9 c-5 6 -143 50 -305 99 l-295 88 -53 32
-53 32 -43 50 c-23 27 -52 63 -64 78 l-21 29 -1 -10z"/>
<path d="M52800 52767 c0 -3 37 -75 81 -159 45 -84 137 -267 205 -407 69 -140
126 -252 129 -249 3 3 -2 22 -10 42 -42 101 -374 747 -396 771 -5 5 -9 6 -9 2z"/>
<path d="M27720 52694 c0 -25 -9 -225 -21 -446 -11 -220 -18 -402 -16 -405 8
-7 16 113 32 472 8 182 17 351 20 378 l4 47 -9 0 -10 0 0 -46z"/>
<path d="M27756 52625 c-3 -63 -9 -167 -12 -230 l-7 -115 10 0 10 0 7 163 c4
89 9 192 13 230 l6 67 -10 0 -10 0 -7 -115z"/>
<path d="M30089 52523 l-14 -108 13 -140 c8 -77 16 -142 18 -144 11 -12 11 15
0 143 l-12 138 7 67 c5 36 10 85 13 109 l6 42 -9 0 -9 0 -13 -107z"/>
<path d="M85592 52468 c-95 -72 -171 -132 -169 -135 3 -2 78 51 168 118 90 67
170 124 177 126 13 5 17 24 5 22 -5 0 -86 -59 -181 -131z"/>
<path d="M21625 52300 c-4 -122 -5 -223 -2 -226 3 -3 8 70 11 163 3 92 8 194
10 226 l4 57 -8 0 -8 0 -7 -220z"/>
<path d="M48234 52419 l50 -8 24 -18 23 -18 199 -405 c109 -223 276 -567 370
-765 l172 -360 0 -28 -1 -27 10 5 9 6 0 22 0 22 -159 330 c-87 182 -210 436
-273 565 -63 129 -157 323 -208 430 -101 209 -110 225 -152 246 l-27 14 -43
-1 -43 -1 49 -9z"/>
<path d="M48163 52413 l7 -6 7 6 6 7 -13 0 -13 0 6 -7z"/>
<path d="M26995 52303 l8 -28 -2 -197 -2 -198 11 0 10 0 0 188 c0 103 -3 204
-6 225 l-7 37 -9 0 -10 0 7 -27z"/>
<path d="M84347 52263 c8 -32 18 -61 21 -65 l7 -7 165 41 c90 23 159 43 153
45 -6 2 -74 -12 -151 -32 -78 -19 -148 -35 -156 -35 l-15 0 -12 55 -12 55 -8
0 -7 0 15 -57z"/>
<path d="M5921 52240 c-1 -49 28 -427 35 -449 12 -39 10 16 -11 244 l-23 250
-1 -45z"/>
<path d="M43750 52240 c0 -5 1 -10 3 -10 1 0 96 -25 212 -55 l210 -54 9 9 c6
6 7 10 4 10 -3 0 -100 25 -215 55 -233 61 -223 59 -223 45z"/>
<path d="M54390 52109 c0 -12 29 -38 43 -39 14 0 7 23 -10 36 -22 17 -33 17
-33 3z"/>
<path d="M52747 52033 c-4 -3 -7 -11 -7 -17 l0 -10 12 12 c6 6 9 14 7 17 -3 3
-9 2 -12 -2z"/>
<path d="M45050 51893 l0 -8 212 -57 c190 -51 233 -60 216 -43 -6 7 -398 115
-415 115 -7 0 -13 -3 -13 -7z"/>
<path d="M90890 51810 c0 -5 5 -10 10 -10 6 0 92 -38 192 -85 100 -47 183 -83
186 -80 3 3 3 7 1 10 -11 11 -362 175 -375 175 l-14 0 0 -10z"/>
<path d="M90880 51750 l0 -10 13 0 c22 0 219 -92 410 -190 l178 -92 -21 -34
-21 -34 7 -11 7 -12 23 44 c13 24 23 49 24 55 l0 10 -288 142 -288 142 -22 0
-22 0 0 -10z"/>
<path d="M22451 51724 l1 -19 5 13 5 13 -6 6 -6 6 1 -19z"/>
<path d="M22442 51670 l0 -25 5 13 c2 6 2 18 0 25 l-5 12 0 -25z"/>
<path d="M22432 51610 l0 -25 5 13 c2 6 2 18 0 25 l-5 12 0 -25z"/>
<path d="M4167 51587 c4 -8 61 -95 127 -195 l118 -182 9 6 8 5 -76 117 c-42
64 -97 150 -122 189 l-46 73 -13 0 -13 0 8 -13z"/>
<path d="M22421 51554 l1 -19 5 13 5 13 -6 6 -6 6 1 -19z"/>
<path d="M22412 51490 l0 -25 5 13 c2 6 2 18 0 25 l-5 12 0 -25z"/>
<path d="M22402 51420 l0 -35 5 18 c2 9 2 25 0 35 l-5 17 0 -35z"/>
<path d="M34166 51401 l-6 -10 9 -5 10 -6 5 9 6 10 -9 5 -10 6 -5 -9z"/>
<path d="M22390 51370 l0 -13 7 6 6 7 -6 7 -7 6 0 -13z"/>
<path d="M34266 51354 c-8 -29 -3 -39 13 -29 l11 6 0 25 0 24 -9 0 -9 0 -6
-26z"/>
<path d="M6020 51270 c0 -11 93 -372 106 -409 2 -8 7 -12 9 -9 5 4 -103 419
-111 427 -2 2 -4 -2 -4 -9z"/>
<path d="M28386 50999 l-26 -20 0 -39 0 -38 15 -12 c23 -19 27 -7 11 25 l-15
28 9 17 c5 9 16 23 25 30 l16 13 23 -11 24 -11 7 -19 c3 -11 12 -23 19 -25
l14 -6 -9 32 -9 32 -17 13 c-9 6 -27 12 -39 12 l-21 0 -27 -21z"/>
<path d="M27790 50960 l0 -8 63 -6 c34 -3 122 -8 195 -11 l132 -6 0 9 0 10
-117 6 c-65 3 -153 8 -195 11 l-78 4 0 -9z"/>
<path d="M28472 50910 l-12 -20 -20 0 -20 0 0 -10 0 -10 19 0 19 0 23 19 24
20 -10 10 -11 11 -12 -20z"/>
<path d="M33545 50800 c16 -118 126 -804 130 -808 3 -3 5 -1 5 4 1 30 -123
813 -131 829 l-9 20 5 -45z"/>
<path d="M48908 50661 c-115 -58 -208 -109 -208 -114 0 -9 416 199 425 213 l6
10 -8 -2 c-4 0 -101 -49 -215 -107z"/>
<path d="M8020 50669 c0 -5 1 -9 3 -10 20 -5 463 -56 466 -53 12 12 -27 20
-202 40 -105 12 -209 25 -229 27 l-38 5 0 -9z"/>
<path d="M14025 50499 l70 -70 65 -37 c36 -20 128 -82 206 -138 l141 -101 88
-22 c48 -12 90 -20 92 -17 3 3 -15 10 -38 16 -24 6 -66 18 -94 26 l-49 16
-136 97 c-74 54 -164 114 -200 134 l-65 36 -65 66 c-35 36 -69 65 -74 65 l-10
0 69 -71z"/>
<path d="M35850 50447 c0 -15 71 -483 74 -492 l4 -10 1 20 c1 31 -66 476 -73
482 l-6 6 0 -6z"/>
<path d="M50427 50154 c6 -15 23 -19 23 -5 0 5 -7 11 -14 14 l-15 6 6 -15z"/>
<path d="M50477 50109 l13 -13 5 6 6 6 -18 6 -18 7 12 -12z"/>
<path d="M34313 50076 c3 -7 9 -34 12 -60 l7 -46 11 -7 10 -6 -7 52 c-8 62
-15 81 -28 81 l-10 0 5 -14z"/>
<path d="M33813 49980 l-112 -6 -7 -7 c-14 -14 2 -14 136 -6 74 4 186 8 248 8
l112 1 0 10 0 10 -132 -2 c-73 -1 -183 -4 -245 -8z"/>
<path d="M36128 49961 l-166 -16 -9 -9 -8 -8 40 6 c22 3 121 13 220 21 99 9
185 18 190 20 23 8 -112 1 -267 -14z"/>
<path d="M38765 49879 c29 -13 877 -220 883 -215 2 3 -13 9 -34 15 -87 23
-857 211 -863 210 -3 0 3 -5 14 -10z"/>
<path d="M31727 49586 c3 -109 9 -222 13 -250 l8 -51 -5 160 c-3 88 -9 201
-14 250 l-7 90 5 -199z"/>
<path d="M22895 49729 c72 -3 173 -7 225 -6 l95 0 -85 8 c-47 4 -148 7 -225 6
l-140 0 130 -8z"/>
<path d="M38151 49524 c-6 -22 -28 -108 -50 -191 l-39 -153 6 0 c9 0 105 371
98 377 -3 3 -9 -12 -15 -33z"/>
<path d="M36597 49479 l12 -12 216 -47 216 -47 5 8 5 8 -23 6 c-13 3 -106 23
-208 45 -102 22 -196 42 -210 46 l-25 5 12 -12z"/>
<path d="M33721 49475 c0 -5 28 -204 63 -442 l63 -431 -116 -6 c-64 -4 -159
-10 -211 -15 l-95 -8 55 -1 c30 -1 125 3 210 8 l154 10 8 -13 8 -12 0 13 0 12
16 0 16 0 -5 -20 -5 -20 7 0 8 0 29 -205 28 -205 8 0 8 0 -6 28 c-16 92 -53
376 -49 380 3 3 118 11 256 18 l251 13 7 7 6 7 -105 -7 c-58 -3 -178 -9 -267
-12 l-163 -7 0 10 0 10 58 6 c31 4 131 9 222 13 91 4 183 10 205 14 l40 8 -35
0 c-19 1 -136 -5 -260 -12 -124 -7 -226 -12 -228 -11 -1 1 -30 195 -63 431
l-61 429 -9 10 -9 9 5 -29 c3 -17 30 -203 60 -415 31 -212 58 -397 61 -412 l6
-28 -15 0 -15 0 -6 28 c-3 15 -31 203 -61 417 -48 333 -72 473 -74 430z"/>
<path d="M37503 49277 l3 -11 214 -47 c118 -26 217 -46 219 -43 10 10 -18 18
-206 60 -109 24 -206 46 -216 48 l-18 4 4 -11z"/>
<path d="M84926 49134 c161 -208 184 -236 184 -220 0 9 -232 301 -242 305 -6
2 20 -36 58 -85z"/>
<path d="M38080 49151 l0 -9 220 -55 221 -55 -4 11 -3 11 -210 53 c-231 58
-224 57 -224 44z"/>
<path d="M45565 49060 l-90 -91 -78 -51 -78 -51 10 -10 10 -10 68 44 68 43
102 100 102 99 -5 9 c-10 15 -19 8 -109 -82z"/>
<path d="M91439 48708 c-68 -78 -153 -178 -188 -223 -35 -44 -114 -132 -176
-195 -61 -63 -151 -158 -200 -210 l-88 -95 -43 -65 c-64 -98 -116 -161 -478
-570 l-332 -376 -59 -102 -58 -103 -28 -15 -28 -14 -108 -11 c-60 -7 -109 -13
-111 -14 -2 -1 14 -44 34 -94 l36 -91 10 0 10 0 -9 13 c-11 14 -63 143 -63
156 l0 8 93 8 92 7 41 18 42 18 58 103 59 104 305 345 c383 432 428 486 496
587 l54 82 87 93 c48 51 137 145 198 208 62 63 141 151 175 195 58 72 224 267
288 337 14 15 23 30 20 33 -2 3 -61 -59 -129 -137z"/>
<path d="M35785 48670 c-126 -10 -339 -24 -472 -31 l-243 -12 0 -8 0 -7 38 4
c20 2 138 8 262 14 124 5 340 17 480 26 l255 16 20 8 20 9 -65 -1 c-36 0 -168
-9 -295 -18z"/>
<path d="M34788 48656 l-206 -11 -9 -9 -8 -9 150 7 c83 3 194 9 248 13 l97 6
0 8 0 9 -32 -2 c-18 0 -126 -6 -240 -12z"/>
<path d="M16355 48559 l60 -31 43 -42 44 -41 19 -38 20 -38 -7 -45 -6 -44 11
0 11 0 0 50 0 51 -19 37 -19 37 -44 41 -43 42 -52 26 c-29 14 -58 26 -65 26
-7 -1 14 -15 47 -31z"/>
<path d="M43230 48560 l0 -10 20 0 20 0 0 10 0 10 -20 0 -20 0 0 -10z"/>
<path d="M13970 48243 c-197 -57 -207 -60 -199 -67 3 -3 393 105 423 118 l11
4 -20 0 c-11 0 -108 -25 -215 -55z"/>
<path d="M72806 48138 c-19 -96 -142 -684 -152 -728 l-5 -25 9 10 10 10 52
250 c28 138 67 321 86 407 38 176 37 168 26 168 l-8 0 -18 -92z"/>
<path d="M36940 48097 c-377 -22 -687 -41 -689 -43 -2 -2 -2 -5 0 -7 2 -2 292
13 644 34 352 21 664 38 693 38 l52 1 0 10 c0 6 -3 9 -7 9 -5 -1 -316 -20
-693 -42z"/>
<path d="M90807 48068 c-35 -40 -76 -95 -92 -121 -15 -26 -47 -71 -71 -100
-23 -28 -41 -54 -38 -56 7 -7 58 55 118 144 30 44 65 91 79 105 13 15 39 43
57 63 l32 37 -10 0 c-6 0 -39 -33 -75 -72z"/>
<path d="M74980 48055 c0 -13 164 -345 171 -345 l8 0 -58 123 c-95 200 -121
248 -121 222z"/>
<path d="M22390 47602 c8 -5 60 -17 115 -27 55 -9 156 -30 224 -46 68 -16 126
-27 129 -25 10 10 -214 61 -453 102 l-30 5 15 -9z"/>
<path d="M56890 47475 c0 -3 88 -181 195 -395 l195 -390 10 0 10 0 -197 395
c-170 339 -213 418 -213 390z"/>
<path d="M41650 47376 l0 -14 22 -5 21 -6 10 6 10 6 -18 14 c-11 7 -25 13 -32
13 l-13 0 0 -14z"/>
<path d="M29424 47130 c3 -47 8 -140 12 -207 l6 -123 -39 0 c-96 0 -1036 -49
-1041 -54 l-5 -6 24 0 c13 0 255 11 537 25 282 14 516 24 520 24 4 -1 13 -1
21 0 l13 1 -10 13 -11 12 -7 185 -7 185 -9 15 -9 15 5 -85z"/>
<path d="M18370 47198 c0 -10 171 -357 178 -362 4 -2 124 -243 267 -535 142
-292 262 -531 266 -531 9 0 -331 696 -611 1248 -80 158 -100 195 -100 180z"/>
<path d="M20661 47113 l-21 -68 -30 -179 -31 -178 -19 -37 -18 -36 -44 -42
-43 -42 -95 -44 c-52 -24 -160 -68 -240 -97 -136 -49 -260 -104 -260 -115 0
-3 26 7 58 21 31 14 125 50 207 80 83 30 192 74 243 99 51 25 96 45 100 45 5
0 26 19 49 43 l41 42 17 40 16 40 39 210 38 210 16 38 16 37 -9 0 -8 0 -22
-67z"/>
<path d="M46286 46645 c-32 -146 -56 -270 -54 -276 2 -6 30 111 62 260 33 149
57 273 54 276 -2 2 -30 -115 -62 -260z"/>
<path d="M29486 46650 c4 -69 10 -165 14 -215 l8 -90 -5 200 -5 200 -9 15 -8
15 5 -125z"/>
<path d="M20626 46718 c-3 -18 -17 -55 -30 -83 l-24 -50 -48 -46 -49 -46 -77
-33 c-43 -19 -78 -37 -78 -41 l0 -8 96 44 96 43 35 33 35 34 24 54 c23 52 42
131 31 131 -2 0 -8 -15 -11 -32z"/>
<path d="M28617 46724 l-249 -12 -6 -8 -7 -7 115 6 c63 4 184 10 268 13 l152
7 0 8 0 9 -12 -1 c-7 -1 -125 -8 -261 -15z"/>
<path d="M25744 46365 l0 -160 3 83 c2 46 2 118 0 160 l-3 77 0 -160z"/>
<path d="M51620 46498 c0 -5 19 -61 35 -107 l6 -14 10 10 11 11 -11 35 -12 35
-19 17 c-11 10 -20 16 -20 13z"/>
<path d="M34380 46405 c0 -6 4 -17 10 -25 l9 -14 7 7 8 7 -17 17 -17 17 0 -9z"/>
<path d="M80980 46400 l-15 -10 18 0 17 0 0 10 c0 12 -1 12 -20 0z"/>
<path d="M80870 46380 l-25 -8 32 -1 32 -1 6 10 6 10 -13 -1 c-7 -1 -24 -5
-38 -9z"/>
<path d="M50800 46375 c0 -13 163 -315 168 -311 2 3 -29 67 -69 143 -75 143
-99 184 -99 168z"/>
<path d="M57580 46326 c0 -7 36 -88 80 -180 l79 -166 11 0 c5 0 10 2 10 4 0
10 -169 356 -174 356 -3 0 -6 -6 -6 -14z"/>
<path d="M93091 46095 l15 -15 75 -13 76 -14 24 -16 23 -17 51 0 50 0 63 32
c34 18 62 35 62 39 0 4 -30 -8 -67 -27 l-68 -34 -37 0 -37 0 -35 21 -35 20
-68 10 -68 10 -9 9 c-6 6 -15 10 -20 10 l-10 0 15 -15z"/>
<path d="M93060 46071 c0 -4 16 -15 35 -24 l36 -17 32 0 32 0 53 -25 54 -25
54 0 54 0 71 36 c93 47 83 55 -12 9 l-73 -35 -41 0 -40 0 -47 25 -47 25 -38 0
-38 0 -42 20 -43 19 0 -8z"/>
<path d="M81345 45950 l-6 -10 10 0 c6 0 11 5 11 10 0 6 -2 10 -4 10 -3 0 -8
-4 -11 -10z"/>
<path d="M46935 45885 c-198 -67 -328 -100 -430 -109 l-60 -6 -164 30 c-91 16
-166 28 -168 26 -7 -6 21 -13 189 -42 l157 -28 123 18 123 17 220 71 c121 39
224 75 230 79 l9 9 -19 -1 c-11 -1 -105 -30 -210 -64z"/>
<path d="M81372 45893 c-5 -10 -17 -47 -27 -83 -9 -36 -25 -81 -35 -101 l-18
-35 -27 -12 -28 -13 6 -6 6 -6 31 13 31 13 15 36 c18 41 65 211 59 211 -3 0
-8 -8 -13 -17z"/>
<path d="M81316 45849 c-2 -8 -12 -37 -20 -64 -9 -28 -23 -61 -32 -73 l-15
-22 -25 0 -24 0 0 -8 0 -9 23 3 c12 1 28 3 34 3 l13 1 18 38 c22 42 46 132 38
140 -3 3 -8 -1 -10 -9z"/>
<path d="M51946 45775 c10 -37 189 -405 192 -396 2 5 -42 100 -98 212 -55 112
-98 195 -94 184z"/>
<path d="M49580 45600 l0 -10 25 0 25 0 0 10 0 10 -25 0 -25 0 0 -10z"/>
<path d="M49596 45428 c15 -29 30 -65 34 -79 l8 -26 -7 -10 c-3 -6 -57 -36
-118 -67 -62 -31 -113 -58 -113 -61 0 -2 55 22 123 54 l122 57 3 22 3 22 -32
70 -32 70 -9 0 -8 0 26 -52z"/>
<path d="M55165 45317 c-88 -45 -170 -89 -182 -97 l-23 -15 0 -12 0 -11 192
98 193 99 3 10 4 11 -14 0 c-7 -1 -85 -38 -173 -83z"/>
<path d="M6230 44818 c-30 -5 -125 -13 -210 -17 l-155 -8 127 -1 127 -2 113
16 c62 8 115 17 117 20 7 7 -59 2 -119 -8z"/>
<path d="M88165 44183 c-32 -69 -72 -145 -87 -169 l-28 -44 -12 0 -13 0 -40
65 -41 64 -49 -89 c-27 -50 -52 -90 -55 -90 -3 0 -25 32 -50 72 -24 39 -52 79
-62 87 -24 21 -23 25 17 118 19 45 35 87 35 95 -1 13 -51 -96 -75 -164 l-14
-38 17 -12 c18 -14 168 -240 292 -443 87 -141 79 -129 84 -124 3 2 -49 91
-115 198 l-120 193 47 85 47 86 18 -24 c10 -13 26 -39 36 -56 9 -18 24 -35 32
-38 l14 -5 20 17 20 18 74 153 c41 85 73 158 71 162 -2 5 -30 -48 -63 -117z"/>
<path d="M50815 44085 l-110 -93 -62 -34 -63 -33 0 -12 c0 -19 10 -16 76 19
l59 31 116 96 115 97 -4 12 c-2 6 -7 12 -10 11 -4 0 -56 -42 -117 -94z"/>
<path d="M52661 44041 l-13 -9 7 -21 c3 -12 46 -104 95 -206 l89 -185 11 0 c6
0 13 6 16 13 l5 14 -98 201 -98 202 -14 -9z"/>
<path d="M34477 43806 l-48 -144 -40 -57 -40 -57 5 -6 6 -5 21 19 c12 10 32
38 45 60 l25 42 44 133 c46 135 51 159 37 159 l-8 0 -47 -144z"/>
<path d="M87885 43900 c13 -25 207 -333 223 -355 l14 -20 -6 19 c-8 25 -205
337 -224 356 l-15 15 8 -15z"/>
<path d="M51496 43419 c-180 -28 -205 -33 -195 -43 6 -6 426 58 435 67 l7 7
-29 -1 c-16 -1 -114 -14 -218 -30z"/>
<path d="M50735 43256 c-126 -33 -267 -75 -273 -81 -11 -10 16 -4 138 31 69
20 161 45 205 54 l80 18 -30 0 c-16 1 -70 -10 -120 -22z"/>
<path d="M11187 43173 c-2 -5 -7 -21 -11 -38 l-7 -30 10 10 c11 11 26 65 18
65 -3 0 -8 -3 -10 -7z"/>
<path d="M52110 43055 c0 -13 196 -395 202 -395 5 0 -37 90 -92 200 -88 176
-110 215 -110 195z"/>
<path d="M51735 42984 c-198 -29 -364 -53 -369 -53 -5 -1 -7 -3 -4 -6 5 -6
730 93 737 101 2 2 2 5 0 7 -2 1 -166 -21 -364 -49z"/>
<path d="M41778 42847 c-98 -44 -176 -82 -174 -84 3 -4 341 143 355 154 2 2 2
5 0 6 -2 2 -84 -32 -181 -76z"/>
<path d="M42040 42920 l-15 -10 15 0 c8 0 22 5 30 10 l15 10 -15 0 c-8 0 -22
-5 -30 -10z"/>
<path d="M29886 42843 c62 -84 74 -101 123 -185 28 -48 51 -89 51 -91 0 -12
32 -79 35 -75 8 8 -36 112 -73 173 -52 88 -144 215 -155 215 l-9 0 28 -37z"/>
<path d="M29830 42854 c0 -3 38 -61 84 -128 l83 -123 24 -61 c13 -34 27 -62
31 -62 l8 0 -21 51 c-27 71 -31 78 -121 212 -72 107 -88 128 -88 111z"/>
<path d="M50595 42383 l5 -458 -11 -263 -11 -264 10 -10 10 -10 8 189 8 188
-1 425 c0 234 -1 478 -2 543 l-1 117 -10 0 -10 0 5 -457z"/>
<path d="M88579 42705 l20 -35 -22 -14 c-12 -7 -46 -28 -76 -46 -74 -44 -164
-111 -157 -117 2 -3 33 15 68 40 35 24 96 63 136 86 l72 42 -22 39 c-13 22
-27 40 -31 40 l-9 0 21 -35z"/>
<path d="M46325 42429 c-115 -61 -250 -131 -300 -157 -71 -36 -215 -119 -221
-126 -1 0 2 -23 6 -51 l7 -50 2 50 1 50 58 34 c31 18 190 103 352 188 262 138
326 174 310 173 -3 0 -99 -50 -215 -111z"/>
<path d="M91452 42425 c-107 -56 -199 -109 -205 -115 -11 -12 99 44 321 162
84 46 105 59 85 57 -5 0 -95 -47 -201 -104z"/>
<path d="M50835 42489 c-71 -10 -134 -18 -139 -18 l-9 -1 5 -5 5 -6 164 21
c158 20 210 31 138 29 -19 -1 -92 -9 -164 -20z"/>
<path d="M50647 42355 l-5 -114 5 -156 6 -155 8 0 7 0 -1 270 0 270 -7 0 -7 0
-6 -115z"/>
<path d="M52510 42245 c0 -3 16 -42 35 -88 l34 -84 76 -130 c41 -71 75 -134
75 -139 l0 -9 -183 -92 c-100 -51 -176 -93 -169 -93 18 0 372 179 372 188 0 4
-37 73 -83 153 -45 79 -98 179 -116 222 -30 68 -41 88 -41 72z"/>
<path d="M52470 42232 c0 -32 178 -373 202 -388 l10 -6 -17 32 c-9 18 -38 69
-65 114 -26 44 -64 120 -85 169 -35 81 -45 99 -45 79z"/>
<path d="M30115 41964 l4 -81 13 -29 c7 -16 46 -69 87 -119 41 -49 76 -92 78
-94 2 -2 5 -2 8 0 2 3 -27 43 -66 90 -39 46 -79 101 -90 121 l-19 37 -1 53
c-1 29 -5 64 -10 78 l-9 25 5 -81z"/>
<path d="M30340 41663 c0 -8 231 -268 282 -318 l20 -20 -3 12 c-7 20 -299 339
-299 326z"/>
<path d="M30402 41200 l-183 -138 9 -6 9 -6 187 140 c102 77 186 142 186 145
0 18 -46 -12 -208 -135z"/>
<path d="M86380 40590 l-35 -50 -70 -54 c-87 -67 -161 -108 -245 -135 l-65
-21 -168 -24 c-93 -14 -171 -27 -175 -30 l-5 -6 10 0 c5 0 88 11 184 25 l174
24 70 24 70 24 55 34 c30 18 81 54 112 79 l57 45 41 58 c23 31 37 57 33 57 -4
0 -24 -23 -43 -50z"/>
<path d="M91200 40558 c8 -9 82 -52 164 -97 l149 -81 51 1 51 2 -55 7 -55 6
-127 71 c-69 39 -141 79 -160 88 l-33 17 15 -14z"/>
<path d="M51353 40437 l3 -11 210 -53 c219 -55 234 -58 234 -45 l0 7 -225 56
-226 57 4 -11z"/>
<path d="M51357 40403 c-3 -4 -23 -77 -46 -161 -23 -84 -46 -164 -51 -177
l-10 -25 9 0 9 0 41 153 c23 83 46 165 52 181 9 28 6 46 -4 29z"/>
<path d="M84777 39946 c-3 -7 -64 -49 -136 -95 -72 -45 -134 -87 -137 -93 l-7
-11 14 8 c8 5 74 46 147 93 73 46 134 83 136 81 20 -25 181 -271 211 -321 21
-38 43 -68 47 -68 10 0 -88 161 -178 291 -40 59 -71 109 -68 112 3 2 -2 7 -10
10 l-14 6 -5 -13z"/>
<path d="M54451 39756 l-45 -12 -3 -11 -4 -11 51 13 c29 8 54 16 57 18 11 12
-16 13 -56 3z"/>
<path d="M45410 39655 c0 -11 5 -27 10 -35 l10 -15 0 20 c0 11 -5 27 -10 35
l-10 15 0 -20z"/>
<path d="M85090 39552 c0 -15 252 -423 258 -418 2 3 -53 99 -123 213 -144 234
-135 220 -135 205z"/>
<path d="M52065 39399 c-18 -75 -74 -384 -70 -387 3 -3 7 1 9 9 11 33 75 393
71 397 -2 2 -7 -6 -10 -19z"/>
<path d="M42130 39173 c-246 -56 -273 -63 -268 -68 5 -5 460 94 467 101 13 13
-23 7 -199 -33z"/>
<path d="M55305 39110 l-7 -11 22 -24 23 -24 9 5 8 5 -2 -9 -3 -10 150 -105
150 -105 10 9 9 9 -14 14 c-8 7 -76 55 -150 106 -74 51 -149 106 -166 122
l-32 30 -7 -12z"/>
<path d="M51576 39089 c-3 -8 -26 -94 -51 -193 -26 -98 -49 -186 -52 -195 l-6
-16 10 10 11 10 51 194 c28 107 49 197 46 199 -2 3 -7 -1 -9 -9z"/>
<path d="M52020 39023 l0 -8 423 -79 c232 -44 431 -81 442 -84 l20 -5 -10 10
-10 11 -415 76 c-228 42 -423 79 -432 82 l-18 5 0 -8z"/>
<path d="M55346 38701 l-8 -12 58 -65 c31 -36 102 -104 156 -151 l99 -86 11
11 c7 7 10 13 7 15 -41 29 -173 150 -235 215 l-81 86 -7 -13z"/>
<path d="M53780 38693 l0 -9 176 -33 c97 -19 186 -36 198 -39 l21 -5 -10 10
-10 10 -175 33 c-96 18 -181 35 -187 37 l-13 5 0 -9z"/>
<path d="M88620 38360 c10 -20 146 -253 156 -269 2 -2 19 7 39 19 20 12 34 25
31 27 -3 3 -17 -2 -30 -11 -14 -9 -27 -16 -30 -16 -3 0 -38 55 -77 123 -40 67
-79 129 -87 137 l-14 15 12 -25z"/>
<path d="M60040 38096 c0 -2 75 -73 168 -157 92 -85 231 -213 309 -286 78 -73
146 -133 150 -133 9 0 -51 59 -369 358 -205 192 -258 237 -258 218z"/>
<path d="M59625 37747 c-44 -30 -124 -77 -177 -106 -54 -29 -98 -57 -98 -61
l0 -9 78 41 c94 51 240 140 273 167 l24 20 -10 1 c-6 0 -46 -24 -90 -53z"/>
<path d="M86660 37572 c-110 -74 -240 -171 -240 -179 0 -8 63 33 127 85 37 29
106 78 155 109 48 30 88 57 88 59 0 11 -26 -3 -130 -74z"/>
<path d="M92790 37634 c0 -3 5 -15 11 -26 l11 -20 -11 -11 c-14 -14 -14 -27
-1 -27 5 0 14 9 20 19 l10 20 -10 25 -10 26 -10 0 c-5 0 -10 -3 -10 -6z"/>
<path d="M86157 37278 c-125 -83 -226 -153 -223 -155 3 -4 439 278 461 298 l9
9 -9 0 c-6 -1 -113 -69 -238 -152z"/>
<path d="M50910 37107 l0 -15 157 -151 156 -150 8 5 8 4 -124 116 c-68 63
-142 136 -165 161 l-40 46 0 -16z"/>
<path d="M40605 36614 c-369 -82 -531 -113 -675 -127 l-115 -12 -3 -97 -3 -98
8 0 8 0 0 93 0 92 90 6 c119 9 260 35 674 125 l344 75 8 -8 9 -9 70 -484 c73
-506 79 -544 86 -537 2 2 -29 235 -71 518 -41 283 -75 517 -75 522 l0 7 -32
-1 c-18 0 -163 -30 -323 -65z"/>
<path d="M88100 35884 c-102 -63 -191 -119 -199 -123 l-14 -8 10 -6 10 -6 179
111 c178 110 212 133 203 142 -2 3 -87 -47 -189 -110z"/>
<path d="M86487 35769 l-17 -10 5 -8 4 -8 36 11 c19 6 35 14 35 18 l0 8 -22 0
c-13 0 -31 -5 -41 -11z"/>
<path d="M86645 35712 c22 -45 157 -232 167 -232 4 0 8 3 8 6 0 7 -132 190
-166 229 l-26 30 17 -33z"/>
<path d="M86440 35690 l0 -13 7 6 6 7 -6 7 -7 6 0 -13z"/>
<path d="M84067 35111 c-450 -291 -824 -534 -830 -541 l-12 -13 35 20 c19 11
393 251 830 534 l795 513 45 3 45 3 26 -22 26 -23 53 -95 c29 -52 80 -133 115
-180 34 -47 142 -215 240 -375 98 -159 185 -298 193 -308 24 -27 26 -12 4 20
-12 15 -98 154 -192 308 -95 154 -200 318 -235 365 -34 47 -86 128 -115 180
l-52 95 -27 22 -26 22 -50 0 -50 0 -818 -528z"/>
<path d="M84916 35603 c-10 -3 -346 -215 -745 -473 -749 -482 -1711 -1117
-1676 -1105 11 3 236 149 500 324 264 175 803 526 1198 780 l719 461 24 0 24
0 20 -20 c11 -11 33 -45 49 -77 17 -32 44 -78 60 -103 l31 -45 0 17 c0 9 -4
20 -10 23 -5 3 -33 49 -61 101 l-51 94 -21 15 c-22 15 -28 16 -61 8z"/>
<path d="M81120 35575 c0 -2 13 -25 29 -51 l30 -46 148 -156 c82 -87 211 -229
287 -317 77 -88 187 -209 246 -270 l107 -110 53 -75 54 -75 193 -197 193 -197
0 -15 0 -16 14 0 c8 0 16 4 18 9 2 4 84 63 182 130 99 66 174 121 168 121 -7
0 -91 -54 -188 -119 l-176 -120 -31 37 c-17 20 -103 111 -193 202 l-162 165
-57 80 -58 80 -102 105 c-57 58 -170 182 -251 276 -82 94 -217 243 -299 330
-83 87 -161 176 -174 197 -21 34 -31 45 -31 32z"/>
<path d="M79815 35429 l-130 -69 -128 -41 c-70 -23 -125 -44 -123 -47 3 -2 56
13 118 33 l113 38 148 74 c129 64 166 86 140 82 -5 -1 -66 -32 -138 -70z"/>
<path d="M41396 35468 l-16 -22 0 -36 0 -35 152 -447 c84 -247 156 -448 160
-448 l7 0 -40 118 c-161 465 -269 788 -269 806 0 12 7 34 15 50 19 36 13 45
-9 14z"/>
<path d="M80314 34798 c30 -57 115 -215 189 -353 l134 -249 11 -4 11 -3 105
58 c58 32 106 61 106 65 0 3 -45 -18 -100 -48 -55 -30 -106 -54 -113 -54 l-14
0 -184 345 c-101 189 -188 345 -192 345 l-8 0 55 -102z"/>
<path d="M75610 34561 c-117 -52 -277 -137 -285 -152 l-6 -9 6 0 c3 0 43 21
88 47 45 26 136 70 202 99 l120 52 10 -9 c5 -5 13 -9 18 -9 l9 0 -12 15 -12
15 -17 -1 c-9 0 -63 -22 -121 -48z"/>
<path d="M77628 34454 l-168 -84 0 -9 0 -9 168 86 167 86 50 7 50 6 -50 1 -50
1 -167 -85z"/>
<path d="M80540 34465 c0 -3 25 -51 55 -107 30 -55 55 -105 55 -109 0 -5 4 -9
8 -9 12 0 175 89 187 102 5 6 -30 -10 -79 -35 -48 -26 -92 -47 -96 -47 -5 0
-34 47 -65 105 -50 94 -65 117 -65 100z"/>
<path d="M59085 34243 c-99 -62 -187 -118 -195 -124 l-15 -11 19 6 c15 5 361
219 375 232 2 2 2 6 0 7 -2 2 -85 -47 -184 -110z"/>
<path d="M54433 34081 c-105 -14 -195 -29 -199 -33 l-6 -7 33 5 c19 3 116 15
217 28 101 13 186 27 189 30 l6 6 -24 -1 c-13 -1 -110 -13 -216 -28z"/>
<path d="M57880 33704 c0 -5 21 -58 46 -118 l45 -108 15 -87 c16 -95 24 -125
30 -118 2 2 -5 50 -15 108 l-20 104 -45 109 c-46 108 -56 128 -56 110z"/>
<path d="M64590 33218 l0 -13 189 -107 c184 -106 211 -118 211 -98 l0 9 -72
42 c-40 23 -126 73 -190 110 -64 38 -122 69 -127 69 l-11 0 0 -12z"/>
<path d="M78070 33130 c-85 -4 -176 -8 -201 -9 l-47 -1 -6 -16 -6 -16 163 7
c89 3 195 8 235 11 l72 6 0 14 0 14 -27 -2 c-16 -1 -98 -5 -183 -8z"/>
<path d="M78040 32835 l0 -15 163 0 c90 0 198 3 240 6 l77 7 0 8 0 9 -240 0
-240 0 0 -15z"/>
<path d="M79411 32686 c7 -7 362 -146 373 -146 l9 0 -6 7 c-11 11 -185 83
-276 114 -80 27 -110 35 -100 25z"/>
<path d="M34300 32510 c0 -6 7 -25 17 -43 l16 -32 4 12 4 12 -16 30 c-16 32
-25 39 -25 21z"/>
<path d="M98907 31692 c78 -120 270 -392 276 -392 4 0 -33 60 -83 133 -51 72
-115 167 -144 209 -28 43 -55 78 -59 78 l-9 0 19 -28z"/>
<path d="M99490 30887 c3 -3 24 -10 46 -15 l39 -9 20 8 20 8 -31 0 c-17 1 -47
4 -65 7 l-34 7 5 -6z"/>
<path d="M93735 28919 c-104 -77 -192 -145 -194 -150 -2 -6 48 26 110 72 304
221 304 221 282 218 -5 0 -93 -63 -198 -140z"/>
<path d="M15802 27628 l5 -13 224 -32 c230 -33 250 -35 250 -18 l0 9 -228 33
c-125 18 -234 32 -241 33 l-14 0 4 -12z"/>
<path d="M24897 26849 c-9 -52 -19 -121 -22 -154 l-5 -60 9 40 c20 91 43 243
39 255 l-4 13 -17 -94z"/>
<path d="M391 25538 c-6 -46 -22 -152 -35 -236 l-23 -153 11 4 11 4 32 209
c17 115 32 219 32 232 l1 22 -8 0 -9 0 -12 -82z"/>
<path d="M90495 24839 c100 -11 338 -46 373 -55 l22 -6 0 9 0 9 -147 23 -148
23 -95 3 -95 4 90 -10z"/>
<path d="M89100 23311 c0 -12 149 -433 156 -440 18 -18 4 33 -59 224 l-72 218
-13 5 -12 4 0 -11z"/>
<path d="M21816 21979 c-209 -27 -236 -32 -224 -44 5 -5 378 39 436 51 l22 4
0 10 c0 6 -3 9 -7 9 -5 -1 -106 -14 -227 -30z"/>
<path d="M89215 20578 c-258 -236 -472 -434 -474 -441 l-4 -12 39 36 c22 20
221 201 444 404 448 407 476 433 470 438 -3 2 -216 -189 -475 -425z"/>
<path d="M89614 20889 c-44 -40 -133 -123 -199 -184 -66 -62 -164 -152 -217
-201 -54 -48 -98 -92 -98 -97 0 -5 53 40 118 99 123 113 378 344 446 406 l41
36 -6 7 -7 6 -78 -72z"/>
<path d="M10726 20428 c-3 -62 -8 -156 -11 -208 l-4 -95 8 46 c10 53 26 369
19 369 -3 0 -8 -51 -12 -112z"/>
<path d="M90832 18031 l-13 -8 66 -149 c53 -117 110 -234 130 -262 4 -6 35 11
35 19 0 4 -13 30 -28 56 -15 26 -59 117 -96 201 -38 83 -72 152 -75 152 -3 0
-12 -4 -19 -9z"/>
<path d="M7752 17945 c0 -16 3 -39 8 -50 l9 -20 -1 25 c0 14 -4 36 -8 50 l-8
25 0 -30z"/>
<path d="M92901 16963 c5 -17 216 -202 979 -861 360 -311 668 -577 684 -591
l29 -26 -4 12 c-2 7 -311 277 -685 601 -578 499 -785 679 -978 851 l-29 26 4
-12z"/>
<path d="M92140 16394 c0 -6 16 -26 36 -45 l37 -34 -11 20 c-6 11 -22 31 -36
44 l-26 24 0 -9z"/>
<path d="M12813 16036 c-164 -20 -205 -28 -192 -40 2 -2 92 7 199 20 107 13
205 23 218 24 l22 0 0 10 0 10 -32 -1 c-18 -1 -115 -11 -215 -23z"/>
<path d="M96670 12031 c0 -5 74 -73 165 -151 l166 -141 11 3 11 4 -164 140
c-90 77 -170 143 -176 148 l-13 7 0 -10z"/>
<path d="M16310 1237 l0 -14 220 -13 220 -13 7 7 c3 3 4 8 1 11 -4 4 -383 34
-435 35 l-13 0 0 -13z"/>
<path d="M5391 270 l-163 -158 7 -11 6 -11 170 162 c93 89 169 166 169 170 0
4 -6 8 -12 7 l-13 0 -164 -159z"/>
</g>
</svg>
