<?xml version="1.0" standalone="no"?>
<!DOCTYPE svg PUBLIC "-//W3C//DTD SVG 20010904//EN"
 "http://www.w3.org/TR/2001/REC-SVG-20010904/DTD/svg10.dtd">
<svg version="1.0" xmlns="http://www.w3.org/2000/svg"
 width="7500.000000pt" height="7500.000000pt" viewBox="0 0 7500.000000 7500.000000"
 preserveAspectRatio="xMidYMid meet">
<metadata>
Created by potrace 1.16, written by Peter Selinger 2001-2019
</metadata>
<g transform="translate(0.000000,7500.000000) scale(0.075000,-0.075000)"
fill="#000000" stroke="none">
<path d="M90010 99692 l-35 -17 0 -13 c0 -15 5 -15 55 6 l40 17 0 13 0 12 -12
0 c-7 -1 -29 -9 -48 -18z"/>
<path d="M82886 99271 c5 -5 115 -67 244 -139 129 -71 277 -154 327 -185 104
-63 204 -108 278 -126 l50 -11 188 -13 187 -13 0 6 0 6 -207 16 -208 16 -80
31 c-44 17 -111 49 -150 72 -107 63 -625 349 -632 349 -4 0 -3 -4 3 -9z"/>
<path d="M83415 99018 c130 -77 283 -153 292 -144 5 4 -26 19 -92 46 -11 4
-82 44 -159 89 -76 44 -143 81 -150 81 -6 0 43 -32 109 -72z"/>
<path d="M84333 98843 l-173 -3 0 -10 0 -10 53 0 c28 0 116 3 195 7 l142 6 0
9 0 8 -22 -2 c-13 -1 -101 -4 -195 -5z"/>
<path d="M28996 96731 l-6 -9 180 -137 181 -136 11 3 12 4 -163 125 c-90 68
-174 132 -186 142 l-23 18 -6 -10z"/>
<path d="M89205 96313 c-55 -97 -118 -208 -139 -247 l-39 -71 15 15 c8 8 73
116 143 240 70 124 129 228 132 233 l4 7 -8 0 c-4 0 -53 -80 -108 -177z"/>
<path d="M88305 96311 c14 -14 347 -143 353 -136 3 2 -6 9 -19 14 -13 5 -85
32 -159 61 -74 29 -146 57 -160 62 l-25 9 10 -10z"/>
<path d="M88641 96136 c11 -10 390 -168 394 -164 3 3 -82 42 -187 87 -169 71
-223 91 -207 77z"/>
<path d="M57063 93737 c-88 -121 -173 -257 -173 -276 0 -5 4 -12 9 -16 l10 -5
42 72 c23 40 81 127 128 192 47 66 89 125 93 132 l8 12 -14 5 -15 6 -88 -122z"/>
<path d="M87651 93201 c-105 -109 -191 -201 -191 -205 0 -3 90 85 200 196
l199 203 81 -81 c44 -45 82 -79 84 -77 2 3 20 8 39 13 l35 7 263 -97 c224 -83
292 -105 268 -87 -2 2 -124 48 -272 102 l-267 98 -34 -10 -34 -11 -73 74 -73
74 -17 0 -17 0 -191 -199z"/>
<path d="M87715 93208 c-77 -79 -160 -165 -185 -193 -25 -27 40 33 143 135
l187 185 74 -74 75 -75 26 12 c14 7 37 12 50 12 l25 0 470 -171 c259 -94 473
-169 476 -167 2 3 -214 85 -481 182 l-486 176 -27 -6 c-15 -4 -32 -10 -38 -15
l-10 -8 -74 74 c-41 41 -77 75 -80 75 -3 0 -68 -64 -145 -142z"/>
<path d="M20993 92913 l7 -6 7 6 6 7 -13 0 -13 0 6 -7z"/>
<path d="M21033 92903 l7 -6 7 6 6 7 -13 0 -13 0 6 -7z"/>
<path d="M21063 92893 l7 -6 7 6 6 7 -13 0 -13 0 6 -7z"/>
<path d="M21607 92767 l-5 -14 216 -63 c120 -34 223 -65 230 -67 l12 -5 0 15
0 16 -17 5 c-10 3 -105 30 -211 61 -107 31 -200 59 -207 61 l-12 5 -6 -14z"/>
<path d="M86810 92736 c0 -2 54 -39 121 -81 l120 -78 35 34 c19 18 34 37 34
43 l0 10 -33 -32 c-18 -18 -37 -32 -42 -32 -6 0 -57 32 -115 70 -96 64 -120
77 -120 66z"/>
<path d="M89520 92716 c0 -8 442 -148 447 -142 4 4 -424 146 -441 146 -3 0 -6
-2 -6 -4z"/>
<path d="M52706 92522 c5 -5 49 -35 98 -67 l89 -59 49 -60 c28 -33 55 -70 61
-83 5 -13 14 -23 19 -23 l9 0 -23 42 -23 41 -60 62 -60 61 -78 47 c-72 43
-105 59 -81 39z"/>
<path d="M94992 91262 c-17 -21 -50 -74 -73 -118 -23 -43 -49 -86 -56 -96
l-14 -16 9 -6 9 -5 20 22 c12 12 37 54 57 94 l36 72 31 36 32 36 -10 10 -10
10 -31 -39z"/>
<path d="M27401 91066 c9 -9 412 -127 421 -124 6 2 -82 32 -195 66 -186 56
-238 70 -226 58z"/>
<path d="M94780 90882 c0 -4 15 -16 33 -27 17 -10 53 -37 80 -58 26 -22 49
-38 52 -36 6 7 -68 68 -122 102 l-43 27 0 -8z"/>
<path d="M94972 90800 l0 -25 5 13 c2 6 2 18 0 25 l-5 12 0 -25z"/>
<path d="M95030 90644 c62 -69 61 -68 228 -140 l122 -52 0 7 c0 4 -37 22 -82
41 -46 18 -110 47 -142 63 l-60 29 -60 57 -61 56 55 -61z"/>
<path d="M30594 90405 c-7 -19 -14 -42 -14 -52 0 -20 41 -83 54 -83 l9 0 -21
23 c-11 12 -23 33 -27 47 l-6 25 16 38 c8 20 13 37 10 37 -3 0 -13 -16 -21
-35z"/>
<path d="M31080 90047 c0 -3 48 -24 108 -48 l107 -42 88 -17 87 -17 0 7 c0 3
-35 12 -77 19 l-78 13 -100 38 c-55 21 -108 41 -117 45 -10 4 -18 5 -18 2z"/>
<path d="M31471 89886 c2 -2 86 -16 187 -31 l183 -28 12 13 12 13 -17 -6 -18
-6 -162 24 c-160 24 -206 29 -197 21z"/>
<path d="M86360 88980 c41 -5 125 -11 185 -15 l110 -6 65 10 65 9 -135 -1
c-74 0 -187 2 -250 5 l-115 6 75 -8z"/>
<path d="M85810 88950 l0 -10 243 2 242 1 -135 8 c-74 3 -183 7 -242 8 l-108
1 0 -10z"/>
<path d="M85055 88881 c-278 -53 -390 -76 -609 -127 l-149 -35 -106 -10 c-138
-13 -153 -20 -26 -13 l100 6 305 64 c168 35 310 66 317 68 6 3 103 21 215 41
l203 37 10 9 9 9 -9 -1 c-6 -1 -122 -22 -260 -48z"/>
<path d="M84707 87783 c-2 -4 -71 -134 -152 -288 -161 -303 -239 -464 -231
-472 3 -3 10 7 16 23 17 44 102 211 249 488 73 137 130 250 127 253 -2 2 -6 1
-9 -4z"/>
<path d="M84458 87218 c-47 -90 -111 -223 -143 -296 l-58 -134 -14 -5 -13 -5
-63 16 c-34 9 -156 42 -272 75 -190 53 -229 62 -213 46 6 -7 179 -55 397 -111
l174 -45 8 13 c5 7 39 81 75 163 37 83 101 214 142 293 41 79 72 145 70 148
-3 2 -43 -69 -90 -158z"/>
<path d="M56010 87104 c0 -8 170 -425 177 -433 2 -3 8 0 15 7 l11 11 -86 208
-85 208 -16 3 -16 3 0 -7z"/>
<path d="M83600 86959 c0 -38 -234 -1005 -256 -1058 -16 -38 -17 -51 -6 -51
l8 0 22 63 c25 71 108 408 192 777 l58 255 -9 10 c-5 5 -9 7 -9 4z"/>
<path d="M56287 85820 c-176 -26 -207 -33 -196 -44 2 -3 102 9 221 26 l217 31
-5 9 -5 8 -22 -1 c-12 -1 -107 -14 -210 -29z"/>
<path d="M80425 85753 c10 -10 284 -120 358 -143 21 -7 41 -10 43 -7 3 3 -25
15 -63 27 -37 13 -124 45 -193 72 -69 28 -132 53 -140 56 l-15 5 10 -10z"/>
<path d="M56250 85570 l0 -10 195 0 195 0 0 10 0 10 -195 0 -195 0 0 -10z"/>
<path d="M21436 85412 l-5 -9 166 -114 c92 -63 179 -122 194 -132 l27 -18 6
10 6 10 -182 124 c-101 68 -188 127 -195 130 l-12 7 -5 -8z"/>
<path d="M60840 85337 l0 -14 208 -21 207 -22 230 -9 230 -9 38 5 37 5 0 8 0
7 -257 7 -258 7 -175 19 c-96 11 -194 22 -217 25 l-43 6 0 -14z"/>
<path d="M81661 85315 c3 -2 169 -61 370 -129 200 -68 383 -131 407 -140 l42
-15 0 7 c0 7 -796 283 -814 282 -5 0 -7 -2 -5 -5z"/>
<path d="M61306 85235 l6 -15 67 0 c36 0 144 -3 239 -7 l172 -6 0 15 0 15
-182 6 c-99 4 -210 7 -244 7 l-63 0 5 -15z"/>
<path d="M82490 85072 l0 -7 185 -62 185 -61 5 8 5 8 -182 61 c-192 64 -198
66 -198 53z"/>
<path d="M88289 84938 c0 -2 -2 -14 -4 -28 -2 -14 -22 -92 -44 -175 -38 -141
-48 -185 -36 -174 2 3 25 81 49 173 25 93 47 170 49 172 2 2 100 -23 217 -56
l214 -61 15 3 16 4 -225 63 -225 63 -3 9 c-3 8 -21 13 -23 7z"/>
<path d="M80135 84878 c-3 -7 -29 -86 -59 -176 l-55 -162 37 -16 c20 -9 134
-49 252 -90 118 -41 304 -106 413 -144 109 -39 206 -70 215 -69 16 0 -199 78
-680 246 l-218 76 0 11 c0 7 24 85 54 174 30 89 52 162 50 162 -3 0 -7 -6 -9
-12z"/>
<path d="M85728 84774 c-16 -16 -6 -19 62 -21 l70 -2 149 -41 c151 -41 181
-46 181 -32 l0 7 -167 44 -166 44 -61 4 -61 5 -7 -8z"/>
<path d="M82698 84633 l-36 -28 -6 -29 -6 -30 9 -9 10 -10 6 25 7 26 28 27 28
27 43 3 c57 4 56 4 39 15 l-15 10 -36 0 -36 0 -35 -27z"/>
<path d="M80090 84474 c53 -25 406 -146 395 -136 -9 8 -374 139 -415 149 -8 2
1 -4 20 -13z"/>
<path d="M82540 84401 c0 -5 7 -28 15 -52 l16 -43 -7 -81 -6 -80 22 -28 c12
-15 35 -34 51 -42 l29 -16 0 15 0 15 -22 12 c-13 7 -28 19 -35 28 l-12 16 -1
88 0 88 -11 45 -11 44 -14 0 c-8 0 -14 -4 -14 -9z"/>
<path d="M86626 84099 c-3 -13 -10 -98 -16 -189 -6 -91 -13 -183 -16 -205 l-6
-40 9 10 10 10 16 215 c14 199 15 257 3 199z"/>
<path d="M83358 84053 c-25 -27 -52 -61 -61 -78 l-14 -30 -6 -67 -5 -68 8 0
c11 0 20 38 20 83 l0 38 19 37 19 37 41 40 c39 38 50 55 33 55 -4 0 -28 -21
-54 -47z"/>
<path d="M82281 83919 l-72 -162 9 -9 9 -9 72 160 c72 163 78 181 62 181 l-9
0 -71 -161z"/>
<path d="M81800 83871 c0 -6 140 -58 368 -138 l17 -6 -10 10 c-13 14 -375 142
-375 134z"/>
<path d="M78403 83573 c-64 -184 -81 -248 -53 -203 10 16 140 391 140 403 0 4
-3 7 -7 7 l-8 0 -72 -207z"/>
<path d="M78526 83751 c-4 -5 -38 -100 -76 -211 l-70 -202 12 4 12 4 22 65
c12 35 44 128 72 207 l49 142 -8 0 c-4 0 -10 -4 -13 -9z"/>
<path d="M77218 83693 c-62 -90 -826 -1318 -822 -1322 5 -6 -34 -68 404 634
339 544 421 672 461 719 l7 8 112 -37 c61 -20 114 -35 116 -32 6 6 -204 77
-228 77 l-17 0 -33 -47z"/>
<path d="M84153 83523 c18 -27 71 -101 116 -165 45 -65 85 -118 88 -118 3 0
-1 9 -8 20 -150 218 -216 309 -222 310 -5 0 7 -21 26 -47z"/>
<path d="M82110 83401 c0 -11 3 -26 6 -35 l6 -15 34 -11 35 -12 30 13 31 12 9
25 10 25 -10 10 -10 10 -10 -26 -10 -25 -21 -7 -21 -7 -24 6 -23 6 -6 25 -6
25 -10 0 -10 0 0 -19z"/>
<path d="M93006 83139 c-70 -100 -125 -184 -122 -186 2 -2 61 77 131 177 70
100 125 184 122 186 -3 3 -62 -77 -131 -177z"/>
<path d="M96461 82895 c17 -43 196 -385 202 -385 l9 0 -97 188 c-53 103 -102
192 -107 197 l-10 10 3 -10z"/>
<path d="M84655 82803 c33 -68 128 -291 139 -327 l6 -19 6 6 6 5 -38 94 c-50
126 -129 294 -142 302 l-10 6 33 -67z"/>
<path d="M76550 82553 c-63 -102 -116 -193 -118 -202 -2 -9 40 54 93 139 124
198 148 240 144 245 -3 2 -56 -80 -119 -182z"/>
<path d="M92502 82418 c-63 -88 -112 -162 -109 -164 6 -6 229 306 225 316 -2
4 -54 -65 -116 -152z"/>
<path d="M75282 81799 c-40 -117 -71 -214 -68 -216 5 -5 147 408 144 419 -2 5
-36 -87 -76 -203z"/>
<path d="M46854 81133 c6 -34 25 -307 26 -375 l0 -28 11 0 10 0 -6 138 c-3 75
-11 174 -16 220 l-11 82 -10 0 -11 0 7 -37z"/>
<path d="M95538 80478 c-130 -183 -234 -335 -232 -337 5 -6 -19 -39 247 337
130 182 232 332 228 332 -4 0 -114 -150 -243 -332z"/>
<path d="M43032 79879 l-81 -39 -25 -33 -24 -32 -42 -104 -41 -103 6 -6 c7 -8
8 -6 45 88 19 47 44 102 56 122 l23 36 33 24 c18 14 53 33 78 43 49 20 66 32
59 39 -3 3 -42 -13 -87 -35z"/>
<path d="M95601 79832 c2 -6 58 -50 124 -98 66 -48 143 -104 172 -125 l52 -39
5 9 6 9 -170 123 c-93 68 -175 126 -181 128 l-11 4 3 -11z"/>
<path d="M13450 79448 c-41 -116 -77 -216 -79 -222 l-3 -11 10 10 c5 6 29 64
52 130 23 66 57 162 76 213 l33 92 -7 0 c-4 0 -41 -95 -82 -212z"/>
<path d="M13559 79624 c-6 -16 -44 -121 -84 -234 -40 -113 -107 -294 -149
-402 -42 -108 -76 -205 -76 -215 l1 -18 51 130 c76 195 278 759 273 764 -3 2
-9 -9 -16 -25z"/>
<path d="M98782 79390 l-93 -203 4 -10 3 -10 92 203 c51 111 91 207 89 213
l-3 9 -92 -202z"/>
<path d="M42767 79336 c-48 -117 -87 -217 -87 -221 l0 -9 9 10 c6 5 48 102 95
216 l84 208 -7 4 -8 5 -86 -213z"/>
<path d="M99331 78559 l-73 -170 6 -6 6 -6 16 39 c9 21 43 99 75 173 64 147
62 141 51 141 -4 0 -40 -77 -81 -171z"/>
<path d="M13146 78229 c-58 -205 -106 -386 -105 -399 0 -8 29 88 64 215 35
126 62 231 60 233 -2 2 -11 -20 -19 -49z"/>
<path d="M70150 78204 c-63 -13 -139 -29 -168 -35 -30 -6 -51 -13 -49 -16 3
-2 86 12 185 32 l181 36 35 -15 36 -15 0 8 c0 9 -61 31 -86 30 -10 -1 -71 -12
-134 -25z"/>
<path d="M44000 77941 c0 -8 -54 -111 -120 -229 -67 -118 -119 -216 -117 -219
4 -4 30 39 198 338 l53 96 71 -47 70 -48 169 -71 c94 -39 174 -70 179 -68 5 1
-66 35 -159 73 l-169 71 -72 47 -73 47 0 13 0 13 -15 0 -15 0 0 -16z"/>
<path d="M12440 77492 l0 -11 18 -5 c9 -3 103 -24 207 -46 105 -22 198 -43
208 -46 l17 -5 0 13 0 13 -202 44 c-112 24 -213 46 -225 49 l-23 4 0 -10z"/>
<path d="M71580 77070 l0 -10 245 0 245 0 0 10 0 10 -245 0 -245 0 0 -10z"/>
<path d="M30230 76450 l0 -10 45 0 45 0 0 10 0 10 -45 0 -45 0 0 -10z"/>
<path d="M17471 76219 c-117 -15 -216 -31 -219 -34 -3 -3 -2 -8 1 -12 l7 -6
97 12 c54 6 153 19 221 28 l122 16 0 13 c0 8 -3 14 -7 13 -5 -1 -104 -14 -222
-30z"/>
<path d="M30170 75102 c0 -4 44 -26 98 -49 l97 -41 107 -26 c59 -14 115 -26
125 -26 l17 0 -9 9 c-6 4 -62 21 -125 36 l-115 28 -89 39 c-93 39 -106 43
-106 30z"/>
<path d="M64450 74903 l0 -10 158 -7 c86 -3 190 -9 230 -13 l72 -6 0 10 0 10
-72 6 c-40 4 -144 9 -230 13 l-158 7 0 -10z"/>
<path d="M33276 74212 l-5 -8 222 -53 c238 -57 438 -113 496 -139 49 -22 119
-82 221 -188 47 -49 105 -108 130 -132 60 -58 140 -100 140 -73 0 5 -15 14
-32 22 l-33 13 -130 131 c-71 72 -155 152 -186 178 l-56 47 -46 20 c-68 30
-215 72 -474 134 -261 63 -240 59 -247 48z"/>
<path d="M71365 72150 c-4 -6 -5 -12 -4 -13 2 -1 14 -10 26 -20 l21 -18 6 9 5
9 -23 22 -24 23 -7 -12z"/>
<path d="M71456 72061 l-6 -8 19 -17 19 -17 7 11 7 11 -12 14 c-14 17 -26 19
-34 6z"/>
<path d="M71536 71992 l-5 -9 42 -41 42 -41 35 -6 35 -6 38 16 37 15 0 11 0
11 -17 -7 c-10 -4 -39 -10 -64 -12 l-47 -5 -45 41 -45 42 -6 -9z"/>
<path d="M30420 70890 c0 -5 15 -17 33 -26 17 -9 59 -35 91 -57 32 -22 102
-60 154 -84 l94 -44 17 6 16 7 -104 49 c-57 27 -125 64 -151 83 -52 38 -123
76 -140 76 -5 0 -10 -4 -10 -10z"/>
<path d="M74484 70305 c3 -16 22 -120 42 -230 33 -184 44 -232 44 -194 0 30
-78 440 -85 447 l-7 7 6 -30z"/>
<path d="M13530 69862 c0 -15 798 -448 807 -438 2 2 -42 29 -99 59 -57 30
-190 101 -297 157 -107 56 -243 131 -303 166 -59 34 -108 59 -108 56z"/>
<path d="M74050 69235 c-118 -30 -219 -54 -224 -54 -5 -1 -7 -3 -4 -6 7 -7
440 95 453 106 l9 9 -9 -1 c-6 -1 -107 -25 -225 -54z"/>
<path d="M33570 69082 c0 -10 -5 -23 -12 -30 l-12 -12 11 -11 11 -11 11 6 11
7 0 35 0 34 -10 0 -10 0 0 -18z"/>
<path d="M19925 69023 c-115 -24 -212 -46 -214 -49 -2 -2 -2 -7 1 -10 l6 -6
216 46 c118 25 218 46 221 46 3 0 5 5 5 10 l0 10 -12 -1 c-7 0 -107 -21 -223
-46z"/>
<path d="M9148 68526 c-109 -45 -201 -86 -205 -89 l-6 -7 10 0 c11 0 414 167
421 175 17 17 -47 -6 -220 -79z"/>
<path d="M38440 68421 c8 -5 107 -46 218 -91 l204 -82 5 6 6 5 -24 10 c-13 5
-109 43 -214 85 -104 42 -194 76 -200 76 l-10 -1 15 -8z"/>
<path d="M87380 67968 c-69 -61 -143 -126 -164 -144 -22 -19 -35 -34 -30 -34
9 0 255 209 314 266 l25 24 -10 -1 c-6 0 -66 -50 -135 -111z"/>
<path d="M27355 67905 l-80 -13 -85 -30 c-47 -17 -80 -31 -74 -31 6 -1 43 10
82 23 l71 25 104 15 104 15 114 -4 c63 -3 191 -6 284 -9 l170 -3 -40 7 -40 8
-265 6 -265 5 -80 -14z"/>
<path d="M41305 67728 c-38 -106 -71 -209 -75 -229 l-7 -37 14 5 13 5 0 21 c0
12 32 110 70 218 75 211 74 209 62 209 l-9 0 -68 -192z"/>
<path d="M41357 67710 c-37 -104 -70 -202 -73 -218 l-6 -30 11 -6 11 -7 0 21
c0 11 32 109 70 217 l70 197 -7 7 -8 8 -68 -189z"/>
<path d="M6465 67314 l-89 -74 -106 -2 -105 -2 105 -5 105 -6 73 60 c41 33 83
68 95 77 12 9 19 19 17 22 -3 2 -46 -29 -95 -70z"/>
<path d="M45805 67243 c-49 -82 -117 -191 -151 -242 -35 -52 -61 -97 -59 -100
7 -6 4 -10 77 104 102 158 230 376 225 381 -2 2 -44 -62 -92 -143z"/>
<path d="M41290 67309 l0 -9 20 0 c11 0 20 2 20 4 0 2 -9 6 -20 9 l-20 5 0 -9z"/>
<path d="M94344 67035 c2 -16 19 -122 36 -235 l33 -205 9 -10 9 -10 -5 25 c-3
14 -20 113 -36 220 -17 107 -35 206 -41 220 l-9 25 4 -30z"/>
<path d="M51650 66993 c1 -10 398 -278 404 -272 3 3 -325 231 -391 272 l-13 8
0 -8z"/>
<path d="M55377 66926 l-16 -24 -16 -125 c-16 -130 -18 -174 -10 -166 2 3 12
68 20 145 l16 139 20 28 20 27 -10 0 c-5 0 -16 -11 -24 -24z"/>
<path d="M45490 66834 c-75 -103 -240 -363 -240 -378 l0 -10 14 19 c7 11 44
70 81 130 37 61 101 156 142 213 41 57 73 105 70 108 -2 2 -33 -34 -67 -82z"/>
<path d="M38465 66874 c-110 -7 -209 -13 -219 -13 l-19 -1 5 -6 6 -5 226 12
226 12 0 9 c0 4 -6 7 -12 7 -7 -1 -103 -8 -213 -15z"/>
<path d="M41270 66366 c0 -3 57 -41 128 -86 70 -45 235 -153 367 -240 365
-241 855 -553 860 -548 3 2 -132 91 -300 198 -167 107 -339 219 -382 250 -124
88 -655 430 -668 430 -3 0 -5 -2 -5 -4z"/>
<path d="M41596 66261 c5 -5 82 -57 172 -116 l164 -106 -14 -17 c-7 -9 -17
-20 -23 -24 l-10 -8 12 0 c6 0 18 9 26 21 l15 21 128 -89 c325 -225 588 -392
600 -380 3 2 -39 29 -93 60 -54 30 -147 90 -208 133 -255 179 -371 258 -563
382 -183 119 -235 150 -206 123z"/>
<path d="M48711 66257 c44 -36 432 -298 435 -294 7 6 -411 297 -427 297 -7 0
-10 -2 -8 -3z"/>
<path d="M97515 66138 c3 -12 23 -105 44 -206 21 -100 41 -185 45 -189 17 -18
12 20 -27 207 l-43 204 -12 4 -13 4 6 -24z"/>
<path d="M92450 66097 c0 -85 65 -435 84 -455 15 -15 13 11 -8 96 l-24 92 -17
145 -18 145 -9 0 -8 0 0 -23z"/>
<path d="M94503 66090 c3 -14 17 -104 32 -200 14 -96 30 -184 36 -195 l9 -20
-4 30 c-2 17 -17 111 -32 210 l-27 180 -10 10 -10 10 6 -25z"/>
<path d="M44989 65967 c-37 -56 -75 -114 -84 -129 l-17 -28 9 0 c10 0 168 248
162 254 -2 3 -34 -41 -70 -97z"/>
<path d="M46962 65528 c-56 -84 -99 -154 -97 -157 6 -6 -2 -18 114 157 56 83
97 152 93 152 -5 0 -54 -68 -110 -152z"/>
<path d="M41093 65342 l-11 -7 106 -182 c97 -167 122 -203 122 -173 0 6 -46
91 -103 190 l-103 178 -11 -6z"/>
<path d="M38516 65190 l30 -20 374 -60 c206 -33 376 -58 378 -55 7 6 -15 10
-398 71 l-355 56 -20 14 c-10 8 -24 14 -30 14 -5 0 4 -9 21 -20z"/>
<path d="M38421 64932 c-17 -141 -34 -267 -37 -279 l-4 -23 8 0 8 0 33 275
c19 151 32 277 29 280 -2 3 -19 -111 -37 -253z"/>
<path d="M48625 65032 c9 -9 81 -41 310 -139 44 -19 76 -30 70 -24 -8 8 -158
75 -355 158 l-35 15 10 -10z"/>
<path d="M74786 64968 c-17 -184 -30 -446 -22 -437 7 7 38 490 33 496 -3 2 -8
-24 -11 -59z"/>
<path d="M3617 64898 l-5 -53 9 -9 9 -10 0 62 c0 34 -2 62 -4 62 -2 0 -6 -24
-9 -52z"/>
<path d="M3656 64934 c-3 -9 -6 -33 -6 -55 l0 -39 10 0 10 0 0 55 c0 57 -3 66
-14 39z"/>
<path d="M47371 64766 c10 -9 411 -177 415 -173 2 2 -87 43 -199 90 -178 77
-231 97 -216 83z"/>
<path d="M37184 64725 c-4 -9 -5 -18 -3 -20 2 -2 96 -15 209 -29 113 -15 215
-29 228 -31 l22 -5 0 20 0 20 -22 4 c-13 3 -97 14 -188 26 -91 11 -182 23
-202 26 l-38 6 -6 -17z"/>
<path d="M36605 64672 c-3 -8 -3 -17 -1 -19 3 -3 76 -20 163 -38 87 -18 205
-45 263 -59 l105 -26 190 -23 190 -23 3 14 4 15 -11 7 c-7 3 -82 14 -169 24
l-157 17 -145 35 c-80 19 -209 47 -287 63 l-142 28 -6 -15z"/>
<path d="M44671 64566 c7 -7 469 -166 481 -166 l12 0 -9 9 c-6 4 -112 43 -238
85 -204 68 -260 84 -246 72z"/>
<path d="M1441 64511 l-13 -8 16 -6 15 -6 40 -78 c22 -43 52 -91 66 -107 l26
-28 6 5 5 6 -30 38 c-16 21 -46 70 -65 110 -20 39 -40 74 -45 77 l-8 5 -13 -8z"/>
<path d="M40695 64505 c25 -66 83 -245 88 -272 l7 -33 -65 0 -65 0 0 -10 0
-10 68 -1 c37 -1 70 -1 75 0 4 1 148 -15 320 -34 l312 -36 120 -25 c66 -13
129 -27 140 -30 l20 -6 -10 10 -10 11 -150 29 -150 30 -297 33 -297 33 -7 40
c-8 52 -83 268 -97 281 l-10 10 8 -20z"/>
<path d="M77173 64306 c4 -95 10 -187 13 -205 l7 -31 9 0 10 0 -6 28 c-3 15
-9 107 -12 205 l-7 177 -10 0 -10 0 6 -174z"/>
<path d="M40240 64118 c0 -36 4 -35 14 5 l6 27 -10 0 -10 0 0 -32z"/>
<path d="M40072 64085 l-12 -25 9 0 c4 0 13 11 19 25 l12 25 -9 0 c-4 0 -13
-11 -19 -25z"/>
<path d="M89366 64018 c-63 -72 -58 -82 7 -13 l52 55 85 -100 c47 -55 89 -100
93 -100 10 0 -12 28 -103 133 l-65 76 -12 0 -11 1 -46 -52z"/>
<path d="M41820 63915 l0 -15 23 0 c12 0 56 -13 98 -30 69 -27 360 -120 375
-120 3 0 4 5 2 11 l-4 11 -234 79 c-129 43 -241 78 -247 79 l-13 0 0 -15z"/>
<path d="M43512 63690 c-72 -110 -128 -200 -124 -200 10 0 266 389 260 396 -3
2 -64 -86 -136 -196z"/>
<path d="M90097 63644 c-152 -133 -183 -164 -159 -164 5 0 84 65 176 146 l167
145 -6 10 c-4 5 -7 9 -8 9 -1 0 -77 -66 -170 -146z"/>
<path d="M41710 63630 l0 -13 7 6 6 7 -6 7 -7 6 0 -13z"/>
<path d="M41270 63574 c0 -9 233 -273 254 -286 26 -17 24 -6 -3 20 -16 15 -75
79 -131 142 -57 63 -107 119 -111 125 l-9 9 0 -10z"/>
<path d="M41760 63575 c0 -5 15 -25 34 -45 19 -19 77 -93 130 -164 l95 -128
233 -264 c127 -145 234 -261 237 -259 2 3 -7 18 -21 33 -14 15 -114 128 -222
251 l-198 224 -98 131 c-102 136 -189 238 -190 221z"/>
<path d="M40621 63521 l-14 -9 9 -13 c4 -8 280 -321 612 -696 l603 -683 14 0
c8 0 16 4 19 9 l5 8 -590 669 c-325 368 -603 681 -617 696 l-27 27 -14 -8z"/>
<path d="M23631 63463 c-32 -54 -151 -306 -147 -310 3 -3 41 68 86 157 45 89
79 164 76 167 -2 3 -9 -3 -15 -14z"/>
<path d="M16357 63315 l-17 -36 0 -39 0 -40 29 -32 29 -33 7 7 7 7 -26 31 -26
32 0 31 1 32 14 25 c8 14 14 31 15 38 0 23 -16 12 -33 -23z"/>
<path d="M41996 63338 c27 -48 514 -602 521 -594 3 3 -50 67 -118 143 -220
247 -316 357 -358 411 -38 48 -62 69 -45 40z"/>
<path d="M41575 63170 c3 -5 8 -10 11 -10 2 0 4 5 4 10 0 6 -5 10 -11 10 l-10
0 6 -10z"/>
<path d="M40797 63145 l-17 -12 151 -169 c83 -93 154 -170 158 -172 5 -1 13 3
19 10 l10 13 -152 171 -153 171 -16 -12z"/>
<path d="M41545 63140 c3 -5 11 -10 16 -10 l10 0 -6 10 c-3 6 -11 10 -16 10
l-10 0 6 -10z"/>
<path d="M40907 63104 l-6 -6 17 -27 c21 -33 82 -108 82 -100 0 14 -44 105
-58 122 -16 18 -25 21 -35 11z"/>
<path d="M81157 63104 l-6 -7 14 -28 15 -28 0 -54 0 -53 -31 -43 -32 -42 -88
-45 -89 -44 0 -10 c0 -15 3 -14 93 31 l82 41 28 27 c16 14 35 38 43 53 l14 27
0 61 0 61 -15 29 c-17 32 -18 33 -28 24z"/>
<path d="M13545 63079 c-77 -4 -161 -10 -188 -14 l-47 -7 -6 -9 -5 -9 13 0 c7
0 29 4 47 10 l35 10 230 7 c282 10 390 10 436 0 l35 -7 -30 15 -30 15 -175 -3
c-96 -1 -238 -5 -315 -8z"/>
<path d="M15077 63023 c-4 -3 -7 -19 -7 -34 l0 -28 10 -6 11 -7 -2 41 c-2 23
-4 41 -4 41 -1 0 -5 -3 -8 -7z"/>
<path d="M15030 62993 l0 -32 10 -6 10 -6 0 23 c0 13 -5 30 -10 38 l-10 15 0
-32z"/>
<path d="M89270 62929 c-50 -50 -89 -93 -86 -96 2 -3 38 29 78 70 90 91 113
117 105 117 -4 0 -47 -41 -97 -91z"/>
<path d="M58673 62933 c-29 -16 -144 -91 -257 -168 l-204 -140 12 -7 11 -7 3
9 c6 16 373 265 442 300 l64 32 106 -6 c58 -4 125 -9 150 -12 l45 -5 -15 10
-16 10 -144 6 -145 6 -52 -28z"/>
<path d="M16000 62909 l25 -12 145 -2 145 -3 -125 8 c-69 4 -145 10 -170 14
l-45 6 25 -11z"/>
<path d="M59950 62859 l0 -6 163 -12 c89 -6 191 -14 227 -18 l65 -6 -7 7 -6 8
-221 17 -221 17 0 -7z"/>
<path d="M41013 62839 c3 -10 11 -35 18 -58 7 -23 18 -46 26 -53 l13 -11 6 6
5 5 -12 41 -12 40 -25 23 -25 23 6 -16z"/>
<path d="M58408 62716 c-97 -66 -177 -125 -178 -130 l0 -8 14 5 c18 7 366 247
366 253 0 15 -45 -12 -202 -120z"/>
<path d="M12530 62800 l-45 -8 165 6 c91 2 167 6 169 8 8 7 -243 1 -289 -6z"/>
<path d="M40270 62776 c45 -43 406 -336 415 -336 l10 1 -16 12 c-8 7 -103 85
-211 175 -108 89 -200 162 -204 162 -5 0 -2 -6 6 -14z"/>
<path d="M10227 62745 c-11 -27 -8 -32 8 -11 l14 18 223 -17 223 -16 188 7
188 7 3 6 4 6 -281 0 -282 0 -141 9 -141 8 -6 -17z"/>
<path d="M10270 62714 c8 -3 102 -10 208 -17 l193 -13 4 6 4 7 -187 11 c-103
7 -198 12 -212 11 l-25 -1 15 -4z"/>
<path d="M42175 62474 c-104 -90 -192 -169 -194 -175 -2 -7 68 49 155 124 229
195 240 205 234 210 -3 2 -90 -69 -195 -159z"/>
<path d="M58294 62592 c7 -12 356 -156 362 -149 4 4 -58 31 -334 144 l-34 14
6 -9z"/>
<path d="M16980 62416 l0 -11 166 -100 c92 -55 171 -102 177 -104 l10 -3 -4
11 c-2 6 -82 58 -176 115 l-173 104 0 -12z"/>
<path d="M89022 62421 c2 -5 81 -75 176 -156 l174 -146 11 4 11 3 -180 152
c-98 84 -183 152 -187 152 l-9 0 4 -9z"/>
<path d="M40725 62400 l6 -10 27 1 27 0 -20 9 c-11 5 -26 9 -33 9 l-13 1 6
-10z"/>
<path d="M36217 62393 c-11 -3 -85 -52 -165 -110 l-147 -105 -33 6 -32 5 5
-10 6 -9 33 0 34 0 148 105 c81 58 154 105 161 105 l13 0 0 10 c0 6 -1 9 -2 9
-2 -1 -11 -3 -21 -6z"/>
<path d="M89015 62351 c17 -16 97 -86 179 -155 l149 -125 9 5 c5 3 8 7 6 9
-120 105 -352 295 -361 295 l-12 0 30 -29z"/>
<path d="M57533 62082 c-123 -96 -221 -177 -218 -180 2 -2 97 69 211 159 114
90 215 169 223 176 9 6 14 14 11 16 -3 3 -105 -74 -227 -171z"/>
<path d="M29417 62233 c-3 -4 -37 -87 -75 -183 -39 -96 -78 -192 -87 -212
l-15 -38 8 0 9 0 87 216 c48 119 85 218 83 221 -3 2 -7 1 -10 -4z"/>
<path d="M94260 61952 c-25 -31 -85 -101 -134 -155 -49 -54 -86 -100 -83 -103
9 -10 185 181 269 293 l9 11 -8 5 -8 5 -45 -56z"/>
<path d="M94370 61943 c0 -5 64 -49 143 -99 l142 -91 75 -31 c137 -56 422
-162 433 -162 l12 1 -15 8 c-8 5 -123 50 -255 101 l-240 92 -60 37 c-33 21
-99 64 -147 95 -49 31 -88 53 -88 49z"/>
<path d="M40097 61872 c-23 -22 -69 -55 -103 -74 l-60 -35 -97 -24 c-53 -12
-97 -26 -97 -30 l0 -7 108 28 107 27 46 27 c25 14 72 48 103 76 l57 50 -11 0
c-6 0 -29 -17 -53 -38z"/>
<path d="M59856 61814 c-32 -36 -101 -126 -152 -201 l-94 -136 0 -15 0 -16 31
50 c61 95 173 250 227 312 30 34 53 65 50 67 -2 3 -31 -25 -62 -61z"/>
<path d="M25452 61862 c9 -4 31 -27 49 -52 18 -25 49 -64 70 -87 21 -23 77
-95 125 -160 48 -65 137 -176 198 -248 60 -71 111 -132 113 -134 2 -2 5 -2 8
0 2 3 -43 61 -101 130 -58 68 -145 178 -192 243 -48 66 -107 142 -132 170 -26
28 -61 72 -80 99 l-33 47 -21 -1 -21 0 17 -7z"/>
<path d="M43661 61664 c-127 -113 -231 -208 -231 -210 0 -11 25 10 245 206
130 116 232 210 226 210 -5 0 -113 -93 -240 -206z"/>
<path d="M57314 61861 c3 -4 112 -54 243 -111 131 -56 325 -140 432 -187 106
-46 197 -83 202 -81 5 2 -73 39 -174 82 -100 44 -216 95 -257 114 -106 48
-439 192 -445 192 l-6 0 5 -9z"/>
<path d="M59875 61775 c-38 -47 -73 -85 -77 -85 -5 0 -8 -5 -8 -10 0 -6 -24
-47 -53 -93 -29 -45 -64 -100 -77 -121 l-24 -40 11 7 c6 4 44 59 84 123 l74
116 72 85 c61 70 85 106 71 102 -2 0 -34 -38 -73 -84z"/>
<path d="M57281 61758 c-20 -46 -63 -140 -95 -209 l-57 -126 -145 -107 c-79
-59 -144 -109 -144 -113 l0 -5 15 6 c8 3 77 53 154 110 l139 105 8 23 c3 13
38 93 77 178 90 199 98 220 92 220 -3 0 -23 -37 -44 -82z"/>
<path d="M38781 61746 c2 -2 60 -20 127 -40 l124 -35 116 -5 117 -5 -50 9
c-27 4 -77 9 -110 9 l-60 1 -124 35 c-119 33 -149 40 -140 31z"/>
<path d="M57771 61705 c10 -9 434 -193 438 -189 7 6 9 5 -214 102 -189 83
-238 102 -224 87z"/>
<path d="M20702 61669 l-42 -21 -18 -27 c-35 -49 -84 -142 -79 -147 3 -3 22
25 43 63 41 72 74 109 114 126 l25 11 105 6 105 7 -105 1 -105 2 -43 -21z"/>
<path d="M56277 61627 l-19 -32 26 24 25 24 -5 8 c-7 12 -7 13 -27 -24z"/>
<path d="M92183 61549 l42 -92 94 -93 c51 -52 97 -94 102 -94 5 0 -36 45 -90
100 l-98 99 -39 86 c-21 47 -41 85 -45 85 -4 0 11 -41 34 -91z"/>
<path d="M22312 61605 c3 -3 90 -34 193 -70 l188 -64 8 5 c5 3 9 9 9 14 l0 8
-17 -4 -18 -5 -175 61 c-164 57 -200 67 -188 55z"/>
<path d="M54550 61374 c0 -17 210 -928 215 -933 11 -10 1 35 -100 475 -92 404
-115 494 -115 458z"/>
<path d="M93514 61092 l-261 -267 -17 -32 c-31 -62 -11 -58 32 5 l28 43 247
254 c136 139 247 256 247 259 0 18 -37 -18 -276 -262z"/>
<path d="M61204 61125 c14 -49 183 -865 346 -1672 l178 -883 -37 -9 c-20 -6
-108 -28 -196 -51 -88 -22 -168 -45 -177 -50 -9 -5 -203 -48 -430 -96 l-413
-86 -55 -4 -55 -3 -150 56 c-82 30 -168 62 -190 70 l-40 14 10 -10 c6 -5 90
-39 188 -75 l178 -65 62 3 62 4 395 81 c217 45 411 88 430 96 34 14 361 100
410 109 l25 4 -4 13 c-4 14 -106 523 -239 1194 -39 193 -118 577 -177 855
l-107 505 -10 10 -10 10 6 -20z"/>
<path d="M61243 61125 c6 -23 84 -393 156 -744 l51 -244 -6 -9 -7 -10 10 -7 9
-6 41 -195 c23 -107 61 -287 85 -399 l43 -204 3 16 c2 9 -15 106 -38 214 -82
396 -119 578 -117 579 1 1 173 37 382 79 209 42 493 100 632 128 l252 52 8 9
8 9 -25 -6 c-14 -3 -299 -61 -634 -127 l-608 -121 -12 4 -12 5 -52 248 c-91
439 -157 733 -166 741 l-8 8 5 -20z"/>
<path d="M45296 60970 c-70 -60 -123 -110 -117 -110 6 0 63 46 128 102 65 56
120 103 122 105 2 2 2 5 -1 8 -3 3 -62 -44 -132 -105z"/>
<path d="M31200 60983 c0 -6 7 -77 16 -159 l16 -149 -6 -70 -5 -70 9 25 c4 14
8 54 9 90 1 72 -25 329 -33 338 l-6 5 0 -10z"/>
<path d="M60720 60761 l-95 -26 -97 -55 c-54 -30 -98 -58 -98 -62 0 -4 46 19
103 51 l102 57 90 23 c50 13 94 27 100 32 l9 9 -9 -1 c-6 -1 -53 -13 -105 -28z"/>
<path d="M44991 60725 c0 -5 69 -82 154 -170 85 -88 155 -155 155 -150 -1 6
-70 82 -155 170 -85 88 -154 156 -154 150z"/>
<path d="M47189 60675 l-5 -10 11 -240 12 -240 8 -17 c4 -10 11 -18 16 -18
l10 0 -11 20 -11 20 -9 203 c-6 111 -11 222 -12 247 l-3 45 -6 -10z"/>
<path d="M86130 60574 c0 -3 64 -77 143 -163 78 -86 160 -178 182 -206 59 -75
286 -315 298 -315 5 0 -37 48 -94 108 -57 59 -138 148 -179 197 -72 87 -341
385 -347 385 -2 0 -3 -3 -3 -6z"/>
<path d="M57310 60455 c0 -2 12 -35 26 -72 14 -38 31 -95 37 -127 l13 -60 11
-3 11 -4 -13 63 c-8 35 -26 96 -41 136 l-26 72 -9 0 c-5 0 -9 -2 -9 -5z"/>
<path d="M59867 60248 c-92 -78 -165 -143 -162 -146 3 -4 270 214 330 270 l19
18 -9 0 c-6 -1 -85 -64 -178 -142z"/>
<path d="M59895 60220 c-147 -125 -192 -168 -152 -144 19 13 327 275 327 280
0 10 -19 -4 -175 -136z"/>
<path d="M44410 60199 c-74 -67 -137 -126 -139 -133 l-4 -11 29 25 c70 62 231
205 249 222 l19 18 -9 0 c-6 0 -71 -55 -145 -121z"/>
<path d="M48574 60262 c3 -6 86 -72 184 -148 97 -75 180 -140 184 -143 l7 -6
-120 -159 c-65 -88 -117 -162 -114 -164 3 -3 7 -3 8 -1 2 2 52 69 112 149 59
80 115 151 123 158 l16 12 -10 8 c-19 17 -370 288 -383 296 l-14 9 7 -11z"/>
<path d="M62118 60222 c-120 -25 -216 -48 -213 -50 2 -3 104 15 225 39 l220
43 0 8 c0 10 23 14 -232 -40z"/>
<path d="M58636 60229 c-59 -14 -57 -20 5 -13 l54 6 122 -248 c144 -296 173
-360 173 -385 l0 -19 14 0 c8 0 16 4 18 8 2 4 19 19 38 32 89 63 291 220 283
220 -5 0 -79 -52 -163 -115 -84 -63 -158 -115 -164 -115 l-11 0 -69 158 c-38
86 -107 230 -153 320 l-84 162 -12 -1 c-7 -1 -30 -5 -51 -10z"/>
<path d="M46095 59958 l-220 -222 160 151 c198 187 303 293 290 293 -6 0 -109
-100 -230 -222z"/>
<path d="M61203 60036 l-191 -41 -9 -9 -8 -9 15 5 c8 3 102 22 208 44 l192 39
0 7 c0 10 22 14 -207 -36z"/>
<path d="M48861 59784 c-68 -90 -122 -166 -120 -169 4 -3 191 237 247 316 l13
19 -8 0 c-4 -1 -64 -75 -132 -166z"/>
<path d="M83346 59918 c29 -59 218 -358 226 -358 4 0 -35 68 -87 150 -53 83
-105 171 -117 195 -12 25 -26 45 -30 45 l-9 0 17 -32z"/>
<path d="M58810 59913 c0 -6 30 -75 66 -154 36 -79 73 -159 81 -178 8 -18 16
-31 19 -28 4 4 -151 355 -162 366 -2 2 -4 0 -4 -6z"/>
<path d="M59225 59699 c-71 -55 -149 -111 -173 -126 -44 -26 -52 -44 -10 -22
25 13 328 240 328 246 0 11 -28 -8 -145 -98z"/>
<path d="M61994 59785 c3 -11 21 -92 40 -180 l35 -160 -10 -3 c-13 -5 -11 -22
4 -22 l12 0 39 -182 39 -183 9 -10 10 -10 -5 20 c-18 66 -79 366 -75 370 2 3
90 23 194 45 205 44 228 50 222 56 -3 2 -98 -17 -213 -41 -114 -25 -209 -44
-211 -42 -1 1 -19 79 -39 172 l-37 170 -10 10 -10 10 6 -20z"/>
<path d="M61954 59770 c3 -14 22 -101 42 -195 33 -158 44 -198 44 -165 0 30
-74 366 -82 375 l-9 10 5 -25z"/>
<path d="M83610 59573 c0 -6 45 -91 101 -190 136 -240 503 -938 519 -988 l13
-40 4 11 c7 21 -37 115 -198 422 -131 248 -419 773 -435 791 -2 2 -4 -1 -4 -6z"/>
<path d="M49610 59463 c0 -5 95 -83 210 -173 116 -90 210 -167 210 -172 0 -5
-66 -95 -146 -199 -80 -105 -144 -192 -142 -195 3 -2 69 80 148 183 79 104
149 193 157 199 7 6 13 17 13 23 l0 12 -8 -5 -8 -5 -175 137 c-96 75 -194 152
-217 170 l-42 34 0 -9z"/>
<path d="M59857 59365 c-114 -23 -210 -45 -214 -49 l-6 -6 9 0 c5 1 115 23
244 49 l235 49 -30 0 c-16 0 -123 -19 -238 -43z"/>
<path d="M59628 59277 l-458 -91 0 -8 0 -7 13 4 c6 2 221 45 477 95 255 50
467 93 469 96 11 11 -76 -5 -501 -89z"/>
<path d="M85832 59222 c-117 -79 -211 -146 -208 -149 2 -3 96 57 208 133 216
146 224 152 217 157 -2 2 -100 -61 -217 -141z"/>
<path d="M45660 59174 l75 -75 118 -84 c64 -47 117 -81 117 -77 0 5 -51 45
-112 89 l-113 81 -70 71 c-38 39 -74 71 -79 71 -6 0 23 -34 64 -76z"/>
<path d="M45625 59149 l70 -70 115 -82 c63 -46 121 -87 129 -91 l14 -9 -6 10
c-4 6 -60 49 -124 96 l-118 85 -65 66 c-35 36 -69 66 -74 66 l-10 0 69 -71z"/>
<path d="M83800 59156 c0 -15 204 -406 213 -406 4 0 -28 66 -70 148 -101 193
-143 269 -143 258z"/>
<path d="M49775 58713 c-170 -223 -314 -413 -319 -422 l-9 -16 21 20 c27 26
612 794 619 811 3 8 4 14 2 14 -2 0 -143 -183 -314 -407z"/>
<path d="M49142 58824 c-84 -113 -156 -213 -159 -222 -3 -9 67 79 156 197 138
184 172 233 159 231 -2 -1 -72 -93 -156 -206z"/>
<path d="M85275 58773 c-198 -108 -401 -215 -452 -238 l-91 -42 6 -10 7 -11
70 31 c39 18 243 125 455 238 l384 207 4 11 4 11 -14 -1 c-7 -1 -175 -89 -373
-196z"/>
<path d="M61701 58917 c-1 -26 58 -328 69 -352 l9 -20 0 21 c1 27 -57 323 -69
349 l-9 20 0 -18z"/>
<path d="M39135 58891 c17 -5 58 -13 92 -20 l61 -11 264 -96 c144 -52 296
-109 336 -126 40 -17 75 -29 77 -26 10 9 -140 70 -405 165 -278 99 -362 123
-420 122 l-35 -1 30 -7z"/>
<path d="M50380 58844 c1 -11 310 -247 317 -241 2 3 -62 55 -144 117 -81 62
-154 117 -160 123 l-13 9 0 -8z"/>
<path d="M84923 58710 l-223 -109 0 -10 0 -11 233 116 c127 64 234 118 236
120 2 2 -2 4 -10 4 -8 0 -114 -49 -236 -110z"/>
<path d="M62878 58765 l-198 -40 0 -8 0 -9 14 5 c7 3 96 22 197 42 101 20 186
39 188 41 12 11 -20 6 -201 -31z"/>
<path d="M85045 58708 c-142 -78 -296 -152 -570 -273 -121 -53 -224 -101 -229
-106 l-10 -9 6 -6 6 -6 239 105 c131 58 265 116 298 130 32 14 135 65 227 113
l167 89 1 13 0 12 -12 0 c-7 -1 -62 -28 -123 -62z"/>
<path d="M61998 58627 c-108 -23 -200 -46 -205 -51 l-8 -8 20 5 c11 3 101 22
200 42 99 20 189 40 200 45 l20 9 -15 -1 c-8 0 -104 -18 -212 -41z"/>
<path d="M61976 58582 c-121 -25 -215 -47 -208 -50 13 -4 418 75 447 88 l20 9
-20 -1 c-11 0 -119 -21 -239 -46z"/>
<path d="M59580 58512 c0 -4 60 -29 133 -55 72 -27 160 -59 195 -72 l62 -24 0
7 c0 4 -57 28 -127 54 -71 26 -158 58 -195 72 l-68 26 0 -8z"/>
<path d="M63900 58473 c0 -5 27 -137 61 -294 33 -156 87 -426 120 -599 33
-173 110 -544 170 -824 l110 -509 -16 -17 c-8 -9 -15 -23 -15 -31 l0 -14 24
30 c13 16 22 33 20 36 -8 14 -209 967 -269 1279 -37 189 -95 479 -131 644 -57
265 -74 334 -74 299z"/>
<path d="M48976 58238 c-91 -122 -166 -226 -166 -232 0 -12 -18 -35 179 227
94 125 167 227 162 227 -4 0 -83 -100 -175 -222z"/>
<path d="M55905 58353 c6 -6 107 -35 225 -66 118 -31 266 -72 328 -91 l112
-34 0 7 c0 8 -220 74 -460 136 -96 26 -184 49 -195 52 l-20 5 10 -9z"/>
<path d="M55900 58311 c8 -5 96 -30 195 -56 99 -25 240 -64 313 -86 74 -22
139 -38 144 -37 13 5 -245 81 -480 143 -180 47 -197 50 -172 36z"/>
<path d="M61818 58145 c-5 -6 68 -385 77 -393 9 -9 6 8 -33 206 -21 106 -41
190 -44 187z"/>
<path d="M64033 58010 c3 -14 65 -311 137 -660 135 -654 138 -666 145 -659 2
3 -58 302 -133 666 l-137 662 -9 8 -9 8 6 -25z"/>
<path d="M49157 57889 c-55 -66 -97 -122 -94 -125 3 -4 159 178 195 228 l13
18 -8 -1 c-4 0 -52 -54 -106 -120z"/>
<path d="M62135 57782 c-121 -26 -213 -48 -205 -50 17 -3 439 84 448 93 9 9
-17 4 -243 -43z"/>
<path d="M55476 57784 c-104 -13 -194 -25 -200 -28 l-11 -4 20 -1 c34 -1 416
47 422 53 l6 6 -24 -1 c-13 -1 -109 -12 -213 -25z"/>
<path d="M55466 57744 c-98 -13 -184 -25 -190 -28 l-11 -4 19 -1 c28 -1 419
49 425 54 8 9 -64 3 -243 -21z"/>
<path d="M37900 57725 l-13 -15 6 -7 7 -6 15 13 c17 14 20 30 6 30 -5 0 -14
-7 -21 -15z"/>
<path d="M37996 57529 c12 -13 32 -44 45 -69 l22 -45 1 -64 0 -65 9 28 9 27
-7 55 -6 54 -32 47 -32 47 -15 4 -15 5 21 -24z"/>
<path d="M80925 57478 c4 -18 19 -69 33 -113 l25 -80 96 -95 c98 -99 91 -83
-15 30 l-61 65 -26 70 c-15 39 -31 89 -37 113 -13 49 -25 57 -15 10z"/>
<path d="M76215 57463 l-90 -2 -117 -17 -118 -17 0 -7 0 -7 113 18 112 19 98
0 97 0 0 10 c0 6 -1 9 -2 8 -2 -1 -43 -3 -93 -5z"/>
<path d="M38055 57225 l3 -60 -29 -111 c-16 -61 -72 -234 -124 -385 -52 -150
-92 -275 -90 -277 6 -6 4 -9 118 323 53 154 106 319 118 367 l21 88 -10 57
-11 58 4 -60z"/>
<path d="M33680 57041 c0 -6 3 -11 8 -11 4 0 78 -11 165 -25 87 -14 169 -25
182 -25 l23 0 66 30 c69 30 94 52 29 24 -21 -8 -55 -22 -75 -31 l-37 -15 -173
27 c-95 15 -176 29 -180 32 l-8 4 0 -10z"/>
<path d="M47985 57015 c-5 -2 -88 -13 -182 -26 l-173 -22 0 -7 0 -6 203 28
202 29 23 -4 22 -4 0 8 0 9 -42 -1 c-24 0 -47 -2 -53 -4z"/>
<path d="M37995 56809 c-62 -175 -145 -425 -142 -433 2 -5 38 91 80 214 43
123 75 225 72 228 -2 3 -7 -1 -10 -9z"/>
<path d="M61681 56803 c-1 -6 8 -39 19 -74 10 -34 29 -124 41 -198 l22 -136 9
-10 9 -10 -5 25 c-3 14 -15 79 -26 145 l-20 120 -24 75 c-13 41 -24 70 -25 63z"/>
<path d="M47600 56502 c0 -5 30 -36 68 -69 l67 -60 128 -72 c71 -40 131 -71
133 -68 3 2 -53 37 -123 76 l-128 72 -72 65 c-40 36 -73 61 -73 56z"/>
<path d="M82756 56413 c12 -54 35 -151 50 -215 15 -65 30 -118 34 -118 l7 0
-51 215 c-28 118 -53 215 -57 215 l-7 0 24 -97z"/>
<path d="M47620 56418 c66 -61 187 -142 288 -192 l74 -37 -7 11 c-3 6 -34 24
-67 41 -89 45 -215 129 -274 182 -29 26 -56 47 -60 47 -5 -1 16 -24 46 -52z"/>
<path d="M26470 56437 c0 -8 327 -177 342 -177 7 0 -61 39 -151 86 -174 91
-191 99 -191 91z"/>
<path d="M37241 55823 c-23 -170 -45 -319 -48 -333 l-6 -25 10 10 10 10 42
305 c24 168 45 313 47 323 l5 17 -8 0 -8 0 -44 -307z"/>
<path d="M57306 56067 c207 -185 290 -257 299 -257 l9 0 -9 9 c-88 81 -331
291 -338 291 -5 0 13 -20 39 -43z"/>
<path d="M35558 56037 c-21 -12 -38 -24 -38 -27 0 -7 199 -84 204 -79 3 2 -34
20 -82 38 -48 19 -89 36 -92 38 -2 2 9 15 25 28 37 30 31 31 -17 2z"/>
<path d="M36705 55965 c-88 -35 -167 -68 -175 -74 l-15 -11 40 15 c134 50 338
134 325 134 -8 0 -87 -29 -175 -64z"/>
<path d="M63783 56011 l-12 -19 -30 -13 c-17 -8 -31 -17 -31 -21 0 -12 13 -10
53 7 l35 14 6 16 c14 37 -1 48 -21 16z"/>
<path d="M36717 55927 c-97 -39 -175 -72 -173 -74 3 -4 344 125 355 134 20 16
-30 -1 -182 -60z"/>
<path d="M63062 55910 l0 -25 5 13 c2 6 2 18 0 25 l-5 12 0 -25z"/>
<path d="M63020 55900 l0 -20 9 0 9 0 -5 20 c-3 11 -7 20 -9 20 -2 0 -4 -9 -4
-20z"/>
<path d="M44690 55853 c0 -5 39 -38 87 -73 48 -36 123 -95 167 -132 44 -37 82
-66 84 -63 3 2 -8 15 -24 28 -16 14 -66 56 -112 95 -46 38 -110 89 -142 111
l-60 42 0 -8z"/>
<path d="M62757 55805 c-229 -49 -267 -59 -256 -69 2 -2 127 22 277 52 l272
56 0 8 0 8 -22 -1 c-13 -1 -135 -25 -271 -54z"/>
<path d="M91770 55821 c0 -23 343 -261 376 -261 16 0 -14 22 -72 54 -36 20
-119 77 -185 126 l-119 91 0 -10z"/>
<path d="M46970 55750 l0 -13 7 6 6 7 -6 7 -7 6 0 -13z"/>
<path d="M51154 55459 l-219 -250 -12 -27 -12 -27 0 -30 1 -30 13 48 c7 27 20
56 27 65 28 33 382 437 406 464 14 15 23 30 20 33 -2 3 -103 -108 -224 -246z"/>
<path d="M25991 55656 c2 -2 94 -68 204 -148 170 -122 255 -181 323 -222 l12
-7 0 8 c0 4 -24 22 -53 40 -29 17 -146 99 -261 182 -115 83 -214 151 -219 151
-6 0 -8 -2 -6 -4z"/>
<path d="M60763 55553 c15 -2 37 -2 50 0 l22 4 -50 0 -50 0 28 -4z"/>
<path d="M61910 55549 c0 -18 63 -413 67 -418 12 -17 7 31 -23 214 -31 187
-44 246 -44 204z"/>
<path d="M60578 55543 l13 -5 6 6 6 6 -19 -1 -19 -1 13 -5z"/>
<path d="M53187 55240 l-7 -25 26 -131 25 -131 -54 -89 c-30 -49 -155 -242
-279 -429 -255 -387 -241 -365 -234 -365 6 0 485 718 551 826 l30 49 -18 95
c-10 52 -21 124 -25 160 l-8 65 -7 -25z"/>
<path d="M61940 55114 c0 -13 80 -437 86 -453 2 -8 6 -12 9 -10 5 5 -82 459
-89 467 l-6 5 0 -9z"/>
<path d="M52300 54963 c1 -11 50 -46 56 -40 3 3 -9 15 -25 27 l-31 21 0 -8z"/>
<path d="M52125 54742 l-140 -216 -137 -175 c-75 -97 -135 -178 -132 -180 2
-2 6 -2 7 0 2 2 62 78 133 169 l130 165 133 205 c74 113 141 215 149 228 l14
22 -8 0 c-5 -1 -72 -98 -149 -218z"/>
<path d="M53285 54930 c4 -14 9 -32 12 -42 l5 -16 -204 -304 c-293 -435 -551
-833 -585 -903 -17 -33 -38 -84 -47 -113 l-18 -52 -26 -15 -27 -14 18 -1 18 0
23 25 24 26 6 34 7 35 46 87 46 88 242 365 c133 201 299 452 369 558 l126 193
-20 37 -21 37 6 -25z"/>
<path d="M52251 54737 l-103 -162 -167 -222 -166 -222 -12 -1 -12 0 5 -15 c4
-8 11 -15 17 -15 6 0 37 -23 69 -51 33 -28 61 -49 64 -46 3 3 -24 30 -60 60
l-65 55 156 208 c157 209 387 549 381 564 -2 5 -50 -64 -107 -153z"/>
<path d="M50001 54715 c-105 -52 -191 -97 -191 -99 0 -8 66 22 232 105 137 68
172 89 154 89 -2 0 -90 -43 -195 -95z"/>
<path d="M87850 54782 c0 -7 26 -61 58 -120 32 -59 78 -151 102 -204 24 -54
47 -98 52 -98 4 0 8 2 8 4 0 20 -189 398 -211 421 l-9 9 0 -12z"/>
<path d="M50250 54630 l-95 -49 14 0 13 -1 20 -25 c11 -14 24 -25 31 -25 l11
0 -27 28 -27 28 80 39 c44 21 80 43 80 47 0 10 9 14 -100 -42z"/>
<path d="M47771 54589 c-1 -17 50 -174 69 -210 7 -13 30 -42 51 -64 l38 -40
46 -98 46 -98 -6 -9 -6 -10 15 0 c8 0 16 4 18 8 2 5 64 41 138 81 126 68 163
91 148 91 -3 0 -69 -34 -147 -76 l-140 -76 -9 6 c-5 3 -26 45 -48 93 l-38 88
-42 46 c-52 57 -59 70 -100 188 -18 53 -33 89 -33 80z"/>
<path d="M47767 54461 l46 -118 46 -55 47 -55 44 -97 c24 -53 47 -96 51 -96 4
0 -15 47 -42 105 l-49 106 -48 57 -47 58 -40 107 c-21 59 -42 107 -46 107 -4
0 13 -53 38 -119z"/>
<path d="M32992 54509 l4 -14 195 -132 c106 -73 198 -132 202 -133 l9 0 -4 10
c-2 7 -323 229 -397 274 l-14 9 5 -14z"/>
<path d="M50225 54480 l-7 -21 46 -61 45 -61 132 -113 c73 -63 135 -112 137
-109 3 3 -2 11 -10 18 -9 6 -68 56 -131 110 l-114 98 -44 61 -44 60 3 19 c4
25 -5 24 -13 -1z"/>
<path d="M53748 54423 c-32 -37 -209 -303 -201 -303 4 1 42 51 83 112 41 62
90 132 108 156 33 43 40 69 10 35z"/>
<path d="M80714 54383 c4 -16 49 -185 77 -297 l10 -38 6 6 6 6 -44 170 -44
170 -8 0 -8 0 5 -17z"/>
<path d="M87998 54359 l-16 -9 -7 -31 -7 -31 7 -35 6 -36 11 11 10 10 -12 22
-11 21 20 42 c23 46 23 49 -1 36z"/>
<path d="M49125 54244 c-214 -108 -279 -144 -272 -150 5 -5 330 155 437 215
l55 31 -15 -1 c-8 0 -100 -43 -205 -95z"/>
<path d="M49415 54210 l-6 -10 8 0 c4 0 15 5 23 10 l15 10 -17 0 c-9 0 -20 -4
-23 -10z"/>
<path d="M32770 54172 c0 -5 29 -32 65 -61 l65 -53 0 -13 0 -13 -71 -61 c-88
-76 -77 -81 14 -5 l67 56 0 22 0 22 -70 58 c-38 31 -70 53 -70 48z"/>
<path d="M22670 54000 c-89 -94 -161 -173 -158 -175 2 -2 77 72 167 166 90 93
161 172 159 175 -3 2 -78 -73 -168 -166z"/>
<path d="M50270 53947 c-276 -124 -580 -276 -553 -277 7 0 90 40 185 89 95 49
283 137 418 197 135 59 249 111 255 116 l9 8 -9 0 c-6 -1 -143 -61 -305 -133z"/>
<path d="M50710 54033 c0 -5 17 -17 37 -28 21 -11 52 -33 71 -49 18 -16 35
-27 37 -24 8 7 -46 53 -97 82 l-48 27 0 -8z"/>
<path d="M51995 53886 l90 -87 98 -71 c54 -39 100 -69 102 -66 3 2 -30 29 -73
59 -42 29 -119 92 -172 139 -131 117 -153 130 -45 26z"/>
<path d="M20706 53864 l-58 -25 -77 0 c-42 0 -170 10 -286 21 l-210 20 -140 0
-140 0 -90 -14 c-130 -21 -271 -54 -262 -62 2 -3 43 5 92 16 48 11 131 27 186
35 l99 15 105 0 105 0 270 -25 271 -25 42 6 c50 7 157 46 157 56 0 5 -1 8 -2
7 -2 0 -29 -12 -62 -25z"/>
<path d="M51410 53861 c0 -5 96 -88 213 -184 l213 -175 41 -46 40 -46 6 7 6 6
-37 45 -37 45 -210 172 c-115 94 -216 175 -222 179 l-13 7 0 -10z"/>
<path d="M50653 53645 c-144 -71 -262 -133 -263 -138 0 -4 33 9 73 29 39 20
158 78 263 129 l192 93 92 -74 92 -73 -59 -38 c-32 -21 -170 -92 -306 -158
-136 -66 -247 -123 -247 -126 0 -11 525 246 576 281 l43 30 13 -5 14 -5 0 19
0 19 -13 -5 -12 -5 -98 79 -98 78 -262 -130z"/>
<path d="M30570 53726 c0 -7 287 -153 397 -203 l93 -42 0 8 c0 4 -35 22 -77
41 -43 18 -151 71 -239 117 -155 80 -174 88 -174 79z"/>
<path d="M54535 53649 c-88 -43 -155 -78 -148 -78 6 -1 75 30 154 69 79 38
148 71 154 74 5 2 8 5 5 8 -3 3 -77 -30 -165 -73z"/>
<path d="M77472 53633 c-106 -42 -190 -78 -188 -80 5 -5 368 136 381 148 13
13 16 14 -193 -68z"/>
<path d="M6203 53454 l1 -200 -8 -12 -7 -12 10 0 9 0 7 83 6 82 -9 130 -9 130
0 -201z"/>
<path d="M9205 53594 c-96 -11 -265 -60 -265 -76 l0 -8 48 19 c58 22 175 47
260 55 l63 6 36 -15 c20 -8 38 -13 41 -10 3 2 -11 12 -31 20 l-36 15 -43 -1
c-24 -1 -56 -4 -73 -5z"/>
<path d="M49736 53579 l-17 -21 -14 6 -14 5 -6 -9 -6 -10 29 0 29 0 17 19 17
19 -9 5 -8 6 -18 -20z"/>
<path d="M51440 53440 l65 -60 63 -31 c35 -17 66 -29 68 -26 3 3 -20 16 -50
30 l-56 26 -70 60 c-91 78 -105 79 -20 1z"/>
<path d="M48741 53482 c-2 -29 209 -492 224 -492 2 0 -16 44 -42 98 -25 53
-72 158 -105 232 -32 74 -63 144 -68 155 l-9 20 0 -13z"/>
<path d="M51160 53365 c-113 -57 -202 -104 -198 -104 5 -1 86 38 182 86 l175
87 28 -14 c15 -8 54 -40 85 -70 l58 -56 0 -27 0 -27 9 0 9 0 -8 36 -8 37 -39
39 c-21 22 -49 46 -63 53 -14 8 -32 19 -40 24 l-15 10 20 15 c11 9 18 15 15
15 -3 0 -97 -47 -210 -104z"/>
<path d="M51950 53460 l0 -9 15 5 c8 4 15 8 15 10 0 2 -7 4 -15 4 l-15 0 0
-10z"/>
<path d="M51970 53430 l-15 -10 18 0 17 0 0 10 c0 12 -1 12 -20 0z"/>
<path d="M52442 53266 l-22 -24 -101 -7 -101 -7 22 -12 22 -11 67 -145 c36
-80 87 -181 112 -225 26 -44 57 -100 70 -125 l24 -45 18 -3 18 -4 102 59 c56
31 147 78 202 104 55 25 242 120 415 211 l315 166 43 13 42 12 0 8 0 9 -64
-24 c-36 -14 -206 -99 -378 -189 -172 -90 -347 -179 -388 -197 -41 -18 -126
-62 -187 -97 l-113 -64 -9 5 c-15 10 -154 271 -215 404 l-56 124 5 7 4 8 72 6
72 6 23 22 c24 22 31 39 17 39 -5 0 -18 -11 -31 -24z"/>
<path d="M77836 53143 c18 -76 41 -171 50 -211 l18 -72 8 8 9 9 -41 164 c-23
90 -45 181 -51 202 l-10 37 -8 0 -8 0 33 -137z"/>
<path d="M49808 53244 c-3 -2 23 -47 57 -98 35 -51 67 -102 73 -112 6 -10 13
-17 16 -14 2 3 -28 56 -68 117 -40 62 -75 110 -78 107z"/>
<path d="M52160 53190 l-15 -10 18 0 17 0 0 10 c0 12 -1 12 -20 0z"/>
<path d="M12890 53008 c-58 -83 -108 -157 -113 -164 l-7 -13 8 -5 8 -5 46 67
c25 37 78 113 117 170 l72 102 -13 0 -13 0 -105 -152z"/>
<path d="M52065 53124 c-11 -8 -123 -69 -248 -136 -125 -66 -226 -123 -223
-125 6 -6 474 243 496 263 l14 14 -9 0 c-6 0 -19 -7 -30 -16z"/>
<path d="M51170 53055 c-69 -35 -122 -64 -118 -64 4 -1 62 26 130 59 l123 61
21 -5 c12 -3 30 -8 41 -12 l18 -5 -25 15 c-14 8 -34 15 -45 15 l-20 0 -125
-64z"/>
<path d="M50545 53063 c-11 -3 -22 -9 -25 -14 -3 -4 -95 -52 -203 -105 -109
-53 -196 -98 -194 -100 2 -2 92 39 200 91 108 52 200 95 205 95 4 0 30 -45 57
-100 27 -55 51 -98 53 -95 2 2 -18 49 -44 104 l-47 101 19 15 19 14 -10 0 c-5
-1 -19 -4 -30 -6z"/>
<path d="M53032 52837 c-111 -57 -208 -109 -215 -116 -12 -13 311 145 393 193
98 56 15 20 -178 -77z"/>
<path d="M74535 52890 c-71 -16 -156 -33 -188 -40 -32 -6 -56 -14 -54 -16 3
-3 91 12 196 33 l191 37 0 8 c0 10 11 11 -145 -22z"/>
<path d="M77736 52774 c-104 -40 -191 -75 -193 -78 -2 -2 -1 -6 4 -9 l8 -5
198 76 197 76 0 8 c0 14 -21 7 -214 -68z"/>
<path d="M50715 52688 c36 -62 69 -120 74 -128 l11 -15 -11 30 c-14 40 -121
225 -130 225 -4 0 21 -51 56 -112z"/>
<path d="M18505 52513 c4 -131 9 -240 11 -242 2 -2 7 -2 10 2 l6 6 -7 236 -7
235 -10 0 -10 0 7 -237z"/>
<path d="M27716 52578 c-3 -90 -9 -192 -12 -228 l-5 -65 9 15 10 15 6 185 c4
102 9 197 12 213 l6 27 -10 0 -9 0 -7 -162z"/>
<path d="M51260 52735 c0 -14 213 -395 218 -390 4 4 -174 335 -205 380 l-13
19 0 -9z"/>
<path d="M26820 52726 c0 -6 10 -21 23 -35 13 -15 58 -80 99 -146 l76 -120 13
-70 13 -70 0 -202 1 -203 9 0 9 0 -6 233 -6 232 -13 46 -13 45 -72 115 c-72
113 -132 193 -133 175z"/>
<path d="M50910 52558 c0 -9 5 -20 10 -23 l10 -6 0 8 c0 4 -5 15 -10 23 l-10
15 0 -17z"/>
<path d="M30923 52337 c-59 -51 -120 -98 -135 -104 l-27 -12 -75 -7 -76 -7 0
-6 0 -7 78 8 c43 4 90 11 104 17 l25 9 112 97 c102 88 119 105 106 105 -2 0
-53 -42 -112 -93z"/>
<path d="M89705 52364 c-60 -24 -148 -57 -195 -73 -47 -16 -164 -63 -260 -104
l-174 -75 -5 -13 -4 -12 9 5 c25 15 405 172 444 184 79 24 320 119 320 127 0
13 -22 6 -135 -39z"/>
<path d="M27002 52268 l8 -61 -10 -301 c-10 -322 -13 -482 -6 -475 2 2 9 172
16 378 l11 373 -6 74 -7 74 -8 0 -7 0 9 -62z"/>
<path d="M84347 52263 c8 -32 18 -61 21 -65 l7 -7 165 41 c90 23 159 43 153
45 -6 2 -74 -12 -151 -32 -78 -19 -148 -35 -156 -35 l-15 0 -12 55 -12 55 -8
0 -7 0 15 -57z"/>
<path d="M84301 52302 c-1 -7 6 -42 15 -78 l17 -66 13 -5 14 -5 176 43 c96 24
171 45 166 47 -5 1 -82 -15 -170 -38 -89 -22 -168 -40 -175 -40 l-15 0 -20 78
c-11 42 -20 71 -21 64z"/>
<path d="M83698 52191 c-97 -25 -180 -49 -183 -53 -4 -3 83 16 192 44 109 27
200 51 202 54 11 11 -48 -2 -211 -45z"/>
<path d="M52735 52020 l-6 -10 15 6 c18 7 21 14 7 14 -6 0 -13 -4 -16 -10z"/>
<path d="M16646 51991 c13 -14 417 -181 423 -176 2 3 0 9 -5 14 -13 13 -395
171 -413 171 l-15 0 10 -9z"/>
<path d="M52498 51902 c-103 -53 -188 -100 -188 -104 0 -6 362 174 379 189 2
1 2 5 0 7 -2 3 -88 -39 -191 -92z"/>
<path d="M54377 51973 l-29 -15 9 -9 10 -10 25 10 25 9 6 16 6 16 -12 -1 c-7
-1 -25 -8 -40 -16z"/>
<path d="M78271 51918 c12 -29 50 -127 86 -218 68 -172 70 -177 78 -168 3 3
-32 101 -79 219 l-84 213 -11 4 -11 4 21 -54z"/>
<path d="M3465 51663 c-27 -1 -83 -10 -122 -20 l-73 -17 0 -8 c0 -12 21 -10
76 7 l49 15 158 6 157 7 0 9 0 8 -97 -2 c-54 -1 -120 -3 -148 -5z"/>
<path d="M88078 51284 l-178 -134 0 -11 0 -10 13 7 c6 5 90 66 185 137 152
115 191 149 165 146 -5 0 -88 -61 -185 -135z"/>
<path d="M34395 51320 l-40 -8 -34 6 -34 5 7 -11 7 -12 42 1 c23 0 65 7 92 14
l50 13 -25 0 c-14 0 -43 -4 -65 -8z"/>
<path d="M33484 51260 c4 -19 20 -141 36 -270 33 -258 147 -990 155 -998 9 -9
6 17 -54 397 -33 207 -74 491 -92 631 l-32 255 -9 10 -10 10 6 -35z"/>
<path d="M82660 51120 c0 -8 25 -117 56 -242 l56 -228 7 0 8 0 -58 236 c-32
130 -60 239 -63 242 l-6 5 0 -13z"/>
<path d="M42350 51115 c0 -3 15 -11 33 -19 l32 -13 35 -35 c20 -19 56 -59 82
-89 l45 -54 51 -100 51 -100 26 -82 25 -82 -4 -43 -5 -43 11 43 11 43 -27 92
-28 91 -51 96 -51 95 -63 76 -64 76 -48 27 c-49 26 -61 30 -61 21z"/>
<path d="M28367 50983 c-4 -3 -7 -23 -7 -44 l0 -38 11 -6 c16 -11 20 0 11 26
l-9 24 8 23 8 22 -8 0 c-4 0 -11 -3 -14 -7z"/>
<path d="M27660 50960 l0 -10 65 0 65 0 0 10 0 10 -65 0 -65 0 0 -10z"/>
<path d="M26815 50744 c-4 -96 -5 -177 -2 -180 3 -3 8 57 11 133 4 76 8 157
10 181 l4 42 -8 0 -8 0 -7 -176z"/>
<path d="M27660 50913 l0 -10 103 -6 c56 -4 173 -9 260 -13 l157 -7 0 10 0 10
-162 7 c-90 3 -207 9 -260 12 l-98 7 0 -10z"/>
<path d="M28400 50880 l0 -13 7 6 6 7 -6 7 -7 6 0 -13z"/>
<path d="M27804 50695 l0 -190 3 98 c2 54 2 139 0 190 l-3 92 0 -190z"/>
<path d="M13960 50575 c0 -6 33 -42 73 -82 l72 -71 50 -28 c28 -15 69 -41 93
-57 24 -16 46 -27 48 -24 5 5 -111 85 -156 107 -14 7 -60 46 -102 88 -43 42
-78 72 -78 67z"/>
<path d="M44992 50457 c-117 -61 -209 -113 -205 -114 5 -2 107 49 228 112 121
63 213 115 205 114 -8 0 -111 -50 -228 -112z"/>
<path d="M31478 50513 l-118 -4 0 -10 0 -11 23 5 c12 3 89 7 172 9 l150 3 6
-50 c4 -28 12 -158 18 -290 11 -227 17 -292 26 -284 2 2 -4 142 -14 310 l-18
306 -7 11 -7 12 -57 -2 c-31 -1 -110 -4 -174 -5z"/>
<path d="M31238 50461 l-376 -16 -9 -9 -8 -9 80 7 c44 3 227 11 407 18 l328
12 7 -7 7 -7 18 -273 c9 -149 19 -279 22 -287 l4 -15 0 45 c0 25 -7 160 -16
300 l-17 255 -35 1 c-19 1 -205 -6 -412 -15z"/>
<path d="M48640 50342 l-85 -58 -100 -45 -99 -44 15 -3 16 -3 95 44 95 45 77
51 c42 28 76 56 76 61 0 14 5 16 -90 -48z"/>
<path d="M33570 50374 c1 -33 58 -386 64 -392 3 -3 7 -3 9 -1 6 7 -57 397 -65
405 l-8 7 0 -19z"/>
<path d="M25634 50265 c-84 -35 -308 -155 -301 -161 2 -3 51 22 108 54 57 32
141 73 187 91 45 18 85 37 88 42 3 5 4 9 2 8 -2 0 -39 -16 -84 -34z"/>
<path d="M30527 50130 c3 -80 9 -181 13 -225 l8 -80 -5 180 c-3 99 -9 200 -13
225 l-8 45 5 -145z"/>
<path d="M34310 50091 c0 -11 70 -100 94 -120 l17 -14 10 10 11 11 -20 11
c-11 6 -37 33 -57 61 -34 47 -55 62 -55 41z"/>
<path d="M25143 49958 c-101 -56 -181 -103 -179 -105 3 -3 360 191 375 203 2
2 0 4 -5 4 -5 0 -91 -46 -191 -102z"/>
<path d="M73291 50028 l-73 -29 -122 -24 c-156 -32 -169 -35 -164 -40 3 -3 63
7 134 21 l129 25 85 31 c90 33 96 36 89 41 -2 2 -37 -9 -78 -25z"/>
<path d="M33710 49884 c0 -44 150 -1109 176 -1251 l6 -33 -15 0 -16 0 -6 33
c-3 17 -30 203 -60 412 -57 394 -66 447 -71 430 -2 -5 25 -204 60 -442 l63
-431 -116 -6 c-64 -4 -159 -10 -211 -15 l-95 -8 55 -1 c30 -1 125 3 210 8
l154 10 8 -13 8 -12 0 12 0 12 28 0 c61 -1 524 30 529 35 l6 6 -34 -1 c-19 0
-135 -6 -259 -13 -124 -7 -226 -12 -227 -12 -4 3 -100 663 -138 949 -24 181
-46 331 -49 335 l-6 5 0 -9z"/>
<path d="M49776 49852 l-5 -8 62 -94 62 -94 3 28 3 27 -48 75 -48 74 -12 0
c-6 0 -14 -4 -17 -8z"/>
<path d="M22870 49770 c58 -4 159 -7 225 -7 l120 0 -110 7 c-60 4 -162 7 -225
7 l-115 0 105 -7z"/>
<path d="M36008 49690 c9 -33 19 -60 23 -60 l7 0 -16 60 c-9 33 -19 60 -23 60
l-7 0 16 -60z"/>
<path d="M83722 49573 c-95 -74 -171 -137 -169 -140 5 -4 357 265 357 273 0
12 -31 -10 -188 -133z"/>
<path d="M37034 49329 l-5 -8 38 -10 c21 -5 120 -28 221 -51 l183 -42 6 6 c4
3 4 8 2 9 -2 2 -102 26 -222 54 l-218 49 -5 -7z"/>
<path d="M43680 49258 c0 -10 168 -358 174 -358 3 0 -23 60 -58 133 -71 150
-115 235 -116 225z"/>
<path d="M45735 49187 c-61 -25 -58 -23 -51 -36 l7 -10 45 19 46 20 28 0 28 0
30 -25 31 -26 5 9 5 9 -27 25 -27 26 -35 5 -35 5 -50 -21z"/>
<path d="M84837 49188 c183 -240 237 -308 240 -304 7 6 -229 315 -241 316 l-8
0 9 -12z"/>
<path d="M37924 49080 c2 -14 19 -115 37 -225 l32 -200 10 -10 9 -10 -5 20
c-3 11 -20 108 -37 215 -17 107 -35 204 -41 215 l-9 20 4 -25z"/>
<path d="M73445 48960 c-104 -15 -237 -35 -295 -45 l-105 -19 -28 -20 c-34
-25 -59 -63 -85 -133 l-20 -53 8 0 c4 0 13 20 20 45 l13 46 33 44 34 43 32 11
c53 16 238 48 448 76 107 15 197 29 199 31 9 8 -70 1 -254 -26z"/>
<path d="M81175 48950 l-60 -19 -25 6 -25 6 14 -16 13 -17 16 0 c8 0 46 9 83
20 l69 21 0 9 0 10 -12 -1 c-7 0 -40 -9 -73 -19z"/>
<path d="M72836 48494 c-21 -114 -41 -216 -44 -227 l-5 -20 10 6 10 6 6 43 c4
24 22 123 40 221 l34 177 -7 0 c-3 0 -23 -93 -44 -206z"/>
<path d="M11840 48603 c0 -4 55 -90 121 -190 l122 -183 8 6 8 5 -122 184
c-109 166 -137 201 -137 178z"/>
<path d="M34480 48590 c0 -13 11 -13 30 0 l15 10 -22 0 -23 0 0 -10z"/>
<path d="M34083 48576 l-191 -11 -9 -9 -8 -8 75 6 c41 3 165 11 275 17 203 11
273 20 129 17 -43 0 -165 -6 -271 -12z"/>
<path d="M14505 48528 c-16 -29 -47 -72 -69 -96 l-40 -44 -60 -30 c-33 -17
-79 -36 -101 -43 l-40 -13 18 -1 c10 -1 52 12 95 29 l77 30 46 47 46 48 36 63
36 62 -8 0 c-4 0 -21 -23 -36 -52z"/>
<path d="M33080 48523 l-275 -15 -7 -6 -6 -7 19 -109 c10 -60 20 -114 23 -120
l4 -11 1 15 c0 8 -6 56 -14 105 -8 50 -15 97 -15 106 l0 16 288 13 c158 7 297
13 309 14 l21 1 -5 8 -4 7 -32 -1 c-18 -1 -156 -8 -307 -16z"/>
<path d="M83762 48368 c13 -18 125 -170 248 -338 123 -168 228 -309 233 -315
l10 -10 -5 15 c-7 22 -492 679 -502 680 l-8 0 24 -32z"/>
<path d="M37843 48147 l-193 -9 0 -10 0 -9 18 5 c9 2 105 8 212 12 l195 7 20
8 20 8 -40 -1 c-22 -1 -127 -6 -232 -11z"/>
<path d="M90841 48044 c-35 -40 -83 -101 -105 -136 -23 -36 -56 -83 -74 -106
l-34 -42 9 0 c10 0 99 116 133 175 13 22 53 70 88 106 l63 67 -8 5 -8 4 -64
-73z"/>
<path d="M37417 48085 l-218 -13 -7 -7 -7 -8 85 6 c47 4 149 9 228 13 l142 7
0 8 c0 5 -1 8 -2 8 -2 -1 -101 -7 -221 -14z"/>
<path d="M29427 47920 c3 -96 9 -197 14 -225 l7 -50 -5 175 c-3 96 -9 198 -14
225 l-7 50 5 -175z"/>
<path d="M36413 48067 l-163 -9 0 -9 0 -8 33 4 c17 3 122 10 232 16 110 6 202
13 204 15 6 6 -119 2 -306 -9z"/>
<path d="M74973 48068 c23 -59 172 -358 178 -358 l8 0 -58 123 c-81 171 -120
247 -127 247 l-6 0 5 -12z"/>
<path d="M48347 47752 l91 -87 57 -72 c50 -65 65 -81 65 -70 0 2 -29 42 -66
88 l-65 84 -79 73 c-43 39 -82 72 -87 72 -4 0 33 -40 84 -88z"/>
<path d="M72690 47782 c0 -5 -18 -93 -40 -197 -22 -104 -38 -191 -35 -193 7
-7 11 9 50 198 20 96 38 181 40 188 l4 12 -9 0 c-6 0 -10 -4 -10 -8z"/>
<path d="M90457 47629 c-76 -87 -141 -167 -144 -176 -5 -14 166 178 285 320
l15 17 -9 -1 c-5 0 -71 -72 -147 -160z"/>
<path d="M76040 47756 l0 -26 10 0 10 0 0 19 0 20 -10 6 -10 6 0 -25z"/>
<path d="M33980 47682 c0 -33 33 -239 51 -317 25 -109 28 -119 34 -113 3 3 -4
45 -16 94 -12 49 -29 145 -39 212 -10 68 -21 127 -24 130 l-6 5 0 -11z"/>
<path d="M22320 47576 c0 -2 9 -6 20 -9 l20 -5 0 9 0 9 -20 0 c-11 0 -20 -2
-20 -4z"/>
<path d="M37302 47422 l-243 -15 8 -7 8 -7 284 18 c156 10 286 20 289 23 l5 6
-54 -2 c-30 0 -163 -8 -297 -16z"/>
<path d="M72637 47324 c-4 -4 -7 -17 -7 -28 l1 -21 10 18 c6 10 9 22 7 28 l-3
10 -8 -7z"/>
<path d="M19580 47156 c0 -3 38 -67 85 -144 47 -76 85 -144 85 -150 l0 -10
-35 -22 c-19 -12 -35 -25 -35 -29 0 -13 120 -366 137 -401 9 -19 26 -59 38
-89 l22 -54 6 10 6 9 -30 69 c-24 55 -159 439 -159 451 0 1 16 12 35 24 l35
22 0 15 c0 19 -170 303 -181 303 -5 0 -9 -2 -9 -4z"/>
<path d="M89947 47048 l-54 -63 -52 -91 -52 -91 -26 -12 c-14 -6 -23 -14 -21
-17 3 -2 17 1 32 7 l27 13 54 96 55 96 51 57 c28 32 49 60 46 63 -2 3 -29 -23
-60 -58z"/>
<path d="M39860 46995 l12 -15 -6 -15 -5 -15 9 0 10 0 0 30 0 30 -16 0 -16 0
12 -15z"/>
<path d="M39702 46795 c-1 -38 3 -124 8 -189 l9 -119 12 -11 12 -11 -7 25 c-4
14 -11 95 -17 180 -11 186 -16 219 -17 125z"/>
<path d="M22700 46805 l0 -13 23 -5 c12 -3 111 -22 220 -42 l197 -38 7 7 6 6
-5 5 c-3 3 -105 25 -227 49 l-221 43 0 -12z"/>
<path d="M29090 46787 c-181 -8 -210 -11 -199 -20 5 -4 520 20 559 26 46 7
-163 4 -360 -6z"/>
<path d="M20590 46738 l0 -23 -24 -50 -24 -50 -43 -42 -44 -42 -95 -44 c-52
-24 -160 -68 -240 -97 -80 -29 -165 -63 -190 -76 l-45 -23 13 -1 c7 0 29 8 50
19 20 10 105 42 187 72 83 29 190 72 238 96 48 24 91 43 95 43 4 0 26 19 49
43 l41 42 17 40 c9 22 20 57 24 77 l9 38 -9 0 -9 0 0 -22z"/>
<path d="M49021 46748 c7 -30 374 -798 382 -798 l8 0 -15 28 c-7 15 -94 196
-191 402 -98 206 -180 377 -182 380 -3 3 -4 -3 -2 -12z"/>
<path d="M20626 46718 c-3 -18 -17 -55 -30 -83 l-24 -50 -48 -46 -49 -46 -77
-33 c-43 -19 -78 -37 -78 -41 l0 -8 96 44 96 43 35 33 35 34 24 54 c23 52 42
131 31 131 -2 0 -8 -15 -11 -32z"/>
<path d="M37335 46615 l0 -25 8 0 7 0 0 25 0 25 -7 0 -8 0 0 -25z"/>
<path d="M34760 46570 c0 -5 5 -10 10 -10 6 0 10 5 10 10 0 6 -4 10 -10 10 -5
0 -10 -4 -10 -10z"/>
<path d="M57580 46328 c0 -8 36 -90 80 -182 l80 -167 9 6 10 5 -80 168 c-44
92 -84 171 -90 177 l-9 9 0 -16z"/>
<path d="M51780 46118 c0 -5 267 -571 335 -710 10 -21 22 -38 27 -38 l8 0 -24
53 c-45 100 -329 682 -337 692 -5 5 -9 6 -9 3z"/>
<path d="M93091 46095 l15 -15 75 -13 76 -14 24 -16 23 -17 51 0 50 0 63 32
c34 18 62 35 62 39 0 4 -30 -8 -67 -27 l-68 -34 -37 0 -37 0 -35 21 -35 20
-68 10 -68 10 -9 9 c-6 6 -15 10 -20 10 l-10 0 15 -15z"/>
<path d="M47535 46035 c-71 -24 -183 -60 -247 -80 l-118 -36 0 -8 0 -8 248 80
c136 44 251 83 257 88 l9 9 -9 -1 c-6 0 -68 -20 -140 -44z"/>
<path d="M93060 46071 c0 -4 16 -15 35 -24 l36 -17 32 0 32 0 53 -25 54 -25
54 0 54 0 71 36 c93 47 83 55 -12 9 l-73 -35 -41 0 -40 0 -47 25 -47 25 -38 0
-38 0 -42 20 -43 19 0 -8z"/>
<path d="M81344 45948 l-7 -11 11 7 c7 4 12 9 12 12 0 8 -9 4 -16 -8z"/>
<path d="M81372 45893 c-5 -10 -17 -47 -27 -83 -9 -36 -25 -81 -35 -101 l-18
-35 -27 -12 -28 -13 6 -6 6 -6 31 13 31 13 15 36 c18 41 65 211 59 211 -3 0
-8 -8 -13 -17z"/>
<path d="M49385 45880 l-6 -10 15 6 c18 7 21 14 7 14 -6 0 -13 -4 -16 -10z"/>
<path d="M81300 45792 c-12 -38 -25 -74 -30 -81 l-7 -13 -34 -8 -34 -8 32 -1
32 -1 14 14 14 14 22 72 c13 39 21 74 18 76 -3 3 -15 -26 -27 -64z"/>
<path d="M51890 45799 l0 -10 10 6 c6 3 10 8 10 11 0 2 -4 4 -10 4 -5 0 -10
-5 -10 -11z"/>
<path d="M81212 45640 c0 -14 3 -34 8 -45 l9 -20 -1 20 c0 11 -4 31 -8 45 l-8
25 0 -25z"/>
<path d="M52393 45618 c40 -92 180 -384 188 -392 l9 -10 0 8 c0 13 -193 417
-202 422 l-9 6 14 -34z"/>
<path d="M81251 45608 c0 -13 -3 -36 -6 -53 l-6 -30 16 34 c17 39 19 57 5 66
l-10 6 1 -23z"/>
<path d="M81173 45553 l7 -6 7 6 6 7 -13 0 -13 0 6 -7z"/>
<path d="M45838 45315 l4 -25 9 0 9 0 0 25 0 25 -14 0 -13 0 5 -25z"/>
<path d="M16960 44875 l0 -20 20 -25 c28 -37 32 -20 4 25 l-24 40 0 -20z"/>
<path d="M94457 44488 c-76 -55 -136 -102 -133 -105 4 -4 251 170 281 198 l9
9 -9 0 c-6 -1 -72 -46 -148 -102z"/>
<path d="M52516 44484 c-9 -35 -2 -40 12 -9 l11 24 -8 6 -9 5 -6 -26z"/>
<path d="M87768 44285 c-4 -11 -22 -58 -42 -105 l-35 -85 22 -21 c12 -11 46
-57 76 -102 30 -46 56 -81 58 -78 6 6 -107 180 -123 189 -20 12 -18 25 22 116
l35 82 -4 12 -3 11 -6 -19z"/>
<path d="M41602 44248 c-7 -7 -12 -16 -12 -22 l0 -10 12 12 c7 7 20 12 31 12
l18 0 -6 10 c-8 14 -28 13 -43 -2z"/>
<path d="M94021 44123 c18 -27 60 -86 94 -133 l61 -85 34 -77 35 -78 3 10 c2
5 -9 38 -24 72 l-28 63 -95 137 c-53 75 -100 137 -104 138 -4 0 7 -21 24 -47z"/>
<path d="M50248 44031 l-127 -48 -43 -7 c-115 -18 -169 -29 -164 -33 2 -3 51
3 108 12 l103 17 125 45 c69 26 129 50 135 55 l9 8 -9 0 c-6 -1 -67 -23 -137
-49z"/>
<path d="M49430 44039 c0 -14 80 -90 137 -130 23 -16 71 -43 105 -59 l63 -30
38 0 37 0 0 10 0 10 -36 0 -35 0 -52 22 c-68 29 -165 97 -211 148 -38 42 -46
47 -46 29z"/>
<path d="M87885 43900 c13 -25 207 -333 223 -355 l14 -20 -6 19 c-8 25 -205
337 -224 356 l-15 15 8 -15z"/>
<path d="M34572 43788 c-19 -70 -52 -261 -47 -266 9 -9 11 1 38 153 26 150 29
192 9 113z"/>
<path d="M52268 43480 c-42 -3 -80 -8 -83 -12 l-8 -7 85 6 85 6 20 -29 c28
-41 59 -103 72 -144 l11 -35 -5 42 -5 42 -35 59 c-19 32 -40 63 -47 68 l-13 9
-77 -5z"/>
<path d="M29121 43328 l26 -82 129 -51 c225 -90 302 -134 457 -262 117 -96
132 -94 20 3 -154 133 -217 170 -448 265 l-140 57 -25 73 -25 72 -11 4 -10 3
27 -82z"/>
<path d="M51516 43377 c-116 -17 -204 -33 -198 -35 7 -2 101 8 210 24 l197 27
10 8 9 9 -9 -1 c-6 -1 -104 -15 -219 -32z"/>
<path d="M50795 43270 c-44 -10 -127 -31 -185 -48 -58 -16 -206 -58 -330 -92
-124 -35 -227 -64 -229 -66 -2 -2 -2 -7 1 -10 l6 -5 347 100 c190 55 375 106
411 113 l64 11 0 9 c0 4 -1 8 -2 7 -2 0 -39 -9 -83 -19z"/>
<path d="M50243 43161 c-112 -31 -203 -59 -203 -63 l0 -7 83 23 c45 13 136 38
202 56 66 18 122 35 124 36 16 14 -29 4 -206 -45z"/>
<path d="M32159 43026 c-20 -19 -83 -92 -139 -163 -57 -70 -110 -135 -117
-145 l-14 -16 9 -6 8 -5 100 122 c54 67 123 147 152 178 28 31 52 59 52 62 0
14 -16 5 -51 -27z"/>
<path d="M52081 43032 c-1 -17 189 -395 195 -389 3 3 -40 94 -95 203 -55 110
-100 193 -100 186z"/>
<path d="M49517 42970 l-26 -41 14 -5 14 -6 11 7 c5 3 17 20 25 36 l16 30 -6
9 c-11 17 -21 11 -48 -30z"/>
<path d="M8554 42973 c3 -16 8 -102 12 -193 4 -91 10 -185 15 -210 l8 -45 -4
90 c-2 50 -7 156 -11 238 l-7 147 -9 0 -10 0 6 -27z"/>
<path d="M51185 42949 c-167 -23 -198 -29 -192 -35 6 -7 317 35 342 46 l20 9
-20 -1 c-11 0 -78 -9 -150 -19z"/>
<path d="M51340 42932 c0 -25 41 -290 51 -326 14 -53 22 -39 9 18 -6 26 -19
106 -29 178 -11 71 -22 133 -25 136 l-6 5 0 -11z"/>
<path d="M31771 42498 l-164 -168 7 -7 7 -7 120 119 c134 133 202 211 197 223
l-3 8 -164 -168z"/>
<path d="M91722 42613 c-46 -25 -82 -46 -80 -49 2 -2 42 17 88 41 l85 44 34 1
34 0 94 -55 c52 -30 99 -55 106 -55 7 0 -36 27 -95 60 l-106 60 -39 -1 -38 -2
-83 -44z"/>
<path d="M91738 42576 c-43 -22 -78 -44 -78 -47 0 -3 37 13 83 37 l82 43 23 1
23 0 95 -55 c51 -30 94 -51 94 -47 0 4 -43 31 -94 60 l-94 52 -29 -1 -28 -2
-77 -41z"/>
<path d="M51208 42536 l-167 -21 -7 -8 -8 -8 39 6 c22 3 111 14 198 24 88 11
161 22 165 25 l5 6 -29 -1 c-16 -1 -104 -11 -196 -23z"/>
<path d="M30095 42475 c5 -11 16 -58 26 -105 l19 -85 9 -195 9 -195 10 -25
c19 -50 402 -488 435 -499 12 -4 -5 16 -133 154 -42 44 -119 133 -173 197
l-97 117 -14 33 -14 33 -12 208 -11 209 -20 76 -19 76 -12 11 -11 10 8 -20z"/>
<path d="M39578 42380 l-67 -91 -6 -52 -7 -53 11 -69 10 -70 -4 80 -5 80 13
51 13 50 62 82 c35 45 59 82 54 82 -4 0 -38 -41 -74 -90z"/>
<path d="M52511 42250 c0 -42 179 -390 200 -390 4 0 -21 50 -57 111 -35 60
-82 151 -104 202 -21 51 -39 85 -39 77z"/>
<path d="M54590 41939 c-85 -60 -157 -115 -159 -122 l-4 -12 34 26 c19 14 90
65 159 114 69 49 127 90 129 92 2 2 2 5 0 7 -2 3 -74 -45 -159 -105z"/>
<path d="M31081 41772 l-170 -237 -43 -42 c-24 -22 -169 -136 -323 -253 l-280
-212 -3 -15 -4 -16 229 174 c369 280 377 286 410 321 29 31 373 504 373 514 0
23 -44 -31 -189 -234z"/>
<path d="M30907 41623 c-15 -21 -50 -61 -79 -89 l-53 -51 -375 -283 -375 -283
-45 -18 c-25 -9 -78 -22 -119 -29 l-74 -12 -49 6 -49 7 -66 36 c-36 20 -93 58
-126 85 -58 46 -78 57 -76 41 1 -15 114 -100 189 -143 l75 -43 57 -5 57 -4 68
11 c37 7 88 19 113 28 l45 16 380 285 c209 157 402 306 428 331 46 44 117 132
117 145 0 17 -20 2 -43 -31z"/>
<path d="M30336 41598 c22 -24 82 -89 134 -146 51 -56 95 -100 98 -98 6 7
-250 286 -262 286 l-10 0 40 -42z"/>
<path d="M48397 41298 c-51 -68 -110 -145 -130 -172 l-37 -50 10 -10 10 -10 8
10 c5 5 65 84 135 175 l126 167 -6 6 c-14 13 -26 1 -116 -116z"/>
<path d="M56764 41115 l0 -210 3 108 c2 59 2 154 0 210 l-3 102 0 -210z"/>
<path d="M97110 40649 l-265 -89 -128 -57 c-70 -32 -124 -59 -119 -61 5 -1 63
22 128 51 l119 54 278 92 c152 51 277 95 277 97 0 9 -38 -2 -290 -87z"/>
<path d="M97606 40562 l-5 -9 56 -46 c32 -25 59 -44 61 -42 7 7 -7 22 -57 64
l-49 42 -6 -9z"/>
<path d="M84815 39969 c5 -8 50 -75 100 -149 51 -74 167 -260 260 -412 93
-153 170 -276 173 -273 12 12 -497 821 -530 841 l-11 7 8 -14z"/>
<path d="M81060 39966 c0 -12 234 -386 242 -386 7 0 -214 365 -233 385 l-9 9
0 -8z"/>
<path d="M84777 39946 c-4 -10 -213 -147 -298 -196 -74 -42 -279 -176 -279
-182 0 -15 17 -6 160 87 276 179 431 277 434 274 56 -76 198 -299 334 -524 96
-159 176 -292 178 -294 54 -61 -302 532 -429 716 -42 61 -74 113 -71 116 3 2
-2 7 -10 10 l-14 6 -5 -13z"/>
<path d="M62160 39841 c36 -21 412 -173 416 -169 5 6 -405 179 -421 178 l-10
-1 15 -8z"/>
<path d="M45410 39655 c0 -11 5 -27 10 -35 l10 -15 0 20 c0 11 -5 27 -10 35
l-10 15 0 -20z"/>
<path d="M81274 39547 c8 -24 223 -357 244 -377 l15 -15 -24 40 c-47 80 -241
369 -235 352z"/>
<path d="M51571 39116 c5 -5 423 -96 440 -96 34 0 -16 13 -205 55 -193 42
-246 51 -235 41z"/>
<path d="M51529 39069 c-55 -203 -96 -369 -91 -369 9 0 114 401 108 407 -3 3
-10 -15 -17 -38z"/>
<path d="M51572 39093 l-12 -5 5 -9 6 -8 -46 -177 c-26 -97 -49 -184 -52 -193
l-6 -16 10 10 11 10 47 180 c26 99 48 181 50 183 1 1 58 -11 126 -27 110 -27
705 -141 732 -141 42 0 -42 19 -319 70 -331 62 -524 105 -534 119 l-5 8 -13
-4z"/>
<path d="M1630 38913 c0 -5 39 -28 88 -52 48 -24 125 -65 171 -93 l83 -49 6 6
6 5 -20 15 c-10 7 -90 50 -176 95 l-158 81 0 -8z"/>
<path d="M52891 38816 c3 -3 279 -57 614 -120 336 -64 621 -119 635 -122 l25
-5 -10 9 -10 9 -616 117 c-596 112 -648 121 -638 112z"/>
<path d="M59970 38784 c0 -13 105 -181 137 -219 40 -47 140 -135 154 -135 6 0
-11 18 -38 41 -26 22 -67 61 -91 87 l-43 47 -56 93 c-52 86 -63 101 -63 86z"/>
<path d="M53780 38691 l0 -7 175 -33 c96 -18 185 -35 197 -38 l23 -6 -10 10
-10 9 -120 23 c-66 13 -150 29 -187 36 l-68 13 0 -7z"/>
<path d="M89040 38229 c-91 -60 -167 -115 -169 -121 l-4 -12 29 19 c221 144
314 209 314 216 0 12 18 22 -170 -102z"/>
<path d="M85850 38246 c0 -13 262 -428 267 -423 4 5 -238 400 -258 422 l-9 9
0 -8z"/>
<path d="M62310 38070 c-30 -28 -73 -60 -95 -73 l-40 -23 -85 -23 c-47 -13
-89 -28 -94 -33 -14 -12 -12 -11 103 22 l104 30 36 24 c49 35 148 126 136 126
-5 -1 -35 -23 -65 -50z"/>
<path d="M60055 38081 c83 -78 594 -549 608 -560 9 -7 17 -11 17 -8 0 10 -624
587 -634 587 l-10 0 19 -19z"/>
<path d="M62331 38035 l-57 -55 -65 -29 c-36 -16 -94 -37 -130 -46 -35 -9 -68
-21 -74 -27 l-10 -10 25 7 c14 5 54 16 90 25 36 10 86 27 111 39 l47 21 68 64
c38 36 65 65 61 66 -5 0 -34 -25 -66 -55z"/>
<path d="M60065 38022 c88 -89 570 -532 580 -532 l9 0 -14 14 c-535 496 -688
634 -575 518z"/>
<path d="M87130 37869 c-166 -100 -340 -212 -337 -216 5 -4 342 201 367 223
21 20 10 17 -30 -7z"/>
<path d="M86644 37612 c-55 -37 -120 -83 -145 -103 -24 -20 -162 -114 -307
-209 -144 -95 -261 -175 -258 -177 6 -6 555 354 591 387 17 16 80 60 140 99
l110 71 -15 -1 c-8 0 -60 -31 -116 -67z"/>
<path d="M59360 37602 c0 -18 184 -382 192 -382 7 0 -175 375 -188 389 -2 2
-4 -1 -4 -7z"/>
<path d="M85277 37375 c69 -108 128 -194 130 -191 6 5 -238 386 -248 386 -4 0
49 -88 118 -195z"/>
<path d="M86187 37247 c-125 -82 -226 -152 -223 -154 3 -3 105 61 228 142 243
161 233 153 227 159 -2 2 -107 -64 -232 -147z"/>
<path d="M60243 37280 c-24 -11 -60 -22 -80 -25 -51 -9 -254 -65 -273 -76
l-15 -8 14 -1 c7 0 59 13 115 29 55 16 117 32 136 36 48 9 150 48 150 57 0 10
4 11 -47 -12z"/>
<path d="M41044 36015 c3 -16 15 -97 26 -180 24 -174 30 -208 36 -202 3 3 -7
92 -22 198 l-27 194 -10 10 -9 10 6 -30z"/>
<path d="M34791 35943 c0 -11 339 -295 339 -285 0 8 -273 245 -322 280 l-18
13 1 -8z"/>
<path d="M34259 35732 c-74 -81 -141 -156 -149 -166 l-15 -20 12 7 c14 8 275
295 287 315 19 32 -12 1 -135 -136z"/>
<path d="M34235 35647 c-105 -116 -239 -264 -299 -330 l-108 -118 6 -6 6 -6
42 49 c24 27 148 166 277 309 129 143 243 270 254 282 11 13 19 25 16 27 -2 2
-90 -91 -194 -207z"/>
<path d="M21940 35693 c-91 -69 -173 -131 -184 -138 l-19 -14 6 -16 7 -15 189
141 189 142 -5 14 c-3 7 -8 13 -12 12 -3 0 -80 -57 -171 -126z"/>
<path d="M80040 35545 l-355 -184 -128 -41 c-70 -23 -126 -44 -124 -47 3 -2
55 12 117 31 l112 36 257 129 c365 185 508 261 491 260 -8 -1 -175 -83 -370
-184z"/>
<path d="M84447 35358 c-240 -155 -435 -283 -433 -286 3 -2 200 121 438 274
l433 278 42 4 42 4 25 -19 26 -18 66 -115 c37 -63 88 -144 114 -180 27 -36 82
-119 123 -185 41 -66 124 -201 186 -300 62 -99 118 -187 126 -195 l15 -14 0
11 c0 7 -4 14 -9 17 -8 5 -77 116 -299 481 -47 77 -111 174 -142 215 -31 41
-80 118 -110 170 l-53 95 -26 22 -26 22 -50 0 -50 0 -438 -281z"/>
<path d="M84917 35603 c-22 -6 -1245 -789 -1267 -811 l-15 -15 35 20 c19 11
306 194 636 406 l602 387 26 0 26 0 20 -20 c11 -11 33 -45 49 -77 17 -32 44
-78 60 -103 l31 -45 0 17 c0 9 -4 20 -10 23 -5 3 -33 49 -61 101 l-51 94 -21
15 c-22 15 -28 16 -60 8z"/>
<path d="M79800 35468 l-135 -71 -125 -43 c-145 -49 -146 -59 -3 -13 l98 31
140 70 c77 39 149 77 160 84 l19 14 -9 0 c-6 0 -71 -32 -145 -72z"/>
<path d="M86666 35261 l-6 -10 9 -5 10 -6 5 9 6 10 -9 5 -10 6 -5 -9z"/>
<path d="M85380 34948 c0 -14 180 -298 227 -357 2 -2 5 -2 8 1 3 3 -8 22 -24
42 -17 21 -65 95 -107 164 -72 118 -104 165 -104 150z"/>
<path d="M80043 34807 c-123 -67 -223 -124 -223 -128 0 -7 437 226 455 242 l9
9 -9 -1 c-6 0 -110 -55 -232 -122z"/>
<path d="M41536 34793 c25 -71 62 -174 82 -230 l35 -103 8 0 8 0 -55 158 c-31
86 -67 190 -81 230 l-25 72 -8 0 -9 0 45 -127z"/>
<path d="M86100 34809 c-96 -60 -181 -113 -189 -118 l-14 -8 7 -11 6 -10 191
118 c176 109 205 131 182 137 -4 1 -87 -48 -183 -108z"/>
<path d="M80298 34828 c21 -40 76 -142 122 -226 45 -84 84 -151 87 -149 6 7
-230 446 -240 447 l-9 0 40 -72z"/>
<path d="M30958 34593 c-2 -164 -1 -323 0 -353 l3 -54 13 -21 14 -21 61 -26
61 -26 5 8 5 9 -47 20 c-27 12 -55 25 -63 29 l-15 9 -11 34 -12 34 6 321 5
321 -12 7 -11 7 -2 -298z"/>
<path d="M59693 34589 c9 -13 48 -111 88 -218 40 -107 74 -190 76 -185 2 5
-32 101 -75 213 l-77 205 -13 4 -14 4 15 -23z"/>
<path d="M81070 34474 c-124 -68 -219 -124 -213 -124 7 0 110 52 228 116 l215
116 0 9 c0 5 -1 8 -2 8 -2 -1 -104 -57 -228 -125z"/>
<path d="M82842 34312 c-210 -140 -380 -257 -378 -259 2 -3 172 108 378 245
205 137 380 251 388 254 l14 4 -9 6 -10 5 -383 -255z"/>
<path d="M62173 34543 l-93 -15 0 -14 0 -14 10 0 c5 0 57 7 116 16 l106 16 24
-6 c33 -9 30 0 -6 19 -34 18 -36 17 -157 -2z"/>
<path d="M81092 34439 c-123 -67 -221 -123 -219 -126 6 -5 415 214 437 234 8
7 12 13 10 13 -3 0 -105 -55 -228 -121z"/>
<path d="M85644 34548 l-7 -11 11 7 c12 7 16 16 8 16 -3 0 -8 -5 -12 -12z"/>
<path d="M62556 34530 l30 -19 73 -16 c41 -8 76 -14 78 -12 2 3 -9 12 -24 22
l-28 18 -60 13 c-33 7 -69 13 -80 13 l-20 1 31 -20z"/>
<path d="M1870 34531 c0 -9 254 -61 358 -74 l42 -5 0 8 0 7 -72 7 c-40 4 -100
14 -133 23 -33 9 -90 21 -127 28 l-68 12 0 -6z"/>
<path d="M82860 34275 c-212 -140 -380 -255 -373 -255 6 0 184 115 395 255
211 140 378 255 373 255 -6 0 -183 -115 -395 -255z"/>
<path d="M3348 34503 l-138 -4 0 -7 0 -7 153 3 c83 2 190 7 237 11 l85 8 -100
-1 c-55 0 -162 -2 -237 -3z"/>
<path d="M77636 34414 c-92 -47 -166 -87 -163 -90 3 -3 78 32 168 77 l164 83
45 7 45 6 -45 1 -45 1 -169 -85z"/>
<path d="M87329 34001 c-219 -138 -254 -160 -243 -161 8 0 338 201 353 216 2
2 2 5 0 7 -2 2 -52 -26 -110 -62z"/>
<path d="M52325 33790 l-110 -19 -95 -1 -95 -1 -20 -9 -20 -9 105 5 c58 3 160
12 228 21 l122 16 0 9 c0 4 -1 8 -2 7 -2 -1 -52 -9 -113 -19z"/>
<path d="M65913 33612 l-98 -201 9 -14 9 -15 -113 -193 c-62 -107 -120 -203
-129 -213 l-16 -19 19 10 20 11 118 202 c65 111 118 208 118 215 0 8 -5 15
-11 17 l-11 4 96 193 c54 106 95 196 92 199 -3 3 -50 -85 -103 -196z"/>
<path d="M77806 33518 c-3 -23 -7 -121 -9 -215 l-4 -173 7 0 7 0 6 212 c5 210
4 261 -7 176z"/>
<path d="M73086 33443 c-14 -68 -46 -308 -46 -349 l0 -44 10 0 10 0 0 46 c0
38 22 206 45 342 l6 32 -10 0 -9 0 -6 -27z"/>
<path d="M1611 33016 c4 -5 770 -56 831 -56 17 0 29 2 27 4 -4 5 -770 56 -831
56 -17 0 -29 -2 -27 -4z"/>
<path d="M72990 32333 c0 -15 5 -35 10 -43 l10 -15 0 37 0 37 -10 6 -10 6 0
-28z"/>
<path d="M98877 31796 l6 -59 -16 6 -16 6 -30 -12 -31 -11 -10 -31 -10 -30 22
28 23 28 37 8 37 9 5 -12 c8 -17 -6 76 -15 104 l-8 25 6 -59z"/>
<path d="M41475 31540 c-16 -11 -25 -20 -20 -20 6 0 24 9 40 20 17 11 26 20
20 20 -5 0 -23 -9 -40 -20z"/>
<path d="M41525 31510 l-18 -20 11 0 c6 0 16 9 22 20 6 11 9 20 7 20 -2 0 -12
-9 -22 -20z"/>
<path d="M41400 31455 l-12 -15 10 0 c12 0 26 19 19 26 -2 2 -10 -2 -17 -11z"/>
<path d="M41462 31420 l-12 -20 8 0 c4 0 13 9 20 20 l12 20 -8 0 c-4 0 -13 -9
-20 -20z"/>
<path d="M41330 31365 l-14 -25 10 -9 c5 -4 28 -18 51 -31 l41 -23 16 6 16 6
0 25 0 25 -11 7 -11 7 7 -22 6 -21 -6 -10 -6 -9 -44 21 c-48 23 -51 28 -35 59
l11 19 -9 0 c-5 0 -15 -11 -22 -25z"/>
<path d="M99191 31287 c-2 -17 282 -399 301 -406 8 -3 -88 129 -279 385 -12
16 -22 25 -22 21z"/>
<path d="M5030 29157 l0 -13 215 -28 216 -28 6 6 6 6 -6 6 c-4 4 -407 64 -434
64 -2 0 -3 -6 -3 -13z"/>
<path d="M84015 29021 l-7 -12 59 -62 c60 -63 195 -193 225 -215 l16 -13 6 9
5 8 -148 148 -148 148 -8 -11z"/>
<path d="M74470 28871 c0 -5 68 -84 151 -175 l151 -166 9 6 9 5 -7 12 c-15 26
-296 327 -304 327 -5 0 -9 -4 -9 -9z"/>
<path d="M95585 26983 c-154 -113 -322 -236 -373 -273 l-93 -68 8 -5 8 -5 372
271 c205 150 372 275 373 280 0 4 -3 7 -7 7 -5 -1 -134 -93 -288 -207z"/>
<path d="M87395 25991 l-5 -10 202 -160 203 -161 4 11 c1 6 1 11 0 13 -2 1
-93 72 -201 159 l-197 157 -6 -9z"/>
<path d="M78480 25897 l0 -14 205 -98 205 -99 10 10 11 11 -207 99 c-113 54
-210 101 -215 102 l-9 4 0 -15z"/>
<path d="M90490 24839 c47 -5 150 -18 230 -30 l145 -20 119 -35 118 -35 120
-50 c66 -27 125 -48 130 -47 l10 4 -136 58 -136 57 -102 29 -101 30 -133 20
-134 20 -107 5 -108 4 85 -10z"/>
<path d="M89100 23311 c0 -12 149 -433 156 -440 18 -18 4 33 -59 224 l-72 218
-13 5 -12 4 0 -11z"/>
<path d="M22761 21538 c-27 -57 -97 -204 -155 -327 l-107 -225 -23 -108 -22
-107 12 -5 12 -4 21 109 22 110 106 222 c58 122 127 268 153 324 l49 103 -10
6 -10 6 -48 -104z"/>
<path d="M18125 21533 c-110 -14 -202 -27 -204 -29 -2 -2 -2 -7 2 -10 l5 -6
215 26 c118 14 219 26 226 26 6 0 11 5 11 10 l0 10 -27 -1 c-16 -1 -118 -12
-228 -26z"/>
<path d="M89545 20878 c-77 -71 -142 -135 -144 -141 -4 -11 65 49 224 196 39
36 68 67 65 70 -3 2 -68 -54 -145 -125z"/>
<path d="M89557 20836 l-135 -124 5 -6 6 -6 90 83 c49 45 110 101 136 123 l46
42 -6 6 -7 7 -135 -125z"/>
<path d="M86760 20814 c0 -14 620 -658 627 -651 3 4 -337 365 -529 562 l-98
100 0 -11z"/>
<path d="M22650 19826 c0 -7 24 -114 54 -237 l55 -224 21 -160 21 -160 14
-315 c15 -329 29 -519 45 -607 l9 -52 21 -41 21 -41 9 6 10 6 -19 38 -19 37
-11 60 c-14 81 -39 439 -46 669 l-6 190 -25 195 -25 194 -56 228 -55 228 -9 0
-9 0 0 -14z"/>
<path d="M92930 16991 c0 -10 497 -453 799 -710 116 -100 211 -177 211 -173 0
4 -87 82 -192 173 -106 90 -334 289 -505 442 -172 152 -313 273 -313 268z"/>
<path d="M92348 16592 c-92 -69 -165 -128 -163 -130 6 -6 335 240 335 250 0
11 13 20 -172 -120z"/>
<path d="M92371 16559 c-89 -67 -160 -124 -157 -126 2 -2 78 50 168 118 188
140 174 129 161 129 -5 0 -82 -55 -172 -121z"/>
<path d="M24466 16222 l-6 -10 271 -479 c149 -263 307 -549 350 -636 l79 -157
21 -87 20 -88 2 -100 1 -100 -7 -22 -8 -23 14 0 14 0 7 38 c3 20 6 72 6 115
l0 77 -25 105 -25 106 -82 162 c-74 144 -599 1079 -618 1100 l-8 9 -6 -10z"/>
<path d="M91980 16146 c0 -2 8 -10 18 -17 l17 -14 -14 18 c-13 16 -21 21 -21
13z"/>
<path d="M98540 15264 c1 -12 339 -288 358 -293 12 -2 -206 181 -345 292 l-13
9 0 -8z"/>
<path d="M97886 14543 c-339 -395 -616 -722 -616 -727 l0 -10 9 10 c76 82
1231 1437 1228 1441 -3 2 -282 -319 -621 -714z"/>
<path d="M0 14927 l0 -14 25 -11 24 -11 6 9 6 9 -31 16 -30 16 0 -14z"/>
<path d="M24720 14601 l0 -7 188 -22 c186 -22 229 -26 221 -18 -2 2 -87 14
-189 25 -102 12 -193 24 -202 26 l-18 3 0 -7z"/>
<path d="M25111 14328 c-18 -112 -35 -213 -38 -225 l-5 -23 14 0 14 0 33 203
c18 111 35 212 38 225 l5 22 -14 0 -14 0 -33 -202z"/>
<path d="M97305 13804 c-335 -393 -612 -720 -614 -726 l-3 -13 15 15 c8 8 279
326 602 705 324 380 595 698 603 708 8 9 13 19 11 21 -2 2 -278 -317 -614
-710z"/>
<path d="M25116 14023 c-3 -21 -6 -67 -6 -103 l0 -65 15 -60 c23 -97 86 -238
281 -625 101 -201 188 -371 193 -379 l9 -14 11 8 12 7 -20 31 c-39 63 -382
760 -416 845 -20 48 -42 114 -49 147 l-14 60 5 93 6 92 -10 0 -10 0 -7 -37z"/>
<path d="M96670 13125 c-151 -177 -276 -329 -278 -336 l-4 -14 9 10 c12 12
531 622 552 648 l13 17 -8 -1 c-5 0 -133 -146 -284 -324z"/>
<path d="M95981 12967 l4 -16 495 -433 c273 -238 601 -525 730 -639 129 -113
262 -227 296 -255 33 -27 244 -206 468 -399 224 -192 412 -351 417 -353 l9 -4
0 15 0 15 -172 150 c-95 82 -283 245 -418 362 -135 117 -301 259 -370 315 -69
56 -179 151 -245 210 -66 59 -289 250 -495 424 -206 173 -445 379 -530 456
-85 77 -163 147 -174 155 l-18 14 3 -17z"/>
<path d="M25509 12776 c-2 -3 -85 -14 -184 -26 -98 -11 -181 -23 -184 -25 -8
-8 29 -6 204 15 l169 20 10 10 10 10 -10 0 c-6 0 -13 -2 -15 -4z"/>
<path d="M25490 12734 c-30 -7 -121 -21 -202 -31 -82 -9 -148 -20 -148 -23 l0
-6 118 13 c64 7 156 20 205 29 l87 16 0 9 c0 5 -1 9 -2 8 -2 -1 -28 -7 -58
-15z"/>
<path d="M96352 12712 c4 -11 345 -332 352 -332 19 0 -12 33 -165 178 -152
143 -199 182 -187 154z"/>
<path d="M96746 12422 l-6 -10 227 -193 c283 -242 398 -345 638 -575 105 -100
244 -226 310 -280 255 -210 1258 -1119 1710 -1550 163 -156 291 -271 358 -323
l17 -13 0 16 0 15 -51 35 -50 34 -247 239 c-441 428 -1390 1292 -1742 1585
-96 80 -197 169 -225 198 -79 83 -431 399 -665 600 -118 101 -227 194 -241
207 l-27 25 -6 -10z"/>
<path d="M25815 12349 c4 -12 18 -45 31 -75 l24 -54 11 0 10 0 -7 23 c-4 12
-17 46 -30 75 l-23 52 -11 0 -11 0 6 -21z"/>
<path d="M25770 12339 c0 -5 14 -42 31 -82 17 -40 64 -169 104 -287 l72 -215
28 -137 28 -138 12 0 12 0 -27 133 -27 132 -62 195 c-35 107 -83 243 -108 303
l-45 107 -9 0 c-5 0 -9 -5 -9 -11z"/>
<path d="M96670 12031 c0 -8 305 -275 338 -295 l12 -7 0 10 c0 8 -305 275
-337 295 l-13 7 0 -10z"/>
<path d="M26154 11013 c2 -10 17 -108 32 -218 l27 -200 8 -9 c5 -5 11 -7 14
-5 3 3 -9 105 -27 227 l-31 222 -14 0 -14 0 5 -17z"/>
<path d="M26475 8728 c15 -67 155 -1057 180 -1271 19 -167 117 -908 146 -1102
l20 -140 -5 -93 -5 -92 -16 -62 -16 -62 -42 -75 -41 -76 -87 -110 -87 -110
-284 -281 c-156 -154 -297 -291 -315 -303 -18 -12 -137 -70 -265 -130 l-233
-107 -55 -36 c-31 -20 -87 -64 -125 -98 l-70 -63 -157 -191 -157 -191 9 -9 9
-9 20 24 c10 13 76 94 146 179 l127 155 81 74 c45 41 111 92 147 115 l65 42
205 93 c113 51 225 105 250 119 l45 25 284 281 283 281 88 108 87 108 51 93
51 93 15 82 16 83 0 92 0 91 -15 115 c-46 337 -141 1064 -175 1335 -41 322
-56 429 -115 804 -19 123 -35 228 -35 232 l0 9 -15 0 -15 0 5 -22z"/>
<path d="M13460 6351 c0 -6 1 -11 3 -11 1 0 106 -11 232 -25 l230 -25 130 -26
c114 -22 255 -55 308 -70 l17 -5 0 9 0 9 -97 26 c-54 14 -154 37 -223 51
l-125 26 -195 20 c-107 11 -214 23 -237 26 l-43 6 0 -11z"/>
<path d="M13930 6240 l0 -10 23 -5 c12 -2 81 -16 152 -29 l130 -25 300 -80
299 -81 8 8 7 7 -327 87 c-180 48 -376 96 -437 108 -60 11 -120 23 -132 26
l-23 4 0 -10z"/>
<path d="M16166 5611 c5 -5 103 -46 217 -91 l208 -82 6 6 c4 3 4 8 2 10 -8 6
-424 166 -433 166 l-10 0 10 -9z"/>
<path d="M17036 5272 l-5 -8 211 -87 211 -86 10 6 10 6 -194 79 c-107 44 -204
84 -216 88 l-22 9 -5 -7z"/>
<path d="M17077 5193 l-8 -7 218 -87 218 -87 8 5 c5 3 7 6 5 8 -2 2 -177 73
-424 171 -5 3 -13 1 -17 -3z"/>
<path d="M17906 4921 c15 -13 426 -162 432 -156 3 3 3 7 1 9 -9 8 -416 156
-429 156 l-14 0 10 -9z"/>
<path d="M25384 4740 l-99 -59 -84 -79 -85 -78 8 -13 8 -13 82 80 81 80 103
62 102 62 -5 9 c-8 12 1 16 -111 -51z"/>
<path d="M19306 4352 l-5 -8 172 -62 c95 -33 226 -77 292 -97 66 -20 136 -41
155 -47 61 -19 354 -168 665 -339 165 -91 343 -185 395 -209 161 -76 618 -319
750 -400 l125 -76 175 -130 c96 -72 422 -327 723 -568 l548 -438 6 6 7 6 -15
14 c-42 40 -1138 909 -1272 1009 l-158 118 -137 83 c-154 93 -529 293 -745
395 -78 38 -279 144 -447 236 -168 93 -363 199 -435 236 l-130 67 -85 26 c-47
14 -128 37 -180 50 -52 14 -162 50 -244 81 -166 62 -153 58 -160 47z"/>
<path d="M29365 3400 l-6 -10 192 -125 192 -126 8 8 8 8 -195 127 -194 127 -5
-9z"/>
<path d="M23520 2146 l-110 -164 -16 -6 -16 -6 12 -15 12 -14 27 32 c31 35
209 299 218 322 l5 15 -11 0 -10 0 -111 -164z"/>
<path d="M23015 2281 c3 -5 79 -68 170 -140 l164 -130 6 8 5 9 -165 131 c-91
72 -170 131 -176 131 l-10 0 6 -9z"/>
<path d="M17680 1196 l0 -13 68 -6 c37 -3 239 -18 449 -33 l382 -28 7 7 c4 4
5 9 2 12 -3 3 -187 18 -409 35 -222 16 -425 31 -451 34 l-48 5 0 -13z"/>
<path d="M21689 1130 c-34 -18 -265 -106 -333 -127 l-30 -9 -4 -13 -4 -12 29
7 c94 23 403 149 403 165 0 14 -22 10 -61 -11z"/>
<path d="M18130 1118 l0 -14 208 -18 c114 -10 214 -20 223 -22 l17 -5 5 14 5
14 -186 17 c-103 9 -206 19 -229 23 l-43 5 0 -14z"/>
</g>
</svg>
