<?xml version="1.0" standalone="no"?>
<!DOCTYPE svg PUBLIC "-//W3C//DTD SVG 20010904//EN"
 "http://www.w3.org/TR/2001/REC-SVG-20010904/DTD/svg10.dtd">
<svg version="1.0" xmlns="http://www.w3.org/2000/svg"
 width="7500.000000pt" height="7500.000000pt" viewBox="0 0 7500.000000 7500.000000"
 preserveAspectRatio="xMidYMid meet">
<metadata>
Created by potrace 1.16, written by Peter Selinger 2001-2019
</metadata>
<g transform="translate(0.000000,7500.000000) scale(0.075000,-0.075000)"
fill="#000000" stroke="none">
<path d="M88935 99970 c67 -32 75 -34 75 -21 l0 9 -49 21 c-27 11 -58 21 -68
20 l-18 -1 60 -28z"/>
<path d="M90157 99898 c-40 -111 -42 -118 -28 -118 10 0 10 0 56 128 l34 92
-12 0 -13 0 -37 -102z"/>
<path d="M14170 96588 l0 -14 293 -27 292 -28 163 -25 164 -26 6 6 6 6 -10 9
c-15 13 -280 49 -559 76 -143 14 -281 28 -307 31 l-48 6 0 -14z"/>
<path d="M87880 96390 l-65 -7 135 0 135 0 80 -26 c43 -15 81 -24 83 -22 5 5
-12 12 -93 40 l-50 17 -80 3 c-44 1 -109 -1 -145 -5z"/>
<path d="M86933 96239 l-41 -42 -83 2 c-46 1 -93 3 -104 3 -11 1 -32 1 -47 0
l-28 -2 0 -7 0 -8 134 0 134 0 22 20 c22 20 65 75 58 75 -2 0 -22 -19 -45 -41z"/>
<path d="M88641 96136 c11 -10 390 -168 394 -164 3 3 -82 42 -187 87 -169 71
-223 91 -207 77z"/>
<path d="M98532 95071 l-162 -170 10 -6 11 -7 157 162 c86 90 158 169 160 176
l3 14 -8 0 c-5 0 -82 -76 -171 -169z"/>
<path d="M98270 94485 c102 -42 188 -74 193 -72 11 3 -344 147 -363 147 -8 -1
68 -34 170 -75z"/>
<path d="M99095 94347 c77 -67 117 -107 187 -187 32 -36 57 -60 57 -55 0 18
-143 171 -218 234 -89 74 -110 81 -26 8z"/>
<path d="M99361 94090 c25 -14 380 -150 393 -150 l11 1 -17 10 c-27 15 -378
149 -391 149 l-12 -1 16 -9z"/>
<path d="M87817 93372 c-40 -42 -33 -51 8 -12 l36 35 79 -81 79 -80 14 8 c8 4
27 8 43 10 l29 2 38 -13 c21 -7 41 -11 44 -8 2 3 -20 13 -50 23 l-54 17 -30
-11 -30 -10 -74 74 -73 74 -16 0 -16 0 -27 -28z"/>
<path d="M87350 93258 l-105 -130 -53 -47 -52 -48 6 -6 7 -6 40 31 40 32 111
134 c61 74 114 140 119 147 l7 14 -7 4 -8 4 -105 -129z"/>
<path d="M87275 92760 l-210 -210 -12 0 c-11 0 -139 76 -221 132 -24 17 -46
28 -48 25 -6 -5 159 -117 233 -158 l43 -24 205 205 c177 176 236 240 223 240
-2 0 -98 -94 -213 -210z"/>
<path d="M89520 92716 c0 -8 442 -148 447 -142 4 4 -424 146 -441 146 -3 0 -6
-2 -6 -4z"/>
<path d="M57901 92306 c2 -2 78 -45 169 -96 91 -51 180 -101 198 -112 l32 -20
0 9 c0 9 -379 223 -394 223 -5 0 -7 -2 -5 -4z"/>
<path d="M32593 90865 l-223 -40 0 -13 0 -14 28 6 c15 3 117 22 227 42 110 20
201 37 202 38 1 1 -1 6 -5 12 l-7 10 -222 -41z"/>
<path d="M94690 90743 c-50 -5 -149 -34 -160 -48 l-9 -11 69 22 70 23 72 2 73
1 89 -21 c49 -12 91 -19 93 -17 5 5 -32 16 -140 40 -66 16 -84 17 -157 9z"/>
<path d="M95010 90724 c0 -6 24 -34 53 -62 l54 -50 59 -30 c84 -42 214 -95
220 -89 3 2 -33 19 -78 38 -46 18 -110 49 -143 68 l-60 34 -52 51 -53 50 0
-10z"/>
<path d="M29140 90571 c8 -5 87 -28 175 -51 l160 -43 37 -18 c41 -21 48 -23
48 -11 0 13 -107 49 -268 92 -159 41 -177 45 -152 31z"/>
<path d="M84513 90365 l-62 -83 -84 -169 -84 -168 -51 -185 c-28 -102 -72
-274 -97 -383 l-47 -197 5 -13 5 -12 5 15 c4 8 27 103 52 210 25 107 68 278
96 379 l51 185 80 160 80 161 41 55 c22 30 51 69 64 87 l24 31 -8 5 -8 5 -62
-83z"/>
<path d="M94370 89194 c0 -6 13 -23 29 -38 l29 -28 -20 -45 c-11 -25 -31 -84
-44 -132 l-24 -86 1 -40 1 -40 14 67 c8 37 28 107 45 155 16 49 32 97 35 108
l5 20 -35 34 -36 35 0 -10z"/>
<path d="M85365 88978 c-167 -27 -508 -94 -735 -144 -140 -31 -322 -66 -405
-79 l-150 -23 40 -1 c58 -1 200 23 460 79 127 27 354 72 505 100 151 28 282
53 290 57 8 3 110 9 225 13 l210 6 -190 1 -190 0 -60 -9z"/>
<path d="M85115 88894 c-104 -19 -334 -66 -509 -105 l-319 -71 -101 -9 c-136
-13 -145 -20 -16 -13 l105 6 355 78 c195 43 427 90 515 105 l160 27 10 9 9 9
-9 -1 c-6 -1 -95 -16 -200 -35z"/>
<path d="M35116 88392 l-6 -10 165 -157 164 -157 10 6 9 6 -160 158 c-88 86
-163 158 -168 160 -4 2 -11 -1 -14 -6z"/>
<path d="M84773 87918 c-73 -145 -162 -318 -198 -385 -36 -68 -62 -123 -58
-123 16 0 397 743 391 761 -2 5 -62 -109 -135 -253z"/>
<path d="M84647 87577 c-54 -105 -90 -181 -80 -168 27 37 194 361 185 361 -4
0 -51 -87 -105 -193z"/>
<path d="M84277 86933 c-20 -48 -41 -94 -45 -101 l-9 -13 -257 71 c-241 66
-286 76 -275 66 6 -7 516 -146 533 -146 l13 0 42 96 c23 52 41 100 39 105 l-3
10 -38 -88z"/>
<path d="M84307 86898 l-46 -103 -15 -9 -14 -10 -276 76 c-152 41 -276 72
-276 68 0 -5 553 -160 572 -160 8 0 111 230 105 236 -2 2 -25 -42 -50 -98z"/>
<path d="M36935 86662 c6 -6 71 -54 145 -106 l135 -96 14 0 15 0 -80 54 c-43
30 -110 76 -149 103 -38 26 -74 50 -80 52 l-10 4 10 -11z"/>
<path d="M83260 85593 c-62 -131 -163 -339 -226 -463 -62 -124 -111 -227 -109
-228 11 -11 33 24 102 161 111 222 363 748 363 758 0 5 -4 9 -9 9 l-8 0 -113
-237z"/>
<path d="M82990 85166 c-60 -124 -110 -228 -110 -231 0 -25 36 37 130 225
l110 219 -10 6 -9 6 -111 -225z"/>
<path d="M88247 84758 c-45 -172 -57 -231 -37 -181 18 44 91 335 88 349 l-3
16 -48 -184z"/>
<path d="M82830 84800 l-33 -120 6 -7 c11 -10 12 -6 49 125 l35 122 -12 0 -12
0 -33 -120z"/>
<path d="M82698 84633 c-18 -15 -34 -27 -35 -28 -2 -1 -4 -11 -6 -22 l-3 -21
-52 -57 -53 -58 3 -9 c7 -19 17 -12 72 50 l56 63 0 13 c0 7 13 25 29 40 l29
28 43 3 c57 4 56 4 39 15 l-15 10 -37 0 -36 0 -34 -27z"/>
<path d="M86653 84573 l7 -6 7 6 6 7 -13 0 -13 0 6 -7z"/>
<path d="M86618 84355 l-28 -180 -20 -249 c-11 -137 -19 -251 -16 -253 7 -7
14 60 32 282 l15 200 25 168 c14 93 24 178 22 190 l-3 22 -27 -180z"/>
<path d="M82660 84498 c0 -7 4 -19 9 -27 l9 -13 6 10 6 10 -6 16 c-7 19 -24
21 -24 4z"/>
<path d="M82549 84403 c-1 -4 0 -20 1 -34 l1 -27 -35 -68 -35 -69 -43 -46
c-24 -25 -49 -48 -57 -50 l-15 -5 8 -12 7 -11 28 17 c16 10 46 38 66 62 l38
45 34 71 34 71 -7 27 c-3 14 -10 29 -15 32 l-9 5 -1 -8z"/>
<path d="M81811 83906 c11 -9 381 -138 385 -134 5 6 -356 138 -376 138 -7 0
-11 -2 -9 -4z"/>
<path d="M77216 83614 c-32 -47 -55 -88 -53 -91 3 -2 29 31 58 74 28 43 54 80
55 82 2 2 115 -35 251 -82 247 -86 769 -257 788 -257 l9 0 -9 9 c-6 5 -93 34
-195 66 -102 32 -333 109 -514 171 -180 63 -329 114 -331 114 -1 0 -28 -39
-59 -86z"/>
<path d="M84127 83558 c5 -7 56 -79 112 -160 56 -81 108 -151 114 -155 l11 -7
-19 30 c-69 106 -211 303 -219 304 l-8 0 9 -12z"/>
<path d="M95287 83028 c-65 -94 -116 -172 -113 -175 3 -4 205 278 239 334 l8
13 -8 0 c-4 -1 -61 -78 -126 -172z"/>
<path d="M76525 82588 c-60 -95 -115 -183 -123 -195 l-14 -23 8 0 c11 0 249
379 242 385 -3 3 -54 -72 -113 -167z"/>
<path d="M92542 82408 c-60 -84 -112 -159 -117 -167 l-8 -14 11 4 c11 4 220
292 229 316 14 35 -15 1 -115 -139z"/>
<path d="M53330 82251 c0 -5 -49 -97 -110 -205 -60 -108 -110 -201 -110 -207
l0 -10 9 6 c5 3 51 81 102 173 51 92 103 183 115 204 l23 36 -14 6 -15 5 0 -8z"/>
<path d="M96287 81524 c-136 -190 -247 -349 -245 -354 2 -6 376 506 497 680
l13 20 -8 -1 c-5 0 -121 -156 -257 -345z"/>
<path d="M97576 80905 c4 -16 14 -43 22 -60 22 -45 107 -168 128 -187 11 -9
66 -35 124 -58 58 -24 172 -76 254 -117 81 -41 150 -72 153 -69 7 7 -237 129
-392 196 l-130 56 -62 89 -62 90 -12 35 c-6 19 -16 40 -21 45 l-9 10 7 -30z"/>
<path d="M78915 80141 c-104 -76 -191 -144 -193 -150 l-4 -11 10 0 c13 0 387
273 391 285 7 25 -28 4 -204 -124z"/>
<path d="M99943 80043 c-55 -105 -127 -272 -120 -279 2 -3 24 42 48 98 24 57
63 139 87 183 23 43 41 83 40 87 -2 5 -26 -35 -55 -89z"/>
<path d="M98897 79553 c-3 -10 -43 -102 -90 -205 -47 -104 -82 -188 -78 -188
4 0 38 69 75 153 38 83 79 176 92 205 l24 52 -9 0 c-5 0 -11 -8 -14 -17z"/>
<path d="M46651 79308 c-5 -13 -43 -107 -85 -210 -76 -186 -83 -208 -68 -208
l8 0 82 203 c45 111 84 210 88 220 l6 17 -11 0 -11 0 -9 -22z"/>
<path d="M99535 79123 c-48 -109 -90 -205 -93 -213 l-5 -15 10 10 c14 14 186
405 181 411 -3 2 -44 -85 -93 -193z"/>
<path d="M98470 78659 c-63 -94 -135 -228 -127 -235 2 -3 21 28 42 68 21 40
64 113 97 161 33 49 58 91 55 93 -3 3 -33 -36 -67 -87z"/>
<path d="M28864 77533 c3 -16 17 -96 31 -179 l25 -152 0 -101 0 -101 10 0 10
0 0 101 0 101 -25 152 c-14 83 -28 163 -31 179 l-6 27 -10 0 -10 0 6 -27z"/>
<path d="M41730 77530 c0 -23 102 -358 128 -417 l26 -63 14 0 13 0 -7 23 c-3
12 -14 36 -22 52 -9 17 -41 115 -71 219 l-56 189 -12 5 -13 4 0 -12z"/>
<path d="M16810 76247 l0 -12 83 -22 c45 -13 109 -27 141 -33 l60 -10 78 0 78
0 0 10 0 10 -62 0 -63 0 -85 15 c-47 8 -114 23 -150 35 -77 24 -80 24 -80 7z"/>
<path d="M73000 70832 l0 -8 113 -27 112 -27 120 -10 120 -10 243 0 242 0 0
10 0 10 -221 0 -220 0 -147 11 -147 10 -98 25 c-107 26 -117 28 -117 16z"/>
<path d="M28320 69420 l0 -10 24 0 c13 0 117 -7 231 -15 190 -14 227 -14 213
0 -4 4 -392 35 -444 35 l-24 0 0 -10z"/>
<path d="M24010 69360 c-63 -4 -132 -8 -152 -9 l-38 -1 0 -11 0 -12 88 7 c48
3 149 9 225 12 l137 7 0 8 0 9 -72 -2 c-40 -1 -125 -5 -188 -8z"/>
<path d="M20690 69160 l-315 -38 -100 -23 c-93 -21 -125 -33 -114 -43 2 -2 49
7 103 20 l99 24 340 40 c186 22 345 40 353 40 l14 0 0 10 0 10 -32 -1 c-18 -1
-175 -18 -348 -39z"/>
<path d="M76888 67655 l-6 -10 8 -180 c5 -99 9 -210 9 -247 l1 -68 11 0 11 0
-7 213 c-4 116 -11 232 -14 257 l-6 45 -7 -10z"/>
<path d="M46940 67501 c0 -5 7 -11 15 -15 23 -8 623 -436 745 -531 119 -92
558 -390 565 -383 2 2 -98 73 -223 158 -125 84 -265 184 -312 220 -108 85
-749 544 -773 553 l-17 6 0 -8z"/>
<path d="M30810 67201 c50 -29 434 -121 447 -107 6 6 -22 13 -82 21 -27 3
-121 26 -207 51 -159 44 -185 50 -158 35z"/>
<path d="M55377 66926 l-16 -24 -16 -125 c-16 -130 -18 -174 -10 -166 2 3 12
68 20 145 l16 139 20 28 20 27 -10 0 c-5 0 -16 -11 -24 -24z"/>
<path d="M55411 66906 l-12 -14 -14 -123 c-16 -132 -18 -165 -10 -158 2 3 11
65 20 139 l16 134 16 18 16 18 -10 0 c-6 0 -16 -6 -22 -14z"/>
<path d="M37016 66839 c-76 -4 -141 -11 -145 -14 l-6 -7 150 7 c83 4 188 11
235 15 l85 7 -90 0 c-49 0 -152 -4 -229 -8z"/>
<path d="M94420 66571 c0 -18 140 -852 146 -874 20 -66 5 43 -62 433 -67 395
-84 485 -84 441z"/>
<path d="M41210 66526 l0 -14 14 -5 14 -6 6 14 5 13 -15 6 c-22 8 -24 8 -24
-8z"/>
<path d="M41550 66192 c0 -11 311 -215 317 -208 3 3 -21 22 -53 42 -33 21
-105 68 -161 106 l-103 68 0 -8z"/>
<path d="M97515 66138 c3 -12 23 -105 44 -206 21 -100 41 -185 45 -189 17 -18
12 20 -27 207 l-43 204 -12 4 -13 4 6 -24z"/>
<path d="M41906 66004 l-6 -17 15 13 c17 14 19 20 6 20 -5 0 -12 -7 -15 -16z"/>
<path d="M50331 65976 c32 -26 403 -276 406 -273 6 6 -385 277 -399 277 -6 0
-9 -2 -7 -4z"/>
<path d="M49150 65942 c0 -10 319 -239 347 -249 l18 -6 -10 10 c-8 9 -96 72
-327 235 l-28 19 0 -9z"/>
<path d="M83996 65871 l-200 -67 -3 -11 -4 -11 208 68 208 69 3 11 4 10 -9 -1
c-4 0 -98 -31 -207 -68z"/>
<path d="M32917 65169 l-5 -19 21 -5 c12 -3 116 -18 230 -33 l208 -28 -3 20
-3 21 -190 26 c-104 15 -204 30 -222 32 l-31 5 -5 -19z"/>
<path d="M82445 64924 c-77 -40 -161 -81 -187 -91 l-48 -17 0 -9 0 -8 23 6
c37 10 321 152 347 174 l25 20 -10 0 c-5 -1 -73 -34 -150 -75z"/>
<path d="M31355 64918 c-38 -16 -94 -41 -122 -54 l-53 -25 0 -11 0 -10 23 14
c12 8 76 36 142 63 l120 48 112 -7 c62 -3 295 -29 519 -56 223 -28 409 -49
411 -46 8 7 -32 13 -472 66 l-409 50 -101 -1 -100 -1 -70 -30z"/>
<path d="M37184 64725 c-4 -9 -5 -18 -3 -20 2 -2 96 -15 209 -29 113 -15 215
-29 228 -31 l22 -5 0 20 0 20 -22 4 c-13 3 -97 14 -188 26 -91 11 -182 23
-202 26 l-38 6 -6 -17z"/>
<path d="M37060 64572 l0 -21 38 -11 c20 -6 105 -19 187 -30 l150 -19 254 -16
c139 -8 264 -15 277 -15 l24 0 0 20 0 20 -32 0 c-83 0 -525 32 -633 46 -131
16 -228 32 -251 41 l-14 5 0 -20z"/>
<path d="M34906 64349 c-20 -84 -52 -296 -86 -569 -22 -173 -43 -325 -45 -337
l-5 -23 8 0 8 0 38 303 c21 166 51 378 67 472 15 93 26 171 24 173 -2 2 -6 -6
-9 -19z"/>
<path d="M40584 64118 l-46 -62 6 -29 6 -29 116 -129 c106 -119 138 -150 117
-116 -4 7 -55 66 -113 131 l-105 117 -7 24 -6 24 37 53 c48 68 53 78 47 78 -4
0 -27 -28 -52 -62z"/>
<path d="M40240 64118 c0 -36 4 -35 14 5 l6 27 -10 0 -10 0 0 -32z"/>
<path d="M79418 64091 c-187 -24 -230 -33 -217 -45 3 -2 421 48 437 53 6 2 1
21 -5 20 -5 -1 -101 -13 -215 -28z"/>
<path d="M1930 63988 l0 -13 320 -285 c177 -157 325 -286 330 -288 l10 -4 0 9
c0 7 -249 232 -617 556 l-43 39 0 -14z"/>
<path d="M77270 63993 c0 -11 58 -56 98 -77 l33 -17 10 7 11 6 -49 28 c-27 16
-55 35 -62 44 -14 16 -41 22 -41 9z"/>
<path d="M43511 63689 c-72 -110 -127 -199 -122 -197 13 4 272 398 262 398 -5
0 -68 -90 -140 -201z"/>
<path d="M89635 63879 c5 -8 48 -59 96 -114 47 -55 105 -127 128 -159 46 -66
57 -65 13 1 -31 46 -218 269 -235 280 l-10 6 8 -14z"/>
<path d="M2220 63653 c0 -5 35 -40 78 -77 69 -61 116 -104 218 -199 l32 -29 6
10 6 10 -160 144 c-89 79 -165 145 -170 146 l-10 4 0 -9z"/>
<path d="M41197 63494 c-80 -69 -95 -84 -83 -84 3 0 42 32 87 70 45 39 82 70
84 68 13 -18 221 -246 233 -255 9 -7 20 -13 25 -13 l9 0 -20 18 c-15 13 -142
153 -241 264 l-7 8 -87 -76z"/>
<path d="M98477 63534 l-6 -6 31 -87 c17 -47 67 -174 110 -281 l79 -195 10
-98 c10 -101 32 -224 43 -234 14 -14 14 6 0 67 -8 36 -18 110 -23 166 l-10
101 -75 185 c-42 102 -90 228 -107 279 -17 52 -34 97 -38 102 l-7 7 -7 -6z"/>
<path d="M89663 63303 l-213 -217 9 -9 9 -9 214 217 c117 119 215 221 216 226
l4 9 -13 0 -13 0 -213 -217z"/>
<path d="M98420 63516 c0 -16 91 -259 135 -361 29 -66 59 -142 68 -170 l16
-50 10 -105 c6 -58 15 -129 21 -158 l12 -52 9 0 c11 0 12 -8 -5 75 -8 39 -17
108 -21 155 l-7 85 -13 45 c-7 25 -32 90 -55 145 -24 55 -66 165 -95 245 l-53
144 -11 4 c-6 2 -11 1 -11 -2z"/>
<path d="M43129 63312 c-35 -32 -158 -138 -274 -237 -215 -183 -357 -311 -364
-329 -2 -6 20 11 50 38 30 26 162 141 294 254 241 206 380 332 365 332 -4 0
-36 -26 -71 -58z"/>
<path d="M13210 63347 c0 -2 30 -24 68 -49 l67 -44 120 -31 c66 -18 129 -35
140 -38 l20 -6 -25 14 c-14 8 -72 27 -130 42 l-105 27 -70 42 c-79 46 -85 49
-85 43z"/>
<path d="M48045 63271 c8 -13 355 -194 361 -188 5 4 -350 197 -362 197 -3 0
-3 -4 1 -9z"/>
<path d="M41575 63170 c3 -5 8 -10 11 -10 2 0 4 5 4 10 0 6 -5 10 -11 10 l-10
0 6 -10z"/>
<path d="M41545 63140 c3 -5 11 -10 16 -10 l10 0 -6 10 c-3 6 -11 10 -16 10
l-10 0 6 -10z"/>
<path d="M15030 62993 l0 -32 10 -6 10 -6 0 23 c0 13 -5 30 -10 38 l-10 15 0
-32z"/>
<path d="M16620 62990 c-80 -4 -166 -8 -192 -9 l-48 -1 0 -16 0 -15 153 6 c83
3 185 8 225 11 l72 6 0 14 0 14 -32 -2 c-18 -1 -98 -5 -178 -8z"/>
<path d="M15252 62940 c-100 -4 -185 -10 -188 -13 l-6 -6 6 -9 6 -10 132 4
c73 3 170 7 216 10 l82 6 0 14 0 14 -32 -2 c-18 -1 -115 -4 -216 -8z"/>
<path d="M17980 62943 c-25 -1 -207 -7 -404 -13 l-360 -10 -10 -11 -11 -12 30
7 c17 3 210 10 430 16 l399 10 10 10 10 10 -24 -2 c-14 -1 -45 -3 -70 -5z"/>
<path d="M15990 62911 c29 -16 86 -20 355 -26 149 -3 278 -8 288 -11 l17 -5 0
10 c0 13 31 11 -225 17 -121 3 -264 9 -318 14 -54 6 -105 10 -115 10 l-17 -1
15 -8z"/>
<path d="M16670 62800 l0 -90 10 0 10 0 0 90 0 90 -10 0 -10 0 0 -90z"/>
<path d="M57650 62871 c0 -5 3 -17 7 -26 l6 -17 156 -75 c179 -86 391 -175
391 -165 0 4 -33 20 -73 36 -39 16 -159 71 -266 121 l-194 92 -8 21 c-9 22
-19 29 -19 13z"/>
<path d="M59950 62859 l0 -6 163 -12 c89 -6 191 -14 227 -18 l65 -6 -7 7 -6 8
-221 17 -221 17 0 -7z"/>
<path d="M59945 62820 l-4 -7 167 -12 c92 -6 194 -14 227 -18 l60 -6 -7 8 -7
8 -216 16 -216 17 -4 -6z"/>
<path d="M12555 62800 l-60 -7 160 5 c88 2 162 6 164 8 7 6 -199 1 -264 -6z"/>
<path d="M60425 62753 c7 -32 25 -119 41 -193 l27 -135 10 -10 9 -10 -5 20
c-3 11 -23 102 -43 203 l-38 182 -7 0 -7 0 13 -57z"/>
<path d="M11095 62720 l-18 -20 -198 0 -198 0 -7 -12 -7 -11 144 6 c79 4 172
7 206 7 l62 0 28 25 28 24 -11 1 c-6 0 -19 -9 -29 -20z"/>
<path d="M94552 62647 c-25 -51 -104 -299 -97 -306 8 -7 10 -2 60 149 27 80
54 155 62 167 l14 21 -9 6 -9 5 -21 -42z"/>
<path d="M42406 62618 c12 -20 255 -298 260 -298 10 0 -12 28 -134 168 -112
129 -147 165 -126 130z"/>
<path d="M42220 62459 c-91 -77 -176 -152 -190 -166 l-25 -26 15 9 c13 7 327
271 370 310 l14 14 -9 0 c-6 0 -84 -63 -175 -141z"/>
<path d="M89022 62421 c2 -5 81 -75 176 -156 l174 -146 11 4 11 3 -180 152
c-98 84 -183 152 -187 152 l-9 0 4 -9z"/>
<path d="M58650 62402 c0 -6 94 -49 363 -167 l57 -25 0 8 c0 4 -44 26 -98 49
-53 23 -148 64 -209 92 -62 27 -113 47 -113 43z"/>
<path d="M89015 62351 c17 -16 97 -86 179 -155 l149 -125 9 5 c5 3 8 7 6 9
-120 105 -352 295 -361 295 l-12 0 30 -29z"/>
<path d="M56760 62146 c0 -12 557 -252 566 -244 2 3 -119 57 -269 122 -149 64
-278 119 -284 122 l-13 6 0 -6z"/>
<path d="M56736 62112 c5 -5 128 -60 272 -122 l264 -114 4 -11 5 -12 -77 -169
c-42 -93 -80 -177 -85 -186 l-10 -18 8 0 c4 0 46 85 93 188 46 103 88 189 92
190 4 2 8 10 8 17 l0 14 -17 -1 -18 -1 -267 117 c-147 64 -271 116 -275 116
l-7 0 10 -8z"/>
<path d="M50630 62030 c0 -8 332 -159 339 -153 8 6 -8 14 -173 88 l-166 73 0
-8z"/>
<path d="M94370 61942 c1 -9 272 -182 313 -199 52 -23 54 -14 2 11 -27 12
-110 62 -182 109 -73 48 -133 83 -133 79z"/>
<path d="M9979 61829 c-1 -2 -7 -103 -14 -224 l-13 -220 7 -7 7 -8 2 73 c2 39
7 141 12 226 6 85 8 157 5 159 -3 3 -6 3 -6 1z"/>
<path d="M61536 61734 c-225 -46 -412 -85 -417 -86 l-8 -3 7 -11 7 -10 225 47
c124 27 318 67 432 91 l208 43 0 8 0 7 -22 -1 c-13 -1 -207 -39 -432 -85z"/>
<path d="M61157 61715 c-331 -67 -377 -78 -366 -89 2 -2 174 30 382 71 l377
76 0 8 0 9 -17 -1 c-10 -1 -179 -34 -376 -74z"/>
<path d="M61590 61703 c0 -13 89 -431 96 -452 2 -8 6 -12 9 -10 2 3 -18 108
-46 234 -44 205 -59 261 -59 228z"/>
<path d="M57760 61667 c3 -3 390 -174 860 -380 470 -206 903 -397 963 -425 59
-28 107 -48 107 -44 0 4 -43 27 -95 51 l-94 43 8 17 c5 9 11 52 14 96 l5 80
35 150 c20 83 38 159 42 170 l6 20 -16 -27 -15 -27 -31 -133 -30 -133 -9 -99
c-5 -54 -11 -101 -14 -103 -2 -3 -386 163 -853 367 -466 205 -857 375 -868
378 l-20 5 5 -6z"/>
<path d="M61140 61612 c0 -11 197 -934 206 -965 3 -10 8 -17 10 -14 5 5 -204
978 -211 986 -3 2 -5 -1 -5 -7z"/>
<path d="M60698 61604 l-6 -6 19 -19 20 -20 6 -29 6 -30 8 0 9 0 0 23 0 22
-20 33 c-19 31 -30 38 -42 26z"/>
<path d="M61101 61608 c-1 -4 33 -161 75 -349 96 -434 219 -1031 319 -1544 43
-220 80 -402 82 -404 1 -2 6 -2 9 1 l5 6 -80 399 c-216 1074 -405 1945 -410
1891z"/>
<path d="M57141 61448 l-9 -25 -146 -108 c-80 -60 -144 -110 -141 -113 2 -3
72 46 154 107 l149 112 6 21 c8 31 -2 36 -13 6z"/>
<path d="M43525 61369 c100 -101 294 -273 301 -266 3 2 -37 41 -88 85 -51 44
-133 121 -183 171 -49 50 -94 91 -100 91 -5 0 26 -36 70 -81z"/>
<path d="M54773 61423 l7 -6 7 6 6 7 -13 0 -13 0 6 -7z"/>
<path d="M54683 61403 l7 -6 7 6 6 7 -13 0 -13 0 6 -7z"/>
<path d="M54593 61383 l7 -6 7 6 6 7 -13 0 -13 0 6 -7z"/>
<path d="M54550 61371 c0 -17 210 -925 215 -930 11 -10 1 35 -95 456 -55 241
-101 448 -102 461 l-2 22 -8 0 c-4 0 -8 -4 -8 -9z"/>
<path d="M78319 60579 l-56 -8 -43 -22 -42 -22 -90 -3 c-49 -1 -92 -5 -95 -8
l-6 -5 27 -13 27 -12 87 12 87 13 30 22 30 22 130 -2 130 -1 73 -15 73 -14 5
9 5 8 -13 5 c-18 6 -202 33 -258 38 l-45 4 -56 -8z"/>
<path d="M86132 60571 c5 -15 300 -336 312 -340 13 -5 -12 24 -182 212 -119
130 -138 149 -130 128z"/>
<path d="M57310 60455 c0 -2 12 -35 26 -72 14 -38 31 -95 37 -127 l13 -60 11
-3 11 -4 -13 63 c-8 35 -26 96 -41 136 l-26 72 -9 0 c-5 0 -9 -2 -9 -5z"/>
<path d="M62083 60257 c-354 -72 -643 -134 -643 -138 0 -7 1266 247 1295 260
l20 10 -15 -1 c-8 0 -304 -59 -657 -131z"/>
<path d="M59918 60237 l-143 -123 -369 -277 c-202 -152 -373 -277 -380 -277
l-11 0 -74 178 -74 177 -85 163 -84 163 -36 -7 c-21 -4 -46 -11 -57 -15 l-20
-8 55 6 55 5 107 -218 107 -219 116 -275 c64 -151 122 -280 128 -286 l12 -12
227 47 c124 25 230 50 235 54 l8 9 -25 -6 c-66 -16 -425 -86 -439 -86 l-16 1
-58 139 c-33 77 -61 148 -64 158 l-4 18 23 11 c13 6 184 132 380 281 l357 270
140 122 c130 111 149 130 137 130 -3 0 -69 -55 -148 -123z"/>
<path d="M62096 60219 c-352 -71 -642 -131 -644 -134 -3 -3 -3 -7 -1 -9 5 -5
1268 253 1294 264 l20 9 -15 -1 c-8 0 -303 -58 -654 -129z"/>
<path d="M49559 60139 c-33 -50 -59 -92 -57 -95 2 -2 32 37 66 86 35 50 64 90
66 90 2 0 20 -7 39 -15 20 -8 44 -15 54 -15 l17 0 -9 8 c-11 9 -85 32 -103 32
l-11 0 -62 -91z"/>
<path d="M46110 59975 c-113 -113 -207 -205 -210 -204 -3 0 -45 49 -95 109
-49 61 -111 131 -137 157 l-48 47 0 -10 c0 -6 16 -26 36 -45 20 -18 81 -87
136 -152 l99 -117 -5 -8 -5 -9 14 0 15 0 0 11 c0 6 96 104 213 218 116 114
207 207 202 207 -6 1 -102 -91 -215 -204z"/>
<path d="M61203 60036 l-191 -41 -9 -9 -8 -9 15 5 c8 3 102 22 208 44 l192 39
0 7 c0 10 22 14 -207 -36z"/>
<path d="M44937 59874 c124 -137 272 -289 272 -281 1 9 -318 351 -333 356 -6
2 21 -31 61 -75z"/>
<path d="M58810 59913 c0 -6 32 -80 71 -164 39 -85 106 -239 150 -343 78 -185
98 -229 99 -213 0 19 -299 710 -316 726 -2 2 -4 0 -4 -6z"/>
<path d="M63661 59825 c-1 -28 92 -440 97 -426 3 9 -81 408 -93 436 l-3 10 -1
-20z"/>
<path d="M61993 59785 c6 -22 77 -363 77 -370 0 -3 4 -5 9 -5 l10 0 -9 28 c-5
15 -23 99 -41 187 l-31 160 -10 10 -10 10 5 -20z"/>
<path d="M55282 59498 c-27 -83 -113 -431 -110 -440 2 -6 32 96 66 227 34 131
60 240 58 242 -2 3 -9 -11 -14 -29z"/>
<path d="M49631 59492 c2 -6 78 -68 169 -138 91 -70 193 -149 228 -176 l62
-50 0 10 c0 5 -53 49 -117 99 -65 50 -169 130 -232 178 -62 48 -112 83 -110
77z"/>
<path d="M49462 59248 c-89 -117 -159 -214 -156 -217 2 -2 5 -2 7 0 104 132
318 422 314 425 -3 3 -77 -91 -165 -208z"/>
<path d="M46982 59410 l-12 -20 0 -27 0 -27 9 10 c8 9 25 84 19 84 -2 0 -9 -9
-16 -20z"/>
<path d="M61348 59287 c-103 -23 -190 -46 -195 -51 l-8 -8 20 5 c11 4 99 23
195 43 96 20 182 40 190 45 l15 8 -15 0 c-8 -1 -99 -20 -202 -42z"/>
<path d="M61632 59300 c-1 -14 13 -103 31 -198 l33 -173 5 6 6 5 -33 178 c-19
97 -35 184 -38 192 l-4 15 0 -25z"/>
<path d="M61378 59251 c-120 -25 -218 -49 -218 -52 0 -4 101 14 225 40 l225
46 0 8 c0 4 -3 6 -7 6 -5 -1 -106 -22 -225 -48z"/>
<path d="M50064 59091 c-99 -125 -296 -392 -293 -396 4 -3 290 365 312 402 15
25 3 21 -19 -6z"/>
<path d="M39135 58931 c11 -5 34 -10 50 -10 37 -1 171 -40 279 -81 44 -16 82
-28 84 -25 6 6 -52 29 -186 74 l-117 39 -65 6 -65 6 20 -9z"/>
<path d="M63846 58923 c5 -21 253 -1225 321 -1557 26 -127 48 -225 50 -219 5
14 -302 1560 -352 1771 l-5 22 -9 0 -9 0 4 -17z"/>
<path d="M63810 58923 c0 -5 18 -97 39 -204 22 -107 42 -210 45 -230 8 -51
353 -1710 371 -1788 3 -13 8 -21 11 -19 2 3 -36 200 -85 439 -50 239 -127 612
-171 829 -45 217 -108 525 -141 684 -53 256 -69 325 -69 289z"/>
<path d="M11051 58903 c-2 -21 32 -86 70 -135 39 -50 188 -187 204 -188 l9 0
-14 14 c-8 7 -43 39 -78 69 -75 66 -138 144 -168 206 -13 25 -23 41 -23 34z"/>
<path d="M38743 58893 l-83 -4 0 -8 0 -7 58 4 c31 2 134 7 227 11 l170 8 -145
-1 c-80 0 -182 -2 -227 -3z"/>
<path d="M92020 58895 c0 -3 -29 -105 -65 -226 l-66 -221 6 -6 5 -5 6 5 c6 6
134 435 134 449 0 5 -4 9 -10 9 -5 0 -10 -2 -10 -5z"/>
<path d="M61530 58522 c-118 -31 -217 -59 -220 -64 l-6 -7 -419 -86 c-445 -91
-451 -93 -443 -100 3 -3 189 33 414 80 224 47 415 84 424 82 l15 -3 10 12 10
13 214 55 c202 52 230 61 220 70 -2 2 -101 -22 -219 -52z"/>
<path d="M61774 58533 c3 -10 37 -180 76 -378 76 -384 79 -399 87 -392 2 3
-31 181 -74 396 l-78 391 -8 0 -8 0 5 -17z"/>
<path d="M61540 58483 c-118 -30 -217 -58 -220 -63 l-5 -8 -420 -86 c-431 -89
-451 -93 -444 -101 6 -5 848 170 879 184 14 6 117 34 230 62 113 27 206 52
208 54 16 15 -44 4 -228 -42z"/>
<path d="M55481 58466 c8 -8 412 -116 416 -112 5 5 -62 25 -263 80 -121 33
-164 42 -153 32z"/>
<path d="M49460 58261 c0 -3 75 -35 168 -70 92 -35 197 -79 234 -98 37 -18 71
-33 75 -33 5 1 -23 17 -62 37 -80 42 -415 174 -415 164z"/>
<path d="M49162 57893 c-57 -68 -102 -127 -99 -129 2 -2 44 44 93 103 101 121
118 143 112 148 -2 2 -50 -53 -106 -122z"/>
<path d="M75440 57786 l0 -224 15 -12 15 -12 0 10 c0 6 -5 14 -11 18 l-11 7 7
218 7 219 -11 0 -11 0 0 -224z"/>
<path d="M50442 57854 c3 -3 107 -34 229 -68 123 -35 235 -66 249 -71 l25 -7
-10 10 -10 10 -237 66 c-131 36 -240 66 -244 66 l-7 0 5 -6z"/>
<path d="M34640 57338 c-502 -271 -478 -257 -465 -258 9 0 882 465 894 476 26
25 -68 -24 -429 -218z"/>
<path d="M37011 57407 c-17 -24 -79 -87 -137 -141 -58 -54 -103 -101 -100
-103 7 -7 225 201 255 243 36 50 20 51 -18 1z"/>
<path d="M53031 57246 c2 -2 100 -52 218 -111 l213 -106 6 6 c3 3 3 7 1 9 -13
13 -413 206 -427 206 -8 0 -13 -2 -11 -4z"/>
<path d="M61630 57013 c27 -120 59 -258 73 -308 l26 -90 17 -117 17 -118 9 0
8 0 -5 23 c-3 12 -14 78 -25 147 l-20 125 -25 85 c-22 74 -105 441 -105 462 0
5 -4 8 -8 8 l-9 0 47 -217z"/>
<path d="M46532 57091 l-13 -8 14 -34 c7 -19 33 -116 57 -216 l44 -183 13 0
14 0 5 13 5 14 -41 164 c-22 90 -43 171 -47 179 -3 8 -7 20 -8 26 -12 52 -19
60 -43 45z"/>
<path d="M46550 56886 c0 -9 14 -107 30 -218 17 -110 30 -204 30 -209 l0 -9
15 0 15 0 0 13 c-1 64 -69 420 -84 435 l-6 5 0 -17z"/>
<path d="M47200 56795 c0 -6 46 -48 280 -255 l195 -173 80 -52 c44 -29 113
-69 153 -89 l74 -37 -7 11 c-3 6 -34 24 -67 41 -34 17 -97 54 -142 83 l-81 53
-121 109 c-212 192 -352 314 -358 314 -3 0 -6 -2 -6 -5z"/>
<path d="M64313 56670 c3 -14 24 -116 48 -228 l42 -203 13 5 12 4 21 -14 21
-15 0 -33 0 -33 -18 -16 -19 -17 -29 0 -30 0 -12 12 -12 12 -6 -6 -6 -6 24
-16 25 -16 31 6 31 6 21 23 22 24 -9 38 -9 38 -29 15 c-17 8 -31 15 -32 16 -2
0 -23 94 -47 208 -24 114 -47 210 -51 214 l-8 7 6 -25z"/>
<path d="M79484 56556 c-16 -14 -68 -41 -115 -61 l-84 -36 35 7 c39 7 152 63
190 93 l25 21 -10 0 c-5 0 -24 -11 -41 -24z"/>
<path d="M79050 56421 l0 -9 20 5 c11 3 20 7 20 9 0 2 -9 4 -20 4 l-20 0 0 -9z"/>
<path d="M26450 56403 c0 -9 312 -176 338 -181 l17 -4 -20 15 c-11 7 -91 51
-177 96 l-158 82 0 -8z"/>
<path d="M81625 56226 c-93 -24 -181 -49 -195 -55 l-25 -11 25 4 c49 9 383 96
388 101 11 11 -29 3 -193 -39z"/>
<path d="M64346 56231 l-18 -20 4 -11 3 -11 23 30 23 31 -9 0 c-5 0 -17 -9
-26 -19z"/>
<path d="M46844 56153 c3 -10 19 -99 36 -198 l31 -180 41 -135 40 -135 50
-112 50 -112 14 6 c20 7 19 11 -27 115 l-42 93 -43 143 -44 144 -30 176 c-17
98 -33 185 -36 195 l-5 17 -20 0 -20 0 5 -17z"/>
<path d="M63797 56060 c3 -11 10 -23 15 -26 l10 -6 -4 23 -3 22 -12 4 -11 4 5
-21z"/>
<path d="M36635 55893 l-260 -104 -79 -21 -79 -20 -33 5 -34 6 0 -10 0 -9 48
0 c26 0 67 5 91 11 37 8 598 225 610 235 22 19 -42 -4 -264 -93z"/>
<path d="M84920 55987 c0 -4 23 -101 51 -215 l52 -207 10 -10 10 -10 -5 15
c-3 8 -27 105 -53 215 -26 110 -51 204 -56 210 l-9 9 0 -7z"/>
<path d="M63062 55910 l0 -25 5 13 c2 6 2 18 0 25 l-5 12 0 -25z"/>
<path d="M46960 55790 l0 -13 7 6 6 7 -6 7 -7 6 0 -13z"/>
<path d="M46970 55760 l0 -13 7 6 6 7 -6 7 -7 6 0 -13z"/>
<path d="M61840 55730 l0 -10 25 0 25 0 0 10 0 10 -25 0 -25 0 0 -10z"/>
<path d="M25957 55613 l-8 -23 16 -27 17 -28 245 -168 c134 -93 246 -167 249
-165 2 3 -103 78 -233 168 -131 90 -246 173 -255 184 l-17 21 -3 30 -3 30 -8
-22z"/>
<path d="M60763 55553 c15 -2 37 -2 50 0 l22 4 -50 0 -50 0 28 -4z"/>
<path d="M60578 55543 l13 -5 6 6 6 6 -19 -1 -19 -1 13 -5z"/>
<path d="M50955 55230 l-29 -30 11 0 c7 0 21 14 33 30 12 17 20 30 18 30 -3 0
-17 -13 -33 -30z"/>
<path d="M53188 55242 l-7 -23 27 -140 26 -139 7 0 7 0 -4 18 c-18 84 -44 235
-46 267 l-3 40 -7 -23z"/>
<path d="M52125 54742 l-140 -216 -137 -175 c-75 -97 -135 -178 -132 -180 2
-2 6 -2 7 0 2 2 62 78 133 169 l130 165 133 205 c74 113 141 215 149 228 l14
22 -8 0 c-5 -1 -72 -98 -149 -218z"/>
<path d="M48241 54858 c-101 -49 -181 -91 -179 -94 4 -3 356 161 367 172 20
19 -31 -2 -188 -78z"/>
<path d="M53286 54930 c3 -14 7 -34 7 -45 l1 -20 -372 -564 c-372 -562 -418
-637 -453 -740 -23 -65 -23 -67 -5 -52 l14 12 6 34 7 35 40 78 41 77 375 567
374 567 -21 38 -21 38 7 -25z"/>
<path d="M47677 54923 c-4 -3 -7 -28 -7 -55 l0 -48 35 -85 c20 -47 40 -97 46
-112 5 -14 12 -24 14 -21 3 2 -16 56 -41 119 l-46 114 5 48 c6 48 5 52 -6 40z"/>
<path d="M52675 54713 c19 -19 347 -235 351 -230 5 4 -317 224 -343 233 l-18
7 10 -10z"/>
<path d="M52650 54683 c0 -4 63 -50 139 -102 l139 -94 -36 -56 c-169 -265
-421 -644 -471 -710 -34 -44 -58 -81 -54 -81 16 0 161 207 348 495 103 160
198 304 211 322 13 17 24 37 24 43 l0 11 -9 -6 -9 -5 -141 96 c-78 52 -141 92
-141 87z"/>
<path d="M54217 54625 c-54 -7 -101 -16 -105 -20 l-7 -8 40 6 c22 4 73 9 113
13 l73 7 5 8 5 9 -13 -1 c-7 -1 -57 -7 -111 -14z"/>
<path d="M4362 54608 l4 -12 217 -72 217 -72 5 8 5 9 -10 6 c-14 9 -422 145
-433 145 l-9 0 4 -12z"/>
<path d="M51940 54300 c-79 -105 -141 -193 -138 -195 3 -3 70 83 150 190 80
107 142 195 138 195 -4 0 -72 -86 -150 -190z"/>
<path d="M85138 54444 l-168 -44 -226 -101 c-245 -108 -308 -139 -339 -163
l-20 -16 80 39 c44 22 181 84 305 139 l226 99 154 38 c85 21 159 42 165 46 l9
9 -9 -1 c-6 0 -85 -20 -177 -45z"/>
<path d="M49328 54445 c5 -11 20 -29 33 -40 l22 -20 -11 20 c-5 11 -20 29 -33
40 l-22 20 11 -20z"/>
<path d="M80816 54164 c35 -137 76 -295 90 -352 15 -56 29 -101 31 -98 6 6
-167 678 -178 690 -4 5 21 -103 57 -240z"/>
<path d="M88034 54391 c-12 -5 -31 -22 -43 -37 l-21 -27 0 -38 c0 -20 3 -44 6
-53 l6 -16 8 5 8 5 -5 44 -5 45 27 25 28 26 31 0 32 0 22 -16 22 -15 10 6 11
7 -24 18 -23 18 -35 6 -34 5 -21 -8z"/>
<path d="M51440 54365 l-12 -15 10 0 c12 0 26 19 19 26 -2 2 -10 -2 -17 -11z"/>
<path d="M49346 54259 c25 -50 47 -89 50 -86 7 6 -78 177 -88 177 l-8 0 46
-91z"/>
<path d="M32785 54152 c17 -15 50 -43 73 -62 l43 -36 -6 -15 c-3 -9 -35 -40
-71 -70 l-65 -54 11 -3 11 -4 63 56 64 56 5 20 5 21 -71 59 c-40 33 -76 60
-82 60 l-10 -1 30 -27z"/>
<path d="M77545 54083 c20 -54 59 -162 88 -240 l51 -143 8 0 c13 0 11 8 -76
245 l-83 229 -12 4 -11 4 35 -99z"/>
<path d="M20940 53959 c-63 -26 -128 -53 -144 -59 l-29 -10 5 -6 6 -5 138 55
138 56 41 0 c22 0 57 -4 78 -9 l37 -9 0 8 0 7 -57 12 c-79 16 -84 15 -213 -40z"/>
<path d="M51155 53959 c-44 -28 -111 -66 -150 -86 -79 -40 -80 -41 -73 -49 l6
-5 78 40 c44 22 116 62 162 89 l82 48 -6 7 c-11 10 -12 10 -99 -44z"/>
<path d="M52000 53879 l85 -80 98 -71 c54 -39 100 -69 102 -66 3 2 -30 29 -72
59 -43 29 -124 96 -180 147 -57 50 -107 92 -111 92 -4 -1 31 -37 78 -81z"/>
<path d="M51445 53889 c-11 -17 1 -21 15 -4 l12 15 -10 0 c-6 0 -14 -5 -17
-11z"/>
<path d="M13352 53676 c-62 -91 -112 -167 -112 -170 0 -23 31 15 128 158 62
90 112 167 112 170 0 23 -30 -14 -128 -158z"/>
<path d="M19225 53718 c-202 -51 -212 -54 -204 -62 6 -6 412 95 424 105 l9 9
-14 -1 c-8 0 -105 -24 -215 -51z"/>
<path d="M61246 53723 c-7 -24 -86 -457 -86 -474 0 -7 2 -10 5 -7 7 7 96 490
91 495 -2 3 -7 -4 -10 -14z"/>
<path d="M77615 53689 c-27 -11 -114 -45 -193 -76 -78 -31 -140 -58 -138 -60
6 -6 367 135 381 148 12 12 8 11 -50 -12z"/>
<path d="M32278 53511 c-80 -65 -158 -126 -174 -135 -38 -20 -22 -21 18 0 30
16 293 227 303 245 13 20 -9 4 -147 -110z"/>
<path d="M52330 53588 c0 -12 132 -304 142 -313 l11 -10 -6 15 c-3 8 -33 78
-67 155 -55 124 -80 171 -80 153z"/>
<path d="M49810 53242 c0 -7 30 -59 66 -115 77 -118 73 -112 79 -106 2 3 -29
56 -70 119 l-75 115 0 -13z"/>
<path d="M52065 53124 c-11 -8 -123 -69 -248 -136 -125 -66 -226 -123 -223
-125 6 -6 474 243 496 263 l14 14 -9 0 c-6 0 -19 -7 -30 -16z"/>
<path d="M49995 53083 c-20 -5 -35 -20 -35 -36 l0 -8 16 15 c8 9 22 16 30 16
l14 0 0 10 c0 6 -1 9 -2 9 -2 -1 -12 -4 -23 -6z"/>
<path d="M50520 53052 l0 -9 -201 -97 c-110 -54 -199 -100 -196 -102 2 -2 92
39 201 91 108 52 200 95 204 95 4 0 30 -45 57 -100 27 -55 51 -98 53 -95 2 2
-17 47 -42 101 -25 53 -46 103 -46 110 l0 14 -15 0 c-8 0 -15 -4 -15 -8z"/>
<path d="M65753 52926 c-237 -50 -435 -95 -440 -99 l-8 -9 25 6 c14 3 210 44
435 91 226 47 421 90 435 95 l25 8 -20 0 c-11 0 -214 -41 -452 -92z"/>
<path d="M66213 52983 c-21 -8 -927 -191 -1348 -273 -225 -44 -414 -82 -420
-84 l-10 -4 20 -1 c36 -1 1763 343 1773 354 8 8 -2 13 -15 8z"/>
<path d="M27716 52573 c-4 -87 -9 -187 -12 -223 l-5 -65 9 15 10 15 7 190 c3
105 9 198 11 208 l5 17 -9 0 -9 0 -7 -157z"/>
<path d="M48486 52517 l6 -18 6 6 6 5 -13 13 -12 12 7 -18z"/>
<path d="M22550 52405 c-5 -13 -23 -57 -40 -97 l-31 -72 -38 -153 -39 -153 8
-5 8 -5 37 148 36 147 44 100 43 100 11 -2 11 -3 0 10 0 10 -20 0 -20 0 -10
-25z"/>
<path d="M37120 52379 c0 -3 64 -122 141 -265 78 -142 171 -319 207 -392 35
-73 66 -131 68 -129 8 8 -107 238 -250 502 -132 242 -166 301 -166 284z"/>
<path d="M53033 52320 c14 -32 45 -99 265 -552 42 -87 79 -158 84 -158 l8 0
-9 23 c-15 36 -349 708 -356 715 -4 4 0 -9 8 -28z"/>
<path d="M33980 52111 c-8 -4 -109 -21 -225 -36 l-210 -28 -10 -9 -10 -10 30
6 c17 3 118 17 225 32 l195 26 25 14 25 13 -15 0 c-8 0 -22 -3 -30 -8z"/>
<path d="M52745 52030 l-6 -10 10 0 c6 0 11 5 11 10 0 6 -2 10 -4 10 -3 0 -8
-4 -11 -10z"/>
<path d="M42645 51924 c-33 -19 -131 -71 -217 -116 -87 -46 -158 -86 -158 -91
l0 -8 53 29 c28 16 122 66 207 110 85 45 164 88 175 96 l20 15 -10 0 c-5 0
-37 -16 -70 -35z"/>
<path d="M52085 51689 c-115 -60 -203 -109 -195 -107 20 4 420 207 420 213 0
11 -24 0 -225 -106z"/>
<path d="M18505 51758 c-3 -13 -14 -66 -25 -118 -10 -52 -34 -146 -53 -208
l-35 -112 9 -6 9 -5 4 13 c35 104 77 262 90 333 10 50 19 98 22 108 l5 17 -10
0 -11 0 -5 -22z"/>
<path d="M32255 51678 c3 -13 21 -120 40 -238 33 -193 45 -250 45 -209 0 8
-17 116 -37 242 l-37 227 -8 0 -8 0 5 -22z"/>
<path d="M3570 51669 l-155 -7 -72 -18 -73 -18 0 -8 c0 -11 17 -10 80 7 l55
15 256 7 256 6 64 -12 64 -13 38 -30 38 -30 6 6 6 6 -37 34 -38 34 -61 11
c-88 14 -248 18 -427 10z"/>
<path d="M17935 51461 l-5 -9 162 -67 c89 -37 183 -74 210 -82 l48 -14 12 7
12 8 -60 17 c-32 9 -130 47 -216 82 l-158 66 -5 -8z"/>
<path d="M35488 51452 l-198 -15 0 -9 0 -9 18 5 c9 2 101 10 204 17 l187 12
-5 8 c-3 5 -6 8 -7 8 -1 -1 -91 -9 -199 -17z"/>
<path d="M33443 51270 c3 -14 15 -116 28 -227 l24 -203 8 0 9 0 -5 23 c-3 12
-15 110 -27 217 l-23 195 -10 10 -10 10 6 -25z"/>
<path d="M42330 51087 c0 -2 22 -18 50 -36 l49 -32 46 -52 c25 -29 58 -73 72
-100 34 -61 42 -54 10 10 l-25 48 -51 56 -51 57 -44 26 c-42 25 -56 30 -56 23z"/>
<path d="M60125 50975 c-200 -81 -209 -85 -203 -91 5 -5 345 127 378 147 l15
8 -15 0 c-8 0 -87 -29 -175 -64z"/>
<path d="M27790 50960 l0 -8 63 -6 c34 -3 122 -8 195 -11 l132 -6 0 9 0 10
-117 6 c-65 3 -153 8 -195 11 l-78 4 0 -9z"/>
<path d="M35770 50931 c0 -7 20 -135 46 -284 25 -150 58 -364 75 -476 16 -113
31 -207 34 -209 3 -3 5 -1 5 5 0 50 -146 962 -155 971 -3 3 -5 0 -5 -7z"/>
<path d="M5250 50880 l0 -10 13 0 c6 0 212 -25 456 -55 245 -30 447 -52 450
-50 2 3 2 7 -1 10 -4 5 -879 115 -909 115 -5 0 -9 -4 -9 -10z"/>
<path d="M27804 50700 l0 -185 3 93 c2 50 2 134 0 185 l-3 92 0 -185z"/>
<path d="M8960 50561 l0 -8 123 -43 122 -42 93 -48 93 -47 4 7 c7 11 -4 19
-95 61 -66 31 -321 129 -337 129 -2 0 -3 -4 -3 -9z"/>
<path d="M31478 50513 l-118 -4 0 -10 0 -11 23 5 c12 3 89 7 172 9 l150 3 6
-50 c4 -28 12 -158 18 -290 11 -227 17 -292 26 -284 2 2 -4 142 -14 310 l-18
306 -7 11 -7 12 -57 -2 c-31 -1 -110 -4 -174 -5z"/>
<path d="M33575 50350 c37 -255 65 -411 65 -359 0 33 -52 356 -60 374 l-10 20
5 -35z"/>
<path d="M36775 50015 c-5 -2 -90 -9 -187 -16 l-178 -12 0 -6 0 -7 221 17
c121 10 223 20 227 23 l5 6 -39 -1 c-21 0 -43 -2 -49 -4z"/>
<path d="M38162 49579 c-55 -220 -97 -397 -92 -393 9 11 202 785 197 791 -3 2
-49 -177 -105 -398z"/>
<path d="M34180 49932 c0 -7 21 -25 82 -70 l18 -13 0 13 -1 13 -43 33 c-44 33
-56 38 -56 24z"/>
<path d="M33710 49884 c0 -68 166 -1220 180 -1249 l10 -20 -5 30 c-32 207 -96
647 -130 908 -24 181 -46 331 -49 335 l-6 5 0 -9z"/>
<path d="M38753 49884 c8 -8 431 -114 436 -109 2 3 -2 7 -10 9 -20 7 -417 106
-425 106 l-7 0 6 -6z"/>
<path d="M42701 49809 l-1 -17 236 -468 c130 -258 243 -477 252 -486 8 -9 34
-54 58 -100 24 -46 44 -80 44 -75 0 13 -71 150 -94 182 -13 17 -57 102 -99
189 -43 88 -144 287 -225 444 -81 157 -152 299 -159 316 l-12 31 0 -16z"/>
<path d="M22895 49729 c72 -3 173 -7 225 -6 l95 0 -85 8 c-47 4 -148 7 -225 6
l-140 0 130 -8z"/>
<path d="M14490 49145 c0 -3 16 -29 35 -58 l35 -52 6 -45 5 -45 -29 -125 c-16
-69 -33 -147 -37 -174 l-7 -48 11 7 11 6 0 29 c0 16 14 87 30 158 l30 130 0
50 0 50 -41 61 c-37 56 -49 69 -49 56z"/>
<path d="M45565 49060 l-90 -91 -78 -51 -78 -51 10 -10 10 -10 68 44 68 43
102 100 102 99 -5 9 c-10 15 -19 8 -109 -82z"/>
<path d="M16320 48626 c0 -2 26 -16 58 -32 l57 -28 48 -45 49 -46 25 -48 25
-49 -7 -49 -7 -49 11 0 11 0 0 54 0 53 -19 44 -20 44 -48 46 c-54 53 -115 93
-155 103 -16 3 -28 5 -28 2z"/>
<path d="M34070 48617 c-102 -5 -187 -11 -189 -13 -14 -13 31 -14 255 -3 l249
11 25 8 25 8 -90 0 c-49 -1 -173 -5 -275 -11z"/>
<path d="M34822 48615 l-223 -13 -7 -7 -7 -8 90 6 c50 4 156 9 238 13 l147 7
0 8 c0 5 -3 8 -7 8 -5 -1 -108 -7 -231 -14z"/>
<path d="M34098 48576 l-206 -11 -9 -8 -8 -8 85 5 c47 4 170 11 274 16 104 5
191 12 194 15 7 7 -80 4 -330 -9z"/>
<path d="M33854 48550 c3 -14 17 -114 32 -222 l27 -198 7 0 6 0 -30 214 -31
214 -8 9 -9 8 6 -25z"/>
<path d="M32095 48204 c-110 -7 -218 -13 -239 -13 l-39 -1 6 -6 6 -6 241 12
240 13 0 9 c0 4 -3 7 -7 7 -5 -1 -98 -8 -208 -15z"/>
<path d="M30977 48190 l-358 -18 -7 -7 -7 -8 105 6 c58 4 229 12 380 18 l275
11 25 8 25 8 -40 0 c-22 0 -201 -9 -398 -18z"/>
<path d="M90842 48046 c-34 -39 -82 -101 -106 -138 -63 -96 -99 -139 -470
-558 l-332 -376 -59 -103 -59 -103 -34 -15 c-19 -8 -32 -16 -30 -19 3 -2 21 2
41 11 l36 15 58 102 58 103 305 345 c387 437 429 486 497 590 l56 85 59 61 60
62 -8 4 -9 5 -63 -71z"/>
<path d="M84020 48025 c1 -6 53 -80 117 -165 63 -85 113 -147 110 -138 -6 16
-185 267 -214 298 l-13 14 0 -9z"/>
<path d="M16665 47841 l11 -11 104 -21 105 -21 27 -25 27 -26 12 -56 c6 -31
15 -65 20 -76 l9 -20 -4 30 c-3 17 -10 55 -16 85 l-11 55 -29 23 -28 22 -99
20 c-54 11 -107 23 -118 26 l-20 6 10 -11z"/>
<path d="M45386 47323 c-3 -65 -7 -179 -8 -254 l-3 -136 38 -57 c21 -32 41
-56 43 -53 3 3 -11 30 -32 61 l-37 56 7 250 c8 260 3 337 -8 133z"/>
<path d="M39423 47395 c3 -11 25 -101 48 -200 l41 -180 11 -10 10 -10 -5 15
c-3 8 -25 98 -48 200 l-43 185 -10 10 -9 10 5 -20z"/>
<path d="M36848 47361 l-126 -6 -7 -7 -7 -7 163 6 164 6 15 8 15 8 -45 -1
c-25 -1 -102 -4 -172 -7z"/>
<path d="M46350 47100 c0 -11 2 -20 4 -20 2 0 6 9 9 20 l5 20 -9 0 -9 0 0 -20z"/>
<path d="M89947 47048 l-54 -63 -52 -91 -52 -91 -27 -13 -27 -12 -113 -12
-112 -12 -12 -12 -11 -11 43 -106 c23 -58 45 -104 47 -101 3 3 -11 46 -31 96
-20 49 -36 96 -36 104 l0 14 33 5 c17 3 68 9 112 13 l80 6 31 13 32 13 56 99
56 99 51 57 c28 32 49 60 46 63 -2 3 -29 -23 -60 -58z"/>
<path d="M21560 47077 l0 -15 48 -7 47 -7 33 -17 32 -17 45 -59 45 -60 16 -42
17 -43 13 0 13 0 -22 53 c-12 28 -42 80 -66 114 l-44 62 -46 19 c-25 11 -65
23 -88 27 l-43 7 0 -15z"/>
<path d="M39262 46869 l3 -22 12 -4 11 -4 -5 21 c-3 11 -10 23 -15 26 l-10 6
4 -23z"/>
<path d="M37335 46615 l0 -25 8 0 7 0 0 25 0 25 -7 0 -8 0 0 -25z"/>
<path d="M23610 46617 l0 -13 203 -38 c111 -21 213 -40 226 -43 l24 -6 -5 13
-4 14 -200 38 c-109 21 -209 40 -221 43 l-23 5 0 -13z"/>
<path d="M30403 46383 l-103 -4 0 -15 0 -16 108 6 c59 4 151 9 205 12 l97 6 0
9 0 9 -102 -2 c-57 -1 -149 -4 -205 -5z"/>
<path d="M46186 46343 c-11 -34 -75 -348 -85 -418 -6 -38 -14 -81 -17 -95 l-5
-25 9 10 9 10 13 80 c6 44 29 163 51 264 21 102 37 187 35 189 -2 2 -7 -5 -10
-15z"/>
<path d="M93091 46095 l15 -15 75 -13 76 -14 24 -16 23 -17 51 0 50 0 63 32
c34 18 62 35 62 39 0 4 -26 -6 -58 -22 l-58 -30 -40 -6 -41 -5 -43 22 -43 22
-66 9 -66 10 -9 9 c-6 6 -15 10 -20 10 l-10 0 15 -15z"/>
<path d="M93042 46050 l-22 -28 -83 -32 -82 -31 -29 5 -29 6 -94 -6 -93 -7 0
-10 0 -9 17 6 c9 4 70 7 137 7 l120 1 65 25 66 26 28 25 27 26 33 -12 c19 -7
47 -12 63 -12 l29 0 53 -25 54 -25 54 0 54 0 71 36 c39 19 69 38 66 40 -3 3
-33 -9 -67 -26 l-62 -31 -47 -6 -47 -5 -52 26 -51 26 -39 0 -38 0 -39 20 c-22
11 -39 20 -40 19 0 0 -10 -13 -23 -29z"/>
<path d="M46102 45784 c10 -9 240 -52 315 -59 l68 -6 80 15 80 15 -70 -7 c-38
-4 -101 -6 -139 -4 l-68 2 -127 25 c-69 14 -130 25 -135 25 l-9 0 5 -6z"/>
<path d="M52535 44020 l-6 -9 97 -206 c54 -113 100 -205 103 -205 3 0 12 4 19
8 l12 8 -97 207 -98 207 -12 0 c-6 0 -15 -4 -18 -10z"/>
<path d="M87885 43900 c13 -25 207 -333 223 -355 l14 -20 -6 19 c-8 25 -205
337 -224 356 l-15 15 8 -15z"/>
<path d="M88070 43523 c126 -202 233 -375 238 -383 5 -8 12 -13 15 -10 6 6
-460 754 -473 758 -5 2 94 -162 220 -365z"/>
<path d="M34511 43495 c-6 -16 -14 -36 -16 -42 -10 -29 -131 -201 -168 -240
l-41 -43 10 0 c30 0 174 192 215 287 l20 46 -4 11 -5 11 -11 -30z"/>
<path d="M52260 43483 c-71 -6 -502 -72 -508 -78 -9 -8 8 -6 216 24 l197 30
94 3 94 3 28 -45 c15 -25 35 -69 44 -98 l16 -52 9 5 8 5 -10 38 c-12 45 -65
142 -86 160 l-16 12 -20 -2 c-12 -1 -41 -3 -66 -5z"/>
<path d="M52432 43247 c-7 -8 -86 -49 -177 -92 -91 -43 -165 -82 -165 -86 0
-9 336 153 353 170 l11 11 -6 5 -5 5 -11 -13z"/>
<path d="M52081 43032 c-1 -17 189 -395 195 -389 3 3 -40 94 -95 203 -55 110
-100 193 -100 186z"/>
<path d="M51157 42945 c-87 -12 -161 -25 -164 -29 l-6 -6 9 0 c28 0 357 49
362 54 l5 6 -24 -1 c-13 -1 -95 -11 -182 -24z"/>
<path d="M41437 42695 l-137 -64 -50 -42 -50 -42 0 -13 0 -13 54 51 54 51 143
64 c79 35 146 66 148 69 16 16 -43 -7 -162 -61z"/>
<path d="M46303 42462 c-111 -59 -200 -108 -198 -111 3 -3 401 204 414 215 21
19 -46 -13 -216 -104z"/>
<path d="M55935 42513 l6 -38 6 -367 5 -368 9 0 9 0 0 323 0 322 -12 83 -11
82 -10 0 -9 0 7 -37z"/>
<path d="M53921 41061 l-13 -8 100 -194 c55 -107 146 -292 203 -412 l103 -218
15 4 16 3 -3 14 c-10 43 -376 786 -401 812 l-6 7 -14 -8z"/>
<path d="M56853 40923 c65 -2 168 -2 230 0 l112 3 -230 0 -230 0 118 -3z"/>
<path d="M58120 40680 l0 -220 10 0 10 0 0 220 0 220 -10 0 -10 0 0 -220z"/>
<path d="M56968 40883 c128 -2 335 -2 460 0 l227 2 -460 0 -460 0 233 -2z"/>
<path d="M97193 40677 c-101 -34 -183 -65 -183 -69 0 -6 378 117 388 127 13
13 -36 -1 -205 -58z"/>
<path d="M80564 40675 l-19 -14 20 -1 20 0 84 -140 83 -140 10 0 9 0 -4 8 c-3
4 -44 72 -92 152 -48 80 -88 146 -89 147 -1 2 -11 -4 -22 -12z"/>
<path d="M65900 40251 l0 -9 42 -10 43 -11 9 9 8 8 -38 11 c-47 13 -64 14 -64
2z"/>
<path d="M66015 40096 c-8 -19 -19 -38 -25 -41 l-10 -6 6 -10 6 -10 14 12 c13
10 44 72 44 85 0 2 -5 4 -11 4 l-10 0 -14 -34z"/>
<path d="M84815 39969 c5 -8 50 -75 100 -149 51 -74 167 -260 260 -412 93
-153 172 -278 176 -278 20 0 -501 826 -533 846 l-11 7 8 -14z"/>
<path d="M84780 39956 c0 -4 39 -65 87 -134 47 -70 165 -257 261 -417 191
-317 180 -300 186 -294 11 10 -472 784 -525 844 l-9 9 0 -8z"/>
<path d="M48250 39794 l-112 -146 6 -6 c7 -7 -6 -23 120 142 94 122 116 156
102 156 -2 0 -54 -66 -116 -146z"/>
<path d="M59829 39522 c-2 -97 -3 -201 -1 -230 l4 -52 6 0 7 0 0 230 0 230 -6
0 -7 0 -3 -178z"/>
<path d="M48137 39578 c-61 -77 -203 -263 -211 -275 -4 -7 -5 -13 -2 -13 5 0
235 293 250 318 16 26 -4 10 -37 -30z"/>
<path d="M51575 39114 c48 -20 876 -187 884 -178 10 9 -16 15 -269 63 -146 27
-338 65 -428 85 -90 20 -171 36 -180 35 l-17 -1 10 -4z"/>
<path d="M52455 38903 l10 -10 410 -77 c226 -43 421 -79 435 -82 l25 -4 -20 9
c-11 6 -202 44 -425 86 -223 42 -414 79 -425 82 l-20 5 10 -9z"/>
<path d="M95230 38524 c0 -11 272 -379 282 -383 l11 -4 -14 20 c-128 178 -272
373 -275 373 -2 0 -4 -3 -4 -6z"/>
<path d="M60290 38450 c0 -5 5 -10 10 -10 l10 0 0 -15 0 -16 -54 -77 c-30 -42
-91 -115 -135 -162 l-80 -84 22 -15 c12 -9 82 -71 155 -140 73 -68 135 -121
138 -119 2 3 -61 66 -141 139 -79 74 -144 137 -142 141 1 4 36 45 77 90 42 46
99 116 128 155 l52 73 0 14 0 15 -20 11 -20 11 0 -11z"/>
<path d="M60223 38358 c-102 -147 -364 -412 -476 -483 -26 -17 -47 -34 -47
-38 l0 -8 13 7 c6 4 38 25 69 46 l57 38 148 148 148 147 73 98 74 97 -4 11 -3
10 -52 -73z"/>
<path d="M30140 38128 c0 -18 3 -71 7 -117 l6 -85 9 23 8 23 -6 94 -7 94 -8 0
-9 0 0 -32z"/>
<path d="M60017 38073 l-5 -8 97 -89 c502 -464 545 -504 540 -490 -4 10 -90
93 -480 457 l-148 137 -4 -7z"/>
<path d="M30140 37845 l0 -25 10 0 10 0 0 25 0 25 -10 0 -10 0 0 -25z"/>
<path d="M30140 37758 c0 -23 11 -48 21 -48 14 0 11 24 -6 46 l-14 19 -1 -17z"/>
<path d="M92803 37611 l6 -24 -10 -20 -11 -19 14 4 13 5 3 27 4 28 -13 12 -12
11 6 -24z"/>
<path d="M85277 37375 c69 -108 128 -194 130 -191 6 5 -238 386 -248 386 -4 0
49 -88 118 -195z"/>
<path d="M86157 37278 c-125 -83 -226 -153 -223 -155 3 -4 439 278 461 298 l9
9 -9 0 c-6 -1 -113 -69 -238 -152z"/>
<path d="M40758 36646 c-75 -17 -140 -35 -145 -40 l-8 -9 25 6 c14 3 87 20
163 38 l139 31 9 -9 9 -9 70 -484 c39 -267 73 -501 77 -520 l6 -35 4 11 c2 6
-30 242 -72 525 -41 283 -75 517 -75 522 l0 7 -32 -1 c-18 -1 -95 -15 -170
-33z"/>
<path d="M40935 36485 c3 -17 19 -122 35 -234 17 -113 32 -207 35 -209 8 -8 7
2 -26 233 l-32 220 -9 10 -8 9 5 -29z"/>
<path d="M41769 35677 l13 -17 -5 -26 -5 -26 10 10 10 10 -4 28 -3 27 -15 5
-15 5 14 -16z"/>
<path d="M84916 35603 c-51 -13 -2459 -1582 -2428 -1583 6 0 231 146 500 324
268 178 810 531 1205 785 l719 461 24 0 24 0 20 -20 c11 -11 33 -46 49 -78 16
-32 56 -94 88 -137 32 -44 142 -215 242 -380 101 -165 198 -318 214 -340 17
-22 32 -42 34 -44 2 -2 5 -2 8 1 l6 5 -24 29 c-14 16 -110 170 -216 341 -105
172 -217 348 -248 390 -32 43 -75 111 -96 150 l-38 72 -22 16 c-22 15 -28 16
-61 8z"/>
<path d="M81120 35575 c0 -16 64 -99 126 -165 39 -41 98 -105 132 -142 33 -36
63 -64 66 -61 3 3 -57 71 -132 152 -76 80 -148 163 -161 184 -21 34 -31 45
-31 32z"/>
<path d="M86806 35492 c-13 -13 -3 -23 44 -47 l49 -25 56 0 55 0 0 14 0 13
-54 0 -54 0 -45 26 -46 25 -5 -6z"/>
<path d="M85150 35375 c0 -3 26 -40 58 -82 31 -43 90 -133 131 -201 41 -67 76
-120 79 -118 6 7 -161 279 -215 349 -41 53 -53 65 -53 52z"/>
<path d="M78858 35042 c-103 -54 -191 -102 -195 -106 -10 -12 369 182 382 195
16 16 3 10 -187 -89z"/>
<path d="M78135 34662 c-71 -37 -151 -80 -177 -96 l-48 -28 0 -13 0 -13 73 47
c39 26 120 74 180 105 59 32 107 59 107 62 0 6 4 8 -135 -64z"/>
<path d="M59447 34513 c-103 -63 -186 -118 -183 -120 3 -3 87 46 188 108 l182
113 18 -1 18 -2 -5 10 c-4 5 -12 9 -18 9 -7 0 -97 -53 -200 -117z"/>
<path d="M58707 34054 l-138 -87 -18 -26 c-10 -14 -23 -45 -28 -68 l-11 -43 8
0 8 0 7 37 7 37 19 28 20 27 122 77 c67 42 131 83 142 91 l19 13 -9 0 c-6 0
-72 -39 -148 -86z"/>
<path d="M57643 34043 c12 -27 26 -54 30 -60 l8 -13 18 0 18 0 58 -131 c32
-71 63 -133 68 -136 l10 -6 -5 9 c-2 5 -31 68 -64 141 l-59 132 -20 3 -20 3
-24 53 c-14 28 -28 52 -32 52 l-8 0 22 -47z"/>
<path d="M51967 33773 l-7 -6 0 -163 0 -163 -32 -4 -33 -4 41 -1 41 -2 -1 175
c0 96 -1 175 -2 175 0 0 -4 -3 -7 -7z"/>
<path d="M78060 33130 c-91 -4 -187 -9 -215 -10 -27 -1 -99 -10 -160 -21 -60
-10 -218 -32 -350 -49 -193 -25 -1545 -215 -1955 -275 -935 -137 -2379 -330
-2409 -322 l-16 5 32 1 32 1 15 22 16 22 0 59 0 59 -12 -4 -13 -5 -3 -57 -3
-57 -36 -15 c-19 -8 -65 -21 -102 -28 l-66 -14 30 -2 30 -2 -215 -29 c-268
-35 -614 -79 -629 -79 l-11 0 0 -15 0 -15 13 0 c33 -1 509 60 1142 146 385 53
1026 138 1425 190 781 102 778 101 1195 169 154 25 456 67 670 95 785 100
1083 141 1220 165 l140 24 155 6 c85 3 188 8 228 11 l72 6 0 14 0 14 -27 -2
c-16 -1 -102 -5 -193 -8z m-5122 -687 c-10 -2 -28 -2 -40 0 l-23 4 40 0 40 1
-17 -5z"/>
<path d="M73548 32533 c6 -2 18 -2 25 0 l12 5 -25 0 -25 0 13 -5z"/>
<path d="M73463 32523 c9 -2 23 -2 30 0 l12 5 -30 0 -30 0 18 -5z"/>
<path d="M73373 32513 c9 -2 25 -2 35 0 l17 5 -35 0 -35 0 18 -5z"/>
<path d="M72758 32433 l13 -5 6 6 6 6 -19 -1 -19 -1 13 -5z"/>
<path d="M41858 31901 c-191 -184 -345 -337 -343 -340 4 -4 141 126 535 507
91 88 163 162 160 164 -3 3 -161 -146 -352 -331z"/>
<path d="M79867 30480 c9 -16 21 -30 26 -30 l8 0 -18 30 c-9 17 -21 30 -26 30
l-8 0 18 -30z"/>
<path d="M93937 29068 c-223 -161 -406 -296 -406 -300 -1 -5 2 -8 7 -8 8 0
788 563 812 586 l14 14 -10 0 c-6 0 -193 -132 -417 -292z"/>
<path d="M84560 28772 c0 -5 75 -83 167 -172 l167 -163 3 10 4 10 -161 159
c-89 87 -165 161 -171 162 l-9 4 0 -10z"/>
<path d="M15805 27680 c-4 -6 -5 -13 -4 -14 2 -2 111 -18 242 -36 l237 -33 7
6 6 7 -5 6 c-4 3 -98 19 -210 35 -111 15 -217 31 -235 34 l-31 6 -7 -11z"/>
<path d="M95670 27044 c-102 -75 -267 -196 -368 -269 l-183 -134 8 -4 8 -5
195 144 c107 79 273 200 368 270 94 69 172 128 172 130 0 12 -32 -9 -200 -132z"/>
<path d="M212 26977 c10 -43 164 -437 171 -437 13 0 7 19 -75 235 l-82 215 -8
0 -9 0 3 -13z"/>
<path d="M94820 26724 c-102 -74 -187 -139 -189 -145 -2 -6 48 26 110 72 63
45 148 107 189 137 41 30 79 59 85 63 l9 9 -9 0 c-6 -1 -93 -61 -195 -136z"/>
<path d="M87395 25991 l-5 -10 202 -160 203 -161 4 11 c1 6 1 11 0 13 -2 1
-93 72 -201 159 l-197 157 -6 -9z"/>
<path d="M90500 24839 c52 -6 162 -21 244 -35 82 -13 152 -22 154 -19 8 8 -16
13 -158 35 l-135 21 -100 4 -100 4 95 -10z"/>
<path d="M89908 21152 c-10 -2 -18 -7 -18 -11 0 -11 231 -895 234 -899 7 -6
36 11 36 21 0 14 -219 858 -228 878 l-7 15 -17 -4z"/>
<path d="M87080 20482 c0 -8 470 -501 579 -606 l51 -50 5 6 6 6 -189 188
c-104 104 -248 251 -320 327 -73 76 -132 134 -132 129z"/>
<path d="M87167 20324 c149 -158 193 -201 193 -190 0 10 -298 320 -313 325 -7
2 47 -58 120 -135z"/>
<path d="M92371 16559 c-89 -67 -160 -124 -157 -126 2 -2 78 50 168 118 188
140 174 129 161 129 -5 0 -82 -55 -172 -121z"/>
<path d="M1946 13501 l-6 -9 346 -311 345 -311 9 5 10 6 -258 231 c-141 128
-298 270 -349 315 l-91 84 -6 -10z"/>
<path d="M96670 12031 c0 -8 305 -275 338 -295 l12 -7 0 10 c0 8 -305 275
-337 295 l-13 7 0 -10z"/>
<path d="M99226 10044 c-3 -9 -6 -17 -6 -19 0 -1 140 -132 311 -290 170 -158
317 -298 326 -311 l15 -24 14 0 c7 0 16 5 20 11 l6 11 -58 60 c-66 67 -612
578 -618 578 -2 0 -7 -7 -10 -16z"/>
<path d="M25525 4040 c-66 -4 -148 -8 -182 -9 l-63 -1 0 -11 0 -12 143 7 c78
4 181 9 230 13 l87 6 0 8 0 9 -47 -2 c-27 -1 -102 -5 -168 -8z"/>
<path d="M25778 4001 l-116 -6 -8 -7 c-4 -5 -5 -9 -3 -11 2 -2 150 1 329 6
l325 9 129 -16 c119 -14 148 -15 134 -1 -3 3 -58 12 -124 20 l-119 15 -215 -2
c-118 -1 -268 -4 -332 -7z"/>
<path d="M27140 3962 l0 -8 183 -17 c100 -9 351 -26 557 -37 l375 -21 132 -19
c150 -23 153 -23 153 -12 l0 8 -143 22 -144 22 -438 25 c-240 14 -476 30 -524
35 -47 5 -101 10 -118 10 l-33 0 0 -8z"/>
<path d="M22242 2831 c3 -8 52 -48 506 -415 l234 -188 -4 16 -3 16 -360 290
c-198 159 -364 290 -368 290 -5 0 -7 -4 -5 -9z"/>
<path d="M7408 1637 l-218 -50 0 -12 0 -13 43 10 c163 36 392 90 395 93 2 2 2
8 1 13 l-4 8 -217 -49z"/>
<path d="M12210 1550 l0 -9 33 -5 c17 -3 104 -10 192 -16 88 -6 175 -13 193
-16 l32 -5 0 16 0 15 -22 0 c-13 0 -102 7 -198 15 -96 8 -187 15 -202 15 l-28
0 0 -10z"/>
<path d="M19500 1008 l0 -14 198 -13 c108 -6 209 -14 225 -17 l27 -6 0 16 0
16 -22 0 c-30 0 -285 18 -365 26 l-63 6 0 -14z"/>
</g>
</svg>
