<?xml version="1.0" standalone="no"?>
<!DOCTYPE svg PUBLIC "-//W3C//DTD SVG 20010904//EN"
 "http://www.w3.org/TR/2001/REC-SVG-20010904/DTD/svg10.dtd">
<svg version="1.0" xmlns="http://www.w3.org/2000/svg"
 width="7500.000000pt" height="7500.000000pt" viewBox="0 0 7500.000000 7500.000000"
 preserveAspectRatio="xMidYMid meet">
<metadata>
Created by potrace 1.16, written by Peter Selinger 2001-2019
</metadata>
<g transform="translate(0.000000,7500.000000) scale(0.075000,-0.075000)"
fill="#000000" stroke="none">
<path d="M87837 93332 c-10 -10 -17 -22 -17 -27 l0 -8 21 19 21 18 70 -72 70
-72 19 0 c10 0 21 5 24 10 l6 10 28 0 28 0 94 -34 c599 -218 846 -306 859
-306 8 1 -102 44 -245 96 -143 52 -364 133 -492 180 l-231 85 -43 -11 -42 -12
-71 71 c-39 39 -74 71 -77 71 -3 0 -13 -8 -22 -18z"/>
<path d="M78980 88493 l0 -8 640 -224 641 -224 6 7 c3 3 4 8 2 9 -7 7 -1269
447 -1279 447 -6 0 -10 -3 -10 -7z"/>
<path d="M78960 88443 l0 -8 222 -77 222 -77 9 6 10 6 -16 9 c-25 13 -417 148
-433 148 -8 0 -14 -3 -14 -7z"/>
<path d="M79440 88303 c0 -5 -18 -111 -40 -237 -36 -209 -40 -250 -25 -234 5
4 85 449 85 471 0 4 -4 7 -10 7 -5 0 -10 -3 -10 -7z"/>
<path d="M79371 88218 c-14 -70 -61 -353 -61 -367 0 -6 4 -11 8 -11 l9 0 32
194 c18 106 35 203 38 215 l5 21 -10 0 -11 0 -10 -52z"/>
<path d="M75369 88007 l-124 -72 -3 -35 -3 -35 9 10 c6 6 12 19 14 29 l3 20
110 63 c114 67 132 79 124 88 -3 2 -61 -28 -130 -68z"/>
<path d="M19260 86222 l0 -7 208 -69 c114 -38 213 -71 220 -73 l12 -5 0 10 0
10 -213 71 c-222 74 -227 76 -227 63z"/>
<path d="M64251 85739 c-101 -10 -186 -21 -189 -24 -3 -3 -2 -8 2 -12 l6 -7
198 18 c108 10 214 20 235 23 l37 6 0 8 0 9 -52 -1 c-29 -1 -136 -10 -237 -20z"/>
<path d="M21050 85670 l0 -10 38 -19 c20 -10 102 -65 181 -121 80 -56 151
-104 158 -107 l13 -5 0 8 c0 12 -272 203 -337 237 l-53 27 0 -10z"/>
<path d="M56774 83602 l-18 -97 1 -130 0 -130 41 -118 41 -118 32 -52 c17 -29
59 -84 91 -124 l60 -72 14 6 15 5 -14 17 c-7 9 -33 41 -58 71 -25 30 -60 79
-78 109 l-33 55 -41 115 -41 116 0 125 1 125 12 65 c6 36 14 77 17 91 l5 26
-14 6 -15 6 -18 -97z"/>
<path d="M68947 69643 l-147 -154 6 -11 6 -10 40 39 c22 21 90 91 150 156
l111 118 -9 8 -9 8 -148 -154z"/>
<path d="M48985 65724 c-72 -119 -132 -222 -134 -228 l-3 -11 14 15 c23 23
259 422 256 431 -2 5 -62 -88 -133 -207z"/>
<path d="M39303 65054 c7 -8 410 -64 416 -59 2 3 -2 7 -10 9 -13 4 -386 56
-404 56 l-8 0 6 -6z"/>
<path d="M41450 63743 l-24 -5 -79 -65 c-43 -36 -76 -68 -73 -70 3 -3 38 23
78 56 l73 62 24 6 25 6 61 -13 c33 -7 71 -14 85 -16 l25 -4 -55 19 c-69 23
-108 30 -140 24z"/>
<path d="M41770 63626 c0 -5 24 -36 53 -70 30 -34 97 -119 150 -189 94 -126
277 -336 277 -318 0 5 -34 46 -76 92 -42 46 -128 152 -190 234 -114 150 -214
268 -214 251z"/>
<path d="M41540 63151 c0 -5 6 -14 14 -20 l14 -12 5 9 6 8 -20 12 -19 12 0 -9z"/>
<path d="M42225 63010 c16 -27 248 -285 258 -289 l12 -4 -26 29 c-14 16 -74
84 -133 152 -95 108 -131 144 -111 112z"/>
<path d="M89139 62721 c-68 -81 -199 -255 -199 -264 0 -4 6 -7 13 -7 l12 1 75
102 c41 56 99 129 127 163 l53 62 -13 5 -13 5 -55 -67z"/>
<path d="M3770 62570 l0 -81 16 -69 15 -69 32 -39 c39 -48 308 -289 488 -437
73 -60 208 -177 299 -260 91 -82 173 -156 182 -163 l16 -13 6 9 6 10 -203 184
c-111 101 -254 226 -317 278 -140 115 -403 349 -448 399 l-32 36 -15 50 -16
50 -6 93 -6 93 -9 5 -8 5 0 -81z"/>
<path d="M89015 62351 c17 -16 97 -86 179 -155 l149 -125 9 5 c5 3 8 7 6 9
-120 105 -352 295 -361 295 l-12 0 30 -29z"/>
<path d="M38870 62350 l0 -6 218 -33 c119 -18 228 -35 242 -38 l25 -6 -10 10
-10 10 -115 17 c-63 9 -168 25 -232 35 l-118 18 0 -7z"/>
<path d="M39370 62310 c14 -5 120 -23 235 -40 116 -18 214 -35 219 -37 l9 -6
-5 14 -5 14 -209 32 c-115 18 -222 32 -239 32 l-30 -1 25 -8z"/>
<path d="M61765 61837 c-110 -22 -202 -42 -204 -44 -2 -1 -1 -6 2 -9 l7 -7
187 37 c218 43 223 44 223 57 0 11 23 15 -215 -34z"/>
<path d="M57801 61646 c11 -11 492 -216 497 -212 3 3 -26 19 -64 36 -286 129
-455 197 -433 176z"/>
<path d="M60730 61490 c0 -5 5 -10 11 -10 l10 0 -6 10 c-3 6 -8 10 -11 10 -2
0 -4 -4 -4 -10z"/>
<path d="M60840 60799 c0 -22 79 -381 85 -387 9 -9 6 6 -36 202 -37 177 -49
221 -49 185z"/>
<path d="M62765 59539 c-77 -16 -164 -34 -193 -40 -30 -6 -52 -13 -49 -15 3
-3 93 12 201 32 l196 38 0 8 c0 10 12 12 -155 -23z"/>
<path d="M49942 58054 c3 -3 70 -37 148 -75 l142 -69 86 -26 c48 -14 93 -27
100 -29 l12 -4 0 8 0 8 -97 28 -98 27 -137 69 c-76 38 -143 69 -150 69 l-11 0
5 -6z"/>
<path d="M46270 57969 c0 -5 22 -37 49 -70 l48 -60 74 -134 74 -135 13 0 c6 0
12 2 12 5 0 3 -35 67 -77 143 l-77 137 -50 63 c-48 60 -66 74 -66 51z"/>
<path d="M27406 57361 l-6 -10 9 -6 c13 -7 135 -185 144 -207 5 -15 27 -26 27
-14 0 24 -110 196 -148 229 l-20 18 -6 -10z"/>
<path d="M64174 57115 c3 -11 24 -105 46 -210 46 -212 50 -228 56 -222 2 2
-17 100 -42 218 l-46 214 -10 10 -10 10 6 -20z"/>
<path d="M61730 56364 c0 -5 16 -99 36 -209 l37 -200 9 -10 9 -10 -5 25 c-3
14 -22 110 -41 214 -30 162 -45 226 -45 190z"/>
<path d="M52781 55486 c2 -2 94 -45 204 -96 110 -51 204 -96 210 -101 5 -5 13
-9 19 -9 l10 0 -11 11 c-14 14 -410 199 -425 199 -6 0 -9 -2 -7 -4z"/>
<path d="M52675 54713 c33 -34 865 -576 865 -564 0 4 -73 55 -162 111 -90 57
-278 182 -420 277 -141 95 -264 176 -275 179 l-18 7 10 -10z"/>
<path d="M51885 54403 c-165 -215 -178 -233 -168 -232 4 0 24 21 43 47 20 26
85 111 144 190 60 78 107 144 105 147 -3 2 -59 -66 -124 -152z"/>
<path d="M32990 54508 l1 -13 200 -134 199 -134 7 7 7 6 -10 9 c-9 8 -369 251
-391 265 l-13 7 0 -13z"/>
<path d="M52874 54230 c-80 -123 -148 -231 -151 -239 -3 -9 65 89 152 217 86
129 154 236 151 239 -3 3 -71 -95 -152 -217z"/>
<path d="M77578 54153 c11 -26 52 -137 93 -245 41 -109 77 -198 81 -198 13 0
11 6 -80 249 l-87 234 -13 5 -12 4 18 -49z"/>
<path d="M77697 53693 l-7 -11 24 -68 c13 -38 61 -223 107 -412 l83 -342 8 8
8 8 -89 365 c-50 200 -99 386 -109 413 l-19 49 -6 -10z"/>
<path d="M49090 53653 c0 -16 123 -264 185 -373 56 -98 54 -95 59 -89 3 3 -14
36 -37 74 -22 39 -78 144 -123 235 -46 91 -83 160 -84 153z"/>
<path d="M29868 53592 c-43 -14 -78 -29 -78 -33 l0 -8 73 26 72 27 150 6 150
6 -145 1 -145 1 -77 -26z"/>
<path d="M35566 53276 l-139 -31 -5 -13 c-5 -15 -20 -17 164 23 l158 35 58 0
58 0 0 10 0 10 -77 -1 -78 -1 -139 -32z"/>
<path d="M64578 53231 c-109 -21 -201 -41 -205 -46 l-8 -8 25 6 c14 3 106 20
205 38 l180 32 10 8 9 9 -9 -1 c-6 -1 -99 -18 -207 -38z"/>
<path d="M52745 52774 l-19 -14 15 0 c8 0 20 4 28 9 l13 9 -9 5 -8 5 -20 -14z"/>
<path d="M53245 51523 c-105 -53 -99 -49 -91 -62 l7 -11 92 46 c106 53 104 52
91 63 l-9 9 -90 -45z"/>
<path d="M28457 50613 l-17 -178 0 -97 0 -98 10 0 10 0 0 113 0 112 15 130 c8
72 15 145 15 163 l0 32 -8 0 -8 0 -17 -177z"/>
<path d="M33575 50350 c37 -255 65 -411 65 -359 0 33 -52 356 -60 374 l-10 20
5 -35z"/>
<path d="M17742 50123 l-20 -48 -16 -125 c-9 -69 -19 -133 -21 -142 l-3 -18 7
0 8 0 17 138 18 137 20 48 c12 26 18 50 16 53 -3 2 -14 -17 -26 -43z"/>
<path d="M31023 49833 l-93 -4 0 -11 0 -11 128 6 c70 4 160 7 200 7 l72 0 0
10 0 10 -107 -2 c-60 -1 -150 -4 -200 -5z"/>
<path d="M37924 49080 c2 -14 19 -115 37 -225 l32 -200 10 -10 9 -10 -5 20
c-3 11 -20 108 -37 215 -17 107 -35 204 -41 215 l-9 20 4 -25z"/>
<path d="M37964 49073 c2 -10 20 -109 38 -220 l32 -203 9 0 8 0 -5 18 c-2 9
-20 108 -38 220 l-32 202 -9 0 -8 0 5 -17z"/>
<path d="M34068 48577 l-188 -10 0 -10 0 -10 98 6 c53 4 169 10 257 13 l160 7
20 8 20 8 -90 -1 c-49 -1 -174 -6 -277 -11z"/>
<path d="M33960 48119 c0 -22 51 -402 56 -418 2 -8 6 -12 8 -10 6 5 -52 430
-59 437 -3 3 -5 -1 -5 -9z"/>
<path d="M36868 47403 l-158 -4 0 -11 0 -11 38 7 c20 3 99 6 175 6 l137 0 0
10 0 10 -17 -2 c-10 -1 -89 -4 -175 -5z"/>
<path d="M34303 47286 l-201 -11 -9 -9 -8 -8 75 6 c41 3 169 11 285 17 115 6
212 12 214 15 6 6 -127 2 -356 -10z"/>
<path d="M48850 45679 c-30 -10 -228 -72 -440 -139 -500 -157 -871 -278 -890
-290 l-14 -9 5 -6 6 -6 94 34 c52 19 364 119 694 222 330 103 604 191 608 195
l9 8 -9 5 c-4 2 -33 -4 -63 -14z"/>
<path d="M34713 44543 l7 -118 14 -79 c14 -75 21 -94 30 -85 3 3 -4 56 -15
119 l-19 115 0 83 0 82 -11 0 -12 0 6 -117z"/>
<path d="M47025 39060 l-66 -79 -127 -120 -127 -120 10 -10 10 -10 127 117
126 117 71 86 70 87 -6 6 c-13 13 -23 4 -88 -74z"/>
<path d="M58150 38649 c0 -9 18 -76 40 -150 22 -74 46 -164 52 -201 l11 -68 8
0 c12 0 11 14 -2 86 -13 73 -88 326 -100 339 l-9 9 0 -15z"/>
<path d="M60290 38450 c0 -5 5 -10 10 -10 l10 0 0 -16 0 -15 -47 -67 c-58 -82
-272 -316 -362 -396 l-66 -59 -160 -106 c-89 -59 -198 -127 -243 -151 -45 -24
-80 -46 -77 -48 8 -9 203 103 346 199 l147 98 70 63 c94 85 295 306 360 395
l52 73 0 14 0 15 -20 11 -20 11 0 -11z"/>
<path d="M86662 35198 c2 -6 10 -14 16 -16 l12 -4 0 16 0 16 -16 0 -16 0 4
-12z"/>
<path d="M86716 35141 l-7 -11 9 -16 9 -17 7 12 7 11 -9 16 -9 17 -7 -12z"/>
<path d="M86776 35071 l-6 -9 35 -21 35 -20 0 8 c0 8 -26 33 -47 45 l-12 6 -5
-9z"/>
<path d="M60736 34692 c-42 -115 -76 -215 -76 -223 l1 -14 8 15 c5 8 38 96 74
195 36 99 70 192 76 208 l11 27 -9 0 -8 0 -77 -208z"/>
<path d="M87314 25977 l-5 -14 163 -161 163 -161 15 15 15 14 -160 160 -160
160 -13 0 -13 0 -5 -13z"/>
<path d="M90495 24839 c100 -11 338 -46 373 -55 l22 -6 0 9 0 9 -147 23 -148
23 -95 3 -95 4 90 -10z"/>
<path d="M89780 21589 c0 -7 50 -209 112 -451 l111 -439 16 3 16 3 0 15 c0 8
-49 210 -110 447 l-110 433 -17 0 -18 0 0 -11z"/>
<path d="M86190 21399 c81 -90 103 -113 750 -784 238 -247 437 -454 442 -459
l8 -10 0 11 c0 6 -226 244 -501 529 -276 286 -558 580 -626 654 -68 74 -130
137 -136 139 -7 2 22 -33 63 -80z"/>
<path d="M87075 20418 c96 -104 280 -288 288 -288 5 0 -62 74 -148 165 -87 91
-163 165 -168 165 l-11 0 39 -42z"/>
<path d="M92563 15885 l-5 -16 5 -5 c3 -3 81 -70 173 -148 l168 -143 15 14 15
15 -21 17 c-12 9 -91 76 -176 149 -85 72 -158 132 -161 132 -4 0 -9 -7 -13
-15z"/>
<path d="M96080 12824 l-13 -15 9 -8 c5 -4 122 -106 259 -226 138 -121 290
-255 338 -299 l88 -79 15 15 15 15 -323 284 c-177 156 -335 294 -349 306 l-27
23 -12 -16z"/>
</g>
</svg>
