<?xml version="1.0" standalone="no"?>
<!DOCTYPE svg PUBLIC "-//W3C//DTD SVG 20010904//EN"
 "http://www.w3.org/TR/2001/REC-SVG-20010904/DTD/svg10.dtd">
<svg version="1.0" xmlns="http://www.w3.org/2000/svg"
 width="7500.000000pt" height="7500.000000pt" viewBox="0 0 7500.000000 7500.000000"
 preserveAspectRatio="xMidYMid meet">
<metadata>
Created by potrace 1.16, written by Peter Selinger 2001-2019
</metadata>
<g transform="translate(0.000000,7500.000000) scale(0.075000,-0.075000)"
fill="#000000" stroke="none">
<path d="M16570 99971 l0 -29 36 -98 c47 -132 91 -216 182 -346 65 -94 92
-124 92 -102 0 3 -33 54 -74 112 -84 123 -120 191 -176 334 l-40 103 0 28 0
27 -10 0 -10 0 0 -29z"/>
<path d="M89016 99941 c5 -5 97 -44 204 -86 107 -42 201 -79 208 -82 l12 -5 0
10 0 9 -206 82 c-113 44 -210 81 -217 81 l-11 0 10 -9z"/>
<path d="M84489 98806 c-2 -3 -77 -6 -167 -8 l-162 -3 0 -8 0 -9 187 8 188 7
25 8 25 7 -46 1 c-25 1 -48 -1 -50 -3z"/>
<path d="M65070 96756 c8 -7 92 -57 185 -110 l170 -97 30 -5 30 -6 -65 34
c-36 18 -129 71 -207 116 -138 80 -173 96 -143 68z"/>
<path d="M98553 95460 c-141 -145 -169 -180 -144 -180 11 0 309 311 311 325 5
28 -29 -1 -167 -145z"/>
<path d="M99095 94347 c70 -61 116 -106 168 -165 21 -24 40 -42 43 -39 8 8
-111 134 -184 196 -90 74 -111 81 -27 8z"/>
<path d="M98916 94271 c9 -9 408 -171 421 -171 4 0 3 4 -2 9 -11 11 -403 171
-419 171 l-10 0 10 -9z"/>
<path d="M50080 93431 c0 -5 30 -31 68 -57 l67 -48 65 -24 c63 -24 170 -51
200 -51 l15 0 -15 8 c-8 5 -33 12 -55 15 -22 4 -74 19 -115 34 l-75 26 -77 53
-78 52 0 -8z"/>
<path d="M87817 93372 c-40 -42 -33 -51 8 -12 l36 35 79 -81 79 -80 14 8 c8 4
27 8 43 10 l29 2 38 -13 c21 -7 41 -11 44 -8 2 3 -20 13 -50 23 l-54 17 -30
-11 -30 -10 -74 74 -73 74 -16 0 -16 0 -27 -28z"/>
<path d="M87837 93332 c-10 -10 -17 -22 -17 -27 l0 -8 20 18 21 19 73 -73 74
-73 36 13 36 13 43 -11 c49 -14 62 -9 21 8 l-29 12 -37 0 -38 0 -13 -11 -13
-11 -74 74 c-41 41 -77 75 -81 75 -3 0 -13 -8 -22 -18z"/>
<path d="M89520 92716 c0 -8 442 -148 447 -142 4 4 -424 146 -441 146 -3 0 -6
-2 -6 -4z"/>
<path d="M95703 92480 c-134 -160 -155 -190 -135 -190 5 0 74 78 155 174 l146
174 -6 6 c-4 3 -9 6 -12 6 -3 0 -70 -77 -148 -170z"/>
<path d="M21880 92620 l0 -13 7 6 6 7 -6 7 -7 6 0 -13z"/>
<path d="M21932 92606 c3 -5 26 -12 50 -17 24 -6 88 -27 143 -48 55 -21 112
-41 128 -45 l27 -6 0 7 c0 5 -35 20 -78 34 -42 15 -102 36 -133 48 -31 11 -76
23 -100 27 l-44 7 7 -7z"/>
<path d="M95130 91768 c-74 -94 -170 -217 -214 -272 -43 -56 -113 -136 -155
-179 l-76 -77 -60 -32 -60 -31 -22 -33 -22 -34 11 -6 11 -7 14 19 c8 10 17 24
21 30 4 6 26 21 49 33 l42 21 16 -6 15 -6 15 12 15 12 -5 8 -5 8 66 68 c36 38
104 120 152 182 48 62 146 189 219 282 l131 168 -5 6 c-4 3 -9 6 -12 6 -3 0
-67 -77 -141 -172z"/>
<path d="M59317 91752 c-34 -33 -72 -65 -85 -71 l-22 -12 -35 10 -35 9 0 -8 0
-9 35 -7 35 -6 29 11 28 12 54 55 53 54 12 0 c7 0 35 -18 63 -40 28 -22 56
-40 63 -40 l12 0 -55 41 c-30 22 -62 45 -72 50 l-18 10 -62 -59z"/>
<path d="M94450 91211 c19 -5 55 -12 80 -15 l45 -7 -10 9 -10 10 -70 5 -70 6
35 -8z"/>
<path d="M94774 91189 l-6 -11 16 -16 16 -16 12 12 11 11 -13 16 c-15 18 -26
19 -36 4z"/>
<path d="M94846 91112 l-6 -10 6 -31 7 -32 11 4 11 4 -2 28 c-1 16 -6 32 -11
37 l-10 10 -6 -10z"/>
<path d="M94508 91080 c-9 -6 -39 -41 -67 -79 l-50 -69 6 -6 c13 -12 21 -4 68
64 l48 70 14 0 13 0 0 15 c0 17 -8 18 -32 5z"/>
<path d="M94811 90857 c19 -12 56 -40 82 -61 26 -21 50 -37 52 -34 10 10 -137
118 -160 118 -5 -1 6 -11 26 -23z"/>
<path d="M28603 90753 l7 -6 7 6 6 7 -13 0 -13 0 6 -7z"/>
<path d="M28673 90733 l7 -6 7 6 6 7 -13 0 -13 0 6 -7z"/>
<path d="M28703 90723 l7 -6 7 6 6 7 -13 0 -13 0 6 -7z"/>
<path d="M28743 90713 l7 -6 7 6 6 7 -13 0 -13 0 6 -7z"/>
<path d="M28773 90703 l7 -6 7 6 6 7 -13 0 -13 0 6 -7z"/>
<path d="M28808 90693 l13 -5 6 6 6 6 -19 -1 -19 -1 13 -5z"/>
<path d="M95395 90451 c13 -13 419 -180 424 -175 2 2 2 5 0 7 -4 4 -363 151
-407 168 l-27 10 10 -10z"/>
<path d="M30594 90405 c-7 -19 -14 -42 -14 -51 0 -21 30 -72 46 -78 l13 -5
-25 36 c-28 42 -28 39 -9 92 17 50 10 55 -11 6z"/>
<path d="M30755 90141 l30 -30 138 -54 137 -55 0 7 c0 4 -61 32 -135 61 l-134
53 -22 24 c-13 12 -27 23 -33 23 l-11 0 30 -29z"/>
<path d="M93551 89706 l-163 -163 12 -8 11 -7 21 19 c11 10 83 84 160 165
l139 146 -9 6 -8 5 -163 -163z"/>
<path d="M33140 89740 l0 -9 38 -10 c20 -5 69 -17 107 -26 39 -8 112 -29 162
-46 l93 -30 11 7 12 7 -94 33 c-74 26 -297 84 -324 84 -3 0 -5 -4 -5 -10z"/>
<path d="M84181 89566 c-64 -254 -282 -1213 -326 -1434 l-56 -284 5 -6 c3 -3
8 -3 10 -1 2 2 30 132 61 289 43 215 272 1222 330 1453 l7 27 -10 0 -10 0 -11
-44z"/>
<path d="M94215 89398 c92 -90 172 -164 179 -166 6 -2 -65 71 -159 162 -93 91
-174 165 -178 166 -5 0 67 -73 158 -162z"/>
<path d="M38665 89420 l-6 -10 6 -19 6 -20 -15 -35 -15 -36 -15 -6 -15 -6 6
-14 5 -14 19 10 19 11 15 29 15 29 0 40 0 40 -9 6 -10 5 -6 -10z"/>
<path d="M86360 88980 c41 -5 125 -11 185 -15 l110 -6 65 10 65 9 -135 -1
c-74 0 -187 2 -250 5 l-115 6 75 -8z"/>
<path d="M84720 88853 c-178 -38 -507 -98 -593 -108 l-59 -7 6 -6 c11 -10 102
-1 229 22 140 27 570 118 576 123 16 12 -23 6 -159 -24z"/>
<path d="M84710 88814 c-85 -19 -213 -48 -283 -64 l-128 -30 -107 -11 c-139
-13 -154 -20 -27 -13 l100 6 304 64 c166 35 307 64 312 64 5 0 9 5 9 10 l0 10
-12 -1 c-7 0 -83 -16 -168 -35z"/>
<path d="M84020 88730 l0 -13 7 6 6 7 -6 7 -7 6 0 -13z"/>
<path d="M79385 88298 c-8 -35 -75 -431 -75 -445 0 -7 4 -13 8 -13 l9 0 38
228 c21 125 40 233 43 240 l4 12 -11 0 -11 0 -5 -22z"/>
<path d="M83890 88050 l-43 -211 7 -6 c3 -3 8 -4 10 -2 4 4 86 408 86 422 0 4
-4 7 -8 7 l-9 0 -43 -210z"/>
<path d="M84743 87772 c-106 -213 -186 -378 -177 -367 40 53 390 756 376 754
-4 0 -94 -174 -199 -387z"/>
<path d="M62187 88058 l4 -23 -91 -103 c-90 -103 -176 -220 -167 -228 2 -2 24
24 48 58 37 53 89 115 212 255 l19 21 -7 21 c-3 12 -10 21 -14 21 l-8 0 4 -22z"/>
<path d="M90306 87971 l-200 -67 -4 -12 -4 -12 8 0 c5 0 100 30 211 67 l203
68 0 12 c0 7 -3 13 -7 12 -5 0 -98 -31 -207 -68z"/>
<path d="M61757 87529 c-71 -105 -124 -189 -118 -188 8 3 155 214 247 353 l16
26 -8 0 c-5 -1 -67 -87 -137 -191z"/>
<path d="M84471 87337 c-46 -84 -172 -347 -216 -450 l-28 -67 -16 5 c-9 2 -70
18 -136 35 -66 18 -176 47 -244 66 -67 19 -128 33 -134 31 l-11 -3 104 -29
c58 -16 179 -50 270 -76 l165 -47 11 11 c6 7 29 55 52 107 86 200 113 259 171
369 67 128 76 164 12 48z"/>
<path d="M83746 87354 c-4 -15 -36 -155 -72 -313 -205 -904 -257 -1118 -289
-1193 l-7 -18 9 0 10 0 16 38 c28 65 40 115 256 1063 49 218 93 408 97 423 l6
26 -10 0 -10 0 -6 -26z"/>
<path d="M83594 86933 c-3 -16 -12 -50 -19 -78 -7 -27 -29 -124 -49 -215 -20
-91 -43 -193 -51 -227 -18 -74 -18 -73 -5 -73 l9 0 12 43 c6 23 35 150 64 282
30 133 57 253 60 268 l7 27 -11 0 -11 0 -6 -27z"/>
<path d="M85945 86482 c-120 -57 -253 -129 -289 -155 l-19 -14 9 -6 10 -6 87
49 c48 27 143 75 212 106 l123 57 -5 13 c-3 8 -6 14 -7 13 0 0 -55 -26 -121
-57z"/>
<path d="M39185 85631 l-5 -10 77 -17 78 -16 95 -40 c52 -22 106 -48 120 -58
14 -9 30 -20 37 -24 l12 -6 6 9 5 10 -44 31 c-25 17 -80 45 -123 64 l-78 33
-74 16 c-85 20 -98 20 -106 8z"/>
<path d="M56250 85570 l0 -10 195 0 195 0 0 10 0 10 -195 0 -195 0 0 -10z"/>
<path d="M81266 85491 c5 -4 90 -35 189 -69 99 -33 189 -64 200 -68 l20 -7
-10 10 c-9 9 -386 143 -403 143 -3 0 -2 -4 4 -9z"/>
<path d="M84055 85037 c-55 -51 -133 -122 -174 -158 l-74 -66 7 -12 7 -11 152
137 c84 75 163 147 177 160 l24 23 -9 9 -10 9 -100 -91z"/>
<path d="M86653 84573 l7 -6 7 6 6 7 -13 0 -13 0 6 -7z"/>
<path d="M80076 84521 c9 -9 530 -195 854 -306 164 -55 320 -111 1068 -379
167 -61 214 -75 200 -61 -2 3 -281 104 -619 225 -338 121 -677 242 -754 270
-208 74 -746 260 -753 260 -3 0 -2 -4 4 -9z"/>
<path d="M86616 84329 l-28 -200 6 -6 6 -6 0 5 c0 9 49 349 54 381 l6 27 -8 0
-8 0 -28 -201z"/>
<path d="M83337 84342 l-198 -177 10 -3 11 -4 190 173 c159 145 205 191 188
189 -2 -1 -92 -80 -201 -178z"/>
<path d="M11056 84231 c5 -5 212 -73 459 -150 l450 -141 95 -20 c52 -11 146
-31 209 -45 63 -14 116 -23 119 -20 11 10 -14 22 -68 33 -30 6 -122 25 -205
42 l-150 32 -446 139 c-246 76 -453 139 -460 139 l-13 0 10 -9z"/>
<path d="M23721 83815 c-89 -168 -226 -422 -305 -563 -78 -141 -149 -268 -156
-282 l-12 -25 14 15 c35 36 635 1146 625 1156 -2 3 -77 -133 -166 -301z"/>
<path d="M82100 83405 l0 -15 14 0 14 0 6 15 5 15 -19 0 -20 0 0 -15z"/>
<path d="M84390 83265 c0 -6 44 -66 97 -135 53 -69 114 -152 135 -185 43 -68
52 -65 11 4 -21 37 -197 273 -235 316 l-8 9 0 -9z"/>
<path d="M76509 82567 c-201 -320 -364 -584 -362 -586 2 -3 9 3 16 12 40 55
719 1148 715 1152 -2 2 -168 -258 -369 -578z"/>
<path d="M15430 82912 c0 -5 75 -57 168 -117 92 -59 177 -115 190 -123 l22
-14 0 10 0 10 -177 114 c-98 63 -184 118 -190 122 l-13 7 0 -9z"/>
<path d="M76550 82553 c-63 -102 -116 -193 -118 -202 -2 -9 40 54 93 139 124
198 148 240 144 245 -3 2 -56 -80 -119 -182z"/>
<path d="M15846 82711 l-5 -8 68 -32 68 -31 39 0 c21 0 87 7 147 17 l107 17 0
8 c0 11 -12 10 -115 -8 l-90 -16 -58 6 -57 6 -50 25 -49 25 -5 -9z"/>
<path d="M42245 82663 c17 -9 110 -60 208 -114 97 -53 177 -94 177 -91 0 8
-393 222 -406 222 -5 -1 5 -8 21 -17z"/>
<path d="M54390 82673 l0 -10 38 -11 c20 -6 122 -20 226 -32 l189 -21 9 9 9 9
-113 12 c-152 17 -308 38 -335 47 l-23 6 0 -9z"/>
<path d="M60588 82298 l-198 -80 0 -10 0 -10 9 4 c134 50 411 165 411 171 0
14 -25 5 -222 -75z"/>
<path d="M96753 82042 l-131 -77 -42 -47 -42 -48 10 0 c5 0 25 19 45 43 l35
42 131 75 c72 40 131 78 131 82 0 10 15 18 -137 -70z"/>
<path d="M97160 81684 c19 -32 51 -87 72 -121 21 -35 56 -99 79 -144 22 -45
43 -79 45 -76 3 3 -7 29 -21 59 -41 82 -186 328 -198 335 -6 3 5 -20 23 -53z"/>
<path d="M96088 81313 c-303 -418 -337 -467 -333 -472 3 -2 9 0 14 5 25 27
492 686 488 690 -2 2 -78 -98 -169 -223z"/>
<path d="M43032 79879 l-82 -40 -26 -38 -25 -39 -79 -194 c-43 -106 -141 -346
-218 -533 -77 -187 -138 -342 -136 -344 6 -7 -1 -24 197 459 103 250 201 490
219 534 l33 79 37 42 36 41 66 28 66 28 0 9 c0 12 7 14 -88 -32z"/>
<path d="M43065 79850 l-60 -29 -31 -30 -31 -30 -42 -102 c-23 -56 -40 -104
-37 -107 3 -2 10 8 16 23 6 15 24 60 41 101 l30 73 32 31 32 31 63 30 c57 28
74 39 55 39 -5 0 -35 -14 -68 -30z"/>
<path d="M77760 78725 c0 -3 33 -49 73 -103 40 -54 99 -139 131 -190 32 -51
63 -92 68 -92 l8 0 -71 108 c-76 113 -198 282 -205 282 -2 0 -4 -2 -4 -5z"/>
<path d="M77744 78685 c78 -121 252 -373 255 -369 6 5 -248 382 -263 392 l-11
6 19 -29z"/>
<path d="M97886 78533 l-5 -6 196 -93 c168 -79 224 -102 202 -80 -5 6 -334
164 -365 176 l-22 9 -6 -6z"/>
<path d="M59463 78474 l8 -9 162 -16 c89 -8 172 -13 185 -11 l22 4 0 9 0 9
-29 -6 -29 -6 -124 11 c-67 6 -141 14 -163 17 l-40 6 8 -8z"/>
<path d="M23784 77685 c-71 -18 -162 -43 -201 -55 l-73 -22 0 -9 c0 -13 8 -12
116 20 126 37 268 71 300 71 l24 0 0 9 c0 5 -8 11 -19 14 l-19 5 -128 -33z"/>
<path d="M12440 77490 l0 -9 38 -10 c20 -5 114 -26 207 -46 94 -20 178 -39
188 -41 l17 -5 0 13 0 14 -217 47 c-241 52 -233 51 -233 37z"/>
<path d="M43661 77322 c-52 -92 -111 -195 -132 -229 l-37 -62 46 -48 c26 -27
100 -103 166 -171 65 -68 120 -121 122 -119 2 2 -68 79 -156 171 -88 93 -158
171 -156 175 2 3 52 92 111 196 59 105 116 205 127 223 l20 32 -9 0 c-4 0 -50
-75 -102 -168z"/>
<path d="M73050 77110 l0 -10 250 0 250 0 0 10 0 10 -250 0 -250 0 0 -10z"/>
<path d="M74893 77008 c-21 -17 -62 -54 -91 -82 l-53 -51 -14 -49 -15 -50 0
-73 0 -73 15 0 15 0 1 88 c0 48 4 95 7 104 4 10 49 60 100 112 l94 94 -11 6
-10 6 -38 -32z"/>
<path d="M41933 76873 l-13 -5 25 -46 c13 -26 42 -67 63 -91 l39 -44 12 7 12
8 -41 47 c-22 27 -50 66 -62 88 l-23 40 -12 -4z"/>
<path d="M74608 76773 l-18 -4 0 -15 0 -15 38 7 c20 4 40 9 45 11 l7 4 -5 10
-6 9 -22 -1 c-12 -1 -30 -3 -39 -6z"/>
<path d="M74550 76630 c0 -5 5 -10 10 -10 6 0 10 5 10 10 0 6 -4 10 -10 10 -5
0 -10 -4 -10 -10z"/>
<path d="M1700 76097 l0 -14 98 -46 c114 -53 553 -233 665 -272 l78 -28 10 10
9 9 -52 18 c-105 36 -645 259 -720 297 -87 44 -88 44 -88 26z"/>
<path d="M2144 75959 c-3 -6 -4 -12 -3 -13 8 -7 106 -49 154 -66 28 -10 101
-36 163 -59 l112 -40 0 13 0 13 -147 53 c-82 29 -176 66 -210 81 l-62 28 -7
-10z"/>
<path d="M3012 75630 l4 -13 150 -54 c82 -30 177 -61 211 -70 l62 -17 7 7 c4
4 5 8 3 10 -4 3 -384 133 -423 144 l-19 6 5 -13z"/>
<path d="M45075 75059 c-4 -6 -5 -13 -2 -16 7 -7 27 6 27 18 0 12 -17 12 -25
-2z"/>
<path d="M8030 74825 l0 -15 13 0 c6 0 108 -7 224 -17 l213 -16 7 6 c3 4 4 9
1 12 -3 3 -88 12 -189 20 -101 8 -203 17 -226 20 l-43 5 0 -15z"/>
<path d="M37065 72799 l-7 -20 -76 -36 c-43 -19 -130 -57 -196 -83 l-118 -47
9 -6 10 -6 99 39 c54 21 138 56 185 78 l86 40 17 23 c18 26 20 39 7 39 -5 0
-13 -9 -16 -21z"/>
<path d="M47490 71296 c0 -12 193 -505 214 -547 38 -74 123 -197 190 -271 l60
-68 55 -39 c73 -50 112 -66 202 -81 41 -6 82 -14 92 -16 l17 -5 0 14 0 15 -82
12 -83 13 -42 18 c-100 43 -219 160 -326 322 l-60 92 -37 90 c-20 50 -68 172
-105 273 l-68 182 -13 0 c-8 0 -14 -2 -14 -4z"/>
<path d="M73813 70973 l-353 -3 0 -10 0 -10 268 0 c147 0 378 3 515 7 l247 6
0 9 0 8 -162 -2 c-90 -2 -322 -4 -515 -5z"/>
<path d="M73000 70832 l0 -8 113 -27 112 -27 125 -11 125 -10 473 7 472 7 0
10 0 10 -452 -7 -453 -7 -150 11 -150 11 -98 25 c-107 26 -117 28 -117 16z"/>
<path d="M74439 70685 l-6 -70 66 -380 c36 -209 67 -372 69 -363 2 9 -23 160
-54 335 l-58 318 -6 115 -6 115 -5 -70z"/>
<path d="M29413 70274 l-88 -105 -33 -57 c-34 -60 -52 -111 -44 -126 l5 -8 37
81 38 80 96 113 c53 62 96 116 96 121 0 22 -29 -4 -107 -99z"/>
<path d="M74445 70295 c3 -16 23 -126 45 -243 l39 -212 19 -28 c11 -15 37 -61
57 -102 l38 -75 24 -99 23 -100 -10 -6 c-6 -4 -95 -26 -198 -50 -159 -36 -238
-58 -210 -60 9 0 431 99 434 102 1 2 -11 53 -26 113 l-27 110 -26 57 c-14 32
-40 78 -57 103 l-31 45 -40 217 c-21 120 -44 227 -49 238 l-10 20 5 -30z"/>
<path d="M13541 69897 c5 -4 352 -198 387 -216 12 -6 22 -10 22 -7 0 6 -394
226 -405 226 -5 0 -6 -2 -4 -3z"/>
<path d="M27821 69224 c0 -83 -4 -179 -7 -213 l-7 -61 11 0 10 0 7 113 6 112
-9 100 -9 100 -2 -151z"/>
<path d="M27862 69200 c-1 -96 -5 -193 -8 -215 l-7 -40 12 11 11 10 -3 205 -2
204 -3 -175z"/>
<path d="M73098 69046 c-114 -28 -210 -55 -215 -60 l-8 -9 25 7 c14 3 117 29
229 56 113 28 207 52 209 55 12 11 -44 0 -240 -49z"/>
<path d="M36212 69084 c8 -7 384 -64 418 -63 14 0 21 2 15 5 -11 4 -410 64
-428 64 l-10 0 5 -6z"/>
<path d="M41301 67718 l-71 -203 0 -22 0 -23 10 0 10 0 0 23 0 22 69 195 70
195 -8 8 -8 8 -72 -203z"/>
<path d="M41417 67878 c-35 -93 -129 -363 -133 -386 l-6 -30 11 -6 11 -7 0 21
c0 11 32 109 70 216 39 108 70 198 70 200 0 10 -18 3 -23 -8z"/>
<path d="M3670 67282 l0 -11 73 -42 c39 -24 209 -123 377 -222 168 -99 308
-182 313 -184 l7 -4 0 9 0 9 -302 180 c-167 99 -334 199 -371 222 -38 23 -75
45 -83 48 l-14 5 0 -10z"/>
<path d="M76678 67077 c-93 -50 -168 -95 -168 -99 0 -3 62 28 138 69 75 42
162 87 192 99 l55 24 -25 -1 -25 0 -167 -92z"/>
<path d="M46690 66958 c13 -13 358 -216 420 -248 l25 -12 -15 14 c-13 13 -358
216 -420 248 l-25 12 15 -14z"/>
<path d="M55376 66931 l-17 -19 -18 -151 -18 -151 8 0 c10 0 16 34 30 170 l12
115 12 15 c6 8 15 21 19 28 l7 12 -9 0 c-5 0 -17 -9 -26 -19z"/>
<path d="M76025 66664 c-270 -152 -634 -358 -811 -457 l-320 -181 -13 -206
c-7 -113 -15 -225 -18 -250 l-6 -45 9 8 8 8 17 236 16 236 18 14 c19 13 248
143 1100 623 275 155 502 284 504 286 23 23 -85 -36 -504 -272z"/>
<path d="M37785 66879 c-484 -26 -886 -48 -894 -48 -8 -1 -12 -3 -9 -6 3 -3
393 15 867 40 473 25 877 45 896 45 l35 0 0 10 c0 6 -3 9 -7 9 -5 -1 -404 -23
-888 -50z"/>
<path d="M39025 66909 c-44 -5 -543 -34 -1110 -64 -566 -31 -1031 -58 -1034
-60 -2 -3 12 -5 32 -5 64 0 1897 99 2052 111 l150 11 15 9 15 8 -20 -1 c-11 0
-56 -4 -100 -9z"/>
<path d="M45490 66834 c-75 -103 -240 -363 -240 -378 l0 -10 14 19 c7 11 44
70 81 130 37 61 101 156 142 213 41 57 73 105 70 108 -2 2 -33 -34 -67 -82z"/>
<path d="M55409 66904 l-13 -16 -3 -41 c-2 -23 -8 -78 -13 -122 -11 -88 -12
-121 -5 -114 2 3 11 65 20 139 l16 134 16 18 16 18 -10 0 c-6 0 -16 -7 -24
-16z"/>
<path d="M77753 66623 l-143 -4 0 -7 0 -7 157 3 c87 2 199 7 248 11 l90 8
-105 -1 c-58 0 -169 -2 -247 -3z"/>
<path d="M48250 66534 c0 -9 859 -606 882 -613 l13 -3 -10 9 c-5 6 -201 142
-435 303 -234 161 -431 297 -437 303 l-13 9 0 -8z"/>
<path d="M51661 66339 c-46 -104 -82 -191 -80 -194 3 -2 43 84 91 191 47 107
83 194 79 194 -3 0 -44 -86 -90 -191z"/>
<path d="M44245 66293 c6 -6 69 -28 140 -48 72 -21 158 -45 193 -55 l62 -19 0
8 0 7 -187 53 c-104 30 -195 56 -203 59 l-15 5 10 -10z"/>
<path d="M41590 66266 c0 -3 153 -105 308 -204 12 -8 22 -11 22 -8 0 7 -315
216 -325 216 -3 0 -5 -2 -5 -4z"/>
<path d="M48907 66121 c110 -76 212 -147 228 -157 l29 -19 -7 11 c-10 17 -425
304 -439 304 -6 0 79 -62 189 -139z"/>
<path d="M41550 66192 c0 -11 311 -215 317 -208 3 3 -21 22 -53 42 -33 21
-105 68 -161 106 l-103 68 0 -8z"/>
<path d="M94460 66096 c0 -11 59 -366 66 -395 3 -13 7 -22 9 -19 6 5 -60 407
-68 415 l-7 6 0 -7z"/>
<path d="M47346 66028 c-57 -92 -216 -372 -212 -375 2 -3 37 51 76 119 40 68
87 148 105 178 43 73 57 100 51 100 -3 0 -12 -10 -20 -22z"/>
<path d="M49020 65698 c-69 -116 -126 -218 -128 -227 -2 -9 49 72 113 179 65
107 126 210 137 228 l20 32 -9 0 c-4 0 -64 -95 -133 -212z"/>
<path d="M35087 65763 l68 -128 6 -55 6 -55 2 50 2 50 -68 132 c-37 73 -72
133 -76 133 l-9 0 69 -127z"/>
<path d="M83482 65659 l-172 -129 0 -11 0 -10 13 7 c13 9 327 242 340 254 l9
8 -9 5 -9 5 -172 -129z"/>
<path d="M97550 65723 c0 -5 28 -101 62 -216 l61 -207 14 -18 14 -17 -5 25
c-2 14 -33 118 -67 233 l-63 207 -8 0 c-4 0 -8 -3 -8 -7z"/>
<path d="M83701 65663 c3 -27 12 -64 19 -83 l13 -35 48 -60 c26 -33 57 -82 70
-108 13 -26 27 -47 31 -47 l8 0 -26 53 c-15 28 -47 78 -72 110 l-45 59 -18 49
-19 49 0 30 0 30 -8 0 -8 0 7 -47z"/>
<path d="M47108 65683 l13 -5 6 6 6 6 -19 -1 -19 -1 13 -5z"/>
<path d="M46953 65513 c-134 -204 -286 -454 -280 -460 3 -2 53 76 113 174 59
98 150 240 201 316 l94 137 -9 0 -10 0 -109 -167z"/>
<path d="M83650 65672 c0 -5 7 -32 16 -62 l16 -53 72 -106 72 -106 36 -100
c19 -55 55 -167 79 -249 23 -82 44 -145 46 -139 5 13 -80 305 -119 413 l-32
85 -69 103 -70 103 -13 37 c-7 20 -13 47 -14 60 l0 22 -10 0 c-5 0 -10 -4 -10
-8z"/>
<path d="M34945 65550 c204 -42 249 -49 234 -37 -8 7 -424 87 -444 86 -11 0
84 -22 210 -49z"/>
<path d="M17402 65283 c-29 -203 -31 -235 -16 -221 5 6 63 386 64 421 l0 17
-8 0 -9 0 -31 -217z"/>
<path d="M38421 64932 c-18 -147 -35 -275 -37 -284 l-5 -18 8 0 8 0 35 281 35
281 -6 3 -6 4 -32 -267z"/>
<path d="M48526 64854 c-54 -86 -95 -158 -93 -160 5 -5 11 4 116 175 45 73 80
135 78 138 -3 2 -48 -67 -101 -153z"/>
<path d="M40572 64860 c55 -165 115 -330 120 -330 l7 0 -56 163 c-31 89 -61
167 -66 172 l-10 10 5 -15z"/>
<path d="M1223 64775 l-223 -42 -112 -7 c-62 -4 -132 -9 -155 -13 l-43 -5 4
-7 5 -7 168 13 168 13 215 41 214 41 13 -18 c17 -23 23 -15 12 14 l-8 22 -18
-1 c-10 0 -118 -20 -240 -44z"/>
<path d="M37180 64720 l0 -20 8 0 c12 0 391 -49 425 -55 l27 -4 0 19 0 20 -22
5 c-26 5 -407 55 -426 55 l-12 0 0 -20z"/>
<path d="M36020 64716 c0 -7 461 -159 466 -154 4 5 -443 158 -458 158 -5 0 -8
-2 -8 -4z"/>
<path d="M50903 64648 c-11 -24 -77 -139 -147 -257 -70 -118 -125 -216 -123
-218 5 -5 282 466 291 495 11 35 2 26 -21 -20z"/>
<path d="M1660 64620 c-69 -22 -168 -49 -220 -61 -52 -11 -101 -22 -107 -25
l-13 -3 6 -14 5 -14 97 22 c53 12 161 41 240 65 l142 43 0 14 0 13 -12 -1 c-7
0 -69 -18 -138 -39z"/>
<path d="M96100 64214 l-122 -176 6 -6 6 -6 9 10 c14 14 241 345 241 350 0 22
-36 -22 -140 -172z"/>
<path d="M50394 64239 c109 -44 200 -78 202 -76 5 5 -372 157 -388 157 -7 -1
76 -37 186 -81z"/>
<path d="M28330 64089 c-323 -180 -450 -256 -450 -271 0 -13 16 -9 41 10 33
26 106 68 449 259 162 91 296 167 298 168 2 2 0 5 -5 8 l-9 6 -324 -180z"/>
<path d="M40795 64185 c19 -7 467 -56 472 -51 6 6 -44 13 -249 36 -164 18
-248 24 -223 15z"/>
<path d="M40606 64148 c-14 -18 -23 -34 -20 -37 4 -5 27 21 45 52 16 28 2 20
-25 -15z"/>
<path d="M40720 64150 l0 -10 30 0 30 0 0 10 0 10 -30 0 -30 0 0 -10z"/>
<path d="M40240 64118 c0 -36 4 -35 14 5 l6 27 -10 0 -10 0 0 -32z"/>
<path d="M40072 64085 l-12 -25 9 0 c4 0 13 11 19 25 l12 25 -9 0 c-4 0 -13
-11 -19 -25z"/>
<path d="M40596 64061 l-18 -19 11 -21 c16 -29 209 -245 224 -250 l12 -4 -31
34 c-109 120 -194 220 -194 230 0 5 5 19 10 30 14 24 8 24 -14 0z"/>
<path d="M78490 64033 c-102 -13 -187 -26 -189 -29 -2 -2 -2 -7 1 -10 l6 -5
216 27 216 28 0 8 0 8 -32 -1 c-18 -1 -116 -12 -218 -26z"/>
<path d="M78945 64034 c-99 -13 -382 -46 -630 -74 -247 -28 -452 -53 -454 -56
-2 -2 -2 -6 1 -9 l6 -6 503 56 c277 31 576 65 663 75 88 11 161 20 163 20 2 0
3 5 3 10 l0 10 -37 -1 c-21 -1 -119 -12 -218 -25z"/>
<path d="M1926 63992 l-5 -9 325 -289 c179 -159 329 -290 334 -292 l10 -4 0 9
c0 7 -248 231 -616 556 l-43 37 -5 -8z"/>
<path d="M41740 63937 l0 -15 50 -11 c28 -6 56 -11 62 -11 7 0 53 -15 103 -34
86 -33 343 -116 358 -116 4 0 7 7 7 15 l0 15 -16 0 c-8 0 -115 33 -237 74
-122 40 -239 77 -260 80 -21 4 -45 10 -53 13 l-14 5 0 -15z"/>
<path d="M76902 63825 c4 -59 11 -85 22 -74 2 2 2 34 -1 72 l-6 67 -10 0 -9 0
4 -65z"/>
<path d="M89635 63879 c5 -8 48 -59 96 -114 47 -55 105 -127 128 -159 46 -66
57 -65 13 1 -31 46 -218 269 -235 280 l-10 6 8 -14z"/>
<path d="M40215 63850 c10 -11 20 -20 23 -20 3 0 -3 9 -13 20 -10 11 -20 20
-23 20 -3 0 3 -9 13 -20z"/>
<path d="M59588 63783 l-46 -87 -124 -53 -123 -53 22 0 22 0 106 46 105 47 46
84 c25 46 44 88 42 93 l-3 10 -47 -87z"/>
<path d="M40285 63791 c35 -37 75 -68 75 -58 0 2 -26 25 -57 52 l-58 48 40
-42z"/>
<path d="M76600 63809 l-145 -7 -82 5 -83 6 0 -11 0 -10 107 -7 106 -8 101 7
c56 4 125 10 154 13 l52 6 0 8 0 9 -32 -2 c-18 -1 -98 -5 -178 -9z"/>
<path d="M41270 63574 c0 -9 233 -273 254 -286 26 -17 24 -6 -3 20 -16 15 -75
79 -131 142 -57 63 -107 119 -111 125 l-9 9 0 -10z"/>
<path d="M89663 63303 l-213 -217 9 -9 9 -9 214 217 c117 119 215 221 216 226
l4 9 -13 0 -13 0 -213 -217z"/>
<path d="M7033 63363 l7 -6 7 6 6 7 -13 0 -13 0 6 -7z"/>
<path d="M6633 63343 l-33 -4 0 -8 0 -8 176 -6 177 -5 21 7 21 8 -20 5 c-11 3
-54 6 -95 7 -41 1 -106 3 -145 5 -38 2 -85 2 -102 -1z"/>
<path d="M43090 63228 c-74 -65 -137 -124 -139 -130 -2 -7 45 30 104 82 59 52
124 109 144 127 20 17 34 33 31 36 -3 2 -66 -49 -140 -115z"/>
<path d="M6995 63298 l-18 -11 -156 5 -156 4 -35 -5 -35 -6 11 -7 11 -7 189
-3 189 -3 23 16 23 17 -14 5 -13 5 -19 -10z"/>
<path d="M37263 63285 l7 -8 200 -32 200 -31 0 6 c0 4 -82 19 -182 34 -101 15
-194 30 -208 33 l-25 6 8 -8z"/>
<path d="M50771 63064 c-57 -96 -101 -177 -99 -180 3 -2 51 75 108 171 56 97
100 178 98 181 -3 2 -51 -75 -107 -172z"/>
<path d="M41540 63152 c0 -12 19 -26 26 -19 2 2 -2 10 -11 17 l-15 12 0 -10z"/>
<path d="M40907 63104 l-6 -6 17 -27 c16 -26 82 -104 82 -97 0 11 -45 104 -58
119 -16 18 -25 21 -35 11z"/>
<path d="M13735 63080 l-30 -8 160 1 160 2 35 -8 35 -7 -30 14 -30 15 -135 -1
-135 0 -30 -8z"/>
<path d="M98640 63087 c0 -2 12 -31 26 -63 l26 -59 9 -98 c10 -100 32 -223 43
-234 14 -14 14 6 0 67 -8 36 -18 111 -24 167 l-9 102 -25 57 -24 58 -11 4 c-6
2 -11 2 -11 -1z"/>
<path d="M13385 63069 l-69 -9 -11 -11 -10 -12 30 7 c17 4 76 10 133 15 57 5
106 11 109 15 l6 6 -59 -1 c-32 -1 -90 -6 -129 -10z"/>
<path d="M38515 63067 c-10 -31 -96 -592 -93 -611 l3 -21 49 311 49 310 161
-22 c89 -13 184 -26 211 -29 l50 -7 -6 6 c-3 3 -86 17 -185 31 -98 14 -192 29
-207 34 l-28 10 -4 -12z"/>
<path d="M15077 63023 c-4 -3 -7 -19 -7 -34 l0 -28 10 -6 11 -7 -2 41 c-2 23
-4 41 -4 41 -1 0 -5 -3 -8 -7z"/>
<path d="M15030 62993 l0 -32 10 -6 10 -6 0 23 c0 13 -5 30 -10 38 l-10 15 0
-32z"/>
<path d="M49236 62814 c-58 -98 -103 -180 -100 -183 2 -2 6 -2 8 0 16 17 207
352 203 356 -3 2 -53 -75 -111 -173z"/>
<path d="M16945 62935 c-83 -7 -161 -15 -175 -18 l-25 -4 47 -2 c53 -1 390 28
397 35 7 6 -79 2 -244 -11z"/>
<path d="M16310 62933 l0 -8 153 -3 c83 -2 160 -6 170 -8 l17 -5 0 9 0 9 -97
6 c-54 4 -131 7 -170 7 l-73 0 0 -7z"/>
<path d="M57680 62894 c0 -7 8 -21 18 -32 l17 -21 249 -111 c137 -61 253 -109
258 -108 5 2 -106 55 -247 117 l-256 114 -19 26 -19 26 -1 -11z"/>
<path d="M16670 62800 l0 -90 10 0 10 0 0 90 0 90 -10 0 -10 0 0 -90z"/>
<path d="M59492 62856 l6 -8 221 -17 221 -17 0 7 0 6 -162 12 c-90 6 -192 14
-228 18 l-65 6 7 -7z"/>
<path d="M41013 62839 c3 -10 11 -35 18 -58 7 -23 18 -46 26 -53 l13 -11 6 6
6 6 -11 33 c-6 18 -23 47 -37 63 l-26 30 5 -16z"/>
<path d="M12853 62813 l7 -6 7 6 6 7 -13 0 -13 0 6 -7z"/>
<path d="M12530 62800 l-45 -8 165 6 c91 2 167 6 169 8 8 7 -243 1 -289 -6z"/>
<path d="M21800 62797 c9 -10 440 -156 440 -149 0 4 -93 38 -207 76 -115 38
-215 71 -223 74 l-15 5 5 -6z"/>
<path d="M89139 62721 c-68 -81 -199 -255 -199 -264 0 -4 6 -7 13 -7 l12 1 75
102 c41 56 99 129 127 163 l53 62 -13 5 -13 5 -55 -67z"/>
<path d="M42888 62528 c-128 -110 -235 -203 -237 -205 -2 -1 -2 -5 0 -8 5 -5
479 401 479 410 0 3 -2 5 -5 5 -2 0 -109 -91 -237 -202z"/>
<path d="M42175 62474 c-104 -90 -192 -169 -194 -175 -2 -7 68 49 155 124 229
195 240 205 234 210 -3 2 -90 -69 -195 -159z"/>
<path d="M29613 62462 l-121 -148 -16 -39 c-9 -21 -14 -40 -11 -43 3 -3 10 10
17 28 l11 34 86 105 c46 59 103 127 124 154 22 26 38 49 35 52 -2 3 -59 -62
-125 -143z"/>
<path d="M51325 62384 c-60 -92 -111 -170 -113 -175 l-4 -9 14 0 13 0 110 166
c61 92 112 170 113 175 l4 9 -14 0 -13 0 -110 -166z"/>
<path d="M89022 62421 c2 -5 81 -75 176 -156 l174 -146 11 4 11 3 -180 152
c-98 84 -183 152 -187 152 l-9 0 4 -9z"/>
<path d="M89015 62351 c17 -16 97 -86 179 -155 l149 -125 9 5 c5 3 8 7 6 9
-120 105 -352 295 -361 295 l-12 0 30 -29z"/>
<path d="M16480 62183 c-100 -196 -94 -183 -83 -183 l8 0 88 175 c48 96 84
175 79 175 -4 0 -45 -75 -92 -167z"/>
<path d="M44370 62327 c0 -5 279 -334 341 -401 l9 -10 0 10 c0 5 -68 88 -151
184 -163 190 -199 229 -199 217z"/>
<path d="M57527 62077 l-228 -182 -66 -140 c-78 -168 -136 -305 -130 -311 2
-2 17 26 32 63 16 38 63 140 106 229 l76 160 208 165 c115 90 216 169 224 176
9 6 14 14 11 16 -3 3 -108 -77 -233 -176z"/>
<path d="M40710 62173 c1 -10 7 -47 15 -83 8 -36 14 -80 15 -97 l0 -33 10 0
10 0 0 27 c0 14 -8 66 -17 115 l-17 88 -8 0 -8 0 0 -17z"/>
<path d="M40614 62134 c3 -8 15 -48 27 -87 11 -40 27 -80 34 -91 l14 -18 9 6
10 6 -18 35 c-10 19 -26 64 -35 100 l-18 65 -15 0 -14 0 6 -16z"/>
<path d="M37037 62039 l41 -19 173 -25 c95 -14 174 -23 177 -21 5 6 -22 11
-198 36 l-136 19 -36 16 c-21 8 -43 15 -50 14 l-13 -1 42 -19z"/>
<path d="M60591 61978 c-1 -16 55 -296 65 -327 2 -8 6 -12 9 -10 4 4 -60 322
-69 344 l-4 10 -1 -17z"/>
<path d="M62583 61947 l-53 -10 0 -10 0 -9 48 6 47 7 -11 -8 c-12 -9 -29 -38
-44 -77 l-10 -26 11 0 11 0 15 38 15 38 39 24 c21 14 39 28 39 32 l0 8 -27 -1
c-16 -1 -52 -6 -80 -12z"/>
<path d="M62570 61640 l-15 -10 18 0 17 0 0 10 c0 12 -1 12 -20 0z"/>
<path d="M59255 61623 c15 -14 366 -164 377 -161 8 3 -302 141 -368 164 l-19
7 10 -10z"/>
<path d="M62620 61623 c-1 -5 21 -108 47 -230 l48 -223 11 0 12 0 -19 83 c-10
45 -33 148 -51 230 l-33 147 -7 0 c-5 0 -8 -3 -8 -7z"/>
<path d="M60563 61557 c-4 -7 -33 -33 -63 -58 -30 -25 -133 -125 -229 -222
l-175 -177 15 0 14 0 185 184 c102 101 207 204 234 228 l49 45 -11 7 -11 6 -8
-13z"/>
<path d="M58165 61439 c-66 -21 -164 -49 -217 -61 -54 -12 -98 -25 -98 -29 l0
-7 102 24 c122 29 329 93 343 105 l9 9 -9 -1 c-6 0 -64 -18 -130 -40z"/>
<path d="M60697 61458 l-18 -10 -42 7 -42 6 19 -16 20 -15 30 0 31 1 18 13 18
14 -8 5 -8 5 -18 -10z"/>
<path d="M59587 61403 c-9 -27 -28 -100 -42 -163 l-26 -115 -9 -99 c-5 -54
-11 -101 -14 -103 -2 -3 -89 32 -192 76 -102 45 -189 79 -192 77 -3 -3 6 -10
19 -15 13 -5 103 -43 198 -85 l175 -76 10 4 11 4 -13 1 -13 1 9 18 9 17 6 80
5 80 36 152 c19 84 40 162 46 173 l11 20 -9 0 -8 0 -17 -47z"/>
<path d="M59637 61423 c-3 -10 -15 -50 -26 -89 -12 -39 -32 -126 -46 -194
l-25 -123 1 -51 2 -51 9 60 c20 134 50 285 74 368 14 49 24 91 21 93 -3 3 -8
-3 -10 -13z"/>
<path d="M60733 61365 c2 -11 26 -140 53 -287 l49 -268 7 0 6 0 -4 18 c-2 9
-24 130 -49 267 -25 138 -50 259 -55 270 l-11 20 4 -20z"/>
<path d="M9945 61249 l-7 -120 7 -105 7 -104 10 -6 10 -7 -8 24 -8 24 1 208
c1 114 0 207 -2 207 -1 0 -6 -54 -10 -121z"/>
<path d="M60292 61219 l-153 -151 3 -9 3 -9 158 151 c143 137 172 170 150 169
-5 0 -77 -68 -161 -151z"/>
<path d="M61202 61130 c3 -8 29 -127 59 -264 29 -137 55 -244 57 -237 2 6 -20
120 -48 254 l-52 242 -11 10 -10 10 5 -15z"/>
<path d="M43880 61000 c41 -38 78 -69 82 -70 3 0 131 -137 283 -305 152 -168
278 -305 281 -305 2 0 4 2 4 5 0 2 -115 131 -256 287 l-256 283 -100 88 c-54
48 -102 87 -106 87 -4 -1 27 -32 68 -70z"/>
<path d="M33800 61041 l0 -8 43 -7 c46 -7 181 -41 320 -80 l87 -25 0 8 0 8
-152 41 c-84 23 -175 47 -203 52 -27 6 -60 12 -72 15 l-23 5 0 -9z"/>
<path d="M58150 60894 c0 -7 53 -99 117 -205 132 -220 122 -204 127 -198 3 3
-131 231 -234 399 l-9 15 -1 -11z"/>
<path d="M86267 60418 c81 -90 166 -185 188 -213 58 -74 286 -315 298 -315 5
0 -37 48 -94 108 -57 59 -138 148 -179 197 -103 124 -342 385 -353 385 -5 0
58 -73 140 -162z"/>
<path d="M48276 60548 c28 -32 305 -250 310 -245 3 3 -55 52 -128 110 -73 57
-144 117 -157 131 -14 14 -29 26 -34 26 l-10 0 19 -22z"/>
<path d="M78010 60520 l0 -13 7 6 6 7 -6 7 -7 6 0 -13z"/>
<path d="M57234 60368 c4 -13 16 -56 26 -97 l20 -74 0 -56 0 -56 -16 -83 -17
-83 11 -11 10 -10 11 54 c6 29 15 88 20 131 l9 78 -23 94 c-23 90 -40 135 -52
135 l-5 0 6 -22z"/>
<path d="M50773 60363 l8 -8 302 -17 c166 -9 362 -17 435 -17 l132 -1 0 10 0
10 -192 0 c-174 0 -364 8 -608 25 l-85 6 8 -8z"/>
<path d="M58636 60229 c-59 -14 -57 -20 5 -13 l54 6 62 -119 c34 -65 103 -210
153 -323 51 -113 97 -211 102 -217 l10 -13 -12 0 -13 0 6 -6 5 -6 21 7 c25 8
356 255 341 255 -5 0 -82 -54 -170 -120 -89 -66 -164 -120 -168 -120 -4 0 -43
80 -87 178 -43 97 -117 250 -163 340 l-84 162 -11 -1 c-7 -1 -30 -5 -51 -10z"/>
<path d="M58642 60190 c-18 -4 -36 -10 -39 -14 l-6 -6 38 3 37 2 34 -60 c53
-95 264 -558 374 -823 23 -56 44 -101 47 -99 5 6 -128 327 -229 552 -78 173
-215 456 -221 454 -1 -1 -17 -5 -35 -9z"/>
<path d="M46095 59958 l-220 -222 160 151 c198 187 303 293 290 293 -6 0 -109
-100 -230 -222z"/>
<path d="M61868 60175 c-4 -4 -419 -90 -810 -167 l-58 -12 0 -8 c0 -11 -7 -12
225 37 295 64 648 135 650 132 1 -1 34 -161 74 -355 l73 -353 -5 -12 -5 -12
-211 -44 c-116 -25 -212 -43 -214 -40 -2 2 -34 157 -71 344 -37 187 -71 349
-77 360 l-9 20 4 -25 c3 -14 35 -177 72 -363 37 -185 65 -339 62 -342 -2 -2
-94 -23 -204 -46 l-199 -41 -10 -10 -10 -10 20 5 c24 7 402 87 410 87 3 0 5
-6 5 -14 l0 -13 -97 -21 c-54 -11 -149 -31 -210 -43 -62 -13 -113 -27 -113
-30 l0 -7 188 40 c103 21 198 41 212 44 l25 6 70 -353 70 -353 3 19 c1 11 -27
166 -63 345 -36 178 -65 329 -65 335 l0 10 208 43 c203 42 232 46 232 38 0 -3
22 -101 49 -218 27 -117 60 -270 73 -340 l23 -128 8 0 8 0 -5 18 c-3 9 -19 90
-36 179 -17 90 -48 238 -70 330 -21 92 -37 169 -35 172 2 2 10 1 18 -2 l14 -5
16 -79 c46 -219 126 -617 124 -618 -1 -1 -99 -21 -217 -44 -231 -46 -692 -159
-700 -172 l-6 -8 -414 -86 c-429 -88 -454 -94 -448 -101 3 -2 189 35 414 81
225 47 415 84 424 82 l15 -3 10 12 10 13 216 56 c120 30 318 76 440 100 123
25 232 48 242 51 l17 5 0 -16 0 -17 -17 6 -16 7 -6 -10 -6 -9 -185 -37 c-102
-20 -284 -61 -405 -92 -121 -30 -230 -56 -242 -56 -22 -2 -33 -17 -13 -17 6 0
117 27 248 59 244 61 600 136 608 128 3 -2 36 -170 75 -373 38 -203 72 -375
75 -383 18 -53 3 42 -62 379 -40 212 -74 386 -74 388 0 1 6 2 13 2 l13 0 17
-87 c68 -362 133 -683 138 -683 3 0 -5 55 -18 123 -13 67 -35 185 -49 262 -14
77 -35 195 -48 262 l-23 123 16 4 c9 3 193 41 410 86 217 44 397 82 399 85 3
3 3 7 1 9 -2 2 -188 -34 -413 -80 l-410 -84 -10 10 -9 9 14 5 c12 5 817 166
826 166 2 0 2 4 -1 9 l-6 9 -207 -43 c-115 -24 -299 -63 -411 -86 -111 -23
-204 -40 -207 -37 -3 3 -32 137 -65 299 -33 162 -66 318 -72 347 l-11 52 6 6
c3 3 188 43 411 87 223 45 406 85 406 88 0 5 -716 -134 -802 -156 l-28 -7 0
15 0 16 73 15 c247 54 364 78 545 112 l202 38 0 8 0 7 -12 -4 c-7 -2 -101 -20
-208 -41 -107 -20 -287 -56 -400 -80 -112 -23 -205 -42 -207 -41 -1 2 -18 79
-38 172 l-37 170 -10 10 -10 10 6 -20 c3 -11 21 -92 40 -180 l35 -160 -9 -9
-10 -10 -6 7 c-9 9 -155 707 -151 726 l2 14 -11 4 c-5 2 -13 1 -16 -2z m210
-767 l-5 -13 -13 0 -13 0 -4 13 -5 12 22 0 22 0 -4 -12z m-50 -10 l-5 -13
-199 -42 c-109 -23 -207 -42 -216 -43 l-18 0 0 13 0 12 193 41 c105 23 205 42
220 43 l29 1 -4 -12z"/>
<path d="M43585 60010 l-7 -11 104 -116 c57 -64 123 -140 148 -169 l45 -53 15
2 15 2 0 13 0 13 -145 164 -144 165 -13 0 c-6 0 -15 -5 -18 -10z"/>
<path d="M93000 59959 c8 -5 54 -30 101 -54 l87 -44 66 -50 c36 -28 66 -46 66
-42 0 17 -107 90 -211 145 -58 31 -110 56 -115 56 l-9 0 15 -11z"/>
<path d="M43542 59888 l-24 -28 10 0 c13 0 45 37 41 48 l-4 9 -23 -29z"/>
<path d="M41050 59818 c-1 -18 -14 -95 -29 -171 l-28 -138 11 4 10 3 28 135
c15 74 27 149 28 167 l0 32 -10 0 -10 0 0 -32z"/>
<path d="M63620 59823 c0 -6 68 -334 151 -729 82 -396 226 -1090 319 -1544
190 -924 179 -874 186 -868 8 8 -639 3134 -651 3146 -3 3 -5 1 -5 -5z"/>
<path d="M40560 59815 c0 -3 74 -54 165 -115 91 -61 165 -106 165 -102 0 8
-313 222 -325 222 -3 0 -5 -2 -5 -5z"/>
<path d="M62990 59777 c0 -7 41 -212 90 -457 50 -245 117 -578 150 -740 121
-600 131 -642 144 -629 3 2 -29 166 -70 364 -41 198 -86 423 -99 500 -14 77
-43 226 -65 330 -22 105 -62 292 -88 417 l-47 228 -7 0 c-5 0 -8 -6 -8 -13z"/>
<path d="M60125 59377 c-522 -105 -952 -192 -954 -194 -2 -1 -2 -5 0 -6 2 -2
435 83 963 188 l958 192 -8 5 -9 5 -950 -190z"/>
<path d="M47130 59496 c0 -3 -11 -55 -25 -118 l-24 -113 -36 -89 c-41 -104
-39 -96 -21 -96 l14 0 36 90 36 90 25 116 c30 137 29 124 10 124 -8 0 -15 -2
-15 -4z"/>
<path d="M49266 59054 c-181 -240 -324 -435 -318 -433 15 5 665 869 654 869
-4 0 -156 -196 -336 -436z"/>
<path d="M49462 59248 c-89 -117 -159 -214 -156 -217 2 -2 5 -2 7 0 104 132
318 422 314 425 -3 3 -77 -91 -165 -208z"/>
<path d="M46982 59410 l-12 -20 0 -27 0 -27 9 10 c8 9 25 84 19 84 -2 0 -9 -9
-16 -20z"/>
<path d="M59857 59365 c-114 -23 -211 -46 -215 -50 l-7 -8 25 6 c14 3 120 24
235 47 116 23 212 44 214 46 11 10 -60 -1 -252 -41z"/>
<path d="M59140 59184 c0 -5 16 -61 35 -124 20 -63 47 -152 61 -198 14 -46 28
-81 31 -79 4 5 -113 397 -122 406 -3 2 -5 0 -5 -5z"/>
<path d="M83800 59155 c0 -4 82 -164 182 -354 100 -190 193 -373 205 -406 l24
-60 -6 34 -5 34 -41 81 c-53 103 -351 670 -355 675 -2 2 -4 1 -4 -4z"/>
<path d="M50070 59103 c0 -7 179 -161 288 -247 l25 -20 -4 11 c-2 6 -49 48
-104 94 -55 45 -124 103 -152 127 -29 25 -53 40 -53 35z"/>
<path d="M63900 58658 c32 -156 158 -760 279 -1343 122 -583 221 -1063 221
-1068 l0 -9 14 5 14 5 21 -14 21 -15 0 -33 0 -33 -18 -16 -19 -17 -29 0 -30 0
-10 10 -10 10 -262 -52 c-144 -29 -262 -55 -262 -59 0 -3 116 17 258 46 l259
51 20 -13 20 -13 31 6 31 6 21 23 22 24 -9 38 -9 38 -29 15 c-17 8 -31 15 -32
16 -4 1 -454 2172 -502 2424 -48 243 -49 250 -60 250 l-9 0 58 -282z"/>
<path d="M75501 58851 l-45 -86 -2 -145 -2 -145 9 145 10 145 45 82 44 82 -7
4 -8 5 -44 -87z"/>
<path d="M38054 58890 c-49 -3 -96 -10 -102 -14 l-12 -7 2 -122 1 -122 10 121
10 122 51 6 c28 3 76 6 106 6 l55 0 15 10 15 10 -30 -2 c-16 0 -71 -4 -121 -8z"/>
<path d="M39110 58897 c3 -3 37 -11 75 -17 l70 -11 145 -49 144 -50 -10 10
c-5 5 -75 32 -155 60 l-145 50 -64 6 -65 7 5 -6z"/>
<path d="M50403 58873 c10 -16 318 -246 322 -241 5 5 -297 238 -318 247 l-10
4 6 -10z"/>
<path d="M61250 58821 c0 -19 69 -333 75 -339 9 -9 6 9 -30 177 -32 149 -45
196 -45 162z"/>
<path d="M40651 58590 l-54 -149 -23 -35 -24 -35 9 -6 9 -5 22 30 c12 17 34
65 50 108 16 42 42 114 59 160 l30 82 -12 0 -12 0 -54 -150z"/>
<path d="M39990 58644 c0 -4 23 -30 52 -58 l51 -50 33 -71 32 -70 7 -47 7 -48
10 0 9 0 -5 18 c-3 9 -8 35 -12 57 -15 86 -76 190 -145 245 -22 17 -39 28 -39
24z"/>
<path d="M55061 58546 c5 -5 390 -116 403 -116 25 0 -15 14 -191 65 -175 50
-223 62 -212 51z"/>
<path d="M48976 58238 c-91 -122 -166 -226 -166 -232 0 -12 -18 -35 179 227
94 125 167 227 162 227 -4 0 -83 -100 -175 -222z"/>
<path d="M51083 58403 l5 -48 -25 -258 -25 -257 6 -35 7 -35 13 0 14 0 -9 38
-8 37 24 234 c32 297 32 371 3 371 l-10 0 5 -47z"/>
<path d="M59986 58361 c13 -12 364 -141 383 -141 13 1 -373 149 -388 150 -3 0
-1 -4 5 -9z"/>
<path d="M55905 58353 c12 -12 406 -116 412 -109 5 5 -46 20 -242 71 -77 20
-149 39 -160 42 l-20 5 10 -9z"/>
<path d="M49370 58150 c-52 -65 -96 -124 -99 -132 l-3 -13 9 10 c9 10 177 217
196 243 l9 12 -8 -1 c-5 0 -52 -54 -104 -119z"/>
<path d="M91816 58140 c21 -21 339 -238 343 -234 2 2 2 6 0 7 -23 20 -340 237
-346 237 l-7 0 10 -10z"/>
<path d="M63021 58010 c-161 -35 -219 -50 -184 -50 18 0 397 81 402 85 10 10
-41 2 -218 -35z"/>
<path d="M63260 58020 c0 -16 92 -465 96 -469 2 -2 7 -2 10 1 l5 6 -47 236
-47 236 -8 0 c-5 0 -9 -4 -9 -10z"/>
<path d="M49251 57968 c23 -59 44 -90 91 -135 l34 -33 83 -40 c46 -22 86 -38
89 -35 3 2 -33 22 -79 44 l-84 39 -48 51 -48 52 -25 54 c-30 70 -40 72 -13 3z"/>
<path d="M63027 57970 c-98 -21 -181 -41 -184 -44 l-6 -6 6 0 c11 0 391 80
402 84 34 14 -65 -1 -218 -34z"/>
<path d="M75440 57787 l0 -222 50 -70 51 -69 77 -35 77 -35 65 2 c36 1 81 6
100 12 l35 9 -65 -6 c-36 -4 -80 -6 -99 -5 l-33 2 -75 33 -75 32 -50 74 -50
74 7 213 7 214 -11 0 -11 0 0 -223z"/>
<path d="M50442 57854 c3 -3 107 -34 229 -68 123 -35 235 -66 249 -71 l25 -7
-10 10 -10 10 -237 66 c-131 36 -240 66 -244 66 l-7 0 5 -6z"/>
<path d="M62050 57764 c-162 -35 -358 -76 -434 -92 l-140 -29 10 -5 9 -5 432
91 c237 50 435 95 439 99 l7 7 -14 -1 c-8 -1 -147 -30 -309 -65z"/>
<path d="M55248 57720 c-218 -26 -403 -50 -410 -53 l-13 -5 18 -1 c28 -1 861
99 866 104 9 10 -74 2 -461 -45z"/>
<path d="M75500 57554 c0 -5 14 -29 31 -53 l31 -42 69 -34 69 -35 31 0 c18 0
61 5 96 11 l63 11 0 10 0 10 -15 -5 c-8 -4 -48 -9 -89 -13 l-74 -7 -71 33
c-39 18 -71 36 -71 39 0 3 -16 24 -35 46 l-34 40 -1 -11z"/>
<path d="M49940 57537 c0 -16 405 -155 417 -143 3 2 -42 19 -99 36 -56 17
-143 46 -193 65 -126 48 -125 48 -125 42z"/>
<path d="M63460 57484 c0 -3 20 -104 45 -224 25 -120 45 -222 45 -226 l0 -8
10 10 10 10 -45 214 c-25 118 -45 218 -45 223 0 4 -4 7 -10 7 -5 0 -10 -3 -10
-6z"/>
<path d="M25210 57293 c0 -7 14 -36 31 -65 l31 -53 86 -80 c47 -44 104 -94
126 -110 66 -49 477 -308 481 -303 3 3 -104 74 -236 159 l-241 154 -105 96
-105 96 -33 59 c-19 32 -35 54 -35 47z"/>
<path d="M53030 57245 l0 -15 15 0 c8 0 206 -97 439 -215 l425 -215 6 10 c4 6
5 13 4 15 -9 8 -872 435 -880 435 l-9 0 0 -15z"/>
<path d="M37569 57008 l-62 -53 -53 -150 c-29 -82 -53 -159 -53 -170 l0 -20
55 160 55 160 67 62 c82 76 75 83 -9 11z"/>
<path d="M47675 56974 l-310 -43 -50 -15 -51 -16 -34 -35 c-41 -42 -31 -46 16
-6 l33 30 53 16 53 15 333 46 334 45 14 -5 14 -5 0 9 0 10 -47 -1 c-27 -1
-187 -21 -358 -45z"/>
<path d="M36294 56779 c-77 -73 -140 -136 -142 -140 -10 -25 27 5 158 131
l145 140 -11 0 c-7 0 -74 -59 -150 -131z"/>
<path d="M46550 56888 c0 -26 61 -443 66 -447 2 -3 9 0 15 6 l11 11 -21 143
c-24 159 -49 279 -62 294 l-9 9 0 -16z"/>
<path d="M83390 56710 c-102 -25 -198 -50 -214 -54 -15 -4 -26 -9 -23 -12 4
-4 417 95 426 103 16 12 -26 4 -189 -37z"/>
<path d="M82478 56476 c-108 -28 -200 -55 -205 -60 l-8 -8 20 5 c11 3 110 29
220 57 110 29 202 54 204 56 11 11 -51 -2 -231 -50z"/>
<path d="M82744 56285 c28 -118 54 -215 58 -215 l6 0 -12 53 c-7 28 -30 125
-51 215 -21 89 -41 162 -45 162 -4 0 16 -97 44 -215z"/>
<path d="M74471 56383 c13 -21 72 -99 132 -173 l108 -135 -25 -22 c-14 -12
-34 -26 -43 -32 l-18 -9 6 -6 6 -6 41 30 42 30 0 14 0 14 -116 144 c-64 78
-121 153 -127 166 -6 12 -14 22 -19 22 l-10 0 23 -37z"/>
<path d="M56961 56378 c168 -154 301 -270 304 -266 6 6 -312 292 -328 296 -7
2 4 -12 24 -30z"/>
<path d="M26292 56205 c-97 -167 -111 -195 -94 -195 6 1 201 334 210 360 l4
10 -9 0 c-5 0 -55 -79 -111 -175z"/>
<path d="M37782 56298 l-22 -83 -41 -345 -42 -345 -20 -22 -20 -23 10 0 c5 0
17 8 26 18 l15 17 46 365 45 365 20 68 20 67 -7 0 c-4 0 -17 -37 -30 -82z"/>
<path d="M44181 56255 l-1 -30 183 -162 c100 -89 201 -176 225 -193 23 -16 42
-31 42 -33 0 -2 -121 -113 -270 -247 -148 -134 -267 -246 -265 -249 3 -2 18 7
33 21 15 14 137 125 271 247 l245 221 9 -9 10 -10 -79 -74 c-43 -40 -100 -93
-126 -116 -27 -24 -48 -48 -48 -53 0 -6 50 36 110 93 61 57 122 113 135 123
l24 19 24 -16 c13 -9 179 -138 368 -288 347 -275 696 -569 706 -596 l6 -15
-22 -219 c-12 -121 -31 -270 -41 -331 -11 -61 -17 -114 -15 -116 12 -12 40
172 69 448 l23 215 -8 21 -8 22 -178 154 c-158 138 -755 618 -869 700 -24 17
-44 35 -44 40 0 4 -7 8 -15 8 l-15 0 0 16 0 15 -10 -6 -10 -6 -52 39 c-29 22
-127 106 -218 187 l-165 147 -12 32 -11 31 -1 -30z"/>
<path d="M64073 56157 c-139 -28 -253 -54 -253 -58 0 -7 518 95 527 105 l6 6
-14 -1 c-8 -1 -128 -24 -266 -52z"/>
<path d="M78890 56179 l-35 -30 -39 -10 -40 -11 -45 7 -46 7 -33 19 c-39 23
-42 23 -42 6 l0 -13 33 -19 32 -20 87 0 86 0 44 30 43 31 3 17 3 17 -8 0 c-4
-1 -24 -14 -43 -31z"/>
<path d="M63691 56141 l-13 -8 12 -8 c13 -8 24 -1 19 14 l-4 10 -14 -8z"/>
<path d="M57625 55840 c185 -165 338 -300 340 -300 3 0 5 2 5 5 0 8 -662 595
-671 595 -5 0 142 -135 326 -300z"/>
<path d="M63777 56005 l-18 -25 -24 -6 -25 -6 0 -10 0 -10 28 7 27 6 23 21
c21 21 30 48 15 48 -5 0 -16 -12 -26 -25z"/>
<path d="M25510 55924 c1 -11 360 -237 366 -231 3 3 -68 51 -158 107 -90 57
-173 110 -185 118 l-23 14 0 -8z"/>
<path d="M63020 55900 l0 -20 9 0 9 0 -5 20 c-3 11 -7 20 -9 20 -2 0 -4 -9 -4
-20z"/>
<path d="M44690 55853 c0 -5 27 -28 61 -52 34 -24 106 -81 161 -127 56 -46
105 -84 110 -84 9 0 -161 147 -222 191 -19 14 -52 38 -72 53 l-38 28 0 -9z"/>
<path d="M57615 55792 c64 -63 317 -283 321 -279 6 5 -311 290 -329 296 l-12
3 20 -20z"/>
<path d="M36073 55647 c-28 -72 -54 -144 -57 -159 l-6 -28 6 -24 6 -25 214
-193 214 -193 33 -14 32 -13 146 9 146 10 67 31 c75 35 91 52 19 21 -78 -34
-102 -39 -239 -49 l-132 -10 -33 14 -34 15 -200 180 c-110 100 -207 192 -216
206 l-16 26 8 42 c4 23 30 97 58 165 27 67 46 122 43 122 -4 0 -30 -60 -59
-133z"/>
<path d="M62210 55693 c-146 -30 -267 -57 -269 -59 -2 -2 -2 -7 2 -10 l5 -6
224 46 c123 25 247 50 276 56 l52 12 -6 9 c-7 11 26 17 -284 -48z"/>
<path d="M25955 55616 l-8 -19 17 -31 17 -31 240 -165 c132 -91 244 -166 250
-168 l9 -4 0 20 0 19 21 27 20 26 -9 0 c-12 0 -37 -30 -45 -53 l-7 -18 -62 44
c-35 25 -139 97 -232 161 -93 64 -175 124 -182 134 -7 10 -14 31 -16 47 l-4
30 -9 -19z"/>
<path d="M61873 55515 c4 -22 19 -118 34 -212 l27 -173 8 0 8 0 -5 23 c-3 12
-18 105 -34 205 -16 101 -33 187 -37 190 l-7 7 6 -40z"/>
<path d="M26590 55246 c0 -9 74 -75 84 -76 l9 0 -19 21 c-22 25 -74 63 -74 55z"/>
<path d="M93001 55236 c2 -2 60 -27 129 -54 69 -28 160 -67 203 -87 44 -20 81
-35 83 -33 8 8 -383 178 -409 178 -6 0 -8 -2 -6 -4z"/>
<path d="M48270 55224 c0 -6 18 -44 41 -85 22 -41 56 -107 75 -148 l34 -74 6
5 5 6 -54 108 c-67 133 -107 203 -107 188z"/>
<path d="M50926 55192 c-3 -5 -8 -29 -11 -53 l-5 -44 14 50 c14 48 15 67 2 47z"/>
<path d="M77162 55038 c69 -106 150 -244 173 -296 l28 -63 9 9 9 9 -22 49
c-13 27 -59 109 -103 182 l-80 132 -14 0 -14 0 14 -22z"/>
<path d="M51910 55031 l0 -11 148 0 148 0 47 -30 c56 -35 63 -26 9 11 l-37 26
-157 8 -158 7 0 -11z"/>
<path d="M52125 54742 l-140 -216 -137 -175 c-75 -97 -135 -178 -132 -180 2
-2 6 -2 7 0 2 2 62 78 133 169 l130 165 133 205 c74 113 141 215 149 228 l14
22 -8 0 c-5 -1 -72 -98 -149 -218z"/>
<path d="M53202 54904 c-56 -96 -235 -364 -242 -364 -4 0 -138 88 -298 195
-161 107 -296 195 -302 195 l-11 0 6 -10 c3 -5 11 -10 16 -10 6 0 137 -86 292
-191 l282 -190 -1 -13 c-1 -8 -77 -128 -169 -267 -93 -140 -193 -292 -223
-339 -30 -47 -91 -132 -134 -189 -44 -57 -77 -105 -75 -107 13 -13 129 143
278 376 100 157 326 499 340 514 l8 9 25 -17 c38 -24 45 -19 11 8 l-29 24 104
160 c58 88 119 183 137 211 l32 51 -10 0 c-5 0 -22 -21 -37 -46z"/>
<path d="M53286 54930 c3 -14 7 -34 7 -45 l1 -20 -145 -220 c-80 -121 -248
-375 -373 -564 l-227 -344 -33 -66 c-18 -36 -41 -89 -50 -118 l-17 -51 36 -73
37 -72 -14 -8 -13 -9 18 0 19 0 -5 -12 -4 -13 13 -10 c8 -5 67 -122 132 -260
l119 -250 -24 -13 c-14 -8 -23 -16 -20 -19 3 -2 15 1 27 7 12 6 23 10 24 8 2
-2 8 -12 15 -23 l11 -20 -6 27 -6 28 73 33 c41 19 220 110 399 204 l325 171
43 13 42 12 0 8 0 9 -57 -21 c-32 -12 -230 -112 -441 -222 l-383 -200 -9 9
c-11 11 -240 491 -240 503 l0 9 83 45 c45 24 131 70 190 102 60 31 106 59 104
61 -3 3 -85 -38 -183 -90 -99 -52 -187 -98 -196 -101 l-18 -7 0 13 0 14 118
63 c193 103 264 143 260 148 -3 2 -87 -41 -189 -96 -101 -55 -188 -100 -194
-100 l-10 0 -32 70 -31 70 8 5 c4 3 11 21 14 40 l7 35 41 78 c22 42 140 229
262 414 l221 338 15 -3 c8 -2 120 -72 249 -156 128 -84 235 -150 237 -148 3 3
-362 246 -484 323 -2 1 63 101 143 222 l146 221 -21 38 -21 38 7 -25z"/>
<path d="M47111 54887 c-6 -16 -11 -37 -11 -48 l0 -19 14 0 14 0 5 33 5 32 -8
15 -9 15 -10 -28z"/>
<path d="M52245 54732 c-60 -92 -183 -265 -273 -385 -90 -121 -166 -225 -169
-233 l-5 -14 6 0 c22 0 568 781 555 794 -2 2 -53 -71 -114 -162z"/>
<path d="M48945 54549 c-252 -137 -251 -136 -244 -144 7 -6 499 257 499 267 0
4 -3 8 -7 7 -5 -1 -116 -59 -248 -130z"/>
<path d="M81397 54593 c-120 -31 -216 -57 -214 -60 6 -6 420 98 432 108 5 5 7
9 5 8 -3 0 -103 -26 -223 -56z"/>
<path d="M49573 54508 c-117 -56 -213 -106 -213 -110 0 -6 427 196 439 208 16
16 -40 -8 -226 -98z"/>
<path d="M64060 54585 c0 -20 90 -438 95 -444 3 -2 8 -2 11 2 l6 6 -48 225
-48 226 -8 0 c-4 0 -8 -7 -8 -15z"/>
<path d="M81167 54496 c-229 -57 -420 -106 -425 -111 l-7 -7 20 5 c11 3 209
51 440 107 456 110 452 109 415 108 -14 0 -213 -46 -443 -102z"/>
<path d="M50190 54573 c0 -12 38 -48 45 -41 3 2 -6 15 -20 28 l-25 23 0 -10z"/>
<path d="M17338 54542 l-208 -26 0 -7 0 -7 18 3 c9 2 100 14 202 25 102 12
196 25 210 30 l25 8 -20 0 c-11 0 -113 -12 -227 -26z"/>
<path d="M45021 54404 l214 -166 45 -23 45 -22 64 -12 63 -12 134 7 134 7 0 8
0 8 -32 -4 c-18 -2 -77 -7 -131 -9 l-98 -6 -71 15 -71 15 -51 30 c-28 16 -138
97 -245 180 -107 82 -198 150 -204 150 -5 0 87 -75 204 -166z"/>
<path d="M53615 54304 c-58 -86 -104 -158 -101 -161 2 -3 33 37 67 89 35 51
84 123 111 161 l48 67 -9 0 c-5 0 -57 -70 -116 -156z"/>
<path d="M88022 54380 l-32 -20 -10 -26 c-6 -14 -10 -38 -10 -54 l0 -28 -52
-33 c-103 -65 -338 -232 -338 -241 0 -15 10 -9 108 61 53 37 139 96 190 130
l92 62 10 -6 9 -6 11 20 10 20 -10 6 -10 6 0 25 0 25 25 24 24 25 39 0 38 0
11 -11 11 -11 13 4 14 5 -25 15 c-14 9 -38 19 -55 22 l-30 6 -33 -20z"/>
<path d="M51440 54365 l-12 -15 10 0 c12 0 26 19 19 26 -2 2 -10 -2 -17 -11z"/>
<path d="M51493 54373 c11 -18 198 -166 203 -161 4 5 -160 141 -195 163 l-14
8 6 -10z"/>
<path d="M33396 54232 c13 -12 135 -44 142 -37 3 3 3 8 0 11 -8 8 -109 34
-132 34 l-20 0 10 -8z"/>
<path d="M22649 54038 c-78 -84 -199 -210 -268 -280 l-124 -127 -64 -17 -63
-17 0 -8 0 -7 68 20 67 20 63 61 c111 108 484 507 474 507 -5 0 -74 -69 -153
-152z"/>
<path d="M54844 53969 l-49 -164 -20 -17 c-11 -9 -33 -29 -50 -43 l-30 -27 31
17 c17 10 40 25 52 34 l22 16 50 165 c28 90 49 168 47 174 -2 5 -25 -64 -53
-155z"/>
<path d="M33448 54066 c-9 -6 -23 -29 -32 -50 l-16 -38 6 -9 5 -9 9 5 c4 3 11
17 15 32 3 16 15 38 26 49 l21 22 -9 5 -8 5 -17 -12z"/>
<path d="M21060 53963 c-8 -3 -72 -28 -142 -55 l-128 -51 0 -8 0 -9 38 16 c20
9 78 32 127 52 l90 35 50 1 c28 0 62 -3 78 -7 l27 -7 0 9 0 9 -47 6 c-27 4
-55 9 -63 11 -8 2 -22 1 -30 -2z"/>
<path d="M31245 53913 c-4 -21 -45 -127 -91 -237 -46 -109 -82 -201 -79 -204
2 -3 9 6 14 19 5 13 43 105 85 203 l76 180 6 38 c8 49 -2 50 -11 1z"/>
<path d="M50740 53901 c0 -5 7 -12 16 -15 l17 -6 -13 15 c-14 17 -20 19 -20 6z"/>
<path d="M72385 53769 l-155 -141 6 -9 5 -9 148 135 c82 74 154 142 161 150
l12 15 -10 0 c-6 0 -81 -63 -167 -141z"/>
<path d="M49921 53783 c-117 -59 -208 -109 -203 -111 5 -1 96 42 203 96 107
55 201 102 209 104 l15 5 -6 7 -6 6 -212 -107z"/>
<path d="M13470 53874 c1 -5 161 -138 357 -296 l356 -287 9 5 c5 3 8 7 6 9
-125 104 -705 568 -714 572 l-14 5 0 -8z"/>
<path d="M32616 53739 c-92 -78 -165 -144 -162 -146 3 -3 78 57 168 133 90 76
165 139 167 141 2 2 2 5 0 8 -3 2 -81 -59 -173 -136z"/>
<path d="M49534 53855 c23 -64 200 -464 204 -460 6 5 -187 455 -201 470 l-10
10 7 -20z"/>
<path d="M51410 53861 c0 -5 96 -88 213 -184 l213 -175 41 -46 40 -46 6 7 6 6
-37 45 -37 45 -210 172 c-115 94 -216 175 -222 179 l-13 7 0 -10z"/>
<path d="M50813 53843 l7 -6 7 6 6 7 -13 0 -13 0 6 -7z"/>
<path d="M13437 53834 l-5 -6 170 -140 c94 -77 177 -142 184 -145 l14 -5 0 8
c-1 8 -315 269 -345 286 l-12 7 -6 -5z"/>
<path d="M50655 53644 c-137 -68 -254 -126 -260 -128 -5 -2 -8 -5 -5 -8 3 -3
127 55 275 128 149 73 263 132 255 132 -8 0 -127 -55 -265 -124z"/>
<path d="M84034 53713 l-17 -57 7 -75 c9 -105 51 -299 62 -288 3 3 -2 33 -12
68 -9 35 -22 105 -29 154 l-12 90 7 60 c4 33 11 70 15 83 l7 22 -6 0 c-3 0
-13 -26 -22 -57z"/>
<path d="M51740 53708 l0 -13 93 -74 92 -74 97 -111 c54 -61 111 -133 128
-159 l30 -47 10 0 c5 0 10 2 10 5 0 15 -80 122 -163 215 l-92 106 -55 44 c-30
25 -76 62 -102 83 l-48 39 0 -14z"/>
<path d="M86981 53487 l-195 -142 -4 -14 -4 -13 14 8 c8 5 101 71 206 148 169
122 212 158 185 155 -5 0 -95 -64 -202 -142z"/>
<path d="M49801 53533 c24 -46 47 -83 51 -83 10 0 -60 130 -80 150 l-15 15 44
-82z"/>
<path d="M30203 53485 c0 -60 3 -175 7 -255 l6 -145 1 205 1 205 -8 50 -7 50
0 -110z"/>
<path d="M54201 53488 c-89 -43 -161 -81 -159 -84 6 -5 338 153 338 161 0 10
-16 3 -179 -77z"/>
<path d="M51940 53460 c0 -13 11 -13 30 0 l15 10 -22 0 -23 0 0 -10z"/>
<path d="M51143 53357 c-101 -50 -183 -94 -183 -97 0 -4 83 36 185 87 102 52
185 96 185 98 0 7 14 13 -187 -88z"/>
<path d="M52448 53266 l-17 -24 -91 -7 -90 -7 0 -7 0 -7 92 9 93 9 13 10 c7 6
18 20 23 30 l10 18 -8 0 c-4 0 -16 -11 -25 -24z"/>
<path d="M37185 53189 c-6 -19 -65 -348 -65 -367 0 -8 2 -13 5 -10 7 7 75 381
70 386 -3 3 -7 -1 -10 -9z"/>
<path d="M48118 53183 c6 -2 18 -2 25 0 l12 5 -25 0 -25 0 13 -5z"/>
<path d="M64298 53173 c6 -2 18 -2 25 0 l12 5 -25 0 -25 0 13 -5z"/>
<path d="M56078 53162 c-10 -2 -18 -7 -18 -10 l0 -7 192 3 192 3 12 7 13 7
-187 0 c-103 0 -195 -1 -204 -3z"/>
<path d="M34910 53130 c-30 -11 -64 -19 -75 -20 -11 0 -27 -4 -35 -10 l-14 -9
6 -6 6 -6 68 16 c38 8 81 20 96 26 l28 11 -6 9 c-6 11 -7 11 -74 -11z"/>
<path d="M49342 53086 c6 -14 15 -26 20 -26 l9 0 -11 19 c-5 11 -15 23 -20 26
l-10 6 12 -25z"/>
<path d="M30252 53001 l-2 -94 -56 -69 c-30 -37 -61 -83 -69 -101 l-13 -32
-17 -144 -17 -145 13 -143 12 -143 7 0 6 0 -12 133 -13 132 16 150 16 150 23
45 c13 25 44 70 69 101 l46 56 -4 99 -3 99 -2 -94z"/>
<path d="M66255 52989 c-231 -48 -435 -90 -454 -94 -18 -3 -31 -9 -28 -11 5
-5 897 175 906 183 16 12 -50 0 -424 -78z"/>
<path d="M14560 53006 c0 -8 112 -90 170 -126 149 -90 623 -310 638 -295 8 8
9 7 -183 90 -243 104 -453 217 -564 301 -40 31 -61 41 -61 30z"/>
<path d="M65538 52880 c-120 -25 -221 -50 -225 -54 l-8 -8 20 5 c11 3 112 25
225 48 113 23 207 44 209 46 15 12 -29 4 -221 -37z"/>
<path d="M50782 52728 c92 -150 87 -143 92 -137 6 6 -152 263 -164 267 -5 2
27 -56 72 -130z"/>
<path d="M77750 52781 c-96 -37 -184 -71 -194 -75 l-19 -7 9 -9 10 -10 124 49
c69 26 158 60 198 75 l72 28 0 9 0 9 -12 -1 c-7 0 -92 -31 -188 -68z"/>
<path d="M49459 52798 l-12 -23 19 16 c10 10 28 19 39 22 l20 5 -27 1 -27 1
-12 -22z"/>
<path d="M31229 52608 c-276 -248 -400 -353 -435 -371 l-31 -16 -76 -7 -77 -7
0 -6 0 -7 86 8 86 9 18 9 c22 12 256 212 474 405 135 121 169 155 152 155 -2
0 -91 -78 -197 -172z"/>
<path d="M48198 52769 l-16 -9 201 -415 c110 -228 203 -415 206 -415 3 0 12 4
19 8 l12 8 -201 414 c-110 228 -201 416 -202 417 -1 1 -10 -3 -19 -8z"/>
<path d="M51260 52726 l0 -16 10 0 c6 0 10 4 10 9 0 6 -4 13 -10 16 l-10 6 0
-15z"/>
<path d="M64623 52702 l-193 -36 0 -7 0 -7 18 4 c9 2 94 17 187 34 94 17 179
35 190 40 l20 9 -15 -1 c-8 0 -102 -17 -207 -36z"/>
<path d="M52784 52704 l-19 -15 23 11 c12 6 22 13 22 15 0 8 -5 6 -26 -11z"/>
<path d="M52828 52510 c53 -110 99 -200 103 -200 4 0 -36 90 -89 200 -53 110
-99 200 -103 200 -4 0 36 -90 89 -200z"/>
<path d="M64380 52650 l0 -13 7 6 6 7 -6 7 -7 6 0 -13z"/>
<path d="M48200 52594 l0 -45 14 -28 c8 -15 21 -33 29 -40 l15 -12 7 11 7 11
-21 35 -21 35 0 34 0 33 -15 6 -15 5 0 -45z"/>
<path d="M48160 52585 l-25 -27 -137 -69 -138 -69 0 -10 c0 -6 5 -10 11 -10
19 0 288 142 305 161 l16 18 -4 16 -3 17 -25 -27z"/>
<path d="M85653 52512 c-65 -48 -144 -107 -176 -131 -32 -23 -56 -45 -54 -47
5 -5 357 253 357 261 0 10 -13 2 -127 -83z"/>
<path d="M48398 52483 c-19 -5 -24 -18 -9 -27 l9 -6 16 6 16 6 0 14 c0 14 -3
15 -32 7z"/>
<path d="M46175 52472 c6 -6 94 -53 198 -106 l187 -96 18 1 17 1 -40 16 c-22
9 -119 56 -215 105 -96 49 -170 85 -165 79z"/>
<path d="M85605 52299 c-93 -72 -174 -135 -179 -140 l-10 -9 7 -6 6 -6 178
137 c98 75 180 141 181 146 l4 9 -9 0 c-4 0 -84 -59 -178 -131z"/>
<path d="M78092 52408 c3 -7 38 -105 78 -218 79 -221 77 -216 86 -207 l6 6
-78 215 -77 216 -10 0 -9 0 4 -12z"/>
<path d="M31006 52351 c-30 -27 -89 -75 -131 -107 l-76 -57 -95 -11 -94 -10 0
-8 0 -8 23 4 c12 3 54 8 92 12 l70 6 20 11 c58 30 275 217 252 217 -4 0 -31
-22 -61 -49z"/>
<path d="M51511 52353 c9 -30 185 -363 192 -363 8 0 -169 348 -186 365 l-9 10
3 -12z"/>
<path d="M84310 52241 c20 -79 26 -91 45 -91 26 0 360 83 349 87 -6 2 -87 -15
-180 -37 l-169 -41 -11 16 c-6 8 -17 42 -24 75 l-13 60 -7 0 -8 0 18 -69z"/>
<path d="M89090 52085 c0 -7 5 -17 11 -21 l11 -7 -5 -39 -5 -39 11 4 12 4 3
27 c2 16 1 39 -2 51 l-6 23 -15 6 -15 5 0 -14z"/>
<path d="M78207 51954 l-5 -9 84 -215 c47 -118 87 -216 89 -218 1 -2 5 0 8 5
l4 8 -87 219 -87 219 -6 -9z"/>
<path d="M47131 51906 l-1 -19 83 -161 c89 -172 136 -251 143 -243 5 4 -25 63
-68 134 -10 17 -50 94 -88 170 l-69 138 0 -19z"/>
<path d="M13656 51672 l-5 -9 176 -121 176 -121 10 6 9 5 -14 13 c-17 16 -336
235 -342 235 -3 0 -7 -4 -10 -8z"/>
<path d="M69600 51662 l0 -9 38 -6 c20 -3 109 -11 197 -18 l160 -12 38 7 37 7
0 8 0 8 -50 -5 -50 -5 -143 12 c-78 6 -161 14 -184 17 l-43 6 0 -10z"/>
<path d="M21636 51460 c-4 -91 -6 -183 -4 -205 l3 -40 9 185 c4 102 6 195 4
205 l-4 20 -8 -165z"/>
<path d="M88060 51270 l-195 -148 -36 -44 -36 -43 -46 -105 c-25 -58 -53 -122
-62 -144 l-16 -38 12 4 12 4 58 133 58 133 36 43 35 43 195 148 c174 131 213
165 188 163 -5 0 -96 -67 -203 -149z"/>
<path d="M22416 51402 l-7 -12 48 -56 48 -56 80 -53 80 -53 7 11 7 12 -66 42
-67 42 -61 67 -61 68 -8 -12z"/>
<path d="M45958 51369 l-38 -19 0 -10 c0 -14 5 -13 50 10 l40 20 0 10 c0 14
-10 12 -52 -11z"/>
<path d="M34240 51310 l0 -13 7 6 6 7 -6 7 -7 6 0 -13z"/>
<path d="M12934 51257 c62 -51 647 -449 652 -444 3 2 -129 96 -293 208 -164
111 -316 218 -339 236 -23 18 -45 33 -50 33 -5 -1 9 -15 30 -33z"/>
<path d="M34060 51223 c0 -21 7 -75 16 -121 l17 -83 9 9 9 9 -15 67 -16 67 0
45 0 44 -10 0 -10 0 0 -37z"/>
<path d="M21623 51173 l7 -6 7 6 6 7 -13 0 -13 0 6 -7z"/>
<path d="M42350 51115 c0 -3 15 -11 33 -19 l32 -13 35 -35 c20 -19 56 -59 82
-89 l45 -54 51 -100 51 -100 26 -82 25 -82 -4 -43 -5 -43 11 43 11 43 -27 92
-28 91 -51 96 -51 95 -63 76 -64 76 -48 27 c-49 26 -61 30 -61 21z"/>
<path d="M28364 50976 c-3 -8 -4 -29 -2 -47 l3 -32 10 -4 10 -3 0 50 0 50 -8
0 c-4 0 -10 -6 -13 -14z"/>
<path d="M26810 50953 l0 -10 31 -7 c17 -3 60 -6 95 -6 l64 0 0 10 0 10 -57 0
c-32 0 -75 3 -95 6 l-38 7 0 -10z"/>
<path d="M28472 50909 l-12 -19 -20 0 -20 0 0 -10 0 -10 24 0 25 0 15 16 c18
17 20 30 8 38 l-8 5 -12 -20z"/>
<path d="M74910 50806 l-145 -43 -65 -31 c-63 -30 -223 -114 -398 -209 -46
-25 -81 -47 -78 -50 3 -3 69 30 148 72 79 43 198 107 265 142 l123 64 151 44
c82 23 153 46 156 49 l6 6 -9 -1 c-5 0 -74 -20 -154 -43z"/>
<path d="M5710 50822 l0 -8 227 -27 c209 -24 245 -26 231 -12 -5 6 -397 55
-435 55 l-23 0 0 -8z"/>
<path d="M33500 50822 c0 -13 58 -376 66 -411 3 -13 7 -22 9 -19 5 5 -63 429
-70 436 -3 3 -5 0 -5 -6z"/>
<path d="M7178 50786 c-72 -11 -98 -20 -87 -30 2 -2 47 3 99 11 l95 15 138 -4
137 -4 0 7 c0 12 -73 19 -190 18 l-115 -1 -77 -12z"/>
<path d="M7285 50743 c-27 -2 -149 -18 -270 -34 l-220 -31 -60 6 c-33 4 -72 9
-87 12 l-28 6 0 -9 0 -10 57 -12 c83 -16 126 -14 363 20 l215 30 147 2 148 2
0 6 c0 15 -134 21 -265 12z"/>
<path d="M22375 50508 c-3 -112 -11 -273 -16 -358 -5 -85 -9 -203 -9 -262 l0
-108 10 0 10 0 0 78 c0 42 4 149 9 237 6 88 13 262 16 388 l7 227 -10 0 -10 0
-7 -202z"/>
<path d="M50070 50690 c6 -11 12 -20 14 -20 2 0 2 9 -1 20 -3 11 -9 20 -15 20
l-9 0 11 -20z"/>
<path d="M31238 50501 l-376 -16 -8 -8 -8 -8 119 6 c66 4 257 12 425 19 l305
13 7 -6 c4 -3 11 -44 16 -91 l9 -85 1 70 c0 39 -3 81 -7 95 l-7 25 -49 1 c-28
1 -220 -6 -427 -15z"/>
<path d="M31493 50471 l-121 -6 -7 -7 -7 -6 155 5 154 6 6 -24 c4 -13 7 -43 7
-66 l0 -43 8 0 7 0 -5 72 -5 73 -35 1 c-19 0 -90 -2 -157 -5z"/>
<path d="M48640 50343 c-76 -51 -111 -69 -238 -124 l-43 -19 6 -9 5 -10 102
45 102 46 73 50 c41 28 76 55 79 60 15 24 -8 13 -86 -39z"/>
<path d="M33610 50375 c1 -32 59 -387 65 -393 10 -10 5 45 -21 218 l-27 175
-8 10 -9 9 0 -19z"/>
<path d="M26260 50260 c52 -4 154 -10 225 -13 l130 -6 -20 8 -20 8 -205 6
-205 5 95 -8z"/>
<path d="M59550 50173 c1 -10 86 -68 120 -82 14 -6 86 -24 160 -41 74 -17 143
-33 153 -36 l17 -5 0 15 0 16 -12 0 c-7 0 -82 16 -166 36 l-153 36 -49 34
c-48 33 -70 42 -70 27z"/>
<path d="M38029 50064 c140 -35 257 -62 259 -59 5 5 -24 13 -281 75 -114 27
-213 50 -220 49 -6 -1 102 -30 242 -65z"/>
<path d="M47932 50100 l0 -25 5 13 c2 6 2 18 0 25 l-5 12 0 -25z"/>
<path d="M33833 49980 l-153 -6 -7 -7 c-3 -4 -4 -9 -2 -11 2 -2 85 0 184 4 99
5 208 9 243 9 l62 1 0 10 0 10 -87 -2 c-49 -1 -157 -4 -240 -8z"/>
<path d="M34190 49980 l0 -10 51 0 50 0 -6 10 -6 10 -45 0 -44 0 0 -10z"/>
<path d="M33670 49879 c0 -17 38 -321 46 -368 3 -18 7 -31 10 -28 6 5 -43 398
-51 405 -3 3 -5 -1 -5 -9z"/>
<path d="M33710 49884 c0 -26 51 -388 55 -392 3 -3 5 1 5 9 0 31 -50 382 -55
387 -3 3 -5 1 -5 -4z"/>
<path d="M22287 49678 c-4 -57 -10 -291 -13 -520 l-7 -418 10 0 9 0 11 513 10
512 -7 8 -7 8 -6 -103z"/>
<path d="M22405 49750 l30 -8 165 -5 165 -5 -20 7 -20 8 -175 5 -175 6 30 -8z"/>
<path d="M28380 49620 l0 -60 10 0 10 0 0 60 0 60 -10 0 -10 0 0 -60z"/>
<path d="M57545 49473 c59 -115 111 -212 117 -218 5 -5 -39 88 -98 208 l-109
217 -8 0 -9 0 107 -207z"/>
<path d="M39643 49624 c17 -17 369 -94 431 -94 41 0 7 9 -88 25 -55 8 -153 29
-217 45 -65 17 -121 30 -125 30 l-7 0 6 -6z"/>
<path d="M71120 49552 l15 -10 185 -6 c102 -4 193 -10 203 -12 l17 -5 0 9 0 9
-157 7 c-87 4 -185 9 -218 12 l-60 5 15 -9z"/>
<path d="M84926 49134 c161 -208 184 -236 184 -220 0 9 -232 301 -242 305 -6
2 20 -36 58 -85z"/>
<path d="M77650 49097 c-113 -22 -207 -41 -209 -43 -2 -2 -2 -7 2 -10 l6 -6
230 43 229 44 -5 7 c-7 12 -34 8 -253 -35z"/>
<path d="M33792 49000 c3 -19 32 -223 64 -452 32 -230 61 -418 64 -418 8 0
-117 890 -126 899 l-7 6 5 -35z"/>
<path d="M38513 48987 l3 -10 208 -54 208 -54 6 5 c3 3 3 8 1 10 -2 2 -100 29
-217 58 l-213 55 4 -10z"/>
<path d="M64720 48963 c0 -10 -9 -31 -20 -48 -11 -16 -20 -34 -20 -40 l1 -10
24 28 25 28 0 30 c0 16 -2 29 -5 29 -3 0 -5 -8 -5 -17z"/>
<path d="M75925 48950 l-6 -10 27 -36 27 -35 30 -15 29 -16 10 10 9 9 -30 12
-30 13 -27 39 c-29 43 -30 43 -39 29z"/>
<path d="M22320 48693 c0 -21 -7 -251 -16 -511 l-16 -473 6 -6 c3 -4 8 -4 10
-2 3 4 37 918 36 997 l0 32 -10 0 -10 0 0 -37z"/>
<path d="M34103 48576 l-211 -11 -9 -8 -8 -8 85 5 c47 4 170 11 274 16 104 5
191 12 194 15 7 6 -64 5 -325 -9z"/>
<path d="M44065 48448 c66 -144 145 -303 145 -292 0 14 -168 364 -174 364 -3
0 10 -33 29 -72z"/>
<path d="M13970 48284 c-208 -61 -214 -63 -209 -68 5 -5 419 111 427 119 14
13 -48 -1 -218 -51z"/>
<path d="M90807 48068 c-35 -40 -76 -95 -92 -121 -15 -26 -47 -71 -71 -100
-23 -28 -41 -54 -38 -56 7 -7 58 55 118 144 30 44 65 91 79 105 13 15 39 43
57 63 l32 37 -10 0 c-6 0 -39 -33 -75 -72z"/>
<path d="M90842 48046 c-34 -39 -82 -101 -107 -139 -53 -81 -151 -202 -298
-366 -60 -67 -104 -121 -99 -121 9 0 238 256 326 364 27 34 69 93 93 131 l45
70 60 61 60 62 -8 4 -9 5 -63 -71z"/>
<path d="M37417 48085 l-218 -13 -7 -7 -7 -8 85 6 c47 4 149 9 228 13 l142 7
0 8 c0 5 -1 8 -2 8 -2 -1 -101 -7 -221 -14z"/>
<path d="M74973 48068 c23 -59 172 -358 178 -358 l8 0 -58 123 c-81 171 -120
247 -127 247 l-6 0 5 -12z"/>
<path d="M31817 47600 c3 -96 9 -197 14 -225 l7 -50 -5 175 c-3 96 -9 198 -14
225 l-7 50 5 -175z"/>
<path d="M41528 47655 c-2 -3 3 -29 13 -58 10 -28 18 -62 19 -74 l0 -23 15 0
c18 0 18 0 0 74 l-14 59 -14 14 c-7 7 -16 11 -19 8z"/>
<path d="M74831 47610 c0 -8 4 -24 9 -35 l9 -20 0 20 c0 11 -4 27 -9 35 l-10
15 1 -15z"/>
<path d="M22230 47525 l0 -75 10 0 10 0 0 75 0 75 -10 0 -10 0 0 -75z"/>
<path d="M90161 47290 c-78 -88 -145 -168 -148 -178 -4 -9 62 61 146 156 84
95 151 175 149 178 -3 2 -69 -68 -147 -156z"/>
<path d="M36780 47399 c-129 -3 -280 -7 -334 -8 l-99 -1 6 -6 6 -6 351 7 350
7 0 9 0 9 -22 -2 c-13 -1 -129 -5 -258 -9z"/>
<path d="M41575 47393 c-11 -3 -28 -12 -37 -20 l-18 -16 6 -8 5 -9 24 16 25
16 35 0 36 0 -4 12 -4 11 -24 2 c-13 0 -33 -1 -44 -4z"/>
<path d="M41707 47354 l-7 -7 14 -16 c7 -9 19 -33 26 -54 l12 -37 -7 -28 -6
-28 -30 -33 c-16 -19 -28 -35 -25 -38 10 -10 42 8 61 35 l20 27 0 67 0 68 -26
25 -25 26 -7 -7z"/>
<path d="M41410 47313 c-14 -2 -31 -6 -39 -9 l-14 -5 10 -10 11 -11 61 7 61 7
0 14 0 14 -32 -1 c-18 -1 -44 -4 -58 -6z"/>
<path d="M35238 47291 l-116 -6 -7 -7 -8 -7 139 6 c77 3 164 9 194 13 l55 8
-70 -1 c-38 0 -123 -3 -187 -6z"/>
<path d="M41464 47265 l-6 -15 6 -34 7 -34 15 -6 16 -6 -8 27 c-4 16 -8 40 -7
56 l0 27 -9 0 c-5 0 -11 -7 -14 -15z"/>
<path d="M18496 47029 c53 -105 97 -189 99 -187 5 4 -184 378 -191 378 -2 0
39 -86 92 -191z"/>
<path d="M29426 47085 c4 -71 10 -170 14 -220 l8 -90 -5 205 -5 205 -9 15 -8
15 5 -130z"/>
<path d="M20705 47123 c-9 -27 -32 -134 -50 -240 l-35 -192 -23 -53 -24 -53
-49 -45 -49 -46 -77 -33 c-43 -19 -78 -37 -78 -42 l0 -8 93 41 92 40 39 37 38
36 25 55 25 54 38 211 38 210 16 38 16 37 -9 0 -9 0 -17 -47z"/>
<path d="M39860 46995 l12 -15 -6 -15 -5 -15 9 0 10 0 0 30 0 30 -16 0 -16 0
12 -15z"/>
<path d="M35885 46831 c3 -68 5 -141 5 -163 l0 -38 8 0 7 0 -3 87 c-2 49 -8
122 -12 163 l-9 75 4 -124z"/>
<path d="M34750 46745 l0 -175 10 0 10 0 0 175 0 175 -10 0 -10 0 0 -175z"/>
<path d="M30690 46814 c0 -54 30 -397 35 -402 8 -8 6 28 -11 233 -14 175 -24
242 -24 169z"/>
<path d="M49926 46762 c-12 -12 -5 -20 24 -26 l30 -6 9 -22 9 -23 8 19 7 19
-24 18 c-27 20 -55 30 -63 21z"/>
<path d="M22220 46730 l0 -10 58 0 c31 0 131 -7 222 -15 91 -8 166 -15 168
-15 1 0 2 6 2 13 l0 14 -147 11 c-82 7 -183 12 -225 12 l-78 0 0 -10z"/>
<path d="M28265 46509 l-7 -210 6 -6 c3 -4 8 -4 10 -2 2 2 7 100 11 217 l8
212 -10 0 -10 0 -8 -211z"/>
<path d="M49870 46625 c0 -8 1 -15 3 -15 1 0 17 -4 35 -9 l32 -10 0 9 c0 7
-55 40 -67 40 -1 0 -3 -7 -3 -15z"/>
<path d="M81860 46397 c-140 -105 -311 -238 -379 -295 l-125 -103 -57 -30 -58
-29 -26 0 -26 0 -24 16 -24 16 -17 44 -17 44 -14 0 -13 0 29 -58 29 -58 27
-12 c14 -7 39 -12 56 -12 l30 0 57 29 57 29 156 128 c85 71 258 206 382 299
206 154 243 185 220 185 -5 0 -123 -87 -263 -193z"/>
<path d="M35415 46500 c-55 -4 -124 -8 -152 -9 l-53 -1 0 -16 0 -16 48 6 c26
3 103 8 172 11 69 3 146 8 173 11 l47 6 -6 9 -5 9 -62 -2 c-34 -1 -107 -5
-162 -8z"/>
<path d="M18790 46456 c0 -12 178 -376 184 -376 4 0 -171 370 -180 379 -2 2
-4 1 -4 -3z"/>
<path d="M34446 46394 c-9 -24 -7 -28 9 -14 17 14 20 30 6 30 -5 0 -12 -7 -15
-16z"/>
<path d="M30520 46389 c-80 -5 -253 -15 -384 -22 l-239 -12 -5 -14 -5 -14 94
6 c52 4 209 11 349 17 140 5 283 13 318 16 l63 6 -4 11 -4 12 -19 1 c-10 1
-84 -3 -164 -7z"/>
<path d="M80978 46393 l13 -5 6 6 6 6 -19 -1 -19 -1 13 -5z"/>
<path d="M80870 46380 l-25 -8 32 -1 32 -1 6 10 6 10 -13 -1 c-7 -1 -24 -5
-38 -9z"/>
<path d="M19880 46263 c0 -17 90 -206 95 -201 6 5 -72 187 -86 203 l-9 9 0
-11z"/>
<path d="M28423 46176 l-162 -12 -7 -7 -7 -7 6 -6 6 -6 168 11 c92 6 201 14
241 17 l72 6 0 9 0 9 -77 -1 c-43 -1 -151 -7 -240 -13z"/>
<path d="M51780 46124 c0 -12 167 -369 252 -539 31 -60 108 -227 173 -370 64
-143 121 -264 126 -270 l9 -9 0 10 c0 6 -58 139 -129 295 -131 288 -431 903
-431 883z"/>
<path d="M93091 46095 l15 -15 75 -13 76 -14 24 -16 23 -17 51 0 50 0 63 32
c34 18 62 35 62 39 0 4 -30 -8 -67 -27 l-68 -34 -37 0 -37 0 -35 21 -35 20
-68 10 -68 10 -9 9 c-6 6 -15 10 -20 10 l-10 0 15 -15z"/>
<path d="M90388 46065 c-65 -14 -338 -116 -338 -126 0 -4 64 17 142 48 l142
54 64 14 c35 7 66 16 69 19 l6 6 -14 -1 c-8 -1 -40 -7 -71 -14z"/>
<path d="M93060 46071 c0 -4 16 -15 35 -24 l36 -17 32 0 32 0 53 -25 54 -25
54 0 54 0 71 36 c93 47 83 55 -12 9 l-73 -35 -41 0 -40 0 -47 25 -47 25 -38 0
-38 0 -42 20 -43 19 0 -8z"/>
<path d="M81344 45948 l-7 -11 11 7 c7 4 12 9 12 12 0 8 -9 4 -16 -8z"/>
<path d="M81355 45843 c-10 -38 -27 -90 -38 -116 l-20 -48 -29 -15 -30 -15 6
-6 5 -6 31 13 31 13 15 36 c9 20 26 75 39 124 l24 87 -8 0 -8 0 -18 -67z"/>
<path d="M30757 45660 l5 -205 9 -15 8 -15 -5 130 c-4 72 -10 171 -14 220 l-8
90 5 -205z"/>
<path d="M81300 45792 c-12 -38 -25 -74 -30 -81 l-7 -13 -34 -8 -34 -8 32 -1
32 -1 14 14 14 14 22 72 c13 39 21 74 18 76 -3 3 -15 -26 -27 -64z"/>
<path d="M46081 45797 c-2 -29 -62 -198 -84 -237 -11 -19 -52 -68 -91 -107
l-70 -73 10 0 c15 0 148 141 171 181 11 19 32 72 47 117 l27 81 -4 28 -4 28
-2 -18z"/>
<path d="M51890 45799 l0 -10 10 6 c6 3 10 8 10 11 0 2 -4 4 -10 4 -5 0 -10
-5 -10 -11z"/>
<path d="M36025 45753 c-22 -2 -55 -6 -73 -9 l-33 -5 -92 -81 c-51 -44 -94
-85 -96 -91 l-4 -11 30 25 c17 13 59 49 94 80 l64 56 34 11 34 12 56 1 c31 0
79 4 106 9 l50 7 -65 0 c-36 0 -83 -2 -105 -4z"/>
<path d="M52420 45668 c0 -9 36 -92 81 -185 44 -92 88 -185 96 -205 8 -21 19
-38 23 -38 l8 0 -80 173 c-44 94 -91 195 -104 222 l-24 50 0 -17z"/>
<path d="M81175 45660 l-6 -9 16 -56 16 -55 11 0 10 0 -6 28 c-26 103 -29 111
-41 92z"/>
<path d="M52387 45634 c23 -61 399 -844 405 -844 7 0 -5 26 -241 525 -84 176
-157 325 -162 330 l-10 10 8 -21z"/>
<path d="M81251 45608 c0 -13 -3 -36 -6 -53 l-6 -30 16 34 c17 39 19 57 5 66
l-10 6 1 -23z"/>
<path d="M48440 45000 l-115 -18 -160 -46 c-194 -57 -189 -55 -183 -61 2 -3
81 17 174 44 l169 50 120 17 120 16 104 -21 c108 -22 128 -25 119 -16 -4 4
-148 37 -213 49 -11 2 -72 -5 -135 -14z"/>
<path d="M48790 44916 l-14 -58 10 -16 c6 -9 18 -20 27 -26 l16 -10 7 6 6 7
-26 23 -26 23 11 38 c5 21 9 46 6 55 l-3 17 -14 -59z"/>
<path d="M16872 44813 l22 -36 4 12 4 12 -16 24 c-9 14 -21 25 -26 25 l-9 0
21 -37z"/>
<path d="M48955 44554 c70 -137 131 -253 135 -257 l8 -9 52 27 52 26 -6 6 -5
5 -36 -21 c-20 -11 -42 -21 -48 -21 l-13 0 -122 240 c-68 132 -128 243 -134
246 -6 4 47 -105 117 -242z"/>
<path d="M52541 44514 c-1 -16 120 -268 133 -276 6 -4 21 -8 34 -8 l23 0 140
71 c76 39 139 74 139 78 l0 9 -129 -68 c-71 -37 -142 -70 -158 -73 l-29 -6
-11 7 c-6 4 -40 68 -76 142 -36 74 -66 130 -66 124z"/>
<path d="M26540 44346 c0 -5 363 -182 392 -191 l23 -7 -10 10 c-9 9 -391 192
-401 192 -2 0 -4 -2 -4 -4z"/>
<path d="M88127 44192 c-32 -70 -65 -136 -73 -147 l-15 -20 -9 16 c-5 9 -19
27 -31 40 l-21 24 25 -45 25 -45 14 0 13 0 52 105 c64 129 94 200 85 200 -4 0
-33 -58 -65 -128z"/>
<path d="M87775 44194 l-37 -86 20 -22 c11 -11 36 -47 56 -78 l36 -57 0 -19 0
-19 15 0 16 0 -4 16 -3 16 39 73 c22 40 37 75 35 77 -2 3 -21 -27 -42 -65 -20
-39 -39 -70 -42 -70 -2 0 -20 26 -41 58 -20 31 -45 66 -54 77 l-17 20 38 83
39 82 -8 0 c-5 0 -25 -39 -46 -86z"/>
<path d="M57930 44114 c-102 -53 -189 -101 -195 -106 l-10 -10 10 3 c18 7 370
188 385 199 l15 10 -10 0 c-5 0 -93 -43 -195 -96z"/>
<path d="M34560 43878 c-7 -29 -31 -100 -53 -158 l-40 -105 -38 -47 -39 -47 0
-13 1 -13 44 49 44 50 41 100 c22 56 49 131 59 169 l20 67 -13 0 -12 0 -14
-52z"/>
<path d="M87957 43703 c136 -219 122 -197 127 -192 6 6 -222 373 -234 377 -5
2 43 -81 107 -185z"/>
<path d="M54263 43790 c12 -34 165 -379 176 -396 5 -11 11 -15 11 -11 0 14
-171 401 -182 412 l-11 10 6 -15z"/>
<path d="M40870 43548 l-84 -9 -103 -51 c-57 -27 -103 -53 -103 -57 l0 -8 100
49 101 49 57 10 c31 5 83 9 114 9 l57 0 25 -10 26 -10 0 9 0 8 -39 11 c-21 7
-45 11 -52 11 -8 -1 -52 -6 -99 -11z"/>
<path d="M40550 43340 c-64 -77 -220 -293 -215 -299 3 -2 6 -2 8 0 2 2 39 54
82 114 43 61 103 138 133 173 l54 62 -10 0 c-6 0 -29 -22 -52 -50z"/>
<path d="M50990 43299 l-245 -38 -428 -121 c-236 -66 -443 -126 -461 -134
l-34 -14 -29 -44 c-16 -23 -33 -49 -37 -55 l-7 -13 8 0 c4 0 21 20 36 44 l28
44 24 16 23 15 445 126 445 125 264 40 c297 46 309 48 253 48 -22 0 -150 -18
-285 -39z"/>
<path d="M50243 43161 c-112 -31 -203 -59 -203 -63 l0 -7 83 23 c45 13 136 38
202 56 66 18 122 35 124 36 16 14 -29 4 -206 -45z"/>
<path d="M11187 43173 c-2 -5 -7 -21 -11 -38 l-7 -30 10 10 c11 11 26 65 18
65 -3 0 -8 -3 -10 -7z"/>
<path d="M82105 43051 c10 -34 127 -243 132 -237 4 4 -122 245 -134 256 -3 3
-2 -6 2 -19z"/>
<path d="M32129 42993 c-35 -38 -126 -144 -201 -238 l-137 -170 -110 -103
c-61 -57 -111 -108 -111 -114 l0 -10 9 4 c5 2 67 59 138 128 l128 125 152 185
c83 102 165 198 182 214 31 29 39 46 23 46 -5 0 -38 -30 -73 -67z"/>
<path d="M52081 43033 c-1 -7 84 -182 187 -390 104 -208 191 -385 194 -393 l5
-15 7 6 6 6 -199 399 c-110 219 -200 394 -200 387z"/>
<path d="M29886 42843 c62 -84 74 -101 117 -175 l45 -76 35 -94 34 -93 11 -65
c6 -36 14 -118 18 -182 l7 -118 7 0 8 0 -4 43 c-2 23 -8 97 -14 165 l-9 123
-36 107 -37 107 -40 70 c-54 92 -149 225 -161 225 l-9 0 28 -37z"/>
<path d="M94277 42803 c-11 -19 -128 -445 -124 -450 3 -3 10 12 16 33 6 22 35
124 65 229 49 168 59 216 43 188z"/>
<path d="M31771 42498 l-164 -168 7 -7 7 -7 120 119 c134 133 202 211 197 223
l-3 8 -164 -168z"/>
<path d="M52310 42658 c0 -3 42 -93 93 -200 51 -106 111 -236 132 -288 l40
-95 77 -132 c43 -72 78 -135 78 -140 0 -4 -82 -50 -183 -100 -100 -51 -176
-93 -169 -93 18 0 372 179 372 188 0 4 -29 59 -65 122 -36 63 -79 144 -96 180
-73 156 -264 546 -271 555 -4 5 -8 6 -8 3z"/>
<path d="M91738 42577 c-43 -23 -78 -45 -78 -50 0 -4 37 13 83 38 l84 45 21 0
21 0 63 -36 c35 -20 78 -45 96 -56 l32 -20 0 9 c0 4 -42 32 -93 61 l-94 52
-29 -1 -29 0 -77 -42z"/>
<path d="M50835 42489 c-71 -10 -134 -18 -139 -18 l-9 -1 5 -5 5 -6 164 21
c158 20 210 31 138 29 -19 -1 -92 -9 -164 -20z"/>
<path d="M82420 42477 c0 -16 233 -406 243 -407 l8 0 -4 8 c-3 4 -58 95 -122
202 -120 200 -125 208 -125 197z"/>
<path d="M45930 42265 l-165 -91 -3 -34 c-2 -19 0 -50 4 -69 l8 -36 6 65 5 65
140 78 c77 43 151 84 164 91 l24 13 -9 5 -9 5 -165 -92z"/>
<path d="M200 42242 c0 -4 20 -18 45 -30 l44 -21 16 -25 16 -25 8 -403 8 -403
1 400 2 400 -20 32 -19 32 -51 26 -50 25 0 -8z"/>
<path d="M31042 41812 l-169 -237 -54 -50 c-30 -28 -89 -77 -131 -109 -69 -52
-92 -76 -72 -76 11 0 210 159 245 197 20 21 111 142 202 270 l166 232 -8 6 -9
5 -170 -238z"/>
<path d="M30115 41964 l4 -81 13 -29 c7 -16 46 -69 87 -119 41 -49 76 -92 78
-94 2 -2 5 -2 8 0 2 3 -27 43 -66 90 -39 46 -79 101 -90 121 l-19 37 -1 53
c-1 29 -5 64 -10 78 l-9 25 5 -81z"/>
<path d="M82490 42034 c0 -11 447 -744 465 -763 2 -1 9 -1 15 1 l10 3 -201
325 c-110 179 -215 351 -232 382 l-32 58 -12 0 c-7 0 -13 -3 -13 -6z"/>
<path d="M30340 41664 c0 -12 249 -287 264 -293 l11 -4 -20 24 c-12 13 -70 78
-130 144 -60 66 -113 124 -117 130 l-8 9 0 -10z"/>
<path d="M56535 41310 l-180 -5 180 -5 180 -5 5 -195 6 -195 2 198 c1 108 2
200 3 204 1 10 13 9 -196 3z"/>
<path d="M29421 41033 c1 -14 112 -99 188 -144 l75 -44 68 -3 68 -4 0 9 0 10
-66 6 -66 6 -64 36 c-35 20 -91 58 -125 85 -60 48 -80 59 -78 43z"/>
<path d="M57313 40883 c65 -2 168 -2 230 0 l112 3 -230 0 -230 0 118 -3z"/>
<path d="M97173 40713 c-95 -32 -173 -60 -173 -64 l0 -8 173 58 c94 32 179 60
187 64 l15 5 -15 1 c-8 0 -93 -25 -187 -56z"/>
<path d="M97193 40677 c-101 -34 -183 -65 -183 -69 0 -6 378 117 388 127 13
13 -36 -1 -205 -58z"/>
<path d="M60468 40483 c7 -3 110 -19 228 -37 l214 -32 0 6 c0 6 -422 71 -445
69 l-10 -1 13 -5z"/>
<path d="M84816 39970 c4 -8 49 -76 99 -150 51 -74 106 -161 124 -192 18 -32
37 -61 43 -64 l11 -7 -33 59 c-44 79 -207 324 -233 349 l-20 20 9 -15z"/>
<path d="M84780 39956 c0 -4 34 -58 77 -119 42 -62 220 -346 395 -632 175
-286 323 -521 328 -523 23 -8 -736 1213 -791 1273 l-9 9 0 -8z"/>
<path d="M48256 39799 c-59 -78 -106 -143 -103 -145 2 -2 48 53 102 123 54 71
103 134 108 141 5 7 8 14 6 17 -3 2 -53 -59 -113 -136z"/>
<path d="M84356 39670 c-76 -48 -143 -94 -150 -100 l-11 -12 22 11 c19 10 271
169 282 178 2 1 2 5 0 7 -2 3 -66 -35 -143 -84z"/>
<path d="M83932 39692 c13 -21 66 -107 118 -190 l95 -152 13 0 14 0 -4 8 c-1
5 -54 90 -117 190 l-113 182 -15 0 -14 0 23 -38z"/>
<path d="M52065 39399 c-18 -75 -74 -384 -70 -387 3 -3 7 1 9 9 11 33 75 393
71 397 -2 2 -7 -6 -10 -19z"/>
<path d="M52025 38980 c15 -7 1078 -210 1285 -246 l25 -4 -20 9 c-18 9 -1284
252 -1303 250 -4 0 2 -4 13 -9z"/>
<path d="M84555 38951 l-6 -11 122 -213 122 -212 246 -380 c134 -209 340 -526
456 -705 116 -179 251 -389 299 -468 48 -78 92 -144 96 -147 l9 -5 5 8 5 9
-139 224 c-77 123 -140 227 -140 232 l0 8 13 -7 12 -7 -8 9 c-5 5 -14 9 -19 9
-6 0 -13 6 -16 14 l-5 14 13 -8 13 -8 -7 12 -7 11 -9 -5 -8 -5 -228 352 c-126
194 -304 470 -397 613 -94 143 -224 352 -289 465 -66 113 -121 206 -123 208
-2 2 -6 -2 -10 -7z"/>
<path d="M52461 38936 c2 -2 92 -20 199 -40 107 -20 203 -38 213 -40 l17 -4 0
7 0 7 -202 37 c-193 36 -237 42 -227 33z"/>
<path d="M60002 38802 c2 -4 23 -43 47 -87 l44 -80 94 -94 93 -94 7 7 8 7 -77
72 c-86 82 -120 125 -169 214 -19 35 -38 63 -42 63 -5 0 -7 -3 -5 -8z"/>
<path d="M84830 38552 c0 -14 251 -404 257 -398 3 3 -52 94 -123 203 -144 224
-134 210 -134 195z"/>
<path d="M89040 38229 c-91 -60 -167 -115 -169 -121 l-4 -12 29 19 c221 144
314 209 314 216 0 12 18 22 -170 -102z"/>
<path d="M90861 37774 l1 -19 5 13 5 13 -6 6 -6 6 1 -19z"/>
<path d="M60410 37699 c141 -133 230 -212 234 -208 5 5 -301 289 -311 289 -4
-1 30 -37 77 -81z"/>
<path d="M91185 37658 c8 -34 22 -58 35 -58 l8 0 -17 45 -16 45 -8 0 -9 0 7
-32z"/>
<path d="M45086 37280 l-156 -162 6 -9 c3 -5 9 -9 13 -9 5 0 77 72 161 160
l153 161 -10 10 -10 10 -157 -161z"/>
<path d="M85660 37250 c6 -11 13 -20 16 -20 2 0 0 9 -6 20 -6 11 -13 20 -16
20 -2 0 0 -9 6 -20z"/>
<path d="M85685 37210 c3 -5 8 -10 11 -10 3 0 2 5 -1 10 -3 6 -8 10 -11 10 -3
0 -2 -4 1 -10z"/>
<path d="M85715 37160 c3 -5 8 -10 11 -10 3 0 2 5 -1 10 -3 6 -8 10 -11 10 -3
0 -2 -4 1 -10z"/>
<path d="M85739 37125 c5 -11 17 -29 26 -40 l16 -20 -10 20 c-5 11 -17 29 -26
40 l-16 20 10 -20z"/>
<path d="M85865 37085 l-60 -43 -14 11 -14 12 11 -22 12 -22 65 45 c36 25 65
50 65 55 0 12 4 14 -65 -36z"/>
<path d="M44315 36509 l-280 -281 -47 -32 -47 -32 9 -14 8 -14 54 37 53 37
279 279 279 279 -7 11 c-4 6 -10 11 -14 11 -4 0 -133 -126 -287 -281z"/>
<path d="M40055 36500 c-22 -4 -84 -11 -138 -15 l-98 -7 -6 -15 -6 -14 13
-322 c12 -300 14 -337 23 -326 2 2 -3 147 -10 323 l-14 318 5 14 5 14 58 0
c57 0 243 26 252 35 6 7 -37 4 -84 -5z"/>
<path d="M80195 35624 l-200 -104 -12 5 -11 4 -6 -15 -5 -14 12 0 12 -1 154
-289 c85 -160 158 -290 162 -290 4 0 -63 129 -147 287 -85 158 -153 291 -151
296 1 5 97 58 212 118 116 60 203 108 195 108 -8 -1 -105 -48 -215 -105z"/>
<path d="M41769 35677 l13 -17 -4 -25 -5 -25 9 0 9 0 -3 37 -3 36 -15 5 -15 5
14 -16z"/>
<path d="M86430 35665 l0 -16 52 -76 c53 -79 136 -240 157 -306 l13 -37 -24
-20 c-12 -11 -101 -68 -195 -126 l-173 -106 6 -9 c3 -5 8 -8 12 -5 52 29 333
204 351 218 l24 18 12 -10 c36 -30 15 49 -53 195 l-46 100 -58 89 c-32 48 -58
92 -58 97 0 5 -4 9 -10 9 l-10 0 0 -15z"/>
<path d="M81120 35575 c0 -16 64 -99 126 -165 38 -41 96 -103 129 -138 32 -34
60 -60 63 -57 2 2 -56 69 -130 147 -73 79 -144 160 -157 181 -21 34 -31 45
-31 32z"/>
<path d="M33968 35413 c-240 -264 -301 -346 -376 -505 l-31 -68 9 0 c4 0 13
15 19 33 6 17 35 73 63 122 l51 90 96 115 c53 63 143 166 200 228 57 62 102
115 99 117 -3 3 -61 -57 -130 -132z"/>
<path d="M79800 35468 l-135 -71 -125 -43 c-145 -49 -146 -59 -3 -13 l98 31
140 70 c77 39 149 77 160 84 l19 14 -9 0 c-6 0 -71 -32 -145 -72z"/>
<path d="M29573 35468 l-63 -30 1 -16 c0 -21 138 -292 138 -274 1 7 -28 71
-64 142 l-65 130 23 14 c12 8 43 24 70 36 26 11 47 23 47 25 0 11 -28 2 -87
-27z"/>
<path d="M86800 35482 c0 -5 24 -21 53 -35 l52 -27 53 0 52 0 0 9 0 8 -60 6
-59 5 -34 21 c-36 22 -57 27 -57 13z"/>
<path d="M79440 35288 c0 -11 99 -294 118 -339 l20 -47 13 -158 c6 -88 15
-164 18 -171 l6 -12 103 56 c57 30 101 57 98 60 -2 3 -47 -18 -99 -47 l-96
-51 -5 43 c-3 24 -10 99 -17 167 l-10 124 -41 101 c-22 56 -51 137 -65 181
-21 67 -43 115 -43 93z"/>
<path d="M86710 35120 l11 -21 9 6 9 6 -6 14 -5 15 -14 0 -15 0 11 -20z"/>
<path d="M86776 35071 l-6 -9 35 -21 35 -20 0 8 c0 8 -26 33 -47 45 l-12 6 -5
-9z"/>
<path d="M32087 35043 l-7 -6 24 -13 c14 -6 87 -61 163 -122 l138 -110 278
-135 c152 -74 277 -134 277 -131 0 2 -125 67 -277 143 l-278 140 -150 120
c-82 67 -153 121 -156 121 -3 0 -9 -3 -12 -7z"/>
<path d="M32530 34782 l0 -8 222 -107 c121 -59 223 -105 226 -102 3 3 -42 27
-99 54 -57 26 -159 76 -226 110 l-123 61 0 -8z"/>
<path d="M75610 34561 c-117 -52 -277 -137 -285 -152 l-6 -9 6 0 c4 0 49 24
100 54 52 29 107 58 122 64 15 5 65 26 110 45 l81 35 19 -20 c22 -26 357 -327
386 -348 l21 -15 490 -6 491 -6 49 19 c26 10 173 83 325 161 l276 142 50 6 50
6 -49 2 -48 1 -311 -157 -312 -158 -496 0 -496 0 -36 25 c-48 34 -301 257
-357 314 l-44 46 -16 -1 c-8 0 -62 -22 -120 -48z"/>
<path d="M82855 34274 c-209 -140 -375 -254 -368 -254 9 0 753 487 772 506 2
2 -2 4 -10 3 -8 0 -185 -115 -394 -255z"/>
<path d="M77909 34509 c-1 -2 -9 -109 -18 -237 l-16 -232 6 0 c6 0 39 463 33
469 -2 2 -5 2 -5 0z"/>
<path d="M54902 34145 c-123 -18 -227 -36 -230 -40 l-7 -8 35 6 c19 2 127 17
240 32 l205 28 10 9 9 8 -19 -1 c-11 -1 -120 -16 -243 -34z"/>
<path d="M41708 31695 c-91 -91 -163 -165 -159 -165 12 0 347 329 336 329 -5
0 -85 -74 -177 -164z"/>
<path d="M71582 31623 l39 -158 22 -42 c28 -54 33 -49 8 8 -11 24 -36 113 -58
197 -21 83 -41 152 -45 152 l-6 0 40 -157z"/>
<path d="M98818 31737 l-27 -11 -10 -29 -11 -29 29 31 29 31 29 0 28 0 -15 10
c-17 11 -16 11 -52 -3z"/>
<path d="M98893 31719 c8 -25 401 -587 501 -719 48 -63 92 -117 98 -119 6 -2
-37 59 -94 135 -58 77 -192 265 -298 419 -106 154 -198 285 -203 290 l-10 10
6 -16z"/>
<path d="M872 31343 c-11 -4 -47 -63 -39 -63 2 0 21 16 41 35 l37 35 -13 -1
c-7 0 -19 -3 -26 -6z"/>
<path d="M79867 30480 c9 -16 21 -30 26 -30 l8 0 -18 30 c-9 17 -21 30 -26 30
l-8 0 18 -30z"/>
<path d="M1660 30345 l-34 -25 16 0 17 0 28 25 28 24 -11 1 c-5 0 -25 -11 -44
-25z"/>
<path d="M74470 28871 c0 -5 68 -84 151 -175 l151 -166 9 6 9 5 -7 12 c-15 26
-296 327 -304 327 -5 0 -9 -4 -9 -9z"/>
<path d="M22036 27709 c-3 -13 -31 -195 -61 -404 -31 -209 -58 -390 -60 -402
l-5 -23 7 0 8 0 63 422 c34 231 60 423 58 426 -3 2 -7 -6 -10 -19z"/>
<path d="M11251 27378 c-1 -4 -21 -105 -46 -224 -25 -120 -43 -219 -41 -221 6
-7 13 18 56 231 22 110 38 205 36 210 -2 6 -5 8 -5 4z"/>
<path d="M95310 26779 c-96 -71 -177 -134 -179 -140 -3 -9 325 226 359 257
l14 14 -9 -1 c-6 0 -89 -58 -185 -130z"/>
<path d="M94820 26724 c-102 -74 -187 -139 -189 -145 -2 -6 48 26 110 72 63
45 148 107 189 137 41 30 79 59 85 63 l9 9 -9 0 c-6 -1 -93 -61 -195 -136z"/>
<path d="M23633 26493 l7 -6 7 6 6 7 -13 0 -13 0 6 -7z"/>
<path d="M23698 26483 c6 -2 18 -2 25 0 l12 5 -25 0 -25 0 13 -5z"/>
<path d="M23788 26473 l13 -5 6 6 6 6 -19 -1 -19 -1 13 -5z"/>
<path d="M23868 26463 l13 -5 6 6 6 6 -19 -1 -19 -1 13 -5z"/>
<path d="M24529 26023 c-23 -71 -55 -157 -70 -192 -32 -71 -32 -71 -21 -71 14
0 53 91 103 240 55 163 52 150 40 150 l-9 0 -43 -127z"/>
<path d="M90490 24839 c47 -5 150 -18 230 -30 l145 -20 120 -34 120 -34 120
-50 c65 -28 124 -51 130 -51 5 1 -51 27 -125 59 l-135 58 -109 32 -109 32
-126 19 -126 20 -110 4 -110 5 85 -10z"/>
<path d="M10530 20550 c-251 -33 -222 -28 -216 -38 l5 -8 218 27 c120 15 219
28 221 28 6 2 1 21 -5 20 -5 -1 -105 -14 -223 -29z"/>
<path d="M95281 18073 c4 -11 346 -313 355 -313 12 0 -8 19 -153 146 -87 75
-169 147 -182 158 l-24 21 4 -12z"/>
<path d="M92900 16964 c0 -17 995 -884 1014 -884 l10 0 -9 9 c-6 4 -163 140
-350 301 -291 251 -531 462 -637 559 l-28 25 0 -10z"/>
<path d="M92177 16433 l-6 -10 96 -104 c53 -57 123 -132 156 -166 l59 -63 9 6
9 5 -147 157 c-80 86 -152 163 -159 170 l-12 14 -5 -9z"/>
<path d="M98107 14806 c-48 -57 -454 -533 -902 -1057 -448 -524 -815 -958
-815 -963 l0 -10 9 10 c5 5 381 446 837 979 455 534 859 1005 896 1048 57 65
79 97 65 97 -1 0 -42 -47 -90 -104z"/>
<path d="M19956 14461 l-6 -9 17 -146 17 -146 8 0 8 0 -5 23 c-2 12 -9 67 -15
122 -6 55 -13 112 -16 127 l-5 27 58 4 58 3 -57 2 -57 2 -5 -9z"/>
<path d="M96701 13099 c-156 -182 -280 -333 -278 -335 3 -3 132 144 287 326
155 183 280 334 277 336 -2 2 -131 -145 -286 -327z"/>
<path d="M25509 12776 c-2 -2 -85 -14 -184 -25 -98 -12 -181 -24 -184 -26 -8
-9 41 -5 207 15 l162 19 18 10 17 10 -16 1 c-9 0 -18 -2 -20 -4z"/>
<path d="M22636 2592 l-4 -7 166 -135 c92 -74 253 -203 359 -287 l192 -152 6
8 5 9 -188 150 c-103 82 -262 211 -354 286 -92 75 -169 136 -172 136 -3 0 -7
-3 -10 -8z"/>
<path d="M22984 2232 c7 -11 313 -252 320 -252 21 0 -12 31 -149 138 -85 67
-160 122 -166 122 l-10 0 5 -8z"/>
<path d="M15860 1314 l0 -14 23 0 c71 0 1429 -90 1437 -95 5 -3 92 -10 192
-15 101 -5 382 -24 625 -42 l443 -32 6 7 c4 4 5 9 2 12 -6 7 -765 63 -1013 75
-115 5 -237 14 -270 20 -33 5 -348 27 -700 49 -352 22 -664 42 -692 45 l-53 5
0 -15z"/>
<path d="M17680 1141 l0 -9 78 -6 c42 -3 127 -8 187 -11 61 -4 209 -15 330
-26 203 -18 646 -52 1043 -81 l162 -11 7 6 6 7 -5 5 c-3 4 -245 24 -538 45
-293 22 -603 47 -689 55 -172 16 -459 35 -533 35 l-48 0 0 -9z"/>
<path d="M29800 947 l-135 -101 -34 -38 -34 -39 8 -7 7 -7 37 41 36 41 138
101 c75 56 137 104 137 107 0 17 -40 -8 -160 -98z"/>
</g>
</svg>
