<?xml version="1.0" standalone="no"?>
<!DOCTYPE svg PUBLIC "-//W3C//DTD SVG 20010904//EN"
 "http://www.w3.org/TR/2001/REC-SVG-20010904/DTD/svg10.dtd">
<svg version="1.0" xmlns="http://www.w3.org/2000/svg"
 width="7500.000000pt" height="7500.000000pt" viewBox="0 0 7500.000000 7500.000000"
 preserveAspectRatio="xMidYMid meet">
<metadata>
Created by potrace 1.16, written by Peter Selinger 2001-2019
</metadata>
<g transform="translate(0.000000,7500.000000) scale(0.075000,-0.075000)"
fill="#000000" stroke="none">
<path d="M99180 96119 l-153 -160 10 -10 9 -9 152 161 c84 89 152 166 152 170
0 23 -28 -3 -170 -152z"/>
<path d="M87837 93332 c-10 -10 -17 -22 -17 -27 l0 -8 21 19 21 18 70 -72 70
-72 19 0 c10 0 21 5 24 10 l6 10 29 0 c16 0 41 -5 56 -10 42 -16 42 -2 -1 16
l-38 16 -45 -12 -45 -11 -71 70 c-40 39 -74 71 -77 71 -3 0 -13 -8 -22 -18z"/>
<path d="M95030 90644 l55 -61 55 -26 c86 -43 675 -286 679 -281 7 6 14 3
-314 139 -170 70 -332 139 -359 153 l-50 24 -60 57 -61 56 55 -61z"/>
<path d="M34070 89311 c0 -5 35 -38 78 -74 43 -36 120 -104 170 -151 l90 -87
8 12 7 12 -74 69 c-99 92 -260 228 -271 228 -4 0 -8 -4 -8 -9z"/>
<path d="M78960 88443 l0 -8 222 -77 222 -77 9 6 10 6 -16 8 c-23 14 -418 149
-433 149 -8 0 -14 -3 -14 -7z"/>
<path d="M84409 87215 l-92 -185 6 -6 6 -7 11 29 c15 39 159 326 172 342 l10
12 -10 0 -10 0 -93 -185z"/>
<path d="M80445 85783 c13 -12 385 -147 391 -141 3 4 -289 114 -386 146 l-15
5 10 -10z"/>
<path d="M80333 85584 c-39 -109 -75 -208 -79 -219 l-7 -20 10 10 c14 13 155
405 150 418 -1 5 -35 -80 -74 -189z"/>
<path d="M84335 84947 c-55 -51 -131 -119 -169 -153 l-69 -61 7 -12 7 -11 147
132 c81 72 158 142 172 154 l24 24 -9 9 -10 9 -100 -91z"/>
<path d="M80080 84522 c0 -4 120 -49 268 -100 147 -52 338 -119 425 -149 87
-30 160 -53 162 -51 3 2 -147 57 -333 123 -185 65 -379 133 -429 151 l-93 33
0 -7z"/>
<path d="M80066 84482 c7 -7 789 -280 854 -299 l15 -5 -16 11 c-15 10 -843
301 -856 301 -4 0 -3 -4 3 -8z"/>
<path d="M83270 83630 l0 -180 10 0 10 0 0 180 0 180 -10 0 -10 0 0 -180z"/>
<path d="M75372 70709 l5 -14 44 -12 c77 -23 252 -96 311 -131 l57 -34 11 7
11 7 -68 40 c-71 41 -226 107 -301 128 -24 6 -50 14 -59 17 l-16 6 5 -14z"/>
<path d="M45711 66226 c2 -2 103 -45 224 -96 121 -51 225 -95 230 -98 l10 -5
-10 11 c-5 6 -107 51 -225 101 -191 81 -244 101 -229 87z"/>
<path d="M37180 64720 l0 -20 11 0 c14 0 383 -48 422 -55 l27 -4 0 19 0 20
-22 4 c-26 6 -410 56 -427 56 l-11 0 0 -20z"/>
<path d="M41270 63574 c0 -9 233 -273 254 -286 26 -17 24 -6 -3 20 -16 15 -75
79 -131 142 -57 63 -107 119 -111 125 l-9 9 0 -10z"/>
<path d="M41033 63357 c-34 -29 -62 -56 -62 -60 -1 -10 39 19 99 72 66 59 35
49 -37 -12z"/>
<path d="M42765 62999 c-77 -67 -166 -145 -197 -175 -31 -30 -59 -54 -61 -54
-3 0 -60 63 -127 140 -68 77 -125 138 -128 136 -4 -4 88 -113 222 -264 l20
-22 -10 -10 -10 -10 -107 124 c-59 68 -117 132 -130 142 l-22 19 15 -20 c8
-11 60 -72 116 -135 55 -63 104 -121 108 -128 l8 -14 -48 -50 -49 -51 23 15
c12 8 42 34 67 57 24 22 49 41 54 41 l11 0 0 12 0 12 48 43 c26 24 116 102
200 174 83 72 152 133 152 135 0 13 -29 -9 -155 -117z"/>
<path d="M42732 62914 c-116 -103 -212 -191 -212 -195 0 -10 423 359 428 373
2 4 2 8 0 8 -2 0 -99 -84 -216 -186z"/>
<path d="M58655 62923 c-38 -21 -151 -94 -250 -162 l-180 -125 -233 -188
c-129 -103 -229 -188 -224 -188 6 0 109 79 229 176 l218 176 201 138 c111 76
230 153 265 170 l63 32 111 -6 c60 -4 126 -10 145 -13 l35 -5 -10 10 -10 11
-145 6 -145 6 -70 -38z"/>
<path d="M16000 62909 l25 -12 145 -2 145 -3 -125 8 c-69 4 -145 10 -170 14
l-45 6 25 -11z"/>
<path d="M43560 62225 c0 -6 231 -267 283 -320 l19 -20 -3 12 c-4 12 -275 319
-290 329 l-9 5 0 -6z"/>
<path d="M89392 62109 c2 -6 91 -84 198 -175 l195 -164 4 11 3 11 -9 7 c-5 3
-93 77 -195 164 -103 86 -190 157 -193 157 -4 0 -5 -5 -3 -11z"/>
<path d="M57315 61862 c13 -14 475 -214 486 -210 7 3 -418 194 -476 214 l-20
7 10 -11z"/>
<path d="M58305 61431 c13 -13 389 -180 394 -175 2 2 2 5 0 7 -4 4 -313 141
-369 164 l-35 15 10 -11z"/>
<path d="M58866 60532 l-460 -117 -3 -11 -4 -11 463 117 462 117 4 11 c2 7 2
12 0 11 -1 0 -210 -53 -462 -117z"/>
<path d="M93046 60378 c-3 -7 -21 -67 -41 -133 l-37 -120 -35 -64 -35 -63
-141 -157 c-78 -86 -146 -159 -152 -163 l-10 -8 17 0 16 0 145 160 146 160 30
53 c30 53 63 143 99 275 l20 72 -9 0 c-5 0 -11 -6 -13 -12z"/>
<path d="M83830 59179 c0 -3 86 -169 191 -369 105 -200 198 -383 206 -407 9
-24 18 -42 21 -39 11 11 -37 112 -215 451 -165 313 -203 381 -203 364z"/>
<path d="M83804 59145 c4 -11 88 -175 188 -364 99 -189 188 -367 198 -395 l19
-51 0 16 c2 34 -31 103 -214 449 -177 336 -208 392 -191 345z"/>
<path d="M61211 58812 c-1 -12 65 -328 75 -365 3 -10 8 -16 11 -14 6 6 -64
343 -77 372 l-9 20 0 -13z"/>
<path d="M81600 57699 c-107 -15 -203 -28 -212 -28 l-18 -1 0 -15 0 -15 23 5
c12 2 107 16 212 30 104 15 191 28 193 30 2 2 2 8 1 12 l-4 9 -195 -27z"/>
<path d="M64084 57563 c3 -10 44 -205 91 -433 47 -228 90 -424 96 -435 l10
-20 -4 20 c-2 11 -44 215 -93 452 l-89 433 -8 0 -8 0 5 -17z"/>
<path d="M33770 57461 l0 -19 -12 -5 -13 -4 7 -8 8 -8 15 13 c17 14 20 36 5
45 l-10 6 0 -20z"/>
<path d="M64313 56670 c3 -14 24 -116 48 -228 l42 -203 13 5 12 4 21 -14 21
-15 0 -33 0 -33 -18 -16 -19 -17 -29 0 -30 0 -12 12 -12 12 -6 -6 -6 -6 24
-16 25 -16 31 6 31 6 21 23 22 24 -9 38 -9 38 -29 15 c-17 8 -31 15 -32 16 -2
0 -23 94 -47 208 -24 114 -47 210 -51 214 l-8 7 6 -25z"/>
<path d="M84450 56652 c0 -4 48 -25 108 -46 59 -22 124 -47 144 -57 l36 -19
47 -52 47 -53 29 -75 c16 -41 41 -120 55 -175 42 -166 45 -177 50 -172 8 8
-54 246 -89 341 l-32 88 -53 58 -53 59 -77 30 c-42 16 -107 41 -144 55 l-68
25 0 -7z"/>
<path d="M79455 56585 l-30 -25 -85 -31 -85 -30 -85 -15 -85 -14 76 4 76 3 95
32 94 33 40 34 c45 38 35 46 -11 9z"/>
<path d="M90646 56521 c5 -5 56 -30 114 -56 58 -25 138 -64 178 -85 l72 -39 0
9 c0 14 -93 63 -233 124 -129 56 -149 64 -131 47z"/>
<path d="M25996 55651 c18 -16 380 -275 452 -324 l74 -49 6 6 c7 7 13 3 -83
66 -44 30 -160 111 -257 182 -98 70 -183 128 -190 128 l-12 0 10 -9z"/>
<path d="M26592 55242 c2 -5 22 -25 46 -46 l42 -38 0 10 c0 5 -18 26 -40 46
-39 35 -55 44 -48 28z"/>
<path d="M53285 54930 c4 -14 9 -32 11 -41 l5 -16 -133 -199 c-73 -109 -135
-205 -136 -213 l-4 -13 10 6 11 6 241 -156 c133 -86 244 -154 246 -151 3 2
-105 75 -240 162 l-244 158 36 56 c19 31 80 122 134 204 l98 147 -20 38 -21
37 6 -25z"/>
<path d="M52345 54880 c3 -5 10 -10 15 -10 5 0 129 -82 277 -183 147 -101 281
-192 298 -203 l29 -19 -7 11 c-6 10 -163 119 -505 351 -51 35 -97 63 -103 63
l-10 0 6 -10z"/>
<path d="M54720 54620 l15 -10 85 0 85 0 78 -19 77 -18 0 8 0 7 -52 12 c-49
11 -219 29 -278 29 l-25 1 15 -10z"/>
<path d="M53010 54444 c0 -11 500 -337 506 -331 3 2 -105 76 -238 163 -134 87
-249 162 -255 167 l-13 9 0 -8z"/>
<path d="M88006 54211 l-6 -9 26 -16 25 -17 31 3 31 3 5 13 4 13 -25 -6 -25
-7 -30 16 -31 16 -5 -9z"/>
<path d="M51684 54168 l-7 -11 11 7 c12 7 16 16 8 16 -3 0 -8 -5 -12 -12z"/>
<path d="M52590 53968 c-36 -57 -106 -158 -157 -225 -50 -68 -87 -123 -83
-123 14 0 147 180 233 314 67 104 85 136 74 136 -1 0 -31 -46 -67 -102z"/>
<path d="M51410 53915 l-12 -15 10 0 c5 0 15 7 22 15 l12 15 -10 0 c-5 0 -15
-7 -22 -15z"/>
<path d="M52332 53580 c21 -57 133 -300 139 -300 9 0 -119 290 -134 305 l-10
10 5 -15z"/>
<path d="M51843 53002 c-139 -75 -253 -140 -253 -144 l0 -7 35 20 c19 12 124
69 233 127 177 95 257 142 242 141 -3 -1 -119 -62 -257 -137z"/>
<path d="M52671 52655 l-134 -65 5 -6 6 -5 131 65 c72 37 131 68 131 71 0 7 6
10 -139 -60z"/>
<path d="M78044 52403 l-11 -4 80 -222 c44 -122 82 -224 84 -226 2 -3 7 0 11
5 l9 9 -81 221 -81 221 -11 -4z"/>
<path d="M18500 52206 c0 -63 -25 -327 -36 -378 l-5 -26 9 -6 10 -6 6 33 c8
45 35 321 38 390 l3 57 -12 0 -13 0 0 -64z"/>
<path d="M54750 52164 c-25 -15 -112 -60 -193 -100 l-148 -75 6 -9 5 -9 69 31
c37 16 124 60 191 96 l124 67 4 13 4 12 -9 0 c-4 0 -28 -12 -53 -26z"/>
<path d="M52770 52052 c0 -17 221 -440 263 -504 29 -43 47 -59 47 -42 0 4 -15
30 -33 58 -19 28 -82 143 -140 256 -58 113 -113 214 -121 225 l-15 20 -1 -13z"/>
<path d="M53586 51696 l-218 -114 10 -6 11 -7 221 111 220 110 0 10 0 10 -12
0 c-7 -1 -111 -52 -232 -114z"/>
<path d="M45836 51511 l-6 -9 35 -22 36 -22 7 6 6 7 -29 24 c-33 27 -41 29
-49 16z"/>
<path d="M33444 51260 c3 -19 18 -131 32 -248 24 -199 48 -361 123 -822 17
-102 31 -192 32 -200 l1 -15 4 12 5 12 -31 203 c-17 112 -49 313 -70 448 -22
135 -49 331 -61 435 l-22 190 -9 10 -10 10 6 -35z"/>
<path d="M33848 49980 l-148 -7 -7 -6 c-3 -4 -4 -9 -2 -11 2 -2 81 0 174 5 94
4 198 8 233 8 l62 1 0 10 0 10 -82 -2 c-46 -1 -149 -4 -230 -8z"/>
<path d="M30520 49209 c1 -71 30 -512 35 -517 7 -7 7 12 -10 287 -8 134 -17
246 -20 249 -3 3 -5 -6 -5 -19z"/>
<path d="M33830 49020 c0 -8 28 -205 61 -439 l62 -426 9 -10 9 -10 -5 25 c-3
14 -33 214 -67 445 -53 370 -69 464 -69 415z"/>
<path d="M91417 48678 c-81 -94 -147 -176 -147 -182 l0 -10 8 10 c5 5 64 74
132 154 68 80 132 155 143 167 11 13 18 25 15 28 -2 3 -70 -73 -151 -167z"/>
<path d="M42057 48528 l4 -8 282 1 c155 1 332 5 392 9 l110 8 -397 -2 -396 -1
5 -7z"/>
<path d="M91057 48329 c-98 -104 -174 -189 -170 -189 11 0 329 334 343 360 6
11 9 20 8 19 -2 0 -83 -85 -181 -190z"/>
<path d="M33980 47682 c0 -35 33 -239 51 -315 12 -48 20 -90 18 -91 -2 -2
-107 -9 -234 -16 -126 -6 -241 -13 -254 -16 -60 -13 5 -12 237 1 138 9 255 15
259 14 4 -1 12 -1 17 0 l8 1 -10 13 c-14 17 -41 140 -62 285 -10 68 -21 127
-24 130 l-6 5 0 -11z"/>
<path d="M36868 47403 l-158 -4 0 -11 0 -11 38 7 c20 3 99 6 175 6 l137 0 0
10 0 10 -17 -2 c-10 -1 -89 -4 -175 -5z"/>
<path d="M20230 47386 l0 -14 81 -47 c111 -64 147 -78 282 -109 l118 -28 7 6
6 6 -10 8 c-5 5 -62 21 -126 35 l-118 27 -67 34 c-38 19 -92 49 -120 66 l-53
30 0 -14z"/>
<path d="M29588 46811 l-106 -6 -8 -7 -7 -8 114 6 c63 4 155 10 204 14 l90 7
-90 0 c-49 0 -138 -3 -197 -6z"/>
<path d="M81344 45948 l-7 -11 11 7 c7 4 12 9 12 12 0 8 -9 4 -16 -8z"/>
<path d="M81370 45888 c-5 -13 -21 -63 -36 -112 l-27 -89 -34 -20 c-41 -23
-36 -35 7 -17 l31 13 14 34 c18 44 65 213 59 213 -2 0 -9 -10 -14 -22z"/>
<path d="M81317 45853 c-2 -4 -8 -24 -12 -43 -4 -19 -16 -52 -26 -72 l-19 -37
-17 -10 -18 -10 22 -1 22 0 15 28 c18 36 49 142 43 148 -3 3 -7 2 -10 -3z"/>
<path d="M40755 45560 c-82 -16 -166 -29 -184 -29 l-35 -1 10 -10 11 -11 169
31 c93 16 179 30 190 30 l22 0 7 -32 8 -33 4 28 4 28 -12 15 -11 14 -17 -1
c-9 -1 -83 -14 -166 -29z"/>
<path d="M18486 45479 c-115 -43 -211 -80 -214 -83 -3 -3 2 -8 10 -11 l15 -6
206 77 207 76 0 8 c0 5 -3 11 -7 13 -5 2 -102 -31 -217 -74z"/>
<path d="M44290 45254 c-19 -8 -55 -20 -80 -26 l-45 -11 -125 -7 -125 -7 115
-1 115 -2 63 15 c35 8 80 24 100 35 44 23 32 26 -18 4z"/>
<path d="M58060 40455 l0 -445 10 0 10 0 0 445 0 445 -10 0 -10 0 0 -445z"/>
<path d="M83443 40795 c26 -52 218 -370 229 -380 l11 -10 -5 10 c-26 50 -225
383 -236 395 l-14 15 15 -30z"/>
<path d="M84507 39766 c-159 -101 -294 -189 -300 -196 l-12 -13 15 8 c24 13
584 367 595 377 l9 8 -9 0 c-6 0 -140 -83 -298 -184z"/>
<path d="M85884 37048 c-73 -51 -68 -47 -63 -53 7 -6 129 76 129 86 0 13 -2
12 -66 -33z"/>
<path d="M40520 36597 c-206 -44 -377 -82 -379 -84 -17 -13 51 -1 398 74 l394
84 8 -8 8 -8 46 -305 c40 -268 55 -348 55 -299 0 8 -20 150 -45 314 -25 165
-45 303 -45 308 l0 7 -32 -1 c-18 -1 -202 -38 -408 -82z"/>
<path d="M40755 36606 l-149 -32 9 -6 10 -5 133 29 132 30 13 -5 13 -5 38
-258 c21 -143 41 -272 46 -289 l8 -30 1 20 c0 11 -19 146 -42 299 l-42 279
-10 3 c-6 1 -77 -12 -160 -30z"/>
<path d="M98814 31738 l-22 -10 -11 -24 c-14 -30 -14 -34 -1 -34 l10 0 0 15 0
15 25 16 25 16 20 -5 20 -5 0 8 c0 8 -25 21 -38 19 -4 0 -17 -5 -28 -11z"/>
<path d="M95310 26779 c-96 -71 -177 -134 -179 -140 -3 -9 325 226 359 257
l14 14 -9 -1 c-6 0 -89 -58 -185 -130z"/>
<path d="M88206 25441 l-6 -9 32 -20 c18 -10 63 -36 100 -56 l68 -37 -6 16 -6
16 -84 49 c-93 55 -90 54 -98 41z"/>
<path d="M88515 25269 c11 -15 36 -36 57 -48 l37 -21 6 9 5 10 -47 27 c-27 15
-55 32 -63 38 l-14 11 19 -26z"/>
<path d="M87081 20413 c101 -112 494 -513 502 -513 4 0 -112 126 -259 280
-147 154 -271 280 -277 280 l-10 0 44 -47z"/>
</g>
</svg>
