<?xml version="1.0" standalone="no"?>
<!DOCTYPE svg PUBLIC "-//W3C//DTD SVG 20010904//EN"
 "http://www.w3.org/TR/2001/REC-SVG-20010904/DTD/svg10.dtd">
<svg version="1.0" xmlns="http://www.w3.org/2000/svg"
 width="7500.000000pt" height="7500.000000pt" viewBox="0 0 7500.000000 7500.000000"
 preserveAspectRatio="xMidYMid meet">
<metadata>
Created by potrace 1.16, written by Peter Selinger 2001-2019
</metadata>
<g transform="translate(0.000000,7500.000000) scale(0.075000,-0.075000)"
fill="#000000" stroke="none">
<path d="M84489 98806 c-2 -3 -77 -6 -167 -8 l-162 -3 0 -8 0 -9 187 8 188 7
25 8 25 7 -46 1 c-25 1 -48 -1 -50 -3z"/>
<path d="M87825 94133 l-6 -118 -20 -64 c-11 -35 -31 -86 -45 -112 -26 -53
-28 -59 -16 -59 12 0 78 144 90 195 6 22 13 93 17 158 l6 117 -9 0 -10 0 -7
-117z"/>
<path d="M87044 92954 c-49 -41 -131 -105 -181 -141 -82 -58 -108 -83 -87 -83
18 0 238 168 367 280 l9 8 -10 6 -9 5 -89 -75z"/>
<path d="M85240 91408 c-57 -95 -110 -183 -118 -195 l-14 -23 10 0 11 0 112
188 c62 103 114 190 116 195 l4 7 -9 0 -9 0 -103 -172z"/>
<path d="M36322 89909 l4 -12 81 -24 c45 -12 173 -43 285 -67 l203 -44 158
-23 157 -22 7 6 6 7 -6 6 c-3 3 -93 19 -199 34 l-193 29 -160 36 c-136 30
-243 57 -329 82 l-18 5 4 -13z"/>
<path d="M33720 89618 l0 -13 107 -65 c59 -36 142 -93 185 -128 l78 -63 10 6
10 6 -82 67 -82 66 -105 64 c-58 35 -109 66 -113 69 l-8 4 0 -13z"/>
<path d="M55669 87983 c-6 -36 18 -109 94 -293 32 -80 60 -146 61 -147 1 -1 7
2 14 6 l13 8 -55 129 c-29 71 -66 168 -81 217 l-27 87 -9 0 c-5 0 -10 -3 -10
-7z"/>
<path d="M47600 86264 c-69 -108 -127 -201 -129 -208 l-3 -11 14 15 c25 25
249 381 246 391 -2 4 -59 -80 -128 -187z"/>
<path d="M85740 84772 l0 -10 63 -7 62 -7 146 -39 c149 -40 179 -45 179 -31
l0 7 -166 44 -165 43 -60 5 -59 6 0 -11z"/>
<path d="M95492 80408 c-109 -149 -174 -241 -179 -256 l-6 -17 20 25 c24 30
197 270 207 288 18 31 -7 7 -42 -40z"/>
<path d="M11090 77887 l0 -15 303 -100 302 -101 235 -65 c198 -55 296 -80 478
-121 l22 -5 0 13 0 14 -87 18 c-49 10 -223 55 -388 101 l-300 83 -265 89
c-146 50 -273 93 -282 97 l-18 7 0 -15z"/>
<path d="M15986 76624 l-5 -14 8 0 c7 0 329 -146 740 -337 l74 -34 10 10 10
10 -89 41 c-49 23 -109 50 -134 60 -25 10 -172 77 -327 148 l-282 130 -5 -14z"/>
<path d="M74610 76405 c0 -7 72 -36 77 -31 3 3 -9 12 -26 20 -30 16 -51 20
-51 11z"/>
<path d="M3880 75302 l0 -10 193 -46 c105 -25 207 -49 225 -52 l32 -6 0 10 0
10 -187 45 c-104 25 -205 48 -225 52 l-38 7 0 -10z"/>
<path d="M5720 75016 l0 -16 18 0 c9 0 112 -9 227 -20 116 -11 211 -20 213
-20 1 0 2 6 2 13 l0 13 -212 18 c-117 10 -221 20 -230 22 l-18 5 0 -15z"/>
<path d="M26040 71871 l0 -9 63 -6 c34 -4 130 -13 212 -20 83 -8 158 -17 168
-21 l17 -7 0 15 0 15 -32 6 c-40 8 -339 36 -390 36 l-38 0 0 -9z"/>
<path d="M72550 71007 l0 -14 78 -36 c42 -19 118 -51 168 -70 l92 -35 161 -41
161 -41 132 -11 133 -10 234 3 234 3 4 10 3 10 -187 -3 -188 -4 -175 12 -175
12 -160 39 -160 39 -127 49 c-70 28 -149 62 -177 76 l-51 25 0 -13z"/>
<path d="M38626 70742 c-9 -8 33 -36 212 -142 l174 -102 5 6 c4 3 4 8 2 10
-16 15 -389 232 -393 228z"/>
<path d="M75372 70708 l5 -13 19 -3 c10 -2 77 -27 148 -54 l130 -51 57 -34 58
-35 11 7 11 7 -68 40 c-75 44 -179 88 -293 124 -89 28 -83 27 -78 12z"/>
<path d="M87580 66362 c0 -4 51 -36 113 -70 61 -34 144 -80 184 -102 l71 -41
6 9 5 9 -182 101 c-101 56 -186 102 -190 102 -4 0 -7 -3 -7 -8z"/>
<path d="M49150 65917 c-8 -7 -16 -19 -18 -27 -2 -8 -77 -136 -167 -285 -180
-298 -348 -595 -336 -595 4 0 40 60 80 133 100 180 434 737 443 737 4 0 80
-52 168 -115 88 -63 160 -111 160 -106 0 4 -72 59 -160 121 l-160 114 6 18 c6
21 4 22 -16 5z"/>
<path d="M1331 64479 c-42 -8 -70 -23 -60 -33 2 -2 25 0 50 6 l46 11 24 -6 24
-6 32 -63 31 -63 37 -43 37 -42 9 6 9 5 -34 42 c-19 23 -51 73 -71 110 l-38
69 -24 9 c-13 5 -25 9 -26 8 -1 -1 -22 -5 -46 -10z"/>
<path d="M59062 63910 c7 -11 16 -20 21 -20 l8 0 -11 20 c-6 11 -15 20 -20 20
l-10 0 12 -20z"/>
<path d="M59120 63842 c0 -13 15 -29 39 -41 l23 -13 -6 -36 -5 -36 15 16 16
16 -7 28 -6 29 -35 22 c-19 12 -34 19 -34 15z"/>
<path d="M41710 63630 l0 -13 7 6 6 7 -6 7 -7 6 0 -13z"/>
<path d="M41760 63575 c0 -5 15 -25 34 -45 19 -19 77 -93 130 -164 l95 -128
233 -264 c127 -145 234 -261 237 -259 2 3 -7 18 -21 33 -14 15 -114 128 -222
251 l-198 224 -98 131 c-102 136 -189 238 -190 221z"/>
<path d="M41160 63464 c-176 -150 -193 -165 -188 -169 3 -4 274 220 323 266
l9 9 -9 0 c-6 0 -66 -48 -135 -106z"/>
<path d="M41999 63333 c24 -46 510 -597 518 -589 3 3 -85 105 -194 228 -110
123 -227 258 -262 301 -61 75 -81 95 -62 60z"/>
<path d="M17280 62923 l-65 -4 -10 -11 -10 -10 55 7 c30 4 143 11 250 15 l195
7 -175 -1 c-96 0 -204 -1 -240 -3z"/>
<path d="M88992 62380 l4 -15 174 -147 173 -147 9 5 10 6 -9 7 c-41 36 -332
280 -347 291 l-19 15 5 -15z"/>
<path d="M56736 62111 c11 -11 563 -251 578 -251 l10 0 -9 9 c-12 11 -564 251
-579 251 l-10 0 10 -9z"/>
<path d="M45791 61988 c-1 -3 12 -105 29 -225 16 -120 30 -228 30 -240 l0 -23
-445 -381 c-245 -210 -443 -384 -441 -387 3 -2 209 171 459 385 l454 389 -8
14 c-4 8 -20 110 -34 225 -15 116 -30 219 -35 230 -5 11 -9 17 -9 13z"/>
<path d="M57330 61901 l0 -8 118 -51 c64 -28 283 -123 486 -212 203 -88 371
-158 374 -155 3 2 -11 12 -31 20 -54 22 -486 211 -687 300 -96 43 -194 86
-217 96 l-43 18 0 -8z"/>
<path d="M45665 61289 c-121 -105 -222 -195 -224 -202 -2 -6 27 15 65 48 38
33 143 122 232 199 89 76 162 140 162 142 0 14 -39 -17 -235 -187z"/>
<path d="M60733 61365 c2 -11 26 -140 53 -287 l49 -268 7 0 6 0 -4 18 c-2 9
-24 130 -49 267 -25 138 -50 259 -55 270 l-11 20 4 -20z"/>
<path d="M89550 61214 c-25 -65 -45 -122 -45 -127 l0 -9 78 -28 77 -29 0 8 c0
4 -31 18 -70 31 l-70 24 0 10 c0 5 18 57 41 114 22 57 39 108 37 113 -2 5 -23
-43 -48 -107z"/>
<path d="M31455 61104 c-77 -36 -169 -79 -204 -95 l-64 -29 5 -6 6 -5 199 91
c109 51 202 96 208 101 l9 9 -9 0 c-6 -1 -73 -30 -150 -66z"/>
<path d="M60695 60796 l-80 -23 -103 -58 c-57 -31 -101 -59 -99 -61 2 -3 51
22 108 54 l104 59 93 23 c50 12 92 24 92 26 0 8 -38 1 -115 -20z"/>
<path d="M46095 59958 l-220 -222 160 151 c198 187 303 293 290 293 -6 0 -109
-100 -230 -222z"/>
<path d="M44901 59978 c-1 -9 328 -362 342 -367 7 -2 -20 31 -60 75 -116 128
-282 300 -282 292z"/>
<path d="M62960 59610 l0 -13 7 6 6 7 -6 7 -7 6 0 -13z"/>
<path d="M62715 59571 c-99 -21 -187 -40 -195 -44 l-15 -7 25 4 c14 2 105 19
203 37 l177 33 0 8 c0 10 18 13 -195 -31z"/>
<path d="M57080 59448 c-38 -89 -158 -413 -154 -417 10 -11 26 23 98 209 41
107 78 203 81 213 l7 17 -11 0 -11 0 -10 -22z"/>
<path d="M61840 59389 c-225 -47 -233 -49 -228 -54 5 -5 429 82 436 90 9 9
-19 4 -208 -36z"/>
<path d="M59607 59315 c-251 -50 -460 -95 -464 -99 l-6 -6 9 0 c13 0 957 189
969 194 44 19 -118 -10 -508 -89z"/>
<path d="M83854 59128 c114 -211 366 -701 376 -733 l13 -40 4 11 c2 6 -4 32
-14 56 -26 66 -386 748 -394 748 -4 0 3 -19 15 -42z"/>
<path d="M85642 58911 c16 -45 175 -371 181 -371 16 0 3 33 -80 203 l-87 177
-9 0 -9 0 4 -9z"/>
<path d="M84010 58748 c0 -3 35 -71 77 -150 42 -78 87 -170 99 -203 l23 -60 0
16 c1 31 -26 94 -104 239 -72 135 -95 173 -95 158z"/>
<path d="M63904 58450 c4 -31 347 -1690 361 -1749 3 -13 8 -21 11 -19 2 3 -70
365 -161 804 -90 439 -172 837 -181 884 -10 47 -21 92 -26 100 l-9 15 5 -35z"/>
<path d="M61294 58415 c3 -11 19 -92 36 -179 18 -88 36 -169 40 -180 l9 -21 0
15 c1 24 -71 354 -81 370 l-9 15 5 -20z"/>
<path d="M64033 58010 c3 -14 65 -311 137 -660 135 -654 138 -666 145 -659 2
3 -58 302 -133 666 l-137 662 -9 8 -9 8 6 -25z"/>
<path d="M91208 57610 l-187 -169 9 -6 9 -5 185 166 c168 150 202 185 179 183
-5 0 -92 -76 -195 -169z"/>
<path d="M80338 57501 c-75 -43 -148 -87 -162 -98 l-25 -20 6 -6 6 -6 41 28
c22 15 97 58 165 96 l124 68 30 -36 c16 -21 33 -37 39 -37 l9 0 -32 45 -32 45
-16 -1 c-9 0 -77 -36 -153 -78z"/>
<path d="M80370 57477 c-58 -34 -125 -75 -149 -92 l-43 -29 10 -4 11 -3 43 29
c62 41 223 132 236 132 6 0 18 -10 26 -22 l16 -22 6 6 6 6 -23 31 c-13 17 -25
31 -28 30 -3 0 -53 -28 -111 -62z"/>
<path d="M63460 57052 c0 -17 100 -455 105 -460 17 -17 10 30 -37 237 l-52
231 -8 0 c-4 0 -8 -4 -8 -8z"/>
<path d="M84455 56650 c2 -3 63 -29 134 -56 l131 -49 32 -30 c18 -16 43 -43
56 -59 12 -16 25 -27 27 -24 3 3 -20 32 -52 64 l-58 60 -137 50 c-76 28 -136
48 -133 44z"/>
<path d="M79448 56581 l-37 -28 -96 -32 -97 -32 -84 -6 -84 -6 0 -9 0 -8 58 5
c117 12 139 16 228 46 l90 31 40 34 c47 40 34 44 -18 5z"/>
<path d="M61797 55915 l-6 -36 9 -56 c5 -31 12 -58 14 -60 3 -3 4 38 3 91 l-2
96 -6 0 c-4 0 -9 -16 -12 -35z"/>
<path d="M25492 55889 l4 -12 120 -75 c65 -41 143 -90 172 -109 30 -19 57 -33
62 -31 7 3 -55 44 -304 203 l-58 37 4 -13z"/>
<path d="M25955 55616 l-8 -19 17 -31 17 -31 245 -168 c135 -93 247 -167 250
-165 2 3 -103 78 -233 168 -131 90 -246 173 -255 184 l-17 21 -3 30 -4 30 -9
-19z"/>
<path d="M26590 55246 c0 -3 19 -24 43 -46 l42 -41 75 -38 75 -39 95 -15 c52
-8 114 -18 138 -21 l42 -6 0 9 0 8 -72 7 c-40 4 -100 14 -134 22 l-61 14 -74
34 -74 33 -20 23 c-22 25 -75 64 -75 56z"/>
<path d="M48431 54908 c6 -28 234 -496 237 -488 3 8 -223 488 -235 500 -3 3
-4 -3 -2 -12z"/>
<path d="M52255 54742 l-100 -157 -179 -238 c-98 -131 -176 -240 -174 -243 16
-15 565 762 556 786 -2 5 -48 -62 -103 -148z"/>
<path d="M51440 54365 l-12 -15 10 0 c12 0 26 19 19 26 -2 2 -10 -2 -17 -11z"/>
<path d="M51586 54060 c-74 -87 -97 -120 -83 -120 2 0 33 35 69 78 36 42 77
92 92 110 l28 32 -10 0 c-6 0 -49 -45 -96 -100z"/>
<path d="M52580 53952 c-41 -64 -108 -161 -148 -215 -40 -55 -71 -101 -69
-103 7 -7 139 173 221 301 66 103 84 135 74 135 -2 0 -37 -53 -78 -118z"/>
<path d="M51187 54043 l-5 -9 108 -87 109 -87 5 9 6 9 -98 78 c-53 42 -102 81
-109 86 l-11 9 -5 -8z"/>
<path d="M54201 53488 c-89 -43 -161 -81 -159 -84 6 -5 338 153 338 161 0 10
-16 3 -179 -77z"/>
<path d="M65580 53474 c-63 -13 -161 -33 -218 -45 -56 -12 -100 -24 -97 -27 6
-7 427 79 440 90 l9 8 -9 -1 c-6 -1 -62 -12 -125 -25z"/>
<path d="M51950 53460 l0 -9 15 5 c8 4 15 8 15 10 0 2 -7 4 -15 4 l-15 0 0
-10z"/>
<path d="M84211 52801 c-2 -27 118 -475 125 -469 3 4 -109 443 -121 473 l-3
10 -1 -14z"/>
<path d="M64623 52662 c-101 -20 -183 -39 -183 -42 l0 -7 196 38 c109 21 202
40 208 43 l11 4 -25 0 c-14 0 -107 -16 -207 -36z"/>
<path d="M27002 52263 l9 -68 -5 -160 -5 -160 8 30 9 30 1 136 c0 75 -2 164
-5 198 l-7 61 -7 0 -6 0 8 -67z"/>
<path d="M52930 52307 c0 -16 49 -103 70 -122 l22 -20 59 -117 c33 -65 61
-118 64 -118 3 0 -22 55 -56 123 l-61 122 -28 30 c-15 17 -37 48 -48 70 -12
22 -21 36 -22 32z"/>
<path d="M84105 52252 c-99 -25 -175 -47 -170 -48 6 -2 96 19 200 45 105 27
181 49 170 49 -11 0 -101 -20 -200 -46z"/>
<path d="M27696 52170 c-3 -60 -8 -161 -11 -222 l-4 -113 8 45 c10 52 26 400
18 400 -2 0 -7 -49 -11 -110z"/>
<path d="M78257 51973 l-6 -10 86 -217 85 -218 9 9 9 9 -80 203 c-44 112 -84
210 -89 219 l-8 15 -6 -10z"/>
<path d="M34306 51653 c-4 -43 -15 -120 -25 -171 l-18 -93 8 -5 8 -4 5 17 c12
41 35 184 42 256 l7 77 -10 0 -10 0 -7 -77z"/>
<path d="M33673 51282 l-203 -2 0 -8 0 -8 203 4 c182 4 220 6 206 15 -2 1 -95
1 -206 -1z"/>
<path d="M26775 50749 c-4 -99 -5 -183 -2 -185 3 -3 8 57 11 133 3 76 8 159
11 186 l4 47 -8 0 -8 0 -8 -181z"/>
<path d="M28472 50910 l-12 -20 -21 0 -20 0 6 -10 c10 -15 30 -12 56 9 l24 20
-10 10 -11 11 -12 -20z"/>
<path d="M32445 50755 c3 -17 32 -205 65 -420 33 -214 62 -394 64 -400 l4 -10
1 20 c1 11 -27 200 -61 420 l-61 400 -9 10 -8 9 5 -29z"/>
<path d="M49852 49649 c2 -7 10 -15 17 -17 l14 -4 -5 13 c-2 7 -10 15 -17 17
l-13 5 4 -14z"/>
<path d="M91439 48708 c-68 -78 -153 -178 -188 -223 -35 -44 -124 -141 -198
-216 -73 -75 -133 -141 -133 -145 0 -5 54 45 121 111 l121 120 81 100 c73 91
242 288 305 357 14 15 23 30 20 33 -2 3 -61 -59 -129 -137z"/>
<path d="M33595 48589 c-71 -5 -139 -10 -150 -13 -29 -6 264 5 360 14 l80 7
-80 0 c-44 0 -138 -4 -210 -8z"/>
<path d="M34480 48590 c0 -12 8 -12 35 0 l20 9 -27 0 -28 1 0 -10z"/>
<path d="M34083 48576 l-191 -11 -9 -9 -8 -8 75 6 c41 3 165 11 275 17 203 11
273 20 129 17 -43 0 -165 -6 -271 -12z"/>
<path d="M33854 48550 c3 -14 17 -114 32 -222 l27 -198 7 0 6 0 -30 214 -31
214 -8 9 -9 8 6 -25z"/>
<path d="M75943 48278 c3 -13 11 -94 18 -180 l12 -157 8 -13 c4 -7 10 -10 12
-8 3 4 -28 365 -32 378 -1 1 -6 2 -12 2 l-11 0 5 -22z"/>
<path d="M37260 47419 c-157 -9 -427 -22 -600 -27 l-315 -10 340 4 340 4 303
19 c167 11 306 22 310 25 l5 6 -49 -1 c-27 -1 -177 -10 -334 -20z"/>
<path d="M20667 47133 l-17 -48 -29 -162 -28 -163 7 0 7 0 27 160 28 161 19
49 19 50 -8 0 c-4 0 -16 -21 -25 -47z"/>
<path d="M35925 46831 c3 -68 5 -141 5 -163 l0 -38 8 0 7 0 -3 87 c-2 49 -8
122 -12 163 l-9 75 4 -124z"/>
<path d="M28617 46764 l-249 -12 -6 -8 -7 -7 115 6 c63 4 184 10 268 13 l152
7 0 8 0 9 -12 -1 c-7 -1 -125 -8 -261 -15z"/>
<path d="M93042 46050 l-22 -29 -82 -31 -82 -32 -28 6 -28 5 -95 -6 -95 -6 0
-10 0 -9 16 6 c9 4 69 7 133 7 l116 0 70 26 70 26 30 28 30 28 25 -14 25 -14
35 -1 35 0 53 -25 54 -25 54 0 54 0 71 36 c93 47 83 55 -12 9 l-73 -35 -41 0
-40 0 -47 25 -47 25 -38 0 -39 0 -39 20 c-22 11 -39 20 -40 19 0 0 -10 -13
-23 -29z"/>
<path d="M48206 45476 l-229 -71 -5 -14 -5 -14 14 5 c8 3 113 36 234 74 121
37 222 69 224 70 1 2 1 7 0 12 l-4 10 -229 -72z"/>
<path d="M11415 43264 c-110 -24 -201 -43 -202 -44 -2 0 -3 -4 -3 -10 l0 -10
13 0 c6 0 105 19 219 42 l208 43 0 13 0 12 -17 -1 c-10 -1 -108 -21 -218 -45z"/>
<path d="M50818 42857 l-138 -20 0 -7 0 -6 150 21 c82 12 153 25 157 28 l6 7
-19 -1 c-10 -1 -81 -11 -156 -22z"/>
<path d="M50593 42664 c6 -165 10 -195 22 -183 2 3 2 85 -2 182 l-6 177 -10 0
-10 0 6 -176z"/>
<path d="M50835 42489 c-71 -10 -134 -18 -139 -18 l-9 -1 5 -5 5 -6 164 21
c158 20 210 31 138 29 -19 -1 -92 -9 -164 -20z"/>
<path d="M87645 41939 c-187 -138 -349 -257 -359 -265 -11 -7 -18 -15 -15 -18
3 -3 703 504 725 527 l7 7 -9 0 c-5 -1 -162 -113 -349 -251z"/>
<path d="M93790 41863 c-63 -47 -149 -110 -190 -140 -41 -31 -67 -53 -56 -49
19 6 376 265 376 272 0 11 -25 -4 -130 -83z"/>
<path d="M28960 41150 c0 -10 36 -20 75 -20 36 0 155 -31 207 -53 l37 -15 139
-105 139 -105 59 -30 59 -29 48 -7 48 -7 29 6 c17 4 30 10 30 13 l0 7 -75 2
-76 2 -57 32 c-31 18 -118 79 -193 135 l-137 103 -38 16 c-56 24 -170 52 -236
58 l-58 6 0 -9z"/>
<path d="M60290 38450 c0 -5 5 -10 10 -10 l10 0 0 -16 0 -15 -47 -67 c-26 -37
-105 -130 -176 -207 l-129 -140 -82 -70 c-45 -39 -98 -81 -119 -94 -20 -12
-37 -27 -37 -32 l0 -10 61 43 c134 94 382 347 497 505 l52 73 0 14 0 15 -20
11 -20 11 0 -11z"/>
<path d="M86187 37247 c-125 -82 -226 -152 -223 -154 3 -3 105 61 228 142 243
161 233 153 227 159 -2 2 -107 -64 -232 -147z"/>
<path d="M85610 37336 c0 -10 111 -186 117 -186 3 0 -6 17 -18 38 -63 102 -99
156 -99 148z"/>
<path d="M60250 37241 c-25 -10 -72 -24 -105 -31 -80 -16 -258 -70 -252 -77 3
-3 46 7 96 21 49 14 121 33 158 40 67 14 163 50 163 61 0 8 -12 5 -60 -14z"/>
<path d="M85735 37130 c3 -5 8 -10 11 -10 3 0 2 5 -1 10 -3 6 -8 10 -11 10 -3
0 -2 -4 1 -10z"/>
<path d="M85866 37085 l-59 -44 -11 6 -11 6 12 -13 11 -12 61 42 c34 24 61 47
61 51 0 12 3 14 -64 -36z"/>
<path d="M42020 35768 l-105 -9 -404 -74 c-223 -41 -408 -75 -413 -75 -4 0 -8
-7 -8 -15 0 -8 3 -15 6 -15 4 0 189 34 413 75 l406 74 120 10 c66 6 125 11
132 11 l12 0 -5 15 -6 15 -22 -1 c-11 -1 -68 -6 -126 -11z"/>
<path d="M86487 35769 l-17 -10 5 -8 4 -8 36 11 c19 6 35 14 35 18 l0 8 -22 0
c-13 0 -31 -5 -41 -11z"/>
<path d="M86645 35711 c9 -19 46 -74 82 -123 35 -49 66 -95 69 -102 l5 -12 53
-27 53 -27 51 0 52 0 0 9 0 8 -60 6 -60 5 -32 19 -33 19 -66 91 c-36 49 -80
108 -98 129 l-33 39 17 -34z"/>
<path d="M86440 35690 l0 -13 7 6 6 7 -6 7 -7 6 0 -13z"/>
<path d="M41768 35678 c5 -7 12 -24 15 -38 l4 -25 2 31 1 32 -16 6 -17 6 11
-12z"/>
<path d="M41396 35468 l-16 -22 0 -36 0 -35 152 -447 c84 -247 156 -448 160
-448 3 0 -41 138 -99 308 -58 169 -128 376 -157 460 l-51 152 16 45 c18 50 17
55 -5 23z"/>
<path d="M41300 35469 c0 -4 9 -26 20 -50 l20 -44 -1 15 c0 15 -38 91 -39 79z"/>
<path d="M41527 34823 c19 -54 57 -159 83 -233 27 -74 49 -128 49 -120 1 20
-152 450 -160 450 -4 0 9 -44 28 -97z"/>
<path d="M85795 34690 c-122 -77 -164 -110 -140 -110 12 0 305 185 305 193 0
17 -33 1 -165 -83z"/>
<path d="M98809 31735 l-26 -14 -6 -23 -6 -22 6 -6 6 -5 4 11 c2 6 10 19 17
29 l13 18 31 1 c34 1 42 10 16 20 -21 8 -25 7 -55 -9z"/>
<path d="M95218 27016 c-98 -72 -183 -138 -190 -146 l-13 -14 30 19 c30 19
332 240 349 256 5 5 8 10 5 12 -2 2 -84 -55 -181 -127z"/>
<path d="M90495 24839 c100 -11 338 -46 373 -55 l22 -6 0 9 0 9 -147 23 -148
23 -95 3 -95 4 90 -10z"/>
<path d="M89600 21441 c0 -5 23 -104 51 -221 l51 -212 8 9 9 8 -52 213 -51
212 -8 0 c-4 0 -8 -4 -8 -9z"/>
<path d="M90450 19498 c0 -7 23 -104 52 -215 l52 -203 12 0 12 0 -39 148 c-22
81 -47 177 -56 215 l-17 67 -8 0 c-4 0 -8 -6 -8 -12z"/>
<path d="M92175 16350 c27 -27 51 -47 54 -45 6 7 -80 95 -93 95 l-10 0 49 -50z"/>
<path d="M6513 1322 l-92 -57 -91 -78 -91 -79 3 -10 c7 -19 18 -12 101 64 l83
76 102 62 102 62 -6 9 c-8 14 -12 12 -111 -49z"/>
</g>
</svg>
