<?xml version="1.0" standalone="no"?>
<!DOCTYPE svg PUBLIC "-//W3C//DTD SVG 20010904//EN"
 "http://www.w3.org/TR/2001/REC-SVG-20010904/DTD/svg10.dtd">
<svg version="1.0" xmlns="http://www.w3.org/2000/svg"
 width="7500.000000pt" height="7500.000000pt" viewBox="0 0 7500.000000 7500.000000"
 preserveAspectRatio="xMidYMid meet">
<metadata>
Created by potrace 1.16, written by Peter Selinger 2001-2019
</metadata>
<g transform="translate(0.000000,7500.000000) scale(0.075000,-0.075000)"
fill="#000000" stroke="none">
<path d="M84333 98843 l-173 -3 0 -10 0 -10 53 0 c28 0 116 3 195 7 l142 6 0
9 0 8 -22 -2 c-13 -1 -101 -4 -195 -5z"/>
<path d="M16846 95822 l-5 -9 184 -132 185 -132 10 6 11 7 -178 127 c-98 70
-183 130 -190 134 l-12 7 -5 -8z"/>
<path d="M98470 94404 c212 -85 396 -157 410 -160 14 -3 -153 67 -369 155
-217 89 -402 161 -410 161 -9 -1 157 -71 369 -156z"/>
<path d="M87817 93372 c-40 -42 -33 -51 8 -12 l36 35 79 -81 79 -80 14 8 c8 4
27 8 43 10 l29 2 38 -13 c21 -7 41 -11 44 -8 2 3 -20 13 -50 23 l-54 17 -30
-11 -30 -10 -74 74 -73 74 -16 0 -16 0 -27 -28z"/>
<path d="M56746 92952 c20 -19 737 -413 744 -410 9 3 -732 418 -746 418 l-8 0
10 -8z"/>
<path d="M94982 91176 c-6 -13 -16 -43 -22 -66 l-11 -42 12 -129 13 -130 7 13
7 13 -14 105 -13 105 5 35 c3 19 12 52 20 74 16 43 13 60 -4 22z"/>
<path d="M94685 90743 c-48 -5 -165 -41 -165 -52 l0 -7 70 22 70 23 72 2 73 1
89 -21 c49 -12 91 -19 93 -17 5 5 -32 16 -140 40 -67 16 -81 16 -162 9z"/>
<path d="M31495 89921 c11 -5 45 -11 75 -14 l55 -5 -50 13 c-27 7 -61 13 -75
13 l-25 1 20 -8z"/>
<path d="M31653 89893 l7 -6 7 6 6 7 -13 0 -13 0 6 -7z"/>
<path d="M84820 88835 c-30 -7 -124 -28 -209 -46 l-155 -33 12 -4 c16 -5 404
78 417 89 l9 9 -9 -1 c-6 0 -35 -7 -65 -14z"/>
<path d="M34790 88719 l-15 -9 164 -160 165 -160 8 8 8 8 -120 120 c-66 65
-127 122 -135 127 -8 4 -25 23 -38 42 l-23 34 -14 -10z"/>
<path d="M15946 87852 l-6 -9 194 -117 c107 -64 200 -116 207 -116 l13 0 -14
14 c-8 7 -89 57 -180 111 -91 54 -175 105 -187 112 l-21 14 -6 -9z"/>
<path d="M84277 86933 c-20 -48 -41 -94 -46 -101 l-8 -13 -74 21 c-75 20 -96
24 -87 15 7 -7 144 -45 161 -45 l14 0 42 96 c23 52 41 100 39 105 l-3 10 -38
-88z"/>
<path d="M41588 84431 c-42 -3 -79 -8 -81 -11 -3 -3 56 -5 131 -5 75 0 173 -4
217 -9 44 -5 78 -6 75 -3 -5 5 -254 39 -262 35 -1 -1 -38 -4 -80 -7z"/>
<path d="M77045 83347 c-60 -94 -116 -183 -124 -197 l-16 -24 12 7 c15 9 247
377 241 382 -3 3 -53 -73 -113 -168z"/>
<path d="M77930 83511 c0 -4 82 -33 182 -65 99 -32 188 -60 197 -63 l16 -6
-10 10 c-5 6 -75 32 -155 57 -80 26 -164 53 -187 61 l-43 14 0 -8z"/>
<path d="M82107 83413 c-12 -11 -8 -23 8 -23 l15 0 0 15 c0 16 -12 20 -23 8z"/>
<path d="M92538 82472 c-42 -59 -95 -133 -119 -166 l-42 -59 14 5 14 5 112
156 112 156 -8 5 -8 5 -75 -107z"/>
<path d="M92542 82405 c-85 -119 -134 -198 -110 -175 5 4 141 194 207 288 l22
32 -8 0 c-4 0 -54 -65 -111 -145z"/>
<path d="M79654 82403 c3 -10 26 -99 51 -198 25 -99 48 -186 50 -193 l5 -13 9
5 9 6 -43 163 c-23 89 -48 181 -54 205 l-12 42 -10 0 -10 0 5 -17z"/>
<path d="M95463 80437 c-17 -24 -67 -94 -112 -155 -45 -62 -78 -112 -73 -112
4 0 59 70 120 155 62 85 108 155 104 155 -5 0 -22 -20 -39 -43z"/>
<path d="M95478 80388 c-134 -183 -176 -243 -172 -247 5 -6 -3 -16 107 136
112 155 131 183 123 183 -3 0 -29 -32 -58 -72z"/>
<path d="M42355 79550 l-30 -8 33 -1 32 -1 0 10 c0 6 -1 9 -2 9 -2 -1 -16 -5
-33 -9z"/>
<path d="M32970 79193 c-19 -9 -114 -40 -209 -68 l-175 -52 -4 -11 -4 -12 14
4 c7 3 90 27 183 55 94 27 187 57 208 66 l38 16 -6 9 c-3 6 -7 10 -8 9 -1 0
-18 -8 -37 -16z"/>
<path d="M76943 78923 l-191 -148 10 -12 9 -12 182 141 c100 78 186 145 192
150 l9 8 -10 10 -11 11 -190 -148z"/>
<path d="M70510 78631 c-6 -12 -40 -90 -76 -173 l-65 -152 -5 -45 -6 -46 11
15 c6 8 11 26 11 40 l0 25 75 174 c41 96 73 176 71 178 -2 3 -9 -5 -16 -16z"/>
<path d="M15987 76627 l-3 -11 204 -93 205 -94 5 6 6 5 -10 9 c-5 5 -98 49
-206 99 l-197 90 -4 -11z"/>
<path d="M36246 68042 l-5 -8 199 -99 199 -99 7 7 c4 4 5 9 3 11 -6 6 -388
196 -393 196 -3 0 -7 -4 -10 -8z"/>
<path d="M41235 66400 c3 -5 8 -10 11 -10 3 0 2 5 -1 10 -3 6 -8 10 -11 10 -3
0 -2 -4 1 -10z"/>
<path d="M41920 66052 c0 -5 12 -18 28 -27 15 -10 144 -98 287 -195 248 -169
422 -277 431 -267 3 2 -37 28 -88 57 -83 47 -260 166 -538 360 -52 37 -101 70
-107 74 l-13 7 0 -9z"/>
<path d="M83996 65871 l-200 -67 -3 -11 -4 -11 208 68 208 69 3 11 4 10 -9 -1
c-4 0 -98 -31 -207 -68z"/>
<path d="M31640 65482 l0 -20 38 -6 c20 -3 291 -35 602 -71 541 -63 678 -80
728 -91 l22 -4 0 20 0 20 -22 4 c-61 13 -207 32 -723 91 -308 36 -579 68 -602
71 l-43 6 0 -20z"/>
<path d="M48745 65312 c-54 -97 -112 -202 -129 -232 l-29 -55 12 11 c18 16
252 436 249 445 -2 5 -48 -71 -103 -169z"/>
<path d="M31615 64943 l10 -10 160 -17 c88 -10 168 -20 178 -22 l17 -5 0 9 0
9 -157 17 c-87 10 -171 20 -188 23 l-30 6 10 -10z"/>
<path d="M26500 64761 c-371 -75 -681 -139 -689 -142 l-15 -5 7 -10 6 -11 710
141 711 141 0 13 0 12 -27 -1 c-16 -1 -332 -63 -703 -138z"/>
<path d="M70704 64493 c52 -104 97 -198 101 -210 l6 -23 10 0 10 0 -4 8 c-2 4
-48 98 -102 210 -54 111 -102 202 -107 202 l-8 0 94 -187z"/>
<path d="M37057 64570 l-5 -20 26 -6 c15 -3 33 -7 40 -10 6 -2 90 -13 185 -24
94 -11 182 -23 193 -25 l22 -5 5 20 5 19 -27 5 c-14 3 -104 15 -200 26 l-174
21 -18 10 c-10 5 -24 9 -32 9 l-15 0 -5 -20z"/>
<path d="M92129 64080 l-67 -19 -96 -62 -96 -61 0 -10 0 -9 13 7 c6 4 49 31
94 60 l81 52 74 21 c41 12 89 21 106 21 l32 0 0 10 0 10 -37 -1 c-21 0 -68 -9
-104 -19z"/>
<path d="M89371 64024 c-28 -32 -51 -62 -51 -67 0 -5 23 16 51 47 l51 56 185
-213 185 -212 39 -60 39 -60 0 13 c0 26 -85 137 -257 335 -97 111 -179 206
-183 210 l-7 8 -52 -57z"/>
<path d="M41710 63630 l0 -13 7 6 6 7 -6 7 -7 6 0 -13z"/>
<path d="M41270 63574 c0 -9 233 -273 254 -286 26 -17 24 -6 -3 20 -16 15 -75
79 -131 142 -57 63 -107 119 -111 125 l-9 9 0 -10z"/>
<path d="M41760 63574 c0 -6 12 -21 26 -35 14 -13 59 -68 100 -123 41 -54 74
-94 74 -88 0 13 -104 153 -158 212 l-41 45 -1 -11z"/>
<path d="M41033 63357 c-34 -29 -62 -56 -62 -60 -1 -10 39 19 99 72 66 59 35
49 -37 -12z"/>
<path d="M41990 63344 c0 -12 111 -146 215 -259 55 -60 147 -163 204 -228 57
-65 106 -116 108 -113 5 4 -157 193 -347 405 -52 59 -111 127 -130 153 -32 43
-50 58 -50 42z"/>
<path d="M40941 63291 l-13 -8 80 -119 80 -119 59 -56 c32 -31 67 -61 78 -67
l20 -10 50 35 c81 58 215 174 227 196 l10 20 10 -16 c5 -10 13 -17 19 -17 l10
0 -18 25 -18 24 -12 1 -13 0 0 -9 c0 -9 -152 -143 -222 -198 l-27 -20 6 -7 6
-6 -17 0 -17 0 -61 58 -61 57 -81 122 -82 122 -13 -8z"/>
<path d="M60550 63237 c0 -7 -31 -58 -69 -113 l-68 -99 -12 -35 c-6 -19 -15
-68 -19 -107 l-8 -73 7 0 7 0 7 72 7 71 15 36 c8 20 43 77 78 127 34 50 66
100 69 112 l7 22 -10 0 -11 0 0 -13z"/>
<path d="M42732 62914 c-116 -103 -212 -191 -212 -195 0 -10 423 359 428 373
2 4 2 8 0 8 -2 0 -99 -84 -216 -186z"/>
<path d="M17730 62938 c-394 -11 -991 -51 -977 -64 2 -3 158 7 346 21 l342 25
157 0 c86 0 228 3 315 7 l157 6 0 9 0 8 -27 -2 c-16 -1 -156 -5 -313 -10z"/>
<path d="M59041 62936 c2 -3 83 -12 179 -20 96 -9 198 -18 225 -22 l50 -5 -10
9 -10 9 -200 17 c-209 17 -241 19 -234 12z"/>
<path d="M16720 62800 l0 -90 10 0 10 0 0 90 0 90 -10 0 -10 0 0 -90z"/>
<path d="M41102 62797 l-11 -13 150 -172 c83 -95 153 -172 157 -172 4 0 13 4
21 9 l15 9 -69 79 c-189 216 -240 273 -246 273 -4 0 -11 -6 -17 -13z"/>
<path d="M42394 62667 c-76 -71 -185 -166 -441 -384 l-53 -44 0 -19 c0 -10 5
-22 10 -25 l10 -6 0 22 0 21 38 35 c20 19 136 119 257 223 226 193 282 246
273 255 -3 3 -45 -32 -94 -78z"/>
<path d="M58660 62441 c0 -4 95 -49 210 -99 l210 -90 0 8 0 8 -210 90 c-115
50 -210 87 -210 83z"/>
<path d="M56760 62146 c0 -12 557 -252 566 -244 2 3 -119 57 -269 122 -149 64
-278 119 -284 122 l-13 6 0 -6z"/>
<path d="M56736 62112 c5 -5 133 -62 284 -127 151 -65 280 -120 285 -123 l10
-5 -10 11 c-10 11 -557 252 -572 252 l-7 0 10 -8z"/>
<path d="M4100 62001 c0 -11 327 -281 341 -281 l11 0 -4 10 c-5 14 -326 280
-338 280 -5 0 -10 -4 -10 -9z"/>
<path d="M59874 61773 l-68 -78 -84 -128 c-46 -71 -81 -131 -78 -134 3 -3 44
55 92 128 l87 134 57 65 c57 66 75 90 66 90 -2 0 -35 -35 -72 -77z"/>
<path d="M45665 61289 c-121 -105 -222 -195 -224 -202 -2 -6 27 15 65 48 38
33 143 122 232 199 89 76 162 140 162 142 0 14 -39 -17 -235 -187z"/>
<path d="M60010 61029 c-41 -38 -112 -100 -157 -136 -73 -59 -96 -83 -77 -83
11 0 172 132 254 209 l85 80 -15 0 -15 0 -75 -70z"/>
<path d="M60695 60797 l-80 -22 -191 -107 -190 -108 -95 -81 c-51 -45 -96 -83
-98 -85 -2 -2 0 -4 6 -4 6 0 49 34 97 76 l86 76 201 113 200 113 90 22 c49 12
89 24 89 26 0 8 -37 2 -115 -19z"/>
<path d="M55552 60438 l-2 -53 -50 -190 c-27 -104 -47 -191 -45 -193 6 -7 9 1
65 221 51 201 56 232 42 255 l-8 12 -2 -52z"/>
<path d="M62595 60359 c-77 -16 -164 -34 -193 -40 -30 -6 -51 -13 -49 -16 7
-6 367 66 387 78 l15 8 -10 0 c-5 0 -73 -13 -150 -30z"/>
<path d="M58365 60288 l35 -73 30 -34 30 -34 54 6 55 5 18 12 18 11 -25 -5
c-14 -3 -44 -8 -67 -12 l-42 -6 -35 38 -35 38 -26 63 -27 63 -9 0 -8 0 34 -72z"/>
<path d="M61661 60174 c-118 -24 -216 -46 -219 -49 -17 -17 27 -10 396 66 l52
10 0 10 c0 11 24 15 -229 -37z"/>
<path d="M61910 60181 c0 -9 56 -269 119 -556 l40 -180 -10 -6 c-5 -3 -92 -22
-192 -43 -209 -43 -261 -56 -255 -62 3 -2 100 16 217 41 116 25 220 45 229 45
l17 0 53 -247 c29 -137 65 -311 79 -388 l26 -140 5 13 c4 14 -31 201 -100 525
l-51 238 6 5 c7 7 339 77 615 130 111 22 202 42 202 45 0 6 -340 -58 -635
-119 -104 -22 -191 -39 -192 -38 -2 2 -70 309 -77 351 -3 15 -22 110 -43 211
l-38 184 -7 0 c-5 0 -8 -4 -8 -9z"/>
<path d="M83355 59900 c14 -28 62 -107 106 -177 103 -161 339 -577 455 -800
49 -95 93 -173 97 -173 4 0 -20 53 -54 118 -34 64 -84 160 -112 212 -96 184
-282 507 -370 645 -49 77 -99 159 -110 183 -12 23 -25 42 -29 42 l-8 0 25 -50z"/>
<path d="M58810 59913 c0 -6 28 -70 62 -144 34 -74 105 -237 158 -364 l97
-230 19 -3 19 -4 -16 14 -16 13 -53 130 c-51 124 -257 585 -266 594 -2 2 -4 0
-4 -6z"/>
<path d="M55282 59498 c-27 -83 -113 -431 -110 -440 2 -6 32 96 66 227 34 131
60 240 58 242 -2 3 -9 -11 -14 -29z"/>
<path d="M55326 59509 c-18 -54 -116 -453 -113 -462 2 -6 31 97 65 228 34 132
59 241 57 243 -3 3 -7 -1 -9 -9z"/>
<path d="M49462 59248 c-89 -117 -159 -214 -156 -217 2 -2 5 -2 7 0 104 132
318 422 314 425 -3 3 -77 -91 -165 -208z"/>
<path d="M61875 59355 c-82 -18 -177 -38 -210 -45 l-60 -13 11 -4 c11 -4 434
84 442 92 11 10 -37 2 -183 -30z"/>
<path d="M63844 58940 c50 -247 94 -450 97 -450 4 0 -35 202 -85 450 -50 247
-94 450 -97 450 -3 0 35 -202 85 -450z"/>
<path d="M59390 59272 c-222 -44 -237 -48 -229 -56 6 -5 456 88 465 97 l7 7
-9 -1 c-5 -1 -110 -22 -234 -47z"/>
<path d="M61585 59285 c3 -16 36 -184 74 -372 l68 -343 -31 -8 c-17 -5 -109
-29 -203 -53 -95 -24 -173 -47 -173 -51 l0 -6 188 48 c103 27 198 51 212 54
14 3 122 26 240 51 263 55 263 55 258 61 -3 2 -111 -18 -241 -45 l-236 -48 -5
16 c-3 9 -34 167 -71 351 -36 184 -70 344 -75 355 l-10 20 5 -30z"/>
<path d="M63810 58926 c0 -4 47 -237 106 -518 58 -282 132 -651 164 -822 71
-372 284 -1366 288 -1344 2 8 -42 224 -97 479 -55 255 -129 617 -165 805 -36
187 -115 578 -176 869 -95 457 -120 567 -120 531z"/>
<path d="M50380 58844 c0 -5 75 -65 165 -134 l166 -125 77 -21 c42 -12 119
-33 171 -48 l95 -26 -10 10 c-5 5 -83 30 -172 55 l-163 46 -152 116 c-84 64
-158 120 -164 126 l-13 9 0 -8z"/>
<path d="M62853 58801 c-94 -20 -175 -39 -179 -43 -9 -10 -29 -14 206 37 l205
43 -30 0 c-16 -1 -107 -17 -202 -37z"/>
<path d="M51140 58666 l0 -15 103 -74 c56 -40 119 -84 139 -96 l36 -22 7 11
c4 6 5 12 4 14 -2 1 -29 17 -59 36 -30 18 -89 58 -130 90 -41 31 -81 60 -87
64 l-13 7 0 -15z"/>
<path d="M61995 58585 c-237 -49 -674 -157 -659 -162 6 -2 119 23 250 56 132
33 325 76 429 97 105 20 194 41 200 45 l9 9 -14 -1 c-8 -1 -105 -21 -215 -44z"/>
<path d="M59595 58552 c13 -13 766 -293 778 -289 6 2 -676 262 -777 296 l-11
4 10 -11z"/>
<path d="M60652 58316 c-111 -24 -206 -47 -210 -51 l-7 -8 25 6 c14 4 108 23
210 43 102 20 189 41 195 45 l9 9 -9 -1 c-6 0 -101 -20 -213 -43z"/>
<path d="M91810 58146 c0 -3 89 -67 198 -143 l197 -137 174 -103 c96 -57 177
-101 179 -98 7 7 17 0 -163 105 l-160 93 -207 143 c-196 136 -218 150 -218
140z"/>
<path d="M49960 58094 c0 -2 62 -35 138 -73 l137 -68 90 -27 c50 -15 96 -29
103 -31 l12 -4 0 7 0 7 -87 24 -88 24 -60 30 c-104 52 -245 116 -245 111z"/>
<path d="M62562 57872 c-354 -75 -639 -138 -633 -140 6 -2 152 26 324 62 171
36 462 97 646 136 304 63 379 82 325 79 -10 -1 -308 -62 -662 -137z"/>
<path d="M50442 57854 c3 -3 107 -34 229 -68 123 -35 235 -66 249 -71 l25 -7
-10 10 -10 10 -237 66 c-131 36 -240 66 -244 66 l-7 0 5 -6z"/>
<path d="M64124 57573 c2 -10 17 -79 31 -153 15 -74 76 -366 136 -649 60 -283
109 -519 109 -524 l0 -9 14 5 14 5 21 -14 21 -15 0 -33 0 -33 -18 -16 -19 -17
-29 0 -30 0 -12 12 -12 12 -6 -6 -6 -6 24 -16 25 -16 31 6 31 6 21 23 22 24
-9 38 -9 38 -29 15 c-17 8 -31 15 -33 16 -4 1 -165 769 -223 1062 l-52 262 -9
0 -9 0 5 -17z"/>
<path d="M93440 57342 c0 -4 37 -23 83 -42 l82 -33 112 -69 c62 -37 120 -71
129 -75 l17 -6 -6 10 c-4 6 -57 41 -119 79 l-113 69 -89 38 c-99 41 -96 40
-96 29z"/>
<path d="M47808 56992 l-178 -25 0 -7 0 -6 203 28 202 28 23 -4 22 -3 0 8 0 9
-47 -1 c-27 -1 -128 -13 -225 -27z"/>
<path d="M79474 56551 l-39 -28 -84 -32 -84 -32 -91 -10 c-50 -6 -101 -12
-114 -15 l-23 -5 5 -7 5 -8 73 8 c40 5 98 13 130 19 l56 9 84 40 c45 21 94 48
108 59 l25 20 -6 5 -5 6 -40 -29z"/>
<path d="M82693 56497 c3 -7 27 -106 53 -220 27 -114 52 -207 56 -207 l6 0
-12 53 c-7 28 -30 127 -52 219 l-39 168 -9 0 -8 0 5 -13z"/>
<path d="M90620 56491 c0 -5 51 -30 113 -57 61 -26 145 -66 185 -87 l72 -39 0
9 0 9 -92 47 c-51 26 -135 64 -185 86 l-93 40 0 -8z"/>
<path d="M37145 56136 c-187 -71 -255 -99 -251 -103 2 -3 67 19 143 48 76 28
161 57 188 64 l50 13 -35 0 -35 1 -60 -23z"/>
<path d="M81343 56133 c-43 -29 -257 -232 -251 -238 1 -2 59 48 126 111 l124
114 36 20 37 19 -16 1 -16 0 -40 -27z"/>
<path d="M25060 56123 c0 -5 46 -28 102 -53 l102 -45 108 -69 c60 -37 111 -66
114 -63 3 3 -38 33 -92 68 l-97 63 -115 53 c-125 58 -122 56 -122 46z"/>
<path d="M63020 55900 l0 -20 9 0 9 0 -5 20 c-3 11 -7 20 -9 20 -2 0 -4 -9 -4
-20z"/>
<path d="M62757 55805 c-229 -49 -267 -59 -256 -69 2 -2 127 22 277 52 l272
56 0 8 0 8 -22 -1 c-13 -1 -135 -25 -271 -54z"/>
<path d="M36430 55814 c-47 -19 -114 -42 -150 -50 l-65 -16 -32 6 -33 5 0 -10
0 -9 48 0 c26 0 67 5 92 11 48 10 218 77 235 91 l9 8 -9 0 c-6 -1 -48 -17 -95
-36z"/>
<path d="M25990 55663 c0 -4 96 -77 213 -160 182 -131 246 -175 315 -217 l12
-7 0 8 c0 4 -18 18 -39 30 -32 19 -137 92 -448 317 -29 21 -53 34 -53 29z"/>
<path d="M26591 55243 c2 -5 24 -27 49 -50 l45 -41 71 -35 71 -36 84 -15 c127
-23 347 -45 507 -51 l142 -6 0 11 0 10 -141 0 -140 0 -173 25 c-95 13 -199 31
-232 38 l-59 14 -70 36 -70 35 -25 27 c-14 15 -33 31 -44 37 l-18 10 3 -9z"/>
<path d="M52323 54940 c14 -11 29 -20 34 -20 11 1 -37 40 -49 40 l-11 0 26
-20z"/>
<path d="M50190 54573 c0 -12 38 -48 45 -41 3 2 -6 15 -20 28 l-25 23 0 -10z"/>
<path d="M52801 54294 l-142 -216 3 -10 4 -10 50 78 c28 44 93 143 144 222 51
78 91 145 88 148 -3 2 -69 -93 -147 -212z"/>
<path d="M52870 54224 l-151 -225 3 -10 3 -10 156 235 c85 130 152 236 147
236 -4 0 -76 -102 -158 -226z"/>
<path d="M49082 54218 c-128 -66 -231 -122 -229 -125 5 -4 477 236 477 243 0
10 -27 -3 -248 -118z"/>
<path d="M62131 54168 c-1 -22 87 -449 94 -456 3 -3 5 -1 5 5 0 13 -89 444
-94 458 l-4 10 -1 -17z"/>
<path d="M21201 53936 c2 -3 60 -14 128 -26 l124 -21 86 -34 c47 -19 87 -33
88 -31 2 2 -29 18 -69 36 l-73 32 -125 24 c-122 23 -168 29 -159 20z"/>
<path d="M49070 53678 c132 -268 251 -489 260 -485 50 22 409 211 406 214 -2
2 -94 -41 -205 -96 l-200 -101 -46 78 c-25 42 -110 206 -187 365 -78 158 -145
287 -149 287 -5 0 50 -118 121 -262z"/>
<path d="M50720 53921 c0 -4 -17 -19 -37 -33 l-38 -25 -217 -89 c-120 -49
-218 -92 -218 -96 0 -4 71 23 158 58 86 36 186 77 222 92 36 14 82 37 103 50
l37 25 0 13 c0 8 -2 14 -5 14 -3 0 -5 -4 -5 -9z"/>
<path d="M48978 53780 c37 -76 70 -139 74 -140 4 0 -23 63 -59 140 -37 77 -70
140 -74 140 l-8 0 67 -140z"/>
<path d="M83995 53729 l-18 -52 7 -91 7 -92 24 -103 c13 -56 26 -105 29 -109
l6 -5 0 9 c0 5 -9 47 -20 92 -11 46 -25 126 -31 178 l-10 94 16 62 c19 76 13
87 -10 17z"/>
<path d="M68090 53665 c-85 -18 -181 -38 -213 -45 -32 -6 -56 -14 -53 -17 4
-5 416 76 425 84 15 12 -22 6 -159 -22z"/>
<path d="M48898 53547 c-92 -45 -168 -85 -168 -89 0 -7 329 148 345 163 l9 9
-9 -1 c-6 0 -85 -38 -177 -82z"/>
<path d="M30248 53250 l5 -345 -50 -60 c-28 -33 -58 -76 -69 -95 l-18 -35 -21
-150 -20 -150 13 -140 c8 -77 16 -142 18 -144 11 -12 11 15 0 141 l-12 136 17
149 16 148 14 30 c7 17 37 60 66 96 l53 66 -1 294 -1 294 -8 55 -8 55 6 -345z"/>
<path d="M52415 53480 l-6 -10 10 0 c5 0 13 5 16 10 l6 10 -10 0 c-5 0 -13 -4
-16 -10z"/>
<path d="M51350 53460 l-15 -10 12 0 c6 0 15 5 18 10 8 12 4 12 -15 0z"/>
<path d="M84143 53049 c33 -134 62 -238 64 -232 5 14 -106 455 -117 467 -4 4
19 -101 53 -235z"/>
<path d="M50228 53165 l-207 -103 14 -5 14 -6 3 9 c2 5 95 54 208 109 113 55
198 100 190 100 -8 0 -108 -47 -222 -104z"/>
<path d="M52228 53223 l13 -5 6 6 6 6 -19 -1 -19 -1 13 -5z"/>
<path d="M52270 53203 c0 -21 129 -290 198 -413 l70 -125 15 -3 16 -3 100 58
c56 31 101 60 101 64 0 4 -40 -16 -88 -46 -49 -29 -98 -56 -109 -59 l-20 -6
-10 12 c-26 33 -144 257 -202 383 -68 149 -71 154 -71 138z"/>
<path d="M12845 52942 c-82 -119 -181 -261 -218 -314 l-68 -98 13 0 13 0 147
213 c81 116 179 258 218 315 l71 102 -13 0 -13 -1 -150 -217z"/>
<path d="M34687 53016 l-6 -15 -26 -7 -25 -6 -15 12 -15 12 0 -15 0 -15 16 -6
c9 -3 24 -6 34 -6 l18 0 23 19 24 20 -11 11 -11 11 -6 -15z"/>
<path d="M49765 52919 c-248 -136 -238 -130 -232 -135 5 -5 407 213 427 232 8
8 12 14 10 13 -3 0 -95 -50 -205 -110z"/>
<path d="M77964 52853 c3 -10 17 -65 30 -123 27 -112 109 -362 196 -600 60
-161 57 -156 66 -147 l7 6 -48 126 c-72 194 -174 501 -196 595 -11 47 -24 102
-30 123 l-10 37 -10 0 -10 0 5 -17z"/>
<path d="M12622 52717 c-56 -81 -102 -149 -102 -152 0 -22 31 15 114 135 l98
140 -4 12 -4 11 -102 -146z"/>
<path d="M77736 52774 c-104 -40 -191 -75 -193 -78 -2 -2 -1 -6 4 -9 l8 -5
198 76 197 76 0 8 c0 14 -21 7 -214 -68z"/>
<path d="M65060 52747 c-204 -40 -217 -44 -209 -51 5 -5 451 82 458 89 10 11
-52 1 -249 -38z"/>
<path d="M49560 52772 c0 -17 83 -223 88 -218 4 4 -75 216 -84 225 -2 2 -4 -1
-4 -7z"/>
<path d="M52800 52771 c0 -6 4 -13 10 -16 l10 -6 -6 15 c-7 18 -14 21 -14 7z"/>
<path d="M52775 52700 l-6 -10 15 6 c18 7 21 14 7 14 -6 0 -13 -4 -16 -10z"/>
<path d="M78040 52393 c0 -9 151 -425 157 -432 1 -2 6 -2 9 1 l6 6 -79 216
c-43 119 -81 216 -85 216 -5 0 -8 -3 -8 -7z"/>
<path d="M81976 52372 c5 -5 119 -46 254 -92 135 -46 265 -93 290 -106 l46
-22 41 -45 42 -45 16 -59 c9 -32 20 -67 26 -78 l9 -20 -5 30 c-3 17 -13 55
-21 85 l-16 55 -56 55 -57 55 -65 23 c-172 63 -493 172 -503 172 l-11 0 10 -8z"/>
<path d="M27045 52108 l0 -228 8 0 7 0 -1 173 c-1 94 -4 197 -8 227 l-7 55 1
-227z"/>
<path d="M46610 52296 c0 -2 60 -29 133 -61 72 -32 162 -76 200 -98 l67 -39
26 -30 25 -31 6 7 7 6 -35 36 -34 36 -60 33 c-64 36 -309 145 -325 145 -6 0
-10 -2 -10 -4z"/>
<path d="M29987 52140 l-59 -8 -9 -9 -10 -10 11 -99 c12 -107 19 -148 25 -143
2 2 -3 56 -10 119 l-12 115 6 7 c4 4 40 12 81 18 40 6 76 13 79 15 6 6 -27 4
-102 -5z"/>
<path d="M91260 51582 c0 -4 50 -32 110 -62 61 -30 110 -57 110 -60 0 -3 -54
-104 -119 -225 l-120 -219 6 -9 5 -9 124 229 c68 125 124 233 124 238 l0 10
-115 58 c-122 60 -125 62 -125 49z"/>
<path d="M37223 51546 l-141 -11 -8 -8 -7 -7 74 6 c41 3 144 12 229 19 l155
12 -80 0 c-44 0 -144 -5 -222 -11z"/>
<path d="M48803 51512 l-12 -7 95 -200 c52 -110 98 -203 102 -207 l7 -7 15 9
14 9 -99 205 c-54 113 -101 206 -104 206 -3 0 -11 -4 -18 -8z"/>
<path d="M34685 51389 c-44 -4 -147 -9 -230 -10 l-150 -3 85 -6 85 -7 200 14
c110 8 201 16 204 19 6 6 -100 2 -194 -7z"/>
<path d="M34049 51309 l-11 -21 9 -9 9 -9 11 30 11 30 -9 0 c-4 0 -13 -9 -20
-21z"/>
<path d="M33444 51265 c3 -16 15 -109 26 -205 23 -185 159 -1072 166 -1079 8
-9 2 35 -65 469 -39 245 -80 531 -92 635 l-23 190 -9 10 -9 10 6 -30z"/>
<path d="M34068 51254 c-12 -12 -9 -62 8 -152 l17 -83 9 9 9 9 -11 44 c-7 24
-15 75 -19 112 l-6 69 -7 -8z"/>
<path d="M29920 51116 c0 -3 9 -10 20 -16 11 -6 20 -8 20 -6 0 3 -9 10 -20 16
-11 6 -20 8 -20 6z"/>
<path d="M33610 50387 c0 -20 61 -392 65 -396 3 -2 5 2 5 10 -1 30 -59 381
-64 387 l-6 5 0 -6z"/>
<path d="M33848 49980 l-148 -7 -7 -6 c-3 -4 -4 -9 -2 -11 2 -2 81 0 174 5 94
4 198 8 233 8 l62 1 0 10 0 10 -82 -2 c-46 -1 -149 -4 -230 -8z"/>
<path d="M34170 49930 c0 -5 5 -10 10 -10 6 0 10 5 10 10 0 6 -4 10 -10 10 -5
0 -10 -4 -10 -10z"/>
<path d="M33711 49875 c-1 -32 47 -386 53 -393 l6 -5 0 27 c0 47 -41 350 -50
371 l-9 20 0 -20z"/>
<path d="M22405 49750 l30 -8 165 -5 165 -5 -20 7 -20 8 -175 5 -175 6 30 -8z"/>
<path d="M49640 49697 l0 -29 19 -24 19 -25 5 8 5 8 -24 45 -23 45 -1 -28z"/>
<path d="M35860 49641 c0 -12 9 -15 154 -46 105 -23 140 -26 125 -10 -3 2 -59
16 -125 30 -65 14 -127 28 -136 31 l-18 5 0 -10z"/>
<path d="M40093 49508 c7 -18 44 -111 82 -205 38 -95 70 -171 73 -169 6 7
-152 406 -161 406 l-7 0 13 -32z"/>
<path d="M35974 49510 c2 -14 19 -116 37 -227 l33 -203 8 0 8 0 -5 23 c-2 12
-18 105 -35 207 -17 102 -35 194 -41 205 l-9 20 4 -25z"/>
<path d="M91308 49324 l-7 -6 21 -41 c27 -54 216 -358 234 -376 40 -43 11 14
-92 179 -64 102 -124 200 -133 218 l-17 33 -6 -7z"/>
<path d="M37923 49085 c3 -16 20 -120 37 -230 l33 -200 9 -10 9 -10 -5 25 c-3
14 -21 119 -40 234 -19 114 -38 211 -42 215 l-7 6 6 -30z"/>
<path d="M33830 49018 c0 -8 14 -103 30 -211 17 -109 29 -203 28 -209 l-3 -13
15 4 c14 3 446 30 499 31 l24 0 -5 6 -6 6 -251 -13 c-138 -7 -253 -10 -256 -8
-2 3 -18 97 -36 210 -28 184 -39 241 -39 197z"/>
<path d="M35253 48677 l-183 -9 0 -8 0 -8 38 4 c20 2 138 9 262 15 124 6 227
12 229 15 6 6 -134 2 -346 -9z"/>
<path d="M40490 48652 c0 -10 54 -72 63 -72 3 0 3 9 0 20 l-5 20 -29 21 -29
20 0 -9z"/>
<path d="M34470 48630 l0 -10 13 1 c6 0 21 4 32 9 l20 9 -32 0 -33 1 0 -10z"/>
<path d="M40983 48493 l-63 -4 0 -11 0 -11 92 7 c50 3 135 6 190 6 l98 0 0 10
0 10 -127 -2 c-71 -1 -156 -3 -190 -5z"/>
<path d="M30772 48179 c-85 -4 -156 -10 -160 -13 l-6 -7 179 7 180 7 20 8 20
8 -40 -1 c-22 -1 -109 -4 -193 -9z"/>
<path d="M90808 48068 c-36 -40 -76 -91 -89 -114 -37 -62 -141 -192 -281 -351
-71 -79 -128 -148 -128 -154 0 -11 209 221 307 343 35 42 85 109 112 149 27
41 60 85 74 99 13 15 39 43 57 63 l32 37 -10 0 c-6 0 -39 -33 -74 -72z"/>
<path d="M37843 48107 l-193 -9 0 -10 0 -9 18 5 c9 2 105 8 213 11 l197 7 13
9 14 9 -35 -2 c-19 -1 -122 -6 -227 -11z"/>
<path d="M90844 48048 c-32 -35 -78 -94 -103 -133 -24 -38 -60 -89 -79 -112
l-34 -43 9 0 c10 0 98 115 133 175 13 22 53 70 89 108 l64 67 -10 0 c-6 0 -37
-28 -69 -62z"/>
<path d="M74973 48068 c23 -59 172 -358 178 -358 l8 0 -58 123 c-81 171 -120
247 -127 247 l-6 0 5 -12z"/>
<path d="M36478 48032 l-227 -15 3 -6 4 -6 179 12 c98 6 202 12 231 12 l52 1
0 10 c0 6 -3 9 -7 9 -5 -1 -110 -9 -235 -17z"/>
<path d="M75980 47877 c0 -43 6 -60 19 -53 l6 4 -3 46 -4 46 -9 0 -9 0 0 -43z"/>
<path d="M30607 47510 l5 -205 9 -15 8 -15 -5 125 c-4 69 -10 168 -14 220 l-8
95 5 -205z"/>
<path d="M41475 47573 c11 -98 9 -138 -6 -175 l-12 -29 -54 -35 -54 -34 6 -10
6 -10 40 23 c22 12 51 32 64 43 l24 22 11 43 12 44 -12 98 -12 97 -11 0 -10 0
8 -77z"/>
<path d="M74831 47610 c0 -8 4 -24 9 -35 l9 -20 0 20 c0 11 -4 27 -9 35 l-10
15 1 -15z"/>
<path d="M37420 47389 c-152 -10 -581 -30 -855 -39 l-220 -7 225 -1 225 -2
175 10 c478 27 662 39 668 44 l5 6 -54 -1 c-30 -1 -106 -5 -169 -10z"/>
<path d="M20667 47133 l-17 -48 -29 -162 -28 -163 7 0 7 0 27 160 28 161 19
49 19 50 -8 0 c-4 0 -16 -21 -25 -47z"/>
<path d="M29632 46769 c-85 -4 -156 -10 -160 -14 l-6 -6 184 7 185 7 20 8 20
8 -45 -1 c-25 -1 -114 -4 -198 -9z"/>
<path d="M44317 46373 c-4 -54 -7 -142 -7 -195 l0 -98 10 0 10 0 0 98 c0 53 3
141 7 195 l6 97 -10 0 -10 0 -6 -97z"/>
<path d="M47622 46438 c3 -7 29 -84 58 -171 28 -87 54 -156 57 -154 2 3 -20
80 -49 171 l-53 166 -9 0 -8 0 4 -12z"/>
<path d="M93042 46050 l-22 -29 -82 -31 -82 -32 -28 6 -28 5 -95 -6 -95 -6 0
-10 0 -9 16 6 c9 4 69 7 133 7 l116 0 70 26 70 26 30 28 30 28 25 -14 25 -14
35 -1 35 0 53 -25 54 -25 54 0 54 0 74 37 75 37 -4 6 -4 7 -77 -39 -76 -38
-42 0 -41 0 -47 25 -47 25 -38 0 -39 0 -39 20 c-22 11 -39 20 -40 19 0 0 -10
-13 -23 -29z"/>
<path d="M81344 45948 l-7 -11 11 7 c7 4 12 9 12 12 0 8 -9 4 -16 -8z"/>
<path d="M81370 45886 c-4 -13 -14 -43 -20 -67 -6 -24 -21 -67 -32 -96 l-21
-52 -30 -11 c-17 -5 -28 -12 -25 -15 3 -3 19 0 36 6 l30 10 17 42 c19 46 64
207 58 207 -2 0 -8 -11 -13 -24z"/>
<path d="M81317 45853 c-2 -4 -8 -24 -12 -43 -4 -19 -16 -52 -26 -72 l-19 -37
-17 -10 -18 -10 22 -1 22 0 15 28 c18 36 49 142 43 148 -3 3 -7 2 -10 -3z"/>
<path d="M30724 45398 c3 -18 11 -201 17 -405 l12 -373 8 0 8 0 -4 78 c-7 106
-25 593 -25 670 l0 62 -10 0 -11 0 5 -32z"/>
<path d="M26554 44382 c3 -5 113 -59 243 -120 131 -61 404 -190 607 -287 204
-96 374 -174 378 -173 5 2 -119 64 -274 137 -156 74 -425 203 -599 287 -175
84 -327 155 -339 159 l-23 7 7 -10z"/>
<path d="M87896 44017 c-26 -48 -46 -92 -44 -98 l3 -9 48 87 47 87 -3 10 -3
10 -48 -87z"/>
<path d="M52535 44020 l-6 -9 97 -206 c54 -113 100 -205 103 -205 3 0 12 4 19
8 l12 8 -97 207 -98 207 -12 0 c-6 0 -15 -4 -18 -10z"/>
<path d="M52110 43055 c0 -13 199 -403 204 -398 3 3 -40 95 -95 204 -87 174
-109 214 -109 194z"/>
<path d="M51735 42984 c-165 -24 -311 -43 -325 -42 -14 0 -32 -2 -40 -5 -8 -4
-85 -16 -170 -27 -169 -22 -205 -29 -198 -35 3 -3 87 6 188 20 100 14 184 24
187 21 2 -2 13 -60 23 -128 10 -67 21 -142 25 -165 l8 -43 9 0 10 0 -5 14 c-5
13 -28 146 -46 269 l-8 59 11 3 c6 2 164 24 351 50 186 25 341 48 344 51 10
10 -79 -1 -364 -42z"/>
<path d="M49458 42919 c-10 -5 -18 -15 -18 -20 l0 -10 27 3 28 3 3 18 3 17
-13 0 c-7 0 -21 -5 -30 -11z"/>
<path d="M93790 41863 c-63 -47 -149 -110 -190 -140 -41 -31 -67 -53 -56 -49
19 6 376 265 376 272 0 11 -25 -4 -130 -83z"/>
<path d="M41211 41500 c-1 -106 -14 -263 -26 -328 l-5 -27 14 30 13 30 11 145
12 145 -9 60 -8 60 -2 -115z"/>
<path d="M57313 40883 c65 -2 168 -2 230 0 l112 3 -230 0 -230 0 118 -3z"/>
<path d="M53610 40836 l0 -14 20 5 20 5 -6 9 c-3 5 -12 9 -20 9 l-14 0 0 -14z"/>
<path d="M53373 40548 c-17 -24 -38 -61 -48 -83 l-17 -40 -29 -159 -28 -159
-11 -7 -11 -7 7 -17 7 -17 13 5 14 5 172 -34 c183 -37 198 -39 198 -27 l0 8
-175 34 c-97 19 -180 37 -186 41 l-10 6 26 149 27 149 21 50 c11 28 33 68 49
89 15 22 28 44 28 48 0 19 -19 5 -47 -34z"/>
<path d="M46518 40094 l-6 -9 14 -25 13 -25 0 15 c0 8 -4 24 -8 34 l-8 20 -5
-10z"/>
<path d="M84780 39956 c0 -4 42 -69 93 -144 51 -75 110 -167 132 -204 21 -38
43 -68 47 -68 14 0 -217 364 -263 415 l-9 9 0 -8z"/>
<path d="M47180 39340 l0 -13 7 6 6 7 -6 7 -7 6 0 -13z"/>
<path d="M93205 39138 c-115 -55 -214 -104 -220 -109 l-10 -11 35 15 c44 19
404 189 409 193 2 2 2 6 0 8 -2 2 -98 -41 -214 -96z"/>
<path d="M52020 39022 l0 -9 43 -6 c23 -4 122 -22 220 -40 l177 -34 0 7 c0 3
-93 23 -207 45 -115 21 -214 40 -220 42 l-13 5 0 -10z"/>
<path d="M51431 38698 c-1 -4 -23 -91 -51 -193 -48 -177 -56 -214 -45 -204 2
3 27 90 55 194 l51 188 -5 11 c-2 6 -5 8 -5 4z"/>
<path d="M53780 38691 l0 -7 175 -33 c96 -18 185 -35 197 -38 l23 -6 -10 10
-10 9 -120 23 c-66 13 -150 29 -187 36 l-68 13 0 -7z"/>
<path d="M88107 38468 c-98 -61 -176 -112 -174 -115 4 -4 342 200 362 218 l9
9 -9 0 c-6 -1 -90 -51 -188 -112z"/>
<path d="M60290 38450 c0 -5 5 -10 10 -10 l10 0 0 -16 0 -15 -47 -67 c-26 -37
-87 -110 -135 -162 -48 -52 -84 -97 -81 -100 8 -8 158 157 223 248 l60 82 0
15 0 14 -20 11 -20 11 0 -11z"/>
<path d="M87860 38360 c-25 -15 -109 -67 -188 -115 -79 -48 -141 -89 -139 -92
4 -3 359 207 376 223 2 2 2 6 0 8 -2 2 -24 -9 -49 -24z"/>
<path d="M91101 37965 l-173 -103 -22 -23 -21 -23 25 17 c14 9 102 62 195 118
187 112 180 107 174 113 -2 2 -82 -42 -178 -99z"/>
<path d="M60361 37803 c1 -10 260 -251 297 -276 31 -22 -205 209 -260 254 -21
17 -38 27 -37 22z"/>
<path d="M59640 37754 c-36 -25 -115 -73 -177 -107 -62 -33 -110 -63 -108 -65
10 -10 313 167 360 209 l9 9 -9 -1 c-6 0 -39 -20 -75 -45z"/>
<path d="M60634 37459 c-16 -17 -62 -56 -103 -86 l-73 -55 -67 -25 c-36 -13
-70 -29 -76 -34 l-10 -10 82 30 82 30 73 54 c40 30 89 71 107 91 l35 36 -10 0
c-6 0 -23 -14 -40 -31z"/>
<path d="M86157 37278 c-125 -83 -226 -153 -223 -155 3 -4 439 278 461 298 l9
9 -9 0 c-6 -1 -113 -69 -238 -152z"/>
<path d="M60243 37280 c-24 -11 -60 -22 -80 -25 -57 -10 -284 -77 -279 -83 3
-2 51 9 108 26 57 17 121 33 143 37 50 9 155 47 155 57 0 10 4 11 -47 -12z"/>
<path d="M62540 37166 c0 -4 21 -36 46 -71 l45 -64 127 -84 c70 -46 133 -87
140 -91 l12 -7 0 8 c0 4 -59 46 -131 93 l-132 85 -45 60 c-25 33 -49 64 -54
70 l-8 9 0 -8z"/>
<path d="M40758 36646 c-75 -17 -140 -35 -145 -40 l-8 -9 25 6 c14 3 87 20
163 38 l139 31 9 -9 8 -8 46 -305 c40 -268 55 -348 55 -299 0 8 -20 150 -45
314 -25 165 -45 303 -45 308 l0 7 -32 -1 c-18 -1 -95 -15 -170 -33z"/>
<path d="M40084 36504 c-6 -3 -69 -10 -140 -17 l-129 -12 -3 -97 -3 -98 8 0 8
0 0 93 0 92 85 6 c88 6 230 28 230 35 0 5 -42 4 -56 -2z"/>
<path d="M88478 36122 c-103 -65 -187 -121 -188 -125 l0 -8 14 3 c21 5 386
232 386 241 0 17 -35 -1 -212 -111z"/>
<path d="M41769 35677 l13 -17 -4 -25 -5 -25 9 0 9 0 -3 37 -3 36 -15 5 -15 5
14 -16z"/>
<path d="M41985 35628 c-121 -17 -222 -32 -224 -34 -3 -2 0 -9 6 -15 l10 -10
199 26 c110 14 209 28 222 31 l22 4 0 15 c0 8 -3 15 -7 14 -5 -1 -107 -15
-228 -31z"/>
<path d="M84636 35479 c-137 -87 -244 -159 -238 -159 6 0 121 70 255 155 l244
155 39 0 39 -1 26 -22 27 -22 58 -102 c32 -57 62 -103 66 -103 4 0 -21 48 -54
108 l-61 107 -26 22 -26 22 -50 0 -50 0 -249 -160z"/>
<path d="M84915 35602 c-30 -10 -85 -45 -85 -55 l0 -8 13 7 c6 4 24 16 39 26
l26 18 26 0 26 0 20 -20 c11 -11 33 -45 49 -77 16 -32 62 -103 102 -159 41
-55 112 -164 159 -242 47 -78 88 -142 92 -142 10 0 -183 315 -245 400 -30 41
-74 110 -97 153 l-42 77 -21 15 c-23 16 -30 17 -62 7z"/>
<path d="M79805 35470 l-130 -70 -127 -42 c-70 -23 -126 -44 -124 -46 2 -2 50
11 107 29 l104 32 105 53 c133 66 218 114 205 114 -5 0 -68 -32 -140 -70z"/>
<path d="M41396 35468 l-16 -22 0 -36 0 -35 71 -215 c39 -118 75 -219 80 -224
l9 -10 0 11 c0 7 -34 110 -75 230 -41 120 -75 227 -75 238 0 11 7 33 15 49 19
36 13 45 -9 14z"/>
<path d="M40416 35406 l-6 -24 9 -24 10 -23 -1 36 c-1 20 2 41 6 47 l7 12 -9
0 -10 0 -6 -24z"/>
<path d="M41340 35374 c0 -5 33 -108 73 -229 l73 -219 12 -4 11 -3 -78 225
c-42 124 -80 228 -84 232 l-7 7 0 -9z"/>
<path d="M85948 34783 l-297 -186 4 -8 5 -8 118 73 c372 229 482 299 482 307
0 5 -3 9 -7 8 -5 0 -142 -84 -305 -186z"/>
<path d="M80540 34466 c0 -7 106 -213 117 -226 2 -2 41 15 86 39 88 47 110 62
103 68 -2 2 -41 -16 -86 -41 -45 -26 -86 -46 -90 -46 -4 0 -29 41 -55 90 -49
92 -74 131 -75 116z"/>
<path d="M54433 34081 c-105 -14 -195 -29 -199 -33 l-6 -7 33 5 c19 3 116 15
217 28 101 13 186 27 189 30 l6 6 -24 -1 c-13 -1 -110 -13 -216 -28z"/>
<path d="M57643 34043 c12 -27 26 -54 30 -60 l8 -13 18 0 18 0 58 -131 c32
-71 63 -133 68 -136 l10 -6 -5 9 c-2 5 -31 68 -64 141 l-59 132 -20 3 -20 3
-24 53 c-14 28 -28 52 -32 52 l-8 0 22 -47z"/>
<path d="M73104 32580 l23 -50 26 -20 25 -20 44 1 43 1 -34 8 c-18 4 -45 14
-58 21 l-25 13 -24 48 -24 48 -10 0 -9 0 23 -50z"/>
<path d="M73283 32503 c9 -2 25 -2 35 0 l17 5 -35 0 -35 0 18 -5z"/>
<path d="M98818 31737 l-27 -11 -10 -29 -11 -29 29 31 29 31 29 0 28 0 -15 10
c-17 11 -16 11 -52 -3z"/>
<path d="M98893 31719 c8 -25 401 -587 501 -719 48 -63 92 -117 98 -119 6 -2
-37 59 -94 135 -58 77 -192 265 -298 419 -106 154 -198 285 -203 290 l-10 10
6 -16z"/>
<path d="M16295 27610 c-4 -6 -5 -13 -4 -14 2 -2 111 -18 242 -35 l238 -33 7
6 6 6 -10 8 -9 9 -210 27 c-115 15 -220 30 -231 33 l-22 5 -7 -12z"/>
<path d="M95310 26779 c-96 -71 -177 -134 -179 -140 -3 -9 325 226 359 257
l14 14 -9 -1 c-6 0 -89 -58 -185 -130z"/>
<path d="M23785 26630 c66 -10 129 -19 139 -19 l19 -1 -6 6 c-8 8 -195 34
-237 33 l-35 -1 120 -18z"/>
<path d="M24872 4078 l5 -13 86 -38 86 -38 83 -14 82 -15 9 9 9 9 -74 11 -73
12 -55 21 c-30 12 -77 32 -104 45 -58 27 -59 27 -54 11z"/>
</g>
</svg>
