<?xml version="1.0" standalone="no"?>
<!DOCTYPE svg PUBLIC "-//W3C//DTD SVG 20010904//EN"
 "http://www.w3.org/TR/2001/REC-SVG-20010904/DTD/svg10.dtd">
<svg version="1.0" xmlns="http://www.w3.org/2000/svg"
 width="7500.000000pt" height="7500.000000pt" viewBox="0 0 7500.000000 7500.000000"
 preserveAspectRatio="xMidYMid meet">
<metadata>
Created by potrace 1.16, written by Peter Selinger 2001-2019
</metadata>
<g transform="translate(0.000000,7500.000000) scale(0.075000,-0.075000)"
fill="#000000" stroke="none">
<path d="M27190 98231 l0 -11 195 -130 195 -130 0 12 0 13 -166 110 c-92 61
-179 118 -195 128 l-29 19 0 -11z"/>
<path d="M22390 92722 l0 -8 178 -43 c97 -24 288 -77 424 -118 137 -40 253
-73 260 -73 l12 0 -9 9 c-19 18 -808 241 -853 241 -7 0 -12 -4 -12 -8z"/>
<path d="M21880 92620 l0 -13 7 6 6 7 -6 7 -7 6 0 -13z"/>
<path d="M21950 92602 c8 -6 31 -13 50 -17 19 -4 69 -21 110 -37 79 -32 177
-61 165 -50 -3 4 -34 16 -68 28 -34 12 -93 33 -132 47 -38 14 -86 28 -105 31
l-35 7 15 -9z"/>
<path d="M83225 92184 c-22 -14 -106 -61 -187 -106 -131 -72 -167 -98 -140
-98 7 0 318 166 375 200 9 5 17 15 17 20 l0 10 -12 -1 c-7 0 -31 -12 -53 -25z"/>
<path d="M55962 91767 c-64 -117 -244 -452 -317 -590 l-67 -129 11 -11 c6 -6
12 -9 14 -6 4 4 228 426 335 629 30 58 63 119 74 136 l18 32 -14 5 -15 6 -39
-72z"/>
<path d="M25682 91608 l4 -12 25 -7 c13 -4 212 -60 442 -125 l418 -117 10 10
10 10 -133 37 c-73 21 -274 78 -446 127 -173 49 -318 89 -324 89 l-10 0 4 -12z"/>
<path d="M28070 91111 c8 -5 164 -54 345 -110 182 -56 348 -108 370 -116 l39
-15 -14 13 -15 14 -362 112 c-351 108 -395 120 -363 102z"/>
<path d="M29564 90442 c3 -5 55 -28 116 -52 l111 -42 99 -23 100 -22 0 7 0 8
-97 22 -98 22 -113 44 c-123 47 -126 48 -118 36z"/>
<path d="M92981 89479 l-154 -160 9 -9 10 -10 153 161 154 160 -10 10 -9 9
-153 -161z"/>
<path d="M85115 88894 c-104 -19 -334 -66 -509 -105 l-319 -71 -101 -9 c-136
-13 -145 -20 -16 -13 l105 6 355 78 c195 43 427 90 515 105 l160 27 10 9 9 9
-9 -1 c-6 -1 -95 -16 -200 -35z"/>
<path d="M78960 88443 l0 -8 222 -77 222 -77 9 6 10 6 -16 9 c-25 13 -417 148
-433 148 -8 0 -14 -3 -14 -7z"/>
<path d="M35087 88364 c-4 -4 -7 -10 -7 -14 0 -4 74 -77 164 -164 l165 -156 5
8 5 8 -163 163 -162 162 -7 -7z"/>
<path d="M79371 88218 c-14 -70 -61 -353 -61 -367 0 -6 4 -11 8 -11 l9 0 32
194 c18 106 35 203 38 215 l5 21 -10 0 -11 0 -10 -52z"/>
<path d="M35775 87740 l-6 -10 10 0 c6 0 71 -58 144 -128 72 -70 146 -138 164
-150 l32 -22 6 11 7 11 -23 16 c-13 8 -76 66 -139 127 -153 148 -180 169 -195
145z"/>
<path d="M84433 87263 c-39 -76 -99 -203 -133 -283 -35 -80 -66 -149 -70 -153
l-7 -8 -74 21 c-40 11 -78 20 -83 20 -24 0 8 -12 86 -34 l85 -23 73 166 c73
167 184 395 202 419 l10 12 -9 0 -10 0 -70 -137z"/>
<path d="M83555 86763 c-9 -43 -34 -154 -56 -247 l-39 -170 6 -5 5 -5 8 12 c4
7 29 111 55 230 26 119 50 227 53 240 l5 22 -10 0 -10 0 -17 -77z"/>
<path d="M81390 84061 c8 -5 104 -41 213 -81 l199 -72 5 6 c4 3 4 6 1 6 -3 0
-97 34 -209 75 -112 41 -208 75 -214 75 l-10 -1 15 -8z"/>
<path d="M30015 83929 c3 -13 37 -115 73 -226 l67 -203 13 0 13 0 -5 18 c-3 9
-37 109 -74 221 l-68 205 -13 4 -13 4 7 -23z"/>
<path d="M77218 83693 c-62 -90 -339 -536 -335 -540 3 -2 69 99 147 224 143
227 228 353 240 353 3 0 53 -16 110 -35 58 -19 109 -34 115 -32 12 4 -203 77
-227 77 l-17 0 -33 -47z"/>
<path d="M77045 83347 c-60 -94 -116 -183 -124 -197 l-16 -24 12 7 c15 9 247
377 241 382 -3 3 -53 -73 -113 -168z"/>
<path d="M77930 83511 c0 -5 30 -17 68 -29 37 -12 136 -43 220 -70 l152 -50 0
8 0 9 -82 25 c-46 14 -145 46 -220 70 l-138 44 0 -7z"/>
<path d="M92170 67525 c0 -2 5 -14 10 -27 6 -13 23 -112 38 -220 26 -180 35
-219 46 -207 2 2 -9 96 -25 209 l-30 205 -11 23 c-10 19 -28 31 -28 17z"/>
<path d="M41220 67451 l0 -20 10 -6 10 -6 0 20 0 20 -10 6 -10 6 0 -20z"/>
<path d="M98179 66371 l-227 -65 5 -12 4 -12 222 65 c122 35 223 66 225 68 2
2 2 8 1 13 l-4 9 -226 -66z"/>
<path d="M41550 66191 c0 -5 151 -108 335 -229 184 -122 335 -217 335 -213 0
4 -75 57 -167 118 -93 61 -243 160 -335 221 -93 61 -168 108 -168 103z"/>
<path d="M97554 65956 c40 -194 49 -226 61 -214 3 2 -15 96 -38 208 l-44 204
-10 3 -11 4 42 -205z"/>
<path d="M33286 65062 l-8 -24 6 -5 6 -6 6 5 c3 4 4 17 2 30 l-4 23 -8 -23z"/>
<path d="M41450 63743 l-24 -5 -78 -65 c-43 -36 -78 -67 -78 -69 0 -9 22 7 96
68 l71 58 39 0 39 0 49 -15 c27 -8 56 -15 65 -14 l16 1 -60 19 c-75 23 -103
28 -135 22z"/>
<path d="M41270 63574 c0 -9 233 -273 254 -286 26 -17 24 -6 -3 20 -16 15 -75
79 -131 142 -57 63 -107 119 -111 125 l-9 9 0 -10z"/>
<path d="M2920 63111 c0 -10 303 -283 321 -289 l9 -4 0 10 c0 9 -287 267 -317
285 l-13 8 0 -10z"/>
<path d="M58658 62923 c-37 -21 -68 -42 -68 -46 l0 -8 76 42 76 42 107 -7 c58
-4 126 -9 151 -12 l45 -5 -15 10 -16 10 -144 6 -145 6 -67 -38z"/>
<path d="M58698 62903 c-40 -20 -477 -315 -477 -323 -1 -3 79 -38 177 -79 97
-41 192 -80 210 -88 l34 -14 -6 9 c-3 5 -91 45 -195 88 -105 43 -191 82 -191
85 0 9 390 275 448 305 l50 26 120 -11 c66 -6 131 -10 144 -10 l23 2 -45 7
c-25 4 -92 11 -150 14 l-105 7 -37 -18z"/>
<path d="M16720 62800 l0 -90 10 0 10 0 0 90 0 90 -10 0 -10 0 0 -90z"/>
<path d="M59945 62820 l-4 -7 167 -12 c92 -6 194 -14 227 -18 l60 -6 -7 8 -7
8 -216 16 -216 17 -4 -6z"/>
<path d="M42220 62459 c-96 -83 -186 -162 -200 -176 l-25 -27 20 15 c19 14
345 288 374 315 8 8 13 16 10 18 -2 2 -83 -63 -179 -145z"/>
<path d="M42733 62240 c37 -39 97 -102 133 -141 37 -38 68 -68 70 -66 7 6
-247 277 -259 277 l-10 0 66 -70z"/>
<path d="M41936 62266 l-36 -33 0 -19 1 -19 11 20 c6 11 24 35 41 53 40 42 28
41 -17 -2z"/>
<path d="M57555 62049 c-119 -94 -214 -173 -212 -176 4 -3 265 198 446 344 2
1 -1 3 -7 3 -6 0 -108 -77 -227 -171z"/>
<path d="M45794 61960 c3 -19 17 -127 32 -240 l27 -205 9 -10 9 -10 -5 25 c-3
14 -17 117 -31 230 -15 113 -31 214 -36 225 l-9 20 4 -35z"/>
<path d="M57320 61862 l0 -8 168 -74 c92 -40 202 -88 245 -106 l77 -33 0 7 c0
5 -87 46 -192 92 -106 46 -217 94 -245 107 l-53 23 0 -8z"/>
<path d="M61204 61123 c2 -10 28 -127 57 -260 29 -134 55 -241 57 -238 3 3
-19 120 -49 260 l-54 255 -8 0 -8 0 5 -17z"/>
<path d="M44181 60703 c4 -13 291 -334 329 -368 11 -10 20 -15 20 -12 0 6
-289 328 -337 377 l-15 15 3 -12z"/>
<path d="M44774 60519 c-115 -100 -211 -187 -213 -193 l-4 -11 19 16 c66 56
392 334 403 345 l15 14 -6 5 -6 6 -208 -182z"/>
<path d="M62113 60262 l-223 -45 0 -7 0 -7 223 45 c122 25 224 47 226 49 15
11 -29 5 -226 -35z"/>
<path d="M86559 59764 c-90 -69 -166 -131 -168 -137 l-4 -12 14 11 c8 6 85 66
172 133 141 110 166 131 153 131 -2 0 -77 -57 -167 -126z"/>
<path d="M62960 59610 l0 -13 7 6 6 7 -6 7 -7 6 0 -13z"/>
<path d="M62707 59570 c-104 -21 -192 -42 -195 -46 l-7 -7 30 6 c17 3 108 20
203 38 l172 33 0 8 c0 10 21 13 -203 -32z"/>
<path d="M58980 59544 c0 -6 33 -92 74 -190 l74 -179 19 -3 18 -4 -17 14 -17
13 -75 180 c-42 99 -75 175 -76 169z"/>
<path d="M63904 58450 c3 -19 34 -170 70 -335 35 -165 94 -455 131 -645 67
-349 252 -1231 261 -1239 2 -2 6 -2 8 0 3 2 -40 211 -95 464 -55 253 -131 622
-170 820 -39 198 -88 441 -109 540 -21 99 -48 227 -60 285 -11 58 -25 114 -31
125 l-9 20 4 -35z"/>
<path d="M56285 58219 c-2 -8 -21 -81 -40 -163 l-36 -150 -12 -14 c-6 -8 -20
-18 -32 -22 l-20 -9 21 0 21 -1 16 18 16 17 40 165 c21 91 37 167 35 169 -2 2
-6 -2 -9 -10z"/>
<path d="M63075 57980 c-71 -15 -157 -33 -190 -40 l-60 -13 11 -4 c12 -4 394
74 402 82 10 10 -35 3 -163 -25z"/>
<path d="M50456 57891 c5 -5 116 -38 247 -75 l238 -66 42 1 42 1 -45 8 c-25 4
-151 37 -281 74 -129 36 -239 66 -244 66 l-9 0 10 -9z"/>
<path d="M64131 57574 c-1 -19 264 -1307 273 -1329 l4 -10 1 16 c1 15 -265
1311 -274 1334 l-3 10 -1 -21z"/>
<path d="M79474 56551 l-39 -28 -80 -31 -80 -31 26 -1 27 0 73 34 c41 19 85
44 99 55 l25 20 -6 5 -5 6 -40 -29z"/>
<path d="M79044 56421 l6 -9 20 5 c28 7 25 13 -6 13 l-25 0 5 -9z"/>
<path d="M1310 56227 c-3 -3 -65 -7 -137 -9 l-133 -3 3 -10 4 -10 210 4 210 4
20 -12 21 -11 5 15 6 14 -17 5 c-27 8 -186 18 -192 13z"/>
<path d="M64073 56157 c-139 -28 -253 -54 -253 -58 0 -7 518 95 527 105 l6 6
-14 -1 c-8 -1 -128 -24 -266 -52z"/>
<path d="M32395 55821 c-226 -103 -295 -138 -295 -150 l0 -8 73 38 c39 20 149
72 242 114 177 80 181 82 174 89 -2 2 -89 -35 -194 -83z"/>
<path d="M36430 55814 c-47 -19 -114 -42 -150 -50 l-65 -16 -32 6 -33 5 0 -10
0 -9 48 0 c26 0 67 5 92 11 48 10 218 77 235 91 l9 8 -9 0 c-6 -1 -48 -17 -95
-36z"/>
<path d="M85031 55548 c-1 -12 113 -467 158 -630 22 -81 54 -209 71 -285 35
-156 40 -176 46 -170 7 6 -71 343 -125 540 -28 100 -68 256 -91 347 -36 149
-57 218 -59 198z"/>
<path d="M26533 55292 l-12 -8 30 -13 29 -13 0 -14 0 -14 10 0 10 0 0 13 c0
13 -22 36 -45 50 l-11 6 -11 -7z"/>
<path d="M62031 54644 c-1 -17 178 -884 188 -914 20 -55 7 15 -79 436 -83 403
-107 508 -109 478z"/>
<path d="M73841 54374 c14 -16 81 -92 149 -169 68 -77 127 -141 132 -143 24
-10 -5 29 -132 173 l-140 160 -18 4 -17 3 26 -28z"/>
<path d="M80941 53697 c-1 -15 91 -396 105 -436 2 -8 6 -12 9 -10 2 3 -23 108
-55 234 -32 127 -59 222 -59 212z"/>
<path d="M53032 52837 c-111 -57 -208 -109 -215 -116 -12 -13 311 145 393 193
98 56 15 20 -178 -77z"/>
<path d="M56143 52912 l-12 -8 9 -37 8 -38 17 -18 16 -18 150 -58 149 -58 7 7
7 6 -10 10 c-5 5 -70 32 -144 60 l-135 52 -15 14 -15 15 -10 39 -10 39 -12 -7z"/>
<path d="M22774 52742 c-28 -48 -77 -141 -108 -206 l-57 -119 9 -9 9 -9 62
133 c35 73 83 166 108 206 l46 73 -9 9 -9 8 -51 -86z"/>
<path d="M64623 52662 c-101 -20 -183 -39 -183 -42 l0 -7 196 38 c109 21 202
40 208 43 l11 4 -25 0 c-14 0 -107 -16 -207 -36z"/>
<path d="M53021 52344 c13 -36 185 -384 191 -384 8 0 -169 371 -184 385 l-10
10 3 -11z"/>
<path d="M27044 52145 c1 -110 -2 -317 -5 -460 l-7 -260 8 105 c4 58 11 233
14 390 l7 285 -9 70 -9 70 1 -200z"/>
<path d="M53151 51916 c-1 -5 36 -86 81 -179 l82 -169 4 10 3 10 -85 169 c-47
92 -85 164 -85 159z"/>
<path d="M25430 51069 c0 -5 1 -9 3 -10 13 -3 913 -46 916 -43 2 2 1 7 -2 10
l-6 7 -368 18 c-203 9 -407 20 -455 23 l-88 5 0 -10z"/>
<path d="M28400 50880 l0 -13 7 6 6 7 -6 7 -7 6 0 -13z"/>
<path d="M87602 50728 c-31 -81 -102 -219 -142 -278 l-41 -60 -11 0 -12 0 13
-12 13 -13 31 36 c43 49 109 169 152 276 40 99 38 93 24 93 l-11 0 -16 -42z"/>
<path d="M33610 50384 c0 -22 61 -388 65 -393 3 -2 5 2 5 10 0 29 -58 381 -64
386 l-6 6 0 -9z"/>
<path d="M33710 49883 c0 -27 50 -387 55 -391 3 -3 5 2 5 10 0 31 -50 381 -55
386 -3 3 -5 1 -5 -5z"/>
<path d="M33830 49019 c0 -8 14 -111 32 -229 l33 -215 3 20 c3 22 -56 426 -63
434 -3 2 -5 -2 -5 -10z"/>
<path d="M91439 48708 c-68 -78 -153 -178 -188 -223 -35 -44 -124 -141 -198
-216 -73 -75 -133 -141 -133 -145 0 -5 54 45 121 111 l121 120 81 100 c73 91
242 288 305 357 14 15 23 30 20 33 -2 3 -61 -59 -129 -137z"/>
<path d="M75894 48643 c3 -16 15 -98 26 -183 21 -153 25 -169 36 -158 l5 6
-21 153 c-11 85 -23 166 -26 182 l-6 27 -10 0 -10 0 6 -27z"/>
<path d="M34485 48630 l-6 -10 15 0 c8 0 18 5 21 10 l6 10 -15 0 c-8 0 -18 -4
-21 -10z"/>
<path d="M31650 48219 c-74 -3 -159 -7 -189 -8 l-54 -1 6 -6 6 -6 195 7 196 7
0 9 0 9 -12 -2 c-7 -1 -74 -5 -148 -9z"/>
<path d="M30738 48181 l-126 -6 -9 -9 -8 -9 154 7 c85 3 176 6 203 6 l48 0 0
10 0 10 -67 -2 c-38 -1 -125 -4 -195 -7z"/>
<path d="M33960 48119 c0 -22 51 -402 56 -418 2 -8 6 -12 8 -10 6 5 -52 430
-59 437 -3 3 -5 -1 -5 -9z"/>
<path d="M74830 47606 c0 -20 11 -46 19 -46 l8 0 -5 30 -4 30 -9 0 -9 0 0 -14z"/>
<path d="M37302 47422 l-243 -15 8 -7 8 -7 284 18 c156 10 286 20 289 23 l5 6
-54 -2 c-30 0 -163 -8 -297 -16z"/>
<path d="M37329 47384 c-114 -7 -220 -14 -235 -17 l-29 -4 50 -1 c74 -2 516
26 523 32 l5 6 -54 -1 c-30 -1 -147 -8 -260 -15z"/>
<path d="M36093 47336 l-191 -11 -9 -9 -8 -9 60 6 c33 4 132 9 220 13 l160 7
15 8 15 8 -35 -1 c-19 -1 -121 -6 -227 -12z"/>
<path d="M32510 46917 c-153 -8 -180 -12 -169 -20 7 -6 441 21 447 27 l5 6
-59 -2 c-32 0 -133 -5 -224 -11z"/>
<path d="M21995 46865 l-120 -23 -161 -56 c-89 -31 -205 -76 -258 -101 l-96
-45 0 -10 c0 -17 17 -12 118 34 53 24 167 69 252 100 l155 56 135 25 c74 14
152 25 173 25 l37 0 0 10 0 10 -57 -1 -58 -1 -120 -23z"/>
<path d="M39262 46869 l3 -22 12 -4 11 -4 -5 21 c-3 11 -10 23 -15 26 l-10 6
4 -23z"/>
<path d="M52052 45302 l-13 -9 198 -416 198 -416 10 3 10 3 0 21 0 21 -190
400 c-104 220 -192 400 -195 401 -3 0 -11 -4 -18 -8z"/>
<path d="M55536 43758 c20 -57 51 -167 69 -245 l34 -143 128 -370 128 -370 12
0 13 0 -56 158 c-30 86 -89 254 -131 372 l-75 215 -34 145 -33 145 -34 95 -35
94 -10 4 -11 3 35 -103z"/>
<path d="M11590 43300 l-455 -98 -320 -80 -320 -81 -95 -34 c-52 -19 -158 -56
-235 -82 -77 -27 -142 -50 -144 -52 -3 -2 0 -8 6 -14 l10 -10 54 20 c30 11
136 49 237 85 l182 66 338 84 337 85 430 90 c237 50 440 93 453 96 l22 5 0 10
0 10 -22 -1 c-13 -1 -228 -45 -478 -99z"/>
<path d="M49458 42919 c-10 -5 -18 -15 -18 -20 l0 -10 28 3 27 3 0 14 c0 19
-16 23 -37 10z"/>
<path d="M50998 42882 c-175 -26 -318 -49 -318 -52 0 -7 612 76 655 89 l30 9
-25 0 c-14 0 -168 -21 -342 -46z"/>
<path d="M50815 42897 c-137 -20 -153 -23 -144 -31 5 -5 309 41 317 48 l5 6
-19 -1 c-10 -1 -82 -11 -159 -22z"/>
<path d="M50363 42791 c-173 -24 -215 -33 -202 -45 2 -1 109 11 237 28 l232
31 0 7 0 8 -37 -1 c-21 -1 -124 -13 -230 -28z"/>
<path d="M50647 42359 l-5 -121 5 -154 6 -154 8 0 7 0 -1 275 0 275 -7 0 -7 0
-6 -121z"/>
<path d="M53327 40578 l-34 -43 -21 -53 -22 -54 -30 -175 -31 -175 5 -6 c12
-11 17 9 46 176 l31 171 25 57 c14 32 39 75 55 95 16 20 29 40 29 43 0 17 -22
1 -53 -36z"/>
<path d="M63339 36512 c-81 -72 -156 -154 -207 -229 l-22 -32 9 -6 10 -6 10
19 c5 10 38 53 73 95 l64 76 82 72 c75 66 95 90 75 89 -5 0 -47 -35 -94 -78z"/>
<path d="M41044 36010 c4 -19 18 -113 31 -209 14 -96 27 -177 30 -179 8 -9 6
17 -22 213 l-26 190 -9 10 -10 10 6 -35z"/>
<path d="M84894 35593 c-17 -10 -39 -23 -50 -30 l-19 -11 6 -6 5 -5 37 24 36
25 24 0 23 0 16 -12 c8 -7 36 -50 61 -95 25 -45 72 -117 104 -160 33 -43 99
-144 149 -225 49 -82 92 -148 96 -148 11 0 -187 324 -242 396 -26 33 -68 100
-94 147 l-47 86 -22 16 c-28 19 -45 19 -83 -2z"/>
<path d="M85420 34965 c0 -7 192 -318 208 -338 9 -9 17 -15 20 -12 3 3 -2 13
-10 22 -9 10 -59 89 -113 176 -87 142 -105 167 -105 152z"/>
<path d="M85950 34785 c-256 -160 -321 -205 -296 -205 3 0 141 84 306 186
l300 186 0 9 c0 5 -3 9 -7 8 -5 0 -141 -83 -303 -184z"/>
<path d="M77866 34499 c-3 -13 -10 -112 -16 -219 -6 -107 -13 -205 -16 -217
l-4 -23 8 0 8 0 17 237 c15 219 16 282 3 222z"/>
<path d="M85004 33959 c-214 -133 -393 -245 -398 -250 l-10 -9 6 -5 5 -5 399
246 c219 136 400 248 402 249 2 2 -1 5 -6 9 l-9 5 -389 -240z"/>
<path d="M64595 33220 l-6 -9 23 -14 c13 -8 99 -58 192 -111 l169 -97 9 9 9 9
-113 64 c-62 34 -148 84 -191 111 -87 53 -84 52 -92 38z"/>
<path d="M98814 31738 l-22 -10 -11 -24 c-14 -30 -14 -34 -1 -34 l10 0 0 15 0
15 25 16 25 16 20 -5 20 -5 0 8 c0 8 -25 21 -38 19 -4 0 -17 -5 -28 -11z"/>
<path d="M98893 31719 c8 -25 401 -587 501 -719 48 -63 92 -117 98 -119 6 -2
-37 59 -94 135 -58 77 -192 265 -298 419 -106 154 -198 285 -203 290 l-10 10
6 -16z"/>
<path d="M87395 25991 l-5 -10 202 -160 203 -161 4 11 c1 6 1 11 0 13 -2 1
-93 72 -201 159 l-197 157 -6 -9z"/>
<path d="M90490 24839 c47 -5 150 -18 230 -30 l145 -20 120 -34 120 -34 119
-50 c66 -28 121 -49 123 -47 2 2 -52 27 -119 56 l-123 53 -113 34 -114 34
-126 19 -127 20 -110 4 -110 5 85 -10z"/>
<path d="M90559 23670 l-96 -60 -77 -66 -77 -65 7 -10 6 -11 37 35 c58 55 135
112 226 167 l85 51 -5 10 c-8 12 4 17 -106 -51z"/>
<path d="M89491 21940 c-1 -8 22 -120 51 -247 l52 -233 9 0 8 0 -6 33 c-15 74
-113 461 -114 447z"/>
<path d="M90100 20751 c0 -6 7 -22 15 -34 8 -12 28 -56 45 -97 l32 -75 17 -84
17 -85 10 -3 11 -4 -17 88 -17 88 -37 92 -37 91 -20 18 -19 17 0 -12z"/>
<path d="M11260 1671 l0 -9 33 -5 c17 -3 121 -11 229 -18 l198 -13 7 7 c3 4 4
9 1 12 -4 5 -383 35 -440 35 l-28 0 0 -9z"/>
</g>
</svg>
