<?xml version="1.0" standalone="no"?>
<!DOCTYPE svg PUBLIC "-//W3C//DTD SVG 20010904//EN"
 "http://www.w3.org/TR/2001/REC-SVG-20010904/DTD/svg10.dtd">
<svg version="1.0" xmlns="http://www.w3.org/2000/svg"
 width="7500.000000pt" height="7500.000000pt" viewBox="0 0 7500.000000 7500.000000"
 preserveAspectRatio="xMidYMid meet">
<metadata>
Created by potrace 1.16, written by Peter Selinger 2001-2019
</metadata>
<g transform="translate(0.000000,7500.000000) scale(0.075000,-0.075000)"
fill="#000000" stroke="none">
<path d="M90157 99898 c-40 -111 -42 -118 -28 -118 10 0 10 0 56 128 l34 92
-12 0 -13 0 -37 -102z"/>
<path d="M89880 99660 l0 -10 34 0 35 0 6 10 6 10 -40 0 -41 0 0 -10z"/>
<path d="M89981 99367 c-20 -52 -51 -170 -76 -290 l-27 -129 6 -5 6 -6 6 6 c4
3 21 75 40 159 18 84 42 182 53 218 24 77 24 70 11 70 l-10 0 -9 -23z"/>
<path d="M90007 99283 c-15 -49 -38 -146 -53 -216 l-26 -128 6 -6 6 -6 6 5 c3
3 20 75 39 159 18 85 42 182 53 217 l20 62 -12 0 -13 0 -26 -87z"/>
<path d="M89641 97384 l1 -19 5 13 5 13 -6 6 -6 6 1 -19z"/>
<path d="M89602 97227 l-33 -134 -24 -39 c-14 -21 -25 -43 -25 -48 0 -6 14 12
31 38 l30 48 30 125 c16 69 28 130 27 135 -2 5 -18 -51 -36 -125z"/>
<path d="M68192 96355 c17 -17 392 -244 396 -240 3 3 3 7 1 9 -20 17 -382 236
-391 236 -6 0 -9 -2 -6 -5z"/>
<path d="M86914 96274 l-31 -34 -119 -1 -119 0 -17 -7 -17 -7 132 0 132 0 15
10 c22 15 64 64 59 69 -3 3 -18 -11 -35 -30z"/>
<path d="M88245 96291 c6 -5 96 -43 202 -84 l192 -74 6 5 6 6 -123 48 c-68 26
-161 62 -208 79 l-85 30 10 -10z"/>
<path d="M16620 95773 c0 -4 51 -34 113 -66 127 -65 110 -47 -25 26 l-88 48 0
-8z"/>
<path d="M97596 94469 l-156 -160 6 -11 6 -10 90 88 c49 49 121 124 159 166
l70 76 -10 6 -9 6 -156 -161z"/>
<path d="M98131 94586 c2 -2 82 -36 177 -74 l172 -71 0 8 c0 4 -75 37 -168 74
-149 60 -194 75 -181 63z"/>
<path d="M99340 94062 c0 -6 302 -130 385 -158 l20 -7 -10 10 c-9 9 -72 35
-347 144 l-48 19 0 -8z"/>
<path d="M57063 93739 c-116 -158 -170 -251 -297 -506 l-105 -211 15 -6 14 -5
99 198 c123 246 180 343 291 496 47 66 89 125 93 131 l7 12 -15 6 -14 5 -88
-120z"/>
<path d="M87336 93241 l-116 -140 -40 -32 -39 -32 5 -9 5 -9 41 33 41 32 111
134 c61 74 115 141 119 148 l8 14 -10 0 c-5 0 -62 -63 -125 -139z"/>
<path d="M33113 92983 c2 -10 50 -141 106 -292 l102 -275 75 -265 74 -266 0
-137 0 -138 10 0 10 0 0 140 0 140 -70 252 -71 253 -111 303 -112 302 -9 0 -9
0 5 -17z"/>
<path d="M21607 92767 l-5 -14 146 -42 c81 -22 284 -81 452 -130 l305 -89 4
10 c1 5 1 11 0 13 -2 1 -197 59 -434 128 -236 69 -437 128 -446 132 l-16 6 -6
-14z"/>
<path d="M33330 92560 c0 -6 7 -27 16 -48 8 -20 53 -171 100 -336 l84 -298 -7
-134 -6 -134 10 0 10 0 6 135 7 136 -71 252 c-38 139 -84 294 -101 345 l-31
92 -9 0 c-4 0 -8 -5 -8 -10z"/>
<path d="M31248 90542 l-216 -45 5 -12 4 -13 57 13 c31 7 130 28 220 46 l162
32 0 13 c0 8 -3 14 -7 13 -5 0 -105 -21 -225 -47z"/>
<path d="M33675 89687 l-7 -18 6 -6 6 -6 6 6 c3 3 4 14 1 24 l-4 18 -8 -18z"/>
<path d="M86330 88940 c25 -4 97 -11 160 -14 l115 -7 85 10 85 9 -140 -1 c-77
-1 -187 1 -245 5 l-105 7 45 -9z"/>
<path d="M78540 88652 c0 -12 -18 -4 229 -92 214 -75 211 -74 211 -61 l0 8
-207 73 c-115 40 -214 75 -220 77 l-13 5 0 -10z"/>
<path d="M79835 88140 c-4 -6 -4 -10 -2 -10 2 0 94 -31 203 -70 109 -38 202
-70 206 -70 21 0 5 18 -24 27 -18 6 -110 38 -205 71 l-172 61 -6 -9z"/>
<path d="M80670 87843 c0 -10 411 -155 418 -148 11 11 -18 24 -203 89 -189 66
-215 73 -215 59z"/>
<path d="M84447 87189 l-99 -189 9 0 8 0 93 186 c51 103 92 188 90 190 -2 1
-48 -82 -101 -187z"/>
<path d="M81265 85493 c6 -5 93 -38 195 -73 102 -35 191 -66 199 -68 l14 -5
-6 11 -7 10 -188 63 c-103 34 -194 64 -202 67 l-15 5 10 -10z"/>
<path d="M60360 85341 l0 -9 33 -5 c17 -3 121 -16 230 -28 l197 -22 7 6 6 7
-5 6 c-6 6 -395 54 -440 54 l-28 0 0 -9z"/>
<path d="M61310 85291 l0 -9 63 -6 c34 -3 125 -7 202 -10 l140 -5 40 8 40 8
-15 6 c-8 3 -117 8 -242 12 l-228 6 0 -10z"/>
<path d="M88301 84916 c4 -4 850 -249 904 -262 l30 -7 -6 7 c-6 7 -903 266
-921 266 -6 0 -9 -2 -7 -4z"/>
<path d="M64640 84514 c-113 -24 -221 -43 -240 -44 l-36 0 -12 12 -12 12 -7
-8 -8 -8 19 -14 20 -14 30 0 c40 0 438 81 450 92 5 4 8 9 5 11 -2 2 -96 -15
-209 -39z"/>
<path d="M64278 84510 c-25 -16 -107 -74 -182 -130 l-136 -100 0 -11 0 -10 13
7 c6 4 77 56 157 115 80 58 160 114 178 123 l33 17 -6 9 c-8 13 -2 14 -57 -20z"/>
<path d="M0 83956 l0 -15 22 -15 21 -15 9 5 9 6 -12 14 c-7 8 -21 20 -31 25
l-18 10 0 -15z"/>
<path d="M81810 83911 l0 -8 195 -70 195 -70 0 7 c0 9 -10 13 -100 45 -36 13
-116 41 -177 64 l-113 40 0 -8z"/>
<path d="M64682 83588 c22 -57 70 -184 108 -283 126 -331 141 -370 152 -380
l10 -10 -7 25 c-4 14 -41 111 -82 215 -40 105 -104 268 -141 362 -37 95 -70
173 -74 173 -3 0 12 -46 34 -102z"/>
<path d="M76997 83349 c-65 -105 -116 -193 -114 -196 4 -3 175 264 241 375 l7
12 -8 0 c-4 -1 -61 -87 -126 -191z"/>
<path d="M64830 83319 c0 -2 34 -92 75 -199 l75 -194 -8 -8 c-4 -4 -108 -45
-230 -90 -122 -44 -220 -83 -218 -86 3 -2 107 33 232 79 l226 83 5 12 5 13
-72 188 c-62 160 -90 224 -90 202z"/>
<path d="M92502 82418 c-63 -88 -112 -162 -109 -164 6 -6 229 306 225 316 -2
4 -54 -65 -116 -152z"/>
<path d="M91786 82031 l-190 -57 -4 -13 -5 -14 9 5 c5 3 90 29 189 58 166 48
206 63 194 73 -2 2 -89 -21 -193 -52z"/>
<path d="M32420 81852 l0 -10 57 -7 c31 -4 106 -22 165 -40 l109 -33 40 -27
c39 -25 58 -28 44 -6 -3 6 -25 22 -49 36 l-43 25 -97 29 -98 30 -64 6 -64 7 0
-10z"/>
<path d="M95538 80478 c-130 -183 -234 -335 -232 -337 5 -6 -19 -39 247 337
130 182 232 332 228 332 -4 0 -114 -150 -243 -332z"/>
<path d="M82327 75092 l-17 -117 6 -40 c5 -33 21 -85 59 -193 l5 -13 9 5 9 6
-34 92 -34 93 0 33 c0 18 7 78 17 133 l16 100 -9 9 -10 10 -17 -118z"/>
<path d="M64455 74960 l-6 -10 38 0 c21 -1 124 -7 228 -14 105 -7 192 -12 194
-10 13 12 -27 18 -196 30 -103 7 -202 13 -220 14 l-32 0 -6 -10z"/>
<path d="M82505 74258 c-2 -7 -13 -60 -24 -117 l-21 -104 0 -113 0 -114 10 0
10 0 0 118 1 117 23 113 23 112 -9 0 c-5 0 -10 -6 -13 -12z"/>
<path d="M81071 72378 l-11 -62 -18 -19 -19 -18 -39 -9 -39 -9 -114 10 c-103
8 -133 7 -120 -5 3 -3 61 -10 130 -16 l126 -11 19 7 c10 3 34 13 52 22 l33 17
8 35 c5 19 12 54 16 78 l7 42 -10 0 -10 0 -11 -62z"/>
<path d="M74398 70675 l-6 -80 19 -110 c24 -138 29 -158 34 -153 3 2 -2 42
-11 89 l-16 84 -7 125 -6 125 -7 -80z"/>
<path d="M87099 69820 c-95 -77 -176 -145 -178 -152 -2 -6 66 45 150 112 186
149 222 180 211 180 -4 0 -87 -63 -183 -140z"/>
<path d="M26950 69450 l0 -10 225 0 225 0 0 10 0 10 -225 0 -225 0 0 -10z"/>
<path d="M46120 67591 c-42 -10 -97 -25 -123 -34 l-48 -16 -74 -47 c-41 -25
-75 -50 -75 -55 l0 -10 62 42 61 42 71 27 c39 15 101 33 139 40 l67 12 0 9 c0
5 -1 9 -2 8 -2 0 -37 -9 -78 -18z"/>
<path d="M75940 66664 c-80 -46 -169 -98 -199 -115 -29 -17 -51 -33 -48 -35 6
-6 373 201 397 222 l14 14 -9 -1 c-6 0 -75 -39 -155 -85z"/>
<path d="M89045 66417 c-115 -44 -212 -82 -214 -83 -1 -2 -1 -7 0 -13 l4 -10
214 82 214 82 5 13 4 12 -9 -1 c-4 0 -102 -37 -218 -82z"/>
<path d="M41274 66362 c9 -15 267 -174 272 -169 3 3 -21 22 -53 43 -32 20 -92
59 -134 85 -42 27 -79 49 -83 49 l-7 0 5 -8z"/>
<path d="M52751 65463 c-7 -16 -53 -120 -102 -232 l-90 -204 6 -5 5 -6 9 10
c10 11 201 444 201 456 0 18 -17 6 -29 -19z"/>
<path d="M60016 65055 c-9 -21 -16 -47 -16 -60 l0 -22 30 -41 c35 -49 50 -58
113 -67 l47 -7 0 16 0 16 -30 0 -31 0 -29 15 -28 15 -21 33 -21 34 0 22 c0 12
5 32 11 43 l11 20 -10 10 -11 11 -15 -38z"/>
<path d="M40572 64860 c55 -165 115 -330 120 -330 l7 0 -56 163 c-31 89 -61
167 -66 172 l-10 10 5 -15z"/>
<path d="M80546 64322 l-5 -8 95 -194 c101 -207 101 -207 110 -197 l6 6 -55
108 c-30 59 -72 147 -92 196 -21 48 -41 90 -46 92 l-8 5 -5 -8z"/>
<path d="M40795 64185 c19 -7 467 -56 472 -51 6 6 -44 13 -249 36 -164 18
-248 24 -223 15z"/>
<path d="M40072 64085 l-12 -25 9 0 c4 0 13 11 19 25 l12 25 -9 0 c-4 0 -13
-11 -19 -25z"/>
<path d="M41715 64015 c-3 -8 -7 -22 -10 -30 l-4 -15 13 0 14 0 6 23 c8 31 7
37 -4 37 -6 0 -13 -7 -15 -15z"/>
<path d="M41710 63630 l0 -13 7 6 6 7 -6 7 -7 6 0 -13z"/>
<path d="M41270 63571 c0 -5 57 -72 127 -150 l126 -141 16 0 15 0 -33 33 c-19
17 -81 85 -139 150 -58 64 -107 117 -109 117 -1 0 -3 -4 -3 -9z"/>
<path d="M41760 63576 c0 -4 21 -31 46 -59 25 -28 83 -103 129 -167 l83 -115
103 -114 c174 -192 339 -382 339 -390 0 -14 -56 -63 -507 -448 l-53 -44 0 -19
c0 -10 5 -22 10 -25 l10 -6 0 22 0 21 38 35 c20 19 136 119 257 223 121 103
228 197 239 209 l19 21 8 -6 9 -5 0 15 0 16 15 0 15 0 0 9 c0 14 119 125 268
251 72 62 132 116 132 121 0 11 -239 -191 -342 -288 -36 -35 -68 -63 -71 -63
-7 0 -373 412 -446 503 -61 75 -81 95 -62 60 17 -33 131 -164 475 -551 l20
-22 -10 -10 -10 -10 -224 257 c-124 141 -266 311 -316 377 -96 127 -173 217
-174 202z"/>
<path d="M41038 63362 c-37 -31 -67 -61 -67 -65 l-1 -8 28 20 c48 36 127 110
117 110 -5 0 -40 -26 -77 -57z"/>
<path d="M43200 63380 l0 -13 7 6 6 7 -6 7 -7 6 0 -13z"/>
<path d="M57499 63063 l-44 -45 53 33 c29 18 55 36 57 40 l5 7 -14 5 -13 5
-44 -45z"/>
<path d="M15030 62993 l0 -32 10 -6 10 -6 0 23 c0 13 -5 30 -10 38 l-10 15 0
-32z"/>
<path d="M58739 62960 c-15 -4 -54 -22 -88 -40 l-61 -33 0 -9 c0 -5 3 -8 8 -6
4 2 41 21 83 41 l77 38 118 -10 c66 -6 129 -11 142 -11 l22 0 0 9 0 8 -112 7
c-62 4 -124 9 -138 11 l-25 3 -26 -8z"/>
<path d="M17715 62938 l-300 -9 -330 -25 c-181 -14 -332 -27 -334 -30 -8 -8
63 -4 379 21 l315 25 155 0 c85 0 226 3 313 7 l157 6 0 9 0 8 -27 -2 c-16 -1
-163 -5 -328 -10z"/>
<path d="M14753 62923 l-123 -4 0 -14 0 -15 78 0 c44 0 140 3 215 7 l137 6 0
14 0 13 -92 -2 c-51 -1 -148 -4 -215 -5z"/>
<path d="M16355 62891 c28 -5 118 -11 200 -14 l150 -4 -30 8 -29 8 -171 5
-170 5 50 -8z"/>
<path d="M10227 62745 c-11 -27 -8 -32 8 -11 l14 18 223 -17 223 -16 188 7
188 7 3 6 4 6 -281 0 -282 0 -141 9 -141 8 -6 -17z"/>
<path d="M42434 62647 c-38 -35 -162 -143 -276 -240 l-208 -177 -6 -25 -6 -25
57 -68 c32 -37 87 -102 123 -144 36 -43 69 -78 74 -78 9 0 -36 54 -198 243
l-42 49 6 20 5 20 236 203 c216 185 324 285 309 285 -3 0 -36 -28 -74 -63z"/>
<path d="M42932 62515 c-122 -105 -230 -200 -240 -210 l-17 -18 15 9 c14 7
410 344 454 385 11 10 18 20 15 22 -2 2 -104 -82 -227 -188z"/>
<path d="M58242 62609 c15 -8 793 -340 838 -356 l15 -6 -10 11 c-10 11 -837
362 -852 362 -4 0 0 -5 9 -11z"/>
<path d="M39352 62315 c7 -7 470 -77 475 -71 6 6 -25 12 -247 46 -194 30 -238
35 -228 25z"/>
<path d="M57569 62060 l-202 -160 -18 0 -18 0 5 -14 5 -13 22 -1 22 0 380
-167 c209 -92 395 -173 413 -180 l32 -14 0 7 c0 4 -187 88 -415 187 -228 99
-415 182 -415 185 0 3 37 34 83 70 266 210 328 260 319 260 -6 0 -102 -72
-213 -160z"/>
<path d="M57320 61862 c0 -9 859 -384 871 -380 5 2 -177 84 -404 182 -226 98
-422 185 -434 192 -25 16 -33 17 -33 6z"/>
<path d="M61550 61694 c0 -11 88 -422 96 -447 3 -10 8 -17 10 -14 5 5 -92 456
-100 465 l-6 5 0 -9z"/>
<path d="M56277 61627 l-19 -32 26 24 25 24 -5 8 c-7 12 -7 13 -27 -24z"/>
<path d="M54625 61580 c-99 -21 -206 -43 -237 -50 l-58 -11 0 -11 0 -10 48 5
47 6 -75 -19 c-41 -11 -83 -19 -92 -20 l-18 0 0 -20 c0 -11 1 -20 3 -20 2 0
95 20 208 45 218 49 419 102 432 115 l9 8 -9 5 c-4 3 -24 8 -43 11 l-35 5
-180 -39z m160 9 c-33 -10 -67 -18 -75 -18 -21 1 90 37 115 37 l20 0 -60 -19z
m-115 -29 c-14 -4 -34 -8 -45 -8 l-20 0 25 8 c14 4 34 8 45 8 l20 0 -25 -8z
m-90 -20 c-14 -4 -34 -8 -45 -8 l-20 0 25 8 c14 4 34 8 45 8 l20 0 -25 -8z
m-90 -20 c-14 -4 -34 -8 -45 -8 l-20 0 25 8 c14 4 34 8 45 8 l20 0 -25 -8z"/>
<path d="M54920 61580 c-75 -21 -69 -25 13 -9 l57 12 0 8 c0 5 -1 9 -2 8 -2 0
-32 -9 -68 -19z"/>
<path d="M22290 61570 l0 -8 115 -41 c132 -47 281 -91 307 -91 l17 0 11 19 c5
11 10 26 10 33 l-1 13 -15 -28 -15 -29 -12 5 c-7 3 -55 16 -107 31 -52 14
-143 43 -202 65 l-108 39 0 -8z"/>
<path d="M42790 61080 l-14 -9 16 -18 c155 -179 284 -319 294 -321 l14 -3 6
15 6 16 -73 79 c-41 43 -108 117 -149 164 -41 47 -77 86 -80 86 -3 0 -12 -3
-20 -9z"/>
<path d="M35153 60684 c5 -5 383 -43 441 -44 l19 0 -5 5 c-5 5 -402 44 -447
45 l-14 0 6 -6z"/>
<path d="M62535 60350 c-99 -21 -285 -60 -413 -87 -128 -26 -228 -49 -223 -51
5 -2 195 34 422 78 l414 81 10 10 9 9 -19 -1 c-11 0 -101 -18 -200 -39z"/>
<path d="M58406 60298 c20 -40 43 -81 52 -90 l15 -18 27 0 c39 0 90 11 90 20
l0 7 -50 -11 -49 -10 -19 17 c-10 9 -33 48 -52 87 -19 38 -38 70 -42 70 l-8 0
36 -72z"/>
<path d="M46095 59958 l-220 -222 160 151 c198 187 303 293 290 293 -6 0 -109
-100 -230 -222z"/>
<path d="M46125 59936 l-220 -214 5 -5 6 -6 219 219 c121 121 217 220 215 220
-3 0 -105 -96 -225 -214z"/>
<path d="M61954 59775 c2 -11 21 -99 41 -195 34 -159 45 -203 45 -172 0 25
-73 358 -82 372 l-9 15 5 -20z"/>
<path d="M77960 59640 c0 -21 102 -420 182 -712 l81 -298 13 0 13 0 -4 13
c-12 34 -179 656 -220 820 l-48 187 -8 0 c-5 0 -9 -5 -9 -10z"/>
<path d="M45290 59553 c29 -32 141 -147 249 -256 l196 -198 119 -85 c65 -47
120 -83 123 -81 2 3 -50 44 -116 91 l-120 86 -243 250 c-133 138 -247 250
-252 250 -5 0 15 -26 44 -57z"/>
<path d="M45215 59580 l-5 -7 245 -251 245 -250 121 -86 121 -87 6 5 c7 7 17
-1 -113 91 l-110 78 -83 81 c-46 45 -160 161 -253 258 l-169 176 -5 -8z"/>
<path d="M83837 59165 c6 -11 92 -176 192 -366 99 -190 188 -366 197 -392 9
-26 20 -50 25 -53 l9 -5 -20 53 c-21 56 -385 756 -402 773 l-10 10 9 -20z"/>
<path d="M46421 59123 c69 -88 203 -243 206 -239 6 6 -199 255 -211 255 l-8 1
13 -17z"/>
<path d="M49160 58848 c-74 -100 -148 -199 -163 -220 -16 -21 -25 -38 -20 -38
7 1 109 135 306 402 16 21 25 38 20 38 -4 -1 -69 -82 -143 -182z"/>
<path d="M39560 58811 l0 -8 178 -63 c97 -35 193 -71 212 -81 l35 -17 53 -54
53 -53 33 -70 33 -70 7 -47 7 -48 10 0 c5 0 9 3 9 8 -1 23 -23 104 -42 152
l-22 55 -38 46 -38 46 -52 36 -53 36 -140 52 c-77 28 -164 59 -192 69 l-53 19
0 -8z"/>
<path d="M62432 58715 c-112 -24 -206 -46 -209 -49 -4 -3 -4 -6 -2 -6 15 0
444 91 448 95 9 10 -40 2 -237 -40z"/>
<path d="M49585 58528 c-82 -106 -152 -199 -158 -206 -5 -7 -8 -14 -5 -17 2
-2 75 88 162 201 86 113 155 208 153 211 -3 2 -71 -83 -152 -189z"/>
<path d="M50713 58594 c5 -5 83 -29 173 -55 91 -25 162 -43 157 -38 -4 4 -75
27 -158 50 -82 23 -157 44 -165 47 l-15 5 8 -9z"/>
<path d="M51430 58468 l0 -14 97 -59 97 -59 58 -4 58 -4 0 10 0 11 -57 6 -58
7 -73 44 c-40 24 -84 51 -97 60 l-25 16 0 -14z"/>
<path d="M63994 58013 c3 -10 39 -193 81 -408 42 -214 101 -500 131 -635 67
-307 64 -293 70 -288 2 3 -16 97 -40 209 -25 112 -47 218 -50 234 -2 17 -44
227 -93 467 l-88 438 -8 0 -8 0 5 -17z"/>
<path d="M64034 58010 c17 -74 86 -406 86 -414 l0 -9 6 6 7 6 -43 208 c-24
114 -47 213 -52 218 l-9 10 5 -25z"/>
<path d="M35762 57879 l-64 -8 -81 -27 -82 -27 10 -4 c6 -2 43 8 83 21 l72 25
118 12 117 12 63 -10 62 -10 0 7 c0 20 -173 25 -298 9z"/>
<path d="M35758 57840 c-56 -10 -179 -49 -192 -61 -14 -13 -7 -11 70 15 l69
23 85 12 85 13 90 -6 90 -5 -25 8 -25 9 -100 0 c-55 0 -121 -4 -147 -8z"/>
<path d="M64221 57124 c-1 -19 73 -387 85 -423 2 -8 6 -12 9 -10 3 4 -69 363
-88 435 l-5 19 -1 -21z"/>
<path d="M79736 56891 l-68 -109 -102 -100 -101 -99 -40 -21 c-64 -32 -163
-63 -250 -77 l-80 -13 49 -1 48 -1 62 15 c154 39 212 74 338 202 l86 88 44 70
c25 39 57 89 71 113 15 23 24 42 20 42 -5 0 -39 -49 -77 -109z"/>
<path d="M90620 56490 c0 -4 54 -31 120 -59 l120 -52 242 -130 c134 -72 251
-138 261 -146 9 -9 19 -14 22 -11 11 11 -66 58 -288 177 l-228 122 -124 54
-125 53 0 -8z"/>
<path d="M26362 56435 l-11 -24 9 -6 9 -6 10 20 c6 11 11 24 11 30 0 20 -17
11 -28 -14z"/>
<path d="M26466 56441 l-5 -7 172 -90 172 -91 8 5 9 4 -59 32 c-32 18 -111 60
-176 93 l-117 61 -4 -7z"/>
<path d="M84861 56350 l29 -69 86 -348 c92 -379 92 -378 99 -371 3 3 -36 166
-86 364 l-90 359 -27 67 c-15 37 -30 68 -34 68 -3 0 7 -31 23 -70z"/>
<path d="M64411 56247 c14 -7 33 -18 43 -26 l16 -13 0 -28 0 -27 -18 -16 -19
-17 -26 0 -26 0 -13 14 -13 13 -15 -8 c-8 -4 -126 -29 -262 -56 -137 -26 -248
-50 -248 -54 0 -3 117 17 260 46 l260 52 11 -13 11 -14 38 0 39 0 20 26 21 27
0 32 0 32 -23 21 -23 22 -30 -1 -29 -1 26 -11z"/>
<path d="M64340 56226 l-25 -23 -247 -49 c-137 -27 -248 -51 -248 -55 0 -3
117 17 260 46 l259 51 21 27 21 27 -8 0 c-5 0 -20 -11 -33 -24z"/>
<path d="M36700 55964 c-91 -36 -169 -70 -175 -75 l-10 -10 27 10 c105 40 344
134 347 137 15 14 -46 -6 -189 -62z"/>
<path d="M63660 55980 c0 -6 7 -13 15 -17 l16 -5 7 6 6 7 -14 9 c-20 13 -30
12 -30 0z"/>
<path d="M32560 55908 c0 -6 188 -367 197 -377 1 -2 5 -2 8 0 2 3 -38 85 -89
183 -84 159 -116 213 -116 194z"/>
<path d="M25490 55886 c0 -4 75 -52 288 -184 134 -84 94 -49 -60 51 -204 133
-228 147 -228 133z"/>
<path d="M62758 55806 c-135 -28 -250 -54 -254 -58 l-7 -8 24 0 c36 0 523 101
534 111 l9 9 -29 -1 c-17 -1 -141 -25 -277 -53z"/>
<path d="M35980 55800 c0 -4 29 -15 65 -25 l65 -17 0 -9 c0 -5 -19 -55 -41
-111 -23 -57 -46 -121 -51 -142 l-9 -40 11 -27 12 -27 41 -33 42 -33 -42 47
c-45 48 -46 53 -43 102 l2 30 46 115 c25 63 48 117 51 120 3 3 7 11 9 18 l3
14 -19 -6 -19 -6 -61 19 -62 19 0 -8z"/>
<path d="M25990 55662 c0 -15 519 -384 545 -387 6 -1 18 -5 28 -9 l17 -8 0
-14 0 -14 10 0 10 0 0 13 c0 8 -10 23 -22 34 l-23 20 -16 0 -15 0 -65 43 c-35
24 -149 105 -254 180 -104 75 -196 140 -202 144 l-13 7 0 -9z"/>
<path d="M51470 55310 l35 -8 198 -4 197 -3 0 6 c0 9 -195 19 -339 18 l-126
-1 35 -8z"/>
<path d="M50825 55209 l-70 -18 47 4 c26 2 62 11 80 19 44 19 28 18 -57 -5z"/>
<path d="M26756 55124 l91 -45 79 -13 c43 -8 100 -16 127 -20 l47 -6 0 9 0 8
-72 7 c-40 4 -108 16 -150 26 l-76 19 -61 30 c-33 17 -64 31 -68 30 -4 0 33
-21 83 -45z"/>
<path d="M53223 54938 c-5 -7 -27 -41 -47 -76 -21 -34 -110 -169 -199 -300
-88 -130 -236 -355 -328 -499 -92 -144 -195 -299 -229 -343 -34 -45 -60 -83
-57 -86 9 -9 167 215 308 436 78 124 222 342 319 485 97 143 189 283 204 310
16 28 36 58 44 68 l15 17 -10 0 c-6 0 -15 -6 -20 -12z"/>
<path d="M53285 54930 c4 -14 9 -32 11 -41 l5 -16 -137 -206 c-75 -114 -135
-209 -132 -212 2 -2 68 92 146 211 l142 215 -21 37 -20 37 6 -25z"/>
<path d="M81392 54551 c-106 -27 -195 -51 -199 -54 l-6 -7 9 0 c5 1 106 25
224 54 l215 54 -25 0 c-14 0 -112 -21 -218 -47z"/>
<path d="M51885 54403 c-165 -215 -178 -233 -168 -232 4 0 24 21 43 47 20 26
85 111 144 190 60 78 107 144 105 147 -3 2 -59 -66 -124 -152z"/>
<path d="M52996 54495 c10 -8 24 -14 29 -14 l10 0 -19 14 c-11 8 -24 15 -30
15 l-10 0 20 -15z"/>
<path d="M51940 54300 c-78 -105 -140 -193 -138 -196 3 -2 69 82 147 187 78
105 140 193 138 195 -2 3 -69 -81 -147 -186z"/>
<path d="M80755 54229 c24 -94 46 -173 51 -177 l7 -7 -5 20 c-55 227 -84 335
-89 335 l-7 0 43 -171z"/>
<path d="M88035 54386 l-20 -15 10 -2 c6 0 27 0 48 1 l37 2 30 -30 30 -30 0
-24 0 -23 -21 -34 c-22 -36 -21 -45 4 -35 l17 6 11 38 12 38 -7 36 -7 35 -27
20 -28 19 -34 7 -35 6 -20 -15z"/>
<path d="M51440 54365 l-12 -15 10 0 c12 0 26 19 19 26 -2 2 -10 -2 -17 -11z"/>
<path d="M48165 54156 c-83 -45 -203 -104 -268 -132 l-117 -51 6 -5 5 -6 107
47 c101 43 406 202 427 222 l9 9 -9 -1 c-6 0 -78 -37 -160 -83z"/>
<path d="M72748 54019 l-158 -141 6 -9 5 -9 160 143 c146 131 172 157 152 157
-5 0 -79 -64 -165 -141z"/>
<path d="M52631 53862 c-85 -128 -138 -227 -165 -310 l-18 -52 -26 -15 -27
-14 18 -1 18 0 23 25 24 26 6 34 7 35 45 85 c25 47 73 129 108 183 77 120 78
122 72 122 -3 0 -41 -53 -85 -118z"/>
<path d="M51410 53861 c0 -5 96 -88 213 -184 l213 -175 41 -46 40 -46 6 7 6 6
-37 45 -37 45 -210 172 c-115 94 -216 175 -222 179 l-13 7 0 -10z"/>
<path d="M13437 53834 l-5 -6 170 -140 c94 -77 177 -142 184 -145 l14 -5 0 8
c-1 8 -315 269 -345 286 l-12 7 -6 -5z"/>
<path d="M77468 53633 l-188 -74 0 -8 0 -8 195 76 c107 42 195 79 195 84 0 11
-3 10 -202 -70z"/>
<path d="M66500 53665 c-58 -12 -154 -33 -213 -45 -59 -13 -106 -25 -103 -27
5 -5 457 86 465 93 10 9 -52 1 -149 -21z"/>
<path d="M66173 53556 l-432 -91 -8 -9 -8 -8 20 5 c11 3 216 47 455 97 239 50
440 92 445 94 44 18 -104 -10 -472 -88z"/>
<path d="M50283 53603 c9 -2 25 -2 35 0 l17 5 -35 0 -35 0 18 -5z"/>
<path d="M13837 53583 l-6 -5 62 -51 c34 -28 113 -94 175 -145 l114 -94 9 9 9
9 -162 129 c-89 72 -169 135 -178 142 l-17 12 -6 -6z"/>
<path d="M52007 53473 l-6 -9 55 -63 c30 -35 70 -87 89 -117 l35 -54 10 0 c5
0 10 3 10 6 0 11 -101 149 -144 197 l-44 49 -5 -9z"/>
<path d="M53865 53324 c-82 -40 -185 -87 -228 -103 l-77 -30 -313 -164 c-171
-91 -350 -181 -397 -202 -47 -20 -91 -41 -97 -47 l-13 -10 -12 5 -13 5 -114
241 c-63 132 -116 239 -119 236 -2 -2 48 -115 113 -251 l117 -247 -14 -8 c-7
-5 -41 -25 -76 -45 l-62 -35 -9 6 c-15 9 -155 271 -215 403 l-56 124 5 7 4 8
73 6 73 6 23 27 c30 34 20 44 -13 12 l-25 -25 -82 -7 c-45 -4 -84 -9 -86 -11
-3 -3 0 -10 5 -17 6 -7 39 -76 74 -153 35 -77 80 -168 101 -202 20 -34 51 -90
68 -123 l31 -61 16 -6 17 -7 78 42 77 42 11 -19 c5 -11 10 -22 10 -25 0 -3
-45 -29 -101 -57 -56 -27 -99 -52 -96 -55 3 -3 50 17 105 45 l101 51 51 -108
c28 -59 68 -142 87 -184 20 -43 39 -78 44 -78 l8 0 -90 187 -90 188 8 3 c23 8
487 252 480 252 -4 0 -116 -54 -248 -121 -133 -66 -242 -119 -244 -117 -1 2
-7 13 -14 25 l-11 22 22 13 c13 7 68 33 123 59 55 25 237 118 405 206 168 88
322 166 343 172 52 18 425 200 407 200 -8 -1 -82 -34 -165 -75z"/>
<path d="M49801 53254 l1 -19 5 13 5 13 -6 6 -6 6 1 -19z"/>
<path d="M51475 53253 c-45 -23 -75 -54 -91 -92 -8 -19 -12 -36 -10 -38 2 -3
7 5 11 17 4 12 20 36 36 54 l29 34 30 12 c16 7 30 16 30 21 0 11 1 11 -35 -8z"/>
<path d="M37220 53178 c0 -13 -14 -95 -30 -183 -30 -161 -34 -193 -25 -183 3
3 19 79 35 169 16 90 32 176 34 192 l6 27 -10 0 -10 0 0 -22z"/>
<path d="M34798 53133 c-6 -42 -4 -48 11 -38 l11 6 0 35 0 34 -9 0 -9 0 -4
-37z"/>
<path d="M51515 52870 c42 -33 44 -34 65 -20 l15 10 -26 0 -26 0 -26 20 c-14
11 -28 20 -32 20 -4 0 9 -13 30 -30z"/>
<path d="M77718 52827 l-188 -72 0 -12 0 -13 48 19 c26 10 116 44 200 76 l152
58 0 8 c0 16 -23 9 -212 -64z"/>
<path d="M51417 52773 c-65 -36 -116 -67 -114 -69 4 -5 247 126 247 132 0 9
-20 -1 -133 -63z"/>
<path d="M65062 52785 c-117 -24 -216 -46 -220 -50 l-7 -7 40 7 c166 30 416
82 421 88 l7 7 -14 -1 c-8 -1 -110 -21 -227 -44z"/>
<path d="M48328 52767 l-16 -12 96 -202 97 -202 12 -1 c6 0 15 5 18 10 l6 10
-97 203 c-53 111 -97 203 -98 204 -2 2 -10 -3 -18 -10z"/>
<path d="M27756 52573 c-4 -87 -9 -187 -12 -223 l-5 -65 9 15 10 15 7 190 c3
105 9 198 11 208 l5 17 -9 0 -9 0 -7 -157z"/>
<path d="M26794 52688 c33 -46 123 -185 158 -243 l36 -60 12 -105 12 -105 -6
-150 -5 -150 10 40 11 40 -6 190 -5 190 -9 38 -10 37 -73 118 c-79 127 -119
182 -133 182 l-8 0 16 -22z"/>
<path d="M81980 52412 c0 -4 53 -23 118 -42 64 -18 162 -51 217 -72 55 -21
104 -37 109 -35 14 5 -194 80 -331 121 -62 19 -113 31 -113 28z"/>
<path d="M27045 52113 l0 -233 8 0 7 0 -1 173 c-1 94 -4 199 -8 232 l-7 60 1
-232z"/>
<path d="M83898 52241 c-207 -53 -380 -99 -383 -103 -3 -3 173 39 392 94 219
54 400 101 402 104 12 12 -65 -6 -411 -95z"/>
<path d="M27696 52170 c-3 -60 -8 -161 -11 -222 l-4 -113 8 45 c10 52 26 400
18 400 -2 0 -7 -49 -11 -110z"/>
<path d="M82903 51952 c-101 -26 -183 -49 -183 -53 l0 -7 197 50 c109 27 200
51 202 54 11 10 -47 -1 -216 -44z"/>
<path d="M88225 51465 c-198 -150 -359 -276 -357 -279 1 -3 5 -6 10 -5 9 1
732 548 732 554 0 19 -68 -29 -385 -270z"/>
<path d="M12651 51244 c-106 -62 -198 -118 -205 -125 l-11 -12 19 7 c30 10
385 217 392 228 3 5 4 10 3 12 -2 1 -91 -48 -198 -110z"/>
<path d="M33501 50820 c-1 -14 32 -224 98 -630 17 -102 31 -192 32 -200 l1
-15 4 12 5 12 -31 203 c-59 385 -91 583 -100 608 l-8 25 -1 -15z"/>
<path d="M35891 50445 c-3 -22 73 -485 79 -485 l6 0 -37 234 c-20 128 -39 240
-42 247 l-5 14 -1 -10z"/>
<path d="M33710 49884 c0 -26 51 -388 55 -392 3 -3 5 1 5 9 0 31 -50 382 -55
387 -3 3 -5 1 -5 -4z"/>
<path d="M36070 49492 c-27 -18 -40 -32 -40 -46 l0 -8 23 21 c12 12 31 28 42
36 l20 14 -10 0 c-5 0 -21 -8 -35 -17z"/>
<path d="M37953 49143 l7 -6 7 6 6 7 -13 0 -13 0 6 -7z"/>
<path d="M37960 49096 c0 -15 71 -431 75 -445 3 -8 8 -12 11 -9 2 3 -12 104
-32 224 l-36 219 -9 10 -9 9 0 -8z"/>
<path d="M36090 49071 c0 -15 47 -303 56 -340 3 -13 7 -21 9 -19 5 5 -54 360
-61 367 -2 2 -4 -1 -4 -8z"/>
<path d="M34375 49008 c3 -13 19 -108 35 -212 29 -183 34 -205 45 -195 4 5
-46 345 -60 407 l-5 22 -10 0 -10 0 5 -22z"/>
<path d="M91573 48876 c6 -15 243 -374 258 -390 l9 -10 6 7 6 6 -133 200 c-74
110 -138 200 -143 201 l-8 0 5 -14z"/>
<path d="M65960 48665 l-12 -15 6 -35 7 -35 9 0 9 0 -6 35 -6 35 13 15 12 15
-10 0 c-5 0 -15 -7 -22 -15z"/>
<path d="M34485 48630 l-6 -10 15 0 c8 0 18 5 21 10 l6 10 -15 0 c-8 0 -18 -4
-21 -10z"/>
<path d="M45427 48410 c-6 -17 -24 -414 -33 -745 l-6 -230 6 6 6 6 10 274 c5
151 14 365 21 476 6 111 9 208 6 215 l-5 13 -5 -15z"/>
<path d="M32834 48240 c6 -25 47 -291 68 -432 l11 -78 9 0 9 0 -5 18 c-2 9
-21 125 -42 257 l-37 240 -9 10 -9 10 5 -25z"/>
<path d="M31837 47195 c3 -77 9 -176 13 -220 l9 -80 -6 175 c-3 96 -9 195 -14
220 l-8 45 6 -140z"/>
<path d="M57096 47082 l-5 -9 94 -191 94 -192 10 0 10 0 -95 197 c-52 108 -96
199 -98 201 -2 2 -6 -1 -10 -6z"/>
<path d="M46306 46912 c-16 -26 -121 -540 -112 -549 5 -5 17 51 45 208 12 63
34 168 50 232 26 109 29 129 17 109z"/>
<path d="M28617 46724 l-249 -12 -6 -8 -7 -7 115 6 c63 4 184 10 268 13 l152
7 0 8 0 9 -12 -1 c-7 -1 -125 -8 -261 -15z"/>
<path d="M36496 46587 l-8 -28 6 -6 6 -6 6 5 c3 4 4 19 2 35 l-4 28 -8 -28z"/>
<path d="M52041 46353 c34 -70 98 -204 143 -298 46 -93 106 -221 136 -283 29
-61 55 -110 58 -108 2 3 -45 110 -106 238 -61 128 -146 309 -189 402 l-79 170
-12 4 -11 3 60 -128z"/>
<path d="M24462 46414 l-22 -15 0 -30 0 -29 10 0 10 0 6 25 c3 13 12 29 20 36
32 26 12 38 -24 13z"/>
<path d="M46207 46270 c-110 -586 -108 -581 -164 -698 l-34 -73 -75 -75 -75
-76 7 -7 6 -6 87 92 86 91 37 89 37 88 6 55 c4 30 29 174 56 319 27 145 48
271 47 280 l-3 16 -18 -95z"/>
<path d="M24517 46203 l-7 -6 0 -66 0 -66 57 -124 c32 -67 59 -119 60 -114 2
5 -20 58 -49 119 l-52 109 0 77 c-1 43 -1 78 -2 78 0 0 -4 -3 -7 -7z"/>
<path d="M46080 45790 c0 -24 -50 -172 -75 -221 l-17 -34 -76 -77 -77 -78 11
0 c14 0 138 129 162 170 24 41 67 156 80 218 l10 42 -9 0 -9 0 0 -20z"/>
<path d="M25775 44460 l-120 -6 145 -1 c80 -1 183 2 230 6 l85 8 -110 -1 c-60
0 -164 -3 -230 -6z"/>
<path d="M26972 44184 c7 -6 350 -171 388 -185 l25 -10 -10 10 c-11 11 -389
191 -401 191 l-7 0 5 -6z"/>
<path d="M55680 43453 c2 -42 112 -377 131 -397 l9 -10 0 15 c0 9 -22 78 -50
155 -27 77 -54 163 -60 192 l-12 52 -9 0 c-5 0 -9 -3 -9 -7z"/>
<path d="M48313 43192 l-13 -8 148 -2 c81 -1 185 -4 232 -7 l85 -5 -20 8 -20
9 -200 7 -200 6 -12 -8z"/>
<path d="M51555 42959 c-66 -11 -132 -18 -146 -16 l-25 3 -12 -12 -11 -13 9
-3 10 -3 26 -165 c14 -91 28 -167 30 -169 11 -11 12 8 3 48 -5 24 -18 99 -28
168 l-18 125 11 3 c6 2 81 13 166 25 148 21 197 31 134 29 -16 -1 -83 -10
-149 -20z"/>
<path d="M51340 42932 c0 -6 9 -73 20 -149 21 -143 37 -213 47 -213 l5 0 -6
23 c-3 12 -18 94 -31 181 -22 138 -35 198 -35 158z"/>
<path d="M51208 42536 l-166 -21 -8 -8 -8 -8 39 6 c22 3 111 14 199 25 87 11
161 22 164 25 8 8 -40 4 -220 -19z"/>
<path d="M39633 42397 c-11 -12 -34 -46 -52 -76 l-33 -54 -4 -51 -5 -51 9 -60
10 -60 -2 100 -1 100 34 60 c18 33 43 70 54 82 11 13 18 25 15 28 -2 3 -14 -5
-25 -18z"/>
<path d="M55950 41940 l0 -200 10 0 10 0 0 200 0 200 -10 0 -10 0 0 -200z"/>
<path d="M30336 41598 c22 -24 82 -89 134 -146 51 -56 95 -100 98 -98 6 7
-250 286 -262 286 l-10 0 40 -42z"/>
<path d="M30140 40936 l-95 -73 -80 -26 -80 -27 -28 0 -27 0 0 -10 0 -10 28 0
28 0 86 29 87 29 100 77 c56 41 101 78 101 80 0 16 -37 -5 -120 -69z"/>
<path d="M92672 40825 c-101 -73 -186 -136 -189 -139 l-6 -6 9 0 c5 0 83 55
174 121 91 66 174 127 184 135 11 7 18 15 15 18 -2 2 -86 -56 -187 -129z"/>
<path d="M56378 40883 c67 -2 177 -2 245 0 l122 3 -245 0 -245 0 123 -3z"/>
<path d="M47292 39558 c-27 -51 -64 -121 -81 -155 l-31 -62 0 -31 0 -30 15 0
15 0 0 26 0 27 80 152 80 152 -7 6 c-14 15 -23 4 -71 -85z"/>
<path d="M51560 39083 l0 -8 208 -44 c114 -25 216 -47 227 -49 l20 -5 -10 10
-10 10 -200 42 c-110 24 -208 45 -217 47 l-18 5 0 -8z"/>
<path d="M88098 38507 c-98 -61 -178 -115 -178 -119 0 -7 341 202 365 223 l9
9 -9 0 c-6 0 -90 -51 -187 -113z"/>
<path d="M60290 38450 c0 -5 5 -10 10 -10 l10 0 0 -16 0 -15 -47 -67 c-26 -37
-87 -110 -135 -162 -48 -52 -84 -97 -81 -100 8 -8 158 157 223 248 l60 82 0
15 0 14 -20 11 -20 11 0 -11z"/>
<path d="M86965 37814 c-93 -58 -177 -113 -185 -121 l-15 -16 15 8 c27 14 355
218 365 227 l9 8 -9 0 c-6 0 -86 -48 -180 -106z"/>
<path d="M60639 37464 c-13 -15 -59 -53 -103 -85 l-78 -58 -72 -27 c-77 -29
-82 -32 -75 -39 3 -2 41 9 84 26 l79 30 65 49 c37 27 84 67 106 89 l39 41 -10
0 c-6 0 -21 -12 -35 -26z"/>
<path d="M59550 37214 c0 -4 12 -28 27 -55 l26 -49 25 -7 25 -6 111 32 c61 18
113 35 115 37 14 14 -17 8 -117 -23 l-114 -34 -24 16 -24 15 -20 40 c-19 37
-30 49 -30 34z"/>
<path d="M85895 37053 c-27 -19 -57 -38 -65 -43 l-15 -8 6 -6 6 -6 59 42 c73
51 68 47 63 52 -2 2 -26 -12 -54 -31z"/>
<path d="M40760 36649 c-91 -22 -267 -61 -392 -87 l-228 -47 0 -8 0 -8 18 5
c9 3 148 32 307 65 160 33 331 69 380 80 l90 20 6 -7 c11 -12 61 -343 124
-812 14 -107 30 -204 35 -215 l9 -20 0 30 c0 17 -13 118 -29 225 -16 107 -45
303 -64 435 -20 132 -40 269 -45 304 l-10 64 -13 8 c-7 5 -15 8 -18 8 -3 -1
-79 -19 -170 -40z"/>
<path d="M39814 36253 c3 -16 8 -121 12 -235 l6 -208 10 0 9 0 -5 18 c-2 9 -8
115 -11 235 l-7 217 -10 0 -10 0 6 -27z"/>
<path d="M88101 35885 c-188 -116 -208 -131 -200 -140 5 -5 354 208 378 231
42 39 -13 11 -178 -91z"/>
<path d="M84840 35610 c-54 -36 -42 -40 15 -5 l40 24 40 0 40 0 26 -22 26 -22
56 -101 56 -100 60 -78 c32 -43 94 -136 137 -206 43 -71 80 -127 82 -125 6 6
-165 280 -224 360 -28 39 -75 113 -104 165 l-52 95 -27 22 -26 22 -50 1 -50 0
-45 -30z"/>
<path d="M84916 35603 c-21 -6 -464 -288 -486 -311 l-15 -15 15 8 c8 4 119 75
246 156 l231 149 27 0 26 0 20 -20 c11 -11 33 -45 49 -77 16 -32 62 -103 102
-159 41 -55 112 -164 159 -242 47 -78 88 -142 92 -142 10 0 -183 315 -245 400
-30 41 -74 110 -97 153 l-42 77 -21 15 c-22 15 -28 16 -61 8z"/>
<path d="M33945 35328 l-180 -201 -42 -62 c-51 -76 -123 -214 -123 -235 l1
-15 40 80 c23 44 65 116 94 160 l54 80 157 175 c200 224 188 209 183 214 -2 2
-85 -86 -184 -196z"/>
<path d="M79815 35429 l-130 -69 -128 -41 c-70 -23 -125 -44 -123 -47 3 -2 56
13 118 33 l113 38 148 74 c129 64 166 86 140 82 -5 -1 -66 -32 -138 -70z"/>
<path d="M39618 35317 l-208 -41 0 -19 0 -18 18 4 c43 13 130 31 283 60 l166
32 -5 13 -4 12 -21 -1 c-12 -1 -115 -20 -229 -42z"/>
<path d="M60776 34681 l-78 -213 6 -5 c3 -4 6 -4 6 -1 0 3 34 96 75 208 41
112 74 208 72 214 -2 5 -38 -86 -81 -203z"/>
<path d="M81807 34795 c23 -27 62 -70 88 -95 26 -25 77 -85 114 -135 38 -49
79 -99 92 -110 l24 -20 -21 25 c-11 14 -48 63 -82 110 l-61 85 -97 95 -97 95
40 -50z"/>
<path d="M60566 33870 l-19 -135 -20 -34 -20 -33 -61 -29 -61 -29 24 0 24 0
43 25 42 25 20 32 20 33 17 122 c9 66 15 129 13 140 l-4 18 -18 -135z"/>
<path d="M34170 33388 c-58 -44 -135 -101 -172 -126 l-68 -45 0 -76 0 -77 -15
-58 c-21 -78 -39 -115 -83 -166 l-36 -43 14 5 c8 2 32 27 53 54 l37 49 19 60
19 60 7 92 7 91 169 127 c93 70 169 129 169 131 0 12 -25 -4 -120 -78z"/>
<path d="M98818 31737 l-27 -11 -10 -29 -11 -29 30 32 30 32 25 -4 25 -5 0 7
c0 7 -28 22 -33 19 -1 -1 -14 -6 -29 -12z"/>
<path d="M98893 31718 c3 -9 46 -74 95 -145 49 -70 128 -186 176 -258 109
-160 316 -435 328 -435 l9 0 -7 13 c-4 6 -36 48 -70 92 -87 112 -211 286 -376
525 -78 113 -146 210 -151 215 l-10 10 6 -17z"/>
<path d="M95310 26779 c-96 -71 -177 -134 -179 -140 -3 -9 325 226 359 257
l14 14 -9 -1 c-6 0 -89 -58 -185 -130z"/>
<path d="M24715 25988 c-3 -7 -27 -80 -55 -163 l-50 -149 -35 -53 c-39 -58
-40 -63 -22 -63 l12 0 34 52 34 52 53 160 c30 88 54 164 54 168 0 13 -20 9
-25 -4z"/>
<path d="M89600 21448 c0 -9 23 -111 51 -228 l51 -212 9 9 8 8 -51 210 c-28
116 -54 214 -59 220 l-9 9 0 -16z"/>
<path d="M89557 20836 l-135 -124 5 -6 6 -6 90 83 c49 45 110 101 136 123 l46
42 -6 6 -7 7 -135 -125z"/>
<path d="M90336 19932 l-6 -10 56 -204 c31 -111 58 -205 60 -207 2 -2 7 -2 10
1 l5 6 -57 208 c-31 115 -58 210 -59 212 -2 2 -6 -1 -9 -6z"/>
<path d="M92930 16991 c0 -9 646 -584 664 -590 19 -6 -39 47 -356 328 -170
149 -308 267 -308 262z"/>
<path d="M97447 11743 l-5 -8 49 -38 c27 -21 49 -37 49 -35 0 2 -20 23 -44 47
l-44 43 -5 -9z"/>
<path d="M24968 4342 c-133 -162 -149 -184 -131 -189 l8 -2 140 171 c77 94
142 175 143 180 l4 8 -14 0 -13 0 -137 -168z"/>
<path d="M26110 4000 l0 -10 95 0 96 0 130 -16 131 -16 5 6 6 6 -7 7 c-4 4
-53 13 -109 20 l-102 12 -122 1 -123 0 0 -10z"/>
<path d="M24125 3168 l-168 -283 -174 -257 c-95 -141 -176 -264 -179 -272 l-6
-16 10 0 11 0 174 258 174 257 172 287 c94 158 171 292 171 298 0 32 -34 -18
-185 -272z"/>
<path d="M10790 1701 l0 -10 43 -5 c23 -3 127 -11 230 -17 l188 -11 6 6 6 6
-6 6 c-6 6 -347 33 -429 34 l-38 0 0 -9z"/>
</g>
</svg>
