<?xml version="1.0" standalone="no"?>
<!DOCTYPE svg PUBLIC "-//W3C//DTD SVG 20010904//EN"
 "http://www.w3.org/TR/2001/REC-SVG-20010904/DTD/svg10.dtd">
<svg version="1.0" xmlns="http://www.w3.org/2000/svg"
 width="7500.000000pt" height="7500.000000pt" viewBox="0 0 7500.000000 7500.000000"
 preserveAspectRatio="xMidYMid meet">
<metadata>
Created by potrace 1.16, written by Peter Selinger 2001-2019
</metadata>
<g transform="translate(0.000000,7500.000000) scale(0.075000,-0.075000)"
fill="#000000" stroke="none">
<path d="M82199 99651 l124 -70 9 -16 9 -15 59 -30 c79 -40 89 -38 17 4 -32
18 -63 40 -70 49 -14 19 -241 147 -260 147 -6 0 44 -31 112 -69z"/>
<path d="M89890 99581 c41 -35 54 -32 20 4 l-23 25 -16 0 -16 -1 35 -28z"/>
<path d="M83290 99052 c0 -4 62 -43 137 -87 l137 -80 97 -36 96 -36 249 -16
249 -17 157 8 158 9 7 8 8 8 -80 -7 c-44 -4 -150 -7 -235 -7 l-155 1 -180 14
-180 14 -100 38 c-55 20 -120 49 -145 64 -138 83 -220 129 -220 122z"/>
<path d="M83713 98873 l7 -11 77 -11 c43 -5 123 -13 178 -16 55 -3 119 -8 143
-11 l42 -5 0 10 0 11 -62 0 c-80 0 -347 26 -372 36 l-19 7 6 -10z"/>
<path d="M85675 98000 l-30 -9 40 3 40 3 35 -10 35 -9 22 -20 21 -20 21 -66
c11 -37 25 -101 32 -142 l12 -75 5 14 5 14 -12 71 c-7 39 -19 96 -28 128 l-15
56 -32 30 -31 30 -45 5 -45 5 -30 -8z"/>
<path d="M85585 97949 c-27 -5 -81 -16 -120 -23 l-70 -14 -69 -31 c-97 -44
-76 -49 25 -6 l83 36 106 16 105 16 10 8 9 9 -14 -1 c-8 -1 -37 -5 -65 -10z"/>
<path d="M87470 96380 l-85 -6 125 -1 c69 0 168 3 220 7 l95 7 -135 0 c-74 -1
-173 -4 -220 -7z"/>
<path d="M86914 96274 l-31 -34 -119 -1 -119 0 -17 -7 -17 -7 132 0 132 0 15
10 c22 15 64 64 59 69 -3 3 -18 -11 -35 -30z"/>
<path d="M56740 92960 c0 -11 349 -204 356 -197 3 2 -76 50 -175 105 l-181
100 0 -8z"/>
<path d="M94400 91176 c0 -9 101 -78 106 -73 3 3 -16 21 -42 41 -42 33 -64 43
-64 32z"/>
<path d="M94871 90980 c0 -8 15 -40 34 -70 19 -30 42 -71 51 -90 30 -63 42
-84 52 -88 l10 -3 -19 38 c-10 20 -19 43 -19 51 0 7 -14 32 -31 55 -17 23 -41
60 -55 82 l-23 40 0 -15z"/>
<path d="M94030 89535 c0 -13 328 -341 334 -334 3 3 -71 81 -164 174 -94 94
-170 165 -170 160z"/>
<path d="M86360 88980 c41 -5 125 -11 185 -15 l110 -6 65 10 65 9 -135 -1
c-74 0 -187 2 -250 5 l-115 6 75 -8z"/>
<path d="M79855 88191 l-5 -9 18 -7 c9 -3 196 -69 415 -147 l399 -140 5 6 c4
3 4 8 2 10 -2 3 -171 63 -374 135 -204 71 -389 136 -412 145 l-42 15 -6 -8z"/>
<path d="M90306 87971 l-200 -67 -4 -12 -4 -12 8 0 c5 0 100 30 211 67 l203
68 0 12 c0 7 -3 13 -7 12 -5 0 -98 -31 -207 -68z"/>
<path d="M36220 87403 c1 -12 412 -334 418 -328 3 3 3 7 1 8 -133 109 -410
327 -414 327 -3 0 -5 -3 -5 -7z"/>
<path d="M84447 87193 l-98 -193 8 0 c10 0 200 377 193 383 -3 2 -49 -84 -103
-190z"/>
<path d="M56640 85850 l0 -10 195 0 195 0 0 10 0 10 -195 0 -195 0 0 -10z"/>
<path d="M88430 85619 c-29 -112 -55 -211 -58 -219 l-5 -15 10 10 10 10 52
198 c29 109 50 204 48 210 -1 5 -27 -82 -57 -194z"/>
<path d="M63720 85685 l0 -26 16 -24 16 -25 9 6 9 5 -10 19 c-5 10 -10 30 -10
44 l0 26 -15 0 -15 0 0 -25z"/>
<path d="M75555 85598 c-3 -7 -38 -107 -79 -222 l-75 -210 6 -9 6 -10 9 17 c5
9 20 47 33 84 13 37 46 131 74 209 l50 142 -10 6 -9 6 -5 -13z"/>
<path d="M56250 85570 l0 -10 195 0 195 0 0 10 0 10 -195 0 -195 0 0 -10z"/>
<path d="M83985 84974 c-93 -85 -171 -159 -173 -164 l-4 -10 12 0 12 0 147
132 c80 72 157 142 171 154 l24 24 -9 9 -10 9 -170 -154z"/>
<path d="M89241 84646 c2 -2 103 -32 224 -66 121 -33 227 -63 235 -66 l15 -5
-10 9 c-5 6 -108 38 -227 71 -201 56 -248 68 -237 57z"/>
<path d="M86653 84573 l7 -6 7 6 6 7 -13 0 -13 0 6 -7z"/>
<path d="M64640 84514 c-113 -24 -217 -43 -232 -44 l-28 0 0 -10 0 -10 23 0
c34 0 431 82 441 92 5 4 8 9 5 11 -2 2 -96 -15 -209 -39z"/>
<path d="M64370 84520 l0 -10 16 0 15 0 -6 10 c-3 6 -10 10 -16 10 -5 0 -9 -4
-9 -10z"/>
<path d="M86618 84355 c-33 -214 -53 -430 -73 -793 -15 -277 -18 -358 -11
-351 2 2 12 137 20 299 20 354 47 656 76 843 12 76 20 148 18 160 l-3 22 -27
-180z"/>
<path d="M80066 84482 c5 -5 95 -38 199 -75 105 -36 199 -68 210 -73 l20 -7
-10 10 c-9 10 -406 153 -422 153 -4 0 -3 -4 3 -8z"/>
<path d="M80510 84372 c0 -4 21 -15 48 -24 26 -9 120 -42 210 -73 90 -32 165
-55 167 -53 3 2 -64 28 -148 57 -83 30 -180 64 -214 77 l-63 23 0 -7z"/>
<path d="M80935 84182 c14 -13 415 -155 421 -149 3 3 -28 16 -68 30 -40 14
-138 48 -218 76 -79 28 -140 47 -135 43z"/>
<path d="M83358 84053 c-25 -27 -52 -61 -61 -78 l-14 -30 -6 -72 -6 -73 8 0 9
0 6 31 c3 17 6 47 6 66 l0 34 19 37 19 37 41 40 c39 38 50 55 33 55 -4 0 -28
-21 -54 -47z"/>
<path d="M11943 83957 l3 -10 220 -48 c120 -26 221 -45 224 -43 9 10 -25 22
-104 38 -44 9 -141 30 -214 45 l-133 29 4 -11z"/>
<path d="M81818 83903 l13 -5 6 6 6 6 -19 -1 -19 -1 13 -5z"/>
<path d="M13750 83541 c0 -5 8 -12 18 -15 21 -6 223 -24 345 -29 l87 -5 0 8
c0 11 -55 20 -130 20 -69 0 -256 16 -297 25 l-23 5 0 -9z"/>
<path d="M76997 83349 c-65 -105 -116 -193 -114 -196 4 -3 175 264 241 375 l7
12 -8 0 c-4 -1 -61 -87 -126 -191z"/>
<path d="M76794 82943 c-197 -317 -361 -583 -362 -592 -4 -18 70 100 467 737
145 232 262 425 259 427 -2 3 -166 -255 -364 -572z"/>
<path d="M82460 83199 c-85 -94 -155 -175 -155 -180 0 -22 30 6 174 164 l154
168 -10 10 -9 9 -154 -171z"/>
<path d="M84396 83179 c143 -182 177 -226 196 -261 12 -21 25 -38 30 -38 l8 0
-31 50 c-40 65 -227 304 -242 309 -6 2 12 -25 39 -60z"/>
<path d="M17563 82187 l3 -11 214 -53 213 -54 8 8 8 8 -225 57 -225 56 4 -11z"/>
<path d="M69783 80674 c7 -8 441 -93 446 -88 2 2 -2 6 -10 8 -18 6 -421 86
-433 86 l-9 0 6 -6z"/>
<path d="M63121 79653 c0 -5 62 -141 138 -303 l137 -295 114 3 115 3 10 11 10
10 -30 -5 c-16 -3 -71 -9 -120 -12 l-91 -7 -138 301 c-77 166 -141 301 -142
301 -2 0 -4 -3 -3 -7z"/>
<path d="M59287 79193 l-5 -8 66 -100 c37 -56 99 -142 138 -192 l71 -91 13 8
13 8 -80 103 c-44 57 -106 143 -137 192 -54 82 -69 97 -79 80z"/>
<path d="M32525 79058 c-16 -6 -86 -34 -155 -63 -69 -29 -143 -58 -165 -65
-22 -7 -43 -15 -48 -17 l-7 -4 5 -9 6 -9 92 33 c151 56 327 130 327 138 0 10
-18 9 -55 -4z"/>
<path d="M60895 78801 c-6 -5 -97 -60 -203 -121 -106 -62 -191 -114 -189 -117
6 -5 416 230 417 240 0 10 -14 9 -25 -2z"/>
<path d="M99401 78712 c-64 -119 -257 -620 -248 -645 1 -5 22 49 46 120 55
159 104 285 169 431 28 61 49 112 47 112 -2 0 -9 -8 -14 -18z"/>
<path d="M12977 77625 c-31 -109 -55 -201 -52 -203 6 -6 6 -7 65 202 28 98 49
183 47 189 -2 6 -29 -79 -60 -188z"/>
<path d="M24410 77683 l0 -8 217 -67 c198 -61 239 -70 220 -52 -8 8 -407 134
-424 134 -7 0 -13 -3 -13 -7z"/>
<path d="M69733 77107 c-67 -74 -302 -367 -295 -367 10 0 325 380 319 386 -2
2 -13 -6 -24 -19z"/>
<path d="M72070 77070 l0 -10 245 0 245 0 0 10 0 10 -245 0 -245 0 0 -10z"/>
<path d="M74838 76960 l-86 -80 -16 -47 -16 -47 0 -48 0 -48 15 0 15 0 0 50 0
51 14 32 14 32 85 84 86 85 -5 8 c-9 15 -18 9 -106 -72z"/>
<path d="M74546 76729 l-16 -23 0 -41 1 -40 12 -17 13 -17 12 8 12 7 -15 20
c-19 24 -19 42 0 78 l16 29 -10 10 -9 9 -16 -23z"/>
<path d="M30256 76538 c-3 -13 -6 -34 -6 -47 l0 -25 9 10 c5 5 13 26 16 47 l7
37 -10 0 -10 0 -6 -22z"/>
<path d="M74380 76542 c0 -10 203 -129 325 -190 55 -28 127 -66 160 -85 33
-19 97 -56 142 -82 l82 -47 12 4 12 4 -199 111 c-109 61 -231 127 -271 147
-39 19 -112 60 -163 91 -95 57 -100 60 -100 47z"/>
<path d="M16400 76436 l0 -13 202 -92 201 -92 10 10 11 11 -55 24 c-30 13
-123 56 -208 95 -85 39 -156 71 -158 71 -2 0 -3 -6 -3 -14z"/>
<path d="M29675 74848 l-30 -28 -65 -1 -65 -1 45 -9 45 -10 31 6 31 5 22 24
c13 14 22 28 20 33 l-4 8 -30 -27z"/>
<path d="M72165 73195 l-58 -135 -48 -79 -47 -79 6 -6 c12 -13 22 -2 70 82 44
77 145 295 154 331 l3 14 -11 3 -10 4 -59 -135z"/>
<path d="M75435 71998 c-2 -7 -33 -107 -69 -223 l-65 -210 9 -9 8 -8 31 98
c17 55 48 156 70 227 l39 127 -9 6 -9 5 -5 -13z"/>
<path d="M26040 71871 l0 -9 63 -6 c34 -4 130 -13 212 -20 83 -8 158 -17 168
-21 l17 -7 0 15 0 15 -32 6 c-40 8 -339 36 -390 36 l-38 0 0 -9z"/>
<path d="M74399 70680 l-5 -75 18 -115 c21 -135 27 -164 33 -158 3 2 -2 42
-11 89 l-16 84 -7 125 -7 125 -5 -75z"/>
<path d="M26465 70440 l-40 -29 -110 -47 c-123 -52 -185 -85 -185 -97 l0 -9
33 20 c17 11 79 39 137 63 l105 43 58 38 c31 21 57 41 57 43 0 11 -17 3 -55
-25z"/>
<path d="M28670 70463 c0 -12 107 -78 175 -109 77 -34 181 -64 220 -63 l30 0
-85 23 c-100 28 -218 77 -275 116 -22 14 -46 30 -52 34 l-13 7 0 -8z"/>
<path d="M74484 70305 c3 -16 22 -120 42 -230 33 -184 44 -232 44 -194 0 30
-78 440 -85 447 l-7 7 6 -30z"/>
<path d="M69125 69828 c-148 -154 -282 -296 -298 -314 l-27 -33 9 -5 9 -6 295
308 c162 169 296 311 297 317 1 5 -2 11 -7 12 -4 1 -129 -124 -278 -279z"/>
<path d="M33570 69082 c0 -10 -5 -23 -12 -30 l-12 -12 11 -11 11 -11 11 6 11
7 0 35 0 34 -10 0 -10 0 0 -18z"/>
<path d="M28535 67850 c29 -14 247 -61 253 -55 3 2 -1 7 -9 9 -27 10 -238 56
-251 55 l-13 0 20 -9z"/>
<path d="M28845 67780 l6 -10 22 0 22 0 -15 10 c-8 5 -21 10 -28 10 l-13 0 6
-10z"/>
<path d="M28930 67752 l0 -10 22 -5 c40 -11 40 5 1 17 l-23 7 0 -9z"/>
<path d="M67963 67550 c36 -49 43 -72 83 -255 33 -151 44 -188 44 -153 0 27
-70 330 -84 362 l-13 31 -28 25 -28 25 26 -35z"/>
<path d="M67934 67519 c14 -17 28 -40 31 -52 3 -12 21 -94 41 -182 32 -144 44
-188 44 -158 0 5 -18 92 -39 193 l-40 182 -22 24 c-12 13 -27 24 -32 24 l-9 0
26 -31z"/>
<path d="M17818 67164 l-76 -100 -40 -80 c-21 -43 -43 -89 -46 -101 l-7 -23 9
0 9 0 38 85 38 86 79 105 79 105 -4 12 -3 11 -76 -100z"/>
<path d="M38452 66914 l-214 -12 -6 -8 -7 -7 100 6 c55 4 157 10 228 13 l127
7 0 8 c0 5 -3 8 -7 8 -5 -1 -104 -8 -221 -15z"/>
<path d="M16800 66909 c47 -4 150 -7 230 -6 l145 0 -130 8 c-71 3 -175 7 -230
6 l-100 0 85 -8z"/>
<path d="M37016 66839 c-76 -4 -141 -11 -145 -14 l-6 -7 150 7 c83 4 188 11
235 15 l85 7 -90 0 c-49 0 -152 -4 -229 -8z"/>
<path d="M37060 66799 c-80 -5 -154 -10 -165 -13 -32 -7 333 6 389 14 l51 8
-65 -1 c-36 0 -130 -4 -210 -8z"/>
<path d="M63740 65950 c0 -5 5 -10 10 -10 6 0 10 5 10 10 0 6 -4 10 -10 10 -5
0 -10 -4 -10 -10z"/>
<path d="M63753 65845 l0 -40 4 23 c2 12 2 30 0 40 l-5 17 1 -40z"/>
<path d="M63750 65735 l0 -15 10 0 10 0 0 15 0 15 -10 0 -10 0 0 -15z"/>
<path d="M17346 65303 c-16 -120 -31 -224 -33 -230 l-5 -13 16 0 16 0 0 13 c0
6 14 106 30 221 27 198 29 226 12 226 l-7 0 -29 -217z"/>
<path d="M50000 65343 c0 -5 8 -13 18 -20 9 -6 56 -38 105 -72 48 -34 87 -57
87 -53 0 5 -47 41 -105 81 -58 39 -105 68 -105 64z"/>
<path d="M33144 64977 c-74 -59 -195 -170 -190 -175 3 -2 46 32 95 76 50 45
103 89 118 99 l27 18 61 6 60 6 -65 1 -65 2 -41 -33z"/>
<path d="M31155 64774 c-46 -30 -285 -264 -285 -278 0 -6 57 46 128 115 70 69
144 136 164 149 21 14 38 28 38 33 0 10 -1 10 -45 -19z"/>
<path d="M50906 64654 c-9 -20 -76 -136 -147 -256 -72 -121 -129 -222 -126
-224 6 -6 287 468 294 496 8 31 -2 24 -21 -16z"/>
<path d="M37060 64570 l-11 -20 10 0 c5 0 16 -3 25 -6 l16 -6 0 20 0 20 -15 6
-15 5 -10 -19z"/>
<path d="M28900 64498 l-35 -71 -55 -46 c-30 -25 -76 -60 -103 -76 -45 -29
-58 -45 -37 -45 12 0 142 88 181 122 14 13 40 46 57 74 l32 50 6 32 7 32 -9
-1 c-5 0 -25 -32 -44 -71z"/>
<path d="M36960 64441 c0 -14 -74 -532 -114 -791 -31 -207 -34 -242 -21 -229
5 6 56 350 111 749 20 146 38 268 41 273 l4 7 -10 0 c-6 0 -11 -4 -11 -9z"/>
<path d="M50226 64352 c16 -14 386 -163 392 -158 2 3 -6 10 -20 15 -14 5 -102
41 -197 80 -169 70 -194 79 -175 63z"/>
<path d="M59817 64298 c-8 -12 -29 -50 -47 -83 l-32 -60 -44 -130 c-25 -71
-47 -139 -50 -150 l-5 -20 20 35 c11 19 36 84 56 144 l35 109 45 85 c25 47 43
87 41 89 -2 3 -11 -6 -19 -19z"/>
<path d="M78523 63981 c-190 -24 -236 -33 -222 -45 3 -2 433 49 447 53 6 2 1
21 -5 20 -5 -1 -103 -13 -220 -28z"/>
<path d="M36917 63848 c-19 -108 -58 -402 -55 -416 2 -9 18 86 36 212 18 125
31 230 29 233 -3 2 -7 -11 -10 -29z"/>
<path d="M34826 63809 c-9 -27 -52 -389 -46 -389 3 0 17 89 31 198 24 179 28
230 15 191z"/>
<path d="M51271 63096 c11 -10 343 -146 347 -141 3 2 -6 9 -19 14 -13 5 -89
37 -168 70 -126 54 -175 71 -160 57z"/>
<path d="M58640 62911 c-99 -55 -423 -277 -429 -293 l-4 -11 11 7 11 7 23 -14
c36 -22 398 -170 404 -164 4 3 -278 124 -393 168 l-26 10 9 8 c28 25 370 254
428 286 l69 38 341 -27 c188 -15 357 -30 376 -33 l35 -5 -10 9 -10 10 -335 27
c-184 14 -353 26 -375 26 l-40 -1 -85 -48z"/>
<path d="M94156 62812 l-4 -7 214 -79 214 -79 7 7 c3 3 4 8 2 9 -5 4 -418 157
-424 157 -2 0 -6 -3 -9 -8z"/>
<path d="M51325 62384 c-60 -92 -111 -170 -113 -175 l-4 -9 14 0 13 0 110 166
c61 92 112 170 113 175 l4 9 -14 0 -13 0 -110 -166z"/>
<path d="M89015 62351 c17 -16 97 -86 179 -155 l149 -125 9 5 c5 3 8 7 6 9
-120 105 -352 295 -361 295 l-12 0 30 -29z"/>
<path d="M58440 61823 c-12 -27 -49 -111 -82 -188 -34 -77 -66 -146 -71 -152
l-9 -13 -23 0 -22 0 -208 90 c-114 50 -210 89 -212 86 -3 -2 15 -13 39 -23 24
-11 114 -50 201 -88 86 -38 157 -72 157 -75 0 -9 -223 -76 -302 -91 l-58 -12
0 -7 0 -7 98 22 c53 12 143 37 199 54 l102 32 20 -10 c27 -15 36 -14 22 3
l-12 14 10 4 c5 1 44 82 86 178 42 96 83 185 91 198 l14 22 104 0 104 0 83
-35 c45 -20 87 -34 92 -32 l10 3 -89 37 -89 37 -117 0 -117 0 -21 -47z"/>
<path d="M61761 61779 c-101 -21 -187 -41 -189 -44 -16 -16 25 -10 211 28
l207 42 0 8 0 7 -22 -1 c-13 0 -106 -18 -207 -40z"/>
<path d="M59255 61623 c15 -14 366 -164 377 -161 8 3 -302 141 -368 164 l-19
7 10 -10z"/>
<path d="M60568 61562 c-7 -9 -38 -37 -68 -62 -30 -25 -100 -92 -155 -149
-109 -113 -380 -363 -500 -462 -68 -56 -88 -79 -67 -79 28 0 407 341 570 514
63 66 126 128 140 139 40 30 112 100 112 109 0 14 -18 9 -32 -10z"/>
<path d="M58316 61471 l-5 -8 190 -82 c104 -45 196 -84 204 -88 l15 -5 0 8 0
9 -53 22 c-28 12 -118 51 -199 86 l-148 65 -4 -7z"/>
<path d="M59637 61423 c-3 -10 -15 -50 -26 -89 -12 -39 -32 -126 -46 -194
l-25 -123 1 -51 2 -51 9 60 c20 134 50 285 74 368 14 49 24 91 21 93 -3 3 -8
-3 -10 -13z"/>
<path d="M54550 61372 c0 -11 195 -865 207 -905 2 -10 7 -17 9 -14 3 2 -14 82
-36 178 -21 96 -69 302 -104 458 -36 156 -67 286 -70 289 l-6 5 0 -11z"/>
<path d="M57840 61308 c0 -11 272 -429 277 -425 2 3 -53 94 -123 203 -119 187
-154 237 -154 222z"/>
<path d="M96025 61162 c13 -15 396 -225 400 -220 3 2 -69 44 -158 93 -89 48
-182 99 -207 113 -25 14 -40 20 -35 14z"/>
<path d="M54629 60886 l-6 -6 51 -226 c28 -124 52 -221 54 -215 2 6 -17 102
-42 214 -24 111 -46 210 -48 220 l-3 19 -6 -6z"/>
<path d="M50000 60820 l0 -9 15 5 c8 4 15 8 15 10 0 2 -7 4 -15 4 l-15 0 0
-10z"/>
<path d="M61763 60685 c3 -11 27 -121 53 -245 25 -124 51 -232 56 -240 l9 -15
-5 23 c-2 13 -26 125 -52 250 l-47 227 -9 10 -10 10 5 -20z"/>
<path d="M61354 60603 c3 -10 28 -128 56 -261 l50 -244 -6 -10 -6 -10 -8 13
-8 12 -15 -15 -15 -15 -194 -38 -193 -38 -10 -9 -10 -9 25 5 c14 4 111 24 216
45 l192 38 72 -364 c40 -200 71 -365 68 -368 -5 -5 -390 -86 -393 -83 -1 2
-17 79 -35 173 -19 93 -35 164 -37 158 -3 -7 10 -82 27 -168 l32 -157 -6 -14
-5 -14 10 0 11 0 -6 -17 -7 -16 9 -6 9 -6 31 -160 c17 -88 34 -176 37 -195 7
-43 152 -726 200 -945 19 -88 36 -171 37 -185 1 -14 4 -29 6 -34 l5 -8 6 10 6
9 203 43 203 42 14 -6 14 -5 3 9 3 10 644 135 c355 75 647 138 650 140 10 11
-49 -1 -659 -129 -349 -74 -637 -132 -639 -130 -2 2 -35 160 -73 351 -72 363
-76 379 -83 371 -3 -2 27 -163 66 -357 l70 -353 -4 -11 -4 -12 -203 -43 c-112
-23 -205 -40 -208 -38 -2 3 -21 87 -42 188 -241 1140 -275 1307 -269 1313 7 6
431 96 435 92 2 -2 20 -89 39 -193 81 -432 98 -520 106 -534 l8 -15 1 22 c0
12 -18 111 -41 220 -22 109 -53 266 -69 348 l-28 150 6 6 c4 4 102 26 217 49
116 24 316 65 445 92 129 27 318 66 420 85 184 36 197 39 189 47 -4 5 -701
-134 -1048 -209 l-214 -46 -12 5 -13 4 -8 -8 c-7 -7 -418 -100 -441 -100 -1 0
-3 7 -3 15 0 8 3 15 7 15 3 0 91 18 195 40 l189 40 9 -5 8 -5 4 8 3 8 207 43
207 43 16 -6 15 -5 0 10 0 11 20 -5 19 -5 3 8 3 8 215 46 c118 25 304 62 413
83 l197 37 0 8 0 7 -12 -4 c-7 -2 -101 -20 -208 -41 -107 -20 -287 -56 -400
-80 l-205 -43 -6 7 c-3 4 -21 81 -39 172 l-32 165 -11 10 -10 10 5 -15 c3 -8
20 -90 39 -182 l34 -167 -8 -8 -8 -7 -8 12 c-4 7 -23 86 -41 175 l-33 162 -10
10 -9 10 5 -20 c3 -11 20 -91 38 -178 l32 -158 -9 -8 c-11 -9 -422 -97 -427
-90 -2 2 -34 157 -71 344 -37 187 -70 350 -73 363 l-5 22 15 0 14 0 23 -112
c33 -171 52 -249 57 -244 3 2 -12 84 -32 181 -20 97 -35 178 -33 180 2 2 280
61 618 129 690 141 664 135 658 142 -3 2 -292 -54 -642 -126 -351 -71 -639
-130 -640 -130 -2 0 -27 119 -57 265 l-54 265 -8 0 -8 0 5 -17z"/>
<path d="M53444 60595 c8 -28 10 -336 3 -420 l-6 -70 10 35 11 35 0 208 1 208
-13 12 -12 12 6 -20z"/>
<path d="M55515 60581 c12 -11 118 -42 124 -36 4 5 -3 8 -79 30 l-54 15 9 -9z"/>
<path d="M57310 60456 c0 -3 13 -40 29 -84 26 -70 48 -165 43 -184 l-2 -7 14
5 13 5 -13 62 c-7 34 -25 95 -40 135 l-26 72 -9 0 c-5 0 -9 -2 -9 -4z"/>
<path d="M62308 60302 c-230 -47 -418 -88 -418 -92 l0 -6 413 83 c226 46 421
87 432 92 l20 10 -15 -1 c-8 0 -203 -39 -432 -86z"/>
<path d="M57835 60264 c-44 -14 -133 -36 -198 -49 l-119 -25 -19 -22 c-10 -13
-35 -57 -55 -98 -20 -41 -45 -85 -56 -96 l-20 -22 10 -6 9 -5 21 22 c11 12 36
56 56 97 19 41 42 83 50 94 l15 18 93 19 c51 10 146 33 211 50 l117 32 0 9 0
8 -17 -1 c-10 -1 -54 -12 -98 -25z"/>
<path d="M63524 60260 c3 -14 48 -221 100 -461 52 -239 129 -608 171 -820 42
-211 89 -445 105 -519 16 -74 104 -497 195 -940 174 -843 174 -844 181 -837 2
2 -72 375 -166 828 -94 453 -187 905 -206 1004 -111 564 -357 1716 -374 1750
l-10 20 4 -25z"/>
<path d="M63564 60260 c23 -96 159 -730 211 -985 35 -170 100 -483 144 -695
44 -212 148 -718 231 -1125 83 -407 153 -746 156 -754 24 -72 -12 115 -162
844 -96 468 -219 1071 -274 1340 -123 602 -292 1380 -303 1392 l-9 8 6 -25z"/>
<path d="M58636 60229 c-59 -14 -57 -20 5 -13 l54 6 102 -208 101 -209 123
-290 122 -290 17 -15 c10 -8 21 -26 25 -40 28 -100 118 -370 122 -366 3 2 -23
94 -58 203 l-63 198 -13 11 -14 12 -64 150 c-36 83 -65 155 -65 160 0 5 8 13
17 16 23 9 324 238 319 243 -2 3 -77 -50 -165 -116 -89 -67 -167 -121 -174
-121 l-12 0 -74 178 -74 177 -84 163 -84 162 -12 -1 c-7 -1 -30 -5 -51 -10z"/>
<path d="M92914 59937 c-27 -34 -89 -107 -138 -162 -49 -55 -98 -110 -109
-121 l-19 -22 9 -5 9 -5 116 131 c64 73 135 155 158 184 l41 52 -9 5 -9 6 -49
-63z"/>
<path d="M83370 59965 c0 -14 50 -101 128 -225 126 -199 299 -507 522 -930
l198 -375 13 -43 c6 -23 16 -42 20 -42 l8 0 -19 54 -18 54 -172 329 c-205 390
-408 752 -537 956 -51 81 -102 165 -113 187 -18 36 -30 49 -30 35z"/>
<path d="M93000 59959 c8 -5 53 -29 100 -53 47 -24 114 -65 148 -91 77 -56 94
-54 20 3 -51 39 -255 152 -274 152 l-9 0 15 -11z"/>
<path d="M58810 59913 c0 -6 28 -70 62 -144 34 -74 105 -237 158 -364 l97
-230 19 -3 19 -4 -16 14 -16 13 -53 130 c-51 124 -257 585 -266 594 -2 2 -4 0
-4 -6z"/>
<path d="M60837 59560 c-126 -26 -231 -51 -235 -55 l-7 -8 25 6 c14 3 120 24
235 47 116 23 214 46 220 51 l9 9 -9 -1 c-6 0 -113 -23 -238 -49z"/>
<path d="M61053 59565 c12 -42 227 -1088 227 -1104 l0 -16 -413 -85 c-226 -47
-419 -84 -427 -83 -8 2 -25 0 -37 -2 l-23 -5 0 -11 0 -11 14 11 14 12 23 -11
24 -11 2 -27 1 -27 -15 -17 -15 -17 -16 6 c-10 3 -25 13 -35 22 l-18 15 4 18
5 18 -9 0 -9 0 0 -21 c0 -11 4 -29 10 -39 l10 -18 31 -7 31 -7 24 23 24 22 0
19 0 18 8 0 c16 0 787 162 791 166 10 10 -45 0 -409 -76 -212 -44 -388 -80
-392 -80 -5 0 -8 6 -8 13 l0 13 405 84 c223 46 407 81 409 79 3 -2 39 -171 81
-374 42 -204 80 -379 85 -390 l9 -20 0 21 c1 12 -32 181 -73 375 -41 195 -77
368 -80 384 -3 17 -58 280 -122 585 l-116 555 -10 10 -10 10 5 -20z"/>
<path d="M83612 59478 c22 -40 69 -122 103 -183 136 -240 459 -858 475 -907 6
-21 15 -40 20 -43 l9 -6 -20 58 -19 57 -161 306 c-179 340 -430 790 -441 790
-4 0 11 -33 34 -72z"/>
<path d="M93702 59525 c8 -9 411 -125 416 -120 6 6 13 4 -213 70 -182 53 -214
61 -203 50z"/>
<path d="M59857 59365 c-114 -23 -210 -45 -214 -49 l-6 -6 9 0 c5 1 115 23
244 49 l235 49 -30 0 c-16 0 -123 -19 -238 -43z"/>
<path d="M50034 59175 c22 -19 44 -35 50 -35 l11 1 -30 25 c-16 14 -39 29 -50
35 l-20 10 39 -36z"/>
<path d="M63078 58893 c35 -170 110 -539 167 -822 57 -282 107 -516 110 -519
l5 -5 7 6 6 7 -49 242 c-28 134 -104 503 -170 820 l-119 578 -11 0 -10 0 64
-307z"/>
<path d="M50048 59071 c-21 -27 -41 -57 -44 -67 l-7 -19 47 59 c39 49 55 78
44 76 -2 -1 -20 -23 -40 -49z"/>
<path d="M55200 59035 c0 -2 -27 -103 -60 -223 -33 -121 -60 -228 -60 -238 l1
-19 8 15 c5 8 34 112 66 230 32 118 60 221 62 228 l5 12 -11 0 c-6 0 -11 -2
-11 -5z"/>
<path d="M62160 59028 c0 -9 26 -150 59 -314 32 -165 64 -333 71 -374 l13 -75
10 -10 10 -10 -6 25 c-3 14 -20 102 -36 195 -67 368 -105 560 -113 570 l-8 9
0 -16z"/>
<path d="M61661 58913 c-1 -11 14 -94 33 -182 l34 -161 -37 -9 c-20 -5 -99
-26 -176 -46 -162 -42 -169 -44 -163 -50 3 -4 352 84 383 96 l10 4 -4 10 c-2
6 -19 84 -38 175 -18 91 -35 170 -38 175 l-3 10 -1 -22z"/>
<path d="M63180 58848 c1 -37 263 -1312 277 -1348 l7 -15 3 20 4 20 -126 599
c-69 329 -131 631 -137 672 l-12 74 -8 0 -8 0 0 -22z"/>
<path d="M50380 58844 c1 -11 310 -247 317 -241 2 3 -62 55 -144 117 -81 62
-154 117 -160 123 l-13 9 0 -8z"/>
<path d="M62885 58810 c-520 -109 -619 -131 -624 -135 -8 -9 10 -6 413 75 220
44 401 80 403 80 2 0 3 5 3 10 0 12 18 15 -195 -30z"/>
<path d="M62875 58768 c-104 -22 -192 -42 -194 -44 -16 -15 30 -9 207 28 l201
41 -5 9 c-6 10 17 14 -209 -34z"/>
<path d="M61998 58627 c-108 -23 -200 -46 -205 -51 l-8 -8 20 5 c11 3 101 22
200 42 99 20 189 40 200 45 l20 9 -15 -1 c-8 0 -104 -18 -212 -41z"/>
<path d="M62005 58590 c-228 -49 -645 -153 -645 -161 0 -4 87 15 193 41 105
27 298 70 427 96 129 26 239 51 245 56 l9 8 -24 -1 c-14 0 -106 -18 -205 -39z"/>
<path d="M55481 58466 c8 -8 412 -116 416 -112 5 5 -62 25 -263 80 -121 33
-164 42 -153 32z"/>
<path d="M56285 58219 c-2 -8 -21 -81 -40 -163 l-36 -150 -12 -14 c-6 -8 -20
-18 -32 -22 l-20 -9 21 0 21 -1 16 18 16 17 40 165 c21 91 37 167 35 169 -2 2
-6 -2 -9 -10z"/>
<path d="M56287 58057 l-39 -162 -15 -23 -15 -24 -31 -13 -32 -14 26 -1 25 0
25 28 26 27 17 75 c9 41 28 119 40 173 13 53 21 97 17 97 -3 0 -23 -73 -44
-163z"/>
<path d="M53650 58142 c0 -18 184 -434 188 -424 2 8 -173 418 -184 431 -2 2
-4 -1 -4 -7z"/>
<path d="M91810 58146 c0 -3 93 -69 208 -149 l207 -144 160 -93 c88 -51 164
-95 169 -98 l9 -5 -6 10 c-4 6 -82 55 -174 109 l-168 99 -197 137 c-187 131
-208 144 -208 134z"/>
<path d="M54906 58079 c-55 -195 -105 -384 -101 -387 6 -7 8 -2 70 227 31 112
54 206 51 208 -3 3 -12 -19 -20 -48z"/>
<path d="M63045 57975 c-110 -23 -301 -64 -425 -90 l-225 -48 -10 -10 -10 -9
20 5 c11 3 119 26 240 51 642 132 627 129 614 140 -2 2 -94 -16 -204 -39z"/>
<path d="M55466 57744 c-98 -13 -184 -25 -190 -28 l-11 -4 19 -1 c28 -1 419
49 425 54 8 9 -64 3 -243 -21z"/>
<path d="M81600 57699 c-107 -15 -203 -28 -212 -28 l-18 -1 0 -15 0 -15 23 5
c12 2 107 16 212 30 104 15 191 28 193 30 2 2 2 8 1 12 l-4 9 -195 -27z"/>
<path d="M54084 57238 c124 -271 161 -348 167 -348 10 0 -184 419 -193 420 -4
0 7 -33 26 -72z"/>
<path d="M61590 57218 c0 -28 79 -385 109 -490 l28 -103 19 -122 19 -123 7 0
8 0 -5 23 c-2 12 -14 78 -25 147 l-21 125 -29 100 c-15 55 -45 179 -65 275
-36 167 -45 202 -45 168z"/>
<path d="M79739 56898 l-63 -103 -76 -79 c-41 -43 -97 -95 -125 -115 l-50 -37
-55 -22 c-30 -12 -77 -28 -105 -36 l-50 -15 -82 -7 -82 -6 -4 -13 -5 -12 46 8
c26 4 66 8 88 8 l41 1 101 34 102 34 47 35 c27 20 87 75 134 124 l86 88 52 84
c28 45 59 94 68 107 l15 24 -9 0 -10 0 -64 -102z"/>
<path d="M50002 56939 l5 -14 67 -39 67 -38 7 7 7 7 -15 8 c-8 5 -44 26 -79
46 l-64 37 5 -14z"/>
<path d="M50073 56764 l-73 -66 0 -21 0 -22 80 80 c75 74 91 95 73 95 -5 0
-41 -30 -80 -66z"/>
<path d="M54375 56636 c-31 -14 -61 -43 -53 -52 7 -6 88 47 88 58 0 10 2 10
-35 -6z"/>
<path d="M90646 56521 c5 -5 65 -34 134 -64 69 -30 147 -67 173 -82 26 -15 50
-25 53 -22 10 9 -334 177 -363 177 l-7 0 10 -9z"/>
<path d="M54575 56513 c26 -25 354 -91 401 -81 l19 4 -95 13 c-78 10 -218 40
-315 68 l-20 5 10 -9z"/>
<path d="M56021 56458 c-5 -13 -28 -84 -51 -158 l-42 -135 -35 -60 c-19 -33
-53 -81 -75 -108 l-40 -48 -12 14 c-38 45 -317 279 -325 272 -2 -3 -2 -6 0 -8
22 -16 144 -119 226 -191 l102 -89 3 -15 3 -16 57 67 57 67 35 72 35 73 45
143 44 142 -9 0 c-5 0 -13 -10 -18 -22z"/>
<path d="M61730 56364 c0 -5 16 -99 36 -209 l37 -200 9 -10 9 -10 -5 25 c-3
14 -22 110 -41 214 -30 162 -45 226 -45 190z"/>
<path d="M56250 56323 c-1 -14 -120 -156 -283 -337 l-159 -176 4 -11 4 -11
119 133 c190 211 277 313 313 363 l33 46 -15 0 c-9 0 -16 -3 -16 -7z"/>
<path d="M64430 56242 l35 -17 3 -33 3 -34 -17 -19 -17 -19 -32 0 -31 0 -10
10 -10 10 -262 -52 c-144 -29 -262 -55 -262 -59 0 -3 116 17 259 46 l258 52
19 -14 19 -14 30 7 30 6 23 21 23 22 -6 35 -6 35 -21 18 -20 17 -22 0 -21 0
35 -18z"/>
<path d="M55535 56032 c82 -84 154 -152 160 -152 12 0 -171 185 -250 252 l-60
51 150 -151z"/>
<path d="M63690 56139 c-14 -5 -34 -20 -45 -33 l-20 -24 -288 -60 c-271 -56
-307 -66 -296 -76 2 -3 133 22 289 55 157 33 293 61 303 62 l17 1 6 18 5 18
29 15 29 15 25 -10 25 -9 16 -25 17 -25 -9 -28 -9 -27 -25 -18 -24 -18 -34 10
c-38 11 -51 6 -34 -11 l12 -12 39 -1 40 -1 21 19 20 18 12 35 11 34 -13 30
-12 31 -21 8 c-12 4 -30 10 -41 13 l-20 6 -25 -10z"/>
<path d="M57271 56104 c1 -15 309 -284 309 -271 0 5 -229 212 -292 265 l-18
15 1 -9z"/>
<path d="M50510 55994 c0 -5 17 -26 38 -46 l37 -36 55 -27 c30 -16 126 -52
212 -81 l158 -53 152 -6 c84 -3 163 -8 176 -11 l22 -4 0 9 0 8 -162 7 -163 7
-160 51 -160 50 -60 30 -60 30 -42 41 -43 41 0 -10z"/>
<path d="M50465 55960 c3 -5 10 -10 16 -10 5 0 9 5 9 10 l0 10 -16 0 -15 0 6
-10z"/>
<path d="M63062 55910 l0 -25 5 13 c2 6 2 18 0 25 l-5 12 0 -25z"/>
<path d="M80899 55770 c-85 -83 -149 -150 -142 -148 14 4 305 289 300 295 -2
2 -73 -64 -158 -147z"/>
<path d="M62475 55748 c-291 -61 -532 -112 -534 -114 -2 -2 -2 -7 2 -10 l5 -6
551 113 551 113 0 8 0 8 -22 -1 c-13 -1 -261 -51 -553 -111z"/>
<path d="M55840 55796 c0 -2 91 -82 202 -178 111 -95 263 -228 337 -295 74
-68 140 -123 145 -123 l10 0 -14 14 c-169 155 -634 559 -667 580 -7 4 -13 5
-13 2z"/>
<path d="M61810 55771 c0 -6 -12 -23 -26 -36 l-27 -25 16 0 16 0 16 31 16 31
-5 6 -6 5 0 -12z"/>
<path d="M50905 55751 c6 -5 33 -16 60 -24 l50 -16 150 -6 c83 -3 160 -8 173
-11 l22 -4 0 8 0 9 -182 10 -183 11 -50 16 -49 16 9 -9z"/>
<path d="M61801 55701 c-6 -11 -11 -33 -11 -50 l0 -31 14 0 13 0 -4 24 -5 24
11 20 11 21 -9 6 -10 6 -10 -20z"/>
<path d="M61543 55703 c32 -2 81 -2 110 0 l52 3 -110 0 -110 0 58 -3z"/>
<path d="M85400 55661 c-19 -10 -104 -40 -187 -67 l-153 -47 0 -8 0 -8 28 9
c15 5 92 29 172 54 l145 46 30 20 30 20 -15 -1 c-8 0 -31 -8 -50 -18z"/>
<path d="M61006 55493 c14 -166 45 -437 49 -442 9 -8 5 40 -15 214 -11 94 -20
198 -20 233 l0 62 -10 0 -11 0 7 -67z"/>
<path d="M63826 55263 c29 -142 72 -351 96 -465 l42 -208 8 0 8 0 -1 18 c0 9
-42 217 -93 461 l-92 445 -11 3 -11 4 54 -258z"/>
<path d="M55377 55464 l-6 -6 24 -37 25 -36 0 -27 0 -28 10 0 10 0 0 27 0 26
-25 44 c-27 46 -28 46 -38 37z"/>
<path d="M74023 55350 c-44 -38 -92 -84 -105 -102 -31 -41 -91 -158 -84 -165
2 -3 21 28 41 68 l37 74 102 97 c55 54 98 98 95 98 -3 0 -42 -31 -86 -70z"/>
<path d="M51107 55276 l-117 -13 -8 -8 -7 -8 55 8 c30 4 136 11 235 15 l180 7
-66 1 c-36 1 -86 4 -110 6 l-44 4 -118 -12z"/>
<path d="M53180 55232 c0 -15 11 -85 24 -155 l25 -127 -32 -51 c-25 -41 -253
-385 -262 -397 -2 -3 -544 365 -571 387 l-11 9 -109 -167 c-60 -91 -182 -264
-272 -384 -90 -121 -166 -225 -169 -233 l-5 -14 6 0 c13 0 261 340 398 548 81
122 151 222 156 222 5 0 132 -85 283 -189 l274 -188 -1 -15 c-1 -8 -55 -97
-121 -199 -66 -101 -123 -190 -128 -198 l-8 -14 10 6 c6 4 68 94 138 202 l127
195 12 0 c6 0 22 -7 34 -16 l22 -15 0 10 c0 6 -10 16 -22 22 -13 6 -24 13 -26
14 -2 2 46 78 107 168 61 91 128 195 150 231 l41 66 -25 121 c-14 67 -25 137
-25 155 l0 34 -10 0 -10 0 0 -28z"/>
<path d="M50825 55209 l-70 -18 47 4 c26 2 62 11 80 19 44 19 28 18 -57 -5z"/>
<path d="M53674 55012 c3 -5 95 -58 203 -117 109 -59 243 -133 297 -164 l100
-56 -30 -6 c-16 -4 -47 -7 -69 -9 -22 -1 -49 -5 -60 -10 l-20 -9 70 6 c39 3
80 9 92 14 l22 8 25 -20 26 -20 0 8 c0 18 -57 61 -130 99 -41 21 -164 87 -273
146 -108 59 -211 115 -228 124 l-31 16 6 -10z"/>
<path d="M52300 54964 c0 -11 630 -428 636 -421 3 3 -400 275 -608 411 l-28
18 0 -8z"/>
<path d="M52141 54769 l-124 -190 -153 -200 c-85 -110 -154 -202 -154 -205 0
-3 5 -4 12 -2 l11 4 25 -23 c14 -13 30 -23 36 -23 l10 0 -33 28 -34 28 130
169 130 170 135 205 c73 113 137 211 142 218 l7 12 -8 -1 c-4 0 -64 -86 -132
-190z"/>
<path d="M53285 54930 c4 -14 9 -32 11 -41 l5 -16 -130 -197 -131 -197 -30 21
-30 21 0 -10 c0 -6 3 -11 8 -11 4 0 15 -7 25 -14 l19 -14 -69 -104 c-38 -57
-149 -225 -246 -373 l-176 -271 -34 -74 c-19 -41 -39 -86 -44 -100 l-10 -25
-23 53 -22 52 -9 0 -9 0 31 -62 31 -61 -23 -18 c-26 -20 -19 -25 10 -10 l17
10 33 -66 32 -66 -13 -8 -13 -9 22 0 21 0 4 9 c6 17 278 161 730 387 l456 229
294 -198 c161 -109 297 -202 302 -207 l10 -10 -149 -70 c-81 -39 -146 -73
-143 -75 3 -3 71 27 152 66 l147 71 19 -5 19 -5 -5 12 -5 12 171 83 171 83 17
-13 c9 -7 34 -28 54 -47 l36 -34 10 33 c15 55 189 598 252 792 l58 177 -7 0
-7 0 -62 -192 c-34 -106 -102 -321 -152 -478 -50 -157 -92 -290 -95 -297 l-4
-11 -43 40 -43 40 20 14 c11 7 28 19 38 26 l17 13 126 404 c68 222 123 408
121 414 -1 5 -42 -118 -91 -274 -48 -156 -105 -341 -127 -410 l-40 -127 -56
-37 c-31 -20 -130 -72 -220 -116 l-164 -78 -304 205 -304 205 6 17 6 17 -13
-12 -13 -12 -191 128 c-105 70 -236 156 -291 191 -55 35 -124 79 -152 97 l-53
34 0 -9 c0 -5 91 -67 203 -137 176 -112 436 -284 460 -305 l8 -7 -443 -223
c-244 -122 -507 -258 -585 -301 -78 -44 -145 -79 -150 -79 -4 0 -22 32 -40 70
l-31 70 8 5 c4 3 11 21 14 40 l7 35 46 87 46 88 230 345 c126 190 231 346 232
348 2 2 74 -44 161 -101 88 -57 192 -125 232 -150 l72 -47 0 -9 0 -10 14 5 c8
3 16 13 19 22 2 9 47 79 100 155 l95 137 -8 0 c-7 0 -72 -91 -201 -283 l-7 -9
-218 140 c-121 78 -227 147 -236 154 l-17 13 135 203 134 203 -21 37 -20 37 6
-25z"/>
<path d="M50925 54860 c2 -14 5 -30 5 -37 l0 -12 193 -154 c105 -84 244 -193
307 -242 63 -49 152 -120 198 -157 45 -38 82 -65 82 -60 0 10 -291 249 -465
382 -60 47 -152 118 -203 158 l-93 74 -6 16 c-2 10 -9 26 -14 37 l-10 20 6
-25z"/>
<path d="M54323 54673 l7 -6 7 6 6 7 -13 0 -13 0 6 -7z"/>
<path d="M50162 54587 c-89 -44 -161 -82 -159 -84 4 -4 315 142 326 152 19 20
-26 1 -167 -68z"/>
<path d="M51120 54572 c0 -12 104 -97 305 -249 88 -67 176 -135 195 -151 l35
-30 -20 -26 c-11 -14 -46 -57 -79 -96 -32 -39 -57 -72 -55 -75 2 -2 40 39 84
91 44 52 81 94 83 94 2 0 47 -35 100 -79 l97 -79 25 -7 25 -8 100 -91 c55 -50
137 -117 182 -149 l82 -58 35 -56 c20 -31 41 -72 47 -90 l11 -33 8 0 9 0 -25
58 c-14 31 -37 74 -51 95 l-26 38 -81 57 c-45 31 -126 98 -181 148 l-100 91
-27 9 -27 9 -95 78 -96 78 11 20 10 20 -19 -12 -20 -12 -88 70 c-49 38 -145
112 -214 163 -69 51 -151 116 -182 143 l-58 49 0 -10z"/>
<path d="M50225 54480 l-7 -21 46 -61 45 -61 132 -113 c73 -63 135 -112 137
-109 3 3 -2 11 -10 18 -9 6 -68 56 -131 110 l-114 98 -44 61 -44 60 3 19 c4
25 -5 24 -13 -1z"/>
<path d="M51440 54365 l-12 -15 10 0 c12 0 26 19 19 26 -2 2 -10 -2 -17 -11z"/>
<path d="M51196 54111 l-17 -19 9 -6 9 -6 17 19 17 19 -9 6 -9 6 -17 -19z"/>
<path d="M51907 54022 c43 -43 113 -108 155 -146 86 -75 239 -188 247 -181 5
6 12 1 -74 61 -80 55 -218 176 -318 276 -37 37 -72 68 -78 68 -5 0 26 -35 68
-78z"/>
<path d="M50283 53953 c-156 -69 -283 -129 -283 -133 0 -7 565 241 577 254 l6
6 -9 -1 c-5 0 -136 -57 -291 -126z"/>
<path d="M50710 54033 c0 -5 17 -17 37 -28 21 -11 52 -33 71 -49 18 -16 35
-27 37 -24 8 7 -46 53 -97 82 l-48 27 0 -8z"/>
<path d="M50680 54003 c0 -7 9 -27 20 -45 11 -18 20 -36 20 -39 0 -4 -17 -17
-37 -31 l-38 -25 -150 -58 c-255 -98 -495 -218 -495 -246 l0 -9 53 34 c28 18
76 45 104 60 l53 26 42 -5 43 -4 -20 5 c-11 3 -24 9 -28 14 l-8 7 208 83 208
84 38 24 37 25 0 16 c0 9 -12 34 -25 56 l-25 40 0 -12z"/>
<path d="M50680 53725 c-102 -46 -221 -100 -265 -121 l-80 -36 11 -4 11 -5
267 118 266 117 0 8 c0 15 -26 6 -210 -77z"/>
<path d="M51740 53703 c0 -4 42 -41 93 -82 l92 -74 97 -111 c54 -61 111 -133
128 -159 l30 -47 10 0 c5 0 10 2 10 5 0 15 -80 122 -163 215 l-92 106 -92 74
c-50 41 -96 76 -102 78 l-11 4 0 -9z"/>
<path d="M77468 53633 l-188 -74 0 -8 0 -8 195 76 c107 42 195 79 195 84 0 11
-3 10 -202 -70z"/>
<path d="M80941 53697 c-1 -15 91 -396 105 -436 2 -8 6 -12 9 -10 2 3 -23 108
-55 234 -32 127 -59 222 -59 212z"/>
<path d="M52345 53629 c-11 -17 1 -21 15 -4 l12 15 -10 0 c-6 0 -14 -5 -17
-11z"/>
<path d="M50110 53570 l-105 -58 -3 -16 -3 -15 88 48 c48 27 100 55 115 62
l27 14 -7 12 -7 11 -105 -58z"/>
<path d="M51072 53591 l-60 -40 -480 -235 c-264 -130 -482 -236 -485 -236 -4
0 -15 17 -26 38 l-20 37 0 -15 c-1 -8 3 -22 9 -30 l9 -14 -11 -13 -10 -13 16
0 16 0 47 -100 c25 -55 48 -98 51 -96 2 3 -15 46 -38 96 -23 50 -40 93 -37 96
2 3 148 74 323 158 442 212 639 312 706 358 51 34 67 48 55 48 -2 0 -31 -18
-65 -39z"/>
<path d="M50278 53603 c12 -2 30 -2 40 0 l17 5 -40 -1 -40 0 23 -4z"/>
<path d="M58290 53559 c0 -6 -33 -46 -72 -89 l-73 -78 -70 -55 -70 -54 -83
-42 -82 -41 -58 -16 -57 -16 -405 -8 -405 -8 -30 -15 -30 -15 -180 -12 c-168
-11 -195 -15 -184 -23 2 -2 92 4 199 13 l195 16 20 11 20 11 370 7 370 7 69 8
69 8 104 51 105 51 78 61 c43 33 80 64 82 69 2 5 32 39 68 76 l64 67 36 -22
c19 -12 64 -35 98 -51 l64 -30 63 0 63 0 51 12 c28 6 51 15 51 19 l0 7 -52
-14 -53 -14 -52 0 -53 0 -66 27 -67 26 -43 34 c-48 36 -54 38 -54 22z"/>
<path d="M60368 53540 c35 -29 269 -150 330 -171 31 -11 54 -17 51 -15 -2 2
-94 49 -204 104 l-200 101 23 -19z"/>
<path d="M50383 53529 c10 -13 40 -69 67 -124 l50 -100 0 16 c0 9 -24 62 -52
119 l-53 104 -15 4 -15 5 18 -24z"/>
<path d="M55529 53362 c-71 -127 -113 -221 -103 -231 8 -8 21 13 34 52 6 20
45 97 86 169 l75 131 -8 8 -8 8 -76 -137z"/>
<path d="M50161 53400 c-89 -44 -161 -82 -161 -85 0 -7 86 32 225 103 66 34
115 61 109 61 -7 1 -84 -35 -173 -79z"/>
<path d="M50958 53268 c-219 -111 -398 -205 -398 -210 l0 -8 405 202 c354 178
430 219 398 218 -5 0 -187 -91 -405 -202z"/>
<path d="M51935 53460 l-20 -9 15 0 c8 0 24 4 35 9 l20 9 -15 0 c-8 0 -24 -4
-35 -9z"/>
<path d="M51800 53410 c-92 -35 -346 -165 -378 -194 -24 -21 -56 -85 -48 -94
3 -2 11 11 19 29 8 19 25 44 38 56 l24 22 80 37 c44 20 99 50 122 65 l42 29
83 31 c46 16 87 34 93 40 12 12 11 12 -75 -21z"/>
<path d="M51927 53414 l-6 -7 63 -76 c35 -42 76 -97 91 -121 l28 -45 5 13 4
13 -27 41 c-24 37 -145 188 -150 188 -1 0 -5 -3 -8 -6z"/>
<path d="M60970 53320 c233 -75 228 -74 215 -61 -13 11 -391 131 -413 131 -9
-1 80 -32 198 -70z"/>
<path d="M54711 53325 c-6 -22 -56 -188 -110 -370 l-99 -329 -31 -28 -31 -28
-20 0 -20 0 0 -9 0 -10 28 8 c16 5 38 15 50 22 l22 14 15 40 c31 82 215 710
211 720 l-3 10 -12 -40z"/>
<path d="M50544 53206 c39 -85 55 -115 56 -102 0 15 -75 175 -82 176 -4 0 8
-33 26 -74z"/>
<path d="M52483 53240 c8 -19 47 -102 87 -185 40 -82 90 -188 111 -234 22 -46
41 -82 44 -79 6 6 -231 508 -247 523 l-10 10 15 -35z"/>
<path d="M53615 53211 c-38 -15 -214 -103 -390 -196 -176 -93 -358 -186 -404
-207 -46 -22 -81 -41 -79 -44 8 -8 219 95 548 268 l315 166 43 13 42 12 0 9
c0 10 7 12 -75 -21z"/>
<path d="M61191 53224 c-1 -11 -147 -771 -156 -808 l-4 -19 8 9 c5 5 43 188
85 407 l77 399 -5 11 -4 12 -1 -11z"/>
<path d="M64298 53213 l13 -5 6 6 6 6 -19 -1 -19 -1 13 -5z"/>
<path d="M52271 53203 c-1 -15 121 -282 156 -341 l25 -44 -5 -19 -5 -19 8 0
c5 0 12 5 15 10 l7 11 -90 182 c-49 100 -94 193 -100 207 l-11 25 0 -12z"/>
<path d="M52154 53186 c-10 -8 -17 -17 -14 -19 3 -3 14 1 24 9 11 7 17 16 15
19 -3 3 -14 -2 -25 -9z"/>
<path d="M56917 53189 l12 -12 248 10 248 10 -259 1 -260 2 11 -11z"/>
<path d="M52065 53124 c-11 -8 -123 -69 -248 -136 -125 -66 -226 -123 -223
-125 6 -6 474 243 496 263 l14 14 -9 0 c-6 0 -19 -7 -30 -16z"/>
<path d="M53340 52997 c-275 -144 -460 -239 -533 -274 l-46 -23 -17 7 -17 6 7
-11 7 -11 -102 -51 c-55 -28 -99 -53 -96 -56 3 -3 50 17 104 45 l100 50 109
-227 109 -227 32 -35 31 -36 143 -293 143 -293 4 12 4 12 -147 291 -146 292
-28 30 -28 30 -106 223 c-59 123 -107 224 -107 226 0 2 14 9 31 16 l30 13 8
-9 c16 -18 168 -313 271 -526 58 -120 108 -218 112 -218 9 0 -175 382 -289
598 -46 90 -83 165 -81 167 1 1 55 28 118 60 63 31 235 120 382 196 l267 139
43 -5 43 -5 -20 9 c-11 5 -33 10 -50 10 l-30 1 -255 -133z"/>
<path d="M51014 52976 l-282 -145 -45 92 c-24 51 -47 102 -51 115 -4 12 -11
22 -16 22 l-9 0 35 -77 c20 -43 44 -97 55 -120 l18 -43 -7 0 c-4 0 0 -5 9 -10
l17 -10 63 -102 c71 -118 68 -113 74 -107 2 3 -27 54 -65 114 l-69 110 7 7 c4
4 126 68 272 144 l265 137 33 0 32 1 38 -37 38 -37 19 -55 18 -55 10 0 9 0 -7
18 c-4 9 -14 35 -21 58 l-15 41 -38 37 -38 37 -34 5 -34 5 -281 -145z"/>
<path d="M55412 53092 l-12 -8 20 -19 20 -18 0 -34 0 -34 -11 -21 -11 -20 10
-10 10 -10 17 32 16 32 -6 39 -7 39 -16 20 -17 20 -13 -8z"/>
<path d="M50566 52963 c25 -54 48 -103 50 -109 l5 -11 -33 -13 c-36 -14 -253
-122 -330 -163 -26 -13 -45 -27 -42 -30 3 -2 42 15 87 40 45 24 137 71 205
103 l122 59 0 -10 0 -10 10 6 9 6 -57 114 c-31 63 -60 115 -64 115 -4 0 13
-44 38 -97z"/>
<path d="M51505 52875 l30 -24 25 1 25 0 -20 5 c-11 3 -32 14 -47 24 -38 28
-48 23 -13 -6z"/>
<path d="M50655 52860 l-6 -10 10 0 c5 0 13 5 16 10 l6 10 -10 0 c-5 0 -13 -4
-16 -10z"/>
<path d="M50093 52838 c-13 -6 -23 -15 -23 -19 l0 -9 25 12 c14 6 25 15 25 20
0 9 1 10 -27 -4z"/>
<path d="M50555 52771 c-174 -83 -274 -135 -300 -155 -11 -9 71 29 182 85
l203 100 9 -5 c9 -6 115 -189 127 -219 l7 -18 -24 -26 -24 -25 -169 -85 c-92
-46 -166 -86 -163 -89 6 -7 343 162 352 176 3 5 10 10 16 10 l9 0 0 -19 0 -19
15 -12 c19 -16 19 -11 -1 29 l-16 32 11 13 12 14 -39 73 c-21 41 -53 97 -70
124 l-31 50 19 9 c11 5 20 13 20 18 0 4 -1 8 -2 7 -2 0 -66 -31 -143 -68z"/>
<path d="M65062 52785 c-117 -24 -216 -46 -220 -50 l-7 -7 40 7 c166 30 416
82 421 88 l7 7 -14 -1 c-8 -1 -110 -21 -227 -44z"/>
<path d="M50048 52781 c21 -48 28 -46 12 3 l-12 36 -8 0 -9 0 17 -39z"/>
<path d="M61037 52633 c-21 -103 -41 -197 -44 -208 l-5 -20 9 10 10 10 37 188
c21 104 36 193 34 198 -2 6 -20 -75 -41 -178z"/>
<path d="M65080 52752 c-124 -24 -227 -46 -229 -48 -15 -14 30 -9 227 30 202
39 244 50 231 59 -2 2 -105 -17 -229 -41z"/>
<path d="M51260 52735 c0 -14 213 -395 218 -390 4 4 -174 335 -205 380 l-13
19 0 -9z"/>
<path d="M71436 52529 c41 -83 77 -149 80 -146 7 6 -139 297 -148 297 -5 0 26
-68 68 -151z"/>
<path d="M64348 52643 c6 -2 18 -2 25 0 l12 5 -25 0 -25 0 13 -5z"/>
<path d="M50910 52558 c0 -9 5 -20 10 -23 l10 -6 0 8 c0 4 -5 15 -10 23 l-10
15 0 -17z"/>
<path d="M85210 52179 c-107 -83 -197 -156 -199 -162 l-4 -11 39 30 c21 17
109 84 194 149 85 65 162 124 170 132 l14 13 -9 0 c-6 -1 -98 -69 -205 -151z"/>
<path d="M83115 52005 c-203 -52 -372 -92 -376 -89 -4 2 -11 0 -14 -6 l-7 -11
10 -12 10 -12 7 -61 7 -61 -116 -29 -116 -28 1 -16 c1 -8 5 -26 10 -40 l9 -25
-5 36 -5 35 97 23 c54 13 107 29 119 36 l20 13 -9 66 -10 66 6 6 c3 3 176 49
384 101 208 52 380 96 382 99 12 12 -64 -5 -404 -91z"/>
<path d="M52700 52013 c0 -3 59 -129 132 -279 l132 -273 8 5 c5 3 7 8 5 12
-231 482 -277 570 -277 535z"/>
<path d="M60856 51716 c-27 -146 -46 -270 -44 -276 2 -7 26 110 52 259 27 149
47 274 44 276 -2 3 -26 -114 -52 -259z"/>
<path d="M60831 51407 c8 -9 311 -78 328 -75 12 3 -43 16 -309 75 l-25 6 6 -6z"/>
<path d="M52923 51336 l-28 -33 -58 -36 c-31 -21 -98 -57 -147 -82 l-90 -45 0
-15 c0 -8 2 -15 5 -15 12 0 193 95 250 131 l61 38 32 40 c36 45 38 51 18 51
l-15 0 -28 -34z"/>
<path d="M51425 50545 c-561 -283 -1024 -514 -1028 -515 l-8 0 11 19 10 20 -1
28 -1 28 -9 -40 c-5 -22 -10 -46 -11 -53 l-1 -13 -209 -105 -209 -104 -27 0
c-15 0 -37 -3 -49 -6 l-23 -6 0 -11 0 -10 56 6 57 6 891 448 c490 246 1047
527 1238 623 l348 175 0 13 c0 6 -3 12 -7 12 -5 -1 -467 -232 -1028 -515z"/>
<path d="M50047 50634 l-49 -25 5 -6 6 -5 53 31 c64 37 53 40 -15 5z"/>
<path d="M50149 50613 l30 -38 52 -110 52 -110 4 11 3 10 -45 98 -45 97 -32
39 c-42 51 -59 52 -19 3z"/>
<path d="M60660 50481 c0 -8 898 -206 905 -199 3 3 -162 42 -367 87 -205 45
-410 90 -455 100 l-83 19 0 -7z"/>
<path d="M59550 50173 c1 -10 86 -68 120 -82 14 -6 86 -24 160 -41 74 -17 143
-33 153 -36 l17 -5 0 15 0 16 -12 0 c-7 0 -82 16 -166 36 l-153 36 -49 34
c-48 33 -70 42 -70 27z"/>
<path d="M86915 49919 l-160 -121 -27 -10 -28 -10 0 -10 0 -10 26 6 25 7 167
125 c92 69 169 129 170 135 l4 9 -9 0 c-4 0 -80 -55 -168 -121z"/>
<path d="M12322 49868 c-7 -73 -12 -141 -12 -150 l0 -18 9 0 8 0 6 73 c4 39
10 107 13 150 l7 77 -10 0 -10 0 -11 -132z"/>
<path d="M27758 49994 l-8 -7 1 -156 2 -156 8 75 9 75 -2 88 -3 89 -7 -8z"/>
<path d="M32523 49986 c4 -10 7 -29 7 -42 l0 -24 8 0 8 0 -4 35 -4 35 -11 7
-10 6 6 -17z"/>
<path d="M33630 49990 l0 -13 7 6 6 7 -6 7 -7 6 0 -13z"/>
<path d="M46091 49716 c-105 -157 -191 -291 -191 -298 0 -7 88 119 196 280
107 162 193 296 190 299 -2 3 -90 -124 -195 -281z"/>
<path d="M47948 49755 c3 -137 6 -252 8 -254 7 -8 2 352 -6 429 l-7 75 5 -250z"/>
<path d="M49711 49942 c17 -32 38 -67 45 -77 l14 -19 14 14 15 15 -37 62 -37
63 -23 0 -23 0 32 -58z"/>
<path d="M59268 49935 l-6 -7 5 -91 5 -92 -21 -121 c-12 -67 -21 -131 -21
-143 l0 -21 8 0 9 0 21 133 c11 72 23 157 26 187 l6 55 -13 53 -12 54 -7 -7z"/>
<path d="M33713 49855 c3 -22 29 -211 57 -420 28 -209 53 -386 56 -394 15 -47
6 39 -46 417 l-58 424 -7 6 -8 7 6 -40z"/>
<path d="M32543 49873 l7 -6 7 6 6 7 -13 0 -13 0 6 -7z"/>
<path d="M49616 49832 l-5 -9 82 -174 c45 -96 89 -189 97 -207 l15 -33 17 13
17 13 -96 203 -96 202 -13 0 c-7 0 -15 -4 -18 -8z"/>
<path d="M49708 49824 c-30 -16 -33 -21 -18 -44 l10 -15 0 12 0 11 36 12 35
12 -4 11 c-6 18 -29 18 -59 1z"/>
<path d="M50101 49761 l-145 -77 -4 -14 -5 -13 19 7 c11 4 83 41 162 82 l142
75 -5 10 c-9 13 -7 14 -164 -70z"/>
<path d="M22405 49790 l30 -8 165 -5 165 -5 -20 7 -20 8 -175 5 -175 6 30 -8z"/>
<path d="M42660 49790 c0 -17 241 -482 247 -476 4 4 -56 123 -214 425 -18 35
-33 58 -33 51z"/>
<path d="M49560 49740 l-56 -28 -114 -27 c-63 -15 -119 -31 -124 -36 l-10 -9
7 -7 7 -6 123 28 122 28 58 28 57 29 0 15 c0 20 -6 19 -70 -15z"/>
<path d="M22383 49753 l7 -7 353 -12 c407 -15 472 -16 465 -9 -4 4 -688 33
-817 35 l-14 0 6 -7z"/>
<path d="M49640 49697 l0 -29 20 -25 20 -26 0 19 c-1 11 -9 35 -20 54 l-19 35
-1 -28z"/>
<path d="M27815 49700 l40 -9 253 -8 252 -8 0 6 0 7 -182 6 c-101 3 -232 8
-293 11 l-110 4 40 -9z"/>
<path d="M28380 49620 l0 -60 10 0 10 0 0 60 0 60 -10 0 -10 0 0 -60z"/>
<path d="M49828 49490 c66 -143 291 -528 442 -755 58 -88 122 -188 141 -222
l34 -63 12 0 c6 0 14 3 16 8 l5 7 -57 100 c-31 55 -107 174 -167 265 -61 91
-141 217 -178 280 -155 264 -262 440 -274 452 l-13 13 39 -85z"/>
<path d="M38151 49524 c-6 -22 -28 -108 -50 -191 l-39 -153 6 0 c9 0 105 371
98 377 -3 3 -9 -12 -15 -33z"/>
<path d="M84627 49459 c44 -57 106 -138 137 -179 32 -41 63 -77 69 -79 l12 -4
-11 14 c-6 8 -68 88 -138 179 -70 91 -133 167 -139 169 -6 2 26 -43 70 -100z"/>
<path d="M69420 49398 l0 -8 118 0 c66 0 161 -2 213 -5 l94 -5 -30 9 -30 10
-183 3 -182 3 0 -7z"/>
<path d="M37503 49277 l3 -10 310 -68 c170 -37 398 -90 507 -117 l198 -50 -4
11 -3 11 -190 48 c-104 26 -315 75 -469 108 -154 34 -297 65 -318 70 l-38 8 4
-11z"/>
<path d="M57667 49231 l5 -19 -213 -108 -213 -108 12 -4 12 -4 205 109 205
108 0 17 c0 9 -4 19 -9 22 l-9 6 5 -19z"/>
<path d="M37933 49127 l3 -11 710 -178 c390 -98 716 -178 724 -178 l14 0 -9 9
-10 10 -718 179 -718 180 4 -11z"/>
<path d="M37923 49085 c3 -16 20 -120 37 -230 l33 -200 9 -10 9 -10 -5 25 c-3
14 -21 119 -40 234 -19 114 -38 211 -42 215 l-7 6 6 -30z"/>
<path d="M36050 49059 c0 -24 59 -352 65 -357 3 -3 5 -1 5 4 0 24 -60 357 -65
362 l-5 5 0 -14z"/>
<path d="M64320 49051 c-5 -11 -10 -28 -10 -39 l0 -20 21 -23 20 -24 -10 22
c-6 12 -11 35 -11 50 l0 29 12 12 12 12 -12 0 -11 0 -11 -19z"/>
<path d="M91403 48727 c-72 -84 -148 -174 -169 -202 -21 -27 -109 -125 -197
-217 -88 -93 -155 -168 -151 -168 14 0 314 317 369 390 41 53 170 205 279 328
l19 22 -9 0 c-5 -1 -68 -69 -141 -153z"/>
<path d="M91439 48708 c-68 -78 -153 -178 -188 -223 -35 -44 -124 -141 -198
-216 -73 -75 -133 -141 -133 -145 0 -5 54 45 121 111 l121 120 81 100 c73 91
242 288 305 357 14 15 23 30 20 33 -2 3 -61 -59 -129 -137z"/>
<path d="M75963 48803 l-43 -4 0 -10 0 -9 39 0 c44 0 71 8 71 21 l0 9 -12 -2
c-7 -1 -32 -3 -55 -5z"/>
<path d="M39662 48749 l5 -14 59 -17 c32 -9 69 -17 82 -17 l22 -1 0 8 0 8 -72
18 c-40 10 -79 21 -87 24 l-14 5 5 -14z"/>
<path d="M46680 48736 c0 -11 43 -76 50 -76 l8 0 -21 40 c-19 34 -37 52 -37
36z"/>
<path d="M39947 48640 l-5 -20 8 0 c4 0 10 9 13 20 l5 20 -8 0 c-4 0 -10 -9
-13 -20z"/>
<path d="M33595 48589 c-71 -5 -139 -10 -150 -13 -29 -6 264 5 360 14 l80 7
-80 0 c-44 0 -138 -4 -210 -8z"/>
<path d="M33924 48360 l30 -220 9 0 8 0 -5 18 c-2 9 -17 108 -32 220 -16 111
-31 202 -34 202 -3 0 8 -99 24 -220z"/>
<path d="M33260 48533 l-455 -25 -6 -6 -7 -7 104 -644 103 -644 11 -11 11 -11
-5 15 c-7 18 -206 1256 -206 1280 l0 16 532 28 c293 15 534 29 537 31 8 9
-159 3 -619 -22z"/>
<path d="M83762 48368 c13 -18 125 -170 248 -338 123 -168 228 -309 233 -315
l10 -10 -5 15 c-7 22 -492 679 -502 680 l-8 0 24 -32z"/>
<path d="M44433 48196 l-158 -154 8 -8 8 -8 17 11 17 11 -3 12 -2 11 7 -4 8
-5 143 138 c78 76 142 141 142 144 0 3 -7 6 -15 6 l-14 0 -158 -154z"/>
<path d="M37845 48147 c-175 -8 -206 -11 -194 -20 2 -2 65 0 139 4 74 4 177 9
228 10 l92 3 0 8 0 8 -37 -2 c-21 0 -123 -5 -228 -11z"/>
<path d="M37843 48107 l-193 -9 0 -10 0 -9 18 5 c9 2 105 8 213 11 l197 7 13
9 14 9 -35 -2 c-19 -1 -122 -6 -227 -11z"/>
<path d="M44150 48079 l-45 -40 -178 -101 c-97 -55 -179 -104 -182 -108 l-5
-9 7 -4 8 -5 181 102 180 101 49 42 50 42 -10 10 -10 9 -45 -39z"/>
<path d="M29387 47950 c3 -80 9 -181 13 -225 l8 -80 -5 180 c-3 99 -9 200 -13
225 l-8 45 5 -145z"/>
<path d="M36413 48067 l-163 -9 0 -9 0 -8 33 4 c17 3 122 10 232 16 110 6 202
13 204 15 6 6 -119 2 -306 -9z"/>
<path d="M83986 47998 c26 -43 227 -308 231 -305 5 6 -220 316 -230 317 l-8 0
7 -12z"/>
<path d="M51065 47910 l-7 -11 36 -77 c19 -42 45 -111 57 -152 22 -78 69 -190
78 -190 3 0 12 4 20 9 l14 9 -26 60 c-15 33 -27 66 -27 74 0 23 -34 115 -75
206 l-38 82 -13 0 c-7 0 -16 -5 -19 -10z"/>
<path d="M76088 47827 l-68 -9 0 -15 0 -15 28 6 c15 3 48 8 75 12 l47 6 0 14
c0 8 -3 13 -7 13 -5 -1 -38 -6 -75 -12z"/>
<path d="M53607 47744 l-27 -15 75 -149 c42 -81 85 -159 96 -172 l21 -23 -22
37 c-11 20 -50 96 -86 169 l-66 133 24 18 c28 21 23 22 -15 2z"/>
<path d="M34020 47677 c0 -29 29 -208 46 -282 22 -95 25 -107 30 -102 3 3 -4
45 -15 93 -12 49 -28 136 -36 193 -14 97 -25 138 -25 98z"/>
<path d="M33981 47675 c-2 -23 40 -268 55 -329 9 -37 15 -68 13 -70 -2 -2
-107 -9 -234 -16 -220 -11 -282 -16 -273 -25 2 -2 114 2 248 10 135 7 265 13
290 14 127 3 573 31 578 35 3 3 3 7 1 9 -2 2 -107 -2 -234 -9 -126 -7 -259
-14 -295 -15 l-64 -2 -18 69 c-9 38 -25 121 -33 184 -14 99 -32 177 -34 145z"/>
<path d="M42882 47515 c-133 -28 -245 -55 -249 -59 l-6 -6 6 -6 5 -6 258 54
258 54 4 12 4 12 -19 -1 c-10 0 -127 -25 -261 -54z"/>
<path d="M41570 47493 c0 -12 40 -75 63 -100 l20 -22 9 5 9 5 -23 28 c-13 16
-31 43 -40 60 l-17 31 -11 0 c-5 0 -10 -3 -10 -7z"/>
<path d="M90161 47290 c-78 -88 -145 -168 -148 -178 -4 -9 62 61 146 156 84
95 151 175 149 178 -3 2 -69 -68 -147 -156z"/>
<path d="M41707 47353 l-7 -6 14 -16 c18 -21 36 -77 36 -112 0 -16 3 -29 6
-29 3 0 27 18 53 40 60 50 74 52 23 3 l-39 -38 -41 -70 c-22 -38 -44 -83 -48
-99 l-7 -29 14 5 14 5 3 19 c2 10 29 57 60 104 l57 85 64 32 c36 18 69 37 74
42 l9 9 -6 10 -6 9 -72 -14 -72 -15 -32 -24 -31 -24 -7 38 -6 38 -23 22 -23
22 -7 -7z"/>
<path d="M35867 47160 l5 -175 9 -15 8 -15 -6 115 c-3 63 -9 149 -13 190 l-9
75 6 -175z"/>
<path d="M41416 47311 l-39 -6 -5 -13 -4 -14 58 7 c64 8 74 11 74 26 l0 9 -22
-1 c-13 -1 -41 -5 -62 -8z"/>
<path d="M34710 47300 l0 -13 7 6 6 7 -6 7 -7 6 0 -13z"/>
<path d="M34848 47273 l-78 -4 0 -7 0 -7 147 7 c82 4 159 9 173 11 30 5 -134
4 -242 0z"/>
<path d="M34313 47246 l-211 -11 -9 -8 -8 -9 80 6 c44 4 174 11 289 16 116 6
212 13 215 15 6 7 -105 4 -356 -9z"/>
<path d="M51130 47143 c27 -57 52 -103 54 -103 8 0 -65 155 -85 180 l-20 25
51 -102z"/>
<path d="M33260 47192 c-245 -13 -281 -17 -269 -25 3 -3 280 11 504 25 l50 3
-10 5 -10 6 -265 -14z"/>
<path d="M18370 47195 c0 -13 376 -755 382 -755 5 0 -77 171 -182 380 -167
335 -200 396 -200 375z"/>
<path d="M20701 47103 c-22 -71 -62 -292 -60 -334 1 -13 14 48 30 136 l28 160
20 53 19 52 -8 0 c-4 0 -17 -30 -29 -67z"/>
<path d="M41495 47160 l-7 -11 14 -16 c7 -9 27 -22 44 -29 l31 -13 11 -53 c6
-29 14 -88 18 -130 l7 -78 14 0 15 0 -6 38 c-3 20 -8 62 -11 92 -3 30 -11 76
-17 102 l-12 48 -18 6 c-10 3 -31 16 -47 30 l-30 25 -6 -11z"/>
<path d="M21562 47078 l4 -12 40 -8 c21 -5 56 -16 77 -25 l38 -16 43 -61 c24
-34 53 -83 64 -109 l22 -48 9 6 10 6 -8 22 c-24 58 -39 87 -79 143 l-43 61
-37 17 c-33 14 -112 35 -135 36 l-9 0 4 -12z"/>
<path d="M46337 47047 l-17 -26 1 -23 1 -23 8 29 c5 16 14 33 21 36 l11 8 -4
12 -4 13 -17 -26z"/>
<path d="M55850 46945 c-113 -57 -200 -104 -195 -104 6 0 102 47 215 104 113
57 201 104 195 104 -5 0 -102 -47 -215 -104z"/>
<path d="M28238 46943 c6 -2 18 -2 25 0 l12 5 -25 0 -25 0 13 -5z"/>
<path d="M28336 46874 c-3 -26 -6 -71 -6 -100 l0 -54 10 0 10 0 0 54 c0 29 3
74 6 100 l7 46 -10 0 -10 0 -7 -46z"/>
<path d="M34750 46745 l0 -175 10 0 10 0 0 175 0 175 -10 0 -10 0 0 -175z"/>
<path d="M46340 46900 c0 -8 -27 -133 -59 -277 l-58 -263 7 0 c3 0 32 119 64
265 l58 265 -5 13 -5 12 -2 -15z"/>
<path d="M39262 46869 l3 -24 20 -2 20 -3 -12 6 c-7 3 -13 12 -13 19 0 8 -5
17 -11 21 l-11 6 4 -23z"/>
<path d="M29444 46644 c3 -77 9 -174 12 -216 l6 -78 9 0 9 0 -4 23 c-3 12 -8
106 -12 210 l-6 187 -10 6 -11 7 7 -139z"/>
<path d="M49873 46743 l-13 -5 0 -14 c0 -19 10 -17 40 6 l25 20 -20 -1 c-11 0
-26 -3 -32 -6z"/>
<path d="M19749 46490 c47 -132 89 -240 93 -240 l7 0 -28 78 c-15 42 -54 150
-87 240 -32 89 -61 162 -65 162 -3 0 33 -108 80 -240z"/>
<path d="M22670 46701 l0 -9 73 -12 c69 -11 323 -65 360 -76 l17 -5 0 14 0 14
-142 31 c-162 36 -251 52 -285 52 l-23 0 0 -9z"/>
<path d="M49870 46625 c0 -8 1 -15 3 -15 1 0 17 -4 35 -9 l32 -10 0 9 c0 7
-55 40 -67 40 -1 0 -3 -7 -3 -15z"/>
<path d="M34008 46523 l-178 -3 0 -17 0 -16 128 6 c70 4 169 7 220 7 l92 0 0
15 0 15 -42 -2 c-24 -1 -123 -4 -220 -5z"/>
<path d="M42619 46519 c-3 -12 -35 -945 -32 -948 2 -2 5 -2 7 0 5 6 35 943 30
948 -2 2 -4 2 -5 0z"/>
<path d="M51636 46454 c9 -27 18 -55 20 -63 l5 -14 10 10 11 11 -11 35 -12 35
-19 17 -20 18 16 -49z"/>
<path d="M34975 46479 c-71 -3 -147 -7 -167 -8 l-38 -1 0 -16 0 -16 108 6 c59
3 158 8 220 12 l112 6 0 14 0 14 -52 -2 c-29 -1 -111 -5 -183 -9z"/>
<path d="M50815 46430 c3 -5 8 -10 11 -10 3 0 2 5 -1 10 -3 6 -8 10 -11 10 -3
0 -2 -4 1 -10z"/>
<path d="M34693 46378 c3 -24 11 -105 18 -180 l13 -138 8 0 8 0 0 33 c0 17 -7
95 -15 172 -8 77 -15 143 -15 148 0 4 -5 7 -11 7 l-12 0 6 -42z"/>
<path d="M30140 46370 c-63 -4 -145 -8 -182 -9 l-68 -1 0 -16 0 -16 158 6 c86
4 178 9 205 12 l47 6 0 14 0 14 -22 -2 c-13 -1 -75 -5 -138 -8z"/>
<path d="M50850 46364 c0 -12 152 -285 157 -281 4 5 -146 287 -153 287 -2 0
-4 -3 -4 -6z"/>
<path d="M80764 46353 c3 -10 53 -204 112 -430 59 -227 109 -411 111 -409 4 4
-87 392 -153 646 -56 219 -53 210 -65 210 l-10 0 5 -17z"/>
<path d="M31980 46353 c-30 -2 -143 -14 -250 -28 l-195 -25 -365 -4 c-201 -3
-386 -8 -412 -12 l-48 -7 0 -15 0 -14 53 6 c28 3 224 11 435 16 l383 10 147
20 c81 11 193 23 250 27 l103 6 -4 11 -4 11 -19 1 c-10 0 -44 -1 -74 -3z"/>
<path d="M28035 46264 c-110 -7 -212 -13 -227 -13 l-28 -1 0 -12 0 -11 148 7
c81 3 193 9 250 13 l102 6 0 13 0 14 -22 -1 c-13 -1 -113 -8 -223 -15z"/>
<path d="M54344 46188 l-7 -11 11 7 c12 7 16 16 8 16 -3 0 -8 -5 -12 -12z"/>
<path d="M28205 46180 l-6 -10 16 0 16 0 -6 10 c-3 6 -8 10 -10 10 -2 0 -7 -4
-10 -10z"/>
<path d="M28159 46103 l-14 -16 1 -256 1 -256 21 -119 21 -119 11 -11 10 -10
0 10 c0 5 -10 61 -21 124 l-20 115 -6 247 -6 247 17 25 c9 14 16 28 16 31 0
11 -18 4 -31 -12z"/>
<path d="M52216 46092 c7 -30 191 -412 198 -412 9 0 -6 33 -108 240 -53 107
-93 185 -90 172z"/>
<path d="M81344 45948 l-7 -11 11 7 c7 4 12 9 12 12 0 8 -9 4 -16 -8z"/>
<path d="M46930 45840 l-215 -70 -124 -20 -123 -19 -80 10 c-44 5 -123 19
-176 30 -52 10 -97 17 -100 14 -3 -2 1 -6 9 -9 30 -9 237 -46 294 -52 l60 -6
105 16 105 15 240 77 c132 42 242 78 244 80 13 13 -47 -4 -239 -66z"/>
<path d="M30710 45819 c1 -120 30 -812 35 -817 7 -8 7 25 -10 462 -8 214 -17
391 -20 394 -3 3 -5 -15 -5 -39z"/>
<path d="M81310 45823 c-6 -21 -19 -57 -27 -79 l-15 -42 -21 -10 -22 -11 17 0
17 -1 14 14 14 14 22 72 c13 39 21 74 18 76 -3 3 -10 -12 -17 -33z"/>
<path d="M51885 45800 l-6 -10 10 0 c5 0 13 5 16 10 l6 10 -10 0 c-5 0 -13 -4
-16 -10z"/>
<path d="M51900 45760 l0 -9 15 5 c8 4 15 8 15 10 0 2 -7 4 -15 4 l-15 0 0
-10z"/>
<path d="M81244 45592 l-1 -67 14 33 14 33 -7 35 c-3 19 -9 34 -13 34 l-6 0
-1 -68z"/>
<path d="M15393 45430 c4 -41 9 -130 13 -197 l7 -122 6 4 7 3 -12 187 -13 187
-7 6 -7 7 6 -75z"/>
<path d="M80996 45466 c6 -44 22 -91 29 -84 3 3 -4 31 -15 64 l-20 59 6 -39z"/>
<path d="M50445 45449 c-3 -13 -27 -115 -54 -226 l-48 -203 7 0 c8 0 113 440
106 447 -3 3 -8 -5 -11 -18z"/>
<path d="M50427 45208 l-57 -242 -18 -19 -17 -19 -165 -84 c-91 -45 -159 -83
-152 -83 7 -1 83 34 170 78 l157 79 17 19 17 19 59 247 c32 136 56 247 53 247
-4 0 -33 -109 -64 -242z"/>
<path d="M44290 45254 c-19 -8 -55 -20 -80 -26 l-45 -11 -125 -7 -125 -7 115
-1 115 -2 63 15 c35 8 80 24 100 35 44 23 32 26 -18 4z"/>
<path d="M52624 45224 c4 -12 96 -210 206 -440 l199 -419 10 -3 11 -4 -44 94
c-156 333 -369 775 -378 783 l-10 10 6 -21z"/>
<path d="M35158 45069 c-101 -89 -185 -163 -187 -165 -2 -2 0 -4 6 -4 6 0 94
74 197 165 103 91 182 165 177 165 -5 0 -92 -73 -193 -161z"/>
<path d="M52653 45068 c40 -84 134 -280 207 -436 74 -155 136 -279 138 -274 3
11 -401 862 -410 862 -4 0 26 -69 65 -152z"/>
<path d="M54950 45175 l0 -25 10 0 c6 0 10 4 10 9 0 5 3 16 6 25 l6 16 -16 0
-16 0 0 -25z"/>
<path d="M54850 45061 c0 -14 50 -51 68 -51 l16 0 -34 30 c-37 31 -50 36 -50
21z"/>
<path d="M16960 44875 l0 -20 20 -25 c28 -37 32 -20 4 25 l-24 40 0 -20z"/>
<path d="M48820 44826 c0 -12 270 -536 276 -536 3 0 27 12 55 26 l51 25 -6 6
-5 5 -36 -21 c-20 -11 -42 -21 -48 -21 l-12 0 -120 233 c-122 239 -155 298
-155 283z"/>
<path d="M56060 44385 c0 -3 14 -30 31 -60 l31 -56 27 -13 26 -13 120 -12 c66
-7 138 -15 160 -18 l40 -6 -7 8 -7 7 -155 18 -156 18 -25 16 -25 16 -25 50
c-23 44 -35 60 -35 45z"/>
<path d="M26972 44184 c7 -6 350 -171 388 -185 l25 -10 -10 10 c-11 11 -389
191 -401 191 l-7 0 5 -6z"/>
<path d="M52342 44005 l-72 -45 -77 -20 c-42 -11 -86 -20 -97 -20 -12 0 -27
-4 -35 -9 l-14 -9 6 -9 6 -10 73 13 c121 22 174 44 286 120 2 1 2 9 0 18 l-3
15 -73 -44z"/>
<path d="M34525 43938 c-3 -7 -25 -71 -50 -143 -46 -130 -71 -181 -108 -222
l-20 -23 6 -6 7 -7 16 14 c9 8 28 32 42 53 l25 40 53 153 54 153 -11 0 c-5 0
-12 -6 -14 -12z"/>
<path d="M87885 43900 c13 -25 207 -333 223 -355 l14 -20 -6 19 c-8 25 -205
337 -224 356 l-15 15 8 -15z"/>
<path d="M34581 43814 l1 -19 5 13 5 13 -6 6 -6 6 1 -19z"/>
<path d="M34566 43769 c-3 -13 -14 -73 -25 -134 -11 -60 -26 -129 -35 -152
l-15 -42 -62 -93 c-34 -51 -80 -112 -102 -135 l-41 -43 11 0 c17 0 75 70 143
170 l62 92 18 54 c11 31 29 109 41 175 l21 120 -6 6 -5 5 -5 -23z"/>
<path d="M59075 43640 l-5 -8 361 -256 c198 -141 365 -256 370 -256 5 0 9 3 8
8 0 4 -164 123 -364 264 l-365 257 -5 -9z"/>
<path d="M40895 43510 l-80 -8 -57 -19 -56 -20 -51 -33 c-71 -45 -58 -49 20
-6 l64 35 80 22 79 21 81 -4 80 -5 -30 13 c-16 7 -34 13 -40 12 -5 0 -46 -4
-90 -8z"/>
<path d="M51050 43311 l-175 -26 30 -2 c17 -2 116 10 220 26 l190 29 -45 0
c-25 0 -124 -12 -220 -27z"/>
<path d="M52436 43255 l-6 -16 -172 -84 -173 -83 -170 -22 -170 -23 -10 -9
-10 -9 25 5 c14 3 99 15 190 27 l165 22 168 84 168 84 6 15 c3 8 3 17 0 20 -2
3 -7 -2 -11 -11z"/>
<path d="M52476 43242 l-7 -20 -37 -25 c-20 -13 -94 -51 -164 -83 -70 -33
-128 -62 -128 -66 0 -7 112 43 255 114 l70 34 13 28 c8 15 12 30 9 33 -3 2 -8
-4 -11 -15z"/>
<path d="M52110 43050 c0 -5 44 -97 97 -204 l97 -195 8 5 8 5 -100 199 c-55
110 -102 200 -105 200 -3 0 -5 -4 -5 -10z"/>
<path d="M32179 42963 c-31 -32 -107 -121 -169 -198 l-112 -140 -146 -147
-146 -147 7 -8 8 -7 130 129 131 130 151 185 c83 102 166 198 184 213 31 27
42 47 25 47 -4 0 -33 -26 -63 -57z"/>
<path d="M10490 42970 l0 -30 10 0 10 0 0 30 0 30 -10 0 -10 0 0 -30z"/>
<path d="M51340 42937 c0 -29 40 -291 51 -331 6 -21 13 -36 15 -33 3 3 1 22
-5 43 -5 22 -19 104 -31 184 -20 132 -30 179 -30 137z"/>
<path d="M32030 42875 l-52 -65 4 -11 4 -11 57 70 c31 39 57 73 57 76 0 19
-25 -2 -70 -59z"/>
<path d="M35591 42860 c-13 -11 -30 -20 -38 -20 l-14 0 5 -9 6 -9 23 5 c24 6
57 31 57 45 0 13 -13 9 -39 -12z"/>
<path d="M31880 42689 l0 -12 -157 -153 -157 -153 6 -7 7 -6 128 121 c159 151
217 221 183 221 -5 0 -10 -5 -10 -11z"/>
<path d="M91433 42461 c-111 -58 -205 -110 -210 -115 -7 -8 404 200 416 210 2
2 2 5 0 7 -2 2 -95 -44 -206 -102z"/>
<path d="M69360 42174 c-113 -19 -304 -48 -425 -65 -121 -16 -222 -32 -224
-35 -2 -2 -2 -7 1 -10 l6 -5 183 25 c101 14 207 28 234 31 28 3 135 19 238 36
104 16 193 29 198 29 l9 0 0 15 c0 8 -3 15 -7 14 -5 -1 -100 -16 -213 -35z"/>
<path d="M68903 42161 c-174 -24 -215 -33 -202 -45 2 -2 96 9 209 25 113 16
211 29 218 29 l12 0 0 10 0 10 -22 -1 c-13 -1 -109 -13 -215 -28z"/>
<path d="M51515 42048 c7 -46 20 -145 30 -220 l18 -138 7 0 6 0 -28 203 c-15
111 -28 210 -28 220 l0 17 -8 0 -9 0 12 -82z"/>
<path d="M31042 41812 l-170 -237 -49 -46 c-26 -26 -217 -174 -423 -330 l-375
-283 -65 -23 c-36 -12 -75 -23 -87 -23 -27 0 -53 -10 -53 -20 l0 -7 68 12 c37
7 83 18 102 25 l35 12 380 286 c209 156 402 306 428 331 l49 46 173 242 174
242 -8 6 -9 5 -170 -238z"/>
<path d="M31081 41772 l-170 -237 -43 -42 c-24 -23 -220 -174 -436 -337 l-393
-295 -81 -26 -82 -26 -97 -1 -97 0 -59 33 c-32 18 -92 58 -133 89 -41 31 -80
59 -87 63 l-12 7 -5 -9 -6 -9 98 -70 c54 -38 123 -82 152 -98 l55 -28 100 1
100 2 85 28 85 28 390 294 c215 161 409 312 433 335 l43 41 172 239 c95 132
174 243 175 248 l4 8 -11 0 -10 0 -170 -238z"/>
<path d="M66802 41852 c1 -15 -1 -33 -5 -39 l-7 -12 9 -5 9 -6 12 15 12 14 -7
31 -7 30 -9 0 -9 0 2 -28z"/>
<path d="M46181 41675 c-112 -41 -206 -76 -209 -79 l-5 -6 11 0 c18 0 406 140
416 150 l10 10 -9 0 c-6 -1 -102 -34 -214 -75z"/>
<path d="M82726 41652 l-4 -8 72 -115 c40 -63 142 -230 226 -370 84 -140 158
-260 165 -268 l13 -13 10 6 10 6 -116 190 c-169 273 -363 580 -367 580 -2 0
-6 -4 -9 -8z"/>
<path d="M41211 41500 c-1 -106 -14 -263 -26 -328 l-5 -27 14 30 13 30 11 145
12 145 -9 60 -8 60 -2 -115z"/>
<path d="M57730 41472 c0 -4 86 -93 190 -197 l190 -190 0 -12 c0 -13 19 -28
26 -20 13 13 -31 65 -204 240 -174 174 -202 199 -202 179z"/>
<path d="M57596 41397 l-48 -42 -407 -5 -406 -5 380 -6 c209 -4 394 -5 410 -2
l30 5 55 49 c30 27 51 49 45 48 -5 0 -32 -19 -59 -42z"/>
<path d="M56040 41311 l0 -11 162 0 c89 0 159 2 157 4 -2 2 -75 7 -161 11
l-158 7 0 -11z"/>
<path d="M56724 41115 l0 -210 3 108 c2 59 2 154 0 210 l-3 102 0 -210z"/>
<path d="M56862 41303 c70 -2 187 -2 260 0 l133 3 -260 0 -260 0 127 -3z"/>
<path d="M86380 40589 l-35 -50 -77 -58 -76 -59 -61 -28 c-33 -16 -60 -33 -60
-37 l-1 -8 23 6 c35 11 137 75 199 125 l57 45 41 58 c23 31 37 57 33 57 -4 0
-24 -23 -43 -51z"/>
<path d="M60910 40457 c3 -3 37 -11 75 -17 l70 -11 42 -19 c23 -10 86 -47 138
-81 53 -34 98 -59 100 -57 3 3 -48 39 -113 80 l-117 76 -35 10 c-19 6 -64 14
-100 18 l-65 7 5 -6z"/>
<path d="M47772 40408 l3 -21 11 -4 12 -4 4 26 5 25 -19 0 -19 0 3 -22z"/>
<path d="M51316 40409 c-3 -8 -25 -88 -50 -178 -44 -157 -56 -215 -35 -161 18
43 99 344 94 348 -3 3 -7 -1 -9 -9z"/>
<path d="M51357 40403 c-3 -4 -23 -77 -46 -161 -23 -84 -46 -164 -51 -177
l-10 -25 9 0 9 0 41 153 c23 83 46 165 52 181 9 28 6 46 -4 29z"/>
<path d="M45736 40289 c11 -19 60 -103 110 -186 49 -84 92 -153 96 -153 4 0
-13 35 -38 78 -25 42 -73 123 -106 179 -33 57 -65 106 -71 110 l-11 7 20 -35z"/>
<path d="M65900 40252 l0 -10 44 -11 44 -11 21 -25 c11 -15 22 -31 24 -38 l4
-12 9 8 8 8 -18 33 -18 34 -23 10 c-13 6 -39 14 -59 17 l-36 7 0 -10z"/>
<path d="M84816 39970 c4 -8 49 -76 99 -150 51 -74 106 -161 124 -192 18 -32
37 -61 43 -64 l11 -7 -33 59 c-44 79 -207 324 -233 349 l-20 20 9 -15z"/>
<path d="M81060 39966 c0 -12 234 -386 242 -386 7 0 -214 365 -233 385 l-9 9
0 -8z"/>
<path d="M84780 39956 c0 -4 34 -58 77 -119 42 -62 220 -346 395 -632 175
-286 323 -521 328 -523 23 -8 -736 1213 -791 1273 l-9 9 0 -8z"/>
<path d="M62136 39812 c8 -8 332 -147 404 -174 l25 -9 -10 10 c-10 10 -409
181 -422 181 l-7 0 10 -8z"/>
<path d="M45411 39660 c0 -8 4 -22 9 -30 l10 -15 -1 10 c0 6 -4 19 -9 30 l-9
20 0 -15z"/>
<path d="M41757 39108 l-68 -41 -137 -10 -137 -10 -8 -7 -8 -7 103 4 c57 2
126 8 153 13 l50 10 75 45 75 45 -15 -1 c-8 0 -46 -18 -83 -41z"/>
<path d="M52455 38903 l10 -10 200 -38 c110 -21 206 -40 213 -42 l12 -5 0 8 0
9 -208 39 c-114 22 -214 42 -222 44 l-15 5 10 -10z"/>
<path d="M55666 38841 l-7 -11 192 -125 192 -126 10 10 11 11 -9 8 c-16 15
-354 232 -369 238 l-14 5 -6 -10z"/>
<path d="M59970 38784 c0 -4 28 -54 61 -111 l61 -103 86 -79 85 -78 -48 -68
c-27 -38 -74 -96 -104 -129 -30 -34 -66 -74 -80 -90 l-26 -29 12 4 c26 9 263
292 263 315 0 3 -41 45 -90 91 l-90 85 -57 94 c-31 52 -60 97 -64 100 l-9 5 0
-7z"/>
<path d="M53775 38652 l10 -10 170 -31 c94 -18 179 -35 190 -38 l20 -5 -10 10
-10 10 -170 31 c-93 18 -179 35 -190 38 l-20 5 10 -10z"/>
<path d="M55937 38297 l-5 -13 131 -86 c73 -48 162 -101 199 -119 l68 -33 11
11 12 12 -84 41 c-45 23 -136 78 -201 121 -64 43 -119 79 -122 79 -2 0 -6 -6
-9 -13z"/>
<path d="M84873 38192 l-12 -7 120 -160 120 -160 121 -200 c66 -110 127 -206
134 -214 l14 -15 6 7 6 6 -128 213 -129 213 -121 162 -120 162 -11 -7z"/>
<path d="M54095 38158 c-2 -7 -22 -102 -43 -210 l-39 -198 11 0 11 0 41 210
40 210 -8 0 c-5 0 -11 -6 -13 -12z"/>
<path d="M60055 38081 c167 -158 607 -561 612 -561 12 0 -66 75 -352 339 -143
133 -264 241 -270 241 l-9 0 19 -19z"/>
<path d="M91187 37658 c6 -35 20 -58 34 -58 l8 0 -15 28 c-7 15 -14 35 -14 45
l0 17 -10 0 -9 0 6 -32z"/>
<path d="M92803 37611 l6 -24 -10 -20 -11 -19 14 4 13 5 3 27 4 28 -13 12 -12
11 6 -24z"/>
<path d="M580 37383 l0 -21 18 -22 18 -23 11 4 10 4 -29 39 -28 39 0 -20z"/>
<path d="M40975 36483 c3 -16 19 -120 35 -232 17 -113 32 -207 35 -209 8 -9 7
6 -27 241 l-33 227 -7 0 -7 0 4 -27z"/>
<path d="M72547 36004 l-5 -6 99 -100 100 -100 54 -80 53 -80 5 10 6 9 -46 69
c-53 80 -131 168 -207 236 l-53 47 -6 -5z"/>
<path d="M53756 35968 c-3 -13 -6 -35 -6 -50 l0 -28 10 0 10 0 0 19 c0 10 3
33 6 50 l7 31 -11 0 -10 0 -6 -22z"/>
<path d="M34140 35543 c-281 -311 -318 -353 -307 -353 5 0 313 339 580 637 11
13 19 25 16 27 -2 2 -132 -137 -289 -311z"/>
<path d="M41764 35675 l18 -14 -6 -25 -6 -26 9 0 9 0 5 28 5 27 -10 13 c-6 6
-18 12 -27 12 l-16 -1 19 -14z"/>
<path d="M84840 35610 c-54 -36 -42 -40 15 -5 l40 24 40 0 40 0 26 -22 26 -22
53 -95 c29 -52 80 -133 115 -180 34 -47 97 -142 140 -213 43 -70 80 -125 83
-122 7 7 -134 237 -202 330 -33 44 -87 127 -119 185 l-59 105 -27 22 -26 22
-50 1 -50 0 -45 -30z"/>
<path d="M84915 35602 c-30 -10 -85 -45 -85 -55 l0 -8 13 7 c6 4 24 16 39 26
l26 18 26 0 26 0 20 -20 c11 -11 33 -45 49 -77 17 -32 44 -78 60 -103 l31 -45
0 17 c0 9 -4 20 -10 23 -5 3 -33 49 -61 101 l-51 94 -21 15 c-23 16 -30 17
-62 7z"/>
<path d="M86800 35482 c0 -5 24 -21 53 -35 l52 -27 53 0 52 0 0 9 0 8 -60 6
-59 5 -34 21 c-36 22 -57 27 -57 13z"/>
<path d="M35551 35254 c14 -40 124 -264 130 -264 9 0 -107 250 -123 265 l-10
10 3 -11z"/>
<path d="M85380 34947 c0 -10 158 -265 194 -312 16 -22 31 -42 33 -44 2 -2 5
-2 8 1 l6 5 -24 29 c-13 16 -62 90 -107 164 -79 128 -110 173 -110 157z"/>
<path d="M59678 34601 l21 -16 74 -200 c121 -324 267 -670 267 -632 0 3 -38
98 -83 209 -46 112 -119 298 -162 413 -43 116 -84 217 -92 226 l-13 16 -16 0
-16 0 20 -16z"/>
<path d="M75620 34522 c-58 -26 -144 -69 -192 -95 l-88 -48 0 -9 0 -9 73 41
c39 23 126 65 192 94 l120 53 3 11 c5 13 16 16 -108 -38z"/>
<path d="M77906 34499 c-2 -8 -10 -106 -16 -219 -6 -113 -14 -213 -16 -222
l-5 -18 9 0 9 0 15 233 c15 214 16 263 4 226z"/>
<path d="M72913 34343 c59 -2 154 -2 210 0 l102 3 -210 0 -210 0 108 -3z"/>
<path d="M73260 34340 l0 -13 7 6 6 7 -6 7 -7 6 0 -13z"/>
<path d="M70980 34320 l0 -10 263 -1 c144 0 451 -4 682 -8 231 -5 422 -7 424
-5 2 2 2 6 0 9 -3 2 -257 7 -565 10 -307 3 -614 8 -681 11 l-123 5 0 -11z"/>
<path d="M55624 34250 c-242 -37 -447 -70 -455 -73 l-14 -5 15 -1 c23 -1 943
139 949 144 10 11 -74 0 -495 -65z"/>
<path d="M52066 34209 c-4 -19 -13 -74 -21 -124 -8 -49 -28 -137 -44 -194 -17
-58 -29 -107 -26 -109 5 -6 6 -5 44 125 l30 102 16 111 c9 62 14 114 11 117
-2 3 -7 -10 -10 -28z"/>
<path d="M87245 33994 c-93 -59 -174 -111 -180 -117 l-10 -10 15 8 c37 20 350
217 350 221 0 7 0 7 -175 -102z"/>
<path d="M34695 33979 l-80 -30 -31 -30 c-17 -16 -41 -49 -53 -72 l-22 -42 18
24 c10 12 35 43 56 66 l38 44 81 27 80 26 50 -4 51 -5 -15 8 c-8 5 -32 11 -54
14 l-39 5 -80 -31z"/>
<path d="M73185 33868 c-3 -13 -26 -106 -50 -207 -41 -166 -47 -207 -29 -188
5 5 104 399 104 413 0 2 -4 4 -10 4 l-10 0 -5 -22z"/>
<path d="M65915 33617 l-100 -206 9 -14 9 -15 -113 -193 c-62 -107 -120 -203
-129 -213 l-16 -19 19 10 20 11 118 202 c65 111 118 208 118 215 0 8 -5 15
-11 17 l-11 4 96 193 c54 106 96 197 94 203 l-4 10 -99 -205z"/>
<path d="M64250 33681 l0 -10 169 -101 c160 -95 191 -110 191 -92 -1 8 -325
205 -346 210 l-14 3 0 -10z"/>
<path d="M33240 33394 l-75 -106 -68 -65 c-38 -35 -67 -66 -65 -69 3 -2 35 23
71 56 l66 60 47 68 c26 37 63 88 81 115 19 26 31 47 26 47 -4 0 -42 -48 -83
-106z"/>
<path d="M33277 33378 l-75 -103 -71 -70 c-39 -38 -71 -74 -71 -79 0 -6 34 23
76 64 l75 75 68 95 c75 105 84 120 77 120 -2 0 -38 -46 -79 -102z"/>
<path d="M1621 33055 c3 -2 169 -16 370 -29 200 -14 391 -28 424 -30 l60 -5
-20 8 -20 9 -395 26 c-424 28 -426 28 -419 21z"/>
<path d="M1620 33014 c8 -3 100 -10 203 -17 l189 -13 3 7 4 6 -177 11 c-97 7
-190 12 -207 11 l-30 -1 15 -4z"/>
<path d="M79130 33007 l0 -13 243 -38 c133 -20 250 -40 260 -42 l17 -5 0 15 0
16 -22 5 c-42 9 -459 75 -479 75 l-19 0 0 -13z"/>
<path d="M79411 32686 c7 -7 362 -146 373 -146 l9 0 -6 7 c-11 11 -185 83
-276 114 -80 27 -110 35 -100 25z"/>
<path d="M34300 32510 c0 -6 7 -25 17 -43 l16 -32 4 12 4 12 -16 30 c-16 32
-25 39 -25 21z"/>
<path d="M73140 32094 c-96 -13 -181 -23 -187 -24 l-13 0 0 -13 0 -13 218 27
c119 16 218 28 220 29 1 0 2 5 2 10 l0 10 -32 -1 c-18 -1 -112 -12 -208 -25z"/>
<path d="M647 31692 l-5 -7 146 -177 146 -178 9 9 9 9 -143 176 c-79 96 -147
175 -151 175 -4 1 -9 -2 -11 -7z"/>
<path d="M41082 31598 l-12 -12 48 -33 c26 -19 110 -71 187 -115 l140 -82 180
-84 c202 -94 333 -144 534 -201 l136 -39 130 -21 c99 -16 381 -51 411 -51 2 0
4 6 4 14 l0 14 -37 6 c-21 3 -87 10 -148 16 -60 6 -169 22 -242 36 l-131 24
-166 50 c-245 74 -277 85 -441 161 -147 69 -397 207 -505 279 -30 20 -60 39
-66 43 l-11 6 -11 -11z"/>
<path d="M1230 30821 c0 -6 4 -12 9 -15 l9 -6 6 15 5 15 -14 0 -15 0 0 -9z"/>
<path d="M1220 30735 c0 -6 -11 -77 -25 -160 -22 -137 -24 -168 -9 -153 3 3
16 73 29 154 l24 149 -9 9 -10 10 0 -9z"/>
<path d="M79860 30491 c5 -11 15 -23 20 -26 l10 -6 0 8 c-1 11 -26 43 -34 43
l-7 0 11 -19z"/>
<path d="M75429 30118 c0 -35 -4 -98 -8 -141 l-8 -78 -32 -51 c-18 -28 -29
-53 -27 -56 10 -9 38 22 64 72 l26 51 4 133 4 132 -11 0 -11 0 -1 -62z"/>
<path d="M94987 29859 c-53 -40 -97 -76 -97 -82 l0 -9 33 24 c17 14 65 49 105
78 39 29 72 54 72 56 0 12 -25 -3 -113 -67z"/>
<path d="M4116 29108 c3 -84 7 -181 10 -215 l6 -63 8 0 9 0 -5 123 c-2 67 -7
164 -10 215 l-6 92 -9 0 -8 0 5 -152z"/>
<path d="M84560 28772 c0 -5 75 -83 167 -172 l167 -163 3 10 4 10 -161 159
c-89 87 -165 161 -171 162 l-9 4 0 -10z"/>
<path d="M73530 28706 c0 -10 254 -385 258 -381 2 2 -32 57 -76 122 -125 186
-182 267 -182 259z"/>
<path d="M75990 27072 c0 -4 37 -44 83 -88 l82 -81 102 -66 102 -66 7 10 c7
13 20 2 -116 92 l-115 76 -65 65 c-61 62 -80 76 -80 58z"/>
<path d="M95310 26779 c-96 -71 -177 -134 -179 -140 -3 -9 325 226 359 257
l14 14 -9 -1 c-6 0 -89 -58 -185 -130z"/>
<path d="M94820 26724 c-102 -74 -187 -139 -189 -145 -2 -6 48 26 110 72 63
45 148 107 189 137 41 30 79 59 85 63 l9 9 -9 0 c-6 -1 -93 -61 -195 -136z"/>
<path d="M87028 24893 l-47 -46 -26 17 -26 17 -17 -5 c-21 -7 -191 -176 -177
-176 6 0 46 36 90 80 l80 80 17 0 c9 0 20 -4 23 -10 l6 -10 23 0 22 0 44 45
c24 24 42 47 39 49 -3 3 -26 -16 -51 -41z"/>
<path d="M90495 24839 c100 -11 338 -46 373 -55 l22 -6 0 9 0 9 -147 23 -148
23 -95 3 -95 4 90 -10z"/>
<path d="M315 24648 c-6 -20 -65 -415 -65 -439 l0 -22 8 7 c4 4 23 111 43 237
l35 229 -8 0 c-5 0 -10 -6 -13 -12z"/>
<path d="M23045 22476 l-25 -56 -40 -160 c-22 -87 -40 -164 -40 -170 l0 -12
12 4 12 4 42 165 c23 90 51 185 63 212 25 57 25 61 12 65 l-11 4 -25 -56z"/>
<path d="M87167 20324 c149 -158 193 -201 193 -190 0 10 -298 320 -313 325 -7
2 47 -58 120 -135z"/>
<path d="M91306 17481 l-6 -9 124 -187 124 -187 5 9 5 8 -118 184 c-134 206
-126 196 -134 182z"/>
<path d="M92930 16991 c0 -9 646 -584 664 -590 19 -6 -39 47 -356 328 -170
149 -308 267 -308 262z"/>
<path d="M91486 16538 c20 -34 202 -233 252 -277 l56 -50 9 6 9 5 -51 45 c-28
24 -98 98 -157 164 -58 65 -110 119 -115 119 l-10 0 7 -12z"/>
<path d="M92140 16394 c0 -6 16 -26 36 -45 l37 -34 -11 20 c-6 11 -22 31 -36
44 l-26 24 0 -9z"/>
<path d="M98394 15135 c-61 -71 -537 -627 -1058 -1235 -520 -608 -946 -1109
-946 -1114 l0 -10 9 10 c94 103 2111 2468 2109 2473 -2 4 -53 -52 -114 -124z"/>
<path d="M2174 14859 l-5 -9 13 -5 c7 -2 107 -30 222 -60 l208 -56 6 5 5 6 -5
6 c-6 5 -109 34 -325 92 l-113 30 -6 -9z"/>
<path d="M96030 13052 c0 -5 77 -73 171 -151 l170 -142 11 3 12 4 -176 147
c-97 81 -178 147 -182 147 -3 0 -6 -4 -6 -8z"/>
<path d="M95997 13013 l-5 -8 173 -145 c158 -132 185 -151 185 -135 0 5 -270
235 -332 283 l-16 13 -5 -8z"/>
<path d="M4366 11262 l-5 -9 172 -147 c156 -134 192 -161 185 -139 -2 5 -70
66 -153 137 -82 71 -160 138 -171 148 l-22 20 -6 -10z"/>
<path d="M24912 4118 l4 -11 85 -37 84 -37 94 -12 c84 -11 113 -10 100 3 -2 3
-45 10 -94 16 l-90 12 -89 39 c-99 43 -99 44 -94 27z"/>
<path d="M12737 1973 c-12 -21 -47 -288 -47 -359 0 -61 10 -11 24 126 9 80 21
165 26 189 10 40 8 63 -3 44z"/>
<path d="M23255 1866 l-120 -82 -488 -219 -487 -219 9 -9 10 -10 493 222 493
222 99 67 c106 71 126 88 126 103 0 16 -12 9 -135 -75z"/>
<path d="M12200 1601 l0 -9 28 -6 c15 -2 219 -19 454 -37 l428 -33 6 7 c4 4 5
9 2 12 -5 5 -840 74 -895 75 l-23 0 0 -9z"/>
<path d="M21910 1289 c-284 -133 -406 -184 -519 -221 l-93 -30 9 -9 10 -10 84
27 c106 33 236 88 513 217 l219 102 5 13 4 12 -9 0 c-4 0 -105 -46 -223 -101z"/>
<path d="M16770 1207 l0 -14 215 -13 216 -13 6 7 c4 3 4 8 1 11 -3 4 -376 34
-430 35 -5 0 -8 -6 -8 -13z"/>
<path d="M17680 1195 l0 -15 18 0 c25 0 1236 -88 1295 -94 l47 -5 0 14 0 15
-18 0 c-25 0 -1236 88 -1294 94 l-48 5 0 -14z"/>
<path d="M18130 1117 l0 -13 208 -18 c114 -10 215 -20 225 -23 l17 -4 0 15 0
16 -17 0 c-10 0 -110 9 -223 20 -113 11 -206 20 -207 20 -2 0 -3 -6 -3 -13z"/>
<path d="M29160 359 l-149 -172 5 -9 6 -10 8 9 c240 273 305 353 285 353 -3 0
-72 -77 -155 -171z"/>
</g>
</svg>
