<?xml version="1.0" standalone="no"?>
<!DOCTYPE svg PUBLIC "-//W3C//DTD SVG 20010904//EN"
 "http://www.w3.org/TR/2001/REC-SVG-20010904/DTD/svg10.dtd">
<svg version="1.0" xmlns="http://www.w3.org/2000/svg"
 width="7500.000000pt" height="7500.000000pt" viewBox="0 0 7500.000000 7500.000000"
 preserveAspectRatio="xMidYMid meet">
<metadata>
Created by potrace 1.16, written by Peter Selinger 2001-2019
</metadata>
<g transform="translate(0.000000,7500.000000) scale(0.075000,-0.075000)"
fill="#000000" stroke="none">
<path d="M25566 99160 c5 -5 90 -46 189 -90 l178 -80 24 0 23 0 0 10 0 10 -21
0 -22 0 -179 80 c-98 44 -184 80 -190 80 l-12 0 10 -10z"/>
<path d="M83713 98873 l7 -11 77 -11 c43 -5 123 -13 178 -16 55 -3 119 -8 143
-11 l42 -5 0 10 0 11 -62 0 c-80 0 -347 26 -372 36 l-19 7 6 -10z"/>
<path d="M26790 98484 c0 -9 350 -237 383 -249 l17 -7 0 9 0 10 -185 117
c-102 64 -192 119 -200 122 l-15 6 0 -8z"/>
<path d="M87120 97799 c-96 -16 -206 -34 -245 -40 l-70 -12 12 -4 c7 -2 115
12 240 32 l228 36 40 -4 40 -4 178 -86 c97 -47 177 -84 177 -82 0 3 -85 48
-190 100 l-190 95 -22 -1 c-13 -1 -102 -14 -198 -30z"/>
<path d="M88150 97411 c0 -4 80 -43 178 -88 l177 -81 39 -6 39 -5 -9 7 c-5 5
-30 13 -57 20 l-47 12 -160 74 c-88 41 -160 71 -160 67z"/>
<path d="M88130 97375 c0 -8 147 -80 256 -125 l99 -41 230 -45 c127 -24 354
-73 505 -108 241 -56 296 -66 279 -53 -9 7 -692 158 -839 186 l-155 29 -103
41 c-56 23 -138 59 -182 81 -80 40 -90 44 -90 35z"/>
<path d="M14170 96588 l0 -14 188 -17 c103 -10 206 -20 230 -24 l42 -5 0 14 0
14 -192 18 c-106 9 -210 20 -230 23 l-38 6 0 -15z"/>
<path d="M98125 94592 l-5 -6 182 -73 c100 -40 184 -70 186 -68 8 7 9 7 -180
82 l-177 71 -6 -6z"/>
<path d="M56760 92993 c0 -11 342 -205 348 -198 3 3 3 6 1 8 -5 5 -297 170
-326 186 l-23 12 0 -8z"/>
<path d="M86821 92672 c78 -55 221 -142 233 -142 13 0 96 81 96 94 l0 10 -46
-44 -45 -45 -52 29 c-29 16 -89 53 -134 82 -44 30 -87 54 -94 54 l-12 0 54
-38z"/>
<path d="M57925 92342 c15 -16 387 -223 392 -218 2 2 -51 35 -119 74 -184 103
-284 157 -273 144z"/>
<path d="M94915 91493 c-69 -91 -180 -212 -230 -251 l-28 -23 10 -10 10 -10
76 71 76 71 86 110 c47 60 85 114 85 119 0 25 -23 4 -85 -77z"/>
<path d="M94379 90898 c-7 -13 -84 -99 -171 -192 -87 -93 -158 -174 -158 -180
l1 -11 165 169 165 169 15 28 14 28 -10 6 -9 6 -12 -23z"/>
<path d="M93551 89706 l-163 -163 12 -8 11 -7 21 19 c11 10 83 84 160 165
l139 146 -9 6 -8 5 -163 -163z"/>
<path d="M85381 88979 c-58 -11 -78 -21 -26 -13 22 4 132 10 245 13 l205 7
-190 1 -190 1 -44 -9z"/>
<path d="M86360 88980 c41 -5 125 -11 185 -15 l110 -6 65 10 65 9 -135 -1
c-74 0 -187 2 -250 5 l-115 6 75 -8z"/>
<path d="M85810 88951 l0 -11 253 0 252 0 125 -11 125 -12 105 11 105 11 -120
-4 -120 -4 -80 9 c-44 5 -207 11 -362 15 l-283 7 0 -11z"/>
<path d="M84380 88739 l-75 -18 -115 -12 c-140 -14 -161 -24 -30 -15 l95 7
103 21 102 21 0 9 c0 4 -1 8 -2 7 -2 -1 -37 -9 -78 -20z"/>
<path d="M84412 87218 c-51 -101 -92 -187 -92 -193 0 -5 43 75 95 179 53 104
94 190 92 192 -2 2 -45 -78 -95 -178z"/>
<path d="M82770 87108 l0 -14 78 -26 c42 -14 134 -46 205 -71 l127 -46 0 13 0
13 -197 69 c-108 38 -200 71 -205 72 l-8 4 0 -14z"/>
<path d="M83691 86956 c2 -2 81 -25 174 -51 94 -25 177 -48 185 -51 l15 -5
-10 9 c-5 5 -86 30 -180 56 -162 44 -194 51 -184 42z"/>
<path d="M30064 85693 c3 -16 8 -46 12 -68 7 -39 72 -203 113 -283 l21 -42 10
0 10 0 -26 51 c-14 29 -45 102 -69 163 l-43 111 -6 48 -7 47 -10 0 -11 0 6
-27z"/>
<path d="M80135 84878 c-3 -7 -29 -86 -59 -176 l-55 -163 12 -4 c258 -93 470
-166 473 -162 3 2 -101 41 -231 87 l-235 83 0 11 c0 7 24 85 54 174 30 89 52
162 50 162 -3 0 -7 -6 -9 -12z"/>
<path d="M23160 84523 c0 -5 82 -43 181 -86 l181 -79 9 9 8 8 -177 78 c-171
75 -202 85 -202 70z"/>
<path d="M10623 84400 l-23 -9 0 -12 0 -11 18 7 c9 4 28 10 42 12 l25 4 185
-55 185 -54 8 5 c5 3 7 7 4 9 -8 8 -382 114 -402 113 -11 0 -30 -4 -42 -9z"/>
<path d="M81376 84021 c5 -5 180 -69 389 -144 209 -74 389 -139 400 -143 l20
-7 -10 11 c-5 5 -104 44 -220 85 -115 42 -291 105 -390 141 -99 36 -184 66
-189 66 l-10 0 10 -9z"/>
<path d="M15456 82962 l-4 -7 194 -127 194 -127 5 10 6 9 -190 125 c-104 69
-192 125 -195 125 -3 0 -7 -3 -10 -8z"/>
<path d="M46966 82732 l-39 -208 5 -15 6 -14 5 15 c8 22 77 394 77 414 0 9 -3
16 -7 16 l-8 0 -39 -208z"/>
<path d="M47055 82918 c-7 -23 -75 -396 -75 -414 l0 -18 9 10 9 9 36 200 c21
110 39 206 41 213 l4 12 -10 0 c-5 0 -11 -6 -14 -12z"/>
<path d="M96381 81719 c-68 -93 -121 -172 -118 -175 2 -3 59 72 127 166 67 94
120 173 118 176 -3 2 -60 -73 -127 -167z"/>
<path d="M96004 81131 c-35 -54 -25 -64 11 -11 l28 40 -6 6 -6 6 -27 -41z"/>
<path d="M78915 80141 c-104 -76 -191 -144 -193 -150 l-4 -11 10 0 c13 0 387
273 391 285 7 25 -28 4 -204 -124z"/>
<path d="M76902 78628 l-191 -153 9 -9 9 -9 190 153 c174 138 208 170 182 170
-4 0 -94 -69 -199 -152z"/>
<path d="M76374 78530 c-93 -71 -170 -134 -172 -140 l-4 -10 21 0 20 0 38 33
c21 17 45 39 53 48 8 9 63 54 123 99 97 74 123 100 99 100 -5 0 -85 -58 -178
-130z"/>
<path d="M60444 78536 c-47 -26 -267 -211 -273 -228 -2 -6 55 38 127 98 71 60
147 119 169 131 21 12 34 22 28 22 -5 1 -29 -10 -51 -23z"/>
<path d="M36958 76138 c-52 -79 -106 -164 -121 -190 l-28 -48 10 0 10 0 37 63
c20 34 74 117 120 185 46 68 84 125 84 127 0 3 -4 5 -9 5 l-10 0 -93 -142z"/>
<path d="M31176 76061 c5 -5 100 -46 211 -91 l202 -82 13 5 13 5 -29 11 c-15
6 -111 45 -212 86 -102 41 -190 75 -196 75 l-12 0 10 -9z"/>
<path d="M36640 72838 c0 -9 10 -58 21 -109 l22 -93 44 -120 44 -121 26 -27
26 -27 61 -20 c34 -11 117 -34 186 -51 l125 -32 35 -20 c19 -12 56 -41 82 -66
l46 -44 10 6 11 6 -41 45 -41 45 -43 25 -42 25 -169 41 c-176 43 -207 55 -236
86 l-17 20 -45 122 -46 122 -20 92 c-12 51 -25 96 -30 102 l-9 9 0 -16z"/>
<path d="M36597 72833 l-8 -13 17 -87 c15 -80 28 -114 37 -102 2 2 -6 51 -18
109 l-21 105 -7 -12z"/>
<path d="M71959 72378 c-67 -79 -129 -150 -136 -160 l-14 -16 10 -6 10 -6 135
157 c75 86 136 160 136 165 0 24 -30 -5 -141 -134z"/>
<path d="M37550 71662 c0 -19 86 -87 229 -182 l153 -101 6 6 6 5 -10 9 c-5 4
-76 53 -159 109 -82 55 -163 114 -179 131 -29 30 -46 39 -46 23z"/>
<path d="M29555 70448 l-240 -291 -29 -56 c-16 -31 -32 -68 -37 -83 l-8 -28 8
-4 7 -4 34 75 34 76 243 296 c133 163 243 299 243 304 0 4 -3 7 -7 7 -5 0
-116 -131 -248 -292z"/>
<path d="M29895 70443 l-39 -27 -90 -33 c-49 -18 -99 -33 -112 -33 l-24 0 0
-10 0 -9 33 6 c89 17 277 102 277 125 0 11 -1 11 -45 -19z"/>
<path d="M29100 70331 l16 -9 155 -8 156 -7 7 12 7 11 -84 0 c-46 0 -126 3
-178 6 l-94 5 15 -10z"/>
<path d="M29513 70323 c9 -2 25 -2 35 0 l17 5 -35 0 -35 0 18 -5z"/>
<path d="M41276 66360 c6 -6 65 -45 132 -88 66 -42 195 -126 286 -185 l166
-109 11 4 11 4 -164 106 c-228 147 -436 278 -445 278 l-7 0 10 -10z"/>
<path d="M74860 65509 c0 -13 -7 -116 -15 -229 -8 -113 -14 -216 -14 -230 l1
-25 8 40 c4 22 13 134 20 248 l12 208 -6 6 -6 6 0 -24z"/>
<path d="M47610 65421 c0 -3 62 -32 138 -63 75 -31 187 -78 247 -103 61 -25
106 -42 100 -36 -14 13 -485 210 -485 202z"/>
<path d="M31615 64903 l10 -10 190 -23 c105 -12 202 -24 218 -27 l27 -5 0 8 0
9 -202 24 c-112 13 -214 25 -228 28 l-25 6 10 -10z"/>
<path d="M1295 64747 c-82 -16 -156 -31 -164 -33 l-14 -4 6 -6 5 -6 158 32
c147 29 174 36 163 43 -2 1 -71 -10 -154 -26z"/>
<path d="M89350 64059 c-38 -41 -66 -76 -63 -79 2 -3 32 26 66 63 34 37 67 67
72 67 13 -1 399 -455 439 -516 l30 -47 4 11 3 11 -32 47 c-17 25 -61 81 -97
123 -169 195 -333 381 -343 387 l-10 6 -69 -73z"/>
<path d="M91740 63844 c-63 -46 -143 -109 -177 -140 l-63 -56 6 -10 6 -9 51
49 c29 27 106 88 172 137 66 48 124 91 128 95 l9 8 -9 5 -8 5 -115 -84z"/>
<path d="M41710 63630 l0 -13 7 6 6 7 -6 7 -7 6 0 -13z"/>
<path d="M41760 63574 c0 -6 12 -21 26 -35 14 -13 59 -68 100 -123 41 -54 74
-94 74 -88 0 13 -104 153 -158 212 l-41 45 -1 -11z"/>
<path d="M41197 63495 c-80 -70 -95 -85 -83 -85 4 0 150 122 181 151 l9 9 -10
0 c-5 0 -49 -34 -97 -75z"/>
<path d="M16357 63315 l-17 -36 0 -37 0 -37 20 -32 20 -33 15 0 c21 0 19 7
-10 42 l-25 30 0 29 0 30 20 39 20 40 -13 0 -13 0 -17 -35z"/>
<path d="M41990 63346 c0 -8 88 -116 170 -209 l84 -95 9 5 8 5 -73 76 c-40 43
-99 110 -131 150 -52 65 -67 80 -67 68z"/>
<path d="M42175 62474 c-104 -90 -192 -169 -194 -175 -2 -6 85 64 193 155 108
92 196 171 196 177 0 5 -1 9 -2 9 -2 -1 -88 -75 -193 -166z"/>
<path d="M88992 62380 l4 -15 174 -147 173 -147 9 5 10 6 -9 7 c-41 36 -332
280 -347 291 l-19 15 5 -15z"/>
<path d="M77526 62283 c2 -10 24 -103 49 -207 24 -104 47 -191 50 -194 17 -17
10 26 -33 208 l-47 203 -12 4 -11 4 4 -18z"/>
<path d="M59095 62252 c14 -14 405 -185 411 -179 4 3 -256 121 -386 174 l-35
15 10 -10z"/>
<path d="M57320 61856 c0 -7 -25 -67 -56 -132 -75 -158 -124 -275 -124 -294 0
-8 18 26 39 75 21 50 63 144 94 210 l56 120 13 3 13 2 469 -205 c258 -113 471
-203 474 -200 3 2 -15 13 -39 23 -379 164 -906 396 -913 403 -14 13 -26 11
-26 -5z"/>
<path d="M60724 61429 c3 -29 29 -179 58 -335 l53 -284 8 0 8 0 -5 18 c-3 9
-28 139 -56 288 l-50 270 0 47 0 47 -10 0 -11 0 5 -51z"/>
<path d="M45209 60895 c-118 -102 -216 -191 -218 -198 l-4 -12 29 26 c26 23
402 348 413 356 2 2 2 5 -1 8 -3 3 -101 -78 -219 -180z"/>
<path d="M62810 60703 c0 -5 19 -108 42 -230 l42 -223 8 0 c12 0 11 9 -32 233
-22 115 -40 213 -40 218 0 5 -4 9 -10 9 -5 0 -10 -3 -10 -7z"/>
<path d="M55421 60669 c-18 -11 -31 -22 -28 -25 3 -3 23 6 44 20 45 31 33 35
-16 5z"/>
<path d="M86100 60551 c0 -9 297 -341 306 -341 11 0 -6 21 -151 180 -85 94
-155 166 -155 161z"/>
<path d="M77953 60516 l4 -11 26 -3 27 -3 0 9 0 10 -30 4 -31 5 4 -11z"/>
<path d="M55552 60438 l-2 -53 -50 -190 c-27 -104 -47 -191 -45 -193 6 -7 9 1
65 221 51 201 56 232 42 255 l-8 12 -2 -52z"/>
<path d="M49060 59924 c158 -126 241 -187 245 -182 6 5 -281 227 -304 236 -9
3 18 -22 59 -54z"/>
<path d="M46829 59628 l43 -31 46 -4 47 -5 20 16 20 15 -35 -9 -35 -10 -32 6
-32 6 -32 24 c-18 13 -37 24 -43 24 -5 0 9 -14 33 -32z"/>
<path d="M47130 59496 c0 -3 -11 -55 -25 -118 l-24 -113 -36 -89 c-41 -104
-39 -96 -21 -96 l14 0 36 90 36 90 25 116 c30 137 29 124 10 124 -8 0 -15 -2
-15 -4z"/>
<path d="M45625 59149 l70 -70 115 -82 c63 -46 121 -87 129 -91 l14 -9 -6 10
c-4 6 -60 49 -124 96 l-118 85 -65 66 c-35 36 -69 66 -74 66 l-10 0 69 -71z"/>
<path d="M84090 58595 c44 -85 87 -172 94 -193 l14 -38 -170 -59 c-93 -32
-172 -63 -174 -67 l-5 -8 8 0 c5 0 80 27 168 60 l159 61 11 -4 10 -4 12 13 12
13 -11 3 c-6 2 -18 22 -27 44 -21 53 -171 334 -177 334 -3 0 31 -70 76 -155z"/>
<path d="M51138 58668 l-5 -13 97 -71 c93 -69 180 -124 193 -124 4 0 7 6 7 13
l0 12 -42 24 c-23 13 -82 54 -132 90 -50 37 -96 71 -103 74 l-11 7 -4 -12z"/>
<path d="M59976 58362 c13 -12 376 -142 394 -142 17 1 -376 150 -393 150 l-11
0 10 -8z"/>
<path d="M46276 57971 l-7 -11 54 -67 54 -68 63 -115 c35 -63 68 -121 73 -127
l9 -13 8 5 8 5 -77 139 -77 139 -44 53 c-24 30 -47 58 -51 62 l-7 9 -6 -11z"/>
<path d="M50465 57889 c31 -15 479 -139 483 -134 7 6 6 6 -257 80 -235 65
-263 72 -226 54z"/>
<path d="M80371 57474 c-116 -67 -201 -124 -185 -124 5 0 25 11 44 23 19 13
83 52 143 86 l107 62 25 -28 c31 -36 32 -27 2 15 l-24 31 -112 -65z"/>
<path d="M64313 56665 c3 -11 25 -112 48 -224 24 -112 45 -199 47 -193 2 6
-16 103 -39 214 l-42 203 -10 10 -9 10 5 -20z"/>
<path d="M79450 56580 l-45 -30 -91 -30 -91 -31 -87 -6 -86 -6 0 -8 0 -8 53 5
c28 2 71 7 95 9 l43 5 93 31 93 32 39 33 c49 41 43 43 -16 4z"/>
<path d="M79474 56551 l-39 -28 -84 -32 -84 -32 -91 -10 c-50 -6 -101 -12
-114 -15 l-23 -5 5 -7 5 -8 73 8 c40 5 98 13 130 19 l56 9 84 40 c45 21 94 48
108 59 l25 20 -6 5 -5 6 -40 -29z"/>
<path d="M90572 56486 c-12 -18 -87 -97 -166 -175 l-144 -141 9 -6 10 -6 153
154 c85 84 159 163 165 175 l11 22 -8 5 -8 4 -22 -32z"/>
<path d="M90620 56491 c0 -4 46 -27 103 -51 56 -24 139 -63 185 -88 l82 -44 0
9 c0 11 -131 77 -267 137 l-103 44 0 -7z"/>
<path d="M61730 56364 c0 -5 16 -99 36 -209 l37 -200 9 -10 9 -10 -5 25 c-3
14 -22 110 -41 214 -30 162 -45 226 -45 190z"/>
<path d="M46970 55750 l0 -13 7 6 6 7 -6 7 -7 6 0 -13z"/>
<path d="M25991 55656 c2 -2 94 -68 204 -148 170 -122 255 -181 323 -222 l12
-7 0 8 c0 4 -24 22 -53 40 -29 17 -146 99 -261 182 -115 83 -214 151 -219 151
-6 0 -8 -2 -6 -4z"/>
<path d="M47040 55520 l0 -13 7 6 6 7 -6 7 -7 6 0 -13z"/>
<path d="M51107 55274 l-117 -11 -26 -24 c-15 -13 -33 -38 -40 -56 l-14 -32 1
-28 1 -28 12 46 13 46 23 31 23 31 66 8 66 8 395 -2 395 -2 -40 9 -40 8 -300
4 -300 3 -118 -11z"/>
<path d="M52140 54768 c-69 -105 -126 -198 -128 -207 -2 -12 205 295 262 387
l7 12 -8 -1 c-4 0 -64 -86 -133 -191z"/>
<path d="M53285 54930 c4 -14 9 -32 11 -41 l5 -16 -133 -199 c-73 -109 -135
-205 -136 -213 l-4 -13 10 6 11 6 241 -156 c133 -86 244 -154 246 -151 3 2
-105 75 -240 162 l-244 158 36 56 c19 31 80 122 134 204 l98 147 -20 38 -21
37 6 -25z"/>
<path d="M52222 54698 c-73 -110 -132 -202 -129 -204 2 -2 64 86 137 196 73
110 131 202 129 204 -2 2 -64 -86 -137 -196z"/>
<path d="M46800 54781 c0 -5 31 -25 69 -45 l70 -36 5 9 6 9 -69 36 c-73 38
-81 41 -81 27z"/>
<path d="M73368 54643 l-153 -137 -4 -15 -3 -16 23 21 c248 217 317 284 294
284 -2 0 -73 -62 -157 -137z"/>
<path d="M62031 54645 c-1 -5 20 -112 46 -237 l46 -228 7 0 7 0 -44 213 c-40
197 -60 276 -62 252z"/>
<path d="M81392 54551 c-106 -27 -195 -51 -199 -54 l-6 -7 9 0 c5 1 106 25
224 54 l215 54 -25 0 c-14 0 -112 -21 -218 -47z"/>
<path d="M50121 54531 c-1 -7 4 -43 11 -80 l11 -66 24 -26 24 -26 41 -12 c22
-7 47 -15 56 -18 l15 -6 -6 10 c-4 6 -27 16 -52 23 l-46 13 -23 28 -24 28 -7
53 c-4 29 -11 62 -16 73 l-8 20 0 -14z"/>
<path d="M85150 54405 l-165 -42 -65 -31 c-36 -17 -59 -31 -52 -31 7 -1 35 10
61 24 l49 24 172 45 c95 25 175 48 178 51 l5 5 -9 -1 c-5 0 -83 -20 -174 -44z"/>
<path d="M85425 54000 c3 -19 28 -116 55 -215 28 -99 48 -164 45 -145 -3 19
-28 116 -55 215 -28 99 -48 164 -45 145z"/>
<path d="M52631 53862 c-85 -128 -133 -217 -162 -301 -23 -65 -23 -67 -5 -52
l14 12 6 34 7 35 45 85 c25 47 73 129 108 183 77 120 78 122 72 122 -3 0 -41
-53 -85 -118z"/>
<path d="M13471 53873 c0 -10 348 -289 354 -285 13 7 -7 25 -166 153 -161 130
-190 150 -188 132z"/>
<path d="M13437 53834 l-5 -6 170 -140 c94 -77 177 -142 184 -145 l14 -5 0 8
c-1 8 -315 269 -345 286 l-12 7 -6 -5z"/>
<path d="M54090 53783 c0 -12 298 -218 306 -211 2 3 -19 21 -48 40 -29 20 -99
68 -155 107 -57 40 -103 68 -103 64z"/>
<path d="M77468 53633 l-188 -74 0 -8 0 -8 195 76 c107 42 195 79 195 84 0 11
-3 10 -202 -70z"/>
<path d="M51923 53453 l7 -6 7 6 6 7 -13 0 -13 0 6 -7z"/>
<path d="M51789 53406 c-88 -33 -164 -74 -155 -83 3 -3 18 4 34 16 16 11 69
35 118 52 94 34 100 37 93 43 -2 2 -43 -10 -90 -28z"/>
<path d="M52448 53266 l-17 -24 -108 -7 -108 -8 20 -7 20 -7 90 9 90 10 13 11
c7 6 18 19 23 29 l10 18 -8 0 c-4 0 -16 -11 -25 -24z"/>
<path d="M51475 53253 c-45 -23 -76 -54 -92 -92 -21 -49 -9 -49 18 1 l24 42
33 22 c18 13 38 25 45 27 7 2 10 7 7 10 -3 3 -18 -2 -35 -10z"/>
<path d="M51370 53092 c0 -5 11 -19 25 -32 l25 -24 21 -58 22 -58 9 0 9 0 -7
23 c-26 81 -104 193 -104 149z"/>
<path d="M14530 52961 c0 -17 75 -68 228 -155 l154 -87 15 3 15 3 -155 88
c-86 48 -177 103 -202 122 -48 37 -55 40 -55 26z"/>
<path d="M65060 52747 c-204 -40 -217 -44 -209 -51 5 -5 451 82 458 89 10 11
-52 1 -249 -38z"/>
<path d="M27756 52573 c-4 -87 -9 -187 -12 -223 l-5 -65 9 15 10 15 7 190 c3
105 9 198 11 208 l5 17 -9 0 -9 0 -7 -157z"/>
<path d="M39713 52635 l-33 -14 0 -17 0 -17 20 18 19 18 26 0 26 0 -4 10 c-5
17 -19 17 -54 2z"/>
<path d="M85710 52607 c-30 -24 -115 -89 -189 -145 -73 -56 -129 -102 -124
-102 6 0 90 61 188 135 l177 135 14 0 c7 0 16 5 19 10 l6 10 -18 0 -18 0 -55
-43z"/>
<path d="M84650 52274 c-140 -35 -260 -64 -267 -64 l-12 0 -12 55 c-7 30 -15
55 -19 55 l-8 0 16 -62 c8 -35 16 -64 17 -66 1 -1 122 27 269 63 147 36 276
65 286 65 l19 0 10 -37 c5 -21 20 -81 32 -133 11 -52 26 -99 31 -105 l10 -10
-6 20 c-3 11 -17 70 -31 130 -14 61 -30 120 -35 133 l-10 22 -17 -1 c-10 -1
-133 -30 -273 -65z"/>
<path d="M27045 52108 l0 -228 8 0 7 0 -1 173 c-1 94 -4 197 -8 227 l-7 55 1
-227z"/>
<path d="M18505 51758 c-3 -13 -12 -57 -20 -98 -8 -41 -29 -126 -47 -187 l-32
-113 -13 0 c-17 0 -16 -11 1 -36 l15 -19 5 15 c30 90 77 263 90 335 10 50 19
98 22 108 l5 17 -10 0 -11 0 -5 -22z"/>
<path d="M42190 51683 c-109 -60 -142 -101 -165 -198 l-12 -50 7 -50 6 -50 6
85 6 86 20 40 21 40 38 35 38 34 53 24 c28 14 52 28 52 33 0 11 3 12 -70 -29z"/>
<path d="M33485 51255 c3 -22 17 -123 30 -223 13 -101 27 -187 31 -190 l7 -7
-6 40 c-3 22 -16 121 -28 220 l-22 180 -9 10 -9 10 6 -40z"/>
<path d="M69434 51090 c4 -19 18 -113 31 -209 14 -96 27 -177 30 -179 8 -9 6
17 -22 213 l-26 190 -9 10 -10 10 6 -35z"/>
<path d="M67711 50871 l-105 -47 -4 -12 -4 -12 84 36 c46 20 95 41 111 47 l27
11 0 13 c0 7 -1 13 -2 12 -2 -1 -50 -22 -107 -48z"/>
<path d="M9397 50372 l-6 -9 164 -149 c90 -82 170 -151 176 -153 l12 -3 -4 9
c-2 6 -65 66 -139 133 -74 68 -149 136 -166 152 l-32 30 -5 -10z"/>
<path d="M33575 50355 c2 -16 16 -109 31 -205 15 -96 29 -169 32 -162 5 16
-47 352 -59 377 l-9 20 5 -30z"/>
<path d="M82804 50078 c-43 -34 -117 -91 -163 -127 l-85 -65 12 -4 11 -3 153
117 c84 64 157 120 161 124 l9 8 -9 5 -9 6 -80 -61z"/>
<path d="M35923 49934 c3 -11 11 -56 18 -102 6 -46 14 -81 16 -78 3 2 -1 46
-7 96 l-13 91 -10 6 -9 6 5 -19z"/>
<path d="M33713 49855 c3 -22 29 -211 57 -420 51 -373 57 -412 64 -404 6 6
-112 850 -120 857 l-7 7 6 -40z"/>
<path d="M57310 49619 c-233 -123 -301 -161 -296 -166 4 -4 378 188 395 203 2
2 2 6 0 8 -3 3 -47 -18 -99 -45z"/>
<path d="M36600 49479 c0 -11 8 -13 238 -62 l203 -44 -4 10 -3 11 -105 22
c-57 13 -155 34 -216 47 l-113 24 0 -8z"/>
<path d="M36030 49444 c0 -5 12 -85 26 -179 l27 -170 9 -10 9 -10 -5 25 c-3
14 -17 97 -31 184 -22 137 -35 196 -35 160z"/>
<path d="M14732 49324 c-51 -24 -126 -63 -165 -86 l-72 -43 -126 -101 -125
-101 -72 -42 -72 -42 6 -10 6 -10 21 14 c12 7 45 27 72 42 28 16 104 72 170
125 l120 97 86 51 c47 28 125 69 173 91 l86 40 0 11 c0 15 -5 13 -108 -36z"/>
<path d="M91403 48727 c-72 -84 -148 -174 -169 -202 -21 -27 -109 -125 -197
-217 -88 -93 -155 -168 -151 -168 14 0 314 317 369 390 41 53 170 205 279 328
l19 22 -9 0 c-5 -1 -68 -69 -141 -153z"/>
<path d="M34103 48576 l-211 -11 -9 -8 -8 -8 85 5 c47 4 170 11 274 16 104 5
191 12 194 15 7 6 -64 5 -325 -9z"/>
<path d="M74830 47606 c0 -20 11 -46 19 -46 l8 0 -5 30 -4 30 -9 0 -9 0 0 -14z"/>
<path d="M36868 47403 l-158 -4 0 -11 0 -10 31 6 c17 3 96 6 175 6 l144 0 0
10 0 10 -17 -2 c-10 -1 -89 -4 -175 -5z"/>
<path d="M36088 47376 l-196 -11 -9 -9 -8 -9 60 6 c33 4 134 9 225 13 l165 6
15 9 15 8 -35 -1 c-19 0 -124 -6 -232 -12z"/>
<path d="M51238 47011 l-17 -6 33 -75 c18 -41 54 -137 81 -212 27 -76 51 -138
54 -138 4 0 12 4 19 8 l13 9 -52 142 c-28 79 -65 174 -82 211 l-32 68 -17 -7z"/>
<path d="M27907 46939 l-169 -7 -6 -7 -7 -7 195 7 c107 4 222 11 255 15 l60 7
-80 0 c-44 0 -156 -4 -248 -8z"/>
<path d="M28617 46764 l-249 -12 -6 -8 -7 -7 115 6 c63 4 184 10 268 13 l152
7 0 8 0 9 -12 -1 c-7 -1 -125 -8 -261 -15z"/>
<path d="M34535 46539 c-71 -3 -160 -7 -197 -8 l-68 -1 0 -16 0 -16 58 6 c31
3 130 8 220 12 l162 6 0 14 0 14 -22 -2 c-13 -1 -81 -5 -153 -9z"/>
<path d="M52004 46538 l-7 -11 11 7 c7 4 12 9 12 12 0 8 -9 4 -16 -8z"/>
<path d="M52110 46303 l88 -187 11 -4 11 -4 -56 119 c-31 65 -71 151 -90 191
l-33 72 -10 0 -9 0 88 -187z"/>
<path d="M28205 46180 l-6 -10 16 0 16 0 -6 10 c-3 6 -8 10 -10 10 -2 0 -7 -4
-10 -10z"/>
<path d="M28159 46103 l-14 -16 -3 -164 -3 -163 10 0 11 0 0 153 0 153 15 20
c26 34 11 50 -16 17z"/>
<path d="M93091 46095 l15 -15 75 -13 76 -14 24 -16 23 -17 51 0 50 0 63 32
c34 18 62 35 62 39 0 4 -30 -8 -67 -27 l-68 -34 -37 0 -37 0 -35 21 -35 20
-68 10 -68 10 -9 9 c-6 6 -15 10 -20 10 l-10 0 15 -15z"/>
<path d="M93042 46050 l-22 -29 -82 -31 -82 -32 -28 6 -28 5 -95 -6 -95 -6 0
-10 0 -9 16 6 c9 4 69 7 133 7 l116 0 70 26 70 26 30 28 30 28 25 -14 25 -14
35 -1 35 0 53 -25 54 -25 54 0 54 0 71 36 c93 47 83 55 -12 9 l-73 -35 -41 0
-40 0 -47 25 -47 25 -38 0 -39 0 -39 20 c-22 11 -39 20 -40 19 0 0 -10 -13
-23 -29z"/>
<path d="M81360 45868 c-6 -24 -20 -72 -32 -107 l-20 -63 -19 -19 -19 -19 -15
0 -16 0 6 -33 6 -32 -10 -27 -10 -27 8 -6 9 -5 12 30 12 30 -5 25 -4 26 27 14
27 14 16 43 c8 24 23 70 32 103 9 33 18 68 21 78 l5 17 -10 0 -10 0 -11 -42z"/>
<path d="M36000 45750 c-36 -3 -72 -10 -81 -16 -29 -16 -570 -497 -565 -501 3
-3 129 105 280 239 l276 243 32 12 33 12 60 1 c33 1 80 5 105 9 l45 8 -60 0
c-33 0 -89 -3 -125 -7z"/>
<path d="M36009 45711 l-66 -6 -54 -46 c-115 -100 -134 -117 -129 -122 3 -3
43 28 88 69 l84 75 25 10 24 9 62 1 c34 0 82 4 107 8 l45 8 -60 0 c-33 0 -90
-3 -126 -6z"/>
<path d="M16960 44875 l0 -20 20 -25 c28 -37 32 -20 4 25 l-24 40 0 -20z"/>
<path d="M94021 44123 c18 -27 60 -86 94 -133 l61 -85 34 -77 35 -78 3 10 c2
5 -9 38 -24 72 l-28 63 -95 137 c-53 75 -100 137 -104 138 -4 0 7 -21 24 -47z"/>
<path d="M87957 43703 c136 -219 122 -197 127 -192 6 6 -222 373 -234 377 -5
2 43 -81 107 -185z"/>
<path d="M40548 43338 c-58 -70 -208 -276 -215 -297 l-6 -16 10 10 c5 6 45 60
88 120 43 61 103 138 133 173 l54 62 -10 0 c-5 0 -29 -24 -54 -52z"/>
<path d="M32139 43003 c-31 -32 -116 -132 -189 -223 l-132 -165 -127 -121
-126 -122 7 -7 7 -7 124 118 125 119 137 170 c76 94 162 195 191 225 30 31 54
59 54 63 0 17 -19 3 -71 -50z"/>
<path d="M32200 42987 c-19 -18 -88 -96 -152 -174 l-118 -142 9 -5 8 -6 113
138 c62 75 131 152 152 170 35 31 48 52 31 52 -5 0 -24 -15 -43 -33z"/>
<path d="M42024 42955 l-19 -14 11 -1 c5 0 19 7 30 15 l19 14 -11 1 c-5 0 -19
-7 -30 -15z"/>
<path d="M29886 42843 c62 -84 74 -101 117 -175 l45 -76 35 -94 34 -93 12 -67
11 -67 9 -188 9 -188 10 -25 c20 -52 457 -549 471 -535 2 3 -18 29 -45 58
-191 200 -379 419 -407 473 l-14 29 -7 145 c-4 80 -11 188 -17 240 l-9 94 -36
106 -36 105 -40 70 c-54 92 -149 225 -161 225 l-9 0 28 -37z"/>
<path d="M19895 42815 l-200 -22 18 -8 18 -7 202 21 c111 11 210 21 220 21
l18 0 -6 10 -6 10 -32 -1 c-18 -1 -122 -12 -232 -24z"/>
<path d="M45971 42240 c-79 -44 -149 -84 -155 -89 l-11 -10 5 -48 4 -48 6 50
5 50 138 76 c121 67 172 99 157 99 -3 0 -70 -36 -149 -80z"/>
<path d="M56000 41940 l0 -200 10 0 10 0 0 200 0 200 -10 0 -10 0 0 -200z"/>
<path d="M56862 41343 c70 -2 187 -2 260 0 l133 3 -260 0 -260 0 127 -3z"/>
<path d="M30450 41168 l-185 -140 -3 -15 -4 -15 183 138 c100 77 187 142 192
145 l9 7 -3 10 -4 10 -185 -140z"/>
<path d="M28960 41150 l0 -13 7 6 6 7 -6 7 -7 6 0 -13z"/>
<path d="M29386 40991 l-6 -9 98 -70 c54 -38 120 -81 147 -94 l50 -25 48 -7
48 -7 29 6 c17 4 30 10 30 13 l0 7 -75 2 -76 2 -57 32 c-31 18 -91 58 -132 89
-41 31 -80 59 -87 63 l-12 7 -5 -9z"/>
<path d="M97193 40677 c-101 -34 -183 -65 -183 -69 0 -6 378 117 388 127 13
13 -36 -1 -205 -58z"/>
<path d="M53555 40678 c-78 -34 -145 -76 -145 -89 0 -14 10 -11 59 20 25 15
76 41 113 57 l67 28 -5 8 c-7 12 -12 10 -89 -24z"/>
<path d="M59834 39213 c3 -16 12 -68 20 -118 17 -106 17 -105 69 -217 l40 -88
9 0 8 0 -29 58 c-16 31 -40 93 -54 137 l-25 80 -12 88 -13 87 -9 0 -10 0 6
-27z"/>
<path d="M51565 39083 l10 -10 214 -46 c118 -26 217 -45 219 -42 7 7 -5 10
-218 55 -107 23 -204 44 -215 47 l-20 5 10 -9z"/>
<path d="M90860 37790 c-1 -3 -9 -32 -18 -65 l-17 -59 -114 -46 -115 -45 15
-3 15 -3 104 43 105 43 18 55 17 55 -4 15 c-2 8 -5 13 -6 10z"/>
<path d="M60619 37494 c-8 -9 -47 -42 -89 -74 l-75 -57 -73 -28 c-40 -16 -75
-32 -78 -37 l-5 -8 53 21 c29 12 67 26 83 32 32 11 167 110 199 146 l19 21
-10 0 c-6 0 -17 -7 -24 -16z"/>
<path d="M33558 36896 c-87 -102 -158 -187 -158 -190 0 -24 79 62 314 342 l28
32 -14 0 -13 0 -157 -184z"/>
<path d="M40758 36646 c-75 -17 -140 -34 -144 -38 -10 -11 -14 -12 161 27
l158 36 8 -8 c4 -4 12 -37 18 -72 6 -35 13 -66 17 -70 l6 -6 -7 60 c-4 33 -11
70 -16 83 l-9 22 -27 -1 c-16 -1 -90 -15 -165 -33z"/>
<path d="M39813 36283 l7 -6 7 6 6 7 -13 0 -13 0 6 -7z"/>
<path d="M34280 35699 c-80 -88 -147 -166 -149 -172 l-3 -12 19 20 c11 11 69
74 128 140 60 66 120 132 134 147 13 15 22 30 20 32 -3 3 -70 -67 -149 -155z"/>
<path d="M86487 35769 l-17 -10 5 -8 4 -8 36 11 c19 6 35 14 35 18 l0 8 -22 0
c-13 0 -31 -5 -41 -11z"/>
<path d="M86647 35709 c10 -19 50 -81 88 -136 l70 -102 50 -25 50 -26 53 0 52
0 0 9 0 8 -60 6 -59 5 -35 21 -35 22 -70 97 c-39 53 -82 111 -97 127 l-26 30
19 -36z"/>
<path d="M86435 35677 l-7 -25 59 -89 59 -88 52 -111 c29 -61 52 -119 52 -128
l0 -16 11 0 11 0 -6 35 c-10 50 -93 219 -154 312 -29 44 -55 90 -57 103 -6 33
-13 36 -20 7z"/>
<path d="M82686 34160 l-180 -119 -7 4 -7 5 -5 -14 -6 -15 13 -3 14 -3 122
-148 c67 -82 124 -146 127 -143 3 2 -50 70 -116 149 -67 80 -121 149 -121 154
l0 10 171 113 c147 98 190 130 177 130 -2 0 -84 -54 -182 -120z"/>
<path d="M83870 33489 c-169 -108 -190 -124 -175 -131 7 -4 385 236 385 245 0
18 -36 -2 -210 -114z"/>
<path d="M32090 32539 c-91 -49 -169 -90 -175 -92 l-10 -4 6 -7 5 -6 168 90
c173 92 182 97 175 104 -2 2 -78 -36 -169 -85z"/>
<path d="M73548 32533 c6 -2 18 -2 25 0 l12 5 -25 0 -25 0 13 -5z"/>
<path d="M73463 32523 c9 -2 23 -2 30 0 l12 5 -30 0 -30 0 18 -5z"/>
<path d="M73373 32513 c9 -2 25 -2 35 0 l17 5 -35 0 -35 0 18 -5z"/>
<path d="M98814 31738 l-22 -10 -11 -24 c-14 -30 -14 -34 -1 -34 l10 0 0 14 0
15 22 15 22 16 26 0 25 0 -15 10 c-18 12 -29 12 -56 -2z"/>
<path d="M95310 26779 c-96 -71 -177 -134 -179 -140 -3 -9 325 226 359 257
l14 14 -9 -1 c-6 0 -89 -58 -185 -130z"/>
<path d="M87395 25990 l-5 -9 202 -160 202 -160 9 6 c4 3 7 6 5 8 -2 1 -94 75
-205 163 l-202 161 -6 -9z"/>
<path d="M87314 25979 l-7 -11 159 -159 159 -159 14 2 c8 2 16 8 18 14 l3 10
-159 157 c-88 86 -164 157 -170 157 -5 0 -13 -5 -17 -11z"/>
<path d="M87023 24888 l-42 -41 -26 17 -26 17 -17 -5 c-21 -7 -191 -176 -177
-176 6 0 46 36 90 80 l80 80 17 0 c9 0 20 -4 23 -10 l6 -10 23 0 22 0 44 45
44 45 -10 0 c-5 0 -28 -19 -51 -42z"/>
<path d="M90891 24786 c2 -2 52 -18 110 -35 l106 -31 119 -50 c65 -27 123 -50
129 -50 5 1 -48 26 -120 57 l-130 56 -100 28 c-96 28 -123 34 -114 25z"/>
<path d="M18125 21533 c-110 -14 -202 -27 -204 -29 -2 -2 -2 -7 2 -10 l5 -6
215 26 c118 14 219 26 226 26 6 0 11 5 11 10 l0 10 -27 -1 c-16 -1 -118 -12
-228 -26z"/>
<path d="M1190 14072 c0 -7 153 -137 330 -280 l29 -22 5 8 5 9 -97 79 c-53 43
-132 109 -175 147 -75 64 -97 77 -97 59z"/>
<path d="M25509 12776 c-2 -2 -85 -14 -184 -25 -98 -12 -181 -24 -184 -26 -8
-9 41 -5 207 15 l162 19 18 10 17 10 -16 1 c-9 0 -18 -2 -20 -4z"/>
<path d="M5551 351 l-165 -157 13 -8 13 -8 160 158 c88 88 160 161 160 164 -2
19 -37 -10 -181 -149z"/>
</g>
</svg>
