<?xml version="1.0" standalone="no"?>
<!DOCTYPE svg PUBLIC "-//W3C//DTD SVG 20010904//EN"
 "http://www.w3.org/TR/2001/REC-SVG-20010904/DTD/svg10.dtd">
<svg version="1.0" xmlns="http://www.w3.org/2000/svg"
 width="7500.000000pt" height="7500.000000pt" viewBox="0 0 7500.000000 7500.000000"
 preserveAspectRatio="xMidYMid meet">
<metadata>
Created by potrace 1.16, written by Peter Selinger 2001-2019
</metadata>
<g transform="translate(0.000000,7500.000000) scale(0.075000,-0.075000)"
fill="#000000" stroke="none">
<path d="M90157 99898 c-40 -111 -42 -118 -28 -118 10 0 10 0 56 128 l34 92
-12 0 -13 0 -37 -102z"/>
<path d="M84333 98843 l-173 -3 0 -10 0 -10 53 0 c28 0 116 3 195 7 l142 6 0
9 0 8 -22 -2 c-13 -1 -101 -4 -195 -5z"/>
<path d="M84489 98806 c-2 -3 -77 -6 -167 -8 l-162 -3 0 -8 0 -9 187 8 188 7
25 8 25 7 -46 1 c-25 1 -48 -1 -50 -3z"/>
<path d="M14730 97655 l0 -14 118 2 117 2 42 -13 42 -12 50 -34 50 -34 4 12 5
12 -47 32 -46 32 -50 15 -50 15 -117 0 -118 0 0 -15z"/>
<path d="M88998 95782 c-20 -26 -87 -100 -147 -166 l-111 -118 7 -11 6 -11
108 115 c60 63 129 139 153 170 l45 56 -6 7 c-11 11 -17 6 -55 -42z"/>
<path d="M97916 94799 l-156 -160 6 -11 6 -10 90 88 c49 49 121 124 159 166
l70 76 -10 6 -9 6 -156 -161z"/>
<path d="M96023 92846 c-73 -77 -141 -153 -153 -168 l-20 -27 9 -5 9 -6 73 83
c40 45 109 119 153 164 l80 83 -9 9 -10 9 -132 -142z"/>
<path d="M22390 92722 l0 -8 178 -43 c97 -24 288 -77 424 -118 137 -40 253
-73 260 -73 l12 0 -9 9 c-19 18 -808 241 -853 241 -7 0 -12 -4 -12 -8z"/>
<path d="M22093 92593 l7 -6 7 6 6 7 -13 0 -13 0 6 -7z"/>
<path d="M22120 92586 c0 -2 36 -16 81 -31 l80 -27 6 6 6 6 -14 4 c-28 10
-151 46 -155 46 -2 0 -4 -2 -4 -4z"/>
<path d="M95984 92462 c-38 -42 -107 -121 -152 -174 l-82 -97 10 -6 c5 -3 14
-4 18 -1 16 10 285 347 280 351 -2 3 -36 -30 -74 -73z"/>
<path d="M22295 92493 c12 -12 385 -116 391 -110 3 2 -80 28 -183 57 -103 29
-195 55 -203 58 l-15 5 10 -10z"/>
<path d="M95574 91922 c-82 -99 -216 -261 -299 -361 l-149 -181 -18 -6 -18 -5
0 -14 0 -14 28 10 27 11 250 300 c138 165 272 326 299 359 l49 60 -10 10 -10
10 -149 -179z"/>
<path d="M82257 91713 l-197 -105 0 -14 0 -15 23 12 c108 57 374 203 380 209
l9 8 -9 5 -9 6 -197 -106z"/>
<path d="M26530 91313 l0 -8 202 -54 c112 -29 210 -56 218 -59 l15 -5 -10 11
-10 10 -190 52 c-104 28 -198 53 -207 56 l-18 5 0 -8z"/>
<path d="M27680 91212 c0 -11 22 -32 32 -32 l9 0 -11 20 c-11 20 -30 28 -30
12z"/>
<path d="M27401 91066 c9 -9 412 -127 421 -124 6 2 -82 32 -195 66 -186 56
-238 70 -226 58z"/>
<path d="M94780 90883 c0 -5 10 -14 23 -22 12 -8 50 -36 84 -64 l63 -50 6 -21
7 -20 56 -59 56 -59 40 -21 c73 -37 265 -115 265 -108 0 4 -37 22 -82 41 -46
18 -109 46 -142 62 l-59 30 -49 46 -50 46 -24 41 -23 40 -58 46 c-32 25 -70
53 -85 62 l-28 17 0 -7z"/>
<path d="M94970 90805 l0 -18 31 -48 c16 -26 50 -66 74 -88 l43 -40 59 -29
c87 -44 643 -275 649 -269 3 2 -129 60 -293 128 l-298 123 -60 35 -60 34 -48
46 -48 46 -24 49 -25 50 0 -19z"/>
<path d="M29566 90442 c5 -5 56 -28 114 -50 l105 -42 89 -20 c50 -11 97 -19
105 -18 l16 3 -101 23 -101 23 -114 44 c-120 47 -129 50 -113 37z"/>
<path d="M95825 90273 c6 -5 37 -20 70 -33 33 -13 94 -42 135 -63 l75 -40 53
-51 52 -50 0 10 c0 5 -24 33 -52 61 l-53 51 -62 31 c-53 26 -104 47 -208 86
l-20 8 10 -10z"/>
<path d="M83721 87248 c-17 -73 -39 -170 -50 -216 l-19 -83 11 4 11 3 47 205
c54 232 52 219 40 219 l-9 0 -31 -132z"/>
<path d="M84277 86933 c-20 -48 -41 -94 -46 -101 l-8 -13 -74 21 c-75 20 -96
24 -87 15 7 -7 144 -45 161 -45 l14 0 42 96 c23 52 41 100 39 105 l-3 10 -38
-88z"/>
<path d="M56743 85862 l-103 -3 0 -9 0 -10 197 0 197 0 -9 9 -10 10 -85 3
c-47 2 -131 2 -187 0z"/>
<path d="M80861 85631 c25 -16 389 -140 389 -132 0 5 -330 122 -390 138 l-15
5 16 -11z"/>
<path d="M80080 84522 c0 -9 419 -156 426 -150 2 3 -51 24 -118 48 -68 24
-165 58 -215 76 l-93 33 0 -7z"/>
<path d="M64336 84481 l-6 -9 16 -6 c20 -8 29 -1 19 13 -8 13 -22 14 -29 2z"/>
<path d="M80066 84482 c5 -5 95 -39 199 -75 105 -36 294 -102 420 -146 127
-44 234 -81 240 -81 l9 0 -9 9 c-6 5 -104 41 -220 80 -115 40 -306 106 -423
146 -217 76 -233 81 -216 67z"/>
<path d="M41060 84270 l0 -10 15 0 15 0 0 10 0 10 -15 0 -15 0 0 -10z"/>
<path d="M23896 84141 c10 -11 414 -191 426 -191 18 0 6 19 -14 26 -13 4 -108
44 -213 90 -104 46 -194 84 -199 84 l-10 0 10 -9z"/>
<path d="M82269 83325 c-73 -79 -135 -149 -137 -155 l-4 -10 10 0 c5 0 73 67
150 149 l141 148 -6 7 c-3 3 -9 6 -13 6 -4 0 -67 -65 -141 -145z"/>
<path d="M95640 80687 c-58 -82 -114 -164 -124 -181 l-19 -31 15 15 c27 25
239 331 236 339 -2 5 -50 -60 -108 -142z"/>
<path d="M26503 78914 c4 -4 75 -36 159 -70 148 -62 204 -80 144 -47 -41 22
-286 123 -299 123 l-10 0 6 -6z"/>
<path d="M26860 78762 c0 -10 50 -35 57 -28 3 2 -9 12 -26 21 l-31 16 0 -9z"/>
<path d="M60425 78571 c-43 -25 -124 -90 -254 -203 -18 -16 -31 -31 -29 -33 2
-2 60 43 128 101 69 58 142 114 162 125 20 10 39 23 43 29 9 14 6 13 -50 -19z"/>
<path d="M60444 78536 c-47 -26 -267 -211 -273 -228 -2 -6 55 38 127 98 71 60
147 119 169 131 21 12 34 22 28 22 -5 1 -29 -10 -51 -23z"/>
<path d="M76512 78314 l-192 -155 6 -10 6 -10 11 9 c7 5 94 75 195 156 l182
147 -5 10 c-4 5 -7 9 -8 9 -1 0 -89 -70 -195 -156z"/>
<path d="M42250 78160 l-33 -82 6 -96 6 -97 20 -60 c12 -33 19 -49 16 -35 -3
14 -12 66 -21 115 l-16 90 5 55 5 55 27 64 c14 35 24 65 22 68 -3 2 -19 -33
-37 -77z"/>
<path d="M74322 77041 l-13 -8 16 -13 16 -13 10 10 10 10 -13 11 -14 11 -12
-8z"/>
<path d="M74838 76960 l-86 -80 -16 -47 -16 -47 0 -48 0 -48 15 0 15 0 0 50 0
51 14 32 14 32 85 84 86 85 -5 8 c-9 15 -18 9 -106 -72z"/>
<path d="M30230 76450 l0 -10 45 0 45 0 0 10 0 10 -45 0 -45 0 0 -10z"/>
<path d="M72567 74103 c-30 -65 -76 -164 -101 -220 l-45 -103 10 -6 c13 -8 10
-14 62 106 25 58 68 154 97 214 l51 109 -9 9 -9 9 -56 -118z"/>
<path d="M21934 72589 c-8 -13 -15 -7 91 -71 l91 -55 109 -36 c116 -39 135
-43 135 -28 l0 9 -112 37 -113 38 -97 58 -97 58 -7 -10z"/>
<path d="M71959 72378 c-67 -79 -129 -150 -136 -160 l-14 -16 10 -6 10 -6 135
157 c75 86 136 160 136 165 0 24 -30 -5 -141 -134z"/>
<path d="M71367 72144 l-6 -6 22 -18 22 -18 8 5 8 5 -17 19 c-18 20 -27 23
-37 13z"/>
<path d="M71456 72061 l-6 -8 19 -17 19 -17 7 11 7 11 -12 14 c-14 17 -26 19
-34 6z"/>
<path d="M71536 71992 l-5 -9 42 -41 42 -41 35 -6 35 -6 38 16 37 15 0 11 0
11 -17 -7 c-10 -4 -39 -10 -64 -12 l-47 -5 -45 41 -45 42 -6 -9z"/>
<path d="M73950 70770 l0 -10 240 0 240 0 0 10 0 10 -240 0 -240 0 0 -10z"/>
<path d="M76040 70417 l0 -13 28 -16 c37 -22 187 -152 280 -242 l73 -71 73
-100 73 -100 57 -114 c62 -124 139 -304 166 -391 l17 -54 13 -4 12 -4 -7 33
c-11 54 -121 322 -182 443 l-56 111 -58 80 c-32 44 -86 112 -121 151 -97 109
-326 304 -357 304 l-11 0 0 -13z"/>
<path d="M76466 70258 c55 -57 124 -136 154 -175 29 -40 56 -71 58 -68 15 15
-213 290 -272 329 -51 33 -37 14 60 -86z"/>
<path d="M76627 69914 l-28 -24 14 0 c15 0 53 37 46 44 -2 2 -17 -7 -32 -20z"/>
<path d="M76880 68808 c0 -67 27 -794 40 -1083 5 -121 10 -232 10 -247 l0 -28
11 0 12 0 -7 248 c-4 136 -14 429 -22 652 -7 223 -14 429 -14 458 l0 52 -15 0
-15 0 0 -52z"/>
<path d="M55377 66926 l-16 -24 -16 -125 c-16 -130 -18 -174 -10 -166 2 3 12
68 20 145 l16 139 20 28 20 27 -10 0 c-5 0 -16 -11 -24 -24z"/>
<path d="M55411 66906 l-12 -14 -14 -123 c-16 -132 -18 -165 -10 -158 2 3 11
65 20 139 l16 134 16 18 16 18 -10 0 c-6 0 -16 -6 -22 -14z"/>
<path d="M42535 66832 c13 -12 394 -126 401 -119 3 3 -10 10 -28 15 -38 12
-333 100 -363 109 l-20 5 10 -10z"/>
<path d="M37060 66799 c-80 -5 -154 -10 -165 -13 -32 -7 333 6 389 14 l51 8
-65 -1 c-36 0 -130 -4 -210 -8z"/>
<path d="M75888 66632 c-103 -59 -191 -112 -195 -116 -4 -5 3 -3 17 4 37 19
374 211 379 216 20 19 -42 -13 -201 -104z"/>
<path d="M66120 66569 c-85 -66 -164 -127 -175 -135 l-19 -14 9 -9 10 -10 171
132 c94 73 172 136 173 142 6 25 -25 6 -169 -106z"/>
<path d="M51730 66515 c0 -3 66 -49 148 -103 169 -113 172 -115 172 -108 0 6
-305 216 -314 216 -3 0 -6 -2 -6 -5z"/>
<path d="M34380 66409 l0 -8 236 -76 c130 -42 238 -74 241 -72 2 3 -104 41
-236 84 l-241 79 0 -7z"/>
<path d="M41190 66385 c0 -17 2 -18 24 -9 l16 6 -6 9 c-3 5 -12 9 -20 9 l-14
0 0 -15z"/>
<path d="M77130 66153 l0 -28 10 15 c5 8 10 21 10 28 l0 12 -10 0 -10 0 0 -27z"/>
<path d="M76933 65788 c4 -46 7 -143 7 -215 l0 -133 10 0 10 0 0 133 c0 72 -3
169 -7 215 l-6 82 -10 0 -10 0 6 -82z"/>
<path d="M83510 65614 c-91 -69 -167 -130 -169 -136 l-4 -11 15 5 c24 10 334
242 337 253 6 25 -25 5 -179 -111z"/>
<path d="M52751 65463 c-7 -16 -53 -120 -102 -232 l-90 -204 6 -5 5 -6 9 10
c10 11 201 444 201 456 0 18 -17 6 -29 -19z"/>
<path d="M47606 65421 c5 -5 118 -55 252 -111 l243 -102 6 6 6 5 -24 10 c-13
5 -126 52 -251 105 -126 53 -231 96 -235 96 l-7 0 10 -9z"/>
<path d="M76990 64967 c0 -68 3 -179 7 -245 l6 -122 15 0 15 0 -6 122 c-4 66
-7 177 -7 245 l0 123 -15 0 -15 0 0 -123z"/>
<path d="M40572 64860 c55 -165 115 -330 120 -330 l7 0 -56 163 c-31 89 -61
167 -66 172 l-10 10 5 -15z"/>
<path d="M37180 64720 l0 -20 11 0 c14 0 383 -48 422 -55 l27 -4 0 19 0 20
-22 4 c-26 6 -410 56 -427 56 l-11 0 0 -20z"/>
<path d="M76976 64268 c6 -215 9 -249 17 -237 2 2 1 109 -1 237 l-4 232 -9 0
-9 0 6 -232z"/>
<path d="M59817 64298 c-8 -12 -29 -50 -47 -83 l-32 -60 -44 -130 c-25 -71
-47 -139 -50 -150 l-5 -20 20 35 c11 19 36 84 56 144 l35 109 45 85 c25 47 43
87 41 89 -2 3 -11 -6 -19 -19z"/>
<path d="M78976 64035 l-660 -81 -3 -10 -3 -10 427 53 c236 28 530 65 656 80
207 25 260 35 247 46 -3 2 -302 -33 -664 -78z"/>
<path d="M40072 64085 l-12 -25 9 0 c4 0 13 11 19 25 l12 25 -9 0 c-4 0 -13
-11 -19 -25z"/>
<path d="M78490 64033 c-102 -14 -187 -27 -189 -29 -15 -14 31 -12 223 13
l216 27 0 8 0 8 -32 -1 c-18 -1 -116 -12 -218 -26z"/>
<path d="M41820 63915 l0 -15 23 0 c12 0 58 -14 102 -31 44 -17 116 -42 160
-55 44 -14 88 -27 98 -30 l17 -5 0 13 -1 13 -192 63 c-106 35 -195 63 -199 63
-5 -1 -8 -8 -8 -16z"/>
<path d="M41160 63464 c-176 -150 -193 -165 -188 -169 3 -4 274 220 323 266
l9 9 -9 0 c-6 0 -66 -48 -135 -106z"/>
<path d="M16357 63315 l-17 -36 0 -39 0 -40 29 -32 29 -33 7 7 7 7 -26 31 -26
32 0 31 1 32 14 25 c8 14 14 31 15 38 0 23 -16 12 -33 -23z"/>
<path d="M41996 63338 c27 -47 214 -261 222 -254 2 3 -21 33 -52 66 -31 34
-81 93 -112 131 -50 63 -76 88 -58 57z"/>
<path d="M40797 63145 l-17 -12 151 -169 c83 -93 154 -170 158 -172 5 -1 13 3
19 10 l10 13 -152 171 -153 171 -16 -12z"/>
<path d="M15863 63103 l-103 -4 0 -14 0 -15 58 0 c33 0 114 3 180 7 l122 6 0
14 0 13 -77 -2 c-43 -1 -124 -4 -180 -5z"/>
<path d="M10067 63003 c18 -2 50 -2 70 0 l38 4 -70 0 -70 0 32 -4z"/>
<path d="M10298 62993 c6 -2 18 -2 25 0 l12 5 -25 0 -25 0 13 -5z"/>
<path d="M17970 62943 c-25 -1 -204 -7 -399 -12 l-354 -10 -11 -12 -11 -12 40
7 c32 6 591 24 788 26 l47 0 0 10 0 10 -27 -2 c-16 -1 -48 -3 -73 -5z"/>
<path d="M58703 62906 c-18 -8 -125 -78 -237 -155 l-204 -141 -14 5 -14 5 0
-20 c0 -22 7 -25 22 -11 l9 9 190 -79 c105 -43 194 -78 199 -76 5 2 -76 38
-180 81 -104 43 -190 79 -192 81 -5 4 364 254 416 281 l50 26 120 -11 c66 -6
131 -10 144 -10 l23 2 -45 7 c-25 4 -92 11 -150 14 l-105 6 -32 -14z"/>
<path d="M94156 62812 l-4 -7 214 -79 214 -79 7 7 c3 3 4 8 2 9 -5 4 -418 157
-424 157 -2 0 -6 -3 -9 -8z"/>
<path d="M36716 62689 c-3 -8 -12 -75 -21 -149 -9 -74 -18 -146 -21 -160 l-5
-25 9 10 10 10 19 160 c19 147 21 190 9 154z"/>
<path d="M89022 62421 c2 -5 81 -75 176 -156 l174 -146 11 4 11 3 -180 152
c-98 84 -183 152 -187 152 l-9 0 4 -9z"/>
<path d="M89015 62351 c17 -16 97 -86 179 -155 l149 -125 9 5 c5 3 8 7 6 9
-120 105 -352 295 -361 295 l-12 0 30 -29z"/>
<path d="M48650 62262 c0 -4 81 -58 181 -120 l181 -113 11 4 11 3 -187 117
c-103 64 -189 117 -192 117 -3 0 -5 -3 -5 -8z"/>
<path d="M57533 62082 c-123 -96 -221 -177 -218 -180 2 -2 97 69 211 159 114
90 215 169 223 176 9 6 14 14 11 16 -3 3 -105 -74 -227 -171z"/>
<path d="M57546 62043 c-124 -98 -225 -180 -226 -183 0 -4 937 -417 973 -429
l12 -3 -10 10 c-8 7 -554 249 -914 404 l-43 18 98 79 c55 43 157 124 228 180
70 55 123 101 118 101 -6 0 -112 -80 -236 -177z"/>
<path d="M65248 62192 l-228 -2 0 -10 0 -10 224 0 225 0 6 11 c4 6 5 11 4 12
-2 1 -106 1 -231 -1z"/>
<path d="M63698 62167 l-68 -10 0 -10 0 -9 38 6 c20 4 124 9 230 12 l192 6 0
9 0 9 -162 -2 -163 -1 -67 -10z"/>
<path d="M63201 62039 c-1 -6 64 -333 74 -378 3 -13 8 -21 11 -18 6 6 -63 352
-76 382 -5 11 -9 17 -9 14z"/>
<path d="M21850 61751 c0 -9 449 -146 455 -139 3 3 -34 17 -82 31 -49 15 -152
47 -230 71 -79 24 -143 41 -143 37z"/>
<path d="M89692 61549 l-93 -203 3 -15 3 -15 93 208 93 207 -3 11 -4 11 -92
-204z"/>
<path d="M55523 61593 l7 -6 7 6 6 7 -13 0 -13 0 6 -7z"/>
<path d="M55433 61573 l7 -6 7 6 6 7 -13 0 -13 0 6 -7z"/>
<path d="M56983 61312 c-79 -58 -141 -107 -138 -110 2 -3 66 41 142 98 163
122 147 109 142 114 -2 2 -68 -43 -146 -102z"/>
<path d="M18865 61121 c11 -5 58 -11 105 -15 47 -4 135 -16 195 -27 115 -20
142 -22 133 -14 -13 13 -386 67 -441 64 l-12 0 20 -8z"/>
<path d="M52220 61064 c-41 -8 -131 -32 -200 -53 l-125 -40 21 0 c12 -1 75 15
139 35 65 19 154 42 198 50 80 14 112 25 66 23 -13 -1 -58 -7 -99 -15z"/>
<path d="M57310 60461 c0 -5 13 -45 29 -89 26 -70 48 -165 43 -184 l-2 -7 14
5 13 5 -13 62 c-7 34 -17 75 -23 90 -6 16 -11 33 -11 38 l0 10 62 -51 c73 -62
136 -102 150 -98 l10 4 -91 67 -90 67 -37 45 c-35 43 -54 56 -54 36z"/>
<path d="M87134 60199 c-16 -17 -90 -86 -164 -152 -74 -66 -136 -126 -138
-134 l-3 -13 7 0 c18 0 344 305 344 322 0 16 -17 8 -46 -23z"/>
<path d="M57526 60191 l-20 -8 10 -6 11 -6 21 6 22 5 -6 9 c-6 10 -12 10 -38
0z"/>
<path d="M57280 60133 c0 -27 -7 -85 -16 -131 l-17 -83 11 -11 10 -10 11 54
c15 71 31 211 25 220 -3 5 -9 8 -15 8 l-9 0 0 -47z"/>
<path d="M58850 59931 c0 -8 25 -71 57 -140 31 -69 67 -150 80 -180 13 -29 26
-51 29 -49 2 3 -34 90 -81 194 -46 104 -85 183 -85 175z"/>
<path d="M43560 59830 l-35 -7 45 -1 45 -1 20 9 20 9 -30 -1 c-16 0 -46 -4
-65 -8z"/>
<path d="M63624 59800 c3 -14 59 -286 126 -605 67 -319 189 -912 270 -1319
131 -648 160 -782 160 -739 0 42 -535 2637 -551 2668 l-9 20 4 -25z"/>
<path d="M48576 59469 c-70 -94 -123 -170 -118 -168 6 2 63 74 127 159 108
142 134 180 123 180 -2 0 -61 -77 -132 -171z"/>
<path d="M83610 59574 c0 -9 201 -375 217 -393 1 -2 5 -2 7 0 2 2 -41 83 -96
179 -54 96 -105 186 -113 200 l-14 25 -1 -11z"/>
<path d="M58981 59540 c0 -8 33 -94 73 -190 l74 -175 18 -3 19 -4 -17 14 -17
13 -60 145 c-33 80 -67 161 -75 180 l-15 35 0 -15z"/>
<path d="M40890 59525 c0 -8 -27 -90 -60 -182 l-60 -167 8 -8 9 -9 52 143 c28
79 58 164 66 191 l14 47 -14 0 -15 0 0 -15z"/>
<path d="M53340 59364 c-96 -63 -177 -119 -178 -125 -2 -5 76 43 175 107 197
129 188 122 182 128 -2 2 -83 -47 -179 -110z"/>
<path d="M49324 59068 c-164 -221 -312 -419 -327 -440 -16 -21 -25 -38 -20
-38 4 1 83 101 174 223 92 122 239 317 328 434 l161 212 -8 5 -9 5 -299 -401z"/>
<path d="M45625 59149 l70 -70 115 -82 c63 -46 121 -87 129 -91 l14 -9 -6 10
c-4 6 -60 49 -124 96 l-118 85 -65 66 c-35 36 -69 66 -74 66 l-10 0 69 -71z"/>
<path d="M91642 59180 l4 -15 153 -124 c84 -67 154 -121 157 -118 3 2 -51 48
-118 102 -68 54 -140 114 -162 134 l-39 36 5 -15z"/>
<path d="M83804 59145 c4 -11 88 -175 188 -364 99 -189 188 -367 198 -395 l19
-51 0 16 c2 34 -31 103 -214 449 -177 336 -208 392 -191 345z"/>
<path d="M55101 58816 l-63 -237 6 -6 6 -6 0 5 c0 4 27 108 61 233 33 124 59
231 57 237 -2 6 -32 -96 -67 -226z"/>
<path d="M45980 58932 c0 -9 335 -251 359 -259 l16 -6 -10 10 c-24 24 -365
262 -365 255z"/>
<path d="M63854 58915 c2 -16 21 -119 42 -227 l38 -198 6 0 7 0 -43 218 c-40
198 -61 284 -50 207z"/>
<path d="M61543 58524 c-214 -55 -238 -62 -232 -69 5 -5 428 101 436 109 15
14 -13 9 -204 -40z"/>
<path d="M59595 58552 c13 -13 387 -154 393 -147 3 2 -1 7 -9 10 -8 2 -90 33
-184 69 -93 35 -179 68 -190 72 l-20 7 10 -11z"/>
<path d="M63180 58410 c0 -12 5 -41 11 -66 l11 -44 10 0 10 0 -5 14 c-3 7 -9
34 -12 60 l-7 46 -9 6 -9 5 0 -21z"/>
<path d="M51758 58256 l-177 -131 -1 -12 c0 -7 3 -13 6 -13 11 0 364 262 364
270 0 5 -3 11 -7 13 l-8 4 -177 -131z"/>
<path d="M63027 57970 c-98 -21 -181 -41 -184 -44 l-6 -6 6 0 c11 0 391 80
402 84 34 14 -65 -1 -218 -34z"/>
<path d="M46276 57971 l-6 -9 46 -57 47 -57 74 -131 c41 -73 79 -136 84 -141
l9 -10 0 13 c0 7 -32 70 -71 141 l-72 128 -53 66 -52 67 -6 -10z"/>
<path d="M81670 57660 c-646 -84 -751 -102 -729 -125 3 -3 54 4 112 15 59 11
336 49 615 85 279 35 524 67 545 71 l37 6 0 9 0 9 -32 -1 c-18 -1 -265 -31
-548 -69z"/>
<path d="M92560 57661 l0 -10 53 -19 c28 -11 192 -67 362 -125 171 -58 343
-119 384 -136 41 -17 76 -29 79 -26 3 2 -6 9 -19 14 -13 5 -73 29 -134 54 -60
24 -236 86 -390 137 -154 51 -292 99 -307 107 l-28 14 0 -10z"/>
<path d="M51175 57652 l-40 -3 -9 -10 -10 -9 60 0 59 0 158 -36 158 -37 6 7
c3 3 4 8 2 10 -2 2 -80 21 -174 42 l-170 39 -40 -3z"/>
<path d="M80825 57576 c-44 -12 -120 -39 -168 -61 l-87 -39 0 -13 c0 -7 2 -13
4 -13 2 0 46 20 97 44 l94 44 78 18 77 18 0 13 c0 16 2 16 -95 -11z"/>
<path d="M64131 57575 c-1 -11 33 -191 75 -400 42 -209 81 -404 87 -432 l10
-53 9 0 c11 0 12 -8 -33 204 -23 105 -65 306 -94 446 -29 140 -54 246 -54 235z"/>
<path d="M90974 57395 l-37 -45 -47 -118 c-41 -102 -80 -217 -80 -236 0 -3 4
-6 10 -6 l9 0 21 68 c11 37 39 114 62 172 l41 105 38 47 c22 26 39 49 39 52 0
17 -23 1 -56 -39z"/>
<path d="M38095 57223 l3 -62 -49 -167 c-27 -92 -47 -170 -44 -172 8 -8 9 -5
60 170 l48 167 -11 63 -11 63 4 -62z"/>
<path d="M23460 56800 c14 -4 39 -8 55 -8 l30 0 -25 8 c-14 4 -38 8 -55 8
l-30 0 25 -8z"/>
<path d="M47200 56796 c0 -7 423 -385 495 -441 l64 -50 105 -58 106 -59 13 5
12 4 -64 32 c-96 49 -228 136 -301 200 -36 31 -141 124 -235 206 -166 147
-195 171 -195 161z"/>
<path d="M23660 56761 l0 -21 10 0 10 0 0 14 c0 8 -4 18 -10 21 l-10 6 0 -20z"/>
<path d="M64274 56660 c3 -14 25 -117 48 -230 l43 -205 3 17 c4 21 -77 408
-90 428 l-9 15 5 -25z"/>
<path d="M79450 56580 l-45 -30 -80 -27 c-44 -15 -114 -33 -155 -40 l-75 -12
70 3 70 3 96 33 96 33 39 33 c49 41 43 43 -16 4z"/>
<path d="M78910 56481 c0 -5 7 -14 15 -21 l15 -13 16 -54 16 -55 -6 -29 -5
-29 14 0 15 0 0 43 c0 52 -17 113 -39 144 -16 22 -41 31 -41 14z"/>
<path d="M16613 56252 c-117 -32 -213 -60 -213 -64 0 -8 432 102 445 113 l9 9
-14 -1 c-8 0 -111 -26 -227 -57z"/>
<path d="M64430 56242 l35 -17 3 -33 3 -34 -17 -19 -17 -19 -33 0 -33 0 -6 10
c-3 6 -12 10 -18 10 l-12 -1 24 -20 24 -20 31 7 31 6 23 21 23 22 -6 35 -6 35
-21 18 -20 17 -22 0 -21 0 35 -18z"/>
<path d="M78914 56198 c-5 -8 -27 -25 -49 -39 l-40 -24 -66 1 -66 0 -37 22
c-43 26 -46 26 -46 9 l0 -13 32 -18 32 -19 72 -5 72 -5 45 22 c24 12 52 30 62
41 l19 20 -11 11 -11 11 -8 -14z"/>
<path d="M63794 56050 l-1 -31 -23 -24 -23 -25 16 0 17 0 15 24 16 24 2 27 2
28 -10 3 -10 4 -1 -30z"/>
<path d="M63062 55910 l0 -25 5 13 c2 6 2 18 0 25 l-5 12 0 -25z"/>
<path d="M26590 55243 c0 -10 75 -73 86 -73 11 0 -47 59 -68 71 l-18 10 0 -8z"/>
<path d="M55395 55208 c-11 -13 -29 -33 -38 -45 l-18 -21 9 -6 9 -5 32 40 32
40 -3 10 -3 10 -20 -23z"/>
<path d="M48685 55075 c-126 -63 -234 -116 -240 -118 -5 -2 -8 -6 -5 -9 3 -3
118 50 255 118 138 67 243 123 235 122 -8 0 -118 -51 -245 -113z"/>
<path d="M55201 54864 c-40 -124 -70 -228 -67 -231 2 -3 27 66 55 154 28 87
62 191 75 231 l25 72 -8 0 -7 0 -73 -226z"/>
<path d="M31495 55050 l5 -34 23 -24 c30 -33 127 -105 133 -99 3 2 -19 22 -48
43 -61 44 -88 75 -106 118 l-12 31 5 -35z"/>
<path d="M52125 54742 l-140 -216 -137 -175 c-75 -97 -135 -178 -132 -180 2
-2 6 -2 7 0 2 2 62 78 133 169 l130 165 133 205 c74 113 141 215 149 228 l14
22 -8 0 c-5 -1 -72 -98 -149 -218z"/>
<path d="M53202 54904 c-15 -25 -73 -116 -130 -201 -57 -85 -101 -157 -99
-160 6 -5 180 247 222 322 15 28 35 58 43 68 l15 17 -12 0 -11 0 -28 -46z"/>
<path d="M53285 54930 c4 -14 9 -32 11 -41 l6 -16 -229 -344 c-280 -420 -353
-533 -353 -545 0 -5 70 97 156 226 86 129 160 239 164 243 l7 8 242 -156 c134
-86 245 -155 247 -152 3 2 -106 75 -240 162 l-245 158 6 11 c4 6 64 98 135
204 l128 192 -20 38 -21 37 6 -25z"/>
<path d="M52670 54721 l0 -11 151 -101 151 -101 6 6 c3 3 3 7 1 9 -9 8 -285
194 -296 201 l-13 7 0 -10z"/>
<path d="M54375 54669 l40 -8 150 1 150 1 -110 7 c-60 4 -146 8 -190 8 l-80 0
40 -9z"/>
<path d="M55021 54538 c-11 -35 -61 -196 -111 -358 -50 -162 -98 -316 -106
-341 l-15 -47 -55 -37 c-51 -33 -149 -82 -553 -276 -79 -39 -141 -72 -139 -75
7 -7 643 303 705 344 l52 34 15 47 c76 236 236 764 232 768 -2 2 -13 -24 -25
-59z"/>
<path d="M52873 54408 c-39 -57 -139 -211 -223 -343 l-153 -240 -78 -102 -78
-103 9 0 c18 0 165 207 323 454 88 138 187 290 220 338 l61 88 -6 5 -5 6 -70
-103z"/>
<path d="M49152 54077 c-128 -66 -231 -122 -228 -124 4 -4 231 108 396 196 52
28 88 50 80 49 -8 0 -120 -55 -248 -121z"/>
<path d="M53770 53996 c0 -3 66 -50 148 -104 170 -114 172 -115 172 -108 0 3
-66 50 -147 104 -171 114 -173 115 -173 108z"/>
<path d="M13440 53831 c0 -10 323 -279 346 -288 l14 -5 0 8 c-1 8 -315 269
-346 287 l-14 8 0 -10z"/>
<path d="M66930 53715 c-85 -18 -182 -38 -215 -45 l-60 -13 12 -4 c11 -4 443
84 452 92 9 10 -39 2 -189 -30z"/>
<path d="M80941 53697 c-1 -15 91 -396 105 -436 2 -8 6 -12 9 -10 2 3 -23 108
-55 234 -32 127 -59 222 -59 212z"/>
<path d="M52417 53575 c33 -68 41 -66 12 3 l-22 52 -8 0 -9 0 27 -55z"/>
<path d="M67540 53556 l-215 -41 20 -3 c22 -3 434 74 443 83 10 9 -31 3 -248
-39z"/>
<path d="M29563 53492 c-111 -37 -206 -71 -210 -76 l-8 -9 18 6 c10 4 104 34
210 68 106 34 196 65 202 70 l9 9 -9 -1 c-6 -1 -101 -31 -212 -67z"/>
<path d="M52448 53266 l-17 -24 -91 -7 -90 -7 0 -7 0 -7 92 9 93 9 13 10 c7 6
18 20 23 30 l10 18 -8 0 c-4 0 -16 -11 -25 -24z"/>
<path d="M49370 52995 l-25 -14 16 -1 c8 0 24 7 35 15 l19 14 -10 0 c-5 0 -21
-6 -35 -14z"/>
<path d="M34415 52985 c-38 -7 -89 -18 -112 -24 l-42 -11 -5 -18 c-32 -110
-86 -326 -84 -334 2 -6 21 54 43 133 21 79 42 158 47 175 l8 32 63 16 c34 9
96 22 137 30 l75 14 -30 0 c-16 0 -61 -6 -100 -13z"/>
<path d="M51020 52981 c-8 -4 -82 -43 -163 -85 -82 -43 -146 -80 -144 -82 4
-4 324 159 336 171 7 8 -13 5 -29 -4z"/>
<path d="M77675 52810 c-126 -49 -303 -118 -392 -152 l-163 -63 0 -11 0 -12
173 68 c94 37 277 107 405 155 l232 88 0 8 c0 16 -25 8 -255 -81z"/>
<path d="M85805 52670 l-6 -20 -16 0 -15 0 -122 -92 c-207 -158 -262 -202
-243 -195 10 4 91 63 181 132 155 118 208 151 225 141 l7 -5 11 30 11 29 -13
0 -14 0 -6 -20z"/>
<path d="M54491 52570 l-1 -45 -50 -164 -50 -163 1 -32 2 -31 4 25 c2 14 26
97 52 185 27 88 51 174 53 190 l5 30 -7 25 -8 25 -1 -45z"/>
<path d="M42837 52383 c-3 -10 -22 -79 -42 -153 -39 -143 -55 -181 -88 -217
l-20 -23 10 0 c13 0 37 28 56 65 18 37 100 335 93 342 -2 2 -7 -4 -9 -14z"/>
<path d="M52930 52307 c0 -16 49 -103 69 -121 l22 -20 147 -299 146 -299 4 10
3 10 -147 294 -146 293 -34 38 c-19 20 -34 43 -34 50 0 14 -29 57 -30 44z"/>
<path d="M12930 52242 l0 -10 183 -130 c100 -70 187 -132 194 -135 l12 -7 5 9
6 9 -184 131 c-102 72 -192 134 -200 137 l-16 6 0 -10z"/>
<path d="M54390 52109 c0 -12 29 -38 43 -39 14 0 7 23 -10 36 -22 17 -33 17
-33 3z"/>
<path d="M54272 52088 l-12 -12 0 -27 0 -28 10 -6 10 -6 0 23 0 24 12 12 12
12 -10 10 -10 10 -12 -12z"/>
<path d="M53293 51780 c45 -93 85 -170 89 -170 3 0 -30 77 -75 170 -45 94 -85
170 -89 170 -3 0 30 -76 75 -170z"/>
<path d="M53588 51567 l-378 -192 0 -12 c0 -7 1 -13 3 -13 3 0 751 381 756
385 1 2 1 8 0 14 l-4 10 -377 -192z"/>
<path d="M88415 51612 c-162 -124 -187 -146 -170 -154 3 -2 86 58 185 132
l179 135 1 13 c0 6 -3 12 -7 11 -5 0 -89 -62 -188 -137z"/>
<path d="M53021 51484 l-21 -15 5 -9 6 -9 24 11 c26 12 31 23 17 32 l-9 5 -22
-15z"/>
<path d="M18370 51293 l0 -10 78 -16 c42 -9 101 -19 130 -22 l52 -7 115 7 115
7 0 10 0 11 -107 -7 -108 -7 -110 16 c-60 8 -122 18 -137 21 l-28 6 0 -9z"/>
<path d="M33480 51283 c0 -18 52 -419 56 -432 l4 -14 6 6 7 6 -29 221 -28 220
-8 0 c-4 0 -8 -3 -8 -7z"/>
<path d="M18366 51249 c-3 -13 -12 -54 -21 -91 -8 -37 -30 -106 -50 -154 -19
-49 -35 -92 -35 -98 l0 -10 9 10 c6 5 24 45 41 89 l31 80 20 93 c11 52 18 96
15 99 -3 3 -7 -5 -10 -18z"/>
<path d="M44926 51044 c-87 -41 -165 -74 -172 -74 l-14 0 0 -10 0 -10 28 1 27
0 154 72 154 72 5 13 4 12 -14 -1 c-7 0 -85 -34 -172 -75z"/>
<path d="M7175 50785 c-44 -8 -81 -14 -83 -14 -2 -1 -1 -5 2 -9 l5 -9 93 14
93 15 138 -4 137 -4 0 7 c0 12 -73 19 -190 18 l-115 -1 -80 -13z"/>
<path d="M35851 50447 c-2 -15 70 -481 74 -486 8 -7 6 6 -25 230 -26 182 -46
286 -49 256z"/>
<path d="M59550 50173 c1 -10 86 -68 120 -82 14 -6 86 -24 160 -41 74 -17 143
-33 153 -36 l17 -5 0 15 0 16 -12 0 c-7 0 -82 16 -166 36 l-153 36 -49 34
c-48 33 -70 42 -70 27z"/>
<path d="M38029 50064 c140 -35 257 -62 259 -59 5 5 -24 13 -281 75 -114 27
-213 50 -220 49 -6 -1 102 -30 242 -65z"/>
<path d="M34315 50068 c3 -13 9 -41 13 -62 l8 -40 11 -3 11 -4 -9 43 c-5 24
-11 53 -14 66 l-5 22 -10 0 -10 0 5 -22z"/>
<path d="M34170 49980 l0 -10 55 0 55 0 0 10 0 10 -55 0 -55 0 0 -10z"/>
<path d="M38216 49788 c-26 -106 -49 -202 -53 -213 l-5 -20 9 10 10 10 47 199
c25 109 44 201 42 203 -2 2 -25 -83 -50 -189z"/>
<path d="M39960 49947 c0 -14 313 -792 323 -802 l10 -10 -5 15 c-29 81 -313
787 -319 795 l-9 9 0 -7z"/>
<path d="M35974 49510 c2 -14 19 -116 37 -227 l33 -203 8 0 8 0 -5 23 c-2 12
-18 105 -35 207 -17 102 -35 194 -41 205 l-9 20 4 -25z"/>
<path d="M64320 49051 c-13 -26 -13 -53 3 -74 l12 -17 0 55 c0 30 -1 55 -2 55
-1 0 -7 -9 -13 -19z"/>
<path d="M64720 49011 c0 -5 30 -26 66 -46 l66 -36 112 -28 c61 -16 125 -31
143 -34 l31 -6 5 12 5 13 -71 13 c-39 7 -107 24 -151 37 l-79 24 -53 30 c-56
31 -74 36 -74 21z"/>
<path d="M91439 48708 c-68 -78 -153 -178 -188 -223 -35 -44 -124 -141 -198
-216 -73 -75 -133 -141 -133 -145 0 -5 54 45 121 111 l121 120 81 100 c73 91
242 288 305 357 14 15 23 30 20 33 -2 3 -61 -59 -129 -137z"/>
<path d="M81153 48797 l-63 -31 0 -13 0 -13 74 37 75 37 -5 8 c-7 12 -12 10
-81 -25z"/>
<path d="M12320 48774 c0 -3 12 -21 28 -40 l27 -35 50 -29 c60 -34 181 -75
248 -84 l47 -6 0 10 0 9 -37 6 c-21 3 -76 17 -122 31 l-85 26 -46 29 -45 28
-23 30 c-20 28 -42 41 -42 25z"/>
<path d="M34480 48590 c0 -13 11 -13 30 0 l15 10 -22 0 -23 0 0 -10z"/>
<path d="M34083 48576 l-191 -11 -9 -9 -8 -8 75 6 c41 3 165 11 275 17 203 11
273 20 129 17 -43 0 -165 -6 -271 -12z"/>
<path d="M33854 48550 c3 -14 17 -114 32 -222 l27 -198 7 0 6 0 -30 214 -31
214 -8 9 -9 8 6 -25z"/>
<path d="M30743 48141 l-121 -6 -7 -7 -7 -7 143 6 c79 3 169 9 199 13 l55 8
-70 -1 c-38 0 -125 -3 -192 -6z"/>
<path d="M44286 48001 l-6 -9 24 -15 23 -16 15 -33 16 -33 7 -157 7 -158 10 0
10 0 -7 163 -7 162 -15 33 -15 32 -29 20 -28 20 -5 -9z"/>
<path d="M83986 47998 c19 -32 217 -299 225 -304 l9 -5 0 6 c0 12 -225 314
-233 315 l-8 0 7 -12z"/>
<path d="M69165 47920 l-6 -9 23 -6 c13 -3 231 -47 486 -99 l462 -94 0 14 c0
8 -1 14 -3 14 -2 0 -216 43 -476 95 -261 52 -475 95 -477 95 -1 0 -6 -4 -9
-10z"/>
<path d="M21410 47853 l0 -9 204 -52 c191 -49 236 -58 225 -48 -2 3 -92 28
-199 56 -107 28 -203 53 -212 56 l-18 5 0 -8z"/>
<path d="M76040 47756 l0 -26 10 0 10 0 0 19 0 20 -10 6 -10 6 0 -25z"/>
<path d="M75063 47580 c-101 -14 -186 -29 -189 -33 l-7 -7 5 -6 6 -5 183 26
c101 14 187 27 191 28 l7 2 -7 11 -7 10 -182 -26z"/>
<path d="M22279 47313 c-1 -71 -4 -190 -8 -266 l-6 -137 6 0 c13 0 18 61 25
293 l7 237 -11 0 -12 0 -1 -127z"/>
<path d="M36848 47361 l-126 -6 -7 -7 -7 -7 163 6 164 6 20 8 20 8 -50 -1
c-27 -1 -107 -4 -177 -7z"/>
<path d="M41574 47093 c17 -61 26 -108 32 -180 l7 -83 13 0 c8 0 14 3 14 8 0
26 -22 185 -31 225 l-11 47 -15 0 -14 0 5 -17z"/>
<path d="M39860 46995 l12 -15 -6 -15 -5 -15 9 0 10 0 0 30 0 30 -16 0 -16 0
12 -15z"/>
<path d="M34750 46750 l0 -180 10 0 10 0 0 180 0 180 -10 0 -10 0 0 -180z"/>
<path d="M27192 46870 l-443 -18 -7 -7 -7 -8 130 6 c72 4 285 12 475 18 l345
11 25 8 25 8 -50 0 c-27 0 -249 -9 -493 -18z"/>
<path d="M80390 46733 l-75 -137 -16 -52 c-9 -28 -19 -63 -23 -78 l-6 -26 9 0
10 0 21 69 20 69 75 136 c41 74 75 140 75 145 0 29 -21 -1 -90 -126z"/>
<path d="M34480 46539 c-74 -3 -152 -7 -172 -8 l-38 -1 0 -16 0 -16 108 6 c59
3 160 9 225 12 l117 6 0 14 0 14 -52 -2 c-29 -1 -114 -5 -188 -9z"/>
<path d="M35025 46479 c-71 -3 -158 -7 -192 -8 l-63 -1 0 -16 0 -16 58 6 c31
3 130 8 220 12 l162 6 0 14 0 14 -27 -2 c-16 -1 -86 -5 -158 -9z"/>
<path d="M28035 46264 c-110 -7 -212 -13 -227 -13 l-28 -1 0 -12 0 -11 148 7
c81 3 193 9 250 13 l102 6 0 13 0 14 -22 -1 c-13 -1 -113 -8 -223 -15z"/>
<path d="M28205 46180 l-6 -10 16 0 16 0 -6 10 c-3 6 -8 10 -10 10 -2 0 -7 -4
-10 -10z"/>
<path d="M28159 46103 l-14 -16 -3 -164 -3 -163 10 0 11 0 0 153 0 153 15 20
c26 34 11 50 -16 17z"/>
<path d="M93060 46073 c0 -5 14 -16 31 -25 l31 -18 36 0 37 0 53 -25 54 -25
57 0 56 0 73 38 72 38 -7 7 -6 7 -65 -35 -64 -36 -43 -5 -42 -6 -59 25 -59 25
-48 6 -47 6 -30 15 -30 16 0 -8z"/>
<path d="M81355 45843 c-10 -38 -27 -90 -38 -116 l-20 -48 -29 -15 -30 -15 6
-6 5 -6 31 13 31 13 15 36 c9 20 26 75 39 124 l24 87 -8 0 -8 0 -18 -67z"/>
<path d="M46115 45775 c-3 -14 -7 -37 -10 -52 -3 -16 -22 -67 -43 -116 l-36
-87 -79 -85 -79 -85 10 0 c6 0 44 36 85 81 l75 80 40 97 39 97 7 48 c6 49 0
65 -9 22z"/>
<path d="M52141 45373 c-1 -10 174 -407 186 -422 2 -2 5 -2 7 0 4 3 -81 195
-181 409 l-12 25 0 -12z"/>
<path d="M81355 44919 l-7 -10 6 -6 6 -7 11 11 11 11 -10 6 -11 6 -6 -11z"/>
<path d="M81256 44891 l-20 -8 12 -7 12 -7 20 6 c11 4 20 11 20 16 l0 9 -12
-1 c-7 0 -22 -4 -32 -8z"/>
<path d="M58217 44774 l-6 -6 95 -190 95 -189 9 6 10 6 -95 189 c-52 105 -97
190 -98 190 -2 0 -6 -3 -10 -6z"/>
<path d="M40670 44465 c-68 -102 -121 -187 -118 -190 3 -3 60 79 127 181 67
103 120 188 118 190 -2 3 -59 -79 -127 -181z"/>
<path d="M44847 44408 c-4 -90 -9 -201 -11 -248 l-5 -85 9 50 c10 57 26 445
18 445 -3 0 -8 -73 -11 -162z"/>
<path d="M15390 44359 l-105 -28 -312 -118 -313 -118 0 -12 c0 -7 2 -13 4 -13
3 0 139 50 303 111 l298 112 119 33 c65 18 121 35 124 39 l6 5 -10 9 -9 8
-105 -28z"/>
<path d="M26950 44150 c0 -4 30 -21 68 -38 37 -17 129 -60 205 -96 75 -36 137
-62 137 -58 0 4 -92 50 -205 104 -113 53 -205 93 -205 88z"/>
<path d="M59070 43641 l0 -10 175 -123 c96 -68 180 -124 185 -126 l10 -4 0 10
c0 8 -337 250 -362 260 l-8 4 0 -11z"/>
<path d="M66451 43434 c27 -204 33 -234 43 -223 3 3 -7 101 -22 219 l-28 214
-10 3 -11 4 28 -217z"/>
<path d="M32159 43026 c-20 -19 -83 -92 -139 -163 -57 -70 -110 -135 -117
-145 l-14 -16 9 -6 8 -5 100 122 c54 67 123 147 152 178 28 31 52 59 52 62 0
14 -16 5 -51 -27z"/>
<path d="M46736 42690 c-104 -55 -194 -104 -200 -111 -6 -6 48 20 119 57 221
116 290 154 280 154 -5 -1 -95 -45 -199 -100z"/>
<path d="M96002 42668 c7 -21 263 -377 272 -378 l8 0 -6 15 c-10 26 -260 374
-269 375 l-9 0 4 -12z"/>
<path d="M51445 42555 c3 -16 16 -111 30 -210 14 -99 27 -187 29 -195 l4 -15
1 23 c0 13 -9 96 -20 185 l-22 162 -13 40 -14 40 5 -30z"/>
<path d="M55275 42430 c-77 -55 -142 -106 -144 -113 l-4 -12 34 26 c19 14 82
60 140 102 l107 77 23 1 c13 1 35 5 49 9 l25 8 -45 1 -45 1 -140 -100z"/>
<path d="M68900 42160 c-107 -16 -196 -29 -198 -29 -2 -1 -1 -5 2 -9 l5 -8
203 28 c112 15 209 28 216 28 l12 0 0 10 0 10 -22 -1 c-13 -1 -111 -14 -218
-29z"/>
<path d="M51470 42124 c0 -29 51 -429 55 -433 3 -2 5 4 5 15 -1 41 -48 416
-54 421 l-6 6 0 -9z"/>
<path d="M82727 41653 l-5 -8 66 -105 c36 -58 141 -229 233 -380 91 -151 219
-362 284 -467 l117 -193 15 0 15 0 -14 23 c-8 12 -112 184 -232 382 -199 330
-452 735 -467 750 l-7 6 -5 -8z"/>
<path d="M30108 40980 l-108 -78 -62 -15 c-35 -9 -75 -19 -90 -22 l-28 -5 0
-9 0 -8 53 9 c28 5 74 16 102 25 l49 16 96 70 c52 38 99 73 103 77 l9 8 -9 5
-8 5 -107 -78z"/>
<path d="M57748 40923 c56 -2 148 -2 205 0 l102 3 -205 0 -205 0 103 -3z"/>
<path d="M57748 40883 c56 -2 148 -2 205 0 l102 3 -205 0 -205 0 103 -3z"/>
<path d="M65659 40304 c186 -65 239 -79 220 -59 -3 2 -90 34 -193 70 l-188 65
-26 -1 -27 0 214 -75z"/>
<path d="M65810 40086 c0 -15 18 -31 26 -23 7 7 -7 37 -17 37 l-9 0 0 -14z"/>
<path d="M53220 40032 l0 -7 205 -41 206 -41 -4 11 -3 10 -185 38 c-101 20
-192 37 -201 38 l-18 0 0 -8z"/>
<path d="M54676 40022 l-5 -8 125 -182 125 -181 14 6 15 5 -63 92 c-35 50 -92
133 -127 184 -62 90 -73 101 -84 84z"/>
<path d="M84816 39970 c4 -8 49 -76 99 -150 51 -74 106 -161 124 -192 18 -32
37 -61 43 -64 l11 -7 -33 59 c-44 79 -207 324 -233 349 l-20 20 9 -15z"/>
<path d="M48281 39769 c-60 -79 -108 -146 -105 -149 7 -6 21 12 141 168 l86
112 -6 6 -5 6 -111 -143z"/>
<path d="M67067 39653 l-6 -10 62 -21 c34 -12 87 -27 117 -33 30 -6 99 -26
153 -45 113 -39 107 -38 107 -21 l0 13 -102 33 c-57 19 -143 44 -193 57 -49
13 -100 26 -111 29 l-22 7 -5 -9z"/>
<path d="M65700 39625 c0 -3 -13 -71 -29 -152 l-29 -148 -6 -82 -6 -83 8 0 9
0 7 46 c3 26 6 63 6 83 0 20 14 101 30 181 34 167 33 160 20 160 -5 0 -10 -2
-10 -5z"/>
<path d="M51575 39114 c53 -21 845 -177 873 -172 8 2 -79 20 -194 42 -115 21
-310 60 -434 87 -124 27 -232 49 -240 48 l-15 -1 10 -4z"/>
<path d="M51534 39084 c-4 -16 -28 -108 -54 -204 -41 -152 -50 -197 -37 -179
8 10 107 403 103 407 -3 2 -8 -9 -12 -24z"/>
<path d="M68950 38960 c0 -6 42 -52 93 -103 l94 -92 48 -65 c26 -36 51 -75 56
-87 l9 -23 10 0 c14 0 13 5 -10 50 -28 56 -156 204 -234 273 l-66 58 0 -11z"/>
<path d="M68910 38912 c0 -5 37 -42 82 -82 l81 -74 59 -79 c32 -43 62 -86 67
-95 l9 -17 7 7 7 6 -12 23 c-7 12 -32 49 -56 82 l-44 59 -94 89 c-91 87 -106
98 -106 81z"/>
<path d="M53345 38730 c19 -9 390 -80 416 -80 39 0 -21 14 -211 50 -224 42
-237 44 -205 30z"/>
<path d="M89217 38318 c12 -21 245 -353 251 -358 2 -3 3 2 0 10 -7 23 -242
359 -251 360 l-8 0 8 -12z"/>
<path d="M35010 37862 l0 -10 78 -46 77 -45 93 -87 c51 -48 95 -84 98 -82 2 3
-37 43 -88 90 l-93 84 -70 45 c-38 25 -76 48 -82 53 l-13 7 0 -9z"/>
<path d="M85136 37831 l-7 -11 118 -195 118 -194 9 9 8 8 -111 184 c-61 100
-115 189 -119 197 l-9 13 -7 -11z"/>
<path d="M92800 37614 l10 -25 -10 -20 -11 -19 10 0 c6 0 14 8 19 17 l10 16
-10 29 c-6 15 -14 28 -19 28 l-9 0 10 -26z"/>
<path d="M86157 37278 c-125 -83 -226 -153 -223 -155 3 -4 439 278 461 298 l9
9 -9 0 c-6 -1 -113 -69 -238 -152z"/>
<path d="M580 37383 l0 -21 18 -22 18 -23 11 4 10 4 -29 39 -28 39 0 -20z"/>
<path d="M85660 36685 c0 -23 227 -361 237 -352 2 3 -24 45 -59 94 -35 48 -88
127 -117 176 -47 78 -61 97 -61 82z"/>
<path d="M39813 36283 l7 -6 7 6 6 7 -13 0 -13 0 6 -7z"/>
<path d="M86241 35923 c36 -38 75 -81 87 -98 l23 -30 -17 35 -17 35 -60 62
c-33 35 -65 63 -70 63 l-10 0 64 -67z"/>
<path d="M86487 35769 l-17 -10 5 -8 4 -8 36 11 c19 6 35 14 35 18 l0 8 -22 0
c-13 0 -31 -5 -41 -11z"/>
<path d="M86645 35712 c22 -45 157 -232 167 -232 4 0 8 3 8 6 0 7 -132 190
-166 229 l-26 30 17 -33z"/>
<path d="M84160 35680 c21 -40 221 -384 228 -390 24 -21 -197 370 -226 400
l-14 15 12 -25z"/>
<path d="M86440 35690 l0 -13 7 6 6 7 -6 7 -7 6 0 -13z"/>
<path d="M41764 35677 l19 -14 -5 -26 -5 -27 9 0 9 0 -3 37 -3 38 -20 3 -20 4
19 -15z"/>
<path d="M87215 35558 l-140 -88 -37 -12 -38 -11 0 -9 c0 -25 70 7 220 100 74
46 139 88 143 92 l9 8 -9 4 -8 5 -140 -89z"/>
<path d="M84916 35603 c-21 -6 -464 -288 -486 -311 l-15 -15 15 8 c8 4 119 75
246 156 l231 149 27 0 26 0 20 -20 c11 -11 33 -45 49 -77 16 -32 60 -101 98
-153 38 -52 110 -161 159 -242 49 -82 92 -148 96 -148 11 0 -187 322 -252 410
-30 41 -72 108 -93 147 l-38 72 -22 16 c-22 15 -28 16 -61 8z"/>
<path d="M51530 35370 c0 -6 -13 -101 -30 -212 -30 -201 -34 -235 -26 -227 3
3 19 97 36 209 17 113 32 213 34 223 l4 17 -9 0 c-5 0 -9 -5 -9 -10z"/>
<path d="M85150 35375 c0 -3 24 -38 54 -78 29 -40 133 -202 231 -362 98 -159
185 -298 193 -308 24 -27 26 -12 4 20 -12 15 -98 154 -192 308 -183 297 -290
453 -290 420z"/>
<path d="M86631 35214 c-14 -13 -88 -63 -165 -111 -78 -48 -156 -96 -174 -109
l-34 -22 9 -5 8 -5 169 104 c168 103 226 145 226 164 0 15 -13 10 -39 -16z"/>
<path d="M86380 34804 c-163 -101 -208 -134 -185 -134 4 0 92 53 196 117 166
103 209 134 182 133 -5 -1 -91 -53 -193 -116z"/>
<path d="M85441 34468 l-195 -122 12 -4 12 -4 190 118 c167 104 210 135 183
134 -5 -1 -96 -55 -202 -122z"/>
<path d="M75750 34527 c60 -60 322 -287 331 -287 11 0 -327 303 -345 309 -6 2
0 -8 14 -22z"/>
<path d="M30124 34132 c46 -92 91 -185 100 -206 l16 -39 6 5 5 6 -100 201
c-56 111 -103 201 -106 201 -3 0 33 -75 79 -168z"/>
<path d="M85004 33959 c-214 -133 -393 -245 -398 -250 l-10 -9 6 -5 5 -5 399
246 c219 136 400 248 402 249 2 2 -1 5 -6 9 l-9 5 -389 -240z"/>
<path d="M83490 33244 l-185 -124 -3 -16 -4 -16 14 8 c17 10 372 246 377 251
3 2 0 7 -5 12 l-9 9 -185 -124z"/>
<path d="M64595 33219 c-9 -13 -33 3 189 -123 l188 -108 10 10 10 10 -128 72
c-70 40 -156 90 -191 111 -71 44 -69 43 -78 28z"/>
<path d="M30771 32789 l120 -264 34 -32 c19 -18 39 -33 45 -33 l10 0 -40 41
-39 41 -25 51 c-166 355 -209 443 -217 451 -5 6 45 -109 112 -255z"/>
<path d="M79411 32686 c7 -7 362 -146 373 -146 l9 0 -6 7 c-11 11 -185 83
-276 114 -80 27 -110 35 -100 25z"/>
<path d="M98818 31737 l-27 -11 -10 -29 -11 -29 29 31 29 31 29 0 28 0 -15 10
c-17 11 -16 11 -52 -3z"/>
<path d="M99191 31287 c-2 -17 390 -539 398 -531 5 5 7 2 -189 262 -91 120
-175 232 -187 248 -12 16 -22 25 -22 21z"/>
<path d="M80565 30946 c-94 -68 -277 -206 -408 -307 l-238 -182 9 -9 9 -9 250
193 c137 107 320 245 406 307 l157 113 -6 9 c-3 5 -6 9 -7 9 -2 0 -79 -56
-172 -124z"/>
<path d="M83084 30189 l-6 -11 8 -8 c5 -5 97 -83 204 -174 l195 -165 10 10 9
9 -19 19 c-40 38 -385 331 -389 331 -3 0 -8 -5 -12 -11z"/>
<path d="M95310 26779 c-96 -71 -177 -134 -179 -140 -3 -9 325 226 359 257
l14 14 -9 -1 c-6 0 -89 -58 -185 -130z"/>
<path d="M94820 26724 c-102 -74 -187 -139 -189 -145 -2 -6 48 26 110 72 63
45 148 107 189 137 41 30 79 59 85 63 l9 9 -9 0 c-6 -1 -93 -61 -195 -136z"/>
<path d="M78075 25979 l-6 -9 195 -94 c107 -52 204 -97 216 -101 l20 -6 0 11
0 11 -147 71 c-82 38 -176 83 -210 99 l-62 28 -6 -10z"/>
<path d="M4500 25015 l0 -36 -14 -27 c-17 -34 -83 -95 -198 -186 -77 -61 -101
-86 -82 -86 9 0 195 149 242 194 24 22 50 53 58 68 l14 27 0 41 0 40 -10 0
-10 0 0 -35z"/>
<path d="M4444 25015 l6 -25 -44 -48 c-25 -26 -88 -81 -140 -122 -52 -41 -95
-78 -96 -82 -1 -18 23 -4 102 58 107 86 178 153 188 180 l9 22 -6 21 -5 21
-10 0 -10 0 6 -25z"/>
<path d="M3763 24351 c-68 -53 -94 -65 -208 -96 -55 -14 -115 -31 -133 -36
l-32 -11 5 -8 5 -8 102 28 c57 15 122 33 145 39 l41 11 71 53 c39 28 70 55 71
60 0 15 -20 6 -67 -32z"/>
<path d="M3430 20712 l0 -10 43 -6 c23 -3 136 -15 250 -27 l208 -21 6 6 c4 3
4 8 2 10 -2 2 -98 14 -214 25 -115 12 -229 24 -252 27 l-43 6 0 -10z"/>
<path d="M96421 17133 c5 -16 350 -323 363 -323 l10 0 -9 8 c-19 16 -301 266
-334 296 l-34 31 4 -12z"/>
<path d="M92348 16592 c-92 -69 -165 -128 -163 -130 6 -6 335 240 335 250 0
11 13 20 -172 -120z"/>
<path d="M92371 16559 c-89 -67 -160 -124 -157 -126 2 -2 78 50 168 118 188
140 174 129 161 129 -5 0 -82 -55 -172 -121z"/>
<path d="M97576 14183 c-169 -197 -306 -362 -306 -367 l0 -10 9 10 c46 50 611
716 611 719 0 3 -2 5 -4 5 -3 0 -142 -161 -310 -357z"/>
<path d="M96520 12951 c-68 -82 -126 -154 -128 -162 l-4 -14 9 10 c12 12 233
273 252 298 l13 17 -8 -1 c-5 0 -65 -67 -134 -148z"/>
<path d="M3000 12551 c0 -10 333 -311 344 -311 20 0 -12 33 -156 162 -90 79
-169 147 -175 152 l-13 7 0 -10z"/>
<path d="M98717 10604 c-4 -4 -7 -11 -7 -15 0 -4 72 -73 161 -154 l160 -148
12 12 11 11 -9 8 c-49 43 -258 233 -286 259 l-35 33 -7 -6z"/>
<path d="M31883 3443 c-52 -26 -41 -45 12 -21 l25 11 6 -6 6 -6 -56 -102 -56
-103 8 -8 8 -8 57 103 57 103 0 27 0 27 -17 -1 c-10 0 -33 -8 -50 -16z"/>
<path d="M8910 1835 l0 -15 59 0 c54 0 241 -13 364 -24 l47 -5 0 14 0 15 -27
0 c-16 0 -109 7 -208 15 -99 8 -192 15 -207 15 l-28 0 0 -15z"/>
</g>
</svg>
