<?xml version="1.0" standalone="no"?>
<!DOCTYPE svg PUBLIC "-//W3C//DTD SVG 20010904//EN"
 "http://www.w3.org/TR/2001/REC-SVG-20010904/DTD/svg10.dtd">
<svg version="1.0" xmlns="http://www.w3.org/2000/svg"
 width="7500.000000pt" height="7500.000000pt" viewBox="0 0 7500.000000 7500.000000"
 preserveAspectRatio="xMidYMid meet">
<metadata>
Created by potrace 1.16, written by Peter Selinger 2001-2019
</metadata>
<g transform="translate(0.000000,7500.000000) scale(0.075000,-0.075000)"
fill="#000000" stroke="none">
<path d="M9020 99969 c19 -16 43 -34 52 -39 l17 -10 6 11 c4 6 5 11 4 13 -2 1
-19 14 -37 29 l-34 27 -21 0 -22 -1 35 -30z"/>
<path d="M84489 98806 c-2 -3 -77 -6 -167 -8 l-162 -3 0 -8 0 -9 187 8 188 7
25 8 25 7 -46 1 c-25 1 -48 -1 -50 -3z"/>
<path d="M89647 97481 l-25 -38 -47 -169 -46 -169 -25 -37 c-13 -21 -21 -38
-17 -38 5 0 19 17 32 37 l24 37 44 161 44 160 18 30 c19 33 32 65 27 65 -2 0
-15 -17 -29 -39z"/>
<path d="M14097 96973 c-4 -65 -6 -169 -6 -230 l0 -113 9 0 10 0 0 133 c0 72
3 176 7 230 l6 97 -10 0 -10 0 -6 -117z"/>
<path d="M88256 96333 l-6 -6 202 -79 c110 -43 203 -76 206 -73 3 2 -6 9 -19
14 -167 63 -345 133 -359 141 l-17 9 -7 -6z"/>
<path d="M89416 96272 c-10 -20 -42 -73 -71 -117 l-53 -80 -42 -34 c-23 -18
-39 -35 -36 -38 2 -3 24 10 47 28 l41 34 38 55 c41 60 104 180 97 186 -2 2
-11 -13 -21 -34z"/>
<path d="M98091 94556 c2 -2 88 -38 192 -79 l187 -75 0 8 0 8 -177 71 c-153
61 -219 83 -202 67z"/>
<path d="M31986 94442 l-4 -8 185 -136 186 -137 9 5 9 6 -158 117 c-87 64
-172 127 -190 139 l-32 22 -5 -8z"/>
<path d="M98906 94232 c5 -5 100 -45 212 -90 l202 -80 0 8 0 8 -202 81 c-112
45 -207 81 -212 81 l-10 0 10 -8z"/>
<path d="M87817 93372 c-40 -42 -33 -51 8 -12 l36 35 79 -81 79 -80 14 8 c8 4
27 8 43 10 l29 2 38 -13 c21 -7 41 -11 44 -8 2 3 -20 13 -50 23 l-54 17 -30
-11 -30 -10 -74 74 -73 74 -16 0 -16 0 -27 -28z"/>
<path d="M86810 92735 c0 -8 230 -155 243 -155 l12 0 28 36 c36 44 30 54 -8
14 -16 -17 -33 -30 -37 -30 -5 0 -56 32 -113 70 -95 64 -125 79 -125 65z"/>
<path d="M89520 92716 c0 -8 442 -148 447 -142 4 4 -424 146 -441 146 -3 0 -6
-2 -6 -4z"/>
<path d="M58310 92083 c0 -9 364 -217 388 -221 9 -2 -55 38 -143 88 -88 50
-179 102 -202 116 l-43 25 0 -8z"/>
<path d="M26350 91606 l0 -12 212 -61 c194 -56 247 -67 209 -43 -8 4 -71 24
-140 44 -69 20 -161 47 -203 60 l-78 24 0 -12z"/>
<path d="M94992 91262 c-17 -21 -50 -74 -73 -118 -23 -43 -50 -88 -59 -99 -10
-11 -21 -29 -24 -41 -3 -11 -21 -35 -40 -53 l-34 -33 -43 -5 c-24 -2 -51 -7
-59 -10 l-15 -5 30 -9 30 -9 43 11 42 12 35 38 35 39 0 14 c0 8 11 27 24 43
13 15 40 60 60 100 l36 72 31 36 32 36 -10 10 -10 10 -31 -39z"/>
<path d="M94406 91172 c5 -5 28 -23 52 -41 l42 -33 0 9 c0 10 -83 73 -96 73
l-8 0 10 -8z"/>
<path d="M33460 91035 l0 -85 10 0 10 0 0 85 0 85 -10 0 -10 0 0 -85z"/>
<path d="M94520 91030 l0 -20 10 0 10 0 0 20 0 20 -10 0 -10 0 0 -20z"/>
<path d="M94870 90982 c0 -6 17 -39 38 -72 40 -67 50 -84 78 -144 l19 -40 47
-51 48 -52 67 -36 c86 -45 652 -281 659 -274 3 2 -129 60 -293 128 l-298 123
-60 35 c-33 19 -77 51 -98 70 -43 41 -97 120 -97 143 0 8 -9 27 -21 42 -11 14
-36 52 -55 83 -19 31 -34 52 -34 45z"/>
<path d="M94564 90958 l-7 -11 18 -13 18 -13 8 5 c14 8 11 18 -11 31 l-19 13
-7 -12z"/>
<path d="M33450 90745 l0 -105 10 0 10 0 0 105 0 105 -10 0 -10 0 0 -105z"/>
<path d="M28703 90723 l7 -6 7 6 6 7 -13 0 -13 0 6 -7z"/>
<path d="M28743 90713 l7 -6 7 6 6 7 -13 0 -13 0 6 -7z"/>
<path d="M28773 90703 l7 -6 7 6 6 7 -13 0 -13 0 6 -7z"/>
<path d="M28808 90693 l13 -5 6 6 6 6 -19 -1 -19 -1 13 -5z"/>
<path d="M28843 90683 l7 -6 7 6 6 7 -13 0 -13 0 6 -7z"/>
<path d="M28873 90673 l7 -6 7 6 6 7 -13 0 -13 0 6 -7z"/>
<path d="M28913 90663 l7 -6 7 6 6 7 -13 0 -13 0 6 -7z"/>
<path d="M28979 90644 c25 -8 61 -16 80 -19 l36 -5 -70 20 c-79 22 -113 25
-46 4z"/>
<path d="M29103 90613 l7 -6 7 6 6 7 -13 0 -13 0 6 -7z"/>
<path d="M29143 90603 l7 -6 7 6 6 7 -13 0 -13 0 6 -7z"/>
<path d="M30180 90510 l0 -9 33 -5 c102 -17 292 -36 350 -36 l67 0 0 10 0 10
-52 0 c-29 0 -123 9 -208 20 -85 11 -163 20 -172 20 l-18 0 0 -10z"/>
<path d="M30740 90230 c0 -5 5 -10 10 -10 6 0 10 5 10 10 0 6 -4 10 -10 10 -5
0 -10 -4 -10 -10z"/>
<path d="M30810 90146 c5 -4 259 -106 267 -106 1 0 3 4 3 9 l0 9 -107 39
c-106 39 -173 60 -163 49z"/>
<path d="M31077 89999 c14 -12 165 -66 243 -87 l75 -20 223 -32 223 -33 12 13
12 13 -16 -6 -17 -6 -238 36 -239 35 -143 47 c-78 26 -139 44 -135 40z"/>
<path d="M33556 89622 l-6 -10 58 -21 c31 -11 63 -22 71 -23 l14 -3 3 11 4 10
-57 19 c-81 27 -80 27 -87 17z"/>
<path d="M97540 89236 c-52 -19 -267 -136 -251 -136 7 0 68 29 135 64 l121 65
85 9 85 9 -70 1 -70 1 -35 -13z"/>
<path d="M86360 88980 c41 -5 125 -11 185 -15 l110 -6 65 10 65 9 -135 -1
c-74 0 -187 2 -250 5 l-115 6 75 -8z"/>
<path d="M85145 88939 c-88 -14 -308 -59 -490 -98 -181 -39 -386 -80 -455 -90
l-125 -19 39 -1 c63 -2 219 26 581 104 187 40 401 83 475 96 74 12 137 24 139
26 14 10 -21 7 -164 -18z"/>
<path d="M85460 88949 c-36 -5 -171 -27 -300 -49 l-235 -40 -315 -70 -315 -70
-105 -11 c-140 -13 -150 -20 -20 -13 l105 6 335 74 c184 41 441 92 570 115
l235 41 193 5 192 5 0 9 0 9 -137 -1 -138 -1 -65 -9z"/>
<path d="M28200 88826 c-56 -12 -134 -48 -145 -66 l-6 -10 7 0 c3 0 30 13 58
29 l51 30 87 12 86 12 69 -17 c37 -9 76 -19 86 -22 l17 -5 0 8 0 9 -72 17 -73
17 -55 -1 c-30 0 -80 -6 -110 -13z"/>
<path d="M29227 88600 l-28 -49 -22 -16 -21 -15 -33 0 -33 0 -85 34 -85 34 0
-7 c0 -5 43 -25 95 -45 l95 -36 25 0 25 0 29 28 c16 15 41 48 56 75 l27 47 -9
0 c-4 0 -21 -22 -36 -50z"/>
<path d="M89554 88155 c3 -11 24 -103 46 -204 36 -166 50 -217 50 -183 0 7
-19 96 -41 199 l-41 188 -10 10 -10 10 6 -20z"/>
<path d="M80270 88043 c0 -5 93 -41 206 -81 l206 -74 5 6 c4 3 4 8 2 11 -4 4
-408 145 -415 145 -2 0 -4 -3 -4 -7z"/>
<path d="M79266 87599 l-38 -231 6 -5 c3 -4 8 -4 9 -2 4 4 78 447 77 462 0 4
-3 7 -8 7 l-8 0 -38 -231z"/>
<path d="M75068 87714 l-6 -5 90 -187 c96 -201 95 -198 104 -189 l7 6 -89 183
c-48 101 -90 186 -94 191 l-6 7 -6 -6z"/>
<path d="M89183 87326 l-213 -71 0 -13 0 -14 13 4 c6 3 104 36 217 73 113 37
207 69 209 72 3 2 0 7 -5 12 l-9 8 -212 -71z"/>
<path d="M84458 87218 c-47 -90 -111 -223 -143 -296 l-58 -134 -14 -5 -14 -6
-85 23 c-47 12 -87 20 -90 17 -4 -4 84 -30 177 -52 l26 -6 64 143 c35 79 101
216 147 306 46 90 82 165 79 168 -2 2 -42 -69 -89 -158z"/>
<path d="M84277 86933 c-20 -48 -41 -94 -45 -101 l-9 -13 -257 71 c-241 66
-286 76 -275 66 6 -7 516 -146 533 -146 l13 0 42 96 c23 52 41 100 39 105 l-3
10 -38 -88z"/>
<path d="M36934 86661 c3 -4 75 -56 160 -115 85 -58 156 -110 158 -115 2 -4
50 -37 108 -73 l105 -64 104 -47 c57 -26 106 -45 108 -43 2 1 -50 30 -114 64
-148 77 -260 147 -462 290 -88 61 -163 112 -166 112 l-6 0 5 -9z"/>
<path d="M19266 86221 c14 -13 370 -133 597 -202 111 -34 221 -67 245 -74 l43
-13 -3 10 -4 11 -206 62 c-113 34 -308 97 -434 139 -126 42 -233 76 -239 76
l-9 0 10 -9z"/>
<path d="M78956 85473 c-15 -72 -109 -622 -125 -730 l-18 -123 8 0 c10 0 16
21 29 115 11 76 114 679 126 738 l6 27 -10 0 -10 0 -6 -27z"/>
<path d="M81266 85491 c10 -9 373 -131 389 -130 9 0 -384 139 -394 139 -3 0
-1 -4 5 -9z"/>
<path d="M81252 85455 c8 -8 391 -135 395 -131 4 4 -377 136 -391 136 -5 0 -7
-2 -4 -5z"/>
<path d="M22235 84931 l-4 -8 215 -93 215 -93 5 6 6 5 -21 11 c-11 6 -108 49
-215 95 l-196 84 -5 -7z"/>
<path d="M88201 84585 c-52 -195 -92 -357 -90 -360 3 -2 46 150 97 339 50 188
94 350 98 359 l6 17 -8 0 -9 0 -94 -355z"/>
<path d="M85655 84763 c-11 -2 -42 -14 -70 -26 l-50 -21 -117 -85 -118 -85 0
-14 0 -13 33 23 c17 12 68 49 112 81 43 32 104 71 135 87 l55 28 43 7 42 7 -6
9 c-5 9 -23 10 -59 2z"/>
<path d="M22770 84642 l0 -9 180 -81 180 -80 5 7 4 8 -177 78 c-97 43 -180 80
-184 82 -5 2 -8 0 -8 -5z"/>
<path d="M86616 84327 l-28 -198 6 -6 6 -6 0 10 c0 6 12 90 26 187 14 98 24
185 22 194 l-4 17 -28 -198z"/>
<path d="M82660 84490 c6 -11 16 -20 21 -20 l11 0 -6 16 c-3 9 -6 18 -6 20 0
2 -7 4 -15 4 l-16 0 11 -20z"/>
<path d="M80500 84332 c0 -4 91 -38 203 -76 225 -77 247 -83 197 -60 -58 27
-400 143 -400 136z"/>
<path d="M90686 84281 c5 -5 110 -37 234 -71 124 -34 228 -65 233 -67 l7 -4 0
9 0 10 -235 66 c-129 36 -238 66 -242 66 l-7 0 10 -9z"/>
<path d="M92600 83806 c0 -3 57 -37 128 -77 93 -54 446 -270 480 -294 1 -1
-72 -109 -163 -240 -91 -131 -164 -239 -161 -242 2 -2 61 78 132 179 70 101
147 211 171 244 l43 61 -168 105 c-159 101 -445 268 -457 268 -3 0 -5 -2 -5
-4z"/>
<path d="M86546 83598 c-9 -96 -19 -394 -13 -388 6 6 30 440 24 446 -3 3 -7
-23 -11 -58z"/>
<path d="M25680 83453 l0 -9 109 -15 108 -15 99 7 c108 8 154 16 154 30 l0 8
-52 -7 c-73 -10 -269 -9 -350 2 l-68 8 0 -9z"/>
<path d="M82100 83405 l0 -15 14 0 14 0 6 15 5 15 -19 0 -20 0 0 -15z"/>
<path d="M92911 82934 c-139 -201 -250 -368 -248 -371 3 -2 109 148 238 334
128 186 241 351 252 366 10 16 17 30 15 32 -2 3 -118 -160 -257 -361z"/>
<path d="M84396 83179 c143 -182 177 -226 196 -261 12 -21 25 -38 30 -38 l8 0
-31 50 c-40 65 -227 304 -242 309 -6 2 12 -25 39 -60z"/>
<path d="M76555 82564 c-61 -98 -116 -188 -123 -201 l-13 -23 8 0 c4 0 61 86
126 191 l118 191 -3 10 -4 10 -109 -178z"/>
<path d="M79600 82403 c-1 -5 23 -99 52 -210 l53 -203 14 0 13 0 -5 13 c-2 7
-28 101 -57 210 l-53 197 -9 0 c-4 0 -8 -3 -8 -7z"/>
<path d="M96755 82043 c-150 -86 -166 -100 -244 -208 -377 -525 -471 -658
-467 -662 3 -4 99 127 477 652 77 108 93 121 247 208 l133 75 -8 5 -8 5 -130
-75z"/>
<path d="M94080 81293 c-52 -81 -96 -154 -98 -163 -3 -13 174 247 199 293 l10
17 -8 0 c-4 0 -51 -66 -103 -147z"/>
<path d="M95385 80328 c-61 -83 -112 -156 -114 -162 l-3 -11 15 15 c27 27 227
310 219 310 -4 0 -57 -68 -117 -152z"/>
<path d="M95478 80388 c-134 -183 -176 -243 -172 -247 5 -6 -3 -16 107 136
112 155 131 183 123 183 -3 0 -29 -32 -58 -72z"/>
<path d="M94946 80372 l-5 -8 809 -585 808 -584 65 -34 65 -33 13 4 14 5 -55
28 c-79 40 -101 55 -895 629 -396 285 -741 534 -766 553 l-47 34 -6 -9z"/>
<path d="M25451 80037 c-1 -4 18 -52 41 -105 l41 -97 -2 -230 c-1 -126 -3
-266 -4 -310 l-2 -80 43 -23 42 -23 0 8 c0 4 -17 17 -38 28 l-37 20 1 55 c1
30 5 152 9 270 l7 215 -10 55 -11 55 -40 85 c-21 47 -40 81 -40 77z"/>
<path d="M72667 80024 l-5 -9 13 -19 14 -18 11 4 12 4 -20 23 -19 24 -6 -9z"/>
<path d="M25573 79538 c1 -35 -2 -115 -7 -180 l-8 -116 32 -17 c17 -9 34 -14
37 -11 3 2 -10 12 -27 21 l-33 17 7 54 c3 30 9 108 13 174 l6 120 -11 0 -11 0
2 -62z"/>
<path d="M42355 79550 l-30 -8 33 -1 32 -1 0 10 c0 6 -1 9 -2 9 -2 -1 -16 -5
-33 -9z"/>
<path d="M99536 79128 c-48 -111 -90 -208 -93 -217 l-6 -16 11 10 c5 6 51 101
100 212 l90 203 -7 4 -7 5 -88 -201z"/>
<path d="M77760 78725 c0 -3 33 -49 73 -103 40 -54 99 -139 131 -190 32 -51
63 -92 68 -92 l8 0 -71 108 c-76 113 -198 282 -205 282 -2 0 -4 -2 -4 -5z"/>
<path d="M97482 78709 l5 -14 192 -83 193 -84 9 9 8 8 -195 85 c-108 47 -201
87 -206 89 l-10 4 4 -14z"/>
<path d="M43261 78346 c2 -3 84 -38 181 -80 97 -41 223 -98 280 -127 l103 -52
75 -61 c41 -34 81 -66 89 -71 l14 -8 -7 11 c-4 6 -41 39 -84 74 -42 34 -79 65
-82 68 -10 11 -269 131 -410 190 -129 54 -172 69 -159 56z"/>
<path d="M98715 78220 l-6 -10 23 -9 c117 -45 498 -215 843 -375 231 -107 422
-193 424 -190 3 2 0 9 -5 14 -16 16 -770 363 -1024 472 -129 55 -238 102 -242
104 -4 2 -9 0 -13 -6z"/>
<path d="M99106 77981 c7 -7 565 -266 791 -367 l52 -23 5 8 5 8 -417 191
c-229 106 -424 192 -431 192 l-15 0 10 -9z"/>
<path d="M44007 77938 c-33 -54 -247 -439 -247 -445 0 -4 4 -3 9 3 8 9 210
365 245 432 19 36 14 44 -7 10z"/>
<path d="M74838 76960 l-86 -80 -16 -47 c-9 -25 -16 -56 -16 -67 l0 -20 -12
12 c-32 32 -37 3 -6 -38 l22 -30 13 0 13 0 0 50 0 51 14 32 14 32 85 84 86 85
-5 8 c-9 15 -18 9 -106 -72z"/>
<path d="M15132 76928 l4 -12 186 -47 c102 -26 195 -52 208 -59 l22 -12 10 10
11 11 -39 16 c-33 13 -380 105 -399 105 -4 0 -5 -5 -3 -12z"/>
<path d="M75668 75983 c68 -2 176 -2 240 0 l117 3 -240 0 -240 0 123 -3z"/>
<path d="M31056 74841 l-5 -8 217 -65 c199 -60 236 -69 219 -52 -5 5 -151 51
-379 119 l-48 14 -4 -8z"/>
<path d="M31486 74651 c11 -10 436 -102 443 -96 2 3 2 7 0 10 -6 6 -415 95
-437 95 l-16 0 10 -9z"/>
<path d="M33730 74102 l0 -9 83 -22 c45 -12 111 -34 147 -48 l65 -26 65 -55
c35 -30 116 -108 179 -174 l114 -119 38 -20 c21 -10 43 -19 49 -19 22 0 8 16
-35 39 l-46 24 -105 111 c-58 61 -134 135 -167 165 l-62 53 -60 28 c-50 23
-233 80 -257 80 -5 0 -8 -4 -8 -8z"/>
<path d="M34167 73964 l-7 -8 122 -125 123 -126 40 -22 c43 -24 55 -27 55 -15
0 4 -17 16 -37 27 l-38 20 -125 128 -125 129 -8 -8z"/>
<path d="M72250 72552 c0 -6 286 -137 346 -158 l19 -7 -10 11 c-8 9 -341 162
-352 162 -2 0 -3 -3 -3 -8z"/>
<path d="M90804 71665 l0 -230 3 118 c2 65 2 168 0 230 l-3 112 0 -230z"/>
<path d="M73950 70770 l0 -10 235 0 235 0 0 10 0 10 -235 0 -235 0 0 -10z"/>
<path d="M33454 69029 l-7 -11 14 -9 c16 -10 83 -12 92 -3 l6 6 -6 14 -5 13
-19 -12 -19 -12 -20 13 c-24 15 -27 15 -36 1z"/>
<path d="M19463 68926 c-178 -39 -213 -49 -202 -60 6 -6 436 88 445 97 l7 7
-29 -1 c-16 -1 -116 -20 -221 -43z"/>
<path d="M2068 68914 l-7 -7 28 -36 c15 -20 68 -103 116 -186 48 -82 94 -157
102 -165 l13 -14 0 12 c0 15 -190 335 -222 375 l-23 28 -7 -7z"/>
<path d="M71905 68743 c-11 -3 -60 -18 -110 -35 l-90 -31 -79 -58 -79 -58 -18
9 -18 10 -51 0 -50 0 -363 -90 c-449 -113 -440 -110 -434 -116 2 -3 185 40
406 96 l401 100 41 0 41 0 29 -21 29 -20 0 -29 c0 -16 -5 -41 -11 -57 -15 -40
-70 -343 -67 -367 l3 -21 29 160 c15 87 35 177 43 200 l14 40 -2 52 -3 53 55
41 c73 55 94 65 228 109 98 33 127 50 56 33z"/>
<path d="M77758 68511 l-216 -6 -9 -9 -8 -9 115 7 c63 3 175 6 248 6 l132 0 0
10 0 10 -22 -2 c-13 -1 -121 -4 -240 -7z"/>
<path d="M41417 67878 c-43 -114 -130 -368 -134 -394 l-6 -34 12 0 11 0 0 20
c0 11 32 109 70 216 39 108 70 198 70 200 0 10 -18 3 -23 -8z"/>
<path d="M2936 67841 l-5 -8 379 -253 380 -253 7 6 c8 9 51 -21 -379 265
l-377 252 -5 -9z"/>
<path d="M55030 67290 c0 -11 390 -340 403 -340 l9 0 -4 9 c-3 9 -396 341
-404 341 -2 0 -4 -4 -4 -10z"/>
<path d="M5116 67081 c-53 -78 -99 -148 -102 -156 l-6 -15 6 0 c9 0 208 301
203 306 -3 3 -48 -58 -101 -135z"/>
<path d="M55376 66931 l-17 -19 -18 -151 -18 -151 8 0 c10 0 16 34 30 170 l12
115 12 15 c6 8 15 21 19 28 l7 12 -9 0 c-5 0 -17 -9 -26 -19z"/>
<path d="M86022 66836 l-91 -94 -16 -58 c-9 -33 -19 -68 -22 -79 l-5 -20 10
10 c5 6 15 32 21 59 l12 49 31 45 c17 24 63 75 102 113 l71 68 -11 1 -11 0
-91 -94z"/>
<path d="M43391 66676 c2 -2 18 -6 34 -10 l30 -7 -15 11 c-14 9 -59 15 -49 6z"/>
<path d="M48251 66532 c2 -6 108 -82 234 -169 375 -258 599 -415 617 -430 l17
-15 12 4 12 4 -224 155 c-198 138 -480 332 -623 429 l-49 33 4 -11z"/>
<path d="M41276 66361 c20 -21 587 -382 591 -377 3 2 -12 15 -34 29 -21 13
-154 99 -296 191 -237 152 -288 183 -261 157z"/>
<path d="M44265 66331 c13 -12 377 -123 383 -116 6 6 15 3 -193 65 -93 28
-177 53 -185 56 l-15 5 10 -10z"/>
<path d="M44245 66293 l10 -11 193 -55 192 -54 0 6 c0 4 -84 31 -187 60 -103
30 -194 56 -203 59 l-15 5 10 -10z"/>
<path d="M41590 66266 c0 -3 153 -105 308 -204 12 -8 22 -11 22 -8 0 7 -315
216 -325 216 -3 0 -5 -2 -5 -4z"/>
<path d="M97230 66180 l-235 -57 -340 -66 c-187 -37 -406 -79 -487 -94 l-146
-27 4 -11 5 -12 237 44 c512 93 677 127 937 190 149 36 272 67 274 70 3 2 0 7
-5 12 l-9 8 -235 -57z"/>
<path d="M97266 66136 l-209 -51 -5 -14 -5 -14 24 6 c13 3 113 27 222 53 l197
48 0 13 c0 16 23 20 -224 -41z"/>
<path d="M97466 66142 l-6 -10 40 -193 41 -194 59 -200 c32 -110 67 -218 76
-240 l18 -40 3 17 4 17 -10 18 c-5 10 -39 118 -74 238 l-66 220 -36 185 c-20
102 -38 186 -40 188 -2 2 -6 -1 -9 -6z"/>
<path d="M94504 66085 c7 -42 43 -270 52 -330 3 -27 11 -57 16 -65 l9 -15 -5
30 c-2 17 -17 111 -32 210 l-27 180 -9 10 -10 10 6 -30z"/>
<path d="M94460 66096 c0 -11 59 -366 66 -395 3 -13 7 -22 9 -19 6 5 -60 407
-68 415 l-7 6 0 -7z"/>
<path d="M41912 66018 c-14 -14 -16 -28 -3 -28 9 0 24 30 18 36 -2 2 -9 -2
-15 -8z"/>
<path d="M49150 65941 l0 -10 173 -121 c384 -271 529 -370 525 -361 -1 6 -78
63 -169 128 -92 65 -242 172 -335 238 -92 66 -174 124 -181 128 l-13 8 0 -10z"/>
<path d="M46630 65842 c0 -6 367 -164 435 -188 l20 -7 -10 10 c-5 5 -73 36
-150 68 -77 32 -175 73 -217 91 -43 18 -78 30 -78 26z"/>
<path d="M83650 65740 l0 -13 7 6 6 7 -6 7 -7 6 0 -13z"/>
<path d="M83656 65682 l-8 -14 12 -46 13 -47 81 -127 c44 -70 84 -127 88 -127
l7 -1 -6 18 c-3 9 -37 63 -74 119 -73 108 -87 135 -98 198 l-7 40 -8 -13z"/>
<path d="M3986 65048 c-9 -29 -20 -59 -23 -65 l-5 -13 14 0 13 0 19 53 c10 28
21 58 23 65 l5 12 -14 0 -14 0 -18 -52z"/>
<path d="M33288 65055 l-5 -25 8 0 9 0 0 25 c0 14 -2 25 -4 25 -2 0 -6 -11 -8
-25z"/>
<path d="M46872 64898 c-17 -29 -114 -204 -217 -388 l-187 -335 -49 -119 c-27
-66 -47 -121 -44 -124 2 -3 9 6 14 19 5 13 27 67 49 120 l40 97 216 387 c119
213 215 390 212 392 -2 2 -17 -20 -34 -49z"/>
<path d="M3937 64903 c-2 -5 -10 -25 -16 -45 l-12 -38 7 -11 7 -12 18 44 c10
24 18 50 18 57 l1 12 -9 0 c-6 0 -12 -3 -14 -7z"/>
<path d="M35000 64897 c0 -5 -70 -416 -85 -497 l-4 -25 9 20 c5 11 28 127 50
259 l41 238 -5 6 -6 5 0 -6z"/>
<path d="M35041 64896 c-1 -4 -33 -189 -71 -410 -76 -432 -111 -670 -96 -655
3 2 12 61 21 129 9 69 48 305 86 524 l70 399 -5 11 -4 11 -1 -9z"/>
<path d="M3861 64688 c-28 -89 -53 -189 -47 -195 11 -12 23 10 35 63 7 31 23
87 36 125 l24 69 -14 0 -13 0 -21 -62z"/>
<path d="M37180 64720 l0 -20 11 0 c14 0 383 -48 422 -55 l27 -4 0 19 0 20
-22 4 c-26 6 -410 56 -427 56 l-11 0 0 -20z"/>
<path d="M37058 64572 l-5 -19 36 -12 c43 -14 421 -62 433 -55 4 3 8 13 8 23
l0 18 -117 12 c-125 14 -286 36 -326 46 l-24 6 -5 -19z"/>
<path d="M40695 64505 c30 -79 78 -230 90 -280 l15 -60 -6 53 -5 53 -41 117
c-22 64 -45 122 -51 127 l-10 10 8 -20z"/>
<path d="M70860 64276 c0 -15 164 -386 171 -386 4 0 -28 81 -71 179 -79 181
-99 223 -100 207z"/>
<path d="M79955 64169 c-71 -16 -169 -34 -217 -40 l-88 -12 0 -9 0 -9 58 6
c74 8 358 66 374 76 28 18 -4 15 -127 -12z"/>
<path d="M40257 64162 l-17 -19 1 -29 1 -29 12 33 12 34 16 9 17 9 128 -15
c70 -8 149 -15 176 -15 l47 0 0 11 0 12 -36 -6 -35 -6 -122 14 c-67 8 -136 15
-153 15 l-31 0 -16 -18z"/>
<path d="M78925 64084 c-363 -45 -751 -91 -863 -102 -184 -17 -224 -24 -211
-36 8 -8 405 35 1075 118 380 47 696 86 702 86 l12 0 0 10 0 10 -27 -1 c-16
-1 -325 -39 -688 -85z"/>
<path d="M40664 64117 c-28 -17 -59 -42 -68 -55 l-18 -23 18 -27 c27 -41 505
-572 515 -572 5 0 -108 131 -251 290 l-260 290 0 13 c1 21 23 43 78 76 28 18
52 35 52 37 0 9 -18 2 -66 -29z"/>
<path d="M71708 64067 l-217 -62 2 -10 c1 -5 4 -9 7 -9 14 4 342 97 388 110
l52 15 0 10 c0 12 12 15 -232 -54z"/>
<path d="M78950 64033 c-107 -14 -197 -26 -199 -29 -2 -2 -2 -7 1 -10 l6 -5
221 27 220 27 -5 9 -5 8 -22 -1 c-12 -1 -110 -13 -217 -26z"/>
<path d="M77825 63908 c-225 -23 -412 -42 -414 -44 -2 -2 -1 -7 2 -11 l7 -7
433 42 c237 24 435 42 440 42 4 0 7 5 7 10 l0 10 -32 -1 c-18 -1 -217 -19
-443 -41z"/>
<path d="M59590 63783 l-45 -85 -45 -21 c-25 -11 -81 -35 -125 -53 l-80 -34
20 0 20 0 108 47 107 47 45 84 c25 47 44 89 43 93 -2 5 -23 -31 -48 -78z"/>
<path d="M46830 63792 c0 -4 185 -74 411 -157 l411 -150 191 -107 c105 -59
193 -105 196 -103 7 7 10 5 -184 113 l-180 100 -395 145 c-217 80 -407 150
-422 156 l-28 11 0 -8z"/>
<path d="M2256 63692 l-4 -8 166 -146 c398 -348 491 -428 496 -428 21 0 -14
35 -176 177 -101 88 -247 217 -325 287 -78 69 -144 126 -147 126 -3 0 -7 -4
-10 -8z"/>
<path d="M77006 63643 c7 -21 27 -119 44 -218 39 -230 40 -235 49 -235 l8 0
-13 78 c-7 42 -22 138 -34 212 -12 74 -26 150 -33 168 l-11 32 -12 0 -12 0 14
-37z"/>
<path d="M45737 63433 l-118 -195 4 -11 3 -10 109 184 c59 101 115 194 123
207 l14 22 -8 0 c-5 -1 -62 -89 -127 -197z"/>
<path d="M39712 63547 c10 -7 44 -27 77 -46 l60 -34 79 -81 c43 -45 92 -99
110 -121 l32 -40 0 12 c0 14 -135 168 -193 219 -25 22 -73 55 -105 72 -60 32
-93 42 -60 19z"/>
<path d="M40397 63530 l12 -16 -7 -10 c-4 -5 -77 -70 -162 -143 -85 -74 -159
-138 -164 -143 l-10 -8 10 0 c10 0 328 272 340 291 l6 11 -18 16 -18 17 11
-15z"/>
<path d="M39730 63489 l55 -32 70 -61 c38 -33 81 -74 95 -91 14 -16 40 -46 57
-65 l32 -35 1 12 0 12 -112 114 -113 113 -57 32 c-32 18 -63 32 -70 32 l-13 0
55 -31z"/>
<path d="M89663 63303 l-213 -217 9 -9 8 -8 220 221 c121 121 217 222 215 225
-3 3 -10 5 -16 5 l-11 0 -212 -217z"/>
<path d="M16341 63324 l-31 -26 6 -9 6 -10 11 10 12 9 -3 -48 -4 -48 30 -33
30 -34 7 7 7 7 -26 31 -26 32 0 28 c0 15 7 44 15 63 8 20 15 39 15 42 0 12
-20 3 -49 -21z"/>
<path d="M41566 63181 l-6 -9 15 -6 15 -5 0 9 c0 5 -4 11 -9 15 l-10 5 -5 -9z"/>
<path d="M40797 63145 l-17 -12 151 -169 c83 -93 154 -170 158 -172 5 -1 13 3
19 10 l10 13 -152 171 -153 171 -16 -12z"/>
<path d="M23337 62743 c-98 -213 -176 -391 -175 -395 2 -5 84 167 182 382 98
215 177 392 174 395 -2 2 -84 -169 -181 -382z"/>
<path d="M2886 63071 l-6 -9 160 -141 c89 -77 165 -141 171 -141 l10 0 -5 9
c-4 5 -78 73 -165 150 l-160 141 -5 -9z"/>
<path d="M33863 63074 c6 -6 370 -54 411 -54 11 0 17 2 15 5 -4 3 -401 55
-426 55 l-6 0 6 -6z"/>
<path d="M34305 63063 l10 -10 180 -22 c99 -12 196 -25 215 -28 l35 -5 -10 9
-10 10 -185 22 c-102 12 -198 24 -215 27 l-30 6 10 -9z"/>
<path d="M38960 63042 l0 -9 73 -7 c39 -4 138 -15 220 -25 l147 -17 0 6 0 6
-202 23 c-112 13 -211 25 -220 28 l-18 4 0 -9z"/>
<path d="M90729 63021 l-23 -18 -5 -46 -6 -46 -308 -360 c-169 -198 -310 -368
-314 -377 l-6 -17 11 7 c6 4 152 171 323 371 l311 365 10 -6 10 -7 -7 42 -7
42 17 25 16 25 37 -1 c20 -1 42 -1 47 -1 l10 1 -15 10 c-8 5 -29 10 -46 10
l-32 0 -23 -19z"/>
<path d="M58658 62922 c-37 -20 -68 -41 -68 -45 l0 -8 77 42 77 42 340 -27
c188 -15 357 -30 376 -33 l35 -5 -10 9 -10 10 -335 27 c-184 14 -353 26 -375
26 l-40 -1 -67 -37z"/>
<path d="M16005 62909 l19 -12 251 -8 c137 -4 291 -10 340 -13 l90 -5 -35 10
-35 9 -295 10 c-162 5 -308 12 -325 15 l-30 6 20 -12z"/>
<path d="M58702 62905 c-19 -8 -125 -78 -237 -155 l-203 -140 -16 6 -16 6 5
-13 4 -14 -450 -359 c-247 -197 -448 -360 -445 -363 2 -3 139 103 303 234 164
131 362 290 441 352 l142 113 173 -73 c94 -39 187 -78 205 -86 l34 -14 -6 9
c-3 5 -91 45 -195 88 -105 43 -191 82 -191 87 0 17 44 3 217 -69 101 -42 186
-74 189 -71 3 2 -77 38 -178 80 -100 41 -183 79 -185 84 l-2 8 175 120 c97 66
199 133 229 148 l53 29 367 -31 c202 -18 370 -30 372 -27 2 2 -17 7 -44 10
-73 9 -643 56 -678 56 l-30 -1 -33 -14z"/>
<path d="M94177 62863 l-6 -9 215 -78 215 -78 6 6 c4 3 4 8 2 10 -2 2 -94 36
-204 76 -110 40 -205 75 -211 77 l-12 4 -5 -8z"/>
<path d="M59945 62820 l-4 -7 167 -12 c92 -6 194 -14 227 -18 l60 -6 -7 8 -7
8 -216 16 -216 17 -4 -6z"/>
<path d="M12356 62794 c-125 -7 -238 -15 -250 -17 l-21 -4 70 -1 c39 0 207 8
375 18 l305 17 -125 0 c-69 0 -228 -6 -354 -13z"/>
<path d="M16730 62711 c0 -5 21 -48 46 -96 l47 -87 74 -59 c41 -32 76 -59 79
-59 17 0 -6 26 -71 79 l-75 62 -42 84 c-38 76 -58 102 -58 76z"/>
<path d="M42932 62515 c-123 -106 -233 -203 -245 -216 l-22 -23 20 15 c22 15
428 361 459 390 11 10 18 20 15 22 -2 2 -105 -82 -227 -188z"/>
<path d="M94600 62617 c-24 -54 -100 -275 -100 -289 0 -4 4 -8 8 -8 l8 0 33
103 c18 56 46 132 62 169 l28 68 -8 5 -9 5 -22 -53z"/>
<path d="M42145 62449 c-229 -196 -245 -213 -245 -238 l1 -16 14 26 14 26 221
188 c121 103 220 191 220 196 0 5 -1 9 -2 8 -2 0 -102 -86 -223 -190z"/>
<path d="M91320 62435 c90 -90 166 -162 169 -159 7 6 -311 324 -324 324 -5 0
64 -74 155 -165z"/>
<path d="M89022 62421 c2 -5 81 -75 176 -156 l174 -146 11 4 11 3 -180 152
c-98 84 -183 152 -187 152 l-9 0 4 -9z"/>
<path d="M88992 62380 l4 -15 174 -147 173 -147 9 5 10 6 -9 7 c-41 36 -332
280 -347 291 l-19 15 5 -15z"/>
<path d="M16521 62171 l-82 -161 -22 5 c-161 37 -211 47 -261 54 l-59 8 -79
-18 c-44 -9 -82 -20 -85 -23 l-6 -6 12 0 c7 0 41 7 75 16 l61 16 60 -5 c50 -4
234 -38 284 -53 l14 -5 -11 -11 -11 -11 -128 26 -128 27 -50 0 c-57 0 -164
-24 -154 -34 2 -3 31 2 64 10 85 20 113 18 269 -17 l140 -30 9 16 9 16 104
-56 c58 -30 110 -55 117 -55 7 0 -39 28 -101 61 -62 33 -112 64 -110 67 2 4
38 76 81 160 43 85 76 156 74 159 -3 2 -42 -68 -86 -156z"/>
<path d="M57533 62082 c-123 -96 -221 -177 -218 -180 2 -2 97 69 211 159 114
90 215 169 223 176 9 6 14 14 11 16 -3 3 -105 -74 -227 -171z"/>
<path d="M98756 62160 c-20 -50 -20 -68 -1 -135 l16 -53 62 -113 62 -112 14
-5 14 -5 -66 124 -65 124 -17 59 -17 58 16 41 16 41 -9 9 -8 8 -17 -41z"/>
<path d="M40636 62068 c14 -46 32 -94 41 -106 l15 -24 5 6 6 6 -12 23 c-6 12
-22 55 -34 96 l-22 74 -12 4 -12 4 25 -83z"/>
<path d="M94394 61972 c3 -5 72 -51 153 -103 l147 -94 243 -91 c134 -51 243
-88 243 -85 0 4 -107 47 -237 96 l-238 88 -153 99 c-151 96 -168 106 -158 90z"/>
<path d="M77482 61563 c27 -114 51 -210 54 -212 2 -2 6 -2 9 1 l6 6 -37 153
c-20 85 -42 176 -48 203 l-12 50 -10 3 -11 4 49 -208z"/>
<path d="M61550 61695 c0 -10 89 -423 96 -448 3 -10 8 -17 10 -14 5 5 -93 457
-101 465 -3 3 -5 2 -5 -3z"/>
<path d="M59586 61398 c-9 -24 -29 -104 -45 -178 l-29 -135 -6 -85 -6 -85 10
15 10 15 0 53 0 53 21 102 c12 56 31 143 44 192 12 50 21 91 20 93 -2 2 -10
-16 -19 -40z"/>
<path d="M59637 61423 c-10 -17 -48 -164 -72 -282 l-25 -124 1 -51 2 -51 9 60
c18 120 59 321 78 384 17 58 21 87 7 64z"/>
<path d="M60252 61259 l-153 -151 6 -6 5 -6 43 39 c98 91 267 260 267 267 0
19 -24 -2 -168 -143z"/>
<path d="M54550 61373 c0 -10 96 -422 106 -456 3 -10 8 -17 10 -14 2 2 -20
109 -51 237 -49 209 -65 265 -65 233z"/>
<path d="M54243 61303 l7 -6 7 6 6 7 -13 0 -13 0 6 -7z"/>
<path d="M54113 61273 l7 -6 7 6 6 7 -13 0 -13 0 6 -7z"/>
<path d="M54023 61253 l7 -6 7 6 6 7 -13 0 -13 0 6 -7z"/>
<path d="M53983 61243 l7 -6 7 6 6 7 -13 0 -13 0 6 -7z"/>
<path d="M53938 61233 l13 -5 6 6 6 6 -19 -1 -19 -1 13 -5z"/>
<path d="M53893 61223 l7 -6 7 6 6 7 -13 0 -13 0 6 -7z"/>
<path d="M53853 61213 l7 -6 7 6 6 7 -13 0 -13 0 6 -7z"/>
<path d="M53808 61203 l13 -5 6 6 6 6 -19 -1 -19 -1 13 -5z"/>
<path d="M53763 61193 l7 -6 7 6 6 7 -13 0 -13 0 6 -7z"/>
<path d="M61240 61147 c0 -4 25 -123 55 -264 50 -233 66 -293 65 -252 -1 24
-108 510 -114 517 l-6 5 0 -6z"/>
<path d="M92790 60972 l0 -11 59 -35 c33 -19 116 -57 185 -84 l125 -49 6 5 5
6 -127 51 c-128 51 -188 81 -230 111 l-23 16 0 -10z"/>
<path d="M42852 60920 l-12 -20 10 0 c5 0 14 9 20 20 l11 20 -8 0 c-5 0 -14
-9 -21 -20z"/>
<path d="M5560 60918 l0 -13 95 -63 c79 -51 277 -162 291 -162 2 0 4 6 4 13
l0 13 -82 39 -81 40 -106 73 c-109 75 -121 81 -121 60z"/>
<path d="M52421 60906 l-54 -11 -4 -11 c-4 -13 34 -255 42 -262 8 -9 6 18 -14
133 l-19 110 9 12 10 11 49 7 50 7 6 9 5 9 -13 -1 c-7 -1 -37 -6 -67 -13z"/>
<path d="M77644 60903 c3 -10 26 -105 51 -210 l47 -193 9 0 c5 0 9 3 9 8 0 7
-73 309 -91 375 l-10 37 -10 0 -10 0 5 -17z"/>
<path d="M60720 60761 l-95 -27 -97 -55 c-54 -29 -98 -57 -98 -61 0 -4 46 19
103 51 l103 57 92 24 92 24 0 8 c0 4 -1 8 -2 7 -2 0 -46 -13 -98 -28z"/>
<path d="M83215 60549 c-82 -48 -154 -94 -158 -101 l-9 -13 97 -160 c53 -88
120 -205 147 -260 56 -110 267 -455 280 -455 4 0 -34 66 -86 148 -51 81 -133
224 -183 317 -49 94 -122 222 -162 285 l-71 115 2 13 3 14 145 85 c80 46 149
89 155 94 l9 9 -9 -1 c-6 0 -77 -41 -160 -90z"/>
<path d="M78317 60579 l-58 -8 -27 -19 -27 -19 -69 -11 -69 -11 -9 5 c-5 3
-32 7 -59 8 l-49 2 0 -11 0 -12 63 -6 62 -6 70 11 70 11 30 21 30 21 135 -2
135 -1 68 -15 68 -15 -4 11 -3 11 -35 8 c-29 6 -135 21 -234 32 -16 2 -56 0
-88 -5z"/>
<path d="M86132 60571 c5 -15 300 -336 312 -340 13 -5 -12 24 -182 212 -119
130 -138 149 -130 128z"/>
<path d="M55568 60529 c-21 -11 -38 -22 -38 -24 0 -6 82 26 95 37 l9 8 -14 0
c-8 -1 -32 -10 -52 -21z"/>
<path d="M57321 60448 c27 -50 212 -208 244 -208 17 0 -6 22 -82 79 l-83 62
-36 45 c-20 24 -41 44 -46 44 l-9 0 12 -22z"/>
<path d="M59895 60269 c-77 -66 -230 -188 -340 -271 -110 -83 -202 -153 -204
-155 -2 -2 -2 -5 0 -7 7 -7 386 281 530 403 163 138 164 139 158 145 -2 2 -67
-50 -144 -115z"/>
<path d="M44560 60345 c1 -13 667 -729 683 -734 7 -2 -4 14 -24 35 -283 306
-608 655 -630 679 l-29 30 0 -10z"/>
<path d="M57221 60325 c-1 -11 -12 -37 -25 -57 l-22 -37 -47 -36 c-26 -20 -47
-38 -47 -41 0 -6 14 2 64 38 l40 29 24 39 23 40 -4 23 -4 22 -2 -20z"/>
<path d="M56790 60225 c124 -36 229 -65 234 -65 l9 0 -5 6 c-9 9 -421 124
-443 123 -11 0 81 -29 205 -64z"/>
<path d="M63564 60260 c3 -14 24 -113 46 -220 23 -107 67 -314 100 -460 32
-146 138 -652 235 -1125 282 -1379 454 -2207 460 -2213 3 -3 7 -3 9 -1 2 2
-59 303 -136 669 -161 775 -304 1466 -424 2050 -46 228 -118 566 -159 750 -41
184 -84 385 -96 445 -12 61 -26 115 -31 120 l-9 10 5 -25z"/>
<path d="M62118 60222 c-120 -25 -216 -48 -213 -50 2 -3 104 15 225 39 l220
43 0 8 c0 10 23 14 -232 -40z"/>
<path d="M49524 60088 c-53 -79 -130 -188 -170 -242 -41 -55 -71 -102 -69
-105 3 -2 6 -2 8 0 68 90 211 291 265 372 40 59 74 107 76 107 2 0 20 -7 39
-15 20 -8 44 -15 54 -15 l17 0 -9 8 c-10 9 -85 32 -103 32 l-11 0 -97 -142z"/>
<path d="M61638 60166 c-109 -22 -198 -43 -198 -47 0 -5 420 75 445 85 35 15
-78 -3 -247 -38z"/>
<path d="M46095 59958 l-220 -222 160 151 c198 187 303 293 290 293 -6 0 -109
-100 -230 -222z"/>
<path d="M95980 60012 c-30 -48 -88 -130 -130 -182 -42 -52 -80 -101 -85 -109
l-8 -14 11 4 c17 6 150 177 210 269 30 47 59 90 64 97 l9 11 -8 5 -9 6 -54
-87z"/>
<path d="M61498 59715 c41 -206 73 -377 70 -380 -5 -5 -390 -86 -393 -83 -1 2
-37 171 -79 377 -69 337 -86 411 -86 372 0 -7 34 -177 75 -378 l76 -367 -5
-13 -5 -13 10 0 11 0 -6 -17 -7 -16 9 -6 8 -6 73 -358 73 -359 -8 -7 c-8 -8
-136 -36 -668 -147 l-209 -43 -9 5 -8 5 -20 -6 -20 -6 0 -11 0 -10 15 12 15
12 16 -6 16 -6 351 71 c194 39 390 80 437 91 47 10 91 20 98 20 6 1 12 4 12 8
0 4 93 31 207 60 113 30 201 56 195 58 -6 2 -99 -20 -207 -48 -108 -28 -198
-50 -199 -48 -7 9 -149 719 -144 723 2 3 297 66 654 140 357 75 655 138 663
141 65 22 -85 -7 -659 -127 -365 -76 -666 -139 -667 -139 -2 0 -3 7 -3 15 0 8
3 15 7 15 3 0 91 18 195 40 l189 40 9 -5 8 -5 4 8 3 8 228 48 227 47 21 -6 22
-7 -7 11 -7 11 8 0 c11 0 383 79 406 86 10 3 17 8 15 10 -2 2 -98 -16 -214
-41 l-209 -44 -6 7 c-3 4 -21 81 -39 172 l-32 165 -10 10 -9 10 5 -25 c21 -88
66 -313 66 -327 l0 -18 -235 -49 c-129 -27 -237 -47 -238 -45 -2 2 -37 172
-78 377 -40 204 -76 372 -80 372 -3 0 28 -169 69 -375z"/>
<path d="M55356 59783 c-33 -125 -62 -235 -64 -243 l-5 -15 10 10 10 10 57
222 c32 123 56 228 54 234 -2 6 -30 -92 -62 -218z"/>
<path d="M48861 59784 c-68 -90 -122 -166 -120 -169 4 -3 191 237 247 316 l13
19 -8 0 c-4 -1 -64 -75 -132 -166z"/>
<path d="M58850 59931 c0 -7 36 -94 80 -192 44 -98 80 -185 80 -193 0 -8 4
-16 8 -18 4 -1 37 -73 72 -158 35 -85 64 -156 65 -158 1 -1 220 42 486 97 266
55 475 100 464 100 -11 1 -223 -40 -470 -89 -248 -50 -456 -89 -463 -88 l-13
3 -65 155 -65 155 12 4 c18 6 330 244 325 248 -2 2 -77 -50 -165 -116 -89 -67
-165 -121 -170 -121 -4 0 -46 87 -94 193 -48 105 -87 186 -87 178z"/>
<path d="M43542 59888 l-24 -28 10 0 c13 0 45 37 41 48 l-4 9 -23 -29z"/>
<path d="M58810 59913 c0 -6 38 -93 84 -194 84 -186 226 -521 226 -536 l0 -8
-488 -94 c-406 -78 -547 -109 -512 -111 6 0 974 187 1006 195 l21 5 37 -128
c69 -235 78 -263 83 -259 2 3 -21 92 -52 198 l-57 193 -12 11 c-7 5 -37 69
-66 140 -51 124 -257 585 -266 594 -2 2 -4 0 -4 -6z"/>
<path d="M63621 59824 c-1 -6 69 -344 154 -750 85 -407 157 -757 161 -779 14
-93 233 -1157 325 -1584 l100 -465 -23 -22 -23 -21 -247 -49 c-137 -27 -248
-51 -248 -55 0 -3 117 17 260 46 l259 51 20 26 c11 14 18 27 16 29 -8 8 -232
1070 -330 1559 -119 599 -403 1966 -415 2000 -5 14 -9 20 -9 14z"/>
<path d="M40560 59815 c0 -3 74 -54 165 -115 91 -61 165 -106 165 -102 0 8
-313 222 -325 222 -3 0 -5 -2 -5 -5z"/>
<path d="M45921 59724 c8 -10 62 -75 119 -144 57 -69 107 -129 112 -134 l8
-10 0 10 c0 13 -229 288 -244 293 l-11 4 16 -19z"/>
<path d="M60837 59560 c-126 -26 -231 -51 -235 -55 l-7 -8 25 6 c14 3 120 24
235 47 116 23 214 46 220 51 l9 9 -9 -1 c-6 0 -113 -23 -238 -49z"/>
<path d="M45382 59400 c95 -99 177 -180 183 -180 5 0 -29 39 -75 88 -232 239
-265 272 -273 272 -5 0 69 -81 165 -180z"/>
<path d="M62940 59568 c0 -7 34 -178 77 -381 l77 -367 8 8 8 8 -77 372 -78
372 -7 0 c-5 0 -8 -6 -8 -12z"/>
<path d="M40897 59533 c-3 -5 -12 -30 -20 -58 -8 -27 -36 -106 -61 -174 l-46
-125 8 -8 8 -8 52 143 c28 78 58 163 66 190 l14 47 -8 0 c-5 0 -11 -3 -13 -7z"/>
<path d="M50381 59503 c-103 -129 -291 -380 -291 -387 l0 -10 9 10 c14 16 307
398 315 412 15 25 -4 11 -33 -25z"/>
<path d="M49635 59483 c6 -6 102 -81 215 -168 113 -87 211 -162 218 -168 7 -5
15 -8 17 -5 6 5 -427 341 -447 347 l-13 4 10 -10z"/>
<path d="M41020 59457 c8 -8 60 -43 114 -77 l99 -62 69 -29 c37 -15 68 -25 68
-21 0 4 -27 17 -59 30 l-59 23 -103 65 c-57 36 -112 70 -124 76 l-20 10 15
-15z"/>
<path d="M75900 59244 c8 -1 104 -5 213 -7 l197 -3 0 8 0 8 -212 -1 c-117 -1
-206 -3 -198 -5z"/>
<path d="M83830 59177 c0 -4 13 -31 29 -60 16 -28 63 -119 106 -200 42 -82 79
-146 81 -144 5 5 -191 385 -207 402 l-9 9 0 -7z"/>
<path d="M49142 58824 c-84 -113 -156 -213 -159 -222 -3 -9 67 79 156 197 138
184 172 233 159 231 -2 -1 -72 -93 -156 -206z"/>
<path d="M53301 59006 l-1 -18 -15 12 c-8 7 -15 11 -15 8 0 -2 40 -95 89 -207
l90 -203 14 -12 15 -11 88 -205 c96 -223 92 -216 99 -208 7 7 -194 466 -276
629 l-73 144 -7 45 -6 45 -2 -19z"/>
<path d="M39135 58891 c17 -5 57 -13 90 -19 l60 -12 300 -108 c165 -60 315
-116 333 -126 l34 -17 5 5 6 6 -67 30 c-97 43 -611 226 -674 239 -29 6 -67 11
-85 10 l-32 -1 30 -7z"/>
<path d="M63180 58858 c0 -18 82 -442 86 -447 2 -2 7 -2 10 2 l6 6 -43 225
-44 226 -7 0 c-5 0 -8 -6 -8 -12z"/>
<path d="M50713 58594 c5 -5 83 -30 174 -55 l165 -47 -9 9 c-5 5 -73 27 -152
49 -78 21 -152 42 -164 46 l-22 6 8 -8z"/>
<path d="M49130 58462 c0 -11 247 -176 278 -186 l22 -7 0 6 c0 3 -12 10 -26
15 -14 6 -81 49 -150 96 l-124 85 0 -9z"/>
<path d="M55481 58466 c8 -8 412 -116 416 -112 5 5 -62 25 -263 80 -121 33
-164 42 -153 32z"/>
<path d="M55475 58425 c38 -15 410 -114 413 -110 6 6 3 7 -206 65 -101 27
-191 50 -200 49 l-17 -1 10 -3z"/>
<path d="M63176 58413 c2 -10 65 -313 139 -673 73 -360 159 -767 190 -905 75
-331 153 -745 141 -745 -4 0 -565 -118 -595 -125 l-24 -6 10 -10 10 -10 300
63 300 63 16 27 16 28 16 0 15 0 0 15 0 16 -20 -11 -20 -11 -5 13 c-2 7 -20
101 -40 208 -19 107 -66 330 -102 495 -37 165 -126 588 -198 939 l-131 640
-11 3 -11 4 4 -18z"/>
<path d="M60658 58277 c-108 -23 -200 -46 -205 -51 l-8 -8 20 5 c11 3 103 22
205 43 102 20 192 40 200 45 l15 8 -15 0 c-8 -1 -104 -20 -212 -42z"/>
<path d="M91525 57899 c-71 -66 -148 -138 -170 -159 l-40 -40 12 0 13 0 170
156 c93 86 170 158 170 160 0 2 -6 4 -12 4 l-13 -1 -130 -120z"/>
<path d="M63363 57928 c3 -13 69 -322 145 -688 153 -730 222 -1073 222 -1108
l0 -23 10 6 10 6 26 -28 25 -27 -6 -26 -6 -25 -25 -22 c-14 -13 -32 -23 -40
-23 l-14 0 0 -11 0 -11 28 7 c36 9 59 31 72 70 l11 32 -11 29 -11 29 -23 20
-24 20 -40 210 c-35 182 -292 1404 -323 1538 l-11 47 -10 0 -10 0 5 -22z"/>
<path d="M62260 57809 c-305 -65 -606 -129 -669 -142 l-115 -24 10 -5 9 -5
667 141 668 141 0 8 c0 9 73 23 -570 -114z"/>
<path d="M50456 57892 c5 -5 117 -39 250 -75 l240 -67 40 2 39 1 -35 4 c-19 3
-146 36 -283 74 -259 72 -267 74 -251 61z"/>
<path d="M62125 57820 c-121 -26 -211 -49 -199 -49 26 -1 402 77 429 89 l20 9
-15 -1 c-8 0 -114 -22 -235 -48z"/>
<path d="M80813 57575 l-82 -23 -144 -69 -143 -70 -94 -63 -95 -63 -99 -91
-100 -91 -157 -175 -158 -175 9 -3 c5 -2 12 -3 15 -3 3 0 67 70 143 154 l137
153 115 105 115 105 81 56 c133 93 328 186 472 227 l93 27 0 9 c0 17 -23 14
-108 -10z"/>
<path d="M46591 57539 c14 -19 79 -106 144 -194 65 -88 122 -164 126 -169 l9
-10 0 10 c0 14 -278 388 -293 393 l-12 4 26 -34z"/>
<path d="M80825 57525 c-44 -12 -115 -39 -157 -58 l-78 -36 0 -11 0 -11 21 6
c11 4 53 21 92 39 40 18 86 36 102 40 17 4 54 14 83 22 l53 15 -6 9 c-8 13
-15 12 -110 -15z"/>
<path d="M38060 57524 c0 -7 12 -37 26 -69 l27 -57 -9 -52 c-4 -28 -8 -87 -9
-131 l-2 -80 -36 -125 c-34 -121 -199 -608 -212 -630 l-6 -10 9 0 9 0 91 264
c50 145 107 321 128 391 l36 127 -7 63 -6 62 15 37 15 37 -8 42 -8 42 -26 50
c-14 28 -26 45 -27 39z"/>
<path d="M80960 57514 c0 -6 4 -24 9 -40 6 -16 19 -62 31 -102 l21 -74 81 -84
c44 -46 86 -84 92 -84 l11 0 -76 78 c-93 95 -101 108 -129 207 -12 44 -26 87
-31 95 l-8 15 -1 -11z"/>
<path d="M36990 57445 l-13 -24 -268 -252 c-148 -139 -266 -255 -264 -258 3
-3 29 18 58 46 28 27 149 141 267 253 118 111 223 215 233 231 l19 29 -9 0
c-5 0 -16 -11 -23 -25z"/>
<path d="M61590 57219 c0 -8 19 -103 42 -211 l43 -198 7 0 7 0 -4 13 c-2 6
-23 100 -45 207 -39 183 -50 223 -50 189z"/>
<path d="M43525 57119 c-93 -12 -195 -54 -195 -79 l0 -10 38 19 c20 10 62 26
94 35 l56 16 151 7 151 6 0 9 0 8 -117 -1 c-65 -1 -145 -5 -178 -10z"/>
<path d="M37569 57008 l-62 -53 -53 -150 c-29 -82 -53 -159 -53 -170 l0 -20
55 160 55 160 67 62 c82 76 75 83 -9 11z"/>
<path d="M46550 56888 c0 -17 61 -442 64 -445 1 -1 8 2 15 6 l13 8 -21 144
c-24 159 -49 279 -62 294 l-9 9 0 -16z"/>
<path d="M79450 56580 l-45 -30 -91 -30 -91 -31 -87 -6 -86 -6 0 -8 0 -8 53 5
c28 2 71 7 95 9 l43 5 93 31 93 32 39 33 c49 41 43 43 -16 4z"/>
<path d="M36025 56465 c-77 -74 -135 -134 -130 -134 6 0 73 60 150 134 77 74
136 134 130 134 -5 0 -73 -60 -150 -134z"/>
<path d="M76350 56565 c0 -30 87 -341 105 -375 9 -16 20 -30 25 -30 l9 0 -23
58 c-13 31 -40 122 -61 202 -21 80 -42 149 -47 155 l-8 9 0 -19z"/>
<path d="M79482 56554 l-32 -26 -87 -35 -87 -35 -91 -10 c-49 -5 -100 -12
-112 -14 l-23 -4 0 -10 0 -10 26 10 25 10 49 0 c27 0 73 5 102 11 l53 11 90
43 90 43 19 21 c25 28 18 26 -22 -5z"/>
<path d="M47600 56502 c0 -5 33 -38 73 -73 l72 -65 60 -36 c33 -19 157 -86
275 -148 118 -62 248 -130 288 -152 l72 -39 0 8 c0 4 -120 71 -267 148 -147
77 -305 163 -350 190 l-82 50 -71 63 c-38 35 -70 59 -70 54z"/>
<path d="M82699 56505 c-5 -4 90 -424 98 -434 13 -17 4 31 -41 222 -29 120
-54 215 -57 212z"/>
<path d="M26485 56427 c37 -25 316 -167 328 -167 7 0 -15 14 -48 31 -33 17
-111 58 -172 90 -108 56 -150 74 -108 46z"/>
<path d="M54995 56430 l-5 -7 63 -7 c34 -4 92 -14 128 -22 l65 -15 210 -169
c115 -94 230 -189 257 -212 26 -23 49 -39 51 -37 9 9 -459 400 -513 429 -11 5
-72 18 -136 28 l-116 19 -4 -7z"/>
<path d="M26465 56395 c24 -19 320 -175 332 -175 9 0 -69 43 -242 134 -60 31
-101 50 -90 41z"/>
<path d="M61730 56364 c0 -5 16 -99 36 -209 l37 -200 9 -10 9 -10 -5 25 c-3
14 -22 110 -41 214 -30 162 -45 226 -45 190z"/>
<path d="M64430 56254 c0 -5 9 -15 20 -22 l20 -12 0 -34 0 -33 -18 -16 -19
-17 -29 0 -30 0 -12 12 -12 12 -6 -6 -6 -6 24 -16 25 -16 31 6 31 6 21 23 22
24 -8 37 -9 37 -23 15 -22 14 0 -8z"/>
<path d="M37236 56093 c-28 -200 -76 -573 -76 -597 l0 -29 6 5 c3 4 23 140 44
303 22 163 42 312 46 331 l6 34 -10 0 -9 0 -7 -47z"/>
<path d="M47 56077 l-47 -10 0 -14 0 -14 38 7 c20 4 48 10 61 14 l25 6 4 12 4
12 -19 -1 c-10 -1 -39 -6 -66 -12z"/>
<path d="M63355 55928 c-159 -33 -292 -62 -294 -64 -2 -2 -2 -7 2 -10 l6 -6
305 63 306 62 0 9 0 8 -17 -1 c-10 0 -148 -28 -308 -61z"/>
<path d="M50050 55827 c0 -5 17 -79 39 -165 21 -86 42 -170 45 -186 4 -15 9
-26 12 -23 7 6 -76 359 -88 372 l-8 9 0 -7z"/>
<path d="M62587 55770 c-75 -17 -95 -25 -86 -34 2 -3 48 5 102 17 l97 20 0 9
0 8 -17 -1 c-10 0 -53 -9 -96 -19z"/>
<path d="M46980 55720 l0 -13 7 6 6 7 -6 7 -7 6 0 -13z"/>
<path d="M51135 55499 c-110 -127 -212 -241 -228 -254 l-27 -24 -60 -12 -60
-12 0 -7 0 -8 43 9 c23 6 57 14 74 20 l33 10 206 237 c114 130 214 245 222
255 l15 17 -9 -1 c-5 0 -99 -104 -209 -230z"/>
<path d="M51154 55459 l-219 -250 -12 -27 -12 -27 0 -30 1 -30 13 48 c7 27 20
56 27 65 28 33 382 437 406 464 14 15 23 30 20 33 -2 3 -103 -108 -224 -246z"/>
<path d="M47000 55650 l0 -13 7 6 6 7 -6 7 -7 6 0 -13z"/>
<path d="M61503 55653 l7 -6 7 6 6 7 -13 0 -13 0 6 -7z"/>
<path d="M25950 55599 c0 -6 7 -23 16 -37 l16 -27 245 -168 c134 -93 246 -167
249 -165 2 3 -103 78 -233 168 -241 165 -272 191 -273 223 l0 17 -10 0 c-5 0
-10 -5 -10 -11z"/>
<path d="M47030 55550 l0 -13 7 6 6 7 -6 7 -7 6 0 -13z"/>
<path d="M47040 55520 l0 -13 7 6 6 7 -6 7 -7 6 0 -13z"/>
<path d="M32770 55515 c0 -5 35 -43 78 -85 44 -41 111 -111 150 -155 40 -44
72 -75 72 -70 0 13 -143 169 -233 254 -37 35 -67 60 -67 56z"/>
<path d="M55378 55464 l-6 -5 24 -42 24 -42 0 -22 0 -23 10 0 10 0 0 30 0 30
-25 40 c-26 42 -28 43 -37 34z"/>
<path d="M50370 55427 c0 -3 31 -35 70 -73 74 -71 145 -123 201 -147 l34 -14
20 7 19 7 -40 6 -40 7 -60 41 c-32 23 -81 63 -109 88 -66 61 -95 85 -95 78z"/>
<path d="M92580 55421 c0 -3 48 -19 107 -34 l107 -28 246 -99 c135 -54 280
-114 323 -134 42 -19 77 -32 77 -28 0 9 -91 48 -385 169 l-230 94 -122 33
c-68 18 -123 30 -123 27z"/>
<path d="M43780 55340 l-125 -6 155 -1 c85 0 189 3 230 7 l75 7 -105 -1 c-58
0 -161 -3 -230 -6z"/>
<path d="M53188 55241 l-7 -23 24 -124 c13 -68 26 -128 29 -133 l6 -9 -15 -12
c-8 -7 -29 -38 -47 -69 -17 -31 -78 -124 -135 -208 l-103 -152 9 -5 9 -6 129
198 c71 108 137 209 145 223 l16 25 -20 95 c-10 52 -23 123 -26 159 l-8 65 -6
-24z"/>
<path d="M53220 55221 l0 -38 25 -114 c14 -63 33 -131 42 -151 l16 -38 -133
-200 -133 -199 -28 20 -29 20 0 -10 c0 -6 3 -11 8 -11 4 0 15 -7 25 -14 l18
-14 -147 -223 c-81 -123 -191 -291 -245 -374 l-98 -150 -36 -77 -37 -78 -2
-24 c-1 -32 -8 -27 -36 33 -13 28 -27 51 -32 51 l-8 0 0 16 0 15 58 77 c77
100 482 725 476 732 -3 3 -9 -2 -14 -10 -36 -65 -420 -643 -472 -712 l-65 -88
-109 76 c-117 82 -222 172 -348 297 -43 43 -81 76 -83 73 -6 -6 131 -143 232
-232 44 -39 127 -104 185 -144 58 -40 107 -75 109 -77 3 -2 -1 -9 -7 -15 -7
-7 -12 -16 -12 -22 l0 -9 19 17 18 17 10 -13 c6 -7 22 -39 37 -72 l26 -58 14
11 14 12 6 34 7 35 46 87 46 87 364 549 c200 302 367 555 369 562 l5 13 -14
29 c-8 15 -26 81 -41 145 l-26 117 0 41 0 40 -10 0 -10 0 0 -39z"/>
<path d="M12590 55135 l-135 -65 -85 -11 c-46 -5 -87 -12 -89 -15 -8 -7 62 -4
127 6 l64 11 136 69 c76 38 133 69 127 69 -5 0 -71 -29 -145 -64z"/>
<path d="M33421 54956 c2 -3 60 -19 128 -36 69 -17 135 -37 148 -44 l24 -12
29 -45 c38 -55 40 -41 3 17 l-27 43 -21 10 c-21 11 -255 71 -276 71 -7 0 -10
-2 -8 -4z"/>
<path d="M52125 54742 l-140 -216 -137 -175 c-75 -97 -135 -178 -132 -180 2
-2 6 -2 7 0 2 2 62 78 133 169 l130 165 133 205 c74 113 141 215 149 228 l14
22 -8 0 c-5 -1 -72 -98 -149 -218z"/>
<path d="M48101 54789 l-325 -160 -10 5 -11 4 -39 101 -39 101 6 45 7 46 -10
-6 -10 -6 0 -50 0 -49 40 -97 41 -97 -5 -12 -5 -12 15 -6 14 -5 0 12 1 12 329
160 c182 88 330 163 330 168 0 9 43 29 -329 -154z"/>
<path d="M52250 54739 l-105 -163 -172 -229 c-158 -209 -183 -247 -168 -247 3
0 85 107 183 238 l177 237 98 152 99 153 -4 11 -4 12 -104 -164z"/>
<path d="M52374 54872 c6 -11 466 -331 569 -396 31 -20 57 -34 57 -30 0 10
-14 20 -260 186 -124 83 -252 170 -285 193 -33 23 -66 46 -74 50 l-14 8 7 -11z"/>
<path d="M50816 54840 c19 -38 76 -95 149 -152 44 -34 130 -103 190 -154 61
-50 173 -138 250 -196 77 -58 212 -164 300 -236 l160 -131 24 -6 24 -6 101
-92 c97 -89 263 -214 271 -205 3 2 -30 29 -72 59 -43 29 -125 97 -183 150
l-105 96 -27 9 -27 9 -173 141 c-95 77 -229 182 -298 234 -69 51 -174 134
-235 184 -60 50 -141 116 -180 145 -38 30 -94 79 -123 110 -30 31 -50 49 -46
41z"/>
<path d="M52676 54711 c26 -24 255 -171 266 -171 l13 0 -135 90 c-74 49 -139
90 -144 90 l-10 0 10 -9z"/>
<path d="M32032 54659 c2 -6 83 -63 181 -126 l177 -116 6 6 6 6 -181 120 c-99
67 -183 121 -187 121 -3 0 -4 -5 -2 -11z"/>
<path d="M48945 54545 c-126 -69 -234 -126 -240 -128 -5 -3 -8 -7 -5 -10 3 -3
118 55 255 129 138 74 243 134 235 133 -8 0 -118 -56 -245 -124z"/>
<path d="M18271 54624 c-90 -13 -166 -26 -169 -29 -3 -3 1 -5 9 -5 27 0 373
51 378 55 8 9 -53 3 -218 -21z"/>
<path d="M50354 54636 c-27 -19 -118 -126 -112 -131 3 -3 37 29 76 70 68 72
80 92 36 61z"/>
<path d="M54030 54631 c-70 -22 -100 -38 -210 -111 -49 -32 -93 -60 -98 -62
-4 -1 -55 -72 -111 -156 l-104 -153 7 -7 8 -7 8 15 c5 8 51 78 104 154 l95
140 78 54 c92 63 171 105 233 123 25 7 49 16 55 21 l9 8 -9 -1 c-6 0 -35 -8
-65 -18z"/>
<path d="M54370 54630 l25 -8 154 -1 c85 -1 152 1 150 3 -2 2 -83 6 -179 9
l-175 5 25 -8z"/>
<path d="M51180 54621 c0 -11 300 -245 306 -239 2 3 -66 59 -151 126 -85 67
-155 118 -155 113z"/>
<path d="M50190 54573 c0 -12 38 -48 45 -41 3 2 -6 15 -20 28 l-25 23 0 -10z"/>
<path d="M49955 54483 c-376 -188 -1035 -526 -1032 -530 4 -3 1191 591 1206
604 2 1 2 5 0 7 -2 2 -80 -34 -174 -81z"/>
<path d="M80975 54449 l-199 -49 -12 4 -12 5 -6 -15 -5 -14 9 0 9 0 10 -37
c56 -218 75 -285 78 -276 2 6 -14 79 -37 163 -22 84 -39 154 -38 155 2 1 93
24 203 51 110 26 202 49 204 51 18 13 -30 4 -204 -38z"/>
<path d="M53065 54452 c20 -21 427 -283 435 -280 7 3 -410 278 -434 287 l-11
4 10 -11z"/>
<path d="M53042 54421 c4 -12 469 -314 474 -308 3 2 -8 13 -23 23 -248 162
-454 293 -451 285z"/>
<path d="M88035 54386 l-20 -15 10 -2 c6 0 25 0 43 1 l33 2 25 -17 25 -16 10
6 10 7 -24 18 -23 18 -35 7 -34 6 -20 -15z"/>
<path d="M51440 54365 l-12 -15 10 0 c12 0 26 19 19 26 -2 2 -10 -2 -17 -11z"/>
<path d="M50316 54332 c173 -156 294 -250 373 -291 l23 -13 -6 10 c-4 6 -30
24 -59 41 l-52 30 -135 115 c-74 64 -139 116 -144 116 l-10 0 10 -8z"/>
<path d="M33392 54238 l4 -11 68 -19 c62 -17 89 -18 74 -2 -4 3 -38 14 -78 24
l-71 18 3 -10z"/>
<path d="M32790 54204 c1 -5 34 -35 75 -67 l75 -57 0 -30 0 -29 -42 -39 c-24
-22 -59 -53 -78 -70 -19 -17 -33 -33 -30 -35 3 -3 40 26 83 65 l77 70 0 38 0
38 -67 53 c-38 28 -74 56 -80 62 l-13 9 0 -8z"/>
<path d="M53540 54146 c0 -5 105 -78 188 -130 23 -14 42 -23 42 -19 0 5 -46
37 -102 73 -127 82 -128 82 -128 76z"/>
<path d="M48933 53870 c62 -126 115 -229 119 -230 3 0 -44 103 -105 230 -62
126 -115 230 -119 230 -4 0 44 -103 105 -230z"/>
<path d="M50270 53947 c-276 -124 -580 -276 -553 -277 7 0 90 40 185 89 95 49
283 137 418 197 135 59 249 111 255 116 l9 8 -9 0 c-6 -1 -143 -61 -305 -133z"/>
<path d="M13471 53873 c0 -10 348 -289 354 -285 13 7 -7 25 -166 153 -161 130
-190 150 -188 132z"/>
<path d="M49335 53759 l-220 -108 -12 4 -11 4 -6 -15 -5 -14 7 0 c4 0 30 -46
57 -102 40 -83 167 -319 182 -337 2 -2 5 -2 7 0 3 2 -23 52 -56 109 -60 104
-171 330 -165 336 2 2 102 51 222 109 121 59 222 108 224 111 20 19 -34 -4
-224 -97z"/>
<path d="M13437 53834 l-5 -6 170 -140 c94 -77 177 -142 184 -145 l14 -5 0 8
c-1 8 -315 269 -345 286 l-12 7 -6 -5z"/>
<path d="M19745 53833 c-11 -2 -78 -15 -150 -29 l-130 -25 -9 -9 c-12 -12 -9
-12 33 0 19 5 85 19 147 30 l112 20 130 6 129 7 129 -12 c71 -6 147 -14 169
-17 l40 -6 -10 10 -10 9 -135 12 -135 11 -145 -1 c-80 -1 -154 -3 -165 -6z"/>
<path d="M54070 53742 c0 -8 184 -135 285 -197 l30 -19 -15 16 c-8 8 -79 59
-157 112 l-143 97 0 -9z"/>
<path d="M61246 53723 c-7 -24 -86 -457 -86 -474 0 -7 2 -10 5 -7 7 7 96 490
91 495 -2 3 -7 -4 -10 -14z"/>
<path d="M54726 53712 c5 -4 26 -23 48 -42 l39 -35 -12 22 c-11 21 -62 63 -77
63 l-8 0 10 -8z"/>
<path d="M77472 53633 c-106 -42 -190 -78 -188 -80 5 -5 368 136 381 148 13
13 16 14 -193 -68z"/>
<path d="M30590 53668 c61 -37 441 -220 447 -215 3 3 -19 16 -49 28 -29 12
-136 64 -237 116 -182 92 -228 113 -161 71z"/>
<path d="M77487 53596 c-104 -41 -192 -78 -195 -82 l-7 -7 15 5 c169 61 407
160 380 158 -3 0 -90 -34 -193 -74z"/>
<path d="M30203 53485 c0 -60 3 -175 7 -255 l6 -145 1 200 1 200 -8 55 -7 55
0 -110z"/>
<path d="M9210 53554 c-105 -16 -270 -62 -270 -76 l0 -7 42 15 c74 26 158 45
240 54 l80 9 36 -14 c19 -9 37 -13 40 -10 3 2 -11 12 -31 20 l-36 15 -38 -1
c-21 -1 -49 -3 -63 -5z"/>
<path d="M51440 53440 l65 -60 63 -31 c35 -17 66 -29 68 -26 3 3 -20 16 -50
30 l-56 26 -70 60 c-91 78 -105 79 -20 1z"/>
<path d="M50970 53270 c-217 -109 -389 -199 -381 -199 8 -1 183 85 390 190
325 165 411 211 391 208 -3 0 -183 -90 -400 -199z"/>
<path d="M65022 53359 c-123 -26 -226 -50 -229 -53 l-6 -6 11 0 c19 0 445 90
451 95 13 13 -21 8 -227 -36z"/>
<path d="M77867 53293 l-7 -11 80 -329 79 -328 65 -192 c58 -175 155 -442 163
-452 2 -2 6 -1 9 2 l7 7 -33 87 c-17 49 -68 192 -111 318 l-80 230 -80 330
c-43 182 -81 334 -82 340 l-3 9 -7 -11z"/>
<path d="M52448 53266 l-17 -24 -108 -7 -108 -8 20 -7 20 -7 90 9 90 10 13 11
c7 6 18 19 23 29 l10 18 -8 0 c-4 0 -16 -11 -25 -24z"/>
<path d="M49800 53260 c0 -8 23 -51 51 -95 28 -44 63 -99 77 -122 15 -24 31
-43 35 -43 l8 0 -7 13 c-5 6 -33 50 -63 97 -30 47 -65 103 -78 125 l-23 40 0
-15z"/>
<path d="M50225 53165 c-115 -57 -205 -104 -199 -104 6 -1 107 46 225 103 118
58 207 105 199 104 -8 0 -109 -46 -225 -103z"/>
<path d="M64298 53213 l13 -5 6 6 6 6 -19 -1 -19 -1 13 -5z"/>
<path d="M66668 53117 c-240 -51 -440 -96 -445 -100 l-8 -9 25 6 c14 4 220 47
458 95 239 49 436 92 439 95 l6 6 -19 -1 c-10 -1 -216 -42 -456 -92z"/>
<path d="M52616 53162 c3 -13 50 -114 105 -225 54 -111 96 -192 93 -179 -3 12
-50 113 -105 225 -54 111 -96 192 -93 179z"/>
<path d="M66510 53044 c-349 -74 -659 -138 -688 -145 -30 -6 -51 -13 -48 -16
4 -5 1366 276 1375 283 2 2 2 5 0 7 -2 2 -290 -56 -639 -129z"/>
<path d="M34808 53160 c-4 -8 -9 -27 -12 -42 l-6 -28 10 0 c15 0 22 23 18 57
l-4 28 -6 -15z"/>
<path d="M12845 52942 c-82 -119 -181 -261 -218 -314 l-68 -98 13 0 13 0 147
213 c81 116 179 258 218 315 l71 102 -13 0 -13 -1 -150 -217z"/>
<path d="M14560 53003 c1 -15 90 -74 239 -157 l151 -85 5 9 5 8 -148 83 c-81
45 -167 97 -191 116 -43 32 -61 40 -61 26z"/>
<path d="M51020 52981 c-8 -4 -82 -43 -163 -85 -82 -43 -146 -80 -144 -82 4
-4 324 159 336 171 7 8 -13 5 -29 -4z"/>
<path d="M51456 52889 l-6 -31 -90 -41 c-49 -23 -90 -45 -90 -50 l0 -7 92 46
93 47 12 16 c7 9 13 24 13 34 l0 17 -9 0 -8 0 -7 -31z"/>
<path d="M12622 52717 c-56 -81 -102 -149 -102 -152 0 -22 31 15 114 135 l98
140 -4 12 -4 11 -102 -146z"/>
<path d="M77905 52846 l-10 -14 -370 -142 c-203 -78 -374 -146 -379 -151 l-10
-9 13 0 c10 0 238 86 757 287 l10 4 18 -83 c29 -138 239 -753 267 -783 l9 -9
0 16 c0 9 -16 58 -36 110 -20 51 -70 192 -111 313 l-75 220 -27 112 -28 112
11 5 11 4 -15 11 c-20 14 -23 14 -35 -3z"/>
<path d="M50680 52830 c-8 -5 -12 -11 -9 -14 2 -3 11 -1 19 4 8 5 12 11 9 14
-2 3 -11 1 -19 -4z"/>
<path d="M65070 52786 c-113 -23 -212 -45 -220 -49 l-15 -7 25 4 c140 23 427
81 435 88 l9 8 -14 -1 c-8 -1 -107 -20 -220 -43z"/>
<path d="M49462 52808 c-7 -7 -12 -19 -12 -27 l0 -16 18 22 17 21 25 5 25 4
-30 2 -31 1 -12 -12z"/>
<path d="M84211 52798 c-1 -9 19 -94 45 -190 62 -239 74 -281 80 -276 3 4
-108 441 -120 473 l-4 10 -1 -17z"/>
<path d="M64850 52706 c-228 -44 -408 -82 -400 -84 17 -3 851 156 859 163 11
11 -68 -2 -459 -79z"/>
<path d="M52726 52725 c4 -8 8 -15 10 -15 2 0 4 7 4 15 l0 15 -10 0 -9 0 5
-15z"/>
<path d="M64348 52643 c6 -2 18 -2 25 0 l12 5 -25 0 -25 0 13 -5z"/>
<path d="M85592 52468 c-95 -72 -171 -132 -169 -135 3 -2 78 51 168 118 90 67
170 124 177 126 13 5 17 24 5 22 -5 0 -86 -59 -181 -131z"/>
<path d="M84117 52257 c-109 -27 -196 -52 -193 -55 5 -4 386 87 395 94 15 13
-27 5 -202 -39z"/>
<path d="M84795 52267 l-80 -20 12 -4 c6 -2 47 5 91 17 44 11 82 20 85 20 3 0
17 -51 32 -112 32 -135 34 -142 40 -136 3 2 -9 61 -26 131 l-31 127 -21 -1
c-12 -1 -58 -10 -102 -22z"/>
<path d="M12930 52242 l0 -10 183 -130 c100 -70 187 -132 194 -135 l12 -7 5 9
6 9 -184 131 c-102 72 -192 134 -200 137 l-16 6 0 -10z"/>
<path d="M12906 52201 l-6 -9 371 -262 371 -262 9 9 9 9 -362 255 c-200 141
-368 259 -375 262 l-12 7 -5 -9z"/>
<path d="M64445 52163 c3 -16 14 -109 25 -208 l21 -180 11 -10 10 -10 -6 45
c-3 25 -13 113 -21 195 -9 83 -18 160 -21 173 l-4 22 -10 0 -9 0 4 -27z"/>
<path d="M44170 52073 l0 -8 203 -54 c111 -29 208 -56 216 -58 l14 -5 -5 12
-4 13 -200 53 c-205 55 -224 59 -224 47z"/>
<path d="M53293 51780 c45 -93 85 -170 89 -170 3 0 -30 77 -75 170 -45 94 -85
170 -89 170 -3 0 30 -76 75 -170z"/>
<path d="M89103 51939 c3 -8 16 -51 30 -95 22 -69 59 -173 96 -268 7 -16 14
-27 16 -24 3 2 -9 39 -25 81 -16 43 -46 128 -66 190 -20 61 -41 117 -47 122
l-10 10 6 -16z"/>
<path d="M53140 51925 c0 -12 176 -355 182 -355 4 0 -27 71 -68 158 -42 86
-81 167 -87 180 -9 19 -27 31 -27 17z"/>
<path d="M75325 51819 c-93 -38 -179 -73 -189 -77 l-20 -8 10 -6 9 -6 192 77
c105 42 195 80 199 84 l7 7 -19 -1 c-10 0 -95 -32 -189 -70z"/>
<path d="M52085 51689 c-115 -60 -203 -109 -195 -107 20 4 420 207 420 213 0
11 -24 0 -225 -106z"/>
<path d="M18510 51788 c0 -27 -56 -267 -84 -358 -19 -63 -33 -116 -31 -119 3
-2 10 1 18 7 l13 11 55 -14 54 -15 163 0 162 0 0 10 0 10 -147 0 -146 0 -64
11 -65 11 -5 13 -5 14 27 88 c15 48 38 140 50 203 l23 115 -9 10 c-5 5 -9 6
-9 3z"/>
<path d="M36378 51521 l-196 -16 -9 -9 -8 -9 40 6 c22 3 119 11 215 18 l175
12 15 8 15 8 -25 -1 c-14 0 -114 -8 -222 -17z"/>
<path d="M27697 51363 c-7 -22 -18 -382 -12 -368 6 13 25 378 21 383 -3 2 -6
-5 -9 -15z"/>
<path d="M45854 51364 c3 -9 6 -17 6 -20 0 -2 7 -1 15 2 l16 6 -12 14 c-6 8
-16 14 -21 14 l-10 0 6 -16z"/>
<path d="M61395 51322 l10 -10 185 -42 c102 -23 189 -46 194 -50 l9 -9 -18
-98 c-10 -54 -19 -111 -21 -128 l-4 -30 20 70 20 70 3 70 2 69 -175 41 c-96
23 -188 45 -205 49 l-30 7 10 -9z"/>
<path d="M84140 51174 c-159 -122 -195 -154 -175 -154 4 0 81 57 173 128 91
70 173 132 181 138 l14 11 -9 6 -9 5 -175 -134z"/>
<path d="M6053 51265 c4 -11 27 -94 52 -185 57 -204 66 -232 71 -227 7 6 -107
410 -119 422 l-9 10 5 -20z"/>
<path d="M21610 51200 l0 -7 123 -6 122 -6 138 6 137 6 0 7 0 8 -260 -1 -260
0 0 -7z"/>
<path d="M26775 50749 c-4 -99 -5 -183 -2 -185 3 -3 8 57 11 133 3 76 8 159
11 186 l4 47 -8 0 -8 0 -8 -181z"/>
<path d="M13610 50841 c0 -5 39 -33 88 -64 l87 -56 85 -75 c74 -67 100 -85
100 -72 0 11 -189 163 -267 215 l-93 61 0 -9z"/>
<path d="M5710 50822 l0 -8 168 -22 c92 -12 246 -29 342 -38 l175 -16 97 -24
c53 -13 107 -24 119 -24 l22 0 -7 7 c-3 4 -58 19 -121 35 l-115 28 -213 20
c-116 11 -261 27 -320 35 -59 8 -117 15 -127 15 l-20 0 0 -8z"/>
<path d="M33500 50822 c0 -22 131 -837 136 -841 9 -9 2 35 -61 434 -55 350
-75 457 -75 407z"/>
<path d="M7178 50786 c-72 -11 -98 -20 -87 -30 2 -2 47 3 99 11 l95 15 138 -4
137 -4 0 7 c0 12 -73 19 -190 18 l-115 -1 -77 -12z"/>
<path d="M32445 50755 c3 -17 19 -117 35 -224 17 -107 33 -197 35 -200 8 -7 7
5 -26 224 l-32 210 -9 10 -8 9 5 -29z"/>
<path d="M45247 50579 l-37 -9 -414 -215 c-227 -119 -422 -223 -432 -231 l-19
-15 20 9 c11 5 207 107 436 226 l415 216 80 11 79 11 173 -14 172 -14 0 7 0 6
-152 11 c-174 14 -266 14 -321 1z"/>
<path d="M31478 50513 l-118 -4 0 -10 0 -11 23 5 c12 3 89 7 172 9 l150 3 3
-15 c1 -8 6 -49 12 -90 l9 -75 -3 85 -2 86 -8 12 -7 12 -57 -2 c-31 -1 -110
-4 -174 -5z"/>
<path d="M31493 50471 l-121 -6 -7 -7 -7 -6 155 5 156 6 5 -34 c3 -19 7 -50
10 -69 l3 -35 -1 75 -1 75 -35 1 c-19 0 -90 -2 -157 -5z"/>
<path d="M59321 50321 l-13 -8 10 -7 11 -6 40 6 41 7 40 -27 39 -26 7 11 7 11
-29 24 -29 23 -55 0 -55 1 -14 -9z"/>
<path d="M34260 50275 c0 -4 6 -18 14 -33 8 -15 20 -56 26 -92 l13 -65 33 -45
c18 -25 42 -54 53 -64 l21 -19 6 6 7 6 -36 40 c-19 22 -42 50 -50 63 l-15 23
-12 60 c-13 63 -39 125 -52 125 -4 0 -8 -2 -8 -5z"/>
<path d="M61565 50241 l-4 -7 215 -48 215 -48 6 6 5 5 -25 6 c-13 4 -111 26
-216 49 l-192 43 -4 -6z"/>
<path d="M15722 50158 c-21 -29 -60 -84 -87 -123 -27 -38 -71 -96 -97 -128
-46 -56 -57 -78 -40 -76 12 1 220 278 276 367 l7 12 -10 0 c-6 0 -28 -24 -49
-52z"/>
<path d="M34190 49933 l0 -10 107 -6 c98 -6 124 -5 112 8 -3 2 -53 7 -112 11
l-107 7 0 -10z"/>
<path d="M49708 49824 c-29 -15 -35 -28 -19 -39 l10 -5 35 17 36 17 -3 10 c-6
17 -29 17 -59 0z"/>
<path d="M42701 49811 l-1 -24 121 -234 c67 -129 123 -232 126 -230 2 3 -49
109 -116 237 -66 127 -122 241 -124 253 l-4 22 -2 -24z"/>
<path d="M22405 49790 l30 -8 165 -5 165 -5 -20 7 -20 8 -175 5 -175 6 30 -8z"/>
<path d="M63750 49788 c0 -4 3 -8 8 -8 4 0 99 -20 212 -44 179 -38 226 -46
209 -33 -2 2 -100 24 -216 48 l-213 46 0 -9z"/>
<path d="M39660 49663 l0 -9 123 -29 c67 -15 166 -36 220 -45 l97 -17 0 7 0 7
-77 12 c-68 11 -296 62 -345 77 l-18 5 0 -8z"/>
<path d="M71544 49529 l-4 -6 163 -7 c89 -4 187 -9 217 -13 l55 -6 -8 9 -9 9
-205 10 -205 10 -4 -6z"/>
<path d="M35973 49510 c4 -14 7 -33 7 -42 l0 -18 9 0 9 0 -8 36 c-5 19 -12 39
-16 42 l-7 7 6 -25z"/>
<path d="M70600 49462 l-75 -37 -125 -6 -125 -5 121 -2 120 -2 90 44 c49 25
85 45 79 44 -5 0 -44 -16 -85 -36z"/>
<path d="M50035 49470 l-7 -11 14 -17 c7 -9 54 -64 103 -122 50 -58 108 -131
129 -162 l39 -57 18 10 18 9 -54 76 c-64 90 -232 284 -245 284 -5 0 -12 -5
-15 -10z"/>
<path d="M42910 49295 c0 -3 45 -94 99 -203 l99 -198 16 -54 c19 -65 78 -199
88 -200 l7 0 -16 38 c-8 20 -23 53 -33 72 -10 19 -21 51 -25 70 l-8 35 -108
223 c-93 193 -119 240 -119 217z"/>
<path d="M63886 49165 l-5 -13 87 -21 c48 -12 134 -27 192 -35 l105 -14 53 5
52 6 0 8 0 9 -70 0 -70 0 -98 15 c-53 8 -129 23 -169 34 l-72 19 -5 -13z"/>
<path d="M64320 49051 c-13 -26 -13 -53 3 -74 l12 -17 0 55 c0 30 -1 55 -2 55
-1 0 -7 -9 -13 -19z"/>
<path d="M77193 49006 c-111 -22 -205 -44 -209 -48 l-7 -8 9 0 c5 -1 109 19
231 42 l223 43 0 8 0 7 -22 -1 c-13 -1 -114 -20 -225 -43z"/>
<path d="M56267 48823 c64 -120 123 -225 131 -233 l15 -15 -45 85 c-150 284
-203 380 -209 380 -4 0 45 -98 108 -217z"/>
<path d="M75949 48906 l30 -44 31 -10 30 -11 0 9 c0 5 -9 12 -20 15 l-20 6
-32 40 c-17 21 -35 39 -40 39 l-9 0 30 -44z"/>
<path d="M80902 48923 c-21 -20 -82 -117 -82 -133 0 -24 21 -6 50 43 18 28 42
60 53 69 l22 18 43 0 42 0 0 10 0 10 -54 0 -54 0 -20 -17z"/>
<path d="M91439 48708 c-68 -78 -153 -178 -188 -223 -35 -44 -124 -141 -198
-216 -73 -75 -133 -141 -133 -145 0 -5 54 45 121 111 l121 120 81 100 c73 91
242 288 305 357 14 15 23 30 20 33 -2 3 -61 -59 -129 -137z"/>
<path d="M36015 48720 c-38 -5 -266 -18 -505 -30 -239 -13 -437 -24 -439 -26
-2 -2 -2 -5 0 -7 2 -2 231 9 509 24 l505 28 25 10 25 10 -25 -1 c-14 0 -56 -4
-95 -8z"/>
<path d="M30555 48580 c3 -63 8 -186 11 -272 l7 -158 9 0 9 0 -5 18 c-2 9 -8
108 -11 220 -4 112 -11 227 -16 255 l-8 52 4 -115z"/>
<path d="M35833 48671 l-221 -16 -9 -8 -8 -9 70 7 c39 3 160 12 269 20 109 8
201 17 204 20 7 7 -51 5 -305 -14z"/>
<path d="M43242 48672 l-13 -9 30 0 30 0 -5 9 c-7 10 -25 10 -42 0z"/>
<path d="M40486 48651 l-6 -9 25 -16 25 -16 0 -15 0 -15 15 0 14 0 -6 18 c-9
24 -23 41 -44 53 l-18 9 -5 -9z"/>
<path d="M34470 48630 l0 -10 13 0 c6 0 19 5 27 10 l15 10 -27 0 -28 0 0 -10z"/>
<path d="M33885 48604 c-214 -12 -406 -24 -425 -25 l-35 -2 26 -4 c32 -5 961
45 968 52 8 8 -131 3 -534 -21z"/>
<path d="M34485 48590 l-6 -10 20 0 20 0 6 10 6 10 -20 0 -20 0 -6 -10z"/>
<path d="M33905 48565 c-225 -13 -426 -25 -445 -27 l-35 -5 45 -1 c70 -2 951
46 958 52 l5 6 -59 -1 c-32 -1 -243 -12 -469 -24z"/>
<path d="M32853 48551 l-91 -6 -7 -7 -7 -7 19 -123 c11 -68 19 -124 18 -125
-1 -2 -106 -9 -234 -17 -128 -8 -236 -17 -239 -20 l-5 -6 26 0 c14 0 92 4 174
10 81 5 182 11 223 14 l75 4 -3 14 c-2 7 -12 62 -23 123 l-19 109 11 11 10 10
94 3 95 4 -6 9 c-3 5 -8 8 -12 7 -4 -1 -48 -4 -99 -7z"/>
<path d="M32870 48511 l-75 -6 1 -15 c0 -8 27 -183 60 -387 l59 -373 7 0 6 0
-4 18 c-8 36 -114 719 -114 735 l0 17 80 0 80 0 0 10 0 10 -12 -2 c-7 -1 -47
-4 -88 -7z"/>
<path d="M72786 48223 c-14 -48 -86 -399 -85 -417 l1 -21 4 11 c8 20 93 439
89 442 -2 2 -6 -5 -9 -15z"/>
<path d="M72826 48219 c-2 -8 -23 -103 -46 -211 l-42 -197 4 -18 3 -18 47 225
c25 124 44 227 42 229 -2 2 -6 -2 -8 -10z"/>
<path d="M31824 48183 c2 -10 7 -83 11 -163 6 -157 15 -253 22 -247 2 3 -1
100 -8 216 l-12 211 -9 0 -9 0 5 -17z"/>
<path d="M30772 48179 c-85 -4 -156 -10 -160 -13 l-6 -7 179 7 180 7 20 8 20
8 -40 -1 c-22 -1 -109 -4 -193 -9z"/>
<path d="M20115 48141 l10 -10 142 -35 c78 -20 152 -36 165 -35 l23 1 -145 37
c-80 21 -158 41 -175 45 l-30 7 10 -10z"/>
<path d="M30738 48141 l-126 -6 -8 -7 -7 -8 149 6 c82 4 174 10 204 14 l55 8
-70 -1 c-38 0 -127 -3 -197 -6z"/>
<path d="M33960 48119 c0 -8 20 -158 45 -334 l45 -320 21 -90 c25 -107 28
-119 33 -114 3 2 -4 40 -15 84 l-20 80 -50 350 c-44 307 -59 395 -59 344z"/>
<path d="M29426 47890 l7 -205 8 -20 9 -20 -6 205 -7 205 -8 20 -9 20 6 -205z"/>
<path d="M29385 47975 c3 -49 8 -143 11 -207 l6 -118 7 0 6 0 -8 167 c-4 93
-12 186 -17 208 l-9 40 4 -90z"/>
<path d="M83986 47998 c19 -32 217 -299 225 -304 l9 -5 0 6 c0 12 -225 314
-233 315 l-8 0 7 -12z"/>
<path d="M51121 47908 c0 -7 14 -40 30 -73 16 -33 28 -53 25 -45 -2 8 -9 41
-16 73 l-13 57 -14 0 -13 0 1 -12z"/>
<path d="M75980 47870 l0 -40 13 0 13 0 -4 40 -4 40 -9 0 -9 0 0 -40z"/>
<path d="M43610 47811 c-5 -11 -10 -22 -10 -26 l0 -6 10 6 c5 3 15 15 20 26
l11 19 -10 0 c-6 0 -15 -9 -21 -19z"/>
<path d="M46690 47704 c-63 -29 -146 -68 -183 -85 -38 -17 -66 -33 -64 -35 5
-5 357 153 372 167 l9 9 -9 -1 c-6 0 -62 -25 -125 -55z"/>
<path d="M90482 47594 c-79 -91 -142 -167 -140 -169 2 -3 58 57 124 133 65 75
132 151 148 169 15 18 24 33 20 32 -5 0 -74 -75 -152 -165z"/>
<path d="M51190 47740 l0 -13 7 6 6 7 -6 7 -7 6 0 -13z"/>
<path d="M51200 47710 l0 -13 7 6 6 7 -6 7 -7 6 0 -13z"/>
<path d="M51210 47680 l0 -13 7 6 6 7 -6 7 -7 6 0 -13z"/>
<path d="M51221 47647 c-1 -19 39 -120 45 -114 2 1 -8 32 -21 67 l-24 65 0
-18z"/>
<path d="M22343 47558 c-13 -6 -23 -15 -23 -20 l0 -9 30 16 c45 23 38 35 -7
13z"/>
<path d="M37832 47409 l-173 -7 -7 -7 -7 -6 185 7 c102 3 232 10 290 14 l105
7 -110 0 c-60 0 -188 -3 -283 -8z"/>
<path d="M65930 47376 c0 -44 58 -437 66 -445 2 -2 7 -2 10 1 l6 6 -31 197
c-17 108 -31 217 -31 241 l0 44 -10 0 -10 0 0 -44z"/>
<path d="M47349 47358 l-5 -37 34 -108 c101 -325 134 -424 138 -420 2 2 -30
114 -72 248 l-77 244 -6 55 -7 55 -5 -37z"/>
<path d="M18162 47151 c-118 -47 -209 -87 -204 -89 9 -3 411 154 421 164 17
16 -31 0 -217 -75z"/>
<path d="M20667 47133 l-17 -48 -28 -162 -28 -163 6 0 c4 0 19 73 34 162 l28
162 19 48 19 48 -8 0 c-5 0 -16 -21 -25 -47z"/>
<path d="M20701 47103 l-21 -68 -29 -172 -30 -171 -21 -50 -21 -49 -47 -46
-47 -46 -165 -72 c-91 -39 -195 -82 -231 -94 -89 -31 -219 -88 -219 -97 l0 -8
58 26 c31 15 104 44 162 64 58 21 175 68 260 105 l155 67 41 40 42 40 25 66
26 67 32 185 31 185 18 48 18 47 -8 0 -7 0 -22 -67z"/>
<path d="M46359 47043 l12 -23 27 1 27 1 -20 5 c-11 3 -29 12 -39 22 l-19 16
12 -22z"/>
<path d="M35886 46831 c2 -68 4 -141 4 -163 l0 -38 8 0 7 0 -7 143 c-4 78 -10
151 -12 162 -3 11 -3 -36 0 -104z"/>
<path d="M35925 46831 c3 -68 5 -141 5 -163 l0 -38 8 0 7 0 -3 87 c-2 49 -8
122 -12 163 l-9 75 4 -124z"/>
<path d="M29446 46650 c4 -69 10 -165 14 -215 l8 -90 -5 200 -5 200 -9 15 -8
15 5 -125z"/>
<path d="M89640 46728 c-47 -5 -88 -12 -92 -16 l-6 -7 35 -88 c20 -48 37 -86
40 -84 2 3 -10 39 -27 81 -16 42 -30 80 -30 85 l0 9 84 7 83 7 14 9 14 9 -15
-1 c-8 -1 -53 -6 -100 -11z"/>
<path d="M57460 46621 c0 -5 15 -15 33 -22 l32 -13 28 -29 27 -29 0 26 0 26
-40 25 -40 25 -20 0 -20 0 0 -9z"/>
<path d="M34535 46539 c-71 -3 -160 -7 -197 -8 l-67 -1 6 -15 5 -16 42 5 c22
3 121 8 218 12 l177 6 -6 14 -5 14 -22 -2 c-11 -1 -79 -5 -151 -9z"/>
<path d="M35035 46479 c-71 -3 -161 -7 -198 -8 l-69 -1 5 -12 4 -13 49 2 c27
1 124 5 217 8 l167 7 0 14 0 14 -22 -2 c-13 -1 -81 -5 -153 -9z"/>
<path d="M20120 46391 c-146 -54 -260 -105 -260 -116 0 -3 26 7 58 21 31 15
129 53 217 86 88 33 162 62 164 64 14 13 -43 -4 -179 -55z"/>
<path d="M80765 46369 l-5 -14 63 -238 62 -238 10 1 10 1 -3 22 c-6 36 -121
469 -126 475 -3 3 -8 -1 -11 -9z"/>
<path d="M34401 46312 c-1 -69 28 -464 35 -471 7 -7 3 63 -16 304 l-18 230 -1
-63z"/>
<path d="M50850 46364 c0 -12 152 -285 157 -281 4 5 -146 287 -153 287 -2 0
-4 -3 -4 -6z"/>
<path d="M46186 46343 c-11 -34 -75 -348 -85 -418 -6 -38 -14 -81 -17 -95 l-5
-25 9 10 9 10 13 80 c6 44 29 163 51 264 21 102 37 187 35 189 -2 2 -7 -5 -10
-15z"/>
<path d="M80823 46339 c3 -13 25 -117 48 -231 l43 -208 13 0 13 0 -7 32 c-4
18 -25 120 -48 227 l-41 195 -13 4 -14 5 6 -24z"/>
<path d="M30865 46289 c-71 -3 -136 -7 -142 -8 l-13 -1 0 -16 0 -16 53 5 c28
4 132 9 230 13 l177 6 0 14 0 14 -87 -2 c-49 -1 -146 -5 -218 -9z"/>
<path d="M81590 46118 c-191 -152 -206 -165 -198 -173 4 -4 330 247 376 290
l14 13 -9 5 -8 5 -175 -140z"/>
<path d="M28423 46176 l-162 -12 -7 -7 -7 -7 6 -6 6 -6 168 11 c92 6 201 14
241 17 l72 6 0 9 0 9 -77 -1 c-43 -1 -151 -7 -240 -13z"/>
<path d="M51780 46116 c0 -13 151 -318 155 -314 3 3 -29 75 -70 161 -66 136
-85 171 -85 153z"/>
<path d="M93060 46071 c0 -4 16 -15 35 -24 l36 -17 32 0 32 0 53 -25 54 -25
54 0 54 0 74 37 75 37 -4 6 -4 7 -77 -39 -76 -38 -42 0 -41 0 -47 25 -47 25
-38 0 -38 0 -42 20 -43 19 0 -8z"/>
<path d="M18941 46054 c-1 -10 145 -322 155 -333 2 -2 6 -2 9 1 3 3 -33 81
-79 174 -47 93 -85 164 -85 158z"/>
<path d="M81340 45950 c0 -5 5 -10 10 -10 6 0 10 5 10 10 0 6 -4 10 -10 10 -5
0 -10 -4 -10 -10z"/>
<path d="M81372 45893 c-6 -10 -15 -38 -21 -63 -7 -25 -21 -69 -33 -98 l-21
-53 -29 -15 -30 -15 6 -6 5 -6 31 13 31 13 15 36 c18 42 64 204 59 209 -2 2
-8 -5 -13 -15z"/>
<path d="M81322 45858 c-5 -7 -17 -39 -26 -72 l-17 -58 -25 -24 c-29 -30 -30
-34 -4 -27 l21 6 16 30 c15 30 55 157 49 157 -2 0 -8 -6 -14 -12z"/>
<path d="M46125 45820 c11 -5 87 -21 170 -35 l150 -27 72 7 c65 6 144 22 118
24 -5 0 -51 -4 -101 -9 l-92 -10 -163 30 c-175 32 -185 33 -154 20z"/>
<path d="M46102 45784 c10 -9 240 -52 315 -59 l68 -6 80 15 80 15 -70 -7 c-38
-4 -101 -6 -139 -4 l-68 2 -127 25 c-69 14 -130 25 -135 25 l-9 0 5 -6z"/>
<path d="M81166 45712 l-7 -11 22 -81 22 -80 9 0 10 0 -7 30 c-4 17 -14 58
-24 92 l-17 62 -8 -12z"/>
<path d="M81251 45608 c0 -13 -3 -36 -6 -53 l-6 -30 16 34 c17 39 19 57 5 66
l-10 6 1 -23z"/>
<path d="M15393 45430 c4 -41 9 -130 13 -197 l7 -122 6 4 7 3 -12 187 -13 187
-7 6 -7 7 6 -75z"/>
<path d="M49591 45452 c-1 -7 6 -27 15 -44 9 -18 20 -44 24 -59 l8 -26 -7 -10
c-3 -6 -57 -36 -118 -67 -62 -31 -113 -58 -113 -61 0 -2 55 22 123 54 l122 57
3 25 2 24 -29 60 -29 60 -1 -13z"/>
<path d="M15459 45114 c0 -5 0 -85 1 -178 l2 -168 8 -22 8 -21 -5 195 c-3 107
-7 197 -9 199 -2 2 -4 0 -5 -5z"/>
<path d="M48898 44963 c12 -2 32 -2 45 0 l22 4 -45 0 -45 0 23 -4z"/>
<path d="M16850 44856 c0 -3 10 -21 21 -41 l21 -36 6 6 6 6 -19 34 c-15 30
-35 46 -35 31z"/>
<path d="M26556 44381 c12 -13 362 -176 394 -185 l25 -7 -70 36 c-120 60 -344
165 -352 165 l-7 0 10 -9z"/>
<path d="M49214 44354 c8 -16 37 -62 65 -103 l49 -74 72 -58 72 -59 14 0 c7 0
60 -30 116 -67 l103 -68 94 2 94 2 11 11 11 12 -33 -7 c-18 -4 -63 -7 -100 -8
l-67 0 -110 71 c-60 40 -116 72 -123 72 -7 0 -45 26 -83 58 l-70 57 -56 87
c-30 49 -59 91 -65 94 l-10 6 16 -28z"/>
<path d="M94160 44274 c-80 -58 -152 -109 -160 -114 l-15 -8 6 -6 5 -5 154
110 c85 61 159 114 165 120 l9 9 -9 0 c-6 -1 -75 -48 -155 -106z"/>
<path d="M41602 44248 c-7 -7 -12 -16 -12 -22 l0 -10 12 12 c7 7 20 12 31 12
l18 0 -6 10 c-8 14 -28 13 -43 -2z"/>
<path d="M26951 44147 c14 -12 409 -194 409 -189 -1 8 -389 192 -404 192 -5 0
-7 -2 -5 -3z"/>
<path d="M87897 44014 c-26 -46 -47 -90 -47 -97 0 -6 23 30 51 81 28 51 49 95
47 97 -2 2 -25 -34 -51 -81z"/>
<path d="M27380 43994 c0 -6 391 -194 404 -193 10 0 -105 57 -311 154 -51 24
-93 42 -93 39z"/>
<path d="M87885 43900 c13 -25 207 -333 223 -355 l14 -20 -6 19 c-8 25 -205
337 -224 356 l-15 15 8 -15z"/>
<path d="M41090 43513 c19 -9 55 -26 80 -37 l45 -21 70 -66 70 -67 35 -62 35
-61 3 10 4 11 -36 58 -35 57 -70 68 -69 67 -54 25 c-29 13 -66 26 -83 30 l-30
6 35 -18z"/>
<path d="M49930 43030 l-95 -28 -25 -30 c-14 -17 -33 -44 -43 -61 l-18 -31 8
0 c4 0 21 20 36 44 l28 44 24 16 c13 9 59 25 102 37 43 12 85 25 93 30 l15 8
-15 0 c-8 -1 -58 -14 -110 -29z"/>
<path d="M52111 43053 c13 -38 394 -803 397 -795 3 9 -381 789 -394 801 l-7 6
4 -12z"/>
<path d="M52052 43030 c-19 -4 -95 -16 -170 -25 l-137 -18 -10 -9 -10 -10 30
6 c17 3 84 13 150 21 66 9 132 18 147 21 l27 5 169 -338 c93 -186 198 -403
233 -482 l63 -145 57 -99 c32 -55 63 -105 70 -111 l11 -11 -17 34 c-9 18 -37
67 -61 109 -25 41 -70 134 -101 206 -30 72 -136 291 -234 487 l-178 357 6 6 6
6 -9 -1 c-5 -1 -24 -5 -42 -9z"/>
<path d="M10490 42985 c0 -11 5 -27 10 -35 l10 -15 0 20 c0 11 -5 27 -10 35
l-10 15 0 -20z"/>
<path d="M51344 42886 c4 -38 16 -121 27 -185 l19 -115 12 -11 11 -10 -7 35
c-4 19 -18 104 -31 189 -14 85 -28 157 -31 160 l-7 6 7 -69z"/>
<path d="M51380 42935 c0 -27 51 -349 56 -354 11 -11 12 8 3 47 -5 24 -18 104
-29 179 -19 126 -30 174 -30 128z"/>
<path d="M50815 42897 c-137 -20 -153 -23 -144 -31 5 -5 309 41 317 48 l5 6
-19 -1 c-10 -1 -82 -11 -159 -22z"/>
<path d="M29886 42843 c62 -84 74 -101 117 -175 l45 -76 35 -94 34 -93 12 -67
11 -67 9 -188 9 -188 10 -25 c19 -50 402 -488 435 -499 12 -4 -5 16 -133 154
-102 108 -264 305 -283 341 l-14 29 -7 145 c-4 80 -11 188 -17 240 l-9 94 -36
106 -36 105 -40 70 c-54 92 -149 225 -161 225 l-9 0 28 -37z"/>
<path d="M49696 42821 l-6 -8 71 -47 71 -48 34 -5 35 -6 129 18 130 18 0 8 0
9 -15 0 c-8 0 -63 -7 -122 -16 l-107 -16 -34 6 -33 5 -62 39 c-34 21 -67 42
-74 45 l-12 7 -5 -9z"/>
<path d="M88579 42705 l20 -35 -22 -14 c-12 -7 -46 -28 -76 -46 -74 -44 -164
-111 -157 -117 2 -3 33 15 68 40 35 24 96 63 136 86 l72 42 -22 39 c-13 22
-27 40 -31 40 l-9 0 21 -35z"/>
<path d="M91738 42577 c-43 -23 -78 -45 -78 -50 0 -4 37 13 83 38 l84 45 21 0
21 0 63 -36 c35 -20 78 -45 96 -56 l32 -20 0 9 c0 4 -42 32 -93 61 l-94 52
-29 -1 -29 0 -77 -42z"/>
<path d="M51208 42536 l-166 -21 -8 -8 -8 -8 39 6 c22 3 111 14 199 25 87 11
161 22 164 25 8 8 -40 4 -220 -19z"/>
<path d="M27790 42278 c0 -64 69 -421 84 -436 15 -14 13 10 -4 79 -16 63 -60
326 -60 360 0 5 -4 9 -10 9 l-10 0 0 -12z"/>
<path d="M31042 41812 l-170 -237 -49 -46 c-26 -25 -142 -118 -258 -205 -115
-87 -240 -182 -278 -211 l-67 -52 9 -5 8 -6 284 216 c156 119 301 232 322 252
l39 37 174 242 173 242 -8 6 -9 5 -170 -238z"/>
<path d="M31088 41783 c-189 -266 -213 -293 -347 -393 -55 -41 -100 -79 -101
-84 l0 -8 15 6 c24 9 207 151 242 188 29 31 373 504 373 514 0 2 -4 4 -10 4
l-9 0 -163 -227z"/>
<path d="M30336 41598 c22 -24 82 -89 134 -146 51 -56 95 -100 98 -98 6 7
-250 286 -262 286 l-10 0 40 -42z"/>
<path d="M28116 41472 l-5 -9 32 -30 c18 -17 61 -51 97 -75 l66 -44 89 -38 90
-37 90 -18 90 -19 165 -6 165 -6 92 -15 92 -15 56 -21 56 -21 65 -43 64 -43 5
7 4 8 -22 19 c-33 29 -107 70 -168 95 l-54 21 -90 14 -90 14 -185 9 -185 10
-72 15 c-138 30 -292 105 -392 193 l-50 43 -5 -8z"/>
<path d="M57601 41402 l-55 -47 -148 -3 -148 -4 0 -9 0 -9 124 0 c68 0 137 3
153 6 l29 6 55 48 c30 26 52 50 49 53 -3 3 -30 -16 -59 -41z"/>
<path d="M57620 41367 l-63 -52 -154 -3 -153 -4 0 -9 0 -9 133 0 132 0 35 10
35 11 55 49 c30 27 52 51 49 54 -3 3 -34 -18 -69 -47z"/>
<path d="M56453 41343 c53 -2 141 -2 195 0 l97 3 -195 0 -195 0 98 -3z"/>
<path d="M54765 41244 c49 -85 79 -127 108 -148 l28 -21 104 -3 105 -4 0 10 0
10 -100 4 -99 4 -28 20 -28 21 -46 73 -45 74 -14 4 -14 5 29 -49z"/>
<path d="M28446 41179 l-6 -41 6 -51 c3 -29 10 -68 16 -87 12 -39 104 -206
119 -216 23 -14 16 6 -29 81 l-48 80 -23 65 -24 64 7 73 6 73 -9 0 -8 0 -7
-41z"/>
<path d="M58655 41003 c28 -1 136 -4 242 -5 l191 -3 -11 7 -12 8 -230 -2
c-126 -1 -207 -3 -180 -5z"/>
<path d="M29386 40992 l-5 -9 97 -70 c53 -39 120 -82 147 -95 l50 -25 48 -7
48 -7 29 6 c17 4 30 10 30 13 l0 7 -75 2 -76 2 -57 32 c-31 18 -73 44 -92 59
-19 14 -58 43 -87 63 l-51 38 -6 -9z"/>
<path d="M56740 40890 l0 -10 233 2 232 1 -135 8 c-74 3 -179 7 -232 8 l-98 1
0 -10z"/>
<path d="M97095 40686 l-250 -84 -125 -56 c-69 -32 -129 -62 -135 -67 -10 -10
169 67 230 99 16 8 149 55 295 103 146 48 258 87 250 88 -8 0 -127 -37 -265
-83z"/>
<path d="M60461 40525 c3 -2 95 -18 204 -35 110 -16 210 -32 223 -35 l22 -5 0
7 0 8 -217 33 c-223 33 -240 35 -232 27z"/>
<path d="M46738 40223 l-248 -96 0 -14 0 -13 33 13 c17 7 132 51 254 98 l223
84 0 13 c0 6 -3 12 -7 11 -5 -1 -119 -44 -255 -96z"/>
<path d="M61730 40031 l0 -9 283 -120 c155 -66 332 -141 392 -166 61 -24 161
-69 223 -99 l114 -55 29 -28 29 -28 22 -55 21 -56 7 -275 7 -275 -2 290 -1
290 -18 40 -18 40 -31 33 -32 34 -88 44 c-48 25 -246 110 -440 190 -194 80
-385 161 -424 179 l-73 34 0 -8z"/>
<path d="M84816 39970 c4 -8 49 -76 99 -150 51 -74 106 -161 124 -192 18 -32
37 -61 43 -64 l11 -7 -33 59 c-44 79 -207 324 -233 349 l-20 20 9 -15z"/>
<path d="M84780 39956 c0 -4 34 -58 77 -119 42 -62 220 -346 395 -632 175
-286 323 -521 328 -523 23 -8 -736 1213 -791 1273 l-9 9 0 -8z"/>
<path d="M94790 39505 l-175 -124 -15 -1 -16 0 -79 111 c-44 60 -86 115 -94
122 l-15 12 10 -16 c5 -9 47 -69 94 -133 l84 -117 16 4 c13 4 352 236 375 258
l9 9 -9 0 c-6 -1 -89 -57 -185 -125z"/>
<path d="M51571 39116 c10 -9 505 -111 879 -181 223 -41 413 -77 423 -79 l17
-4 0 7 0 6 -397 74 c-219 41 -510 98 -647 128 -234 50 -285 59 -275 49z"/>
<path d="M52016 38981 c9 -8 397 -82 424 -81 l15 1 -20 9 c-20 9 -388 80 -415
80 l-14 0 10 -9z"/>
<path d="M52891 38816 c7 -7 432 -87 437 -82 6 6 -9 10 -228 51 -179 34 -218
40 -209 31z"/>
<path d="M81815 38691 c24 -38 56 -93 70 -121 15 -29 88 -148 162 -264 75
-116 154 -241 175 -278 22 -38 42 -68 45 -68 9 0 -71 135 -203 341 -73 113
-140 222 -149 240 -32 62 -130 218 -137 219 -5 0 12 -31 37 -69z"/>
<path d="M53780 38691 l0 -7 175 -33 c96 -18 185 -35 197 -38 l23 -6 -10 10
-10 9 -120 23 c-66 13 -150 29 -187 36 l-68 13 0 -7z"/>
<path d="M53775 38652 l10 -10 170 -31 c94 -18 179 -35 190 -38 l20 -5 -10 10
-10 10 -170 31 c-93 18 -179 35 -190 38 l-20 5 10 -10z"/>
<path d="M60290 38450 c0 -5 5 -10 10 -10 l10 0 0 -16 0 -15 -47 -67 c-26 -37
-87 -111 -136 -164 -49 -54 -85 -98 -79 -98 14 0 171 176 230 257 l52 73 0 14
0 15 -20 11 -20 11 0 -11z"/>
<path d="M60222 38356 c-29 -42 -78 -104 -110 -139 -31 -34 -67 -75 -81 -91
l-26 -29 12 4 c16 6 146 152 210 237 l54 73 -3 10 -3 10 -53 -75z"/>
<path d="M60020 38066 c0 -5 569 -539 605 -568 l25 -19 0 9 c0 5 -134 132
-297 283 -283 262 -333 306 -333 295z"/>
<path d="M59360 37602 c0 -18 184 -382 192 -382 7 0 -175 375 -188 389 -2 2
-4 -1 -4 -7z"/>
<path d="M59320 37585 c0 -9 190 -385 194 -385 7 0 -35 93 -113 249 -63 124
-81 155 -81 136z"/>
<path d="M86157 37278 c-125 -83 -226 -153 -223 -155 3 -4 439 278 461 298 l9
9 -9 0 c-6 -1 -113 -69 -238 -152z"/>
<path d="M83185 37211 l-6 -11 14 5 13 6 16 -18 c8 -10 52 -80 98 -156 45 -76
85 -135 87 -133 3 3 -37 74 -89 158 l-93 153 -17 3 -16 3 -7 -10z"/>
<path d="M85650 36785 c0 -8 191 -317 218 -352 43 -57 35 -29 -11 38 -24 35
-79 121 -121 192 -71 115 -86 137 -86 122z"/>
<path d="M63339 36512 c-81 -72 -156 -154 -207 -229 l-22 -32 9 -6 10 -6 10
19 c5 10 38 53 73 95 l64 76 82 72 c75 66 95 90 75 89 -5 0 -47 -35 -94 -78z"/>
<path d="M55635 35991 c-126 -19 -232 -36 -234 -38 -2 -1 -1 -6 2 -10 l7 -6
222 33 223 33 9 8 c5 5 8 10 5 12 -2 2 -107 -13 -234 -32z"/>
<path d="M52155 35844 c-44 -30 -128 -82 -187 -116 -60 -34 -108 -66 -108 -70
0 -4 55 25 123 64 103 60 149 90 251 160 6 4 8 9 6 11 -3 3 -41 -20 -85 -49z"/>
<path d="M39877 35650 c3 -85 9 -180 13 -210 l8 -55 -5 190 -6 190 -8 20 -7
20 5 -155z"/>
<path d="M86487 35769 l-17 -10 5 -8 4 -8 36 11 c19 6 35 14 35 18 l0 8 -22 0
c-13 0 -31 -5 -41 -11z"/>
<path d="M86645 35712 c22 -45 157 -232 167 -232 4 0 8 3 8 6 0 7 -132 190
-166 229 l-26 30 17 -33z"/>
<path d="M86440 35690 l0 -13 7 6 6 7 -6 7 -7 6 0 -13z"/>
<path d="M84642 35483 c-134 -85 -241 -157 -239 -160 3 -2 115 66 249 151
l245 156 39 0 39 -1 26 -22 27 -22 58 -102 c32 -57 62 -103 66 -103 4 0 -21
48 -54 108 l-61 107 -26 22 -26 22 -50 0 -50 0 -243 -156z"/>
<path d="M84915 35602 c-30 -10 -85 -45 -85 -55 l0 -8 13 7 c6 4 24 16 39 26
l26 18 26 0 26 0 20 -20 c11 -11 33 -46 49 -78 16 -32 56 -94 88 -137 32 -44
142 -215 242 -380 101 -165 198 -318 214 -340 17 -22 32 -42 34 -44 2 -2 5 -2
8 1 l6 5 -24 29 c-14 16 -110 170 -216 341 -105 172 -217 348 -248 390 -32 43
-75 111 -96 150 l-38 72 -22 16 c-23 16 -30 17 -62 7z"/>
<path d="M79815 35429 l-130 -69 -128 -41 c-70 -23 -125 -44 -123 -47 3 -2 56
13 118 33 l113 38 148 74 c129 64 166 86 140 82 -5 -1 -66 -32 -138 -70z"/>
<path d="M39893 35323 l7 -6 7 6 6 7 -13 0 -13 0 6 -7z"/>
<path d="M81446 35198 c17 -27 317 -358 322 -354 2 3 -69 86 -157 185 -147
164 -186 205 -165 169z"/>
<path d="M29650 35137 c0 -15 193 -407 198 -402 5 5 -174 380 -190 400 l-8 9
0 -7z"/>
<path d="M83622 34826 c-205 -134 -378 -249 -385 -256 l-12 -13 40 24 c61 36
729 470 740 480 l9 9 -9 0 c-6 -1 -178 -110 -383 -244z"/>
<path d="M32101 35043 c2 -6 72 -66 156 -132 l151 -121 269 -134 269 -134 239
-71 c132 -40 246 -74 253 -76 l12 -4 0 7 c0 4 -105 38 -232 76 l-232 69 -291
142 -290 142 -110 88 c-60 49 -130 105 -154 124 l-44 36 4 -12z"/>
<path d="M83460 34668 c-311 -203 -572 -373 -580 -378 -8 -4 -13 -11 -10 -13
3 -3 259 161 570 364 311 203 572 374 580 378 8 5 13 12 10 14 -3 2 -259 -162
-570 -365z"/>
<path d="M51426 34909 c-11 -52 -56 -413 -52 -417 3 -2 7 6 10 19 11 52 56
413 52 417 -3 2 -7 -6 -10 -19z"/>
<path d="M35859 34425 l-5 -150 -21 -46 -21 -46 -38 -43 c-22 -24 -100 -97
-174 -163 -74 -66 -142 -126 -150 -134 l-14 -13 9 0 c16 0 318 273 357 322 19
23 40 57 48 73 l13 30 7 121 7 122 -7 38 -7 39 -4 -150z"/>
<path d="M57288 34515 l-98 -44 -57 -6 c-32 -4 -65 -12 -73 -17 l-15 -9 30 5
c17 3 53 8 80 12 l50 7 98 43 99 43 48 -102 c84 -179 215 -452 223 -464 l8
-13 18 0 18 0 40 -87 c23 -49 67 -149 99 -223 l57 -135 29 -140 c15 -76 32
-143 37 -148 l8 -8 179 26 179 25 34 17 33 17 16 24 15 23 -6 5 -5 6 -11 -21
-12 -21 -32 -17 -32 -17 -178 -26 -178 -27 -3 6 c-2 3 -16 67 -31 141 l-27
135 -55 130 c-30 72 -75 174 -100 227 l-46 97 -20 3 -21 3 -136 285 -136 285
-15 2 c-7 1 -58 -18 -111 -42z"/>
<path d="M2281 34496 c2 -2 53 -11 112 -20 l108 -16 97 1 97 1 25 9 25 8 -110
-5 -110 -5 -105 15 c-107 16 -147 19 -139 12z"/>
<path d="M60679 34424 c-6 -16 -22 -58 -35 -94 l-25 -65 -18 -127 -17 -128 6
0 7 0 17 126 17 127 36 89 35 89 -5 6 -6 6 -12 -29z"/>
<path d="M30080 34316 c0 -3 64 -136 141 -294 78 -158 168 -343 201 -411 32
-68 61 -121 64 -118 5 4 -387 811 -400 825 l-6 5 0 -7z"/>
<path d="M83495 33244 c-93 -63 -177 -119 -185 -124 l-15 -8 7 -8 8 -7 185
123 c162 108 205 142 178 139 -5 0 -84 -52 -178 -115z"/>
<path d="M34300 32508 c0 -7 9 -26 20 -43 l20 -30 0 13 c0 15 -28 72 -35 72
-3 0 -5 -6 -5 -12z"/>
<path d="M98876 31797 l6 -59 -20 6 -20 7 -25 -12 -25 -11 -11 -25 c-14 -29
-14 -33 -1 -33 l10 0 0 15 0 15 25 16 25 16 30 -4 31 -5 -7 46 c-4 25 -11 55
-16 66 l-8 20 6 -58z"/>
<path d="M98680 31696 c0 -4 89 -56 96 -56 2 0 4 4 4 8 0 4 -20 18 -45 30 -46
22 -55 25 -55 18z"/>
<path d="M31690 31139 c0 -6 5 -19 11 -30 l10 -20 9 6 9 6 -11 24 c-11 25 -28
34 -28 14z"/>
<path d="M95241 30513 c-32 -13 -504 -364 -497 -370 2 -2 73 47 157 109 85 63
198 144 251 181 l97 67 33 0 34 0 21 -15 c12 -8 43 -44 69 -80 42 -57 64 -78
64 -60 0 3 -25 39 -55 79 l-55 73 -25 11 c-27 12 -70 14 -94 5z"/>
<path d="M1660 30345 l-34 -25 16 0 17 0 28 25 28 24 -11 1 c-5 0 -25 -11 -44
-25z"/>
<path d="M96125 27379 c-473 -347 -893 -655 -933 -684 l-73 -53 8 -5 8 -5 932
681 c512 375 932 685 932 690 1 4 -2 7 -6 7 -5 -1 -395 -285 -868 -631z"/>
<path d="M23940 26452 c0 -15 34 -39 70 -50 19 -6 134 -23 255 -37 l220 -26
42 -15 43 -16 11 -39 12 -39 -11 -37 c-12 -40 -8 -53 9 -36 l11 11 5 46 6 46
-13 29 -12 30 -26 17 -25 16 -256 34 c-253 32 -303 42 -316 63 -7 13 -25 15
-25 3z"/>
<path d="M14928 26180 l-56 -220 7 0 8 0 52 203 c29 111 54 210 57 220 l5 17
-8 0 -8 0 -57 -220z"/>
<path d="M24717 26003 c-2 -4 -28 -80 -57 -168 l-53 -160 -37 -55 -37 -55 -43
-130 -43 -130 -42 -85 c-23 -47 -54 -116 -70 -153 l-28 -68 10 -10 10 -10 28
68 c16 37 46 104 68 148 l40 80 44 130 43 130 44 65 43 65 54 162 53 163 -11
11 -11 11 -5 -9z"/>
<path d="M87395 25991 l-5 -10 202 -160 203 -161 4 11 c1 6 1 11 0 13 -2 1
-93 72 -201 159 l-197 157 -6 -9z"/>
<path d="M87028 24893 l-47 -46 -26 17 -26 17 -17 -5 c-21 -7 -191 -176 -177
-176 6 0 46 36 90 80 l80 80 17 0 c9 0 20 -4 23 -10 l6 -10 23 0 22 0 44 45
c24 24 42 47 39 49 -3 3 -26 -16 -51 -41z"/>
<path d="M315 24648 c-6 -20 -65 -415 -65 -439 l0 -22 8 7 c4 4 23 111 43 237
l35 229 -8 0 c-5 0 -10 -6 -13 -12z"/>
<path d="M23102 22483 c-33 -67 -132 -443 -132 -503 0 -13 -12 -68 -26 -123
l-27 -100 -107 -226 c-59 -124 -117 -247 -130 -274 l-24 -47 10 -10 11 -11 38
83 c21 46 80 168 132 272 l93 188 25 90 c14 49 30 126 36 171 20 150 99 446
130 483 l9 11 -7 6 c-11 12 -22 8 -31 -10z"/>
<path d="M13892 22328 c-6 -18 -34 -120 -62 -226 l-51 -193 3 -17 3 -17 64
238 c35 131 61 240 58 243 -3 3 -10 -10 -15 -28z"/>
<path d="M22943 22072 l-11 -7 -7 -63 -7 -62 -33 -108 -33 -107 -180 -375
-180 -375 -23 -117 -23 -116 17 -125 17 -125 27 -101 26 -102 10 10 10 10 -27
108 c-34 140 -46 221 -46 310 l0 72 20 88 20 88 184 385 184 385 25 90 c24 85
51 234 45 241 -2 2 -9 0 -15 -4z"/>
<path d="M86410 21117 c0 -11 941 -987 952 -987 5 0 -154 170 -354 378 -482
501 -598 619 -598 609z"/>
<path d="M89545 20878 c-77 -71 -142 -135 -144 -141 -4 -11 65 49 224 196 39
36 68 67 65 70 -3 2 -68 -54 -145 -125z"/>
<path d="M86761 20815 c0 -13 306 -331 312 -325 3 3 -67 79 -154 170 -87 91
-159 161 -158 155z"/>
<path d="M10291 20574 c-238 -29 -436 -56 -439 -59 -3 -3 -3 -7 -1 -10 4 -3
712 78 867 100 l42 6 0 10 0 9 -17 -1 c-10 -1 -213 -25 -452 -55z"/>
<path d="M87390 20154 c0 -5 71 -81 159 -168 l158 -158 5 8 4 9 -163 159 c-90
88 -163 155 -163 150z"/>
<path d="M22805 19373 c3 -16 14 -100 26 -188 l20 -159 14 -279 c7 -153 16
-281 19 -284 l6 -6 6 6 6 6 -11 268 -12 268 -25 184 c-13 101 -24 190 -24 197
l0 14 -15 0 -14 0 4 -27z"/>
<path d="M22814 18733 c8 -219 31 -536 45 -610 6 -26 24 -82 41 -123 l32 -75
61 -75 c33 -41 95 -112 136 -157 l75 -83 9 9 10 10 -90 98 c-49 54 -110 125
-135 158 l-45 60 -32 72 -32 73 -9 52 c-14 85 -49 606 -50 766 l0 22 -12 0
-11 0 7 -197z"/>
<path d="M95650 17752 c0 -4 74 -72 165 -150 91 -79 165 -139 165 -134 0 5
-74 73 -165 151 -91 78 -165 138 -165 133z"/>
<path d="M92930 16991 c0 -11 320 -295 326 -289 2 3 -70 71 -161 152 -91 80
-165 142 -165 137z"/>
<path d="M92901 16963 c2 -6 69 -69 149 -139 138 -121 450 -395 498 -437 l22
-20 0 10 0 11 -102 88 c-109 94 -493 430 -542 473 l-29 26 4 -12z"/>
<path d="M92371 16559 c-89 -67 -160 -124 -157 -126 2 -2 78 50 168 118 188
140 174 129 161 129 -5 0 -82 -55 -172 -121z"/>
<path d="M15876 16491 l-8 -12 12 -14 12 -14 -7 -20 -6 -21 -25 -6 -24 -6 0
-9 0 -9 24 0 25 0 15 16 16 15 0 28 0 27 -13 19 -14 18 -7 -12z"/>
<path d="M24466 16222 l-6 -10 271 -479 c149 -263 307 -549 350 -636 l79 -157
21 -87 20 -88 2 -100 1 -100 -7 -22 -8 -23 14 0 14 0 7 38 c3 20 6 72 6 115
l0 77 -25 105 -25 106 -82 162 c-74 144 -599 1079 -618 1100 l-8 9 -6 -10z"/>
<path d="M92492 16091 c5 -13 338 -301 349 -301 5 0 9 2 9 5 0 8 -342 305
-352 305 l-10 0 4 -9z"/>
<path d="M24656 15791 l-7 -11 52 -98 c29 -53 82 -149 119 -212 37 -63 117
-210 178 -327 l111 -212 22 -83 21 -83 1 -117 0 -118 8 0 8 0 7 46 7 47 -7 85
-6 85 -20 77 -20 77 -123 234 c-68 129 -159 295 -203 371 -43 75 -93 162 -110
194 l-31 57 -7 -12z"/>
<path d="M0 14927 l0 -14 25 -11 24 -11 6 9 6 9 -31 16 -30 16 0 -14z"/>
<path d="M96675 13130 c-154 -181 -281 -334 -283 -342 l-4 -13 9 10 c12 12
531 622 552 648 8 10 12 19 10 21 -2 2 -130 -144 -284 -324z"/>
<path d="M25616 12781 l-6 -9 51 -103 c28 -57 73 -151 100 -208 l49 -105 10
10 10 10 -100 207 c-55 114 -102 207 -104 207 -3 0 -7 -4 -10 -9z"/>
<path d="M26156 11003 c2 -16 31 -219 64 -451 32 -233 61 -426 64 -430 l6 -5
7 6 6 7 -62 442 c-34 244 -61 446 -61 451 0 4 -7 7 -15 7 l-14 0 5 -27z"/>
<path d="M26168 10565 c-6 -6 57 -443 65 -452 l7 -6 6 6 6 6 -31 218 c-17 120
-31 221 -31 226 0 8 -14 10 -22 2z"/>
<path d="M5530 10451 l0 -10 83 -49 c45 -28 137 -77 205 -111 l122 -61 0 10 0
10 -112 56 c-62 31 -152 81 -200 110 -93 57 -98 59 -98 45z"/>
<path d="M26346 9633 c2 -16 31 -219 64 -453 63 -445 128 -871 135 -878 2 -2
8 -2 13 -1 l8 4 -32 215 c-18 118 -60 413 -93 655 -34 242 -63 450 -66 463
l-5 22 -15 0 -14 0 5 -27z"/>
<path d="M7216 9602 l-5 -8 200 -112 c110 -62 202 -112 204 -112 3 0 5 4 5 9
l0 9 -157 88 c-87 48 -177 98 -200 111 l-41 24 -6 -9z"/>
<path d="M10087 7973 l-7 -6 412 -228 c360 -200 450 -246 412 -210 -7 8 -803
451 -809 451 -1 0 -5 -3 -8 -7z"/>
<path d="M26613 7798 c3 -24 16 -127 28 -230 l23 -188 14 0 14 0 -6 38 c-3 20
-15 114 -26 207 -12 94 -23 180 -26 193 l-4 22 -12 0 -11 0 6 -42z"/>
<path d="M11330 7303 l0 -9 183 -99 c239 -130 416 -231 533 -305 52 -33 97
-60 100 -60 2 0 4 6 4 13 l0 13 -132 81 c-116 71 -627 352 -672 369 l-16 6 0
-9z"/>
<path d="M12590 6662 c0 -9 447 -230 517 -256 l42 -15 148 -25 c81 -14 257
-36 391 -51 l243 -26 144 -29 c126 -26 233 -50 288 -66 l17 -5 0 9 0 9 -97 26
c-54 14 -154 37 -223 51 l-125 26 -195 20 c-107 11 -280 34 -385 51 l-190 30
-80 31 c-44 17 -169 76 -277 130 -194 96 -218 106 -218 90z"/>
<path d="M12990 6402 c0 -4 33 -20 73 -35 l72 -27 154 -25 154 -26 5 6 c10 10
-5 14 -158 40 l-155 26 -63 24 c-66 26 -82 30 -82 17z"/>
<path d="M13470 6316 c0 -9 -245 -1475 -295 -1761 -30 -176 -64 -388 -74 -470
-22 -166 -93 -541 -116 -605 l-15 -41 -15 -152 -16 -152 -55 -314 c-30 -172
-53 -318 -51 -325 l5 -11 5 15 c3 8 28 144 56 301 l51 287 20 173 19 174 15
45 c15 44 81 376 91 455 3 22 12 96 20 165 8 69 26 181 39 250 31 161 69 387
211 1249 63 387 118 707 121 712 l5 9 -10 0 c-6 0 -11 -2 -11 -4z"/>
<path d="M13351 5845 c-1 -5 -19 -116 -40 -245 -104 -628 -155 -932 -187
-1115 -55 -310 -95 -623 -70 -544 2 8 12 74 21 148 9 74 41 277 71 450 75 431
136 792 179 1064 l36 228 -5 12 -4 12 -1 -10z"/>
<path d="M16166 5611 c5 -5 103 -46 217 -91 l208 -82 6 6 c4 3 4 8 2 10 -8 6
-424 166 -433 166 l-10 0 10 -9z"/>
<path d="M25693 4896 l-202 -91 -1 -14 0 -13 13 5 c67 26 385 172 395 182 l14
13 -9 4 -8 5 -202 -91z"/>
<path d="M25675 4830 l-250 -116 -55 -36 c-30 -20 -87 -65 -127 -100 l-71 -64
-287 -354 c-158 -194 -289 -359 -292 -366 l-5 -14 10 0 11 0 281 348 282 347
81 74 c45 41 111 92 147 115 l65 42 228 104 c125 57 232 109 238 116 l10 12
-8 4 c-4 3 -120 -48 -258 -112z"/>
<path d="M24678 3987 c-146 -183 -306 -401 -351 -480 l-28 -47 6 -10 7 -11 52
78 c93 139 245 344 357 482 106 132 120 153 102 158 l-8 2 -137 -172z"/>
<path d="M25820 4051 l-85 -6 11 -7 11 -8 227 7 226 6 0 9 0 8 -152 -2 c-84
-1 -191 -4 -238 -7z"/>
<path d="M12867 2955 c-4 -16 -25 -140 -47 -275 -23 -135 -58 -337 -80 -450
-42 -218 -75 -446 -84 -570 l-5 -75 9 20 c5 11 9 41 9 67 1 71 37 300 81 523
22 110 60 324 85 474 l46 275 -4 20 -3 21 -7 -30z"/>
<path d="M31474 2842 c-17 -15 -74 -81 -126 -147 l-95 -120 -57 -97 -56 -97
-60 -142 c-61 -145 -66 -159 -52 -159 4 0 34 64 67 143 l59 142 68 114 69 113
81 102 c45 55 97 116 115 134 18 18 33 35 33 37 0 11 -17 3 -46 -23z"/>
<path d="M22240 2833 c0 -5 62 -59 137 -119 75 -60 158 -126 184 -147 l48 -38
6 10 6 10 -176 141 c-96 77 -182 143 -190 146 l-15 6 0 -9z"/>
<path d="M23565 2212 c-38 -58 -94 -140 -123 -180 l-53 -74 6 -6 5 -5 24 22
c14 13 71 92 127 177 l102 155 -9 9 -9 9 -70 -107z"/>
<path d="M22984 2232 c7 -11 313 -252 320 -252 21 0 -12 31 -149 138 -85 67
-160 122 -166 122 l-10 0 5 -8z"/>
<path d="M12732 1963 c-19 -89 -23 -118 -35 -245 l-13 -128 8 0 7 0 5 43 c3
23 10 85 16 137 5 52 16 128 24 168 l14 72 -8 0 -8 0 -10 -47z"/>
<path d="M7737 1760 c-120 -27 -221 -51 -224 -54 l-6 -6 6 -6 7 -7 225 49 225
48 0 13 c0 16 25 20 -233 -37z"/>
<path d="M7990 1765 c-30 -7 -124 -28 -207 -46 l-153 -32 0 -8 0 -9 23 0 c12
1 112 20 221 44 l200 42 4 12 4 12 -19 -1 c-10 -1 -43 -7 -73 -14z"/>
<path d="M9850 1771 l0 -10 43 -5 c23 -3 112 -10 197 -16 85 -6 172 -13 193
-15 l37 -5 0 15 0 15 -27 0 c-16 0 -109 7 -208 15 -99 8 -192 15 -207 15 l-28
0 0 -9z"/>
<path d="M22758 1672 l-198 -87 0 -14 0 -13 13 5 c6 3 101 44 210 92 l197 88
0 9 c0 16 -27 6 -222 -80z"/>
<path d="M9910 1715 c0 -8 3 -15 8 -15 4 1 312 -21 684 -47 l677 -47 7 7 c4 4
5 9 2 12 -3 3 -290 25 -639 50 -349 24 -658 47 -686 50 l-53 5 0 -15z"/>
<path d="M22572 1532 l-412 -186 9 -9 10 -10 403 182 c222 100 407 186 411
191 l9 8 -9 5 -8 5 -413 -186z"/>
<path d="M11260 1670 l0 -9 33 -5 c17 -3 610 -48 1317 -101 707 -53 1521 -114
1809 -135 288 -22 527 -38 529 -35 3 3 1 9 -4 14 l-9 8 -430 32 c-236 17
-1055 79 -1820 136 -764 58 -1398 105 -1407 105 l-18 0 0 -10z"/>
<path d="M12210 1550 l0 -9 33 -5 c17 -3 124 -12 237 -21 113 -8 405 -31 650
-50 245 -18 542 -41 660 -49 118 -9 330 -24 470 -35 140 -11 327 -25 415 -31
88 -6 184 -13 213 -16 l52 -6 0 14 0 14 -217 17 c-120 9 -335 25 -478 36 -143
11 -354 27 -470 36 -115 8 -412 30 -660 49 -530 41 -867 66 -889 66 l-16 0 0
-10z"/>
<path d="M30321 1406 c-23 -19 -187 -143 -366 -277 l-325 -242 6 -8 5 -8 157
116 c135 100 528 396 568 429 8 6 14 14 14 18 0 14 -20 4 -59 -28z"/>
<path d="M19040 1041 l0 -9 28 -6 c15 -3 114 -10 220 -17 l192 -12 7 6 c3 4 4
9 2 12 -5 4 -369 35 -421 35 l-28 0 0 -9z"/>
<path d="M21288 1034 c-3 -3 -54 -14 -114 -25 l-107 -19 -104 0 -103 0 0 -15
0 -15 88 0 87 0 110 20 c148 27 165 31 165 41 0 10 -16 20 -22 13z"/>
<path d="M29440 594 c-145 -166 -159 -184 -143 -184 7 0 86 88 282 313 l33 37
-14 0 -14 0 -144 -166z"/>
<path d="M29160 359 l-149 -172 5 -9 6 -10 8 9 c240 273 305 353 285 353 -3 0
-72 -77 -155 -171z"/>
</g>
</svg>
