<?xml version="1.0" standalone="no"?>
<!DOCTYPE svg PUBLIC "-//W3C//DTD SVG 20010904//EN"
 "http://www.w3.org/TR/2001/REC-SVG-20010904/DTD/svg10.dtd">
<svg version="1.0" xmlns="http://www.w3.org/2000/svg"
 width="7500.000000pt" height="7500.000000pt" viewBox="0 0 7500.000000 7500.000000"
 preserveAspectRatio="xMidYMid meet">
<metadata>
Created by potrace 1.16, written by Peter Selinger 2001-2019
</metadata>
<g transform="translate(0.000000,7500.000000) scale(0.075000,-0.075000)"
fill="#000000" stroke="none">
<path d="M90156 99893 l-37 -108 -35 -39 c-19 -22 -34 -43 -34 -48 0 -18 18
-6 54 38 l38 46 33 91 c18 51 36 100 40 110 l7 17 -14 0 -14 0 -38 -107z"/>
<path d="M84365 99648 c-14 -64 -25 -161 -25 -226 l0 -74 16 -56 c8 -32 17
-63 20 -70 l4 -13 9 5 9 6 -19 62 -18 62 -2 65 -2 66 12 80 c7 44 14 88 17 98
l5 17 -10 0 -11 0 -5 -22z"/>
<path d="M89952 99630 l-12 -20 0 -25 0 -25 9 0 9 0 5 23 c3 12 9 32 12 45 l7
22 -8 0 c-5 0 -15 -9 -22 -20z"/>
<path d="M27190 98231 l0 -11 195 -130 195 -130 0 12 0 13 -166 110 c-92 61
-179 118 -195 128 l-29 19 0 -11z"/>
<path d="M98531 95071 l-162 -169 11 -7 11 -7 158 164 c87 89 159 167 160 173
1 5 -2 11 -7 13 l-9 3 -162 -170z"/>
<path d="M98435 94799 c64 -65 122 -109 198 -153 l47 -27 0 10 0 11 -42 21
c-59 30 -134 88 -193 148 -27 28 -54 51 -59 51 l-10 0 59 -61z"/>
<path d="M97896 94414 l-168 -172 7 -12 7 -12 30 29 c16 15 93 95 171 176
l140 148 -9 7 -9 7 -169 -171z"/>
<path d="M55964 91663 c-43 -82 -135 -257 -206 -391 -70 -133 -128 -247 -128
-252 l0 -10 13 0 12 0 74 143 c41 78 135 254 207 391 l133 249 -5 9 c-3 4 -9
8 -14 8 l-9 0 -77 -147z"/>
<path d="M93595 91419 c33 -33 86 -79 118 -100 l57 -40 81 -35 c45 -19 84 -32
87 -29 7 7 7 7 -73 40 l-70 29 -70 47 -70 47 -50 51 c-27 28 -54 51 -59 51
l-10 0 59 -61z"/>
<path d="M85066 91122 c-22 -37 -77 -118 -123 -180 l-84 -114 4 -11 4 -12 86
117 c89 121 167 241 167 258 0 24 -18 5 -54 -58z"/>
<path d="M27401 91066 c9 -9 412 -127 421 -124 6 2 -82 32 -195 66 -186 56
-238 70 -226 58z"/>
<path d="M79423 88287 l4 -12 189 -67 c209 -75 408 -145 1149 -405 275 -96
555 -195 623 -219 l124 -44 -4 12 -4 12 -435 153 c-239 84 -555 196 -704 249
-148 53 -371 131 -495 174 -124 43 -276 96 -338 119 l-113 40 4 -12z"/>
<path d="M63976 85594 c-3 -9 -6 -33 -6 -55 l0 -39 10 0 10 0 0 55 c0 57 -3
66 -14 39z"/>
<path d="M82500 85072 c0 -4 81 -34 180 -67 l180 -61 0 7 c0 4 -81 34 -180 67
-99 33 -180 57 -180 54z"/>
<path d="M78526 83751 c-4 -5 -38 -100 -76 -211 l-70 -202 12 4 12 4 22 65
c12 35 44 128 72 207 l49 142 -8 0 c-4 0 -10 -4 -13 -9z"/>
<path d="M77204 83668 c-27 -40 -57 -85 -67 -100 l-19 -28 9 0 c4 0 35 41 67
91 33 50 65 93 71 95 l11 5 405 -139 c222 -77 450 -153 506 -171 56 -17 110
-34 120 -38 l18 -6 -10 11 c-5 5 -41 20 -80 31 -38 12 -266 89 -506 171 -240
83 -445 150 -456 150 l-20 0 -49 -72z"/>
<path d="M95895 81047 c-44 -61 -94 -133 -113 -159 l-34 -48 9 0 c10 0 227
309 221 315 -2 3 -40 -46 -83 -108z"/>
<path d="M93917 81073 l-5 -8 151 -110 c82 -60 229 -170 324 -243 l174 -133
12 4 11 3 -130 100 c-118 92 -493 370 -521 387 l-12 7 -4 -7z"/>
<path d="M11980 77605 l0 -14 18 -5 c9 -2 49 -14 87 -25 39 -11 130 -34 204
-51 l135 -30 10 10 c5 5 8 11 5 13 -2 2 -67 17 -144 35 -77 17 -179 42 -227
56 l-88 25 0 -14z"/>
<path d="M74103 77268 c-27 -30 -93 -134 -93 -148 0 -5 3 -10 8 -10 10 1 113
162 109 173 l-2 8 -22 -23z"/>
<path d="M43332 76048 l4 -13 198 -103 198 -104 9 9 10 10 -205 106 c-113 59
-208 107 -211 107 -4 0 -5 -6 -3 -12z"/>
<path d="M71295 72130 l-39 -40 10 -10 10 -10 39 40 39 40 -10 10 -10 10 -39
-40z"/>
<path d="M73603 70773 l-133 -4 0 -11 0 -11 182 6 c99 4 315 7 480 7 l298 0 0
10 0 10 -347 -2 c-192 -1 -408 -4 -480 -5z"/>
<path d="M69125 69828 c-148 -154 -282 -296 -298 -314 l-27 -33 9 -5 9 -6 295
308 c162 169 296 311 297 317 1 5 -2 11 -7 12 -4 1 -129 -124 -278 -279z"/>
<path d="M41301 67718 l-71 -203 0 -28 0 -28 10 6 10 6 0 22 c0 12 31 110 69
217 l70 195 -8 8 -8 8 -72 -203z"/>
<path d="M48445 67901 c39 -5 140 -11 225 -14 l155 -6 -70 8 c-38 5 -140 11
-225 14 l-155 6 70 -8z"/>
<path d="M41417 67878 c-2 -7 -32 -89 -65 -183 l-61 -170 -9 -53 -9 -53 10 4
10 3 13 60 c7 32 40 135 73 227 34 93 61 170 61 173 0 10 -18 3 -23 -8z"/>
<path d="M41256 67308 c-3 -18 -8 -101 -11 -184 l-6 -152 9 -6 10 -6 6 148 c4
81 8 166 11 190 l5 42 -10 0 -9 0 -5 -32z"/>
<path d="M43370 66673 c-16 -7 -30 -23 -30 -37 l0 -9 18 16 c21 19 49 23 80
13 l23 -8 10 -25 9 -24 -6 -26 -7 -26 12 7 11 7 0 37 c0 20 -4 42 -8 48 -18
28 -74 41 -112 27z"/>
<path d="M52360 66201 l0 -10 132 -90 132 -91 27 0 28 0 7 11 7 11 -30 -6 -30
-7 -76 53 c-42 29 -104 72 -137 96 l-60 43 0 -10z"/>
<path d="M40730 65508 c-96 -83 -176 -157 -178 -164 l-3 -13 29 27 c16 15 97
85 180 156 126 107 169 149 150 146 -2 -1 -82 -69 -178 -152z"/>
<path d="M1597 64284 l-6 -6 162 -144 c145 -130 185 -161 175 -136 -3 9 -316
292 -322 292 -1 0 -5 -3 -9 -6z"/>
<path d="M41920 64211 c0 -5 64 -69 142 -143 206 -193 254 -241 266 -263 l11
-20 10 10 10 10 -27 41 -27 41 -75 64 c-41 35 -124 110 -184 166 -105 99 -126
114 -126 94z"/>
<path d="M40795 64185 c19 -7 467 -56 472 -51 6 6 -44 13 -249 36 -164 18
-248 24 -223 15z"/>
<path d="M78490 64033 c-102 -13 -187 -26 -189 -29 -2 -2 -2 -7 1 -10 l6 -5
216 27 216 28 0 8 0 8 -32 -1 c-18 -1 -116 -12 -218 -26z"/>
<path d="M41270 63574 c0 -9 233 -273 254 -286 26 -17 24 -6 -3 20 -16 15 -75
79 -131 142 -57 63 -107 119 -111 125 l-9 9 0 -10z"/>
<path d="M2587 63403 l-5 -8 160 -140 c89 -77 165 -141 169 -143 l9 -4 0 10
c0 8 -227 212 -306 275 l-23 17 -4 -7z"/>
<path d="M41990 63344 c0 -18 507 -602 523 -603 l9 -1 -4 10 c-1 5 -98 117
-215 248 -117 131 -231 264 -255 295 -39 51 -58 68 -58 51z"/>
<path d="M42732 62914 c-116 -103 -212 -191 -212 -195 0 -10 423 359 428 373
2 4 2 8 0 8 -2 0 -99 -84 -216 -186z"/>
<path d="M42220 63015 c0 -6 260 -305 266 -305 15 0 -12 35 -122 161 -116 133
-144 161 -144 144z"/>
<path d="M17052 62905 c-161 -12 -295 -25 -299 -29 l-6 -6 10 0 c5 0 131 9
279 21 148 11 357 24 464 28 l195 8 -175 0 -175 1 -293 -23z"/>
<path d="M42175 62474 c-104 -90 -192 -169 -194 -175 -2 -7 68 49 155 124 229
195 240 205 234 210 -3 2 -90 -69 -195 -159z"/>
<path d="M42516 62483 c70 -82 133 -154 140 -162 l14 -15 6 7 6 6 -133 155
-134 155 -13 0 -14 1 128 -147z"/>
<path d="M42199 62444 c-178 -153 -211 -184 -195 -184 10 0 396 332 396 341 0
5 -1 9 -3 9 -2 0 -91 -75 -198 -166z"/>
<path d="M16517 62165 l-87 -170 3 -10 4 -10 86 170 c48 94 85 174 83 180 l-3
10 -86 -170z"/>
<path d="M56760 62146 c0 -12 557 -252 566 -244 2 3 -119 57 -269 122 -149 64
-278 119 -284 122 l-13 6 0 -6z"/>
<path d="M59940 61883 l0 -9 93 -38 c50 -21 127 -54 170 -72 42 -18 77 -29 77
-26 0 5 -277 131 -331 150 l-9 4 0 -9z"/>
<path d="M42261 61786 l-10 -12 165 -185 c92 -101 168 -186 170 -188 2 -2 6 3
10 12 l6 17 -128 142 c-71 79 -146 162 -166 185 l-37 42 -10 -13z"/>
<path d="M89688 61537 c-42 -94 -80 -181 -84 -192 l-7 -20 10 10 c5 6 24 44
43 85 18 41 54 123 81 183 26 59 45 107 41 107 -4 0 -42 -78 -84 -173z"/>
<path d="M61653 61210 c3 -14 27 -124 52 -245 49 -233 55 -259 60 -253 6 6
-102 508 -110 516 l-8 7 6 -25z"/>
<path d="M63373 61170 c3 -14 25 -119 49 -235 l43 -210 3 18 3 17 -41 208 -42
207 -10 10 -11 10 6 -25z"/>
<path d="M87710 60872 c-14 -20 -68 -82 -120 -137 -150 -159 -176 -188 -164
-184 14 5 218 219 282 296 l43 51 -9 5 -8 5 -24 -36z"/>
<path d="M86100 60551 c0 -9 297 -341 306 -341 11 0 -6 21 -151 180 -85 94
-155 166 -155 161z"/>
<path d="M86559 59764 c-90 -69 -166 -131 -168 -137 l-4 -12 14 11 c8 6 85 66
172 133 141 110 166 131 153 131 -2 0 -77 -57 -167 -126z"/>
<path d="M45368 59413 c88 -93 203 -209 254 -259 l93 -91 105 -75 c58 -40 111
-78 119 -83 l14 -8 -6 10 c-4 6 -60 49 -126 97 l-119 86 -239 245 c-132 135
-243 245 -247 245 -5 0 64 -75 152 -167z"/>
<path d="M55326 59509 c-20 -56 -246 -932 -242 -936 2 -3 9 12 15 33 122 458
239 909 236 913 -3 2 -7 -2 -9 -10z"/>
<path d="M46982 59410 l-12 -20 0 -27 0 -27 9 10 c8 9 25 84 19 84 -2 0 -9 -9
-16 -20z"/>
<path d="M61835 59348 c-121 -26 -322 -69 -447 -95 -126 -27 -228 -51 -228
-54 l0 -7 68 15 c37 8 211 43 387 79 426 87 460 95 444 107 -2 2 -103 -18
-224 -45z"/>
<path d="M45660 59174 l75 -75 119 -85 c65 -47 120 -83 123 -81 2 3 -49 43
-114 90 l-118 85 -70 71 c-38 39 -74 71 -79 71 -6 0 23 -34 64 -76z"/>
<path d="M50070 59103 c0 -7 179 -161 288 -247 l25 -20 -4 11 c-2 6 -49 48
-104 94 -55 45 -124 103 -152 127 -29 25 -53 40 -53 35z"/>
<path d="M63810 58924 c0 -5 19 -103 41 -219 l42 -210 9 -10 9 -10 -5 25 c-4
14 -24 115 -46 224 -35 173 -50 234 -50 200z"/>
<path d="M84090 58594 c45 -85 90 -179 100 -207 l19 -52 0 20 c0 11 -8 38 -17
60 -24 57 -172 335 -178 335 -3 0 31 -70 76 -156z"/>
<path d="M51083 58403 l5 -48 -25 -252 -25 -252 6 -45 7 -45 13 5 14 5 -8 35
-8 35 24 232 c30 300 31 377 2 377 l-10 0 5 -47z"/>
<path d="M61334 58415 c3 -11 19 -87 36 -170 37 -189 40 -198 46 -192 3 3 -12
85 -32 183 l-37 179 -10 10 -9 10 6 -20z"/>
<path d="M61331 58233 c34 -164 49 -219 49 -187 0 25 -76 374 -81 374 l-7 0
39 -187z"/>
<path d="M49460 58261 c0 -3 75 -35 168 -70 l167 -64 216 -108 216 -107 101
-30 102 -30 0 8 0 7 -82 23 -83 23 -215 105 -215 104 -187 73 c-104 40 -188
70 -188 66z"/>
<path d="M63995 58008 c3 -13 43 -214 90 -447 75 -375 94 -459 95 -425 1 5
-39 208 -87 452 l-88 442 -8 0 -7 0 5 -22z"/>
<path d="M91208 57610 l-187 -169 9 -6 9 -5 185 166 c168 150 202 185 179 183
-5 0 -92 -76 -195 -169z"/>
<path d="M64131 57573 c-1 -19 163 -839 175 -872 2 -8 6 -12 9 -9 4 4 -170
867 -180 893 l-3 10 -1 -22z"/>
<path d="M90936 57434 c-49 -58 -76 -113 -131 -275 -47 -138 -50 -149 -37
-149 l8 0 33 103 c19 56 49 137 68 181 l33 78 40 45 c38 44 49 63 33 63 -5 -1
-25 -21 -47 -46z"/>
<path d="M86372 56204 c-101 -53 -182 -98 -179 -100 4 -4 346 173 362 187 17
17 0 8 -183 -87z"/>
<path d="M64413 56250 c16 -5 35 -14 43 -21 l14 -11 0 -33 0 -32 -18 -16 -19
-17 -31 0 -31 0 -6 10 c-3 6 -11 10 -17 10 l-11 0 19 -21 18 -20 36 6 35 7 23
21 23 22 -6 35 -6 35 -21 18 -20 17 -27 -1 -26 -1 28 -8z"/>
<path d="M46980 55720 l0 -13 7 6 6 7 -6 7 -7 6 0 -13z"/>
<path d="M25996 55651 c18 -16 379 -275 451 -323 40 -26 79 -48 86 -48 l14 0
27 -26 26 -27 0 15 0 15 -18 16 c-10 10 -25 17 -34 17 l-15 0 -114 78 c-63 43
-180 126 -261 185 -81 59 -153 107 -160 107 l-12 0 10 -9z"/>
<path d="M47000 55650 l0 -13 7 6 6 7 -6 7 -7 6 0 -13z"/>
<path d="M47030 55550 l0 -13 7 6 6 7 -6 7 -7 6 0 -13z"/>
<path d="M47040 55520 l0 -13 7 6 6 7 -6 7 -7 6 0 -13z"/>
<path d="M51910 55031 l0 -11 149 0 148 0 34 -23 c19 -13 40 -26 47 -31 l12
-7 0 8 c0 4 -17 20 -38 34 l-37 26 -157 8 -158 7 0 -11z"/>
<path d="M53202 54904 c-28 -49 -249 -383 -262 -397 l-7 -8 -142 96 c-77 53
-141 93 -141 88 0 -4 61 -48 135 -98 74 -49 134 -94 135 -98 0 -4 -26 -47 -59
-95 -32 -48 -130 -200 -219 -339 -88 -138 -188 -288 -222 -332 l-61 -81 10 0
c16 0 150 191 311 445 84 132 177 275 207 318 l55 77 7 -4 7 -5 0 17 0 17 114
171 c63 94 129 194 147 223 l32 51 -10 0 c-5 0 -22 -21 -37 -46z"/>
<path d="M50140 54569 l0 -10 10 6 c6 3 10 8 10 11 0 2 -4 4 -10 4 -5 0 -10
-5 -10 -11z"/>
<path d="M51940 54300 c-79 -105 -140 -193 -138 -196 3 -2 71 83 152 191 80
107 142 195 137 195 -5 0 -73 -86 -151 -190z"/>
<path d="M51341 54254 c-46 -52 -81 -97 -79 -99 4 -4 87 85 162 173 l19 22 -9
0 c-5 -1 -47 -44 -93 -96z"/>
<path d="M52631 53862 c-85 -128 -133 -217 -162 -301 -23 -65 -23 -67 -5 -52
l14 12 6 34 7 35 45 85 c25 47 73 129 108 183 77 120 78 122 72 122 -3 0 -41
-53 -85 -118z"/>
<path d="M49090 53653 c0 -16 123 -264 185 -373 56 -98 54 -95 59 -89 3 3 -14
36 -37 74 -22 39 -78 144 -123 235 -46 91 -83 160 -84 153z"/>
<path d="M36320 53333 l0 -10 68 -7 c37 -3 138 -9 225 -12 l157 -7 0 10 0 10
-152 7 c-84 3 -186 9 -225 13 l-73 6 0 -10z"/>
<path d="M51557 53294 c-27 -14 -47 -28 -44 -30 3 -3 31 8 63 25 l59 30 -15 0
c-8 0 -37 -11 -63 -25z"/>
<path d="M52444 53265 l-21 -23 -87 -7 -86 -7 0 -7 0 -7 92 9 93 9 13 10 c7 6
18 20 23 30 l10 18 -8 -1 c-4 -1 -18 -11 -29 -24z"/>
<path d="M52460 52808 c0 -6 16 -40 35 -74 l36 -64 17 -9 18 -9 108 63 108 63
-9 4 -8 5 -90 -53 -90 -53 -20 0 -21 -1 -38 70 c-37 69 -46 81 -46 58z"/>
<path d="M54385 52540 c8 -16 15 -35 15 -42 0 -8 -27 -83 -60 -168 l-60 -155
0 -37 0 -37 11 -6 10 -7 -6 34 -6 33 60 158 c34 87 61 166 61 175 0 24 -23 82
-32 82 l-9 0 16 -30z"/>
<path d="M54984 52410 l-88 -131 -47 -44 -47 -44 12 -4 12 -5 50 47 49 47 82
119 c84 123 91 137 75 143 l-9 3 -89 -131z"/>
<path d="M27002 52263 l9 -68 -5 -160 -5 -160 8 30 9 30 1 136 c0 75 -2 164
-5 198 l-7 61 -7 0 -6 0 8 -67z"/>
<path d="M27696 52170 c-3 -60 -8 -161 -11 -222 l-4 -113 8 45 c10 52 26 400
18 400 -2 0 -7 -49 -11 -110z"/>
<path d="M52770 52052 c0 -18 235 -466 274 -520 l30 -44 4 11 4 11 -35 53
c-18 28 -82 144 -140 257 -58 113 -113 214 -121 225 l-15 20 -1 -13z"/>
<path d="M52747 52033 c-4 -3 -7 -11 -7 -17 l0 -10 12 12 c6 6 9 14 7 17 -3 3
-9 2 -12 -2z"/>
<path d="M41413 51413 l9 -8 304 -25 304 -25 0 7 0 8 -23 0 c-30 0 -484 37
-552 45 l-50 6 8 -8z"/>
<path d="M49013 51093 c-7 -3 -13 -10 -13 -16 0 -6 42 -100 93 -209 l92 -198
15 3 15 3 -2 20 c-1 11 -44 106 -95 211 l-93 191 -12 -5z"/>
<path d="M28400 50880 l0 -13 7 6 6 7 -6 7 -7 6 0 -13z"/>
<path d="M33540 50828 c0 -21 60 -408 66 -427 l4 -14 6 6 6 5 -33 214 -32 213
-8 10 -9 9 0 -16z"/>
<path d="M33575 50350 c37 -255 65 -411 65 -359 0 33 -52 356 -60 374 l-10 20
5 -35z"/>
<path d="M34190 49983 l0 -10 113 -5 c112 -5 126 -4 114 9 l-7 7 -110 4 -110
5 0 -10z"/>
<path d="M33950 49930 c-85 -4 -179 -8 -207 -9 l-53 -1 0 -10 0 -11 168 6 c92
3 200 8 240 11 l72 6 0 9 0 9 -32 -2 c-18 -1 -103 -5 -188 -8z"/>
<path d="M40082 49530 c88 -221 163 -399 165 -396 7 7 -309 796 -318 796 -4 0
65 -180 153 -400z"/>
<path d="M33670 49879 c0 -17 38 -321 46 -368 3 -18 7 -31 10 -28 6 5 -43 398
-51 405 -3 3 -5 -1 -5 -9z"/>
<path d="M22410 49790 l35 -8 375 -12 c206 -7 378 -14 383 -17 l7 -4 0 10 0
11 -37 0 c-21 0 -204 7 -408 15 -411 16 -404 16 -355 5z"/>
<path d="M40121 49551 c-1 -8 64 -179 143 -380 79 -201 149 -385 155 -408 14
-50 26 -58 16 -10 -5 24 -245 647 -305 792 l-9 20 0 -14z"/>
<path d="M34098 48616 l-206 -11 -8 -8 -8 -8 89 6 c50 3 170 10 269 15 98 5
181 12 184 15 7 6 -61 5 -320 -9z"/>
<path d="M34485 48590 l-6 -10 20 0 20 0 6 10 6 10 -20 0 -20 0 -6 -10z"/>
<path d="M41290 48535 l0 -25 10 0 10 0 0 25 0 25 -10 0 -10 0 0 -25z"/>
<path d="M84835 48408 c-52 -125 -156 -358 -171 -385 l-19 -32 8 -7 7 -8 11
11 c9 9 199 436 199 448 0 3 -5 5 -11 5 l-10 0 -14 -32z"/>
<path d="M37675 47439 c-269 -15 -519 -28 -554 -28 l-65 -1 10 -8 9 -9 567 31
567 31 7 8 7 7 -29 -1 c-16 -1 -249 -14 -519 -30z"/>
<path d="M34853 47273 l-83 -4 0 -7 0 -7 92 3 c51 2 127 7 168 12 l75 7 -85 0
c-47 -1 -122 -3 -167 -4z"/>
<path d="M30416 46849 c-76 -4 -141 -11 -145 -14 l-6 -7 160 8 c88 4 180 10
205 14 l45 8 -60 -1 c-33 0 -122 -4 -199 -8z"/>
<path d="M46081 45797 c-2 -29 -62 -198 -84 -237 -11 -19 -52 -68 -91 -107
l-70 -73 10 0 c15 0 148 141 171 181 11 19 32 72 47 117 l27 81 -4 28 -4 28
-2 -18z"/>
<path d="M81245 45626 l7 -34 -12 -21 -11 -21 7 -12 7 -11 13 24 c21 38 16
109 -8 109 l-9 0 6 -34z"/>
<path d="M45765 45240 l-6 -10 30 0 31 0 0 10 0 10 -24 0 -25 0 -6 -10z"/>
<path d="M26540 44346 c0 -5 363 -182 392 -191 l23 -7 -10 10 c-9 9 -391 192
-401 192 -2 0 -4 -2 -4 -4z"/>
<path d="M49610 42936 c0 -2 55 -39 123 -84 l122 -80 45 -3 45 -3 103 14 102
13 0 10 0 10 -47 -7 c-27 -4 -90 -9 -141 -13 l-93 -6 -114 77 -115 76 -15 0
c-8 0 -15 -2 -15 -4z"/>
<path d="M56608 40883 c195 -2 510 -2 700 0 l347 2 -700 0 -700 0 353 -2z"/>
<path d="M53220 40032 l0 -7 205 -41 205 -41 0 11 0 12 -192 37 c-203 40 -218
42 -218 29z"/>
<path d="M81060 39966 c0 -12 234 -386 242 -386 7 0 -214 365 -233 385 l-9 9
0 -8z"/>
<path d="M87745 38244 c-99 -62 -184 -115 -190 -117 -5 -2 -8 -7 -5 -10 l5 -6
185 115 c102 63 187 119 188 124 5 14 16 20 -183 -106z"/>
<path d="M56747 37826 l-5 -14 182 -87 182 -87 29 4 28 3 -44 22 c-108 53
-359 173 -363 173 -2 0 -6 -6 -9 -14z"/>
<path d="M86180 37295 c-113 -73 -243 -159 -290 -192 l-85 -58 -10 3 -10 3 12
-11 11 -12 99 69 c54 38 187 127 296 197 108 71 197 130 197 132 0 11 -32 -8
-220 -131z"/>
<path d="M86187 37247 c-125 -82 -226 -152 -223 -154 3 -3 105 61 228 142 243
161 233 153 227 159 -2 2 -107 -64 -232 -147z"/>
<path d="M85610 37336 c0 -10 111 -186 117 -186 3 0 -6 17 -18 38 -63 102 -99
156 -99 148z"/>
<path d="M85735 37130 c3 -5 8 -10 11 -10 3 0 2 5 -1 10 -3 6 -8 10 -11 10 -3
0 -2 -4 1 -10z"/>
<path d="M40974 36490 c3 -14 31 -203 61 -420 31 -217 60 -406 66 -420 l9 -25
-5 35 c-2 19 -30 215 -61 435 l-56 400 -10 10 -9 10 5 -25z"/>
<path d="M86487 35769 l-17 -10 5 -8 4 -8 36 11 c19 6 35 14 35 18 l0 8 -22 0
c-13 0 -31 -5 -41 -11z"/>
<path d="M86645 35712 c22 -45 157 -232 167 -232 4 0 8 3 8 6 0 7 -132 190
-166 229 l-26 30 17 -33z"/>
<path d="M86440 35690 l0 -13 7 6 6 7 -6 7 -7 6 0 -13z"/>
<path d="M36707 35516 l-5 -13 44 -44 44 -43 65 -97 66 -98 15 6 14 5 -7 12
c-52 87 -207 286 -223 286 -5 0 -10 -6 -13 -14z"/>
<path d="M41300 35469 c0 -4 7 -24 16 -45 9 -22 50 -138 91 -259 41 -121 79
-227 84 -235 l8 -15 1 13 c1 38 -197 574 -200 541z"/>
<path d="M34300 32508 c0 -7 9 -26 20 -43 l20 -30 0 13 c0 15 -28 72 -35 72
-3 0 -5 -6 -5 -12z"/>
<path d="M98907 31692 c78 -120 270 -392 276 -392 4 0 -33 60 -83 133 -51 72
-115 167 -144 209 -28 43 -55 78 -59 78 l-9 0 19 -28z"/>
<path d="M41475 31540 c-16 -11 -25 -20 -20 -20 6 0 24 9 40 20 17 11 26 20
20 20 -5 0 -23 -9 -40 -20z"/>
<path d="M41525 31510 l-18 -20 11 0 c6 0 16 9 22 20 6 11 9 20 7 20 -2 0 -12
-9 -22 -20z"/>
<path d="M41400 31455 l-12 -15 10 0 c12 0 26 19 19 26 -2 2 -10 -2 -17 -11z"/>
<path d="M41462 31420 l-12 -20 8 0 c4 0 13 9 20 20 l12 20 -8 0 c-4 0 -13 -9
-20 -20z"/>
<path d="M41330 31365 l-14 -25 10 -9 c5 -4 28 -18 51 -31 l41 -23 16 6 16 6
0 25 0 25 -11 7 -11 7 7 -22 6 -21 -6 -10 -6 -9 -44 21 c-48 23 -51 28 -35 59
l11 19 -9 0 c-5 0 -15 -11 -22 -25z"/>
<path d="M89491 21936 c-1 -18 109 -501 252 -1105 l62 -264 11 -4 11 -4 -39
168 c-74 314 -288 1208 -292 1218 l-4 10 -1 -19z"/>
<path d="M20875 21864 c-99 -12 -187 -23 -194 -23 l-15 -1 10 -9 9 -10 223 27
222 26 0 8 0 8 -37 -1 c-21 -1 -119 -12 -218 -25z"/>
<path d="M88213 19609 c-43 -40 -85 -78 -93 -85 l-14 -14 10 0 c11 0 193 169
182 170 -4 0 -42 -32 -85 -71z"/>
<path d="M15876 16491 l-6 -10 10 -6 10 -6 0 -23 0 -24 -15 -12 -15 -12 -15 6
-15 5 0 -14 0 -15 23 0 24 0 16 18 17 19 0 24 -1 24 -13 18 -14 18 -6 -10z"/>
<path d="M96706 12382 l-5 -9 192 -159 c105 -87 243 -206 306 -264 63 -58 143
-129 178 -158 l63 -52 0 9 c0 5 -118 112 -262 237 -145 126 -265 231 -268 234
-5 5 -152 133 -182 158 l-16 13 -6 -9z"/>
<path d="M97710 11122 c0 -5 77 -73 171 -151 l171 -143 5 6 c4 3 4 7 2 9 -2 1
-40 34 -84 73 -118 104 -252 214 -259 214 -3 0 -6 -4 -6 -8z"/>
<path d="M7737 1760 c-120 -27 -221 -51 -224 -54 l-6 -6 6 -6 7 -7 225 49 225
48 0 13 c0 16 25 20 -233 -37z"/>
</g>
</svg>
