<?xml version="1.0" standalone="no"?>
<!DOCTYPE svg PUBLIC "-//W3C//DTD SVG 20010904//EN"
 "http://www.w3.org/TR/2001/REC-SVG-20010904/DTD/svg10.dtd">
<svg version="1.0" xmlns="http://www.w3.org/2000/svg"
 width="7500.000000pt" height="7500.000000pt" viewBox="0 0 7500.000000 7500.000000"
 preserveAspectRatio="xMidYMid meet">
<metadata>
Created by potrace 1.16, written by Peter Selinger 2001-2019
</metadata>
<g transform="translate(0.000000,7500.000000) scale(0.075000,-0.075000)"
fill="#000000" stroke="none">
<path d="M84489 98806 c-2 -3 -77 -6 -167 -8 l-162 -3 0 -8 0 -9 187 8 188 7
25 8 25 7 -46 1 c-25 1 -48 -1 -50 -3z"/>
<path d="M58300 97793 c0 -10 236 -158 285 -179 20 -8 42 -13 48 -11 l11 3
-65 30 c-35 17 -103 56 -150 86 -48 31 -96 61 -108 67 l-21 12 0 -8z"/>
<path d="M27945 97670 l-8 -12 166 -166 167 -166 10 10 10 10 -169 168 -168
168 -8 -12z"/>
<path d="M89040 97101 c0 -3 69 -21 153 -40 83 -19 187 -42 230 -51 l77 -18 0
7 c0 3 -69 21 -153 40 -83 19 -187 42 -229 51 l-78 18 0 -7z"/>
<path d="M14123 96436 l-23 -11 0 -12 c0 -7 2 -13 5 -13 14 0 65 32 65 40 l0
10 -12 -1 c-7 -1 -23 -6 -35 -13z"/>
<path d="M16265 95910 c55 -29 152 -79 215 -112 63 -34 111 -56 105 -51 -14
15 -365 199 -395 208 -14 4 20 -16 75 -45z"/>
<path d="M17226 95551 l-6 -9 186 -137 186 -137 10 10 9 9 -178 129 c-98 72
-183 133 -190 137 l-12 7 -5 -9z"/>
<path d="M98131 94586 c8 -7 333 -136 344 -136 12 1 -325 140 -339 140 -5 0
-7 -2 -5 -4z"/>
<path d="M98100 94558 c9 -11 354 -148 363 -145 5 1 -67 33 -160 69 -190 76
-210 83 -203 76z"/>
<path d="M99361 94090 c25 -14 380 -150 393 -150 l11 1 -17 10 c-27 15 -378
149 -391 149 l-12 -1 16 -9z"/>
<path d="M87817 93372 c-40 -42 -33 -51 8 -12 l36 35 79 -81 79 -80 14 8 c8 4
27 8 43 10 l29 2 38 -13 c21 -7 41 -11 44 -8 2 3 -20 13 -50 23 l-54 17 -30
-11 -30 -10 -74 74 -73 74 -16 0 -16 0 -27 -28z"/>
<path d="M87715 93208 c-77 -79 -160 -165 -185 -193 -25 -27 40 33 143 135
l187 185 74 -74 74 -73 36 13 36 13 43 -11 c49 -14 62 -9 21 8 l-29 12 -37 0
-38 0 -13 -11 -13 -11 -74 74 c-41 41 -77 75 -80 75 -3 0 -68 -64 -145 -142z"/>
<path d="M87002 92991 c-52 -44 -134 -108 -182 -142 l-89 -62 5 -9 6 -9 66 48
c131 92 302 231 302 245 0 17 -18 5 -108 -71z"/>
<path d="M21530 92981 c25 -14 344 -121 360 -120 18 0 -339 128 -360 128 l-15
0 15 -8z"/>
<path d="M21544 92889 c-3 -6 -4 -12 -3 -14 2 -1 201 -58 442 -126 l437 -122
7 6 c3 4 4 9 1 12 -4 4 -612 180 -840 243 l-38 10 -6 -9z"/>
<path d="M26350 91606 l0 -12 212 -61 c194 -56 247 -67 209 -43 -8 4 -71 24
-140 44 -69 20 -161 47 -203 60 l-78 24 0 -12z"/>
<path d="M26313 91563 l7 -6 7 6 6 7 -13 0 -13 0 6 -7z"/>
<path d="M26353 91553 l7 -6 7 6 6 7 -13 0 -13 0 6 -7z"/>
<path d="M26383 91543 l7 -6 7 6 6 7 -13 0 -13 0 6 -7z"/>
<path d="M26453 91523 l7 -6 7 6 6 7 -13 0 -13 0 6 -7z"/>
<path d="M26523 91503 l7 -6 7 6 6 7 -13 0 -13 0 6 -7z"/>
<path d="M27401 91066 c6 -6 608 -186 623 -186 7 0 61 -14 120 -31 60 -17 110
-28 112 -26 6 6 -109 41 -240 73 -56 14 -212 59 -348 100 -225 67 -279 82
-267 70z"/>
<path d="M30170 90510 c0 -5 1 -10 3 -10 1 0 72 -9 157 -20 l155 -20 73 0 72
0 0 10 0 10 -52 0 c-29 0 -123 9 -208 20 -85 11 -165 20 -177 20 l-23 0 0 -10z"/>
<path d="M31500 89920 c14 -4 36 -8 50 -8 l25 0 -25 8 c-14 4 -36 8 -50 8
l-25 0 25 -8z"/>
<path d="M31598 89903 l13 -5 6 6 6 6 -19 -1 -19 -1 13 -5z"/>
<path d="M31472 89885 c2 -3 87 -17 187 -31 l182 -27 12 13 12 13 -16 -6 -17
-6 -163 24 c-167 25 -206 29 -197 20z"/>
<path d="M33720 89618 l0 -13 107 -65 c59 -36 142 -93 185 -128 l78 -63 10 6
10 6 -82 67 -82 66 -105 64 c-58 35 -109 66 -113 69 l-8 4 0 -13z"/>
<path d="M38665 89420 l-6 -10 6 -19 6 -18 -11 -29 -11 -29 -27 -22 -27 -22
-21 -1 -21 0 -37 25 c-43 29 -46 30 -46 11 l0 -15 26 -20 27 -21 48 0 49 0 31
28 32 29 5 55 4 55 -10 7 -11 6 -6 -10z"/>
<path d="M86365 88979 l80 -11 195 -2 195 -3 105 -17 c58 -10 152 -29 209 -42
57 -14 106 -23 108 -20 3 3 -12 9 -33 15 -126 33 -172 42 -289 61 l-130 21
-145 -2 c-80 -2 -197 0 -260 3 l-115 7 80 -10z"/>
<path d="M86330 88940 c25 -4 97 -11 160 -14 l115 -7 85 10 85 9 -140 -1 c-77
-1 -187 1 -245 5 l-105 7 45 -9z"/>
<path d="M34790 88719 l-15 -9 164 -160 165 -160 8 8 8 8 -120 120 c-66 65
-127 122 -135 127 -8 4 -25 23 -38 42 l-23 34 -14 -10z"/>
<path d="M78502 88609 l4 -14 660 -231 c362 -127 661 -229 663 -227 3 2 0 7
-5 13 -5 5 -297 110 -649 233 -352 123 -648 228 -659 232 l-19 8 5 -14z"/>
<path d="M85053 88388 c-95 -176 -305 -609 -299 -615 2 -2 74 137 159 309 86
172 174 346 196 386 22 39 37 72 33 72 -4 0 -44 -69 -89 -152z"/>
<path d="M78980 88496 l0 -12 328 -113 c180 -63 376 -131 435 -152 l109 -39
-4 12 -4 12 -250 88 c-137 49 -331 118 -431 153 l-183 64 0 -13z"/>
<path d="M83866 87932 c-59 -293 -196 -910 -390 -1744 l-55 -237 -29 -73 c-30
-73 -297 -629 -417 -868 l-63 -125 -32 -113 -32 -114 6 -6 c10 -9 12 -2 46
118 17 63 38 124 45 136 7 11 85 168 173 350 88 181 195 400 237 488 l77 158
34 137 c18 75 97 413 175 751 l141 615 87 427 87 428 -12 4 -11 4 -67 -336z"/>
<path d="M98022 87962 c113 -186 224 -362 231 -362 4 0 -23 48 -60 108 -36 59
-91 148 -122 199 -31 51 -60 92 -64 93 l-8 0 23 -38z"/>
<path d="M83797 87830 c-7 -16 -71 -300 -159 -700 -29 -129 -53 -237 -54 -238
-3 -4 -89 26 -563 197 -204 74 -252 87 -225 62 5 -5 92 -38 194 -74 102 -36
264 -94 360 -128 96 -34 188 -66 203 -72 l28 -9 -6 -16 c-3 -9 -23 -95 -45
-191 -21 -97 -70 -302 -109 -456 l-69 -280 -38 -90 c-21 -49 -131 -277 -245
-505 l-207 -415 -31 -106 c-17 -59 -31 -114 -31 -123 l0 -16 8 0 9 0 32 111
32 112 221 446 c121 245 234 480 250 521 l29 75 70 285 c39 156 88 363 109
460 l38 175 11 -2 11 -3 0 15 0 15 -11 0 -10 0 4 8 c5 7 58 241 162 716 l46
209 -4 16 -4 16 -6 -15z"/>
<path d="M84458 87218 c-47 -90 -111 -223 -143 -296 l-58 -134 -14 -5 -13 -5
-63 16 c-34 9 -156 42 -272 75 -190 53 -229 62 -213 46 6 -7 179 -55 397 -111
l174 -45 8 13 c5 7 39 81 75 163 37 83 101 214 142 293 41 79 72 145 70 148
-3 2 -43 -69 -90 -158z"/>
<path d="M84277 86933 c-20 -48 -41 -94 -46 -101 l-8 -13 -74 21 c-75 20 -96
24 -87 15 7 -7 144 -45 161 -45 l14 0 42 96 c23 52 41 100 39 105 l-3 10 -38
-88z"/>
<path d="M85924 86471 c-178 -84 -285 -145 -506 -289 -162 -105 -197 -132
-168 -132 5 0 81 46 168 103 192 126 320 198 514 291 l147 71 -7 11 -7 11
-141 -66z"/>
<path d="M57990 85668 l0 -14 203 -23 c111 -12 217 -25 235 -28 l32 -5 0 14 0
14 -202 23 c-112 12 -218 25 -235 28 l-33 5 0 -14z"/>
<path d="M81250 85456 c0 -3 330 -116 390 -133 l15 -5 -15 10 c-16 11 -367
132 -381 132 -5 0 -9 -2 -9 -4z"/>
<path d="M61310 85291 l0 -9 63 -6 c34 -3 125 -7 202 -10 l140 -5 40 8 40 8
-15 6 c-8 3 -117 8 -242 12 l-228 6 0 -10z"/>
<path d="M61310 85242 l0 -10 58 -6 c31 -4 136 -8 234 -9 l176 -2 8 8 c4 4 5
9 3 11 -2 2 -111 6 -241 10 l-238 7 0 -9z"/>
<path d="M80041 84728 c-34 -101 -61 -190 -61 -199 l0 -17 18 -7 c9 -4 116
-42 237 -85 121 -43 229 -82 240 -86 l20 -7 -10 11 c-5 5 -116 47 -245 93
-129 45 -239 86 -244 90 l-8 7 62 187 c34 102 60 189 57 191 -3 3 -32 -77 -66
-178z"/>
<path d="M80078 84714 l-56 -175 12 -5 c195 -72 892 -314 899 -311 5 1 -193
74 -442 162 l-451 159 0 11 c0 6 24 84 54 173 l55 162 -8 0 c-4 0 -32 -79 -63
-176z"/>
<path d="M82698 84633 c-18 -15 -34 -27 -35 -27 0 -1 -4 -18 -8 -38 l-7 -38
11 0 11 0 6 24 6 24 28 27 28 27 43 3 c57 4 56 4 39 15 l-15 10 -37 0 -36 0
-34 -27z"/>
<path d="M90200 84379 l0 -8 38 -10 c20 -6 125 -35 232 -65 166 -47 219 -59
199 -43 -2 2 -109 33 -236 69 l-233 65 0 -8z"/>
<path d="M78402 83573 c-66 -188 -78 -234 -53 -207 5 5 34 81 64 169 31 88 62
179 71 203 l15 42 -13 0 -12 0 -72 -207z"/>
<path d="M415 83620 l-7 -12 93 -95 94 -94 79 -56 78 -55 10 10 9 9 -68 48
-68 48 -106 104 -106 105 -8 -12z"/>
<path d="M76685 82773 c-121 -196 -230 -373 -243 -395 l-23 -38 8 0 c11 0 485
770 481 781 -2 5 -102 -152 -223 -348z"/>
<path d="M15457 82963 l-8 -7 188 -124 188 -124 71 -34 70 -34 60 -1 59 0 85
15 c47 9 88 16 93 16 4 0 7 6 7 13 l0 14 -107 -19 -108 -18 -49 6 -48 6 -46
20 c-25 11 -131 77 -236 145 -208 136 -209 137 -219 126z"/>
<path d="M17570 82242 l0 -7 323 -83 c311 -79 535 -132 563 -132 8 0 14 3 14
8 l0 7 -158 34 c-86 18 -285 66 -441 107 -301 78 -301 78 -301 66z"/>
<path d="M75282 81799 c-40 -117 -71 -214 -68 -216 5 -5 147 408 144 419 -2 5
-36 -87 -76 -203z"/>
<path d="M79873 81567 c14 -36 77 -301 77 -324 l0 -24 10 6 10 6 0 27 c-1 15
-18 92 -38 171 l-37 145 -14 4 -14 5 6 -16z"/>
<path d="M95992 81113 c-21 -32 -181 -257 -355 -501 -268 -373 -356 -501 -325
-472 13 12 720 1003 725 1016 l5 14 -6 0 c-3 0 -23 -26 -44 -57z"/>
<path d="M95463 80437 c-17 -24 -67 -94 -112 -155 -45 -62 -78 -112 -73 -112
4 0 59 70 120 155 62 85 108 155 104 155 -5 0 -22 -20 -39 -43z"/>
<path d="M7146 80422 l-5 -8 107 -81 c59 -44 144 -106 189 -137 l81 -57 7 11
c4 6 5 13 4 14 -2 2 -49 34 -104 72 -55 38 -137 97 -182 131 -85 66 -89 68
-97 55z"/>
<path d="M99701 79393 c-51 -117 -92 -216 -90 -218 6 -5 190 416 187 425 -2 4
-45 -89 -97 -207z"/>
<path d="M70516 78642 c-3 -5 -37 -82 -75 -171 l-70 -163 -6 -46 -5 -47 9 20
c5 11 10 30 10 42 l1 23 75 172 c41 94 73 173 71 175 -2 3 -7 0 -10 -5z"/>
<path d="M70482 78464 l-73 -167 -4 -46 -5 -46 18 65 c10 36 47 128 81 204 34
77 60 144 58 149 -1 5 -35 -67 -75 -159z"/>
<path d="M13112 78258 c-5 -18 -58 -206 -117 -418 -59 -211 -110 -391 -113
-400 l-5 -15 11 10 10 10 116 419 c64 230 115 421 112 423 -2 3 -9 -10 -14
-29z"/>
<path d="M13151 78248 c-31 -99 -111 -404 -109 -416 l3 -14 62 228 c35 125 61
229 59 231 -2 3 -9 -11 -15 -29z"/>
<path d="M45295 77402 c14 -14 684 -294 695 -290 7 2 -644 281 -693 297 l-12
4 10 -11z"/>
<path d="M74103 77268 c-27 -30 -93 -134 -93 -148 0 -5 3 -10 8 -10 10 1 113
162 109 173 l-2 8 -22 -23z"/>
<path d="M45665 77203 c14 -14 305 -135 316 -131 8 3 -246 113 -311 136 l-15
5 10 -10z"/>
<path d="M78670 76567 l-55 -70 -46 -37 -46 -36 -82 -34 -81 -34 0 -8 0 -8 38
16 c20 8 59 25 87 36 27 10 66 32 86 47 l37 27 66 81 66 82 -8 4 -7 5 -55 -71z"/>
<path d="M74380 76543 c0 -5 52 -38 115 -75 l114 -66 6 6 5 6 -62 36 c-35 20
-89 51 -120 69 l-58 32 0 -8z"/>
<path d="M31040 74791 c0 -10 4 -12 100 -46 61 -22 316 -95 332 -95 5 0 8 4 8
8 l0 9 -127 33 c-71 18 -170 48 -220 66 l-93 34 0 -9z"/>
<path d="M36640 72831 c0 -24 37 -181 45 -189 15 -16 13 15 -7 107 l-23 101
-7 0 -8 0 0 -19z"/>
<path d="M68942 69638 l-143 -149 8 -12 7 -11 148 154 c81 85 148 158 148 163
0 4 -6 7 -12 6 l-13 -1 -143 -150z"/>
<path d="M48445 67900 c44 -4 147 -10 230 -13 l150 -6 -72 9 c-39 4 -143 10
-230 13 l-158 6 80 -9z"/>
<path d="M0 67520 l0 -10 25 0 25 0 0 10 0 10 -25 0 -25 0 0 -10z"/>
<path d="M39448 67150 l-77 -9 -31 -16 -31 -16 6 -8 5 -9 42 15 43 15 67 5 66
6 112 -13 111 -12 7 7 6 6 -13 8 c-7 5 -47 11 -90 15 -42 4 -92 9 -111 11 -19
2 -70 -1 -112 -5z"/>
<path d="M94344 67035 c2 -16 19 -122 36 -235 l33 -205 9 -10 9 -10 -5 25 c-3
14 -20 113 -36 220 -17 107 -35 206 -41 220 l-9 25 4 -30z"/>
<path d="M38452 66914 l-214 -12 -6 -8 -7 -7 90 6 c50 4 152 10 228 13 l137 7
0 8 c0 5 -3 8 -7 8 -5 -1 -104 -8 -221 -15z"/>
<path d="M42545 66872 c13 -12 478 -151 645 -192 69 -17 135 -35 148 -40 l22
-10 0 8 c0 11 -47 26 -210 67 -80 20 -242 65 -360 101 -118 35 -224 67 -235
70 l-20 6 10 -10z"/>
<path d="M37060 66799 c-80 -5 -154 -10 -165 -13 -32 -7 333 6 389 14 l51 8
-65 -1 c-36 0 -130 -4 -210 -8z"/>
<path d="M83634 66740 c3 -14 22 -119 41 -235 32 -186 45 -246 45 -205 0 7
-16 110 -36 229 l-37 216 -9 10 -9 10 5 -25z"/>
<path d="M4717 66391 c-64 -103 -117 -190 -117 -194 0 -26 30 15 127 171 60
97 113 182 117 189 l6 12 -8 5 -8 5 -117 -188z"/>
<path d="M49383 66392 c-51 -86 -131 -221 -178 -299 -46 -79 -81 -143 -77
-143 10 0 354 581 350 591 -2 4 -45 -63 -95 -149z"/>
<path d="M41247 66433 c-12 -11 -8 -23 7 -23 l14 0 6 15 5 15 -13 0 c-7 0 -16
-3 -19 -7z"/>
<path d="M41280 66356 c27 -24 262 -168 267 -163 3 3 -15 18 -39 33 -23 15
-84 53 -135 86 -89 56 -123 72 -93 44z"/>
<path d="M97702 66296 c-117 -29 -215 -56 -219 -59 l-6 -7 6 -6 6 -7 188 47
c103 26 205 51 226 57 l37 10 0 9 0 10 -12 -1 c-7 0 -109 -24 -226 -53z"/>
<path d="M44265 66331 c13 -12 377 -123 383 -116 6 6 15 3 -193 65 -93 28
-177 53 -185 56 l-15 5 10 -10z"/>
<path d="M44245 66293 l10 -11 193 -55 192 -54 0 6 c0 4 -84 31 -187 60 -103
30 -194 56 -203 59 l-15 5 10 -10z"/>
<path d="M97468 66145 l-6 -10 41 -203 41 -202 12 0 12 0 -30 138 c-16 75 -37
171 -46 212 l-18 75 -6 -10z"/>
<path d="M51479 65935 l-87 -195 7 -4 7 -5 84 191 c102 229 93 208 83 208 l-8
-1 -86 -194z"/>
<path d="M49155 65933 c18 -18 328 -235 344 -240 l16 -6 -10 10 c-19 18 -329
235 -345 241 l-15 5 10 -10z"/>
<path d="M49130 65906 c0 -3 79 -61 175 -130 96 -69 175 -122 175 -117 0 4
-73 60 -162 123 -177 124 -188 132 -188 124z"/>
<path d="M47000 65510 l-101 -151 3 -11 4 -10 102 157 c57 87 101 160 98 162
-2 3 -50 -63 -106 -147z"/>
<path d="M47630 65451 c29 -18 483 -201 488 -196 3 2 -6 9 -19 14 -13 5 -117
47 -230 94 -113 46 -216 88 -230 91 l-24 7 15 -10z"/>
<path d="M74786 64968 c-17 -184 -30 -446 -22 -437 7 7 38 490 33 496 -3 2 -8
-24 -11 -59z"/>
<path d="M47805 64582 c6 -5 64 -32 130 -60 66 -28 157 -66 203 -86 l82 -35 0
7 c0 6 -363 165 -413 181 l-12 4 10 -11z"/>
<path d="M47783 64543 c11 -10 422 -181 426 -177 2 2 2 5 0 7 -8 6 -419 177
-425 177 l-7 0 6 -7z"/>
<path d="M40690 64527 c0 -4 20 -65 45 -137 l44 -131 7 -49 7 -50 -72 0 -71 0
0 -9 0 -10 23 -3 22 -3 -40 -24 c-22 -13 -48 -35 -58 -48 l-19 -24 18 -27 c26
-40 217 -252 222 -247 3 2 -46 61 -107 130 l-111 126 0 12 c1 21 23 43 76 76
l51 31 31 0 31 0 10 18 10 19 -14 59 c-20 88 -105 322 -105 291z"/>
<path d="M37525 64511 l-7 -13 8 -8 9 -8 200 -11 c110 -6 212 -11 228 -11 l27
0 0 19 0 18 -115 7 c-63 3 -166 9 -229 12 l-113 7 -8 -12z"/>
<path d="M79168 64117 l-418 -51 0 -8 0 -8 20 0 c11 0 206 22 432 50 227 27
419 50 426 50 l12 0 0 10 0 10 -27 -1 c-16 -1 -216 -24 -445 -52z"/>
<path d="M40240 64118 c0 -36 4 -35 14 5 l6 27 -10 0 -10 0 0 -32z"/>
<path d="M89355 64064 c-36 -38 -65 -73 -65 -79 0 -5 29 21 63 59 l63 69 12
-7 c18 -11 415 -475 445 -521 15 -22 27 -35 27 -29 0 22 -80 124 -261 334
-102 118 -193 221 -203 229 l-17 14 -64 -69z"/>
<path d="M88720 64049 c89 -169 235 -397 247 -385 2 2 -16 32 -41 66 -26 34
-80 123 -122 196 -42 74 -81 137 -86 140 l-10 6 12 -23z"/>
<path d="M36920 63874 c0 -5 -18 -128 -40 -274 -21 -145 -37 -266 -35 -269 8
-8 14 25 50 283 l36 258 -6 6 -5 5 0 -9z"/>
<path d="M89621 63833 c102 -114 165 -190 204 -249 l45 -69 0 13 c0 7 -15 35
-34 63 -46 69 -217 269 -229 269 l-11 0 25 -27z"/>
<path d="M34801 63633 c-12 -104 -25 -196 -27 -205 l-5 -18 8 0 9 0 22 188
c13 103 26 195 28 205 l5 17 -8 0 -9 0 -23 -187z"/>
<path d="M41710 63630 l0 -13 7 6 6 7 -6 7 -7 6 0 -13z"/>
<path d="M41760 63574 c0 -6 12 -21 26 -35 14 -13 59 -68 100 -123 41 -54 74
-94 74 -88 0 13 -104 153 -158 212 l-41 45 -1 -11z"/>
<path d="M41197 63494 c-80 -69 -95 -84 -83 -84 3 0 42 32 87 70 45 39 82 70
84 68 13 -18 221 -246 233 -255 9 -7 20 -13 25 -13 l9 0 -20 18 c-15 13 -142
153 -241 264 l-7 8 -87 -76z"/>
<path d="M16647 63493 l-7 -6 0 -99 0 -98 9 0 10 0 3 105 3 105 -6 0 c-3 0 -9
-3 -12 -7z"/>
<path d="M16357 63315 l-17 -36 0 -37 0 -37 20 -32 20 -33 15 0 c21 0 19 7
-10 42 l-25 30 0 29 0 30 20 39 20 40 -13 0 -13 0 -17 -35z"/>
<path d="M41999 63333 c24 -46 510 -597 518 -589 3 3 -85 105 -194 228 -110
123 -227 258 -262 301 -61 75 -81 95 -62 60z"/>
<path d="M16705 63277 l-8 -18 6 -51 c6 -49 12 -66 21 -57 3 2 1 36 -3 74 l-8
70 -8 -18z"/>
<path d="M40931 63166 l-12 -14 151 -172 152 -171 14 12 14 11 -13 17 c-16 23
-288 331 -292 331 -1 0 -8 -6 -14 -14z"/>
<path d="M41545 63140 c3 -5 11 -10 16 -10 l10 0 -6 10 c-3 6 -11 10 -16 10
l-10 0 6 -10z"/>
<path d="M40907 63104 l-6 -6 17 -27 c16 -26 82 -104 82 -97 0 11 -45 104 -58
119 -16 18 -25 21 -35 11z"/>
<path d="M16710 63055 l0 -45 10 0 10 0 0 45 0 45 -10 0 -10 0 0 -45z"/>
<path d="M13385 63069 l-69 -9 -11 -11 -10 -12 30 7 c30 6 214 23 330 29 l60
3 -130 1 -130 0 -70 -8z"/>
<path d="M15077 63023 c-4 -3 -7 -19 -7 -34 l0 -28 10 -6 11 -7 -2 41 c-2 23
-4 41 -4 41 -1 0 -5 -3 -8 -7z"/>
<path d="M42220 63015 c0 -11 263 -306 268 -300 6 6 12 -2 -138 170 -106 122
-130 146 -130 130z"/>
<path d="M16720 62919 l0 -30 10 6 10 6 0 25 0 24 -10 0 -10 0 0 -31z"/>
<path d="M59041 62936 c3 -3 85 -12 184 -20 99 -9 200 -19 225 -22 l45 -6 -10
10 -10 9 -205 17 c-220 18 -236 18 -229 12z"/>
<path d="M58695 62900 c-27 -14 -144 -91 -260 -171 l-210 -144 -215 -173
c-118 -96 -217 -179 -219 -185 -2 -6 18 7 45 28 27 22 127 102 222 179 l172
138 412 -177 c227 -98 416 -180 421 -182 4 -2 7 -1 7 4 l-1 8 -409 175 c-225
96 -410 178 -410 181 0 7 312 222 395 272 34 20 73 40 87 46 l26 10 93 -9 c52
-5 135 -11 184 -15 50 -3 164 -13 255 -20 91 -8 174 -15 184 -15 l19 0 -5 5
c-3 3 -106 15 -229 25 -123 11 -289 26 -369 33 l-145 13 -50 -26z"/>
<path d="M3455 62859 c-22 -12 -44 -25 -49 -30 l-10 -9 6 -6 6 -5 44 22 43 22
62 1 63 1 0 13 0 12 -63 0 -62 0 -40 -21z"/>
<path d="M58389 62747 c-97 -67 -175 -124 -173 -126 4 -4 285 184 344 229 l25
20 -10 -1 c-5 0 -89 -55 -186 -122z"/>
<path d="M41013 62839 c3 -10 11 -35 18 -58 7 -23 18 -46 26 -53 l13 -11 6 6
6 6 -11 33 c-6 18 -23 47 -37 63 l-26 30 5 -16z"/>
<path d="M59945 62820 l-4 -7 167 -12 c92 -6 194 -14 227 -18 l60 -6 -7 8 -7
8 -216 16 -216 17 -4 -6z"/>
<path d="M12853 62813 l7 -6 7 6 6 7 -13 0 -13 0 6 -7z"/>
<path d="M12530 62800 l-45 -8 165 6 c91 2 167 6 169 8 8 7 -243 1 -289 -6z"/>
<path d="M10873 62743 l-193 -3 0 -11 0 -11 193 7 192 7 10 9 9 9 -9 -2 c-6
-2 -97 -4 -202 -5z"/>
<path d="M42439 62704 c-8 -10 -130 -116 -271 -237 l-257 -219 -7 -20 c-3 -11
-4 -22 -1 -25 3 -2 8 4 11 15 l7 20 222 190 c122 105 245 210 272 235 l50 45
-6 6 -6 6 -14 -16z"/>
<path d="M42220 62459 c-96 -83 -186 -162 -200 -176 l-25 -27 20 15 c19 14
345 288 374 315 8 8 13 16 10 18 -2 2 -83 -63 -179 -145z"/>
<path d="M89022 62421 c2 -5 81 -75 176 -156 l174 -146 11 4 11 3 -180 152
c-98 84 -183 152 -187 152 l-9 0 4 -9z"/>
<path d="M44721 61923 c6 -18 349 -393 360 -393 9 0 -248 288 -339 380 l-24
25 3 -12z"/>
<path d="M40097 61872 c-23 -22 -69 -55 -103 -74 l-60 -35 -97 -24 c-53 -12
-97 -26 -97 -30 l0 -7 108 28 107 27 46 27 c25 14 72 48 103 76 l57 50 -11 0
c-6 0 -29 -17 -53 -38z"/>
<path d="M59856 61814 c-32 -36 -101 -126 -152 -201 l-94 -136 0 -20 0 -21 18
35 c28 55 179 267 240 337 30 34 53 65 50 67 -2 3 -31 -25 -62 -61z"/>
<path d="M59925 61842 c14 -14 325 -146 330 -140 4 4 -280 130 -329 147 l-11
4 10 -11z"/>
<path d="M4450 61711 c0 -11 318 -301 330 -301 25 0 0 27 -151 164 -151 137
-179 158 -179 137z"/>
<path d="M93926 61511 l-148 -148 12 -8 12 -7 7 8 c4 5 69 73 145 150 l137
142 -8 5 -9 6 -148 -148z"/>
<path d="M62570 61640 l-15 -10 18 0 17 0 0 10 c0 12 -1 12 -20 0z"/>
<path d="M61101 61608 c-1 -7 81 -387 95 -444 4 -14 9 -23 11 -20 6 5 -84 422
-97 451 -5 11 -9 17 -9 13z"/>
<path d="M45440 61094 c-245 -211 -447 -390 -449 -397 l-4 -12 29 26 c16 14
211 183 434 374 223 191 416 358 430 371 l25 24 -10 0 c-6 -1 -210 -174 -455
-386z"/>
<path d="M60697 61458 l-18 -10 -42 7 -42 6 19 -16 20 -15 30 0 31 1 18 13 18
14 -8 5 -8 5 -18 -10z"/>
<path d="M54671 60859 c-2 -10 90 -413 95 -418 9 -9 3 24 -36 202 -35 156 -57
238 -59 216z"/>
<path d="M30553 60755 l-152 -62 -55 -42 c-30 -23 -60 -49 -67 -57 l-11 -14 7
0 c4 0 24 15 45 34 54 49 109 78 255 136 72 29 132 54 134 56 17 16 -24 3
-156 -51z"/>
<path d="M34700 60761 c8 -5 51 -19 95 -31 l80 -22 129 -14 c71 -8 131 -12
133 -10 6 6 -35 12 -164 26 l-103 11 -82 24 c-46 14 -87 25 -93 24 l-10 0 15
-8z"/>
<path d="M86267 60418 c81 -90 166 -185 188 -213 58 -74 286 -315 298 -315 5
0 -37 48 -94 108 -57 59 -138 148 -179 197 -103 124 -342 385 -353 385 -5 0
58 -73 140 -162z"/>
<path d="M86100 60551 c0 -9 297 -341 306 -341 11 0 -6 21 -151 180 -85 94
-155 166 -155 161z"/>
<path d="M62083 60257 c-354 -72 -643 -134 -643 -138 0 -7 1266 247 1295 260
l20 10 -15 -1 c-8 0 -304 -59 -657 -131z"/>
<path d="M44410 60199 c-74 -67 -137 -126 -139 -133 l-4 -11 29 25 c70 62 231
205 249 222 l19 18 -9 0 c-6 0 -71 -55 -145 -121z"/>
<path d="M63564 60260 c17 -74 86 -406 86 -414 l0 -9 6 6 7 6 -43 208 c-24
114 -47 213 -52 218 l-9 10 5 -25z"/>
<path d="M58642 60190 c-18 -4 -36 -10 -39 -14 l-6 -6 38 3 38 2 43 -80 c36
-66 147 -302 236 -503 11 -24 22 -42 24 -39 8 8 -289 650 -299 646 -1 -1 -17
-5 -35 -9z"/>
<path d="M61855 60171 c-11 -4 -108 -25 -215 -47 -107 -21 -188 -40 -180 -41
8 -2 105 15 214 37 110 22 200 39 201 37 1 -1 35 -165 76 -365 l75 -362 -35
-9 c-20 -5 -214 -46 -431 -91 l-395 -82 -10 -11 -10 -10 15 5 c8 3 205 45 437
93 l423 89 7 -7 7 -7 -10 -9 c-5 -4 -201 -48 -436 -97 l-428 -89 0 -7 0 -6 18
4 c93 22 830 174 844 174 10 0 18 -2 18 -4 0 -3 22 -101 49 -218 27 -117 59
-267 71 -333 l22 -120 10 -10 10 -10 -5 20 c-3 11 -18 83 -32 160 -14 77 -44
219 -66 315 -23 96 -42 186 -44 200 -2 14 -5 25 -6 25 -1 0 -3 9 -5 20 -2 11
-37 180 -79 375 -41 195 -74 361 -72 369 l2 14 -10 3 c-5 1 -19 -1 -30 -5z"/>
<path d="M83370 59965 c0 -13 46 -93 136 -236 105 -168 104 -167 104 -152 0 5
-41 74 -91 153 -49 79 -101 165 -115 192 -22 43 -34 58 -34 43z"/>
<path d="M83346 59918 c29 -59 218 -358 226 -358 4 0 -35 68 -87 150 -53 83
-105 171 -117 195 -12 25 -26 45 -30 45 l-9 0 17 -32z"/>
<path d="M58850 59931 c0 -7 44 -113 98 -235 55 -121 123 -279 152 -351 30
-71 54 -131 55 -133 1 -1 220 42 486 97 266 55 475 100 464 100 -11 1 -223
-40 -470 -89 -248 -50 -456 -89 -463 -88 l-14 3 -72 175 c-96 230 -236 539
-236 521z"/>
<path d="M43542 59888 l-24 -28 10 0 c13 0 45 37 41 48 l-4 9 -23 -29z"/>
<path d="M63620 59824 c0 -24 95 -444 100 -444 l7 0 -48 222 c-43 194 -59 254
-59 222z"/>
<path d="M62765 59539 c-77 -16 -164 -34 -193 -40 -30 -6 -52 -13 -49 -15 2
-3 93 12 201 33 l196 37 0 8 c0 10 12 12 -155 -23z"/>
<path d="M49429 59275 c-89 -119 -159 -218 -157 -221 6 -5 76 82 228 286 51
69 97 131 103 138 l9 12 -11 0 -11 0 -161 -215z"/>
<path d="M62074 59395 c28 -96 160 -716 153 -721 -1 0 -87 -18 -192 -38 -202
-40 -688 -159 -718 -176 -9 -6 -104 -28 -210 -50 -105 -22 -201 -45 -212 -50
l-20 -10 25 4 c166 32 382 80 410 91 84 34 742 186 910 210 8 1 22 5 30 8 8 3
195 42 415 87 220 45 402 84 404 86 10 10 -46 -1 -422 -77 l-397 -82 -6 5 c-3
3 -23 93 -44 199 -21 107 -55 266 -75 354 l-37 160 -10 10 -10 10 6 -20z"/>
<path d="M59388 59231 c-124 -25 -230 -49 -234 -53 l-7 -8 8 0 c5 0 116 21
247 46 l238 46 0 9 0 9 -12 -1 c-7 -1 -115 -22 -240 -48z"/>
<path d="M45625 59149 l70 -70 115 -82 c63 -46 121 -87 129 -91 l14 -9 -6 10
c-4 6 -60 49 -124 96 l-118 85 -65 66 c-35 36 -69 66 -74 66 l-10 0 69 -71z"/>
<path d="M83830 59179 c0 -3 86 -169 191 -369 105 -200 198 -383 206 -407 9
-24 18 -42 21 -39 11 11 -37 112 -215 451 -165 313 -203 381 -203 364z"/>
<path d="M83804 59145 c4 -11 88 -175 188 -364 99 -189 188 -367 198 -395 l19
-51 0 16 c2 34 -31 103 -214 449 -177 336 -208 392 -191 345z"/>
<path d="M49160 58848 c-74 -100 -148 -199 -163 -220 -16 -21 -25 -38 -20 -38
7 1 109 135 306 402 16 21 25 38 20 38 -4 -1 -69 -82 -143 -182z"/>
<path d="M92020 58895 c0 -3 -29 -105 -65 -226 l-66 -221 6 -6 5 -5 6 5 c6 6
134 435 134 449 0 5 -4 9 -10 9 -5 0 -10 -2 -10 -5z"/>
<path d="M50380 58844 c0 -5 75 -65 165 -134 l166 -125 77 -21 c42 -12 119
-33 171 -48 l95 -26 -10 10 c-5 5 -83 30 -172 55 l-163 46 -152 116 c-84 64
-158 120 -164 126 l-13 9 0 -8z"/>
<path d="M63941 58473 c-1 -12 22 -129 49 -260 28 -131 89 -425 135 -653 140
-681 178 -865 182 -869 1 -2 6 -2 9 1 l5 6 -40 188 c-22 104 -56 261 -75 349
-19 88 -82 399 -141 690 -58 292 -110 539 -115 550 l-9 20 0 -22z"/>
<path d="M55481 58466 c8 -8 412 -116 416 -112 5 5 -62 25 -263 80 -121 33
-164 42 -153 32z"/>
<path d="M61333 58415 c4 -11 20 -87 37 -170 39 -192 40 -198 46 -192 3 2 -12
85 -32 183 l-36 179 -10 10 -10 10 5 -20z"/>
<path d="M60665 58278 l-189 -40 -4 11 c-2 6 -7 11 -12 11 l-9 0 5 -32 4 -32
-16 -17 -16 -18 -16 6 c-10 3 -25 13 -35 22 l-18 15 4 18 5 18 -9 0 -9 0 0
-21 c0 -11 4 -29 10 -39 l10 -18 31 -7 31 -7 24 23 24 22 0 17 0 17 188 38
c103 20 194 41 202 46 l15 8 -15 0 c-8 -1 -100 -19 -205 -41z"/>
<path d="M63021 58010 c-161 -35 -219 -50 -184 -50 18 0 397 81 402 85 10 10
-41 2 -218 -35z"/>
<path d="M63990 58027 c0 -13 226 -1115 255 -1242 19 -88 51 -236 71 -330 38
-185 42 -200 49 -193 5 5 -44 243 -145 708 -33 151 -87 415 -120 585 -33 171
-67 347 -76 393 l-17 82 -8 0 c-5 0 -9 -1 -9 -3z"/>
<path d="M63364 57928 c3 -13 25 -114 48 -225 l43 -203 7 0 c13 0 10 20 -37
237 -25 114 -45 209 -45 210 0 2 -5 3 -11 3 l-11 0 6 -22z"/>
<path d="M35765 57880 l-60 -9 -85 -30 c-47 -16 -80 -30 -74 -30 6 -1 42 10
81 23 l70 24 107 12 108 12 66 -7 67 -7 235 -88 c129 -49 244 -92 255 -96 l20
-7 -10 10 c-5 5 -122 52 -260 104 l-250 94 -105 2 -105 1 -60 -8z"/>
<path d="M55900 57839 c-113 -16 -299 -40 -415 -54 -186 -23 -255 -35 -200
-35 23 0 367 40 653 77 l212 26 0 9 0 8 -22 -1 c-13 -1 -115 -14 -228 -30z"/>
<path d="M62131 57782 c-117 -25 -209 -48 -202 -50 13 -4 406 75 436 88 l20 9
-20 -1 c-11 0 -116 -21 -234 -46z"/>
<path d="M55490 57749 c-118 -16 -216 -28 -217 -29 -2 0 -3 -4 -3 -8 l0 -8
216 27 c194 24 236 32 223 42 -2 2 -101 -9 -219 -24z"/>
<path d="M50947 57685 c9 -19 19 -33 21 -30 7 7 -19 65 -29 65 l-9 0 17 -35z"/>
<path d="M50916 57513 c-20 -49 -52 -115 -71 -148 l-33 -60 -29 -27 c-15 -14
-136 -92 -267 -173 l-240 -147 -167 -157 -166 -156 4 -8 4 -7 24 12 c12 7 88
74 167 148 l143 135 250 154 c138 84 261 163 273 175 31 28 80 117 131 238 46
109 46 108 27 108 l-13 0 -37 -87z"/>
<path d="M49940 57536 c0 -10 224 -91 389 -141 215 -65 231 -72 294 -133 l47
-46 0 10 c0 5 -21 30 -47 55 l-48 45 -37 16 c-20 9 -121 42 -225 73 -103 30
-227 71 -276 90 -88 35 -97 38 -97 31z"/>
<path d="M38055 57225 l3 -60 -29 -111 c-16 -61 -72 -235 -124 -385 -89 -258
-102 -300 -90 -287 12 11 213 610 234 696 l23 92 -10 58 -11 57 4 -60z"/>
<path d="M53032 57251 c2 -5 99 -57 217 -116 l213 -106 6 6 c3 3 3 7 1 9 -7 7
-363 183 -403 200 l-38 16 4 -9z"/>
<path d="M54014 57243 c4 -12 43 -96 87 -187 l79 -165 19 -11 20 -10 28 1 28
1 -34 8 -33 8 -18 18 c-9 11 -52 93 -95 184 -77 164 -94 195 -81 153z"/>
<path d="M50700 57169 c-24 -18 -92 -60 -152 -95 -59 -35 -141 -85 -181 -113
l-74 -50 -33 -40 -32 -41 14 0 13 1 25 33 24 33 86 56 c47 30 126 79 175 108
83 48 195 126 195 135 0 11 -21 1 -60 -27z"/>
<path d="M46548 56905 c-2 -3 10 -105 28 -228 19 -122 34 -225 34 -229 0 -5 7
-8 15 -8 l15 0 0 19 c0 37 -40 296 -56 366 -16 69 -26 90 -36 80z"/>
<path d="M50200 56822 c0 -4 43 -29 96 -55 l96 -48 6 5 c8 8 7 9 -95 60 -98
49 -103 51 -103 38z"/>
<path d="M50193 56787 c-5 -6 -14 -24 -21 -39 l-12 -28 9 0 c5 0 18 16 30 35
l20 34 -8 6 -9 5 -9 -13z"/>
<path d="M50089 56703 l-27 -4 -17 -19 -17 -19 33 9 34 10 71 0 71 0 57 -20
c32 -11 73 -29 92 -41 l34 -20 11 7 11 7 -43 27 c-24 15 -66 34 -94 43 l-50
15 -70 5 c-38 2 -82 2 -96 0z"/>
<path d="M50140 56649 l0 -20 10 6 c6 3 10 13 10 21 l0 14 -10 0 -10 0 0 -21z"/>
<path d="M79450 56580 l-45 -30 -80 -27 -80 -27 -80 -13 -80 -12 75 3 75 3 96
33 96 33 39 33 c49 41 43 43 -16 4z"/>
<path d="M90646 56521 c5 -5 65 -34 134 -64 69 -30 147 -67 173 -82 26 -15 50
-25 53 -22 10 9 -334 177 -363 177 l-7 0 10 -9z"/>
<path d="M82730 56514 c0 -16 203 -851 212 -869 l8 -20 -4 25 c-2 14 -48 215
-102 448 l-98 422 -8 0 c-4 0 -8 -3 -8 -6z"/>
<path d="M64430 56242 l35 -17 3 -33 3 -34 -17 -19 -17 -19 -32 0 -31 0 -10
10 -10 10 -262 -52 c-144 -29 -262 -55 -262 -59 0 -3 116 17 259 46 l258 52
19 -14 19 -14 30 7 30 6 23 21 23 22 -6 35 -6 35 -21 18 -20 17 -22 0 -21 0
35 -18z"/>
<path d="M64347 56232 c-19 -21 -22 -42 -7 -42 6 0 10 5 10 12 0 6 7 20 17 30
l16 18 -10 0 c-5 0 -17 -8 -26 -18z"/>
<path d="M25080 56161 c0 -4 51 -32 113 -60 96 -45 151 -76 295 -169 l22 -14
0 8 c0 5 -45 37 -99 71 l-98 63 -117 55 -116 54 0 -8z"/>
<path d="M37195 56111 c-44 -11 -268 -101 -280 -113 l-10 -9 55 21 c158 63
220 85 270 96 l55 12 -30 0 c-16 0 -43 -3 -60 -7z"/>
<path d="M91460 56080 c29 -22 112 -93 185 -159 l132 -120 109 -78 c106 -77
242 -159 249 -151 2 2 -24 19 -58 38 -94 51 -276 190 -423 322 -128 116 -220
188 -238 188 -5 0 14 -18 44 -40z"/>
<path d="M29866 56035 c-17 -72 -70 -214 -104 -280 l-15 -30 16 13 16 13 35
84 c19 46 44 119 56 162 12 43 24 86 26 96 l5 17 -8 0 -9 0 -18 -75z"/>
<path d="M63794 56048 l-1 -32 -27 -23 c-15 -13 -34 -23 -42 -23 l-14 0 0 -11
0 -11 28 7 c37 9 59 31 72 71 l11 34 -6 10 c-3 5 -9 10 -13 10 l-7 0 -1 -32z"/>
<path d="M48445 55990 c4 -6 33 -24 64 -40 l58 -29 25 -30 c14 -16 49 -75 77
-130 l52 -101 10 0 10 0 -62 118 c-34 64 -69 125 -78 136 -14 16 -141 86 -156
86 l-6 0 6 -10z"/>
<path d="M25495 55882 c19 -19 348 -223 356 -220 8 3 -328 219 -352 226 l-14
5 10 -11z"/>
<path d="M62758 55806 c-228 -48 -269 -59 -257 -70 2 -2 127 21 277 52 l272
56 0 8 0 8 -22 -1 c-13 -1 -134 -25 -270 -53z"/>
<path d="M46943 55712 l-12 -7 34 -110 33 -110 65 -145 c35 -80 146 -314 246
-521 l183 -377 18 5 19 5 -34 71 c-18 40 -100 212 -183 382 -132 275 -292 624
-292 641 0 18 -52 174 -58 174 -4 0 -12 -4 -19 -8z"/>
<path d="M51181 55489 c-106 -121 -191 -222 -189 -225 4 -4 81 82 362 404 16
18 27 35 24 37 -3 3 -91 -94 -197 -216z"/>
<path d="M25990 55663 c0 -4 96 -77 213 -160 182 -131 246 -175 315 -217 l12
-7 0 8 c0 4 -18 18 -39 30 -32 19 -137 92 -448 317 -29 21 -53 34 -53 29z"/>
<path d="M25955 55616 l-8 -19 17 -31 17 -31 241 -165 c132 -91 242 -170 245
-177 l5 -12 -116 -169 c-64 -94 -116 -176 -116 -184 l0 -13 126 189 126 188
-14 13 c-7 7 -118 86 -247 174 -129 89 -240 170 -247 179 -7 10 -14 31 -16 47
l-4 30 -9 -19z"/>
<path d="M89527 55418 c-24 -46 -79 -150 -122 -231 l-77 -148 -67 -57 -67 -57
-107 -55 c-98 -51 -125 -70 -96 -70 6 0 62 27 123 60 l111 59 62 56 62 56 92
177 c50 97 105 200 121 229 l29 51 -10 6 -9 6 -45 -82z"/>
<path d="M50360 55334 c0 -5 57 -54 125 -109 l125 -100 11 -43 c6 -23 16 -45
21 -48 l10 -7 -7 24 c-4 13 -13 38 -20 55 l-12 30 -109 89 c-60 49 -117 95
-126 103 l-18 15 0 -9z"/>
<path d="M46976 55282 l-5 -9 123 -260 123 -260 7 -33 c3 -18 19 -54 34 -79
15 -25 43 -81 62 -123 19 -43 37 -77 40 -78 3 0 11 4 19 9 l14 9 -39 83 c-21
46 -51 105 -66 130 -16 25 -28 54 -28 64 0 9 -57 138 -126 286 l-127 269 -13
0 c-7 0 -15 -4 -18 -8z"/>
<path d="M93025 55272 c6 -5 93 -45 195 -87 102 -43 191 -82 198 -88 l12 -10
7 7 c3 3 4 7 2 9 -3 3 -222 95 -389 164 l-35 15 10 -10z"/>
<path d="M27135 55040 l30 -10 165 -10 c91 -5 180 -10 198 -10 l32 0 0 9 0 8
-187 7 c-104 3 -206 8 -228 11 l-40 5 30 -10z"/>
<path d="M52125 54742 l-140 -216 -137 -175 c-75 -97 -135 -178 -132 -180 2
-2 6 -2 7 0 2 2 62 78 133 169 l130 165 133 205 c74 113 141 215 149 228 l14
22 -8 0 c-5 -1 -72 -98 -149 -218z"/>
<path d="M48241 54858 c-101 -49 -181 -91 -179 -94 4 -3 356 161 367 172 20
19 -31 -2 -188 -78z"/>
<path d="M53223 54938 c-5 -7 -27 -41 -47 -76 -21 -34 -110 -169 -199 -300
-88 -130 -236 -355 -328 -499 -92 -144 -195 -299 -229 -343 -34 -45 -60 -83
-57 -86 9 -9 167 215 308 436 78 124 222 342 319 485 97 143 189 283 204 310
16 28 36 58 44 68 l15 17 -10 0 c-6 0 -15 -6 -20 -12z"/>
<path d="M47352 54921 l-13 -8 10 -24 c5 -13 12 -36 15 -51 l6 -28 10 0 10 0
0 38 -1 37 -12 22 -12 22 -13 -8z"/>
<path d="M52345 54880 c3 -5 10 -10 15 -10 5 0 68 -41 140 -91 72 -50 133 -89
136 -86 3 3 -14 18 -38 35 -198 135 -240 162 -249 162 l-10 0 6 -10z"/>
<path d="M47115 54801 l-5 -10 10 -23 11 -23 33 -23 c38 -26 46 -27 46 -8 l0
15 -29 21 -30 21 -6 19 c-7 21 -20 26 -30 11z"/>
<path d="M87850 54782 c0 -6 24 -55 53 -109 28 -53 71 -138 94 -187 l42 -91
-31 -26 -30 -25 -4 -45 -5 -44 13 -25 13 -25 36 -19 35 -19 27 7 27 6 0 10 0
10 -29 -6 -28 -6 -30 15 -29 16 -11 34 -10 34 12 30 c16 38 30 47 81 50 l41 3
27 -25 26 -24 0 -25 c0 -31 -18 -78 -33 -88 l-11 -7 7 -7 7 -7 14 12 c8 7 20
28 26 47 l12 34 -7 29 -6 28 -27 25 -27 26 -35 6 -36 6 -39 88 c-41 90 -141
280 -156 297 l-9 9 0 -12z"/>
<path d="M47303 54747 l-23 -10 0 -18 0 -17 30 11 c32 12 34 15 22 33 l-7 11
-22 -10z"/>
<path d="M32056 54692 c27 -25 364 -240 364 -233 0 9 -352 241 -366 241 l-8 0
10 -8z"/>
<path d="M50335 54670 l-6 -10 10 0 c6 0 11 5 11 10 0 6 -2 10 -4 10 -3 0 -8
-4 -11 -10z"/>
<path d="M18248 54621 l-187 -27 -8 -8 -8 -8 35 6 c19 3 118 17 220 31 101 14
186 28 189 30 8 9 -54 3 -241 -24z"/>
<path d="M81375 54587 c-110 -28 -195 -52 -190 -53 6 -2 105 21 220 50 116 30
201 54 190 54 -11 0 -110 -23 -220 -51z"/>
<path d="M47746 54513 c14 -38 35 -93 46 -123 l20 -55 43 -45 43 -45 47 -102
48 -103 8 0 9 0 -24 53 c-13 28 -36 78 -50 109 l-27 57 -43 48 -43 48 -21 58
c-12 31 -31 82 -43 112 l-20 55 -10 0 -9 0 26 -67z"/>
<path d="M85140 54446 l-165 -43 -67 -31 c-38 -17 -68 -33 -68 -36 0 -6 20 1
100 37 l55 24 155 38 c85 21 159 42 165 46 l9 9 -9 -1 c-6 0 -84 -20 -175 -43z"/>
<path d="M52960 54471 c0 -10 30 -24 37 -17 3 2 -5 9 -16 16 l-21 11 0 -10z"/>
<path d="M53036 54471 c22 -21 496 -322 500 -318 5 5 -490 327 -502 327 l-8 0
10 -9z"/>
<path d="M51493 54373 c11 -18 198 -166 203 -161 4 5 -160 141 -195 163 l-14
8 6 -10z"/>
<path d="M51341 54254 c-46 -52 -81 -97 -79 -99 3 -3 35 30 73 73 38 42 78 87
89 100 l19 22 -9 0 c-5 -1 -47 -44 -93 -96z"/>
<path d="M49125 54244 c-214 -108 -279 -144 -272 -150 5 -5 330 155 437 215
l55 31 -15 -1 c-8 0 -100 -43 -205 -95z"/>
<path d="M32760 54176 c0 -2 32 -30 70 -61 l70 -57 0 -13 0 -13 -71 -61 c-88
-76 -77 -81 14 -5 l67 56 0 22 0 22 -69 57 c-64 52 -81 64 -81 53z"/>
<path d="M62131 54168 c-1 -22 87 -449 94 -456 3 -3 5 -1 5 5 0 13 -89 444
-94 458 l-4 10 -1 -17z"/>
<path d="M51232 54070 l-22 -19 11 -6 11 -7 20 20 20 20 -9 5 -8 5 -23 -18z"/>
<path d="M47707 54023 l-5 -8 147 -305 c321 -664 1064 -2195 1067 -2199 2 -2
12 0 23 5 l19 9 -522 1075 c-288 591 -562 1154 -610 1250 l-87 175 -14 3 c-7
2 -15 -1 -18 -5z"/>
<path d="M50740 53901 c0 -5 7 -12 16 -15 l17 -6 -13 15 c-14 17 -20 19 -20 6z"/>
<path d="M51445 53889 c-11 -17 1 -21 15 -4 l12 15 -10 0 c-6 0 -14 -5 -17
-11z"/>
<path d="M13470 53874 c1 -5 161 -138 357 -296 l356 -287 9 5 c5 3 8 7 6 9
-125 104 -705 568 -714 572 l-14 5 0 -8z"/>
<path d="M21650 53852 c0 -5 11 -14 24 -22 l25 -13 12 -29 12 -29 -6 -92 c-4
-51 -9 -128 -12 -172 -9 -134 4 -70 19 93 l13 153 -6 27 c-8 36 -21 54 -53 75
l-28 17 0 -8z"/>
<path d="M50813 53843 l7 -6 7 6 6 7 -13 0 -13 0 6 -7z"/>
<path d="M19950 53833 c78 -3 299 -22 355 -29 l40 -6 -10 10 -10 9 -135 12
c-74 6 -173 10 -220 9 l-85 -2 65 -3z"/>
<path d="M50910 53772 c0 -11 219 -186 225 -180 3 2 -47 46 -110 96 -63 51
-115 89 -115 84z"/>
<path d="M51741 53703 c2 -6 45 -43 94 -83 50 -40 106 -91 126 -114 l37 -41 7
7 8 7 -34 38 c-36 41 -209 185 -229 191 l-12 5 3 -10z"/>
<path d="M77468 53633 l-188 -74 0 -8 0 -8 195 76 c107 42 195 79 195 84 0 11
-3 10 -202 -70z"/>
<path d="M52458 53485 c37 -79 70 -144 74 -145 4 0 -9 35 -28 78 -20 42 -50
107 -67 145 -16 37 -34 67 -38 67 l-8 0 67 -145z"/>
<path d="M9210 53554 c-105 -16 -270 -62 -270 -76 l0 -7 42 15 c74 26 158 45
240 54 l80 9 34 -14 34 -14 0 9 c0 4 -14 13 -31 19 l-32 11 -36 -1 c-20 -1
-47 -3 -61 -5z"/>
<path d="M29563 53492 c-112 -36 -203 -69 -203 -73 0 -8 401 120 415 132 l9 9
-9 -1 c-6 -1 -101 -31 -212 -67z"/>
<path d="M52415 53480 l-6 -10 10 0 c5 0 13 5 16 10 l6 10 -10 0 c-5 0 -13 -4
-16 -10z"/>
<path d="M51160 53365 c-113 -57 -202 -104 -197 -104 10 -1 407 198 407 204 0
7 15 14 -210 -100z"/>
<path d="M48455 53319 c-143 -76 -264 -140 -270 -142 -5 -2 -8 -7 -5 -10 5 -5
527 266 545 284 l9 9 -9 -1 c-6 -1 -127 -64 -270 -140z"/>
<path d="M53851 53318 c-89 -43 -161 -81 -159 -84 3 -2 83 34 179 80 96 47
167 85 159 84 -8 0 -89 -36 -179 -80z"/>
<path d="M54722 53354 c-21 -57 -34 -105 -29 -111 3 -3 13 21 22 52 l17 57 26
-25 c15 -13 91 -67 170 -120 l143 -97 52 -14 c29 -8 64 -17 80 -20 l27 -6 0
10 0 10 -18 0 c-10 0 -47 10 -83 22 l-64 21 -146 98 -146 97 -20 27 -20 27
-11 -28z"/>
<path d="M52448 53266 l-17 -24 -91 -7 -90 -7 0 -7 0 -7 92 9 93 9 13 10 c7 6
18 20 23 30 l10 18 -8 0 c-4 0 -16 -11 -25 -24z"/>
<path d="M53670 53181 c0 -51 6 -53 12 -5 l4 35 -8 5 -8 5 0 -40z"/>
<path d="M64298 53173 c6 -2 18 -2 25 0 l12 5 -25 0 -25 0 13 -5z"/>
<path d="M34808 53160 c-4 -8 -9 -27 -12 -42 l-6 -28 10 0 c15 0 22 23 18 57
l-4 28 -6 -15z"/>
<path d="M12890 53008 c-58 -83 -108 -157 -113 -164 l-7 -13 8 -5 8 -5 46 67
c25 37 78 113 117 170 l72 102 -13 0 -13 0 -105 -152z"/>
<path d="M51170 53055 c-69 -35 -122 -64 -118 -64 3 -1 63 27 132 60 l125 61
30 -10 30 -11 30 -33 29 -33 18 -52 c10 -29 22 -53 26 -53 l7 0 -14 39 c-21
60 -41 93 -73 124 l-29 28 -34 4 -34 5 -125 -65z"/>
<path d="M30212 53001 l-2 -83 -39 -47 c-21 -25 -53 -70 -70 -99 l-31 -53 1
-42 2 -42 6 41 7 40 28 50 c16 27 47 70 68 96 l39 47 -4 88 -3 88 -2 -84z"/>
<path d="M65525 52840 c-126 -27 -330 -67 -452 -90 l-223 -43 0 -8 c0 -11 -32
-17 276 45 488 98 629 128 639 137 l9 9 -9 -1 c-6 -1 -113 -23 -240 -49z"/>
<path d="M77725 52771 c-110 -43 -283 -111 -385 -150 -102 -40 -189 -77 -194
-82 l-10 -9 14 0 c8 0 89 29 180 64 151 60 440 170 568 218 l52 19 0 10 0 9
-12 -1 c-7 0 -103 -35 -213 -78z"/>
<path d="M52461 52815 c0 -5 16 -41 37 -80 l37 -70 20 -2 20 -3 85 50 c47 27
80 50 74 50 -6 0 -49 -21 -94 -47 l-83 -47 -14 20 c-8 10 -30 46 -49 79 -18
33 -33 56 -33 50z"/>
<path d="M48705 52715 l-140 -74 -22 -26 c-13 -14 -23 -31 -23 -37 l0 -10 36
31 35 32 140 69 139 70 0 10 0 10 -12 0 c-7 -1 -76 -34 -153 -75z"/>
<path d="M48198 52773 c-10 -3 -18 -6 -18 -9 0 -2 90 -190 199 -417 l199 -412
15 -3 15 -3 6 10 7 10 -197 408 c-108 224 -199 411 -203 414 -3 3 -14 4 -23 2z"/>
<path d="M48380 52741 c0 -5 16 -21 35 -35 l35 -27 16 -31 16 -31 -5 -37 -5
-37 9 -14 8 -13 6 6 c4 4 11 25 16 49 l10 42 -17 43 -17 44 -33 25 -33 25 -20
0 -21 0 0 -9z"/>
<path d="M77120 52592 c-217 -85 -397 -156 -399 -158 -2 -2 -1 -7 2 -10 l6 -7
388 153 c213 83 394 155 402 160 l14 7 -9 5 -9 6 -395 -156z"/>
<path d="M48272 52732 l-13 -9 7 -16 6 -16 19 12 19 12 0 12 0 13 -12 0 c-7 0
-19 -4 -26 -8z"/>
<path d="M52820 52735 c1 -16 199 -391 200 -377 0 7 -39 88 -87 180 -88 170
-113 214 -113 197z"/>
<path d="M27716 52573 c-4 -87 -9 -187 -12 -223 l-5 -65 9 15 10 15 7 190 c3
105 9 198 11 208 l5 17 -9 0 -9 0 -7 -157z"/>
<path d="M27756 52573 c-4 -87 -9 -187 -12 -223 l-5 -65 9 15 10 15 7 190 c3
105 9 198 11 208 l5 17 -9 0 -9 0 -7 -157z"/>
<path d="M26794 52688 c32 -46 104 -155 150 -228 l46 -74 0 -28 0 -28 9 0 8 0
-7 39 -7 40 -73 118 c-80 128 -120 183 -134 183 l-8 0 16 -22z"/>
<path d="M48207 52653 c-4 -3 -7 -28 -7 -55 l0 -49 15 -29 15 -28 31 -22 31
-22 9 9 10 10 -23 19 c-13 11 -31 31 -41 46 l-17 27 0 38 c0 21 -4 44 -8 51
l-8 12 -7 -7z"/>
<path d="M85592 52468 c-95 -72 -171 -132 -169 -135 3 -2 78 51 168 118 90 67
170 124 177 126 13 5 17 24 5 22 -5 0 -86 -59 -181 -131z"/>
<path d="M46280 52459 c121 -65 312 -159 324 -159 5 0 -83 47 -197 105 -218
110 -288 140 -127 54z"/>
<path d="M48405 52488 c-11 -6 -21 -12 -23 -13 -1 -1 0 -9 4 -18 l6 -16 24 11
c26 12 28 16 16 35 l-7 11 -20 -10z"/>
<path d="M48234 52419 l50 -8 24 -18 24 -18 215 -440 c118 -242 285 -586 369
-764 l154 -323 0 -30 0 -29 11 7 11 7 -5 31 -5 32 -202 414 c-112 228 -261
537 -332 685 -71 149 -146 304 -166 345 l-37 75 -34 22 -34 23 -46 -1 -46 -1
49 -9z"/>
<path d="M48163 52413 l7 -6 7 6 6 7 -13 0 -13 0 6 -7z"/>
<path d="M15806 52401 l-6 -8 216 -88 215 -87 6 6 c4 3 4 8 1 11 -5 5 -417
175 -424 175 -1 0 -5 -4 -8 -9z"/>
<path d="M27044 52140 c1 -107 -2 -314 -5 -460 l-7 -265 8 110 c4 61 10 238
14 395 l7 285 -9 65 -9 65 1 -195z"/>
<path d="M84795 52267 l-80 -20 12 -4 c6 -2 47 5 91 17 44 11 82 20 85 20 3 0
17 -51 32 -112 32 -135 34 -142 40 -136 3 2 -9 61 -26 131 l-31 127 -21 -1
c-12 -1 -58 -10 -102 -22z"/>
<path d="M5921 52240 c-1 -49 28 -427 35 -449 12 -39 10 16 -11 244 l-23 250
-1 -45z"/>
<path d="M49050 52230 l0 -21 21 -29 22 -28 -7 -26 -6 -25 -155 -78 c-85 -43
-155 -82 -155 -86 0 -4 72 29 159 73 l159 80 11 31 11 31 -20 28 -20 28 0 21
0 21 -10 0 -10 0 0 -20z"/>
<path d="M54390 52109 c0 -12 29 -38 43 -39 14 0 7 23 -10 36 -22 17 -33 17
-33 3z"/>
<path d="M30000 52101 l-45 -6 0 -10 c1 -5 4 -52 9 -103 l8 -92 11 -7 10 -6
-6 24 c-3 13 -9 61 -13 107 l-7 82 44 1 c24 0 53 4 64 9 l20 9 -25 -1 c-14 -1
-45 -4 -70 -7z"/>
<path d="M53293 51780 c45 -93 85 -170 89 -170 3 0 -30 77 -75 170 -45 94 -85
170 -89 170 -3 0 30 -76 75 -170z"/>
<path d="M26996 51690 c-4 -107 -6 -211 -4 -230 l4 -35 8 185 c4 102 6 205 4
230 l-3 45 -9 -195z"/>
<path d="M52085 51689 c-115 -60 -207 -109 -202 -109 11 0 427 209 427 215 0
10 -18 1 -225 -106z"/>
<path d="M22451 51724 l1 -19 5 13 5 13 -6 6 -6 6 1 -19z"/>
<path d="M90752 51593 c-102 -190 -104 -193 -98 -193 5 0 46 74 131 233 31 59
54 107 52 107 -3 0 -41 -66 -85 -147z"/>
<path d="M22442 51670 l0 -25 5 13 c2 6 2 18 0 25 l-5 12 0 -25z"/>
<path d="M69600 51662 l0 -9 43 -6 c23 -3 112 -11 197 -18 l155 -12 38 7 37 7
0 8 0 7 -60 -4 -60 -4 -133 11 c-72 7 -151 14 -174 18 l-43 5 0 -10z"/>
<path d="M22432 51610 l0 -25 5 13 c2 6 2 18 0 25 l-5 12 0 -25z"/>
<path d="M22421 51554 l1 -19 5 13 5 13 -6 6 -6 6 1 -19z"/>
<path d="M22412 51490 l0 -25 5 13 c2 6 2 18 0 25 l-5 12 0 -25z"/>
<path d="M69280 51458 c0 -3 11 -30 25 -61 13 -30 31 -84 40 -119 27 -105 47
-170 50 -166 7 6 -52 220 -76 278 -20 50 -39 83 -39 68z"/>
<path d="M22402 51420 l0 -35 5 18 c2 9 2 25 0 35 l-5 17 0 -35z"/>
<path d="M52971 51432 l-11 -21 0 -50 0 -49 18 -31 17 -31 18 -6 c31 -10 31 3
-2 43 l-31 38 0 33 0 33 11 21 11 20 -10 10 -10 10 -11 -20z"/>
<path d="M35694 51413 c2 -10 19 -117 37 -238 l32 -220 10 -10 10 -10 -6 25
c-3 14 -20 125 -38 248 l-33 222 -9 0 -8 0 5 -17z"/>
<path d="M22294 51337 c-39 -34 -94 -75 -122 -92 l-52 -30 0 -13 0 -14 38 23
c85 51 222 163 222 181 0 17 -17 6 -86 -55z"/>
<path d="M22390 51370 l0 -13 7 6 6 7 -6 7 -7 6 0 -13z"/>
<path d="M12860 51302 c-14 -10 -92 -56 -175 -102 -82 -46 -165 -93 -183 -106
l-34 -22 9 -5 8 -4 190 108 c105 60 196 112 204 117 l14 9 -4 12 -4 12 -25
-19z"/>
<path d="M33484 51260 c4 -19 20 -141 36 -270 17 -129 44 -320 60 -425 16
-104 43 -277 59 -384 29 -184 41 -238 41 -178 0 30 -9 86 -75 492 -24 149 -58
385 -76 525 l-32 255 -9 10 -10 10 6 -35z"/>
<path d="M33877 51268 l4 -8 69 0 69 0 5 9 5 8 -78 -1 -79 -1 5 -7z"/>
<path d="M49002 51092 l-13 -9 97 -204 c53 -112 99 -207 103 -212 l7 -7 16 12
16 13 -97 204 c-54 113 -102 206 -107 208 -5 1 -15 -1 -22 -5z"/>
<path d="M26810 51001 l0 -8 87 -6 88 -5 10 6 10 6 -40 8 c-22 4 -66 7 -97 7
l-58 1 0 -9z"/>
<path d="M28445 51000 l-6 -10 15 0 16 0 6 -26 7 -25 9 9 9 9 -10 26 -11 27
-14 0 c-8 0 -18 -4 -21 -10z"/>
<path d="M28367 50983 c-4 -3 -7 -26 -7 -51 l0 -45 -90 7 -90 8 0 -10 0 -9 61
-7 c34 -3 86 -6 115 -6 l54 0 0 7 c0 3 -7 14 -16 24 -17 19 -20 45 -9 72 l7
17 -9 0 c-5 0 -13 -3 -16 -7z"/>
<path d="M27790 50960 l0 -8 63 -6 c34 -3 122 -8 195 -11 l132 -6 0 9 0 10
-117 6 c-65 3 -153 8 -195 11 l-78 4 0 -9z"/>
<path d="M28465 50900 l-6 -10 -22 0 -21 0 12 -12 11 -11 26 11 25 12 0 10 c0
13 -17 13 -25 0z"/>
<path d="M7175 50785 c-44 -8 -81 -14 -83 -14 -2 -1 -1 -5 2 -9 l5 -9 93 14
93 15 138 -4 137 -4 0 7 c0 12 -73 19 -190 18 l-115 -1 -80 -13z"/>
<path d="M82783 50600 c3 -14 18 -79 32 -145 26 -124 62 -251 64 -225 1 9 -8
47 -18 85 -10 39 -29 120 -42 180 l-22 110 -10 10 -10 10 6 -25z"/>
<path d="M49065 50450 l-6 -10 9 0 c13 0 209 -173 254 -223 l36 -42 7 7 7 7
-28 35 c-33 40 -224 210 -253 226 l-20 10 -6 -10z"/>
<path d="M33575 50350 c37 -255 65 -411 65 -359 0 33 -52 356 -60 374 l-10 20
5 -35z"/>
<path d="M14300 50306 c0 -5 171 -131 197 -145 11 -5 139 -40 284 -76 l264
-66 140 -51 c77 -28 170 -66 207 -84 37 -19 73 -34 80 -34 26 2 -149 83 -281
131 l-135 50 -257 64 c-141 36 -269 69 -284 75 -16 6 -68 40 -116 75 -83 61
-99 71 -99 61z"/>
<path d="M82890 50170 l0 -13 7 6 6 7 -6 7 -7 6 0 -13z"/>
<path d="M34255 49913 c7 -41 12 -50 21 -41 l5 6 -6 36 -7 36 -10 0 -10 0 7
-37z"/>
<path d="M34320 49932 c0 -13 25 -22 61 -22 l29 0 0 10 0 10 -29 0 c-16 0 -36
3 -45 6 l-16 6 0 -10z"/>
<path d="M33710 49884 c0 -43 143 -1063 175 -1251 l6 -33 -15 0 -15 0 -6 33
c-3 17 -30 203 -60 412 -57 394 -66 447 -71 430 -2 -5 25 -204 60 -442 l63
-431 -116 -6 c-64 -4 -159 -10 -211 -15 l-95 -8 55 -1 c30 -1 125 3 210 8
l154 10 8 -13 8 -12 0 13 0 12 16 0 16 0 -5 -20 -5 -19 8 -3 8 -3 57 -415 c31
-228 58 -421 61 -429 16 -48 6 41 -47 418 -32 234 -56 427 -54 430 3 2 118 10
256 17 l251 13 7 7 6 7 -105 -6 c-58 -4 -176 -10 -262 -13 l-158 -7 0 10 0 11
53 6 c28 3 126 8 217 12 91 4 183 10 205 14 l40 8 -35 0 c-19 1 -136 -5 -260
-12 -124 -7 -226 -12 -226 -12 -4 3 -119 795 -149 1019 -18 143 -36 261 -39
265 l-6 5 0 -9z"/>
<path d="M49708 49824 c-27 -14 -34 -25 -22 -36 l5 -6 39 15 38 15 -5 14 c-7
18 -21 17 -55 -2z"/>
<path d="M22895 49729 c72 -3 173 -7 225 -6 l95 0 -85 8 c-47 4 -148 7 -225 6
l-140 0 130 -8z"/>
<path d="M38154 49534 c-4 -16 -26 -102 -49 -191 -24 -90 -40 -163 -36 -163 8
0 103 372 96 378 -2 2 -7 -9 -11 -24z"/>
<path d="M35974 49511 c3 -18 6 -40 6 -47 l0 -14 9 0 9 0 -10 42 c-5 23 -12
45 -15 48 l-6 5 7 -34z"/>
<path d="M75831 49343 c0 -16 8 -110 18 -210 l17 -182 7 -7 c4 -4 9 -5 10 -3
2 2 -4 87 -14 189 -10 102 -18 197 -18 213 l-1 27 -10 0 -10 0 1 -27z"/>
<path d="M45565 49060 l-90 -91 -78 -51 -78 -51 10 -10 10 -10 68 44 68 43
102 100 102 99 -5 9 c-10 15 -19 8 -109 -82z"/>
<path d="M37924 49080 c2 -14 19 -115 37 -225 l32 -200 10 -10 9 -10 -5 20
c-3 11 -20 108 -37 215 -17 107 -35 204 -41 215 l-9 20 4 -25z"/>
<path d="M37965 49080 c3 -14 39 -227 80 -475 42 -247 77 -454 79 -460 l4 -10
1 16 c2 29 -149 913 -159 934 l-9 20 4 -25z"/>
<path d="M91439 48708 c-68 -78 -153 -178 -188 -223 -35 -44 -114 -132 -176
-195 -61 -63 -151 -158 -200 -210 l-88 -95 -43 -65 c-64 -98 -116 -161 -478
-570 l-332 -376 -59 -102 -58 -103 -28 -15 -28 -14 -108 -11 c-60 -7 -109 -13
-111 -14 -2 -1 14 -44 34 -94 l36 -91 10 0 10 0 -9 13 c-11 14 -63 143 -63
156 l0 8 93 8 92 7 41 18 42 18 58 103 59 104 305 345 c383 432 428 486 496
587 l54 82 87 93 c48 51 137 145 198 208 62 63 141 151 175 195 58 72 224 267
288 337 14 15 23 30 20 33 -2 3 -61 -59 -129 -137z"/>
<path d="M75880 48798 c0 -25 62 -493 66 -497 2 -2 7 -2 10 2 l6 5 -31 239
c-17 131 -31 244 -31 251 l0 12 -10 0 -10 0 0 -12z"/>
<path d="M75975 48758 c-14 -29 -25 -61 -25 -70 l0 -18 10 0 10 0 0 19 c0 10
11 39 25 64 l24 46 -10 6 -9 6 -25 -53z"/>
<path d="M31760 48719 c1 -91 50 -942 54 -947 l6 -5 0 24 c-1 88 -50 942 -54
947 l-6 5 0 -24z"/>
<path d="M36110 48693 c-85 -9 -603 -44 -802 -54 l-238 -12 0 -8 0 -7 38 4
c20 2 136 8 257 14 121 5 340 17 488 27 l267 17 12 7 c17 11 8 15 -22 12z"/>
<path d="M34817 48655 l-228 -13 -7 -7 -7 -8 100 7 c55 3 164 9 243 12 l142 7
0 8 c0 5 -3 8 -7 8 -5 -1 -111 -7 -236 -14z"/>
<path d="M16355 48559 l60 -31 43 -42 44 -41 19 -38 20 -38 -7 -45 -6 -44 11
0 11 0 0 50 0 51 -19 37 -19 37 -44 41 -43 42 -52 26 c-29 14 -58 26 -65 26
-7 -1 14 -15 47 -31z"/>
<path d="M11817 48566 c4 -8 53 -84 108 -168 l100 -155 25 -18 25 -18 -21 24
c-12 13 -69 97 -127 187 -59 89 -109 162 -112 162 -3 0 -2 -6 2 -14z"/>
<path d="M43230 48560 l0 -10 20 0 20 0 0 10 0 10 -20 0 -20 0 0 -10z"/>
<path d="M32833 48245 c3 -11 22 -131 43 -267 l38 -248 9 0 8 0 -5 18 c-2 9
-21 125 -42 257 l-37 240 -10 10 -9 10 5 -20z"/>
<path d="M72816 48188 c-8 -47 -154 -750 -163 -783 l-5 -20 9 10 10 10 82 390
c45 215 84 400 87 413 l6 22 -10 0 -9 0 -7 -42z"/>
<path d="M30343 48161 l-121 -6 -7 -7 -7 -7 143 6 c79 3 169 9 199 13 l55 8
-70 -1 c-38 0 -125 -3 -192 -6z"/>
<path d="M37613 48136 l-422 -21 -8 -9 -8 -8 70 6 c39 3 237 13 440 21 l370
16 30 9 30 8 -40 0 c-22 -1 -230 -10 -462 -22z"/>
<path d="M90808 48068 c-36 -40 -76 -91 -89 -114 -44 -73 -151 -203 -431 -521
-153 -173 -278 -319 -278 -324 0 -10 505 557 607 683 35 42 85 109 112 149 27
41 60 85 74 99 13 15 39 43 57 63 l32 37 -10 0 c-6 0 -39 -33 -74 -72z"/>
<path d="M74970 48084 c0 -15 174 -374 182 -374 5 0 -167 367 -178 379 -2 2
-4 0 -4 -5z"/>
<path d="M28423 48053 c9 -2 25 -2 35 0 l17 5 -35 0 -35 0 18 -5z"/>
<path d="M74981 47958 c29 -57 67 -136 86 -177 18 -41 35 -72 38 -69 7 7 -157
348 -167 348 l-8 0 51 -102z"/>
<path d="M46460 47563 c0 -17 50 -247 56 -252 14 -14 -29 218 -47 249 l-8 15
-1 -12z"/>
<path d="M71637 47486 c-4 -10 -7 -25 -6 -34 l0 -17 10 24 c5 13 8 29 6 35
l-3 10 -7 -18z"/>
<path d="M72595 47320 c-4 -12 -5 -24 -2 -27 3 -2 8 5 12 17 4 12 5 24 2 27
-3 2 -8 -5 -12 -17z"/>
<path d="M18370 47198 c0 -10 171 -357 178 -362 4 -2 124 -243 267 -535 142
-292 262 -531 266 -531 9 0 -331 696 -611 1248 -80 158 -100 195 -100 180z"/>
<path d="M20661 47113 l-21 -68 -30 -179 -31 -178 -19 -37 -18 -36 -44 -42
-43 -42 -95 -44 c-52 -24 -160 -68 -240 -97 -136 -49 -260 -104 -260 -115 0
-3 26 7 58 21 31 14 125 50 207 80 83 30 192 74 243 99 51 25 96 45 100 45 5
0 26 19 49 43 l41 42 17 40 16 40 39 210 38 210 16 38 16 37 -9 0 -8 0 -22
-67z"/>
<path d="M40547 47070 c-120 -21 -221 -40 -224 -44 l-6 -6 6 -7 7 -7 232 40
232 40 4 12 4 12 -19 -1 c-10 -1 -116 -18 -236 -39z"/>
<path d="M21562 47078 l4 -12 40 -8 c21 -5 56 -16 77 -25 l38 -16 43 -63 44
-62 25 -63 c13 -35 28 -81 31 -101 l7 -37 13 5 13 5 -13 56 c-18 78 -49 148
-97 216 l-41 59 -36 18 c-28 14 -122 40 -146 40 -3 0 -4 -5 -2 -12z"/>
<path d="M29588 46811 l-106 -6 -8 -7 -7 -8 114 6 c63 4 155 10 204 14 l90 7
-90 0 c-49 0 -138 -3 -197 -6z"/>
<path d="M29486 46650 c4 -69 10 -165 14 -215 l8 -90 -5 200 -5 200 -9 15 -8
15 5 -125z"/>
<path d="M20626 46718 c-3 -18 -17 -55 -30 -83 l-24 -50 -48 -46 -49 -46 -77
-33 c-43 -19 -78 -37 -78 -41 l0 -8 96 44 96 43 35 33 35 34 24 54 c23 52 42
131 31 131 -2 0 -8 -15 -11 -32z"/>
<path d="M28617 46724 l-249 -12 -6 -8 -7 -7 115 6 c63 4 184 10 268 13 l152
7 0 8 0 9 -12 -1 c-7 -1 -125 -8 -261 -15z"/>
<path d="M81930 46451 c-101 -77 -186 -145 -188 -151 l-4 -12 14 8 c37 22 377
280 378 287 0 16 -22 1 -200 -132z"/>
<path d="M52072 46288 c99 -210 96 -204 103 -196 3 3 -34 90 -83 193 l-88 189
-12 4 -11 3 91 -193z"/>
<path d="M34450 46395 c-7 -9 -11 -18 -8 -20 3 -3 11 1 18 10 7 9 11 18 8 20
-3 3 -11 -1 -18 -10z"/>
<path d="M34386 46385 c4 -8 10 -15 15 -15 l8 0 -5 15 c-4 8 -10 15 -15 15
l-8 0 5 -15z"/>
<path d="M50850 46364 c0 -12 152 -285 157 -281 4 5 -146 287 -153 287 -2 0
-4 -3 -4 -6z"/>
<path d="M57580 46328 c0 -8 36 -90 80 -182 l80 -167 9 6 10 5 -80 168 c-44
92 -84 171 -90 177 l-9 9 0 -16z"/>
<path d="M30697 46095 c3 -82 9 -170 14 -195 l7 -45 -5 150 c-3 83 -9 170 -14
195 l-7 45 5 -150z"/>
<path d="M30737 46070 l6 -175 8 -20 7 -20 -5 140 c-3 77 -9 165 -13 195 l-8
55 5 -175z"/>
<path d="M28226 46214 c-3 -9 -6 -20 -6 -25 l0 -10 10 6 c5 3 15 15 20 26 l11
19 -15 0 -14 0 -6 -16z"/>
<path d="M93042 46050 l-22 -29 -82 -31 -82 -32 -28 6 -28 5 -95 -6 -95 -6 0
-10 0 -9 16 6 c9 4 69 7 133 7 l116 0 70 26 70 26 30 28 30 28 25 -14 25 -14
35 -1 35 0 53 -25 54 -25 54 0 54 0 74 37 75 37 -4 6 -4 7 -77 -39 -76 -38
-42 0 -41 0 -47 25 -47 25 -38 0 -39 0 -39 20 c-22 11 -39 20 -40 19 0 0 -10
-13 -23 -29z"/>
<path d="M81340 45949 l0 -10 10 6 c6 3 10 8 10 11 0 2 -4 4 -10 4 -5 0 -10
-5 -10 -11z"/>
<path d="M81370 45884 c-6 -14 -15 -47 -22 -72 -6 -26 -20 -67 -30 -91 l-19
-44 -17 -13 -17 -13 22 5 22 6 15 38 c19 48 65 210 60 210 -3 0 -9 -12 -14
-26z"/>
<path d="M81322 45858 c-5 -7 -17 -38 -25 -68 -9 -30 -23 -65 -32 -77 l-16
-23 -25 0 -24 0 0 -8 0 -9 23 3 c12 1 28 3 34 3 l12 1 17 32 c16 31 56 158 50
158 -2 0 -8 -6 -14 -12z"/>
<path d="M46081 45797 c-2 -29 -62 -198 -84 -237 -11 -19 -52 -68 -91 -107
l-70 -73 10 0 c15 0 148 141 171 181 11 19 32 72 47 117 l27 81 -4 28 -4 28
-2 -18z"/>
<path d="M81211 45644 l1 -19 5 13 5 13 -6 6 -6 6 1 -19z"/>
<path d="M81246 45630 l6 -29 -10 -30 -11 -31 8 -5 9 -5 12 30 12 30 -6 35 -7
35 -9 0 -9 0 5 -30z"/>
<path d="M81220 45600 l0 -13 7 6 6 7 -6 7 -7 6 0 -13z"/>
<path d="M15393 45430 c4 -41 9 -130 13 -197 l7 -122 6 4 7 3 -12 187 -13 187
-7 6 -7 7 6 -75z"/>
<path d="M49599 45422 c27 -53 35 -81 32 -107 l-1 -11 -110 -54 c-60 -30 -108
-55 -106 -57 2 -2 56 21 120 51 l116 55 0 22 0 22 -31 69 -32 68 -9 0 -8 0 29
-58z"/>
<path d="M47738 45327 c-207 -70 -237 -82 -227 -91 2 -2 106 30 232 71 l227
76 0 8 c0 13 2 14 -232 -64z"/>
<path d="M54820 45099 l0 -10 10 6 c6 3 10 8 10 11 0 2 -4 4 -10 4 -5 0 -10
-5 -10 -11z"/>
<path d="M26165 44470 l-60 -7 76 -1 76 -2 54 -19 c30 -10 90 -35 133 -55 44
-20 84 -36 90 -35 15 1 -166 87 -233 110 -30 10 -59 18 -65 17 -6 -1 -38 -4
-71 -8z"/>
<path d="M52458 44462 c-10 -2 -18 -5 -18 -6 0 -2 45 -96 100 -209 l100 -207
9 0 c6 0 13 5 16 10 l6 10 -97 203 c-53 111 -97 202 -98 203 0 0 -9 -1 -18 -4z"/>
<path d="M26550 44386 c0 -9 43 -30 758 -362 39 -18 72 -31 72 -28 0 3 -37 22
-82 43 -46 21 -223 106 -394 189 -307 148 -354 169 -354 158z"/>
<path d="M88165 44183 c-32 -69 -72 -145 -87 -169 l-28 -44 -12 0 -13 0 -40
65 -41 64 -49 -89 c-27 -50 -52 -90 -55 -90 -3 0 -25 32 -50 72 -24 39 -52 79
-62 87 -24 21 -23 25 17 118 19 45 35 87 35 95 -1 13 -51 -96 -75 -164 l-14
-38 18 -12 c10 -7 44 -52 76 -101 l58 -87 50 91 50 92 18 -24 c10 -13 26 -39
36 -56 9 -18 24 -35 32 -38 l14 -5 20 17 20 18 74 153 c41 85 73 158 71 162
-2 5 -30 -48 -63 -117z"/>
<path d="M81450 44022 c0 -6 18 -57 40 -113 l41 -101 38 -57 c22 -31 47 -63
57 -71 l18 -15 -24 40 c-13 22 -36 58 -50 80 -15 22 -43 83 -64 135 -21 52
-42 99 -47 105 l-9 9 0 -12z"/>
<path d="M87885 43900 c13 -25 207 -333 223 -355 l14 -20 -6 19 c-8 25 -205
337 -224 356 l-15 15 8 -15z"/>
<path d="M27905 43740 c66 -33 134 -63 151 -68 l31 -10 52 10 51 11 0 8 0 8
-32 -10 c-18 -5 -49 -9 -69 -9 l-36 0 -127 60 c-70 33 -130 60 -134 59 -4 0
47 -27 113 -59z"/>
<path d="M51496 43419 c-180 -28 -205 -33 -195 -43 6 -6 426 58 435 67 l7 7
-29 -1 c-16 -1 -114 -14 -218 -30z"/>
<path d="M50735 43256 c-126 -33 -267 -75 -273 -81 -11 -10 16 -4 138 31 69
20 161 45 205 54 l80 18 -30 0 c-16 1 -70 -10 -120 -22z"/>
<path d="M52434 43252 l-11 -18 -167 -79 c-91 -43 -166 -82 -166 -86 0 -9 336
153 352 169 6 6 9 15 7 21 l-4 11 -11 -18z"/>
<path d="M11187 43173 c-2 -5 -7 -21 -11 -38 l-7 -30 10 10 c11 11 26 65 18
65 -3 0 -8 -3 -10 -7z"/>
<path d="M52110 43055 c0 -13 196 -395 202 -395 5 0 -37 90 -92 200 -88 176
-110 215 -110 195z"/>
<path d="M51935 43014 c-176 -24 -491 -71 -544 -80 -18 -3 -31 -7 -29 -10 3
-2 85 7 184 21 98 14 262 36 362 49 168 22 203 30 191 39 -2 2 -76 -6 -164
-19z"/>
<path d="M10500 42930 l0 -13 7 6 6 7 -6 7 -7 6 0 -13z"/>
<path d="M29886 42843 c62 -84 74 -101 123 -185 28 -48 51 -89 51 -91 0 -12
32 -79 35 -75 8 8 -36 112 -73 173 -52 88 -144 215 -155 215 l-9 0 28 -37z"/>
<path d="M50818 42857 l-138 -20 0 -7 0 -6 150 21 c82 12 153 25 157 28 l6 7
-19 -1 c-10 -1 -81 -11 -156 -22z"/>
<path d="M29830 42854 c0 -3 37 -60 83 -127 l82 -122 43 -115 43 -115 10 -55
c5 -30 14 -140 18 -245 l9 -190 13 -30 c19 -43 210 -271 334 -400 59 -60 103
-103 99 -95 -4 8 -56 67 -115 130 -132 142 -274 313 -299 361 l-18 35 -7 145
c-3 79 -11 188 -17 243 l-11 98 -46 122 -47 121 -82 123 c-75 111 -92 133 -92
116z"/>
<path d="M91433 42461 c-111 -58 -205 -110 -210 -115 -7 -8 404 200 416 210 2
2 2 5 0 7 -2 2 -95 -44 -206 -102z"/>
<path d="M8886 42519 l-79 -29 -52 -6 -52 -6 -37 32 c-20 18 -39 30 -42 28 -2
-3 14 -22 36 -42 l40 -36 40 6 c22 4 89 21 150 39 l110 32 -7 6 c-9 10 -19 8
-107 -24z"/>
<path d="M50596 42443 c-8 -49 -8 -159 1 -355 l6 -158 8 0 8 0 -2 275 -2 275
-6 0 c-4 0 -9 -17 -13 -37z"/>
<path d="M50647 42355 l-5 -114 5 -156 6 -155 8 0 7 0 -1 270 0 270 -7 0 -7 0
-6 -115z"/>
<path d="M61125 42350 l-5 -9 184 -125 c102 -70 192 -129 201 -132 l15 -6 0 8
c0 5 -35 32 -78 60 -42 29 -130 88 -194 132 l-117 81 -6 -9z"/>
<path d="M45971 42240 c-79 -44 -149 -84 -155 -89 l-11 -10 5 -48 4 -48 6 50
5 50 138 76 c121 67 172 99 157 99 -3 0 -70 -36 -149 -80z"/>
<path d="M52470 42232 c0 -32 178 -373 202 -388 l10 -6 -17 32 c-9 18 -38 69
-65 114 -26 44 -64 120 -85 169 -35 81 -45 99 -45 79z"/>
<path d="M52715 41845 c4 -11 8 -27 9 -35 l1 -15 -179 -91 -179 -91 9 -6 9 -5
180 93 180 93 3 14 3 15 -21 24 -22 24 7 -20z"/>
<path d="M30340 41663 c0 -8 231 -268 282 -318 l20 -20 -3 12 c-7 20 -299 339
-299 326z"/>
<path d="M57595 41397 l-49 -42 -406 -5 -405 -5 380 -6 c209 -4 394 -5 411 -2
l30 5 55 48 54 49 -10 1 c-5 0 -32 -19 -60 -43z"/>
<path d="M50530 41390 c-36 -14 -125 -58 -198 -97 l-132 -70 6 -6 6 -6 180 90
c99 49 186 89 193 89 8 0 16 4 20 9 l5 10 -7 4 c-5 2 -37 -8 -73 -23z"/>
<path d="M86799 41372 l-64 -47 -33 -50 c-43 -64 -115 -205 -105 -205 5 0 25
33 45 73 21 39 52 94 70 122 l33 49 69 53 c37 29 64 53 59 53 -6 0 -39 -21
-74 -48z"/>
<path d="M30402 41200 l-183 -138 9 -6 9 -6 187 140 c102 77 186 142 186 145
0 18 -46 -12 -208 -135z"/>
<path d="M90985 40892 l4 -52 40 -78 c47 -89 105 -168 141 -191 l25 -16 -51
57 -51 56 -43 84 -44 83 -13 55 -13 55 5 -53z"/>
<path d="M51353 40437 l3 -11 210 -53 c219 -55 234 -58 234 -45 l0 7 -225 56
-226 57 4 -11z"/>
<path d="M51356 40399 c-3 -8 -23 -79 -45 -159 -22 -80 -45 -159 -51 -175
l-11 -30 10 10 c12 12 112 357 106 364 -3 2 -7 -2 -9 -10z"/>
<path d="M45736 40289 c11 -19 60 -103 110 -186 49 -84 92 -153 96 -153 4 0
-13 35 -38 78 -25 42 -73 123 -106 179 -33 57 -65 106 -71 110 l-11 7 20 -35z"/>
<path d="M84815 39969 c5 -8 41 -61 81 -119 40 -58 119 -184 176 -280 146
-247 540 -871 545 -866 3 3 -89 155 -204 338 -115 183 -255 410 -310 503 -100
170 -264 418 -285 431 l-11 7 8 -14z"/>
<path d="M84780 39956 c0 -4 39 -65 87 -134 47 -70 165 -257 261 -417 191
-317 180 -300 186 -294 11 10 -472 784 -525 844 l-9 9 0 -8z"/>
<path d="M84323 39697 c-79 -51 -143 -95 -143 -99 0 -4 58 29 129 75 153 98
179 116 166 116 -5 0 -74 -42 -152 -92z"/>
<path d="M84356 39670 c-76 -48 -143 -94 -150 -100 l-11 -12 22 11 c19 10 271
169 282 178 2 1 2 5 0 7 -2 3 -66 -35 -143 -84z"/>
<path d="M51566 39049 c-42 -149 -94 -361 -87 -353 10 11 112 396 106 402 -2
2 -11 -20 -19 -49z"/>
<path d="M52026 39020 c11 -10 409 -83 424 -78 7 2 -55 16 -137 31 -81 15
-181 33 -222 41 l-73 14 8 -8z"/>
<path d="M53780 38691 l0 -7 175 -33 c96 -18 185 -35 197 -38 l23 -6 -10 10
-10 9 -120 23 c-66 13 -150 29 -187 36 l-68 13 0 -7z"/>
<path d="M51320 38279 c-1 -8 -20 -98 -44 -201 l-43 -188 7 0 c3 0 25 88 49
196 l43 195 -6 6 -6 6 0 -14z"/>
<path d="M95293 38017 l-201 -102 -1 -13 -1 -13 23 6 c12 4 106 50 209 103
l187 97 1 10 c1 5 -2 10 -7 12 -4 1 -99 -44 -210 -100z"/>
<path d="M60105 38033 c143 -134 236 -216 240 -211 3 3 -60 66 -139 141 l-144
137 -14 0 -13 -1 70 -66z"/>
<path d="M86660 37573 c-63 -42 -129 -88 -146 -103 -17 -15 -149 -105 -293
-200 -144 -95 -260 -175 -257 -177 6 -6 525 337 592 391 29 25 94 70 144 102
49 31 90 58 90 60 0 11 -26 -3 -130 -73z"/>
<path d="M92803 37611 l6 -24 -10 -20 -11 -19 14 4 13 5 3 27 4 28 -13 12 -12
11 6 -24z"/>
<path d="M86129 37262 c-146 -97 -278 -187 -293 -199 l-28 -23 -12 7 -11 6 12
-13 11 -12 74 50 c40 28 173 116 296 196 l222 145 0 11 c0 5 -1 10 -2 10 -2 0
-122 -80 -269 -178z"/>
<path d="M85625 37304 c10 -17 26 -41 37 -55 l20 -24 -17 31 c-10 17 -26 41
-37 55 l-20 24 17 -31z"/>
<path d="M85685 37210 c3 -5 8 -10 11 -10 3 0 2 5 -1 10 -3 6 -8 10 -11 10 -3
0 -2 -4 1 -10z"/>
<path d="M33440 37000 c-82 -98 -150 -182 -150 -185 0 -20 34 16 162 168 79
94 148 178 152 185 l7 12 -10 0 c-6 0 -78 -81 -161 -180z"/>
<path d="M50954 37109 c19 -27 285 -279 294 -279 7 1 -298 300 -306 300 -2 0
3 -9 12 -21z"/>
<path d="M50910 37106 l0 -11 98 -96 c53 -53 178 -169 277 -259 99 -90 199
-181 222 -204 24 -22 45 -37 48 -35 3 3 -107 107 -243 231 -136 125 -282 262
-324 306 l-78 80 0 -12z"/>
<path d="M40765 36648 c-360 -81 -445 -99 -585 -124 -80 -15 -194 -32 -255
-38 l-110 -11 -3 -97 -3 -98 8 0 8 0 0 93 0 92 95 7 95 7 180 35 c184 35 488
98 650 135 l90 20 6 -7 c8 -9 37 -192 104 -656 30 -209 57 -381 60 -384 8 -9
7 -1 -60 469 -35 250 -67 474 -70 499 -9 68 -16 88 -28 93 -7 2 -88 -13 -182
-35z"/>
<path d="M40528 36557 l-378 -81 0 -7 0 -7 38 9 c206 46 699 149 713 149 l19
0 1 -32 c1 -18 5 -44 10 -58 l8 -25 -5 60 c-6 62 -10 76 -22 74 -4 0 -177 -37
-384 -82z"/>
<path d="M86188 36043 l-4 -8 65 -60 65 -60 -21 30 c-12 17 -39 47 -61 68
l-40 39 -4 -9z"/>
<path d="M34600 35991 c-39 -13 -101 -55 -139 -95 l-35 -36 10 0 c6 0 23 14
40 31 16 17 52 44 80 60 l51 29 47 0 47 0 40 -21 40 -20 12 4 12 4 -50 22 -50
22 -40 4 -40 4 -25 -8z"/>
<path d="M86487 35769 l-17 -10 5 -8 4 -8 36 11 c19 6 35 14 35 18 l0 8 -22 0
c-13 0 -31 -5 -41 -11z"/>
<path d="M86645 35712 c22 -45 157 -232 167 -232 4 0 8 3 8 6 0 7 -132 190
-166 229 l-26 30 17 -33z"/>
<path d="M86441 35684 l1 -19 5 13 5 13 -6 6 -6 6 1 -19z"/>
<path d="M84595 35451 c-159 -103 -578 -374 -930 -601 -713 -460 -1209 -789
-1202 -796 2 -2 162 100 355 228 193 128 604 396 914 596 310 199 698 450 863
557 l300 195 40 0 40 -1 26 -22 26 -22 53 -95 c29 -52 80 -133 115 -180 34
-47 142 -215 240 -375 98 -159 185 -298 193 -308 24 -27 26 -12 4 20 -12 15
-98 154 -192 308 -95 154 -200 318 -235 365 -34 47 -86 128 -115 180 l-52 95
-27 22 -26 22 -50 0 -50 0 -290 -188z"/>
<path d="M84917 35603 c-22 -6 -855 -538 -877 -561 l-15 -15 15 8 c8 4 207
131 441 281 l426 274 27 0 26 0 20 -20 c11 -11 33 -46 49 -78 16 -32 56 -94
88 -137 32 -44 142 -215 242 -380 101 -165 198 -318 214 -340 17 -22 32 -42
34 -44 2 -2 5 -2 8 1 l6 5 -24 29 c-14 16 -110 170 -216 341 -105 172 -217
348 -248 390 -32 43 -75 111 -96 150 l-38 72 -22 16 c-22 15 -28 16 -60 8z"/>
<path d="M41396 35468 l-16 -22 0 -36 0 -35 71 -215 c39 -118 75 -219 80 -224
l9 -10 0 11 c0 7 -34 110 -75 230 -41 120 -75 227 -75 238 0 11 7 33 15 49 19
36 13 45 -9 14z"/>
<path d="M40419 35407 l-10 -22 10 -25 10 -25 -1 36 c-1 20 2 41 6 47 4 7 5
12 1 12 -3 0 -10 -10 -16 -23z"/>
<path d="M86665 35259 l-7 -10 6 -6 6 -7 11 11 11 11 -10 6 -11 6 -6 -11z"/>
<path d="M80298 34828 c21 -40 76 -142 122 -226 45 -84 84 -151 87 -149 6 7
-230 446 -240 447 l-9 0 40 -72z"/>
<path d="M75610 34561 c-117 -52 -277 -137 -285 -152 l-6 -9 6 0 c3 0 43 21
88 47 45 26 136 70 202 99 l120 52 10 -9 c5 -5 13 -9 18 -9 l9 0 -12 15 -12
15 -17 -1 c-9 0 -63 -22 -121 -48z"/>
<path d="M62265 34555 c-5 -2 -49 -9 -97 -15 l-88 -12 0 -14 0 -14 10 0 c5 0
57 7 116 16 l107 16 24 -5 c31 -6 29 -1 -7 18 -28 15 -44 17 -65 10z"/>
<path d="M62549 34533 l24 -16 56 -14 c70 -16 71 -16 71 1 l0 15 -17 5 c-22 6
-133 26 -147 26 l-10 0 23 -17z"/>
<path d="M77628 34454 l-168 -84 0 -9 0 -9 168 86 167 86 50 7 50 6 -50 1 -50
1 -167 -85z"/>
<path d="M34896 33938 c21 -43 129 -240 161 -296 14 -24 27 -41 30 -39 6 7
-190 367 -200 367 l-8 0 17 -32z"/>
<path d="M58422 33356 l-12 -26 -42 -19 -43 -20 -153 -21 -153 -22 -24 6 -25
6 0 -9 c0 -5 5 -13 10 -16 l10 -6 178 26 177 26 32 14 32 14 16 25 17 25 -4
12 -4 11 -12 -26z"/>
<path d="M79411 32686 c7 -7 362 -146 373 -146 l9 0 -6 7 c-11 11 -185 83
-276 114 -80 27 -110 35 -100 25z"/>
<path d="M98818 31737 l-27 -11 -10 -29 -11 -29 29 31 29 31 29 0 28 0 -15 10
c-17 11 -16 11 -52 -3z"/>
<path d="M98907 31692 c78 -120 270 -392 276 -392 4 0 -33 60 -83 133 -51 72
-115 167 -144 209 -28 43 -55 78 -59 78 l-9 0 19 -28z"/>
<path d="M1655 30345 l-30 -25 21 0 21 0 23 25 23 25 -14 0 c-8 -1 -27 -12
-44 -25z"/>
<path d="M94328 29351 c-1 -5 -61 -51 -133 -101 -303 -216 -665 -483 -661
-487 2 -2 98 63 213 146 114 83 295 212 402 287 l193 136 13 -19 c7 -10 88
-119 180 -243 91 -124 221 -300 288 -392 67 -92 123 -165 126 -162 2 2 -6 19
-19 37 -14 17 -92 127 -175 242 -83 116 -206 285 -273 376 -67 91 -122 171
-122 178 l0 11 -14 0 c-8 0 -16 -4 -18 -9z"/>
<path d="M585 29140 l-90 -6 135 -1 c74 0 169 3 210 7 l75 7 -120 -1 c-66 0
-160 -3 -210 -6z"/>
<path d="M70090 29027 c8 -8 58 -41 110 -74 52 -33 134 -86 183 -117 l87 -56
0 9 c0 10 -371 251 -386 251 l-8 0 14 -13z"/>
<path d="M95585 26983 c-154 -113 -322 -236 -373 -273 l-93 -68 8 -5 8 -5 280
205 c154 113 322 236 373 273 l94 68 -9 5 -8 5 -280 -205z"/>
<path d="M24897 26842 c-9 -48 -19 -114 -21 -147 l-6 -60 9 40 c16 73 43 246
39 251 -2 2 -12 -36 -21 -84z"/>
<path d="M94822 26725 c-101 -73 -186 -136 -189 -139 l-6 -6 9 0 c8 0 361 254
380 273 l7 7 -9 0 c-5 -1 -91 -61 -192 -135z"/>
<path d="M23940 26452 c0 -16 35 -40 75 -51 22 -6 146 -24 275 -40 129 -16
243 -33 253 -37 l18 -6 14 -29 15 -28 0 -28 0 -29 -58 -174 c-33 -96 -69 -194
-80 -217 -24 -46 -26 -53 -14 -53 15 0 54 94 113 270 l59 174 0 27 c0 15 -6
42 -14 61 l-15 34 -38 17 -38 16 -220 26 c-121 14 -239 30 -262 36 l-43 11
-11 14 c-13 16 -29 19 -29 6z"/>
<path d="M24720 26394 l0 -14 26 -10 c14 -6 38 -10 53 -10 l29 0 11 14 12 14
-10 6 -9 6 -14 -5 -15 -6 -41 10 -42 9 0 -14z"/>
<path d="M87970 24927 c0 -3 14 -38 31 -78 l32 -74 77 -113 78 -113 7 11 6 10
-75 110 -76 110 -28 67 -28 67 -12 4 c-7 2 -12 2 -12 -1z"/>
<path d="M21821 21979 c-123 -16 -226 -31 -229 -34 -16 -15 25 -13 227 13 198
26 244 35 230 45 -2 2 -105 -9 -228 -24z"/>
<path d="M89545 20878 c-77 -71 -142 -135 -144 -141 -4 -11 65 49 224 196 39
36 68 67 65 70 -3 2 -68 -54 -145 -125z"/>
<path d="M89614 20889 c-44 -40 -133 -123 -199 -184 -66 -62 -164 -152 -217
-201 -54 -48 -98 -92 -98 -97 0 -5 53 40 118 99 123 113 378 344 446 406 l41
36 -6 7 -7 6 -78 -72z"/>
<path d="M22587 20303 l-6 -9 50 -199 c27 -110 52 -210 54 -222 l5 -22 13 5
13 5 -57 220 c-31 121 -59 222 -62 225 -3 3 -7 1 -10 -3z"/>
<path d="M90450 19500 c0 -15 101 -412 107 -419 2 -2 6 -1 9 2 l7 7 -52 202
c-29 112 -57 207 -62 213 l-9 9 0 -14z"/>
<path d="M7752 17945 c0 -16 3 -39 8 -50 l9 -20 -1 25 c0 14 -4 36 -8 50 l-8
25 0 -30z"/>
<path d="M91525 17050 c10 -11 20 -20 22 -20 2 0 -2 9 -9 20 -7 11 -17 20 -22
20 l-9 0 18 -20z"/>
<path d="M92930 16992 c0 -13 526 -478 950 -841 195 -167 366 -313 379 -325
l24 -21 -4 12 c-2 6 -184 166 -404 355 -220 189 -523 453 -673 586 -150 134
-272 239 -272 234z"/>
<path d="M92900 16964 c0 -17 995 -884 1014 -884 l10 0 -9 9 c-6 4 -163 140
-350 301 -291 251 -531 462 -637 559 l-28 25 0 -10z"/>
<path d="M92177 16433 l-6 -10 96 -104 c53 -57 117 -126 143 -154 56 -60 404
-363 425 -371 l15 -6 0 5 c0 4 -89 84 -197 180 l-198 174 -119 129 c-66 71
-127 137 -137 148 l-17 18 -5 -9z"/>
<path d="M25509 12776 c-2 -2 -85 -14 -184 -25 -98 -12 -181 -24 -184 -26 -8
-9 41 -5 207 15 l162 19 18 10 17 10 -16 1 c-9 0 -18 -2 -20 -4z"/>
<path d="M16166 5611 c5 -5 103 -46 217 -91 l208 -82 6 6 c4 3 4 8 2 10 -8 6
-424 166 -433 166 l-10 0 10 -9z"/>
<path d="M24727 3969 c-70 -87 -130 -165 -133 -174 l-6 -15 10 0 c7 0 180 207
265 318 l10 13 -9 8 -9 9 -128 -159z"/>
<path d="M23499 2203 c-51 -76 -105 -155 -121 -175 l-29 -37 9 -5 9 -5 25 27
c27 28 205 292 215 317 l5 15 -11 0 -11 0 -91 -137z"/>
<path d="M23525 2153 l-110 -165 -18 -10 -18 -9 11 -14 12 -14 32 37 c17 21
73 102 125 180 l94 143 -9 9 -9 8 -110 -165z"/>
<path d="M22984 2232 c7 -11 313 -252 320 -252 21 0 -12 31 -149 138 -85 67
-160 122 -166 122 l-10 0 5 -8z"/>
<path d="M10790 1701 l0 -9 38 -6 c20 -3 229 -18 464 -33 l427 -27 7 7 c4 4 5
9 2 12 -4 5 -852 65 -915 65 l-23 0 0 -9z"/>
<path d="M19040 1041 l0 -9 28 -6 c15 -3 114 -10 220 -17 l192 -12 7 6 c3 4 4
9 2 12 -5 4 -369 35 -421 35 l-28 0 0 -9z"/>
</g>
</svg>
