<?xml version="1.0" standalone="no"?>
<!DOCTYPE svg PUBLIC "-//W3C//DTD SVG 20010904//EN"
 "http://www.w3.org/TR/2001/REC-SVG-20010904/DTD/svg10.dtd">
<svg version="1.0" xmlns="http://www.w3.org/2000/svg"
 width="7500.000000pt" height="7500.000000pt" viewBox="0 0 7500.000000 7500.000000"
 preserveAspectRatio="xMidYMid meet">
<metadata>
Created by potrace 1.16, written by Peter Selinger 2001-2019
</metadata>
<g transform="translate(0.000000,7500.000000) scale(0.075000,-0.075000)"
fill="#000000" stroke="none">
<path d="M83713 98873 l7 -11 77 -11 c43 -5 123 -13 178 -16 55 -3 119 -8 143
-11 l42 -5 0 10 0 11 -62 0 c-80 0 -347 26 -372 36 l-19 7 6 -10z"/>
<path d="M85526 97939 l-109 -20 -85 -36 -85 -37 10 -3 c5 -2 48 13 94 32 l84
36 108 17 107 16 0 8 c0 4 -3 8 -7 7 -5 -1 -57 -10 -117 -20z"/>
<path d="M87038 97746 c-114 -18 -211 -35 -214 -39 l-7 -7 9 0 c35 2 446 68
451 74 l6 6 -19 -1 c-10 -1 -112 -16 -226 -33z"/>
<path d="M96160 92714 c-129 -136 -284 -306 -344 -378 -211 -251 -471 -564
-581 -697 -60 -73 -179 -215 -264 -314 l-153 -180 -367 -390 c-423 -450 -1180
-1242 -1616 -1689 l-300 -308 -90 -77 c-114 -97 -312 -232 -446 -304 l-105
-56 -154 -60 c-176 -67 -667 -237 -1060 -366 -366 -120 -2281 -757 -2922 -973
l-528 -177 0 -12 c0 -7 4 -13 9 -13 5 0 303 99 663 219 359 121 1119 373 1688
561 1277 421 2001 665 2186 736 l140 54 100 53 c135 73 319 197 434 294 l95
80 295 304 c297 307 586 607 1021 1059 129 135 390 409 579 610 l344 365 145
171 c80 94 178 209 216 256 39 46 237 285 441 529 l371 444 198 210 c109 116
212 225 228 243 l31 32 -10 10 -11 11 -233 -247z"/>
<path d="M21607 92767 l-5 -14 161 -46 c89 -26 192 -55 230 -66 l67 -20 0 13
0 12 -209 62 c-115 34 -216 64 -224 68 l-14 5 -6 -14z"/>
<path d="M22830 92611 l0 -10 53 -16 c28 -8 223 -66 432 -129 209 -62 382
-111 384 -109 13 10 -50 32 -429 143 -228 68 -421 125 -427 128 l-13 4 0 -11z"/>
<path d="M25084 91888 c-3 -5 -4 -11 -1 -14 7 -7 411 -124 430 -124 l17 0 0
10 0 9 -57 17 c-32 9 -131 38 -221 64 l-162 48 -6 -10z"/>
<path d="M95269 91593 c-78 -98 -177 -216 -219 -263 l-77 -85 -48 -90 c-27
-50 -55 -97 -62 -107 l-14 -16 9 -6 9 -5 20 22 c12 12 37 55 57 94 l36 73 61
67 61 68 22 8 21 8 142 172 142 172 -9 10 -9 11 15 22 15 22 -15 0 -15 0 -142
-177z"/>
<path d="M94915 91493 c-36 -49 -103 -125 -147 -171 l-80 -83 -40 -20 -40 -21
10 -10 10 -10 31 17 c17 8 63 45 101 82 l71 66 84 109 c47 59 85 113 85 118 0
25 -23 4 -85 -77z"/>
<path d="M93595 91419 c33 -33 85 -78 115 -98 l55 -38 84 -37 c47 -20 87 -36
90 -36 15 0 -22 21 -77 44 -34 15 -93 46 -130 70 l-67 44 -55 56 c-30 31 -59
56 -64 56 l-10 0 59 -61z"/>
<path d="M28070 91111 c8 -5 170 -56 360 -115 190 -58 353 -111 363 -117 22
-12 33 -6 15 8 -13 10 -729 233 -745 233 -4 0 -1 -4 7 -9z"/>
<path d="M94801 90959 l-33 -39 -14 0 -14 0 0 -16 0 -15 23 6 22 7 38 38 c20
22 37 44 37 50 l0 10 -12 -1 c-7 0 -28 -18 -47 -40z"/>
<path d="M95395 90451 c6 -5 136 -61 290 -125 154 -63 314 -133 355 -155 l75
-40 45 -45 c24 -25 49 -46 54 -46 l10 0 -54 56 -55 56 -60 30 c-49 25 -415
178 -620 260 l-50 19 10 -10z"/>
<path d="M94015 90223 l-99 -108 104 96 c57 52 106 101 108 107 l4 12 -9 0
c-4 0 -53 -48 -108 -107z"/>
<path d="M95845 90303 c6 -5 51 -27 100 -48 50 -20 112 -49 139 -62 l49 -25
54 -50 c29 -28 53 -47 53 -42 0 14 -90 98 -130 122 -28 16 -187 83 -260 110
l-15 5 10 -10z"/>
<path d="M93733 89895 c-183 -189 -333 -348 -333 -354 0 -6 4 -11 8 -11 4 0
107 102 227 227 121 125 271 281 334 346 l114 118 -9 8 -9 9 -332 -343z"/>
<path d="M84357 89972 l-26 -57 -41 -154 -41 -154 9 -9 8 -8 44 166 43 165 23
49 23 50 -8 4 -8 5 -26 -57z"/>
<path d="M97540 89236 c-19 -6 -86 -39 -148 -72 l-112 -61 5 -5 6 -6 119 64
118 64 54 10 c29 5 71 11 93 13 l40 4 -70 1 -70 1 -35 -13z"/>
<path d="M84065 89083 c-9 -43 -32 -141 -50 -218 -29 -124 -34 -167 -18 -151
4 4 103 422 103 439 0 4 -4 7 -9 7 l-9 0 -17 -77z"/>
<path d="M84136 89133 c-12 -40 -96 -406 -96 -419 0 -8 3 -14 8 -14 l7 0 49
213 c27 116 51 218 53 225 l5 12 -10 0 -11 0 -5 -17z"/>
<path d="M86340 88939 l55 -11 210 -2 210 -3 90 -12 c73 -10 208 -37 330 -67
l20 -5 -15 9 c-25 16 -227 60 -355 77 l-119 17 -136 -4 c-74 -1 -182 0 -240 4
l-105 7 55 -10z"/>
<path d="M78542 88650 l4 -13 213 -75 212 -74 6 6 c4 3 4 8 1 11 -4 5 -357
131 -417 150 l-23 7 4 -12z"/>
<path d="M15155 88340 l-6 -9 201 -101 c110 -55 202 -100 205 -100 24 0 -18
25 -192 115 l-202 105 -6 -10z"/>
<path d="M91895 88253 l-120 -56 -380 -132 c-209 -73 -545 -187 -747 -254
l-368 -123 0 -9 c0 -5 3 -9 6 -9 14 0 865 281 1154 381 l315 109 138 62 137
61 0 14 c0 18 -2 18 -135 -44z"/>
<path d="M83841 88064 l-42 -216 6 -6 c3 -3 7 -3 9 -1 2 2 23 98 46 213 l41
209 -9 9 -8 8 -43 -216z"/>
<path d="M15980 87886 c8 -7 143 -89 300 -181 l285 -169 98 -73 99 -73 10 6
10 6 -9 8 c-64 60 -761 490 -795 490 l-12 0 14 -14z"/>
<path d="M83820 87703 c-17 -92 -180 -820 -295 -1316 l-13 -58 11 4 11 3 123
535 c106 463 203 910 203 940 0 5 -4 9 -9 9 l-9 0 -22 -117z"/>
<path d="M75068 87714 l-6 -5 90 -187 c96 -201 95 -198 104 -189 l7 6 -89 183
c-48 101 -90 186 -94 191 l-6 7 -6 -6z"/>
<path d="M83695 87378 c-11 -32 -93 -413 -89 -417 10 -11 20 23 64 219 l47
210 -9 0 c-5 0 -11 -6 -13 -12z"/>
<path d="M84447 87189 l-99 -189 9 0 8 0 93 186 c51 103 92 188 90 190 -2 1
-48 -82 -101 -187z"/>
<path d="M83192 86960 l4 -13 182 -65 182 -65 0 -17 c0 -44 -190 -837 -216
-899 -16 -38 -17 -51 -6 -51 l8 0 22 63 c24 68 132 506 182 737 l32 145 9 6
10 6 -7 16 -6 17 -18 0 c-13 0 -272 89 -364 126 l-19 7 5 -13z"/>
<path d="M83681 86916 c2 -2 65 -21 139 -41 74 -20 156 -43 183 -50 l47 -14 0
7 0 7 -177 48 c-167 45 -202 53 -192 43z"/>
<path d="M75707 86484 l-5 -6 19 -32 c10 -18 28 -59 39 -91 l20 -58 0 -40 0
-39 -74 -207 c-41 -113 -90 -250 -110 -304 l-36 -99 11 4 11 4 100 274 99 275
11 63 10 62 -18 53 c-16 50 -61 147 -68 147 -1 0 -5 -3 -9 -6z"/>
<path d="M79035 85928 c-2 -7 -35 -197 -74 -423 -39 -225 -73 -418 -75 -428
l-4 -18 11 4 10 3 73 415 c40 228 75 424 77 437 l4 22 -9 0 c-5 0 -10 -6 -13
-12z"/>
<path d="M81661 85316 c9 -9 384 -136 399 -135 8 0 -74 31 -184 70 -181 63
-227 77 -215 65z"/>
<path d="M80040 84726 l-62 -186 4 -16 3 -17 40 -13 40 -14 -19 15 c-11 8 -25
15 -32 15 -7 0 -16 5 -19 10 l-6 11 61 185 c34 102 60 188 57 190 -3 3 -33
-78 -67 -180z"/>
<path d="M40817 84664 l-6 -6 58 -87 c66 -98 125 -211 136 -258 l7 -33 15 0
15 0 -7 31 c-13 57 -56 142 -127 251 -68 104 -78 115 -91 102z"/>
<path d="M80080 84522 c0 -9 419 -156 426 -150 2 3 -51 24 -118 48 -68 24
-165 58 -215 76 l-93 33 0 -7z"/>
<path d="M86657 84335 c-28 -195 -31 -222 -22 -213 8 8 57 357 53 381 l-3 22
-28 -190z"/>
<path d="M87150 84471 l0 -9 153 -42 c83 -24 189 -53 235 -66 l83 -23 -3 11
-4 11 -225 63 c-246 69 -239 68 -239 55z"/>
<path d="M83490 84233 c-140 -123 -297 -264 -349 -312 l-95 -87 8 -12 7 -11
162 146 c89 81 246 223 349 316 l188 169 -6 9 c-3 5 -6 9 -7 8 -1 0 -117 -102
-257 -226z"/>
<path d="M83589 84276 c-174 -158 -266 -252 -291 -300 l-16 -32 -8 -73 -7 -74
14 5 14 5 5 69 5 69 17 30 16 30 99 95 c54 52 149 140 211 194 109 97 120 110
105 119 l-8 4 -156 -141z"/>
<path d="M0 84017 l0 -14 37 -26 38 -27 3 10 c5 14 -10 31 -47 53 l-31 18 0
-14z"/>
<path d="M27470 83860 c-19 -11 -117 -47 -217 -80 l-183 -62 0 -9 c0 -5 5 -9
11 -9 19 0 356 118 398 140 l41 20 0 10 c0 14 -10 12 -50 -10z"/>
<path d="M84156 83588 c13 -21 226 -323 232 -328 3 -3 2 3 -1 12 -9 26 -221
327 -230 327 l-8 1 7 -12z"/>
<path d="M83226 83512 l-6 -10 18 -23 19 -22 6 9 5 10 -17 23 -18 24 -7 -11z"/>
<path d="M83236 83421 l-6 -10 77 -60 78 -61 55 -17 55 -18 66 1 66 0 46 14
47 13 0 13 0 14 -37 -15 -36 -15 -76 -2 -76 -1 -40 12 c-53 18 -99 45 -162 98
l-51 44 -6 -10z"/>
<path d="M81715 82487 c-311 -340 -421 -453 -573 -590 l-133 -120 10 -10 10
-10 68 59 c135 117 320 304 589 596 l273 296 -12 10 -12 10 -220 -241z"/>
<path d="M92539 82403 c-58 -82 -109 -154 -114 -162 l-8 -14 11 4 c9 3 194
255 226 307 l7 12 -9 0 c-4 0 -56 -66 -113 -147z"/>
<path d="M75172 81482 l-33 -97 -19 -125 c-10 -68 -17 -126 -15 -129 7 -7 13
19 30 139 l17 115 34 92 33 92 -7 5 -8 5 -32 -97z"/>
<path d="M74716 81301 l-6 -9 39 -48 38 -49 16 -50 c8 -27 18 -80 22 -118 l7
-68 -21 -35 c-12 -19 -21 -40 -21 -46 l0 -11 20 18 19 17 11 33 11 33 -11 85
c-6 47 -15 100 -22 118 l-11 34 -43 53 -43 52 -5 -9z"/>
<path d="M42397 81263 l-6 -9 40 -114 c22 -63 65 -180 96 -259 31 -80 64 -171
74 -204 l18 -59 7 -104 7 -104 13 0 14 0 -6 73 c-3 39 -10 97 -14 128 l-8 56
-80 214 c-44 118 -92 250 -108 294 -15 44 -30 84 -34 88 l-8 9 -5 -9z"/>
<path d="M95546 80490 c-190 -268 -263 -378 -234 -350 19 18 475 670 469 670
-4 0 -110 -144 -235 -320z"/>
<path d="M16380 76388 l1 -13 199 -90 c110 -49 203 -89 207 -88 4 1 9 5 10 10
l3 8 -202 93 c-112 50 -206 92 -210 92 -5 0 -8 -6 -8 -12z"/>
<path d="M9880 74667 l0 -13 230 -19 230 -18 7 6 c3 4 4 9 1 12 -3 3 -430 45
-463 45 -3 0 -5 -6 -5 -13z"/>
<path d="M76466 70258 c55 -57 124 -136 154 -175 29 -40 56 -71 58 -68 15 15
-213 290 -272 329 -51 33 -37 14 60 -86z"/>
<path d="M76820 69743 c0 -7 141 -375 147 -382 2 -2 5 -2 8 1 l6 6 -73 191
c-40 105 -76 191 -80 191 -5 0 -8 -3 -8 -7z"/>
<path d="M36220 69121 c0 -6 4 -11 9 -11 5 0 102 -14 216 -30 184 -27 230 -30
214 -16 -2 2 -89 16 -194 31 -104 14 -202 29 -217 32 l-28 6 0 -12z"/>
<path d="M34655 68950 c-4 -6 -5 -13 -4 -14 2 -2 93 -22 201 -44 109 -23 214
-48 234 -57 l36 -15 9 6 c32 19 -38 43 -266 90 -93 19 -177 37 -187 40 l-16 5
-7 -11z"/>
<path d="M67995 68294 c-209 -217 -380 -398 -380 -404 0 -5 2 -11 5 -12 4 -2
308 309 714 729 l60 63 -9 8 -10 9 -380 -393z"/>
<path d="M48830 67881 l15 -8 135 -7 135 -7 65 -14 c36 -8 72 -14 80 -14 l15
0 -21 9 c-37 15 -215 39 -329 44 l-110 5 15 -8z"/>
<path d="M60817 67414 l-109 -196 12 -12 13 -11 3 10 c2 6 51 95 109 199 l105
188 -6 9 c-3 5 -8 9 -12 9 -4 0 -56 -88 -115 -196z"/>
<path d="M17782 67212 c-76 -99 -113 -160 -156 -255 l-35 -77 12 0 12 0 19 48
c26 67 91 174 163 270 35 46 63 85 63 88 0 18 -28 -8 -78 -74z"/>
<path d="M66653 67078 c-234 -189 -1022 -800 -1128 -875 -122 -86 -215 -140
-349 -203 l-101 -48 -115 -35 c-137 -42 -232 -62 -400 -81 l-125 -15 -330 -10
c-181 -6 -463 -13 -625 -16 -162 -3 -401 -10 -530 -16 l-235 -10 -90 -15 c-87
-14 -359 -83 -420 -106 -63 -24 -312 -142 -635 -301 -184 -90 -367 -178 -405
-195 -109 -47 -860 -413 -1024 -499 l-146 -76 -125 -86 -125 -85 -190 -162
-190 -161 -261 -190 -260 -190 -450 -263 -449 -264 -321 -212 c-177 -116 -351
-235 -387 -264 l-66 -53 5 -9 c10 -15 25 -8 92 46 71 57 174 127 285 195 l68
41 11 -6 11 -7 -6 10 -7 11 138 90 c75 49 353 216 616 371 l480 282 255 187
256 186 188 160 189 161 121 83 c119 81 157 103 362 213 121 65 949 469 1350
659 160 75 331 158 381 183 50 25 131 62 180 82 l89 36 146 40 c80 21 183 46
229 54 l82 14 207 10 c113 6 429 15 701 21 272 6 591 15 709 21 l215 10 105
15 c124 17 140 21 331 81 163 51 283 97 320 122 14 10 52 32 85 51 133 73 620
442 1212 918 l243 194 -6 9 c-3 5 -9 9 -14 9 -4 0 -71 -50 -147 -112z"/>
<path d="M97486 66191 l-430 -107 -4 -12 -4 -12 9 0 c4 0 209 50 455 111 l448
111 -6 9 c-3 5 -13 8 -22 8 -9 -1 -210 -49 -446 -108z"/>
<path d="M97554 65956 c40 -194 49 -226 61 -214 3 2 -15 96 -38 208 l-44 204
-10 3 -11 4 42 -205z"/>
<path d="M83953 65917 l-183 -62 0 -11 0 -12 213 70 c116 38 214 72 216 74 2
2 -11 4 -30 3 l-34 -1 -182 -61z"/>
<path d="M65055 65878 l-100 -39 -105 -25 c-58 -14 -113 -26 -122 -27 -19 -1
-24 -12 -10 -21 l9 -5 119 28 119 29 95 37 c52 21 99 41 103 45 l9 8 -9 5 -8
5 -100 -40z"/>
<path d="M94920 65735 c-63 -12 -170 -32 -237 -45 l-123 -22 0 -15 0 -14 18 5
c9 3 118 23 242 46 124 23 227 43 229 46 3 2 0 8 -5 13 l-9 8 -115 -22z"/>
<path d="M64065 65739 c-71 -4 -157 -12 -190 -18 l-60 -11 -290 0 c-159 0
-405 -5 -545 -10 l-255 -10 -154 -25 c-85 -14 -157 -27 -159 -30 -2 -2 -1 -9
3 -14 l6 -11 9 5 c4 3 77 16 161 29 l154 25 340 12 340 12 175 -6 175 -7 65
11 c36 6 141 16 234 23 l169 11 5 13 4 12 -29 -2 c-15 0 -86 -5 -158 -9z"/>
<path d="M3430 65460 c-11 -22 -26 -67 -34 -100 l-14 -60 7 -53 7 -53 22 -36
c27 -43 98 -110 142 -133 l31 -16 17 3 17 4 -46 27 -47 28 -45 48 c-25 26 -53
63 -62 81 l-18 34 6 66 6 67 25 63 c30 73 29 70 16 70 l-10 0 -20 -40z"/>
<path d="M37057 64571 l-5 -20 47 -11 c25 -6 129 -21 231 -34 l185 -22 3 14 4
15 -11 7 c-7 3 -82 14 -169 24 -86 10 -183 24 -215 32 -32 8 -60 14 -62 14 -1
0 -5 -9 -8 -19z"/>
<path d="M38850 64560 l0 -7 71 -12 c94 -17 97 -9 4 11 l-75 15 0 -7z"/>
<path d="M39230 64460 l225 -71 120 -51 c66 -28 131 -57 145 -64 14 -8 108
-46 209 -84 l184 -71 8 13 8 13 -17 6 c-9 4 -114 44 -232 89 -118 45 -282 108
-365 140 -154 59 -399 134 -470 145 l-40 6 225 -71z"/>
<path d="M1441 64511 l-13 -8 16 -6 15 -6 40 -78 c22 -43 52 -91 66 -107 l26
-28 6 5 5 6 -30 38 c-16 21 -46 70 -65 110 -20 39 -40 74 -45 77 l-8 5 -13 -8z"/>
<path d="M59752 64457 c-15 -39 -9 -44 17 -18 24 24 26 37 8 44 l-13 5 -12
-31z"/>
<path d="M80285 64302 c-110 -25 -202 -47 -204 -49 -2 -2 -1 -6 2 -10 l7 -6
215 49 215 48 0 8 0 8 -17 -1 c-10 0 -108 -21 -218 -47z"/>
<path d="M59715 64317 l-18 -14 -52 -140 -51 -140 -55 -98 -54 -99 -72 -76
-72 -77 -88 -56 -88 -55 -90 -26 -90 -26 -165 -15 -165 -15 -52 -14 c-84 -23
-142 -53 -483 -255 -395 -234 -472 -282 -467 -287 2 -2 32 7 66 21 l62 26 344
204 c189 113 368 215 397 228 77 34 133 45 313 62 l160 14 97 29 97 30 87 55
87 56 84 93 83 92 49 96 49 95 45 125 c25 69 50 137 56 153 12 31 11 32 -14
14z"/>
<path d="M58920 64146 l0 -14 30 -12 31 -13 15 -29 15 -29 -6 -30 -7 -29 15 0
15 0 7 30 7 30 -12 35 -12 35 -38 20 c-22 11 -44 20 -50 20 l-10 0 0 -14z"/>
<path d="M89355 64064 c-36 -38 -65 -73 -65 -79 0 -5 29 21 63 59 l63 69 12
-7 c18 -11 415 -475 445 -521 15 -22 27 -35 27 -29 0 22 -80 124 -261 334
-102 118 -193 221 -203 229 l-17 14 -64 -69z"/>
<path d="M77197 64083 l-6 -5 44 -44 c50 -51 61 -55 41 -16 l-14 27 -30 22
-30 22 -5 -6z"/>
<path d="M40596 64061 l-18 -19 11 -21 c16 -29 209 -245 224 -250 l12 -4 -31
34 c-109 120 -194 220 -194 230 0 5 5 19 10 30 14 24 8 24 -14 0z"/>
<path d="M78490 64033 c-102 -13 -187 -26 -189 -29 -2 -2 -2 -7 1 -10 l6 -5
216 27 216 28 0 8 0 8 -32 -1 c-18 -1 -116 -12 -218 -26z"/>
<path d="M78950 64033 c-107 -13 -197 -26 -199 -29 -2 -2 -2 -7 1 -10 l6 -5
221 27 221 27 0 9 0 8 -27 -1 c-16 -1 -116 -12 -223 -26z"/>
<path d="M1930 63988 l0 -13 320 -285 c177 -157 325 -286 330 -288 l10 -4 0 9
c0 7 -249 232 -617 556 l-43 39 0 -14z"/>
<path d="M77278 63974 l-6 -5 5 -39 6 -39 -12 -47 c-7 -25 -10 -48 -7 -51 2
-2 21 4 43 15 21 10 58 24 83 30 l45 11 438 43 437 42 -9 9 -9 9 -429 -41
c-381 -37 -509 -53 -550 -68 l-13 -5 0 71 0 71 -8 0 c-5 0 -11 -3 -14 -6z"/>
<path d="M76902 63820 l5 -70 -26 8 c-28 8 -26 8 -311 -3 l-195 -7 -281 36
c-155 20 -291 36 -303 36 l-21 0 0 -8 0 -8 314 -38 314 -39 198 7 c241 9 269
9 310 -4 l32 -11 17 -19 18 -20 9 6 10 6 -32 33 -32 33 -5 66 -6 66 -10 0 -10
0 5 -70z"/>
<path d="M40215 63850 c10 -11 20 -20 23 -20 3 0 -3 9 -13 20 -10 11 -20 20
-23 20 -3 0 3 -9 13 -20z"/>
<path d="M89621 63833 c102 -114 165 -190 204 -249 l45 -69 0 13 c0 7 -15 35
-34 63 -46 69 -217 269 -229 269 l-11 0 25 -27z"/>
<path d="M40295 63780 c21 -22 41 -40 44 -40 3 0 -13 18 -34 40 -21 22 -41 40
-44 40 -3 0 13 -18 34 -40z"/>
<path d="M90085 63634 c-193 -167 -387 -354 -518 -498 l-81 -90 11 -3 11 -4
199 202 198 202 188 164 187 164 -5 10 c-4 5 -7 9 -8 9 -1 0 -83 -70 -182
-156z"/>
<path d="M77214 63738 l-7 -22 12 -4 11 -4 0 -36 c0 -20 13 -113 29 -207 l29
-170 66 -279 c37 -154 68 -282 71 -284 18 -18 8 37 -50 284 -66 276 -125 585
-125 649 0 18 -3 47 -6 64 l-6 31 -9 0 c-4 0 -11 -10 -15 -22z"/>
<path d="M40790 63734 c0 -5 225 -260 273 -309 l19 -20 -3 12 c-4 13 -278 323
-285 323 -2 0 -4 -3 -4 -6z"/>
<path d="M76995 63680 c-4 -6 -4 -10 -1 -10 2 0 11 -3 20 -6 l16 -6 0 10 c0 5
-7 12 -15 15 l-14 6 -6 -9z"/>
<path d="M77108 63683 l-18 -4 0 -14 0 -13 35 10 34 11 -5 9 c-5 8 -17 9 -46
1z"/>
<path d="M69664 63430 c-12 -4 -205 -61 -430 -125 -225 -65 -413 -122 -419
-127 l-10 -10 35 6 c19 4 219 59 444 124 l409 117 5 13 4 12 -9 -1 c-4 0 -17
-4 -29 -9z"/>
<path d="M48026 63241 c16 -17 356 -202 361 -197 3 2 -6 11 -19 19 -47 30
-337 187 -344 187 l-8 0 10 -9z"/>
<path d="M60590 63226 c0 -8 -31 -61 -69 -119 -38 -57 -74 -114 -81 -127 l-12
-22 -7 -74 -7 -74 8 0 8 0 0 49 0 48 14 41 15 41 61 91 c34 51 68 107 76 126
l14 34 -10 0 -10 0 0 -14z"/>
<path d="M40931 63167 l-12 -15 302 -343 c166 -189 305 -345 309 -347 4 -1 12
3 18 10 l11 13 -285 325 c-157 179 -296 335 -308 348 l-23 23 -12 -14z"/>
<path d="M42250 63044 c0 -10 262 -305 267 -300 5 4 -255 306 -263 306 -2 0
-4 -3 -4 -6z"/>
<path d="M11000 62741 c24 -9 127 -15 119 -7 -2 2 -35 6 -74 9 l-70 6 25 -8z"/>
<path d="M58008 62461 c-107 -87 -208 -167 -223 -179 -16 -12 -26 -24 -23 -27
2 -2 94 68 204 156 109 89 210 170 223 180 13 11 22 21 20 24 -3 2 -93 -67
-201 -154z"/>
<path d="M58230 62617 c0 -8 421 -180 426 -174 2 2 -83 40 -190 85 -203 84
-236 96 -236 89z"/>
<path d="M60501 62400 c-2 -10 160 -774 164 -779 10 -9 3 26 -70 381 -64 308
-91 423 -94 398z"/>
<path d="M27925 62209 c5 -8 50 -72 101 -144 51 -71 206 -305 346 -520 l254
-390 46 -105 46 -105 20 -80 21 -80 11 -107 11 -107 -2 -153 -2 -153 -33 -219
c-31 -200 -34 -239 -19 -224 3 3 21 108 39 234 l34 229 7 115 7 115 -16 140
-17 140 -20 75 -20 75 -57 130 -57 130 -286 430 c-323 483 -388 576 -408 583
l-14 5 8 -14z"/>
<path d="M65480 62190 l0 -10 230 0 230 0 0 10 0 10 -230 0 -230 0 0 -10z"/>
<path d="M89915 61990 l-147 -179 -183 154 c-101 85 -186 155 -189 155 -3 0
-6 -4 -6 -8 0 -10 352 -310 373 -318 l14 -5 100 123 c55 68 123 151 152 185
l51 62 -9 5 -9 6 -147 -180z"/>
<path d="M40636 62068 c14 -46 32 -94 41 -106 l15 -24 5 6 6 6 -12 23 c-6 12
-22 55 -34 96 l-22 74 -12 4 -12 4 25 -83z"/>
<path d="M40097 61872 c-23 -22 -69 -55 -103 -74 l-60 -35 -97 -24 c-53 -12
-97 -26 -97 -30 l0 -7 108 28 107 27 46 27 c25 14 72 48 103 76 l57 50 -11 0
c-6 0 -29 -17 -53 -38z"/>
<path d="M59930 61841 c0 -8 319 -145 325 -139 3 3 -69 36 -160 75 -91 39
-165 68 -165 64z"/>
<path d="M57825 61683 c15 -15 476 -214 487 -211 7 3 -423 195 -482 216 l-15
5 10 -10z"/>
<path d="M57813 61643 c12 -12 480 -213 485 -208 3 2 -15 13 -39 24 -24 10
-133 57 -242 105 -109 47 -201 86 -204 86 l-6 0 6 -7z"/>
<path d="M60532 61416 l-93 -54 9 -6 9 -5 49 26 c77 41 124 72 124 83 0 13 8
17 -98 -44z"/>
<path d="M43525 61369 c100 -101 294 -273 301 -266 3 2 -37 41 -88 85 -51 44
-133 121 -183 171 -49 50 -94 91 -100 91 -5 0 26 -36 70 -81z"/>
<path d="M89508 61217 c-27 -68 -48 -133 -48 -144 l0 -20 76 -27 c41 -15 83
-30 92 -33 l17 -6 -10 10 c-5 6 -45 23 -87 38 l-78 28 0 11 c0 10 20 64 81
219 l19 47 -8 0 c-4 0 -28 -56 -54 -123z"/>
<path d="M5175 61159 c-8 -13 -23 -3 125 -87 l125 -71 160 -111 160 -112 99
-50 99 -49 9 9 9 9 -43 25 c-24 14 -67 38 -97 53 -30 15 -140 84 -245 154
-164 109 -284 183 -373 230 l-22 11 -6 -11z"/>
<path d="M49838 60787 l-38 -11 0 -9 0 -9 16 6 c9 3 27 9 40 12 l24 6 0 9 c0
5 -1 8 -2 8 -2 -1 -20 -6 -40 -12z"/>
<path d="M60843 60601 c23 -111 44 -201 47 -201 8 0 -70 383 -80 393 l-8 9 41
-201z"/>
<path d="M44221 60713 c8 -10 86 -96 174 -191 l160 -174 0 -12 0 -12 -140
-123 c-77 -68 -142 -129 -144 -135 l-4 -11 24 21 c13 11 82 71 152 132 70 62
131 112 135 111 4 0 186 -195 405 -432 426 -462 603 -648 611 -639 3 2 -62 75
-145 161 -179 186 -859 917 -859 924 0 4 347 312 388 344 8 7 13 15 11 18 -3
2 -95 -74 -204 -170 -110 -96 -203 -175 -206 -175 -4 0 -87 86 -184 190 -97
105 -179 190 -182 190 -3 0 1 -8 8 -17z"/>
<path d="M44180 60703 c0 -11 326 -375 342 -381 4 -2 8 -1 8 3 0 6 -235 269
-322 360 l-28 30 0 -12z"/>
<path d="M78010 60520 l0 -13 7 6 6 7 -6 7 -7 6 0 -13z"/>
<path d="M57310 60455 c0 -8 12 -45 26 -82 14 -38 31 -96 37 -130 l12 -62 12
7 11 7 -10 55 c-5 30 -23 92 -40 138 l-31 82 -9 0 c-4 0 -8 -7 -8 -15z"/>
<path d="M77980 60446 c0 -18 160 -649 166 -655 15 -15 4 39 -69 337 l-81 332
-8 0 c-4 0 -8 -6 -8 -14z"/>
<path d="M57360 60408 l0 -12 46 -43 c43 -40 145 -113 158 -113 17 0 1 20 -34
44 -22 15 -69 51 -105 81 l-65 56 0 -13z"/>
<path d="M60924 60395 c3 -11 22 -99 42 -195 20 -96 40 -179 44 -184 l8 -8
-29 133 c-15 74 -34 161 -40 194 -6 33 -16 65 -21 70 l-10 10 6 -20z"/>
<path d="M57221 60325 c-1 -11 -12 -37 -25 -57 l-22 -37 -47 -36 c-26 -20 -47
-38 -47 -41 0 -6 14 2 64 38 l40 29 24 39 23 40 -4 23 -4 22 -2 -20z"/>
<path d="M63524 60260 c3 -14 24 -113 47 -220 l41 -195 10 -10 10 -10 -6 20
c-3 11 -24 106 -46 210 -22 105 -45 199 -50 210 l-10 20 4 -25z"/>
<path d="M87075 60077 c-72 -67 -150 -139 -174 -160 l-45 -37 10 -10 9 -9 90
81 c50 44 127 117 173 161 l83 80 -8 8 -8 8 -130 -122z"/>
<path d="M58610 60179 l-15 -10 37 7 37 6 66 -132 c36 -73 68 -130 71 -127 3
3 -24 64 -60 136 l-66 131 -28 0 c-15 0 -34 -5 -42 -11z"/>
<path d="M43542 59888 l-24 -28 10 0 c13 0 45 37 41 48 l-4 9 -23 -29z"/>
<path d="M63661 59825 c-2 -27 91 -435 99 -435 5 0 -73 365 -94 440 l-4 15 -1
-20z"/>
<path d="M43696 59822 l-7 -12 53 -68 c29 -37 87 -104 130 -148 l77 -81 10 10
10 10 -92 101 c-51 56 -110 124 -133 151 l-40 49 -8 -12z"/>
<path d="M61052 59570 c3 -8 38 -178 79 -377 41 -200 77 -363 80 -363 l7 0
-33 158 c-18 86 -52 252 -75 367 l-43 210 -10 10 -9 10 4 -15z"/>
<path d="M83610 59573 c0 -6 58 -114 129 -240 70 -125 167 -304 215 -396 49
-93 90 -166 92 -164 7 6 -177 355 -316 602 -122 216 -120 213 -120 198z"/>
<path d="M40890 59525 c0 -8 -27 -90 -60 -182 l-60 -167 8 -8 9 -9 52 143 c28
79 58 164 66 191 l14 47 -14 0 -15 0 0 -15z"/>
<path d="M77830 59505 l-55 -14 -377 -1 -378 0 0 -10 0 -10 368 -2 367 -3 76
17 76 17 56 -13 57 -13 5 8 6 8 -38 11 c-21 5 -54 12 -73 15 l-35 4 -55 -14z"/>
<path d="M78216 59494 c12 -49 33 -109 33 -98 1 6 -4 36 -10 67 l-12 57 -9 0
-8 0 6 -26z"/>
<path d="M78251 59364 l1 -19 5 13 5 13 -6 6 -6 6 1 -19z"/>
<path d="M78261 59324 l1 -19 5 13 5 13 -6 6 -6 6 1 -19z"/>
<path d="M78271 59284 l1 -19 5 13 5 13 -6 6 -6 6 1 -19z"/>
<path d="M78283 59240 c4 -14 12 -49 18 -77 l12 -53 8 0 7 0 -20 73 c-19 67
-39 113 -25 57z"/>
<path d="M61174 59200 c3 -14 19 -99 37 -190 l32 -165 10 -10 9 -10 -5 20 c-3
11 -20 92 -37 180 -17 88 -35 169 -41 180 l-9 20 4 -25z"/>
<path d="M85014 58688 l-149 -80 -305 -135 c-168 -74 -309 -139 -314 -144
l-10 -9 6 -6 6 -6 289 127 c158 69 311 138 338 152 91 46 290 155 298 163 l9
8 -9 5 -9 6 -150 -81z"/>
<path d="M84010 58748 c0 -3 35 -71 77 -150 42 -78 87 -170 99 -203 l23 -60 0
16 c1 31 -26 94 -104 239 -72 135 -95 173 -95 158z"/>
<path d="M61087 58406 c-109 -24 -201 -47 -205 -51 l-7 -7 20 5 c11 3 101 22
200 42 99 20 189 40 200 45 l20 9 -15 -1 c-8 0 -104 -19 -213 -42z"/>
<path d="M83668 58128 l-178 -60 0 -9 c0 -16 21 -11 200 49 l174 58 4 12 4 12
-14 -1 c-7 0 -93 -28 -190 -61z"/>
<path d="M64033 58010 c3 -14 45 -214 92 -445 48 -231 88 -422 91 -424 10 -10
0 45 -83 449 l-86 425 -10 10 -10 10 6 -25z"/>
<path d="M82878 57918 l-198 -50 0 -13 0 -13 178 45 c97 24 194 48 215 54 l37
10 0 9 0 10 -17 -1 c-10 0 -107 -23 -215 -51z"/>
<path d="M80825 57576 c-44 -12 -120 -39 -168 -61 l-87 -39 0 -13 c0 -7 2 -13
4 -13 2 0 46 20 97 44 l94 44 78 18 77 18 0 13 c0 16 2 16 -95 -11z"/>
<path d="M64085 57558 c3 -13 23 -113 45 -222 22 -110 43 -202 46 -205 l7 -6
-6 30 c-3 17 -22 119 -43 228 l-38 197 -8 0 -8 0 5 -22z"/>
<path d="M46550 56888 c0 -26 61 -443 66 -447 2 -3 9 0 15 6 l11 11 -21 143
c-24 159 -49 279 -62 294 l-9 9 0 -16z"/>
<path d="M57240 56863 c0 -5 69 -34 153 -65 83 -31 176 -66 205 -77 l52 -21 0
14 0 13 -47 15 c-27 9 -115 41 -197 72 -153 58 -166 61 -166 49z"/>
<path d="M79665 56611 l-110 -106 -90 -46 c-105 -54 -191 -83 -295 -100 l-75
-12 -50 -22 c-27 -13 -59 -30 -70 -38 l-20 -15 8 -8 8 -8 22 14 c12 7 39 22
60 33 l39 18 86 15 c110 19 197 47 293 95 l76 38 121 112 c119 109 130 123
115 132 l-8 5 -110 -107z"/>
<path d="M64274 56659 c3 -14 24 -113 46 -219 l40 -193 -15 -17 c-8 -9 -15
-23 -15 -31 l0 -14 24 30 c13 16 23 32 21 35 -2 3 -22 95 -45 205 -23 110 -47
207 -52 215 l-9 15 5 -26z"/>
<path d="M64313 56665 c3 -11 25 -111 48 -223 l42 -203 13 5 12 4 21 -14 21
-15 0 -33 0 -33 -18 -16 -19 -17 -29 0 -30 0 -10 10 -10 10 -262 -52 c-144
-29 -262 -55 -262 -59 0 -3 116 17 258 46 l259 51 20 -13 20 -13 31 6 31 6 21
23 22 24 -9 38 -8 38 -32 15 -32 15 -14 65 c-8 36 -27 126 -42 200 l-28 135
-10 10 -9 10 5 -20z"/>
<path d="M84450 56652 c0 -4 60 -30 133 -57 l132 -49 58 -58 c32 -32 61 -58
63 -58 11 0 -60 85 -88 106 -31 23 -51 32 -220 95 l-78 28 0 -7z"/>
<path d="M79450 56580 l-45 -30 -80 -27 -80 -27 -80 -13 -80 -12 75 3 75 3 96
33 96 33 39 33 c49 41 43 43 -16 4z"/>
<path d="M86718 56387 c-87 -45 -158 -86 -158 -90 l0 -9 158 82 c86 45 161 86
167 91 l9 9 -9 0 c-6 0 -81 -37 -167 -83z"/>
<path d="M63783 56023 l7 -6 7 6 6 7 -13 0 -13 0 6 -7z"/>
<path d="M46960 55800 l0 -13 7 6 6 7 -6 7 -7 6 0 -13z"/>
<path d="M46970 55760 l0 -13 7 6 6 7 -6 7 -7 6 0 -13z"/>
<path d="M25955 55616 l-8 -19 17 -31 17 -31 245 -168 c135 -93 247 -167 250
-165 2 3 -103 78 -233 168 -131 90 -246 173 -255 184 l-17 21 -3 30 -4 30 -9
-19z"/>
<path d="M53188 55242 l-7 -23 27 -140 26 -139 7 0 7 0 -4 18 c-18 84 -44 235
-46 267 l-3 40 -7 -23z"/>
<path d="M26590 55246 c0 -9 74 -75 84 -76 l9 0 -19 21 c-22 25 -74 63 -74 55z"/>
<path d="M48685 55075 c-126 -63 -234 -116 -240 -118 -5 -2 -8 -6 -5 -9 3 -3
118 50 255 118 138 67 243 123 235 122 -8 0 -118 -51 -245 -113z"/>
<path d="M53285 54930 c4 -14 9 -32 11 -41 l5 -16 -130 -197 -131 -196 -25 16
c-14 9 -28 15 -30 12 -3 -3 6 -11 20 -18 l25 -13 0 -14 0 -14 9 6 10 5 173
-111 c95 -62 206 -134 246 -160 l72 -48 0 8 c0 5 -110 80 -244 166 l-244 158
36 56 c19 31 80 122 134 204 l98 147 -20 38 -21 37 6 -25z"/>
<path d="M47306 54861 l-7 -10 21 -38 20 -38 -3 44 -2 44 -12 4 -11 4 -6 -10z"/>
<path d="M52460 54863 c1 -10 202 -145 207 -139 3 2 -43 36 -101 75 -58 39
-106 68 -106 64z"/>
<path d="M3910 54765 l0 -13 216 -72 216 -72 8 8 9 9 -225 77 -224 76 0 -13z"/>
<path d="M54033 54589 l-62 -19 -68 -40 c-37 -22 -84 -54 -103 -71 -38 -33
-24 -30 25 6 50 36 176 102 233 120 28 9 52 18 52 21 0 6 -11 4 -77 -17z"/>
<path d="M88380 54425 l-194 -103 -9 5 -9 6 -9 -14 -8 -13 10 -12 10 -12 -7
-26 c-3 -14 -10 -26 -14 -26 -4 0 -10 -7 -14 -15 l-6 -15 18 -18 c9 -10 55
-91 102 -180 l85 -162 11 0 12 0 -98 181 -98 181 14 34 c8 18 14 42 14 52 l0
18 63 31 c34 17 124 64 200 106 l139 75 -9 5 -9 6 -194 -104z"/>
<path d="M32986 54512 l-5 -9 204 -138 205 -139 7 7 7 7 -10 9 c-9 9 -369 252
-391 265 l-12 6 -5 -8z"/>
<path d="M52815 54313 c-71 -109 -136 -209 -144 -223 l-16 -24 11 7 c16 9 288
427 282 433 -3 2 -63 -85 -133 -193z"/>
<path d="M52960 54471 c0 -10 30 -24 37 -17 3 2 -5 9 -16 16 l-21 11 0 -10z"/>
<path d="M87998 54359 l-16 -9 -7 -31 -7 -31 7 -35 6 -36 11 11 10 10 -12 22
-11 21 20 42 c23 46 23 49 -1 36z"/>
<path d="M33523 54213 l-13 -5 0 -15 0 -15 16 6 c9 3 27 6 40 6 l24 0 0 15 0
15 -27 -1 c-16 0 -34 -3 -40 -6z"/>
<path d="M45740 54185 c-1 -16 -2 -82 -1 -145 l3 -115 13 -94 14 -94 9 -9 8
-8 -13 72 -14 73 -8 175 c-4 96 -9 162 -11 145z"/>
<path d="M22840 54170 c0 -5 4 -10 9 -10 6 0 67 -68 137 -150 70 -83 129 -148
132 -146 6 7 -257 316 -269 316 -5 0 -9 -4 -9 -10z"/>
<path d="M52629 53859 l-81 -122 -39 -81 c-21 -44 -42 -96 -45 -115 l-7 -34
10 6 11 7 6 35 7 35 45 85 c25 47 73 129 108 183 77 120 78 122 72 122 -3 0
-42 -55 -87 -121z"/>
<path d="M67173 53767 l-53 -10 0 -9 0 -8 23 5 c12 3 41 9 64 14 l42 9 5 -17
c3 -9 15 -71 27 -138 l23 -123 9 0 9 0 -5 13 c-2 6 -15 72 -28 145 l-23 132
-21 -1 c-11 -1 -44 -6 -72 -12z"/>
<path d="M11296 53492 l-5 -8 139 -139 139 -139 8 7 7 7 -45 48 c-103 110
-224 232 -231 232 -4 0 -9 -4 -12 -8z"/>
<path d="M54701 53288 c-12 -40 -25 -82 -28 -93 l-5 -20 9 10 c12 13 57 165
50 171 -3 3 -15 -28 -26 -68z"/>
<path d="M56785 53190 l-80 -7 107 0 108 -1 -6 9 -5 9 -22 -2 c-12 -1 -58 -5
-102 -8z"/>
<path d="M48116 53181 l-6 -8 97 -202 97 -201 13 0 c6 0 14 4 17 9 l6 9 -97
201 -96 201 -13 0 c-7 0 -15 -4 -18 -9z"/>
<path d="M34910 53130 c-30 -11 -64 -19 -75 -20 -11 0 -27 -4 -35 -10 l-14 -9
6 -6 6 -6 68 16 c38 8 81 20 96 26 l28 11 -6 9 c-6 11 -7 11 -74 -11z"/>
<path d="M11896 52981 l-6 -9 156 -117 156 -117 10 10 9 9 -147 109 c-81 60
-153 112 -160 117 l-13 7 -5 -9z"/>
<path d="M48365 52762 l16 -32 39 -26 39 -26 10 -30 c6 -17 11 -42 11 -54 l0
-24 15 0 15 0 0 26 c0 15 -5 43 -11 63 l-11 36 -30 24 -30 25 -19 1 -18 1 -21
25 -21 24 16 -33z"/>
<path d="M48199 52633 c-1 -4 0 -26 1 -48 l2 -40 13 -26 c8 -14 20 -31 28 -38
l15 -12 7 10 6 10 -18 33 -18 33 -5 39 -5 39 -12 5 -13 4 -1 -9z"/>
<path d="M48162 52588 l-22 -25 -140 -72 -140 -72 0 -15 0 -14 148 74 147 74
18 20 19 21 -4 16 -3 17 -23 -24z"/>
<path d="M12536 52521 l-6 -10 195 -137 196 -137 10 10 9 9 -172 120 c-94 65
-184 127 -199 137 l-27 18 -6 -10z"/>
<path d="M49845 52063 c-82 -42 -172 -84 -200 -94 l-50 -18 22 0 21 -1 181 90
c100 49 181 92 181 95 0 7 11 12 -155 -72z"/>
<path d="M21616 52039 c-3 -19 -8 -122 -11 -229 l-7 -195 6 6 c7 7 28 441 21
447 -2 2 -6 -11 -9 -29z"/>
<path d="M49818 51964 l-168 -85 0 -10 0 -9 48 30 c26 16 105 57 175 90 116
57 140 71 120 70 -5 -1 -83 -39 -175 -86z"/>
<path d="M21150 51221 l0 -9 73 -6 c39 -3 143 -8 230 -11 l157 -6 0 9 0 10
-137 6 c-76 3 -180 8 -230 11 l-93 5 0 -9z"/>
<path d="M21150 51162 l0 -10 226 -7 225 -7 6 6 c4 3 4 8 2 10 -2 2 -106 7
-231 11 l-228 7 0 -10z"/>
<path d="M44893 51084 c21 -14 41 -24 43 -21 7 7 -51 47 -67 47 l-14 0 38 -26z"/>
<path d="M18215 50833 c-50 -91 -72 -124 -145 -215 l-61 -78 10 0 c5 0 40 39
78 88 l69 87 48 88 c27 48 46 90 43 93 -3 3 -22 -25 -42 -63z"/>
<path d="M7178 50786 c-72 -11 -98 -20 -87 -30 2 -2 45 2 94 10 l90 14 97 0
97 0 188 -20 c103 -11 228 -26 276 -34 l88 -13 5 8 5 8 -23 5 c-48 11 -248 38
-378 51 l-135 14 -120 0 -120 -1 -77 -12z"/>
<path d="M8956 50563 l-6 -7 133 -46 133 -47 87 -45 87 -45 5 7 c2 4 1 10 -3
14 -16 17 -187 91 -302 132 -144 51 -125 46 -134 37z"/>
<path d="M35891 50445 c-3 -22 73 -485 79 -485 l6 0 -37 234 c-20 128 -39 240
-42 247 l-5 14 -1 -10z"/>
<path d="M15436 50431 l-6 -8 84 -56 c87 -58 230 -134 279 -148 l27 -8 0 12
-1 12 -97 45 -97 45 -88 58 c-95 62 -93 61 -101 48z"/>
<path d="M33575 50350 c37 -255 65 -411 65 -359 0 33 -52 356 -60 374 l-10 20
5 -35z"/>
<path d="M49775 49850 l-6 -10 51 -75 51 -75 -6 -10 -6 -10 10 2 10 3 61 -90
60 -90 0 38 0 37 -97 145 -96 145 -13 0 c-7 0 -16 -4 -19 -10z"/>
<path d="M49708 49824 l-27 -14 5 -15 6 -14 36 15 c44 18 46 20 37 33 -8 15
-24 13 -57 -5z"/>
<path d="M49640 49697 l0 -29 19 -24 19 -25 5 8 5 8 -24 45 -23 45 -1 -28z"/>
<path d="M14720 49317 c-124 -61 -230 -125 -230 -138 0 -14 6 -12 73 31 35 22
111 62 170 91 l107 51 0 9 c0 14 -8 11 -120 -44z"/>
<path d="M33831 49019 c-1 -9 13 -111 29 -225 l31 -209 -5 -17 -4 -18 7 0 8 0
29 -205 28 -205 8 0 8 0 -4 23 c-3 12 -17 102 -31 200 l-26 179 5 6 c3 3 119
11 257 18 l251 13 7 7 6 7 -105 -7 c-58 -3 -177 -9 -265 -12 l-160 -7 -29 209
c-16 115 -33 220 -37 234 l-7 25 -1 -16z"/>
<path d="M22320 48678 c0 -91 -29 -888 -36 -985 l-6 -93 14 0 14 0 12 408 c7
224 16 478 19 565 l6 157 -11 0 -12 0 0 -52z"/>
<path d="M36113 48685 c2 -11 28 -163 58 -337 l54 -318 8 0 8 0 -5 18 c-2 9
-28 152 -56 317 -28 165 -55 309 -61 320 l-10 20 4 -20z"/>
<path d="M68445 48054 c6 -2 278 -58 605 -124 327 -66 892 -183 1255 -260 629
-134 836 -175 1625 -324 416 -79 444 -83 601 -96 l124 -11 208 28 207 27 0 13
c0 16 17 17 -190 -12 l-175 -25 -92 0 -92 0 -113 16 c-204 28 -1290 241 -2053
402 -313 67 -852 177 -1197 246 l-628 126 -47 -1 c-27 0 -43 -2 -38 -5z"/>
<path d="M84668 48029 c-20 -33 -23 -49 -10 -49 5 0 18 18 31 40 l22 40 -13 0
-13 0 -17 -31z"/>
<path d="M80050 47794 c-80 -69 -149 -129 -153 -134 l-9 -8 11 -6 10 -6 150
130 c136 117 167 150 144 150 -5 0 -73 -57 -153 -126z"/>
<path d="M56710 47835 c0 -3 39 -83 87 -179 l87 -175 8 5 7 5 -87 174 c-73
148 -102 196 -102 170z"/>
<path d="M41543 47588 c10 -35 25 -81 33 -103 l14 -40 31 -38 31 -37 8 5 8 5
-34 51 -34 51 -15 57 c-9 31 -19 67 -23 81 l-7 25 -16 3 -16 3 20 -63z"/>
<path d="M74831 47608 c0 -7 4 -22 9 -33 l9 -20 0 27 1 27 -10 6 -10 6 1 -13z"/>
<path d="M41903 47303 l-72 -15 -42 -39 -41 -38 7 -10 6 -11 47 39 47 38 63
13 62 13 0 13 c0 8 -1 13 -2 13 -2 -1 -35 -8 -75 -16z"/>
<path d="M20701 47103 c-22 -71 -62 -292 -60 -334 1 -13 14 48 30 136 l28 160
20 53 19 52 -8 0 c-4 0 -17 -30 -29 -67z"/>
<path d="M80917 46833 c40 -138 101 -408 138 -619 26 -149 30 -162 41 -152 l5
6 -21 118 c-37 211 -100 496 -138 628 l-37 129 -12 4 -11 4 35 -118z"/>
<path d="M26388 46883 l-148 -4 0 -7 0 -7 162 3 c90 2 204 7 253 11 l90 8
-105 -1 c-58 0 -171 -2 -252 -3z"/>
<path d="M21630 46755 c-47 -19 -231 -96 -410 -173 -179 -77 -419 -179 -535
-227 -115 -48 -320 -137 -455 -198 -320 -144 -454 -201 -570 -246 l-95 -36 0
-10 0 -10 19 3 c30 4 384 151 691 287 355 158 1263 547 1374 589 l85 33 4 11
4 12 -14 -1 c-7 0 -51 -16 -98 -34z"/>
<path d="M34535 46539 c-71 -3 -160 -7 -197 -8 l-68 -1 0 -16 0 -16 58 6 c31
3 132 8 224 12 l166 6 -5 14 -5 14 -22 -2 c-11 -1 -79 -5 -151 -9z"/>
<path d="M81958 46407 c-103 -78 -187 -146 -187 -151 l-1 -8 15 6 c9 3 97 67
195 142 159 120 199 156 173 153 -5 0 -92 -64 -195 -142z"/>
<path d="M34380 46405 c0 -5 4 -17 10 -25 l9 -14 5 5 6 5 -15 20 -14 19 -1
-10z"/>
<path d="M80975 46400 l-6 -10 15 0 16 0 0 10 c0 6 -4 10 -9 10 -6 0 -13 -4
-16 -10z"/>
<path d="M30403 46383 l-103 -4 0 -15 0 -16 98 6 c53 3 145 9 205 12 l107 6 0
9 0 9 -102 -2 c-57 -1 -149 -4 -205 -5z"/>
<path d="M80867 46383 l-17 -5 4 -7 5 -8 31 5 30 4 0 9 0 9 -17 -1 c-10 -1
-26 -3 -36 -6z"/>
<path d="M80765 46369 l-5 -14 65 -245 c36 -135 84 -316 107 -403 23 -86 43
-155 45 -153 3 2 -9 62 -27 133 -17 70 -38 161 -46 201 -19 92 -121 483 -128
490 -3 3 -8 -1 -11 -9z"/>
<path d="M30768 46283 l-58 -4 0 -11 0 -11 167 6 c91 4 195 7 230 7 l63 0 0
10 0 10 -172 -2 c-95 -1 -199 -3 -230 -5z"/>
<path d="M28423 46176 l-162 -12 -7 -7 -7 -7 6 -6 6 -6 168 11 c92 6 201 14
241 17 l72 6 0 9 0 9 -77 -1 c-43 -1 -151 -7 -240 -13z"/>
<path d="M93091 46095 l15 -15 75 -13 76 -14 24 -16 23 -17 51 0 50 0 63 32
c34 18 62 35 62 39 0 4 -30 -8 -67 -27 l-68 -34 -37 0 -37 0 -35 21 -35 20
-68 10 -68 10 -9 9 c-6 6 -15 10 -20 10 l-10 0 15 -15z"/>
<path d="M93060 46071 c0 -4 16 -15 35 -24 l36 -17 32 0 32 0 53 -25 54 -25
54 0 54 0 71 36 c93 47 83 55 -12 9 l-73 -35 -41 0 -40 0 -47 25 -47 25 -38 0
-38 0 -42 20 -43 19 0 -8z"/>
<path d="M36936 45942 l5 -122 -11 -20 -11 -20 -27 -14 -27 -14 -87 -7 -88 -7
0 -7 0 -7 73 7 c39 4 84 8 98 8 l27 1 31 29 31 29 -1 79 c-1 43 -5 103 -9 133
l-9 55 5 -123z"/>
<path d="M80981 45524 l1 -19 5 13 5 13 -6 6 -6 6 1 -19z"/>
<path d="M80991 45490 c0 -8 4 -24 9 -35 l9 -20 0 15 c0 8 -4 24 -9 35 l-9 20
0 -15z"/>
<path d="M81010 45425 c0 -45 258 -944 276 -964 2 -2 6 -2 10 1 l5 6 -70 223
c-38 123 -102 339 -141 479 -67 235 -80 278 -80 255z"/>
<path d="M28621 44518 c-5 -13 -48 -117 -95 -231 -47 -114 -86 -213 -86 -220
1 -7 37 76 81 183 113 272 119 290 114 290 -3 0 -9 -10 -14 -22z"/>
<path d="M25775 44460 l-120 -6 145 -1 c80 -1 183 2 230 6 l85 8 -110 -1 c-60
0 -164 -3 -230 -6z"/>
<path d="M87768 44285 c-4 -11 -22 -58 -42 -105 l-35 -85 22 -21 c12 -11 46
-57 76 -102 30 -46 56 -81 58 -78 6 6 -107 180 -123 189 -20 12 -18 25 22 116
l35 82 -4 12 -3 11 -6 -19z"/>
<path d="M52460 44078 c0 -43 6 -49 12 -14 l5 25 -8 13 -9 13 0 -37z"/>
<path d="M52750 43996 l-12 -44 10 -18 10 -18 16 38 c9 21 16 49 16 62 l0 24
-14 0 -13 0 -13 -44z"/>
<path d="M87885 43900 c13 -25 207 -333 223 -355 l14 -20 -6 19 c-8 25 -205
337 -224 356 l-15 15 8 -15z"/>
<path d="M52660 43890 l-15 -9 12 -12 12 -12 16 7 17 6 -4 12 c-6 16 -20 19
-38 8z"/>
<path d="M40895 43510 l-80 -8 -57 -19 -56 -20 -51 -33 c-71 -45 -58 -49 20
-6 l64 35 80 22 79 21 81 -4 80 -5 -30 13 c-16 7 -34 13 -40 12 -5 0 -46 -4
-90 -8z"/>
<path d="M11221 43149 c-13 -39 -13 -39 -2 -39 l9 0 7 31 c9 42 0 47 -14 8z"/>
<path d="M32190 42977 c-25 -23 -93 -102 -152 -174 l-108 -132 9 -5 8 -6 114
137 c63 76 131 153 152 171 35 33 46 52 29 52 -4 0 -28 -19 -52 -43z"/>
<path d="M31880 42689 l0 -12 -157 -153 -157 -153 6 -7 7 -6 128 121 c159 151
217 221 183 221 -5 0 -10 -5 -10 -11z"/>
<path d="M30305 41128 l-280 -210 -34 -15 c-19 -8 -68 -21 -110 -30 l-76 -14
-57 5 -56 6 -68 37 c-37 20 -94 58 -127 85 -58 46 -78 57 -76 41 1 -14 113
-100 189 -144 l75 -44 95 0 95 1 73 22 72 23 295 220 c162 120 295 222 295
224 0 18 -57 -21 -305 -207z"/>
<path d="M57748 40883 c56 -2 148 -2 205 0 l102 3 -205 0 -205 0 103 -3z"/>
<path d="M97720 40465 l0 -15 31 0 c36 0 64 -13 101 -48 l28 -26 7 7 6 7 -13
25 -13 25 -42 20 -41 20 -32 0 -32 0 0 -15z"/>
<path d="M49196 40438 c-3 -13 -10 -57 -16 -98 -7 -41 -19 -100 -27 -130 l-16
-55 -50 -75 c-28 -41 -97 -138 -153 -215 l-102 -140 -30 -17 -30 -18 -24 0
-23 0 -45 29 c-25 15 -67 48 -95 72 -27 25 -80 71 -117 102 l-66 58 -6 -9 -5
-9 127 -109 c70 -61 143 -120 163 -132 l36 -22 33 0 32 0 30 18 29 17 93 125
c136 184 205 284 222 326 14 32 33 123 58 267 l7 37 -10 0 -11 0 -4 -22z"/>
<path d="M47918 40424 l-7 -6 87 -69 c48 -39 132 -112 187 -162 132 -122 504
-441 532 -455 12 -7 26 -12 32 -12 21 0 11 16 -18 31 -31 15 -364 297 -511
433 -85 78 -275 239 -289 244 -4 1 -10 0 -13 -4z"/>
<path d="M52460 40242 l0 -9 103 -22 c56 -12 119 -24 140 -28 l37 -6 0 9 0 9
-117 24 c-65 14 -128 26 -140 29 l-23 4 0 -10z"/>
<path d="M52460 40191 l0 -11 23 -5 c58 -14 221 -45 233 -45 8 0 14 4 14 8 l0
8 -122 23 c-68 13 -129 26 -135 29 l-13 4 0 -11z"/>
<path d="M53220 40032 l0 -7 205 -41 206 -41 -4 11 -3 10 -185 38 c-101 20
-192 37 -201 38 l-18 0 0 -8z"/>
<path d="M84810 39980 c0 -5 46 -78 103 -162 57 -84 117 -177 133 -205 l29
-53 12 0 11 0 -56 93 c-71 114 -221 337 -227 337 -3 0 -5 -4 -5 -10z"/>
<path d="M84780 39956 c0 -4 42 -69 93 -144 51 -75 110 -167 132 -204 21 -38
43 -68 47 -68 14 0 -217 364 -263 415 l-9 9 0 -8z"/>
<path d="M60290 38450 c0 -5 5 -10 10 -10 l10 0 0 -16 0 -15 -47 -67 c-26 -37
-87 -110 -135 -162 -48 -52 -84 -97 -81 -100 8 -8 158 157 223 248 l60 82 0
15 0 14 -20 11 -20 11 0 -11z"/>
<path d="M46230 38383 c0 -5 11 -20 25 -33 l25 -23 7 6 c3 4 4 8 2 10 -2 1
-16 13 -31 26 l-28 24 0 -10z"/>
<path d="M85350 37736 c0 -4 59 -98 131 -209 73 -111 130 -195 127 -186 -5 13
-243 386 -254 398 -2 2 -4 1 -4 -3z"/>
<path d="M45476 37534 l-159 -163 15 -6 16 -6 153 156 c146 149 168 176 144
180 l-10 2 -159 -163z"/>
<path d="M86639 37607 c-126 -85 -233 -165 -237 -178 -5 -12 114 67 124 82 4
7 61 47 128 90 l121 79 -15 -1 c-8 0 -63 -33 -121 -72z"/>
<path d="M60619 37494 c-8 -9 -47 -42 -89 -73 l-75 -57 -147 -57 c-80 -31
-154 -57 -163 -57 -25 0 -266 -72 -261 -78 3 -2 52 10 109 27 58 17 125 33
148 37 l44 7 140 55 140 56 75 57 c41 31 84 66 94 78 l19 21 -10 0 c-6 0 -17
-7 -24 -16z"/>
<path d="M58091 37316 c14 -14 314 -184 318 -180 6 6 13 1 -151 98 -81 47
-152 86 -159 86 -7 0 -10 -2 -8 -4z"/>
<path d="M39857 36140 c3 -80 9 -190 13 -245 l8 -100 -5 225 -6 225 -8 20 -8
20 6 -145z"/>
<path d="M86188 36043 l-4 -8 65 -60 65 -60 -21 30 c-12 17 -39 47 -61 68
l-40 39 -4 -9z"/>
<path d="M34981 35825 c95 -79 175 -142 178 -140 2 3 2 7 0 8 -2 2 -77 65
-167 140 -90 76 -168 137 -173 137 -6 0 67 -65 162 -145z"/>
<path d="M54440 35724 c0 -19 42 -330 46 -343 2 -8 6 -12 8 -10 6 6 -41 349
-48 357 l-6 5 0 -9z"/>
<path d="M52549 35586 c27 -32 302 -279 306 -274 5 5 -277 266 -304 282 l-16
10 14 -18z"/>
<path d="M79805 35428 l-140 -71 -115 -38 -115 -38 -3 -10 -3 -10 128 43 128
43 100 51 c55 27 120 62 145 76 l45 26 -15 -1 c-8 0 -78 -32 -155 -71z"/>
<path d="M78442 34873 c-106 -58 -191 -108 -188 -110 2 -3 90 41 195 97 l191
102 0 9 c0 5 -1 8 -2 8 -2 -1 -90 -49 -196 -106z"/>
<path d="M86195 34761 c-33 -21 -204 -128 -380 -237 l-320 -199 0 -10 0 -10
12 1 c6 1 183 108 392 239 l381 237 0 9 c0 17 -25 8 -85 -30z"/>
<path d="M55842 34325 c-112 -18 -206 -36 -209 -39 l-6 -6 10 0 c16 0 457 70
468 74 31 13 -85 0 -263 -29z"/>
<path d="M53978 34021 l-187 -26 -8 -9 -8 -8 30 6 c17 3 118 17 225 32 107 14
197 28 199 30 9 8 -69 1 -251 -25z"/>
<path d="M64595 33219 c-9 -13 -33 3 189 -123 l188 -108 10 10 10 10 -128 72
c-70 40 -156 90 -191 111 -71 44 -69 43 -78 28z"/>
<path d="M77915 32899 c-93 -9 -171 -18 -172 -18 -2 -1 -3 -10 -3 -21 l0 -20
38 5 c20 3 105 12 187 19 l150 14 195 -8 c107 -5 229 -12 271 -15 l76 -7 5 20
6 20 -87 6 c-399 31 -426 31 -666 5z"/>
<path d="M79411 32686 c7 -7 362 -146 373 -146 l9 0 -6 7 c-11 11 -185 83
-276 114 -80 27 -110 35 -100 25z"/>
<path d="M73995 32344 c-82 -13 -253 -35 -380 -49 -316 -35 -369 -44 -352 -61
l5 -6 294 32 c161 17 373 44 471 58 l178 27 2 10 2 10 -35 2 c-19 1 -102 -10
-185 -23z"/>
<path d="M93735 28919 c-104 -77 -192 -145 -194 -150 -2 -6 48 26 110 72 304
221 304 221 282 218 -5 0 -93 -63 -198 -140z"/>
<path d="M86360 27201 l0 -68 -25 -37 c-14 -20 -25 -39 -25 -43 0 -10 31 19
43 41 l12 21 5 78 5 77 -7 0 -8 0 0 -69z"/>
<path d="M95585 26983 c-154 -113 -322 -236 -373 -273 l-93 -68 8 -5 8 -5 280
205 c154 113 322 236 373 273 l94 68 -9 5 -8 5 -280 -205z"/>
<path d="M86235 26980 c-27 -30 -12 -34 15 -5 l23 25 -10 0 c-5 0 -18 -9 -28
-20z"/>
<path d="M86117 26878 l-49 -32 -48 0 -48 -1 5 -7 4 -8 38 0 37 0 51 25 c28
15 57 33 63 40 l12 15 -8 0 c-5 0 -31 -14 -57 -32z"/>
<path d="M94822 26725 c-101 -73 -186 -136 -189 -139 l-6 -6 9 0 c8 0 361 254
380 273 l7 7 -9 0 c-5 -1 -91 -61 -192 -135z"/>
<path d="M90490 24839 c47 -5 150 -18 230 -30 l145 -20 119 -35 118 -35 120
-50 c66 -27 125 -48 130 -47 l10 4 -136 58 -136 57 -102 29 -101 30 -133 20
-134 20 -107 5 -108 4 85 -10z"/>
<path d="M23860 23924 l-72 -215 6 -6 6 -7 9 10 c10 10 141 403 141 422 0 6
-4 12 -9 12 l-9 0 -72 -216z"/>
<path d="M23466 23110 c-69 -99 -126 -185 -126 -191 l0 -11 10 4 c11 4 260
356 260 369 0 28 -30 -8 -144 -171z"/>
<path d="M22944 22072 l-11 -7 -7 -60 -7 -60 -31 -105 c-17 -58 -41 -126 -55
-152 l-23 -48 13 0 13 0 26 53 c32 65 73 208 87 306 12 78 12 84 -5 73z"/>
<path d="M17678 21422 l-208 -26 0 -8 0 -8 23 0 c12 0 112 11 222 25 110 14
201 25 203 25 1 0 2 5 2 10 l0 10 -17 -1 c-10 -1 -111 -13 -225 -27z"/>
<path d="M89896 21142 l-6 -10 56 -220 56 -219 19 4 19 5 0 12 c0 6 -24 106
-53 221 l-54 210 -15 3 -16 3 -6 -9z"/>
<path d="M87720 19832 c0 -12 329 -296 335 -290 3 3 -72 71 -165 152 -94 80
-170 143 -170 138z"/>
<path d="M92348 16592 c-92 -69 -165 -128 -163 -130 6 -6 335 240 335 250 0
11 13 20 -172 -120z"/>
<path d="M95997 13013 l-5 -8 173 -145 c158 -132 185 -151 185 -135 0 5 -270
235 -332 283 l-16 13 -5 -8z"/>
<path d="M26747 5983 l-6 -38 -46 -85 -45 -85 -56 -69 -55 -69 12 -8 12 -7 57
71 57 72 46 90 46 90 3 34 3 34 -11 4 -11 4 -6 -38z"/>
<path d="M25855 3999 c-216 -8 -205 -7 -205 -18 l0 -9 153 4 c83 3 185 7 225
10 l72 6 0 9 0 9 -32 -2 c-18 -1 -114 -5 -213 -9z"/>
<path d="M23015 2281 c3 -5 79 -68 170 -140 l164 -130 6 8 5 9 -165 131 c-91
72 -170 131 -176 131 l-10 0 6 -9z"/>
<path d="M8910 1841 l0 -10 43 -5 c23 -3 112 -10 197 -16 85 -6 172 -13 193
-15 l37 -5 0 15 0 15 -27 0 c-16 0 -109 7 -208 15 -99 8 -192 15 -207 15 l-28
0 0 -9z"/>
<path d="M7580 1726 c-429 -95 -474 -108 -655 -186 l-132 -56 -204 -119 -204
-119 -243 -240 -242 -240 10 -10 9 -9 249 244 248 244 199 115 199 115 126 53
c69 30 166 66 215 82 l90 28 363 78 362 78 0 13 c0 7 -3 13 -7 12 -5 0 -177
-38 -383 -83z"/>
<path d="M22138 1392 l-408 -187 0 -13 0 -14 9 4 c5 2 192 86 415 188 l405
185 1 13 c0 6 -3 12 -7 11 -5 0 -191 -84 -415 -187z"/>
<path d="M16310 1285 l0 -15 13 0 c6 0 206 -12 443 -26 l431 -27 18 7 c10 3
16 8 14 11 -3 2 -187 15 -409 29 -223 14 -429 28 -457 31 l-53 5 0 -15z"/>
<path d="M17675 1200 l-5 -9 7 -4 c5 -3 91 -10 193 -16 102 -6 202 -14 223
-16 l37 -5 0 15 0 15 -26 0 c-26 0 -279 16 -371 24 l-53 5 -5 -9z"/>
<path d="M21263 1030 c-13 -5 -62 -16 -110 -25 l-88 -15 -102 0 -103 0 0 -15
0 -15 93 0 92 0 90 15 c50 8 109 20 133 26 l42 12 0 13 0 14 -12 -1 c-7 0 -23
-4 -35 -9z"/>
<path d="M5551 351 l-165 -157 13 -8 13 -8 160 158 c88 88 160 161 160 164 -2
19 -37 -10 -181 -149z"/>
</g>
</svg>
