<?xml version="1.0" standalone="no"?>
<!DOCTYPE svg PUBLIC "-//W3C//DTD SVG 20010904//EN"
 "http://www.w3.org/TR/2001/REC-SVG-20010904/DTD/svg10.dtd">
<svg version="1.0" xmlns="http://www.w3.org/2000/svg"
 width="7500.000000pt" height="7500.000000pt" viewBox="0 0 7500.000000 7500.000000"
 preserveAspectRatio="xMidYMid meet">
<metadata>
Created by potrace 1.16, written by Peter Selinger 2001-2019
</metadata>
<g transform="translate(0.000000,7500.000000) scale(0.075000,-0.075000)"
fill="#000000" stroke="none">
<path d="M90187 99588 l4 -23 -15 -35 -15 -36 -24 -13 -25 -14 5 -13 5 -13 33
21 32 22 12 31 c6 17 11 46 11 63 l0 32 -14 0 -13 0 4 -22z"/>
<path d="M84333 98843 l-173 -3 0 -10 0 -10 53 0 c28 0 116 3 195 7 l142 6 0
9 0 8 -22 -2 c-13 -1 -101 -4 -195 -5z"/>
<path d="M30500 95605 c0 -3 44 -37 98 -77 53 -39 138 -102 189 -140 l92 -68
5 9 6 9 -185 136 c-167 122 -205 147 -205 131z"/>
<path d="M98090 94562 c0 -8 788 -323 805 -322 8 0 -475 199 -762 313 l-43 17
0 -8z"/>
<path d="M87275 92760 l-210 -210 -12 0 c-11 0 -139 76 -221 132 -24 17 -46
28 -48 25 -6 -5 159 -117 233 -158 l43 -24 205 205 c177 176 236 240 223 240
-2 0 -98 -94 -213 -210z"/>
<path d="M33280 92542 c0 -5 11 -40 23 -78 13 -38 43 -140 67 -227 l44 -157 8
8 8 8 -40 145 c-22 79 -52 181 -67 227 l-27 82 -8 0 c-4 0 -8 -4 -8 -8z"/>
<path d="M53120 91775 c-4 -21 2 -93 16 -170 l14 -80 35 -70 c19 -38 42 -79
50 -89 l15 -20 6 7 6 6 -21 30 c-12 16 -33 56 -48 88 l-26 58 -22 125 c-13 69
-24 121 -25 115z"/>
<path d="M28070 91111 c8 -5 91 -32 184 -61 92 -28 176 -54 185 -57 l16 -6
-10 10 c-9 10 -363 123 -382 123 -4 0 -1 -5 7 -9z"/>
<path d="M55195 89760 l-6 -10 21 -68 22 -67 65 -120 c35 -66 107 -190 159
-275 53 -85 110 -185 128 -222 l33 -66 12 7 11 7 -22 55 c-12 30 -73 138 -135
241 -62 103 -137 231 -167 285 l-54 98 -23 73 c-22 70 -31 83 -44 62z"/>
<path d="M84076 89143 c-3 -10 -14 -63 -26 -118 -11 -55 -31 -146 -44 -203
l-23 -103 10 4 11 3 14 65 c7 35 29 126 48 202 19 76 34 144 34 152 l0 15 -9
0 c-5 0 -12 -8 -15 -17z"/>
<path d="M86360 88980 c41 -5 125 -11 185 -15 l110 -6 65 10 65 9 -135 -1
c-74 0 -187 2 -250 5 l-115 6 75 -8z"/>
<path d="M85460 88948 c-110 -15 -563 -98 -568 -103 -9 -9 6 -6 263 41 l250
46 198 5 197 5 0 9 0 9 -137 -1 -138 -1 -65 -10z"/>
<path d="M84663 88842 c-117 -26 -213 -49 -213 -53 0 -8 413 81 425 92 5 5 7
9 5 8 -3 -1 -101 -22 -217 -47z"/>
<path d="M78980 88493 l0 -8 283 -98 c155 -54 351 -123 435 -153 l154 -54 -4
12 -4 12 -420 148 c-230 81 -425 147 -431 148 -7 0 -13 -3 -13 -7z"/>
<path d="M78970 88442 l0 -8 636 -223 635 -223 6 6 c4 3 4 8 2 10 -5 5 -1263
446 -1272 446 -4 0 -7 -4 -7 -8z"/>
<path d="M55892 87561 l-13 -8 177 -419 c96 -230 179 -423 184 -428 5 -4 13
-7 18 -5 l10 4 -174 415 c-96 228 -177 423 -181 432 l-8 17 -13 -8z"/>
<path d="M80426 85751 c25 -25 799 -299 811 -288 4 5 -9 10 -351 126 -114 39
-264 93 -331 121 -68 27 -127 50 -131 50 l-8 0 10 -9z"/>
<path d="M61310 85291 l0 -9 63 -6 c34 -3 125 -7 202 -10 l140 -5 40 8 40 8
-15 6 c-8 3 -117 8 -242 12 l-228 6 0 -10z"/>
<path d="M61310 85241 l0 -9 58 -6 c31 -4 136 -7 234 -9 l176 -2 8 8 c4 4 5 9
3 11 -2 2 -111 6 -241 10 l-238 7 0 -10z"/>
<path d="M64278 84510 c-25 -16 -107 -74 -182 -130 l-136 -100 0 -11 0 -10 13
7 c6 4 77 56 157 115 80 58 160 114 178 123 l33 17 -6 9 c-8 13 -2 14 -57 -20z"/>
<path d="M64335 84480 c-4 -6 -4 -10 -1 -10 2 0 11 -3 20 -6 l16 -6 0 10 c0 5
-7 12 -15 15 l-14 6 -6 -9z"/>
<path d="M28180 84174 c-214 -117 -206 -112 -198 -120 l6 -5 196 107 c108 58
199 110 202 115 l5 9 -8 0 c-4 0 -96 -48 -203 -106z"/>
<path d="M80961 84211 c25 -16 419 -150 419 -143 0 6 -359 133 -420 149 l-15
5 16 -11z"/>
<path d="M83215 84048 c-55 -49 -137 -122 -182 -161 l-83 -70 11 -14 11 -13
42 38 c24 20 98 86 167 146 68 60 132 117 142 126 l18 17 -13 10 -13 11 -100
-90z"/>
<path d="M26842 83649 c-221 -67 -240 -74 -230 -84 6 -7 449 123 461 135 l9 8
-9 4 c-4 3 -109 -26 -231 -63z"/>
<path d="M64790 83306 c0 -14 143 -373 152 -381 l11 -10 -5 15 c-22 71 -145
380 -150 380 -5 0 -8 -2 -8 -4z"/>
<path d="M76757 82960 c-64 -104 -117 -195 -117 -202 0 -7 55 77 121 185 67
109 120 200 117 202 -2 2 -57 -81 -121 -185z"/>
<path d="M46966 82730 l-40 -210 7 -7 c4 -3 8 -4 10 -2 4 6 78 401 77 417 0 6
-3 12 -7 12 l-8 0 -39 -210z"/>
<path d="M96208 81483 c-23 -32 -80 -109 -126 -171 l-84 -114 6 -6 c3 -3 8 -3
9 -1 2 2 61 82 130 177 l127 172 -10 0 c-5 0 -28 -26 -52 -57z"/>
<path d="M36240 81171 l0 -9 68 -7 c37 -4 127 -20 200 -37 l134 -30 6 6 c3 3
3 8 1 11 -10 10 -267 63 -336 69 l-73 7 0 -10z"/>
<path d="M6400 80999 l0 -14 192 -127 192 -128 10 10 c5 5 8 11 5 13 -15 14
-373 249 -385 254 l-14 5 0 -13z"/>
<path d="M65120 79190 l-145 -6 200 -1 200 -2 40 8 40 9 -95 -1 c-52 -1 -160
-4 -240 -7z"/>
<path d="M76869 78927 c-37 -32 -276 -227 -295 -242 l-17 -12 7 -11 7 -11 169
136 170 135 0 14 c0 19 -11 17 -41 -9z"/>
<path d="M97482 78709 l3 -10 200 -88 c110 -49 287 -130 394 -180 l193 -93 10
10 9 9 -183 86 c-101 47 -246 112 -323 145 -77 33 -177 76 -223 96 l-84 36 4
-11z"/>
<path d="M76006 78244 l-186 -146 0 -15 0 -15 13 9 c117 91 355 279 365 288
l14 13 -10 6 -10 6 -186 -146z"/>
<path d="M74608 76773 l-18 -4 0 -15 0 -15 38 7 c20 4 40 9 45 11 l7 4 -5 10
-6 9 -22 -1 c-12 -1 -30 -3 -39 -6z"/>
<path d="M5720 75016 l0 -16 18 0 c9 0 109 -9 222 -20 243 -24 220 -23 220 -7
l0 13 -207 18 c-115 10 -218 20 -230 23 l-23 5 0 -16z"/>
<path d="M3295 67531 l-5 -9 186 -122 186 -121 6 6 6 5 -10 9 c-5 5 -89 61
-186 125 l-177 115 -6 -8z"/>
<path d="M90920 66795 l-85 -86 -87 -57 -88 -57 0 -13 0 -13 93 62 92 61 88
86 c48 48 87 90 87 94 0 19 -21 3 -100 -77z"/>
<path d="M97702 66296 c-117 -29 -215 -56 -219 -59 l-6 -7 6 -6 6 -7 188 47
c103 26 205 51 226 57 l37 10 0 9 0 10 -12 -1 c-7 0 -109 -24 -226 -53z"/>
<path d="M97554 65955 c24 -113 46 -208 49 -212 18 -18 14 19 -23 193 -47 217
-49 224 -60 224 l-8 0 42 -205z"/>
<path d="M49030 65708 c-73 -123 -135 -227 -138 -233 l-5 -10 10 10 c17 17
274 447 270 451 -2 3 -64 -96 -137 -218z"/>
<path d="M31180 65522 l0 -20 108 -7 c59 -4 159 -13 222 -21 63 -8 118 -14
123 -14 l7 0 0 20 c0 11 -1 20 -3 20 -1 0 -56 6 -122 14 -66 8 -168 18 -227
22 l-108 6 0 -20z"/>
<path d="M70190 65508 c0 -4 16 -34 35 -67 30 -51 129 -261 156 -330 l10 -24
6 7 6 6 -26 52 c-14 29 -48 100 -75 158 -45 97 -111 214 -112 198z"/>
<path d="M3650 64977 l0 -13 207 -27 207 -27 7 12 c5 7 7 14 5 15 -4 4 -377
53 -403 53 l-23 0 0 -13z"/>
<path d="M40570 64863 c0 -3 47 -144 104 -312 58 -168 108 -323 111 -344 l6
-38 8 5 8 6 -11 53 c-6 29 -56 184 -111 345 l-100 292 -7 0 c-5 0 -8 -3 -8 -7z"/>
<path d="M41910 64235 l0 -25 16 0 16 0 -6 16 c-3 9 -6 20 -6 25 0 5 -4 9 -10
9 l-10 0 0 -25z"/>
<path d="M78950 64033 c-107 -13 -197 -26 -199 -29 -2 -2 -2 -7 1 -10 l6 -5
221 27 221 27 0 9 0 8 -27 -1 c-16 -1 -116 -12 -223 -26z"/>
<path d="M41816 63915 l6 -15 21 0 c12 0 62 -15 112 -34 86 -33 343 -116 358
-116 4 0 7 7 7 15 l0 15 -16 0 c-8 0 -116 34 -239 75 -123 41 -231 75 -239 75
l-15 0 5 -15z"/>
<path d="M41423 63733 c-42 -24 -345 -284 -338 -291 2 -3 33 20 67 50 35 30
114 96 176 146 l114 92 30 0 c16 0 54 -7 84 -16 l54 -15 18 3 17 4 -60 18
c-33 10 -76 20 -95 23 l-35 4 -32 -18z"/>
<path d="M41990 63346 c0 -9 119 -152 189 -229 39 -42 71 -73 71 -68 0 5 -32
44 -71 87 -40 44 -96 109 -126 147 -49 61 -63 75 -63 63z"/>
<path d="M41960 63324 c0 -5 14 -26 30 -48 53 -70 494 -566 499 -561 2 3 -7
18 -21 33 -72 78 -411 465 -452 517 -27 33 -50 62 -52 64 -2 2 -4 0 -4 -5z"/>
<path d="M41575 63170 c3 -5 8 -10 11 -10 2 0 4 5 4 10 0 6 -5 10 -11 10 l-10
0 6 -10z"/>
<path d="M41545 63140 c3 -5 11 -10 16 -10 l10 0 -6 10 c-3 6 -11 10 -16 10
l-10 0 6 -10z"/>
<path d="M17310 62963 c-25 -2 -153 -12 -285 -23 -132 -11 -259 -20 -282 -20
l-43 0 0 -7 0 -8 57 3 c32 1 173 11 313 22 140 11 316 24 390 29 l135 8 -120
0 c-66 0 -140 -2 -165 -4z"/>
<path d="M16660 62858 c1 -18 5 -64 9 -101 l9 -68 -12 -82 -13 -82 -42 -84
c-23 -45 -40 -85 -37 -88 2 -3 25 35 49 83 l44 89 12 78 11 78 0 104 0 105
-15 0 -15 0 0 -32z"/>
<path d="M16720 62795 l0 -95 10 0 10 0 0 95 0 95 -10 0 -10 0 0 -95z"/>
<path d="M11095 62720 l-18 -20 -198 0 -198 0 -7 -12 -7 -11 144 6 c79 4 172
7 206 7 l62 0 28 25 28 24 -11 1 c-6 0 -19 -9 -29 -20z"/>
<path d="M42175 62474 c-104 -90 -192 -169 -194 -175 -2 -7 68 49 155 124 229
195 240 205 234 210 -3 2 -90 -69 -195 -159z"/>
<path d="M57771 62223 l-444 -355 -45 -96 c-77 -170 -142 -326 -142 -342 l1
-15 38 90 c21 50 63 144 94 210 l56 120 11 3 10 4 221 -97 c122 -52 225 -95
230 -93 5 2 -73 39 -174 82 -100 44 -206 90 -236 103 l-53 24 433 345 c239
190 441 352 449 360 l14 14 -9 -1 c-6 0 -210 -160 -454 -356z"/>
<path d="M80432 62496 c-94 -50 -115 -67 -147 -116 -21 -34 -48 -120 -40 -128
8 -8 25 10 25 27 0 9 11 40 25 68 l26 51 33 25 c18 14 67 43 109 63 72 36 94
54 65 54 -7 0 -50 -20 -96 -44z"/>
<path d="M85361 61743 c8 -24 234 -392 237 -385 2 8 -212 369 -230 387 l-10
10 3 -12z"/>
<path d="M49090 61330 c8 -5 20 -10 25 -10 l10 0 -15 10 c-8 5 -19 10 -25 10
l-10 0 15 -10z"/>
<path d="M49131 61316 c11 -11 262 -116 267 -112 2 3 -6 10 -19 15 -13 5 -73
30 -132 55 -103 43 -126 52 -116 42z"/>
<path d="M83284 60587 c-49 -29 -98 -56 -107 -60 -9 -3 -42 -22 -72 -42 l-55
-35 0 -12 c0 -7 13 -32 28 -56 l29 -42 6 6 6 6 -24 37 c-14 19 -25 41 -25 47
l0 12 43 25 c88 50 252 150 262 158 20 19 -5 7 -91 -44z"/>
<path d="M58343 60423 l7 -6 7 6 6 7 -13 0 -13 0 6 -7z"/>
<path d="M58406 60298 c20 -40 43 -81 52 -90 l15 -18 27 0 c39 0 90 11 90 20
l0 7 -50 -11 -49 -10 -19 17 c-10 9 -33 48 -52 87 -19 38 -38 70 -42 70 l-8 0
36 -72z"/>
<path d="M58355 60303 c14 -32 38 -76 53 -98 l28 -40 25 -12 24 -12 54 12 54
12 4 11 4 11 -52 -13 -52 -14 -21 6 -22 5 -31 47 c-18 26 -42 68 -54 95 -13
26 -27 47 -31 47 l-8 0 25 -57z"/>
<path d="M63560 60287 c0 -14 92 -442 96 -446 2 -2 4 2 4 10 0 24 -88 430 -94
436 l-6 6 0 -6z"/>
<path d="M90772 60269 c6 -18 281 -359 286 -355 4 5 -277 366 -285 366 -3 0
-3 -5 -1 -11z"/>
<path d="M91090 59935 c0 -6 30 -44 67 -85 52 -60 120 -143 220 -269 2 -2 5
-2 7 0 8 7 -171 230 -276 344 l-18 19 0 -9z"/>
<path d="M45391 59448 c85 -89 198 -205 252 -259 l99 -97 114 -82 115 -83 6 7
c4 3 4 7 2 9 -2 2 -59 42 -125 90 l-121 86 -240 246 c-132 135 -244 245 -248
245 -4 0 62 -73 146 -162z"/>
<path d="M45382 59400 c95 -99 177 -180 183 -180 5 0 -29 39 -75 88 -232 239
-265 272 -273 272 -5 0 69 -81 165 -180z"/>
<path d="M84050 58766 c0 -5 38 -81 84 -170 46 -88 89 -178 96 -198 6 -21 16
-40 21 -44 l9 -5 -20 53 c-21 56 -190 379 -190 364z"/>
<path d="M51140 58655 c0 -3 20 -36 45 -73 l45 -67 0 -31 0 -32 -26 -17 -25
-16 -31 6 -31 7 7 -11 7 -11 30 0 30 0 23 15 24 16 6 35 7 34 -52 75 c-48 70
-59 83 -59 70z"/>
<path d="M50713 58594 c5 -5 83 -30 174 -55 l165 -47 -9 9 c-5 5 -73 27 -152
49 -78 21 -152 42 -164 46 l-22 6 8 -8z"/>
<path d="M63900 58473 c0 -17 181 -888 186 -892 9 -9 1 32 -86 455 -80 388
-100 474 -100 437z"/>
<path d="M48786 57992 l-6 -10 121 -116 122 -115 9 5 c5 3 8 7 6 8 -2 1 -58
55 -124 120 l-122 117 -6 -9z"/>
<path d="M64181 57108 c-1 -9 17 -99 39 -200 51 -233 50 -231 55 -226 4 4 -79
407 -90 433 l-3 10 -1 -17z"/>
<path d="M84036 56801 c5 -5 98 -41 207 -81 l199 -72 5 6 6 6 -14 5 c-8 2
-101 36 -207 75 -200 72 -213 76 -196 61z"/>
<path d="M79450 56580 l-45 -30 -80 -27 -80 -27 -80 -13 -80 -12 75 3 75 3 96
33 96 33 39 33 c49 41 43 43 -16 4z"/>
<path d="M79482 56554 l-32 -26 -83 -34 -82 -35 35 7 c19 4 60 19 90 34 58 30
130 80 114 80 -5 0 -24 -12 -42 -26z"/>
<path d="M26485 56427 c37 -25 316 -167 328 -167 7 0 -15 14 -48 31 -33 17
-111 58 -172 90 -108 56 -150 74 -108 46z"/>
<path d="M79050 56421 l0 -9 20 5 c11 3 20 7 20 9 0 2 -9 4 -20 4 l-20 0 0 -9z"/>
<path d="M64413 56250 c16 -5 35 -14 43 -21 l14 -11 0 -33 0 -32 -18 -16 -19
-17 -29 0 -30 0 -10 10 -10 10 -262 -52 c-144 -29 -262 -55 -262 -59 0 -3 118
18 263 47 l262 52 16 -14 16 -14 32 6 32 7 20 25 20 26 -6 30 -7 31 -20 18
-20 17 -27 -1 -26 -1 28 -8z"/>
<path d="M85998 56008 c-97 -51 -175 -94 -173 -96 4 -5 355 177 355 184 0 6 5
9 -182 -88z"/>
<path d="M25510 55922 c0 -11 360 -236 366 -229 6 5 -37 34 -244 165 -117 75
-122 77 -122 64z"/>
<path d="M25491 55893 c5 -13 362 -244 368 -237 6 6 14 0 -169 114 -91 56
-174 110 -184 119 l-19 16 4 -12z"/>
<path d="M46948 55722 c-10 -2 -18 -6 -18 -9 0 -22 76 -244 105 -308 20 -44
41 -90 46 -102 l8 -23 16 6 15 6 0 12 c0 6 -20 55 -44 108 l-44 97 -32 108
c-18 59 -33 108 -34 109 0 0 -9 -1 -18 -4z"/>
<path d="M25990 55663 c0 -4 96 -77 213 -160 182 -131 246 -175 315 -217 l12
-7 0 8 c0 4 -18 18 -39 30 -32 19 -137 92 -448 317 -29 21 -53 34 -53 29z"/>
<path d="M80694 55578 c-22 -24 -55 -62 -74 -86 l-33 -43 -27 -72 c-15 -40
-30 -84 -34 -99 l-6 -28 10 0 10 0 0 15 c0 8 14 49 31 91 l30 78 39 55 40 56
35 28 c33 26 45 47 27 47 -4 0 -26 -19 -48 -42z"/>
<path d="M51093 55276 l-102 -11 -8 -8 -8 -9 95 9 95 8 370 -1 370 -1 -110 7
c-60 4 -220 10 -355 12 l-245 6 -102 -12z"/>
<path d="M55373 55188 l-32 -42 6 -10 6 -9 38 44 37 44 -4 7 c-9 14 -19 8 -51
-34z"/>
<path d="M61940 55109 c0 -45 175 -916 186 -928 13 -14 4 34 -57 324 -37 176
-79 385 -93 464 -23 129 -36 180 -36 140z"/>
<path d="M52670 54722 c0 -8 293 -212 305 -212 l6 0 -6 10 c-10 16 -305 211
-305 202z"/>
<path d="M46831 54616 l-23 -37 -5 -38 -5 -38 10 -6 9 -7 6 45 7 45 16 25 16
24 -4 12 -4 13 -23 -38z"/>
<path d="M51885 54403 c-165 -215 -178 -233 -168 -232 4 0 24 21 43 47 20 26
85 111 144 190 60 78 107 144 105 147 -3 2 -59 -66 -124 -152z"/>
<path d="M51940 54300 c-78 -105 -140 -193 -138 -196 3 -2 69 82 147 187 78
105 140 193 138 195 -2 3 -69 -81 -147 -186z"/>
<path d="M88035 54386 l-20 -15 10 -2 c6 0 25 0 43 1 l33 2 25 -17 26 -17 6 6
6 7 -20 19 -19 19 -35 6 -35 6 -20 -15z"/>
<path d="M51355 54270 c-54 -61 -95 -113 -93 -116 3 -2 49 46 103 106 53 61
95 113 93 116 -3 2 -49 -45 -103 -106z"/>
<path d="M51471 53938 l4 -17 130 -110 130 -110 4 10 c1 6 1 11 0 13 -5 3
-218 185 -248 210 l-23 21 3 -17z"/>
<path d="M72443 53824 c-54 -47 -138 -125 -187 -172 l-88 -87 -99 -147 c-54
-81 -99 -150 -99 -153 0 -3 5 -5 10 -5 l11 0 85 131 86 132 66 70 c36 39 126
124 199 189 73 65 133 121 133 123 0 16 -31 -5 -117 -81z"/>
<path d="M77468 53633 l-188 -74 0 -8 0 -8 195 76 c107 42 195 79 195 84 0 11
-3 10 -202 -70z"/>
<path d="M49090 53645 c0 -10 140 -286 185 -365 56 -98 54 -95 59 -89 3 2 -23
52 -56 109 -33 58 -87 160 -119 228 -49 105 -69 138 -69 117z"/>
<path d="M52345 53629 c-11 -17 1 -21 15 -4 l12 15 -10 0 c-6 0 -14 -5 -17
-11z"/>
<path d="M46130 53347 c9 -7 53 -40 98 -75 l81 -62 29 -43 c16 -23 46 -73 67
-112 45 -82 44 -80 50 -73 7 6 -92 186 -119 217 -26 29 -200 161 -212 161 l-9
-1 15 -12z"/>
<path d="M52448 53266 l-17 -24 -91 -7 -90 -7 0 -7 0 -7 92 9 93 9 13 10 c7 6
18 20 23 30 l10 18 -8 0 c-4 0 -16 -11 -25 -24z"/>
<path d="M52270 53203 c0 -16 113 -263 152 -331 52 -91 40 -51 -20 68 -32 63
-74 151 -95 195 -20 44 -36 75 -37 68z"/>
<path d="M52065 53124 c-11 -8 -123 -69 -248 -136 -125 -66 -226 -123 -223
-125 6 -6 474 243 496 263 l14 14 -9 0 c-6 0 -19 -7 -30 -16z"/>
<path d="M51020 52981 c-8 -4 -82 -43 -163 -85 -82 -43 -146 -80 -144 -82 4
-4 324 159 336 171 7 8 -13 5 -29 -4z"/>
<path d="M69232 52978 c3 -7 29 -109 58 -225 l54 -213 9 0 9 0 -4 13 c-3 6
-29 108 -59 224 l-54 213 -9 0 -8 0 4 -12z"/>
<path d="M12734 52782 c-18 -26 -64 -93 -103 -149 l-72 -103 13 0 13 1 80 116
c44 63 88 128 98 143 l18 28 -8 5 -8 5 -31 -46z"/>
<path d="M52745 52774 l-19 -14 15 0 c8 0 20 4 28 9 l13 9 -9 5 -8 5 -20 -14z"/>
<path d="M84170 52781 c0 -7 36 -148 80 -314 l81 -302 9 -9 10 -10 181 44 c99
25 176 46 171 48 -5 1 -82 -15 -170 -38 -89 -22 -167 -40 -175 -40 l-14 0 -83
313 c-78 296 -90 337 -90 308z"/>
<path d="M27751 52498 c-7 -134 -16 -308 -21 -388 -5 -80 -9 -174 -9 -210 l0
-65 8 15 8 15 7 165 c9 220 16 375 25 550 l7 145 -6 8 -7 8 -12 -243z"/>
<path d="M26802 52679 c13 -17 60 -89 104 -161 l82 -129 8 -87 8 -87 -3 -167
-3 -168 11 0 11 0 -1 193 0 192 -13 72 -13 71 -67 109 c-77 122 -127 192 -139
193 -5 0 2 -14 15 -31z"/>
<path d="M77340 52622 c-107 -41 -197 -76 -199 -78 -1 -1 -1 -7 0 -12 l4 -10
195 75 c107 42 197 77 199 79 1 1 1 7 0 12 l-4 10 -195 -76z"/>
<path d="M78092 52408 c3 -7 38 -105 78 -218 79 -221 77 -216 86 -207 l6 6
-78 215 -77 216 -10 0 -9 0 4 -12z"/>
<path d="M78060 52353 c0 -18 126 -380 137 -392 1 -2 6 -2 9 2 l6 5 -72 199
c-40 109 -74 200 -76 202 -2 2 -4 -5 -4 -16z"/>
<path d="M27045 52113 l0 -233 8 0 7 0 -1 173 c-1 94 -4 199 -8 232 l-7 60 1
-232z"/>
<path d="M27696 52170 c-3 -60 -8 -161 -11 -222 l-4 -113 8 45 c10 52 26 400
18 400 -2 0 -7 -49 -11 -110z"/>
<path d="M18455 51778 c-2 -7 -11 -50 -20 -95 -9 -46 -34 -142 -55 -215 -35
-119 -41 -153 -24 -136 10 11 76 243 99 351 l23 107 -9 0 c-5 0 -11 -6 -14
-12z"/>
<path d="M89322 51318 c43 -122 81 -224 85 -227 l6 -6 -5 15 c-47 143 -155
440 -159 440 -4 0 29 -100 73 -222z"/>
<path d="M34163 51362 l-12 -8 12 -24 13 -25 22 -3 22 -3 0 10 0 10 -19 6 -20
6 -3 19 -3 19 -12 -7z"/>
<path d="M26356 50972 l-6 -10 58 -6 c31 -3 135 -8 230 -12 l172 -6 0 10 0 10
-177 6 c-98 4 -199 9 -224 12 l-47 6 -6 -10z"/>
<path d="M5250 50881 l0 -11 13 0 c6 0 100 -11 207 -25 107 -14 205 -25 218
-25 l22 0 0 8 0 8 -187 23 c-104 12 -207 25 -230 28 l-43 6 0 -12z"/>
<path d="M6928 50697 l-158 -21 -71 12 c-65 11 -91 10 -78 -3 3 -2 38 -10 77
-17 l73 -12 147 18 c81 9 155 20 165 22 16 5 25 25 10 23 -5 -1 -79 -11 -165
-22z"/>
<path d="M80045 50269 c29 -116 56 -213 59 -216 l6 -6 7 7 7 7 -43 177 c-25
97 -48 192 -53 210 l-9 32 -13 0 -14 0 53 -211z"/>
<path d="M27758 50016 c-5 -43 -7 -138 -7 -210 l2 -131 8 75 9 75 -2 135 -3
135 -7 -79z"/>
<path d="M27798 50016 c-5 -43 -7 -138 -7 -210 l2 -131 9 85 8 85 -2 125 -3
125 -7 -79z"/>
<path d="M33670 49879 c0 -17 38 -321 46 -368 3 -18 7 -31 10 -28 6 5 -43 398
-51 405 -3 3 -5 -1 -5 -9z"/>
<path d="M33710 49883 c0 -27 50 -387 55 -391 3 -3 5 2 5 10 0 31 -50 381 -55
386 -3 3 -5 1 -5 -5z"/>
<path d="M40121 49551 c-1 -8 64 -179 143 -380 79 -201 149 -386 156 -411 12
-47 49 -115 57 -106 3 3 -2 15 -11 28 -9 13 -21 41 -27 63 -8 30 -255 669
-309 800 l-9 20 0 -14z"/>
<path d="M35973 49509 c4 -13 7 -32 7 -41 l0 -18 8 0 8 0 -4 35 -4 35 -11 7
-10 6 6 -24z"/>
<path d="M37923 49085 c3 -16 20 -120 37 -230 l33 -200 9 -10 9 -10 -5 25 c-3
14 -21 119 -40 234 -19 114 -38 211 -42 215 l-7 6 6 -30z"/>
<path d="M33794 48990 c44 -321 58 -415 62 -419 7 -8 5 20 -22 219 l-25 195
-10 20 -9 20 4 -35z"/>
<path d="M81284 48924 c3 -9 6 -23 6 -32 l0 -16 10 10 9 9 -5 23 -6 22 -10 0
-10 0 6 -16z"/>
<path d="M91439 48708 c-68 -78 -153 -178 -188 -223 -35 -44 -114 -132 -176
-195 -61 -63 -151 -158 -200 -210 l-88 -95 -43 -65 c-64 -98 -116 -161 -478
-570 l-332 -376 -59 -103 -59 -103 -34 -15 c-19 -8 -32 -16 -30 -19 3 -2 21 2
41 11 l36 15 58 102 58 103 305 345 c383 432 428 486 496 587 l54 82 87 93
c48 51 137 145 198 208 62 63 141 151 175 195 58 72 224 267 288 337 14 15 23
30 20 33 -2 3 -61 -59 -129 -137z"/>
<path d="M16300 48592 c0 -5 22 -19 49 -32 l49 -23 63 -63 63 -64 4 -70 4 -70
9 0 9 0 0 60 0 61 -14 27 c-8 15 -36 48 -63 74 l-48 46 -62 31 -63 31 0 -8z"/>
<path d="M33595 48549 c-71 -5 -139 -10 -150 -13 -29 -7 288 5 370 14 l70 7
-80 0 c-44 0 -138 -4 -210 -8z"/>
<path d="M33004 47155 c4 -22 11 -75 16 -118 l10 -79 -6 -9 -5 -9 -67 -1 c-37
0 -89 -5 -117 -9 l-50 -9 120 5 120 5 8 9 9 8 -12 113 -12 114 -10 10 -9 10 5
-40z"/>
<path d="M35925 46831 c3 -68 5 -141 5 -163 l0 -38 8 0 7 0 -3 87 c-2 49 -8
122 -12 163 l-9 75 4 -124z"/>
<path d="M20590 46738 l0 -23 -24 -50 -24 -50 -43 -42 -44 -42 -95 -44 c-52
-24 -160 -68 -240 -97 -136 -49 -260 -104 -260 -115 0 -3 26 7 58 21 31 14
125 50 207 80 83 30 192 74 243 99 51 25 96 45 100 45 5 0 26 19 49 43 l41 42
17 40 c9 22 20 57 24 77 l9 38 -9 0 -9 0 0 -22z"/>
<path d="M33043 46501 l-112 -6 7 -11 7 -12 215 9 c249 9 220 7 220 19 l0 10
-112 -2 c-62 -1 -163 -4 -225 -7z"/>
<path d="M52046 46343 c36 -76 91 -190 122 -253 30 -63 90 -189 134 -280 43
-91 78 -158 78 -150 0 8 -49 118 -109 245 -60 126 -145 306 -188 399 l-79 170
-12 4 -11 3 65 -138z"/>
<path d="M24517 46443 c-4 -3 -7 -10 -7 -15 l0 -9 38 2 39 3 30 -13 30 -12 13
-24 13 -23 -5 -29 c-3 -15 -7 -35 -9 -43 l-4 -15 15 0 15 0 9 43 9 43 -17 35
-16 35 -35 15 -34 14 -39 0 c-21 0 -42 -3 -45 -7z"/>
<path d="M32990 46395 l0 -15 225 0 225 0 0 15 0 15 -225 0 -225 0 0 -15z"/>
<path d="M93091 46095 l15 -15 75 -13 76 -14 24 -16 23 -17 51 0 50 0 63 32
c34 18 62 35 62 39 0 4 -30 -8 -67 -27 l-68 -34 -37 0 -37 0 -35 21 -35 20
-68 10 -68 10 -9 9 c-6 6 -15 10 -20 10 l-10 0 15 -15z"/>
<path d="M93060 46071 c0 -4 16 -15 35 -24 l36 -17 32 0 32 0 53 -25 54 -25
54 0 54 0 71 36 c93 47 83 55 -12 9 l-73 -35 -41 0 -40 0 -47 25 -47 25 -38 0
-38 0 -42 20 -43 19 0 -8z"/>
<path d="M39856 46003 c9 -16 29 -46 42 -68 29 -45 221 -245 237 -245 5 0 -38
48 -96 108 l-106 107 -39 62 c-21 35 -43 63 -48 63 l-8 0 18 -27z"/>
<path d="M81370 45886 c-4 -13 -14 -43 -20 -67 -6 -24 -21 -67 -32 -96 l-21
-52 -30 -11 c-17 -5 -28 -12 -25 -15 3 -3 19 0 36 6 l30 10 17 42 c19 46 64
207 58 207 -2 0 -8 -11 -13 -24z"/>
<path d="M51940 45791 c0 -7 44 -104 97 -216 l97 -205 8 0 8 0 -19 38 c-10 20
-32 66 -49 102 -66 142 -142 292 -142 281z"/>
<path d="M40765 45519 c-55 -10 -129 -23 -165 -28 l-65 -8 55 -1 55 -1 125 23
125 24 13 -10 12 -10 0 16 0 16 -27 -1 c-16 0 -73 -9 -128 -20z"/>
<path d="M94133 44303 c-90 -64 -161 -118 -159 -121 3 -2 76 47 163 109 187
133 167 118 162 123 -2 2 -77 -48 -166 -111z"/>
<path d="M51380 42934 c0 -34 39 -277 60 -369 11 -49 29 -162 40 -250 11 -88
23 -164 25 -170 18 -48 -34 357 -60 465 -9 35 -25 125 -36 199 -18 124 -29
172 -29 125z"/>
<path d="M88600 42755 c0 -4 12 -26 26 -50 l26 -44 -6 -9 c-3 -5 -58 -41 -123
-80 -118 -72 -163 -104 -163 -117 0 -4 15 4 33 17 17 13 83 55 146 93 l113 70
6 14 5 14 -24 44 c-23 42 -39 62 -39 48z"/>
<path d="M50835 42489 c-71 -10 -134 -18 -139 -18 l-9 -1 5 -5 5 -6 164 21
c158 20 210 31 138 29 -19 -1 -92 -9 -164 -20z"/>
<path d="M31075 41859 l-136 -192 8 -7 8 -7 137 193 137 194 -9 5 -8 5 -137
-191z"/>
<path d="M30402 41200 l-183 -138 9 -6 9 -6 187 140 c102 77 186 142 186 145
0 18 -46 -12 -208 -135z"/>
<path d="M55940 41225 l0 -105 10 0 10 0 0 105 0 105 -10 0 -10 0 0 -105z"/>
<path d="M30450 41168 l-185 -140 -3 -15 -4 -15 183 138 c100 77 187 142 192
145 l9 7 -3 10 -4 10 -185 -140z"/>
<path d="M84907 39834 c55 -82 117 -177 137 -211 43 -73 61 -86 21 -15 -40 69
-236 361 -248 369 -6 3 35 -61 90 -143z"/>
<path d="M48260 39803 c-107 -139 -146 -196 -90 -133 52 59 203 260 199 265
-3 2 -52 -57 -109 -132z"/>
<path d="M54370 39668 c0 -18 -20 -141 -45 -272 -41 -221 -46 -260 -29 -243 9
8 94 475 94 515 l0 32 -10 0 -10 0 0 -32z"/>
<path d="M84200 39575 c0 -10 60 -105 67 -105 5 0 3 3 -39 69 -15 25 -28 41
-28 36z"/>
<path d="M84285 39434 c10 -17 26 -41 37 -55 l20 -24 -17 31 c-10 17 -26 41
-37 55 l-20 24 17 -31z"/>
<path d="M84349 39335 c5 -11 17 -29 26 -40 l16 -20 -10 20 c-5 11 -17 29 -26
40 l-16 20 10 -20z"/>
<path d="M54175 38578 c-2 -7 -20 -100 -40 -207 l-36 -193 5 -6 c11 -11 16 7
51 194 20 104 38 197 41 207 l5 17 -11 0 c-6 0 -12 -6 -15 -12z"/>
<path d="M35010 37863 l0 -10 77 -48 77 -47 88 -81 c121 -112 135 -110 19 2
l-94 90 -56 34 c-31 18 -68 41 -83 51 l-28 18 0 -9z"/>
<path d="M85129 37753 c0 -16 -4 -66 -8 -112 l-8 -84 160 -249 c88 -137 162
-247 164 -244 2 2 -66 114 -152 247 l-157 244 7 112 7 113 -6 0 c-3 0 -6 -12
-7 -27z"/>
<path d="M92803 37611 l6 -24 -10 -20 -11 -19 14 4 13 5 3 27 4 28 -13 12 -12
11 6 -24z"/>
<path d="M59360 37602 c0 -18 184 -382 192 -382 7 0 -175 375 -188 389 -2 2
-4 -1 -4 -7z"/>
<path d="M86187 37247 c-125 -82 -226 -152 -223 -154 3 -3 105 61 228 142 243
161 233 153 227 159 -2 2 -107 -64 -232 -147z"/>
<path d="M60252 37285 c-19 -8 -77 -26 -130 -39 -54 -13 -131 -34 -172 -46
l-75 -23 12 -4 11 -4 104 30 c56 16 119 32 138 36 19 3 61 15 93 27 l57 20 0
9 c0 11 2 11 -38 -6z"/>
<path d="M40935 36485 c3 -17 19 -122 35 -234 17 -113 32 -207 35 -209 8 -8 7
2 -26 233 l-32 220 -9 10 -8 9 5 -29z"/>
<path d="M55863 35915 c3 -11 16 -93 28 -182 l22 -163 7 0 7 0 -26 174 -26
175 -9 8 -8 8 5 -20z"/>
<path d="M41769 35677 l13 -17 -4 -25 -5 -25 9 0 9 0 -3 37 -3 36 -15 5 -15 5
14 -16z"/>
<path d="M84915 35602 c-30 -10 -85 -45 -85 -55 l0 -8 13 7 c6 4 24 16 39 26
l26 18 26 0 26 0 20 -20 c11 -11 33 -45 49 -77 17 -32 44 -78 60 -103 l31 -45
0 17 c0 9 -4 20 -10 23 -5 3 -33 49 -61 101 l-51 94 -21 15 c-23 16 -30 17
-62 7z"/>
<path d="M41396 35468 l-16 -24 -2 -35 -2 -34 154 -447 c85 -247 158 -448 161
-448 4 0 -62 205 -147 456 -85 250 -154 465 -154 478 l0 22 16 22 c9 13 14 26
11 29 -3 2 -12 -6 -21 -19z"/>
<path d="M60895 35100 c-43 -105 -75 -193 -73 -196 3 -3 12 12 21 33 8 21 45
109 81 196 l65 157 -8 0 c-4 0 -43 -86 -86 -190z"/>
<path d="M32101 35043 c2 -6 72 -65 154 -131 l150 -119 53 -27 52 -26 0 8 c0
4 -24 19 -52 34 l-53 25 -110 89 c-60 48 -130 104 -154 123 l-44 36 4 -12z"/>
<path d="M73214 34748 c3 -24 11 -88 17 -142 l11 -100 -7 -88 -7 -88 10 0 10
0 7 88 7 87 -11 105 c-6 58 -14 122 -17 143 l-6 37 -9 0 -10 0 5 -42z"/>
<path d="M75610 34561 c-117 -52 -277 -137 -285 -152 l-6 -9 6 0 c3 0 48 24
98 53 51 30 106 58 122 64 17 6 67 27 112 46 l82 36 6 -9 c4 -6 11 -10 17 -10
l10 0 -12 15 -12 15 -17 -1 c-9 0 -63 -22 -121 -48z"/>
<path d="M60620 34385 l-34 -80 -17 -125 c-19 -129 -23 -177 -14 -168 3 2 13
67 24 144 l19 140 31 73 c17 41 30 79 28 85 l-3 10 -34 -79z"/>
<path d="M87261 33959 c-96 -60 -177 -112 -180 -116 l-6 -6 20 7 c33 12 345
209 345 218 0 11 17 21 -179 -103z"/>
<path d="M33615 32650 c-99 -60 -184 -111 -190 -113 -5 -2 -8 -7 -5 -10 3 -3
95 48 205 114 l200 119 -15 -1 c-8 0 -96 -50 -195 -109z"/>
<path d="M79411 32686 c7 -7 362 -146 373 -146 l9 0 -6 7 c-11 11 -185 83
-276 114 -80 27 -110 35 -100 25z"/>
<path d="M23560 26638 l0 -15 123 -21 c67 -12 166 -27 220 -34 l97 -11 7 6 6
7 -5 6 c-4 3 -55 12 -115 19 -97 12 -251 38 -310 52 l-23 5 0 -14z"/>
<path d="M90404 24849 l-4 -7 77 -6 c43 -3 157 -18 253 -32 l175 -26 101 -29
101 -29 119 -50 c65 -27 123 -50 129 -50 5 1 -48 26 -120 57 l-130 56 -115 33
-115 33 -125 21 -125 21 -108 7 -109 7 -4 -6z"/>
<path d="M87171 20318 c74 -78 219 -227 322 -331 l188 -190 6 7 6 6 -99 94
c-54 52 -198 198 -319 325 -121 127 -224 231 -229 231 -4 0 52 -64 125 -142z"/>
<path d="M88279 19669 c-85 -78 -158 -145 -163 -150 l-10 -9 10 0 c5 0 50 37
99 83 50 45 122 110 160 144 l70 62 -6 6 -6 6 -154 -142z"/>
<path d="M98057 10834 l-5 -6 221 -205 c122 -113 236 -219 252 -236 17 -18 67
-68 112 -111 l83 -79 7 7 7 6 -45 46 c-52 54 -454 431 -556 521 l-70 63 -6 -6z"/>
<path d="M24872 4078 l5 -13 86 -38 86 -38 83 -14 82 -15 9 9 9 9 -74 11 -73
12 -55 21 c-30 12 -77 32 -104 45 -58 27 -59 27 -54 11z"/>
</g>
</svg>
