<?xml version="1.0" standalone="no"?>
<!DOCTYPE svg PUBLIC "-//W3C//DTD SVG 20010904//EN"
 "http://www.w3.org/TR/2001/REC-SVG-20010904/DTD/svg10.dtd">
<svg version="1.0" xmlns="http://www.w3.org/2000/svg"
 width="7500.000000pt" height="7500.000000pt" viewBox="0 0 7500.000000 7500.000000"
 preserveAspectRatio="xMidYMid meet">
<metadata>
Created by potrace 1.16, written by Peter Selinger 2001-2019
</metadata>
<g transform="translate(0.000000,7500.000000) scale(0.075000,-0.075000)"
fill="#000000" stroke="none">
<path d="M82925 99247 c11 -8 85 -49 165 -92 80 -43 155 -85 168 -93 l22 -14
0 9 0 9 -178 97 c-160 87 -232 121 -177 84z"/>
<path d="M84370 99251 c0 -5 3 -16 6 -25 l6 -16 8 5 8 5 -5 20 c-5 20 -23 28
-23 11z"/>
<path d="M83301 99086 c2 -2 69 -41 149 -88 l146 -85 66 -26 66 -27 71 -10
c39 -5 161 -14 271 -19 l198 -10 141 6 141 6 0 6 0 6 -227 -4 -228 -3 -150 12
c-82 6 -168 16 -190 21 -73 18 -168 62 -304 141 -73 43 -138 78 -144 78 -6 0
-8 -2 -6 -4z"/>
<path d="M84489 98806 c-2 -3 -77 -6 -167 -8 l-162 -3 0 -8 0 -9 187 8 188 7
25 8 25 7 -46 1 c-25 1 -48 -1 -50 -3z"/>
<path d="M13965 95934 c-9 -25 -46 -91 -81 -146 l-63 -99 -45 -41 c-25 -22
-46 -44 -46 -49 0 -19 23 -7 69 36 l49 46 56 88 c31 49 66 112 78 141 l21 51
-10 10 -10 10 -18 -47z"/>
<path d="M98906 94231 c13 -12 404 -164 409 -159 5 5 -394 168 -409 168 l-10
0 10 -9z"/>
<path d="M20280 93249 l0 -10 193 -94 c105 -51 202 -96 215 -100 l22 -6 0 11
0 11 -62 26 c-35 15 -130 60 -211 100 -81 40 -150 73 -152 73 -3 0 -5 -5 -5
-11z"/>
<path d="M33160 93016 c0 -7 162 -441 166 -445 2 -2 7 -2 10 1 l6 6 -83 221
-82 221 -8 0 c-5 0 -9 -2 -9 -4z"/>
<path d="M57901 92306 c2 -2 78 -45 169 -96 91 -51 180 -101 198 -112 l32 -20
0 9 c0 9 -379 223 -394 223 -5 0 -7 -2 -5 -4z"/>
<path d="M94605 91199 l-40 -21 -22 -33 -22 -33 14 -6 14 -5 17 28 17 28 44
22 c24 11 52 21 63 21 l19 0 6 10 6 10 -38 -1 -38 0 -40 -20z"/>
<path d="M94776 91182 l-5 -8 19 -12 19 -12 6 10 6 10 -6 10 c-7 12 -32 13
-39 2z"/>
<path d="M94845 91111 l-6 -10 7 -26 6 -25 9 0 9 0 0 29 0 30 -9 6 -10 5 -6
-9z"/>
<path d="M29720 90588 l0 -14 68 -17 c48 -13 344 -57 380 -57 1 0 2 6 2 13 l0
13 -152 18 -153 17 -55 15 c-30 8 -63 17 -72 20 l-18 5 0 -13z"/>
<path d="M30962 90293 l-2 -73 30 -32 29 -33 1 13 0 13 -14 5 c-21 8 -29 31
-36 109 l-7 70 -1 -72z"/>
<path d="M98830 89211 c91 -31 187 -67 214 -79 27 -12 54 -22 60 -22 6 0 -14
12 -44 26 -60 28 -366 134 -384 133 -6 0 63 -26 154 -58z"/>
<path d="M85215 88950 c-49 -10 -146 -28 -215 -40 l-125 -23 12 -4 c6 -2 96
12 200 31 103 19 199 36 213 38 l25 3 -10 6 -10 6 -90 -17z"/>
<path d="M80270 88040 c0 -5 1 -10 3 -10 2 0 92 -31 201 -70 204 -73 216 -76
216 -61 l0 9 -202 71 c-112 39 -206 71 -210 71 -5 0 -8 -4 -8 -10z"/>
<path d="M80670 87843 c0 -10 411 -155 418 -148 11 11 -18 24 -203 89 -189 66
-215 73 -215 59z"/>
<path d="M84439 87272 c-37 -70 -97 -197 -134 -282 -37 -85 -71 -159 -75 -163
l-8 -9 -77 22 c-42 12 -79 19 -82 16 -5 -5 18 -12 120 -37 l48 -12 8 9 c4 5
45 94 91 197 45 104 105 231 132 283 28 52 49 97 47 99 -2 2 -34 -54 -70 -123z"/>
<path d="M80510 84371 l0 -8 215 -75 215 -75 0 8 c0 4 -33 18 -72 32 -40 14
-137 48 -215 75 l-143 51 0 -8z"/>
<path d="M83133 84168 l4 -13 13 0 13 0 5 13 4 12 -22 0 -22 0 5 -12z"/>
<path d="M96381 81719 c-68 -93 -121 -172 -118 -175 2 -3 59 72 127 166 67 94
120 173 118 176 -3 2 -60 -73 -127 -167z"/>
<path d="M96223 81432 c-34 -48 -90 -124 -124 -170 l-61 -82 4 -10 3 -10 90
127 c50 69 107 150 128 179 21 30 35 54 30 54 -4 0 -36 -40 -70 -88z"/>
<path d="M5576 81453 l-7 -7 213 -108 c117 -59 214 -107 216 -108 1 0 2 7 2
16 l0 15 -206 100 c-113 54 -207 99 -208 99 -2 0 -6 -3 -10 -7z"/>
<path d="M95622 80663 l-124 -175 6 -6 c3 -3 7 -3 9 -1 2 2 56 79 121 172
l118 167 -4 9 -3 9 -123 -175z"/>
<path d="M42340 79550 l-15 -10 33 0 32 0 0 10 0 10 -17 0 c-10 0 -25 -5 -33
-10z"/>
<path d="M65920 79208 l0 -8 48 -1 c26 0 128 -6 227 -13 168 -12 195 -12 184
-2 -2 2 -106 10 -231 17 l-228 14 0 -7z"/>
<path d="M73840 78405 c0 -3 104 -141 231 -307 l232 -301 55 -96 c63 -111 60
-106 68 -98 l7 7 -59 102 -60 103 -228 298 c-200 260 -246 314 -246 292z"/>
<path d="M98280 78348 l0 -13 53 -22 c28 -12 121 -51 205 -86 l152 -65 0 12 0
12 -172 74 c-95 40 -188 79 -205 86 l-33 14 0 -12z"/>
<path d="M74438 77542 l-47 -17 -115 -100 -115 -100 -1 -12 c0 -7 3 -13 6 -13
4 0 51 39 106 88 55 48 113 97 130 109 l31 22 44 7 43 6 0 14 0 14 -17 0 c-10
-1 -39 -9 -65 -18z"/>
<path d="M74140 77255 l0 -36 24 -47 24 -47 30 -28 29 -28 11 14 12 14 -31 29
c-17 16 -39 46 -50 66 l-19 37 0 31 0 30 -15 0 -15 0 0 -35z"/>
<path d="M16400 76436 l0 -13 202 -92 201 -92 10 10 11 11 -55 24 c-30 13
-123 56 -208 95 -85 39 -156 71 -158 71 -2 0 -3 -6 -3 -14z"/>
<path d="M6640 74941 l0 -9 48 -6 c26 -3 117 -13 202 -21 85 -8 167 -17 183
-20 l27 -4 0 14 0 15 -17 0 c-10 0 -99 9 -198 20 -99 11 -195 20 -212 20 l-33
0 0 -9z"/>
<path d="M73000 70832 l0 -8 113 -27 112 -27 120 -10 120 -10 243 0 242 0 0
10 0 10 -221 0 -220 0 -147 11 -147 10 -98 25 c-107 26 -117 28 -117 16z"/>
<path d="M74398 70675 l-6 -80 19 -110 c24 -138 29 -158 34 -153 3 2 -2 42
-11 89 l-16 84 -7 125 -6 125 -7 -80z"/>
<path d="M29825 70578 l-7 -18 7 -17 8 -18 4 18 c3 9 3 25 0 35 l-4 17 -8 -17z"/>
<path d="M41305 67728 c-38 -105 -72 -209 -75 -230 l-7 -39 11 4 11 4 3 25 c2
15 34 113 72 220 l69 193 -8 8 -8 8 -68 -193z"/>
<path d="M41276 66361 c20 -21 587 -382 591 -377 3 2 -12 15 -34 29 -21 13
-154 99 -296 191 -237 152 -288 183 -261 157z"/>
<path d="M41590 66266 c0 -6 310 -207 328 -213 10 -2 -58 45 -151 106 -159
105 -177 116 -177 107z"/>
<path d="M48910 66120 l205 -141 30 -33 30 -33 158 -112 159 -112 10 3 11 4
-176 125 c-97 68 -177 129 -177 134 l-1 10 -211 145 c-117 80 -219 147 -227
149 -9 2 76 -61 189 -139z"/>
<path d="M48701 66217 c9 -7 109 -77 222 -156 l207 -144 0 -11 0 -11 103 -72
c56 -39 135 -95 176 -124 l74 -52 -5 14 -5 14 -159 113 c-87 62 -166 121 -174
131 -8 10 -37 34 -65 53 -27 19 -123 85 -211 146 -89 62 -166 112 -170 112
l-9 -1 16 -12z"/>
<path d="M38461 64927 c-18 -144 -34 -270 -37 -279 l-5 -18 8 0 9 0 33 275
c19 151 32 277 29 280 -2 3 -19 -113 -37 -258z"/>
<path d="M37180 64720 l0 -20 10 0 c17 0 404 -50 428 -55 l22 -5 0 20 0 20
-22 4 c-23 5 -416 56 -430 56 l-8 0 0 -20z"/>
<path d="M37057 64570 l-5 -20 36 -10 c21 -6 107 -20 192 -31 l155 -20 245
-14 c135 -8 260 -15 278 -15 l32 0 0 20 0 20 -34 0 c-19 0 -114 5 -212 10
l-179 11 -203 24 c-112 14 -222 29 -245 35 -56 13 -54 13 -60 -10z"/>
<path d="M40695 64505 c34 -91 85 -254 90 -290 l7 -44 12 5 c7 3 111 -7 231
-21 121 -14 224 -25 230 -24 36 3 -70 19 -252 39 l-212 23 -7 41 c-8 52 -83
268 -97 281 l-10 10 8 -20z"/>
<path d="M40686 64408 c19 -57 44 -134 54 -173 l18 -70 1 28 1 28 -47 144
c-26 80 -50 145 -54 145 l-8 0 35 -102z"/>
<path d="M89366 64018 c-63 -72 -58 -82 7 -13 l52 55 85 -100 c47 -55 89 -100
93 -100 10 0 -12 28 -103 133 l-65 76 -12 0 -11 1 -46 -52z"/>
<path d="M78528 63981 l-207 -26 -13 -13 -13 -13 25 5 c14 3 106 15 205 26 99
11 190 23 203 25 l22 5 0 10 c0 6 -3 9 -7 9 -5 -1 -101 -13 -215 -28z"/>
<path d="M2257 63694 l-6 -6 329 -289 c181 -159 332 -289 335 -289 3 0 5 4 5
9 0 7 -618 557 -645 573 l-12 7 -6 -5z"/>
<path d="M42741 63343 c95 -98 179 -197 179 -212 0 -6 4 -11 9 -11 5 0 35 -30
66 -67 l57 -68 34 -90 c47 -125 66 -165 75 -165 l8 0 -23 53 c-13 28 -35 87
-51 129 l-27 77 -59 70 c-33 38 -59 72 -59 75 0 2 59 57 130 120 72 64 126
116 121 116 -6 0 -65 -49 -133 -110 -68 -60 -126 -110 -129 -110 -4 0 -28 26
-55 58 -73 86 -196 212 -208 212 l-11 0 76 -77z"/>
<path d="M7040 63312 l0 -11 -17 -2 c-10 -1 -94 -3 -188 -4 -93 -1 -185 -3
-203 -3 l-33 -2 5 -9 5 -8 158 -5 c87 -2 176 -3 198 0 l41 4 24 18 25 19 -8 7
-7 7 0 -11z"/>
<path d="M41540 63152 c0 -12 19 -26 26 -19 2 2 -2 10 -11 17 l-15 12 0 -10z"/>
<path d="M16480 63125 l0 -15 235 0 235 0 0 15 0 15 -235 0 -235 0 0 -15z"/>
<path d="M51271 63096 c11 -10 343 -146 347 -141 3 2 -6 9 -19 14 -13 5 -89
37 -168 70 -126 54 -175 71 -160 57z"/>
<path d="M13710 63077 l0 -8 158 3 157 3 35 -8 35 -7 -30 15 -30 15 -162 -2
-163 -2 0 -9z"/>
<path d="M42251 63045 c-1 -9 98 -125 226 -268 l35 -39 5 6 6 5 -89 103 c-49
56 -110 124 -136 152 l-47 51 0 -10z"/>
<path d="M51552 62776 l-72 -155 -135 -205 c-74 -113 -135 -208 -135 -211 0
-3 6 -5 13 -5 l12 1 133 204 133 204 70 151 71 152 -9 9 -10 10 -71 -155z"/>
<path d="M35240 62901 c63 -10 150 -26 193 -35 43 -10 81 -15 84 -12 6 6 -6 9
-137 35 -52 11 -131 22 -175 25 l-80 5 115 -18z"/>
<path d="M51630 62823 c-18 -43 -60 -130 -93 -193 l-60 -115 -107 -155 c-59
-85 -110 -160 -114 -167 l-6 -12 9 -5 9 -6 120 173 119 172 56 110 c51 101 95
195 118 253 l9 22 -13 0 -13 0 -34 -77z"/>
<path d="M58408 62711 l-186 -129 -210 -168 c-116 -93 -319 -254 -451 -359
-133 -104 -241 -192 -241 -195 0 -3 170 -79 378 -169 207 -91 411 -180 452
-199 l75 -34 -90 -29 c-49 -16 -134 -39 -187 -51 -54 -12 -98 -25 -98 -29 l0
-7 101 24 c56 13 146 38 200 55 l98 30 20 -10 c28 -15 36 -14 21 4 l-12 15 21
8 22 8 -238 103 c-131 57 -245 106 -253 109 l-15 5 10 -10 c6 -5 107 -52 225
-103 118 -51 219 -96 223 -100 l8 -7 -18 -5 -18 -4 -395 173 c-217 95 -421
184 -454 197 l-59 24 119 93 c134 106 275 219 574 460 l205 165 180 124 c99
68 184 127 190 132 l9 8 -9 0 c-6 0 -94 -58 -197 -129z"/>
<path d="M59940 62822 l0 -9 168 -12 c92 -6 194 -14 227 -16 l60 -5 -30 9
c-16 5 -109 14 -205 20 -96 7 -185 14 -197 17 l-23 4 0 -8z"/>
<path d="M42424 62688 l-59 -61 30 21 c38 26 100 90 94 97 -3 2 -32 -23 -65
-57z"/>
<path d="M41932 62267 l-32 -33 0 -19 0 -20 25 36 c13 20 31 39 40 42 15 7 21
27 7 27 -4 0 -22 -15 -40 -33z"/>
<path d="M56590 62001 l-114 -138 -18 -52 -18 -52 10 -40 11 -39 10 0 9 0 -7
28 c-4 15 -7 41 -6 58 l1 32 17 33 c10 18 66 91 126 163 102 122 120 147 102
145 -5 0 -60 -62 -123 -138z"/>
<path d="M40109 61884 l-34 -36 -70 -41 -69 -40 -105 -27 -105 -26 10 -6 10
-7 100 25 99 25 60 35 c33 19 82 54 108 78 l49 44 -10 5 -9 6 -34 -35z"/>
<path d="M5556 60922 l-5 -9 102 -70 102 -71 165 -82 c91 -45 203 -105 250
-133 106 -63 361 -250 457 -334 l72 -63 7 12 8 12 -65 58 c-72 66 -342 265
-434 320 -68 41 -115 66 -311 169 -76 40 -178 99 -227 131 -48 32 -94 61 -101
64 l-14 5 -6 -9z"/>
<path d="M5535 60879 c-4 -5 -5 -11 -4 -13 150 -101 202 -132 286 -175 111
-55 113 -56 113 -41 l0 10 -92 46 c-51 26 -133 74 -183 108 -49 34 -95 65
-102 69 l-12 7 -6 -11z"/>
<path d="M44210 60727 c0 -6 289 -328 337 -377 l15 -15 -3 12 c-4 13 -291 334
-329 368 -11 10 -20 15 -20 12z"/>
<path d="M61354 60603 c3 -10 46 -213 95 -452 50 -238 93 -436 97 -440 l7 -6
-5 25 c-2 14 -45 220 -94 457 l-89 433 -8 0 -8 0 5 -17z"/>
<path d="M43281 60366 l-13 -16 87 -97 c47 -54 186 -211 308 -350 l222 -251
14 14 15 13 -16 18 c-45 53 -564 642 -583 661 l-22 23 -12 -15z"/>
<path d="M63525 60260 c38 -191 89 -417 96 -424 l8 -9 -5 19 c-2 10 -22 105
-44 209 -23 105 -45 199 -51 210 l-10 20 6 -25z"/>
<path d="M63564 60265 c3 -11 46 -213 97 -449 51 -235 95 -424 97 -418 4 14
-175 841 -188 867 l-10 20 4 -20z"/>
<path d="M58642 60190 c-18 -4 -36 -10 -39 -14 l-6 -6 38 3 37 2 34 -60 c53
-95 264 -558 374 -823 23 -56 44 -101 47 -99 5 6 -128 327 -229 552 -78 173
-215 456 -221 454 -1 -1 -17 -5 -35 -9z"/>
<path d="M46361 60183 c6 -19 421 -524 426 -519 4 4 -374 474 -415 516 l-14
15 3 -12z"/>
<path d="M46982 59410 l-12 -20 0 -27 0 -27 9 10 c8 9 25 84 19 84 -2 0 -9 -9
-16 -20z"/>
<path d="M63720 59369 c0 -8 19 -106 42 -219 l41 -205 10 -10 9 -10 -5 20 c-3
11 -25 112 -48 225 -39 193 -49 233 -49 199z"/>
<path d="M61965 58620 c-257 -54 -645 -151 -645 -162 l0 -6 188 49 c103 27
297 72 432 99 135 28 254 55 265 60 l20 9 -15 -1 c-8 0 -118 -22 -245 -48z"/>
<path d="M62194 58623 c3 -10 19 -94 36 -188 17 -93 35 -176 40 -185 l9 -15 1
11 c0 11 -41 239 -61 342 l-10 52 -10 0 -10 0 5 -17z"/>
<path d="M61530 58478 c-107 -27 -195 -50 -196 -51 -4 -4 74 -369 80 -374 l6
-6 0 7 c0 4 -16 86 -36 182 -20 97 -34 178 -31 181 3 3 95 27 204 55 109 27
200 51 202 54 11 11 -49 -2 -229 -48z"/>
<path d="M63940 58476 c0 -8 218 -1077 317 -1556 25 -124 48 -227 50 -229 1
-2 6 -2 9 1 l5 6 -46 213 c-25 118 -108 517 -185 888 -120 582 -150 715 -150
677z"/>
<path d="M55475 58425 c38 -15 410 -114 413 -110 6 6 3 7 -206 65 -101 27
-191 50 -200 49 l-17 -1 10 -3z"/>
<path d="M59985 58363 c6 -6 88 -39 183 -74 l174 -64 13 -32 13 -31 32 -7 32
-7 24 23 24 22 -6 36 -6 36 194 39 193 39 10 9 10 9 -25 -5 c-14 -3 -104 -22
-200 -41 -96 -20 -183 -38 -194 -41 l-18 -6 11 -11 11 -11 0 -26 0 -27 -17
-15 -18 -16 -20 8 c-12 4 -26 15 -33 23 l-13 15 11 7 10 6 -5 10 c-4 5 -14 9
-24 9 -9 0 -89 27 -177 59 -87 33 -168 63 -179 67 l-20 7 10 -10z"/>
<path d="M55905 58353 c12 -12 406 -116 412 -109 5 5 -46 20 -242 71 -77 20
-149 39 -160 42 l-20 5 10 -9z"/>
<path d="M49485 58290 c11 -4 92 -36 180 -70 l160 -61 63 -36 64 -35 5 6 c4 3
4 8 2 10 -19 18 -462 197 -484 195 -5 0 -1 -4 10 -9z"/>
<path d="M63995 58008 c3 -13 43 -214 90 -447 47 -233 88 -427 91 -430 l7 -6
-5 25 c-2 14 -42 217 -88 453 l-84 427 -8 0 -8 0 5 -22z"/>
<path d="M55257 57760 c-224 -27 -413 -51 -420 -54 l-12 -4 20 -1 c36 -1 856
97 862 103 l6 6 -24 -1 c-13 -1 -208 -23 -432 -49z"/>
<path d="M55466 57744 c-98 -13 -184 -25 -190 -28 l-11 -4 19 -1 c28 -1 419
49 425 54 8 9 -64 3 -243 -21z"/>
<path d="M54090 57324 c0 -15 194 -426 197 -417 3 8 -182 410 -193 422 -2 2
-4 0 -4 -5z"/>
<path d="M53031 57246 c2 -2 199 -102 438 -221 l433 -216 6 6 c3 3 3 7 1 9 -2
2 -193 98 -423 215 l-420 211 -20 0 c-10 0 -17 -2 -15 -4z"/>
<path d="M76430 56823 c-1 -10 -7 -67 -14 -128 -13 -108 -13 -125 1 -111 6 6
31 190 33 239 l0 17 -10 0 -10 0 0 -17z"/>
<path d="M54434 56632 c4 -7 13 -12 20 -12 7 0 25 -9 39 -20 14 -11 31 -20 38
-20 l14 0 -25 25 -25 25 -34 6 -34 7 7 -11z"/>
<path d="M37334 56448 c-32 -95 -62 -197 -68 -227 l-11 -54 -60 -17 c-33 -9
-116 -38 -185 -65 l-125 -48 12 -4 11 -4 142 56 c78 30 159 58 180 61 l38 6 7
47 c3 25 34 128 67 229 33 101 58 186 55 188 -3 3 -31 -73 -63 -168z"/>
<path d="M79474 56551 l-39 -28 -80 -31 -80 -31 26 -1 27 0 73 34 c41 19 85
44 99 55 l25 20 -6 5 -5 6 -40 -29z"/>
<path d="M90616 56492 l-6 -5 112 -49 c62 -26 148 -66 191 -89 l77 -40 0 8 c0
11 -154 89 -277 142 l-92 39 -5 -6z"/>
<path d="M79045 56460 l-6 -9 23 -6 c13 -2 43 -9 67 -14 l45 -10 83 6 82 6 -6
10 -6 9 -75 -4 -75 -5 -41 8 c-23 5 -51 11 -63 14 l-22 5 -6 -10z"/>
<path d="M79044 56421 l6 -9 20 5 c28 7 25 13 -6 13 l-25 0 5 -9z"/>
<path d="M64430 56242 l35 -17 3 -33 3 -34 -17 -19 -17 -19 -33 0 -33 0 -6 10
c-3 6 -12 10 -18 10 l-12 -1 24 -20 24 -20 31 7 31 6 23 21 23 22 -6 35 -6 35
-21 18 -20 17 -22 0 -21 0 35 -18z"/>
<path d="M788 56142 l-198 -15 0 -15 0 -15 48 6 c26 3 127 12 225 18 l177 13
0 13 0 13 -27 -1 c-16 -1 -117 -9 -225 -17z"/>
<path d="M63062 55910 l0 -25 5 13 c2 6 2 18 0 25 l-5 12 0 -25z"/>
<path d="M63017 55900 c3 -11 9 -20 13 -20 l8 0 -5 20 c-3 11 -9 20 -13 20
l-8 0 5 -20z"/>
<path d="M62475 55748 c-291 -61 -532 -112 -534 -114 -2 -2 -2 -7 2 -10 l5 -6
294 61 c161 33 409 84 551 113 l257 52 0 8 0 8 -22 -1 c-13 -1 -261 -51 -553
-111z"/>
<path d="M91760 55825 c0 -6 228 -177 270 -201 19 -12 52 -31 73 -43 l37 -23
0 10 0 10 -72 40 -73 40 -110 86 c-101 79 -125 94 -125 81z"/>
<path d="M25990 55663 c0 -9 366 -276 474 -346 l58 -38 6 5 c7 7 13 3 -83 66
-44 30 -159 111 -255 180 -96 69 -181 129 -187 134 l-13 7 0 -8z"/>
<path d="M61910 55554 c0 -5 14 -99 31 -209 l32 -200 9 -10 9 -10 -5 25 c-4
14 -20 110 -37 215 -26 164 -38 224 -39 189z"/>
<path d="M61870 55544 c0 -5 14 -97 31 -204 l32 -195 9 -10 9 -10 -5 25 c-3
14 -20 108 -36 210 -27 160 -39 218 -40 184z"/>
<path d="M48431 54908 c6 -28 234 -496 237 -488 3 8 -223 488 -235 500 -3 3
-4 -3 -2 -12z"/>
<path d="M50298 54578 l-67 -73 -6 -23 -6 -24 45 -60 45 -61 138 -119 138
-119 58 -36 58 -35 6 6 c8 7 13 3 -72 56 l-70 43 -115 99 -115 98 -52 67 -51
67 13 26 c7 14 43 55 78 93 l65 67 -11 0 c-6 0 -42 -33 -79 -72z"/>
<path d="M18067 54613 c-4 -7 158 -428 170 -442 1 -2 6 -1 10 2 l7 7 -88 220
c-48 121 -89 220 -91 220 -2 0 -6 -3 -8 -7z"/>
<path d="M51180 54616 c0 -7 301 -238 306 -234 4 5 -290 238 -300 238 -3 0 -6
-2 -6 -4z"/>
<path d="M51885 54403 c-165 -215 -178 -233 -168 -232 4 0 24 21 43 47 20 26
85 111 144 190 60 78 107 144 105 147 -3 2 -59 -66 -124 -152z"/>
<path d="M50121 54533 c-1 -7 4 -44 11 -83 l12 -70 26 -24 25 -23 48 -16 47
-16 0 8 0 8 -45 13 -46 13 -23 28 -24 28 -7 53 c-4 29 -11 62 -16 73 l-8 20 0
-12z"/>
<path d="M52801 54294 c-77 -118 -141 -221 -141 -227 l0 -12 20 30 c120 177
272 417 268 420 -3 3 -69 -92 -147 -211z"/>
<path d="M85140 54446 l-165 -43 -67 -31 c-38 -17 -68 -33 -68 -36 0 -6 20 1
100 37 l55 24 155 38 c85 21 159 42 165 46 l9 9 -9 -1 c-6 0 -84 -20 -175 -43z"/>
<path d="M52785 54094 c-239 -361 -283 -435 -316 -533 -23 -65 -23 -67 -4 -51
l15 12 0 18 c0 9 22 61 49 116 l48 99 227 344 c125 189 225 346 222 348 -3 3
-111 -156 -241 -353z"/>
<path d="M22636 54023 c-86 -91 -155 -168 -153 -170 3 -2 38 31 78 74 41 43
114 119 163 170 l90 93 -11 0 -12 0 -155 -167z"/>
<path d="M62131 54168 c-1 -21 87 -450 94 -457 3 -2 5 0 5 5 0 12 -89 446 -94
459 l-4 10 -1 -17z"/>
<path d="M49150 53669 c-222 -109 -409 -200 -415 -203 -5 -2 -8 -6 -5 -8 4 -5
817 385 829 398 21 21 -59 -16 -409 -187z"/>
<path d="M52310 53693 c0 -9 65 -53 77 -53 9 0 -32 35 -59 51 l-18 10 0 -8z"/>
<path d="M50392 53525 c11 -30 119 -245 123 -245 11 0 -84 205 -109 235 -10
11 -16 16 -14 10z"/>
<path d="M64985 53309 c-148 -32 -337 -69 -420 -84 -177 -30 -199 -35 -193
-40 10 -10 871 156 887 171 14 13 -31 5 -274 -47z"/>
<path d="M52448 53266 l-17 -24 -91 -7 -90 -7 0 -7 0 -7 92 9 93 9 13 10 c7 6
18 20 23 30 l10 18 -8 0 c-4 0 -16 -11 -25 -24z"/>
<path d="M52470 53236 l-35 -34 -77 -7 -78 -7 0 12 0 11 -15 -15 c-18 -18 -19
-27 -2 -20 l13 5 53 -118 c29 -65 69 -146 88 -181 l35 -64 -5 -19 -5 -19 9 6
c5 3 9 14 9 25 l0 20 -27 47 c-23 38 -143 288 -143 297 0 1 36 6 80 9 l80 7
30 32 c26 27 37 47 27 47 -1 0 -18 -15 -37 -34z"/>
<path d="M52160 53190 c-8 -5 -12 -11 -9 -14 2 -3 11 -1 19 4 8 5 12 11 9 14
-2 3 -11 1 -19 -4z"/>
<path d="M12890 53008 c-58 -83 -108 -157 -113 -164 l-7 -13 8 -5 8 -5 46 67
c25 37 78 113 117 170 l72 102 -13 0 -13 0 -105 -152z"/>
<path d="M81540 52542 c8 -5 168 -55 356 -111 187 -55 380 -117 430 -136 49
-19 93 -34 98 -32 24 8 -651 225 -879 283 l-20 5 15 -9z"/>
<path d="M22517 52318 l-47 -113 -37 -157 -36 -156 13 -31 c7 -18 15 -29 18
-27 2 3 -1 18 -7 34 l-12 29 40 161 41 161 40 93 40 93 17 13 17 12 -20 0 -20
0 -47 -112z"/>
<path d="M78040 52398 c0 -13 149 -429 156 -437 2 -2 7 -2 10 2 l6 6 -76 209
c-42 115 -76 214 -76 221 0 6 -4 11 -10 11 l-10 0 0 -12z"/>
<path d="M22410 51800 l0 -13 7 6 6 7 -6 7 -7 6 0 -13z"/>
<path d="M88275 51434 c-192 -146 -356 -272 -364 -279 l-15 -15 6 -5 5 -5 364
275 c200 151 366 280 367 285 l4 10 -9 0 c-4 -1 -165 -120 -358 -266z"/>
<path d="M22380 51640 l0 -13 7 6 6 7 -6 7 -7 6 0 -13z"/>
<path d="M34190 51420 l0 -10 29 0 30 0 6 -10 6 -10 10 6 10 6 -12 14 -11 14
-34 0 -34 0 0 -10z"/>
<path d="M22310 51349 c-30 -27 -85 -70 -122 -94 l-68 -45 0 -11 0 -10 13 7
c104 63 247 177 247 197 0 15 -17 5 -70 -44z"/>
<path d="M33484 51260 c4 -19 20 -141 36 -270 33 -254 148 -1001 155 -1009 10
-10 3 47 -54 409 -33 206 -74 490 -92 630 l-32 255 -9 10 -10 10 6 -35z"/>
<path d="M18277 50858 c-8 -12 -33 -54 -55 -93 -22 -38 -70 -108 -106 -154
-58 -74 -75 -101 -63 -101 2 0 35 39 72 87 l68 87 54 94 c30 51 52 96 50 99
-3 2 -12 -6 -20 -19z"/>
<path d="M33571 50379 c-1 -3 13 -93 30 -200 28 -178 39 -231 39 -185 0 64
-65 424 -69 385z"/>
<path d="M30527 50130 c3 -80 9 -181 13 -225 l8 -80 -5 180 c-3 99 -9 200 -13
225 l-8 45 5 -145z"/>
<path d="M34310 50094 c0 -10 66 -97 89 -118 l21 -19 6 6 7 6 -36 40 c-19 22
-43 51 -52 65 -16 24 -35 35 -35 20z"/>
<path d="M12250 49703 c-1 -5 -16 -114 -34 -243 -19 -129 -32 -237 -30 -239
11 -12 20 29 50 241 39 273 36 248 24 248 -5 0 -10 -3 -10 -7z"/>
<path d="M28353 49683 l7 -6 7 6 6 7 -13 0 -13 0 6 -7z"/>
<path d="M36030 49444 c0 -5 12 -85 26 -179 l27 -170 9 -10 9 -10 -5 25 c-3
14 -17 97 -31 184 -22 137 -35 195 -35 160z"/>
<path d="M34070 48617 c-102 -5 -187 -11 -189 -13 -14 -13 31 -14 255 -4 l249
12 20 8 20 9 -85 -1 c-47 -1 -168 -5 -270 -11z"/>
<path d="M34485 48590 l-6 -10 20 0 20 0 6 10 6 10 -20 0 -20 0 -6 -10z"/>
<path d="M34249 48586 c-2 -3 -85 -7 -183 -10 -98 -3 -181 -8 -185 -11 l-5 -6
10 -7 10 -7 28 -200 28 -200 9 -9 9 -10 0 15 c0 7 -13 102 -29 209 -16 107
-28 196 -26 198 1 1 108 7 236 13 l234 11 25 8 25 8 -91 1 c-50 1 -93 -1 -95
-3z"/>
<path d="M33853 48550 c3 -14 18 -114 33 -222 l27 -198 7 0 6 0 -30 214 -31
214 -9 9 -9 8 6 -25z"/>
<path d="M20131 48176 c8 -8 411 -107 416 -102 6 5 -5 8 -234 65 -154 39 -192
46 -182 37z"/>
<path d="M28618 48076 l-196 -11 -9 -9 -8 -9 60 6 c33 4 132 9 220 13 l160 7
20 8 20 8 -35 -1 c-19 -1 -124 -6 -232 -12z"/>
<path d="M48320 47896 c0 -5 49 -56 108 -114 l109 -107 38 -58 c21 -31 40 -55
43 -52 8 7 -61 104 -115 161 -66 71 -183 179 -183 170z"/>
<path d="M38445 47467 c-210 -41 -222 -44 -214 -51 5 -5 450 82 457 89 10 10
-35 3 -243 -38z"/>
<path d="M37302 47422 l-243 -15 8 -7 8 -7 284 18 c156 10 286 20 289 23 l5 6
-54 -2 c-30 0 -163 -8 -297 -16z"/>
<path d="M37329 47384 c-114 -7 -220 -14 -235 -17 l-29 -4 50 -1 c74 -2 516
26 523 32 l5 6 -54 -1 c-30 -1 -147 -8 -260 -15z"/>
<path d="M33004 47155 c4 -22 11 -76 16 -119 l10 -80 -7 -7 -8 -7 -250 -11
c-137 -6 -292 -14 -342 -18 l-93 -6 0 -9 0 -10 73 6 c39 3 160 11 267 16 107
6 232 13 278 17 l83 6 5 9 6 9 -12 112 -12 112 -10 10 -9 10 5 -40z"/>
<path d="M20577 46699 l-18 -61 -47 -50 -47 -50 -85 -44 c-106 -54 -92 -57 21
-5 l84 39 37 39 37 38 17 40 c9 22 20 57 24 78 l7 37 -6 0 c-3 0 -14 -27 -24
-61z"/>
<path d="M44295 45298 c-11 -7 -45 -18 -75 -25 l-55 -13 -85 0 c-47 -1 -103
-5 -125 -9 l-40 -9 75 -1 c41 0 115 4 164 9 l90 11 43 19 c24 10 43 21 43 24
0 9 -13 7 -35 -6z"/>
<path d="M44936 44793 c-4 -49 -9 -117 -12 -152 l-6 -63 11 6 11 7 1 72 c0 40
4 105 8 145 l7 72 -7 0 -7 0 -6 -87z"/>
<path d="M11180 43156 c-12 -34 -13 -46 -1 -46 l9 0 7 31 7 30 -6 6 -5 6 -11
-27z"/>
<path d="M46645 42643 c-159 -85 -366 -194 -460 -242 -93 -49 -226 -120 -295
-158 l-125 -70 -3 -33 c-2 -19 0 -50 4 -69 l8 -36 6 65 5 65 150 83 c83 47
341 185 575 309 234 124 427 227 429 229 22 21 -46 -12 -294 -143z"/>
<path d="M30095 42475 c5 -11 16 -57 26 -101 l17 -82 7 -126 7 -126 10 0 9 0
-5 18 c-2 9 -8 73 -11 142 l-7 125 -19 75 -19 74 -12 11 -11 10 8 -20z"/>
<path d="M48366 41259 c-70 -94 -130 -177 -133 -185 l-5 -14 13 0 14 0 132
174 132 174 -12 11 -13 10 -128 -170z"/>
<path d="M30336 41084 l-300 -224 -80 -26 -80 -25 -97 -1 -97 0 -59 33 c-32
18 -119 79 -194 135 l-137 103 -38 16 c-56 24 -170 52 -236 58 l-58 6 0 -9 c0
-10 36 -20 75 -20 36 0 155 -31 207 -53 l37 -15 139 -105 139 -105 64 -33 64
-33 96 1 95 0 85 28 84 27 295 221 c162 121 297 221 299 223 1 1 1 7 0 13 l-4
10 -299 -225z"/>
<path d="M84815 39969 c5 -8 50 -75 100 -149 51 -74 167 -260 260 -412 93
-153 170 -276 173 -273 12 12 -497 821 -530 841 l-11 7 8 -14z"/>
<path d="M84780 39956 c0 -4 39 -65 87 -134 47 -70 165 -257 261 -417 191
-317 180 -300 186 -294 11 10 -472 784 -525 844 l-9 9 0 -8z"/>
<path d="M60223 38358 c-28 -41 -82 -107 -120 -147 -37 -41 -74 -82 -81 -92
l-13 -19 9 0 c11 0 163 174 221 253 l42 58 -3 10 -3 10 -52 -73z"/>
<path d="M85130 37825 c0 -4 53 -95 117 -201 l118 -193 9 9 8 8 -113 188 -114
188 -12 4 -13 4 0 -7z"/>
<path d="M86644 37612 c-55 -37 -120 -83 -145 -103 -24 -20 -162 -114 -307
-209 -144 -95 -261 -175 -258 -177 6 -6 555 354 591 387 17 16 80 60 140 99
l110 71 -15 -1 c-8 0 -60 -31 -116 -67z"/>
<path d="M86187 37247 c-125 -82 -226 -152 -223 -154 3 -3 105 61 228 142 243
161 233 153 227 159 -2 2 -107 -64 -232 -147z"/>
<path d="M57834 37276 l-6 -17 6 -6 c3 -4 93 -57 199 -119 l192 -113 13 17 12
16 -7 7 c-11 10 -368 218 -387 225 l-16 6 -6 -16z"/>
<path d="M83030 37131 c-63 -39 -127 -73 -141 -76 l-26 -6 -42 65 -43 66 -9
-6 -9 -5 47 -70 47 -71 31 6 30 6 118 72 c65 39 120 75 123 80 l5 8 -8 0 c-5
0 -60 -31 -123 -69z"/>
<path d="M88101 35885 c-188 -116 -208 -131 -200 -140 5 -5 354 208 378 231
42 39 -13 11 -178 -91z"/>
<path d="M84859 35574 c-30 -20 -135 -88 -234 -151 -99 -64 -187 -122 -195
-130 l-15 -15 23 12 c13 6 99 60 190 119 92 59 195 124 228 144 l62 37 18 0
c30 -1 47 -20 97 -110 l48 -85 53 -66 53 -66 94 -156 c52 -86 97 -157 101
-157 9 0 -189 323 -240 392 -21 29 -63 95 -91 145 l-52 93 -22 15 -21 15 -22
0 -22 0 -53 -36z"/>
<path d="M41608 34705 l76 -225 8 0 7 0 -77 225 c-42 124 -80 225 -84 225 l-7
0 77 -225z"/>
<path d="M81807 34795 c23 -27 62 -70 88 -95 26 -25 77 -85 114 -135 38 -49
79 -99 92 -110 l24 -20 -21 25 c-11 14 -48 63 -82 110 l-61 85 -97 95 -97 95
40 -50z"/>
<path d="M59462 34478 c-99 -62 -179 -114 -177 -116 2 -3 80 44 173 102 93 58
174 106 180 106 6 0 14 5 17 10 l6 10 -9 0 c-5 0 -90 -51 -190 -112z"/>
<path d="M57650 34030 l30 -60 19 0 18 0 59 -130 c32 -71 60 -128 62 -125 2 2
-22 62 -55 134 l-58 130 -20 3 -20 3 -25 52 c-14 29 -28 52 -33 53 l-7 0 30
-60z"/>
<path d="M87261 33959 c-96 -60 -177 -112 -180 -116 l-6 -6 20 7 c33 12 345
209 345 218 0 11 17 21 -179 -103z"/>
<path d="M63895 33899 l-7 -11 8 -7 c5 -5 85 -54 178 -110 l169 -103 8 13 8
13 -147 89 c-81 49 -161 98 -179 108 l-31 20 -7 -12z"/>
<path d="M60235 33465 c-82 -30 -183 -61 -222 -71 l-73 -18 0 -14 0 -14 38 7
c20 3 122 34 227 69 l190 62 3 17 3 17 -8 -1 c-4 -1 -75 -25 -158 -54z"/>
<path d="M34165 33334 c-76 -58 -152 -113 -167 -122 -15 -9 -28 -20 -28 -25
l0 -8 13 7 c41 26 201 143 326 241 2 2 2 5 0 7 -2 3 -67 -43 -144 -100z"/>
<path d="M83482 33233 l-184 -125 6 -5 6 -6 185 123 c160 107 208 144 178 139
-5 -1 -90 -57 -191 -126z"/>
<path d="M13867 27906 l-5 -13 234 -33 235 -33 11 11 11 11 -34 5 c-19 3 -117
17 -219 31 -102 14 -195 28 -206 30 l-22 5 -5 -14z"/>
<path d="M95307 26779 l-187 -138 7 -4 8 -5 170 124 c174 128 202 151 194 157
-2 3 -88 -58 -192 -134z"/>
<path d="M87970 24927 c0 -3 14 -38 31 -78 l32 -74 77 -113 78 -113 7 11 6 10
-75 110 -76 110 -28 67 -28 67 -12 4 c-7 2 -12 2 -12 -1z"/>
<path d="M90330 19931 c0 -5 41 -157 90 -337 50 -181 113 -419 141 -529 27
-110 64 -248 81 -307 l31 -108 8 0 c12 0 12 6 -11 80 -12 36 -46 164 -76 285
-30 121 -95 366 -144 545 -48 179 -91 337 -94 353 l-6 27 -10 0 c-6 0 -10 -4
-10 -9z"/>
<path d="M15593 18588 c3 -18 16 -122 28 -230 21 -179 31 -232 42 -218 2 3 -9
109 -24 235 -16 127 -28 233 -29 238 0 4 -5 7 -11 7 l-11 0 5 -32z"/>
<path d="M24968 4342 c-133 -162 -149 -184 -131 -189 l8 -2 140 171 c77 94
142 175 143 180 l4 8 -14 0 -13 0 -137 -168z"/>
</g>
</svg>
