<?xml version="1.0" standalone="no"?>
<!DOCTYPE svg PUBLIC "-//W3C//DTD SVG 20010904//EN"
 "http://www.w3.org/TR/2001/REC-SVG-20010904/DTD/svg10.dtd">
<svg version="1.0" xmlns="http://www.w3.org/2000/svg"
 width="7500.000000pt" height="7500.000000pt" viewBox="0 0 7500.000000 7500.000000"
 preserveAspectRatio="xMidYMid meet">
<metadata>
Created by potrace 1.16, written by Peter Selinger 2001-2019
</metadata>
<g transform="translate(0.000000,7500.000000) scale(0.075000,-0.075000)"
fill="#000000" stroke="none">
<path d="M89446 99771 c5 -5 98 -44 206 -86 l197 -77 13 4 13 5 -208 81 c-115
45 -213 82 -220 82 l-11 0 10 -9z"/>
<path d="M84333 98843 l-173 -3 0 -10 0 -10 53 0 c28 0 116 3 195 7 l142 6 0
9 0 8 -22 -2 c-13 -1 -101 -4 -195 -5z"/>
<path d="M27190 98231 l0 -11 195 -130 195 -130 0 12 0 13 -166 110 c-92 61
-179 118 -195 128 l-29 19 0 -11z"/>
<path d="M88240 96294 l0 -9 148 -54 c81 -29 259 -100 395 -158 137 -58 250
-103 253 -101 5 5 -459 201 -631 266 -71 27 -138 53 -147 57 l-18 7 0 -8z"/>
<path d="M15842 96138 l4 -13 125 -51 c68 -27 143 -58 167 -67 l42 -17 0 8 0
8 -160 64 c-88 36 -160 68 -160 72 0 5 -5 8 -11 8 l-11 0 4 -12z"/>
<path d="M16210 95936 c25 -12 122 -61 215 -110 94 -48 162 -81 152 -72 -30
23 -382 206 -398 205 l-14 0 45 -23z"/>
<path d="M87636 93726 l-46 -84 -85 -105 c-47 -59 -85 -109 -85 -112 0 -18 25
6 91 88 90 110 105 132 152 219 l36 67 -9 6 -8 5 -46 -84z"/>
<path d="M87684 93177 c-71 -73 -145 -150 -164 -172 -19 -22 42 35 135 127 93
92 167 169 164 172 -3 3 -63 -54 -135 -127z"/>
<path d="M52290 92742 c0 -5 92 -46 205 -91 l206 -84 6 6 6 6 -28 11 c-15 6
-100 40 -188 76 -89 36 -172 70 -184 75 l-23 9 0 -8z"/>
<path d="M94970 90801 l0 -22 29 -42 c16 -24 49 -61 74 -84 l45 -42 59 -29
c83 -42 213 -95 219 -89 3 2 -33 19 -78 38 -46 18 -110 49 -143 68 l-60 34
-48 46 -48 46 -24 49 -25 50 0 -23z"/>
<path d="M37230 89774 c0 -8 2 -14 4 -14 6 0 396 -80 424 -87 l22 -5 0 13 0
14 -225 46 -225 46 0 -13z"/>
<path d="M55144 89710 l6 -39 34 -74 c26 -58 136 -256 153 -276 2 -3 8 0 15 7
l11 11 -55 93 c-57 95 -138 272 -138 302 l0 16 -16 0 -17 0 7 -40z"/>
<path d="M94370 89195 c0 -5 13 -23 30 -40 l29 -30 -20 -45 c-11 -25 -31 -83
-45 -129 l-24 -83 1 -42 1 -41 13 60 c21 97 52 200 69 233 9 17 16 37 16 45
l0 13 -35 34 c-19 19 -35 30 -35 25z"/>
<path d="M86360 88980 c41 -5 125 -11 185 -15 l110 -6 65 10 65 9 -135 -1
c-74 0 -187 2 -250 5 l-115 6 75 -8z"/>
<path d="M84663 88842 c-117 -25 -213 -49 -213 -52 l0 -7 213 46 c116 24 214
46 216 48 16 12 -29 5 -216 -35z"/>
<path d="M84590 88785 l-285 -64 -115 -12 c-141 -14 -161 -24 -30 -15 l95 7
310 66 c171 36 314 69 320 74 l9 9 -9 -1 c-6 0 -138 -29 -295 -64z"/>
<path d="M78540 88652 l0 -10 73 -26 c327 -118 1233 -433 1236 -430 3 3 0 8
-5 13 -5 5 -295 109 -644 231 -349 123 -641 225 -647 228 l-13 4 0 -10z"/>
<path d="M78964 88448 c-3 -5 -4 -11 -3 -12 2 -2 96 -35 208 -74 112 -39 205
-73 207 -75 2 -2 -13 -103 -35 -225 l-38 -221 12 -5 12 -4 38 224 c21 123 41
224 44 224 3 0 98 -33 211 -74 113 -40 207 -71 209 -69 12 9 -29 27 -214 92
l-200 71 -3 10 -4 10 -22 0 -23 0 -197 69 -197 68 -5 -9z"/>
<path d="M80690 87893 l0 -8 199 -69 200 -68 13 5 13 5 -15 6 c-45 17 -393
136 -401 136 -5 0 -9 -3 -9 -7z"/>
<path d="M83192 86960 l4 -12 199 -73 c110 -39 202 -70 204 -68 12 9 -28 27
-194 87 -99 35 -188 68 -199 72 l-19 7 5 -13z"/>
<path d="M83691 86956 c3 -3 80 -26 173 -51 92 -25 175 -49 184 -52 l17 -6
-10 10 -10 11 -168 46 c-157 43 -196 52 -186 42z"/>
<path d="M83681 86916 c2 -2 65 -21 139 -41 74 -20 156 -43 183 -50 l47 -14 0
7 0 7 -177 48 c-167 45 -202 53 -192 43z"/>
<path d="M80401 85780 c-1 -3 -35 -99 -76 -215 l-75 -209 4 -10 4 -11 6 15 c3
8 37 104 76 213 l71 198 -5 12 c-2 7 -5 10 -5 7z"/>
<path d="M88301 84916 c9 -9 441 -127 451 -124 6 2 -90 32 -213 66 -210 59
-248 68 -238 58z"/>
<path d="M83000 83931 c0 -5 6 -14 14 -20 l14 -12 7 11 6 10 -6 10 c-3 6 -13
10 -21 10 l-14 0 0 -9z"/>
<path d="M83055 83850 l-6 -10 10 0 c6 0 11 5 11 10 0 6 -2 10 -4 10 -3 0 -8
-4 -11 -10z"/>
<path d="M82107 83413 c-12 -11 -8 -23 8 -23 l15 0 0 15 c0 16 -12 20 -23 8z"/>
<path d="M56786 83191 l-6 -8 30 -88 29 -87 32 -51 c18 -29 59 -84 91 -124
l60 -72 14 6 15 5 -14 17 c-7 9 -33 41 -58 71 -25 30 -61 82 -81 115 l-35 60
-29 82 c-28 80 -37 93 -48 74z"/>
<path d="M95869 81014 c-57 -81 -108 -153 -112 -161 l-8 -13 9 0 c5 0 53 64
108 142 115 165 117 168 111 174 -3 3 -51 -61 -108 -142z"/>
<path d="M42550 80837 c0 -7 15 -59 34 -115 l35 -102 7 -105 7 -105 13 0 c8 0
14 3 14 8 0 4 -5 52 -10 106 l-10 100 -37 113 -37 113 -8 0 c-4 0 -8 -6 -8
-13z"/>
<path d="M98782 79390 c-51 -111 -91 -205 -88 -207 6 -6 15 11 107 213 44 97
78 181 76 187 -1 5 -44 -82 -95 -193z"/>
<path d="M30297 77388 c10 -55 10 -121 0 -230 l-8 -88 9 0 9 0 11 113 11 112
-5 35 c-3 19 -7 50 -10 68 l-5 32 -10 0 -9 0 7 -42z"/>
<path d="M74103 77268 c-27 -30 -93 -134 -93 -148 0 -5 3 -10 8 -10 10 1 113
162 109 173 l-2 8 -22 -23z"/>
<path d="M74608 76773 l-18 -4 0 -15 0 -15 38 7 c20 4 40 9 45 11 l7 4 -5 10
-6 9 -22 -1 c-12 -1 -30 -3 -39 -6z"/>
<path d="M74380 76543 c0 -5 52 -38 115 -75 l114 -66 6 6 5 6 -62 36 c-35 20
-89 51 -120 69 l-58 32 0 -8z"/>
<path d="M4790 75097 l0 -13 238 -37 c328 -52 492 -75 595 -83 l87 -7 0 11 0
11 -42 5 c-232 27 -340 43 -571 81 -148 25 -277 45 -288 45 l-19 0 0 -13z"/>
<path d="M6640 74940 c0 -5 2 -10 4 -10 9 0 394 -40 424 -44 l32 -5 0 15 0 14
-12 0 c-7 0 -96 9 -198 20 -102 11 -200 20 -217 20 l-33 0 0 -10z"/>
<path d="M34127 73924 c-2 -3 55 -67 129 -143 l134 -138 77 -36 78 -36 188
-54 187 -55 0 12 0 12 -182 53 -183 53 -81 38 -81 39 -108 113 c-114 119 -149
151 -158 142z"/>
<path d="M21251 69164 c-96 -8 -176 -16 -179 -19 -14 -14 21 -14 204 0 109 8
211 15 227 15 l27 0 0 10 0 10 -52 -1 c-29 -1 -131 -8 -227 -15z"/>
<path d="M98155 66417 c-115 -33 -212 -62 -214 -64 -3 -2 0 -7 5 -12 l9 -9
185 54 c102 30 202 59 223 64 l37 11 0 9 0 10 -17 -1 c-10 0 -112 -28 -228
-62z"/>
<path d="M49155 65933 c18 -18 328 -235 344 -240 l16 -6 -10 10 c-19 18 -329
235 -345 241 l-15 5 10 -10z"/>
<path d="M49130 65907 l1 -12 107 -75 c58 -41 137 -96 174 -123 l68 -48 0 10
0 10 -175 125 -175 125 0 -12z"/>
<path d="M31180 65522 l0 -20 108 -6 c59 -4 161 -14 227 -22 66 -8 121 -14
122 -14 2 0 3 9 3 20 0 11 -1 20 -3 20 -1 0 -56 6 -122 14 -66 8 -168 18 -227
22 l-108 6 0 -20z"/>
<path d="M48120 65252 c1 -9 490 -222 490 -213 0 4 -87 45 -192 91 -106 46
-217 94 -245 107 l-53 23 0 -8z"/>
<path d="M27325 65060 c-77 -15 -169 -31 -205 -35 l-65 -7 -7 -11 c-4 -6 -4
-15 -2 -19 l5 -8 42 0 c44 1 383 62 392 72 l5 5 -6 17 c-3 9 -9 16 -13 15 -3
0 -69 -13 -146 -29z"/>
<path d="M31613 64944 l8 -8 219 -26 220 -26 0 8 0 8 -17 0 c-21 0 -338 37
-398 46 l-40 6 8 -8z"/>
<path d="M1045 64740 c-16 -4 -102 -13 -190 -20 -87 -6 -161 -13 -164 -15 -7
-8 54 -6 204 6 l140 12 40 12 40 13 -20 0 c-11 0 -33 -3 -50 -8z"/>
<path d="M41987 64528 c-65 -94 -116 -172 -113 -175 3 -4 205 278 239 334 l8
13 -8 0 c-4 -1 -61 -78 -126 -172z"/>
<path d="M37066 64582 c-3 -3 -6 -11 -6 -18 l0 -13 39 -11 c21 -6 113 -19 202
-30 90 -11 177 -22 192 -25 l28 -5 6 16 5 15 -5 6 c-3 3 -92 16 -198 29 -106
13 -207 28 -225 33 l-33 9 -5 -6z"/>
<path d="M36510 64551 c31 -19 220 -80 332 -106 l117 -27 13 5 13 5 -25 5
c-14 3 -78 18 -143 32 -65 15 -153 39 -195 55 -42 15 -88 31 -102 34 l-25 7
15 -10z"/>
<path d="M40686 64408 c19 -57 44 -134 54 -173 l18 -70 1 28 1 28 -47 144
c-26 80 -50 145 -54 145 l-8 0 35 -102z"/>
<path d="M80498 64305 l-6 -6 17 -42 c9 -23 53 -115 99 -205 l83 -163 10 6 10
7 -89 171 c-49 95 -95 187 -103 205 l-14 33 -7 -6z"/>
<path d="M1597 64284 l-6 -6 656 -581 c361 -320 660 -583 664 -585 l9 -4 0 10
c0 8 -1276 1146 -1305 1164 l-12 7 -6 -5z"/>
<path d="M40720 64150 l0 -10 30 0 30 0 0 10 0 10 -30 0 -30 0 0 -10z"/>
<path d="M41820 63915 l0 -15 22 0 c12 0 63 -15 113 -34 86 -33 343 -116 358
-116 4 0 7 7 7 15 l0 15 -16 0 c-8 0 -116 34 -239 75 -123 41 -229 75 -235 75
l-10 0 0 -15z"/>
<path d="M36920 63878 c0 -11 -70 -495 -76 -523 l-6 -30 10 10 9 10 37 264 37
263 -6 6 c-3 3 -5 3 -5 0z"/>
<path d="M41770 63626 c0 -5 24 -36 53 -70 29 -34 101 -124 159 -201 l106
-140 201 -225 201 -225 0 -12 0 -13 15 0 15 0 0 13 0 12 103 91 c56 51 146
129 200 174 53 45 97 86 97 91 0 11 -239 -191 -343 -290 l-68 -64 -29 29 c-15
16 -108 119 -206 229 l-177 200 -113 150 c-113 150 -214 268 -214 251z"/>
<path d="M41270 63574 c0 -9 233 -273 254 -286 26 -17 24 -6 -3 20 -16 15 -75
79 -131 142 -57 63 -107 119 -111 125 l-9 9 0 -10z"/>
<path d="M45537 63019 c-59 -99 -103 -179 -98 -177 6 1 55 78 109 170 55 92
103 171 107 177 l6 11 -8 0 c-4 0 -56 -82 -116 -181z"/>
<path d="M8726 63135 l-5 -15 22 -5 c24 -5 173 -25 188 -25 l9 0 0 15 c0 8 -2
15 -4 15 -11 0 -164 21 -182 25 l-22 5 -6 -15z"/>
<path d="M41545 63140 c3 -5 11 -10 16 -10 l10 0 -6 10 c-3 6 -11 10 -16 10
l-10 0 6 -10z"/>
<path d="M42732 62914 c-116 -103 -212 -191 -212 -195 0 -10 423 359 428 373
2 4 2 8 0 8 -2 0 -99 -84 -216 -186z"/>
<path d="M13595 63080 c-203 -7 -281 -16 -291 -31 l-5 -9 13 0 c7 0 29 4 48
10 l35 9 307 11 306 10 26 -10 26 -10 0 9 c0 23 -67 24 -465 11z"/>
<path d="M42225 63010 c16 -27 248 -285 258 -289 l12 -4 -26 29 c-14 16 -74
84 -133 152 -95 108 -131 144 -111 112z"/>
<path d="M16920 62895 c-85 -7 -168 -14 -185 -15 l-30 -2 13 -5 12 -5 233 17
c227 16 304 26 176 24 -35 -1 -134 -8 -219 -14z"/>
<path d="M58005 62409 c-115 -94 -212 -176 -214 -182 l-4 -11 49 39 c27 22
127 102 222 179 94 76 172 140 172 142 0 13 -35 -13 -225 -167z"/>
<path d="M89022 62421 c2 -5 81 -75 176 -156 l174 -146 11 4 11 3 -180 152
c-98 84 -183 152 -187 152 l-9 0 4 -9z"/>
<path d="M88992 62380 l4 -15 174 -147 173 -147 9 5 10 6 -9 7 c-41 36 -332
280 -347 291 l-19 15 5 -15z"/>
<path d="M63165 62009 c2 -15 59 -290 125 -611 65 -322 122 -604 126 -626 l7
-42 9 0 9 0 -5 18 c-3 9 -62 294 -131 632 -69 338 -130 624 -136 635 l-9 20 5
-26z"/>
<path d="M57330 61901 c0 -4 53 -31 118 -59 64 -28 243 -106 397 -173 154 -67
299 -130 323 -140 l42 -18 0 7 c0 4 -78 41 -173 82 -94 41 -278 121 -407 178
-129 57 -250 110 -267 117 l-33 14 0 -8z"/>
<path d="M43695 61643 c-126 -114 -232 -211 -234 -217 -5 -14 17 5 263 224
113 101 206 187 206 192 0 4 -1 8 -2 7 -2 0 -106 -93 -233 -206z"/>
<path d="M57761 61666 c10 -11 422 -187 430 -184 5 2 -87 45 -204 96 -189 82
-240 102 -226 88z"/>
<path d="M56277 61634 l-19 -25 7 -7 7 -7 19 24 c10 13 19 27 19 32 0 16 -15
9 -33 -17z"/>
<path d="M54625 61580 c-99 -21 -206 -43 -237 -50 l-58 -11 0 -11 0 -10 48 5
47 6 -75 -19 c-41 -11 -83 -19 -92 -20 l-18 0 0 -20 c0 -11 1 -20 3 -20 2 0
95 20 208 45 218 49 419 102 432 115 l9 8 -9 5 c-4 3 -24 8 -43 11 l-35 5
-180 -39z m160 9 c-33 -10 -67 -18 -75 -18 -21 1 90 37 115 37 l20 0 -60 -19z
m-115 -29 c-14 -4 -34 -8 -45 -8 l-20 0 25 8 c14 4 34 8 45 8 l20 0 -25 -8z
m-90 -20 c-14 -4 -34 -8 -45 -8 l-20 0 25 8 c14 4 34 8 45 8 l20 0 -25 -8z
m-90 -20 c-14 -4 -34 -8 -45 -8 l-20 0 25 8 c14 4 34 8 45 8 l20 0 -25 -8z"/>
<path d="M54920 61580 c-75 -21 -69 -25 13 -9 l57 12 0 8 c0 5 -1 9 -2 8 -2 0
-32 -9 -68 -19z"/>
<path d="M48371 61244 l-133 -216 9 -9 10 -10 10 13 c6 7 67 105 137 217 l126
203 -6 9 c-3 5 -8 9 -12 9 -4 0 -67 -97 -141 -216z"/>
<path d="M85846 60923 c10 -16 56 -89 102 -163 47 -74 104 -160 128 -191 42
-54 321 -359 330 -359 12 0 -7 23 -129 153 -160 170 -234 267 -346 450 l-84
137 -10 0 -9 0 18 -27z"/>
<path d="M79714 60777 l-162 -152 5 -8 4 -7 43 37 c112 98 287 263 287 270 1
23 -30 -2 -177 -140z"/>
<path d="M44201 60674 c112 -126 322 -354 325 -354 2 0 4 2 4 5 0 8 -332 370
-344 374 l-11 4 26 -29z"/>
<path d="M83215 60550 c-82 -48 -153 -94 -158 -102 l-9 -14 29 -47 29 -47 7 6
6 6 -24 37 c-14 19 -25 41 -25 47 l0 12 155 91 c141 83 170 103 148 100 -5 -1
-75 -41 -158 -89z"/>
<path d="M48237 60539 l18 -32 90 -71 c50 -39 120 -95 158 -125 l67 -53 0 9
c0 5 -65 60 -144 122 l-145 113 -23 34 c-13 19 -27 34 -31 34 l-8 0 18 -31z"/>
<path d="M58636 60229 c-59 -14 -57 -20 5 -13 l54 6 116 -238 c64 -132 168
-359 230 -506 63 -147 117 -268 121 -268 4 0 -8 35 -26 78 -19 42 -90 209
-160 370 l-126 294 -76 144 -76 144 -11 -1 c-7 -1 -30 -5 -51 -10z"/>
<path d="M61911 60189 c-2 -12 79 -383 84 -387 9 -10 5 16 -30 185 -30 144
-52 225 -54 202z"/>
<path d="M46125 59936 l-220 -214 5 -5 6 -6 219 219 c121 121 217 220 215 220
-3 0 -105 -96 -225 -214z"/>
<path d="M77854 60063 c3 -10 61 -243 130 -518 109 -435 233 -901 243 -914 2
-2 6 -1 10 2 l6 7 -56 208 c-31 114 -82 306 -113 427 -81 323 -184 724 -195
768 l-10 37 -10 0 -10 0 5 -17z"/>
<path d="M45391 59448 c85 -89 198 -205 252 -259 l99 -97 114 -82 115 -83 6 7
c4 3 4 7 2 9 -2 2 -59 42 -125 90 l-121 86 -240 246 c-132 135 -244 245 -248
245 -4 0 62 -73 146 -162z"/>
<path d="M45452 59328 l245 -253 123 -88 122 -88 6 6 6 6 -10 7 c-6 4 -63 44
-127 90 l-117 83 -237 245 c-130 134 -241 244 -246 244 -5 0 101 -114 235
-252z"/>
<path d="M83612 59478 c22 -40 69 -123 103 -183 73 -129 91 -163 296 -550 84
-159 163 -317 175 -350 l23 -60 0 20 c0 11 -10 45 -22 75 -56 135 -591 1120
-609 1120 -4 0 11 -33 34 -72z"/>
<path d="M49325 59067 c-165 -220 -313 -418 -329 -440 l-30 -40 11 4 c16 5
655 858 651 868 -2 5 -138 -172 -303 -392z"/>
<path d="M46982 59410 l-12 -20 0 -27 0 -27 9 10 c8 9 25 84 19 84 -2 0 -9 -9
-16 -20z"/>
<path d="M63810 58919 c0 -21 87 -449 164 -804 35 -165 94 -455 131 -645 36
-190 89 -448 116 -575 28 -126 71 -329 97 -450 l47 -220 3 17 c3 17 -38 220
-143 708 -31 140 -96 455 -145 700 -146 731 -258 1271 -264 1277 l-6 6 0 -14z"/>
<path d="M75554 58869 c-15 -24 -35 -61 -45 -83 l-19 -41 2 -135 2 -135 6 140
7 140 8 20 c5 11 24 44 42 74 19 29 32 55 29 58 -2 3 -17 -14 -32 -38z"/>
<path d="M61110 58411 c-211 -45 -234 -51 -228 -56 5 -6 417 81 425 89 l6 6
-14 -1 c-8 0 -93 -18 -189 -38z"/>
<path d="M46276 57971 l-6 -9 51 -63 c81 -102 210 -334 269 -484 28 -73 90
-196 75 -150 -79 243 -203 487 -326 643 l-57 73 -6 -10z"/>
<path d="M62603 57881 l-211 -46 -9 -9 -8 -9 15 5 c8 2 111 25 228 49 l212 44
0 7 c0 10 23 14 -227 -41z"/>
<path d="M81556 57644 c-98 -13 -181 -26 -184 -29 -3 -3 -2 -8 1 -12 l7 -6
183 22 c100 12 197 24 215 28 l32 5 0 9 0 9 -37 -1 c-21 -1 -118 -12 -217 -25z"/>
<path d="M46680 57200 l0 -13 7 6 6 7 -6 7 -7 6 0 -13z"/>
<path d="M46690 57170 l0 -13 7 6 6 7 -6 7 -7 6 0 -13z"/>
<path d="M61681 56805 c0 -5 10 -48 23 -95 13 -47 32 -140 42 -207 l19 -123 7
0 8 0 -5 23 c-2 12 -14 77 -25 145 l-21 122 -23 73 c-13 39 -24 68 -25 62z"/>
<path d="M84455 56650 c2 -3 63 -29 134 -56 l131 -49 32 -30 c18 -16 43 -43
56 -59 12 -16 25 -27 27 -24 3 3 -20 32 -52 64 l-58 60 -137 50 c-76 28 -136
48 -133 44z"/>
<path d="M79448 56580 l-38 -28 -97 -31 -98 -32 -70 -9 -70 -9 81 3 80 2 95
33 95 33 40 34 c47 40 34 44 -18 4z"/>
<path d="M64083 56087 c-139 -28 -253 -54 -253 -58 0 -7 518 95 527 105 l6 6
-14 -1 c-8 -1 -128 -24 -266 -52z"/>
<path d="M85993 56007 c-95 -51 -173 -95 -173 -99 0 -6 82 35 285 144 l90 48
-15 -1 c-8 0 -93 -42 -187 -92z"/>
<path d="M63783 56023 l7 -6 7 6 6 7 -13 0 -13 0 6 -7z"/>
<path d="M25510 55922 c0 -8 331 -219 358 -229 l17 -6 -15 15 c-14 15 -348
228 -356 228 -2 0 -4 -3 -4 -8z"/>
<path d="M46980 55720 l0 -13 7 6 6 7 -6 7 -7 6 0 -13z"/>
<path d="M25996 55651 c16 -15 405 -294 466 -333 32 -21 65 -38 74 -38 l15 0
58 -57 57 -58 87 -43 87 -42 88 -14 c48 -8 106 -17 130 -20 l42 -6 0 9 0 8
-72 7 c-40 4 -101 14 -134 22 l-61 14 -69 32 -69 31 -39 36 c-21 20 -50 48
-65 64 l-25 27 -16 0 -16 0 -100 68 c-54 37 -172 120 -261 185 -89 64 -168
117 -174 117 l-13 0 10 -9z"/>
<path d="M47000 55650 l0 -13 7 6 6 7 -6 7 -7 6 0 -13z"/>
<path d="M47030 55550 l0 -13 7 6 6 7 -6 7 -7 6 0 -13z"/>
<path d="M26575 55194 l-16 -25 20 11 21 11 0 14 c0 21 -5 19 -25 -11z"/>
<path d="M26477 55195 c8 -25 22 -35 48 -34 l20 0 -25 12 c-14 6 -31 18 -38
27 l-12 15 7 -20z"/>
<path d="M52341 54887 c29 -25 652 -437 655 -434 3 2 -62 49 -143 104 -81 55
-226 152 -320 217 -95 64 -178 116 -185 116 -6 0 -9 -2 -7 -3z"/>
<path d="M14000 54722 l-56 -107 -253 -368 c-139 -203 -251 -370 -249 -373 3
-2 120 163 260 368 l255 373 52 97 c29 54 51 102 49 107 l-3 10 -55 -107z"/>
<path d="M51940 54300 c-79 -105 -140 -193 -138 -196 3 -2 71 83 152 191 80
107 142 195 137 195 -5 0 -73 -86 -151 -190z"/>
<path d="M88166 54301 l6 -30 -21 -37 c-24 -39 -23 -48 2 -38 l17 6 11 37 11
37 -4 24 -3 23 -12 5 -13 4 6 -31z"/>
<path d="M84622 54197 c-122 -56 -218 -103 -213 -105 10 -3 421 184 435 198 6
6 8 10 6 10 -3 -1 -105 -47 -228 -103z"/>
<path d="M80804 54033 c2 -10 21 -81 41 -158 20 -77 39 -148 41 -158 l6 -19 5
6 6 6 -44 170 -44 170 -8 0 -8 0 5 -17z"/>
<path d="M21201 53936 c2 -2 58 -14 124 -25 l120 -21 73 -27 c40 -14 75 -30
78 -34 3 -5 13 -9 22 -9 l17 1 -35 19 c-19 11 -58 28 -86 39 l-50 19 -117 21
c-113 20 -155 25 -146 17z"/>
<path d="M13471 53873 c0 -10 348 -289 354 -285 13 7 -7 25 -166 153 -161 130
-190 150 -188 132z"/>
<path d="M77468 53633 l-188 -74 0 -8 0 -8 195 76 c107 42 195 79 195 84 0 11
-3 10 -202 -70z"/>
<path d="M53851 53318 c-89 -43 -161 -81 -159 -84 3 -2 83 34 179 80 96 47
167 85 159 84 -8 0 -89 -36 -179 -80z"/>
<path d="M52444 53265 l-21 -23 -87 -7 -86 -7 0 -7 0 -7 92 9 93 9 13 10 c7 6
18 20 23 30 l10 18 -8 -1 c-4 -1 -18 -11 -29 -24z"/>
<path d="M30212 53006 l-2 -88 -39 -47 c-21 -25 -52 -69 -69 -97 l-30 -51 -3
-47 -4 -46 7 0 8 0 0 37 0 36 31 56 c18 31 49 77 71 103 l39 47 -4 93 -3 93
-2 -89z"/>
<path d="M77750 52781 c-96 -37 -184 -71 -194 -75 l-19 -7 9 -9 10 -10 124 49
c69 26 158 60 198 75 l72 28 0 9 0 9 -12 -1 c-7 0 -92 -31 -188 -68z"/>
<path d="M85877 52750 c-35 -30 -47 -50 -29 -50 4 0 22 14 40 31 l33 30 -3 11
-4 11 -37 -33z"/>
<path d="M64623 52702 l-193 -36 0 -7 0 -7 18 4 c9 2 94 17 187 34 94 17 179
35 190 40 l20 9 -15 -1 c-8 0 -102 -17 -207 -36z"/>
<path d="M85945 52699 l-7 -40 6 -6 c10 -10 15 0 22 45 l7 42 -11 0 -10 0 -7
-41z"/>
<path d="M22522 52333 l-41 -98 -36 -142 c-19 -78 -35 -150 -34 -160 0 -10 20
54 43 142 l43 160 37 85 37 85 16 13 17 12 -20 0 -21 0 -41 -97z"/>
<path d="M27045 52113 l0 -233 8 0 7 0 -1 173 c-1 94 -4 199 -8 232 l-7 60 1
-232z"/>
<path d="M26995 52303 l8 -28 -2 -197 -2 -198 11 0 10 0 0 188 c0 103 -3 204
-6 225 l-7 37 -9 0 -10 0 7 -27z"/>
<path d="M54690 52135 c-63 -36 -153 -81 -200 -102 -47 -21 -87 -42 -89 -46
-2 -5 -14 -12 -27 -17 l-24 -10 0 -10 0 -10 12 0 c13 0 285 136 395 197 l62
34 -6 15 c-3 8 -6 14 -7 13 0 0 -53 -29 -116 -64z"/>
<path d="M13228 51889 c-14 -19 -55 -76 -91 -128 l-67 -94 6 -9 6 -9 90 126
89 126 -3 11 -4 12 -26 -35z"/>
<path d="M12414 51036 c-62 -42 -76 -60 -97 -116 l-17 -46 0 -74 c0 -77 7
-120 19 -120 l7 0 -4 93 -4 92 19 50 19 50 62 47 62 47 -8 5 -9 5 -49 -33z"/>
<path d="M28465 50900 l-6 -10 -20 0 -19 0 0 -10 0 -10 16 0 c21 0 54 18 54
30 0 13 -17 13 -25 0z"/>
<path d="M28400 50880 l0 -13 7 6 6 7 -6 7 -7 6 0 -13z"/>
<path d="M33541 50836 c-1 -9 57 -388 65 -425 3 -13 7 -21 10 -19 5 6 -54 394
-66 428 -5 14 -9 21 -9 16z"/>
<path d="M32405 50740 c41 -283 65 -424 72 -417 6 7 -56 408 -67 432 l-10 20
5 -35z"/>
<path d="M6928 50696 l-158 -20 -71 12 c-65 11 -91 10 -78 -3 3 -2 37 -10 77
-17 l72 -12 153 18 c83 10 158 22 166 26 l14 7 -9 5 c-5 2 -80 -5 -166 -16z"/>
<path d="M35891 50450 c-2 -26 73 -490 79 -490 l6 0 -37 233 c-20 127 -39 241
-42 252 l-5 20 -1 -15z"/>
<path d="M34310 50094 c0 -10 66 -97 89 -118 l21 -19 6 6 7 6 -36 40 c-19 22
-43 51 -52 65 -16 24 -35 35 -35 20z"/>
<path d="M33713 49855 c3 -22 29 -211 57 -420 28 -209 53 -386 56 -394 15 -47
6 39 -46 417 l-58 424 -7 6 -8 7 6 -40z"/>
<path d="M35976 49495 c8 -50 14 -58 14 -19 l0 29 -11 15 -10 15 7 -40z"/>
<path d="M36030 49444 c0 -5 12 -85 26 -179 l27 -170 9 -10 9 -10 -5 25 c-3
14 -17 97 -31 184 -22 137 -35 196 -35 160z"/>
<path d="M33790 49014 c1 -5 14 -99 29 -209 16 -110 28 -201 27 -202 -1 -1
-96 -7 -211 -13 -116 -7 -212 -14 -215 -17 -6 -6 283 5 371 13 l55 6 33 -228
c18 -126 34 -231 37 -233 13 -14 10 26 -20 229 -18 124 -32 226 -32 227 1 1
125 9 275 17 150 8 275 17 278 20 l6 6 -24 0 c-13 0 -139 -7 -279 -15 -140 -8
-256 -12 -258 -10 -2 2 -16 93 -31 204 -15 110 -30 204 -34 207 l-7 7 0 -9z"/>
<path d="M34788 48656 l-206 -11 -9 -9 -8 -9 150 7 c83 3 194 9 248 13 l97 6
0 8 0 9 -32 -2 c-18 0 -126 -6 -240 -12z"/>
<path d="M34485 48590 l-6 -10 20 0 20 0 6 10 6 10 -20 0 -20 0 -6 -10z"/>
<path d="M34068 48577 l-188 -10 0 -10 0 -10 98 6 c53 4 169 10 257 13 l160 7
20 8 20 8 -90 -1 c-49 -1 -174 -6 -277 -11z"/>
<path d="M43050 48554 c-80 -7 -158 -13 -174 -13 l-29 -1 6 -6 6 -6 178 12
178 13 10 8 9 9 -19 -1 c-11 -1 -85 -7 -165 -15z"/>
<path d="M33903 48510 c3 -19 29 -206 57 -415 28 -209 53 -386 56 -394 16 -48
6 41 -46 412 l-58 418 -7 7 -8 7 6 -35z"/>
<path d="M74830 47606 c0 -20 11 -46 19 -46 l8 0 -5 30 -4 30 -9 0 -9 0 0 -14z"/>
<path d="M37615 47437 c-302 -16 -552 -31 -554 -33 -2 -2 -2 -6 0 -7 2 -2 261
10 576 27 l572 31 7 8 7 7 -29 -1 c-16 -1 -276 -15 -579 -32z"/>
<path d="M20667 47134 l-16 -45 -32 -177 -31 -177 -19 -55 -19 -54 -42 -44
-43 -45 -85 -40 -85 -40 11 -4 11 -4 79 36 79 36 38 37 39 37 20 39 20 39 35
201 34 201 19 53 20 52 -8 0 c-4 0 -15 -21 -25 -46z"/>
<path d="M38330 46915 c15 -86 31 -159 35 -163 l8 -7 -6 30 c-3 17 -16 90 -28
163 l-22 132 -7 0 -7 0 27 -155z"/>
<path d="M51993 46468 c18 -50 382 -809 384 -801 3 9 -370 800 -383 811 l-7 7
6 -17z"/>
<path d="M27010 46108 c-118 -4 -297 -11 -397 -14 l-183 -6 0 -16 0 -15 148 6
c81 4 285 12 455 19 l307 12 0 13 0 13 -57 -2 c-32 -1 -155 -5 -273 -10z"/>
<path d="M93060 46071 c0 -4 16 -15 35 -24 l36 -17 32 0 32 0 53 -25 54 -25
54 0 54 0 71 36 c93 47 83 55 -12 9 l-73 -35 -41 0 -40 0 -47 25 -47 25 -38 0
-38 0 -42 20 -43 19 0 -8z"/>
<path d="M81370 45886 c-4 -13 -14 -43 -20 -67 -6 -24 -21 -67 -32 -96 l-21
-52 -30 -11 c-17 -5 -28 -12 -25 -15 3 -3 19 0 36 6 l30 10 17 42 c19 46 64
207 58 207 -2 0 -8 -11 -13 -24z"/>
<path d="M90435 45820 l-170 -7 -58 -17 c-32 -10 -56 -20 -54 -23 3 -2 29 3
59 12 l53 16 187 6 187 6 -5 9 c-3 4 -11 7 -17 6 -7 -1 -88 -4 -182 -8z"/>
<path d="M28201 45288 c5 -18 23 -82 40 -143 17 -60 43 -138 56 -172 l25 -63
9 0 c12 0 12 2 -12 62 -12 29 -40 118 -64 198 l-42 144 -11 4 -11 3 10 -33z"/>
<path d="M45765 45240 l-6 -10 30 0 31 0 0 10 0 10 -24 0 -25 0 -6 -10z"/>
<path d="M87775 44195 l-38 -85 16 -17 c8 -10 41 -56 71 -103 l56 -85 0 13 c0
7 -27 54 -60 104 -33 51 -60 95 -60 99 0 4 15 42 34 83 l35 76 -8 0 c-5 0 -25
-38 -46 -85z"/>
<path d="M8570 43454 c1 -82 50 -917 54 -922 l6 -5 0 24 c-1 80 -50 912 -54
917 l-6 5 0 -19z"/>
<path d="M10490 42985 c0 -11 5 -27 10 -35 l10 -15 0 20 c0 11 -5 27 -10 35
l-10 15 0 -20z"/>
<path d="M50818 42857 l-138 -20 0 -7 0 -6 150 21 c82 12 153 25 157 28 l6 7
-19 -1 c-10 -1 -81 -11 -156 -22z"/>
<path d="M45971 42240 c-79 -44 -149 -84 -155 -89 l-11 -10 5 -48 4 -48 6 50
5 50 138 76 c121 67 172 99 157 99 -3 0 -70 -36 -149 -80z"/>
<path d="M30139 40935 l-95 -73 -84 -27 -84 -26 -97 -1 -97 0 -59 33 c-32 18
-92 58 -133 89 -41 31 -80 59 -87 63 l-12 7 -5 -9 -6 -9 98 -70 c54 -38 123
-82 152 -98 l55 -28 100 1 100 2 87 29 87 30 100 77 c56 41 101 78 101 80 0
16 -37 -5 -121 -70z"/>
<path d="M56853 40883 c65 -2 168 -2 230 0 l112 3 -230 0 -230 0 118 -3z"/>
<path d="M47921 40359 l4 -16 229 -201 c127 -111 233 -202 237 -202 l8 0 -2
19 -1 20 -8 -5 -8 -5 -212 187 c-117 103 -221 194 -232 203 l-18 16 3 -16z"/>
<path d="M48260 39803 c-107 -139 -146 -196 -90 -133 52 59 203 260 199 265
-3 2 -52 -57 -109 -132z"/>
<path d="M48348 39853 c-24 -32 -75 -97 -112 -145 -37 -49 -64 -88 -59 -88 11
0 227 280 221 286 -3 2 -25 -22 -50 -53z"/>
<path d="M60223 38358 c-28 -41 -82 -107 -120 -147 -37 -41 -74 -82 -81 -92
l-13 -19 9 0 c11 0 163 174 221 253 l42 58 -3 10 -3 10 -52 -73z"/>
<path d="M90840 37725 l-15 -59 -114 -46 -115 -45 15 -3 15 -3 104 43 105 43
13 40 13 39 -3 26 -3 25 -15 -60z"/>
<path d="M86644 37612 c-55 -37 -120 -83 -145 -103 -24 -20 -162 -114 -307
-209 -144 -95 -261 -175 -258 -177 6 -6 555 354 591 387 17 16 80 60 140 99
l110 71 -15 -1 c-8 0 -60 -31 -116 -67z"/>
<path d="M85272 37313 c40 -60 161 -256 269 -438 109 -181 232 -380 275 -442
l77 -112 8 5 8 5 -72 102 c-40 56 -160 246 -266 422 -202 333 -350 564 -364
565 -4 0 25 -48 65 -107z"/>
<path d="M40758 36646 c-75 -17 -140 -34 -144 -38 -10 -11 -14 -12 161 27
l158 36 8 -8 8 -8 46 -315 c94 -639 104 -702 109 -708 l6 -5 0 10 c0 6 -11 87
-24 180 -13 92 -27 191 -31 218 -27 220 -91 620 -101 636 l-5 9 -27 -1 c-15
-1 -89 -15 -164 -33z"/>
<path d="M41764 35677 l19 -14 -5 -26 -5 -27 9 0 9 0 -3 37 -3 38 -20 3 -20 4
19 -15z"/>
<path d="M84915 35602 c-30 -10 -85 -45 -85 -55 l0 -8 13 7 c6 4 24 16 39 26
l26 18 26 0 26 0 20 -20 c11 -11 33 -45 49 -77 17 -32 44 -78 60 -103 l31 -45
0 17 c0 9 -4 20 -10 23 -5 3 -33 49 -61 101 l-51 94 -21 15 c-23 16 -30 17
-62 7z"/>
<path d="M81120 35575 c0 -16 64 -99 126 -165 38 -41 96 -103 129 -137 32 -35
62 -63 67 -63 6 0 -53 66 -129 148 -76 81 -149 164 -162 185 -21 34 -31 45
-31 32z"/>
<path d="M41392 35468 c-6 -13 -12 -35 -15 -50 l-4 -28 8 0 9 0 0 23 0 23 15
20 c16 22 19 34 7 34 -5 0 -14 -10 -20 -22z"/>
<path d="M84135 35108 c-154 -98 -329 -211 -389 -249 -59 -39 -106 -72 -103
-75 3 -4 758 474 776 492 2 2 2 6 0 8 -2 2 -130 -77 -284 -176z"/>
<path d="M85420 34971 c0 -13 181 -312 208 -344 8 -9 17 -15 20 -12 3 3 -2 13
-10 22 -8 10 -59 90 -113 178 -109 179 -105 173 -105 156z"/>
<path d="M32510 34745 c0 -6 220 -117 358 -181 164 -76 98 -37 -128 76 -218
109 -230 115 -230 105z"/>
<path d="M62570 34532 c0 -6 4 -13 9 -16 11 -7 155 -35 159 -31 2 1 -12 12
-30 23 l-33 20 -52 7 -53 7 0 -10z"/>
<path d="M77312 34292 l-134 -66 -76 -6 -77 -6 56 -7 56 -8 64 26 c67 27 271
135 254 134 -5 0 -70 -30 -143 -67z"/>
<path d="M77314 34253 l-151 -75 -67 -2 -66 -1 0 -9 0 -9 75 6 75 7 142 71
c151 75 154 77 147 83 -2 2 -72 -30 -155 -71z"/>
<path d="M30176 34109 c58 -117 107 -209 109 -207 3 3 -40 98 -94 211 l-100
207 -10 0 -9 0 104 -211z"/>
<path d="M38441 34153 c-1 -7 4 -36 10 -65 l12 -53 86 -88 c47 -49 95 -93 106
-99 l20 -11 -96 99 -97 99 -12 45 c-7 25 -16 54 -20 65 l-9 20 0 -12z"/>
<path d="M77806 33518 c-3 -23 -7 -121 -9 -215 l-4 -173 7 0 7 0 6 212 c5 210
4 261 -7 176z"/>
<path d="M77846 33518 c-3 -23 -7 -121 -9 -215 l-4 -173 7 0 7 0 6 212 c5 210
4 261 -7 176z"/>
<path d="M77933 33057 l-103 -10 0 -18 0 -19 30 0 c17 0 72 5 123 10 l92 10
455 -35 455 -35 115 -30 c63 -16 116 -30 116 -30 1 0 4 9 7 19 l5 19 -147 36
-146 35 -415 31 c-443 32 -432 32 -587 17z"/>
<path d="M98809 31735 l-26 -14 -6 -23 -6 -22 6 -6 6 -5 4 11 c2 6 10 19 17
29 l13 18 31 1 c34 1 42 10 16 20 -21 8 -25 7 -55 -9z"/>
<path d="M210 26983 c0 -5 37 -106 82 -225 l83 -218 7 0 c15 0 8 26 -45 165
-30 77 -66 173 -81 213 l-28 72 -9 0 c-5 0 -9 -3 -9 -7z"/>
<path d="M95310 26779 c-96 -71 -177 -134 -179 -140 -3 -9 325 226 359 257
l14 14 -9 -1 c-6 0 -89 -58 -185 -130z"/>
<path d="M90490 24839 c47 -5 150 -18 230 -30 l145 -20 120 -34 120 -34 119
-50 c66 -28 121 -49 123 -47 2 2 -52 27 -119 56 l-123 53 -113 34 -114 34
-126 19 -127 20 -110 4 -110 5 85 -10z"/>
<path d="M89896 21142 l-6 -10 59 -229 c33 -125 86 -325 117 -444 l58 -216 18
5 c10 2 18 6 18 9 0 3 -27 107 -59 231 -33 125 -84 324 -114 442 l-54 215 -15
3 -16 3 -6 -9z"/>
<path d="M89545 20878 c-77 -71 -142 -135 -144 -141 -4 -11 65 49 224 196 39
36 68 67 65 70 -3 2 -68 -54 -145 -125z"/>
<path d="M87167 20324 c149 -158 193 -201 193 -190 0 10 -298 320 -313 325 -7
2 47 -58 120 -135z"/>
<path d="M90021 20231 l-13 -9 58 -221 59 -221 13 0 13 0 5 14 5 14 -56 208
c-32 115 -60 212 -64 216 l-6 7 -14 -8z"/>
<path d="M94312 17978 c-106 -77 -190 -143 -188 -146 4 -4 359 250 391 279 l9
9 -9 0 c-6 -1 -97 -64 -203 -142z"/>
<path d="M91033 17612 l-13 -8 54 -91 c29 -49 84 -135 121 -189 38 -54 69
-100 70 -102 5 -6 35 11 35 20 0 5 -31 53 -69 106 -38 54 -92 137 -120 185
-53 89 -57 93 -78 79z"/>
<path d="M96701 13099 c-156 -182 -280 -333 -278 -335 3 -3 132 144 287 326
155 183 280 334 277 336 -2 2 -131 -145 -286 -327z"/>
<path d="M24720 3959 c-124 -152 -142 -179 -121 -179 10 0 271 320 271 332 0
25 -33 -9 -150 -153z"/>
<path d="M22984 2232 c7 -11 313 -252 320 -252 21 0 -12 31 -149 138 -85 67
-160 122 -166 122 l-10 0 5 -8z"/>
</g>
</svg>
