<?xml version="1.0" standalone="no"?>
<!DOCTYPE svg PUBLIC "-//W3C//DTD SVG 20010904//EN"
 "http://www.w3.org/TR/2001/REC-SVG-20010904/DTD/svg10.dtd">
<svg version="1.0" xmlns="http://www.w3.org/2000/svg"
 width="7500.000000pt" height="7500.000000pt" viewBox="0 0 7500.000000 7500.000000"
 preserveAspectRatio="xMidYMid meet">
<metadata>
Created by potrace 1.16, written by Peter Selinger 2001-2019
</metadata>
<g transform="translate(0.000000,7500.000000) scale(0.075000,-0.075000)"
fill="#000000" stroke="none">
<path d="M23744 99991 c6 -10 91 -61 100 -61 3 0 6 3 6 8 0 9 -84 62 -99 62
l-12 0 5 -9z"/>
<path d="M9094 99929 l-6 -11 13 -13 c81 -74 332 -285 339 -285 22 0 7 19 -52
71 -35 30 -113 98 -175 152 l-112 97 -7 -11z"/>
<path d="M83713 98873 l7 -11 77 -11 c43 -6 167 -15 275 -21 l196 -9 141 6
141 6 0 6 0 6 -247 -3 -248 -3 -155 15 c-85 8 -164 18 -174 22 l-19 7 6 -10z"/>
<path d="M58280 97756 c0 -3 39 -30 86 -61 100 -65 236 -135 261 -135 l18 0
-90 44 c-49 23 -129 68 -177 99 -82 54 -98 63 -98 53z"/>
<path d="M89641 97384 l1 -19 5 13 5 13 -6 6 -6 6 1 -19z"/>
<path d="M89602 97228 l-33 -134 -25 -42 c-32 -54 -25 -55 10 -2 l27 41 30
126 c16 69 28 130 27 135 -2 5 -18 -51 -36 -124z"/>
<path d="M31260 95045 c0 -2 81 -66 181 -140 l180 -136 12 4 11 3 -182 137
c-162 122 -202 148 -202 132z"/>
<path d="M87820 94138 l0 -113 -19 -60 c-23 -75 -119 -276 -163 -341 -19 -27
-118 -152 -221 -279 l-188 -230 -142 -122 -141 -122 -126 -88 c-69 -48 -231
-164 -360 -258 -130 -93 -282 -201 -338 -240 -55 -38 -101 -74 -102 -78 l0 -8
13 3 c14 3 244 164 560 391 106 76 228 163 272 195 44 31 123 93 176 137 53
44 118 98 145 119 l49 39 200 244 c233 285 230 280 312 446 l63 127 20 77 20
77 0 98 0 98 -15 0 -15 0 0 -112z"/>
<path d="M87636 93726 l-46 -84 -199 -243 -198 -244 -149 -126 -149 -126 -445
-318 c-245 -175 -449 -322 -454 -326 l-10 -9 7 -6 7 -7 462 332 463 331 143
121 143 122 193 237 c106 130 205 257 218 281 14 24 37 65 52 91 l26 47 -9 5
-9 6 -46 -84z"/>
<path d="M96044 92871 c-211 -221 -522 -596 -953 -1151 -240 -309 -340 -426
-405 -478 l-29 -23 10 -10 10 -10 82 77 82 77 256 331 c410 529 815 1018 997
1203 l80 83 -9 8 -10 9 -111 -116z"/>
<path d="M56740 92960 c0 -10 342 -201 349 -195 6 7 13 2 -176 108 l-173 96 0
-9z"/>
<path d="M89530 92712 c8 -5 209 -71 445 -147 237 -75 433 -139 438 -142 l7
-4 0 8 0 9 -432 138 c-238 76 -442 141 -453 143 l-20 4 15 -9z"/>
<path d="M86804 92687 c47 -36 240 -157 251 -157 6 0 33 23 60 50 l49 50 -10
0 c-5 0 -28 -18 -49 -40 -21 -22 -45 -40 -51 -40 -12 0 -139 75 -221 131 -49
34 -71 38 -29 6z"/>
<path d="M53060 92233 c0 -5 10 -37 21 -73 l21 -65 7 -152 6 -152 7 -7 8 -7
-6 149 -6 149 -25 83 c-21 72 -33 99 -33 75z"/>
<path d="M53081 91738 l-1 -46 19 -94 19 -93 24 -50 c29 -61 70 -125 81 -125
4 0 -5 19 -21 43 -15 23 -40 69 -54 102 l-25 60 -16 100 c-9 55 -18 111 -20
125 l-4 25 -2 -47z"/>
<path d="M94981 90777 c-1 -16 57 -93 98 -130 l40 -36 58 -29 c83 -42 213 -95
219 -89 3 2 -32 19 -78 38 -45 18 -112 51 -150 72 l-67 39 -43 47 c-24 25 -51
57 -60 71 -9 14 -17 21 -17 17z"/>
<path d="M54075 90627 c99 -51 194 -100 210 -111 l30 -18 -30 26 -30 27 -167
84 c-92 47 -173 85 -180 85 -7 -1 68 -42 167 -93z"/>
<path d="M95030 90644 l55 -60 42 -22 c23 -12 221 -95 440 -186 219 -91 433
-184 475 -206 l78 -41 161 -174 161 -173 54 -38 c73 -50 79 -38 8 16 -31 23
-88 77 -128 119 -39 42 -114 120 -166 174 l-95 99 -70 35 c-38 20 -254 112
-480 205 -225 94 -423 177 -440 186 -16 8 -57 40 -90 71 l-60 56 55 -61z"/>
<path d="M29136 90572 c5 -5 74 -26 154 -46 80 -21 169 -46 199 -57 30 -11 56
-18 58 -15 10 10 -368 126 -411 126 l-10 0 10 -8z"/>
<path d="M29965 90283 c-13 -94 -56 -309 -71 -346 -16 -43 -18 -55 -5 -41 21
23 71 237 87 377 l6 57 -5 0 c-3 0 -9 -21 -12 -47z"/>
<path d="M31080 90047 c0 -3 48 -24 108 -48 l107 -42 88 -17 87 -17 0 7 c0 3
-35 12 -77 19 l-78 13 -100 38 c-55 21 -108 41 -117 45 -10 4 -18 5 -18 2z"/>
<path d="M78270 89784 c-56 -69 -195 -207 -243 -241 l-36 -26 5 -8 c3 -5 9 -9
14 -9 25 0 320 306 320 332 0 18 -17 5 -60 -48z"/>
<path d="M94030 89535 c0 -13 328 -341 334 -334 3 3 -71 81 -164 174 -94 94
-170 165 -170 160z"/>
<path d="M85235 88954 c-38 -7 -134 -25 -212 -40 l-143 -26 0 -9 0 -8 14 5 c8
3 108 22 222 43 l208 37 -10 6 -9 5 -70 -13z"/>
<path d="M84380 88739 l-75 -18 -115 -12 c-140 -14 -161 -24 -30 -15 l95 7
103 21 102 21 0 9 c0 4 -1 8 -2 7 -2 -1 -37 -9 -78 -20z"/>
<path d="M79440 88303 c0 -5 -18 -111 -40 -237 -36 -209 -40 -250 -25 -234 5
4 85 449 85 471 0 4 -4 7 -10 7 -5 0 -10 -3 -10 -7z"/>
<path d="M62187 88058 l4 -23 -91 -103 c-90 -103 -176 -220 -167 -228 2 -2 24
24 48 58 37 53 89 115 212 255 l19 21 -7 21 c-3 12 -10 21 -14 21 l-8 0 4 -22z"/>
<path d="M75570 87976 c0 -14 70 -109 90 -121 l10 -6 0 11 c0 6 -18 33 -40 59
-22 26 -40 53 -40 59 l0 12 -10 0 -10 0 0 -14z"/>
<path d="M89878 87828 l-208 -70 0 -13 0 -14 203 68 c111 37 207 70 214 72
l12 4 -7 11 -7 11 -207 -69z"/>
<path d="M61758 87533 l-127 -187 5 -8 6 -9 129 190 c71 105 129 193 129 196
0 22 -32 -19 -142 -182z"/>
<path d="M84447 87193 l-98 -193 8 0 c10 0 200 377 193 383 -3 2 -49 -84 -103
-190z"/>
<path d="M83721 87248 c-17 -73 -39 -170 -50 -216 l-19 -83 11 4 11 3 47 205
c54 232 52 219 40 219 l-9 0 -31 -132z"/>
<path d="M56071 87131 l-12 -8 87 -209 c48 -115 90 -212 93 -216 l6 -7 12 7
13 8 -91 215 c-50 117 -92 215 -93 216 -1 1 -7 -2 -15 -6z"/>
<path d="M84277 86933 c-20 -48 -41 -94 -45 -101 l-9 -13 -257 71 c-241 66
-286 76 -275 66 6 -7 516 -146 533 -146 l13 0 42 96 c23 52 41 100 39 105 l-3
10 -38 -88z"/>
<path d="M83597 86946 c-3 -7 -9 -35 -12 -62 l-7 -49 9 10 c9 8 33 90 33 109
0 12 -18 5 -23 -8z"/>
<path d="M83681 86916 c2 -2 65 -21 139 -41 74 -20 156 -43 183 -50 l47 -14 0
7 0 7 -177 48 c-167 45 -202 53 -192 43z"/>
<path d="M2250 86630 l0 -10 13 0 c6 0 73 -9 147 -19 l135 -19 83 -31 84 -31
-4 12 -4 12 -80 29 -79 29 -135 19 c-74 10 -141 19 -147 19 l-13 0 0 -10z"/>
<path d="M86020 86516 c-129 -60 -246 -119 -309 -156 l-71 -41 6 -10 6 -10 64
36 c58 33 161 84 311 155 l52 25 -7 11 -7 11 -45 -21z"/>
<path d="M56610 85816 c0 -7 21 -59 48 -114 l47 -101 13 8 13 8 -50 106 -50
107 -11 0 -10 0 0 -14z"/>
<path d="M56664 85582 l-11 -7 54 -125 c30 -69 67 -163 84 -210 16 -47 34 -91
38 -99 l9 -14 10 7 11 7 -35 96 c-35 96 -111 279 -136 327 l-13 25 -11 -7z"/>
<path d="M56250 85570 l0 -10 195 0 195 0 0 10 0 10 -195 0 -195 0 0 -10z"/>
<path d="M48460 85500 l0 -10 23 -5 c12 -2 109 -16 215 -31 l193 -26 16 6 c9
4 14 9 11 11 -4 5 -424 65 -449 65 -5 0 -9 -4 -9 -10z"/>
<path d="M81675 85353 c13 -13 407 -144 400 -133 -3 5 -90 36 -193 71 -103 34
-194 64 -202 67 l-15 5 10 -10z"/>
<path d="M84055 85037 c-55 -51 -133 -122 -174 -158 l-74 -66 7 -12 7 -11 152
137 c84 75 163 147 177 160 l24 23 -9 9 -10 9 -100 -91z"/>
<path d="M29220 85111 l0 -8 118 -7 117 -7 70 -20 c39 -12 75 -25 82 -31 l11
-9 6 9 6 10 -18 7 c-9 4 -42 16 -72 26 l-55 20 -105 5 c-58 2 -117 7 -132 9
l-28 5 0 -9z"/>
<path d="M46332 84884 c3 -3 100 -30 214 -60 115 -30 218 -57 229 -60 l20 -6
-10 10 -10 10 -216 56 c-119 31 -220 56 -224 56 l-8 0 5 -6z"/>
<path d="M40820 84660 c0 -6 29 -55 65 -110 71 -110 111 -189 121 -238 l7 -32
13 0 14 0 -6 28 c-11 50 -64 154 -131 259 -61 95 -83 120 -83 93z"/>
<path d="M89241 84646 c2 -2 103 -32 224 -66 121 -33 227 -63 235 -66 l15 -5
-10 9 c-5 6 -108 38 -227 71 -201 56 -248 68 -237 57z"/>
<path d="M83246 84310 l-200 -178 -57 -17 -56 -17 -37 12 -36 12 -34 31 -33
32 -16 45 c-8 25 -18 57 -21 73 l-6 27 -11 0 -11 0 7 -42 c4 -24 17 -66 30
-95 l23 -52 41 -26 41 -27 44 -5 44 -5 53 17 53 18 195 175 c108 97 197 179
199 183 2 4 -1 9 -5 12 l-8 5 -199 -178z"/>
<path d="M84707 84073 c-102 -82 -186 -152 -186 -157 l-1 -8 15 5 c20 8 374
290 374 300 2 18 -28 -3 -202 -140z"/>
<path d="M11510 84151 l0 -10 163 -51 c89 -28 188 -60 220 -70 l58 -19 -4 12
-4 12 -214 67 c-243 77 -219 71 -219 59z"/>
<path d="M10020 84005 c-102 -58 -189 -106 -194 -108 l-9 -3 4 -11 4 -11 195
109 c107 60 197 114 198 119 l4 10 -9 -1 c-4 0 -91 -47 -193 -104z"/>
<path d="M82490 84052 l-35 -19 -26 -76 -26 -76 13 -5 12 -5 21 68 21 69 24
15 c13 9 35 19 48 22 l24 6 53 -35 c29 -20 57 -36 62 -36 22 0 5 20 -44 54
l-52 36 -30 0 -30 0 -35 -18z"/>
<path d="M0 83953 l0 -18 33 -23 c32 -21 175 -163 285 -282 l51 -55 6 7 7 7
-16 23 c-9 12 -74 84 -145 158 l-128 135 -47 33 -46 33 0 -18z"/>
<path d="M415 83620 l-7 -12 93 -95 94 -95 70 -47 c39 -26 75 -51 82 -54 l12
-7 6 9 6 10 -63 42 -63 42 -111 109 -111 110 -8 -12z"/>
<path d="M83980 83499 c-74 -61 -163 -129 -198 -151 l-62 -40 5 -9 6 -8 57 36
c68 43 342 264 342 275 0 17 -20 3 -150 -103z"/>
<path d="M47180 83420 l0 -10 13 0 c6 0 109 -16 227 -34 118 -19 217 -32 219
-30 2 2 1 7 -2 10 -6 6 -411 73 -444 74 l-13 0 0 -10z"/>
<path d="M47076 83378 c9 -29 45 -54 44 -30 -1 10 -37 52 -45 52 l-6 0 7 -22z"/>
<path d="M47174 83369 l-5 -8 23 -5 c13 -3 46 -8 73 -11 28 -3 166 -26 307
-51 l257 -45 106 -39 c108 -41 125 -45 125 -32 0 4 -60 28 -132 54 l-133 47
-185 32 c-102 17 -240 39 -308 49 l-123 16 -5 -7z"/>
<path d="M47055 82918 c-7 -23 -75 -396 -75 -414 l0 -18 9 10 9 9 36 200 c21
110 39 206 41 213 l4 12 -10 0 c-5 0 -11 -6 -14 -12z"/>
<path d="M2940 82447 l0 -12 212 -82 c193 -76 238 -89 212 -64 -5 6 -92 42
-194 81 -102 40 -195 76 -207 81 l-23 9 0 -13z"/>
<path d="M86490 81251 l0 -93 -77 6 c-43 3 -124 9 -181 12 l-102 7 -140 -28
-140 -28 0 -6 0 -7 138 29 137 28 95 -5 c52 -4 139 -9 193 -12 l98 -6 -7 93
c-4 52 -8 96 -10 98 -2 2 -4 -37 -4 -88z"/>
<path d="M97530 80918 c0 -2 6 -21 13 -43 l12 -40 54 -88 54 -88 36 -28 c38
-29 120 -65 129 -57 3 3 -17 15 -44 26 l-49 21 -33 32 -33 32 -55 86 -54 86
-6 32 -6 31 -9 0 c-5 0 -9 -1 -9 -2z"/>
<path d="M95507 80503 c-130 -184 -233 -333 -228 -331 14 4 473 649 469 657
-2 4 -110 -143 -241 -326z"/>
<path d="M72717 80053 l-5 -8 84 -120 c47 -66 88 -126 93 -134 l8 -14 12 4 11
4 -90 130 c-50 72 -95 134 -99 138 l-9 9 -5 -9z"/>
<path d="M73300 79244 c0 -3 112 -157 249 -342 136 -186 275 -378 308 -427 33
-50 119 -168 193 -263 117 -151 150 -188 150 -166 0 3 -61 84 -136 180 -74 96
-161 214 -192 262 -75 115 -553 762 -564 762 -4 0 -8 -3 -8 -6z"/>
<path d="M73840 78405 c0 -5 236 -316 286 -378 l23 -27 5 8 5 9 -151 196
c-131 172 -168 214 -168 192z"/>
<path d="M44682 78068 c-101 -244 -142 -349 -142 -360 0 -7 41 86 90 206 50
121 88 221 86 223 -2 2 -17 -29 -34 -69z"/>
<path d="M70680 77934 c0 -5 55 -59 122 -119 151 -136 182 -162 177 -149 -2 5
-53 54 -114 109 -60 54 -127 114 -147 134 l-38 35 0 -10z"/>
<path d="M45660 77201 c8 -5 81 -37 162 -71 l148 -62 11 4 10 3 -160 68 c-88
37 -166 67 -173 67 l-13 -1 15 -8z"/>
<path d="M74550 76630 c0 -5 5 -10 10 -10 6 0 10 5 10 10 0 6 -4 10 -10 10 -5
0 -10 -4 -10 -10z"/>
<path d="M45117 75026 l-6 -14 6 -6 6 -6 13 11 14 11 -6 9 c-8 13 -21 11 -27
-5z"/>
<path d="M82431 74188 l-23 -103 -5 -132 -6 -133 10 0 10 0 6 138 6 137 20 83
c23 91 25 112 13 112 l-9 0 -22 -102z"/>
<path d="M76440 72551 l0 -10 43 -5 c23 -3 127 -10 230 -17 l189 -11 5 6 c4 3
4 8 2 10 -2 2 -87 9 -189 15 -102 6 -206 14 -232 16 l-48 6 0 -10z"/>
<path d="M25500 72332 c0 -18 89 -425 94 -430 3 -2 9 -2 14 -1 l8 4 -46 214
-46 215 -12 4 -12 4 0 -10z"/>
<path d="M47130 72164 c0 -4 20 -38 44 -78 l44 -71 60 -160 c257 -682 398
-1048 422 -1096 40 -81 124 -203 194 -281 l60 -68 55 -39 c73 -50 112 -66 202
-81 41 -6 82 -14 92 -16 l17 -5 0 14 0 15 -82 12 -83 13 -42 18 c-100 43 -220
161 -325 322 -74 112 -66 93 -250 577 -82 217 -184 483 -225 590 l-74 195 -45
73 c-39 62 -64 88 -64 66z"/>
<path d="M30420 70890 l0 -10 41 -20 c22 -12 62 -37 88 -55 26 -19 93 -55 149
-81 l103 -47 9 9 10 10 -98 44 -97 45 -60 41 c-94 65 -145 88 -145 64z"/>
<path d="M74439 70680 l-5 -75 18 -115 c21 -135 27 -164 33 -158 3 2 -2 42
-11 89 l-16 84 -7 125 -7 125 -5 -75z"/>
<path d="M48780 70176 l0 -13 98 -26 97 -27 110 -16 110 -16 235 -59 c129 -33
243 -63 253 -65 l17 -5 0 13 0 13 -268 67 -267 67 -110 16 c-91 13 -185 35
-262 60 l-13 4 0 -13z"/>
<path d="M76680 70017 c0 -4 25 -52 56 -108 l55 -102 78 -201 c43 -111 82
-211 85 -223 l7 -23 10 0 c5 0 9 3 9 8 0 19 -152 397 -192 477 -40 80 -108
189 -108 172z"/>
<path d="M62235 69998 c-44 -125 -74 -195 -125 -290 l-61 -116 15 -5 15 -6 61
115 61 114 34 94 34 94 -6 6 c-10 10 -23 7 -28 -6z"/>
<path d="M13530 69862 c1 -8 391 -224 396 -219 2 2 -86 53 -196 114 -110 61
-200 108 -200 105z"/>
<path d="M74548 69820 c13 -19 41 -72 62 -116 l40 -82 21 -93 c12 -52 26 -98
31 -104 l9 -10 -5 15 c-2 8 -14 58 -26 110 l-22 95 -51 98 c-28 53 -57 103
-66 110 l-15 12 22 -35z"/>
<path d="M76690 69755 c-19 -22 -10 -23 30 -3 l35 18 -26 0 -27 0 -12 -15z"/>
<path d="M33570 69082 l0 -19 -23 -21 -23 -22 -15 0 c-8 0 -20 5 -27 12 l-12
12 -12 -12 -13 -13 15 -9 15 -10 35 0 36 0 22 16 22 15 0 35 0 34 -10 0 -10 0
0 -18z"/>
<path d="M48423 68960 l-23 -9 0 -16 c0 -8 0 -18 -1 -22 0 -4 4 -9 9 -11 l9
-3 6 21 5 20 16 0 16 0 0 15 c0 17 -5 18 -37 5z"/>
<path d="M48505 68880 c3 -5 8 -10 11 -10 3 0 2 5 -1 10 -3 6 -8 10 -11 10 -3
0 -2 -4 1 -10z"/>
<path d="M16050 68760 c0 -4 30 -12 68 -18 l67 -11 160 -5 160 -4 -70 8 c-38
4 -108 8 -155 9 l-85 2 -72 13 -73 12 0 -6z"/>
<path d="M36700 68040 c-35 -88 -62 -162 -59 -164 3 -3 35 69 71 160 37 90 63
164 59 164 -3 0 -35 -72 -71 -160z"/>
<path d="M41417 67878 c-43 -114 -130 -368 -134 -394 l-6 -34 12 0 11 0 0 20
c0 11 32 109 70 216 39 108 70 198 70 200 0 10 -18 3 -23 -8z"/>
<path d="M84748 67620 l-106 -79 -74 -32 c-40 -17 -86 -35 -103 -39 l-30 -8
25 -1 25 -1 77 32 77 31 108 80 c127 94 117 86 112 91 -2 2 -52 -31 -111 -74z"/>
<path d="M60774 67337 l-149 -271 -64 -141 c-35 -77 -90 -203 -123 -280 l-59
-140 -39 -157 -40 -157 0 -46 0 -45 15 0 15 0 0 35 0 36 40 157 39 157 74 180
c118 287 165 384 320 664 81 145 147 265 147 267 0 1 -6 4 -13 7 l-13 5 -150
-271z"/>
<path d="M37590 67475 l0 -15 19 0 c10 0 82 -16 159 -35 l140 -35 73 -30 c39
-17 78 -30 86 -30 l15 0 -4 11 -4 11 -74 29 c-71 28 -290 89 -372 103 l-38 7
0 -16z"/>
<path d="M6466 67315 l-90 -74 -105 -4 -106 -3 109 -2 109 -2 69 58 c39 31 79
65 91 74 12 9 19 19 17 22 -3 2 -45 -29 -94 -69z"/>
<path d="M3696 67331 l-6 -9 57 -33 c32 -18 206 -120 386 -227 l329 -194 5 6
c8 8 36 -10 -312 196 -170 101 -317 189 -325 195 -8 7 -41 26 -72 44 l-56 32
-6 -10z"/>
<path d="M55377 66926 l-16 -24 -16 -125 c-16 -130 -18 -174 -10 -166 2 3 12
68 20 145 l16 139 20 28 20 27 -10 0 c-5 0 -16 -11 -24 -24z"/>
<path d="M38452 66914 l-214 -12 -6 -8 -7 -7 100 6 c55 4 157 10 228 13 l127
7 0 8 c0 5 -3 8 -7 8 -5 -1 -104 -8 -221 -15z"/>
<path d="M55411 66906 l-12 -14 -14 -123 c-16 -132 -18 -165 -10 -158 2 3 11
65 20 139 l16 134 16 18 16 18 -10 0 c-6 0 -16 -6 -22 -14z"/>
<path d="M38465 66874 c-110 -7 -209 -13 -219 -13 l-19 -1 5 -6 6 -5 226 12
226 12 0 9 c0 4 -6 7 -12 7 -7 -1 -103 -8 -213 -15z"/>
<path d="M37016 66839 c-76 -4 -141 -11 -145 -14 l-6 -7 150 7 c83 4 188 11
235 15 l85 7 -90 0 c-49 0 -152 -4 -229 -8z"/>
<path d="M50290 66648 c21 -21 339 -238 359 -245 l16 -6 -10 10 c-11 11 -340
235 -365 248 l-15 8 15 -15z"/>
<path d="M77240 66560 l-85 -6 110 -1 c61 0 162 3 225 7 l115 7 -140 -1 c-77
0 -178 -3 -225 -6z"/>
<path d="M43460 66552 l0 -11 -32 -10 -33 -9 33 -1 33 -1 6 15 5 16 -6 6 -6 6
0 -11z"/>
<path d="M44265 66331 c13 -12 377 -123 383 -116 6 6 15 3 -193 65 -93 28
-177 53 -185 56 l-15 5 10 -10z"/>
<path d="M44245 66293 l10 -11 193 -55 192 -54 0 6 c0 4 -84 31 -187 60 -103
30 -194 56 -203 59 l-15 5 10 -10z"/>
<path d="M97486 66191 l-430 -107 -4 -12 -4 -12 9 0 c7 0 769 187 856 211 l37
10 0 9 0 10 -17 -1 c-10 -1 -211 -49 -447 -108z"/>
<path d="M41590 66266 c0 -3 153 -105 308 -204 12 -8 22 -11 22 -8 0 7 -315
216 -325 216 -3 0 -5 -2 -5 -4z"/>
<path d="M97551 65973 c21 -103 41 -199 44 -212 l6 -24 9 9 8 9 -42 199 -42
200 -11 3 -11 4 39 -188z"/>
<path d="M97467 66143 l-5 -8 41 -203 41 -202 8 0 c4 0 8 7 8 15 0 19 -79 397
-84 402 -2 3 -6 1 -9 -4z"/>
<path d="M94460 66096 c0 -11 59 -366 66 -395 3 -13 7 -22 9 -19 6 5 -60 407
-68 415 l-7 6 0 -7z"/>
<path d="M60281 66023 c-11 -38 -37 -133 -57 -213 l-38 -145 -188 -519 c-103
-286 -186 -521 -184 -523 2 -2 13 4 24 14 l21 18 177 484 176 484 59 226 c32
124 59 229 59 234 0 4 -7 7 -15 7 l-14 0 -20 -67z"/>
<path d="M57196 66043 c-96 -149 -196 -316 -192 -320 5 -5 11 3 133 202 98
159 95 155 89 155 -3 0 -17 -17 -30 -37z"/>
<path d="M41875 65972 c18 -19 358 -242 369 -242 11 0 -339 238 -364 247 l-15
6 10 -11z"/>
<path d="M83650 65740 l0 -13 7 6 6 7 -6 7 -7 6 0 -13z"/>
<path d="M40952 65700 c14 -22 24 -19 15 5 -4 8 -11 15 -17 15 l-10 0 12 -20z"/>
<path d="M94818 65662 l-248 -45 0 -14 0 -13 23 5 c12 2 123 23 247 46 123 22
226 42 228 44 2 2 2 8 1 13 l-4 8 -247 -44z"/>
<path d="M83656 65682 l-8 -14 12 -46 13 -47 81 -127 c44 -70 84 -127 88 -127
l7 -1 -6 18 c-3 9 -37 63 -74 119 -73 108 -87 135 -98 198 l-7 40 -8 -13z"/>
<path d="M77104 65433 c3 -93 8 -420 12 -728 l6 -560 24 -245 24 -246 55 -304
55 -305 46 -187 46 -188 14 0 c8 0 14 2 14 5 0 3 -18 79 -41 168 l-41 162 -59
325 -59 325 -24 245 -24 245 -6 445 c-3 245 -9 572 -13 728 l-6 282 -15 0 -15
0 7 -167z"/>
<path d="M41065 65450 l-6 -10 6 -10 7 -11 14 12 14 11 -6 9 c-7 12 -21 11
-29 -1z"/>
<path d="M60124 65350 c-7 -19 -30 -86 -53 -148 l-41 -114 12 4 12 4 43 130
43 129 -2 15 -3 15 -11 -35z"/>
<path d="M41143 65356 l-23 -11 0 -11 0 -11 32 6 33 7 3 17 3 17 -13 -1 c-7
-1 -23 -6 -35 -13z"/>
<path d="M92858 65223 l-228 -74 0 -9 0 -10 13 0 c6 0 113 33 237 74 l225 73
-2 9 c-1 5 -5 9 -10 10 -4 1 -110 -32 -235 -73z"/>
<path d="M29024 65132 l-12 -7 -20 -67 -20 -68 20 -152 19 -153 -9 -65 -10
-65 8 -8 7 -8 6 23 c3 13 8 48 12 78 l6 55 -19 145 -19 145 22 78 c13 42 22
77 21 77 0 0 -6 -4 -12 -8z"/>
<path d="M70430 65106 c0 -14 212 -407 217 -402 3 2 -39 87 -93 188 -99 185
-124 229 -124 214z"/>
<path d="M33323 65041 l-11 -31 -64 0 -63 0 -41 -33 c-75 -60 -195 -170 -189
-175 2 -3 42 29 87 70 46 41 101 87 122 102 l39 26 57 0 58 0 12 14 12 15 -4
22 -3 21 -12 -31z"/>
<path d="M51594 65052 c9 -15 376 -265 382 -260 3 4 -319 229 -375 263 l-14 8
7 -11z"/>
<path d="M52456 64798 c-54 -123 -100 -229 -103 -235 l-5 -13 14 0 13 0 99
224 c55 124 99 228 98 232 0 5 -5 10 -10 12 l-9 3 -97 -223z"/>
<path d="M3659 64900 c-5 -55 -4 -68 7 -58 3 3 4 30 2 59 l-3 54 -6 -55z"/>
<path d="M31400 64896 c-53 -20 -203 -97 -198 -102 3 -2 54 19 114 48 l109 51
95 7 95 7 -90 1 -90 1 -35 -13z"/>
<path d="M1235 64775 l-220 -42 -160 -12 c-88 -7 -162 -15 -164 -17 -7 -7 59
-5 200 7 l134 10 215 41 214 40 18 -11 18 -11 0 14 0 14 -16 6 c-9 3 -16 6
-17 5 -1 0 -101 -20 -222 -44z"/>
<path d="M91652 64715 c-104 -50 -232 -119 -261 -141 -1 -1 0 -8 4 -13 l6 -11
42 25 c23 14 113 62 200 106 l157 79 0 10 c0 16 -7 13 -148 -55z"/>
<path d="M44400 64619 c129 -43 239 -79 245 -78 5 0 -96 36 -225 80 -129 43
-239 79 -245 78 -5 0 96 -36 225 -80z"/>
<path d="M50765 64493 c-66 -114 -132 -229 -148 -255 -15 -26 -24 -48 -20 -48
5 0 27 33 49 73 23 39 89 154 147 255 59 100 103 182 99 182 -4 0 -61 -93
-127 -207z"/>
<path d="M59793 64530 l-22 -18 -21 -51 -20 -52 18 10 c10 5 23 16 28 23 11
14 45 100 41 104 -1 1 -12 -6 -24 -16z"/>
<path d="M1441 64511 l-13 -8 16 -6 15 -6 40 -78 c22 -43 52 -91 66 -107 l26
-28 6 5 5 6 -30 38 c-16 21 -46 70 -65 110 -20 39 -40 74 -45 77 l-8 5 -13 -8z"/>
<path d="M77173 64306 c4 -95 10 -187 13 -205 l7 -31 9 0 10 0 -6 28 c-3 15
-9 107 -12 205 l-7 177 -10 0 -10 0 6 -174z"/>
<path d="M36960 64443 c0 -11 -147 -1031 -155 -1075 l-4 -28 7 0 7 0 79 551
78 550 -6 6 -6 6 0 -10z"/>
<path d="M46580 64288 l-75 -132 -48 -114 c-26 -64 -46 -117 -43 -119 2 -2 22
43 45 99 l42 103 80 144 c44 79 79 145 77 147 -2 1 -37 -56 -78 -128z"/>
<path d="M59712 64317 l-22 -23 -45 -123 -46 -124 -49 -96 -49 -96 -74 -85
-73 -85 -96 -61 -96 -61 -94 -26 -93 -26 -135 -11 -135 -11 -73 -16 c-77 -17
-85 -22 -73 -41 l7 -12 50 14 49 14 150 12 150 11 110 31 110 31 80 50 c102
64 104 66 191 165 l73 84 51 95 50 95 56 155 c31 85 54 156 52 158 -3 3 -14
-5 -26 -18z"/>
<path d="M40790 64184 c35 -8 473 -54 477 -50 9 8 -398 57 -459 55 l-33 -1 15
-4z"/>
<path d="M40660 64115 c-30 -19 -49 -35 -42 -35 12 0 112 59 112 66 0 10 -18
1 -70 -31z"/>
<path d="M40072 64085 l-12 -25 9 0 c4 0 13 11 19 25 l12 25 -9 0 c-4 0 -13
-11 -19 -25z"/>
<path d="M78505 64035 c-93 -12 -279 -33 -412 -46 l-243 -23 0 -13 c0 -7 3
-13 8 -13 40 2 503 54 670 76 l212 28 0 8 0 8 -32 -1 c-18 -1 -109 -11 -203
-24z"/>
<path d="M78523 63981 c-190 -24 -236 -33 -222 -45 3 -2 433 49 447 53 6 2 1
21 -5 20 -5 -1 -103 -13 -220 -28z"/>
<path d="M59558 63808 l-38 -79 -54 -24 c-30 -13 -57 -29 -61 -34 l-6 -11 25
10 c14 5 44 19 67 30 l41 21 34 76 c19 42 33 79 32 83 -2 3 -20 -29 -40 -72z"/>
<path d="M51512 63765 c11 -11 398 -173 398 -166 0 3 -87 43 -193 89 -176 75
-220 92 -205 77z"/>
<path d="M2260 63691 c0 -10 303 -283 322 -290 l11 -3 -4 10 c-4 11 -316 292
-325 292 -2 0 -4 -4 -4 -9z"/>
<path d="M59114 63665 c-28 -13 -127 -45 -220 -71 l-169 -47 -65 -33 -65 -33
35 6 c19 3 51 14 70 23 19 10 107 38 195 63 88 25 187 57 220 70 l59 25 4 11
4 11 -9 -1 c-4 0 -31 -11 -59 -24z"/>
<path d="M45736 63429 c-65 -110 -117 -201 -114 -204 2 -2 59 88 125 200 67
113 119 205 115 204 -4 0 -61 -90 -126 -200z"/>
<path d="M40323 63552 c15 -15 27 -32 26 -38 0 -5 -63 -63 -140 -129 -77 -66
-148 -129 -157 -140 l-17 -19 22 14 c35 24 312 264 312 272 1 11 -50 68 -62
68 l-11 0 27 -28z"/>
<path d="M40397 63530 l12 -16 -7 -10 c-4 -5 -77 -70 -162 -143 -85 -74 -159
-138 -164 -143 l-10 -8 10 0 c10 0 328 272 340 291 l6 11 -18 16 -18 17 11
-15z"/>
<path d="M51735 63180 l-108 -241 10 -10 10 -10 107 238 c60 131 110 244 113
251 l5 12 -14 0 -15 0 -108 -240z"/>
<path d="M16470 63390 l0 -10 14 0 c7 0 33 -9 58 -20 l44 -19 33 -41 32 -40
10 6 10 6 -37 41 -37 42 -41 22 -41 22 -22 1 -23 0 0 -10z"/>
<path d="M58105 63263 c-180 -106 -552 -338 -574 -359 -2 -2 -1 -10 3 -19 l6
-16 40 26 41 26 10 -6 9 -6 -2 10 -3 11 160 105 c88 57 249 157 358 221 108
64 197 120 197 124 0 5 -3 11 -8 14 l-7 4 -230 -135z"/>
<path d="M16247 63320 c-47 -39 -114 -86 -148 -106 l-63 -35 -95 -27 -96 -27
24 -3 24 -4 81 23 81 23 53 31 c58 34 241 176 241 188 2 17 -22 3 -102 -63z"/>
<path d="M7033 63363 l7 -6 7 6 6 7 -13 0 -13 0 6 -7z"/>
<path d="M36835 63352 l-6 -6 207 -33 c114 -18 209 -31 212 -28 6 6 -22 11
-208 40 -91 14 -173 27 -182 29 -9 2 -20 1 -23 -2z"/>
<path d="M6633 63343 l-33 -4 0 -8 0 -8 176 -6 177 -5 21 7 21 8 -20 5 c-11 3
-54 6 -95 7 -41 1 -106 3 -145 5 -38 2 -85 2 -102 -1z"/>
<path d="M16357 63315 l-17 -36 0 -39 0 -40 29 -32 29 -33 7 7 7 7 -26 31 -26
32 0 28 c0 15 7 44 15 63 17 42 18 47 7 47 -5 0 -16 -16 -25 -35z"/>
<path d="M6995 63298 l-18 -11 -156 5 -156 4 -35 -5 -35 -6 11 -7 11 -7 189
-3 189 -3 23 16 23 17 -14 5 -13 5 -19 -10z"/>
<path d="M41566 63181 l-6 -9 15 -6 15 -5 0 9 c0 5 -4 11 -9 15 l-10 5 -5 -9z"/>
<path d="M21023 63163 l7 -6 7 6 6 7 -13 0 -13 0 6 -7z"/>
<path d="M20990 63079 c0 -11 5 -29 10 -39 l10 -19 43 -25 42 -24 116 -36 c63
-20 119 -36 124 -36 l9 0 -9 9 c-6 5 -62 25 -127 44 l-116 36 -36 23 -36 23
-7 20 c-4 11 -6 26 -5 33 l3 12 -11 0 -10 0 0 -21z"/>
<path d="M13735 63080 l-30 -8 160 1 160 2 35 -8 35 -7 -30 14 -30 15 -135 -1
-135 0 -30 -8z"/>
<path d="M43845 63030 c-38 -9 -83 -22 -98 -29 l-28 -11 -78 -67 c-42 -38
-146 -126 -229 -197 -84 -70 -152 -133 -152 -138 l0 -10 18 13 c9 8 113 97
230 198 l212 184 38 17 c21 9 72 25 115 34 42 10 77 19 77 22 0 7 -33 2 -105
-16z"/>
<path d="M43971 63022 c-1 -20 29 -211 41 -261 l11 -46 41 -50 c76 -94 288
-325 298 -325 5 0 -53 69 -129 153 -76 83 -153 170 -169 192 l-31 40 -16 75
c-9 41 -19 102 -23 135 -4 33 -10 69 -15 80 l-8 20 0 -13z"/>
<path d="M84640 63026 c0 -13 231 -405 242 -412 l10 -6 -12 23 c-18 33 -210
360 -227 384 -7 11 -13 15 -13 11z"/>
<path d="M15030 62991 l0 -30 10 -6 10 -6 0 30 0 30 -10 6 -10 6 0 -30z"/>
<path d="M15070 62993 l0 -32 10 -6 10 -6 0 23 c0 13 -5 30 -10 38 l-10 15 0
-32z"/>
<path d="M18145 63010 l-6 -10 10 0 c6 0 11 5 11 10 0 6 -2 10 -4 10 -3 0 -8
-4 -11 -10z"/>
<path d="M10067 63003 c18 -2 50 -2 70 0 l38 4 -70 0 -70 0 32 -4z"/>
<path d="M10298 62993 c6 -2 18 -2 25 0 l12 5 -25 0 -25 0 13 -5z"/>
<path d="M15940 62990 l0 -10 15 0 c8 0 15 2 15 4 0 2 -7 6 -15 10 l-15 5 0
-9z"/>
<path d="M49270 62868 c-40 -68 -87 -148 -106 -178 -18 -30 -31 -57 -28 -59 2
-2 6 -2 8 0 15 18 206 352 203 356 -3 2 -37 -51 -77 -119z"/>
<path d="M57697 62959 c-26 -18 -46 -33 -44 -35 2 -3 27 5 55 17 l52 22 0 13
c0 20 -9 17 -63 -17z"/>
<path d="M58739 62960 c-22 -6 -141 -65 -158 -77 -2 -2 -2 -6 2 -9 l5 -6 84
42 84 41 119 -10 c66 -6 130 -11 143 -11 l22 0 0 9 0 8 -112 7 c-62 4 -124 9
-138 11 l-25 3 -26 -8z"/>
<path d="M17858 62941 l-157 -6 -8 -9 -8 -9 130 7 c72 3 158 6 193 6 l62 0 0
10 0 10 -27 -2 c-16 -1 -99 -4 -185 -7z"/>
<path d="M16360 62930 c41 -5 123 -10 183 -12 l107 -3 0 6 c0 9 -166 19 -274
18 l-91 -2 75 -7z"/>
<path d="M16005 62909 l20 -13 145 -2 145 -2 -130 8 c-71 4 -146 11 -165 15
l-35 6 20 -12z"/>
<path d="M57605 62883 c-107 -56 -298 -193 -270 -193 5 0 297 189 310 201 l9
9 -9 0 c-6 -1 -23 -8 -40 -17z"/>
<path d="M59045 62892 l10 -9 155 -12 c85 -6 184 -14 220 -18 l65 -6 -6 7 c-4
4 -85 13 -180 21 -96 8 -196 17 -224 20 l-50 6 10 -9z"/>
<path d="M43442 62699 c-84 -73 -152 -136 -152 -141 0 -5 69 51 153 124 83 72
154 133 156 135 2 2 2 5 -1 8 -2 3 -73 -54 -156 -126z"/>
<path d="M59945 62820 l-4 -7 167 -12 c92 -6 194 -14 227 -18 l60 -6 -7 8 -7
8 -216 16 -216 17 -4 -6z"/>
<path d="M11706 62605 c3 -104 7 -214 10 -242 l6 -53 187 1 186 0 40 9 40 8
-221 -5 -222 -6 -6 119 c-4 65 -11 173 -16 239 l-8 120 4 -190z"/>
<path d="M11667 62596 c3 -104 9 -212 13 -240 l8 -51 -5 160 c-3 88 -9 196
-13 240 l-8 80 5 -189z"/>
<path d="M10227 62745 c-11 -27 -8 -32 8 -11 l14 18 223 -17 223 -16 188 7
188 7 3 6 4 6 -281 0 -282 0 -141 9 -141 8 -6 -17z"/>
<path d="M42932 62515 c-123 -106 -233 -203 -245 -216 l-22 -23 20 15 c22 15
428 361 459 390 11 10 18 20 15 22 -2 2 -105 -82 -227 -188z"/>
<path d="M3333 62593 l-13 -5 0 -14 c0 -7 13 -35 30 -61 l29 -48 44 -28 44
-27 72 -9 72 -9 69 -34 69 -33 172 -164 173 -163 4 12 5 13 -164 159 -164 158
-45 24 c-53 28 -136 53 -202 61 l-46 6 -41 28 -41 27 -24 35 c-13 19 -26 44
-28 56 l-3 20 -12 -4z"/>
<path d="M89015 62351 c17 -16 97 -86 179 -155 l149 -125 9 5 c5 3 8 7 6 9
-120 105 -352 295 -361 295 l-12 0 30 -29z"/>
<path d="M40732 62297 c-12 -29 -24 -65 -25 -79 l-2 -27 10 -1 10 -1 6 38 5
38 22 43 22 42 -12 0 -13 0 -23 -53z"/>
<path d="M44334 62302 l5 -8 -225 -198 c-124 -109 -223 -201 -220 -203 3 -3
104 83 226 191 121 108 224 196 228 195 4 0 63 -65 131 -145 179 -209 560
-628 574 -633 l12 -4 -31 34 c-142 156 -434 482 -542 607 l-133 152 6 10 6 10
-21 0 -21 0 5 -8z"/>
<path d="M48675 62292 c18 -18 358 -223 366 -220 8 3 -340 219 -364 227 l-12
4 10 -11z"/>
<path d="M57535 62084 c-121 -96 -222 -179 -224 -185 -2 -6 95 67 215 161 247
195 239 188 233 194 -2 2 -103 -74 -224 -170z"/>
<path d="M40636 62068 c14 -46 32 -94 41 -106 l15 -24 5 6 6 6 -12 23 c-6 12
-22 55 -34 96 l-22 74 -12 4 -12 4 25 -83z"/>
<path d="M94245 61932 l-60 -76 -224 -228 -224 -228 8 -8 7 -7 213 217 c176
180 279 293 347 385 l9 11 -8 5 -8 5 -60 -76z"/>
<path d="M45834 61975 c3 -16 17 -120 31 -230 15 -110 30 -211 36 -225 l9 -25
-4 35 c-3 19 -17 130 -32 245 l-27 210 -10 10 -9 10 6 -30z"/>
<path d="M94255 61863 c-49 -60 -110 -129 -134 -156 l-44 -47 6 -7 7 -6 16 14
c25 20 254 293 254 302 0 20 -22 -2 -105 -100z"/>
<path d="M62638 61937 c-21 -12 -40 -26 -42 -32 -2 -5 -11 -27 -20 -47 l-16
-38 11 0 11 0 15 38 15 38 39 24 c21 14 39 28 39 32 0 12 -12 9 -52 -15z"/>
<path d="M40097 61872 c-23 -22 -69 -55 -103 -74 l-60 -35 -97 -24 c-53 -12
-97 -26 -97 -30 l0 -7 108 28 107 27 46 27 c25 14 72 48 103 76 l57 50 -11 0
c-6 0 -29 -17 -53 -38z"/>
<path d="M40115 61834 c-27 -25 -73 -58 -102 -74 l-52 -30 -108 -29 -108 -30
-110 -17 -110 -16 -240 0 -240 0 -115 31 c-63 18 -151 43 -195 56 l-80 24
-177 29 -178 28 0 -8 c0 -10 10 -12 200 -42 l155 -25 190 -52 190 -53 260 0
260 1 105 17 c58 10 150 30 205 45 l100 28 55 31 c56 32 173 131 155 131 -5 0
-32 -20 -60 -45z"/>
<path d="M49455 61746 c22 -20 85 -65 140 -100 55 -34 126 -80 158 -100 31
-20 57 -33 57 -29 0 4 -64 48 -143 97 -78 50 -160 104 -182 121 -58 46 -77 52
-30 11z"/>
<path d="M55570 61601 c0 -16 79 -438 86 -464 3 -10 8 -17 10 -15 4 5 -84 479
-91 486 -3 3 -5 0 -5 -7z"/>
<path d="M60690 61601 c0 -6 4 -11 10 -11 5 0 16 -13 25 -30 l15 -30 -6 -25
-6 -25 11 0 11 0 6 27 7 27 -19 35 -19 36 -17 3 -18 3 0 -10z"/>
<path d="M60785 61570 l-17 -19 4 -11 3 -11 23 24 24 25 -10 6 -9 6 -18 -20z"/>
<path d="M60522 61410 l-83 -48 9 -6 9 -5 49 26 c63 33 124 72 124 78 0 13
-32 0 -108 -45z"/>
<path d="M60665 61399 c11 -13 21 -26 22 -28 2 -2 3 3 3 12 l0 16 -22 12 -23
12 20 -24z"/>
<path d="M60252 61259 l-153 -151 6 -6 5 -6 43 39 c98 91 267 260 267 267 0
19 -24 -2 -168 -143z"/>
<path d="M54550 61372 c0 -11 195 -865 207 -905 2 -10 7 -17 9 -14 3 2 -14 82
-36 178 -21 96 -69 302 -104 458 -36 156 -67 286 -70 289 l-6 5 0 -11z"/>
<path d="M28626 61172 l-5 -9 46 -104 c25 -57 56 -139 69 -181 l23 -78 16
-142 15 -143 -6 -120 -6 -120 -34 -224 c-30 -205 -34 -244 -19 -229 3 2 19 92
36 199 l30 194 8 160 8 160 -18 150 c-22 182 -35 231 -99 375 -54 123 -55 126
-64 112z"/>
<path d="M31200 60983 c0 -6 7 -77 16 -159 l16 -149 -6 -70 -5 -70 9 25 c4 14
8 54 9 90 0 76 -24 328 -33 337 l-6 6 0 -10z"/>
<path d="M92790 60974 c0 -11 31 -33 100 -68 76 -39 259 -110 265 -104 3 3
-39 22 -93 43 -109 43 -203 88 -244 117 -16 11 -28 16 -28 12z"/>
<path d="M92770 60941 c0 -5 21 -23 48 -39 l47 -31 139 -56 c76 -31 140 -54
142 -52 3 2 -57 30 -133 61 l-138 57 -52 35 -53 34 0 -9z"/>
<path d="M46281 60758 c-71 -79 -150 -160 -175 -181 -25 -21 -46 -43 -46 -48
l0 -11 61 56 c56 50 299 312 299 322 0 12 -19 -8 -139 -138z"/>
<path d="M50100 60875 l0 -15 28 0 c15 0 216 -11 447 -25 231 -14 421 -25 423
-25 1 0 2 6 2 14 l0 14 -82 6 c-108 9 -755 46 -790 46 l-28 0 0 -15z"/>
<path d="M54629 60886 l-6 -6 51 -226 c28 -124 52 -221 54 -215 2 6 -17 102
-42 214 -24 111 -46 210 -48 220 l-3 19 -6 -6z"/>
<path d="M50000 60820 l0 -9 15 5 c8 4 15 8 15 10 0 2 -7 4 -15 4 l-15 0 0
-10z"/>
<path d="M55418 60668 c-21 -12 -38 -26 -38 -31 l0 -9 28 17 c15 10 36 24 47
32 l19 13 -9 0 c-6 0 -27 -10 -47 -22z"/>
<path d="M86132 60571 c5 -15 300 -336 312 -340 13 -5 -12 24 -182 212 -119
130 -138 149 -130 128z"/>
<path d="M15035 60338 c-27 -17 -66 -44 -85 -61 -48 -40 -200 -207 -200 -218
0 -5 36 30 80 78 92 101 170 169 223 198 20 11 37 23 37 27 0 11 1 11 -55 -24z"/>
<path d="M93064 60253 c-20 -65 -49 -147 -65 -182 -16 -35 -27 -66 -24 -69 7
-7 9 -5 42 63 l30 60 32 108 c18 60 35 115 38 123 l5 14 -11 0 -10 0 -37 -117z"/>
<path d="M62570 60314 c-91 -19 -279 -57 -419 -86 -140 -28 -249 -54 -243 -56
13 -4 807 155 837 168 l20 9 -15 -1 c-8 0 -89 -15 -180 -34z"/>
<path d="M56790 60225 c124 -36 229 -65 234 -65 l9 0 -5 6 c-9 9 -421 124
-443 123 -11 0 81 -29 205 -64z"/>
<path d="M57526 60191 l-20 -8 11 -6 11 -7 16 6 c9 3 16 10 16 15 0 10 -8 10
-34 0z"/>
<path d="M57280 60123 c0 -27 -7 -82 -14 -124 l-15 -75 -80 -223 -81 -223 7
-10 6 -11 8 14 c4 8 41 109 82 224 l75 210 16 86 c9 47 16 107 16 132 l0 47
-10 0 -10 0 0 -47z"/>
<path d="M59356 59849 c-181 -137 -334 -249 -340 -249 l-11 0 -75 169 c-41 93
-76 165 -78 160 -2 -5 28 -79 67 -166 39 -86 71 -164 71 -174 l0 -17 15 -6 15
-5 0 12 0 12 33 21 c17 12 173 128 346 258 l314 236 -14 -1 c-8 -1 -162 -113
-343 -250z"/>
<path d="M61228 60041 c-119 -26 -220 -50 -225 -55 l-8 -8 20 5 c11 3 112 25
225 48 113 23 207 43 209 45 13 12 -25 6 -221 -35z"/>
<path d="M48836 59814 c-69 -92 -124 -170 -121 -172 3 -3 7 -3 8 -1 50 60 247
332 244 336 -3 2 -62 -71 -131 -163z"/>
<path d="M43542 59888 l-24 -28 10 0 c13 0 45 37 41 48 l-4 9 -23 -29z"/>
<path d="M58810 59913 c0 -6 30 -75 66 -154 72 -158 236 -541 232 -544 -2 -1
-102 -21 -223 -44 -234 -45 -259 -50 -252 -57 2 -2 111 17 242 42 l238 47 9
-17 9 -16 29 0 30 0 0 -11 c0 -20 112 -360 117 -355 3 2 -21 86 -53 185 -32
100 -55 183 -52 186 3 3 429 90 947 194 517 103 939 190 936 193 -3 3 -429
-80 -947 -183 -518 -104 -944 -187 -946 -184 -3 3 -11 0 -18 -6 l-14 -11 -16
6 -15 6 7 11 7 11 -11 7 c-5 3 -39 76 -75 161 -63 150 -234 531 -243 539 -2 2
-4 0 -4 -6z"/>
<path d="M28609 59683 c-26 -82 -58 -174 -73 -205 l-26 -58 9 0 10 0 26 58
c23 50 115 324 115 345 0 4 -3 7 -8 7 l-7 0 -46 -147z"/>
<path d="M40560 59814 c0 -5 75 -58 165 -118 l165 -109 7 6 c3 4 4 9 2 11 -15
13 -313 208 -325 213 l-14 5 0 -8z"/>
<path d="M24410 59803 c0 -9 368 -157 413 -168 l29 -6 -7 11 c-3 5 -13 10 -20
10 -8 0 -103 36 -211 80 -213 87 -204 83 -204 73z"/>
<path d="M45382 59400 c95 -99 177 -180 183 -180 5 0 -29 39 -75 88 -232 239
-265 272 -273 272 -5 0 69 -81 165 -180z"/>
<path d="M83610 59573 c0 -6 45 -91 101 -190 98 -173 499 -929 513 -967 3 -10
9 -17 11 -14 9 9 -24 76 -187 388 -130 246 -418 771 -434 789 -2 2 -4 -1 -4
-6z"/>
<path d="M40935 59560 c3 -5 8 -10 11 -10 2 0 4 5 4 10 0 6 -5 10 -11 10 l-10
0 6 -10z"/>
<path d="M62495 59482 l-420 -84 -10 -10 -10 -11 15 5 c8 3 202 42 430 88 228
46 417 85 419 87 16 12 -51 0 -424 -75z"/>
<path d="M83577 59553 l-6 -9 111 -195 c148 -258 476 -879 504 -954 l23 -60 0
16 c2 34 -32 104 -213 447 -102 194 -186 355 -186 356 0 2 -51 94 -114 205
l-114 202 -5 -8z"/>
<path d="M40885 59498 c-9 -29 -40 -115 -67 -191 l-51 -138 7 -6 c3 -3 8 -4
10 -2 6 7 98 261 117 321 l17 58 -8 5 -8 5 -17 -52z"/>
<path d="M78214 59503 c2 -10 25 -99 51 -198 53 -206 54 -210 61 -203 3 3 -11
61 -30 129 -19 68 -42 161 -52 207 l-17 82 -9 0 -9 0 5 -17z"/>
<path d="M40960 59489 l0 -10 10 6 c6 3 10 8 10 11 0 2 -4 4 -10 4 -5 0 -10
-5 -10 -11z"/>
<path d="M78000 59488 c0 -14 101 -411 106 -417 2 -2 7 -2 10 2 l7 6 -53 211
-52 210 -9 0 c-5 0 -9 -5 -9 -12z"/>
<path d="M49430 59274 c-89 -119 -159 -218 -157 -220 3 -3 80 94 171 216 92
121 163 220 158 220 -5 0 -82 -97 -172 -216z"/>
<path d="M41010 59463 c0 -5 55 -42 123 -84 l122 -76 55 -21 c102 -39 510
-168 510 -162 0 4 -87 35 -192 69 -106 35 -236 81 -289 102 l-97 38 -111 70
c-112 72 -121 77 -121 64z"/>
<path d="M42625 59400 c-33 -15 -124 -56 -203 -90 -78 -34 -141 -65 -138 -67
5 -5 397 164 411 178 l9 9 -9 -1 c-6 0 -37 -13 -70 -29z"/>
<path d="M46982 59410 l-12 -20 0 -27 0 -27 9 10 c8 9 25 84 19 84 -2 0 -9 -9
-16 -20z"/>
<path d="M59615 59317 c-247 -49 -452 -92 -454 -94 -2 -1 -2 -5 0 -7 4 -4 921
179 944 188 40 17 -101 -8 -490 -87z"/>
<path d="M85832 59222 c-117 -79 -211 -146 -208 -149 2 -3 96 57 208 133 216
146 224 152 217 157 -2 2 -100 -61 -217 -141z"/>
<path d="M61373 59292 l-212 -47 -8 -9 -8 -9 15 5 c8 3 107 24 220 48 113 23
209 47 215 51 l9 9 -9 -1 c-6 0 -105 -22 -222 -47z"/>
<path d="M86050 59330 l0 -13 7 6 6 7 -6 7 -7 6 0 -13z"/>
<path d="M63083 59308 c3 -13 25 -115 48 -228 23 -113 43 -207 45 -209 2 -2 7
-2 10 2 l6 6 -32 158 c-17 87 -38 188 -47 226 l-15 67 -10 0 -10 0 5 -22z"/>
<path d="M61631 59303 c-1 -25 137 -744 144 -752 3 -2 5 1 5 8 0 15 -139 741
-145 756 l-3 10 -1 -22z"/>
<path d="M61480 59275 c-58 -13 -153 -33 -212 -45 l-108 -23 0 -9 0 -9 18 5
c9 2 110 24 225 47 l207 42 0 9 c0 11 -8 10 -130 -17z"/>
<path d="M53130 59236 c0 -12 134 -225 139 -221 2 2 -27 53 -64 112 -74 119
-75 120 -75 109z"/>
<path d="M91641 59173 c22 -26 310 -255 315 -250 3 2 -57 54 -133 115 -76 60
-147 119 -157 131 -11 12 -23 21 -29 21 l-9 0 13 -17z"/>
<path d="M14605 59136 c-147 -45 -243 -81 -259 -97 -15 -14 -4 -11 75 21 41
17 134 49 208 71 74 21 137 41 139 44 12 12 -31 1 -163 -39z"/>
<path d="M63850 58934 c-1 -22 126 -634 131 -634 3 0 -22 142 -57 317 -56 278
-73 351 -74 317z"/>
<path d="M63810 58923 c0 -6 36 -185 80 -399 44 -214 85 -413 91 -441 l10 -53
9 0 8 0 -8 33 c-5 17 -48 218 -94 446 -75 363 -96 454 -96 414z"/>
<path d="M62627 58755 c-219 -45 -400 -85 -404 -89 -3 -3 -4 -6 -1 -6 9 0 842
171 853 175 51 19 -116 -11 -448 -80z"/>
<path d="M61250 58824 c0 -11 70 -354 76 -374 l5 -14 7 11 7 11 204 53 c112
29 199 55 193 57 -6 2 -99 -20 -207 -48 -108 -28 -198 -50 -199 -48 -2 2 -20
82 -40 178 -33 154 -46 204 -46 174z"/>
<path d="M17349 58572 l-74 -99 -72 -62 c-40 -35 -73 -67 -73 -73 l0 -10 19
13 c11 8 46 37 78 64 l59 50 71 95 c38 52 73 101 77 108 l7 12 -9 0 c-6 0 -43
-44 -83 -98z"/>
<path d="M61960 58580 c-269 -57 -633 -148 -640 -159 l-5 -9 -200 -41 c-213
-45 -230 -49 -224 -56 6 -5 408 81 439 94 42 18 494 126 695 166 105 21 194
42 200 47 l9 8 -24 -1 c-14 0 -126 -22 -250 -49z"/>
<path d="M84515 58509 c-99 -49 -202 -97 -230 -108 l-49 -18 -4 -11 -3 -11 58
23 c32 13 138 63 236 110 l177 86 0 10 c0 6 -1 10 -2 9 -2 0 -84 -41 -183 -90z"/>
<path d="M85820 58544 c0 -13 215 -414 223 -414 16 0 2 32 -100 221 -94 172
-123 219 -123 193z"/>
<path d="M63210 58248 c21 -101 62 -299 91 -440 l52 -258 9 0 c12 0 13 -4 -80
449 l-88 425 -11 3 -11 4 38 -183z"/>
<path d="M63270 58398 c0 -16 179 -878 187 -898 l5 -15 6 14 5 14 -94 449 -94
448 -7 0 c-5 0 -8 -6 -8 -12z"/>
<path d="M59985 58362 c6 -5 88 -38 183 -73 l172 -62 13 -26 12 -25 27 -15 27
-16 28 22 28 21 -1 18 c-1 11 -3 28 -5 39 l-4 20 197 40 c108 22 200 44 205
48 l8 9 -25 -6 c-14 -3 -104 -22 -200 -42 -96 -19 -183 -38 -194 -41 l-18 -5
11 -11 11 -11 0 -26 0 -27 -19 -17 -18 -17 -25 10 -25 9 -7 18 -7 17 13 9 c7
4 11 8 8 9 -3 0 -14 2 -25 4 -11 2 -92 31 -180 64 -88 32 -169 63 -180 67
l-20 7 10 -11z"/>
<path d="M55905 58353 c6 -6 107 -35 225 -66 118 -31 266 -72 328 -91 l112
-34 0 7 c0 8 -220 74 -460 136 -96 26 -184 49 -195 52 l-20 5 10 -9z"/>
<path d="M40560 58325 c0 -2 19 -15 43 -28 l42 -25 49 -7 49 -7 106 13 c58 6
113 16 121 20 l15 8 -15 1 c-8 0 -61 -7 -117 -15 l-102 -14 -57 10 -56 10 -31
20 c-31 19 -47 24 -47 14z"/>
<path d="M91790 58114 c1 -11 340 -247 346 -241 3 3 -68 55 -158 117 -90 62
-169 117 -175 123 l-13 9 0 -8z"/>
<path d="M63021 58010 c-161 -35 -219 -50 -184 -50 18 0 397 81 402 85 10 10
-41 2 -218 -35z"/>
<path d="M62798 57921 c-224 -48 -411 -91 -415 -95 l-8 -8 20 5 c11 3 207 45
435 92 228 48 417 89 419 91 12 12 -81 -6 -451 -85z"/>
<path d="M62131 57822 c-118 -25 -209 -48 -204 -49 13 -5 399 74 428 87 l20 9
-15 -1 c-8 0 -111 -21 -229 -46z"/>
<path d="M51245 57787 l-8 -19 26 -25 25 -25 161 -33 162 -32 -4 10 -3 11
-151 31 -150 30 -18 15 c-9 8 -21 23 -25 35 l-8 20 -7 -18z"/>
<path d="M81600 57699 c-107 -15 -203 -28 -212 -28 l-18 -1 0 -16 0 -15 18 5
c9 2 108 17 220 32 l202 27 0 8 c0 16 -19 15 -210 -12z"/>
<path d="M46520 57672 c0 -11 79 -77 85 -71 1 2 -17 21 -41 42 l-44 38 0 -9z"/>
<path d="M64131 57575 c-1 -11 18 -114 41 -230 l43 -210 2 20 c1 11 -17 115
-41 230 -24 116 -44 201 -45 190z"/>
<path d="M64084 57563 c3 -10 44 -205 91 -433 47 -228 90 -424 96 -435 l10
-20 -4 20 c-2 11 -44 215 -93 452 l-89 433 -8 0 -8 0 5 -17z"/>
<path d="M46611 57514 c102 -140 252 -339 257 -344 3 -3 3 2 0 11 -9 23 -278
383 -290 388 -6 2 9 -23 33 -55z"/>
<path d="M38066 57515 c3 -11 15 -42 26 -70 l20 -50 -7 -50 c-4 -27 -8 -86 -9
-130 l-2 -80 -42 -143 c-24 -79 -46 -151 -49 -160 l-6 -17 10 10 c5 6 31 83
57 173 l48 163 -7 57 -6 57 14 41 15 41 -7 39 -8 39 -27 50 c-15 28 -24 41
-20 30z"/>
<path d="M38055 57222 l3 -64 -34 -124 c-19 -69 -41 -140 -49 -159 l-14 -35 8
0 7 0 37 118 c20 64 42 138 48 163 l10 45 -10 60 -10 59 4 -63z"/>
<path d="M78742 56905 l0 -30 5 18 c2 9 2 23 0 30 l-5 12 0 -30z"/>
<path d="M46550 56890 c0 -23 62 -444 66 -449 3 -3 9 0 15 6 l11 11 -21 143
c-24 161 -49 279 -62 294 l-9 9 0 -14z"/>
<path d="M78752 56845 l0 -30 5 18 c2 9 2 23 0 30 l-5 12 0 -30z"/>
<path d="M47230 56822 c0 -9 334 -303 360 -316 22 -11 -57 62 -218 202 -78 68
-142 119 -142 114z"/>
<path d="M48500 56822 c0 -7 333 -169 385 -188 l20 -7 -5 6 c-11 12 -400 196
-400 189z"/>
<path d="M78761 56791 c-1 -8 4 -42 10 -75 l10 -61 27 -39 c15 -22 33 -42 41
-44 l14 -5 -22 36 c-36 58 -49 89 -65 147 -8 30 -15 49 -15 41z"/>
<path d="M48482 56784 c12 -11 393 -192 397 -188 2 2 2 5 0 7 -10 8 -388 187
-395 187 l-7 0 5 -6z"/>
<path d="M63650 56576 c0 -2 18 -97 41 -212 l40 -207 -13 -8 c-7 -5 -19 -9
-27 -9 l-14 0 7 -7 c4 -4 21 -8 37 -9 l30 -2 23 -21 c12 -11 25 -21 29 -21 l7
0 -11 24 -11 24 -17 5 -16 4 -34 174 c-18 96 -38 195 -43 222 l-10 47 -9 0
c-5 0 -9 -2 -9 -4z"/>
<path d="M90572 56486 c-12 -18 -87 -97 -166 -175 l-144 -141 9 -6 10 -6 153
154 c85 84 159 163 165 175 l11 22 -8 5 -8 4 -22 -32z"/>
<path d="M78910 56485 c0 -4 9 -19 20 -34 l19 -28 11 -49 11 -48 -6 -23 -5
-23 16 0 17 0 -5 65 -6 64 -19 38 -20 38 -16 3 -17 3 0 -6z"/>
<path d="M55060 56419 c25 -6 77 -17 116 -25 l72 -15 88 -69 c49 -38 94 -70
99 -70 l10 0 -25 21 c-14 11 -59 46 -102 78 l-76 59 -64 10 c-34 6 -85 13
-113 16 l-50 5 45 -10z"/>
<path d="M26450 56403 c0 -8 331 -183 346 -183 12 0 -40 30 -208 118 -76 40
-138 69 -138 65z"/>
<path d="M56961 56378 c168 -154 301 -270 304 -266 6 6 -312 292 -328 296 -7
2 4 -12 24 -30z"/>
<path d="M64340 56226 l-25 -23 -247 -49 c-137 -27 -248 -51 -248 -55 0 -3
117 17 260 46 l259 51 21 27 21 27 -8 0 c-5 0 -20 -11 -33 -24z"/>
<path d="M48014 56222 c3 -6 129 -75 279 -154 l272 -143 23 -24 c12 -14 48
-73 79 -133 31 -59 58 -106 60 -104 6 5 -102 216 -124 243 l-18 21 -255 135
c-140 74 -270 142 -289 151 l-33 18 6 -10z"/>
<path d="M90060 56074 c-85 -74 -166 -147 -180 -161 l-25 -26 18 6 c22 8 357
297 357 309 0 17 -20 3 -170 -128z"/>
<path d="M64083 56087 c-139 -28 -253 -54 -253 -58 0 -7 518 95 527 105 l6 6
-14 -1 c-8 -1 -128 -24 -266 -52z"/>
<path d="M63330 56024 c-162 -35 -369 -80 -459 -99 -161 -35 -179 -40 -170
-50 5 -4 244 43 767 152 l182 38 0 12 0 13 -12 -1 c-7 -1 -146 -30 -308 -65z"/>
<path d="M63660 55980 c0 -6 7 -13 15 -17 l16 -5 7 6 6 7 -14 9 c-20 13 -30
12 -30 0z"/>
<path d="M63062 55910 l0 -25 5 13 c2 6 2 18 0 25 l-5 12 0 -25z"/>
<path d="M63017 55900 c3 -11 9 -20 13 -20 l8 0 -5 20 c-3 11 -9 20 -13 20
l-8 0 5 -20z"/>
<path d="M37740 55713 l-23 -198 -33 -33 -32 -32 9 -6 10 -6 29 32 30 32 0 17
c1 9 11 100 23 204 l23 187 -6 0 -7 0 -23 -197z"/>
<path d="M35420 55452 l-415 -397 -100 -76 c-55 -42 -158 -113 -230 -159 -71
-46 -281 -181 -465 -300 -184 -120 -364 -232 -400 -250 l-65 -32 -32 -40 c-18
-22 -33 -44 -33 -49 0 -18 16 -8 40 27 l25 35 75 39 c41 21 224 136 405 254
182 118 389 252 460 298 170 109 319 221 430 327 324 306 735 702 736 708 0 4
-3 9 -8 10 -4 1 -195 -176 -423 -395z"/>
<path d="M44546 55703 c-75 -70 -136 -131 -136 -136 0 -4 63 50 140 120 123
112 152 143 136 143 -3 0 -66 -57 -140 -127z"/>
<path d="M50910 55791 l0 -9 63 -16 62 -17 154 -7 155 -7 -189 -215 c-104
-118 -192 -217 -197 -218 l-8 -4 6 -9 5 -9 199 228 c110 125 200 230 200 233
l0 7 -172 7 -172 7 -53 19 -53 18 0 -8z"/>
<path d="M55881 55758 c74 -70 279 -241 284 -236 2 2 -64 62 -147 133 -152
131 -223 184 -137 103z"/>
<path d="M55821 55762 c5 -16 301 -272 314 -272 l10 0 -22 18 c-11 9 -85 73
-164 141 -78 69 -140 119 -138 113z"/>
<path d="M46980 55720 l0 -13 7 6 6 7 -6 7 -7 6 0 -13z"/>
<path d="M46990 55690 l0 -13 7 6 6 7 -6 7 -7 6 0 -13z"/>
<path d="M25990 55663 c0 -4 96 -77 213 -160 182 -131 246 -175 315 -217 l12
-7 0 8 c0 4 -18 18 -39 30 -32 19 -137 92 -448 317 -29 21 -53 34 -53 29z"/>
<path d="M47020 55590 l0 -13 7 6 6 7 -6 7 -7 6 0 -13z"/>
<path d="M47030 55560 l0 -13 7 6 6 7 -6 7 -7 6 0 -13z"/>
<path d="M61873 55515 c4 -22 19 -118 34 -212 l28 -173 7 0 8 0 -5 23 c-3 12
-19 105 -35 206 -16 101 -33 187 -36 190 l-7 6 6 -40z"/>
<path d="M85033 55530 c76 -299 131 -507 138 -514 4 -5 -23 111 -61 259 -38
147 -72 270 -76 274 l-7 6 6 -25z"/>
<path d="M47040 55530 l0 -13 7 6 6 7 -6 7 -7 6 0 -13z"/>
<path d="M50370 55427 c0 -3 31 -35 70 -73 74 -71 145 -123 201 -147 l34 -14
20 7 19 7 -40 6 -40 7 -60 41 c-32 23 -81 63 -109 88 -66 61 -95 85 -95 78z"/>
<path d="M44120 55334 c0 -3 29 -40 64 -83 73 -86 286 -300 286 -287 0 5 -57
68 -127 140 -71 73 -146 155 -168 183 -36 47 -55 63 -55 47z"/>
<path d="M55430 55306 c0 -37 -17 -74 -56 -121 l-35 -43 9 -6 10 -6 41 53 41
54 6 46 7 47 -12 0 -11 0 0 -24z"/>
<path d="M53231 55207 l-1 -58 25 -111 25 -111 11 -13 11 -14 -4 -17 c-3 -10
-62 -105 -131 -211 l-127 -193 -25 17 c-14 9 -28 15 -30 12 -3 -3 6 -11 20
-18 l26 -14 -4 -11 c-3 -6 -112 -172 -242 -370 l-238 -360 -37 -80 c-21 -44
-42 -91 -47 -104 l-9 -25 -32 68 -32 68 61 79 c34 44 133 194 221 332 88 139
185 287 215 330 l55 78 24 -16 c35 -23 43 -18 11 8 l-28 22 118 176 c65 97
132 199 150 228 l32 51 -10 0 c-5 0 -22 -21 -37 -46 -15 -25 -80 -125 -145
-223 l-118 -176 -10 3 c-5 1 -71 43 -145 92 -73 50 -134 87 -134 83 0 -5 63
-49 140 -100 l139 -92 -63 -93 c-35 -51 -132 -200 -215 -331 -83 -131 -180
-276 -215 -322 l-63 -85 -109 76 c-115 81 -233 180 -324 274 -30 31 -70 67
-88 81 l-33 25 157 209 c158 211 388 550 382 565 -2 5 -48 -62 -103 -148
l-100 -157 -169 -225 c-93 -124 -170 -227 -172 -229 -1 -2 -16 6 -32 18 -45
32 -48 25 -6 -14 20 -19 41 -35 45 -35 5 0 41 -33 81 -73 116 -117 245 -228
350 -301 54 -37 100 -71 103 -76 l5 -9 -10 -6 c-5 -3 -10 -11 -10 -17 l0 -11
19 17 18 17 11 -13 c5 -7 38 -71 71 -142 l61 -130 -12 -8 -13 -8 22 0 21 0 4
9 c5 15 244 144 528 286 150 75 270 138 267 141 -7 7 -476 -228 -654 -327 -78
-43 -145 -79 -150 -79 -4 0 -22 32 -40 70 l-31 70 8 5 c4 3 11 21 14 40 l7 35
44 84 44 84 231 348 c127 192 234 349 238 349 5 0 110 -65 235 -145 l226 -145
1 -12 0 -12 14 5 c8 3 16 13 19 22 2 9 47 79 100 155 l95 137 -8 0 c-7 0 -62
-76 -201 -283 l-6 -9 -231 149 c-127 81 -231 152 -231 157 -1 5 58 99 130 209
l132 199 -17 35 c-22 46 -56 190 -66 278 l-7 70 -2 -58z"/>
<path d="M50825 55209 l-70 -18 47 4 c26 2 62 11 80 19 44 19 28 18 -57 -5z"/>
<path d="M50926 55192 c-3 -5 -8 -29 -11 -53 l-5 -44 14 50 c14 48 15 67 2 47z"/>
<path d="M26510 55170 l0 -10 15 0 c8 0 15 2 15 4 0 2 -7 6 -15 10 l-15 5 0
-9z"/>
<path d="M55229 55130 l23 -20 10 6 9 6 -18 14 c-10 7 -25 13 -33 13 l-15 0
24 -19z"/>
<path d="M55312 55121 c2 -5 63 -61 137 -125 l134 -115 25 -35 c14 -20 29 -36
34 -36 13 0 10 8 -16 46 l-23 35 -139 119 c-77 66 -143 120 -147 120 l-9 0 4
-9z"/>
<path d="M61980 55124 c0 -5 19 -111 42 -236 l43 -228 8 0 8 0 -5 18 c-3 9
-23 113 -46 231 -35 188 -49 248 -50 215z"/>
<path d="M47295 54980 c3 -5 8 -10 11 -10 3 0 2 5 -1 10 -3 6 -8 10 -11 10 -3
0 -2 -4 1 -10z"/>
<path d="M33420 54959 c0 -4 57 -21 128 -39 70 -17 137 -37 150 -44 l23 -12
29 -45 c17 -24 30 -39 30 -34 0 15 -51 88 -69 100 -9 5 -78 26 -153 46 l-138
35 0 -7z"/>
<path d="M52300 54963 c1 -11 50 -46 56 -40 3 3 -9 15 -25 27 l-31 21 0 -8z"/>
<path d="M52125 54742 l-140 -216 -137 -175 c-75 -97 -135 -178 -132 -180 2
-2 6 -2 7 0 2 2 62 78 133 169 l130 165 133 205 c74 113 141 215 149 228 l14
22 -8 0 c-5 -1 -72 -98 -149 -218z"/>
<path d="M50947 54912 l-28 -37 5 -20 c3 -11 6 -26 6 -32 l0 -13 121 -96 c66
-52 123 -94 125 -91 3 2 -48 47 -113 98 l-117 94 -7 29 -8 29 29 34 c31 35 35
43 23 43 -5 -1 -21 -17 -36 -38z"/>
<path d="M47670 54871 l0 -59 47 -112 47 -113 4 12 4 12 -41 99 -41 99 0 60 0
61 -10 0 -10 0 0 -59z"/>
<path d="M47637 54903 c-4 -3 -7 -26 -7 -49 l0 -43 74 -193 c41 -106 83 -213
94 -238 l20 -45 44 -51 44 -51 44 -97 c24 -53 47 -96 51 -96 4 0 -15 48 -42
107 l-50 106 -43 51 -43 51 -31 75 c-16 41 -58 148 -92 238 l-62 162 7 40 c7
39 5 47 -8 33z"/>
<path d="M80621 54787 c-1 -9 20 -102 46 -205 l47 -187 3 15 c1 8 -19 101 -46
205 -27 105 -50 182 -50 172z"/>
<path d="M11255 54769 l-80 -18 -80 -1 c-44 -1 -100 -5 -125 -10 l-45 -9 125
5 125 5 75 16 c41 8 82 19 90 24 l15 8 -10 0 c-5 -1 -46 -9 -90 -20z"/>
<path d="M48167 54588 c46 -90 102 -200 126 -245 23 -46 45 -83 50 -83 l9 0
-45 83 c-24 45 -82 155 -128 245 -46 89 -86 162 -90 162 -3 0 32 -73 78 -162z"/>
<path d="M49786 54398 c-186 -93 -336 -171 -333 -174 4 -4 662 319 676 332 25
23 -55 -14 -343 -158z"/>
<path d="M32992 54509 l4 -14 195 -132 194 -133 58 -17 59 -17 -22 -16 -22
-17 -5 -47 -6 -47 -26 -49 -26 -49 -154 -123 -154 -122 12 -4 11 -4 153 122
152 121 18 40 18 40 37 -31 c35 -29 62 -39 62 -22 0 4 -13 15 -30 24 l-29 17
-14 33 -14 33 18 35 17 36 24 11 c12 7 32 13 42 15 l19 3 4 12 4 11 -20 -5
-21 -5 -72 17 -73 18 -195 131 c-107 73 -201 136 -209 140 l-14 9 5 -14z"/>
<path d="M60943 54458 c-22 -35 -90 -141 -152 -236 -61 -96 -107 -172 -102
-170 13 4 312 468 301 468 -4 0 -26 -28 -47 -62z"/>
<path d="M85150 54405 l-165 -42 -65 -31 c-36 -17 -59 -31 -52 -31 7 -1 35 10
61 24 l49 24 172 45 c95 25 175 48 178 51 l5 5 -9 -1 c-5 0 -83 -20 -174 -44z"/>
<path d="M88020 54377 l-34 -22 -9 -32 -9 -32 6 -36 7 -36 8 6 9 5 -5 44 -5
44 25 26 26 26 38 0 38 0 25 -20 25 -19 0 -44 0 -45 -17 -19 c-20 -22 -23 -33
-8 -33 6 0 19 15 30 33 l20 32 0 27 c0 58 -37 100 -101 112 l-36 6 -33 -23z"/>
<path d="M51440 54365 l-12 -15 10 0 c12 0 26 19 19 26 -2 2 -10 -2 -17 -11z"/>
<path d="M51493 54373 c11 -18 198 -166 203 -161 4 5 -160 141 -195 163 l-14
8 6 -10z"/>
<path d="M49082 54218 c-128 -66 -231 -122 -229 -125 3 -2 114 52 248 121 134
69 237 126 229 125 -8 0 -120 -54 -248 -121z"/>
<path d="M88006 54211 l-6 -9 26 -16 25 -17 31 3 31 3 5 13 4 13 -25 -6 -25
-7 -30 16 -31 16 -5 -9z"/>
<path d="M33600 54194 c0 -3 11 -15 24 -25 l24 -19 7 -28 6 -29 -11 -28 c-6
-16 -18 -34 -27 -40 l-16 -12 11 -7 12 -7 18 10 18 10 13 40 12 40 -15 34 -14
34 -23 17 c-24 17 -39 20 -39 10z"/>
<path d="M45740 54180 c-6 -48 1 -226 12 -328 l11 -102 12 -16 12 -17 -14 74
-14 74 -8 170 c-4 94 -9 159 -11 145z"/>
<path d="M87815 54083 c-93 -63 -178 -119 -187 -126 -10 -6 -18 -17 -18 -24
l0 -12 188 126 c103 69 191 129 195 133 l9 8 -9 5 -8 4 -170 -114z"/>
<path d="M51680 54165 l-12 -15 -9 6 -9 5 0 -14 0 -15 -75 -88 c-41 -49 -75
-93 -75 -98 0 -5 2 -7 4 -5 2 2 36 42 76 89 40 47 76 89 80 94 l9 9 98 -81 98
-80 25 -7 25 -8 100 -91 c55 -50 137 -117 181 -149 l82 -57 30 -47 c17 -27 58
-113 92 -191 l61 -144 -16 -18 -16 -18 -90 -7 -89 -7 0 -7 0 -7 93 8 92 9 17
20 16 19 25 -52 c128 -274 221 -465 229 -473 l11 -10 -6 15 c-3 8 -63 139
-135 290 -71 151 -157 338 -191 415 -35 77 -74 157 -89 178 l-25 38 -81 57
c-45 31 -126 98 -182 149 l-101 92 -25 6 -24 6 -72 59 c-40 32 -84 68 -98 79
l-25 20 11 20 c13 25 8 27 -10 6z"/>
<path d="M51256 54122 l-4 -7 236 -207 c130 -114 285 -245 343 -291 l105 -85
80 -87 c43 -47 98 -115 122 -151 36 -55 62 -79 62 -58 0 15 -89 133 -172 227
l-93 106 -138 111 c-76 60 -225 187 -331 280 -107 94 -196 170 -199 170 -3 0
-8 -3 -11 -8z"/>
<path d="M54937 54053 c-118 -376 -208 -675 -205 -683 2 -6 56 161 121 371 65
210 116 384 113 386 -2 3 -16 -30 -29 -74z"/>
<path d="M51232 54070 l-22 -19 11 -6 11 -7 20 20 20 20 -9 5 -8 5 -23 -18z"/>
<path d="M33697 54073 l-6 -10 52 -51 52 -51 194 -130 194 -130 9 5 9 6 -193
130 -193 130 -56 55 -57 55 -5 -9z"/>
<path d="M50355 53986 c-115 -51 -239 -106 -275 -122 -36 -15 -133 -64 -217
-108 l-152 -80 5 -7 4 -7 152 80 c142 75 317 157 583 273 61 27 114 52 120 57
l9 8 -9 -1 c-6 0 -104 -42 -220 -93z"/>
<path d="M51186 54043 l-7 -7 23 -17 c12 -10 21 -19 18 -22 -16 -13 -184 -110
-232 -133 -49 -24 -73 -44 -53 -44 10 0 145 70 220 115 42 25 81 45 87 45 5 0
43 -27 83 -60 74 -61 85 -67 85 -51 0 7 -116 104 -206 173 l-11 8 -7 -7z"/>
<path d="M80810 54032 c0 -10 263 -1072 301 -1214 l10 -38 9 0 10 0 -10 23
c-5 12 -78 294 -160 627 -83 332 -153 607 -156 609 -2 2 -4 -1 -4 -7z"/>
<path d="M13308 53710 c-60 -87 -108 -165 -108 -172 l0 -12 14 14 c11 12 196
279 220 319 l7 11 -13 0 -13 -1 -107 -159z"/>
<path d="M49315 53749 c-132 -65 -235 -118 -229 -118 10 -1 463 215 473 225
20 20 -37 -5 -244 -107z"/>
<path d="M13437 53834 l-5 -6 170 -140 c94 -77 177 -142 184 -145 l14 -5 0 8
c-1 8 -315 269 -345 286 l-12 7 -6 -5z"/>
<path d="M9920 53811 l0 -10 53 -15 c28 -8 75 -20 102 -27 28 -7 101 -32 164
-56 l114 -44 9 9 9 9 -123 47 c-107 40 -291 96 -319 96 -5 0 -9 -4 -9 -9z"/>
<path d="M21654 53795 l26 -24 -1 -58 c0 -32 -6 -111 -12 -175 l-12 -118 7 0
c5 0 8 6 8 13 0 6 5 62 11 122 5 61 10 137 11 169 l1 59 -23 19 c-12 10 -27
18 -33 18 l-10 0 27 -25z"/>
<path d="M18694 53765 c4 -15 10 -41 13 -59 3 -17 13 -39 21 -48 l15 -18 39 0
40 0 81 20 c100 25 111 29 105 36 -3 3 -52 -7 -108 -21 l-103 -26 -28 6 -29 7
-9 16 c-5 9 -12 36 -16 59 l-7 43 -10 6 -11 7 7 -28z"/>
<path d="M59990 53778 c26 -26 410 -262 533 -327 97 -51 243 -114 226 -97 -2
3 -81 43 -174 89 l-170 84 -110 70 c-60 38 -150 96 -198 127 -49 32 -96 60
-105 63 l-17 6 15 -15z"/>
<path d="M50910 53772 c0 -5 43 -43 95 -85 l96 -75 -47 -33 c-41 -28 -523
-269 -539 -269 -3 0 -22 35 -41 78 -40 86 -85 162 -97 162 l-8 0 21 -30 c12
-16 40 -69 62 -117 l42 -88 -2 -18 -1 -17 9 5 9 5 6 -21 c14 -42 76 -171 80
-167 3 3 -14 46 -36 97 -23 50 -40 93 -37 96 2 2 116 59 252 125 136 66 268
134 292 151 l44 30 9 -5 9 -6 5 19 5 20 -14 -6 -13 -5 -101 82 c-55 44 -100
77 -100 72z"/>
<path d="M54605 53684 c-466 -226 -566 -276 -562 -280 3 -4 640 300 656 313 2
2 2 5 0 7 -2 2 -44 -16 -94 -40z"/>
<path d="M42934 53482 l-201 -197 -45 -70 c-25 -38 -58 -94 -72 -124 l-27 -53
7 -17 6 -16 15 35 c24 56 82 149 145 232 l59 76 165 160 c90 87 164 162 164
165 0 18 -30 -8 -216 -191z"/>
<path d="M50160 53662 c-54 -28 -320 -193 -326 -204 l-6 -10 18 10 c11 6 88
53 173 106 85 53 160 96 167 96 7 0 16 5 19 10 l6 10 -8 0 c-4 -1 -24 -9 -43
-18z"/>
<path d="M68801 53632 l95 -47 60 -47 c32 -26 72 -64 87 -83 16 -20 31 -34 34
-31 9 8 -67 91 -125 136 l-53 41 -81 40 c-45 21 -89 39 -97 38 l-16 0 96 -47z"/>
<path d="M49741 53576 l-12 -15 -27 -4 -27 -4 31 -2 32 -1 12 15 c7 9 11 18 8
20 -3 3 -11 -1 -17 -9z"/>
<path d="M60427 53551 c34 -22 115 -65 180 -96 l118 -57 228 -73 c125 -40 227
-69 227 -66 0 4 -91 36 -202 70 l-203 63 -150 71 c-82 39 -169 83 -192 99 -23
15 -48 28 -55 28 l-13 0 62 -39z"/>
<path d="M48610 53443 c-52 -30 -175 -94 -273 -144 -98 -50 -176 -93 -174 -96
6 -6 274 128 425 213 122 69 128 72 121 77 -2 2 -47 -21 -99 -50z"/>
<path d="M51440 53440 l65 -60 53 -26 c28 -15 52 -28 52 -30 0 -2 -23 -15 -51
-30 -28 -14 -49 -28 -46 -30 5 -5 127 53 127 60 0 3 -25 16 -55 30 l-55 25
-70 60 c-91 78 -105 79 -20 1z"/>
<path d="M48740 53481 c0 -30 218 -506 227 -497 2 2 -30 75 -71 162 -41 88
-91 200 -111 249 -39 95 -45 106 -45 86z"/>
<path d="M51950 53460 l0 -9 15 5 c8 4 15 8 15 10 0 2 -7 4 -15 4 l-15 0 0
-10z"/>
<path d="M49600 53183 l-185 -116 -90 -40 c-136 -61 -747 -377 -772 -400 l-23
-20 0 -16 0 -15 28 26 27 26 294 153 c162 84 338 172 391 195 52 23 122 58
155 77 97 57 369 227 380 238 l9 9 -14 0 c-8 0 -98 -53 -200 -117z"/>
<path d="M50753 53162 c-106 -53 -193 -100 -193 -104 0 -8 138 59 310 151 158
84 87 56 -117 -47z"/>
<path d="M49617 53127 c-114 -61 -205 -112 -203 -115 4 -3 403 201 415 214 20
20 -34 -6 -212 -99z"/>
<path d="M50531 53050 c49 -105 89 -193 89 -195 0 -3 -75 -43 -167 -89 -190
-95 -233 -118 -233 -128 0 -3 42 16 93 44 50 28 142 74 204 103 l112 53 4 -11
3 -11 6 22 6 22 -8 0 c-4 0 -47 86 -96 190 -48 105 -91 190 -95 190 -4 0 33
-86 82 -190z"/>
<path d="M53670 53181 c0 -51 6 -53 12 -5 l4 35 -8 5 -8 5 0 -40z"/>
<path d="M56600 53178 l-245 -19 -127 5 c-122 4 -168 1 -168 -13 l0 -6 142 2
c79 2 256 10 393 19 138 8 381 19 540 23 l290 8 -290 0 -290 0 -245 -19z"/>
<path d="M56960 53150 l-45 -7 110 0 c61 0 175 3 255 7 l145 6 -210 1 -210 0
-45 -7z"/>
<path d="M34650 53111 c0 -5 9 -11 20 -14 l20 -5 6 -31 7 -31 8 0 9 0 0 19 0
18 -21 27 -20 26 -15 0 -14 0 0 -9z"/>
<path d="M51225 53084 c-286 -146 -516 -267 -512 -270 2 -3 132 61 288 142
l284 146 25 1 c14 1 36 -2 50 -6 l25 -8 -25 15 c-14 9 -34 15 -45 15 l-20 0
-70 -35z"/>
<path d="M55211 53079 l-19 -21 -7 -43 -6 -44 15 -28 14 -29 51 -16 51 -16 0
13 0 13 -37 12 -38 12 -12 16 -13 16 0 38 0 38 20 20 c21 21 26 40 10 40 -5 0
-18 -9 -29 -21z"/>
<path d="M55417 53084 l-6 -7 14 -21 15 -20 0 -29 c0 -16 -5 -38 -11 -49 l-11
-20 10 -10 10 -10 17 32 17 32 -7 37 c-11 58 -30 83 -48 65z"/>
<path d="M34556 52938 c-9 -46 -16 -98 -16 -115 l0 -33 10 0 10 0 0 43 c1 23
7 71 15 107 17 78 17 80 6 80 l-8 0 -17 -82z"/>
<path d="M53214 53010 c-5 -5 -103 -56 -218 -114 -114 -58 -211 -108 -214
-111 -15 -15 65 22 234 107 184 93 221 114 213 123 -3 2 -10 0 -15 -5z"/>
<path d="M11896 52981 l-6 -9 156 -117 156 -117 10 10 9 9 -147 109 c-81 60
-153 112 -160 117 l-13 7 -5 -9z"/>
<path d="M53030 52836 c-113 -57 -270 -135 -349 -175 -79 -40 -141 -74 -138
-77 3 -3 64 24 136 60 72 36 135 66 140 66 l10 0 95 -182 c53 -101 96 -177 96
-170 0 6 -41 91 -91 188 -50 96 -90 176 -88 178 2 2 96 51 209 110 113 58 201
105 195 105 -5 0 -102 -47 -215 -103z"/>
<path d="M49459 52798 l-12 -23 19 16 c10 10 28 19 39 22 l20 5 -27 1 -27 1
-12 -22z"/>
<path d="M50048 52781 c21 -48 28 -46 12 3 l-12 36 -8 0 -9 0 17 -39z"/>
<path d="M48362 52766 c6 -14 15 -26 20 -26 l9 0 -11 19 c-5 11 -15 23 -20 26
l-10 6 12 -25z"/>
<path d="M49560 52772 c0 -17 83 -223 88 -218 4 4 -75 216 -84 225 -2 2 -4 -1
-4 -7z"/>
<path d="M48865 52729 l-7 -30 17 -72 18 -72 58 -123 c47 -99 99 -189 99 -171
0 2 -31 68 -70 146 l-69 142 -17 63 -16 63 1 43 c1 49 -5 55 -14 11z"/>
<path d="M48448 52705 c-3 -3 3 -22 14 -43 l19 -37 -2 -47 -3 -48 8 -7 7 -7 9
14 10 15 0 41 0 41 -12 34 c-14 41 -35 59 -50 44z"/>
<path d="M42190 52658 l0 -14 53 -31 c28 -18 78 -43 109 -57 l57 -25 5 8 6 8
-73 33 c-39 17 -85 42 -102 54 -16 12 -36 26 -42 30 l-13 7 0 -13z"/>
<path d="M48195 52630 l-6 -10 20 0 c25 0 27 6 6 13 l-14 6 -6 -9z"/>
<path d="M48162 52588 l-22 -25 -140 -72 -140 -72 0 -15 0 -14 148 74 147 74
18 20 19 21 -4 16 -3 17 -23 -24z"/>
<path d="M54491 52570 l-1 -45 -50 -164 -50 -163 1 -32 2 -31 4 25 c2 14 26
97 52 185 27 88 51 174 53 190 l5 30 -7 25 -8 25 -1 -45z"/>
<path d="M48856 52543 c9 -36 121 -262 142 -285 8 -10 20 -18 25 -18 l10 0
-21 23 -21 23 -61 127 c-33 70 -60 131 -60 136 0 6 -5 13 -10 16 l-11 7 7 -29z"/>
<path d="M46190 52512 l0 -9 188 -95 c103 -53 198 -99 212 -103 14 -3 -60 37
-165 90 -104 53 -200 103 -212 111 l-23 14 0 -8z"/>
<path d="M12504 52479 c-3 -6 -4 -12 -3 -13 2 -2 91 -63 197 -136 l194 -132 9
9 10 10 -83 55 c-46 31 -136 92 -200 137 l-117 81 -7 -11z"/>
<path d="M48270 52476 c0 -8 5 -18 10 -21 l10 -6 10 6 11 7 -12 14 c-6 8 -15
14 -20 14 l-9 0 0 -14z"/>
<path d="M48398 52477 l-17 -13 8 -13 8 -13 21 11 21 11 -5 15 c-7 18 -14 18
-36 2z"/>
<path d="M50626 52368 c-109 -54 -196 -101 -193 -104 4 -4 383 179 396 192 2
2 2 6 0 8 -2 2 -93 -41 -203 -96z"/>
<path d="M48234 52419 l50 -8 24 -18 25 -19 189 -389 c104 -214 191 -392 194
-394 25 -25 -49 134 -344 739 l-27 55 -34 22 -34 23 -46 -1 -46 -1 49 -9z"/>
<path d="M48163 52413 l7 -6 7 6 6 7 -13 0 -13 0 6 -7z"/>
<path d="M31006 52351 c-71 -64 -196 -157 -221 -165 -11 -3 -155 -19 -320 -36
-321 -32 -379 -39 -372 -46 2 -3 161 11 352 31 l348 36 21 11 c59 31 276 218
253 218 -4 0 -31 -22 -61 -49z"/>
<path d="M49285 52364 c-162 -85 -236 -127 -232 -131 3 -2 64 25 136 61 l131
66 0 10 c0 12 1 13 -35 -6z"/>
<path d="M27002 52263 l9 -68 -5 -160 -5 -160 8 30 9 30 1 136 c0 75 -2 164
-5 198 l-7 61 -7 0 -6 0 8 -67z"/>
<path d="M52930 52307 c0 -16 49 -103 69 -121 l22 -20 147 -299 146 -299 4 10
3 10 -147 294 -146 293 -34 38 c-19 20 -34 43 -34 50 0 14 -29 57 -30 44z"/>
<path d="M30347 52180 c-136 -15 -251 -30 -254 -34 l-6 -6 9 0 c5 0 114 11
242 25 128 14 242 25 253 25 l19 0 0 10 c0 6 -3 9 -7 9 -5 -1 -120 -14 -256
-29z"/>
<path d="M21660 52069 c-6 -95 -29 -718 -29 -774 1 -158 8 -53 24 353 l17 414
-6 6 c-3 3 -6 3 -6 1z"/>
<path d="M54418 52034 l-4 -35 7 -5 8 -5 10 20 c6 11 11 29 11 40 l0 21 -14 0
-14 0 -4 -36z"/>
<path d="M54048 51929 l-218 -109 0 -10 0 -10 13 0 c6 0 106 49 221 109 l210
108 4 11 4 12 -9 -1 c-4 0 -106 -49 -225 -110z"/>
<path d="M54265 51991 l-5 -9 26 -21 c45 -35 65 -17 22 20 -26 21 -34 23 -43
10z"/>
<path d="M88821 51847 l-185 -141 12 -4 11 -3 168 128 c92 70 174 133 182 139
l14 11 -9 6 -9 5 -184 -141z"/>
<path d="M37400 51770 c55 -110 102 -200 105 -200 3 0 -40 90 -95 200 -55 110
-102 200 -105 200 -3 0 40 -90 95 -200z"/>
<path d="M53293 51780 c45 -93 85 -170 89 -170 3 0 -30 77 -75 170 -45 94 -85
170 -89 170 -3 0 30 -76 75 -170z"/>
<path d="M13239 51813 c-31 -43 -73 -101 -93 -130 l-37 -51 9 -6 8 -5 92 128
c51 71 92 131 92 135 0 19 -21 -2 -71 -71z"/>
<path d="M49524 51786 c11 -9 26 -16 33 -16 l13 0 0 10 0 10 -14 0 c-8 0 -23
3 -33 6 l-18 6 19 -16z"/>
<path d="M13686 51712 l-5 -9 173 -118 174 -117 11 7 12 7 -175 119 c-96 65
-177 119 -180 119 -3 0 -7 -4 -10 -8z"/>
<path d="M91280 51632 c0 -4 61 -38 135 -75 l135 -67 0 -10 c0 -6 -14 -35 -30
-64 l-31 -54 8 -5 8 -5 34 63 34 64 -13 16 -14 17 -128 64 c-134 67 -138 69
-138 56z"/>
<path d="M82500 51596 c0 -8 109 -445 116 -465 2 -8 6 -12 9 -10 5 5 -111 468
-119 476 l-6 6 0 -7z"/>
<path d="M35423 51447 l-133 -9 0 -7 0 -7 168 12 c92 7 185 14 207 17 l40 4
-75 0 c-41 0 -135 -4 -207 -10z"/>
<path d="M88037 51322 l-179 -136 12 -4 11 -4 175 133 c96 73 177 136 180 141
l5 8 -13 -1 c-7 0 -93 -62 -191 -137z"/>
<path d="M35716 51278 c13 -84 29 -192 36 -240 l12 -88 6 0 7 0 -23 153 c-13
83 -29 191 -36 240 l-12 87 -6 0 -7 0 23 -152z"/>
<path d="M34166 51401 l-6 -10 9 -5 10 -6 5 9 6 10 -9 5 -10 6 -5 -9z"/>
<path d="M18382 51349 c2 -7 10 -15 17 -17 l14 -4 -5 13 c-2 7 -10 15 -17 17
l-13 5 4 -14z"/>
<path d="M34157 51343 c7 -22 32 -43 50 -43 l13 0 0 10 0 10 -15 0 -14 0 -11
20 c-6 11 -15 20 -20 20 l-9 0 6 -17z"/>
<path d="M42012 51323 c2 -5 10 -21 18 -37 l14 -28 101 -68 c55 -36 140 -89
189 -116 l89 -49 49 -55 49 -55 64 -120 63 -120 20 -70 20 -70 -4 -40 -3 -40
11 43 11 43 -24 77 -24 77 -62 115 -62 115 -51 58 -52 57 -91 50 c-51 27 -132
78 -182 113 l-90 63 -20 31 c-11 18 -24 32 -28 33 -5 0 -7 -3 -5 -7z"/>
<path d="M44284 51259 l-3 -6 202 -12 c111 -7 212 -14 225 -17 l22 -4 0 10 0
10 -47 1 c-27 0 -126 6 -221 12 l-174 12 -4 -6z"/>
<path d="M45775 51225 c3 -16 17 -49 30 -71 l24 -42 48 -30 48 -31 69 -15 c38
-9 71 -14 73 -12 5 5 -41 18 -103 31 l-30 6 -50 35 -49 34 -33 63 -34 62 7
-30z"/>
<path d="M32563 51226 l-191 -11 -9 -9 -8 -8 75 6 c41 3 165 11 275 17 203 11
273 20 129 17 -43 0 -165 -6 -271 -12z"/>
<path d="M79936 51193 c7 -31 89 -357 105 -415 l10 -38 13 0 13 0 -53 201
c-29 110 -55 218 -59 240 l-7 39 -14 0 -14 0 6 -27z"/>
<path d="M21623 51173 l7 -6 7 6 6 7 -13 0 -13 0 6 -7z"/>
<path d="M22387 51143 l-7 -10 131 -8 131 -7 11 11 11 11 -39 0 c-22 0 -83 3
-136 6 l-96 7 -6 -10z"/>
<path d="M44895 51085 c17 -14 35 -25 40 -25 l10 1 -30 24 c-16 14 -34 25 -40
25 l-10 -1 30 -24z"/>
<path d="M49142 51092 l-13 -9 100 -206 100 -207 15 6 c9 3 16 9 16 13 0 11
-194 411 -200 411 -3 0 -11 -4 -18 -8z"/>
<path d="M89443 51090 c3 -8 30 -76 60 -150 30 -74 65 -170 78 -212 l22 -78 8
0 7 0 -32 103 c-37 115 -122 327 -138 342 l-11 10 6 -15z"/>
<path d="M7560 50730 l0 -10 23 -5 c12 -2 114 -16 226 -30 l203 -26 6 5 c3 4
3 8 1 10 -2 2 -96 16 -209 30 -113 15 -215 29 -227 31 l-23 5 0 -10z"/>
<path d="M50144 50616 l41 -44 110 -232 c60 -127 111 -228 112 -223 2 5 -45
110 -104 234 l-108 224 -34 43 -34 42 -12 0 -11 0 40 -44z"/>
<path d="M46310 50521 c52 -9 101 -20 108 -24 l13 -9 -6 -27 -6 -26 11 -75
c12 -86 30 -150 41 -150 l8 0 -15 43 -15 42 -7 110 -7 110 -65 11 c-36 7 -85
12 -110 12 l-45 0 95 -17z"/>
<path d="M49684 50437 c-105 -60 -124 -74 -124 -94 l0 -14 23 25 22 26 85 46
c47 25 89 50 95 55 l9 9 -9 -1 c-6 0 -51 -24 -101 -52z"/>
<path d="M30620 50468 c-63 -5 -120 -10 -126 -12 l-11 -4 -6 -51 -6 -50 7 -38
7 -38 5 85 5 85 150 12 c83 6 164 13 180 16 l30 4 -60 0 c-33 0 -112 -4 -175
-9z"/>
<path d="M31493 50471 l-121 -6 -7 -7 -7 -6 155 5 156 6 5 -34 c3 -19 12 -149
21 -289 9 -140 18 -256 20 -259 8 -7 5 66 -13 339 l-17 255 -35 1 c-19 0 -90
-2 -157 -5z"/>
<path d="M42717 50453 c-4 -3 -7 -19 -7 -35 0 -16 -20 -106 -45 -201 l-45
-172 11 -65 c14 -90 22 -90 14 0 l-7 75 40 160 c38 150 57 245 49 245 -2 0 -7
-3 -10 -7z"/>
<path d="M30700 50433 c-19 -1 -68 -6 -107 -9 l-73 -6 2 -71 2 -72 3 67 4 66
102 7 c56 4 129 11 162 15 l60 7 -60 0 c-33 0 -76 -2 -95 -4z"/>
<path d="M48650 50349 l-73 -52 -86 -40 c-47 -21 -96 -43 -109 -48 l-23 -9 5
-9 6 -9 103 45 102 46 78 54 c42 30 77 59 77 64 0 14 -1 13 -80 -42z"/>
<path d="M33573 50360 c3 -19 18 -114 34 -210 15 -96 29 -168 30 -160 5 20
-54 391 -63 399 l-7 6 6 -35z"/>
<path d="M61325 50329 c121 -27 227 -48 235 -46 17 3 -417 98 -440 96 -8 0 84
-23 205 -50z"/>
<path d="M9357 50334 l-5 -6 170 -158 171 -159 10 6 9 5 -14 13 c-7 6 -78 72
-158 146 -80 74 -152 140 -161 147 l-16 12 -6 -6z"/>
<path d="M34190 49980 l0 -10 50 0 50 0 0 10 0 10 -50 0 -50 0 0 -10z"/>
<path d="M84194 49934 c-81 -55 -284 -215 -284 -224 l0 -10 143 109 c160 122
175 131 214 132 l28 0 -20 9 c-31 13 -40 12 -81 -16z"/>
<path d="M34320 49929 c0 -10 28 -19 61 -19 l29 0 0 9 0 9 -45 4 -45 3 0 -6z"/>
<path d="M33713 49855 c3 -22 29 -211 57 -420 51 -373 57 -412 64 -404 6 6
-112 850 -120 857 l-7 7 6 -40z"/>
<path d="M34264 49834 c3 -27 13 -121 22 -209 8 -88 17 -166 20 -174 l5 -14 8
9 9 9 -21 209 -22 209 -14 5 -13 4 6 -48z"/>
<path d="M49776 49852 l-5 -9 126 -192 126 -192 15 15 15 15 -123 186 -123
185 -13 0 c-7 0 -15 -4 -18 -8z"/>
<path d="M30507 49545 c3 -99 9 -211 13 -250 l8 -70 -5 215 -5 215 -8 35 -8
35 5 -180z"/>
<path d="M57195 49599 c-115 -59 -204 -108 -197 -109 7 0 102 45 213 100 l201
101 20 -7 20 -6 -4 13 -5 14 -19 1 -19 1 -210 -108z"/>
<path d="M49839 49644 c-7 -9 -23 -20 -36 -25 l-23 -9 0 -13 0 -14 24 4 24 5
23 24 23 24 -11 11 -10 10 -14 -17z"/>
<path d="M43460 49606 c0 -10 174 -356 177 -352 5 4 -164 356 -171 356 -3 0
-6 -2 -6 -4z"/>
<path d="M49826 49495 c20 -44 61 -123 91 -177 l56 -96 13 5 14 5 0 -28 0 -28
71 -121 c39 -66 129 -208 199 -315 70 -107 148 -233 173 -280 93 -174 199
-356 236 -405 21 -27 55 -76 76 -107 44 -68 58 -77 22 -15 -13 23 -58 103
-100 177 -41 74 -101 180 -133 235 -31 55 -83 145 -114 200 -31 55 -90 150
-130 210 -75 111 -224 353 -387 629 -48 83 -96 159 -105 170 l-18 21 36 -80z"/>
<path d="M38155 49541 c-3 -11 -26 -96 -50 -190 l-43 -171 7 0 c8 0 104 370
98 377 -3 2 -8 -5 -12 -16z"/>
<path d="M37495 49280 l-6 -9 23 -6 c151 -36 423 -93 427 -89 11 10 -20 20
-200 60 -105 23 -202 45 -215 48 l-23 6 -6 -10z"/>
<path d="M37963 49080 c3 -14 20 -116 38 -227 l33 -203 9 0 8 0 -5 18 c-2 9
-19 107 -37 217 l-32 200 -10 10 -10 10 6 -25z"/>
<path d="M64320 49051 c-13 -26 -13 -53 3 -74 l12 -17 0 55 c0 30 -1 55 -2 55
-1 0 -7 -9 -13 -19z"/>
<path d="M50022 48991 l-14 -8 71 -123 c39 -67 151 -243 247 -391 l177 -269
13 0 c7 0 15 4 18 8 l5 9 -182 279 c-101 153 -212 330 -247 391 -36 62 -67
113 -70 113 -3 0 -11 -4 -18 -9z"/>
<path d="M64721 48962 l-1 -24 -21 -30 c-12 -16 -19 -31 -16 -34 3 -3 15 9 27
25 l21 31 -4 27 -4 28 -2 -23z"/>
<path d="M75926 48952 l-5 -9 37 -51 37 -51 23 -1 22 0 0 10 0 10 -24 9 -23 9
-31 42 -30 41 -6 -9z"/>
<path d="M64360 48928 l0 -14 124 -32 c68 -18 131 -32 140 -32 l16 0 0 8 0 9
-127 33 c-71 18 -134 35 -140 38 l-13 4 0 -14z"/>
<path d="M76440 48859 c-19 -5 -126 -20 -238 -33 -183 -21 -224 -29 -211 -40
6 -5 397 41 457 54 l52 12 0 9 0 9 -12 -1 c-7 -1 -29 -5 -48 -10z"/>
<path d="M91417 48678 c-81 -94 -147 -176 -147 -182 l0 -10 8 10 c5 5 64 74
132 154 68 80 132 155 143 167 11 13 18 25 15 28 -2 3 -70 -73 -151 -167z"/>
<path d="M80823 48627 l-202 -112 -1 -12 c0 -7 3 -13 8 -13 4 0 99 51 212 114
l204 113 4 12 4 11 -14 0 c-7 -1 -104 -51 -215 -113z"/>
<path d="M40447 48688 c10 -17 24 -33 31 -36 l14 -4 -24 36 c-13 20 -27 36
-31 36 l-9 0 19 -32z"/>
<path d="M46763 48659 l-52 -30 -102 -34 -103 -35 -70 0 -71 0 -37 -11 -38
-10 0 -11 0 -10 28 6 c15 4 68 9 117 12 l90 5 93 31 94 30 56 32 55 31 5 13 4
12 -9 0 c-4 0 -31 -14 -60 -31z"/>
<path d="M14545 48612 l10 -10 133 -31 134 -31 56 1 57 0 20 9 20 8 -66 -5
-65 -6 -135 32 c-74 18 -143 34 -154 38 l-20 5 10 -10z"/>
<path d="M66368 48599 l12 -13 0 -21 0 -21 -16 -22 -15 -22 8 0 c5 0 14 5 21
12 l12 12 0 37 0 37 -17 7 -18 6 13 -12z"/>
<path d="M33595 48589 c-71 -5 -139 -10 -150 -13 -29 -6 264 5 360 14 l80 7
-80 0 c-44 0 -138 -4 -210 -8z"/>
<path d="M34115 48576 l-200 -11 -3 8 -4 8 -11 -9 -12 -10 -230 -12 c-126 -6
-232 -14 -234 -16 -7 -7 84 -5 282 7 104 6 190 9 192 7 2 -1 15 -86 29 -188
28 -198 35 -235 41 -228 2 2 -9 95 -26 207 -16 112 -27 206 -25 208 2 3 118
11 257 19 138 7 254 16 257 19 7 7 -66 4 -313 -9z"/>
<path d="M44039 48498 c22 -56 170 -352 171 -341 0 15 -166 363 -174 363 -3 0
-1 -10 3 -22z"/>
<path d="M41466 48493 c-11 -11 -6 -23 9 -23 l15 0 0 9 c0 6 -4 12 -9 15 l-8
5 -7 -6z"/>
<path d="M66074 48463 c3 -10 8 -30 12 -45 l6 -28 10 0 10 0 -7 37 c-8 44 -12
53 -26 53 l-10 0 5 -17z"/>
<path d="M90530 48424 c0 -14 40 -62 102 -121 l69 -67 89 -63 c49 -35 92 -63
95 -63 l6 0 -5 9 c-4 5 -50 41 -104 79 l-97 70 -62 65 c-35 36 -63 70 -63 75
0 5 -7 12 -15 16 -8 3 -15 3 -15 0z"/>
<path d="M50725 48391 l-7 -12 20 -32 c10 -18 64 -105 119 -194 l101 -163 10
13 11 13 -115 184 c-64 102 -119 189 -124 193 l-8 9 -7 -11z"/>
<path d="M31172 48159 c-85 -4 -156 -10 -160 -14 l-6 -6 184 7 185 7 20 8 20
8 -45 -1 c-25 -1 -114 -4 -198 -9z"/>
<path d="M44150 48079 l-45 -39 -180 -102 c-209 -117 -191 -106 -179 -118 l9
-9 181 102 180 102 49 42 50 42 -10 10 -10 9 -45 -39z"/>
<path d="M37407 48085 l-219 -13 -6 -8 -7 -7 95 6 c52 4 159 9 237 13 l142 7
-5 8 c-3 5 -8 8 -12 8 -4 -1 -105 -7 -225 -14z"/>
<path d="M29384 47965 c3 -55 13 -246 22 -425 9 -179 18 -327 20 -329 7 -8 3
118 -15 481 l-18 358 -7 7 -8 8 6 -100z"/>
<path d="M83986 47998 c19 -32 217 -299 225 -304 l9 -5 0 6 c0 12 -225 314
-233 315 l-8 0 7 -12z"/>
<path d="M47010 47856 c-91 -46 -172 -85 -180 -88 -8 -3 -13 -8 -10 -10 3 -3
91 37 195 88 105 51 183 92 175 93 -8 0 -89 -38 -180 -83z"/>
<path d="M69172 47919 l4 -13 719 -148 c395 -82 721 -146 723 -143 3 3 1 9 -4
14 l-9 8 -695 143 c-382 78 -706 144 -719 147 l-24 6 5 -14z"/>
<path d="M51065 47910 l-7 -11 36 -77 c19 -42 45 -111 57 -152 12 -41 41 -118
64 -170 24 -52 72 -175 107 -272 l63 -178 18 0 17 0 0 13 c0 11 -141 395 -188
512 -11 28 -28 77 -37 110 -10 33 -36 99 -58 147 l-40 88 -13 0 c-7 0 -16 -5
-19 -10z"/>
<path d="M76034 47898 c3 -13 6 -34 6 -47 l0 -25 11 11 12 12 -7 35 -7 36 -11
0 -10 0 6 -22z"/>
<path d="M80050 47794 c-80 -69 -149 -129 -153 -134 l-9 -8 11 -6 10 -6 150
130 c136 117 167 150 144 150 -5 0 -73 -57 -153 -126z"/>
<path d="M47605 47900 c3 -5 10 -10 15 -10 4 0 44 -14 87 -30 l79 -30 84 -70
c46 -38 86 -67 89 -65 2 3 -3 11 -11 18 -9 6 -47 38 -85 69 l-70 57 -91 36
c-50 19 -94 35 -97 35 l-6 0 6 -10z"/>
<path d="M50805 47870 c3 -5 8 -10 11 -10 3 0 2 5 -1 10 -3 6 -8 10 -11 10 -3
0 -2 -4 1 -10z"/>
<path d="M43665 47820 c3 -5 8 -10 11 -10 2 0 4 5 4 10 0 6 -5 10 -11 10 l-10
0 6 -10z"/>
<path d="M72731 47775 c-1 -5 -19 -93 -41 -195 -21 -101 -37 -186 -35 -189 7
-6 11 10 50 197 l36 173 -5 12 -4 12 -1 -10z"/>
<path d="M76238 47747 l-208 -30 0 -14 0 -15 28 6 c15 3 110 17 212 31 102 14
195 28 208 31 l23 5 -6 9 -6 10 -22 -1 c-12 -1 -115 -15 -229 -32z"/>
<path d="M22233 47693 l7 -6 7 6 6 7 -13 0 -13 0 6 -7z"/>
<path d="M19320 47594 c0 -3 29 -47 64 -97 35 -51 92 -144 126 -207 34 -63 66
-119 72 -125 25 -24 -104 211 -174 318 -70 106 -88 128 -88 111z"/>
<path d="M22230 47520 l0 -80 10 0 10 0 0 80 0 80 -10 0 -10 0 0 -80z"/>
<path d="M41631 47460 l15 -25 45 -22 44 -22 60 1 60 0 -50 8 -50 8 -45 21
c-25 11 -56 29 -70 38 l-25 18 16 -25z"/>
<path d="M56688 47364 c-104 -52 -188 -96 -188 -99 0 -2 71 30 158 71 226 109
222 107 222 116 0 10 20 20 -192 -88z"/>
<path d="M22280 47362 c0 -49 -2 -172 -5 -273 l-5 -184 9 29 10 28 7 244 7
244 -11 0 -12 0 0 -88z"/>
<path d="M41563 47389 c-18 -5 -35 -14 -38 -19 l-6 -10 5 -9 6 -9 32 15 31 16
29 -1 29 -1 -4 12 -4 12 -24 2 c-13 1 -38 -3 -56 -8z"/>
<path d="M18625 47294 c-115 -47 -214 -90 -220 -96 l-10 -9 50 19 c251 99 392
156 400 163 l9 9 -9 0 c-6 -1 -104 -39 -220 -86z"/>
<path d="M72110 47325 l0 -13 113 -21 c153 -28 257 -41 328 -41 l59 0 0 10 0
10 -47 0 c-50 0 -254 29 -380 53 l-73 14 0 -12z"/>
<path d="M72637 47326 c-4 -10 -7 -25 -6 -34 l0 -17 10 24 c5 13 8 29 6 35
l-3 10 -7 -18z"/>
<path d="M34744 47180 c3 -63 6 -226 6 -362 l0 -248 11 0 12 0 -5 350 -4 350
-13 13 -14 12 7 -115z"/>
<path d="M18175 47157 c-99 -40 -189 -76 -199 -80 -10 -4 -17 -10 -14 -13 5
-4 406 151 417 162 16 15 -48 -6 -204 -69z"/>
<path d="M41570 47101 c0 -5 4 -21 9 -35 6 -13 15 -72 22 -130 l12 -106 13 0
14 0 0 18 c0 38 -22 189 -32 225 l-11 37 -14 0 -13 0 0 -9z"/>
<path d="M21562 47079 l4 -13 50 -11 c27 -6 63 -19 81 -28 l31 -17 52 -76 51
-77 -3 -17 -3 -17 14 -16 c16 -20 31 -22 31 -3 l0 13 118 23 c64 12 145 24
180 27 l62 6 0 8 0 9 -48 0 -49 0 -134 -25 c-74 -14 -136 -25 -139 -25 -4 0
-12 17 -19 37 -8 20 -34 64 -58 97 l-45 61 -21 12 c-23 13 -66 26 -126 38
l-33 7 4 -13z"/>
<path d="M39860 46995 l12 -15 -6 -15 -5 -15 9 0 10 0 0 30 0 30 -16 0 -16 0
12 -15z"/>
<path d="M39262 46868 l3 -23 20 -2 20 -3 -12 6 -13 6 0 19 0 19 -11 0 -10 0
3 -22z"/>
<path d="M22253 46853 l7 -6 7 6 6 7 -13 0 -13 0 6 -7z"/>
<path d="M55426 46734 c-114 -58 -206 -108 -203 -111 3 -2 91 39 196 92 168
86 237 125 221 124 -3 0 -99 -47 -214 -105z"/>
<path d="M18639 46658 c175 -363 460 -938 465 -938 4 0 -6 26 -22 58 -15 31
-136 278 -268 549 -131 271 -242 492 -246 493 -4 0 28 -73 71 -162z"/>
<path d="M57508 46716 l-67 -83 -41 -7 -41 -6 -40 -38 -39 -37 -7 -34 -6 -34
14 5 14 5 3 19 c5 24 49 72 84 90 l27 14 36 0 35 0 40 -25 c21 -13 43 -32 49
-42 l10 -18 10 10 11 11 -16 22 -15 22 -42 21 c-23 12 -44 23 -46 25 -2 2 20
31 48 64 l51 62 0 19 c0 10 -1 19 -2 19 -2 -1 -33 -38 -70 -84z"/>
<path d="M49870 46631 c0 -12 21 -27 48 -34 l22 -5 0 8 c0 5 -14 16 -32 24
-36 19 -38 19 -38 7z"/>
<path d="M36497 46586 l-8 -28 6 -6 5 -5 6 5 c3 4 4 19 2 35 l-3 28 -8 -29z"/>
<path d="M34008 46523 l-178 -3 0 -17 0 -16 128 6 c70 4 169 7 220 7 l92 0 0
15 0 15 -42 -2 c-24 -1 -123 -4 -220 -5z"/>
<path d="M51483 46523 l-13 -5 0 -15 0 -15 16 6 c9 3 26 6 40 6 l23 0 -5 15
-6 15 -22 -1 c-11 0 -27 -3 -33 -6z"/>
<path d="M57586 46522 c-7 -12 4 -52 15 -52 13 0 18 15 12 38 -5 22 -18 29
-27 14z"/>
<path d="M42566 46284 c-4 -130 -5 -238 -3 -241 5 -5 15 167 20 360 l3 117 -6
0 -7 0 -7 -236z"/>
<path d="M18790 46455 c0 -14 342 -716 348 -711 2 3 -63 143 -146 313 -169
350 -201 412 -202 398z"/>
<path d="M57590 46447 c0 -7 -9 -30 -20 -52 -24 -47 -24 -45 -6 -45 l14 0 14
23 c8 12 17 37 20 55 l5 32 -14 0 -13 0 0 -13z"/>
<path d="M34695 46418 l-7 -18 31 -292 31 -293 0 -82 0 -83 10 0 10 0 1 53 c2
67 4 37 -26 377 -15 162 -30 309 -35 325 l-7 30 -8 -17z"/>
<path d="M50793 46407 l3 -11 110 -23 c113 -23 333 -47 342 -38 11 11 -7 15
-115 25 -61 5 -163 21 -227 34 l-117 23 4 -10z"/>
<path d="M80978 46393 l13 -5 6 6 6 6 -19 -1 -19 -1 13 -5z"/>
<path d="M80875 46380 l-30 -8 25 -1 c14 0 32 4 40 9 l15 10 -10 -1 c-5 -1
-23 -5 -40 -9z"/>
<path d="M30140 46370 c-63 -4 -145 -8 -182 -9 l-68 -1 0 -16 0 -16 158 6 c86
4 178 9 205 12 l47 6 0 14 0 14 -22 -2 c-13 -1 -75 -5 -138 -8z"/>
<path d="M50972 46043 c99 -186 184 -342 190 -348 l11 -10 -4 11 c-12 32 -364
684 -370 684 -4 0 74 -152 173 -337z"/>
<path d="M51425 46270 l-6 -9 30 -16 30 -15 6 9 5 9 -16 16 c-17 18 -40 21
-49 6z"/>
<path d="M19886 46252 c9 -35 84 -195 90 -189 3 2 -18 51 -45 108 -28 57 -48
94 -45 81z"/>
<path d="M19843 46238 c25 -63 92 -199 94 -191 4 11 -84 203 -93 203 l-6 0 5
-12z"/>
<path d="M47648 46075 c-5 -5 -939 -307 -983 -318 l-20 -5 21 -1 21 -1 483
155 c266 85 484 154 486 152 5 -5 77 -245 119 -397 54 -193 54 -194 60 -188 5
5 -77 302 -131 475 l-36 112 7 11 6 10 -14 0 c-7 0 -16 -2 -19 -5z"/>
<path d="M66130 45933 c0 -5 14 -114 30 -243 16 -129 30 -237 30 -239 0 -3 4
-1 10 5 l9 9 -29 230 c-17 126 -30 233 -30 237 0 5 -4 8 -10 8 -5 0 -10 -3
-10 -7z"/>
<path d="M81370 45884 c-6 -14 -15 -47 -22 -72 -6 -26 -20 -67 -30 -91 l-19
-44 -17 -13 -17 -13 22 5 22 6 15 38 c19 48 65 210 60 210 -3 0 -9 -12 -14
-26z"/>
<path d="M80893 45858 c2 -7 17 -61 32 -121 16 -59 30 -105 32 -103 2 2 -8 56
-23 120 l-28 116 -9 0 -9 0 5 -12z"/>
<path d="M81200 45680 l0 -9 15 5 c8 4 15 8 15 10 0 2 -7 4 -15 4 l-15 0 0
-10z"/>
<path d="M81248 45621 l4 -39 -11 -20 -11 -21 9 -5 9 -6 11 32 11 32 -6 33
c-3 18 -9 33 -13 33 l-7 0 4 -39z"/>
<path d="M80961 45604 l1 -19 5 13 5 13 -6 6 -6 6 1 -19z"/>
<path d="M80971 45564 l1 -19 5 13 5 13 -6 6 -6 6 1 -19z"/>
<path d="M80981 45524 l1 -19 5 13 5 13 -6 6 -6 6 1 -19z"/>
<path d="M80991 45490 c0 -8 4 -24 9 -35 l9 -20 0 15 c0 8 -4 24 -9 35 l-9 20
0 -15z"/>
<path d="M30728 45283 c2 -82 8 -179 12 -218 l9 -70 -4 139 c-3 77 -5 174 -5
218 l0 78 -8 0 -7 0 3 -147z"/>
<path d="M81010 45425 c0 -5 27 -112 61 -239 33 -127 65 -248 70 -268 l10 -38
10 0 10 0 -4 18 c-37 135 -150 528 -153 531 -2 2 -4 1 -4 -4z"/>
<path d="M4590 45292 c0 -13 224 -223 257 -240 13 -7 42 -20 64 -27 l39 -14 0
9 0 8 -29 7 c-16 3 -49 19 -74 35 l-45 28 -106 102 -106 103 0 -11z"/>
<path d="M51934 45279 l-6 -11 98 -204 97 -205 11 4 11 4 -2 24 -1 24 -91 188
-90 187 -10 0 c-5 0 -13 -5 -17 -11z"/>
<path d="M44290 45254 c-19 -8 -55 -20 -80 -26 l-45 -11 -125 -7 -125 -7 115
-1 115 -2 63 15 c35 8 80 24 100 35 44 23 32 26 -18 4z"/>
<path d="M54850 45061 c0 -14 50 -51 68 -51 l16 0 -34 30 c-37 31 -50 36 -50
21z"/>
<path d="M50374 44986 l-6 -24 -21 -20 c-12 -10 -179 -99 -372 -196 -192 -98
-354 -183 -360 -188 l-10 -10 10 3 c6 2 172 86 370 185 l360 182 17 18 c9 11
20 31 23 47 l7 27 -6 0 c-3 0 -8 -11 -12 -24z"/>
<path d="M81355 44919 c-4 -6 -5 -13 -2 -16 7 -7 27 6 27 18 0 12 -17 12 -25
-2z"/>
<path d="M81256 44891 l-20 -8 12 -7 12 -7 20 6 c11 4 20 11 20 16 l0 9 -12
-1 c-7 0 -22 -4 -32 -8z"/>
<path d="M34918 44802 c-42 -37 -77 -71 -77 -75 -1 -11 32 15 105 82 84 77 60
71 -28 -7z"/>
<path d="M34687 44829 l-38 -20 -82 -10 c-45 -5 -173 -16 -285 -23 -183 -12
-224 -18 -211 -30 5 -4 391 19 489 29 l65 7 58 25 57 26 0 8 c0 13 -10 11 -53
-12z"/>
<path d="M52851 44653 c107 -225 149 -308 146 -292 -3 25 -191 419 -199 419
-4 0 20 -57 53 -127z"/>
<path d="M52541 44514 c-1 -16 120 -268 133 -276 6 -4 13 -5 15 -2 3 3 0 8 -6
12 -6 4 -40 68 -76 142 -36 74 -66 130 -66 124z"/>
<path d="M58397 44403 c-10 -9 -9 -23 2 -23 5 0 11 7 15 15 l5 15 -8 0 c-4 0
-11 -3 -14 -7z"/>
<path d="M58349 44333 l-24 -28 28 24 c15 14 27 26 27 28 0 8 -8 1 -31 -24z"/>
<path d="M58460 44290 l0 -10 15 0 15 0 0 10 0 10 -15 0 -15 0 0 -10z"/>
<path d="M52650 44185 l0 -14 20 -11 20 -11 0 11 c0 5 0 13 1 17 0 4 -9 10
-20 15 l-21 7 0 -14z"/>
<path d="M57946 44079 c-109 -55 -196 -102 -194 -104 4 -5 398 194 398 200 0
7 14 13 -204 -96z"/>
<path d="M50248 44031 l-127 -48 -43 -7 c-115 -18 -169 -29 -164 -33 2 -3 51
3 108 12 l103 17 125 45 c69 26 129 50 135 55 l9 8 -9 0 c-6 -1 -67 -23 -137
-49z"/>
<path d="M28410 44052 c0 -4 77 -54 172 -112 94 -58 184 -116 200 -128 l28
-24 0 10 c0 12 -25 33 -90 72 -30 18 -112 68 -182 111 -71 44 -128 76 -128 71z"/>
<path d="M81450 44022 c0 -6 18 -57 40 -113 l41 -101 38 -57 c22 -31 47 -63
57 -71 l18 -15 -24 40 c-13 22 -36 58 -50 80 -15 22 -43 83 -64 135 -21 52
-42 99 -47 105 l-9 9 0 -12z"/>
<path d="M8543 43860 c4 -47 16 -258 28 -470 12 -212 23 -387 25 -389 2 -2 5
-2 7 0 2 2 -9 212 -24 467 l-27 463 -7 7 -8 7 6 -85z"/>
<path d="M51516 43377 c-116 -17 -204 -33 -198 -35 7 -2 101 8 210 24 l197 27
10 8 9 9 -9 -1 c-6 -1 -104 -15 -219 -32z"/>
<path d="M78007 43375 c-205 -32 -237 -38 -226 -49 4 -4 395 48 447 60 l23 5
-6 9 c-3 6 -9 10 -13 9 -4 -1 -105 -16 -225 -34z"/>
<path d="M52432 43247 c-7 -8 -86 -49 -177 -92 -91 -43 -165 -82 -165 -86 0
-9 336 153 353 170 l11 11 -6 5 -5 5 -11 -13z"/>
<path d="M52476 43242 l-7 -20 -37 -25 c-20 -13 -94 -51 -164 -83 -70 -33
-128 -62 -128 -66 0 -7 112 43 255 114 l70 34 13 28 c8 15 12 30 9 33 -3 2 -8
-4 -11 -15z"/>
<path d="M11220 43156 c-12 -34 -13 -46 -1 -46 l9 0 7 31 7 30 -6 6 -5 6 -11
-27z"/>
<path d="M32129 42993 c-35 -38 -126 -144 -201 -238 l-137 -170 -110 -103
c-61 -57 -111 -108 -111 -114 l0 -10 9 4 c5 2 67 59 138 128 l128 125 152 185
c83 102 165 198 182 214 31 29 39 46 23 46 -5 0 -38 -30 -73 -67z"/>
<path d="M52110 43050 c0 -5 44 -97 97 -204 l97 -195 8 5 8 5 -100 199 c-55
110 -102 200 -105 200 -3 0 -5 -4 -5 -10z"/>
<path d="M71080 43020 c-96 -15 -197 -30 -223 -34 -27 -4 -47 -10 -44 -12 3
-3 107 9 231 28 l226 33 0 7 c0 5 -3 8 -7 7 -5 -1 -87 -13 -183 -29z"/>
<path d="M10490 42970 l0 -30 10 0 10 0 0 30 0 30 -10 0 -10 0 0 -30z"/>
<path d="M20840 42974 c-107 -12 -201 -23 -207 -23 l-13 -1 0 -11 0 -12 58 7
c120 15 387 46 395 46 l8 0 -6 10 -6 10 -17 -1 c-9 -1 -105 -12 -212 -25z"/>
<path d="M29886 42843 c63 -84 74 -101 122 -183 27 -47 55 -102 63 -122 7 -21
16 -38 20 -38 l7 0 -20 53 c-32 85 -188 327 -211 327 l-9 0 28 -37z"/>
<path d="M60168 42875 l-6 -6 11 -29 11 -29 37 -16 37 -17 21 7 21 6 -6 10 -6
10 -15 -5 -14 -6 -30 15 c-16 9 -29 19 -29 23 0 5 -6 16 -13 26 l-13 17 -6 -6z"/>
<path d="M82265 42748 c20 -35 54 -98 78 -140 23 -43 46 -78 51 -78 l8 0 -14
23 c-8 12 -43 75 -77 140 l-63 117 -9 0 -9 0 35 -62z"/>
<path d="M96002 42668 c7 -21 263 -377 272 -378 l8 0 -6 15 c-10 26 -260 374
-269 375 l-9 0 4 -12z"/>
<path d="M52344 42488 c87 -183 115 -236 116 -223 1 15 -174 374 -182 375 -4
0 26 -69 66 -152z"/>
<path d="M55934 42513 c3 -21 9 -111 12 -200 l7 -163 8 0 9 0 0 118 0 117 -12
83 -11 82 -10 0 -9 0 6 -37z"/>
<path d="M82410 42490 l0 -13 7 6 6 7 -6 7 -7 6 0 -13z"/>
<path d="M39577 42378 l-66 -92 -6 -51 -7 -51 11 -69 10 -70 -4 78 -5 77 11
52 12 53 59 78 c33 43 58 80 56 83 -2 2 -34 -38 -71 -88z"/>
<path d="M39627 42388 c-13 -18 -36 -54 -51 -79 l-27 -47 -5 -48 -5 -49 9 -60
9 -60 0 105 -1 105 37 60 c20 33 44 70 53 83 26 35 8 26 -19 -10z"/>
<path d="M47453 42272 l-142 -77 -48 -42 -48 -42 12 -1 c6 0 35 20 65 46 l53
45 133 70 c118 63 148 81 125 78 -5 -1 -72 -35 -150 -77z"/>
<path d="M66610 42274 c0 -32 29 -348 36 -393 l5 -34 8 9 8 9 -20 218 -21 217
-8 0 -8 0 0 -26z"/>
<path d="M69575 42205 c-220 -35 -505 -78 -632 -96 l-233 -32 0 -8 c0 -5 3 -9
8 -9 28 0 441 60 839 122 l473 73 0 8 0 7 -27 -1 c-16 -1 -208 -30 -428 -64z"/>
<path d="M68463 42101 l-633 -86 0 -7 c0 -13 11 -11 661 77 343 47 630 85 637
85 l12 0 0 10 0 10 -22 -1 c-13 -1 -308 -40 -655 -88z"/>
<path d="M46603 41841 c-111 -48 -206 -90 -209 -94 l-7 -7 11 0 c6 0 101 39
211 86 l201 86 0 9 c0 11 28 22 -207 -80z"/>
<path d="M66770 41780 c0 -5 5 -10 10 -10 6 0 10 5 10 10 0 6 -4 10 -10 10 -5
0 -10 -4 -10 -10z"/>
<path d="M30914 41633 c-34 -53 -110 -126 -206 -201 -87 -66 -112 -92 -92 -92
10 0 175 130 222 174 42 40 112 127 112 140 0 15 -19 4 -36 -21z"/>
<path d="M30957 41601 c-10 -17 -40 -54 -66 -83 l-49 -53 -101 -75 c-93 -70
-114 -90 -93 -90 13 0 191 136 240 183 39 38 102 124 102 140 0 16 -17 5 -33
-22z"/>
<path d="M28483 41193 c4 -6 21 -14 39 -18 18 -4 51 -11 73 -16 l40 -9 205 -9
205 -9 75 -18 c92 -20 162 -51 214 -93 38 -30 56 -38 56 -23 -1 12 -93 79
-135 97 -22 9 -74 26 -115 37 l-75 20 -205 9 c-189 9 -233 13 -344 35 l-39 7
6 -10z"/>
<path d="M63230 41047 l0 -13 143 -59 c78 -32 175 -71 215 -86 l72 -27 0 13 0
12 -82 30 c-46 17 -143 56 -215 86 l-133 56 0 -12z"/>
<path d="M57293 40923 c53 -2 141 -2 195 0 l97 3 -195 0 -195 0 98 -3z"/>
<path d="M97090 40686 l-245 -82 -125 -57 c-68 -32 -129 -62 -135 -68 l-10
-10 45 19 c25 11 92 41 150 67 l105 48 250 82 c138 46 241 83 230 83 -11 0
-130 -37 -265 -82z"/>
<path d="M97193 40677 c-101 -34 -183 -65 -183 -69 0 -6 378 117 388 127 13
13 -36 -1 -205 -58z"/>
<path d="M47775 40469 l-7 -10 6 -6 6 -7 11 11 11 11 -10 6 -11 6 -6 -11z"/>
<path d="M65906 40253 l-7 -7 43 -13 43 -12 9 9 8 8 -38 11 c-46 13 -49 13
-58 4z"/>
<path d="M66016 40096 l-15 -35 -20 -13 c-24 -15 -27 -28 -8 -28 19 0 52 40
65 78 l11 32 -9 0 -10 0 -14 -34z"/>
<path d="M95535 40005 c-110 -52 -194 -95 -186 -95 7 0 89 36 182 79 189 90
228 110 214 111 -6 0 -100 -43 -210 -95z"/>
<path d="M65845 40050 l-6 -9 30 -16 30 -15 26 0 25 0 0 10 0 10 -20 0 c-12 0
-34 7 -50 15 l-29 15 -6 -10z"/>
<path d="M84780 39956 c0 -4 39 -65 87 -134 47 -70 165 -257 261 -417 191
-317 180 -300 186 -294 11 10 -472 784 -525 844 l-9 9 0 -8z"/>
<path d="M52187 39830 c-3 -8 -22 -100 -41 -205 -20 -104 -54 -286 -76 -404
-22 -118 -38 -217 -35 -219 5 -6 1 -27 90 431 l76 388 -4 12 -5 12 -5 -15z"/>
<path d="M62801 39168 c1 -90 5 -194 9 -233 l7 -70 1 233 2 232 -10 0 -10 0 1
-162z"/>
<path d="M51575 39114 c15 -6 424 -94 437 -94 6 0 9 2 7 4 -6 6 -422 96 -440
95 l-14 -1 10 -4z"/>
<path d="M55300 39107 c0 -8 10 -23 23 -35 l23 -22 8 7 8 8 -4 -12 -3 -11 171
-120 c95 -66 249 -170 343 -232 l172 -111 9 6 c6 3 10 10 10 15 0 4 -96 70
-212 146 -270 175 -464 308 -503 345 -34 32 -45 36 -45 16z"/>
<path d="M68950 38955 c0 -3 42 -47 93 -98 l94 -92 48 -65 c26 -36 51 -75 56
-87 l9 -23 10 0 c14 0 13 5 -10 50 -47 92 -300 357 -300 315z"/>
<path d="M52902 38855 c8 -8 1261 -245 1266 -240 8 7 -3 10 -638 129 -621 117
-638 120 -628 111z"/>
<path d="M55573 38804 l-6 -15 19 -14 c11 -7 91 -67 179 -134 88 -66 163 -121
166 -121 7 0 22 31 17 34 -2 1 -82 61 -178 134 -97 73 -179 132 -183 132 -4 0
-10 -7 -14 -16z"/>
<path d="M60002 38802 c2 -4 23 -43 47 -87 l44 -80 94 -94 93 -94 7 7 8 7 -77
72 c-86 82 -120 125 -169 214 -19 35 -38 63 -42 63 -5 0 -7 -3 -5 -8z"/>
<path d="M53775 38652 l10 -10 170 -31 c94 -18 179 -35 190 -38 l20 -5 -10 10
-10 10 -170 31 c-93 18 -179 35 -190 38 l-20 5 10 -10z"/>
<path d="M88161 38550 c-68 -44 -153 -98 -188 -120 l-65 -41 5 -5 6 -6 185
117 c102 64 186 121 186 126 0 12 11 18 -129 -71z"/>
<path d="M46230 38383 c0 -5 11 -20 25 -33 l25 -23 7 6 c3 4 4 8 2 10 -2 1
-16 13 -31 26 l-28 24 0 -10z"/>
<path d="M34580 38189 l0 -20 10 6 c6 3 10 13 10 21 l0 14 -10 0 -10 0 0 -21z"/>
<path d="M34585 38087 l-7 -18 6 -6 6 -6 6 6 c3 3 4 14 1 24 l-4 18 -8 -18z"/>
<path d="M90850 37749 c-6 -24 -14 -53 -19 -64 l-9 -21 -113 -46 c-63 -26
-108 -47 -102 -48 16 0 215 79 227 90 9 9 37 122 31 128 -2 2 -9 -16 -15 -39z"/>
<path d="M91530 37760 c-80 -4 -191 -13 -247 -19 l-103 -12 -272 -93 -273 -94
-159 -72 -160 -72 -155 -93 c-86 -51 -201 -118 -256 -150 -109 -63 -1576 -965
-1665 -1025 -30 -20 -217 -136 -415 -257 -485 -297 -713 -438 -880 -542 -77
-48 -729 -451 -1450 -896 -1828 -1128 -2178 -1356 -3010 -1965 l-460 -336 -84
-47 c-46 -26 -120 -63 -165 -83 l-81 -35 -43 -6 -43 -6 -5 -9 c-11 -18 5 -20
60 -8 l56 11 80 35 80 35 12 -7 11 -7 -6 11 -7 10 75 41 74 41 473 346 c512
374 816 583 1343 926 l340 221 1445 892 c795 490 1536 947 1647 1016 112 68
377 232 590 364 213 132 397 245 408 251 11 6 376 230 810 499 1102 680 1157
713 1437 839 l167 75 228 79 228 79 180 18 180 18 230 0 230 0 465 -47 c256
-25 521 -55 590 -66 69 -11 145 -21 169 -22 l44 -3 4 13 5 12 -42 0 c-23 0
-97 9 -164 20 l-121 20 -450 45 c-247 24 -499 47 -560 50 -60 3 -139 7 -175 9
-36 2 -130 0 -210 -4z"/>
<path d="M91188 37663 c3 -16 12 -37 20 -48 l14 -20 -7 20 c-4 11 -10 32 -13
48 -2 15 -8 27 -12 27 l-7 0 5 -27z"/>
<path d="M94450 37613 c-74 -18 -189 -42 -255 -53 l-120 -19 -220 -17 -220
-16 -205 12 -205 13 -232 1 -233 2 0 -12 0 -11 71 -6 71 -6 97 6 96 5 266 -16
266 -17 99 10 c55 6 146 13 204 16 l105 6 150 25 c83 13 209 39 282 57 l132
32 -7 11 -7 10 -135 -33z"/>
<path d="M92806 37607 l6 -27 -12 -15 -12 -15 11 0 11 0 6 24 6 25 -11 18 -11
18 6 -28z"/>
<path d="M90420 37508 c-175 -83 -376 -199 -792 -456 l-397 -245 5 -8 5 -8
127 78 c70 43 231 142 357 221 252 156 498 296 684 390 l121 60 37 0 38 0 15
10 15 10 -55 -1 -55 -1 -105 -50z"/>
<path d="M85626 37303 c10 -16 35 -56 57 -90 22 -35 41 -63 44 -63 3 0 -6 17
-18 38 -56 92 -90 142 -95 142 -4 0 2 -12 12 -27z"/>
<path d="M85735 37130 c3 -5 8 -10 11 -10 3 0 2 5 -1 10 -3 6 -8 10 -11 10 -3
0 -2 -4 1 -10z"/>
<path d="M85866 37085 l-59 -44 -11 6 -11 6 12 -13 11 -12 61 42 c34 24 61 47
61 51 0 12 3 14 -64 -36z"/>
<path d="M72180 36299 l1 -14 127 -95 c70 -52 151 -117 180 -144 l52 -49 7 7
7 6 -30 31 c-16 17 -94 81 -174 141 -80 61 -151 115 -157 121 l-13 9 0 -13z"/>
<path d="M88482 36123 c-105 -65 -191 -122 -192 -126 l0 -8 13 3 c22 5 386
232 387 241 0 15 -22 4 -208 -110z"/>
<path d="M53756 35968 c-3 -13 -6 -35 -6 -50 l0 -28 10 0 10 0 0 19 c0 10 3
33 6 50 l7 31 -11 0 -10 0 -6 -22z"/>
<path d="M86477 35953 l-6 -9 84 -154 c47 -84 103 -182 126 -216 l41 -64 15 0
14 0 -7 13 c-4 6 -24 37 -44 67 -21 30 -74 123 -119 205 -45 83 -86 154 -90
158 l-9 9 -5 -9z"/>
<path d="M53590 35903 c-14 -3 -29 -9 -35 -15 l-10 -10 40 7 c22 4 44 11 50
16 l9 9 -14 -1 c-8 -1 -26 -4 -40 -6z"/>
<path d="M39837 35703 c6 -173 15 -324 20 -320 2 3 1 98 -3 211 l-7 206 -6 0
-7 0 3 -97z"/>
<path d="M41764 35677 l19 -14 -5 -27 -6 -28 10 10 10 10 -4 28 -3 29 -20 3
-20 4 19 -15z"/>
<path d="M87215 35559 l-140 -89 -53 -16 -54 -16 -42 6 -42 7 -33 20 -34 20
-8 -8 -9 -9 54 -27 53 -27 45 0 45 0 39 14 c33 11 302 173 327 196 l9 8 -9 4
-8 5 -140 -88z"/>
<path d="M64300 35563 c0 -9 126 -89 240 -153 82 -45 118 -74 130 -105 l9 -20
0 21 1 20 -32 31 -33 30 -100 55 c-55 30 -126 71 -157 91 -32 21 -58 34 -58
30z"/>
<path d="M30140 35510 l0 -10 38 0 37 0 24 -13 25 -12 8 -32 9 -33 124 0 125
0 0 10 0 9 -117 3 -117 3 -8 31 -8 31 -25 11 -26 12 -44 0 -45 0 0 -10z"/>
<path d="M32130 35066 c0 -3 66 -57 148 -121 l147 -117 48 -25 c27 -13 51 -22
54 -19 3 2 -19 17 -48 32 l-54 27 -142 113 c-134 107 -153 121 -153 110z"/>
<path d="M85383 34936 c9 -22 177 -289 202 -321 l24 -29 6 6 6 6 -43 60 c-24
32 -74 111 -113 175 -38 64 -74 117 -79 117 l-8 0 5 -14z"/>
<path d="M59447 34475 l-178 -113 9 -5 8 -6 174 110 c96 60 181 109 188 109
l12 0 0 10 0 10 -17 -1 -18 -1 -178 -113z"/>
<path d="M85441 34468 l-195 -122 12 -4 12 -4 181 113 181 112 8 -12 8 -13 6
11 7 11 -10 0 -10 0 5 15 6 15 -8 0 c-5 -1 -97 -55 -203 -122z"/>
<path d="M80540 34463 c0 -5 21 -46 46 -93 25 -47 51 -95 58 -107 6 -13 14
-23 17 -23 10 0 173 90 184 102 5 6 -30 -10 -79 -35 -48 -26 -92 -47 -97 -47
l-9 0 -52 105 c-46 91 -69 125 -68 98z"/>
<path d="M71590 34310 c163 -8 766 -13 759 -6 -2 2 -209 6 -459 8 l-455 5 155
-7z"/>
<path d="M87520 34270 c0 -5 15 -24 33 -43 l34 -33 75 -28 75 -27 29 -30 29
-30 -1 -50 0 -49 10 3 11 4 0 56 0 56 -29 30 -29 30 -75 27 -74 28 -36 33
c-35 33 -52 41 -52 23z"/>
<path d="M55389 34215 c-113 -17 -212 -35 -220 -38 l-14 -5 16 -1 c25 -2 460
67 467 73 l5 6 -24 -1 c-13 -1 -117 -16 -230 -34z"/>
<path d="M85210 34085 c-101 -63 -188 -119 -194 -125 l-10 -10 12 0 c10 0 371
218 390 235 2 2 -1 6 -6 9 l-9 5 -183 -114z"/>
<path d="M59826 34133 c8 -21 61 -146 116 -278 l100 -240 21 -22 20 -23 26 0
c14 0 80 7 146 16 l120 17 10 10 10 9 -30 -6 c-16 -3 -83 -13 -148 -22 l-118
-16 -23 21 -23 22 -114 274 c-63 151 -117 275 -122 275 l-7 0 16 -37z"/>
<path d="M84190 33449 c-217 -138 -401 -254 -409 -258 l-14 -8 10 -6 10 -6
407 257 c362 229 426 273 399 272 -5 0 -186 -113 -403 -251z"/>
<path d="M83047 33399 c13 -24 237 -269 246 -269 5 0 -24 37 -64 82 -103 114
-192 206 -182 187z"/>
<path d="M58615 32944 c-99 -18 -195 -36 -214 -39 -18 -4 -31 -9 -28 -12 7 -6
414 64 442 77 l20 9 -20 -1 c-11 0 -101 -15 -200 -34z"/>
<path d="M79411 32686 c7 -7 362 -146 373 -146 l9 0 -6 7 c-11 11 -185 83
-276 114 -80 27 -110 35 -100 25z"/>
<path d="M73090 32620 c0 -19 31 -74 58 -102 l26 -28 40 1 41 1 -30 7 c-16 4
-40 13 -53 20 l-22 12 -25 49 c-25 49 -35 60 -35 40z"/>
<path d="M75636 32564 c-252 -35 -461 -66 -464 -69 l-6 -5 10 -9 9 -9 469 64
c258 35 471 66 474 68 7 8 -8 26 -21 25 -7 0 -219 -30 -471 -65z"/>
<path d="M34300 32510 c0 -6 7 -25 17 -43 l16 -32 4 12 4 12 -16 30 c-16 32
-25 39 -25 21z"/>
<path d="M73293 32503 c9 -2 23 -2 30 0 l12 5 -30 0 -30 0 18 -5z"/>
<path d="M73073 32458 l-63 -10 0 -9 0 -9 17 0 c9 0 56 5 105 11 l88 12 0 8 0
9 -42 -1 c-24 -1 -71 -6 -105 -11z"/>
<path d="M72991 32340 c0 -8 4 -24 9 -35 l9 -20 0 20 c0 11 -4 27 -9 35 l-10
15 1 -15z"/>
<path d="M71950 32073 c-51 -8 -965 -133 -1235 -168 -154 -20 -374 -50 -490
-65 -115 -16 -298 -41 -405 -55 -107 -14 -314 -43 -460 -65 -270 -40 -387 -54
-542 -66 l-88 -6 0 -20 0 -20 28 6 c15 3 74 8 132 11 l105 7 625 89 c344 50
794 112 1000 138 206 27 603 82 883 122 l508 72 -4 11 c-4 13 -21 15 -57 9z"/>
<path d="M81825 31982 c-51 -28 -380 -266 -390 -282 l-5 -9 7 -4 8 -5 209 153
c251 185 273 203 171 147z"/>
<path d="M70882 31856 l-11 -24 14 -6 13 -5 11 30 10 29 -13 0 -13 0 -11 -24z"/>
<path d="M70790 31840 c34 -29 60 -38 60 -22 0 5 -13 18 -30 30 l-29 22 -18 0
-18 -1 35 -29z"/>
<path d="M98818 31737 l-27 -11 -10 -29 -11 -29 29 31 29 31 29 0 28 0 -15 10
c-17 11 -16 11 -52 -3z"/>
<path d="M81312 31614 c-22 -15 -29 -34 -13 -34 5 0 19 8 32 18 l22 19 -10 6
-10 6 -21 -15z"/>
<path d="M81076 31441 l-118 -89 -82 -27 -81 -27 -52 -5 -51 -6 -33 12 -33 11
-9 -9 -9 -9 38 -11 c76 -21 158 -9 282 40 l57 23 117 87 118 86 -7 6 c-11 11
-14 9 -137 -82z"/>
<path d="M31643 30973 l-13 -5 15 -28 14 -28 16 -6 16 -6 5 14 5 14 -23 24
-23 25 -12 -4z"/>
<path d="M1230 30821 c0 -6 5 -13 10 -16 l10 -6 0 15 0 16 -10 0 c-5 0 -10 -4
-10 -9z"/>
<path d="M1220 30735 c0 -6 -11 -77 -25 -160 -22 -137 -24 -168 -9 -153 3 3
16 73 29 154 l24 149 -9 9 -10 10 0 -9z"/>
<path d="M99342 30626 l-40 -44 -11 -38 c-14 -49 -14 -79 0 -129 l11 -40 31
-32 c17 -18 35 -33 41 -33 l10 0 -35 38 -36 37 -12 42 -12 42 6 26 c3 14 7 37
10 51 l6 25 41 45 c22 24 39 47 36 49 -3 3 -23 -14 -46 -39z"/>
<path d="M79860 30491 c5 -11 15 -23 20 -26 l10 -6 0 8 c-1 11 -26 43 -34 43
l-7 0 11 -19z"/>
<path d="M1660 30345 l-34 -25 16 0 17 0 28 25 28 24 -11 1 c-5 0 -25 -11 -44
-25z"/>
<path d="M75425 30051 l-7 -130 -20 -38 -20 -38 -102 -104 c-55 -57 -203 -200
-328 -317 l-227 -213 10 -6 10 -7 42 38 c89 80 426 393 510 474 l88 85 32 54
31 55 4 138 5 138 -10 0 -10 0 -8 -129z"/>
<path d="M4116 29118 c2 -79 7 -176 10 -215 l6 -73 8 0 9 0 -5 123 c-2 67 -7
164 -10 215 l-6 92 -9 0 -9 0 6 -142z"/>
<path d="M5040 29208 l0 -14 203 -28 c111 -15 210 -30 220 -32 l17 -5 0 14 0
14 -197 27 c-109 15 -208 30 -220 33 l-23 5 0 -14z"/>
<path d="M73270 29091 c0 -16 250 -384 257 -377 3 2 -54 91 -126 197 -72 106
-131 187 -131 180z"/>
<path d="M95942 27629 c-112 -83 -201 -153 -198 -156 2 -3 37 20 78 50 40 29
130 96 201 146 70 51 127 97 127 102 0 5 -1 9 -2 9 -2 0 -94 -68 -206 -151z"/>
<path d="M95310 26779 c-96 -71 -177 -134 -179 -140 -3 -9 325 226 359 257
l14 14 -9 -1 c-6 0 -89 -58 -185 -130z"/>
<path d="M94820 26724 c-102 -74 -187 -139 -189 -145 -2 -6 48 26 110 72 63
45 148 107 189 137 41 30 79 59 85 63 l9 9 -9 0 c-6 -1 -93 -61 -195 -136z"/>
<path d="M87395 25991 l-6 -10 202 -162 201 -161 9 9 9 9 -187 150 c-102 82
-194 155 -204 162 l-18 12 -6 -9z"/>
<path d="M78486 25902 c-3 -3 -6 -8 -6 -12 0 -4 92 -51 205 -105 l205 -98 7 6
7 7 -10 10 c-5 5 -98 51 -206 103 l-197 95 -5 -6z"/>
<path d="M4500 25015 l0 -36 -14 -27 c-17 -34 -83 -95 -198 -186 l-87 -69 5
-8 5 -9 97 76 c119 94 179 151 198 186 l14 27 0 41 0 40 -10 0 -10 0 0 -35z"/>
<path d="M4444 25015 l6 -25 -44 -48 c-25 -26 -88 -81 -140 -122 -52 -41 -95
-78 -96 -82 -1 -18 23 -4 102 58 107 86 178 153 188 180 l9 22 -6 21 -5 21
-10 0 -10 0 6 -25z"/>
<path d="M87028 24893 l-47 -46 -26 17 -26 17 -17 -5 c-21 -7 -191 -176 -177
-176 6 0 46 36 90 80 l80 80 17 0 c9 0 20 -4 23 -10 l6 -10 23 0 22 0 44 45
c24 24 42 47 39 49 -3 3 -26 -16 -51 -41z"/>
<path d="M90495 24839 c50 -5 153 -18 230 -30 l140 -21 120 -33 120 -34 119
-50 c66 -28 121 -49 123 -47 2 2 -60 31 -139 63 l-143 60 -95 26 c-52 14 -156
35 -230 47 l-135 20 -100 5 -100 4 90 -10z"/>
<path d="M89100 23313 c0 -11 150 -436 156 -442 18 -18 4 34 -59 224 l-73 219
-12 4 -12 4 0 -9z"/>
<path d="M22722 22085 c-182 -19 -224 -27 -211 -39 2 -1 96 6 208 18 l204 21
5 13 c2 6 2 11 0 11 -1 -1 -94 -12 -206 -24z"/>
<path d="M13686 21399 c-3 -8 -26 -95 -52 -193 -25 -99 -48 -185 -51 -193 l-5
-13 9 0 9 0 53 201 c29 111 50 204 47 206 -3 3 -8 0 -10 -8z"/>
<path d="M95281 18073 c4 -11 346 -313 355 -313 12 0 -8 19 -153 146 -87 75
-169 147 -182 158 l-24 21 4 -12z"/>
<path d="M92371 16559 c-89 -67 -160 -124 -157 -126 2 -2 78 50 168 118 188
140 174 129 161 129 -5 0 -82 -55 -172 -121z"/>
<path d="M98270 14991 c-129 -150 -406 -473 -615 -716 -527 -612 -689 -804
-694 -818 l-3 -12 15 15 c8 8 73 83 144 165 200 235 430 504 931 1087 255 297
462 543 460 547 -2 3 -109 -117 -238 -268z"/>
<path d="M98540 15263 c1 -11 351 -296 356 -290 4 4 -278 241 -338 285 l-18
13 0 -8z"/>
<path d="M97700 14267 c-118 -139 -455 -532 -748 -875 l-534 -623 6 -6 6 -7
13 16 c6 9 71 85 142 169 321 375 1311 1537 1324 1552 8 10 12 19 10 21 -2 2
-101 -109 -219 -247z"/>
<path d="M25400 13189 c0 -18 202 -409 211 -409 4 0 10 4 13 8 l5 8 -31 49
c-18 28 -64 119 -105 203 l-73 152 -10 0 c-5 0 -10 -5 -10 -11z"/>
<path d="M96313 12703 l7 -6 7 6 6 7 -13 0 -13 0 6 -7z"/>
<path d="M22256 2892 l-5 -8 351 -280 c194 -153 441 -350 549 -436 l198 -157
5 8 6 8 -508 404 c-279 222 -526 418 -549 437 l-41 33 -6 -9z"/>
<path d="M22984 2232 c7 -11 313 -252 320 -252 21 0 -12 31 -149 138 -85 67
-160 122 -166 122 l-10 0 5 -8z"/>
<path d="M8121 1840 c-79 -16 -146 -31 -149 -34 l-5 -6 6 -7 7 -6 137 26 138
26 93 7 92 7 0 8 0 9 -87 -1 -88 -1 -144 -28z"/>
<path d="M22343 1486 c-183 -82 -226 -106 -192 -106 14 0 391 168 402 180 l9
8 -9 4 -8 5 -202 -91z"/>
<path d="M22363 1437 l-203 -91 9 -9 9 -9 193 87 c107 48 198 91 202 95 l9 8
-9 5 -8 5 -202 -91z"/>
<path d="M16310 1285 l0 -15 33 0 c37 0 286 -17 370 -25 l57 -6 0 16 0 15 -24
0 c-34 0 -320 19 -383 25 l-53 5 0 -15z"/>
</g>
</svg>
