<?xml version="1.0" standalone="no"?>
<!DOCTYPE svg PUBLIC "-//W3C//DTD SVG 20010904//EN"
 "http://www.w3.org/TR/2001/REC-SVG-20010904/DTD/svg10.dtd">
<svg version="1.0" xmlns="http://www.w3.org/2000/svg"
 width="7500.000000pt" height="7500.000000pt" viewBox="0 0 7500.000000 7500.000000"
 preserveAspectRatio="xMidYMid meet">
<metadata>
Created by potrace 1.16, written by Peter Selinger 2001-2019
</metadata>
<g transform="translate(0.000000,7500.000000) scale(0.075000,-0.075000)"
fill="#000000" stroke="none">
<path d="M98233 95131 l-153 -158 0 -11 c0 -7 3 -12 8 -12 4 0 79 72 166 159
l159 159 -7 11 c-4 6 -10 11 -14 10 -4 -1 -76 -72 -159 -158z"/>
<path d="M87744 94691 c9 -16 26 -58 40 -94 l24 -65 13 -98 12 -98 -6 -160 -6
-161 -21 -65 c-12 -35 -33 -86 -46 -112 -26 -52 -28 -58 -16 -58 11 0 78 144
91 195 l9 40 7 166 7 167 -12 93 -12 94 -25 70 c-29 78 -49 115 -63 115 l-11
0 15 -29z"/>
<path d="M94520 91038 l0 -28 9 0 c6 0 12 4 15 9 l5 8 -14 19 -14 19 -1 -27z"/>
<path d="M94566 90963 c-11 -11 -6 -22 13 -32 l19 -11 5 13 5 13 -18 12 -18
11 -6 -6z"/>
<path d="M94650 90901 l0 -9 35 -6 35 -7 10 6 10 6 -5 10 -6 9 -40 0 -39 0 0
-9z"/>
<path d="M33150 89787 l0 -14 128 -28 c70 -15 164 -40 209 -55 l82 -28 4 11 4
12 -61 23 c-34 13 -119 36 -191 53 -71 16 -140 31 -152 34 l-23 5 0 -13z"/>
<path d="M78980 88493 l0 -8 217 -75 c119 -41 221 -77 226 -79 l10 -3 -5 12
-4 13 -213 73 c-218 76 -231 79 -231 67z"/>
<path d="M78970 88441 c0 -5 8 -11 18 -14 9 -3 108 -37 219 -75 l203 -71 5 8
5 8 -218 77 c-119 42 -220 76 -225 76 -4 0 -7 -4 -7 -9z"/>
<path d="M79356 87803 c-3 -16 -22 -122 -41 -237 l-36 -208 5 -6 c3 -3 8 -3
10 -1 2 2 21 99 40 214 20 116 39 222 42 238 l6 27 -10 0 -10 0 -6 -27z"/>
<path d="M83571 86593 c-30 -131 -56 -244 -59 -252 l-5 -14 14 5 14 5 12 54
c7 30 32 141 56 247 l44 192 -11 0 -12 0 -53 -237z"/>
<path d="M80426 85751 c21 -21 378 -155 396 -149 l11 4 -79 29 c-43 15 -134
50 -202 76 -126 50 -143 56 -126 40z"/>
<path d="M97486 78701 c5 -4 76 -36 158 -71 81 -34 243 -107 360 -162 116 -55
226 -107 244 -114 l32 -14 0 9 0 8 -257 121 c-292 137 -510 232 -532 232 l-15
0 10 -9z"/>
<path d="M76018 78254 c-95 -74 -181 -144 -192 -154 l-18 -18 9 -5 9 -6 185
145 c101 80 188 149 192 153 l9 9 -10 6 -10 6 -174 -136z"/>
<path d="M45730 76389 c-52 -121 -96 -226 -98 -234 l-3 -15 9 0 9 0 97 223
c53 122 96 228 96 235 0 36 -24 -9 -110 -209z"/>
<path d="M74668 70783 l-238 -3 0 -10 0 -10 240 0 240 0 0 15 c0 8 -1 14 -2
13 -2 -2 -110 -4 -240 -5z"/>
<path d="M73708 70772 l-238 -2 0 -10 0 -10 234 0 235 0 6 11 c4 6 5 11 4 12
-2 1 -111 1 -241 -1z"/>
<path d="M31070 65415 l0 -25 29 0 c16 0 42 -5 58 -11 l28 -11 380 -49 c209
-27 390 -49 403 -49 l22 0 0 20 0 19 -32 6 c-18 3 -193 25 -389 50 -196 25
-369 49 -385 54 -16 5 -48 12 -71 15 l-43 6 0 -25z"/>
<path d="M40072 64085 l-12 -25 9 0 c4 0 13 11 19 25 l12 25 -9 0 c-4 0 -13
-11 -19 -25z"/>
<path d="M41450 63743 l-24 -5 -78 -65 c-43 -36 -78 -67 -78 -69 0 -9 22 7 96
68 l71 58 37 0 38 0 55 -16 c30 -9 57 -14 59 -11 5 5 -79 32 -126 40 -14 3
-36 2 -50 0z"/>
<path d="M41271 63573 c2 -7 60 -75 128 -153 l124 -140 16 0 16 0 -21 18 c-12
9 -72 73 -134 142 -62 69 -117 130 -123 135 l-9 10 3 -12z"/>
<path d="M42449 62661 l-54 -49 6 -6 5 -6 54 55 c67 68 62 71 -11 6z"/>
<path d="M38885 62385 c6 -3 102 -18 215 -35 113 -17 216 -33 230 -36 l25 -5
-10 9 -10 9 -210 32 c-115 17 -219 31 -230 30 l-20 -1 10 -3z"/>
<path d="M59111 61115 c33 -18 418 -185 427 -185 3 0 2 4 -3 9 -13 13 -424
191 -438 191 l-12 -1 26 -14z"/>
<path d="M86050 59330 l0 -13 7 6 6 7 -6 7 -7 6 0 -13z"/>
<path d="M57190 59323 c0 -5 97 -44 215 -87 l215 -79 7 6 6 7 -14 4 c-8 3
-106 39 -218 81 -225 82 -211 78 -211 68z"/>
<path d="M85640 58916 c0 -33 364 -743 401 -780 l9 -10 0 10 c0 5 -57 118
-127 250 -71 132 -159 309 -198 392 -65 140 -85 173 -85 138z"/>
<path d="M63900 58471 c0 -8 29 -147 64 -310 36 -163 97 -462 137 -664 39
-202 74 -366 76 -363 5 5 -109 596 -177 916 -26 124 -55 266 -65 315 -10 50
-22 97 -26 105 l-8 15 -1 -14z"/>
<path d="M86100 58148 c0 -10 195 -395 206 -407 2 -2 6 -2 9 1 l6 5 -106 207
c-59 113 -109 206 -111 206 -2 0 -4 -5 -4 -12z"/>
<path d="M63364 57933 c2 -10 24 -110 47 -223 24 -113 44 -207 46 -209 2 -2 6
-1 9 2 l7 7 -32 152 c-18 84 -39 183 -48 221 l-15 67 -9 0 -10 0 5 -17z"/>
<path d="M47808 56992 l-178 -25 0 -7 0 -6 203 28 202 28 23 -4 22 -3 0 8 0 9
-47 -1 c-27 -1 -128 -13 -225 -27z"/>
<path d="M89765 55813 l-87 -88 -54 -112 -53 -113 12 0 12 1 50 106 50 107 88
87 88 87 -10 6 -9 6 -87 -87z"/>
<path d="M51855 55752 l10 -9 135 -13 c74 -6 173 -18 220 -26 91 -15 116 -17
108 -9 -8 9 -99 23 -248 39 -80 9 -165 19 -190 22 l-45 6 10 -10z"/>
<path d="M12590 55135 l-135 -65 -85 -11 c-46 -5 -87 -12 -89 -15 -8 -7 62 -4
127 6 l64 11 136 69 c76 38 133 69 127 69 -5 0 -71 -29 -145 -64z"/>
<path d="M61980 55124 c0 -5 19 -111 42 -236 l43 -228 8 0 8 0 -5 18 c-3 9
-23 113 -46 231 -35 188 -49 248 -50 215z"/>
<path d="M52671 54721 c2 -5 84 -64 182 -131 l177 -121 0 11 0 10 -181 121
c-100 66 -180 116 -178 110z"/>
<path d="M88035 54386 l-20 -15 10 -2 c6 0 25 0 43 1 l33 2 25 -17 25 -16 10
6 10 7 -24 18 -23 18 -35 7 -34 6 -20 -15z"/>
<path d="M62171 54173 c-1 -28 85 -442 94 -451 l7 -7 -7 35 c-24 131 -93 441
-94 423z"/>
<path d="M51586 54058 c-47 -56 -86 -107 -86 -112 l0 -10 8 10 c74 82 173 206
170 210 -3 2 -44 -41 -92 -98z"/>
<path d="M52628 53859 c-94 -147 -131 -216 -159 -298 -23 -65 -23 -67 -4 -51
l15 12 0 18 c0 9 22 62 49 118 l50 101 71 106 71 106 -3 11 -4 10 -86 -133z"/>
<path d="M81010 53236 c0 -17 110 -452 120 -475 6 -12 36 -52 67 -87 l57 -64
44 -26 45 -26 76 -24 c42 -13 83 -24 91 -24 l14 0 -9 9 c-6 5 -43 18 -83 29
l-74 21 -50 32 -50 32 -57 66 -57 67 -12 29 c-6 17 -34 122 -62 234 -44 180
-60 234 -60 207z"/>
<path d="M55196 52951 l-5 -8 12 -15 c7 -9 26 -20 42 -26 17 -5 38 -13 48 -17
l17 -7 0 15 0 15 -34 12 c-19 6 -40 18 -46 26 -14 16 -26 18 -34 5z"/>
<path d="M48476 52561 l-6 -9 6 -16 c3 -9 10 -16 14 -16 8 0 20 24 20 41 l0 9
-14 0 c-8 0 -17 -4 -20 -9z"/>
<path d="M78257 51973 l-5 -8 84 -210 c46 -115 85 -214 87 -220 l4 -10 7 6 6
6 -86 219 c-47 120 -87 220 -89 222 -2 2 -5 0 -8 -5z"/>
<path d="M54305 51934 c-22 -14 -107 -59 -188 -100 l-148 -75 6 -9 6 -10 167
85 c92 47 175 92 186 100 l18 14 -3 10 -4 10 -40 -25z"/>
<path d="M90853 51783 l7 -6 7 6 6 7 -13 0 -13 0 6 -7z"/>
<path d="M90797 51678 c-74 -133 -150 -283 -138 -272 15 13 182 326 177 331
-2 2 -19 -24 -39 -59z"/>
<path d="M34166 51401 l-6 -10 9 -5 10 -6 5 9 6 10 -9 5 -10 6 -5 -9z"/>
<path d="M34152 51258 c-7 -7 -12 -18 -12 -25 l0 -14 20 11 20 11 0 14 c0 18
-12 19 -28 3z"/>
<path d="M19320 51243 l0 -10 193 -7 c105 -4 207 -10 225 -13 l32 -5 0 10 0
10 -32 5 c-18 3 -120 9 -225 13 l-193 7 0 -10z"/>
<path d="M22660 51192 l0 -10 23 -6 c12 -4 115 -9 230 -13 l207 -6 0 10 0 10
-207 6 c-115 4 -218 9 -230 13 l-23 6 0 -10z"/>
<path d="M33794 48990 c44 -321 58 -415 62 -419 7 -8 5 20 -22 219 l-25 195
-10 20 -9 20 4 -35z"/>
<path d="M34483 48998 c3 -13 18 -103 33 -200 l28 -178 8 0 c4 0 8 7 8 15 0
14 -46 305 -56 358 l-6 27 -10 0 -10 0 5 -22z"/>
<path d="M44410 46185 l0 -285 10 0 10 0 0 285 0 285 -10 0 -10 0 0 -285z"/>
<path d="M46186 46343 c-11 -34 -75 -348 -85 -418 -6 -38 -14 -81 -17 -95 l-5
-25 9 10 9 10 13 80 c6 44 29 163 51 264 21 102 37 187 35 189 -2 2 -7 -5 -10
-15z"/>
<path d="M41996 42912 l-6 -11 87 -175 c80 -160 104 -199 102 -163 0 6 -40 90
-88 186 l-88 174 -7 -11z"/>
<path d="M90057 37094 l-187 -116 5 -8 5 -9 178 110 c97 61 184 117 192 125
l14 14 -10 0 c-6 0 -95 -52 -197 -116z"/>
<path d="M73186 33873 c-3 -10 -28 -112 -56 -228 l-51 -210 -19 -145 c-11 -80
-20 -166 -20 -192 l0 -48 10 0 10 0 0 49 c0 26 9 114 20 194 l19 145 56 221
c30 121 55 223 55 226 0 13 -19 3 -24 -12z"/>
<path d="M18170 27295 c0 -8 3 -15 8 -15 4 0 45 -7 92 -15 47 -8 234 -35 415
-60 182 -25 345 -47 363 -50 l32 -6 0 13 0 14 -312 43 c-290 39 -521 74 -575
86 l-23 5 0 -15z"/>
<path d="M95310 26779 c-96 -71 -177 -134 -179 -140 -3 -9 325 226 359 257
l14 14 -9 -1 c-6 0 -89 -58 -185 -130z"/>
<path d="M90495 24839 c50 -5 153 -18 230 -30 l140 -20 119 -35 118 -35 120
-50 c66 -27 125 -48 130 -47 l10 4 -136 58 -136 57 -99 29 -100 28 -133 21
-133 20 -110 5 -110 5 90 -10z"/>
<path d="M88510 24250 l0 -9 73 -43 c60 -35 298 -148 313 -148 2 0 4 5 4 10
l0 10 -42 17 c-64 26 -250 118 -297 147 -45 29 -51 31 -51 16z"/>
<path d="M91485 16710 l-7 -11 29 -32 c15 -18 86 -99 157 -180 l129 -147 13
11 13 11 -157 179 c-86 98 -160 179 -164 179 -4 0 -10 -5 -13 -10z"/>
<path d="M25145 14990 l-6 -10 9 -17 c5 -10 19 -60 32 -112 l21 -95 2 -95 1
-96 -8 -22 -7 -23 14 0 14 0 7 38 c3 20 6 73 6 117 l0 80 -24 101 c-21 91 -40
144 -51 144 -2 0 -7 -4 -10 -10z"/>
</g>
</svg>
