<?xml version="1.0" standalone="no"?>
<!DOCTYPE svg PUBLIC "-//W3C//DTD SVG 20010904//EN"
 "http://www.w3.org/TR/2001/REC-SVG-20010904/DTD/svg10.dtd">
<svg version="1.0" xmlns="http://www.w3.org/2000/svg"
 width="7500.000000pt" height="7500.000000pt" viewBox="0 0 7500.000000 7500.000000"
 preserveAspectRatio="xMidYMid meet">
<metadata>
Created by potrace 1.16, written by Peter Selinger 2001-2019
</metadata>
<g transform="translate(0.000000,7500.000000) scale(0.075000,-0.075000)"
fill="#000000" stroke="none">
<path d="M13960 96367 l0 -95 -19 -93 c-11 -52 -24 -107 -30 -122 -14 -35 -14
-47 -1 -47 l10 0 11 28 c6 15 19 65 29 112 l19 85 2 109 3 110 -12 4 -12 4 0
-95z"/>
<path d="M21866 92763 c-3 -3 -6 -15 -6 -25 l0 -18 9 0 c5 0 11 9 14 20 l5 20
-8 5 c-4 2 -10 2 -14 -2z"/>
<path d="M5492 92241 c2 -5 63 -74 136 -154 119 -130 169 -177 187 -177 3 0
-65 77 -152 170 -140 151 -182 191 -171 161z"/>
<path d="M6850 90962 c0 -4 24 -31 53 -58 l52 -51 135 -91 c139 -93 531 -325
538 -317 10 10 -19 30 -186 126 -97 56 -249 151 -337 210 l-160 107 -40 41
c-38 39 -55 50 -55 33z"/>
<path d="M31495 89921 c11 -5 47 -11 80 -14 l60 -6 -55 14 c-30 8 -66 14 -80
14 l-25 0 20 -8z"/>
<path d="M31658 89893 l13 -5 6 6 6 6 -19 -1 -19 -1 13 -5z"/>
<path d="M33696 89571 l-6 -9 98 -57 c53 -32 136 -89 185 -127 l88 -69 10 6
10 7 -88 69 c-69 54 -198 138 -285 186 -4 2 -9 -1 -12 -6z"/>
<path d="M10680 89428 l0 -13 168 -64 c92 -36 188 -73 215 -83 l47 -18 0 13 0
12 -183 69 c-100 38 -197 75 -214 83 l-33 13 0 -12z"/>
<path d="M12000 88979 c0 -3 36 -9 79 -12 l80 -6 150 6 151 6 0 8 0 8 -230 -2
-230 -2 0 -6z"/>
<path d="M15982 87890 c2 -5 88 -61 192 -124 l189 -115 9 5 c5 3 8 7 6 9 -11
10 -388 235 -393 235 -4 0 -5 -4 -3 -10z"/>
<path d="M28800 86902 l0 -9 56 -19 56 -19 40 -45 c23 -25 77 -82 121 -127
l79 -82 102 -50 c55 -28 147 -70 204 -95 l102 -45 0 12 0 13 -137 59 c-76 32
-169 76 -206 98 l-69 40 -110 118 -111 117 -55 21 c-59 23 -72 25 -72 13z"/>
<path d="M79067 86428 c-5 -37 -3 -43 12 -33 l11 6 0 30 0 29 -9 0 -9 0 -5
-32z"/>
<path d="M41055 84310 l-6 -10 16 0 16 0 -6 10 c-3 6 -8 10 -10 10 -2 0 -7 -4
-10 -10z"/>
<path d="M41065 84270 l-6 -10 15 0 16 0 0 10 c0 6 -4 10 -9 10 -6 0 -13 -4
-16 -10z"/>
<path d="M24331 83951 l4 -12 205 -89 c198 -87 230 -98 230 -82 0 6 -351 162
-424 188 l-19 7 4 -12z"/>
<path d="M86546 83578 c-11 -153 -37 -820 -33 -825 7 -6 15 129 33 540 8 198
13 361 11 364 -3 2 -8 -33 -11 -79z"/>
<path d="M77485 83622 c6 -6 101 -43 212 -81 185 -65 235 -80 221 -66 -5 5
-366 135 -418 150 l-25 7 10 -10z"/>
<path d="M83236 83421 l-6 -10 77 -60 78 -61 55 -17 55 -18 66 1 66 0 46 14
47 13 0 13 0 14 -37 -15 -36 -15 -76 -2 -76 -1 -40 12 c-53 18 -99 45 -162 98
l-51 44 -6 -10z"/>
<path d="M78786 83221 c5 -4 54 -24 109 -44 55 -20 144 -52 198 -71 l99 -36
-4 12 -4 12 -188 68 c-104 37 -196 68 -204 68 l-16 0 10 -9z"/>
<path d="M44335 81639 c29 -13 897 -211 902 -205 2 2 -4 7 -14 10 -44 13 -884
206 -895 205 l-13 0 20 -10z"/>
<path d="M80106 81316 c-93 -67 -171 -127 -174 -134 l-4 -12 12 0 c7 0 45 23
84 52 39 29 114 84 166 122 52 38 97 71 99 73 3 2 0 7 -5 12 l-9 8 -169 -121z"/>
<path d="M75056 81105 c-4 -22 -13 -56 -19 -75 l-13 -35 -79 -28 c-44 -15 -84
-32 -89 -37 l-10 -10 11 0 c22 0 158 52 175 67 l17 15 11 54 c6 30 10 62 7 72
l-4 17 -7 -40z"/>
<path d="M7560 80186 l0 -14 178 -127 c97 -70 183 -130 191 -133 l14 -5 -5 14
-5 14 -184 132 c-101 73 -185 133 -186 133 -2 0 -3 -6 -3 -14z"/>
<path d="M72667 80024 l-5 -9 13 -19 14 -18 11 4 12 4 -20 23 -19 24 -6 -9z"/>
<path d="M43315 79929 l-159 -39 -11 -11 -10 -11 20 5 c101 29 317 79 372 86
l68 8 -60 1 -60 0 -160 -39z"/>
<path d="M42485 78637 c-112 -270 -165 -401 -160 -405 2 -3 9 6 14 19 5 13 45
112 90 219 44 107 78 196 76 199 -3 2 -12 -12 -20 -32z"/>
<path d="M81168 78453 c11 -26 48 -126 83 -220 l63 -173 8 0 c14 0 10 13 -70
226 l-79 208 -12 4 -11 4 18 -49z"/>
<path d="M12977 77625 c-31 -109 -55 -201 -52 -203 6 -6 6 -7 65 202 28 98 49
183 47 189 -2 6 -29 -79 -60 -188z"/>
<path d="M43590 77280 c-72 -128 -129 -234 -127 -237 3 -2 27 35 55 84 177
312 212 376 208 380 -2 2 -63 -100 -136 -227z"/>
<path d="M42634 77446 c29 -23 397 -209 402 -203 3 3 -91 53 -208 111 -117 59
-204 100 -194 92z"/>
<path d="M73060 77110 l0 -10 240 0 240 0 0 10 0 10 -240 0 -240 0 0 -10z"/>
<path d="M41380 77052 c0 -9 336 -191 418 -226 l42 -19 7 6 6 7 -64 29 c-35
15 -140 70 -233 120 -94 50 -171 91 -173 91 -2 0 -3 -4 -3 -8z"/>
<path d="M74325 77040 l-6 -10 6 -10 c3 -5 10 -10 16 -10 l9 0 0 14 c0 8 -4
17 -9 21 l-10 5 -6 -10z"/>
<path d="M74555 76630 c3 -5 8 -10 11 -10 2 0 4 5 4 10 0 6 -5 10 -11 10 l-10
0 6 -10z"/>
<path d="M78235 76305 c-55 -24 -120 -53 -145 -64 -25 -11 -70 -29 -100 -41
-30 -12 -59 -26 -64 -31 l-10 -9 8 0 c13 0 420 171 431 181 l9 9 -14 -1 c-8
-1 -60 -21 -115 -44z"/>
<path d="M75980 72641 l0 -10 33 -5 c39 -6 337 -26 390 -26 l37 0 0 8 0 9
-202 12 c-112 6 -215 14 -230 17 l-28 6 0 -11z"/>
<path d="M21960 72622 c0 -4 41 -32 91 -62 l92 -54 113 -37 114 -37 0 12 0 11
-110 38 -111 38 -82 50 c-79 47 -107 58 -107 41z"/>
<path d="M71536 72358 l-176 -162 9 -9 9 -9 176 162 175 163 -5 8 c-3 5 -7 9
-9 9 -2 0 -82 -73 -179 -162z"/>
<path d="M71959 72378 c-67 -79 -129 -150 -136 -160 l-14 -16 10 -6 10 -6 135
157 c75 86 136 160 136 165 0 24 -30 -5 -141 -134z"/>
<path d="M81028 72444 c-5 -4 -8 -25 -8 -46 l0 -38 -21 -21 -21 -21 -134 7
-134 7 0 -10 0 -10 135 -7 135 -7 25 16 25 16 6 24 c3 12 4 40 2 60 l-3 38 -7
-8z"/>
<path d="M81071 72378 l-11 -62 -18 -19 -19 -18 -39 -9 -39 -9 -114 10 c-103
8 -133 7 -120 -5 3 -3 61 -10 130 -16 l126 -11 19 7 c10 3 34 13 52 22 l33 17
8 35 c5 19 12 54 16 78 l7 42 -10 0 -10 0 -11 -62z"/>
<path d="M79760 72330 c0 -5 3 -10 8 -10 4 0 108 -7 231 -15 206 -14 243 -14
230 0 -4 3 -417 35 -461 35 -4 0 -8 -4 -8 -10z"/>
<path d="M36940 72311 l0 -9 65 -16 c72 -18 95 -20 95 -8 l0 8 -72 17 c-84 20
-88 20 -88 8z"/>
<path d="M71336 72121 l-5 -8 23 -22 24 -23 7 12 7 11 -18 20 c-19 21 -30 24
-38 10z"/>
<path d="M71426 72031 l-6 -8 19 -17 19 -17 7 11 7 11 -12 14 c-14 17 -26 19
-34 6z"/>
<path d="M71505 71961 l-8 -13 155 -155 155 -155 6 8 5 9 -152 159 -152 160
-9 -13z"/>
<path d="M47668 70854 l-6 -6 21 -51 c11 -29 51 -99 88 -157 l68 -105 35 -34
36 -35 6 7 7 6 -38 46 c-56 68 -153 221 -180 281 -24 55 -27 59 -37 48z"/>
<path d="M47620 70830 c0 -5 9 -32 20 -61 l21 -51 64 -97 c35 -53 83 -118 107
-145 l44 -50 7 10 6 11 -53 64 c-62 76 -158 227 -181 287 l-17 42 -9 0 c-5 0
-9 -4 -9 -10z"/>
<path d="M74398 70675 l-6 -80 19 -110 c24 -138 29 -158 34 -153 3 2 -2 42
-11 89 l-16 84 -7 125 -6 125 -7 -80z"/>
<path d="M1080 69881 l0 -9 93 -17 92 -17 40 -20 40 -20 72 -71 73 -71 9 9 10
10 -82 76 c-45 42 -93 82 -107 89 -26 14 -179 49 -217 50 l-23 0 0 -9z"/>
<path d="M76690 69755 c-21 -25 -5 -28 31 -6 l34 21 -26 0 -27 0 -12 -15z"/>
<path d="M35270 69038 c-46 -84 -90 -163 -98 -175 l-14 -23 9 0 9 0 79 143
c44 78 88 157 98 175 l19 32 -9 0 -10 0 -83 -152z"/>
<path d="M33454 69029 l-7 -11 14 -9 14 -9 40 2 40 3 -5 10 -5 10 -27 -3 -26
-3 -7 10 c-8 14 -22 14 -31 0z"/>
<path d="M37104 68981 c4 -6 14 -11 21 -11 8 0 105 -34 215 -75 110 -41 206
-75 213 -75 l12 1 -15 8 c-25 15 -384 148 -420 156 l-33 7 7 -11z"/>
<path d="M68084 68747 c-54 -56 -139 -144 -189 -194 l-89 -93 10 -10 9 -9 151
157 c82 86 167 176 187 199 l38 41 -9 6 -8 5 -100 -102z"/>
<path d="M17750 68694 c-74 -7 -175 -14 -225 -15 l-90 -3 70 -4 70 -4 158 13
157 12 0 8 c0 5 -1 8 -2 8 -2 -1 -64 -7 -138 -15z"/>
<path d="M36753 68062 c-28 -70 -58 -144 -67 -164 l-16 -38 7 0 c10 0 138 318
131 325 -2 3 -27 -52 -55 -123z"/>
<path d="M39320 68073 c0 -5 85 -41 188 -82 103 -41 202 -81 220 -88 l32 -13
0 7 c0 5 -85 41 -188 82 -103 41 -202 81 -219 88 l-33 13 0 -7z"/>
<path d="M67510 68003 c0 -5 11 -20 25 -33 l25 -23 0 10 c0 5 -11 20 -25 33
l-25 23 0 -10z"/>
<path d="M41417 67878 c-35 -93 -129 -363 -133 -386 l-6 -30 11 -6 11 -7 0 21
c0 11 32 109 70 216 39 108 70 198 70 200 0 10 -18 3 -23 -8z"/>
<path d="M36654 67839 c-3 -6 -4 -12 -3 -13 2 -2 90 -44 194 -94 l190 -91 38
-7 37 -6 0 10 0 11 -52 15 -53 15 -172 85 -172 85 -7 -10z"/>
<path d="M46683 67487 c-84 -17 -153 -34 -153 -38 l0 -6 168 34 167 34 33 -5
32 -5 -5 10 -6 9 -42 -1 c-23 -1 -111 -15 -194 -32z"/>
<path d="M6465 67314 l-89 -74 -106 -2 -105 -2 105 -5 105 -6 73 60 c41 33 83
68 95 77 12 9 19 19 17 22 -3 2 -46 -29 -95 -70z"/>
<path d="M39226 66965 l-5 -15 9 0 10 0 0 15 c0 8 -2 15 -4 15 -2 0 -6 -7 -10
-15z"/>
<path d="M38225 66862 c-242 -13 -442 -26 -444 -28 -2 -2 -2 -5 0 -7 2 -2 182
7 399 19 217 12 421 23 453 23 l57 1 0 10 0 10 -12 -1 c-7 -1 -211 -13 -453
-27z"/>
<path d="M37022 66839 l-133 -7 -7 -7 -7 -7 145 7 c80 4 183 11 230 15 l85 7
-90 0 c-49 0 -150 -3 -223 -8z"/>
<path d="M42535 66833 c13 -13 395 -126 402 -119 3 2 -28 14 -69 26 -40 12
-125 37 -188 56 -63 19 -124 37 -135 40 l-20 6 10 -9z"/>
<path d="M37060 66799 c-80 -5 -154 -10 -165 -13 -32 -7 333 6 389 14 l51 8
-65 -1 c-36 0 -130 -4 -210 -8z"/>
<path d="M36339 66664 c-52 -26 -134 -64 -184 -85 l-90 -38 -11 10 -12 9 -5
-20 -5 -20 18 0 19 0 63 -53 c150 -126 219 -180 223 -175 3 2 -58 56 -135 119
-134 109 -154 129 -129 129 16 0 338 151 345 161 8 14 4 12 -97 -37z"/>
<path d="M77338 66611 l-166 -6 -8 -8 -7 -7 94 0 c52 0 151 3 222 7 l127 6 0
9 0 8 -47 -2 c-27 -1 -123 -4 -215 -7z"/>
<path d="M77235 66560 l-80 -6 110 -1 c61 0 162 3 225 7 l115 7 -145 -1 c-80
0 -181 -3 -225 -6z"/>
<path d="M41247 66433 c-12 -11 -8 -23 7 -23 l14 0 6 15 5 15 -13 0 c-7 0 -16
-3 -19 -7z"/>
<path d="M44265 66331 c13 -12 377 -123 383 -116 6 6 15 3 -193 65 -93 28
-177 53 -185 56 l-15 5 10 -10z"/>
<path d="M44245 66293 l10 -11 193 -55 192 -54 0 6 c0 4 -84 31 -187 60 -103
30 -194 56 -203 59 l-15 5 10 -10z"/>
<path d="M41590 66266 c0 -3 153 -105 308 -204 12 -8 22 -11 22 -8 0 7 -315
216 -325 216 -3 0 -5 -2 -5 -4z"/>
<path d="M65580 66104 c0 -13 118 -129 124 -123 3 3 -24 34 -59 69 l-65 64 0
-10z"/>
<path d="M87872 66040 c-24 -27 -57 -57 -73 -67 -16 -10 -29 -20 -29 -24 0
-12 83 -180 87 -176 2 2 -13 41 -33 85 l-37 82 72 66 c65 60 84 85 64 84 -5
-1 -27 -23 -51 -50z"/>
<path d="M41876 65971 c21 -21 339 -229 343 -225 2 2 2 6 0 7 -22 19 -339 227
-345 227 l-8 0 10 -9z"/>
<path d="M83701 65663 c3 -27 12 -64 19 -83 l13 -35 48 -60 c26 -33 57 -82 70
-108 13 -26 27 -47 31 -47 l8 0 -26 53 c-15 28 -47 78 -72 110 l-45 59 -18 49
-19 49 0 30 0 30 -8 0 -8 0 7 -47z"/>
<path d="M46972 65468 c-71 -106 -157 -241 -192 -300 l-62 -108 -12 0 c-6 0
-112 43 -235 95 -123 52 -226 93 -229 90 -3 -2 12 -12 34 -21 259 -108 420
-178 422 -185 2 -5 12 -9 22 -9 11 0 60 -18 111 -40 51 -22 94 -38 97 -35 4 4
-51 30 -150 71 -27 10 -48 22 -48 26 0 13 118 206 242 393 142 216 141 215
134 215 -3 0 -64 -87 -134 -192z"/>
<path d="M29403 65483 l7 -6 7 6 6 7 -13 0 -13 0 6 -7z"/>
<path d="M29328 65473 l13 -5 6 6 6 6 -19 -1 -19 -1 13 -5z"/>
<path d="M29258 65463 l13 -5 6 6 6 6 -19 -1 -19 -1 13 -5z"/>
<path d="M29113 65446 c-39 -6 -75 -14 -79 -18 l-7 -8 19 0 c10 1 57 9 104 19
l85 19 -25 0 c-14 0 -57 -6 -97 -12z"/>
<path d="M38461 64933 c-17 -142 -34 -268 -37 -280 l-4 -23 7 0 8 0 35 280
c19 154 33 280 29 280 -3 0 -20 -116 -38 -257z"/>
<path d="M36050 65132 c0 -9 411 -215 417 -208 3 3 -90 52 -206 110 -116 59
-211 103 -211 98z"/>
<path d="M1287 64744 c-87 -17 -161 -35 -165 -39 l-7 -7 40 7 c108 19 290 56
294 60 11 12 -14 9 -162 -21z"/>
<path d="M47360 64773 l0 -8 215 -92 215 -91 4 7 5 7 -211 90 c-116 49 -215
91 -220 92 -4 2 -8 0 -8 -5z"/>
<path d="M37060 64571 l0 -19 33 -12 32 -12 155 -19 155 -20 240 -14 c132 -8
257 -15 278 -15 l37 0 0 20 0 20 -35 0 c-185 0 -725 53 -872 85 l-23 5 0 -19z"/>
<path d="M37100 64455 l0 -15 25 0 25 0 0 15 0 15 -25 0 -25 0 0 -15z"/>
<path d="M34946 64349 c-30 -131 -83 -515 -73 -525 2 -3 10 39 16 93 7 54 25
176 42 272 16 96 27 176 25 179 -3 2 -7 -6 -10 -19z"/>
<path d="M39710 64291 c0 -17 28 -30 214 -100 l189 -72 8 13 8 13 -17 6 c-147
56 -396 149 -398 149 -2 0 -4 -4 -4 -9z"/>
<path d="M41890 64098 l-22 -93 -19 -33 c-22 -39 -23 -42 -6 -42 l13 0 16 28
17 29 24 101 24 102 -12 0 -13 0 -22 -92z"/>
<path d="M40666 64119 c-69 -46 -59 -53 12 -9 l49 30 27 0 26 0 0 10 0 10 -27
-1 -28 -1 -59 -39z"/>
<path d="M41285 64131 c11 -5 52 -12 90 -16 61 -6 262 -45 320 -61 l20 -6 -10
10 -10 10 -125 26 c-116 24 -265 47 -293 45 l-12 0 20 -8z"/>
<path d="M79416 64091 l-210 -27 -3 -11 -4 -12 33 5 c18 3 116 15 217 28 l185
22 4 12 4 12 -9 -1 c-4 -1 -102 -13 -217 -28z"/>
<path d="M41715 64015 c-3 -8 -7 -22 -10 -30 l-4 -15 13 0 14 0 6 23 c8 31 7
37 -4 37 -6 0 -13 -7 -15 -15z"/>
<path d="M33945 63940 c25 -11 436 -72 443 -66 6 7 -18 12 -245 46 -217 32
-229 33 -198 20z"/>
<path d="M27815 63774 c-116 -87 -151 -127 -223 -256 l-33 -56 10 -6 9 -6 43
77 43 78 39 42 c22 24 70 66 108 95 l69 53 0 12 c0 17 3 19 -65 -33z"/>
<path d="M41450 63743 l-24 -5 -78 -65 c-43 -36 -78 -67 -78 -69 0 -9 22 7 96
68 l71 58 37 0 38 0 55 -16 c30 -9 57 -14 59 -11 5 5 -79 32 -126 40 -14 3
-36 2 -50 0z"/>
<path d="M77001 63658 l13 -23 17 -104 c18 -100 24 -120 34 -110 6 7 -21 172
-37 222 l-11 37 -14 0 -14 0 12 -22z"/>
<path d="M77060 63618 c1 -32 27 -189 33 -195 16 -15 17 10 5 102 l-13 98 -13
5 -12 4 0 -14z"/>
<path d="M41270 63574 c0 -9 233 -273 254 -286 26 -17 24 -6 -3 20 -16 15 -75
79 -131 142 -57 63 -107 119 -111 125 l-9 9 0 -10z"/>
<path d="M16643 63484 l-6 -16 7 -127 c3 -69 9 -141 12 -158 l6 -33 9 0 9 0
-8 63 c-4 34 -7 113 -7 175 l0 112 -8 0 c-4 0 -10 -7 -14 -16z"/>
<path d="M23602 63314 c-46 -97 -81 -178 -79 -180 2 -2 40 71 86 163 l82 166
-3 13 -3 14 -83 -176z"/>
<path d="M41011 63389 c-34 -28 -61 -55 -61 -61 l0 -10 65 57 c36 32 65 59 65
61 0 9 -12 1 -69 -47z"/>
<path d="M7033 63363 l7 -6 7 6 6 7 -13 0 -13 0 6 -7z"/>
<path d="M6401 63334 c-145 -7 -266 -16 -269 -19 -3 -3 -2 -8 1 -12 l7 -6 300
13 300 13 99 -7 99 -7 27 7 27 7 -11 7 -12 7 -82 1 c-45 1 -113 4 -152 6 l-70
4 -264 -14z"/>
<path d="M16357 63315 l-17 -36 0 -39 0 -38 26 -31 26 -31 15 0 15 0 -31 35
-31 36 0 32 1 32 14 25 c8 14 14 31 15 38 0 23 -16 12 -33 -23z"/>
<path d="M41990 63346 c0 -9 119 -152 189 -229 39 -42 71 -73 71 -68 0 5 -32
44 -71 87 -40 44 -96 109 -126 147 -49 61 -63 75 -63 63z"/>
<path d="M36836 63290 c-25 -157 -82 -586 -79 -589 2 -2 5 -2 7 0 7 8 87 610
83 622 l-4 12 -7 -45z"/>
<path d="M41540 63152 c0 -5 7 -15 15 -22 l15 -12 0 10 c0 5 -7 15 -15 22
l-15 12 0 -10z"/>
<path d="M2924 63101 c9 -13 313 -281 320 -281 3 0 6 4 6 9 0 11 -307 281
-321 281 l-10 0 5 -9z"/>
<path d="M21034 63088 l-7 -23 31 -25 31 -24 131 -42 130 -41 0 8 0 8 -128 40
-128 40 -23 25 -24 25 6 15 6 16 -9 0 c-5 0 -12 -10 -16 -22z"/>
<path d="M16660 63049 l0 -50 10 6 10 6 0 45 0 44 -10 0 -10 0 0 -51z"/>
<path d="M13710 63077 l0 -8 158 3 157 3 35 -8 35 -7 -30 15 -30 15 -162 -2
-163 -2 0 -9z"/>
<path d="M13385 63069 l-69 -9 -11 -11 -10 -12 30 7 c17 4 76 10 133 15 57 5
106 11 109 15 l6 6 -59 -1 c-32 -1 -90 -6 -129 -10z"/>
<path d="M34295 63023 l10 -10 185 -22 c102 -12 197 -24 213 -27 l27 -6 0 9 0
9 -192 23 c-106 13 -206 25 -223 28 l-30 6 10 -10z"/>
<path d="M10000 63008 l0 -8 88 1 c91 2 81 6 -26 11 l-62 3 0 -7z"/>
<path d="M15030 62993 l0 -32 10 -6 10 -6 0 23 c0 13 -5 30 -10 38 l-10 15 0
-32z"/>
<path d="M18145 63010 l-6 -10 10 0 c6 0 11 5 11 10 0 6 -2 10 -4 10 -3 0 -8
-4 -11 -10z"/>
<path d="M43839 62985 l-87 -22 -54 -44 c-121 -99 -408 -353 -408 -361 0 -5
84 65 188 155 103 89 212 181 242 204 l55 40 93 23 c88 21 113 31 75 29 -10 0
-57 -11 -104 -24z"/>
<path d="M10283 62993 c9 -2 25 -2 35 0 l17 5 -35 0 -35 0 18 -5z"/>
<path d="M17349 62966 c-2 -2 -52 -6 -110 -9 -217 -12 -425 -29 -459 -37 l-35
-8 65 -1 c36 0 135 6 220 14 85 8 238 20 340 25 234 13 255 17 104 19 -66 0
-123 -1 -125 -3z"/>
<path d="M16660 62920 l0 -30 10 0 10 0 0 30 0 30 -10 0 -10 0 0 -30z"/>
<path d="M16686 62692 l-7 -11 20 -39 19 -38 -23 -72 c-13 -39 -38 -98 -56
-132 l-32 -60 6 -7 6 -6 45 92 44 91 7 41 7 41 28 -50 29 -49 77 -62 c73 -58
95 -71 93 -53 0 4 -36 35 -80 70 l-79 63 -35 69 -35 69 3 13 4 13 -5 -9 -5 -9
-12 23 -12 23 -7 -11z"/>
<path d="M41053 62613 c-74 -56 -243 -206 -243 -215 0 -18 20 -3 135 98 65 58
132 113 147 122 27 16 37 32 19 32 -5 0 -31 -17 -58 -37z"/>
<path d="M47097 62503 c-2 -4 -7 -25 -11 -46 l-7 -38 6 -19 c4 -11 11 -20 16
-20 l10 0 -10 18 -9 17 8 45 c8 44 7 60 -3 43z"/>
<path d="M48400 62315 c-35 -58 -61 -108 -58 -110 2 -2 31 41 63 95 l60 100
13 0 c8 0 52 -23 99 -51 46 -28 86 -49 89 -46 5 5 -180 117 -194 117 l-10 0
-62 -105z"/>
<path d="M23007 62150 c-59 -116 -104 -210 -100 -210 4 0 57 95 116 210 59
116 104 210 100 210 -4 0 -57 -95 -116 -210z"/>
<path d="M40733 62300 l-22 -50 8 -4 7 -5 27 55 27 54 -13 0 -12 0 -22 -50z"/>
<path d="M36690 62331 c0 -6 4 -11 9 -11 6 0 55 -53 109 -118 95 -113 170
-188 178 -179 2 2 -22 30 -54 63 -31 32 -93 101 -137 153 -44 52 -86 96 -92
99 l-13 4 0 -11z"/>
<path d="M44370 62325 c0 -20 695 -795 712 -795 5 0 -64 80 -154 178 -90 97
-251 277 -357 400 -106 122 -195 222 -197 222 -2 0 -4 -2 -4 -5z"/>
<path d="M40508 62231 l-47 -30 -10 -20 c-19 -34 -12 -32 28 8 l39 39 43 15
44 15 -26 1 -25 1 -46 -29z"/>
<path d="M40674 62218 l-7 -11 11 7 c7 4 12 9 12 12 0 8 -9 4 -16 -8z"/>
<path d="M40613 62136 c3 -7 15 -47 27 -87 12 -41 30 -85 40 -99 9 -14 83
-200 165 -415 81 -214 149 -392 151 -394 2 -2 7 -1 10 2 l7 6 -148 388 c-81
213 -158 411 -171 438 -12 28 -31 78 -40 113 l-17 62 -15 0 -14 0 5 -14z"/>
<path d="M48900 61800 c-78 -133 -141 -243 -138 -245 2 -2 68 104 147 236 79
132 142 242 139 244 -3 3 -69 -103 -148 -235z"/>
<path d="M37870 61871 l0 -8 63 -7 c63 -8 316 -52 352 -62 l20 -6 -10 9 c-12
12 -131 37 -275 58 -58 9 -115 18 -127 21 l-23 4 0 -9z"/>
<path d="M43661 61664 c-127 -113 -231 -208 -231 -210 0 -11 25 10 245 206
130 116 232 210 226 210 -5 0 -113 -93 -240 -206z"/>
<path d="M39660 61699 c-19 -5 -116 -13 -214 -19 -98 -5 -182 -12 -185 -16
l-6 -6 150 7 c149 6 272 20 310 36 l20 8 -20 -1 c-11 0 -36 -4 -55 -9z"/>
<path d="M46281 60758 c-71 -79 -150 -160 -175 -181 -25 -21 -46 -43 -46 -48
l0 -11 61 56 c56 50 299 312 299 322 0 12 -19 -8 -139 -138z"/>
<path d="M46314 60738 c-64 -73 -144 -157 -176 -185 l-59 -53 11 0 c6 0 36 24
67 53 76 72 297 317 285 317 -5 0 -63 -60 -128 -132z"/>
<path d="M49823 60780 c-35 -14 -27 -20 10 -8 17 6 34 13 36 14 8 7 -24 3 -46
-6z"/>
<path d="M44181 60703 c4 -13 291 -334 329 -368 11 -10 20 -15 20 -12 0 6
-289 328 -337 377 l-15 15 3 -12z"/>
<path d="M47184 60653 c2 -10 8 -112 12 -228 l7 -210 8 -20 9 -20 -4 70 c-3
39 -8 150 -12 248 l-7 177 -9 0 -9 0 5 -17z"/>
<path d="M43195 60380 l-7 -11 13 -17 c54 -69 198 -233 326 -370 84 -89 180
-197 215 -240 34 -42 148 -168 252 -280 l189 -203 146 -133 c80 -73 182 -160
226 -194 l80 -61 9 9 c5 5 8 11 5 13 -64 52 -170 144 -267 231 -68 61 -127
112 -132 114 -13 5 -417 444 -485 527 -31 38 -136 155 -234 260 -97 104 -210
229 -250 278 -40 48 -75 87 -76 87 -2 0 -7 -5 -10 -10z"/>
<path d="M18475 60329 c-38 -16 -96 -36 -128 -45 l-59 -15 -67 7 -68 6 -22
-12 -23 -12 6 -5 c3 -3 47 -5 98 -4 l93 2 40 10 c22 6 79 26 127 46 l88 36 -6
8 c-6 11 3 14 -79 -22z"/>
<path d="M28784 60268 c-10 -15 -75 -440 -68 -447 2 -2 6 -2 9 0 6 6 74 453
70 457 -2 2 -7 -3 -11 -10z"/>
<path d="M47437 60149 l-97 -81 0 -25 0 -25 82 76 c46 42 87 76 92 76 5 0 -35
-42 -89 -92 l-99 -93 -43 -92 -43 -93 -26 -120 c-14 -67 -24 -123 -22 -125 2
-3 19 57 37 133 l34 137 34 69 35 69 99 102 c54 56 97 104 94 107 -3 3 1 11
10 18 16 13 21 40 7 40 -4 0 -51 -36 -105 -81z"/>
<path d="M46095 59958 l-220 -222 160 151 c198 187 303 293 290 293 -6 0 -109
-100 -230 -222z"/>
<path d="M43542 59888 l-24 -28 10 0 c13 0 45 37 41 48 l-4 9 -23 -29z"/>
<path d="M47217 59852 l-27 -67 -55 -260 -55 -260 -27 -75 c-56 -153 -160
-287 -304 -393 l-40 -30 9 -9 10 -10 49 33 c26 18 78 64 115 101 l68 67 45 69
44 69 31 84 31 84 54 263 55 262 25 62 c29 71 30 78 12 78 l-14 0 -26 -68z"/>
<path d="M43986 59845 l-6 -16 82 -102 c45 -56 120 -146 167 -199 l85 -97 8 6
9 5 -14 16 c-7 10 -80 100 -162 202 -82 102 -151 189 -155 193 l-7 8 -7 -16z"/>
<path d="M28750 59842 l0 -9 180 -14 180 -14 0 6 0 6 -157 12 c-87 7 -168 14
-180 17 l-23 4 0 -8z"/>
<path d="M43565 59833 c-16 -2 -100 -25 -185 -50 l-155 -46 -70 -32 -70 -32
-110 -80 -110 -79 -150 -71 c-195 -92 -676 -297 -740 -316 l-50 -14 -52 7 -53
6 0 -7 0 -6 58 -7 57 -6 60 19 c70 22 585 243 760 326 l119 57 116 83 117 84
59 26 c32 15 132 49 222 76 l163 49 32 0 32 0 15 10 15 10 -25 -2 c-14 0 -38
-3 -55 -5z"/>
<path d="M28609 59683 c-26 -82 -58 -174 -73 -205 l-26 -58 9 0 10 0 26 58
c23 50 115 324 115 345 0 4 -3 7 -8 7 l-7 0 -46 -147z"/>
<path d="M46829 59628 l43 -31 46 -4 47 -5 20 16 20 15 -35 -9 -35 -10 -32 6
-32 6 -32 24 c-18 13 -37 24 -43 24 -5 0 9 -14 33 -32z"/>
<path d="M47181 59524 l1 -19 5 13 5 13 -6 6 -6 6 1 -19z"/>
<path d="M47170 59480 l0 -13 7 6 6 7 -6 7 -7 6 0 -13z"/>
<path d="M22533 59397 c-95 -97 -125 -142 -153 -221 -23 -68 -23 -66 -12 -66
l8 0 18 58 18 57 36 50 c19 28 67 82 106 122 38 40 68 75 65 78 -3 3 -42 -32
-86 -78z"/>
<path d="M41020 59457 c8 -8 60 -43 114 -77 l99 -62 70 -29 c39 -16 72 -27 75
-24 3 2 -4 8 -14 11 -63 23 -150 68 -225 116 -48 31 -97 62 -110 68 l-24 12
15 -15z"/>
<path d="M47066 59441 l-6 -9 16 -6 c20 -8 29 -1 19 13 -8 13 -22 14 -29 2z"/>
<path d="M46982 59410 l-12 -20 1 -42 1 -43 14 55 c15 63 14 79 -4 50z"/>
<path d="M47030 59270 l0 -10 14 0 c8 0 18 5 21 10 l6 10 -20 0 -21 0 0 -10z"/>
<path d="M45660 59174 l75 -75 118 -84 c64 -47 117 -81 117 -77 0 5 -51 45
-112 89 l-113 81 -70 71 c-38 39 -74 71 -79 71 -6 0 23 -34 64 -76z"/>
<path d="M40656 58868 c-60 -161 -127 -328 -148 -370 l-38 -77 9 -5 9 -6 37
78 c34 71 255 646 255 664 0 4 -3 8 -8 8 l-7 0 -109 -292z"/>
<path d="M49880 58850 c-62 -83 -111 -152 -109 -155 5 -4 217 268 225 289 13
35 -9 9 -116 -134z"/>
<path d="M46490 58758 l-134 -102 11 -3 12 -4 123 92 c68 51 125 93 127 95 1
1 1 7 0 13 l-4 10 -135 -101z"/>
<path d="M44670 58827 l25 -26 83 -45 c45 -24 82 -42 82 -40 0 5 -108 75 -175
114 l-40 23 25 -26z"/>
<path d="M40651 58593 l-54 -148 -24 -35 c-25 -38 -28 -50 -13 -50 5 0 21 17
34 38 l25 37 50 135 c27 74 52 143 56 153 l7 17 -14 0 -13 0 -54 -147z"/>
<path d="M46565 58609 c-121 -95 -348 -295 -373 -328 l-19 -27 -12 -52 c-6
-29 -11 -67 -11 -83 l0 -30 25 -52 25 -52 60 -78 61 -77 10 6 10 6 -13 18 c-7
9 -39 53 -70 96 l-57 79 -16 45 -15 44 11 58 12 59 31 39 c39 48 220 208 349
308 87 67 112 93 90 92 -5 -1 -48 -33 -98 -71z"/>
<path d="M45062 58544 c10 -11 24 -35 32 -54 l14 -35 7 -92 8 -93 9 0 10 0 -7
98 -7 97 -16 34 -17 34 -25 16 -25 15 17 -20z"/>
<path d="M40560 58331 c0 -6 19 -21 43 -34 l42 -25 49 -7 49 -7 106 13 c58 6
113 16 121 20 l15 8 -15 1 c-8 0 -61 -7 -117 -15 l-102 -14 -57 10 -57 11 -38
24 -39 24 0 -9z"/>
<path d="M39839 58282 c-141 -13 -158 -16 -146 -28 l6 -6 128 12 128 13 173
-7 172 -7 0 10 0 11 -57 1 c-32 1 -104 4 -159 8 l-101 6 -144 -13z"/>
<path d="M45922 58248 l-12 -12 113 -115 113 -116 166 -235 c92 -129 189 -267
216 -306 l50 -70 55 -130 c30 -71 60 -146 67 -167 25 -77 18 -29 -9 63 l-28
95 -73 145 c-40 79 -83 159 -97 177 l-25 32 8 13 7 13 -8 -7 -8 -8 -14 11 c-7
6 -13 16 -13 21 l0 9 13 -7 12 -7 -8 9 c-5 5 -12 9 -17 9 -4 0 -51 60 -103
132 -124 172 -238 311 -324 396 l-69 67 -12 -12z"/>
<path d="M40143 58243 l7 -6 7 6 6 7 -13 0 -13 0 6 -7z"/>
<path d="M38995 58189 c-104 -16 -212 -35 -240 -43 l-50 -14 16 -7 17 -6 53
15 c30 8 124 25 209 36 85 11 165 23 178 25 l22 5 0 10 c0 6 -3 10 -7 9 -5 -1
-93 -14 -198 -30z"/>
<path d="M46270 57971 c0 -5 21 -35 46 -66 l47 -57 74 -131 c76 -135 89 -154
97 -146 3 2 -30 66 -72 142 l-77 137 -50 65 c-48 61 -65 76 -65 56z"/>
<path d="M35758 57840 c-56 -10 -179 -49 -192 -61 -14 -13 -7 -11 70 15 l69
23 85 12 85 13 90 -6 90 -5 -25 8 -25 9 -100 0 c-55 0 -121 -4 -147 -8z"/>
<path d="M46330 57822 c0 -9 74 -120 93 -137 5 -5 -8 24 -31 65 -22 41 -45 76
-51 78 l-11 4 0 -10z"/>
<path d="M35305 57694 c-233 -123 -231 -122 -224 -128 2 -2 96 46 209 106 256
136 257 137 245 138 -5 0 -109 -52 -230 -116z"/>
<path d="M37960 57750 l0 -13 7 6 6 7 -6 7 -7 6 0 -13z"/>
<path d="M46523 57665 c52 -51 57 -59 26 -50 l-22 7 7 -11 7 -11 36 0 35 0
-52 48 c-70 63 -97 76 -37 17z"/>
<path d="M37995 57530 c10 -11 23 -20 28 -20 l10 0 -18 20 c-10 11 -23 20 -28
20 l-10 0 18 -20z"/>
<path d="M48080 56970 l0 -10 14 0 c8 0 94 -38 191 -85 98 -47 183 -85 189
-84 12 0 -372 189 -386 189 -4 0 -8 -4 -8 -10z"/>
<path d="M46550 56887 c0 -10 13 -109 29 -220 17 -111 45 -309 63 -441 l33
-238 13 -5 c7 -3 15 -3 17 -1 5 5 -22 204 -80 593 -28 186 -53 305 -66 320
l-9 9 0 -17z"/>
<path d="M49985 56681 l-5 -10 10 -6 10 -6 0 15 c0 18 -6 21 -15 7z"/>
<path d="M43080 56611 c0 -36 30 -161 45 -191 9 -17 78 -115 153 -218 76 -103
163 -223 194 -268 l57 -80 26 -70 c14 -38 33 -98 41 -134 l14 -65 20 -325 20
-325 0 -155 0 -155 -19 -100 -19 -100 -32 -90 -32 -90 -60 -115 -61 -115 -45
-60 -45 -60 -302 -305 -301 -305 -46 -70 c-83 -127 -90 -144 -183 -445 -58
-183 -68 -226 -49 -207 3 3 35 99 71 213 l64 208 34 70 c19 39 53 100 76 136
l42 65 297 300 296 300 55 70 56 70 60 115 61 115 32 90 c17 50 38 119 47 155
l14 65 8 155 8 155 -23 385 -23 385 -14 55 c-8 30 -27 87 -43 125 l-29 70 -52
76 c-28 41 -121 171 -206 287 l-155 211 -12 53 c-6 29 -14 72 -17 96 l-6 42
-8 0 -9 0 0 -19z"/>
<path d="M49291 56396 c2 -2 76 -38 164 -79 l160 -75 50 -6 50 -6 -20 9 c-11
5 -31 10 -45 10 l-25 1 -158 75 c-134 63 -195 88 -176 71z"/>
<path d="M32964 56219 c-16 -17 -67 -63 -114 -103 l-85 -72 -92 -47 c-80 -41
-118 -67 -99 -67 3 0 57 27 120 61 l114 61 98 93 99 93 -6 6 -5 6 -30 -31z"/>
<path d="M48014 56222 c3 -6 73 -45 154 -87 81 -43 175 -93 210 -112 l62 -35
0 9 c0 4 -35 26 -78 49 -292 154 -354 186 -348 176z"/>
<path d="M46930 55950 l0 -13 7 6 6 7 -6 7 -7 6 0 -13z"/>
<path d="M37699 55713 l-24 -198 -44 -24 -45 -25 -170 13 c-94 7 -184 15 -201
18 l-30 6 10 -10 10 -10 188 -16 188 -16 43 20 c24 10 48 24 54 31 l10 13 24
198 24 197 -6 0 -7 0 -24 -197z"/>
<path d="M46941 55894 l1 -19 5 13 5 13 -6 6 -6 6 1 -19z"/>
<path d="M25492 55889 l4 -12 179 -112 c99 -62 182 -111 184 -109 6 5 7 4 -64
49 -33 21 -116 74 -183 117 l-124 79 4 -12z"/>
<path d="M46952 55840 l0 -25 5 13 c2 6 2 18 0 25 l-5 12 0 -25z"/>
<path d="M35880 55834 c0 -5 28 -16 70 -29 l25 -7 -10 10 c-11 11 -85 34 -85
26z"/>
<path d="M46961 55794 l1 -19 5 13 5 13 -6 6 -6 6 1 -19z"/>
<path d="M35390 55419 l-345 -330 -120 -93 -120 -93 -380 -243 c-209 -133
-411 -264 -450 -290 -38 -26 -106 -66 -151 -88 l-80 -40 -34 -44 -34 -44 -24
23 c-25 23 -52 30 -52 14 0 -5 11 -16 24 -24 l24 -16 8 -33 9 -33 75 -71 75
-71 184 -122 183 -123 9 9 9 9 -192 129 -193 129 -58 56 c-33 30 -63 63 -69
73 l-9 18 42 50 42 50 71 36 c39 19 118 68 176 108 58 39 270 178 472 308
l368 236 92 71 92 71 355 340 c196 188 358 345 359 350 2 5 0 9 -5 9 -4 0
-163 -149 -353 -331z"/>
<path d="M47030 55560 l0 -13 7 6 6 7 -6 7 -7 6 0 -13z"/>
<path d="M47040 55530 l0 -13 7 6 6 7 -6 7 -7 6 0 -13z"/>
<path d="M31740 55318 l1 -13 198 -127 c109 -71 204 -128 212 -128 l13 0 -9 9
c-9 8 -256 171 -377 248 l-38 23 0 -12z"/>
<path d="M43570 55293 c1 -10 7 -107 14 -216 12 -178 18 -219 30 -206 2 2 -2
94 -10 204 -7 110 -13 208 -14 218 l0 17 -10 0 -10 0 0 -17z"/>
<path d="M25510 55196 c-88 -77 -528 -422 -630 -493 -25 -18 -117 -88 -205
-157 -88 -69 -240 -186 -337 -261 l-178 -136 0 -10 0 -11 10 4 c9 3 83 59 550
417 609 469 886 691 898 723 9 22 -22 1 -108 -76z"/>
<path d="M48685 55075 c-126 -63 -234 -116 -240 -118 -5 -2 -8 -6 -5 -9 3 -3
118 50 255 118 138 67 243 123 235 122 -8 0 -118 -51 -245 -113z"/>
<path d="M47194 54976 l-19 -15 11 -10 10 -11 17 12 17 13 -8 12 -8 13 -20
-14z"/>
<path d="M47304 54961 c17 -31 30 -39 41 -22 l5 9 -31 23 -31 22 16 -32z"/>
<path d="M31680 54926 c0 -2 40 -27 90 -55 49 -29 131 -79 181 -112 50 -33 93
-58 96 -56 6 7 -36 36 -203 137 -135 82 -164 97 -164 86z"/>
<path d="M48554 54738 c51 -106 107 -221 125 -256 l32 -63 -191 -91 c-104 -50
-188 -93 -185 -96 2 -2 86 34 185 82 100 47 185 86 190 86 4 0 38 -63 76 -140
37 -77 70 -138 73 -135 3 3 -26 68 -64 145 -38 77 -67 141 -65 144 3 2 111 61
240 130 129 69 229 126 222 126 -7 0 -114 -54 -237 -120 -122 -66 -227 -120
-231 -120 l-9 1 -120 249 c-66 138 -123 250 -127 250 -4 0 35 -87 86 -192z"/>
<path d="M47104 54864 l-6 -45 16 -37 17 -37 26 -19 25 -18 11 11 11 11 -22
16 c-12 8 -29 29 -38 46 l-16 31 5 31 c5 34 0 56 -13 56 l-9 0 -7 -46z"/>
<path d="M11250 54769 l-75 -18 -80 -1 c-44 -1 -100 -5 -125 -10 l-45 -9 125
5 125 5 75 16 c41 8 82 19 90 24 l15 8 -15 0 c-8 -1 -49 -9 -90 -20z"/>
<path d="M47898 54689 c-87 -44 -158 -81 -158 -83 0 -6 116 47 230 104 92 46
95 48 89 54 -2 2 -75 -32 -161 -75z"/>
<path d="M48051 54725 c6 -14 75 -149 171 -333 44 -84 82 -151 85 -149 5 5
-234 467 -249 482 l-10 10 3 -10z"/>
<path d="M49890 54664 l-95 -46 12 -5 11 -4 91 46 c83 41 104 55 84 55 -5 0
-51 -21 -103 -46z"/>
<path d="M18268 54662 c-98 -14 -178 -29 -178 -32 l0 -6 196 27 c107 15 198
30 201 33 l6 6 -24 -1 c-13 -1 -104 -13 -201 -27z"/>
<path d="M47771 54589 c-1 -17 50 -174 69 -210 7 -13 30 -42 51 -64 l38 -40
51 -109 c28 -60 53 -106 55 -104 3 3 -15 48 -40 101 -25 53 -45 100 -45 105 0
4 -16 24 -36 43 -50 49 -71 85 -109 196 -18 54 -34 91 -34 82z"/>
<path d="M47731 54573 c-1 -7 17 -61 40 -121 l41 -109 47 -55 47 -55 44 -97
c24 -53 47 -96 51 -96 4 0 -15 48 -42 107 l-50 106 -44 51 -44 52 -45 114
c-24 63 -45 110 -45 103z"/>
<path d="M32986 54511 l-6 -9 201 -136 c110 -75 205 -136 210 -136 5 0 9 4 9
9 l0 10 -201 135 c-110 75 -202 136 -204 136 -2 0 -6 -4 -9 -9z"/>
<path d="M49895 54454 c-49 -24 -94 -45 -100 -47 -5 -3 -8 -7 -5 -10 3 -3 52
19 110 49 58 29 101 53 95 53 -5 -1 -50 -20 -100 -45z"/>
<path d="M33492 54183 l-33 -28 -5 -40 -6 -40 -23 -48 -23 -47 -156 -126 -157
-125 7 -10 6 -10 11 9 c7 5 78 61 158 125 l146 117 16 41 16 41 38 -31 c36
-30 63 -40 63 -23 0 4 -14 15 -30 24 l-30 17 -10 26 c-6 15 -10 38 -10 51 l0
26 29 29 29 29 26 0 26 0 0 10 0 10 -28 0 -28 0 -32 -27z"/>
<path d="M49152 54077 c-128 -66 -231 -122 -228 -124 4 -4 231 108 396 196 52
28 88 50 80 49 -8 0 -120 -55 -248 -121z"/>
<path d="M33634 54035 l-22 -24 13 -5 13 -5 16 18 c17 18 22 42 9 40 -5 -1
-18 -12 -29 -24z"/>
<path d="M47707 54023 l-5 -8 98 -203 99 -202 14 0 c7 0 16 3 20 6 l6 6 -100
201 -100 202 -14 3 c-7 2 -15 -1 -18 -5z"/>
<path d="M20855 53925 l-200 -84 -55 -2 c-30 -1 -102 0 -160 4 l-105 6 50 -10
50 -10 110 -2 110 -1 202 82 201 82 40 0 39 0 172 -35 172 -34 79 -35 c44 -19
80 -31 80 -27 0 4 -39 23 -87 43 l-88 37 -180 35 c-99 20 -191 36 -205 35
l-25 -1 -200 -83z"/>
<path d="M46866 53953 c-3 -32 -8 -112 -11 -178 -3 -66 -8 -147 -11 -180 l-5
-60 9 15 9 15 12 219 c11 209 10 294 -3 169z"/>
<path d="M33600 53986 c8 -7 48 -26 88 -41 l73 -27 6 6 c4 3 4 8 2 9 -8 7
-164 67 -174 67 l-9 0 14 -14z"/>
<path d="M49036 53743 c104 -217 200 -403 259 -503 l39 -64 3 10 4 11 -52 89
c-28 49 -114 215 -191 369 -76 154 -143 281 -148 283 l-10 4 96 -199z"/>
<path d="M48994 53748 c143 -296 183 -376 235 -462 28 -46 51 -88 51 -93 l0
-9 -112 -54 c-61 -30 -138 -72 -171 -93 l-59 -38 5 -5 6 -6 43 30 c55 37 283
152 303 152 l15 0 0 15 c0 8 -3 15 -8 15 -4 0 -37 51 -74 113 l-66 112 -118
248 c-66 136 -122 247 -126 247 -4 0 31 -78 76 -172z"/>
<path d="M49845 53745 c-77 -41 -134 -75 -127 -75 13 0 282 139 282 146 0 10
-22 -1 -155 -71z"/>
<path d="M49741 53576 l-12 -15 -27 -4 -27 -4 31 -2 32 -1 12 15 c7 9 11 18 8
20 -3 3 -11 -1 -17 -9z"/>
<path d="M49918 53517 c-37 -23 -73 -48 -80 -56 l-13 -14 15 8 c36 19 160 97
160 101 0 9 -19 0 -82 -39z"/>
<path d="M32583 53367 c-90 -62 -163 -116 -163 -121 l0 -8 14 5 c23 9 321 218
324 228 l4 9 -9 0 c-4 -1 -81 -51 -170 -113z"/>
<path d="M49597 53182 c-186 -114 -225 -142 -199 -142 9 0 391 235 406 250 5
5 7 12 5 15 -3 2 -98 -53 -212 -123z"/>
<path d="M44105 53230 l-100 -8 -490 -76 c-269 -42 -582 -91 -694 -109 l-205
-33 10 -6 9 -6 205 33 c113 19 432 68 710 109 l505 76 110 6 110 6 160 -11
160 -12 115 -20 c63 -11 162 -34 220 -51 l105 -30 260 -111 260 -111 98 -69
98 -68 10 3 11 4 -108 75 -109 76 -260 110 -260 111 -105 30 c-58 16 -159 39
-225 51 l-120 20 -146 11 c-158 11 -180 11 -334 0z"/>
<path d="M49617 53127 c-114 -61 -205 -112 -203 -115 4 -3 403 201 415 214 20
20 -34 -6 -212 -99z"/>
<path d="M48110 53183 c0 -5 43 -99 97 -210 l97 -203 13 0 c6 0 14 4 17 9 l6
9 -97 201 -96 201 -19 0 c-10 0 -18 -3 -18 -7z"/>
<path d="M34910 53130 c-30 -11 -64 -19 -75 -20 -11 0 -27 -4 -35 -10 l-14 -9
6 -6 6 -6 68 16 c38 8 81 20 96 26 l28 11 -6 9 c-6 11 -7 11 -74 -11z"/>
<path d="M34675 53130 l-6 -10 10 0 c6 0 11 5 11 10 0 6 -2 10 -4 10 -3 0 -8
-4 -11 -10z"/>
<path d="M49966 53064 c-9 -24 -4 -24 18 -3 l19 19 -15 0 -16 0 -6 -16z"/>
<path d="M34556 52948 c-9 -46 -16 -100 -16 -120 l0 -38 10 0 10 0 0 38 c1 20
7 66 15 102 8 36 14 73 15 83 l0 17 -9 0 -8 0 -17 -82z"/>
<path d="M49755 52914 c-189 -104 -240 -134 -224 -134 6 0 429 229 438 236 2
2 2 6 0 8 -2 3 -99 -47 -214 -110z"/>
<path d="M42560 53010 l0 -13 7 6 6 7 -6 7 -7 6 0 -13z"/>
<path d="M49961 52993 c0 -5 9 -26 19 -48 l19 -40 0 13 c1 16 -26 82 -33 82
-4 0 -6 -3 -5 -7z"/>
<path d="M12622 52717 c-56 -81 -102 -149 -102 -152 0 -22 31 15 114 135 l98
140 -4 12 -4 11 -102 -146z"/>
<path d="M48365 52762 l16 -32 39 -26 39 -26 10 -30 c6 -17 11 -42 11 -54 l0
-24 15 0 15 0 0 26 c0 15 -5 43 -11 63 l-11 36 -30 24 -30 25 -19 1 -18 1 -21
25 -21 24 16 -33z"/>
<path d="M48710 52716 l-145 -74 -16 -18 c-9 -11 -19 -28 -23 -39 l-7 -20 33
31 33 31 142 74 c124 64 164 90 136 88 -5 0 -73 -33 -153 -73z"/>
<path d="M48865 52729 l-7 -30 17 -72 18 -72 58 -122 c31 -68 67 -136 78 -152
l21 -29 0 -21 0 -22 21 -29 22 -28 -7 -26 -6 -25 -155 -78 c-85 -43 -155 -82
-155 -86 0 -4 72 29 159 73 l159 80 11 31 11 31 -20 28 -20 28 0 24 0 23 -20
25 c-11 14 -47 81 -80 149 l-60 125 -16 60 -16 61 1 43 c1 49 -5 55 -14 11z"/>
<path d="M42066 52642 l-99 -87 -88 -117 -89 -117 -45 -31 -46 -31 -67 -23
c-37 -13 -93 -26 -125 -30 l-57 -7 6 -10 5 -9 52 6 c29 3 86 17 127 30 l75 25
48 35 48 35 83 112 83 112 100 88 c55 48 105 87 110 87 6 0 29 -14 52 -31 23
-16 76 -45 117 -64 l74 -34 0 9 0 10 -71 35 c-39 20 -89 49 -111 66 l-41 29
-21 0 -21 -1 -99 -87z"/>
<path d="M12184 52709 c-3 -6 -4 -12 -3 -13 29 -24 343 -246 502 -355 l209
-143 9 9 9 9 -153 104 c-83 57 -245 170 -359 251 l-207 148 -7 -10z"/>
<path d="M42206 52639 l19 -21 89 -43 89 -44 11 6 10 6 -87 42 c-47 22 -94 49
-105 58 -10 9 -25 17 -32 17 l-13 0 19 -21z"/>
<path d="M39713 52635 l-33 -14 0 -17 0 -17 20 18 19 18 26 0 26 0 -4 10 c-5
17 -19 17 -54 2z"/>
<path d="M48155 52582 l-30 -29 -440 -222 c-708 -356 -1732 -860 -1840 -906
l-100 -42 -173 -28 -172 -28 0 -14 0 -14 18 5 c9 2 90 16 179 31 l163 26 72
31 c40 16 384 184 763 371 380 187 780 384 890 437 276 133 666 337 688 359
l19 19 -4 16 -3 17 -30 -29z"/>
<path d="M46665 52463 c-37 -71 -71 -132 -75 -137 l-9 -9 -183 93 c-101 51
-189 97 -195 102 l-13 10 0 -9 0 -10 193 -98 c105 -54 193 -99 195 -100 2 -2
-30 -70 -71 -151 -86 -174 -203 -436 -213 -479 l-7 -30 10 10 c5 6 33 66 62
135 30 69 94 211 144 315 50 105 92 191 92 192 1 1 68 -28 151 -64 l149 -66
67 -43 67 -43 17 -26 16 -25 10 6 10 6 -34 35 c-51 54 -118 93 -290 168 l-156
68 69 139 c38 76 67 138 65 138 -2 0 -34 -57 -71 -127z"/>
<path d="M48856 52543 c9 -36 121 -262 142 -285 8 -10 20 -18 25 -18 l10 0
-21 23 -21 23 -61 127 c-33 70 -60 131 -60 136 0 6 -5 13 -10 16 l-11 7 7 -29z"/>
<path d="M48233 52420 l48 -9 25 -16 24 -16 92 -189 91 -190 9 0 8 0 -14 33
c-7 17 -49 104 -92 192 l-79 159 -34 23 -34 23 -46 -1 -46 -1 48 -8z"/>
<path d="M48163 52413 l7 -6 7 6 6 7 -13 0 -13 0 6 -7z"/>
<path d="M49301 52364 c-1 -13 156 -344 163 -344 8 0 -6 32 -87 200 -42 85
-76 150 -76 144z"/>
<path d="M46606 52261 c5 -6 47 -26 93 -46 46 -19 122 -56 169 -82 l86 -47 38
-34 c21 -19 41 -33 44 -30 7 8 -68 72 -120 103 -44 26 -302 145 -314 145 -3 0
-2 -4 4 -9z"/>
<path d="M12930 52242 l0 -10 183 -130 c100 -70 187 -132 194 -135 l12 -7 5 9
6 9 -184 131 c-102 72 -192 134 -200 137 l-16 6 0 -10z"/>
<path d="M49024 52167 l-6 -17 -106 -56 c-59 -31 -125 -62 -147 -69 l-40 -13
27 -1 27 -1 121 61 121 61 10 20 11 20 -6 5 -6 6 -6 -16z"/>
<path d="M30357 52140 l-247 -27 -8 -8 -7 -8 40 6 c22 3 137 16 255 28 201 20
230 24 219 32 -2 2 -115 -9 -252 -23z"/>
<path d="M33970 52151 c-8 -5 -107 -21 -220 -36 l-205 -28 -10 -9 -9 -8 29 5
c17 3 116 17 220 31 l190 26 15 14 c16 16 12 18 -10 5z"/>
<path d="M13686 51712 l-5 -9 173 -118 174 -117 11 7 12 7 -175 119 c-96 65
-177 119 -180 119 -3 0 -7 -4 -10 -8z"/>
<path d="M34166 51401 l-6 -10 9 -5 10 -6 5 9 6 10 -9 5 -10 6 -5 -9z"/>
<path d="M6020 51270 c0 -11 93 -372 106 -409 2 -8 7 -12 9 -9 5 4 -103 419
-111 427 -2 2 -4 -2 -4 -9z"/>
<path d="M45091 51217 c9 -7 21 -25 27 -42 l12 -30 -5 35 -5 34 -13 8 c-6 4
-16 8 -22 8 l-10 -1 16 -12z"/>
<path d="M21150 51162 l0 -10 226 -7 225 -7 6 6 c4 3 4 8 2 10 -2 2 -106 7
-231 11 l-228 7 0 -10z"/>
<path d="M46498 51068 c5 -5 26 -11 48 -15 l39 -6 57 -29 56 -30 77 -70 c42
-39 78 -68 81 -65 3 2 -31 38 -75 78 l-81 74 -52 26 -53 26 -53 10 -53 10 9
-9z"/>
<path d="M46893 50837 c-17 -7 -35 -16 -40 -21 l-8 -9 20 7 c11 4 34 10 52 13
l32 5 35 -6 35 -7 53 -35 c63 -43 103 -85 166 -179 l48 -70 39 -90 c49 -115
156 -299 255 -440 42 -60 85 -125 94 -143 10 -19 20 -32 22 -29 9 9 -25 67
-106 182 -94 135 -207 331 -256 445 l-37 85 -50 75 -51 75 -48 47 -47 46 -62
31 -62 31 -26 -1 c-14 0 -40 -6 -58 -12z"/>
<path d="M6170 50770 c0 -5 2 -10 4 -10 2 0 50 -5 106 -11 l103 -10 119 -28
118 -28 0 11 0 12 -117 27 -118 26 -104 11 c-57 5 -105 10 -107 10 -2 0 -4 -4
-4 -10z"/>
<path d="M49655 50529 l-90 -48 -40 -10 -40 -9 32 -1 33 -1 97 51 c54 28 102
55 108 60 l9 9 -9 -1 c-6 -1 -50 -23 -100 -50z"/>
<path d="M30620 50468 c-63 -5 -120 -10 -126 -12 l-11 -4 -6 -51 -6 -50 7 -38
7 -38 5 85 5 85 150 12 c83 6 164 13 180 16 l30 4 -60 0 c-33 0 -112 -4 -175
-9z"/>
<path d="M48650 50349 l-73 -52 -86 -40 c-47 -21 -96 -43 -109 -48 l-23 -9 5
-9 6 -9 103 45 102 46 78 54 c42 30 77 59 77 64 0 14 -1 13 -80 -42z"/>
<path d="M33610 50387 c0 -20 61 -392 65 -396 3 -2 5 2 5 10 -1 30 -59 381
-64 387 l-6 5 0 -6z"/>
<path d="M31685 50265 c10 -134 25 -350 25 -369 l0 -19 6 6 6 5 -12 209 -13
208 -9 15 -8 15 5 -70z"/>
<path d="M49558 50259 l-18 -10 41 -77 c74 -137 183 -322 190 -322 4 0 11 6
17 13 l10 12 -72 122 c-39 66 -89 155 -111 196 l-40 76 -17 -10z"/>
<path d="M15784 50150 c-22 -30 -82 -113 -134 -185 -51 -71 -109 -147 -129
-168 l-36 -39 -144 -101 -145 -101 12 -4 11 -3 143 99 143 100 31 34 c17 18
90 115 163 216 l132 184 -4 11 -3 11 -40 -54z"/>
<path d="M47936 50073 l-6 -7 6 -70 c3 -39 10 -168 14 -286 l9 -215 -6 275
c-5 268 -6 310 -8 310 -1 0 -5 -3 -9 -7z"/>
<path d="M61525 49979 c-32 -136 -55 -252 -51 -256 6 -6 6 -6 42 156 13 62 23
116 20 118 -3 3 -8 -5 -11 -18z"/>
<path d="M33710 49884 c0 -26 51 -388 55 -392 3 -3 5 1 5 9 0 31 -50 382 -55
387 -3 3 -5 1 -5 -4z"/>
<path d="M24785 49813 l-129 -65 -58 -6 -58 -5 0 -10 0 -10 46 6 47 5 151 75
c83 42 147 76 141 76 -5 0 -68 -30 -140 -66z"/>
<path d="M50101 49761 l-145 -77 -4 -14 -5 -13 19 7 c11 4 83 41 162 82 l142
75 -5 10 c-9 13 -7 14 -164 -70z"/>
<path d="M60370 49815 l0 -12 216 -48 215 -47 7 6 6 7 -12 8 c-7 4 -59 18
-115 30 -56 12 -150 32 -209 45 l-108 23 0 -12z"/>
<path d="M10525 49618 l-7 -53 20 -45 19 -45 41 -37 c42 -38 140 -93 149 -84
3 2 -21 18 -53 34 l-59 30 -36 39 -36 38 -16 40 -15 41 5 47 6 47 -6 0 c-3 0
-8 -24 -12 -52z"/>
<path d="M49780 49589 c0 -4 21 -51 47 -105 l46 -99 145 -245 c80 -135 191
-312 246 -395 55 -82 114 -175 131 -205 169 -295 240 -415 318 -530 90 -135
128 -186 90 -120 -63 107 -272 476 -343 604 -45 82 -130 222 -189 310 -58 89
-182 290 -275 448 -153 258 -215 355 -216 337z"/>
<path d="M38156 49539 c-18 -54 -92 -359 -87 -359 7 0 101 363 95 369 -2 2 -6
-2 -8 -10z"/>
<path d="M35974 49511 c3 -18 6 -40 6 -47 0 -8 4 -14 9 -14 l8 0 -7 40 c-4 23
-11 44 -15 48 l-8 7 7 -34z"/>
<path d="M34420 49403 c1 -33 58 -364 64 -370 14 -14 12 12 -17 195 l-31 192
-8 0 -8 0 0 -17z"/>
<path d="M57665 49231 l6 -20 -212 -107 -213 -108 11 -3 11 -4 206 106 206
107 0 24 0 24 -11 0 -10 0 6 -19z"/>
<path d="M37924 49080 c2 -14 19 -115 37 -225 l32 -200 10 -10 9 -10 -5 20
c-3 11 -20 108 -37 215 -17 107 -35 204 -41 215 l-9 20 4 -25z"/>
<path d="M37963 49080 c3 -14 20 -116 38 -227 19 -112 36 -203 40 -203 l6 0
-37 220 -37 220 -8 8 -8 7 6 -25z"/>
<path d="M64720 48963 c0 -10 -9 -31 -20 -48 -11 -16 -20 -34 -20 -40 l1 -10
24 28 25 28 0 30 c0 16 -2 29 -5 29 -3 0 -5 -8 -5 -17z"/>
<path d="M81286 48918 c12 -40 28 -40 17 0 l-5 22 -10 0 -9 0 7 -22z"/>
<path d="M91573 48876 c6 -15 243 -374 258 -390 l9 -10 6 7 6 6 -133 200 c-74
110 -138 200 -143 201 l-8 0 5 -14z"/>
<path d="M43821 48876 c-1 -11 158 -347 170 -360 l9 -10 -1 10 c-1 14 -177
370 -178 360z"/>
<path d="M76415 48855 c-33 -7 -130 -21 -215 -30 -153 -16 -169 -19 -157 -31
l5 -6 179 21 c98 12 199 26 226 32 l47 11 0 9 0 9 -12 -1 c-7 -1 -40 -7 -73
-14z"/>
<path d="M81153 48797 l-63 -31 0 -13 0 -13 74 37 75 37 -5 8 c-7 12 -12 10
-81 -25z"/>
<path d="M46800 48762 c13 -23 27 -42 32 -42 l7 0 -20 35 c-12 19 -26 38 -31
42 l-11 6 23 -41z"/>
<path d="M65595 48770 l-6 -10 13 -5 c7 -2 65 -17 128 -32 l115 -28 93 3 92 3
0 9 0 10 -96 0 -95 0 -102 25 c-56 14 -109 28 -119 31 l-16 5 -7 -11z"/>
<path d="M65090 48761 c0 -11 7 -13 110 -36 41 -9 133 -29 205 -45 l130 -29 9
9 9 9 -14 5 c-26 10 -418 96 -433 96 l-16 0 0 -9z"/>
<path d="M22256 48479 l-7 -251 5 -6 c3 -3 8 -3 10 -1 3 2 8 118 12 257 l7
252 -10 0 -10 0 -7 -251z"/>
<path d="M46763 48659 l-52 -30 -102 -34 -103 -35 -70 0 -71 0 -37 -11 -38
-10 0 -11 0 -10 28 6 c15 4 68 9 117 12 l90 5 93 31 94 30 56 32 55 31 5 13 4
12 -9 0 c-4 0 -31 -14 -60 -31z"/>
<path d="M33595 48589 c-71 -5 -139 -10 -150 -13 -29 -6 264 5 360 14 l80 7
-80 0 c-44 0 -138 -4 -210 -8z"/>
<path d="M33595 48549 c-71 -5 -139 -10 -150 -13 -29 -6 264 5 360 14 l80 7
-80 0 c-44 0 -138 -4 -210 -8z"/>
<path d="M44043 48490 c36 -85 158 -329 167 -335 11 -7 -156 345 -171 360
l-11 10 15 -35z"/>
<path d="M91234 48463 c-15 -21 -92 -104 -171 -185 -79 -80 -143 -150 -143
-155 0 -4 57 48 126 117 125 124 231 247 222 256 -3 2 -18 -12 -34 -33z"/>
<path d="M50720 48383 c0 -5 8 -21 19 -38 10 -16 63 -103 118 -192 l101 -163
10 13 11 13 -117 187 -117 187 -12 0 c-7 0 -13 -3 -13 -7z"/>
<path d="M44537 48296 c-35 -30 -99 -92 -140 -137 l-76 -82 6 -10 6 -10 91 94
c50 52 116 115 146 140 l54 46 -11 6 -12 7 -64 -54z"/>
<path d="M90807 48068 c-35 -40 -76 -95 -92 -121 -15 -26 -47 -71 -71 -100
-23 -28 -41 -54 -38 -56 7 -7 58 55 118 144 30 44 65 91 79 105 13 15 39 43
57 63 l32 37 -10 0 c-6 0 -39 -33 -75 -72z"/>
<path d="M44150 48080 l-45 -40 -223 -126 -223 -127 10 -10 9 -9 219 123 218
123 48 39 47 40 0 14 c0 21 -12 15 -60 -27z"/>
<path d="M36893 48057 l-173 -9 0 -10 0 -9 18 5 c9 2 89 7 178 11 88 4 185 10
215 15 l54 8 -60 -1 c-33 0 -138 -5 -232 -10z"/>
<path d="M44286 48001 l-6 -9 24 -15 23 -16 15 -33 16 -33 7 -157 7 -158 10 0
10 0 -7 163 -7 162 -15 33 -15 32 -29 20 -28 20 -5 -9z"/>
<path d="M69172 47918 l4 -12 545 -111 c299 -61 735 -153 969 -203 234 -50
533 -111 665 -136 l239 -46 10 10 9 9 -14 5 c-8 3 -120 25 -249 50 -129 24
-404 81 -610 126 -313 67 -1549 320 -1566 320 -3 0 -4 -5 -2 -12z"/>
<path d="M51121 47908 c0 -7 14 -40 30 -73 16 -33 28 -53 25 -45 -2 8 -9 41
-16 73 l-13 57 -14 0 -13 0 1 -12z"/>
<path d="M47600 47860 c8 -5 48 -21 90 -36 l75 -28 83 -69 c45 -38 85 -68 87
-65 2 2 -33 35 -78 73 l-82 70 -85 32 c-47 18 -89 33 -95 33 l-10 0 15 -10z"/>
<path d="M43660 47840 c0 -4 9 -10 20 -13 l20 -5 5 8 5 8 -25 4 -25 5 0 -7z"/>
<path d="M75802 47790 c-112 -16 -206 -31 -209 -34 l-6 -6 7 -7 6 -7 173 23
c94 12 189 25 210 28 l37 6 0 13 c0 8 -3 13 -7 13 -5 -1 -99 -14 -211 -29z"/>
<path d="M53573 47773 l-33 -17 0 -19 0 -19 75 -151 c76 -152 101 -195 109
-186 3 2 -12 34 -32 69 -39 68 -145 291 -140 295 2 1 18 10 36 19 30 16 41 27
25 25 -5 0 -23 -8 -40 -16z"/>
<path d="M72656 47608 c-21 -101 -40 -192 -43 -203 l-5 -20 8 8 c5 5 27 96 50
203 l40 194 -6 0 c-4 0 -24 -82 -44 -182z"/>
<path d="M51190 47740 l0 -13 7 6 6 7 -6 7 -7 6 0 -13z"/>
<path d="M51200 47710 l0 -13 7 6 6 7 -6 7 -7 6 0 -13z"/>
<path d="M51210 47680 l0 -13 7 6 6 7 -6 7 -7 6 0 -13z"/>
<path d="M51221 47647 c-1 -19 39 -120 45 -114 2 1 -8 32 -21 67 l-24 65 0
-18z"/>
<path d="M84082 47494 l-192 -146 6 -9 5 -9 127 97 c70 54 157 121 195 150
l67 52 -8 5 -9 5 -191 -145z"/>
<path d="M51270 47510 l0 -13 7 6 6 7 -6 7 -7 6 0 -13z"/>
<path d="M41570 47492 c0 -12 56 -99 70 -107 21 -13 22 3 2 32 -10 15 -27 40
-36 56 -16 26 -36 36 -36 19z"/>
<path d="M71632 47471 l-11 -31 8 0 c10 0 25 50 18 57 -3 2 -9 -10 -15 -26z"/>
<path d="M41631 47460 l16 -25 39 -20 39 -19 65 -3 65 -2 -51 8 -50 8 -45 21
c-24 12 -55 29 -69 39 l-25 18 16 -25z"/>
<path d="M56688 47364 c-104 -52 -188 -96 -188 -99 0 -2 71 30 158 71 226 109
222 107 222 116 0 10 20 20 -192 -88z"/>
<path d="M41893 47303 l-62 -14 -46 -41 -46 -40 12 -14 12 -14 13 18 c7 10 30
30 51 44 l38 26 40 6 c22 4 48 9 58 12 l17 5 0 15 0 14 -12 -1 c-7 -1 -41 -8
-75 -16z"/>
<path d="M41465 47269 l-7 -21 7 -34 6 -34 15 0 15 0 -8 23 c-4 12 -7 37 -6
55 l2 32 -9 0 c-5 0 -12 -9 -15 -21z"/>
<path d="M41570 47101 c0 -5 4 -21 9 -35 6 -13 15 -72 22 -130 l12 -105 13 -5
14 -5 0 22 c0 42 -21 192 -32 230 l-11 37 -14 0 -13 0 0 -9z"/>
<path d="M28340 46986 l0 -55 10 -6 10 -6 0 60 0 61 -10 0 -10 0 0 -54z"/>
<path d="M39860 46995 l12 -15 -6 -15 -5 -15 9 0 10 0 0 30 0 30 -16 0 -16 0
12 -15z"/>
<path d="M30690 46814 c0 -54 30 -397 35 -402 8 -8 6 28 -11 233 -14 175 -24
242 -24 169z"/>
<path d="M18560 46817 c0 -8 539 -1092 540 -1085 0 6 -162 342 -443 921 -44
92 -85 167 -89 167 -4 0 -8 -2 -8 -3z"/>
<path d="M21670 46770 c-69 -27 -264 -109 -435 -182 -170 -74 -319 -137 -329
-141 l-19 -8 10 -10 10 -10 339 146 c186 81 393 166 459 190 l119 42 4 12 4
11 -19 -1 c-10 0 -74 -22 -143 -49z"/>
<path d="M28326 46583 c-3 -76 -8 -173 -10 -215 l-4 -78 8 0 9 0 5 33 c3 17 8
114 11 215 l5 182 -9 0 -9 0 -6 -137z"/>
<path d="M54976 46554 c-114 -58 -206 -107 -203 -110 5 -6 427 203 427 211 0
10 -21 1 -224 -101z"/>
<path d="M49870 46631 c0 -5 7 -14 16 -22 l16 -13 47 -1 47 -1 24 -17 c27 -19
40 -21 40 -8 0 5 -21 21 -46 35 l-47 26 -13 -11 -13 -11 -32 16 c-37 19 -39
19 -39 7z"/>
<path d="M57460 46623 c0 -5 19 -17 41 -28 l41 -19 20 -26 20 -25 -4 30 -3 29
-40 23 c-40 23 -75 30 -75 16z"/>
<path d="M36490 46580 l0 -30 10 0 10 0 0 30 0 30 -10 0 -10 0 0 -30z"/>
<path d="M33930 46519 c-157 -3 -345 -7 -417 -8 l-133 -1 0 -10 0 -10 308 0
c170 0 370 3 445 7 l137 6 0 14 0 13 -27 -2 c-16 -1 -156 -5 -313 -9z"/>
<path d="M51473 46522 l-12 -8 7 -10 7 -11 37 5 37 4 -6 14 -5 14 -27 0 c-14
0 -31 -4 -38 -8z"/>
<path d="M51636 46454 c9 -27 18 -55 20 -63 l5 -14 10 10 11 11 -11 35 -12 35
-19 17 -20 18 16 -49z"/>
<path d="M35025 46479 c-71 -3 -158 -7 -193 -8 l-64 -1 5 -12 4 -13 49 2 c27
1 124 5 217 8 l167 7 0 14 0 14 -27 -2 c-16 -1 -86 -5 -158 -9z"/>
<path d="M51305 46429 c-27 -11 -54 -25 -59 -30 l-10 -9 17 0 c19 0 127 46
127 54 0 10 -24 5 -75 -15z"/>
<path d="M80978 46433 l13 -5 6 6 6 6 -19 -1 -19 -1 13 -5z"/>
<path d="M34694 46358 c3 -40 11 -124 18 -185 l11 -113 13 0 14 0 -5 28 c-2
15 -9 81 -15 147 -6 66 -13 137 -16 158 l-6 37 -10 0 -11 0 7 -72z"/>
<path d="M80870 46420 l-25 -8 27 -1 27 -1 6 10 6 10 -8 -1 c-4 -1 -19 -5 -33
-9z"/>
<path d="M54586 46314 c-103 -52 -186 -97 -183 -100 5 -6 387 183 387 191 0
10 -20 1 -204 -91z"/>
<path d="M30403 46383 l-103 -4 0 -15 0 -16 108 6 c59 4 151 9 205 12 l97 6 0
9 0 9 -102 -2 c-57 -1 -149 -4 -205 -5z"/>
<path d="M80762 46358 c3 -7 45 -165 94 -352 48 -186 90 -334 92 -328 3 9
-122 526 -158 655 l-11 37 -11 0 -10 0 4 -12z"/>
<path d="M51670 46344 l0 -15 10 6 c6 3 10 10 10 16 0 5 -4 9 -10 9 l-10 0 0
-16z"/>
<path d="M51402 46278 l-12 -12 0 -28 c0 -16 -13 -89 -30 -163 l-30 -135 0
-50 0 -49 15 5 15 6 0 29 c0 16 13 89 29 162 16 72 31 146 32 162 l3 30 -8 13
-8 14 29 -16 30 -15 17 -26 c23 -35 28 -28 14 19 l-12 37 -27 15 c-34 17 -42
17 -57 2z"/>
<path d="M51583 46268 l-23 -11 0 -19 c0 -21 -2 -21 39 -7 l32 11 -3 16 c-4
20 -18 23 -45 10z"/>
<path d="M19843 46238 c25 -63 92 -199 94 -191 4 11 -84 203 -93 203 l-6 0 5
-12z"/>
<path d="M28300 46230 c0 -5 4 -10 9 -10 6 0 13 5 16 10 l6 10 -15 0 -16 0 0
-10z"/>
<path d="M30697 46095 c3 -82 9 -170 14 -195 l7 -45 -5 150 c-3 83 -9 170 -14
195 l-7 45 5 -150z"/>
<path d="M54340 46190 c0 -5 5 -10 10 -10 6 0 10 5 10 10 0 6 -4 10 -10 10 -5
0 -10 -4 -10 -10z"/>
<path d="M28423 46176 l-162 -12 -7 -7 -7 -7 6 -6 6 -6 168 11 c92 6 201 14
241 17 l72 6 0 9 0 9 -77 -1 c-43 -1 -151 -7 -240 -13z"/>
<path d="M47734 46093 c3 -10 24 -83 47 -163 23 -80 45 -149 50 -154 l9 -10 0
13 c0 7 -21 84 -47 172 l-46 159 -9 0 -9 0 5 -17z"/>
<path d="M93060 46071 c0 -4 16 -15 35 -24 l36 -17 32 0 32 0 53 -25 54 -25
54 0 54 0 74 37 75 37 -4 6 -4 7 -77 -39 -76 -38 -42 0 -41 0 -47 25 -47 25
-38 0 -38 0 -42 20 -43 19 0 -8z"/>
<path d="M81372 45893 c-5 -10 -17 -47 -27 -83 -9 -36 -25 -81 -35 -101 l-18
-35 -26 -12 -26 -12 0 -10 0 -10 36 17 36 17 15 36 c17 40 64 210 58 210 -3 0
-8 -8 -13 -17z"/>
<path d="M80951 45644 l1 -19 5 13 5 13 -6 6 -6 6 1 -19z"/>
<path d="M80961 45604 l1 -19 5 13 5 13 -6 6 -6 6 1 -19z"/>
<path d="M80971 45564 l1 -19 5 13 5 13 -6 6 -6 6 1 -19z"/>
<path d="M42576 45378 c-4 -101 -9 -208 -11 -238 l-5 -55 9 29 10 28 6 172 c3
94 8 188 10 209 l5 37 -8 0 -9 0 -7 -182z"/>
<path d="M80981 45524 l1 -19 5 13 5 13 -6 6 -6 6 1 -19z"/>
<path d="M80990 45497 c0 -44 277 -1020 297 -1046 2 -2 6 -1 10 2 l6 7 -71
228 c-39 125 -76 247 -82 272 -17 68 -152 534 -156 539 -2 2 -4 1 -4 -2z"/>
<path d="M50456 45333 c-15 -65 -38 -162 -50 -215 l-24 -98 7 0 c4 0 29 97 57
215 l51 215 -7 0 c-4 0 -19 -53 -34 -117z"/>
<path d="M47738 45327 c-207 -70 -237 -82 -227 -91 2 -2 106 30 232 71 l227
76 0 8 c0 13 2 14 -232 -64z"/>
<path d="M81350 44910 c0 -5 4 -10 9 -10 6 0 13 5 16 10 l6 10 -15 0 -16 0 0
-10z"/>
<path d="M81256 44891 l-20 -8 10 -6 11 -6 21 6 c12 3 22 9 22 14 0 11 -17 11
-44 0z"/>
<path d="M16960 44875 l0 -20 20 -25 c28 -37 32 -20 4 25 l-24 40 0 -20z"/>
<path d="M16872 44813 l22 -36 4 12 4 12 -16 24 c-9 14 -21 25 -26 25 l-9 0
21 -37z"/>
<path d="M31463 44647 l-213 -10 0 -10 0 -10 193 7 c105 4 211 9 234 12 l43 6
-6 9 c-3 5 -13 8 -22 7 -9 -1 -113 -6 -229 -11z"/>
<path d="M94457 44488 c-76 -55 -136 -102 -133 -105 4 -4 251 170 281 198 l9
9 -9 0 c-6 -1 -72 -46 -148 -102z"/>
<path d="M52537 44523 l-5 -8 68 -142 69 -143 17 0 17 0 -19 23 c-11 12 -46
78 -79 147 -66 143 -61 134 -68 123z"/>
<path d="M25778 44503 l-118 -4 0 -7 0 -7 118 3 c64 2 167 7 227 11 l110 8
-110 -1 c-60 0 -163 -2 -227 -3z"/>
<path d="M26560 44381 c1 -9 399 -195 405 -189 3 2 -87 47 -200 100 -113 53
-205 93 -205 89z"/>
<path d="M56060 44385 c0 -3 14 -30 31 -60 l31 -56 27 -13 26 -13 115 -12 c63
-6 138 -14 165 -18 l50 -6 -6 7 c-4 4 -79 15 -168 25 l-161 19 -25 16 -25 16
-25 50 c-23 44 -35 60 -35 45z"/>
<path d="M52578 44283 l51 -101 32 -16 33 -16 8 12 8 13 -16 10 c-9 6 -30 19
-48 30 l-31 20 -35 67 c-56 106 -57 93 -2 -19z"/>
<path d="M53033 44363 l7 -6 7 6 6 7 -13 0 -13 0 6 -7z"/>
<path d="M58349 44333 l-24 -28 28 24 c15 14 27 26 27 28 0 8 -8 1 -31 -24z"/>
<path d="M26542 44344 c13 -13 401 -194 406 -190 3 3 -6 10 -19 15 -13 5 -104
48 -203 95 -169 82 -197 94 -184 80z"/>
<path d="M52520 44180 l-15 -9 11 -11 11 -11 17 7 17 6 -4 11 c-5 15 -20 18
-37 7z"/>
<path d="M57936 44074 c-103 -52 -186 -97 -184 -99 2 -2 91 41 198 95 107 55
191 99 185 99 -5 0 -95 -43 -199 -95z"/>
<path d="M52461 44083 c-1 -47 4 -56 11 -20 l5 23 -8 20 -8 19 0 -42z"/>
<path d="M28440 44078 c8 -8 80 -54 160 -103 80 -48 168 -104 195 -123 l50
-35 -24 26 -23 26 -176 108 c-97 59 -181 110 -186 112 l-11 3 15 -14z"/>
<path d="M73778 43395 c-329 -46 -604 -86 -610 -88 l-13 -5 15 -1 c8 -1 294
37 634 84 340 47 621 85 622 85 2 0 4 -12 5 -27 0 -16 5 -37 10 -48 l9 -20 -5
40 c-2 22 -5 46 -5 53 l0 12 -32 -1 c-18 -1 -302 -39 -630 -84z"/>
<path d="M51300 43347 l-425 -61 18 -4 c9 -2 201 22 425 54 l407 57 10 8 9 9
-9 -1 c-6 0 -201 -28 -435 -62z"/>
<path d="M77542 43365 c-208 -31 -242 -38 -231 -49 2 -3 105 10 228 27 l224
32 5 13 c2 6 2 12 0 11 -1 -1 -103 -16 -226 -34z"/>
<path d="M52432 43247 c-7 -8 -86 -49 -177 -92 -91 -43 -165 -82 -165 -86 0
-9 336 153 353 170 l11 11 -6 5 -5 5 -11 -13z"/>
<path d="M34215 43121 l-70 -47 -45 -17 c-25 -9 -79 -24 -120 -33 l-75 -17 12
-4 13 -5 94 22 93 21 75 45 c41 24 83 53 93 64 l18 20 -9 -1 c-5 0 -40 -21
-79 -48z"/>
<path d="M75658 43107 l-208 -32 0 -7 0 -8 20 0 c11 0 110 14 220 30 110 17
204 30 210 30 5 0 10 5 10 10 l0 10 -22 -1 c-13 -1 -116 -15 -230 -32z"/>
<path d="M29450 43125 c0 -3 20 -14 44 -24 54 -24 124 -73 240 -168 l89 -74
87 -127 87 -127 24 -62 c13 -35 27 -63 31 -63 l8 0 -21 53 c-12 28 -25 61 -29
72 -5 11 -46 74 -92 141 l-83 121 -70 60 c-107 91 -194 153 -254 179 -57 26
-61 27 -61 19z"/>
<path d="M32155 43022 c-22 -20 -71 -74 -108 -120 l-68 -83 3 -16 3 -16 81 99
c45 54 96 112 113 128 30 29 39 46 24 46 -5 0 -26 -17 -48 -38z"/>
<path d="M40267 43028 c-40 -55 -223 -312 -232 -327 l-8 -14 10 6 c16 10 266
358 260 363 -3 3 -16 -10 -30 -28z"/>
<path d="M52110 43055 c0 -13 196 -395 202 -395 5 0 -37 90 -92 200 -88 176
-110 215 -110 195z"/>
<path d="M49308 42983 l13 -5 6 6 6 6 -19 -1 -19 -1 13 -5z"/>
<path d="M69930 42865 c-217 -30 -395 -54 -395 -54 -1 -10 48 -510 51 -520 13
-42 10 20 -12 248 l-25 254 10 6 c5 4 184 29 396 56 l385 49 0 8 c0 4 -3 7 -7
7 -5 -1 -186 -25 -403 -54z"/>
<path d="M35591 42860 c-13 -11 -30 -20 -38 -20 l-14 0 5 -9 6 -9 23 5 c24 6
57 31 57 45 0 13 -13 9 -39 -12z"/>
<path d="M31880 42689 l0 -12 -157 -153 -157 -153 6 -7 7 -6 128 121 c159 151
217 221 183 221 -5 0 -10 -5 -10 -11z"/>
<path d="M31771 42498 l-164 -168 7 -7 7 -7 120 119 c134 133 202 211 197 223
l-3 8 -164 -168z"/>
<path d="M40048 42652 c-7 -10 -38 -35 -68 -55 l-55 -35 -80 -22 -80 -22 -42
-30 c-24 -16 -43 -33 -43 -38 l0 -10 48 33 47 34 80 22 80 23 57 36 57 37 10
22 c13 28 7 30 -11 5z"/>
<path d="M51208 42536 l-166 -21 -8 -8 -8 -8 39 6 c22 3 111 14 199 25 87 11
161 22 164 25 8 8 -40 4 -220 -19z"/>
<path d="M71365 42459 c-220 -32 -528 -74 -685 -94 -267 -34 -794 -111 -1310
-191 -124 -20 -322 -49 -440 -65 -118 -17 -217 -32 -219 -35 -2 -2 -2 -6 1 -9
6 -6 447 52 688 90 452 72 945 146 1095 165 94 11 429 57 745 102 l575 81 10
9 9 8 -34 -1 c-19 -1 -215 -28 -435 -60z"/>
<path d="M70260 42365 c-85 -13 -175 -27 -199 -30 l-43 -7 8 -8 9 -9 218 32
217 32 0 7 0 8 -27 -1 c-16 -1 -98 -12 -183 -24z"/>
<path d="M52511 42250 c0 -42 179 -390 200 -390 4 0 -21 50 -57 111 -35 60
-82 151 -104 202 -21 51 -39 85 -39 77z"/>
<path d="M69340 42224 c-164 -27 -879 -125 -1090 -150 -25 -3 -137 -18 -250
-34 -113 -16 -386 -54 -608 -85 l-403 -55 -62 0 c-34 1 -82 6 -107 11 -25 6
-62 13 -82 16 l-37 5 -25 -26 -26 -25 0 -35 0 -35 10 -6 10 -6 0 34 0 33 20
22 21 22 25 0 25 0 24 -25 25 -24 0 -20 0 -20 -10 -6 -10 -6 6 -10 6 -10 14
12 15 12 -6 37 -6 37 78 -5 78 -4 420 56 c231 32 580 79 775 106 195 28 490
68 655 90 273 36 649 91 718 106 l27 6 0 9 0 9 -12 -1 c-7 -1 -105 -17 -218
-35z"/>
<path d="M47156 42124 l-38 -26 -346 -145 c-191 -80 -358 -150 -372 -155 l-25
-10 12 -5 12 -4 362 152 363 151 38 25 c21 14 38 30 38 34 0 12 -1 12 -44 -17z"/>
<path d="M31042 41812 l-169 -237 -54 -50 c-30 -28 -89 -77 -131 -109 -69 -52
-92 -76 -72 -76 11 0 210 159 245 197 20 21 111 142 202 270 l166 232 -8 6 -9
5 -170 -238z"/>
<path d="M30115 41964 l4 -81 13 -29 c18 -42 209 -270 333 -399 59 -60 103
-103 99 -95 -4 8 -56 67 -115 130 -134 144 -274 313 -300 362 l-19 37 -1 53
c-1 29 -5 64 -10 78 l-9 25 5 -81z"/>
<path d="M96610 41930 c0 -6 63 -94 139 -196 l139 -185 6 9 6 9 -140 187 c-77
102 -142 186 -145 186 -3 0 -5 -5 -5 -10z"/>
<path d="M46177 41673 c-114 -42 -205 -78 -202 -81 5 -6 406 137 420 149 l9 9
-9 -1 c-6 0 -103 -35 -218 -76z"/>
<path d="M93332 41531 c-105 -76 -188 -141 -185 -144 4 -5 350 237 383 269
l14 14 -10 0 c-6 0 -97 -63 -202 -139z"/>
<path d="M54011 41624 c-12 -9 -36 -34 -52 -57 l-29 -40 0 -36 0 -36 10 -15
10 -15 0 51 0 52 48 51 49 52 -7 4 c-4 2 -17 -3 -29 -11z"/>
<path d="M30957 41601 c-10 -17 -40 -54 -66 -83 l-49 -53 -101 -75 c-93 -70
-114 -90 -93 -90 13 0 191 136 240 183 39 38 102 124 102 140 0 16 -17 5 -33
-22z"/>
<path d="M57610 41408 c-25 -22 -55 -44 -68 -49 l-23 -9 -137 -2 -137 -1 120
-9 121 -10 39 11 40 11 50 45 c27 24 48 46 45 48 -3 3 -25 -13 -50 -35z"/>
<path d="M57640 41379 c-25 -22 -59 -47 -77 -55 l-32 -14 -143 -1 -143 -2 95
-9 95 -9 60 6 59 5 36 25 c49 34 105 84 99 89 -2 2 -24 -14 -49 -35z"/>
<path d="M56040 41351 l0 -11 162 0 c89 0 159 2 157 4 -2 2 -75 7 -161 10
l-158 7 0 -10z"/>
<path d="M28480 41200 l0 -10 28 -11 c15 -6 70 -17 122 -25 l95 -14 123 0 122
0 0 10 0 10 -107 0 -108 0 -105 14 c-58 8 -118 19 -133 25 -35 13 -37 14 -37
1z"/>
<path d="M63230 41047 l0 -13 143 -59 c78 -32 175 -71 215 -86 l72 -27 0 13 0
12 -82 30 c-46 17 -143 56 -215 86 l-133 56 0 -12z"/>
<path d="M40370 41001 l0 -9 43 -21 c23 -11 81 -34 130 -51 l87 -30 92 1 93 2
-100 8 -100 7 -100 37 c-55 20 -110 43 -122 51 l-23 14 0 -9z"/>
<path d="M29420 40968 l0 -14 69 -51 c38 -28 95 -65 127 -81 l59 -29 48 -7 48
-7 29 6 c17 4 30 10 30 13 l0 7 -75 2 -76 2 -57 32 c-47 27 -99 63 -189 132
l-13 9 0 -14z"/>
<path d="M97110 40649 l-265 -89 -128 -57 c-70 -32 -124 -59 -119 -61 5 -1 63
22 128 51 l119 54 278 92 c152 51 277 95 277 97 0 9 -38 -2 -290 -87z"/>
<path d="M66107 40473 l-64 -128 -8 -35 c-4 -19 -11 -45 -16 -57 l-8 -21 -42
14 -42 15 -16 -7 -16 -6 44 -13 43 -14 24 -22 24 -22 0 -23 c0 -12 -7 -38 -15
-58 l-15 -36 -20 -12 c-11 -7 -20 -16 -20 -20 0 -16 27 -7 47 15 l21 22 13 43
13 43 -13 34 -12 34 17 58 17 58 63 127 64 127 -10 6 -9 6 -64 -128z"/>
<path d="M58120 40230 l0 -220 10 0 10 0 0 220 0 220 -10 0 -10 0 0 -220z"/>
<path d="M51356 40399 c-3 -8 -23 -79 -45 -159 -22 -80 -45 -159 -51 -175
l-11 -30 10 10 c12 12 112 357 106 364 -3 2 -7 -2 -9 -10z"/>
<path d="M61310 40236 c0 -9 246 -161 393 -243 4 -2 7 -2 7 1 0 3 -75 50 -167
105 -93 55 -183 110 -200 122 -18 11 -33 18 -33 15z"/>
<path d="M83675 40110 l-7 -11 239 -374 238 -375 12 0 c7 0 13 2 13 5 0 6
-468 745 -480 758 l-8 9 -7 -12z"/>
<path d="M65845 40050 l-6 -9 30 -16 30 -15 26 0 25 0 0 10 0 10 -20 0 c-12 0
-34 7 -50 15 l-29 15 -6 -10z"/>
<path d="M94312 39689 c-15 -49 -10 -63 8 -20 l12 29 -4 17 -3 16 -13 -42z"/>
<path d="M45410 39655 c0 -11 5 -27 10 -35 l10 -15 0 20 c0 11 -5 27 -10 35
l-10 15 0 -20z"/>
<path d="M62560 39635 c0 -3 35 -22 78 -44 l77 -39 31 -34 32 -33 10 -35 10
-35 6 -280 6 -280 -14 -90 -14 -90 -30 -75 c-16 -42 -40 -92 -52 -113 -12 -20
-19 -37 -16 -37 11 0 57 81 85 152 l28 73 13 90 13 90 -7 292 -7 293 -14 32
-13 33 -34 31 -33 31 -77 36 c-43 20 -78 34 -78 32z"/>
<path d="M2930 39453 c0 -5 9 -23 21 -42 l20 -33 6 5 5 6 -22 35 c-21 35 -30
43 -30 29z"/>
<path d="M51575 39114 c15 -6 424 -94 437 -94 6 0 9 2 7 4 -6 6 -422 96 -440
95 l-14 -1 10 -4z"/>
<path d="M55305 39110 l-7 -12 28 -30 c39 -41 142 -112 453 -315 l265 -173 10
10 c5 5 8 11 5 14 -2 2 -119 79 -259 171 -284 187 -410 274 -456 317 l-32 30
-7 -12z"/>
<path d="M52012 38984 c5 -5 411 -84 432 -84 36 0 -30 15 -214 50 -230 43
-226 43 -218 34z"/>
<path d="M94891 38920 c92 -133 296 -409 302 -410 5 0 -13 31 -40 68 -183 258
-259 361 -267 362 l-8 0 13 -20z"/>
<path d="M53345 38773 l10 -10 200 -36 c110 -21 206 -37 214 -37 38 0 -10 12
-184 44 -105 20 -203 39 -220 42 l-30 6 10 -9z"/>
<path d="M88055 38484 c-462 -285 -526 -326 -522 -330 4 -4 729 438 752 458
l9 8 -9 0 c-6 0 -109 -62 -230 -136z"/>
<path d="M88107 38468 c-98 -61 -176 -112 -174 -115 4 -4 342 200 362 218 l9
9 -9 0 c-6 -1 -90 -51 -188 -112z"/>
<path d="M84832 38538 c8 -13 68 -105 133 -206 64 -101 120 -181 122 -178 7 7
-250 406 -261 406 l-8 0 14 -22z"/>
<path d="M46230 38383 c0 -5 11 -20 25 -33 l25 -23 7 6 c3 4 4 8 2 10 -2 1
-16 13 -31 26 l-28 24 0 -10z"/>
<path d="M85850 38246 c0 -8 457 -738 503 -803 17 -24 35 -43 40 -43 l9 0 -29
38 c-16 20 -136 208 -267 417 -131 209 -242 384 -247 390 l-9 9 0 -8z"/>
<path d="M60030 38072 l0 -11 -102 -92 c-57 -50 -127 -107 -155 -127 -29 -19
-53 -39 -53 -44 l0 -9 58 41 c80 57 209 169 239 208 l25 33 -6 6 -6 6 0 -11z"/>
<path d="M85136 37832 l-7 -12 137 -228 c109 -180 324 -522 340 -541 1 -1 7 0
13 3 l10 7 -76 117 c-42 64 -148 234 -234 377 -87 143 -162 266 -167 274 l-8
15 -8 -12z"/>
<path d="M85125 37693 c-3 -49 -8 -99 -10 -113 l-5 -25 120 -180 c65 -99 188
-294 272 -432 84 -139 156 -253 160 -253 11 0 -289 494 -421 695 l-112 170 6
113 c4 61 5 112 2 112 -3 0 -8 -39 -12 -87z"/>
<path d="M86645 37561 c-72 -50 -285 -194 -475 -322 -386 -260 -355 -238 -349
-243 7 -7 653 422 728 483 35 28 104 77 153 108 48 30 88 57 88 59 0 12 -29
-5 -145 -85z"/>
<path d="M60250 37241 c-25 -10 -72 -24 -105 -31 -80 -16 -258 -70 -252 -77 3
-3 46 7 96 21 49 14 121 33 158 40 67 14 163 50 163 61 0 8 -12 5 -60 -14z"/>
<path d="M71451 36918 l0 -13 491 -370 c270 -203 523 -398 564 -432 l73 -63 5
8 4 7 -57 52 c-44 39 -1031 793 -1072 819 l-9 5 1 -13z"/>
<path d="M58711 36844 l-12 -27 6 -6 6 -5 9 14 c9 14 14 50 7 50 -2 0 -9 -12
-16 -26z"/>
<path d="M51290 36738 c120 -115 260 -241 265 -236 3 2 -61 65 -142 139 -157
144 -230 202 -123 97z"/>
<path d="M63146 36242 c38 -35 325 -222 339 -222 17 0 -1 19 -30 33 -19 9 -93
57 -165 107 -71 49 -135 90 -142 90 l-12 0 10 -8z"/>
<path d="M34615 36031 l-50 -7 -26 -14 c-15 -8 -52 -39 -84 -68 l-58 -53 6 -6
6 -6 65 61 65 60 37 12 37 12 67 -4 68 -5 31 -22 31 -22 0 8 c-1 21 -101 66
-135 62 -5 -1 -32 -5 -60 -8z"/>
<path d="M53585 35933 c-27 -31 -44 -54 -39 -52 14 6 98 99 93 104 -3 2 -27
-21 -54 -52z"/>
<path d="M39877 35650 c3 -85 9 -180 13 -210 l8 -55 -5 190 -6 190 -8 20 -7
20 5 -155z"/>
<path d="M80025 35583 l-360 -186 -125 -43 c-69 -23 -119 -43 -112 -43 7 -1
61 15 120 34 l107 35 369 189 c202 105 371 192 374 195 l5 6 -9 0 c-5 0 -171
-84 -369 -187z"/>
<path d="M35161 35683 c5 -16 332 -294 338 -288 2 3 2 6 0 8 -2 2 -51 43 -109
93 -58 49 -134 114 -169 144 -35 30 -62 49 -60 43z"/>
<path d="M41764 35675 l18 -14 -6 -25 -6 -26 9 0 9 0 5 28 5 27 -10 13 c-6 6
-18 12 -27 12 l-16 -1 19 -14z"/>
<path d="M39893 35323 l7 -6 7 6 6 7 -13 0 -13 0 6 -7z"/>
<path d="M33794 35161 c-69 -81 -194 -294 -194 -331 l1 -15 40 80 c52 101 117
201 164 253 l36 40 -8 5 -8 4 -31 -36z"/>
<path d="M56001 34963 c16 -109 28 -202 29 -207 l0 -9 6 6 6 6 -27 200 -28
201 -7 0 -6 0 27 -197z"/>
<path d="M79553 34675 l3 -120 12 -22 13 -23 13 0 c8 0 66 28 130 62 l115 62
-5 7 -4 7 -111 -60 -110 -60 -13 5 -13 5 -7 32 c-3 18 -6 67 -7 109 l0 76 -10
20 -9 20 3 -120z"/>
<path d="M78075 34674 l-170 -94 -18 -21 c-24 -30 -14 -35 14 -7 l24 24 163
87 162 88 0 10 c0 12 20 21 -175 -87z"/>
<path d="M54603 34500 c3 -25 13 -118 23 -207 l17 -163 7 0 6 0 -22 201 -22
200 -7 7 -8 7 6 -45z"/>
<path d="M56965 34480 c-27 -5 -125 -18 -217 -31 l-168 -22 0 -6 0 -7 224 30
c124 17 228 34 232 39 l7 7 -14 -1 c-8 -1 -36 -5 -64 -9z"/>
<path d="M59085 34243 c-99 -62 -187 -118 -195 -123 -8 -4 -13 -10 -10 -13 3
-2 86 47 185 110 99 62 187 118 195 123 8 5 13 10 10 13 -3 2 -86 -47 -185
-110z"/>
<path d="M76136 34238 l28 -23 196 -1 195 -1 -185 6 -185 7 -32 17 c-44 23
-51 21 -17 -5z"/>
<path d="M54907 34145 l-228 -33 -7 -7 -7 -8 35 6 c19 2 127 17 240 32 l205
28 10 9 9 8 -14 -1 c-8 -1 -118 -16 -243 -34z"/>
<path d="M57840 33699 c0 -3 18 -46 39 -96 l39 -89 22 -110 c24 -124 30 -147
36 -141 2 2 -7 60 -21 128 l-25 124 -36 85 c-32 74 -54 115 -54 99z"/>
<path d="M34113 33347 c-89 -67 -160 -123 -158 -125 6 -7 268 183 325 235 l14
13 -9 -1 c-6 0 -83 -55 -172 -122z"/>
<path d="M1621 33055 c3 -2 77 -9 164 -15 88 -5 177 -12 198 -14 l37 -4 0 7 0
8 -177 11 c-195 13 -229 14 -222 7z"/>
<path d="M79411 32686 c7 -7 362 -146 373 -146 l9 0 -6 7 c-11 11 -185 83
-276 114 -80 27 -110 35 -100 25z"/>
<path d="M32338 32516 l77 -135 35 -16 c19 -10 52 -23 73 -31 l37 -13 0 9 c0
6 -5 10 -11 10 -6 0 -37 12 -69 26 l-58 26 -72 129 c-40 71 -76 129 -80 129
-4 0 26 -60 68 -134z"/>
<path d="M34300 32515 c1 -5 9 -26 20 -45 l19 -35 1 12 c0 7 -9 27 -20 45 -11
18 -20 29 -20 23z"/>
<path d="M72991 32338 c0 -7 4 -22 9 -33 l9 -20 0 27 1 27 -10 6 -10 6 1 -13z"/>
<path d="M73595 32294 c-138 -15 -487 -62 -527 -70 l-28 -6 0 -14 0 -14 23 5
c69 15 226 36 407 54 113 12 220 23 238 26 l32 6 0 14 0 15 -12 -1 c-7 -1 -67
-8 -133 -15z"/>
<path d="M99509 30582 l-66 -57 -25 -40 c-27 -44 -73 -173 -65 -181 3 -3 15
25 27 62 l23 68 27 42 26 42 67 57 c37 32 67 59 67 61 0 12 -22 -3 -81 -54z"/>
<path d="M99564 30581 c-82 -60 -117 -109 -158 -223 l-25 -68 8 0 c4 0 15 26
25 58 l18 57 30 48 30 48 62 54 c67 60 71 71 10 26z"/>
<path d="M4183 28798 c3 -18 11 -124 18 -235 l12 -203 9 0 8 0 0 40 c0 51 -19
332 -26 388 l-5 42 -11 0 -10 0 5 -32z"/>
<path d="M84560 28772 c0 -5 75 -83 167 -172 l167 -163 3 10 4 10 -161 159
c-89 87 -165 161 -171 162 l-9 4 0 -10z"/>
<path d="M73530 28705 c0 -13 253 -385 258 -380 4 4 -226 353 -249 380 l-9 9
0 -9z"/>
<path d="M73762 28280 c14 -22 24 -19 15 5 -4 8 -11 15 -17 15 l-10 0 12 -20z"/>
<path d="M96365 27939 c-104 -77 -197 -148 -205 -157 l-15 -16 28 18 c97 60
407 298 385 296 -1 -1 -88 -64 -193 -141z"/>
<path d="M26645 27694 c-99 -75 -184 -139 -188 -144 l-8 -7 14 -6 14 -5 187
139 187 139 -6 10 c-3 6 -9 10 -13 10 -4 0 -88 -61 -187 -136z"/>
<path d="M21926 27259 c-8 -33 -56 -355 -56 -370 0 -7 2 -10 5 -8 7 8 66 391
61 397 -3 2 -7 -6 -10 -19z"/>
<path d="M95310 26779 c-96 -71 -177 -134 -179 -140 -3 -9 325 226 359 257
l14 14 -9 -1 c-6 0 -89 -58 -185 -130z"/>
<path d="M24370 26364 l0 -12 68 -6 c37 -4 80 -12 95 -18 l28 -11 14 -28 15
-28 0 -28 0 -29 -58 -174 c-33 -96 -69 -194 -81 -218 l-22 -43 4 -12 4 -12 28
55 c15 30 54 134 87 230 l58 174 0 27 c0 15 -7 42 -15 62 l-14 35 -43 15 c-24
8 -71 19 -105 24 l-63 9 0 -12z"/>
<path d="M77650 26178 l0 -14 201 -94 c111 -52 206 -96 210 -98 l9 -4 0 15 0
14 -196 92 c-108 51 -203 95 -210 98 l-14 5 0 -14z"/>
<path d="M24661 25838 l-54 -163 -35 -53 -35 -53 10 -10 11 -11 39 59 40 58
51 155 c29 85 52 161 52 168 l0 12 -13 0 -12 0 -54 -162z"/>
<path d="M78484 25899 c-3 -6 -4 -12 -3 -14 9 -8 403 -195 411 -195 l10 0 -4
11 -4 11 -202 98 -202 98 -6 -9z"/>
<path d="M88616 25072 l-5 -9 46 -69 c26 -38 96 -163 156 -279 60 -115 126
-239 147 -275 45 -77 101 -209 195 -452 l67 -177 13 6 14 5 -14 36 c-7 20 -52
138 -100 262 l-86 225 -73 135 c-40 74 -105 196 -143 270 -79 153 -182 321
-200 327 l-11 4 -6 -9z"/>
<path d="M90495 24839 c50 -5 153 -18 230 -30 l140 -20 119 -35 118 -35 120
-50 c66 -27 125 -48 130 -47 l10 4 -136 58 -136 57 -99 29 -100 28 -133 21
-133 20 -110 5 -110 5 90 -10z"/>
<path d="M16288 21302 l-198 -26 0 -8 0 -8 18 0 c9 0 105 11 212 25 107 14
201 25 208 25 l12 0 0 10 0 10 -27 -1 c-16 -1 -117 -13 -225 -27z"/>
<path d="M89562 20839 c-73 -67 -132 -125 -132 -131 0 -5 57 43 128 108 70 64
131 121 136 125 5 5 8 11 5 13 -3 3 -64 -49 -137 -115z"/>
<path d="M90100 20751 c0 -6 7 -22 15 -34 8 -12 28 -56 45 -97 l32 -75 17 -84
17 -85 10 -3 11 -4 -17 88 -17 88 -37 92 -37 91 -20 18 -19 17 0 -12z"/>
<path d="M95125 18549 c-88 -66 -169 -127 -179 -135 -11 -7 -18 -15 -15 -18 5
-5 353 251 357 264 2 6 2 10 0 9 -1 0 -75 -54 -163 -120z"/>
<path d="M15634 17723 c2 -10 13 -98 23 -195 l17 -178 10 10 9 9 -17 168 c-10
92 -20 176 -22 186 l-5 17 -10 0 -10 0 5 -17z"/>
<path d="M90936 17271 l-7 -11 35 -59 36 -58 104 -109 105 -109 1 13 0 13 -78
82 c-97 102 -144 161 -169 211 l-20 39 -7 -12z"/>
<path d="M92371 16559 c-89 -67 -160 -124 -157 -126 2 -2 78 50 168 118 188
140 174 129 161 129 -5 0 -82 -55 -172 -121z"/>
<path d="M96701 13099 c-156 -182 -280 -333 -278 -335 3 -3 132 144 287 326
155 183 280 334 277 336 -2 2 -131 -145 -286 -327z"/>
<path d="M2290 13185 c0 -2 77 -74 171 -160 l170 -155 9 5 9 6 -170 154 c-149
137 -189 168 -189 150z"/>
<path d="M96520 12951 c-68 -82 -126 -154 -128 -162 l-4 -14 9 10 c12 12 233
273 252 298 l13 17 -8 -1 c-5 0 -65 -67 -134 -148z"/>
<path d="M96030 13052 c0 -5 77 -73 171 -151 l170 -142 11 3 12 4 -176 147
c-97 81 -178 147 -182 147 -3 0 -6 -4 -6 -8z"/>
<path d="M96352 12712 c4 -11 345 -332 352 -332 19 0 -12 33 -165 178 -152
143 -199 182 -187 154z"/>
<path d="M13460 6350 c0 -5 1 -10 3 -10 2 0 104 -11 227 -25 123 -13 226 -22
229 -20 11 12 -16 17 -185 35 -99 10 -200 22 -226 25 l-48 6 0 -11z"/>
<path d="M24715 4032 c-55 -69 -115 -145 -133 -168 l-34 -43 7 -11 6 -10 107
132 c58 73 121 152 139 174 l33 42 -12 4 -13 5 -100 -125z"/>
<path d="M24716 3957 l-137 -170 13 -8 13 -8 6 7 c7 8 248 312 261 328 l9 12
-15 5 -14 5 -136 -171z"/>
<path d="M21860 3182 c0 -5 10 -13 23 -19 38 -18 484 -364 984 -766 l482 -387
5 9 6 9 -543 434 c-502 402 -843 669 -909 711 -30 18 -48 22 -48 9z"/>
<path d="M22984 2232 c7 -11 313 -252 320 -252 21 0 -12 31 -149 138 -85 67
-160 122 -166 122 l-10 0 5 -8z"/>
<path d="M22363 1437 l-203 -91 9 -9 9 -9 193 87 c107 48 198 91 202 95 l9 8
-9 5 -8 5 -202 -91z"/>
<path d="M30186 1306 c-165 -126 -188 -145 -168 -146 10 -1 361 263 361 273 2
18 -27 -1 -193 -127z"/>
<path d="M16310 1286 l0 -16 33 0 c17 -1 118 -7 222 -14 l190 -14 9 9 c5 5 8
10 5 13 -2 2 -87 9 -189 15 -102 6 -204 14 -227 17 l-43 5 0 -15z"/>
<path d="M18580 1075 l0 -15 18 0 c9 0 111 -7 225 -16 l208 -16 6 6 6 6 -6 7
c-4 3 -82 12 -174 19 -93 7 -194 15 -225 18 l-58 6 0 -15z"/>
</g>
</svg>
