<?xml version="1.0" standalone="no"?>
<!DOCTYPE svg PUBLIC "-//W3C//DTD SVG 20010904//EN"
 "http://www.w3.org/TR/2001/REC-SVG-20010904/DTD/svg10.dtd">
<svg version="1.0" xmlns="http://www.w3.org/2000/svg"
 width="7500.000000pt" height="7500.000000pt" viewBox="0 0 7500.000000 7500.000000"
 preserveAspectRatio="xMidYMid meet">
<metadata>
Created by potrace 1.16, written by Peter Selinger 2001-2019
</metadata>
<g transform="translate(0.000000,7500.000000) scale(0.075000,-0.075000)"
fill="#000000" stroke="none">
<path d="M23744 99991 c6 -10 91 -61 100 -61 3 0 6 3 6 8 0 9 -84 62 -99 62
l-12 0 5 -9z"/>
<path d="M89465 99830 l-5 -8 207 -82 c115 -46 212 -85 217 -88 l9 -5 -5 13
-4 12 -207 83 -207 83 -5 -8z"/>
<path d="M27160 98181 c0 -4 84 -64 187 -132 l187 -124 179 -147 c167 -138
198 -160 196 -140 0 4 -78 70 -172 148 l-172 141 -197 131 c-109 73 -200 132
-203 132 -3 0 -5 -4 -5 -9z"/>
<path d="M85705 97951 c33 -3 66 -10 73 -14 22 -15 42 -65 63 -164 23 -112 28
-128 34 -122 2 3 -7 54 -20 116 l-23 111 -16 30 -16 31 -19 11 -20 10 -58 -2
-58 -1 60 -6z"/>
<path d="M86775 97705 c-5 -2 -104 -18 -220 -36 l-210 -32 13 -5 c16 -5 410
56 437 68 l20 9 -15 0 c-8 -1 -19 -2 -25 -4z"/>
<path d="M13150 96780 l0 -9 113 -35 c61 -19 162 -46 223 -60 l110 -26 55 0
c30 0 95 -7 144 -15 50 -8 116 -15 148 -15 l57 0 0 10 0 10 -37 0 c-21 0 -78
7 -128 15 -49 8 -116 15 -149 15 l-58 0 -132 31 c-72 17 -172 44 -222 60 -50
16 -98 29 -108 29 l-16 0 0 -10z"/>
<path d="M87657 96390 l-259 -9 -6 -6 -7 -7 220 6 c121 4 279 7 350 8 l130 1
80 -26 c43 -14 81 -24 83 -22 5 5 -10 11 -93 40 l-50 17 -95 3 c-52 2 -211 -1
-353 -5z"/>
<path d="M83080 92105 l-185 -104 -3 -17 -4 -17 84 46 c45 25 134 74 197 109
l115 63 4 13 4 12 -14 -1 c-7 -1 -96 -47 -198 -104z"/>
<path d="M85850 92093 c-91 -64 -172 -126 -182 -137 l-16 -21 5 -8 5 -9 32 30
c17 16 94 73 171 127 166 117 158 110 154 124 l-4 11 -165 -117z"/>
<path d="M25527 91757 l-5 -14 206 -58 c114 -32 215 -60 225 -63 l17 -4 0 14
0 14 -205 57 c-113 32 -211 60 -219 63 l-13 5 -6 -14z"/>
<path d="M28066 91112 c5 -5 94 -35 197 -66 l188 -58 6 6 6 6 -14 4 c-55 19
-375 116 -383 116 l-10 0 10 -8z"/>
<path d="M31712 90600 c-117 -32 -216 -61 -219 -64 l-6 -6 6 -6 7 -7 217 58
c120 32 220 60 222 62 3 2 0 7 -5 12 l-9 9 -213 -58z"/>
<path d="M29566 90442 c5 -5 56 -28 114 -50 l105 -41 103 -24 102 -24 0 7 c0
4 -44 17 -98 29 l-99 22 -114 44 c-120 47 -129 50 -113 37z"/>
<path d="M30222 90378 l4 -12 217 -72 217 -72 0 13 0 13 -213 71 c-116 39
-216 71 -220 71 l-9 0 4 -12z"/>
<path d="M33150 89787 l0 -14 128 -28 c70 -15 164 -40 209 -55 l82 -28 4 11 4
12 -61 23 c-34 13 -119 36 -191 53 -71 16 -140 31 -152 34 l-23 5 0 -13z"/>
<path d="M85130 88936 c-235 -43 -680 -139 -680 -147 0 -3 130 22 288 56 158
34 352 73 430 86 l142 23 0 8 c0 5 -1 8 -2 7 -2 0 -82 -15 -178 -33z"/>
<path d="M79422 88287 l5 -12 199 -71 c109 -39 201 -69 203 -67 12 9 -26 26
-169 77 -85 30 -174 61 -198 70 l-44 16 4 -13z"/>
<path d="M75342 88056 l-132 -73 -15 -19 -14 -19 -1 -28 0 -28 10 6 c6 3 10
14 10 24 l0 17 28 26 c15 14 75 51 134 82 99 53 126 71 116 81 -2 2 -63 -29
-136 -69z"/>
<path d="M84305 86890 l-49 -110 -19 0 c-10 0 -55 9 -99 21 -44 11 -82 18 -84
16 -3 -2 40 -16 93 -30 l98 -27 12 13 c15 15 106 218 100 223 -2 3 -26 -45
-52 -106z"/>
<path d="M84617 85198 c-153 -137 -182 -168 -159 -168 9 0 335 288 340 300 2
5 -1 10 -5 13 l-8 5 -168 -150z"/>
<path d="M81661 85316 c9 -9 384 -136 399 -135 8 0 -74 31 -184 70 -181 63
-227 77 -215 65z"/>
<path d="M69050 85104 c0 -9 60 -47 308 -201 l102 -63 0 13 0 12 -188 117
c-104 65 -196 120 -205 124 l-17 6 0 -8z"/>
<path d="M82481 85036 c9 -10 354 -126 363 -123 5 2 -71 31 -170 65 -165 58
-205 69 -193 58z"/>
<path d="M80095 84889 c-28 -75 -115 -347 -115 -360 l0 -17 18 -7 c9 -4 116
-42 237 -85 121 -43 229 -82 240 -86 l20 -7 -10 11 c-5 5 -116 47 -245 93
-129 45 -239 86 -244 90 l-8 7 61 183 c33 100 59 185 56 187 -2 3 -7 -1 -10
-9z"/>
<path d="M86653 84573 l7 -6 7 6 6 7 -13 0 -13 0 6 -7z"/>
<path d="M86616 84329 l-28 -200 6 -6 6 -6 0 9 c0 5 13 96 29 202 l28 193 -7
4 -6 4 -28 -200z"/>
<path d="M77218 83693 c-62 -90 -339 -536 -335 -540 3 -2 69 99 147 224 143
227 228 353 240 353 3 0 53 -16 110 -35 58 -19 109 -34 115 -32 12 4 -203 77
-227 77 l-17 0 -33 -47z"/>
<path d="M95622 80664 l-124 -176 6 -6 c3 -3 7 -3 9 -1 11 14 235 336 241 347
l7 12 -8 0 c-4 -1 -63 -80 -131 -176z"/>
<path d="M80396 80635 l-6 -124 19 -88 c11 -49 24 -100 30 -115 l11 -28 10 0
c13 0 13 -1 -6 51 -8 24 -22 77 -30 117 l-14 73 7 119 6 120 -10 0 -10 0 -7
-125z"/>
<path d="M13112 78258 c-35 -110 -112 -402 -110 -410 2 -6 32 90 66 212 35
122 61 224 59 227 -3 2 -10 -11 -15 -29z"/>
<path d="M11980 77600 l0 -9 43 -11 c23 -6 71 -20 107 -30 36 -10 110 -28 165
-40 55 -12 108 -24 118 -26 l17 -5 0 14 0 14 -107 22 c-60 13 -155 36 -212 52
-58 16 -110 29 -118 29 l-13 0 0 -10z"/>
<path d="M74540 77536 l0 -14 14 -5 14 -6 6 14 5 13 -15 6 c-22 8 -24 8 -24
-8z"/>
<path d="M74586 77511 l-8 -12 14 -22 c17 -26 38 -105 38 -142 l0 -26 -21 -42
c-12 -23 -45 -72 -75 -108 l-53 -67 6 -6 c13 -12 22 -5 76 63 l56 68 15 38 16
37 0 50 c0 62 -16 126 -39 157 l-18 24 -7 -12z"/>
<path d="M72070 77070 l0 -10 245 0 245 0 0 10 0 10 -245 0 -245 0 0 -10z"/>
<path d="M69641 69994 c-159 -164 -185 -194 -162 -194 12 0 351 348 351 360 0
6 -4 10 -9 10 -5 0 -86 -79 -180 -176z"/>
<path d="M94304 67025 c3 -16 19 -113 36 -215 34 -206 39 -234 45 -228 6 6
-71 457 -80 466 l-7 7 6 -30z"/>
<path d="M55409 66904 l-14 -17 -15 -138 -16 -139 7 0 c10 0 16 34 30 165 l11
110 16 18 15 17 -10 0 c-6 0 -17 -7 -24 -16z"/>
<path d="M41235 66400 c3 -5 8 -10 11 -10 3 0 2 5 -1 10 -3 6 -8 10 -11 10 -3
0 -2 -4 1 -10z"/>
<path d="M41276 66361 c20 -21 587 -382 591 -377 3 2 -12 15 -34 29 -21 13
-154 99 -296 191 -237 152 -288 183 -261 157z"/>
<path d="M43145 66138 c-10 -18 -174 -271 -363 -563 -189 -291 -347 -536 -350
-545 l-5 -15 10 10 c5 6 115 172 243 370 129 198 294 451 367 563 73 111 133
204 133 207 0 15 -18 1 -35 -27z"/>
<path d="M94460 66086 c0 -19 60 -387 66 -405 l4 -14 6 6 6 6 -33 211 -34 210
-7 0 c-5 0 -8 -6 -8 -14z"/>
<path d="M41220 65708 l1 -193 -21 -59 c-24 -70 -23 -66 -7 -66 l13 0 19 58
18 57 5 198 5 197 -17 0 -16 0 0 -192z"/>
<path d="M31180 65522 l0 -20 108 -6 c59 -4 161 -14 227 -22 66 -8 121 -14
122 -14 2 0 3 9 3 20 0 11 -1 20 -3 20 -1 0 -56 6 -122 14 -66 8 -168 18 -227
22 l-108 6 0 -20z"/>
<path d="M41065 65450 l-6 -10 6 -10 7 -11 14 12 14 11 -6 9 c-7 12 -21 11
-29 -1z"/>
<path d="M41049 65403 c-1 -5 0 -17 1 -28 l2 -19 16 -13 c22 -16 32 -16 32 1
l0 14 -15 6 -15 5 0 21 0 20 -10 0 c-5 0 -11 -3 -11 -7z"/>
<path d="M37740 64399 c-328 -12 -344 -17 -45 -12 149 3 308 4 355 3 108 -2
102 6 -10 12 l-85 5 -215 -8z"/>
<path d="M38220 64376 c69 -13 90 -13 79 -2 -2 2 -38 7 -79 10 l-75 5 75 -13z"/>
<path d="M40669 64122 c-31 -20 -64 -47 -73 -60 l-18 -23 18 -27 c27 -41 505
-572 515 -572 5 0 -108 131 -251 290 l-260 290 0 13 c1 21 23 43 76 76 l51 31
27 0 26 0 0 10 0 10 -27 -1 -28 -1 -56 -36z"/>
<path d="M40067 64074 l-17 -35 10 6 c6 3 17 19 25 36 l16 29 -9 0 c-5 0 -16
-16 -25 -36z"/>
<path d="M89635 63879 c5 -8 48 -59 96 -114 47 -55 105 -127 128 -159 46 -66
57 -65 13 1 -31 46 -218 269 -235 280 l-10 6 8 -14z"/>
<path d="M40911 63593 c73 -82 141 -157 152 -168 l19 -20 -3 12 c-6 19 -280
323 -291 323 -5 0 50 -66 123 -147z"/>
<path d="M41710 63630 l0 -13 7 6 6 7 -6 7 -7 6 0 -13z"/>
<path d="M41760 63574 c0 -6 12 -21 26 -35 14 -13 59 -68 100 -123 41 -54 74
-94 74 -88 0 13 -104 153 -158 212 l-41 45 -1 -11z"/>
<path d="M2587 63403 l-5 -8 160 -140 c89 -77 165 -141 169 -143 l9 -4 0 10
c0 8 -227 212 -306 275 l-23 17 -4 -7z"/>
<path d="M41990 63344 c0 -10 74 -101 168 -206 l86 -97 8 5 8 5 -92 102 c-51
56 -109 123 -128 149 -32 43 -50 58 -50 42z"/>
<path d="M7040 63312 l0 -11 -17 -2 c-10 -1 -94 -3 -188 -4 -93 -1 -185 -3
-203 -3 l-33 -2 5 -9 5 -8 158 -5 c87 -2 176 -3 198 0 l41 4 24 18 25 19 -8 7
-7 7 0 -11z"/>
<path d="M58665 62927 c-53 -29 -252 -162 -405 -271 l-55 -39 19 7 c10 3 103
65 207 136 l188 130 65 32 64 31 334 -27 c183 -14 351 -29 373 -32 l40 -6 -10
9 -10 10 -335 27 c-184 14 -353 26 -375 26 l-40 0 -60 -33z"/>
<path d="M17858 62941 l-157 -6 -8 -9 -8 -9 130 7 c72 3 158 6 193 6 l62 0 0
10 0 10 -27 -2 c-16 -1 -99 -4 -185 -7z"/>
<path d="M16920 62895 c-85 -7 -159 -14 -164 -14 l-9 -1 5 -5 6 -6 218 16
c121 9 221 19 223 21 7 7 -116 2 -279 -11z"/>
<path d="M90975 62720 c82 -82 151 -147 154 -144 7 6 -281 294 -294 294 -5 0
57 -67 140 -150z"/>
<path d="M58408 62711 l-186 -129 -210 -168 c-116 -93 -308 -245 -427 -339
l-217 -170 -19 1 -20 1 5 -12 4 -13 -11 -11 c-6 -6 -8 -13 -6 -16 10 -10 472
-206 480 -203 10 4 -431 198 -450 198 l-13 0 11 14 12 14 217 -95 c119 -52
223 -97 230 -100 l12 -5 0 9 0 9 -157 69 c-87 38 -186 81 -221 97 l-64 28 205
162 c112 90 305 244 428 344 l224 180 180 124 c99 68 184 127 190 132 l9 8 -9
0 c-6 0 -94 -58 -197 -129z"/>
<path d="M42175 62474 c-104 -90 -192 -169 -194 -175 -2 -7 68 49 155 124 229
195 240 205 234 210 -3 2 -90 -69 -195 -159z"/>
<path d="M98755 62154 c-19 -47 -19 -59 5 -135 l21 -64 57 -104 58 -105 14 -4
13 -5 -46 84 c-72 133 -94 180 -108 236 l-13 53 17 35 c20 42 20 45 7 45 l-10
0 -15 -36z"/>
<path d="M14070 62031 c0 -16 81 -42 265 -85 165 -38 212 -46 194 -33 -2 2
-87 23 -189 46 l-185 43 -42 18 -43 19 0 -8z"/>
<path d="M59940 61883 c0 -5 40 -25 88 -45 48 -20 124 -52 170 -72 l82 -35 0
8 0 8 -137 58 c-76 32 -153 64 -170 71 l-33 14 0 -7z"/>
<path d="M43690 61638 c-124 -111 -227 -206 -229 -212 l-4 -11 24 21 c97 84
400 353 424 376 l30 28 -10 -1 c-6 0 -111 -91 -235 -201z"/>
<path d="M85402 61750 c144 -239 231 -380 235 -380 3 0 -1 10 -9 23 -8 12 -59
96 -113 187 -54 91 -105 172 -113 180 l-16 15 16 -25z"/>
<path d="M89648 61548 c-42 -95 -80 -182 -84 -193 l-7 -20 11 10 c9 8 135 282
163 353 l9 22 -8 0 c-4 0 -42 -78 -84 -172z"/>
<path d="M77646 60921 l-6 -10 51 -205 51 -206 9 0 c5 0 9 5 9 10 0 14 -100
414 -105 418 -2 2 -6 -1 -9 -7z"/>
<path d="M83215 60549 c-82 -48 -154 -94 -158 -101 l-9 -13 97 -160 c53 -88
120 -205 147 -260 56 -110 267 -455 280 -455 4 0 -34 66 -86 148 -51 81 -133
224 -183 317 -49 94 -122 222 -162 285 l-71 115 2 13 3 14 145 85 c80 46 149
89 155 94 l9 9 -9 -1 c-6 0 -77 -41 -160 -90z"/>
<path d="M62595 60360 c-71 -15 -156 -33 -188 -40 -32 -6 -56 -14 -54 -17 7
-6 380 68 392 78 l9 9 -14 -1 c-8 0 -73 -13 -145 -29z"/>
<path d="M58412 60288 l43 -82 17 -10 17 -10 73 13 c40 8 87 16 103 18 l30 5
112 -229 c61 -125 164 -352 229 -503 64 -151 118 -276 119 -278 1 -1 217 41
480 95 263 53 473 99 467 101 -6 2 -216 -38 -467 -88 -251 -50 -461 -90 -466
-88 l-11 4 -157 364 -158 365 -72 138 c-40 75 -76 137 -79 137 -4 0 -49 -10
-100 -22 l-93 -22 -17 10 -17 10 -40 77 c-22 42 -44 77 -48 77 l-8 0 43 -82z"/>
<path d="M44420 60259 c-158 -138 -182 -160 -178 -164 2 -2 69 52 148 121 171
148 156 134 144 134 -5 0 -57 -41 -114 -91z"/>
<path d="M44560 60345 c1 -13 667 -729 683 -734 7 -2 -4 14 -24 35 -283 306
-608 655 -630 679 l-29 30 0 -10z"/>
<path d="M61910 60190 c0 -3 36 -179 80 -390 l81 -385 -5 -17 -4 -17 9 -3 9
-3 35 -155 c39 -169 43 -185 50 -179 2 2 -14 80 -36 173 -21 93 -38 170 -37
172 2 1 93 21 203 44 211 43 230 48 224 54 -2 3 -100 -16 -218 -40 -118 -24
-215 -43 -216 -42 -1 2 -37 174 -79 383 -66 317 -94 437 -96 405z"/>
<path d="M61873 60165 c3 -11 20 -92 37 -180 34 -177 40 -199 46 -192 3 2 -12
87 -32 188 l-37 184 -10 10 -9 10 5 -20z"/>
<path d="M44937 59874 c118 -130 282 -300 282 -292 1 9 -328 362 -343 367 -6
2 21 -31 61 -75z"/>
<path d="M58810 59913 c0 -6 30 -75 66 -154 36 -79 73 -159 81 -178 8 -18 16
-31 19 -28 4 4 -151 355 -162 366 -2 2 -4 0 -4 -6z"/>
<path d="M86559 59764 c-90 -69 -166 -131 -168 -137 l-4 -12 14 11 c8 6 85 66
172 133 141 110 166 131 153 131 -2 0 -77 -57 -167 -126z"/>
<path d="M63661 59825 c0 -11 28 -148 63 -305 34 -157 96 -453 137 -657 40
-205 76 -373 80 -373 11 0 -253 1288 -276 1345 l-3 10 -1 -20z"/>
<path d="M49290 59706 c0 -4 285 -226 309 -241 l14 -8 -7 11 c-7 12 -303 242
-311 242 -3 0 -5 -2 -5 -4z"/>
<path d="M62712 59569 c-106 -20 -196 -40 -199 -43 l-6 -6 7 0 c14 0 391 73
395 77 14 11 -25 6 -197 -28z"/>
<path d="M47130 59496 c0 -3 -11 -55 -25 -118 l-24 -113 -36 -89 c-41 -104
-39 -96 -21 -96 l14 0 36 90 36 90 25 116 c30 137 29 124 10 124 -8 0 -15 -2
-15 -4z"/>
<path d="M44349 59354 l-14 -17 70 -64 c39 -35 114 -102 168 -150 l97 -85 15
6 c25 9 18 22 -44 72 -32 27 -108 95 -169 151 l-110 103 -13 -16z"/>
<path d="M91670 59214 c0 -19 226 -215 299 -259 l14 -8 -4 11 c-2 6 -51 47
-109 92 -58 46 -126 103 -152 128 l-48 46 0 -10z"/>
<path d="M83804 59145 c4 -11 88 -175 188 -364 99 -189 188 -367 198 -395 l19
-51 0 16 c2 34 -31 103 -214 449 -177 336 -208 392 -191 345z"/>
<path d="M50410 58872 c0 -5 72 -64 160 -131 88 -67 160 -118 160 -113 0 5
-72 64 -160 131 -88 67 -160 118 -160 113z"/>
<path d="M62380 58705 l-645 -133 -199 -52 c-109 -28 -199 -50 -200 -48 -2 3
-16 65 -67 306 -6 29 -13 51 -16 48 -4 -4 61 -338 73 -376 l5 -14 7 11 7 11
195 51 196 51 664 135 c366 75 670 138 675 140 55 21 -153 -18 -695 -130z"/>
<path d="M51140 58662 c0 -7 20 -43 45 -80 l45 -67 0 -31 0 -32 -26 -17 -25
-16 -31 6 -31 7 7 -11 7 -11 32 0 33 0 21 15 21 15 6 34 7 35 -56 83 -55 83 0
-13z"/>
<path d="M61093 58366 c-105 -22 -195 -45 -200 -49 l-8 -9 25 6 c14 4 110 24
214 46 175 37 228 52 180 49 -10 -1 -105 -20 -211 -43z"/>
<path d="M63993 58008 c3 -13 44 -216 92 -452 47 -236 129 -627 181 -869 l95
-440 -16 -17 c-8 -9 -15 -23 -15 -31 l0 -14 24 30 c13 16 22 33 20 36 -6 10
-201 926 -238 1119 -20 102 -57 292 -82 423 l-47 237 -9 0 -10 0 5 -22z"/>
<path d="M64034 58010 c15 -62 79 -376 121 -590 55 -281 55 -280 65 -280 l8 0
-53 258 c-111 538 -128 617 -137 627 l-9 10 5 -25z"/>
<path d="M46520 57671 c0 -5 21 -26 46 -46 26 -19 44 -35 41 -35 -6 0 244
-340 327 -446 23 -28 64 -80 91 -115 67 -85 175 -199 188 -199 l11 0 -60 63
c-95 99 -148 165 -357 447 l-197 265 -45 38 -45 38 0 -10z"/>
<path d="M81270 57609 c-122 -16 -315 -52 -324 -60 -20 -18 5 -17 139 6 77 13
173 27 213 31 l72 7 0 13 0 14 -17 -1 c-10 -1 -47 -5 -83 -10z"/>
<path d="M37950 57262 l-115 -47 -95 -74 c-52 -40 -97 -78 -99 -83 -2 -6 43
25 100 68 l104 78 105 44 c58 24 109 47 115 53 14 14 10 12 -115 -39z"/>
<path d="M61552 57173 c5 -27 25 -118 45 -203 l35 -155 10 -10 10 -10 -6 20
c-12 44 -54 225 -72 313 -10 50 -21 92 -25 92 l-7 0 10 -47z"/>
<path d="M64313 56670 c3 -14 24 -116 48 -228 l42 -203 13 5 12 4 21 -14 21
-15 0 -33 0 -33 -18 -16 -19 -17 -29 0 -30 0 -10 10 -10 10 -262 -52 c-144
-29 -262 -55 -262 -59 0 -3 116 17 258 46 l259 51 20 -13 20 -13 31 6 31 6 21
23 22 24 -9 38 -9 38 -29 15 c-17 8 -31 15 -32 16 -2 0 -23 94 -47 208 -24
114 -47 210 -51 214 l-8 7 6 -25z"/>
<path d="M37338 56458 c-52 -158 -63 -197 -82 -281 l-7 -29 9 6 9 6 7 42 c4
24 34 125 67 226 33 100 59 187 57 193 -2 5 -29 -68 -60 -163z"/>
<path d="M79448 56581 l-37 -28 -96 -32 -97 -32 -84 -6 -84 -6 0 -9 0 -8 58 5
c117 12 139 16 228 46 l90 31 40 34 c47 40 34 44 -18 5z"/>
<path d="M90572 56486 c-12 -18 -87 -97 -166 -175 l-144 -141 9 -6 10 -6 153
154 c85 84 159 163 165 175 l11 22 -8 5 -8 4 -22 -32z"/>
<path d="M81640 56275 c-74 -19 -159 -42 -187 -51 l-53 -17 0 -10 0 -9 18 8
c9 4 102 29 206 55 103 26 191 50 194 53 l5 6 -24 -1 c-13 -1 -85 -16 -159
-34z"/>
<path d="M63730 56130 l0 -10 13 0 c8 0 22 -9 32 -20 10 -11 22 -20 26 -20 l9
0 -11 24 -11 24 -22 6 c-30 8 -36 7 -36 -4z"/>
<path d="M63017 55900 c3 -11 9 -20 13 -20 l8 0 -5 20 c-3 11 -9 20 -13 20
l-8 0 5 -20z"/>
<path d="M46936 55712 l-5 -9 33 -109 c19 -60 46 -136 61 -169 15 -33 36 -79
46 -102 l18 -43 16 6 15 6 0 13 c0 7 -18 52 -40 100 -22 47 -56 138 -75 201
l-36 114 -14 0 c-8 0 -16 -4 -19 -8z"/>
<path d="M55378 55464 l-6 -5 24 -42 24 -42 0 -22 0 -23 10 0 10 0 0 30 0 30
-25 40 c-26 42 -28 43 -37 34z"/>
<path d="M53202 54904 c-42 -72 -261 -404 -266 -404 -3 0 -68 43 -145 96 -78
52 -141 92 -141 87 0 -4 63 -50 140 -102 l139 -94 -6 -11 c-4 -6 -61 -94 -128
-196 -66 -102 -125 -191 -129 -199 l-9 -14 10 6 c5 3 67 94 139 201 l129 196
13 0 13 0 -6 9 -6 10 118 179 c65 99 132 203 150 231 l32 51 -10 0 c-5 0 -22
-21 -37 -46z"/>
<path d="M50293 54571 c-29 -33 -53 -62 -53 -66 l0 -6 9 5 c17 11 113 126 104
126 -4 0 -32 -27 -60 -59z"/>
<path d="M4362 54608 l4 -12 217 -72 217 -72 5 8 5 9 -10 6 c-14 9 -422 145
-433 145 l-9 0 4 -12z"/>
<path d="M52996 54495 c10 -8 24 -14 29 -14 l10 0 -19 14 c-11 8 -24 15 -30
15 l-10 0 20 -15z"/>
<path d="M53010 54442 c0 -5 -104 -165 -231 -357 -233 -352 -277 -426 -310
-524 -23 -65 -23 -67 -5 -52 l14 12 6 34 7 35 46 87 46 88 220 333 219 332 12
-9 c37 -29 479 -311 482 -308 3 2 -105 76 -238 163 -134 87 -244 162 -246 166
-5 11 -22 10 -22 0z"/>
<path d="M51450 54306 c32 -32 195 -155 199 -150 2 2 2 6 0 7 -126 104 -248
192 -199 143z"/>
<path d="M49152 54077 c-128 -66 -231 -122 -228 -124 4 -4 231 108 396 196 52
28 88 50 80 49 -8 0 -120 -55 -248 -121z"/>
<path d="M22636 54023 c-86 -91 -155 -168 -153 -170 3 -2 38 31 78 74 41 43
114 119 163 170 l90 93 -11 0 -12 0 -155 -167z"/>
<path d="M22671 54005 l-161 -166 0 -12 0 -11 56 54 c100 99 277 290 272 296
-3 2 -78 -70 -167 -161z"/>
<path d="M51586 54059 c-47 -55 -86 -105 -86 -110 0 -6 41 37 91 96 50 58 89
108 87 111 -3 2 -44 -41 -92 -97z"/>
<path d="M50563 54073 c4 -6 31 -25 61 -43 l54 -33 26 -46 26 -46 0 13 c0 7
-10 30 -22 51 l-22 39 -55 33 c-31 19 -60 36 -65 38 l-9 4 6 -10z"/>
<path d="M50710 54033 c0 -5 17 -17 37 -28 21 -11 52 -33 71 -49 18 -16 35
-27 37 -24 8 7 -46 53 -97 82 l-48 27 0 -8z"/>
<path d="M51450 53895 c-7 -9 -11 -17 -9 -20 3 -2 10 5 17 15 14 24 10 26 -8
5z"/>
<path d="M67200 53814 c-77 -17 -95 -23 -88 -30 3 -2 38 3 77 11 l72 17 13 -5
13 -5 27 -139 c16 -76 32 -145 37 -153 l8 -15 1 11 c0 6 -14 75 -30 154 l-31
144 -11 13 c-6 7 -13 13 -17 12 -3 -1 -35 -7 -71 -15z"/>
<path d="M80901 53682 c-1 -19 101 -426 110 -436 6 -7 -93 407 -106 439 l-3
10 -1 -13z"/>
<path d="M52302 53626 c13 -19 24 -33 26 -31 6 6 -31 65 -40 65 l-8 0 22 -34z"/>
<path d="M51557 53294 c-27 -14 -47 -28 -44 -30 3 -3 31 8 63 25 l59 30 -15 0
c-8 0 -37 -11 -63 -25z"/>
<path d="M49810 53237 c0 -5 120 -195 137 -216 2 -2 5 -2 7 0 3 3 -24 49 -60
104 -65 100 -84 125 -84 112z"/>
<path d="M52270 53202 c0 -30 178 -389 257 -519 l13 -23 17 0 16 0 99 57 c54
31 98 60 98 64 0 4 -47 -20 -104 -53 l-105 -60 -9 6 c-16 10 -156 271 -218
406 -61 133 -64 139 -64 122z"/>
<path d="M34604 53107 l-27 -24 9 -5 9 -6 29 23 28 22 -10 7 -11 6 -27 -23z"/>
<path d="M49486 52902 c38 -72 70 -127 72 -122 4 10 -116 238 -130 246 -6 4
20 -52 58 -124z"/>
<path d="M35497 52588 c18 -117 33 -220 34 -228 l1 -15 5 13 5 13 -33 215
c-18 118 -35 214 -39 214 l-6 0 33 -212z"/>
<path d="M65025 52740 c-132 -26 -319 -62 -415 -81 l-175 -34 16 -3 c17 -3
850 155 858 163 10 11 -56 0 -284 -45z"/>
<path d="M81130 52775 c0 -14 26 -51 77 -109 l44 -49 44 -28 44 -28 87 -26
c47 -15 88 -24 91 -22 4 5 -123 47 -140 47 -3 0 -31 15 -62 34 l-56 34 -43 50
c-23 27 -52 63 -64 78 l-21 29 -1 -10z"/>
<path d="M52800 52761 c0 -5 5 -13 10 -16 l10 -6 0 10 c0 5 -4 13 -10 16 l-10
6 0 -10z"/>
<path d="M51290 52751 c0 -5 5 -13 10 -16 l10 -6 0 10 c0 5 -4 13 -10 16 l-10
6 0 -10z"/>
<path d="M51296 52659 c17 -30 64 -114 104 -186 41 -73 76 -131 78 -128 6 6
-186 353 -201 362 l-11 7 30 -55z"/>
<path d="M54385 52540 c8 -16 15 -35 15 -42 0 -8 -27 -83 -60 -168 l-60 -155
1 -30 2 -30 4 24 c3 13 31 94 64 178 32 85 59 162 59 171 0 24 -23 82 -32 82
l-9 0 16 -30z"/>
<path d="M54990 52418 l-83 -123 -49 -51 -50 -52 9 -5 9 -5 49 47 50 47 82
119 c84 123 91 137 75 143 l-9 3 -83 -123z"/>
<path d="M78040 52398 c0 -7 35 -111 77 -230 l78 -218 8 3 c5 1 9 5 10 7 1 3
-34 105 -78 227 -71 199 -95 250 -95 211z"/>
<path d="M53021 52344 c13 -36 185 -384 191 -384 8 0 -169 371 -184 385 l-10
10 3 -11z"/>
<path d="M50198 52239 c-191 -96 -256 -133 -144 -84 57 25 338 165 345 171 2
2 2 6 0 8 -2 2 -93 -41 -201 -95z"/>
<path d="M84090 52290 c-102 -26 -177 -49 -167 -49 19 -1 379 87 386 95 11 11
-49 -2 -219 -46z"/>
<path d="M27002 52263 l9 -68 -5 -160 -5 -160 8 30 9 30 1 136 c0 75 -2 164
-5 198 l-7 61 -7 0 -6 0 8 -67z"/>
<path d="M27045 52108 l0 -228 8 0 7 0 -1 173 c-1 94 -4 197 -8 227 l-7 55 1
-227z"/>
<path d="M89010 52110 l0 -10 20 0 20 0 0 10 0 10 -20 0 -20 0 0 -10z"/>
<path d="M22401 51900 l0 -25 14 -25 c18 -32 19 -16 0 35 l-14 40 0 -25z"/>
<path d="M22410 51800 l0 -13 7 6 6 7 -6 7 -7 6 0 -13z"/>
<path d="M22380 51640 l0 -13 7 6 6 7 -6 7 -7 6 0 -13z"/>
<path d="M42012 51323 c2 -5 10 -21 18 -37 l14 -28 101 -68 c109 -73 157 -100
177 -100 l13 0 -50 28 c-27 16 -88 55 -135 88 l-85 60 -20 32 c-11 17 -24 31
-28 32 -5 0 -7 -3 -5 -7z"/>
<path d="M6015 51268 c3 -7 27 -98 55 -203 57 -215 59 -220 66 -213 3 3 -21
101 -52 217 l-57 211 -8 0 -8 0 4 -12z"/>
<path d="M44340 51210 c36 -4 134 -11 218 -15 l154 -8 45 -24 c25 -13 50 -22
55 -21 l10 4 -54 26 -53 27 -185 11 c-102 5 -201 9 -220 9 l-35 -2 65 -7z"/>
<path d="M28400 50880 l0 -13 7 6 6 7 -6 7 -7 6 0 -13z"/>
<path d="M33541 50837 c-2 -16 129 -841 134 -845 9 -9 6 14 -56 411 -52 338
-75 466 -78 434z"/>
<path d="M32405 50740 c42 -290 63 -415 70 -408 7 7 -54 399 -65 423 l-10 20
5 -35z"/>
<path d="M30524 50115 c4 -88 9 -191 13 -228 l6 -68 6 8 7 8 -10 212 -11 211
-9 9 -8 8 6 -160z"/>
<path d="M33710 49884 c0 -22 94 -716 134 -982 l43 -294 -11 -3 c-6 -2 -108
-9 -226 -15 -118 -6 -217 -13 -219 -16 -7 -7 73 -5 268 7 101 6 185 9 187 6 2
-2 19 -102 36 -223 17 -120 33 -221 35 -223 11 -15 7 29 -22 224 -18 121 -32
221 -30 223 2 2 116 9 255 17 138 7 254 16 257 19 l6 6 -34 -1 c-19 0 -135 -6
-259 -13 -124 -7 -226 -12 -228 -11 -5 4 -91 600 -136 943 -25 184 -47 336
-50 340 l-6 5 0 -9z"/>
<path d="M30543 49773 l7 -6 7 6 6 7 -13 0 -13 0 6 -7z"/>
<path d="M39656 49661 c11 -10 245 -65 362 -84 l82 -14 0 7 0 7 -77 12 c-43 7
-143 28 -222 47 -158 38 -159 38 -145 25z"/>
<path d="M35990 49424 c0 -18 102 -633 116 -697 3 -16 8 -26 10 -24 5 5 -114
729 -121 736 -3 2 -5 -4 -5 -15z"/>
<path d="M37500 49279 l0 -9 24 -6 c103 -26 412 -91 415 -88 10 10 -19 18
-206 60 -109 24 -206 46 -215 48 l-18 4 0 -9z"/>
<path d="M37924 49080 c2 -14 19 -115 37 -225 l32 -200 10 -10 9 -10 -5 20
c-3 11 -20 108 -37 215 -17 107 -35 204 -41 215 l-9 20 4 -25z"/>
<path d="M91417 48678 c-81 -94 -147 -176 -147 -182 l0 -10 8 10 c5 5 64 74
132 154 68 80 132 155 143 167 11 13 18 25 15 28 -2 3 -70 -73 -151 -167z"/>
<path d="M39947 48640 l-5 -20 9 0 9 0 0 20 c0 11 -2 20 -4 20 -2 0 -6 -9 -9
-20z"/>
<path d="M33854 48550 c3 -14 17 -114 32 -222 l27 -198 7 0 6 0 -30 214 -31
214 -8 9 -9 8 6 -25z"/>
<path d="M32870 48511 l-75 -6 3 -30 c5 -49 33 -209 38 -214 7 -7 4 20 -11
114 -8 50 -15 98 -15 108 l0 17 80 0 80 0 0 10 0 10 -12 -2 c-7 -1 -47 -4 -88
-7z"/>
<path d="M37623 48095 c-232 -13 -428 -26 -435 -29 l-13 -6 95 5 c52 2 253 12
445 21 l350 16 20 8 20 9 -30 -1 c-16 0 -220 -11 -452 -23z"/>
<path d="M90245 47389 l-350 -400 -52 -92 -52 -91 -26 -14 c-34 -17 -26 -27 9
-11 l27 13 55 97 55 98 337 383 c185 211 343 392 351 401 l13 17 -8 0 c-5 -1
-166 -181 -359 -401z"/>
<path d="M90477 47590 c-81 -94 -144 -170 -139 -170 5 0 64 63 132 141 164
188 173 199 163 199 -4 -1 -75 -77 -156 -170z"/>
<path d="M29090 46787 c-181 -8 -210 -11 -199 -20 5 -4 520 20 559 26 46 7
-163 4 -360 -6z"/>
<path d="M29632 46769 c-85 -4 -156 -10 -160 -14 l-6 -6 184 7 185 7 20 8 20
8 -45 -1 c-25 -1 -114 -4 -198 -9z"/>
<path d="M57456 46272 l-5 -8 36 -60 c19 -32 102 -195 184 -362 l148 -304 10
6 10 6 -68 143 c-144 301 -293 587 -307 587 -1 0 -5 -4 -8 -8z"/>
<path d="M93060 46071 c0 -4 16 -15 35 -24 l36 -17 32 0 32 0 53 -25 54 -25
54 0 54 0 71 36 c93 47 83 55 -12 9 l-73 -35 -41 0 -40 0 -47 25 -47 25 -38 0
-38 0 -42 20 -43 19 0 -8z"/>
<path d="M81344 45948 l-7 -11 11 7 c7 4 12 9 12 12 0 8 -9 4 -16 -8z"/>
<path d="M81370 45886 c-4 -13 -14 -43 -20 -67 -6 -24 -20 -68 -32 -97 l-21
-53 -29 -6 -29 -6 8 -21 c8 -24 8 -41 -2 -76 l-6 -25 15 25 15 25 -5 32 -6 32
25 6 26 7 15 38 c19 48 65 210 60 210 -3 0 -9 -11 -14 -24z"/>
<path d="M30711 45784 c-1 -44 2 -142 6 -217 l6 -137 8 0 8 0 -5 188 -6 187
-8 30 -8 30 -1 -81z"/>
<path d="M81315 45838 c-3 -13 -15 -48 -26 -79 l-21 -57 -21 -10 -22 -11 15 0
c8 0 21 3 28 7 l12 8 19 55 c22 65 33 109 27 109 -3 0 -7 -10 -11 -22z"/>
<path d="M45840 45321 l0 -10 173 -117 c94 -64 178 -119 185 -121 l12 -5 0 11
0 11 -180 120 c-99 66 -182 120 -185 120 -3 0 -5 -4 -5 -9z"/>
<path d="M44295 45298 c-11 -7 -45 -18 -75 -25 l-55 -13 -85 0 c-47 -1 -103
-5 -125 -9 l-40 -9 75 -1 c41 0 115 4 164 9 l90 11 43 19 c24 10 43 21 43 24
0 9 -13 7 -35 -6z"/>
<path d="M26560 44382 c0 -11 390 -194 403 -189 8 2 -117 64 -330 163 l-73 33
0 -7z"/>
<path d="M52658 44041 l-17 -6 116 -245 c287 -608 395 -836 403 -843 l8 -9 16
4 15 3 -108 235 c-96 208 -388 819 -408 854 l-8 13 -17 -6z"/>
<path d="M52542 43884 l3 -17 23 -8 22 -9 -9 19 c-6 10 -18 21 -26 25 l-16 6
3 -16z"/>
<path d="M29941 43190 c-1 -47 -6 -113 -11 -148 l-11 -64 -30 -54 -31 -54 9 0
9 0 32 68 32 67 10 80 11 80 -9 55 -10 55 -1 -85z"/>
<path d="M11075 43059 c-55 -16 -199 -56 -320 -90 -121 -33 -222 -63 -224 -65
-3 -2 0 -9 5 -14 l9 -9 100 29 c55 16 201 57 324 92 l225 64 4 12 4 12 -14 -1
c-7 -1 -58 -14 -113 -30z"/>
<path d="M31880 42689 l0 -12 -157 -153 -157 -153 6 -7 7 -6 128 121 c159 151
217 221 183 221 -5 0 -10 -5 -10 -11z"/>
<path d="M91530 42513 c-58 -31 -151 -80 -208 -110 -57 -30 -102 -57 -100 -59
4 -3 405 201 417 212 2 2 2 6 0 8 -2 2 -51 -21 -109 -51z"/>
<path d="M51208 42536 l-166 -21 -8 -8 -8 -8 39 6 c22 3 111 14 199 25 87 11
161 22 164 25 8 8 -40 4 -220 -19z"/>
<path d="M87072 41523 c-95 -69 -170 -128 -168 -130 3 -3 86 54 187 126 l181
131 -13 -1 c-8 0 -92 -57 -187 -126z"/>
<path d="M30402 41200 l-183 -138 9 -6 9 -6 187 140 c102 77 186 142 186 145
0 18 -46 -12 -208 -135z"/>
<path d="M28960 41150 c0 -10 36 -20 75 -20 36 0 155 -31 207 -53 l37 -15 139
-105 139 -105 59 -30 59 -29 48 -7 48 -7 29 6 c17 4 30 10 30 13 l0 7 -75 2
-76 2 -57 32 c-31 18 -118 79 -193 135 l-137 103 -38 16 c-56 24 -170 52 -236
58 l-58 6 0 -9z"/>
<path d="M29421 41033 c1 -14 112 -99 188 -144 l75 -44 68 -3 68 -4 0 9 0 10
-66 6 -66 6 -64 36 c-35 20 -91 58 -125 85 -60 48 -80 59 -78 43z"/>
<path d="M56853 40883 c65 -2 168 -2 230 0 l112 3 -230 0 -230 0 118 -3z"/>
<path d="M57748 40883 c56 -2 148 -2 205 0 l102 3 -205 0 -205 0 103 -3z"/>
<path d="M84780 39956 c0 -4 39 -65 87 -134 47 -70 165 -257 261 -417 191
-317 180 -300 186 -294 11 10 -472 784 -525 844 l-9 9 0 -8z"/>
<path d="M85090 39552 c0 -15 252 -423 258 -418 2 3 -53 99 -123 213 -144 234
-135 220 -135 205z"/>
<path d="M52460 38901 c0 -4 91 -24 203 -45 111 -21 208 -41 215 -43 l12 -5 0
9 0 8 -92 17 c-51 10 -148 28 -215 41 l-123 24 0 -6z"/>
<path d="M60290 38450 c0 -5 5 -10 10 -10 l10 0 0 -16 0 -15 -47 -67 c-26 -37
-105 -130 -176 -207 l-129 -140 -82 -70 c-45 -39 -98 -81 -119 -94 -20 -12
-37 -27 -37 -33 l0 -10 53 38 c82 59 127 96 196 163 l63 61 187 -174 c362
-337 416 -386 426 -386 l9 0 -14 14 c-8 7 -116 107 -240 221 -124 115 -255
237 -293 273 l-67 64 87 95 c49 52 114 131 146 174 l57 79 0 15 0 14 -20 11
-20 11 0 -11z"/>
<path d="M60634 37459 c-16 -17 -62 -56 -103 -86 l-73 -55 -67 -25 c-36 -13
-70 -29 -76 -34 l-10 -10 82 30 82 30 73 54 c40 30 89 71 107 91 l35 36 -10 0
c-6 0 -23 -14 -40 -31z"/>
<path d="M40480 36584 c-177 -40 -429 -85 -550 -97 l-115 -12 -3 -97 -3 -98 8
0 8 0 0 93 0 92 90 6 c50 4 131 14 180 23 188 34 490 99 500 107 l9 9 -9 -1
c-6 -1 -57 -12 -115 -25z"/>
<path d="M63339 36512 c-81 -72 -156 -154 -207 -229 l-22 -32 9 -6 10 -6 10
19 c5 10 38 53 73 95 l64 76 82 72 c75 66 95 90 75 89 -5 0 -47 -35 -94 -78z"/>
<path d="M56775 36169 c-16 -5 -223 -38 -460 -74 -236 -36 -431 -68 -434 -70
-2 -3 -2 -8 1 -11 l6 -6 404 61 c221 34 436 68 476 77 l72 15 0 10 0 9 -17 -1
c-10 0 -31 -5 -48 -10z"/>
<path d="M41505 35685 c-99 -19 -233 -44 -297 -56 l-118 -22 0 -13 c0 -8 3
-14 8 -14 14 0 617 112 621 115 6 7 -10 25 -22 24 -7 0 -93 -16 -192 -34z"/>
<path d="M84163 35679 c3 -9 50 -94 106 -189 55 -95 98 -176 96 -180 -3 -4
-83 -58 -180 -120 -96 -62 -175 -117 -175 -122 l0 -9 28 20 c80 57 329 214
339 214 7 0 14 6 17 14 l5 13 -9 0 -8 0 -103 178 c-56 97 -107 182 -112 187
l-10 10 6 -16z"/>
<path d="M84916 35603 c-21 -6 -464 -288 -486 -311 l-15 -15 15 8 c8 4 119 75
246 156 l231 149 27 0 26 0 20 -20 c11 -11 33 -46 49 -78 16 -32 56 -94 88
-137 32 -44 142 -215 242 -380 101 -165 198 -318 214 -340 17 -22 32 -42 34
-44 2 -2 5 -2 8 1 l6 5 -24 29 c-14 16 -110 170 -216 341 -105 172 -217 348
-248 390 -32 43 -75 111 -96 150 l-38 72 -22 16 c-22 15 -28 16 -61 8z"/>
<path d="M86800 35482 c0 -5 24 -21 53 -35 l52 -27 53 0 52 0 0 9 0 8 -60 6
-59 5 -34 21 c-36 22 -57 27 -57 13z"/>
<path d="M41301 35465 c0 -5 9 -28 19 -50 l19 -40 0 15 c0 8 -8 31 -19 50 -11
19 -19 31 -19 25z"/>
<path d="M41380 35385 c0 -11 140 -437 146 -444 2 -2 6 -2 9 1 5 5 -129 409
-146 438 l-8 15 -1 -10z"/>
<path d="M85150 35375 c0 -3 26 -40 58 -82 31 -43 90 -133 131 -201 41 -67 76
-120 79 -118 6 7 -161 279 -215 349 -41 53 -53 65 -53 52z"/>
<path d="M52750 35253 c-53 -49 -129 -118 -170 -155 -41 -37 -72 -69 -70 -71
4 -4 263 223 330 288 l25 25 -10 0 c-6 0 -53 -39 -105 -87z"/>
<path d="M85950 34785 c-162 -101 -296 -188 -298 -194 l-4 -11 9 1 c15 1 597
367 601 378 l4 11 -9 -1 c-4 0 -141 -83 -303 -184z"/>
<path d="M81735 34810 l-4 -6 90 -90 91 -89 72 -95 c40 -52 80 -101 89 -109
l17 -13 0 10 c0 6 -4 14 -10 17 -5 3 -38 43 -72 88 l-61 82 -104 106 -103 106
-5 -7z"/>
<path d="M30081 34314 c13 -39 195 -404 202 -404 4 0 -38 91 -94 203 -91 181
-120 235 -108 201z"/>
<path d="M53113 33906 c-116 -17 -215 -34 -219 -38 l-7 -8 19 0 c36 1 416 58
422 64 3 3 3 7 1 9 -2 2 -99 -10 -216 -27z"/>
<path d="M34460 33657 l-75 -132 -39 -42 c-21 -24 -37 -46 -34 -49 3 -2 25 17
49 45 l44 49 68 121 c38 66 67 124 65 129 l-3 10 -75 -131z"/>
<path d="M4590 29217 l0 -13 435 -58 435 -59 7 7 6 6 -6 6 c-4 4 -843 123
-874 124 -2 0 -3 -6 -3 -13z"/>
<path d="M94822 26725 c-101 -73 -186 -136 -189 -139 l-6 -6 9 0 c8 0 361 254
380 273 l7 7 -9 0 c-5 -1 -91 -61 -192 -135z"/>
<path d="M90495 24839 c100 -11 338 -46 373 -55 l22 -6 0 9 0 9 -147 23 -148
23 -95 3 -95 4 90 -10z"/>
<path d="M92140 16394 c0 -5 20 -30 45 -54 l45 -44 0 10 c0 5 -20 30 -45 54
l-45 44 0 -10z"/>
<path d="M98013 14633 c-116 -137 -461 -540 -767 -898 -306 -357 -556 -654
-556 -660 l1 -10 17 20 c9 12 346 405 747 874 813 951 779 910 773 917 -3 2
-100 -107 -215 -243z"/>
<path d="M96667 12033 l-6 -6 157 -130 c86 -72 263 -228 392 -346 129 -119
290 -263 358 -320 l123 -102 11 3 11 4 -124 104 c-68 58 -232 204 -364 325
-201 185 -500 443 -541 468 l-11 6 -6 -6z"/>
<path d="M11260 1670 l0 -9 33 -5 c17 -3 227 -19 465 -37 l433 -31 6 6 6 6 -6
7 -7 6 -437 33 c-241 19 -450 34 -465 34 l-28 0 0 -10z"/>
<path d="M16310 1237 l0 -13 450 -29 450 -29 6 7 c4 4 5 9 2 12 -3 4 -858 65
-904 65 -2 0 -4 -6 -4 -13z"/>
</g>
</svg>
