<?xml version="1.0" standalone="no"?>
<!DOCTYPE svg PUBLIC "-//W3C//DTD SVG 20010904//EN"
 "http://www.w3.org/TR/2001/REC-SVG-20010904/DTD/svg10.dtd">
<svg version="1.0" xmlns="http://www.w3.org/2000/svg"
 width="7500.000000pt" height="7500.000000pt" viewBox="0 0 7500.000000 7500.000000"
 preserveAspectRatio="xMidYMid meet">
<metadata>
Created by potrace 1.16, written by Peter Selinger 2001-2019
</metadata>
<g transform="translate(0.000000,7500.000000) scale(0.075000,-0.075000)"
fill="#000000" stroke="none">
<path d="M82199 99651 l124 -70 9 -16 9 -15 59 -30 c79 -40 89 -38 17 4 -32
18 -63 40 -70 49 -14 19 -241 147 -260 147 -6 0 44 -31 112 -69z"/>
<path d="M89890 99581 c41 -35 54 -32 20 4 l-23 25 -16 0 -16 -1 35 -28z"/>
<path d="M24670 99471 l0 -9 213 -85 c196 -79 236 -91 211 -68 -8 9 -407 171
-419 171 -3 0 -5 -4 -5 -9z"/>
<path d="M83290 99053 c0 -5 56 -41 123 -81 141 -82 162 -93 235 -121 l52 -21
0 8 c0 4 -28 18 -62 31 -53 21 -185 93 -315 173 l-33 20 0 -9z"/>
<path d="M83715 98872 l10 -11 65 -10 c36 -5 115 -12 175 -16 61 -3 129 -8
153 -11 l42 -5 0 9 0 9 -126 7 c-138 8 -274 22 -308 32 l-21 6 10 -10z"/>
<path d="M84350 98800 c-74 -4 -147 -5 -162 -2 l-28 5 0 -13 0 -12 187 8 188
7 25 8 25 7 -50 0 c-27 -1 -111 -4 -185 -8z"/>
<path d="M85560 97986 c-146 -24 -187 -35 -267 -73 l-53 -24 0 -11 0 -10 23
14 c12 8 56 27 97 42 l75 27 145 23 145 22 35 -9 35 -9 22 -20 21 -20 21 -66
c11 -37 25 -101 32 -142 l12 -75 5 14 5 14 -12 71 c-7 39 -19 96 -28 128 l-15
56 -32 30 -31 31 -50 5 -50 5 -135 -23z"/>
<path d="M14204 97452 l-69 -67 -27 -50 -27 -51 -10 -64 c-6 -36 -11 -78 -11
-93 l0 -28 9 6 9 5 7 65 7 65 29 61 29 61 71 73 70 73 -9 6 -10 6 -68 -68z"/>
<path d="M86910 96275 l-34 -35 -120 0 -121 0 -12 -8 -11 -7 131 1 c73 1 137
2 144 3 14 1 68 69 61 76 -2 3 -20 -11 -38 -30z"/>
<path d="M86554 92660 c-93 -67 -176 -128 -184 -136 l-15 -16 16 4 c19 4 368
250 369 261 1 17 -25 1 -186 -113z"/>
<path d="M57100 92760 c0 -11 378 -222 390 -218 l10 3 -200 111 c-110 62 -200
108 -200 104z"/>
<path d="M22825 92610 l-6 -9 38 -10 c21 -6 121 -35 222 -65 172 -52 209 -59
185 -37 -7 7 -413 131 -429 131 -2 0 -6 -4 -10 -10z"/>
<path d="M95444 92167 c-60 -72 -220 -276 -357 -452 -237 -304 -336 -422 -401
-473 l-29 -23 10 -10 11 -11 82 78 83 79 270 350 c149 193 310 397 357 455 48
58 90 110 93 117 l7 12 -9 5 -9 6 -108 -133z"/>
<path d="M85278 91365 l-117 -195 8 -4 7 -5 97 162 c54 89 106 176 118 194
l20 31 -8 5 -9 6 -116 -194z"/>
<path d="M26101 91436 c9 -8 421 -127 426 -122 5 4 -33 16 -283 90 -111 33
-154 43 -143 32z"/>
<path d="M93960 91251 c0 -4 23 -15 51 -25 l51 -19 41 0 c23 -1 104 1 179 3
l137 3 -5 9 -5 8 -162 -6 -162 -6 -62 20 -63 20 0 -7z"/>
<path d="M94955 90729 c9 -17 19 -29 21 -26 7 7 -18 57 -28 57 l-9 0 16 -31z"/>
<path d="M28701 90686 c8 -8 276 -85 334 -96 33 -6 69 -14 80 -17 l20 -5 -7 7
c-3 4 -46 16 -95 26 -48 11 -139 36 -202 55 -105 31 -141 40 -130 30z"/>
<path d="M28843 90683 l7 -6 7 6 6 7 -13 0 -13 0 6 -7z"/>
<path d="M28873 90673 l7 -6 7 6 6 7 -13 0 -13 0 6 -7z"/>
<path d="M28913 90663 l7 -6 7 6 6 7 -13 0 -13 0 6 -7z"/>
<path d="M28979 90644 c25 -8 61 -16 80 -19 l36 -5 -70 20 c-79 22 -113 25
-46 4z"/>
<path d="M29103 90613 l7 -6 7 6 6 7 -13 0 -13 0 6 -7z"/>
<path d="M29143 90603 l7 -6 7 6 6 7 -13 0 -13 0 6 -7z"/>
<path d="M95390 90453 l0 -8 183 -74 c100 -41 197 -81 215 -88 l32 -13 0 7 c0
6 -324 145 -421 181 -5 2 -9 0 -9 -5z"/>
<path d="M54745 90321 l6 -11 19 0 c11 0 90 -20 177 -45 87 -25 167 -48 178
-52 l20 -5 -10 10 c-10 11 -292 95 -358 106 l-39 7 7 -10z"/>
<path d="M31472 89885 c2 -3 87 -17 187 -31 l182 -27 12 13 12 13 -16 -6 -17
-6 -163 24 c-167 25 -206 29 -197 20z"/>
<path d="M36766 89802 l-6 -10 67 -15 c38 -9 139 -26 225 -38 l158 -23 7 7 6
7 -6 6 c-3 3 -90 19 -194 34 -103 16 -202 32 -219 35 l-32 7 -6 -10z"/>
<path d="M94030 89535 c0 -13 328 -341 334 -334 3 3 -71 81 -164 174 -94 94
-170 165 -170 160z"/>
<path d="M85928 88983 c67 -2 177 -2 245 0 l122 3 -245 0 -245 0 123 -3z"/>
<path d="M80256 87992 l-5 -8 206 -72 205 -73 6 5 c3 3 3 8 1 10 -4 4 -397
146 -405 146 -1 0 -5 -4 -8 -8z"/>
<path d="M35776 87745 l-5 -15 9 0 10 0 0 15 c0 8 -2 15 -4 15 -2 0 -6 -7 -10
-15z"/>
<path d="M36221 87403 c0 -5 92 -81 205 -171 l206 -164 6 6 c3 3 3 8 1 9 -133
109 -410 327 -414 327 -3 0 -5 -3 -4 -7z"/>
<path d="M84452 87194 c-51 -101 -92 -187 -91 -192 0 -4 43 78 95 182 52 103
94 190 92 192 -2 2 -45 -80 -96 -182z"/>
<path d="M83681 86916 c2 -2 56 -18 119 -35 63 -17 145 -40 183 -50 l67 -20 0
7 c0 4 -80 29 -178 55 -166 45 -201 53 -191 43z"/>
<path d="M79035 85928 c-10 -33 -74 -422 -70 -427 11 -10 17 15 50 205 20 110
37 207 39 217 l4 17 -9 0 c-5 0 -11 -6 -14 -12z"/>
<path d="M88430 85619 c-29 -112 -55 -211 -58 -219 l-5 -15 10 10 10 10 52
198 c29 109 50 204 48 210 -1 5 -27 -82 -57 -194z"/>
<path d="M80431 85786 c9 -9 400 -148 405 -144 2 3 -84 37 -193 77 -180 65
-224 79 -212 67z"/>
<path d="M71400 85525 c0 -5 31 -86 70 -180 38 -94 74 -184 80 -199 l11 -29 6
6 6 7 -78 192 c-43 106 -82 197 -86 203 l-9 9 0 -9z"/>
<path d="M81675 85353 c13 -13 407 -144 400 -133 -3 5 -90 36 -193 71 -103 34
-194 64 -202 67 l-15 5 10 -10z"/>
<path d="M82481 85036 c9 -10 354 -126 363 -123 5 2 -71 31 -170 65 -165 58
-205 69 -193 58z"/>
<path d="M89241 84646 c2 -2 103 -32 224 -66 121 -33 227 -63 235 -66 l15 -5
-10 9 c-5 6 -108 38 -227 71 -201 56 -248 68 -237 57z"/>
<path d="M64613 84511 l-233 -46 0 -7 0 -8 25 0 c29 0 411 77 439 89 l20 7
-10 6 -9 5 -232 -46z"/>
<path d="M83338 84342 l-197 -175 5 -9 5 -8 172 156 c214 195 222 202 216 208
-2 2 -93 -75 -201 -172z"/>
<path d="M23536 84362 l-5 -9 177 -77 c97 -43 180 -77 185 -77 25 3 -13 25
-166 93 -185 83 -183 82 -191 70z"/>
<path d="M82735 84288 c4 -24 17 -66 30 -95 l23 -52 40 -26 41 -27 41 -5 41
-6 59 18 59 18 22 23 22 24 -6 7 -7 7 -28 -21 c-15 -11 -51 -28 -81 -38 l-53
-17 -39 11 -38 12 -34 32 -34 32 -16 45 c-8 25 -18 57 -21 73 l-6 27 -11 0
-11 0 7 -42z"/>
<path d="M56896 84169 c-6 -14 -106 -465 -106 -474 0 -3 6 -5 14 -5 l15 0 5
18 c3 9 26 115 52 235 l46 219 -11 11 -10 10 -5 -14z"/>
<path d="M83358 84053 c-25 -27 -52 -61 -61 -78 l-14 -30 -6 -72 -6 -73 8 0 9
0 6 31 c3 17 6 47 6 66 l0 34 19 37 19 37 41 40 c39 38 50 55 33 55 -4 0 -28
-21 -54 -47z"/>
<path d="M81380 84021 c30 -18 404 -151 414 -148 9 3 -406 157 -422 157 -4 0
0 -5 8 -9z"/>
<path d="M24350 84007 l0 -12 213 -93 c116 -51 215 -92 220 -92 4 0 7 4 7 9
l0 9 -167 72 c-93 41 -192 84 -220 97 l-53 23 0 -13z"/>
<path d="M11942 83958 l5 -13 219 -47 c120 -25 221 -44 223 -42 11 10 -22 20
-206 60 -109 24 -209 46 -221 49 l-24 6 4 -13z"/>
<path d="M30065 83953 c4 -10 38 -111 77 -225 l70 -208 10 0 10 0 -5 13 c-2 6
-35 108 -73 224 l-69 213 -14 0 -13 0 7 -17z"/>
<path d="M83080 83733 c1 -23 37 -83 77 -127 17 -18 38 -48 47 -65 14 -27 36
-42 36 -26 0 16 -42 83 -65 105 -14 13 -40 48 -56 77 -33 57 -39 63 -39 36z"/>
<path d="M377 83583 l-6 -9 107 -106 107 -105 65 -44 c36 -23 66 -46 68 -51 2
-4 8 -8 13 -8 l9 0 0 15 0 14 -77 52 -78 52 -101 99 -102 100 -5 -9z"/>
<path d="M84216 83428 c54 -79 153 -214 221 -301 69 -87 136 -178 151 -203 15
-24 30 -44 34 -44 15 0 -60 110 -197 286 -77 99 -174 231 -215 292 -41 61 -79
112 -83 112 -5 0 35 -64 89 -142z"/>
<path d="M13745 83541 l-5 -10 17 -5 c23 -6 230 -24 351 -29 l92 -4 0 7 c0 12
-55 20 -130 20 -68 0 -256 16 -297 25 l-22 5 -6 -9z"/>
<path d="M76787 82939 c-65 -105 -117 -195 -115 -200 l3 -10 118 191 c65 106
117 196 115 201 l-3 9 -118 -191z"/>
<path d="M84660 82888 c0 -2 38 -91 85 -198 47 -107 85 -201 85 -207 l0 -13
11 0 10 0 -6 23 c-12 39 -138 331 -158 365 -16 27 -27 39 -27 30z"/>
<path d="M92540 82403 c-58 -80 -109 -153 -114 -161 l-8 -14 10 3 c9 3 194
256 226 307 l7 12 -8 0 c-5 0 -56 -66 -113 -147z"/>
<path d="M17576 82242 l-4 -8 321 -82 c311 -80 535 -132 563 -132 8 0 14 3 14
8 l0 7 -158 34 c-86 18 -285 66 -441 107 -323 84 -288 76 -295 66z"/>
<path d="M42550 80837 c0 -7 15 -59 34 -115 l35 -102 7 -105 7 -105 13 0 14 0
0 13 c0 6 -5 53 -9 104 l-9 92 -38 116 -38 115 -8 0 c-4 0 -8 -6 -8 -13z"/>
<path d="M78915 80141 c-104 -76 -191 -144 -193 -150 l-4 -11 10 0 c13 0 387
273 391 285 7 25 -28 4 -204 -124z"/>
<path d="M43035 79880 l-60 -28 -32 -33 -32 -34 -46 -109 c-25 -60 -43 -111
-41 -114 5 -4 17 21 62 134 l25 62 37 43 36 42 71 33 70 33 -15 0 c-8 0 -42
-13 -75 -29z"/>
<path d="M43065 79850 l-60 -29 -31 -30 -31 -30 -42 -102 c-23 -56 -40 -104
-37 -107 3 -2 10 8 16 23 6 15 24 60 41 101 l30 73 32 31 32 31 63 30 c57 28
74 39 55 39 -5 0 -35 -14 -68 -30z"/>
<path d="M63121 79653 c0 -5 62 -141 138 -303 l137 -295 114 3 115 3 10 11 10
10 -30 -5 c-16 -3 -71 -9 -120 -12 l-91 -7 -138 301 c-77 166 -141 301 -142
301 -2 0 -4 -3 -3 -7z"/>
<path d="M42355 79550 l-30 -8 33 -1 32 -1 0 10 c0 6 -1 9 -2 9 -2 -1 -16 -5
-33 -9z"/>
<path d="M42623 79083 c-86 -203 -160 -389 -157 -392 2 -2 5 -2 7 0 3 4 150
360 167 404 15 40 1 29 -17 -12z"/>
<path d="M32525 79058 c-16 -6 -86 -34 -155 -63 -69 -29 -143 -58 -165 -65
-22 -7 -43 -15 -48 -17 l-7 -4 5 -9 6 -9 92 33 c151 56 327 130 327 138 0 10
-18 9 -55 -4z"/>
<path d="M26502 78919 l3 -10 155 -65 c85 -35 160 -64 165 -64 l10 1 -20 11
c-11 7 -87 40 -168 74 l-148 63 3 -10z"/>
<path d="M26860 78762 c0 -10 50 -35 57 -28 3 2 -9 12 -26 21 l-31 16 0 -9z"/>
<path d="M99401 78712 c-64 -119 -257 -620 -248 -645 1 -5 22 49 46 120 55
159 104 285 169 431 28 61 49 112 47 112 -2 0 -9 -8 -14 -18z"/>
<path d="M42480 78663 c0 -6 325 -143 383 -162 l12 -3 -10 10 c-5 5 -77 37
-160 70 -82 33 -167 68 -187 76 l-38 16 0 -7z"/>
<path d="M70083 78233 c-90 -20 -163 -39 -163 -43 l0 -7 186 40 186 40 46 -16
c25 -10 47 -15 50 -12 9 8 -52 27 -98 31 l-45 3 -162 -36z"/>
<path d="M42250 78160 l-33 -82 6 -96 6 -97 20 -60 c12 -33 19 -49 16 -35 -3
14 -12 66 -21 115 l-16 90 5 55 5 55 27 64 c14 35 24 65 22 68 -3 2 -19 -33
-37 -77z"/>
<path d="M44006 77938 c-7 -13 -116 -205 -241 -428 -125 -223 -238 -421 -250
-442 l-24 -36 47 -49 c26 -26 100 -103 166 -171 65 -68 120 -121 122 -119 2 2
-68 79 -156 171 l-160 168 29 52 c120 211 463 822 476 846 18 35 12 40 -9 8z"/>
<path d="M69733 77107 c-67 -74 -302 -367 -295 -367 10 0 325 380 319 386 -2
2 -13 -6 -24 -19z"/>
<path d="M74266 77074 l-5 -14 29 -15 c35 -18 40 -19 40 -2 l0 12 -29 17 -30
16 -5 -14z"/>
<path d="M72070 77070 l0 -10 245 0 245 0 0 10 0 10 -245 0 -245 0 0 -10z"/>
<path d="M74838 76960 l-86 -80 -16 -47 -16 -47 0 -48 0 -48 15 0 15 0 0 50 0
51 14 32 14 32 85 84 86 85 -5 8 c-9 15 -18 9 -106 -72z"/>
<path d="M74550 76631 c0 -6 5 -13 10 -16 l10 -6 0 15 0 16 -10 0 c-5 0 -10
-4 -10 -9z"/>
<path d="M30256 76529 c-8 -42 -8 -49 3 -49 l9 0 5 33 5 32 -8 8 -7 8 -7 -32z"/>
<path d="M30342 76500 l4 -12 193 -109 c107 -60 199 -109 204 -109 l11 0 -9 9
c-6 6 -95 58 -200 117 -104 58 -194 109 -199 111 l-9 6 5 -13z"/>
<path d="M45030 75906 c0 -8 371 -198 376 -193 5 5 -142 85 -293 161 -72 36
-83 40 -83 32z"/>
<path d="M45075 75059 c-4 -6 -5 -13 -2 -16 7 -7 27 6 27 18 0 12 -17 12 -25
-2z"/>
<path d="M29675 74848 l-30 -28 -65 -1 -65 -1 45 -9 45 -10 31 6 31 5 22 24
c13 14 22 28 20 33 l-4 8 -30 -27z"/>
<path d="M47490 71296 c0 -12 193 -505 214 -546 35 -69 138 -220 175 -254 l31
-30 7 7 6 7 -39 47 c-22 27 -67 91 -101 143 l-62 95 -49 125 c-27 69 -73 189
-102 268 l-53 142 -14 0 c-7 0 -13 -2 -13 -4z"/>
<path d="M30420 70890 l0 -10 41 -20 c22 -12 62 -36 87 -55 45 -32 234 -125
254 -125 l10 0 -4 11 -4 11 -89 42 c-50 23 -117 60 -150 82 -96 66 -145 87
-145 64z"/>
<path d="M28270 70640 l0 -8 38 -7 c20 -4 82 -24 137 -46 l100 -39 60 -40 c32
-21 61 -37 64 -35 5 6 8 4 -64 52 l-60 39 -81 33 c-45 18 -107 38 -138 45
l-56 13 0 -7z"/>
<path d="M29579 70332 c-102 -121 -169 -211 -169 -227 0 -18 23 2 48 43 17 26
80 106 141 177 61 72 111 133 111 138 0 20 -25 -5 -131 -131z"/>
<path d="M29406 70267 l-95 -114 -36 -73 c-36 -76 -42 -100 -26 -100 l9 0 39
82 38 82 92 111 c51 60 93 113 93 118 0 23 -29 -5 -114 -106z"/>
<path d="M74480 70321 c0 -21 81 -455 86 -460 13 -13 8 25 -28 229 l-41 225
-8 10 -9 9 0 -13z"/>
<path d="M87099 69820 c-95 -77 -176 -145 -178 -152 -2 -6 66 45 150 112 186
149 222 180 211 180 -4 0 -87 -63 -183 -140z"/>
<path d="M28320 69420 l0 -10 24 0 c13 0 117 -7 231 -15 190 -14 227 -14 213
0 -4 4 -392 35 -444 35 l-24 0 0 -10z"/>
<path d="M33570 69082 c0 -10 -5 -23 -12 -30 l-12 -12 11 -11 11 -11 11 6 11
7 0 35 0 34 -10 0 -10 0 0 -18z"/>
<path d="M67617 68264 c-175 -183 -201 -214 -178 -214 5 0 93 88 196 195 l188
196 -9 9 -9 9 -188 -195z"/>
<path d="M41301 67718 l-71 -203 0 -28 0 -28 10 6 10 6 0 22 c0 12 31 110 69
217 l70 195 -8 8 -8 8 -72 -203z"/>
<path d="M39762 67895 c10 -10 426 -175 441 -175 11 1 -381 162 -428 176 l-20
6 7 -7z"/>
<path d="M28535 67850 c29 -14 247 -61 253 -55 3 2 -1 7 -9 9 -27 10 -238 56
-251 55 l-13 0 20 -9z"/>
<path d="M28845 67780 l6 -10 22 0 22 0 -15 10 c-8 5 -21 10 -28 10 l-13 0 6
-10z"/>
<path d="M28930 67752 l0 -10 22 -5 c40 -11 40 5 1 17 l-23 7 0 -9z"/>
<path d="M67963 67550 c36 -49 43 -72 83 -255 33 -151 44 -188 44 -153 0 27
-70 330 -84 362 l-13 31 -28 25 -28 25 26 -35z"/>
<path d="M67934 67519 c14 -17 28 -40 31 -52 3 -12 21 -94 41 -182 32 -144 44
-188 44 -158 0 5 -18 92 -39 193 l-40 182 -22 24 c-12 13 -27 24 -32 24 l-9 0
26 -31z"/>
<path d="M3296 67532 l-5 -9 189 -127 190 -126 0 13 0 14 -157 105 c-87 57
-170 112 -185 122 l-26 17 -6 -9z"/>
<path d="M49715 66969 l-36 -74 16 20 c24 29 67 116 61 122 -2 3 -21 -28 -41
-68z"/>
<path d="M42145 67013 c6 -5 57 -29 115 -51 l105 -42 285 -85 c157 -47 289
-84 294 -82 5 2 -116 40 -270 86 l-279 83 -115 45 c-63 25 -122 47 -130 50
l-15 6 10 -10z"/>
<path d="M46686 66961 c5 -6 140 -86 299 -179 160 -93 355 -211 434 -261 79
-51 145 -90 148 -88 7 8 -291 194 -591 369 -159 92 -292 168 -295 168 -3 0 -1
-4 5 -9z"/>
<path d="M55376 66931 l-17 -19 -18 -151 -18 -151 8 0 c10 0 16 34 30 170 l12
115 12 15 c6 8 15 21 19 28 l7 12 -9 0 c-5 0 -17 -9 -26 -19z"/>
<path d="M38452 66914 l-214 -12 -6 -8 -7 -7 100 6 c55 4 157 10 228 13 l127
7 0 8 c0 5 -3 8 -7 8 -5 -1 -104 -8 -221 -15z"/>
<path d="M16800 66909 c47 -4 150 -7 230 -6 l145 0 -130 8 c-71 3 -175 7 -230
6 l-100 0 85 -8z"/>
<path d="M45490 66834 c-75 -103 -240 -363 -240 -378 l0 -10 14 19 c7 11 44
70 81 130 37 61 101 156 142 213 41 57 73 105 70 108 -2 2 -33 -34 -67 -82z"/>
<path d="M55409 66904 l-13 -16 -3 -41 c-2 -23 -8 -78 -13 -122 -11 -88 -12
-121 -5 -114 2 3 11 65 20 139 l16 134 16 18 16 18 -10 0 c-6 0 -16 -7 -24
-16z"/>
<path d="M38465 66874 c-110 -7 -209 -13 -219 -13 l-19 -1 5 -6 6 -5 226 12
226 12 0 9 c0 4 -6 7 -12 7 -7 -1 -103 -8 -213 -15z"/>
<path d="M47765 66738 c-32 -61 -82 -152 -112 -201 -30 -49 -52 -91 -49 -94 6
-6 125 195 181 308 26 50 44 93 42 96 -3 2 -31 -47 -62 -109z"/>
<path d="M47154 66733 c16 -17 431 -271 435 -267 2 2 2 6 0 8 -12 10 -430 266
-436 266 l-6 0 7 -7z"/>
<path d="M77798 66581 l-176 -6 -7 -7 -7 -7 218 6 219 5 30 8 30 8 -65 -1
c-36 0 -145 -3 -242 -6z"/>
<path d="M44245 66293 c6 -5 51 -21 100 -36 50 -14 221 -64 382 -111 268 -79
324 -94 312 -82 -2 3 -176 54 -386 115 -210 61 -390 114 -400 118 l-18 6 10
-10z"/>
<path d="M41590 66266 c0 -3 153 -105 308 -204 12 -8 22 -11 22 -8 0 7 -315
216 -325 216 -3 0 -5 -2 -5 -4z"/>
<path d="M48705 66214 c73 -55 427 -296 430 -292 5 5 -429 308 -442 308 -4 0
1 -7 12 -16z"/>
<path d="M41550 66192 c0 -11 311 -215 317 -208 3 3 -21 22 -53 42 -33 21
-105 68 -161 106 l-103 68 0 -8z"/>
<path d="M60340 66072 l0 -8 213 -27 c216 -28 244 -30 236 -22 -3 2 -92 15
-199 29 -107 14 -207 28 -222 31 l-28 5 0 -8z"/>
<path d="M41910 66008 l-12 -23 18 17 18 18 -6 6 -6 6 -12 -24z"/>
<path d="M83650 65668 c0 -7 6 -33 14 -57 l13 -45 79 -122 c43 -68 82 -123 86
-123 l7 -1 -6 18 c-3 9 -39 67 -80 127 l-73 110 -12 53 -13 52 -7 0 c-5 0 -8
-6 -8 -12z"/>
<path d="M47111 65636 c4 -3 382 -171 459 -203 l35 -15 -10 11 c-12 12 -461
211 -477 211 -6 0 -9 -2 -7 -4z"/>
<path d="M35235 65487 c33 -14 127 -57 209 -96 82 -39 152 -70 156 -69 5 2
-74 42 -173 90 l-182 87 -35 5 -35 6 60 -23z"/>
<path d="M36581 65458 c-1 -3 -23 -125 -51 -270 -27 -144 -50 -269 -50 -277 0
-40 13 17 60 263 l51 269 -5 11 c-2 6 -5 8 -5 4z"/>
<path d="M48866 65438 c-51 -81 -243 -428 -237 -428 6 0 121 196 238 405 25
46 25 63 -1 23z"/>
<path d="M38421 64932 c-17 -141 -34 -267 -37 -279 l-4 -23 8 0 8 0 33 275
c19 151 32 277 29 280 -2 3 -19 -111 -37 -253z"/>
<path d="M38461 64927 c-18 -144 -34 -270 -37 -279 l-5 -18 8 0 9 0 33 275
c19 151 32 277 29 280 -2 3 -19 -113 -37 -258z"/>
<path d="M3617 64898 l-5 -53 9 -9 9 -10 0 62 c0 34 -2 62 -4 62 -2 0 -6 -24
-9 -52z"/>
<path d="M34848 64913 c12 -2 30 -2 40 0 l17 5 -40 -1 -40 0 23 -4z"/>
<path d="M34911 64906 c2 -2 31 -6 64 -10 l60 -6 -20 9 c-19 9 -113 15 -104 7z"/>
<path d="M35041 64898 c-1 -3 -21 -122 -46 -264 -25 -142 -43 -260 -40 -262 6
-6 9 11 55 276 l41 233 -5 12 c-2 7 -5 9 -5 5z"/>
<path d="M36020 64716 c0 -7 461 -159 466 -154 4 5 -443 158 -458 158 -5 0 -8
-2 -8 -4z"/>
<path d="M37060 64572 l0 -21 38 -11 c20 -6 105 -19 187 -30 l150 -19 254 -16
c139 -8 264 -15 277 -15 l24 0 0 20 0 20 -32 0 c-83 0 -525 32 -633 46 -131
16 -228 32 -251 41 l-14 5 0 -20z"/>
<path d="M40690 64527 c0 -4 20 -65 44 -136 25 -71 48 -149 51 -174 l7 -46 12
5 c7 3 111 -7 231 -21 121 -14 224 -25 230 -24 36 3 -70 19 -252 39 l-212 23
-7 41 c-10 61 -104 326 -104 293z"/>
<path d="M45150 64362 c0 -9 470 -176 476 -169 3 3 -14 12 -38 20 -197 69
-388 137 -410 146 l-28 11 0 -8z"/>
<path d="M40650 64150 l0 -10 65 0 65 0 0 10 0 10 -65 0 -65 0 0 -10z"/>
<path d="M92277 64146 l-4 -11 166 -32 166 -32 34 -16 c19 -9 59 -36 91 -60
l56 -43 80 -89 c44 -48 112 -126 151 -173 39 -47 136 -150 216 -229 l144 -143
6 9 6 9 -145 145 c-80 79 -175 180 -212 224 -36 44 -104 122 -151 173 l-84 93
-56 43 c-82 63 -87 65 -282 105 l-179 37 -3 -10z"/>
<path d="M40645 64105 l-40 -25 12 0 c12 0 83 39 83 46 0 9 -17 2 -55 -21z"/>
<path d="M40072 64085 l-12 -25 9 0 c4 0 13 11 19 25 l12 25 -9 0 c-4 0 -13
-11 -19 -25z"/>
<path d="M28100 63957 c-97 -56 -187 -110 -200 -119 l-24 -18 7 -7 7 -7 28 20
c15 11 105 65 200 119 151 87 192 116 165 115 -5 0 -87 -46 -183 -103z"/>
<path d="M78490 64033 c-102 -13 -187 -26 -189 -29 -2 -2 -2 -7 1 -10 l6 -5
216 27 216 28 0 8 0 8 -32 -1 c-18 -1 -116 -12 -218 -26z"/>
<path d="M46000 63878 c-52 -90 -105 -183 -119 -207 l-25 -44 11 6 c6 4 24 31
41 60 16 28 68 118 115 200 47 81 83 147 79 147 -4 0 -50 -73 -102 -162z"/>
<path d="M28164 63931 c-157 -87 -254 -149 -254 -163 0 -13 2 -12 100 50 47
30 136 82 199 117 l113 62 -9 6 -9 6 -140 -78z"/>
<path d="M51070 64001 l0 -8 143 -61 c78 -33 179 -76 225 -96 l82 -35 0 8 0 8
-142 61 c-79 33 -180 76 -225 96 l-83 35 0 -8z"/>
<path d="M41740 63936 l0 -14 31 -7 30 -7 7 6 6 6 -10 9 c-5 5 -21 11 -36 15
l-28 6 0 -14z"/>
<path d="M49390 63907 c0 -3 51 -26 113 -53 61 -26 147 -62 190 -80 42 -18 77
-30 77 -26 0 4 -78 40 -173 79 -195 83 -207 87 -207 80z"/>
<path d="M49637 63563 c-58 -98 -104 -180 -101 -182 6 -6 -1 -16 113 177 57
96 101 176 98 178 -2 3 -52 -75 -110 -173z"/>
<path d="M39232 63665 c3 -3 51 -17 106 -30 l101 -25 117 -45 c65 -24 120 -43
122 -40 3 2 -4 8 -14 11 -10 4 -68 26 -129 49 l-110 42 -91 22 c-96 22 -111
24 -102 16z"/>
<path d="M47240 63602 c0 -4 75 -35 168 -69 92 -33 184 -68 205 -77 20 -9 37
-14 37 -11 0 9 -66 38 -209 90 -80 29 -158 58 -173 64 l-28 11 0 -8z"/>
<path d="M40323 63552 c15 -15 27 -32 26 -38 0 -5 -63 -63 -140 -129 -77 -66
-148 -129 -157 -140 l-17 -19 22 14 c35 24 312 264 312 272 1 11 -50 68 -62
68 l-11 0 27 -28z"/>
<path d="M23602 63314 c-46 -97 -81 -178 -79 -180 2 -2 40 71 86 163 l82 166
-3 13 -3 14 -83 -176z"/>
<path d="M16247 63320 c-47 -39 -114 -86 -148 -106 l-63 -35 -95 -27 -96 -27
24 -3 24 -4 81 23 81 23 60 36 c33 20 99 68 147 107 l88 72 -9 5 -9 6 -85 -70z"/>
<path d="M43199 63384 c-2 -6 -66 -66 -141 -133 -76 -68 -138 -125 -138 -127
0 -11 16 2 112 88 57 50 120 106 141 125 l38 34 -4 12 -4 12 -4 -11z"/>
<path d="M7033 63363 l7 -6 7 6 6 7 -13 0 -13 0 6 -7z"/>
<path d="M6633 63343 l-33 -4 0 -8 0 -8 176 -6 177 -5 21 7 21 8 -20 5 c-11 3
-54 6 -95 7 -41 1 -106 3 -145 5 -38 2 -85 2 -102 -1z"/>
<path d="M31925 63343 l10 -10 293 -32 293 -33 6 6 6 6 -7 0 c-13 0 -530 60
-571 66 l-40 6 10 -9z"/>
<path d="M40941 63291 l-13 -8 72 -109 72 -109 62 -63 c33 -35 73 -70 88 -78
l26 -14 6 15 5 15 -10 0 c-6 0 -38 26 -71 58 l-61 57 -81 122 -82 122 -13 -8z"/>
<path d="M43916 63170 l4 -104 11 -6 10 -7 -83 -18 c-46 -9 -96 -24 -113 -33
-38 -19 -485 -401 -485 -415 l0 -9 18 13 c9 8 112 96 229 197 l212 182 45 20
c25 10 73 24 108 31 35 6 67 15 71 19 l8 7 -10 24 c-6 13 -15 65 -20 114 l-10
90 5 -105z"/>
<path d="M40040 63203 c0 -24 83 -197 140 -293 72 -120 69 -115 74 -109 3 2
-25 54 -61 114 -36 61 -83 151 -105 200 -41 92 -48 106 -48 88z"/>
<path d="M2920 63111 c0 -10 303 -283 321 -289 l9 -4 0 10 c0 9 -287 267 -317
285 l-13 8 0 -10z"/>
<path d="M13628 63083 l-58 -4 0 -11 0 -10 31 6 c17 3 49 6 70 6 l39 0 0 10 0
10 -12 -2 c-7 -1 -39 -3 -70 -5z"/>
<path d="M43971 63022 c-1 -21 29 -215 40 -257 l11 -40 25 -37 c14 -21 30 -38
35 -38 l10 0 -30 38 -29 37 -16 75 c-9 41 -19 102 -23 135 -4 33 -10 69 -15
80 l-8 20 0 -13z"/>
<path d="M35130 62960 l0 -7 103 -12 c56 -7 144 -21 196 -32 52 -11 96 -17 98
-15 9 9 -145 40 -294 59 l-103 13 0 -6z"/>
<path d="M58665 62927 c-53 -29 -252 -162 -405 -271 l-55 -39 19 7 c10 3 103
65 207 136 l188 130 65 32 64 31 334 -27 c183 -14 351 -29 373 -32 l40 -6 -10
9 -10 10 -335 27 c-184 14 -353 26 -375 26 l-40 0 -60 -33z"/>
<path d="M35136 62909 c-8 -51 -46 -388 -46 -412 0 -11 2 -18 5 -15 7 6 56
450 51 456 -3 2 -7 -11 -10 -29z"/>
<path d="M16670 62793 l0 -98 51 -98 50 -97 80 -65 81 -65 9 6 9 5 -79 64 -79
64 -51 100 -51 99 0 91 0 91 -10 0 -10 0 0 -97z"/>
<path d="M43433 62695 l-153 -134 8 -5 7 -4 150 130 c83 71 154 134 160 139
l9 9 -14 -1 -15 0 -152 -134z"/>
<path d="M10227 62744 c-3 -11 -31 -113 -63 -229 -31 -115 -59 -217 -62 -225
l-5 -15 11 10 10 10 61 224 c33 123 62 226 65 228 3 3 105 -2 228 -12 l223
-16 188 7 188 7 3 6 4 6 -281 0 -282 0 -141 9 -142 8 -5 -18z"/>
<path d="M41340 62756 c0 -2 7 -9 15 -16 l15 -12 0 16 0 16 -15 0 c-8 0 -15
-2 -15 -4z"/>
<path d="M11095 62720 l-18 -20 -246 0 -246 0 -157 12 c-87 6 -160 9 -162 7
-9 -8 -127 -441 -122 -446 5 -5 3 -14 71 231 30 110 57 201 59 203 2 2 93 -3
202 -12 l199 -16 204 7 203 7 27 23 26 23 -11 1 c-6 0 -19 -9 -29 -20z"/>
<path d="M41076 62721 l-5 -8 23 -22 24 -23 7 12 7 11 -18 20 c-19 21 -30 24
-38 10z"/>
<path d="M42932 62515 c-122 -105 -230 -200 -240 -210 l-17 -18 15 9 c14 7
410 344 454 385 11 10 18 20 15 22 -2 2 -104 -82 -227 -188z"/>
<path d="M22690 62462 c0 -4 94 -34 208 -66 114 -33 214 -61 222 -64 l15 -5
-10 10 c-5 5 -84 31 -175 57 -91 25 -186 53 -212 61 l-48 14 0 -7z"/>
<path d="M48400 62315 c-35 -58 -61 -108 -58 -110 2 -2 31 41 63 95 l60 100
15 0 c8 0 51 -23 95 -50 44 -26 82 -47 84 -44 6 5 9 3 -90 62 -48 29 -91 52
-97 52 l-10 0 -62 -105z"/>
<path d="M89015 62351 c17 -16 97 -86 179 -155 l149 -125 9 5 c5 3 8 7 6 9
-120 105 -352 295 -361 295 l-12 0 30 -29z"/>
<path d="M36736 62342 c17 -15 65 -67 106 -117 42 -49 97 -110 122 -135 l46
-44 0 10 c0 5 -18 28 -41 49 -23 22 -75 81 -117 130 -79 94 -120 134 -137 134
l-10 0 31 -27z"/>
<path d="M40733 62300 l-22 -50 8 -4 7 -5 27 55 27 54 -13 0 -12 0 -22 -50z"/>
<path d="M44122 62103 c-128 -113 -231 -208 -228 -210 4 -4 362 306 461 399
l19 18 -9 0 c-6 0 -115 -93 -243 -207z"/>
<path d="M65020 62240 l0 -10 230 0 230 0 0 10 0 10 -230 0 -230 0 0 -10z"/>
<path d="M57675 62144 c-53 -42 -94 -78 -91 -81 2 -2 50 32 106 76 56 45 98
81 92 81 -6 0 -54 -34 -107 -76z"/>
<path d="M40636 62068 c14 -46 32 -93 40 -106 9 -13 49 -109 90 -215 42 -106
78 -194 80 -196 2 -2 7 -2 10 2 l6 6 -72 183 c-39 101 -81 201 -92 223 -12 22
-30 71 -42 109 l-21 69 -12 4 -12 4 25 -83z"/>
<path d="M56736 62112 c5 -5 133 -62 284 -127 151 -65 280 -120 285 -123 l10
-5 -10 11 c-10 11 -557 252 -572 252 l-7 0 10 -8z"/>
<path d="M94255 61863 c-49 -60 -110 -129 -134 -156 l-44 -47 6 -7 7 -6 16 14
c25 20 254 293 254 302 0 20 -22 -2 -105 -100z"/>
<path d="M40115 61834 c-27 -25 -74 -58 -103 -75 l-53 -30 -97 -25 c-53 -14
-101 -30 -107 -36 l-10 -10 23 7 c13 4 64 18 113 31 l88 23 53 31 c55 31 171
129 153 129 -5 0 -32 -20 -60 -45z"/>
<path d="M43661 61664 c-127 -113 -231 -208 -231 -210 0 -11 25 10 245 206
130 116 232 210 226 210 -5 0 -113 -93 -240 -206z"/>
<path d="M58447 61838 c-28 -66 -150 -343 -153 -346 -1 -2 -107 42 -235 97
-127 56 -234 99 -237 97 -2 -3 11 -11 29 -19 209 -89 435 -191 437 -198 l3 -8
15 6 14 5 -6 10 -6 9 78 177 c42 97 82 180 88 184 l11 8 102 0 101 0 83 -35
c45 -20 87 -34 92 -32 l10 3 -89 37 -89 37 -117 0 -118 0 -13 -32z"/>
<path d="M59867 61765 l-77 -92 -76 -119 -77 -119 -19 -65 c-10 -36 -32 -130
-48 -209 l-30 -144 0 -46 1 -46 101 -48 c56 -26 103 -45 106 -42 3 3 -41 26
-97 52 l-102 47 7 60 c9 82 49 284 74 366 l20 67 90 139 89 139 58 62 58 63
94 -41 c51 -22 95 -38 97 -36 3 2 -35 21 -83 42 -48 20 -93 43 -98 50 l-11 13
-77 -93z"/>
<path d="M43705 61649 l-220 -198 -12 0 c-7 -1 -13 -5 -13 -10 0 -20 355 -349
366 -339 3 3 -37 42 -88 86 -51 44 -128 116 -172 160 l-78 80 3 9 c3 8 287
263 411 370 l38 32 -8 4 -7 4 -220 -198z"/>
<path d="M21295 61801 l-70 -17 -30 -19 c-16 -10 -47 -34 -67 -53 l-37 -35
-73 7 -73 7 15 -11 15 -10 67 0 67 0 35 34 c43 43 95 70 169 86 l57 13 0 9 c0
4 -1 8 -2 7 -2 0 -34 -8 -73 -18z"/>
<path d="M57813 61643 c12 -12 480 -213 485 -208 3 2 -15 13 -39 24 -24 10
-133 57 -242 105 -109 47 -201 86 -204 86 l-6 0 6 -7z"/>
<path d="M45860 61484 c0 -5 14 -118 32 -251 l32 -243 7 0 6 0 -3 23 c-2 12
-18 123 -34 246 -17 124 -32 227 -35 229 -3 3 -5 1 -5 -4z"/>
<path d="M60683 61456 c-18 -6 -33 -14 -33 -18 l0 -8 23 0 22 1 18 13 18 14
-8 4 c-4 2 -23 -1 -40 -6z"/>
<path d="M60522 61410 l-83 -48 9 -6 9 -5 49 26 c63 33 124 72 124 78 0 13
-32 0 -108 -45z"/>
<path d="M60325 61329 c-100 -101 -379 -357 -480 -440 -68 -56 -88 -79 -67
-79 36 0 642 560 642 594 0 17 -22 -1 -95 -75z"/>
<path d="M54550 61372 c0 -17 210 -925 215 -931 3 -2 5 1 5 7 0 20 -208 924
-214 930 l-6 5 0 -11z"/>
<path d="M57690 61318 l-125 -31 -37 10 -38 10 0 -7 c0 -10 37 -20 72 -20 28
0 278 57 287 65 10 10 -39 2 -159 -27z"/>
<path d="M57870 61335 c0 -6 245 -400 268 -430 l14 -20 -6 19 c-8 23 -265 436
-272 436 -2 0 -4 -2 -4 -5z"/>
<path d="M57840 61308 c0 -11 272 -429 277 -425 2 3 -53 94 -123 203 -119 187
-154 237 -154 222z"/>
<path d="M96025 61157 c45 -31 397 -219 401 -214 5 5 -398 227 -412 227 -5 0
0 -6 11 -13z"/>
<path d="M42847 60929 l-17 -10 5 -10 c10 -15 23 -10 35 11 l11 20 -8 0 c-4 0
-16 -5 -26 -11z"/>
<path d="M46281 60758 c-71 -79 -150 -160 -175 -181 -25 -21 -46 -43 -46 -48
l0 -11 61 56 c56 50 299 312 299 322 0 12 -19 -8 -139 -138z"/>
<path d="M54628 60884 l-5 -9 53 -230 c29 -126 53 -221 53 -210 1 11 -21 119
-47 239 l-49 219 -5 -9z"/>
<path d="M48820 60670 l-15 -10 12 0 c6 0 15 5 18 10 8 12 4 12 -15 0z"/>
<path d="M55187 60519 c-98 -61 -176 -113 -173 -116 2 -3 87 47 187 111 101
64 179 116 174 116 -6 0 -90 -50 -188 -111z"/>
<path d="M61354 60603 c3 -10 28 -128 56 -261 l50 -244 -6 -10 -6 -10 -8 13
-8 12 -15 -15 -15 -15 -186 -37 -186 -37 -9 5 -9 6 -5 -14 -5 -14 7 -8 c5 -5
25 -93 47 -196 l38 -188 7 0 7 0 -4 18 c-22 95 -74 347 -74 361 l0 18 199 40
199 40 72 -364 c40 -200 71 -365 68 -368 -2 -2 -94 -23 -204 -46 l-199 -41
-10 -10 -10 -10 20 5 c11 3 107 24 213 47 l193 40 9 -5 8 -5 4 8 3 8 207 43
207 43 16 -6 15 -5 0 10 0 11 20 -5 19 -5 3 8 3 8 215 46 c118 25 304 62 413
83 l197 37 0 8 0 7 -12 -4 c-7 -2 -101 -20 -208 -41 -107 -20 -287 -56 -400
-80 l-205 -43 -6 7 c-9 11 -152 712 -146 718 3 3 180 41 394 85 446 91 437 88
431 95 -3 2 -182 -32 -398 -76 -216 -44 -406 -82 -424 -85 -17 -3 -125 -25
-241 -50 -115 -24 -213 -44 -216 -45 -3 0 -30 119 -60 265 l-54 265 -8 0 -8 0
5 -17z m634 -795 c40 -194 73 -359 72 -365 0 -7 -4 -13 -10 -13 l-9 0 -10 38
c-5 20 -22 98 -37 172 l-27 135 -10 10 -9 10 5 -20 c3 -11 20 -91 38 -178 l32
-158 -9 -8 c-11 -9 -422 -97 -427 -90 -2 2 -34 157 -71 344 -37 187 -70 350
-73 363 l-5 22 15 0 14 0 23 -112 c33 -171 52 -249 57 -244 3 2 -12 84 -32
181 -20 97 -35 178 -33 181 7 6 378 82 408 83 l26 1 72 -352z"/>
<path d="M53444 60595 c8 -29 10 -337 3 -420 l-7 -70 11 30 11 30 1 213 0 213
-12 12 -13 12 6 -20z"/>
<path d="M55513 60459 l5 -15 -49 -205 c-46 -190 -55 -239 -45 -228 2 2 28
102 56 222 l52 219 -12 11 -13 12 6 -16z"/>
<path d="M57321 60448 c27 -50 212 -208 244 -208 17 0 -6 22 -82 79 l-83 62
-36 45 c-20 24 -41 44 -46 44 l-9 0 12 -22z"/>
<path d="M62308 60302 c-230 -47 -418 -88 -418 -92 l0 -6 413 83 c226 46 421
87 432 92 l20 10 -15 -1 c-8 0 -203 -39 -432 -86z"/>
<path d="M58365 60288 l35 -73 30 -34 30 -34 54 6 55 5 18 12 18 11 -25 -5
c-14 -3 -44 -8 -67 -12 l-42 -6 -35 38 -35 38 -26 63 -27 63 -9 0 -8 0 34 -72z"/>
<path d="M28783 60268 l-9 -13 -32 -214 c-29 -196 -32 -234 -17 -219 6 5 74
451 70 456 -1 1 -6 -3 -12 -10z"/>
<path d="M39791 60216 l47 -13 151 -92 c84 -50 154 -91 157 -91 18 0 -24 28
-160 110 l-155 92 -43 4 -43 4 46 -14z"/>
<path d="M46330 60157 c0 -12 422 -518 427 -513 3 2 -84 112 -192 243 -210
253 -235 282 -235 270z"/>
<path d="M59405 59834 c-170 -129 -329 -246 -352 -260 -24 -14 -43 -30 -43
-35 l0 -9 28 17 c32 20 660 490 682 509 l14 14 -9 0 c-6 -1 -149 -107 -320
-236z"/>
<path d="M83370 59965 c0 -14 50 -101 128 -225 126 -199 299 -507 522 -930
l198 -375 13 -43 c6 -23 16 -42 20 -42 l8 0 -19 54 -18 54 -172 329 c-205 390
-408 752 -537 956 -51 81 -102 165 -113 187 -18 36 -30 49 -30 35z"/>
<path d="M58850 59931 c0 -18 153 -361 162 -361 6 0 -17 55 -121 285 -22 50
-41 84 -41 76z"/>
<path d="M58810 59913 c0 -6 38 -93 84 -194 46 -101 116 -263 156 -359 l72
-175 13 -10 13 -11 51 -174 c61 -206 60 -204 66 -199 2 3 -21 90 -51 194 l-56
189 -12 11 c-7 5 -37 69 -66 140 -51 124 -257 585 -266 594 -2 2 -4 0 -4 -6z"/>
<path d="M43980 59839 c0 -10 226 -288 302 -370 24 -26 65 -67 92 -90 l50 -44
-210 257 -209 257 -12 0 -13 1 0 -11z"/>
<path d="M63661 59825 c-1 -11 19 -110 44 -220 46 -200 177 -836 385 -1870 61
-302 156 -760 211 -1016 54 -256 99 -469 99 -474 l0 -7 14 5 14 5 21 -14 21
-15 0 -33 0 -33 -18 -16 -19 -17 -29 0 -30 0 -10 10 -10 10 -262 -52 c-144
-29 -262 -55 -262 -59 0 -3 116 17 258 46 l259 51 20 -13 20 -13 31 6 31 6 21
23 22 24 -9 38 -9 38 -29 15 c-17 8 -31 15 -32 16 -7 1 -189 871 -373 1779
-266 1314 -356 1744 -375 1790 l-3 10 -1 -20z"/>
<path d="M43696 59822 l-8 -13 58 -72 c54 -67 416 -459 462 -500 l20 -18 7 11
7 12 -44 46 c-91 95 -414 449 -454 497 l-40 49 -8 -12z"/>
<path d="M63620 59822 c0 -6 70 -347 155 -759 86 -411 190 -912 231 -1112 68
-330 84 -403 84 -360 -1 28 -458 2230 -465 2237 -3 3 -5 0 -5 -6z"/>
<path d="M40560 59815 c0 -3 74 -54 165 -115 91 -61 165 -106 165 -102 0 8
-313 222 -325 222 -3 0 -5 -2 -5 -5z"/>
<path d="M28740 59802 l0 -8 153 -13 c83 -7 168 -15 187 -18 l35 -5 -10 10
-10 10 -160 11 c-88 7 -168 15 -177 17 l-18 5 0 -9z"/>
<path d="M45388 59453 c166 -174 202 -210 202 -199 0 11 -333 356 -344 356 -4
0 59 -71 142 -157z"/>
<path d="M60848 59521 l-227 -46 -8 -9 -8 -9 15 5 c8 3 117 25 242 49 l228 44
0 8 c0 9 24 13 -242 -42z"/>
<path d="M62675 59519 c-132 -27 -415 -85 -628 -129 -214 -44 -394 -80 -400
-79 -7 1 -23 -2 -37 -8 -14 -6 -121 -30 -237 -54 l-213 -44 0 -6 0 -7 18 4
c100 23 446 93 449 91 2 -2 18 -84 36 -181 l33 -177 5 6 6 5 -33 173 -32 172
6 6 c7 6 661 143 1052 220 118 23 217 44 219 46 15 12 -30 5 -244 -38z"/>
<path d="M83612 59478 c22 -40 69 -122 103 -183 136 -240 459 -858 475 -907 6
-21 15 -40 20 -43 l9 -6 -20 58 -19 57 -161 306 c-179 340 -430 790 -441 790
-4 0 11 -33 34 -72z"/>
<path d="M55326 59509 c-18 -54 -116 -453 -113 -462 2 -6 31 97 65 228 34 132
59 241 57 243 -3 3 -7 -1 -9 -9z"/>
<path d="M60113 59416 l-463 -92 -7 -9 -8 -8 25 6 c14 3 223 44 465 92 242 47
449 90 460 95 l20 9 -15 -1 c-8 0 -223 -41 -477 -92z"/>
<path d="M49431 59274 c-90 -118 -161 -218 -158 -220 2 -2 77 93 167 211 90
118 161 217 158 220 -2 3 -78 -92 -167 -211z"/>
<path d="M49462 59248 c-89 -117 -159 -214 -156 -217 2 -2 5 -2 7 0 104 132
318 422 314 425 -3 3 -77 -91 -165 -208z"/>
<path d="M46982 59410 l-12 -20 0 -27 0 -27 9 10 c8 9 25 84 19 84 -2 0 -9 -9
-16 -20z"/>
<path d="M42175 59204 c-44 -20 -119 -48 -166 -64 l-87 -29 -18 4 c-11 2 -34
6 -51 9 l-33 6 0 -9 0 -8 56 -7 56 -6 41 11 c48 12 277 107 292 120 l9 9 -9
-1 c-6 0 -46 -16 -90 -35z"/>
<path d="M45625 59149 l70 -70 115 -82 c63 -46 121 -87 129 -91 l14 -9 -6 10
c-4 6 -60 49 -124 96 l-118 85 -65 66 c-35 36 -69 66 -74 66 l-10 0 69 -71z"/>
<path d="M47000 59071 c0 -32 -160 -207 -249 -272 l-42 -32 9 -9 10 -10 49 33
c26 18 78 64 115 101 l67 67 36 56 36 55 -6 10 c-8 12 -25 13 -25 1z"/>
<path d="M62160 59028 c0 -9 26 -150 59 -314 32 -165 64 -333 71 -374 l13 -75
10 -10 10 -10 -6 25 c-3 14 -20 102 -36 195 -67 368 -105 560 -113 570 l-8 9
0 -16z"/>
<path d="M53299 58987 l-5 -38 136 -317 c296 -686 403 -927 408 -914 1 5 -14
45 -34 88 -20 44 -137 313 -261 599 l-225 520 -7 50 -7 50 -5 -38z"/>
<path d="M61661 58910 c0 -32 67 -342 68 -313 1 20 -54 303 -64 328 -2 6 -4
-1 -4 -15z"/>
<path d="M63184 58818 c10 -74 172 -858 180 -865 3 -4 8 -4 10 -2 3 2 -33 186
-79 409 -46 223 -87 429 -91 458 l-6 52 -10 0 -10 0 6 -52z"/>
<path d="M50380 58844 c1 -11 310 -247 317 -241 2 3 -62 55 -144 117 -81 62
-154 117 -160 123 l-13 9 0 -8z"/>
<path d="M62700 58770 c-179 -37 -351 -73 -383 -80 -32 -6 -56 -14 -54 -17 5
-4 783 151 812 162 48 18 -105 -8 -375 -65z"/>
<path d="M61250 58822 c0 -10 49 -249 65 -321 4 -13 8 -21 11 -18 3 3 -11 81
-31 173 -33 152 -45 198 -45 166z"/>
<path d="M63171 58443 c42 -208 100 -494 129 -635 l53 -258 9 0 c4 0 8 4 8 8
0 9 -121 610 -202 1004 l-53 258 -10 0 -10 0 76 -377z"/>
<path d="M62873 58767 l-193 -40 0 -9 0 -9 18 5 c9 3 101 21 204 42 l187 37
-5 8 c-3 5 -8 8 -12 8 -4 -1 -94 -20 -199 -42z"/>
<path d="M40651 58590 l-54 -149 -23 -35 -24 -35 9 -6 9 -5 22 30 c12 17 34
65 50 108 16 42 42 114 59 160 l30 82 -12 0 -12 0 -54 -150z"/>
<path d="M61944 58616 c-266 -55 -625 -145 -634 -158 -6 -8 -822 -179 -860
-180 -14 0 -35 -2 -47 -4 l-23 -4 0 -11 0 -11 14 11 14 12 23 -11 24 -11 2
-27 1 -27 -14 -16 -15 -17 -19 5 c-10 3 -26 13 -36 24 l-16 18 5 16 6 15 -9 0
-10 0 0 -21 c0 -11 4 -29 10 -39 l10 -18 31 -7 31 -7 24 23 24 22 0 19 0 18 8
0 c5 0 182 36 394 80 369 76 418 85 418 76 0 -13 152 -732 156 -735 10 -10 0
45 -71 384 l-75 359 10 10 c5 5 11 8 13 5 3 -2 19 -76 36 -164 36 -180 41
-198 47 -192 3 2 -12 84 -32 181 -20 98 -34 180 -31 183 11 11 362 94 602 143
138 28 257 54 265 57 l15 6 -15 4 -16 4 -194 -41 c-197 -41 -666 -156 -685
-168 -5 -4 -14 -7 -20 -7 -5 -1 -17 -4 -25 -8 -14 -6 -788 -167 -803 -167 -4
0 -7 6 -7 13 l0 13 413 87 412 86 225 61 225 61 220 45 c121 24 229 49 240 54
l20 9 -15 -1 c-8 0 -128 -23 -266 -52z"/>
<path d="M51193 58570 l37 -55 0 -31 0 -32 -26 -17 -25 -16 -31 6 -31 7 7 -11
7 -11 30 0 30 0 23 15 24 16 6 35 7 34 -30 43 c-16 24 -37 50 -47 58 l-18 14
37 -55z"/>
<path d="M55045 58450 c-15 -61 -26 -113 -23 -115 2 -2 18 47 34 110 l31 115
-7 0 -8 0 -27 -110z"/>
<path d="M85827 58543 l-6 -9 107 -202 c98 -184 122 -222 122 -191 0 10 -181
355 -206 392 l-12 18 -5 -8z"/>
<path d="M61783 58490 c3 -14 36 -178 73 -365 l68 -340 4 17 3 17 -67 338 -67
338 -10 10 -10 10 6 -25z"/>
<path d="M84488 58387 l-228 -101 0 -13 c0 -17 1 -17 62 12 29 13 134 60 233
104 l180 80 -2 8 c-1 4 -5 8 -10 9 -4 1 -110 -43 -235 -99z"/>
<path d="M55481 58466 c8 -8 412 -116 416 -112 5 5 -62 25 -263 80 -121 33
-164 42 -153 32z"/>
<path d="M17052 58253 c-68 -102 -152 -247 -152 -263 0 -26 19 -4 60 68 51 91
155 248 170 257 l10 6 -5 10 c-13 19 -26 6 -83 -78z"/>
<path d="M56285 58054 l-39 -166 -19 -24 -18 -24 -32 -9 -32 -9 31 -1 30 -1
25 28 26 27 17 75 c9 41 28 119 40 173 l24 97 -7 0 c-3 0 -24 -75 -46 -166z"/>
<path d="M91810 58146 c0 -3 89 -67 198 -143 l197 -137 174 -103 c96 -57 177
-101 179 -98 7 7 17 0 -163 105 l-160 93 -207 143 c-196 136 -218 150 -218
140z"/>
<path d="M62790 57961 c-228 -48 -518 -109 -645 -135 -126 -26 -232 -49 -234
-52 -14 -14 28 -8 234 36 127 27 423 89 659 139 236 50 432 93 434 96 12 11
-53 -1 -448 -84z"/>
<path d="M63027 57970 c-98 -21 -181 -41 -184 -44 l-6 -6 6 0 c11 0 391 80
402 84 34 14 -65 -1 -218 -34z"/>
<path d="M46276 57971 l-6 -9 46 -57 47 -57 74 -131 c41 -73 79 -136 84 -141
l9 -10 0 13 c0 7 -32 70 -71 141 l-72 128 -53 66 -52 67 -6 -10z"/>
<path d="M37880 57776 c0 -7 63 -36 68 -32 2 3 -10 12 -27 20 -31 16 -41 19
-41 12z"/>
<path d="M61805 57712 c-60 -13 -159 -33 -219 -46 l-110 -23 10 -5 9 -5 210
45 c116 24 212 46 214 48 12 11 -14 8 -114 -14z"/>
<path d="M80353 57506 c-143 -80 -197 -115 -189 -123 3 -3 17 4 33 15 41 28
281 162 292 162 5 0 23 -17 40 -37 17 -20 33 -35 35 -32 6 5 -63 89 -72 89 -4
0 -66 -34 -139 -74z"/>
<path d="M37000 57458 l0 -11 -132 -128 c-73 -71 -130 -129 -126 -129 12 0
241 219 261 250 l19 30 -11 0 -11 0 0 -12z"/>
<path d="M54084 57238 c124 -271 161 -348 167 -348 10 0 -184 419 -193 420 -4
0 7 -33 26 -72z"/>
<path d="M35451 57243 c5 -16 719 -616 725 -610 2 2 -145 130 -328 284 -183
154 -348 293 -367 309 l-34 28 4 -11z"/>
<path d="M53032 57245 c13 -13 431 -215 436 -210 8 7 15 3 -203 114 l-199 101
-20 0 c-11 0 -17 -2 -14 -5z"/>
<path d="M61591 57225 c-2 -28 83 -415 90 -415 l6 0 -24 113 c-53 245 -71 321
-72 302z"/>
<path d="M64174 57115 c3 -11 24 -105 46 -210 46 -212 50 -228 56 -222 2 2
-17 100 -42 218 l-46 214 -10 10 -10 10 6 -20z"/>
<path d="M56641 57044 l-31 -25 -11 -39 -12 -38 7 -26 c3 -14 10 -26 14 -26
l7 0 0 51 0 51 38 33 c20 18 37 35 37 39 0 13 -19 5 -49 -20z"/>
<path d="M37558 56997 l-56 -52 -51 -148 c-28 -82 -51 -156 -50 -165 0 -9 25
55 55 143 l55 160 62 58 c34 31 57 57 52 57 -6 0 -35 -24 -67 -53z"/>
<path d="M25553 56943 c10 -15 407 -266 413 -261 2 3 -80 58 -183 123 -104 65
-199 126 -213 134 l-24 16 7 -12z"/>
<path d="M46550 56887 c0 -10 14 -108 30 -219 17 -110 30 -204 30 -209 l0 -9
15 0 15 0 0 10 c0 6 -9 72 -20 148 -23 155 -48 272 -61 287 l-9 9 0 -17z"/>
<path d="M26560 56668 c-68 -117 -124 -216 -127 -220 -2 -4 0 -9 5 -12 l8 -5
125 216 c68 119 126 220 127 224 l4 9 -10 0 -10 0 -122 -212z"/>
<path d="M37958 56835 c-9 -17 -166 -497 -182 -560 -15 -57 -46 -285 -46 -335
0 -53 9 -8 25 125 l17 140 18 70 c10 39 55 178 100 309 44 131 79 244 77 250
l-3 10 -6 -9z"/>
<path d="M50060 56752 l-84 -78 13 -8 13 -8 79 78 c74 74 90 94 72 94 -5 0
-46 -35 -93 -78z"/>
<path d="M79665 56612 l-110 -108 -103 -52 -102 -53 0 -9 c0 -15 2 -14 103 33
l92 44 123 113 122 113 0 14 c0 7 -3 13 -7 13 -5 -1 -58 -49 -118 -108z"/>
<path d="M49080 56538 c199 -96 230 -110 230 -102 0 7 -390 194 -404 193 -6 0
72 -41 174 -91z"/>
<path d="M79460 56590 c-31 -25 -74 -45 -166 -75 l-70 -23 -86 -7 -87 -7 -4
-12 -5 -13 46 8 c26 4 65 8 88 8 l41 1 94 31 94 31 47 31 c27 18 48 35 48 40
0 12 -14 8 -40 -13z"/>
<path d="M35970 56413 c-341 -326 -369 -353 -361 -353 5 0 110 95 232 211 285
268 346 329 334 329 -6 -1 -98 -85 -205 -187z"/>
<path d="M54575 56513 c14 -14 206 -61 300 -73 113 -15 315 -49 348 -58 l27
-7 96 -75 c86 -67 264 -213 375 -309 22 -19 41 -32 43 -30 5 6 -151 143 -337
295 l-158 129 -37 13 -37 13 -195 25 -195 25 -100 25 c-55 14 -109 27 -120 31
l-20 5 10 -9z"/>
<path d="M56021 56458 c-5 -13 -28 -84 -51 -158 l-42 -135 -35 -60 c-19 -33
-54 -82 -76 -110 -85 -103 -382 -431 -419 -464 l-39 -33 -62 -6 c-81 -7 -143
-4 -190 9 l-39 10 -6 -5 c-9 -10 1 -15 57 -29 l54 -14 -16 -6 -16 -6 -16 -31
-16 -31 4 -17 4 -17 13 30 c14 30 65 86 73 79 2 -2 26 0 54 5 l50 10 29 -8 29
-7 27 -40 27 -39 6 -50 7 -50 -11 -28 c-6 -16 -27 -48 -47 -72 l-35 -43 9 -6
10 -6 33 45 c19 24 36 45 39 45 3 0 17 -21 32 -48 l28 -47 105 -114 c58 -63
105 -118 105 -123 0 -4 5 -8 10 -8 l10 0 0 13 0 13 -113 124 c-62 69 -123 143
-136 165 l-24 40 -2 71 -2 71 -32 57 c-18 31 -32 58 -30 60 48 32 270 271 435
468 l72 87 36 73 35 73 45 143 44 142 -9 0 c-5 0 -13 -10 -18 -22z"/>
<path d="M26367 56440 c-8 -14 -63 -106 -121 -205 l-105 -179 6 -9 c7 -11 -2
-25 128 197 l116 199 -4 11 -4 11 -16 -25z"/>
<path d="M49291 56396 c2 -2 76 -38 164 -79 l160 -75 50 -6 50 -6 -20 9 c-11
5 -31 10 -45 10 l-25 1 -158 75 c-134 63 -195 88 -176 71z"/>
<path d="M61730 56364 c0 -5 16 -99 36 -209 l37 -200 9 -10 9 -10 -5 25 c-3
14 -22 110 -41 214 -30 162 -45 226 -45 190z"/>
<path d="M56233 56297 c-45 -61 -90 -114 -266 -311 l-159 -176 4 -11 4 -11
119 133 c189 210 277 313 313 362 l32 46 -8 5 -9 5 -30 -42z"/>
<path d="M64340 56226 l-25 -23 -247 -49 c-137 -27 -248 -51 -248 -55 0 -3
117 17 260 46 l259 51 21 27 21 27 -8 0 c-5 0 -20 -11 -33 -24z"/>
<path d="M48015 56217 c11 -8 83 -46 160 -87 77 -40 168 -88 203 -107 l62 -35
0 9 c0 8 -420 233 -436 233 -5 0 0 -6 11 -13z"/>
<path d="M55535 56032 c82 -84 154 -152 160 -152 12 0 -171 185 -250 252 l-60
51 150 -151z"/>
<path d="M57625 55840 c185 -165 338 -300 340 -300 3 0 5 2 5 5 0 8 -662 595
-671 595 -5 0 142 -135 326 -300z"/>
<path d="M63730 56132 c0 -4 10 -12 22 -17 l23 -10 14 -26 14 -25 -14 -30 -14
-29 -32 -10 -33 -9 0 -9 0 -8 -16 15 c-8 9 -20 16 -26 16 l-10 0 9 -12 c15
-20 28 -78 104 -463 74 -378 187 -916 194 -923 2 -2 8 -2 13 -1 l8 4 -53 245
c-29 135 -88 427 -132 650 -44 223 -82 417 -86 433 l-7 27 16 0 c10 0 30 7 46
15 l29 15 12 40 12 39 -13 31 -13 32 -24 9 c-30 11 -43 11 -43 1z"/>
<path d="M57271 56104 c0 -11 314 -287 331 -293 l13 -3 -15 14 c-16 16 -283
252 -312 276 l-18 15 1 -9z"/>
<path d="M49820 56077 l0 -23 -27 -26 c-16 -15 -80 -57 -143 -94 -135 -79
-123 -70 -116 -82 l6 -10 130 75 130 75 20 25 20 26 0 28 0 29 -10 0 -10 0 0
-23z"/>
<path d="M63061 55966 l-575 -122 -3 -11 -4 -11 38 8 c21 5 277 59 568 120
583 122 565 117 565 131 0 11 81 27 -589 -115z"/>
<path d="M63635 56037 l-8 -18 12 -12 c15 -15 19 -7 11 23 l-7 25 -8 -18z"/>
<path d="M50510 55994 c0 -5 17 -26 38 -46 l37 -36 60 -30 c33 -16 130 -52
215 -80 l155 -51 162 -8 162 -8 -8 -14 -9 -13 -163 10 -164 10 -50 16 -49 16
9 -9 c6 -5 33 -16 60 -24 l50 -16 143 -7 142 -7 0 -6 c0 -3 -77 -93 -170 -199
-94 -107 -170 -197 -170 -200 0 -10 36 29 206 221 l160 182 17 -3 17 -3 0 11
0 10 -12 0 -12 0 12 12 c7 7 12 15 12 19 l0 6 -162 7 -163 7 -160 51 -160 50
-60 30 -60 30 -42 41 -43 41 0 -10z"/>
<path d="M49967 55914 l-7 -7 38 -28 c41 -32 52 -35 52 -16 l0 12 -33 23 c-36
24 -40 25 -50 16z"/>
<path d="M35915 55860 c6 -10 64 -24 71 -17 3 2 -13 9 -36 15 l-40 10 5 -8z"/>
<path d="M62780 55810 c-124 -26 -364 -76 -534 -110 l-308 -64 -11 -23 -10
-23 -16 0 -15 0 10 -10 11 -11 16 7 16 6 6 18 6 19 47 9 c26 6 273 57 550 113
l502 103 0 8 0 8 -22 -1 c-13 -1 -124 -23 -248 -49z"/>
<path d="M46943 55712 l-12 -7 34 -110 c43 -143 73 -212 212 -497 l116 -237
19 10 18 10 -98 197 c-115 229 -201 431 -237 555 -26 87 -30 93 -52 79z"/>
<path d="M25815 55567 c-48 -74 -132 -190 -197 -274 l-9 -11 9 -6 8 -5 66 87
c36 48 98 135 137 195 l71 107 -12 0 -13 0 -60 -93z"/>
<path d="M61910 55549 c0 -8 14 -102 31 -209 l32 -195 9 -10 9 -10 -5 25 c-3
14 -19 110 -36 214 -27 170 -40 227 -40 185z"/>
<path d="M61873 55515 c4 -22 19 -118 34 -212 l28 -173 7 0 8 0 -5 23 c-3 12
-19 105 -35 206 -16 101 -33 187 -36 190 l-7 6 6 -40z"/>
<path d="M37186 55420 c-4 -30 -12 -71 -17 -91 l-9 -36 -22 -28 c-11 -15 -61
-60 -110 -101 -49 -41 -84 -74 -79 -74 16 0 186 145 209 178 l21 29 11 72 c7
39 10 79 8 88 l-4 18 -8 -55z"/>
<path d="M89572 55378 c-27 -51 -77 -146 -111 -210 l-62 -116 9 -6 8 -5 110
207 c60 113 111 210 112 214 l4 8 -10 0 -10 0 -50 -92z"/>
<path d="M35273 55309 c-81 -77 -150 -145 -152 -151 l-3 -10 11 3 c15 5 309
281 310 292 3 21 -31 -6 -166 -134z"/>
<path d="M74003 55332 l-102 -97 -37 -73 c-48 -96 -38 -104 14 -10 l40 73 43
46 c24 25 70 68 102 96 l59 51 -9 5 -9 6 -101 -97z"/>
<path d="M49366 55412 c-2 -4 -212 -109 -465 -232 -254 -124 -461 -228 -461
-232 0 -4 129 56 288 134 158 77 369 180 468 228 100 48 184 93 188 99 l7 11
-10 0 c-5 0 -12 -4 -15 -8z"/>
<path d="M36130 55317 c60 -60 322 -287 331 -287 11 0 -327 303 -345 309 -6 2
0 -8 14 -22z"/>
<path d="M2595 55309 l-6 -9 33 -14 c18 -8 113 -48 212 -90 184 -78 196 -82
196 -67 l0 9 -112 47 c-62 26 -159 67 -215 91 l-102 43 -6 -10z"/>
<path d="M46976 55282 l-5 -8 97 -207 c53 -114 98 -207 101 -207 4 0 12 4 19
8 l13 9 -97 206 -97 207 -13 0 c-7 0 -15 -4 -18 -8z"/>
<path d="M50958 55233 c-31 -33 -48 -73 -47 -111 l1 -27 13 46 12 47 28 36
c33 43 29 47 -7 9z"/>
<path d="M53180 55232 c0 -15 11 -85 24 -155 l25 -127 -32 -51 c-25 -41 -252
-385 -262 -397 -1 -2 -66 40 -144 93 -77 53 -141 93 -141 88 0 -4 63 -50 139
-102 l139 -94 -56 -86 c-173 -268 -395 -599 -459 -683 -40 -53 -73 -100 -73
-104 0 -29 135 146 240 311 153 240 353 545 359 549 3 1 20 -7 38 -19 l31 -22
-230 -348 c-223 -338 -281 -437 -308 -520 l-13 -39 -26 52 c-14 29 -29 52 -33
52 l-8 0 30 -60 c16 -33 30 -62 30 -64 0 -3 -12 -12 -27 -20 l-28 -15 13 -1
c7 0 21 4 31 9 l17 10 33 -66 32 -66 -12 -7 -12 -8 17 -3 17 -4 124 -265 c69
-146 123 -269 122 -275 l-3 -10 23 -24 c24 -25 30 -22 13 8 l-9 19 82 37 c45
20 219 109 387 197 168 89 328 169 355 178 28 10 200 91 383 180 l334 162 19
-5 19 -5 -7 10 -6 11 16 12 16 11 -142 99 c-78 54 -271 186 -429 292 -159 107
-288 197 -288 201 0 4 45 71 100 150 l99 142 -9 0 c-8 0 -56 -68 -201 -282
l-6 -9 -144 92 c-200 128 -319 208 -319 216 0 4 59 96 131 206 l132 199 -17
35 c-22 46 -56 190 -66 278 l-7 70 -2 -58 -1 -58 25 -112 25 -111 10 -10 c6
-6 10 -17 10 -25 l0 -14 -126 -194 -126 -193 -10 0 c-5 0 -20 7 -33 16 l-25
16 0 -11 c0 -6 3 -11 8 -11 4 0 15 -7 26 -15 l18 -14 -7 -10 -6 -11 -32 16
c-18 9 -33 18 -35 19 -2 2 46 78 107 168 61 91 128 195 150 231 l41 66 -25
121 c-14 67 -25 137 -25 155 l0 34 -10 0 -10 0 0 -28z m-66 -815 c33 -24 131
-88 216 -141 85 -54 162 -105 170 -114 9 -10 21 -18 28 -19 14 -3 599 -392
745 -496 l99 -69 -10 -10 -10 -10 -297 202 c-163 111 -299 200 -301 197 -3 -3
126 -94 286 -202 l292 -197 -9 -8 c-14 -14 -630 -309 -698 -335 -35 -13 -205
-98 -377 -188 -293 -154 -448 -231 -454 -225 -8 10 -256 549 -253 552 2 2 69
38 149 81 183 98 232 126 227 131 -2 2 -86 -41 -188 -96 -101 -55 -188 -100
-194 -100 l-10 1 -28 63 -29 64 17 59 17 58 35 65 c20 36 135 217 257 402
l221 338 15 -3 c8 -2 120 -72 249 -156 128 -84 235 -150 237 -148 3 2 -105 76
-238 163 -134 87 -245 159 -247 160 -4 4 9 24 16 24 3 0 33 -20 67 -43z"/>
<path d="M26578 55200 l-17 -30 19 10 20 11 0 19 c0 26 -2 25 -22 -10z"/>
<path d="M49080 54940 c66 -132 123 -240 126 -240 3 0 3 3 1 8 -2 4 -55 112
-117 240 l-113 232 -9 0 -8 0 120 -240z"/>
<path d="M55220 55140 c0 -5 8 -14 19 -19 l18 -10 7 6 6 6 -18 13 c-20 16 -32
17 -32 4z"/>
<path d="M55312 55121 c2 -5 63 -61 136 -124 l133 -115 32 -42 31 -43 4 11 3
11 -24 36 -24 36 -139 119 c-77 66 -143 120 -147 120 l-9 0 4 -9z"/>
<path d="M55041 54364 c-128 -399 -231 -727 -228 -730 3 -3 10 10 15 28 18 56
432 1340 447 1386 l14 42 -7 0 c-4 0 -112 -327 -241 -726z"/>
<path d="M51910 55031 l0 -11 149 0 149 0 48 -35 c27 -19 69 -47 94 -62 25
-14 165 -107 312 -205 147 -98 272 -178 279 -178 13 0 -390 276 -512 350 -42
26 -105 67 -140 92 l-64 45 -157 7 -158 8 0 -11z"/>
<path d="M53674 55012 c3 -5 133 -78 288 -162 156 -84 300 -166 321 -182 21
-17 41 -28 43 -25 11 11 -71 61 -321 197 -143 78 -277 151 -299 162 l-38 19 6
-9z"/>
<path d="M51150 54993 l-35 -4 -10 -11 -10 -11 20 8 20 8 185 7 185 7 -160 0
c-88 0 -176 -2 -195 -4z"/>
<path d="M3482 54970 l4 -14 213 -74 213 -74 9 9 10 10 -213 73 c-117 40 -219
75 -227 78 l-14 5 5 -13z"/>
<path d="M47533 54897 l-123 -62 0 -12 0 -13 130 65 130 65 0 10 c0 16 -7 13
-137 -53z"/>
<path d="M52141 54769 l-124 -190 -153 -200 c-85 -110 -154 -202 -154 -205 0
-3 5 -4 12 -2 l11 4 25 -23 c14 -13 30 -23 36 -23 l10 0 -33 28 -34 28 130
169 130 170 135 205 c73 113 137 211 142 218 l7 12 -8 -1 c-4 0 -64 -86 -132
-190z"/>
<path d="M47346 54920 l-20 -7 12 -6 11 -7 16 -56 16 -56 7 6 6 7 -3 42 c-2
23 -8 51 -14 63 l-12 21 -19 -7z"/>
<path d="M47111 54887 c-6 -16 -11 -38 -11 -49 l0 -21 -6 6 -6 5 -79 -54 c-44
-30 -85 -54 -91 -54 l-12 0 11 -11 11 -11 38 20 c22 11 67 41 100 65 l61 45 6
29 5 28 -8 15 -9 15 -10 -28z"/>
<path d="M52245 54732 c-60 -92 -183 -265 -273 -385 -90 -121 -166 -225 -169
-233 l-5 -14 6 0 c22 0 568 781 555 794 -2 2 -53 -71 -114 -162z"/>
<path d="M50925 54860 c2 -14 5 -30 5 -37 l0 -12 193 -154 c105 -84 244 -193
307 -242 63 -49 152 -120 198 -157 45 -38 82 -65 82 -60 0 10 -291 249 -465
382 -60 47 -152 118 -203 158 l-93 74 -6 16 c-2 10 -9 26 -14 37 l-10 20 6
-25z"/>
<path d="M47898 54689 c-87 -44 -158 -81 -158 -83 0 -6 116 47 230 104 92 46
95 48 89 54 -2 2 -75 -32 -161 -75z"/>
<path d="M10844 54742 l-11 -7 45 -217 45 -216 12 4 12 5 -39 187 c-22 103
-42 201 -46 219 l-7 32 -11 -7z"/>
<path d="M45756 54598 c-3 -24 -13 -95 -22 -158 -19 -140 -26 -198 -19 -185 7
15 42 240 50 318 7 73 0 94 -9 25z"/>
<path d="M50288 54566 l-57 -63 -6 -25 -6 -24 41 -55 40 -54 138 -118 137
-118 110 -66 c61 -36 122 -77 137 -91 15 -14 30 -23 33 -20 10 9 -44 50 -155
118 l-112 69 -139 118 -139 118 -39 55 -39 56 11 19 c5 11 35 48 65 83 30 34
51 62 46 62 -5 -1 -35 -29 -66 -64z"/>
<path d="M44840 54604 c1 -9 293 -243 393 -314 l58 -42 67 -19 67 -19 71 0
c39 0 105 3 147 6 l77 7 0 10 0 9 -52 -6 c-29 -4 -96 -7 -148 -7 l-95 -1 -65
20 -66 20 -64 43 c-36 23 -132 97 -215 162 -82 66 -156 125 -162 130 l-13 9 0
-8z"/>
<path d="M44811 54574 c0 -5 96 -83 213 -173 l212 -164 45 -22 44 -22 64 -12
63 -12 134 7 134 7 0 8 0 8 -32 -4 c-18 -2 -77 -7 -131 -9 l-98 -6 -71 15 -71
15 -51 30 c-28 16 -125 87 -216 157 -91 71 -182 141 -202 157 l-38 28 1 -8z"/>
<path d="M50190 54573 c0 -12 38 -48 45 -41 3 2 -6 15 -20 28 l-25 23 0 -10z"/>
<path d="M51120 54572 c0 -11 151 -136 242 -201 l47 -34 -6 -11 c-4 -6 -38
-46 -76 -89 -39 -42 -68 -80 -65 -83 3 -3 39 34 79 81 l74 85 13 0 13 0 -5 9
-6 9 15 12 c8 7 15 17 15 23 l0 10 -18 -16 c-10 -10 -22 -17 -26 -17 -10 0
-157 113 -238 183 l-58 49 0 -10z"/>
<path d="M50121 54531 c-1 -7 4 -43 11 -80 l11 -66 24 -26 25 -27 46 -13 45
-13 134 -114 134 -115 -8 -7 c-4 -4 -132 -62 -283 -129 l-275 -122 -140 -74
c-77 -41 -135 -75 -128 -75 7 0 86 38 175 84 131 68 447 214 656 303 l32 13
-57 49 c-32 26 -98 82 -146 123 l-88 76 -45 12 -45 13 -23 28 -24 28 -7 53
c-4 29 -11 62 -16 73 l-8 20 0 -14z"/>
<path d="M4824 54508 c-3 -5 -4 -11 -3 -12 2 -2 104 -33 226 -68 l222 -65 5
13 5 12 -42 11 c-23 6 -124 35 -225 65 l-182 54 -6 -10z"/>
<path d="M4812 54458 l5 -13 119 -38 c134 -43 293 -87 312 -87 l12 0 0 10 0 9
-42 11 c-24 6 -123 35 -220 65 -98 30 -180 55 -184 55 -3 0 -4 -6 -2 -12z"/>
<path d="M33975 54368 c-38 -27 -105 -67 -147 -89 l-78 -39 0 -10 0 -10 82 41
c46 23 116 64 156 91 l73 49 -6 9 c-8 12 2 17 -80 -42z"/>
<path d="M24424 54280 c-71 -55 -153 -119 -182 -141 l-52 -40 6 -10 6 -10 16
14 c12 10 289 226 350 273 2 1 -1 5 -6 8 l-9 6 -129 -100z"/>
<path d="M87986 54348 l-16 -22 0 -37 c0 -21 3 -44 6 -53 l6 -16 8 5 8 5 -5
44 -5 44 20 20 20 20 -5 6 c-11 11 -22 6 -37 -16z"/>
<path d="M49102 54229 c-139 -72 -251 -133 -249 -135 5 -5 517 255 517 262 0
10 -29 -4 -268 -127z"/>
<path d="M49415 54210 l-6 -10 8 0 c4 0 15 5 23 10 l15 10 -17 0 c-9 0 -20 -4
-23 -10z"/>
<path d="M33600 54195 c0 -3 12 -17 28 -30 l27 -23 0 -45 0 -45 -18 -20 -18
-20 9 -6 9 -6 15 18 c8 9 18 26 22 36 l7 20 57 -57 57 -56 194 -130 194 -130
9 5 9 6 -193 130 -193 130 -67 66 -67 66 -6 28 -7 28 -25 20 c-25 19 -43 26
-43 15z"/>
<path d="M33475 54170 l-19 -21 0 -46 -1 -46 11 -4 10 -3 -4 36 -4 36 21 29
c11 15 21 31 21 34 0 11 -18 4 -35 -15z"/>
<path d="M51680 54165 l-12 -15 -9 6 -9 5 0 -14 0 -15 -75 -88 c-41 -49 -75
-93 -75 -98 0 -5 2 -7 4 -5 2 2 36 42 76 89 40 47 76 89 80 94 l9 9 98 -81 98
-80 25 -7 25 -8 100 -91 c55 -50 137 -117 182 -149 l82 -58 35 -56 c20 -31 41
-72 47 -90 l11 -33 8 0 9 0 -25 58 c-14 31 -37 74 -51 95 l-26 38 -81 57 c-45
31 -126 98 -182 149 l-101 92 -25 6 -24 6 -72 59 c-40 32 -84 68 -98 79 l-25
20 11 20 c13 25 8 27 -10 6z"/>
<path d="M62131 54168 c-1 -22 87 -449 94 -456 3 -3 5 -1 5 5 0 13 -89 444
-94 458 l-4 10 -1 -17z"/>
<path d="M51195 54110 l-18 -20 7 -7 7 -7 20 21 21 21 -10 6 -9 6 -18 -20z"/>
<path d="M51907 54022 c43 -43 113 -108 155 -146 86 -75 239 -188 247 -181 5
6 12 1 -74 61 -80 55 -218 176 -318 276 -37 37 -72 68 -78 68 -5 0 26 -35 68
-78z"/>
<path d="M80811 54035 c-1 -23 74 -324 83 -332 l6 -6 0 9 c-1 22 -88 347 -89
329z"/>
<path d="M46866 53953 c-3 -32 -8 -112 -11 -178 -3 -66 -8 -147 -11 -180 l-5
-60 9 15 9 15 12 219 c11 209 10 294 -3 169z"/>
<path d="M33597 53989 c7 -7 52 -29 100 -49 l88 -37 379 -261 c209 -144 382
-260 384 -257 10 9 -12 25 -396 289 l-373 256 -84 35 c-46 19 -90 35 -96 35
l-13 0 11 -11z"/>
<path d="M51466 53942 l-6 -10 113 -99 c61 -54 168 -144 237 -200 69 -55 138
-115 154 -132 l30 -31 13 0 14 0 -33 41 -33 41 -115 92 c-95 75 -191 156 -352
293 l-16 14 -6 -9z"/>
<path d="M49011 53799 c38 -78 72 -139 75 -136 7 6 -129 277 -138 277 -5 0 24
-63 63 -141z"/>
<path d="M50721 53924 c-1 -6 -18 -22 -38 -36 l-38 -25 -215 -88 c-118 -48
-219 -91 -223 -95 l-9 -8 42 -7 41 -7 6 6 6 6 -20 0 c-11 0 -23 3 -26 7 l-7 7
202 83 c222 91 232 95 267 122 l24 18 -6 14 -5 14 -1 -11z"/>
<path d="M48510 53836 c0 -15 185 -366 193 -366 7 0 -168 346 -185 365 l-8 9
0 -8z"/>
<path d="M50980 53826 c0 -8 526 -444 563 -467 18 -10 39 -19 47 -19 l15 1
-38 20 -39 20 -261 218 c-264 218 -287 237 -287 227z"/>
<path d="M13345 53665 l-107 -156 6 -6 6 -7 9 10 c4 5 52 73 105 152 l98 142
9 -6 c5 -3 78 -62 161 -130 141 -116 169 -135 168 -116 -1 10 -318 266 -335
270 l-13 3 -107 -156z"/>
<path d="M50666 53649 l-259 -128 -9 5 -8 5 0 -15 c0 -9 4 -16 8 -16 8 0 35
-50 79 -148 l23 -53 -225 -110 c-123 -60 -227 -109 -230 -109 -3 0 -16 21 -28
48 -32 68 -97 172 -108 172 -15 0 -11 -8 30 -68 21 -31 48 -76 59 -98 l21 -42
-6 -6 c-4 -3 -14 -6 -24 -6 l-17 0 -6 -16 c-9 -24 -7 -27 10 -10 l15 16 20 0
19 0 47 -100 c25 -55 48 -98 51 -96 2 3 -15 46 -38 96 -23 50 -40 93 -39 94 7
6 149 77 306 151 l152 73 42 -102 c23 -55 71 -160 105 -233 l62 -132 -19 -6
c-10 -4 -19 -11 -19 -16 0 -12 14 -11 27 2 l11 11 11 -6 c5 -4 33 -45 61 -91
28 -46 56 -87 61 -91 l11 -6 -16 28 c-8 16 -35 61 -60 99 l-45 70 7 7 c4 4
126 68 272 144 l265 137 33 0 32 1 38 -37 37 -36 18 -49 c9 -28 17 -61 17 -74
l0 -24 -12 -16 -13 -15 -277 -134 -276 -134 12 -10 c7 -5 15 -19 19 -29 4 -10
10 -17 12 -14 3 3 1 16 -3 29 l-9 24 269 132 269 132 17 21 17 21 27 -20 26
-21 24 1 23 1 -20 6 c-11 4 -34 15 -50 25 l-31 19 -19 61 -20 62 -38 42 -39
42 -34 7 -33 6 -285 -145 -284 -146 -30 62 c-50 103 -169 362 -176 383 l-6 21
250 121 250 121 60 41 c60 41 80 61 38 39 -13 -7 -43 -25 -67 -42 -24 -16
-154 -84 -289 -149 l-244 -119 -6 6 c-3 3 -27 49 -52 102 l-47 96 256 124
c141 69 258 127 260 129 20 20 -40 -7 -263 -117z"/>
<path d="M67173 53767 l-53 -10 0 -7 0 -8 62 13 63 14 6 -10 c3 -6 17 -68 30
-140 l24 -129 8 0 7 0 -5 23 c-18 76 -45 223 -45 243 l0 24 -22 -1 c-13 -1
-47 -6 -75 -12z"/>
<path d="M77710 53720 l0 -13 7 6 6 7 -6 7 -7 6 0 -13z"/>
<path d="M77468 53633 l-188 -74 0 -8 0 -8 195 76 c107 42 195 79 195 84 0 11
-3 10 -202 -70z"/>
<path d="M80941 53697 c-1 -15 91 -396 105 -436 2 -8 6 -12 9 -10 2 3 -23 108
-55 234 -32 127 -59 222 -59 212z"/>
<path d="M50280 53649 l-54 -19 -188 -102 -187 -102 5 -8 5 -8 22 11 c12 7 94
51 182 99 88 48 183 95 210 105 28 10 54 22 59 26 19 17 0 16 -54 -2z"/>
<path d="M68070 53620 c-91 -21 -292 -62 -447 -91 -156 -29 -283 -56 -283 -59
l0 -7 278 52 c303 57 608 123 632 136 l15 8 -15 0 c-8 -1 -89 -18 -180 -39z"/>
<path d="M47910 53600 c0 -6 56 -127 125 -270 69 -143 125 -262 125 -264 0 -2
77 -159 170 -350 94 -191 170 -351 170 -356 l0 -10 14 0 c8 0 18 5 21 10 l6
10 -102 213 c-56 116 -108 226 -115 243 -7 17 -85 179 -174 360 -89 181 -171
350 -182 377 l-20 47 -19 0 -19 0 0 -10z"/>
<path d="M49770 53589 c41 -79 83 -149 86 -146 6 6 -75 155 -88 163 l-10 6 12
-23z"/>
<path d="M50278 53603 c12 -2 30 -2 40 0 l17 5 -40 -1 -40 0 23 -4z"/>
<path d="M58290 53559 c0 -6 -33 -46 -72 -89 l-73 -78 -70 -55 -70 -54 -83
-42 -82 -41 -58 -16 -57 -16 -405 -8 -405 -8 -30 -15 -30 -15 -180 -12 c-168
-11 -195 -15 -184 -23 2 -2 92 4 199 13 l195 16 20 11 20 11 370 7 370 7 69 8
69 8 104 51 105 51 78 61 c43 33 80 64 82 69 2 5 32 39 68 76 l64 67 36 -22
c19 -12 64 -35 98 -51 l64 -30 63 0 63 0 51 12 c28 6 51 15 51 19 l0 7 -52
-14 -53 -14 -52 0 -53 0 -66 27 -67 26 -43 34 c-48 36 -54 38 -54 22z"/>
<path d="M60350 53553 c0 -12 74 -56 205 -120 l120 -60 230 -73 c127 -40 234
-76 238 -80 l8 -7 -121 -599 c-66 -329 -119 -605 -118 -614 2 -8 59 260 127
595 l123 610 10 6 11 7 -7 10 -6 11 -18 -1 c-9 -1 -116 31 -236 71 l-219 72
-141 71 c-78 39 -153 79 -168 89 -28 20 -38 23 -38 12z"/>
<path d="M50161 53400 c-89 -44 -161 -82 -161 -85 0 -7 86 32 225 103 66 34
115 61 109 61 -7 1 -84 -35 -173 -79z"/>
<path d="M51923 53453 l7 -6 7 6 6 7 -13 0 -13 0 6 -7z"/>
<path d="M50972 53272 c-194 -96 -351 -176 -349 -179 3 -2 160 74 350 169
l346 172 28 -14 c15 -8 54 -40 85 -70 l58 -56 0 -17 0 -16 -22 -12 c-38 -19
-69 -52 -84 -88 -8 -19 -12 -36 -10 -39 3 -2 11 11 19 30 l14 34 32 27 33 27
18 0 c10 0 20 4 22 8 6 15 211 119 291 147 l77 28 0 8 c0 5 -2 9 -4 9 -20 0
-205 -80 -277 -120 -51 -27 -93 -50 -95 -50 -2 0 -4 7 -4 15 l0 15 -40 44 -40
43 -47 29 -48 30 -353 -174z"/>
<path d="M51967 53433 c-4 -3 -7 -10 -7 -14 l0 -7 20 5 20 5 -6 9 c-6 11 -18
12 -27 2z"/>
<path d="M60765 53385 c6 -2 101 -33 213 -68 l202 -65 0 7 c0 8 -388 132 -410
130 l-15 -1 10 -3z"/>
<path d="M54730 53375 c0 -6 7 -21 16 -33 l16 -23 149 -100 c160 -107 172
-113 262 -134 80 -19 63 -6 -26 20 l-72 21 -151 101 -151 101 -21 29 -21 28
-1 -10z"/>
<path d="M79446 53332 l-5 -9 49 -208 c28 -114 50 -210 50 -213 0 -3 5 -1 10
4 l10 10 -49 208 c-27 114 -51 210 -54 212 -3 3 -8 1 -11 -4z"/>
<path d="M31970 53313 l-105 -14 -40 -23 -40 -24 -33 -46 -33 -46 8 0 c5 0 22
17 37 38 l29 37 42 26 42 26 102 13 102 13 5 9 5 8 -8 -1 c-4 -1 -55 -8 -113
-16z"/>
<path d="M49597 53182 c-186 -114 -225 -142 -199 -142 9 0 391 235 406 250 5
5 7 12 5 15 -3 2 -98 -53 -212 -123z"/>
<path d="M49830 53281 c0 -5 5 -13 10 -16 l10 -6 0 10 c0 5 -4 13 -10 16 l-10
6 0 -10z"/>
<path d="M52493 53220 c13 -30 75 -160 136 -288 61 -129 111 -236 111 -238 0
-2 -45 -27 -101 -55 -56 -27 -99 -52 -96 -55 3 -3 51 18 106 46 l102 51 23
-53 c13 -29 63 -134 111 -233 l86 -180 28 -30 28 -30 144 -293 143 -294 4 10
3 10 -146 294 -147 293 -24 26 -24 26 -106 218 -105 219 3 12 3 12 180 92 c99
51 286 148 417 216 l236 125 44 -6 43 -5 -20 9 c-11 5 -33 10 -48 10 l-29 1
-81 -44 c-45 -24 -220 -114 -388 -199 -168 -86 -320 -164 -337 -174 -17 -10
-33 -15 -36 -12 -3 3 -64 129 -136 280 -72 150 -136 279 -141 284 -6 6 0 -15
14 -45z"/>
<path d="M57845 53249 l-50 -21 -80 -14 -80 -14 -363 0 -363 0 6 -10 6 -10
367 6 367 6 75 13 75 13 55 25 c66 30 55 34 -15 6z"/>
<path d="M50485 53148 l44 -93 -229 -115 c-127 -63 -230 -118 -230 -122 0 -5
104 44 231 108 127 63 233 114 235 112 6 -7 84 -180 84 -188 0 -4 -15 -13 -32
-20 -36 -14 -254 -122 -330 -163 -26 -13 -45 -27 -42 -30 3 -3 46 17 95 44 99
54 297 149 310 149 9 0 135 -208 150 -248 l10 -25 -23 -25 -23 -24 -367 -184
c-203 -101 -368 -186 -368 -189 0 -7 96 38 430 202 l305 149 14 17 13 17 9 -6
c5 -3 9 -13 9 -24 l0 -18 16 -6 15 -6 -385 -192 c-212 -106 -386 -196 -386
-200 0 -5 178 81 395 189 l394 197 -8 6 c-5 3 -15 19 -24 35 l-15 31 9 17 10
17 -30 60 c-17 32 -53 95 -80 139 l-49 80 21 15 22 16 -26 -6 -26 -5 -42 92
-43 92 23 18 c26 20 19 25 -12 8 l-20 -10 -41 90 c-23 50 -45 91 -49 91 l-8 0
44 -92z"/>
<path d="M61191 53226 c-2 -17 -152 -791 -158 -811 l-5 -20 10 10 10 10 76
398 77 398 -5 12 -4 12 -1 -9z"/>
<path d="M34703 53205 l-33 -14 0 -16 c0 -20 5 -19 39 6 l29 21 20 -11 21 -11
6 10 6 10 -26 10 c-14 6 -27 10 -28 10 -1 -1 -17 -7 -34 -15z"/>
<path d="M64298 53213 l13 -5 6 6 6 6 -19 -1 -19 -1 13 -5z"/>
<path d="M52274 53178 c78 -184 164 -349 184 -356 l12 -4 -33 59 c-19 32 -63
120 -97 196 l-64 137 -8 0 -8 0 14 -32z"/>
<path d="M52154 53186 c-10 -8 -17 -17 -14 -19 3 -3 14 1 24 9 11 7 17 16 15
19 -3 3 -14 -2 -25 -9z"/>
<path d="M34910 53130 c-30 -11 -64 -19 -75 -20 -11 0 -27 -4 -35 -10 l-14 -9
6 -6 6 -6 68 16 c38 8 81 20 96 26 l28 11 -6 9 c-6 11 -7 11 -74 -11z"/>
<path d="M52065 53124 c-11 -8 -123 -69 -248 -136 -125 -66 -226 -123 -223
-125 6 -6 474 243 496 263 l14 14 -9 0 c-6 0 -19 -7 -30 -16z"/>
<path d="M55412 53091 l-12 -7 20 -19 20 -18 0 -35 0 -34 -17 -28 -17 -29 -38
-6 -38 -7 0 -14 c0 -17 -4 -17 57 1 l51 15 17 44 17 43 -11 40 c-6 23 -17 45
-24 51 l-13 11 -12 -8z"/>
<path d="M66453 53031 c-123 -25 -223 -49 -223 -52 0 -9 442 81 455 92 l9 9
-9 -1 c-6 -1 -110 -22 -232 -48z"/>
<path d="M49420 53035 c0 -5 23 -50 50 -102 28 -51 50 -98 50 -103 l0 -10 -24
0 -24 0 -14 -21 -14 -21 -54 101 c-30 55 -58 101 -63 101 -4 0 6 -24 22 -52
16 -29 45 -82 65 -118 l36 -65 0 16 0 16 18 16 c9 8 28 17 42 19 l25 3 0 -15
c0 -8 5 -18 11 -22 6 -4 30 -57 54 -119 24 -61 45 -108 47 -103 2 5 -17 61
-42 123 -24 63 -44 115 -42 116 1 1 93 51 204 111 112 60 203 113 203 117 l0
9 -52 -30 c-29 -16 -122 -66 -206 -112 l-153 -83 -9 9 c-5 5 -34 56 -64 113
-57 106 -66 121 -66 106z"/>
<path d="M34556 52938 c-9 -46 -16 -98 -16 -115 l0 -33 10 0 10 0 0 43 c1 23
7 71 15 107 17 78 17 80 6 80 l-8 0 -17 -82z"/>
<path d="M49960 52996 c0 -11 63 -152 71 -161 l10 -10 -20 52 c-37 94 -50 123
-55 123 -4 0 -6 -2 -6 -4z"/>
<path d="M50680 52830 l-15 -10 12 0 c6 0 15 5 18 10 8 12 4 12 -15 0z"/>
<path d="M65058 52786 c-114 -22 -210 -44 -214 -48 l-7 -8 9 0 c5 0 109 19
232 42 l222 43 0 7 0 8 -17 -1 c-10 -1 -111 -20 -225 -43z"/>
<path d="M22786 52761 c-35 -56 -149 -282 -167 -328 l-9 -23 10 0 10 0 63 133
c35 72 82 162 105 200 45 72 47 77 33 77 -5 0 -26 -26 -45 -59z"/>
<path d="M35471 52785 c-1 -11 13 -114 31 -230 l33 -210 3 17 c3 16 -54 410
-63 433 l-3 10 -1 -20z"/>
<path d="M50515 52752 c-135 -64 -236 -117 -260 -136 -11 -9 68 28 175 81 206
102 209 103 194 103 -5 0 -54 -22 -109 -48z"/>
<path d="M48710 52716 l-145 -74 -16 -18 c-9 -11 -19 -28 -23 -39 l-7 -20 33
31 33 31 142 74 c124 64 164 90 136 88 -5 0 -73 -33 -153 -73z"/>
<path d="M64850 52706 c-228 -44 -408 -82 -400 -84 17 -3 851 156 859 163 11
11 -68 -2 -459 -79z"/>
<path d="M31129 52519 l-294 -260 -36 -19 -36 -19 -77 -7 -76 -7 0 -6 0 -7 87
8 88 9 24 16 c18 12 493 424 615 534 5 5 7 11 5 14 -3 2 -138 -113 -300 -256z"/>
<path d="M48380 52740 c5 -10 25 -28 44 -39 l34 -22 11 -31 c6 -17 11 -42 11
-54 l0 -24 15 0 15 0 0 26 c0 15 -5 43 -11 63 l-11 36 -29 23 c-16 13 -42 27
-59 32 l-30 9 10 -19z"/>
<path d="M48865 52729 l-7 -30 17 -72 18 -72 58 -122 c31 -68 67 -136 78 -152
l21 -29 0 -21 0 -22 21 -29 22 -28 -7 -26 -6 -25 -155 -78 c-85 -43 -155 -82
-155 -86 0 -4 72 29 159 73 l159 80 11 31 11 31 -19 27 -18 26 -6 36 -5 35
249 124 c137 69 249 128 249 132 0 5 -113 -48 -251 -118 l-251 -125 -13 5 -13
5 -61 127 -61 128 -16 60 -16 61 1 43 c1 49 -5 55 -14 11z"/>
<path d="M12210 52742 c0 -5 160 -120 356 -256 l356 -248 9 9 9 9 -355 247
c-195 136 -359 247 -365 247 -5 0 -10 -4 -10 -8z"/>
<path d="M51260 52735 c0 -14 213 -395 218 -390 4 4 -174 335 -205 380 l-13
19 0 -9z"/>
<path d="M52830 52706 c0 -2 37 -72 83 -157 45 -85 168 -331 272 -546 105
-216 193 -393 197 -393 4 0 -29 73 -72 163 -299 622 -458 937 -472 937 -5 0
-8 -2 -8 -4z"/>
<path d="M71436 52529 c41 -83 77 -149 80 -146 7 6 -139 297 -148 297 -5 0 26
-68 68 -151z"/>
<path d="M48207 52653 c-4 -3 -7 -28 -7 -55 l0 -49 14 -28 c8 -15 21 -33 29
-40 l15 -12 7 11 7 11 -21 35 -21 35 0 37 c0 20 -4 43 -8 50 l-8 12 -7 -7z"/>
<path d="M64348 52643 c6 -2 18 -2 25 0 l12 5 -25 0 -25 0 13 -5z"/>
<path d="M30051 52541 l-12 -89 12 -161 12 -161 6 0 7 0 -12 164 -13 163 13
87 13 86 -7 0 -7 0 -12 -89z"/>
<path d="M48160 52586 l-25 -25 -225 -117 c-124 -64 -452 -228 -730 -364 -278
-136 -593 -291 -701 -345 l-197 -99 5 -12 4 -12 397 195 c218 106 636 313 927
459 l530 266 23 23 24 22 -4 17 -3 17 -25 -25z"/>
<path d="M50823 52598 c-13 -6 -23 -15 -23 -21 l0 -9 18 7 c9 4 25 10 34 12
l18 5 -6 9 c-6 11 -13 11 -41 -3z"/>
<path d="M52500 52585 c0 -22 508 -1008 540 -1047 l18 -23 8 7 7 8 -15 17
c-18 22 -380 712 -474 906 l-66 137 -9 0 c-5 0 -9 -2 -9 -5z"/>
<path d="M48850 52558 c0 -20 121 -271 141 -294 l19 -20 0 -30 0 -30 12 -12
c7 -7 16 -12 20 -12 l9 0 -11 19 c-5 11 -10 31 -10 45 l0 25 -10 6 c-14 9
-150 281 -150 300 l0 15 -10 0 -10 0 0 -12z"/>
<path d="M69351 52532 c-1 -17 97 -412 109 -437 l9 -20 0 13 c1 17 -97 412
-109 437 l-9 20 0 -13z"/>
<path d="M46190 52511 c0 -13 326 -177 522 -263 215 -95 264 -122 321 -176
l37 -36 0 11 c0 17 -70 76 -130 110 -30 17 -143 69 -250 116 -107 48 -264 122
-347 165 -84 44 -153 76 -153 73z"/>
<path d="M48321 52395 c3 -5 48 -100 102 -209 l97 -199 7 6 6 7 -88 182 -89
183 -19 20 c-11 11 -18 16 -16 10z"/>
<path d="M52490 52395 c0 -13 113 -229 161 -310 30 -49 110 -205 178 -345 68
-140 127 -261 131 -269 l7 -14 6 10 6 10 -133 274 -134 275 -65 110 c-35 60
-82 144 -103 187 -21 42 -42 77 -46 77 -4 0 -8 -2 -8 -5z"/>
<path d="M85205 52175 c-110 -85 -205 -155 -211 -155 l-10 0 -32 131 c-17 72
-34 134 -37 137 l-5 6 -98 -24 -97 -23 11 -4 c7 -2 49 5 94 17 45 12 84 20 85
18 1 -2 18 -64 36 -138 l34 -135 20 3 19 4 191 145 c104 80 197 152 205 159
l14 14 -9 0 c-6 -1 -100 -70 -210 -155z"/>
<path d="M46483 52097 c-113 -235 -197 -427 -189 -434 2 -3 11 10 19 28 69
161 140 318 202 447 41 83 71 152 67 152 -4 0 -48 -87 -99 -193z"/>
<path d="M46606 52261 c5 -6 47 -26 93 -46 46 -19 122 -56 169 -82 l86 -47 38
-34 c21 -19 41 -33 44 -30 7 8 -68 72 -120 103 -44 26 -302 145 -314 145 -3 0
-2 -4 4 -9z"/>
<path d="M83103 52002 c-211 -53 -383 -100 -383 -103 0 -7 791 188 799 197 12
12 -65 -6 -416 -94z"/>
<path d="M52724 52058 l-7 -11 11 7 c12 7 16 16 8 16 -3 0 -8 -5 -12 -12z"/>
<path d="M22401 51900 l0 -25 14 -25 c18 -32 19 -16 0 35 l-14 40 0 -25z"/>
<path d="M22410 51800 l0 -13 7 6 6 7 -6 7 -7 6 0 -13z"/>
<path d="M34306 51653 c-4 -43 -15 -120 -25 -171 l-18 -93 8 -5 8 -4 5 17 c12
41 35 184 42 256 l7 77 -10 0 -10 0 -7 -77z"/>
<path d="M22380 51640 l0 -13 7 6 6 7 -6 7 -7 6 0 -13z"/>
<path d="M35920 51444 c-80 -7 -158 -13 -175 -14 l-30 -2 18 -5 c19 -5 429 26
436 33 7 7 -93 2 -249 -12z"/>
<path d="M88037 51322 l-179 -136 12 -4 11 -4 175 133 c96 73 177 136 180 141
l5 8 -13 -1 c-7 0 -93 -62 -191 -137z"/>
<path d="M53180 51445 c0 -2 5 -16 12 -30 11 -25 19 -30 31 -19 l6 6 -16 24
c-13 21 -33 32 -33 19z"/>
<path d="M45798 51407 l-48 -22 0 -12 c0 -17 -2 -17 64 12 l57 25 -6 10 c-8
13 -11 12 -67 -13z"/>
<path d="M45877 51336 l-107 -52 -148 -23 c-81 -12 -158 -26 -172 -31 l-25 -8
16 -6 16 -7 158 25 158 25 9 13 8 13 0 -12 0 -12 110 52 110 52 0 10 1 10 -13
2 c-7 1 -61 -22 -121 -51z"/>
<path d="M52923 51336 l-28 -33 -55 -35 c-30 -19 -125 -70 -210 -115 -216
-112 -2227 -1123 -2234 -1123 -4 0 -2 9 4 19 l10 20 -1 28 -1 28 -9 -40 c-5
-22 -10 -46 -11 -53 l-1 -13 -200 -100 -200 -101 -45 -7 -45 -6 -5 -14 -5 -14
44 6 44 6 295 144 c162 80 639 319 1060 532 421 213 923 466 1115 563 193 96
377 193 411 213 l60 38 32 40 c36 45 38 51 18 51 l-15 0 -28 -34z"/>
<path d="M42490 51341 l0 -9 198 -6 c108 -4 207 -9 220 -12 l22 -4 0 9 0 9
-197 6 c-109 4 -208 9 -220 12 l-23 4 0 -9z"/>
<path d="M34050 51320 l-12 -22 6 -14 c3 -8 9 -14 15 -14 l9 0 5 28 5 27 -8 9
-8 8 -12 -22z"/>
<path d="M34240 51310 l0 -13 7 6 6 7 -6 7 -7 6 0 -13z"/>
<path d="M6050 51284 c0 -9 104 -390 115 -423 l5 -14 6 6 5 5 -56 204 c-32
111 -61 210 -66 218 l-8 15 -1 -11z"/>
<path d="M45775 51225 c3 -16 17 -49 30 -71 l24 -42 48 -30 48 -31 69 -15 c38
-9 71 -14 73 -12 5 5 -41 18 -103 31 l-30 6 -50 35 -49 34 -33 63 -34 62 7
-30z"/>
<path d="M60800 51152 l0 -8 343 -77 c188 -43 395 -88 459 -101 l117 -23 6 5
5 6 -162 32 c-151 30 -727 159 -755 169 l-13 4 0 -7z"/>
<path d="M42330 51087 c0 -2 23 -18 50 -36 l50 -33 48 -54 c26 -31 59 -79 74
-107 16 -29 28 -46 28 -39 0 7 -11 34 -24 60 l-24 47 -51 56 -51 57 -44 26
c-42 25 -56 30 -56 23z"/>
<path d="M61272 51085 c5 -5 354 -87 421 -99 l39 -7 -7 10 -6 11 -23 0 c-13 0
-110 20 -216 45 -189 44 -218 50 -208 40z"/>
<path d="M46388 51075 l-7 -7 -158 -1 -158 0 78 -9 78 -10 116 10 115 9 82
-16 81 -17 60 -38 59 -39 93 -94 92 -94 24 -42 25 -42 7 -52 7 -52 -12 -55
-11 -56 -26 -31 -25 -30 5 -5 6 -6 30 42 31 42 6 35 7 35 -6 68 -6 68 -19 39
-20 38 -114 116 -113 117 -48 27 c-56 32 -96 42 -197 51 l-75 6 -7 -7z"/>
<path d="M29805 51009 l-50 -21 -152 -5 -153 -6 0 -8 0 -9 133 0 132 0 73 21
72 22 0 13 c0 8 -1 14 -2 14 -2 -1 -25 -10 -53 -21z"/>
<path d="M27660 50963 l0 -10 163 -7 c89 -3 206 -9 260 -12 l97 -7 0 10 0 10
-102 6 c-57 4 -174 9 -260 13 l-158 7 0 -10z"/>
<path d="M27764 50700 l0 -185 3 93 c2 50 2 134 0 185 l-3 92 0 -185z"/>
<path d="M27805 50490 l0 -395 2 198 c2 108 2 286 0 395 l-2 197 0 -395z"/>
<path d="M33500 50823 c0 -6 16 -110 35 -230 19 -120 48 -305 64 -411 27 -177
35 -213 44 -201 6 7 -129 839 -138 847 -3 3 -5 0 -5 -5z"/>
<path d="M46852 50782 c20 -23 46 -59 58 -82 l20 -40 6 -43 6 -42 -12 -44 -12
-44 -21 -29 -22 -29 -46 -29 -46 -28 -111 -36 -111 -36 -63 -40 -63 -41 -27
-33 c-15 -18 -137 -199 -271 -402 l-244 -369 -54 -65 c-30 -36 -72 -86 -93
-113 l-39 -47 14 6 c8 3 57 58 109 122 l94 117 224 340 c124 187 241 361 261
388 l35 47 66 40 67 40 114 39 115 38 40 25 39 25 30 43 29 42 4 62 4 61 -11
40 -11 40 -45 55 c-25 30 -51 57 -58 59 l-12 4 37 -41z"/>
<path d="M8500 50671 c0 -14 23 -19 120 -27 l85 -7 110 -38 c115 -41 135 -45
135 -30 l0 10 -127 40 -128 40 -80 6 c-44 3 -88 9 -97 11 l-18 5 0 -10z"/>
<path d="M49942 50577 c-83 -45 -148 -83 -143 -85 7 -2 295 150 310 164 18 17
-37 -9 -167 -79z"/>
<path d="M50144 50618 l27 -33 56 -115 56 -115 4 11 3 10 -45 99 -46 98 -30
39 c-17 21 -35 38 -41 38 l-11 0 27 -32z"/>
<path d="M45270 50583 c-14 -3 -29 -9 -35 -15 l-10 -11 17 6 c10 3 50 9 90 12
l73 6 158 -14 158 -13 4 6 4 7 -157 11 c-156 12 -254 13 -302 5z"/>
<path d="M50259 50508 c104 -223 182 -380 186 -376 7 6 -208 457 -217 458 -4
0 10 -37 31 -82z"/>
<path d="M49655 50529 l-90 -48 -40 -10 -40 -9 32 -1 33 -1 97 51 c54 28 102
55 108 60 l9 9 -9 -1 c-6 -1 -50 -23 -100 -50z"/>
<path d="M42201 50566 c2 -2 110 -32 239 -66 129 -33 241 -63 248 -65 l12 -4
0 7 0 7 -243 63 c-229 59 -266 68 -256 58z"/>
<path d="M31478 50513 l-118 -4 0 -10 0 -11 23 5 c12 3 89 7 172 9 l150 3 3
-15 c1 -8 6 -49 12 -90 l9 -75 -3 85 -2 86 -8 12 -7 12 -57 -2 c-31 -1 -110
-4 -174 -5z"/>
<path d="M60660 50483 l0 -10 225 -50 226 -50 4 7 4 6 -217 48 c-119 27 -223
51 -229 53 l-13 5 0 -9z"/>
<path d="M48650 50349 l-73 -52 -86 -40 c-47 -21 -96 -43 -109 -48 l-23 -9 5
-9 6 -9 103 45 102 46 78 54 c42 30 77 59 77 64 0 14 -1 13 -80 -42z"/>
<path d="M33610 50384 c0 -22 61 -388 65 -393 3 -2 5 2 5 10 0 29 -58 381 -64
386 l-6 6 0 -9z"/>
<path d="M32473 50300 c3 -19 18 -113 34 -207 15 -95 30 -173 33 -173 8 0 -56
400 -66 408 l-7 7 6 -35z"/>
<path d="M49557 50257 l-16 -12 30 -52 31 -53 19 0 19 0 0 8 c0 4 -15 33 -34
64 l-32 58 -17 -13z"/>
<path d="M59550 50133 l0 -58 -25 -60 c-29 -71 -28 -65 -11 -65 l15 0 20 55
21 56 0 39 c0 22 2 40 5 40 3 0 29 -13 58 -29 l52 -29 140 -32 c77 -17 148
-34 158 -36 l17 -5 0 13 0 14 -127 28 c-163 37 -208 52 -258 86 -22 14 -46 30
-52 34 l-13 7 0 -58z"/>
<path d="M44118 49998 c-115 -62 -208 -115 -208 -119 0 -6 413 211 427 224 l6
7 -9 0 c-5 0 -102 -51 -216 -112z"/>
<path d="M34313 50076 c3 -7 9 -34 12 -60 l7 -46 11 -7 10 -6 -7 52 c-8 62
-15 81 -28 81 l-10 0 5 -14z"/>
<path d="M25147 49962 c-103 -58 -186 -107 -183 -109 4 -4 362 189 375 202 21
22 -31 -3 -192 -93z"/>
<path d="M35922 49980 l0 -25 5 13 c2 6 2 18 0 25 l-5 12 0 -25z"/>
<path d="M47948 49755 c3 -137 6 -252 8 -254 7 -8 2 352 -6 429 l-7 75 5 -250z"/>
<path d="M49711 49942 c17 -32 38 -67 45 -77 l14 -19 14 14 15 15 -37 62 -37
63 -23 0 -23 0 32 -58z"/>
<path d="M38255 49959 c-3 -13 -25 -107 -50 -209 -24 -101 -42 -186 -40 -189
7 -6 11 8 60 218 26 106 44 195 41 198 -3 3 -8 -5 -11 -18z"/>
<path d="M34255 49913 c7 -41 12 -50 21 -41 l5 6 -6 36 -7 36 -10 0 -10 0 7
-37z"/>
<path d="M34320 49932 c0 -13 25 -22 61 -22 l29 0 0 10 0 10 -29 0 c-16 0 -36
3 -45 6 l-16 6 0 -10z"/>
<path d="M59267 49851 l6 -89 -23 -146 -24 -145 7 -7 c12 -12 15 -2 37 126
l22 125 1 93 2 92 15 -6 c8 -4 30 -9 48 -12 l33 -4 45 12 45 13 -4 11 -4 11
-12 -3 c-7 -1 -32 -8 -56 -14 l-45 -12 -45 22 c-25 12 -48 22 -50 22 -3 0 -2
-40 2 -89z"/>
<path d="M34415 49901 l-30 -18 -18 -31 -17 -31 9 -6 10 -6 12 23 c6 13 25 35
42 50 38 32 33 44 -8 19z"/>
<path d="M32543 49873 l7 -6 7 6 6 7 -13 0 -13 0 6 -7z"/>
<path d="M49708 49824 c-27 -14 -34 -25 -22 -36 l5 -6 40 16 40 15 -4 11 c-6
17 -29 17 -59 0z"/>
<path d="M50092 49758 l-154 -80 11 -11 11 -11 122 63 c153 79 188 100 188
112 0 18 -28 7 -178 -73z"/>
<path d="M49558 49740 l-56 -29 -121 -28 -121 -28 0 -12 0 -13 13 0 c6 0 64
12 127 26 l115 27 58 29 57 28 0 15 c0 20 -6 19 -72 -15z"/>
<path d="M49641 49695 l0 -30 20 -24 c29 -35 31 -22 4 34 l-23 50 -1 -30z"/>
<path d="M27815 49700 l40 -9 253 -8 252 -8 0 6 0 7 -182 6 c-101 3 -232 8
-293 11 l-110 4 40 -9z"/>
<path d="M10565 49618 l-6 -43 11 -30 11 -30 37 -38 37 -39 47 -24 c26 -13 53
-24 60 -24 l13 1 -50 26 -50 25 -38 37 -39 36 -13 32 -13 31 5 41 6 41 -6 0
c-3 0 -9 -19 -12 -42z"/>
<path d="M49834 49477 l46 -98 143 -242 c79 -133 194 -318 256 -411 62 -93
123 -191 136 -217 14 -26 29 -50 34 -53 l10 -6 6 10 6 9 -42 78 c-24 43 -86
143 -139 223 -53 80 -179 285 -280 455 -101 171 -192 319 -202 330 l-19 20 45
-98z"/>
<path d="M84627 49459 c44 -57 106 -138 137 -179 32 -41 63 -77 69 -79 l12 -4
-11 14 c-6 8 -68 88 -138 179 -70 91 -133 167 -139 169 -6 2 26 -43 70 -100z"/>
<path d="M38196 49539 c-3 -8 -23 -86 -45 -175 -22 -89 -43 -170 -47 -180 l-7
-19 11 10 11 10 45 180 c25 99 43 181 41 184 -3 2 -7 -2 -9 -10z"/>
<path d="M69420 49398 l0 -8 118 0 c64 0 162 -2 217 -5 l100 -5 -30 9 -30 10
-188 3 -187 3 0 -7z"/>
<path d="M37495 49279 l-6 -8 23 -6 c13 -3 156 -34 318 -69 162 -36 480 -112
705 -170 l410 -104 10 9 c5 5 7 9 4 9 -4 0 -199 49 -435 109 -236 61 -555 137
-709 170 -154 34 -288 63 -297 65 l-18 4 -5 -9z"/>
<path d="M57667 49231 l5 -19 -213 -108 -213 -108 11 -3 11 -4 206 106 206
107 0 18 c0 10 -4 21 -9 24 l-9 6 5 -19z"/>
<path d="M63890 49160 l0 -9 43 -11 c23 -6 48 -13 56 -16 8 -2 73 -13 145 -23
l131 -19 100 8 c55 5 101 9 103 10 1 0 2 5 2 11 l0 11 -110 -7 -109 -7 -88 12
c-48 7 -124 21 -168 31 -44 10 -86 19 -92 19 l-13 0 0 -10z"/>
<path d="M77650 49098 c-113 -22 -207 -42 -209 -44 -2 -2 -2 -7 2 -10 l6 -7
231 44 230 44 0 7 0 8 -27 -1 c-16 -1 -120 -19 -233 -41z"/>
<path d="M83240 49087 l7 -34 360 -484 c335 -450 592 -794 629 -843 l15 -21
-5 17 c-3 9 -92 133 -197 275 -106 142 -329 441 -496 666 l-303 407 0 25 0 25
-9 0 -9 0 8 -33z"/>
<path d="M37923 49085 c3 -16 20 -120 37 -230 l33 -200 9 -10 9 -10 -5 25 c-3
14 -21 119 -40 234 -19 114 -38 211 -42 215 l-7 6 6 -30z"/>
<path d="M38073 49097 l3 -10 285 -74 c156 -40 348 -89 427 -109 l143 -37 10
10 10 10 -223 56 c-123 31 -321 81 -441 111 l-218 54 4 -11z"/>
<path d="M64320 49051 c-13 -26 -13 -53 3 -74 l12 -17 0 55 c0 30 -1 55 -2 55
-1 0 -7 -9 -13 -19z"/>
<path d="M69320 48941 c0 -5 -18 -105 -41 -221 -22 -117 -38 -220 -36 -229 l3
-16 12 65 c7 36 27 143 46 238 l33 172 -9 0 c-4 0 -8 -4 -8 -9z"/>
<path d="M91403 48727 c-72 -84 -148 -174 -169 -202 -21 -27 -109 -125 -197
-217 -88 -93 -155 -168 -151 -168 14 0 314 317 369 390 41 53 170 205 279 328
l19 22 -9 0 c-5 -1 -68 -69 -141 -153z"/>
<path d="M91439 48708 c-68 -78 -153 -178 -188 -223 -35 -44 -124 -141 -198
-216 -73 -75 -133 -141 -133 -145 0 -5 54 45 121 111 l121 120 81 100 c73 91
242 288 305 357 14 15 23 30 20 33 -2 3 -61 -59 -129 -137z"/>
<path d="M75968 48803 l-48 -4 0 -10 0 -9 39 0 c44 0 71 8 71 21 0 5 -3 8 -7
7 -5 -1 -29 -3 -55 -5z"/>
<path d="M36079 48725 c-3 -2 -102 -9 -220 -15 -117 -6 -225 -14 -238 -16 -61
-13 5 -12 225 1 l239 15 30 9 30 9 -31 1 c-17 1 -33 -1 -35 -4z"/>
<path d="M39660 48690 l0 -9 43 -11 c23 -6 55 -15 71 -21 l30 -9 10 10 9 9
-14 5 c-19 7 -135 36 -143 36 -3 0 -6 -4 -6 -10z"/>
<path d="M39950 48690 c0 -5 2 -10 4 -10 2 0 88 -20 192 -44 l189 -44 33 5 32
5 0 10 0 10 -32 -5 -33 -4 -190 43 c-218 51 -195 47 -195 34z"/>
<path d="M35833 48671 l-221 -16 -9 -8 -8 -9 70 7 c39 3 160 12 269 20 109 8
201 17 204 20 7 7 -51 5 -305 -14z"/>
<path d="M43223 48670 l-21 -9 -7 -31 -7 -31 12 -14 12 -14 -24 -5 c-12 -3
-93 -10 -178 -16 -85 -6 -157 -13 -159 -16 -2 -2 7 -4 20 -4 42 0 333 22 348
26 l13 4 -16 25 -16 24 12 26 11 25 21 1 c12 1 27 1 35 0 l13 -2 -7 10 -6 11
-17 -1 c-9 0 -27 -4 -39 -9z"/>
<path d="M34822 48654 c-123 -7 -229 -15 -235 -19 l-12 -5 105 5 c58 2 167 7
243 11 l137 7 0 8 c0 5 -3 8 -7 8 -5 -1 -109 -8 -231 -15z"/>
<path d="M39947 48640 l-5 -20 9 0 9 0 0 20 c0 11 -2 20 -4 20 -2 0 -6 -9 -9
-20z"/>
<path d="M46727 48639 c-10 -6 -64 -26 -120 -45 l-101 -34 -70 0 -71 0 -37
-11 -38 -10 0 -11 0 -10 28 6 c15 4 68 9 117 12 l90 5 95 31 c96 31 140 53
140 69 0 12 -11 11 -33 -2z"/>
<path d="M34475 48630 l-6 -10 25 0 25 0 6 10 6 10 -25 0 -25 0 -6 -10z"/>
<path d="M33890 48605 c-223 -13 -418 -25 -435 -28 l-30 -4 40 -1 c62 -3 947
47 953 53 8 8 -92 4 -528 -20z"/>
<path d="M13138 48605 c-20 -7 -96 -25 -168 -40 l-132 -27 -63 4 -63 3 5 -12
5 -13 68 0 67 0 104 21 c57 11 132 29 167 40 l62 21 -6 9 c-3 5 -6 9 -7 8 -1
0 -19 -7 -39 -14z"/>
<path d="M66371 48586 l11 -24 -15 -31 -15 -31 8 0 c13 0 27 23 34 57 l7 32
-20 11 -21 11 11 -25z"/>
<path d="M33924 48360 l30 -220 9 0 8 0 -5 18 c-2 9 -17 108 -32 220 -16 111
-31 202 -34 202 -3 0 8 -99 24 -220z"/>
<path d="M40536 48551 l-8 -12 6 -6 6 -6 6 6 c3 3 4 11 2 18 l-4 13 -8 -13z"/>
<path d="M33163 48527 l-193 -9 0 -10 0 -9 18 5 c9 2 105 8 213 11 l197 7 13
9 14 9 -35 -2 c-19 -1 -122 -6 -227 -11z"/>
<path d="M44750 48431 c-14 -3 -49 -20 -79 -36 l-54 -30 -76 -67 c-42 -36
-110 -100 -151 -142 l-74 -76 10 -10 9 -9 127 124 126 124 78 51 79 50 122 0
122 0 -5 15 -6 15 -102 -1 c-55 -1 -112 -4 -126 -8z"/>
<path d="M44400 48289 c-142 -119 -166 -144 -149 -151 3 -2 76 57 163 130
l156 133 -5 10 c-4 5 -7 9 -8 9 -2 0 -72 -59 -157 -131z"/>
<path d="M80646 48312 l-8 -13 42 -197 c24 -108 44 -199 46 -201 2 -2 7 -2 10
1 l6 6 -38 179 c-20 98 -40 191 -43 208 l-7 30 -8 -13z"/>
<path d="M34570 48291 c0 -47 94 -638 131 -823 l41 -203 5 -347 5 -348 9 0 9
0 0 268 -1 267 -9 100 -9 100 -40 210 c-22 116 -59 342 -83 503 l-43 292 -7 0
-8 0 0 -19z"/>
<path d="M37408 48126 l-216 -11 -9 -9 -8 -9 70 6 c39 4 143 9 233 13 l162 7
0 8 c0 5 -3 8 -7 8 -5 -1 -106 -7 -225 -13z"/>
<path d="M29387 47950 c3 -80 9 -181 13 -225 l8 -80 -5 180 c-3 99 -9 200 -13
225 l-8 45 5 -145z"/>
<path d="M36480 48072 c-212 -12 -240 -16 -229 -26 5 -6 460 22 466 28 12 11
-29 11 -237 -2z"/>
<path d="M44286 48001 l-6 -9 24 -15 23 -16 15 -33 16 -33 7 -157 7 -158 10 0
10 0 -7 163 -7 162 -15 33 -15 32 -29 20 -28 20 -5 -9z"/>
<path d="M71675 47790 c-32 -121 -56 -223 -53 -225 3 -3 19 47 37 112 17 65
44 166 60 226 l29 107 -7 0 -8 0 -58 -220z"/>
<path d="M45399 47838 c0 -62 -6 -291 -13 -508 -7 -217 -11 -397 -9 -399 2 -2
5 -2 7 0 2 2 9 211 15 464 6 253 14 481 17 508 l5 47 -11 0 -10 0 -1 -112z"/>
<path d="M51066 47911 l-6 -9 34 -73 c18 -41 43 -108 56 -149 12 -41 35 -104
52 -139 l29 -64 15 15 15 15 -24 54 c-14 30 -33 81 -42 114 -9 33 -35 102 -58
153 l-41 92 -12 0 c-7 0 -15 -4 -18 -9z"/>
<path d="M76040 47756 l0 -26 10 0 10 0 0 19 0 20 -10 6 -10 6 0 -25z"/>
<path d="M34020 47674 c0 -31 27 -190 52 -307 l23 -108 70 5 c39 3 165 11 280
17 116 6 212 13 215 16 3 3 -51 3 -120 -1 -69 -3 -195 -9 -280 -12 l-155 -7
-22 99 c-13 54 -30 146 -38 203 -15 98 -25 139 -25 95z"/>
<path d="M22230 47525 l0 -85 10 0 10 0 0 85 0 85 -10 0 -10 0 0 -85z"/>
<path d="M22343 47558 c-13 -6 -23 -15 -23 -20 l0 -9 30 16 c45 23 38 35 -7
13z"/>
<path d="M71637 47486 c-4 -10 -7 -25 -6 -34 l0 -17 10 24 c5 13 8 29 6 35
l-3 10 -7 -18z"/>
<path d="M41484 47453 c-3 -16 -11 -41 -16 -57 l-11 -28 -49 -30 -48 -30 0
-15 0 -15 56 7 56 7 -7 -22 -7 -22 7 -34 6 -34 15 0 15 0 -7 23 c-10 28 -10
55 -1 91 l8 29 -37 -6 -38 -6 31 28 31 28 11 39 c6 22 11 47 11 57 l0 17 -10
0 -10 0 -6 -27z"/>
<path d="M90161 47290 c-78 -88 -145 -168 -148 -178 -4 -9 62 61 146 156 84
95 151 175 149 178 -3 2 -69 -68 -147 -156z"/>
<path d="M36868 47403 l-158 -4 0 -11 0 -10 31 6 c17 3 98 6 180 6 l149 0 0
10 0 10 -22 -2 c-13 -1 -94 -4 -180 -5z"/>
<path d="M42590 47203 c0 -113 2 -204 4 -202 2 2 7 95 10 207 l7 202 -10 0
-11 0 0 -207z"/>
<path d="M36088 47376 l-196 -11 -9 -9 -8 -9 60 6 c33 4 134 9 225 13 l165 6
15 9 15 8 -35 -1 c-19 0 -124 -6 -232 -12z"/>
<path d="M47245 47309 l30 -35 79 -252 c44 -139 81 -250 84 -248 6 7 -157 518
-171 534 -5 7 -20 18 -31 24 l-21 11 30 -34z"/>
<path d="M34975 47320 c-60 -4 -132 -8 -159 -9 l-49 -1 6 -6 6 -6 160 7 161 8
0 8 c0 5 -3 8 -7 7 -5 -1 -57 -5 -118 -8z"/>
<path d="M35862 47285 c-1 -27 5 -165 13 -305 8 -140 15 -276 15 -302 l0 -48
8 0 7 0 -17 327 c-9 180 -19 339 -21 353 l-4 25 -1 -50z"/>
<path d="M34710 47300 l0 -13 7 6 6 7 -6 7 -7 6 0 -13z"/>
<path d="M35075 47282 c-277 -13 -316 -16 -304 -25 7 -6 710 31 716 37 l6 6
-59 -1 c-32 -1 -194 -9 -359 -17z"/>
<path d="M34686 47183 c2 -54 7 -135 10 -180 l6 -83 9 0 9 0 -5 118 c-3 64 -8
145 -11 180 l-6 62 -9 0 -8 0 5 -97z"/>
<path d="M51130 47143 c27 -57 52 -103 54 -103 8 0 -65 155 -85 180 l-20 25
51 -102z"/>
<path d="M18370 47196 c0 -9 165 -343 176 -356 7 -8 132 -260 278 -560 147
-299 271 -549 277 -555 20 -19 -524 1099 -547 1126 -7 8 -50 90 -94 182 -70
144 -90 181 -90 163z"/>
<path d="M41722 47167 l-22 -34 -25 -11 c-14 -7 -35 -12 -45 -12 l-20 0 0 -16
0 -15 23 6 c12 3 38 13 57 21 l35 15 18 31 18 31 -9 9 -9 9 -21 -34z"/>
<path d="M46394 47158 l-29 -33 26 23 26 23 44 8 44 9 -41 1 -40 1 -30 -32z"/>
<path d="M41574 47093 c17 -61 26 -108 32 -180 l7 -83 14 0 15 0 -6 38 c-3 20
-8 62 -11 92 -3 30 -11 76 -17 103 l-12 47 -14 0 -13 0 5 -17z"/>
<path d="M21562 47078 l4 -12 55 -11 c30 -6 64 -17 76 -23 l21 -12 44 -63 c24
-34 53 -84 64 -110 19 -47 28 -55 38 -38 l6 9 -21 48 c-12 27 -40 75 -62 107
l-41 59 -36 18 c-28 14 -122 40 -146 40 -3 0 -4 -6 -2 -12z"/>
<path d="M44346 46998 c-10 -97 -27 -471 -21 -476 12 -12 14 12 24 203 6 110
13 228 16 263 l6 62 -10 0 -10 0 -5 -52z"/>
<path d="M55850 46945 c-113 -57 -200 -104 -195 -104 6 0 102 47 215 104 113
57 201 104 195 104 -5 0 -102 -47 -215 -104z"/>
<path d="M46312 46945 l0 -30 5 18 c2 9 2 23 0 30 l-5 12 0 -30z"/>
<path d="M28238 46943 c6 -2 18 -2 25 0 l12 5 -25 0 -25 0 13 -5z"/>
<path d="M39662 46795 c-1 -38 3 -123 8 -187 l9 -117 11 -18 11 -18 -6 25 c-3
14 -10 97 -16 185 -11 190 -16 225 -17 130z"/>
<path d="M29447 46650 c3 -74 9 -173 13 -220 l8 -85 -5 200 -6 200 -8 20 -8
20 6 -135z"/>
<path d="M19747 46498 c47 -128 89 -237 94 -243 l10 -10 -24 65 c-13 36 -53
145 -88 242 -35 98 -67 178 -70 178 -3 0 32 -105 78 -232z"/>
<path d="M49876 46632 l-6 -10 13 -9 c6 -6 22 -13 35 -16 l23 -5 -4 11 -4 12
-19 4 c-10 2 -22 8 -25 13 l-6 10 -7 -10z"/>
<path d="M36498 46590 c-7 -24 -3 -38 8 -28 3 4 4 17 2 30 l-3 23 -7 -25z"/>
<path d="M51473 46522 l-12 -8 7 -10 7 -11 37 5 37 4 -6 14 -5 14 -27 0 c-14
0 -31 -4 -38 -8z"/>
<path d="M42566 46284 c-4 -130 -5 -238 -3 -241 5 -5 15 167 20 360 l3 117 -6
0 -7 0 -7 -236z"/>
<path d="M42619 46519 c-3 -12 -35 -945 -32 -948 2 -2 5 -2 7 0 5 6 35 943 30
948 -2 2 -4 2 -5 0z"/>
<path d="M35420 46500 c-58 -4 -129 -8 -157 -9 l-53 -1 0 -16 0 -16 38 6 c20
3 100 8 177 11 77 3 159 8 182 12 l43 5 -6 9 -5 9 -57 -2 c-31 -1 -104 -5
-162 -8z"/>
<path d="M31788 46445 l-178 -12 -7 -6 -6 -7 5 -6 6 -6 216 13 216 13 0 13 0
13 -37 -1 c-21 -1 -118 -7 -215 -14z"/>
<path d="M47666 46314 c40 -126 91 -291 146 -477 11 -37 22 -66 25 -64 8 9
-191 653 -208 671 -4 5 12 -54 37 -130z"/>
<path d="M34694 46378 c3 -24 11 -105 17 -180 l13 -138 8 0 8 0 0 33 c0 17 -7
95 -15 172 -8 77 -15 143 -15 148 0 4 -5 7 -11 7 l-11 0 6 -42z"/>
<path d="M47551 46413 c-1 -16 90 -306 99 -317 7 -7 -74 267 -92 314 l-6 15
-1 -12z"/>
<path d="M30545 46390 c-66 -4 -148 -8 -182 -9 l-63 -1 0 -16 0 -16 148 6 c81
4 173 9 205 12 l58 6 -4 12 -4 11 -19 1 c-10 0 -73 -2 -139 -6z"/>
<path d="M30680 46340 c0 -14 5 -32 10 -40 l10 -15 0 25 c0 14 -5 32 -10 40
l-10 15 0 -25z"/>
<path d="M51670 46344 l0 -15 10 6 c6 3 10 10 10 16 0 5 -4 9 -10 9 l-10 0 0
-16z"/>
<path d="M31170 46298 c-129 -5 -286 -11 -347 -14 l-113 -6 0 -9 0 -10 303 7
c166 4 371 9 456 13 l154 6 5 13 4 12 -114 -2 c-62 -1 -219 -5 -348 -10z"/>
<path d="M54345 46190 l-6 -10 10 0 c6 0 11 5 11 10 0 6 -2 10 -4 10 -3 0 -8
-4 -11 -10z"/>
<path d="M52211 46105 c-1 -9 101 -227 308 -660 48 -99 183 -384 301 -632 118
-249 219 -453 223 -453 l8 0 -10 18 c-5 9 -120 251 -256 537 -532 1121 -573
1206 -574 1190z"/>
<path d="M93091 46095 l15 -15 75 -13 76 -14 24 -16 23 -17 51 0 50 0 63 30
62 29 0 11 0 10 -70 -35 -70 -35 -34 0 -35 0 -35 21 -35 20 -68 10 -68 10 -9
9 c-6 6 -15 10 -20 10 l-10 0 15 -15z"/>
<path d="M81344 45948 l-7 -11 11 7 c7 4 12 9 12 12 0 8 -9 4 -16 -8z"/>
<path d="M46915 45835 c-126 -41 -239 -75 -250 -76 l-20 -1 17 -5 17 -4 243
76 c134 43 245 79 247 81 13 12 -47 -5 -254 -71z"/>
<path d="M81370 45886 c-4 -13 -14 -43 -20 -67 -6 -24 -20 -68 -32 -97 l-21
-53 -29 -6 -29 -6 8 -21 c8 -24 8 -41 -2 -76 l-6 -25 15 25 15 25 -5 32 -6 32
25 6 26 7 15 38 c19 48 65 210 60 210 -3 0 -9 -11 -14 -24z"/>
<path d="M81315 45838 c-3 -13 -15 -48 -26 -79 l-21 -57 -21 -10 -22 -11 15 0
c8 0 21 3 28 7 l12 8 19 55 c22 65 33 109 27 109 -3 0 -7 -10 -11 -22z"/>
<path d="M51900 45760 l0 -9 15 5 c8 4 15 8 15 10 0 2 -7 4 -15 4 l-15 0 0
-10z"/>
<path d="M36025 45753 c-22 -2 -55 -6 -73 -9 l-34 -5 -86 -76 c-48 -42 -91
-80 -96 -85 l-10 -8 11 0 c5 0 48 34 94 75 l84 75 35 10 c19 5 60 10 90 11 30
0 75 4 100 8 l45 8 -60 0 c-33 0 -78 -2 -100 -4z"/>
<path d="M15393 45430 c4 -41 9 -130 13 -197 l7 -122 6 4 7 3 -12 187 -13 187
-7 6 -7 7 6 -75z"/>
<path d="M50446 45449 c-16 -50 -97 -411 -94 -420 2 -6 27 87 55 207 29 120
50 220 48 222 -3 3 -7 -1 -9 -9z"/>
<path d="M50427 45208 l-57 -242 -18 -19 -17 -19 -165 -84 c-91 -45 -159 -83
-152 -83 7 -1 83 34 170 78 l157 79 17 19 17 19 59 247 c32 136 56 247 53 247
-4 0 -33 -109 -64 -242z"/>
<path d="M34513 45240 c3 -36 11 -147 18 -247 l13 -183 7 0 8 0 -5 48 c-2 26
-11 134 -19 241 l-14 193 -7 7 -7 6 6 -65z"/>
<path d="M45790 45243 c0 -9 251 -185 312 -220 l40 -23 10 6 9 6 -68 42 c-37
23 -117 77 -177 119 -105 74 -126 86 -126 70z"/>
<path d="M35158 45069 c-101 -89 -185 -163 -187 -165 -2 -2 0 -4 6 -4 10 0
373 317 373 325 0 12 -19 -4 -192 -156z"/>
<path d="M16960 44875 l0 -20 20 -25 c28 -37 32 -20 4 25 l-24 40 0 -20z"/>
<path d="M48820 44826 c0 -5 61 -127 136 -272 l135 -264 32 14 c74 31 491 245
479 245 -8 1 -121 -53 -251 -119 -130 -66 -241 -120 -246 -120 l-10 0 -120
233 c-122 239 -155 298 -155 283z"/>
<path d="M55856 44564 c-48 -25 -86 -48 -83 -50 3 -3 42 13 88 36 l83 42 12
-17 c7 -9 44 -79 84 -156 l71 -139 26 -17 26 -17 151 -18 c83 -9 157 -17 165
-17 l14 -1 -6 6 c-3 4 -76 14 -161 24 l-156 18 -25 16 -25 17 -80 159 c-44 88
-83 160 -88 159 -4 0 -47 -20 -96 -45z"/>
<path d="M58441 44453 c-12 -8 -21 -19 -21 -24 l0 -10 19 11 c11 5 29 10 40
10 l21 0 0 9 c0 5 -9 11 -19 14 l-20 5 -20 -15z"/>
<path d="M52876 44319 c-71 -38 -137 -69 -145 -69 -9 0 -23 -5 -31 -10 l-15
-11 30 4 30 3 133 68 132 67 0 10 c0 5 -1 8 -2 8 -2 -1 -61 -32 -132 -70z"/>
<path d="M52609 44223 c21 -42 34 -52 45 -35 l5 9 -36 34 -35 34 21 -42z"/>
<path d="M52342 44005 l-72 -45 -77 -20 c-42 -11 -86 -20 -97 -20 -12 0 -27
-4 -35 -9 l-14 -9 6 -9 6 -10 73 13 c121 22 174 44 286 120 2 1 2 9 0 18 l-3
15 -73 -44z"/>
<path d="M34506 43480 c-22 -56 -129 -215 -179 -267 l-41 -43 10 0 c18 0 80
73 143 168 l62 93 15 41 c19 54 11 60 -10 8z"/>
<path d="M40900 43510 l-75 -7 -62 -21 -63 -20 -50 -32 c-28 -18 -49 -35 -46
-37 3 -3 22 5 43 18 58 37 105 56 181 74 l71 17 70 -4 71 -4 -8 7 c-13 14 -56
16 -132 9z"/>
<path d="M59500 43462 c0 -9 325 -237 354 -248 l16 -6 0 8 c-1 8 -339 244
-361 252 l-9 4 0 -10z"/>
<path d="M77050 43238 c-107 -16 -197 -32 -199 -34 -2 -2 -2 -7 1 -10 l6 -5
226 33 226 33 0 7 0 8 -32 -1 c-18 -1 -121 -15 -228 -31z"/>
<path d="M52432 43247 c-7 -8 -86 -49 -177 -92 -91 -43 -165 -82 -165 -86 0
-9 336 153 353 170 l11 11 -6 5 -5 5 -11 -13z"/>
<path d="M52476 43242 l-7 -20 -37 -25 c-20 -13 -103 -55 -185 -93 -81 -38
-143 -70 -138 -72 7 -2 274 120 339 156 l23 13 10 26 c5 14 8 28 5 30 -2 3 -7
-4 -10 -15z"/>
<path d="M41430 43202 c0 -6 43 -109 96 -229 52 -120 93 -209 91 -198 -5 21
-176 427 -183 434 -2 2 -4 -1 -4 -7z"/>
<path d="M52081 43032 c-1 -17 189 -395 195 -389 3 3 -40 94 -95 203 -55 110
-100 193 -100 186z"/>
<path d="M51340 42937 c0 -29 40 -291 51 -331 14 -53 22 -39 9 18 -6 26 -19
108 -30 183 -18 123 -30 174 -30 130z"/>
<path d="M41470 42666 l-135 -61 -38 -29 c-21 -16 -43 -39 -49 -50 l-11 -21
34 33 c44 43 88 68 224 128 119 51 120 52 114 57 -2 2 -65 -24 -139 -57z"/>
<path d="M31771 42498 l-164 -168 7 -7 7 -7 120 119 c134 133 202 211 197 223
l-3 8 -164 -168z"/>
<path d="M91433 42416 c-117 -62 -221 -120 -232 -130 l-19 -17 -7 -36 c-10
-53 -13 -95 -18 -233 l-5 -125 8 60 c5 33 13 118 19 189 l10 129 23 23 23 22
205 107 c113 59 209 112 215 116 l9 9 -9 -1 c-6 0 -106 -51 -222 -113z"/>
<path d="M50832 42490 c-73 -10 -136 -20 -139 -24 l-6 -6 15 0 c27 0 323 41
327 46 8 7 -62 2 -197 -16z"/>
<path d="M51509 42136 l-5 -6 28 -202 c15 -112 28 -211 28 -220 l0 -18 8 0 8
0 -27 203 c-15 111 -29 213 -31 225 l-3 24 -6 -6z"/>
<path d="M31042 41812 l-169 -237 -54 -50 c-30 -28 -89 -77 -131 -109 -69 -52
-92 -76 -72 -76 11 0 210 159 245 197 20 21 111 142 202 270 l166 232 -8 6 -9
5 -170 -238z"/>
<path d="M66802 41850 l2 -29 -22 -24 c-26 -27 -28 -37 -8 -37 l15 0 21 30 22
30 -7 30 -7 30 -9 0 -9 0 2 -30z"/>
<path d="M54390 41812 c0 -4 16 -24 36 -43 45 -42 257 -305 314 -388 l41 -61
10 0 10 0 -7 13 c-78 133 -334 449 -386 478 l-18 10 0 -9z"/>
<path d="M46181 41675 c-112 -41 -206 -76 -209 -79 l-5 -6 11 0 c18 0 406 140
416 150 l10 10 -9 0 c-6 -1 -102 -34 -214 -75z"/>
<path d="M82732 41628 c33 -50 451 -733 544 -888 197 -330 354 -583 609 -982
l260 -408 13 0 c6 0 12 2 12 4 0 3 -118 188 -261 413 -144 224 -304 480 -357
568 -133 224 -330 545 -587 960 l-219 355 -14 0 -14 0 14 -22z"/>
<path d="M41211 41495 c-1 -114 -12 -255 -25 -320 l-6 -30 14 30 13 30 11 145
12 145 -9 60 -8 60 -2 -120z"/>
<path d="M56040 41351 l0 -11 162 0 c89 0 159 2 157 4 -2 2 -75 7 -161 10
l-158 7 0 -10z"/>
<path d="M30336 41084 l-300 -224 -80 -26 -80 -25 -97 -1 -97 0 -59 33 c-32
18 -92 58 -133 89 -41 31 -80 59 -87 63 l-12 7 -5 -9 -6 -9 98 -70 c54 -38
123 -82 152 -98 l55 -28 96 1 95 0 85 28 84 27 295 221 c162 121 297 221 299
223 1 1 1 7 0 13 l-4 10 -299 -225z"/>
<path d="M56862 41303 c70 -2 187 -2 260 0 l133 3 -260 0 -260 0 127 -3z"/>
<path d="M30108 40980 l-108 -78 -62 -15 c-35 -9 -75 -19 -90 -22 l-28 -5 0
-9 0 -8 53 9 c28 5 74 16 102 25 l49 16 96 70 c52 38 99 73 103 77 l9 8 -9 5
-8 5 -107 -78z"/>
<path d="M56858 40883 c61 -2 163 -2 225 0 l112 3 -225 0 -225 0 113 -3z"/>
<path d="M97193 40677 c-101 -34 -183 -65 -183 -69 0 -6 378 117 388 127 13
13 -36 -1 -205 -58z"/>
<path d="M86380 40589 l-35 -50 -77 -58 -76 -59 -61 -28 c-33 -16 -60 -33 -60
-37 l-1 -8 23 6 c35 11 137 75 199 125 l57 45 41 58 c23 31 37 57 33 57 -4 0
-24 -23 -43 -51z"/>
<path d="M49145 40458 c-2 -7 -13 -65 -24 -127 l-21 -115 -40 -74 -41 -75 6
-5 5 -6 15 20 c9 10 28 44 44 74 l29 55 21 110 c12 61 24 120 27 133 l4 22
-10 0 c-6 0 -12 -6 -15 -12z"/>
<path d="M46518 40094 l-6 -9 14 -25 13 -25 0 15 c0 8 -4 24 -8 34 l-8 20 -5
-10z"/>
<path d="M65845 40050 l-6 -9 30 -16 c17 -8 40 -15 51 -15 l22 0 -4 -7 c-44
-86 -94 -231 -83 -242 9 -8 15 5 35 73 l19 68 35 63 35 64 -9 6 -10 6 0 -9 0
-10 -33 7 c-18 5 -42 13 -54 19 l-22 12 -6 -10z"/>
<path d="M54676 40022 l-5 -8 125 -182 125 -181 14 6 15 5 -63 92 c-35 50 -92
133 -127 184 -62 90 -73 101 -84 84z"/>
<path d="M84816 39970 c4 -8 49 -76 99 -150 51 -74 106 -161 124 -192 18 -32
37 -61 43 -64 l11 -7 -33 59 c-44 79 -207 324 -233 349 l-20 20 9 -15z"/>
<path d="M81060 39966 c0 -12 234 -386 242 -386 7 0 -214 365 -233 385 l-9 9
0 -8z"/>
<path d="M84780 39956 c0 -4 34 -58 77 -119 42 -62 220 -346 395 -632 175
-286 323 -521 328 -523 23 -8 -736 1213 -791 1273 l-9 9 0 -8z"/>
<path d="M48348 39853 c-24 -32 -75 -97 -112 -145 l-68 -88 10 0 c11 0 226
279 220 286 -3 2 -25 -22 -50 -53z"/>
<path d="M95274 39882 c-69 -37 -314 -204 -314 -214 0 -4 2 -8 5 -8 2 0 74 47
159 105 85 58 169 110 186 116 l30 11 0 9 c0 14 -10 11 -66 -19z"/>
<path d="M62135 39813 c14 -14 404 -177 410 -171 4 4 -338 153 -400 174 l-20
7 10 -10z"/>
<path d="M45410 39655 c0 -11 5 -27 10 -35 l10 -15 0 20 c0 11 -5 27 -10 35
l-10 15 0 -20z"/>
<path d="M40443 39480 l-32 -7 -90 -84 c-50 -46 -91 -88 -91 -92 0 -5 42 30
94 78 l94 86 34 5 34 6 53 -16 c67 -20 131 -57 197 -113 l50 -43 89 -120 c49
-66 93 -120 98 -120 l9 0 -9 13 c-6 6 -51 66 -100 132 l-91 120 -48 40 c-65
54 -117 83 -189 106 -33 10 -62 18 -65 18 -3 -1 -19 -4 -37 -9z"/>
<path d="M51160 39242 c8 -3 104 -34 213 -68 l197 -62 0 7 c0 8 -397 132 -415
130 l-10 -1 15 -6z"/>
<path d="M41775 39119 c-28 -17 -66 -37 -85 -44 l-35 -13 -123 -7 -122 -7 -5
-8 -5 -8 113 5 112 4 45 11 44 12 64 37 c35 20 66 40 69 43 l6 6 -14 0 c-8 0
-37 -14 -64 -31z"/>
<path d="M51529 39069 c-55 -203 -96 -369 -91 -369 9 0 114 401 108 407 -3 3
-10 -15 -17 -38z"/>
<path d="M52902 38855 c5 -5 841 -165 862 -165 l9 0 -5 5 c-5 6 -839 165 -861
165 -6 0 -8 -2 -5 -5z"/>
<path d="M55666 38844 c-4 -9 -5 -18 -4 -19 2 -1 88 -57 191 -124 l188 -122 9
6 c6 3 10 10 10 15 0 4 -78 59 -172 120 -95 62 -183 119 -194 127 l-22 14 -6
-17z"/>
<path d="M59970 38783 c0 -4 28 -53 62 -111 l61 -104 79 -69 c43 -38 81 -69
85 -69 3 0 -32 37 -78 83 l-84 84 -58 96 c-54 90 -67 108 -67 90z"/>
<path d="M46230 38383 c0 -5 11 -20 25 -33 l25 -23 7 6 c3 4 4 8 2 10 -2 1
-16 13 -31 26 l-28 24 0 -10z"/>
<path d="M89040 38229 c-91 -60 -167 -115 -169 -121 l-4 -12 29 19 c221 144
314 209 314 216 0 12 18 22 -170 -102z"/>
<path d="M34580 38189 l0 -20 10 6 c6 3 10 13 10 21 l0 14 -10 0 -10 0 0 -21z"/>
<path d="M34585 38087 l-7 -18 6 -6 6 -6 6 6 c3 3 4 14 1 24 l-4 18 -8 -18z"/>
<path d="M91187 37658 c6 -35 20 -58 34 -58 l8 0 -15 28 c-7 15 -14 35 -14 45
l0 17 -10 0 -9 0 6 -32z"/>
<path d="M92803 37611 l6 -24 -10 -20 -11 -19 14 4 13 5 3 27 4 28 -13 12 -12
11 6 -24z"/>
<path d="M60252 37285 c-19 -8 -77 -26 -130 -39 -54 -13 -131 -34 -172 -46
l-75 -23 12 -4 11 -4 104 30 c56 16 119 32 138 36 19 3 61 15 93 27 l57 20 0
9 c0 11 2 11 -38 -6z"/>
<path d="M62570 37195 c0 -6 19 -37 42 -70 l42 -61 138 -92 138 -92 0 10 0 9
-129 85 -129 84 -42 58 c-24 33 -47 63 -51 69 l-9 9 0 -9z"/>
<path d="M85900 36321 c0 -32 257 -331 284 -331 l10 0 -60 63 c-75 78 -151
168 -193 230 -32 47 -41 55 -41 38z"/>
<path d="M39857 36140 c3 -80 9 -190 13 -245 l8 -100 -5 225 -6 225 -8 20 -8
20 6 -145z"/>
<path d="M53676 36044 c-9 -24 -7 -28 9 -14 17 14 20 30 6 30 -5 0 -12 -7 -15
-16z"/>
<path d="M34605 35991 c-17 -4 -44 -16 -60 -26 -38 -24 -115 -96 -115 -108 0
-6 22 11 49 36 l48 45 41 21 41 21 46 0 46 0 27 -14 c15 -7 38 -16 52 -20 l25
-7 -45 25 -45 24 -40 5 -40 5 -30 -7z"/>
<path d="M53585 35933 c-27 -31 -44 -54 -39 -52 14 6 98 99 93 104 -3 2 -27
-21 -54 -52z"/>
<path d="M53754 35945 l-6 -46 6 -6 c9 -10 13 -2 20 50 l7 47 -10 0 -10 0 -7
-45z"/>
<path d="M41769 35677 l13 -17 -4 -25 -5 -25 9 0 9 0 -3 37 -3 36 -15 5 -15 5
14 -16z"/>
<path d="M35155 35631 c11 -10 83 -72 160 -136 l140 -116 47 -57 c26 -31 47
-60 48 -64 0 -3 29 -68 65 -144 l65 -137 6 5 5 6 -75 156 -75 156 -33 39 c-36
41 -352 311 -365 311 -4 0 1 -9 12 -19z"/>
<path d="M84840 35610 c-54 -36 -42 -40 15 -5 l40 24 40 0 40 0 26 -22 27 -22
58 -102 c32 -57 62 -103 66 -103 4 0 -21 48 -54 108 l-61 107 -26 22 -26 22
-50 1 -50 0 -45 -30z"/>
<path d="M84916 35603 c-21 -6 -464 -288 -486 -311 l-15 -15 15 8 c8 4 119 75
246 156 l231 149 27 0 26 0 20 -20 c11 -11 33 -45 49 -77 17 -32 44 -78 60
-103 l31 -45 0 17 c0 9 -4 20 -10 23 -5 3 -33 49 -61 101 l-51 94 -21 15 c-22
15 -28 16 -61 8z"/>
<path d="M52335 34864 c-94 -91 -158 -157 -143 -146 40 28 322 301 317 307 -3
2 -81 -70 -174 -161z"/>
<path d="M85420 34966 c0 -10 187 -314 208 -339 8 -9 17 -15 20 -12 3 3 -2 13
-10 22 -8 10 -55 83 -103 163 -49 80 -94 152 -102 160 l-13 14 0 -8z"/>
<path d="M85380 34947 c0 -10 158 -265 194 -312 16 -22 31 -42 33 -44 2 -2 5
-2 8 1 l6 5 -24 29 c-13 16 -62 90 -107 164 -79 128 -110 173 -110 157z"/>
<path d="M32510 34745 c0 -6 220 -117 358 -181 164 -76 98 -37 -128 76 -218
109 -230 115 -230 105z"/>
<path d="M59460 34479 c-96 -60 -177 -114 -179 -120 l-3 -10 83 52 c46 29 126
78 177 111 51 32 100 58 108 58 l14 0 0 10 0 10 -12 0 c-7 -1 -92 -50 -188
-111z"/>
<path d="M72573 34343 c119 -2 315 -2 435 0 l217 2 -435 0 -435 0 218 -2z"/>
<path d="M73260 34340 l0 -13 7 6 6 7 -6 7 -7 6 0 -13z"/>
<path d="M82670 34149 c-107 -72 -187 -129 -178 -126 20 7 378 245 378 252 0
8 0 9 -200 -126z"/>
<path d="M87280 34019 c-69 -44 -147 -94 -174 -110 -26 -17 -46 -32 -43 -35 4
-4 349 205 365 221 3 3 -1 5 -9 4 -8 0 -70 -37 -139 -80z"/>
<path d="M53978 34061 c-103 -14 -190 -29 -194 -34 l-8 -7 30 5 c16 3 114 16
218 30 104 14 192 27 194 30 9 9 -51 3 -240 -24z"/>
<path d="M63897 33896 l-6 -14 157 -93 c86 -50 167 -98 178 -106 l22 -14 5 14
5 13 -142 86 c-77 47 -157 96 -177 107 l-37 22 -5 -15z"/>
<path d="M65914 33615 l-100 -206 9 -6 9 -5 -5 -19 -5 -19 8 0 c5 0 12 10 15
21 l7 21 -12 8 -12 7 97 193 c53 105 95 196 93 202 l-4 10 -100 -207z"/>
<path d="M33350 33512 c0 -10 609 -296 615 -290 3 3 -34 23 -82 46 -49 22
-188 88 -310 146 -123 57 -223 101 -223 98z"/>
<path d="M65685 33207 c-54 -95 -110 -185 -124 -201 l-26 -29 15 5 15 5 26 39
c47 70 202 344 197 349 -2 2 -48 -73 -103 -168z"/>
<path d="M1620 33014 c8 -3 100 -10 203 -17 l189 -13 3 7 4 6 -177 11 c-97 7
-190 12 -207 11 l-30 -1 15 -4z"/>
<path d="M32062 32572 c-95 -52 -171 -96 -168 -99 5 -5 321 160 340 178 29 27
-17 6 -172 -79z"/>
<path d="M42330 32629 c0 -3 16 -52 35 -109 19 -57 35 -112 35 -122 l0 -18
-80 -84 c-44 -46 -80 -87 -80 -92 0 -11 111 98 152 148 l30 38 -37 112 c-31
94 -55 149 -55 127z"/>
<path d="M73110 32462 c-96 -14 -108 -17 -97 -28 l6 -6 101 12 100 12 0 9 c0
15 -15 15 -110 1z"/>
<path d="M74245 32379 c-220 -32 -485 -67 -590 -79 -183 -20 -531 -65 -587
-76 l-28 -6 0 -14 0 -14 23 5 c74 16 173 29 422 55 l280 29 454 66 c250 36
458 65 463 65 4 0 8 7 8 15 l0 15 -22 -1 c-13 -1 -203 -27 -423 -60z"/>
<path d="M70792 31837 l37 -32 7 -27 6 -27 20 -7 20 -6 141 12 c78 6 148 14
156 16 l14 5 -9 9 -10 10 -149 -14 c-82 -8 -152 -13 -156 -10 -4 2 -10 18 -14
34 l-7 30 -25 20 -26 20 -21 0 -21 0 37 -33z"/>
<path d="M98818 31737 l-27 -11 -10 -29 -11 -29 29 31 29 31 29 0 28 0 -15 10
c-17 11 -16 11 -52 -3z"/>
<path d="M98907 31692 c78 -120 270 -392 276 -392 4 0 -33 60 -83 133 -51 72
-115 167 -144 209 -28 43 -55 78 -59 78 l-9 0 19 -28z"/>
<path d="M81050 31703 l0 -10 387 -352 386 -352 11 11 10 10 -24 24 c-14 13
-178 157 -365 321 -187 164 -355 312 -372 328 l-33 31 0 -11z"/>
<path d="M41086 31603 c-3 -4 -6 -9 -6 -13 0 -12 108 -83 264 -174 l149 -87
161 -73 c89 -40 182 -80 208 -89 l48 -16 6 10 c8 14 7 14 -55 39 -30 11 -120
51 -200 88 l-146 66 -169 99 c-92 53 -187 111 -211 127 l-42 29 -7 -6z"/>
<path d="M31661 31049 l-21 -23 8 -8 9 -9 31 18 32 18 -3 10 c-2 6 -11 11 -19
13 l-16 3 -21 -22z"/>
<path d="M79867 30480 c9 -16 21 -30 26 -30 l8 0 -18 30 c-9 17 -21 30 -26 30
l-8 0 18 -30z"/>
<path d="M1655 30345 l-30 -25 21 0 21 0 23 25 23 25 -14 0 c-8 -1 -27 -12
-44 -25z"/>
<path d="M94987 29859 c-53 -40 -97 -76 -97 -82 l0 -9 33 24 c17 14 65 49 105
78 39 29 72 54 72 56 0 12 -25 -3 -113 -67z"/>
<path d="M73530 28705 c0 -13 253 -385 258 -380 4 4 -226 353 -249 380 l-9 9
0 -9z"/>
<path d="M75415 27850 l-6 -10 83 -93 c208 -233 416 -457 476 -514 l66 -62 9
6 9 5 -89 92 c-50 50 -157 165 -238 256 -82 91 -184 202 -226 248 l-77 83 -7
-11z"/>
<path d="M95307 26779 l-187 -138 7 -4 8 -5 170 124 c174 128 202 151 194 157
-2 3 -88 -58 -192 -134z"/>
<path d="M87395 25991 l-5 -9 188 -148 c103 -82 280 -226 394 -321 114 -95
209 -173 212 -173 4 0 6 4 6 8 0 11 -341 296 -592 495 l-197 156 -6 -8z"/>
<path d="M4444 25015 l6 -25 -44 -48 c-25 -26 -88 -81 -140 -122 -52 -41 -95
-78 -96 -82 -1 -18 23 -4 102 58 107 86 178 153 188 180 l9 22 -6 21 -5 21
-10 0 -10 0 6 -25z"/>
<path d="M87028 24893 l-47 -46 -26 17 -26 17 -17 -5 c-21 -7 -191 -176 -177
-176 6 0 46 36 90 80 l80 80 17 0 c9 0 20 -4 23 -10 l6 -10 23 0 22 0 44 45
c24 24 42 47 39 49 -3 3 -26 -16 -51 -41z"/>
<path d="M90891 24786 c2 -2 52 -18 110 -35 l106 -31 119 -50 c65 -27 123 -50
129 -50 5 1 -48 26 -120 57 l-130 56 -100 28 c-96 28 -123 34 -114 25z"/>
<path d="M170 23708 c0 -7 -15 -113 -34 -235 l-33 -223 8 0 c12 0 15 15 49
249 34 232 33 221 20 221 l-10 0 0 -12z"/>
<path d="M20446 21759 c-206 -27 -236 -32 -225 -44 6 -6 447 49 454 57 l6 6
-8 4 c-4 3 -106 -8 -227 -23z"/>
<path d="M86197 21334 c116 -124 228 -234 202 -199 -25 34 -290 310 -302 314
-7 2 38 -49 100 -115z"/>
<path d="M86731 20787 c-1 -15 935 -987 950 -987 22 0 4 23 -67 87 -42 37
-192 190 -334 338 -418 437 -549 571 -549 562z"/>
<path d="M92930 16991 c0 -9 646 -584 664 -590 19 -6 -39 47 -356 328 -170
149 -308 267 -308 262z"/>
<path d="M92177 16433 l-6 -10 96 -104 c53 -57 123 -132 156 -166 l59 -63 9 6
9 5 -147 157 c-80 86 -152 163 -159 170 l-12 14 -5 -9z"/>
<path d="M97135 13668 c-410 -480 -745 -877 -745 -882 l0 -10 9 10 c45 49
1491 1746 1491 1749 0 3 -2 5 -5 5 -2 0 -339 -392 -750 -872z"/>
<path d="M12180 6891 c0 -11 100 -70 273 -161 l137 -72 0 11 0 11 -109 55
c-60 30 -144 75 -187 101 -44 25 -87 50 -96 55 l-18 10 0 -10z"/>
<path d="M30321 1406 c-23 -19 -187 -143 -366 -277 l-325 -242 6 -8 5 -8 157
116 c135 100 528 396 568 429 8 6 14 14 14 18 0 14 -20 4 -59 -28z"/>
<path d="M17675 1200 l-5 -9 7 -4 c5 -3 209 -20 455 -38 l447 -33 7 7 c4 4 5
9 2 12 -3 3 -187 18 -409 35 -222 16 -425 31 -451 34 l-47 5 -6 -9z"/>
<path d="M18130 1117 l0 -13 208 -18 c114 -10 215 -20 225 -23 l17 -4 0 15 0
16 -17 0 c-10 0 -110 9 -223 20 -113 11 -206 20 -207 20 -2 0 -3 -6 -3 -13z"/>
<path d="M19495 1010 c-4 -6 -5 -13 -4 -14 2 -2 94 -8 204 -15 110 -7 212 -14
228 -17 l27 -6 0 16 0 16 -22 0 c-29 0 -284 18 -364 26 l-62 5 -7 -11z"/>
<path d="M29160 359 l-149 -172 5 -9 6 -10 8 9 c240 273 305 353 285 353 -3 0
-72 -77 -155 -171z"/>
</g>
</svg>
