<?xml version="1.0" standalone="no"?>
<!DOCTYPE svg PUBLIC "-//W3C//DTD SVG 20010904//EN"
 "http://www.w3.org/TR/2001/REC-SVG-20010904/DTD/svg10.dtd">
<svg version="1.0" xmlns="http://www.w3.org/2000/svg"
 width="7500.000000pt" height="7500.000000pt" viewBox="0 0 7500.000000 7500.000000"
 preserveAspectRatio="xMidYMid meet">
<metadata>
Created by potrace 1.16, written by Peter Selinger 2001-2019
</metadata>
<g transform="translate(0.000000,7500.000000) scale(0.075000,-0.075000)"
fill="#000000" stroke="none">
<path d="M23718 99950 c30 -28 62 -55 72 -60 l19 -10 5 9 6 9 -32 20 c-18 12
-46 34 -62 51 l-30 31 -15 0 -16 -1 53 -49z"/>
<path d="M83016 99241 c17 -10 105 -58 195 -106 90 -49 202 -111 249 -140 47
-28 94 -57 105 -63 37 -21 138 -62 143 -58 4 5 -64 36 -78 36 -3 0 -45 23 -91
52 -46 28 -142 84 -214 123 -71 40 -171 95 -222 123 -50 29 -98 52 -105 52
l-13 0 31 -19z"/>
<path d="M84350 98799 c-80 -4 -155 -5 -167 -2 l-23 5 0 -11 0 -12 188 7 187
7 25 8 25 7 -45 0 c-25 -1 -110 -5 -190 -9z"/>
<path d="M87745 97617 c41 -28 397 -208 401 -204 3 3 -87 53 -199 111 -188 97
-253 127 -202 93z"/>
<path d="M14080 96647 l0 -15 29 -7 30 -6 16 -26 17 -25 10 10 10 10 -17 25
-16 25 -24 6 c-13 3 -30 9 -39 12 l-16 6 0 -15z"/>
<path d="M98411 94883 c2 -6 41 -45 87 -86 l83 -77 102 -57 102 -57 123 -104
c68 -57 125 -102 128 -100 2 3 -51 52 -120 110 l-123 106 -103 58 -103 59 -90
79 c-49 44 -88 75 -86 69z"/>
<path d="M97896 94414 l-168 -172 7 -12 7 -12 30 29 c16 15 93 95 171 176
l140 148 -9 7 -9 7 -169 -171z"/>
<path d="M98270 94485 c102 -42 188 -74 193 -72 11 3 -344 147 -363 147 -8 -1
68 -34 170 -75z"/>
<path d="M87825 94133 l-6 -118 -20 -65 -21 -65 -72 -140 -72 -140 -87 -107
-87 -107 9 -5 9 -6 96 120 95 121 70 142 69 142 15 55 15 55 7 118 6 117 -9 0
-10 0 -7 -117z"/>
<path d="M5506 93512 c-10 -95 -17 -175 -14 -178 7 -7 41 295 37 326 l-4 25
-19 -173z"/>
<path d="M22393 92673 l7 -6 7 6 6 7 -13 0 -13 0 6 -7z"/>
<path d="M22433 92663 l7 -6 7 6 6 7 -13 0 -13 0 6 -7z"/>
<path d="M22468 92653 l13 -5 6 6 6 6 -19 -1 -19 -1 13 -5z"/>
<path d="M22506 92644 c5 -2 75 -24 154 -49 130 -40 165 -47 147 -29 -7 7
-286 84 -301 83 l-11 -1 11 -4z"/>
<path d="M5537 92284 l-7 -7 103 -111 c150 -163 307 -315 440 -428 l118 -99
11 3 11 4 -119 101 c-142 121 -303 277 -445 431 l-105 113 -7 -7z"/>
<path d="M53121 91741 c-1 -25 6 -83 15 -130 l16 -86 34 -70 c18 -38 41 -79
49 -89 l15 -20 5 6 6 6 -29 46 c-17 26 -39 70 -51 99 l-21 52 -19 115 -19 115
-1 -44z"/>
<path d="M95266 91551 l-138 -169 -25 -11 -24 -11 6 -9 5 -10 28 10 27 11 139
166 c132 159 148 183 129 189 l-8 3 -139 -169z"/>
<path d="M26863 91403 l7 -6 7 6 6 7 -13 0 -13 0 6 -7z"/>
<path d="M26898 91393 l13 -5 6 6 6 6 -19 -1 -19 -1 13 -5z"/>
<path d="M26933 91383 l7 -6 7 6 6 7 -13 0 -13 0 6 -7z"/>
<path d="M26968 91373 l13 -5 6 6 6 6 -19 -1 -19 -1 13 -5z"/>
<path d="M27003 91363 l7 -6 7 6 6 7 -13 0 -13 0 6 -7z"/>
<path d="M27038 91353 l13 -5 6 6 6 6 -19 -1 -19 -1 13 -5z"/>
<path d="M27073 91343 l7 -6 7 6 6 7 -13 0 -13 0 6 -7z"/>
<path d="M27103 91333 l7 -6 7 6 6 7 -13 0 -13 0 6 -7z"/>
<path d="M27143 91323 l7 -6 7 6 6 7 -13 0 -13 0 6 -7z"/>
<path d="M94625 91207 l-18 -14 12 -8 13 -7 11 11 11 11 27 0 28 0 6 10 6 10
-38 0 -39 0 -19 -13z"/>
<path d="M94776 91182 l-5 -8 19 -12 19 -12 6 10 6 10 -6 10 c-7 12 -32 13
-39 2z"/>
<path d="M94406 91172 c39 -34 94 -72 105 -72 l12 0 -56 40 c-30 22 -59 40
-63 40 l-8 0 10 -8z"/>
<path d="M94845 91109 l-6 -15 9 -24 9 -23 -18 -36 c-9 -20 -31 -49 -48 -65
l-31 -29 -55 -5 -55 -4 0 -8 c0 -4 14 -10 31 -14 l32 -6 41 11 41 11 27 26 28
25 9 31 c5 17 9 49 10 71 l1 40 -9 15 -10 14 -6 -15z"/>
<path d="M94507 91079 c-10 -6 -38 -38 -63 -72 l-45 -62 -159 -167 -160 -167
8 -5 8 -5 165 167 165 167 45 60 44 60 3 -22 3 -23 10 0 9 0 0 40 0 40 -7 0
c-5 0 -16 -5 -26 -11z"/>
<path d="M94565 90960 l-6 -10 6 -10 c7 -12 32 -13 39 -2 l5 8 -19 12 -19 12
-6 -10z"/>
<path d="M95010 90724 c0 -6 24 -34 53 -62 l54 -50 59 -30 c84 -42 214 -95
220 -89 3 2 -33 19 -78 38 -46 18 -110 49 -143 68 l-60 34 -52 51 -53 50 0
-10z"/>
<path d="M84306 89998 c-27 -60 -118 -380 -110 -387 11 -11 24 23 63 169 24
85 54 179 67 209 28 61 27 61 13 61 l-10 0 -23 -52z"/>
<path d="M31490 89921 c14 -4 50 -10 80 -14 l55 -5 -50 13 c-27 7 -63 13 -80
13 l-30 0 25 -7z"/>
<path d="M31653 89893 l7 -6 7 6 6 7 -13 0 -13 0 6 -7z"/>
<path d="M32710 89827 l0 -13 215 -19 215 -18 7 6 c3 4 4 9 2 12 -4 3 -405 45
-434 45 -3 0 -5 -6 -5 -13z"/>
<path d="M94061 89555 c7 -18 329 -328 334 -323 3 3 -72 79 -166 169 -95 90
-170 159 -168 154z"/>
<path d="M97580 89281 l-65 -7 -117 -63 c-65 -34 -121 -67 -124 -73 -4 -5 55
22 130 61 l136 71 63 1 c34 1 73 5 87 9 l25 8 -35 -1 c-19 0 -64 -3 -100 -6z"/>
<path d="M85250 88956 c-96 -18 -220 -41 -275 -51 l-100 -18 12 -4 c6 -2 139
19 295 47 l283 51 505 -5 c278 -3 543 -8 590 -11 l85 -6 70 10 70 9 -135 1
c-74 0 -380 2 -680 5 l-545 5 -175 -33z"/>
<path d="M85115 88894 c-104 -19 -334 -66 -509 -105 l-319 -71 -101 -9 c-136
-13 -145 -20 -16 -13 l105 6 355 78 c195 43 427 90 515 105 l160 27 10 9 9 9
-9 -1 c-6 -1 -95 -16 -200 -35z"/>
<path d="M84325 88773 c-38 -7 -110 -20 -160 -28 l-90 -14 75 5 75 5 115 23
115 24 -30 0 c-16 0 -61 -7 -100 -15z"/>
<path d="M84818 88009 c-47 -97 -123 -247 -170 -335 -157 -292 -285 -548 -348
-694 -35 -80 -66 -149 -70 -153 l-7 -8 -257 71 c-241 66 -286 76 -275 66 3 -3
122 -37 264 -76 143 -39 265 -72 271 -74 l11 -4 73 166 c68 156 183 395 200
417 20 25 226 419 308 589 l92 190 -3 10 -4 11 -85 -176z"/>
<path d="M80250 87991 l0 -8 206 -73 205 -72 6 6 6 6 -5 6 c-8 7 -395 144
-408 144 -6 0 -10 -4 -10 -9z"/>
<path d="M84541 87385 c-1 -5 -33 -71 -72 -145 -39 -74 -103 -207 -143 -295
l-72 -160 -19 -3 -20 -2 -267 73 c-148 41 -268 71 -268 67 0 -3 129 -41 286
-84 l287 -78 8 14 c5 7 39 81 75 163 37 83 100 214 141 292 l75 143 -5 12 -5
13 -1 -10z"/>
<path d="M83650 86946 c0 -4 -27 -126 -59 -269 -33 -144 -64 -281 -69 -305
l-10 -43 11 4 10 3 68 299 68 300 -9 9 -10 10 0 -8z"/>
<path d="M83451 86303 c-6 -21 -28 -112 -51 -202 -23 -90 -48 -180 -55 -199
-17 -39 -19 -52 -7 -52 l8 0 22 63 c12 34 40 136 62 227 23 91 43 173 46 183
l5 17 -10 0 -10 0 -10 -37z"/>
<path d="M63752 85820 l0 -25 5 13 c2 6 2 18 0 25 l-5 12 0 -25z"/>
<path d="M64251 85739 c-101 -10 -186 -21 -189 -24 -3 -3 -2 -8 2 -12 l6 -7
198 18 c108 10 214 20 235 23 l37 6 0 8 0 9 -52 -1 c-29 -1 -136 -10 -237 -20z"/>
<path d="M80112 84942 c-72 -218 -132 -405 -132 -414 l0 -16 18 -7 c9 -4 116
-42 237 -85 121 -43 229 -82 240 -86 l20 -7 -10 11 c-5 5 -116 47 -245 93
-129 45 -239 86 -244 90 l-8 7 135 406 c74 223 132 406 129 406 -4 0 -67 -179
-140 -398z"/>
<path d="M88257 84943 c-10 -17 -188 -696 -183 -700 3 -3 10 15 16 38 167 620
186 694 167 662z"/>
<path d="M88246 84755 l-49 -186 7 -6 6 -6 0 7 c0 4 20 84 45 178 26 94 45
177 43 184 l-3 14 -49 -185z"/>
<path d="M86686 84602 l-6 -9 138 -38 c75 -21 180 -51 232 -65 52 -15 97 -26
99 -24 12 11 -31 26 -224 79 -115 32 -215 60 -221 62 l-12 4 -6 -9z"/>
<path d="M86617 84332 l-29 -203 6 -6 6 -6 0 10 c0 6 12 90 26 187 14 98 24
187 22 199 l-3 22 -28 -203z"/>
<path d="M0 84017 l0 -14 37 -26 36 -26 9 5 9 6 -15 16 c-8 10 -28 25 -45 35
l-31 18 0 -14z"/>
<path d="M24326 83952 l-5 -9 57 -23 c46 -19 334 -143 790 -341 l44 -19 -4 11
-4 12 -364 159 c-201 88 -395 173 -432 189 -74 32 -75 32 -82 21z"/>
<path d="M81800 83871 c0 -6 140 -58 368 -138 l17 -6 -10 10 c-13 14 -375 142
-375 134z"/>
<path d="M44150 83801 c0 -10 390 -234 396 -228 3 3 -85 56 -196 120 -110 63
-200 112 -200 108z"/>
<path d="M77204 83668 c-27 -40 -57 -85 -67 -100 l-19 -28 9 0 c4 0 35 41 67
91 32 49 63 92 68 95 l8 5 111 -36 c61 -21 113 -35 115 -32 6 6 -204 77 -227
77 l-16 0 -49 -72z"/>
<path d="M86547 83603 c-10 -106 -20 -399 -14 -393 7 6 30 450 24 456 -2 3 -7
-26 -10 -63z"/>
<path d="M77920 83473 l0 -9 196 -63 c108 -34 198 -60 201 -57 3 2 -82 32
-189 66 -106 34 -196 64 -200 67 l-8 4 0 -8z"/>
<path d="M82304 83363 c-61 -65 -127 -137 -147 -160 l-38 -41 9 -6 10 -6 147
156 148 155 -9 9 -10 10 -110 -117z"/>
<path d="M47180 83421 l0 -10 48 -7 c26 -4 128 -19 227 -34 99 -15 182 -26
184 -24 12 11 -25 19 -221 50 -238 38 -238 38 -238 25z"/>
<path d="M84361 83224 c56 -67 204 -262 230 -304 17 -28 33 -49 36 -47 12 13
-242 356 -270 366 l-12 4 16 -19z"/>
<path d="M76756 82959 c-64 -105 -115 -193 -113 -196 3 -2 58 82 122 187 65
105 116 193 113 195 -2 2 -57 -81 -122 -186z"/>
<path d="M79174 83023 c4 -4 71 -33 149 -64 l142 -57 9 -36 10 -36 9 0 9 0 -7
37 -7 37 -16 12 c-23 17 -269 114 -289 114 l-16 0 7 -7z"/>
<path d="M92502 82418 c-63 -88 -112 -162 -109 -164 6 -6 229 306 225 316 -2
4 -54 -65 -116 -152z"/>
<path d="M92542 82405 c-85 -119 -134 -198 -110 -175 5 4 141 194 207 288 l22
32 -8 0 c-4 0 -54 -65 -111 -145z"/>
<path d="M2920 82398 l0 -15 214 -82 c117 -44 216 -81 220 -81 3 0 6 6 6 13
l0 12 -208 79 c-114 43 -213 81 -219 83 l-13 5 0 -14z"/>
<path d="M75246 81818 c-76 -221 -85 -251 -60 -198 26 57 142 400 135 400 -3
0 -37 -91 -75 -202z"/>
<path d="M96197 81468 c-50 -69 -97 -134 -293 -403 -44 -60 -129 -182 -189
-270 -60 -88 -185 -265 -277 -394 -93 -128 -167 -235 -165 -238 6 -5 319 428
497 687 74 107 159 229 190 270 31 41 114 153 183 248 l127 172 -10 0 c-5 0
-33 -33 -63 -72z"/>
<path d="M95538 80478 c-130 -183 -234 -335 -232 -337 5 -6 -19 -39 247 337
130 182 232 332 228 332 -4 0 -114 -150 -243 -332z"/>
<path d="M72667 80024 l-5 -9 13 -19 14 -18 11 4 12 4 -20 23 -19 24 -6 -9z"/>
<path d="M98851 79539 c-37 -87 -303 -663 -327 -711 l-25 -50 5 -6 6 -5 27 59
c14 32 98 214 185 403 86 190 156 347 153 349 -2 3 -13 -15 -24 -39z"/>
<path d="M32970 79193 c-19 -9 -114 -40 -209 -68 l-175 -52 -4 -11 -4 -12 14
4 c7 3 90 27 183 55 94 27 187 57 208 66 l38 16 -6 9 c-3 6 -7 10 -8 9 -1 0
-18 -8 -37 -16z"/>
<path d="M42588 78893 c-49 -119 -86 -219 -83 -221 7 -8 5 -13 94 208 46 113
85 211 88 218 l5 12 -8 0 -9 0 -87 -217z"/>
<path d="M9465 78810 l-6 -9 43 -27 c24 -15 109 -74 190 -130 l147 -103 6 9 5
9 -32 24 c-78 56 -338 237 -342 237 -3 0 -8 -4 -11 -10z"/>
<path d="M98470 78659 c-63 -94 -135 -228 -127 -235 2 -3 21 28 42 68 21 40
64 113 97 161 33 49 58 91 55 93 -3 3 -33 -36 -67 -87z"/>
<path d="M98310 78370 l0 -13 7 6 6 7 -6 7 -7 6 0 -13z"/>
<path d="M10246 78292 l-5 -8 205 -102 205 -102 11 6 11 7 -204 103 c-112 57
-207 103 -211 103 -4 1 -9 -3 -12 -7z"/>
<path d="M75621 77940 c-173 -138 -190 -155 -178 -166 4 -4 324 244 372 287
l9 9 -9 9 -10 8 -184 -147z"/>
<path d="M75450 77704 c-102 -86 -419 -343 -705 -572 -286 -229 -558 -453
-605 -497 -159 -148 -195 -183 -270 -259 l-74 -76 12 -12 12 -12 70 76 c151
164 346 330 1120 953 129 104 326 265 437 358 l202 168 -6 15 c-3 7 -6 14 -7
14 0 -1 -84 -71 -186 -156z"/>
<path d="M11980 77605 l0 -14 18 -5 c117 -35 256 -68 544 -131 l343 -74 9 9 9
9 -14 6 c-8 2 -160 37 -339 75 -329 72 -381 84 -502 119 l-68 20 0 -14z"/>
<path d="M13340 77300 l0 -10 23 -5 c25 -6 419 -85 424 -85 2 0 3 6 3 13 l0
13 -217 42 c-240 47 -233 46 -233 32z"/>
<path d="M71130 77070 l0 -10 225 0 225 0 0 10 0 10 -225 0 -225 0 0 -10z"/>
<path d="M23555 75928 c-201 -95 -240 -116 -232 -124 5 -5 428 194 441 207 27
25 -17 7 -209 -83z"/>
<path d="M6640 74941 l0 -9 48 -6 c26 -3 117 -13 202 -21 85 -8 167 -17 183
-20 l27 -4 0 14 0 15 -17 0 c-10 0 -99 9 -198 20 -99 11 -195 20 -212 20 l-33
0 0 -9z"/>
<path d="M34128 73924 c-3 -3 53 -66 126 -141 l131 -135 37 -19 c20 -10 42
-19 48 -19 22 0 8 16 -35 39 l-46 24 -106 111 c-112 117 -147 149 -155 140z"/>
<path d="M47668 70854 l-6 -6 21 -51 c11 -29 51 -99 88 -157 l68 -105 35 -34
36 -35 6 7 7 6 -38 46 c-56 68 -153 221 -180 281 -24 55 -27 59 -37 48z"/>
<path d="M74439 70680 l-6 -75 19 -115 c22 -140 28 -164 34 -157 3 3 -2 42
-12 88 l-16 84 -7 125 -7 125 -5 -75z"/>
<path d="M21415 69234 c-11 -1 -88 -8 -172 -15 l-152 -12 -12 -8 c-26 -15 -3
-16 121 -4 69 7 169 16 223 20 l97 7 0 9 0 9 -42 -1 c-24 -1 -52 -3 -63 -5z"/>
<path d="M36755 68073 c-26 -65 -56 -139 -66 -165 l-19 -48 8 0 8 0 66 165 66
165 -8 0 -8 0 -47 -117z"/>
<path d="M2529 68073 c5 -10 31 -39 58 -64 l48 -47 129 -85 129 -86 10 6 9 5
-139 93 -138 93 -50 51 c-27 28 -53 51 -57 51 l-9 0 10 -17z"/>
<path d="M41301 67718 l-71 -203 0 -28 0 -28 10 6 10 6 0 22 c0 12 31 110 69
217 l70 195 -8 8 -8 8 -72 -203z"/>
<path d="M41417 67878 c-43 -114 -130 -368 -134 -394 l-6 -34 12 0 11 0 0 20
c0 11 32 109 70 216 39 108 70 198 70 200 0 10 -18 3 -23 -8z"/>
<path d="M2936 67841 l-5 -8 190 -127 191 -127 11 4 12 4 -197 131 -197 132
-5 -9z"/>
<path d="M83960 67498 l0 -6 145 -4 c79 -1 187 -1 240 0 l95 4 0 6 0 7 -240 0
-240 0 0 -7z"/>
<path d="M47391 67425 c-28 -31 -125 -179 -112 -171 6 4 33 40 60 79 27 40 56
79 65 86 l17 14 86 -6 86 -6 -9 8 -9 9 -83 4 -83 3 -18 -20z"/>
<path d="M3702 67330 l4 -14 160 -99 c87 -54 171 -105 186 -113 l27 -14 5 9 6
9 -173 103 c-94 57 -183 110 -196 118 l-24 15 5 -14z"/>
<path d="M46235 67202 c6 -5 102 -58 215 -117 113 -59 211 -111 218 -117 l12
-10 0 8 c0 10 -21 22 -270 151 -102 53 -180 91 -175 85z"/>
<path d="M94340 67057 c0 -19 161 -941 165 -945 3 -3 5 -1 5 4 0 24 -159 937
-164 942 l-6 5 0 -6z"/>
<path d="M47722 66743 c-34 -65 -83 -154 -110 -198 -28 -44 -48 -82 -46 -84 5
-6 5 -7 61 84 60 98 166 305 160 311 -3 3 -32 -48 -65 -113z"/>
<path d="M41100 66577 l0 -13 45 -22 c54 -26 55 -26 55 -8 l0 14 -12 5 c-7 3
-30 12 -50 21 l-38 16 0 -13z"/>
<path d="M74670 66484 c0 -16 179 -437 191 -449 6 -5 -4 24 -22 65 -17 41 -63
147 -100 235 -37 88 -68 155 -69 149z"/>
<path d="M41280 66357 c8 -8 128 -85 265 -172 138 -87 306 -198 375 -246 156
-107 320 -213 325 -208 8 9 -952 639 -973 639 -3 0 0 -6 8 -13z"/>
<path d="M44265 66331 c12 -12 785 -240 785 -232 0 3 -159 53 -352 110 -194
58 -373 111 -398 118 l-44 13 9 -9z"/>
<path d="M87557 66314 l-7 -7 128 -69 c70 -38 155 -85 190 -104 l62 -34 0 13
0 12 -177 95 c-208 112 -188 102 -196 94z"/>
<path d="M97462 66128 c3 -13 22 -107 43 -210 l39 -188 12 0 12 0 -4 18 c-9
37 -84 392 -84 397 0 3 -5 5 -11 5 l-11 0 4 -22z"/>
<path d="M96740 66073 c-123 -24 -226 -46 -228 -48 -2 -2 -1 -8 2 -13 l5 -9
237 46 237 46 5 13 4 12 -19 -1 c-10 -1 -119 -21 -243 -46z"/>
<path d="M94464 66075 c3 -16 17 -104 31 -195 27 -168 34 -204 40 -198 6 6
-62 408 -70 416 l-7 7 6 -30z"/>
<path d="M49143 65913 l-13 -5 0 -13 c0 -7 -56 -107 -125 -221 -68 -115 -122
-210 -120 -213 7 -6 -3 -21 136 212 68 114 127 207 130 207 3 0 79 -52 167
-115 89 -63 162 -110 162 -105 0 5 -72 59 -160 121 l-159 112 -3 12 -3 12 -12
-4z"/>
<path d="M83510 65614 c-91 -69 -167 -130 -169 -136 l-4 -11 15 5 c24 10 334
242 337 253 6 25 -25 5 -179 -111z"/>
<path d="M94115 65586 c-209 -40 -415 -81 -457 -91 l-78 -19 0 -14 0 -13 18 5
c92 26 192 47 542 111 222 41 408 75 413 75 l8 0 -6 10 -6 10 -27 -1 c-15 -1
-198 -34 -407 -73z"/>
<path d="M74861 65515 c-12 -163 -61 -930 -61 -959 0 -22 2 -37 4 -35 7 7 68
968 63 992 l-4 22 -2 -20z"/>
<path d="M70190 65508 c0 -3 18 -37 39 -75 22 -37 63 -121 92 -186 29 -64 54
-115 56 -113 7 6 -119 274 -155 331 -17 28 -32 47 -32 43z"/>
<path d="M32100 65428 l0 -23 203 -24 c111 -13 217 -25 235 -28 l32 -6 0 24 0
24 -202 23 c-112 13 -218 26 -235 29 l-33 5 0 -24z"/>
<path d="M36473 64893 l7 -6 7 6 6 7 -13 0 -13 0 6 -7z"/>
<path d="M1045 64740 c-16 -4 -102 -13 -190 -20 -88 -6 -162 -14 -164 -16 -7
-7 60 -5 200 7 l134 11 50 13 50 13 -25 0 c-14 0 -38 -3 -55 -8z"/>
<path d="M50746 64460 c-76 -132 -142 -243 -146 -245 -4 -3 -90 29 -190 71
-100 41 -185 73 -188 70 -3 -3 4 -9 14 -13 17 -6 329 -136 361 -150 l13 -5 7
18 c4 11 28 55 53 99 163 279 228 395 222 395 -4 0 -70 -108 -146 -240z"/>
<path d="M50906 64654 c-9 -20 -76 -136 -147 -256 -72 -121 -129 -222 -126
-224 6 -6 287 468 294 496 8 31 -2 24 -21 -16z"/>
<path d="M37057 64571 l-5 -19 67 -16 c105 -24 296 -45 570 -61 139 -8 264
-15 277 -15 l24 0 0 20 0 20 -29 0 c-16 0 -139 7 -273 15 l-243 15 -155 21
c-85 11 -168 24 -184 29 -40 14 -43 13 -49 -9z"/>
<path d="M1441 64511 l-13 -8 16 -6 15 -6 40 -78 c22 -43 52 -91 66 -107 l26
-28 6 5 5 6 -30 38 c-16 21 -46 70 -65 110 -20 39 -40 74 -45 77 l-8 5 -13 -8z"/>
<path d="M1325 64476 l-50 -11 5 -10 5 -10 10 4 c6 2 33 6 61 8 l51 5 38 -68
c20 -38 51 -86 67 -106 l30 -38 14 0 15 0 -39 48 -40 47 -31 61 -30 62 -28 9
-28 10 -50 -11z"/>
<path d="M77170 64358 c1 -73 5 -166 9 -206 l9 -74 33 -33 c19 -18 49 -50 67
-70 l34 -36 42 -21 42 -20 464 46 c256 26 556 59 668 73 l202 27 0 8 0 8 -17
0 c-10 0 -90 -9 -178 -21 -88 -11 -378 -42 -645 -68 l-485 -48 -47 23 -46 24
-43 50 -42 50 -12 0 -12 0 -7 43 c-3 23 -9 117 -12 210 l-7 167 -9 0 -8 0 0
-132z"/>
<path d="M39485 64342 l-6 -15 8 -7 c4 -4 50 -26 101 -48 l92 -41 158 -95 157
-94 134 -101 134 -101 14 11 c7 6 13 13 13 15 0 2 -63 51 -139 109 l-140 105
-153 93 -153 93 -107 46 -107 46 -6 -16z"/>
<path d="M40666 64119 c-69 -46 -59 -53 12 -9 l49 30 27 0 26 0 0 10 0 10 -27
-1 -28 -1 -59 -39z"/>
<path d="M77063 64093 c-7 -2 -13 -11 -13 -18 l0 -13 30 11 c17 6 30 15 30 19
l0 8 -17 -1 c-10 0 -24 -3 -30 -6z"/>
<path d="M78300 63958 c-239 -27 -436 -51 -439 -54 -2 -2 -2 -6 1 -9 l6 -6
418 46 c231 25 429 48 442 51 l22 4 0 10 c0 6 -3 9 -7 9 -5 -1 -204 -24 -443
-51z"/>
<path d="M1930 63989 l0 -14 159 -142 160 -143 5 9 6 8 -133 118 c-72 65 -147
132 -164 149 l-33 30 0 -15z"/>
<path d="M43510 63689 l-132 -200 6 -6 5 -5 126 192 c70 106 129 199 132 207
15 38 -16 -5 -137 -188z"/>
<path d="M76600 63809 l-145 -7 -82 5 -83 6 0 -11 0 -10 107 -7 106 -8 101 7
c56 4 125 10 154 13 l52 6 0 8 0 9 -32 -2 c-18 -1 -98 -5 -178 -9z"/>
<path d="M13485 63639 c-82 -15 -215 -40 -294 -55 l-144 -27 -20 -20 -19 -19
5 -40 5 -40 24 -25 c29 -32 138 -107 145 -100 2 3 -22 23 -54 45 -32 22 -68
50 -79 63 l-21 24 -7 28 -6 27 9 18 10 18 38 12 c21 6 157 32 303 58 146 26
269 51 275 56 l9 8 -14 -1 c-8 -1 -82 -14 -165 -30z"/>
<path d="M41172 63528 c-51 -45 -90 -83 -88 -86 6 -6 186 148 186 159 0 13 4
16 -98 -73z"/>
<path d="M41270 63574 c0 -9 233 -273 254 -286 26 -17 24 -6 -3 20 -16 15 -75
79 -131 142 -57 63 -107 119 -111 125 l-9 9 0 -10z"/>
<path d="M16543 63490 c-107 -41 -193 -86 -193 -101 l0 -9 58 29 c31 15 103
45 160 66 l102 38 0 9 c0 14 -21 9 -127 -32z"/>
<path d="M39730 63489 l55 -32 70 -61 c38 -33 81 -74 95 -91 14 -16 40 -46 57
-65 l32 -35 1 12 0 12 -112 114 -113 113 -57 32 c-32 18 -63 32 -70 32 l-13 0
55 -31z"/>
<path d="M80955 63489 c7 -23 70 -149 152 -306 l38 -73 11 0 12 0 -71 133
c-38 72 -83 161 -98 197 l-28 65 -11 3 -12 4 7 -23z"/>
<path d="M16357 63315 l-17 -36 0 -39 0 -40 29 -32 29 -33 7 7 7 7 -26 31 -26
32 0 28 c0 15 7 44 15 63 17 42 18 47 7 47 -5 0 -16 -16 -25 -35z"/>
<path d="M41999 63333 c24 -46 510 -597 518 -589 3 3 -85 105 -194 228 -110
123 -227 258 -262 301 -61 75 -81 95 -62 60z"/>
<path d="M37275 63281 l20 -10 379 -56 c208 -31 388 -55 400 -53 l21 3 -395
58 c-217 32 -406 61 -420 63 l-25 4 20 -9z"/>
<path d="M37850 63149 c199 -29 237 -33 228 -24 -6 7 -363 55 -396 54 -15 -1
61 -14 168 -30z"/>
<path d="M41545 63140 c3 -5 11 -10 16 -10 l10 0 -6 10 c-3 6 -11 10 -16 10
l-10 0 6 -10z"/>
<path d="M13385 63069 l-69 -9 -11 -11 -10 -12 30 7 c17 4 76 10 133 15 57 5
106 11 109 15 l6 6 -59 -1 c-32 -1 -90 -6 -129 -10z"/>
<path d="M48416 63072 c20 -19 345 -204 349 -200 5 5 -337 208 -350 208 l-9 0
10 -8z"/>
<path d="M43935 62990 c3 -19 13 -87 24 -150 l18 -115 15 -30 c19 -35 323
-378 341 -384 l12 -4 -31 34 c-16 19 -90 100 -162 181 l-132 147 -19 43 -18
43 -18 120 c-10 66 -22 127 -27 135 l-8 15 5 -35z"/>
<path d="M58658 62922 c-37 -20 -68 -41 -68 -45 l0 -8 78 42 78 43 598 -50
597 -50 4 6 4 6 -572 47 c-315 26 -590 47 -612 47 l-40 -1 -67 -37z"/>
<path d="M16005 62909 l20 -13 145 -2 145 -2 -130 8 c-71 4 -146 11 -165 15
l-35 6 20 -12z"/>
<path d="M58686 62894 c-62 -33 -459 -305 -452 -311 2 -2 96 59 209 136 l205
141 55 26 56 25 362 -31 c199 -17 364 -29 366 -26 2 2 -17 7 -44 10 -74 9
-644 56 -678 56 l-30 -1 -49 -25z"/>
<path d="M94177 62863 l-6 -9 215 -78 215 -78 6 6 c4 3 4 8 2 10 -2 2 -94 36
-204 76 -110 40 -205 75 -211 77 l-12 4 -5 -8z"/>
<path d="M43415 62729 c-82 -72 -152 -136 -154 -142 l-4 -12 24 21 c13 11 86
74 162 138 75 65 137 120 137 122 0 13 -30 -10 -165 -127z"/>
<path d="M43442 62699 c-84 -73 -152 -136 -152 -141 0 -4 71 53 158 128 86 75
159 138 161 140 2 2 0 4 -6 4 -5 0 -78 -59 -161 -131z"/>
<path d="M42454 62719 c-16 -17 -145 -130 -286 -251 l-257 -220 -7 -20 c-3
-11 -4 -22 -1 -25 3 -2 8 4 11 15 l7 20 222 190 c122 104 251 216 287 250 l65
60 -6 6 -5 6 -30 -31z"/>
<path d="M42888 62528 c-128 -110 -235 -203 -237 -205 -2 -1 -2 -5 0 -8 5 -5
479 401 479 410 0 3 -2 5 -5 5 -2 0 -109 -91 -237 -202z"/>
<path d="M16677 62678 c-4 -18 -9 -58 -13 -88 l-7 -55 -44 -89 c-24 -48 -42
-90 -39 -93 3 -3 25 35 49 83 l44 89 13 88 c7 48 10 90 7 93 -2 3 -7 -10 -10
-28z"/>
<path d="M91320 62435 c90 -90 166 -162 169 -159 7 6 -311 324 -324 324 -5 0
64 -74 155 -165z"/>
<path d="M51325 62384 c-60 -92 -111 -170 -113 -175 l-4 -9 14 0 13 0 110 166
c61 92 112 170 113 175 l4 9 -14 0 -13 0 -110 -166z"/>
<path d="M3724 62499 c-31 -33 -93 -69 -119 -69 l-15 0 0 -15 0 -15 15 0 c27
0 98 41 137 78 l37 35 -5 9 c-9 14 -19 9 -50 -23z"/>
<path d="M89022 62421 c2 -5 81 -75 176 -156 l174 -146 11 4 11 3 -180 152
c-98 84 -183 152 -187 152 l-9 0 4 -9z"/>
<path d="M88992 62380 l4 -15 174 -147 173 -147 9 5 10 6 -9 7 c-41 36 -332
280 -347 291 l-19 15 5 -15z"/>
<path d="M48675 62292 c18 -18 358 -223 366 -220 8 3 -340 219 -364 227 l-12
4 10 -11z"/>
<path d="M56736 62111 c5 -5 142 -66 304 -136 162 -70 398 -172 524 -227 126
-54 233 -97 237 -96 5 2 -98 50 -229 107 -711 312 -826 361 -835 361 l-11 0
10 -9z"/>
<path d="M16003 62017 c-23 -7 -45 -16 -50 -21 l-8 -9 19 7 c11 4 50 12 88 18
l69 12 140 -28 c76 -16 141 -27 144 -24 3 3 -52 17 -122 32 l-128 26 -55 -1
c-30 0 -74 -6 -97 -12z"/>
<path d="M62495 61903 c4 -27 9 -56 12 -66 l4 -17 8 4 8 5 -8 48 c-4 26 -8 54
-8 61 l-1 12 -11 0 -10 0 6 -47z"/>
<path d="M57331 61896 c3 -4 100 -46 447 -197 l42 -18 0 7 c0 4 -107 53 -238
110 -210 91 -266 112 -251 98z"/>
<path d="M14521 61866 c16 -17 292 -69 422 -80 l57 -5 0 10 0 9 -53 0 -53 0
-139 25 c-77 14 -156 29 -175 35 -36 10 -67 13 -59 6z"/>
<path d="M58440 61823 c-12 -27 -49 -111 -82 -188 -34 -77 -66 -145 -72 -151
-14 -13 -289 -98 -373 -114 l-63 -13 0 -7 0 -7 83 18 c45 10 146 38 224 61
l141 43 77 175 c42 96 83 185 91 198 l14 22 104 0 104 0 468 -200 c257 -110
471 -199 476 -198 4 2 -204 94 -464 206 l-473 202 -117 0 -117 0 -21 -47z"/>
<path d="M59872 61772 c-62 -74 -185 -253 -223 -323 l-11 -21 10 5 c5 4 42 59
83 123 l74 116 72 85 c61 70 85 106 71 102 -2 0 -36 -39 -76 -87z"/>
<path d="M57223 61733 c-31 -65 -70 -154 -88 -198 l-32 -80 -129 -98 c-71 -54
-136 -102 -144 -107 l-15 -8 6 -6 6 -6 144 109 145 108 28 74 c16 41 49 117
74 169 62 132 73 160 66 160 -3 0 -30 -53 -61 -117z"/>
<path d="M10016 61809 c-2 -13 -12 -175 -21 -359 l-16 -335 7 -93 7 -93 9 -5
10 -6 -6 43 c-3 24 -8 67 -10 94 l-6 50 20 360 c17 331 19 406 6 344z"/>
<path d="M21295 61801 l-70 -17 -30 -19 c-16 -10 -47 -34 -67 -53 l-37 -35
-73 7 -73 7 15 -11 15 -10 67 0 67 0 35 34 c43 43 95 70 169 86 l57 13 0 9 c0
4 -1 8 -2 7 -2 0 -34 -8 -73 -18z"/>
<path d="M3133 61685 c0 -66 3 -169 7 -230 l7 -110 0 120 c0 66 -3 170 -7 230
l-7 110 0 -120z"/>
<path d="M17976 61728 c-7 -13 -42 -75 -76 -138 -34 -63 -76 -139 -92 -167
l-29 -53 8 0 c4 0 32 44 60 98 29 53 76 139 104 190 28 50 48 92 45 92 -3 0
-12 -10 -20 -22z"/>
<path d="M38800 61741 c8 -5 65 -22 125 -39 l110 -30 110 -6 110 -5 -50 9
c-27 4 -75 9 -105 9 l-55 1 -125 35 c-133 37 -144 39 -120 26z"/>
<path d="M47093 61580 c4 -52 10 -162 13 -243 l7 -148 9 -5 9 -6 -6 74 c-3 40
-10 149 -15 242 l-10 169 -6 6 -7 6 6 -95z"/>
<path d="M93675 61258 l-398 -403 -28 -44 c-16 -25 -29 -49 -29 -53 0 -20 17
-4 45 40 l30 47 398 402 398 401 -10 6 -9 6 -397 -402z"/>
<path d="M48540 61602 l0 -8 60 -18 59 -18 13 5 13 5 -48 21 -49 21 -24 0 -24
0 0 -8z"/>
<path d="M61101 61608 c-1 -7 81 -387 95 -444 4 -14 9 -23 11 -20 6 5 -84 422
-97 451 -5 11 -9 17 -9 13z"/>
<path d="M60563 61557 c-4 -7 -33 -33 -63 -58 -30 -25 -133 -125 -229 -222
l-175 -177 15 0 14 0 185 184 c102 101 207 204 234 228 l49 45 -11 7 -11 6 -8
-13z"/>
<path d="M45665 61290 c-121 -105 -222 -196 -224 -202 l-4 -13 24 21 c13 12
110 94 214 184 105 89 199 171 210 181 l19 19 -9 -1 c-6 0 -109 -85 -230 -189z"/>
<path d="M58332 61460 c15 -9 345 -155 378 -167 l15 -6 -10 11 c-11 11 -378
172 -392 172 -4 0 -1 -5 9 -10z"/>
<path d="M60532 61415 l-94 -54 -149 -146 -150 -147 3 -9 3 -9 160 153 160
152 45 24 c76 41 120 71 120 81 0 13 8 17 -98 -45z"/>
<path d="M54551 61373 c-1 -18 107 -474 113 -481 l6 -5 0 13 c0 20 -100 443
-110 465 l-9 20 0 -12z"/>
<path d="M77637 60928 c58 -233 106 -425 109 -427 2 -2 7 -2 10 2 l6 6 -104
417 -103 417 -11 4 -11 4 104 -423z"/>
<path d="M57840 61309 c0 -6 62 -107 137 -225 l136 -213 8 5 8 5 -111 172
c-61 95 -124 193 -140 220 -30 48 -38 55 -38 36z"/>
<path d="M92590 61154 c159 -160 216 -207 306 -251 74 -38 253 -107 259 -101
3 3 -39 22 -93 43 -213 83 -261 116 -462 319 -74 75 -139 136 -145 136 -5 0
55 -66 135 -146z"/>
<path d="M63370 61188 c0 -15 91 -443 95 -447 10 -10 4 31 -36 229 -23 113
-45 209 -50 215 -5 5 -9 6 -9 3z"/>
<path d="M77836 61051 l-6 -10 21 -88 22 -88 23 -45 22 -45 46 -44 46 -45 6 7
7 7 -39 42 c-22 24 -49 59 -60 78 l-21 35 -23 95 c-12 52 -26 99 -30 103 l-8
9 -6 -11z"/>
<path d="M60695 60796 l-80 -21 -103 -59 c-57 -32 -101 -60 -99 -62 2 -3 52
22 111 55 l107 59 89 22 c50 12 90 24 90 26 0 8 -37 2 -115 -20z"/>
<path d="M49815 60775 c-39 -17 -21 -18 25 0 l35 13 -15 1 c-8 0 -28 -6 -45
-14z"/>
<path d="M15700 60642 l-205 -87 -135 -76 c-74 -42 -161 -91 -193 -109 -32
-18 -56 -35 -53 -37 3 -3 92 44 198 104 l193 109 210 88 c116 49 212 90 214
92 17 16 -53 -10 -229 -84z"/>
<path d="M44180 60705 c0 -6 72 -89 160 -185 87 -96 159 -179 159 -185 0 -5
-58 -59 -129 -120 -71 -60 -129 -114 -129 -119 l-1 -9 18 15 c9 8 69 60 133
116 64 56 122 102 128 102 l11 0 0 15 0 15 -9 0 c-5 0 -76 73 -157 163 -81 89
-156 171 -166 182 l-18 19 0 -9z"/>
<path d="M78030 60685 c0 -3 9 -15 19 -26 11 -12 21 -29 24 -39 l5 -19 -20
-40 -19 -39 -17 5 -17 4 -13 -43 -13 -44 82 -327 81 -327 10 0 9 0 -5 18 c-3
9 -39 156 -81 327 l-75 310 11 28 12 28 19 -7 19 -6 72 12 72 12 29 21 30 21
75 4 76 4 90 -11 c50 -6 110 -14 135 -17 l45 -7 -10 11 -10 10 -105 17 -105
17 -78 0 -78 0 -52 -25 -52 -26 -64 -10 c-36 -6 -66 -9 -68 -7 -2 2 3 16 12
32 l15 29 0 28 0 29 -17 29 -17 29 -13 0 c-7 0 -13 -2 -13 -5z"/>
<path d="M18779 60528 l-64 -130 -40 -34 c-22 -18 -53 -37 -68 -43 l-27 -11 0
-9 0 -10 33 11 c17 6 50 25 72 42 l40 30 67 138 66 138 -7 4 -7 5 -65 -131z"/>
<path d="M52413 60559 l10 -50 -20 -21 -21 -20 -323 -64 c-178 -35 -341 -64
-361 -64 l-37 0 -5 -9 -6 -9 48 5 c26 2 191 31 367 65 l320 61 24 23 24 22 -7
56 -7 56 -8 0 -8 0 10 -51z"/>
<path d="M57310 60460 c0 -5 12 -40 26 -77 14 -38 31 -95 37 -127 l13 -60 11
-3 11 -4 -13 63 c-8 35 -18 76 -24 91 -6 16 -11 33 -11 38 l0 10 62 -51 c59
-50 131 -100 144 -100 16 0 -8 23 -83 79 l-83 62 -36 45 c-35 43 -54 55 -54
34z"/>
<path d="M59867 60247 c-92 -77 -165 -142 -162 -145 2 -2 73 53 157 123 182
153 183 153 177 159 -2 2 -79 -59 -172 -137z"/>
<path d="M62595 60360 c-71 -15 -156 -33 -188 -40 -32 -6 -56 -14 -54 -17 7
-6 380 68 392 78 l9 9 -14 -1 c-8 0 -73 -13 -145 -29z"/>
<path d="M59918 60237 l-143 -123 -362 -272 c-199 -150 -368 -275 -376 -278
l-15 -5 -6 9 -6 10 38 24 c67 45 307 231 290 225 -10 -3 -80 -53 -155 -110
-76 -57 -147 -109 -159 -115 l-20 -11 -68 162 c-38 89 -107 235 -153 325 l-85
163 -36 -7 c-21 -4 -46 -11 -57 -15 l-20 -8 55 6 55 5 116 -238 c64 -132 131
-275 149 -319 18 -44 45 -107 59 -140 15 -33 52 -117 82 -187 30 -70 57 -128
61 -128 7 0 -9 40 -98 244 l-39 89 15 5 c7 3 172 124 364 269 l351 264 147
125 c140 120 177 154 165 154 -3 0 -70 -55 -149 -123z"/>
<path d="M62155 60229 c-99 -21 -201 -41 -228 -44 -26 -3 -58 -10 -70 -14 -20
-8 -328 -72 -412 -86 -97 -16 -435 -91 -442 -98 l-8 -9 25 6 c14 4 111 24 216
45 l192 38 76 -386 c42 -212 109 -547 148 -743 l71 -358 -5 -6 c-3 -3 -95 -28
-205 -57 -109 -28 -200 -54 -203 -59 -3 -4 -192 -46 -420 -94 l-415 -86 -54
-3 -54 -4 -151 56 c-83 30 -169 62 -191 69 l-40 15 10 -10 c6 -5 96 -41 200
-80 l190 -69 12 10 12 10 18 -6 18 -6 425 90 425 89 205 56 c113 30 216 55
229 55 l23 0 -7 23 c-14 46 -305 1490 -301 1494 4 5 430 93 432 90 0 -1 18
-87 38 -192 20 -104 53 -266 73 -358 19 -92 33 -170 30 -173 -2 -3 -94 -24
-203 -46 -110 -23 -201 -43 -203 -45 -2 -2 -2 -6 1 -9 l6 -6 197 42 197 41 13
-5 13 -4 9 9 9 9 355 74 c195 41 387 80 427 87 l72 12 0 8 0 8 -12 -4 c-7 -2
-101 -20 -208 -40 -107 -20 -295 -57 -417 -82 l-223 -47 -6 7 c-8 8 -154 678
-154 709 0 4 6 8 13 8 l13 0 68 -332 c38 -183 73 -344 77 -358 l7 -25 1 15 c1
8 -31 170 -70 359 l-71 343 10 7 c6 4 101 24 212 46 l200 39 0 8 c0 10 19 13
-195 -33z"/>
<path d="M87134 60199 c-16 -17 -90 -86 -164 -152 -74 -66 -136 -126 -138
-134 l-3 -13 7 0 c18 0 344 305 344 322 0 16 -17 8 -46 -23z"/>
<path d="M57280 60123 c0 -27 -7 -84 -15 -127 -14 -71 -14 -98 0 -85 9 10 35
165 35 212 l0 47 -10 0 -10 0 0 -47z"/>
<path d="M45666 60018 c34 -35 155 -175 269 -313 115 -137 212 -254 217 -259
l8 -10 0 10 c0 5 -51 71 -112 146 -62 74 -149 180 -193 234 -96 118 -224 254
-239 254 l-10 0 60 -62z"/>
<path d="M14732 59933 l-41 -98 -11 -59 c-5 -33 -10 -84 -10 -113 l0 -53 11 0
12 0 -7 41 -6 40 10 67 11 67 40 98 c22 55 38 101 36 103 -2 3 -23 -39 -45
-93z"/>
<path d="M49060 59924 c179 -142 250 -195 250 -186 0 10 -285 231 -309 240 -9
3 18 -22 59 -54z"/>
<path d="M44937 59874 c124 -137 272 -289 272 -281 1 9 -318 351 -333 356 -6
2 21 -31 61 -75z"/>
<path d="M58810 59913 c0 -6 38 -93 84 -194 46 -101 116 -263 156 -359 40 -96
76 -179 80 -184 l9 -9 498 99 c274 54 491 99 483 101 -8 2 -231 -40 -495 -92
l-480 -94 -6 7 c-3 4 -30 66 -59 137 -51 124 -257 585 -266 594 -2 2 -4 0 -4
-6z"/>
<path d="M91071 59891 c8 -10 85 -104 172 -207 l159 -189 110 -152 c60 -84
113 -153 118 -153 12 0 -183 271 -289 400 -109 133 -271 320 -278 320 -3 0 1
-8 8 -19z"/>
<path d="M86559 59764 c-90 -69 -166 -131 -168 -137 l-4 -12 14 11 c8 6 85 66
172 133 141 110 166 131 153 131 -2 0 -77 -57 -167 -126z"/>
<path d="M63661 59825 c0 -11 28 -148 63 -305 34 -157 96 -453 137 -657 40
-205 76 -373 80 -373 11 0 -253 1288 -276 1345 l-3 10 -1 -20z"/>
<path d="M63621 59824 c-1 -6 69 -344 154 -750 85 -407 157 -757 161 -779 14
-93 233 -1157 325 -1584 l100 -465 -23 -22 -23 -21 -247 -49 c-137 -27 -248
-51 -248 -55 0 -3 117 17 260 46 l259 51 20 26 c11 14 18 27 16 29 -8 8 -232
1070 -330 1559 -119 599 -403 1966 -415 2000 -5 14 -9 20 -9 14z"/>
<path d="M40560 59815 c0 -3 74 -54 165 -115 91 -61 165 -106 165 -102 0 8
-313 222 -325 222 -3 0 -5 -2 -5 -5z"/>
<path d="M28740 59802 l0 -8 153 -13 c83 -7 168 -15 187 -18 l35 -5 -10 10
-10 10 -160 11 c-88 7 -168 15 -177 17 l-18 5 0 -9z"/>
<path d="M47110 59397 l-23 -112 -39 -99 c-21 -55 -38 -101 -38 -103 0 -2 6
-3 14 -3 l14 0 36 90 36 90 25 116 c29 136 28 121 11 127 l-13 5 -23 -111z"/>
<path d="M60345 59462 l-230 -46 16 -4 c19 -3 425 74 454 88 l20 9 -15 -1 c-8
0 -118 -21 -245 -46z"/>
<path d="M49266 59054 c-180 -239 -326 -438 -323 -440 2 -3 154 193 336 436
183 242 328 440 323 440 -4 0 -156 -196 -336 -436z"/>
<path d="M62270 59440 c-124 -27 -321 -69 -439 -94 -187 -40 -250 -56 -214
-56 5 0 104 20 219 44 115 24 316 65 447 92 l237 48 0 8 c0 12 -4 11 -250 -42z"/>
<path d="M49462 59252 c-388 -518 -490 -657 -486 -661 2 -3 11 4 18 15 8 10
81 107 163 215 81 108 223 295 315 417 l168 221 -8 5 -8 5 -162 -217z"/>
<path d="M61353 59247 c-106 -23 -193 -45 -193 -48 l0 -7 188 39 c103 22 196
43 207 48 l20 10 -15 -1 c-8 0 -102 -19 -207 -41z"/>
<path d="M94540 59263 c0 -4 53 -37 118 -72 64 -35 148 -84 185 -108 37 -23
73 -43 80 -43 l12 0 -50 33 c-28 18 -102 62 -165 96 -63 35 -130 72 -147 83
l-33 20 0 -9z"/>
<path d="M45625 59149 l70 -70 115 -82 c63 -46 121 -87 129 -91 l14 -9 -6 10
c-4 6 -60 49 -124 96 l-118 85 -65 66 c-35 36 -69 66 -74 66 l-10 0 69 -71z"/>
<path d="M91670 59214 c0 -5 17 -26 38 -46 51 -51 265 -218 271 -212 2 2 2 5
0 7 -2 2 -49 39 -104 82 -55 43 -124 101 -152 128 l-53 51 0 -10z"/>
<path d="M83800 59156 c0 -15 204 -406 213 -406 4 0 -28 66 -70 148 -101 193
-143 269 -143 258z"/>
<path d="M50064 59091 c-99 -125 -296 -392 -293 -396 4 -3 290 365 312 402 15
25 3 21 -19 -6z"/>
<path d="M50885 59020 l-6 -10 57 -83 c32 -45 89 -124 127 -175 l68 -92 10 5
9 6 -7 12 c-4 7 -44 62 -88 122 -45 61 -99 136 -120 168 -41 62 -41 62 -50 47z"/>
<path d="M63180 58858 c0 -18 82 -442 86 -447 2 -2 7 -2 10 2 l6 6 -43 225
-44 226 -7 0 c-5 0 -8 -6 -8 -12z"/>
<path d="M84101 58658 c33 -62 76 -146 96 -185 l35 -73 -5 -13 -5 -12 -178
-64 c-99 -35 -183 -67 -188 -72 l-10 -9 10 0 c5 0 88 29 184 65 96 36 181 67
190 69 37 7 475 219 462 224 -5 1 -101 -42 -212 -98 -112 -55 -211 -100 -220
-100 l-16 0 -14 38 c-18 52 -173 342 -183 342 -4 0 20 -51 54 -112z"/>
<path d="M17301 58602 l-81 -107 -65 -50 c-61 -47 -76 -65 -56 -65 5 0 39 25
76 56 l68 55 79 104 78 104 -9 5 -9 6 -81 -108z"/>
<path d="M61525 58477 c-110 -28 -195 -52 -189 -54 11 -4 415 94 423 103 11
11 -49 -2 -234 -49z"/>
<path d="M91885 58423 c-24 -82 -45 -139 -102 -270 l-5 -13 10 0 11 0 30 63
c24 51 101 287 101 311 0 3 -4 6 -8 6 l-9 0 -28 -97z"/>
<path d="M91810 58146 c0 -3 89 -67 198 -143 l197 -137 174 -103 c96 -57 177
-101 179 -98 7 7 17 0 -163 105 l-160 93 -207 143 c-196 136 -218 150 -218
140z"/>
<path d="M63021 58010 c-161 -35 -219 -50 -184 -50 18 0 397 81 402 85 10 10
-41 2 -218 -35z"/>
<path d="M64034 58008 c14 -59 366 -1754 366 -1762 l0 -8 14 5 14 5 21 -14 21
-15 0 -33 0 -33 -18 -16 -19 -17 -29 0 -30 0 -10 10 -10 10 -262 -52 c-144
-29 -262 -55 -262 -59 0 -3 116 17 258 46 l259 51 20 -13 20 -13 31 6 31 6 21
23 22 24 -9 38 -8 38 -32 15 -32 15 -5 20 c-2 11 -84 405 -182 875 l-177 855
-10 10 -10 10 7 -27z"/>
<path d="M63042 57975 c-111 -23 -205 -45 -209 -49 l-6 -6 19 0 c25 0 396 78
402 85 14 14 -19 9 -206 -30z"/>
<path d="M75440 57787 l0 -213 16 -20 15 -19 -12 24 -11 24 7 209 7 208 -11 0
-11 0 0 -213z"/>
<path d="M36050 57826 c0 -2 30 -14 68 -26 37 -12 145 -54 241 -92 95 -38 175
-67 177 -65 6 6 -277 122 -385 158 -84 29 -101 33 -101 25z"/>
<path d="M62131 57782 c-117 -25 -209 -48 -203 -50 16 -5 424 79 437 90 l9 8
-14 -1 c-8 -1 -111 -22 -229 -47z"/>
<path d="M55466 57744 c-98 -13 -184 -25 -190 -28 l-11 -4 19 -1 c28 -1 419
49 425 54 8 9 -64 3 -243 -21z"/>
<path d="M46535 57610 l6 -10 26 0 c32 0 28 5 -10 14 l-29 7 7 -11z"/>
<path d="M37906 57603 l-6 -6 11 -14 c12 -14 39 -18 39 -5 0 4 -9 13 -19 19
l-19 12 -6 -6z"/>
<path d="M80820 57575 c-140 -37 -326 -127 -485 -234 l-80 -54 -99 -91 -100
-91 -157 -175 -158 -175 9 -3 c5 -2 12 -3 15 -3 3 0 67 70 143 154 l137 153
115 105 115 105 80 55 c98 68 206 127 324 178 l90 39 75 18 76 18 0 13 c0 16
4 16 -100 -12z"/>
<path d="M75532 57504 l33 -46 35 -18 c19 -10 57 -25 84 -34 l49 -17 78 12 79
12 0 7 0 7 -47 -9 c-27 -5 -68 -9 -93 -9 l-45 0 -66 30 -65 29 -28 41 c-16 23
-33 41 -38 41 l-9 0 33 -46z"/>
<path d="M33706 57494 l-16 -15 0 -18 0 -19 18 -13 17 -14 -13 17 -14 17 7 21
6 20 25 0 25 0 6 -16 6 -17 -13 -21 -13 -21 16 14 17 13 0 22 0 22 -12 12 c-7
7 -20 12 -29 12 l-18 0 -15 -16z"/>
<path d="M50364 57391 c3 -5 26 -14 51 -20 25 -6 71 -23 103 -37 l57 -25 48
-47 47 -46 0 10 c0 5 -21 30 -47 55 l-48 45 -30 13 c-25 11 -174 60 -183 61
-2 0 -1 -4 2 -9z"/>
<path d="M34418 57171 c-119 -64 -221 -121 -225 -126 -4 -4 39 17 97 47 58 31
159 84 225 118 133 70 130 68 124 74 -2 3 -102 -48 -221 -113z"/>
<path d="M38054 57227 l4 -67 -29 -105 c-15 -58 -37 -130 -48 -160 l-21 -55 8
0 8 0 32 98 c18 53 39 127 48 164 l16 66 -11 64 -10 63 3 -68z"/>
<path d="M37084 57069 c-71 -66 -142 -133 -158 -149 l-30 -29 7 -7 7 -7 57 54
c32 30 104 97 161 151 l103 96 -9 5 -8 6 -130 -120z"/>
<path d="M47475 56945 l-151 -22 -39 -21 c-22 -11 -51 -32 -65 -47 l-25 -28
21 11 c11 6 26 17 33 25 6 8 35 24 64 35 l52 20 133 18 132 17 0 8 c0 5 -1 8
-2 8 -2 -1 -71 -11 -153 -24z"/>
<path d="M61681 56805 c0 -5 10 -48 23 -95 l23 -85 59 -337 59 -338 8 0 7 0
-5 23 c-3 12 -32 173 -65 357 l-59 335 -24 75 c-14 41 -25 71 -26 65z"/>
<path d="M47200 56796 c0 -4 314 -285 353 -315 9 -7 17 -11 17 -8 0 7 -336
308 -357 321 -7 4 -13 5 -13 2z"/>
<path d="M61643 56785 c29 -101 48 -188 63 -285 l16 -115 10 -10 10 -10 -6 30
c-3 17 -13 75 -21 130 -18 113 -53 255 -68 270 l-9 10 5 -20z"/>
<path d="M37338 56458 c-52 -158 -63 -197 -82 -281 l-7 -29 9 6 9 6 7 42 c4
24 34 125 67 226 33 100 59 187 57 193 -2 5 -29 -68 -60 -163z"/>
<path d="M79450 56580 l-45 -30 -80 -27 -80 -27 -80 -13 -80 -12 75 3 75 3 96
33 96 33 39 33 c49 41 43 43 -16 4z"/>
<path d="M63657 56574 l-5 -10 39 -199 c21 -110 39 -203 39 -207 0 -4 -11 -10
-25 -14 l-26 -6 6 -7 c4 -3 20 -6 36 -7 l29 -2 17 -13 c9 -8 23 -30 31 -49
l16 -35 4 18 4 19 -13 30 -12 30 -21 8 -22 8 -39 203 c-21 112 -41 213 -45
223 l-7 19 -6 -9z"/>
<path d="M82699 56505 c-5 -4 90 -424 98 -434 13 -17 4 31 -41 222 -29 120
-54 215 -57 212z"/>
<path d="M82756 56413 c12 -54 35 -151 50 -215 15 -65 30 -118 34 -118 l7 0
-51 215 c-28 118 -53 215 -57 215 l-7 0 24 -97z"/>
<path d="M26485 56427 c37 -25 316 -167 328 -167 7 0 -15 14 -48 31 -33 17
-111 58 -172 90 -108 56 -150 74 -108 46z"/>
<path d="M74275 56372 c-131 -68 -235 -136 -235 -154 l0 -10 66 47 c37 25 114
70 173 100 58 29 115 60 126 69 l20 15 -10 0 c-5 0 -68 -30 -140 -67z"/>
<path d="M26465 56395 c24 -19 320 -175 332 -175 9 0 -69 43 -242 134 -60 31
-101 50 -90 41z"/>
<path d="M37783 56298 l-22 -83 -16 -125 c-14 -119 -18 -187 -10 -165 3 6 13
80 24 165 l20 155 20 68 20 67 -7 0 c-4 0 -17 -37 -29 -82z"/>
<path d="M55441 56234 c0 -5 51 -51 112 -102 62 -51 136 -114 166 -140 30 -26
52 -42 50 -36 -6 15 -211 195 -311 273 l-18 13 1 -8z"/>
<path d="M78914 56198 c-5 -8 -27 -25 -49 -39 l-40 -24 -66 1 -66 0 -37 22
c-43 26 -46 26 -46 9 l0 -13 32 -18 32 -19 72 -5 72 -5 45 22 c24 12 52 30 62
41 l19 20 -11 11 -11 11 -8 -14z"/>
<path d="M16180 56141 c-102 -26 -198 -51 -214 -55 -15 -4 -26 -9 -23 -12 5
-5 400 91 432 106 l20 9 -15 -1 c-8 0 -98 -21 -200 -47z"/>
<path d="M63061 55966 l-575 -122 -3 -11 -4 -11 38 8 c21 5 277 59 568 120
583 122 565 117 565 131 0 11 81 27 -589 -115z"/>
<path d="M36615 55929 c-137 -55 -283 -109 -324 -120 l-74 -21 -34 5 -33 6 0
-10 0 -9 48 0 c26 0 65 5 87 11 39 10 596 227 604 235 17 16 -57 -10 -274 -97z"/>
<path d="M63355 55928 c-159 -33 -292 -62 -294 -64 -2 -2 -2 -7 2 -10 l6 -6
294 60 294 61 22 -6 21 -5 0 10 c0 11 -24 23 -43 21 -7 0 -142 -28 -302 -61z"/>
<path d="M50466 55962 c80 -67 123 -101 143 -112 32 -16 283 -101 288 -96 2 2
-52 22 -119 46 -153 54 -162 58 -235 119 -34 28 -67 51 -74 51 l-13 0 10 -8z"/>
<path d="M15267 55873 c-120 -31 -215 -58 -213 -61 7 -6 428 98 441 109 l9 9
-9 -1 c-6 0 -108 -26 -228 -56z"/>
<path d="M35870 55836 c0 -3 57 -23 126 -46 l126 -41 12 4 11 4 -120 37 c-155
48 -155 48 -155 42z"/>
<path d="M36101 55719 c-5 -13 -23 -60 -41 -104 -18 -44 -37 -98 -42 -119 l-9
-40 11 -27 12 -27 41 -33 42 -33 -42 47 c-45 48 -46 53 -43 102 l2 30 44 109
c24 60 42 112 39 114 -2 3 -9 -6 -14 -19z"/>
<path d="M37226 55709 c-27 -157 -39 -281 -22 -228 9 28 37 251 32 256 -2 3
-7 -10 -10 -28z"/>
<path d="M46943 55712 l-12 -7 34 -110 c18 -61 50 -146 70 -190 20 -44 41 -90
46 -102 l8 -23 16 6 c8 3 15 11 15 16 0 6 -22 61 -50 123 -27 62 -50 116 -50
120 0 18 -52 175 -58 175 -4 0 -12 -4 -19 -8z"/>
<path d="M25991 55656 c2 -2 94 -68 204 -148 170 -122 255 -181 323 -222 l12
-7 0 8 c0 4 -24 22 -53 40 -29 17 -146 99 -261 182 -115 83 -214 151 -219 151
-6 0 -8 -2 -6 -4z"/>
<path d="M89555 55470 c-9 -19 -60 -117 -112 -217 l-95 -183 10 0 10 0 107
205 106 206 -4 12 -4 12 -18 -35z"/>
<path d="M49366 55412 c-2 -4 -212 -109 -465 -232 -254 -124 -461 -228 -461
-232 0 -4 129 56 288 134 158 77 369 180 468 228 100 48 184 93 188 99 l7 11
-10 0 c-5 0 -12 -4 -15 -8z"/>
<path d="M13025 55341 l-150 -37 -73 -29 c-40 -16 -75 -32 -78 -37 -7 -12 -6
-11 87 26 l84 34 140 32 c77 18 144 36 150 41 l9 9 -9 -1 c-6 -1 -77 -18 -160
-38z"/>
<path d="M50958 55233 c-31 -33 -48 -73 -47 -111 l1 -27 13 46 12 47 28 36
c33 43 29 47 -7 9z"/>
<path d="M53187 55240 l-7 -25 26 -131 25 -132 -42 -68 c-33 -55 -212 -326
-226 -343 -2 -3 -128 79 -281 181 -152 102 -288 191 -300 198 l-24 12 -5 -6
-6 -6 19 -7 c11 -5 147 -93 302 -197 l282 -190 0 -13 0 -14 10 6 10 6 30 -18
30 -17 0 -12 0 -12 13 2 12 1 138 -90 c616 -402 1161 -767 1172 -785 l5 -8
-171 -83 -171 -83 12 -4 12 -4 324 158 c177 88 323 162 324 167 l0 7 -51 -25
c-28 -14 -97 -48 -154 -75 l-104 -48 -158 110 c-165 115 -680 457 -997 663
l-186 120 135 203 135 202 -20 38 -21 37 5 -20 c2 -11 8 -29 11 -41 l6 -20
-127 -192 c-70 -106 -131 -192 -136 -192 -14 0 -58 31 -58 41 0 5 46 79 103
163 56 84 116 175 132 202 l30 49 -18 95 c-10 52 -21 124 -25 160 l-8 65 -7
-25z"/>
<path d="M82749 55195 l-46 -35 -176 -60 c-97 -33 -225 -72 -284 -86 -60 -14
-121 -33 -138 -41 -35 -17 -115 -92 -115 -107 l0 -10 48 46 c60 59 85 71 207
98 l100 22 180 63 180 62 48 34 c26 18 47 36 47 41 0 11 0 11 -51 -27z"/>
<path d="M26510 55170 l0 -10 15 0 c8 0 15 2 15 4 0 2 -7 6 -15 10 l-15 5 0
-9z"/>
<path d="M50985 55013 l6 -32 -15 -29 c-8 -16 -31 -43 -51 -61 l-37 -32 -29
-6 -29 -5 5 -9 5 -8 33 11 32 11 33 31 c19 17 42 48 53 69 l20 37 -16 28 -16
27 6 -32z"/>
<path d="M51598 54993 c56 -2 148 -2 205 0 l102 3 -205 0 -205 0 103 -3z"/>
<path d="M33421 54956 c2 -3 60 -19 128 -36 69 -17 135 -37 148 -44 l24 -12
29 -45 c38 -55 40 -41 3 17 l-27 43 -21 10 c-21 11 -255 71 -276 71 -7 0 -10
-2 -8 -4z"/>
<path d="M52140 54768 c-69 -105 -126 -198 -128 -207 -2 -12 205 295 262 387
l7 12 -8 -1 c-4 0 -64 -86 -133 -191z"/>
<path d="M52280 54932 c0 -13 42 -49 68 -57 12 -3 142 -89 288 -190 145 -101
396 -268 557 -372 160 -103 482 -315 714 -471 233 -156 423 -279 423 -275 -1
9 -826 565 -1160 781 -118 77 -294 193 -390 257 -96 65 -229 154 -295 198 -66
44 -139 94 -162 109 l-43 29 0 -9z"/>
<path d="M49780 54610 c-223 -110 -409 -201 -415 -203 -5 -2 -8 -6 -5 -9 5 -5
819 387 835 403 l9 9 -9 -1 c-6 -1 -192 -90 -415 -199z"/>
<path d="M14070 54796 c0 -2 33 -23 73 -47 57 -34 175 -117 285 -202 l12 -9 0
9 c0 12 -197 158 -284 210 -66 40 -86 49 -86 39z"/>
<path d="M48945 54545 c-126 -69 -234 -126 -240 -128 -5 -3 -8 -7 -5 -10 3 -3
118 55 255 129 138 74 243 134 235 133 -8 0 -118 -56 -245 -124z"/>
<path d="M50240 54624 c-47 -23 -79 -43 -72 -43 11 -1 149 64 161 75 2 2 2 6
0 8 -2 2 -42 -16 -89 -40z"/>
<path d="M18271 54624 c-143 -20 -206 -34 -160 -34 28 0 373 50 377 55 9 9
-51 3 -217 -21z"/>
<path d="M50360 54640 l-15 -10 17 0 c9 0 20 5 23 10 l6 10 -8 0 c-4 0 -15 -5
-23 -10z"/>
<path d="M45796 54629 c-2 -8 -10 -66 -16 -129 -6 -63 -20 -171 -31 -239 l-21
-124 7 -106 c11 -192 34 -336 50 -319 2 2 -3 44 -11 93 l-15 90 -4 155 -4 155
10 50 c13 66 48 379 43 384 -2 2 -6 -2 -8 -10z"/>
<path d="M4362 54608 l4 -12 217 -72 217 -72 5 8 5 9 -10 6 c-14 9 -422 145
-433 145 l-9 0 4 -12z"/>
<path d="M54033 54589 l-62 -19 -68 -40 c-37 -22 -84 -54 -103 -71 -38 -33
-24 -30 25 6 50 36 176 102 233 120 28 9 52 18 52 21 0 6 -11 4 -77 -17z"/>
<path d="M50121 54531 c-1 -7 4 -43 11 -80 l11 -66 24 -26 25 -27 44 -12 44
-13 128 -110 127 -110 68 -44 c37 -23 73 -43 80 -43 l12 0 -62 40 c-35 22
-125 93 -201 158 l-138 118 -47 14 -48 13 -23 28 -24 28 -7 53 c-4 29 -11 62
-16 73 l-8 20 0 -14z"/>
<path d="M16890 54448 c-360 -44 -657 -82 -659 -84 -2 -2 -2 -6 0 -7 6 -6
1349 160 1356 167 l6 6 -24 -1 c-13 -1 -319 -37 -679 -81z"/>
<path d="M33005 54491 c11 -10 102 -73 203 -141 l183 -122 6 6 7 6 -10 9 c-28
25 -387 261 -397 261 l-11 0 19 -19z"/>
<path d="M50225 54480 l-7 -21 46 -61 45 -61 132 -113 c73 -63 135 -112 137
-109 3 3 -2 11 -10 18 -9 6 -68 56 -131 110 l-114 98 -44 61 -44 60 3 19 c4
25 -5 24 -13 -1z"/>
<path d="M50820 54472 c0 -5 53 -47 118 -94 l117 -87 200 -175 c181 -160 223
-193 213 -167 -1 4 -97 91 -213 192 l-210 184 -107 78 c-107 77 -118 84 -118
69z"/>
<path d="M52822 54333 c-49 -76 -142 -220 -206 -321 -64 -101 -145 -221 -180
-268 l-63 -84 -112 79 -113 78 -99 93 c-55 51 -102 90 -105 88 -2 -3 44 -50
103 -105 l108 -99 97 -68 c54 -37 100 -71 103 -76 l5 -9 -10 -6 c-5 -3 -10
-11 -10 -17 l0 -11 19 17 19 18 15 -24 c8 -12 24 -41 36 -63 30 -60 25 -34 -9
41 l-30 66 61 80 c34 43 133 193 221 331 88 139 179 279 202 312 24 33 46 66
50 73 l7 12 -9 0 -10 0 -90 -137z"/>
<path d="M52865 54216 c-75 -114 -139 -215 -142 -224 -3 -9 61 81 142 201 80
121 144 221 141 224 -3 3 -66 -88 -141 -201z"/>
<path d="M88034 54391 c-12 -5 -31 -22 -43 -37 l-21 -27 0 -38 c0 -20 3 -44 6
-53 l6 -16 8 5 8 5 -5 44 -5 45 27 25 28 26 34 0 35 0 29 -29 29 -29 0 -24 0
-23 -21 -34 c-22 -36 -21 -45 4 -35 l17 6 11 38 12 38 -7 36 -7 35 -27 20 -28
19 -34 6 -35 5 -21 -8z"/>
<path d="M51356 54269 c-54 -60 -96 -112 -94 -115 3 -2 49 45 103 106 54 61
96 113 93 115 -2 3 -48 -45 -102 -106z"/>
<path d="M51493 54372 c11 -16 297 -245 302 -241 4 4 -263 225 -293 243 l-15
9 6 -11z"/>
<path d="M5267 54326 l-5 -12 157 -39 c86 -21 185 -49 220 -62 l64 -24 9 9 10
10 -9 5 c-21 12 -181 60 -305 90 l-137 34 -4 -11z"/>
<path d="M45695 54158 l-6 -53 15 -165 15 -165 11 -38 c15 -52 24 -40 10 12
-15 56 -31 245 -31 364 0 53 -2 97 -4 97 -2 0 -6 -24 -10 -52z"/>
<path d="M51680 54165 l-12 -15 -9 6 -9 5 0 -14 0 -15 -75 -88 c-41 -49 -75
-93 -75 -98 0 -5 2 -7 4 -5 2 2 36 42 76 89 40 47 76 89 80 94 l9 9 98 -81 98
-80 25 -7 25 -8 100 -91 c55 -50 137 -117 181 -149 l82 -57 30 -47 c29 -45
152 -314 152 -332 0 -4 -8 -15 -17 -24 l-18 -15 -103 -7 -103 -8 21 -11 21
-11 64 -140 c36 -77 78 -165 95 -196 l30 -57 -7 -17 -6 -18 14 5 14 5 3 15 3
16 -33 58 c-18 32 -63 121 -99 199 l-66 140 81 8 81 8 22 24 22 25 -39 86
c-22 47 -40 90 -40 94 0 4 10 10 22 13 l22 6 -6 6 -6 7 -20 -11 -20 -10 -26
62 c-15 34 -39 79 -53 100 l-26 38 -81 57 c-45 31 -126 98 -182 149 l-101 92
-25 6 -24 6 -72 59 c-40 32 -84 68 -98 79 l-25 20 11 20 c13 25 8 27 -10 6z"/>
<path d="M18190 54146 c0 -2 19 -55 43 -118 24 -62 59 -164 77 -226 l34 -112
8 8 9 9 -39 129 c-22 71 -57 171 -77 222 l-37 92 -9 0 c-5 0 -9 -2 -9 -4z"/>
<path d="M51195 54110 l-18 -20 7 -7 7 -7 20 21 21 21 -10 6 -9 6 -18 -20z"/>
<path d="M6180 54088 l0 -13 413 -119 c226 -66 415 -120 419 -120 3 -1 7 4 9
9 l3 10 -400 117 c-219 64 -409 120 -421 123 l-23 5 0 -12z"/>
<path d="M33447 54062 c-9 -10 -23 -34 -32 -55 l-15 -37 10 0 10 0 11 28 c6
15 19 37 30 48 l21 22 -10 6 -9 6 -16 -18z"/>
<path d="M80851 54046 c-1 -10 18 -91 41 -180 l43 -161 2 15 c2 8 -17 89 -41
180 -25 91 -45 157 -45 146z"/>
<path d="M13471 53873 c0 -10 348 -289 354 -285 13 7 -7 25 -166 153 -161 130
-190 150 -188 132z"/>
<path d="M51410 53861 c0 -5 96 -88 213 -184 l213 -175 41 -46 40 -46 6 7 6 6
-37 45 -37 45 -210 172 c-115 94 -216 175 -222 179 l-13 7 0 -10z"/>
<path d="M48550 53851 c0 -8 39 -87 86 -177 l85 -164 -5 -9 -6 -9 15 -6 15 -5
0 10 0 10 160 76 c88 42 160 80 160 84 l0 9 -161 -80 c-89 -44 -164 -79 -166
-77 -2 3 -44 82 -93 178 -49 96 -90 168 -90 160z"/>
<path d="M19950 53833 c78 -3 299 -22 355 -29 l40 -6 -10 10 -10 9 -135 12
c-74 6 -173 10 -220 9 l-85 -2 65 -3z"/>
<path d="M50902 53823 l-12 -5 5 -8 6 -9 14 6 c8 3 15 9 15 14 0 10 -8 10 -28
2z"/>
<path d="M18652 53769 c3 -8 11 -40 18 -71 l13 -58 19 -20 19 -20 55 0 56 0
81 21 c45 11 86 25 92 30 12 12 10 12 -75 -12 l-75 -21 -63 -1 -64 -2 -18 23
-19 23 -12 55 -12 55 -10 6 -10 6 5 -14z"/>
<path d="M61246 53723 c-7 -24 -86 -457 -86 -474 0 -7 2 -10 5 -7 7 7 96 490
91 495 -2 3 -7 -4 -10 -14z"/>
<path d="M51740 53703 c0 -4 42 -41 93 -82 l92 -74 97 -111 c54 -61 111 -133
128 -159 l30 -47 10 0 c5 0 10 2 10 5 0 15 -80 122 -163 215 l-92 106 -92 74
c-50 41 -96 76 -102 78 l-11 4 0 -9z"/>
<path d="M51070 53593 l-55 -37 -279 -138 -279 -139 6 -5 6 -6 277 136 c261
128 394 202 394 219 0 14 -15 7 -70 -30z"/>
<path d="M32320 53493 c-63 -52 -137 -110 -165 -129 l-50 -33 -120 -16 -120
-16 -40 -24 -40 -23 -33 -46 -33 -46 8 0 c5 0 22 18 39 39 l29 39 50 26 50 26
106 14 107 14 23 13 c26 13 319 248 319 255 0 12 -26 -6 -130 -93z"/>
<path d="M51440 53440 l65 -60 47 -22 c26 -13 47 -26 48 -30 0 -3 -35 -25 -77
-48 -43 -23 -89 -52 -101 -64 -24 -21 -56 -85 -48 -94 3 -2 11 11 19 29 21 49
46 68 192 146 l130 69 78 29 c43 15 80 32 83 36 l5 9 -81 -30 c-44 -16 -103
-39 -131 -51 l-50 -22 -41 19 -42 19 -73 62 c-94 80 -109 81 -23 3z"/>
<path d="M67355 53465 c3 -17 12 -63 20 -104 l13 -74 -8 -23 -9 -23 -28 -14
c-15 -8 -65 -23 -111 -32 -45 -10 -80 -20 -77 -23 3 -3 44 3 92 13 l88 18 23
15 24 15 9 25 9 24 -16 96 -16 97 -9 10 -9 9 5 -29z"/>
<path d="M51935 53460 l-20 -9 15 0 c8 0 24 4 35 9 l20 9 -15 0 c-8 0 -24 -4
-35 -9z"/>
<path d="M74660 53342 c0 -5 6 -31 14 -58 8 -27 27 -118 42 -201 27 -147 37
-183 48 -172 6 6 -59 357 -75 407 l-11 32 -9 0 c-5 0 -9 -4 -9 -8z"/>
<path d="M53614 53211 c-40 -15 -87 -37 -105 -48 -19 -11 -146 -78 -284 -149
-308 -158 -304 -156 -390 -195 l-70 -31 13 -5 12 -5 163 81 c89 44 272 138
406 210 l244 129 43 12 44 13 0 8 c0 11 7 13 -76 -20z"/>
<path d="M54695 53229 l-20 -9 38 5 38 6 198 -130 c108 -72 203 -131 210 -131
l13 0 -203 135 -204 135 -25 -1 c-14 0 -34 -5 -45 -10z"/>
<path d="M56700 53184 c-91 -7 -180 -13 -199 -13 l-34 -1 6 -6 7 -7 187 12
c104 7 202 13 220 13 l32 2 -5 8 -5 8 -22 -1 c-12 -1 -96 -7 -187 -15z"/>
<path d="M12845 52942 c-82 -119 -181 -261 -218 -314 l-68 -98 13 0 13 0 147
213 c81 116 179 258 218 315 l71 102 -13 0 -13 -1 -150 -217z"/>
<path d="M52065 53124 c-11 -8 -123 -69 -248 -136 -125 -66 -226 -123 -223
-125 6 -6 474 243 496 263 l14 14 -9 0 c-6 0 -19 -7 -30 -16z"/>
<path d="M53422 53038 c-95 -50 -170 -93 -168 -95 3 -3 84 36 180 86 l176 92
35 -7 34 -6 100 -197 100 -196 18 -11 c22 -13 415 -139 461 -148 l32 -5 0 9 0
10 -23 0 c-23 0 -314 90 -424 132 l-52 19 -102 197 c-56 108 -103 199 -105
201 -2 2 -22 5 -46 7 l-43 4 -173 -92z"/>
<path d="M66448 53072 c-120 -26 -218 -49 -218 -53 0 -7 437 85 447 94 l6 7
-9 -1 c-5 0 -107 -22 -226 -47z"/>
<path d="M51370 53098 c0 -4 13 -22 28 -40 l28 -33 17 -45 c9 -25 17 -58 17
-73 l0 -27 -18 -18 c-10 -10 -53 -33 -95 -52 -42 -18 -77 -37 -77 -42 l0 -8
92 46 91 46 16 20 16 19 27 -20 26 -21 24 1 23 1 -20 6 c-11 4 -34 15 -50 25
l-31 19 -19 60 -19 60 -38 41 c-20 23 -37 39 -38 35z"/>
<path d="M50560 53059 l0 -10 10 6 c6 3 10 8 10 11 0 2 -4 4 -10 4 -5 0 -10
-5 -10 -11z"/>
<path d="M55191 53033 c-14 -49 -14 -59 3 -91 l14 -28 51 -16 51 -16 0 14 0
13 -41 12 -40 13 -11 19 -10 20 5 49 6 48 -9 0 -9 0 -10 -37z"/>
<path d="M27950 52970 l-115 -38 -42 -41 -42 -42 -11 -37 -12 -37 -8 -150 c-5
-82 -12 -193 -15 -245 l-6 -94 8 8 8 8 12 231 12 232 11 39 11 38 42 42 42 41
113 34 112 34 0 9 c0 4 -1 8 -2 7 -2 0 -55 -18 -118 -39z"/>
<path d="M66000 52939 c-124 -26 -433 -90 -687 -141 l-463 -93 0 -8 0 -8 18 5
c21 7 843 172 892 180 77 12 461 94 467 100 4 3 4 8 2 9 -2 2 -105 -18 -229
-44z"/>
<path d="M56091 52860 l-22 -31 -34 -16 -33 -16 5 -14 5 -13 36 22 c36 22 91
77 92 91 0 4 -6 7 -13 7 l-13 0 -23 -30z"/>
<path d="M77966 52872 l-6 -10 35 -138 34 -139 80 -225 c112 -321 135 -380
143 -380 13 0 9 16 -37 140 -25 67 -75 209 -110 316 l-65 194 -29 121 c-30
124 -35 137 -45 121z"/>
<path d="M52800 52767 c0 -4 44 -89 98 -189 54 -101 145 -281 202 -400 58
-120 108 -218 112 -218 10 0 -184 401 -298 615 -90 168 -114 209 -114 192z"/>
<path d="M31262 52578 c-106 -94 -190 -173 -188 -175 3 -3 87 68 188 158 101
89 187 166 192 171 5 4 7 10 5 13 -3 2 -92 -73 -197 -167z"/>
<path d="M48380 52738 l0 -13 29 -17 30 -16 11 13 10 12 -24 17 c-14 9 -32 16
-41 16 l-15 0 0 -12z"/>
<path d="M52784 52704 l-19 -15 23 11 c12 6 22 13 22 15 0 8 -5 6 -26 -11z"/>
<path d="M39816 52625 l21 -14 124 -30 c68 -17 157 -42 198 -56 41 -14 82 -25
90 -24 26 1 -177 68 -269 89 -47 10 -105 26 -129 35 -54 19 -61 19 -35 0z"/>
<path d="M85807 52543 l-7 -6 11 -14 11 -13 42 0 41 1 18 13 18 14 -9 6 -9 5
-32 -12 -31 -12 -20 13 c-23 14 -24 14 -33 5z"/>
<path d="M40273 52493 l7 -6 7 6 6 7 -13 0 -13 0 6 -7z"/>
<path d="M15807 52403 l-6 -9 182 -74 c100 -40 196 -80 214 -87 l32 -13 5 9 6
9 -203 82 c-111 45 -207 84 -213 87 l-12 4 -5 -8z"/>
<path d="M15786 52352 l-6 -10 168 -68 c92 -37 279 -114 416 -171 217 -90 277
-110 254 -87 -8 7 -605 257 -814 341 l-12 4 -6 -9z"/>
<path d="M52930 52307 c0 -17 49 -103 70 -122 l22 -20 59 -117 c33 -65 61
-118 64 -118 3 0 -22 55 -56 123 l-61 122 -34 38 c-19 20 -34 43 -34 50 0 14
-29 57 -30 44z"/>
<path d="M46611 52296 c2 -2 54 -25 114 -51 61 -26 141 -63 178 -83 l68 -35
50 -45 c27 -24 49 -40 49 -35 0 13 -58 65 -107 96 -65 41 -379 178 -352 153z"/>
<path d="M54305 52117 l-18 -14 7 -12 8 -12 13 11 c7 6 26 13 41 14 l28 3 4
12 4 11 -34 0 -34 0 -19 -13z"/>
<path d="M52747 52033 c-4 -3 -7 -11 -7 -17 l0 -10 12 12 c6 6 9 14 7 17 -3 3
-9 2 -12 -2z"/>
<path d="M52472 51934 c-101 -53 -181 -98 -179 -101 5 -4 377 186 377 193 0
10 -25 -2 -198 -92z"/>
<path d="M37400 51770 c55 -110 102 -200 105 -200 3 0 -40 90 -95 200 -55 110
-102 200 -105 200 -3 0 40 -90 95 -200z"/>
<path d="M29941 51855 c-1 -11 4 -76 10 -145 l12 -125 -37 -225 c-21 -124 -40
-234 -43 -245 l-5 -20 8 8 9 9 40 241 41 242 -13 129 c-7 70 -14 133 -17 140
l-4 11 -1 -20z"/>
<path d="M27716 51768 c-9 -97 -19 -384 -13 -378 6 6 30 431 24 437 -3 2 -7
-24 -11 -59z"/>
<path d="M90878 51743 c-8 -15 -54 -101 -102 -191 -49 -90 -87 -165 -85 -167
6 -5 211 376 206 381 -3 3 -11 -7 -19 -23z"/>
<path d="M90752 51593 c-102 -190 -104 -193 -98 -193 5 0 46 74 131 233 31 59
54 107 52 107 -3 0 -41 -66 -85 -147z"/>
<path d="M13015 51587 c-28 -39 -78 -106 -113 -149 l-63 -78 14 0 14 0 49 62
c46 58 141 188 157 215 l7 12 -7 4 -8 5 -50 -71z"/>
<path d="M4166 51588 c47 -77 226 -345 257 -386 l40 -52 101 -58 101 -57 85
-33 85 -34 180 -19 c99 -10 192 -19 208 -19 l27 0 0 8 0 9 -192 18 -193 18
-95 35 -95 35 -95 54 -95 54 -32 37 c-18 20 -86 119 -150 219 l-118 182 -13 1
-13 0 7 -12z"/>
<path d="M45852 51368 c2 -6 10 -14 16 -16 l12 -4 -6 16 c-3 9 -11 16 -16 16
l-10 0 4 -12z"/>
<path d="M42030 51362 l0 -10 208 -7 c114 -3 215 -9 225 -11 l17 -5 0 9 0 10
-197 6 c-109 4 -210 9 -225 12 l-28 6 0 -10z"/>
<path d="M34157 51343 c7 -22 32 -43 50 -43 l13 0 0 10 0 10 -15 0 -14 0 -11
20 c-6 11 -15 20 -20 20 l-9 0 6 -17z"/>
<path d="M34051 51313 l-12 -26 8 -8 9 -9 11 30 11 30 -7 5 -8 4 -12 -26z"/>
<path d="M61395 51322 l10 -10 185 -42 c102 -23 189 -46 194 -50 l9 -9 -18
-98 c-10 -54 -19 -111 -21 -128 l-4 -30 20 70 20 70 3 70 2 69 -175 41 c-96
23 -188 45 -205 49 l-30 7 10 -9z"/>
<path d="M34240 51310 l0 -13 7 6 6 7 -6 7 -7 6 0 -13z"/>
<path d="M6053 51265 c4 -11 27 -94 52 -185 57 -204 66 -232 71 -227 7 6 -107
410 -119 422 l-9 10 5 -20z"/>
<path d="M32563 51226 l-191 -11 -9 -9 -8 -8 75 6 c41 3 165 11 275 17 203 11
273 20 129 17 -43 0 -165 -6 -271 -12z"/>
<path d="M68033 50951 c-222 -97 -406 -180 -410 -184 l-6 -7 13 0 c20 0 820
354 820 362 0 5 -3 8 -7 7 -5 0 -189 -80 -410 -178z"/>
<path d="M42355 51110 c3 -5 12 -10 19 -10 35 0 179 -150 221 -230 l24 -45 1
13 c0 24 -33 77 -97 153 l-64 76 -48 27 c-27 14 -52 26 -55 26 l-7 0 6 -10z"/>
<path d="M44890 51091 c14 -11 30 -21 35 -21 l10 0 -15 10 c-8 6 -24 15 -35
21 l-20 10 25 -20z"/>
<path d="M28397 51013 c-4 -3 -7 -10 -7 -14 l0 -7 25 2 25 1 0 13 0 12 -18 0
c-10 0 -22 -3 -25 -7z"/>
<path d="M26779 50873 c0 -32 -6 -157 -13 -278 l-13 -220 -13 -26 -12 -27 -22
-11 c-11 -6 -39 -15 -61 -21 l-40 -10 49 5 50 5 21 14 22 14 11 44 11 43 11
225 c6 124 13 242 15 263 l5 37 -10 0 -10 0 -1 -57z"/>
<path d="M6180 50822 l0 -9 119 -11 119 -12 107 -26 107 -25 6 5 5 6 -6 6 c-3
3 -50 16 -104 29 l-98 23 -103 11 c-56 6 -114 11 -127 11 l-25 0 0 -8z"/>
<path d="M59530 50736 c0 -2 -16 -75 -35 -162 l-35 -159 6 -45 c4 -25 11 -51
16 -57 l10 -13 -10 0 c-5 0 -15 7 -22 15 l-12 15 -53 0 c-30 0 -60 -3 -69 -6
l-16 -6 6 -9 5 -9 47 6 47 6 42 -31 c43 -31 63 -38 63 -23 0 4 -5 13 -11 19
l-12 12 -4 73 -4 73 31 135 c17 74 33 143 36 153 l5 17 -15 0 c-9 0 -16 -2
-16 -4z"/>
<path d="M66981 50491 l-203 -89 10 -6 9 -5 201 87 c174 75 227 103 195 102
-5 0 -100 -40 -212 -89z"/>
<path d="M17906 50395 c-92 -126 -137 -200 -136 -224 0 -3 13 17 28 44 16 28
72 110 126 183 54 74 96 136 93 138 -2 3 -52 -61 -111 -141z"/>
<path d="M48893 50510 c-13 -5 -94 -57 -180 -116 l-158 -107 -90 -39 c-49 -22
-94 -44 -99 -49 l-10 -9 6 -5 6 -6 111 49 110 50 118 84 c65 46 133 94 151
107 l32 23 43 1 42 2 43 -23 c47 -24 52 -26 52 -14 0 5 -17 18 -38 30 l-38 21
-40 5 -39 6 -22 -10z"/>
<path d="M31070 50495 c-258 -12 -554 -32 -576 -40 l-11 -3 -6 -51 -6 -50 7
-38 7 -38 5 85 5 85 230 16 c127 9 319 20 428 24 l197 7 0 9 c0 5 -3 8 -7 8
-5 -1 -127 -7 -273 -14z"/>
<path d="M33610 50387 c0 -20 61 -392 65 -396 3 -2 5 2 5 10 -1 30 -59 381
-64 387 l-6 5 0 -6z"/>
<path d="M33575 50355 c2 -16 16 -109 31 -205 15 -96 29 -169 32 -162 5 16
-47 352 -59 377 l-9 20 5 -30z"/>
<path d="M59550 50133 l0 -58 -24 -57 c-13 -32 -21 -60 -18 -63 13 -13 22 -2
41 50 l21 56 0 39 c0 22 3 40 6 40 3 0 25 -12 50 -26 l44 -26 387 -90 c214
-49 503 -113 643 -143 l255 -54 9 9 c5 5 8 11 5 13 -2 2 -98 23 -214 46 -224
46 -1006 224 -1065 243 -19 6 -53 23 -75 38 -22 15 -46 30 -52 34 l-13 7 0
-58z"/>
<path d="M50477 50109 l13 -13 5 6 6 6 -18 6 -18 7 12 -12z"/>
<path d="M34323 50033 l9 -58 10 -10 10 -10 -6 53 c-8 59 -15 82 -26 82 l-7 0
10 -57z"/>
<path d="M38255 49959 c-3 -13 -25 -107 -50 -209 -24 -101 -42 -186 -40 -189
7 -6 11 8 60 218 26 106 44 195 41 198 -3 3 -8 -5 -11 -18z"/>
<path d="M34190 49930 l0 -10 45 0 45 0 0 10 0 10 -45 0 -45 0 0 -10z"/>
<path d="M34320 49929 c0 -10 28 -19 61 -19 l29 0 0 9 0 9 -45 4 -45 3 0 -6z"/>
<path d="M34264 49853 c2 -10 12 -105 22 -210 l18 -193 8 0 8 0 0 27 c0 35
-29 341 -36 371 l-4 22 -11 0 -10 0 5 -17z"/>
<path d="M10110 49802 l0 -8 93 -17 c115 -21 358 -49 365 -42 11 11 -9 15
-173 35 -94 11 -188 24 -210 30 -22 5 -48 10 -57 10 l-18 0 0 -8z"/>
<path d="M22870 49770 c58 -4 159 -7 225 -7 l120 0 -110 7 c-60 4 -162 7 -225
7 l-115 0 105 -7z"/>
<path d="M39205 49772 l10 -9 214 -52 c118 -28 216 -49 219 -47 5 6 -27 14
-243 66 -93 22 -179 43 -190 46 l-20 6 10 -10z"/>
<path d="M22380 49751 l0 -11 73 0 c41 0 130 -3 198 -6 l124 -7 -10 11 -10 10
-187 7 -188 7 0 -11z"/>
<path d="M86057 49547 c-163 -122 -191 -147 -168 -147 10 0 357 261 354 267
-1 3 -3 7 -5 9 -3 2 -84 -56 -181 -129z"/>
<path d="M18190 49572 l0 -8 87 -34 87 -34 127 -76 127 -76 180 -173 c167
-161 197 -185 197 -162 0 5 -83 88 -185 185 l-185 177 -115 69 -115 70 -85 35
c-47 19 -93 35 -102 35 l-18 0 0 -8z"/>
<path d="M64620 49560 l0 -10 20 0 20 0 0 10 0 10 -20 0 -20 0 0 -10z"/>
<path d="M38196 49539 c-3 -8 -23 -86 -45 -175 -22 -89 -43 -170 -47 -180 l-7
-19 11 10 11 10 45 180 c25 99 43 181 41 184 -3 2 -7 -2 -9 -10z"/>
<path d="M43685 49245 c12 -39 520 -1095 523 -1086 1 4 -103 228 -231 497
-224 469 -305 632 -292 589z"/>
<path d="M43641 49233 c0 -14 178 -358 178 -348 1 6 -37 88 -84 183 -75 153
-96 190 -94 165z"/>
<path d="M12180 49112 l0 -118 11 -58 10 -58 37 -66 36 -66 4 12 4 12 -30 52
-30 53 -12 55 -11 55 1 123 1 122 -11 0 -10 0 0 -118z"/>
<path d="M12236 49198 c-3 -13 -6 -58 -6 -100 l0 -77 10 -53 11 -53 31 -67
c18 -38 35 -68 40 -68 12 0 10 6 -21 68 l-28 57 -12 64 -13 64 3 88 c2 49 0
91 -3 94 l-5 6 -7 -23z"/>
<path d="M85284 49024 c-99 -75 -180 -138 -182 -139 -2 -2 1 -6 6 -9 l9 -5
181 137 c168 127 196 152 173 152 -4 0 -89 -61 -187 -136z"/>
<path d="M38073 49097 l3 -11 210 -52 209 -53 8 8 8 8 -221 56 -221 55 4 -11z"/>
<path d="M80895 49020 l-6 -9 50 -26 c28 -14 61 -26 73 -26 l23 -2 -58 -7 -58
-7 -19 -18 c-11 -10 -40 -53 -65 -95 -25 -42 -53 -84 -63 -92 -9 -8 -124 -81
-254 -162 l-237 -147 -63 -6 -63 -5 -37 15 -36 15 -17 26 -17 26 -6 45 -5 45
-10 0 -9 0 4 -61 4 -62 32 -28 31 -28 39 -12 39 -11 71 12 71 12 238 149 c131
82 245 154 254 161 8 7 35 46 59 86 l43 73 25 19 25 20 54 0 54 0 -11 20 -11
20 -69 35 -69 35 -6 -10z"/>
<path d="M81180 48949 l-55 -20 -29 5 -28 6 12 -15 12 -15 16 0 c9 0 46 10 84
22 l68 22 0 8 c0 12 -19 9 -80 -13z"/>
<path d="M75925 48950 l-6 -10 27 -36 27 -35 30 -15 29 -16 10 10 9 9 -30 12
-30 13 -27 39 c-29 43 -30 43 -39 29z"/>
<path d="M91444 48772 c-50 -59 -119 -140 -153 -179 -35 -40 -59 -73 -54 -73
8 0 228 252 296 337 l18 23 -8 -1 c-4 0 -49 -48 -99 -107z"/>
<path d="M75938 48853 l-28 -4 0 -10 0 -10 32 3 31 3 5 13 4 12 -9 -1 c-4 -1
-20 -4 -35 -6z"/>
<path d="M39400 48812 l0 -8 210 -53 210 -54 7 6 c3 4 4 8 2 10 -6 5 -406 107
-418 107 -6 0 -11 -3 -11 -8z"/>
<path d="M46706 48804 l-28 -16 10 -10 10 -10 31 17 32 16 -6 9 c-8 13 -15 12
-49 -6z"/>
<path d="M83470 48755 c0 -6 59 -86 132 -180 72 -93 244 -323 381 -510 138
-187 255 -344 260 -350 l10 -10 -5 16 c-11 29 -697 951 -770 1034 l-8 9 0 -9z"/>
<path d="M83442 48729 c3 -8 66 -95 140 -191 73 -97 191 -255 262 -352 72 -97
134 -176 138 -176 l9 0 -7 13 c-11 18 -257 351 -264 357 -3 3 -57 73 -120 155
-62 83 -125 164 -139 180 l-25 30 6 -16z"/>
<path d="M39950 48690 c0 -5 2 -10 4 -10 2 0 88 -20 192 -44 l189 -44 33 5 32
5 0 10 0 10 -32 -5 -33 -4 -190 43 c-218 51 -195 47 -195 34z"/>
<path d="M43242 48672 l-13 -9 30 0 30 0 -5 9 c-7 10 -25 10 -42 0z"/>
<path d="M65960 48661 c-14 -27 -13 -44 6 -67 l15 -19 -7 14 c-4 8 -7 27 -6
44 l1 30 13 8 13 9 -12 0 -12 0 -11 -19z"/>
<path d="M13045 48639 l-110 -29 -107 -7 -108 -6 0 -8 0 -9 23 -1 c12 0 49 0
82 1 l60 1 65 15 c36 8 100 24 143 35 l77 21 0 9 c0 12 4 12 -125 -22z"/>
<path d="M39947 48640 l-5 -20 9 0 9 0 0 20 c0 11 -2 20 -4 20 -2 0 -6 -9 -9
-20z"/>
<path d="M41295 48591 l-17 -39 7 -21 c3 -12 11 -21 16 -21 l9 0 0 28 0 27 15
29 c18 35 18 36 2 36 l-14 0 -18 -39z"/>
<path d="M14545 48612 l10 -10 133 -31 134 -31 56 1 57 0 20 9 20 8 -66 -5
-65 -6 -135 32 c-74 18 -143 34 -154 38 l-20 5 10 -10z"/>
<path d="M33901 48560 c-1 -26 47 -384 55 -409 14 -43 8 18 -21 214 -18 121
-33 209 -34 195z"/>
<path d="M33595 48549 c-71 -5 -139 -10 -150 -13 -29 -6 264 5 360 14 l80 7
-80 0 c-44 0 -138 -4 -210 -8z"/>
<path d="M32875 48510 l-80 -5 3 -30 c5 -51 33 -210 38 -214 7 -8 4 22 -11
109 -8 47 -15 95 -15 107 l0 22 83 3 82 3 -10 5 c-5 3 -46 3 -90 0z"/>
<path d="M36893 48096 l-161 -11 -9 -8 -8 -9 60 6 c33 3 137 11 230 17 94 6
172 13 174 15 7 6 -107 2 -286 -10z"/>
<path d="M90844 48048 c-32 -35 -77 -93 -101 -130 -24 -37 -76 -107 -115 -155
-70 -86 -495 -570 -567 -645 l-35 -38 10 0 11 0 283 321 c322 364 365 416 427
514 l45 70 61 63 61 62 -11 0 c-6 0 -37 -28 -69 -62z"/>
<path d="M29420 48072 c0 -57 41 -848 45 -857 8 -22 4 126 -15 488 -10 209
-21 381 -24 385 l-6 5 0 -21z"/>
<path d="M47010 47856 c-91 -46 -172 -85 -180 -88 -8 -3 -13 -8 -10 -10 3 -3
91 37 195 88 105 51 183 92 175 93 -8 0 -89 -38 -180 -83z"/>
<path d="M16630 47815 c0 -10 57 -33 98 -39 23 -3 65 -11 93 -17 l50 -11 18
-20 19 -19 6 -52 c4 -29 12 -59 17 -67 l11 -15 -5 25 c-3 14 -9 47 -12 73 l-7
48 -17 20 -16 19 -110 21 c-60 12 -114 25 -119 30 -11 10 -26 12 -26 4z"/>
<path d="M75433 47741 c-315 -43 -576 -80 -580 -84 l-6 -7 6 -6 6 -6 543 72
c299 39 560 74 581 77 l37 6 0 13 c0 8 -3 13 -7 13 -5 -1 -266 -36 -580 -78z"/>
<path d="M90457 47629 c-76 -87 -141 -167 -144 -176 -5 -14 166 178 285 320
l15 17 -9 -1 c-5 0 -71 -72 -147 -160z"/>
<path d="M72721 47725 c-7 -33 -26 -120 -42 -194 -16 -74 -27 -137 -24 -139 7
-7 11 9 50 196 l37 172 -5 13 -4 12 -12 -60z"/>
<path d="M76040 47756 l0 -26 10 0 10 0 0 19 0 20 -10 6 -10 6 0 -25z"/>
<path d="M31810 47752 c0 -66 42 -847 46 -851 7 -8 4 94 -16 483 -10 208 -21
381 -25 384 l-5 5 0 -21z"/>
<path d="M34020 47677 c0 -66 66 -395 82 -412 l10 -10 -5 20 c-19 65 -49 214
-62 304 -14 97 -25 138 -25 98z"/>
<path d="M74831 47610 c0 -8 4 -24 9 -35 l9 -20 0 20 c0 11 -4 27 -9 35 l-10
15 1 -15z"/>
<path d="M71637 47486 c-4 -10 -7 -25 -6 -34 l0 -17 10 24 c5 13 8 29 6 35
l-3 10 -7 -18z"/>
<path d="M72637 47326 c-4 -10 -7 -25 -6 -34 l0 -17 10 24 c5 13 8 29 6 35
l-3 10 -7 -18z"/>
<path d="M18160 47153 l-214 -87 12 -4 13 -4 204 82 205 82 0 9 c0 11 28 21
-220 -78z"/>
<path d="M20661 47113 l-21 -68 -30 -179 -31 -178 -19 -37 -18 -36 -44 -42
-43 -42 -95 -44 c-52 -24 -160 -68 -240 -97 -136 -49 -260 -104 -260 -115 0
-3 26 7 58 21 31 14 125 50 207 80 83 30 192 74 243 99 51 25 96 45 100 45 5
0 26 19 49 43 l41 42 17 40 16 40 39 210 38 210 16 38 16 37 -9 0 -8 0 -22
-67z"/>
<path d="M46350 47100 c0 -11 2 -20 4 -20 2 0 6 9 9 20 l5 20 -9 0 -9 0 0 -20z"/>
<path d="M48773 47090 c8 -19 40 -91 72 -160 31 -69 66 -145 76 -169 11 -24
22 -42 25 -39 6 6 -162 378 -178 393 l-10 10 15 -35z"/>
<path d="M39860 46995 l12 -15 -6 -15 -5 -15 9 0 10 0 0 30 0 30 -16 0 -16 0
12 -15z"/>
<path d="M34750 46750 l0 -180 10 0 10 0 0 180 0 180 -10 0 -10 0 0 -180z"/>
<path d="M46272 46793 c-17 -71 -42 -195 -57 -278 -15 -82 -46 -244 -70 -360
-24 -115 -46 -232 -50 -260 -3 -27 -9 -59 -12 -70 l-5 -20 10 10 9 10 13 80
c6 44 30 163 51 265 22 102 54 256 70 344 27 140 70 339 85 389 l5 17 -9 0
-10 0 -30 -127z"/>
<path d="M21670 46771 c-134 -50 -289 -118 -304 -132 l-10 -9 7 -6 7 -7 103
47 c57 26 159 67 227 90 l124 43 4 12 4 11 -19 -1 c-10 0 -74 -22 -143 -48z"/>
<path d="M47512 46780 c3 -8 29 -86 58 -173 28 -87 54 -156 57 -153 7 6 -97
318 -110 331 l-10 10 5 -15z"/>
<path d="M29486 46650 c4 -69 10 -165 14 -215 l8 -90 -5 200 -5 200 -9 15 -8
15 5 -125z"/>
<path d="M49067 46643 c105 -222 143 -298 140 -281 -3 24 -181 398 -189 398
-4 0 18 -53 49 -117z"/>
<path d="M20626 46718 c-3 -18 -17 -55 -30 -83 l-24 -50 -48 -46 -49 -46 -77
-33 c-43 -19 -78 -37 -78 -41 l0 -8 96 44 96 43 35 33 35 34 24 54 c23 52 42
131 31 131 -2 0 -8 -15 -11 -32z"/>
<path d="M28326 46583 c-3 -76 -8 -173 -10 -215 l-4 -78 8 0 9 0 5 33 c3 17 8
114 11 215 l5 182 -9 0 -9 0 -6 -137z"/>
<path d="M35995 46529 l-310 -7 -450 -26 c-247 -14 -453 -26 -457 -26 -5 0 -8
-7 -8 -15 0 -8 3 -15 8 -15 4 0 250 14 547 30 l540 30 328 7 327 6 0 14 0 13
-107 -2 c-60 -1 -247 -5 -418 -9z"/>
<path d="M52030 46484 c0 -14 173 -374 178 -369 4 4 -168 375 -175 375 -1 0
-3 -3 -3 -6z"/>
<path d="M93277 46483 l-5 -8 71 -99 71 -99 4 11 4 12 -68 95 c-37 52 -68 95
-70 95 -2 0 -5 -3 -7 -7z"/>
<path d="M80978 46433 l13 -5 6 6 6 6 -19 -1 -19 -1 13 -5z"/>
<path d="M80870 46420 l-25 -8 27 -1 27 -1 6 10 6 10 -8 -1 c-4 -1 -19 -5 -33
-9z"/>
<path d="M34450 46390 c-6 -11 -8 -20 -6 -20 3 0 10 9 16 20 6 11 8 20 6 20
-3 0 -10 -9 -16 -20z"/>
<path d="M46172 46086 c-29 -153 -51 -280 -49 -283 6 -6 10 13 62 286 25 134
45 251 43 260 l-3 16 -53 -279z"/>
<path d="M19886 46252 c9 -35 84 -195 90 -189 3 2 -18 51 -45 108 -28 57 -48
94 -45 81z"/>
<path d="M28300 46230 c0 -5 4 -10 9 -10 6 0 13 5 16 10 l6 10 -15 0 -16 0 0
-10z"/>
<path d="M93091 46095 l15 -15 75 -13 76 -14 24 -16 23 -17 51 0 50 0 63 32
c34 18 62 35 62 39 0 4 -30 -8 -67 -27 l-68 -34 -37 0 -37 0 -35 21 -35 20
-68 10 -68 10 -9 9 c-6 6 -15 10 -20 10 l-10 0 15 -15z"/>
<path d="M52172 46084 c2 -5 49 -102 103 -216 54 -115 100 -206 103 -203 6 6
-189 414 -202 422 l-9 6 5 -9z"/>
<path d="M93060 46071 c0 -4 16 -15 35 -24 l36 -17 32 0 32 0 53 -25 54 -25
54 0 54 0 71 36 c93 47 83 55 -12 9 l-73 -35 -41 0 -40 0 -47 25 -47 25 -38 0
-38 0 -42 20 -43 19 0 -8z"/>
<path d="M81370 45886 c-4 -13 -14 -43 -20 -67 -6 -24 -20 -66 -32 -94 l-21
-50 -16 -12 -16 -12 10 -1 c31 0 54 45 90 178 21 80 24 107 5 58z"/>
<path d="M46102 45784 c8 -7 222 -49 300 -58 l58 -7 95 12 95 12 0 7 0 7 -87
-13 -88 -14 -83 11 c-46 5 -126 19 -179 29 -52 11 -100 20 -106 20 l-10 0 5
-6z"/>
<path d="M89940 45719 l-195 -60 -42 4 -43 5 0 -13 0 -13 -35 -30 c-19 -17
-63 -50 -97 -73 -88 -59 -240 -180 -234 -186 2 -3 44 26 93 64 48 38 123 94
167 123 l79 54 20 28 21 28 39 0 39 0 191 56 c106 31 196 60 202 65 l9 9 -9
-1 c-6 0 -98 -28 -205 -60z"/>
<path d="M81200 45680 l0 -9 15 5 c8 4 15 8 15 10 0 2 -7 4 -15 4 l-15 0 0
-10z"/>
<path d="M81244 45592 l-1 -67 14 33 14 33 -7 35 c-3 19 -9 34 -13 34 l-6 0
-1 -68z"/>
<path d="M15434 45445 c9 -82 24 -413 31 -690 l7 -230 8 -59 c9 -59 15 -74 25
-64 3 3 1 17 -5 32 l-10 28 -15 411 c-15 408 -29 615 -41 626 l-7 6 7 -60z"/>
<path d="M28201 45288 c5 -18 23 -82 40 -143 17 -60 43 -138 56 -172 l25 -63
9 0 c12 0 12 2 -12 62 -12 29 -40 118 -64 198 l-42 144 -11 4 -11 3 10 -33z"/>
<path d="M52851 44653 c107 -225 149 -308 146 -292 -3 25 -191 419 -199 419
-4 0 20 -57 53 -127z"/>
<path d="M94290 44419 c-151 -110 -283 -205 -292 -210 l-17 -9 -86 118 -86
117 -40 27 c-21 14 -53 31 -69 37 l-30 10 0 -8 c0 -5 10 -11 23 -15 12 -3 43
-19 67 -35 l45 -30 90 -125 c79 -112 111 -147 103 -117 l-3 10 299 215 c164
119 292 216 285 215 -8 0 -138 -91 -289 -200z"/>
<path d="M28496 44325 c-53 -130 -95 -240 -92 -243 3 -2 9 4 13 14 3 10 46
115 95 233 49 118 87 219 85 224 -2 6 -47 -97 -101 -228z"/>
<path d="M93654 44462 c2 -4 28 -19 56 -32 l51 -24 195 -269 195 -269 19 -42
c10 -22 22 -50 25 -61 l7 -20 5 12 5 13 -26 55 -25 55 -194 267 -195 268 -56
28 c-60 29 -70 32 -62 19z"/>
<path d="M87892 44010 c-56 -100 -56 -100 -44 -100 5 0 30 38 56 85 l47 86 -3
11 -4 12 -52 -94z"/>
<path d="M87885 43900 c13 -25 207 -333 223 -355 l14 -20 -6 19 c-8 25 -205
337 -224 356 l-15 15 8 -15z"/>
<path d="M41080 43519 c14 -7 49 -23 79 -37 l54 -25 71 -68 71 -67 46 -84 c26
-45 84 -172 130 -280 46 -109 87 -198 90 -198 4 0 -37 104 -92 230 l-98 231
-35 57 -35 57 -68 66 -68 65 -55 27 c-30 14 -68 29 -85 32 l-30 5 25 -11z"/>
<path d="M74355 43514 c-219 -31 -256 -36 -251 -41 2 -3 81 6 176 18 l171 23
8 -12 c4 -7 20 -113 35 -235 33 -270 37 -299 43 -293 3 2 -10 125 -29 271
l-33 267 -15 7 -15 7 -90 -12z"/>
<path d="M34506 43480 c-22 -56 -129 -215 -179 -267 l-41 -43 10 0 c18 0 80
73 143 168 l62 93 15 41 c19 54 11 60 -10 8z"/>
<path d="M40900 43510 l-75 -7 -62 -21 -63 -20 -50 -32 c-28 -18 -49 -35 -46
-37 3 -3 22 5 43 18 58 37 105 56 181 74 l71 17 70 -4 71 -4 -8 7 c-13 14 -56
16 -132 9z"/>
<path d="M34532 43446 l-32 -68 -66 -92 c-37 -50 -79 -104 -93 -120 l-26 -29
15 5 15 4 72 95 c39 52 90 128 113 169 l41 74 -3 16 -4 15 -32 -69z"/>
<path d="M88102 43472 c91 -151 214 -342 220 -342 4 0 -38 73 -94 163 -56 89
-108 174 -117 189 -9 16 -20 28 -24 28 l-8 0 23 -38z"/>
<path d="M50994 43300 l-241 -38 -344 -97 -344 -97 -10 -10 -10 -11 15 5 c8 3
166 48 350 101 l335 96 270 40 c304 47 316 49 260 49 -22 0 -149 -17 -281 -38z"/>
<path d="M52436 43255 l-6 -16 -167 -81 -168 -80 -195 -28 c-107 -16 -262 -38
-345 -49 -166 -24 -200 -30 -193 -37 3 -2 83 7 179 20 96 14 257 36 359 50
l185 24 178 87 179 88 5 14 c3 8 3 16 0 19 -2 3 -7 -2 -11 -11z"/>
<path d="M52110 43055 c0 -13 199 -403 204 -398 3 3 -40 95 -95 204 -87 174
-109 214 -109 194z"/>
<path d="M10490 42985 c0 -11 5 -27 10 -35 l10 -15 0 20 c0 11 -5 27 -10 35
l-10 15 0 -20z"/>
<path d="M51340 42931 c0 -15 47 -303 56 -340 3 -13 7 -22 9 -19 5 5 -52 358
-59 366 l-6 5 0 -12z"/>
<path d="M29886 42843 c62 -84 74 -101 123 -185 28 -48 51 -89 51 -91 0 -12
32 -79 35 -75 8 8 -36 112 -73 173 -52 88 -144 215 -155 215 l-9 0 28 -37z"/>
<path d="M29830 42854 c0 -3 37 -60 83 -127 l82 -122 43 -115 43 -115 10 -55
c5 -30 14 -140 18 -245 l9 -190 13 -30 c19 -43 210 -271 334 -400 59 -60 103
-103 99 -95 -4 8 -56 67 -115 130 -132 142 -274 313 -299 361 l-18 35 -7 145
c-3 79 -11 188 -17 243 l-11 98 -46 122 -47 121 -82 123 c-75 111 -92 133 -92
116z"/>
<path d="M31880 42689 l0 -12 -157 -153 -157 -153 6 -7 7 -6 128 121 c159 151
217 221 183 221 -5 0 -10 -5 -10 -11z"/>
<path d="M51290 42548 c-74 -9 -225 -29 -335 -43 -229 -30 -268 -36 -262 -42
3 -2 76 5 163 16 88 11 248 30 356 42 178 20 232 31 218 41 -3 2 -66 -4 -140
-14z"/>
<path d="M51436 42334 c17 -107 35 -198 39 -202 l8 -7 -6 30 c-3 17 -18 108
-33 203 l-27 172 -7 0 -6 0 32 -196z"/>
<path d="M45928 42262 c-87 -48 -159 -92 -162 -98 -2 -6 -1 -35 4 -65 l8 -54
1 60 1 60 160 88 c88 49 160 90 160 93 0 10 -23 -1 -172 -84z"/>
<path d="M27790 42278 c0 -64 69 -421 84 -436 15 -14 13 10 -4 79 -16 63 -60
326 -60 360 0 5 -4 9 -10 9 l-10 0 0 -12z"/>
<path d="M51505 42118 c6 -28 55 -395 55 -414 0 -8 4 -14 8 -14 l8 0 -30 225
-30 225 -8 0 -8 0 5 -22z"/>
<path d="M39554 42033 c3 -10 8 -36 12 -57 9 -54 38 -101 98 -165 51 -53 124
-107 133 -97 3 2 -12 16 -34 29 -51 33 -124 111 -155 167 l-26 45 -7 48 -7 47
-10 0 -9 0 5 -17z"/>
<path d="M31088 41783 c-189 -266 -213 -293 -347 -393 -55 -41 -100 -79 -101
-84 l0 -8 15 6 c24 9 207 151 242 188 29 31 373 504 373 514 0 2 -4 4 -10 4
l-9 0 -163 -227z"/>
<path d="M46585 41874 l-190 -83 -217 -78 c-120 -42 -218 -80 -218 -84 0 -18
808 296 838 326 17 17 -45 -7 -213 -81z"/>
<path d="M66802 41852 c1 -15 -1 -33 -5 -39 l-7 -12 9 -5 9 -6 12 15 12 14 -7
31 -7 30 -9 0 -9 0 2 -28z"/>
<path d="M51528 41685 l-5 -10 13 -31 13 -31 24 -15 23 -16 164 -27 c90 -14
168 -29 172 -31 l8 -5 0 9 0 10 -62 11 c-35 5 -110 18 -168 27 l-105 16 -27
20 -28 19 -8 32 -8 31 -6 -9z"/>
<path d="M30340 41664 c0 -12 249 -287 264 -293 l11 -4 -20 24 c-12 13 -70 78
-130 144 -60 66 -113 124 -117 130 l-8 9 0 -10z"/>
<path d="M30907 41623 c-15 -21 -50 -61 -79 -89 l-53 -51 -375 -283 -375 -283
-45 -18 c-25 -9 -78 -22 -119 -29 l-74 -12 -49 6 -50 7 -69 39 -69 39 -82 68
c-92 76 -148 111 -229 144 l-54 21 -90 14 -90 14 -185 9 -185 10 -72 15 c-138
30 -292 105 -392 193 l-50 43 -5 -8 -5 -9 32 -30 c18 -17 61 -51 97 -75 l66
-44 89 -38 90 -37 94 -20 93 -19 82 0 c115 0 304 -17 389 -35 l72 -15 70 -34
70 -35 92 -75 92 -75 73 -42 73 -42 57 -5 57 -4 68 11 c37 7 88 19 113 28 l45
16 380 285 c209 157 402 306 428 331 46 44 117 132 117 145 0 17 -20 2 -43
-31z"/>
<path d="M41086 41100 l-56 -69 -43 -29 -42 -29 -69 -18 -69 -19 12 -4 13 -4
61 17 62 17 41 29 c40 27 103 96 139 152 31 48 9 29 -49 -43z"/>
<path d="M57748 40883 c56 -2 148 -2 205 0 l102 3 -205 0 -205 0 103 -3z"/>
<path d="M53560 40755 l0 -25 25 -16 26 -17 6 7 7 6 -22 20 -22 21 0 14 0 15
-10 0 -10 0 0 -25z"/>
<path d="M60468 40483 c7 -3 110 -19 228 -37 l214 -32 0 6 c0 6 -422 71 -445
69 l-10 -1 13 -5z"/>
<path d="M61332 40218 c24 -21 293 -185 357 -218 l23 -12 -5 9 c-3 5 -59 40
-124 78 -65 38 -143 85 -173 105 -30 20 -66 42 -80 49 l-25 12 27 -23z"/>
<path d="M94093 40108 c8 -23 259 -360 264 -355 3 4 -247 351 -265 367 -3 3
-3 -2 1 -12z"/>
<path d="M84815 39969 c5 -8 50 -75 100 -149 51 -74 167 -260 260 -412 93
-153 170 -276 173 -273 12 12 -497 821 -530 841 l-11 7 8 -14z"/>
<path d="M81062 39960 c18 -52 485 -786 494 -777 3 3 -26 52 -64 109 -38 56
-146 229 -241 383 -95 154 -178 285 -184 290 l-10 10 5 -15z"/>
<path d="M84780 39956 c0 -4 34 -58 77 -119 42 -62 220 -346 395 -632 175
-286 323 -521 328 -523 23 -8 -736 1213 -791 1273 l-9 9 0 -8z"/>
<path d="M52145 39819 c-15 -65 -73 -384 -70 -388 5 -5 10 17 50 223 19 99 33
182 30 184 -2 2 -7 -6 -10 -19z"/>
<path d="M52186 39819 c-2 -8 -19 -90 -36 -184 -17 -93 -34 -181 -37 -195 l-6
-25 8 7 c8 8 85 401 79 407 -2 2 -6 -2 -8 -10z"/>
<path d="M10 39671 c8 -4 76 -23 150 -41 l135 -33 69 -29 c74 -30 85 -33 70
-19 -24 24 -373 131 -424 131 l-15 -1 15 -8z"/>
<path d="M94440 39634 c0 -11 162 -229 173 -233 l12 -4 -26 34 c-14 19 -54 73
-88 122 -60 82 -71 95 -71 81z"/>
<path d="M48137 39578 c-105 -132 -217 -281 -217 -290 0 -6 59 65 130 157 72
92 130 169 130 171 0 11 -12 0 -43 -38z"/>
<path d="M2960 39474 c0 -4 10 -22 21 -41 l21 -34 6 6 6 6 -19 34 c-16 31 -35
46 -35 29z"/>
<path d="M51565 39082 l10 -9 135 -32 c119 -28 709 -141 734 -141 39 0 -43 18
-325 70 -273 51 -438 87 -544 117 l-20 5 10 -10z"/>
<path d="M52461 38936 c3 -3 493 -96 849 -162 l25 -4 -20 10 c-20 10 -808 160
-841 160 -9 0 -15 -2 -13 -4z"/>
<path d="M94891 38920 c92 -133 296 -409 302 -410 5 0 -13 31 -40 68 -183 258
-259 361 -267 362 l-8 0 13 -20z"/>
<path d="M55666 38841 l-7 -11 192 -125 192 -126 10 10 11 11 -9 8 c-16 15
-354 232 -369 238 l-14 5 -6 -10z"/>
<path d="M53780 38691 l0 -7 175 -33 c96 -18 185 -35 197 -38 l23 -6 -10 10
-10 9 -120 23 c-66 13 -150 29 -187 36 l-68 13 0 -7z"/>
<path d="M88620 38360 c10 -20 146 -253 156 -269 2 -2 19 7 39 19 20 12 34 25
31 27 -3 3 -17 -2 -30 -11 -14 -9 -27 -16 -30 -16 -3 0 -38 55 -77 123 -40 67
-79 129 -87 137 l-14 15 12 -25z"/>
<path d="M95295 38017 c-110 -56 -202 -103 -204 -105 -3 -1 0 -7 6 -13 l10
-10 201 103 202 103 0 13 c0 6 -3 12 -7 11 -5 0 -98 -46 -208 -102z"/>
<path d="M34600 38043 c0 -5 31 -21 68 -38 l67 -30 204 -126 204 -126 89 -83
c49 -45 91 -80 94 -78 2 3 -33 42 -80 87 l-84 82 -211 130 c-117 71 -242 143
-278 159 -72 33 -73 33 -73 23z"/>
<path d="M56747 37826 l-5 -14 182 -87 183 -87 24 4 24 5 -198 96 c-108 53
-199 97 -201 97 -2 0 -6 -6 -9 -14z"/>
<path d="M90530 37550 l0 -10 38 0 37 0 15 10 15 10 -52 0 -53 0 0 -10z"/>
<path d="M86157 37278 c-125 -83 -226 -153 -223 -155 3 -4 439 278 461 298 l9
9 -9 0 c-6 -1 -113 -69 -238 -152z"/>
<path d="M86193 37251 c-122 -80 -228 -152 -235 -160 l-13 -14 15 8 c17 9 452
295 459 301 2 2 2 6 0 8 -2 2 -104 -63 -226 -143z"/>
<path d="M83152 37248 c-7 -7 -12 -16 -12 -20 l0 -8 24 15 24 16 25 -7 26 -6
102 -159 c56 -88 103 -158 106 -156 6 6 -186 309 -205 325 l-16 12 -31 0 -31
0 -12 -12z"/>
<path d="M85620 37249 c0 -6 73 -129 161 -273 l162 -261 151 -210 c82 -115
200 -287 261 -381 l111 -170 12 4 11 3 -16 27 c-80 128 -286 435 -372 556 -58
82 -185 275 -281 429 l-175 280 -12 5 -13 4 0 -13z"/>
<path d="M62570 37195 c0 -6 19 -37 42 -70 l42 -61 138 -92 138 -92 0 10 0 9
-129 85 -129 84 -42 58 c-24 33 -47 63 -51 69 l-9 9 0 -9z"/>
<path d="M40363 36562 l-223 -47 0 -8 0 -8 18 5 c9 3 109 24 222 47 113 23
209 46 215 50 l9 9 -9 -1 c-6 0 -110 -22 -232 -47z"/>
<path d="M40975 36488 c2 -13 30 -203 60 -423 l56 -400 10 -20 9 -20 -4 35
c-2 19 -30 218 -62 443 l-59 407 -8 0 -7 0 5 -22z"/>
<path d="M85901 36327 c-3 -33 253 -337 283 -337 5 0 -22 33 -61 73 -63 66
-162 185 -205 247 -9 14 -17 21 -17 17z"/>
<path d="M88482 36123 c-105 -65 -191 -122 -192 -126 l0 -8 13 3 c22 5 386
232 387 241 0 15 -22 4 -208 -110z"/>
<path d="M86188 36043 l-4 -8 64 -60 65 -60 -11 20 c-6 11 -33 42 -60 68 l-50
49 -4 -9z"/>
<path d="M80795 35992 c-16 -10 -213 -114 -438 -232 -224 -117 -405 -215 -403
-218 3 -2 168 81 368 186 200 104 395 206 435 226 39 19 74 40 78 46 l6 10 -8
0 c-4 0 -21 -8 -38 -18z"/>
<path d="M54780 35860 c-58 -10 -148 -21 -201 -25 l-96 -7 -14 -8 c-7 -5 -11
-11 -9 -13 7 -6 236 18 362 39 l108 17 -6 8 c-7 11 -16 11 -144 -11z"/>
<path d="M84172 35660 c13 -25 64 -114 113 -199 l89 -154 -18 -11 c-9 -6 -338
-218 -729 -471 -776 -502 -1171 -764 -1164 -771 2 -2 162 100 355 228 300 199
1464 953 1540 998 14 8 33 20 41 27 9 7 124 82 256 168 l240 155 40 -1 40 0
26 -22 26 -22 63 -110 c35 -60 84 -139 110 -175 27 -36 83 -121 125 -190 42
-69 81 -129 86 -134 l9 -10 0 12 c0 17 -155 265 -220 352 -31 41 -80 118 -110
170 l-53 95 -26 22 -26 22 -48 1 -48 0 -241 -156 c-133 -86 -247 -158 -254
-161 l-12 -4 -103 178 c-56 98 -109 185 -117 193 l-15 15 25 -45z"/>
<path d="M84916 35603 c-21 -6 -464 -288 -486 -311 l-15 -15 15 8 c8 4 119 75
246 156 l231 149 27 0 26 0 20 -20 c11 -11 33 -45 49 -77 17 -32 44 -78 60
-103 l31 -45 0 17 c0 9 -4 20 -10 23 -5 3 -33 49 -61 101 l-51 94 -21 15 c-22
15 -28 16 -61 8z"/>
<path d="M79815 35430 l-130 -69 -128 -42 c-70 -23 -126 -43 -124 -46 3 -2 56
12 119 31 l113 36 140 71 c77 40 144 76 150 80 l9 9 -9 0 c-6 0 -68 -32 -140
-70z"/>
<path d="M40417 35408 l-6 -22 5 -23 c4 -13 10 -23 15 -23 l9 0 -9 23 -8 22 8
23 8 22 -8 0 c-5 0 -11 -10 -14 -22z"/>
<path d="M29891 34733 c13 -38 184 -412 187 -405 2 8 -174 402 -185 411 l-6 6
4 -12z"/>
<path d="M85805 34628 c-116 -73 -1064 -658 -1100 -678 -143 -81 -1012 -633
-1308 -832 l-88 -59 -11 7 -11 7 7 -11 6 -11 -172 -117 c-95 -64 -382 -270
-638 -457 l-465 -341 -79 -44 c-43 -25 -115 -61 -160 -80 l-81 -35 -70 -14
-70 -13 -65 0 -65 0 -73 20 c-102 28 -180 65 -339 161 -149 90 -236 149 -230
156 3 2 112 -50 243 -115 l239 -119 90 -28 90 -27 75 -7 75 -6 68 8 67 7 83
39 82 38 535 394 535 394 327 223 c347 235 823 539 1513 965 231 142 426 265
433 272 l14 13 -9 5 -9 6 -520 -323 c-783 -484 -1075 -671 -1454 -928 l-345
-234 -481 -356 c-559 -413 -586 -432 -668 -466 l-61 -26 -125 0 -125 0 -89 28
-90 28 -229 115 -230 115 -26 -5 -25 -5 -135 86 c-75 48 -155 94 -178 104
l-43 16 6 -9 5 -9 -7 0 c-4 0 -17 8 -28 19 -12 10 -208 130 -436 267 l-415
248 -105 39 -105 39 -115 14 -115 14 -400 10 -400 11 -250 -11 -250 -10 -145
-25 c-80 -14 -253 -39 -385 -55 -132 -17 -726 -100 -1320 -185 -594 -84 -1140
-161 -1212 -171 l-133 -18 0 -13 0 -13 13 0 c34 0 909 124 1222 174 193 30
447 67 565 81 118 14 294 37 390 50 96 14 301 41 455 60 154 20 343 47 420 60
l140 24 295 11 295 12 105 -7 c58 -3 231 -10 385 -16 154 -6 314 -14 355 -18
l75 -8 102 -37 c56 -21 110 -44 120 -52 l18 -13 -15 -1 c-8 0 -98 14 -200 30
-102 16 -193 30 -202 30 l-18 0 0 -13 0 -12 260 -42 261 -41 337 -201 337
-200 130 -90 c72 -49 154 -106 183 -127 29 -20 55 -35 57 -32 3 3 -56 51 -130
108 -74 57 -133 105 -131 107 2 3 33 -16 68 -42 162 -121 614 -404 708 -444
30 -13 84 -32 120 -42 l65 -20 68 -5 68 -6 82 12 82 12 75 30 c41 16 120 54
175 84 l100 55 465 340 c862 630 1532 1067 3308 2153 l84 51 0 10 c-1 20 -19
13 -97 -37z"/>
<path d="M1870 34570 l0 -7 53 -7 c28 -4 84 -15 122 -26 39 -10 97 -21 130
-25 33 -4 71 -9 84 -12 l24 -6 -6 10 -7 10 -70 7 c-39 4 -96 14 -128 22 -31 9
-90 21 -129 28 l-73 13 0 -7z"/>
<path d="M77627 34453 c-92 -47 -165 -88 -163 -90 2 -2 77 33 167 78 l164 83
50 7 50 6 -50 1 -50 1 -168 -86z"/>
<path d="M80540 34465 c0 -3 25 -51 55 -107 30 -55 55 -105 55 -109 0 -5 4 -9
8 -9 12 0 175 89 187 102 5 6 -30 -10 -79 -35 -48 -26 -92 -47 -96 -47 -5 0
-34 47 -65 105 -50 94 -65 117 -65 100z"/>
<path d="M71595 34310 c157 -8 761 -13 754 -6 -2 2 -206 6 -454 8 l-450 5 150
-7z"/>
<path d="M54695 34157 c-447 -58 -482 -64 -474 -72 5 -4 922 115 928 121 2 2
2 5 0 7 -2 2 -206 -23 -454 -56z"/>
<path d="M54908 34146 l-218 -32 -7 -9 -8 -8 30 6 c17 3 122 18 235 33 l205
27 10 9 9 8 -19 -1 c-11 -1 -118 -16 -237 -33z"/>
<path d="M82491 34043 c6 -19 260 -325 266 -320 4 4 -223 286 -259 322 l-10
10 3 -12z"/>
<path d="M63897 33896 l-5 -13 161 -96 c89 -53 169 -99 178 -102 l17 -6 5 8 6
9 -157 94 c-86 52 -166 101 -178 107 l-22 13 -5 -14z"/>
<path d="M30382 33695 c56 -112 104 -203 105 -201 6 5 -191 405 -199 405 -5 1
38 -91 94 -204z"/>
<path d="M35295 33783 c-225 -156 -249 -173 -239 -173 10 0 335 219 359 241
l9 9 -9 0 c-6 -1 -59 -35 -120 -77z"/>
<path d="M52290 33825 l-75 -13 -95 -2 -95 -1 -20 -9 -20 -9 105 5 c101 5 341
32 349 40 9 8 -77 1 -149 -11z"/>
<path d="M34425 33672 l-79 -137 -35 -32 c-39 -37 -31 -45 10 -10 l25 23 69
114 c37 63 77 130 87 148 l20 32 -9 0 c-4 0 -44 -62 -88 -138z"/>
<path d="M77806 33518 c-3 -23 -7 -121 -9 -215 l-4 -173 7 0 7 0 6 212 c5 210
4 261 -7 176z"/>
<path d="M42001 33545 c-1 -5 33 -110 75 -232 l76 -223 9 0 8 0 -68 198 c-71
203 -99 274 -100 257z"/>
<path d="M83042 33400 c6 -16 241 -270 250 -270 l10 0 -27 32 c-78 92 -221
248 -228 248 l-9 0 4 -10z"/>
<path d="M83031 33354 c121 -137 229 -252 229 -245 0 11 -229 265 -244 270
l-11 4 26 -29z"/>
<path d="M64984 32998 c-3 -5 -4 -11 -3 -13 8 -7 389 -225 394 -225 3 0 5 6 5
13 l-1 12 -194 112 -195 111 -6 -10z"/>
<path d="M65525 32960 l-7 -12 8 -7 c5 -4 216 -129 469 -278 495 -290 677
-389 935 -506 l165 -75 175 -57 c96 -31 229 -72 295 -91 l120 -35 178 -24 179
-25 217 -7 217 -6 209 13 210 12 235 39 c129 21 456 68 725 103 270 36 875
117 1345 180 470 63 950 127 1065 141 206 25 617 80 825 110 58 8 111 15 118
15 l12 0 0 16 0 15 -17 -5 c-10 -2 -59 -10 -109 -17 l-92 -11 -13 5 -14 5 22
1 22 1 15 22 16 22 0 58 0 58 -15 0 -14 0 -3 -62 -3 -63 -50 -17 -50 -17 -120
-17 -120 -18 24 -5 23 -6 -313 -38 c-173 -21 -701 -90 -1174 -153 -473 -63
-1111 -148 -1417 -189 -306 -41 -637 -88 -735 -104 l-178 -30 -188 -12 -187
-12 -253 6 -252 6 -180 25 -180 26 -80 21 c-44 11 -152 43 -240 70 l-160 49
-139 57 -139 57 -191 99 -191 99 -482 284 c-266 157 -489 287 -497 290 l-14 5
-7 -11z m7395 -521 c-25 -4 -61 -7 -80 -7 l-35 1 45 7 c25 4 61 7 80 7 l35 0
-45 -8z m-132 -16 c-10 -2 -28 -2 -40 0 l-23 4 40 0 40 1 -17 -5z"/>
<path d="M79420 32681 c8 -5 143 -59 299 -121 l284 -113 83 -49 83 -50 12 4
13 4 -60 36 -59 36 -238 101 c-233 99 -397 161 -420 161 l-12 -1 15 -8z"/>
<path d="M73251 32370 c0 -14 4 -32 9 -40 l10 -15 -1 20 c0 11 -4 29 -9 40
l-9 20 0 -25z"/>
<path d="M72483 32341 c-106 -15 -196 -30 -199 -34 l-6 -6 5 -14 5 -13 226 30
227 30 -3 16 -3 15 -30 2 c-17 0 -117 -11 -222 -26z"/>
<path d="M72991 32338 c0 -7 4 -22 9 -33 l9 -20 0 27 1 27 -10 6 -10 6 1 -13z"/>
<path d="M82249 32187 c-255 -185 -473 -345 -622 -457 l-126 -95 9 -9 9 -9
129 96 129 95 14 -1 c8 -1 51 11 96 25 l81 27 44 2 c23 1 62 -2 86 -6 l42 -8
0 11 0 10 -44 11 c-59 15 -91 14 -156 -3 -65 -17 -96 -30 -130 -53 -70 -47 12
18 136 109 498 364 529 388 495 388 -5 0 -91 -60 -192 -133z"/>
<path d="M71116 32154 c-374 -52 -681 -96 -683 -98 -2 -2 -1 -11 3 -20 l7 -17
26 5 c14 3 310 44 656 91 347 47 644 88 661 91 l32 6 -5 19 c-3 10 -8 19 -12
18 -3 0 -312 -43 -685 -95z"/>
<path d="M70165 32025 c-88 -13 -168 -24 -177 -24 l-18 -1 0 -20 0 -20 12 0
c7 0 99 12 205 26 l193 27 0 18 0 19 -27 -1 c-16 -1 -100 -12 -188 -24z"/>
<path d="M81840 31991 l-55 -27 -175 -129 c-96 -70 -177 -130 -179 -132 -3 -2
0 -7 5 -12 l9 -9 225 165 c124 91 227 167 229 169 8 8 -5 2 -59 -25z"/>
<path d="M80601 31837 l-34 -11 -52 -50 -52 -51 -17 -51 -16 -50 -3 -60 -2
-59 33 -67 33 -67 37 -31 c20 -16 52 -37 71 -46 l34 -17 63 -5 63 -5 47 12
c25 7 48 10 50 8 3 -3 -118 -93 -579 -431 l-128 -94 11 -7 11 -7 87 63 c48 35
150 110 227 167 77 56 273 200 437 320 l296 217 -5 8 c-8 13 -18 8 -128 -74
l-110 -81 -50 -23 c-27 -12 -85 -31 -128 -41 l-77 -18 -53 14 -52 13 -42 28
c-50 35 -77 68 -103 127 l-20 45 0 48 0 48 20 54 20 54 36 36 c20 20 52 44 73
54 l36 18 68 -2 68 -2 37 -12 c20 -6 67 -29 104 -50 36 -22 70 -39 73 -39 15
0 -18 30 -68 63 l-52 34 -49 16 -50 17 -65 -1 -66 -1 -34 -11z"/>
<path d="M70835 31793 c3 -16 12 -34 20 -42 l13 -13 156 13 156 12 0 15 0 14
-47 -6 c-27 -3 -79 -8 -118 -11 -38 -3 -87 -8 -108 -11 l-37 -6 -11 31 -11 31
-10 0 -10 0 7 -27z"/>
<path d="M98907 31692 c78 -120 270 -392 276 -392 4 0 -33 60 -83 133 -51 72
-115 167 -144 209 -28 43 -55 78 -59 78 l-9 0 19 -28z"/>
<path d="M80339 31668 c0 -24 -6 -137 -13 -253 -8 -115 -12 -212 -10 -214 2
-2 7 -1 10 2 l7 7 13 207 c7 115 13 227 13 251 l1 42 -10 0 -10 0 -1 -42z"/>
<path d="M81041 31703 c1 -10 421 -394 559 -511 177 -151 1001 -910 1326
-1222 l307 -295 645 -655 645 -655 340 -385 c187 -212 513 -571 725 -798 211
-228 412 -446 446 -485 33 -40 127 -145 209 -235 l149 -162 9 6 c5 3 9 9 9 14
0 4 -71 87 -157 183 -87 96 -178 198 -203 228 -25 30 -219 241 -431 469 -212
228 -537 586 -721 795 l-335 380 -655 665 -655 665 -312 300 c-172 165 -434
411 -583 548 -309 283 -1299 1157 -1310 1157 -5 0 -8 -3 -7 -7z"/>
<path d="M81305 31610 l-18 -20 6 -6 6 -7 26 17 26 17 -6 9 c-9 15 -20 12 -40
-10z"/>
<path d="M81376 31545 l-18 -14 7 -10 6 -11 25 16 c13 9 24 20 24 25 0 13 -22
10 -44 -6z"/>
<path d="M80859 31163 c-227 -167 -430 -315 -451 -328 -41 -27 -441 -336 -476
-369 l-24 -21 -14 20 c-9 11 -19 27 -24 35 l-8 15 -7 -6 -6 -6 26 -31 25 -30
-115 -86 -115 -86 0 -11 0 -11 14 5 c8 3 87 60 176 127 90 66 164 119 166 117
3 -2 -51 -46 -118 -97 -68 -51 -127 -98 -133 -103 l-10 -10 15 8 c8 5 60 41
115 81 101 73 144 111 143 128 0 5 82 73 183 152 l184 143 55 7 55 6 43 19 42
18 0 10 c0 15 -16 14 -48 -3 -15 -7 -43 -16 -62 -20 l-35 -6 20 18 c11 11 197
148 412 306 216 158 395 292 398 296 l5 9 -8 5 -8 5 -415 -306z"/>
<path d="M81291 31365 c-19 -9 -94 -58 -166 -110 -73 -51 -206 -141 -296 -200
l-164 -106 -34 -33 -34 -34 8 -12 7 -12 32 30 c17 16 108 79 201 139 94 60
228 151 299 202 71 52 143 99 160 106 l29 13 41 -5 41 -5 -15 15 -15 15 -30 6
-30 5 -34 -14z"/>
<path d="M79613 30386 c-122 -89 -285 -215 -363 -280 l-142 -118 10 -10 10
-10 144 118 c79 66 243 191 365 279 l222 160 -2 9 c-2 6 -7 11 -13 12 -5 1
-109 -70 -231 -160z"/>
<path d="M83465 29510 c39 -39 105 -101 148 -137 l78 -66 10 10 11 11 -134
113 c-74 63 -145 120 -158 128 l-25 13 70 -72z"/>
<path d="M84007 29023 l-7 -6 63 -66 c34 -36 102 -103 150 -148 l88 -83 11 6
10 7 -148 148 c-82 82 -151 149 -155 149 -3 0 -9 -3 -12 -7z"/>
<path d="M73722 28310 c-13 -11 -96 -61 -185 -111 -181 -103 -172 -97 -166
-103 6 -6 328 180 366 211 l28 22 -10 0 c-5 0 -20 -8 -33 -19z"/>
<path d="M95517 27368 c-97 -72 -175 -133 -173 -135 3 -3 89 56 192 131 l186
136 -13 -1 c-8 0 -94 -59 -192 -131z"/>
<path d="M86360 27201 l0 -68 -25 -37 c-14 -20 -25 -39 -25 -43 0 -10 31 19
43 41 l12 21 5 78 5 77 -7 0 -8 0 0 -69z"/>
<path d="M86235 26980 c-27 -30 -12 -34 15 -5 l23 25 -10 0 c-5 0 -18 -9 -28
-20z"/>
<path d="M24920 26959 c0 -8 5 -20 10 -25 l11 -11 -12 -115 -12 -115 6 -16 6
-17 23 0 23 1 -20 14 -19 15 12 122 12 122 -20 20 -20 20 0 -15z"/>
<path d="M86117 26878 l-49 -32 -48 0 -48 -1 5 -7 4 -8 38 0 37 0 51 25 c28
15 57 33 63 40 l12 15 -8 0 c-5 0 -31 -14 -57 -32z"/>
<path d="M95310 26779 c-96 -71 -177 -134 -179 -140 -3 -9 325 226 359 257
l14 14 -9 -1 c-6 0 -89 -58 -185 -130z"/>
<path d="M94820 26724 c-102 -74 -187 -139 -189 -145 -2 -6 48 26 110 72 63
45 148 107 189 137 41 30 79 59 85 63 l9 9 -9 0 c-6 -1 -93 -61 -195 -136z"/>
<path d="M87266 26511 l-6 -9 142 -129 c79 -70 226 -204 328 -298 l185 -170
189 -210 189 -210 164 -218 c206 -274 246 -336 370 -577 55 -107 117 -223 137
-257 20 -34 36 -63 36 -66 0 -2 16 -40 35 -82 l36 -78 11 11 11 11 -43 98
c-24 54 -47 103 -51 108 -4 6 -59 109 -122 230 -145 279 -198 363 -391 620
l-156 210 -192 215 -193 215 -195 177 c-275 248 -460 412 -470 416 -4 2 -11
-1 -14 -7z"/>
<path d="M24568 26370 c23 -16 49 -41 58 -55 20 -30 31 -26 14 4 -12 23 -86
81 -103 81 -6 0 9 -13 31 -30z"/>
<path d="M24529 26023 c-23 -71 -59 -167 -81 -216 l-39 -87 3 -38 4 -37 7 30
c5 17 22 64 38 105 26 62 129 357 129 367 0 2 -4 3 -9 3 l-9 0 -43 -127z"/>
<path d="M87395 25991 l-5 -10 202 -160 203 -161 4 11 c1 6 1 11 0 13 -2 1
-93 72 -201 159 l-197 157 -6 -9z"/>
<path d="M78480 25893 c0 -5 102 -57 227 -118 l226 -109 61 2 61 2 133 52 132
51 0 9 c0 14 -16 9 -145 -42 l-125 -50 -59 0 -58 0 -213 105 c-204 100 -240
115 -240 98z"/>
<path d="M88097 25777 c29 -37 174 -167 187 -167 l10 0 -9 8 c-6 4 -55 48
-110 98 l-99 89 21 -28z"/>
<path d="M87006 24931 l-28 -29 -30 9 -30 8 -27 -14 c-14 -7 -62 -51 -106 -97
l-80 -83 55 51 c30 27 75 67 99 88 l44 38 42 -5 42 -6 33 34 34 35 -10 0 c-6
0 -23 -13 -38 -29z"/>
<path d="M87028 24893 l-47 -46 -25 16 -25 17 -23 -9 -23 -9 -80 -81 c-44 -45
-75 -81 -70 -81 5 0 47 37 92 82 l82 82 41 -14 41 -14 47 47 c25 25 44 49 41
51 -3 3 -26 -16 -51 -41z"/>
<path d="M90505 24839 c55 -6 165 -21 244 -35 79 -13 146 -22 149 -19 7 7 -12
11 -158 34 l-135 21 -100 5 -100 4 100 -10z"/>
<path d="M85470 22110 c0 -4 80 -91 178 -192 97 -101 279 -293 403 -428 124
-135 372 -396 550 -581 178 -184 469 -486 646 -670 177 -184 349 -358 383
-387 l60 -53 0 9 c0 6 -23 30 -52 53 -28 24 -148 145 -267 270 -119 124 -409
425 -646 670 -236 244 -511 532 -609 639 -298 323 -646 685 -646 670z"/>
<path d="M86761 20815 c0 -13 306 -331 312 -325 3 3 -67 79 -154 170 -87 91
-159 161 -158 155z"/>
<path d="M90330 19931 c0 -13 111 -415 116 -420 2 -2 6 -2 10 1 l5 6 -57 211
-58 211 -8 0 c-4 0 -8 -4 -8 -9z"/>
<path d="M88017 19523 l-8 -12 7 -26 6 -26 18 -9 c10 -6 27 -10 38 -10 l19 0
16 18 17 19 0 26 0 27 -9 0 -9 0 5 -20 6 -21 -18 -19 -18 -20 -21 6 c-28 9
-27 8 -35 46 l-7 33 -7 -12z"/>
<path d="M95310 18097 c8 -7 80 -71 160 -142 80 -71 158 -140 174 -154 l29
-26 -4 12 c-5 16 -351 323 -364 323 l-9 0 14 -13z"/>
<path d="M7320 17981 l0 -9 108 5 c59 3 109 7 111 9 2 2 -46 4 -107 4 l-112 0
0 -9z"/>
<path d="M96020 17433 l0 -11 163 -143 c89 -78 172 -152 185 -162 l22 -20 0
10 c0 6 -71 72 -157 148 -87 76 -170 150 -185 164 l-28 25 0 -11z"/>
<path d="M91840 16742 c0 -8 133 -139 285 -282 45 -41 143 -141 219 -223 l138
-147 9 6 9 5 -137 147 c-75 81 -173 181 -217 222 -44 41 -128 121 -186 178
-101 97 -120 112 -120 94z"/>
<path d="M13970 15694 c2 -48 49 -447 54 -451 l6 -6 0 14 c-1 45 -49 441 -54
446 l-6 6 0 -9z"/>
<path d="M98105 14803 c-50 -59 -258 -303 -462 -542 -205 -239 -373 -440 -373
-445 l0 -10 9 10 c75 82 914 1071 918 1081 3 7 3 13 1 13 -2 0 -44 -48 -93
-107z"/>
<path d="M96670 13125 c-151 -177 -276 -329 -278 -336 l-4 -14 9 10 c12 12
531 622 552 648 l13 17 -8 -1 c-5 0 -133 -146 -284 -324z"/>
<path d="M95705 13255 c59 -56 114 -105 267 -232 l16 -14 5 9 6 8 -161 135
c-190 157 -230 186 -133 94z"/>
<path d="M25509 12776 c-2 -2 -85 -14 -184 -25 -98 -12 -181 -24 -184 -26 -8
-9 41 -5 207 15 l162 19 18 10 17 10 -16 1 c-9 0 -18 -2 -20 -4z"/>
<path d="M96352 12712 c4 -11 345 -332 352 -332 19 0 -12 33 -165 178 -152
143 -199 182 -187 154z"/>
<path d="M97081 12064 c5 -12 212 -202 296 -272 l63 -52 0 9 c0 9 -319 297
-349 315 l-14 9 4 -9z"/>
<path d="M25445 4722 c-88 -49 -128 -78 -202 -144 l-71 -64 -287 -354 c-158
-194 -289 -359 -292 -366 l-5 -14 10 0 11 0 281 348 282 347 81 74 82 74 69
44 c37 24 79 49 93 54 l24 9 -6 10 c-9 14 -14 13 -70 -18z"/>
<path d="M28076 3902 l-6 -10 97 -7 c54 -4 154 -15 223 -26 143 -21 150 -22
150 -11 l0 8 -147 22 c-82 12 -185 24 -229 28 l-82 6 -6 -10z"/>
<path d="M23491 2193 c-124 -184 -129 -190 -226 -263 l-80 -60 -102 -51 -103
-51 0 -9 c0 -15 13 -11 95 27 89 41 166 88 248 153 l58 46 110 162 c60 90 112
169 115 178 l6 15 -11 0 -11 0 -99 -147z"/>
<path d="M23015 2281 c3 -5 79 -68 170 -140 l164 -130 6 8 5 9 -165 131 c-91
72 -170 131 -176 131 l-10 0 6 -9z"/>
<path d="M22984 2232 c7 -11 313 -252 320 -252 21 0 -12 31 -149 138 -85 67
-160 122 -166 122 l-10 0 5 -8z"/>
<path d="M12737 1973 c-12 -21 -47 -288 -47 -359 0 -61 10 -11 24 126 9 80 21
165 26 189 10 40 8 63 -3 44z"/>
<path d="M11260 1671 l0 -9 33 -5 c17 -3 121 -11 229 -18 l198 -13 7 7 c3 4 4
9 1 12 -4 5 -383 35 -440 35 l-28 0 0 -9z"/>
<path d="M18136 1164 l-5 -14 12 0 c7 0 108 -7 224 -17 l213 -16 7 6 c3 4 4 9
1 12 -3 3 -88 12 -189 20 -101 8 -201 16 -221 19 l-37 4 -5 -14z"/>
</g>
</svg>
