<?xml version="1.0" standalone="no"?>
<!DOCTYPE svg PUBLIC "-//W3C//DTD SVG 20010904//EN"
 "http://www.w3.org/TR/2001/REC-SVG-20010904/DTD/svg10.dtd">
<svg version="1.0" xmlns="http://www.w3.org/2000/svg"
 width="7500.000000pt" height="7500.000000pt" viewBox="0 0 7500.000000 7500.000000"
 preserveAspectRatio="xMidYMid meet">
<metadata>
Created by potrace 1.16, written by Peter Selinger 2001-2019
</metadata>
<g transform="translate(0.000000,7500.000000) scale(0.075000,-0.075000)"
fill="#000000" stroke="none">
<path d="M90010 99692 l-35 -17 0 -13 c0 -15 5 -15 55 6 l40 17 0 13 0 12 -12
0 c-7 -1 -29 -9 -48 -18z"/>
<path d="M83425 99015 c134 -80 274 -150 283 -141 2 3 -6 10 -19 15 -70 26
-109 46 -228 115 -71 42 -138 79 -148 82 -10 4 41 -29 112 -71z"/>
<path d="M84343 98843 l-173 -3 0 -12 0 -11 137 6 c75 4 160 7 190 7 l53 0 0
10 0 10 -17 -2 c-10 -1 -96 -4 -190 -5z"/>
<path d="M16185 97784 c-27 -8 -103 -23 -168 -33 l-119 -20 -24 -16 -24 -15 0
-20 0 -20 10 0 10 0 0 16 0 15 33 13 c17 7 57 16 87 20 74 9 233 46 244 57 17
16 2 16 -49 3z"/>
<path d="M97591 94469 l-155 -159 10 -10 10 -10 158 159 159 159 -7 11 c-4 6
-10 10 -14 10 -4 -1 -76 -73 -161 -160z"/>
<path d="M56834 93237 c-42 -84 -87 -171 -100 -193 l-24 -41 12 -11 13 -11
103 199 102 198 -14 5 -15 6 -77 -152z"/>
<path d="M86554 92660 c-93 -67 -176 -128 -184 -136 l-15 -16 16 4 c19 4 368
250 369 261 1 17 -25 1 -186 -113z"/>
<path d="M53050 92249 c0 -3 11 -38 25 -78 l24 -72 11 -204 10 -204 16 -83 15
-83 35 -70 c18 -38 41 -79 49 -89 l15 -20 6 7 6 6 -21 30 c-12 17 -35 59 -50
93 l-29 63 -15 115 -16 115 -6 157 -7 156 -22 72 c-13 39 -28 76 -34 82 -7 7
-12 10 -12 7z"/>
<path d="M53081 91739 l-1 -47 16 -83 15 -84 27 -60 27 -60 157 -239 c87 -131
158 -234 158 -228 0 6 -69 116 -153 244 l-153 233 -26 65 -27 65 -15 95 c-9
52 -17 106 -19 120 l-4 25 -2 -46z"/>
<path d="M95023 91296 l-58 -64 -48 -91 c-27 -50 -52 -93 -58 -96 l-9 -6 6
-10 6 -10 20 18 20 18 39 76 38 77 60 68 c34 38 61 72 61 77 0 19 -23 2 -77
-57z"/>
<path d="M94508 91080 c-9 -6 -39 -41 -67 -79 l-50 -69 6 -6 c13 -12 21 -4 68
64 l48 70 14 0 13 0 0 15 c0 17 -8 18 -32 5z"/>
<path d="M55597 90968 c-205 -358 -354 -646 -381 -735 l-7 -23 14 0 15 0 40
98 41 99 164 296 165 296 -6 6 c-12 12 -22 3 -45 -37z"/>
<path d="M94870 90982 c0 -17 67 -127 87 -143 l18 -14 -20 30 c-10 17 -34 54
-52 84 -18 30 -33 50 -33 43z"/>
<path d="M53512 90960 l5 -15 68 -51 68 -52 291 -148 c160 -81 305 -157 321
-169 17 -12 68 -39 115 -59 l85 -37 275 -69 c151 -38 304 -79 339 -89 36 -11
67 -18 69 -16 3 3 -1 7 -9 9 -8 2 -50 16 -94 30 -44 14 -188 52 -320 85 l-240
58 -90 38 c-49 20 -103 47 -120 60 -16 12 -156 86 -310 165 -298 152 -370 193
-424 244 l-34 31 5 -15z"/>
<path d="M94780 90883 c0 -5 10 -14 23 -22 12 -8 50 -36 84 -64 l63 -50 6 -21
7 -20 56 -59 56 -59 45 -23 c74 -37 578 -249 751 -316 44 -17 117 -51 162 -75
l82 -43 160 -170 160 -171 58 -41 c31 -22 57 -37 57 -32 0 4 -20 22 -45 38
l-44 30 -167 177 -167 178 -66 36 c-36 20 -106 53 -156 74 -472 194 -718 296
-759 317 l-49 25 -49 46 -50 46 -24 41 -23 40 -58 46 c-32 25 -70 53 -85 62
l-28 17 0 -7z"/>
<path d="M54292 90465 c2 -3 45 -22 94 -44 l89 -38 115 -27 c63 -15 124 -30
135 -33 l20 -5 -10 9 c-5 6 -64 22 -130 38 l-120 27 -92 39 c-87 37 -113 46
-101 34z"/>
<path d="M30594 90405 c-7 -19 -14 -43 -14 -55 l0 -20 28 -28 c15 -15 19 -19
10 -7 -9 11 -19 31 -23 45 l-6 25 16 38 c8 20 13 37 10 37 -3 0 -13 -16 -21
-35z"/>
<path d="M30745 90230 c3 -5 8 -10 11 -10 3 0 2 5 -1 10 -3 6 -8 10 -11 10 -3
0 -2 -4 1 -10z"/>
<path d="M30813 90143 l7 -6 7 6 6 7 -13 0 -13 0 6 -7z"/>
<path d="M30843 90133 l7 -6 7 6 6 7 -13 0 -13 0 6 -7z"/>
<path d="M30871 90126 c2 -3 51 -23 109 -45 57 -23 100 -37 95 -32 -6 6 -51
26 -102 45 -87 34 -112 42 -102 32z"/>
<path d="M31471 89886 c2 -2 86 -16 187 -31 l183 -28 12 13 12 13 -17 -6 -18
-6 -162 24 c-160 24 -206 29 -197 21z"/>
<path d="M32270 89811 l0 -10 43 -5 c23 -3 118 -10 211 -17 l168 -11 11 11 c6
6 9 11 7 12 -35 3 -384 28 -407 29 l-33 0 0 -9z"/>
<path d="M33720 89676 l0 -25 10 -6 10 -6 0 30 0 31 -10 0 -10 0 0 -24z"/>
<path d="M33720 89618 l0 -13 107 -65 c59 -36 142 -93 185 -128 l78 -63 10 6
10 6 -82 67 -82 66 -105 64 c-58 35 -109 66 -113 69 l-8 4 0 -13z"/>
<path d="M85235 88954 c-298 -56 -358 -68 -345 -71 8 -1 109 14 224 35 l210
38 -10 6 -9 5 -70 -13z"/>
<path d="M85130 88894 c-96 -18 -190 -36 -209 -39 -18 -4 -31 -9 -28 -11 3 -3
97 11 208 31 l204 37 10 9 9 9 -9 -1 c-6 -1 -89 -16 -185 -35z"/>
<path d="M84325 88773 c-38 -7 -110 -20 -160 -28 l-90 -14 75 5 75 5 115 23
115 24 -30 0 c-16 0 -61 -7 -100 -15z"/>
<path d="M62187 88058 l4 -23 -91 -103 c-90 -103 -176 -220 -167 -228 2 -2 24
24 48 58 37 53 89 115 212 255 l19 21 -7 21 c-3 12 -10 21 -14 21 l-8 0 4 -22z"/>
<path d="M90088 87898 l-418 -140 0 -13 0 -13 425 141 425 142 0 12 c0 7 -3
13 -7 12 -5 0 -196 -64 -425 -141z"/>
<path d="M83820 87703 c-19 -107 -154 -709 -165 -741 l-5 -14 12 4 12 4 58
250 c52 221 128 583 128 606 0 4 -4 8 -9 8 l-9 0 -22 -117z"/>
<path d="M75068 87714 l-6 -5 90 -187 c96 -201 95 -198 104 -189 l7 6 -89 183
c-48 101 -90 186 -94 191 l-6 7 -6 -6z"/>
<path d="M167 87213 c-3 -5 -10 -34 -18 -66 l-12 -58 11 -11 c17 -17 316 -187
320 -183 10 10 -18 29 -154 105 l-146 83 -5 12 -4 13 14 56 15 56 -8 0 c-5 0
-11 -3 -13 -7z"/>
<path d="M56067 87123 l-4 -8 87 -205 87 -205 16 -3 17 -3 -7 17 c-4 10 -44
106 -89 213 l-82 195 -10 4 c-6 2 -12 -1 -15 -5z"/>
<path d="M84277 86933 c-20 -48 -41 -94 -46 -101 l-8 -13 -74 21 c-75 20 -96
24 -87 15 7 -7 144 -45 161 -45 l14 0 42 96 c23 52 41 100 39 105 l-3 10 -38
-88z"/>
<path d="M84310 86903 c-24 -54 -50 -105 -57 -113 l-13 -15 -91 24 c-50 12
-93 21 -95 18 -4 -4 86 -30 177 -52 l26 -6 53 116 c28 64 50 118 48 121 -3 2
-24 -40 -48 -93z"/>
<path d="M83555 86763 c-9 -43 -34 -154 -55 -248 -36 -157 -40 -189 -23 -172
5 6 112 468 113 490 0 4 -4 7 -9 7 l-9 0 -17 -77z"/>
<path d="M83571 86592 c-29 -130 -56 -243 -59 -251 l-5 -14 14 5 13 4 53 230
c53 235 58 264 46 264 l-8 0 -54 -238z"/>
<path d="M79060 86382 c0 -4 -16 -97 -35 -207 -38 -218 -39 -225 -27 -225 l8
0 33 193 c18 105 36 204 38 220 l6 27 -12 0 c-6 0 -11 -3 -11 -8z"/>
<path d="M85454 86206 l-182 -113 -178 -140 c-99 -78 -190 -153 -203 -167
l-24 -26 6 -7 7 -7 25 20 c13 10 111 88 217 171 l193 153 165 101 c193 120
176 107 164 119 l-9 9 -181 -113z"/>
<path d="M56287 85820 c-176 -26 -207 -33 -196 -44 3 -3 94 8 204 24 110 16
206 30 213 30 l12 0 0 10 0 10 -22 -1 c-13 -1 -108 -14 -211 -29z"/>
<path d="M83267 85607 c-102 -213 -116 -248 -99 -247 7 1 223 448 222 463 -1
30 -30 -22 -123 -216z"/>
<path d="M80435 85749 c-2 -8 -36 -105 -75 -216 l-69 -203 7 0 c9 0 154 422
147 428 -2 3 -7 -1 -10 -9z"/>
<path d="M63921 85604 l-34 -24 -23 0 -24 0 0 -10 0 -10 33 0 32 0 33 20 32
20 0 15 c0 20 -8 18 -49 -11z"/>
<path d="M56250 85570 l0 -10 195 0 195 0 0 10 0 10 -195 0 -195 0 0 -10z"/>
<path d="M88246 84757 l-49 -187 6 -6 5 -6 6 19 c3 10 24 89 46 176 l41 158
-3 17 -3 17 -49 -188z"/>
<path d="M82830 84800 l-33 -120 6 -7 c11 -10 12 -6 49 125 l35 122 -12 0 -12
0 -33 -120z"/>
<path d="M64336 84481 l-6 -9 16 -6 c20 -8 29 -1 19 13 -8 13 -22 14 -29 2z"/>
<path d="M11073 84287 l3 -11 185 -58 c101 -31 196 -60 212 -63 l27 -7 0 9 0
9 -137 42 c-76 23 -173 53 -216 66 l-78 25 4 -12z"/>
<path d="M23864 84088 c-93 -182 -334 -631 -448 -837 -79 -141 -149 -267 -156
-281 l-12 -25 14 15 c18 18 289 507 463 835 70 132 138 259 150 283 l24 42 -9
0 c-5 0 -17 -15 -26 -32z"/>
<path d="M84320 83768 c-107 -83 -255 -200 -328 -260 -135 -110 -246 -188
-299 -209 -15 -6 -56 -15 -89 -19 l-62 -8 -48 9 c-66 13 -125 43 -194 100
l-59 49 -5 -9 -6 -10 77 -60 78 -61 55 -17 55 -18 75 2 75 2 41 14 c64 23 167
94 324 222 80 66 226 182 325 258 99 77 184 143 188 147 l9 8 -9 5 -8 5 -195
-150z"/>
<path d="M77000 83354 c-63 -103 -117 -191 -119 -198 l-3 -11 14 15 c12 12
198 307 232 368 l7 12 -8 0 c-4 -1 -60 -84 -123 -186z"/>
<path d="M47070 83392 c0 -4 7 -18 16 -30 l15 -22 17 1 17 0 -22 16 -23 15 0
14 0 14 -10 0 c-5 0 -10 -3 -10 -8z"/>
<path d="M47165 83364 l-17 -13 -45 -203 c-24 -112 -62 -295 -83 -408 -22
-113 -42 -215 -45 -227 l-5 -23 15 0 c8 0 15 3 15 8 0 38 159 842 169 854 l6
6 95 -13 c52 -8 199 -32 325 -55 l230 -41 118 -43 117 -44 6 9 5 9 -28 11
c-15 6 -71 27 -123 46 l-95 35 -192 34 c-106 19 -251 43 -322 52 l-129 18 -17
-12z"/>
<path d="M91095 82858 c-87 -260 -160 -480 -163 -488 l-5 -15 10 10 c13 13
327 955 320 961 -3 3 -76 -208 -162 -468z"/>
<path d="M40975 83211 c13 -13 375 -155 381 -149 3 4 -190 84 -340 140 l-51
20 10 -11z"/>
<path d="M41120 82438 c1 -18 33 -54 116 -126 l70 -62 255 -139 254 -139 135
-92 c152 -103 203 -148 265 -235 62 -87 79 -125 162 -358 40 -115 99 -275 130
-355 31 -81 69 -184 84 -230 l28 -83 7 -104 7 -105 13 0 14 0 0 13 c0 6 -5 56
-10 110 l-10 98 -19 62 c-11 34 -40 116 -66 182 -26 66 -89 238 -140 382 -103
286 -117 319 -180 408 -60 84 -120 137 -275 241 l-135 91 -245 134 -245 133
-107 94 -108 94 0 -14z"/>
<path d="M75740 82060 c0 -3 28 -12 63 -18 l63 -12 112 -60 112 -60 19 0 c11
0 31 4 45 10 l26 10 0 17 0 18 -8 -12 c-4 -6 -20 -17 -36 -23 l-28 -10 -112
59 -111 59 -72 15 -73 14 0 -7z"/>
<path d="M90690 81884 l-25 -15 30 6 c17 4 34 11 40 16 l9 9 -14 0 c-8 -1 -26
-8 -40 -16z"/>
<path d="M44311 81606 c3 -3 105 -29 227 -59 l222 -54 0 7 c0 6 -422 111 -444
110 -5 0 -7 -2 -5 -4z"/>
<path d="M73675 80411 c-227 -93 -543 -228 -554 -237 -1 -1 0 -7 3 -12 l6 -10
202 90 c112 49 299 129 415 176 188 77 242 104 201 101 -7 0 -130 -49 -273
-108z"/>
<path d="M7177 80464 l-7 -7 88 -68 c48 -37 133 -100 189 -138 l102 -71 6 11
c4 6 5 12 4 13 -2 2 -53 37 -114 79 -60 42 -141 101 -180 131 -73 58 -77 60
-88 50z"/>
<path d="M72232 80180 l4 -13 228 -54 227 -55 6 6 c4 3 4 8 2 11 -3 2 -102 27
-220 55 -117 28 -222 53 -233 56 l-18 6 4 -12z"/>
<path d="M72717 80053 l-5 -8 85 -120 c46 -66 88 -126 92 -134 l8 -14 12 4 11
4 -91 130 c-50 72 -95 134 -99 138 l-8 9 -5 -9z"/>
<path d="M43045 79885 l-70 -33 -32 -33 -32 -34 -46 -109 c-25 -60 -43 -111
-41 -114 5 -4 17 21 63 135 l25 62 39 44 39 45 65 27 65 28 0 9 c0 4 -1 8 -2
7 -2 0 -34 -16 -73 -34z"/>
<path d="M21560 79240 l0 -9 38 -11 c20 -5 120 -21 221 -36 l184 -25 9 9 9 9
-163 22 c-90 13 -191 29 -226 37 -75 17 -72 16 -72 4z"/>
<path d="M73557 78813 l-5 -8 142 -202 141 -203 8 3 c5 1 9 6 9 11 1 11 -275
405 -284 406 -4 0 -9 -3 -11 -7z"/>
<path d="M42303 78193 c-9 -21 -22 -60 -29 -88 l-14 -50 0 -54 0 -53 14 -57
c8 -31 17 -69 20 -85 4 -15 9 -26 12 -23 3 2 -5 42 -17 88 l-21 84 5 65 5 65
24 73 c26 78 27 95 1 35z"/>
<path d="M99127 78044 l-7 -7 211 -99 211 -99 6 5 c3 3 3 8 1 11 -5 4 -408
195 -413 195 -2 0 -6 -3 -9 -6z"/>
<path d="M74190 78035 c0 -3 38 -53 83 -112 l84 -108 54 -97 c50 -90 69 -115
69 -87 0 5 -25 53 -55 106 l-55 95 -81 104 c-69 90 -99 119 -99 99z"/>
<path d="M43932 77803 c-117 -207 -178 -320 -165 -308 8 8 87 147 260 458 2 4
2 7 -1 7 -3 0 -45 -71 -94 -157z"/>
<path d="M11514 77689 c-3 -6 -4 -12 -3 -14 5 -4 408 -122 433 -127 l19 -3 4
10 3 11 -177 52 c-98 29 -199 59 -225 67 l-48 14 -6 -10z"/>
<path d="M46100 77403 l0 -137 -21 -99 -21 -98 6 -6 c10 -11 13 -1 35 104 l21
102 0 135 0 136 -10 0 -10 0 0 -137z"/>
<path d="M71325 77274 c92 -85 144 -129 149 -123 5 5 -211 199 -221 199 -4 0
28 -34 72 -76z"/>
<path d="M71130 77120 l0 -10 225 0 225 0 0 10 0 10 -225 0 -225 0 0 -10z"/>
<path d="M71548 77093 l13 -5 6 6 6 6 -19 -1 -19 -1 13 -5z"/>
<path d="M45970 76973 c-18 -60 -57 -164 -87 -232 l-53 -125 8 -8 8 -8 52 124
c45 105 121 324 122 349 0 4 -4 7 -8 7 l-9 0 -33 -107z"/>
<path d="M73060 77060 l0 -10 245 0 245 0 0 10 0 10 -245 0 -245 0 0 -10z"/>
<path d="M41380 77051 l0 -9 198 -105 c206 -109 259 -133 268 -124 3 3 -44 30
-104 60 -60 30 -163 85 -230 121 -128 69 -132 71 -132 57z"/>
<path d="M74895 77010 c-22 -19 -64 -56 -93 -84 l-53 -51 -14 -49 -15 -50 0
-38 0 -38 15 0 15 0 1 53 c0 28 3 60 7 69 4 10 47 58 96 107 l88 90 -4 12 -4
12 -39 -33z"/>
<path d="M41936 76871 l-7 -11 26 -48 c14 -26 41 -65 59 -86 l33 -39 12 7 11
7 -39 47 c-22 26 -51 67 -64 90 l-25 44 -6 -11z"/>
<path d="M44780 75993 l0 -8 108 -55 c59 -30 112 -56 117 -59 l10 -3 -10 10
c-5 5 -58 35 -117 67 l-108 57 0 -9z"/>
<path d="M43727 75785 l-5 -11 201 -105 c111 -57 205 -105 209 -107 l8 -4 0
14 0 14 -62 32 c-35 17 -127 65 -205 105 l-142 74 -4 -12z"/>
<path d="M45165 75091 l-5 -10 8 -5 9 -5 7 6 c9 9 7 23 -3 23 -6 0 -12 -4 -16
-9z"/>
<path d="M45075 75059 c-4 -6 -5 -13 -2 -16 7 -7 27 6 27 18 0 12 -17 12 -25
-2z"/>
<path d="M31036 74791 l-6 -9 82 -30 c83 -30 335 -102 356 -102 7 0 12 4 12 9
l0 9 -82 21 c-69 18 -305 91 -345 107 l-11 5 -6 -10z"/>
<path d="M45766 74581 l-6 -10 242 -194 243 -194 101 -105 100 -104 52 -100
51 -100 40 -159 c52 -209 84 -385 116 -630 l25 -200 20 -80 c12 -44 35 -116
52 -159 l32 -80 153 -159 153 -159 38 -67 39 -67 62 -165 c304 -801 397 -1042
421 -1090 37 -74 140 -227 179 -263 l31 -30 6 7 7 6 -38 46 c-20 25 -64 87
-97 138 l-61 92 -27 65 c-15 36 -126 323 -245 639 l-218 573 -39 68 -39 68
-153 159 -152 160 -32 79 c-17 43 -41 120 -53 169 l-21 90 -19 178 c-23 217
-47 345 -111 597 l-50 194 -40 80 c-52 103 -97 162 -200 262 l-83 82 -225 178
c-124 97 -230 181 -237 186 l-11 9 -6 -10z"/>
<path d="M25310 72745 c0 -3 20 -45 43 -93 l44 -87 23 -110 c13 -60 27 -114
31 -119 l9 -10 6 6 6 6 -26 119 -26 118 -42 88 -42 87 -13 0 c-7 0 -13 -2 -13
-5z"/>
<path d="M71365 72150 l-7 -11 18 -20 c17 -19 44 -26 44 -11 0 5 -11 19 -24
31 l-24 23 -7 -12z"/>
<path d="M71456 72061 l-6 -8 19 -17 19 -17 7 11 7 11 -12 14 c-14 17 -26 19
-34 6z"/>
<path d="M71534 71989 l-7 -13 44 -38 43 -37 29 -7 29 -6 44 12 44 13 0 14 0
15 -22 -6 c-13 -4 -40 -10 -61 -13 l-38 -6 -27 24 c-15 14 -37 33 -49 42 l-21
18 -8 -12z"/>
<path d="M38296 71082 l-6 -10 100 -116 101 -115 82 -66 82 -67 295 -176 c312
-186 447 -262 468 -262 25 0 11 17 -25 32 -21 8 -194 107 -385 220 l-347 206
-78 67 -78 66 -88 102 c-49 56 -94 108 -101 115 l-14 14 -6 -10z"/>
<path d="M47620 70830 c0 -5 9 -33 20 -61 l21 -52 76 -116 76 -116 81 -78 81
-78 55 -33 56 -33 44 -10 c25 -6 106 -19 180 -28 l135 -18 230 -67 230 -68
139 -21 139 -22 221 -55 221 -55 200 -65 c110 -36 210 -72 223 -80 l23 -15 9
6 9 5 6 -53 c4 -30 6 -69 4 -88 -2 -19 0 -49 5 -67 l8 -32 18 -10 19 -10 6 11
7 10 -18 20 -18 20 2 52 c2 29 0 72 -3 97 l-6 45 -52 28 -52 27 -185 59 -185
60 -240 59 -240 60 -120 17 -120 17 -230 68 -230 68 -130 17 c-71 9 -156 23
-189 31 l-58 15 -42 26 c-64 41 -163 132 -215 198 -61 79 -155 229 -176 283
l-17 42 -9 0 c-5 0 -9 -4 -9 -10z"/>
<path d="M74399 70675 l-7 -80 24 -134 c13 -74 26 -136 29 -139 8 -8 6 7 -11
98 l-16 85 -7 125 -6 125 -6 -80z"/>
<path d="M8959 70066 c-2 -2 -87 -14 -189 -26 -172 -20 -227 -30 -169 -30 13
0 98 9 189 20 91 11 182 20 202 20 l37 0 6 10 6 10 -39 0 c-21 0 -41 -2 -43
-4z"/>
<path d="M76690 69755 c-21 -25 -5 -28 31 -6 l34 21 -26 0 -27 0 -12 -15z"/>
<path d="M50153 69683 l-13 -5 0 -14 0 -14 9 0 c6 0 13 5 16 11 l7 10 26 -3
25 -3 4 13 5 12 -34 -1 c-18 0 -39 -3 -45 -6z"/>
<path d="M50255 69500 l-5 -8 65 -26 c36 -14 73 -26 82 -26 l17 0 -9 9 c-6 4
-40 20 -77 34 l-68 25 -5 -8z"/>
<path d="M1700 69222 c0 -17 49 -73 182 -211 l137 -141 5 8 4 7 -154 164 c-85
89 -154 167 -154 172 0 5 -4 9 -10 9 -5 0 -10 -4 -10 -8z"/>
<path d="M33454 69145 l-26 -27 12 -11 13 -12 4 13 c3 7 18 19 34 27 l29 16 0
-8 c0 -5 11 -13 25 -20 l25 -11 6 10 6 10 -13 13 -14 14 -37 6 -37 7 -27 -27z"/>
<path d="M33384 69126 l-19 -14 5 -6 6 -5 22 6 22 5 0 14 c0 18 -11 18 -36 0z"/>
<path d="M48505 68880 c3 -5 8 -10 11 -10 3 0 2 5 -1 10 -3 6 -8 10 -11 10 -3
0 -2 -4 1 -10z"/>
<path d="M77055 68363 c3 -54 8 -160 11 -235 l6 -138 8 5 8 5 -5 157 c-2 87
-6 191 -9 231 l-6 72 -8 0 -9 0 4 -97z"/>
<path d="M87695 68241 c-88 -77 -161 -145 -164 -152 -3 -10 236 193 329 278
l14 13 -9 0 c-6 0 -82 -63 -170 -139z"/>
<path d="M41585 68313 c-4 -10 -40 -105 -81 -212 l-75 -193 5 -6 c4 -3 8 -3
10 -1 4 4 166 419 166 425 0 12 -19 1 -25 -13z"/>
<path d="M61136 67987 c-7 -12 -125 -222 -261 -467 l-248 -445 -59 -129 -59
-129 5 -14 c3 -7 9 -13 14 -13 4 0 33 57 65 128 l57 127 246 440 c135 242 254
456 265 477 l18 36 -14 6 -15 5 -14 -22z"/>
<path d="M41301 67718 l-71 -203 0 -22 0 -23 10 0 10 0 0 23 0 22 69 195 70
195 -8 8 -8 8 -72 -203z"/>
<path d="M18425 67748 c-104 -65 -196 -122 -204 -127 l-14 -8 10 -6 9 -5 194
120 c107 66 199 123 203 128 l9 8 -9 4 -8 5 -190 -119z"/>
<path d="M67934 67519 c14 -17 28 -40 31 -52 3 -12 21 -94 40 -181 31 -142 45
-191 45 -159 0 6 -18 93 -39 193 l-39 182 -23 24 c-12 13 -27 24 -32 24 l-9 0
26 -31z"/>
<path d="M41144 67394 c22 -8 41 -12 44 -9 6 6 -45 25 -66 24 l-17 0 39 -15z"/>
<path d="M60538 67003 l-116 -238 -42 -112 -42 -112 -47 -178 -47 -178 10 -7
11 -7 6 7 c4 4 25 80 48 170 l42 163 65 166 65 165 95 190 95 189 -6 9 c-4 6
-10 10 -14 10 -4 0 -59 -107 -123 -237z"/>
<path d="M55377 66926 l-16 -24 -16 -125 c-16 -130 -18 -174 -10 -166 2 3 12
68 20 145 l16 139 20 28 20 27 -10 0 c-5 0 -16 -11 -24 -24z"/>
<path d="M55411 66906 l-12 -14 -14 -123 c-16 -132 -18 -165 -10 -158 2 3 11
65 20 139 l16 134 16 18 16 18 -10 0 c-6 0 -16 -6 -22 -14z"/>
<path d="M38457 66875 l-208 -13 -7 -7 -7 -8 90 6 c50 4 152 10 228 13 l137 7
0 8 0 9 -12 -1 c-7 -1 -107 -7 -221 -14z"/>
<path d="M37060 66799 c-80 -5 -154 -10 -165 -13 -32 -7 333 6 389 14 l51 8
-65 -1 c-36 0 -130 -4 -210 -8z"/>
<path d="M43350 66655 c-19 -23 -8 -26 19 -4 l23 19 -15 0 c-8 0 -20 -7 -27
-15z"/>
<path d="M77130 66380 l0 -190 10 0 10 0 0 190 0 190 -10 0 -10 0 0 -190z"/>
<path d="M87160 66471 l0 -8 133 -48 c72 -26 160 -60 194 -76 l63 -28 4 8 5 7
-42 22 c-36 18 -338 132 -352 132 -3 0 -5 -4 -5 -9z"/>
<path d="M70007 66383 c-8 -15 -22 -53 -32 -83 l-18 -55 1 -103 1 -103 16 -50
17 -49 9 0 9 0 -16 38 -16 37 -5 105 -5 105 20 68 c12 37 26 77 33 88 6 11 8
23 6 26 -3 3 -12 -8 -20 -24z"/>
<path d="M44265 66331 c13 -12 377 -123 383 -116 6 6 15 3 -193 65 -93 28
-177 53 -185 56 l-15 5 10 -10z"/>
<path d="M44245 66293 l10 -11 193 -55 192 -54 0 6 c0 4 -84 31 -187 60 -103
30 -194 56 -203 59 l-15 5 10 -10z"/>
<path d="M94506 66070 c4 -25 11 -56 15 -70 l8 -25 -5 60 -6 60 -10 10 -9 10
7 -45z"/>
<path d="M94464 66075 c31 -202 59 -364 67 -380 l9 -20 -4 25 c-3 14 -16 102
-31 195 -14 94 -30 179 -35 190 l-10 20 4 -30z"/>
<path d="M50922 66073 c-31 -58 -172 -387 -170 -395 2 -6 45 83 96 197 51 114
91 210 88 212 -2 3 -9 -4 -14 -14z"/>
<path d="M60295 66078 c-2 -7 -29 -107 -59 -223 l-56 -210 -185 -509 c-102
-280 -183 -511 -182 -513 2 -1 12 4 24 12 l20 14 138 381 c76 209 140 378 142
376 2 -2 -21 -72 -52 -156 l-55 -154 9 -9 9 -9 5 9 c2 4 26 72 52 151 l47 143
-6 23 -6 24 36 98 c29 82 154 531 154 557 0 4 -7 7 -15 7 l-16 0 -4 -12z"/>
<path d="M49155 65933 c18 -18 328 -235 344 -240 l16 -6 -10 10 c-19 18 -329
235 -345 241 l-15 5 10 -10z"/>
<path d="M42940 65832 l0 -10 501 -326 c275 -180 508 -330 517 -333 l17 -6
-10 10 c-5 6 -219 147 -475 313 -256 167 -484 316 -507 332 l-43 29 0 -9z"/>
<path d="M34739 65633 c8 -3 113 -25 233 -48 l218 -42 0 7 c0 6 -434 91 -455
89 l-10 -1 14 -5z"/>
<path d="M56422 65550 l5 -15 174 -112 c96 -61 177 -112 182 -112 29 -3 -15
31 -155 120 -90 56 -174 109 -187 118 l-24 15 5 -14z"/>
<path d="M77164 64785 l7 -560 8 -74 9 -75 30 -25 30 -26 17 -34 17 -34 -4
-63 -4 -63 -33 -46 -32 -45 3 -17 3 -17 28 43 28 42 31 19 31 19 39 6 38 7 0
10 0 10 -42 -7 c-24 -4 -47 -11 -52 -16 -6 -5 -13 -9 -16 -9 l-6 0 4 64 4 63
-20 47 -21 46 -24 11 -25 11 -6 37 c-3 20 -11 302 -17 626 l-11 590 -10 10
-11 10 7 -560z"/>
<path d="M38461 64927 c-18 -144 -34 -270 -37 -279 l-5 -18 8 0 9 0 33 275
c19 151 32 277 29 280 -2 3 -19 -113 -37 -258z"/>
<path d="M35344 65056 l3 -21 444 -92 c244 -51 449 -92 455 -92 l12 -1 4 18 5
18 -231 48 c-127 26 -335 68 -463 95 l-232 47 3 -20z"/>
<path d="M33328 65050 c-7 -24 -3 -38 8 -28 3 4 4 17 2 30 l-3 23 -7 -25z"/>
<path d="M33154 65037 c-31 -18 -234 -201 -229 -206 3 -2 15 5 28 15 149 132
186 163 207 175 l25 14 65 6 65 6 -70 1 -70 1 -21 -12z"/>
<path d="M35903 64973 l7 -6 7 6 6 7 -13 0 -13 0 6 -7z"/>
<path d="M35948 64963 c6 -2 18 -2 25 0 l12 5 -25 0 -25 0 13 -5z"/>
<path d="M35998 64953 c6 -2 18 -2 25 0 l12 5 -25 0 -25 0 13 -5z"/>
<path d="M3659 64900 c-4 -30 -5 -57 -3 -59 10 -11 15 12 12 60 l-3 54 -6 -55z"/>
<path d="M36045 64945 c6 -2 100 -22 209 -45 178 -36 221 -41 204 -25 -6 6
-387 75 -408 74 l-15 -1 10 -3z"/>
<path d="M50735 64830 c98 -65 181 -117 184 -115 6 6 19 -3 -171 124 -92 61
-173 111 -180 111 -7 0 68 -54 167 -120z"/>
<path d="M31420 64903 c-56 -22 -222 -104 -218 -108 3 -3 53 18 112 46 l106
52 73 5 72 4 220 -26 c121 -15 234 -29 250 -32 l30 -6 -10 9 -10 10 -225 26
-225 27 -80 -1 c-44 0 -87 -3 -95 -6z"/>
<path d="M36440 64900 l0 -13 7 6 6 7 -6 7 -7 6 0 -13z"/>
<path d="M36473 64893 l7 -6 7 6 6 7 -13 0 -13 0 6 -7z"/>
<path d="M49020 64862 c0 -4 88 -44 195 -88 107 -45 195 -78 195 -74 0 3 -39
23 -87 42 -49 20 -136 57 -195 82 -60 24 -108 42 -108 38z"/>
<path d="M37184 64725 c-4 -9 -5 -18 -3 -20 2 -2 96 -15 209 -29 113 -15 215
-29 228 -31 l22 -5 0 20 0 20 -22 4 c-13 3 -97 14 -188 26 -91 11 -182 23
-202 26 l-38 6 -6 -17z"/>
<path d="M60140 64652 l-165 -87 -115 -80 -115 -79 -190 -162 -190 -161 -260
-189 -260 -190 -462 -272 -462 -272 -193 -126 c-106 -69 -194 -127 -196 -129
-1 -1 0 -9 4 -18 l6 -16 38 25 39 26 12 -8 12 -7 -6 10 -7 11 140 91 c77 51
354 218 616 372 l476 279 256 187 257 187 188 160 189 161 142 97 143 97 147
76 147 77 -12 14 c-6 8 -12 14 -13 14 0 0 -75 -40 -166 -88z"/>
<path d="M41987 64528 c-65 -94 -116 -172 -113 -175 3 -4 205 278 239 334 l8
13 -8 0 c-4 -1 -61 -78 -126 -172z"/>
<path d="M41606 64632 l-4 -8 49 -80 49 -80 79 -78 79 -78 12 7 12 7 -85 87
-85 86 -46 73 c-47 73 -51 78 -60 64z"/>
<path d="M37057 64571 l-5 -20 47 -11 c25 -6 129 -21 231 -34 l185 -22 3 14 4
15 -11 7 c-7 3 -82 15 -169 24 -143 16 -218 28 -263 42 l-17 5 -5 -20z"/>
<path d="M59793 64530 l-22 -18 -21 -51 -20 -52 18 10 c10 5 23 16 28 23 11
14 45 100 41 104 -1 1 -12 -6 -24 -16z"/>
<path d="M30710 64340 c-84 -89 -150 -163 -148 -166 3 -2 74 68 158 156 84 88
151 163 148 165 -2 3 -73 -67 -158 -155z"/>
<path d="M36960 64438 c-1 -7 -18 -133 -39 -280 l-37 -268 6 0 c4 0 24 126 46
280 l39 280 -7 0 c-5 0 -8 -6 -8 -12z"/>
<path d="M34946 64349 c-15 -47 -76 -456 -76 -508 0 -41 10 8 25 115 8 67 26
183 40 260 13 76 22 140 20 143 -3 2 -7 -2 -9 -10z"/>
<path d="M50226 64351 c15 -14 385 -163 391 -157 6 5 -1 8 -229 102 -86 35
-160 64 -165 64 l-7 0 10 -9z"/>
<path d="M59712 64317 l-22 -23 -45 -123 -46 -124 -49 -96 -49 -96 -74 -85
-73 -85 -96 -61 -96 -61 -94 -26 -93 -26 -165 -15 -165 -15 -45 -15 c-86 -27
-167 -70 -485 -259 -387 -229 -467 -278 -462 -283 2 -2 31 7 65 21 l62 25 359
214 360 213 83 26 83 26 150 11 150 11 110 31 110 31 80 50 c102 64 104 66
191 165 l73 84 51 95 50 95 56 155 c31 85 54 156 52 158 -3 3 -14 -5 -26 -18z"/>
<path d="M90840 64228 c-112 -78 -511 -382 -564 -429 l-8 -7 6 -11 7 -10 230
179 c127 99 291 221 365 271 125 84 152 109 122 109 -7 0 -78 -46 -158 -102z"/>
<path d="M39710 64291 c0 -17 28 -30 224 -106 l198 -77 10 10 10 10 -10 6
c-11 7 -422 166 -428 166 -2 0 -4 -4 -4 -9z"/>
<path d="M80305 64248 c-115 -27 -212 -51 -214 -54 -16 -16 32 -8 219 36 118
27 215 50 217 50 2 0 3 5 3 10 0 13 19 16 -225 -42z"/>
<path d="M70896 64190 c20 -47 57 -134 82 -193 26 -59 48 -104 49 -100 4 10
-145 354 -158 368 -6 6 6 -28 27 -75z"/>
<path d="M41910 64235 l0 -25 16 0 16 0 -6 16 c-3 9 -6 20 -6 25 0 5 -4 9 -10
9 l-10 0 0 -25z"/>
<path d="M70903 64065 c45 -101 85 -185 89 -185 3 0 -31 83 -75 185 -45 101
-85 185 -89 185 -3 0 31 -83 75 -185z"/>
<path d="M79915 64219 l-130 -29 -775 -95 c-426 -53 -860 -104 -963 -114 -171
-17 -208 -23 -196 -35 9 -9 437 38 1161 128 l766 95 151 33 151 33 0 7 0 8
-17 -1 c-10 0 -76 -14 -148 -30z"/>
<path d="M79185 64064 c-231 -29 -622 -76 -870 -104 -247 -28 -452 -53 -454
-56 -2 -2 -2 -7 1 -10 l6 -5 463 51 c255 29 655 75 888 103 l424 52 5 13 4 12
-24 -1 c-12 -1 -212 -26 -443 -55z"/>
<path d="M40072 64085 l-12 -25 9 0 c4 0 13 11 19 25 l12 25 -9 0 c-4 0 -13
-11 -19 -25z"/>
<path d="M74275 64060 l-6 -9 33 -6 c56 -9 402 -55 421 -55 l17 0 0 8 0 9
-217 27 c-120 15 -223 29 -230 31 l-12 4 -6 -9z"/>
<path d="M32957 64037 c-28 -43 -48 -101 -63 -182 l-14 -80 -16 -30 -15 -31
-39 -24 c-22 -14 -40 -28 -40 -33 l0 -8 31 18 c18 10 44 30 59 45 l27 27 17
91 17 92 29 66 c31 67 34 90 7 49z"/>
<path d="M28361 63893 l61 -78 64 -57 c36 -32 69 -58 74 -58 4 0 17 -3 27 -6
l18 -5 -30 17 c-48 27 -133 109 -198 190 -32 41 -63 74 -68 74 l-9 0 61 -77z"/>
<path d="M46405 63941 c6 -5 93 -39 195 -75 102 -35 194 -68 205 -72 l20 -7
-10 10 c-5 6 -23 15 -40 21 -16 5 -109 38 -205 72 -96 33 -170 57 -165 51z"/>
<path d="M89635 63879 c5 -8 48 -59 96 -114 47 -55 105 -127 128 -159 46 -66
57 -65 13 1 -31 46 -218 269 -235 280 l-10 6 8 -14z"/>
<path d="M40215 63850 c10 -11 20 -20 23 -20 3 0 -3 9 -13 20 -10 11 -20 20
-23 20 -3 0 3 -9 13 -20z"/>
<path d="M40295 63780 c21 -22 41 -40 44 -40 3 0 -13 18 -34 40 -21 22 -41 40
-44 40 -3 0 13 -18 34 -40z"/>
<path d="M30310 63765 l-23 -25 -33 -6 c-18 -3 -95 -9 -171 -14 l-138 -7 132
-1 131 -2 52 12 52 12 15 23 c22 33 11 38 -17 8z"/>
<path d="M59114 63665 c-28 -13 -127 -45 -220 -71 l-169 -47 -65 -33 -65 -33
35 6 c19 3 51 14 70 23 19 10 107 38 195 63 88 25 187 57 220 70 l59 25 4 11
4 11 -9 -1 c-4 0 -31 -11 -59 -24z"/>
<path d="M76996 63683 l-5 -6 11 -21 12 -21 36 -218 c34 -199 43 -238 54 -226
4 4 2 14 -45 284 -16 94 -30 178 -30 187 l0 16 -14 6 c-7 2 -16 2 -19 -1z"/>
<path d="M77108 63683 l-18 -4 0 -14 0 -13 35 10 34 11 -5 9 c-5 8 -17 9 -46
1z"/>
<path d="M41033 63357 c-34 -29 -62 -56 -62 -60 -1 -10 39 19 99 72 66 59 35
49 -37 -12z"/>
<path d="M16247 63320 c-47 -39 -114 -86 -148 -106 l-63 -35 -95 -27 -96 -27
24 -3 24 -4 81 23 81 23 53 31 c58 34 241 176 241 188 2 17 -22 3 -102 -63z"/>
<path d="M16357 63315 l-17 -36 0 -39 0 -40 29 -32 29 -33 7 7 7 7 -26 31 -26
32 0 28 c0 15 7 44 15 63 17 42 18 47 7 47 -5 0 -16 -16 -25 -35z"/>
<path d="M36835 63312 l10 -9 175 -28 c96 -15 186 -29 200 -31 l25 -4 -20 9
c-11 6 -94 22 -185 36 -91 14 -176 28 -190 31 l-25 5 10 -9z"/>
<path d="M37670 63220 l0 -6 410 -58 410 -58 13 5 12 5 -15 2 c-8 0 -198 27
-422 58 l-408 58 0 -6z"/>
<path d="M41575 63170 c3 -5 8 -10 11 -10 2 0 4 5 4 10 0 6 -5 10 -11 10 l-10
0 6 -10z"/>
<path d="M40907 63104 l-6 -6 17 -27 c16 -26 82 -104 82 -97 0 11 -45 104 -58
119 -16 18 -25 21 -35 11z"/>
<path d="M13735 63080 l-30 -8 160 1 160 2 35 -8 35 -7 -30 14 -30 15 -135 -1
-135 0 -30 -8z"/>
<path d="M10000 63008 l0 -8 88 1 c91 2 81 6 -26 11 l-62 3 0 -7z"/>
<path d="M15030 62991 l0 -30 10 -6 10 -6 0 30 0 30 -10 6 -10 6 0 -30z"/>
<path d="M15070 62993 l0 -32 10 -6 10 -6 0 23 c0 13 -5 30 -10 38 l-10 15 0
-32z"/>
<path d="M18145 63010 l-6 -10 10 0 c6 0 11 5 11 10 0 6 -2 10 -4 10 -3 0 -8
-4 -11 -10z"/>
<path d="M43843 62987 l-83 -22 -80 -64 c-44 -36 -78 -67 -75 -69 3 -3 39 23
82 58 l76 63 96 24 c53 14 98 27 100 29 9 9 -38 1 -116 -19z"/>
<path d="M10293 62993 c9 -2 23 -2 30 0 l12 5 -30 0 -30 0 18 -5z"/>
<path d="M27520 62980 c0 -6 13 -54 29 -108 l29 -97 48 -105 49 -105 192 -272
c105 -149 317 -462 470 -695 l279 -424 56 -129 c30 -72 63 -157 71 -190 l16
-60 16 -140 15 -140 -6 -120 -6 -120 -34 -224 c-30 -205 -34 -244 -19 -229 3
2 19 92 36 199 l30 194 8 160 8 160 -18 150 -19 150 -19 65 c-10 36 -42 116
-69 177 l-50 113 -268 407 c-148 225 -360 538 -472 696 l-202 288 -50 109 -49
108 -28 96 -27 96 -8 0 c-4 0 -8 -5 -8 -10z"/>
<path d="M17863 62940 l-162 -6 -8 -8 -8 -8 185 7 185 7 10 9 9 9 -24 -2 c-14
-1 -98 -4 -187 -8z"/>
<path d="M16313 62934 l6 -7 166 -6 165 -6 0 6 c0 7 -166 19 -269 19 l-74 0 6
-6z"/>
<path d="M90556 62748 c-145 -169 -168 -199 -148 -197 7 0 282 318 311 360
l13 19 -10 0 -11 0 -155 -182z"/>
<path d="M16728 62894 l-8 -7 0 -96 0 -95 10 10 11 11 -3 92 -3 93 -7 -8z"/>
<path d="M51626 62813 c-21 -49 -60 -130 -87 -181 -51 -96 -56 -112 -38 -112
l10 0 83 173 c46 94 86 180 89 190 l6 17 -13 0 -13 0 -37 -87z"/>
<path d="M41010 62848 c0 -2 7 -27 17 -54 l16 -49 30 -38 30 -39 19 5 20 6 -5
-12 -5 -12 39 -17 39 -16 -10 19 c-6 10 -20 24 -33 30 -12 6 -37 25 -55 42
l-32 31 -21 42 c-17 36 -49 76 -49 62z"/>
<path d="M21800 62797 c9 -10 440 -156 440 -149 0 4 -93 38 -207 76 -115 38
-215 71 -223 74 l-15 5 5 -6z"/>
<path d="M23209 62564 c-46 -102 -86 -191 -88 -198 l-3 -11 10 10 c14 14 176
375 170 380 -3 3 -42 -79 -89 -181z"/>
<path d="M41015 62720 c-3 -5 -78 -73 -165 -150 l-159 -141 -29 -42 c-16 -23
-32 -54 -36 -69 l-6 -27 9 -5 9 -6 7 27 c3 14 19 45 35 68 l29 42 118 103
c142 124 213 192 213 202 0 11 -18 10 -25 -2z"/>
<path d="M42932 62515 c-122 -105 -230 -200 -240 -210 l-17 -18 15 9 c14 7
410 344 454 385 11 10 18 20 15 22 -2 2 -104 -82 -227 -188z"/>
<path d="M16665 62598 l-7 -63 -135 -270 c-73 -148 -127 -261 -118 -250 9 11
72 131 140 266 l124 246 7 66 c4 37 4 67 1 67 -3 0 -8 -28 -12 -62z"/>
<path d="M57757 62263 c-246 -196 -445 -358 -443 -361 3 -2 202 153 442 344
241 192 442 352 448 356 6 4 8 9 5 12 -2 3 -206 -155 -452 -351z"/>
<path d="M41240 62585 c13 -14 26 -25 28 -25 3 0 -5 11 -18 25 -13 14 -26 25
-28 25 -3 0 5 -11 18 -25z"/>
<path d="M42370 62604 c0 -12 258 -308 273 -313 l12 -4 -26 29 c-14 16 -72 83
-129 149 -57 66 -109 127 -117 135 l-13 14 0 -10z"/>
<path d="M27430 62460 c-96 -49 -171 -89 -167 -89 5 -1 85 36 178 81 l169 81
0 9 c0 11 19 19 -180 -82z"/>
<path d="M51325 62384 c-60 -92 -111 -170 -113 -175 l-4 -9 14 0 13 0 110 166
c61 92 112 170 113 175 l4 9 -14 0 -13 0 -110 -166z"/>
<path d="M41290 62527 c0 -2 15 -16 33 -33 l32 -29 -29 33 c-28 30 -36 37 -36
29z"/>
<path d="M41400 62403 c29 -35 55 -63 57 -63 8 0 -54 74 -83 100 l-28 25 54
-62z"/>
<path d="M36240 62431 l0 -11 33 0 c19 0 121 -11 227 -25 106 -14 195 -24 197
-21 6 6 -26 11 -222 36 -88 11 -177 23 -197 26 l-38 6 0 -11z"/>
<path d="M89022 62421 c2 -5 81 -75 176 -156 l174 -146 11 4 11 3 -180 152
c-98 84 -183 152 -187 152 l-9 0 4 -9z"/>
<path d="M60501 62400 c-1 -5 141 -693 154 -749 3 -13 8 -21 11 -19 6 6 -143
726 -155 753 -5 11 -10 18 -10 15z"/>
<path d="M40583 62253 l7 -6 7 6 6 7 -13 0 -13 0 6 -7z"/>
<path d="M65020 62240 l0 -10 230 0 230 0 0 10 0 10 -230 0 -230 0 0 -10z"/>
<path d="M63391 62164 c-208 -42 -230 -48 -219 -59 4 -4 330 57 426 80 l22 5
0 10 c0 12 24 16 -229 -36z"/>
<path d="M59540 62051 c70 -37 392 -173 397 -168 3 3 -8 12 -24 20 -65 33
-382 167 -395 167 l-13 -1 35 -18z"/>
<path d="M60551 61978 c-1 -22 67 -349 74 -356 3 -3 5 0 5 5 0 13 -69 344 -74
358 l-4 10 -1 -17z"/>
<path d="M62130 61855 c-278 -56 -590 -121 -695 -143 -104 -22 -291 -59 -415
-82 l-224 -42 -13 -16 c-8 -10 -21 -27 -30 -40 l-16 -23 9 -9 10 -10 19 35 18
35 21 5 c12 3 89 18 171 35 152 29 721 145 1298 264 175 36 323 66 330 66 l12
0 -11 -8 c-12 -8 -29 -37 -44 -76 l-10 -26 11 0 11 0 15 38 15 38 39 24 c21
14 39 28 39 32 l0 8 -27 -1 c-16 -1 -255 -47 -533 -104z"/>
<path d="M40097 61872 c-23 -22 -69 -55 -103 -74 l-60 -35 -97 -24 c-53 -12
-97 -26 -97 -30 l0 -7 108 28 107 27 46 27 c25 14 72 48 103 76 l57 50 -11 0
c-6 0 -29 -17 -53 -38z"/>
<path d="M59846 61804 c-31 -37 -95 -122 -141 -188 l-84 -122 -24 -65 -24 -64
-31 -145 -31 -145 -5 -80 -5 -80 8 15 8 15 6 80 6 80 29 130 c17 72 40 157 53
190 l22 60 90 130 c50 72 115 158 145 193 l54 62 -9 0 c-5 0 -35 -30 -67 -66z"/>
<path d="M89692 61544 c-51 -113 -91 -209 -88 -212 3 -2 10 6 15 19 5 13 46
105 90 203 45 99 80 184 79 188 -2 5 -45 -84 -96 -198z"/>
<path d="M57825 61683 c15 -15 476 -214 487 -211 7 3 -423 195 -482 216 l-15
5 10 -10z"/>
<path d="M56277 61627 l-19 -32 26 24 25 24 -5 8 c-7 12 -7 13 -27 -24z"/>
<path d="M60713 61627 l-53 -10 0 -10 0 -9 46 7 c26 3 53 9 60 12 14 5 20 24
7 22 -5 -1 -32 -6 -60 -12z"/>
<path d="M61101 61608 c-1 -7 81 -387 95 -444 4 -14 9 -23 11 -20 6 5 -84 422
-97 451 -5 11 -9 17 -9 13z"/>
<path d="M60509 61512 c-42 -37 -112 -105 -155 -151 -101 -107 -371 -361 -483
-453 -47 -39 -90 -75 -95 -79 l-10 -9 6 -6 7 -6 73 58 c112 89 339 298 473
434 66 67 147 145 179 172 l60 50 8 -21 c4 -11 11 -21 15 -21 l8 0 1 50 c0 28
-2 50 -5 49 -3 0 -40 -31 -82 -67z"/>
<path d="M60604 61460 c-5 -5 -44 -29 -87 -54 l-78 -44 9 -6 9 -5 48 25 c26
14 61 34 78 44 l30 18 34 -5 34 -6 24 13 24 13 -4 8 -5 7 -30 -11 -30 -12 -20
13 c-24 14 -24 14 -36 2z"/>
<path d="M56960 61350 c-121 -90 -155 -120 -135 -120 8 0 285 209 285 215 0
13 -26 -3 -150 -95z"/>
<path d="M58170 61399 l-125 -40 -240 -55 -240 -55 -33 6 c-18 3 -41 9 -50 12
l-17 6 11 -12 11 -12 49 -5 49 -6 235 56 c129 30 291 72 360 94 l124 38 196
-87 c107 -48 197 -85 199 -83 2 2 2 5 0 7 -8 6 -396 177 -400 176 -2 0 -60
-19 -129 -40z"/>
<path d="M43430 61427 c0 -5 21 -33 48 -64 51 -60 320 -298 328 -290 3 2 -56
57 -131 121 -74 65 -160 145 -190 179 -30 34 -55 58 -55 54z"/>
<path d="M60666 61395 c16 -25 34 -33 34 -17 0 10 -33 42 -44 42 -3 0 1 -11
10 -25z"/>
<path d="M57690 61318 l-125 -31 -37 10 -38 10 0 -7 c0 -10 37 -20 72 -20 28
0 278 57 287 65 10 10 -39 2 -159 -27z"/>
<path d="M49972 60820 c-18 -4 -36 -11 -40 -15 l-7 -8 40 8 c22 4 47 11 55 16
l15 8 -15 0 c-8 -1 -30 -5 -48 -9z"/>
<path d="M34700 60761 c8 -5 51 -19 95 -31 l80 -22 129 -14 c71 -8 131 -12
133 -10 6 6 -35 12 -164 26 l-103 11 -82 24 c-46 14 -87 25 -93 24 l-10 0 15
-8z"/>
<path d="M44769 60514 c-112 -97 -206 -182 -208 -188 l-4 -11 19 16 c45 37
333 286 371 321 24 21 39 38 34 38 -4 0 -100 -79 -212 -176z"/>
<path d="M55403 60656 c-27 -18 -127 -82 -222 -141 -95 -59 -170 -109 -168
-112 5 -5 411 249 437 273 25 24 4 15 -47 -20z"/>
<path d="M48229 60553 c21 -38 60 -74 181 -168 69 -54 133 -105 143 -113 l17
-15 0 9 c0 5 -65 60 -144 122 l-145 114 -23 34 c-13 19 -27 34 -31 34 l-8 0
10 -17z"/>
<path d="M78010 60520 l0 -13 7 6 6 7 -6 7 -7 6 0 -13z"/>
<path d="M87435 60429 c-102 -102 -398 -387 -514 -492 l-64 -58 9 -9 9 -9 115
102 c134 118 560 542 560 557 0 21 -19 7 -115 -91z"/>
<path d="M55593 60499 c-18 -5 -35 -15 -39 -21 l-7 -11 19 8 c10 4 31 10 47
13 l27 4 0 9 c0 10 -4 10 -47 -2z"/>
<path d="M57315 60458 l-6 -14 27 -70 c14 -38 31 -97 38 -131 l11 -62 12 7 12
7 -14 65 c-12 57 -60 198 -71 209 -2 2 -6 -3 -9 -11z"/>
<path d="M49945 60440 c33 -4 148 -10 255 -13 l195 -5 -60 8 c-33 4 -148 10
-255 13 l-195 5 60 -8z"/>
<path d="M62316 60262 c-230 -47 -414 -88 -408 -90 12 -4 809 155 837 168 l20
9 -15 -1 c-8 0 -204 -39 -434 -86z"/>
<path d="M57280 60121 c0 -27 -7 -84 -16 -127 -15 -75 -29 -119 -130 -402
l-44 -124 11 4 12 4 74 204 74 205 19 94 20 93 0 49 0 49 -10 0 -10 0 0 -49z"/>
<path d="M46330 60157 c0 -12 422 -518 427 -513 3 2 -84 112 -192 243 -210
253 -235 282 -235 270z"/>
<path d="M57020 60122 c0 -15 47 -47 101 -68 57 -22 91 -48 107 -82 l13 -27
-6 30 -6 30 -27 22 c-15 12 -52 31 -82 43 l-55 21 -22 21 -23 21 0 -11z"/>
<path d="M43576 59942 l-5 -8 72 -80 c40 -43 92 -104 117 -134 45 -56 410
-450 448 -483 l20 -18 7 11 7 11 -49 52 c-189 203 -379 412 -423 467 -60 74
-171 190 -182 190 -4 0 -9 -4 -12 -8z"/>
<path d="M44937 59874 c124 -137 272 -289 272 -281 1 9 -318 351 -333 356 -6
2 21 -31 61 -75z"/>
<path d="M58850 59932 c0 -7 38 -97 84 -201 47 -103 114 -259 151 -347 36 -87
71 -163 77 -169 l11 -10 -6 10 c-2 6 -39 91 -80 190 -99 236 -237 543 -237
527z"/>
<path d="M43542 59888 l-24 -28 10 0 c13 0 45 37 41 48 l-4 9 -23 -29z"/>
<path d="M86765 59864 c-27 -24 -107 -90 -177 -145 l-128 -100 0 -11 0 -10 14
5 c38 15 356 276 357 294 1 19 -20 8 -66 -33z"/>
<path d="M86559 59764 c-90 -69 -166 -131 -168 -137 l-4 -12 14 11 c8 6 85 66
172 133 141 110 166 131 153 131 -2 0 -77 -57 -167 -126z"/>
<path d="M41050 59818 c-1 -18 -14 -95 -29 -171 l-28 -138 11 4 10 3 28 135
c15 74 27 149 28 167 l0 32 -10 0 -10 0 0 -32z"/>
<path d="M43980 59839 c0 -11 203 -263 289 -359 l49 -55 8 7 7 8 -164 204
-164 205 -12 0 -13 1 0 -11z"/>
<path d="M43565 59830 l-30 -8 40 -1 40 -1 15 10 15 10 -25 -1 c-14 -1 -38 -5
-55 -9z"/>
<path d="M28609 59683 c-26 -82 -58 -174 -73 -205 l-26 -58 9 0 10 0 26 58
c23 50 115 324 115 345 0 4 -3 7 -8 7 l-7 0 -46 -147z"/>
<path d="M93335 59750 c52 -58 279 -206 343 -225 l22 -6 0 9 0 10 -25 6 c-38
10 -201 111 -277 172 -69 55 -95 70 -63 34z"/>
<path d="M53264 59589 c-14 -23 -33 -58 -41 -77 l-14 -34 10 6 c13 8 82 138
77 144 -3 2 -17 -15 -32 -39z"/>
<path d="M62765 59539 c-77 -16 -164 -34 -193 -40 -30 -6 -52 -13 -49 -15 2
-3 93 12 201 33 l196 37 0 8 c0 10 12 12 -155 -23z"/>
<path d="M40897 59533 c-2 -5 -14 -37 -25 -73 -12 -36 -91 -253 -176 -482
l-155 -417 -40 -78 -39 -78 -23 -21 c-13 -12 -54 -40 -92 -63 l-67 -41 -55 0
-55 0 0 -10 0 -10 62 0 62 0 65 42 c36 23 79 53 94 67 l29 26 35 70 36 70 163
437 c89 240 171 466 182 502 l20 66 -8 0 c-5 0 -11 -3 -13 -7z"/>
<path d="M47130 59496 c0 -3 -11 -55 -25 -118 l-24 -113 -36 -89 c-41 -104
-39 -96 -21 -96 l14 0 36 90 36 90 25 116 c30 137 29 124 10 124 -8 0 -15 -2
-15 -4z"/>
<path d="M41010 59465 c0 -7 160 -109 236 -151 l60 -34 248 -80 c228 -74 277
-88 265 -76 -2 3 -112 39 -244 82 l-240 77 -59 29 c-32 16 -96 54 -141 83 -95
61 -125 78 -125 70z"/>
<path d="M46982 59410 l-12 -20 0 -27 0 -27 9 10 c8 9 25 84 19 84 -2 0 -9 -9
-16 -20z"/>
<path d="M63721 59372 c-1 -20 155 -799 234 -1167 36 -170 93 -449 125 -620
71 -372 284 -1365 288 -1343 2 8 -42 224 -97 479 -55 255 -130 618 -166 807
-36 188 -91 458 -121 600 -30 141 -71 338 -90 437 -43 216 -163 796 -168 810
l-4 10 -1 -13z"/>
<path d="M75900 59244 c8 -1 104 -5 213 -7 l197 -3 0 8 0 8 -212 -1 c-117 -1
-206 -3 -198 -5z"/>
<path d="M75945 59203 c28 -1 121 -4 208 -5 l157 -3 0 8 0 7 -207 -2 c-115 -1
-185 -3 -158 -5z"/>
<path d="M50064 59091 c-99 -125 -296 -392 -293 -396 4 -3 290 365 312 402 15
25 3 21 -19 -6z"/>
<path d="M75501 58848 l-45 -83 -2 -145 -2 -145 10 145 10 145 42 83 c24 45
40 82 37 82 -3 0 -26 -37 -50 -82z"/>
<path d="M47740 58870 l-15 -10 17 0 c9 0 20 5 23 10 l6 10 -8 0 c-4 0 -15 -5
-23 -10z"/>
<path d="M40707 58732 c-3 -4 -28 -70 -57 -147 l-51 -140 -24 -37 -25 -37 9
-5 9 -6 24 38 c13 20 38 75 56 122 17 47 42 115 56 153 l25 67 -9 0 c-5 0 -11
-3 -13 -8z"/>
<path d="M84476 58436 l-230 -103 -4 -13 -5 -13 17 6 c9 4 115 50 236 103
l220 97 0 13 c0 8 -1 14 -2 13 -2 0 -106 -47 -232 -103z"/>
<path d="M61535 58479 c-104 -27 -197 -53 -206 -58 -9 -5 -106 -28 -215 -51
-212 -44 -229 -48 -223 -54 6 -6 409 81 433 93 12 5 113 33 226 62 113 28 207
53 209 55 13 11 -54 -3 -224 -47z"/>
<path d="M51770 58264 c-85 -64 -164 -122 -175 -130 l-19 -14 9 -9 10 -9 175
129 c96 72 177 134 178 139 l4 10 -14 0 c-7 -1 -83 -53 -168 -116z"/>
<path d="M60670 58319 l-185 -39 -47 -1 -47 0 -13 -16 -13 -17 20 8 c11 5 29
8 40 7 29 -1 428 81 440 91 l9 8 -9 -1 c-6 -1 -93 -19 -195 -40z"/>
<path d="M91816 58140 c21 -21 339 -238 343 -234 2 2 2 6 0 7 -23 20 -340 237
-346 237 l-7 0 10 -10z"/>
<path d="M83720 58089 l-135 -50 -202 -51 -203 -50 0 -13 0 -13 208 53 207 53
148 54 147 54 -6 7 c-12 11 -23 8 -164 -44z"/>
<path d="M38640 58102 c-68 -34 -350 -222 -350 -234 0 -4 2 -8 5 -8 2 0 78 49
168 109 l164 108 46 18 47 18 -6 8 c-7 13 -12 11 -74 -19z"/>
<path d="M91790 58113 c0 -4 96 -74 213 -154 l212 -146 158 -93 c87 -50 160
-90 163 -87 3 2 -71 48 -163 102 l-168 98 -180 125 c-99 69 -192 134 -207 144
l-28 19 0 -8z"/>
<path d="M63027 57970 c-98 -21 -181 -41 -184 -44 l-6 -6 6 0 c11 0 391 80
402 84 34 14 -65 -1 -218 -34z"/>
<path d="M46270 57971 c0 -5 21 -35 46 -66 l47 -57 74 -131 c76 -135 89 -154
97 -146 3 2 -30 66 -72 142 l-77 137 -50 65 c-48 61 -65 76 -65 56z"/>
<path d="M82878 57918 l-198 -50 0 -13 0 -13 178 45 c97 24 194 49 215 54 l38
10 -6 9 c-8 14 -7 14 -227 -42z"/>
<path d="M36075 57863 c14 -14 466 -184 478 -180 7 2 -284 116 -468 183 l-20
7 10 -10z"/>
<path d="M35758 57840 c-56 -10 -179 -49 -192 -61 -14 -13 -7 -11 70 15 l69
23 85 12 85 13 90 -6 90 -5 -25 8 -25 9 -100 0 c-55 0 -121 -4 -147 -8z"/>
<path d="M35305 57694 c-233 -123 -231 -122 -224 -128 2 -2 96 46 209 106 256
136 257 137 245 138 -5 0 -109 -52 -230 -116z"/>
<path d="M55477 57785 c-103 -13 -193 -26 -200 -28 l-12 -5 25 -1 c41 -1 410
46 417 53 l6 6 -24 -1 c-13 -1 -108 -12 -212 -24z"/>
<path d="M55249 57720 c-219 -26 -403 -50 -410 -53 l-14 -5 18 -1 c28 -1 860
99 865 104 10 10 -71 2 -459 -45z"/>
<path d="M81380 57669 l-415 -56 -105 -27 -105 -27 -80 -36 c-136 -60 -257
-124 -335 -176 l-75 -50 -109 -101 -109 -101 -172 -190 c-256 -282 -339 -357
-472 -424 l-63 -31 0 -10 c0 -6 5 -10 10 -10 22 0 137 64 200 111 l65 48 96
98 c53 54 154 163 225 243 l128 145 101 91 100 91 96 66 96 66 149 73 149 73
140 33 140 32 380 51 c209 27 381 52 383 54 2 2 2 8 1 12 l-4 9 -415 -57z"/>
<path d="M64131 57575 c-1 -11 18 -114 41 -230 l43 -210 2 20 c1 11 -17 115
-41 230 -24 116 -44 201 -45 190z"/>
<path d="M80920 57507 c0 -17 39 -146 59 -193 l22 -50 86 -85 87 -84 -86 95
-85 95 -26 65 c-14 36 -28 81 -32 100 -7 33 -24 73 -25 57z"/>
<path d="M47455 56900 c-146 -21 -150 -22 -199 -65 -47 -42 -39 -46 13 -7 48
38 52 39 214 62 77 11 142 22 145 25 9 8 -46 4 -173 -15z"/>
<path d="M46548 56905 c-2 -3 26 -215 63 -472 l68 -468 36 -130 c19 -71 49
-169 66 -217 l31 -88 9 0 c4 0 10 4 13 8 l5 9 -30 79 c-16 43 -45 140 -64 214
l-34 135 -56 390 -55 390 -19 73 c-20 76 -24 86 -33 77z"/>
<path d="M37956 56819 c-63 -176 -145 -426 -143 -433 2 -5 38 91 80 214 42
123 75 226 72 228 -2 3 -7 -1 -9 -9z"/>
<path d="M56421 56521 c-68 -77 -130 -149 -138 -161 l-15 -21 6 -7 7 -6 32 40
c33 40 178 205 231 262 l30 32 -15 0 -16 0 -122 -139z"/>
<path d="M26450 56403 c0 -8 331 -183 346 -183 12 0 -40 30 -208 118 -76 40
-138 69 -138 65z"/>
<path d="M35715 56224 c-77 -74 -135 -134 -129 -132 16 4 290 268 279 268 -6
0 -73 -61 -150 -136z"/>
<path d="M64083 56087 c-139 -28 -253 -54 -253 -58 0 -7 518 95 527 105 l6 6
-14 -1 c-8 -1 -128 -24 -266 -52z"/>
<path d="M85993 56007 c-95 -51 -173 -95 -173 -99 0 -6 82 35 285 144 l90 48
-15 -1 c-8 0 -93 -42 -187 -92z"/>
<path d="M63728 55973 c-20 -5 -24 -23 -5 -23 6 0 18 4 26 9 l13 9 -8 4 c-5 2
-17 3 -26 1z"/>
<path d="M32560 55905 c0 -11 202 -386 206 -382 6 5 -185 375 -197 382 l-9 6
0 -6z"/>
<path d="M35725 55880 l6 -10 22 1 22 0 -20 9 c-11 5 -24 9 -28 9 l-8 1 6 -10z"/>
<path d="M35870 55837 c0 -7 92 -38 98 -32 3 2 -7 9 -22 15 -39 15 -76 23 -76
17z"/>
<path d="M50190 55790 c0 -5 5 -33 11 -62 l12 -53 34 -70 c20 -38 57 -99 83
-135 l49 -65 68 -61 c120 -106 184 -143 257 -149 l38 -2 80 -41 79 -40 -12 15
c-7 8 -32 25 -57 37 l-44 22 62 18 c35 9 61 19 59 21 -5 4 -113 -20 -126 -28
l-9 -6 -55 23 -55 22 -85 64 c-46 34 -114 92 -151 129 l-68 65 0 -10 c0 -16
129 -136 213 -198 l79 -58 -6 -6 -6 -6 -63 44 c-34 24 -91 69 -125 99 l-64 56
-48 65 c-26 36 -63 97 -83 135 l-35 70 -12 58 c-10 51 -20 74 -20 47z"/>
<path d="M55881 55758 c74 -70 279 -241 284 -236 2 2 -64 62 -147 133 -152
131 -223 184 -137 103z"/>
<path d="M46970 55760 l0 -13 7 6 6 7 -6 7 -7 6 0 -13z"/>
<path d="M35381 55413 l-354 -337 -131 -99 c-72 -55 -203 -146 -291 -202 -88
-56 -247 -157 -354 -225 -107 -68 -228 -148 -270 -178 -42 -30 -114 -74 -161
-97 l-85 -43 -39 -51 -38 -51 -2 -42 -2 -41 -22 -17 -22 -18 14 -5 14 -6 15
17 c7 9 17 26 21 36 l7 20 57 -57 57 -56 194 -130 194 -130 9 5 9 6 -195 131
-194 132 -71 69 -71 68 51 60 52 59 61 31 c55 27 163 96 796 505 104 66 242
162 307 211 l118 90 165 158 c327 314 530 512 530 518 0 3 -3 6 -7 6 -5 0
-167 -152 -362 -337z"/>
<path d="M46981 55724 l1 -19 5 13 5 13 -6 6 -6 6 1 -19z"/>
<path d="M46990 55690 l0 -13 7 6 6 7 -6 7 -7 6 0 -13z"/>
<path d="M25805 55552 c-43 -64 -104 -149 -136 -189 l-59 -71 -102 -94 -103
-93 -259 -200 -258 -199 11 -4 10 -3 19 13 c10 7 135 103 277 213 l259 200
116 115 117 115 101 152 102 152 -9 5 -8 5 -78 -117z"/>
<path d="M47001 55666 c-2 -13 50 -178 55 -174 2 3 -9 45 -25 94 -16 49 -29
85 -30 80z"/>
<path d="M25996 55651 c16 -15 406 -294 467 -334 l59 -38 6 5 c7 7 11 4 -68
56 -36 24 -151 106 -257 182 -105 76 -197 138 -204 138 l-13 0 10 -9z"/>
<path d="M47160 55250 l0 -13 7 6 6 7 -6 7 -7 6 0 -13z"/>
<path d="M48685 55075 c-126 -63 -234 -116 -240 -118 -5 -2 -8 -6 -5 -9 3 -3
118 50 255 118 138 67 243 123 235 122 -8 0 -118 -51 -245 -113z"/>
<path d="M50983 55003 c2 -44 10 -55 21 -27 l6 15 -14 27 -14 27 1 -42z"/>
<path d="M51910 55031 l0 -11 148 0 147 0 35 -21 c19 -12 52 -35 73 -51 l37
-30 0 9 c0 5 -28 30 -62 55 l-63 45 -157 8 -158 7 0 -11z"/>
<path d="M47285 54993 c15 -32 25 -42 25 -24 0 5 -9 19 -20 32 l-21 24 16 -32z"/>
<path d="M52125 54742 l-140 -216 -137 -175 c-75 -97 -135 -178 -132 -180 2
-2 6 -2 7 0 2 2 62 78 133 169 l130 165 133 205 c74 113 141 215 149 228 l14
22 -8 0 c-5 -1 -72 -98 -149 -218z"/>
<path d="M18825 54882 c-27 -21 -91 -63 -141 -95 -83 -51 -118 -70 -178 -91
l-19 -6 6 -6 5 -6 59 24 58 24 115 77 c63 42 126 85 140 96 l25 21 -10 0 c-5
0 -32 -17 -60 -38z"/>
<path d="M50867 54856 l-38 -12 6 -6 6 -6 35 11 c19 6 34 14 34 19 0 4 -1 8
-2 7 -2 -1 -20 -6 -41 -13z"/>
<path d="M47110 54800 c0 -20 23 -56 47 -74 l25 -18 11 11 10 10 -26 21 c-14
11 -29 29 -32 40 l-6 20 -15 0 -14 0 0 -10z"/>
<path d="M32570 54778 l1 -13 386 -255 c212 -140 399 -263 415 -273 l28 -19 0
15 0 15 -409 271 c-225 149 -412 271 -415 271 -3 0 -6 -6 -6 -12z"/>
<path d="M47898 54689 c-87 -44 -158 -81 -158 -83 0 -6 116 47 230 104 92 46
95 48 89 54 -2 2 -75 -32 -161 -75z"/>
<path d="M52724 54173 c-120 -185 -252 -381 -293 -435 l-74 -99 7 -6 7 -7 7
10 c4 5 39 55 78 109 100 142 497 755 492 760 -3 3 -103 -147 -224 -332z"/>
<path d="M53150 54397 c350 -230 390 -256 390 -248 0 9 -522 349 -548 358 -10
2 62 -47 158 -110z"/>
<path d="M88035 54386 l-20 -15 10 -2 c6 0 27 0 48 1 l38 2 14 -12 14 -12 13
4 13 5 -25 15 c-14 9 -39 19 -55 22 l-30 7 -20 -15z"/>
<path d="M51493 54373 c11 -18 198 -166 203 -161 4 5 -160 141 -195 163 l-14
8 6 -10z"/>
<path d="M49082 54218 c-128 -66 -231 -122 -229 -125 3 -2 114 52 248 121 134
69 237 126 229 125 -8 0 -120 -54 -248 -121z"/>
<path d="M51450 54306 c32 -32 195 -155 199 -150 2 2 2 6 0 7 -126 104 -248
192 -199 143z"/>
<path d="M88140 54219 c0 -9 82 -169 173 -337 l23 -44 10 2 c5 1 8 5 7 9 -3
13 -205 381 -209 381 -2 0 -4 -5 -4 -11z"/>
<path d="M87874 54123 c-82 -54 -171 -114 -199 -133 -27 -19 -54 -38 -59 -42
l-10 -7 6 -6 6 -7 206 138 c174 115 225 154 202 154 -2 0 -70 -44 -152 -97z"/>
<path d="M18550 54208 c0 -19 103 -429 107 -424 6 5 -86 394 -98 416 -5 8 -9
12 -9 8z"/>
<path d="M48320 54206 c0 -13 185 -366 192 -366 7 0 -168 347 -183 365 l-9 9
0 -8z"/>
<path d="M49152 54077 c-128 -66 -231 -122 -228 -124 4 -4 231 108 396 196 52
28 88 50 80 49 -8 0 -120 -55 -248 -121z"/>
<path d="M33478 54173 c-8 -10 -18 -26 -21 -35 l-6 -18 7 0 c8 0 52 55 52 65
0 11 -18 4 -32 -12z"/>
<path d="M54946 54083 c-71 -222 -256 -836 -252 -840 2 -3 12 20 22 51 l18 56
25 -24 c14 -13 89 -65 166 -117 l140 -93 59 -18 c33 -10 64 -17 70 -15 l11 4
-65 19 -65 20 -152 102 -153 102 -14 23 -15 22 115 374 c63 205 113 375 110
378 -2 2 -11 -17 -20 -44z"/>
<path d="M33447 54062 c-9 -10 -23 -34 -32 -54 l-15 -37 9 -5 9 -6 11 32 c6
18 21 42 32 54 l21 22 -10 6 -9 6 -16 -18z"/>
<path d="M47706 54022 l-5 -8 201 -412 201 -412 13 0 c7 0 15 4 18 8 l5 8
-200 410 -199 409 -14 3 -14 3 -6 -9z"/>
<path d="M52030 53909 l95 -90 113 -80 c63 -45 116 -79 118 -76 3 3 -46 41
-108 85 l-113 80 -92 86 c-50 47 -95 86 -100 86 -4 -1 35 -41 87 -91z"/>
<path d="M52302 53625 c13 -19 26 -35 31 -35 4 0 -3 16 -15 35 -13 19 -26 35
-31 35 -4 0 3 -16 15 -35z"/>
<path d="M50032 53528 l-182 -100 5 -9 6 -9 67 34 c37 19 120 63 184 98 l117
64 -7 11 -7 11 -183 -100z"/>
<path d="M30203 53485 c0 -60 3 -175 7 -255 l6 -145 1 205 1 205 -8 50 -7 50
0 -110z"/>
<path d="M58235 53489 l-70 -79 -81 -65 c-45 -35 -98 -72 -118 -81 -20 -10
-36 -21 -36 -26 l0 -8 43 21 c23 12 72 45 108 73 l66 51 81 88 c45 49 82 93
82 98 0 13 1 14 -75 -72z"/>
<path d="M10877 53526 l-5 -13 85 -22 85 -22 82 -6 82 -6 32 17 c18 9 32 21
32 26 0 13 2 13 -54 -6 l-47 -16 -78 11 c-43 7 -108 20 -144 30 l-66 19 -4
-12z"/>
<path d="M48610 53443 c-52 -30 -175 -94 -273 -144 -98 -50 -176 -93 -174 -96
6 -6 274 128 425 213 122 69 128 72 121 77 -2 2 -47 -21 -99 -50z"/>
<path d="M55355 53314 c-58 -103 -104 -188 -103 -190 10 -9 33 27 126 190 56
98 102 180 102 182 0 2 -4 4 -9 4 l-10 0 -106 -186z"/>
<path d="M52007 53473 l-6 -9 55 -63 c30 -35 70 -87 89 -117 l35 -54 10 0 c5
0 10 3 10 6 0 11 -101 149 -144 197 l-44 49 -5 -9z"/>
<path d="M52383 53469 c3 -9 22 -55 43 -102 l37 -87 -17 -19 -17 -19 -107 -8
-107 -7 28 -9 c31 -11 35 -25 10 -31 l-18 -4 25 -10 25 -11 44 -99 c37 -84
154 -308 198 -380 l13 -23 18 0 17 0 85 50 c47 27 80 50 74 50 -6 0 -48 -21
-92 -46 l-81 -46 -10 6 c-19 12 -261 476 -261 501 0 1 35 5 77 9 l77 6 33 32
c18 18 33 36 33 42 l0 10 -37 -36 -38 -36 -76 -7 -76 -6 -6 14 -5 14 81 7 82
6 22 25 22 25 -43 95 c-24 53 -47 99 -51 103 l-8 7 6 -16z"/>
<path d="M26270 53465 c0 -16 99 -199 156 -287 75 -116 72 -113 78 -107 3 3
-24 49 -60 104 -36 55 -87 144 -115 198 -43 85 -59 110 -59 92z"/>
<path d="M51925 53450 c3 -5 8 -10 11 -10 2 0 4 5 4 10 0 6 -5 10 -11 10 l-10
0 6 -10z"/>
<path d="M51790 53409 c-41 -16 -78 -29 -81 -29 -4 0 -25 -12 -48 -27 l-40
-26 5 -9 5 -8 36 24 35 24 89 32 89 32 0 9 c0 13 -6 11 -90 -22z"/>
<path d="M49830 53281 c0 -5 5 -13 10 -16 l10 -6 0 10 c0 5 -4 13 -10 16 l-10
6 0 -10z"/>
<path d="M50760 53165 c-102 -52 -179 -94 -172 -94 13 -1 147 65 292 143 147
79 73 49 -120 -49z"/>
<path d="M49810 53242 c0 -6 29 -56 65 -111 36 -54 65 -103 65 -108 l0 -9
-188 -102 c-176 -95 -235 -131 -221 -132 5 0 428 228 439 237 2 2 -1 7 -7 11
-6 4 -43 56 -82 116 -39 61 -71 105 -71 98z"/>
<path d="M34703 53205 l-33 -14 0 -16 0 -15 10 0 c6 0 10 4 10 8 0 5 11 14 25
20 l25 11 14 -5 14 -5 7 10 6 11 -10 0 c-5 0 -15 2 -23 5 l-13 4 -32 -14z"/>
<path d="M53670 53181 c0 -51 6 -53 12 -5 l4 35 -8 5 -8 5 0 -40z"/>
<path d="M12832 53020 l-111 -159 9 -6 8 -5 111 159 c61 88 111 162 111 165 0
23 -31 -14 -128 -154z"/>
<path d="M56077 53162 c-9 -2 -17 -7 -17 -10 l0 -7 192 3 192 3 12 7 13 7
-188 0 c-103 0 -195 -1 -204 -3z"/>
<path d="M34910 53130 c-30 -11 -64 -19 -75 -20 -11 0 -27 -4 -35 -10 l-14 -9
6 -6 6 -6 68 16 c38 8 81 20 96 26 l28 11 -6 9 c-6 11 -7 11 -74 -11z"/>
<path d="M55640 53139 c-74 -5 -159 -13 -187 -19 l-53 -11 0 -13 c0 -7 9 -21
20 -31 l20 -18 0 -37 0 -37 -20 -26 -21 -26 -34 -7 -35 -6 0 -15 0 -14 23 6
c12 4 29 9 38 11 l16 4 129 -21 c193 -31 253 -47 580 -159 l299 -102 205 -83
c113 -46 315 -129 449 -185 l243 -101 217 -107 c119 -59 298 -154 397 -210
100 -56 187 -102 193 -102 30 0 -6 24 -187 125 -108 60 -215 121 -237 136 -22
15 -122 65 -221 112 -171 81 -268 121 -819 345 l-220 89 -310 106 -310 106
-90 20 c-49 11 -121 25 -160 31 -38 6 -82 13 -96 16 l-27 5 15 39 16 39 -15
45 -15 45 31 10 31 9 225 12 225 12 42 -10 42 -10 5 6 6 5 -11 14 -11 13 -127
-1 c-69 -1 -187 -6 -261 -10z"/>
<path d="M55212 53079 l-20 -20 -6 -31 c-3 -17 -6 -37 -6 -44 l0 -14 15 0 15
0 0 35 0 35 20 20 c21 21 26 40 10 40 -5 0 -18 -9 -28 -21z"/>
<path d="M49995 53083 c-20 -5 -35 -20 -35 -36 l0 -8 16 15 c8 9 22 16 30 16
l14 0 0 10 c0 6 -1 9 -2 9 -2 -1 -12 -4 -23 -6z"/>
<path d="M42810 53036 l-194 -32 9 -6 10 -6 198 33 c109 18 201 36 204 39 l6
6 -19 -1 c-10 -1 -107 -16 -214 -33z"/>
<path d="M50332 52952 c-117 -57 -211 -106 -209 -108 3 -4 416 192 426 202 20
20 -35 -4 -217 -94z"/>
<path d="M49373 52998 c-13 -6 -23 -15 -23 -20 l0 -9 30 16 c45 23 38 35 -7
13z"/>
<path d="M11896 52981 l-6 -9 156 -117 156 -117 10 10 9 9 -147 109 c-81 60
-153 112 -160 117 l-13 7 -5 -9z"/>
<path d="M49036 52884 c-172 -91 -172 -91 -164 -100 l6 -6 171 90 171 89 -7 6
c-10 10 -6 12 -177 -79z"/>
<path d="M65532 52880 c-123 -26 -226 -51 -230 -55 l-7 -8 25 6 c14 3 117 24
230 48 113 23 207 44 209 46 16 12 -30 5 -227 -37z"/>
<path d="M49459 52798 l-12 -23 19 16 c10 10 28 19 39 22 l20 5 -27 1 -27 1
-12 -22z"/>
<path d="M48380 52740 c5 -10 25 -28 44 -39 l34 -22 11 -31 c6 -17 11 -42 11
-54 l0 -24 15 0 15 0 0 26 c0 15 -5 43 -11 63 l-11 36 -29 23 c-16 13 -42 27
-59 32 l-30 9 10 -19z"/>
<path d="M48272 52732 l-13 -9 7 -16 6 -16 19 12 19 12 0 12 0 13 -12 0 c-7 0
-19 -4 -26 -8z"/>
<path d="M51260 52731 c0 -6 4 -13 10 -16 l10 -6 -6 15 c-7 18 -14 21 -14 7z"/>
<path d="M52671 52655 l-134 -65 5 -6 6 -5 131 65 c72 37 131 68 131 71 0 7 6
10 -139 -60z"/>
<path d="M48207 52653 c-4 -3 -7 -28 -7 -55 l0 -49 14 -28 c8 -15 21 -33 29
-40 l15 -12 7 11 7 11 -21 35 -21 35 0 37 c0 20 -4 43 -8 50 l-8 12 -7 -7z"/>
<path d="M48160 52585 l-25 -27 -137 -69 -138 -69 0 -10 c0 -6 5 -10 11 -10
19 0 288 142 305 161 l16 18 -4 16 -3 17 -25 -27z"/>
<path d="M49433 52477 c-68 -34 -123 -65 -123 -69 l0 -8 123 61 c129 65 133
67 126 73 -2 2 -59 -24 -126 -57z"/>
<path d="M12536 52521 l-6 -10 195 -137 196 -137 10 10 9 9 -172 120 c-94 65
-184 127 -199 137 l-27 18 -6 -10z"/>
<path d="M42875 52419 l-5 -7 32 -11 c18 -5 113 -31 211 -57 l177 -47 7 7 c3
3 4 8 2 9 -2 2 -98 29 -212 59 l-208 55 -4 -8z"/>
<path d="M48234 52419 l50 -8 23 -18 24 -18 192 -392 c106 -216 195 -392 199
-393 5 0 -162 355 -341 720 l-36 75 -34 22 -34 23 -46 -1 -46 -1 49 -9z"/>
<path d="M48163 52413 l7 -6 7 6 6 7 -13 0 -13 0 6 -7z"/>
<path d="M22627 52318 l-26 -63 -45 -180 c-41 -164 -47 -199 -30 -182 3 3 27
90 53 194 l48 188 21 42 c23 45 27 63 14 63 l-9 0 -26 -62z"/>
<path d="M53020 52347 c0 -4 128 -271 272 -569 l82 -168 8 0 8 0 -14 33 c-30
69 -347 707 -351 707 -3 0 -5 -2 -5 -3z"/>
<path d="M46610 52301 l0 -9 142 -62 142 -62 67 -44 68 -43 17 -26 16 -25 10
6 10 6 -34 35 c-58 62 -115 93 -360 199 l-78 33 0 -8z"/>
<path d="M52930 52307 c0 -16 49 -103 69 -121 l22 -20 147 -299 146 -299 4 10
3 10 -147 294 -146 293 -34 38 c-19 20 -34 43 -34 50 0 14 -29 57 -30 44z"/>
<path d="M84301 52302 c-1 -7 6 -42 15 -78 l17 -66 13 -5 14 -5 176 43 c96 24
171 45 166 47 -5 1 -82 -15 -170 -38 -89 -22 -168 -40 -175 -40 l-15 0 -20 78
c-11 42 -20 71 -21 64z"/>
<path d="M46500 52134 c-41 -86 -77 -162 -79 -168 l-3 -11 9 10 c15 15 163
325 155 325 -4 0 -41 -71 -82 -156z"/>
<path d="M46866 51924 c-319 -156 -581 -286 -584 -288 -2 -3 -1 -9 2 -14 l6
-10 590 291 589 291 -5 8 c-3 4 -8 8 -12 8 -4 -1 -268 -129 -586 -286z"/>
<path d="M16210 52173 c1 -10 422 -185 429 -178 10 11 -19 25 -208 104 -188
78 -221 89 -221 74z"/>
<path d="M54265 51991 l-5 -9 26 -21 c45 -35 65 -17 22 20 -26 21 -34 23 -43
10z"/>
<path d="M53778 51664 l-188 -94 0 -10 c0 -6 2 -10 5 -10 5 0 367 180 374 185
1 2 1 8 0 13 l-4 10 -187 -94z"/>
<path d="M34306 51653 c-4 -43 -15 -120 -25 -171 l-18 -93 8 -5 8 -4 5 17 c12
41 35 184 42 256 l7 77 -10 0 -10 0 -7 -77z"/>
<path d="M32255 51678 c3 -13 18 -106 35 -208 36 -223 40 -243 47 -237 3 3
-12 109 -33 236 l-38 231 -8 0 -8 0 5 -22z"/>
<path d="M21636 51460 c-4 -91 -6 -183 -4 -205 l3 -40 9 185 c4 102 6 195 4
205 l-4 20 -8 -165z"/>
<path d="M17957 51513 l-5 -8 186 -77 c103 -42 199 -79 215 -82 l27 -6 0 10 0
10 -27 6 c-16 3 -102 37 -193 74 -91 38 -172 72 -181 75 l-17 6 -5 -8z"/>
<path d="M78384 51473 c9 -21 68 -186 131 -368 l116 -330 17 -74 17 -74 12 -4
11 -4 -19 78 -18 78 -128 364 -128 365 -13 4 -13 4 15 -39z"/>
<path d="M35733 51425 c3 -11 20 -119 38 -240 l32 -220 10 -10 9 -10 -5 20
c-3 11 -20 119 -38 240 l-32 220 -10 10 -9 10 5 -20z"/>
<path d="M35716 51278 c13 -84 29 -192 36 -240 l12 -88 6 0 7 0 -23 153 c-13
83 -29 191 -36 240 l-12 87 -6 0 -7 0 23 -152z"/>
<path d="M27027 51391 l-7 -33 2 -172 1 -171 8 195 c9 198 8 241 -4 181z"/>
<path d="M34166 51401 l-6 -10 9 -5 10 -6 5 9 6 10 -9 5 -10 6 -5 -9z"/>
<path d="M52930 51340 l-21 -30 -71 -46 c-40 -25 -109 -65 -155 -87 -75 -38
-100 -57 -73 -57 14 0 173 80 241 122 l55 33 37 41 37 41 -7 7 c-12 11 -22 6
-43 -24z"/>
<path d="M18367 51253 c-3 -10 -11 -45 -17 -78 l-12 -60 -39 -104 c-22 -57
-38 -105 -36 -107 5 -5 21 27 52 106 l26 65 20 94 c10 52 17 96 15 98 -2 3 -7
-4 -9 -14z"/>
<path d="M34060 51223 c0 -21 7 -75 16 -121 l17 -83 9 9 9 9 -15 67 -16 67 0
45 0 44 -10 0 -10 0 0 -37z"/>
<path d="M21150 51221 l0 -9 73 -6 c39 -3 143 -8 230 -11 l157 -6 0 9 0 10
-137 6 c-76 3 -180 8 -230 11 l-93 5 0 -9z"/>
<path d="M21623 51173 l7 -6 7 6 6 7 -13 0 -13 0 6 -7z"/>
<path d="M68236 51044 c-104 -46 -192 -86 -194 -89 -3 -3 -2 -8 1 -11 l6 -7
205 89 c113 49 206 92 206 97 l0 7 -17 -1 c-10 0 -103 -39 -207 -85z"/>
<path d="M44895 51085 c17 -14 35 -25 40 -25 l10 1 -30 24 c-16 14 -34 25 -40
25 l-10 -1 30 -24z"/>
<path d="M12414 51036 c-62 -42 -76 -60 -97 -116 l-17 -46 0 -74 c0 -77 7
-120 19 -120 l7 0 -4 93 -4 92 19 50 19 50 62 47 62 47 -8 5 -9 5 -49 -33z"/>
<path d="M27790 50960 l0 -8 63 -6 c34 -3 122 -8 195 -11 l132 -6 0 9 0 10
-117 6 c-65 3 -153 8 -195 11 l-78 4 0 -9z"/>
<path d="M46893 50837 c-17 -7 -35 -16 -40 -21 l-8 -9 20 7 c11 4 34 10 52 13
l32 5 35 -6 35 -7 53 -35 c29 -20 75 -59 101 -88 l48 -51 -10 20 c-5 11 -32
44 -60 72 l-50 51 -62 31 -62 31 -26 -1 c-14 0 -40 -6 -58 -12z"/>
<path d="M33541 50838 c-2 -15 130 -842 134 -847 8 -8 7 2 -55 409 -53 339
-76 469 -79 438z"/>
<path d="M50064 50765 c-3 -8 -4 -19 -2 -26 l4 -11 12 26 12 26 -11 0 c-5 0
-12 -7 -15 -15z"/>
<path d="M7300 50744 c-19 -2 -72 -9 -117 -15 l-83 -11 0 -10 0 -11 38 7 c20
4 93 11 162 17 l125 9 63 -6 62 -6 0 9 0 10 -52 7 c-52 6 -130 6 -198 0z"/>
<path d="M50130 50635 c7 -9 15 -13 17 -11 7 7 -7 26 -19 26 l-10 0 12 -15z"/>
<path d="M82783 50600 c3 -14 18 -79 32 -145 26 -124 62 -251 64 -225 1 9 -8
47 -18 85 -10 39 -29 120 -42 180 l-22 110 -10 10 -10 10 6 -25z"/>
<path d="M50259 50508 c104 -223 182 -380 186 -376 7 6 -208 457 -217 458 -4
0 10 -37 31 -82z"/>
<path d="M8950 50561 l0 -9 123 -42 122 -41 98 -48 98 -47 4 7 c12 18 -128 86
-296 144 -140 48 -149 50 -149 36z"/>
<path d="M26766 50544 c-3 -9 -6 -43 -6 -77 l-1 -62 -14 -39 -14 -40 -18 -10
c-10 -6 -38 -17 -63 -23 l-45 -13 49 5 50 5 21 14 22 14 11 44 c11 43 25 198
18 198 -2 0 -7 -7 -10 -16z"/>
<path d="M42710 50420 l0 -31 -45 -172 -45 -172 11 -65 c14 -90 22 -90 14 0
l-7 75 40 160 c22 88 43 177 45 198 l6 37 -10 0 -9 0 0 -30z"/>
<path d="M33575 50355 c2 -16 16 -109 31 -205 15 -96 29 -169 32 -162 5 16
-47 352 -59 377 l-9 20 5 -30z"/>
<path d="M31724 50275 c3 -33 8 -130 12 -215 l7 -155 9 -15 9 -15 -5 55 c-3
30 -8 127 -12 215 l-6 160 -10 15 -9 15 5 -60z"/>
<path d="M30527 50130 c3 -80 9 -181 13 -225 l8 -80 -5 180 c-3 99 -9 200 -13
225 l-8 45 5 -145z"/>
<path d="M66156 50131 l-200 -87 -4 -12 -4 -12 69 29 c131 56 347 151 351 155
2 2 0 6 -5 9 l-8 5 -199 -87z"/>
<path d="M59202 50087 l4 -95 28 -36 28 -37 5 -79 6 -79 -24 -145 -23 -145 7
-7 c4 -4 9 -5 11 -3 6 6 43 227 50 305 l7 60 -12 55 -11 54 -25 38 -26 37 -2
82 -2 82 -13 4 -12 4 4 -95z"/>
<path d="M82890 50170 l0 -13 7 6 6 7 -6 7 -7 6 0 -13z"/>
<path d="M43221 50104 c-1 -6 53 -121 118 -255 66 -134 120 -239 120 -233 1
15 -237 502 -238 488z"/>
<path d="M33848 49980 l-148 -7 -7 -6 c-3 -4 -4 -9 -2 -11 2 -2 81 0 174 5 94
4 198 8 233 8 l62 1 0 10 0 10 -82 -2 c-46 -1 -149 -4 -230 -8z"/>
<path d="M59925 49911 l-5 -10 7 -4 c5 -2 203 -46 441 -97 l433 -92 6 6 6 6
-7 7 c-3 4 -192 46 -419 95 -226 48 -422 90 -434 93 l-22 5 -6 -9z"/>
<path d="M33710 49884 c0 -26 51 -388 55 -392 3 -3 5 1 5 9 0 31 -50 382 -55
387 -3 3 -5 1 -5 -4z"/>
<path d="M42660 49790 c0 -17 241 -482 247 -476 4 4 -56 123 -214 425 -18 35
-33 58 -33 51z"/>
<path d="M30543 49773 l7 -6 7 6 6 7 -13 0 -13 0 6 -7z"/>
<path d="M49558 49740 l-56 -29 -121 -28 -121 -28 0 -12 0 -13 13 0 c6 0 64
12 127 26 l115 27 58 29 57 28 0 15 c0 20 -6 19 -72 -15z"/>
<path d="M49420 49604 c-63 -15 -117 -28 -119 -29 -1 -2 0 -8 3 -13 l6 -10
129 28 129 27 53 -5 54 -4 -11 12 -12 12 -58 4 -59 3 -115 -25z"/>
<path d="M38151 49524 c-6 -22 -28 -108 -50 -191 l-39 -153 6 0 c9 0 105 371
98 377 -3 3 -9 -12 -15 -33z"/>
<path d="M35990 49429 c0 -8 12 -89 27 -181 l27 -168 8 0 8 0 -5 23 c-3 12
-16 92 -30 177 -24 140 -35 188 -35 149z"/>
<path d="M49900 49374 l0 -29 136 -230 c75 -126 185 -304 244 -395 59 -91 158
-255 220 -365 61 -110 126 -221 143 -247 l32 -48 13 0 c6 0 12 3 12 6 0 3 -70
131 -156 283 l-157 276 -103 153 c-57 84 -104 154 -104 156 0 4 -270 459 -276
465 -2 2 -4 -9 -4 -25z"/>
<path d="M37040 49380 c0 -5 2 -10 5 -10 4 0 848 -186 993 -218 l43 -10 -4 11
-3 11 -482 107 c-266 59 -498 110 -517 113 l-35 7 0 -11z"/>
<path d="M62590 49328 l0 -14 208 -47 c114 -26 213 -47 220 -47 l12 0 0 10 c0
6 -3 10 -6 10 -7 0 -391 89 -416 96 l-18 5 0 -13z"/>
<path d="M91308 49324 l-7 -6 21 -41 c27 -54 216 -358 234 -376 40 -43 11 14
-92 179 -64 102 -124 200 -133 218 l-17 33 -6 -7z"/>
<path d="M38073 49097 l3 -11 428 -109 428 -108 6 5 c3 3 3 8 1 10 -2 2 -199
54 -437 114 l-433 110 4 -11z"/>
<path d="M64320 49051 c-13 -26 -13 -53 3 -74 l12 -17 0 55 c0 30 -1 55 -2 55
-1 0 -7 -9 -13 -19z"/>
<path d="M56167 48930 c141 -265 165 -310 174 -316 6 -3 -3 18 -19 48 -16 29
-65 118 -107 198 -42 80 -82 150 -88 155 -5 6 13 -33 40 -85z"/>
<path d="M91445 48772 c-55 -64 -126 -147 -158 -184 -33 -37 -55 -68 -50 -68
14 0 319 357 312 365 -2 2 -49 -49 -104 -113z"/>
<path d="M91417 48678 c-81 -94 -147 -176 -147 -182 l0 -10 8 10 c5 5 64 74
132 154 68 80 132 155 143 167 11 13 18 25 15 28 -2 3 -70 -73 -151 -167z"/>
<path d="M80823 48627 l-202 -112 -1 -12 c0 -7 3 -13 8 -13 4 0 99 51 212 114
l204 113 4 12 4 11 -14 0 c-7 -1 -104 -51 -215 -113z"/>
<path d="M22256 48479 l-7 -251 5 -6 c3 -3 8 -3 10 -1 3 2 8 118 12 257 l7
252 -10 0 -10 0 -7 -251z"/>
<path d="M43296 48633 c9 -38 14 -42 14 -10 l0 26 -10 6 -11 7 7 -29z"/>
<path d="M35253 48637 l-183 -9 0 -8 0 -8 38 4 c20 2 138 9 262 15 124 6 227
12 229 15 6 6 -134 2 -346 -9z"/>
<path d="M33595 48589 c-71 -5 -139 -10 -150 -13 -29 -6 264 5 360 14 l80 7
-80 0 c-44 0 -138 -4 -210 -8z"/>
<path d="M66378 48570 l4 -31 -17 -19 -18 -20 9 0 c6 0 15 5 22 12 l12 12 0
38 0 38 -8 0 -9 0 5 -30z"/>
<path d="M43050 48554 c-80 -7 -158 -13 -174 -13 l-29 -1 6 -6 6 -6 178 12
178 13 10 8 9 9 -19 -1 c-11 -1 -85 -7 -165 -15z"/>
<path d="M40530 48540 l0 -20 10 0 10 0 0 20 0 20 -10 0 -10 0 0 -20z"/>
<path d="M44001 48503 c-1 -14 170 -365 176 -360 2 2 -37 87 -86 188 -49 101
-90 179 -90 172z"/>
<path d="M41466 48493 c-11 -11 -6 -23 9 -23 l15 0 0 9 c0 6 -4 12 -9 15 l-8
5 -7 -6z"/>
<path d="M50725 48390 l-6 -10 7 -12 c4 -7 57 -93 117 -191 l110 -178 11 4 11
5 -3 11 c-3 13 -232 381 -237 381 -2 0 -7 -4 -10 -10z"/>
<path d="M22297 48013 c-4 -108 -7 -243 -7 -300 l0 -103 10 0 10 0 0 113 c0
61 3 196 7 300 l6 187 -10 0 -10 0 -6 -197z"/>
<path d="M37915 48150 c-66 -4 -156 -8 -199 -9 l-80 -1 10 -8 9 -8 135 7 c74
4 177 9 228 10 l92 3 0 8 0 8 -37 -2 c-21 -1 -92 -5 -158 -8z"/>
<path d="M44150 48079 l-45 -40 -205 -116 c-113 -64 -239 -131 -280 -149 l-75
-31 -180 -38 c-99 -21 -184 -42 -189 -46 l-10 -9 6 -6 6 -5 184 40 c100 22
209 49 242 60 l59 21 231 130 231 131 45 39 45 39 -10 10 -10 9 -45 -39z"/>
<path d="M69172 47918 l4 -12 230 -47 c126 -26 537 -112 914 -192 618 -131
1243 -257 1277 -257 l13 0 0 13 0 12 -252 48 c-139 27 -541 109 -893 183 -516
109 -1276 264 -1293 264 -2 0 -2 -5 0 -12z"/>
<path d="M80050 47794 c-80 -69 -149 -129 -153 -134 l-9 -8 11 -6 10 -6 150
130 c136 117 167 150 144 150 -5 0 -73 -57 -153 -126z"/>
<path d="M69661 47873 l0 -28 9 20 c12 27 12 35 0 35 l-10 0 1 -27z"/>
<path d="M47592 47868 l4 -10 83 -32 83 -32 66 -55 c84 -69 102 -82 108 -76 3
2 -33 36 -78 74 l-83 69 -93 36 -93 36 3 -10z"/>
<path d="M43611 47803 l-11 -28 15 19 c8 11 15 23 15 28 0 15 -7 8 -19 -19z"/>
<path d="M46690 47704 c-63 -29 -146 -68 -183 -85 -38 -17 -66 -33 -64 -35 5
-5 357 153 372 167 l9 9 -9 -1 c-6 0 -62 -25 -125 -55z"/>
<path d="M53607 47744 l-27 -15 74 -147 c41 -81 82 -156 90 -167 9 -11 -21 54
-65 144 l-81 164 23 18 c29 22 24 23 -14 3z"/>
<path d="M74830 47606 c0 -20 11 -46 19 -46 l8 0 -5 30 -4 30 -9 0 -9 0 0 -14z"/>
<path d="M22230 47525 l0 -75 10 0 10 0 0 75 0 75 -10 0 -10 0 0 -75z"/>
<path d="M79970 47571 c0 -10 34 -21 68 -21 l22 0 107 -55 c59 -31 122 -67
141 -81 l33 -26 7 7 7 7 -30 24 c-16 14 -75 49 -130 78 l-100 54 -59 11 c-71
13 -66 13 -66 2z"/>
<path d="M41570 47493 c0 -14 55 -96 76 -114 10 -9 27 -19 36 -22 l17 -6 6 8
5 9 -34 20 -33 20 -24 43 c-13 23 -30 44 -36 47 l-13 4 0 -9z"/>
<path d="M41484 47453 c-3 -16 -10 -41 -16 -56 l-11 -28 -54 -35 -54 -34 6
-11 7 -10 36 23 c73 43 79 49 90 73 7 14 15 44 18 65 l7 40 -12 0 -11 0 -6
-27z"/>
<path d="M41631 47460 l16 -25 39 -20 39 -19 60 -3 60 -2 -46 8 c-49 10 -118
39 -159 68 l-25 18 16 -25z"/>
<path d="M22860 47461 c32 -18 939 -216 948 -207 6 7 -21 13 -348 81 -173 36
-380 81 -459 100 -152 37 -165 39 -141 26z"/>
<path d="M42590 47203 c0 -113 2 -204 4 -202 2 2 7 95 10 207 l7 202 -10 0
-11 0 0 -207z"/>
<path d="M41492 47335 l-21 -27 -7 -33 -6 -33 7 -31 7 -31 14 0 15 0 -8 23
c-4 12 -7 35 -7 50 l1 28 23 31 22 30 -10 10 -9 9 -21 -26z"/>
<path d="M41906 47303 l-70 -15 -33 -25 c-35 -27 -59 -61 -49 -70 2 -3 26 13
53 35 l48 39 63 13 62 13 0 13 c0 8 -1 14 -2 13 -2 -1 -34 -8 -72 -16z"/>
<path d="M46516 47280 c4 -19 7 -39 7 -45 0 -5 -3 -26 -7 -45 l-7 -35 12 20
12 19 0 41 0 41 -12 19 -12 20 7 -35z"/>
<path d="M34744 47186 c3 -60 6 -223 6 -363 l0 -253 11 0 12 0 -5 350 -4 350
-13 13 -14 12 7 -109z"/>
<path d="M53887 47253 c-10 -9 -8 -33 2 -33 5 0 11 9 14 20 l5 20 -7 0 c-4 0
-11 -3 -14 -7z"/>
<path d="M20662 47113 l-21 -68 -21 -132 c-12 -73 -20 -138 -18 -144 2 -7 16
62 32 151 l28 164 19 48 19 48 -9 0 -8 0 -21 -67z"/>
<path d="M30690 46814 c0 -54 30 -397 35 -402 8 -8 6 28 -11 233 -14 175 -24
242 -24 169z"/>
<path d="M29486 46650 c4 -69 10 -165 14 -215 l8 -90 -5 200 -5 200 -9 15 -8
15 5 -125z"/>
<path d="M22065 46720 c-60 -10 -129 -23 -152 -29 l-43 -12 0 -14 0 -15 28 11
c15 6 83 19 152 30 69 10 135 21 148 24 l22 5 0 10 0 10 -22 -1 c-13 -1 -72
-9 -133 -19z"/>
<path d="M19749 46490 c47 -132 89 -240 93 -240 l7 0 -28 78 c-15 42 -54 150
-87 240 -32 89 -61 162 -65 162 -3 0 33 -108 80 -240z"/>
<path d="M45160 46685 c-262 -77 -292 -86 -287 -91 5 -5 446 122 455 131 l5 5
-14 -1 c-8 -1 -79 -20 -159 -44z"/>
<path d="M22670 46701 l0 -9 73 -12 c69 -11 323 -65 360 -76 l17 -5 0 14 0 14
-142 31 c-162 36 -251 52 -285 52 l-23 0 0 -9z"/>
<path d="M21129 46541 c-113 -48 -214 -91 -224 -95 l-18 -7 10 -10 9 -9 227
96 227 96 0 9 c0 17 -25 8 -231 -80z"/>
<path d="M57460 46622 c0 -5 18 -17 41 -27 l40 -19 19 -26 c10 -14 22 -39 26
-54 l6 -27 12 4 11 4 -3 28 c-5 40 -29 73 -74 101 l-38 24 -20 0 -20 0 0 -8z"/>
<path d="M34410 46535 l-255 -13 -370 -2 -370 -2 -242 -12 -242 -11 7 -11 7
-12 220 9 c121 4 362 8 535 9 l315 0 300 15 c165 8 324 15 353 15 l54 0 -4 13
-5 12 -24 1 c-13 1 -139 -4 -279 -11z"/>
<path d="M81894 46357 c-290 -222 -534 -418 -534 -429 0 -4 3 -8 7 -8 3 0 83
62 177 138 94 76 271 214 394 306 196 149 242 188 215 185 -5 0 -121 -87 -259
-192z"/>
<path d="M34786 46495 l6 -15 9 6 9 5 -5 10 c-4 5 -10 9 -15 9 l-9 0 5 -15z"/>
<path d="M35145 46489 c-170 -9 -325 -18 -342 -18 l-33 -1 0 -16 0 -15 118 7
c64 3 261 14 436 23 l319 16 5 13 4 12 -99 -1 c-54 -1 -237 -10 -408 -20z"/>
<path d="M36847 46350 l5 -165 15 -55 c8 -30 19 -59 24 -64 12 -13 12 -10 -11
64 l-20 65 -1 100 c-1 55 -5 127 -9 160 l-8 60 5 -165z"/>
<path d="M18790 46456 c0 -12 178 -376 184 -376 4 0 -171 370 -180 379 -2 2
-4 1 -4 -3z"/>
<path d="M18750 46437 c0 -11 183 -377 187 -373 4 3 -172 364 -182 374 -3 3
-5 3 -5 -1z"/>
<path d="M34075 46424 l-200 -12 -217 -1 -218 -1 0 -10 0 -10 228 0 227 0 233
12 232 12 0 13 0 13 -42 -1 c-24 -1 -133 -8 -243 -15z"/>
<path d="M80265 46428 c-2 -7 -20 -69 -41 -138 -45 -154 -49 -162 -224 -443
l-142 -229 6 -6 6 -6 9 10 c24 27 302 487 319 529 12 28 35 100 52 160 17 61
33 116 35 123 l4 12 -10 0 c-5 0 -11 -6 -14 -12z"/>
<path d="M34694 46358 c3 -40 11 -124 18 -185 l11 -113 13 0 14 0 -5 28 c-2
15 -9 81 -15 147 -6 66 -13 137 -16 158 l-6 37 -10 0 -11 0 7 -72z"/>
<path d="M34390 46379 c7 -11 14 -19 16 -16 7 7 -7 37 -17 37 l-10 0 11 -21z"/>
<path d="M50800 46375 c0 -14 163 -315 171 -315 6 0 -153 305 -166 318 -3 3
-5 2 -5 -3z"/>
<path d="M51250 46341 l0 -11 23 -5 c12 -3 41 -9 64 -14 l41 -9 -4 13 -5 13
-37 6 c-20 3 -47 9 -59 12 l-23 6 0 -11z"/>
<path d="M51394 46304 c3 -9 6 -20 6 -25 0 -5 18 -18 39 -29 l40 -20 6 9 5 10
-16 13 c-9 7 -27 23 -40 36 -14 12 -30 22 -36 22 l-10 0 6 -16z"/>
<path d="M28782 46303 l-103 -4 4 -12 4 -12 99 2 c54 2 145 5 201 9 l103 6 -6
9 -5 9 -97 -2 c-53 -1 -143 -4 -200 -5z"/>
<path d="M30768 46283 l-58 -4 0 -11 0 -11 173 6 c94 4 198 7 230 7 l57 0 0
10 0 10 -172 -2 c-95 -1 -199 -3 -230 -5z"/>
<path d="M27483 46237 l-203 -10 0 -15 0 -15 83 6 c45 4 157 10 250 13 l167 7
0 14 0 13 -47 -2 c-27 -1 -139 -6 -250 -11z"/>
<path d="M28423 46176 l-162 -12 -7 -7 -7 -7 6 -6 6 -6 168 11 c92 6 201 14
241 17 l72 6 0 9 0 9 -77 -1 c-43 -1 -151 -7 -240 -13z"/>
<path d="M47186 45964 l-468 -153 -82 -15 c-44 -8 -106 -17 -137 -20 l-56 -6
-163 30 c-90 16 -165 28 -167 26 -7 -6 21 -13 189 -42 l157 -28 115 16 114 17
484 156 c266 86 487 161 493 166 l9 9 -9 -1 c-6 -1 -221 -70 -479 -155z"/>
<path d="M47750 46048 c10 -35 30 -106 45 -158 15 -52 32 -102 37 -110 l9 -15
-4 20 c-14 64 -93 325 -99 325 l-7 0 19 -62z"/>
<path d="M93091 46095 l15 -15 75 -13 76 -14 24 -16 23 -17 51 0 50 0 63 32
c34 18 62 35 62 39 0 4 -26 -6 -58 -22 l-58 -30 -40 -6 -41 -5 -43 22 -43 22
-66 9 -66 10 -9 9 c-6 6 -15 10 -20 10 l-10 0 15 -15z"/>
<path d="M47418 45997 c-137 -45 -248 -84 -248 -88 0 -8 491 150 505 162 l9 9
-9 -1 c-6 -1 -121 -38 -257 -82z"/>
<path d="M93042 46050 l-22 -28 -83 -32 -82 -31 -29 5 -29 6 -94 -6 -93 -7 0
-10 0 -9 17 6 c9 4 70 7 137 7 l120 1 65 25 66 26 28 25 27 26 33 -12 c19 -7
47 -12 63 -12 l29 0 53 -25 54 -25 54 0 54 0 71 36 c39 19 69 38 66 40 -3 3
-33 -9 -67 -26 l-62 -31 -47 -6 -47 -5 -52 26 -51 26 -39 0 -38 0 -39 20 c-22
11 -39 20 -40 19 0 0 -10 -13 -23 -29z"/>
<path d="M81354 45843 c-9 -38 -28 -91 -40 -120 l-23 -52 -26 -7 -25 -6 5 -32
6 -31 -10 -27 -10 -27 8 -6 9 -5 12 30 12 30 -5 26 -5 26 25 11 24 11 16 35
c8 20 23 65 33 101 9 36 20 75 24 88 l7 22 -9 0 -10 0 -18 -67z"/>
<path d="M44410 45665 l0 -234 11 -53 c16 -71 50 -148 93 -203 l35 -46 46 -35
c38 -30 162 -94 180 -94 3 0 5 4 5 9 l0 8 -62 28 c-35 16 -86 45 -114 66 l-50
39 -31 42 c-17 24 -44 72 -59 108 l-29 65 -3 268 -3 267 -10 0 -9 0 0 -235z"/>
<path d="M49380 45880 l-15 -10 10 0 c6 0 17 5 25 10 l15 10 -10 0 c-5 0 -17
-5 -25 -10z"/>
<path d="M36025 45753 c-22 -2 -55 -6 -73 -9 l-33 -5 -92 -81 c-51 -44 -94
-85 -96 -91 l-4 -11 30 25 c17 13 60 50 96 82 l65 58 34 9 c18 6 58 10 88 11
30 0 78 4 105 9 l50 7 -65 0 c-36 0 -83 -2 -105 -4z"/>
<path d="M81207 45521 l5 -21 10 0 9 0 -3 17 c-2 9 -8 18 -15 20 l-11 4 5 -20z"/>
<path d="M15434 45425 c3 -44 9 -131 12 -192 l7 -113 6 0 7 0 -12 186 -13 186
-7 6 -7 7 7 -80z"/>
<path d="M50449 45459 c0 -2 -24 -102 -53 -221 -29 -120 -50 -218 -46 -218 8
0 111 432 105 439 -3 2 -5 2 -6 0z"/>
<path d="M44270 45288 l-55 -20 -143 -8 c-79 -5 -146 -11 -150 -14 l-5 -6 79
0 c145 1 279 24 319 54 25 19 22 19 -45 -6z"/>
<path d="M51152 45287 c-6 -7 -32 -84 -57 -172 l-47 -160 -30 -53 c-17 -29
-28 -55 -25 -58 2 -3 19 20 36 50 l31 55 46 158 47 158 15 18 15 17 -10 0 c-6
0 -15 -6 -21 -13z"/>
<path d="M44290 45254 c-19 -8 -55 -20 -80 -26 l-45 -11 -125 -7 -125 -7 106
-1 105 -2 58 11 58 10 52 24 c56 25 53 34 -4 9z"/>
<path d="M35158 45069 c-101 -89 -185 -163 -187 -165 -2 -2 0 -4 6 -4 6 0 94
74 197 165 103 91 182 165 177 165 -5 0 -92 -73 -193 -161z"/>
<path d="M16960 44875 l0 -20 20 -25 c28 -37 32 -20 4 25 l-24 40 0 -20z"/>
<path d="M16872 44813 l22 -36 4 12 4 12 -16 24 c-9 14 -21 25 -26 25 l-9 0
21 -37z"/>
<path d="M49802 44658 c-106 -55 -191 -102 -189 -104 4 -4 397 195 397 202 0
9 -23 -1 -208 -98z"/>
<path d="M26165 44470 l-60 -7 76 -1 76 -2 54 -19 c30 -10 90 -35 133 -55 44
-20 84 -36 90 -35 15 1 -166 87 -233 110 -30 10 -59 18 -65 17 -6 -1 -38 -4
-71 -8z"/>
<path d="M56100 44399 c0 -8 13 -36 30 -62 l29 -46 23 -5 c43 -10 310 -37 315
-33 7 8 -40 15 -177 28 l-125 11 -22 14 -23 14 -24 48 -25 47 -1 -16z"/>
<path d="M41602 44248 c-7 -7 -12 -16 -12 -22 l0 -10 12 12 c7 7 20 12 31 12
l18 0 -6 10 c-8 14 -28 13 -43 -2z"/>
<path d="M52700 44159 c0 -6 11 -25 24 -42 14 -18 27 -44 31 -59 l7 -27 14 6
15 6 -7 31 -6 31 -25 33 -24 32 -15 0 -14 0 0 -11z"/>
<path d="M78860 43913 c-24 -43 -79 -129 -122 -192 l-77 -114 5 -9 6 -9 68 98
c37 54 95 144 128 201 l61 102 -13 0 -12 0 -44 -77z"/>
<path d="M34612 43850 l-1 -65 -25 -129 c-14 -71 -24 -131 -22 -133 6 -7 13
21 42 174 l26 142 -10 38 -10 38 0 -65z"/>
<path d="M50800 43313 c-14 -3 -95 -24 -180 -47 -85 -24 -251 -69 -367 -101
l-213 -58 0 -9 0 -9 18 5 c9 3 60 17 112 31 52 15 212 59 355 100 143 40 280
77 305 83 l45 10 -25 -1 c-14 0 -36 -2 -50 -4z"/>
<path d="M50735 43256 c-126 -33 -267 -75 -273 -81 -11 -10 16 -4 138 31 69
20 161 45 205 54 l80 18 -30 0 c-16 1 -70 -10 -120 -22z"/>
<path d="M52434 43252 l-11 -18 -167 -79 c-91 -43 -166 -82 -166 -86 0 -9 336
153 352 169 6 6 9 15 7 21 l-4 11 -11 -18z"/>
<path d="M76820 43208 c-233 -32 -426 -61 -429 -64 -2 -2 -2 -6 1 -9 2 -3 210
23 461 57 l457 63 0 7 0 8 -32 -1 c-18 -1 -224 -28 -458 -61z"/>
<path d="M52475 43243 l-7 -22 -36 -24 c-21 -13 -103 -55 -185 -93 -81 -38
-143 -70 -139 -72 8 -2 70 26 310 140 l43 21 16 23 15 23 -5 13 -6 13 -6 -22z"/>
<path d="M11220 43156 c-12 -34 -13 -46 -1 -46 l9 0 7 31 7 30 -6 6 -5 6 -11
-27z"/>
<path d="M75658 43106 l-208 -30 0 -8 c0 -12 19 -10 235 22 110 16 206 30 213
30 l12 0 0 10 0 10 -22 -1 c-13 -1 -116 -16 -230 -33z"/>
<path d="M75675 43055 l-230 -31 13 -8 13 -8 207 27 c114 14 216 30 226 34
l20 7 -10 5 c-5 3 -112 -9 -239 -26z"/>
<path d="M74739 42980 c-107 -15 -202 -30 -210 -33 l-14 -5 40 -1 c22 -1 123
10 224 24 101 14 187 25 192 25 5 0 9 5 9 10 l0 10 -22 -1 c-13 -1 -111 -13
-219 -29z"/>
<path d="M69700 42835 c-91 -13 -165 -24 -165 -24 0 -1 1 -22 3 -48 l4 -48 9
-9 8 -9 -5 50 -6 50 13 5 c8 3 80 14 162 24 l147 18 0 8 c0 4 -1 8 -2 7 -2 -1
-77 -12 -168 -24z"/>
<path d="M41433 42692 l-141 -67 -49 -42 -48 -41 6 -6 6 -6 52 47 52 47 142
64 c78 35 144 65 146 68 17 16 -45 -7 -166 -64z"/>
<path d="M41469 42667 l-136 -62 -37 -28 c-19 -15 -41 -38 -47 -49 l-12 -22
52 46 52 45 135 59 c74 32 134 62 134 66 0 5 -1 8 -2 7 -2 0 -64 -28 -139 -62z"/>
<path d="M27390 42690 l-45 -6 -41 -22 -41 -21 -65 -70 -66 -71 -5 -20 -5 -20
9 0 c4 0 14 10 20 23 7 12 40 51 73 86 l61 63 40 20 39 21 83 -6 83 -5 0 8 0
8 -32 7 c-18 4 -40 8 -48 9 -8 2 -35 0 -60 -4z"/>
<path d="M31880 42689 l0 -12 -157 -153 -157 -153 6 -7 7 -6 128 121 c159 151
217 221 183 221 -5 0 -10 -5 -10 -11z"/>
<path d="M51400 42561 c0 -17 61 -405 66 -420 l4 -14 6 6 6 6 -33 216 -34 215
-7 0 c-5 0 -8 -4 -8 -9z"/>
<path d="M51243 42540 c-73 -10 -163 -20 -200 -24 -133 -13 -318 -37 -343 -46
l-25 -8 30 -1 c17 0 95 9 175 19 80 11 227 30 328 42 l182 22 0 8 c0 4 -3 7
-7 7 -5 -1 -68 -9 -140 -19z"/>
<path d="M70790 42385 c-495 -68 -836 -119 -1410 -211 -124 -20 -227 -38 -229
-40 -15 -14 27 -11 200 15 785 120 1122 168 1524 221 253 33 470 63 483 66
l22 4 0 10 0 10 -27 -1 c-16 -1 -269 -34 -563 -74z"/>
<path d="M69570 42259 c-239 -38 -523 -80 -630 -94 -107 -14 -205 -28 -218
-31 l-23 -5 5 -8 5 -8 238 33 c216 30 979 146 1046 160 l27 6 0 9 c0 5 -3 9
-7 8 -5 0 -204 -32 -443 -70z"/>
<path d="M91207 42290 l-25 -20 -7 -36 c-10 -54 -13 -95 -18 -234 l-5 -125 8
60 c5 33 13 118 19 189 l10 129 27 28 c32 34 28 38 -9 9z"/>
<path d="M39553 42034 c3 -11 9 -35 12 -54 4 -19 16 -53 27 -74 l20 -40 52
-54 c51 -54 123 -108 133 -98 3 2 -12 16 -34 29 -51 33 -125 112 -156 167
l-26 45 -7 43 -7 42 -9 6 -10 7 5 -19z"/>
<path d="M45774 41975 l2 -70 72 -133 c40 -73 72 -138 72 -143 l0 -9 -62 -29
-63 -28 -26 -29 -26 -29 -15 -40 c-17 -44 -44 -193 -36 -200 3 -3 11 30 18 72
l13 78 22 51 23 51 33 26 c19 13 58 35 87 47 l52 22 0 11 c0 5 -20 46 -44 91
-24 45 -59 110 -77 146 l-34 65 -7 60 -6 60 2 -70z"/>
<path d="M66740 41922 c0 -5 12 -14 26 -21 l26 -11 -4 17 -3 18 -23 3 -22 3 0
-9z"/>
<path d="M93755 41788 c-104 -77 -192 -145 -194 -151 l-4 -12 34 26 c19 14
104 77 189 139 169 122 176 128 169 133 -2 2 -89 -59 -194 -135z"/>
<path d="M46606 41839 l-179 -78 -230 -83 c-127 -45 -226 -83 -221 -85 6 -2
109 32 230 76 l220 78 189 83 c105 45 192 84 194 86 17 16 -49 -9 -203 -77z"/>
<path d="M30340 41664 c0 -12 249 -287 264 -293 l11 -4 -20 24 c-12 13 -70 78
-130 144 -60 66 -113 124 -117 130 l-8 9 0 -10z"/>
<path d="M82732 41628 c9 -13 113 -183 233 -378 120 -195 222 -359 226 -364
l7 -8 11 6 10 7 -48 72 c-26 40 -132 210 -236 380 l-190 307 -13 0 -14 0 14
-22z"/>
<path d="M30957 41601 c-10 -17 -40 -54 -66 -83 l-49 -53 -101 -75 c-93 -70
-114 -90 -93 -90 13 0 191 136 240 183 39 38 102 124 102 140 0 16 -17 5 -33
-22z"/>
<path d="M28076 41432 l-6 -10 65 -55 65 -54 93 -50 c50 -28 106 -54 122 -57
17 -4 38 -9 48 -12 l17 -5 0 10 0 10 -42 12 c-85 23 -246 116 -319 186 l-37
35 -6 -10z"/>
<path d="M57596 41397 l-50 -42 -150 -5 -151 -5 111 -8 112 -9 44 7 44 7 55
48 54 49 -10 1 c-5 0 -32 -19 -59 -43z"/>
<path d="M30120 40988 c-111 -82 -137 -95 -239 -115 l-76 -14 -59 5 -59 6 -63
35 c-35 20 -91 58 -125 85 -60 48 -80 59 -78 43 1 -14 113 -99 189 -144 l75
-44 95 0 95 1 73 22 74 23 96 71 c54 39 101 74 105 78 l9 8 -9 5 -8 5 -95 -70z"/>
<path d="M29386 40992 l-5 -9 97 -70 c53 -39 120 -82 147 -95 l50 -26 52 -7
52 -7 20 7 c12 3 21 9 21 13 l0 7 -71 2 -71 3 -57 32 c-31 17 -72 43 -91 58
-19 14 -58 43 -87 63 l-51 38 -6 -9z"/>
<path d="M53327 40578 l-34 -43 -21 -55 -22 -55 -30 -174 c-27 -154 -31 -195
-15 -180 2 3 18 82 35 176 l31 172 25 57 c14 32 39 75 55 95 16 20 29 40 29
43 0 17 -22 1 -53 -36z"/>
<path d="M46518 40094 l-6 -9 14 -25 13 -25 0 15 c0 8 -4 24 -8 34 l-8 20 -5
-10z"/>
<path d="M84475 39794 c-313 -201 -300 -192 -294 -198 4 -3 579 361 595 377
l7 7 -9 0 c-5 0 -139 -84 -299 -186z"/>
<path d="M84780 39956 c0 -4 42 -69 93 -144 51 -75 110 -167 132 -204 21 -38
43 -68 47 -68 14 0 -217 364 -263 415 l-9 9 0 -8z"/>
<path d="M66120 39912 c-106 -34 -121 -42 -195 -109 -33 -29 -66 -53 -72 -53
l-13 0 0 -10 0 -10 15 0 14 0 78 65 78 66 102 31 102 32 -5 8 c-7 11 -7 11
-104 -20z"/>
<path d="M2960 39481 c0 -6 10 -27 22 -47 l22 -37 3 10 c2 6 -6 27 -18 47 -21
37 -29 44 -29 27z"/>
<path d="M42634 39305 c-82 -29 -185 -60 -227 -70 l-77 -17 0 -8 0 -8 98 24
c81 19 348 108 361 120 17 16 -24 5 -155 -41z"/>
<path d="M47902 39273 l-10 -17 69 -85 69 -86 0 -31 0 -31 -25 -38 c-33 -47
-28 -55 7 -12 l25 33 7 29 6 30 -14 27 c-8 15 -39 58 -70 96 l-56 70 6 16 c8
21 -2 21 -14 -1z"/>
<path d="M51571 39116 c5 -5 423 -96 440 -96 34 0 -16 13 -205 55 -193 42
-246 51 -235 41z"/>
<path d="M94891 38920 c92 -133 296 -409 302 -410 5 0 -13 31 -40 68 -183 258
-259 361 -267 362 l-8 0 13 -20z"/>
<path d="M68910 38912 c0 -5 37 -42 82 -82 l81 -74 59 -79 c32 -43 62 -86 67
-95 l9 -17 7 7 7 6 -12 23 c-7 12 -32 49 -56 82 l-44 59 -94 89 c-91 87 -106
98 -106 81z"/>
<path d="M53780 38693 l0 -9 176 -33 c97 -19 186 -36 198 -39 l21 -5 -10 10
-10 10 -175 33 c-96 18 -181 35 -187 37 l-13 5 0 -9z"/>
<path d="M51466 38673 c-30 -103 -96 -369 -94 -380 l3 -15 53 202 c29 111 51
204 48 207 -2 2 -7 -4 -10 -14z"/>
<path d="M60222 38356 c-29 -42 -78 -104 -110 -139 -31 -34 -67 -75 -81 -91
l-26 -29 12 4 c16 6 146 152 210 237 l54 73 -3 10 -3 10 -53 -75z"/>
<path d="M55937 38297 l-5 -13 131 -86 c126 -82 245 -148 267 -148 l10 0 0 13
0 13 -62 30 c-35 16 -123 68 -196 117 -73 48 -134 87 -136 87 -2 0 -6 -6 -9
-13z"/>
<path d="M92803 37611 l6 -24 -10 -20 -11 -19 14 4 13 5 3 27 4 28 -13 12 -12
11 6 -24z"/>
<path d="M580 37384 l0 -20 20 -22 c12 -12 26 -22 32 -22 l11 0 -20 23 c-11
12 -25 31 -31 42 l-11 20 -1 -21z"/>
<path d="M33740 37281 c12 -23 58 -61 73 -61 l11 0 -42 40 c-45 44 -58 50 -42
21z"/>
<path d="M89795 37159 c-203 -125 -188 -115 -184 -127 l4 -10 185 113 c102 63
184 117 183 120 -1 4 -3 8 -5 10 -2 2 -84 -46 -183 -106z"/>
<path d="M51290 36738 c120 -115 260 -241 265 -236 3 2 -61 65 -142 139 -157
144 -230 202 -123 97z"/>
<path d="M40074 36504 c-5 -2 -66 -10 -135 -17 l-124 -12 -3 -97 -3 -98 8 0 8
0 0 93 0 92 85 6 c88 6 230 28 230 35 0 5 -52 4 -66 -2z"/>
<path d="M41764 35675 l18 -14 -6 -25 -6 -26 9 0 9 0 5 28 5 27 -10 13 c-6 6
-18 12 -27 12 l-16 -1 19 -14z"/>
<path d="M84842 35613 c-24 -14 -41 -28 -38 -30 3 -3 25 6 50 21 l45 26 38 0
38 -1 23 -19 23 -19 60 -107 61 -107 62 -81 c34 -45 95 -136 135 -204 41 -67
76 -120 79 -118 7 7 -141 246 -213 346 -34 47 -87 131 -118 186 l-57 102 -25
16 -24 16 -48 0 -48 -1 -43 -26z"/>
<path d="M84894 35593 c-17 -10 -39 -23 -50 -30 l-19 -11 6 -6 5 -5 37 24 36
25 20 0 c10 0 27 -3 35 -6 l16 -6 37 -67 c48 -88 96 -160 107 -161 l8 0 -15
23 c-9 12 -39 63 -67 114 l-50 92 -22 15 c-29 20 -46 20 -84 -1z"/>
<path d="M79800 35468 l-135 -71 -125 -43 c-145 -49 -146 -59 -3 -13 l98 31
140 70 c77 39 149 77 160 84 l19 14 -9 0 c-6 0 -71 -32 -145 -72z"/>
<path d="M79815 35430 l-130 -69 -128 -42 c-70 -23 -126 -43 -124 -46 3 -2 56
12 119 31 l113 36 140 71 c77 40 144 76 150 80 l9 9 -9 0 c-6 0 -68 -32 -140
-70z"/>
<path d="M29758 35473 l-68 -4 0 -7 0 -8 225 0 225 1 0 6 0 6 -92 7 c-89 6
-154 6 -290 -1z"/>
<path d="M60890 35085 c-40 -97 -70 -178 -68 -181 3 -2 38 75 78 171 39 97 70
178 67 181 -2 3 -37 -74 -77 -171z"/>
<path d="M86720 35003 l-24 -5 -448 -275 -448 -275 0 -9 c0 -5 2 -9 5 -9 2 0
203 122 446 271 l441 272 39 8 40 9 27 -6 c15 -4 47 -21 72 -38 l45 -30 -16
24 -16 25 -43 22 -43 23 -26 -1 c-14 -1 -37 -4 -51 -6z"/>
<path d="M86950 34899 c0 -16 242 -399 252 -399 19 0 2 32 -114 216 -114 180
-138 212 -138 183z"/>
<path d="M1870 34570 l0 -7 53 -7 c28 -4 84 -15 122 -26 39 -10 97 -21 130
-25 33 -4 71 -9 84 -12 l24 -6 -6 10 -7 10 -70 7 c-39 4 -96 14 -128 22 -31 9
-90 21 -129 28 l-73 13 0 -7z"/>
<path d="M77628 34454 l-168 -84 0 -9 0 -9 168 86 167 86 50 7 50 6 -50 1 -50
1 -167 -85z"/>
<path d="M77636 34414 c-92 -47 -166 -87 -163 -90 3 -3 78 32 168 77 l164 83
45 7 45 6 -45 1 -45 1 -169 -85z"/>
<path d="M59085 34243 c-99 -62 -187 -118 -195 -124 l-15 -11 19 6 c15 5 361
219 375 232 2 2 2 6 0 7 -2 2 -85 -47 -184 -110z"/>
<path d="M61765 34224 c-66 -58 -124 -109 -129 -115 l-10 -9 11 -11 10 -10
127 112 c69 61 126 116 126 120 0 4 -4 10 -8 13 l-8 5 -119 -105z"/>
<path d="M76136 34238 l28 -23 196 -1 195 -1 -185 6 -185 7 -32 17 c-44 23
-51 21 -17 -5z"/>
<path d="M55220 34189 c-206 -32 -406 -61 -445 -65 -38 -4 -79 -11 -90 -15
l-20 -9 60 6 c100 10 868 124 895 134 l25 8 -25 0 c-14 0 -194 -26 -400 -59z"/>
<path d="M85210 34085 c-101 -63 -188 -119 -194 -125 l-10 -10 12 0 c10 0 371
218 390 235 2 2 -1 6 -6 9 l-9 5 -183 -114z"/>
<path d="M76555 34175 c6 -2 112 -6 238 -8 l227 -5 0 9 0 9 -237 -1 c-131 0
-233 -2 -228 -4z"/>
<path d="M31156 33867 l-44 -62 -21 -52 c-18 -46 -51 -194 -51 -229 l0 -14 9
0 9 0 12 73 c7 39 23 102 35 139 l24 67 45 64 c25 36 46 67 46 71 0 20 -25 -2
-64 -57z"/>
<path d="M60001 33724 c-2 -19 40 -108 62 -131 l20 -23 26 0 c14 0 80 7 146
16 l120 17 10 10 10 9 -30 -6 c-16 -3 -83 -13 -148 -22 l-118 -16 -21 18 -21
19 -28 60 c-15 33 -28 55 -28 49z"/>
<path d="M85730 33334 c-102 -63 -192 -119 -200 -125 l-15 -11 19 7 c23 7 396
234 396 241 0 10 -26 -4 -200 -112z"/>
<path d="M83214 33056 c-33 -24 -122 -84 -197 -136 l-136 -93 5 -9 5 -8 12 7
c39 22 387 265 392 273 l6 10 -13 -1 c-7 -1 -40 -20 -74 -43z"/>
<path d="M1621 33055 c3 -2 77 -9 164 -15 88 -5 177 -12 198 -14 l37 -4 0 7 0
8 -177 11 c-195 13 -229 14 -222 7z"/>
<path d="M79130 33007 l0 -13 248 -38 c136 -22 253 -41 260 -44 l12 -4 0 16 0
16 -22 5 c-38 8 -464 75 -481 75 l-17 0 0 -13z"/>
<path d="M79780 32542 c0 -11 60 -62 73 -62 l11 0 -34 35 c-33 34 -50 43 -50
27z"/>
<path d="M34300 32510 c0 -6 7 -25 17 -43 l16 -32 4 12 4 12 -16 30 c-16 32
-25 39 -25 21z"/>
<path d="M70836 31822 l-6 -10 6 -31 6 -30 20 -7 20 -6 141 12 c78 6 148 14
156 16 l14 5 -9 9 -10 10 -149 -14 c-82 -8 -153 -13 -157 -10 -4 3 -8 13 -8
22 0 9 -4 23 -9 31 l-8 13 -7 -10z"/>
<path d="M98907 31692 c78 -120 270 -392 276 -392 4 0 -33 60 -83 133 -51 72
-115 167 -144 209 -28 43 -55 78 -59 78 l-9 0 19 -28z"/>
<path d="M32930 31643 c-63 -36 -191 -108 -285 -161 -93 -53 -317 -187 -498
-299 -180 -112 -329 -203 -331 -203 -3 0 -7 14 -11 30 l-7 30 -20 11 -20 11
-10 -10 -10 -10 22 -22 22 -22 -5 -27 -6 -27 7 -11 7 -10 372 231 c205 127
398 244 430 261 50 26 449 245 473 260 l9 6 -6 14 c-3 8 -8 15 -12 14 -3 0
-58 -30 -121 -66z"/>
<path d="M31695 31120 l16 -31 9 6 9 6 -11 24 -11 25 -14 0 -14 0 16 -30z"/>
<path d="M80152 30638 l-233 -181 9 -9 10 -10 233 182 c129 100 236 186 237
191 l4 9 -14 -1 c-7 0 -118 -81 -246 -181z"/>
<path d="M30540 30394 c-124 -69 -308 -171 -410 -226 -102 -56 -186 -102 -188
-103 -1 -1 0 -9 3 -17 l6 -15 412 228 c227 126 413 233 415 238 2 5 -1 12 -5
14 l-9 6 -224 -125z"/>
<path d="M75529 30073 c0 -54 -4 -123 -8 -154 l-7 -56 -47 -55 -47 -56 14 -5
15 -6 45 55 45 56 5 31 c3 18 7 89 10 160 l5 127 -15 0 -14 0 -1 -97z"/>
<path d="M84005 29020 l-7 -11 19 -21 c10 -11 80 -79 155 -150 l138 -130 6 16
6 16 -147 142 c-81 79 -151 144 -155 146 -5 2 -11 -2 -15 -8z"/>
<path d="M93645 28963 c-27 -20 -106 -77 -175 -126 -148 -107 -135 -96 -128
-102 l6 -6 173 127 c96 70 178 131 184 136 l9 8 -9 0 c-6 0 -32 -17 -60 -37z"/>
<path d="M95310 26779 c-96 -71 -177 -134 -179 -140 -3 -9 325 226 359 257
l14 14 -9 -1 c-6 0 -89 -58 -185 -130z"/>
<path d="M94820 26724 c-102 -74 -187 -139 -189 -145 -2 -6 48 26 110 72 63
45 148 107 189 137 41 30 79 59 85 63 l9 9 -9 0 c-6 -1 -93 -61 -195 -136z"/>
<path d="M24711 25988 c-5 -13 -30 -91 -56 -172 -26 -81 -49 -146 -51 -143 -3
3 17 74 45 158 l50 152 -5 9 c-3 4 -9 8 -13 8 l-8 0 -57 -177 c-31 -98 -82
-254 -113 -348 l-56 -170 -37 -75 c-21 -41 -52 -110 -70 -153 l-32 -79 9 -9
10 -10 23 58 c13 32 44 101 70 153 l47 95 43 129 43 129 42 61 43 61 52 163
53 163 -11 11 -11 11 -10 -25z"/>
<path d="M87970 24927 c0 -3 14 -38 31 -78 l32 -74 77 -113 78 -113 7 11 6 10
-75 110 -76 110 -28 67 -28 67 -12 4 c-7 2 -12 2 -12 -1z"/>
<path d="M90505 24839 c55 -6 165 -21 244 -35 79 -13 146 -22 149 -19 7 7 -12
11 -158 34 l-135 21 -100 5 -100 4 100 -10z"/>
<path d="M89100 23313 c0 -11 150 -436 156 -442 18 -18 4 34 -59 224 l-73 219
-12 4 -12 4 0 -9z"/>
<path d="M13646 21399 c-18 -51 -106 -402 -102 -406 5 -6 6 -3 65 221 28 105
48 192 46 194 -3 3 -7 -1 -9 -9z"/>
<path d="M89235 20593 c-88 -81 -162 -151 -164 -157 -2 -6 9 1 25 15 26 23
258 233 293 265 8 8 13 16 10 18 -2 3 -76 -61 -164 -141z"/>
<path d="M90416 18472 l-6 -10 16 -53 c8 -30 43 -118 76 -196 l62 -143 8 0
c14 0 9 19 -18 71 -29 57 -114 282 -114 301 0 7 -4 19 -9 27 l-8 13 -7 -10z"/>
<path d="M92930 16991 c0 -11 320 -295 326 -289 2 3 -70 71 -161 152 -91 80
-165 142 -165 137z"/>
<path d="M92897 16957 c-3 -8 -159 -127 -347 -266 -187 -139 -339 -255 -337
-258 3 -2 161 111 351 252 l346 256 12 -7 c11 -7 542 -471 622 -543 l29 -26
-4 12 c-2 7 -144 135 -315 285 -171 150 -318 281 -328 291 -21 20 -22 21 -29
4z"/>
<path d="M92177 16433 l-6 -10 96 -104 c53 -57 123 -132 156 -166 l59 -63 9 6
9 5 -147 157 c-80 86 -152 163 -159 170 l-12 14 -5 -9z"/>
<path d="M93604 16392 c11 -18 336 -293 336 -284 0 8 -299 268 -328 286 l-15
9 7 -11z"/>
<path d="M13935 16085 c2 -27 9 -104 15 -170 13 -151 20 -208 26 -202 3 2 -2
89 -11 193 l-17 189 -9 20 -9 20 5 -50z"/>
<path d="M13974 16100 c3 -19 10 -105 17 -190 l12 -155 9 -20 8 -20 -4 50 c-3
28 -11 115 -17 195 l-12 145 -9 15 -9 15 5 -35z"/>
<path d="M7325 15433 c-110 -14 -202 -27 -204 -29 -2 -2 -2 -7 2 -10 l5 -6
215 26 c118 14 219 26 226 26 6 0 11 5 11 10 l0 10 -27 -1 c-16 -1 -118 -13
-228 -26z"/>
<path d="M98516 15233 c-2 -3 44 -44 102 -92 59 -47 140 -112 180 -145 40 -32
75 -57 77 -54 2 2 -76 70 -175 150 -98 80 -181 144 -184 141z"/>
<path d="M98174 14823 c-60 -71 -838 -979 -868 -1012 l-21 -24 12 4 c9 3 815
932 912 1051 45 56 13 39 -35 -19z"/>
<path d="M19956 14461 l-6 -9 16 -144 17 -143 9 -10 10 -10 -6 30 c-3 17 -10
75 -16 130 -6 55 -13 112 -16 127 l-5 27 58 4 58 3 -57 2 -57 2 -5 -9z"/>
<path d="M4558 14257 l-208 -20 0 -9 0 -8 28 0 c15 0 117 9 227 20 110 11 204
20 208 20 l8 0 -6 10 -6 10 -22 -1 c-12 -1 -115 -11 -229 -22z"/>
<path d="M96565 12938 c-124 -144 -151 -178 -142 -178 4 0 91 99 255 293 8 9
13 19 11 21 -2 2 -58 -59 -124 -136z"/>
<path d="M25490 12734 c-30 -7 -121 -21 -202 -31 -82 -9 -148 -20 -148 -23 l0
-6 118 13 c64 7 156 20 205 29 l87 16 0 9 c0 5 -1 9 -2 8 -2 -1 -28 -7 -58
-15z"/>
<path d="M96313 12703 l7 -6 7 6 6 7 -13 0 -13 0 6 -7z"/>
<path d="M97482 11770 c2 -5 79 -81 172 -170 l168 -160 9 6 9 5 -112 107
c-214 203 -235 222 -242 222 -4 0 -6 -4 -4 -10z"/>
<path d="M26350 9643 c0 -10 12 -108 26 -218 l27 -200 8 -9 9 -10 5 6 6 6 -25
188 c-14 104 -28 204 -31 222 l-6 32 -9 0 -10 0 0 -17z"/>
<path d="M25445 4722 c-89 -50 -129 -78 -200 -142 l-70 -63 -157 -191 -157
-191 9 -9 9 -9 20 24 c10 13 76 94 146 179 l127 155 81 74 82 74 69 44 c37 24
79 49 93 54 l24 9 -6 10 c-9 14 -14 13 -70 -18z"/>
<path d="M21860 3182 c0 -5 10 -13 23 -19 32 -15 460 -345 762 -589 365 -294
678 -546 692 -556 l11 -9 6 10 7 10 -178 142 c-98 77 -333 265 -523 417 -324
260 -691 546 -752 585 -30 18 -48 22 -48 9z"/>
<path d="M22984 2232 c7 -11 313 -252 320 -252 21 0 -12 31 -149 138 -85 67
-160 122 -166 122 l-10 0 5 -8z"/>
<path d="M9450 1750 l0 -9 33 -5 c17 -3 106 -10 197 -16 91 -6 180 -13 198
-16 l32 -5 0 16 0 15 -27 0 c-16 0 -107 7 -203 15 -96 8 -187 15 -202 15 l-28
0 0 -10z"/>
<path d="M22760 1672 c-226 -100 -204 -88 -196 -100 l6 -10 204 91 205 91 -5
8 c-8 12 -5 13 -214 -80z"/>
<path d="M22363 1437 l-203 -91 9 -9 9 -9 198 89 198 90 4 11 4 12 -9 -1 c-4
0 -99 -41 -210 -92z"/>
<path d="M16310 1285 l0 -15 13 0 c6 0 206 -12 443 -26 l431 -27 18 7 c10 3
16 8 14 11 -3 2 -187 15 -409 29 -223 14 -429 28 -457 31 l-53 5 0 -15z"/>
<path d="M16762 1208 l5 -13 221 -14 222 -14 7 6 c3 4 4 9 2 12 -4 3 -409 35
-451 35 l-10 0 4 -12z"/>
<path d="M29467 707 l-155 -172 5 -8 4 -7 9 5 c5 3 76 81 159 175 l151 169 -9
5 -9 6 -155 -173z"/>
</g>
</svg>
