<?xml version="1.0" standalone="no"?>
<!DOCTYPE svg PUBLIC "-//W3C//DTD SVG 20010904//EN"
 "http://www.w3.org/TR/2001/REC-SVG-20010904/DTD/svg10.dtd">
<svg version="1.0" xmlns="http://www.w3.org/2000/svg"
 width="7500.000000pt" height="7500.000000pt" viewBox="0 0 7500.000000 7500.000000"
 preserveAspectRatio="xMidYMid meet">
<metadata>
Created by potrace 1.16, written by Peter Selinger 2001-2019
</metadata>
<g transform="translate(0.000000,7500.000000) scale(0.075000,-0.075000)"
fill="#000000" stroke="none">
<path d="M23816 99881 l-6 -9 68 -44 c85 -56 176 -107 275 -152 l77 -35 0 12
0 12 -119 58 c-66 32 -156 83 -202 113 -92 60 -86 57 -93 45z"/>
<path d="M90185 99589 l7 -21 -17 -38 -17 -38 -24 -11 -24 -10 6 -15 6 -14 33
19 33 20 11 31 c6 17 11 46 11 64 l0 34 -16 0 -15 0 6 -21z"/>
<path d="M87070 97790 c-91 -15 -187 -31 -215 -35 l-50 -8 11 -4 c13 -4 455
65 463 72 9 9 -45 3 -209 -25z"/>
<path d="M86775 97705 c-5 -2 -104 -18 -220 -36 -115 -18 -204 -34 -197 -37
15 -5 410 56 437 68 l20 9 -15 0 c-8 -1 -19 -2 -25 -4z"/>
<path d="M88010 97434 c299 -151 463 -225 528 -237 l32 -6 0 9 0 10 -19 0
c-11 0 -73 21 -138 46 l-118 46 -287 144 c-159 79 -291 144 -295 144 -5 -1
129 -71 297 -156z"/>
<path d="M28621 97014 c0 -8 341 -275 360 -282 l9 -4 0 10 c0 10 -329 269
-355 278 l-15 6 1 -8z"/>
<path d="M31982 94441 c2 -5 86 -70 187 -145 l184 -135 9 5 9 6 -158 117
c-231 171 -240 177 -231 152z"/>
<path d="M22060 92630 l0 -9 83 -25 c45 -14 141 -42 212 -62 72 -20 136 -39
143 -41 l12 -5 0 16 c0 9 -1 16 -3 16 -1 0 -97 27 -212 60 -115 33 -216 60
-222 60 l-13 0 0 -10z"/>
<path d="M27230 91351 l0 -10 68 -20 c37 -11 132 -38 211 -61 l144 -41 8 8 9
9 -205 57 c-113 32 -212 60 -220 63 l-15 6 0 -11z"/>
<path d="M26530 91313 l0 -8 202 -54 c112 -29 210 -56 218 -59 l15 -5 -10 11
-10 10 -190 52 c-104 28 -198 53 -207 56 l-18 5 0 -8z"/>
<path d="M94450 91211 c19 -5 55 -12 80 -15 l45 -7 -10 9 -10 10 -70 5 -70 6
35 -8z"/>
<path d="M94625 91207 l-18 -14 11 -7 12 -7 20 11 c11 6 20 15 20 20 l0 10
-13 0 c-7 0 -21 -6 -32 -13z"/>
<path d="M94845 91021 l-5 -10 8 -5 9 -5 7 6 c9 9 7 23 -3 23 -6 0 -12 -4 -16
-9z"/>
<path d="M94959 90723 l19 -38 54 -51 53 -52 40 -20 c22 -11 220 -94 440 -185
220 -92 434 -184 475 -206 l75 -40 45 -45 c24 -25 49 -46 54 -46 l10 0 -54 56
-55 56 -70 35 c-38 20 -254 112 -480 205 -225 94 -423 177 -440 186 -16 8 -55
39 -86 69 l-57 54 -12 30 c-7 16 -16 29 -21 29 l-9 0 19 -37z"/>
<path d="M95055 90670 l49 -49 65 -35 c84 -43 221 -100 227 -93 3 2 -33 19
-78 38 -46 18 -110 49 -143 68 l-60 34 -45 44 c-63 60 -75 54 -15 -7z"/>
<path d="M29140 90571 c8 -5 86 -28 172 -50 86 -23 173 -48 193 -57 21 -8 39
-13 41 -11 9 8 -80 39 -243 83 -167 45 -189 50 -163 35z"/>
<path d="M30594 90405 c-7 -19 -14 -42 -14 -52 0 -20 41 -83 54 -83 l9 0 -21
23 c-11 12 -23 33 -27 47 l-6 25 16 38 c8 20 13 37 10 37 -3 0 -13 -16 -21
-35z"/>
<path d="M29965 90283 c-13 -94 -56 -309 -71 -346 -16 -43 -18 -55 -5 -41 21
23 71 237 87 377 l6 57 -5 0 c-3 0 -9 -21 -12 -47z"/>
<path d="M30835 90171 l-6 -10 68 -20 c38 -11 75 -21 83 -23 l16 -3 4 9 5 10
-56 17 c-31 9 -68 19 -82 23 l-26 6 -6 -9z"/>
<path d="M31840 89881 l0 -8 78 -17 c42 -9 149 -27 237 -40 l160 -24 189 -12
189 -11 10 10 9 9 -43 6 c-24 3 -123 10 -219 17 l-175 11 -160 24 c-88 13
-176 29 -195 34 -19 6 -45 10 -57 10 l-23 0 0 -9z"/>
<path d="M84630 88834 l-245 -55 -155 -23 -155 -24 32 -1 c58 -2 186 20 473
81 l285 60 10 9 c5 5 7 9 5 8 -3 0 -115 -25 -250 -55z"/>
<path d="M75342 88056 l-132 -73 -15 -19 -14 -19 -1 -28 0 -28 10 6 c6 3 10
14 10 24 l0 17 28 26 c15 14 75 51 134 82 99 53 126 71 116 81 -2 2 -63 -29
-136 -69z"/>
<path d="M89878 87828 l-208 -70 0 -13 0 -13 213 70 c116 39 214 72 216 75 3
2 0 7 -5 12 l-9 9 -207 -70z"/>
<path d="M75068 87714 l-6 -5 90 -187 c96 -201 95 -198 104 -189 l7 6 -89 183
c-48 101 -90 186 -94 191 l-6 7 -6 -6z"/>
<path d="M88783 87267 l-213 -72 0 -12 c0 -7 4 -13 9 -13 5 0 106 32 225 70
l215 70 -5 15 c-4 8 -9 15 -13 14 -3 0 -102 -33 -218 -72z"/>
<path d="M83647 86922 c-3 -16 -9 -41 -13 -56 l-6 -26 10 0 10 0 11 48 10 47
-8 8 -8 8 -6 -29z"/>
<path d="M36550 86928 c8 -9 157 -114 330 -234 173 -119 327 -227 342 -238 15
-11 30 -17 33 -14 4 4 -661 470 -705 493 l-15 8 15 -15z"/>
<path d="M86825 86611 c-441 -149 -520 -178 -710 -258 l-140 -60 -166 -90
-166 -90 -199 -138 -199 -138 -190 -161 c-105 -89 -453 -395 -773 -680 l-582
-519 0 -14 c0 -7 4 -13 8 -13 4 0 287 249 629 553 341 303 692 611 779 683
l159 131 185 128 c439 304 668 406 1593 711 l177 59 0 12 0 13 -12 -1 c-7 0
-184 -58 -393 -128z"/>
<path d="M75715 86048 c-2 -7 -38 -107 -79 -223 l-74 -210 5 -8 c3 -5 7 -6 9
-4 2 2 40 104 83 226 l78 221 -8 6 -9 5 -5 -13z"/>
<path d="M80080 84522 c0 -4 258 -97 573 -206 314 -109 607 -212 650 -227 l77
-28 0 7 c0 4 -251 94 -557 201 -307 107 -600 209 -650 227 l-93 34 0 -8z"/>
<path d="M80066 84482 c5 -5 95 -38 199 -75 105 -36 199 -68 210 -73 l20 -7
-10 10 c-9 10 -406 153 -422 153 -4 0 -3 -4 3 -8z"/>
<path d="M74378 84182 c-14 -9 -49 -39 -77 -65 l-52 -49 -36 -55 -37 -55 -4
-89 -4 -89 11 0 11 0 0 72 0 72 21 44 22 44 56 60 c31 34 73 74 94 89 l38 27
-9 6 -8 5 -26 -17z"/>
<path d="M42825 84162 c6 -6 93 -43 195 -82 102 -40 195 -76 208 -81 l22 -9 0
9 0 8 -197 76 c-109 42 -207 79 -218 83 l-20 7 10 -11z"/>
<path d="M30010 83946 c0 -2 36 -110 79 -238 124 -363 215 -572 270 -622 l21
-19 7 6 7 7 -26 28 c-61 66 -151 276 -264 617 l-72 219 -11 4 c-6 2 -11 1 -11
-2z"/>
<path d="M43715 83910 c11 -5 71 -16 133 -25 l114 -17 68 -23 c37 -13 77 -28
90 -35 12 -6 24 -9 27 -7 8 8 -65 42 -127 60 -52 15 -292 58 -315 56 -5 0 -1
-4 10 -9z"/>
<path d="M64789 83311 c81 -209 150 -384 155 -388 l9 -8 -4 11 c-36 104 -296
764 -300 764 -4 0 60 -171 140 -379z"/>
<path d="M83980 83499 c-74 -61 -163 -129 -198 -151 l-62 -40 5 -9 6 -8 57 36
c68 43 342 264 342 275 0 17 -20 3 -150 -103z"/>
<path d="M2062 82778 l4 -12 204 -78 c111 -43 209 -78 216 -78 20 0 17 17 -3
25 -126 50 -405 155 -414 155 l-11 0 4 -12z"/>
<path d="M7146 80422 l-5 -8 107 -81 c59 -44 144 -106 189 -137 l81 -57 7 11
c4 6 5 13 4 14 -2 2 -49 34 -104 72 -55 38 -137 97 -182 131 -85 66 -89 68
-97 55z"/>
<path d="M78526 79935 c-362 -261 -716 -518 -787 -571 l-128 -95 6 -15 5 -14
37 27 c171 128 402 296 931 676 l615 442 -2 10 c-1 5 -5 11 -10 12 -4 1 -304
-211 -667 -472z"/>
<path d="M7555 80191 l-5 -10 32 -24 c103 -76 335 -240 347 -245 l14 -5 -5 14
-5 14 -184 132 c-101 73 -185 133 -186 133 -1 0 -4 -4 -8 -9z"/>
<path d="M96340 79363 c0 -13 242 -184 307 -217 58 -29 63 -30 63 -16 l0 10
-51 25 c-28 14 -104 64 -169 111 -66 46 -126 87 -135 90 l-15 6 0 -9z"/>
<path d="M98470 78659 c-63 -94 -135 -228 -127 -235 2 -3 21 28 42 68 21 40
64 113 97 161 33 49 58 91 55 93 -3 3 -33 -36 -67 -87z"/>
<path d="M495 76811 l-6 -10 53 -34 c29 -18 114 -72 189 -120 75 -48 142 -87
148 -87 l13 0 -4 10 c-2 8 -316 212 -369 240 l-18 10 -6 -9z"/>
<path d="M60820 75163 l0 -10 133 -7 c72 -3 162 -9 200 -13 l67 -6 0 10 0 10
-67 6 c-38 4 -128 10 -200 13 l-133 7 0 -10z"/>
<path d="M47668 70854 l-6 -6 21 -51 c11 -29 51 -99 88 -157 l68 -105 35 -34
36 -35 6 7 7 6 -38 46 c-56 68 -153 221 -180 281 -24 55 -27 59 -37 48z"/>
<path d="M20440 69130 c-63 -10 -151 -27 -194 -37 l-80 -20 -4 -11 -3 -10 18
4 c10 2 54 12 98 23 44 11 137 27 208 37 l127 17 0 8 0 9 -27 -1 c-16 -1 -80
-9 -143 -19z"/>
<path d="M60437 66633 l-67 -168 -36 -144 -35 -144 13 -8 13 -8 46 177 46 177
56 134 c32 73 57 137 57 142 0 5 -6 9 -13 9 l-14 0 -66 -167z"/>
<path d="M49120 65940 l0 -13 7 6 6 7 -6 7 -7 6 0 -13z"/>
<path d="M62565 65739 c-189 -38 -331 -78 -445 -127 -130 -55 -1688 -809
-1930 -934 l-195 -101 -125 -86 -125 -85 -190 -162 -191 -161 -274 -200 -275
-200 -445 -262 -445 -263 -301 -196 c-166 -109 -336 -224 -377 -256 l-76 -60
5 -8 c10 -15 26 -8 92 46 37 30 186 132 332 227 l265 172 500 295 500 295 255
185 255 186 188 160 189 161 128 87 128 87 154 82 c175 94 1760 864 1945 945
l122 54 123 34 c68 19 182 46 253 60 l130 26 103 0 102 0 0 15 0 15 -117 -1
-118 -1 -140 -29z"/>
<path d="M31644 65486 c-4 -9 -4 -19 -2 -22 5 -4 413 -54 444 -54 l12 0 6 16
c4 9 5 18 4 19 -2 2 -91 12 -198 24 -107 12 -210 24 -227 27 l-33 6 -6 -16z"/>
<path d="M47610 65422 c0 -9 979 -426 986 -420 2 3 -152 71 -343 153 -192 81
-414 176 -495 211 -82 34 -148 59 -148 56z"/>
<path d="M97741 65283 c2 -5 44 -105 94 -221 l89 -212 8 0 c16 0 6 28 -80 229
l-87 204 -14 5 -13 5 3 -10z"/>
<path d="M1045 64740 c-16 -4 -102 -13 -190 -20 -87 -6 -161 -13 -164 -15 -7
-8 57 -6 200 6 l134 11 50 13 50 13 -25 0 c-14 0 -38 -3 -55 -8z"/>
<path d="M37180 64721 l0 -19 38 -6 c76 -13 416 -56 418 -53 1 1 4 11 6 22 l3
19 -205 27 c-113 16 -217 28 -232 28 l-28 1 0 -19z"/>
<path d="M76974 64381 c3 -68 6 -175 6 -238 l0 -113 8 0 7 0 -3 228 -4 227
-10 10 -11 10 7 -124z"/>
<path d="M39710 64291 c0 -17 28 -30 213 -100 l188 -71 17 9 17 10 -30 11
c-97 38 -399 150 -401 150 -2 0 -4 -4 -4 -9z"/>
<path d="M50612 64155 c11 -12 881 -385 886 -380 3 2 -6 9 -19 14 -13 5 -208
89 -434 186 -225 97 -417 180 -425 183 l-15 5 7 -8z"/>
<path d="M78733 64006 l-412 -51 -13 -13 -13 -13 25 5 c14 3 217 29 453 57
l427 52 0 9 0 8 -27 -1 c-16 -1 -213 -24 -440 -53z"/>
<path d="M59541 63932 l-41 -78 -73 -84 -73 -85 -96 -61 -96 -61 -94 -26 -93
-26 -165 -15 -165 -15 -45 -15 c-86 -27 -167 -70 -485 -259 -380 -225 -467
-278 -462 -283 2 -2 31 7 65 21 l62 25 359 214 360 213 83 26 83 26 150 11
150 11 110 31 110 31 80 50 c102 65 104 66 193 167 l74 85 39 77 c22 43 39 82
39 88 l0 10 -14 0 -15 0 -40 -78z"/>
<path d="M76902 63819 l5 -70 -16 6 c-9 4 -31 9 -48 12 l-33 6 0 -10 0 -10 55
-12 55 -12 29 -24 28 -24 7 6 6 7 -31 32 -31 32 -5 66 -6 66 -10 0 -10 0 5
-71z"/>
<path d="M90097 63644 c-152 -133 -183 -164 -159 -164 5 0 84 65 176 146 l167
145 -6 10 c-4 5 -7 9 -8 9 -1 0 -77 -66 -170 -146z"/>
<path d="M41423 63733 c-42 -24 -345 -284 -338 -291 2 -3 33 20 67 50 35 30
114 96 176 146 l114 92 30 0 c16 0 54 -7 84 -16 l54 -15 18 3 17 4 -60 18
c-33 10 -76 20 -95 23 l-35 4 -32 -18z"/>
<path d="M77205 63731 l-5 -10 8 -5 9 -5 7 6 c9 9 7 23 -3 23 -6 0 -12 -4 -16
-9z"/>
<path d="M59114 63665 c-28 -13 -127 -45 -220 -71 l-169 -47 -65 -33 -65 -33
35 6 c19 3 51 14 70 23 19 10 107 38 195 63 88 25 187 57 220 70 l59 25 4 11
4 11 -9 -1 c-4 0 -31 -11 -59 -24z"/>
<path d="M76998 63685 l-7 -7 11 -27 c6 -14 28 -123 48 -241 43 -244 113 -589
135 -667 l16 -53 9 0 c12 0 13 -3 -5 56 -40 138 -168 828 -168 909 l0 30 -4
-13 -5 -13 -12 16 -12 16 -6 -6z"/>
<path d="M77108 63683 l-18 -4 0 -14 0 -13 35 11 c19 6 35 14 35 19 l0 8 -17
-1 c-10 -1 -26 -3 -35 -6z"/>
<path d="M77060 63622 c0 -32 55 -389 76 -497 22 -112 185 -760 258 -1030 14
-49 38 -150 53 -222 l28 -133 13 0 12 0 0 15 c0 28 -60 284 -99 422 -61 216
-217 836 -242 958 -12 61 -34 195 -48 299 l-26 189 -13 5 -12 4 0 -10z"/>
<path d="M41566 63181 l-6 -9 15 -6 15 -5 0 9 c0 5 -4 11 -9 15 l-10 5 -5 -9z"/>
<path d="M8726 63135 l-5 -15 22 -5 c12 -2 92 -14 177 -25 85 -11 172 -23 193
-26 l37 -6 0 16 0 15 -32 6 c-18 3 -103 14 -188 25 -85 11 -165 23 -176 25
l-22 5 -6 -15z"/>
<path d="M68343 63002 c-51 -27 -173 -131 -241 -205 l-63 -69 7 -7 6 -6 67 70
c72 77 199 184 245 207 l29 15 -9 6 -9 5 -32 -16z"/>
<path d="M16898 62931 c-109 -8 -198 -17 -198 -20 0 -11 478 24 489 35 7 6
-74 2 -291 -15z"/>
<path d="M57680 62895 c0 -6 6 -19 14 -30 l14 -20 246 -110 246 -109 -2 -7
c-2 -6 -286 -238 -412 -337 -16 -12 -27 -24 -24 -27 4 -4 418 325 454 360 l12
12 -254 113 -255 113 -19 26 -19 26 -1 -10z"/>
<path d="M16671 62773 l2 -118 -8 -60 -8 -60 -44 -89 c-24 -48 -42 -90 -39
-93 3 -3 25 35 49 83 l44 89 12 78 11 78 0 104 0 105 -11 0 -10 0 2 -117z"/>
<path d="M42424 62688 l-59 -61 30 21 c38 26 100 90 94 97 -3 2 -32 -23 -65
-57z"/>
<path d="M42370 62603 c0 -16 772 -883 794 -892 l10 -4 -20 25 c-10 13 -69 80
-130 149 -62 68 -225 252 -364 409 -139 157 -261 294 -271 305 l-19 19 0 -11z"/>
<path d="M57774 62227 l-441 -352 -61 -130 c-79 -169 -132 -295 -132 -315 0
-8 22 35 48 95 26 61 72 162 101 225 l54 115 439 350 c242 193 442 353 444
358 l5 7 -8 -1 c-4 0 -207 -159 -449 -352z"/>
<path d="M88798 62264 l-137 -193 10 -7 c6 -3 12 -4 13 -3 4 5 158 222 229
321 l47 66 -13 5 -12 4 -137 -193z"/>
<path d="M89022 62421 c2 -5 81 -75 176 -156 l174 -146 11 4 11 3 -180 152
c-98 84 -183 152 -187 152 l-9 0 4 -9z"/>
<path d="M67744 62319 c-24 -27 -103 -68 -174 -91 l-55 -18 -87 -6 -88 -7 0
-10 0 -10 89 7 89 7 54 15 c29 9 78 29 109 46 l57 30 28 29 28 29 -16 0 -15 0
-19 -21z"/>
<path d="M65950 62190 l0 -10 225 0 225 0 0 10 0 10 -225 0 -225 0 0 -10z"/>
<path d="M56760 62146 c0 -12 557 -252 566 -244 2 3 -119 57 -269 122 -149 64
-278 119 -284 122 l-13 6 0 -6z"/>
<path d="M60551 61978 c-1 -16 54 -292 65 -331 3 -10 8 -17 10 -14 4 4 -61
329 -70 352 l-4 10 -1 -17z"/>
<path d="M40097 61872 c-23 -22 -69 -55 -103 -74 l-60 -35 -97 -24 c-53 -12
-97 -26 -97 -30 l0 -7 108 28 107 27 46 27 c25 14 72 48 103 76 l57 50 -11 0
c-6 0 -29 -17 -53 -38z"/>
<path d="M57830 61682 c0 -6 430 -198 473 -211 l12 -3 -10 10 c-5 5 -89 44
-185 85 -96 42 -201 87 -232 101 l-58 26 0 -8z"/>
<path d="M60591 61591 c-10 -10 -23 -25 -27 -33 -5 -8 -39 -38 -76 -68 -60
-47 -85 -76 -75 -86 4 -4 67 49 146 123 31 29 65 60 76 68 l20 14 -22 1 -23 0
-19 -19z"/>
<path d="M60690 61600 c0 -5 4 -10 10 -10 5 0 16 -13 25 -30 l15 -30 -6 -25
-6 -25 11 0 10 0 15 28 c8 15 23 36 35 46 l21 19 -6 9 -6 10 -24 -23 c-13 -12
-25 -21 -27 -18 -2 2 -11 16 -20 32 l-17 27 -15 0 -15 0 0 -10z"/>
<path d="M60604 61460 c-5 -5 -44 -29 -87 -54 l-78 -44 -150 -147 -150 -147 3
-9 3 -9 159 152 158 152 52 28 c28 16 68 37 88 46 40 18 46 27 24 35 l-14 5
-8 -8z"/>
<path d="M35150 60728 c0 -4 3 -8 8 -9 4 0 106 -11 227 -23 121 -12 222 -21
224 -19 14 10 -30 17 -233 37 l-226 22 0 -8z"/>
<path d="M57016 60722 l-6 -10 59 -74 c81 -103 109 -149 151 -253 l36 -90 14
-62 13 -63 10 0 10 0 -7 43 c-10 63 -64 215 -98 277 -24 43 -126 184 -168 233
l-8 9 -6 -10z"/>
<path d="M83384 60601 c-5 -5 -70 -43 -144 -86 -74 -42 -137 -79 -139 -81 -2
-1 7 -19 19 -39 12 -20 25 -34 27 -31 3 3 -2 17 -11 31 l-17 26 6 8 c3 5 65
44 137 87 151 88 143 82 137 89 -3 2 -10 1 -15 -4z"/>
<path d="M87310 60377 l-185 -189 -220 -197 c-121 -108 -271 -236 -332 -284
l-113 -88 0 -11 0 -10 14 5 c33 13 255 194 451 368 l210 186 193 197 192 198
-5 9 c-4 5 -9 8 -13 7 -4 0 -90 -86 -192 -191z"/>
<path d="M78010 60520 c0 -5 5 -10 11 -10 l10 0 -6 10 c-3 6 -8 10 -11 10 -2
0 -4 -4 -4 -10z"/>
<path d="M28610 59693 c-23 -76 -55 -167 -71 -202 l-29 -65 8 -8 9 -9 28 63
c16 35 50 129 76 211 l47 147 -12 0 -13 0 -43 -137z"/>
<path d="M63620 59824 c0 -24 95 -444 100 -444 l7 0 -48 222 c-43 194 -59 254
-59 222z"/>
<path d="M40890 59514 c-6 -14 -10 -29 -10 -34 0 -6 -75 -216 -105 -292 l-7
-18 10 0 10 0 50 138 c27 75 57 158 65 185 l16 47 -10 0 -9 0 -10 -26z"/>
<path d="M78000 59493 c0 -5 23 -104 52 -220 l53 -213 7 0 c14 0 9 26 -43 235
l-51 205 -9 0 c-5 0 -9 -3 -9 -7z"/>
<path d="M41020 59458 c8 -8 60 -43 115 -78 l100 -63 68 -28 c37 -15 67 -25
67 -21 0 4 -28 18 -62 31 l-63 24 -105 67 c-58 36 -112 70 -120 74 l-15 9 15
-15z"/>
<path d="M63799 59165 c25 -124 49 -225 52 -225 4 0 -14 101 -39 225 -25 124
-49 225 -52 225 l-7 0 46 -225z"/>
<path d="M61130 59202 c0 -14 69 -352 76 -371 2 -8 7 -12 9 -9 6 6 -70 377
-79 385 l-6 6 0 -11z"/>
<path d="M59186 59175 c9 -49 117 -380 121 -370 2 6 -26 98 -62 205 -35 107
-62 182 -59 165z"/>
<path d="M62878 58765 l-198 -40 0 -8 0 -9 14 5 c7 3 96 22 197 42 101 20 186
39 188 41 12 11 -20 6 -201 -31z"/>
<path d="M85870 58565 c0 -3 28 -56 62 -118 33 -62 81 -149 105 -194 25 -46
49 -85 54 -88 l9 -6 0 7 c0 6 -30 63 -160 307 l-52 97 -9 0 c-5 0 -9 -2 -9 -5z"/>
<path d="M84476 58436 l-230 -103 -4 -13 -5 -13 17 6 c9 4 115 50 236 103
l220 97 0 13 c0 8 -1 14 -2 13 -2 0 -106 -47 -232 -103z"/>
<path d="M51758 58257 l-178 -132 0 -10 c0 -5 4 -10 10 -10 5 0 88 58 185 128
l175 129 0 14 c0 8 -3 14 -7 13 -5 0 -88 -60 -185 -132z"/>
<path d="M83910 58159 l-325 -118 -280 -70 c-154 -38 -351 -86 -438 -106 -87
-19 -179 -44 -205 -54 l-47 -19 -175 -27 -175 -28 -9 -8 c-5 -5 -7 -11 -5 -14
3 -2 86 9 185 25 l179 29 60 21 c33 11 150 41 260 66 110 24 292 67 405 95
l205 51 190 68 c105 37 268 96 362 130 l173 62 -6 9 c-3 5 -11 9 -17 8 -7 0
-158 -54 -337 -120z"/>
<path d="M91790 58114 c1 -11 340 -247 346 -241 3 3 -68 55 -158 117 -90 62
-169 117 -175 123 l-13 9 0 -8z"/>
<path d="M82845 57909 c-320 -82 -330 -84 -700 -134 -181 -25 -524 -72 -762
-105 l-432 -59 -17 -9 -17 -9 11 -7 10 -6 49 10 c26 5 221 32 433 60 1120 148
1142 151 1241 184 24 8 118 33 209 56 91 23 182 45 203 51 l37 10 0 9 0 10
-17 -1 c-10 -1 -121 -27 -248 -60z"/>
<path d="M54835 57669 c-17 -48 -95 -362 -91 -366 7 -8 8 -5 61 196 25 95 44
176 41 179 -3 3 -8 -1 -11 -9z"/>
<path d="M64131 57575 c-1 -11 18 -114 41 -230 l43 -210 2 20 c1 11 -17 115
-41 230 -24 116 -44 201 -45 190z"/>
<path d="M64084 57563 c3 -10 44 -205 91 -433 47 -228 90 -424 96 -435 l10
-20 -4 20 c-2 11 -44 215 -93 452 l-89 433 -8 0 -8 0 5 -17z"/>
<path d="M90936 57434 c-49 -58 -76 -113 -131 -275 -47 -138 -50 -149 -37
-149 l8 0 33 103 c19 56 49 137 68 181 l33 78 40 45 c38 44 49 63 33 63 -5 -1
-25 -21 -47 -46z"/>
<path d="M48080 56970 l0 -10 13 0 c8 0 94 -38 192 -85 97 -47 182 -84 187
-83 l10 4 -193 92 c-107 51 -197 92 -201 92 -5 0 -8 -4 -8 -10z"/>
<path d="M84445 56611 c6 -5 60 -28 120 -51 128 -48 147 -59 198 -114 l37 -41
0 11 c0 6 -20 31 -45 57 l-46 46 -57 21 c-31 12 -93 35 -137 52 l-80 29 10
-10z"/>
<path d="M90080 56018 c-96 -83 -176 -155 -178 -159 l-4 -9 10 0 c7 0 292 240
350 295 l14 13 -9 5 -8 5 -175 -150z"/>
<path d="M86013 55971 c-100 -53 -180 -97 -178 -99 3 -3 351 173 364 185 2 1
2 5 0 6 -2 2 -86 -39 -186 -92z"/>
<path d="M63773 56004 c-28 -30 -28 -34 -3 -34 l19 0 11 19 c23 44 8 52 -27
15z"/>
<path d="M63078 55871 c-312 -64 -570 -120 -574 -124 l-7 -7 24 0 c13 0 276
52 583 115 308 63 563 115 568 115 4 0 8 5 8 10 l0 10 -17 -1 c-10 -1 -273
-54 -585 -118z"/>
<path d="M51160 55528 c-179 -205 -207 -238 -197 -238 5 0 277 307 375 423
l15 17 -9 -1 c-5 0 -88 -90 -184 -201z"/>
<path d="M25789 55533 c-51 -76 -112 -162 -136 -191 l-43 -54 7 -10 6 -11 11
14 c6 8 32 42 57 74 25 33 82 115 127 182 l82 122 -10 6 -9 6 -92 -138z"/>
<path d="M26031 55627 c87 -66 425 -304 462 -326 l37 -23 0 9 c0 5 -24 23 -52
40 -29 17 -147 99 -262 182 -115 83 -213 151 -219 151 -5 0 10 -15 34 -33z"/>
<path d="M51107 55276 l-117 -13 -8 -8 -7 -8 55 8 c30 4 134 11 230 15 l175 7
-61 1 c-34 1 -81 4 -105 6 l-44 4 -118 -12z"/>
<path d="M53180 55233 c0 -16 12 -88 27 -161 l26 -134 -10 -6 c-5 -4 -27 -36
-48 -72 -22 -36 -143 -222 -270 -415 -262 -397 -248 -375 -241 -375 8 0 493
728 534 802 18 31 37 58 43 60 l11 4 -26 128 c-14 71 -26 144 -26 163 l0 33
-10 0 -10 0 0 -27z"/>
<path d="M50828 55212 l-68 -15 0 -8 0 -7 61 14 c34 8 69 19 78 24 20 12 12
11 -71 -8z"/>
<path d="M73350 55121 c0 -55 76 -191 168 -298 l44 -53 9 6 10 5 -33 41 c-76
93 -112 147 -144 216 -19 40 -34 80 -34 88 l0 14 -10 0 -10 0 0 -19z"/>
<path d="M12145 55056 l-110 -32 -107 -59 c-60 -32 -106 -60 -104 -63 3 -2 56
23 118 56 l113 61 100 27 c55 15 104 31 110 35 l9 9 -9 -1 c-6 0 -59 -15 -120
-33z"/>
<path d="M52125 54742 l-140 -216 -137 -175 c-75 -97 -135 -178 -132 -180 2
-2 6 -2 7 0 2 2 62 78 133 169 l130 165 133 205 c74 113 141 215 149 228 l14
22 -8 0 c-5 -1 -72 -98 -149 -218z"/>
<path d="M53285 54930 c4 -14 9 -32 11 -41 l5 -16 -137 -206 c-75 -114 -135
-209 -132 -212 2 -2 68 92 146 211 l142 215 -21 37 -20 37 6 -25z"/>
<path d="M52245 54732 c-60 -92 -183 -265 -273 -385 -90 -121 -166 -225 -169
-233 l-5 -14 6 0 c22 0 568 781 555 794 -2 2 -53 -71 -114 -162z"/>
<path d="M88349 54474 l-194 -105 -15 9 c-9 5 -30 13 -47 16 l-32 7 -21 -11
-22 -12 7 -6 c3 -3 23 -5 44 -3 l38 2 16 -15 c9 -9 18 -16 20 -16 6 0 408 218
414 224 3 2 0 6 -5 9 l-8 6 -195 -105z"/>
<path d="M52960 54473 c0 -10 551 -366 557 -360 2 3 -99 71 -224 152 -331 215
-333 216 -333 208z"/>
<path d="M54873 54063 c-12 -37 -35 -114 -52 -170 l-31 -101 -68 -44 c-37 -24
-130 -72 -205 -107 -75 -35 -137 -68 -137 -72 l0 -8 165 81 166 80 17 -13 c9
-7 32 -26 50 -43 17 -16 32 -26 32 -21 0 4 -19 26 -42 48 l-43 39 20 14 c11 7
28 19 38 26 l17 13 50 164 c28 91 49 169 47 174 -1 5 -12 -22 -24 -60z"/>
<path d="M13316 53721 c-64 -94 -116 -176 -116 -183 l0 -12 14 14 c7 8 62 86
121 173 l107 157 13 0 13 0 178 -144 179 -144 8 5 9 5 -9 8 c-4 5 -87 72 -183
149 l-175 141 -22 0 -22 0 -115 -169z"/>
<path d="M67173 53767 l-53 -10 0 -9 0 -8 23 5 c12 3 41 9 64 14 l42 9 5 -17
c3 -9 15 -71 27 -138 l23 -123 9 0 9 0 -5 13 c-2 6 -15 72 -28 145 l-23 132
-21 -1 c-11 -1 -44 -6 -72 -12z"/>
<path d="M55421 53432 c-100 -175 -171 -305 -169 -308 10 -9 35 28 127 190
l103 178 -9 9 -8 8 -44 -77z"/>
<path d="M11296 53492 l-5 -8 139 -139 139 -139 8 7 7 7 -45 48 c-103 110
-224 232 -231 232 -4 0 -9 -4 -12 -8z"/>
<path d="M52410 53480 l-15 -10 17 0 c9 0 20 5 23 10 l6 10 -8 0 c-4 0 -15 -5
-23 -10z"/>
<path d="M52007 53473 l-6 -9 55 -63 c30 -35 70 -87 89 -117 l35 -54 10 0 c5
0 10 3 10 6 0 11 -101 149 -144 197 l-44 49 -5 -9z"/>
<path d="M51789 53406 c-88 -33 -164 -74 -155 -83 3 -3 18 4 34 16 16 11 69
35 118 52 94 34 100 37 93 43 -2 2 -43 -10 -90 -28z"/>
<path d="M54730 53375 c0 -6 7 -21 16 -33 l16 -23 151 -101 152 -102 59 -18
c33 -10 64 -17 70 -15 l11 4 -65 19 -65 20 -151 101 -151 101 -21 29 -21 28
-1 -10z"/>
<path d="M52228 53223 l13 -5 6 6 6 6 -19 -1 -19 -1 13 -5z"/>
<path d="M34957 53144 c-3 -4 -41 -15 -83 -25 -77 -18 -92 -24 -82 -34 5 -6
121 19 163 35 l25 10 0 10 c0 11 -13 13 -23 4z"/>
<path d="M55211 53079 l-20 -22 -7 -46 -6 -46 -130 -252 -130 -253 -58 -72
-58 -73 -43 -31 c-24 -17 -114 -64 -199 -105 -180 -85 -166 -77 -154 -88 l9
-9 160 77 c88 42 178 89 201 104 l41 28 62 76 62 76 134 268 135 268 0 31 0
30 20 20 c21 21 26 40 10 40 -5 0 -18 -10 -29 -21z"/>
<path d="M55414 53088 l-7 -11 11 7 c12 7 16 16 8 16 -3 0 -8 -5 -12 -12z"/>
<path d="M51020 52981 c-8 -4 -82 -43 -163 -85 -82 -43 -146 -80 -144 -82 4
-4 324 159 336 171 7 8 -13 5 -29 -4z"/>
<path d="M51456 52889 l-6 -31 -90 -41 c-49 -23 -90 -45 -90 -50 l0 -7 92 46
93 47 12 16 c7 9 13 24 13 34 l0 17 -9 0 -8 0 -7 -31z"/>
<path d="M51437 52784 c-76 -42 -136 -78 -134 -81 5 -4 287 146 287 153 0 10
-24 -1 -153 -72z"/>
<path d="M77735 52775 l-190 -73 5 -9 c6 -10 -5 -14 213 68 l187 72 0 8 c0 16
-21 9 -215 -66z"/>
<path d="M12734 52782 c-18 -26 -64 -93 -103 -149 l-72 -103 13 0 13 1 80 116
c44 63 88 128 98 143 l18 28 -8 5 -8 5 -31 -46z"/>
<path d="M84171 52785 c-1 -22 114 -453 123 -463 l6 -5 0 9 c-1 22 -129 477
-129 459z"/>
<path d="M52800 52761 c0 -5 5 -13 10 -16 l10 -6 0 10 c0 5 -4 13 -10 16 l-10
6 0 -10z"/>
<path d="M48380 52736 l0 -14 30 -12 31 -13 6 7 6 6 -18 20 -18 20 -19 0 -18
0 0 -14z"/>
<path d="M52740 52704 c0 -15 184 -394 191 -394 7 0 -175 387 -187 399 -2 2
-4 0 -4 -5z"/>
<path d="M64623 52662 c-101 -20 -183 -39 -183 -42 l0 -7 196 38 c109 21 202
40 208 43 l11 4 -25 0 c-14 0 -107 -16 -207 -36z"/>
<path d="M64348 52643 c6 -2 18 -2 25 0 l12 5 -25 0 -25 0 13 -5z"/>
<path d="M56430 52626 l0 -13 420 -172 c231 -94 425 -172 431 -174 6 -1 13 3
15 8 l4 10 -417 170 c-229 94 -425 173 -435 177 l-18 7 0 -13z"/>
<path d="M48477 52557 l-5 -14 9 -14 9 -14 10 15 c5 8 10 21 10 28 l0 12 -14
0 -14 0 -5 -13z"/>
<path d="M50780 52549 l0 -10 10 6 c6 3 10 8 10 11 0 2 -4 4 -10 4 -5 0 -10
-5 -10 -11z"/>
<path d="M48270 52476 c0 -8 5 -18 10 -21 l10 -6 10 6 11 7 -12 14 c-6 8 -15
14 -20 14 l-9 0 0 -14z"/>
<path d="M48397 52482 l-18 -4 4 -11 c5 -15 19 -18 37 -7 l15 9 -10 9 -10 9
-18 -5z"/>
<path d="M53022 52341 c16 -43 355 -731 360 -731 4 0 -31 78 -76 173 -229 474
-275 567 -281 567 -4 0 -5 -4 -3 -9z"/>
<path d="M89010 52110 l0 -10 20 0 20 0 0 10 0 10 -20 0 -20 0 0 -10z"/>
<path d="M49518 52014 c24 -35 50 -59 57 -52 3 2 -14 22 -37 44 l-41 39 21
-31z"/>
<path d="M90454 51829 l-7 -12 16 -12 16 -11 183 -23 c101 -12 191 -25 201
-27 l17 -5 0 15 0 16 -12 0 c-7 0 -95 11 -196 24 l-183 24 -14 12 -13 11 -8
-12z"/>
<path d="M18510 51788 c0 -24 -45 -224 -72 -317 l-32 -113 -38 5 -38 5 -185
78 -185 77 -7 -6 c-3 -4 -4 -9 -2 -10 13 -11 380 -158 407 -163 l32 -6 0 -15
0 -15 11 4 12 4 33 109 c19 61 45 164 58 230 l24 120 -9 10 c-5 5 -9 6 -9 3z"/>
<path d="M53778 51664 l-188 -94 0 -10 c0 -6 2 -10 5 -10 5 0 367 180 374 185
1 2 1 8 0 13 l-4 10 -187 -94z"/>
<path d="M78381 51483 c6 -15 42 -115 80 -222 38 -107 71 -196 73 -198 2 -2 6
-1 9 4 l5 8 -77 214 -76 214 -13 5 -12 4 11 -29z"/>
<path d="M17935 51461 l-5 -9 163 -67 162 -68 120 -35 120 -35 413 -4 412 -3
0 10 0 10 -142 1 c-79 0 -269 4 -423 9 l-280 8 -110 30 -110 29 -157 66 -158
66 -5 -8z"/>
<path d="M45854 51364 c3 -9 6 -17 6 -20 0 -2 7 -1 15 2 l16 6 -12 14 c-6 8
-16 14 -21 14 l-10 0 6 -16z"/>
<path d="M18367 51260 c-3 -8 -13 -49 -22 -91 l-16 -76 -34 -88 c-19 -48 -58
-131 -86 -184 l-52 -96 -60 -75 c-33 -41 -67 -83 -75 -92 l-15 -18 11 0 11 0
67 88 68 87 63 113 63 113 29 77 c16 42 37 112 46 155 l16 78 -4 12 -5 12 -5
-15z"/>
<path d="M35810 50939 c0 -8 17 -119 37 -246 l37 -233 8 0 8 0 -5 23 c-3 12
-21 121 -40 241 -31 195 -45 260 -45 215z"/>
<path d="M5720 50881 c0 -6 3 -11 8 -11 4 0 95 -11 202 -25 107 -14 205 -25
218 -25 l22 0 0 8 0 8 -192 23 c-106 13 -208 26 -225 28 l-33 6 0 -12z"/>
<path d="M33541 50835 c-1 -11 56 -383 65 -424 3 -13 7 -21 10 -19 6 7 -55
408 -66 433 -5 11 -9 16 -9 10z"/>
<path d="M7178 50786 c-72 -11 -98 -20 -87 -30 2 -2 45 2 94 10 l90 14 97 0
97 0 188 -20 c103 -11 229 -27 278 -34 87 -13 106 -13 92 1 -9 9 -219 39 -397
58 l-145 15 -115 -1 -115 -1 -77 -12z"/>
<path d="M7300 50744 c-19 -2 -72 -9 -117 -15 l-83 -11 0 -10 0 -11 38 7 c20
4 93 11 162 16 l125 10 68 -6 67 -7 0 10 0 10 -61 7 c-61 6 -130 6 -199 0z"/>
<path d="M14300 50306 c0 -6 169 -129 195 -144 28 -14 186 -54 192 -48 3 3
-15 10 -38 16 -24 7 -69 20 -100 29 l-55 18 -91 66 c-84 62 -103 74 -103 63z"/>
<path d="M34313 50076 c3 -7 9 -34 12 -60 l7 -46 11 -7 10 -6 -7 52 c-8 62
-15 81 -28 81 l-10 0 5 -14z"/>
<path d="M34170 49930 l0 -10 55 0 55 0 0 10 0 10 -55 0 -55 0 0 -10z"/>
<path d="M75795 49743 c3 -32 12 -127 19 -211 12 -139 19 -173 30 -161 2 2 -5
96 -15 209 -10 113 -18 208 -19 213 0 4 -5 7 -10 7 l-11 0 6 -57z"/>
<path d="M64326 49058 l-16 -22 0 -21 0 -21 14 -20 15 -19 -6 42 -6 43 13 15
c7 9 10 18 7 21 -3 3 -12 -5 -21 -18z"/>
<path d="M81191 48811 l-95 -46 -4 -13 -4 -13 103 52 c117 58 113 55 102 62
l-8 4 -94 -46z"/>
<path d="M91439 48708 c-68 -78 -153 -178 -188 -223 -35 -44 -124 -141 -198
-216 -73 -75 -133 -141 -133 -145 0 -5 54 45 121 111 l121 120 81 100 c73 91
242 288 305 357 14 15 23 30 20 33 -2 3 -61 -59 -129 -137z"/>
<path d="M81018 48732 c-100 -52 -389 -216 -394 -224 -18 -28 25 -9 230 105
l226 125 -14 5 -14 6 -34 -17z"/>
<path d="M30555 48580 c3 -63 8 -186 11 -272 l7 -158 9 0 9 0 -5 18 c-2 9 -8
108 -11 220 -4 112 -11 227 -16 255 l-8 52 4 -115z"/>
<path d="M34098 48616 l-206 -11 -8 -8 -8 -8 89 6 c50 3 170 10 269 15 98 5
181 12 184 15 7 6 -61 5 -320 -9z"/>
<path d="M34480 48590 l0 -10 25 0 25 0 0 10 0 10 -25 0 -25 0 0 -10z"/>
<path d="M33924 48360 l30 -220 9 0 8 0 -5 18 c-2 9 -17 108 -32 220 -16 111
-31 202 -34 202 -3 0 8 -99 24 -220z"/>
<path d="M33854 48550 c3 -14 17 -114 32 -222 l27 -198 7 0 6 0 -30 214 -31
214 -8 9 -9 8 6 -25z"/>
<path d="M33275 48534 c-16 -2 -130 -8 -253 -15 -122 -6 -224 -15 -226 -18 -2
-3 5 -55 15 -116 10 -60 19 -113 19 -117 0 -5 4 -8 8 -8 l9 0 -13 60 c-6 32
-15 86 -19 118 l-7 59 174 6 c95 4 235 10 310 13 l137 7 -5 9 -5 8 -57 -2
c-31 0 -70 -2 -87 -4z"/>
<path d="M44537 48296 c-35 -30 -99 -92 -140 -137 l-76 -82 6 -10 6 -10 91 94
c50 52 116 115 146 140 l54 46 -11 6 -12 7 -64 -54z"/>
<path d="M41384 48296 l-6 -16 45 -313 c25 -171 48 -347 52 -390 3 -43 8 -84
11 -92 l6 -15 10 6 10 6 -7 36 c-4 20 -8 66 -11 102 -4 80 -90 679 -98 687
l-6 6 -6 -17z"/>
<path d="M67282 48298 l4 -12 585 -118 c1437 -290 2513 -509 2614 -532 61 -14
116 -25 123 -26 l12 0 0 13 0 12 -153 32 c-175 37 -3175 643 -3183 643 -3 0
-4 -5 -2 -12z"/>
<path d="M44286 48001 l-6 -9 24 -15 23 -16 15 -33 16 -33 7 -157 7 -158 10 0
10 0 -7 163 -7 162 -15 33 -15 32 -29 20 -28 20 -5 -9z"/>
<path d="M22230 47525 l0 -75 10 0 10 0 0 75 0 75 -10 0 -10 0 0 -75z"/>
<path d="M36868 47403 l-158 -4 0 -11 0 -11 38 7 c20 3 99 6 175 6 l137 0 0
10 0 10 -17 -2 c-10 -1 -89 -4 -175 -5z"/>
<path d="M22240 46885 l0 -15 68 0 67 -1 158 -38 158 -38 5 9 c3 5 4 11 3 12
-2 2 -82 22 -177 45 l-172 41 -55 0 -55 0 0 -15z"/>
<path d="M39706 46705 l5 -160 10 -39 c15 -56 19 -39 8 34 -5 36 -13 124 -18
195 l-9 130 4 -160z"/>
<path d="M22065 46720 c-60 -10 -129 -23 -152 -29 l-43 -12 0 -14 0 -15 28 11
c15 6 83 19 152 30 69 10 135 21 148 24 l22 5 0 10 0 10 -22 -1 c-13 -1 -72
-9 -133 -19z"/>
<path d="M82445 46684 c-44 -7 -101 -19 -126 -27 l-46 -14 -57 -43 c-49 -37
-68 -60 -50 -60 3 0 31 20 62 44 l57 43 90 21 c50 12 120 24 158 28 l67 7 0 8
0 9 -37 -1 c-21 -1 -74 -7 -118 -15z"/>
<path d="M81860 46397 c-202 -152 -407 -314 -503 -397 l-9 -8 9 -5 9 -6 155
127 c85 70 257 204 382 297 205 154 243 185 220 185 -5 0 -123 -87 -263 -193z"/>
<path d="M34535 46539 c-71 -3 -160 -7 -197 -8 l-68 -1 0 -16 0 -16 58 6 c31
3 132 8 224 12 l166 6 -5 14 -5 14 -22 -2 c-11 -1 -79 -5 -151 -9z"/>
<path d="M34786 46495 l6 -15 9 6 9 5 -5 10 c-4 5 -10 9 -15 9 l-9 0 5 -15z"/>
<path d="M30545 46390 c-66 -4 -148 -8 -182 -9 l-63 -1 0 -16 0 -16 148 6 c81
4 173 9 205 12 l58 6 -4 12 -4 11 -19 1 c-10 0 -73 -2 -139 -6z"/>
<path d="M27995 46264 c-110 -7 -203 -13 -207 -13 -5 -1 -8 -8 -8 -17 l0 -15
43 5 c23 3 101 8 172 11 72 3 165 8 208 12 l77 6 0 13 0 14 -42 -1 c-24 -1
-133 -8 -243 -15z"/>
<path d="M93091 46095 l15 -15 75 -13 76 -14 24 -16 23 -17 52 0 51 0 62 32
c33 17 61 35 61 40 l0 8 -69 -35 -68 -35 -36 0 -36 0 -35 21 -35 20 -68 10
-68 10 -9 9 c-6 6 -15 10 -20 10 l-10 0 15 -15z"/>
<path d="M81231 45428 c47 -178 68 -245 112 -363 44 -120 44 -121 53 -112 l6
6 -52 148 c-28 81 -68 211 -89 287 l-38 140 -11 4 -11 3 30 -113z"/>
<path d="M81164 44838 c7 -24 37 -121 67 -215 l54 -173 8 0 c13 0 7 23 -57
224 l-63 200 -11 4 -11 3 13 -43z"/>
<path d="M48857 44847 l-18 -22 13 -3 13 -3 28 -52 c16 -29 71 -136 123 -239
l94 -188 35 17 c19 9 35 20 35 25 l0 9 -31 -16 c-17 -9 -32 -15 -34 -13 -2 2
-32 62 -67 133 -35 72 -86 170 -113 219 l-49 90 -5 33 -6 32 -18 -22z"/>
<path d="M87732 44199 l-43 -102 29 -31 c16 -17 50 -64 76 -105 l47 -73 6 6 6
6 -63 95 c-34 52 -67 95 -71 95 -15 0 -10 19 27 105 l36 84 -4 11 -3 11 -43
-102z"/>
<path d="M40512 43357 c-83 -102 -222 -297 -213 -297 5 0 42 46 82 102 40 56
101 137 136 180 35 43 60 78 55 78 -5 0 -32 -28 -60 -63z"/>
<path d="M32414 43217 c-95 -67 -197 -144 -228 -170 l-56 -49 -83 -101 c-46
-56 -100 -123 -120 -149 l-38 -46 9 -6 8 -5 99 122 c54 67 132 154 172 193
l74 71 174 123 c155 109 194 141 168 139 -5 0 -85 -55 -179 -122z"/>
<path d="M82110 43044 c0 -12 106 -214 121 -228 l9 -10 0 10 c0 13 -130 241
-130 228z"/>
<path d="M42024 42955 l-19 -14 11 -1 c5 0 19 7 30 15 l19 14 -11 1 c-5 0 -19
-7 -30 -15z"/>
<path d="M68925 42108 c-115 -16 -211 -31 -214 -34 -2 -2 -2 -6 1 -9 l6 -6
198 26 c110 15 208 30 218 34 l20 7 -10 6 -9 5 -210 -29z"/>
<path d="M96610 41930 c0 -6 63 -94 139 -196 l139 -185 6 9 6 9 -140 187 c-77
102 -142 186 -145 186 -3 0 -5 -5 -5 -10z"/>
<path d="M57630 41374 c-30 -25 -65 -50 -78 -55 l-23 -9 -142 -1 -142 -2 95
-9 95 -9 56 4 56 5 29 16 c16 8 49 33 74 55 l45 39 -6 6 -5 6 -54 -46z"/>
<path d="M45646 40759 c-2 -8 -9 -75 -14 -149 l-11 -135 8 -40 c5 -22 18 -61
29 -87 l21 -48 11 0 10 0 -30 60 -30 59 0 78 c0 43 5 121 10 173 8 87 7 123
-4 89z"/>
<path d="M98095 40599 c-55 -39 -117 -87 -138 -107 l-38 -37 -20 -44 c-23 -52
-23 -51 -5 -51 l14 0 12 35 11 35 62 56 c34 30 99 81 144 111 l82 56 -5 9 c-9
14 -15 10 -119 -63z"/>
<path d="M84816 39970 c4 -8 49 -76 99 -150 51 -74 106 -161 124 -192 18 -32
37 -61 43 -64 l11 -7 -33 59 c-44 79 -207 324 -233 349 l-20 20 9 -15z"/>
<path d="M85050 39537 c0 -6 245 -413 256 -426 2 -2 6 -2 8 0 4 4 -241 409
-256 425 l-8 7 0 -6z"/>
<path d="M55576 38804 c-4 -9 -5 -18 -4 -19 2 -1 76 -57 165 -124 l162 -122
138 -81 c76 -44 150 -84 164 -88 14 -4 140 -78 279 -164 l253 -157 9 13 c4 7
7 16 5 20 -3 11 -486 308 -542 333 -27 12 -106 56 -175 96 l-125 74 -156 118
c-85 64 -158 117 -161 117 -3 0 -9 -7 -12 -16z"/>
<path d="M60223 38358 c-28 -41 -82 -107 -120 -147 -37 -41 -74 -82 -81 -92
l-13 -19 9 0 c11 0 163 174 221 253 l42 58 -3 10 -3 10 -52 -73z"/>
<path d="M89040 38229 c-91 -60 -167 -115 -169 -121 l-4 -12 29 19 c221 144
314 209 314 216 0 12 18 22 -170 -102z"/>
<path d="M51301 38198 c-68 -296 -73 -324 -57 -307 2 2 24 93 48 202 l45 197
-7 0 -8 0 -21 -92z"/>
<path d="M95646 38115 c-103 -62 -193 -118 -198 -123 l-10 -10 9 -5 10 -6 194
116 c225 135 205 121 193 132 l-9 9 -189 -113z"/>
<path d="M60410 37699 c141 -133 230 -212 234 -208 5 5 -301 289 -311 289 -4
-1 30 -37 77 -81z"/>
<path d="M92803 37611 l6 -24 -10 -20 -11 -19 14 4 13 5 3 27 4 28 -13 12 -12
11 6 -24z"/>
<path d="M85200 37424 c0 -8 43 -77 154 -247 l78 -119 5 6 6 5 -118 181 c-110
169 -125 190 -125 174z"/>
<path d="M60243 37280 c-24 -11 -60 -22 -80 -25 -51 -9 -254 -65 -273 -76
l-15 -8 14 -1 c7 0 59 13 115 29 55 16 117 32 136 36 48 9 150 48 150 57 0 10
4 11 -47 -12z"/>
<path d="M89793 37156 c-101 -61 -183 -115 -183 -120 l0 -8 17 7 c18 6 341
202 356 216 l9 7 -9 5 -8 5 -182 -112z"/>
<path d="M62540 37167 c0 -5 19 -35 43 -69 l42 -61 130 -86 c72 -48 136 -91
143 -95 l12 -7 0 8 c0 4 -59 46 -131 93 l-132 85 -45 60 c-25 33 -49 64 -54
70 l-8 9 0 -7z"/>
<path d="M40365 36562 c-219 -45 -232 -49 -224 -56 6 -5 446 88 455 97 l7 7
-9 -1 c-5 0 -108 -22 -229 -47z"/>
<path d="M40020 36458 c-47 -5 -104 -11 -127 -14 l-43 -5 0 -80 0 -79 8 0 7 0
-3 75 -4 75 14 0 c46 0 231 22 250 30 l23 9 -20 -1 c-11 0 -58 -5 -105 -10z"/>
<path d="M39814 36253 c3 -16 8 -124 12 -240 l6 -213 10 0 10 0 -6 28 c-3 15
-8 123 -12 240 l-6 212 -10 0 -10 0 6 -27z"/>
<path d="M54440 35724 c0 -19 42 -330 46 -343 2 -8 6 -12 8 -10 6 6 -41 349
-48 357 l-6 5 0 -9z"/>
<path d="M84389 35272 c-13 -10 -150 -99 -304 -197 -428 -273 -447 -286 -442
-291 2 -2 171 103 375 233 204 131 379 243 389 249 l18 12 -6 6 -6 6 -24 -18z"/>
<path d="M81807 34795 c23 -27 62 -70 88 -95 26 -25 77 -85 114 -135 38 -49
79 -99 92 -110 l24 -20 -21 25 c-11 14 -48 63 -82 110 l-61 85 -97 95 -97 95
40 -50z"/>
<path d="M60679 34424 c-6 -16 -22 -58 -35 -94 l-25 -65 -18 -127 -17 -128 6
0 7 0 17 126 17 127 36 89 35 89 -5 6 -6 6 -12 -29z"/>
<path d="M55455 34225 c-335 -52 -641 -97 -680 -101 -38 -4 -79 -11 -90 -15
l-20 -9 60 6 c90 9 1388 203 1393 209 12 11 -81 -1 -663 -90z"/>
<path d="M82670 34149 c-107 -72 -187 -129 -178 -126 20 7 378 245 378 252 0
8 0 9 -200 -126z"/>
<path d="M85004 33959 c-214 -133 -393 -245 -398 -250 l-10 -9 6 -5 5 -5 399
246 c219 136 400 248 402 249 2 2 -1 5 -6 9 l-9 5 -389 -240z"/>
<path d="M83709 33141 c-30 -21 -207 -142 -394 -270 -187 -128 -342 -237 -344
-243 l-4 -11 16 6 c13 5 779 527 795 542 2 2 -1 6 -6 9 l-9 6 -54 -39z"/>
<path d="M79780 32542 c0 -11 60 -62 73 -62 l11 0 -34 35 c-33 34 -50 43 -50
27z"/>
<path d="M73548 32533 c6 -2 18 -2 25 0 l12 5 -25 0 -25 0 13 -5z"/>
<path d="M73463 32523 c9 -2 23 -2 30 0 l12 5 -30 0 -30 0 18 -5z"/>
<path d="M73373 32513 c9 -2 25 -2 35 0 l17 5 -35 0 -35 0 18 -5z"/>
<path d="M98818 31737 l-27 -11 -10 -29 -11 -29 29 31 29 31 29 0 28 0 -15 10
c-17 11 -16 11 -52 -3z"/>
<path d="M98907 31692 c78 -120 270 -392 276 -392 4 0 -33 60 -83 133 -51 72
-115 167 -144 209 -28 43 -55 78 -59 78 l-9 0 19 -28z"/>
<path d="M80566 30945 l-167 -123 9 -6 8 -5 160 115 c87 64 163 119 167 124
l9 8 -9 5 -10 6 -167 -124z"/>
<path d="M79992 30513 l-73 -56 9 -9 10 -10 73 57 c41 32 73 60 72 63 -4 16
-23 7 -91 -45z"/>
<path d="M79859 30492 c5 -10 18 -25 27 -33 l18 -14 -19 33 c-11 17 -23 32
-28 32 l-8 0 10 -18z"/>
<path d="M93735 28919 c-104 -77 -192 -145 -194 -150 -2 -6 48 26 110 72 304
221 304 221 282 218 -5 0 -93 -63 -198 -140z"/>
<path d="M95693 27061 c-94 -69 -260 -191 -367 -270 -108 -80 -196 -148 -196
-152 0 -5 89 56 198 136 108 79 229 167 267 194 39 28 119 86 178 130 l108 79
-8 5 -8 5 -172 -127z"/>
<path d="M90495 24839 c100 -11 338 -46 373 -55 l22 -6 0 9 0 9 -147 23 -148
23 -95 3 -95 4 90 -10z"/>
<path d="M22597 21078 l-56 -123 -19 -97 -19 -98 12 0 13 0 17 93 17 92 54
119 55 119 -9 9 -8 8 -57 -122z"/>
<path d="M87080 20482 c0 -8 470 -501 579 -606 l51 -50 5 6 6 6 -189 188
c-104 104 -248 251 -320 327 -73 76 -132 134 -132 129z"/>
<path d="M22536 20292 c-2 -4 46 -209 106 -455 l111 -447 13 0 13 0 -4 13 c-2
6 -29 118 -60 247 -31 129 -78 328 -106 443 l-51 207 -9 0 c-4 0 -10 -3 -13
-8z"/>
<path d="M19956 14461 l-6 -9 16 -144 17 -143 9 -10 10 -10 -6 30 c-3 17 -10
75 -16 130 -6 55 -13 112 -16 127 l-5 27 58 4 58 3 -57 2 -57 2 -5 -9z"/>
<path d="M97447 11743 l-5 -8 49 -38 c27 -21 49 -37 49 -35 0 2 -20 23 -44 47
l-44 43 -5 -9z"/>
<path d="M25906 4942 c-3 -5 -93 -49 -200 -97 l-194 -89 5 -12 5 -13 41 19
c120 52 335 153 355 166 12 8 22 19 22 24 l0 10 -14 0 c-8 0 -17 -4 -20 -8z"/>
<path d="M8440 1865 l0 -15 78 0 c42 0 146 -5 230 -11 l153 -12 6 7 6 6 -6 6
c-7 7 -337 33 -419 34 l-48 0 0 -15z"/>
<path d="M9450 1747 l0 -13 183 -13 c100 -7 203 -15 230 -18 l47 -6 0 17 c0 9
-3 16 -7 16 -5 0 -89 7 -188 15 -99 8 -199 15 -222 15 l-43 0 0 -13z"/>
<path d="M7365 1679 c-71 -16 -172 -41 -222 -56 l-93 -28 0 -12 c0 -16 -8 -18
101 16 52 16 154 41 227 57 l132 27 0 14 c0 16 12 17 -145 -18z"/>
<path d="M10790 1701 l0 -10 43 -5 c23 -3 127 -11 230 -17 l188 -11 6 6 6 6
-6 6 c-6 6 -347 33 -429 34 l-38 0 0 -9z"/>
<path d="M5551 351 l-165 -157 13 -8 13 -8 160 158 c88 88 160 161 160 164 -2
19 -37 -10 -181 -149z"/>
</g>
</svg>
