<?xml version="1.0" standalone="no"?>
<!DOCTYPE svg PUBLIC "-//W3C//DTD SVG 20010904//EN"
 "http://www.w3.org/TR/2001/REC-SVG-20010904/DTD/svg10.dtd">
<svg version="1.0" xmlns="http://www.w3.org/2000/svg"
 width="7500.000000pt" height="7500.000000pt" viewBox="0 0 7500.000000 7500.000000"
 preserveAspectRatio="xMidYMid meet">
<metadata>
Created by potrace 1.16, written by Peter Selinger 2001-2019
</metadata>
<g transform="translate(0.000000,7500.000000) scale(0.075000,-0.075000)"
fill="#000000" stroke="none">
<path d="M29566 90442 c5 -5 56 -28 114 -50 l105 -42 89 -20 c50 -11 97 -19
105 -18 l16 3 -101 23 -101 23 -114 44 c-120 47 -129 50 -113 37z"/>
<path d="M79446 88331 c5 -6 79 -34 164 -65 85 -30 174 -61 198 -70 l44 -16
-4 12 -4 11 -193 68 c-106 38 -198 69 -204 69 l-11 0 10 -9z"/>
<path d="M79386 88303 c-2 -10 -21 -116 -41 -236 l-37 -218 6 -6 c3 -4 8 -4
10 -2 2 2 21 111 43 242 l40 237 -8 0 c-4 0 -10 -8 -13 -17z"/>
<path d="M80670 87843 c0 -10 411 -155 418 -148 11 11 -18 24 -203 89 -189 66
-215 73 -215 59z"/>
<path d="M4790 75100 l0 -10 23 -5 c12 -3 105 -18 207 -35 102 -17 195 -32
208 -35 l22 -5 0 15 c0 8 -2 15 -5 15 -3 0 -102 16 -221 35 -242 39 -234 38
-234 25z"/>
<path d="M68694 69377 c-54 -56 -121 -126 -149 -154 l-49 -53 7 -7 8 -7 90 90
c50 49 117 119 150 156 l60 66 -9 6 -8 5 -100 -102z"/>
<path d="M41270 63574 c0 -9 233 -273 254 -286 26 -17 24 -6 -3 20 -16 15 -75
79 -131 142 -57 63 -107 119 -111 125 l-9 9 0 -10z"/>
<path d="M41990 63344 c0 -12 111 -146 215 -259 55 -60 147 -163 204 -228 57
-65 106 -116 108 -113 5 4 -157 193 -347 405 -52 59 -111 127 -130 153 -32 43
-50 58 -50 42z"/>
<path d="M43090 63228 c-74 -65 -137 -124 -139 -130 -2 -7 45 30 104 82 59 52
124 109 144 127 20 17 34 33 31 36 -3 2 -66 -49 -140 -115z"/>
<path d="M57586 61742 c16 -15 164 -76 169 -70 6 5 -150 78 -168 78 l-11 0 10
-8z"/>
<path d="M62057 59436 c-240 -51 -440 -96 -445 -100 l-7 -8 25 6 c14 3 210 44
435 91 352 73 482 104 440 104 -5 -1 -207 -42 -448 -93z"/>
<path d="M85640 58918 c0 -18 174 -377 183 -378 16 0 4 31 -80 207 -80 167
-103 204 -103 171z"/>
<path d="M63900 58470 c0 -20 90 -433 95 -439 3 -2 5 2 5 10 0 23 -88 430 -94
437 l-6 5 0 -13z"/>
<path d="M25991 55656 c2 -2 94 -68 204 -148 170 -122 255 -181 323 -222 l12
-7 0 8 c0 4 -24 22 -53 40 -29 17 -146 99 -261 182 -115 83 -214 151 -219 151
-6 0 -8 -2 -6 -4z"/>
<path d="M48544 54758 c111 -230 155 -318 161 -318 3 0 0 12 -8 28 -7 15 -60
125 -118 244 -57 120 -107 218 -111 218 -4 0 31 -78 76 -172z"/>
<path d="M54794 52191 c-9 -10 -348 -185 -374 -193 l-15 -5 11 -13 12 -12 188
97 c104 53 192 99 196 103 l7 7 -7 13 -8 12 -10 -9z"/>
<path d="M26350 50972 l0 -10 58 -6 c31 -3 135 -8 230 -12 l172 -6 0 10 0 10
-172 6 c-95 4 -199 9 -230 12 l-58 6 0 -10z"/>
<path d="M27000 50941 l0 -9 63 -6 c108 -9 590 -27 595 -21 3 3 3 7 1 10 -3 2
-117 9 -254 14 -138 6 -285 13 -327 16 l-78 5 0 -9z"/>
<path d="M27790 50902 l0 -8 307 -12 c281 -11 325 -10 312 2 -5 6 -433 26
-540 26 l-79 0 0 -8z"/>
<path d="M35995 49609 l-6 -8 23 -6 c160 -37 573 -123 577 -120 11 11 -23 20
-281 76 -150 32 -281 61 -290 63 l-18 4 -5 -9z"/>
<path d="M40305 49075 c91 -240 115 -306 115 -317 0 -7 5 -20 11 -28 l10 -15
-7 35 c-8 45 -132 372 -145 385 l-10 10 26 -70z"/>
<path d="M37964 49073 c2 -10 20 -109 38 -220 l32 -203 9 0 8 0 -5 18 c-2 9
-20 108 -38 220 l-32 202 -9 0 -8 0 5 -17z"/>
<path d="M34375 48999 c3 -19 18 -114 34 -212 15 -97 31 -180 35 -184 l6 -6 6
6 6 6 -34 207 -33 207 -13 5 -13 4 6 -33z"/>
<path d="M41764 35677 l19 -14 -5 -26 -5 -27 9 0 9 0 -3 37 -3 38 -20 3 -20 4
19 -15z"/>
<path d="M85420 34972 c0 -12 183 -314 208 -345 9 -9 17 -15 20 -12 3 3 -2 13
-10 22 -9 10 -61 92 -117 182 -55 91 -101 160 -101 153z"/>
<path d="M98907 31692 c78 -120 270 -392 276 -392 4 0 -33 60 -83 133 -51 72
-115 167 -144 209 -28 43 -55 78 -59 78 l-9 0 19 -28z"/>
<path d="M87395 25990 l-5 -9 197 -156 197 -156 202 -115 c111 -63 208 -114
215 -114 l14 1 -19 14 c-10 8 -105 63 -210 122 l-191 108 -197 157 -197 157
-6 -9z"/>
<path d="M90495 24839 c50 -5 150 -19 223 -30 74 -11 136 -18 139 -16 11 12
-230 47 -352 52 l-100 4 90 -10z"/>
<path d="M87167 20324 c149 -158 193 -201 193 -190 0 10 -298 320 -313 325 -7
2 47 -58 120 -135z"/>
<path d="M92175 16350 c27 -27 51 -47 54 -45 6 7 -80 95 -93 95 l-10 0 49 -50z"/>
<path d="M98058 10834 l-7 -6 166 -154 166 -153 10 6 11 6 -31 26 c-26 22
-119 107 -279 253 l-30 28 -6 -6z"/>
</g>
</svg>
