<?xml version="1.0" standalone="no"?>
<!DOCTYPE svg PUBLIC "-//W3C//DTD SVG 20010904//EN"
 "http://www.w3.org/TR/2001/REC-SVG-20010904/DTD/svg10.dtd">
<svg version="1.0" xmlns="http://www.w3.org/2000/svg"
 width="7500.000000pt" height="7500.000000pt" viewBox="0 0 7500.000000 7500.000000"
 preserveAspectRatio="xMidYMid meet">
<metadata>
Created by potrace 1.16, written by Peter Selinger 2001-2019
</metadata>
<g transform="translate(0.000000,7500.000000) scale(0.075000,-0.075000)"
fill="#000000" stroke="none">
<path d="M84380 88739 l-75 -18 -115 -12 c-140 -14 -161 -24 -30 -15 l95 7
103 21 102 21 0 9 c0 4 -1 8 -2 7 -2 -1 -37 -9 -78 -20z"/>
<path d="M78505 88610 l-6 -10 26 -10 c42 -16 428 -150 431 -150 2 0 4 4 4 9
l0 9 -212 72 c-117 40 -218 77 -225 82 l-11 9 -7 -11z"/>
<path d="M79385 88298 c-2 -13 -39 -227 -81 -476 l-76 -453 6 -6 c3 -4 8 -4
10 -2 2 2 40 219 83 482 l80 477 -8 0 c-5 0 -11 -10 -14 -22z"/>
<path d="M88656 86634 l15 -55 -16 -82 c-8 -45 -24 -116 -35 -157 -10 -41 -17
-76 -15 -79 6 -5 9 4 39 123 15 54 29 122 32 151 l7 53 -13 51 -12 51 -8 0 -8
0 14 -56z"/>
<path d="M90201 84375 c3 -2 104 -32 224 -66 121 -34 227 -64 235 -67 l15 -5
-10 10 -10 11 -218 61 c-205 57 -247 67 -236 56z"/>
<path d="M94517 81999 c-65 -94 -117 -174 -115 -179 2 -7 170 226 231 321 l19
29 -9 0 c-4 -1 -61 -78 -126 -171z"/>
<path d="M95425 80319 c-55 -76 -106 -148 -114 -159 l-13 -20 9 0 c8 0 222
288 231 312 2 4 0 8 -5 8 -4 -1 -53 -64 -108 -141z"/>
<path d="M78915 80141 c-104 -76 -191 -144 -193 -150 l-4 -11 10 0 c13 0 387
273 391 285 7 25 -28 4 -204 -124z"/>
<path d="M74150 78004 c0 -4 38 -58 83 -118 l84 -111 48 -85 c55 -98 53 -95
61 -87 l7 6 -56 98 -55 98 -77 100 c-72 93 -95 118 -95 99z"/>
<path d="M74285 76520 c-28 -23 -100 -91 -162 -152 l-112 -112 6 -9 6 -9 106
104 c58 58 134 127 168 155 l62 51 -6 6 c-11 10 -17 7 -68 -34z"/>
<path d="M74690 76371 c0 -3 42 -28 93 -55 50 -27 141 -78 200 -113 l109 -64
10 3 9 3 -98 57 c-142 82 -323 177 -323 169z"/>
<path d="M36490 73269 c0 -8 4 -19 9 -24 5 -6 18 -37 29 -70 l20 -60 18 -137
18 -138 8 0 8 0 0 19 c0 11 -9 82 -20 158 l-20 138 -17 45 c-9 25 -24 54 -35
65 l-18 19 0 -15z"/>
<path d="M68947 69643 l-147 -154 6 -11 6 -10 40 39 c22 21 90 91 150 156
l111 118 -9 8 -9 8 -148 -154z"/>
<path d="M92395 66083 c3 -15 12 -82 20 -148 8 -66 25 -162 37 -212 l22 -93
12 0 12 0 -24 93 -23 93 -18 144 -18 143 -12 4 -13 5 5 -29z"/>
<path d="M33840 65052 l0 -20 43 -6 c23 -3 114 -13 202 -21 88 -8 172 -17 188
-20 l27 -4 0 19 0 20 -22 5 c-13 2 -95 11 -183 20 -88 8 -181 18 -207 21 l-48
6 0 -20z"/>
<path d="M2065 64895 c-132 -29 -289 -67 -350 -83 -60 -17 -138 -36 -172 -42
l-61 -12 5 -14 5 -14 37 6 c20 3 122 28 226 55 105 26 267 64 360 84 94 20
178 38 188 41 l17 5 0 15 c0 17 28 22 -255 -41z"/>
<path d="M37057 64571 l-5 -21 36 -10 c27 -8 331 -50 430 -60 1 0 2 11 2 24
l0 23 -107 12 c-122 13 -290 37 -326 46 l-24 6 -6 -20z"/>
<path d="M74751 64468 c-1 -35 -8 -138 -14 -230 l-12 -168 7 0 8 0 0 38 c0 20
7 120 15 222 l14 185 -8 8 -8 8 -2 -63z"/>
<path d="M59808 64278 c-57 -98 -79 -148 -109 -242 l-31 -100 -64 -121 -64
-122 -38 -16 c-20 -8 -75 -31 -122 -51 l-85 -36 21 0 22 0 107 48 107 47 64
120 64 120 34 110 35 110 46 84 c46 87 57 126 13 49z"/>
<path d="M40255 64160 c-22 -24 -13 -26 19 -5 l23 16 129 -16 c71 -8 150 -15
177 -15 l47 0 0 11 0 12 -36 -6 -37 -6 -116 14 c-64 8 -132 15 -152 15 l-36 0
-18 -20z"/>
<path d="M77270 63993 c0 -11 58 -56 98 -77 l33 -17 10 7 11 6 -49 28 c-27 16
-55 35 -62 44 -14 16 -41 22 -41 9z"/>
<path d="M2257 63694 l-6 -6 329 -289 c181 -159 332 -289 335 -289 3 0 5 4 5
9 0 7 -618 557 -645 573 l-12 7 -6 -5z"/>
<path d="M41197 63494 c-80 -69 -95 -84 -83 -84 3 0 42 32 87 70 45 39 82 70
84 68 13 -18 221 -246 233 -255 9 -7 20 -13 25 -13 l9 0 -20 18 c-15 13 -142
153 -241 264 l-7 8 -87 -76z"/>
<path d="M41960 63324 c1 -22 244 -304 263 -304 l9 0 -84 93 c-46 50 -106 119
-133 152 -26 33 -49 62 -51 64 -2 2 -4 0 -4 -5z"/>
<path d="M41575 63170 c3 -5 8 -10 11 -10 2 0 4 5 4 10 0 6 -5 10 -11 10 l-10
0 6 -10z"/>
<path d="M42715 62898 c-119 -106 -239 -211 -266 -233 l-48 -40 0 -12 c-1 -7
3 -13 8 -13 5 0 65 -64 132 -142 179 -207 389 -432 396 -425 2 2 -57 69 -130
148 -74 79 -190 209 -260 289 l-125 145 16 19 c10 10 125 113 257 229 132 116
244 214 250 219 l9 8 -11 0 c-6 0 -108 -87 -228 -192z"/>
<path d="M57777 62228 c-241 -193 -436 -352 -434 -355 5 -4 824 643 872 688
l19 19 -9 -1 c-6 0 -207 -158 -448 -351z"/>
<path d="M41935 62266 l-36 -35 3 -37 3 -37 15 -5 15 -4 -12 13 -13 13 0 23 0
23 36 40 c44 49 38 52 -11 6z"/>
<path d="M56760 62146 c0 -12 557 -252 566 -244 2 3 -119 57 -269 122 -149 64
-278 119 -284 122 l-13 6 0 -6z"/>
<path d="M88547 62008 c-24 -35 -84 -121 -132 -193 -49 -71 -150 -215 -225
-320 -75 -104 -140 -196 -145 -204 l-8 -14 10 6 c13 8 301 411 434 607 118
173 122 180 115 180 -3 0 -25 -28 -49 -62z"/>
<path d="M50630 62030 c0 -8 332 -159 339 -153 8 6 -8 14 -173 88 l-166 73 0
-8z"/>
<path d="M57320 61861 c0 -9 483 -222 489 -215 2 2 2 6 -1 9 -4 4 -330 148
-455 200 l-33 14 0 -8z"/>
<path d="M57826 61682 c9 -9 232 -108 749 -332 149 -65 332 -145 409 -179 76
-34 141 -60 143 -57 3 3 -10 11 -28 19 -62 26 -303 134 -384 172 -44 20 -219
97 -390 170 -170 73 -352 151 -403 174 -93 41 -114 48 -96 33z"/>
<path d="M89662 61025 c9 -9 420 -156 425 -152 5 5 -13 12 -231 92 -168 61
-207 73 -194 60z"/>
<path d="M90510 60654 c0 -12 278 -348 292 -353 7 -2 -19 34 -57 80 -104 125
-217 263 -227 274 l-8 9 0 -10z"/>
<path d="M61911 60188 c-1 -3 10 -57 23 -120 14 -62 48 -228 76 -368 56 -281
58 -290 69 -290 l7 0 -42 203 c-92 439 -114 543 -123 562 -5 11 -10 17 -10 13z"/>
<path d="M86559 59764 c-90 -69 -166 -131 -168 -137 l-4 -12 14 11 c8 6 85 66
172 133 141 110 166 131 153 131 -2 0 -77 -57 -167 -126z"/>
<path d="M62293 59486 l-191 -41 -9 -9 -8 -9 25 6 c14 3 104 23 200 43 96 20
182 40 190 45 l15 8 -15 -1 c-8 0 -101 -19 -207 -42z"/>
<path d="M61588 59337 l-427 -92 -8 -9 -8 -8 20 5 c11 4 213 47 449 97 236 49
432 92 434 95 12 11 -52 -1 -460 -88z"/>
<path d="M49160 58847 c-195 -260 -193 -257 -183 -257 4 1 69 82 143 182 175
235 184 247 179 252 -2 2 -65 -77 -139 -177z"/>
<path d="M63940 58480 c0 -15 107 -546 151 -750 16 -74 50 -238 76 -364 26
-127 48 -225 51 -218 3 11 -117 627 -158 807 -11 50 -41 189 -65 309 -40 198
-55 255 -55 216z"/>
<path d="M63900 58469 c0 -8 16 -86 35 -174 19 -88 76 -369 126 -624 88 -454
295 -1430 304 -1440 3 -2 7 -2 9 0 3 2 -38 200 -90 439 -52 239 -134 638 -184
885 -109 546 -186 915 -194 922 l-6 6 0 -14z"/>
<path d="M61333 58415 c4 -11 20 -87 37 -170 39 -192 40 -198 46 -192 3 2 -12
85 -32 183 l-36 179 -10 10 -10 10 5 -20z"/>
<path d="M60873 58322 c-226 -48 -415 -91 -420 -95 l-8 -9 25 6 c14 4 209 44
434 91 370 76 457 97 400 94 -10 -1 -204 -40 -431 -87z"/>
<path d="M91739 58107 c-19 -24 -100 -105 -181 -181 -82 -76 -148 -142 -148
-148 l0 -11 30 24 c66 53 278 257 313 301 l37 47 -9 5 -9 6 -33 -43z"/>
<path d="M61539 57444 l45 -216 4 12 c5 15 -79 420 -88 420 -3 0 14 -97 39
-216z"/>
<path d="M64430 56242 l35 -17 3 -33 3 -34 -17 -19 -17 -19 -33 0 -33 0 -6 10
c-3 6 -12 10 -18 10 l-12 -1 24 -20 24 -20 31 7 31 6 23 21 23 22 -6 35 -6 35
-21 18 -20 17 -22 0 -21 0 35 -18z"/>
<path d="M64073 56157 c-139 -28 -253 -54 -253 -58 0 -7 518 95 527 105 l6 6
-14 -1 c-8 -1 -128 -24 -266 -52z"/>
<path d="M78927 56203 c-3 -5 -14 -51 -26 -104 l-22 -96 11 -107 c6 -58 15
-116 19 -129 l9 -22 7 17 7 18 -11 63 c-6 35 -11 93 -11 128 l0 64 20 75 c11
41 20 81 20 88 l0 12 -9 0 c-6 0 -12 -3 -14 -7z"/>
<path d="M63017 55900 c4 -17 23 -29 23 -16 0 12 -13 36 -20 36 l-8 0 5 -20z"/>
<path d="M36430 55814 c-47 -19 -114 -42 -150 -50 l-65 -16 -40 6 c-22 4 -98
25 -169 47 -70 22 -130 38 -133 35 -3 -2 60 -25 139 -50 l145 -46 44 0 c24 0
64 5 89 11 48 10 218 77 235 91 l9 8 -9 0 c-6 -1 -48 -17 -95 -36z"/>
<path d="M62210 55693 c-146 -30 -267 -57 -269 -59 -2 -2 -2 -7 2 -10 l6 -6
228 47 c125 26 249 51 276 57 l47 10 -6 9 c-7 11 26 17 -284 -48z"/>
<path d="M61840 55730 l0 -10 25 0 25 0 0 10 0 10 -25 0 -25 0 0 -10z"/>
<path d="M61806 55713 c-9 -9 -7 -33 3 -33 5 0 11 7 14 15 l6 14 -8 5 c-5 3
-11 3 -15 -1z"/>
<path d="M61945 55687 l-7 -18 6 -6 6 -6 6 6 c3 3 4 14 1 24 l-4 18 -8 -18z"/>
<path d="M25957 55613 l-8 -23 16 -27 17 -28 249 -172 c137 -94 249 -168 249
-164 0 4 -107 81 -237 171 -131 90 -246 173 -255 184 l-17 21 -3 30 -3 30 -8
-22z"/>
<path d="M26535 55283 l20 -4 22 -27 23 -27 0 16 0 16 -18 16 -19 17 -24 -1
-24 -1 20 -5z"/>
<path d="M50325 54880 l-6 -10 13 1 c7 0 22 4 33 9 l20 9 -27 0 -27 1 -6 -10z"/>
<path d="M79346 53728 c14 -57 39 -164 56 -238 29 -125 42 -161 52 -149 2 2
-22 112 -53 243 l-57 240 -11 3 -11 4 24 -103z"/>
<path d="M51940 53460 c0 -13 11 -13 30 0 l15 10 -22 0 -23 0 0 -10z"/>
<path d="M50625 53360 c-99 -49 -175 -89 -169 -89 12 -1 364 168 364 175 0 9
-21 -1 -195 -86z"/>
<path d="M51927 53414 l-6 -7 64 -78 c81 -98 158 -224 248 -404 l70 -140 4 11
4 12 -61 122 c-33 68 -84 164 -112 214 l-52 91 -74 93 c-41 50 -75 92 -77 92
-1 0 -5 -3 -8 -6z"/>
<path d="M35860 53303 l0 -10 73 -6 c39 -4 141 -10 225 -13 l152 -7 0 10 0 10
-152 7 c-84 3 -186 9 -225 13 l-73 6 0 -10z"/>
<path d="M77860 53288 c1 -7 22 -100 48 -207 l47 -194 14 -5 14 -5 -5 14 c-3
8 -27 103 -53 212 l-47 197 -9 0 c-5 0 -9 -6 -9 -12z"/>
<path d="M52448 53266 l-17 -24 -91 -7 -90 -7 0 -7 0 -7 92 9 93 9 13 10 c7 6
18 20 23 30 l10 18 -8 0 c-4 0 -16 -11 -25 -24z"/>
<path d="M52470 53236 l-35 -34 -77 -7 -78 -7 0 12 0 11 -15 -15 c-18 -18 -19
-27 -2 -20 l13 5 48 -108 c56 -124 126 -256 132 -250 2 2 -8 26 -23 53 -24 41
-143 292 -143 299 0 1 36 6 80 9 l80 7 30 32 c26 27 37 47 27 47 -1 0 -18 -15
-37 -34z"/>
<path d="M49155 53122 c-150 -76 -221 -120 -211 -129 2 -3 24 8 48 25 24 16
104 60 178 97 143 71 146 73 139 79 -2 2 -72 -30 -154 -72z"/>
<path d="M52160 53190 c-8 -5 -12 -11 -9 -14 2 -3 11 -1 19 4 8 5 12 11 9 14
-2 3 -11 1 -19 -4z"/>
<path d="M74750 52906 c0 -3 16 -69 35 -148 20 -79 38 -167 42 -195 l6 -53 10
0 10 0 -6 53 c-4 28 -20 108 -37 177 -16 69 -32 135 -35 148 l-5 22 -10 0 c-6
0 -10 -2 -10 -4z"/>
<path d="M12734 52782 c-18 -26 -64 -93 -103 -149 l-72 -103 13 0 13 1 80 116
c44 63 88 128 98 143 l18 28 -8 5 -8 5 -31 -46z"/>
<path d="M26794 52688 c32 -46 104 -155 150 -228 l46 -74 0 -28 0 -28 9 0 8 0
-7 39 -7 40 -73 118 c-80 128 -120 183 -134 183 l-8 0 16 -22z"/>
<path d="M81980 52412 c0 -4 46 -20 103 -36 56 -16 155 -49 220 -73 65 -25
121 -43 123 -40 6 6 -203 82 -334 121 -62 19 -112 31 -112 28z"/>
<path d="M74947 52124 l-6 -6 61 -122 c88 -177 310 -576 319 -576 5 0 9 2 9 5
0 3 -62 117 -137 253 -75 136 -159 293 -186 350 -26 56 -50 102 -51 102 -2 0
-5 -3 -9 -6z"/>
<path d="M26995 51688 c-4 -106 -5 -211 -3 -233 l5 -40 2 75 c2 41 6 146 9
233 l7 157 -6 0 -7 0 -7 -192z"/>
<path d="M27035 51654 c-4 -124 -5 -227 -2 -230 3 -3 8 75 11 173 3 98 8 202
10 231 l5 52 -8 0 -9 0 -7 -226z"/>
<path d="M88038 51323 l-178 -136 6 -8 5 -9 167 126 c92 70 176 135 187 145
l19 19 -14 -1 -15 0 -177 -136z"/>
<path d="M87839 51092 l-41 -49 -64 -144 c-57 -130 -70 -170 -45 -143 5 5 34
68 65 140 l57 131 45 50 c24 28 44 54 44 57 0 17 -23 1 -61 -42z"/>
<path d="M12313 50598 c4 -46 10 -156 13 -245 l7 -163 10 0 10 0 -7 163 c-3
89 -9 199 -13 245 l-6 82 -10 0 -10 0 6 -82z"/>
<path d="M33610 50387 c0 -20 61 -392 65 -396 3 -2 5 2 5 10 -1 30 -59 381
-64 387 l-6 5 0 -6z"/>
<path d="M33575 50355 c2 -16 16 -109 31 -205 15 -96 29 -169 32 -162 5 16
-47 352 -59 377 l-9 20 5 -30z"/>
<path d="M34447 49963 l-7 -7 107 -33 c103 -32 319 -83 349 -83 8 0 14 4 14 8
l0 8 -92 19 c-75 14 -201 47 -349 91 l-15 4 -7 -7z"/>
<path d="M33670 49879 c0 -17 38 -321 46 -368 3 -18 7 -31 10 -28 6 5 -43 398
-51 405 -3 3 -5 -1 -5 -9z"/>
<path d="M15468 49822 c-1 -4 -69 -54 -151 -111 l-147 -103 5 -8 5 -9 138 96
c149 103 172 122 172 135 0 10 -17 11 -22 0z"/>
<path d="M39660 49663 l0 -9 123 -29 c67 -15 166 -36 220 -45 l97 -17 0 7 0 7
-77 12 c-68 11 -296 62 -345 77 l-18 5 0 -8z"/>
<path d="M33763 49465 c3 -11 18 -110 33 -220 l27 -200 10 -10 9 -10 -5 20
c-3 11 -18 110 -33 220 l-27 200 -10 10 -9 10 5 -20z"/>
<path d="M35991 49435 c-1 -11 11 -95 26 -187 l27 -168 8 0 8 0 -5 23 c-3 12
-16 92 -30 177 -14 85 -27 160 -30 165 l-3 10 -1 -20z"/>
<path d="M37832 47409 l-173 -7 -7 -7 -7 -6 185 7 c102 3 232 10 290 14 l105
7 -110 0 c-60 0 -188 -3 -283 -8z"/>
<path d="M45735 46930 c-88 -26 -193 -57 -233 -69 -41 -13 -72 -24 -69 -27 6
-6 459 126 472 137 l9 9 -9 -1 c-6 0 -82 -22 -170 -49z"/>
<path d="M26937 46859 l-189 -7 -6 -7 -6 -6 229 7 230 7 20 8 20 8 -55 -1
c-30 -1 -140 -5 -243 -9z"/>
<path d="M81200 45680 l0 -9 15 5 c8 4 15 8 15 10 0 2 -7 4 -15 4 l-15 0 0
-10z"/>
<path d="M52251 44881 l-14 -9 178 -368 c98 -203 213 -443 255 -534 43 -91
118 -248 167 -350 49 -102 116 -240 148 -308 l59 -123 14 15 15 15 -103 218
c-256 543 -694 1452 -700 1452 -3 1 -11 -3 -19 -8z"/>
<path d="M52135 44860 l-7 -12 198 -414 c109 -228 201 -414 204 -414 3 0 11 4
18 8 l13 9 -198 413 -198 413 -12 4 -11 4 -7 -11z"/>
<path d="M16960 44789 c-30 -11 -61 -22 -69 -24 l-14 -6 10 -10 11 -11 66 22
66 22 0 8 c0 17 -16 17 -70 -1z"/>
<path d="M52450 44120 l0 -13 7 6 6 7 -6 7 -7 6 0 -13z"/>
<path d="M30914 41633 c-34 -53 -110 -126 -206 -201 l-98 -75 0 -14 0 -13 93
71 c50 40 111 91 135 113 42 39 112 127 112 140 0 15 -19 4 -36 -21z"/>
<path d="M53327 40578 l-34 -43 -21 -55 -22 -55 -24 -140 c-13 -77 -27 -157
-31 -177 l-7 -38 11 0 c6 0 11 3 11 6 0 3 14 81 30 174 l31 169 25 57 c14 32
39 75 55 95 16 20 29 40 29 43 0 17 -22 1 -53 -36z"/>
<path d="M60290 38450 c0 -5 5 -10 10 -10 l10 0 0 -16 0 -15 -47 -67 c-26 -37
-87 -111 -136 -164 -49 -54 -85 -98 -79 -98 14 0 171 176 230 257 l52 73 0 14
0 15 -20 11 -20 11 0 -11z"/>
<path d="M60222 38356 c-29 -42 -78 -104 -110 -139 -31 -34 -67 -75 -81 -91
l-26 -29 12 4 c16 6 146 152 210 237 l54 73 -3 10 -3 10 -53 -75z"/>
<path d="M92790 37634 c0 -3 5 -15 11 -26 l11 -20 -11 -11 c-14 -14 -14 -27
-1 -27 5 0 14 9 20 19 l10 20 -10 25 -10 26 -10 0 c-5 0 -10 -3 -10 -6z"/>
<path d="M60639 37464 c-13 -15 -59 -53 -103 -85 l-78 -58 -72 -27 c-77 -29
-82 -32 -75 -39 3 -2 41 9 84 26 l79 30 65 49 c37 27 84 67 106 89 l39 41 -10
0 c-6 0 -21 -12 -35 -26z"/>
<path d="M84915 35602 c-30 -10 -85 -45 -85 -55 l0 -8 13 7 c6 4 24 16 39 26
l26 18 26 0 26 0 20 -20 c10 -10 29 -38 41 -62 32 -64 93 -158 103 -158 l8 0
-16 23 c-9 12 -39 64 -67 115 l-51 92 -21 15 c-23 16 -30 17 -62 7z"/>
<path d="M85150 35375 c0 -3 26 -40 58 -82 31 -43 90 -133 131 -201 41 -67 76
-120 79 -118 6 7 -161 279 -215 349 -41 53 -53 65 -53 52z"/>
<path d="M32073 35090 c-37 -43 -39 -50 -19 -50 l14 0 27 36 27 36 -8 8 -9 9
-32 -39z"/>
<path d="M85795 34690 c-77 -49 -141 -94 -144 -101 l-3 -11 10 3 c5 2 75 44
155 93 l146 90 -5 8 c-8 13 -13 11 -159 -82z"/>
<path d="M77867 33923 c-11 -196 -16 -369 -11 -347 3 12 11 118 18 235 l13
214 -7 8 -7 8 -6 -118z"/>
<path d="M98809 31735 l-26 -14 -6 -23 -6 -22 6 -6 6 -5 4 11 c2 6 10 19 17
29 l13 18 31 1 c34 1 42 10 16 20 -21 8 -25 7 -55 -9z"/>
<path d="M11952 28228 l5 -13 684 -97 c376 -53 699 -99 717 -102 l32 -5 0 15
c0 8 -3 14 -7 14 -4 0 -325 45 -714 100 -389 55 -710 100 -714 100 l-7 0 4
-12z"/>
<path d="M90330 19929 c0 -6 26 -105 57 -220 l57 -209 9 9 10 10 -53 193 c-29
106 -55 201 -58 211 -5 19 -22 24 -22 6z"/>
<path d="M90884 17233 c4 -10 21 -42 39 -72 l32 -54 106 -111 107 -111 8 8 8
7 -90 93 c-99 102 -139 151 -174 215 -13 23 -28 42 -33 42 l-9 0 6 -17z"/>
<path d="M10790 1701 l0 -10 43 -5 c23 -3 127 -11 230 -17 l188 -11 6 6 6 6
-6 6 c-6 6 -347 33 -429 34 l-38 0 0 -9z"/>
<path d="M11730 1637 l0 -13 231 -18 231 -18 5 6 6 6 -6 6 c-5 5 -393 42 -454
44 l-13 0 0 -13z"/>
</g>
</svg>
