<?xml version="1.0" standalone="no"?>
<!DOCTYPE svg PUBLIC "-//W3C//DTD SVG 20010904//EN"
 "http://www.w3.org/TR/2001/REC-SVG-20010904/DTD/svg10.dtd">
<svg version="1.0" xmlns="http://www.w3.org/2000/svg"
 width="7500.000000pt" height="7500.000000pt" viewBox="0 0 7500.000000 7500.000000"
 preserveAspectRatio="xMidYMid meet">
<metadata>
Created by potrace 1.16, written by Peter Selinger 2001-2019
</metadata>
<g transform="translate(0.000000,7500.000000) scale(0.075000,-0.075000)"
fill="#000000" stroke="none">
<path d="M88870 99996 c0 -3 24 -13 53 -24 28 -11 60 -23 70 -27 l17 -7 0 10
0 9 -51 22 c-47 19 -89 27 -89 17z"/>
<path d="M90083 99748 c-56 -69 -36 -84 20 -16 l35 42 -4 8 c-9 14 -18 8 -51
-34z"/>
<path d="M89446 99771 c13 -14 417 -171 423 -165 3 2 0 8 -5 13 -12 11 -399
161 -415 161 l-13 0 10 -9z"/>
<path d="M89880 99660 l0 -10 40 0 40 0 0 10 0 10 -40 0 -40 0 0 -10z"/>
<path d="M89990 99471 l0 -10 31 -17 31 -16 24 6 c13 4 24 10 24 15 l0 9 -32
5 c-18 3 -43 8 -55 12 l-23 7 0 -11z"/>
<path d="M84333 98843 l-173 -3 0 -10 0 -10 53 0 c28 0 116 3 195 7 l142 6 0
9 0 8 -22 -2 c-13 -1 -101 -4 -195 -5z"/>
<path d="M84489 98806 c-2 -3 -77 -6 -167 -8 l-162 -3 0 -8 0 -9 187 8 188 7
25 8 25 7 -46 1 c-25 1 -48 -1 -50 -3z"/>
<path d="M88130 97375 c0 -16 343 -166 408 -178 l32 -6 0 9 0 10 -21 0 c-28 0
-225 78 -327 129 -82 41 -92 45 -92 36z"/>
<path d="M88240 96294 l0 -9 200 -76 200 -76 5 6 4 7 -187 71 c-103 39 -195
75 -204 78 l-18 7 0 -8z"/>
<path d="M89020 95966 c0 -13 -3 -32 -7 -42 l-6 -17 10 6 11 7 4 35 4 35 -8 0
-8 0 0 -24z"/>
<path d="M98910 94231 c35 -21 823 -331 828 -327 2 3 -6 10 -19 15 -13 5 -201
79 -417 165 -362 144 -432 170 -392 147z"/>
<path d="M87451 93000 l-393 -400 -11 0 c-6 0 -60 32 -119 71 -60 40 -111 70
-114 67 -2 -3 50 -41 117 -84 l123 -78 403 409 403 410 79 -81 80 -80 14 8 c8
4 27 8 43 10 l29 2 38 -13 c21 -7 41 -11 44 -8 2 3 -20 13 -50 23 l-54 17 -30
-11 -30 -10 -74 74 -73 74 -16 0 -16 0 -393 -400z"/>
<path d="M21536 92981 c11 -12 397 -142 403 -136 2 3 -2 7 -10 10 -73 26 -392
135 -397 135 -3 0 -2 -4 4 -9z"/>
<path d="M89520 92716 c0 -8 442 -148 447 -142 4 4 -424 146 -441 146 -3 0 -6
-2 -6 -4z"/>
<path d="M21880 92620 l0 -13 7 6 6 7 -6 7 -7 6 0 -13z"/>
<path d="M21975 92594 c28 -8 91 -30 140 -48 121 -46 157 -57 163 -51 3 2 -1
7 -9 9 -8 3 -41 15 -74 27 -147 53 -193 68 -230 73 l-40 5 50 -15z"/>
<path d="M92252 92347 c-12 -14 -102 -237 -102 -251 l0 -10 8 10 c5 5 28 59
52 119 24 61 46 114 50 118 l8 9 62 -32 62 -31 6 5 c7 8 7 8 -70 44 l-67 30
-9 -11z"/>
<path d="M95444 92167 c-60 -72 -220 -276 -357 -452 l-249 -320 -75 -78 -76
-78 -61 -31 c-33 -17 -64 -36 -68 -43 -4 -6 -15 -22 -25 -34 l-18 -22 -50 38
-50 38 -165 -3 -165 -2 -55 14 c-30 7 -64 17 -75 21 l-20 7 18 -15 19 -15 74
-17 74 -16 17 5 c10 3 73 6 140 7 l122 2 55 -41 55 -42 6 10 6 9 13 -5 14 -5
22 31 22 31 49 25 50 25 76 72 76 72 270 350 c149 193 310 397 357 455 48 58
90 110 93 117 l7 12 -9 5 -9 6 -108 -133z"/>
<path d="M6530 91303 c0 -4 21 -38 46 -74 l46 -67 166 -154 167 -154 125 -84
c141 -95 542 -332 549 -324 9 9 -25 31 -204 134 -99 57 -243 147 -320 199
l-140 95 -170 158 -170 158 -40 60 c-36 54 -55 72 -55 53z"/>
<path d="M94992 91262 c-17 -21 -50 -74 -73 -118 -24 -43 -51 -90 -61 -103
l-18 -23 6 -10 7 -10 23 28 c14 16 42 64 64 106 l40 77 31 36 32 36 -10 10
-10 10 -31 -39z"/>
<path d="M93960 91252 l0 -10 53 -18 52 -18 230 -1 230 -2 25 -8 25 -8 -10 10
-10 10 -93 12 -93 13 -137 -7 -137 -6 -50 14 c-27 8 -58 18 -67 22 l-18 7 0
-10z"/>
<path d="M94508 91080 c-9 -6 -33 -34 -54 -63 l-37 -52 -171 -172 -170 -173
10 -10 10 -10 162 163 162 163 43 62 c23 34 45 62 50 62 l7 0 0 -20 0 -20 10
0 10 0 0 40 0 40 -7 0 c-5 0 -16 -5 -25 -10z"/>
<path d="M94870 90982 c0 -6 17 -39 38 -72 40 -67 50 -84 78 -144 l19 -40 47
-51 48 -52 67 -36 c86 -44 222 -101 229 -94 3 2 -33 19 -78 38 -104 42 -192
92 -241 138 -43 41 -97 120 -97 143 0 8 -9 27 -21 42 -11 14 -36 52 -55 83
-19 31 -34 52 -34 45z"/>
<path d="M94565 90960 l-6 -10 6 -10 c7 -12 32 -13 39 -2 l5 8 -19 12 -19 12
-6 -10z"/>
<path d="M94656 90901 l-6 -9 31 -6 c18 -3 35 -6 40 -6 l9 0 0 15 0 15 -34 0
-35 0 -5 -9z"/>
<path d="M94955 90729 c9 -17 19 -29 21 -26 7 7 -18 57 -28 57 l-9 0 16 -31z"/>
<path d="M32275 89811 l-5 -10 42 -5 c24 -3 119 -10 212 -17 l168 -11 11 11
c6 6 9 11 7 12 -30 3 -382 28 -402 29 l-27 0 -6 -9z"/>
<path d="M33140 89741 c0 -12 6 -14 140 -45 l105 -24 150 -55 150 -55 8 5 9 5
-9 8 c-4 4 -78 33 -164 64 l-155 56 -112 25 c-127 29 -122 28 -122 16z"/>
<path d="M38470 89306 l0 -15 26 -20 27 -21 38 0 39 0 0 16 0 16 -26 -6 -26
-7 -33 26 c-39 29 -45 30 -45 11z"/>
<path d="M86365 88979 l80 -11 195 -2 195 -3 105 -17 c58 -10 152 -29 209 -42
57 -14 106 -23 108 -20 3 3 -12 9 -33 15 -126 33 -172 42 -289 61 l-130 21
-145 -2 c-80 -2 -197 0 -260 3 l-115 7 80 -10z"/>
<path d="M86330 88940 c25 -4 97 -11 160 -14 l115 -7 85 10 85 9 -140 -1 c-77
-1 -187 1 -245 5 l-105 7 45 -9z"/>
<path d="M85115 88894 c-104 -19 -334 -66 -509 -105 l-319 -71 -101 -9 c-136
-13 -145 -20 -16 -13 l105 6 355 78 c195 43 427 90 515 105 l160 27 10 9 9 9
-9 -1 c-6 -1 -95 -16 -200 -35z"/>
<path d="M84325 88773 c-38 -7 -110 -20 -160 -28 l-90 -14 75 5 75 5 115 23
115 24 -30 0 c-16 0 -61 -7 -100 -15z"/>
<path d="M84822 88013 c-46 -93 -161 -314 -255 -493 l-172 -325 -81 -182 c-44
-100 -83 -185 -86 -188 l-5 -6 -257 71 c-241 66 -286 76 -275 66 3 -3 122 -37
264 -76 143 -39 265 -72 271 -74 l11 -4 77 176 78 177 158 300 c199 378 362
704 358 716 -2 5 -41 -66 -86 -158z"/>
<path d="M15570 88128 l0 -14 83 -40 c45 -23 223 -127 396 -232 l314 -191 9 5
c5 3 8 7 6 9 -14 13 -634 383 -710 424 l-98 52 0 -13z"/>
<path d="M75345 88059 l-130 -70 -17 -21 -18 -20 0 -30 0 -29 10 6 c6 3 10 15
10 25 l0 18 30 25 c16 14 82 53 145 87 l115 61 -5 10 c-8 11 9 19 -140 -62z"/>
<path d="M97970 87986 c0 -6 222 -376 237 -395 2 -2 5 -2 7 0 4 4 -221 380
-237 396 l-7 6 0 -7z"/>
<path d="M81110 87752 c0 -12 -36 1 433 -164 l399 -140 5 6 c4 3 4 8 2 10 -2
2 -185 68 -407 145 -221 78 -409 144 -417 147 l-15 6 0 -10z"/>
<path d="M36220 87403 c1 -11 396 -322 418 -330 l17 -6 -10 10 c-20 20 -414
333 -420 333 -3 0 -5 -3 -5 -7z"/>
<path d="M84459 87219 c-46 -89 -111 -223 -144 -298 l-60 -136 -20 -3 -20 -2
-267 73 c-148 41 -268 71 -268 67 0 -3 129 -41 286 -84 l287 -78 8 14 c5 7 39
81 75 163 37 83 101 214 142 293 41 79 72 145 70 148 -3 2 -43 -68 -89 -157z"/>
<path d="M17100 87062 c0 -17 344 -282 365 -282 17 0 -1 21 -37 45 -24 15
-104 77 -179 136 -135 107 -149 117 -149 101z"/>
<path d="M83641 86900 l-11 -52 7 -11 7 -12 13 55 12 55 -8 8 -9 9 -11 -52z"/>
<path d="M56196 86671 l-6 -9 125 -299 c69 -164 151 -357 181 -430 l56 -132
13 5 13 6 -15 36 c-86 208 -273 658 -305 735 -39 93 -50 108 -62 88z"/>
<path d="M17920 86632 l0 -10 33 -6 c17 -3 110 -35 206 -71 96 -36 181 -65
190 -65 l15 0 -9 9 c-14 12 -360 139 -401 147 l-34 6 0 -10z"/>
<path d="M79145 86342 c15 -15 385 -192 385 -184 0 4 -35 23 -78 43 -42 20
-131 62 -197 93 -66 32 -115 53 -110 48z"/>
<path d="M63572 86220 c19 -54 133 -327 140 -337 5 -6 22 -16 39 -22 l29 -10
0 7 c0 4 -14 14 -32 22 l-31 15 -66 162 c-36 89 -70 165 -75 170 l-9 8 5 -15z"/>
<path d="M56247 85584 c-4 -4 -7 -11 -7 -16 l0 -8 201 0 201 0 -4 13 -5 12
-189 3 -190 2 -7 -6z"/>
<path d="M63920 85480 c0 -13 187 -470 196 -479 2 -2 7 -2 10 2 l6 5 -97 234
c-53 128 -101 237 -106 243 l-9 9 0 -14z"/>
<path d="M54376 85429 c-120 -15 -221 -31 -224 -34 l-5 -5 6 -7 7 -6 235 29
235 28 0 13 0 13 -17 -1 c-10 -1 -116 -14 -237 -30z"/>
<path d="M88366 85379 c-15 -43 -106 -422 -102 -426 5 -6 12 17 72 251 25 98
43 181 40 184 -3 2 -8 -1 -10 -9z"/>
<path d="M39855 85359 c-11 -17 1 -21 15 -4 l12 15 -10 0 c-6 0 -14 -5 -17
-11z"/>
<path d="M27871 85245 c8 -8 430 -86 442 -82 11 3 -405 87 -433 87 -7 0 -11
-2 -9 -5z"/>
<path d="M51938 85240 l-198 -7 -7 -6 -6 -7 6 -6 6 -6 235 7 236 7 0 14 0 14
-37 -2 c-21 -1 -127 -4 -235 -8z"/>
<path d="M29666 85022 l-5 -8 257 -76 257 -76 8 5 c5 3 6 7 4 9 -3 4 -504 154
-513 154 -1 0 -5 -4 -8 -8z"/>
<path d="M86205 84730 l-5 -8 32 -11 c18 -5 105 -28 193 -51 88 -23 182 -48
208 -55 l48 -14 -3 11 -4 12 -105 28 c-57 15 -161 43 -232 62 l-127 33 -5 -7z"/>
<path d="M86670 84542 l0 -7 403 -109 c221 -60 430 -117 465 -127 l63 -18 -3
11 -4 12 -450 123 c-247 67 -455 123 -461 123 -7 0 -13 -3 -13 -8z"/>
<path d="M80080 84522 c0 -8 420 -155 426 -149 3 2 -64 28 -148 57 -84 29
-181 63 -215 76 l-63 23 0 -7z"/>
<path d="M86621 84365 c-13 -93 -26 -186 -29 -205 l-5 -35 6 6 c9 8 59 355 55
382 l-3 22 -24 -170z"/>
<path d="M84707 84073 c-102 -82 -186 -152 -186 -157 l-1 -8 15 5 c20 8 374
290 374 300 2 18 -28 -3 -202 -140z"/>
<path d="M80935 84182 c6 -6 280 -107 610 -225 330 -119 609 -219 620 -223
l20 -7 -10 10 c-5 6 -280 108 -610 226 -330 118 -609 219 -620 223 l-20 7 10
-11z"/>
<path d="M83245 84013 c-82 -74 -160 -142 -172 -150 l-23 -15 0 -43 0 -42 -30
-41 -30 -41 -29 -16 -30 -15 -26 0 c-14 0 -42 -7 -61 -15 l-36 -15 -109 -112
-108 -112 12 -8 12 -7 69 75 c37 41 93 95 122 119 l54 44 48 7 c26 4 59 13 73
20 l27 13 31 42 30 42 7 44 6 44 107 97 c58 53 133 121 165 150 l59 53 -9 9
-9 8 -150 -135z"/>
<path d="M86626 84099 c-2 -8 -9 -90 -15 -184 -7 -93 -14 -188 -17 -210 l-6
-40 8 8 9 9 16 211 c16 195 17 243 5 206z"/>
<path d="M82215 83773 c-76 -170 -140 -314 -142 -320 l-5 -13 14 0 14 0 56
128 c224 502 228 512 209 512 l-8 0 -138 -307z"/>
<path d="M0 84017 l0 -14 37 -26 36 -26 9 5 9 6 -15 16 c-8 10 -28 25 -45 35
l-31 18 0 -14z"/>
<path d="M0 83956 l0 -15 22 -15 21 -15 9 5 9 6 -12 14 c-7 8 -21 20 -31 25
l-18 10 0 -15z"/>
<path d="M24326 83952 l-5 -9 57 -23 c46 -19 334 -143 790 -341 l44 -19 -4 11
-4 12 -364 159 c-201 88 -395 173 -432 189 -74 32 -75 32 -82 21z"/>
<path d="M83006 83931 l-6 -9 14 -11 14 -12 7 11 6 10 -6 10 c-8 12 -22 13
-29 1z"/>
<path d="M82566 83644 c-80 -86 -146 -161 -146 -165 0 -27 23 -5 283 277 l29
32 -10 6 -11 6 -145 -156z"/>
<path d="M82950 83611 l0 -11 12 0 c7 0 58 -29 115 -65 107 -67 113 -71 113
-57 0 12 -186 131 -216 138 l-24 6 0 -11z"/>
<path d="M46715 83444 c140 -28 298 -54 324 -53 l26 1 -40 8 c-112 24 -333 60
-355 59 l-25 -1 70 -14z"/>
<path d="M47180 83420 l0 -10 13 0 c6 0 109 -16 227 -34 118 -19 217 -32 219
-30 2 2 1 7 -2 10 -6 6 -411 73 -444 74 l-13 0 0 -10z"/>
<path d="M83236 83421 l-6 -10 77 -60 78 -61 55 -17 55 -18 66 1 66 0 46 14
47 13 0 13 0 14 -37 -15 -36 -15 -76 -2 -76 -1 -40 12 c-53 18 -99 45 -162 98
l-51 44 -6 -10z"/>
<path d="M82100 83405 l0 -15 14 0 14 0 6 15 5 15 -19 0 -20 0 0 -15z"/>
<path d="M47174 83368 c-3 -4 -14 -8 -25 -8 l-19 0 0 -9 c0 -6 4 -12 9 -16
l10 -5 25 11 25 12 211 -33 210 -33 7 6 c3 4 4 9 2 10 -2 2 -104 19 -227 39
l-223 34 -5 -8z"/>
<path d="M86569 83199 c-3 -11 -35 -905 -32 -908 2 -2 5 -2 7 0 5 6 35 903 30
908 -2 2 -5 2 -5 0z"/>
<path d="M76685 82773 c-121 -196 -230 -373 -243 -395 l-23 -38 8 0 c11 0 485
770 481 781 -2 5 -102 -152 -223 -348z"/>
<path d="M41781 82866 c2 -2 58 -32 124 -68 66 -36 159 -86 208 -112 l87 -47
0 8 c0 10 -393 223 -411 223 -7 0 -10 -2 -8 -4z"/>
<path d="M84644 82823 c38 -74 133 -297 145 -340 19 -69 166 -453 173 -453 l8
0 -11 28 c-53 137 -135 361 -155 422 -13 41 -48 129 -77 195 -74 165 -89 195
-99 195 l-8 0 24 -47z"/>
<path d="M30790 82801 l0 -10 200 -120 199 -120 6 9 5 9 -200 120 c-111 67
-203 121 -206 121 -2 0 -4 -4 -4 -9z"/>
<path d="M60200 82140 c-856 -348 -1493 -611 -1504 -621 l-10 -9 15 0 c9 0
126 45 260 101 134 55 404 165 599 244 517 209 1244 506 1249 510 1 2 1 8 0
12 l-4 9 -605 -246z"/>
<path d="M58030 81776 c0 -3 22 -40 49 -83 27 -43 81 -133 120 -200 l71 -122
14 5 14 6 -65 111 c-36 62 -77 132 -91 157 -14 25 -39 64 -54 88 l-29 42 -14
0 c-8 0 -15 -2 -15 -4z"/>
<path d="M79873 81567 c14 -36 77 -301 77 -324 l0 -24 10 6 10 6 0 27 c-1 15
-18 92 -38 171 l-37 145 -14 4 -14 5 6 -16z"/>
<path d="M64296 80780 c90 -212 104 -243 104 -226 0 13 -181 430 -190 440 -5
5 33 -91 86 -214z"/>
<path d="M42550 80837 c0 -7 15 -59 34 -115 l35 -102 7 -105 7 -105 13 0 14 0
0 13 c0 6 -5 53 -9 104 l-9 92 -38 116 -38 115 -8 0 c-4 0 -8 -6 -8 -13z"/>
<path d="M95546 80490 c-190 -268 -263 -378 -234 -350 19 18 475 670 469 670
-4 0 -110 -144 -235 -320z"/>
<path d="M94915 80330 l-5 -8 166 -117 166 -117 6 6 6 6 -10 9 c-5 5 -80 58
-166 119 l-158 111 -5 -9z"/>
<path d="M43045 79885 l-70 -33 -33 -34 -33 -35 -110 -269 c-61 -148 -121
-295 -134 -326 l-24 -58 7 0 c4 0 65 142 136 315 l128 315 39 44 39 44 65 27
65 28 0 9 c0 4 -1 8 -2 7 -2 0 -34 -16 -73 -34z"/>
<path d="M98782 79390 l-93 -203 4 -10 3 -10 92 203 c51 111 91 207 89 213
l-3 9 -92 -202z"/>
<path d="M42680 79118 c-96 -237 -176 -435 -178 -439 -2 -5 0 -9 5 -9 l8 0 24
63 c13 34 91 227 173 430 82 202 148 371 146 376 -2 5 -82 -184 -178 -421z"/>
<path d="M77500 79052 c0 -11 100 -170 167 -264 l54 -78 11 0 10 0 -46 63
c-25 34 -78 113 -117 175 -68 108 -79 122 -79 104z"/>
<path d="M13156 78269 c-22 -65 -234 -844 -231 -847 6 -7 2 -20 130 437 63
228 113 417 110 419 -2 3 -7 -1 -9 -9z"/>
<path d="M42297 78188 c-9 -24 -23 -69 -32 -100 l-16 -58 6 -47 c11 -78 36
-187 46 -197 l9 -10 0 12 c0 6 -9 50 -20 97 -11 47 -20 100 -20 118 l0 33 24
80 c13 43 27 87 31 97 l7 17 -10 0 -9 0 -16 -42z"/>
<path d="M28135 78038 c48 -36 367 -230 371 -225 5 5 -344 224 -373 233 l-18
6 20 -14z"/>
<path d="M69336 77251 c23 -23 382 -161 418 -161 l10 0 -9 9 c-6 5 -62 27
-125 49 -63 22 -153 56 -198 76 -46 20 -89 36 -95 36 l-11 0 10 -9z"/>
<path d="M69780 77142 l0 -8 138 -17 137 -17 83 0 82 0 0 10 0 10 -92 0 -93 1
-105 14 c-58 8 -115 15 -127 15 l-23 0 0 -8z"/>
<path d="M6640 74940 c0 -5 2 -10 4 -10 9 0 394 -40 424 -44 l32 -5 0 15 0 14
-12 0 c-7 0 -96 9 -198 20 -102 11 -200 20 -217 20 l-33 0 0 -10z"/>
<path d="M34501 73650 c19 -11 411 -130 428 -130 6 0 11 4 11 8 l0 9 -207 62
c-115 34 -217 61 -228 61 l-20 -1 16 -9z"/>
<path d="M46596 73421 l-7 -10 16 -83 c9 -46 27 -176 40 -289 31 -256 57 -388
102 -501 l15 -38 14 0 c16 0 18 12 5 26 -14 14 -58 168 -76 262 -9 46 -27 174
-40 285 -21 179 -49 344 -59 355 -2 2 -7 -1 -10 -7z"/>
<path d="M72170 73203 c-29 -68 -75 -161 -102 -206 -46 -79 -57 -107 -40 -107
7 0 104 160 115 190 3 8 28 65 55 127 l50 111 -12 5 -12 5 -54 -125z"/>
<path d="M72434 72510 c98 -44 181 -78 184 -75 3 2 -15 13 -39 24 -24 10 -101
44 -170 75 -70 31 -133 56 -140 56 -8 0 67 -36 165 -80z"/>
<path d="M81071 72378 l-11 -62 -18 -19 -19 -18 -39 -9 -39 -9 -114 10 c-103
8 -133 7 -120 -5 3 -3 61 -10 130 -16 l126 -11 19 7 c10 3 34 13 52 22 l33 17
8 35 c5 19 12 54 16 78 l7 42 -10 0 -10 0 -11 -62z"/>
<path d="M47450 71269 c0 -19 103 -296 162 -434 l51 -120 63 -95 c34 -52 82
-117 106 -144 l44 -50 7 10 6 11 -52 64 c-29 35 -76 100 -104 144 l-50 80 -52
121 c-28 66 -75 187 -104 269 l-53 149 -12 4 -12 4 0 -13z"/>
<path d="M13215 70033 c55 -30 146 -82 203 -114 56 -32 102 -55 102 -51 0 9
-376 222 -393 222 -6 0 33 -26 88 -57z"/>
<path d="M82375 69556 c-116 -58 -205 -105 -199 -105 6 -1 105 46 220 103 115
58 204 105 199 105 -6 1 -105 -46 -220 -103z"/>
<path d="M14781 69235 c11 -11 823 -395 826 -391 3 2 -15 13 -39 24 -24 11
-209 99 -411 196 -338 161 -389 185 -376 171z"/>
<path d="M33454 69029 l-7 -11 14 -9 14 -9 40 2 40 3 -5 10 -5 10 -27 -3 -26
-3 -7 10 c-8 14 -22 14 -31 0z"/>
<path d="M37104 68981 c4 -6 14 -11 21 -11 8 0 105 -34 215 -75 110 -41 206
-75 213 -75 l12 1 -15 8 c-25 15 -384 148 -420 156 l-33 7 7 -11z"/>
<path d="M9148 68526 c-109 -45 -201 -86 -205 -89 l-6 -7 10 0 c11 0 414 167
421 175 17 17 -47 -6 -220 -79z"/>
<path d="M71270 68504 c-80 -18 -156 -36 -169 -39 -13 -3 -21 -8 -19 -11 3 -2
83 14 178 36 176 41 224 47 249 31 l14 -9 -16 -68 c-28 -116 -68 -344 -65
-362 l3 -17 24 130 c12 72 32 171 43 222 l21 92 -13 16 -12 15 -47 -1 -46 0
-145 -35z"/>
<path d="M41587 68318 c-142 -351 -307 -805 -307 -845 l0 -23 9 0 8 0 6 33 c7
47 122 369 221 620 47 120 86 221 86 223 0 10 -18 3 -23 -8z"/>
<path d="M35860 68271 c0 -24 388 -250 634 -369 81 -40 150 -72 152 -72 2 0 4
6 4 13 l0 13 -126 59 c-137 64 -483 256 -581 323 -61 42 -83 50 -83 33z"/>
<path d="M36700 68040 c-35 -88 -62 -162 -59 -164 3 -3 35 69 71 160 37 90 63
164 59 164 -3 0 -35 -72 -71 -160z"/>
<path d="M67510 68003 c0 -5 11 -20 25 -33 l25 -23 0 10 c0 5 -11 20 -25 33
l-25 23 0 -10z"/>
<path d="M41305 67728 l-68 -192 -17 -94 -17 -93 10 4 11 3 17 90 16 89 66
187 c72 200 71 198 59 198 l-9 0 -68 -192z"/>
<path d="M2940 67833 c0 -5 84 -63 186 -131 l186 -123 6 5 c3 3 3 8 1 10 -13
11 -370 246 -374 246 -3 0 -5 -3 -5 -7z"/>
<path d="M94263 67508 c3 -13 11 -68 17 -123 7 -55 27 -176 45 -270 18 -93 45
-249 60 -345 l28 -175 9 -10 9 -10 -5 25 c-3 14 -24 135 -45 270 -22 135 -49
299 -60 365 -11 66 -25 159 -31 208 l-12 87 -10 0 -10 0 5 -22z"/>
<path d="M41270 67405 c0 -11 -3 -30 -6 -42 l-6 -23 10 0 10 0 7 31 7 31 -11
11 -11 11 0 -19z"/>
<path d="M45819 67343 c-18 -32 -84 -138 -147 -237 -62 -98 -111 -180 -109
-183 3 -2 58 81 124 184 140 221 177 283 170 289 -3 3 -20 -21 -38 -53z"/>
<path d="M45884 67379 c-6 -8 -42 -66 -79 -129 -97 -163 -237 -379 -318 -489
-38 -52 -97 -139 -130 -195 -34 -56 -65 -102 -69 -104 -4 -2 -8 -8 -8 -14 0
-5 -50 -91 -110 -190 -61 -99 -109 -183 -106 -185 4 -4 22 24 161 252 37 61
69 111 70 113 2 3 801 -332 1200 -502 71 -31 134 -56 139 -56 l10 0 -10 9 c-5
4 -58 29 -119 54 -417 173 -1192 501 -1199 508 l-9 8 59 98 c32 54 104 159
158 233 113 153 173 245 293 444 l84 138 -3 10 -4 10 -10 -13z"/>
<path d="M41100 67374 c0 -5 28 -16 70 -29 l25 -7 -10 10 c-11 11 -85 34 -85
26z"/>
<path d="M71155 67134 c-56 -50 -148 -112 -203 -136 -25 -12 -69 -35 -96 -51
l-49 -31 11 -4 11 -3 40 25 c22 14 60 34 83 43 58 23 174 102 223 152 48 50
35 53 -20 5z"/>
<path d="M38225 66862 c-242 -13 -442 -26 -444 -28 -2 -2 -2 -5 0 -7 2 -2 182
7 399 19 217 12 421 23 453 23 l57 1 0 10 0 10 -12 -1 c-7 -1 -211 -13 -453
-27z"/>
<path d="M75902 66598 c-106 -61 -190 -113 -188 -115 3 -3 96 47 208 111 112
64 196 116 188 115 -8 0 -102 -50 -208 -111z"/>
<path d="M78547 66624 l-37 -14 -158 -10 c-86 -6 -179 -12 -207 -13 l-50 -3
111 -2 112 -2 103 10 c107 11 164 24 174 41 l6 9 -8 -1 c-4 -1 -25 -7 -46 -15z"/>
<path d="M77376 66609 c-109 -5 -204 -11 -210 -14 l-11 -5 145 5 c80 3 180 5
223 5 l77 0 0 10 0 10 -12 -2 c-7 0 -102 -5 -212 -9z"/>
<path d="M41246 66582 l-7 -12 12 -22 12 -23 4 11 c2 6 0 21 -5 34 l-9 23 -7
-11z"/>
<path d="M41270 66366 c0 -2 37 -28 83 -57 45 -29 174 -113 286 -187 112 -74
210 -136 218 -139 l13 -5 0 8 c-1 9 -161 114 -448 294 -138 87 -152 95 -152
86z"/>
<path d="M41590 66266 c0 -2 78 -55 173 -117 94 -62 250 -166 345 -232 95 -65
175 -117 178 -115 7 8 -673 468 -691 468 -3 0 -5 -2 -5 -4z"/>
<path d="M48746 66232 c28 -20 351 -243 402 -278 2 -1 4 -11 5 -23 l1 -21 12
3 12 2 150 -108 c83 -59 159 -110 169 -114 l18 -6 -10 10 c-5 6 -82 61 -170
123 -88 62 -171 125 -185 141 -30 33 -413 299 -430 299 l-13 0 39 -28z"/>
<path d="M97236 66181 l-229 -56 -5 -13 c-2 -6 -1 -12 2 -12 12 0 471 113 475
116 3 3 0 8 -5 13 l-9 8 -229 -56z"/>
<path d="M41907 66010 l-17 -20 9 0 c11 0 35 29 29 35 -2 2 -12 -4 -21 -15z"/>
<path d="M48982 65719 c-73 -122 -131 -226 -130 -230 2 -5 63 91 136 212 73
122 131 226 130 230 -2 5 -63 -91 -136 -212z"/>
<path d="M42920 65796 c0 -6 278 -194 318 -215 12 -6 22 -9 22 -6 0 3 -71 52
-157 108 -187 122 -183 120 -183 113z"/>
<path d="M83701 65663 c3 -27 12 -64 19 -83 l13 -35 48 -60 c26 -33 57 -82 70
-108 13 -26 27 -47 31 -47 l8 0 -26 53 c-15 28 -47 78 -72 110 l-45 59 -18 49
-19 49 0 30 0 30 -8 0 -8 0 7 -47z"/>
<path d="M83650 65672 c0 -5 7 -33 16 -63 l16 -54 74 -107 c41 -58 74 -111 74
-117 0 -6 5 -11 10 -11 l11 0 -17 33 c-9 17 -44 71 -77 120 -60 88 -86 143
-87 185 l0 22 -10 0 c-5 0 -10 -4 -10 -8z"/>
<path d="M94285 65618 c-115 -22 -212 -41 -214 -43 -1 -2 -1 -8 0 -13 l4 -9
125 23 c69 13 178 33 242 45 l118 22 -6 8 -5 9 -27 -1 c-15 -1 -121 -19 -237
-41z"/>
<path d="M70220 65527 c0 -2 24 -49 54 -105 30 -56 76 -149 102 -207 26 -58
51 -105 55 -105 l8 0 -48 108 c-58 130 -153 312 -163 312 -5 0 -8 -1 -8 -3z"/>
<path d="M48110 65211 c0 -9 479 -216 485 -209 5 4 -112 57 -407 184 l-78 33
0 -8z"/>
<path d="M33240 65053 c-25 -2 -55 -6 -68 -8 l-22 -5 -115 -101 c-63 -56 -115
-106 -115 -112 l0 -10 23 19 c12 10 58 51 102 90 44 39 92 78 106 88 l26 16
67 7 66 6 0 8 0 9 -12 -2 c-7 -1 -33 -3 -58 -5z"/>
<path d="M39302 65015 c6 -7 412 -65 417 -60 7 8 -21 13 -209 39 -191 27 -217
29 -208 21z"/>
<path d="M48592 64963 c-128 -202 -352 -577 -350 -584 2 -5 90 133 196 307
107 174 192 318 189 320 -2 3 -18 -17 -35 -43z"/>
<path d="M3617 64903 l-5 -58 9 -9 9 -10 0 67 c0 37 -2 67 -4 67 -2 0 -6 -26
-9 -57z"/>
<path d="M31425 64906 c-57 -19 -236 -108 -230 -114 2 -3 58 19 122 49 l118
54 88 0 87 0 0 8 0 7 -37 0 c-21 0 -54 2 -73 5 l-35 5 -40 -14z"/>
<path d="M40570 64869 c0 -3 47 -141 105 -307 l104 -301 7 -51 7 -50 -144 0
-144 1 -105 13 -105 13 -27 -14 -28 -14 1 -37 2 -37 4 28 4 27 22 15 22 14
115 -14 115 -14 132 -1 132 0 10 18 10 18 -10 45 c-20 94 -229 684 -229 648z"/>
<path d="M40686 64408 c19 -57 44 -134 54 -173 l18 -70 1 28 1 28 -47 144
c-26 80 -50 145 -54 145 l-8 0 35 -102z"/>
<path d="M40072 64090 c-6 -11 -12 -25 -12 -32 l0 -13 20 25 c11 14 20 28 20
33 0 14 -15 7 -28 -13z"/>
<path d="M78460 64029 c-118 -16 -302 -38 -408 -48 -176 -17 -213 -23 -201
-35 7 -7 280 21 592 60 l297 38 0 8 0 8 -32 -1 c-18 -1 -130 -14 -248 -30z"/>
<path d="M78523 63981 c-190 -24 -236 -33 -222 -45 3 -2 433 49 447 53 6 2 1
21 -5 20 -5 -1 -103 -13 -220 -28z"/>
<path d="M76600 63809 l-145 -7 -82 5 -83 6 0 -11 0 -10 107 -7 106 -8 101 7
c56 4 125 10 154 13 l52 6 0 8 0 9 -32 -2 c-18 -1 -98 -5 -178 -9z"/>
<path d="M40820 63763 c0 -13 279 -323 291 -323 5 0 -56 73 -137 163 -81 89
-149 164 -151 166 -1 2 -3 0 -3 -6z"/>
<path d="M76700 63759 l-75 -10 -168 3 -167 3 0 -7 c0 -4 12 -11 26 -14 l26
-7 227 7 c275 9 303 9 337 -4 l27 -11 10 10 9 9 -38 12 c-22 6 -61 13 -89 15
l-50 4 -75 -10z"/>
<path d="M38795 63738 l60 -19 150 -25 c83 -13 166 -26 185 -29 l35 -5 -15 8
c-8 5 -81 19 -163 31 -81 12 -179 31 -217 42 -89 24 -113 23 -35 -3z"/>
<path d="M76996 63681 l-6 -10 9 -5 10 -6 5 9 6 10 -9 5 -10 6 -5 -9z"/>
<path d="M40323 63552 c15 -15 27 -32 26 -38 0 -5 -63 -63 -140 -129 -77 -66
-148 -129 -157 -140 l-17 -19 22 14 c35 24 312 264 312 272 1 11 -50 68 -62
68 l-11 0 27 -28z"/>
<path d="M41990 63346 c0 -9 119 -152 189 -229 39 -42 71 -73 71 -68 0 5 -32
44 -71 87 -40 44 -96 109 -126 147 -49 61 -63 75 -63 63z"/>
<path d="M36835 63312 l10 -9 175 -28 c96 -15 186 -29 200 -31 l25 -4 -20 9
c-11 6 -94 22 -185 36 -91 14 -176 28 -190 31 l-25 5 10 -9z"/>
<path d="M43954 63254 l-6 -25 7 -81 c3 -44 11 -90 16 -102 l9 -21 -8 65 c-4
36 -6 93 -5 128 2 66 -3 78 -13 36z"/>
<path d="M50826 63238 c-46 -72 -194 -333 -191 -337 7 -6 0 -17 114 178 56 96
100 176 97 178 -2 3 -11 -6 -20 -19z"/>
<path d="M37675 63175 c12 -5 374 -55 395 -55 7 0 11 2 8 5 -6 6 -355 55 -388
54 -14 0 -20 -2 -15 -4z"/>
<path d="M8940 63106 l0 -16 23 -4 c12 -3 45 -8 72 -11 28 -3 65 -9 83 -12
l32 -5 0 16 c0 9 -3 16 -7 16 -8 0 -113 16 -170 25 l-33 6 0 -15z"/>
<path d="M38515 63101 l10 -8 200 -27 c205 -27 232 -29 224 -22 -2 3 -90 16
-194 30 -105 15 -203 28 -220 31 l-29 5 9 -9z"/>
<path d="M33852 63074 c7 -6 871 -114 877 -108 2 2 -2 6 -10 8 -13 4 -843 106
-864 106 l-8 0 5 -6z"/>
<path d="M38466 62770 l-50 -310 7 -6 7 -7 0 12 c0 14 88 566 95 599 l5 22 -7
0 -8 0 -49 -310z"/>
<path d="M10003 63013 l7 -6 7 6 6 7 -13 0 -13 0 6 -7z"/>
<path d="M15030 62993 l0 -32 10 -6 10 -6 0 23 c0 13 -5 30 -10 38 l-10 15 0
-32z"/>
<path d="M18145 63010 l-6 -10 10 0 c6 0 11 5 11 10 0 6 -2 10 -4 10 -3 0 -8
-4 -11 -10z"/>
<path d="M10067 63003 c18 -2 50 -2 70 0 l38 4 -70 0 -70 0 32 -4z"/>
<path d="M10298 62993 c6 -2 18 -2 25 0 l12 5 -25 0 -25 0 13 -5z"/>
<path d="M93726 62991 c5 -5 38 -26 74 -47 l65 -36 200 -70 c110 -38 271 -96
358 -130 l158 -60 6 6 c4 3 4 7 2 9 -12 9 -351 136 -524 195 l-200 70 -63 36
c-35 20 -69 36 -75 36 l-11 0 10 -9z"/>
<path d="M35130 62960 l0 -7 103 -12 c56 -7 144 -21 196 -32 52 -11 96 -17 98
-15 9 9 -145 40 -294 59 l-103 13 0 -6z"/>
<path d="M16310 62931 l0 -10 168 -3 c92 -2 169 -2 171 0 2 1 1 5 -3 10 l-8 7
-164 4 -164 3 0 -11z"/>
<path d="M39840 62911 c0 -4 91 -33 203 -65 111 -32 209 -61 217 -64 l15 -5
-10 10 c-12 13 -425 133 -425 124z"/>
<path d="M58705 62905 c-57 -31 -96 -57 -92 -62 3 -2 29 11 58 29 l54 33 50 0
c28 0 97 -3 155 -7 l105 -6 -45 8 c-25 4 -92 11 -150 14 l-105 7 -30 -16z"/>
<path d="M16720 62800 l0 -90 10 0 10 0 0 90 0 90 -10 0 -10 0 0 -90z"/>
<path d="M58384 62742 l-199 -137 -213 -173 c-118 -94 -209 -172 -203 -172 5
0 105 77 223 172 l213 172 180 124 c169 116 217 152 204 152 -3 0 -96 -62
-205 -138z"/>
<path d="M43415 62729 c-82 -72 -152 -136 -154 -142 l-4 -12 24 21 c13 11 86
74 162 138 75 65 137 120 137 122 0 13 -30 -10 -165 -127z"/>
<path d="M59492 62854 c7 -7 889 -76 895 -70 3 3 -15 7 -39 10 -38 5 -828 66
-852 66 l-9 0 5 -6z"/>
<path d="M10873 62743 l-193 -3 0 -11 0 -11 193 7 192 7 10 9 9 9 -9 -2 c-6
-2 -97 -4 -202 -5z"/>
<path d="M58220 62582 c0 -6 118 -57 390 -169 l35 -15 -10 11 c-9 9 -59 31
-322 141 -51 22 -93 36 -93 32z"/>
<path d="M91130 62575 c0 -6 91 -101 203 -211 l202 -201 130 -68 130 -67 28
-26 27 -26 0 10 c0 6 -12 22 -27 36 l-28 25 -130 67 -130 68 -202 201 c-112
111 -203 197 -203 192z"/>
<path d="M35047 62473 l-7 -6 0 -64 0 -65 24 -21 24 -21 146 -26 146 -26 0 6
0 7 -132 23 -133 22 -28 17 -28 16 -6 23 -5 23 6 50 c7 49 5 55 -7 42z"/>
<path d="M89022 62421 c2 -5 81 -75 176 -156 l174 -146 11 4 11 3 -180 152
c-98 84 -183 152 -187 152 l-9 0 4 -9z"/>
<path d="M40757 62400 c3 -11 7 -20 9 -20 2 0 4 9 4 20 l0 20 -9 0 -9 0 5 -20z"/>
<path d="M48296 62144 c-92 -152 -165 -278 -163 -281 3 -2 78 118 168 266
l164 271 15 0 c8 0 51 -23 95 -50 44 -26 82 -47 84 -44 6 5 9 3 -90 62 -48 29
-91 52 -96 52 l-10 0 -167 -276z"/>
<path d="M89000 62365 c19 -23 737 -627 744 -626 3 0 7 3 9 6 3 7 -743 635
-755 635 l-10 0 12 -15z"/>
<path d="M23007 62150 c-59 -116 -104 -210 -100 -210 4 0 57 95 116 210 59
116 104 210 100 210 -4 0 -57 -95 -116 -210z"/>
<path d="M42733 62240 c37 -39 97 -102 133 -141 37 -38 68 -68 70 -66 7 6
-247 277 -259 277 l-10 0 66 -70z"/>
<path d="M40580 62265 l-13 -15 17 6 c9 3 16 10 16 15 0 13 -6 11 -20 -6z"/>
<path d="M12675 62260 c56 -16 389 -70 424 -69 l36 1 -55 10 c-30 5 -134 22
-230 38 -97 17 -182 30 -190 29 l-15 -1 30 -8z"/>
<path d="M40710 62220 l0 -30 10 0 10 0 0 30 0 30 -10 0 -10 0 0 -30z"/>
<path d="M29361 61989 c-112 -277 -194 -466 -223 -514 l-30 -50 -43 -32 -43
-32 -185 -93 -186 -92 5 -8 5 -8 192 96 192 96 41 34 42 34 26 44 c14 25 80
176 146 337 l121 293 -3 14 -3 14 -54 -133z"/>
<path d="M16035 62065 c-27 -7 -63 -16 -79 -19 -15 -4 -26 -9 -23 -12 3 -3 41
2 86 12 l80 17 78 -11 c43 -7 116 -21 162 -31 l83 -19 -8 8 c-10 10 -219 56
-284 63 l-45 5 -50 -13z"/>
<path d="M37010 62055 c0 -3 17 -12 37 -20 l38 -16 169 -25 c93 -13 171 -22
174 -20 6 7 -25 13 -193 37 l-150 21 -34 14 c-37 15 -41 16 -41 9z"/>
<path d="M57331 61896 c4 -4 1348 -592 1379 -603 l15 -6 -10 11 c-11 12 -1362
602 -1378 602 -6 0 -8 -2 -6 -4z"/>
<path d="M58547 61871 l-87 -6 1 -10 1 -10 12 3 c6 2 54 6 106 9 l95 6 98 -41
98 -41 -3 10 -3 10 -94 40 -94 39 -21 -2 c-12 -1 -60 -4 -109 -7z"/>
<path d="M57320 61856 c0 -7 -25 -67 -56 -132 -75 -158 -124 -275 -124 -294 0
-8 18 26 39 75 21 50 63 144 94 210 l56 120 11 3 10 4 221 -97 c122 -52 225
-95 230 -93 5 2 -89 45 -209 97 -119 52 -227 100 -239 107 -28 17 -33 17 -33
0z"/>
<path d="M59862 61762 l-82 -97 -70 -110 -70 -110 -21 -65 c-11 -36 -33 -130
-50 -209 l-29 -144 0 -54 0 -53 10 0 10 0 0 53 0 54 29 144 c16 79 38 171 49
204 l19 60 77 120 77 120 74 87 75 87 -8 5 -8 5 -82 -97z"/>
<path d="M43690 61638 c-124 -111 -227 -206 -229 -212 l-4 -11 24 21 c97 84
400 353 424 376 l30 28 -10 -1 c-6 0 -111 -91 -235 -201z"/>
<path d="M48136 61831 l-6 -10 12 -8 c7 -4 99 -56 203 -114 l190 -107 9 9 c12
11 27 1 -159 104 -88 48 -179 99 -202 112 l-41 24 -6 -10z"/>
<path d="M59961 61825 c11 -11 303 -135 307 -130 8 7 10 6 -150 73 -137 58
-168 69 -157 57z"/>
<path d="M48110 61781 l0 -9 201 -112 201 -112 10 10 9 9 -201 112 c-111 61
-205 111 -210 111 -6 0 -10 -4 -10 -9z"/>
<path d="M21850 61751 c0 -9 449 -146 455 -139 3 3 -34 17 -82 31 -49 15 -152
47 -230 71 -79 24 -143 41 -143 37z"/>
<path d="M38781 61746 c2 -2 60 -20 127 -40 l124 -35 116 -5 117 -5 -50 9
c-27 4 -77 9 -110 9 l-60 1 -124 35 c-119 33 -149 40 -140 31z"/>
<path d="M21840 61712 c0 -4 55 -22 123 -41 67 -19 168 -51 225 -72 l102 -37
0 8 0 8 -152 50 c-84 28 -186 59 -225 70 l-73 20 0 -6z"/>
<path d="M59255 61623 c15 -14 366 -164 377 -161 8 3 -302 141 -368 164 l-19
7 10 -10z"/>
<path d="M45090 61515 c0 -8 329 -393 343 -401 l12 -8 -15 20 c-33 43 -332
394 -336 394 -2 0 -4 -2 -4 -5z"/>
<path d="M18430 61433 c0 -5 24 -24 52 -43 29 -19 85 -62 124 -95 l73 -60 57
-72 c51 -65 74 -86 74 -67 0 3 -27 41 -61 83 l-61 76 -56 48 c-68 58 -179 137
-192 137 -6 0 -10 -3 -10 -7z"/>
<path d="M57120 61411 c0 -6 277 -127 340 -149 l15 -5 -10 10 c-14 15 -345
152 -345 144z"/>
<path d="M54550 61372 c0 -17 210 -925 215 -931 3 -2 5 1 5 7 0 20 -208 924
-214 930 l-6 5 0 -11z"/>
<path d="M18776 60522 l-68 -137 -38 -27 c-21 -15 -49 -32 -64 -38 l-26 -10 0
-9 0 -10 33 11 c17 6 49 25 71 42 l38 31 69 137 69 137 -8 5 -8 5 -68 -137z"/>
<path d="M83260 60528 c-74 -43 -141 -83 -149 -87 l-14 -9 23 -36 c12 -21 25
-35 27 -32 3 3 -2 17 -11 31 l-17 26 6 8 c2 5 65 44 137 86 147 86 143 83 137
89 -2 2 -65 -32 -139 -76z"/>
<path d="M48260 60573 c1 -18 43 -57 183 -168 l148 -118 6 7 c3 3 4 8 2 9 -2
2 -72 58 -155 125 l-151 120 -6 16 c-6 16 -27 23 -27 9z"/>
<path d="M57310 60456 c0 -3 13 -40 29 -84 26 -70 48 -165 43 -184 l-2 -7 14
5 13 5 -13 62 c-7 34 -25 95 -40 135 l-26 72 -9 0 c-5 0 -9 -2 -9 -4z"/>
<path d="M44561 60343 c6 -18 331 -365 337 -359 2 3 -60 74 -138 158 -178 190
-203 216 -199 201z"/>
<path d="M58628 60193 l-28 -4 0 -11 0 -10 35 6 34 7 80 -159 c69 -137 106
-217 203 -430 11 -24 22 -42 24 -39 5 5 -117 280 -214 481 -64 133 -85 168
-100 165 -4 -1 -19 -4 -34 -6z"/>
<path d="M57425 60175 l-60 -12 17 -7 17 -8 55 12 56 11 0 10 0 9 -12 -1 c-7
-1 -40 -7 -73 -14z"/>
<path d="M57280 60133 c0 -27 -7 -85 -16 -131 l-17 -83 11 -11 10 -10 11 54
c15 71 31 211 25 220 -3 5 -9 8 -15 8 l-9 0 0 -47z"/>
<path d="M61663 60131 c-101 -21 -185 -36 -187 -33 -3 2 -10 1 -16 -3 l-11 -7
10 -12 10 -12 71 -345 c39 -189 73 -352 76 -361 l5 -18 -19 0 -19 0 -34 180
-34 180 -8 0 -8 0 5 -17 c13 -46 68 -344 64 -348 -2 -2 -94 -23 -204 -46
l-199 -41 -10 -10 -10 -10 20 5 c11 3 107 24 213 47 l194 40 8 -5 9 -5 6 10
c3 5 10 10 14 10 l8 0 73 -371 c41 -204 76 -366 78 -360 4 11 -12 99 -103 570
l-31 163 11 4 c5 2 294 60 640 130 347 69 632 128 634 130 2 2 2 6 -1 9 -5 5
-621 -119 -1080 -217 l-198 -42 -6 7 c-10 9 -156 719 -149 725 2 3 98 24 212
47 l208 43 -30 0 c-16 0 -112 -17 -212 -37z"/>
<path d="M57020 60122 c0 -15 47 -47 101 -68 57 -22 91 -48 107 -82 l13 -27
-6 30 -6 30 -27 22 c-15 12 -52 31 -82 43 l-55 21 -22 21 -23 21 0 -11z"/>
<path d="M93014 60002 c4 -6 52 -35 106 -63 l100 -51 57 -44 c73 -57 91 -57
21 0 l-54 44 -119 63 -118 63 7 -12z"/>
<path d="M62856 59972 l-5 -9 41 -192 42 -191 8 8 9 9 -42 189 c-22 104 -42
190 -44 192 -2 2 -6 -1 -9 -6z"/>
<path d="M93000 59959 c8 -5 53 -29 100 -53 47 -24 114 -65 148 -91 77 -56 94
-54 20 3 -51 39 -255 152 -274 152 l-9 0 15 -11z"/>
<path d="M48861 59784 c-68 -90 -122 -166 -120 -169 4 -3 191 237 247 316 l13
19 -8 0 c-4 -1 -64 -75 -132 -166z"/>
<path d="M41050 59818 c-1 -18 -14 -95 -29 -171 l-28 -138 11 4 10 3 28 135
c15 74 27 149 28 167 l0 32 -10 0 -10 0 0 -32z"/>
<path d="M59185 59720 c-88 -66 -169 -126 -180 -135 l-20 -16 31 15 c22 11
269 190 333 243 2 1 2 5 0 7 -2 3 -76 -49 -164 -114z"/>
<path d="M28740 59802 l0 -8 153 -13 c83 -7 168 -15 187 -18 l35 -5 -10 10
-10 10 -160 11 c-88 7 -168 15 -177 17 l-18 5 0 -9z"/>
<path d="M61992 59790 c3 -8 20 -85 38 -170 l33 -155 10 -10 9 -10 -5 20 c-3
11 -20 88 -37 170 l-32 150 -11 10 -10 10 5 -15z"/>
<path d="M62990 59776 c0 -13 113 -577 310 -1541 85 -419 154 -732 163 -741
l7 -7 0 19 c0 10 -20 116 -45 234 -68 323 -120 576 -277 1347 l-143 703 -7 0
c-5 0 -8 -6 -8 -14z"/>
<path d="M46790 59664 c0 -5 19 -22 42 -38 l41 -29 46 -4 46 -5 20 16 20 15
-37 -10 -38 -10 -34 10 -35 9 -35 27 -36 27 0 -8z"/>
<path d="M62960 59610 l0 -13 7 6 6 7 -6 7 -7 6 0 -13z"/>
<path d="M83610 59573 c0 -6 45 -91 101 -190 136 -240 503 -938 519 -988 l13
-40 4 11 c7 21 -37 115 -198 422 -131 248 -419 773 -435 791 -2 2 -4 -1 -4 -6z"/>
<path d="M62505 59484 c-225 -45 -413 -80 -417 -78 -3 2 -10 -1 -13 -7 l-7
-10 -14 5 -15 6 -17 -10 c-9 -5 -96 -26 -192 -46 -96 -20 -177 -38 -179 -40
-10 -9 36 -2 190 31 90 19 172 35 181 35 l18 0 5 -22 c3 -13 21 -90 40 -172
18 -81 36 -151 39 -154 l6 -5 0 9 c0 5 -18 85 -40 179 -21 93 -37 171 -35 173
2 3 10 2 18 -1 l13 -5 46 -218 c26 -121 59 -284 74 -364 l28 -145 4 17 3 17
-62 303 c-34 167 -66 325 -72 351 l-10 48 6 5 c3 3 187 42 409 87 222 44 405
82 407 84 16 12 -50 1 -414 -73z"/>
<path d="M91357 59548 c6 -7 67 -88 137 -180 70 -92 132 -170 138 -174 l11 -7
-9 15 c-24 40 -270 357 -278 358 l-8 0 9 -12z"/>
<path d="M30363 59468 c2 -7 24 -71 47 -143 l42 -130 -10 -65 c-5 -36 -13 -73
-17 -82 l-7 -18 9 0 10 0 11 39 12 38 0 59 0 58 -42 128 -42 128 -9 0 -9 0 5
-12z"/>
<path d="M41020 59457 c8 -8 60 -43 114 -77 l99 -62 69 -29 c37 -15 68 -25 68
-21 0 4 -27 17 -59 30 l-59 23 -103 65 c-57 36 -112 70 -124 76 l-20 10 15
-15z"/>
<path d="M94130 59442 c0 -4 83 -43 185 -86 l185 -78 174 -97 c95 -54 187
-108 204 -119 16 -12 36 -22 44 -22 l13 0 -69 45 c-38 25 -131 79 -207 121
-122 67 -207 106 -461 214 l-68 29 0 -7z"/>
<path d="M46982 59410 l-12 -20 0 -27 0 -27 9 10 c8 9 25 84 19 84 -2 0 -9 -9
-16 -20z"/>
<path d="M63755 59378 c4 -14 150 -727 335 -1643 61 -302 156 -760 211 -1016
54 -256 99 -469 99 -474 l0 -7 14 5 14 5 21 -14 21 -15 0 -33 0 -33 -18 -16
-19 -17 -29 0 -30 0 -12 12 -12 12 -6 -6 -6 -6 24 -16 25 -16 31 6 31 6 21 23
22 24 -9 38 -9 38 -29 15 c-17 8 -31 15 -32 16 -7 1 -185 851 -354 1684 -105
514 -213 1049 -241 1188 l-52 252 -7 0 -8 0 4 -12z"/>
<path d="M59872 59325 c-117 -24 -216 -46 -219 -49 l-6 -6 9 0 c14 0 456 89
469 94 33 14 -67 -2 -253 -39z"/>
<path d="M61378 59252 c-120 -26 -218 -50 -218 -53 l0 -7 138 29 c75 16 173
36 217 45 44 10 84 21 90 25 l9 9 -9 -1 c-6 -1 -108 -22 -227 -47z"/>
<path d="M59140 59184 c0 -5 16 -61 35 -124 20 -63 47 -152 61 -198 14 -46 28
-81 31 -79 4 5 -113 397 -122 406 -3 2 -5 0 -5 -5z"/>
<path d="M46421 59123 c69 -88 203 -243 206 -239 6 6 -199 255 -211 255 l-8 1
13 -17z"/>
<path d="M50070 59103 c0 -7 179 -161 288 -247 l25 -20 -4 11 c-2 6 -49 48
-104 94 -55 45 -124 103 -152 127 -29 25 -53 40 -53 35z"/>
<path d="M49101 58834 c-90 -119 -161 -218 -158 -220 2 -3 77 93 166 212 90
119 161 218 158 220 -2 3 -77 -93 -166 -212z"/>
<path d="M55106 58834 c-33 -120 -61 -228 -63 -239 l-4 -20 9 15 c14 21 124
439 120 452 -2 6 -30 -87 -62 -208z"/>
<path d="M61661 58913 c-1 -11 14 -94 33 -182 l34 -161 -32 -8 c-17 -5 -109
-29 -203 -53 -95 -24 -173 -47 -173 -51 l0 -6 188 48 c103 27 198 51 212 54
14 3 129 26 255 51 l230 47 10 9 9 9 -12 0 c-17 0 -455 -91 -464 -96 l-7 -5
-6 23 c-3 13 -19 91 -35 173 -17 83 -33 155 -35 160 l-3 10 -1 -22z"/>
<path d="M63810 58922 c0 -4 36 -180 79 -392 44 -212 145 -707 226 -1100 153
-749 154 -754 161 -747 3 3 -385 1910 -446 2195 -10 45 -20 68 -20 44z"/>
<path d="M62853 58802 c-94 -21 -175 -41 -180 -45 l-8 -9 25 6 c14 3 104 22
200 42 195 39 208 42 165 42 -16 0 -107 -16 -202 -36z"/>
<path d="M39556 58811 c5 -5 88 -37 184 -72 96 -34 188 -68 203 -76 16 -8 31
-12 34 -9 3 3 -10 12 -28 20 -42 19 -386 146 -396 146 l-7 0 10 -9z"/>
<path d="M63146 58565 c48 -238 58 -275 68 -264 2 2 -19 120 -47 262 l-52 257
-10 0 -11 0 52 -255z"/>
<path d="M62885 58767 c-104 -21 -389 -79 -633 -128 l-443 -90 -17 3 -17 4
-10 -12 -10 -11 -195 -48 c-107 -26 -208 -54 -225 -61 l-30 -14 -410 -85
c-225 -47 -420 -86 -432 -87 l-23 -2 8 -7 7 -7 426 88 426 88 19 11 c19 11
412 111 436 111 l13 0 74 -372 c41 -205 78 -380 82 -388 l8 -15 1 20 c0 12
-33 187 -74 390 -41 204 -73 371 -73 372 1 1 202 43 447 93 245 51 533 110
640 132 107 22 197 42 199 44 12 11 -20 6 -194 -29z"/>
<path d="M84010 58748 c0 -3 35 -71 77 -150 42 -78 87 -170 99 -203 l23 -60 0
16 c1 31 -26 94 -104 239 -72 135 -95 173 -95 158z"/>
<path d="M84488 58387 l-228 -101 0 -13 c0 -17 1 -17 62 12 29 13 134 60 233
104 l180 80 -2 8 c-1 4 -5 8 -10 9 -4 1 -110 -43 -235 -99z"/>
<path d="M75447 58303 c-4 -91 -7 -295 -7 -453 l0 -287 50 -69 51 -68 77 -35
77 -35 65 2 c36 1 81 6 100 12 l35 9 -65 -6 c-36 -4 -80 -6 -99 -5 l-33 2 -75
33 -75 32 -48 72 -48 73 6 445 c3 245 3 445 0 445 -3 0 -8 -75 -11 -167z"/>
<path d="M75488 58245 c-3 -126 -4 -232 -2 -234 12 -13 14 27 12 235 l-3 229
-7 -230z"/>
<path d="M17063 58357 c-34 -38 -176 -264 -218 -348 l-28 -54 -5 -72 -5 -72
28 -68 c15 -37 52 -111 83 -163 l55 -95 140 -184 140 -184 23 -47 23 -48 12
-86 12 -86 9 0 8 0 -1 28 c0 45 -25 165 -42 203 l-16 35 -143 190 -144 189
-56 95 c-31 53 -68 124 -82 159 l-26 64 0 56 0 56 29 60 c16 33 74 134 130
224 97 157 118 197 74 148z"/>
<path d="M55905 58353 c12 -12 406 -116 412 -109 5 5 -46 20 -242 71 -77 20
-149 39 -160 42 l-20 5 10 -9z"/>
<path d="M60650 58315 l-205 -44 -17 5 -18 5 -16 -9 -16 -9 49 2 48 2 190 38
c105 21 194 42 200 46 l9 9 -9 -1 c-6 0 -102 -20 -215 -44z"/>
<path d="M91790 58114 c1 -11 340 -247 346 -241 3 3 -68 55 -158 117 -90 62
-169 117 -175 123 l-13 9 0 -8z"/>
<path d="M62583 57917 l-621 -132 -9 -9 -8 -8 20 5 c11 4 301 65 644 137 344
72 627 133 630 135 11 12 -68 -4 -656 -128z"/>
<path d="M49270 58026 c0 -2 9 -25 20 -51 l20 -47 36 -44 37 -44 90 -45 c49
-25 92 -43 95 -40 7 7 8 7 -81 50 l-77 38 -48 52 -48 52 -14 42 -13 41 -9 0
c-4 0 -8 -2 -8 -4z"/>
<path d="M63260 58020 c0 -16 92 -465 96 -469 2 -2 7 -2 10 1 l5 6 -47 236
-47 236 -8 0 c-5 0 -9 -4 -9 -10z"/>
<path d="M62798 57921 c-224 -48 -411 -91 -415 -95 l-8 -8 20 5 c11 3 207 45
435 92 228 48 417 89 419 91 12 12 -81 -6 -451 -85z"/>
<path d="M16880 57946 c-6 -24 -13 -66 -13 -93 l-2 -50 48 -96 48 -97 9 0 c15
0 14 3 -34 98 -24 48 -46 101 -50 118 l-7 31 11 44 c6 24 14 54 17 67 l5 22
-10 0 -9 0 -13 -44z"/>
<path d="M46276 57971 l-6 -9 46 -57 47 -57 74 -131 c41 -73 79 -136 84 -141
l9 -10 0 13 c0 7 -32 70 -71 141 l-72 128 -53 66 -52 67 -6 -10z"/>
<path d="M35758 57840 c-56 -10 -179 -49 -192 -61 -14 -13 -7 -11 70 15 l69
23 85 12 85 13 90 -6 90 -5 -25 8 -25 9 -100 0 c-55 0 -121 -4 -147 -8z"/>
<path d="M55710 57774 c-228 -29 -421 -53 -429 -54 l-14 0 6 -6 6 -6 428 52
428 53 10 9 9 8 -14 -1 c-8 -1 -202 -25 -430 -55z"/>
<path d="M53802 57690 c15 -43 201 -430 205 -426 6 5 -185 417 -200 431 l-10
10 5 -15z"/>
<path d="M81240 57604 c-124 -17 -393 -70 -450 -88 -25 -8 -72 -26 -105 -41
-33 -15 -71 -31 -84 -36 l-24 -10 11 -11 11 -11 78 35 c43 20 101 43 129 52
69 22 335 73 461 88 l103 12 0 13 0 13 -17 -1 c-10 -1 -61 -7 -113 -15z"/>
<path d="M49960 57572 c0 -13 126 -60 355 -131 127 -40 242 -77 257 -83 l27
-10 46 -54 c26 -30 51 -54 56 -54 l10 0 -51 60 -52 59 -42 16 c-22 8 -147 49
-276 89 -129 41 -256 83 -282 95 l-48 20 0 -7z"/>
<path d="M34842 57447 c-122 -66 -221 -122 -218 -124 4 -4 429 219 445 233 2
2 2 6 0 8 -2 2 -104 -51 -227 -117z"/>
<path d="M37995 57530 c10 -11 23 -20 28 -20 l10 0 -18 20 c-10 11 -23 20 -28
20 l-10 0 18 -20z"/>
<path d="M54090 57323 c0 -6 41 -96 90 -202 50 -105 90 -194 90 -197 0 -3 -10
-4 -22 -2 l-23 3 -88 179 c-49 98 -90 176 -93 173 -2 -2 35 -85 83 -183 l88
-179 38 -6 37 -6 0 7 c0 7 -189 412 -196 419 -2 2 -4 0 -4 -6z"/>
<path d="M37944 57261 l-111 -48 -96 -73 c-54 -41 -97 -78 -97 -82 0 -5 48 27
106 71 l105 80 110 43 c60 24 109 46 109 51 0 11 -6 9 -126 -42z"/>
<path d="M46550 56886 c0 -15 58 -422 63 -438 l2 -7 13 8 14 8 -22 144 c-21
140 -52 285 -64 297 l-6 5 0 -17z"/>
<path d="M79448 56581 l-37 -28 -96 -32 -97 -32 -84 -6 -84 -6 0 -9 0 -8 58 5
c117 12 139 16 228 46 l90 31 40 34 c47 40 34 44 -18 5z"/>
<path d="M82699 56505 c-3 -3 41 -200 99 -437 l104 -433 1 -110 2 -110 -24
-54 -23 -55 -36 -42 c-19 -24 -55 -57 -79 -74 l-43 -32 -155 -53 c-84 -29
-151 -55 -149 -58 3 -3 75 19 159 49 l154 53 49 36 c62 44 112 105 141 170
l23 50 0 100 -1 100 -108 453 c-60 249 -112 450 -114 447z"/>
<path d="M90620 56490 l0 -8 123 -52 c67 -29 150 -68 185 -87 l62 -35 0 9 c0
10 -154 89 -277 142 l-93 40 0 -9z"/>
<path d="M74274 56440 l-101 -48 -87 -62 -86 -61 5 -9 5 -9 88 62 88 62 107
50 c97 46 128 66 95 64 -7 0 -59 -22 -114 -49z"/>
<path d="M54540 56431 c44 -26 338 -89 419 -91 l14 0 -6 6 c-3 3 -52 12 -109
20 l-103 15 -107 29 c-112 31 -133 35 -108 21z"/>
<path d="M74471 56383 c30 -51 188 -247 203 -252 l11 -4 -11 14 c-6 8 -49 61
-95 119 -46 58 -90 117 -98 133 -8 15 -18 27 -24 27 l-9 0 23 -37z"/>
<path d="M26450 56403 c0 -8 331 -183 346 -183 12 0 -40 30 -208 118 -76 40
-138 69 -138 65z"/>
<path d="M37786 56313 l-19 -68 -21 -162 -22 -163 8 0 c4 0 8 6 8 13 0 6 9 80
19 162 l20 150 20 65 c24 76 23 70 13 70 l-8 0 -18 -67z"/>
<path d="M1600 56191 l-15 -5 135 -17 c74 -10 160 -21 190 -25 l55 -7 -6 6
c-3 4 -72 16 -155 27 -82 11 -158 21 -169 23 -12 2 -27 1 -35 -2z"/>
<path d="M76526 56182 l-5 -9 87 -196 87 -196 9 9 10 10 -84 187 c-45 104 -86
192 -90 196 l-8 9 -6 -10z"/>
<path d="M63644 56105 l-16 -24 7 -11 7 -12 19 31 c22 36 23 41 9 41 -5 0 -17
-11 -26 -25z"/>
<path d="M35558 56038 c-21 -12 -38 -24 -38 -27 0 -9 199 -85 205 -79 3 3 -35
20 -85 39 l-90 33 0 8 c0 5 11 14 25 20 14 6 25 15 25 20 0 11 1 11 -42 -14z"/>
<path d="M74525 55970 l-69 -69 13 -23 c6 -13 19 -35 28 -49 l16 -26 -6 -16
c-3 -8 -94 -93 -201 -188 -108 -95 -194 -174 -192 -177 3 -2 94 74 203 170
l198 175 3 31 3 32 -20 26 c-12 15 -21 32 -21 38 0 6 30 41 67 78 l67 68 -10
0 c-5 0 -41 -31 -79 -70z"/>
<path d="M63660 55980 c0 -6 7 -13 15 -17 l16 -5 7 6 6 7 -14 9 c-20 13 -30
12 -30 0z"/>
<path d="M36435 55859 c-38 -17 -103 -39 -144 -51 l-74 -20 -34 5 -33 6 0 -11
0 -11 68 5 67 5 110 43 c61 23 114 46 120 51 l9 9 -9 -1 c-6 0 -41 -14 -80
-30z"/>
<path d="M57630 55836 c0 -6 310 -279 330 -290 21 -11 -53 59 -193 184 -110
98 -137 119 -137 106z"/>
<path d="M44660 55822 c0 -5 11 -17 23 -25 13 -8 88 -66 166 -127 79 -61 145
-109 147 -107 4 4 -291 241 -323 261 l-13 7 0 -9z"/>
<path d="M61800 55695 l0 -15 9 0 c5 0 11 7 15 15 l5 15 -14 0 -15 0 0 -15z"/>
<path d="M25990 55663 c0 -4 96 -77 213 -160 182 -131 246 -175 315 -217 l12
-7 0 8 c0 4 -18 18 -39 30 -32 19 -137 92 -448 317 -29 21 -53 34 -53 29z"/>
<path d="M82945 55507 l0 -122 -29 -55 c-16 -30 -49 -78 -74 -107 l-46 -54
-42 -24 -42 -25 -171 -59 c-93 -33 -225 -73 -293 -91 l-123 -32 -30 -18 c-17
-10 -41 -34 -54 -52 l-24 -33 34 31 c58 51 63 53 210 93 79 22 215 64 303 95
l158 56 42 24 43 25 44 53 c25 29 57 74 71 100 l26 47 8 43 8 43 -3 80 c-1 44
-6 85 -9 92 l-7 12 0 -122z"/>
<path d="M13875 55552 c-121 -30 -215 -57 -209 -59 11 -4 455 104 463 113 11
11 -51 -2 -254 -54z"/>
<path d="M61006 55488 c12 -145 44 -431 49 -436 9 -9 5 38 -15 213 -11 94 -20
198 -20 233 l0 62 -10 0 -10 0 6 -72z"/>
<path d="M63876 55532 l-7 -11 26 -148 c27 -151 155 -765 161 -772 2 -2 7 -2
10 2 l6 6 -66 313 c-36 172 -78 378 -92 458 -13 80 -26 149 -28 155 l-2 9 -8
-12z"/>
<path d="M17651 55523 c2 -6 83 -216 179 -467 152 -396 190 -486 190 -448 0 5
-78 213 -174 463 l-174 453 -12 4 -12 5 3 -10z"/>
<path d="M56166 55511 c97 -91 350 -311 357 -311 9 0 -18 25 -223 208 -69 62
-129 112 -134 112 l-10 0 10 -9z"/>
<path d="M56141 55483 c2 -7 126 -121 275 -255 149 -134 308 -276 352 -317 45
-40 82 -69 82 -64 0 5 -140 134 -312 288 -402 362 -402 362 -397 348z"/>
<path d="M52770 55452 c0 -4 94 -50 208 -103 l207 -96 -2 -19 c-1 -11 9 -78
23 -150 l25 -131 -57 -94 c-31 -52 -109 -170 -173 -264 -117 -170 -242 -361
-405 -617 -48 -75 -125 -187 -172 -249 -47 -61 -83 -114 -80 -116 12 -13 152
185 406 574 107 164 249 380 315 480 66 100 134 204 150 230 l31 49 -23 114
c-12 63 -22 134 -22 156 l-1 42 -47 22 c-280 133 -383 180 -383 172z"/>
<path d="M44101 55288 c7 -13 86 -97 177 -188 l166 -165 -145 150 c-79 83
-156 167 -169 187 -14 21 -29 38 -33 38 l-8 0 12 -22z"/>
<path d="M50925 55260 c-16 -16 -26 -32 -24 -35 3 -3 18 9 34 25 16 16 26 32
24 35 -3 3 -18 -9 -34 -25z"/>
<path d="M12650 55211 c-30 -15 -82 -42 -115 -59 l-60 -32 -45 -10 c-25 -5
-72 -13 -105 -17 l-60 -7 21 -3 c11 -2 55 0 97 5 l76 10 53 26 c74 35 196 101
205 109 l6 7 -9 0 c-5 0 -34 -13 -64 -29z"/>
<path d="M33070 55204 c0 -9 201 -214 211 -214 2 0 34 -9 72 -19 l67 -20 0 8
c0 4 -24 13 -52 20 -29 8 -66 20 -83 29 l-30 15 -92 96 -92 96 -1 -11z"/>
<path d="M48685 55075 c-126 -63 -234 -116 -240 -118 -5 -2 -8 -6 -5 -9 3 -3
118 50 255 118 138 67 243 123 235 122 -8 0 -118 -51 -245 -113z"/>
<path d="M55308 55128 l-28 -10 0 -9 0 -9 28 6 c15 4 31 10 35 14 l9 8 -9 5
c-4 2 -20 0 -35 -5z"/>
<path d="M49740 54945 c-91 -46 -159 -84 -152 -84 14 -1 332 156 332 164 0 10
-19 2 -180 -80z"/>
<path d="M53285 54930 c4 -14 9 -32 12 -42 l5 -16 -204 -304 c-112 -166 -284
-425 -381 -573 l-176 -271 -34 -74 c-19 -41 -39 -86 -44 -100 l-10 -25 -23 53
c-12 28 -26 52 -31 52 l-8 0 67 -142 c73 -158 70 -153 76 -147 2 2 -13 41 -34
86 l-39 83 9 5 c4 3 11 21 14 40 l7 35 46 87 46 88 242 365 c133 201 299 452
369 558 l126 193 -20 37 -21 37 6 -25z"/>
<path d="M31550 54769 l-93 -151 -69 -140 -68 -139 -34 -112 c-19 -62 -47
-163 -62 -226 l-27 -114 -83 -198 c-46 -109 -84 -202 -84 -206 l0 -7 9 9 c6 6
46 96 91 200 l81 190 24 112 c13 61 41 165 62 230 l38 118 76 155 76 155 86
138 c47 75 82 137 78 137 -5 0 -50 -68 -101 -151z"/>
<path d="M48431 54908 c6 -28 234 -496 237 -488 3 8 -223 488 -235 500 -3 3
-4 -3 -2 -12z"/>
<path d="M52245 54732 c-60 -92 -183 -265 -273 -385 -90 -121 -166 -225 -169
-233 l-5 -14 6 0 c22 0 568 781 555 794 -2 2 -53 -71 -114 -162z"/>
<path d="M81890 54777 l-85 -83 -56 -12 c-89 -20 -131 -33 -126 -39 3 -3 50 5
104 18 l98 24 83 79 c75 72 94 96 75 96 -5 0 -46 -38 -93 -83z"/>
<path d="M48051 54725 c6 -14 75 -149 171 -333 44 -84 82 -151 85 -149 5 5
-234 467 -249 482 l-10 10 3 -10z"/>
<path d="M32056 54692 c27 -25 364 -240 364 -233 0 9 -352 241 -366 241 l-8 0
10 -8z"/>
<path d="M50424 54647 c16 -12 103 -82 195 -154 91 -73 170 -133 174 -133 20
0 -7 25 -153 142 -183 146 -214 168 -232 167 l-13 0 29 -22z"/>
<path d="M45756 54598 c-27 -209 -50 -355 -58 -363 -3 -3 -67 -6 -144 -7
l-139 -2 -60 19 c-33 10 -67 24 -75 30 -8 7 -21 15 -27 19 l-13 7 0 -9 c0 -4
17 -18 38 -30 l39 -22 68 -15 67 -16 132 5 131 6 3 22 c1 13 11 79 22 148 23
152 34 250 27 250 -3 0 -8 -19 -11 -42z"/>
<path d="M45786 54553 c-9 -103 -35 -303 -42 -328 l-6 -20 10 10 9 10 11 75
c6 41 16 122 22 180 6 58 13 115 16 128 l4 22 -8 0 -9 0 -7 -77z"/>
<path d="M17767 54595 c-93 -13 -171 -26 -174 -29 -8 -8 -26 -9 190 18 104 13
191 27 194 30 l6 6 -24 -1 c-13 -1 -100 -11 -192 -24z"/>
<path d="M54956 54329 c-48 -156 -105 -341 -127 -411 l-40 -127 -67 -43 c-38
-24 -130 -72 -205 -107 -75 -35 -137 -68 -137 -72 l0 -8 165 81 166 80 17 -13
c9 -7 32 -26 50 -43 17 -16 32 -26 32 -21 0 4 -19 26 -42 48 l-43 39 20 14
c11 7 28 19 38 26 l17 13 126 404 c68 222 123 408 121 414 -1 5 -42 -118 -91
-274z"/>
<path d="M44811 54574 c0 -5 96 -83 213 -173 l212 -164 45 -22 44 -22 64 -12
63 -12 134 7 134 7 0 8 0 8 -32 -4 c-18 -2 -77 -7 -131 -9 l-98 -6 -71 15 -71
15 -51 30 c-28 16 -125 87 -216 157 -91 71 -182 141 -202 157 l-38 28 1 -8z"/>
<path d="M47731 54573 c-1 -7 17 -61 40 -121 l41 -109 47 -55 47 -55 44 -97
c24 -53 47 -96 51 -96 4 0 -15 48 -42 107 l-50 106 -44 51 -44 52 -45 114
c-24 63 -45 110 -45 103z"/>
<path d="M51885 54403 c-165 -215 -178 -233 -168 -232 4 0 24 21 43 47 20 26
85 111 144 190 60 78 107 144 105 147 -3 2 -59 -66 -124 -152z"/>
<path d="M80975 54490 c-104 -26 -203 -50 -219 -54 -15 -4 -26 -9 -24 -12 5
-4 429 95 437 102 14 13 -24 6 -194 -36z"/>
<path d="M52996 54495 c10 -8 24 -14 29 -14 l10 0 -19 14 c-11 8 -24 15 -30
15 l-10 0 20 -15z"/>
<path d="M85140 54406 l-165 -43 -57 -29 c-32 -15 -58 -31 -58 -36 l0 -7 73
33 72 33 155 38 c85 21 159 42 165 46 l9 9 -14 -1 c-8 0 -89 -20 -180 -43z"/>
<path d="M53040 54424 c0 -11 470 -317 477 -311 2 2 -92 67 -209 144 -117 76
-225 147 -240 157 l-28 18 0 -8z"/>
<path d="M32406 54411 c23 -21 346 -232 350 -228 5 4 -342 237 -353 237 l-7 0
10 -9z"/>
<path d="M88035 54386 l-20 -15 10 -2 c6 0 27 0 48 1 l38 2 14 -12 14 -12 13
4 13 5 -25 15 c-14 9 -39 19 -55 22 l-30 7 -20 -15z"/>
<path d="M50311 54336 c53 -50 263 -225 267 -222 4 5 -8 16 -158 145 -52 44
-99 81 -104 81 -5 0 -7 -2 -5 -4z"/>
<path d="M50290 54306 c0 -3 59 -55 130 -117 l130 -113 -7 -6 c-5 -4 -98 -46
-208 -94 -307 -134 -320 -140 -477 -223 l-147 -77 4 -7 5 -7 152 80 c140 74
250 125 567 267 63 28 120 51 126 51 6 0 32 -13 58 -30 26 -16 53 -30 60 -30
7 0 -22 22 -63 49 l-75 48 -123 107 c-117 100 -132 112 -132 102z"/>
<path d="M33703 54185 l-43 -52 0 -14 1 -14 30 35 c17 19 39 47 50 62 l19 27
-7 4 -8 5 -42 -53z"/>
<path d="M88006 54212 l-5 -9 33 -18 33 -18 26 7 27 6 0 10 0 10 -29 -6 -29
-6 -25 17 -25 16 -6 -9z"/>
<path d="M32790 54204 c1 -5 34 -35 75 -67 l75 -57 0 -30 0 -29 -42 -39 c-24
-22 -59 -54 -78 -71 -19 -18 -30 -31 -23 -29 7 2 44 31 83 66 l70 63 0 39 0
38 -67 53 c-38 28 -74 56 -80 62 l-13 9 0 -8z"/>
<path d="M57570 54196 c0 -8 341 -306 351 -306 5 0 -69 70 -166 155 -164 144
-185 162 -185 151z"/>
<path d="M18247 54163 l-5 -8 43 -103 c23 -57 57 -157 76 -223 l34 -119 8 0
c12 0 8 18 -28 139 -30 100 -107 306 -119 318 -2 3 -6 1 -9 -4z"/>
<path d="M6180 54088 l0 -15 198 -58 c108 -32 203 -60 210 -62 l12 -5 0 14 0
14 -192 58 c-106 33 -201 61 -210 64 l-18 4 0 -14z"/>
<path d="M52030 53909 l95 -90 90 -64 c49 -35 91 -62 94 -60 5 6 11 2 -79 64
l-75 52 -102 95 c-56 51 -105 94 -110 94 -4 -1 35 -41 87 -91z"/>
<path d="M31246 53919 l-6 -40 -86 -201 c-46 -111 -83 -205 -82 -210 2 -5 43
85 91 200 l89 209 5 42 c7 53 -2 54 -11 0z"/>
<path d="M50720 53921 c0 -4 -17 -19 -37 -33 l-38 -25 -215 -88 c-118 -48
-219 -92 -225 -98 l-10 -10 15 5 c82 29 454 188 483 206 l37 25 0 13 c0 8 -2
14 -5 14 -3 0 -5 -4 -5 -9z"/>
<path d="M9456 53903 l-5 -13 10 0 c39 0 291 -45 362 -64 l86 -24 4 12 4 11
-86 23 c-47 13 -150 34 -228 46 l-142 22 -5 -13z"/>
<path d="M49315 53750 l-240 -118 15 -1 16 -1 224 110 c124 61 227 115 228
120 2 6 2 10 0 10 -1 -1 -111 -54 -243 -120z"/>
<path d="M22365 53740 l-108 -109 -64 -17 c-35 -9 -63 -20 -63 -24 l0 -8 69
20 69 21 108 108 c59 60 106 111 103 113 -3 3 -54 -44 -114 -104z"/>
<path d="M19950 53833 c78 -3 299 -22 355 -29 l40 -6 -10 10 -10 9 -135 12
c-74 6 -173 10 -220 9 l-85 -2 65 -3z"/>
<path d="M7715 53810 c-38 -4 -114 -8 -167 -9 l-98 -1 0 -15 0 -15 73 0 c39 0
138 5 220 12 l147 12 0 13 0 13 -52 -2 c-29 0 -84 -4 -123 -8z"/>
<path d="M61247 53735 c-10 -33 -87 -461 -86 -481 l0 -19 9 20 c13 29 92 473
87 488 l-4 12 -6 -20z"/>
<path d="M77468 53633 l-188 -74 0 -8 0 -8 195 76 c107 42 195 79 195 84 0 11
-3 10 -202 -70z"/>
<path d="M80941 53697 c-1 -15 91 -396 105 -436 2 -8 6 -12 9 -10 2 3 -23 108
-55 234 -32 127 -59 222 -59 212z"/>
<path d="M10367 53666 l-4 -11 161 -63 c247 -96 372 -139 473 -161 l93 -21 65
0 64 0 36 17 35 17 0 13 0 14 -29 -16 -29 -15 -55 -6 -54 -6 -104 22 -104 23
-120 42 c-66 24 -188 70 -272 103 l-152 59 -4 -11z"/>
<path d="M49740 53655 c0 -5 5 -17 10 -25 l10 -15 0 10 c0 6 -5 17 -10 25
l-10 15 0 -10z"/>
<path d="M58290 53563 c0 -11 105 -77 164 -102 l49 -21 63 0 62 0 51 12 c28 6
51 15 51 19 l0 7 -52 -14 -53 -14 -55 0 -55 1 -66 28 c-36 15 -87 42 -112 60
-26 18 -47 28 -47 24z"/>
<path d="M21980 53510 c-144 -44 -293 -100 -286 -107 3 -3 45 10 93 30 48 19
140 49 203 67 63 18 122 36 130 41 l15 8 -15 0 c-8 -1 -71 -18 -140 -39z"/>
<path d="M65473 53452 l-223 -46 0 -6 0 -7 224 46 c124 25 228 50 232 54 l7 7
-9 -1 c-5 0 -109 -22 -231 -47z"/>
<path d="M52007 53473 l-6 -9 55 -63 c30 -35 70 -87 89 -117 l35 -54 10 0 c5
0 10 3 10 6 0 11 -101 149 -144 197 l-44 49 -5 -9z"/>
<path d="M51927 53414 l-6 -7 63 -76 c35 -42 76 -97 91 -121 l28 -45 5 13 4
13 -27 41 c-24 37 -145 188 -150 188 -1 0 -5 -3 -8 -6z"/>
<path d="M54730 53375 c0 -6 7 -21 16 -33 l16 -23 151 -101 152 -102 55 -16
c30 -10 72 -20 93 -24 l37 -7 0 15 0 16 -27 -6 -28 -5 -60 19 -60 18 -151 101
-151 101 -21 29 -21 28 -1 -10z"/>
<path d="M49770 53320 l0 -13 7 6 6 7 -6 7 -7 6 0 -13z"/>
<path d="M14196 53292 l-5 -9 112 -85 c62 -47 145 -111 185 -142 l72 -57 0 13
-1 13 -67 50 c-36 28 -111 86 -167 129 -55 44 -105 83 -112 88 l-11 9 -6 -9z"/>
<path d="M50245 53175 c-126 -63 -225 -114 -219 -114 14 -1 464 216 464 224 0
10 -17 2 -245 -110z"/>
<path d="M52442 53266 l-22 -24 -103 -7 -102 -8 22 -8 22 -8 88 10 87 10 23
21 c23 21 30 38 16 38 -5 0 -18 -11 -31 -24z"/>
<path d="M49801 53254 l1 -19 5 13 5 13 -6 6 -6 6 1 -19z"/>
<path d="M50765 53168 c-104 -53 -184 -97 -176 -98 12 0 356 173 370 186 20
18 -31 -5 -194 -88z"/>
<path d="M6190 53253 l0 -9 63 -15 62 -14 157 10 156 10 9 9 8 8 -60 -6 c-33
-3 -108 -8 -166 -12 l-106 -6 -44 12 c-24 6 -52 13 -61 16 l-18 5 0 -8z"/>
<path d="M53615 53211 c-38 -15 -205 -99 -370 -185 -165 -87 -337 -176 -382
-197 -46 -21 -83 -40 -83 -43 0 -15 158 62 510 247 l315 165 43 13 42 12 0 9
c0 10 7 12 -75 -21z"/>
<path d="M52270 53197 c0 -12 122 -272 152 -325 17 -29 32 -51 35 -48 3 3 -5
21 -17 40 -12 20 -52 102 -90 182 -38 80 -71 149 -74 152 l-6 5 0 -6z"/>
<path d="M56077 53162 c-9 -2 -17 -7 -17 -10 l0 -7 192 3 192 3 12 7 13 7
-188 0 c-103 0 -195 -1 -204 -3z"/>
<path d="M52065 53124 c-11 -8 -123 -69 -248 -136 -125 -66 -226 -123 -223
-125 6 -6 474 243 496 263 l14 14 -9 0 c-6 0 -19 -7 -30 -16z"/>
<path d="M66453 53031 c-123 -25 -223 -49 -223 -52 0 -9 442 81 455 92 l9 9
-9 -1 c-6 -1 -110 -22 -232 -48z"/>
<path d="M49950 53017 c0 -10 73 -174 81 -182 l10 -10 -19 50 c-36 89 -61 145
-67 145 -3 0 -5 -1 -5 -3z"/>
<path d="M52886 52764 c-191 -96 -346 -177 -343 -180 3 -3 94 40 203 95 282
141 511 261 499 260 -5 0 -167 -79 -359 -175z"/>
<path d="M77910 52849 c0 -26 62 -264 93 -353 l33 -100 7 11 7 10 -34 99 c-18
55 -45 154 -61 222 l-28 122 -9 0 c-4 0 -8 -5 -8 -11z"/>
<path d="M65062 52785 c-117 -24 -216 -46 -220 -50 l-7 -7 40 7 c166 30 416
82 421 88 l7 7 -14 -1 c-8 -1 -110 -21 -227 -44z"/>
<path d="M61037 52633 c-21 -103 -41 -197 -44 -208 l-5 -20 9 10 10 10 37 188
c21 104 36 193 34 198 -2 6 -20 -75 -41 -178z"/>
<path d="M84205 52798 c3 -11 63 -236 116 -442 l10 -38 6 6 5 5 -63 241 -62
240 -8 0 -8 0 4 -12z"/>
<path d="M14970 52756 c14 -8 108 -51 209 -95 l183 -82 6 6 c3 3 3 7 1 9 -13
11 -397 176 -409 176 l-15 -1 25 -13z"/>
<path d="M51260 52731 c0 -6 4 -13 10 -16 l10 -6 -6 15 c-7 18 -14 21 -14 7z"/>
<path d="M51105 52609 l-190 -98 -9 -21 -9 -20 -24 -6 -23 -6 -15 6 -15 5 0
-8 c0 -5 7 -11 15 -15 l14 -5 29 10 29 10 11 23 10 23 184 93 c195 99 194 98
187 104 -2 2 -89 -41 -194 -95z"/>
<path d="M53022 52341 c16 -43 355 -731 360 -731 4 0 -31 78 -76 173 -229 474
-275 567 -281 567 -4 0 -5 -4 -3 -9z"/>
<path d="M52930 52307 c0 -16 49 -103 69 -121 l22 -20 147 -299 146 -299 4 10
3 10 -147 294 -146 293 -34 38 c-19 20 -34 43 -34 50 0 14 -29 57 -30 44z"/>
<path d="M18501 52198 c0 -62 -25 -317 -37 -370 l-5 -26 10 -6 9 -6 6 37 c12
75 36 326 36 379 l0 54 -9 0 -10 0 0 -62z"/>
<path d="M12906 52201 l-6 -9 371 -262 371 -262 9 9 9 9 -362 255 c-200 141
-368 259 -375 262 l-12 7 -5 -9z"/>
<path d="M47328 52009 c-98 -49 -178 -91 -178 -94 0 -5 359 172 369 181 17 16
-38 -9 -191 -87z"/>
<path d="M54377 51973 l-29 -15 9 -9 10 -10 25 10 25 9 6 16 6 16 -12 -1 c-7
-1 -25 -8 -40 -16z"/>
<path d="M44600 51962 l0 -11 18 -5 c91 -26 392 -106 401 -106 6 0 11 3 11 8
l0 7 -203 54 c-111 30 -208 56 -214 59 l-13 4 0 -10z"/>
<path d="M32368 51931 l-118 -17 -11 -11 -11 -11 13 -98 13 -99 4 22 c2 12 -1
55 -7 95 l-10 73 8 8 9 9 138 19 c77 11 144 21 149 23 22 9 -67 3 -177 -13z"/>
<path d="M47131 51907 l-1 -17 56 -113 c48 -96 150 -283 161 -296 1 -2 6 -2 9
2 l6 6 -53 93 c-29 50 -81 149 -115 218 l-63 125 0 -18z"/>
<path d="M82694 51885 c3 -16 8 -46 11 -66 l7 -36 -107 -24 c-59 -13 -113 -28
-121 -34 l-15 -10 12 -53 12 -52 8 0 8 0 -10 32 c-5 18 -9 43 -9 55 l0 21 116
28 116 27 -7 56 c-4 31 -11 63 -16 71 l-10 15 5 -30z"/>
<path d="M90880 51750 l0 -10 13 0 c22 0 219 -92 410 -190 l178 -92 -21 -34
-21 -34 7 -11 7 -12 23 44 c13 24 23 49 24 55 l0 10 -288 142 -288 142 -22 0
-22 0 0 -10z"/>
<path d="M42160 51714 c-36 -20 -78 -48 -93 -62 l-29 -27 -24 -47 c-13 -25
-28 -66 -33 -90 l-10 -43 8 -55 7 -55 5 85 6 85 30 60 c37 73 53 87 151 142
l77 42 -15 1 c-8 0 -44 -16 -80 -36z"/>
<path d="M13686 51712 l-5 -9 173 -118 174 -117 11 7 12 7 -175 119 c-96 65
-177 119 -180 119 -3 0 -7 -4 -10 -8z"/>
<path d="M46181 51484 l-275 -134 11 -11 10 -10 264 131 c145 73 266 134 268
135 1 2 1 8 0 13 l-4 10 -274 -134z"/>
<path d="M46200 51450 c-96 -49 -172 -89 -167 -89 10 -1 347 168 347 174 0 7
13 13 -180 -85z"/>
<path d="M17957 51514 l-7 -7 177 -75 c98 -41 202 -80 231 -87 l53 -13 -4 11
-3 11 -50 11 c-27 7 -121 42 -209 79 -88 37 -165 70 -171 72 -5 3 -13 1 -17
-2z"/>
<path d="M53021 51484 l-21 -15 5 -9 6 -9 24 11 c26 12 31 23 17 32 l-9 5 -22
-15z"/>
<path d="M42490 51341 l0 -9 198 -6 c108 -4 207 -9 220 -12 l22 -4 0 9 0 9
-197 6 c-109 4 -208 9 -220 12 l-23 4 0 -9z"/>
<path d="M12934 51257 c62 -51 647 -449 652 -444 3 2 -129 96 -293 208 -164
111 -316 218 -339 236 -23 18 -45 33 -50 33 -5 -1 9 -15 30 -33z"/>
<path d="M33444 51265 c3 -16 15 -115 27 -220 l22 -190 10 -10 10 -10 -6 25
c-3 14 -15 113 -28 220 l-22 195 -10 10 -9 10 6 -30z"/>
<path d="M61632 51221 c59 -14 109 -28 111 -31 6 -6 -7 -91 -22 -148 l-12 -42
-18 0 c-10 0 -105 20 -212 45 -106 25 -198 44 -203 42 -11 -4 15 -11 289 -73
l149 -33 7 10 c3 6 14 53 24 105 l18 95 -7 6 c-9 9 -186 52 -211 51 -11 0 28
-12 87 -27z"/>
<path d="M44895 51085 c17 -14 35 -25 40 -25 l10 1 -30 24 c-16 14 -34 25 -40
25 l-10 -1 30 -24z"/>
<path d="M42330 51082 c0 -4 20 -18 45 -31 l46 -24 51 -59 52 -60 57 -104 58
-103 25 -79 25 -78 -4 -45 -4 -44 11 43 11 43 -24 77 -24 77 -60 115 -60 114
-59 64 -60 63 -37 20 c-42 21 -49 23 -49 11z"/>
<path d="M25430 51013 l0 -10 88 -7 c48 -3 151 -9 230 -12 l142 -7 0 10 0 10
-142 7 c-79 4 -182 9 -230 13 l-88 6 0 -10z"/>
<path d="M28364 50976 c-3 -8 -4 -29 -2 -47 l3 -32 14 -5 13 -4 -8 23 c-9 29
-9 39 1 62 l7 17 -11 0 c-7 0 -14 -6 -17 -14z"/>
<path d="M91187 50801 c-53 -99 -97 -182 -97 -185 0 -4 4 -6 9 -6 l9 0 96 180
c53 99 96 182 96 185 0 26 -31 -22 -113 -174z"/>
<path d="M27790 50960 l0 -8 63 -6 c34 -3 122 -8 195 -11 l132 -6 0 9 0 10
-117 6 c-65 3 -153 8 -195 11 l-78 4 0 -9z"/>
<path d="M27764 50700 l0 -185 3 93 c2 50 2 134 0 185 l-3 92 0 -185z"/>
<path d="M42620 50831 c0 -8 11 -33 24 -55 13 -23 38 -83 55 -135 l30 -94 -4
-46 -5 -46 9 25 c5 14 9 37 10 52 l1 27 -25 78 -24 78 -35 65 -36 65 0 -14z"/>
<path d="M32445 50755 c3 -17 19 -117 35 -224 17 -107 33 -197 35 -200 8 -7 7
5 -26 224 l-32 210 -9 10 -8 9 5 -29z"/>
<path d="M87631 50662 c-18 -48 -52 -121 -74 -162 l-40 -75 -33 -38 c-34 -37
-42 -57 -25 -57 13 0 74 78 109 140 39 69 121 267 114 275 -12 12 -18 1 -51
-83z"/>
<path d="M31040 50495 c-249 -13 -528 -34 -546 -40 l-11 -3 -6 -51 -6 -50 7
-38 7 -38 5 85 5 85 85 7 c81 7 695 38 753 38 l27 0 0 10 0 10 -42 -1 c-24 -1
-149 -7 -278 -14z"/>
<path d="M72027 50325 c-4 -44 -9 -143 -13 -220 l-6 -140 6 6 7 6 10 202 c10
202 7 298 -4 146z"/>
<path d="M33575 50350 c37 -255 65 -411 65 -359 0 33 -52 356 -60 374 l-10 20
5 -35z"/>
<path d="M44553 50228 c-117 -61 -211 -113 -209 -116 5 -4 436 217 436 224 0
10 -25 -2 -227 -108z"/>
<path d="M34260 50275 c0 -4 6 -18 14 -33 8 -15 20 -55 26 -90 l13 -62 8 0
c16 0 0 89 -28 153 -14 31 -33 50 -33 32z"/>
<path d="M61531 50002 c-30 -136 -56 -256 -58 -267 l-4 -20 10 20 c6 11 33
126 61 255 28 129 53 241 55 248 l4 12 -7 0 -7 0 -54 -248z"/>
<path d="M22352 49953 c-7 -159 -17 -499 -22 -758 -6 -258 -14 -582 -19 -720
-5 -137 -7 -252 -5 -254 2 -2 7 -1 10 2 l7 6 8 178 c5 98 13 430 19 738 5 308
14 643 20 745 5 102 10 222 10 268 l0 82 -8 0 -8 0 -12 -287z"/>
<path d="M50465 50115 c17 -14 35 -25 40 -25 l10 1 -30 24 c-16 14 -34 25 -40
25 l-10 -1 30 -24z"/>
<path d="M62455 50082 l10 -10 185 -41 c102 -23 196 -44 210 -48 l25 -6 -7 7
c-3 4 -91 27 -195 51 -103 25 -199 47 -213 50 l-25 6 10 -9z"/>
<path d="M33528 49966 l-398 -22 -6 -7 c-4 -4 -5 -9 -3 -11 2 -2 195 7 429 20
234 13 469 23 523 24 l97 0 0 10 0 10 -122 -1 c-68 -1 -302 -11 -520 -23z"/>
<path d="M34190 49980 l0 -10 50 0 50 0 0 10 0 10 -50 0 -50 0 0 -10z"/>
<path d="M34383 49873 l-32 -46 6 -10 7 -11 10 19 c6 11 26 33 44 50 36 36 40
45 15 45 l-18 0 -32 -47z"/>
<path d="M34264 49853 c2 -10 12 -105 22 -210 l18 -193 8 0 8 0 0 27 c0 35
-29 341 -36 371 l-4 22 -11 0 -10 0 5 -17z"/>
<path d="M22405 49790 l30 -8 165 -5 165 -5 -20 7 -20 8 -175 5 -175 6 30 -8z"/>
<path d="M63751 49786 c2 -2 94 -22 204 -45 110 -23 207 -44 215 -47 l15 -5
-10 9 -10 10 -196 41 c-184 39 -228 46 -218 37z"/>
<path d="M23235 49761 l30 -10 193 -3 192 -3 0 8 0 7 -122 0 c-68 0 -168 2
-223 5 l-100 5 30 -9z"/>
<path d="M63740 49750 c0 -3 44 -16 98 -28 320 -70 482 -104 595 -125 l128
-24 -8 7 c-4 4 -93 24 -198 44 -104 20 -286 59 -402 85 l-213 48 0 -7z"/>
<path d="M12246 49678 c-3 -18 -17 -118 -31 -223 -14 -104 -27 -198 -29 -208
l-4 -18 11 4 11 3 33 230 c38 268 35 244 24 244 l-9 0 -6 -32z"/>
<path d="M27800 49661 l26 -8 264 -6 265 -5 -115 8 c-63 4 -194 10 -290 13
l-175 5 25 -7z"/>
<path d="M64620 49620 l0 -10 15 0 15 0 0 10 0 10 -15 0 -15 0 0 -10z"/>
<path d="M84627 49459 c44 -57 106 -138 137 -179 32 -41 63 -77 69 -79 l12 -4
-11 14 c-6 8 -68 88 -138 179 -70 91 -133 167 -139 169 -6 2 26 -43 70 -100z"/>
<path d="M38196 49539 c-3 -8 -23 -86 -45 -175 -22 -89 -43 -170 -47 -180 l-7
-19 11 10 11 10 45 180 c25 99 43 181 41 184 -3 2 -7 -2 -9 -10z"/>
<path d="M71540 49532 l0 -9 158 -7 c86 -4 184 -9 217 -12 l60 -5 -15 9 -15
10 -175 6 c-96 4 -187 9 -202 12 l-28 6 0 -10z"/>
<path d="M83430 49294 c-74 -58 -147 -117 -162 -130 l-28 -24 0 -13 0 -12 18
21 c9 12 82 72 162 134 80 62 149 117 155 121 l9 9 -9 0 c-6 0 -71 -48 -145
-106z"/>
<path d="M74212 49110 c-29 -4 -56 -11 -59 -14 l-6 -6 19 1 c10 0 44 4 73 8
l55 8 48 -15 48 -16 52 -42 c28 -24 67 -62 85 -85 41 -52 44 -38 3 18 l-30 40
-53 42 -53 41 -43 15 c-47 16 -58 17 -139 5z"/>
<path d="M37964 49073 c2 -10 20 -109 38 -220 l32 -203 9 0 8 0 -5 18 c-2 9
-20 108 -38 220 l-32 202 -9 0 -8 0 5 -17z"/>
<path d="M64320 49045 l-11 -29 12 -28 c6 -16 14 -27 16 -24 3 2 0 13 -6 24
l-11 21 10 27 c6 15 8 29 6 32 -3 3 -10 -8 -16 -23z"/>
<path d="M69281 48725 l-43 -224 5 -13 5 -13 1 15 c1 8 21 115 45 238 l43 222
-7 0 c-3 0 -25 -101 -49 -225z"/>
<path d="M76415 48855 c-33 -7 -158 -24 -277 -36 l-218 -23 0 -8 0 -8 28 0
c46 0 454 49 505 61 l47 11 0 9 0 9 -12 -1 c-7 -1 -40 -7 -73 -14z"/>
<path d="M43136 48816 l6 -40 29 -58 30 -59 -6 -33 -7 -32 16 -13 16 -13 0 9
c0 5 -5 14 -11 20 l-11 11 10 18 10 18 -25 55 c-14 31 -34 79 -45 106 l-18 50
6 -39z"/>
<path d="M91439 48708 c-68 -78 -153 -178 -188 -223 -35 -44 -124 -141 -198
-216 -73 -75 -133 -141 -133 -145 0 -5 54 45 121 111 l121 120 81 100 c73 91
242 288 305 357 14 15 23 30 20 33 -2 3 -61 -59 -129 -137z"/>
<path d="M33135 48564 c-121 -6 -251 -13 -290 -13 l-70 -1 -14 -9 -14 -9 17
-114 c10 -62 22 -124 26 -138 l8 -25 1 15 c1 8 -8 67 -19 130 l-20 114 10 10
11 11 313 15 314 15 8 8 7 7 -34 -1 c-19 -1 -133 -8 -254 -15z"/>
<path d="M33901 48560 c0 -13 12 -121 28 -240 17 -118 42 -308 57 -422 l28
-208 8 0 c4 0 8 4 8 10 0 13 -120 851 -124 870 l-4 15 -1 -25z"/>
<path d="M41525 48570 l6 -10 32 1 32 0 -20 9 c-11 5 -28 9 -38 9 l-18 1 6
-10z"/>
<path d="M44030 48523 c0 -7 39 -93 87 -193 l87 -182 4 11 4 12 -82 172 c-46
95 -86 176 -91 182 l-9 9 0 -11z"/>
<path d="M44537 48296 c-35 -30 -99 -92 -140 -137 l-76 -82 6 -10 6 -10 91 94
c50 52 116 115 146 140 l54 46 -11 6 -12 7 -64 -54z"/>
<path d="M72826 48219 c-3 -8 -25 -111 -50 -229 -25 -118 -64 -300 -86 -404
-22 -105 -38 -192 -35 -194 2 -3 7 1 9 9 12 33 174 824 171 828 -3 2 -7 -2 -9
-10z"/>
<path d="M31791 48150 c-1 -89 38 -812 44 -818 l5 -5 0 23 c0 57 -41 836 -45
845 -2 6 -4 -15 -4 -45z"/>
<path d="M37388 48121 l-657 -36 -8 -8 -8 -9 80 7 c70 5 1088 60 1252 67 l61
3 -4 7 -5 8 -27 -1 c-15 -1 -323 -18 -684 -38z"/>
<path d="M30738 48141 l-126 -6 -8 -7 -7 -8 149 7 c82 3 176 9 209 13 l60 7
-75 0 c-41 0 -132 -3 -202 -6z"/>
<path d="M36900 48057 c-162 -8 -190 -12 -179 -20 6 -6 451 22 457 28 7 6 -50
5 -278 -8z"/>
<path d="M83986 47998 c19 -32 217 -299 225 -304 l9 -5 0 6 c0 12 -225 314
-233 315 l-8 0 7 -12z"/>
<path d="M22230 47525 l0 -75 10 0 10 0 0 75 0 75 -10 0 -10 0 0 -75z"/>
<path d="M16930 47577 c0 -5 5 -29 11 -55 l12 -47 16 -19 c9 -10 27 -24 41
-31 l25 -13 140 -5 140 -5 -55 8 c-30 4 -84 8 -120 9 l-65 1 -34 10 -34 10
-23 21 -23 21 -6 37 c-5 33 -24 77 -25 58z"/>
<path d="M22343 47558 c-13 -6 -23 -15 -23 -20 l0 -9 28 15 27 14 105 -18 c58
-10 271 -57 475 -104 203 -47 371 -83 374 -81 6 7 0 8 -379 95 -326 75 -548
121 -574 119 -6 0 -21 -5 -33 -11z"/>
<path d="M71637 47486 c-4 -10 -7 -25 -6 -34 l0 -17 10 24 c5 13 8 29 6 35
l-3 10 -7 -18z"/>
<path d="M42590 47203 c0 -113 2 -204 4 -202 2 2 7 95 10 207 l7 202 -10 0
-11 0 0 -207z"/>
<path d="M72637 47326 c-4 -10 -7 -25 -6 -34 l0 -17 10 24 c5 13 8 29 6 35
l-3 10 -7 -18z"/>
<path d="M34727 47271 l-5 -20 11 -4 10 -3 5 -337 5 -337 14 0 15 0 -8 293
c-3 160 -9 321 -13 356 l-6 64 -11 4 -11 4 -6 -20z"/>
<path d="M34975 47280 c-60 -4 -131 -8 -157 -9 l-48 -1 0 -11 0 -10 88 6 c48
3 124 8 170 11 l82 6 -6 9 c-3 5 -8 8 -12 7 -4 -1 -56 -5 -117 -8z"/>
<path d="M18582 46858 c102 -200 229 -456 284 -570 54 -114 102 -207 106 -208
11 0 -73 173 -471 967 -47 95 -90 173 -94 173 l-8 0 183 -362z"/>
<path d="M29425 47125 c3 -49 12 -243 21 -430 9 -187 17 -342 20 -344 7 -7 5
44 -12 444 l-16 380 -9 20 -9 20 5 -90z"/>
<path d="M21562 47078 l4 -12 40 -8 c21 -5 56 -16 77 -25 l38 -16 43 -61 c24
-34 53 -82 64 -108 l21 -48 11 0 11 0 -6 21 c-15 47 -42 97 -83 155 l-43 61
-37 17 c-33 14 -112 35 -135 36 l-9 0 4 -12z"/>
<path d="M35885 46831 c3 -68 5 -141 5 -163 l0 -38 8 0 7 0 -3 87 c-2 49 -8
122 -12 163 l-9 75 4 -124z"/>
<path d="M39262 46868 l3 -23 20 -2 20 -3 -12 6 -13 6 0 19 0 19 -11 0 -10 0
3 -22z"/>
<path d="M18653 46630 c50 -104 94 -190 98 -190 10 0 -173 379 -183 380 -4 0
34 -85 85 -190z"/>
<path d="M20590 46738 l0 -23 -24 -50 -24 -50 -43 -42 -44 -42 -95 -44 c-52
-24 -160 -68 -240 -97 -136 -49 -260 -104 -260 -115 0 -3 26 7 58 21 31 14
125 50 207 80 83 30 192 74 243 99 51 25 96 45 100 45 5 0 26 19 49 43 l41 42
17 40 c9 22 20 57 24 77 l9 38 -9 0 -9 0 0 -22z"/>
<path d="M21129 46541 c-113 -48 -214 -91 -224 -95 l-18 -7 10 -10 9 -9 227
96 227 96 0 9 c0 17 -25 8 -231 -80z"/>
<path d="M36497 46586 l-8 -28 6 -6 5 -5 6 5 c3 4 4 19 2 35 l-3 28 -8 -29z"/>
<path d="M44658 46541 c-108 -31 -200 -60 -205 -65 l-8 -8 20 5 c64 19 308 86
353 98 l52 13 0 8 c0 11 9 13 -212 -51z"/>
<path d="M57580 46550 c0 -5 5 -10 11 -10 l10 0 -6 10 c-3 6 -8 10 -11 10 -2
0 -4 -4 -4 -10z"/>
<path d="M34535 46539 c-71 -3 -160 -7 -197 -8 l-68 -1 0 -16 0 -16 58 6 c31
3 132 8 225 12 l167 6 0 14 0 14 -27 -2 c-16 -1 -86 -5 -158 -9z"/>
<path d="M57586 46522 c-7 -12 4 -52 15 -52 13 0 18 15 12 38 -5 22 -18 29
-27 14z"/>
<path d="M42616 46489 c-3 -19 -8 -126 -11 -239 l-6 -205 6 6 c6 7 27 461 21
467 -3 2 -7 -11 -10 -29z"/>
<path d="M34683 46503 l7 -6 7 6 6 7 -13 0 -13 0 6 -7z"/>
<path d="M30768 46283 l-58 -4 0 -11 0 -11 173 6 c94 4 198 7 230 7 l57 0 0
10 0 10 -172 -2 c-95 -1 -199 -3 -230 -5z"/>
<path d="M27758 46252 l-478 -26 0 -13 c0 -7 1 -13 3 -13 1 0 214 11 472 25
259 14 482 25 498 25 l27 0 0 15 0 15 -22 -1 c-13 -1 -238 -13 -500 -27z"/>
<path d="M19843 46238 c25 -63 92 -199 94 -191 4 11 -84 203 -93 203 l-6 0 5
-12z"/>
<path d="M30697 46095 c3 -82 9 -170 14 -195 l7 -45 -5 150 c-3 83 -9 170 -14
195 l-7 45 5 -150z"/>
<path d="M93091 46095 l15 -15 75 -13 76 -14 24 -16 23 -17 51 0 50 0 63 32
c34 18 62 35 62 39 0 4 -26 -6 -58 -22 l-58 -30 -40 -6 -41 -5 -43 22 -43 22
-66 9 -66 10 -9 9 c-6 6 -15 10 -20 10 l-10 0 15 -15z"/>
<path d="M93025 46080 l-17 -19 -68 -26 -68 -26 -74 -3 c-40 -2 -99 -4 -130
-5 l-58 -1 0 -11 0 -10 18 5 c9 3 67 6 127 7 l110 0 71 26 72 25 21 29 c25 33
23 38 -4 9z"/>
<path d="M52172 46084 c2 -5 49 -102 103 -216 54 -115 100 -206 103 -203 6 6
-189 414 -202 422 l-9 6 5 -9z"/>
<path d="M93042 46050 l-22 -28 -83 -32 -82 -31 -29 5 -29 6 -94 -6 -93 -7 0
-10 0 -9 17 6 c9 4 70 7 137 7 l120 1 65 25 66 26 28 25 27 26 33 -12 c19 -7
47 -12 63 -12 l29 0 53 -25 54 -25 54 0 54 0 71 36 c39 19 69 38 66 40 -3 3
-33 -9 -67 -26 l-62 -31 -47 -6 -47 -5 -52 26 -51 26 -39 0 -38 0 -39 20 c-22
11 -39 20 -40 19 0 0 -10 -13 -23 -29z"/>
<path d="M81344 45948 l-7 -11 11 7 c7 4 12 9 12 12 0 8 -9 4 -16 -8z"/>
<path d="M30757 45660 l5 -205 9 -15 8 -15 -5 130 c-4 72 -10 171 -14 220 l-8
90 5 -205z"/>
<path d="M81317 45853 c-2 -4 -8 -24 -12 -43 -4 -19 -16 -52 -26 -72 l-19 -37
-17 -10 -18 -10 22 -1 22 0 15 28 c18 36 49 142 43 148 -3 3 -7 2 -10 -3z"/>
<path d="M90880 45844 c-91 -7 -268 -17 -395 -23 l-230 -10 -53 -16 c-69 -22
-61 -31 9 -11 l54 16 240 10 c272 11 614 36 623 44 l5 6 -44 -1 c-24 -1 -118
-7 -209 -15z"/>
<path d="M52420 45663 c0 -6 36 -87 81 -180 44 -92 88 -185 96 -205 8 -21 19
-38 23 -38 l9 0 -93 198 c-50 108 -97 206 -104 217 l-11 20 -1 -12z"/>
<path d="M52656 45063 c42 -87 87 -184 101 -215 14 -32 29 -58 34 -58 l8 0
-66 138 c-36 75 -81 172 -101 215 -19 42 -39 77 -43 77 l-8 0 75 -157z"/>
<path d="M16873 44816 l22 -33 3 8 c4 10 -28 59 -39 59 l-8 0 22 -34z"/>
<path d="M49802 44658 c-106 -55 -191 -102 -189 -104 4 -4 397 195 397 202 0
9 -23 -1 -208 -98z"/>
<path d="M25775 44460 l-120 -6 145 -1 c80 -1 183 2 230 6 l85 8 -110 -1 c-60
0 -164 -3 -230 -6z"/>
<path d="M87768 44285 c-4 -11 -22 -58 -42 -105 l-36 -85 18 -15 c19 -16 176
-255 292 -445 86 -141 79 -129 84 -124 9 8 -339 559 -360 572 -20 12 -18 25
22 116 l35 82 -4 12 -3 11 -6 -19z"/>
<path d="M87775 44194 l-37 -86 20 -22 c11 -11 43 -57 71 -101 28 -44 51 -75
51 -68 0 12 -88 153 -115 183 l-13 15 38 83 39 82 -8 0 c-5 0 -25 -39 -46 -86z"/>
<path d="M18720 43606 c0 -8 19 -67 42 -132 l42 -119 33 -56 c17 -31 39 -62
48 -69 l15 -13 7 7 6 6 -20 23 c-11 12 -34 47 -50 77 l-31 55 -38 118 -38 117
-8 0 c-4 0 -8 -6 -8 -14z"/>
<path d="M52242 43520 c-29 -4 -56 -11 -60 -14 l-6 -7 69 7 c76 7 72 7 98 5
l18 -1 25 -27 26 -28 30 -65 c17 -36 34 -78 38 -95 l8 -30 1 29 1 30 -40 82
-40 82 -26 21 -27 21 -31 -1 c-17 -1 -55 -5 -84 -9z"/>
<path d="M18860 43170 l0 -10 103 -68 c103 -69 277 -172 290 -172 4 0 7 4 7 9
l0 9 -77 43 c-43 23 -131 77 -195 121 -65 43 -120 78 -123 78 -3 0 -5 -4 -5
-10z"/>
<path d="M82105 43051 c10 -34 127 -243 132 -237 4 4 -122 245 -134 256 -3 3
-2 -6 2 -19z"/>
<path d="M51163 42906 c-84 -12 -156 -25 -159 -29 l-7 -7 9 0 c34 1 346 49
351 54 l6 6 -24 -1 c-13 -1 -92 -11 -176 -23z"/>
<path d="M27390 42691 l-45 -7 -41 -22 -41 -21 -65 -70 -66 -71 -5 -20 -5 -20
9 0 c4 0 14 10 20 23 7 12 40 51 73 86 l61 63 37 19 37 19 65 0 64 0 73 -31
74 -30 39 -42 39 -42 29 -63 28 -62 35 -223 c18 -122 36 -229 39 -237 3 -8 10
-34 16 -58 l11 -43 8 6 9 5 -18 72 c-10 40 -33 167 -50 281 l-32 209 -27 61
-28 62 -44 46 -44 47 -75 30 c-88 36 -119 42 -180 33z"/>
<path d="M91738 42577 c-43 -23 -78 -45 -78 -50 0 -4 37 13 83 38 l84 45 20 0
21 0 78 -44 c44 -24 175 -105 292 -180 118 -76 216 -135 218 -133 5 4 -431
286 -527 341 l-46 26 -34 -1 -34 0 -77 -42z"/>
<path d="M51397 42563 c-3 -3 -162 -25 -353 -49 -191 -24 -349 -46 -352 -49
-8 -8 -2 -7 344 35 180 23 337 40 348 38 l20 -3 28 -165 c15 -91 41 -280 58
-420 l30 -254 11 -11 10 -10 -5 15 c-3 8 -17 119 -31 245 -15 127 -40 311 -56
410 l-30 180 4 17 5 17 -13 5 c-7 2 -15 2 -18 -1z"/>
<path d="M56373 42547 l3 -10 85 -27 84 -26 104 -57 c57 -31 106 -55 109 -52
7 7 9 6 -108 71 l-105 59 -88 26 -88 26 4 -10z"/>
<path d="M45928 42262 c-87 -48 -159 -92 -162 -98 -2 -6 -1 -35 4 -65 l8 -54
1 60 1 60 160 88 c88 49 160 90 160 93 0 10 -23 -1 -172 -84z"/>
<path d="M39512 42038 c4 -9 10 -37 14 -64 l7 -48 30 -51 c17 -27 51 -72 76
-98 l46 -48 43 -25 c54 -32 67 -25 15 7 -21 13 -62 46 -92 74 l-53 50 -28 55
-28 56 -7 47 -7 47 -11 7 -10 6 5 -15z"/>
<path d="M39553 42034 c3 -11 9 -35 12 -54 10 -50 50 -117 104 -174 48 -50
111 -96 133 -96 l12 0 -24 17 c-14 9 -52 39 -84 67 l-59 51 -33 51 -32 50 -7
47 -7 47 -10 6 -10 7 5 -19z"/>
<path d="M92730 41884 c-6 -14 -10 -36 -10 -50 l0 -25 25 -24 24 -25 33 0 33
0 137 -188 c76 -103 145 -196 153 -207 l17 -20 -5 15 c-3 9 -71 106 -152 215
l-146 200 -27 -3 -27 -2 -25 19 -24 19 1 36 1 37 12 14 12 15 -11 0 -11 0 -10
-26z"/>
<path d="M52715 41843 c4 -10 9 -25 12 -33 l4 -15 -278 -137 -278 -137 -32 -5
-32 -5 -82 14 c-46 8 -85 13 -87 10 -11 -10 129 -35 197 -35 l43 0 284 146
c156 80 284 148 284 150 0 3 -7 18 -15 34 -17 32 -32 41 -20 13z"/>
<path d="M82726 41638 c4 -7 59 -95 122 -196 l114 -182 9 6 9 5 -6 12 c-4 7
-57 92 -117 190 l-110 177 -14 0 -14 0 7 -12z"/>
<path d="M82920 41646 c0 -12 241 -395 253 -403 l11 -7 -24 40 c-78 128 -224
360 -231 369 l-9 9 0 -8z"/>
<path d="M30336 41598 c22 -24 82 -89 134 -146 51 -56 95 -100 98 -98 6 7
-250 286 -262 286 l-10 0 40 -42z"/>
<path d="M30957 41601 c-10 -17 -40 -54 -66 -83 l-49 -53 -101 -75 c-93 -70
-114 -90 -93 -90 13 0 191 136 240 183 39 38 102 124 102 140 0 16 -17 5 -33
-22z"/>
<path d="M28116 41472 l-5 -9 32 -30 c18 -17 61 -51 97 -75 l66 -44 88 -37
c93 -39 106 -42 106 -28 l0 9 -62 22 c-81 30 -204 102 -267 157 l-50 43 -5 -8z"/>
<path d="M28076 41432 l-6 -10 65 -55 65 -54 93 -50 c50 -28 106 -54 122 -57
17 -4 38 -9 48 -12 l17 -5 0 10 0 10 -42 12 c-85 23 -246 116 -319 186 l-37
35 -6 -10z"/>
<path d="M57630 41374 c-30 -25 -65 -50 -78 -55 l-23 -9 -142 -1 -142 -2 95
-9 95 -9 58 5 58 6 27 15 c15 8 47 32 72 54 l45 39 -6 6 -5 6 -54 -46z"/>
<path d="M28960 41150 c0 -10 36 -20 75 -20 40 0 159 -32 215 -57 25 -11 62
-34 84 -52 38 -30 56 -38 56 -23 -1 12 -93 79 -135 97 -57 24 -170 52 -237 58
l-58 6 0 -9z"/>
<path d="M80555 40715 l-30 -24 10 0 c6 0 19 6 29 14 11 8 25 15 31 15 l11 0
11 -31 c15 -39 184 -311 190 -305 2 2 -32 63 -76 134 -44 71 -90 151 -101 176
l-19 46 -13 0 c-7 0 -26 -11 -43 -25z"/>
<path d="M97193 40677 c-101 -34 -183 -65 -183 -69 0 -6 378 117 388 127 13
13 -36 -1 -205 -58z"/>
<path d="M51010 40663 c0 -26 138 -104 270 -153 l79 -29 6 9 5 9 -7 4 c-5 2
-33 12 -63 22 -67 22 -203 89 -246 121 -32 25 -44 29 -44 17z"/>
<path d="M53374 40548 c-30 -42 -74 -136 -74 -157 0 -28 18 -5 39 50 14 33 37
77 52 97 30 38 35 52 21 52 -5 0 -22 -19 -38 -42z"/>
<path d="M54676 40022 l-5 -8 125 -182 125 -181 14 6 15 5 -63 92 c-35 50 -92
133 -127 184 -62 90 -73 101 -84 84z"/>
<path d="M66503 40017 l4 -12 104 -36 c57 -21 162 -58 232 -83 l129 -46 -4 12
-4 12 -110 39 c-60 21 -164 58 -232 82 l-123 44 4 -12z"/>
<path d="M84810 39980 c0 -5 46 -78 103 -162 57 -84 117 -177 133 -205 l29
-53 12 0 11 0 -56 93 c-71 114 -221 337 -227 337 -3 0 -5 -4 -5 -10z"/>
<path d="M84780 39956 c0 -4 39 -65 87 -134 47 -70 165 -257 261 -417 191
-317 180 -300 186 -294 11 10 -472 784 -525 844 l-9 9 0 -8z"/>
<path d="M88055 38484 c-462 -285 -526 -326 -522 -330 4 -4 729 438 752 458
l9 8 -9 0 c-6 0 -109 -62 -230 -136z"/>
<path d="M60290 38450 c0 -5 5 -10 10 -10 l10 0 0 -15 0 -16 -55 -77 c-30 -42
-91 -115 -135 -162 -44 -46 -80 -88 -80 -93 l0 -8 9 5 9 6 146 -136 c81 -75
149 -134 152 -132 2 3 -61 66 -141 139 -79 74 -145 136 -145 139 0 3 35 44 78
90 43 47 101 118 130 157 l52 73 0 14 0 15 -20 11 -20 11 0 -11z"/>
<path d="M59900 38002 c-58 -53 -126 -111 -152 -127 -27 -17 -48 -34 -48 -39
l0 -8 28 17 c15 10 41 28 58 39 41 28 240 216 228 216 -5 0 -56 -44 -114 -98z"/>
<path d="M60031 38047 c15 -12 109 -98 210 -192 101 -93 226 -210 278 -258
l96 -89 0 -11 0 -11 -80 -61 -80 -61 -147 -57 c-80 -31 -154 -57 -164 -57 -22
0 -233 -59 -254 -71 l-15 -8 14 -1 c7 0 59 13 115 29 55 16 119 33 141 37 22
3 103 32 180 62 l140 56 76 57 c41 31 95 78 120 104 24 26 65 62 90 80 l46 34
138 31 c77 17 141 33 144 35 14 15 -20 10 -151 -19 l-147 -33 -38 -28 c-21
-16 -54 -47 -74 -69 l-35 -39 -159 149 c-87 82 -223 209 -301 282 l-142 132
-14 0 -13 -1 26 -22z"/>
<path d="M59994 38036 c-7 -18 -175 -164 -231 -201 -24 -15 -43 -32 -43 -37
l0 -9 58 41 c76 53 221 180 233 202 l10 18 -11 0 c-6 0 -13 -6 -16 -14z"/>
<path d="M91187 37658 c6 -35 20 -58 34 -58 l8 0 -15 28 c-7 15 -14 35 -14 45
l0 17 -10 0 -9 0 6 -32z"/>
<path d="M86639 37607 c-132 -90 -240 -170 -234 -175 6 -6 100 55 117 75 7 9
67 52 133 95 l120 78 -15 -1 c-8 0 -63 -33 -121 -72z"/>
<path d="M92803 37611 l6 -24 -10 -20 -11 -19 14 4 13 5 3 27 4 28 -13 12 -12
11 6 -24z"/>
<path d="M580 37384 l0 -20 20 -22 c12 -12 26 -22 32 -22 l11 0 -20 23 c-11
12 -25 31 -31 42 l-11 20 -1 -21z"/>
<path d="M86181 37244 c-128 -85 -227 -154 -220 -154 7 0 110 64 228 142 233
153 237 156 230 162 -2 2 -109 -65 -238 -150z"/>
<path d="M83172 37213 c-8 -3 -68 -39 -135 -80 l-121 -74 -27 -6 -27 -5 -42
62 c-23 34 -44 59 -47 57 -5 -6 71 -122 86 -131 l9 -6 33 12 c19 6 92 47 163
90 70 43 132 78 136 78 13 0 31 -27 122 -178 l88 -146 0 15 c0 8 -42 82 -93
164 l-93 150 -19 2 c-11 1 -26 -1 -33 -4z"/>
<path d="M62576 37178 c4 -7 25 -37 46 -66 l39 -53 130 -86 129 -86 6 6 6 5
-119 77 c-65 43 -123 79 -129 82 -6 2 -31 33 -55 68 -24 36 -48 65 -52 65 l-8
0 7 -12z"/>
<path d="M51290 36738 c120 -115 260 -241 265 -236 3 2 -61 65 -142 139 -157
144 -230 202 -123 97z"/>
<path d="M40495 36550 l-410 -88 -80 -7 c-44 -3 -97 -8 -117 -11 l-38 -6 2
-76 2 -77 3 73 4 72 12 0 c7 0 59 5 117 10 l105 10 398 85 c219 47 404 85 412
85 l15 0 1 -32 c1 -18 5 -44 10 -58 l8 -25 -5 60 c-6 62 -10 76 -22 74 -4 0
-191 -40 -417 -89z"/>
<path d="M34600 35991 c-39 -13 -101 -55 -139 -95 l-35 -36 10 0 c6 0 23 14
40 31 16 17 52 44 80 60 l51 29 47 0 47 0 40 -21 40 -20 12 4 12 4 -50 22 -50
22 -40 4 -40 4 -25 -8z"/>
<path d="M60125 35829 c-4 -5 -5 -12 -2 -15 2 -2 87 -61 188 -129 l183 -125
10 10 10 10 -9 8 c-10 9 -340 233 -362 245 l-12 7 -6 -11z"/>
<path d="M86487 35769 l-17 -10 5 -8 4 -8 36 11 c19 6 35 14 35 18 l0 8 -22 0
c-13 0 -31 -5 -41 -11z"/>
<path d="M86644 35712 c24 -48 156 -232 167 -232 5 0 9 3 9 6 0 8 -131 189
-166 229 l-26 30 16 -33z"/>
<path d="M80195 35624 l-200 -103 -12 4 -11 4 -6 -15 -6 -15 -9 5 -9 6 -4 -9
c-1 -5 -64 -41 -138 -79 l-135 -70 -118 -37 c-65 -20 -117 -39 -114 -41 3 -3
56 11 119 30 l113 36 136 70 c75 39 139 70 142 70 3 0 65 -111 138 -247 151
-284 180 -335 185 -330 2 2 -66 133 -151 292 l-155 289 10 10 c5 5 11 8 13 5
2 -2 73 -133 157 -291 85 -159 157 -288 161 -288 4 0 -63 129 -147 287 -85
158 -153 291 -151 296 1 5 97 57 212 117 116 60 203 109 195 109 -8 -1 -105
-48 -215 -105z"/>
<path d="M86440 35690 l0 -13 7 6 6 7 -6 7 -7 6 0 -13z"/>
<path d="M41769 35677 l13 -17 -5 -26 -5 -26 10 10 10 10 -4 28 -3 27 -15 5
-15 5 14 -16z"/>
<path d="M84840 35610 c-54 -36 -42 -40 15 -5 l40 24 40 0 40 0 26 -22 26 -22
53 -95 c29 -52 80 -133 115 -180 34 -47 142 -215 240 -375 98 -159 185 -298
193 -308 24 -27 26 -12 4 20 -12 15 -98 154 -192 308 -95 154 -200 318 -235
365 -34 47 -86 128 -115 180 l-52 95 -27 22 -26 22 -50 1 -50 0 -45 -30z"/>
<path d="M60595 35590 l-5 -8 57 -33 c32 -18 96 -58 143 -90 l86 -57 9 -21 10
-20 15 9 15 9 -20 26 -20 26 -142 84 -143 84 -5 -9z"/>
<path d="M79800 35468 l-135 -71 -125 -43 c-145 -49 -146 -59 -3 -13 l98 31
140 70 c77 39 149 77 160 84 l19 14 -9 0 c-6 0 -71 -32 -145 -72z"/>
<path d="M35500 35394 c0 -6 9 -19 20 -29 29 -26 92 -137 147 -257 26 -59 51
-108 55 -108 8 0 -17 59 -95 220 l-55 115 -36 34 -36 35 0 -10z"/>
<path d="M79400 35278 c0 -6 51 -155 109 -318 l41 -115 0 -95 c0 -52 5 -124
10 -159 l9 -64 11 -11 11 -11 124 65 124 65 -9 3 c-5 2 -60 -24 -121 -57
l-113 -61 -9 9 -9 9 -8 98 c-5 55 -9 127 -10 162 l0 62 -29 83 c-88 248 -117
327 -124 333 -4 4 -7 5 -7 2z"/>
<path d="M86666 35196 c3 -9 11 -16 16 -16 l10 0 -4 12 c-2 6 -10 14 -16 16
l-12 4 6 -16z"/>
<path d="M86712 35129 c2 -7 10 -15 17 -17 l14 -4 -5 13 c-2 7 -10 15 -17 17
l-13 5 4 -14z"/>
<path d="M86776 35071 l-6 -9 35 -21 35 -20 0 8 c0 8 -26 33 -47 45 l-12 6 -5
-9z"/>
<path d="M51466 34919 c-3 -8 -14 -97 -26 -199 -11 -102 -23 -198 -27 -215
l-5 -30 8 8 9 9 26 216 c24 196 28 251 15 211z"/>
<path d="M60776 34679 c-43 -116 -76 -213 -73 -215 2 -2 39 91 81 207 43 116
76 212 74 215 -3 2 -39 -91 -82 -207z"/>
<path d="M81705 34826 c-27 -22 -988 -546 -1026 -561 l-17 -6 -57 106 c-31 59
-59 104 -62 102 -4 -5 101 -205 116 -220 l8 -8 474 257 c472 255 599 328 599
345 0 12 0 12 -35 -15z"/>
<path d="M81691 34769 c-49 -31 -612 -340 -799 -438 -13 -7 -22 -15 -19 -17 3
-3 173 86 379 197 345 187 508 281 508 294 0 8 -1 7 -69 -36z"/>
<path d="M85610 34574 c-179 -113 -332 -209 -340 -214 l-15 -8 7 -8 7 -7 238
148 c131 81 286 178 345 214 101 62 125 82 96 80 -7 -1 -159 -93 -338 -205z"/>
<path d="M59564 34542 c-179 -109 -284 -177 -284 -184 0 -4 79 42 175 102 96
61 179 110 184 110 6 0 13 5 16 10 l6 10 -9 0 c-5 0 -44 -22 -88 -48z"/>
<path d="M75776 34559 c38 -42 334 -300 334 -291 0 5 -64 66 -142 135 -79 69
-154 137 -167 151 -14 14 -29 26 -34 26 l-10 0 19 -21z"/>
<path d="M35818 34423 l-5 -148 -16 -36 c-9 -19 -23 -41 -31 -49 -9 -7 -16
-17 -16 -23 l0 -10 25 23 24 23 16 46 15 46 2 132 c1 73 -1 135 -4 138 l-6 6
-4 -148z"/>
<path d="M62265 34555 c-5 -2 -49 -9 -97 -15 l-88 -12 0 -14 0 -14 13 0 c6 1
66 9 132 19 l120 17 -22 12 c-21 12 -38 14 -58 7z"/>
<path d="M62555 34532 l30 -19 74 -16 c41 -10 76 -15 79 -13 2 3 -11 13 -30
23 l-33 18 -60 12 c-33 6 -67 12 -75 12 l-15 1 30 -18z"/>
<path d="M77306 34291 l-129 -66 -311 -5 -311 -6 225 -4 c124 -3 261 -5 306
-5 l81 0 146 72 c81 40 147 75 147 78 0 12 -32 -1 -154 -64z"/>
<path d="M65590 34043 c0 -9 329 -213 373 -231 l27 -12 0 9 c0 5 -13 13 -28
19 -16 5 -100 54 -188 109 -87 55 -165 103 -171 107 l-13 7 0 -8z"/>
<path d="M83082 32965 l-193 -133 3 -9 c2 -4 5 -7 9 -6 13 4 389 265 394 273
l6 10 -13 -1 c-7 -1 -100 -61 -206 -134z"/>
<path d="M79780 32541 c0 -12 58 -61 72 -61 l11 0 -19 23 c-36 42 -64 59 -64
38z"/>
<path d="M34300 32508 c0 -7 9 -26 20 -43 l20 -30 0 13 c0 15 -28 72 -35 72
-3 0 -5 -6 -5 -12z"/>
<path d="M98818 31737 l-27 -11 -10 -29 -11 -29 29 31 29 31 29 0 28 0 -15 10
c-17 11 -16 11 -52 -3z"/>
<path d="M98907 31692 c78 -120 270 -392 276 -392 4 0 -33 60 -83 133 -51 72
-115 167 -144 209 -28 43 -55 78 -59 78 l-9 0 19 -28z"/>
<path d="M10320 28908 c0 -2 -18 -94 -40 -203 -22 -109 -38 -200 -36 -202 6
-7 12 16 51 215 l37 184 -6 6 c-3 3 -6 3 -6 0z"/>
<path d="M8522 28436 c-49 -182 -59 -226 -47 -214 3 3 28 88 56 189 27 101 51
189 54 196 l4 12 -7 5 -8 5 -52 -193z"/>
<path d="M24901 27659 l0 -194 9 -40 8 -40 -5 230 c-3 127 -7 232 -9 234 -2 2
-4 -83 -3 -190z"/>
<path d="M17172 27209 l-43 -191 5 -6 c3 -3 8 -3 11 0 4 4 37 139 84 351 l9
37 -12 0 -11 0 -43 -191z"/>
<path d="M21970 27276 c0 -9 -47 -329 -55 -368 l-4 -28 7 0 7 0 29 195 28 196
-6 6 -6 6 0 -7z"/>
<path d="M24376 26361 l-6 -9 67 -7 68 -6 31 -15 32 -16 11 -24 c6 -14 11 -38
11 -53 l0 -28 -60 -176 c-33 -97 -69 -195 -80 -218 l-21 -41 5 -6 c8 -7 9 -5
43 63 l30 60 52 162 51 161 0 26 c0 15 -6 42 -14 60 l-14 34 -43 15 c-24 9
-69 19 -101 22 l-56 6 -6 -10z"/>
<path d="M4500 25015 l0 -36 -14 -27 c-17 -34 -83 -95 -198 -186 -77 -61 -101
-86 -82 -86 9 0 195 149 242 194 24 22 50 53 58 68 l14 27 0 41 0 40 -10 0
-10 0 0 -35z"/>
<path d="M90495 24839 c50 -5 153 -18 230 -30 l140 -20 120 -34 120 -34 119
-50 c66 -28 121 -49 123 -47 2 2 -52 27 -119 56 l-123 53 -111 33 -111 33
-129 20 -129 20 -110 5 -110 5 90 -10z"/>
<path d="M90561 23670 c-128 -79 -271 -200 -236 -200 3 0 36 26 73 57 58 50
229 167 255 176 l10 3 -4 11 -4 11 -94 -58z"/>
<path d="M89822 22718 c-7 -18 -26 -71 -41 -118 l-29 -85 -7 -88 -7 -87 9 0
10 0 10 98 11 97 32 90 c17 50 34 98 37 108 l5 17 -9 0 c-5 0 -14 -15 -21 -32z"/>
<path d="M89670 22245 c0 -3 16 -70 36 -150 l36 -144 13 -18 14 -18 10 10 10
10 -21 45 c-15 35 -78 247 -78 266 0 2 -4 4 -10 4 -5 0 -10 -2 -10 -5z"/>
<path d="M22678 22081 c-142 -16 -180 -24 -167 -34 2 -2 95 5 207 17 l202 20
0 8 0 8 -42 -1 c-24 -1 -114 -9 -200 -18z"/>
<path d="M22975 21998 l-7 -71 -28 -96 -27 -96 -27 -54 -28 -53 9 -9 9 -9 32
67 c40 84 69 182 86 293 14 84 13 100 -4 100 l-8 0 -7 -72z"/>
<path d="M87167 20324 c149 -158 193 -201 193 -190 0 10 -298 320 -313 325 -7
2 47 -58 120 -135z"/>
<path d="M90884 17233 c4 -10 21 -42 39 -72 l32 -54 106 -111 107 -111 8 8 8
7 -90 93 c-99 102 -139 151 -174 215 -13 23 -28 42 -33 42 l-9 0 6 -17z"/>
<path d="M9470 16892 c1 -4 77 -52 171 -106 l171 -100 31 -38 c17 -21 33 -36
35 -33 8 8 -57 74 -98 99 -96 62 -310 184 -310 178z"/>
<path d="M96780 16807 c0 -2 36 -34 81 -72 44 -37 125 -105 180 -152 54 -46
99 -80 99 -75 0 9 -333 294 -351 300 -5 2 -9 2 -9 -1z"/>
<path d="M91840 16741 c0 -10 229 -232 287 -279 l42 -33 5 9 5 9 -42 34 c-23
19 -96 87 -163 151 -117 114 -134 128 -134 109z"/>
<path d="M92371 16559 c-89 -67 -160 -124 -157 -126 2 -2 78 50 168 118 188
140 174 129 161 129 -5 0 -82 -55 -172 -121z"/>
<path d="M91486 16538 c20 -34 202 -233 252 -277 l56 -50 9 6 9 5 -51 45 c-28
24 -98 98 -157 164 -58 65 -110 119 -115 119 l-10 0 7 -12z"/>
<path d="M15876 16491 l-8 -12 12 -14 12 -14 -7 -20 -6 -21 -25 -6 -24 -6 0
-9 0 -9 24 0 25 0 15 16 16 15 0 28 0 27 -13 19 -14 18 -7 -12z"/>
<path d="M15595 16380 c3 -5 11 -10 16 -10 l10 0 -6 10 c-3 6 -11 10 -16 10
l-10 0 6 -10z"/>
<path d="M92492 16091 c5 -13 338 -301 349 -301 5 0 9 2 9 5 0 8 -342 305
-352 305 l-10 0 4 -9z"/>
<path d="M98540 15264 c1 -12 339 -288 358 -293 12 -2 -206 181 -345 292 l-13
9 0 -8z"/>
<path d="M97920 14524 c-338 -392 -617 -719 -619 -726 l-3 -13 14 15 c11 11
1045 1213 1216 1413 8 9 13 19 11 21 -2 2 -281 -317 -619 -710z"/>
<path d="M97295 13855 c-494 -579 -901 -1059 -903 -1066 l-4 -14 9 10 c12 11
1770 2070 1792 2098 8 10 12 19 10 21 -2 2 -409 -470 -904 -1049z"/>
<path d="M14018 12798 c-47 -68 -110 -156 -138 -195 -28 -40 -48 -73 -43 -73
11 1 274 371 271 382 l-3 8 -87 -122z"/>
<path d="M25509 12776 c-3 -3 -187 -26 -409 -51 -223 -26 -411 -49 -419 -51
-48 -15 41 -7 412 36 l417 49 17 10 18 10 -16 1 c-9 0 -18 -2 -20 -4z"/>
<path d="M31883 3443 c-32 -16 -44 -33 -23 -33 6 0 24 7 40 15 l30 16 0 -16
c0 -8 -24 -57 -52 -108 l-53 -92 -83 -102 -83 -102 -105 -98 -106 -98 -92
-115 c-51 -63 -105 -136 -120 -162 l-28 -48 16 0 15 0 16 30 c8 16 59 85 113
152 l98 123 103 95 102 95 76 94 76 94 64 111 63 111 0 28 0 27 -17 -1 c-10 0
-33 -8 -50 -16z"/>
<path d="M23015 2281 c3 -5 79 -68 170 -140 l164 -130 6 8 5 9 -165 131 c-91
72 -170 131 -176 131 l-10 0 6 -9z"/>
<path d="M22985 2240 c-4 -6 -5 -13 -4 -14 13 -10 296 -231 306 -238 l12 -10
13 4 12 4 -149 119 c-83 65 -157 124 -167 132 l-16 14 -7 -11z"/>
<path d="M9850 1771 l0 -10 43 -5 c23 -3 112 -10 197 -16 85 -6 172 -13 193
-15 l37 -5 0 15 0 15 -27 0 c-16 0 -109 7 -208 15 -99 8 -192 15 -207 15 l-28
0 0 -9z"/>
<path d="M22573 1532 l-413 -186 9 -9 10 -10 403 182 c222 101 405 184 407
186 1 2 1 8 0 14 l-4 10 -412 -187z"/>
<path d="M22343 1487 c-184 -83 -227 -107 -190 -107 6 0 101 39 209 87 l197
88 1 13 c0 6 -3 12 -7 11 -5 0 -99 -42 -210 -92z"/>
<path d="M14040 1461 l0 -9 28 -6 c15 -3 114 -10 220 -17 l192 -12 7 6 c3 4 4
9 2 12 -5 4 -375 35 -426 35 l-23 0 0 -9z"/>
<path d="M14950 1390 c0 -5 3 -10 8 -10 11 0 411 -36 727 -64 231 -21 560 -46
613 -46 l12 0 0 15 0 15 -12 0 c-48 0 -379 24 -618 45 -431 37 -661 55 -697
55 l-33 0 0 -10z"/>
<path d="M16770 1255 l0 -15 33 0 c75 -1 509 -30 517 -35 6 -3 92 -10 192 -15
101 -5 382 -24 625 -42 l443 -32 6 7 c4 4 5 9 2 12 -7 7 -771 63 -958 70 -91
4 -217 13 -280 20 -63 8 -196 19 -295 25 -99 5 -204 12 -232 15 l-53 5 0 -15z"/>
<path d="M17680 1141 l0 -9 78 -6 c42 -3 127 -8 187 -11 61 -4 209 -15 330
-26 203 -18 646 -52 1043 -81 l162 -11 7 6 6 7 -5 5 c-3 4 -245 24 -538 45
-293 22 -603 47 -689 55 -172 16 -459 35 -533 35 l-48 0 0 -9z"/>
</g>
</svg>
