<?xml version="1.0" standalone="no"?>
<!DOCTYPE svg PUBLIC "-//W3C//DTD SVG 20010904//EN"
 "http://www.w3.org/TR/2001/REC-SVG-20010904/DTD/svg10.dtd">
<svg version="1.0" xmlns="http://www.w3.org/2000/svg"
 width="7500.000000pt" height="7500.000000pt" viewBox="0 0 7500.000000 7500.000000"
 preserveAspectRatio="xMidYMid meet">
<metadata>
Created by potrace 1.16, written by Peter Selinger 2001-2019
</metadata>
<g transform="translate(0.000000,7500.000000) scale(0.075000,-0.075000)"
fill="#000000" stroke="none">
<path d="M88934 99969 c63 -27 94 -32 70 -10 -16 14 -93 41 -117 41 l-22 -1
69 -30z"/>
<path d="M90245 99988 c-2 -7 -20 -55 -40 -106 -36 -96 -42 -122 -27 -122 l9
0 42 113 c22 61 41 115 41 120 0 12 -20 8 -25 -5z"/>
<path d="M89958 99297 c-15 -50 -40 -150 -54 -220 l-27 -128 7 -6 6 -7 9 10
c4 5 18 59 30 119 21 102 64 275 77 310 l6 15 -13 0 -14 0 -27 -93z"/>
<path d="M84333 98843 l-173 -3 0 -10 0 -10 53 0 c28 0 116 3 195 7 l142 6 0
9 0 8 -22 -2 c-13 -1 -101 -4 -195 -5z"/>
<path d="M84489 98806 c-2 -3 -77 -6 -167 -8 l-162 -3 0 -8 0 -9 187 8 188 7
25 8 25 7 -46 1 c-25 1 -48 -1 -50 -3z"/>
<path d="M26790 98481 c0 -5 17 -19 38 -32 20 -12 108 -67 195 -122 l158 -100
6 7 c8 8 17 2 -147 106 -80 50 -164 105 -187 121 -42 30 -63 36 -63 20z"/>
<path d="M27581 97964 c0 -12 338 -288 357 -292 l14 -4 -6 10 c-9 15 -335 282
-352 289 l-14 5 1 -8z"/>
<path d="M28996 96731 l-6 -9 82 -64 c147 -114 281 -213 378 -279 52 -35 183
-136 292 -224 l197 -160 90 -57 90 -57 6 8 5 9 -92 58 -91 58 -171 140 c-94
77 -218 173 -276 214 -80 57 -397 294 -487 364 l-11 9 -6 -10z"/>
<path d="M87880 96350 l-65 -7 135 0 135 0 74 -26 c41 -15 77 -24 79 -22 3 3
-4 8 -14 11 -10 4 -41 16 -69 27 l-50 19 -80 3 c-44 2 -109 -1 -145 -5z"/>
<path d="M86933 96239 l-41 -42 -83 2 c-46 1 -93 3 -104 3 -11 1 -32 1 -47 0
l-28 -2 0 -7 0 -8 134 0 134 0 22 20 c22 20 65 75 58 75 -2 0 -22 -19 -45 -41z"/>
<path d="M88641 96136 c11 -10 390 -168 394 -164 3 3 -82 42 -187 87 -169 71
-223 91 -207 77z"/>
<path d="M88998 95782 c-20 -26 -87 -100 -147 -166 l-111 -118 7 -11 6 -11
108 115 c60 63 129 139 153 170 l45 56 -6 7 c-11 11 -17 6 -55 -42z"/>
<path d="M98461 94777 l85 -82 67 -37 67 -37 0 10 c0 5 -4 9 -8 9 -5 0 -39 21
-78 46 l-69 46 -65 64 c-36 35 -70 64 -75 64 -6 -1 29 -38 76 -83z"/>
<path d="M98131 94586 c2 -2 82 -36 177 -74 l172 -71 0 8 c0 4 -75 37 -168 74
-149 60 -194 75 -181 63z"/>
<path d="M18540 94373 c0 -5 83 -71 185 -147 l186 -138 5 5 6 6 -178 132 c-99
72 -185 136 -191 142 l-13 9 0 -9z"/>
<path d="M87651 93201 c-105 -109 -191 -201 -191 -205 0 -3 90 85 200 196
l199 203 80 -81 80 -80 14 8 c8 4 27 8 43 10 l29 2 38 -13 c21 -7 41 -11 44
-8 2 3 -20 13 -50 23 l-54 17 -30 -11 -30 -10 -74 74 -73 74 -17 0 -17 0 -191
-199z"/>
<path d="M79480 93180 l-545 -116 -115 -38 c-149 -48 -144 -46 -139 -51 3 -2
67 16 142 40 l138 44 532 112 c293 62 534 114 536 116 16 12 -63 -3 -549 -107z"/>
<path d="M88180 93191 c0 -4 95 -42 211 -84 l211 -78 11 4 11 3 -100 37 c-260
95 -344 124 -344 118z"/>
<path d="M86810 92736 c0 -2 54 -39 121 -81 l120 -78 35 34 c19 18 34 37 34
43 l0 10 -33 -32 c-18 -18 -37 -32 -42 -32 -6 0 -57 32 -115 70 -96 64 -120
77 -120 66z"/>
<path d="M86780 92706 c0 -6 180 -125 237 -157 l42 -24 46 45 c25 24 45 49 45
54 l0 10 -43 -42 c-23 -23 -48 -42 -54 -42 -11 0 -140 77 -220 131 -40 28 -53
34 -53 25z"/>
<path d="M22300 92532 c0 -9 388 -117 395 -110 4 4 -66 25 -312 93 l-83 23 0
-6z"/>
<path d="M92115 92018 c-15 -40 -32 -79 -38 -85 l-9 -13 -24 0 c-12 0 -75 18
-139 41 l-117 41 -5 -6 -6 -6 14 -5 c8 -3 65 -23 128 -45 l114 -41 28 6 27 6
17 42 c9 23 26 63 36 90 l19 47 -9 0 -8 0 -28 -72z"/>
<path d="M95127 91764 l-139 -176 10 -10 9 -9 140 180 141 179 -6 6 c-3 3 -8
6 -11 6 -3 0 -68 -79 -144 -176z"/>
<path d="M24360 91909 l0 -9 28 -6 c15 -4 111 -31 215 -59 l187 -52 5 7 4 7
-132 36 c-73 20 -171 48 -219 61 l-88 24 0 -9z"/>
<path d="M55944 91624 c-53 -102 -97 -193 -98 -202 l-1 -15 10 -3 10 -4 103
199 c56 109 102 201 102 205 0 3 -6 6 -14 6 l-15 0 -97 -186z"/>
<path d="M33290 90882 l0 -9 221 -17 221 -17 6 5 5 6 -6 7 c-9 8 -287 32 -379
33 l-68 0 0 -8z"/>
<path d="M95400 90491 c0 -4 95 -46 211 -95 l210 -88 6 6 c4 3 4 6 1 6 -3 0
-101 40 -217 89 -116 49 -211 86 -211 82z"/>
<path d="M30730 90236 c0 -2 7 -7 16 -10 l15 -6 -6 10 c-6 10 -25 14 -25 6z"/>
<path d="M30750 90146 l35 -35 130 -51 c72 -29 137 -55 145 -58 l15 -5 -10 11
c-5 6 -68 34 -140 62 l-129 51 -33 30 c-46 40 -55 37 -13 -5z"/>
<path d="M33568 90155 l-6 -6 30 -100 29 -100 50 -106 c27 -58 49 -114 49
-124 l0 -19 10 0 10 0 0 20 0 19 -51 108 -51 108 -29 99 c-30 103 -32 109 -41
101z"/>
<path d="M30825 90140 c11 -6 119 -49 240 -96 l220 -87 85 -18 c97 -21 110
-22 110 -11 l0 8 -90 17 -90 18 -158 60 c-211 82 -400 146 -317 109z"/>
<path d="M31472 89885 c2 -3 87 -17 187 -31 l182 -27 12 13 12 13 -16 -6 -17
-6 -163 24 c-167 25 -206 29 -197 20z"/>
<path d="M94215 89398 c92 -90 172 -164 179 -166 6 -2 -65 71 -159 162 -93 91
-174 165 -178 166 -5 0 67 -73 158 -162z"/>
<path d="M85175 88945 c-132 -24 -377 -73 -544 -109 -167 -36 -360 -75 -430
-85 l-126 -19 40 -1 c63 -2 204 24 559 100 338 73 606 122 615 114 2 -3 0 -10
-5 -15 l-10 -10 -188 -35 c-104 -19 -191 -37 -194 -40 -9 -8 8 -6 178 25 90
17 172 30 182 30 l18 0 -80 -160 c-44 -88 -80 -163 -80 -167 0 -5 40 68 89
161 l88 169 18 10 17 9 -13 9 -13 8 6 7 c4 3 27 11 50 16 l43 10 205 7 205 7
-195 1 -195 1 -240 -43z"/>
<path d="M86360 88980 c41 -5 125 -11 185 -15 l110 -6 65 10 65 9 -135 -1
c-74 0 -187 2 -250 5 l-115 6 75 -8z"/>
<path d="M78966 88441 c5 -5 189 -72 409 -149 220 -77 413 -145 428 -151 l29
-11 -4 12 -5 13 -419 147 c-230 81 -426 148 -433 148 l-15 0 10 -9z"/>
<path d="M79850 88192 l0 -10 83 -30 c45 -16 137 -48 205 -72 l122 -43 7 7 c3
3 4 7 2 9 -2 2 -92 34 -199 72 -107 37 -201 70 -207 73 l-13 4 0 -10z"/>
<path d="M84807 87985 c-53 -107 -93 -195 -89 -195 10 0 198 378 191 384 -2 3
-48 -82 -102 -189z"/>
<path d="M89554 88153 c2 -10 21 -94 41 -188 20 -93 39 -178 42 -188 l5 -19 5
6 6 6 -44 200 -44 200 -8 0 -8 0 5 -17z"/>
<path d="M15976 87891 c5 -5 137 -86 294 -178 l285 -170 135 -99 c74 -54 201
-151 282 -216 81 -65 150 -118 153 -118 3 0 5 4 5 9 0 12 -305 255 -447 356
l-112 79 -292 173 c-160 95 -296 173 -302 173 l-11 0 10 -9z"/>
<path d="M84647 87577 c-54 -105 -90 -181 -80 -168 27 37 194 361 185 361 -4
0 -51 -87 -105 -193z"/>
<path d="M84477 87348 c-55 -100 -109 -212 -177 -368 -35 -80 -66 -149 -70
-153 l-7 -8 -257 71 c-241 66 -286 76 -275 66 3 -3 122 -37 264 -76 143 -39
265 -72 271 -74 l11 -4 73 166 c74 168 184 396 203 420 5 7 7 15 5 18 -3 3
-21 -23 -41 -58z"/>
<path d="M36060 87337 c0 -9 481 -409 486 -404 4 4 -459 397 -478 405 -5 2 -8
2 -8 -1z"/>
<path d="M83200 87012 l0 -8 191 -68 190 -69 -5 -14 c-3 -8 -24 -96 -46 -196
-22 -100 -68 -297 -102 -437 l-61 -255 -34 -89 c-19 -49 -79 -179 -134 -288
l-99 -198 12 0 13 1 107 222 c59 122 116 246 128 275 25 66 115 420 185 732
l53 235 11 -2 11 -3 0 15 0 15 -9 0 -9 0 10 36 9 36 -6 6 -6 6 -9 -14 c-6 -8
-10 -25 -10 -37 l0 -23 -8 0 c-4 0 -88 29 -187 65 -185 67 -195 70 -195 57z"/>
<path d="M83192 86960 l4 -13 50 -18 c27 -9 106 -37 176 -62 l127 -46 6 8 5 9
-168 60 c-92 33 -175 64 -186 68 l-19 7 5 -13z"/>
<path d="M83650 86946 c0 -4 -27 -126 -59 -269 -33 -144 -64 -281 -69 -305
l-10 -43 11 4 10 3 68 299 68 300 -9 9 -10 10 0 -8z"/>
<path d="M85453 86205 l-182 -113 -178 -140 c-98 -77 -189 -152 -202 -166
l-24 -26 6 -6 7 -7 30 24 c16 13 116 92 222 175 l193 151 160 98 c88 54 162
100 164 102 3 2 0 7 -5 12 l-9 10 -182 -114z"/>
<path d="M79035 85928 c-10 -33 -74 -422 -70 -427 11 -10 17 15 50 205 20 110
37 207 39 217 l4 17 -9 0 c-5 0 -11 -6 -14 -12z"/>
<path d="M80395 85759 c-2 -8 -34 -95 -69 -194 -35 -99 -68 -189 -72 -200 l-7
-20 10 10 c14 13 155 406 149 413 -3 3 -8 -1 -11 -9z"/>
<path d="M80861 85631 c25 -16 389 -140 389 -132 0 5 -330 122 -390 138 l-15
5 16 -11z"/>
<path d="M56250 85570 l0 -10 195 0 195 0 0 10 0 10 -195 0 -195 0 0 -10z"/>
<path d="M88347 85158 c-31 -123 -60 -234 -63 -248 -3 -14 -23 -94 -45 -178
-22 -84 -39 -158 -37 -164 2 -6 24 65 48 158 24 93 46 173 50 177 l7 8 217
-61 c119 -34 222 -60 228 -58 6 2 -83 30 -198 62 -115 32 -219 62 -231 67
l-21 8 54 208 54 208 -2 18 -3 18 -58 -223z"/>
<path d="M82500 85072 c0 -9 350 -126 356 -119 3 3 -76 32 -175 65 -100 33
-181 57 -181 54z"/>
<path d="M22235 84931 l-4 -8 215 -93 215 -93 5 6 6 5 -21 11 c-11 6 -108 49
-215 95 l-196 84 -5 -7z"/>
<path d="M86621 84365 c-13 -93 -26 -186 -29 -205 l-5 -35 6 6 c9 8 59 355 55
382 l-3 22 -24 -170z"/>
<path d="M82662 84485 l11 -26 9 9 9 9 -7 16 -6 17 -14 0 -14 0 12 -25z"/>
<path d="M80066 84482 c5 -5 95 -38 199 -75 105 -36 199 -68 210 -73 l20 -7
-10 10 c-9 10 -406 153 -422 153 -4 0 -3 -4 3 -8z"/>
<path d="M80961 84211 c25 -16 419 -150 419 -143 0 6 -359 133 -420 149 l-15
5 16 -11z"/>
<path d="M91059 83968 c-57 -84 -128 -181 -156 -215 l-53 -62 0 -33 0 -33 20
-30 c10 -16 34 -46 52 -66 l33 -36 143 -72 c79 -40 146 -71 148 -68 3 2 -62
39 -143 80 l-148 76 -31 38 c-17 21 -38 52 -47 69 l-16 31 6 24 6 24 38 45
c32 39 134 181 237 333 l33 47 -9 0 c-4 0 -55 -69 -113 -152z"/>
<path d="M1 83956 l4 -19 24 -15 23 -16 -3 18 -4 19 -24 15 -23 16 3 -18z"/>
<path d="M81811 83906 c2 -2 91 -35 197 -74 l192 -69 0 7 c0 9 -12 14 -209 85
-133 48 -195 65 -180 51z"/>
<path d="M83270 83631 l0 -180 10 -6 10 -6 0 185 0 186 -10 0 -10 0 0 -179z"/>
<path d="M77525 83646 c17 -7 200 -70 408 -141 l378 -127 6 6 6 6 -14 4 c-158
55 -799 266 -805 266 -5 -1 5 -7 21 -14z"/>
<path d="M82107 83413 c-12 -11 -8 -23 8 -23 l15 0 0 15 c0 16 -12 20 -23 8z"/>
<path d="M93006 83139 c-70 -100 -125 -184 -122 -186 2 -2 61 77 131 177 70
100 125 184 122 186 -3 3 -62 -77 -131 -177z"/>
<path d="M76550 82553 c-63 -102 -116 -193 -118 -202 -2 -9 40 54 93 139 124
198 148 240 144 245 -3 2 -56 -80 -119 -182z"/>
<path d="M92502 82418 c-63 -88 -112 -162 -109 -164 6 -6 229 306 225 316 -2
4 -54 -65 -116 -152z"/>
<path d="M92542 82405 c-85 -119 -134 -198 -110 -175 5 4 141 194 207 288 l22
32 -8 0 c-4 0 -54 -65 -111 -145z"/>
<path d="M76340 82294 c-23 -36 -78 -122 -121 -191 -44 -69 -75 -123 -70 -121
13 4 244 368 238 374 -3 3 -24 -25 -47 -62z"/>
<path d="M96471 81777 c-36 -51 -155 -218 -266 -372 -110 -154 -286 -399 -390
-545 -104 -146 -255 -355 -336 -466 -80 -110 -154 -213 -164 -227 l-17 -27 9
0 c5 0 57 66 116 148 184 255 1112 1556 1121 1571 l7 11 -8 0 c-4 -1 -37 -42
-72 -93z"/>
<path d="M95640 80687 c-58 -82 -114 -164 -124 -181 l-19 -31 15 15 c27 25
239 331 236 339 -2 5 -50 -60 -108 -142z"/>
<path d="M98863 79478 c-22 -51 -64 -144 -92 -205 l-50 -113 8 0 c4 0 47 89
96 198 49 108 90 200 92 205 2 4 0 7 -4 7 -5 0 -27 -42 -50 -92z"/>
<path d="M77530 79083 c0 -18 175 -287 281 -431 54 -72 123 -173 155 -222 31
-50 61 -90 65 -90 l9 0 -77 118 c-43 64 -110 160 -148 213 -39 52 -115 165
-169 250 -55 85 -103 158 -107 164 l-9 9 0 -11z"/>
<path d="M59765 78570 l-6 -9 138 -137 c75 -75 147 -143 160 -152 l24 -15 10
10 9 9 -92 83 c-51 46 -121 115 -156 152 -64 69 -76 77 -87 59z"/>
<path d="M12977 77625 c-31 -109 -55 -201 -52 -203 6 -6 6 -7 65 202 28 98 49
183 47 189 -2 6 -29 -79 -60 -188z"/>
<path d="M28920 77561 c0 -5 14 -102 30 -216 l30 -207 0 -69 0 -69 10 0 10 0
0 69 0 69 -30 207 c-16 114 -30 211 -30 216 0 5 -4 9 -10 9 -5 0 -10 -4 -10
-9z"/>
<path d="M78680 77068 c0 -3 20 -59 45 -125 l45 -118 0 -23 0 -23 -20 -37
c-11 -20 -27 -47 -36 -59 l-16 -23 9 0 c20 0 83 104 83 137 0 22 -87 254 -101
268 -5 5 -9 6 -9 3z"/>
<path d="M74838 76960 l-86 -80 -16 -47 -16 -47 0 -48 0 -48 15 0 15 0 0 50 0
51 14 32 14 32 85 84 86 85 -5 8 c-9 15 -18 9 -106 -72z"/>
<path d="M2146 75963 c-3 -4 -6 -9 -6 -13 0 -9 89 -46 274 -115 l150 -55 10
10 c5 5 8 11 5 13 -2 2 -75 30 -162 61 -86 32 -182 68 -211 81 l-54 24 -6 -6z"/>
<path d="M30170 75102 c0 -4 44 -26 98 -49 l97 -41 107 -26 c117 -28 128 -30
128 -18 l0 8 -117 28 -118 29 -89 38 c-93 40 -106 44 -106 31z"/>
<path d="M31055 74840 l-5 -9 52 -15 c29 -8 127 -38 218 -65 153 -46 188 -53
164 -32 -8 7 -155 52 -361 112 l-63 18 -5 -9z"/>
<path d="M33730 74102 l0 -9 83 -22 c45 -12 111 -34 147 -48 l65 -26 65 -55
c35 -30 116 -108 179 -174 l114 -119 39 -20 39 -20 10 7 11 6 -49 28 -49 28
-103 109 c-57 59 -130 132 -164 162 l-62 53 -60 28 c-50 23 -233 80 -257 80
-5 0 -8 -4 -8 -8z"/>
<path d="M35352 73299 l4 -12 39 -15 c22 -9 107 -58 188 -109 82 -51 150 -93
153 -93 32 0 -252 188 -340 224 -46 19 -49 19 -44 5z"/>
<path d="M36530 73303 c0 -3 6 -14 13 -22 8 -9 23 -43 34 -76 l21 -60 18 -147
17 -148 9 0 8 0 0 23 c-1 12 -9 85 -19 162 l-19 140 -22 55 c-12 30 -26 61
-32 67 -11 14 -28 17 -28 6z"/>
<path d="M72261 72586 c13 -12 353 -156 361 -154 l10 4 -173 77 c-145 64 -219
92 -198 73z"/>
<path d="M25122 71928 l4 -12 222 -30 222 -30 7 7 c3 4 4 9 1 12 -5 5 -418 65
-446 65 l-14 0 4 -12z"/>
<path d="M38306 71058 c67 -84 191 -220 226 -249 23 -19 52 -42 64 -52 l23
-17 5 8 5 9 -60 49 -61 49 -96 110 -95 110 -15 4 -15 3 19 -24z"/>
<path d="M76630 69638 c0 -3 19 -47 41 -99 23 -52 59 -146 81 -209 l39 -115
24 -145 24 -145 10 -315 c6 -173 11 -346 11 -384 l0 -70 11 11 12 12 -12 373
-12 373 -24 145 -24 145 -45 130 c-24 72 -60 166 -80 210 l-35 80 -10 3 c-6 2
-11 2 -11 0z"/>
<path d="M21415 69234 c-11 -1 -88 -8 -172 -15 l-152 -12 -12 -8 c-26 -15 -3
-16 121 -4 69 7 169 16 223 20 l97 7 0 9 0 9 -42 -1 c-24 -1 -52 -3 -63 -5z"/>
<path d="M33520 69148 l0 -13 25 -12 25 -11 6 9 6 10 -12 14 -12 15 -19 0 -19
0 0 -12z"/>
<path d="M36220 69123 l0 -8 198 -29 c108 -15 208 -30 222 -33 l25 -6 -10 10
-10 10 -190 27 c-104 15 -200 29 -212 31 l-23 5 0 -7z"/>
<path d="M36212 69084 c8 -7 384 -64 418 -63 14 0 21 2 15 5 -11 4 -410 64
-428 64 l-10 0 5 -6z"/>
<path d="M2270 68481 c0 -11 196 -328 229 -371 l20 -25 7 7 7 7 -25 33 c-13
18 -68 104 -122 191 -54 86 -102 160 -107 163 l-9 5 0 -10z"/>
<path d="M38450 68462 l0 -9 188 -73 c103 -40 202 -79 220 -87 l32 -13 0 7 c0
5 -85 41 -188 82 -103 41 -202 81 -219 88 l-33 13 0 -8z"/>
<path d="M41301 67718 l-71 -203 0 -28 0 -28 10 6 10 6 0 22 c0 12 31 110 69
217 l70 195 -8 8 -8 8 -72 -203z"/>
<path d="M41417 67878 c-43 -114 -130 -368 -134 -394 l-6 -34 12 0 11 0 0 20
c0 11 32 109 70 216 39 108 70 198 70 200 0 10 -18 3 -23 -8z"/>
<path d="M41145 67424 l-50 -13 50 5 c48 6 63 10 54 17 -2 2 -26 -2 -54 -9z"/>
<path d="M45796 67233 c-52 -87 -120 -196 -150 -243 -30 -47 -53 -87 -50 -89
2 -2 6 -2 8 0 18 22 140 214 211 332 l88 147 -6 6 -5 5 -96 -158z"/>
<path d="M41351 67325 c4 -3 142 -58 367 -146 l22 -9 0 8 c0 4 -85 40 -188 80
-171 66 -214 80 -201 67z"/>
<path d="M38452 66914 l-214 -12 -6 -8 -7 -7 100 6 c55 4 157 10 228 13 l127
7 0 8 c0 5 -3 8 -7 8 -5 -1 -104 -8 -221 -15z"/>
<path d="M38465 66874 c-110 -7 -209 -13 -219 -13 l-19 -1 5 -6 6 -5 226 12
226 12 0 9 c0 4 -6 7 -12 7 -7 -1 -103 -8 -213 -15z"/>
<path d="M47722 66743 c-34 -65 -83 -154 -110 -198 -28 -44 -48 -82 -46 -84 5
-6 5 -7 61 84 60 98 166 305 160 311 -3 3 -32 -48 -65 -113z"/>
<path d="M77235 66560 l-80 -6 110 -1 c61 0 162 3 225 7 l115 7 -145 -1 c-80
0 -181 -3 -225 -6z"/>
<path d="M41142 66517 l-22 -23 0 -41 0 -41 14 -11 14 -12 7 11 7 12 -11 11
-11 11 0 21 0 22 25 23 c14 13 25 27 25 32 0 16 -27 8 -48 -15z"/>
<path d="M41250 66481 l0 -10 95 -56 c52 -31 197 -122 323 -204 260 -169 252
-164 252 -156 0 7 -376 254 -523 343 l-109 67 -5 12 -5 13 -14 0 -14 0 0 -9z"/>
<path d="M17520 66417 c0 -2 -16 -102 -35 -223 -19 -120 -32 -220 -30 -223 12
-11 18 18 46 196 16 103 31 203 34 221 l6 32 -11 0 c-5 0 -10 -2 -10 -3z"/>
<path d="M41270 66367 l1 -12 294 -188 295 -189 10 4 11 3 -306 197 -305 197
0 -12z"/>
<path d="M97697 66295 c-115 -29 -211 -56 -214 -59 l-6 -6 6 -6 6 -7 188 47
c103 26 205 51 226 57 l37 10 0 9 0 10 -17 -1 c-10 0 -112 -25 -226 -54z"/>
<path d="M97266 66136 l-209 -51 -5 -14 -5 -14 24 6 c13 3 113 27 222 53 l197
48 0 13 c0 16 23 20 -224 -41z"/>
<path d="M97467 66143 l-5 -9 39 -194 39 -195 59 -200 c32 -110 67 -218 76
-240 l18 -40 4 17 4 17 -9 18 c-6 10 -38 113 -72 228 l-62 210 -39 194 c-21
107 -41 196 -43 198 -2 2 -6 1 -9 -4z"/>
<path d="M96738 66073 l-226 -45 4 -12 5 -12 234 45 234 46 1 10 1 10 -13 1
c-7 1 -115 -18 -240 -43z"/>
<path d="M84416 66011 l-200 -67 -4 -14 -5 -13 14 5 c8 3 108 35 222 72 l208
67 -6 9 c-9 15 -15 13 -229 -59z"/>
<path d="M41907 66010 l-17 -20 9 0 c11 0 35 29 29 35 -2 2 -12 -4 -21 -15z"/>
<path d="M97551 65973 c0 -5 10 -55 23 -112 l22 -105 11 -3 11 -4 -19 93 c-10
51 -21 103 -24 116 l-5 22 -10 0 c-6 0 -10 -3 -9 -7z"/>
<path d="M49130 65903 c1 -5 49 -42 108 -83 58 -41 137 -96 174 -123 l68 -48
0 10 0 10 -170 121 c-93 66 -171 120 -175 120 -3 0 -5 -3 -5 -7z"/>
<path d="M42940 65830 l0 -10 158 -103 c86 -57 163 -106 170 -111 l12 -7 0 9
c0 8 -136 102 -287 199 l-53 34 0 -11z"/>
<path d="M83701 65663 c3 -27 12 -64 19 -83 l13 -35 48 -60 c26 -33 57 -82 70
-108 13 -26 27 -47 31 -47 l8 0 -26 53 c-15 28 -47 78 -72 110 l-45 59 -18 49
-19 49 0 30 0 30 -8 0 -8 0 7 -47z"/>
<path d="M46971 65467 c-103 -154 -213 -331 -268 -429 -2 -5 0 -8 4 -8 5 0 35
46 68 103 33 56 122 196 198 311 76 114 136 210 133 213 -2 3 -63 -83 -135
-190z"/>
<path d="M50726 65651 c9 -9 427 -300 453 -316 l14 -8 -6 11 c-9 13 -453 322
-463 322 l-8 0 10 -9z"/>
<path d="M42621 65536 l-12 -14 9 -5 8 -6 12 20 12 19 -9 0 c-5 0 -14 -6 -20
-14z"/>
<path d="M31180 65522 l0 -20 108 -7 c59 -4 159 -13 222 -21 63 -8 118 -14
123 -14 l7 0 0 20 c0 11 -1 20 -3 20 -1 0 -56 6 -122 14 -66 8 -168 18 -227
22 l-108 6 0 -20z"/>
<path d="M70190 65508 c0 -3 18 -37 39 -75 22 -37 63 -121 92 -186 29 -64 54
-115 56 -113 7 6 -119 274 -155 331 -17 28 -32 47 -32 43z"/>
<path d="M33286 65062 l-8 -24 6 -5 6 -6 6 5 c3 4 4 17 2 30 l-4 23 -8 -23z"/>
<path d="M37057 64571 l-5 -19 67 -16 c105 -24 296 -45 570 -61 139 -8 264
-15 277 -15 l24 0 0 20 0 20 -29 0 c-16 0 -139 7 -273 15 l-243 15 -155 21
c-85 11 -168 24 -184 29 -40 14 -43 13 -49 -9z"/>
<path d="M40690 64523 c0 -5 20 -68 44 -139 24 -71 47 -148 51 -172 l7 -42 8
5 8 5 -9 42 c-12 57 -90 290 -100 303 l-9 9 0 -11z"/>
<path d="M98117 64414 l-5 -9 89 -205 c50 -113 94 -209 99 -214 l10 -10 0 11
c0 11 -161 389 -180 422 l-7 14 -6 -9z"/>
<path d="M40660 64190 l0 -10 61 0 60 0 -6 10 -6 10 -55 0 -54 0 0 -10z"/>
<path d="M48601 64196 c11 -10 379 -163 379 -158 0 4 -82 42 -183 85 -160 68
-211 87 -196 73z"/>
<path d="M40822 64185 c4 -5 411 -55 442 -55 l9 0 -5 6 c-5 5 -400 54 -437 54
-8 0 -12 -2 -9 -5z"/>
<path d="M40584 64118 l-46 -62 6 -29 6 -29 237 -265 c131 -146 250 -280 265
-297 14 -17 28 -29 31 -26 3 3 -113 138 -258 300 l-264 295 -4 23 -4 23 36 52
c48 67 53 77 47 77 -4 0 -27 -28 -52 -62z"/>
<path d="M40720 64150 l0 -10 30 0 30 0 0 10 0 10 -30 0 -30 0 0 -10z"/>
<path d="M78490 64033 c-102 -13 -187 -26 -189 -29 -2 -2 -2 -7 1 -10 l6 -5
216 27 216 28 0 8 0 8 -32 -1 c-18 -1 -116 -12 -218 -26z"/>
<path d="M32988 64008 c-26 -42 -47 -105 -62 -193 l-16 -88 -22 -24 c-13 -14
-82 -64 -155 -111 l-131 -86 -10 -36 c-6 -19 -16 -68 -23 -108 -7 -40 -16 -75
-20 -78 l-8 -5 5 -13 5 -14 17 5 17 4 388 -46 c366 -43 446 -50 436 -41 -2 2
-191 25 -419 51 -228 27 -417 50 -419 51 -7 6 21 157 35 192 l13 32 128 84
c70 46 139 95 152 109 l24 26 14 83 14 83 21 55 c12 30 26 61 31 68 5 7 8 15
5 18 -3 2 -12 -6 -20 -18z"/>
<path d="M78523 63981 c-190 -24 -236 -33 -222 -45 3 -2 433 49 447 53 6 2 1
21 -5 20 -5 -1 -103 -13 -220 -28z"/>
<path d="M76902 63825 c4 -59 11 -85 22 -74 2 2 2 34 -1 72 l-6 67 -10 0 -9 0
4 -65z"/>
<path d="M89621 63833 c102 -114 165 -190 204 -249 l45 -69 0 13 c0 7 -15 35
-34 63 -46 69 -217 269 -229 269 l-11 0 25 -27z"/>
<path d="M76600 63809 l-145 -7 -82 5 -83 6 0 -11 0 -10 107 -7 106 -8 101 7
c56 4 125 10 153 13 l53 6 -6 8 -5 9 -27 -2 c-15 -1 -92 -5 -172 -9z"/>
<path d="M41451 63743 l-24 -5 -174 -145 c-95 -81 -171 -148 -168 -151 4 -4
134 102 300 245 l50 43 40 0 40 0 49 -15 c27 -8 56 -15 65 -14 l16 1 -60 19
c-74 23 -103 28 -134 22z"/>
<path d="M40368 63560 c17 -20 32 -41 32 -47 l0 -11 -147 -128 c-82 -70 -157
-135 -167 -145 l-20 -18 6 -6 5 -5 169 146 c93 81 170 152 172 158 l3 11 -43
40 -43 40 33 -35z"/>
<path d="M41197 63494 c-80 -69 -95 -84 -83 -84 3 0 42 32 87 70 45 39 82 70
84 68 13 -18 221 -246 233 -255 9 -7 20 -13 25 -13 l9 0 -20 18 c-15 13 -142
153 -241 264 l-7 8 -87 -76z"/>
<path d="M39730 63489 l55 -32 70 -61 c38 -33 81 -74 95 -91 14 -16 40 -46 57
-65 l32 -35 1 12 0 12 -112 114 -113 113 -57 32 c-32 18 -63 32 -70 32 l-13 0
55 -31z"/>
<path d="M16581 63444 c-90 -36 -98 -41 -88 -50 l6 -6 96 37 95 37 0 9 0 9
-12 -1 c-7 -1 -51 -16 -97 -35z"/>
<path d="M16247 63320 c-47 -39 -114 -86 -148 -106 l-63 -35 -95 -27 -96 -27
24 -3 24 -4 81 23 81 23 60 36 c33 20 99 68 147 107 l88 72 -9 5 -9 6 -85 -70z"/>
<path d="M43055 63249 c-123 -110 -156 -143 -122 -123 27 17 276 244 267 244
-5 0 -70 -54 -145 -121z"/>
<path d="M16357 63315 l-17 -36 0 -39 0 -38 26 -31 26 -31 9 6 10 5 -26 31
-25 30 0 28 c0 15 7 44 15 63 17 42 18 47 7 47 -5 0 -16 -16 -25 -35z"/>
<path d="M41999 63333 c24 -46 510 -597 518 -589 3 3 -85 105 -194 228 -110
123 -227 258 -262 301 -61 75 -81 95 -62 60z"/>
<path d="M6995 63297 l-18 -10 -161 5 -161 5 -30 -7 -30 -7 15 -6 c8 -3 85 -8
170 -10 l156 -5 43 8 c23 4 47 12 52 17 l10 10 -13 6 -14 5 -19 -11z"/>
<path d="M16654 63218 c3 -34 8 -64 11 -66 11 -11 13 6 8 66 l-6 62 -10 0 -10
0 7 -62z"/>
<path d="M8726 63134 l-5 -14 22 -5 c12 -2 94 -14 182 -25 88 -12 175 -23 193
-26 l32 -6 0 16 c0 9 -1 16 -3 16 -5 0 -368 49 -394 54 l-22 3 -5 -13z"/>
<path d="M41545 63140 c3 -5 11 -10 16 -10 l10 0 -6 10 c-3 6 -11 10 -16 10
l-10 0 6 -10z"/>
<path d="M2920 63111 c0 -10 303 -283 321 -289 l9 -4 0 10 c0 9 -287 267 -317
285 l-13 8 0 -10z"/>
<path d="M16660 63049 l0 -50 10 6 10 6 0 45 0 44 -10 0 -10 0 0 -51z"/>
<path d="M13735 63080 l-30 -8 160 1 160 2 35 -8 35 -7 -30 14 -30 15 -135 -1
-135 0 -30 -8z"/>
<path d="M58655 62923 c-38 -21 -151 -94 -250 -162 l-180 -125 -233 -188
c-129 -103 -229 -188 -224 -188 6 0 110 81 233 179 l223 180 19 -11 c17 -9
800 -341 837 -355 l15 -6 -10 11 c-5 6 -196 89 -423 185 -227 96 -414 178
-415 182 -1 4 79 64 178 132 l180 124 70 36 69 35 106 -6 c58 -4 125 -9 150
-12 l45 -5 -15 10 -16 10 -144 6 -145 6 -70 -38z"/>
<path d="M16664 62904 c3 -26 6 -80 6 -120 l0 -74 10 0 10 0 0 74 c0 40 -3 94
-6 120 l-7 46 -10 0 -10 0 7 -46z"/>
<path d="M17735 62938 c-385 -11 -996 -51 -983 -64 3 -2 160 7 349 20 l344 24
304 6 305 6 10 10 10 10 -24 -2 c-14 -1 -155 -5 -315 -10z"/>
<path d="M16005 62909 l20 -13 145 -2 145 -2 -130 8 c-71 4 -146 11 -165 15
l-35 6 20 -12z"/>
<path d="M59508 62893 c12 -2 115 -12 228 -22 l205 -17 4 6 4 6 -207 17 c-114
10 -218 17 -232 16 l-25 -2 23 -4z"/>
<path d="M43415 62729 c-82 -72 -152 -136 -154 -142 l-4 -12 24 21 c13 11 86
74 162 138 75 65 137 120 137 122 0 13 -30 -10 -165 -127z"/>
<path d="M59492 62854 c7 -7 889 -76 895 -70 3 3 -15 7 -39 10 -38 5 -828 66
-852 66 l-9 0 5 -6z"/>
<path d="M89035 62649 c-77 -99 -142 -185 -144 -192 l-3 -12 10 10 c12 12 275
346 286 363 l7 12 -8 -1 c-4 0 -71 -81 -148 -180z"/>
<path d="M42434 62647 c-43 -40 -159 -142 -256 -225 -98 -84 -178 -155 -178
-159 0 -8 8 -1 230 189 176 150 303 268 289 268 -3 0 -41 -33 -85 -73z"/>
<path d="M42175 62474 c-104 -90 -192 -169 -194 -175 -2 -7 68 49 155 124 229
195 240 205 234 210 -3 2 -90 -69 -195 -159z"/>
<path d="M58005 62409 c-115 -94 -212 -176 -214 -182 l-4 -11 49 39 c27 22
127 102 222 179 94 76 172 140 172 142 0 13 -35 -13 -225 -167z"/>
<path d="M16980 62412 c0 -6 313 -199 341 -210 l9 -4 0 10 0 9 -169 102 c-93
55 -172 101 -175 101 -3 0 -6 -3 -6 -8z"/>
<path d="M89015 62351 c17 -16 97 -86 179 -155 l149 -125 9 5 c5 3 8 7 6 9
-120 105 -352 295 -361 295 l-12 0 30 -29z"/>
<path d="M23007 62150 l-108 -210 8 0 c4 0 57 95 116 210 l109 210 -9 0 c-4 0
-57 -95 -116 -210z"/>
<path d="M16515 62159 c-48 -94 -85 -173 -82 -175 2 -2 44 75 94 171 l90 175
-8 0 c-4 0 -47 -77 -94 -171z"/>
<path d="M42733 62240 c37 -39 97 -102 133 -141 37 -38 68 -68 70 -66 7 6
-247 277 -259 277 l-10 0 66 -70z"/>
<path d="M56735 62113 c15 -14 1055 -465 1066 -461 7 2 -991 441 -1056 464
l-20 7 10 -10z"/>
<path d="M40109 61884 l-34 -36 -67 -40 -68 -40 -97 -25 c-54 -13 -102 -29
-107 -34 l-10 -9 8 0 c4 0 53 12 109 26 l102 25 60 35 c33 19 82 54 108 78
l49 44 -10 5 -9 6 -34 -35z"/>
<path d="M57331 61896 c3 -4 100 -46 447 -197 l42 -18 0 7 c0 4 -107 53 -238
110 -210 91 -266 112 -251 98z"/>
<path d="M58457 61863 l-5 -8 116 3 117 3 210 -89 c116 -49 243 -103 283 -120
39 -17 72 -28 72 -24 0 4 -125 60 -278 125 l-277 117 -117 0 -117 0 -4 -7z"/>
<path d="M58396 61728 c-27 -62 -64 -148 -82 -190 l-33 -78 8 0 c6 0 68 137
157 348 l14 32 -8 0 c-4 0 -30 -51 -56 -112z"/>
<path d="M61140 61611 c0 -14 88 -428 96 -450 2 -8 7 -12 9 -9 2 2 -18 107
-45 233 -45 206 -60 263 -60 226z"/>
<path d="M55570 61601 c0 -16 79 -438 86 -464 3 -10 8 -17 10 -15 4 5 -84 479
-91 486 -3 3 -5 0 -5 -7z"/>
<path d="M60690 61605 c0 -3 9 -14 20 -25 l21 -21 6 -29 6 -30 8 0 9 0 0 23 0
22 -20 33 -20 32 -15 0 c-8 0 -15 -2 -15 -5z"/>
<path d="M59587 61403 c-9 -27 -30 -109 -46 -183 l-29 -135 -6 -85 -5 -85 8
15 c5 8 11 51 14 95 l5 80 36 152 c19 84 40 162 46 173 l11 20 -9 0 -8 0 -17
-47z"/>
<path d="M42342 61398 l-10 -13 91 -100 c51 -55 120 -132 154 -170 l63 -69 14
14 14 15 -149 165 c-82 91 -153 166 -158 168 -4 1 -13 -3 -19 -10z"/>
<path d="M54550 61373 c0 -8 173 -768 205 -902 3 -13 8 -21 11 -19 5 5 -203
918 -211 926 -3 3 -5 1 -5 -5z"/>
<path d="M57870 61335 c0 -6 245 -400 268 -430 l14 -20 -6 19 c-8 23 -265 436
-272 436 -2 0 -4 -2 -4 -5z"/>
<path d="M31201 60975 c-1 -16 6 -93 14 -169 l14 -139 -5 -71 -5 -71 10 16 10
16 2 69 3 69 -13 140 -14 140 -8 15 -8 15 0 -30z"/>
<path d="M42852 60920 l-12 -20 10 0 c5 0 14 9 20 20 l11 20 -8 0 c-5 0 -14
-9 -21 -20z"/>
<path d="M59522 60895 c12 -13 171 -85 176 -81 3 3 -34 24 -83 46 -83 38 -105
46 -93 35z"/>
<path d="M60803 60787 c3 -7 22 -97 43 -200 21 -103 41 -187 44 -187 l7 0 -41
200 -41 200 -9 0 -8 0 5 -13z"/>
<path d="M44209 60664 c19 -21 91 -101 160 -177 69 -76 127 -144 128 -150 l2
-12 -130 -112 c-72 -62 -126 -113 -121 -113 5 0 66 50 135 110 69 61 130 110
135 110 5 0 12 7 16 15 l5 15 -14 0 -14 0 -157 173 c-86 94 -162 174 -168 176
-6 2 4 -13 23 -35z"/>
<path d="M83215 60549 c-82 -48 -154 -94 -159 -102 l-8 -13 95 -155 c52 -85
105 -174 117 -199 34 -68 72 -131 76 -127 6 6 -118 233 -195 357 l-71 115 2
13 3 14 145 85 c80 46 149 89 155 94 l9 9 -9 -1 c-6 0 -77 -41 -160 -90z"/>
<path d="M53444 60595 c8 -28 10 -336 3 -420 l-6 -70 10 35 11 35 0 208 1 208
-13 12 -12 12 6 -20z"/>
<path d="M61320 60599 c0 -8 21 -117 46 -242 25 -126 43 -231 40 -234 -2 -3
-87 -22 -188 -44 -226 -48 -231 -49 -226 -55 3 -2 99 16 214 40 115 24 210 44
211 43 4 -5 154 -770 151 -773 -2 -2 -94 -22 -204 -45 l-199 -41 -10 -10 -10
-10 20 5 c11 3 107 24 213 47 l193 40 9 -5 8 -5 4 8 3 8 207 43 207 43 16 -6
15 -5 0 10 0 11 26 -6 26 -7 -7 11 -6 10 8 0 c11 0 383 79 406 86 10 3 17 8
15 10 -2 2 -98 -16 -214 -41 l-209 -44 -6 7 c-3 4 -36 156 -73 337 -73 357
-85 409 -92 403 -2 -3 30 -166 71 -364 41 -197 75 -367 75 -376 l0 -18 -10 0
-9 0 -10 38 c-5 20 -22 98 -37 172 l-27 135 -10 10 -9 10 5 -20 c3 -11 20 -91
38 -178 l32 -158 -9 -8 c-11 -9 -422 -96 -428 -90 -5 5 -147 711 -151 749 -1
14 -5 32 -8 40 -3 8 -27 119 -52 245 -44 214 -55 260 -55 224z"/>
<path d="M86267 60418 c81 -90 166 -185 188 -213 58 -74 286 -315 298 -315 5
0 -37 48 -94 108 -57 59 -138 148 -179 197 -103 124 -342 385 -353 385 -5 0
58 -73 140 -162z"/>
<path d="M77955 60510 l6 -10 25 0 24 0 0 10 0 10 -31 0 -30 0 6 -10z"/>
<path d="M59895 60220 c-147 -125 -192 -168 -152 -144 19 13 327 275 327 280
0 10 -19 -4 -175 -136z"/>
<path d="M63564 60260 c17 -74 86 -406 86 -414 l0 -9 6 6 7 6 -43 208 c-24
114 -47 213 -52 218 l-9 10 5 -25z"/>
<path d="M58636 60229 c-59 -14 -57 -20 5 -13 l54 6 116 -238 c64 -132 131
-275 149 -319 18 -44 43 -102 55 -130 12 -27 48 -111 80 -185 32 -74 59 -136
60 -137 0 -1 105 19 232 45 l232 47 8 9 8 8 -20 -5 c-11 -3 -116 -25 -233 -48
l-213 -42 -8 9 c-4 5 -36 76 -72 158 l-64 149 13 5 c20 6 333 244 328 249 -2
2 -77 -50 -165 -116 -89 -67 -166 -121 -171 -121 -5 0 -11 4 -14 9 l-6 9 43
28 c86 58 649 486 644 490 -2 3 -150 -105 -328 -239 -178 -134 -333 -249 -345
-255 l-20 -11 -68 162 c-38 89 -107 235 -153 325 l-84 162 -12 -1 c-7 -1 -30
-5 -51 -10z"/>
<path d="M46100 59970 l-225 -218 8 -8 8 -8 221 222 c122 121 220 223 218 226
-3 2 -106 -94 -230 -214z"/>
<path d="M49387 59893 c-59 -81 -104 -149 -102 -152 3 -2 6 -2 8 0 62 81 208
291 205 295 -3 2 -53 -62 -111 -143z"/>
<path d="M48560 59388 c-96 -127 -212 -276 -257 -331 -46 -54 -83 -103 -83
-109 0 -16 146 164 334 411 159 209 196 262 185 261 -2 0 -83 -105 -179 -232z"/>
<path d="M60837 59560 c-126 -26 -231 -51 -235 -55 l-7 -8 25 6 c14 3 120 24
235 47 116 23 214 46 220 51 l9 9 -9 -1 c-6 0 -113 -23 -238 -49z"/>
<path d="M45368 59413 c88 -93 203 -209 254 -259 l93 -91 105 -75 c58 -40 111
-78 119 -83 l14 -8 -6 10 c-4 6 -60 49 -126 97 l-119 86 -239 245 c-132 135
-243 245 -247 245 -5 0 64 -75 152 -167z"/>
<path d="M62765 59539 c-77 -16 -164 -34 -193 -40 -30 -6 -52 -13 -49 -15 2
-3 93 12 201 33 l196 37 0 8 c0 10 12 12 -155 -23z"/>
<path d="M83629 59448 c32 -57 82 -145 111 -196 28 -51 54 -91 57 -89 6 7
-210 387 -219 387 -4 0 19 -46 51 -102z"/>
<path d="M50381 59503 c-103 -129 -291 -380 -291 -387 l0 -10 9 10 c14 16 307
398 315 412 15 25 -4 11 -33 -25z"/>
<path d="M49431 59274 c-90 -118 -161 -218 -158 -220 2 -2 79 95 171 216 92
121 163 220 158 220 -5 0 -82 -97 -171 -216z"/>
<path d="M46982 59410 l-12 -20 0 -27 0 -27 9 10 c8 9 25 84 19 84 -2 0 -9 -9
-16 -20z"/>
<path d="M61825 59345 c-110 -23 -303 -64 -430 -89 -224 -46 -243 -51 -234
-60 6 -7 888 179 897 189 11 10 -40 2 -233 -40z"/>
<path d="M63755 59378 c4 -14 150 -727 335 -1643 61 -302 156 -760 211 -1016
54 -256 99 -469 99 -474 l0 -7 14 5 14 5 21 -14 21 -15 0 -33 0 -33 -18 -16
-19 -17 -29 0 -30 0 -10 10 -10 10 -262 -52 c-144 -29 -262 -55 -262 -59 0 -3
116 17 258 46 l259 51 20 -13 20 -13 31 6 31 6 21 23 22 24 -9 38 -9 38 -29
15 c-17 8 -31 15 -32 16 -7 1 -185 851 -354 1684 -105 514 -213 1049 -241
1188 l-52 252 -7 0 -8 0 4 -12z"/>
<path d="M59872 59325 c-117 -24 -216 -46 -219 -49 l-6 -6 9 0 c14 0 456 89
469 94 33 14 -67 -2 -253 -39z"/>
<path d="M61590 59259 c0 -29 64 -333 68 -321 2 6 -11 82 -28 169 -30 148 -40
186 -40 152z"/>
<path d="M45660 59174 l75 -75 118 -84 c64 -47 117 -81 117 -77 0 5 -51 45
-112 89 l-113 81 -70 71 c-38 39 -74 71 -79 71 -6 0 23 -34 64 -76z"/>
<path d="M75798 59190 l-37 -20 -40 -47 c-23 -27 -81 -113 -131 -193 l-89
-145 -6 -40 c-3 -22 -5 -92 -3 -155 l3 -115 10 150 10 150 84 140 c46 77 102
162 124 188 l40 48 41 21 c22 12 52 24 66 29 l25 7 -30 1 -30 0 -37 -19z"/>
<path d="M50070 59103 c0 -7 179 -161 288 -247 l25 -20 -4 11 c-2 6 -49 48
-104 94 -55 45 -124 103 -152 127 -29 25 -53 40 -53 35z"/>
<path d="M94930 59041 l0 -8 200 -78 201 -77 6 6 6 5 -24 10 c-59 22 -289 111
-336 130 l-53 21 0 -9z"/>
<path d="M53259 58985 l-5 -39 84 -188 c47 -104 87 -187 89 -184 2 2 -31 79
-73 172 l-77 169 -7 55 -6 55 -5 -40z"/>
<path d="M63810 58924 c0 -6 45 -228 101 -495 55 -266 129 -635 164 -819 75
-393 289 -1391 293 -1368 2 8 -42 224 -97 479 -55 255 -129 617 -165 804 -78
402 -283 1396 -291 1403 -3 3 -5 1 -5 -4z"/>
<path d="M39140 58890 c19 -4 60 -13 90 -19 l55 -11 334 -122 335 -123 52 -48
53 -48 26 -55 26 -54 11 -55 11 -55 7 0 8 0 -15 68 c-9 37 -24 84 -35 105 -24
48 -90 120 -132 146 -42 25 -652 248 -729 266 -34 8 -78 14 -97 14 l-35 -1 35
-8z"/>
<path d="M61250 58823 c0 -10 140 -686 155 -752 3 -13 8 -21 11 -18 3 3 -12
84 -32 182 l-38 177 11 6 c6 4 100 29 210 56 109 27 193 51 187 53 -9 3 -319
-70 -396 -93 l-18 -5 0 14 0 14 207 53 c113 30 201 56 195 58 -6 2 -99 -20
-207 -48 -108 -28 -198 -50 -200 -48 -1 2 -19 81 -39 177 -32 155 -46 207 -46
174z"/>
<path d="M39556 58811 c5 -6 92 -40 193 -76 102 -36 193 -71 204 -76 10 -6 21
-8 24 -6 8 9 -46 32 -235 101 -189 68 -202 72 -186 57z"/>
<path d="M61210 58814 c0 -15 82 -389 86 -393 2 -2 4 2 4 10 0 23 -78 380 -84
387 l-6 5 0 -9z"/>
<path d="M84073 58708 c82 -149 146 -276 158 -313 l12 -40 4 11 c2 6 -4 32
-14 57 -27 67 -177 347 -186 347 l-9 0 35 -62z"/>
<path d="M84010 58748 c0 -3 35 -71 77 -150 42 -78 87 -170 99 -203 l23 -60 0
16 c1 31 -26 94 -104 239 -72 135 -95 173 -95 158z"/>
<path d="M49335 58170 c-53 -67 -95 -123 -93 -126 3 -2 49 50 103 116 53 67
95 124 92 126 -2 2 -48 -50 -102 -116z"/>
<path d="M60393 58273 c-7 -2 -13 -9 -13 -15 l0 -10 15 12 14 12 23 -7 23 -6
-15 10 c-16 11 -28 12 -47 4z"/>
<path d="M62310 58240 c0 -8 16 -98 36 -202 l36 -188 10 0 10 0 -4 18 c-3 10
-20 96 -38 192 -18 96 -37 179 -42 185 l-8 9 0 -14z"/>
<path d="M22296 58078 c-3 -57 -8 -164 -10 -238 l-5 -135 8 25 8 25 7 213 c7
219 2 291 -8 110z"/>
<path d="M22336 58013 c-4 -93 -9 -197 -12 -233 l-5 -65 9 15 10 15 6 190 c4
105 9 202 12 218 l6 27 -10 0 -9 0 -7 -167z"/>
<path d="M53700 58177 c0 -15 184 -429 187 -420 2 5 -35 96 -82 201 -85 195
-104 234 -105 219z"/>
<path d="M53668 58140 c26 -67 174 -386 183 -395 l11 -10 -15 35 c-48 113
-170 377 -178 385 l-10 10 9 -25z"/>
<path d="M61854 58133 c2 -10 19 -89 36 -176 l32 -159 -6 -13 -5 -14 14 -11
13 -11 4 10 3 11 195 40 c214 45 234 50 227 56 -2 2 -98 -16 -213 -40 l-209
-44 -5 9 c-3 4 -21 87 -40 184 l-34 175 -9 0 -8 0 5 -17z"/>
<path d="M53610 58127 c0 -21 250 -572 427 -942 l134 -280 21 -17 20 -18 22 0
22 0 47 -102 c26 -56 49 -99 52 -96 3 3 -16 51 -42 106 l-48 101 -18 0 c-10 1
-27 6 -38 11 l-19 11 -39 77 c-57 114 -298 630 -421 905 -59 131 -110 241
-114 244 l-6 6 0 -6z"/>
<path d="M54955 58109 c-16 -45 -215 -803 -211 -806 6 -6 3 -15 120 422 58
214 103 391 101 394 -3 2 -7 -2 -10 -10z"/>
<path d="M91790 58114 c1 -11 340 -247 346 -241 3 3 -68 55 -158 117 -90 62
-169 117 -175 123 l-13 9 0 -8z"/>
<path d="M92170 57898 c8 -8 101 -66 205 -128 105 -62 196 -117 202 -123 18
-14 423 -146 423 -138 0 3 -87 35 -192 70 l-193 63 -220 130 c-249 148 -245
146 -225 126z"/>
<path d="M55476 57784 c-104 -13 -194 -25 -200 -28 l-11 -4 20 -1 c34 -1 416
47 422 53 l6 6 -24 -1 c-13 -1 -109 -12 -213 -25z"/>
<path d="M55466 57744 c-98 -13 -184 -25 -190 -28 l-11 -4 19 -1 c28 -1 419
49 425 54 8 9 -64 3 -243 -21z"/>
<path d="M29723 57728 c-6 -7 -40 -69 -76 -138 l-66 -126 -56 -62 -57 -62 10
0 c6 0 35 28 65 63 l54 62 72 134 c39 73 70 135 68 138 -2 2 -9 -2 -14 -9z"/>
<path d="M29690 57588 c-98 -179 -103 -188 -144 -227 -20 -19 -36 -39 -36 -45
l0 -10 45 44 46 45 85 158 c47 87 84 161 81 163 -3 3 -38 -55 -77 -128z"/>
<path d="M53840 57707 c0 -10 361 -771 372 -784 l10 -13 27 1 26 1 -20 5 c-11
3 -25 9 -31 14 -6 5 -91 179 -189 386 -162 344 -195 410 -195 390z"/>
<path d="M81160 57639 l-195 -27 -103 -26 -104 -27 -81 -34 c-108 -45 -243
-118 -344 -186 l-83 -56 -65 -62 -65 -63 6 -9 6 -10 71 64 c93 81 208 160 327
224 133 72 208 102 335 134 l110 29 190 26 c104 14 192 27 194 29 1 2 1 8 0
12 l-4 9 -195 -27z"/>
<path d="M46550 57590 c6 -11 16 -20 22 -20 l11 0 -18 20 c-10 11 -20 20 -22
20 -2 0 1 -9 7 -20z"/>
<path d="M80353 57506 c-143 -80 -197 -115 -189 -123 3 -3 17 4 33 15 41 28
281 162 292 162 5 0 23 -17 40 -37 17 -20 33 -35 35 -32 6 5 -63 89 -72 89 -4
0 -66 -34 -139 -74z"/>
<path d="M80371 57474 c-116 -67 -201 -124 -185 -124 5 0 25 11 44 23 19 13
83 52 143 86 l107 62 25 -28 c31 -36 32 -27 2 15 l-24 31 -112 -65z"/>
<path d="M37011 57407 c-17 -24 -79 -87 -137 -141 -58 -54 -103 -101 -100
-103 7 -7 225 201 255 243 36 50 20 51 -18 1z"/>
<path d="M63460 57053 c0 -5 23 -113 52 -241 l51 -233 9 9 9 9 -53 231 -52
232 -8 0 c-4 0 -8 -3 -8 -7z"/>
<path d="M53476 57032 l-5 -8 216 -107 215 -108 6 5 c8 9 14 5 -215 120 l-212
106 -5 -8z"/>
<path d="M47651 56929 l-335 -49 -36 -25 c-20 -14 -41 -25 -48 -25 l-12 0 0
-15 0 -15 11 0 c12 0 36 -20 319 -266 l185 -161 133 -76 132 -76 0 9 c0 5 -60
42 -132 84 l-133 75 -230 201 c-126 111 -234 206 -239 210 l-9 9 13 16 c8 9
25 22 40 30 l26 14 358 51 358 51 14 -5 14 -5 0 9 0 10 -47 -1 c-27 -1 -198
-23 -382 -50z"/>
<path d="M54290 56897 c0 -4 21 -52 46 -107 l47 -100 9 0 8 0 -51 103 c-52
103 -59 116 -59 104z"/>
<path d="M84436 56611 c5 -5 66 -30 136 -56 l127 -47 50 -51 51 -51 0 12 c0 6
-21 32 -47 58 l-48 47 -130 48 c-71 27 -134 49 -139 49 l-10 0 10 -9z"/>
<path d="M82701 56490 c-2 -22 90 -404 99 -413 6 -7 -83 390 -94 418 l-4 10
-1 -15z"/>
<path d="M37786 56313 l-19 -68 -21 -162 -22 -163 8 0 c4 0 8 6 8 13 0 6 9 80
19 162 l20 150 20 65 c24 76 23 70 13 70 l-8 0 -18 -67z"/>
<path d="M44181 56250 l-1 -25 183 -162 c100 -89 202 -177 226 -194 l45 -32
-85 -76 c-46 -42 -104 -95 -129 -118 l-45 -42 6 -5 5 -5 129 119 129 119 8 -5
8 -5 0 21 0 21 -10 -6 -11 -7 -52 40 c-29 21 -126 106 -217 187 l-165 147 -12
27 -11 26 -1 -25z"/>
<path d="M90080 56018 c-96 -83 -176 -155 -178 -159 l-4 -9 10 0 c7 0 292 240
350 295 l14 13 -9 5 -8 5 -175 -150z"/>
<path d="M37246 56124 c-7 -19 -86 -600 -86 -634 0 -63 13 12 50 294 22 170
43 319 46 332 7 27 -1 33 -10 8z"/>
<path d="M63730 56132 c0 -4 10 -12 22 -17 l23 -10 14 -26 14 -25 -14 -30 -14
-29 -32 -15 c-18 -8 -33 -19 -33 -24 l0 -8 28 7 c37 9 59 31 73 72 l11 34 -13
30 -12 31 -24 9 c-30 11 -43 11 -43 1z"/>
<path d="M10235 55934 c-105 -71 -187 -114 -222 -114 l-22 0 -6 -10 -6 -10 21
0 c11 0 47 11 79 24 l60 24 105 72 c58 40 106 74 106 76 0 13 -29 -3 -115 -62z"/>
<path d="M62480 55844 l-545 -113 -12 4 -13 4 0 -14 0 -15 9 0 c18 0 1113 228
1117 233 18 18 -69 2 -556 -99z"/>
<path d="M63062 55910 l0 -25 5 13 c2 6 2 18 0 25 l-5 12 0 -25z"/>
<path d="M63020 55900 l0 -20 9 0 9 0 -5 20 c-3 11 -7 20 -9 20 -2 0 -4 -9 -4
-20z"/>
<path d="M62758 55806 c-228 -48 -269 -59 -257 -70 2 -2 127 21 277 52 l272
56 0 8 0 8 -22 -1 c-13 -1 -134 -25 -270 -53z"/>
<path d="M61945 55687 l-7 -18 6 -6 6 -6 6 6 c3 3 4 14 1 24 l-4 18 -8 -18z"/>
<path d="M25955 55616 l-8 -19 17 -31 17 -31 245 -168 c135 -93 247 -167 250
-165 2 3 -103 78 -233 168 -131 90 -246 173 -255 184 l-17 21 -3 30 -4 30 -9
-19z"/>
<path d="M82945 55507 l0 -122 -29 -55 c-16 -30 -49 -78 -75 -108 l-46 -53
-50 -28 -50 -28 -142 -48 c-79 -27 -143 -52 -143 -56 l0 -7 113 39 c61 22 144
52 182 66 l70 26 57 60 57 59 30 54 29 54 8 43 8 42 -3 80 c-1 44 -6 85 -9 92
l-7 12 0 -122z"/>
<path d="M45031 55583 c5 -15 329 -266 335 -260 3 3 -44 42 -103 88 -59 46
-137 106 -172 133 -35 28 -62 45 -60 39z"/>
<path d="M45006 55551 c32 -33 339 -269 343 -265 3 3 1 8 -5 12 -6 4 -83 64
-171 135 -89 70 -165 127 -169 127 l-8 0 10 -9z"/>
<path d="M26538 55283 l22 -4 17 -26 17 -25 -17 -29 -16 -29 19 10 20 11 0 33
0 33 -18 16 -19 17 -24 -1 -24 -2 23 -4z"/>
<path d="M93011 55276 c3 -3 92 -42 199 -87 107 -44 200 -84 205 -87 l10 -5
-10 11 c-10 11 -386 172 -401 172 -4 0 -5 -2 -3 -4z"/>
<path d="M53188 55241 l-7 -23 24 -124 c13 -68 26 -128 29 -133 l6 -9 -15 -12
c-9 -7 -31 -40 -50 -74 -19 -34 -81 -129 -138 -213 l-104 -152 -141 95 c-78
52 -142 91 -142 87 0 -5 63 -50 140 -100 l140 -93 -37 -57 c-170 -267 -422
-645 -472 -712 -34 -44 -58 -81 -54 -81 16 0 160 205 338 480 98 151 191 294
207 318 l30 43 25 -16 c13 -9 27 -15 29 -12 3 2 -7 12 -21 21 l-25 16 110 165
c60 90 127 193 149 228 l39 64 -20 94 c-10 52 -23 123 -26 159 l-8 65 -6 -24z"/>
<path d="M53231 55207 l-1 -58 25 -111 25 -111 11 -13 11 -14 -4 -17 c-3 -10
-62 -105 -132 -211 l-126 -193 -30 21 -30 21 0 -9 c0 -5 11 -15 25 -22 l26
-14 -4 -11 c-3 -6 -111 -172 -241 -369 l-237 -359 -33 -66 c-18 -36 -39 -84
-46 -106 -7 -22 -17 -46 -23 -52 l-9 -13 10 0 c15 0 27 21 41 70 7 25 32 79
54 120 35 63 474 738 497 763 l8 9 78 -53 c44 -29 202 -133 352 -230 l272
-177 -32 -20 c-18 -10 -186 -97 -373 -192 -391 -198 -847 -441 -840 -448 2 -2
82 38 177 89 95 51 367 191 603 310 237 120 440 226 452 237 l22 20 6 -6 5 -5
0 9 c0 5 -160 113 -355 239 l-355 230 0 9 c0 5 59 99 131 209 l132 199 -17 35
c-22 46 -56 190 -66 278 l-7 70 -2 -58z"/>
<path d="M55216 55151 l-6 -9 13 -9 c6 -6 17 -13 24 -17 l12 -6 5 9 6 9 -25
16 -24 16 -5 -9z"/>
<path d="M36882 55065 l-52 -24 -58 -10 c-31 -6 -104 -11 -162 -13 l-105 -3
-17 9 -18 8 0 -10 0 -11 34 -6 34 -7 134 10 133 10 68 28 c37 15 67 31 67 36
0 11 3 11 -58 -17z"/>
<path d="M52300 54964 c0 -11 630 -428 636 -421 3 3 -400 275 -608 411 l-28
18 0 -8z"/>
<path d="M52125 54742 l-140 -216 -137 -175 c-75 -97 -135 -178 -132 -180 2
-2 6 -2 7 0 2 2 62 78 133 169 l130 165 133 205 c74 113 141 215 149 228 l14
22 -8 0 c-5 -1 -72 -98 -149 -218z"/>
<path d="M47111 54887 c-6 -16 -11 -35 -11 -43 l0 -14 14 0 14 0 5 28 5 27 -8
15 -9 15 -10 -28z"/>
<path d="M3927 54816 l-5 -12 445 -153 444 -154 6 7 7 6 -10 9 c-5 4 -157 59
-339 121 -181 62 -378 130 -437 151 l-107 37 -4 -12z"/>
<path d="M81934 54759 l-69 -71 -45 -22 -45 -23 -75 -18 -75 -18 11 -4 c7 -2
49 5 94 17 l82 21 36 23 c43 28 168 153 161 160 -3 3 -36 -26 -75 -65z"/>
<path d="M32030 54664 c0 -10 360 -247 366 -241 3 3 -178 127 -338 231 l-28
18 0 -8z"/>
<path d="M47771 54589 c-1 -17 50 -174 69 -210 7 -13 30 -42 51 -64 l38 -40
51 -109 c28 -60 53 -106 55 -104 3 3 -15 48 -40 101 -25 53 -45 100 -45 105 0
4 -16 24 -36 43 -50 49 -71 85 -109 196 -18 54 -34 91 -34 82z"/>
<path d="M47767 54461 l46 -118 46 -55 47 -55 44 -97 c24 -53 47 -96 51 -96 4
0 -15 47 -42 105 l-49 106 -48 57 -47 58 -40 107 c-21 59 -42 107 -46 107 -4
0 13 -53 38 -119z"/>
<path d="M50140 54569 l0 -10 10 6 c6 3 10 8 10 11 0 2 -4 4 -10 4 -5 0 -10
-5 -10 -11z"/>
<path d="M51940 54300 c-78 -105 -140 -193 -138 -196 3 -2 69 82 147 187 78
105 140 193 138 195 -2 3 -69 -81 -147 -186z"/>
<path d="M88035 54386 l-20 -15 10 -2 c6 0 25 0 43 1 l33 2 25 -17 26 -17 6 6
6 7 -20 19 -19 19 -35 6 -35 6 -20 -15z"/>
<path d="M51355 54270 c-54 -61 -95 -113 -93 -116 3 -2 49 46 103 106 53 61
95 113 93 116 -3 2 -49 -45 -103 -106z"/>
<path d="M22824 54208 l-19 -21 26 17 26 16 129 -152 c148 -177 434 -488 447
-488 5 0 -20 31 -55 68 -196 213 -267 292 -382 430 l-127 152 -13 0 c-7 0 -21
-10 -32 -22z"/>
<path d="M48360 54221 c0 -15 180 -364 186 -359 2 2 -39 87 -91 188 -52 102
-94 179 -95 171z"/>
<path d="M62131 54170 c-1 -8 40 -221 91 -472 l93 -458 8 0 8 0 -5 18 c-3 9
-46 217 -96 462 -50 245 -92 450 -94 455 l-4 10 -1 -15z"/>
<path d="M53520 54112 c0 -12 169 -124 180 -120 l8 3 -94 63 -94 62 0 -8z"/>
<path d="M6180 54088 l0 -13 198 -59 c108 -33 203 -62 210 -64 l12 -4 0 14 0
15 -127 38 c-71 20 -163 48 -206 61 -91 28 -87 27 -87 12z"/>
<path d="M48862 54015 c23 -47 46 -85 50 -85 l8 0 -42 85 c-23 47 -46 85 -50
85 l-8 0 42 -85z"/>
<path d="M51022 54000 l-154 -88 10 -6 10 -6 151 87 c130 75 173 105 144 102
-5 0 -77 -40 -161 -89z"/>
<path d="M51155 53959 c-44 -28 -120 -71 -170 -96 -100 -50 -101 -51 -93 -59
l6 -5 98 50 c55 27 136 72 182 99 l82 48 -6 7 c-11 10 -12 10 -99 -44z"/>
<path d="M21210 53980 c0 -3 57 -17 128 -30 l127 -24 88 -37 87 -38 0 8 c0 4
-35 22 -77 40 l-78 33 -137 27 -138 28 0 -7z"/>
<path d="M31207 53926 l-5 -34 -82 -193 c-45 -107 -85 -201 -88 -209 l-5 -15
10 10 c16 15 171 387 182 434 l9 41 -8 0 -7 0 -6 -34z"/>
<path d="M32595 53775 c-88 -73 -161 -139 -164 -146 -3 -10 265 207 324 262
l19 19 -9 0 c-6 -1 -82 -61 -170 -135z"/>
<path d="M32616 53739 c-92 -78 -165 -144 -162 -146 3 -3 78 57 168 133 90 76
165 139 167 141 2 2 2 5 0 8 -3 2 -81 -59 -173 -136z"/>
<path d="M51410 53861 c0 -5 96 -88 213 -184 l213 -175 41 -46 40 -46 6 7 6 6
-37 45 -37 45 -210 172 c-115 94 -216 175 -222 179 l-13 7 0 -10z"/>
<path d="M88347 53833 c-5 -9 198 -385 207 -384 3 1 6 4 6 9 1 8 -200 382
-205 382 -2 0 -6 -3 -8 -7z"/>
<path d="M54090 53783 c0 -12 298 -218 306 -211 2 3 -19 21 -48 40 -29 20 -99
68 -155 107 -57 40 -103 68 -103 64z"/>
<path d="M54070 53742 c0 -8 184 -135 285 -197 l30 -19 -15 16 c-8 8 -79 59
-157 112 l-143 97 0 -9z"/>
<path d="M68455 53743 c-16 -3 -136 -29 -265 -58 -129 -29 -266 -58 -305 -65
l-70 -13 12 -4 c17 -6 189 27 404 78 l174 40 87 9 86 8 39 -8 c21 -4 54 -11
73 -14 l34 -6 -9 9 c-24 21 -177 36 -260 24z"/>
<path d="M61245 53719 c-10 -46 -85 -454 -85 -468 0 -8 2 -12 5 -9 7 7 95 491
90 496 -2 2 -7 -6 -10 -19z"/>
<path d="M77468 53633 l-188 -74 0 -8 0 -8 195 76 c107 42 195 79 195 84 0 11
-3 10 -202 -70z"/>
<path d="M9205 53593 c-90 -10 -263 -58 -282 -77 l-6 -6 11 0 c6 0 33 8 59 19
59 22 176 47 261 55 l63 6 36 -15 c20 -8 38 -13 41 -10 3 2 -11 12 -31 20
l-36 15 -43 -1 c-24 -1 -56 -4 -73 -6z"/>
<path d="M51440 53440 l65 -60 63 -31 c35 -17 66 -29 68 -26 3 3 -20 16 -50
30 l-56 26 -70 60 c-91 78 -105 79 -20 1z"/>
<path d="M52415 53480 l-6 -10 10 0 c5 0 13 5 16 10 l6 10 -10 0 c-5 0 -13 -4
-16 -10z"/>
<path d="M52383 53469 c3 -9 22 -55 43 -102 l37 -87 -17 -19 -17 -19 -107 -8
-107 -7 28 -9 c15 -5 27 -14 27 -18 0 -14 118 -269 152 -328 54 -96 38 -50
-38 103 -40 83 -82 171 -93 196 l-19 46 82 7 81 6 22 25 22 25 -43 95 c-24 53
-47 99 -51 103 l-8 7 6 -16z"/>
<path d="M77860 53291 c0 -26 165 -690 193 -773 l31 -98 8 0 c14 0 9 23 -22
116 -26 75 -116 432 -175 692 l-17 72 -9 0 c-5 0 -9 -4 -9 -9z"/>
<path d="M84044 53263 c3 -10 66 -254 141 -543 75 -289 140 -535 145 -547 l10
-23 19 0 c16 0 481 110 532 126 l17 5 27 -113 c32 -135 34 -142 40 -136 3 2
-9 61 -26 131 l-31 127 -13 0 c-7 0 -133 -29 -280 -65 l-268 -66 -9 9 c-8 8
-269 1001 -284 1079 l-6 33 -10 0 -9 0 5 -17z"/>
<path d="M49810 53242 c0 -7 30 -59 66 -115 77 -118 73 -112 79 -106 2 3 -29
56 -70 119 l-75 115 0 -13z"/>
<path d="M53615 53211 c-38 -15 -214 -103 -390 -196 -176 -93 -358 -186 -404
-207 -46 -22 -81 -41 -79 -44 8 -8 219 95 548 268 l315 166 43 13 42 12 0 9
c0 10 7 12 -75 -21z"/>
<path d="M11486 53171 c-4 -6 -50 -39 -104 -74 l-97 -64 -47 -11 -47 -12 -15
6 -16 6 0 -11 0 -11 28 0 c15 0 45 5 67 11 l39 11 81 54 c44 29 91 62 105 73
l25 20 -7 6 -6 6 -6 -10z"/>
<path d="M10242 53165 c9 -9 441 -135 446 -130 6 6 13 4 -227 75 -197 58 -230
66 -219 55z"/>
<path d="M49995 53083 c-20 -5 -35 -20 -35 -36 l0 -8 16 15 c8 9 22 16 30 16
l14 0 0 10 c0 6 -1 9 -2 9 -2 -1 -12 -4 -23 -6z"/>
<path d="M50051 53045 c-2 -16 73 -179 76 -168 2 5 -14 48 -36 94 -22 46 -40
80 -40 74z"/>
<path d="M77718 52827 l-187 -72 2 -10 2 -10 10 3 c6 2 94 35 198 74 l187 71
0 9 c0 15 -23 8 -212 -65z"/>
<path d="M65470 52830 c-157 -31 -453 -90 -658 -131 -206 -40 -369 -75 -363
-77 5 -2 301 54 658 124 l648 126 10 9 9 9 -9 -1 c-6 -1 -138 -27 -295 -59z"/>
<path d="M84211 52798 c-1 -9 19 -94 45 -190 62 -239 74 -281 80 -276 3 4
-108 441 -120 473 l-4 10 -1 -17z"/>
<path d="M52825 52725 c3 -11 43 -89 88 -175 45 -85 168 -332 272 -547 105
-216 193 -393 197 -393 13 0 -485 1015 -537 1095 l-27 40 7 -20z"/>
<path d="M64623 52701 c-106 -20 -193 -39 -193 -42 l0 -7 73 14 c39 8 126 24
192 35 66 12 127 25 135 30 l15 8 -15 0 c-8 -1 -102 -18 -207 -38z"/>
<path d="M88845 52573 c4 -10 37 -100 75 -201 37 -101 71 -186 74 -189 20 -20
7 23 -61 205 l-75 202 -10 0 -10 0 7 -17z"/>
<path d="M21676 52489 c-3 -19 -8 -122 -11 -229 l-7 -195 6 6 c7 7 28 440 22
447 -3 2 -7 -11 -10 -29z"/>
<path d="M27002 52263 l9 -68 -5 -160 -5 -160 8 30 9 30 1 136 c0 75 -2 164
-5 198 l-7 61 -7 0 -6 0 8 -67z"/>
<path d="M52930 52307 c0 -17 49 -103 70 -122 l22 -20 59 -117 c33 -65 61
-118 64 -118 3 0 -22 55 -56 123 l-61 122 -34 38 c-19 20 -34 43 -34 50 0 14
-29 57 -30 44z"/>
<path d="M82430 52261 c0 -5 21 -16 48 -26 26 -10 68 -30 93 -46 l46 -29 32
-41 33 -40 19 -54 c10 -30 19 -63 19 -74 l0 -20 11 -7 11 -7 -7 34 c-3 19 -13
57 -21 85 l-16 51 -40 47 -41 48 -36 22 c-20 12 -62 32 -93 44 l-58 21 0 -8z"/>
<path d="M89255 52190 l-179 -78 -4 -11 -4 -11 79 34 c43 18 129 54 191 80
l112 48 0 9 c0 14 -1 13 -195 -71z"/>
<path d="M30302 52175 c-111 -12 -205 -25 -209 -29 l-6 -6 8 0 c18 0 491 51
505 54 46 11 -122 0 -298 -19z"/>
<path d="M54272 52088 l-12 -12 0 -27 0 -28 10 -6 10 -6 0 23 0 24 12 12 12
12 -10 10 -10 10 -12 -12z"/>
<path d="M52472 51934 c-101 -53 -181 -98 -179 -101 5 -4 377 186 377 193 0
10 -25 -2 -198 -92z"/>
<path d="M52735 52020 l-6 -10 15 6 c18 7 21 14 7 14 -6 0 -13 -4 -16 -10z"/>
<path d="M52282 51792 c-221 -114 -399 -208 -395 -209 5 -2 184 87 398 197
215 110 395 201 400 203 6 3 8 7 5 10 l-5 6 -403 -207z"/>
<path d="M90880 51810 l0 -10 14 0 c8 0 96 -39 196 -86 l182 -85 6 6 6 5 -10
9 c-5 5 -87 45 -183 90 l-174 81 -18 0 -19 0 0 -10z"/>
<path d="M5994 51763 c2 -10 7 -76 11 -148 l6 -130 16 -90 15 -90 10 -10 9
-10 -5 25 c-3 14 -10 45 -16 70 -5 25 -15 125 -22 223 l-12 177 -8 0 -9 0 5
-17z"/>
<path d="M3720 51660 l0 -10 114 0 114 0 54 -12 53 -12 46 -47 46 -47 91 -149
c51 -81 100 -159 111 -173 l20 -25 6 7 6 6 -34 49 c-19 26 -63 95 -97 153 -75
123 -129 194 -171 226 l-31 23 -50 10 -49 11 -114 0 -115 0 0 -10z"/>
<path d="M2115 51388 c-110 -28 -202 -53 -204 -54 -2 -2 -2 -7 2 -10 l6 -7
213 53 c117 29 217 57 223 61 l9 9 -24 -1 c-14 0 -115 -24 -225 -51z"/>
<path d="M2160 51341 c-102 -26 -197 -51 -212 -54 l-28 -7 0 -9 0 -8 225 56
225 56 0 7 c0 12 -11 10 -210 -41z"/>
<path d="M34100 51350 c0 -5 5 -10 10 -10 6 0 10 5 10 10 0 6 -4 10 -10 10 -5
0 -10 -4 -10 -10z"/>
<path d="M33484 51260 c4 -19 20 -141 36 -270 33 -253 147 -991 155 -999 9 -8
6 9 -54 395 -33 209 -74 494 -92 634 l-32 255 -9 10 -10 10 6 -35z"/>
<path d="M34055 51260 c3 -5 11 -10 16 -10 l10 0 -6 10 c-3 6 -11 10 -16 10
l-10 0 6 -10z"/>
<path d="M34150 51255 l-13 -15 6 -7 7 -6 15 13 c17 14 20 30 6 30 -5 0 -14
-7 -21 -15z"/>
<path d="M27660 50960 l0 -10 65 0 65 0 0 10 0 10 -65 0 -65 0 0 -10z"/>
<path d="M74910 50806 l-145 -42 -70 -35 c-127 -62 -886 -472 -882 -476 2 -2
181 92 398 208 217 116 432 230 479 253 l85 43 135 37 c74 21 142 42 150 47
l15 8 -10 0 c-5 0 -75 -19 -155 -43z"/>
<path d="M6928 50697 l-158 -21 -71 12 c-65 11 -91 10 -78 -3 3 -2 38 -10 77
-17 l73 -12 147 18 c81 9 155 20 165 22 16 5 25 25 10 23 -5 -1 -79 -11 -165
-22z"/>
<path d="M13930 50544 c0 -5 33 -41 73 -80 l72 -71 80 -47 c44 -26 90 -54 103
-63 l22 -15 0 8 c-1 10 -67 56 -150 104 l-55 32 -72 71 -73 71 0 -10z"/>
<path d="M31493 50471 l-121 -6 -7 -7 -7 -6 155 5 156 6 5 -34 c3 -19 7 -50
10 -69 l3 -35 -1 75 -1 75 -35 1 c-19 0 -90 -2 -157 -5z"/>
<path d="M42710 50420 l0 -31 -45 -172 -45 -172 11 -65 c14 -90 22 -90 14 0
l-7 75 40 160 c22 88 43 177 45 198 l6 37 -10 0 -9 0 0 -30z"/>
<path d="M30700 50433 c-19 -1 -68 -6 -107 -9 l-73 -6 2 -71 2 -72 3 67 4 66
102 7 c56 4 129 11 162 15 l60 7 -60 0 c-33 0 -76 -2 -95 -4z"/>
<path d="M48650 50349 l-73 -52 -82 -37 c-103 -48 -267 -111 -412 -157 l-113
-37 0 -7 0 -8 161 55 c88 30 170 59 180 65 11 5 32 12 47 14 15 2 70 22 122
46 l95 42 78 54 c42 30 77 59 77 64 0 14 -1 13 -80 -42z"/>
<path d="M33570 50374 c1 -33 58 -386 64 -392 3 -3 7 -3 9 -1 6 7 -57 397 -65
405 l-8 7 0 -19z"/>
<path d="M31724 50275 c3 -33 8 -130 12 -215 l7 -155 9 -15 9 -15 -5 55 c-3
30 -8 127 -12 215 l-6 160 -10 15 -9 15 5 -60z"/>
<path d="M32514 50310 c8 -35 56 -355 56 -371 l0 -12 6 6 7 6 -28 188 -28 188
-9 10 -9 10 5 -25z"/>
<path d="M72007 49885 c-4 -44 -9 -143 -13 -220 l-6 -140 6 6 7 6 10 202 c10
202 7 298 -4 146z"/>
<path d="M34268 49873 c-3 -4 4 -101 16 -215 l21 -206 8 -8 7 -7 0 39 c-1 57
-36 394 -43 400 -3 3 -7 2 -9 -3z"/>
<path d="M22405 49790 l30 -8 165 -5 165 -5 -20 7 -20 8 -175 5 -175 6 30 -8z"/>
<path d="M22405 49750 l30 -8 165 -5 165 -5 -20 7 -20 8 -175 5 -175 6 30 -8z"/>
<path d="M12250 49703 c-1 -5 -16 -114 -34 -243 -19 -129 -32 -237 -30 -239
11 -12 20 29 50 241 39 273 36 248 24 248 -5 0 -10 -3 -10 -7z"/>
<path d="M35991 49435 c-1 -11 11 -95 26 -187 l27 -168 8 0 8 0 -5 23 c-3 12
-16 92 -30 177 -14 85 -27 160 -30 165 l-3 10 -1 -20z"/>
<path d="M10775 49331 c78 -47 365 -198 365 -191 0 9 -371 210 -386 210 -5 0
5 -9 21 -19z"/>
<path d="M12236 49198 c-3 -13 -6 -58 -6 -100 l0 -77 10 -53 11 -53 31 -67
c18 -38 35 -68 40 -68 12 0 10 6 -21 68 l-28 57 -12 64 -13 64 3 88 c2 49 0
91 -3 94 l-5 6 -7 -23z"/>
<path d="M37924 49080 c2 -14 19 -115 37 -225 l32 -200 10 -10 9 -10 -5 20
c-3 11 -20 108 -37 215 -17 107 -35 204 -41 215 l-9 20 4 -25z"/>
<path d="M75926 48952 l-5 -9 29 -40 29 -39 27 -13 c15 -6 29 -10 31 -7 8 8
-7 26 -22 26 l-14 0 -35 45 -34 46 -6 -9z"/>
<path d="M14050 48888 c-25 -11 -126 -42 -224 -69 -176 -48 -194 -54 -184 -64
6 -6 278 67 381 102 l77 26 0 14 c0 7 -1 13 -2 12 -2 0 -23 -9 -48 -21z"/>
<path d="M76440 48859 c-19 -5 -126 -20 -238 -33 -183 -21 -224 -29 -211 -40
6 -5 397 41 457 54 l52 12 0 9 0 9 -12 -1 c-7 -1 -29 -5 -48 -10z"/>
<path d="M12284 48734 c3 -9 16 -29 29 -44 l22 -28 55 -33 c30 -19 87 -46 126
-60 l72 -27 61 -7 61 -7 0 10 0 10 -57 7 -57 7 -71 26 c-38 14 -95 41 -125 60
l-55 34 -25 34 c-14 18 -29 34 -34 34 l-8 0 6 -16z"/>
<path d="M31805 48635 c3 -60 8 -181 11 -267 l7 -158 9 0 9 0 -5 18 c-2 9 -8
106 -11 215 -4 108 -11 221 -16 250 l-8 52 4 -110z"/>
<path d="M34817 48655 l-228 -13 -7 -7 -7 -8 100 7 c55 3 164 9 243 12 l142 7
0 8 c0 5 -3 8 -7 8 -5 -1 -111 -7 -236 -14z"/>
<path d="M39907 48650 l-5 -20 8 0 c4 0 10 9 13 20 l5 20 -8 0 c-4 0 -10 -9
-13 -20z"/>
<path d="M33901 48559 c-1 -25 44 -357 55 -408 3 -13 7 -22 9 -20 2 3 -11 105
-30 229 -18 124 -33 213 -34 199z"/>
<path d="M45427 48393 c-3 -10 -8 -106 -12 -213 -4 -107 -9 -203 -11 -212 l-5
-18 9 0 9 0 11 227 c6 125 9 229 7 231 -2 2 -6 -5 -8 -15z"/>
<path d="M37843 48107 l-193 -9 0 -10 0 -9 18 5 c9 2 105 8 213 11 l197 7 13
9 14 9 -35 -2 c-19 -1 -122 -6 -227 -11z"/>
<path d="M74973 48068 c2 -7 42 -91 88 -187 l83 -173 4 10 3 10 -85 176 c-46
97 -88 176 -91 176 l-7 0 5 -12z"/>
<path d="M28613 48036 l-201 -11 -9 -9 -8 -8 65 6 c36 3 139 9 230 12 l165 6
15 9 15 8 -35 -1 c-19 -1 -126 -6 -237 -12z"/>
<path d="M36477 48031 c-125 -7 -225 -16 -222 -19 6 -7 95 -3 305 11 l165 12
-10 5 -10 6 -228 -15z"/>
<path d="M84640 47982 c0 -5 -35 -48 -77 -95 l-78 -85 -95 -73 c-52 -39 -99
-75 -103 -79 l-9 -8 9 -5 9 -6 106 82 107 82 65 72 c36 40 70 81 76 92 l10 20
-10 6 -10 6 0 -9z"/>
<path d="M76030 47930 c0 -5 16 -28 36 -50 l36 -40 14 0 c21 0 18 6 -31 55
-47 47 -55 52 -55 35z"/>
<path d="M75980 47870 l0 -40 10 0 10 0 0 40 0 40 -10 0 -10 0 0 -40z"/>
<path d="M53573 47770 l-33 -20 0 -15 c0 -17 171 -358 176 -352 2 2 -34 81
-81 175 -47 94 -85 176 -85 182 l0 10 38 19 c20 11 33 20 27 21 -5 0 -25 -9
-42 -20z"/>
<path d="M90245 47389 l-350 -400 -52 -92 -52 -91 -27 -14 -26 -14 -114 -12
-114 -12 -12 -12 -11 -11 43 -106 c23 -58 45 -104 47 -101 3 3 -11 46 -31 96
-20 49 -36 96 -36 104 l0 14 33 5 c17 3 68 9 112 13 l80 6 31 13 32 13 57 100
56 101 337 383 c185 211 343 392 351 401 l13 17 -8 0 c-5 -1 -166 -181 -359
-401z"/>
<path d="M76040 47756 l0 -26 10 0 10 0 0 19 0 20 -10 6 -10 6 0 -25z"/>
<path d="M31810 47752 c0 -66 42 -847 46 -851 7 -8 4 94 -16 483 -10 208 -21
381 -25 384 l-5 5 0 -21z"/>
<path d="M33980 47682 c0 -33 33 -239 51 -317 25 -109 28 -119 34 -113 3 3 -4
45 -16 94 -12 49 -29 145 -39 212 -10 68 -21 127 -24 130 l-6 5 0 -11z"/>
<path d="M83906 47425 c-186 -146 -357 -279 -382 -295 -24 -17 -44 -35 -44
-40 0 -16 10 -12 64 27 72 53 667 521 690 544 l20 18 -6 6 -5 5 -337 -265z"/>
<path d="M38923 47566 c-123 -28 -223 -53 -223 -57 0 -6 441 89 449 97 13 12
-25 6 -226 -40z"/>
<path d="M22279 47313 c-1 -71 -4 -190 -8 -266 l-6 -137 6 0 c13 0 18 61 25
293 l7 237 -11 0 -12 0 -1 -127z"/>
<path d="M37080 47369 c0 -31 41 -597 46 -637 3 -24 7 -42 10 -40 6 6 -44 679
-51 686 -3 3 -5 -1 -5 -9z"/>
<path d="M35867 47160 l5 -175 9 -15 8 -15 -6 110 c-3 61 -9 146 -13 190 l-8
80 5 -175z"/>
<path d="M35907 47160 l5 -175 9 -15 8 -15 -6 110 c-3 61 -9 146 -13 190 l-8
80 5 -175z"/>
<path d="M18370 47195 c0 -13 376 -755 382 -755 5 0 -77 171 -182 380 -167
335 -200 396 -200 375z"/>
<path d="M20667 47133 l-17 -48 -29 -162 -28 -163 7 0 7 0 27 160 28 161 19
49 19 50 -8 0 c-4 0 -16 -21 -25 -47z"/>
<path d="M26918 46901 l-166 -6 -9 -8 -8 -8 190 7 c105 3 217 10 250 14 l60 7
-75 0 c-41 -1 -150 -3 -242 -6z"/>
<path d="M28326 46583 c-3 -76 -8 -173 -10 -215 l-4 -78 8 0 9 0 5 33 c3 17 8
114 11 215 l5 182 -9 0 -9 0 -6 -137z"/>
<path d="M36847 46350 l5 -165 15 -55 c8 -30 19 -59 24 -64 12 -13 12 -10 -11
64 l-20 65 -1 100 c-1 55 -5 127 -9 160 l-8 60 5 -165z"/>
<path d="M30721 46343 c0 -10 4 -27 9 -38 l9 -20 0 38 1 37 -10 0 -10 0 1 -17z"/>
<path d="M28300 46230 c0 -5 4 -10 9 -10 6 0 13 5 16 10 l6 10 -15 0 -16 0 0
-10z"/>
<path d="M93091 46095 l15 -15 75 -13 76 -14 24 -16 23 -17 51 0 50 0 63 32
c34 18 62 35 62 39 0 4 -30 -8 -67 -27 l-68 -34 -37 0 -37 0 -35 21 -35 20
-68 10 -68 10 -9 9 c-6 6 -15 10 -20 10 l-10 0 15 -15z"/>
<path d="M52172 46084 c2 -5 49 -102 103 -216 54 -115 100 -206 103 -203 6 6
-189 414 -202 422 l-9 6 5 -9z"/>
<path d="M93060 46071 c0 -4 16 -15 35 -24 l36 -17 32 0 32 0 53 -25 54 -25
54 0 54 0 71 36 c93 47 83 55 -12 9 l-73 -35 -41 0 -40 0 -47 25 -47 25 -38 0
-38 0 -42 20 -43 19 0 -8z"/>
<path d="M81344 45948 l-7 -11 11 7 c7 4 12 9 12 12 0 8 -9 4 -16 -8z"/>
<path d="M46915 45835 c-126 -41 -239 -75 -250 -76 l-20 -1 17 -5 17 -4 243
76 c134 43 245 79 247 81 13 12 -47 -5 -254 -71z"/>
<path d="M81355 45843 c-10 -38 -27 -90 -38 -116 l-20 -48 -29 -15 -30 -15 6
-6 5 -6 31 13 31 13 15 36 c9 20 26 75 39 124 l24 87 -8 0 -8 0 -18 -67z"/>
<path d="M81301 45792 c-12 -37 -26 -74 -30 -81 l-8 -13 -34 -8 -34 -8 30 -1
c17 0 36 3 43 7 l12 8 19 55 c21 62 33 109 27 109 -2 0 -13 -31 -25 -68z"/>
<path d="M90435 45820 l-170 -7 -58 -17 c-32 -10 -56 -20 -54 -23 3 -2 29 3
59 12 l53 15 183 7 182 6 0 9 0 8 -12 -2 c-7 -1 -89 -4 -183 -8z"/>
<path d="M81252 45610 c0 -14 -3 -36 -6 -50 l-7 -25 16 29 17 28 -10 22 -10
21 0 -25z"/>
<path d="M35537 45402 c-103 -91 -185 -167 -183 -170 3 -2 81 62 173 143 202
178 208 183 202 189 -2 2 -88 -71 -192 -162z"/>
<path d="M48215 45479 c-422 -135 -680 -220 -695 -229 l-14 -9 5 -6 6 -6 94
34 c92 33 747 240 802 253 l27 6 0 14 c0 8 -1 14 -2 14 -2 -1 -102 -32 -223
-71z"/>
<path d="M89080 45204 c-107 -80 -197 -149 -199 -155 -1 -6 84 54 190 132 215
157 214 157 208 163 -2 2 -92 -61 -199 -140z"/>
<path d="M42572 44694 c5 -5 426 -53 467 -54 l14 0 -5 6 c-5 5 -426 53 -467
54 l-14 0 5 -6z"/>
<path d="M44847 44408 c-4 -90 -9 -201 -11 -248 l-5 -85 9 50 c10 57 26 445
18 445 -3 0 -8 -73 -11 -162z"/>
<path d="M26729 44249 l204 -100 11 4 11 4 -199 97 -199 96 -16 -1 -16 -1 204
-99z"/>
<path d="M87776 44195 l-37 -86 23 -28 c13 -15 97 -145 188 -289 90 -143 166
-259 169 -257 2 3 -44 80 -102 173 -58 93 -109 176 -112 185 l-7 16 47 88 c26
48 39 79 30 68 -9 -11 -27 -40 -40 -65 -13 -25 -30 -53 -37 -64 l-14 -18 -49
78 c-26 44 -56 88 -66 99 l-17 20 38 83 39 82 -8 0 c-5 0 -25 -38 -45 -85z"/>
<path d="M55584 43898 l-7 -11 20 5 20 5 184 -18 c101 -10 185 -16 187 -14 8
7 -40 14 -208 30 -198 18 -187 18 -196 3z"/>
<path d="M87957 43703 c136 -219 122 -197 127 -192 6 6 -222 373 -234 377 -5
2 43 -81 107 -185z"/>
<path d="M34535 43449 l-30 -62 -92 -124 c-50 -68 -88 -123 -84 -123 12 0 55
50 124 145 l65 90 26 59 c36 81 28 93 -9 15z"/>
<path d="M52432 43247 c-7 -8 -86 -49 -177 -92 -91 -43 -165 -82 -165 -86 0
-9 336 153 353 170 l11 11 -6 5 -5 5 -11 -13z"/>
<path d="M50260 43123 l-195 -55 -10 -10 -10 -11 16 6 c9 3 102 29 205 58 104
29 191 54 193 56 18 14 -30 3 -199 -44z"/>
<path d="M88343 43083 c114 -180 257 -416 255 -418 -2 -1 -28 -16 -58 -33 -74
-41 -203 -132 -197 -139 3 -3 29 13 59 34 29 22 90 61 135 87 l82 47 -66 107
c-36 59 -100 162 -142 230 -41 67 -79 122 -83 122 l-8 0 23 -37z"/>
<path d="M49925 43071 c-50 -15 -101 -34 -114 -43 -26 -18 -95 -117 -88 -125
3 -3 22 19 41 49 l36 54 27 16 c16 9 68 28 117 42 49 14 91 28 94 31 11 11
-26 3 -113 -24z"/>
<path d="M52079 43036 c-8 -8 -662 -98 -679 -93 l-16 4 -12 -13 -11 -13 9 -3
10 -3 26 -165 c14 -91 28 -167 30 -169 11 -11 12 8 3 48 -5 24 -18 99 -28 168
l-18 125 11 3 c6 2 151 22 321 45 171 23 320 44 332 47 l22 5 169 -339 c93
-186 198 -403 233 -482 l63 -145 57 -99 c32 -55 63 -105 70 -111 l11 -11 -17
34 c-9 18 -37 67 -61 108 -24 42 -71 137 -103 212 -68 159 -414 854 -422 847z"/>
<path d="M51340 42932 c0 -25 41 -290 51 -326 6 -21 9 -40 7 -42 -2 -2 -76
-12 -164 -23 -404 -50 -548 -71 -541 -77 2 -3 78 4 168 15 90 11 247 30 348
42 l183 21 7 -11 c4 -6 20 -95 35 -198 l29 -188 8 -9 9 -10 0 17 c0 9 -14 101
-30 203 l-30 187 5 18 6 19 -9 0 -10 0 -11 48 c-6 26 -20 107 -31 181 -11 74
-22 137 -25 139 -3 3 -5 0 -5 -6z"/>
<path d="M50363 42791 c-173 -24 -215 -33 -202 -45 2 -1 109 11 237 28 l232
31 0 7 0 8 -37 -1 c-21 -1 -124 -13 -230 -28z"/>
<path d="M31880 42689 l0 -12 -157 -153 -157 -153 6 -7 7 -6 128 121 c159 151
217 221 183 221 -5 0 -10 -5 -10 -11z"/>
<path d="M31771 42498 l-164 -168 7 -7 7 -7 120 119 c134 133 202 211 197 223
l-3 8 -164 -168z"/>
<path d="M52312 42650 c20 -52 193 -400 195 -393 4 10 -180 390 -193 402 l-7
6 5 -15z"/>
<path d="M91536 42470 c-153 -82 -284 -154 -290 -161 l-11 -11 20 9 c11 6 144
76 296 157 l277 146 20 0 21 0 63 -36 c35 -20 78 -45 96 -56 l32 -20 0 9 c0 4
-42 32 -93 61 l-94 52 -29 -1 -29 0 -279 -149z"/>
<path d="M30050 42476 c0 -2 7 -23 16 -47 24 -67 34 -147 43 -354 l9 -190 13
-30 c19 -43 210 -271 334 -400 59 -60 103 -103 99 -95 -4 8 -56 67 -115 130
-132 142 -274 313 -299 361 l-19 36 -6 149 c-3 82 -11 190 -16 239 l-11 90
-20 58 c-18 48 -28 68 -28 53z"/>
<path d="M31081 41772 l-170 -237 -43 -42 c-24 -22 -169 -136 -323 -253 l-280
-212 -3 -15 -4 -16 229 174 c369 280 377 286 410 321 29 31 373 504 373 514 0
23 -44 -31 -189 -234z"/>
<path d="M30340 41664 c0 -12 249 -287 264 -293 l11 -4 -20 24 c-12 13 -70 78
-130 144 -60 66 -113 124 -117 130 l-8 9 0 -10z"/>
<path d="M30914 41633 c-9 -15 -38 -50 -63 -77 l-46 -49 -225 -171 c-124 -94
-255 -194 -293 -223 l-67 -52 9 -5 8 -6 284 216 c156 119 301 232 322 252 38
37 107 124 107 136 0 15 -19 4 -36 -21z"/>
<path d="M56862 41343 c70 -2 187 -2 260 0 l133 3 -260 0 -260 0 127 -3z"/>
<path d="M56862 41303 c70 -2 187 -2 260 0 l133 3 -260 0 -260 0 127 -3z"/>
<path d="M29386 40991 l-6 -9 98 -70 c54 -38 120 -81 147 -94 l50 -25 48 -7
48 -7 29 6 c17 4 30 10 30 13 l0 7 -75 2 -76 2 -57 32 c-31 18 -91 58 -132 89
-41 31 -80 59 -87 63 l-12 7 -5 -9z"/>
<path d="M56853 40883 c65 -2 168 -2 230 0 l112 3 -230 0 -230 0 118 -3z"/>
<path d="M45646 40759 c-2 -8 -9 -75 -14 -149 l-11 -135 8 -40 c5 -22 18 -61
29 -87 l21 -48 11 0 10 0 -30 60 -30 59 0 78 c0 43 5 121 10 173 8 87 7 123
-4 89z"/>
<path d="M80565 40673 l-20 -15 19 4 19 3 83 -140 83 -140 12 -4 12 -4 -5 9
c-6 10 -180 298 -182 301 -1 1 -10 -5 -21 -14z"/>
<path d="M51316 40409 c-3 -8 -23 -77 -45 -154 -21 -77 -76 -248 -120 -379
-45 -131 -79 -241 -76 -244 6 -6 17 23 50 132 14 47 46 140 71 208 47 126 137
439 129 446 -3 3 -7 -1 -9 -9z"/>
<path d="M52250 40232 l0 -10 48 -10 c26 -6 242 -49 480 -98 l432 -87 7 6 c3
4 4 9 2 10 -2 2 -211 45 -464 96 -253 51 -470 95 -482 98 l-23 5 0 -10z"/>
<path d="M51245 40023 c-23 -55 -133 -389 -129 -392 2 -2 5 -2 7 0 8 11 136
403 133 406 -2 2 -7 -4 -11 -14z"/>
<path d="M61730 40032 l0 -9 48 -21 c114 -49 768 -324 782 -329 l15 -6 -10 11
c-5 5 -179 81 -385 167 -206 87 -392 166 -412 176 l-38 19 0 -8z"/>
<path d="M84815 39969 c5 -8 50 -75 100 -149 51 -74 167 -260 260 -412 93
-153 170 -276 173 -273 12 12 -497 821 -530 841 l-11 7 8 -14z"/>
<path d="M84780 39956 c0 -4 39 -65 87 -134 47 -70 165 -257 261 -417 191
-317 180 -300 186 -294 11 10 -472 784 -525 844 l-9 9 0 -8z"/>
<path d="M84323 39697 c-79 -51 -143 -95 -143 -99 0 -4 58 29 129 75 153 98
179 116 166 116 -5 0 -74 -42 -152 -92z"/>
<path d="M84356 39670 c-76 -48 -143 -94 -150 -100 l-11 -12 22 11 c19 10 271
169 282 178 2 1 2 5 0 7 -2 3 -66 -35 -143 -84z"/>
<path d="M52106 39403 c-12 -43 -76 -397 -72 -401 6 -6 10 9 51 227 19 102 33
186 31 189 -2 2 -7 -5 -10 -15z"/>
<path d="M41757 39108 l-68 -41 -137 -10 -137 -10 -8 -7 -8 -7 103 4 c57 2
126 8 153 13 l50 10 75 45 75 45 -15 -1 c-8 0 -46 -18 -83 -41z"/>
<path d="M92763 38918 l-213 -112 0 -9 0 -9 33 20 c17 11 112 61 209 111 147
76 207 112 186 111 -2 0 -99 -51 -215 -112z"/>
<path d="M62806 38843 c-3 -15 -8 -55 -11 -88 l-6 -60 -31 -80 c-17 -44 -42
-99 -56 -122 l-24 -43 9 0 9 0 36 73 c20 39 43 92 51 117 l16 45 11 89 c11 84
8 129 -4 69z"/>
<path d="M52902 38855 c5 -5 841 -165 862 -165 l9 0 -5 5 c-5 6 -839 165 -861
165 -6 0 -8 -2 -5 -5z"/>
<path d="M52891 38816 c7 -7 432 -87 437 -82 6 6 -9 10 -228 51 -179 34 -218
40 -209 31z"/>
<path d="M59970 38784 c0 -13 105 -181 137 -219 40 -47 140 -135 154 -135 6 0
-11 18 -38 41 -26 22 -67 61 -91 87 l-43 47 -56 93 c-52 86 -63 101 -63 86z"/>
<path d="M88098 38507 c-98 -61 -178 -115 -178 -119 0 -7 341 202 365 223 l9
9 -9 0 c-6 0 -90 -51 -187 -113z"/>
<path d="M60290 38450 c0 -5 5 -10 10 -10 l10 0 0 -15 0 -16 -50 -70 -49 -71
-108 -115 c-59 -63 -109 -118 -111 -123 -5 -13 -183 -164 -229 -195 -24 -15
-43 -32 -43 -37 l0 -10 53 38 c82 59 127 96 196 163 l64 61 126 -117 c69 -65
137 -127 151 -137 28 -22 -99 105 -203 203 l-68 64 9 9 9 9 302 -281 c166
-154 304 -280 306 -280 3 0 5 2 5 4 0 3 -134 129 -297 281 -164 152 -299 280
-301 284 -1 3 33 45 76 91 43 47 101 118 130 157 l52 73 0 14 0 15 -20 11 -20
11 0 -11z"/>
<path d="M86007 38068 c69 -112 132 -210 140 -218 l15 -15 -13 26 c-35 66
-253 409 -260 409 -4 0 49 -91 118 -202z"/>
<path d="M85126 37738 c-3 -29 -8 -82 -11 -118 l-6 -65 162 -248 c89 -136 164
-246 166 -243 3 2 -44 80 -104 173 -60 92 -130 202 -156 245 l-47 76 6 116 7
116 -6 0 c-3 0 -8 -24 -11 -52z"/>
<path d="M86645 37561 c-72 -50 -285 -194 -475 -322 -386 -260 -355 -238 -349
-243 7 -7 653 422 728 483 35 28 104 77 153 108 48 30 88 57 88 59 0 12 -29
-5 -145 -85z"/>
<path d="M59320 37586 c0 -3 40 -86 89 -186 50 -100 92 -187 94 -193 l4 -12 7
6 7 7 -95 191 c-83 166 -106 206 -106 187z"/>
<path d="M86157 37278 c-125 -83 -226 -153 -223 -155 3 -4 439 278 461 298 l9
9 -9 0 c-6 -1 -113 -69 -238 -152z"/>
<path d="M70630 37403 c0 -5 76 -50 168 -102 92 -52 180 -105 195 -118 l29
-23 9 5 9 6 -34 29 c-19 17 -36 30 -39 30 -3 0 -76 41 -162 90 -153 87 -175
98 -175 83z"/>
<path d="M85660 36685 c0 -23 227 -361 237 -352 2 3 -24 45 -59 94 -35 48 -88
127 -117 176 -47 78 -61 97 -61 82z"/>
<path d="M40365 36564 c-115 -24 -216 -46 -224 -49 l-14 -5 6 -6 5 -5 229 47
c125 26 232 51 238 55 l9 9 -19 -1 c-11 0 -114 -21 -230 -45z"/>
<path d="M86245 35980 c59 -60 79 -75 54 -42 -28 37 -94 102 -103 102 l-10 0
59 -60z"/>
<path d="M34811 35973 c0 -6 195 -172 319 -272 l30 -24 -1 9 c0 8 -257 227
-324 277 l-25 19 1 -9z"/>
<path d="M35140 35646 c0 -2 69 -61 153 -131 83 -70 169 -146 190 -169 l38
-41 80 -164 c44 -90 82 -161 85 -159 2 3 -28 74 -68 159 l-72 154 -35 41 c-34
40 -354 314 -365 314 -3 0 -6 -2 -6 -4z"/>
<path d="M84840 35610 c-54 -36 -42 -40 15 -5 l40 24 40 0 40 0 26 -22 26 -22
63 -110 c35 -60 84 -139 110 -175 27 -36 82 -119 123 -185 41 -66 124 -201
186 -300 62 -99 118 -187 126 -195 l15 -14 0 11 c0 7 -4 14 -9 17 -8 5 -77
116 -299 481 -47 77 -111 174 -142 215 -31 41 -80 118 -110 170 l-53 95 -26
22 -26 22 -50 1 -50 0 -45 -30z"/>
<path d="M84917 35603 c-22 -6 -1245 -789 -1267 -811 l-15 -15 35 20 c19 11
306 194 636 406 l602 387 26 0 26 0 20 -20 c10 -10 31 -43 46 -72 29 -56 95
-160 125 -193 9 -11 64 -96 122 -190 267 -436 325 -524 341 -525 l8 0 -13 19
c-57 77 -96 139 -244 386 l-169 280 -52 65 -52 65 -47 88 -47 87 -21 15 c-22
15 -28 16 -60 8z"/>
<path d="M79805 35470 l-130 -70 -127 -42 c-70 -23 -126 -44 -124 -46 2 -2 50
11 107 29 l104 32 105 53 c133 66 218 114 205 114 -5 0 -68 -32 -140 -70z"/>
<path d="M41300 35462 c0 -17 33 -82 41 -82 l8 0 -15 38 c-9 20 -20 41 -25 47
l-9 9 0 -12z"/>
<path d="M35500 35397 c0 -5 16 -28 36 -50 l36 -42 69 -143 c38 -79 69 -147
69 -153 0 -5 4 -9 10 -9 l9 0 -28 63 c-16 34 -49 105 -74 157 l-46 96 -40 44
c-22 25 -40 41 -41 37z"/>
<path d="M30952 34894 l6 -445 6 -6 c3 -4 8 -4 10 -2 2 2 2 205 -2 452 l-5
447 -10 0 -10 0 5 -446z"/>
<path d="M83620 34822 c-880 -572 -1164 -761 -1157 -769 3 -3 102 60 219 140
117 79 548 361 958 627 410 266 749 487 755 491 l9 9 -9 0 c-6 0 -354 -224
-775 -498z"/>
<path d="M79310 35266 c-107 -46 -263 -126 -258 -132 3 -2 70 27 149 64 79 38
160 76 179 85 l35 16 -15 0 c-8 0 -49 -15 -90 -33z"/>
<path d="M87081 35219 l-23 -41 -5 -63 -6 -62 10 -6 10 -7 5 63 5 63 22 41
c23 47 25 53 13 53 -5 0 -19 -18 -31 -41z"/>
<path d="M51467 34923 c-2 -4 -8 -42 -11 -83 -4 -41 -30 -239 -57 -439 -27
-200 -48 -366 -45 -368 7 -7 13 31 56 355 47 348 70 536 65 540 -2 2 -5 0 -8
-5z"/>
<path d="M80276 34868 c31 -60 166 -312 196 -366 17 -29 32 -51 35 -48 6 6
-230 446 -240 446 l-8 0 17 -32z"/>
<path d="M60776 34679 c-43 -116 -76 -213 -73 -215 2 -2 39 91 81 207 43 116
76 212 74 215 -3 2 -39 -91 -82 -207z"/>
<path d="M32530 34782 l0 -9 221 -107 221 -107 6 5 5 6 -174 83 c-96 46 -198
96 -226 111 l-53 26 0 -8z"/>
<path d="M85795 34690 c-77 -49 -141 -94 -144 -101 l-3 -11 10 3 c25 9 302
185 302 192 0 17 -32 1 -165 -83z"/>
<path d="M59687 34599 c6 -8 53 -125 103 -259 50 -135 97 -258 105 -275 7 -16
39 -91 70 -165 31 -74 62 -139 67 -145 l11 -10 -6 15 c-3 8 -31 76 -63 150
-31 74 -105 261 -163 414 l-106 280 -15 4 -15 5 12 -14z"/>
<path d="M81070 34474 c-124 -68 -219 -124 -213 -124 7 0 110 52 228 116 l215
116 0 9 c0 5 -1 8 -2 8 -2 -1 -104 -57 -228 -125z"/>
<path d="M62265 34555 c-5 -2 -49 -9 -97 -15 l-88 -12 0 -14 0 -14 13 0 c6 1
66 9 132 19 l120 17 -22 12 c-21 12 -38 14 -58 7z"/>
<path d="M85644 34548 l-7 -11 11 7 c12 7 16 16 8 16 -3 0 -8 -5 -12 -12z"/>
<path d="M62555 34532 l30 -19 74 -16 c41 -10 76 -15 79 -13 2 3 -11 13 -30
23 l-33 18 -60 12 c-33 6 -67 12 -75 12 l-15 1 30 -18z"/>
<path d="M85210 34085 c-101 -63 -188 -119 -194 -125 l-10 -10 12 0 c10 0 371
218 390 235 2 2 -1 6 -6 9 l-9 5 -183 -114z"/>
<path d="M57840 33699 c0 -3 18 -46 39 -96 l39 -89 22 -110 c24 -124 30 -147
36 -141 2 2 -7 60 -21 128 l-25 124 -36 85 c-32 74 -54 115 -54 99z"/>
<path d="M34170 33389 c-58 -45 -135 -102 -172 -127 l-68 -45 0 -76 0 -77 -15
-58 c-20 -77 -39 -115 -80 -163 l-34 -40 -201 -118 c-110 -65 -199 -120 -196
-122 2 -3 95 48 205 112 l202 118 39 46 40 46 21 55 21 55 11 107 10 106 169
127 c92 70 168 129 168 131 0 12 -25 -4 -120 -77z"/>
<path d="M65806 33338 c-7 -13 -55 -95 -106 -183 -50 -88 -99 -168 -108 -178
l-16 -18 17 6 16 7 99 171 c115 200 124 217 118 217 -3 0 -12 -10 -20 -22z"/>
<path d="M35299 33224 c18 -8 36 -13 39 -10 6 6 -43 26 -61 25 -7 0 3 -7 22
-15z"/>
<path d="M1621 33055 c3 -2 169 -16 370 -29 200 -14 391 -28 424 -30 l60 -5
-20 8 -20 9 -395 26 c-424 28 -426 28 -419 21z"/>
<path d="M72990 32968 l1 -83 18 -132 c16 -123 24 -153 35 -142 3 2 -4 65 -14
139 l-19 135 -1 83 0 82 -10 0 -10 0 0 -82z"/>
<path d="M32338 32516 l77 -135 35 -16 c19 -10 52 -23 73 -31 l37 -13 0 9 c0
6 -5 10 -11 10 -6 0 -37 12 -69 26 l-58 26 -72 129 c-40 71 -76 129 -80 129
-4 0 26 -60 68 -134z"/>
<path d="M34300 32515 c1 -5 9 -26 20 -45 l19 -35 1 12 c0 7 -9 27 -20 45 -11
18 -20 29 -20 23z"/>
<path d="M31385 32186 c-82 -41 -145 -75 -140 -75 6 -1 78 32 160 73 83 41
146 75 140 75 -5 0 -77 -33 -160 -73z"/>
<path d="M98940 32244 c0 -5 5 -25 11 -44 l11 -35 -1 -70 -1 -70 -22 -60 -22
-60 -30 -35 c-16 -19 -61 -61 -100 -94 -39 -32 -75 -62 -80 -67 l-10 -9 10 0
c5 0 42 27 83 60 l75 60 8 -12 c4 -7 8 -26 8 -42 l0 -28 -14 5 -15 6 -30 -12
-31 -11 -10 -31 -10 -30 22 28 23 28 38 8 37 9 0 -11 c0 -6 2 -8 5 -5 3 2 0
31 -6 63 l-10 57 25 27 26 27 18 54 19 55 7 65 6 65 -14 54 c-8 29 -17 56 -20
59 l-6 5 0 -9z"/>
<path d="M95492 26915 l-372 -274 7 -4 8 -5 280 205 c154 113 322 236 373 273
l93 68 -8 5 -8 5 -373 -273z"/>
<path d="M24529 26023 c-23 -71 -55 -157 -70 -192 -32 -71 -32 -71 -21 -71 14
0 53 91 103 240 55 163 52 150 40 150 l-9 0 -43 -127z"/>
<path d="M87395 25990 l-5 -9 202 -160 202 -160 9 6 c4 3 7 6 5 8 -2 1 -94 75
-205 163 l-202 161 -6 -9z"/>
<path d="M4500 25015 l0 -36 -14 -27 c-17 -34 -83 -95 -198 -186 -77 -61 -101
-86 -82 -86 9 0 195 149 242 194 24 22 50 53 58 68 l14 27 0 41 0 40 -10 0
-10 0 0 -35z"/>
<path d="M90490 24839 c47 -5 150 -18 230 -30 l145 -20 120 -34 120 -34 119
-50 c66 -28 121 -49 123 -47 2 2 -52 27 -119 56 l-123 53 -113 34 -114 34
-126 19 -127 20 -110 4 -110 5 85 -10z"/>
<path d="M89100 23311 c0 -12 149 -433 156 -440 18 -18 4 33 -59 224 l-72 218
-13 5 -12 4 0 -11z"/>
<path d="M13937 22333 c-10 -17 -118 -435 -115 -445 2 -6 31 92 65 218 55 207
65 253 50 227z"/>
<path d="M89491 21945 c-1 -11 22 -125 51 -252 l52 -233 9 0 9 0 -7 38 c-13
75 -113 466 -114 447z"/>
<path d="M18591 21534 c-107 -14 -197 -27 -200 -29 -14 -15 27 -13 216 10 115
14 215 25 221 25 7 0 12 5 12 10 l0 10 -27 -1 c-16 -1 -115 -12 -222 -25z"/>
<path d="M89545 20878 c-77 -71 -142 -135 -144 -141 -4 -11 65 49 224 196 39
36 68 67 65 70 -3 2 -68 -54 -145 -125z"/>
<path d="M11448 20661 c-187 -24 -230 -33 -217 -45 2 -2 103 9 224 25 121 15
223 28 228 29 4 0 7 5 7 10 l0 10 -17 -1 c-10 -1 -111 -13 -225 -28z"/>
<path d="M10530 20550 c-251 -33 -222 -28 -216 -38 l5 -8 218 27 c120 15 219
28 221 28 6 2 1 21 -5 20 -5 -1 -105 -14 -223 -29z"/>
<path d="M10777 20543 c-3 -5 -10 -94 -17 -199 l-13 -191 6 -14 5 -14 2 35 c1
19 7 115 13 213 7 97 11 177 10 177 -1 0 -4 -3 -6 -7z"/>
<path d="M87081 20482 c5 -16 302 -330 308 -326 5 5 -46 62 -187 209 -69 72
-123 124 -121 117z"/>
<path d="M95650 17752 c0 -4 74 -72 165 -150 91 -79 165 -139 165 -134 0 5
-74 73 -165 151 -91 78 -165 138 -165 133z"/>
<path d="M92930 16991 c0 -9 646 -584 664 -590 19 -6 -39 47 -356 328 -170
149 -308 267 -308 262z"/>
<path d="M93230 16667 c0 -2 64 -59 143 -127 78 -68 155 -135 171 -149 l29
-26 -4 12 c-4 12 -323 293 -333 293 -3 0 -6 -1 -6 -3z"/>
<path d="M13715 16193 c-110 -13 -202 -26 -204 -29 -2 -2 -2 -7 1 -10 l6 -5
179 21 c98 11 195 23 216 26 l37 6 0 9 0 9 -17 -1 c-10 -1 -108 -12 -218 -26z"/>
<path d="M92492 16091 c5 -13 338 -301 349 -301 5 0 9 2 9 5 0 8 -342 305
-352 305 l-10 0 4 -9z"/>
<path d="M96995 13503 c-318 -373 -585 -686 -593 -696 -8 -9 -13 -19 -11 -21
2 -2 112 123 245 277 132 155 399 468 593 695 194 227 351 415 349 418 -3 2
-265 -301 -583 -673z"/>
<path d="M25525 4040 c-66 -4 -148 -8 -182 -9 l-63 -1 0 -11 0 -12 143 7 c78
4 181 9 230 13 l87 6 0 8 0 9 -47 -2 c-27 -1 -102 -5 -168 -8z"/>
<path d="M22640 2591 c0 -6 81 -76 181 -157 l180 -146 7 6 6 6 -15 14 c-26 25
-350 286 -355 286 -2 0 -4 -4 -4 -9z"/>
<path d="M22615 2539 c-4 -6 -5 -12 -4 -13 2 -1 79 -63 170 -137 221 -178 516
-409 523 -409 22 0 -14 33 -166 153 -95 75 -250 199 -345 276 l-172 141 -6
-11z"/>
<path d="M20410 943 l0 -10 53 -6 c28 -4 130 -10 225 -13 l172 -7 0 16 0 17
-112 0 c-62 0 -164 3 -225 7 l-113 6 0 -10z"/>
</g>
</svg>
