<?xml version="1.0" standalone="no"?>
<!DOCTYPE svg PUBLIC "-//W3C//DTD SVG 20010904//EN"
 "http://www.w3.org/TR/2001/REC-SVG-20010904/DTD/svg10.dtd">
<svg version="1.0" xmlns="http://www.w3.org/2000/svg"
 width="7500.000000pt" height="7500.000000pt" viewBox="0 0 7500.000000 7500.000000"
 preserveAspectRatio="xMidYMid meet">
<metadata>
Created by potrace 1.16, written by Peter Selinger 2001-2019
</metadata>
<g transform="translate(0.000000,7500.000000) scale(0.075000,-0.075000)"
fill="#000000" stroke="none">
<path d="M99361 94090 c25 -14 380 -150 393 -150 l11 1 -17 10 c-27 15 -378
149 -391 149 l-12 -1 16 -9z"/>
<path d="M23270 92480 l0 -9 73 -22 c39 -12 136 -41 215 -64 l143 -42 -4 11
-4 11 -209 62 c-241 72 -214 66 -214 53z"/>
<path d="M26350 91606 l0 -12 652 -187 c359 -102 654 -184 657 -182 2 3 2 7 0
9 -2 3 -191 59 -419 125 -228 66 -522 151 -652 189 l-238 70 0 -12z"/>
<path d="M33290 90882 l0 -9 158 -12 c86 -6 187 -14 223 -18 l66 -6 6 17 7 17
-8 -4 c-4 -3 -77 2 -162 9 -85 7 -185 13 -222 14 l-68 0 0 -8z"/>
<path d="M94836 90837 c75 -56 124 -102 124 -117 0 -6 26 -39 58 -72 l57 -60
45 -23 c25 -12 225 -97 445 -188 220 -92 434 -184 475 -206 l75 -40 45 -45
c24 -25 49 -46 54 -46 l10 0 -54 56 -55 56 -70 35 c-38 20 -254 112 -480 205
-225 93 -428 180 -450 193 l-41 23 -47 51 c-26 28 -52 61 -58 75 l-12 25 -61
49 c-58 47 -97 72 -111 72 -4 0 19 -20 51 -43z"/>
<path d="M30341 90256 c4 -4 267 -46 289 -46 l11 0 -6 10 -6 10 -37 0 c-20 0
-77 7 -127 15 -90 15 -132 19 -124 11z"/>
<path d="M84064 89083 c-9 -43 -31 -142 -49 -221 l-33 -143 11 4 11 3 13 60
c7 32 29 125 48 206 38 162 39 168 26 168 l-10 0 -17 -77z"/>
<path d="M76527 88705 l-209 -113 10 -6 10 -6 199 106 c109 59 202 110 206
114 l9 8 -9 4 -8 5 -208 -112z"/>
<path d="M78980 88493 l0 -8 217 -75 c119 -41 221 -77 226 -79 l10 -3 -5 12
-4 13 -213 73 c-218 76 -231 79 -231 67z"/>
<path d="M35087 88364 c-4 -4 -7 -10 -7 -14 0 -4 74 -77 164 -164 l165 -156 5
8 5 8 -163 163 -162 162 -7 -7z"/>
<path d="M83725 87263 c-15 -65 -37 -162 -50 -216 l-23 -98 11 4 11 3 43 190
c23 104 45 199 48 212 l5 22 -9 0 -9 0 -27 -117z"/>
<path d="M36060 87336 c0 -8 430 -369 488 -410 29 -21 55 -36 58 -34 2 3 -13
16 -34 30 -21 14 -143 114 -271 222 -219 185 -241 202 -241 192z"/>
<path d="M88301 84916 c3 -4 1050 -305 1338 -385 l74 -20 -9 8 c-9 9 -1374
401 -1396 401 -6 0 -9 -2 -7 -4z"/>
<path d="M85099 84384 c-101 -80 -186 -150 -188 -156 l-3 -10 11 3 c17 6 380
293 381 302 1 18 -29 -2 -201 -139z"/>
<path d="M80510 84371 l0 -8 211 -73 c115 -40 212 -70 215 -67 3 3 -34 18 -83
35 -48 16 -145 50 -215 75 l-128 46 0 -8z"/>
<path d="M90425 84310 c132 -38 242 -67 244 -64 6 5 -3 8 -237 74 -117 33
-221 60 -230 59 -9 0 91 -31 223 -69z"/>
<path d="M80500 84333 l0 -9 203 -68 c111 -38 209 -71 217 -74 l15 -5 -8 9
c-4 4 -94 38 -200 75 -106 37 -200 70 -209 74 l-18 7 0 -9z"/>
<path d="M70256 83111 l-6 -10 85 -208 c47 -114 90 -212 96 -217 l9 -10 0 15
c0 13 -166 426 -175 437 -2 2 -6 -1 -9 -7z"/>
<path d="M95640 80687 c-58 -82 -114 -164 -124 -181 l-19 -31 15 15 c27 25
239 331 236 339 -2 5 -50 -60 -108 -142z"/>
<path d="M7177 80464 l-7 -7 88 -68 c48 -37 133 -100 189 -138 l102 -71 6 11
c4 6 5 12 4 13 -2 2 -53 37 -114 79 -60 42 -141 101 -180 131 -73 58 -77 60
-88 50z"/>
<path d="M95987 79623 l-5 -8 305 -220 306 -220 49 -23 48 -24 13 5 12 4 -55
28 -55 28 -295 211 c-162 117 -300 215 -307 219 l-12 7 -4 -7z"/>
<path d="M77435 79370 c-93 -71 -171 -134 -173 -140 l-4 -10 11 0 c7 0 90 60
185 133 l174 132 -5 8 c-2 4 -7 7 -11 7 -4 0 -83 -59 -177 -130z"/>
<path d="M45970 76973 l-33 -108 -128 -297 c-70 -163 -139 -322 -153 -353 -28
-59 -31 -75 -17 -75 5 0 14 15 21 33 7 17 75 176 151 352 l137 320 36 110 35
110 -8 8 -8 8 -33 -108z"/>
<path d="M43306 76001 l-5 -8 205 -107 c112 -58 207 -106 209 -106 3 0 5 6 5
13 l0 12 -199 103 c-110 56 -202 102 -205 102 -2 0 -7 -4 -10 -9z"/>
<path d="M79290 72360 c0 -5 4 -10 8 -10 5 0 109 -7 232 -15 203 -14 242 -14
229 0 -4 3 -417 35 -461 35 -5 0 -8 -4 -8 -10z"/>
<path d="M72994 70838 c-8 -13 -11 -12 109 -42 l107 -26 114 -9 113 -10 496 6
497 6 0 10 0 10 -457 -6 -458 -5 -145 10 -145 10 -113 28 -112 28 -6 -10z"/>
<path d="M3670 67280 l0 -9 186 -111 c180 -107 204 -119 204 -102 0 7 -373
232 -385 232 -3 0 -5 -4 -5 -10z"/>
<path d="M94344 67035 c2 -16 19 -122 36 -235 l33 -205 9 -10 9 -10 -5 25 c-3
14 -20 113 -36 220 -17 107 -35 206 -41 220 l-9 25 4 -30z"/>
<path d="M63480 65793 c-91 -1 -295 -7 -455 -13 l-290 -11 -99 -16 -99 -15
-156 -43 -156 -42 -95 -40 c-166 -71 -1780 -852 -1987 -962 -72 -39 -190 -109
-262 -155 l-131 -85 -192 -164 -193 -164 -260 -189 -260 -190 -465 -273 -465
-274 -307 -203 -307 -202 -178 -145 -178 -145 -199 -210 c-109 -115 -198 -214
-198 -218 0 -5 5 -10 10 -12 l9 -3 200 210 199 210 190 153 190 153 127 83
128 83 8 -5 8 -5 80 32 79 33 340 201 c368 218 424 248 493 269 l46 13 110 11
c61 5 118 10 128 10 l17 0 0 15 0 15 -17 0 c-10 0 -67 -5 -128 -10 l-110 -10
-70 -21 c-38 -12 -94 -33 -125 -49 -65 -33 -736 -430 -797 -471 -23 -16 -45
-29 -50 -29 -22 1 344 228 771 479 l478 281 256 187 257 187 189 160 188 161
127 88 126 88 185 98 c155 82 1051 521 1064 521 2 0 125 59 273 131 621 304
657 319 874 378 l145 39 120 15 119 16 235 11 c129 6 294 10 365 10 72 0 214
3 318 7 l187 6 0 14 0 13 -122 -2 c-68 -1 -197 -3 -288 -5z"/>
<path d="M94818 65662 l-248 -45 0 -14 0 -13 23 5 c12 2 123 23 247 46 123 22
226 42 228 44 2 2 2 8 1 13 l-4 8 -247 -44z"/>
<path d="M28863 65496 l-43 -11 -26 -26 -26 -27 7 -11 6 -12 30 25 30 25 35 7
35 6 35 -5 34 -6 27 -20 26 -21 20 0 21 0 -29 30 -28 30 -31 9 c-17 5 -42 11
-56 14 l-25 5 -42 -12z"/>
<path d="M29082 65411 l-223 -46 0 -8 c0 -4 1 -13 3 -19 l4 -12 215 43 c118
24 219 46 225 49 l11 7 -6 16 -6 16 -223 -46z"/>
<path d="M60030 65223 c-45 -125 -85 -233 -87 -239 l-4 -11 14 -6 15 -5 83
231 c46 128 84 236 84 241 0 5 -5 11 -11 13 l-11 4 -83 -228z"/>
<path d="M29261 65265 c-106 -19 -196 -37 -200 -41 l-6 -6 65 7 c36 4 128 18
205 31 77 13 146 24 153 24 l12 0 0 10 0 10 -17 -1 c-10 -1 -105 -16 -212 -34z"/>
<path d="M3650 64977 l0 -13 207 -27 207 -26 8 11 c4 7 6 14 4 15 -4 4 -377
53 -403 53 l-23 0 0 -13z"/>
<path d="M60535 64774 c-104 -51 -194 -95 -199 -97 l-10 -3 7 -12 8 -11 199
97 199 97 0 13 c1 6 -2 12 -6 11 -5 0 -93 -43 -198 -95z"/>
<path d="M37180 64720 l0 -20 11 0 c14 0 383 -48 422 -55 l27 -4 0 19 0 20
-22 4 c-26 6 -410 56 -427 56 l-11 0 0 -20z"/>
<path d="M60190 64624 c-58 -30 -116 -66 -129 -79 l-23 -23 9 -5 10 -6 34 28
c19 15 73 51 122 80 73 44 98 62 85 61 -2 0 -50 -25 -108 -56z"/>
<path d="M59763 64338 c-13 -17 -35 -58 -30 -58 2 0 17 10 33 23 l31 22 -4 13
c-3 6 -8 12 -13 12 -4 0 -12 -6 -17 -12z"/>
<path d="M59556 64154 l-99 -105 10 -10 10 -10 90 94 90 95 6 21 5 21 -7 0
c-4 0 -51 -48 -105 -106z"/>
<path d="M77197 64083 l-6 -5 44 -44 c50 -51 61 -55 41 -16 l-14 27 -30 22
-30 22 -5 -6z"/>
<path d="M78490 64033 c-102 -13 -187 -26 -189 -29 -2 -2 -2 -7 1 -10 l6 -5
216 27 216 28 0 8 0 8 -32 -1 c-18 -1 -116 -12 -218 -26z"/>
<path d="M51070 64001 c0 -3 107 -51 238 -105 130 -55 319 -135 420 -179 101
-43 185 -77 187 -75 5 5 -50 29 -497 218 -192 81 -348 145 -348 141z"/>
<path d="M40215 63850 c10 -11 20 -20 23 -20 3 0 -3 9 -13 20 -10 11 -20 20
-23 20 -3 0 3 -9 13 -20z"/>
<path d="M40295 63780 c21 -22 41 -40 44 -40 3 0 -13 18 -34 40 -21 22 -41 40
-44 40 -3 0 13 -18 34 -40z"/>
<path d="M77240 63779 l-22 -30 7 -7 6 -7 19 25 c18 23 26 50 16 50 -3 0 -14
-14 -26 -31z"/>
<path d="M90085 63634 c-193 -167 -387 -354 -518 -498 l-81 -90 11 -3 11 -4
199 202 198 202 188 164 187 164 -5 10 c-4 5 -7 9 -8 9 -1 0 -83 -70 -182
-156z"/>
<path d="M40820 63762 c0 -6 65 -84 145 -172 l144 -160 4 8 5 7 -140 155 c-76
85 -143 159 -149 165 l-9 9 0 -12z"/>
<path d="M59170 63730 c0 -5 5 -10 10 -10 6 0 10 5 10 10 0 6 -4 10 -10 10 -5
0 -10 -4 -10 -10z"/>
<path d="M59121 63669 c-25 -11 -123 -42 -219 -70 l-175 -50 -68 -35 c-38 -19
-69 -36 -69 -38 0 -6 85 21 109 34 12 6 98 33 193 60 95 27 199 60 231 74 l57
26 0 10 c0 14 -9 12 -59 -11z"/>
<path d="M41710 63630 l0 -13 7 6 6 7 -6 7 -7 6 0 -13z"/>
<path d="M41760 63575 c0 -5 15 -25 34 -45 19 -19 77 -93 130 -164 l95 -128
233 -264 c127 -145 234 -261 237 -259 2 3 -7 18 -21 33 -14 15 -114 128 -222
251 l-198 224 -98 131 c-102 136 -189 238 -190 221z"/>
<path d="M16480 63125 l0 -15 235 0 235 0 0 15 0 15 -235 0 -235 0 0 -15z"/>
<path d="M42919 63087 l0 -12 -200 -174 c-109 -96 -199 -178 -199 -182 0 -5
92 72 204 171 l205 180 45 -54 46 -54 24 -68 c21 -64 84 -198 86 -182 0 3 -9
28 -21 55 -11 26 -34 83 -50 127 l-29 78 -45 53 c-25 28 -42 54 -39 57 2 3 -2
8 -11 11 l-15 6 -1 -12z"/>
<path d="M59950 62859 l0 -6 163 -12 c89 -6 191 -14 227 -18 l65 -6 -7 7 -6 8
-221 17 -221 17 0 -7z"/>
<path d="M10873 62743 l-193 -3 0 -11 0 -11 193 7 192 7 10 9 9 9 -9 -2 c-6
-2 -97 -4 -202 -5z"/>
<path d="M67994 62668 c-20 -29 -61 -93 -92 -142 -30 -50 -70 -110 -89 -133
l-36 -44 8 -7 7 -7 38 42 c20 23 63 86 95 140 32 54 73 118 92 142 18 24 33
48 33 52 0 21 -21 5 -56 -43z"/>
<path d="M94595 62608 c-15 -34 -56 -145 -90 -247 -34 -102 -81 -229 -104
-281 -22 -52 -41 -99 -41 -103 l0 -8 11 7 c21 12 80 157 158 384 43 124 85
242 94 262 l17 37 -9 5 -8 6 -28 -62z"/>
<path d="M57777 62228 c-241 -193 -436 -352 -434 -355 5 -4 824 643 872 688
l19 19 -9 -1 c-6 0 -207 -158 -448 -351z"/>
<path d="M3774 62488 c3 -35 11 -80 17 -102 l11 -38 10 10 10 10 -10 49 c-6
26 -14 67 -17 91 l-7 42 -10 0 -11 0 7 -62z"/>
<path d="M89392 62109 c2 -6 91 -84 198 -175 l195 -164 4 11 3 11 -9 7 c-5 3
-93 77 -195 164 -103 86 -190 157 -193 157 -4 0 -5 -5 -3 -11z"/>
<path d="M57141 61448 l-9 -25 -146 -108 c-80 -60 -144 -110 -141 -113 2 -3
72 46 154 107 l149 112 6 21 c8 31 -2 36 -13 6z"/>
<path d="M49972 60820 c-18 -4 -36 -11 -40 -15 l-7 -7 45 7 c25 4 49 11 55 16
l9 9 -14 -1 c-8 -1 -30 -5 -48 -9z"/>
<path d="M57485 60245 c-5 -2 -36 -9 -69 -15 l-58 -12 9 -9 9 -9 62 12 62 12
0 13 c0 7 -1 13 -2 12 -2 0 -7 -2 -13 -4z"/>
<path d="M87134 60199 c-16 -17 -90 -86 -164 -152 -74 -66 -136 -126 -138
-134 l-3 -13 7 0 c18 0 344 305 344 322 0 16 -17 8 -46 -23z"/>
<path d="M87075 60077 c-72 -67 -150 -139 -174 -160 l-45 -37 10 -10 9 -9 90
81 c50 44 127 117 173 161 l83 80 -8 8 -8 8 -130 -122z"/>
<path d="M57428 60178 l-58 -10 0 -10 0 -10 57 7 c65 8 83 14 83 26 l0 9 -12
-1 c-7 -1 -39 -6 -70 -11z"/>
<path d="M40890 59525 c0 -8 -27 -90 -60 -182 l-60 -167 8 -8 9 -9 52 143 c28
79 58 164 66 191 l14 47 -14 0 -15 0 0 -15z"/>
<path d="M92210 59148 l-111 -123 -35 -59 -35 -59 4 -10 3 -11 46 71 46 71
101 111 c89 97 113 131 96 131 -2 0 -54 -55 -115 -122z"/>
<path d="M83800 59156 c0 -15 204 -406 213 -406 4 0 -28 66 -70 148 -101 193
-143 269 -143 258z"/>
<path d="M63180 58858 c0 -18 82 -442 86 -447 2 -2 7 -2 10 2 l6 6 -43 225
-44 226 -7 0 c-5 0 -8 -6 -8 -12z"/>
<path d="M84073 58708 c82 -149 146 -276 158 -313 l12 -40 4 11 c2 6 -4 32
-14 57 -27 67 -177 347 -186 347 l-9 0 35 -62z"/>
<path d="M84469 58431 l-237 -106 -181 -64 -181 -64 0 -13 c0 -8 2 -14 5 -14
2 0 96 34 207 74 l203 75 217 99 216 98 -6 11 -7 10 -236 -106z"/>
<path d="M84530 58406 c-102 -46 -207 -92 -234 -105 l-50 -21 11 -11 10 -10
54 25 c30 14 135 61 234 105 l180 80 -2 8 c-3 16 -23 9 -203 -71z"/>
<path d="M91886 58428 c-2 -7 -21 -64 -42 -126 l-39 -113 -67 -84 c-37 -47
-64 -85 -60 -85 14 1 43 28 91 88 l49 62 25 62 c13 35 34 96 45 136 l20 72 -9
0 c-5 0 -11 -6 -13 -12z"/>
<path d="M49372 58155 c-51 -63 -95 -122 -99 -132 l-6 -18 15 15 c19 20 182
221 192 238 l7 12 -8 0 c-4 0 -50 -52 -101 -115z"/>
<path d="M63995 58008 c3 -13 43 -214 90 -447 75 -375 94 -459 95 -425 1 5
-39 208 -87 452 l-88 442 -8 0 -7 0 5 -22z"/>
<path d="M64217 57133 c-4 -7 82 -433 90 -442 1 -2 6 -2 9 1 l5 6 -46 218
c-26 121 -48 220 -50 222 -2 2 -5 0 -8 -5z"/>
<path d="M79450 56580 l-45 -30 -80 -27 c-44 -15 -114 -33 -155 -40 l-75 -12
70 3 70 3 96 33 96 33 39 33 c49 41 43 43 -16 4z"/>
<path d="M81625 56226 c-93 -24 -181 -49 -195 -55 l-25 -11 25 4 c49 9 383 96
388 101 11 11 -29 3 -193 -39z"/>
<path d="M32914 56121 l-101 -98 -119 -61 c-65 -34 -113 -61 -106 -62 8 0 66
27 130 60 l117 59 100 101 c55 55 95 100 90 100 -6 -1 -55 -45 -111 -99z"/>
<path d="M1515 56190 l-6 -9 43 -22 c61 -31 100 -67 196 -183 46 -55 88 -105
93 -110 l9 -10 9 10 10 9 -112 129 -112 130 -55 33 c-61 36 -66 37 -75 23z"/>
<path d="M90080 56018 c-96 -83 -176 -155 -178 -159 l-4 -9 10 0 c7 0 292 240
350 295 l14 13 -9 5 -8 5 -175 -150z"/>
<path d="M63730 56130 l0 -10 13 0 c8 0 22 -9 32 -20 10 -11 22 -20 26 -20 l9
0 -11 24 -11 24 -22 6 c-30 8 -36 7 -36 -4z"/>
<path d="M48685 55075 c-126 -63 -234 -116 -240 -118 -5 -2 -8 -6 -5 -9 3 -3
118 50 255 118 138 67 243 123 235 122 -8 0 -118 -51 -245 -113z"/>
<path d="M53202 54903 c-15 -25 -79 -123 -142 -217 -195 -291 -322 -484 -439
-669 -62 -97 -146 -221 -186 -275 -41 -53 -72 -99 -69 -101 12 -12 121 142
384 545 107 165 249 381 315 481 66 100 134 205 152 233 l32 50 -10 0 c-5 0
-22 -21 -37 -47z"/>
<path d="M3927 54817 l-5 -13 423 -147 423 -147 224 -65 c122 -36 304 -86 403
-111 99 -25 213 -57 253 -71 l73 -26 6 7 7 6 -10 9 c-15 14 -154 56 -349 106
-99 25 -272 73 -385 106 l-205 60 -402 139 c-221 77 -413 144 -426 149 l-25
10 -5 -12z"/>
<path d="M34245 54544 c-88 -57 -167 -108 -175 -113 l-15 -9 7 -7 7 -7 176
112 c152 98 197 132 168 129 -5 0 -80 -47 -168 -105z"/>
<path d="M55076 54483 c-79 -237 -116 -357 -107 -347 13 14 171 494 162 494
-3 0 -29 -66 -55 -147z"/>
<path d="M52872 54230 l-153 -232 3 -10 4 -10 153 230 153 231 -4 12 -4 12
-152 -233z"/>
<path d="M49286 54410 c4 -19 11 -42 16 -50 l8 -15 -6 40 c-4 22 -10 44 -15
50 l-9 9 6 -34z"/>
<path d="M53040 54424 c0 -11 470 -317 477 -311 2 2 -92 67 -209 144 -117 76
-225 147 -240 157 l-28 18 0 -8z"/>
<path d="M80804 54033 c2 -10 21 -81 41 -158 20 -77 39 -148 41 -158 l6 -19 5
6 6 6 -44 170 -44 170 -8 0 -8 0 5 -17z"/>
<path d="M52030 53108 c-30 -17 -207 -114 -393 -216 -186 -101 -336 -186 -333
-189 2 -2 143 72 313 165 169 93 345 188 390 210 45 23 84 46 88 52 l6 10 -8
-1 c-4 -1 -33 -15 -63 -31z"/>
<path d="M53032 52837 c-111 -57 -208 -109 -215 -116 -12 -13 311 145 393 193
98 56 15 20 -178 -77z"/>
<path d="M12708 52842 c-23 -26 -188 -269 -188 -276 0 -22 27 7 86 92 37 53
82 118 101 144 l34 46 -9 6 -9 6 -15 -18z"/>
<path d="M61036 52633 c-20 -104 -40 -197 -43 -208 l-5 -20 8 8 9 9 41 199 40
199 -6 0 -7 0 -37 -187z"/>
<path d="M81526 52511 c5 -5 101 -37 214 -72 113 -34 212 -64 220 -67 l15 -5
-10 10 c-8 8 -250 86 -419 134 l-30 9 10 -9z"/>
<path d="M53022 52341 c16 -43 355 -731 360 -731 4 0 -31 78 -76 173 -229 474
-275 567 -281 567 -4 0 -5 -4 -3 -9z"/>
<path d="M52930 52307 c0 -16 49 -103 69 -121 l22 -20 147 -299 146 -299 4 10
3 10 -147 294 -146 293 -34 38 c-19 20 -34 43 -34 50 0 14 -29 57 -30 44z"/>
<path d="M83305 52094 c-184 -48 -200 -52 -194 -59 5 -5 388 91 396 99 l6 6
-19 -1 c-10 0 -95 -20 -189 -45z"/>
<path d="M57716 52061 l-6 -9 192 -108 c106 -59 198 -111 204 -116 l12 -9 5
14 5 13 -195 109 c-222 125 -209 119 -217 106z"/>
<path d="M89103 51939 c3 -8 16 -51 30 -95 22 -69 59 -173 96 -268 7 -16 14
-27 16 -24 3 2 -9 39 -25 81 -16 43 -46 128 -66 190 -20 61 -41 117 -47 122
l-10 10 6 -16z"/>
<path d="M53588 51567 l-378 -192 0 -12 c0 -7 1 -13 3 -13 3 0 751 381 756
385 1 2 1 8 0 14 l-4 10 -377 -192z"/>
<path d="M53245 51523 c-105 -53 -99 -49 -91 -62 l7 -11 92 46 c106 53 104 52
91 63 l-9 9 -90 -45z"/>
<path d="M36383 51481 l-191 -16 -9 -9 -8 -8 40 6 c22 3 117 11 210 17 l170
12 15 8 15 8 -25 -1 c-14 0 -111 -8 -217 -17z"/>
<path d="M22355 51391 l-5 -10 8 -5 9 -5 7 6 c9 9 7 23 -3 23 -6 0 -12 -4 -16
-9z"/>
<path d="M21156 51162 l-6 -10 226 -7 225 -7 6 6 c4 3 4 8 2 10 -2 2 -104 7
-225 11 l-221 7 -7 -10z"/>
<path d="M22130 51153 l0 -10 121 -8 120 -7 6 6 c12 12 -3 14 -124 21 l-123 8
0 -10z"/>
<path d="M24970 51092 l0 -10 58 -6 c31 -3 135 -8 230 -12 l172 -6 0 10 0 10
-172 6 c-95 4 -199 9 -230 12 l-58 6 0 -10z"/>
<path d="M35770 50931 c0 -14 67 -424 76 -460 3 -13 7 -21 10 -18 6 5 -72 477
-80 485 l-6 5 0 -12z"/>
<path d="M5720 50881 c0 -6 3 -11 8 -11 4 0 95 -11 202 -25 107 -14 205 -25
218 -25 l22 0 0 8 0 8 -192 23 c-106 13 -208 26 -225 28 l-33 6 0 -12z"/>
<path d="M7178 50786 c-72 -11 -98 -20 -87 -30 2 -2 47 3 99 11 l95 15 138 -4
137 -4 0 7 c0 12 -73 19 -190 18 l-115 -1 -77 -12z"/>
<path d="M8960 50561 l0 -8 123 -43 122 -42 93 -48 93 -47 4 7 c7 11 -4 19
-95 61 -66 31 -321 129 -337 129 -2 0 -3 -4 -3 -9z"/>
<path d="M34253 49914 c3 -20 9 -39 12 -42 l5 -5 6 5 5 6 -6 36 -7 36 -10 0
-11 0 6 -36z"/>
<path d="M22405 49790 l30 -8 165 -5 165 -5 -20 7 -20 8 -175 5 -175 6 30 -8z"/>
<path d="M61260 49618 l0 -14 428 -93 c235 -52 433 -96 440 -98 l12 -5 0 14 0
14 -427 94 c-236 51 -434 95 -440 98 l-13 4 0 -14z"/>
<path d="M35971 49535 c-1 -10 124 -756 135 -808 3 -16 8 -26 10 -24 6 6 -123
781 -136 817 -5 14 -9 21 -9 15z"/>
<path d="M91057 48329 c-98 -104 -174 -189 -170 -189 11 0 329 334 343 360 6
11 9 20 8 19 -2 0 -83 -85 -181 -190z"/>
<path d="M16570 48178 l0 -91 26 -101 27 -101 15 -17 c8 -10 20 -18 25 -18
l10 0 -17 19 -18 19 -24 94 -24 93 0 98 0 97 -10 0 -10 0 0 -92z"/>
<path d="M69172 47918 l4 -12 235 -48 c129 -26 387 -79 574 -117 187 -38 405
-83 484 -100 137 -29 167 -32 145 -12 -13 13 -416 98 -1212 257 -122 24 -225
44 -228 44 -3 0 -4 -5 -2 -12z"/>
<path d="M17326 47441 c5 -4 45 -14 89 -21 l80 -13 34 -20 34 -20 44 -95 44
-95 5 6 6 6 -44 93 -45 93 -21 19 -22 19 -92 18 c-51 10 -100 18 -107 18 l-15
1 10 -9z"/>
<path d="M73090 47324 l-375 -53 -52 -1 -53 0 0 -15 0 -15 28 0 c27 0 817 106
860 115 l22 5 0 10 0 10 -27 -1 c-16 -1 -197 -25 -403 -55z"/>
<path d="M41413 47311 c-24 -4 -46 -10 -49 -14 l-7 -7 14 -5 15 -5 53 7 54 8
5 13 4 12 -24 -1 c-12 -1 -42 -5 -65 -8z"/>
<path d="M39262 46869 l3 -24 20 -2 20 -3 -12 6 c-7 3 -13 12 -13 19 0 8 -5
17 -11 21 l-11 6 4 -23z"/>
<path d="M44320 46495 l0 -25 10 0 10 0 0 25 0 25 -10 0 -10 0 0 -25z"/>
<path d="M35025 46479 c-71 -3 -158 -7 -192 -8 l-62 -1 6 -16 6 -16 46 6 c25
3 121 8 214 12 l167 6 0 14 0 14 -27 -2 c-16 -1 -86 -5 -158 -9z"/>
<path d="M80978 46393 l13 -5 6 6 6 6 -19 -1 -19 -1 13 -5z"/>
<path d="M80870 46380 l-25 -8 32 -1 32 -1 6 10 6 10 -13 -1 c-7 -1 -24 -5
-38 -9z"/>
<path d="M81542 46150 c-100 -82 -182 -152 -182 -155 1 -16 29 4 196 139 164
132 202 167 177 165 -5 0 -90 -67 -191 -149z"/>
<path d="M81355 44919 l-7 -10 6 -6 6 -7 11 11 11 11 -10 6 -11 6 -6 -11z"/>
<path d="M81256 44891 l-20 -8 12 -7 12 -7 20 6 c11 4 20 11 20 16 l0 9 -12
-1 c-7 0 -22 -4 -32 -8z"/>
<path d="M30998 44567 l-208 -10 0 -10 0 -10 188 7 c103 4 206 9 230 13 l42 5
0 9 0 9 -22 -2 c-13 -1 -116 -6 -230 -11z"/>
<path d="M47670 43105 c-69 -18 -152 -43 -185 -55 -33 -13 -71 -27 -84 -32
-13 -5 -22 -11 -19 -14 3 -2 41 9 84 26 44 17 142 47 219 66 77 20 142 37 144
40 10 10 -43 0 -159 -31z"/>
<path d="M66930 41830 c-8 -5 -45 -16 -82 -26 l-68 -16 0 -9 c0 -16 58 -5 148
27 l42 16 0 9 c0 12 -21 11 -40 -1z"/>
<path d="M42627 39345 l-147 -53 -80 -18 -79 -17 4 -7 5 -7 77 18 c43 10 144
42 226 70 l147 51 0 9 c0 5 -1 9 -2 8 -2 0 -69 -24 -151 -54z"/>
<path d="M50910 37103 l0 -11 157 -151 c86 -83 159 -148 162 -146 3 3 -68 76
-157 163 l-162 157 0 -12z"/>
<path d="M41392 35465 c-7 -14 -12 -40 -12 -58 l0 -32 71 -215 c39 -118 75
-219 80 -224 l9 -10 0 11 c0 7 -34 110 -75 230 -41 120 -75 227 -75 238 0 11
7 33 15 49 17 33 18 36 7 36 -5 0 -14 -11 -20 -25z"/>
<path d="M78065 34669 l-180 -99 -7 -20 c-10 -26 -4 -25 24 3 l23 23 163 87
162 88 0 10 c0 11 22 23 -185 -92z"/>
<path d="M79411 32686 c7 -7 362 -146 373 -146 l9 0 -6 7 c-11 11 -185 83
-276 114 -80 27 -110 35 -100 25z"/>
<path d="M98814 31738 l-22 -10 -11 -24 c-14 -30 -14 -34 -1 -34 l10 0 0 14 0
15 22 15 22 16 26 0 25 0 -15 10 c-18 12 -29 12 -56 -2z"/>
<path d="M99191 31287 c-2 -17 390 -539 398 -531 5 5 7 2 -189 262 -91 120
-175 232 -187 248 -12 16 -22 25 -22 21z"/>
<path d="M95310 26779 c-96 -71 -177 -134 -179 -140 -3 -9 325 226 359 257
l14 14 -9 -1 c-6 0 -89 -58 -185 -130z"/>
<path d="M94820 26724 c-102 -74 -187 -139 -189 -145 -2 -6 48 26 110 72 63
45 148 107 189 137 41 30 79 59 85 63 l9 9 -9 0 c-6 -1 -93 -61 -195 -136z"/>
<path d="M87395 25990 l-5 -9 202 -160 202 -160 9 6 c4 3 7 6 5 8 -2 1 -94 75
-205 163 l-202 161 -6 -9z"/>
<path d="M87314 25977 l-5 -14 163 -161 163 -161 15 15 15 14 -160 160 -160
160 -13 0 -13 0 -5 -13z"/>
<path d="M90495 24839 c100 -11 338 -46 373 -55 l22 -6 0 9 0 9 -147 23 -148
23 -95 3 -95 4 90 -10z"/>
<path d="M95676 17771 c34 -31 339 -289 355 -300 l19 -13 0 10 c0 5 -16 21
-34 36 -19 14 -101 82 -183 151 -81 69 -152 125 -157 125 l-10 0 10 -9z"/>
<path d="M26298 9655 c-6 -6 57 -443 65 -452 l7 -6 5 5 6 6 -31 215 c-16 119
-30 220 -30 226 0 11 -13 15 -22 6z"/>
<path d="M24678 3986 c-146 -182 -305 -400 -352 -479 l-28 -49 7 -6 7 -7 14
20 c8 11 74 103 146 205 73 102 179 244 237 315 57 72 109 136 114 143 l10 13
-9 8 -9 9 -137 -172z"/>
<path d="M16310 1237 l0 -14 220 -13 220 -13 7 7 c3 3 4 8 1 11 -4 4 -382 34
-440 35 -5 0 -8 -6 -8 -13z"/>
</g>
</svg>
