<?xml version="1.0" standalone="no"?>
<!DOCTYPE svg PUBLIC "-//W3C//DTD SVG 20010904//EN"
 "http://www.w3.org/TR/2001/REC-SVG-20010904/DTD/svg10.dtd">
<svg version="1.0" xmlns="http://www.w3.org/2000/svg"
 width="7500.000000pt" height="7500.000000pt" viewBox="0 0 7500.000000 7500.000000"
 preserveAspectRatio="xMidYMid meet">
<metadata>
Created by potrace 1.16, written by Peter Selinger 2001-2019
</metadata>
<g transform="translate(0.000000,7500.000000) scale(0.075000,-0.075000)"
fill="#000000" stroke="none">
<path d="M89446 99771 c13 -14 417 -171 423 -165 3 2 0 8 -5 13 -12 11 -399
161 -415 161 l-13 0 10 -9z"/>
<path d="M89990 99471 l0 -10 31 -17 31 -16 24 6 c13 4 24 10 24 15 l0 9 -32
5 c-18 3 -43 8 -55 12 l-23 7 0 -11z"/>
<path d="M82886 99271 c5 -5 117 -69 249 -142 132 -73 280 -157 329 -187 78
-47 114 -64 214 -103 l22 -9 0 8 c0 4 -28 18 -62 31 -35 14 -106 50 -158 82
-105 63 -588 329 -598 329 -3 0 -2 -4 4 -9z"/>
<path d="M84350 98800 c-74 -4 -147 -5 -162 -2 l-28 5 0 -13 0 -12 187 8 188
7 25 8 25 7 -50 0 c-27 -1 -111 -4 -185 -8z"/>
<path d="M85680 98005 c-8 -2 -67 -11 -130 -20 l-115 -17 -60 -20 c-33 -12
-77 -30 -97 -40 l-38 -18 0 -10 0 -11 28 15 c16 8 53 24 83 36 l54 21 159 28
160 28 35 -9 36 -10 22 -20 21 -20 21 -66 c11 -37 25 -100 31 -139 l12 -73 8
0 7 0 -18 100 c-10 55 -24 118 -30 140 l-12 39 -31 30 -31 30 -50 5 c-27 2
-57 3 -65 1z"/>
<path d="M85195 97850 c3 -5 8 -10 11 -10 3 0 2 5 -1 10 -3 6 -8 10 -11 10 -3
0 -2 -4 1 -10z"/>
<path d="M66172 96595 l-223 -23 -7 -7 -7 -8 50 6 c28 3 132 14 233 23 l182
17 0 9 c0 4 -1 7 -2 7 -2 -1 -103 -12 -226 -24z"/>
<path d="M86914 96274 l-31 -34 -119 -1 -119 0 -17 -7 -17 -7 132 0 132 0 15
10 c22 15 64 64 59 69 -3 3 -18 -11 -35 -30z"/>
<path d="M86933 96239 l-41 -42 -83 2 c-46 1 -93 3 -104 3 -11 1 -32 1 -47 0
l-28 -2 0 -7 0 -8 134 0 134 0 22 20 c22 20 65 75 58 75 -2 0 -22 -19 -45 -41z"/>
<path d="M89020 95966 c0 -13 -3 -32 -7 -42 l-6 -17 10 6 11 7 4 35 4 35 -8 0
-8 0 0 -24z"/>
<path d="M98500 94439 c8 -5 177 -75 375 -155 198 -80 381 -154 408 -164 l47
-20 0 8 c0 4 -163 72 -363 151 -199 79 -385 155 -414 168 -52 23 -80 30 -53
12z"/>
<path d="M98471 94405 c9 -8 410 -165 422 -165 7 1 -82 39 -197 85 -187 76
-239 95 -225 80z"/>
<path d="M87502 92993 c-193 -197 -349 -360 -346 -362 2 -2 161 155 353 350
l349 354 75 -74 75 -73 36 13 36 13 43 -11 c49 -14 62 -9 21 8 l-29 12 -37 0
-38 0 -13 -11 -13 -11 -74 74 c-41 41 -78 75 -81 75 -4 0 -165 -161 -357 -357z"/>
<path d="M87044 92954 c-49 -41 -131 -105 -181 -141 -82 -58 -108 -83 -87 -83
18 0 238 168 367 280 l9 8 -10 6 -9 5 -89 -75z"/>
<path d="M21865 92747 l-7 -18 6 -6 6 -6 6 6 c3 3 4 14 1 24 l-4 18 -8 -18z"/>
<path d="M86810 92736 c0 -2 54 -39 121 -81 l120 -78 35 34 c19 18 34 37 34
43 l0 10 -33 -32 c-18 -18 -37 -32 -42 -32 -6 0 -57 32 -115 70 -96 64 -120
77 -120 66z"/>
<path d="M22153 92573 l7 -6 7 6 6 7 -13 0 -13 0 6 -7z"/>
<path d="M22181 92566 c8 -9 282 -87 293 -83 4 1 -54 20 -130 42 -77 21 -146
41 -154 43 l-15 5 6 -7z"/>
<path d="M22505 92470 c11 -5 27 -9 35 -9 l15 0 -20 9 c-11 5 -27 9 -35 9
l-15 0 20 -9z"/>
<path d="M5231 92327 l-53 -142 -40 -58 -40 -59 6 -5 c7 -7 4 -11 47 52 l34
50 56 148 57 147 -7 4 -7 4 -53 -141z"/>
<path d="M22575 92450 c11 -5 27 -9 35 -9 l15 0 -20 9 c-11 5 -27 9 -35 9
l-15 0 20 -9z"/>
<path d="M22645 92430 c11 -5 27 -9 35 -9 l15 0 -20 9 c-11 5 -27 9 -35 9
l-15 0 20 -9z"/>
<path d="M94978 91174 l-23 -49 0 -80 c0 -44 4 -120 8 -169 l7 -90 31 -47 c16
-26 50 -66 74 -88 l43 -40 59 -29 c83 -42 213 -95 219 -89 3 2 -33 19 -78 38
-160 64 -250 128 -309 221 l-31 47 7 20 6 20 -11 81 c-6 45 -11 103 -12 128
l0 47 21 59 c26 74 19 86 -11 20z"/>
<path d="M33460 91035 l0 -85 10 0 10 0 0 85 0 85 -10 0 -10 0 0 -85z"/>
<path d="M94508 91080 c-9 -6 -39 -41 -67 -79 l-50 -69 6 -6 c13 -12 21 -5 64
59 24 35 47 65 52 65 l7 0 0 -21 0 -21 13 5 12 5 -4 13 c-2 8 -3 24 -3 37 l2
22 -8 0 c-4 0 -15 -5 -24 -10z"/>
<path d="M94847 91026 l-6 -15 9 -6 9 -5 6 11 7 11 -10 10 -9 9 -6 -15z"/>
<path d="M94565 90960 l-6 -10 6 -10 c7 -12 32 -13 39 -2 l5 8 -19 12 -19 12
-6 -10z"/>
<path d="M27850 90930 c93 -29 402 -111 406 -108 5 6 -398 118 -417 117 l-14
-1 25 -8z"/>
<path d="M94656 90901 l-6 -9 34 -6 33 -6 17 6 c9 3 16 10 16 15 l0 9 -44 0
-45 0 -5 -9z"/>
<path d="M33450 90745 l0 -105 10 0 10 0 0 105 0 105 -10 0 -10 0 0 -105z"/>
<path d="M84761 90604 l-132 -175 4 -12 3 -11 120 159 c66 88 129 172 138 188
l18 27 -10 0 -10 0 -131 -176z"/>
<path d="M28703 90723 l7 -6 7 6 6 7 -13 0 -13 0 6 -7z"/>
<path d="M28743 90713 l7 -6 7 6 6 7 -13 0 -13 0 6 -7z"/>
<path d="M28773 90703 l7 -6 7 6 6 7 -13 0 -13 0 6 -7z"/>
<path d="M28808 90693 l13 -5 6 6 6 6 -19 -1 -19 -1 13 -5z"/>
<path d="M28843 90683 l7 -6 7 6 6 7 -13 0 -13 0 6 -7z"/>
<path d="M28873 90673 l7 -6 7 6 6 7 -13 0 -13 0 6 -7z"/>
<path d="M28913 90663 l7 -6 7 6 6 7 -13 0 -13 0 6 -7z"/>
<path d="M28979 90644 c25 -8 61 -16 80 -19 l36 -5 -70 20 c-79 22 -113 25
-46 4z"/>
<path d="M29103 90613 l7 -6 7 6 6 7 -13 0 -13 0 6 -7z"/>
<path d="M29143 90603 l7 -6 7 6 6 7 -13 0 -13 0 6 -7z"/>
<path d="M29965 90283 c-11 -85 -56 -304 -71 -345 -16 -47 -17 -56 -5 -42 21
23 71 237 87 377 l6 57 -5 0 c-3 0 -9 -21 -12 -47z"/>
<path d="M93888 90055 l-177 -182 6 -7 c3 -3 9 -6 13 -6 4 0 85 81 180 181
l173 180 -9 9 -9 8 -177 -183z"/>
<path d="M30755 90141 l30 -30 138 -54 137 -55 0 7 c0 4 -61 32 -135 61 l-134
53 -22 24 c-13 12 -27 23 -33 23 l-11 0 30 -29z"/>
<path d="M84306 89995 l-25 -55 -45 -163 c-50 -179 -146 -577 -146 -604 l0
-17 9 10 c5 5 30 99 55 209 26 110 70 283 98 385 l51 185 23 47 c27 53 28 58
15 58 l-10 0 -25 -55z"/>
<path d="M33670 89675 l0 -15 10 0 10 0 0 15 0 15 -10 0 -10 0 0 -15z"/>
<path d="M94030 89535 c0 -13 328 -341 334 -334 3 3 -71 81 -164 174 -94 94
-170 165 -170 160z"/>
<path d="M97540 89236 c-52 -19 -267 -136 -251 -136 7 0 68 29 135 64 l121 65
85 9 85 9 -70 1 -70 1 -35 -13z"/>
<path d="M85175 88945 c-132 -24 -377 -73 -544 -109 -167 -36 -360 -75 -430
-85 l-126 -19 39 -1 c62 -2 220 26 561 100 176 38 415 86 530 106 l210 37 195
6 195 6 -195 1 -195 1 -240 -43z"/>
<path d="M86360 88980 c41 -5 125 -11 185 -15 l110 -6 65 10 65 9 -135 -1
c-74 0 -187 2 -250 5 l-115 6 75 -8z"/>
<path d="M85460 88949 c-180 -25 -512 -86 -740 -135 -140 -30 -295 -64 -345
-74 -49 -11 -139 -24 -200 -30 -60 -6 -111 -13 -114 -16 -12 -11 14 -11 129 1
l125 13 105 26 c225 54 486 108 735 152 l260 46 193 5 192 5 0 9 0 9 -137 -1
-138 -1 -65 -9z"/>
<path d="M83975 88688 c-28 -120 -85 -384 -85 -394 0 -8 3 -14 8 -14 l7 0 44
203 c24 111 46 208 49 215 l4 12 -11 0 -11 0 -5 -22z"/>
<path d="M84822 88013 c-46 -93 -161 -314 -255 -493 l-172 -325 -81 -182 c-44
-100 -83 -185 -86 -188 l-6 -6 -183 51 c-101 29 -220 62 -264 75 -76 21 -105
24 -76 6 13 -8 131 -41 397 -111 l142 -36 77 175 77 176 158 300 c199 378 362
704 358 716 -2 5 -41 -66 -86 -158z"/>
<path d="M84833 87953 c-56 -115 -145 -291 -198 -393 -230 -443 -263 -509
-320 -639 l-60 -136 -20 -3 -20 -2 -267 73 c-148 41 -268 71 -268 67 0 -3 129
-41 286 -84 l287 -78 8 14 c5 7 38 81 75 163 l67 150 150 285 c167 316 400
790 389 790 -4 0 -53 -93 -109 -207z"/>
<path d="M89878 87828 l-208 -70 0 -13 0 -13 213 70 c116 39 214 72 216 75 3
2 0 7 -5 12 l-9 9 -207 -70z"/>
<path d="M80670 87843 c0 -10 411 -155 418 -148 11 11 -18 24 -203 89 -189 66
-215 73 -215 59z"/>
<path d="M83820 87703 c-19 -107 -154 -709 -165 -741 l-5 -14 12 4 12 4 58
250 c52 221 128 583 128 606 0 4 -4 8 -9 8 l-9 0 -22 -117z"/>
<path d="M75250 87326 c0 -14 124 -257 168 -331 63 -105 59 -99 66 -87 l5 8
-51 85 c-28 46 -78 139 -112 207 -33 67 -64 122 -68 122 -5 0 -8 -2 -8 -4z"/>
<path d="M18380 86532 c0 -4 28 -17 63 -29 537 -189 807 -283 812 -283 3 0 5
4 5 9 l0 8 -122 43 c-68 24 -260 92 -427 151 -299 107 -331 117 -331 101z"/>
<path d="M80434 85747 c-33 -87 -142 -413 -138 -416 2 -2 5 -2 7 0 10 12 147
423 142 427 -2 3 -7 -2 -11 -11z"/>
<path d="M21020 85623 c0 -5 19 -19 43 -32 39 -22 231 -154 304 -208 l31 -24
6 9 6 9 -147 104 c-175 124 -243 164 -243 142z"/>
<path d="M81425 85394 c105 -35 199 -67 210 -70 l20 -5 -15 10 c-24 15 -370
131 -389 130 -9 0 70 -29 174 -65z"/>
<path d="M84331 85284 l-171 -155 6 -10 6 -11 22 20 c173 154 326 296 326 303
0 21 -27 1 -189 -147z"/>
<path d="M60360 85390 l0 -10 23 -4 c12 -3 118 -15 234 -27 l213 -22 7 6 c3 4
4 9 1 12 -4 4 -430 55 -463 55 l-15 0 0 -10z"/>
<path d="M61310 85291 l0 -9 63 -6 c34 -3 125 -7 202 -10 l140 -5 40 8 40 8
-15 6 c-8 3 -117 8 -242 12 l-228 6 0 -10z"/>
<path d="M28770 85150 l0 -10 41 0 40 0 138 -35 137 -34 165 -11 164 -11 50
-16 c28 -9 56 -18 63 -21 l12 -4 0 10 0 11 -53 15 -52 15 -165 12 -165 11
-135 33 c-74 18 -159 36 -187 39 l-53 7 0 -11z"/>
<path d="M82500 85072 c0 -9 350 -126 356 -119 3 3 -76 32 -175 65 -100 33
-181 57 -181 54z"/>
<path d="M29623 84983 l7 -6 7 6 6 7 -13 0 -13 0 6 -7z"/>
<path d="M85650 84763 c-8 -2 -37 -14 -65 -25 l-50 -20 -117 -86 -118 -86 0
-13 0 -14 11 7 c7 4 62 44 123 88 l112 82 50 21 c27 12 66 24 87 28 l37 7 0 9
0 9 -27 -1 c-16 0 -35 -3 -43 -6z"/>
<path d="M83338 84342 l-197 -175 5 -9 5 -8 172 156 c214 195 222 202 216 208
-2 2 -93 -75 -201 -172z"/>
<path d="M83295 84354 c-82 -74 -161 -145 -174 -158 l-23 -24 10 -6 10 -6 169
152 c92 83 169 157 171 165 l3 13 -8 0 c-4 -1 -75 -61 -158 -136z"/>
<path d="M83490 84233 c-140 -123 -297 -264 -349 -312 l-95 -87 8 -12 7 -11
176 159 c176 158 238 202 131 92 -31 -31 -62 -70 -71 -87 l-14 -30 -6 -72 -6
-73 8 0 9 0 6 31 c3 17 6 47 6 66 l0 34 19 37 19 37 99 95 c54 52 149 140 211
194 111 99 118 107 106 119 l-6 6 -142 -127 c-77 -70 -150 -134 -161 -142
l-20 -14 25 26 c14 13 89 82 167 153 l143 127 -6 9 c-3 5 -6 9 -7 8 -1 0 -117
-102 -257 -226z"/>
<path d="M82496 84364 l-49 -75 -47 -104 -48 -104 13 -5 12 -4 42 96 42 97 51
78 51 78 -9 9 -9 9 -49 -75z"/>
<path d="M88072 84158 l4 -12 116 -36 115 -37 64 -51 c35 -29 67 -52 71 -52
20 0 3 21 -57 70 l-66 53 -122 38 c-140 45 -130 43 -125 27z"/>
<path d="M82812 83973 l-33 -16 -24 -29 c-14 -16 -25 -34 -25 -39 0 -18 22 -9
46 20 l24 29 35 16 35 17 0 9 0 10 -12 0 c-7 0 -28 -8 -46 -17z"/>
<path d="M82882 83978 l5 -13 22 -3 c12 -2 30 0 39 3 l17 7 -20 8 c-11 5 -30
9 -43 9 l-24 1 4 -12z"/>
<path d="M83006 83931 l-6 -9 14 -11 14 -12 7 11 6 10 -6 10 c-8 12 -22 13
-29 1z"/>
<path d="M82440 83513 c-306 -329 -444 -482 -539 -599 l-65 -79 38 35 c42 38
809 859 840 897 l19 24 -9 9 -9 9 -275 -296z"/>
<path d="M82755 83700 l-7 -12 11 -11 11 -11 10 10 11 11 -15 12 -14 12 -7
-11z"/>
<path d="M82834 83649 c-8 -13 -5 -15 26 -22 l25 -6 15 9 c18 11 13 16 -27 23
l-32 6 -7 -10z"/>
<path d="M82236 83472 l-6 -10 6 -16 c7 -17 20 -21 28 -7 l5 8 -13 18 -13 18
-7 -11z"/>
<path d="M86506 82628 c-3 -62 -7 -164 -9 -225 l-3 -113 6 0 7 0 7 221 c7 233
2 310 -8 117z"/>
<path d="M17563 82187 l3 -11 214 -53 213 -54 8 8 8 8 -225 57 -225 56 4 -11z"/>
<path d="M90652 81843 l3 -18 35 -17 35 -17 28 -1 27 0 0 9 0 9 -34 6 -34 7
-25 19 c-14 11 -28 20 -32 20 l-6 0 3 -17z"/>
<path d="M79820 81565 c0 -3 15 -65 34 -138 19 -72 37 -158 41 -190 l7 -59 10
10 10 10 -11 73 c-10 61 -40 187 -67 282 -5 15 -24 25 -24 12z"/>
<path d="M94080 81293 c-52 -81 -96 -154 -98 -163 -3 -13 174 247 199 293 l10
17 -8 0 c-4 0 -51 -66 -103 -147z"/>
<path d="M95986 81185 c-5 -14 -626 -892 -695 -984 l-26 -34 12 4 c7 2 159
211 339 464 179 253 342 481 360 507 l35 46 -10 6 -9 6 -6 -15z"/>
<path d="M95546 80490 c-190 -268 -263 -378 -234 -350 19 18 475 670 469 670
-4 0 -110 -144 -235 -320z"/>
<path d="M94946 80372 l-5 -8 164 -117 c90 -64 166 -117 169 -117 21 0 -9 27
-111 100 -65 46 -139 99 -165 117 l-46 34 -6 -9z"/>
<path d="M72667 80024 l-5 -9 13 -19 14 -18 11 4 12 4 -20 23 -19 24 -6 -9z"/>
<path d="M95645 79861 c27 -24 315 -231 332 -238 l13 -5 0 8 c0 12 -336 254
-352 254 l-12 0 19 -19z"/>
<path d="M42771 79337 c-46 -111 -86 -209 -89 -217 l-5 -15 10 10 c12 13 175
416 170 421 -2 2 -41 -87 -86 -199z"/>
<path d="M32970 79193 c-19 -9 -114 -40 -209 -68 l-175 -52 -4 -11 -4 -12 14
4 c7 3 90 27 183 55 94 27 187 57 208 66 l38 16 -6 9 c-3 6 -7 10 -8 9 -1 0
-18 -8 -37 -16z"/>
<path d="M42630 79098 c-58 -134 -167 -404 -164 -407 6 -7 6 -7 82 179 39 96
78 192 86 213 9 20 14 37 11 37 -3 0 -10 -10 -15 -22z"/>
<path d="M98470 78659 c-63 -94 -135 -228 -127 -235 2 -3 21 28 42 68 21 40
64 113 97 161 33 49 58 91 55 93 -3 3 -33 -36 -67 -87z"/>
<path d="M98310 78370 l0 -13 7 6 6 7 -6 7 -7 6 0 -13z"/>
<path d="M43865 77768 c-65 -117 -125 -223 -133 -235 l-14 -23 8 0 c5 0 68
106 141 235 72 129 128 235 124 235 -4 0 -60 -96 -126 -212z"/>
<path d="M44013 77948 c-39 -62 -520 -924 -517 -927 2 -2 6 -2 7 0 5 5 499
884 516 917 12 23 8 31 -6 10z"/>
<path d="M74470 77622 c0 -4 7 -18 16 -30 l15 -22 15 0 15 0 -21 30 c-20 28
-40 39 -40 22z"/>
<path d="M78680 77068 c0 -3 20 -59 45 -125 l45 -118 0 -23 0 -23 -20 -37
c-11 -20 -27 -47 -36 -59 l-16 -23 9 0 c20 0 83 104 83 137 0 22 -87 254 -101
268 -5 5 -9 6 -9 3z"/>
<path d="M74838 76960 l-86 -80 -16 -47 -16 -47 0 -48 0 -48 15 0 15 0 0 50 0
51 14 32 14 32 85 84 86 85 -5 8 c-9 15 -18 9 -106 -72z"/>
<path d="M74608 76773 l-18 -4 0 -15 0 -14 43 6 c49 8 51 9 42 23 l-6 11 -22
-1 c-12 -1 -30 -3 -39 -6z"/>
<path d="M74550 76631 c0 -6 5 -13 10 -16 l10 -6 0 15 0 16 -10 0 c-5 0 -10
-4 -10 -9z"/>
<path d="M23690 75931 c-52 -25 -150 -72 -218 -104 l-123 -58 7 -10 6 -10 11
9 c7 5 100 51 207 101 107 51 199 96 204 101 23 23 -6 14 -94 -29z"/>
<path d="M45030 75906 c0 -8 371 -198 376 -193 5 5 -142 85 -293 161 -72 36
-83 40 -83 32z"/>
<path d="M73469 75848 c-18 -29 -70 -122 -115 -206 l-83 -154 -200 -466 c-109
-257 -235 -547 -279 -644 l-81 -178 10 -6 c6 -3 12 -4 14 -2 10 10 230 504
392 878 l174 405 91 170 c50 94 101 185 114 204 l23 34 -5 9 c-11 17 -23 7
-55 -44z"/>
<path d="M6180 74970 l0 -10 13 0 c6 0 104 -7 217 -15 113 -8 211 -15 218 -15
l12 0 0 13 0 13 -197 12 c-109 7 -213 12 -230 12 l-33 0 0 -10z"/>
<path d="M72847 74573 c-13 -21 -61 -104 -106 -185 l-83 -148 -11 0 -11 0 11
-11 11 -11 10 6 c25 15 223 386 207 386 -3 0 -15 -17 -28 -37z"/>
<path d="M82482 74153 l-22 -118 0 -112 0 -113 10 0 10 0 0 113 1 112 23 118
23 117 -12 0 -11 0 -22 -117z"/>
<path d="M34167 73964 l-7 -8 122 -125 123 -126 40 -22 c43 -24 55 -27 55 -15
0 4 -17 16 -37 27 l-38 20 -125 128 -125 129 -8 -8z"/>
<path d="M81096 72773 c-3 -82 -8 -190 -11 -241 l-6 -93 10 5 9 6 6 63 c3 34
8 140 11 235 l6 172 -10 0 -9 0 -6 -147z"/>
<path d="M72250 72552 c0 -6 286 -137 346 -158 l19 -7 -10 11 c-8 9 -341 162
-352 162 -2 0 -3 -3 -3 -8z"/>
<path d="M74439 70680 l-6 -75 19 -115 c22 -140 28 -164 34 -157 3 3 -2 42
-12 88 l-16 84 -7 125 -7 125 -5 -75z"/>
<path d="M20440 69130 c-109 -17 -720 -147 -729 -156 -2 -2 -2 -7 1 -10 l6 -5
324 70 323 71 123 16 122 17 0 8 0 9 -27 -1 c-16 -1 -80 -9 -143 -19z"/>
<path d="M76853 68483 c4 -104 7 -219 7 -257 l0 -70 11 11 11 11 -7 246 -7
246 -11 0 -10 0 6 -187z"/>
<path d="M27355 67905 l-80 -13 -85 -30 c-47 -17 -80 -31 -74 -31 6 -1 43 10
82 23 l71 25 108 16 107 16 43 -7 43 -6 0 11 0 11 -67 -1 c-38 -1 -104 -7
-148 -14z"/>
<path d="M41301 67718 l-71 -203 0 -28 0 -28 10 6 10 6 0 22 c0 12 31 110 69
217 l70 195 -8 8 -8 8 -72 -203z"/>
<path d="M45788 67293 c-35 -60 -101 -165 -146 -235 -45 -71 -78 -128 -74
-128 14 0 298 457 289 466 -2 2 -33 -44 -69 -103z"/>
<path d="M45835 67293 c-113 -190 -229 -369 -320 -493 -94 -129 -240 -359
-232 -367 3 -2 37 48 77 113 39 64 110 169 157 233 48 64 110 152 138 196 86
133 247 406 242 411 -2 3 -30 -39 -62 -93z"/>
<path d="M30355 67373 c24 -23 830 -241 895 -242 l15 0 -15 8 c-8 5 -40 12
-70 15 l-55 7 -370 105 c-203 58 -379 107 -390 110 l-20 6 10 -9z"/>
<path d="M49790 67043 c0 -4 28 -27 61 -51 l61 -43 6 5 c3 3 3 7 1 9 -2 1 -32
22 -66 45 -35 24 -63 40 -63 35z"/>
<path d="M32671 66886 c7 -7 461 -67 466 -62 7 6 -26 12 -247 41 -185 25 -227
29 -219 21z"/>
<path d="M42546 66871 c10 -10 372 -121 394 -121 l13 0 -5 6 c-6 5 -395 124
-407 124 -3 0 -1 -4 5 -9z"/>
<path d="M75905 66599 c-104 -60 -191 -113 -193 -118 -2 -5 79 38 180 96 101
58 194 111 208 119 l25 13 -15 0 c-8 0 -100 -49 -205 -110z"/>
<path d="M4717 66391 c-64 -103 -117 -190 -117 -194 0 -26 30 15 127 171 60
97 113 182 117 189 l6 12 -8 5 -8 5 -117 -188z"/>
<path d="M41235 66400 c3 -5 8 -10 11 -10 3 0 2 5 -1 10 -3 6 -8 10 -11 10 -3
0 -2 -4 1 -10z"/>
<path d="M41274 66363 c4 -5 63 -44 131 -88 68 -44 198 -129 289 -188 l166
-109 11 4 11 4 -164 105 c-231 149 -438 279 -445 279 l-6 0 7 -7z"/>
<path d="M97470 66239 l-435 -108 -215 -41 c-118 -23 -236 -46 -262 -52 l-48
-10 0 -15 0 -15 23 5 c12 3 108 22 212 42 l190 36 465 115 c256 63 482 119
503 125 l37 10 0 9 0 10 -17 -1 c-10 -1 -214 -50 -453 -110z"/>
<path d="M41590 66266 c0 -6 310 -207 328 -213 10 -2 -58 45 -151 106 -159
105 -177 116 -177 107z"/>
<path d="M48720 66256 c0 -4 394 -280 429 -301 l14 -8 -6 10 c-7 11 -424 303
-432 303 -3 0 -5 -2 -5 -4z"/>
<path d="M52360 66202 l0 -10 129 -91 129 -91 31 0 30 0 7 11 7 11 -30 -6 -29
-7 -110 77 c-60 42 -121 85 -136 96 l-28 19 0 -9z"/>
<path d="M97554 65956 c40 -194 49 -226 61 -214 3 2 -15 96 -38 208 l-44 204
-10 3 -11 4 42 -205z"/>
<path d="M94504 66085 c7 -42 43 -270 52 -330 3 -27 11 -57 16 -65 l9 -15 -5
30 c-2 17 -17 111 -32 210 l-27 180 -9 10 -10 10 6 -30z"/>
<path d="M94460 66096 c0 -11 59 -366 66 -395 3 -13 7 -22 9 -19 6 5 -60 407
-68 415 l-7 6 0 -7z"/>
<path d="M46190 66071 c0 -6 385 -171 435 -186 l20 -7 -18 12 c-31 20 -437
188 -437 181z"/>
<path d="M41907 66010 l-17 -20 9 0 c11 0 35 29 29 35 -2 2 -12 -4 -21 -15z"/>
<path d="M48986 65724 c-75 -124 -135 -230 -134 -235 2 -5 65 96 141 223 75
127 135 233 133 235 -2 2 -65 -98 -140 -223z"/>
<path d="M33846 65891 c34 -32 370 -152 421 -150 10 0 -34 15 -97 34 l-115 34
-104 45 c-107 47 -122 53 -105 37z"/>
<path d="M47007 65518 c-112 -172 -110 -168 -103 -168 6 0 174 249 195 288 6
12 9 22 6 22 -3 0 -47 -64 -98 -142z"/>
<path d="M49480 65656 c0 -4 307 -221 339 -241 l14 -8 -6 10 c-7 12 -333 243
-342 243 -3 0 -5 -2 -5 -4z"/>
<path d="M93915 65550 c-82 -16 -192 -39 -242 -51 l-93 -23 0 -14 0 -14 14 5
c23 9 235 55 359 78 l117 21 0 14 c0 8 -1 14 -2 13 -2 0 -70 -14 -153 -29z"/>
<path d="M49860 65441 c0 -8 315 -230 340 -239 l15 -5 -10 10 c-23 22 -345
241 -345 234z"/>
<path d="M51127 65248 c-25 -57 -57 -129 -71 -160 l-26 -58 8 0 c9 0 145 310
139 316 -2 3 -25 -42 -50 -98z"/>
<path d="M51166 65233 c-27 -59 -60 -133 -73 -163 l-25 -55 11 10 c16 16 142
296 139 307 -2 5 -25 -39 -52 -99z"/>
<path d="M92410 65118 c-113 -44 -209 -85 -214 -89 l-10 -9 6 -6 7 -6 208 82
c114 45 210 83 212 85 1 2 1 8 0 14 l-4 10 -205 -81z"/>
<path d="M46714 64532 l-221 -397 -38 -92 -38 -93 -8 0 -8 0 5 -13 5 -13 17
-1 c9 -1 94 -29 189 -62 94 -34 180 -64 190 -67 l18 -7 -10 10 c-5 6 -91 39
-190 73 -99 35 -184 66 -188 70 l-8 7 44 104 44 104 198 355 c108 195 206 370
217 388 l20 32 -9 0 c-4 0 -107 -179 -229 -398z"/>
<path d="M40573 64857 c61 -173 207 -622 212 -650 l6 -38 8 6 9 5 -13 57 c-14
68 -204 613 -218 628 l-10 10 6 -18z"/>
<path d="M1235 64775 l-220 -42 -160 -12 c-88 -7 -162 -15 -164 -17 -7 -7 59
-5 200 7 l134 10 215 41 214 40 18 -11 18 -11 0 14 0 14 -16 6 c-9 3 -16 6
-17 5 -1 0 -101 -20 -222 -44z"/>
<path d="M77173 64296 l5 -195 -6 -4 c-4 -2 -1 -2 6 -1 l12 3 0 -14 0 -15 26
-16 25 -17 21 -40 20 -40 -4 -63 -4 -63 13 11 13 10 0 54 0 53 48 -30 48 -29
447 43 447 43 7 7 c14 14 -6 14 -137 1 -74 -7 -274 -27 -443 -43 l-308 -31
-37 19 c-35 19 -62 42 -115 102 -13 14 -28 28 -35 30 l-12 4 -10 115 c-5 63
-10 157 -10 208 l0 92 -12 0 -11 0 6 -194z"/>
<path d="M1597 64284 l-6 -6 162 -144 c145 -130 185 -161 175 -136 -3 9 -316
292 -322 292 -1 0 -5 -3 -9 -6z"/>
<path d="M39170 64266 c0 -2 7 -21 16 -42 l17 -39 4 12 4 12 -16 30 c-13 27
-25 39 -25 27z"/>
<path d="M41910 64236 l0 -25 9 -6 10 -5 5 8 c7 12 -4 52 -15 52 l-9 0 0 -24z"/>
<path d="M40720 64190 l0 -10 31 0 30 0 -6 10 -6 10 -25 0 -24 0 0 -10z"/>
<path d="M40822 64185 c4 -5 411 -55 442 -55 l9 0 -5 6 c-5 5 -400 54 -437 54
-8 0 -12 -2 -9 -5z"/>
<path d="M40255 64160 c-22 -24 -13 -26 19 -5 l23 15 134 -15 c74 -8 163 -16
199 -17 l65 -3 -42 -25 c-24 -14 -43 -29 -43 -33 l0 -9 38 23 c20 12 46 29 57
36 l19 13 28 0 28 0 0 11 0 12 -97 -7 -98 -6 -125 15 c-69 8 -139 15 -156 15
l-31 0 -18 -20z"/>
<path d="M92097 64130 l-57 -18 -101 -63 c-55 -35 -102 -66 -105 -71 l-5 -8
12 0 c7 0 55 28 108 61 l95 62 66 18 65 19 53 0 53 0 -6 10 -6 10 -57 -1 -57
-1 -58 -18z"/>
<path d="M77063 64093 c-7 -2 -13 -11 -13 -18 l0 -13 35 10 34 11 -5 9 c-6 9
-31 10 -51 1z"/>
<path d="M76973 64024 c-11 -16 -30 -47 -41 -69 l-20 -40 -34 -31 c-18 -17
-46 -38 -61 -48 l-29 -18 -176 -8 -177 -9 -72 6 -73 6 0 -11 0 -10 108 -8 107
-7 148 11 148 11 50 36 49 35 0 -33 c0 -40 10 -77 20 -77 l8 0 -5 64 -6 64 42
73 42 72 -4 10 -3 10 -21 -29z"/>
<path d="M77610 63885 c-231 -22 -250 -26 -310 -51 l-35 -15 -28 -40 -28 -39
3 -17 3 -17 28 42 27 42 38 18 c60 30 116 40 307 57 99 9 195 18 213 21 l32 5
0 9 0 10 -12 -1 c-7 -1 -114 -11 -238 -24z"/>
<path d="M34826 63819 c-2 -8 -27 -183 -56 -389 -28 -206 -54 -391 -57 -410
l-6 -35 8 7 8 8 58 412 c51 364 61 457 45 407z"/>
<path d="M76710 63758 l-85 -9 -168 3 -167 3 0 -7 c0 -4 12 -11 26 -14 l26 -7
217 7 c263 9 297 9 339 -5 l34 -11 10 10 10 10 -53 16 c-58 17 -64 18 -189 4z"/>
<path d="M41450 63743 l-24 -5 -78 -65 c-43 -36 -78 -67 -78 -69 0 -9 22 7 96
68 l71 58 39 0 39 0 49 -15 c27 -8 56 -15 65 -14 l16 1 -60 19 c-75 23 -103
28 -135 22z"/>
<path d="M77002 63678 c2 -6 10 -14 16 -16 l12 -4 0 10 c0 5 -7 13 -16 16
l-16 6 4 -12z"/>
<path d="M77108 63683 l-18 -4 0 -14 0 -13 35 10 34 11 -5 9 c-5 8 -17 9 -46
1z"/>
<path d="M41202 63499 c-84 -74 -100 -89 -88 -89 4 0 149 122 180 151 5 5 8
11 5 13 -2 3 -46 -31 -97 -75z"/>
<path d="M89663 63303 l-213 -217 9 -9 9 -9 214 217 c117 119 215 221 216 226
l4 9 -13 0 -13 0 -213 -217z"/>
<path d="M23601 63314 l-84 -175 6 -5 5 -6 81 168 82 168 -3 12 -3 12 -84
-174z"/>
<path d="M16705 63277 l-8 -18 6 -51 c6 -49 12 -66 21 -57 3 2 1 36 -3 74 l-8
70 -8 -18z"/>
<path d="M77306 63223 c2 -10 31 -129 63 -265 l58 -248 -9 0 -8 0 0 -16 0 -15
9 6 10 5 5 -17 c3 -10 23 -94 45 -186 37 -160 45 -186 56 -176 2 3 -44 211
-104 464 l-107 459 -11 3 -11 4 4 -18z"/>
<path d="M42765 62999 c-82 -71 -172 -153 -200 -181 l-50 -52 41 35 c138 114
364 313 364 320 0 5 -1 9 -2 8 -2 0 -70 -59 -153 -130z"/>
<path d="M16710 63055 l0 -45 10 0 10 0 0 45 0 45 -10 0 -10 0 0 -45z"/>
<path d="M13385 63069 l-69 -9 -11 -11 -10 -12 30 7 c30 6 214 23 330 29 l60
3 -130 1 -130 0 -70 -8z"/>
<path d="M48412 63075 c15 -15 702 -415 708 -413 4 2 -151 96 -344 211 -306
180 -387 225 -364 202z"/>
<path d="M43855 63035 c-49 -12 -101 -27 -115 -35 -36 -19 -480 -401 -480
-413 l0 -9 18 13 c9 8 112 96 229 197 l212 182 45 20 c25 10 73 24 108 31 58
11 88 23 77 32 -2 2 -44 -6 -94 -18z"/>
<path d="M42251 63045 c-1 -9 98 -125 226 -268 l35 -39 5 6 6 5 -89 103 c-49
56 -110 124 -136 152 l-47 51 0 -10z"/>
<path d="M15077 63023 c-4 -3 -7 -19 -7 -34 l0 -28 10 -6 11 -7 -3 41 c-2 23
-3 41 -4 41 0 0 -4 -3 -7 -7z"/>
<path d="M16720 62920 l0 -30 10 0 10 0 0 30 0 30 -10 0 -10 0 0 -30z"/>
<path d="M16671 62773 l2 -118 -8 -60 -8 -60 -134 -270 c-73 -148 -127 -261
-118 -250 9 11 71 130 139 265 l123 245 12 78 11 78 0 104 0 105 -11 0 -10 0
2 -117z"/>
<path d="M57650 62871 c0 -5 3 -17 7 -26 l6 -17 156 -75 c86 -41 206 -95 266
-120 61 -25 114 -49 118 -53 l8 -7 -412 -329 -412 -329 -28 -10 -28 -11 7 -10
c4 -5 16 -11 27 -11 11 -1 191 -77 400 -168 209 -92 395 -173 413 -180 l32
-14 0 7 c0 4 -187 88 -415 187 -228 99 -414 183 -412 187 2 6 358 293 704 566
l142 113 168 -70 c92 -38 186 -77 208 -86 l40 -17 -10 10 c-5 6 -143 67 -305
135 -162 68 -375 162 -474 208 l-178 84 -9 23 c-9 22 -19 30 -19 13z"/>
<path d="M59950 62859 l0 -6 163 -12 c89 -6 191 -14 227 -18 l65 -6 -7 7 -6 8
-221 17 -221 17 0 -7z"/>
<path d="M59492 62856 l6 -8 221 -17 221 -17 0 7 0 6 -162 12 c-90 6 -192 14
-228 18 l-65 6 7 -7z"/>
<path d="M94157 62813 l-6 -9 87 -32 c48 -17 147 -53 220 -81 l132 -49 0 12 0
11 -202 74 c-112 41 -208 76 -214 78 l-12 4 -5 -8z"/>
<path d="M12530 62800 l-45 -8 165 6 c91 2 167 6 169 8 8 7 -243 1 -289 -6z"/>
<path d="M11707 62602 c3 -107 9 -217 13 -245 l8 -52 -5 160 c-3 88 -9 198
-14 245 l-7 85 5 -193z"/>
<path d="M11094 62719 l-19 -21 -330 6 c-181 3 -366 9 -410 12 -44 3 -78 4
-75 1 3 -3 99 -13 215 -22 l209 -16 199 7 199 7 27 23 26 23 -11 1 c-6 0 -19
-10 -30 -21z"/>
<path d="M16770 62623 l52 -98 74 -59 75 -59 10 10 9 9 -74 57 -75 57 -48 90
-48 90 -13 0 -13 0 51 -97z"/>
<path d="M42175 62474 c-104 -90 -192 -169 -194 -175 -2 -7 68 49 155 124 229
195 240 205 234 210 -3 2 -90 -69 -195 -159z"/>
<path d="M58230 62617 c0 -8 421 -180 426 -174 2 2 -83 40 -190 85 -203 84
-236 96 -236 89z"/>
<path d="M42220 62459 c-91 -77 -176 -152 -190 -166 l-25 -26 15 9 c13 7 327
271 370 310 l14 14 -9 0 c-6 0 -84 -63 -175 -141z"/>
<path d="M0 62464 c0 -13 108 -119 114 -113 3 3 -21 32 -54 64 l-60 59 0 -10z"/>
<path d="M89022 62421 c2 -5 81 -75 176 -156 l174 -146 11 4 11 3 -180 152
c-98 84 -183 152 -187 152 l-9 0 4 -9z"/>
<path d="M88992 62380 l4 -15 174 -147 173 -147 9 5 10 6 -9 7 c-41 36 -332
280 -347 291 l-19 15 5 -15z"/>
<path d="M48315 62174 c-53 -82 -185 -307 -182 -311 3 -2 50 71 106 163 56 92
100 169 98 171 -3 2 -12 -8 -22 -23z"/>
<path d="M63670 62164 c-114 -18 -482 -93 -488 -99 -16 -16 22 -11 179 20 96
20 234 44 307 55 l133 20 145 0 144 0 0 10 0 10 -167 -1 -168 -1 -85 -14z"/>
<path d="M56488 62126 c-51 -45 -248 -266 -248 -279 l0 -8 19 11 c21 11 286
309 280 314 -2 2 -25 -15 -51 -38z"/>
<path d="M56736 62112 c5 -5 137 -64 294 -132 157 -67 287 -124 289 -126 4 -3
-23 -64 -135 -311 -19 -40 -30 -73 -26 -73 4 0 43 81 87 181 l80 181 12 5 13
5 200 -88 c110 -48 202 -85 205 -82 3 2 -66 35 -153 73 -86 38 -184 81 -217
95 -137 62 -644 280 -651 280 l-8 0 10 -8z"/>
<path d="M500 62102 c0 -5 60 -47 133 -94 72 -47 158 -101 190 -122 l57 -37 0
9 c0 7 -264 183 -367 245 l-13 8 0 -9z"/>
<path d="M63201 62039 c-1 -6 64 -333 74 -378 3 -13 8 -21 11 -18 6 6 -63 352
-76 382 -5 11 -9 17 -9 14z"/>
<path d="M62171 61919 c-102 -22 -187 -41 -189 -44 -16 -16 26 -11 211 27
l207 42 0 8 0 8 -22 -1 c-13 -1 -106 -19 -207 -40z"/>
<path d="M62315 61893 c-176 -36 -322 -67 -324 -69 -2 -2 -2 -7 2 -10 l6 -6
341 68 340 69 0 8 0 7 -22 -1 c-13 0 -167 -30 -343 -66z"/>
<path d="M44721 61923 c2 -7 93 -109 201 -227 109 -119 235 -262 280 -318 106
-133 228 -271 228 -258 0 5 -31 44 -68 87 -38 43 -102 121 -144 173 -61 77
-401 456 -480 535 l-20 20 3 -12z"/>
<path d="M43700 61703 c-107 -96 -213 -190 -234 -209 l-39 -34 6 -6 6 -6 223
197 c123 109 229 204 236 210 l14 13 -9 4 -8 5 -195 -174z"/>
<path d="M77672 61663 c26 -114 85 -347 130 -518 l82 -310 21 -35 c12 -19 55
-66 95 -103 l72 -68 -5 -36 -6 -35 -18 -14 c-10 -7 -35 -17 -55 -20 l-38 -6 6
-9 c3 -5 14 -9 24 -9 l20 0 -12 -24 -11 -25 83 -330 82 -331 10 0 9 0 -5 18
c-3 9 -39 157 -81 327 l-76 310 17 38 17 37 12 0 c19 0 42 32 50 67 l6 32 -16
30 -15 31 -29 14 -29 15 -39 45 c-21 24 -46 59 -56 78 l-17 33 -81 305 c-45
168 -102 392 -128 499 l-46 194 -11 4 -11 4 49 -208z"/>
<path d="M43690 61638 c-124 -111 -227 -206 -229 -212 l-4 -11 24 21 c97 84
400 353 424 376 l30 28 -10 -1 c-6 0 -111 -91 -235 -201z"/>
<path d="M56200 61764 l-15 -5 -30 -47 c-16 -26 -136 -179 -268 -340 -131
-162 -241 -300 -244 -308 l-5 -14 10 0 10 0 238 292 c132 160 252 310 267 332
27 40 60 97 55 95 -2 -1 -10 -3 -18 -5z"/>
<path d="M38785 61703 c6 -5 64 -24 130 -41 l120 -32 110 -5 110 -4 -45 9
c-25 5 -73 9 -107 9 l-63 1 -112 30 c-62 17 -122 33 -133 37 l-20 5 10 -9z"/>
<path d="M47010 61592 c-41 -47 -86 -103 -99 -125 -13 -22 -38 -53 -56 -68
-37 -33 -90 -107 -83 -115 3 -3 16 11 28 30 12 20 39 50 60 68 l38 33 23 40
c12 22 52 74 88 115 36 41 71 83 79 93 l15 17 -9 -1 c-5 0 -43 -39 -84 -87z"/>
<path d="M56277 61627 l-19 -32 26 24 25 24 -5 8 c-7 12 -7 13 -27 -24z"/>
<path d="M56450 61642 c0 -5 24 -38 53 -74 28 -37 158 -217 287 -402 129 -184
238 -335 243 -336 4 0 7 4 7 8 0 11 -472 683 -532 758 -41 50 -58 64 -58 46z"/>
<path d="M95170 61561 l0 -8 133 -48 c72 -27 167 -66 211 -87 43 -22 80 -37
83 -34 8 8 -145 81 -262 124 -60 22 -122 45 -137 51 l-28 11 0 -9z"/>
<path d="M60251 61261 l-154 -148 8 -12 8 -13 153 153 c143 143 166 170 147
169 -5 -1 -77 -67 -162 -149z"/>
<path d="M56810 61197 c0 -2 99 -142 220 -312 l220 -310 27 -54 c34 -67 53
-92 120 -157 48 -47 152 -124 168 -124 17 0 -6 22 -83 80 l-82 62 -45 55 c-25
30 -45 60 -45 66 0 17 -52 95 -273 405 l-207 292 -10 0 c-6 0 -10 -1 -10 -3z"/>
<path d="M63416 60963 c24 -119 48 -221 52 -225 l9 -9 -46 226 c-25 124 -49
225 -52 225 -3 0 13 -98 37 -217z"/>
<path d="M31160 60983 c0 -6 7 -77 16 -159 l16 -149 -6 -70 -5 -70 9 25 c4 14
8 54 9 90 1 72 -25 329 -33 338 l-6 5 0 -10z"/>
<path d="M31200 60983 c0 -6 7 -77 16 -159 l16 -149 -6 -70 -5 -70 9 25 c4 14
8 54 9 90 1 72 -25 329 -33 338 l-6 5 0 -10z"/>
<path d="M85846 60923 c10 -16 56 -89 103 -163 85 -136 141 -213 148 -206 3 2
-15 31 -39 63 -24 32 -81 120 -127 196 l-84 137 -10 0 -9 0 18 -27z"/>
<path d="M58150 60894 c0 -7 53 -99 117 -205 132 -220 122 -204 127 -198 3 3
-131 231 -234 399 l-9 15 -1 -11z"/>
<path d="M46314 60738 c-64 -73 -144 -157 -176 -185 l-59 -53 11 0 c6 0 36 24
67 53 76 72 297 317 285 317 -5 0 -63 -60 -128 -132z"/>
<path d="M35151 60726 c5 -6 406 -46 441 -45 l23 1 -10 4 c-12 4 -399 44 -434
44 -13 0 -22 -2 -20 -4z"/>
<path d="M57016 60722 l-6 -10 58 -73 c73 -92 125 -174 143 -222 l13 -37 9 9
9 9 -36 74 -37 73 -74 93 -73 93 -6 -9z"/>
<path d="M62810 60703 c0 -5 19 -108 42 -230 l42 -223 8 0 c12 0 11 9 -32 233
-22 115 -40 213 -40 218 0 5 -4 9 -10 9 -5 0 -10 -3 -10 -7z"/>
<path d="M48276 60548 c28 -32 305 -250 310 -245 3 3 -55 52 -128 110 -73 57
-144 117 -157 131 -14 14 -29 26 -34 26 l-10 0 19 -22z"/>
<path d="M55568 60529 c-21 -11 -38 -22 -38 -24 0 -5 102 33 109 41 13 12 -39
0 -71 -17z"/>
<path d="M56125 60409 c11 -5 106 -32 210 -60 105 -28 300 -82 434 -120 225
-63 282 -77 270 -64 -10 9 -906 256 -926 254 -4 0 1 -4 12 -10z"/>
<path d="M49880 60400 l-14 -9 5 -6 6 -5 13 15 c14 17 11 19 -10 5z"/>
<path d="M38415 60383 c71 -4 344 -33 380 -40 l30 -5 -10 9 -10 10 -155 17
-155 16 -65 -2 -65 -2 50 -3z"/>
<path d="M62083 60257 c-354 -72 -643 -134 -643 -138 0 -7 1266 247 1295 260
l20 10 -15 -1 c-8 0 -304 -59 -657 -131z"/>
<path d="M57221 60325 c-1 -11 -12 -37 -25 -57 l-22 -37 -47 -36 c-26 -20 -47
-38 -47 -41 0 -6 14 2 64 38 l40 29 24 39 23 40 -4 23 -4 22 -2 -20z"/>
<path d="M62155 60229 c-99 -21 -196 -40 -215 -42 l-35 -4 4 -9 c2 -5 5 -13 7
-19 4 -14 54 -256 104 -505 46 -229 48 -240 59 -240 l7 0 -37 178 c-20 97 -56
266 -79 376 l-43 198 11 7 c6 4 101 24 212 46 l200 39 0 8 c0 10 16 13 -195
-33z"/>
<path d="M56560 60252 l0 -7 215 -58 c119 -32 224 -61 233 -64 l17 -6 -10 11
-10 10 -175 47 c-96 25 -196 52 -222 60 l-48 14 0 -7z"/>
<path d="M58636 60229 c-59 -14 -57 -20 5 -13 l54 6 107 -218 107 -219 116
-275 c64 -151 121 -279 126 -285 l10 -10 -10 26 c-5 15 -76 182 -156 370
l-147 344 -75 143 -75 142 -11 -1 c-7 -1 -30 -5 -51 -10z"/>
<path d="M57330 60210 l-14 -9 5 -6 6 -5 17 6 c9 3 16 10 16 15 0 11 -11 11
-30 -1z"/>
<path d="M58642 60190 c-18 -4 -36 -10 -39 -14 l-6 -6 38 3 37 2 34 -60 c53
-95 264 -558 374 -823 23 -56 44 -101 47 -99 5 6 -128 327 -229 552 -78 173
-215 456 -221 454 -1 -1 -17 -5 -35 -9z"/>
<path d="M61873 60165 c3 -11 38 -177 77 -368 l72 -348 -5 -12 -5 -12 -190
-39 c-105 -21 -196 -43 -204 -47 l-13 -9 10 1 c6 0 100 19 210 43 l200 43 4
-10 3 -9 9 13 8 13 -8 15 c-5 9 -41 176 -81 371 l-73 355 -10 10 -9 10 5 -20z"/>
<path d="M61502 59694 c43 -218 77 -398 76 -400 -2 -1 -97 -22 -211 -46 -114
-23 -207 -46 -207 -49 l0 -7 188 40 c103 22 198 40 211 41 l25 2 66 -335 c37
-184 70 -348 75 -365 l8 -30 4 15 c2 8 -13 92 -32 185 -62 300 -108 536 -104
539 5 3 810 170 1102 228 119 23 217 45 217 49 l0 7 -482 -98 c-266 -54 -559
-114 -653 -134 -93 -20 -175 -36 -181 -36 l-11 0 -79 395 c-43 217 -81 395
-85 395 -3 0 30 -178 73 -396z"/>
<path d="M49387 59893 c-59 -81 -104 -149 -102 -152 3 -2 6 -2 8 0 62 81 208
291 205 295 -3 2 -53 -62 -111 -143z"/>
<path d="M86559 59764 c-90 -69 -166 -131 -168 -137 l-4 -12 14 11 c8 6 85 66
172 133 141 110 166 131 153 131 -2 0 -77 -57 -167 -126z"/>
<path d="M63661 59826 c0 -11 29 -157 65 -325 36 -168 119 -569 184 -891 66
-322 183 -889 260 -1260 241 -1162 232 -1123 244 -1109 2 2 -19 105 -45 229
-79 363 -271 1291 -394 1900 -92 451 -283 1356 -308 1455 l-5 20 -1 -19z"/>
<path d="M63621 59824 c-1 -6 69 -344 154 -750 85 -407 157 -757 161 -779 14
-93 233 -1157 325 -1584 l100 -464 -16 -17 c-8 -9 -15 -23 -15 -31 l0 -14 24
30 c13 16 22 33 20 36 -8 13 -239 1106 -329 1559 -119 599 -403 1966 -415
2000 -5 14 -9 20 -9 14z"/>
<path d="M23350 59760 l-115 -18 -115 -32 c-63 -17 -168 -52 -233 -77 l-118
-46 -59 -38 -59 -38 -82 -78 -82 -78 -42 -60 -42 -60 -21 -62 -21 -63 8 0 c4
0 15 26 25 58 l18 57 43 60 42 60 82 78 81 77 58 37 57 37 110 43 110 43 145
40 145 39 93 12 93 12 5 8 5 9 -8 -1 c-4 -1 -60 -9 -123 -19z"/>
<path d="M49310 59736 c0 -5 282 -224 309 -241 l14 -8 -7 11 c-6 10 -274 218
-303 236 -7 4 -13 5 -13 2z"/>
<path d="M53264 59589 c-14 -23 -33 -58 -41 -77 l-14 -34 10 6 c13 8 82 138
77 144 -3 2 -17 -15 -32 -39z"/>
<path d="M53337 59605 l18 -24 14 -1 14 0 -23 25 c-13 14 -27 25 -32 25 l-9 0
18 -25z"/>
<path d="M48635 59487 c-144 -188 -158 -207 -148 -207 4 1 60 69 123 152 120
158 134 177 128 183 -1 2 -48 -56 -103 -128z"/>
<path d="M61048 59569 l-3 -9 -205 -40 c-213 -43 -235 -48 -229 -54 2 -2 103
16 223 40 121 24 221 43 222 41 1 -1 17 -75 36 -164 18 -90 36 -163 39 -163 3
0 -9 73 -27 163 l-32 162 9 3 c16 6 10 19 -11 25 l-19 5 -3 -9z"/>
<path d="M50221 59359 c-89 -116 -160 -213 -158 -216 3 -2 78 91 167 207 89
116 160 214 157 216 -2 3 -77 -90 -166 -207z"/>
<path d="M62625 59553 c-38 -7 -169 -34 -290 -59 -232 -48 -250 -52 -244 -59
3 -2 97 16 209 39 113 24 249 51 303 61 l97 19 0 8 c0 4 -1 8 -2 7 -2 -1 -34
-8 -73 -16z"/>
<path d="M40890 59514 c-6 -14 -10 -29 -10 -34 0 -5 -25 -75 -55 -156 l-54
-147 6 -10 6 -10 49 134 c27 74 58 160 68 192 l18 57 -9 0 c-5 0 -14 -12 -19
-26z"/>
<path d="M22488 59403 l-94 -98 -32 -68 -32 -67 1 -28 0 -27 13 40 c7 22 24
62 36 89 l24 50 99 103 c55 57 95 103 90 103 -6 0 -53 -44 -105 -97z"/>
<path d="M41020 59458 c8 -8 60 -43 115 -78 l100 -63 68 -28 c37 -15 67 -25
67 -21 0 4 -28 18 -62 31 l-63 24 -105 67 c-58 36 -112 70 -120 74 l-15 9 15
-15z"/>
<path d="M47066 59441 l-6 -9 16 -6 c20 -8 29 -1 19 13 -8 13 -22 14 -29 2z"/>
<path d="M48404 59247 c-23 -29 -83 -103 -133 -164 -51 -62 -88 -113 -84 -113
7 0 221 255 261 312 l13 18 -8 -1 c-4 0 -26 -23 -49 -52z"/>
<path d="M59392 59231 c-128 -26 -230 -50 -227 -52 3 -3 111 15 240 40 l235
46 0 8 c0 9 27 13 -248 -42z"/>
<path d="M75955 59240 c39 -4 136 -8 218 -9 l147 -1 0 10 0 10 -217 -2 -218
-1 70 -7z"/>
<path d="M45625 59149 l70 -70 115 -82 c63 -46 121 -87 129 -91 l14 -9 -6 10
c-4 6 -60 49 -124 96 l-118 85 -65 66 c-35 36 -69 66 -74 66 l-10 0 69 -71z"/>
<path d="M75890 59208 l0 -8 194 0 194 0 16 -6 16 -6 0 11 0 10 -210 3 -210 3
0 -7z"/>
<path d="M91641 59173 c22 -26 310 -255 315 -250 3 2 -57 54 -133 115 -76 60
-147 119 -157 131 -11 12 -23 21 -29 21 l-9 0 13 -17z"/>
<path d="M83804 59145 c4 -11 88 -175 188 -364 99 -189 188 -367 198 -395 l19
-51 0 16 c2 34 -31 103 -214 449 -177 336 -208 392 -191 345z"/>
<path d="M49101 58834 c-90 -119 -161 -218 -158 -220 2 -3 77 93 166 212 90
119 161 218 158 220 -2 3 -77 -93 -166 -212z"/>
<path d="M39150 58929 c138 -30 195 -45 290 -80 57 -21 106 -36 108 -34 6 6
-52 29 -186 74 l-117 39 -70 6 -70 5 45 -10z"/>
<path d="M50720 58632 c0 -6 229 -75 295 -89 l20 -4 -15 9 c-8 5 -64 24 -125
41 -60 17 -125 35 -142 40 l-33 10 0 -7z"/>
<path d="M84510 58505 c-91 -46 -191 -93 -223 -106 -32 -12 -56 -24 -53 -26 9
-9 140 47 306 132 91 46 158 84 150 84 -8 0 -89 -38 -180 -84z"/>
<path d="M61500 58512 c-96 -26 -180 -50 -186 -54 -6 -4 -198 -46 -425 -93
l-414 -86 -55 -4 -54 -3 -151 55 c-82 30 -168 62 -190 69 l-40 15 10 -10 c6
-5 96 -41 200 -80 l190 -69 12 10 12 9 28 -15 28 -15 -13 -1 -12 0 12 -19 12
-20 -18 -20 -18 -20 -16 6 c-10 3 -25 13 -34 21 l-18 15 10 12 10 12 -7 6 c-3
4 -14 7 -22 7 -9 0 -185 63 -391 139 -319 118 -404 147 -379 128 2 -2 174 -66
382 -143 l379 -139 13 -32 13 -31 32 -7 32 -7 24 23 24 22 0 19 0 18 9 0 c4 0
185 36 402 80 l394 80 35 15 c19 8 109 33 200 55 91 23 182 45 203 51 l37 10
0 8 0 9 -217 -55 -218 -54 -3 -10 c-2 -5 -10 -9 -18 -9 -7 0 -181 -36 -386
-79 -205 -44 -390 -83 -410 -86 l-38 -7 0 14 0 14 408 83 c224 47 416 89 426
94 11 5 110 33 220 63 l201 52 -25 0 c-14 0 -104 -21 -200 -46z"/>
<path d="M55069 58543 c39 -16 816 -232 819 -228 3 3 -1 7 -9 9 -50 18 -798
226 -810 225 l-14 -1 14 -5z"/>
<path d="M85820 58544 c0 -3 28 -59 63 -125 l62 -119 12 0 13 0 -51 93 c-27
50 -57 107 -66 125 -15 28 -33 43 -33 26z"/>
<path d="M51103 58513 l7 -6 7 6 6 7 -13 0 -13 0 6 -7z"/>
<path d="M84488 58387 l-228 -101 0 -13 c0 -17 1 -17 62 12 29 13 134 60 233
104 l180 80 -2 8 c-1 4 -5 8 -10 9 -4 1 -110 -43 -235 -99z"/>
<path d="M48981 58244 c-94 -125 -171 -232 -171 -238 0 -12 -19 -36 179 227
95 126 170 231 168 234 -3 2 -82 -98 -176 -223z"/>
<path d="M63210 58248 c21 -101 62 -299 91 -440 l52 -258 9 0 c12 0 13 -4 -80
449 l-88 425 -11 3 -11 4 38 -183z"/>
<path d="M35335 58364 c-83 -33 -345 -167 -345 -177 0 -4 60 23 133 62 72 38
168 84 212 101 44 18 82 34 84 36 11 10 -29 0 -84 -22z"/>
<path d="M55905 58353 c6 -6 107 -35 225 -66 118 -31 266 -72 328 -91 l112
-34 0 7 c0 8 -220 74 -460 136 -96 26 -184 49 -195 52 l-20 5 10 -9z"/>
<path d="M49355 58198 c-44 -55 -90 -113 -103 -129 l-23 -29 10 0 10 0 101
124 100 125 -8 4 -7 5 -80 -100z"/>
<path d="M56287 58223 c-2 -4 -21 -78 -42 -165 l-37 -156 -17 -16 -18 -16
-199 -25 c-109 -14 -215 -28 -234 -31 l-35 -7 10 -3 c6 -2 113 9 239 25 l229
29 18 19 18 18 40 165 c36 150 42 187 28 163z"/>
<path d="M63015 58009 c-543 -113 -631 -132 -640 -140 l-9 -9 11 0 c6 0 116
23 244 50 129 28 319 69 424 91 104 22 191 42 194 44 9 10 -40 2 -224 -36z"/>
<path d="M63363 57928 c4 -13 87 -416 187 -897 l181 -874 -13 -9 c-7 -4 -16
-8 -20 -8 -5 0 -8 -4 -8 -8 l0 -9 29 0 30 0 17 -14 c9 -8 24 -30 32 -49 l16
-35 4 18 4 19 -13 30 -12 30 -21 8 -21 8 -179 863 c-98 475 -183 883 -188 907
l-10 42 -10 0 -10 0 5 -22z"/>
<path d="M35762 57879 l-64 -8 -81 -27 -82 -27 -115 -62 c-63 -34 -168 -90
-233 -124 -65 -35 -116 -65 -114 -67 3 -3 107 50 233 117 l229 122 83 28 83
28 117 12 117 12 63 -10 62 -10 0 7 c0 20 -173 25 -298 9z"/>
<path d="M62131 57782 c-117 -25 -209 -48 -203 -50 16 -5 424 79 437 90 l9 8
-14 -1 c-8 -1 -111 -22 -229 -47z"/>
<path d="M35318 57656 c-125 -66 -224 -122 -219 -124 8 -3 439 223 456 239 l9
9 -9 -1 c-6 -1 -112 -56 -237 -123z"/>
<path d="M53893 57739 c14 -41 190 -409 194 -406 4 5 -184 408 -194 416 l-6 6
6 -16z"/>
<path d="M36570 57671 c24 -14 459 -191 467 -191 5 0 0 5 -9 10 -29 17 -450
190 -462 190 l-11 -1 15 -8z"/>
<path d="M46520 57672 c0 -12 67 -72 80 -72 17 0 12 6 -35 44 l-45 37 0 -9z"/>
<path d="M81160 57640 l-195 -27 -105 -27 c-58 -15 -127 -36 -155 -47 -97 -40
-271 -133 -360 -192 l-90 -60 -103 -95 -103 -95 -126 -141 c-70 -77 -167 -183
-217 -234 l-91 -94 -78 -60 -78 -59 -65 -31 -65 -31 10 -10 10 -10 63 27 62
27 66 49 65 49 86 88 c47 48 146 156 220 238 l133 150 116 105 115 106 80 55
c98 68 206 127 324 178 l89 39 129 30 128 31 170 21 c94 12 172 24 174 26 3 2
0 8 -5 13 l-9 8 -195 -27z"/>
<path d="M16975 57610 l-6 -9 72 -103 c39 -56 96 -133 127 -172 l56 -70 3 11
4 12 -69 88 c-38 48 -94 125 -125 171 l-56 82 -6 -10z"/>
<path d="M46568 57563 l13 -5 6 6 6 6 -19 -1 -19 -1 13 -5z"/>
<path d="M37995 57530 c10 -11 23 -20 28 -20 l10 0 -18 20 c-10 11 -23 20 -28
20 l-10 0 18 -20z"/>
<path d="M35426 57201 c43 -42 350 -291 358 -291 l11 0 -35 29 c-19 15 -100
83 -180 150 -80 66 -149 121 -154 121 l-10 0 10 -9z"/>
<path d="M47985 57015 c-5 -2 -88 -13 -182 -26 l-173 -22 0 -7 0 -6 203 28
202 29 23 -4 22 -4 0 8 0 9 -42 -1 c-24 0 -47 -2 -53 -4z"/>
<path d="M54351 56654 l1 -19 5 13 5 13 -6 6 -6 6 1 -19z"/>
<path d="M54434 56632 c4 -7 14 -12 23 -12 l17 0 23 -22 23 -21 7 7 7 7 -20
19 -19 20 -34 6 -34 7 7 -11z"/>
<path d="M26470 56437 c0 -8 327 -177 342 -177 7 0 -61 39 -151 86 -174 91
-191 99 -191 91z"/>
<path d="M37821 56283 l-22 -88 -18 -142 -17 -143 6 0 7 0 17 138 17 137 23
93 24 92 -7 0 c-4 0 -17 -39 -30 -87z"/>
<path d="M29486 56272 l-6 -9 215 -43 215 -43 7 7 c3 3 4 8 2 9 -2 2 -89 21
-194 41 -104 21 -200 40 -211 43 l-22 5 -6 -10z"/>
<path d="M16815 56260 c-11 -5 -107 -29 -212 -55 l-193 -47 0 -8 0 -8 188 48
c163 41 278 78 247 78 -5 1 -19 -3 -30 -8z"/>
<path d="M64430 56254 c0 -5 9 -15 20 -22 l20 -12 0 -34 0 -33 -18 -16 -19
-17 -29 0 -30 0 -12 12 -12 12 -6 -6 -6 -6 24 -16 25 -16 31 6 31 6 21 23 22
24 -8 37 -9 37 -23 15 -22 14 0 -8z"/>
<path d="M48015 56217 c11 -8 83 -46 160 -87 77 -40 168 -88 203 -107 l62 -35
0 9 c0 8 -420 233 -436 233 -5 0 0 -6 11 -13z"/>
<path d="M26800 56215 c0 -3 138 -74 308 -159 l307 -154 55 -48 c30 -26 64
-55 74 -63 l19 -16 -4 11 c-2 6 -33 37 -69 68 l-65 57 -307 155 c-170 85 -310
154 -313 154 -3 0 -5 -2 -5 -5z"/>
<path d="M37250 56132 l0 -11 -37 -7 c-44 -8 -283 -101 -298 -115 l-10 -10 25
9 c14 6 78 31 143 56 l119 46 25 0 25 0 -6 -27 c-7 -31 -76 -566 -76 -585 0
-6 2 -9 5 -6 3 2 23 144 46 314 l41 309 11 7 12 7 -13 13 -12 12 0 -12z"/>
<path d="M63659 56129 l-17 -9 -6 -26 -7 -26 -13 5 -13 5 -277 -58 c-261 -55
-296 -64 -285 -74 2 -3 130 22 284 54 154 33 289 60 300 60 l20 0 19 35 c21
39 19 48 -5 34z"/>
<path d="M63560 55970 c-47 -11 -429 -89 -850 -175 -421 -86 -767 -159 -769
-161 -2 -2 -2 -7 1 -10 l6 -6 199 41 c109 22 493 101 854 175 l657 135 21 -6
21 -5 0 10 c0 11 -24 23 -43 21 -7 -1 -50 -9 -97 -19z"/>
<path d="M35957 55924 c-4 -4 -7 -17 -7 -28 l0 -21 20 -25 19 -25 7 7 7 8 -13
15 c-7 8 -15 29 -19 46 l-6 31 -8 -8z"/>
<path d="M63062 55910 l0 -25 5 13 c2 6 2 18 0 25 l-5 12 0 -25z"/>
<path d="M63017 55900 c4 -17 23 -29 23 -16 0 12 -13 36 -20 36 l-8 0 5 -20z"/>
<path d="M37700 55718 l-22 -193 -21 -22 -20 -23 11 0 c6 0 18 10 26 23 l15
22 23 193 24 192 -7 0 -6 0 -23 -192z"/>
<path d="M89777 55828 l-78 -70 -145 -292 c-81 -160 -157 -310 -171 -333 l-25
-43 4 -12 4 -12 39 70 c22 38 97 185 167 326 l127 257 86 85 86 84 -8 5 -9 6
-77 -71z"/>
<path d="M35870 55831 l0 -8 28 -7 c15 -3 75 -21 134 -40 l108 -34 5 8 6 9
-129 40 c-136 43 -152 46 -152 32z"/>
<path d="M50195 55750 l6 -55 39 -82 39 -83 54 -68 54 -68 69 -60 c72 -63 144
-115 179 -128 11 -5 38 -9 60 -11 l40 -3 55 -25 55 -25 63 -47 c75 -57 92 -54
26 4 l-47 41 -65 31 -65 31 -53 8 c-60 10 -79 19 -149 68 -75 53 -154 129
-211 202 l-51 65 -35 70 -36 70 -7 45 c-4 25 -11 52 -17 60 l-9 15 6 -55z"/>
<path d="M25990 55662 c0 -9 361 -272 471 -343 33 -22 66 -39 73 -39 7 0 25
-12 40 -26 l26 -27 0 15 0 15 -18 16 c-10 10 -25 17 -33 17 l-15 0 -100 68
c-54 37 -171 120 -259 183 -88 63 -166 119 -172 123 l-13 7 0 -9z"/>
<path d="M61598 55653 l13 -5 6 6 6 6 -19 -1 -19 -1 13 -5z"/>
<path d="M25964 55628 l-7 -11 11 7 c12 7 16 16 8 16 -3 0 -8 -5 -12 -12z"/>
<path d="M87409 55635 c-4 -4 194 -410 207 -424 2 -2 7 -1 11 3 l7 7 -103 202
c-108 210 -114 221 -122 212z"/>
<path d="M50360 55484 c0 -26 218 -212 298 -253 l24 -13 6 6 5 6 -10 0 c-18 0
-186 131 -255 199 l-68 65 0 -10z"/>
<path d="M37196 55451 l9 -8 193 -16 194 -17 36 20 c43 22 36 26 -11 7 l-32
-14 -150 13 c-82 7 -172 15 -199 18 l-49 5 9 -8z"/>
<path d="M52770 55452 c0 -4 44 -27 98 -52 53 -24 148 -68 210 -98 l113 -54
-5 -13 -5 -14 26 -140 27 -141 7 0 7 0 -14 73 c-8 39 -20 102 -26 139 l-12 67
7 7 7 7 157 -73 c87 -40 191 -90 231 -112 l72 -39 0 9 0 9 -132 66 c-186 92
-506 245 -695 333 -40 18 -73 30 -73 26z"/>
<path d="M49365 55411 c-6 -5 -365 -183 -799 -396 l-790 -386 -10 5 -11 4 -39
101 -39 101 6 45 7 45 -10 0 -10 0 0 -55 0 -55 40 -97 41 -97 -5 -13 -5 -13 8
0 9 0 32 -92 c40 -118 54 -144 101 -193 l37 -40 48 -105 c55 -120 52 -115 60
-107 l6 5 -48 104 -48 103 -37 40 c-20 22 -46 58 -57 80 -21 42 -84 217 -80
220 2 1 361 176 798 389 437 214 802 394 810 402 l14 14 -10 0 c-5 0 -14 -4
-19 -9z"/>
<path d="M50918 55254 l-37 -34 -41 -6 -40 -7 0 -8 c0 -11 -2 -12 56 6 l50 15
29 30 c40 42 28 45 -17 4z"/>
<path d="M26510 55170 l0 -10 15 0 c8 0 15 2 15 4 0 2 -7 6 -15 10 l-15 5 0
-9z"/>
<path d="M50985 55013 l6 -32 -15 -29 c-8 -16 -31 -43 -51 -61 l-37 -32 -29
-6 -29 -5 5 -9 6 -8 40 14 40 14 4 -14 c3 -8 7 -21 9 -29 l4 -13 382 -303
c210 -166 384 -309 387 -316 l5 -14 13 0 14 0 3 14 c2 8 57 84 123 167 l120
153 147 225 c81 124 145 228 142 230 -5 6 10 28 -154 -224 l-143 -220 -119
-152 c-66 -84 -124 -155 -129 -159 l-9 -5 -379 300 c-208 166 -383 306 -388
313 -6 7 -13 25 -16 39 l-7 26 21 19 c12 10 30 36 40 57 l20 37 -16 28 -16 27
6 -32z"/>
<path d="M51150 55033 l-35 -4 -10 -11 -10 -11 20 8 20 8 185 7 185 7 -160 0
c-88 0 -176 -2 -195 -4z"/>
<path d="M45680 55003 c0 -4 23 -29 51 -55 l52 -47 -6 -53 c-3 -29 -9 -89 -13
-133 l-6 -80 9 10 10 10 11 118 11 117 -6 17 c-6 16 -55 63 -95 91 l-18 13 0
-8z"/>
<path d="M51150 54993 l-35 -4 -10 -11 -10 -11 20 8 20 8 185 7 185 7 -160 0
c-88 0 -176 -2 -195 -4z"/>
<path d="M52300 54963 c1 -11 671 -456 677 -449 4 3 -588 404 -664 450 l-13 7
0 -8z"/>
<path d="M50458 54888 l-68 -31 0 -8 0 -9 73 36 c39 20 74 38 76 40 12 11 -21
0 -81 -28z"/>
<path d="M47637 54903 c-4 -3 -7 -26 -7 -50 l0 -43 46 -115 c26 -64 49 -114
51 -111 3 3 -16 58 -42 123 l-47 117 7 43 c6 43 5 49 -8 36z"/>
<path d="M52221 54698 c-73 -110 -130 -202 -128 -204 2 -2 61 81 130 186 70
104 131 190 136 190 9 0 615 -411 635 -430 l9 -9 -230 -353 c-236 -360 -272
-422 -304 -517 -23 -65 -23 -67 -5 -52 l14 12 6 34 7 35 46 87 46 88 210 315
c115 173 215 321 221 327 l12 13 239 -155 c132 -85 244 -155 248 -155 l8 0 -5
9 c-3 5 -112 77 -241 161 -129 84 -235 156 -235 161 l0 9 -16 0 -17 0 -146 99
c-253 171 -486 330 -497 339 l-10 9 -133 -199z"/>
<path d="M50325 54879 l-7 -10 -15 5 -14 6 3 -18 3 -17 371 -270 371 -270 319
-280 c175 -154 376 -326 446 -382 l127 -103 92 -102 c50 -57 106 -127 125
-155 l34 -53 10 0 c5 0 10 2 10 5 0 15 -80 122 -163 215 l-92 106 -125 99
c-68 55 -271 228 -450 385 l-325 285 -330 239 c-181 132 -345 253 -363 270
l-33 31 33 12 33 11 -27 1 -27 1 -6 -11z"/>
<path d="M48051 54725 c6 -14 75 -149 171 -333 44 -84 82 -151 85 -149 5 5
-234 467 -249 482 l-10 10 3 -10z"/>
<path d="M50289 54567 l-56 -62 -7 -23 -7 -22 47 -65 47 -64 120 -103 120
-103 81 -52 c44 -29 104 -65 131 -81 28 -16 58 -39 69 -51 l19 -21 8 6 9 5
-38 32 c-21 18 -82 57 -135 87 l-97 55 -137 117 -137 117 -47 63 -47 62 10 21
c6 11 36 48 66 83 30 34 51 62 46 62 -5 -1 -34 -29 -65 -63z"/>
<path d="M50190 54573 c0 -12 38 -48 45 -41 3 2 -6 15 -20 28 l-25 23 0 -10z"/>
<path d="M51120 54572 c0 -17 259 -222 281 -222 l12 0 -89 67 c-49 36 -115 89
-146 116 l-58 49 0 -10z"/>
<path d="M53032 54478 l5 -13 249 -161 249 -162 8 5 c5 3 7 6 5 8 -3 2 -300
195 -452 292 l-68 44 4 -13z"/>
<path d="M48711 54425 c-1 -6 33 -80 74 -164 42 -85 73 -156 70 -159 -2 -3 2
-10 9 -16 8 -6 87 -162 177 -346 90 -184 190 -382 223 -440 68 -119 65 -115
70 -109 3 2 -22 52 -56 109 -33 58 -136 260 -229 450 l-169 344 8 7 c4 4 108
59 232 123 124 64 219 116 212 116 -7 0 -113 -52 -235 -115 l-222 -114 -82
162 c-45 89 -82 157 -82 152z"/>
<path d="M80816 54164 c35 -137 76 -295 90 -352 15 -56 29 -101 31 -98 6 6
-167 678 -178 690 -4 5 21 -103 57 -240z"/>
<path d="M88020 54377 l-34 -22 -9 -32 -9 -32 6 -36 7 -36 8 6 9 5 -5 44 -5
44 25 26 26 26 38 0 38 0 25 -20 25 -19 0 -44 0 -45 -17 -19 c-20 -22 -23 -33
-8 -33 6 0 19 15 30 33 l20 32 0 27 c0 58 -37 100 -101 112 l-36 6 -33 -23z"/>
<path d="M51356 54273 c-53 -59 -96 -112 -96 -118 l1 -10 56 60 c30 33 76 84
101 113 l45 52 -6 6 -5 5 -96 -108z"/>
<path d="M50797 54363 l-5 -8 205 -168 c113 -93 212 -171 219 -174 l14 -5 -1
8 c0 8 -326 279 -404 337 l-23 18 -5 -8z"/>
<path d="M84665 54267 c-88 -40 -189 -88 -224 -106 l-63 -32 6 -6 5 -6 68 36
c37 19 136 65 218 102 83 36 154 70 160 76 l9 9 -9 -1 c-6 0 -82 -33 -170 -72z"/>
<path d="M51440 54323 c0 -5 47 -46 105 -92 58 -45 105 -85 105 -90 0 -4 -34
-47 -75 -96 -41 -49 -75 -93 -75 -98 0 -4 32 29 71 75 39 46 77 89 84 97 l13
13 99 -80 98 -80 25 -7 25 -8 100 -91 c55 -50 137 -117 181 -149 l82 -57 30
-47 c17 -27 57 -108 89 -180 l58 -133 8 0 8 0 -4 8 c-3 4 -33 70 -67 147 -34
77 -73 157 -87 178 l-26 38 -81 57 c-45 31 -126 98 -181 148 l-100 91 -27 9
-27 9 -95 78 -96 78 11 20 10 20 -19 -12 -20 -12 -93 73 c-52 41 -102 80 -111
88 l-18 15 0 -10z"/>
<path d="M13727 54228 c-188 -271 -228 -331 -223 -335 2 -2 62 80 133 184 154
223 167 243 160 243 -3 0 -35 -42 -70 -92z"/>
<path d="M50290 54306 c0 -2 59 -55 130 -117 l130 -113 -7 -6 c-5 -4 -132 -62
-283 -129 l-275 -122 -140 -74 c-77 -41 -135 -75 -128 -75 7 0 86 38 175 84
131 68 447 214 656 303 l33 14 -33 27 c-18 14 -78 65 -133 112 -100 86 -125
105 -125 96z"/>
<path d="M33703 54185 l-43 -52 0 -14 1 -14 30 35 c17 19 39 47 50 62 l19 27
-7 4 -8 5 -42 -53z"/>
<path d="M32790 54204 c1 -5 34 -35 75 -67 l75 -57 0 -30 0 -29 -42 -39 c-24
-22 -59 -53 -78 -70 -19 -17 -33 -33 -30 -35 3 -3 40 26 83 65 l77 70 0 38 0
38 -67 53 c-38 28 -74 56 -80 62 l-13 9 0 -8z"/>
<path d="M48320 54206 c0 -13 185 -366 192 -366 7 0 -168 347 -183 365 l-9 9
0 -8z"/>
<path d="M32760 54176 c0 -2 32 -30 70 -61 l70 -57 0 -13 0 -13 -71 -61 c-88
-76 -77 -81 14 -5 l67 56 0 22 0 22 -69 57 c-64 52 -81 64 -81 53z"/>
<path d="M51196 54111 l-17 -19 9 -6 9 -6 17 19 17 19 -9 6 -9 6 -17 -19z"/>
<path d="M51825 54098 c22 -17 67 -60 100 -93 117 -120 369 -324 384 -310 5 6
12 1 -74 61 -75 52 -305 251 -305 264 0 10 -122 110 -135 110 -5 0 8 -14 30
-32z"/>
<path d="M54952 54098 c-6 -18 -32 -103 -57 -188 -25 -85 -50 -166 -55 -180
-5 -14 -14 -37 -19 -52 l-10 -26 -36 34 c-20 19 -41 34 -47 34 -6 0 -9 -1 -7
-3 2 -2 25 -23 51 -46 l46 -42 36 108 c54 167 118 385 113 390 -3 2 -10 -11
-15 -29z"/>
<path d="M33639 54040 l-26 -29 13 -5 12 -5 15 17 c7 9 17 25 20 35 l6 17 -7
0 c-4 -1 -19 -14 -33 -30z"/>
<path d="M52580 53952 c-41 -64 -108 -161 -147 -214 -40 -54 -69 -98 -65 -98
11 0 148 187 226 309 57 91 73 121 64 121 -2 0 -37 -53 -78 -118z"/>
<path d="M50680 54004 c0 -6 12 -32 26 -58 l26 -46 21 -12 22 -11 -21 24 c-12
13 -33 44 -47 69 -15 25 -27 40 -27 34z"/>
<path d="M21210 53980 c0 -3 57 -17 128 -30 l127 -24 88 -37 87 -38 0 8 c0 4
-35 22 -77 40 l-78 33 -137 27 -138 28 0 -7z"/>
<path d="M31245 53919 l-7 -41 -85 -200 -84 -199 3 -11 4 -11 88 209 89 209 5
43 c6 54 -4 55 -13 1z"/>
<path d="M51450 53895 c-7 -9 -11 -17 -9 -20 3 -2 10 5 17 15 14 24 10 26 -8
5z"/>
<path d="M50900 53892 c0 -13 23 -32 38 -32 l13 0 -6 10 c-3 5 -15 15 -26 20
l-19 11 0 -9z"/>
<path d="M51410 53861 c0 -5 96 -88 213 -184 116 -96 228 -192 248 -213 56
-60 179 -214 207 -259 l25 -40 5 13 4 13 -27 41 c-15 22 -58 79 -97 126 l-70
86 33 10 34 9 -17 4 -17 4 -19 -10 -19 -10 -29 31 c-27 29 -435 366 -461 382
l-13 7 0 -10z"/>
<path d="M50820 53835 l12 -15 16 0 16 0 -20 15 c-10 8 -23 15 -28 15 l-8 0
12 -15z"/>
<path d="M50902 53823 l-12 -5 5 -8 6 -9 14 6 c8 3 15 9 15 14 0 10 -8 10 -28
2z"/>
<path d="M50984 53822 c3 -6 68 -61 144 -123 75 -62 196 -164 268 -225 l131
-112 36 -16 c21 -8 37 -17 37 -20 0 -2 -35 -24 -77 -47 -43 -23 -89 -51 -101
-63 -24 -21 -56 -85 -48 -94 3 -2 11 11 19 29 8 19 25 43 38 55 34 30 279 155
369 189 82 30 86 33 78 40 -5 6 -111 -32 -199 -71 l-55 -25 -45 19 -44 20 -81
68 c-133 112 -446 368 -462 378 l-15 9 7 -11z"/>
<path d="M66930 53715 c-85 -18 -182 -38 -215 -45 l-60 -13 12 -4 c11 -4 443
84 452 92 9 10 -39 2 -189 -30z"/>
<path d="M66450 53655 c-85 -18 -181 -38 -213 -45 -32 -6 -56 -14 -53 -17 5
-5 457 85 465 93 11 10 -57 0 -199 -31z"/>
<path d="M80880 53681 c-8 -5 -114 -32 -235 -61 -121 -29 -222 -54 -224 -56
-17 -15 33 -5 239 46 l234 59 6 -9 c3 -4 27 -97 54 -207 27 -109 52 -202 56
-207 5 -4 -16 87 -45 204 l-53 213 5 13 5 14 -13 0 c-8 0 -21 -4 -29 -9z"/>
<path d="M49050 53635 c0 -12 135 -275 186 -362 68 -116 63 -108 69 -102 2 3
-25 54 -61 114 -37 61 -92 165 -124 233 -50 105 -70 138 -70 117z"/>
<path d="M51059 53583 c-42 -27 -113 -66 -157 -88 -45 -21 -82 -43 -82 -47 l0
-8 103 51 c118 59 241 139 214 139 -2 0 -37 -21 -78 -47z"/>
<path d="M49801 53533 c24 -46 47 -83 51 -83 10 0 -60 130 -80 150 l-15 15 44
-82z"/>
<path d="M32365 53528 c-84 -72 -211 -170 -243 -187 -13 -7 -21 -15 -19 -18 9
-9 109 62 230 161 64 53 117 99 117 102 0 12 -21 -3 -85 -58z"/>
<path d="M11296 53492 l-5 -8 139 -139 139 -139 8 7 7 7 -45 48 c-103 110
-224 232 -231 232 -4 0 -9 -4 -12 -8z"/>
<path d="M51140 53355 c-102 -52 -182 -94 -177 -94 10 -1 367 178 367 184 0 7
14 13 -190 -90z"/>
<path d="M53851 53318 c-89 -43 -161 -81 -159 -84 3 -2 83 34 179 80 96 47
167 85 159 84 -8 0 -89 -36 -179 -80z"/>
<path d="M54723 53357 c-6 -12 -56 -175 -113 -362 -56 -187 -109 -352 -116
-367 -8 -15 -24 -34 -36 -42 l-22 -16 -24 0 -23 0 6 -9 5 -10 33 10 32 9 13
17 12 17 0 -40 0 -39 -50 -164 -50 -163 1 -32 2 -31 4 25 c2 14 27 99 55 190
l50 165 0 45 1 45 12 25 c12 25 86 264 170 555 26 88 51 165 56 172 l10 11 -9
6 -9 5 -10 -22z"/>
<path d="M54752 53340 l4 -15 150 -102 149 -102 68 -22 c37 -12 70 -19 73 -16
3 2 -23 13 -58 24 l-63 19 -140 93 c-77 52 -151 103 -164 115 l-24 21 5 -15z"/>
<path d="M52533 53330 c3 -8 60 -131 127 -273 l122 -259 -6 -5 -6 -6 14 -11
c20 -16 196 -349 316 -598 58 -120 108 -218 112 -218 12 0 -225 484 -350 715
l-59 110 195 98 c179 90 246 127 230 127 -3 0 -101 -48 -217 -107 -116 -58
-213 -104 -215 -102 -2 2 -59 121 -126 264 -67 143 -126 265 -132 270 l-11 10
6 -15z"/>
<path d="M52443 53266 l-22 -23 -83 -7 c-45 -4 -84 -9 -87 -11 -12 -13 13 -14
94 -4 l89 10 23 21 c23 21 30 38 16 38 -5 0 -18 -11 -30 -24z"/>
<path d="M52472 53239 l-24 -29 -21 -4 c-12 -3 -57 -8 -100 -11 l-77 -7 4 -7
4 -7 98 8 98 7 28 33 c15 18 28 36 28 41 0 15 -16 5 -38 -24z"/>
<path d="M64578 53231 c-109 -21 -201 -41 -205 -46 l-8 -8 25 6 c14 3 106 20
205 38 l180 32 10 8 9 9 -9 -1 c-6 -1 -99 -18 -207 -38z"/>
<path d="M52136 53224 l-20 -14 7 -7 7 -7 17 17 c9 9 15 19 12 21 -2 2 -13 -2
-23 -10z"/>
<path d="M54710 53231 l0 -9 20 5 20 5 198 -131 c109 -72 204 -131 211 -131
l13 0 -203 135 -204 135 -27 0 -28 0 0 -9z"/>
<path d="M53670 53181 c0 -51 6 -53 12 -5 l4 35 -8 5 -8 5 0 -40z"/>
<path d="M52152 53188 c-7 -7 -12 -16 -12 -20 l0 -9 20 11 c11 6 20 15 20 20
0 14 -14 12 -28 -2z"/>
<path d="M34798 53133 c-6 -42 -4 -48 11 -38 l11 6 0 35 0 34 -9 0 -9 0 -4
-37z"/>
<path d="M34675 53130 l-6 -10 10 0 c6 0 11 5 11 10 0 6 -2 10 -4 10 -3 0 -8
-4 -11 -10z"/>
<path d="M52065 53124 c-11 -8 -123 -69 -248 -136 -125 -66 -226 -123 -223
-125 6 -7 506 260 506 270 0 11 -13 8 -35 -9z"/>
<path d="M51170 53055 c-69 -35 -122 -64 -118 -64 4 -1 62 26 130 59 l123 61
25 -6 25 -6 35 -35 36 -34 19 -55 18 -55 10 0 9 0 -7 18 c-4 9 -14 35 -21 58
l-15 41 -38 37 -38 37 -34 4 -34 5 -125 -65z"/>
<path d="M55211 53079 l-19 -21 -7 -46 -7 -47 -130 -253 -131 -254 -64 -78
c-35 -43 -71 -81 -80 -84 l-16 -7 10 -10 11 -11 20 13 c11 8 47 47 81 88 l61
73 121 241 c67 133 123 244 125 246 2 2 9 -1 16 -6 7 -6 37 -18 66 -28 l53
-17 44 11 44 11 128 -21 c154 -25 264 -50 363 -84 l74 -25 9 9 9 9 -9 5 c-52
29 -322 95 -489 118 l-90 12 -41 -10 -40 -10 -48 18 c-57 22 -65 31 -65 82 l0
37 20 20 c21 21 26 40 10 40 -5 0 -18 -9 -29 -21z"/>
<path d="M30212 53006 l-2 -89 -43 -51 c-24 -28 -54 -69 -67 -91 l-24 -40 -6
-52 -6 -53 8 0 8 0 0 34 0 34 30 56 c16 31 48 78 70 105 l41 48 -4 94 -3 94
-2 -89z"/>
<path d="M49995 53083 c-20 -5 -35 -20 -35 -36 l0 -8 16 15 c8 9 22 16 30 16
l14 0 0 10 c0 6 -1 9 -2 9 -2 -1 -12 -4 -23 -6z"/>
<path d="M50040 53060 l0 -13 7 6 6 7 -6 7 -7 6 0 -13z"/>
<path d="M50308 52941 c-131 -64 -238 -119 -238 -123 0 -6 468 217 479 228 20
19 -37 -5 -241 -105z"/>
<path d="M34690 53021 c0 -6 5 -13 10 -16 l10 -6 0 15 0 16 -10 0 c-5 0 -10
-4 -10 -9z"/>
<path d="M50525 52802 c-170 -82 -305 -154 -305 -163 0 -4 42 15 93 43 50 28
147 76 215 108 67 32 122 61 122 64 0 9 2 10 -125 -52z"/>
<path d="M77735 52775 l-190 -73 5 -9 c6 -10 -5 -14 213 68 l187 72 0 8 c0 16
-21 9 -215 -66z"/>
<path d="M84211 52798 c-1 -9 19 -94 45 -190 62 -239 74 -281 80 -276 3 4
-108 441 -120 473 l-4 10 -1 -17z"/>
<path d="M50715 52688 c36 -62 69 -120 74 -128 l11 -15 -11 30 c-14 40 -121
225 -130 225 -4 0 21 -51 56 -112z"/>
<path d="M50002 52710 c-93 -37 -362 -172 -362 -183 l0 -8 168 85 c92 46 190
92 217 102 28 9 54 21 60 26 l9 8 -9 -1 c-6 0 -43 -13 -83 -29z"/>
<path d="M51260 52731 c0 -6 4 -13 10 -16 l10 -6 -6 15 c-7 18 -14 21 -14 7z"/>
<path d="M12185 52709 l-7 -11 8 -8 c5 -4 76 -56 158 -114 l149 -107 10 10 c6
6 9 12 6 14 -7 6 -251 181 -286 205 l-32 22 -6 -11z"/>
<path d="M52784 52704 l-19 -15 23 11 c12 6 22 13 22 15 0 8 -5 6 -26 -11z"/>
<path d="M85754 52637 c-28 -16 -343 -258 -350 -268 -3 -5 -3 -9 -1 -9 2 0 84
60 181 134 97 74 182 136 189 139 6 2 10 7 7 10 l-5 5 -21 -11z"/>
<path d="M85940 52610 l0 -40 10 0 10 0 0 40 0 40 -10 0 -10 0 0 -40z"/>
<path d="M50878 52583 l13 -5 6 6 6 6 -19 -1 -19 -1 13 -5z"/>
<path d="M49440 52435 c-69 -35 -119 -64 -112 -64 14 -1 252 116 252 124 0 10
-18 2 -140 -60z"/>
<path d="M31006 52351 c-30 -27 -89 -75 -131 -107 l-76 -57 -95 -11 -94 -10 0
-8 0 -8 23 4 c12 3 54 8 92 12 l70 6 20 11 c58 30 275 217 252 217 -4 0 -31
-22 -61 -49z"/>
<path d="M52490 52395 c0 -11 75 -155 137 -262 l65 -113 9 0 c15 0 12 6 -60
128 -38 64 -84 147 -102 185 -18 37 -37 67 -41 67 -4 0 -8 -2 -8 -5z"/>
<path d="M54291 52104 l-31 -26 0 -22 0 -21 -219 -109 -219 -110 5 -13 5 -13
223 112 224 113 0 21 1 21 24 22 23 22 29 3 28 3 4 12 4 11 -35 0 -35 0 -31
-26z"/>
<path d="M52747 52033 c-4 -3 -7 -11 -7 -17 l0 -10 12 12 c6 6 9 14 7 17 -3 3
-9 2 -12 -2z"/>
<path d="M13207 51770 c-94 -129 -96 -133 -84 -140 l7 -5 90 125 c50 68 90
128 90 132 0 24 -25 -4 -103 -112z"/>
<path d="M53587 51567 l-377 -192 0 -12 c0 -7 1 -13 3 -13 6 0 753 383 760
390 l9 8 -9 5 -9 6 -377 -192z"/>
<path d="M90752 51593 c-102 -190 -104 -193 -98 -193 5 0 46 74 131 233 31 59
54 107 52 107 -3 0 -41 -66 -85 -147z"/>
<path d="M82542 51595 c3 -11 29 -120 59 -242 30 -123 57 -223 60 -223 7 0
-109 472 -118 480 l-6 5 5 -20z"/>
<path d="M4122 51572 l-12 -4 28 -36 c16 -21 61 -92 101 -159 40 -67 87 -139
105 -159 l33 -38 6 10 6 10 -26 32 c-14 18 -57 85 -96 150 -38 64 -84 135
-101 158 l-31 41 -13 -5z"/>
<path d="M37500 51561 c0 -12 67 -410 76 -450 3 -13 7 -21 9 -19 5 5 -72 468
-79 476 l-6 5 0 -12z"/>
<path d="M69086 51411 l-200 -87 -4 -12 -3 -11 148 65 c81 36 171 75 198 86
28 12 54 25 59 29 29 26 -19 9 -198 -70z"/>
<path d="M33883 51333 c-7 -2 -13 -9 -13 -14 l0 -10 13 8 c6 4 46 11 87 14
l75 6 -75 1 c-41 0 -81 -2 -87 -5z"/>
<path d="M33445 51258 c3 -18 14 -109 25 -203 11 -93 22 -190 25 -215 14 -109
127 -817 135 -840 l8 -25 1 25 c1 14 -29 210 -65 435 -64 404 -114 759 -114
823 l0 32 -10 0 -11 0 6 -32z"/>
<path d="M33485 51260 c3 -19 16 -120 29 -223 13 -104 27 -191 31 -195 l8 -7
-6 35 c-3 19 -16 118 -28 220 l-22 185 -9 10 -10 10 7 -35z"/>
<path d="M6053 51265 c4 -11 27 -94 52 -185 57 -204 66 -232 71 -227 7 6 -107
410 -119 422 l-9 10 5 -20z"/>
<path d="M32563 51226 l-191 -11 -9 -8 -8 -9 70 6 c39 3 162 11 275 17 113 6
207 13 209 15 7 6 -133 2 -346 -10z"/>
<path d="M45080 51232 c0 -6 5 -14 10 -17 6 -4 17 -21 24 -38 l14 -32 1 25 c1
27 -5 38 -31 59 l-18 13 0 -10z"/>
<path d="M28440 51002 c0 -4 9 -13 20 -20 l20 -12 0 -14 0 -14 14 -5 14 -6 -8
29 c-5 16 -11 34 -15 40 l-6 10 -20 0 -19 0 0 -8z"/>
<path d="M28367 50983 c-4 -3 -7 -23 -7 -43 l0 -38 13 -11 14 -11 6 7 7 6 -11
14 -12 13 6 35 6 35 -8 0 c-4 0 -11 -3 -14 -7z"/>
<path d="M5710 50822 l0 -8 227 -27 c209 -24 245 -26 231 -12 -5 6 -397 55
-435 55 l-23 0 0 -8z"/>
<path d="M7050 50770 l-185 -29 -75 0 -75 -1 -38 9 -38 9 4 -11 c6 -18 44 -25
138 -26 l86 -1 214 31 214 31 133 -4 132 -5 0 7 c0 13 -73 20 -200 19 l-125
-1 -185 -28z"/>
<path d="M50247 50743 c-50 -45 -44 -51 8 -8 22 19 37 36 35 39 -3 2 -22 -11
-43 -31z"/>
<path d="M32403 50745 c4 -16 18 -106 32 -200 29 -192 34 -219 40 -213 7 6
-61 427 -70 436 l-7 7 5 -30z"/>
<path d="M7300 50744 c-19 -2 -72 -9 -117 -15 l-83 -11 0 -10 0 -11 38 7 c20
4 93 11 162 16 l125 10 68 -6 67 -7 0 10 0 10 -61 7 c-61 6 -130 6 -199 0z"/>
<path d="M83410 50614 c-91 -69 -171 -131 -178 -138 l-14 -14 9 -5 9 -5 174
134 c96 74 177 139 178 144 l4 10 -9 0 c-4 -1 -82 -57 -173 -126z"/>
<path d="M50153 50608 l34 -43 107 -225 108 -225 -5 -39 -6 -40 10 15 c5 7 9
29 9 47 l0 33 -106 222 -106 221 -32 38 c-43 52 -55 48 -13 -4z"/>
<path d="M82796 50538 c28 -132 73 -310 79 -317 10 -9 4 25 -14 93 -11 39 -32
131 -47 204 l-27 132 -7 0 -7 0 23 -112z"/>
<path d="M59481 50515 l-23 -106 7 -42 c7 -42 20 -67 36 -67 l9 0 -10 26 c-6
14 -10 44 -10 67 l1 42 19 85 c23 102 23 100 7 100 l-14 0 -22 -105z"/>
<path d="M8942 50510 l4 -14 110 -36 c60 -21 151 -57 202 -82 l93 -44 5 7 4 8
-12 8 c-43 26 -168 80 -263 113 -60 21 -118 42 -129 46 l-19 7 5 -13z"/>
<path d="M31493 50471 l-121 -6 -7 -7 -7 -6 155 5 156 6 5 -34 c3 -19 12 -149
21 -289 9 -140 18 -256 20 -259 8 -7 5 66 -13 339 l-17 255 -35 1 c-19 0 -90
-2 -157 -5z"/>
<path d="M42677 50453 c-4 -3 -7 -16 -7 -27 0 -11 -20 -101 -45 -199 l-46
-178 13 -82 13 -82 3 25 c1 14 -1 50 -6 80 l-8 55 42 170 c39 158 57 245 50
245 -1 0 -6 -3 -9 -7z"/>
<path d="M33610 50387 c0 -20 61 -392 65 -396 3 -2 5 2 5 10 -1 30 -59 381
-64 387 l-6 5 0 -6z"/>
<path d="M9397 50372 l-6 -9 164 -149 c90 -82 170 -151 176 -153 l12 -3 -4 9
c-2 6 -65 66 -139 133 -74 68 -149 136 -166 152 l-32 30 -5 -10z"/>
<path d="M59315 50320 l-6 -10 6 -10 6 -9 24 9 25 10 32 -7 c18 -3 45 -14 60
-24 l26 -19 19 0 18 1 -39 34 -39 35 -63 0 -63 0 -6 -10z"/>
<path d="M34260 50276 c0 -2 9 -23 19 -47 l19 -44 7 -53 7 -53 37 -47 c21 -26
45 -53 55 -61 l17 -14 10 10 11 11 -20 11 c-24 13 -95 108 -97 130 -6 65 -39
161 -57 161 -4 0 -8 -2 -8 -4z"/>
<path d="M59205 50180 l-6 -10 10 0 c6 0 11 5 11 10 0 6 -2 10 -4 10 -3 0 -8
-4 -11 -10z"/>
<path d="M86915 49919 l-160 -121 -27 -10 -28 -10 0 -10 0 -10 26 6 25 7 167
125 c92 69 169 129 170 135 l4 9 -9 0 c-4 0 -80 -55 -168 -121z"/>
<path d="M15220 49956 c63 -24 155 -62 203 -85 49 -22 94 -41 100 -41 19 0
-188 94 -293 134 -52 20 -102 36 -110 36 -8 -1 37 -20 100 -44z"/>
<path d="M34190 49980 l0 -10 50 0 50 0 0 10 0 10 -50 0 -50 0 0 -10z"/>
<path d="M34280 49933 l0 -10 38 -7 c20 -3 49 -6 65 -6 l27 0 0 10 0 10 -34 0
c-18 0 -48 3 -65 6 l-31 7 0 -10z"/>
<path d="M34416 49901 l-28 -19 -18 -30 -19 -31 9 -6 10 -6 0 10 c0 6 18 29
41 52 45 45 48 58 5 30z"/>
<path d="M69441 49653 c-7 -104 -14 -198 -17 -210 l-4 -23 10 0 10 0 1 43 c0
23 6 117 12 210 l12 167 -6 0 -6 0 -12 -187z"/>
<path d="M22870 49770 c58 -4 157 -7 220 -7 l115 0 -105 7 c-58 4 -157 7 -220
7 l-115 0 105 -7z"/>
<path d="M30507 49545 c3 -99 9 -211 13 -250 l8 -70 -5 215 -5 215 -8 35 -8
35 5 -180z"/>
<path d="M43500 49625 c-1 -16 173 -365 181 -365 8 0 -157 348 -172 365 l-9 9
0 -9z"/>
<path d="M38156 49549 c-3 -8 -23 -86 -45 -175 -22 -89 -43 -168 -47 -177 l-6
-17 10 0 10 0 46 186 c26 103 44 189 42 192 -3 3 -8 -1 -10 -9z"/>
<path d="M36030 49444 c0 -5 12 -85 26 -179 l27 -170 9 -10 9 -10 -5 25 c-3
14 -17 97 -31 184 -22 137 -35 196 -35 160z"/>
<path d="M35991 49429 c-1 -23 117 -721 124 -727 3 -3 5 -1 5 3 0 14 -120 719
-125 730 l-3 10 -1 -16z"/>
<path d="M12236 49198 c-3 -13 -6 -58 -6 -100 l0 -77 10 -53 11 -53 31 -67
c18 -38 35 -68 40 -68 12 0 10 6 -21 68 l-29 57 -12 71 -13 71 5 86 4 87 -7 0
c-3 0 -9 -10 -13 -22z"/>
<path d="M64320 49051 c-13 -26 -13 -53 3 -74 l12 -17 0 55 c0 30 -1 55 -2 55
-1 0 -7 -9 -13 -19z"/>
<path d="M80895 49020 l-6 -9 59 -30 c32 -16 64 -36 71 -45 8 -9 20 -16 28
-16 l14 0 -11 20 -11 20 -69 35 -69 35 -6 -10z"/>
<path d="M64720 49011 c0 -5 30 -26 66 -46 l66 -36 112 -29 c61 -15 126 -30
145 -32 l34 -3 4 10 3 11 -72 13 c-40 7 -108 24 -152 37 l-79 24 -53 30 c-56
31 -74 36 -74 21z"/>
<path d="M81180 48949 l-55 -20 -29 5 -28 6 12 -15 12 -15 16 0 c9 0 46 10 84
22 l68 22 0 8 c0 12 -19 9 -80 -13z"/>
<path d="M81288 48915 c2 -14 8 -25 12 -25 l7 0 -5 25 c-2 14 -8 25 -12 25
l-7 0 5 -25z"/>
<path d="M11562 48898 c53 -49 176 -217 327 -448 l134 -205 26 -19 26 -19 -21
24 c-12 13 -81 116 -155 229 -73 113 -175 259 -225 325 l-92 120 -21 13 c-36
21 -36 13 1 -20z"/>
<path d="M91417 48678 c-81 -94 -147 -176 -147 -182 l0 -10 8 10 c5 5 64 74
132 154 68 80 132 155 143 167 11 13 18 25 15 28 -2 3 -70 -73 -151 -167z"/>
<path d="M76000 48800 l-14 -9 5 -6 6 -5 17 6 c9 3 16 10 16 15 0 11 -11 11
-30 -1z"/>
<path d="M34485 48630 l-6 -10 13 0 c7 0 20 5 28 10 l15 10 -22 0 -22 0 -6
-10z"/>
<path d="M34822 48615 l-223 -13 -7 -7 -7 -8 90 6 c50 4 156 9 238 13 l147 7
0 8 c0 5 -3 8 -7 8 -5 -1 -108 -7 -231 -14z"/>
<path d="M14533 48574 c4 -4 58 -20 120 -36 l112 -28 75 -6 75 -6 33 8 33 9
-98 1 -98 1 -110 27 c-60 15 -119 29 -130 33 l-20 5 8 -8z"/>
<path d="M50725 48390 l-6 -10 7 -12 c4 -7 57 -93 117 -191 l110 -178 11 4 11
5 -3 11 c-3 13 -232 381 -237 381 -2 0 -7 -4 -10 -10z"/>
<path d="M36893 48096 l-161 -11 -9 -8 -8 -9 60 6 c33 3 137 11 230 17 94 6
172 13 174 15 7 6 -107 2 -286 -10z"/>
<path d="M29385 47975 c3 -49 8 -143 11 -207 l6 -118 7 0 6 0 -8 167 c-4 93
-12 186 -17 208 l-9 40 4 -90z"/>
<path d="M74980 48057 c0 -11 169 -350 169 -341 1 13 -157 344 -164 344 -3 0
-5 -2 -5 -3z"/>
<path d="M48210 47945 l-13 -15 17 6 c9 3 16 10 16 15 0 13 -6 11 -20 -6z"/>
<path d="M53575 47777 c-21 -12 -40 -27 -42 -32 l-3 -10 87 -175 88 -174 11
-3 12 -4 -89 178 -88 178 18 15 c10 8 27 20 37 26 l19 12 -5 5 -6 6 -39 -22z"/>
<path d="M90245 47389 l-350 -400 -52 -92 -52 -91 -26 -14 c-34 -17 -26 -27 9
-11 l27 13 55 97 55 98 337 383 c185 211 343 392 351 401 l13 17 -8 0 c-5 -1
-166 -181 -359 -401z"/>
<path d="M53603 47745 l-22 -15 45 -96 c50 -109 123 -238 131 -231 2 3 -11 31
-29 63 -18 33 -54 104 -80 159 l-48 100 20 9 c11 5 20 13 20 18 0 12 -13 10
-37 -7z"/>
<path d="M74986 47679 c-312 -43 -571 -80 -574 -83 l-5 -6 6 -7 7 -6 585 79
585 79 0 12 0 13 -17 -1 c-10 -1 -274 -37 -587 -80z"/>
<path d="M29447 47510 c3 -80 9 -181 13 -225 l9 -80 -6 180 c-3 99 -9 200 -13
225 l-8 45 5 -145z"/>
<path d="M74831 47610 c0 -8 4 -24 9 -35 l9 -20 0 20 c0 11 -4 27 -9 35 l-10
15 1 -15z"/>
<path d="M47349 47358 l-5 -37 34 -108 c101 -325 134 -424 138 -420 2 2 -30
114 -72 248 l-77 244 -6 55 -7 55 -5 -37z"/>
<path d="M35861 47295 c-2 -51 30 -659 35 -664 2 -2 5 -2 7 0 4 5 -30 638 -36
678 l-4 26 -2 -40z"/>
<path d="M46445 47247 c-16 -34 -32 -66 -34 -71 l-4 -9 10 6 c14 9 66 115 61
126 l-3 10 -30 -62z"/>
<path d="M30666 47130 c5 -161 50 -709 58 -718 l6 -5 0 19 c0 10 -11 152 -25
314 -13 162 -28 349 -34 415 l-10 120 5 -145z"/>
<path d="M18370 47197 c0 -12 179 -365 188 -371 7 -4 -173 360 -184 373 -2 2
-4 1 -4 -2z"/>
<path d="M46347 47093 l-6 -28 15 -22 14 -23 28 1 27 1 -20 5 c-11 3 -26 10
-33 16 l-14 11 4 33 4 33 -7 0 c-4 0 -9 -12 -12 -27z"/>
<path d="M89983 47028 l-49 -53 -58 -103 -59 -103 -28 -15 -28 -14 -108 -11
c-60 -7 -109 -13 -111 -14 -2 -1 14 -44 34 -94 l36 -91 10 0 10 0 -9 13 c-11
14 -63 143 -63 156 l0 8 93 8 92 7 41 18 42 18 57 103 58 104 37 40 c78 86 81
105 3 23z"/>
<path d="M28280 46985 l0 -55 10 0 10 0 0 55 0 55 -10 0 -10 0 0 -55z"/>
<path d="M22240 46885 l0 -15 68 0 67 -1 158 -38 158 -38 5 9 c3 5 4 11 3 12
-2 2 -82 22 -177 45 l-172 41 -55 0 -55 0 0 -15z"/>
<path d="M20590 46740 c0 -11 -11 -43 -24 -72 l-25 -53 -39 -40 -39 -40 -82
-40 c-45 -22 -78 -41 -73 -43 4 -1 46 15 93 37 l84 39 37 39 37 38 15 37 c9
20 20 55 25 77 l9 41 -9 0 -9 0 0 -20z"/>
<path d="M44890 46609 c-228 -65 -421 -121 -429 -124 l-14 -5 6 -6 5 -5 419
121 c230 66 427 125 438 130 l20 9 -15 -1 c-8 0 -202 -54 -430 -119z"/>
<path d="M37333 46615 l0 -25 8 0 9 0 0 25 0 25 -9 0 -8 0 0 -25z"/>
<path d="M34535 46540 c-71 -4 -161 -8 -198 -9 l-69 -1 5 -12 4 -13 44 2 c24
1 124 4 222 8 l178 7 -4 12 -4 11 -24 1 c-13 1 -82 -2 -154 -6z"/>
<path d="M35770 46519 c-255 -11 -790 -37 -907 -45 l-93 -6 0 -14 c0 -8 3 -14
8 -14 4 0 261 14 572 30 311 16 602 30 648 30 l82 0 0 15 0 15 -57 -2 c-32 0
-146 -5 -253 -9z"/>
<path d="M54586 46314 c-103 -52 -186 -97 -183 -100 5 -6 387 183 387 191 0
10 -20 1 -204 -91z"/>
<path d="M34443 46270 l-2 -115 12 -152 12 -152 9 -8 8 -8 -6 50 c-7 59 -26
331 -29 430 l-3 70 -1 -115z"/>
<path d="M46186 46343 c-11 -34 -75 -348 -85 -418 -6 -38 -14 -81 -17 -95 l-5
-25 9 10 9 10 13 80 c6 44 29 163 51 264 21 102 37 187 35 189 -2 2 -7 -5 -10
-15z"/>
<path d="M49212 46341 c14 -41 165 -351 170 -351 4 0 -18 53 -48 118 -31 64
-69 145 -85 180 -15 34 -31 62 -34 62 -4 0 -5 -4 -3 -9z"/>
<path d="M30768 46283 l-58 -4 0 -11 0 -11 173 6 c94 4 198 7 230 7 l57 0 0
10 0 10 -172 -2 c-95 -1 -199 -3 -230 -5z"/>
<path d="M19880 46256 c0 -12 91 -198 96 -194 6 7 -79 198 -88 198 -5 0 -8 -2
-8 -4z"/>
<path d="M30693 46125 c4 -66 12 -248 18 -405 11 -266 14 -300 22 -289 2 2 -4
183 -14 403 l-18 398 -7 7 -7 6 6 -120z"/>
<path d="M28423 46176 l-162 -12 -7 -7 -7 -7 6 -6 6 -6 168 11 c92 6 201 14
241 17 l72 6 0 9 0 9 -77 -1 c-43 -1 -151 -7 -240 -13z"/>
<path d="M47185 45964 c-258 -85 -487 -157 -507 -160 -21 -4 -38 -10 -38 -14
l0 -7 28 4 c42 8 986 314 997 324 l9 9 -9 -1 c-6 -1 -221 -71 -480 -155z"/>
<path d="M47750 46048 c10 -35 30 -106 45 -158 15 -52 32 -102 37 -110 l9 -15
-4 20 c-14 64 -93 325 -99 325 l-7 0 19 -62z"/>
<path d="M47418 45997 c-137 -45 -248 -84 -248 -88 0 -8 491 150 505 162 l9 9
-9 -1 c-6 -1 -121 -38 -257 -82z"/>
<path d="M93060 46071 c0 -4 16 -15 35 -24 l36 -17 32 0 32 0 53 -25 54 -25
54 0 54 0 74 37 75 37 -4 6 -4 7 -77 -39 -76 -38 -42 0 -41 0 -47 25 -47 25
-38 0 -38 0 -42 20 -43 19 0 -8z"/>
<path d="M50970 46054 c0 -10 181 -348 192 -359 l11 -10 -4 10 c-9 25 -190
365 -194 365 -3 0 -5 -3 -5 -6z"/>
<path d="M81105 46011 l24 -49 27 -21 27 -21 28 0 28 0 46 22 c25 12 45 26 45
30 0 12 -7 10 -50 -12 l-39 -20 -26 0 c-15 0 -35 5 -46 10 l-19 11 -25 49 -25
50 -10 0 -10 0 25 -49z"/>
<path d="M81372 45893 c-5 -10 -17 -47 -27 -83 -9 -36 -25 -81 -35 -101 l-18
-35 -27 -12 -28 -13 6 -6 6 -6 31 13 31 13 15 36 c18 41 65 211 59 211 -3 0
-8 -8 -13 -17z"/>
<path d="M49385 45880 l-6 -10 15 6 c18 7 21 14 7 14 -6 0 -13 -4 -16 -10z"/>
<path d="M90435 45820 l-170 -7 -58 -17 c-32 -10 -56 -20 -54 -23 3 -2 29 3
59 12 l53 16 187 6 187 6 -5 9 c-3 4 -11 7 -17 6 -7 -1 -88 -4 -182 -8z"/>
<path d="M89551 45776 l-54 -23 -148 -114 c-81 -62 -146 -115 -144 -118 5 -4
26 11 188 136 l108 83 52 21 c28 11 56 25 62 30 l9 9 -9 -1 c-6 0 -34 -11 -64
-23z"/>
<path d="M81252 45610 c0 -14 -3 -36 -6 -50 l-7 -25 16 29 17 28 -10 22 -10
21 0 -25z"/>
<path d="M49655 45396 l24 -54 -6 -23 c-3 -13 -13 -32 -21 -42 l-15 -17 -109
-52 -108 -51 0 -9 0 -8 119 59 c65 33 126 67 135 76 l16 16 0 30 0 30 -25 49
c-34 66 -40 64 -10 -4z"/>
<path d="M52621 45233 c12 -37 204 -432 207 -425 3 10 -185 411 -201 427 l-9
10 3 -12z"/>
<path d="M50375 44988 c-4 -13 -16 -32 -26 -43 l-18 -20 -160 -80 c-89 -44
-161 -83 -161 -87 0 -5 75 30 168 76 l167 84 17 18 c16 19 35 74 25 74 -3 0
-9 -10 -12 -22z"/>
<path d="M52354 44893 c13 -27 88 -183 166 -348 79 -165 148 -303 154 -307 6
-4 21 -8 34 -8 l23 0 140 71 c76 39 139 74 139 78 l0 9 -129 -68 c-125 -65
-172 -83 -196 -74 l-12 5 -163 344 c-91 190 -168 345 -172 345 l-8 0 24 -47z"/>
<path d="M16960 44879 l0 -24 20 -25 c28 -37 30 -21 4 29 l-24 44 0 -24z"/>
<path d="M16850 44858 c0 -9 41 -78 46 -78 2 0 4 6 4 14 0 15 -49 78 -50 64z"/>
<path d="M34675 44824 c-27 -13 -54 -25 -60 -27 l-10 -4 7 -8 6 -7 61 27 61
28 0 8 c0 13 -9 10 -65 -17z"/>
<path d="M94457 44488 c-76 -55 -136 -102 -133 -105 4 -4 251 170 281 198 l9
9 -9 0 c-6 -1 -72 -46 -148 -102z"/>
<path d="M88101 44478 c-30 -96 -153 -373 -207 -470 -24 -43 -44 -83 -44 -90
0 -19 104 171 156 287 25 55 66 155 90 223 l43 122 -7 0 c-5 0 -18 -33 -31
-72z"/>
<path d="M26170 44470 l-55 -7 71 -1 71 -2 55 -19 c30 -10 184 -80 342 -155
159 -76 290 -135 292 -133 6 6 -579 285 -645 308 -30 11 -59 18 -65 17 -6 -1
-36 -4 -66 -8z"/>
<path d="M26556 44380 c16 -16 395 -191 406 -188 l10 4 -203 97 c-112 53 -208
97 -214 97 l-9 0 10 -10z"/>
<path d="M27380 43994 c0 -6 391 -194 404 -193 10 0 -105 57 -311 154 -51 24
-93 42 -93 39z"/>
<path d="M87885 43900 c13 -25 207 -333 223 -355 l14 -20 -6 19 c-8 25 -205
337 -224 356 l-15 15 8 -15z"/>
<path d="M87957 43703 c136 -219 122 -197 127 -192 6 6 -222 373 -234 377 -5
2 43 -81 107 -185z"/>
<path d="M34580 43820 l0 -13 7 6 6 7 -6 7 -7 6 0 -13z"/>
<path d="M34561 43736 c-6 -31 -16 -82 -21 -113 -6 -32 -13 -69 -16 -83 l-5
-25 9 10 10 10 21 124 c12 68 20 125 17 128 -2 2 -9 -21 -15 -51z"/>
<path d="M8530 43439 c0 -19 5 -125 12 -236 l11 -203 8 0 8 0 -4 33 c-3 17
-10 122 -16 232 -6 110 -13 202 -15 204 -2 2 -4 -11 -4 -30z"/>
<path d="M32414 43217 c-95 -67 -197 -144 -228 -170 l-56 -49 -83 -101 c-46
-56 -100 -123 -120 -149 l-38 -46 9 -6 8 -5 99 122 c54 67 132 154 172 193
l74 71 174 123 c155 109 194 141 168 139 -5 0 -85 -55 -179 -122z"/>
<path d="M50994 43300 l-241 -38 -344 -97 -344 -97 -10 -10 -10 -11 15 5 c8 3
166 48 350 101 l335 96 270 40 c304 47 316 49 260 49 -22 0 -149 -17 -281 -38z"/>
<path d="M52432 43247 c-7 -8 -86 -49 -177 -92 -91 -43 -165 -82 -165 -86 0
-9 336 153 353 170 l11 11 -6 5 -5 5 -11 -13z"/>
<path d="M47850 43114 c0 -5 7 -47 16 -94 l16 -85 7 -135 8 -135 1 110 2 110
-19 112 c-9 62 -21 116 -24 120 l-7 6 0 -9z"/>
<path d="M52081 43032 c-1 -6 75 -164 168 -350 92 -185 197 -402 232 -481 l63
-145 57 -99 c32 -55 63 -105 70 -111 l11 -11 -17 34 c-9 18 -37 67 -61 108
-24 42 -71 137 -103 212 -65 152 -420 863 -420 843z"/>
<path d="M51525 42955 c-82 -13 -154 -24 -159 -24 -5 -1 -7 -3 -4 -6 5 -5 360
44 367 51 8 8 -57 1 -204 -21z"/>
<path d="M51340 42937 c0 -29 40 -291 51 -331 6 -21 13 -36 15 -33 3 3 1 22
-5 43 -5 22 -19 104 -31 184 -20 132 -30 179 -30 137z"/>
<path d="M69681 42873 c-96 -13 -177 -26 -180 -29 -3 -3 -4 -33 -3 -67 l3 -62
9 -8 8 -9 -5 65 -6 64 10 6 c5 3 84 16 174 28 90 12 166 24 168 25 12 11 -19
8 -178 -13z"/>
<path d="M88600 42755 c0 -4 12 -27 26 -51 l27 -46 -14 -12 c-8 -7 -60 -40
-115 -74 l-102 -60 -211 -157 c-117 -87 -210 -159 -208 -162 3 -2 94 62 203
143 l198 147 124 76 124 76 6 14 5 14 -24 44 c-23 42 -39 62 -39 48z"/>
<path d="M88580 42703 l22 -37 -10 -4 c-46 -15 -628 -430 -617 -440 2 -2 112
75 243 171 l240 175 80 46 80 47 -21 39 c-12 22 -26 40 -30 40 l-9 0 22 -37z"/>
<path d="M40013 42678 c-4 -8 -28 -28 -53 -45 l-45 -31 -65 -17 c-36 -10 -90
-31 -120 -46 l-55 -27 -26 -29 c-15 -15 -50 -61 -79 -102 l-52 -73 -10 -57
-11 -56 10 -75 10 -75 -1 105 -1 105 22 45 c13 25 49 79 80 120 l58 75 65 32
c36 17 88 37 115 44 l50 12 57 34 57 35 6 15 c7 21 -1 28 -12 11z"/>
<path d="M52312 42650 c20 -52 193 -400 195 -393 4 10 -180 390 -193 402 l-7
6 5 -15z"/>
<path d="M51445 42555 c3 -16 16 -111 30 -210 14 -99 27 -187 29 -195 l4 -15
1 23 c0 13 -9 96 -20 185 l-22 162 -13 40 -14 40 5 -30z"/>
<path d="M51041 42515 c-188 -24 -346 -46 -349 -49 l-5 -6 14 0 c36 1 722 89
727 94 l5 6 -24 -1 c-13 -1 -179 -21 -368 -44z"/>
<path d="M50647 42359 l-5 -121 5 -154 6 -154 8 0 7 0 -1 270 0 271 -7 4 -7 4
-6 -120z"/>
<path d="M45935 42266 c-82 -46 -155 -89 -161 -94 l-11 -10 5 -119 5 -118 25
-50 c59 -120 145 -276 149 -272 2 3 -33 74 -78 158 l-83 154 -4 125 -3 125
160 88 c89 49 161 90 161 93 0 10 -23 -1 -165 -80z"/>
<path d="M31075 41859 l-136 -192 8 -7 8 -7 137 193 137 194 -9 5 -8 5 -137
-191z"/>
<path d="M46595 41879 l-180 -80 -221 -80 c-122 -43 -227 -79 -233 -79 l-12 0
5 -9 6 -9 242 88 c206 75 579 228 596 245 17 17 -44 -6 -203 -76z"/>
<path d="M46177 41673 c-114 -42 -205 -78 -202 -81 5 -6 406 137 420 149 l9 9
-9 -1 c-6 0 -103 -35 -218 -76z"/>
<path d="M82726 41652 l-5 -9 105 -169 c58 -93 112 -180 121 -193 l15 -23 9 9
10 10 -116 186 c-64 103 -120 189 -125 192 l-9 5 -5 -8z"/>
<path d="M30957 41601 c-10 -17 -40 -54 -66 -83 l-49 -53 -101 -75 c-93 -70
-114 -90 -93 -90 13 0 191 136 240 183 39 38 102 124 102 140 0 16 -17 5 -33
-22z"/>
<path d="M28495 41251 l-5 -10 8 -5 c4 -2 46 -11 92 -20 l85 -15 146 -6 146
-7 0 15 0 14 -166 6 -166 7 -45 10 c-25 6 -55 12 -67 15 l-22 5 -6 -9z"/>
<path d="M30120 40988 c-111 -82 -137 -95 -239 -115 l-76 -14 -59 5 -59 6 -63
35 c-35 20 -91 58 -125 85 -60 48 -80 59 -78 43 1 -14 113 -99 189 -144 l75
-44 95 0 95 1 73 22 74 23 96 71 c54 39 101 74 105 78 l9 8 -9 5 -8 5 -95 -70z"/>
<path d="M86487 40864 c-54 -108 -96 -198 -93 -201 3 -3 50 85 105 196 56 111
98 201 93 201 -4 0 -51 -88 -105 -196z"/>
<path d="M58645 41003 c22 -1 133 -4 247 -5 l207 -3 -17 7 -17 7 -230 -1
c-126 -1 -212 -3 -190 -5z"/>
<path d="M29386 40991 l-6 -9 98 -70 c54 -38 120 -81 147 -94 l50 -25 48 -7
48 -7 29 6 c17 4 30 10 30 13 l0 7 -75 2 -76 2 -57 32 c-31 18 -91 58 -132 89
-41 31 -80 59 -87 63 l-12 7 -5 -9z"/>
<path d="M57748 40923 c56 -2 148 -2 205 0 l102 3 -205 0 -205 0 103 -3z"/>
<path d="M53328 40578 l-33 -43 -22 -55 -22 -55 -31 -174 c-27 -154 -31 -195
-16 -180 3 3 19 81 35 174 l31 170 22 55 c12 30 33 71 48 90 15 19 30 41 34
48 l7 12 -9 0 c-5 0 -25 -19 -44 -42z"/>
<path d="M91200 40558 c8 -9 82 -52 164 -97 l149 -81 51 1 51 2 -55 7 -55 6
-127 71 c-69 39 -141 79 -160 88 l-33 17 15 -14z"/>
<path d="M47864 40489 l-6 -11 30 -30 30 -30 5 9 5 8 -28 32 -29 32 -7 -10z"/>
<path d="M60462 40485 c2 -3 123 -23 267 -45 145 -22 283 -45 308 -51 l44 -12
114 -73 c63 -40 115 -70 115 -66 0 4 -46 37 -103 74 l-102 68 -45 14 -45 15
-267 41 c-275 41 -295 44 -286 35z"/>
<path d="M97677 40142 l-39 -37 -88 -140 -89 -139 5 -8 c9 -14 19 -2 114 147
l93 146 33 26 34 25 -6 9 c-9 15 -17 11 -57 -29z"/>
<path d="M83672 40100 c2 -5 55 -90 118 -189 l115 -180 8 2 c5 1 9 6 9 11 1 4
-50 88 -113 187 l-114 178 -13 1 -14 0 4 -10z"/>
<path d="M51142 39844 l-71 -209 -20 -97 -21 -98 0 -42 c0 -24 5 -60 11 -80
l10 -38 36 -35 c20 -19 41 -35 47 -35 l11 1 -31 27 c-17 15 -38 38 -46 52
l-15 25 -7 47 -7 46 26 128 27 128 64 185 c35 102 63 190 61 195 -2 5 -35 -85
-75 -200z"/>
<path d="M58060 39780 l0 -220 10 0 10 0 0 220 0 220 -10 0 -10 0 0 -220z"/>
<path d="M84816 39970 c4 -8 49 -76 99 -150 51 -74 106 -161 124 -192 18 -32
37 -61 43 -64 l11 -7 -33 59 c-44 79 -207 324 -233 349 l-20 20 9 -15z"/>
<path d="M84780 39956 c0 -4 34 -58 77 -119 42 -62 220 -346 395 -632 175
-286 323 -521 328 -523 23 -8 -736 1213 -791 1273 l-9 9 0 -8z"/>
<path d="M62135 39813 c14 -14 404 -177 410 -171 4 4 -338 153 -400 174 l-20
7 10 -10z"/>
<path d="M84356 39670 c-76 -48 -143 -94 -150 -100 l-11 -12 22 11 c19 10 271
169 282 178 2 1 2 5 0 7 -2 3 -66 -35 -143 -84z"/>
<path d="M94325 39650 l-20 -9 20 0 c11 0 38 4 60 8 l40 9 -40 0 c-22 0 -49
-3 -60 -8z"/>
<path d="M48137 39578 c-105 -132 -217 -281 -217 -290 0 -6 59 65 130 157 72
92 130 169 130 171 0 11 -12 0 -43 -38z"/>
<path d="M42880 39434 l-345 -126 -110 -28 c-115 -30 -118 -41 -5 -15 107 25
864 300 810 295 -3 -1 -160 -57 -350 -126z"/>
<path d="M52068 39408 c-3 -7 -20 -93 -38 -190 l-34 -178 -16 0 c-9 0 -99 18
-200 40 -101 23 -191 39 -200 38 l-15 -4 200 -42 c110 -24 207 -46 215 -51 8
-4 20 -6 27 -4 l12 4 -5 13 -5 13 35 183 c32 163 39 219 24 178z"/>
<path d="M62854 39105 l0 -240 3 123 c2 68 2 176 0 240 l-3 117 0 -240z"/>
<path d="M51576 39089 c-3 -8 -26 -94 -51 -193 -26 -98 -49 -186 -52 -195 l-6
-16 10 10 11 10 51 194 c28 107 49 197 46 199 -2 3 -7 -1 -9 -9z"/>
<path d="M84605 38923 c104 -181 209 -354 218 -360 l10 -6 -5 9 c-72 126 -241
404 -245 404 -3 0 7 -21 22 -47z"/>
<path d="M52461 38936 c2 -2 92 -20 199 -40 107 -20 203 -38 213 -40 l17 -4 0
7 0 7 -202 37 c-193 36 -237 42 -227 33z"/>
<path d="M52891 38816 c3 -3 279 -57 614 -120 336 -64 621 -119 635 -122 l25
-5 -10 9 -10 9 -616 117 c-596 112 -648 121 -638 112z"/>
<path d="M60222 38356 c-29 -42 -78 -104 -110 -139 -31 -34 -67 -75 -81 -91
l-26 -29 12 4 c16 6 146 152 210 237 l54 73 -3 10 -3 10 -53 -75z"/>
<path d="M46230 38383 c0 -5 11 -20 25 -33 l25 -23 7 6 c3 4 4 8 2 10 -2 1
-16 13 -31 26 l-28 24 0 -10z"/>
<path d="M34580 38189 l0 -20 10 6 c6 3 10 13 10 21 l0 14 -10 0 -10 0 0 -21z"/>
<path d="M84873 38192 l-11 -7 128 -175 c70 -96 133 -176 139 -178 l11 -4 0
10 c0 5 -57 88 -126 183 -70 96 -128 175 -128 176 -1 1 -7 -1 -13 -5z"/>
<path d="M34585 38087 l-7 -18 6 -6 6 -6 6 6 c3 3 4 14 1 24 l-4 18 -8 -18z"/>
<path d="M60055 38081 c167 -158 607 -561 612 -561 12 0 -66 75 -352 339 -143
133 -264 241 -270 241 l-9 0 19 -19z"/>
<path d="M60065 38022 c93 -95 570 -532 580 -532 l9 0 -14 14 c-8 7 -145 134
-305 282 -275 256 -380 348 -270 236z"/>
<path d="M86964 37814 c-93 -59 -176 -113 -184 -122 l-15 -15 15 8 c39 21 370
228 370 231 0 12 -31 -5 -186 -102z"/>
<path d="M87005 37796 c-251 -154 -522 -340 -580 -398 l-10 -10 22 11 c12 6
50 33 85 59 94 72 408 280 531 352 59 34 110 66 113 71 l5 9 -8 -1 c-4 0 -75
-42 -158 -93z"/>
<path d="M35010 37862 l0 -10 78 -46 77 -45 93 -87 c51 -48 95 -84 98 -82 2 3
-37 43 -88 90 l-93 84 -70 45 c-38 25 -76 48 -82 53 l-13 7 0 -9z"/>
<path d="M91187 37658 c6 -35 20 -58 34 -58 l8 0 -15 28 c-7 15 -14 35 -14 45
l0 17 -10 0 -9 0 6 -32z"/>
<path d="M58770 37595 c0 -3 26 -18 58 -34 l57 -29 76 -12 76 -12 104 10 104
10 60 23 60 22 -11 4 c-6 2 -45 -7 -85 -21 l-74 -25 -95 -2 -95 -2 -50 8 -50
8 -64 28 c-67 31 -71 32 -71 24z"/>
<path d="M86180 37295 c-113 -73 -243 -159 -290 -192 l-85 -58 -10 3 -10 3 12
-11 11 -12 99 69 c54 38 187 127 296 197 108 71 197 130 197 132 0 11 -32 -8
-220 -131z"/>
<path d="M580 37383 l0 -21 18 -22 18 -23 11 4 10 4 -29 39 -28 39 0 -20z"/>
<path d="M85625 37304 c9 -17 26 -41 37 -55 l20 -24 -23 40 c-12 22 -29 47
-37 55 l-15 15 18 -31z"/>
<path d="M85685 37210 c3 -5 8 -10 11 -10 3 0 2 5 -1 10 -3 6 -8 10 -11 10 -3
0 -2 -4 1 -10z"/>
<path d="M85705 37180 c3 -5 8 -10 11 -10 3 0 2 5 -1 10 -3 6 -8 10 -11 10 -3
0 -2 -4 1 -10z"/>
<path d="M40368 36561 c-119 -25 -220 -49 -223 -52 -9 -9 442 84 451 94 l7 7
-9 -1 c-5 -1 -107 -22 -226 -48z"/>
<path d="M40974 36490 c3 -14 19 -119 36 -234 17 -116 33 -212 35 -215 9 -8 6
19 -27 238 l-31 216 -9 10 -9 10 5 -25z"/>
<path d="M34259 35732 c-74 -81 -141 -156 -149 -166 l-15 -20 12 7 c14 8 275
295 287 315 19 32 -12 1 -135 -136z"/>
<path d="M42025 35769 c-91 -8 -243 -32 -287 -45 l-18 -5 0 -13 0 -13 93 18
c73 13 305 39 357 39 l9 0 -5 15 -6 15 -22 -1 c-11 -1 -66 -6 -121 -10z"/>
<path d="M86487 35769 l-17 -10 5 -8 4 -8 36 11 c19 6 35 14 35 18 l0 8 -22 0
c-13 0 -31 -5 -41 -11z"/>
<path d="M86645 35712 c22 -45 157 -232 167 -232 4 0 8 3 8 6 0 7 -132 190
-166 229 l-26 30 17 -33z"/>
<path d="M86440 35690 l0 -13 7 6 6 7 -6 7 -7 6 0 -13z"/>
<path d="M41768 35678 c5 -7 12 -24 15 -38 l4 -25 2 31 1 32 -16 6 -17 6 11
-12z"/>
<path d="M51725 35637 c-50 -29 -107 -65 -126 -82 -40 -34 -93 -108 -101 -142
l-6 -23 6 0 c4 0 16 20 27 43 l19 42 46 46 46 46 74 43 c41 23 89 51 105 61
l30 19 -15 -1 c-8 0 -56 -24 -105 -52z"/>
<path d="M84842 35613 c-24 -14 -41 -28 -38 -30 3 -3 25 6 50 21 l45 26 38 0
38 -1 23 -19 23 -19 60 -107 61 -107 62 -81 c34 -45 95 -136 135 -204 41 -67
76 -120 79 -118 7 7 -141 246 -213 346 -34 47 -87 131 -118 186 l-57 102 -25
16 -24 16 -48 0 -48 -1 -43 -26z"/>
<path d="M85140 35323 c32 -43 36 -49 215 -343 136 -224 212 -340 252 -389 1
-2 5 -2 8 1 3 2 -10 25 -29 49 -19 24 -114 175 -211 334 -188 307 -233 375
-248 375 l-9 0 22 -27z"/>
<path d="M79330 35276 c-88 -37 -283 -137 -277 -142 3 -3 55 20 116 51 62 30
138 65 169 77 31 11 61 24 67 29 l9 9 -14 0 c-8 -1 -40 -11 -70 -24z"/>
<path d="M61007 35263 c-3 -4 -37 -87 -77 -183 -40 -96 -74 -178 -77 -182 l-4
-8 9 0 10 0 76 186 c43 102 75 188 73 191 -3 2 -7 1 -10 -4z"/>
<path d="M85697 34562 l-187 -117 2 -10 3 -10 10 3 c6 2 92 54 192 115 l183
112 0 13 c0 6 -3 12 -7 11 -5 0 -92 -53 -196 -117z"/>
<path d="M59075 34284 c-219 -136 -218 -135 -212 -140 4 -4 367 215 386 232 2
2 2 6 0 8 -3 3 -81 -42 -174 -100z"/>
<path d="M54433 34081 c-105 -14 -195 -29 -199 -33 l-6 -7 33 5 c19 3 116 15
217 28 101 13 186 27 189 30 l6 6 -24 -1 c-13 -1 -110 -13 -216 -28z"/>
<path d="M87260 34004 c-85 -53 -166 -103 -178 -111 -13 -8 -22 -17 -19 -19 5
-5 323 190 347 212 28 27 3 13 -150 -82z"/>
<path d="M53110 33944 c-118 -18 -219 -33 -224 -33 -5 -1 -7 -3 -4 -6 5 -6
439 54 447 61 13 11 -24 8 -219 -22z"/>
<path d="M83022 33361 c25 -35 238 -261 238 -252 0 5 -39 53 -87 107 -49 53
-101 112 -116 131 -16 18 -33 33 -38 33 l-10 0 13 -19z"/>
<path d="M2020 33032 l0 -9 183 -12 c100 -7 202 -14 227 -17 l45 -5 -15 9 -15
9 -190 12 c-104 7 -200 14 -212 17 l-23 4 0 -8z"/>
<path d="M64984 32999 c-3 -6 -4 -12 -2 -15 9 -8 372 -215 381 -217 5 -1 11 3
13 8 l4 10 -38 21 c-20 11 -108 61 -194 112 l-157 91 -7 -10z"/>
<path d="M34300 32510 c0 -6 7 -25 17 -43 l16 -32 4 12 4 12 -16 30 c-16 32
-25 39 -25 21z"/>
<path d="M79999 30657 l-147 -101 5 -12 5 -13 86 61 c48 33 115 79 149 102
l63 41 0 13 c0 6 -3 12 -7 11 -5 0 -74 -46 -154 -102z"/>
<path d="M1660 30345 l-34 -25 16 0 17 0 28 25 28 24 -11 1 c-5 0 -25 -11 -44
-25z"/>
<path d="M94989 29860 c-52 -39 -96 -76 -98 -83 l-4 -12 14 11 c8 6 52 39 99
74 47 35 89 67 95 72 l9 8 -10 0 c-6 0 -53 -32 -105 -70z"/>
<path d="M93727 28913 c-109 -80 -196 -147 -194 -150 5 -5 393 273 403 288 l5
9 -8 -1 c-4 0 -97 -66 -206 -146z"/>
<path d="M84015 29021 l-7 -12 59 -62 c60 -63 195 -193 225 -215 l16 -13 6 9
5 8 -148 148 -148 148 -8 -11z"/>
<path d="M84560 28772 c0 -5 75 -83 167 -172 l167 -163 3 10 4 10 -161 159
c-89 87 -165 161 -171 162 l-9 4 0 -10z"/>
<path d="M17172 27209 c-38 -170 -44 -214 -27 -197 3 2 24 91 49 196 l43 192
-11 0 -11 0 -43 -191z"/>
<path d="M18180 27345 c0 -8 3 -15 8 -15 4 0 104 -16 222 -35 248 -41 625 -95
657 -95 l23 0 0 13 0 13 -247 33 c-235 31 -591 85 -640 96 l-23 5 0 -15z"/>
<path d="M19080 27165 l0 -15 23 -5 c37 -8 1347 -192 1575 -221 l213 -27 6 7
6 6 -5 6 c-4 3 -86 16 -185 29 -196 27 -1562 221 -1605 229 l-28 6 0 -15z"/>
<path d="M95307 26779 l-187 -138 7 -4 8 -5 170 124 c174 128 202 151 194 157
-2 3 -88 -58 -192 -134z"/>
<path d="M94822 26725 c-101 -73 -186 -136 -189 -139 l-6 -6 9 0 c8 0 361 254
380 273 l7 7 -9 0 c-5 -1 -91 -61 -192 -135z"/>
<path d="M23633 26493 l7 -6 7 6 6 7 -13 0 -13 0 6 -7z"/>
<path d="M23698 26483 c6 -2 18 -2 25 0 l12 5 -25 0 -25 0 13 -5z"/>
<path d="M23788 26473 l13 -5 6 6 6 6 -19 -1 -19 -1 13 -5z"/>
<path d="M23868 26463 l13 -5 6 6 6 6 -19 -1 -19 -1 13 -5z"/>
<path d="M24370 26362 l0 -10 68 -6 c37 -4 80 -12 95 -18 l28 -11 14 -28 15
-28 0 -28 0 -29 -59 -174 c-32 -96 -73 -205 -90 -242 l-31 -68 0 -37 0 -38 10
15 c5 8 10 25 10 38 l0 22 31 68 c17 37 58 146 90 242 l59 174 0 27 c0 15 -7
42 -15 62 l-14 35 -38 14 -38 15 -67 8 -68 7 0 -10z"/>
<path d="M87395 25990 l-5 -9 202 -160 202 -160 9 6 c4 3 7 6 5 8 -2 1 -94 75
-205 163 l-202 161 -6 -9z"/>
<path d="M455 25598 c-2 -7 -34 -217 -70 -467 l-66 -453 5 -6 c3 -3 8 -3 10
-1 2 2 34 207 70 454 36 248 68 458 70 468 l4 17 -9 0 c-5 0 -11 -6 -14 -12z"/>
<path d="M87023 24888 l-42 -41 -26 17 -26 17 -17 -5 c-21 -7 -191 -176 -177
-176 6 0 46 36 90 80 l80 80 17 0 c9 0 20 -4 23 -10 l6 -10 23 0 22 0 44 45
44 45 -10 0 c-5 0 -28 -19 -51 -42z"/>
<path d="M98560 21088 c-14 -11 -94 -70 -178 -130 -84 -61 -151 -112 -149
-114 6 -6 366 249 367 259 0 12 -14 7 -40 -15z"/>
<path d="M89545 20878 c-77 -71 -142 -135 -144 -141 -4 -11 65 49 224 196 39
36 68 67 65 70 -3 2 -68 -54 -145 -125z"/>
<path d="M86761 20813 c7 -20 629 -667 629 -653 0 4 -122 136 -271 291 -318
333 -362 378 -358 362z"/>
<path d="M87167 20324 c149 -158 193 -201 193 -190 0 10 -298 320 -313 325 -7
2 47 -58 120 -135z"/>
<path d="M92901 16963 c5 -17 216 -202 979 -861 360 -311 668 -577 684 -591
l29 -26 -4 12 c-2 7 -311 277 -685 601 -578 499 -785 679 -978 851 l-29 26 4
-12z"/>
<path d="M92371 16559 c-89 -67 -160 -124 -157 -126 2 -2 78 50 168 118 188
140 174 129 161 129 -5 0 -82 -55 -172 -121z"/>
<path d="M92177 16433 l-6 -10 96 -104 c53 -57 123 -132 156 -166 l59 -63 9 6
9 5 -147 157 c-80 86 -152 163 -159 170 l-12 14 -5 -9z"/>
<path d="M98540 15264 c1 -12 339 -288 358 -293 12 -2 -206 181 -345 292 l-13
9 0 -8z"/>
<path d="M97886 14543 c-339 -395 -616 -722 -616 -727 l0 -10 9 10 c76 82
1231 1437 1228 1441 -3 2 -282 -319 -621 -714z"/>
<path d="M97450 13980 c-80 -94 -147 -176 -149 -183 l-3 -12 14 15 c8 8 70 80
138 160 68 80 132 155 143 168 l20 22 -9 0 c-5 0 -74 -77 -154 -170z"/>
<path d="M96701 13099 c-156 -182 -280 -333 -278 -335 3 -3 132 144 287 326
155 183 280 334 277 336 -2 2 -131 -145 -286 -327z"/>
<path d="M96520 12951 c-68 -82 -126 -154 -128 -162 l-4 -14 9 10 c12 12 233
273 252 298 l13 17 -8 -1 c-5 0 -65 -67 -134 -148z"/>
<path d="M25509 12776 c-2 -2 -85 -14 -184 -25 -98 -12 -181 -24 -184 -26 -8
-9 41 -5 207 15 l162 19 18 10 17 10 -16 1 c-9 0 -18 -2 -20 -4z"/>
<path d="M2960 12512 c0 -5 68 -69 152 -143 83 -73 160 -142 170 -153 l18 -20
10 10 9 9 -171 150 c-94 83 -175 152 -180 153 l-8 4 0 -10z"/>
<path d="M98060 10825 c0 -2 73 -72 162 -154 l161 -150 9 5 9 6 -78 72 c-210
195 -263 239 -263 221z"/>
<path d="M25445 4722 c-89 -50 -128 -78 -207 -148 l-76 -69 -276 -340 -277
-340 -130 -189 c-72 -103 -133 -195 -136 -204 l-6 -15 13 5 14 4 121 175 120
174 288 355 289 355 76 69 c76 68 192 149 239 167 l24 9 -6 10 c-9 14 -14 13
-70 -18z"/>
<path d="M25410 3978 c-63 -5 -130 -7 -148 -5 l-32 3 3 -10 4 -11 74 1 c41 0
131 4 202 8 l127 8 0 9 0 9 -57 -1 c-32 -1 -110 -6 -173 -11z"/>
<path d="M31927 3523 c-4 -3 -7 -10 -7 -15 l0 -9 19 6 18 5 13 -15 13 -16 1
-42 0 -42 -73 -125 c-40 -69 -79 -132 -87 -141 -15 -17 -19 -39 -6 -39 10 1
60 76 127 193 l57 99 1 41 2 42 -14 33 -13 32 -23 0 c-12 0 -25 -3 -28 -7z"/>
<path d="M31883 3443 c-18 -9 -33 -21 -33 -26 l0 -9 20 6 c11 3 29 9 40 12
l20 6 0 -10 c0 -5 -25 -53 -55 -107 l-56 -98 8 -8 9 -9 57 103 57 103 0 27 0
27 -17 -1 c-10 0 -33 -8 -50 -16z"/>
<path d="M24077 2999 c-17 -29 -69 -111 -113 -183 l-82 -131 9 -9 c5 -5 10 -8
12 -5 3 3 200 322 220 356 l7 12 -10 6 -10 6 -33 -52z"/>
<path d="M22640 2591 c0 -6 81 -76 181 -157 l180 -146 7 6 6 6 -15 14 c-26 25
-350 286 -355 286 -2 0 -4 -4 -4 -9z"/>
<path d="M12826 2473 c-2 -10 -30 -155 -60 -323 -49 -275 -76 -465 -76 -537 0
-57 9 -12 20 97 l12 115 59 329 c32 181 57 331 55 334 -2 2 -7 -5 -10 -15z"/>
<path d="M23525 2153 l-110 -165 -18 -10 -18 -9 11 -14 12 -14 32 37 c17 21
73 102 125 180 l94 143 -9 9 -9 8 -110 -165z"/>
<path d="M22984 2232 c7 -11 313 -252 320 -252 21 0 -12 31 -149 138 -85 67
-160 122 -166 122 l-10 0 5 -8z"/>
<path d="M8335 1820 c-49 -4 -125 -13 -168 -20 l-78 -13 -5 -9 c-12 -19 6 -19
83 -3 l78 16 155 6 155 6 165 -12 c91 -6 189 -14 218 -17 l52 -6 0 14 0 15
-192 11 c-288 18 -364 20 -463 12z"/>
<path d="M17675 1200 l-5 -9 7 -4 c5 -3 91 -10 193 -16 102 -6 202 -14 223
-16 l37 -5 0 15 0 15 -26 0 c-26 0 -279 16 -371 24 l-53 5 -5 -9z"/>
<path d="M19040 1041 l0 -9 28 -6 c15 -3 114 -10 220 -17 l192 -12 7 6 c3 4 4
9 2 12 -5 4 -375 35 -426 35 l-23 0 0 -9z"/>
</g>
</svg>
