<?xml version="1.0" standalone="no"?>
<!DOCTYPE svg PUBLIC "-//W3C//DTD SVG 20010904//EN"
 "http://www.w3.org/TR/2001/REC-SVG-20010904/DTD/svg10.dtd">
<svg version="1.0" xmlns="http://www.w3.org/2000/svg"
 width="7500.000000pt" height="7500.000000pt" viewBox="0 0 7500.000000 7500.000000"
 preserveAspectRatio="xMidYMid meet">
<metadata>
Created by potrace 1.16, written by Peter Selinger 2001-2019
</metadata>
<g transform="translate(0.000000,7500.000000) scale(0.075000,-0.075000)"
fill="#000000" stroke="none">
<path d="M88871 99995 c3 -2 223 -90 489 -194 267 -105 490 -194 496 -198 6
-5 29 -21 52 -38 l42 -30 6 -22 6 -23 14 0 c30 0 8 35 -56 89 l-51 43 -480
189 -480 189 -21 0 c-12 0 -19 -2 -17 -5z"/>
<path d="M83290 99052 c0 -7 251 -157 290 -173 8 -4 39 -16 68 -28 l52 -21 0
8 c0 4 -28 18 -62 31 -52 20 -219 111 -325 177 l-23 14 0 -8z"/>
<path d="M10160 98930 c0 -11 327 -295 340 -295 l10 0 -2 10 c-3 12 -328 295
-340 295 -4 0 -8 -4 -8 -10z"/>
<path d="M63875 97483 c17 -17 387 -214 396 -211 7 3 -366 208 -394 217 l-12
4 10 -10z"/>
<path d="M15804 96146 c-3 -8 -4 -22 -2 -31 l3 -17 215 -87 215 -86 130 -69
c72 -38 158 -84 193 -103 l62 -35 0 10 0 9 -197 105 -198 105 -208 83 -208 83
5 23 6 24 -5 0 c-3 0 -8 -6 -11 -14z"/>
<path d="M98216 94743 l-149 -154 10 -10 10 -10 148 156 148 156 -9 8 -9 9
-149 -155z"/>
<path d="M87651 93201 c-105 -109 -191 -201 -191 -205 0 -3 90 85 200 196
l199 203 80 -81 80 -80 14 8 c8 4 27 8 43 10 l29 2 38 -13 c21 -7 41 -11 44
-8 2 3 -20 13 -50 23 l-54 17 -30 -11 -30 -10 -74 74 -73 74 -17 0 -17 0 -191
-199z"/>
<path d="M20680 93241 l0 -9 53 -7 c28 -4 77 -16 107 -27 30 -11 111 -35 180
-53 69 -19 210 -63 313 -99 103 -36 187 -62 187 -58 0 10 -405 147 -523 177
-54 13 -106 29 -117 35 -10 5 -49 17 -87 25 -37 9 -78 18 -90 20 l-23 5 0 -9z"/>
<path d="M86810 92736 c0 -2 54 -39 121 -81 l120 -78 35 34 c19 18 34 37 34
43 l0 10 -33 -32 c-18 -18 -37 -32 -42 -32 -6 0 -57 32 -115 70 -96 64 -120
77 -120 66z"/>
<path d="M86780 92706 c0 -6 180 -125 237 -157 l42 -24 46 45 c25 24 45 49 45
54 l0 10 -43 -42 c-23 -23 -48 -42 -54 -42 -11 0 -140 77 -220 131 -40 28 -53
34 -53 25z"/>
<path d="M82240 92175 c0 -3 45 -67 101 -142 55 -74 105 -146 111 -159 6 -13
15 -24 20 -24 l9 0 -12 23 c-15 27 -219 307 -225 307 -2 0 -4 -2 -4 -5z"/>
<path d="M28400 90840 l0 -9 68 -20 c37 -11 136 -39 219 -62 l153 -43 7 7 6 7
-5 6 c-7 6 -422 124 -438 124 -5 0 -10 -4 -10 -10z"/>
<path d="M85130 88894 c-96 -18 -190 -36 -209 -39 -18 -4 -31 -9 -28 -11 3 -3
97 11 208 31 l204 37 10 9 9 9 -9 -1 c-6 -1 -89 -16 -185 -35z"/>
<path d="M84663 88842 c-117 -25 -213 -49 -213 -52 l0 -7 213 46 c116 24 214
46 216 48 16 12 -29 5 -216 -35z"/>
<path d="M80270 88041 l0 -9 58 -20 c188 -65 533 -185 840 -292 l352 -123 7 6
c3 4 4 8 2 10 -2 2 -186 67 -409 145 -223 78 -501 175 -618 217 -223 78 -232
81 -232 66z"/>
<path d="M46235 87999 c25 -11 380 -109 396 -109 28 0 -7 12 -197 64 -196 54
-240 65 -199 45z"/>
<path d="M46641 87846 c8 -8 402 -107 412 -103 6 2 -79 27 -190 55 -184 48
-233 59 -222 48z"/>
<path d="M84409 87215 l-92 -185 6 -6 6 -7 11 29 c15 39 159 326 172 342 l10
12 -10 0 -10 0 -93 -185z"/>
<path d="M84307 86898 l-46 -103 -15 -9 -14 -10 -276 76 c-152 41 -276 72
-276 68 0 -5 553 -160 572 -160 8 0 111 230 105 236 -2 2 -25 -42 -50 -98z"/>
<path d="M36940 86656 c23 -21 293 -208 310 -214 l15 -5 -10 10 c-17 18 -313
223 -321 223 -5 0 -2 -6 6 -14z"/>
<path d="M20602 85808 l4 -12 195 -53 194 -54 75 -40 c41 -22 135 -83 208
-136 74 -52 141 -97 148 -100 l14 -5 0 8 c0 13 -270 201 -354 248 l-70 39
-140 39 c-78 21 -172 48 -209 58 l-68 19 3 -11z"/>
<path d="M53886 85419 c-120 -15 -221 -31 -224 -34 l-5 -5 7 -7 7 -7 234 29
235 28 0 14 0 13 -17 -1 c-10 -1 -116 -14 -237 -30z"/>
<path d="M78798 84853 c-19 -120 -34 -220 -32 -222 10 -11 17 21 50 214 l35
208 -9 9 -9 9 -35 -218z"/>
<path d="M80090 84474 c53 -25 406 -146 395 -136 -9 8 -374 139 -415 149 -8 2
1 -4 20 -13z"/>
<path d="M77930 83513 l0 -9 192 -62 c105 -34 194 -60 196 -57 8 7 13 5 -183
69 -99 32 -186 61 -192 63 l-13 5 0 -9z"/>
<path d="M96729 82077 l-127 -72 -47 -53 c-26 -29 -45 -55 -42 -58 3 -3 24 18
48 46 l44 50 127 71 c70 38 130 74 133 79 l6 10 -8 -1 c-4 0 -65 -33 -134 -72z"/>
<path d="M18010 82072 l0 -8 193 -46 c105 -25 207 -49 225 -52 l32 -5 0 9 0
10 -22 4 c-13 2 -111 25 -218 50 -210 50 -210 50 -210 38z"/>
<path d="M75133 81493 l-32 -98 -16 -105 c-9 -58 -18 -116 -21 -130 l-5 -25 9
10 9 10 17 112 17 111 34 103 c39 116 38 109 27 109 l-8 0 -31 -97z"/>
<path d="M96133 81378 c-66 -90 -123 -169 -128 -177 l-8 -14 10 6 c17 10 256
338 250 343 -3 3 -59 -68 -124 -158z"/>
<path d="M74670 81265 c0 -2 17 -27 38 -55 l39 -51 11 -77 c7 -42 12 -89 12
-104 l0 -27 -10 -6 c-5 -3 -10 -13 -10 -22 l0 -16 20 18 20 18 0 31 c0 17 -5
67 -11 111 l-12 80 -39 53 c-33 44 -58 65 -58 47z"/>
<path d="M97570 80927 c0 -37 115 -234 156 -268 22 -18 105 -51 112 -44 4 4
-64 35 -77 35 -14 0 -52 47 -111 140 l-60 94 0 17 c0 10 -4 21 -10 24 -5 3
-10 4 -10 2z"/>
<path d="M95380 80324 c-62 -85 -110 -158 -107 -160 5 -5 80 92 191 249 l48
67 -10 0 -10 0 -112 -156z"/>
<path d="M72670 80015 c0 -2 64 -92 141 -200 122 -168 159 -213 159 -190 0 2
-64 92 -141 200 -122 168 -159 213 -159 190z"/>
<path d="M64455 74960 l-6 -10 38 0 c21 -1 124 -7 228 -14 105 -7 192 -12 194
-10 13 12 -27 18 -196 30 -103 7 -202 13 -220 14 l-32 0 -6 -10z"/>
<path d="M80240 72302 l0 -10 73 -6 c179 -15 390 -26 395 -21 12 11 -10 15
-163 25 -88 5 -193 12 -232 16 l-73 6 0 -10z"/>
<path d="M69958 70323 c-71 -74 -128 -139 -128 -144 0 -23 27 0 146 126 l127
136 -9 9 -9 9 -127 -136z"/>
<path d="M85544 68309 c-14 -15 -284 -246 -323 -276 -2 -2 -2 -5 1 -8 5 -5
331 266 343 285 13 21 -2 20 -21 -1z"/>
<path d="M38465 66874 c-110 -7 -209 -13 -219 -13 l-19 -1 5 -6 6 -5 226 12
226 12 0 9 c0 4 -6 7 -12 7 -7 -1 -103 -8 -213 -15z"/>
<path d="M49434 66393 c-93 -166 -263 -446 -275 -453 l-9 -6 167 -118 c92 -65
174 -121 183 -124 l15 -5 -10 10 c-5 6 -79 58 -162 117 -84 59 -155 111 -158
117 l-6 9 87 143 c110 180 256 438 250 444 -2 3 -39 -58 -82 -134z"/>
<path d="M45271 66456 c2 -2 105 -47 229 -99 124 -53 326 -139 450 -191 123
-53 229 -96 234 -96 l10 0 -9 8 c-10 8 -92 44 -661 281 -219 91 -266 109 -253
97z"/>
<path d="M41590 66266 c0 -3 153 -105 308 -204 12 -8 22 -11 22 -8 0 7 -315
216 -325 216 -3 0 -5 -2 -5 -4z"/>
<path d="M37030 66159 l-25 -8 90 3 90 3 107 -23 c148 -33 168 -28 28 7 l-115
28 -75 0 -75 -1 -25 -9z"/>
<path d="M36584 65700 c-33 -176 -58 -320 -55 -320 8 0 126 628 119 635 -2 2
-31 -139 -64 -315z"/>
<path d="M36636 65765 c-26 -143 -54 -291 -61 -329 l-13 -68 8 8 c10 12 122
611 118 632 l-3 17 -49 -260z"/>
<path d="M49140 65897 c13 -13 641 -459 679 -482 l14 -8 -7 11 c-6 10 -653
469 -686 487 l-15 8 15 -16z"/>
<path d="M29001 65177 c-6 -6 -29 -17 -49 -23 l-37 -10 -32 7 -33 7 0 -9 c0
-5 0 -12 0 -16 -1 -5 14 -11 32 -15 l33 -8 48 12 47 12 15 17 16 16 -14 11
-13 12 -13 -13z"/>
<path d="M51590 65053 c1 -4 103 -78 228 -163 125 -85 291 -199 369 -253 79
-54 143 -94 143 -90 0 6 -672 474 -726 506 l-14 8 0 -8z"/>
<path d="M31420 64903 c-56 -22 -222 -104 -218 -108 3 -3 53 18 112 47 l107
52 97 6 97 7 -90 1 c-49 0 -97 -2 -105 -5z"/>
<path d="M3295 64870 c3 -5 14 -10 23 -10 l17 0 -15 10 c-8 5 -19 10 -23 10
l-8 0 6 -10z"/>
<path d="M3500 64754 c82 -45 217 -131 249 -158 l24 -21 -5 15 -4 15 -70 48
c-82 57 -225 137 -245 137 l-14 0 65 -36z"/>
<path d="M47371 64766 c11 -11 405 -176 413 -173 5 2 -82 42 -195 90 -183 78
-232 96 -218 83z"/>
<path d="M37066 64582 c-3 -3 -6 -11 -6 -18 l0 -13 39 -11 c21 -6 113 -19 202
-30 90 -11 177 -22 192 -25 l28 -5 6 16 5 15 -5 6 c-3 3 -92 16 -198 29 -106
13 -207 28 -225 33 l-33 9 -5 -6z"/>
<path d="M40690 64527 c0 -4 18 -60 41 -125 22 -64 47 -144 54 -177 l15 -60
-6 53 -5 54 -44 125 c-40 114 -55 149 -55 130z"/>
<path d="M40686 64408 c19 -57 44 -134 54 -173 l18 -70 1 28 1 28 -47 144
c-26 80 -50 145 -54 145 l-8 0 35 -102z"/>
<path d="M40584 64118 l-46 -62 6 -29 6 -29 116 -129 c106 -119 138 -150 117
-116 -4 7 -55 66 -113 131 l-105 117 -7 24 -6 24 37 53 c48 68 53 78 47 78 -4
0 -27 -28 -52 -62z"/>
<path d="M92280 64142 l0 -8 167 -33 167 -33 35 -19 c20 -10 46 -26 58 -35
l21 -15 5 8 6 9 -48 32 -48 33 -167 35 c-177 36 -196 39 -196 26z"/>
<path d="M40067 64074 l-17 -35 10 6 c6 3 17 19 25 36 l16 29 -9 0 c-5 0 -16
-16 -25 -36z"/>
<path d="M92270 64091 l0 -10 58 -11 c31 -7 108 -22 171 -36 l114 -23 39 -26
40 -26 6 6 6 6 -29 24 c-39 30 -69 39 -249 75 -172 35 -156 32 -156 21z"/>
<path d="M89371 64024 c-28 -32 -51 -62 -51 -67 0 -5 23 16 51 47 l51 56 185
-213 185 -212 39 -60 39 -60 0 13 c0 26 -85 137 -257 335 -97 111 -179 206
-183 210 l-7 8 -52 -57z"/>
<path d="M59590 63783 l-45 -85 -45 -21 c-25 -11 -81 -35 -125 -53 l-80 -34
20 0 20 0 108 47 107 47 45 84 c25 47 44 89 43 93 -2 5 -23 -31 -48 -78z"/>
<path d="M93010 63612 c0 -4 73 -80 163 -170 l163 -163 7 8 8 7 -163 163
c-152 152 -178 175 -178 155z"/>
<path d="M41270 63571 c0 -5 57 -72 127 -150 l126 -141 16 0 15 0 -33 33 c-19
17 -81 85 -139 150 -58 64 -107 117 -109 117 -1 0 -3 -4 -3 -9z"/>
<path d="M41007 63387 c-71 -64 -76 -85 -6 -25 28 23 61 51 73 60 l21 18 -15
0 -15 0 -58 -53z"/>
<path d="M7033 63363 l7 -6 7 6 6 7 -13 0 -13 0 6 -7z"/>
<path d="M6633 63343 l-33 -4 0 -8 0 -8 176 -6 177 -5 21 7 21 8 -20 5 c-11 3
-54 6 -95 7 -41 1 -106 3 -145 5 -38 2 -85 2 -102 -1z"/>
<path d="M16357 63315 l-17 -36 0 -39 0 -40 29 -32 29 -33 7 7 7 7 -26 31 -26
32 0 28 c0 15 7 44 15 63 17 42 18 47 7 47 -5 0 -16 -16 -25 -35z"/>
<path d="M36839 63319 c0 -8 -19 -149 -43 -314 -39 -275 -43 -316 -32 -304 2
2 22 143 46 312 l42 308 -6 6 -6 6 -1 -14z"/>
<path d="M41566 63181 l-6 -9 15 -6 15 -5 0 9 c0 5 -4 11 -9 15 l-10 5 -5 -9z"/>
<path d="M41545 63140 c3 -5 11 -10 16 -10 l10 0 -6 10 c-3 6 -11 10 -16 10
l-10 0 6 -10z"/>
<path d="M42732 62914 c-116 -103 -212 -191 -212 -195 0 -10 423 359 428 373
2 4 2 8 0 8 -2 0 -99 -84 -216 -186z"/>
<path d="M15077 63023 c-4 -3 -7 -19 -7 -34 l0 -28 10 -6 11 -7 -3 41 c-2 23
-3 41 -4 41 0 0 -4 -3 -7 -7z"/>
<path d="M17735 62938 c-385 -11 -996 -51 -983 -64 3 -2 160 7 349 20 l344 24
304 6 305 6 10 10 10 10 -24 -2 c-14 -1 -155 -5 -315 -10z"/>
<path d="M58705 62904 c-53 -27 -96 -56 -92 -61 3 -2 27 9 53 25 27 17 59 33
71 36 l22 7 362 -31 c199 -17 364 -29 366 -26 2 2 -17 7 -44 10 -69 9 -642 56
-678 56 l-30 0 -30 -16z"/>
<path d="M16720 62808 l0 -83 47 -94 48 -94 65 -54 c36 -30 73 -59 83 -64 l17
-10 0 10 c0 5 -31 34 -70 65 l-69 56 -51 93 -50 92 0 83 0 82 -10 0 -10 0 0
-82z"/>
<path d="M11298 62756 l-177 -12 -24 -22 -23 -22 -197 0 -196 0 -7 -11 -7 -11
204 7 204 7 28 19 28 20 232 15 c128 8 237 16 242 18 17 7 -124 3 -307 -8z"/>
<path d="M36342 62735 c4 -5 349 -55 377 -55 47 0 -19 13 -175 35 -186 26
-211 28 -202 20z"/>
<path d="M42370 62604 c0 -12 258 -308 273 -313 l12 -4 -26 29 c-14 16 -72 83
-129 149 -57 66 -109 127 -117 135 l-13 14 0 -10z"/>
<path d="M58220 62582 c0 -6 118 -57 390 -169 l35 -15 -10 11 c-9 9 -59 31
-322 141 -51 22 -93 36 -93 32z"/>
<path d="M47086 62461 l-6 -48 6 -17 c3 -9 10 -16 15 -16 l9 0 -10 24 c-5 13
-7 26 -6 27 2 2 6 21 10 42 l7 37 -9 0 -9 0 -7 -49z"/>
<path d="M57330 61901 l0 -8 118 -51 c64 -28 173 -75 242 -105 69 -30 127 -53
129 -51 6 6 9 5 -189 92 -102 44 -211 92 -242 106 l-58 26 0 -9z"/>
<path d="M48112 61779 l4 -11 198 -111 197 -110 10 10 10 10 -200 112 c-110
61 -205 111 -211 111 l-12 0 4 -11z"/>
<path d="M57813 61643 c12 -12 480 -213 485 -208 3 2 -15 13 -39 24 -24 10
-133 57 -242 105 -109 47 -201 86 -204 86 l-6 0 6 -7z"/>
<path d="M79679 60819 c-87 -84 -157 -154 -155 -157 3 -2 16 4 29 14 50 39
307 278 307 286 0 22 -34 -4 -181 -143z"/>
<path d="M42852 60920 l-12 -20 10 0 c5 0 14 9 20 20 l11 20 -8 0 c-5 0 -14
-9 -21 -20z"/>
<path d="M54671 60859 c-2 -10 90 -413 95 -418 9 -9 3 24 -36 202 -35 156 -57
238 -59 216z"/>
<path d="M61354 60603 c3 -10 28 -126 56 -257 28 -132 53 -242 57 -245 l6 -6
-6 30 c-3 16 -27 134 -54 262 l-48 233 -8 0 -8 0 5 -17z"/>
<path d="M59867 60247 c-92 -77 -165 -142 -162 -145 2 -2 73 53 157 123 182
153 183 153 177 159 -2 2 -79 -59 -172 -137z"/>
<path d="M59918 60237 l-143 -123 -360 -270 c-198 -149 -371 -277 -383 -283
l-24 -13 6 -5 5 -5 35 20 c19 11 190 138 381 282 l346 262 144 124 c133 114
153 134 141 134 -3 0 -69 -55 -148 -123z"/>
<path d="M44382 60225 c-79 -69 -139 -125 -134 -125 7 0 216 177 287 241 l9 9
-10 0 c-5 0 -74 -56 -152 -125z"/>
<path d="M15035 60291 l-61 -39 -103 -111 c-57 -61 -99 -111 -94 -111 5 0 55
49 111 109 l102 110 60 36 c33 20 60 38 60 41 0 10 -19 1 -75 -35z"/>
<path d="M62113 60262 l-223 -45 0 -7 0 -7 223 45 c122 25 224 47 226 49 15
11 -29 5 -226 -35z"/>
<path d="M56565 60245 c6 -3 104 -30 219 -61 115 -31 216 -58 225 -61 l16 -6
-10 11 -10 10 -209 56 c-114 31 -216 56 -225 55 l-16 -1 10 -3z"/>
<path d="M58636 60229 c-60 -14 -57 -20 5 -13 l54 6 126 -258 c70 -143 139
-289 155 -326 l28 -68 9 0 8 0 -4 8 c-3 4 -42 90 -87 192 -45 102 -116 249
-157 328 l-75 142 -11 -1 c-7 -1 -30 -5 -51 -10z"/>
<path d="M61424 60090 l-11 -11 -194 -40 c-207 -43 -224 -47 -218 -53 2 -3 99
15 214 39 115 24 210 43 211 42 3 -3 144 -711 144 -723 l0 -11 -202 -42 -203
-43 -10 -10 -10 -10 20 6 c11 3 107 24 213 46 l193 41 8 -6 9 -5 5 14 6 15 -8
3 -7 3 -69 340 c-37 187 -68 354 -69 372 -2 37 -8 47 -22 33z"/>
<path d="M43542 59888 l-24 -28 10 0 c13 0 45 37 41 48 l-4 9 -23 -29z"/>
<path d="M58810 59913 c0 -6 30 -75 66 -154 36 -79 73 -159 81 -178 8 -18 16
-31 19 -28 4 4 -151 355 -162 366 -2 2 -4 0 -4 -6z"/>
<path d="M61994 59785 c3 -11 21 -92 40 -180 l35 -160 -11 -12 -10 -13 17 0
17 0 -4 -12 -4 -12 -55 -12 c-30 -6 -126 -27 -213 -45 l-160 -33 12 -4 c7 -2
102 15 213 39 l200 42 8 -9 c11 -12 125 -554 146 -694 7 -42 76 -404 81 -419
2 -8 6 -12 9 -9 2 2 -13 94 -34 204 l-38 199 6 6 c3 3 179 41 391 83 212 43
396 81 410 86 l25 8 -15 1 c-8 1 -194 -35 -413 -80 l-397 -82 -6 6 c-3 3 -32
135 -64 294 -32 158 -64 314 -71 346 -6 31 -10 59 -7 62 2 2 92 23 199 45 205
43 224 48 218 55 -2 2 -98 -16 -213 -41 -115 -24 -211 -44 -213 -44 -1 0 -3 6
-3 14 l0 14 48 10 c26 6 210 43 410 83 l362 72 0 7 0 7 -411 -84 c-227 -46
-413 -82 -415 -80 -1 1 -19 79 -39 172 l-37 170 -10 10 -10 10 6 -20z"/>
<path d="M62960 59610 l0 -13 7 6 6 7 -6 7 -7 6 0 -13z"/>
<path d="M91406 59543 c142 -191 224 -296 263 -337 52 -55 303 -258 310 -251
2 3 2 7 0 8 -2 2 -56 44 -119 94 l-115 91 -65 68 c-36 38 -114 135 -175 216
-60 81 -114 148 -119 148 l-8 0 28 -37z"/>
<path d="M49325 59067 c-165 -220 -313 -418 -329 -440 l-30 -40 11 4 c16 5
655 858 651 868 -2 5 -138 -172 -303 -392z"/>
<path d="M63827 59028 c41 -200 150 -736 243 -1193 93 -456 205 -999 249
-1206 45 -206 81 -379 81 -383 l0 -8 14 5 14 5 21 -14 21 -15 0 -33 0 -33 -18
-16 -19 -17 -29 0 -30 0 -10 10 -10 10 -262 -52 c-144 -29 -262 -55 -262 -59
0 -3 116 17 258 46 l259 51 20 -13 20 -13 31 6 31 6 21 23 22 24 -9 38 -9 38
-29 15 c-17 8 -31 15 -32 16 -9 2 -236 1098 -605 2922 l-41 202 -7 0 -7 0 74
-362z"/>
<path d="M61627 59313 l-5 -9 74 -374 c41 -206 77 -376 79 -379 10 -9 4 28
-29 199 -19 96 -51 263 -71 370 -20 107 -38 196 -40 198 -1 2 -5 0 -8 -5z"/>
<path d="M75773 59219 l-51 -30 -35 -42 c-45 -55 -141 -206 -135 -213 3 -3 20
19 38 48 19 29 56 84 84 121 l51 68 54 31 c30 17 68 34 85 39 l31 7 -35 0 -35
1 -52 -30z"/>
<path d="M61130 59205 c0 -10 150 -736 156 -754 2 -8 6 -12 9 -9 5 5 -151 757
-159 765 l-6 6 0 -8z"/>
<path d="M83800 59155 c1 -13 209 -413 210 -401 0 10 -69 146 -159 316 -28 52
-51 91 -51 85z"/>
<path d="M49935 58923 c-160 -210 -169 -222 -163 -228 4 -4 15 10 202 253
l117 154 -3 9 -3 10 -150 -198z"/>
<path d="M39556 58811 c5 -6 83 -37 174 -71 91 -33 184 -69 208 -80 l42 -20 0
14 0 15 -57 21 c-86 33 -363 130 -371 130 -3 0 -2 -4 4 -9z"/>
<path d="M84050 58766 c0 -5 38 -81 84 -170 46 -88 89 -178 96 -198 6 -21 16
-40 21 -44 l9 -5 -20 53 c-21 56 -190 379 -190 364z"/>
<path d="M61970 58580 c-124 -25 -321 -70 -437 -99 l-213 -53 0 -10 0 -9 18 5
c99 29 573 142 702 167 91 18 169 36 175 40 l9 9 -14 -1 c-8 -1 -116 -23 -240
-49z"/>
<path d="M35380 58383 c-19 -8 -69 -29 -110 -46 l-74 -31 10 -3 c5 -2 58 16
118 41 l109 43 -9 5 -9 5 -35 -14z"/>
<path d="M60646 58315 l-209 -44 -9 5 c-4 3 -17 2 -28 -1 l-20 -6 0 -11 0 -10
15 12 15 12 16 -6 17 -7 206 42 c113 23 210 46 216 51 l9 8 -9 -1 c-6 0 -104
-20 -219 -44z"/>
<path d="M55900 58311 c8 -5 102 -32 208 -59 l192 -50 0 6 c0 6 -340 99 -399
110 l-16 3 15 -10z"/>
<path d="M60658 58277 c-108 -23 -200 -46 -205 -51 l-8 -8 20 5 c11 3 103 22
205 43 102 20 192 40 200 45 l15 8 -15 0 c-8 -1 -104 -20 -212 -42z"/>
<path d="M49460 58261 c0 -3 75 -35 168 -70 l167 -64 215 -107 215 -108 345
-96 c190 -54 352 -99 360 -102 l15 -5 -10 9 c-5 6 -165 54 -355 107 l-344 97
-201 101 -200 100 -187 72 c-104 40 -188 70 -188 66z"/>
<path d="M34890 58141 c-47 -26 -145 -80 -218 -120 -73 -40 -131 -75 -128 -78
4 -5 392 201 441 234 l19 13 -14 -1 c-8 0 -53 -22 -100 -48z"/>
<path d="M54955 58109 c-16 -45 -114 -424 -110 -427 6 -6 5 -9 69 228 30 112
53 206 51 209 -3 2 -7 -2 -10 -10z"/>
<path d="M63994 58013 c3 -10 41 -205 86 -433 88 -452 88 -450 99 -450 l8 0
-91 450 -91 450 -8 0 -8 0 5 -17z"/>
<path d="M62603 57881 l-211 -46 -9 -9 -8 -9 15 5 c8 2 111 25 228 49 l212 44
0 7 c0 10 23 14 -227 -41z"/>
<path d="M61915 57777 c-236 -50 -432 -92 -434 -94 -2 -2 -2 -5 0 -7 5 -5 878
179 886 188 l6 6 -14 -1 c-8 -1 -207 -42 -444 -92z"/>
<path d="M55466 57744 c-98 -13 -184 -25 -190 -28 l-11 -4 19 -1 c28 -1 419
49 425 54 8 9 -64 3 -243 -21z"/>
<path d="M37960 57746 l0 -11 35 -11 36 -11 4 7 5 8 -13 10 c-6 5 -24 12 -39
14 l-28 5 0 -11z"/>
<path d="M53858 57734 l-6 -5 60 -127 c33 -70 78 -165 99 -211 22 -46 41 -82
44 -79 3 3 -22 63 -56 134 -34 71 -78 166 -99 211 l-37 83 -5 -6z"/>
<path d="M49550 57722 c1 -10 390 -193 390 -183 0 7 -94 53 -317 157 -40 18
-73 30 -73 26z"/>
<path d="M47985 57015 c-5 -2 -88 -13 -182 -26 l-173 -22 0 -7 0 -6 203 28
202 29 23 -4 22 -4 0 8 0 9 -42 -1 c-24 0 -47 -2 -53 -4z"/>
<path d="M33273 56658 c-12 -13 -63 -93 -114 -178 l-92 -155 -36 -39 c-20 -21
-31 -37 -25 -35 25 9 88 94 173 234 50 83 99 160 107 173 9 12 14 22 12 22 -2
0 -14 -10 -25 -22z"/>
<path d="M36000 56499 c-80 -76 -140 -139 -135 -139 13 1 291 266 285 273 -3
2 -70 -58 -150 -134z"/>
<path d="M79448 56581 l-37 -28 -96 -32 -97 -32 -84 -6 -84 -6 0 -9 0 -8 58 5
c117 12 139 16 228 46 l90 31 40 34 c47 40 34 44 -18 5z"/>
<path d="M54422 56292 c3 -10 72 -107 153 -215 l147 -197 9 6 8 5 -149 200
c-83 110 -150 204 -150 209 0 6 -5 10 -11 10 l-11 0 4 -18z"/>
<path d="M56 56076 l-49 -11 -5 -12 -4 -13 9 0 c4 1 32 6 61 13 l53 13 0 9 c1
14 -11 14 -65 1z"/>
<path d="M63777 56004 l-19 -25 6 -6 6 -6 20 18 c20 18 27 45 13 45 -5 0 -16
-12 -26 -26z"/>
<path d="M63355 55928 c-159 -33 -292 -62 -294 -64 -2 -2 -2 -7 2 -10 l6 -6
305 63 306 62 0 9 0 8 -17 -1 c-10 0 -148 -28 -308 -61z"/>
<path d="M63062 55910 l0 -25 5 13 c2 6 2 18 0 25 l-5 12 0 -25z"/>
<path d="M36430 55814 c-47 -19 -114 -42 -150 -50 l-65 -16 -32 6 -33 5 0 -10
0 -9 53 0 c28 0 70 5 92 11 48 13 216 79 230 91 l9 8 -9 0 c-6 -1 -48 -17 -95
-36z"/>
<path d="M25990 55662 c0 -13 516 -382 535 -382 16 0 1 22 -24 35 -17 8 -132
88 -258 178 -125 90 -234 167 -240 171 l-13 7 0 -9z"/>
<path d="M51535 55270 c55 -4 161 -7 235 -7 l135 0 -100 7 c-55 4 -161 7 -235
7 l-135 0 100 -7z"/>
<path d="M26590 55246 c0 -9 84 -85 89 -80 2 2 -4 13 -15 25 -22 24 -74 63
-74 55z"/>
<path d="M85170 55004 c0 -5 9 -41 19 -79 11 -39 38 -153 61 -255 23 -102 65
-268 92 -370 27 -102 53 -202 59 -224 6 -21 13 -36 15 -33 3 3 -17 90 -45 194
-28 103 -73 285 -100 403 -63 276 -101 412 -101 364z"/>
<path d="M53202 54904 c-42 -72 -261 -404 -266 -404 -3 0 -68 43 -145 96 -78
52 -141 92 -141 87 0 -4 63 -50 140 -102 l139 -94 -6 -11 c-4 -6 -61 -94 -128
-196 -66 -102 -125 -191 -129 -199 l-9 -14 10 6 c5 3 67 94 139 201 l129 196
13 0 13 0 -6 9 -6 10 118 179 c65 99 132 203 150 231 l32 51 -10 0 c-5 0 -22
-21 -37 -46z"/>
<path d="M53285 54930 c4 -14 9 -32 11 -41 l5 -16 -125 -188 c-69 -104 -123
-192 -120 -195 3 -2 10 3 16 14 6 10 64 99 129 197 l119 180 -20 37 -21 37 6
-25z"/>
<path d="M81195 54545 c-225 -56 -423 -105 -439 -109 -15 -4 -26 -9 -23 -12 4
-4 867 204 876 212 15 13 -46 0 -414 -91z"/>
<path d="M55015 54523 c-15 -48 -47 -152 -71 -231 -25 -79 -44 -147 -42 -153
2 -6 37 96 77 226 l74 235 -6 6 -5 6 -27 -89z"/>
<path d="M50140 54569 l0 -10 10 6 c6 3 10 8 10 11 0 2 -4 4 -10 4 -5 0 -10
-5 -10 -11z"/>
<path d="M51885 54403 c-165 -215 -178 -233 -168 -232 4 0 24 21 43 47 20 26
85 111 144 190 60 78 107 144 105 147 -3 2 -59 -66 -124 -152z"/>
<path d="M51965 54337 c-66 -88 -131 -175 -144 -194 l-24 -33 6 -6 5 -6 138
184 c75 101 141 188 146 195 l9 11 -8 5 -8 5 -120 -161z"/>
<path d="M53037 54470 c7 -8 122 -84 255 -171 l243 -157 8 5 8 5 -18 13 c-83
57 -476 307 -490 312 l-18 6 12 -13z"/>
<path d="M24338 54284 c-158 -120 -196 -154 -170 -154 10 0 356 270 360 281
l4 9 -9 0 c-4 0 -88 -61 -185 -136z"/>
<path d="M49125 54244 c-214 -108 -279 -144 -272 -150 5 -5 330 155 437 215
l55 31 -15 -1 c-8 0 -100 -43 -205 -95z"/>
<path d="M6191 53914 c0 -54 4 -207 8 -338 l7 -240 -6 -53 -6 -53 7 0 6 0 6
59 6 59 -10 328 c-5 181 -12 330 -14 333 -3 2 -5 -40 -4 -95z"/>
<path d="M21210 53980 c0 -3 55 -16 123 -29 l122 -23 75 -30 c41 -17 96 -42
122 -57 l48 -26 11 -28 12 -28 -6 -92 c-4 -51 -9 -128 -12 -172 -9 -134 4 -70
19 93 l13 153 -6 27 c-3 15 -10 34 -16 43 -14 23 -79 61 -160 94 l-70 28 -137
27 -138 27 0 -7z"/>
<path d="M50720 53921 c0 -4 -17 -19 -37 -33 l-38 -25 -215 -88 c-118 -48
-219 -92 -225 -98 l-10 -10 15 5 c82 29 454 188 483 206 l37 25 0 13 c0 8 -2
14 -5 14 -3 0 -5 -4 -5 -9z"/>
<path d="M80670 53627 c-246 -60 -257 -63 -249 -71 4 -5 489 113 498 121 15
12 -31 3 -249 -50z"/>
<path d="M52345 53629 c-11 -17 1 -21 15 -4 l12 15 -10 0 c-6 0 -14 -5 -17
-11z"/>
<path d="M29563 53492 c-112 -36 -203 -69 -203 -73 0 -8 401 120 415 132 l9 9
-9 -1 c-6 -1 -101 -31 -212 -67z"/>
<path d="M50648 53372 c-87 -42 -158 -79 -158 -84 0 -6 315 143 328 157 l5 5
-9 -1 c-5 0 -80 -35 -166 -77z"/>
<path d="M51310 53446 c0 -2 22 -18 49 -36 27 -17 68 -51 90 -75 l41 -45 0
-14 0 -15 -22 -12 c-38 -19 -69 -52 -84 -88 -8 -19 -12 -36 -10 -39 3 -2 11
11 19 30 l14 34 32 27 33 27 19 0 19 0 0 9 c0 46 -56 114 -138 167 -51 33 -62
38 -62 30z"/>
<path d="M51967 53433 c-4 -3 -7 -10 -7 -14 l0 -7 20 5 20 5 -6 9 c-6 11 -18
12 -27 2z"/>
<path d="M53851 53318 c-89 -43 -161 -81 -159 -84 3 -2 83 34 179 80 96 47
167 85 159 84 -8 0 -89 -36 -179 -80z"/>
<path d="M31396 53332 c5 -5 63 -33 129 -62 66 -29 164 -75 218 -101 l97 -49
0 8 c0 9 -151 83 -338 166 -101 46 -125 54 -106 38z"/>
<path d="M64578 53231 c-109 -21 -201 -41 -205 -46 l-8 -8 25 6 c14 3 106 20
205 38 l180 32 10 8 9 9 -9 -1 c-6 -1 -99 -18 -207 -38z"/>
<path d="M52134 53218 l-19 -21 25 13 c33 17 33 17 22 24 l-9 6 -19 -22z"/>
<path d="M49360 53138 c0 -14 23 -58 32 -58 4 0 8 3 8 8 -1 9 -39 59 -40 50z"/>
<path d="M51170 53055 c-69 -35 -122 -64 -118 -64 4 -1 62 26 130 59 l123 61
25 -6 25 -6 35 -35 36 -34 19 -55 18 -55 10 0 9 0 -7 18 c-4 9 -14 35 -21 58
l-15 41 -38 37 -38 37 -34 4 -34 5 -125 -65z"/>
<path d="M30212 53006 l-2 -88 -39 -47 c-21 -25 -52 -69 -69 -97 l-30 -51 -3
-47 -4 -46 7 0 8 0 0 37 0 36 31 56 c18 31 49 77 71 103 l39 47 -4 93 -3 93
-2 -89z"/>
<path d="M51480 52901 c0 -5 13 -19 29 -30 l29 -21 24 1 23 0 -24 10 c-13 5
-36 18 -52 30 l-29 20 0 -10z"/>
<path d="M77735 52775 l-190 -73 5 -9 c6 -10 -5 -14 213 68 l187 72 0 8 c0 16
-21 9 -215 -66z"/>
<path d="M84211 52798 c-1 -9 19 -94 45 -190 62 -239 74 -281 80 -276 3 4
-108 441 -120 473 l-4 10 -1 -17z"/>
<path d="M31232 52608 c-106 -94 -190 -173 -188 -176 3 -2 85 67 183 154 97
88 184 164 192 171 l16 11 -5 6 -6 5 -192 -171z"/>
<path d="M51106 52610 l-189 -98 -10 -19 c-6 -10 -15 -21 -21 -26 l-11 -7 -27
2 -28 3 -190 -95 c-104 -52 -190 -98 -190 -102 0 -5 86 35 191 88 l191 95 14
-5 13 -5 29 10 29 10 11 23 10 23 184 93 c195 99 194 98 187 104 -2 2 -89 -40
-193 -94z"/>
<path d="M52646 52644 c-59 -30 -106 -57 -104 -60 7 -6 227 99 228 109 0 12
-12 8 -124 -49z"/>
<path d="M22522 52333 l-41 -98 -36 -142 c-19 -78 -35 -150 -34 -160 0 -10 20
54 43 142 l43 160 37 85 37 85 16 13 17 12 -20 0 -21 0 -41 -97z"/>
<path d="M78040 52398 c0 -18 150 -431 161 -442 l9 -10 0 15 c0 8 -34 107 -75
220 -41 112 -75 210 -75 217 l0 12 -10 0 -10 0 0 -12z"/>
<path d="M27002 52263 l9 -68 -5 -160 -5 -160 8 30 9 30 1 136 c0 75 -2 164
-5 198 l-7 61 -7 0 -6 0 8 -67z"/>
<path d="M84310 52241 c9 -38 21 -74 24 -80 l7 -11 19 0 c15 0 481 110 531
126 l17 5 27 -113 c32 -135 34 -142 40 -136 3 2 -9 61 -26 131 l-31 127 -13 0
c-7 0 -133 -30 -281 -66 l-268 -65 -12 15 c-6 9 -17 43 -24 76 l-13 60 -7 0
-8 0 18 -69z"/>
<path d="M75031 51940 l93 -180 9 9 8 8 -48 86 c-27 46 -67 123 -89 171 l-39
86 -13 0 -13 0 92 -180z"/>
<path d="M82694 51885 c3 -16 8 -46 11 -66 l7 -36 -107 -24 c-59 -13 -113 -28
-121 -34 l-15 -10 12 -53 12 -52 8 0 8 0 -10 32 c-5 18 -9 43 -9 55 l0 21 116
28 116 27 -7 56 c-4 31 -11 63 -16 71 l-10 15 5 -30z"/>
<path d="M52085 51689 c-115 -60 -203 -109 -195 -107 20 4 420 207 420 213 0
11 -24 0 -225 -106z"/>
<path d="M69518 51655 c-61 -17 -248 -98 -248 -107 0 -14 21 -8 124 37 57 25
108 45 112 45 5 0 26 5 47 11 l37 10 0 9 0 10 -12 -1 c-7 0 -34 -7 -60 -14z"/>
<path d="M42012 51323 c2 -5 10 -21 18 -37 l14 -28 106 -72 c58 -39 122 -78
143 -88 l37 -17 0 8 c0 5 -12 14 -27 20 -16 7 -75 45 -133 84 l-105 72 -20 32
c-11 18 -24 32 -28 33 -5 0 -7 -3 -5 -7z"/>
<path d="M33444 51265 c3 -16 15 -115 27 -220 l22 -190 10 -10 10 -10 -6 25
c-3 14 -15 113 -28 220 l-22 195 -10 10 -9 10 6 -30z"/>
<path d="M33484 51260 c4 -19 20 -141 36 -270 42 -324 87 -606 96 -597 2 2 -9
87 -25 188 -17 101 -44 299 -62 439 l-32 255 -9 10 -10 10 6 -35z"/>
<path d="M25890 51043 l0 -10 188 -7 c103 -4 206 -9 230 -12 l42 -6 0 10 0 10
-42 6 c-24 3 -127 8 -230 12 l-188 7 0 -10z"/>
<path d="M27764 50695 l0 -190 3 98 c2 54 2 139 0 190 l-3 92 0 -190z"/>
<path d="M8956 50563 l-7 -7 143 -51 c79 -29 175 -68 213 -88 l70 -36 175
-161 c158 -145 198 -177 188 -151 -1 5 -83 82 -181 172 l-178 164 -82 39 c-63
30 -315 126 -331 126 -1 0 -6 -3 -10 -7z"/>
<path d="M31478 50513 l-118 -4 0 -10 0 -11 23 5 c12 3 89 7 172 9 l150 3 6
-50 c4 -28 12 -158 18 -290 11 -227 17 -292 26 -284 2 2 -4 142 -14 310 l-18
306 -7 11 -7 12 -57 -2 c-31 -1 -110 -4 -174 -5z"/>
<path d="M33575 50355 c2 -16 16 -109 31 -205 15 -96 29 -169 32 -162 5 16
-47 352 -59 377 l-9 20 5 -30z"/>
<path d="M36178 50006 l-216 -21 -9 -9 -8 -8 40 6 c22 3 124 13 228 22 l187
17 0 9 c0 4 -1 7 -2 7 -2 -1 -101 -11 -220 -23z"/>
<path d="M33713 49855 c3 -22 29 -211 57 -420 51 -373 57 -412 64 -404 6 6
-112 850 -120 857 l-7 7 6 -40z"/>
<path d="M22405 49750 l30 -8 165 -5 165 -5 -20 7 -20 8 -175 5 -175 6 30 -8z"/>
<path d="M35993 49745 c3 -11 11 -40 18 -65 7 -25 17 -49 22 -55 l9 -10 -5 20
c-3 11 -11 40 -18 65 -7 25 -17 50 -22 55 l-9 10 5 -20z"/>
<path d="M38196 49539 c-3 -8 -23 -86 -45 -175 -22 -89 -43 -170 -47 -180 l-7
-19 11 10 11 10 45 180 c25 99 43 181 41 184 -3 2 -7 -2 -9 -10z"/>
<path d="M91308 49324 l-7 -6 21 -41 c27 -54 216 -358 234 -376 40 -43 11 14
-92 179 -64 102 -124 200 -133 218 l-17 33 -6 -7z"/>
<path d="M42911 49294 c12 -35 213 -443 217 -439 6 5 -195 426 -210 440 l-10
10 3 -11z"/>
<path d="M30520 49209 c1 -71 30 -512 35 -517 7 -7 7 12 -10 287 -8 134 -17
246 -20 249 -3 3 -5 -6 -5 -19z"/>
<path d="M91408 48732 c-75 -86 -153 -179 -174 -207 -21 -27 -109 -125 -197
-217 -88 -93 -155 -168 -151 -168 14 0 314 317 369 390 41 53 169 204 279 327
10 13 17 25 15 27 -2 3 -66 -66 -141 -152z"/>
<path d="M91439 48708 c-68 -78 -153 -178 -188 -223 -35 -44 -124 -141 -198
-216 -73 -75 -133 -141 -133 -145 0 -5 54 45 121 111 l121 120 81 100 c73 91
242 288 305 357 14 15 23 30 20 33 -2 3 -61 -59 -129 -137z"/>
<path d="M36015 48720 c-38 -5 -266 -18 -505 -30 -239 -13 -437 -24 -439 -26
-2 -2 -2 -5 0 -7 2 -2 231 9 509 24 l505 28 25 10 25 10 -25 -1 c-14 0 -56 -4
-95 -8z"/>
<path d="M34470 48630 l0 -10 13 0 c6 0 19 5 27 10 l15 10 -27 0 -28 0 0 -10z"/>
<path d="M34088 48616 l-196 -11 -9 -9 -8 -8 75 6 c41 3 163 11 270 17 107 5
196 12 199 15 6 6 -105 3 -331 -10z"/>
<path d="M33595 48549 c-71 -5 -139 -10 -150 -13 -29 -6 264 5 360 14 l80 7
-80 0 c-44 0 -138 -4 -210 -8z"/>
<path d="M37845 48147 c-175 -8 -206 -11 -194 -20 2 -2 65 0 139 4 74 4 177 9
228 10 l92 3 0 8 0 8 -37 -2 c-21 0 -123 -5 -228 -11z"/>
<path d="M30743 48141 l-121 -6 -7 -7 -7 -7 143 6 c79 3 169 9 199 13 l55 8
-70 -1 c-38 0 -125 -3 -192 -6z"/>
<path d="M29156 48064 c-126 -7 -240 -15 -255 -18 -29 -5 185 1 377 11 l122 6
0 9 c0 4 -3 7 -7 7 -5 -1 -111 -8 -237 -15z"/>
<path d="M31817 47600 c3 -96 9 -197 14 -225 l7 -50 -5 175 c-3 96 -9 198 -14
225 l-7 50 5 -175z"/>
<path d="M90609 47741 c-8 -11 -141 -164 -297 -340 -155 -177 -279 -321 -274
-321 7 0 459 508 576 648 l28 32 -10 0 c-5 0 -16 -9 -23 -19z"/>
<path d="M74830 47606 c0 -20 11 -46 19 -46 l8 0 -5 30 -4 30 -9 0 -9 0 0 -14z"/>
<path d="M37083 47315 c4 -38 10 -121 13 -183 l7 -113 9 -5 9 -6 -6 64 c-3 35
-10 116 -15 182 -5 65 -12 121 -16 125 l-7 6 6 -70z"/>
<path d="M20667 47133 l-17 -48 -29 -162 -28 -163 7 0 7 0 27 160 28 161 19
49 19 50 -8 0 c-4 0 -16 -21 -25 -47z"/>
<path d="M26931 46859 c-106 -4 -196 -11 -199 -14 l-6 -6 234 7 235 7 20 8 20
8 -55 -1 c-30 -1 -142 -5 -249 -9z"/>
<path d="M34386 46386 c3 -9 11 -16 16 -16 l10 0 -4 12 c-2 6 -10 14 -16 16
l-12 4 6 -16z"/>
<path d="M93091 46095 l15 -15 75 -13 76 -14 24 -16 23 -17 51 0 50 0 63 32
c34 18 62 35 62 39 0 4 -30 -8 -67 -27 l-68 -34 -37 0 -37 0 -35 21 -35 20
-68 10 -68 10 -9 9 c-6 6 -15 10 -20 10 l-10 0 15 -15z"/>
<path d="M93060 46071 c0 -4 16 -15 35 -24 l36 -17 32 0 32 0 53 -25 54 -25
54 0 54 0 71 36 c93 47 83 55 -12 9 l-73 -35 -41 0 -40 0 -47 25 -47 25 -38 0
-38 0 -42 20 -43 19 0 -8z"/>
<path d="M81370 45886 c-4 -13 -14 -43 -20 -67 -6 -24 -20 -68 -32 -97 l-21
-53 -29 -6 -29 -6 8 -21 c8 -24 8 -41 -2 -76 l-6 -25 15 25 15 25 -5 32 -6 32
25 6 26 7 15 38 c19 48 65 210 60 210 -3 0 -9 -11 -14 -24z"/>
<path d="M48070 45435 c-195 -62 -403 -129 -462 -150 l-108 -39 0 -8 c0 -14
27 -9 117 25 48 18 253 85 455 148 l368 114 0 13 c0 6 -3 11 -7 11 -5 -1 -168
-52 -363 -114z"/>
<path d="M44380 45340 l-15 -10 12 0 c6 0 15 5 18 10 8 12 4 12 -15 0z"/>
<path d="M44295 45298 c-11 -7 -45 -18 -75 -25 l-55 -13 -85 0 c-47 -1 -103
-5 -125 -9 l-40 -9 75 -1 c41 0 115 4 164 9 l90 11 43 19 c24 10 43 21 43 24
0 9 -13 7 -35 -6z"/>
<path d="M16960 44875 l0 -20 20 -25 c28 -37 32 -20 4 25 l-24 40 0 -20z"/>
<path d="M26150 44510 l-35 -7 72 -2 72 -1 123 -49 c68 -27 224 -97 347 -155
124 -59 229 -105 234 -103 11 3 -466 228 -605 284 l-108 43 -32 -1 c-18 -1
-49 -5 -68 -9z"/>
<path d="M26170 44470 l-55 -7 71 -1 70 -2 50 -16 c27 -9 179 -79 338 -155
l289 -140 11 4 11 5 -160 77 c-348 168 -530 248 -559 243 -6 -1 -36 -4 -66 -8z"/>
<path d="M87732 44199 l-43 -102 29 -31 c16 -17 50 -64 76 -105 l47 -73 6 6 6
6 -63 95 c-34 52 -67 95 -71 95 -15 0 -10 19 27 105 l36 84 -4 11 -3 11 -43
-102z"/>
<path d="M50800 43274 c-80 -18 -310 -84 -330 -95 l-15 -8 13 -1 c8 0 75 18
150 39 75 22 165 45 200 52 l62 12 0 8 c0 11 3 11 -80 -7z"/>
<path d="M49935 43034 l-90 -25 -30 -33 c-16 -19 -38 -48 -48 -65 l-18 -31 8
0 c5 0 19 18 33 40 13 22 36 48 51 59 l26 20 84 22 c46 12 88 26 94 31 l9 8
-14 -1 c-8 0 -55 -12 -105 -25z"/>
<path d="M10490 42985 c0 -11 5 -27 10 -35 l10 -15 0 20 c0 11 -5 27 -10 35
l-10 15 0 -20z"/>
<path d="M41778 42847 c-98 -44 -176 -82 -174 -84 3 -4 341 143 355 154 2 2 2
5 0 6 -2 2 -84 -32 -181 -76z"/>
<path d="M46740 42649 c-113 -60 -199 -109 -192 -109 14 0 390 195 407 211 l9
9 -9 -1 c-6 -1 -102 -50 -215 -110z"/>
<path d="M51515 42048 c7 -46 20 -145 30 -220 l18 -138 7 0 6 0 -28 203 c-15
111 -28 210 -28 220 l0 17 -8 0 -9 0 12 -82z"/>
<path d="M56724 41115 l0 -210 3 108 c2 59 2 154 0 210 l-3 102 0 -210z"/>
<path d="M57313 40883 c65 -2 168 -2 230 0 l112 3 -230 0 -230 0 118 -3z"/>
<path d="M46518 40094 l-6 -9 14 -25 13 -25 0 15 c0 8 -4 24 -8 34 l-8 20 -5
-10z"/>
<path d="M84815 39969 c5 -8 50 -75 100 -149 51 -74 167 -260 260 -412 93
-153 170 -276 173 -273 12 12 -497 821 -530 841 l-11 7 8 -14z"/>
<path d="M84780 39956 c0 -4 42 -69 93 -144 51 -75 110 -167 132 -204 21 -38
43 -68 47 -68 14 0 -217 364 -263 415 l-9 9 0 -8z"/>
<path d="M58120 39330 l0 -220 10 0 10 0 0 220 0 220 -10 0 -10 0 0 -220z"/>
<path d="M52068 39408 c-3 -7 -20 -93 -38 -190 l-34 -178 -16 0 c-9 0 -99 18
-200 40 -101 23 -191 39 -200 38 l-15 -4 200 -42 c110 -24 207 -46 215 -51 8
-4 20 -6 27 -4 l12 4 -5 13 -5 13 35 183 c32 163 39 219 24 178z"/>
<path d="M52891 38816 c3 -3 279 -57 614 -120 336 -64 621 -119 635 -122 l25
-5 -10 9 -10 9 -616 117 c-596 112 -648 121 -638 112z"/>
<path d="M85620 38696 c0 -13 262 -428 267 -423 4 5 -238 400 -258 422 l-9 9
0 -8z"/>
<path d="M60223 38358 c-100 -143 -350 -396 -476 -483 l-59 -39 11 -4 11 -4
53 38 c128 94 366 337 475 486 l43 59 -3 10 -3 10 -52 -73z"/>
<path d="M87860 38360 c-25 -15 -109 -67 -188 -115 -79 -48 -141 -89 -139 -92
4 -3 359 207 376 223 2 2 2 6 0 8 -2 2 -24 -9 -49 -24z"/>
<path d="M87745 38244 c-99 -62 -184 -115 -190 -117 -5 -2 -8 -7 -5 -10 l5 -6
185 115 c102 63 187 119 188 124 5 14 16 20 -183 -106z"/>
<path d="M65179 37823 c-18 -27 -85 -103 -148 -171 l-114 -123 7 -7 7 -7 91
95 c94 99 208 236 208 251 0 20 -19 6 -51 -38z"/>
<path d="M57146 37824 c-4 -9 -5 -18 -4 -19 18 -15 387 -225 395 -225 10 0 27
30 21 35 -18 15 -387 225 -395 225 -6 0 -14 -7 -17 -16z"/>
<path d="M60281 37817 c2 -1 15 -11 29 -22 l25 -20 -19 23 c-11 12 -24 22 -29
22 -6 0 -8 -1 -6 -3z"/>
<path d="M61298 37712 c-115 -25 -208 -49 -208 -53 0 -6 440 87 448 96 11 11
-39 2 -240 -43z"/>
<path d="M86157 37278 c-125 -83 -226 -153 -223 -155 3 -4 439 278 461 298 l9
9 -9 0 c-6 -1 -113 -69 -238 -152z"/>
<path d="M86187 37247 c-125 -82 -226 -152 -223 -154 3 -3 105 61 228 142 243
161 233 153 227 159 -2 2 -107 -64 -232 -147z"/>
<path d="M64316 37196 l-210 -93 -4 -12 -4 -12 33 14 c148 63 386 170 393 178
26 25 -16 9 -208 -75z"/>
<path d="M59523 37172 l12 -34 36 -39 36 -39 29 0 c35 0 254 62 254 72 l0 7
-12 -4 c-7 -2 -59 -18 -116 -35 l-103 -31 -30 6 -29 7 -33 43 c-17 23 -37 51
-44 61 l-12 19 12 -33z"/>
<path d="M40360 36563 c-118 -25 -217 -47 -219 -49 -2 -2 -2 -6 1 -9 6 -7 451
86 463 96 l9 9 -19 -1 c-11 0 -117 -21 -235 -46z"/>
<path d="M40975 36485 c3 -17 30 -203 61 -415 61 -431 65 -453 71 -447 2 3
-24 200 -58 438 l-61 434 -9 10 -9 9 5 -29z"/>
<path d="M39813 36283 l7 -6 7 6 6 7 -13 0 -13 0 6 -7z"/>
<path d="M34615 36031 l-50 -7 -25 -13 c-45 -25 -106 -85 -268 -263 -88 -97
-163 -181 -166 -187 -21 -34 18 6 150 152 161 179 219 236 279 275 l40 27 80
0 80 0 38 -24 c45 -27 61 -22 20 7 -27 19 -97 43 -118 41 -5 -1 -32 -5 -60 -8z"/>
<path d="M80862 35995 c18 -39 252 -414 256 -410 5 5 -224 383 -246 405 -8 8
-13 11 -10 5z"/>
<path d="M80168 35657 c-119 -61 -215 -113 -213 -115 3 -4 179 84 345 172 58
31 101 56 95 56 -5 0 -108 -51 -227 -113z"/>
<path d="M41395 35664 c-159 -29 -296 -55 -302 -56 l-12 -3 8 -13 8 -14 304
56 c167 31 307 56 310 56 3 0 6 7 6 15 l0 15 -16 -1 c-9 0 -146 -25 -306 -55z"/>
<path d="M84916 35603 c-21 -6 -464 -288 -486 -311 l-15 -15 15 8 c8 4 119 75
246 156 l231 149 27 0 26 0 20 -20 c11 -11 33 -46 49 -78 16 -32 56 -94 88
-137 32 -44 142 -215 242 -380 101 -165 198 -318 214 -340 17 -22 32 -42 34
-44 2 -2 5 -2 8 1 l6 5 -24 29 c-14 16 -110 170 -216 341 -105 172 -217 348
-248 390 -32 43 -75 111 -96 150 l-38 72 -22 16 c-22 15 -28 16 -61 8z"/>
<path d="M60882 35068 c-80 -195 -223 -577 -222 -596 1 -18 25 41 89 219 38
107 106 281 151 388 44 107 79 199 77 204 -1 5 -44 -92 -95 -215z"/>
<path d="M81446 35198 c17 -27 317 -358 322 -354 2 3 -69 86 -157 185 -147
164 -186 205 -165 169z"/>
<path d="M52365 34840 c-88 -83 -162 -156 -164 -163 -4 -12 196 173 284 262
92 94 40 52 -120 -99z"/>
<path d="M41606 34708 c42 -123 81 -227 87 -233 l10 -10 -5 15 c-46 144 -155
450 -160 450 l-7 0 75 -222z"/>
<path d="M81070 34474 c-124 -68 -219 -124 -213 -124 7 0 110 52 228 116 l215
116 0 9 c0 5 -1 8 -2 8 -2 -1 -104 -57 -228 -125z"/>
<path d="M54601 34537 c-1 -5 8 -92 20 -194 l20 -186 -11 -7 c-6 -4 -95 -17
-198 -30 l-187 -22 -10 -10 -10 -10 20 5 c11 3 106 16 210 28 105 12 197 24
205 26 l14 4 -10 7 -11 7 -18 165 c-14 141 -31 245 -34 217z"/>
<path d="M30081 34314 c13 -39 195 -404 202 -404 4 0 -38 91 -94 203 -91 181
-120 235 -108 201z"/>
<path d="M58707 34054 l-138 -87 -18 -26 c-10 -14 -23 -45 -28 -68 l-11 -43 8
0 8 0 7 37 7 37 19 28 20 27 122 77 c67 42 131 83 142 91 l19 13 -9 0 c-6 0
-72 -39 -148 -86z"/>
<path d="M34711 33939 l-84 -29 -23 -21 c-21 -19 -71 -101 -187 -304 l-46 -80
-31 -30 c-16 -16 -30 -33 -30 -39 l0 -10 40 39 41 40 96 168 c53 93 107 182
120 197 l24 29 82 27 82 28 30 -2 30 -2 -15 10 c-22 14 -35 12 -129 -21z"/>
<path d="M53090 33900 c-102 -16 -189 -29 -194 -29 -5 -1 -7 -3 -4 -6 5 -5
430 54 437 61 9 8 -59 1 -239 -26z"/>
<path d="M73086 33443 c-3 -16 -15 -90 -26 -166 l-20 -138 0 -103 0 -103 21
-154 c21 -154 24 -168 35 -156 l6 6 -21 153 -21 154 0 102 0 103 20 132 c11
73 22 147 25 165 l6 32 -10 0 -9 0 -6 -27z"/>
<path d="M83985 33318 c-105 -65 -196 -123 -204 -127 l-14 -8 10 -6 10 -6 194
122 c179 112 207 132 197 142 -2 2 -89 -51 -193 -117z"/>
<path d="M68880 31850 l-115 -19 -87 0 -88 -1 0 -20 0 -19 63 -3 62 -3 166 24
166 24 -5 19 -4 18 -22 -1 c-11 -1 -73 -9 -136 -19z"/>
<path d="M98907 31692 c78 -120 270 -392 276 -392 4 0 -33 60 -83 133 -51 72
-115 167 -144 209 -28 43 -55 78 -59 78 l-9 0 19 -28z"/>
<path d="M93735 28919 c-104 -77 -192 -145 -194 -150 -2 -6 48 26 110 72 304
221 304 221 282 218 -5 0 -93 -63 -198 -140z"/>
<path d="M95310 26779 c-96 -71 -177 -134 -179 -140 -3 -9 325 226 359 257
l14 14 -9 -1 c-6 0 -89 -58 -185 -130z"/>
<path d="M89606 21452 l-8 -13 52 -215 52 -216 8 9 9 8 -50 210 c-27 116 -51
214 -52 220 l-3 9 -8 -12z"/>
<path d="M15540 18591 c0 -32 52 -456 56 -460 2 -2 7 -2 10 1 l5 6 -27 236
-28 236 -8 0 -8 0 0 -19z"/>
<path d="M92371 16559 c-89 -67 -160 -124 -157 -126 2 -2 78 50 168 118 188
140 174 129 161 129 -5 0 -82 -55 -172 -121z"/>
<path d="M96675 13130 c-154 -181 -281 -334 -283 -342 l-4 -13 9 10 c12 12
531 622 552 648 8 10 12 19 10 21 -2 2 -130 -144 -284 -324z"/>
<path d="M24872 4078 l5 -13 97 -43 97 -42 100 -16 100 -16 272 17 272 18 270
1 270 1 564 -58 564 -58 10 10 11 11 -18 0 c-39 0 -828 81 -986 101 l-165 21
-310 -6 -310 -7 -220 -14 -219 -15 -98 15 -98 15 -88 36 c-48 21 -91 41 -96
46 -6 4 -14 8 -19 8 l-9 0 4 -12z"/>
<path d="M23015 2281 c3 -5 79 -68 170 -140 l164 -130 6 8 5 9 -165 131 c-91
72 -170 131 -176 131 l-10 0 6 -9z"/>
<path d="M22984 2232 c7 -11 313 -252 320 -252 21 0 -12 31 -149 138 -85 67
-160 122 -166 122 l-10 0 5 -8z"/>
</g>
</svg>
