<?xml version="1.0" standalone="no"?>
<!DOCTYPE svg PUBLIC "-//W3C//DTD SVG 20010904//EN"
 "http://www.w3.org/TR/2001/REC-SVG-20010904/DTD/svg10.dtd">
<svg version="1.0" xmlns="http://www.w3.org/2000/svg"
 width="7500.000000pt" height="7500.000000pt" viewBox="0 0 7500.000000 7500.000000"
 preserveAspectRatio="xMidYMid meet">
<metadata>
Created by potrace 1.16, written by Peter Selinger 2001-2019
</metadata>
<g transform="translate(0.000000,7500.000000) scale(0.075000,-0.075000)"
fill="#000000" stroke="none">
<path d="M90155 99895 l-37 -106 6 -6 6 -7 9 10 c4 5 24 55 44 112 l36 102
-13 0 -13 0 -38 -105z"/>
<path d="M82505 99515 c28 -22 387 -207 392 -201 4 4 -237 133 -357 190 l-55
27 20 -16z"/>
<path d="M83713 98873 l7 -11 77 -11 c43 -6 167 -15 275 -21 l196 -9 141 6
141 6 0 6 0 6 -247 -3 -248 -3 -155 15 c-85 8 -164 18 -174 22 l-19 7 6 -10z"/>
<path d="M13693 95571 c-13 -11 -60 -39 -105 -64 l-83 -44 -95 -23 c-52 -12
-99 -26 -104 -31 l-10 -9 7 -6 7 -7 102 27 103 27 80 41 c76 39 135 82 135
100 0 13 -13 9 -37 -11z"/>
<path d="M98216 94743 l-149 -154 10 -10 10 -10 148 156 148 156 -9 8 -9 9
-149 -155z"/>
<path d="M87837 93332 c-10 -10 -17 -22 -17 -27 l0 -8 21 19 21 18 70 -72 70
-72 19 0 c10 0 21 5 24 10 l6 10 29 0 c16 0 41 -5 56 -10 42 -16 42 -2 -1 16
l-38 16 -45 -12 -45 -11 -71 70 c-40 39 -74 71 -77 71 -3 0 -13 -8 -22 -18z"/>
<path d="M20285 93249 l-7 -10 194 -93 c106 -52 203 -97 216 -101 l22 -6 0 11
0 11 -62 26 c-35 15 -129 60 -210 100 l-147 72 -6 -10z"/>
<path d="M86815 92733 c16 -17 226 -153 236 -153 12 0 68 62 69 74 l0 10 -33
-32 c-18 -18 -36 -32 -40 -32 -3 0 -52 30 -109 66 -56 36 -109 68 -117 71
l-16 6 10 -10z"/>
<path d="M25230 91737 l0 -12 258 -73 258 -72 40 1 39 1 -295 84 c-162 46
-296 84 -297 84 -2 0 -3 -6 -3 -13z"/>
<path d="M94955 90729 c9 -17 19 -29 21 -26 7 7 -18 57 -28 57 l-9 0 16 -31z"/>
<path d="M31490 89921 c14 -4 50 -10 80 -14 l55 -5 -50 13 c-27 7 -63 13 -80
13 l-30 0 25 -7z"/>
<path d="M31653 89893 l7 -6 7 6 6 7 -13 0 -13 0 6 -7z"/>
<path d="M94065 89546 c176 -174 324 -316 329 -316 12 0 -623 624 -638 628 -6
2 133 -139 309 -312z"/>
<path d="M33720 89617 l0 -14 104 -63 c57 -34 140 -92 185 -128 l82 -65 9 9 9
9 -81 65 c-45 36 -118 87 -162 113 -45 27 -96 58 -113 69 l-33 20 0 -15z"/>
<path d="M86145 88978 c187 -6 419 -11 515 -12 l175 -2 105 -18 c58 -10 152
-29 209 -42 57 -14 106 -23 108 -20 3 3 -12 9 -33 15 -126 33 -172 42 -289 61
l-130 21 -145 -1 c-80 -1 -305 1 -500 3 l-355 4 340 -9z"/>
<path d="M86330 88940 c25 -4 97 -11 160 -14 l115 -7 85 10 85 9 -140 -1 c-77
-1 -187 1 -245 5 l-105 7 45 -9z"/>
<path d="M84820 88835 c-30 -7 -124 -28 -209 -46 l-155 -33 12 -4 c16 -5 404
78 417 89 l9 9 -9 -1 c-6 0 -35 -7 -65 -14z"/>
<path d="M79440 88332 l0 -8 63 -21 c34 -11 126 -44 205 -72 l143 -50 -3 11
-4 12 -190 67 c-192 69 -214 75 -214 61z"/>
<path d="M84807 87985 c-53 -107 -93 -195 -89 -195 10 0 198 378 191 384 -2 3
-48 -82 -102 -189z"/>
<path d="M80270 88042 l0 -9 206 -72 206 -73 6 6 c3 3 3 8 1 10 -5 5 -405 146
-414 146 -3 0 -5 -4 -5 -8z"/>
<path d="M84447 87194 l-97 -194 10 0 10 0 95 190 95 189 -8 5 -8 5 -97 -195z"/>
<path d="M84277 86933 c-20 -48 -41 -94 -45 -101 l-9 -13 -257 71 c-241 66
-286 76 -275 66 6 -7 516 -146 533 -146 l13 0 42 96 c23 52 41 100 39 105 l-3
10 -38 -88z"/>
<path d="M80842 85635 c5 -5 406 -145 416 -145 27 0 -42 29 -203 84 -171 59
-228 76 -213 61z"/>
<path d="M86657 84335 c-28 -195 -31 -222 -22 -213 8 8 57 357 53 381 l-3 22
-28 -190z"/>
<path d="M46130 83238 l-95 -61 -90 -37 c-49 -20 -99 -40 -109 -44 -10 -3 -16
-9 -14 -12 3 -3 48 11 99 31 l94 36 105 66 c123 78 114 72 109 78 -3 2 -47
-23 -99 -57z"/>
<path d="M76685 82773 c-121 -196 -230 -373 -243 -395 l-23 -38 8 0 c11 0 485
770 481 781 -2 5 -102 -152 -223 -348z"/>
<path d="M92631 82604 c-133 -190 -241 -348 -238 -350 2 -3 114 151 247 341
133 190 241 348 238 350 -2 3 -113 -151 -247 -341z"/>
<path d="M17570 82242 l0 -7 221 -58 221 -58 6 6 c3 3 3 7 1 9 -4 4 -431 116
-443 116 -3 0 -6 -3 -6 -8z"/>
<path d="M18470 82022 l0 -8 228 -43 c125 -23 256 -52 292 -63 l65 -21 147
-73 147 -74 5 8 5 8 -167 82 c-92 45 -183 86 -202 91 -41 12 -490 101 -508
101 -7 0 -12 -4 -12 -8z"/>
<path d="M75246 81818 c-76 -221 -85 -251 -60 -198 26 57 142 400 135 400 -3
0 -37 -91 -75 -202z"/>
<path d="M33570 81254 c0 -3 43 -26 95 -50 l96 -46 87 -14 c48 -8 95 -14 105
-14 l17 0 0 10 0 10 -27 0 c-16 1 -62 7 -104 14 l-77 14 -87 41 c-86 40 -105
47 -105 35z"/>
<path d="M34445 81163 c-11 -2 -30 -9 -42 -15 l-22 -11 5 -9 6 -9 13 11 12 10
39 2 c22 2 49 -1 62 -5 l22 -8 0 9 0 10 -31 11 c-18 6 -35 10 -38 10 -3 -1
-15 -3 -26 -6z"/>
<path d="M95859 80999 c-63 -89 -134 -189 -158 -223 -24 -33 -95 -133 -156
-222 -62 -88 -149 -211 -194 -272 -45 -62 -78 -112 -73 -112 17 0 710 975 700
985 -2 3 -56 -68 -119 -156z"/>
<path d="M78915 80141 c-104 -76 -191 -144 -193 -150 l-4 -11 10 0 c13 0 387
273 391 285 7 25 -28 4 -204 -124z"/>
<path d="M42355 79550 l-30 -8 33 -1 32 -1 0 10 c0 6 -1 9 -2 9 -2 -1 -16 -5
-33 -9z"/>
<path d="M32951 79184 c-19 -9 -109 -37 -200 -63 l-165 -48 -4 -11 -3 -10 171
49 c93 27 194 60 222 73 l53 24 -20 0 c-11 0 -35 -6 -54 -14z"/>
<path d="M13206 78723 c-3 -21 -8 -63 -12 -93 -12 -105 -43 -237 -119 -503
-42 -148 -75 -273 -73 -279 2 -6 43 129 91 298 l87 309 14 90 c19 115 29 215
23 215 -3 0 -8 -17 -11 -37z"/>
<path d="M74540 77536 l0 -14 14 -5 14 -6 6 14 5 13 -15 6 c-22 8 -24 8 -24
-8z"/>
<path d="M74380 76543 c0 -5 51 -38 112 -73 131 -76 128 -74 128 -63 0 5 -26
23 -57 41 -32 17 -86 48 -120 67 l-63 36 0 -8z"/>
<path d="M61690 75110 l0 -10 33 0 c17 -1 118 -7 222 -14 105 -7 193 -11 198
-9 4 2 7 9 7 14 l0 10 -7 -4 c-5 -2 -91 2 -193 9 -102 7 -202 13 -222 13 l-38
1 0 -10z"/>
<path d="M6180 74970 c0 -5 4 -10 9 -10 51 0 615 -45 741 -59 l165 -18 7 11 7
11 -7 2 c-44 13 -755 72 -874 73 l-48 0 0 -10z"/>
<path d="M36490 73269 c0 -8 4 -19 9 -24 5 -6 18 -37 29 -70 l20 -60 18 -142
18 -143 8 0 8 0 0 24 c0 14 -9 87 -20 163 l-20 138 -17 45 c-9 25 -24 54 -35
65 l-18 19 0 -15z"/>
<path d="M73285 72315 c-14 -32 -37 -84 -52 -117 l-26 -58 -13 0 c-7 0 -48 16
-90 35 -43 20 -81 34 -86 33 -5 -2 35 -23 87 -47 l96 -44 9 9 c14 15 111 236
106 242 -3 2 -17 -22 -31 -53z"/>
<path d="M73950 70770 l0 -10 235 0 235 0 0 10 0 10 -235 0 -235 0 0 -10z"/>
<path d="M74439 70680 l-6 -75 19 -115 c22 -140 28 -164 34 -157 3 3 -2 42
-12 88 l-16 84 -7 125 -7 125 -5 -75z"/>
<path d="M29825 70578 l-7 -18 7 -17 8 -18 4 18 c3 9 3 25 0 35 l-4 17 -8 -17z"/>
<path d="M69641 69994 c-159 -164 -185 -194 -162 -194 12 0 351 348 351 360 0
6 -4 10 -9 10 -5 0 -86 -79 -180 -176z"/>
<path d="M24023 69307 l-203 -10 0 -8 0 -9 78 1 c42 0 141 4 220 8 l144 9 11
11 11 11 -29 -2 c-17 -1 -121 -6 -232 -11z"/>
<path d="M0 67520 l0 -10 25 0 25 0 0 10 0 10 -25 0 -25 0 0 -10z"/>
<path d="M38888 66902 l-198 -15 0 -6 0 -6 219 15 219 15 8 8 7 7 -29 -1 c-16
-1 -118 -9 -226 -17z"/>
<path d="M45494 66772 c-96 -135 -218 -331 -210 -339 5 -5 12 5 90 134 30 51
90 141 134 200 43 59 82 114 86 121 l7 12 -8 0 c-4 0 -49 -58 -99 -128z"/>
<path d="M41300 66447 l1 -12 147 -89 c81 -49 216 -134 300 -188 85 -55 161
-102 170 -105 22 -7 -294 204 -475 317 l-143 89 0 -12z"/>
<path d="M52050 66302 l0 -11 238 -159 c130 -87 258 -170 284 -185 l46 -27 52
10 51 10 23 -15 23 -15 17 6 16 6 -6 9 -5 9 -10 -6 -10 -6 -24 16 -25 16 -45
-10 -45 -10 -48 24 c-27 14 -145 89 -263 169 -118 79 -226 152 -241 162 l-28
17 0 -10z"/>
<path d="M41550 66192 c0 -11 311 -215 317 -208 3 3 -21 22 -53 42 -33 21
-105 68 -161 106 l-103 68 0 -8z"/>
<path d="M48982 65719 c-73 -122 -131 -226 -130 -230 2 -5 63 91 136 212 73
122 131 226 130 230 -2 5 -63 -91 -136 -212z"/>
<path d="M49155 65933 c21 -21 324 -233 342 -240 l18 -6 -10 10 c-19 19 -327
234 -343 240 l-17 6 10 -10z"/>
<path d="M97606 65742 l-6 -9 61 -204 c64 -214 73 -239 90 -239 l11 0 -7 18
c-5 9 -36 111 -71 226 -35 115 -65 210 -68 213 -2 2 -7 0 -10 -5z"/>
<path d="M31644 65485 c-4 -9 -4 -18 -1 -21 2 -3 272 -36 598 -74 575 -67 719
-85 767 -96 l22 -4 0 20 0 20 -22 4 c-61 13 -208 32 -723 91 -308 36 -577 67
-597 71 l-38 6 -6 -17z"/>
<path d="M52451 64788 l-101 -232 9 -9 9 -9 10 18 c14 27 193 437 195 448 1 5
-3 10 -9 13 l-11 4 -102 -233z"/>
<path d="M3619 64900 c-4 -30 -5 -57 -3 -59 10 -11 15 12 12 60 l-3 54 -6 -55z"/>
<path d="M40145 64942 l10 -9 194 -27 c107 -14 197 -24 199 -21 6 6 -26 12
-203 35 -88 12 -171 23 -185 26 l-25 5 10 -9z"/>
<path d="M37060 64570 l0 -19 39 -11 c21 -6 113 -19 202 -30 90 -11 176 -22
190 -24 l27 -5 5 19 5 19 -27 5 c-14 3 -104 15 -199 26 -95 11 -184 25 -198
30 -14 6 -30 10 -35 10 l-9 0 0 -20z"/>
<path d="M40695 64505 c25 -66 83 -245 88 -272 l7 -33 -65 0 -65 0 0 -10 0
-10 68 -1 c37 -1 71 -1 76 0 5 1 110 -10 234 -24 123 -14 226 -24 229 -22 6 7
-42 14 -259 38 l-207 22 -7 41 c-8 52 -83 268 -97 281 l-10 10 8 -20z"/>
<path d="M1325 64476 l-50 -11 5 -10 5 -10 10 4 c6 2 33 6 61 8 l51 5 38 -68
c20 -38 53 -88 72 -112 l35 -42 9 6 9 5 -39 47 c-21 26 -53 75 -70 108 l-30
62 -28 9 -28 10 -50 -11z"/>
<path d="M34946 64349 c-25 -110 -76 -454 -76 -508 0 -53 10 -9 25 109 8 69
26 190 41 269 14 79 23 146 20 148 -3 3 -7 -5 -10 -18z"/>
<path d="M1597 64284 l-6 -6 162 -144 c145 -130 185 -161 175 -136 -3 9 -316
292 -322 292 -1 0 -5 -3 -9 -6z"/>
<path d="M79391 64144 c-107 -13 -197 -26 -199 -29 -15 -15 24 -13 214 10 115
14 215 25 222 25 l12 0 0 10 0 10 -27 -1 c-16 -1 -115 -12 -222 -25z"/>
<path d="M40664 64117 c-28 -17 -59 -42 -68 -54 l-17 -23 11 -20 c15 -28 209
-244 223 -249 l12 -4 -31 34 c-17 19 -67 76 -112 126 l-82 93 0 12 c1 22 23
44 78 77 28 18 52 35 52 37 0 9 -18 2 -66 -29z"/>
<path d="M89355 64064 c-36 -38 -65 -73 -65 -79 0 -5 29 21 63 58 34 37 67 67
72 67 6 -1 52 -50 104 -111 51 -60 97 -109 102 -109 10 0 -164 203 -196 230
l-16 13 -64 -69z"/>
<path d="M89371 64024 c-28 -32 -51 -62 -51 -67 0 -5 23 16 51 47 l51 56 185
-213 185 -212 39 -60 39 -60 0 13 c0 26 -85 137 -257 335 -97 111 -179 206
-183 210 l-7 8 -52 -57z"/>
<path d="M78950 64033 c-107 -13 -197 -26 -199 -29 -2 -2 -2 -7 1 -10 l6 -5
221 27 221 27 0 9 0 8 -27 -1 c-16 -1 -116 -12 -223 -26z"/>
<path d="M1892 63941 c2 -4 75 -72 162 -149 l159 -141 9 5 10 6 -9 8 c-4 4
-78 69 -163 144 -140 123 -178 152 -168 127z"/>
<path d="M41450 63743 l-24 -5 -78 -65 c-43 -36 -78 -67 -78 -69 0 -9 22 7 96
68 l71 58 37 0 38 0 55 -16 c30 -9 57 -14 59 -11 5 5 -79 32 -126 40 -14 3
-36 2 -50 0z"/>
<path d="M93050 63652 c0 -4 73 -80 163 -170 l163 -163 7 8 8 7 -163 163
c-152 152 -178 175 -178 155z"/>
<path d="M41270 63574 c0 -9 233 -273 254 -286 26 -17 24 -6 -3 20 -16 15 -75
79 -131 142 -57 63 -107 119 -111 125 l-9 9 0 -10z"/>
<path d="M43320 63485 l-23 -25 10 0 c5 0 20 11 33 25 l23 25 -10 0 c-5 0 -20
-11 -33 -25z"/>
<path d="M2550 63355 c0 -5 298 -267 318 -279 l12 -7 0 9 c0 6 -70 71 -155
146 -135 119 -175 149 -175 131z"/>
<path d="M41990 63346 c0 -11 133 -169 308 -366 l192 -215 0 -12 0 -13 15 0
15 0 0 13 0 12 103 91 c56 51 146 129 200 174 53 45 97 86 97 91 0 11 -239
-191 -342 -288 -36 -35 -68 -63 -71 -63 -7 0 -373 412 -446 503 -57 71 -71 85
-71 73z"/>
<path d="M41545 63140 c3 -5 11 -10 16 -10 l10 0 -6 10 c-3 6 -11 10 -16 10
l-10 0 6 -10z"/>
<path d="M33861 63115 c4 -4 391 -55 419 -55 7 0 11 2 8 5 -5 6 -377 55 -412
55 -11 0 -17 -2 -15 -5z"/>
<path d="M51260 63061 l0 -9 63 -25 c34 -14 110 -46 170 -71 l107 -45 0 8 0 8
-137 58 c-76 32 -153 64 -170 71 l-33 14 0 -9z"/>
<path d="M58665 62927 c-53 -29 -252 -162 -405 -271 l-55 -39 19 7 c10 3 103
65 207 136 l188 130 65 32 64 31 334 -27 c183 -14 351 -29 373 -32 l40 -6 -10
9 -10 10 -335 27 c-184 14 -353 26 -375 26 l-40 0 -60 -33z"/>
<path d="M17980 62943 c-25 -1 -205 -7 -400 -13 -195 -6 -368 -12 -385 -14
-16 -2 -120 -10 -230 -16 l-200 -13 -10 -8 -9 -9 27 0 c49 0 441 30 462 35 11
3 200 10 420 15 l399 10 10 10 10 10 -24 -2 c-14 -1 -45 -3 -70 -5z"/>
<path d="M58705 62905 c-57 -31 -96 -57 -92 -62 3 -2 29 11 58 29 l54 33 50 0
c28 0 97 -3 155 -7 l105 -6 -45 8 c-25 4 -92 11 -150 14 l-105 7 -30 -16z"/>
<path d="M16670 62800 l0 -90 10 0 10 0 0 90 0 90 -10 0 -10 0 0 -90z"/>
<path d="M89139 62721 c-68 -81 -199 -255 -199 -264 0 -4 6 -7 13 -7 l12 1 75
102 c41 56 99 129 127 163 l53 62 -13 5 -13 5 -55 -67z"/>
<path d="M11000 62741 c24 -9 127 -15 119 -7 -2 2 -35 6 -74 9 l-70 6 25 -8z"/>
<path d="M16723 62703 l7 -6 7 6 6 7 -13 0 -13 0 6 -7z"/>
<path d="M57800 62248 c-234 -187 -430 -342 -437 -345 l-12 -5 -253 107 c-139
59 -270 116 -291 127 l-39 19 -6 -5 -5 -6 59 -26 c32 -15 163 -71 289 -124
l230 -97 1 -12 c3 -22 4 -23 17 -13 l12 10 240 -105 c132 -57 335 -145 450
-195 116 -50 215 -97 221 -104 l10 -13 14 9 15 9 -40 17 c-22 9 -132 57 -245
106 -113 50 -301 133 -419 185 -118 52 -218 96 -223 99 l-8 5 430 344 431 343
-8 5 -8 5 -425 -340z"/>
<path d="M58251 62566 c4 -5 308 -134 369 -158 l25 -9 -10 10 c-5 5 -91 44
-189 85 -159 68 -209 86 -195 72z"/>
<path d="M89022 62421 c2 -5 81 -75 176 -156 l174 -146 11 4 11 3 -180 152
c-98 84 -183 152 -187 152 l-9 0 4 -9z"/>
<path d="M88992 62380 l4 -15 374 -317 375 -316 8 5 9 5 -14 13 c-16 15 -715
604 -742 625 l-19 15 5 -15z"/>
<path d="M41936 62266 l-36 -33 0 -19 1 -19 11 20 c6 11 24 35 41 53 40 42 28
41 -17 -2z"/>
<path d="M10095 62259 c-17 -48 -114 -413 -111 -417 5 -4 23 55 85 277 22 80
38 147 36 149 -3 3 -7 -1 -10 -9z"/>
<path d="M63201 62038 c-1 -6 223 -1115 251 -1247 7 -30 13 -50 15 -44 2 6
-53 289 -122 629 -111 548 -141 686 -144 662z"/>
<path d="M17660 61941 c0 -5 48 -37 108 -72 59 -35 132 -82 163 -106 30 -24
58 -43 62 -43 35 0 -62 76 -211 163 -118 70 -122 72 -122 58z"/>
<path d="M94370 61942 c0 -11 274 -186 323 -206 l37 -15 0 8 c0 5 -18 16 -39
24 -22 9 -85 46 -142 83 -57 36 -120 77 -141 90 l-38 24 0 -8z"/>
<path d="M44721 61923 c6 -18 349 -393 360 -393 9 0 -248 288 -339 380 l-24
25 3 -12z"/>
<path d="M40115 61834 c-27 -25 -74 -58 -103 -75 l-53 -30 -97 -25 c-53 -14
-101 -30 -107 -36 l-10 -10 23 7 c13 4 64 18 113 31 l88 23 53 31 c55 31 171
129 153 129 -5 0 -32 -20 -60 -45z"/>
<path d="M58457 61862 l-5 -7 115 4 114 3 90 -37 c49 -21 92 -36 94 -33 3 3
-34 22 -82 42 l-88 36 -117 0 -117 0 -4 -8z"/>
<path d="M59872 61772 c-62 -74 -185 -253 -223 -323 l-11 -21 10 5 c5 4 42 59
83 123 l74 116 72 85 c61 70 85 106 71 102 -2 0 -36 -39 -76 -87z"/>
<path d="M93926 61511 l-148 -148 9 -6 9 -6 148 148 148 148 -9 6 -9 6 -148
-148z"/>
<path d="M57810 61641 c8 -5 120 -55 249 -111 l233 -101 6 5 c3 3 3 7 1 9 -15
12 -477 207 -489 207 l-15 -1 15 -8z"/>
<path d="M58103 61420 c-50 -16 -128 -36 -172 -46 l-81 -17 0 -8 0 -7 102 24
c106 26 268 74 268 80 0 8 -28 2 -117 -26z"/>
<path d="M93586 61251 l-148 -148 9 -6 9 -6 148 148 148 148 -9 6 -9 6 -148
-148z"/>
<path d="M57870 61335 c0 -6 245 -400 268 -430 l14 -20 -6 19 c-8 23 -265 436
-272 436 -2 0 -4 -2 -4 -5z"/>
<path d="M61204 61123 c2 -10 28 -127 57 -260 29 -134 55 -241 57 -238 3 3
-19 120 -49 260 l-54 255 -8 0 -8 0 5 -17z"/>
<path d="M92790 60972 l0 -11 59 -35 c33 -19 116 -57 185 -84 l125 -49 6 5 5
6 -127 51 c-128 51 -188 81 -230 111 l-23 16 0 -10z"/>
<path d="M54664 60868 c4 -13 27 -113 52 -223 41 -179 54 -227 54 -199 0 5
-21 107 -47 227 l-48 217 -9 0 -8 0 6 -22z"/>
<path d="M55425 60724 c-55 -42 -142 -101 -192 -131 l-93 -55 0 -15 0 -14 18
10 c64 34 201 125 285 188 l97 74 -5 10 c-4 5 -7 9 -8 9 -1 0 -47 -35 -102
-76z"/>
<path d="M60720 60761 l-95 -26 -97 -55 c-54 -30 -98 -58 -98 -62 0 -4 46 19
103 51 l103 57 92 24 92 24 0 8 c0 4 -1 8 -2 7 -2 -1 -46 -13 -98 -28z"/>
<path d="M42971 60716 l-13 -16 83 -94 c46 -52 255 -288 464 -524 l380 -430
14 14 15 13 -16 18 c-47 55 -874 992 -893 1011 l-22 23 -12 -15z"/>
<path d="M61352 60603 c3 -10 80 -390 173 -846 l169 -827 7 7 8 8 -170 829
c-93 455 -169 832 -169 837 0 5 -5 9 -11 9 l-11 0 4 -17z"/>
<path d="M55568 60529 c-21 -11 -38 -22 -38 -24 0 -6 82 26 95 37 l9 8 -14 0
c-8 -1 -32 -10 -52 -21z"/>
<path d="M59888 60213 c-95 -81 -165 -144 -156 -140 17 6 338 275 338 283 0
10 -19 -4 -182 -143z"/>
<path d="M61913 60221 l-422 -86 -8 -9 -8 -8 20 5 c11 3 205 43 430 88 226 45
412 84 414 86 17 12 -52 0 -426 -76z"/>
<path d="M63564 60260 c21 -89 186 -856 186 -862 0 -4 4 -8 9 -8 l10 0 -8 28
c-4 15 -48 212 -96 437 l-88 410 -9 10 -9 10 5 -25z"/>
<path d="M86462 60198 c35 -49 290 -320 295 -314 3 3 -49 62 -116 132 -66 70
-135 146 -153 170 -18 24 -37 44 -41 44 l-8 0 23 -32z"/>
<path d="M61914 60170 c2 -14 37 -180 76 -369 l71 -343 -6 -16 -6 -15 13 -9
c7 -4 17 -8 21 -8 l8 0 -5 9 -5 8 414 83 415 83 0 7 0 7 -412 -84 -412 -83 -6
7 c-4 5 -40 168 -80 363 -40 195 -77 362 -82 370 l-9 15 5 -25z"/>
<path d="M61428 60095 c-2 -3 31 -184 73 -402 43 -219 77 -398 76 -399 -1 -1
-89 -20 -196 -43 l-193 -41 -8 5 -9 5 -7 -11 -7 -11 10 -7 9 -6 73 -360 c40
-198 75 -367 77 -375 l5 -14 7 11 7 11 175 45 c96 25 186 48 200 51 14 3 129
26 255 51 l230 47 9 9 10 9 -12 0 c-16 0 -455 -91 -464 -96 l-7 -4 -5 17 c-3
10 -35 168 -71 351 l-66 334 5 13 5 14 -8 3 -8 3 -37 190 c-65 332 -123 605
-128 600z m228 -1170 l71 -355 -36 -9 c-287 -75 -353 -92 -355 -89 -7 8 -148
719 -144 723 4 5 352 82 378 84 l15 1 71 -355z"/>
<path d="M55356 59783 c-33 -125 -62 -235 -64 -243 l-5 -15 10 10 10 10 57
222 c32 123 56 228 54 234 -2 6 -30 -92 -62 -218z"/>
<path d="M83355 59900 c14 -28 62 -107 106 -177 103 -161 339 -577 455 -800
49 -95 93 -173 97 -173 4 0 -20 53 -54 118 -34 64 -84 160 -112 212 -96 184
-282 507 -370 645 -49 77 -99 159 -110 183 -12 23 -25 42 -29 42 l-8 0 25 -50z"/>
<path d="M58850 59931 c0 -18 153 -361 162 -361 6 0 -17 55 -121 285 -22 50
-41 84 -41 76z"/>
<path d="M59255 59723 c-60 -46 -142 -105 -182 -132 l-72 -49 6 -6 6 -6 36 22
c35 21 187 133 284 209 l47 38 -7 4 -8 4 -110 -84z"/>
<path d="M45368 59413 c88 -93 203 -209 254 -259 l93 -91 105 -75 c58 -40 111
-78 119 -83 l14 -8 -6 10 c-4 6 -60 49 -126 97 l-119 86 -239 245 c-132 135
-243 245 -247 245 -5 0 64 -75 152 -167z"/>
<path d="M59031 59525 c-2 -15 123 -315 131 -315 4 0 -18 60 -48 133 -72 172
-82 194 -83 182z"/>
<path d="M60492 59449 c-45 -10 -248 -51 -450 -89 -202 -39 -376 -75 -387 -80
l-20 -9 20 0 c26 -2 914 177 940 189 l20 9 -20 -1 c-11 0 -57 -8 -103 -19z"/>
<path d="M49462 59248 c-89 -117 -159 -214 -156 -217 2 -2 5 -2 7 0 104 132
318 422 314 425 -3 3 -77 -91 -165 -208z"/>
<path d="M59857 59365 c-114 -23 -210 -45 -214 -49 l-6 -6 9 0 c5 1 115 23
244 49 l235 49 -30 0 c-16 0 -123 -19 -238 -43z"/>
<path d="M61895 59360 c-71 -15 -157 -34 -190 -40 l-60 -13 12 -4 c12 -4 393
74 402 82 9 10 -37 3 -164 -25z"/>
<path d="M61348 59287 c-103 -23 -190 -46 -195 -51 l-8 -8 20 5 c11 4 99 23
195 43 96 20 182 40 190 45 l15 8 -15 0 c-8 -1 -99 -20 -202 -42z"/>
<path d="M83830 59179 c0 -3 86 -169 191 -369 105 -200 198 -383 206 -407 9
-24 18 -42 21 -39 11 11 -37 112 -215 451 -165 313 -203 381 -203 364z"/>
<path d="M49100 58834 c-89 -119 -157 -215 -152 -213 14 5 325 419 319 425 -2
3 -77 -93 -167 -212z"/>
<path d="M63850 58931 c0 -7 58 -297 130 -644 71 -348 145 -715 165 -817 41
-207 253 -1209 259 -1225 l4 -10 1 16 c1 9 -29 155 -65 325 -36 170 -97 462
-134 649 -137 679 -351 1709 -355 1714 -3 2 -5 -1 -5 -8z"/>
<path d="M63180 58858 c0 -18 82 -442 86 -447 2 -2 7 -2 10 2 l6 6 -43 225
-44 226 -7 0 c-5 0 -8 -6 -8 -12z"/>
<path d="M39546 58771 c5 -4 63 -27 129 -51 66 -23 157 -58 203 -77 102 -44
120 -38 20 7 -73 32 -338 130 -354 130 l-8 0 10 -9z"/>
<path d="M51140 58667 l0 -15 88 -65 c48 -35 109 -78 137 -95 l49 -31 8 5 c15
10 8 20 -29 39 -21 11 -80 52 -133 90 -52 39 -101 74 -107 79 l-13 7 0 -14z"/>
<path d="M61976 58582 c-121 -25 -215 -47 -208 -50 13 -4 418 75 447 88 l20 9
-20 -1 c-11 0 -119 -21 -239 -46z"/>
<path d="M55071 58585 c20 -19 1235 -352 1247 -341 2 3 -1 8 -9 10 -17 6 -616
169 -809 220 -74 19 -198 54 -275 76 -136 39 -164 45 -154 35z"/>
<path d="M85827 58543 l-5 -9 103 -193 c57 -106 108 -198 114 -204 l11 -11 0
12 c0 10 -203 397 -215 410 -2 2 -5 0 -8 -5z"/>
<path d="M60671 58320 c-102 -21 -195 -41 -208 -45 l-24 -6 7 -11 c4 -7 9 -23
10 -37 l3 -25 -15 -17 -15 -17 -19 5 c-10 3 -26 13 -36 24 l-16 18 5 16 6 15
-9 0 -10 0 0 -21 c0 -11 4 -29 10 -39 l10 -18 31 -7 31 -7 24 23 24 22 0 17 0
17 188 38 c103 20 194 41 202 46 23 13 13 11 -190 -31 -105 -22 -195 -40 -201
-40 l-9 0 0 13 0 13 193 38 c105 22 196 43 202 48 l9 8 -9 -1 c-6 0 -93 -18
-194 -39z"/>
<path d="M49385 58169 c-44 -55 -88 -111 -98 -125 l-19 -24 9 1 c7 0 152 176
191 230 l13 19 -8 -1 c-4 0 -44 -45 -88 -100z"/>
<path d="M61818 58145 c-5 -6 68 -385 77 -393 9 -9 6 8 -33 206 -21 106 -41
190 -44 187z"/>
<path d="M91790 58114 c1 -11 340 -247 346 -241 3 3 -68 55 -158 117 -90 62
-169 117 -175 123 l-13 9 0 -8z"/>
<path d="M63994 58013 c3 -10 39 -193 81 -408 42 -214 101 -500 131 -635 68
-307 64 -293 70 -288 2 3 -18 108 -45 234 -27 126 -89 428 -138 672 l-88 442
-8 0 -8 0 5 -17z"/>
<path d="M62131 57782 c-117 -25 -209 -48 -202 -50 13 -4 406 75 436 88 l20 9
-20 -1 c-11 0 -116 -21 -234 -46z"/>
<path d="M49550 57721 c0 -5 8 -11 18 -14 9 -2 88 -39 175 -80 86 -42 157 -73
157 -69 0 7 -53 33 -277 138 l-73 33 0 -8z"/>
<path d="M80390 57488 c-47 -27 -114 -68 -149 -91 l-64 -41 11 -4 12 -4 42 30
c24 17 87 55 140 85 l97 56 21 -26 20 -26 6 6 6 5 -23 31 c-13 17 -25 31 -28
30 -3 0 -44 -23 -91 -51z"/>
<path d="M63460 57052 c0 -17 100 -455 105 -460 17 -17 10 30 -37 237 l-52
231 -8 0 c-4 0 -8 -4 -8 -8z"/>
<path d="M47985 57015 c-5 -2 -88 -13 -182 -26 l-173 -22 0 -7 0 -6 198 28
197 28 42 -5 41 -6 229 -108 c486 -231 555 -262 559 -259 2 2 -174 90 -391
196 l-395 192 -57 -1 c-32 0 -62 -2 -68 -4z"/>
<path d="M54596 56919 c-5 -14 -60 -221 -71 -269 l-6 -25 9 15 c13 19 83 283
77 289 -3 2 -7 -2 -9 -10z"/>
<path d="M86700 56872 c0 -17 142 -305 176 -359 l34 -53 10 0 11 0 -26 43
c-14 23 -64 117 -111 210 -77 154 -94 182 -94 159z"/>
<path d="M53870 56704 c0 -3 97 -53 216 -110 l215 -105 12 4 12 4 -219 106
c-211 103 -236 114 -236 101z"/>
<path d="M25976 56671 c21 -20 366 -232 370 -228 5 5 -359 237 -372 237 l-8 0
10 -9z"/>
<path d="M90646 56521 c5 -5 65 -34 134 -64 69 -30 147 -67 173 -82 26 -15 50
-25 53 -22 10 9 -334 177 -363 177 l-7 0 10 -9z"/>
<path d="M82732 56510 c3 -8 27 -108 53 -222 27 -115 52 -208 55 -208 4 0 -16
96 -44 214 l-51 215 -9 8 -9 8 5 -15z"/>
<path d="M82744 56285 c28 -118 54 -215 58 -215 l6 0 -12 53 c-7 28 -30 125
-51 215 -21 89 -41 162 -45 162 -4 0 16 -97 44 -215z"/>
<path d="M26450 56402 c0 -4 74 -47 165 -95 l166 -88 12 4 11 3 -149 79 c-83
42 -160 84 -172 91 -25 16 -33 17 -33 6z"/>
<path d="M17115 56359 c-66 -21 -150 -48 -187 -59 l-68 -21 0 -8 0 -9 173 55
c94 30 186 61 202 68 l30 13 -15 1 c-8 0 -69 -18 -135 -40z"/>
<path d="M86383 56166 c-95 -50 -173 -94 -173 -98 0 -7 167 77 315 159 l60 33
-15 -1 c-8 -1 -93 -42 -187 -93z"/>
<path d="M64073 56157 c-139 -28 -253 -54 -253 -58 0 -7 518 95 527 105 l6 6
-14 -1 c-8 -1 -128 -24 -266 -52z"/>
<path d="M37286 56129 c-3 -8 -23 -147 -46 -309 -22 -162 -43 -307 -46 -321
l-5 -26 28 4 c15 3 104 -2 197 -11 l169 -15 29 15 c17 9 28 18 25 21 -3 2 -17
-2 -31 -9 l-26 -13 -179 15 c-99 8 -182 18 -186 22 l-6 6 45 313 c39 276 48
357 32 308z"/>
<path d="M64083 56087 c-139 -28 -253 -54 -253 -58 0 -7 518 95 527 105 l6 6
-14 -1 c-8 -1 -128 -24 -266 -52z"/>
<path d="M35511 56057 c-88 -53 -85 -59 77 -125 l122 -51 0 8 c0 4 -53 30
-117 57 l-116 49 -4 11 -4 12 56 31 c51 29 65 41 48 41 -5 0 -32 -15 -62 -33z"/>
<path d="M63797 56060 c3 -11 10 -23 15 -26 l10 -6 -4 23 -3 22 -12 4 -11 4 5
-21z"/>
<path d="M63355 55928 c-159 -33 -292 -62 -294 -64 -2 -2 -2 -7 2 -10 l6 -6
305 63 306 62 0 9 0 8 -17 -1 c-10 0 -148 -28 -308 -61z"/>
<path d="M15258 55873 l-218 -55 5 -8 5 -8 225 57 225 56 0 7 c0 12 -9 10
-242 -49z"/>
<path d="M63020 55900 l0 -20 9 0 9 0 -5 20 c-3 11 -7 20 -9 20 -2 0 -4 -9 -4
-20z"/>
<path d="M62210 55693 c-146 -30 -267 -57 -269 -59 -2 -2 -2 -7 2 -10 l5 -6
224 46 c123 25 247 50 276 56 l52 12 -6 9 c-7 11 26 17 -284 -48z"/>
<path d="M25990 55663 c1 -9 278 -211 434 -315 l100 -68 17 0 17 0 21 -27 20
-28 1 16 0 16 -18 16 c-10 10 -26 17 -34 17 l-15 0 -74 48 c-41 27 -148 102
-239 168 -91 66 -180 130 -197 142 l-33 23 0 -8z"/>
<path d="M48770 55485 c1 -6 32 -75 70 -155 l70 -145 -235 -115 c-129 -63
-235 -118 -235 -122 0 -3 106 45 236 108 l235 114 9 -5 8 -5 5 12 4 13 -13 10
c-6 6 -40 71 -75 145 -34 74 -66 139 -71 145 l-8 9 0 -9z"/>
<path d="M25694 55242 c10 -16 256 -192 256 -183 0 6 -205 159 -248 185 l-15
9 7 -11z"/>
<path d="M51910 55031 l0 -11 148 0 148 0 47 -30 c56 -35 63 -26 9 11 l-37 26
-157 8 -158 7 0 -11z"/>
<path d="M53286 54930 c3 -14 7 -34 7 -45 l1 -20 -372 -564 c-372 -562 -418
-637 -453 -740 -23 -65 -23 -67 -5 -52 l14 12 6 34 7 35 40 78 41 77 375 567
374 567 -21 38 -21 38 7 -25z"/>
<path d="M48576 54693 c64 -131 152 -313 196 -406 45 -92 83 -165 86 -162 6 6
-381 805 -390 805 -4 0 45 -107 108 -237z"/>
<path d="M33810 54806 c0 -11 213 -317 217 -313 5 5 -205 317 -213 317 -2 0
-4 -2 -4 -4z"/>
<path d="M50140 54569 l0 -10 10 6 c6 3 10 8 10 11 0 2 -4 4 -10 4 -5 0 -10
-5 -10 -11z"/>
<path d="M51885 54403 c-165 -215 -178 -233 -168 -232 4 0 24 21 43 47 20 26
85 111 144 190 60 78 107 144 105 147 -3 2 -59 -66 -124 -152z"/>
<path d="M50121 54533 c-1 -7 4 -44 11 -83 l12 -70 26 -24 25 -23 48 -16 47
-16 0 8 0 8 -45 13 -46 13 -23 28 -24 28 -7 53 c-4 29 -11 62 -16 73 l-8 20 0
-12z"/>
<path d="M88380 54425 l-194 -103 -9 5 -9 6 -9 -14 -8 -13 10 -13 11 -12 -12
-35 -11 -35 -12 -4 -12 -4 8 -9 9 -9 19 24 19 23 6 37 6 36 180 95 c99 52 188
100 197 107 l16 11 -5 6 -6 5 -194 -104z"/>
<path d="M52815 54313 c-71 -109 -136 -209 -144 -223 l-16 -24 11 7 c16 9 288
427 282 433 -3 2 -63 -85 -133 -193z"/>
<path d="M52996 54495 c10 -8 24 -14 29 -14 l10 0 -19 14 c-11 8 -24 15 -30
15 l-10 0 20 -15z"/>
<path d="M50820 54472 c0 -5 53 -47 118 -94 64 -48 161 -125 214 -172 97 -86
108 -94 108 -77 0 14 -196 181 -316 269 -111 82 -124 89 -124 74z"/>
<path d="M72910 54163 l-322 -287 11 -4 11 -4 307 273 c170 150 314 278 321
285 l14 12 -9 5 -10 6 -323 -286z"/>
<path d="M13698 54258 c-31 -46 -97 -143 -147 -215 -51 -73 -88 -133 -84 -133
5 0 38 44 75 98 36 53 101 148 144 210 42 62 75 115 72 117 -3 3 -30 -32 -60
-77z"/>
<path d="M84620 54195 c-124 -58 -220 -105 -214 -105 14 0 426 188 439 201 15
14 11 13 -225 -96z"/>
<path d="M88090 54193 c0 -4 45 -91 99 -193 l99 -184 13 -5 12 -4 -35 64 c-20
35 -66 121 -103 191 -36 70 -71 130 -76 134 l-9 5 0 -8z"/>
<path d="M21210 53980 c0 -3 57 -17 128 -30 l127 -24 88 -37 87 -38 0 8 c0 4
-35 22 -77 40 l-78 33 -137 27 -138 28 0 -7z"/>
<path d="M26174 53875 c3 -22 8 -62 11 -90 17 -137 65 -315 87 -315 l9 0 -15
29 c-20 37 -62 226 -71 316 -4 39 -12 77 -17 85 l-9 15 5 -40z"/>
<path d="M51445 53889 c-11 -17 1 -21 15 -4 l12 15 -10 0 c-6 0 -14 -5 -17
-11z"/>
<path d="M54090 53783 c0 -12 298 -218 306 -211 2 3 -19 21 -48 40 -29 20 -99
68 -155 107 -57 40 -103 68 -103 64z"/>
<path d="M50655 53644 c-137 -68 -254 -126 -260 -128 -5 -2 -8 -5 -5 -8 3 -3
127 55 275 128 149 73 263 132 255 132 -8 0 -127 -55 -265 -124z"/>
<path d="M54726 53712 c5 -4 26 -23 48 -42 l39 -35 -12 22 c-11 21 -62 63 -77
63 l-8 0 10 -8z"/>
<path d="M48895 53544 c-93 -46 -165 -84 -159 -84 14 0 344 157 344 165 0 10
-15 3 -185 -81z"/>
<path d="M80280 53574 c-52 -14 -257 -66 -454 -116 -198 -51 -355 -93 -349
-95 10 -4 924 225 932 233 10 9 -40 1 -129 -22z"/>
<path d="M51350 53460 l-15 -10 12 0 c6 0 15 5 18 10 8 12 4 12 -15 0z"/>
<path d="M29128 53353 l-198 -66 0 -9 0 -9 8 4 c4 2 95 32 202 67 107 34 199
66 205 71 l9 9 -14 -1 c-8 -1 -104 -30 -212 -66z"/>
<path d="M52448 53266 l-17 -24 -108 -8 -108 -8 25 -9 25 -9 24 -57 c13 -31
56 -120 94 -199 l69 -142 -7 -18 -6 -17 17 17 16 16 -33 59 c-19 32 -64 123
-101 203 l-66 145 81 8 82 9 13 10 c7 6 18 20 23 30 l10 18 -8 0 c-4 0 -16
-11 -25 -24z"/>
<path d="M7117 53240 l11 -12 224 -3 223 -3 -190 7 c-104 5 -210 11 -235 16
l-45 7 12 -12z"/>
<path d="M6193 53233 l7 -6 7 6 6 7 -13 0 -13 0 6 -7z"/>
<path d="M52134 53219 l-19 -22 23 12 c12 6 22 16 22 21 0 15 -5 12 -26 -11z"/>
<path d="M53629 53217 c-64 -25 -400 -200 -394 -205 1 -2 86 39 187 91 100 53
202 101 226 108 l42 12 0 9 c0 10 6 11 -61 -15z"/>
<path d="M6615 53208 l-280 -19 -55 10 c-30 6 -66 14 -79 18 l-24 6 6 -10 6
-10 62 -13 62 -13 295 17 295 18 101 -5 101 -6 -40 8 c-22 5 -69 10 -105 13
l-65 5 -280 -19z"/>
<path d="M49994 53080 c-12 -5 -25 -15 -29 -22 l-8 -13 14 13 c7 6 21 12 31
12 l18 0 0 10 c0 6 -1 10 -2 9 -2 0 -13 -4 -24 -9z"/>
<path d="M86155 52883 c-110 -79 -202 -149 -204 -155 l-4 -11 16 6 c15 6 370
259 395 282 l14 13 -9 5 -8 5 -200 -145z"/>
<path d="M65395 52815 c-192 -41 -394 -82 -447 -91 l-98 -17 0 -9 0 -9 18 5
c9 3 112 23 227 45 116 22 315 62 443 87 l232 47 0 9 c0 12 7 13 -375 -67z"/>
<path d="M12622 52717 c-56 -81 -102 -149 -102 -152 0 -22 31 15 114 135 l98
140 -4 12 -4 11 -102 -146z"/>
<path d="M77736 52774 c-104 -40 -191 -75 -193 -78 -2 -2 -1 -6 4 -9 l8 -5
198 76 197 76 0 8 c0 14 -21 7 -214 -68z"/>
<path d="M65062 52785 c-117 -24 -216 -46 -220 -50 l-7 -7 40 7 c166 30 416
82 421 88 l7 7 -14 -1 c-8 -1 -110 -21 -227 -44z"/>
<path d="M49450 52749 c0 -8 16 -55 36 -105 20 -49 40 -100 45 -113 l10 -24 5
6 6 6 -47 118 c-49 124 -55 136 -55 112z"/>
<path d="M12210 52742 c0 -5 70 -57 156 -117 l155 -108 9 9 9 9 -154 108
c-145 101 -175 118 -175 99z"/>
<path d="M85870 52711 c0 -5 11 -16 25 -25 l26 -17 10 7 10 6 -18 12 c-10 7
-26 16 -35 19 l-18 6 0 -8z"/>
<path d="M64348 52643 c6 -2 18 -2 25 0 l12 5 -25 0 -25 0 13 -5z"/>
<path d="M85585 52464 l-179 -134 14 0 13 0 174 130 c95 72 173 132 173 135 0
13 -28 -6 -195 -131z"/>
<path d="M85930 52530 l0 -39 -37 -39 c-21 -21 -47 -44 -58 -50 l-20 -10 7 -7
7 -7 38 21 38 22 23 34 22 35 0 40 0 40 -10 0 -10 0 0 -40z"/>
<path d="M5962 52230 c-1 -25 12 -218 28 -430 l30 -385 11 -50 c13 -62 18 -79
23 -74 3 2 -2 33 -9 69 l-14 65 -26 365 c-14 201 -29 392 -34 425 l-8 60 -1
-45z"/>
<path d="M75501 51950 c-216 -88 -395 -161 -398 -164 -2 -2 -1 -6 4 -9 l8 -5
395 158 394 158 4 11 4 11 -9 -1 c-4 0 -185 -72 -402 -159z"/>
<path d="M32955 51970 c-27 -5 -126 -19 -220 -31 l-170 -22 13 -5 c17 -5 421
47 447 58 l20 9 -20 -1 c-11 0 -42 -4 -70 -8z"/>
<path d="M42645 51924 c-33 -19 -131 -71 -217 -116 -87 -46 -158 -86 -158 -91
l0 -8 53 29 c28 16 127 69 220 117 l167 88 0 8 c0 11 5 13 -65 -27z"/>
<path d="M90752 51593 c-102 -190 -104 -193 -98 -193 5 0 46 74 131 233 31 59
54 107 52 107 -3 0 -41 -66 -85 -147z"/>
<path d="M91292 51112 c-78 -147 -167 -313 -197 -369 l-55 -102 8 -4 7 -5 198
368 c108 202 197 370 197 374 0 26 -33 -29 -158 -262z"/>
<path d="M34095 51350 c3 -5 10 -10 16 -10 5 0 9 5 9 10 l0 10 -16 0 -15 0 6
-10z"/>
<path d="M42012 51323 c2 -5 10 -21 18 -37 l14 -28 101 -67 c55 -37 140 -89
188 -116 l88 -49 53 -61 53 -60 25 -49 25 -49 6 10 6 10 -35 59 -35 59 -52 53
-52 54 -85 43 c-47 24 -125 72 -175 107 l-90 64 -20 31 c-11 18 -24 32 -28 33
-5 0 -7 -3 -5 -7z"/>
<path d="M33443 51268 c3 -13 15 -111 27 -218 l23 -195 8 -9 8 -9 -5 34 c-17
123 -44 359 -44 387 l0 32 -11 0 -11 0 5 -22z"/>
<path d="M33480 51278 c2 -48 109 -790 126 -867 3 -13 7 -21 10 -19 2 3 -11
106 -30 229 -19 123 -47 324 -62 447 l-28 222 -8 0 c-4 0 -8 -6 -8 -12z"/>
<path d="M33510 51273 l0 -8 137 3 c223 4 241 8 46 10 l-183 2 0 -7z"/>
<path d="M28379 51005 c-4 -3 -50 -16 -104 -30 -53 -13 -100 -26 -103 -29 l-5
-6 6 -6 6 -6 102 26 c109 27 113 29 107 46 l-3 11 -6 -6z"/>
<path d="M7178 50786 c-72 -11 -98 -20 -87 -30 2 -2 47 3 99 11 l95 15 138 -4
137 -4 0 7 c0 12 -73 19 -190 18 l-115 -1 -77 -12z"/>
<path d="M7300 50744 c-19 -2 -72 -9 -117 -15 l-83 -11 0 -10 0 -11 38 7 c20
4 93 11 162 17 l125 9 63 -6 62 -6 0 9 0 10 -52 7 c-52 6 -130 6 -198 0z"/>
<path d="M34280 49982 l0 -10 78 -7 77 -8 113 -34 c114 -34 317 -83 346 -83 9
0 16 4 16 8 l0 8 -87 17 c-49 10 -155 38 -238 62 l-150 43 -77 7 -78 7 0 -10z"/>
<path d="M33710 49883 c0 -27 50 -387 55 -391 3 -3 5 2 5 10 0 31 -50 381 -55
386 -3 3 -5 1 -5 -5z"/>
<path d="M22870 49770 c58 -4 159 -7 225 -7 l120 0 -110 7 c-60 4 -162 7 -225
7 l-115 0 105 -7z"/>
<path d="M22405 49750 l30 -8 165 -5 165 -5 -20 7 -20 8 -175 5 -175 6 30 -8z"/>
<path d="M80323 49664 c3 -16 22 -127 43 -246 l39 -218 12 0 13 0 -1 13 c0 6
-19 115 -42 241 l-42 229 -14 5 -14 5 6 -29z"/>
<path d="M43501 49629 c-1 -3 39 -89 88 -190 49 -101 90 -179 90 -174 1 11
-177 374 -178 364z"/>
<path d="M91308 49324 l-7 -6 21 -41 c27 -54 216 -358 234 -376 40 -43 11 14
-92 179 -64 102 -124 200 -133 218 l-17 33 -6 -7z"/>
<path d="M64320 49051 c-14 -27 -13 -54 4 -77 l15 -19 -6 42 -6 43 13 15 12
15 -10 0 c-6 0 -16 -9 -22 -19z"/>
<path d="M91408 48732 c-75 -86 -153 -179 -174 -207 -21 -27 -109 -125 -197
-217 -88 -93 -155 -168 -151 -168 14 0 314 317 369 390 41 53 169 204 279 327
10 13 17 25 15 27 -2 3 -66 -66 -141 -152z"/>
<path d="M91439 48708 c-68 -78 -153 -178 -188 -223 -35 -44 -114 -132 -176
-195 -61 -63 -151 -158 -200 -210 l-88 -95 -43 -66 c-53 -81 -163 -217 -307
-378 -60 -67 -104 -121 -99 -121 9 0 238 256 326 364 27 34 68 91 91 127 l43
65 88 95 c48 52 138 146 199 209 62 63 141 151 175 195 58 72 224 267 288 337
14 15 23 30 20 33 -2 3 -61 -59 -129 -137z"/>
<path d="M34845 48654 c-110 -7 -215 -13 -234 -13 l-34 -1 6 -6 6 -6 235 13
236 12 0 9 c0 4 -3 7 -7 7 -5 -1 -98 -8 -208 -15z"/>
<path d="M40480 48651 c0 -5 11 -16 25 -25 l25 -16 0 -15 0 -15 14 0 14 0 -5
20 -5 20 -26 20 c-27 21 -42 25 -42 11z"/>
<path d="M34490 48630 l-15 -10 28 0 27 0 0 10 0 10 -12 0 c-7 0 -20 -5 -28
-10z"/>
<path d="M38040 48633 c0 -16 80 -476 84 -488 l4 -10 1 20 c1 26 -77 476 -84
483 -3 3 -5 0 -5 -5z"/>
<path d="M44911 48562 c-6 -12 -11 -34 -11 -51 l0 -30 16 -15 c8 -9 22 -16 29
-16 l14 0 -24 25 -25 24 0 16 c0 9 5 25 11 37 6 11 8 22 6 25 -3 2 -10 -4 -16
-15z"/>
<path d="M32510 48227 c-171 -8 -201 -12 -189 -20 7 -6 480 21 486 27 l6 6
-59 -2 c-32 0 -142 -5 -244 -11z"/>
<path d="M30985 48189 c-192 -9 -359 -18 -369 -18 l-19 -1 5 -6 6 -5 373 16
374 16 30 9 30 8 -40 0 c-22 -1 -197 -9 -390 -19z"/>
<path d="M33961 47798 c27 -183 58 -375 70 -426 11 -52 19 -95 17 -97 -1 -2
-106 -8 -233 -15 -220 -11 -282 -16 -273 -25 2 -2 117 3 256 11 138 8 255 13
260 13 4 -1 11 -1 16 0 l8 1 -10 13 c-19 24 -52 197 -98 525 l-47 332 -7 0 -7
0 48 -332z"/>
<path d="M37821 48108 c-154 -8 -181 -12 -170 -22 2 -3 103 0 224 6 l220 10
10 9 9 9 -64 -1 c-36 -1 -139 -6 -229 -11z"/>
<path d="M80455 47465 l-25 -24 0 -24 0 -24 41 -57 40 -56 10 5 9 6 -40 56
c-45 64 -47 73 -22 96 l19 17 21 0 21 0 19 -25 c22 -28 32 -32 32 -11 l0 14
-31 26 -31 26 -19 0 -20 0 -24 -25z"/>
<path d="M37902 47455 l-254 -13 -6 -7 -7 -8 115 7 c63 3 189 9 280 12 l165 7
15 8 15 8 -35 -1 c-19 0 -149 -6 -288 -13z"/>
<path d="M90099 47220 l-204 -231 -52 -92 -52 -91 -26 -14 c-34 -17 -26 -27 9
-11 l27 13 55 97 56 98 200 226 c110 124 198 228 196 231 -3 2 -97 -99 -209
-226z"/>
<path d="M37430 47389 c-125 -8 -319 -18 -557 -29 l-153 -6 -7 -8 -8 -8 166 7
166 8 6 -49 c4 -27 9 -102 13 -167 l7 -118 9 -5 9 -6 -6 64 c-12 118 -22 273
-19 279 2 3 117 11 256 19 139 7 271 16 293 20 l40 8 -50 -1 c-27 0 -102 -4
-165 -8z"/>
<path d="M20667 47133 l-17 -48 -28 -162 -28 -163 6 0 c4 0 19 73 34 162 l28
162 19 48 19 48 -8 0 c-5 0 -16 -21 -25 -47z"/>
<path d="M20701 47103 l-21 -68 -29 -172 -30 -171 -21 -50 -21 -49 -52 -50
-52 -50 -77 -33 c-43 -19 -78 -37 -78 -41 l0 -8 96 44 96 43 38 37 37 37 26
66 26 67 32 185 31 185 18 48 18 47 -8 0 -7 0 -22 -67z"/>
<path d="M39860 46995 l12 -15 -6 -15 -5 -15 9 0 10 0 0 30 0 30 -16 0 -16 0
12 -15z"/>
<path d="M32102 46895 l-213 -13 -7 -7 -7 -8 90 6 c50 4 152 10 228 13 l137 7
0 8 c0 5 -3 8 -7 8 -5 -1 -104 -7 -221 -14z"/>
<path d="M46340 46900 c0 -8 -27 -133 -59 -277 l-58 -263 7 0 c3 0 32 119 64
265 l58 265 -5 13 -5 12 -2 -15z"/>
<path d="M19889 46238 c26 -66 82 -180 87 -176 5 6 -82 198 -90 198 -3 0 -2
-10 3 -22z"/>
<path d="M93091 46095 l15 -15 75 -13 76 -14 24 -16 23 -17 51 0 50 0 63 32
c34 18 62 35 62 39 0 4 -30 -8 -67 -27 l-68 -34 -37 0 -37 0 -35 21 -35 20
-68 10 -68 10 -9 9 c-6 6 -15 10 -20 10 l-10 0 15 -15z"/>
<path d="M93042 46050 l-22 -29 -82 -31 -82 -32 -28 6 -28 5 -95 -6 -95 -6 0
-10 0 -9 16 6 c9 4 69 7 133 7 l116 0 70 26 70 26 30 28 30 28 25 -14 25 -14
35 -1 35 0 53 -25 54 -25 54 0 54 0 71 36 c93 47 83 55 -12 9 l-73 -35 -41 0
-40 0 -47 25 -47 25 -38 0 -39 0 -39 20 c-22 11 -39 20 -40 19 0 0 -10 -13
-23 -29z"/>
<path d="M47016 44569 l-100 -39 -69 0 -68 0 -20 10 -19 11 0 -10 c0 -15 29
-21 111 -21 l79 0 92 36 c51 21 97 41 103 45 l9 9 -9 -1 c-6 0 -55 -18 -109
-40z"/>
<path d="M29705 44500 c-60 -4 -136 -8 -167 -9 l-58 -1 0 -11 0 -12 133 7 c72
4 167 9 210 13 l77 6 0 8 0 9 -42 -2 c-24 -1 -92 -5 -153 -8z"/>
<path d="M26531 44345 c10 -9 412 -196 415 -192 6 5 -389 197 -406 197 -7 0
-11 -2 -9 -5z"/>
<path d="M87775 44194 l-37 -86 20 -22 c11 -11 36 -47 56 -79 l36 -57 0 -21 0
-20 9 5 9 6 123 -194 c68 -107 126 -193 128 -191 2 3 -53 95 -122 205 l-127
201 41 75 c23 41 39 77 37 79 -2 3 -21 -27 -42 -65 -20 -39 -40 -70 -44 -70
-4 0 -20 24 -37 52 -16 28 -40 63 -51 77 l-22 26 39 83 38 82 -8 0 c-5 0 -25
-39 -46 -86z"/>
<path d="M29892 43940 l-1 -165 8 -45 8 -45 0 95 c0 52 -3 147 -7 210 l-7 115
-1 -165z"/>
<path d="M27540 43869 c102 -50 196 -95 210 -101 l25 -9 -10 9 c-11 10 -370
181 -395 188 -8 2 68 -37 170 -87z"/>
<path d="M40502 43718 l-12 -103 9 -35 c5 -19 12 -44 17 -55 10 -26 76 -105
87 -105 l9 0 -32 36 -32 37 -20 46 -20 46 1 55 c1 30 5 83 9 118 l8 62 -6 0
-7 0 -11 -102z"/>
<path d="M52450 43220 l-35 -37 -158 -74 -158 -74 10 -3 c5 -2 85 32 177 76
l168 79 19 25 19 26 -3 10 -4 10 -35 -38z"/>
<path d="M52130 43015 c0 -13 176 -355 182 -355 5 0 -32 81 -82 180 -79 158
-100 195 -100 175z"/>
<path d="M51380 42937 c0 -15 32 -238 46 -319 l7 -38 8 0 9 0 -6 28 c-3 15 -8
34 -10 42 -2 8 -13 78 -24 154 -18 126 -30 177 -30 133z"/>
<path d="M50593 42664 c6 -165 10 -195 22 -183 2 3 2 85 -2 182 l-6 177 -10 0
-10 0 6 -176z"/>
<path d="M50650 42660 l0 -180 10 0 10 0 0 180 0 180 -10 0 -10 0 0 -180z"/>
<path d="M46727 42687 c-115 -60 -206 -111 -203 -114 4 -4 402 200 415 213 20
20 -34 -6 -212 -99z"/>
<path d="M46542 42545 c-222 -117 -409 -218 -415 -225 l-12 -12 52 26 c127 63
779 409 788 417 l9 9 -9 -1 c-6 -1 -191 -97 -413 -214z"/>
<path d="M31880 42689 l0 -12 -157 -153 -157 -153 6 -7 7 -6 128 121 c159 151
217 221 183 221 -5 0 -10 -5 -10 -11z"/>
<path d="M51208 42536 l-167 -21 -7 -8 -8 -8 39 6 c22 3 111 14 198 24 88 11
161 22 165 25 l5 6 -29 -1 c-16 -1 -104 -11 -196 -23z"/>
<path d="M54390 41812 c0 -4 16 -24 36 -43 45 -42 257 -305 314 -388 l41 -61
10 0 10 0 -7 13 c-78 133 -334 449 -386 478 l-18 10 0 -9z"/>
<path d="M57068 40883 c184 -2 481 -2 660 0 l327 2 -660 0 -660 0 333 -2z"/>
<path d="M59996 40581 c5 -4 27 -17 49 -29 l40 -21 458 -66 459 -67 51 -17 52
-17 175 -113 c155 -101 342 -216 409 -251 l23 -12 -5 9 c-4 6 -44 31 -89 58
-46 26 -183 113 -306 192 l-223 145 -91 18 c-51 11 -279 47 -507 81 l-416 61
-31 19 c-17 10 -37 19 -45 19 l-13 0 10 -9z"/>
<path d="M59973 40497 c-17 -34 -45 -98 -61 -142 l-30 -80 -5 -52 -4 -53 8 0
9 0 0 46 0 46 44 113 c25 63 52 128 61 145 9 18 15 34 13 36 -2 2 -18 -25 -35
-59z"/>
<path d="M53220 40032 l0 -7 205 -41 206 -41 5 8 5 8 -23 6 c-56 13 -373 75
-385 75 -7 0 -13 -3 -13 -8z"/>
<path d="M84625 39889 c-77 -49 -142 -94 -143 -100 -3 -8 271 162 293 182 l9
9 -9 0 c-6 0 -73 -41 -150 -91z"/>
<path d="M84780 39956 c0 -4 39 -65 87 -134 47 -70 165 -257 261 -417 191
-317 180 -300 186 -294 11 10 -472 784 -525 844 l-9 9 0 -8z"/>
<path d="M94325 39649 l-20 -9 60 6 c33 4 62 8 64 10 9 8 -85 2 -104 -7z"/>
<path d="M85090 39552 c0 -15 252 -423 258 -418 2 3 -53 99 -123 213 -144 234
-135 220 -135 205z"/>
<path d="M52902 38855 c5 -5 207 -45 638 -126 118 -22 307 -58 419 -79 113
-22 207 -37 209 -35 3 3 -1 7 -9 9 -15 5 -669 131 -759 147 -30 5 -151 27
-268 49 -216 41 -239 44 -230 35z"/>
<path d="M53775 38652 l10 -10 170 -31 c94 -18 179 -35 190 -38 l20 -5 -10 10
-10 10 -170 31 c-93 18 -179 35 -190 38 l-20 5 10 -10z"/>
<path d="M60222 38356 c-29 -42 -78 -104 -110 -139 -31 -34 -67 -75 -81 -91
l-26 -29 12 4 c16 6 146 152 210 237 l54 73 -3 10 -3 10 -53 -75z"/>
<path d="M85850 38246 c0 -13 262 -428 267 -423 4 5 -238 400 -258 422 l-9 9
0 -8z"/>
<path d="M60065 38022 c88 -89 570 -532 580 -532 l9 0 -14 14 c-535 496 -688
634 -575 518z"/>
<path d="M59598 37776 c-43 -29 -118 -75 -168 -101 -49 -27 -90 -53 -90 -56 0
-10 210 107 295 164 l70 47 -15 -1 c-8 0 -50 -24 -92 -53z"/>
<path d="M58195 37637 c-77 -155 -93 -193 -105 -250 l-7 -38 11 4 10 3 7 30
c3 16 11 39 17 51 7 12 12 28 12 36 0 8 20 51 45 96 25 44 56 108 69 141 l24
60 -6 4 -7 4 -70 -141z"/>
<path d="M60914 37672 l-120 -27 -29 -19 c-41 -27 -115 -97 -115 -108 l0 -10
57 52 c72 66 91 74 237 105 114 24 152 36 110 34 -10 0 -73 -13 -140 -27z"/>
<path d="M60925 37632 l-121 -27 -49 -37 c-28 -20 -72 -60 -100 -88 -27 -29
-83 -77 -124 -107 l-73 -55 -67 -25 c-36 -13 -70 -29 -76 -34 l-10 -10 82 30
82 30 73 55 c40 29 93 75 118 101 25 26 70 66 100 89 l55 42 115 24 c63 12
124 27 135 31 l20 8 -20 -1 c-11 0 -74 -12 -140 -26z"/>
<path d="M59360 37602 c0 -18 184 -382 192 -382 7 0 -175 375 -188 389 -2 2
-4 -1 -4 -7z"/>
<path d="M59320 37585 c0 -9 190 -385 194 -385 7 0 -35 93 -113 249 -63 124
-81 155 -81 136z"/>
<path d="M86187 37247 c-125 -82 -226 -152 -223 -154 3 -3 105 61 228 142 243
161 233 153 227 159 -2 2 -107 -64 -232 -147z"/>
<path d="M57951 37356 l-12 -15 23 -15 c39 -25 380 -226 384 -226 1 0 92 -52
200 -115 l197 -116 9 13 c4 7 8 15 8 19 0 3 -87 56 -192 118 -106 62 -283 166
-393 232 -110 65 -203 119 -206 119 -4 0 -12 -6 -18 -14z"/>
<path d="M30146 37148 c4 -57 8 -130 7 -163 l-2 -60 -20 -57 -20 -58 9 -5 8
-5 15 38 c8 21 20 65 27 98 l12 59 -11 78 c-6 43 -11 101 -11 128 l0 49 -12 0
-11 0 9 -102z"/>
<path d="M85520 36988 c66 -106 125 -194 130 -196 5 -2 -45 83 -111 190 -66
106 -124 194 -129 196 -5 2 44 -83 110 -190z"/>
<path d="M83453 36907 c10 -28 231 -387 239 -387 7 0 -196 340 -230 385 l-14
20 5 -18z"/>
<path d="M40084 36504 c-6 -3 -69 -10 -140 -17 l-129 -12 -3 -97 -3 -98 8 0 8
0 0 93 0 92 85 6 c88 6 230 28 230 35 0 5 -42 4 -56 -2z"/>
<path d="M55863 35908 c3 -13 16 -94 28 -180 l22 -158 7 0 6 0 -25 180 -25
180 -9 0 -9 0 5 -22z"/>
<path d="M86487 35769 l-17 -10 5 -8 4 -8 36 11 c19 6 35 14 35 18 l0 8 -22 0
c-13 0 -31 -5 -41 -11z"/>
<path d="M86645 35712 c22 -45 157 -232 167 -232 4 0 8 3 8 6 0 7 -132 190
-166 229 l-26 30 17 -33z"/>
<path d="M86440 35690 l0 -13 7 6 6 7 -6 7 -7 6 0 -13z"/>
<path d="M84636 35479 c-137 -87 -244 -159 -238 -159 6 0 121 70 255 155 l244
155 39 0 39 -1 26 -22 26 -22 53 -95 c29 -52 82 -136 119 -185 36 -50 100
-146 140 -213 41 -67 76 -120 79 -118 7 7 -141 247 -213 346 -34 47 -86 128
-115 180 l-52 95 -27 22 -26 22 -50 0 -50 0 -249 -160z"/>
<path d="M84917 35603 c-22 -6 -1245 -789 -1267 -811 l-15 -15 35 20 c19 11
306 194 636 406 l602 387 26 0 26 0 20 -20 c11 -11 33 -45 49 -77 17 -32 44
-78 60 -103 l31 -45 0 17 c0 9 -4 20 -10 23 -5 3 -33 49 -61 101 l-51 94 -21
15 c-22 15 -28 16 -60 8z"/>
<path d="M79805 35470 l-130 -70 -127 -42 c-70 -23 -126 -44 -124 -46 2 -2 50
11 107 29 l104 32 105 53 c133 66 218 114 205 114 -5 0 -68 -32 -140 -70z"/>
<path d="M56036 34998 c13 -90 26 -183 30 -208 l7 -45 4 13 5 13 -28 194 -27
195 -7 0 -7 0 23 -162z"/>
<path d="M85380 34948 c0 -14 180 -298 227 -357 2 -2 5 -2 8 1 3 3 -8 22 -24
42 -17 21 -65 95 -107 164 -72 118 -104 165 -104 150z"/>
<path d="M85910 34765 c-19 -12 -86 -55 -147 -95 -62 -40 -113 -76 -113 -81 0
-13 13 -11 35 5 11 7 36 22 55 33 86 49 220 136 220 143 0 18 -16 17 -50 -5z"/>
<path d="M57660 34105 c0 -2 10 -24 21 -48 l21 -43 27 -11 26 -10 39 -94 c63
-150 77 -181 82 -176 5 5 -104 266 -118 285 l-10 12 -20 0 -19 0 -19 45 c-17
39 -30 57 -30 40z"/>
<path d="M57643 34043 c12 -27 26 -54 30 -60 l8 -13 18 0 18 0 58 -130 c32
-72 60 -128 63 -125 3 2 -22 63 -54 134 l-59 130 -20 3 -20 3 -24 53 c-14 28
-28 52 -32 52 l-8 0 22 -47z"/>
<path d="M53528 33961 l-186 -26 -9 -9 -8 -8 30 6 c17 3 118 17 225 31 185 25
244 36 169 34 -19 -1 -118 -13 -221 -28z"/>
<path d="M83047 33399 c13 -24 237 -269 246 -269 5 0 -24 37 -64 82 -103 114
-192 206 -182 187z"/>
<path d="M83031 33354 c121 -137 229 -252 229 -245 0 11 -229 265 -244 270
l-11 4 26 -29z"/>
<path d="M73104 32580 l23 -50 26 -20 25 -20 44 1 43 1 -34 8 c-18 4 -45 14
-58 21 l-25 13 -24 48 -24 48 -10 0 -9 0 23 -50z"/>
<path d="M98389 32526 l-66 -23 -46 -32 c-25 -17 -49 -36 -52 -41 l-6 -10 6 0
c4 0 24 13 44 28 40 31 124 68 187 82 l41 9 74 -8 74 -9 59 -22 60 -23 66 -68
67 -68 17 -46 18 -45 9 0 9 0 -29 58 -30 57 -46 52 -46 52 -63 31 -63 31 -64
9 c-35 5 -84 10 -109 10 l-45 0 -66 -24z"/>
<path d="M73283 32503 c9 -2 25 -2 35 0 l17 5 -35 0 -35 0 18 -5z"/>
<path d="M230 27555 c-6 -14 -14 -36 -20 -50 l-10 -25 14 0 14 0 16 47 c19 55
19 53 6 53 l-10 0 -10 -25z"/>
<path d="M23645 26490 c31 -8 112 -13 104 -6 -2 2 -33 6 -69 9 l-65 5 30 -8z"/>
<path d="M23778 26473 c12 -2 30 -2 40 0 l17 5 -40 -1 -40 0 23 -4z"/>
<path d="M23858 26463 c12 -2 30 -2 40 0 l17 5 -40 -1 -40 0 23 -4z"/>
<path d="M23938 26453 l13 -5 6 6 6 6 -19 -1 -19 -1 13 -5z"/>
<path d="M87395 25990 l-5 -9 202 -160 202 -160 9 6 c4 3 7 6 5 8 -2 1 -94 75
-205 163 l-202 161 -6 -9z"/>
<path d="M4500 25015 l0 -36 -14 -27 c-17 -34 -83 -95 -198 -186 -77 -61 -101
-86 -82 -86 9 0 195 149 242 194 24 22 50 53 58 68 l14 27 0 41 0 40 -10 0
-10 0 0 -35z"/>
<path d="M90495 24839 c100 -11 338 -46 373 -55 l22 -6 0 9 0 9 -147 23 -148
23 -95 3 -95 4 90 -10z"/>
<path d="M89600 21448 c0 -9 23 -111 51 -228 l51 -212 9 9 8 8 -51 210 c-28
116 -54 214 -59 220 l-9 9 0 -16z"/>
<path d="M7560 15403 c-239 -30 -437 -57 -439 -59 -2 -2 -2 -7 1 -10 l6 -6
466 58 465 57 -5 9 -5 8 -27 -1 c-15 -1 -223 -26 -462 -56z"/>
<path d="M2960 12511 c0 -5 157 -146 350 -314 l349 -307 5 9 6 8 -349 307
c-192 168 -352 306 -355 306 -3 0 -6 -4 -6 -9z"/>
<path d="M23713 2525 l-117 -175 11 -11 10 -10 105 158 c57 87 113 170 122
186 l18 27 -16 0 -16 0 -117 -175z"/>
<path d="M13580 1494 l0 -14 22 0 c11 0 111 -7 220 -16 l199 -16 6 6 6 6 -6 7
c-4 3 -82 12 -174 19 -93 7 -192 15 -220 18 l-53 5 0 -15z"/>
</g>
</svg>
