<?xml version="1.0" standalone="no"?>
<!DOCTYPE svg PUBLIC "-//W3C//DTD SVG 20010904//EN"
 "http://www.w3.org/TR/2001/REC-SVG-20010904/DTD/svg10.dtd">
<svg version="1.0" xmlns="http://www.w3.org/2000/svg"
 width="7500.000000pt" height="7500.000000pt" viewBox="0 0 7500.000000 7500.000000"
 preserveAspectRatio="xMidYMid meet">
<metadata>
Created by potrace 1.16, written by Peter Selinger 2001-2019
</metadata>
<g transform="translate(0.000000,7500.000000) scale(0.075000,-0.075000)"
fill="#000000" stroke="none">
<path d="M90011 99308 c-11 -39 -35 -138 -52 -219 l-32 -149 7 -7 6 -6 6 6 c3
3 21 76 39 161 19 86 36 159 38 164 3 4 12 30 20 59 l15 51 -12 5 -13 5 -22
-70z"/>
<path d="M85230 97842 c0 -10 191 -354 206 -371 2 -2 7 -1 10 2 l7 7 -96 167
c-53 93 -103 177 -111 188 l-15 20 -1 -13z"/>
<path d="M32396 94211 l-7 -10 90 -66 89 -65 81 -86 c45 -47 81 -90 81 -95 l0
-10 10 6 c19 12 10 26 -77 117 l-88 91 -75 55 c-41 30 -80 59 -87 64 l-11 9
-6 -10z"/>
<path d="M86780 92705 c0 -7 220 -151 255 -167 l26 -12 44 44 c25 24 45 49 45
54 l0 10 -45 -44 -46 -45 -44 24 c-24 13 -85 50 -135 82 -91 59 -100 64 -100
54z"/>
<path d="M92252 92347 c-12 -14 -102 -237 -102 -251 l0 -10 8 10 c5 5 28 59
52 119 24 61 46 114 50 118 l8 9 62 -32 62 -31 6 5 c7 8 7 8 -70 44 l-67 30
-9 -11z"/>
<path d="M55517 90824 c-59 -107 -107 -199 -107 -204 l0 -10 13 0 14 0 93 173
c52 94 100 181 107 193 l13 21 -13 11 -13 11 -107 -195z"/>
<path d="M31260 90494 c-118 -25 -216 -47 -219 -49 -2 -3 -1 -8 3 -12 l7 -8
220 45 219 44 0 13 c0 16 25 20 -230 -33z"/>
<path d="M88520 87059 c0 -8 27 -94 61 -191 l61 -178 9 0 8 0 -65 187 c-65
187 -74 209 -74 182z"/>
<path d="M83571 86593 c-30 -131 -56 -244 -59 -252 l-5 -14 14 5 14 5 12 54
c7 30 32 141 56 247 l44 192 -11 0 -12 0 -53 -237z"/>
<path d="M56250 85570 l0 -10 195 0 195 0 0 10 0 10 -195 0 -195 0 0 -10z"/>
<path d="M29982 84393 l-7 -18 0 -80 0 -80 39 -115 c21 -63 42 -119 47 -124
22 -24 16 10 -22 120 l-41 119 -2 70 -1 70 8 28 7 27 -10 0 c-6 0 -14 -8 -18
-17z"/>
<path d="M80510 84371 l0 -8 278 -96 c152 -52 348 -120 435 -150 86 -30 157
-52 157 -48 0 3 -134 53 -297 109 -164 57 -360 126 -435 152 l-138 49 0 -8z"/>
<path d="M77501 83656 c2 -2 98 -36 212 -76 l209 -72 5 6 c4 3 4 6 2 6 -3 0
-96 32 -208 70 -182 63 -233 78 -220 66z"/>
<path d="M76525 82588 c-59 -95 -115 -183 -123 -195 l-14 -23 8 0 c11 0 248
379 242 386 -3 2 -53 -74 -113 -168z"/>
<path d="M79653 82399 c4 -13 28 -105 53 -204 44 -169 57 -205 68 -194 3 3
-19 97 -48 209 l-53 204 -13 4 -13 5 6 -24z"/>
<path d="M33207 81493 l-7 -6 147 -96 c82 -53 165 -107 185 -119 l36 -23 6 9
6 10 -181 116 c-99 64 -181 116 -183 116 -1 0 -6 -3 -9 -7z"/>
<path d="M36230 81172 l0 -10 73 -7 c39 -4 132 -20 205 -37 l134 -30 6 6 c10
11 -4 15 -134 45 l-129 29 -77 7 -78 7 0 -10z"/>
<path d="M99342 78688 c-50 -117 -90 -214 -87 -216 7 -7 6 -10 68 135 32 72
73 165 92 207 l34 75 -7 5 -8 5 -92 -211z"/>
<path d="M74147 77283 c-4 -3 -7 -17 -7 -30 l0 -24 24 -47 24 -47 31 -29 31
-30 7 7 7 7 -26 28 c-14 15 -35 43 -47 62 l-21 35 0 38 0 37 -8 0 c-5 0 -12
-3 -15 -7z"/>
<path d="M73000 70832 l0 -8 113 -27 112 -27 120 -10 120 -10 243 0 242 0 0
10 0 10 -221 0 -220 0 -147 11 -147 10 -98 25 c-107 26 -117 28 -117 16z"/>
<path d="M3620 65640 c-49 -9 -104 -32 -162 -68 l-37 -23 6 -14 5 -15 27 21
c14 12 55 34 90 50 l63 29 72 1 71 1 45 -16 c24 -9 59 -25 76 -35 l32 -19 11
11 11 11 -41 23 c-23 13 -67 30 -99 38 l-58 15 -33 -1 c-19 -1 -54 -5 -79 -9z"/>
<path d="M92480 65618 c0 -7 22 -102 48 -211 l47 -198 10 3 c6 2 9 5 9 8 -1 3
-23 96 -50 208 l-48 202 -8 0 c-4 0 -8 -6 -8 -12z"/>
<path d="M37057 64570 l-5 -20 36 -10 c21 -6 107 -20 192 -31 l155 -20 235
-14 c129 -8 254 -14 278 -15 l42 0 0 20 0 20 -35 0 c-165 0 -722 53 -838 80
-56 13 -54 13 -60 -10z"/>
<path d="M41676 63838 c-14 -73 -26 -141 -26 -150 l0 -18 8 0 9 0 27 133 c15
72 28 138 29 146 l2 14 -11 4 -11 4 -27 -133z"/>
<path d="M41451 63743 l-24 -5 -174 -145 c-95 -81 -171 -148 -168 -151 4 -4
134 102 300 245 l50 43 40 0 40 0 49 -15 c27 -8 56 -15 65 -14 l16 1 -60 19
c-74 23 -103 28 -134 22z"/>
<path d="M50130 63552 l0 -8 174 -73 175 -73 10 3 11 4 -147 62 c-82 34 -165
69 -185 78 l-38 15 0 -8z"/>
<path d="M41540 63152 c0 -12 19 -26 26 -19 2 2 -2 10 -11 17 l-15 12 0 -10z"/>
<path d="M42684 62870 c-142 -126 -351 -309 -464 -406 -113 -97 -209 -181
-214 -185 l-10 -9 6 -6 6 -6 174 148 c95 81 229 200 298 264 69 64 199 181
290 260 91 79 169 147 174 152 5 4 7 10 5 13 -3 2 -122 -99 -265 -225z"/>
<path d="M16350 62890 c25 -5 92 -9 150 -10 58 -1 126 -5 153 -9 l47 -8 0 7
c0 15 -48 20 -220 24 l-175 5 45 -9z"/>
<path d="M42425 62692 c-33 -31 -165 -146 -293 -254 l-232 -198 0 -22 0 -22
23 31 22 32 215 183 c233 198 338 294 330 302 -3 2 -32 -21 -65 -52z"/>
<path d="M42400 62565 c0 -10 231 -270 243 -274 l12 -4 -26 29 c-14 16 -70 80
-123 142 -92 106 -106 120 -106 107z"/>
<path d="M89015 62351 c17 -16 97 -86 179 -155 l149 -125 9 5 c5 3 8 7 6 9
-120 105 -352 295 -361 295 l-12 0 30 -29z"/>
<path d="M42733 62240 c37 -39 97 -102 133 -141 37 -38 68 -68 70 -66 7 6
-247 277 -259 277 l-10 0 66 -70z"/>
<path d="M57330 61901 l0 -8 383 -166 c210 -91 408 -177 440 -191 l57 -26 0 8
c0 4 -80 42 -178 84 -97 43 -280 123 -407 178 -126 56 -245 108 -262 115 l-33
14 0 -8z"/>
<path d="M57320 61862 l0 -9 216 -92 c118 -51 217 -91 220 -89 3 4 -65 35
-383 175 l-53 23 0 -8z"/>
<path d="M80090 61818 c-1 -2 -20 -103 -44 -226 l-42 -222 10 3 11 4 8 40 c4
22 23 119 41 217 l33 177 -8 5 c-5 3 -9 4 -9 2z"/>
<path d="M45638 61318 c-123 -105 -225 -193 -227 -195 -2 -2 -2 -5 0 -8 3 -2
102 78 220 180 118 102 217 185 220 185 4 0 12 -37 18 -82 7 -46 22 -157 35
-248 l24 -165 1 30 c0 17 -13 129 -29 250 l-30 220 4 12 5 13 -9 0 c-5 0 -110
-86 -232 -192z"/>
<path d="M43430 61427 c0 -5 21 -33 48 -64 51 -60 320 -298 328 -290 3 2 -56
57 -131 121 -74 65 -160 145 -190 179 -30 34 -55 58 -55 54z"/>
<path d="M48276 60548 c28 -32 305 -250 310 -245 3 3 -55 52 -128 110 -73 57
-144 117 -157 131 -14 14 -29 26 -34 26 l-10 0 19 -22z"/>
<path d="M62595 60360 c-71 -15 -156 -33 -188 -40 -32 -6 -56 -14 -54 -17 7
-6 380 68 392 78 l9 9 -14 -1 c-8 0 -73 -13 -145 -29z"/>
<path d="M47341 60223 l-77 -78 70 64 c39 36 78 71 86 78 8 7 11 13 7 13 -4 0
-43 -35 -86 -77z"/>
<path d="M45560 59225 c0 -6 35 -45 78 -87 l77 -76 114 -81 113 -82 6 5 c7 7
17 -1 -113 91 l-110 78 -82 81 c-46 44 -83 76 -83 71z"/>
<path d="M63811 58924 c-1 -15 269 -1337 274 -1343 10 -10 1 40 -125 662 -120
586 -147 712 -149 681z"/>
<path d="M92020 58895 c0 -3 -29 -105 -65 -226 l-66 -221 6 -6 5 -5 6 5 c6 6
134 435 134 449 0 5 -4 9 -10 9 -5 0 -10 -2 -10 -5z"/>
<path d="M60670 58319 l-185 -39 -47 -1 -47 0 -13 -16 -13 -17 20 8 c11 5 29
8 40 7 29 -1 428 81 440 91 l9 8 -9 -1 c-6 -1 -93 -19 -195 -40z"/>
<path d="M55476 57784 c-104 -13 -194 -25 -200 -28 l-11 -4 20 -1 c34 -1 416
47 422 53 l6 6 -24 -1 c-13 -1 -109 -12 -213 -25z"/>
<path d="M64131 57576 c-1 -24 89 -481 183 -926 41 -195 76 -366 78 -380 l3
-25 20 -3 c11 -2 28 -11 38 -20 l17 -15 0 -27 0 -27 -18 -16 -19 -17 -26 0
-26 0 -14 15 -15 14 -6 -6 -6 -6 17 -19 16 -18 38 0 38 0 20 26 21 27 0 32 0
32 -23 21 -23 22 -15 0 -15 0 -89 418 c-49 229 -113 530 -141 667 -29 138 -53
242 -53 231z"/>
<path d="M64274 56660 c3 -14 25 -117 48 -230 l43 -205 3 17 c4 21 -77 408
-90 428 l-9 15 5 -25z"/>
<path d="M79455 56587 c-56 -44 -182 -85 -320 -106 l-60 -8 71 -2 71 -1 94 31
94 31 47 31 c27 18 48 35 48 40 0 12 -14 8 -45 -16z"/>
<path d="M90080 56018 c-96 -83 -176 -155 -178 -159 l-4 -9 10 0 c7 0 292 240
350 295 l14 13 -9 5 -8 5 -175 -150z"/>
<path d="M46936 55712 l-5 -9 33 -109 c19 -60 46 -136 61 -169 15 -33 36 -79
46 -102 l18 -43 16 6 15 6 0 13 c0 7 -18 52 -40 100 -22 47 -56 138 -75 201
l-36 114 -14 0 c-8 0 -16 -4 -19 -8z"/>
<path d="M25990 55663 c0 -9 366 -276 474 -346 l58 -38 6 5 c7 7 13 3 -83 66
-44 30 -159 111 -255 180 -96 69 -181 129 -187 134 l-13 7 0 -8z"/>
<path d="M61044 55543 c2 -10 7 -65 11 -123 7 -123 34 -362 40 -369 8 -7 5 38
-9 164 -8 66 -17 171 -21 233 l-8 112 -9 0 -9 0 5 -17z"/>
<path d="M51072 55310 l-83 -7 -7 -8 -7 -7 75 7 c41 4 147 11 235 15 l160 7
-145 0 c-80 0 -182 -3 -228 -7z"/>
<path d="M51107 55276 l-117 -13 -8 -8 -7 -8 55 8 c30 4 136 11 235 15 l180 7
-66 1 c-36 1 -86 4 -110 6 l-44 4 -118 -12z"/>
<path d="M52222 54698 c-73 -110 -132 -202 -129 -204 2 -2 64 86 137 196 73
110 131 202 129 204 -2 2 -64 -86 -137 -196z"/>
<path d="M50820 54472 c0 -5 53 -47 118 -94 64 -48 161 -125 214 -172 97 -86
108 -94 108 -77 0 14 -196 181 -316 269 -111 82 -124 89 -124 74z"/>
<path d="M53036 54471 c22 -21 496 -322 500 -318 5 5 -490 327 -502 327 l-8 0
10 -9z"/>
<path d="M51586 54058 c-47 -56 -86 -107 -86 -112 l0 -10 8 10 c74 82 173 206
170 210 -3 2 -44 -41 -92 -98z"/>
<path d="M51230 54009 l0 -14 85 -67 84 -68 5 9 6 9 -43 34 c-23 19 -63 51
-89 72 l-48 38 0 -13z"/>
<path d="M22390 53710 l-115 -118 -67 -17 c-38 -10 -68 -21 -68 -25 l0 -8 68
21 67 20 31 23 c35 26 209 213 203 218 -2 2 -56 -49 -119 -114z"/>
<path d="M51923 53453 l7 -6 7 6 6 7 -13 0 -13 0 6 -7z"/>
<path d="M51789 53406 c-88 -33 -164 -74 -155 -83 3 -3 18 4 34 16 16 11 69
35 118 52 94 34 100 37 93 43 -2 2 -43 -10 -90 -28z"/>
<path d="M36313 53273 l6 -10 158 -7 c87 -4 186 -9 221 -13 l62 -6 0 10 0 10
-67 7 c-38 3 -140 9 -227 12 l-159 7 6 -10z"/>
<path d="M49135 53112 c-133 -68 -200 -110 -191 -119 3 -3 20 5 38 18 18 13
95 56 173 96 l140 72 -15 0 c-8 0 -74 -30 -145 -67z"/>
<path d="M55414 53088 l-7 -11 11 7 c12 7 16 16 8 16 -3 0 -8 -5 -12 -12z"/>
<path d="M52651 52645 l-114 -55 5 -6 6 -5 111 55 c61 31 111 58 111 61 0 7 6
10 -119 -50z"/>
<path d="M54986 52412 l-86 -128 -43 -41 -42 -41 -105 -58 c-58 -32 -148 -78
-200 -102 -110 -51 -107 -49 -93 -63 l10 -10 134 66 c74 37 162 83 197 102
l62 35 -7 11 -6 12 8 -7 8 -7 45 40 46 40 50 73 c28 41 70 101 93 134 l42 60
-6 6 c-14 14 -25 1 -107 -122z"/>
<path d="M54272 52088 l-12 -12 0 -27 0 -28 10 -6 10 -6 0 23 0 24 12 12 12
12 -10 10 -10 10 -12 -12z"/>
<path d="M16665 52049 l-6 -9 38 -17 c21 -9 118 -49 215 -89 l178 -73 5 9 5 9
-7 4 c-5 3 -80 34 -168 70 -88 36 -181 75 -207 86 l-47 20 -6 -10z"/>
<path d="M37223 51546 l-142 -11 -7 -8 -7 -7 74 6 c41 3 144 12 229 19 l155
12 -80 0 c-44 0 -144 -5 -222 -11z"/>
<path d="M41401 51313 c-89 -303 -201 -706 -197 -710 5 -6 11 15 136 451 50
175 89 321 86 323 -2 3 -14 -26 -25 -64z"/>
<path d="M33485 51255 c3 -22 17 -123 30 -223 13 -101 27 -187 31 -190 l7 -7
-6 40 c-3 22 -16 121 -28 220 l-22 180 -9 10 -9 10 6 -40z"/>
<path d="M28364 50976 c-3 -8 -4 -29 -2 -47 l3 -32 10 -4 10 -3 0 50 0 50 -8
0 c-4 0 -10 -6 -13 -14z"/>
<path d="M33610 50384 c0 -22 61 -388 65 -393 3 -2 5 2 5 10 0 29 -58 381 -64
386 l-6 6 0 -9z"/>
<path d="M33710 49883 c0 -27 50 -387 55 -391 3 -3 5 2 5 10 0 31 -50 381 -55
386 -3 3 -5 1 -5 -5z"/>
<path d="M40120 49553 c0 -7 32 -93 71 -190 39 -98 75 -189 80 -202 5 -13 12
-22 14 -19 3 2 -33 99 -80 214 -46 115 -84 203 -85 197z"/>
<path d="M37924 49080 c2 -14 19 -115 37 -225 l32 -200 10 -10 9 -10 -5 20
c-3 11 -20 108 -37 215 -17 107 -35 204 -41 215 l-9 20 4 -25z"/>
<path d="M34485 48590 l-6 -10 20 0 20 0 6 10 6 10 -20 0 -20 0 -6 -10z"/>
<path d="M32870 48511 l-75 -6 3 -30 c5 -49 33 -209 38 -214 7 -7 4 20 -11
114 -8 50 -15 98 -15 108 l0 17 80 0 80 0 0 10 0 10 -12 -2 c-7 -1 -47 -4 -88
-7z"/>
<path d="M37287 47385 c-184 -11 -231 -17 -216 -28 2 -2 131 4 286 13 l282 15
7 8 7 7 -79 -1 c-43 -1 -173 -7 -287 -14z"/>
<path d="M36093 47336 l-191 -11 -9 -9 -8 -8 65 6 c86 8 493 26 645 29 l120 3
-215 0 -215 1 -192 -11z"/>
<path d="M52072 46288 c99 -210 96 -204 103 -196 3 3 -34 90 -83 193 l-88 189
-12 4 -11 3 91 -193z"/>
<path d="M81200 45680 l0 -10 15 0 15 0 0 10 0 10 -15 0 -15 0 0 -10z"/>
<path d="M49200 43067 c0 -2 20 -18 45 -36 52 -38 59 -33 13 10 -27 24 -58 38
-58 26z"/>
<path d="M96284 42275 c8 -23 141 -208 213 -298 l62 -77 5 8 5 9 -77 99 c-42
55 -104 139 -137 187 -33 47 -64 86 -69 87 l-8 0 6 -15z"/>
<path d="M89795 37159 c-203 -125 -188 -115 -184 -127 l4 -10 185 113 c102 63
184 117 183 120 -1 4 -3 8 -5 10 -2 2 -84 -46 -183 -106z"/>
<path d="M41764 35677 l19 -14 -5 -27 -6 -28 10 10 10 10 -4 28 -3 29 -20 3
-20 4 19 -15z"/>
<path d="M86430 35665 l0 -16 58 -87 58 -87 52 -111 c29 -61 52 -119 52 -128
l0 -16 11 0 11 0 -6 35 -7 36 -53 107 c-28 59 -75 142 -104 186 -29 43 -52 82
-52 87 0 5 -4 9 -10 9 l-10 0 0 -15z"/>
<path d="M41300 35462 c0 -17 33 -82 41 -82 l8 0 -18 40 c-10 22 -21 43 -24
47 l-7 6 0 -11z"/>
<path d="M41381 35388 c-1 -9 31 -108 69 -220 85 -246 80 -232 85 -227 2 3
-32 108 -75 234 -43 127 -79 222 -79 213z"/>
<path d="M85150 35375 c0 -3 24 -38 54 -78 29 -40 133 -202 231 -362 98 -159
185 -298 193 -308 24 -27 26 -12 4 20 -12 15 -98 154 -192 308 -183 297 -290
453 -290 420z"/>
<path d="M41500 34909 c1 -20 159 -457 160 -439 0 13 -148 440 -156 449 -2 2
-4 -2 -4 -10z"/>
<path d="M29890 34740 c0 -7 41 -105 91 -216 l92 -204 9 0 9 0 -4 8 c-3 4 -46
99 -97 212 -96 213 -100 222 -100 200z"/>
<path d="M83305 32884 c-28 -13 -61 -33 -75 -44 l-25 -20 80 36 c90 40 90 40
78 47 l-8 5 -50 -24z"/>
<path d="M79411 32686 c7 -7 362 -146 373 -146 l9 0 -6 7 c-11 11 -185 83
-276 114 -80 27 -110 35 -100 25z"/>
<path d="M98907 31692 c78 -120 270 -392 276 -392 4 0 -33 60 -83 133 -51 72
-115 167 -144 209 -28 43 -55 78 -59 78 l-9 0 19 -28z"/>
<path d="M95218 27016 c-98 -72 -183 -138 -190 -146 l-13 -14 30 19 c30 19
332 240 349 256 5 5 8 10 5 12 -2 2 -84 -55 -181 -127z"/>
<path d="M87395 25990 l-5 -9 202 -160 202 -160 9 6 c4 3 7 6 5 8 -2 1 -94 75
-205 163 l-202 161 -6 -9z"/>
<path d="M90490 24839 c47 -5 150 -18 230 -30 l145 -20 120 -34 120 -34 120
-50 c65 -28 124 -51 130 -51 5 1 -51 27 -125 59 l-135 58 -109 32 -109 32
-126 19 -126 20 -110 4 -110 5 85 -10z"/>
<path d="M89255 20558 c-85 -78 -155 -146 -155 -151 0 -8 284 246 310 278 34
41 -14 2 -155 -127z"/>
<path d="M16310 1237 l0 -13 448 -27 447 -28 105 -14 c58 -8 162 -17 233 -20
l127 -7 0 15 0 14 -152 6 c-84 4 -180 11 -214 17 -41 7 -934 70 -991 70 -2 0
-3 -6 -3 -13z"/>
</g>
</svg>
